<?xml version="1.0" encoding="UTF-8" standalone="no"?>
<svg width="32px" height="232px" viewBox="0 0 32 232" version="1.1" xmlns="http://www.w3.org/2000/svg" xmlns:xlink="http://www.w3.org/1999/xlink" xmlns:sketch="http://www.bohemiancoding.com/sketch/ns">
    <!-- Generator: Sketch 3.0.4 (8054) - http://www.bohemiancoding.com/sketch -->
    <title>adventure-travel 2</title>
    <desc>Created with Sketch.</desc>
    <defs></defs>
    <g id="Points-of-interest" stroke="none" stroke-width="1" fill="none" fill-rule="evenodd" sketch:type="MSPage">
        <g id="Art-&amp;-Literature" sketch:type="MSLayerGroup">
            <path d="M19.66125,2.68061538 L3.90666667,2.68061538 C3.33791667,2.68061538 2.87666667,3.15704615 2.87666667,3.74547692 L2.87666667,25.8848615 C2.87666667,27.4347692 4.09625,28.6960615 5.59541667,28.6960615 L19.3995833,28.6960615 C19.96875,28.6960615 20.43,28.2187692 20.43,27.6307692 C20.43,27.0427692 19.96875,26.5654769 19.3995833,26.5654769 C19.32375,26.5654769 19.25125,26.5521231 19.1833333,26.5271385 C19.1416667,26.3643077 19.11625,26.1549538 19.11625,25.8848615 C19.11625,25.6156308 19.1416667,25.4062769 19.1833333,25.2430154 C19.25125,25.2180308 19.32375,25.2042462 19.3995833,25.2042462 C19.4445833,25.2042462 19.4875,25.1999385 19.5304167,25.1947692 C19.5733333,25.1999385 19.6166667,25.2042462 19.66125,25.2042462 C20.23,25.2042462 20.69125,24.7273846 20.69125,24.1393846 L20.69125,3.74547692 C20.69125,3.15704615 20.23,2.68061538 19.66125,2.68061538 L19.66125,2.68061538 Z M4.93666667,4.80990769 L5.82208333,4.80990769 L5.82208333,13.8543385 C5.82208333,14.0727385 5.95166667,14.2696 6.14833333,14.3497231 C6.20958333,14.3747077 6.27333333,14.3867692 6.33708333,14.3867692 C6.47708333,14.3867692 6.61416667,14.3273231 6.71375,14.2174769 L8.4025,12.3457846 C8.49125,12.2471385 8.54083333,12.1174769 8.54083333,11.9826462 L8.54083333,4.80990769 L18.63125,4.80990769 L18.63125,23.0745231 L5.59541667,23.0745231 C5.36791667,23.0745231 5.1475,23.1038154 4.93666667,23.1580923 L4.93666667,4.80990769 L4.93666667,4.80990769 Z M6.85208333,4.80990769 L6.85208333,4.27790769 L7.51083333,4.27790769 L7.51083333,11.7728615 L6.85208333,12.5030154 L6.85208333,4.80990769 L6.85208333,4.80990769 Z M18.2829167,24.6718154 C18.1616667,24.9802462 18.08625,25.3769846 18.08625,25.8848615 C18.08625,26.3936 18.1616667,26.7903385 18.2829167,27.0983385 L5.59541667,27.0983385 C5.33166667,27.0983385 5.08833333,27.0070154 4.89208333,26.8540923 C4.80333333,26.7851692 4.72458333,26.7037538 4.65791667,26.6124308 C4.51,26.4091077 4.42166667,26.1579692 4.42166667,25.8848615 C4.42166667,25.8654769 4.42375,25.8469538 4.42416667,25.828 C4.44125,25.4549538 4.62083333,25.1262769 4.89208333,24.9156308 C4.90708333,24.9048615 4.92125,24.8923692 4.93666667,24.8811692 C5.12458333,24.7489231 5.35125,24.6718154 5.59541667,24.6718154 L18.2829167,24.6718154 L18.2829167,24.6718154 Z" id="Fill-1" fill="#373D43" sketch:type="MSShapeGroup"></path>
            <path d="M19.66125,2.68061538 L3.90666667,2.68061538 C3.33791667,2.68061538 2.87666667,3.15704615 2.87666667,3.74547692 L2.87666667,25.8848615 C2.87666667,27.4347692 4.09625,28.6960615 5.59541667,28.6960615 L19.3995833,28.6960615 C19.96875,28.6960615 20.43,28.2187692 20.43,27.6307692 C20.43,27.0427692 19.96875,26.5654769 19.3995833,26.5654769 C19.32375,26.5654769 19.25125,26.5521231 19.1833333,26.5271385 C19.1416667,26.3643077 19.11625,26.1549538 19.11625,25.8848615 C19.11625,25.6156308 19.1416667,25.4062769 19.1833333,25.2430154 C19.25125,25.2180308 19.32375,25.2042462 19.3995833,25.2042462 C19.4445833,25.2042462 19.4875,25.1999385 19.5304167,25.1947692 C19.5733333,25.1999385 19.6166667,25.2042462 19.66125,25.2042462 C20.23,25.2042462 20.69125,24.7273846 20.69125,24.1393846 L20.69125,3.74547692 C20.69125,3.15704615 20.23,2.68061538 19.66125,2.68061538 L19.66125,2.68061538 Z M4.93666667,4.80990769 L5.82208333,4.80990769 L5.82208333,13.8543385 C5.82208333,14.0727385 5.95166667,14.2696 6.14833333,14.3497231 C6.20958333,14.3747077 6.27333333,14.3867692 6.33708333,14.3867692 C6.47708333,14.3867692 6.61416667,14.3273231 6.71375,14.2174769 L8.4025,12.3457846 C8.49125,12.2471385 8.54083333,12.1174769 8.54083333,11.9826462 L8.54083333,4.80990769 L18.63125,4.80990769 L18.63125,23.0745231 L5.59541667,23.0745231 C5.36791667,23.0745231 5.1475,23.1038154 4.93666667,23.1580923 L4.93666667,4.80990769 L4.93666667,4.80990769 Z M6.85208333,4.80990769 L6.85208333,4.27790769 L7.51083333,4.27790769 L7.51083333,11.7728615 L6.85208333,12.5030154 L6.85208333,4.80990769 L6.85208333,4.80990769 Z M18.2829167,24.6718154 C18.1616667,24.9802462 18.08625,25.3769846 18.08625,25.8848615 C18.08625,26.3936 18.1616667,26.7903385 18.2829167,27.0983385 L5.59541667,27.0983385 C5.33166667,27.0983385 5.08833333,27.0070154 4.89208333,26.8540923 C4.80333333,26.7851692 4.72458333,26.7037538 4.65791667,26.6124308 C4.51,26.4091077 4.42166667,26.1579692 4.42166667,25.8848615 C4.42166667,25.8654769 4.42375,25.8469538 4.42416667,25.828 C4.44125,25.4549538 4.62083333,25.1262769 4.89208333,24.9156308 C4.90708333,24.9048615 4.92125,24.8923692 4.93666667,24.8811692 C5.12458333,24.7489231 5.35125,24.6718154 5.59541667,24.6718154 L18.2829167,24.6718154 L18.2829167,24.6718154 Z" id="Fill-2" fill="#373D43" sketch:type="MSShapeGroup"></path>
            <path d="M27.2383333,14.8231385 C27.42875,13.5812308 27.5658333,12.6839385 27.5658333,11.3476923 C27.5658333,10.5141538 27.2141667,9.95286154 26.7208333,9.63323077 L26.7208333,7.90412308 C27.1558333,7.53926154 27.435,6.98227692 27.435,6.35938462 C27.435,5.68566154 27.10625,5.2592 26.81625,4.88270769 C26.4275,4.37741538 26.025,3.85532308 26.025,2.49323077 C26.025,2.27353846 25.8945833,2.07667692 25.6970833,1.99698462 C25.4991667,1.91772308 25.2741667,1.97113846 25.1304167,2.13310769 C25.0675,2.20375385 23.5845833,3.90012308 23.5845833,6.35938462 C23.5845833,6.98227692 23.86375,7.53926154 24.29875,7.90412308 L24.29875,9.64572308 C23.815,9.96750769 23.4720833,10.5244923 23.4720833,11.3476923 C23.4720833,12.6770462 23.6083333,13.5644308 23.7966667,14.7921231 C23.9379167,15.7118154 24.1129167,16.8555077 24.2841667,18.5510154 C24.4158333,19.8523692 24.33875,21.5862154 24.2645833,23.2623385 C24.1258333,26.3768 24.0766667,28.3238769 24.7775,29.0820308 C24.97875,29.3004308 25.235,29.4154462 25.51875,29.4154462 C25.80375,29.4154462 26.06,29.3 26.2616667,29.0816 C26.96125,28.3238769 26.91125,26.3845538 26.77125,23.2830154 C26.69625,21.6146462 26.61875,19.8894154 26.7491667,18.5949538 C26.9208333,16.8990154 27.0966667,15.748 27.2383333,14.8231385 L27.2383333,14.8231385 Z M25.7425,23.3329846 C25.8008333,24.6296 25.85625,25.8547077 25.8129167,26.8187692 C25.7595833,28.0094154 25.5704167,28.2894154 25.5191667,28.3441231 C25.4679167,28.2894154 25.2779167,28.0068308 25.2241667,26.8118769 C25.1808333,25.8439385 25.235,24.6136615 25.2933333,23.3114462 C25.3691667,21.5956923 25.4483333,19.8217846 25.30875,18.4403077 C25.135,16.7168 24.9566667,15.5576 24.81375,14.6258462 C24.62625,13.4016 24.5020833,12.5934769 24.5020833,11.3476923 C24.5020833,11.0388308 24.58,10.8243077 24.7,10.6761231 C24.8941667,10.4370462 25.2004167,10.372 25.4741667,10.372 L25.4895833,10.372 C25.5066667,10.3728615 25.5275,10.3728615 25.5445833,10.372 L25.56375,10.372 C25.95,10.372 26.1883333,10.4947692 26.3329167,10.6718154 C26.4895833,10.8626462 26.53625,11.1163692 26.53625,11.3476923 C26.53625,12.5999385 26.4108333,13.4184 26.22125,14.6568615 C26.0775,15.5942154 25.8991667,16.7607385 25.725,18.4846769 C25.58625,19.8584 25.6658333,21.6249846 25.7425,23.3329846 L25.7425,23.3329846 Z M26.4045833,6.35938462 C26.4045833,6.86984615 26.0033333,7.28510769 25.5095833,7.28510769 C25.01625,7.28510769 24.615,6.86984615 24.615,6.35938462 C24.615,5.41686154 24.8858333,4.59753846 25.1779167,3.98843077 C25.38625,4.73538462 25.7316667,5.18424615 26.0108333,5.54652308 C26.2766667,5.892 26.4045833,6.07076923 26.4045833,6.35938462 L26.4045833,6.35938462 Z M25.32875,8.34953846 L25.6908333,8.34953846 L25.6908333,9.31058462 C25.6483333,9.30843077 25.60625,9.30713846 25.56375,9.30713846 C25.5454167,9.30713846 25.5308333,9.30713846 25.51875,9.30756923 C25.5075,9.30713846 25.4920833,9.30713846 25.4741667,9.30713846 C25.4258333,9.30713846 25.3775,9.30886154 25.32875,9.31187692 L25.32875,8.34953846 L25.32875,8.34953846 Z" id="Fill-2" fill="#373D43" sketch:type="MSShapeGroup"></path>
            <g id="Imported-Layers-2" transform="translate(3.000000, 42.000000)" fill="#67747C" sketch:type="MSShapeGroup">
                <path d="M16.66125,0.680615385 L0.906666667,0.680615385 C0.337916667,0.680615385 -0.123333333,1.15704615 -0.123333333,1.74547692 L-0.123333333,23.8848615 C-0.123333333,25.4347692 1.09625,26.6960615 2.59541667,26.6960615 L16.3995833,26.6960615 C16.96875,26.6960615 17.43,26.2187692 17.43,25.6307692 C17.43,25.0427692 16.96875,24.5654769 16.3995833,24.5654769 C16.32375,24.5654769 16.25125,24.5521231 16.1833333,24.5271385 C16.1416667,24.3643077 16.11625,24.1549538 16.11625,23.8848615 C16.11625,23.6156308 16.1416667,23.4062769 16.1833333,23.2430154 C16.25125,23.2180308 16.32375,23.2042462 16.3995833,23.2042462 C16.4445833,23.2042462 16.4875,23.1999385 16.5304167,23.1947692 C16.5733333,23.1999385 16.6166667,23.2042462 16.66125,23.2042462 C17.23,23.2042462 17.69125,22.7273846 17.69125,22.1393846 L17.69125,1.74547692 C17.69125,1.15704615 17.23,0.680615385 16.66125,0.680615385 L16.66125,0.680615385 Z M1.93666667,2.80990769 L2.82208333,2.80990769 L2.82208333,11.8543385 C2.82208333,12.0727385 2.95166667,12.2696 3.14833333,12.3497231 C3.20958333,12.3747077 3.27333333,12.3867692 3.33708333,12.3867692 C3.47708333,12.3867692 3.61416667,12.3273231 3.71375,12.2174769 L5.4025,10.3457846 C5.49125,10.2471385 5.54083333,10.1174769 5.54083333,9.98264615 L5.54083333,2.80990769 L15.63125,2.80990769 L15.63125,21.0745231 L2.59541667,21.0745231 C2.36791667,21.0745231 2.1475,21.1038154 1.93666667,21.1580923 L1.93666667,2.80990769 L1.93666667,2.80990769 Z M3.85208333,2.80990769 L3.85208333,2.27790769 L4.51083333,2.27790769 L4.51083333,9.77286154 L3.85208333,10.5030154 L3.85208333,2.80990769 L3.85208333,2.80990769 Z M15.2829167,22.6718154 C15.1616667,22.9802462 15.08625,23.3769846 15.08625,23.8848615 C15.08625,24.3936 15.1616667,24.7903385 15.2829167,25.0983385 L2.59541667,25.0983385 C2.33166667,25.0983385 2.08833333,25.0070154 1.89208333,24.8540923 C1.80333333,24.7851692 1.72458333,24.7037538 1.65791667,24.6124308 C1.51,24.4091077 1.42166667,24.1579692 1.42166667,23.8848615 C1.42166667,23.8654769 1.42375,23.8469538 1.42416667,23.828 C1.44125,23.4549538 1.62083333,23.1262769 1.89208333,22.9156308 C1.90708333,22.9048615 1.92125,22.8923692 1.93666667,22.8811692 C2.12458333,22.7489231 2.35125,22.6718154 2.59541667,22.6718154 L15.2829167,22.6718154 L15.2829167,22.6718154 Z" id="Fill-1"></path>
                <path d="M24.2383333,12.8231385 C24.42875,11.5812308 24.5658333,10.6839385 24.5658333,9.34769231 C24.5658333,8.51415385 24.2141667,7.95286154 23.7208333,7.63323077 L23.7208333,5.90412308 C24.1558333,5.53926154 24.435,4.98227692 24.435,4.35938462 C24.435,3.68566154 24.10625,3.2592 23.81625,2.88270769 C23.4275,2.37741538 23.025,1.85532308 23.025,0.493230769 C23.025,0.273538462 22.8945833,0.0766769231 22.6970833,-0.00301538462 C22.4991667,-0.0822769231 22.2741667,-0.0288615385 22.1304167,0.133107692 C22.0675,0.203753846 20.5845833,1.90012308 20.5845833,4.35938462 C20.5845833,4.98227692 20.86375,5.53926154 21.29875,5.90412308 L21.29875,7.64572308 C20.815,7.96750769 20.4720833,8.52449231 20.4720833,9.34769231 C20.4720833,10.6770462 20.6083333,11.5644308 20.7966667,12.7921231 C20.9379167,13.7118154 21.1129167,14.8555077 21.2841667,16.5510154 C21.4158333,17.8523692 21.33875,19.5862154 21.2645833,21.2623385 C21.1258333,24.3768 21.0766667,26.3238769 21.7775,27.0820308 C21.97875,27.3004308 22.235,27.4154462 22.51875,27.4154462 C22.80375,27.4154462 23.06,27.3 23.2616667,27.0816 C23.96125,26.3238769 23.91125,24.3845538 23.77125,21.2830154 C23.69625,19.6146462 23.61875,17.8894154 23.7491667,16.5949538 C23.9208333,14.8990154 24.0966667,13.748 24.2383333,12.8231385 L24.2383333,12.8231385 Z M22.7425,21.3329846 C22.8008333,22.6296 22.85625,23.8547077 22.8129167,24.8187692 C22.7595833,26.0094154 22.5704167,26.2894154 22.5191667,26.3441231 C22.4679167,26.2894154 22.2779167,26.0068308 22.2241667,24.8118769 C22.1808333,23.8439385 22.235,22.6136615 22.2933333,21.3114462 C22.3691667,19.5956923 22.4483333,17.8217846 22.30875,16.4403077 C22.135,14.7168 21.9566667,13.5576 21.81375,12.6258462 C21.62625,11.4016 21.5020833,10.5934769 21.5020833,9.34769231 C21.5020833,9.03883077 21.58,8.82430769 21.7,8.67612308 C21.8941667,8.43704615 22.2004167,8.372 22.4741667,8.372 L22.4895833,8.372 C22.5066667,8.37286154 22.5275,8.37286154 22.5445833,8.372 L22.56375,8.372 C22.95,8.372 23.1883333,8.49476923 23.3329167,8.67181538 C23.4895833,8.86264615 23.53625,9.11636923 23.53625,9.34769231 C23.53625,10.5999385 23.4108333,11.4184 23.22125,12.6568615 C23.0775,13.5942154 22.8991667,14.7607385 22.725,16.4846769 C22.58625,17.8584 22.6658333,19.6249846 22.7425,21.3329846 L22.7425,21.3329846 Z M23.4045833,4.35938462 C23.4045833,4.86984615 23.0033333,5.28510769 22.5095833,5.28510769 C22.01625,5.28510769 21.615,4.86984615 21.615,4.35938462 C21.615,3.41686154 21.8858333,2.59753846 22.1779167,1.98843077 C22.38625,2.73538462 22.7316667,3.18424615 23.0108333,3.54652308 C23.2766667,3.892 23.4045833,4.07076923 23.4045833,4.35938462 L23.4045833,4.35938462 Z M22.32875,6.34953846 L22.6908333,6.34953846 L22.6908333,7.31058462 C22.6483333,7.30843077 22.60625,7.30713846 22.56375,7.30713846 C22.5454167,7.30713846 22.5308333,7.30713846 22.51875,7.30756923 C22.5075,7.30713846 22.4920833,7.30713846 22.4741667,7.30713846 C22.4258333,7.30713846 22.3775,7.30886154 22.32875,7.31187692 L22.32875,6.34953846 L22.32875,6.34953846 Z" id="Fill-2"></path>
            </g>
            <g id="Imported-Layers-4" transform="translate(3.000000, 42.000000)" fill="#67747C" sketch:type="MSShapeGroup">
                <path d="M16.66125,0.680615385 L0.906666667,0.680615385 C0.337916667,0.680615385 -0.123333333,1.15704615 -0.123333333,1.74547692 L-0.123333333,23.8848615 C-0.123333333,25.4347692 1.09625,26.6960615 2.59541667,26.6960615 L16.3995833,26.6960615 C16.96875,26.6960615 17.43,26.2187692 17.43,25.6307692 C17.43,25.0427692 16.96875,24.5654769 16.3995833,24.5654769 C16.32375,24.5654769 16.25125,24.5521231 16.1833333,24.5271385 C16.1416667,24.3643077 16.11625,24.1549538 16.11625,23.8848615 C16.11625,23.6156308 16.1416667,23.4062769 16.1833333,23.2430154 C16.25125,23.2180308 16.32375,23.2042462 16.3995833,23.2042462 C16.4445833,23.2042462 16.4875,23.1999385 16.5304167,23.1947692 C16.5733333,23.1999385 16.6166667,23.2042462 16.66125,23.2042462 C17.23,23.2042462 17.69125,22.7273846 17.69125,22.1393846 L17.69125,1.74547692 C17.69125,1.15704615 17.23,0.680615385 16.66125,0.680615385 L16.66125,0.680615385 Z M1.93666667,2.80990769 L2.82208333,2.80990769 L2.82208333,11.8543385 C2.82208333,12.0727385 2.95166667,12.2696 3.14833333,12.3497231 C3.20958333,12.3747077 3.27333333,12.3867692 3.33708333,12.3867692 C3.47708333,12.3867692 3.61416667,12.3273231 3.71375,12.2174769 L5.4025,10.3457846 C5.49125,10.2471385 5.54083333,10.1174769 5.54083333,9.98264615 L5.54083333,2.80990769 L15.63125,2.80990769 L15.63125,21.0745231 L2.59541667,21.0745231 C2.36791667,21.0745231 2.1475,21.1038154 1.93666667,21.1580923 L1.93666667,2.80990769 L1.93666667,2.80990769 Z M3.85208333,2.80990769 L3.85208333,2.27790769 L4.51083333,2.27790769 L4.51083333,9.77286154 L3.85208333,10.5030154 L3.85208333,2.80990769 L3.85208333,2.80990769 Z M15.2829167,22.6718154 C15.1616667,22.9802462 15.08625,23.3769846 15.08625,23.8848615 C15.08625,24.3936 15.1616667,24.7903385 15.2829167,25.0983385 L2.59541667,25.0983385 C2.33166667,25.0983385 2.08833333,25.0070154 1.89208333,24.8540923 C1.80333333,24.7851692 1.72458333,24.7037538 1.65791667,24.6124308 C1.51,24.4091077 1.42166667,24.1579692 1.42166667,23.8848615 C1.42166667,23.8654769 1.42375,23.8469538 1.42416667,23.828 C1.44125,23.4549538 1.62083333,23.1262769 1.89208333,22.9156308 C1.90708333,22.9048615 1.92125,22.8923692 1.93666667,22.8811692 C2.12458333,22.7489231 2.35125,22.6718154 2.59541667,22.6718154 L15.2829167,22.6718154 L15.2829167,22.6718154 Z" id="Fill-1"></path>
                <path d="M24.2383333,12.8231385 C24.42875,11.5812308 24.5658333,10.6839385 24.5658333,9.34769231 C24.5658333,8.51415385 24.2141667,7.95286154 23.7208333,7.63323077 L23.7208333,5.90412308 C24.1558333,5.53926154 24.435,4.98227692 24.435,4.35938462 C24.435,3.68566154 24.10625,3.2592 23.81625,2.88270769 C23.4275,2.37741538 23.025,1.85532308 23.025,0.493230769 C23.025,0.273538462 22.8945833,0.0766769231 22.6970833,-0.00301538462 C22.4991667,-0.0822769231 22.2741667,-0.0288615385 22.1304167,0.133107692 C22.0675,0.203753846 20.5845833,1.90012308 20.5845833,4.35938462 C20.5845833,4.98227692 20.86375,5.53926154 21.29875,5.90412308 L21.29875,7.64572308 C20.815,7.96750769 20.4720833,8.52449231 20.4720833,9.34769231 C20.4720833,10.6770462 20.6083333,11.5644308 20.7966667,12.7921231 C20.9379167,13.7118154 21.1129167,14.8555077 21.2841667,16.5510154 C21.4158333,17.8523692 21.33875,19.5862154 21.2645833,21.2623385 C21.1258333,24.3768 21.0766667,26.3238769 21.7775,27.0820308 C21.97875,27.3004308 22.235,27.4154462 22.51875,27.4154462 C22.80375,27.4154462 23.06,27.3 23.2616667,27.0816 C23.96125,26.3238769 23.91125,24.3845538 23.77125,21.2830154 C23.69625,19.6146462 23.61875,17.8894154 23.7491667,16.5949538 C23.9208333,14.8990154 24.0966667,13.748 24.2383333,12.8231385 L24.2383333,12.8231385 Z M22.7425,21.3329846 C22.8008333,22.6296 22.85625,23.8547077 22.8129167,24.8187692 C22.7595833,26.0094154 22.5704167,26.2894154 22.5191667,26.3441231 C22.4679167,26.2894154 22.2779167,26.0068308 22.2241667,24.8118769 C22.1808333,23.8439385 22.235,22.6136615 22.2933333,21.3114462 C22.3691667,19.5956923 22.4483333,17.8217846 22.30875,16.4403077 C22.135,14.7168 21.9566667,13.5576 21.81375,12.6258462 C21.62625,11.4016 21.5020833,10.5934769 21.5020833,9.34769231 C21.5020833,9.03883077 21.58,8.82430769 21.7,8.67612308 C21.8941667,8.43704615 22.2004167,8.372 22.4741667,8.372 L22.4895833,8.372 C22.5066667,8.37286154 22.5275,8.37286154 22.5445833,8.372 L22.56375,8.372 C22.95,8.372 23.1883333,8.49476923 23.3329167,8.67181538 C23.4895833,8.86264615 23.53625,9.11636923 23.53625,9.34769231 C23.53625,10.5999385 23.4108333,11.4184 23.22125,12.6568615 C23.0775,13.5942154 22.8991667,14.7607385 22.725,16.4846769 C22.58625,17.8584 22.6658333,19.6249846 22.7425,21.3329846 L22.7425,21.3329846 Z M23.4045833,4.35938462 C23.4045833,4.86984615 23.0033333,5.28510769 22.5095833,5.28510769 C22.01625,5.28510769 21.615,4.86984615 21.615,4.35938462 C21.615,3.41686154 21.8858333,2.59753846 22.1779167,1.98843077 C22.38625,2.73538462 22.7316667,3.18424615 23.0108333,3.54652308 C23.2766667,3.892 23.4045833,4.07076923 23.4045833,4.35938462 L23.4045833,4.35938462 Z M22.32875,6.34953846 L22.6908333,6.34953846 L22.6908333,7.31058462 C22.6483333,7.30843077 22.60625,7.30713846 22.56375,7.30713846 C22.5454167,7.30713846 22.5308333,7.30713846 22.51875,7.30756923 C22.5075,7.30713846 22.4920833,7.30713846 22.4741667,7.30713846 C22.4258333,7.30713846 22.3775,7.30886154 22.32875,7.31187692 L22.32875,6.34953846 L22.32875,6.34953846 Z" id="Fill-2"></path>
            </g>
            <g id="Imported-Layers-4" transform="translate(3.000000, 122.000000)" fill="#206FAC" sketch:type="MSShapeGroup">
                <path d="M16.66125,0.680615385 L0.906666667,0.680615385 C0.337916667,0.680615385 -0.123333333,1.15704615 -0.123333333,1.74547692 L-0.123333333,23.8848615 C-0.123333333,25.4347692 1.09625,26.6960615 2.59541667,26.6960615 L16.3995833,26.6960615 C16.96875,26.6960615 17.43,26.2187692 17.43,25.6307692 C17.43,25.0427692 16.96875,24.5654769 16.3995833,24.5654769 C16.32375,24.5654769 16.25125,24.5521231 16.1833333,24.5271385 C16.1416667,24.3643077 16.11625,24.1549538 16.11625,23.8848615 C16.11625,23.6156308 16.1416667,23.4062769 16.1833333,23.2430154 C16.25125,23.2180308 16.32375,23.2042462 16.3995833,23.2042462 C16.4445833,23.2042462 16.4875,23.1999385 16.5304167,23.1947692 C16.5733333,23.1999385 16.6166667,23.2042462 16.66125,23.2042462 C17.23,23.2042462 17.69125,22.7273846 17.69125,22.1393846 L17.69125,1.74547692 C17.69125,1.15704615 17.23,0.680615385 16.66125,0.680615385 L16.66125,0.680615385 Z M1.93666667,2.80990769 L2.82208333,2.80990769 L2.82208333,11.8543385 C2.82208333,12.0727385 2.95166667,12.2696 3.14833333,12.3497231 C3.20958333,12.3747077 3.27333333,12.3867692 3.33708333,12.3867692 C3.47708333,12.3867692 3.61416667,12.3273231 3.71375,12.2174769 L5.4025,10.3457846 C5.49125,10.2471385 5.54083333,10.1174769 5.54083333,9.98264615 L5.54083333,2.80990769 L15.63125,2.80990769 L15.63125,21.0745231 L2.59541667,21.0745231 C2.36791667,21.0745231 2.1475,21.1038154 1.93666667,21.1580923 L1.93666667,2.80990769 L1.93666667,2.80990769 Z M3.85208333,2.80990769 L3.85208333,2.27790769 L4.51083333,2.27790769 L4.51083333,9.77286154 L3.85208333,10.5030154 L3.85208333,2.80990769 L3.85208333,2.80990769 Z M15.2829167,22.6718154 C15.1616667,22.9802462 15.08625,23.3769846 15.08625,23.8848615 C15.08625,24.3936 15.1616667,24.7903385 15.2829167,25.0983385 L2.59541667,25.0983385 C2.33166667,25.0983385 2.08833333,25.0070154 1.89208333,24.8540923 C1.80333333,24.7851692 1.72458333,24.7037538 1.65791667,24.6124308 C1.51,24.4091077 1.42166667,24.1579692 1.42166667,23.8848615 C1.42166667,23.8654769 1.42375,23.8469538 1.42416667,23.828 C1.44125,23.4549538 1.62083333,23.1262769 1.89208333,22.9156308 C1.90708333,22.9048615 1.92125,22.8923692 1.93666667,22.8811692 C2.12458333,22.7489231 2.35125,22.6718154 2.59541667,22.6718154 L15.2829167,22.6718154 L15.2829167,22.6718154 Z" id="Fill-1"></path>
                <path d="M24.2383333,12.8231385 C24.42875,11.5812308 24.5658333,10.6839385 24.5658333,9.34769231 C24.5658333,8.51415385 24.2141667,7.95286154 23.7208333,7.63323077 L23.7208333,5.90412308 C24.1558333,5.53926154 24.435,4.98227692 24.435,4.35938462 C24.435,3.68566154 24.10625,3.2592 23.81625,2.88270769 C23.4275,2.37741538 23.025,1.85532308 23.025,0.493230769 C23.025,0.273538462 22.8945833,0.0766769231 22.6970833,-0.00301538462 C22.4991667,-0.0822769231 22.2741667,-0.0288615385 22.1304167,0.133107692 C22.0675,0.203753846 20.5845833,1.90012308 20.5845833,4.35938462 C20.5845833,4.98227692 20.86375,5.53926154 21.29875,5.90412308 L21.29875,7.64572308 C20.815,7.96750769 20.4720833,8.52449231 20.4720833,9.34769231 C20.4720833,10.6770462 20.6083333,11.5644308 20.7966667,12.7921231 C20.9379167,13.7118154 21.1129167,14.8555077 21.2841667,16.5510154 C21.4158333,17.8523692 21.33875,19.5862154 21.2645833,21.2623385 C21.1258333,24.3768 21.0766667,26.3238769 21.7775,27.0820308 C21.97875,27.3004308 22.235,27.4154462 22.51875,27.4154462 C22.80375,27.4154462 23.06,27.3 23.2616667,27.0816 C23.96125,26.3238769 23.91125,24.3845538 23.77125,21.2830154 C23.69625,19.6146462 23.61875,17.8894154 23.7491667,16.5949538 C23.9208333,14.8990154 24.0966667,13.748 24.2383333,12.8231385 L24.2383333,12.8231385 Z M22.7425,21.3329846 C22.8008333,22.6296 22.85625,23.8547077 22.8129167,24.8187692 C22.7595833,26.0094154 22.5704167,26.2894154 22.5191667,26.3441231 C22.4679167,26.2894154 22.2779167,26.0068308 22.2241667,24.8118769 C22.1808333,23.8439385 22.235,22.6136615 22.2933333,21.3114462 C22.3691667,19.5956923 22.4483333,17.8217846 22.30875,16.4403077 C22.135,14.7168 21.9566667,13.5576 21.81375,12.6258462 C21.62625,11.4016 21.5020833,10.5934769 21.5020833,9.34769231 C21.5020833,9.03883077 21.58,8.82430769 21.7,8.67612308 C21.8941667,8.43704615 22.2004167,8.372 22.4741667,8.372 L22.4895833,8.372 C22.5066667,8.37286154 22.5275,8.37286154 22.5445833,8.372 L22.56375,8.372 C22.95,8.372 23.1883333,8.49476923 23.3329167,8.67181538 C23.4895833,8.86264615 23.53625,9.11636923 23.53625,9.34769231 C23.53625,10.5999385 23.4108333,11.4184 23.22125,12.6568615 C23.0775,13.5942154 22.8991667,14.7607385 22.725,16.4846769 C22.58625,17.8584 22.6658333,19.6249846 22.7425,21.3329846 L22.7425,21.3329846 Z M23.4045833,4.35938462 C23.4045833,4.86984615 23.0033333,5.28510769 22.5095833,5.28510769 C22.01625,5.28510769 21.615,4.86984615 21.615,4.35938462 C21.615,3.41686154 21.8858333,2.59753846 22.1779167,1.98843077 C22.38625,2.73538462 22.7316667,3.18424615 23.0108333,3.54652308 C23.2766667,3.892 23.4045833,4.07076923 23.4045833,4.35938462 L23.4045833,4.35938462 Z M22.32875,6.34953846 L22.6908333,6.34953846 L22.6908333,7.31058462 C22.6483333,7.30843077 22.60625,7.30713846 22.56375,7.30713846 C22.5454167,7.30713846 22.5308333,7.30713846 22.51875,7.30756923 C22.5075,7.30713846 22.4920833,7.30713846 22.4741667,7.30713846 C22.4258333,7.30713846 22.3775,7.30886154 22.32875,7.31187692 L22.32875,6.34953846 L22.32875,6.34953846 Z" id="Fill-2"></path>
            </g>
            <g id="Imported-Layers-3" transform="translate(3.000000, 82.000000)" fill="#FFFFFF" sketch:type="MSShapeGroup">
                <path d="M16.66125,0.680615385 L0.906666667,0.680615385 C0.337916667,0.680615385 -0.123333333,1.15704615 -0.123333333,1.74547692 L-0.123333333,23.8848615 C-0.123333333,25.4347692 1.09625,26.6960615 2.59541667,26.6960615 L16.3995833,26.6960615 C16.96875,26.6960615 17.43,26.2187692 17.43,25.6307692 C17.43,25.0427692 16.96875,24.5654769 16.3995833,24.5654769 C16.32375,24.5654769 16.25125,24.5521231 16.1833333,24.5271385 C16.1416667,24.3643077 16.11625,24.1549538 16.11625,23.8848615 C16.11625,23.6156308 16.1416667,23.4062769 16.1833333,23.2430154 C16.25125,23.2180308 16.32375,23.2042462 16.3995833,23.2042462 C16.4445833,23.2042462 16.4875,23.1999385 16.5304167,23.1947692 C16.5733333,23.1999385 16.6166667,23.2042462 16.66125,23.2042462 C17.23,23.2042462 17.69125,22.7273846 17.69125,22.1393846 L17.69125,1.74547692 C17.69125,1.15704615 17.23,0.680615385 16.66125,0.680615385 L16.66125,0.680615385 Z M1.93666667,2.80990769 L2.82208333,2.80990769 L2.82208333,11.8543385 C2.82208333,12.0727385 2.95166667,12.2696 3.14833333,12.3497231 C3.20958333,12.3747077 3.27333333,12.3867692 3.33708333,12.3867692 C3.47708333,12.3867692 3.61416667,12.3273231 3.71375,12.2174769 L5.4025,10.3457846 C5.49125,10.2471385 5.54083333,10.1174769 5.54083333,9.98264615 L5.54083333,2.80990769 L15.63125,2.80990769 L15.63125,21.0745231 L2.59541667,21.0745231 C2.36791667,21.0745231 2.1475,21.1038154 1.93666667,21.1580923 L1.93666667,2.80990769 L1.93666667,2.80990769 Z M3.85208333,2.80990769 L3.85208333,2.27790769 L4.51083333,2.27790769 L4.51083333,9.77286154 L3.85208333,10.5030154 L3.85208333,2.80990769 L3.85208333,2.80990769 Z M15.2829167,22.6718154 C15.1616667,22.9802462 15.08625,23.3769846 15.08625,23.8848615 C15.08625,24.3936 15.1616667,24.7903385 15.2829167,25.0983385 L2.59541667,25.0983385 C2.33166667,25.0983385 2.08833333,25.0070154 1.89208333,24.8540923 C1.80333333,24.7851692 1.72458333,24.7037538 1.65791667,24.6124308 C1.51,24.4091077 1.42166667,24.1579692 1.42166667,23.8848615 C1.42166667,23.8654769 1.42375,23.8469538 1.42416667,23.828 C1.44125,23.4549538 1.62083333,23.1262769 1.89208333,22.9156308 C1.90708333,22.9048615 1.92125,22.8923692 1.93666667,22.8811692 C2.12458333,22.7489231 2.35125,22.6718154 2.59541667,22.6718154 L15.2829167,22.6718154 L15.2829167,22.6718154 Z" id="Fill-1"></path>
                <path d="M24.2383333,12.8231385 C24.42875,11.5812308 24.5658333,10.6839385 24.5658333,9.34769231 C24.5658333,8.51415385 24.2141667,7.95286154 23.7208333,7.63323077 L23.7208333,5.90412308 C24.1558333,5.53926154 24.435,4.98227692 24.435,4.35938462 C24.435,3.68566154 24.10625,3.2592 23.81625,2.88270769 C23.4275,2.37741538 23.025,1.85532308 23.025,0.493230769 C23.025,0.273538462 22.8945833,0.0766769231 22.6970833,-0.00301538462 C22.4991667,-0.0822769231 22.2741667,-0.0288615385 22.1304167,0.133107692 C22.0675,0.203753846 20.5845833,1.90012308 20.5845833,4.35938462 C20.5845833,4.98227692 20.86375,5.53926154 21.29875,5.90412308 L21.29875,7.64572308 C20.815,7.96750769 20.4720833,8.52449231 20.4720833,9.34769231 C20.4720833,10.6770462 20.6083333,11.5644308 20.7966667,12.7921231 C20.9379167,13.7118154 21.1129167,14.8555077 21.2841667,16.5510154 C21.4158333,17.8523692 21.33875,19.5862154 21.2645833,21.2623385 C21.1258333,24.3768 21.0766667,26.3238769 21.7775,27.0820308 C21.97875,27.3004308 22.235,27.4154462 22.51875,27.4154462 C22.80375,27.4154462 23.06,27.3 23.2616667,27.0816 C23.96125,26.3238769 23.91125,24.3845538 23.77125,21.2830154 C23.69625,19.6146462 23.61875,17.8894154 23.7491667,16.5949538 C23.9208333,14.8990154 24.0966667,13.748 24.2383333,12.8231385 L24.2383333,12.8231385 Z M22.7425,21.3329846 C22.8008333,22.6296 22.85625,23.8547077 22.8129167,24.8187692 C22.7595833,26.0094154 22.5704167,26.2894154 22.5191667,26.3441231 C22.4679167,26.2894154 22.2779167,26.0068308 22.2241667,24.8118769 C22.1808333,23.8439385 22.235,22.6136615 22.2933333,21.3114462 C22.3691667,19.5956923 22.4483333,17.8217846 22.30875,16.4403077 C22.135,14.7168 21.9566667,13.5576 21.81375,12.6258462 C21.62625,11.4016 21.5020833,10.5934769 21.5020833,9.34769231 C21.5020833,9.03883077 21.58,8.82430769 21.7,8.67612308 C21.8941667,8.43704615 22.2004167,8.372 22.4741667,8.372 L22.4895833,8.372 C22.5066667,8.37286154 22.5275,8.37286154 22.5445833,8.372 L22.56375,8.372 C22.95,8.372 23.1883333,8.49476923 23.3329167,8.67181538 C23.4895833,8.86264615 23.53625,9.11636923 23.53625,9.34769231 C23.53625,10.5999385 23.4108333,11.4184 23.22125,12.6568615 C23.0775,13.5942154 22.8991667,14.7607385 22.725,16.4846769 C22.58625,17.8584 22.6658333,19.6249846 22.7425,21.3329846 L22.7425,21.3329846 Z M23.4045833,4.35938462 C23.4045833,4.86984615 23.0033333,5.28510769 22.5095833,5.28510769 C22.01625,5.28510769 21.615,4.86984615 21.615,4.35938462 C21.615,3.41686154 21.8858333,2.59753846 22.1779167,1.98843077 C22.38625,2.73538462 22.7316667,3.18424615 23.0108333,3.54652308 C23.2766667,3.892 23.4045833,4.07076923 23.4045833,4.35938462 L23.4045833,4.35938462 Z M22.32875,6.34953846 L22.6908333,6.34953846 L22.6908333,7.31058462 C22.6483333,7.30843077 22.60625,7.30713846 22.56375,7.30713846 C22.5454167,7.30713846 22.5308333,7.30713846 22.51875,7.30756923 C22.5075,7.30713846 22.4920833,7.30713846 22.4741667,7.30713846 C22.4258333,7.30713846 22.3775,7.30886154 22.32875,7.31187692 L22.32875,6.34953846 L22.32875,6.34953846 Z" id="Fill-2"></path>
            </g>
        </g>
    </g>
</svg>