<svg width="32" height="232" viewBox="0 0 32 232" xmlns="http://www.w3.org/2000/svg"><title>beaches</title><g fill="none"><path d="M28.472 25.956l-2.968.967-5.127-1.394-.213-.034-4.014-.16-.25-1.863h13.008c.572 0 1.037-.504 1.037-1.128 0-.623-.465-1.128-1.037-1.128h-.4c.066-.356.1-.72.1-1.087 0-3-2.243-5.44-5.003-5.44-2.76 0-5.003 2.44-5.003 5.44 0 .367.036.73.1 1.087H15.6l-1.087-8.12-.027-.135c.75.072 1.473.347 2.11.805.44.317 1.03.223 1.37-.217.72-.936 1.728-1.55 2.84-1.726.22-.034.442-.05.66-.05.6 0 1.182.124 1.735.374.132.06.274.09.41.086.57-.007 1.026-.51 1.026-1.127 0-.193-.044-.372-.12-.53C22.608 6.027 18.42 3.09 13.82 3.09c-.395 0-.795.024-1.194.067l-.053-.397c-.04-.31-.305-.522-.587-.476-.284.044-.48.33-.44.638l.054.396C6.663 4.346 2.81 8.742 2.146 14.192c-.056.457.15.907.52 1.132.16.096.333.143.51.143.23 0 .462-.085.65-.252.637-.56 1.4-.923 2.215-1.054.22-.033.443-.05.663-.05.893 0 1.76.285 2.51.825.44.317 1.03.224 1.37-.216.502-.655 1.145-1.15 1.865-1.45l.01.15 1.045 7.797H3.037c-.572 0-1.037.504-1.037 1.128 0 .623.465 1.128 1.037 1.128h10.768l.238 1.777-.386-.015c-.107-.004-.216.01-.32.04l-3.25.995-3.848.28-2.77-.885c-.55-.177-1.127.166-1.29.763-.16.598.155 1.225.704 1.4l2.947.944c.12.037.24.052.364.043l4.14-.3.212-.04 3.198-.98.605.025.143 1.07c.075.562.518.966 1.025.966l.152-.013c.564-.09.958-.662.875-1.278l-.088-.66 3.525.14 5.297 1.44.25.035c.102 0 .2-.016.3-.047l3.24-1.056c.548-.18.86-.807.696-1.404-.164-.597-.742-.935-1.292-.757zm-7.795-5.825c0-1.756 1.314-3.185 2.928-3.185 1.615 0 2.93 1.43 2.93 3.186 0 .374-.06.74-.176 1.088h-5.507c-.117-.347-.176-.714-.176-1.087zm.855-10.612c-.342-.003-.69.023-1.03.076-1.178.187-2.276.71-3.19 1.51-.592-2.24-1.422-4.32-2.407-5.69 2.64.325 5.037 1.825 6.627 4.104zm-14.83 2.338c-.318 0-.642.027-.962.077-.34.053-.676.136-1.004.246.933-2.684 2.85-4.853 5.268-5.982-.58 1.617-.83 3.864-.81 6.19-.79-.35-1.632-.533-2.492-.533zm3.525.172c.005-3.033.5-5.25 1.185-6.35.326-.093.66-.166 1-.22.335-.054.675-.087 1.014-.102.942.844 2 2.816 2.8 5.722-.684-.257-1.407-.39-2.142-.39-.32 0-.643.025-.963.075-1.05.167-2.04.604-2.893 1.265z" fill="#3B444F"/><path d="M28.472 65.956l-2.968.967-5.127-1.394-.213-.034-4.014-.16-.25-1.863h13.008c.572 0 1.037-.504 1.037-1.128 0-.623-.465-1.128-1.037-1.128h-.4c.066-.356.1-.72.1-1.087 0-3-2.243-5.44-5.003-5.44-2.76 0-5.003 2.44-5.003 5.44 0 .367.036.73.1 1.087H15.6l-1.087-8.12-.027-.135c.75.072 1.473.347 2.11.805.44.317 1.03.223 1.37-.217.72-.936 1.728-1.55 2.84-1.726.22-.034.442-.05.66-.05.6 0 1.182.124 1.735.374.132.06.274.09.41.086.57-.007 1.026-.51 1.026-1.127 0-.193-.044-.372-.12-.53-1.905-4.55-6.094-7.486-10.693-7.486-.395 0-.795.024-1.194.067l-.053-.397c-.04-.31-.305-.522-.587-.476-.284.044-.48.33-.44.638l.054.396c-4.937 1.028-8.79 5.424-9.454 10.874-.056.457.15.907.52 1.132.16.096.333.143.51.143.23 0 .462-.085.65-.252.637-.56 1.4-.923 2.215-1.054.22-.033.443-.05.663-.05.893 0 1.76.285 2.51.825.44.317 1.03.224 1.37-.216.502-.655 1.145-1.15 1.865-1.45l.01.15 1.045 7.797H3.037c-.572 0-1.037.504-1.037 1.128 0 .623.465 1.128 1.037 1.128h10.768l.238 1.777-.386-.015c-.107-.004-.216.01-.32.04l-3.25.995-3.848.28-2.77-.885c-.55-.177-1.127.166-1.29.763-.16.598.155 1.225.704 1.4l2.947.944c.12.037.24.052.364.043l4.14-.3.212-.04 3.198-.98.605.025.143 1.07c.075.562.518.966 1.025.966l.152-.013c.564-.09.958-.662.875-1.278l-.088-.66 3.525.14 5.297 1.44.25.035c.102 0 .2-.016.3-.047l3.24-1.056c.548-.18.86-.807.696-1.404-.164-.597-.742-.935-1.292-.757zm-7.795-5.825c0-1.756 1.314-3.185 2.928-3.185 1.615 0 2.93 1.43 2.93 3.186 0 .374-.06.74-.176 1.088h-5.507c-.117-.347-.176-.714-.176-1.087zm.855-10.612c-.342-.003-.69.023-1.03.076-1.178.187-2.276.71-3.19 1.51-.592-2.24-1.422-4.32-2.407-5.69 2.64.325 5.037 1.825 6.627 4.104zm-14.83 2.338c-.318 0-.642.027-.962.077-.34.053-.676.136-1.004.246.933-2.684 2.85-4.853 5.268-5.982-.58 1.617-.83 3.864-.81 6.19-.79-.35-1.632-.533-2.492-.533zm3.525.172c.005-3.033.5-5.25 1.185-6.35.326-.093.66-.166 1-.22.335-.054.675-.087 1.014-.102.942.844 2 2.816 2.8 5.722-.684-.257-1.407-.39-2.142-.39-.32 0-.643.025-.963.075-1.05.167-2.04.604-2.893 1.265z" fill="#67747C"/><path d="M28.472 105.956l-2.968.967-5.127-1.394-.213-.034-4.014-.16-.25-1.863h13.008c.572 0 1.037-.504 1.037-1.128 0-.623-.465-1.128-1.037-1.128h-.4c.066-.356.1-.72.1-1.087 0-3-2.243-5.44-5.003-5.44-2.76 0-5.003 2.44-5.003 5.44 0 .367.036.73.1 1.087H15.6l-1.087-8.12-.027-.135c.75.072 1.473.347 2.11.805.44.317 1.03.223 1.37-.217.72-.936 1.728-1.55 2.84-1.726.22-.034.442-.05.66-.05.6 0 1.182.124 1.735.374.132.06.274.09.41.086.57-.007 1.026-.51 1.026-1.127 0-.193-.044-.372-.12-.53-1.905-4.55-6.094-7.486-10.693-7.486-.395 0-.795.024-1.194.067l-.053-.397c-.04-.31-.305-.522-.587-.476-.284.044-.48.33-.44.638l.054.396c-4.937 1.028-8.79 5.424-9.454 10.874-.056.457.15.907.52 1.132.16.096.333.143.51.143.23 0 .462-.085.65-.252.637-.56 1.4-.923 2.215-1.054.22-.033.443-.05.663-.05.893 0 1.76.285 2.51.825.44.317 1.03.224 1.37-.216.502-.655 1.145-1.15 1.865-1.45l.01.15 1.045 7.797H3.037c-.572 0-1.037.504-1.037 1.128 0 .623.465 1.128 1.037 1.128h10.768l.238 1.777-.386-.015c-.107-.004-.216.01-.32.04l-3.25.995-3.848.28-2.77-.885c-.55-.177-1.127.166-1.29.763-.16.598.155 1.225.704 1.4l2.947.944c.12.037.24.052.364.043l4.14-.3.212-.04 3.198-.98.605.025.143 1.07c.075.562.518.966 1.025.966l.152-.013c.564-.09.958-.662.875-1.278l-.088-.66 3.525.14 5.297 1.44.25.035c.102 0 .2-.016.3-.047l3.24-1.056c.548-.18.86-.807.696-1.404-.164-.597-.742-.935-1.292-.757zm-7.795-5.825c0-1.756 1.314-3.185 2.928-3.185 1.615 0 2.93 1.43 2.93 3.186 0 .374-.06.74-.176 1.088h-5.507c-.117-.347-.176-.714-.176-1.087zm.855-10.612c-.342-.003-.69.023-1.03.076-1.178.187-2.276.71-3.19 1.51-.592-2.24-1.422-4.32-2.407-5.69 2.64.325 5.037 1.825 6.627 4.104zm-14.83 2.338c-.318 0-.642.027-.962.077-.34.053-.676.136-1.004.246.933-2.684 2.85-4.853 5.268-5.982-.58 1.617-.83 3.864-.81 6.19-.79-.35-1.632-.533-2.492-.533zm3.525.172c.005-3.033.5-5.25 1.185-6.35.326-.093.66-.166 1-.22.335-.054.675-.087 1.014-.102.942.844 2 2.816 2.8 5.722-.684-.257-1.407-.39-2.142-.39-.32 0-.643.025-.963.075-1.05.167-2.04.604-2.893 1.265z" fill="#fff"/><path d="M28.472 145.956l-2.968.967-5.127-1.394-.213-.034-4.014-.16-.25-1.863h13.008c.572 0 1.037-.504 1.037-1.128 0-.623-.465-1.128-1.037-1.128h-.4c.066-.356.1-.72.1-1.087 0-3-2.243-5.44-5.003-5.44-2.76 0-5.003 2.44-5.003 5.44 0 .367.036.73.1 1.087H15.6l-1.087-8.12-.027-.135c.75.072 1.473.347 2.11.805.44.317 1.03.223 1.37-.217.72-.936 1.728-1.55 2.84-1.726.22-.034.442-.05.66-.05.6 0 1.182.124 1.735.374.132.06.274.09.41.086.57-.007 1.026-.51 1.026-1.127 0-.193-.044-.372-.12-.53-1.905-4.55-6.094-7.486-10.693-7.486-.395 0-.795.024-1.194.067l-.053-.397c-.04-.31-.305-.522-.587-.476-.284.044-.48.33-.44.638l.054.396c-4.937 1.028-8.79 5.424-9.454 10.874-.056.457.15.907.52 1.132.16.096.333.143.51.143.23 0 .462-.085.65-.252.637-.56 1.4-.923 2.215-1.054.22-.033.443-.05.663-.05.893 0 1.76.285 2.51.825.44.317 1.03.224 1.37-.216.502-.655 1.145-1.15 1.865-1.45l.01.15 1.045 7.797H3.037c-.572 0-1.037.504-1.037 1.128 0 .623.465 1.128 1.037 1.128h10.768l.238 1.777-.386-.015c-.107-.004-.216.01-.32.04l-3.25.995-3.848.28-2.77-.885c-.55-.177-1.127.166-1.29.763-.16.598.155 1.225.704 1.4l2.947.944c.12.037.24.052.364.043l4.14-.3.212-.04 3.198-.98.605.025.143 1.07c.075.562.518.966 1.025.966l.152-.013c.564-.09.958-.662.875-1.278l-.088-.66 3.525.14 5.297 1.44.25.035c.102 0 .2-.016.3-.047l3.24-1.056c.548-.18.86-.807.696-1.404-.164-.597-.742-.935-1.292-.757zm-7.795-5.825c0-1.756 1.314-3.185 2.928-3.185 1.615 0 2.93 1.43 2.93 3.186 0 .374-.06.74-.176 1.088h-5.507c-.117-.347-.176-.714-.176-1.087zm.855-10.612c-.342-.003-.69.023-1.03.076-1.178.187-2.276.71-3.19 1.51-.592-2.24-1.422-4.32-2.407-5.69 2.64.325 5.037 1.825 6.627 4.104zm-14.83 2.338c-.318 0-.642.027-.962.077-.34.053-.676.136-1.004.246.933-2.684 2.85-4.853 5.268-5.982-.58 1.617-.83 3.864-.81 6.19-.79-.35-1.632-.533-2.492-.533zm3.525.172c.005-3.033.5-5.25 1.185-6.35.326-.093.66-.166 1-.22.335-.054.675-.087 1.014-.102.942.844 2 2.816 2.8 5.722-.684-.257-1.407-.39-2.142-.39-.32 0-.643.025-.963.075-1.05.167-2.04.604-2.893 1.265z" fill="#206FAC"/></g></svg>