<svg width="32" height="232" viewBox="0 0 32 232" xmlns="http://www.w3.org/2000/svg"><title>island</title><g fill="none"><path d="M31.47 19.683c-.563 0-.868.164-1.114.297-.194.107-.323.176-.633.176s-.438-.07-.632-.176c-.244-.133-.55-.297-1.114-.297-.292 0-.514.044-.695.105-.026-.175-.093-.347-.205-.498l-1.15-1.564c-.11-.15-.252-.265-.417-.34l-2.226-.998c.01-.43.066-.97.22-1.582.278-1.108.73-1.847.98-2.2.906.124 2.968.462 4.19 1.12.077.043.158.062.24.062.152 0 .3-.07.403-.2.158-.2.16-.487.005-.69-.05-.066-1.165-1.51-3.13-1.725.753-.48 1.626-.965 2.372-1.186.236-.07.395-.305.38-.563-.016-.257-.2-.47-.444-.508-.02-.003-.202-.032-.49-.032-.67 0-2.078.157-3.28 1.32-.263-1.146-.952-2.443-2.457-3.327-.213-.126-.482-.08-.644.112-.164.19-.18.474-.037.683.014.022 1.16 1.72 1.827 3.332-.174-.025-.365-.043-.567-.043-1.004 0-1.943.417-2.718 1.207-.176.178-.21.462-.08.68.096.166.267.262.446.262l.17-.03c.016-.005 1.424-.51 2.678-.67-.29.487-.624 1.194-.855 2.116-.104.425-.17.823-.21 1.184l-.702-.566c-.18-.146-.4-.227-.63-.228l-1.192-.008c.012-.466-.026-1.087-.206-1.807-.198-.788-.49-1.386-.734-1.79 1.303-.488 3.1-.676 3.12-.68.243-.023.437-.222.468-.477.03-.256-.112-.497-.343-.585-.496-.186-.994-.28-1.48-.28-.547 0-1.027.12-1.432.29.51-1.01 1.102-1.89 1.11-1.905.144-.21.127-.494-.036-.684-.164-.19-.432-.237-.645-.11-1.168.685-1.74 1.672-1.985 2.575-.965-.855-2.057-.974-2.586-.974-.24 0-.394.025-.41.026-.245.04-.43.25-.445.51-.014.258.144.49.38.56.693.206 1.528.7 2.186 1.14-1.802.548-2.46 2.213-2.49 2.295-.093.24-.012.516.193.66.088.064.19.094.292.094.13 0 .26-.052.36-.153.735-.736 2.09-1.44 2.812-1.783.2.315.472.835.652 1.555.157.62.183 1.15.17 1.527-.38 0-.69.003-.802.01-.13.01-.485.038-1.25.564l-1.468-.51c-.107-.037-.217-.056-.33-.056h-2.95l-.263.035-2.512.686-.213.086L6.3 17.132c-.133.072-.25.174-.344.298l-1.548 2.058c-.072.097-.126.2-.163.312-.185-.065-.415-.115-.722-.115-.288 0-.524.245-.524.547 0 .304.235.55.523.55.31 0 .438.07.633.176.208.112.46.248.876.286l.198.02.14-.01c.5-.018.785-.173 1.014-.296.195-.107.324-.176.632-.176.31 0 .438.07.633.176.245.133.55.297 1.114.297.564 0 .87-.164 1.113-.297.195-.107.323-.176.634-.176.31 0 .438.07.633.176.244.133.55.297 1.114.297.564 0 .87-.164 1.115-.297.194-.107.323-.176.632-.176s.438.07.633.176c.245.133.55.297 1.114.297.565 0 .87-.164 1.116-.297.193-.107.322-.176.63-.176s.44.07.635.176c.245.133.55.297 1.113.297.565 0 .87-.164 1.115-.297.194-.107.324-.176.632-.176.31 0 .438.07.632.176.246.133.55.297 1.115.297s.87-.164 1.115-.297c.194-.107.323-.176.632-.176s.438.07.633.176c.244.133.55.297 1.114.297.565 0 .87-.164 1.115-.297.195-.107.325-.176.634-.176s.437.07.632.176c.246.133.55.297 1.115.297s.868-.164 1.115-.297c.194-.107.323-.176.632-.176.288 0 .523-.246.523-.55 0-.302-.235-.547-.523-.547zm-6.988 0c-.564 0-.87.164-1.114.297-.195.107-.325.176-.633.176-.31 0-.44-.07-.633-.176-.245-.133-.55-.297-1.115-.297-.564 0-.87.164-1.115.297-.194.107-.323.176-.633.176s-.438-.07-.632-.176c-.245-.133-.55-.297-1.115-.297-.564 0-.87.164-1.115.297-.194.107-.324.176-.632.176-.31 0-.438-.07-.633-.176-.245-.133-.55-.297-1.114-.297-.565 0-.87.164-1.116.297-.194.107-.322.176-.632.176-.308 0-.437-.07-.632-.176-.246-.133-.55-.297-1.114-.297-.564 0-.87.164-1.115.297-.194.107-.323.176-.63.176-.31 0-.44-.07-.634-.176-.244-.133-.55-.297-1.115-.297h-.09l.534-.708 2.312-1.243 2.27-.62h2.647l1.812.63c.326.113.684.05.958-.165.212-.166.53-.386.69-.47.346-.008 1.4-.005 2.434.003l1.157.934.226.14 2.473 1.11.296.4-.248-.01zm.68 2.717h-.05c-.564 0-.87.164-1.115.297-.19.104-.318.173-.612.176-.294-.003-.423-.072-.613-.176-.246-.133-.55-.297-1.115-.297h-.04c-.564 0-.87.164-1.115.297-.19.104-.318.173-.613.176-.294-.003-.423-.072-.613-.176-.244-.133-.55-.297-1.115-.297h-.038c-.566 0-.87.164-1.115.297-.192.104-.32.173-.614.176-.294-.003-.423-.072-.613-.176-.245-.133-.55-.297-1.113-.297h-.04c-.565 0-.87.164-1.116.297-.19.104-.317.173-.61.176-.295-.003-.424-.072-.614-.176-.244-.133-.55-.297-1.115-.297h-.04c-.563 0-.868.164-1.114.297-.19.104-.317.173-.612.176-.294-.003-.423-.072-.613-.176-.247-.133-.55-.297-1.115-.297h-.04c-.564 0-.868.164-1.115.297-.19.104-.318.173-.612.176-.295-.003-.422-.072-.613-.176-.244-.133-.55-.297-1.115-.297h-.038c-.564 0-.87.164-1.114.297-.19.104-.32.173-.614.176-.295-.003-.424-.072-.614-.176-.245-.133-.55-.297-1.113-.297h-.05c-.284.005-.513.248-.513.548 0 .302.233.548.524.548l.02.002c.293.002.422.07.612.174.245.133.55.3 1.114.3h.04c.564 0 .868-.167 1.114-.3.19-.104.318-.173.613-.174.294.002.422.07.613.174.244.133.55.3 1.113.3h.04c.563 0 .868-.167 1.114-.3.19-.104.318-.173.613-.174.293.002.422.07.613.174.244.133.55.3 1.113.3h.04c.564 0 .87-.167 1.113-.3.19-.104.32-.173.613-.174.295.002.422.07.613.174.244.133.55.3 1.114.3h.04c.564 0 .87-.167 1.114-.3.19-.104.32-.173.613-.174.296.002.423.07.613.174.246.133.55.3 1.114.3h.04c.564 0 .87-.167 1.114-.3.19-.104.32-.173.613-.174.296.002.424.07.614.174.245.133.55.3 1.114.3h.04c.564 0 .87-.167 1.114-.3.19-.104.318-.173.613-.174.295.002.422.07.613.174.245.133.55.3 1.115.3h.04c.565 0 .87-.167 1.115-.3.19-.104.32-.173.613-.174l.02-.002c.29 0 .524-.246.524-.548 0-.3-.23-.543-.514-.548" fill="#3B444F"/><path d="M31.47 59.683c-.563 0-.868.164-1.114.297-.194.107-.323.176-.633.176s-.438-.07-.632-.176c-.244-.133-.55-.297-1.114-.297-.292 0-.514.044-.695.105-.026-.175-.093-.347-.205-.498l-1.15-1.564c-.11-.15-.252-.265-.417-.34l-2.226-.998c.01-.43.066-.97.22-1.582.278-1.108.73-1.847.98-2.2.906.124 2.968.462 4.19 1.12.077.043.158.062.24.062.152 0 .3-.07.403-.2.158-.2.16-.487.005-.69-.05-.066-1.165-1.51-3.13-1.725.753-.48 1.626-.965 2.372-1.186.236-.07.395-.305.38-.563-.016-.257-.2-.47-.444-.508-.02-.003-.202-.032-.49-.032-.67 0-2.078.157-3.28 1.32-.263-1.146-.952-2.443-2.457-3.327-.213-.126-.482-.08-.644.112-.164.19-.18.474-.037.683.014.022 1.16 1.72 1.827 3.332-.174-.025-.365-.043-.567-.043-1.004 0-1.943.417-2.718 1.207-.176.178-.21.462-.08.68.096.166.267.262.446.262l.17-.03c.016-.005 1.424-.51 2.678-.67-.29.487-.624 1.194-.855 2.116-.104.425-.17.823-.21 1.184l-.702-.566c-.18-.146-.4-.227-.63-.228l-1.192-.008c.012-.466-.026-1.087-.206-1.807-.198-.788-.49-1.386-.734-1.79 1.303-.488 3.1-.676 3.12-.68.243-.023.437-.222.468-.477.03-.256-.112-.497-.343-.585-.496-.186-.994-.28-1.48-.28-.547 0-1.027.12-1.432.29.51-1.01 1.102-1.89 1.11-1.905.144-.21.127-.494-.036-.684-.164-.19-.432-.237-.645-.11-1.168.685-1.74 1.672-1.985 2.575-.965-.855-2.057-.974-2.586-.974-.24 0-.394.025-.41.026-.245.04-.43.25-.445.51-.014.258.144.49.38.56.693.206 1.528.7 2.186 1.14-1.802.548-2.46 2.213-2.49 2.295-.093.24-.012.516.193.66.088.064.19.094.292.094.13 0 .26-.052.36-.153.735-.736 2.09-1.44 2.812-1.783.2.315.472.835.652 1.555.157.62.183 1.15.17 1.527-.38 0-.69.003-.802.01-.13.01-.485.038-1.25.564l-1.468-.51c-.107-.037-.217-.056-.33-.056h-2.95l-.263.035-2.512.686-.213.086L6.3 57.132c-.133.072-.25.174-.344.298l-1.548 2.058c-.072.097-.126.2-.163.312-.185-.065-.415-.115-.722-.115-.288 0-.524.245-.524.547 0 .304.235.55.523.55.31 0 .438.07.633.176.208.112.46.248.876.286l.198.02.14-.01c.5-.018.785-.173 1.014-.296.195-.107.324-.176.632-.176.31 0 .438.07.633.176.245.133.55.297 1.114.297.564 0 .87-.164 1.113-.297.195-.107.323-.176.634-.176.31 0 .438.07.633.176.244.133.55.297 1.114.297.564 0 .87-.164 1.115-.297.194-.107.323-.176.632-.176s.438.07.633.176c.245.133.55.297 1.114.297.565 0 .87-.164 1.116-.297.193-.107.322-.176.63-.176s.44.07.635.176c.245.133.55.297 1.113.297.565 0 .87-.164 1.115-.297.194-.107.324-.176.632-.176.31 0 .438.07.632.176.246.133.55.297 1.115.297s.87-.164 1.115-.297c.194-.107.323-.176.632-.176s.438.07.633.176c.244.133.55.297 1.114.297.565 0 .87-.164 1.115-.297.195-.107.325-.176.634-.176s.437.07.632.176c.246.133.55.297 1.115.297s.868-.164 1.115-.297c.194-.107.323-.176.632-.176.288 0 .523-.246.523-.55 0-.302-.235-.547-.523-.547zm-6.988 0c-.564 0-.87.164-1.114.297-.195.107-.325.176-.633.176-.31 0-.44-.07-.633-.176-.245-.133-.55-.297-1.115-.297-.564 0-.87.164-1.115.297-.194.107-.323.176-.633.176s-.438-.07-.632-.176c-.245-.133-.55-.297-1.115-.297-.564 0-.87.164-1.115.297-.194.107-.324.176-.632.176-.31 0-.438-.07-.633-.176-.245-.133-.55-.297-1.114-.297-.565 0-.87.164-1.116.297-.194.107-.322.176-.632.176-.308 0-.437-.07-.632-.176-.246-.133-.55-.297-1.114-.297-.564 0-.87.164-1.115.297-.194.107-.323.176-.63.176-.31 0-.44-.07-.634-.176-.244-.133-.55-.297-1.115-.297h-.09l.534-.708 2.312-1.243 2.27-.62h2.647l1.812.63c.326.113.684.05.958-.165.212-.166.53-.386.69-.47.346-.008 1.4-.005 2.434.003l1.157.934.226.14 2.473 1.11.296.4-.248-.01zm.68 2.717h-.05c-.564 0-.87.164-1.115.297-.19.104-.318.173-.612.176-.294-.003-.423-.072-.613-.176-.246-.133-.55-.297-1.115-.297h-.04c-.564 0-.87.164-1.115.297-.19.104-.318.173-.613.176-.294-.003-.423-.072-.613-.176-.244-.133-.55-.297-1.115-.297h-.038c-.566 0-.87.164-1.115.297-.192.104-.32.173-.614.176-.294-.003-.423-.072-.613-.176-.245-.133-.55-.297-1.113-.297h-.04c-.565 0-.87.164-1.116.297-.19.104-.317.173-.61.176-.295-.003-.424-.072-.614-.176-.244-.133-.55-.297-1.115-.297h-.04c-.563 0-.868.164-1.114.297-.19.104-.317.173-.612.176-.294-.003-.423-.072-.613-.176-.247-.133-.55-.297-1.115-.297h-.04c-.564 0-.868.164-1.115.297-.19.104-.318.173-.612.176-.295-.003-.422-.072-.613-.176-.244-.133-.55-.297-1.115-.297h-.038c-.564 0-.87.164-1.114.297-.19.104-.32.173-.614.176-.295-.003-.424-.072-.614-.176-.245-.133-.55-.297-1.113-.297h-.05c-.284.005-.513.248-.513.548 0 .302.233.548.524.548l.02.002c.293.002.422.07.612.174.245.133.55.3 1.114.3h.04c.564 0 .868-.167 1.114-.3.19-.104.318-.173.613-.174.294.002.422.07.613.174.244.133.55.3 1.113.3h.04c.563 0 .868-.167 1.114-.3.19-.104.318-.173.613-.174.293.002.422.07.613.174.244.133.55.3 1.113.3h.04c.564 0 .87-.167 1.113-.3.19-.104.32-.173.613-.174.295.002.422.07.613.174.244.133.55.3 1.114.3h.04c.564 0 .87-.167 1.114-.3.19-.104.32-.173.613-.174.296.002.423.07.613.174.246.133.55.3 1.114.3h.04c.564 0 .87-.167 1.114-.3.19-.104.32-.173.613-.174.296.002.424.07.614.174.245.133.55.3 1.114.3h.04c.564 0 .87-.167 1.114-.3.19-.104.318-.173.613-.174.295.002.422.07.613.174.245.133.55.3 1.115.3h.04c.565 0 .87-.167 1.115-.3.19-.104.32-.173.613-.174l.02-.002c.29 0 .524-.246.524-.548 0-.3-.23-.543-.514-.548" fill="#67747C"/><path d="M31.47 139.683c-.563 0-.868.164-1.114.297-.194.107-.323.176-.633.176s-.438-.07-.632-.176c-.244-.133-.55-.297-1.114-.297-.292 0-.514.044-.695.105-.026-.175-.093-.347-.205-.498l-1.15-1.564c-.11-.15-.252-.265-.417-.34l-2.226-.998c.01-.43.066-.97.22-1.582.278-1.108.73-1.847.98-2.2.906.124 2.968.462 4.19 1.12.077.043.158.062.24.062.152 0 .3-.07.403-.2.158-.2.16-.487.005-.69-.05-.066-1.165-1.51-3.13-1.725.753-.48 1.626-.965 2.372-1.186.236-.07.395-.305.38-.563-.016-.257-.2-.47-.444-.508-.02-.003-.202-.032-.49-.032-.67 0-2.078.157-3.28 1.32-.263-1.146-.952-2.443-2.457-3.327-.213-.126-.482-.08-.644.112-.164.19-.18.474-.037.683.014.022 1.16 1.72 1.827 3.332-.174-.025-.365-.043-.567-.043-1.004 0-1.943.417-2.718 1.207-.176.178-.21.462-.08.68.096.166.267.262.446.262l.17-.03c.016-.005 1.424-.51 2.678-.67-.29.487-.624 1.194-.855 2.116-.104.425-.17.823-.21 1.184l-.702-.566c-.18-.146-.4-.227-.63-.228l-1.192-.008c.012-.466-.026-1.087-.206-1.807-.198-.788-.49-1.386-.734-1.79 1.303-.488 3.1-.676 3.12-.68.243-.023.437-.222.468-.477.03-.256-.112-.497-.343-.585-.496-.186-.994-.28-1.48-.28-.547 0-1.027.12-1.432.29.51-1.01 1.102-1.89 1.11-1.905.144-.21.127-.494-.036-.684-.164-.19-.432-.237-.645-.11-1.168.685-1.74 1.672-1.985 2.575-.965-.855-2.057-.974-2.586-.974-.24 0-.394.025-.41.026-.245.04-.43.25-.445.51-.014.258.144.49.38.56.693.206 1.528.7 2.186 1.14-1.802.548-2.46 2.213-2.49 2.295-.093.24-.012.516.193.66.088.064.19.094.292.094.13 0 .26-.052.36-.153.735-.736 2.09-1.44 2.812-1.783.2.315.472.835.652 1.555.157.62.183 1.15.17 1.527-.38 0-.69.003-.802.01-.13.01-.485.038-1.25.564l-1.468-.51c-.107-.037-.217-.056-.33-.056h-2.95l-.263.035-2.512.686-.213.086-2.617 1.406c-.133.072-.25.174-.344.298l-1.548 2.058c-.072.097-.126.2-.163.312-.185-.065-.415-.115-.722-.115-.288 0-.524.245-.524.547 0 .304.235.55.523.55.31 0 .438.07.633.176.208.112.46.248.876.286l.198.02.14-.01c.5-.018.785-.173 1.014-.296.195-.107.324-.176.632-.176.31 0 .438.07.633.176.245.133.55.297 1.114.297.564 0 .87-.164 1.113-.297.195-.107.323-.176.634-.176.31 0 .438.07.633.176.244.133.55.297 1.114.297.564 0 .87-.164 1.115-.297.194-.107.323-.176.632-.176s.438.07.633.176c.245.133.55.297 1.114.297.565 0 .87-.164 1.116-.297.193-.107.322-.176.63-.176s.44.07.635.176c.245.133.55.297 1.113.297.565 0 .87-.164 1.115-.297.194-.107.324-.176.632-.176.31 0 .438.07.632.176.246.133.55.297 1.115.297s.87-.164 1.115-.297c.194-.107.323-.176.632-.176s.438.07.633.176c.244.133.55.297 1.114.297.565 0 .87-.164 1.115-.297.195-.107.325-.176.634-.176s.437.07.632.176c.246.133.55.297 1.115.297s.868-.164 1.115-.297c.194-.107.323-.176.632-.176.288 0 .523-.246.523-.55 0-.302-.235-.547-.523-.547zm-6.988 0c-.564 0-.87.164-1.114.297-.195.107-.325.176-.633.176-.31 0-.44-.07-.633-.176-.245-.133-.55-.297-1.115-.297-.564 0-.87.164-1.115.297-.194.107-.323.176-.633.176s-.438-.07-.632-.176c-.245-.133-.55-.297-1.115-.297-.564 0-.87.164-1.115.297-.194.107-.324.176-.632.176-.31 0-.438-.07-.633-.176-.245-.133-.55-.297-1.114-.297-.565 0-.87.164-1.116.297-.194.107-.322.176-.632.176-.308 0-.437-.07-.632-.176-.246-.133-.55-.297-1.114-.297-.564 0-.87.164-1.115.297-.194.107-.323.176-.63.176-.31 0-.44-.07-.634-.176-.244-.133-.55-.297-1.115-.297h-.09l.534-.708 2.312-1.243 2.27-.62h2.647l1.812.63c.326.113.684.05.958-.165.212-.166.53-.386.69-.47.346-.008 1.4-.005 2.434.003l1.157.934.226.14 2.473 1.11.296.4-.248-.01zm.68 2.717h-.05c-.564 0-.87.164-1.115.297-.19.104-.318.173-.612.176-.294-.003-.423-.072-.613-.176-.246-.133-.55-.297-1.115-.297h-.04c-.564 0-.87.164-1.115.297-.19.104-.318.173-.613.176-.294-.003-.423-.072-.613-.176-.244-.133-.55-.297-1.115-.297h-.038c-.566 0-.87.164-1.115.297-.192.104-.32.173-.614.176-.294-.003-.423-.072-.613-.176-.245-.133-.55-.297-1.113-.297h-.04c-.565 0-.87.164-1.116.297-.19.104-.317.173-.61.176-.295-.003-.424-.072-.614-.176-.244-.133-.55-.297-1.115-.297h-.04c-.563 0-.868.164-1.114.297-.19.104-.317.173-.612.176-.294-.003-.423-.072-.613-.176-.247-.133-.55-.297-1.115-.297h-.04c-.564 0-.868.164-1.115.297-.19.104-.318.173-.612.176-.295-.003-.422-.072-.613-.176-.244-.133-.55-.297-1.115-.297h-.038c-.564 0-.87.164-1.114.297-.19.104-.32.173-.614.176-.295-.003-.424-.072-.614-.176-.245-.133-.55-.297-1.113-.297h-.05c-.284.005-.513.248-.513.548 0 .302.233.548.524.548l.02.002c.293.002.422.07.612.174.245.133.55.3 1.114.3h.04c.564 0 .868-.167 1.114-.3.19-.104.318-.173.613-.174.294.002.422.07.613.174.244.133.55.3 1.113.3h.04c.563 0 .868-.167 1.114-.3.19-.104.318-.173.613-.174.293.002.422.07.613.174.244.133.55.3 1.113.3h.04c.564 0 .87-.167 1.113-.3.19-.104.32-.173.613-.174.295.002.422.07.613.174.244.133.55.3 1.114.3h.04c.564 0 .87-.167 1.114-.3.19-.104.32-.173.613-.174.296.002.423.07.613.174.246.133.55.3 1.114.3h.04c.564 0 .87-.167 1.114-.3.19-.104.32-.173.613-.174.296.002.424.07.614.174.245.133.55.3 1.114.3h.04c.564 0 .87-.167 1.114-.3.19-.104.318-.173.613-.174.295.002.422.07.613.174.245.133.55.3 1.115.3h.04c.565 0 .87-.167 1.115-.3.19-.104.32-.173.613-.174l.02-.002c.29 0 .524-.246.524-.548 0-.3-.23-.543-.514-.548" fill="#206FAC"/><path d="M31.47 99.683c-.563 0-.868.164-1.114.297-.194.107-.323.176-.633.176s-.438-.07-.632-.176c-.244-.133-.55-.297-1.114-.297-.292 0-.514.044-.695.105-.026-.175-.093-.347-.205-.498l-1.15-1.564c-.11-.15-.252-.265-.417-.34l-2.226-.998c.01-.43.066-.97.22-1.582.278-1.108.73-1.847.98-2.2.906.124 2.968.462 4.19 1.12.077.043.158.062.24.062.152 0 .3-.07.403-.2.158-.2.16-.487.005-.69-.05-.066-1.165-1.51-3.13-1.725.753-.48 1.626-.965 2.372-1.186.236-.07.395-.305.38-.563-.016-.257-.2-.47-.444-.508-.02-.003-.202-.032-.49-.032-.67 0-2.078.157-3.28 1.32-.263-1.146-.952-2.443-2.457-3.327-.213-.126-.482-.08-.644.112-.164.19-.18.474-.037.683.014.022 1.16 1.72 1.827 3.332-.174-.025-.365-.043-.567-.043-1.004 0-1.943.417-2.718 1.207-.176.178-.21.462-.08.68.096.166.267.262.446.262l.17-.03c.016-.005 1.424-.51 2.678-.67-.29.487-.624 1.194-.855 2.116-.104.425-.17.823-.21 1.184l-.702-.566c-.18-.146-.4-.227-.63-.228l-1.192-.008c.012-.466-.026-1.087-.206-1.807-.198-.788-.49-1.386-.734-1.79 1.303-.488 3.1-.676 3.12-.68.243-.023.437-.222.468-.477.03-.256-.112-.497-.343-.585-.496-.186-.994-.28-1.48-.28-.547 0-1.027.12-1.432.29.51-1.01 1.102-1.89 1.11-1.905.144-.21.127-.494-.036-.684-.164-.19-.432-.237-.645-.11-1.168.685-1.74 1.672-1.985 2.575-.965-.855-2.057-.974-2.586-.974-.24 0-.394.025-.41.026-.245.04-.43.25-.445.51-.014.258.144.49.38.56.693.206 1.528.7 2.186 1.14-1.802.548-2.46 2.213-2.49 2.295-.093.24-.012.516.193.66.088.064.19.094.292.094.13 0 .26-.052.36-.153.735-.736 2.09-1.44 2.812-1.783.2.315.472.835.652 1.555.157.62.183 1.15.17 1.527-.38 0-.69.003-.802.01-.13.01-.485.038-1.25.564l-1.468-.51c-.107-.037-.217-.056-.33-.056h-2.95l-.263.035-2.512.686-.213.086L6.3 97.132c-.133.072-.25.174-.344.298l-1.548 2.058c-.072.097-.126.2-.163.312-.185-.065-.415-.115-.722-.115-.288 0-.524.245-.524.547 0 .304.235.55.523.55.31 0 .438.07.633.176.208.112.46.248.876.286l.198.02.14-.01c.5-.018.785-.173 1.014-.296.195-.107.324-.176.632-.176.31 0 .438.07.633.176.245.133.55.297 1.114.297.564 0 .87-.164 1.113-.297.195-.107.323-.176.634-.176.31 0 .438.07.633.176.244.133.55.297 1.114.297.564 0 .87-.164 1.115-.297.194-.107.323-.176.632-.176s.438.07.633.176c.245.133.55.297 1.114.297.565 0 .87-.164 1.116-.297.193-.107.322-.176.63-.176s.44.07.635.176c.245.133.55.297 1.113.297.565 0 .87-.164 1.115-.297.194-.107.324-.176.632-.176.31 0 .438.07.632.176.246.133.55.297 1.115.297s.87-.164 1.115-.297c.194-.107.323-.176.632-.176s.438.07.633.176c.244.133.55.297 1.114.297.565 0 .87-.164 1.115-.297.195-.107.325-.176.634-.176s.437.07.632.176c.246.133.55.297 1.115.297s.868-.164 1.115-.297c.194-.107.323-.176.632-.176.288 0 .523-.246.523-.55 0-.302-.235-.547-.523-.547zm-6.988 0c-.564 0-.87.164-1.114.297-.195.107-.325.176-.633.176-.31 0-.44-.07-.633-.176-.245-.133-.55-.297-1.115-.297-.564 0-.87.164-1.115.297-.194.107-.323.176-.633.176s-.438-.07-.632-.176c-.245-.133-.55-.297-1.115-.297-.564 0-.87.164-1.115.297-.194.107-.324.176-.632.176-.31 0-.438-.07-.633-.176-.245-.133-.55-.297-1.114-.297-.565 0-.87.164-1.116.297-.194.107-.322.176-.632.176-.308 0-.437-.07-.632-.176-.246-.133-.55-.297-1.114-.297-.564 0-.87.164-1.115.297-.194.107-.323.176-.63.176-.31 0-.44-.07-.634-.176-.244-.133-.55-.297-1.115-.297h-.09l.534-.708 2.312-1.243 2.27-.62h2.647l1.812.63c.326.113.684.05.958-.165.212-.166.53-.386.69-.47.346-.008 1.4-.005 2.434.003l1.157.934.226.14 2.473 1.11.296.4-.248-.01zm.68 2.717h-.05c-.564 0-.87.164-1.115.297-.19.104-.318.173-.612.176-.294-.003-.423-.072-.613-.176-.246-.133-.55-.297-1.115-.297h-.04c-.564 0-.87.164-1.115.297-.19.104-.318.173-.613.176-.294-.003-.423-.072-.613-.176-.244-.133-.55-.297-1.115-.297h-.038c-.566 0-.87.164-1.115.297-.192.104-.32.173-.614.176-.294-.003-.423-.072-.613-.176-.245-.133-.55-.297-1.113-.297h-.04c-.565 0-.87.164-1.116.297-.19.104-.317.173-.61.176-.295-.003-.424-.072-.614-.176-.244-.133-.55-.297-1.115-.297h-.04c-.563 0-.868.164-1.114.297-.19.104-.317.173-.612.176-.294-.003-.423-.072-.613-.176-.247-.133-.55-.297-1.115-.297h-.04c-.564 0-.868.164-1.115.297-.19.104-.318.173-.612.176-.295-.003-.422-.072-.613-.176-.244-.133-.55-.297-1.115-.297h-.038c-.564 0-.87.164-1.114.297-.19.104-.32.173-.614.176-.295-.003-.424-.072-.614-.176-.245-.133-.55-.297-1.113-.297h-.05c-.284.005-.513.248-.513.548 0 .302.233.548.524.548l.02.002c.293.002.422.07.612.174.245.133.55.3 1.114.3h.04c.564 0 .868-.167 1.114-.3.19-.104.318-.173.613-.174.294.002.422.07.613.174.244.133.55.3 1.113.3h.04c.563 0 .868-.167 1.114-.3.19-.104.318-.173.613-.174.293.002.422.07.613.174.244.133.55.3 1.113.3h.04c.564 0 .87-.167 1.113-.3.19-.104.32-.173.613-.174.295.002.422.07.613.174.244.133.55.3 1.114.3h.04c.564 0 .87-.167 1.114-.3.19-.104.32-.173.613-.174.296.002.423.07.613.174.246.133.55.3 1.114.3h.04c.564 0 .87-.167 1.114-.3.19-.104.32-.173.613-.174.296.002.424.07.614.174.245.133.55.3 1.114.3h.04c.564 0 .87-.167 1.114-.3.19-.104.318-.173.613-.174.295.002.422.07.613.174.245.133.55.3 1.115.3h.04c.565 0 .87-.167 1.115-.3.19-.104.32-.173.613-.174l.02-.002c.29 0 .524-.246.524-.548 0-.3-.23-.543-.514-.548" fill="#fff"/></g></svg>