<svg width="32" height="232" viewBox="0 0 32 232" xmlns="http://www.w3.org/2000/svg"><g fill="none"><path d="M31.47 19.683c-.563 0-.868.164-1.114.297-.194.107-.323.176-.633.176s-.438-.07-.632-.176c-.24-.133-.55-.297-1.11-.297-.293 0-.515.044-.696.105-.026-.175-.093-.347-.205-.498l-1.15-1.564c-.11-.15-.253-.265-.418-.34l-2.225-.998c.01-.43.066-.97.22-1.582.278-1.108.73-1.847.98-2.2.906.124 2.968.462 4.19 1.12.077.043.158.062.24.062.152 0 .3-.07.403-.2.158-.2.16-.487.005-.69-.05-.066-1.165-1.51-3.13-1.725.753-.48 1.626-.965 2.372-1.186.236-.07.395-.305.38-.563-.016-.257-.2-.47-.444-.508-.02-.003-.2-.032-.49-.032-.67 0-2.077.157-3.28 1.32-.262-1.146-.95-2.443-2.456-3.327-.213-.126-.482-.08-.644.112-.165.19-.18.47-.038.68.014.022 1.16 1.72 1.827 3.332-.176-.025-.367-.043-.57-.043-1.003 0-1.942.417-2.717 1.207-.176.178-.21.462-.08.68.096.166.267.262.446.262l.17-.03c.016-.006 1.424-.51 2.678-.67-.29.486-.624 1.193-.855 2.115-.104.425-.17.823-.21 1.184l-.702-.567c-.18-.146-.4-.227-.63-.228l-1.19-.008c.01-.466-.026-1.087-.206-1.807-.198-.786-.49-1.384-.734-1.79 1.3-.486 3.1-.674 3.12-.68.24-.02.435-.22.466-.475.03-.256-.112-.497-.343-.585-.496-.187-.994-.28-1.48-.28-.547 0-1.027.12-1.432.29.51-1.01 1.104-1.89 1.11-1.906.146-.21.13-.494-.034-.684-.164-.19-.432-.237-.645-.11-1.166.685-1.74 1.672-1.983 2.575-.965-.855-2.057-.974-2.586-.974-.24 0-.393.028-.41.03-.244.04-.43.25-.444.51-.014.257.144.49.38.56.693.205 1.528.7 2.186 1.14-1.8.547-2.46 2.212-2.49 2.294-.09.24-.01.516.195.66.088.064.19.094.292.094.13 0 .26-.052.36-.153.734-.736 2.09-1.44 2.81-1.783.2.316.47.836.65 1.556.16.62.185 1.15.17 1.527-.38 0-.69.003-.8.01-.13.01-.485.038-1.25.564l-1.47-.51c-.105-.038-.215-.057-.33-.057h-2.95l-.26.036-2.513.685-.213.087L6.3 17.13c-.133.072-.25.174-.344.298l-1.548 2.058c-.072.097-.126.2-.163.312-.185-.065-.415-.115-.722-.115-.288 0-.524.245-.524.547 0 .304.232.55.52.55.31 0 .44.07.633.176.208.112.46.248.876.286l.2.02.14-.01c.5-.018.783-.173 1.012-.296.195-.107.324-.176.632-.176.31 0 .438.07.633.176.245.133.55.297 1.114.297.565 0 .87-.164 1.114-.297.195-.107.323-.176.634-.176.31 0 .436.07.63.176.245.133.55.297 1.115.297.564 0 .87-.164 1.115-.297.195-.107.324-.176.633-.176s.44.07.634.176c.245.133.55.297 1.114.297.565 0 .87-.164 1.116-.297.193-.107.322-.176.63-.176s.44.07.635.176c.246.133.55.297 1.114.297s.87-.164 1.115-.297c.192-.107.322-.176.63-.176.31 0 .44.07.632.176.246.133.55.297 1.115.297s.87-.164 1.115-.297c.194-.107.323-.176.632-.176s.438.07.633.176c.244.133.55.297 1.114.297.566 0 .87-.164 1.116-.297.195-.107.325-.176.634-.176s.44.07.634.176c.246.133.55.297 1.115.297s.866-.164 1.113-.297c.194-.107.323-.176.632-.176.288 0 .523-.246.523-.55 0-.302-.236-.547-.524-.547zm-6.988 0c-.564 0-.87.164-1.114.297-.195.107-.325.176-.633.176-.31 0-.44-.07-.633-.176-.245-.133-.55-.297-1.115-.297-.564 0-.87.164-1.115.297-.194.107-.323.176-.633.176s-.44-.07-.635-.176c-.245-.133-.55-.297-1.115-.297-.563 0-.87.164-1.114.297-.194.107-.324.176-.632.176-.31 0-.438-.07-.633-.176-.243-.133-.55-.297-1.112-.297-.565 0-.87.164-1.116.297-.193.107-.32.176-.63.176s-.438-.07-.633-.176c-.247-.133-.55-.297-1.115-.297-.564 0-.87.164-1.115.297-.195.107-.324.176-.63.176-.31 0-.44-.07-.635-.176-.244-.133-.55-.297-1.115-.297h-.09l.534-.708 2.312-1.243 2.27-.62h2.647l1.813.63c.326.113.684.05.958-.165.213-.166.53-.386.69-.47.347-.008 1.4-.005 2.435.003l1.156.934.226.14 2.473 1.11.297.4-.25-.01zm.68 2.717h-.05c-.564 0-.87.164-1.115.297-.19.104-.318.173-.612.176-.294-.003-.423-.072-.613-.176-.246-.133-.55-.297-1.115-.297h-.04c-.564 0-.87.164-1.115.297-.19.104-.318.173-.613.176-.297-.003-.426-.072-.616-.176-.244-.133-.55-.297-1.115-.297h-.038c-.566 0-.87.164-1.115.297-.192.104-.32.173-.614.176-.294-.003-.423-.072-.613-.176-.243-.133-.55-.297-1.11-.297h-.04c-.566 0-.87.164-1.117.297-.19.104-.317.173-.61.176-.295-.003-.424-.072-.614-.176-.246-.133-.55-.297-1.117-.297h-.04c-.563 0-.868.164-1.114.297-.19.104-.32.173-.614.176-.294-.003-.423-.072-.613-.176-.247-.133-.55-.297-1.115-.297h-.04c-.566 0-.87.164-1.117.297-.19.104-.317.173-.61.176-.295-.003-.42-.072-.613-.176-.245-.133-.55-.297-1.116-.297h-.037c-.564 0-.87.164-1.114.297-.19.104-.32.173-.615.176-.295-.003-.424-.072-.614-.176-.244-.133-.55-.297-1.112-.297H.64c-.283.005-.512.248-.512.548 0 .302.233.548.524.548l.02.002c.293.002.422.07.612.174.245.133.55.3 1.114.3h.04c.564 0 .868-.167 1.114-.3.19-.104.318-.173.613-.174.294.002.422.07.613.174.244.133.55.3 1.113.3h.04c.566 0 .87-.167 1.117-.3.19-.104.318-.173.613-.174.292.002.42.07.612.174.245.133.55.3 1.114.3h.04c.564 0 .87-.167 1.113-.3.19-.104.32-.173.61-.174.296.002.423.07.614.174.244.133.55.3 1.114.3h.04c.563 0 .87-.167 1.113-.3.19-.104.32-.173.615-.174.296.002.423.07.613.174.246.133.55.3 1.114.3h.04c.565 0 .87-.167 1.115-.3.19-.104.32-.173.612-.174.295.002.423.07.613.174.245.133.55.3 1.114.3h.04c.564 0 .87-.167 1.114-.3.19-.104.32-.173.614-.174.295.002.422.07.613.174.245.133.55.3 1.115.3h.04c.566 0 .87-.167 1.116-.3.19-.104.32-.173.614-.174l.02-.002c.29 0 .523-.246.523-.548 0-.3-.23-.543-.514-.548" fill="#3B444F"/><path d="M31.47 59.683c-.563 0-.868.164-1.114.297-.194.107-.323.176-.633.176s-.438-.07-.632-.176c-.24-.133-.55-.297-1.11-.297-.293 0-.515.044-.696.105-.026-.175-.093-.347-.205-.498l-1.15-1.564c-.11-.15-.253-.265-.418-.34l-2.225-.998c.01-.43.066-.97.22-1.582.278-1.108.73-1.847.98-2.2.906.124 2.968.462 4.19 1.12.077.043.158.062.24.062.152 0 .3-.07.403-.2.158-.2.16-.487.005-.69-.05-.066-1.165-1.51-3.13-1.725.753-.48 1.626-.965 2.372-1.186.236-.07.395-.305.38-.563-.016-.257-.2-.47-.444-.508-.02-.003-.2-.032-.49-.032-.67 0-2.077.157-3.28 1.32-.262-1.146-.95-2.443-2.456-3.327-.213-.126-.482-.08-.644.112-.165.19-.18.47-.038.68.014.022 1.16 1.72 1.827 3.332-.176-.025-.367-.043-.57-.043-1.003 0-1.942.417-2.717 1.207-.176.178-.21.462-.08.68.096.166.267.262.446.262l.17-.03c.016-.006 1.424-.51 2.678-.67-.29.486-.624 1.193-.855 2.115-.104.425-.17.823-.21 1.184l-.702-.567c-.18-.146-.4-.227-.63-.228l-1.19-.008c.01-.466-.026-1.087-.206-1.807-.198-.786-.49-1.384-.734-1.79 1.3-.486 3.1-.674 3.12-.68.24-.02.435-.22.466-.475.03-.256-.112-.497-.343-.585-.496-.187-.994-.28-1.48-.28-.547 0-1.027.12-1.432.29.51-1.01 1.104-1.89 1.11-1.906.146-.21.13-.494-.034-.684-.164-.19-.432-.237-.645-.11-1.166.685-1.74 1.672-1.983 2.575-.965-.855-2.057-.974-2.586-.974-.24 0-.393.028-.41.03-.244.04-.43.25-.444.51-.014.257.144.49.38.56.693.205 1.528.7 2.186 1.14-1.8.547-2.46 2.212-2.49 2.294-.09.24-.01.516.195.66.088.064.19.094.292.094.13 0 .26-.052.36-.153.734-.736 2.09-1.44 2.81-1.783.2.316.47.836.65 1.556.16.62.185 1.15.17 1.527-.38 0-.69.003-.8.01-.13.01-.485.038-1.25.564l-1.47-.51c-.105-.038-.215-.057-.33-.057h-2.95l-.26.036-2.513.685-.213.087L6.3 57.13c-.133.072-.25.174-.344.298l-1.548 2.058c-.072.097-.126.2-.163.312-.185-.065-.415-.115-.722-.115-.288 0-.524.245-.524.547 0 .304.232.55.52.55.31 0 .44.07.633.176.208.112.46.248.876.286l.2.02.14-.01c.5-.018.783-.173 1.012-.296.195-.107.324-.176.632-.176.31 0 .438.07.633.176.245.133.55.297 1.114.297.565 0 .87-.164 1.114-.297.195-.107.323-.176.634-.176.31 0 .436.07.63.176.245.133.55.297 1.115.297.564 0 .87-.164 1.115-.297.195-.107.324-.176.633-.176s.44.07.634.176c.245.133.55.297 1.114.297.565 0 .87-.164 1.116-.297.193-.107.322-.176.63-.176s.44.07.635.176c.246.133.55.297 1.114.297s.87-.164 1.115-.297c.192-.107.322-.176.63-.176.31 0 .44.07.632.176.246.133.55.297 1.115.297s.87-.164 1.115-.297c.194-.107.323-.176.632-.176s.438.07.633.176c.244.133.55.297 1.114.297.566 0 .87-.164 1.116-.297.195-.107.325-.176.634-.176s.44.07.634.176c.246.133.55.297 1.115.297s.866-.164 1.113-.297c.194-.107.323-.176.632-.176.288 0 .523-.246.523-.55 0-.302-.236-.547-.524-.547zm-6.988 0c-.564 0-.87.164-1.114.297-.195.107-.325.176-.633.176-.31 0-.44-.07-.633-.176-.245-.133-.55-.297-1.115-.297-.564 0-.87.164-1.115.297-.194.107-.323.176-.633.176s-.44-.07-.635-.176c-.245-.133-.55-.297-1.115-.297-.563 0-.87.164-1.114.297-.194.107-.324.176-.632.176-.31 0-.438-.07-.633-.176-.243-.133-.55-.297-1.112-.297-.565 0-.87.164-1.116.297-.193.107-.32.176-.63.176s-.438-.07-.633-.176c-.247-.133-.55-.297-1.115-.297-.564 0-.87.164-1.115.297-.195.107-.324.176-.63.176-.31 0-.44-.07-.635-.176-.244-.133-.55-.297-1.115-.297h-.09l.534-.708 2.312-1.243 2.27-.62h2.647l1.813.63c.326.113.684.05.958-.165.213-.166.53-.386.69-.47.347-.008 1.4-.005 2.435.003l1.156.934.226.14 2.473 1.11.297.4-.25-.01zm.68 2.717h-.05c-.564 0-.87.164-1.115.297-.19.104-.318.173-.612.176-.294-.003-.423-.072-.613-.176-.246-.133-.55-.297-1.115-.297h-.04c-.564 0-.87.164-1.115.297-.19.104-.318.173-.613.176-.297-.003-.426-.072-.616-.176-.244-.133-.55-.297-1.115-.297h-.038c-.566 0-.87.164-1.115.297-.192.104-.32.173-.614.176-.294-.003-.423-.072-.613-.176-.243-.133-.55-.297-1.11-.297h-.04c-.566 0-.87.164-1.117.297-.19.104-.317.173-.61.176-.295-.003-.424-.072-.614-.176-.246-.133-.55-.297-1.117-.297h-.04c-.563 0-.868.164-1.114.297-.19.104-.32.173-.614.176-.294-.003-.423-.072-.613-.176-.247-.133-.55-.297-1.115-.297h-.04c-.566 0-.87.164-1.117.297-.19.104-.317.173-.61.176-.295-.003-.42-.072-.613-.176-.245-.133-.55-.297-1.116-.297h-.037c-.564 0-.87.164-1.114.297-.19.104-.32.173-.615.176-.295-.003-.424-.072-.614-.176-.244-.133-.55-.297-1.112-.297H.64c-.283.005-.512.248-.512.548 0 .302.233.548.524.548l.02.002c.293.002.422.07.612.174.245.133.55.3 1.114.3h.04c.564 0 .868-.167 1.114-.3.19-.104.318-.173.613-.174.294.002.422.07.613.174.244.133.55.3 1.113.3h.04c.566 0 .87-.167 1.117-.3.19-.104.318-.173.613-.174.292.002.42.07.612.174.245.133.55.3 1.114.3h.04c.564 0 .87-.167 1.113-.3.19-.104.32-.173.61-.174.296.002.423.07.614.174.244.133.55.3 1.114.3h.04c.563 0 .87-.167 1.113-.3.19-.104.32-.173.615-.174.296.002.423.07.613.174.246.133.55.3 1.114.3h.04c.565 0 .87-.167 1.115-.3.19-.104.32-.173.612-.174.295.002.423.07.613.174.245.133.55.3 1.114.3h.04c.564 0 .87-.167 1.114-.3.19-.104.32-.173.614-.174.295.002.422.07.613.174.245.133.55.3 1.115.3h.04c.566 0 .87-.167 1.116-.3.19-.104.32-.173.614-.174l.02-.002c.29 0 .523-.246.523-.548 0-.3-.23-.543-.514-.548" fill="#67747C"/><path d="M31.47 139.683c-.563 0-.868.164-1.114.297-.194.107-.323.176-.633.176s-.438-.07-.632-.176c-.24-.133-.55-.297-1.11-.297-.293 0-.515.044-.696.105-.026-.175-.093-.347-.205-.498l-1.15-1.564c-.11-.15-.253-.265-.418-.34l-2.225-.998c.01-.43.066-.97.22-1.582.278-1.108.73-1.847.98-2.2.906.124 2.968.462 4.19 1.12.077.043.158.062.24.062.152 0 .3-.07.403-.2.158-.2.16-.487.005-.69-.05-.066-1.165-1.51-3.13-1.725.753-.48 1.626-.965 2.372-1.186.236-.07.395-.305.38-.563-.016-.257-.2-.47-.444-.508-.02-.003-.2-.032-.49-.032-.67 0-2.077.157-3.28 1.32-.262-1.146-.95-2.443-2.456-3.327-.213-.126-.482-.08-.644.112-.165.19-.18.47-.038.68.014.022 1.16 1.72 1.827 3.332-.176-.025-.367-.043-.57-.043-1.003 0-1.942.417-2.717 1.207-.176.178-.21.462-.08.68.096.166.267.262.446.262l.17-.03c.016-.006 1.424-.51 2.678-.67-.29.486-.624 1.193-.855 2.115-.104.425-.17.823-.21 1.184l-.702-.567c-.18-.146-.4-.227-.63-.228l-1.19-.008c.01-.466-.026-1.087-.206-1.807-.198-.786-.49-1.384-.734-1.79 1.3-.486 3.1-.674 3.12-.68.24-.02.435-.22.466-.475.03-.256-.112-.497-.343-.585-.496-.187-.994-.28-1.48-.28-.547 0-1.027.12-1.432.29.51-1.01 1.104-1.89 1.11-1.906.146-.21.13-.494-.034-.684-.164-.19-.432-.237-.645-.11-1.166.685-1.74 1.672-1.983 2.575-.965-.855-2.057-.974-2.586-.974-.24 0-.393.028-.41.03-.244.04-.43.25-.444.51-.014.257.144.49.38.56.693.205 1.528.7 2.186 1.14-1.8.547-2.46 2.212-2.49 2.294-.09.24-.01.516.195.66.088.064.19.094.292.094.13 0 .26-.052.36-.153.734-.736 2.09-1.44 2.81-1.783.2.316.47.836.65 1.556.16.62.185 1.15.17 1.527-.38 0-.69.003-.8.01-.13.01-.485.038-1.25.564l-1.47-.51c-.105-.038-.215-.057-.33-.057h-2.95l-.26.036-2.513.685-.213.087-2.617 1.405c-.133.072-.25.174-.344.298l-1.547 2.06c-.072.096-.126.2-.163.31-.185-.064-.415-.114-.722-.114-.287 0-.523.245-.523.547 0 .304.235.55.523.55.31 0 .437.07.632.176.208.11.46.247.876.285l.198.02.14-.01c.5-.018.785-.173 1.014-.296.195-.107.324-.176.632-.176.31 0 .438.07.633.176.245.132.55.296 1.114.296.562 0 .87-.164 1.11-.297.196-.11.324-.177.635-.177.31 0 .438.07.633.176.243.13.55.295 1.113.295.566 0 .87-.164 1.117-.297.193-.108.322-.177.63-.177s.44.07.634.177c.247.132.55.296 1.116.296s.87-.164 1.115-.297c.195-.108.324-.177.63-.177s.44.07.637.175c.246.132.55.296 1.114.296.565 0 .87-.163 1.115-.296.194-.108.324-.177.632-.177.31 0 .438.07.632.176.245.132.55.296 1.114.296s.87-.165 1.115-.298c.193-.107.322-.176.63-.176s.44.07.634.176c.244.132.55.296 1.114.296.566 0 .87-.164 1.116-.297.195-.11.325-.177.634-.177s.437.07.632.176c.246.13.55.295 1.115.295s.868-.164 1.115-.297c.194-.108.323-.177.632-.177.288 0 .523-.245.523-.55 0-.3-.235-.546-.523-.546zm-6.988 0c-.564 0-.87.164-1.114.297-.195.107-.325.176-.633.176-.31 0-.44-.07-.633-.176-.245-.133-.55-.297-1.115-.297-.564 0-.87.164-1.115.297-.194.107-.323.176-.633.176s-.44-.07-.635-.176c-.245-.133-.55-.297-1.115-.297-.563 0-.87.164-1.114.297-.194.107-.324.176-.632.176-.31 0-.438-.07-.633-.176-.243-.133-.55-.297-1.112-.297-.565 0-.87.164-1.116.297-.193.107-.32.176-.63.176s-.438-.07-.633-.176c-.247-.133-.55-.297-1.115-.297-.564 0-.87.164-1.115.297-.195.107-.324.176-.63.176-.31 0-.44-.07-.635-.176-.244-.133-.55-.297-1.115-.297h-.09l.534-.708 2.312-1.243 2.27-.62h2.647l1.813.63c.326.113.684.05.958-.165.213-.166.53-.386.69-.47.347-.008 1.4-.005 2.435.003l1.156.934.226.14 2.473 1.11.297.4-.25-.01zm.68 2.717h-.05c-.564 0-.87.164-1.115.297-.19.104-.318.173-.612.176-.294-.003-.423-.072-.613-.176-.246-.133-.55-.297-1.115-.297h-.04c-.564 0-.87.164-1.115.297-.19.104-.318.173-.613.176-.297-.003-.426-.072-.616-.176-.244-.133-.55-.297-1.115-.297h-.038c-.566 0-.87.164-1.115.297-.192.104-.32.173-.614.176-.294-.003-.423-.072-.613-.176-.243-.133-.55-.297-1.11-.297h-.04c-.566 0-.87.164-1.117.297-.19.104-.317.173-.61.176-.295-.003-.424-.072-.614-.176-.246-.133-.55-.297-1.117-.297h-.04c-.563 0-.868.164-1.114.297-.19.104-.32.173-.614.176-.294-.003-.423-.072-.613-.176-.247-.133-.55-.297-1.115-.297h-.04c-.566 0-.87.164-1.117.297-.19.104-.317.173-.61.176-.295-.003-.42-.072-.613-.176-.245-.133-.55-.297-1.116-.297h-.037c-.564 0-.87.164-1.114.297-.19.104-.32.173-.615.176-.295-.003-.424-.072-.614-.176-.244-.133-.55-.297-1.112-.297H.64c-.283.005-.512.248-.512.548 0 .302.233.548.524.548l.02.002c.293.002.422.07.612.174.245.133.55.3 1.114.3h.04c.564 0 .868-.167 1.114-.3.19-.104.318-.173.613-.174.294.002.422.07.613.174.244.133.55.3 1.113.3h.04c.566 0 .87-.167 1.117-.3.19-.104.318-.173.613-.174.292.002.42.07.612.174.245.133.55.3 1.114.3h.04c.564 0 .87-.167 1.113-.3.19-.104.32-.173.61-.174.296.002.423.07.614.174.244.133.55.3 1.114.3h.04c.563 0 .87-.167 1.113-.3.19-.104.32-.173.615-.174.296.002.423.07.613.174.246.133.55.3 1.114.3h.04c.565 0 .87-.167 1.115-.3.19-.104.32-.173.612-.174.295.002.423.07.613.174.245.133.55.3 1.114.3h.04c.564 0 .87-.167 1.114-.3.19-.104.32-.173.614-.174.295.002.422.07.613.174.245.133.55.3 1.115.3h.04c.566 0 .87-.167 1.116-.3.19-.104.32-.173.614-.174l.02-.002c.29 0 .523-.246.523-.548 0-.3-.23-.543-.514-.548" fill="#206FAC"/><path d="M31.47 99.683c-.563 0-.868.164-1.114.297-.194.107-.323.176-.633.176s-.438-.07-.632-.176c-.24-.133-.55-.297-1.11-.297-.293 0-.515.044-.696.105-.026-.175-.093-.347-.205-.498l-1.15-1.564c-.11-.15-.253-.265-.418-.34l-2.225-.998c.01-.43.066-.97.22-1.582.278-1.108.73-1.847.98-2.2.906.124 2.968.462 4.19 1.12.077.043.158.062.24.062.152 0 .3-.07.403-.2.158-.2.16-.487.005-.69-.05-.066-1.165-1.51-3.13-1.725.753-.48 1.626-.965 2.372-1.186.236-.07.395-.305.38-.563-.016-.257-.2-.47-.444-.508-.02-.003-.2-.032-.49-.032-.67 0-2.077.157-3.28 1.32-.262-1.146-.95-2.443-2.456-3.327-.213-.126-.482-.08-.644.112-.165.19-.18.47-.038.68.014.022 1.16 1.72 1.827 3.332-.176-.025-.367-.043-.57-.043-1.003 0-1.942.417-2.717 1.207-.176.178-.21.462-.08.68.096.166.267.262.446.262l.17-.03c.016-.006 1.424-.51 2.678-.67-.29.486-.624 1.193-.855 2.115-.104.425-.17.823-.21 1.184l-.702-.567c-.18-.146-.4-.227-.63-.228l-1.19-.008c.01-.466-.026-1.087-.206-1.807-.198-.786-.49-1.384-.734-1.79 1.3-.486 3.1-.674 3.12-.68.24-.02.435-.22.466-.475.03-.256-.112-.497-.343-.585-.496-.187-.994-.28-1.48-.28-.547 0-1.027.12-1.432.29.51-1.01 1.104-1.89 1.11-1.906.146-.21.13-.494-.034-.684-.164-.19-.432-.237-.645-.11-1.166.685-1.74 1.672-1.983 2.575-.965-.855-2.057-.974-2.586-.974-.24 0-.393.028-.41.03-.244.04-.43.25-.444.51-.014.257.144.49.38.56.693.205 1.528.7 2.186 1.14-1.8.547-2.46 2.212-2.49 2.294-.09.24-.01.516.195.66.088.064.19.094.292.094.13 0 .26-.052.36-.153.734-.736 2.09-1.44 2.81-1.783.2.316.47.836.65 1.556.16.62.185 1.15.17 1.527-.38 0-.69.003-.8.01-.13.01-.485.038-1.25.564l-1.47-.51c-.105-.038-.215-.057-.33-.057h-2.95l-.26.036-2.513.685-.213.087L6.3 97.13c-.133.072-.25.174-.344.298l-1.548 2.058c-.072.097-.126.2-.163.312-.185-.065-.415-.115-.722-.115-.288 0-.524.245-.524.547 0 .304.232.55.52.55.31 0 .44.07.633.176.208.112.46.248.876.286l.2.02.14-.01c.5-.018.783-.173 1.012-.296.195-.107.324-.176.632-.176.31 0 .438.07.633.176.245.133.55.297 1.114.297.565 0 .87-.164 1.114-.297.195-.107.323-.176.634-.176.31 0 .436.07.63.176.245.133.55.297 1.115.297.564 0 .87-.164 1.115-.297.195-.107.324-.176.633-.176s.44.07.634.176c.245.133.55.297 1.114.297.565 0 .87-.164 1.116-.297.193-.107.322-.176.63-.176s.44.07.635.176c.246.133.55.297 1.114.297s.87-.164 1.115-.297c.192-.107.322-.176.63-.176.31 0 .44.07.632.176.246.133.55.297 1.115.297s.87-.164 1.115-.297c.194-.107.323-.176.632-.176s.438.07.633.176c.244.133.55.297 1.114.297.566 0 .87-.164 1.116-.297.195-.107.325-.176.634-.176s.44.07.634.176c.246.133.55.297 1.115.297s.866-.164 1.113-.297c.194-.107.323-.176.632-.176.288 0 .523-.246.523-.55 0-.302-.236-.547-.524-.547zm-6.988 0c-.564 0-.87.164-1.114.297-.195.107-.325.176-.633.176-.31 0-.44-.07-.633-.176-.245-.133-.55-.297-1.115-.297-.564 0-.87.164-1.115.297-.194.107-.323.176-.633.176s-.44-.07-.635-.176c-.245-.133-.55-.297-1.115-.297-.563 0-.87.164-1.114.297-.194.107-.324.176-.632.176-.31 0-.438-.07-.633-.176-.243-.133-.55-.297-1.112-.297-.565 0-.87.164-1.116.297-.193.107-.32.176-.63.176s-.438-.07-.633-.176c-.247-.133-.55-.297-1.115-.297-.564 0-.87.164-1.115.297-.195.107-.324.176-.63.176-.31 0-.44-.07-.635-.176-.244-.133-.55-.297-1.115-.297h-.09l.534-.708 2.312-1.243 2.27-.62h2.647l1.813.63c.326.113.684.05.958-.165.213-.166.53-.386.69-.47.347-.008 1.4-.005 2.435.003l1.156.934.226.14 2.473 1.11.297.4-.25-.01zm.68 2.717h-.05c-.564 0-.87.164-1.115.297-.19.104-.318.173-.612.176-.294-.003-.423-.072-.613-.176-.246-.133-.55-.297-1.115-.297h-.04c-.564 0-.87.164-1.115.297-.19.104-.318.173-.613.176-.297-.003-.426-.072-.616-.176-.244-.133-.55-.297-1.115-.297h-.038c-.566 0-.87.164-1.115.297-.192.104-.32.173-.614.176-.294-.003-.423-.072-.613-.176-.243-.133-.55-.297-1.11-.297h-.04c-.566 0-.87.164-1.117.297-.19.104-.317.173-.61.176-.295-.003-.424-.072-.614-.176-.246-.133-.55-.297-1.117-.297h-.04c-.563 0-.868.164-1.114.297-.19.104-.32.173-.614.176-.294-.003-.423-.072-.613-.176-.247-.133-.55-.297-1.115-.297h-.04c-.566 0-.87.164-1.117.297-.19.104-.317.173-.61.176-.295-.003-.42-.072-.613-.176-.245-.133-.55-.297-1.116-.297h-.037c-.564 0-.87.164-1.114.297-.19.104-.32.173-.615.176-.295-.003-.424-.072-.614-.176-.244-.133-.55-.297-1.112-.297H.64c-.283.005-.512.248-.512.548 0 .302.233.548.524.548l.02.002c.293.002.422.07.612.174.245.133.55.3 1.114.3h.04c.564 0 .868-.167 1.114-.3.19-.104.318-.173.613-.174.294.002.422.07.613.174.244.133.55.3 1.113.3h.04c.566 0 .87-.167 1.117-.3.19-.104.318-.173.613-.174.292.002.42.07.612.174.245.133.55.3 1.114.3h.04c.564 0 .87-.167 1.113-.3.19-.104.32-.173.61-.174.296.002.423.07.614.174.244.133.55.3 1.114.3h.04c.563 0 .87-.167 1.113-.3.19-.104.32-.173.615-.174.296.002.423.07.613.174.246.133.55.3 1.114.3h.04c.565 0 .87-.167 1.115-.3.19-.104.32-.173.612-.174.295.002.423.07.613.174.245.133.55.3 1.114.3h.04c.564 0 .87-.167 1.114-.3.19-.104.32-.173.614-.174.295.002.422.07.613.174.245.133.55.3 1.115.3h.04c.566 0 .87-.167 1.116-.3.19-.104.32-.173.614-.174l.02-.002c.29 0 .523-.246.523-.548 0-.3-.23-.543-.514-.548" fill="#fff"/></g></svg>