<svg width="32" height="232" viewBox="0 0 32 232" xmlns="http://www.w3.org/2000/svg"><desc>Created with Sketch.</desc><g fill="none"><path d="M24.83 20.363c.574-.543.933-1.308.933-2.156l-.002-.054-.25-4.28c-.01-1-.52-1.885-1.29-2.417l-.365-5.367c.275-.165.46-.46.46-.8 0-.39-.236-.72-.574-.86l-.176-2.57c-.035-.51-.48-.895-.994-.862-.516.035-.904.477-.87.99l.175 2.52c-.256.166-.426.453-.426.778 0 .163.042.317.12.45.092.17.24.304.415.387l.33 4.795H9.245c-1.64 0-2.98 1.32-2.995 2.95L6 18.152l-.003.054c0 1.643 1.344 2.978 2.996 2.978h2.82c.598 0 1.084-.16 1.485-.422.578.623 1.526 1.423 2.58 1.423.417 0 .818-.126 1.186-.317.56-.29 1.043-.73 1.392-1.107.402.26.887.425 1.486.425h2.82l.25-.01.296 4.32c-.016 1.716-1.426 3.107-3.158 3.107-1.474 0-2.715-1.01-3.06-2.37.418-.09.733-.46.733-.903 0-.51-.418-.928-.933-.928h-1.66c-.514 0-.932.416-.932.927 0 .5.396.903.892.924.382 2.38 2.46 4.204 4.96 4.204 2.77 0 5.023-2.24 5.023-4.992l-.002-.063-.342-5.036zm-2.064-1.03h-2.82c-.666 0-1.01-.615-1.572-2.084l-.01-.028c-.447-1.17-1.01-2.61-2.46-2.61h-.043c-1.46 0-2.02 1.46-2.47 2.634-.56 1.468-.902 2.082-1.57 2.082H9c-.616 0-1.12-.493-1.13-1.103l.25-4.274v-.05c0-.62.51-1.125 1.132-1.125h13.265c.363 0 .685.17.892.435.15.19.24.43.24.69v.054l.25 4.274c-.004.168-.046.327-.116.47-.167.338-.5.58-.892.624l-.123.008zm-6.884 1.926c-.682 0-1.402-.598-1.892-1.12.54-.66.868-1.516 1.144-2.23.18-.47.514-1.34.726-1.44l.04-.005c.216.1.55.973.73 1.44.246.644.535 1.396.98 2.018l.164.212-.308.308c-.46.426-1.034.812-1.584.812z" fill="#373D43"/><path d="M24.83 60.363c.574-.543.933-1.308.933-2.156l-.002-.054-.25-4.28c-.01-1-.52-1.885-1.29-2.418l-.365-5.367c.275-.16.46-.458.46-.8 0-.385-.236-.715-.574-.855l-.176-2.57c-.035-.512-.48-.896-.994-.863-.516.035-.904.477-.87.988l.175 2.523c-.256.17-.426.455-.426.78 0 .166.042.32.12.454.092.17.24.304.415.387l.33 4.795H9.245c-1.64 0-2.98 1.32-2.995 2.95L6 58.155l-.003.053c0 1.642 1.344 2.978 2.996 2.978h2.82c.598 0 1.084-.16 1.485-.422.578.622 1.526 1.423 2.58 1.423.417 0 .818-.126 1.186-.317.56-.29 1.043-.73 1.392-1.106.402.26.887.422 1.486.422h2.82l.25-.01.296 4.32c-.016 1.716-1.426 3.107-3.158 3.107-1.474 0-2.715-1.008-3.06-2.368.418-.09.733-.46.733-.905 0-.51-.418-.927-.933-.927h-1.66c-.514 0-.932.415-.932.927 0 .5.396.904.892.925.382 2.38 2.46 4.204 4.96 4.204 2.77 0 5.023-2.24 5.023-4.995l-.002-.063-.342-5.037zm-2.064-1.03h-2.82c-.666 0-1.01-.615-1.572-2.084l-.01-.028c-.447-1.17-1.01-2.61-2.46-2.61h-.043c-1.46 0-2.02 1.46-2.47 2.634-.56 1.468-.902 2.082-1.57 2.082H9c-.616 0-1.12-.493-1.13-1.103l.25-4.274v-.05c0-.62.51-1.125 1.132-1.125h13.265c.363 0 .685.17.892.435.15.19.24.43.24.69v.054l.25 4.274c-.004.168-.046.327-.116.47-.167.338-.5.58-.892.624l-.123.008zm-6.884 1.926c-.682 0-1.402-.598-1.892-1.12.54-.66.868-1.516 1.144-2.23.18-.47.514-1.34.726-1.44l.04-.005c.216.1.55.973.73 1.44.246.644.535 1.396.98 2.018l.164.212-.308.308c-.46.426-1.034.812-1.584.812z" fill="#67747C"/><path d="M24.83 100.363c.574-.543.933-1.308.933-2.156l-.002-.054-.25-4.28c-.01-1-.52-1.885-1.29-2.417l-.365-5.367c.275-.165.46-.46.46-.8 0-.388-.236-.72-.574-.86l-.176-2.57c-.035-.51-.48-.895-.994-.862-.516.035-.904.477-.87.99l.175 2.52c-.256.166-.426.45-.426.778 0 .163.042.317.12.45.092.17.24.304.415.387l.33 4.795H9.245c-1.64 0-2.98 1.32-2.995 2.95L6 98.152l-.003.054c0 1.642 1.344 2.978 2.996 2.978h2.82c.598 0 1.084-.16 1.485-.422.578.622 1.526 1.423 2.58 1.423.417 0 .818-.126 1.186-.317.56-.29 1.043-.73 1.392-1.107.402.26.887.425 1.486.425h2.82l.25-.01.296 4.32c-.016 1.716-1.426 3.107-3.158 3.107-1.474 0-2.715-1.01-3.06-2.37.418-.09.733-.46.733-.903 0-.51-.418-.928-.933-.928h-1.66c-.514 0-.932.416-.932.927 0 .5.396.903.892.924.382 2.38 2.46 4.204 4.96 4.204 2.77 0 5.023-2.24 5.023-4.992l-.002-.063-.342-5.036zm-2.064-1.03h-2.82c-.666 0-1.01-.615-1.572-2.084l-.01-.028c-.447-1.17-1.01-2.61-2.46-2.61h-.043c-1.46 0-2.02 1.46-2.47 2.634-.56 1.468-.902 2.082-1.57 2.082H9c-.616 0-1.12-.493-1.13-1.103l.25-4.274v-.05c0-.62.51-1.125 1.132-1.125h13.265c.363 0 .685.17.892.435.15.19.24.43.24.69v.054l.25 4.274c-.004.168-.046.327-.116.47-.167.338-.5.58-.892.624l-.123.007zm-6.884 1.926c-.682 0-1.402-.598-1.892-1.125.54-.657.868-1.512 1.144-2.23.18-.468.514-1.34.726-1.438l.04-.003c.216.1.55.973.73 1.44.246.644.535 1.396.98 2.018l.164.212-.308.308c-.46.426-1.034.812-1.584.812z" fill="#fff"/><path d="M24.83 140.363c.574-.543.933-1.308.933-2.156l-.002-.054-.25-4.28c-.01-1-.52-1.885-1.29-2.418l-.365-5.367c.275-.16.46-.458.46-.8 0-.384-.236-.715-.574-.855l-.176-2.57c-.035-.512-.48-.896-.994-.863-.516.035-.904.477-.87.988l.175 2.523c-.256.17-.426.455-.426.78 0 .166.042.32.12.454.092.17.24.304.415.387l.33 4.795H9.245c-1.64 0-2.98 1.32-2.995 2.95l-.25 4.28-.003.054c0 1.642 1.344 2.977 2.996 2.977h2.82c.598 0 1.084-.16 1.485-.422.578.623 1.526 1.423 2.58 1.423.417 0 .818-.126 1.186-.317.56-.29 1.043-.73 1.392-1.105.402.26.887.422 1.486.422h2.82l.25-.01.296 4.32c-.016 1.716-1.426 3.107-3.158 3.107-1.474 0-2.715-1.008-3.06-2.368.418-.09.733-.46.733-.905 0-.51-.418-.926-.933-.926h-1.66c-.514 0-.932.416-.932.927 0 .5.396.905.892.926.382 2.38 2.46 4.204 4.96 4.204 2.77 0 5.023-2.24 5.023-4.994l-.002-.063-.342-5.037zm-2.064-1.03h-2.82c-.666 0-1.01-.615-1.572-2.084l-.01-.028c-.447-1.17-1.01-2.61-2.46-2.61h-.043c-1.46 0-2.02 1.46-2.47 2.634-.56 1.468-.902 2.082-1.57 2.082H9c-.616 0-1.12-.493-1.13-1.103l.25-4.274v-.053c0-.62.51-1.126 1.132-1.126h13.265c.363 0 .685.17.892.436.15.19.24.43.24.69v.053l.25 4.273c-.004.168-.046.327-.116.47-.167.338-.5.58-.892.624l-.123.008zm-6.884 1.926c-.682 0-1.402-.598-1.892-1.12.54-.66.868-1.516 1.144-2.23.18-.47.514-1.34.726-1.44l.04-.005c.216.1.55.973.73 1.44.246.644.535 1.396.98 2.018l.164.212-.308.308c-.46.426-1.034.812-1.584.812z" fill="#206FAC"/></g></svg>