<svg width="32" height="232" viewBox="0 0 32 232" xmlns="http://www.w3.org/2000/svg" xmlns:sketch="http://www.bohemiancoding.com/sketch/ns"><title>round-the-world-travel 2</title><desc>Created with Sketch.</desc><g sketch:type="MSLayerGroup" fill="none"><g fill="#373D43" sketch:type="MSShapeGroup"><path d="M15.166 21.022c3.958 0 7.177-3.196 7.177-7.124 0-3.618-5.693-10.737-6.342-11.537-.204-.251-.511-.397-.835-.397-.325 0-.632.146-.835.397-.649.8-6.342 7.919-6.342 11.537 0 3.928 3.22 7.124 7.178 7.124zm5.032-7.124c0 2.574-1.973 4.699-4.496 4.966v-1.21l.011-.007 2.779-2.185c.232-.182.272-.517.088-.748-.184-.231-.522-.269-.754-.087l-2.124 1.67v-2.818l1.926-1.342c.242-.169.301-.501.131-.742-.17-.24-.505-.299-.747-.13l-1.31.912v-3.686c0-.294-.24-.532-.536-.532-.296 0-.536.239-.536.532v3.686l-1.31-.912c-.242-.169-.577-.111-.747.13-.17.241-.112.572.131.742l1.926 1.342v2.818l-2.124-1.67c-.232-.182-.569-.144-.753.087-.184.23-.145.566.087.748l2.78 2.185.01.007v1.21c-2.523-.267-4.496-2.392-4.496-4.966 0-1.911 2.813-6.23 5.032-9.138 2.22 2.907 5.032 7.224 5.032 9.138z" id="Fill-1"/><path d="M26.07 28.005c-.408-.514-1.057-1.296-1.734-1.967-1.169-1.16-3.173-1.16-4.784-1.16h-8.216999999999999v-.48c0-.095.029-.183.077-.257.086-.134.236-.223.407-.223h3.565c1.059 0 1.886-.325 2.763-.669 1.149-.451 2.451-.961 4.741-.961 1.048 0 1.993.193 2.971.61l.211.043c.208 0 .406-.121.493-.323.117-.27-.01-.583-.282-.699-1.117-.474-2.194-.695-3.393-.695-2.494 0-3.958.575-5.135 1.036-.846.332-1.514.594-2.369.594h-.762l-8.423-2.452c-.153-.048-.312-.073-.471-.073-.678 0-1.272.43-1.481 1.07l-.014.052-.128.596c-.056.257.087.516.335.609l5.823 2.191v.564c0 .294.24.532.536.532h8.754c1.414 0 3.17-.001 4.024.847 1.039 1.031 2.05 2.392 2.061 2.406.105.141.267.217.432.217.111 0 .222-.034.318-.104.239-.174.289-.507.114-.744l-.432-.56zm-20.794-6.3c.07-.187.25-.312.453-.312l.149.024.014.005 5.329 1.55c-.362.151-.655.434-.817.789l-5.152-1.938.025-.117z" id="Fill-2"/></g><g fill="#67747C" sketch:type="MSShapeGroup"><path d="M15.166 61.022c3.958 0 7.177-3.196 7.177-7.124 0-3.618-5.693-10.737-6.342-11.537-.204-.251-.511-.397-.835-.397-.325 0-.632.146-.835.397-.649.8-6.342 7.919-6.342 11.537 0 3.928 3.22 7.124 7.178 7.124zm5.032-7.124c0 2.574-1.973 4.699-4.496 4.966v-1.21l.011-.007 2.779-2.185c.232-.182.272-.517.088-.748-.184-.231-.522-.269-.754-.087l-2.124 1.67v-2.818l1.926-1.342c.242-.169.301-.501.131-.742-.17-.24-.505-.299-.747-.13l-1.31.912v-3.686c0-.294-.24-.532-.536-.532-.296 0-.536.239-.536.532v3.686l-1.31-.912c-.242-.169-.577-.111-.747.13-.17.241-.112.572.131.742l1.926 1.342v2.818l-2.124-1.67c-.232-.182-.569-.144-.753.087-.184.23-.145.566.087.748l2.78 2.185.01.007v1.21c-2.523-.267-4.496-2.392-4.496-4.966 0-1.911 2.813-6.23 5.032-9.138 2.22 2.907 5.032 7.224 5.032 9.138z" id="Fill-1"/><path d="M26.07 68.005c-.408-.514-1.057-1.296-1.734-1.967-1.169-1.16-3.173-1.16-4.784-1.16h-8.216999999999999v-.48c0-.095.029-.183.077-.257.086-.134.236-.223.407-.223h3.565c1.059 0 1.886-.325 2.763-.669 1.149-.451 2.451-.961 4.741-.961 1.048 0 1.993.193 2.971.61l.211.043c.208 0 .406-.121.493-.323.117-.27-.01-.583-.282-.699-1.117-.474-2.194-.695-3.393-.695-2.494 0-3.958.575-5.135 1.036-.846.332-1.514.594-2.369.594h-.762l-8.423-2.452c-.153-.048-.312-.073-.471-.073-.678 0-1.272.43-1.481 1.07l-.014.052-.128.596c-.056.257.087.516.335.609l5.823 2.191v.564c0 .294.24.532.536.532h8.754c1.414 0 3.17-.001 4.024.847 1.039 1.031 2.05 2.392 2.061 2.406.105.141.267.217.432.217.111 0 .222-.034.318-.104.239-.174.289-.507.114-.744l-.432-.56zm-20.794-6.3c.07-.187.25-.312.453-.312l.149.024.014.005 5.329 1.55c-.362.151-.655.434-.817.789l-5.152-1.938.025-.117z" id="Fill-2"/></g><g fill="#fff" sketch:type="MSShapeGroup"><path d="M15.166 101.022c3.958 0 7.177-3.196 7.177-7.124 0-3.618-5.693-10.737-6.342-11.537-.204-.251-.511-.397-.835-.397-.325 0-.632.146-.835.397-.649.8-6.342 7.919-6.342 11.537 0 3.928 3.22 7.124 7.178 7.124zm5.032-7.124c0 2.574-1.973 4.699-4.496 4.966v-1.21l.011-.007 2.779-2.185c.232-.182.272-.517.088-.748-.184-.231-.522-.269-.754-.087l-2.124 1.67v-2.818l1.926-1.342c.242-.169.301-.501.131-.742-.17-.24-.505-.299-.747-.13l-1.31.912v-3.686c0-.294-.24-.532-.536-.532-.296 0-.536.239-.536.532v3.686l-1.31-.912c-.242-.169-.577-.111-.747.13-.17.241-.112.572.131.742l1.926 1.342v2.818l-2.124-1.67c-.232-.182-.569-.144-.753.087-.184.23-.145.566.087.748l2.78 2.185.01.007v1.21c-2.523-.267-4.496-2.392-4.496-4.966 0-1.911 2.813-6.23 5.032-9.138 2.22 2.907 5.032 7.224 5.032 9.138z" id="Fill-1"/><path d="M26.07 108.005c-.408-.514-1.057-1.296-1.734-1.967-1.169-1.16-3.173-1.16-4.784-1.16h-8.216999999999999v-.48c0-.095.029-.183.077-.257.086-.134.236-.223.407-.223h3.565c1.059 0 1.886-.325 2.763-.669 1.149-.451 2.451-.961 4.741-.961 1.048 0 1.993.193 2.971.61l.211.043c.208 0 .406-.121.493-.323.117-.27-.01-.583-.282-.699-1.117-.474-2.194-.695-3.393-.695-2.494 0-3.958.575-5.135 1.036-.846.332-1.514.594-2.369.594h-.762l-8.423-2.452c-.153-.048-.312-.073-.471-.073-.678 0-1.272.43-1.481 1.07l-.014.052-.128.596c-.056.257.087.516.335.609l5.823 2.191v.564c0 .294.24.532.536.532h8.754c1.414 0 3.17-.001 4.024.847 1.039 1.031 2.05 2.392 2.061 2.406.105.141.267.217.432.217.111 0 .222-.034.318-.104.239-.174.289-.507.114-.744l-.432-.56zm-20.794-6.3c.07-.187.25-.312.453-.312l.149.024.014.005 5.329 1.55c-.362.151-.655.434-.817.789l-5.152-1.938.025-.117z" id="Fill-2"/></g><g fill="#206FAC" sketch:type="MSShapeGroup"><path d="M15.166 141.022c3.958 0 7.177-3.196 7.177-7.124 0-3.618-5.693-10.737-6.342-11.537-.204-.251-.511-.397-.835-.397-.325 0-.632.146-.835.397-.649.8-6.342 7.919-6.342 11.537 0 3.928 3.22 7.124 7.178 7.124zm5.032-7.124c0 2.574-1.973 4.699-4.496 4.966v-1.21l.011-.007 2.779-2.185c.232-.182.272-.517.088-.748-.184-.231-.522-.269-.754-.087l-2.124 1.67v-2.818l1.926-1.342c.242-.169.301-.501.131-.742-.17-.24-.505-.299-.747-.13l-1.31.912v-3.686c0-.294-.24-.532-.536-.532-.296 0-.536.239-.536.532v3.686l-1.31-.912c-.242-.169-.577-.111-.747.13-.17.241-.112.572.131.742l1.926 1.342v2.818l-2.124-1.67c-.232-.182-.569-.144-.753.087-.184.23-.145.566.087.748l2.78 2.185.01.007v1.21c-2.523-.267-4.496-2.392-4.496-4.966 0-1.911 2.813-6.23 5.032-9.138 2.22 2.907 5.032 7.224 5.032 9.138z"/><path d="M26.07 148.005c-.408-.514-1.057-1.296-1.734-1.967-1.169-1.16-3.173-1.16-4.784-1.16h-8.216999999999999v-.48c0-.095.029-.183.077-.257.086-.134.236-.223.407-.223h3.565c1.059 0 1.886-.325 2.763-.669 1.149-.451 2.451-.961 4.741-.961 1.048 0 1.993.193 2.971.61l.211.043c.208 0 .406-.121.493-.323.117-.27-.01-.583-.282-.699-1.117-.474-2.194-.695-3.393-.695-2.494 0-3.958.575-5.135 1.036-.846.332-1.514.594-2.369.594h-.762l-8.423-2.452c-.153-.048-.312-.073-.471-.073-.678 0-1.272.43-1.481 1.07l-.014.052-.128.596c-.056.257.087.516.335.609l5.823 2.191v.564c0 .294.24.532.536.532h8.754c1.414 0 3.17-.001 4.024.847 1.039 1.031 2.05 2.392 2.061 2.406.105.141.267.217.432.217.111 0 .222-.034.318-.104.239-.174.289-.507.114-.744l-.432-.56zm-20.794-6.3c.07-.187.25-.312.453-.312l.149.024.014.005 5.329 1.55c-.362.151-.655.434-.817.789l-5.152-1.938.025-.117z"/></g></g></svg>