<?xml version="1.0" encoding="UTF-8" standalone="no"?>
<svg width="32px" height="232px" viewBox="0 0 32 232" version="1.1" xmlns="http://www.w3.org/2000/svg" xmlns:xlink="http://www.w3.org/1999/xlink" xmlns:sketch="http://www.bohemiancoding.com/sketch/ns">
    <!-- Generator: Sketch 3.0.4 (8054) - http://www.bohemiancoding.com/sketch -->
    <title>round-the-world-travel 2</title>
    <desc>Created with Sketch.</desc>
    <defs></defs>
    <g id="Points-of-interest" stroke="none" stroke-width="1" fill="none" fill-rule="evenodd" sketch:type="MSPage">
        <g id="Ecotourism" sketch:type="MSLayerGroup">
            <g id="Imported-Layers" transform="translate(4.000000, 2.000000)" fill="#373D43" sketch:type="MSShapeGroup">
                <path d="M11.1658491,19.0219077 C15.1235849,19.0219077 18.3431509,15.8256 18.3431509,11.8974154 C18.3431509,8.27938462 12.65,1.16006154 12.0012264,0.360553846 C11.7972642,0.109415385 11.4904528,-0.0361846154 11.1658491,-0.0361846154 C10.8408113,-0.0361846154 10.534,0.109415385 10.3304717,0.360553846 C9.68126415,1.16006154 3.98811321,8.27938462 3.98811321,11.8974154 C3.98811321,15.8256 7.20811321,19.0219077 11.1658491,19.0219077 L11.1658491,19.0219077 Z M16.1980755,11.8974154 C16.1980755,14.4716923 14.225283,16.5966769 11.7017925,16.8637538 L11.7017925,15.6532923 C11.7056981,15.6507077 11.7091698,15.6489846 11.7126415,15.6464 L14.4917358,13.4611077 C14.7239057,13.2788923 14.7633962,12.9437538 14.5793962,12.7132923 C14.3953962,12.4824 14.0577736,12.4440615 13.8256038,12.6262769 L11.7017925,14.2959385 L11.7017925,11.4778462 L13.6281509,10.1355692 C13.8703019,9.96627692 13.9288868,9.63458462 13.7587736,9.39378462 C13.5890943,9.15341538 13.2540755,9.09483077 13.0114906,9.26412308 L11.7017925,10.1764923 L11.7017925,6.49083077 C11.7017925,6.19704615 11.4618113,5.9584 11.1658491,5.9584 C10.8694528,5.9584 10.6294717,6.19704615 10.6294717,6.49083077 L10.6294717,10.1764923 L9.31977358,9.26412308 C9.07762264,9.09483077 8.74303774,9.15341538 8.57249057,9.39378462 C8.40237736,9.63458462 8.46096226,9.96627692 8.70354717,10.1355692 L10.6294717,11.4778462 L10.6294717,14.2959385 L8.50566038,12.6262769 C8.27349057,12.4440615 7.93630189,12.4824 7.75230189,12.7132923 C7.56830189,12.9437538 7.60735849,13.2788923 7.8395283,13.4611077 L10.6190566,15.6464 C10.6225283,15.6489846 10.626,15.6507077 10.6294717,15.6532923 L10.6294717,16.8637538 C8.10598113,16.5966769 6.13362264,14.4716923 6.13362264,11.8974154 C6.13362264,9.98609231 8.94613208,5.66763077 11.1658491,2.75950769 C13.385566,5.66633846 16.1980755,9.98393846 16.1980755,11.8974154 L16.1980755,11.8974154 Z" id="Fill-1"></path>
                <path d="M22.0704528,26.0046769 C21.6620943,25.4903385 21.0133208,24.7084923 20.3363396,24.0373538 C19.1676792,22.8768615 17.1632075,22.8777231 15.5527736,22.8777231 L9.453,22.8781538 L7.33613208,22.8781538 L7.33613208,22.3978462 C7.33613208,22.3030769 7.36477358,22.2147692 7.4129434,22.1406769 C7.49886792,22.0071385 7.64858491,21.9179692 7.81956604,21.9179692 L11.385,21.9179692 C12.4443019,21.9179692 13.271434,21.5931692 14.1480377,21.2494154 C15.2967358,20.7988308 16.5990566,20.2879385 18.8886415,20.2879385 C19.9370943,20.2879385 20.8813962,20.4813538 21.8595472,20.8974769 C21.9285472,20.9267692 22.0001509,20.9401231 22.0704528,20.9401231 C22.2783208,20.9396923 22.4766415,20.8190769 22.563434,20.6170462 C22.6801698,20.3469538 22.5538868,20.0342154 22.2817925,19.9183385 C21.1652075,19.4440615 20.0876792,19.2230769 18.8886415,19.2230769 C16.3946604,19.2230769 14.9304717,19.7977231 13.753566,20.2590769 C12.9077736,20.5912 12.2399057,20.8531077 11.385,20.8531077 L10.6233962,20.8531077 L2.20018868,18.4016 C2.047,18.3533538 1.88860377,18.3288 1.72890566,18.3288 C1.0510566,18.3288 0.456528302,18.7591385 0.248226415,19.3988308 C0.242584906,19.4160615 0.237811321,19.4332923 0.234339623,19.4509538 L0.105886792,20.0467077 C0.0503396226,20.3034462 0.192679245,20.5623385 0.440471698,20.6553846 L6.26337736,22.8467077 L6.26337736,23.4105846 C6.26337736,23.7048 6.50335849,23.9430154 6.79975472,23.9430154 L15.5536415,23.9430154 C16.9674906,23.9430154 18.7237358,23.9421538 19.5777736,24.7899077 C20.6166792,25.8211692 21.6282453,27.1815385 21.6386604,27.1957538 C21.7432453,27.3370462 21.9059811,27.4124308 22.0708868,27.4124308 C22.1815472,27.4124308 22.2926415,27.3788308 22.3885472,27.3086154 C22.6272264,27.1341538 22.678,26.8011692 22.5026792,26.5646769 C22.4861887,26.5418462 22.3247547,26.3247385 22.0704528,26.0046769 L22.0704528,26.0046769 Z M1.27628302,19.7051077 C1.34658491,19.5181538 1.52624528,19.3932308 1.72890566,19.3932308 C1.77924528,19.3932308 1.82915094,19.4014154 1.87818868,19.4169231 C1.8825283,19.4186462 1.88730189,19.4199385 1.89207547,19.4216615 L7.22069811,20.972 C6.85833962,21.1227692 6.56584906,21.4062154 6.40354717,21.7607385 L1.25111321,19.8222769 L1.27628302,19.7051077 L1.27628302,19.7051077 Z" id="Fill-2"></path>
            </g>
            <g id="Imported-Layers-5" transform="translate(4.000000, 42.000000)" fill="#67747C" sketch:type="MSShapeGroup">
                <path d="M11.1658491,19.0219077 C15.1235849,19.0219077 18.3431509,15.8256 18.3431509,11.8974154 C18.3431509,8.27938462 12.65,1.16006154 12.0012264,0.360553846 C11.7972642,0.109415385 11.4904528,-0.0361846154 11.1658491,-0.0361846154 C10.8408113,-0.0361846154 10.534,0.109415385 10.3304717,0.360553846 C9.68126415,1.16006154 3.98811321,8.27938462 3.98811321,11.8974154 C3.98811321,15.8256 7.20811321,19.0219077 11.1658491,19.0219077 L11.1658491,19.0219077 Z M16.1980755,11.8974154 C16.1980755,14.4716923 14.225283,16.5966769 11.7017925,16.8637538 L11.7017925,15.6532923 C11.7056981,15.6507077 11.7091698,15.6489846 11.7126415,15.6464 L14.4917358,13.4611077 C14.7239057,13.2788923 14.7633962,12.9437538 14.5793962,12.7132923 C14.3953962,12.4824 14.0577736,12.4440615 13.8256038,12.6262769 L11.7017925,14.2959385 L11.7017925,11.4778462 L13.6281509,10.1355692 C13.8703019,9.96627692 13.9288868,9.63458462 13.7587736,9.39378462 C13.5890943,9.15341538 13.2540755,9.09483077 13.0114906,9.26412308 L11.7017925,10.1764923 L11.7017925,6.49083077 C11.7017925,6.19704615 11.4618113,5.9584 11.1658491,5.9584 C10.8694528,5.9584 10.6294717,6.19704615 10.6294717,6.49083077 L10.6294717,10.1764923 L9.31977358,9.26412308 C9.07762264,9.09483077 8.74303774,9.15341538 8.57249057,9.39378462 C8.40237736,9.63458462 8.46096226,9.96627692 8.70354717,10.1355692 L10.6294717,11.4778462 L10.6294717,14.2959385 L8.50566038,12.6262769 C8.27349057,12.4440615 7.93630189,12.4824 7.75230189,12.7132923 C7.56830189,12.9437538 7.60735849,13.2788923 7.8395283,13.4611077 L10.6190566,15.6464 C10.6225283,15.6489846 10.626,15.6507077 10.6294717,15.6532923 L10.6294717,16.8637538 C8.10598113,16.5966769 6.13362264,14.4716923 6.13362264,11.8974154 C6.13362264,9.98609231 8.94613208,5.66763077 11.1658491,2.75950769 C13.385566,5.66633846 16.1980755,9.98393846 16.1980755,11.8974154 L16.1980755,11.8974154 Z" id="Fill-1"></path>
                <path d="M22.0704528,26.0046769 C21.6620943,25.4903385 21.0133208,24.7084923 20.3363396,24.0373538 C19.1676792,22.8768615 17.1632075,22.8777231 15.5527736,22.8777231 L9.453,22.8781538 L7.33613208,22.8781538 L7.33613208,22.3978462 C7.33613208,22.3030769 7.36477358,22.2147692 7.4129434,22.1406769 C7.49886792,22.0071385 7.64858491,21.9179692 7.81956604,21.9179692 L11.385,21.9179692 C12.4443019,21.9179692 13.271434,21.5931692 14.1480377,21.2494154 C15.2967358,20.7988308 16.5990566,20.2879385 18.8886415,20.2879385 C19.9370943,20.2879385 20.8813962,20.4813538 21.8595472,20.8974769 C21.9285472,20.9267692 22.0001509,20.9401231 22.0704528,20.9401231 C22.2783208,20.9396923 22.4766415,20.8190769 22.563434,20.6170462 C22.6801698,20.3469538 22.5538868,20.0342154 22.2817925,19.9183385 C21.1652075,19.4440615 20.0876792,19.2230769 18.8886415,19.2230769 C16.3946604,19.2230769 14.9304717,19.7977231 13.753566,20.2590769 C12.9077736,20.5912 12.2399057,20.8531077 11.385,20.8531077 L10.6233962,20.8531077 L2.20018868,18.4016 C2.047,18.3533538 1.88860377,18.3288 1.72890566,18.3288 C1.0510566,18.3288 0.456528302,18.7591385 0.248226415,19.3988308 C0.242584906,19.4160615 0.237811321,19.4332923 0.234339623,19.4509538 L0.105886792,20.0467077 C0.0503396226,20.3034462 0.192679245,20.5623385 0.440471698,20.6553846 L6.26337736,22.8467077 L6.26337736,23.4105846 C6.26337736,23.7048 6.50335849,23.9430154 6.79975472,23.9430154 L15.5536415,23.9430154 C16.9674906,23.9430154 18.7237358,23.9421538 19.5777736,24.7899077 C20.6166792,25.8211692 21.6282453,27.1815385 21.6386604,27.1957538 C21.7432453,27.3370462 21.9059811,27.4124308 22.0708868,27.4124308 C22.1815472,27.4124308 22.2926415,27.3788308 22.3885472,27.3086154 C22.6272264,27.1341538 22.678,26.8011692 22.5026792,26.5646769 C22.4861887,26.5418462 22.3247547,26.3247385 22.0704528,26.0046769 L22.0704528,26.0046769 Z M1.27628302,19.7051077 C1.34658491,19.5181538 1.52624528,19.3932308 1.72890566,19.3932308 C1.77924528,19.3932308 1.82915094,19.4014154 1.87818868,19.4169231 C1.8825283,19.4186462 1.88730189,19.4199385 1.89207547,19.4216615 L7.22069811,20.972 C6.85833962,21.1227692 6.56584906,21.4062154 6.40354717,21.7607385 L1.25111321,19.8222769 L1.27628302,19.7051077 L1.27628302,19.7051077 Z" id="Fill-2"></path>
            </g>
            <g id="Imported-Layers-6" transform="translate(4.000000, 82.000000)" fill="#FFFFFF" sketch:type="MSShapeGroup">
                <path d="M11.1658491,19.0219077 C15.1235849,19.0219077 18.3431509,15.8256 18.3431509,11.8974154 C18.3431509,8.27938462 12.65,1.16006154 12.0012264,0.360553846 C11.7972642,0.109415385 11.4904528,-0.0361846154 11.1658491,-0.0361846154 C10.8408113,-0.0361846154 10.534,0.109415385 10.3304717,0.360553846 C9.68126415,1.16006154 3.98811321,8.27938462 3.98811321,11.8974154 C3.98811321,15.8256 7.20811321,19.0219077 11.1658491,19.0219077 L11.1658491,19.0219077 Z M16.1980755,11.8974154 C16.1980755,14.4716923 14.225283,16.5966769 11.7017925,16.8637538 L11.7017925,15.6532923 C11.7056981,15.6507077 11.7091698,15.6489846 11.7126415,15.6464 L14.4917358,13.4611077 C14.7239057,13.2788923 14.7633962,12.9437538 14.5793962,12.7132923 C14.3953962,12.4824 14.0577736,12.4440615 13.8256038,12.6262769 L11.7017925,14.2959385 L11.7017925,11.4778462 L13.6281509,10.1355692 C13.8703019,9.96627692 13.9288868,9.63458462 13.7587736,9.39378462 C13.5890943,9.15341538 13.2540755,9.09483077 13.0114906,9.26412308 L11.7017925,10.1764923 L11.7017925,6.49083077 C11.7017925,6.19704615 11.4618113,5.9584 11.1658491,5.9584 C10.8694528,5.9584 10.6294717,6.19704615 10.6294717,6.49083077 L10.6294717,10.1764923 L9.31977358,9.26412308 C9.07762264,9.09483077 8.74303774,9.15341538 8.57249057,9.39378462 C8.40237736,9.63458462 8.46096226,9.96627692 8.70354717,10.1355692 L10.6294717,11.4778462 L10.6294717,14.2959385 L8.50566038,12.6262769 C8.27349057,12.4440615 7.93630189,12.4824 7.75230189,12.7132923 C7.56830189,12.9437538 7.60735849,13.2788923 7.8395283,13.4611077 L10.6190566,15.6464 C10.6225283,15.6489846 10.626,15.6507077 10.6294717,15.6532923 L10.6294717,16.8637538 C8.10598113,16.5966769 6.13362264,14.4716923 6.13362264,11.8974154 C6.13362264,9.98609231 8.94613208,5.66763077 11.1658491,2.75950769 C13.385566,5.66633846 16.1980755,9.98393846 16.1980755,11.8974154 L16.1980755,11.8974154 Z" id="Fill-1"></path>
                <path d="M22.0704528,26.0046769 C21.6620943,25.4903385 21.0133208,24.7084923 20.3363396,24.0373538 C19.1676792,22.8768615 17.1632075,22.8777231 15.5527736,22.8777231 L9.453,22.8781538 L7.33613208,22.8781538 L7.33613208,22.3978462 C7.33613208,22.3030769 7.36477358,22.2147692 7.4129434,22.1406769 C7.49886792,22.0071385 7.64858491,21.9179692 7.81956604,21.9179692 L11.385,21.9179692 C12.4443019,21.9179692 13.271434,21.5931692 14.1480377,21.2494154 C15.2967358,20.7988308 16.5990566,20.2879385 18.8886415,20.2879385 C19.9370943,20.2879385 20.8813962,20.4813538 21.8595472,20.8974769 C21.9285472,20.9267692 22.0001509,20.9401231 22.0704528,20.9401231 C22.2783208,20.9396923 22.4766415,20.8190769 22.563434,20.6170462 C22.6801698,20.3469538 22.5538868,20.0342154 22.2817925,19.9183385 C21.1652075,19.4440615 20.0876792,19.2230769 18.8886415,19.2230769 C16.3946604,19.2230769 14.9304717,19.7977231 13.753566,20.2590769 C12.9077736,20.5912 12.2399057,20.8531077 11.385,20.8531077 L10.6233962,20.8531077 L2.20018868,18.4016 C2.047,18.3533538 1.88860377,18.3288 1.72890566,18.3288 C1.0510566,18.3288 0.456528302,18.7591385 0.248226415,19.3988308 C0.242584906,19.4160615 0.237811321,19.4332923 0.234339623,19.4509538 L0.105886792,20.0467077 C0.0503396226,20.3034462 0.192679245,20.5623385 0.440471698,20.6553846 L6.26337736,22.8467077 L6.26337736,23.4105846 C6.26337736,23.7048 6.50335849,23.9430154 6.79975472,23.9430154 L15.5536415,23.9430154 C16.9674906,23.9430154 18.7237358,23.9421538 19.5777736,24.7899077 C20.6166792,25.8211692 21.6282453,27.1815385 21.6386604,27.1957538 C21.7432453,27.3370462 21.9059811,27.4124308 22.0708868,27.4124308 C22.1815472,27.4124308 22.2926415,27.3788308 22.3885472,27.3086154 C22.6272264,27.1341538 22.678,26.8011692 22.5026792,26.5646769 C22.4861887,26.5418462 22.3247547,26.3247385 22.0704528,26.0046769 L22.0704528,26.0046769 Z M1.27628302,19.7051077 C1.34658491,19.5181538 1.52624528,19.3932308 1.72890566,19.3932308 C1.77924528,19.3932308 1.82915094,19.4014154 1.87818868,19.4169231 C1.8825283,19.4186462 1.88730189,19.4199385 1.89207547,19.4216615 L7.22069811,20.972 C6.85833962,21.1227692 6.56584906,21.4062154 6.40354717,21.7607385 L1.25111321,19.8222769 L1.27628302,19.7051077 L1.27628302,19.7051077 Z" id="Fill-2"></path>
            </g>
            <g id="Imported-Layers-7" transform="translate(4.000000, 122.000000)" fill="#206FAC" sketch:type="MSShapeGroup">
                <path d="M11.1658491,19.0219077 C15.1235849,19.0219077 18.3431509,15.8256 18.3431509,11.8974154 C18.3431509,8.27938462 12.65,1.16006154 12.0012264,0.360553846 C11.7972642,0.109415385 11.4904528,-0.0361846154 11.1658491,-0.0361846154 C10.8408113,-0.0361846154 10.534,0.109415385 10.3304717,0.360553846 C9.68126415,1.16006154 3.98811321,8.27938462 3.98811321,11.8974154 C3.98811321,15.8256 7.20811321,19.0219077 11.1658491,19.0219077 L11.1658491,19.0219077 Z M16.1980755,11.8974154 C16.1980755,14.4716923 14.225283,16.5966769 11.7017925,16.8637538 L11.7017925,15.6532923 C11.7056981,15.6507077 11.7091698,15.6489846 11.7126415,15.6464 L14.4917358,13.4611077 C14.7239057,13.2788923 14.7633962,12.9437538 14.5793962,12.7132923 C14.3953962,12.4824 14.0577736,12.4440615 13.8256038,12.6262769 L11.7017925,14.2959385 L11.7017925,11.4778462 L13.6281509,10.1355692 C13.8703019,9.96627692 13.9288868,9.63458462 13.7587736,9.39378462 C13.5890943,9.15341538 13.2540755,9.09483077 13.0114906,9.26412308 L11.7017925,10.1764923 L11.7017925,6.49083077 C11.7017925,6.19704615 11.4618113,5.9584 11.1658491,5.9584 C10.8694528,5.9584 10.6294717,6.19704615 10.6294717,6.49083077 L10.6294717,10.1764923 L9.31977358,9.26412308 C9.07762264,9.09483077 8.74303774,9.15341538 8.57249057,9.39378462 C8.40237736,9.63458462 8.46096226,9.96627692 8.70354717,10.1355692 L10.6294717,11.4778462 L10.6294717,14.2959385 L8.50566038,12.6262769 C8.27349057,12.4440615 7.93630189,12.4824 7.75230189,12.7132923 C7.56830189,12.9437538 7.60735849,13.2788923 7.8395283,13.4611077 L10.6190566,15.6464 C10.6225283,15.6489846 10.626,15.6507077 10.6294717,15.6532923 L10.6294717,16.8637538 C8.10598113,16.5966769 6.13362264,14.4716923 6.13362264,11.8974154 C6.13362264,9.98609231 8.94613208,5.66763077 11.1658491,2.75950769 C13.385566,5.66633846 16.1980755,9.98393846 16.1980755,11.8974154 L16.1980755,11.8974154 Z" id="Fill-1"></path>
                <path d="M22.0704528,26.0046769 C21.6620943,25.4903385 21.0133208,24.7084923 20.3363396,24.0373538 C19.1676792,22.8768615 17.1632075,22.8777231 15.5527736,22.8777231 L9.453,22.8781538 L7.33613208,22.8781538 L7.33613208,22.3978462 C7.33613208,22.3030769 7.36477358,22.2147692 7.4129434,22.1406769 C7.49886792,22.0071385 7.64858491,21.9179692 7.81956604,21.9179692 L11.385,21.9179692 C12.4443019,21.9179692 13.271434,21.5931692 14.1480377,21.2494154 C15.2967358,20.7988308 16.5990566,20.2879385 18.8886415,20.2879385 C19.9370943,20.2879385 20.8813962,20.4813538 21.8595472,20.8974769 C21.9285472,20.9267692 22.0001509,20.9401231 22.0704528,20.9401231 C22.2783208,20.9396923 22.4766415,20.8190769 22.563434,20.6170462 C22.6801698,20.3469538 22.5538868,20.0342154 22.2817925,19.9183385 C21.1652075,19.4440615 20.0876792,19.2230769 18.8886415,19.2230769 C16.3946604,19.2230769 14.9304717,19.7977231 13.753566,20.2590769 C12.9077736,20.5912 12.2399057,20.8531077 11.385,20.8531077 L10.6233962,20.8531077 L2.20018868,18.4016 C2.047,18.3533538 1.88860377,18.3288 1.72890566,18.3288 C1.0510566,18.3288 0.456528302,18.7591385 0.248226415,19.3988308 C0.242584906,19.4160615 0.237811321,19.4332923 0.234339623,19.4509538 L0.105886792,20.0467077 C0.0503396226,20.3034462 0.192679245,20.5623385 0.440471698,20.6553846 L6.26337736,22.8467077 L6.26337736,23.4105846 C6.26337736,23.7048 6.50335849,23.9430154 6.79975472,23.9430154 L15.5536415,23.9430154 C16.9674906,23.9430154 18.7237358,23.9421538 19.5777736,24.7899077 C20.6166792,25.8211692 21.6282453,27.1815385 21.6386604,27.1957538 C21.7432453,27.3370462 21.9059811,27.4124308 22.0708868,27.4124308 C22.1815472,27.4124308 22.2926415,27.3788308 22.3885472,27.3086154 C22.6272264,27.1341538 22.678,26.8011692 22.5026792,26.5646769 C22.4861887,26.5418462 22.3247547,26.3247385 22.0704528,26.0046769 L22.0704528,26.0046769 Z M1.27628302,19.7051077 C1.34658491,19.5181538 1.52624528,19.3932308 1.72890566,19.3932308 C1.77924528,19.3932308 1.82915094,19.4014154 1.87818868,19.4169231 C1.8825283,19.4186462 1.88730189,19.4199385 1.89207547,19.4216615 L7.22069811,20.972 C6.85833962,21.1227692 6.56584906,21.4062154 6.40354717,21.7607385 L1.25111321,19.8222769 L1.27628302,19.7051077 L1.27628302,19.7051077 Z" id="Fill-2"></path>
            </g>
        </g>
    </g>
</svg>