<svg width="32" height="232" viewBox="0 0 32 232" xmlns="http://www.w3.org/2000/svg"><title>round-the-world-travel 2</title><desc>Created with Sketch.</desc><g fill="none"><path d="M15.166 21.022c3.958 0 7.177-3.196 7.177-7.124C22.343 10.28 16.65 3.16 16 2.36c-.203-.25-.51-.396-.834-.396-.325 0-.632.146-.835.397-.648.8-6.34 7.92-6.34 11.538 0 3.928 3.22 7.124 7.177 7.124zm5.032-7.124c0 2.574-1.973 4.7-4.496 4.966v-1.21l.01-.007 2.78-2.185c.232-.182.272-.517.088-.748-.184-.23-.522-.27-.754-.087l-2.124 1.67V13.48l1.926-1.343c.242-.17.3-.5.13-.742-.17-.24-.504-.3-.746-.13l-1.31.912V8.49c0-.293-.24-.53-.536-.53-.296 0-.536.238-.536.53v3.687l-1.31-.912c-.242-.17-.577-.11-.747.13-.17.24-.112.572.13.742l1.927 1.342v2.817l-2.124-1.67c-.232-.182-.57-.144-.753.087-.184.23-.145.566.087.748l2.78 2.185.01.007v1.21c-2.523-.267-4.496-2.392-4.496-4.966 0-1.91 2.813-6.23 5.032-9.138 2.22 2.907 5.032 7.224 5.032 9.138zm5.872 14.107c-.408-.514-1.057-1.296-1.734-1.967-1.17-1.16-3.173-1.16-4.784-1.16h-8.217v-.48c0-.095.03-.183.077-.257.086-.133.236-.222.407-.222h3.564c1.06 0 1.886-.325 2.763-.67 1.15-.45 2.45-.96 4.74-.96 1.05 0 1.994.193 2.972.61l.21.043c.208 0 .406-.12.493-.322.117-.27-.01-.583-.282-.7-1.116-.473-2.193-.694-3.392-.694-2.494 0-3.958.575-5.135 1.036-.846.332-1.514.594-2.37.594h-.76l-8.424-2.452c-.154-.048-.313-.073-.472-.073-.678 0-1.272.43-1.48 1.07l-.015.05-.128.597c-.056.257.087.516.335.61l5.823 2.19v.564c0 .295.24.533.536.533h8.753c1.414 0 3.17 0 4.024.847 1.04 1.03 2.05 2.392 2.06 2.406.106.14.268.217.433.217.11 0 .222-.034.318-.104.24-.175.29-.508.114-.745l-.432-.56zm-20.794-6.3c.07-.187.25-.312.453-.312l.148.024.014.005 5.33 1.55c-.363.15-.656.434-.818.79l-5.152-1.94.025-.116z" fill="#373D43"/><path d="M15.166 61.022c3.958 0 7.177-3.196 7.177-7.124 0-3.618-5.693-10.737-6.342-11.537-.203-.25-.51-.396-.834-.396-.325 0-.632.146-.835.397-.648.8-6.34 7.92-6.34 11.538 0 3.928 3.22 7.124 7.177 7.124zm5.032-7.124c0 2.574-1.973 4.7-4.496 4.966v-1.21l.01-.007 2.78-2.185c.232-.182.272-.517.088-.748-.184-.23-.522-.27-.754-.087l-2.124 1.67V53.48l1.926-1.343c.242-.17.3-.5.13-.742-.17-.24-.504-.3-.746-.13l-1.31.912V48.49c0-.293-.24-.53-.536-.53-.296 0-.536.238-.536.53v3.687l-1.31-.912c-.242-.17-.577-.11-.747.13-.17.24-.112.572.13.742l1.927 1.342v2.817l-2.124-1.67c-.232-.182-.57-.144-.753.087-.184.23-.145.566.087.748l2.78 2.185.01.007v1.21c-2.523-.267-4.496-2.392-4.496-4.966 0-1.91 2.813-6.23 5.032-9.138 2.22 2.907 5.032 7.224 5.032 9.138zm5.872 14.107c-.408-.514-1.057-1.296-1.734-1.967-1.17-1.16-3.173-1.16-4.784-1.16h-8.217v-.48c0-.095.03-.183.077-.257.086-.133.236-.222.407-.222h3.564c1.06 0 1.886-.325 2.763-.67 1.15-.45 2.45-.96 4.74-.96 1.05 0 1.994.193 2.972.61l.21.043c.208 0 .406-.12.493-.322.117-.27-.01-.583-.282-.7-1.116-.473-2.193-.694-3.392-.694-2.494 0-3.958.575-5.135 1.036-.846.332-1.514.594-2.37.594h-.76l-8.424-2.452c-.154-.048-.313-.073-.472-.073-.678 0-1.272.43-1.48 1.07l-.015.05-.128.597c-.056.257.087.516.335.61l5.823 2.19v.564c0 .295.24.533.536.533h8.753c1.414 0 3.17 0 4.024.847 1.04 1.03 2.05 2.392 2.06 2.406.106.14.268.217.433.217.11 0 .222-.034.318-.104.24-.175.29-.508.114-.745l-.432-.56zm-20.794-6.3c.07-.187.25-.312.453-.312l.148.024.014.005 5.33 1.55c-.363.15-.656.434-.818.79l-5.152-1.94.025-.116z" fill="#67747C"/><path d="M15.166 101.022c3.958 0 7.177-3.196 7.177-7.124 0-3.618-5.693-10.737-6.342-11.537-.203-.25-.51-.396-.834-.396-.325 0-.632.146-.835.397-.648.8-6.34 7.92-6.34 11.538 0 3.928 3.22 7.124 7.177 7.124zm5.032-7.124c0 2.574-1.973 4.7-4.496 4.966v-1.21l.01-.007 2.78-2.185c.232-.182.272-.517.088-.748-.184-.23-.522-.27-.754-.087l-2.124 1.67V93.48l1.926-1.343c.242-.17.3-.5.13-.742-.17-.24-.504-.3-.746-.13l-1.31.912V88.49c0-.293-.24-.53-.536-.53-.296 0-.536.238-.536.53v3.687l-1.31-.912c-.242-.17-.577-.11-.747.13-.17.24-.112.572.13.742l1.927 1.342v2.817l-2.124-1.67c-.232-.182-.57-.144-.753.087-.184.23-.145.566.087.748l2.78 2.185.01.007v1.21c-2.523-.267-4.496-2.392-4.496-4.966 0-1.91 2.813-6.23 5.032-9.138 2.22 2.907 5.032 7.224 5.032 9.138zm5.872 14.107c-.408-.514-1.057-1.296-1.734-1.967-1.17-1.16-3.173-1.16-4.784-1.16h-8.217v-.48c0-.095.03-.183.077-.257.086-.133.236-.222.407-.222h3.564c1.06 0 1.886-.325 2.763-.67 1.15-.45 2.45-.96 4.74-.96 1.05 0 1.994.193 2.972.61l.21.043c.208 0 .406-.12.493-.322.117-.27-.01-.583-.282-.7-1.116-.473-2.193-.694-3.392-.694-2.494 0-3.958.575-5.135 1.036-.846.332-1.514.594-2.37.594h-.76l-8.424-2.452c-.154-.048-.313-.073-.472-.073-.678 0-1.272.43-1.48 1.07l-.015.05-.128.597c-.056.257.087.516.335.61l5.823 2.19v.564c0 .295.24.533.536.533h8.753c1.414 0 3.17 0 4.024.847 1.04 1.03 2.05 2.392 2.06 2.406.106.14.268.217.433.217.11 0 .222-.034.318-.104.24-.175.29-.508.114-.745l-.432-.56zm-20.794-6.3c.07-.187.25-.312.453-.312l.148.024.014.005 5.33 1.55c-.363.15-.656.434-.818.79l-5.152-1.94.025-.116z" fill="#fff"/><path d="M15.166 141.022c3.958 0 7.177-3.196 7.177-7.124 0-3.618-5.693-10.737-6.342-11.537-.203-.25-.51-.396-.834-.396-.325 0-.632.146-.835.397-.648.8-6.34 7.92-6.34 11.538 0 3.928 3.22 7.124 7.177 7.124zm5.032-7.124c0 2.574-1.973 4.7-4.496 4.966v-1.21l.01-.007 2.78-2.185c.232-.182.272-.517.088-.748-.184-.23-.522-.27-.754-.087l-2.124 1.67v-2.818l1.926-1.343c.242-.17.3-.5.13-.742-.17-.24-.504-.3-.746-.13l-1.31.912v-3.686c0-.293-.24-.53-.536-.53-.296 0-.536.238-.536.53v3.687l-1.31-.912c-.242-.17-.577-.11-.747.13-.17.24-.112.572.13.742l1.927 1.342v2.817l-2.124-1.67c-.232-.182-.57-.144-.753.087-.184.23-.145.566.087.748l2.78 2.185.01.007v1.21c-2.523-.267-4.496-2.392-4.496-4.966 0-1.91 2.813-6.23 5.032-9.138 2.22 2.907 5.032 7.224 5.032 9.138zm5.872 14.107c-.408-.514-1.057-1.296-1.734-1.967-1.17-1.16-3.173-1.16-4.784-1.16h-8.217v-.48c0-.095.03-.183.077-.257.086-.133.236-.222.407-.222h3.564c1.06 0 1.886-.325 2.763-.67 1.15-.45 2.45-.96 4.74-.96 1.05 0 1.994.193 2.972.61l.21.043c.208 0 .406-.12.493-.322.117-.27-.01-.583-.282-.7-1.116-.473-2.193-.694-3.392-.694-2.494 0-3.958.575-5.135 1.036-.846.332-1.514.594-2.37.594h-.76l-8.424-2.452c-.154-.048-.313-.073-.472-.073-.678 0-1.272.43-1.48 1.07l-.015.05-.128.597c-.056.257.087.516.335.61l5.823 2.19v.564c0 .295.24.533.536.533h8.753c1.414 0 3.17 0 4.024.847 1.04 1.03 2.05 2.392 2.06 2.406.106.14.268.217.433.217.11 0 .222-.034.318-.104.24-.175.29-.508.114-.745l-.432-.56zm-20.794-6.3c.07-.187.25-.312.453-.312l.148.024.014.005 5.33 1.55c-.363.15-.656.434-.818.79l-5.152-1.94.025-.116z" fill="#206FAC"/></g></svg>