<svg width="32" height="232" viewBox="0 0 32 232" xmlns="http://www.w3.org/2000/svg"><g fill="none"><g fill="#3B444F"><path d="M24.415 6.746c-.973-.344-1.912-.51-2.87-.51-2.233 0-4.05.913-5.807 1.796-1.596.803-3.104 1.56-4.812 1.56-.548 0-1.09-.075-1.647-.23l-.13-.357c-.21-.587-.856-.888-1.43-.674-.58.218-.88.866-.67 1.45l6.41 17.79c.166.46.593.744 1.05.744.124 0 .255-.02.38-.07.58-.212.88-.86.667-1.447l-3.48-9.658c2.463-.525 4.27-2.486 6.025-4.39 1.804-1.96 3.508-3.808 5.693-3.808l.198.006c.556.027 1.045-.362 1.15-.914.104-.55-.205-1.1-.73-1.283zm-7.942 4.456c-1.66 1.8-3.23 3.51-5.173 3.773l-1.137-3.156c.253.02.506.03.763.03 2.23 0 4.05-.912 5.804-1.794.532-.27 1.053-.53 1.576-.762-.633.6-1.236 1.256-1.832 1.904zM5.683 24.008c-.308 0-.56.252-.56.565v1.07c0 .312.252.566.56.566.308 0 .557-.258.557-.57v-1.07c0-.31-.25-.565-.557-.565m0-2.61c.308 0 .557-.255.557-.566v-1.07c0-.314-.25-.566-.558-.566-.307 0-.56.252-.56.565v1.07c0 .31.253.566.56.566m-1.846 1.87c.31 0 .557-.254.557-.565 0-.312-.25-.566-.557-.564H2.78c-.308 0-.557.252-.557.565 0 .314.25.566.558.566h1.06m3.694 0H8.59c.31 0 .556-.254.556-.565 0-.312-.248-.564-.556-.564H7.53c-.31 0-.56.252-.56.565 0 .31.25.566.56.566m-3.62.43L2.09 25.54c-.217.22-.217.58 0 .8.11.11.253.165.395.165.143 0 .286-.054.396-.164l1.82-1.845c.22-.22.22-.578 0-.8-.215-.22-.57-.22-.79 0m4.578-4.633l-1.82 1.845c-.218.22-.218.58 0 .8.11.11.25.164.394.164.143 0 .286-.053.394-.163l1.82-1.844c.22-.223.22-.58 0-.8-.218-.22-.57-.22-.79 0m-5.602 0c-.217-.22-.57-.22-.79 0-.216.22-.216.577 0 .8l1.82 1.844c.11.11.253.164.397.164.14 0 .285-.053.395-.163.218-.22.218-.58 0-.8l-1.82-1.845m4.573 4.634c-.217-.22-.572-.22-.79 0-.217.22-.217.578 0 .8l1.82 1.845c.11.11.253.165.396.165.14 0 .285-.054.394-.164.218-.22.218-.58 0-.8l-1.82-1.844m18.913-5.282c-.22-.22-.57-.22-.79 0-.216.22-.216.58 0 .8l1.414 1.432c.11.11.252.165.394.165.144 0 .285-.055.394-.164.22-.223.22-.58 0-.8l-1.412-1.432M21.91 13.9c-.217-.22-.57-.22-.79 0-.217.22-.217.58 0 .8l1.415 1.43c.11.112.25.167.393.167.144 0 .286-.055.395-.166.218-.22.218-.574 0-.794L21.91 13.9m.625 4.515l-1.414 1.432c-.214.22-.214.578 0 .8.11.11.256.165.4.165.142 0 .285-.056.393-.165l1.414-1.432c.218-.22.218-.58 0-.8-.217-.22-.572-.22-.788 0m3.436-2.118c.142 0 .285-.055.394-.166l1.412-1.43c.217-.22.217-.58 0-.8-.217-.22-.572-.22-.79 0l-1.413 1.436c-.22.22-.22.578 0 .798.11.112.25.167.392.167m-1.52 2.71c-.307 0-.56.253-.56.566v3.04c0 .31.253.564.56.564.31 0 .56-.256.56-.57v-3.04c0-.31-.25-.563-.56-.563m0-7.636c-.307 0-.56.256-.56.57v3.04c0 .31.253.563.56.563.31 0 .56-.254.56-.565v-3.04c0-.314-.25-.568-.56-.568m-2.267 6.467c.31 0 .558-.252.558-.565 0-.313-.25-.565-.557-.565h-3c-.307 0-.557.252-.557.565 0 .313.25.565.557.565h3m7.535-1.13h-3c-.31 0-.56.252-.56.565 0 .313.25.565.56.565h3c.307 0 .556-.252.556-.565 0-.313-.25-.565-.558-.565m-10.6 3.685l-.526-.29-.287-.53c-.098-.182-.286-.296-.49-.296-.204 0-.39.113-.49.294l-.287.53-.522.29c-.18.1-.29.29-.29.497 0 .207.11.397.29.496l.524.292.288.53c.098.18.286.294.49.294.205 0 .39-.114.49-.295l.286-.53.525-.293c.18-.1.29-.288.29-.496 0-.206-.11-.396-.29-.496M6.76 16.707l.318-.175c.18-.1.29-.29.29-.494 0-.207-.11-.398-.29-.497l-.317-.176-.17-.32c-.1-.18-.287-.295-.49-.295-.205 0-.39.113-.49.294l-.174.32-.316.177c-.18.1-.29.29-.29.497 0 .207.11.397.29.496l.316.175.174.323c.1.18.285.294.49.294.203 0 .39-.11.49-.292l.173-.32"/><path d="M10.49 5.746l.67.373.368.68c.098.18.287.29.49.29.205 0 .392-.113.49-.294l.366-.68.67-.374c.18-.1.292-.288.292-.496 0-.206-.11-.396-.29-.496l-.672-.37-.367-.68c-.097-.18-.285-.295-.49-.295-.202 0-.39.114-.49.294l-.366.68-.67.37c-.18.1-.29.29-.29.496 0 .208.11.397.29.496zm1.528-.607l.11.11-.11.11-.11-.11.11-.11z"/></g><path d="M24.415 46.746c-.973-.344-1.912-.51-2.87-.51-2.233 0-4.05.913-5.807 1.796-1.596.803-3.104 1.56-4.812 1.56-.548 0-1.09-.075-1.647-.23l-.13-.357c-.21-.587-.856-.888-1.43-.674-.58.218-.88.866-.67 1.45l6.41 17.79c.166.46.593.744 1.05.744.124 0 .255-.02.38-.07.58-.212.88-.86.667-1.447l-3.48-9.658c2.463-.525 4.27-2.486 6.025-4.39 1.804-1.96 3.508-3.808 5.693-3.808l.198.006c.556.027 1.045-.362 1.15-.914.104-.55-.205-1.1-.73-1.283zm-7.942 4.456c-1.66 1.8-3.23 3.51-5.173 3.773l-1.137-3.156c.253.02.506.03.763.03 2.23 0 4.05-.912 5.804-1.794.532-.27 1.053-.53 1.576-.762-.633.6-1.236 1.256-1.832 1.904z" fill="#67747C"/><path d="M5.683 64.008c-.308 0-.56.252-.56.565v1.07c0 .312.252.566.56.566.308 0 .557-.258.557-.57v-1.07c0-.31-.25-.565-.557-.565m0-2.61c.308 0 .557-.255.557-.566v-1.07c0-.314-.25-.566-.558-.566-.307 0-.56.252-.56.565v1.07c0 .31.253.566.56.566m-1.846 1.87c.31 0 .557-.254.557-.565 0-.312-.25-.566-.557-.564H2.78c-.308 0-.557.252-.557.565 0 .314.25.566.558.566h1.06m3.694 0H8.59c.31 0 .556-.254.556-.565 0-.312-.248-.564-.556-.564H7.53c-.31 0-.56.252-.56.565 0 .31.25.566.56.566m-3.62.43L2.09 65.54c-.217.22-.217.58 0 .8.11.11.253.165.395.165.143 0 .286-.054.396-.164l1.82-1.845c.22-.22.22-.578 0-.8-.215-.22-.57-.22-.79 0m4.578-4.633l-1.82 1.845c-.218.22-.218.58 0 .8.11.11.25.164.394.164.143 0 .286-.053.394-.163l1.82-1.844c.22-.223.22-.58 0-.8-.218-.22-.57-.22-.79 0m-5.602 0c-.217-.22-.57-.22-.79 0-.216.22-.216.577 0 .8l1.82 1.844c.11.11.253.164.397.164.14 0 .285-.053.395-.163.218-.22.218-.58 0-.8l-1.82-1.845m4.573 4.634c-.217-.22-.572-.22-.79 0-.217.22-.217.578 0 .8l1.82 1.845c.11.11.253.165.396.165.14 0 .285-.054.394-.164.218-.22.218-.58 0-.8l-1.82-1.844m18.913-5.282c-.22-.22-.57-.22-.79 0-.216.22-.216.58 0 .8l1.414 1.432c.11.11.252.165.394.165.144 0 .285-.055.394-.164.22-.223.22-.58 0-.8l-1.412-1.432M21.91 53.9c-.217-.22-.57-.22-.79 0-.217.22-.217.58 0 .8l1.415 1.43c.11.112.25.167.393.167.144 0 .286-.055.395-.166.218-.22.218-.574 0-.794L21.91 53.9m.625 4.515l-1.414 1.432c-.214.22-.214.578 0 .8.11.11.256.165.4.165.142 0 .285-.056.393-.165l1.414-1.432c.218-.22.218-.58 0-.8-.217-.22-.572-.22-.788 0m3.436-2.118c.142 0 .285-.055.394-.166l1.412-1.43c.217-.22.217-.58 0-.8-.217-.22-.572-.22-.79 0l-1.413 1.436c-.22.22-.22.578 0 .798.11.112.25.167.392.167m-1.52 2.71c-.307 0-.56.253-.56.566v3.04c0 .31.253.564.56.564.31 0 .56-.256.56-.57v-3.04c0-.31-.25-.563-.56-.563m0-7.636c-.307 0-.56.256-.56.57v3.04c0 .31.253.563.56.563.31 0 .56-.254.56-.565v-3.04c0-.314-.25-.568-.56-.568m-2.267 6.467c.31 0 .558-.252.558-.565 0-.313-.25-.565-.557-.565h-3c-.307 0-.557.252-.557.565 0 .313.25.565.557.565h3m7.535-1.13h-3c-.31 0-.56.252-.56.565 0 .313.25.565.56.565h3c.307 0 .556-.252.556-.565 0-.313-.25-.565-.558-.565m-10.6 3.685l-.526-.29-.287-.53c-.098-.182-.286-.296-.49-.296-.204 0-.39.113-.49.294l-.287.53-.522.29c-.18.1-.29.29-.29.497 0 .207.11.397.29.496l.524.292.288.53c.098.18.286.294.49.294.205 0 .39-.114.49-.295l.286-.53.525-.293c.18-.1.29-.288.29-.496 0-.206-.11-.396-.29-.496M6.76 56.707l.318-.175c.18-.1.29-.29.29-.494 0-.207-.11-.398-.29-.497l-.317-.176-.17-.32c-.1-.18-.287-.295-.49-.295-.205 0-.39.113-.49.294l-.174.32-.316.177c-.18.1-.29.29-.29.497 0 .207.11.397.29.496l.316.175.174.323c.1.18.285.294.49.294.203 0 .39-.11.49-.292l.173-.32" fill="#373D43"/><path d="M10.49 45.746l.67.373.368.68c.098.18.287.29.49.29.205 0 .392-.113.49-.294l.366-.68.67-.374c.18-.1.292-.288.292-.496 0-.206-.11-.396-.29-.496l-.672-.37-.367-.68c-.097-.18-.285-.295-.49-.295-.202 0-.39.114-.49.294l-.366.68-.67.37c-.18.1-.29.29-.29.496 0 .208.11.397.29.496zm1.528-.607l.11.11-.11.11-.11-.11.11-.11z" fill="#67747C"/><g fill="#fff"><path d="M24.415 86.746c-.973-.344-1.912-.51-2.87-.51-2.233 0-4.05.913-5.807 1.796-1.596.803-3.104 1.56-4.812 1.56-.548 0-1.09-.075-1.647-.23l-.13-.357c-.21-.587-.856-.888-1.43-.674-.58.218-.88.866-.67 1.45l6.41 17.79c.166.458.593.743 1.05.743.124 0 .255-.02.38-.07.58-.212.88-.86.667-1.447l-3.48-9.658c2.463-.524 4.27-2.485 6.025-4.39 1.804-1.958 3.508-3.807 5.693-3.807l.198.006c.556.027 1.045-.362 1.15-.914.104-.55-.205-1.1-.73-1.282zm-7.942 4.456c-1.66 1.8-3.23 3.51-5.173 3.773l-1.137-3.156c.253.02.506.03.763.03 2.23 0 4.05-.912 5.804-1.794.532-.27 1.053-.53 1.576-.762-.633.6-1.236 1.256-1.832 1.904zm-10.79 12.806c-.308 0-.56.252-.56.565v1.07c0 .312.252.566.56.566.308 0 .557-.258.557-.57v-1.07c0-.31-.25-.565-.557-.565m0-2.61c.308 0 .557-.255.557-.566v-1.07c0-.314-.25-.566-.558-.566-.307 0-.56.252-.56.565v1.07c0 .31.253.566.56.566m-1.846 1.87c.31 0 .557-.254.557-.565 0-.312-.25-.566-.557-.564H2.78c-.308 0-.557.252-.557.565 0 .314.25.566.558.566h1.06m3.694 0H8.59c.31 0 .556-.254.556-.565 0-.312-.248-.564-.556-.564H7.53c-.31 0-.56.252-.56.565 0 .31.25.566.56.566m-3.62.43l-1.82 1.845c-.217.22-.217.58 0 .8.11.11.253.165.395.165.143 0 .286-.054.396-.164l1.82-1.845c.22-.22.22-.578 0-.8-.215-.22-.57-.22-.79 0m4.578-4.633l-1.82 1.845c-.218.22-.218.58 0 .8.11.11.25.164.394.164.143 0 .286-.053.394-.163l1.82-1.844c.22-.223.22-.58 0-.8-.218-.22-.57-.22-.79 0m-5.602 0c-.217-.22-.57-.22-.79 0-.216.22-.216.577 0 .8l1.82 1.844c.11.11.253.164.397.164.14 0 .285-.053.395-.163.218-.22.218-.58 0-.8l-1.82-1.845m4.573 4.634c-.217-.22-.572-.22-.79 0-.217.22-.217.578 0 .8l1.82 1.845c.11.11.253.165.396.165.14 0 .285-.054.394-.164.218-.22.218-.58 0-.8l-1.82-1.844m18.913-5.282c-.22-.22-.57-.22-.79 0-.216.22-.216.58 0 .8l1.414 1.432c.11.11.252.165.394.165.144 0 .285-.055.394-.164.22-.223.22-.58 0-.8l-1.412-1.432M21.91 93.9c-.217-.22-.57-.22-.79 0-.217.22-.217.58 0 .8l1.415 1.43c.11.112.25.167.393.167.144 0 .286-.055.395-.166.218-.22.218-.574 0-.794L21.91 93.9m.625 4.515l-1.414 1.432c-.214.22-.214.578 0 .8.11.11.256.165.4.165.142 0 .285-.056.393-.165l1.414-1.432c.218-.22.218-.58 0-.8-.217-.22-.572-.22-.788 0m3.436-2.118c.142 0 .285-.055.394-.166l1.412-1.43c.217-.22.217-.58 0-.8-.217-.22-.572-.22-.79 0l-1.413 1.436c-.22.22-.22.578 0 .798.11.112.25.167.392.167m-1.52 2.71c-.307 0-.56.253-.56.566v3.04c0 .31.253.564.56.564.31 0 .56-.256.56-.57v-3.04c0-.31-.25-.563-.56-.563m0-7.636c-.307 0-.56.256-.56.57v3.04c0 .31.253.563.56.563.31 0 .56-.254.56-.565v-3.04c0-.314-.25-.568-.56-.568m-2.267 6.467c.31 0 .558-.252.558-.565 0-.313-.25-.565-.557-.565h-3c-.307 0-.557.252-.557.565 0 .313.25.565.557.565h3m7.535-1.13h-3c-.31 0-.56.252-.56.565 0 .313.25.565.56.565h3c.307 0 .556-.252.556-.565 0-.313-.25-.565-.558-.565m-10.6 3.685l-.526-.29-.287-.53c-.098-.182-.286-.296-.49-.296-.204 0-.39.113-.49.294l-.287.53-.522.29c-.18.1-.29.29-.29.497 0 .207.11.397.29.496l.524.292.288.53c.098.18.286.294.49.294.205 0 .39-.114.49-.295l.286-.53.525-.293c.18-.1.29-.288.29-.496 0-.206-.11-.396-.29-.496M6.76 96.707l.318-.175c.18-.1.29-.29.29-.494 0-.207-.11-.398-.29-.497l-.317-.176-.17-.32c-.1-.18-.287-.295-.49-.295-.205 0-.39.113-.49.294l-.174.32-.316.177c-.18.1-.29.29-.29.497 0 .207.11.397.29.496l.316.175.174.323c.1.18.285.294.49.294.203 0 .39-.11.49-.292l.173-.32"/><path d="M10.49 85.746l.67.373.368.68c.098.18.287.29.49.29.205 0 .392-.113.49-.294l.366-.68.67-.374c.18-.1.292-.288.292-.496 0-.206-.11-.396-.29-.496l-.672-.37-.367-.68c-.097-.18-.285-.295-.49-.295-.202 0-.39.114-.49.294l-.366.68-.67.37c-.18.1-.29.29-.29.496 0 .208.11.397.29.496zm1.528-.607l.11.11-.11.11-.11-.11.11-.11z"/></g><g fill="#206FAC"><path d="M24.415 126.746c-.973-.344-1.912-.51-2.87-.51-2.233 0-4.05.913-5.807 1.796-1.596.803-3.104 1.56-4.812 1.56-.548 0-1.09-.075-1.647-.23l-.13-.357c-.21-.587-.856-.888-1.43-.674-.58.218-.88.866-.67 1.45l6.41 17.79c.166.458.593.743 1.05.743.124 0 .255-.02.38-.07.58-.212.88-.86.667-1.447l-3.48-9.658c2.463-.524 4.27-2.485 6.025-4.39 1.804-1.958 3.508-3.807 5.693-3.807l.198.006c.556.027 1.045-.362 1.15-.914.104-.55-.205-1.1-.73-1.282zm-7.942 4.456c-1.66 1.8-3.23 3.51-5.173 3.773l-1.137-3.156c.253.02.506.03.763.03 2.23 0 4.05-.912 5.804-1.794.532-.27 1.053-.53 1.576-.762-.633.6-1.236 1.256-1.832 1.904zm-10.79 12.806c-.308 0-.56.252-.56.565v1.07c0 .312.252.566.56.566.308 0 .557-.258.557-.57v-1.07c0-.31-.25-.565-.557-.565m0-2.61c.308 0 .557-.255.557-.566v-1.07c0-.314-.25-.566-.558-.566-.307 0-.56.252-.56.565v1.07c0 .31.253.566.56.566m-1.846 1.87c.31 0 .557-.254.557-.565 0-.312-.25-.566-.557-.564H2.78c-.308 0-.557.252-.557.565 0 .314.25.566.558.566h1.06m3.694 0H8.59c.31 0 .556-.254.556-.565 0-.312-.248-.564-.556-.564H7.53c-.31 0-.56.252-.56.565 0 .31.25.566.56.566m-3.62.43l-1.82 1.845c-.217.22-.217.58 0 .8.11.11.253.165.395.165.143 0 .286-.054.396-.164l1.82-1.845c.22-.22.22-.578 0-.8-.215-.22-.57-.22-.79 0m4.578-4.633l-1.82 1.845c-.218.22-.218.58 0 .8.11.11.25.164.394.164.143 0 .286-.053.394-.163l1.82-1.844c.22-.223.22-.58 0-.8-.218-.22-.57-.22-.79 0m-5.602 0c-.217-.22-.57-.22-.79 0-.216.22-.216.577 0 .8l1.82 1.844c.11.11.253.164.397.164.14 0 .285-.053.395-.163.218-.22.218-.58 0-.8l-1.82-1.845m4.573 4.634c-.217-.22-.572-.22-.79 0-.217.22-.217.578 0 .8l1.82 1.845c.11.11.253.165.396.165.14 0 .285-.054.394-.164.218-.22.218-.58 0-.8l-1.82-1.844m18.913-5.282c-.22-.22-.57-.22-.79 0-.216.22-.216.58 0 .8l1.414 1.432c.11.11.252.165.394.165.144 0 .285-.055.394-.164.22-.223.22-.58 0-.8l-1.412-1.432m-4.46-4.514c-.217-.22-.57-.22-.79 0-.217.22-.217.58 0 .8l1.415 1.43c.11.112.25.167.393.167.144 0 .286-.055.395-.166.218-.22.218-.574 0-.794L21.91 133.9m.625 4.515l-1.414 1.432c-.214.22-.214.578 0 .8.11.11.256.165.4.165.142 0 .285-.056.393-.165l1.414-1.432c.218-.22.218-.58 0-.8-.217-.22-.572-.22-.788 0m3.436-2.118c.142 0 .285-.055.394-.166l1.412-1.43c.217-.22.217-.58 0-.8-.217-.22-.572-.22-.79 0l-1.413 1.436c-.22.22-.22.578 0 .798.11.112.25.167.392.167m-1.52 2.71c-.307 0-.56.253-.56.566v3.04c0 .31.253.564.56.564.31 0 .56-.256.56-.57v-3.04c0-.31-.25-.563-.56-.563m0-7.636c-.307 0-.56.256-.56.57v3.04c0 .31.253.563.56.563.31 0 .56-.254.56-.565v-3.04c0-.314-.25-.568-.56-.568m-2.267 6.467c.31 0 .558-.252.558-.565 0-.313-.25-.565-.557-.565h-3c-.307 0-.557.252-.557.565 0 .313.25.565.557.565h3m7.535-1.13h-3c-.31 0-.56.252-.56.565 0 .313.25.565.56.565h3c.307 0 .556-.252.556-.565 0-.313-.25-.565-.558-.565m-10.6 3.685l-.526-.29-.287-.53c-.098-.182-.286-.296-.49-.296-.204 0-.39.113-.49.294l-.287.53-.522.29c-.18.1-.29.29-.29.497 0 .207.11.397.29.496l.524.292.288.53c.098.18.286.294.49.294.205 0 .39-.114.49-.295l.286-.53.525-.293c.18-.1.29-.288.29-.496 0-.206-.11-.396-.29-.496m-12.36-3.687l.32-.175c.18-.1.29-.29.29-.495 0-.207-.11-.398-.29-.497l-.317-.176-.173-.32c-.097-.18-.285-.295-.49-.295-.203 0-.39.114-.49.295l-.172.32-.316.177c-.18.1-.29.29-.29.496 0 .207.11.397.29.496l.317.173.172.323c.1.18.285.293.49.293.203 0 .39-.11.49-.293l.173-.322"/><path d="M10.49 125.746l.67.373.368.68c.098.18.287.29.49.29.205 0 .392-.113.49-.294l.366-.68.67-.374c.18-.1.292-.288.292-.496 0-.206-.11-.396-.29-.496l-.672-.37-.367-.68c-.097-.18-.285-.295-.49-.295-.202 0-.39.114-.49.294l-.366.68-.67.37c-.18.1-.29.29-.29.496 0 .208.11.397.29.496zm1.528-.607l.11.11-.11.11-.11-.11.11-.11z"/></g></g></svg>