<?xml version="1.0" encoding="UTF-8" standalone="no"?>
<svg width="32px" height="232px" viewBox="0 0 32 232" version="1.1" xmlns="http://www.w3.org/2000/svg" xmlns:xlink="http://www.w3.org/1999/xlink" xmlns:sketch="http://www.bohemiancoding.com/sketch/ns">
    <!-- Generator: Sketch 3.0.4 (8054) - http://www.bohemiancoding.com/sketch -->
    <title>family-travel 2</title>
    <desc>Created with Sketch.</desc>
    <defs></defs>
    <g id="Points-of-interest" stroke="none" stroke-width="1" fill="none" fill-rule="evenodd" sketch:type="MSPage">
        <g id="Film-&amp;-Television" sketch:type="MSLayerGroup">
            <g id="Imported-Layers" transform="translate(4.000000, 3.000000)" fill="#373D43" sketch:type="MSShapeGroup">
                <path d="M23.3382857,11.5994412 C23.1657143,11.5248824 22.9660952,11.5596765 22.8289524,11.6889118 L21.0674286,13.3490882 L20.7470476,13.3490882 L20.7470476,10.9161765 C20.7470476,10.3942647 20.3257143,9.97138235 19.8053333,9.97138235 L19.752,9.97138235 C20.7260952,8.92488235 21.3238095,7.52126471 21.3238095,5.97961765 C21.3238095,2.75255882 18.7078095,0.126941176 15.4925714,0.126941176 C14.1878095,0.126941176 12.9817143,0.559 12.0091429,1.28891176 L6.15390476,2.46311765 C5.72838095,2.33770588 5.27847619,2.26926471 4.81295238,2.26926471 C2.18590476,2.26926471 0.0487619048,4.41426471 0.0487619048,7.05058824 C0.0487619048,8.19382353 0.451047619,9.24414706 1.12,10.0681176 C0.807619048,10.2214412 0.591238095,10.543 0.591238095,10.9161765 L0.591238095,19.3042353 C0.591238095,19.8269118 1.01295238,20.2497941 1.53295238,20.2497941 L9.9127619,20.2497941 L6.63352381,24.9580882 C6.48457143,25.1718235 6.53638095,25.4666176 6.74971429,25.6161176 C6.832,25.6738529 6.92571429,25.7017647 7.01904762,25.7017647 C7.16761905,25.7017647 7.31390476,25.6310294 7.40533333,25.4995 L10.6746667,20.8053529 L10.6746667,25.2287941 C10.6746667,25.4899412 10.8853333,25.7017647 11.1455238,25.7017647 C11.4057143,25.7017647 11.616381,25.4899412 11.616381,25.2287941 L11.616381,20.8053529 L14.8857143,25.4995 C14.9771429,25.6310294 15.1234286,25.7017647 15.272,25.7017647 C15.3653333,25.7017647 15.4594286,25.6738529 15.5413333,25.6161176 C15.7546667,25.4666176 15.8064762,25.1718235 15.6575238,24.9580882 L12.3782857,20.2497941 L19.8053333,20.2497941 C20.3257143,20.2497941 20.7470476,19.8269118 20.7470476,19.3042353 L20.7470476,17.0242647 L21.0674286,17.0242647 L22.8289524,18.6844412 C22.9180952,18.7689412 23.0339048,18.8129118 23.1512381,18.8129118 C23.2144762,18.8129118 23.2777143,18.8002941 23.3382857,18.7742941 C23.5100952,18.6993529 23.6217143,18.5288235 23.6217143,18.3403235 L23.6217143,12.0334118 C23.6217143,11.8449118 23.5100952,11.6743824 23.3382857,11.5994412 L23.3382857,11.5994412 Z M2.47466667,18.3598235 L2.47466667,15.3939118 L5.72266667,15.3939118 C5.98247619,15.3939118 6.19314286,15.1824706 6.19314286,14.9213235 C6.19314286,14.6605588 5.98247619,14.4491176 5.72266667,14.4491176 L2.47466667,14.4491176 L2.47466667,13.6324118 L7.7447619,13.6324118 C8.00495238,13.6324118 8.21561905,13.4209706 8.21561905,13.1602059 C8.21561905,12.8990588 8.00495238,12.6876176 7.7447619,12.6876176 L2.47466667,12.6876176 L2.47466667,11.8613529 L18.864,11.8613529 L18.864,18.3598235 L2.47466667,18.3598235 L2.47466667,18.3598235 Z M10.8121905,2.49294118 C10.1257143,3.419 9.70628571,4.55535294 9.66628571,5.78576471 L9.4552381,5.98 C9.18895238,4.81688235 8.49904762,3.81435294 7.55695238,3.146 L10.8121905,2.49294118 L10.8121905,2.49294118 Z M15.4925714,9.94194118 C13.3158095,9.94194118 11.5447619,8.16476471 11.5447619,5.97961765 C11.5447619,5.74255882 11.5668571,5.51008824 11.6068571,5.28411765 C11.6617143,4.97479412 11.752,4.67808824 11.8739048,4.39782353 C12.3184762,3.37694118 13.1798095,2.57973529 14.2407619,2.22261765 C14.528381,2.12588235 14.8308571,2.06126471 15.143619,2.03335294 C15.2586667,2.02341176 15.3748571,2.01729412 15.4925714,2.01729412 C17.6697143,2.01729412 19.4407619,3.79485294 19.4407619,5.97961765 C19.4407619,8.16476471 17.6697143,9.94194118 15.4925714,9.94194118 L15.4925714,9.94194118 Z M21.007619,15.6715 L21.007619,16.0794706 L20.2761905,16.0794706 L20.2761905,14.2942647 L21.007619,14.2942647 L21.007619,15.6715 L21.007619,15.6715 Z M9.57447619,7.15229412 L9.75009524,6.99055882 C9.94895238,8.13111765 10.4769524,9.15888235 11.2331429,9.97138235 L8.58133333,9.97138235 C9.18552381,9.18755882 9.55238095,8.21179412 9.57447619,7.15229412 L9.57447619,7.15229412 Z M4.81295238,4.15923529 C6.40152381,4.15923529 7.69371429,5.45617647 7.69371429,7.05058824 C7.69371429,7.25935294 7.6712381,7.46238235 7.62895238,7.65852941 C7.544,8.05579412 7.37752381,8.42323529 7.14742857,8.74173529 C6.91657143,9.06176471 6.62285714,9.33285294 6.28342857,9.53588235 C5.94971429,9.73547059 5.57219048,9.86929412 5.16914286,9.91938235 C5.05219048,9.93391176 4.93333333,9.94194118 4.81295238,9.94194118 C3.22438095,9.94194118 1.93219048,8.645 1.93219048,7.05058824 C1.93219048,5.45617647 3.22438095,4.15923529 4.81295238,4.15923529 L4.81295238,4.15923529 Z M22.680381,17.2483235 L21.9485714,16.5585588 C21.9485714,16.5562647 21.9493333,16.5539706 21.9493333,16.5520588 L21.9493333,13.8216765 C21.9493333,13.8193824 21.9485714,13.8170882 21.9485714,13.8151765 L22.680381,13.1254118 L22.680381,17.2483235 L22.680381,17.2483235 Z" id="Fill-1"></path>
                <path d="M15.5881905,3.80211765 C15.4499048,3.39032353 15.0057143,3.16932353 14.5958095,3.30811765 C14.1859048,3.44652941 13.9657143,3.89235294 14.103619,4.30376471 C14.2415238,4.71479412 14.6857143,4.93617647 15.096,4.79738235 C15.5059048,4.65935294 15.7260952,4.21314706 15.5881905,3.80211765" id="Fill-2"></path>
                <path d="M15.8895238,7.16185294 C15.4788571,7.30026471 15.2590476,7.74608824 15.3969524,8.1575 C15.5352381,8.56929412 15.9794286,8.79029412 16.3893333,8.6515 C16.7992381,8.51308824 17.0198095,8.06726471 16.8815238,7.65585294 C16.743619,7.24405882 16.2994286,7.02344118 15.8895238,7.16185294" id="Fill-3"></path>
                <path d="M17.1622857,4.58555882 C16.752381,4.72435294 16.5325714,5.17017647 16.6700952,5.58158824 C16.808381,5.993 17.2529524,6.214 17.6624762,6.07597059 C18.072381,5.93717647 18.2929524,5.49097059 18.1550476,5.07955882 C18.0167619,4.66852941 17.5721905,4.44714706 17.1622857,4.58555882" id="Fill-4"></path>
                <path d="M13.3230476,5.88402941 C12.9127619,6.02244118 12.6921905,6.46826471 12.8304762,6.87967647 C12.9687619,7.29108824 13.4129524,7.51247059 13.8228571,7.37367647 C14.232381,7.23526471 14.4529524,6.78944118 14.3150476,6.37764706 C14.1767619,5.96661765 13.7325714,5.74523529 13.3230476,5.88402941" id="Fill-5"></path>
                <path d="M5.08190476,6.11382353 C5.40647619,6.20788235 5.74628571,6.01976471 5.83961905,5.69361765 C5.93333333,5.36747059 5.74590476,5.02679412 5.42095238,4.93311765 C5.19657143,4.86773529 4.96533333,4.93770588 4.81295238,5.09447059 C4.7447619,5.16444118 4.69219048,5.25238235 4.6632381,5.35332353 C4.6,5.57317647 4.66514286,5.79876471 4.81295238,5.95170588 C4.88457143,6.02588235 4.976,6.08323529 5.08190476,6.11382353" id="Fill-6"></path>
                <path d="M4.20495238,9.16844118 C4.42933333,9.23344118 4.66019048,9.16347059 4.81295238,9.00708824 C4.88114286,8.93673529 4.93371429,8.84917647 4.96266667,8.74823529 C5.02590476,8.52876471 4.96114286,8.30279412 4.81295238,8.14985294 C4.74133333,8.07567647 4.64990476,8.01832353 4.544,7.98773529 C4.21904762,7.89367647 3.88,8.08179412 3.78628571,8.40794118 C3.69219048,8.73408824 3.88,9.07476471 4.20495238,9.16844118" id="Fill-7"></path>
                <path d="M6.16533333,8.08141176 C6.49028571,8.17508824 6.82933333,7.98735294 6.92304762,7.66082353 C7.0167619,7.33467647 6.82895238,6.99438235 6.50438095,6.89994118 C6.17942857,6.80626471 5.84,6.99476471 5.74628571,7.32091176 C5.65295238,7.64705882 5.84038095,7.98735294 6.16533333,8.08141176" id="Fill-8"></path>
                <path d="M3.12152381,7.20123529 C3.44647619,7.29529412 3.78628571,7.10679412 3.87961905,6.78064706 C3.97333333,6.4545 3.78552381,6.11420588 3.46095238,6.02014706 C3.13561905,5.92647059 2.79619048,6.11458824 2.70285714,6.44035294 C2.60914286,6.76688235 2.79657143,7.10717647 3.12152381,7.20123529" id="Fill-9"></path>
            </g>
            <g id="Imported-Layers-8" transform="translate(4.000000, 43.000000)" fill="#67747C" sketch:type="MSShapeGroup">
                <path d="M23.3382857,11.5994412 C23.1657143,11.5248824 22.9660952,11.5596765 22.8289524,11.6889118 L21.0674286,13.3490882 L20.7470476,13.3490882 L20.7470476,10.9161765 C20.7470476,10.3942647 20.3257143,9.97138235 19.8053333,9.97138235 L19.752,9.97138235 C20.7260952,8.92488235 21.3238095,7.52126471 21.3238095,5.97961765 C21.3238095,2.75255882 18.7078095,0.126941176 15.4925714,0.126941176 C14.1878095,0.126941176 12.9817143,0.559 12.0091429,1.28891176 L6.15390476,2.46311765 C5.72838095,2.33770588 5.27847619,2.26926471 4.81295238,2.26926471 C2.18590476,2.26926471 0.0487619048,4.41426471 0.0487619048,7.05058824 C0.0487619048,8.19382353 0.451047619,9.24414706 1.12,10.0681176 C0.807619048,10.2214412 0.591238095,10.543 0.591238095,10.9161765 L0.591238095,19.3042353 C0.591238095,19.8269118 1.01295238,20.2497941 1.53295238,20.2497941 L9.9127619,20.2497941 L6.63352381,24.9580882 C6.48457143,25.1718235 6.53638095,25.4666176 6.74971429,25.6161176 C6.832,25.6738529 6.92571429,25.7017647 7.01904762,25.7017647 C7.16761905,25.7017647 7.31390476,25.6310294 7.40533333,25.4995 L10.6746667,20.8053529 L10.6746667,25.2287941 C10.6746667,25.4899412 10.8853333,25.7017647 11.1455238,25.7017647 C11.4057143,25.7017647 11.616381,25.4899412 11.616381,25.2287941 L11.616381,20.8053529 L14.8857143,25.4995 C14.9771429,25.6310294 15.1234286,25.7017647 15.272,25.7017647 C15.3653333,25.7017647 15.4594286,25.6738529 15.5413333,25.6161176 C15.7546667,25.4666176 15.8064762,25.1718235 15.6575238,24.9580882 L12.3782857,20.2497941 L19.8053333,20.2497941 C20.3257143,20.2497941 20.7470476,19.8269118 20.7470476,19.3042353 L20.7470476,17.0242647 L21.0674286,17.0242647 L22.8289524,18.6844412 C22.9180952,18.7689412 23.0339048,18.8129118 23.1512381,18.8129118 C23.2144762,18.8129118 23.2777143,18.8002941 23.3382857,18.7742941 C23.5100952,18.6993529 23.6217143,18.5288235 23.6217143,18.3403235 L23.6217143,12.0334118 C23.6217143,11.8449118 23.5100952,11.6743824 23.3382857,11.5994412 L23.3382857,11.5994412 Z M2.47466667,18.3598235 L2.47466667,15.3939118 L5.72266667,15.3939118 C5.98247619,15.3939118 6.19314286,15.1824706 6.19314286,14.9213235 C6.19314286,14.6605588 5.98247619,14.4491176 5.72266667,14.4491176 L2.47466667,14.4491176 L2.47466667,13.6324118 L7.7447619,13.6324118 C8.00495238,13.6324118 8.21561905,13.4209706 8.21561905,13.1602059 C8.21561905,12.8990588 8.00495238,12.6876176 7.7447619,12.6876176 L2.47466667,12.6876176 L2.47466667,11.8613529 L18.864,11.8613529 L18.864,18.3598235 L2.47466667,18.3598235 L2.47466667,18.3598235 Z M10.8121905,2.49294118 C10.1257143,3.419 9.70628571,4.55535294 9.66628571,5.78576471 L9.4552381,5.98 C9.18895238,4.81688235 8.49904762,3.81435294 7.55695238,3.146 L10.8121905,2.49294118 L10.8121905,2.49294118 Z M15.4925714,9.94194118 C13.3158095,9.94194118 11.5447619,8.16476471 11.5447619,5.97961765 C11.5447619,5.74255882 11.5668571,5.51008824 11.6068571,5.28411765 C11.6617143,4.97479412 11.752,4.67808824 11.8739048,4.39782353 C12.3184762,3.37694118 13.1798095,2.57973529 14.2407619,2.22261765 C14.528381,2.12588235 14.8308571,2.06126471 15.143619,2.03335294 C15.2586667,2.02341176 15.3748571,2.01729412 15.4925714,2.01729412 C17.6697143,2.01729412 19.4407619,3.79485294 19.4407619,5.97961765 C19.4407619,8.16476471 17.6697143,9.94194118 15.4925714,9.94194118 L15.4925714,9.94194118 Z M21.007619,15.6715 L21.007619,16.0794706 L20.2761905,16.0794706 L20.2761905,14.2942647 L21.007619,14.2942647 L21.007619,15.6715 L21.007619,15.6715 Z M9.57447619,7.15229412 L9.75009524,6.99055882 C9.94895238,8.13111765 10.4769524,9.15888235 11.2331429,9.97138235 L8.58133333,9.97138235 C9.18552381,9.18755882 9.55238095,8.21179412 9.57447619,7.15229412 L9.57447619,7.15229412 Z M4.81295238,4.15923529 C6.40152381,4.15923529 7.69371429,5.45617647 7.69371429,7.05058824 C7.69371429,7.25935294 7.6712381,7.46238235 7.62895238,7.65852941 C7.544,8.05579412 7.37752381,8.42323529 7.14742857,8.74173529 C6.91657143,9.06176471 6.62285714,9.33285294 6.28342857,9.53588235 C5.94971429,9.73547059 5.57219048,9.86929412 5.16914286,9.91938235 C5.05219048,9.93391176 4.93333333,9.94194118 4.81295238,9.94194118 C3.22438095,9.94194118 1.93219048,8.645 1.93219048,7.05058824 C1.93219048,5.45617647 3.22438095,4.15923529 4.81295238,4.15923529 L4.81295238,4.15923529 Z M22.680381,17.2483235 L21.9485714,16.5585588 C21.9485714,16.5562647 21.9493333,16.5539706 21.9493333,16.5520588 L21.9493333,13.8216765 C21.9493333,13.8193824 21.9485714,13.8170882 21.9485714,13.8151765 L22.680381,13.1254118 L22.680381,17.2483235 L22.680381,17.2483235 Z" id="Fill-1"></path>
                <path d="M15.5881905,3.80211765 C15.4499048,3.39032353 15.0057143,3.16932353 14.5958095,3.30811765 C14.1859048,3.44652941 13.9657143,3.89235294 14.103619,4.30376471 C14.2415238,4.71479412 14.6857143,4.93617647 15.096,4.79738235 C15.5059048,4.65935294 15.7260952,4.21314706 15.5881905,3.80211765" id="Fill-2"></path>
                <path d="M15.8895238,7.16185294 C15.4788571,7.30026471 15.2590476,7.74608824 15.3969524,8.1575 C15.5352381,8.56929412 15.9794286,8.79029412 16.3893333,8.6515 C16.7992381,8.51308824 17.0198095,8.06726471 16.8815238,7.65585294 C16.743619,7.24405882 16.2994286,7.02344118 15.8895238,7.16185294" id="Fill-3"></path>
                <path d="M16.6700952,5.58158824 C16.808381,5.993 17.2529524,6.214 17.6624762,6.07597059 C18.072381,5.93717647 18.2929524,5.49097059 18.1550476,5.07955882 C18.0167619,4.66852941 17.5721905,4.44714706 17.1622857,4.58555882 C16.752381,4.72435294 16.5325714,5.17017647 16.6700952,5.58158824 Z" id="Fill-4"></path>
                <path d="M13.3230476,5.88402941 C12.9127619,6.02244118 12.6921905,6.46826471 12.8304762,6.87967647 C12.9687619,7.29108824 13.4129524,7.51247059 13.8228571,7.37367647 C14.232381,7.23526471 14.4529524,6.78944118 14.3150476,6.37764706 C14.1767619,5.96661765 13.7325714,5.74523529 13.3230476,5.88402941" id="Fill-5"></path>
                <path d="M5.08190476,6.11382353 C5.40647619,6.20788235 5.74628571,6.01976471 5.83961905,5.69361765 C5.93333333,5.36747059 5.74590476,5.02679412 5.42095238,4.93311765 C5.19657143,4.86773529 4.96533333,4.93770588 4.81295238,5.09447059 C4.7447619,5.16444118 4.69219048,5.25238235 4.6632381,5.35332353 C4.6,5.57317647 4.66514286,5.79876471 4.81295238,5.95170588 C4.88457143,6.02588235 4.976,6.08323529 5.08190476,6.11382353" id="Fill-6"></path>
                <path d="M4.20495238,9.16844118 C4.42933333,9.23344118 4.66019048,9.16347059 4.81295238,9.00708824 C4.88114286,8.93673529 4.93371429,8.84917647 4.96266667,8.74823529 C5.02590476,8.52876471 4.96114286,8.30279412 4.81295238,8.14985294 C4.74133333,8.07567647 4.64990476,8.01832353 4.544,7.98773529 C4.21904762,7.89367647 3.88,8.08179412 3.78628571,8.40794118 C3.69219048,8.73408824 3.88,9.07476471 4.20495238,9.16844118" id="Fill-7"></path>
                <path d="M6.16533333,8.08141176 C6.49028571,8.17508824 6.82933333,7.98735294 6.92304762,7.66082353 C7.0167619,7.33467647 6.82895238,6.99438235 6.50438095,6.89994118 C6.17942857,6.80626471 5.84,6.99476471 5.74628571,7.32091176 C5.65295238,7.64705882 5.84038095,7.98735294 6.16533333,8.08141176" id="Fill-8"></path>
                <path d="M3.12152381,7.20123529 C3.44647619,7.29529412 3.78628571,7.10679412 3.87961905,6.78064706 C3.97333333,6.4545 3.78552381,6.11420588 3.46095238,6.02014706 C3.13561905,5.92647059 2.79619048,6.11458824 2.70285714,6.44035294 C2.60914286,6.76688235 2.79657143,7.10717647 3.12152381,7.20123529" id="Fill-9"></path>
            </g>
            <g id="Imported-Layers-10" transform="translate(4.000000, 123.000000)" fill="#206FAC" sketch:type="MSShapeGroup">
                <path d="M23.3382857,11.5994412 C23.1657143,11.5248824 22.9660952,11.5596765 22.8289524,11.6889118 L21.0674286,13.3490882 L20.7470476,13.3490882 L20.7470476,10.9161765 C20.7470476,10.3942647 20.3257143,9.97138235 19.8053333,9.97138235 L19.752,9.97138235 C20.7260952,8.92488235 21.3238095,7.52126471 21.3238095,5.97961765 C21.3238095,2.75255882 18.7078095,0.126941176 15.4925714,0.126941176 C14.1878095,0.126941176 12.9817143,0.559 12.0091429,1.28891176 L6.15390476,2.46311765 C5.72838095,2.33770588 5.27847619,2.26926471 4.81295238,2.26926471 C2.18590476,2.26926471 0.0487619048,4.41426471 0.0487619048,7.05058824 C0.0487619048,8.19382353 0.451047619,9.24414706 1.12,10.0681176 C0.807619048,10.2214412 0.591238095,10.543 0.591238095,10.9161765 L0.591238095,19.3042353 C0.591238095,19.8269118 1.01295238,20.2497941 1.53295238,20.2497941 L9.9127619,20.2497941 L6.63352381,24.9580882 C6.48457143,25.1718235 6.53638095,25.4666176 6.74971429,25.6161176 C6.832,25.6738529 6.92571429,25.7017647 7.01904762,25.7017647 C7.16761905,25.7017647 7.31390476,25.6310294 7.40533333,25.4995 L10.6746667,20.8053529 L10.6746667,25.2287941 C10.6746667,25.4899412 10.8853333,25.7017647 11.1455238,25.7017647 C11.4057143,25.7017647 11.616381,25.4899412 11.616381,25.2287941 L11.616381,20.8053529 L14.8857143,25.4995 C14.9771429,25.6310294 15.1234286,25.7017647 15.272,25.7017647 C15.3653333,25.7017647 15.4594286,25.6738529 15.5413333,25.6161176 C15.7546667,25.4666176 15.8064762,25.1718235 15.6575238,24.9580882 L12.3782857,20.2497941 L19.8053333,20.2497941 C20.3257143,20.2497941 20.7470476,19.8269118 20.7470476,19.3042353 L20.7470476,17.0242647 L21.0674286,17.0242647 L22.8289524,18.6844412 C22.9180952,18.7689412 23.0339048,18.8129118 23.1512381,18.8129118 C23.2144762,18.8129118 23.2777143,18.8002941 23.3382857,18.7742941 C23.5100952,18.6993529 23.6217143,18.5288235 23.6217143,18.3403235 L23.6217143,12.0334118 C23.6217143,11.8449118 23.5100952,11.6743824 23.3382857,11.5994412 L23.3382857,11.5994412 Z M2.47466667,18.3598235 L2.47466667,15.3939118 L5.72266667,15.3939118 C5.98247619,15.3939118 6.19314286,15.1824706 6.19314286,14.9213235 C6.19314286,14.6605588 5.98247619,14.4491176 5.72266667,14.4491176 L2.47466667,14.4491176 L2.47466667,13.6324118 L7.7447619,13.6324118 C8.00495238,13.6324118 8.21561905,13.4209706 8.21561905,13.1602059 C8.21561905,12.8990588 8.00495238,12.6876176 7.7447619,12.6876176 L2.47466667,12.6876176 L2.47466667,11.8613529 L18.864,11.8613529 L18.864,18.3598235 L2.47466667,18.3598235 L2.47466667,18.3598235 Z M10.8121905,2.49294118 C10.1257143,3.419 9.70628571,4.55535294 9.66628571,5.78576471 L9.4552381,5.98 C9.18895238,4.81688235 8.49904762,3.81435294 7.55695238,3.146 L10.8121905,2.49294118 L10.8121905,2.49294118 Z M15.4925714,9.94194118 C13.3158095,9.94194118 11.5447619,8.16476471 11.5447619,5.97961765 C11.5447619,5.74255882 11.5668571,5.51008824 11.6068571,5.28411765 C11.6617143,4.97479412 11.752,4.67808824 11.8739048,4.39782353 C12.3184762,3.37694118 13.1798095,2.57973529 14.2407619,2.22261765 C14.528381,2.12588235 14.8308571,2.06126471 15.143619,2.03335294 C15.2586667,2.02341176 15.3748571,2.01729412 15.4925714,2.01729412 C17.6697143,2.01729412 19.4407619,3.79485294 19.4407619,5.97961765 C19.4407619,8.16476471 17.6697143,9.94194118 15.4925714,9.94194118 L15.4925714,9.94194118 Z M21.007619,15.6715 L21.007619,16.0794706 L20.2761905,16.0794706 L20.2761905,14.2942647 L21.007619,14.2942647 L21.007619,15.6715 L21.007619,15.6715 Z M9.57447619,7.15229412 L9.75009524,6.99055882 C9.94895238,8.13111765 10.4769524,9.15888235 11.2331429,9.97138235 L8.58133333,9.97138235 C9.18552381,9.18755882 9.55238095,8.21179412 9.57447619,7.15229412 L9.57447619,7.15229412 Z M4.81295238,4.15923529 C6.40152381,4.15923529 7.69371429,5.45617647 7.69371429,7.05058824 C7.69371429,7.25935294 7.6712381,7.46238235 7.62895238,7.65852941 C7.544,8.05579412 7.37752381,8.42323529 7.14742857,8.74173529 C6.91657143,9.06176471 6.62285714,9.33285294 6.28342857,9.53588235 C5.94971429,9.73547059 5.57219048,9.86929412 5.16914286,9.91938235 C5.05219048,9.93391176 4.93333333,9.94194118 4.81295238,9.94194118 C3.22438095,9.94194118 1.93219048,8.645 1.93219048,7.05058824 C1.93219048,5.45617647 3.22438095,4.15923529 4.81295238,4.15923529 L4.81295238,4.15923529 Z M22.680381,17.2483235 L21.9485714,16.5585588 C21.9485714,16.5562647 21.9493333,16.5539706 21.9493333,16.5520588 L21.9493333,13.8216765 C21.9493333,13.8193824 21.9485714,13.8170882 21.9485714,13.8151765 L22.680381,13.1254118 L22.680381,17.2483235 L22.680381,17.2483235 Z" id="Fill-1"></path>
                <path d="M15.5881905,3.80211765 C15.4499048,3.39032353 15.0057143,3.16932353 14.5958095,3.30811765 C14.1859048,3.44652941 13.9657143,3.89235294 14.103619,4.30376471 C14.2415238,4.71479412 14.6857143,4.93617647 15.096,4.79738235 C15.5059048,4.65935294 15.7260952,4.21314706 15.5881905,3.80211765" id="Fill-2"></path>
                <path d="M15.8895238,7.16185294 C15.4788571,7.30026471 15.2590476,7.74608824 15.3969524,8.1575 C15.5352381,8.56929412 15.9794286,8.79029412 16.3893333,8.6515 C16.7992381,8.51308824 17.0198095,8.06726471 16.8815238,7.65585294 C16.743619,7.24405882 16.2994286,7.02344118 15.8895238,7.16185294" id="Fill-3"></path>
                <path d="M16.6700952,5.58158824 C16.808381,5.993 17.2529524,6.214 17.6624762,6.07597059 C18.072381,5.93717647 18.2929524,5.49097059 18.1550476,5.07955882 C18.0167619,4.66852941 17.5721905,4.44714706 17.1622857,4.58555882 C16.752381,4.72435294 16.5325714,5.17017647 16.6700952,5.58158824 Z" id="Fill-4"></path>
                <path d="M13.3230476,5.88402941 C12.9127619,6.02244118 12.6921905,6.46826471 12.8304762,6.87967647 C12.9687619,7.29108824 13.4129524,7.51247059 13.8228571,7.37367647 C14.232381,7.23526471 14.4529524,6.78944118 14.3150476,6.37764706 C14.1767619,5.96661765 13.7325714,5.74523529 13.3230476,5.88402941" id="Fill-5"></path>
                <path d="M5.08190476,6.11382353 C5.40647619,6.20788235 5.74628571,6.01976471 5.83961905,5.69361765 C5.93333333,5.36747059 5.74590476,5.02679412 5.42095238,4.93311765 C5.19657143,4.86773529 4.96533333,4.93770588 4.81295238,5.09447059 C4.7447619,5.16444118 4.69219048,5.25238235 4.6632381,5.35332353 C4.6,5.57317647 4.66514286,5.79876471 4.81295238,5.95170588 C4.88457143,6.02588235 4.976,6.08323529 5.08190476,6.11382353" id="Fill-6"></path>
                <path d="M4.20495238,9.16844118 C4.42933333,9.23344118 4.66019048,9.16347059 4.81295238,9.00708824 C4.88114286,8.93673529 4.93371429,8.84917647 4.96266667,8.74823529 C5.02590476,8.52876471 4.96114286,8.30279412 4.81295238,8.14985294 C4.74133333,8.07567647 4.64990476,8.01832353 4.544,7.98773529 C4.21904762,7.89367647 3.88,8.08179412 3.78628571,8.40794118 C3.69219048,8.73408824 3.88,9.07476471 4.20495238,9.16844118" id="Fill-7"></path>
                <path d="M6.16533333,8.08141176 C6.49028571,8.17508824 6.82933333,7.98735294 6.92304762,7.66082353 C7.0167619,7.33467647 6.82895238,6.99438235 6.50438095,6.89994118 C6.17942857,6.80626471 5.84,6.99476471 5.74628571,7.32091176 C5.65295238,7.64705882 5.84038095,7.98735294 6.16533333,8.08141176" id="Fill-8"></path>
                <path d="M3.12152381,7.20123529 C3.44647619,7.29529412 3.78628571,7.10679412 3.87961905,6.78064706 C3.97333333,6.4545 3.78552381,6.11420588 3.46095238,6.02014706 C3.13561905,5.92647059 2.79619048,6.11458824 2.70285714,6.44035294 C2.60914286,6.76688235 2.79657143,7.10717647 3.12152381,7.20123529" id="Fill-9"></path>
            </g>
            <g id="Imported-Layers-9" transform="translate(4.000000, 83.000000)" fill="#FFFFFF" sketch:type="MSShapeGroup">
                <path d="M23.3382857,11.5994412 C23.1657143,11.5248824 22.9660952,11.5596765 22.8289524,11.6889118 L21.0674286,13.3490882 L20.7470476,13.3490882 L20.7470476,10.9161765 C20.7470476,10.3942647 20.3257143,9.97138235 19.8053333,9.97138235 L19.752,9.97138235 C20.7260952,8.92488235 21.3238095,7.52126471 21.3238095,5.97961765 C21.3238095,2.75255882 18.7078095,0.126941176 15.4925714,0.126941176 C14.1878095,0.126941176 12.9817143,0.559 12.0091429,1.28891176 L6.15390476,2.46311765 C5.72838095,2.33770588 5.27847619,2.26926471 4.81295238,2.26926471 C2.18590476,2.26926471 0.0487619048,4.41426471 0.0487619048,7.05058824 C0.0487619048,8.19382353 0.451047619,9.24414706 1.12,10.0681176 C0.807619048,10.2214412 0.591238095,10.543 0.591238095,10.9161765 L0.591238095,19.3042353 C0.591238095,19.8269118 1.01295238,20.2497941 1.53295238,20.2497941 L9.9127619,20.2497941 L6.63352381,24.9580882 C6.48457143,25.1718235 6.53638095,25.4666176 6.74971429,25.6161176 C6.832,25.6738529 6.92571429,25.7017647 7.01904762,25.7017647 C7.16761905,25.7017647 7.31390476,25.6310294 7.40533333,25.4995 L10.6746667,20.8053529 L10.6746667,25.2287941 C10.6746667,25.4899412 10.8853333,25.7017647 11.1455238,25.7017647 C11.4057143,25.7017647 11.616381,25.4899412 11.616381,25.2287941 L11.616381,20.8053529 L14.8857143,25.4995 C14.9771429,25.6310294 15.1234286,25.7017647 15.272,25.7017647 C15.3653333,25.7017647 15.4594286,25.6738529 15.5413333,25.6161176 C15.7546667,25.4666176 15.8064762,25.1718235 15.6575238,24.9580882 L12.3782857,20.2497941 L19.8053333,20.2497941 C20.3257143,20.2497941 20.7470476,19.8269118 20.7470476,19.3042353 L20.7470476,17.0242647 L21.0674286,17.0242647 L22.8289524,18.6844412 C22.9180952,18.7689412 23.0339048,18.8129118 23.1512381,18.8129118 C23.2144762,18.8129118 23.2777143,18.8002941 23.3382857,18.7742941 C23.5100952,18.6993529 23.6217143,18.5288235 23.6217143,18.3403235 L23.6217143,12.0334118 C23.6217143,11.8449118 23.5100952,11.6743824 23.3382857,11.5994412 L23.3382857,11.5994412 Z M2.47466667,18.3598235 L2.47466667,15.3939118 L5.72266667,15.3939118 C5.98247619,15.3939118 6.19314286,15.1824706 6.19314286,14.9213235 C6.19314286,14.6605588 5.98247619,14.4491176 5.72266667,14.4491176 L2.47466667,14.4491176 L2.47466667,13.6324118 L7.7447619,13.6324118 C8.00495238,13.6324118 8.21561905,13.4209706 8.21561905,13.1602059 C8.21561905,12.8990588 8.00495238,12.6876176 7.7447619,12.6876176 L2.47466667,12.6876176 L2.47466667,11.8613529 L18.864,11.8613529 L18.864,18.3598235 L2.47466667,18.3598235 L2.47466667,18.3598235 Z M10.8121905,2.49294118 C10.1257143,3.419 9.70628571,4.55535294 9.66628571,5.78576471 L9.4552381,5.98 C9.18895238,4.81688235 8.49904762,3.81435294 7.55695238,3.146 L10.8121905,2.49294118 L10.8121905,2.49294118 Z M15.4925714,9.94194118 C13.3158095,9.94194118 11.5447619,8.16476471 11.5447619,5.97961765 C11.5447619,5.74255882 11.5668571,5.51008824 11.6068571,5.28411765 C11.6617143,4.97479412 11.752,4.67808824 11.8739048,4.39782353 C12.3184762,3.37694118 13.1798095,2.57973529 14.2407619,2.22261765 C14.528381,2.12588235 14.8308571,2.06126471 15.143619,2.03335294 C15.2586667,2.02341176 15.3748571,2.01729412 15.4925714,2.01729412 C17.6697143,2.01729412 19.4407619,3.79485294 19.4407619,5.97961765 C19.4407619,8.16476471 17.6697143,9.94194118 15.4925714,9.94194118 L15.4925714,9.94194118 Z M21.007619,15.6715 L21.007619,16.0794706 L20.2761905,16.0794706 L20.2761905,14.2942647 L21.007619,14.2942647 L21.007619,15.6715 L21.007619,15.6715 Z M9.57447619,7.15229412 L9.75009524,6.99055882 C9.94895238,8.13111765 10.4769524,9.15888235 11.2331429,9.97138235 L8.58133333,9.97138235 C9.18552381,9.18755882 9.55238095,8.21179412 9.57447619,7.15229412 L9.57447619,7.15229412 Z M4.81295238,4.15923529 C6.40152381,4.15923529 7.69371429,5.45617647 7.69371429,7.05058824 C7.69371429,7.25935294 7.6712381,7.46238235 7.62895238,7.65852941 C7.544,8.05579412 7.37752381,8.42323529 7.14742857,8.74173529 C6.91657143,9.06176471 6.62285714,9.33285294 6.28342857,9.53588235 C5.94971429,9.73547059 5.57219048,9.86929412 5.16914286,9.91938235 C5.05219048,9.93391176 4.93333333,9.94194118 4.81295238,9.94194118 C3.22438095,9.94194118 1.93219048,8.645 1.93219048,7.05058824 C1.93219048,5.45617647 3.22438095,4.15923529 4.81295238,4.15923529 L4.81295238,4.15923529 Z M22.680381,17.2483235 L21.9485714,16.5585588 C21.9485714,16.5562647 21.9493333,16.5539706 21.9493333,16.5520588 L21.9493333,13.8216765 C21.9493333,13.8193824 21.9485714,13.8170882 21.9485714,13.8151765 L22.680381,13.1254118 L22.680381,17.2483235 L22.680381,17.2483235 Z" id="Fill-1"></path>
                <path d="M15.5881905,3.80211765 C15.4499048,3.39032353 15.0057143,3.16932353 14.5958095,3.30811765 C14.1859048,3.44652941 13.9657143,3.89235294 14.103619,4.30376471 C14.2415238,4.71479412 14.6857143,4.93617647 15.096,4.79738235 C15.5059048,4.65935294 15.7260952,4.21314706 15.5881905,3.80211765" id="Fill-2"></path>
                <path d="M15.8895238,7.16185294 C15.4788571,7.30026471 15.2590476,7.74608824 15.3969524,8.1575 C15.5352381,8.56929412 15.9794286,8.79029412 16.3893333,8.6515 C16.7992381,8.51308824 17.0198095,8.06726471 16.8815238,7.65585294 C16.743619,7.24405882 16.2994286,7.02344118 15.8895238,7.16185294" id="Fill-3"></path>
                <path d="M16.6700952,5.58158824 C16.808381,5.993 17.2529524,6.214 17.6624762,6.07597059 C18.072381,5.93717647 18.2929524,5.49097059 18.1550476,5.07955882 C18.0167619,4.66852941 17.5721905,4.44714706 17.1622857,4.58555882 L17.1622857,4.58555882 C16.752381,4.72435294 16.5325714,5.17017647 16.6700952,5.58158824 Z" id="Fill-4"></path>
                <path d="M13.3230476,5.88402941 C12.9127619,6.02244118 12.6921905,6.46826471 12.8304762,6.87967647 C12.9687619,7.29108824 13.4129524,7.51247059 13.8228571,7.37367647 C14.232381,7.23526471 14.4529524,6.78944118 14.3150476,6.37764706 C14.1767619,5.96661765 13.7325714,5.74523529 13.3230476,5.88402941" id="Fill-5"></path>
                <path d="M5.08190476,6.11382353 C5.40647619,6.20788235 5.74628571,6.01976471 5.83961905,5.69361765 C5.93333333,5.36747059 5.74590476,5.02679412 5.42095238,4.93311765 C5.19657143,4.86773529 4.96533333,4.93770588 4.81295238,5.09447059 C4.7447619,5.16444118 4.69219048,5.25238235 4.6632381,5.35332353 C4.6,5.57317647 4.66514286,5.79876471 4.81295238,5.95170588 C4.88457143,6.02588235 4.976,6.08323529 5.08190476,6.11382353" id="Fill-6"></path>
                <path d="M4.20495238,9.16844118 C4.42933333,9.23344118 4.66019048,9.16347059 4.81295238,9.00708824 C4.88114286,8.93673529 4.93371429,8.84917647 4.96266667,8.74823529 C5.02590476,8.52876471 4.96114286,8.30279412 4.81295238,8.14985294 C4.74133333,8.07567647 4.64990476,8.01832353 4.544,7.98773529 C4.21904762,7.89367647 3.88,8.08179412 3.78628571,8.40794118 C3.69219048,8.73408824 3.88,9.07476471 4.20495238,9.16844118" id="Fill-7"></path>
                <path d="M6.16533333,8.08141176 C6.49028571,8.17508824 6.82933333,7.98735294 6.92304762,7.66082353 C7.0167619,7.33467647 6.82895238,6.99438235 6.50438095,6.89994118 C6.17942857,6.80626471 5.84,6.99476471 5.74628571,7.32091176 C5.65295238,7.64705882 5.84038095,7.98735294 6.16533333,8.08141176" id="Fill-8"></path>
                <path d="M3.12152381,7.20123529 C3.44647619,7.29529412 3.78628571,7.10679412 3.87961905,6.78064706 C3.97333333,6.4545 3.78552381,6.11420588 3.46095238,6.02014706 C3.13561905,5.92647059 2.79619048,6.11458824 2.70285714,6.44035294 C2.60914286,6.76688235 2.79657143,7.10717647 3.12152381,7.20123529" id="Fill-9"></path>
            </g>
        </g>
    </g>
</svg>