<svg width="32" height="232" viewBox="0 0 32 232" xmlns="http://www.w3.org/2000/svg"><title>family-travel 2</title><desc>Created with Sketch.</desc><g fill="none"><g fill="#373D43"><path d="M27.338 14.6c-.173-.076-.372-.04-.51.088l-1.76 1.66h-.32v-2.433c0-.522-.422-.945-.943-.945h-.053c.974-1.046 1.572-2.45 1.572-3.992 0-3.227-2.616-5.853-5.83-5.853-1.306 0-2.512.432-3.484 1.162L10.155 5.46c-.426-.124-.875-.193-1.34-.193-2.628 0-4.765 2.145-4.765 4.78 0 1.144.402 2.195 1.07 3.02-.31.152-.528.474-.528.847v8.388c0 .523.422.946.942.946h8.38l-3.28 4.708c-.148.214-.096.51.117.658.083.058.177.086.27.086.15 0 .295-.07.386-.202l3.27-4.694v4.423c0 .26.21.473.47.473s.47-.212.47-.473v-4.423l3.27 4.694c.09.132.238.202.386.202.093 0 .187-.028.27-.086.212-.15.264-.444.115-.658l-3.28-4.708h7.428c.52 0 .942-.423.942-.946v-2.28h.32l1.762 1.66c.088.085.204.128.32.128l.188-.04c.172-.074.283-.244.283-.433V15.03c0-.188-.11-.36-.282-.434zM6.474 21.36v-2.967h3.248c.26 0 .47-.21.47-.473 0-.26-.21-.472-.47-.472H6.474v-.817h5.27c.26 0 .47-.21.47-.47s-.21-.474-.47-.474h-5.27v-.826h16.39v6.498H6.473zM14.812 5.49c-.686.926-1.106 2.062-1.146 3.293l-.21.194c-.267-1.164-.957-2.167-1.9-2.835l3.256-.653zm4.68 7.45c-2.177 0-3.948-1.778-3.948-3.963 0-.238.022-.47.062-.697.055-.31.145-.606.267-.886.445-1.02 1.306-1.818 2.367-2.175.288-.097.59-.16.903-.19l.35-.015c2.176 0 3.947 1.778 3.947 3.962s-1.77 3.96-3.948 3.96zm5.515 5.73v.407h-.73v-1.786h.73v1.377zm-11.433-8.52l.176-.162c.2 1.14.727 2.168 1.483 2.98H12.58c.605-.783.972-1.76.994-2.818zM8.812 7.16c1.59 0 2.88 1.296 2.88 2.89 0 .21-.02.412-.064.608-.085.397-.25.765-.482 1.083-.23.32-.525.592-.864.795-.334.2-.71.333-1.114.383l-.356.023c-1.59 0-2.88-1.296-2.88-2.89s1.29-2.89 2.88-2.89zM26.68 20.247l-.733-.69v-2.743l.732-.69v4.123z"/><path d="M19.588 6.802c-.138-.412-.582-.633-.992-.494-.41.138-.63.584-.492.996.138.41.582.632.992.494.41-.138.63-.584.492-.995"/><path d="M19.89 10.162c-.41.138-.63.584-.493.996.138.412.582.633.992.494.41-.138.63-.584.49-.996-.137-.412-.58-.632-.99-.494"/><path d="M21.162 7.586c-.41.14-.63.585-.492.996.138.41.583.632.992.494.41-.14.63-.585.493-.996-.138-.41-.583-.632-.993-.494"/><path d="M17.323 8.884c-.41.138-.63.584-.493.996.138.41.582.633.992.494.41-.138.63-.584.492-.996-.138-.41-.582-.632-.992-.494"/><path d="M9.082 9.114c.325.094.664-.094.758-.42.094-.326-.094-.667-.42-.76-.223-.066-.455.004-.607.16-.068.07-.12.158-.15.26-.063.22.002.444.15.597.072.075.163.133.27.163"/><path d="M8.205 12.168c.224.065.455-.005.608-.16.068-.07.12-.16.15-.26.063-.22-.002-.445-.15-.598-.072-.074-.163-.132-.27-.162-.324-.094-.663.094-.757.42-.094.326.094.667.42.76"/><path d="M10.165 11.08c.325.095.664-.093.758-.42.094-.326-.094-.666-.42-.76-.324-.095-.663.094-.757.42-.093.326.094.666.42.76"/><path d="M7.122 10.2c.325.095.665-.093.758-.42.094-.326-.094-.666-.42-.76-.324-.094-.664.094-.757.42-.094.327.094.667.42.76"/></g><g fill="#67747C"><path d="M27.338 54.6c-.173-.076-.372-.04-.51.088l-1.76 1.66h-.32v-2.433c0-.522-.422-.945-.943-.945h-.053c.974-1.046 1.572-2.45 1.572-3.992 0-3.227-2.616-5.853-5.83-5.853-1.306 0-2.512.432-3.484 1.162l-5.855 1.174c-.426-.124-.875-.193-1.34-.193-2.628 0-4.765 2.145-4.765 4.78 0 1.144.402 2.195 1.07 3.02-.31.152-.528.474-.528.847v8.388c0 .523.422.946.942.946h8.38l-3.28 4.708c-.148.214-.096.51.117.658.083.058.177.086.27.086.15 0 .295-.07.386-.202l3.27-4.694v4.423c0 .26.21.473.47.473s.47-.212.47-.473v-4.423l3.27 4.694c.09.132.238.202.386.202.093 0 .187-.028.27-.086.212-.15.264-.444.115-.658l-3.28-4.708h7.428c.52 0 .942-.423.942-.946v-2.28h.32l1.762 1.66c.088.085.204.128.32.128l.188-.04c.172-.074.283-.244.283-.433V55.03c0-.188-.11-.36-.282-.434zM6.474 61.36v-2.967h3.248c.26 0 .47-.21.47-.473 0-.26-.21-.472-.47-.472H6.474v-.817h5.27c.26 0 .47-.21.47-.47s-.21-.474-.47-.474h-5.27v-.826h16.39v6.498H6.473zm8.338-15.868c-.686.926-1.106 2.062-1.146 3.293l-.21.194c-.267-1.164-.957-2.167-1.9-2.835l3.256-.653zm4.68 7.45c-2.177 0-3.948-1.778-3.948-3.963 0-.238.022-.47.062-.697.055-.31.145-.606.267-.886.445-1.02 1.306-1.818 2.367-2.175.288-.097.59-.16.903-.19l.35-.015c2.176 0 3.947 1.778 3.947 3.962s-1.77 3.96-3.948 3.96zm5.515 5.73v.407h-.73v-1.786h.73v1.377zm-11.433-8.52l.176-.162c.2 1.14.727 2.168 1.483 2.98H12.58c.605-.783.972-1.76.994-2.818zM8.812 47.16c1.59 0 2.88 1.296 2.88 2.89 0 .21-.02.412-.064.608-.085.397-.25.765-.482 1.083-.23.32-.525.592-.864.795-.334.2-.71.333-1.114.383l-.356.023c-1.59 0-2.88-1.296-2.88-2.89s1.29-2.89 2.88-2.89zM26.68 60.247l-.733-.69v-2.743l.732-.69v4.123zM19.588 46.802c-.138-.412-.582-.633-.992-.494-.41.138-.63.584-.492.996.138.41.582.632.992.494.41-.138.63-.584.492-.995M19.89 50.162c-.41.138-.63.584-.493.996.138.412.582.633.992.494.41-.138.63-.584.49-.996-.137-.412-.58-.632-.99-.494"/><path d="M20.67 48.582c.138.41.583.632.992.494.41-.14.63-.585.493-.996-.138-.41-.583-.632-.993-.494-.41.14-.63.585-.492.996zM17.323 48.884c-.41.138-.63.584-.493.996.138.41.582.633.992.494.41-.138.63-.584.492-.996-.138-.41-.582-.632-.992-.494M9.082 49.114c.325.094.664-.094.758-.42.094-.326-.094-.667-.42-.76-.223-.066-.455.004-.607.16-.068.07-.12.158-.15.26-.063.22.002.444.15.597.072.075.163.133.27.163M8.205 52.168c.224.065.455-.005.608-.16.068-.07.12-.16.15-.26.063-.22-.002-.445-.15-.598-.072-.074-.163-.132-.27-.162-.324-.094-.663.094-.757.42-.094.326.094.667.42.76M10.165 51.08c.325.095.664-.093.758-.42.094-.326-.094-.666-.42-.76-.324-.095-.663.094-.757.42-.093.326.094.666.42.76M7.122 50.2c.325.095.665-.093.758-.42.094-.326-.094-.666-.42-.76-.324-.094-.664.094-.757.42-.094.327.094.667.42.76"/></g><g fill="#206FAC"><path d="M27.338 134.6c-.173-.076-.372-.04-.51.088l-1.76 1.66h-.32v-2.433c0-.522-.422-.945-.943-.945h-.053c.974-1.046 1.572-2.45 1.572-3.992 0-3.227-2.616-5.853-5.83-5.853-1.306 0-2.512.432-3.484 1.162l-5.855 1.174c-.426-.124-.875-.193-1.34-.193-2.628 0-4.765 2.145-4.765 4.78 0 1.144.402 2.195 1.07 3.02-.31.152-.528.474-.528.847v8.388c0 .523.422.946.942.946h8.38l-3.28 4.708c-.148.214-.096.51.117.658.083.058.177.086.27.086.15 0 .295-.07.386-.202l3.27-4.694v4.423c0 .26.21.473.47.473s.47-.212.47-.473v-4.423l3.27 4.694c.09.132.238.202.386.202.093 0 .187-.028.27-.086.212-.15.264-.444.115-.658l-3.28-4.708h7.428c.52 0 .942-.423.942-.946v-2.28h.32l1.762 1.66c.088.085.204.128.32.128l.188-.04c.172-.074.283-.244.283-.433v-6.307c0-.188-.11-.36-.282-.434zm-20.864 6.76v-2.967h3.248c.26 0 .47-.21.47-.473 0-.26-.21-.472-.47-.472H6.474v-.817h5.27c.26 0 .47-.21.47-.47s-.21-.474-.47-.474h-5.27v-.826h16.39v6.498H6.473zm8.338-15.868c-.686.926-1.106 2.062-1.146 3.293l-.21.194c-.267-1.164-.957-2.167-1.9-2.835l3.256-.653zm4.68 7.45c-2.177 0-3.948-1.778-3.948-3.963 0-.238.022-.47.062-.697.055-.31.145-.606.267-.886.445-1.02 1.306-1.818 2.367-2.175.288-.097.59-.16.903-.19l.35-.015c2.176 0 3.947 1.778 3.947 3.962s-1.77 3.96-3.948 3.96zm5.515 5.73v.407h-.73v-1.786h.73v1.377zm-11.433-8.52l.176-.162c.2 1.14.727 2.168 1.483 2.98H12.58c.605-.783.972-1.76.994-2.818zm-4.762-2.993c1.59 0 2.88 1.296 2.88 2.89 0 .21-.02.412-.064.608-.085.397-.25.765-.482 1.083-.23.32-.525.592-.864.795-.334.2-.71.333-1.114.383l-.356.023c-1.59 0-2.88-1.296-2.88-2.89s1.29-2.89 2.88-2.89zm17.867 13.088l-.733-.69v-2.743l.732-.69v4.123zm-7.092-13.446c-.138-.412-.582-.633-.992-.494-.41.138-.63.584-.492.996.138.41.582.632.992.494.41-.138.63-.584.492-.995m.302 3.36c-.41.137-.63.583-.493.995.138.412.582.633.992.494.41-.138.63-.584.49-.996-.137-.412-.58-.632-.99-.494M20.67 128.582c.138.41.583.632.992.494.41-.14.63-.585.493-.996-.138-.41-.583-.632-.993-.494-.41.14-.63.585-.492.996zm-3.347.302c-.41.138-.63.584-.493.996.138.41.582.633.992.494.41-.138.63-.584.492-.996-.138-.41-.582-.632-.992-.494m-8.24.23c.325.094.664-.094.758-.42.094-.326-.094-.667-.42-.76-.223-.066-.455.004-.607.16-.068.07-.12.158-.15.26-.063.22.002.444.15.597.072.075.163.133.27.163m-.878 3.055c.224.065.455-.005.608-.16.068-.07.12-.16.15-.26.063-.22-.002-.445-.15-.598-.072-.074-.163-.132-.27-.162-.324-.094-.663.094-.757.42-.094.326.094.667.42.76m1.96-1.087c.324.095.663-.093.757-.42.094-.326-.094-.666-.42-.76-.324-.095-.663.094-.757.42-.093.326.094.666.42.76m-3.044-.88c.325.095.665-.093.758-.42.094-.326-.094-.666-.42-.76-.324-.094-.664.094-.757.42-.094.327.094.667.42.76"/></g><path d="M27.338 94.6c-.173-.076-.372-.04-.51.088l-1.76 1.66h-.32v-2.433c0-.522-.422-.945-.943-.945h-.053c.974-1.046 1.572-2.45 1.572-3.992 0-3.227-2.616-5.853-5.83-5.853-1.306 0-2.512.432-3.484 1.162l-5.855 1.174c-.426-.124-.875-.193-1.34-.193-2.628 0-4.765 2.145-4.765 4.78 0 1.144.402 2.195 1.07 3.02-.31.152-.528.474-.528.847v8.388c0 .523.422.946.942.946h8.38l-3.28 4.708c-.148.214-.096.51.117.658.083.058.177.086.27.086.15 0 .295-.07.386-.202l3.27-4.694v4.423c0 .26.21.473.47.473s.47-.212.47-.473v-4.423l3.27 4.694c.09.132.238.202.386.202.093 0 .187-.028.27-.086.212-.15.264-.444.115-.658l-3.28-4.708h7.428c.52 0 .942-.423.942-.946v-2.28h.32l1.762 1.66c.088.085.204.128.32.128l.188-.04c.172-.074.283-.244.283-.433V95.03c0-.188-.11-.36-.282-.434zm-20.864 6.76v-2.967h3.248c.26 0 .47-.21.47-.473 0-.26-.21-.472-.47-.472H6.474v-.817h5.27c.26 0 .47-.21.47-.47s-.21-.474-.47-.474h-5.27v-.826h16.39v6.498H6.473zm8.338-15.868c-.686.926-1.106 2.062-1.146 3.293l-.21.194c-.267-1.164-.957-2.167-1.9-2.835l3.256-.653zm4.68 7.45c-2.177 0-3.948-1.778-3.948-3.963 0-.238.022-.47.062-.697.055-.31.145-.606.267-.886.445-1.02 1.306-1.818 2.367-2.175.288-.097.59-.16.903-.19l.35-.015c2.176 0 3.947 1.778 3.947 3.962s-1.77 3.96-3.948 3.96zm5.515 5.73v.407h-.73v-1.786h.73v1.377zm-11.433-8.52l.176-.162c.2 1.14.727 2.168 1.483 2.98H12.58c.605-.783.972-1.76.994-2.818zM8.812 87.16c1.59 0 2.88 1.296 2.88 2.89 0 .21-.02.412-.064.608-.085.397-.25.765-.482 1.083-.23.32-.525.592-.864.795-.334.2-.71.333-1.114.383l-.356.023c-1.59 0-2.88-1.296-2.88-2.89s1.29-2.89 2.88-2.89zm17.867 13.088l-.733-.69v-2.743l.732-.69v4.123zm-7.092-13.446c-.138-.412-.582-.633-.992-.494-.41.138-.63.584-.492.996.138.41.582.632.992.494.41-.138.63-.584.492-.995m.302 3.36c-.41.137-.63.583-.493.995.138.412.582.633.992.494.41-.138.63-.584.49-.996-.137-.412-.58-.632-.99-.494m.78-1.58c.138.41.583.632.992.494.41-.14.63-.585.493-.996-.138-.41-.583-.632-.993-.494-.41.14-.63.585-.492.996zm-3.347.302c-.41.138-.63.584-.493.996.138.41.582.633.992.494.41-.138.63-.584.492-.996-.138-.41-.582-.632-.992-.494m-8.24.23c.325.094.664-.094.758-.42.094-.326-.094-.667-.42-.76-.223-.066-.455.004-.607.16-.068.07-.12.158-.15.26-.063.22.002.444.15.597.072.075.163.133.27.163m-.878 3.055c.224.065.455-.005.608-.16.068-.07.12-.16.15-.26.063-.22-.002-.445-.15-.598-.072-.074-.163-.132-.27-.162-.324-.094-.663.094-.757.42-.094.326.094.667.42.76m1.96-1.087c.324.095.663-.093.757-.42.094-.326-.094-.666-.42-.76-.324-.095-.663.094-.757.42-.093.326.094.666.42.76M7.12 90.2c.325.095.665-.093.758-.42.094-.326-.094-.666-.42-.76-.324-.094-.664.094-.757.42-.094.327.094.667.42.76" fill="#fff"/></g></svg>