<svg width="32" height="232" viewBox="0 0 32 232" xmlns="http://www.w3.org/2000/svg"><desc>Created with Sketch.</desc><g fill="none"><path d="M27.338 14.6c-.173-.076-.372-.04-.51.088l-1.76 1.66h-.32v-2.433c0-.522-.422-.945-.943-.945h-.053c.974-1.046 1.572-2.45 1.572-3.992 0-3.227-2.616-5.853-5.83-5.853-1.306 0-2.512.432-3.484 1.162L10.155 5.46c-.426-.124-.875-.193-1.34-.193-2.628 0-4.765 2.145-4.765 4.78 0 1.144.402 2.195 1.07 3.02-.31.152-.528.474-.528.847v8.388c0 .523.422.946.942.946h8.38l-3.28 4.708c-.148.214-.096.51.117.658.086.058.18.086.27.086.15 0 .298-.07.39-.202l3.27-4.694v4.423c0 .26.21.473.47.473s.47-.212.47-.473v-4.423l3.27 4.694c.09.132.237.202.385.202.093 0 .187-.028.27-.086.212-.15.264-.444.115-.658l-3.28-4.708h7.427c.52 0 .942-.423.942-.946v-2.28h.32l1.76 1.66c.09.085.204.128.32.128l.19-.04c.17-.074.28-.244.28-.433V15.03c0-.188-.11-.36-.28-.434zM6.474 21.36v-2.967h3.248c.26 0 .47-.21.47-.473 0-.26-.21-.472-.47-.472H6.474v-.817h5.27c.26 0 .47-.21.47-.47s-.21-.47-.47-.47h-5.27v-.827h16.39v6.5H6.474zm8.338-15.87c-.686.926-1.106 2.062-1.146 3.293l-.21.194c-.267-1.164-.957-2.167-1.9-2.835l3.256-.653zm4.68 7.45c-2.177 0-3.948-1.778-3.948-3.963 0-.238.022-.47.062-.697.055-.31.145-.606.267-.886.445-1.02 1.306-1.818 2.367-2.175.288-.1.59-.16.903-.19l.35-.018c2.176 0 3.947 1.778 3.947 3.962s-1.77 3.96-3.948 3.96zm5.515 5.73v.407h-.73V17.29h.73v1.378zm-11.433-8.52l.176-.162c.2 1.14.727 2.168 1.483 2.98H12.58c.605-.783.972-1.76.994-2.818zM8.812 7.16c1.59 0 2.88 1.296 2.88 2.89 0 .21-.02.412-.064.608-.085.397-.25.765-.482 1.083-.23.32-.525.595-.864.798-.334.2-.71.333-1.114.383l-.356.023c-1.59 0-2.88-1.296-2.88-2.89s1.29-2.89 2.88-2.89zM26.68 20.247l-.733-.69v-2.743l.732-.69v4.123zM19.588 6.802c-.138-.412-.582-.633-.992-.494-.41.138-.63.584-.492.996.138.41.582.632.992.494.41-.138.63-.584.492-.995m.302 3.36c-.41.137-.63.583-.493.995.138.412.582.633.992.494.41-.138.63-.584.49-.996-.14-.412-.58-.632-.99-.494m1.27-2.576c-.41.14-.63.585-.49.996.137.41.582.632.99.494.41-.14.63-.585.494-.996-.138-.41-.583-.632-.993-.494m-3.84 1.298c-.41.138-.63.584-.49.996.137.41.58.633.99.494.41-.138.63-.584.493-.996-.138-.41-.582-.632-.992-.494m-8.24.23c.326.094.665-.094.76-.42.093-.326-.095-.667-.42-.76-.224-.066-.456.004-.608.16-.068.07-.12.158-.15.26-.063.22.002.444.15.597.072.078.163.136.27.166m-.878 3.053c.224.064.455-.006.608-.16.068-.07.12-.16.15-.26.063-.22-.002-.446-.15-.6-.072-.073-.163-.13-.27-.16-.324-.095-.663.093-.757.42-.094.325.094.666.42.76m1.96-1.09c.324.096.663-.092.757-.42.094-.325-.094-.665-.42-.76-.324-.094-.663.095-.757.42-.093.327.094.667.42.76M7.12 10.2c.326.096.666-.092.76-.42.093-.325-.095-.665-.42-.76-.325-.093-.665.095-.758.42-.094.328.094.668.42.76" fill="#373D43"/><path d="M27.338 54.6c-.173-.076-.372-.04-.51.088l-1.76 1.66h-.32v-2.433c0-.522-.422-.945-.943-.945h-.053c.974-1.046 1.572-2.45 1.572-3.992 0-3.227-2.616-5.853-5.83-5.853-1.306 0-2.512.432-3.484 1.162l-5.855 1.174c-.426-.12-.875-.19-1.34-.19-2.628 0-4.765 2.145-4.765 4.78 0 1.144.402 2.195 1.07 3.02-.31.15-.528.474-.528.847v8.388c0 .523.422.946.942.946h8.38l-3.28 4.708c-.148.214-.096.51.117.658.086.058.18.086.27.086.15 0 .298-.07.39-.2l3.27-4.694v4.423c0 .26.21.473.47.473s.47-.21.47-.472V63.81l3.27 4.694c.09.13.237.2.385.2.093 0 .187-.026.27-.084.212-.15.264-.444.115-.658l-3.28-4.708h7.427c.52 0 .942-.424.942-.947v-2.28h.32l1.76 1.66c.09.085.204.128.32.128l.19-.04c.17-.072.28-.242.28-.43v-6.31c0-.188-.11-.36-.28-.434zM6.474 61.36v-2.967h3.248c.26 0 .47-.21.47-.473 0-.26-.21-.472-.47-.472H6.474v-.817h5.27c.26 0 .47-.21.47-.47s-.21-.47-.47-.47h-5.27v-.827h16.39v6.5H6.474zm8.338-15.868c-.686.926-1.106 2.062-1.146 3.293l-.21.194c-.267-1.167-.957-2.17-1.9-2.838l3.256-.653zm4.68 7.45c-2.177 0-3.948-1.778-3.948-3.963 0-.24.022-.47.062-.7.055-.31.145-.606.267-.886.445-1.02 1.306-1.818 2.367-2.175.288-.097.59-.16.903-.19l.35-.015c2.176 0 3.947 1.778 3.947 3.962s-1.77 3.96-3.948 3.96zm5.515 5.73v.407h-.73v-1.79h.73v1.377zm-11.433-8.52l.176-.162c.2 1.14.727 2.168 1.483 2.98H12.58c.605-.783.972-1.76.994-2.818zM8.812 47.16c1.59 0 2.88 1.296 2.88 2.89 0 .21-.02.412-.064.608-.085.397-.25.765-.482 1.083-.23.32-.525.595-.864.798-.334.2-.71.333-1.114.383l-.356.023c-1.59 0-2.88-1.296-2.88-2.89s1.29-2.89 2.88-2.89zM26.68 60.247l-.733-.69v-2.743l.732-.69v4.123zm-7.092-13.445c-.138-.412-.582-.633-.992-.494-.41.138-.63.584-.492.996.138.41.582.632.992.494.41-.138.63-.584.492-.995m.302 3.36c-.41.137-.63.583-.493.995.138.412.582.633.992.494.41-.138.63-.584.49-.996-.14-.412-.58-.632-.99-.494m.78-1.58c.137.41.582.632.99.494.41-.14.63-.585.494-.996-.138-.41-.583-.632-.993-.494-.41.14-.63.585-.49.996zm-3.348.302c-.41.138-.63.584-.493.996.137.41.58.633.99.494.41-.138.63-.584.493-.996-.138-.41-.582-.632-.992-.494m-8.24.23c.326.094.665-.094.76-.42.093-.326-.095-.667-.42-.76-.224-.066-.456.004-.608.16-.068.07-.12.158-.15.26-.063.22.002.444.15.597.072.078.163.136.27.166m-.878 3.054c.224.064.455-.006.608-.16.068-.07.12-.16.15-.26.063-.22-.002-.446-.15-.6-.072-.073-.163-.13-.27-.16-.324-.095-.663.093-.757.42-.094.325.094.666.42.76m1.96-1.09c.324.096.663-.092.757-.42.094-.325-.094-.665-.42-.76-.324-.094-.663.095-.757.42-.093.327.094.667.42.76M7.12 50.2c.326.096.666-.092.76-.42.093-.325-.095-.665-.42-.76-.325-.093-.665.095-.758.42-.094.328.094.668.42.76" fill="#67747C"/><path d="M27.338 134.6c-.173-.076-.372-.04-.51.088l-1.76 1.66h-.32v-2.433c0-.522-.422-.945-.943-.945h-.053c.974-1.046 1.572-2.45 1.572-3.992 0-3.227-2.616-5.853-5.83-5.853-1.306 0-2.512.432-3.484 1.162l-5.855 1.174c-.426-.12-.875-.19-1.34-.19-2.628 0-4.765 2.145-4.765 4.78 0 1.144.402 2.195 1.07 3.02-.31.15-.528.474-.528.847v8.388c0 .523.422.946.942.946h8.38l-3.28 4.708c-.148.214-.096.51.117.658.086.058.18.086.27.086.15 0 .298-.07.39-.2l3.27-4.694v4.423c0 .26.21.473.47.473s.47-.21.47-.472v-4.422l3.27 4.694c.09.13.237.2.385.2.093 0 .187-.026.27-.084.212-.15.264-.444.115-.658l-3.28-4.708h7.427c.52 0 .942-.424.942-.947v-2.28h.32l1.76 1.66c.09.085.204.128.32.128l.19-.04c.17-.072.28-.242.28-.43v-6.308c0-.187-.11-.36-.28-.433zm-20.864 6.76v-2.967h3.248c.26 0 .47-.21.47-.473 0-.26-.21-.472-.47-.472H6.474v-.817h5.27c.26 0 .47-.21.47-.47s-.21-.47-.47-.47h-5.27v-.827h16.39v6.5H6.474zm8.338-15.868c-.686.926-1.106 2.062-1.146 3.293l-.21.194c-.267-1.167-.957-2.17-1.9-2.838l3.256-.653zm4.68 7.45c-2.177 0-3.948-1.778-3.948-3.963 0-.24.022-.47.062-.7.055-.31.145-.606.267-.886.445-1.02 1.306-1.818 2.367-2.175.288-.097.59-.16.903-.19l.35-.015c2.176 0 3.947 1.778 3.947 3.962s-1.77 3.96-3.948 3.96zm5.515 5.73v.407h-.73v-1.79h.73v1.378zm-11.433-8.52l.176-.162c.2 1.14.727 2.168 1.483 2.98H12.58c.605-.783.972-1.76.994-2.818zm-4.762-2.993c1.59 0 2.88 1.293 2.88 2.89 0 .21-.02.41-.064.605-.085.397-.25.765-.482 1.083-.23.32-.525.59-.864.794-.334.2-.71.333-1.114.383l-.356.023c-1.59 0-2.88-1.295-2.88-2.89s1.29-2.89 2.88-2.89zm17.867 13.085l-.736-.69v-2.743l.732-.69v4.123zM19.584 126.8c-.138-.41-.582-.632-.992-.493-.41.138-.63.584-.492.996.14.41.583.632.993.494.41-.138.63-.584.492-.995m.302 3.36c-.41.137-.63.583-.494.995.138.412.582.633.992.494.41-.135.63-.58.49-.993-.137-.412-.58-.632-.99-.494m.782-1.578c.138.41.583.632.992.494.41-.14.63-.586.492-.997-.138-.41-.583-.632-.993-.494-.41.14-.63.584-.493.995zm-3.347.302c-.41.138-.63.584-.492.996.138.41.582.633.992.494.41-.138.63-.584.492-.996-.138-.41-.582-.63-.992-.493m-8.24.23c.325.094.664-.094.758-.42.094-.326-.094-.667-.42-.76-.223-.066-.455.004-.607.16-.066.07-.12.158-.15.26-.06.22.004.444.15.597.074.076.165.134.27.164m-.876 3.055c.224.064.455-.006.608-.16.07-.07.12-.16.15-.26.064-.22 0-.446-.15-.6-.07-.073-.162-.13-.27-.16-.323-.095-.662.093-.756.42-.094.325.094.666.42.76m1.96-1.088c.324.095.663-.093.757-.42.095-.326-.093-.666-.42-.76-.323-.095-.662.094-.756.42-.093.326.094.666.42.76m-3.044-.88c.325.095.665-.093.758-.42.095-.326-.093-.666-.42-.76-.323-.094-.663.094-.756.42-.093.327.095.667.42.76" fill="#206FAC"/><path d="M27.338 94.6c-.173-.076-.372-.04-.51.088l-1.76 1.66h-.32v-2.433c0-.522-.422-.945-.943-.945h-.053c.974-1.046 1.572-2.45 1.572-3.992 0-3.227-2.616-5.853-5.83-5.853-1.306 0-2.512.432-3.484 1.162l-5.855 1.174c-.426-.12-.875-.19-1.34-.19-2.628 0-4.765 2.145-4.765 4.78 0 1.144.402 2.195 1.07 3.02-.31.15-.528.474-.528.847v8.388c0 .523.422.946.942.946h8.38l-3.28 4.708c-.148.214-.096.51.117.658.086.058.18.086.27.086.15 0 .298-.07.39-.2l3.27-4.694v4.423c0 .26.21.473.47.473s.47-.21.47-.472v-4.422l3.27 4.694c.09.13.237.2.385.2.093 0 .187-.026.27-.084.212-.15.264-.444.115-.658l-3.28-4.708h7.427c.52 0 .942-.424.942-.947v-2.28h.32l1.76 1.66c.09.085.204.128.32.128l.19-.04c.17-.072.28-.242.28-.43v-6.31c0-.188-.11-.36-.28-.434zm-20.864 6.76v-2.967h3.248c.26 0 .47-.21.47-.473 0-.26-.21-.472-.47-.472H6.474v-.817h5.27c.26 0 .47-.21.47-.47s-.21-.47-.47-.47h-5.27v-.827h16.39v6.5H6.474zm8.338-15.868c-.686.926-1.106 2.062-1.146 3.293l-.21.194c-.267-1.167-.957-2.17-1.9-2.838l3.256-.653zm4.68 7.45c-2.177 0-3.948-1.778-3.948-3.963 0-.24.022-.47.062-.7.055-.31.145-.606.267-.886.445-1.02 1.306-1.818 2.367-2.175.288-.097.59-.16.903-.19l.35-.015c2.176 0 3.947 1.778 3.947 3.962s-1.77 3.96-3.948 3.96zm5.515 5.73v.407h-.73v-1.79h.73v1.377zm-11.433-8.52l.176-.162c.2 1.14.727 2.168 1.483 2.98H12.58c.605-.783.972-1.76.994-2.818zM8.812 87.16c1.59 0 2.88 1.296 2.88 2.89 0 .21-.02.412-.064.608-.085.397-.25.765-.482 1.083-.23.32-.525.595-.864.798-.334.2-.71.333-1.114.383l-.356.023c-1.59 0-2.88-1.296-2.88-2.89s1.29-2.89 2.88-2.89zm17.867 13.088l-.736-.69v-2.743l.732-.69v4.123zm-7.095-13.446c-.138-.412-.582-.633-.992-.494-.41.138-.63.584-.492.996.14.41.583.632.993.494.41-.138.63-.584.492-.995m.302 3.36c-.41.137-.63.583-.494.995.138.412.582.633.992.494.41-.138.63-.584.49-.996-.137-.412-.58-.632-.99-.494m.78-1.58c.138.41.583.632.992.494.41-.14.63-.585.493-.996-.137-.41-.582-.632-.992-.494-.41.14-.63.585-.492.996zm-3.347.302c-.41.138-.63.584-.493.996.138.41.582.633.992.494.41-.138.63-.584.49-.996-.137-.41-.58-.632-.99-.494m-8.24.23c.324.094.663-.094.757-.42.094-.326-.094-.667-.42-.76-.223-.066-.455.004-.607.16-.067.07-.12.158-.15.26-.062.22.003.444.15.597.073.078.164.136.27.166M8.2 92.17c.224.065.455-.005.608-.16.07-.07.12-.16.15-.26.065-.22 0-.445-.15-.6-.07-.072-.16-.13-.27-.16-.322-.094-.66.094-.755.42-.094.326.094.667.42.76m1.96-1.087c.324.095.663-.093.757-.42.095-.326-.093-.666-.42-.76-.323-.095-.662.094-.756.42-.093.326.094.666.42.76M7.12 90.2c.325.095.665-.093.758-.42.094-.326-.094-.666-.42-.76-.324-.094-.664.094-.757.42-.09.327.097.667.42.76" fill="#fff"/></g></svg>