<svg width="32" height="232" viewBox="0 0 32 232" xmlns="http://www.w3.org/2000/svg"><title>gear-and-tech</title><g fill="none"><g fill="#3B444F"><path d="M28.687 16.933h-.4c-.152-.626-.387-1.22-.702-1.775l.284-.296c.194-.205.194-.534 0-.738l-1.588-1.66c-.094-.098-.22-.154-.353-.154-.132 0-.26.056-.352.154l-.282.296c-.53-.33-1.1-.576-1.695-.737v-.418c0-.288-.222-.52-.497-.52h-.408v1.653c.072.11.183.19.315.216.747.147 1.444.45 2.074.9.198.142.464.115.634-.06l.212-.224.882.923-.212.223c-.17.177-.194.454-.06.663.43.657.72 1.388.86 2.17.045.248.25.426.49.426h.3v1.305h-.3c-.24 0-.445.18-.49.426-.14.782-.43 1.513-.86 2.172-.134.208-.11.485.06.663l.212.224-.882.922-.212-.223c-.17-.176-.435-.202-.634-.06-.63.448-1.327.75-2.074.898-.132.027-.243.108-.315.217v1.655h.408c.275 0 .498-.233.498-.52v-.42c.597-.158 1.166-.405 1.696-.735l.282.296c.093.098.22.152.35.152.134 0 .26-.054.354-.152l1.587-1.66c.194-.204.194-.535 0-.74l-.285-.295c.315-.554.55-1.148.702-1.774h.4c.276 0 .498-.234.498-.52v-2.35c0-.288-.223-.52-.498-.52m-2.32 1.79c0-2.278-1.592-4.174-3.673-4.532v2.14c.972.318 1.68 1.27 1.68 2.392 0 1.122-.707 2.074-1.68 2.394v2.14c2.08-.36 3.673-2.255 3.673-4.534M13.11 4.35c1.878-1.965 4.934-1.965 6.813 0 .097.103.224.154.353.154.127 0 .254-.05.35-.153.195-.203.195-.533 0-.736-2.265-2.375-5.953-2.375-8.22 0-.195.203-.195.533 0 .737.194.205.51.205.705 0m6.08 1.507c.194-.204.194-.534 0-.737-1.474-1.543-3.873-1.543-5.347 0-.194.204-.194.534 0 .737.098.1.227.153.354.153.127 0 .254-.052.352-.153 1.084-1.135 2.85-1.135 3.935 0 .195.205.51.205.705 0m-3.908.768c-.194.204-.194.534 0 .737.195.205.51.205.705 0 .142-.148.33-.23.53-.23s.388.083.53.23c.097.103.224.152.352.152.127 0 .254-.05.352-.152.194-.203.194-.534 0-.737-.33-.345-.77-.536-1.235-.536-.466 0-.905.19-1.235.535M8.55 18.758c-.377 0-.685.32-.685.717 0 .396.308.717.685.717.378 0 .685-.32.685-.717 0-.397-.307-.717-.685-.717zm0 1.042c-.172 0-.31-.145-.31-.325 0-.18.138-.326.31-.326.17 0 .31.145.31.325 0 .18-.14.325-.31.325zM20.875 9.585h-6.747v2.086h5.75v15.25H9.375v-3.217H7.382v4.258c0 .578.446 1.044.996 1.044h12.497c.55 0 .996-.466.996-1.043V10.628c0-.576-.445-1.043-.995-1.043"/><path d="M9.374 22.834h.8v.01h2.115c.55 0 .996-.468.996-1.045V11.67h.01V9.586h-.01v-1.7c0-.575-.446-1.042-.997-1.042H4.81c-.55 0-.997.467-.997 1.043V21.8c0 .576.446 1.043.998 1.043h1.644v-.01h2.92zM5.807 8.93h5.487v11.827H5.807V8.93zm8.82 17.348c.445 0 .81-.38.81-.85 0-.467-.365-.847-.81-.847-.447 0-.81.38-.81.85 0 .466.363.848.81.848zm0-1.043c.102 0 .186.087.186.194 0 .106-.085.193-.187.193-.103 0-.186-.088-.186-.194 0-.108.083-.195.186-.195z"/></g><g fill="#67747C"><path d="M28.687 56.933h-.4c-.152-.626-.387-1.22-.702-1.775l.284-.296c.194-.205.194-.534 0-.738l-1.588-1.66c-.094-.098-.22-.154-.353-.154-.132 0-.26.056-.352.154l-.282.296c-.53-.33-1.1-.576-1.695-.737v-.418c0-.288-.222-.52-.497-.52h-.408v1.653c.072.11.183.19.315.216.747.147 1.444.45 2.074.9.198.142.464.115.634-.06l.212-.224.882.923-.212.223c-.17.177-.194.454-.06.663.43.657.72 1.388.86 2.17.045.248.25.426.49.426h.3v1.305h-.3c-.24 0-.445.18-.49.426-.14.782-.43 1.513-.86 2.172-.134.208-.11.485.06.663l.212.224-.882.922-.212-.223c-.17-.176-.435-.202-.634-.06-.63.448-1.327.75-2.074.898-.132.027-.243.108-.315.217v1.655h.408c.275 0 .498-.233.498-.52v-.42c.597-.158 1.166-.405 1.696-.735l.282.296c.093.098.22.152.35.152.134 0 .26-.054.354-.152l1.587-1.66c.194-.204.194-.535 0-.74l-.285-.295c.315-.554.55-1.148.702-1.774h.4c.276 0 .498-.234.498-.52v-2.35c0-.288-.223-.52-.498-.52m-2.32 1.79c0-2.278-1.592-4.174-3.673-4.532v2.14c.972.318 1.68 1.27 1.68 2.392 0 1.122-.707 2.074-1.68 2.394v2.14c2.08-.36 3.673-2.255 3.673-4.534M13.11 44.35c1.878-1.965 4.934-1.965 6.813 0 .097.103.224.154.353.154.127 0 .254-.05.35-.153.195-.203.195-.533 0-.736-2.265-2.375-5.953-2.375-8.22 0-.195.203-.195.533 0 .737.194.205.51.205.705 0m6.08 1.507c.194-.204.194-.534 0-.737-1.474-1.543-3.873-1.543-5.347 0-.194.204-.194.534 0 .737.098.1.227.153.354.153.127 0 .254-.052.352-.153 1.084-1.135 2.85-1.135 3.935 0 .195.205.51.205.705 0m-3.908.768c-.194.204-.194.534 0 .737.195.205.51.205.705 0 .142-.148.33-.23.53-.23s.388.083.53.23c.097.103.224.152.352.152.127 0 .254-.05.352-.152.194-.203.194-.534 0-.737-.33-.345-.77-.536-1.235-.536-.466 0-.905.19-1.235.535M8.55 58.758c-.377 0-.685.32-.685.717 0 .396.308.717.685.717.378 0 .685-.32.685-.717 0-.397-.307-.717-.685-.717zm0 1.042c-.172 0-.31-.145-.31-.325 0-.18.138-.326.31-.326.17 0 .31.145.31.325 0 .18-.14.325-.31.325zm12.325-10.215h-6.747v2.086h5.75v15.25H9.375v-3.217H7.382v4.258c0 .578.446 1.044.996 1.044h12.497c.55 0 .996-.466.996-1.043V50.628c0-.576-.445-1.043-.995-1.043"/><path d="M9.374 62.834h.8v.01h2.115c.55 0 .996-.468.996-1.045V51.67h.01v-2.085h-.01v-1.7c0-.575-.446-1.042-.997-1.042H4.81c-.55 0-.997.467-.997 1.043V61.8c0 .576.446 1.043.998 1.043h1.644v-.01h2.92zM5.807 48.93h5.487v11.827H5.807V48.93zm8.82 17.348c.445 0 .81-.38.81-.85 0-.467-.365-.847-.81-.847-.447 0-.81.38-.81.85 0 .466.363.848.81.848zm0-1.043c.102 0 .186.087.186.194 0 .106-.085.193-.187.193-.103 0-.186-.088-.186-.194 0-.108.083-.195.186-.195z"/></g><g fill="#fff"><path d="M28.687 96.933h-.4c-.152-.626-.387-1.22-.702-1.775l.284-.296c.194-.205.194-.534 0-.738l-1.588-1.66c-.094-.098-.22-.154-.353-.154-.132 0-.26.056-.352.154l-.282.296c-.53-.33-1.1-.576-1.695-.737v-.418c0-.288-.222-.52-.497-.52h-.408v1.653c.072.11.183.19.315.216.747.147 1.444.45 2.074.9.198.142.464.115.634-.06l.212-.224.882.923-.212.223c-.17.177-.194.454-.06.663.43.657.72 1.388.86 2.17.045.248.25.426.49.426h.3v1.305h-.3c-.24 0-.445.18-.49.426-.14.782-.43 1.513-.86 2.172-.134.208-.11.485.06.663l.212.224-.882.922-.212-.223c-.17-.176-.435-.202-.634-.06-.63.448-1.327.75-2.074.898-.132.027-.243.108-.315.217v1.655h.408c.275 0 .498-.233.498-.52v-.42c.597-.158 1.166-.405 1.696-.735l.282.296c.093.098.22.152.35.152.134 0 .26-.054.354-.152l1.587-1.66c.194-.204.194-.535 0-.74l-.285-.295c.315-.554.55-1.148.702-1.774h.4c.276 0 .498-.234.498-.52v-2.35c0-.288-.223-.52-.498-.52m-2.32 1.79c0-2.278-1.592-4.174-3.673-4.532v2.14c.972.318 1.68 1.27 1.68 2.392 0 1.122-.707 2.074-1.68 2.394v2.14c2.08-.36 3.673-2.255 3.673-4.534M13.11 84.35c1.878-1.965 4.934-1.965 6.813 0 .097.103.224.154.353.154.127 0 .254-.05.35-.153.195-.203.195-.533 0-.736-2.265-2.375-5.953-2.375-8.22 0-.195.203-.195.533 0 .737.194.205.51.205.705 0m6.08 1.507c.194-.204.194-.534 0-.737-1.474-1.543-3.873-1.543-5.347 0-.194.204-.194.534 0 .737.098.1.227.153.354.153.127 0 .254-.052.352-.153 1.084-1.135 2.85-1.135 3.935 0 .195.205.51.205.705 0m-3.908.768c-.194.204-.194.534 0 .737.195.205.51.205.705 0 .142-.148.33-.23.53-.23s.388.083.53.23c.097.103.224.152.352.152.127 0 .254-.05.352-.152.194-.203.194-.534 0-.737-.33-.345-.77-.536-1.235-.536-.466 0-.905.19-1.235.535M8.55 98.758c-.377 0-.685.32-.685.717 0 .396.308.717.685.717.378 0 .685-.32.685-.717 0-.397-.307-.717-.685-.717zm0 1.042c-.172 0-.31-.145-.31-.325 0-.18.138-.326.31-.326.17 0 .31.145.31.325 0 .18-.14.325-.31.325zm12.325-10.215h-6.747v2.086h5.75v15.25H9.375v-3.217H7.382v4.258c0 .578.446 1.044.996 1.044h12.497c.55 0 .996-.466.996-1.043V90.628c0-.576-.445-1.043-.995-1.043"/><path d="M9.374 102.834h.8v.01h2.115c.55 0 .996-.468.996-1.045V91.67h.01v-2.085h-.01v-1.7c0-.575-.446-1.042-.997-1.042H4.81c-.55 0-.997.467-.997 1.043V101.8c0 .576.446 1.043.998 1.043h1.644v-.01h2.92zM5.807 88.93h5.487v11.827H5.807V88.93zm8.82 17.348c.445 0 .81-.38.81-.85 0-.467-.365-.847-.81-.847-.447 0-.81.38-.81.85 0 .466.363.848.81.848zm0-1.043c.102 0 .186.087.186.194 0 .106-.085.193-.187.193-.103 0-.186-.088-.186-.194 0-.108.083-.195.186-.195z"/></g><g fill="#206FAC"><path d="M28.687 136.933h-.4c-.152-.626-.387-1.22-.702-1.775l.284-.296c.194-.205.194-.534 0-.738l-1.588-1.66c-.094-.098-.22-.154-.353-.154-.132 0-.26.056-.352.154l-.282.296c-.53-.33-1.1-.576-1.695-.737v-.418c0-.288-.222-.52-.497-.52h-.408v1.653c.072.11.183.19.315.216.747.147 1.444.45 2.074.9.198.142.464.115.634-.06l.212-.224.882.923-.212.223c-.17.177-.194.454-.06.663.43.657.72 1.388.86 2.17.045.248.25.426.49.426h.3v1.305h-.3c-.24 0-.445.18-.49.426-.14.782-.43 1.513-.86 2.172-.134.208-.11.485.06.663l.212.224-.882.922-.212-.223c-.17-.176-.435-.202-.634-.06-.63.448-1.327.75-2.074.898-.132.027-.243.108-.315.217v1.655h.408c.275 0 .498-.233.498-.52v-.42c.597-.158 1.166-.405 1.696-.735l.282.296c.093.098.22.152.35.152.134 0 .26-.054.354-.152l1.587-1.66c.194-.204.194-.535 0-.74l-.285-.295c.315-.554.55-1.148.702-1.774h.4c.276 0 .498-.234.498-.52v-2.35c0-.288-.223-.52-.498-.52m-2.32 1.79c0-2.278-1.592-4.174-3.673-4.532v2.14c.972.318 1.68 1.27 1.68 2.392 0 1.122-.707 2.074-1.68 2.394v2.14c2.08-.36 3.673-2.255 3.673-4.534M13.11 124.35c1.878-1.965 4.934-1.965 6.813 0 .097.103.224.154.353.154.127 0 .254-.05.35-.153.195-.203.195-.533 0-.736-2.265-2.375-5.953-2.375-8.22 0-.195.203-.195.533 0 .737.194.205.51.205.705 0m6.08 1.507c.194-.204.194-.534 0-.737-1.474-1.543-3.873-1.543-5.347 0-.194.204-.194.534 0 .737.098.1.227.153.354.153.127 0 .254-.052.352-.153 1.084-1.135 2.85-1.135 3.935 0 .195.205.51.205.705 0m-3.908.768c-.194.204-.194.534 0 .737.195.205.51.205.705 0 .142-.148.33-.23.53-.23s.388.083.53.23c.097.103.224.152.352.152.127 0 .254-.05.352-.152.194-.203.194-.534 0-.737-.33-.345-.77-.536-1.235-.536-.466 0-.905.19-1.235.535M8.55 138.758c-.377 0-.685.32-.685.717 0 .396.308.717.685.717.378 0 .685-.32.685-.717 0-.397-.307-.717-.685-.717zm0 1.042c-.172 0-.31-.145-.31-.325 0-.18.138-.326.31-.326.17 0 .31.145.31.325 0 .18-.14.325-.31.325zm12.325-10.215h-6.747v2.086h5.75v15.25H9.375v-3.217H7.382v4.258c0 .578.446 1.044.996 1.044h12.497c.55 0 .996-.466.996-1.043v-17.333c0-.576-.445-1.043-.995-1.043"/><path d="M9.374 142.834h.8v.01h2.115c.55 0 .996-.468.996-1.045v-10.13h.01v-2.085h-.01v-1.7c0-.575-.446-1.042-.997-1.042H4.81c-.55 0-.997.467-.997 1.043V141.8c0 .576.446 1.043.998 1.043h1.644v-.01h2.92zM5.807 128.93h5.487v11.827H5.807V128.93zm8.82 17.348c.445 0 .81-.38.81-.85 0-.467-.365-.847-.81-.847-.447 0-.81.38-.81.85 0 .466.363.848.81.848zm0-1.043c.102 0 .186.087.186.194 0 .106-.085.193-.187.193-.103 0-.186-.088-.186-.194 0-.108.083-.195.186-.195z"/></g></g></svg>