<svg width="32" height="232" viewBox="0 0 32 232" xmlns="http://www.w3.org/2000/svg"><g fill="none"><g fill="#3B444F"><path d="M20.707 11.87c-1.856 0-3.563.642-4.91 1.71-.48.383-.915.82-1.295 1.302-1.037 1.32-1.656 2.975-1.656 4.77 0 1.578.478 3.047 1.296 4.274.506-.392.94-.87 1.28-1.414-.426-.765-.685-1.63-.733-2.553l-.01-.31.006-.307c.06-1.168.463-2.248 1.108-3.147.362-.503.798-.948 1.295-1.32.62-.462 1.336-.81 2.11-1.006.193-.05.39-.09.59-.12.297-.043.603-.066.914-.066.31 0 .62.023.917.068.2.03.396.07.59.12l.232.063.453.155.436.19c1.925.926 3.28 2.836 3.394 5.063l.008.307-.008.306c-.115 2.227-1.47 4.137-3.393 5.063l-.435.19-.453.152-.233.064c-.193.048-.39.088-.59.118-.297.046-.605.07-.916.07-.31 0-.617-.024-.915-.07-.2-.03-.396-.07-.59-.12-.55-.14-1.064-.355-1.54-.632-.378.495-.807.948-1.28 1.35 1.24.813 2.73 1.29 4.325 1.29 4.335 0 7.862-3.492 7.862-7.784s-3.526-7.785-7.862-7.785"/><path d="M17.098 24.43c.135-.173.263-.35.384-.533.456-.694.802-1.465 1.015-2.29l.007-.03.075-.317.01-.07.007-.033.05-.28.01-.05.003-.028.003-.04c.053-.36.082-.73.082-1.108 0-1.562-.47-3.018-1.274-4.238-.51.383-.946.854-1.293 1.39.465.846.732 1.817.732 2.848 0 .307-.025.61-.07.905l-.004.01-.05.273-.006.03-.068.287c-.124.475-.306.926-.535 1.348-.115.21-.242.413-.382.607-.36.502-.798.946-1.296 1.316-.18.13-.36.253-.554.364-.528.31-1.11.54-1.73.68v-.004l-.105.025-.034.008c-.386.08-.785.12-1.196.12-3.32 0-6.024-2.676-6.024-5.966S7.56 13.69 10.88 13.69c1.118 0 2.166.3 3.064.83.382-.49.816-.94 1.297-1.34-.895-.592-1.92-1.01-3.023-1.195l3.18-2.285.05-.043.01-.01.05-.057.006-.01.04-.068v-.006l.025-.075.003-.004.008-.05v-.03l.002-.008v-.003l-.008-.08-.005-.015-.023-.073-.007-.014-.035-.065-.008-.01-.04-.047-.01-.01-1.634-1.64c-.087-.084-.204-.133-.327-.133H10.96l-.128-.012-.125.012h-2.5c-.12 0-.238.05-.325.135L6.25 9.02l-.01.012-.04.046-.007.01-.036.066-.007.015-.023.07v.013l-.01.082v.04l.01.05v.01l.024.074.007.004.038.07.007.008.048.06.01.01.05.042L9.498 12c-3.675.65-6.475 3.835-6.475 7.66 0 4.29 3.526 7.782 7.862 7.782.456 0 .902-.04 1.336-.115v-.004l.04-.003.07-.008.1-.022.08-.016.317-.072.035-.008c.865-.22 1.67-.582 2.39-1.057.19-.127.375-.26.55-.4.484-.383.92-.82 1.298-1.302zm-6.262-16.1l.57.547h-1.14l.57-.546zm.846 1.455l-.846 1.605-.846-1.605h1.692zm.424 1.16l.61-1.16h1l-1.61 1.16zm1.197-2.795l.727.727h-1.312l-.04-.044-.713-.683h1.338zm-4.9 0h1.302l-.714.683-.034.044h-1.28l.726-.727zM7.99 9.785h.965l.588 1.116L7.99 9.79z"/></g><g fill="#67747C"><path d="M20.707 50.87c-1.856 0-3.563.642-4.91 1.71-.48.383-.915.82-1.295 1.302-1.037 1.32-1.656 2.975-1.656 4.77 0 1.578.478 3.047 1.296 4.274.506-.392.94-.87 1.28-1.414-.426-.765-.685-1.63-.733-2.553l-.01-.31.006-.307c.06-1.168.463-2.248 1.108-3.147.362-.503.798-.948 1.295-1.32.62-.462 1.336-.81 2.11-1.006.193-.05.39-.09.59-.12.297-.043.603-.066.914-.066.31 0 .62.023.917.068.2.03.396.07.59.12l.232.063.453.155.436.19c1.925.926 3.28 2.836 3.394 5.063l.008.307-.008.306c-.115 2.227-1.47 4.137-3.393 5.063l-.435.19-.453.152-.233.064c-.193.048-.39.088-.59.118-.297.046-.605.07-.916.07-.31 0-.617-.024-.915-.07-.2-.03-.396-.07-.59-.12-.55-.14-1.064-.355-1.54-.632-.378.495-.807.948-1.28 1.35 1.24.813 2.73 1.29 4.325 1.29 4.335 0 7.862-3.492 7.862-7.784s-3.526-7.785-7.862-7.785"/><path d="M17.098 63.43c.135-.173.263-.35.384-.533.456-.694.802-1.465 1.015-2.29l.007-.03.075-.317.01-.07.007-.033.05-.28.01-.05.003-.028.003-.04c.053-.36.082-.73.082-1.108 0-1.562-.47-3.018-1.274-4.238-.51.383-.946.854-1.293 1.39.465.846.732 1.817.732 2.848 0 .307-.025.61-.07.905l-.004.01-.05.273-.006.03-.068.287c-.124.475-.306.926-.535 1.348-.115.21-.242.413-.382.607-.36.502-.798.946-1.296 1.316-.18.13-.36.253-.554.364-.528.31-1.11.54-1.73.68v-.004l-.105.025-.034.008c-.386.08-.785.12-1.196.12-3.32 0-6.024-2.676-6.024-5.966S7.56 52.69 10.88 52.69c1.118 0 2.166.3 3.064.83.382-.49.816-.94 1.297-1.34-.895-.592-1.92-1.01-3.023-1.195l3.178-2.286.05-.046.01-.01.048-.057.008-.01.04-.07v-.005l.025-.075.003-.007.007-.05v-.03l.002-.007v-.003l-.007-.08-.006-.015-.023-.072-.006-.014-.035-.066-.01-.01-.04-.047-.01-.013-1.633-1.635c-.087-.086-.204-.135-.327-.135h-2.53l-.13-.012-.124.012h-2.5c-.12 0-.238.05-.325.135l-1.63 1.637-.01.012-.04.044-.006.01-.036.066-.007.016-.022.072v.013l-.01.084v.04l.01.05v.01l.024.074.006.005.038.07.007.008.048.06.01.01.05.042 3.19 2.3c-3.674.65-6.474 3.835-6.474 7.66 0 4.29 3.526 7.782 7.862 7.782.456 0 .902-.04 1.336-.115v-.005l.04-.003.07-.008.1-.022.08-.016.316-.072.035-.008c.865-.22 1.67-.582 2.39-1.057.19-.128.375-.26.55-.4.484-.384.92-.82 1.298-1.303zm-6.262-16.1l.57.547h-1.14l.57-.546zm.846 1.455l-.846 1.605-.846-1.605h1.692zm.424 1.16l.61-1.16h1l-1.61 1.16zm1.197-2.795l.727.727h-1.312l-.04-.044-.713-.683h1.338zm-4.9 0h1.302l-.714.683-.034.044h-1.28l.726-.727zm-.413 1.635h.965l.588 1.116L7.99 48.79z"/></g><g fill="#fff"><path d="M20.707 90.87c-1.856 0-3.563.642-4.91 1.71-.48.383-.915.82-1.295 1.302-1.037 1.32-1.656 2.975-1.656 4.77 0 1.578.478 3.047 1.296 4.274.506-.392.94-.87 1.28-1.414-.426-.765-.685-1.63-.733-2.553l-.01-.31.006-.307c.06-1.168.463-2.248 1.108-3.147.362-.503.798-.948 1.295-1.32.62-.462 1.336-.81 2.11-1.006.193-.05.39-.09.59-.12.297-.043.603-.066.914-.066.31 0 .62.023.917.068.2.03.396.07.59.12l.232.063.453.155.436.19c1.925.926 3.28 2.836 3.394 5.063l.008.307-.008.306c-.115 2.227-1.47 4.137-3.393 5.063l-.435.19-.453.152-.233.064c-.193.048-.39.088-.59.118-.297.046-.605.07-.916.07-.31 0-.617-.024-.915-.07-.2-.03-.396-.07-.59-.12-.55-.14-1.064-.355-1.54-.632-.378.495-.807.948-1.28 1.35 1.24.813 2.73 1.29 4.325 1.29 4.335 0 7.862-3.492 7.862-7.784s-3.526-7.785-7.862-7.785"/><path d="M17.098 103.43c.135-.173.263-.35.384-.533.456-.694.802-1.465 1.015-2.29l.007-.03.075-.317.01-.07.007-.033.05-.28.01-.05.003-.028.003-.04c.053-.36.082-.73.082-1.108 0-1.562-.47-3.018-1.274-4.238-.51.383-.946.854-1.293 1.39.465.846.732 1.817.732 2.848 0 .307-.025.61-.07.905l-.004.01-.05.273-.006.03-.068.287c-.124.475-.306.926-.535 1.348-.115.21-.242.413-.382.607-.36.502-.798.946-1.296 1.316-.18.13-.36.253-.554.364-.528.31-1.11.54-1.73.68v-.004l-.105.025-.034.008c-.386.08-.785.12-1.196.12-3.32 0-6.024-2.676-6.024-5.966S7.56 92.69 10.88 92.69c1.118 0 2.166.3 3.064.83.382-.49.816-.94 1.297-1.34-.895-.592-1.92-1.01-3.023-1.195l3.178-2.286.05-.046.01-.01.048-.057.008-.01.04-.07v-.005l.025-.075.003-.007.007-.05v-.03l.002-.007v-.003l-.007-.08-.006-.015-.023-.072-.006-.014-.035-.066-.01-.01-.04-.047-.01-.013-1.633-1.635c-.087-.086-.204-.135-.327-.135h-2.53l-.13-.012-.124.012h-2.5c-.12 0-.238.05-.325.135l-1.63 1.637-.01.012-.04.044-.006.01-.036.066-.007.016-.022.072v.013l-.01.084v.04l.01.05v.01l.024.074.006.005.038.07.007.008.048.06.01.01.05.042 3.19 2.3c-3.674.65-6.474 3.835-6.474 7.66 0 4.29 3.526 7.782 7.862 7.782.456 0 .902-.04 1.336-.115v-.005l.04-.003.07-.008.1-.022.08-.016.316-.072.035-.008c.865-.22 1.67-.582 2.39-1.057.19-.128.375-.26.55-.4.484-.384.92-.82 1.298-1.303zm-6.262-16.1l.57.547h-1.14l.57-.546zm.846 1.455l-.846 1.605-.846-1.605h1.692zm.424 1.16l.61-1.16h1l-1.61 1.16zm1.197-2.795l.727.727h-1.312l-.04-.044-.713-.683h1.338zm-4.9 0h1.302l-.714.683-.034.044h-1.28l.726-.727zm-.413 1.635h.965l.588 1.116L7.99 88.79z"/></g><g fill="#206FAC"><path d="M20.707 130.87c-1.856 0-3.563.642-4.91 1.71-.48.383-.915.82-1.295 1.302-1.037 1.32-1.656 2.975-1.656 4.77 0 1.578.478 3.047 1.296 4.274.506-.392.94-.87 1.28-1.414-.426-.765-.685-1.63-.733-2.553l-.01-.31.006-.307c.06-1.168.463-2.248 1.108-3.147.362-.503.798-.948 1.295-1.32.62-.462 1.336-.81 2.11-1.006.193-.05.39-.09.59-.12.297-.043.603-.066.914-.066.31 0 .62.023.917.068.2.03.396.07.59.12l.232.063.453.155.436.19c1.925.926 3.28 2.836 3.394 5.063l.008.307-.008.306c-.115 2.227-1.47 4.137-3.393 5.063l-.435.19-.453.152-.233.064c-.193.048-.39.088-.59.118-.297.046-.605.07-.916.07-.31 0-.617-.024-.915-.07-.2-.03-.396-.07-.59-.12-.55-.14-1.064-.355-1.54-.632-.378.495-.807.948-1.28 1.35 1.24.813 2.73 1.29 4.325 1.29 4.335 0 7.862-3.492 7.862-7.784s-3.526-7.785-7.862-7.785"/><path d="M17.098 143.43c.135-.173.263-.35.384-.533.456-.694.802-1.465 1.015-2.29l.007-.03.075-.317.01-.07.007-.033.05-.28.01-.05.003-.028.003-.04c.053-.36.082-.73.082-1.108 0-1.562-.47-3.018-1.274-4.238-.51.383-.946.854-1.293 1.39.465.846.732 1.817.732 2.848 0 .307-.025.61-.07.905l-.004.01-.05.273-.006.03-.068.287c-.124.475-.306.926-.535 1.348-.115.21-.242.413-.382.607-.36.502-.798.946-1.296 1.316-.18.13-.36.253-.554.364-.528.31-1.11.54-1.73.68v-.004l-.105.025-.034.008c-.386.08-.785.12-1.196.12-3.32 0-6.024-2.676-6.024-5.966s2.702-5.966 6.024-5.966c1.118 0 2.166.3 3.064.83.382-.49.816-.94 1.297-1.34-.895-.592-1.92-1.01-3.023-1.195l3.178-2.286.05-.044.01-.01.048-.057.008-.01.04-.07v-.005l.025-.074.003-.007.007-.05v-.03l.002-.01v-.002l-.007-.08-.006-.015-.023-.072-.006-.013-.035-.064-.01-.01-.04-.047-.01-.013-1.633-1.635c-.087-.085-.204-.134-.327-.134h-2.53l-.13-.012-.124.013h-2.5c-.12 0-.238.05-.325.135l-1.63 1.642-.01.01-.04.048-.007.01-.036.066-.007.015-.025.07v.015l-.01.082v.04l.01.05v.01l.024.074.002.008.038.07.008.008.046.058.01.01.05.042L9.496 131c-3.674.65-6.474 3.837-6.474 7.66 0 4.29 3.526 7.784 7.862 7.784.456 0 .902-.04 1.336-.115v-.007l.04-.003.068-.007.1-.022.082-.014.314-.072.035-.008c.86-.22 1.67-.582 2.39-1.057.19-.13.37-.26.55-.4.48-.385.92-.82 1.294-1.304zm-6.262-16.1l.57.547h-1.14l.57-.546zm.846 1.455l-.846 1.605-.846-1.605h1.692zm.424 1.16l.61-1.16h1l-1.61 1.16zm1.197-2.795l.727.727h-1.312l-.04-.044-.713-.683h1.338zm-4.9 0h1.302l-.714.683-.034.044h-1.28l.726-.727zm-.413 1.635h.965l.588 1.116-1.553-1.112z"/></g></g></svg>