<svg width="32" height="232" viewBox="0 0 32 232" xmlns="http://www.w3.org/2000/svg"><g fill="none"><path d="M29.708 23.85c-.555 0-.854.156-1.095.28-.187.097-.3.154-.586.154s-.4-.057-.586-.154c-.24-.124-.54-.28-1.09-.28s-.85.156-1.09.28c-.18.097-.3.154-.58.154s-.4-.057-.58-.154c-.17-.092-.38-.195-.69-.247.51-2.186 1.19-4.328 1.68-5.787l.78-2.184c.1-.277.09-.58-.04-.85-.12-.264-.35-.47-.63-.566l-.15-.054v-1.96c0-.238-.15-.45-.37-.525l-1.08-.36.02-.13V9.73c0-.24-.15-.455-.38-.528l-5.65-1.814-.46-2.058 1.83-.506c.24-.065.41-.285.41-.534V2.766c0-.18-.09-.35-.24-.453-.14-.104-.33-.128-.5-.067l-2.35.692-2.28-.69c-.17-.063-.363-.04-.51.063-.15.11-.24.28-.24.46v1.52c0 .25.163.47.4.54l1.826.52L15 7.4 9.35 9.22c-.23.075-.39.29-.39.53v1.74l.015.13-1.077.36c-.227.074-.38.287-.38.525v1.96l-.148.055c-.28.095-.505.3-.63.565-.128.27-.143.57-.045.85l.78 2.183c.494 1.46 1.17 3.6 1.68 5.786-.31.05-.518.15-.69.243-.19.097-.3.154-.587.154s-.4-.06-.583-.15c-.24-.12-.54-.28-1.093-.28s-.854.16-1.095.28c-.19.1-.3.16-.582.16s-.4-.05-.583-.15c-.24-.12-.54-.28-1.096-.28-.303 0-.55.25-.55.56 0 .31.25.56.554.56.286 0 .4.06.586.16.24.13.54.28 1.095.28.56 0 .86-.152 1.1-.28.19-.094.3-.152.59-.152s.4.06.59.155c.24.125.54.28 1.1.28s.86-.16 1.1-.282c.19-.095.3-.153.59-.153h.02c.207.196.48.314.77.314l.12-.006c.197.07.43.13.77.13.556 0 .855-.16 1.095-.286.188-.1.3-.156.586-.156s.4.057.586.154c.24.12.54.28 1.09.28s.85-.16 1.09-.28c.185-.1.3-.16.58-.16s.4.058.587.155c.24.126.54.28 1.094.28.55 0 .85-.16 1.09-.28.185-.1.3-.157.583-.157s.4.054.59.15c.24.127.54.284 1.09.284.34 0 .58-.06.77-.13.333.04.655-.08.89-.304.286 0 .4.053.587.15.24.126.54.283 1.094.283s.855-.156 1.095-.28c.19-.095.3-.153.587-.153s.4.06.587.158c.24.123.54.28 1.095.28s.854-.157 1.093-.28c.19-.1.303-.157.588-.157.306 0 .555-.25.555-.558 0-.31-.25-.557-.56-.557zM10.05 10.134l4.648-1.493 1.223-.39.35-.11.35.11 1.23.4 4.65 1.49v1.1l-4.4-1.46-1.22-.41-.38-.13-.2-.02-.2.03-.39.13-1.23.41-4.4 1.47v-1.1zm6.215-3.123l-.07.01.07-.31.07.32h-.07zM8.61 12.89l5.786-1.93 1.87-.623 1.87.623 1.542.515 4.243 1.417v1.166l-7.1-2.517v-.13c0-.08-.02-.17-.06-.24-.09-.18-.27-.31-.49-.31-.21 0-.4.13-.49.31-.03.08-.06.16-.06.25v.13l-7.11 2.51v-1.17zm5.7-9.01v-.31l1.726.48c.124.045.263.045.388 0l1.796-.487v.307l-1.926.53-.054.02-1.93-.548zm6.473 20.29l-.064-.033c-.24-.123-.54-.28-1.1-.28s-.86.157-1.1.28l-.07.033c-.16.08-.27.122-.52.122s-.37-.044-.52-.12l-.07-.035c-.24-.123-.54-.28-1.1-.28s-.86.157-1.1.28l-.07.034c-.15.08-.27.12-.52.12s-.37-.04-.52-.12l-.06-.04c-.24-.12-.54-.28-1.1-.28s-.856.16-1.096.28l-.07.04c-.1.05-.185.09-.3.11l.004-.1-.02-.24c-.54-2.46-1.315-4.92-1.865-6.55l-.004-.01-.41-1.15 4.58-1.62 1.99-.71v5.39c0 .31.25.56.556.56.31 0 .56-.25.56-.56V13.9l1.99.71 4.575 1.62-.41 1.15-.005.017c-.55 1.63-1.32 4.087-1.868 6.55l-.03.24v.11c-.12-.02-.21-.06-.31-.11zm2.204 5.344c-.555 0-.854.154-1.095.278-.187.098-.3.156-.586.156-.285 0-.398-.057-.585-.155-.24-.124-.54-.28-1.09-.28s-.85.155-1.09.28c-.18.097-.3.155-.58.155-.28 0-.4-.057-.58-.155-.24-.125-.54-.28-1.09-.28s-.85.155-1.09.28c-.19.097-.3.155-.58.155s-.4-.057-.58-.155c-.24-.127-.54-.28-1.094-.28-.302 0-.55.25-.55.553 0 .306.25.554.554.554.284 0 .397.06.585.156.24.127.54.28 1.092.28s.853-.153 1.094-.28c.19-.097.3-.156.587-.156s.4.06.59.157c.24.127.54.28 1.094.28s.856-.153 1.097-.28c.19-.097.3-.156.587-.156s.4.06.59.16c.24.13.54.28 1.095.28s.855-.15 1.096-.28c.19-.09.3-.15.588-.15.305 0 .55-.25.55-.55 0-.3-.245-.55-.552-.55M13.5 27.9c.24.125.54.28 1.093.28.556 0 .856-.155 1.097-.28.186-.096.3-.154.585-.154s.397.06.584.155c.24.13.54.28 1.09.28s.85-.15 1.09-.28c.18-.09.3-.15.58-.15.3 0 .55-.25.55-.55 0-.3-.25-.55-.56-.55-.56 0-.86.16-1.1.28-.19.1-.3.16-.59.16s-.4-.06-.59-.15c-.24-.12-.54-.28-1.1-.28s-.86.16-1.1.28c-.19.1-.3.16-.59.16s-.4-.05-.584-.15c-.24-.13-.54-.28-1.094-.28s-.854.15-1.094.28c-.19.098-.3.15-.587.15s-.396-.06-.583-.15c-.24-.123-.54-.28-1.098-.28s-.86.157-1.1.28c-.19.1-.3.157-.587.157s-.396-.06-.58-.15c-.25-.124-.54-.28-1.1-.28-.31 0-.56.25-.56.556 0 .304.243.554.55.554.283 0 .4.06.584.155.24.124.54.28 1.09.28.556 0 .854-.156 1.096-.28.183-.1.3-.155.58-.155s.394.06.58.154c.24.123.54.28 1.094.28s.85-.157 1.09-.28c.19-.1.3-.156.587-.156s.4.06.586.16m8.2-21.816c.326-.274.79-.277 1.12-.035l.01.02c.09.195.287.32.5.32h.07c.22 0 .41-.125.508-.32l.01-.02c.33-.247.795-.24 1.12.03.235.2.585.17.78-.067.2-.232.168-.582-.07-.78-.69-.58-1.655-.612-2.38-.152-.72-.46-1.69-.422-2.38.158-.23.196-.262.546-.065.78.2.234.55.266.78.067m2.29-2.29c.33-.273.79-.276 1.12-.035l.01.02c.09.197.29.32.507.32h.07c.216 0 .41-.123.5-.32l.01-.023c.33-.24.796-.24 1.123.04.23.195.58.165.78-.07.194-.237.163-.585-.07-.78-.69-.58-1.655-.616-2.38-.155-.72-.46-1.686-.427-2.376.153-.233.195-.265.543-.07.78.2.234.55.264.78.07" fill="#3B444F"/><path d="M29.708 63.85c-.555 0-.854.156-1.095.28-.187.097-.3.154-.586.154s-.4-.057-.586-.154c-.24-.124-.54-.28-1.09-.28s-.85.156-1.09.28c-.18.097-.3.154-.58.154s-.4-.057-.58-.154c-.17-.092-.38-.195-.69-.247.51-2.186 1.19-4.328 1.68-5.787l.78-2.184c.1-.277.09-.58-.04-.85-.12-.264-.35-.47-.63-.566l-.15-.054v-1.96c0-.238-.15-.45-.37-.525l-1.08-.36.02-.13V49.73c0-.24-.15-.455-.38-.528l-5.65-1.814-.46-2.058 1.83-.506c.24-.065.41-.285.41-.534v-1.524c0-.18-.09-.35-.24-.453-.14-.104-.33-.128-.5-.067l-2.35.692-2.28-.69c-.172-.063-.363-.04-.512.063-.15.11-.24.28-.24.46v1.53c0 .25.167.47.405.54l1.826.52-.46 2.05-5.65 1.82c-.23.08-.386.29-.386.53v1.74l.017.13-1.07.36c-.225.08-.38.29-.38.53v1.96l-.146.05c-.28.09-.51.3-.63.56-.13.27-.15.57-.05.85l.78 2.18c.493 1.46 1.17 3.6 1.68 5.79-.31.06-.52.16-.69.25-.19.1-.3.16-.588.16s-.396-.06-.584-.155c-.24-.12-.54-.28-1.093-.28s-.85.16-1.093.28c-.19.1-.3.155-.59.155s-.4-.06-.585-.16c-.247-.124-.54-.28-1.1-.28-.31 0-.557.25-.557.55 0 .306.25.55.557.55.29 0 .4.06.59.157.24.127.54.284 1.1.284s.86-.16 1.1-.284c.187-.096.3-.154.584-.154s.396.06.584.15c.24.126.54.28 1.093.28.55 0 .85-.16 1.09-.28.188-.095.3-.153.586-.153h.02c.207.194.48.312.77.312l.12-.01c.197.07.43.13.77.13.556 0 .855-.16 1.095-.288.188-.095.3-.153.586-.153s.4.057.587.154c.24.13.54.288 1.097.288s.857-.16 1.1-.284c.19-.092.3-.15.58-.15s.4.056.587.15c.24.126.54.28 1.1.28.55 0 .85-.154 1.094-.28.19-.1.3-.154.583-.154s.4.055.585.15c.24.125.54.28 1.097.28.334 0 .575-.06.77-.13.33.04.653-.08.884-.304h.03c.28 0 .392.06.58.157.24.127.54.28 1.093.28.55 0 .85-.153 1.09-.28.19-.095.3-.153.588-.153s.4.06.588.16c.24.127.54.284 1.097.284s.86-.153 1.1-.28c.19-.094.305-.15.59-.15.305 0 .554-.25.554-.558 0-.306-.25-.554-.556-.554zM10.05 50.134l4.648-1.493 1.223-.39.35-.11.35.11 1.23.4 4.65 1.49v1.1l-4.4-1.47-1.22-.41-.38-.13-.2-.02-.2.03-.383.13-1.223.41-4.4 1.47v-1.1zm6.215-3.123l-.07.01.07-.31.07.32h-.07zM8.61 52.89l5.786-1.93 1.87-.623 1.87.623 1.542.515 4.243 1.417v1.166l-7.1-2.517v-.13c0-.08-.02-.17-.06-.24-.09-.18-.27-.31-.49-.31-.21 0-.4.13-.49.31-.03.08-.06.16-.06.25v.13l-7.11 2.51v-1.17zm5.7-9.01v-.305l1.726.48c.124.046.263.046.388 0l1.796-.486v.3l-1.926.53-.054.02-1.93-.55zm6.473 20.29l-.064-.033c-.24-.123-.54-.28-1.1-.28s-.86.157-1.1.28l-.07.033c-.16.08-.27.122-.52.122s-.37-.044-.52-.12l-.07-.035c-.24-.123-.54-.28-1.1-.28s-.86.157-1.1.28l-.07.034c-.15.08-.27.12-.52.12s-.37-.04-.52-.12l-.06-.04c-.24-.12-.54-.28-1.1-.28s-.856.16-1.096.28l-.07.04c-.1.05-.185.09-.3.11l.004-.1-.02-.24c-.54-2.46-1.315-4.92-1.865-6.55l-.004-.01-.41-1.15 4.58-1.62 1.99-.71v5.39c0 .31.25.56.556.56.31 0 .56-.25.56-.56V53.9l1.99.71 4.575 1.62-.41 1.15-.005.017c-.55 1.63-1.32 4.087-1.868 6.55l-.03.24v.11c-.12-.02-.21-.06-.31-.11zm2.204 5.344c-.555 0-.854.154-1.095.278-.187.098-.3.156-.586.156-.285 0-.398-.057-.585-.155-.24-.124-.54-.28-1.09-.28s-.85.155-1.09.28c-.18.097-.3.155-.58.155-.28 0-.4-.057-.58-.155-.24-.125-.54-.28-1.09-.28s-.85.155-1.09.28c-.19.097-.3.155-.58.155s-.4-.057-.58-.155c-.24-.127-.54-.28-1.094-.28-.302 0-.55.25-.55.553 0 .306.25.554.554.554.284 0 .397.06.585.156.24.127.54.28 1.092.28s.853-.153 1.094-.28c.19-.097.3-.156.587-.156s.4.06.59.157c.24.127.54.28 1.094.28s.856-.153 1.097-.28c.19-.097.3-.156.587-.156s.4.06.59.16c.24.13.54.28 1.095.28s.855-.15 1.096-.28c.19-.09.3-.15.588-.15.305 0 .55-.25.55-.55 0-.3-.245-.55-.552-.55M13.5 67.9c.24.125.54.28 1.093.28.556 0 .856-.155 1.097-.28.186-.096.3-.154.585-.154s.397.06.584.155c.24.13.54.28 1.09.28s.85-.15 1.09-.28c.18-.09.3-.15.58-.15.3 0 .55-.25.55-.55 0-.3-.25-.55-.56-.55-.56 0-.86.16-1.1.28-.19.1-.3.16-.59.16s-.4-.06-.59-.15c-.24-.12-.54-.28-1.1-.28s-.86.16-1.1.28c-.19.1-.3.16-.59.16s-.4-.05-.584-.15c-.24-.13-.54-.28-1.094-.28s-.854.15-1.094.28c-.19.098-.3.15-.587.15s-.396-.06-.583-.15c-.24-.123-.54-.28-1.098-.28s-.86.157-1.1.28c-.19.1-.3.157-.587.157s-.396-.06-.58-.15c-.25-.124-.54-.28-1.1-.28-.31 0-.56.25-.56.556 0 .304.243.554.55.554.283 0 .4.06.584.155.24.124.54.28 1.09.28.556 0 .854-.156 1.096-.28.183-.1.3-.155.58-.155s.394.06.58.154c.24.123.54.28 1.094.28s.85-.157 1.09-.28c.19-.1.3-.156.587-.156s.4.06.586.16m8.2-21.82c.326-.274.79-.277 1.12-.035l.01.025c.09.194.29.32.5.32h.07c.22 0 .41-.126.506-.32l.01-.025c.33-.24.794-.24 1.12.036.234.2.584.17.78-.064.2-.23.17-.58-.07-.78-.69-.58-1.66-.61-2.38-.15-.72-.46-1.69-.424-2.38.156-.23.198-.26.548-.066.78.19.236.542.268.78.07m2.29-2.29c.32-.27.79-.273 1.12-.03l.01.024c.09.2.28.32.5.32h.062c.216 0 .41-.12.5-.32l.01-.02c.33-.24.796-.24 1.12.035.24.194.59.164.78-.07.2-.238.17-.586-.06-.78-.69-.58-1.658-.617-2.38-.156-.72-.46-1.69-.423-2.38.157-.24.2-.27.55-.07.78.195.24.544.27.78.07" fill="#67747C"/><path d="M29.708 103.85c-.555 0-.854.156-1.095.28-.187.097-.3.154-.586.154s-.4-.057-.586-.154c-.24-.124-.54-.28-1.09-.28s-.85.156-1.09.28c-.18.097-.3.154-.58.154s-.4-.057-.58-.154c-.17-.092-.38-.195-.69-.247.51-2.186 1.19-4.328 1.68-5.787l.78-2.184c.1-.277.09-.58-.04-.85-.12-.264-.35-.47-.63-.566l-.15-.054v-1.96c0-.238-.15-.45-.37-.525l-1.08-.36.02-.13V89.73c0-.24-.15-.455-.38-.528l-5.65-1.814-.46-2.058 1.83-.506c.24-.065.41-.285.41-.534v-1.524c0-.18-.09-.35-.24-.453-.14-.104-.33-.128-.5-.067l-2.35.692-2.28-.69c-.172-.063-.363-.04-.512.063-.15.11-.24.28-.24.46v1.53c0 .25.167.47.405.54l1.826.52-.46 2.05-5.65 1.82c-.23.08-.386.29-.386.53v1.74l.017.13-1.07.36c-.225.08-.38.29-.38.53v1.96l-.146.05c-.28.09-.51.3-.63.56-.13.27-.15.57-.05.85l.78 2.18c.493 1.46 1.17 3.6 1.68 5.79-.31.06-.52.16-.69.25-.19.1-.3.16-.588.16s-.396-.06-.584-.155c-.24-.12-.54-.28-1.093-.28s-.85.16-1.093.28c-.19.1-.3.155-.59.155s-.4-.06-.585-.16c-.247-.124-.54-.28-1.1-.28-.31 0-.557.25-.557.55 0 .306.25.55.557.55.29 0 .4.06.59.157.24.127.54.284 1.1.284s.86-.16 1.1-.284c.187-.096.3-.154.584-.154s.396.06.584.15c.24.126.54.28 1.093.28.55 0 .85-.16 1.09-.28.188-.095.3-.153.586-.153h.02c.207.194.48.312.77.312l.12-.01c.197.07.43.13.77.13.556 0 .855-.16 1.095-.288.188-.095.3-.153.586-.153s.4.057.587.154c.24.13.54.288 1.097.288s.857-.16 1.1-.284c.19-.092.3-.15.58-.15s.4.056.587.15c.24.126.54.28 1.1.28.55 0 .85-.154 1.094-.28.19-.1.3-.154.583-.154s.4.055.585.15c.24.125.54.28 1.097.28.334 0 .575-.06.77-.13.33.04.653-.08.884-.304h.03c.28 0 .392.06.58.157.24.127.54.28 1.093.28.55 0 .85-.153 1.09-.28.19-.095.3-.153.588-.153s.4.06.588.16c.24.127.54.284 1.097.284s.86-.153 1.1-.28c.19-.094.305-.15.59-.15.305 0 .554-.25.554-.558 0-.306-.25-.554-.556-.554zM10.05 90.134l4.648-1.493 1.223-.39.35-.11.35.11 1.23.4 4.65 1.49v1.1l-4.4-1.47-1.22-.41-.38-.13-.2-.02-.2.03-.383.13-1.223.41-4.4 1.47v-1.1zm6.215-3.123l-.07.01.07-.31.07.32h-.07zM8.61 92.89l5.786-1.93 1.87-.623 1.87.623 1.542.515 4.243 1.417v1.166l-7.1-2.517v-.13c0-.08-.02-.17-.06-.24-.09-.18-.27-.31-.49-.31-.21 0-.4.13-.49.31-.03.08-.06.16-.06.25v.13l-7.11 2.51v-1.17zm5.7-9.01v-.305l1.726.48c.124.046.263.046.388 0l1.796-.486v.3l-1.926.53-.054.02-1.93-.55zm6.473 20.29l-.064-.033c-.24-.123-.54-.28-1.1-.28s-.86.157-1.1.28l-.07.033c-.16.08-.27.122-.52.122s-.37-.044-.52-.12l-.07-.035c-.24-.123-.54-.28-1.1-.28s-.86.157-1.1.28l-.07.034c-.15.08-.27.12-.52.12s-.37-.04-.52-.12l-.06-.04c-.24-.12-.54-.28-1.09-.28-.56 0-.86.16-1.1.28l-.07.04c-.1.05-.19.09-.3.11v-.1l-.028-.24c-.54-2.46-1.316-4.92-1.866-6.55l-.008-.01-.41-1.15 4.58-1.62 1.992-.71v5.39c0 .31.25.56.552.56.304 0 .553-.25.553-.55v-5.4l1.996.71 4.577 1.63-.41 1.15-.01.02c-.55 1.628-1.32 4.08-1.86 6.548l-.03.24.004.1c-.12-.02-.21-.06-.31-.11zm2.204 5.344c-.555 0-.854.154-1.095.278-.187.098-.3.156-.586.156-.285 0-.398-.057-.585-.155-.24-.124-.54-.28-1.09-.28s-.85.155-1.09.28c-.18.097-.3.155-.58.155-.28 0-.4-.057-.58-.155-.24-.125-.54-.28-1.09-.28s-.85.155-1.09.28c-.19.097-.3.155-.58.155s-.4-.057-.58-.155c-.24-.127-.54-.28-1.094-.28-.302 0-.55.25-.55.553 0 .306.25.554.554.554.284 0 .397.06.585.156.24.127.54.28 1.092.28s.853-.153 1.094-.28c.19-.097.3-.156.587-.156s.4.06.59.157c.24.127.54.28 1.094.28s.856-.153 1.097-.28c.19-.097.3-.156.587-.156s.4.06.59.16c.24.13.54.28 1.095.28s.855-.15 1.096-.28c.19-.09.3-.15.588-.15.305 0 .55-.25.55-.55 0-.3-.245-.55-.552-.55m-9.5-1.61c.24.13.54.28 1.09.28.56 0 .86-.15 1.1-.28.19-.09.3-.15.59-.15s.4.06.587.16c.24.13.54.28 1.09.28s.856-.15 1.097-.28c.19-.09.3-.15.59-.15.306 0 .554-.25.554-.55 0-.3-.25-.55-.56-.55-.556 0-.856.156-1.096.28-.19.098-.3.156-.59.156s-.4-.06-.586-.157c-.24-.125-.54-.28-1.095-.28s-.85.155-1.09.28c-.19.097-.3.155-.59.155s-.4-.06-.585-.16c-.24-.127-.54-.28-1.097-.28s-.855.153-1.095.28c-.19.095-.3.153-.586.153s-.398-.06-.585-.156c-.24-.124-.54-.28-1.097-.28s-.855.156-1.096.28c-.19.098-.3.156-.59.156s-.4-.06-.59-.156c-.24-.125-.54-.28-1.1-.28-.3 0-.55.25-.55.555 0 .3.25.55.556.55.285 0 .4.06.586.16.24.128.54.28 1.09.28.56 0 .858-.152 1.1-.28.18-.1.3-.15.58-.15s.395.06.583.157c.24.13.54.28 1.096.28s.85-.15 1.09-.28c.19-.1.3-.15.588-.15s.4.06.587.157m8.2-21.82c.33-.28.79-.28 1.12-.04l.01.024c.094.194.29.32.504.32h.07c.216 0 .41-.126.504-.32l.01-.025c.33-.24.79-.24 1.12.03.23.2.58.17.78-.067.197-.236.166-.586-.07-.78-.69-.58-1.66-.616-2.38-.156-.72-.46-1.69-.424-2.38.156-.232.2-.263.55-.066.78.195.237.546.27.78.07M24 83.83c.323-.274.79-.277 1.12-.036l.01.024c.09.196.284.32.5.32h.067c.216 0 .41-.124.5-.32l.01-.024c.33-.24.796-.24 1.123.036.234.198.584.168.78-.07.197-.233.166-.58-.067-.78-.69-.58-1.658-.612-2.38-.15-.72-.46-1.69-.424-2.38.156-.235.2-.267.547-.07.78.197.238.546.268.78.07" fill="#fff"/><path d="M29.708 143.85c-.555 0-.854.156-1.095.28-.187.097-.3.154-.586.154s-.4-.057-.586-.154c-.24-.124-.54-.28-1.09-.28s-.85.156-1.09.28c-.18.097-.3.154-.58.154s-.4-.057-.58-.154c-.17-.092-.38-.195-.69-.247.51-2.186 1.19-4.328 1.68-5.787l.78-2.184c.1-.277.09-.58-.04-.85-.12-.264-.35-.47-.63-.566l-.15-.054v-1.96c0-.238-.15-.45-.37-.525l-1.08-.36.02-.13v-1.737c0-.24-.15-.455-.38-.528l-5.65-1.814-.46-2.058 1.83-.506c.24-.065.41-.285.41-.534v-1.524c0-.18-.09-.35-.24-.453-.14-.104-.33-.128-.5-.067l-2.35.692-2.28-.69c-.172-.063-.363-.04-.512.063-.15.11-.24.28-.24.46v1.53c0 .25.167.47.405.54l1.826.52-.453 2.05-5.65 1.82c-.23.08-.383.29-.383.53v1.74l.018.13-1.073.36c-.226.08-.38.29-.38.53v1.96l-.147.06c-.28.097-.504.3-.63.567-.13.27-.142.57-.044.85l.78 2.18c.493 1.46 1.17 3.6 1.68 5.787-.31.055-.52.158-.69.25-.19.1-.3.158-.588.158s-.395-.06-.58-.153c-.24-.12-.54-.28-1.096-.28s-.854.16-1.095.28c-.19.1-.3.155-.59.155s-.4-.06-.584-.16c-.24-.124-.54-.28-1.094-.28-.306 0-.554.25-.554.553 0 .3.25.55.557.55.29 0 .4.056.59.15.24.13.54.286 1.097.286.56 0 .86-.16 1.1-.284.19-.096.3-.154.587-.154s.4.06.586.156c.24.125.54.282 1.094.282.553 0 .85-.16 1.093-.29.187-.09.3-.15.585-.15h.02c.206.2.48.316.77.316l.12-.01c.196.07.43.13.768.13.555 0 .854-.156 1.094-.28.185-.097.3-.155.583-.155s.4.058.587.155c.24.13.54.285 1.09.285s.857-.154 1.098-.28c.19-.09.3-.15.587-.15s.4.056.588.15c.24.13.54.28 1.1.28.55 0 .85-.15 1.094-.28.19-.094.3-.15.583-.15s.397.056.584.153c.24.123.54.28 1.094.28.336 0 .577-.06.77-.13.33.035.655-.08.886-.308h.027c.28 0 .395.06.583.155.24.12.54.28 1.09.28.555 0 .855-.16 1.095-.28.19-.1.3-.16.59-.16s.4.06.585.155c.24.126.54.283 1.095.283s.86-.155 1.1-.28c.19-.096.305-.154.59-.154.305 0 .554-.25.554-.555 0-.31-.25-.56-.554-.56zM10.05 130.134l4.648-1.493 1.223-.39.35-.11.35.11 1.23.4 4.65 1.49v1.1l-4.39-1.46-1.22-.41-.38-.13-.2-.02-.203.03-.383.13-1.224.41-4.4 1.47v-1.1zm6.215-3.123l-.07.01.07-.31.07.32h-.07zm-7.655 5.88l5.786-1.93 1.87-.62 1.87.63 1.542.52 4.243 1.42v1.17l-7.1-2.51v-.13c0-.08-.02-.17-.06-.24-.09-.18-.27-.31-.49-.31-.21 0-.4.13-.49.31-.03.07-.06.16-.06.24v.13l-7.1 2.52v-1.17zm5.7-9.01v-.3l1.726.48c.124.05.263.05.388 0l1.796-.48v.31l-1.926.53-.054.02-1.93-.54zm6.473 20.29l-.064-.03c-.24-.12-.54-.28-1.1-.28s-.86.16-1.1.28l-.07.04c-.16.08-.27.13-.52.13s-.37-.04-.52-.12l-.07-.03c-.24-.12-.54-.28-1.1-.28s-.86.16-1.1.28l-.07.04c-.15.08-.27.12-.52.12s-.37-.04-.52-.12l-.06-.04c-.24-.12-.54-.28-1.09-.28-.56 0-.86.16-1.1.28l-.07.04c-.1.05-.19.09-.3.11v-.103l-.028-.233c-.54-2.464-1.316-4.92-1.866-6.55l-.008-.02-.41-1.15 4.58-1.62 1.992-.71v5.39c0 .305.25.55.552.55.304 0 .553-.25.553-.55v-5.39l1.996.704 4.577 1.62-.41 1.15-.01.01c-.55 1.63-1.32 4.088-1.86 6.55l-.03.24.004.11c-.12-.02-.21-.055-.31-.106zm2.204 5.35c-.555 0-.854.16-1.095.28-.187.1-.3.16-.586.16-.285 0-.398-.05-.585-.15-.24-.12-.54-.28-1.09-.28s-.85.16-1.09.28c-.18.1-.3.16-.58.16-.28 0-.4-.06-.58-.15-.24-.12-.54-.28-1.09-.28s-.85.16-1.09.28c-.19.1-.3.16-.58.16s-.4-.053-.58-.15c-.24-.127-.54-.28-1.094-.28-.302 0-.55.25-.55.553 0 .307.25.555.554.555.284 0 .397.06.585.154.24.127.54.28 1.092.28s.853-.153 1.094-.28c.19-.097.3-.156.587-.156s.4.06.59.16c.24.127.54.28 1.094.28s.856-.153 1.097-.28c.19-.097.3-.156.587-.156s.4.06.59.16c.24.13.54.28 1.095.28s.855-.15 1.096-.28c.19-.095.3-.154.588-.154.305 0 .55-.25.55-.558 0-.31-.245-.56-.552-.56m-9.5-1.613c.24.12.54.28 1.09.28.56 0 .86-.16 1.1-.28.19-.1.3-.156.59-.156s.4.06.587.154c.24.13.54.28 1.09.28s.856-.15 1.097-.28c.19-.09.3-.15.59-.15.306 0 .554-.25.554-.552 0-.303-.25-.552-.56-.552-.556 0-.856.156-1.096.28-.19.098-.3.156-.59.156s-.4-.06-.586-.16c-.24-.13-.54-.28-1.095-.28s-.85.15-1.09.28c-.19.094-.3.15-.59.15s-.4-.055-.585-.152c-.24-.125-.54-.28-1.097-.28s-.855.155-1.095.28c-.19.097-.3.155-.586.155s-.398-.058-.585-.155c-.24-.13-.54-.28-1.097-.28s-.855.15-1.096.28c-.19.09-.3.15-.59.15s-.4-.06-.59-.155c-.24-.124-.54-.28-1.1-.28-.3 0-.55.25-.55.556 0 .303.25.553.556.553.285 0 .4.06.586.154.24.12.54.28 1.09.28.56 0 .858-.16 1.1-.28.18-.1.3-.16.58-.16s.395.06.583.155c.24.12.54.28 1.096.28s.85-.16 1.09-.28c.19-.1.3-.16.588-.16s.4.06.587.16m8.2-21.824c.33-.276.79-.28 1.12-.037l.01.02c.094.193.29.32.504.32h.07c.216 0 .41-.127.504-.32l.01-.026c.33-.24.79-.24 1.12.03.23.2.58.17.78-.068.197-.234.166-.584-.07-.78-.69-.58-1.66-.614-2.38-.154-.72-.46-1.69-.425-2.38.155-.232.195-.263.545-.066.78.195.23.546.265.78.066M24 123.8c.323-.27.79-.274 1.12-.033l.01.023c.09.198.284.32.5.32h.067c.216 0 .41-.122.5-.32l.01-.022c.33-.24.796-.24 1.123.038.234.198.584.168.78-.067.197-.24.166-.59-.067-.78-.69-.58-1.658-.62-2.38-.16-.72-.46-1.69-.42-2.38.16-.235.193-.267.54-.07.78.197.232.546.262.78.07" fill="#206FAC"/></g></svg>