<svg width="32" height="232" viewBox="0 0 32 232" xmlns="http://www.w3.org/2000/svg"><g fill="none"><path d="M29.708 23.85c-.555 0-.854.156-1.095.28-.187.097-.3.154-.586.154s-.4-.057-.586-.154c-.24-.124-.54-.28-1.09-.28-.556 0-.856.156-1.096.28-.186.097-.3.154-.585.154s-.4-.057-.586-.154c-.174-.092-.38-.195-.688-.247.51-2.186 1.184-4.328 1.678-5.787l.78-2.184c.1-.277.084-.58-.042-.85-.124-.264-.352-.47-.63-.566l-.15-.054v-1.96c0-.238-.15-.45-.376-.525l-1.078-.36.017-.13V9.73c0-.24-.157-.455-.386-.528l-5.65-1.814-.46-2.058 1.824-.506c.24-.065.407-.285.407-.534V2.766c0-.18-.09-.35-.24-.453-.144-.104-.334-.128-.504-.067l-2.348.692-2.28-.69c-.172-.063-.363-.04-.512.063-.15.107-.24.278-.24.46v1.52c0 .248.165.466.403.534l1.826.52-.455 2.044-5.65 1.814c-.23.073-.385.287-.385.528v1.737l.017.13-1.076.36c-.227.074-.38.287-.38.525v1.96l-.148.054c-.278.097-.504.302-.63.567-.127.27-.142.572-.044.85l.78 2.183c.496 1.46 1.17 3.6 1.68 5.787-.31.052-.516.155-.69.247-.187.097-.3.154-.585.154s-.398-.057-.586-.154c-.242-.124-.54-.28-1.096-.28-.554 0-.854.156-1.095.28-.19.097-.3.154-.586.154s-.398-.057-.585-.154c-.243-.124-.54-.28-1.098-.28-.304 0-.552.248-.552.553 0 .307.248.555.553.555.287 0 .4.058.587.155.24.125.54.282 1.094.282.557 0 .855-.157 1.096-.282.187-.097.3-.155.584-.155s.398.058.586.155c.24.125.54.282 1.094.282.556 0 .854-.157 1.096-.282.186-.097.3-.155.584-.155h.024c.204.196.48.314.772.314l.12-.007c.192.07.43.13.764.13.555 0 .854-.157 1.094-.282.188-.097.3-.155.586-.155s.398.058.585.155c.24.125.54.282 1.094.282s.854-.157 1.095-.282c.185-.097.3-.155.584-.155s.397.058.584.155c.24.125.54.282 1.095.282.553 0 .853-.157 1.094-.282.187-.097.3-.155.585-.155s.398.058.585.155c.24.125.54.282 1.095.282.336 0 .577-.06.77-.13.333.036.655-.083.886-.307h.023c.284 0 .397.058.585.155.24.125.54.282 1.095.282.554 0 .854-.157 1.094-.282.188-.097.3-.155.586-.155s.4.058.586.155c.242.125.542.282 1.097.282s.855-.157 1.094-.282c.19-.097.303-.155.588-.155.305 0 .554-.248.554-.555 0-.305-.25-.553-.557-.553zM10.05 10.134l4.648-1.493 1.223-.39.348-.11.345.11 1.224.395 4.648 1.492v1.1l-4.4-1.467-1.225-.41-.386-.13-.207-.027-.205.028-.386.13-1.226.41-4.398 1.466v-1.1zm6.215-3.123l-.07.01.07-.318.07.317-.07-.006zM8.61 12.887l5.786-1.93 1.87-.623 1.87.623 1.542.515 4.243 1.417v1.167l-7.1-2.517v-.128c0-.088-.02-.17-.06-.244-.09-.18-.273-.31-.492-.31-.217 0-.404.13-.494.31-.036.075-.058.157-.058.244v.126L8.61 14.05v-1.167zm5.7-9.01V3.57l1.726.48c.124.045.263.045.388 0l1.796-.487v.307l-1.926.53-.054.02-1.93-.548zm6.473 20.29l-.064-.033c-.24-.123-.54-.28-1.098-.28s-.855.157-1.095.28l-.065.033c-.153.08-.27.122-.52.122-.252 0-.37-.043-.522-.12l-.064-.034c-.24-.123-.54-.28-1.095-.28-.554 0-.853.157-1.093.28l-.066.034c-.15.078-.27.12-.52.12s-.367-.042-.52-.12L14 24.13c-.24-.124-.54-.28-1.096-.28-.555 0-.855.156-1.095.28l-.07.034c-.098.05-.184.086-.3.106l.005-.106-.026-.238c-.54-2.465-1.314-4.922-1.864-6.55l-.007-.017-.41-1.15 4.58-1.623 1.99-.71v5.388c0 .304.248.553.554.553.306 0 .555-.25.555-.554V13.88l1.992.708 4.577 1.623-.41 1.15-.006.014c-.552 1.628-1.323 4.083-1.865 6.548l-.027.24.005.108c-.12-.02-.21-.057-.31-.108zm2.204 5.344c-.555 0-.854.153-1.095.277-.187.098-.3.156-.586.156-.285 0-.398-.057-.585-.155-.24-.124-.54-.278-1.09-.278-.556 0-.856.153-1.096.277-.186.098-.3.156-.584.156-.287 0-.4-.057-.587-.155-.24-.124-.54-.278-1.095-.278-.555 0-.855.154-1.095.278-.187.098-.3.156-.585.156-.284 0-.4-.057-.586-.155-.24-.127-.54-.28-1.095-.28-.306 0-.554.25-.554.553 0 .306.25.554.555.554.285 0 .398.06.586.156.24.127.54.28 1.096.28.555 0 .854-.153 1.095-.28.188-.097.3-.156.586-.156s.4.06.587.157c.24.127.54.28 1.097.28.554 0 .854-.153 1.095-.28.186-.097.3-.156.585-.156s.398.06.586.157c.24.127.54.28 1.095.28.556 0 .855-.153 1.096-.28.188-.097.3-.156.586-.156.306 0 .553-.248.553-.553 0-.306-.247-.554-.554-.554m-9.498-1.61c.24.124.54.28 1.094.28.556 0 .856-.156 1.097-.28.185-.097.3-.155.584-.155s.397.06.584.155c.24.124.54.28 1.096.28.554 0 .854-.156 1.095-.28.187-.097.3-.155.585-.155.306 0 .554-.25.554-.553 0-.306-.25-.555-.556-.555-.555 0-.855.155-1.095.28-.188.097-.3.155-.586.155s-.4-.058-.586-.155c-.24-.125-.54-.28-1.096-.28s-.855.155-1.095.28c-.188.097-.3.155-.587.155s-.398-.058-.585-.155c-.24-.125-.54-.28-1.096-.28s-.856.155-1.096.28c-.188.097-.3.155-.586.155s-.397-.058-.584-.155c-.242-.125-.54-.28-1.096-.28-.555 0-.854.155-1.095.28-.187.097-.3.155-.585.155s-.398-.058-.586-.155c-.243-.125-.54-.28-1.097-.28-.306 0-.554.25-.554.555 0 .304.248.554.554.554.285 0 .398.06.586.156.24.124.54.28 1.093.28.556 0 .854-.156 1.096-.28.184-.097.3-.155.582-.155s.398.06.586.157c.24.124.54.28 1.093.28.556 0 .855-.156 1.095-.28.188-.097.3-.155.586-.155s.4.06.586.156M21.68 6.082c.327-.273.79-.276 1.12-.034l.01.023c.093.195.288.32.503.32h.068c.217 0 .41-.125.505-.32l.01-.024c.33-.243.794-.24 1.12.033.234.197.584.167.78-.067.198-.234.167-.584-.068-.78-.69-.58-1.656-.614-2.378-.154-.72-.46-1.69-.426-2.38.154-.234.195-.265.545-.068.78.197.233.548.265.78.066m2.293-2.29c.325-.273.79-.276 1.12-.035l.01.024c.09.195.286.32.502.32h.067c.216 0 .41-.125.5-.32l.01-.025c.33-.24.796-.238 1.123.035.234.198.584.168.78-.067.197-.236.166-.584-.067-.78-.69-.58-1.657-.615-2.38-.154-.72-.46-1.688-.426-2.378.154-.234.195-.266.543-.068.78.196.234.545.264.78.067" fill="#3B444F"/><path d="M29.708 63.85c-.555 0-.854.156-1.095.28-.187.097-.3.154-.586.154s-.4-.057-.586-.154c-.24-.124-.54-.28-1.09-.28-.556 0-.856.156-1.096.28-.186.097-.3.154-.585.154s-.4-.057-.586-.154c-.174-.092-.38-.195-.688-.247.51-2.186 1.184-4.328 1.678-5.787l.78-2.184c.1-.277.084-.58-.042-.85-.124-.264-.352-.47-.63-.566l-.15-.054v-1.96c0-.238-.15-.45-.376-.525l-1.078-.36.017-.13V49.73c0-.24-.157-.455-.386-.528l-5.65-1.814-.458-2.058 1.824-.506c.24-.065.407-.285.407-.534v-1.524c0-.18-.09-.35-.24-.453-.145-.104-.335-.128-.505-.067l-2.348.692-2.28-.69c-.172-.063-.363-.04-.512.063-.15.107-.24.278-.24.46v1.523c0 .25.165.467.403.535l1.828.52-.455 2.044-5.65 1.814c-.23.073-.386.287-.386.528v1.738l.017.13-1.076.36c-.227.074-.38.287-.38.525v1.96l-.148.054c-.278.097-.504.3-.63.567-.127.27-.142.572-.044.85l.78 2.183c.496 1.46 1.17 3.6 1.68 5.786-.31.052-.516.155-.69.247-.187.098-.3.155-.585.155s-.396-.057-.584-.154c-.242-.123-.54-.28-1.096-.28-.554 0-.854.157-1.095.28-.19.098-.3.155-.586.155s-.4-.06-.586-.156c-.243-.123-.54-.28-1.098-.28-.304 0-.552.25-.552.554 0 .306.248.554.553.554.287 0 .4.057.587.154.24.125.54.282 1.094.282.557 0 .855-.157 1.096-.282.187-.097.3-.155.584-.155s.398.058.586.155c.24.125.54.282 1.094.282.556 0 .854-.158 1.096-.283.186-.097.3-.155.584-.155h.024c.204.194.48.312.772.312l.12-.007c.192.07.43.13.764.13.555 0 .854-.157 1.094-.282.188-.097.3-.155.586-.155s.398.058.585.155c.24.125.54.282 1.093.282s.854-.157 1.095-.282c.187-.097.3-.155.586-.155s.397.057.584.154c.24.125.54.282 1.095.282.553 0 .853-.157 1.094-.282.186-.097.3-.155.584-.155s.398.056.585.153c.24.125.54.282 1.094.282.336 0 .577-.06.77-.13.333.036.655-.083.886-.307h.023c.283 0 .396.057.584.154.24.124.54.28 1.095.28.554 0 .854-.156 1.094-.28.188-.098.3-.156.586-.156s.4.057.586.154c.242.126.542.283 1.097.283s.855-.156 1.094-.28c.19-.097.302-.155.587-.155.305 0 .554-.25.554-.556 0-.306-.25-.554-.555-.554zM10.05 50.134l4.648-1.493 1.223-.39.348-.11.345.11 1.224.395 4.648 1.492v1.1L18.09 49.77l-1.227-.41-.386-.13-.207-.026-.206.028-.386.13-1.226.41-4.398 1.465v-1.1zm6.215-3.123l-.07.01.07-.318.07.317-.07-.006zM8.61 52.887l5.786-1.93 1.87-.623 1.87.623 1.542.515 4.243 1.417v1.167l-7.1-2.517v-.128c0-.088-.02-.17-.06-.244-.09-.18-.273-.31-.492-.31-.217 0-.404.13-.494.31-.036.075-.058.157-.058.244v.126L8.61 54.05v-1.167zm5.7-9.01v-.305l1.726.48c.124.046.263.046.388 0l1.796-.486v.307l-1.926.53-.054.02-1.93-.547zm6.473 20.29l-.064-.033c-.24-.123-.54-.28-1.098-.28s-.855.157-1.095.28l-.065.033c-.153.08-.27.122-.52.122-.252 0-.37-.043-.522-.12l-.064-.034c-.24-.123-.54-.28-1.095-.28-.554 0-.853.157-1.093.28l-.066.034c-.15.078-.27.12-.52.12s-.367-.042-.52-.12L14 64.13c-.24-.124-.54-.28-1.096-.28-.555 0-.855.156-1.095.28l-.07.034c-.098.05-.184.086-.3.106l.005-.106-.026-.238c-.54-2.465-1.314-4.922-1.864-6.55l-.007-.017-.41-1.15 4.58-1.623 1.99-.71v5.388c0 .304.248.553.554.553.306 0 .555-.25.555-.554V53.88l1.992.708 4.577 1.623-.41 1.15-.006.014c-.552 1.628-1.323 4.083-1.865 6.548l-.027.24.005.108c-.12-.02-.21-.057-.31-.108zm2.204 5.344c-.555 0-.854.153-1.095.277-.187.098-.3.156-.586.156-.285 0-.398-.057-.585-.155-.24-.124-.54-.278-1.09-.278-.556 0-.856.153-1.096.277-.186.098-.3.156-.584.156-.287 0-.4-.057-.587-.155-.24-.124-.54-.278-1.095-.278-.555 0-.855.154-1.095.278-.187.098-.3.156-.585.156-.284 0-.4-.057-.586-.155-.24-.127-.54-.28-1.095-.28-.306 0-.554.25-.554.553 0 .306.25.554.555.554.285 0 .398.06.586.156.24.127.54.28 1.096.28.555 0 .854-.153 1.095-.28.188-.097.3-.156.586-.156s.4.06.587.157c.24.127.54.28 1.097.28.554 0 .854-.153 1.095-.28.186-.097.3-.156.585-.156s.398.06.586.157c.24.127.54.28 1.095.28.556 0 .855-.153 1.096-.28.188-.097.3-.156.586-.156.306 0 .553-.248.553-.553 0-.306-.247-.554-.554-.554m-9.498-1.61c.24.124.54.28 1.094.28.556 0 .856-.156 1.097-.28.185-.097.3-.155.584-.155s.397.06.584.155c.24.124.54.28 1.096.28.554 0 .854-.156 1.095-.28.187-.097.3-.155.585-.155.306 0 .554-.25.554-.553 0-.306-.25-.555-.556-.555-.555 0-.855.155-1.095.28-.188.097-.3.155-.586.155s-.4-.058-.586-.155c-.24-.125-.54-.28-1.096-.28s-.855.155-1.095.28c-.188.097-.3.155-.587.155s-.398-.058-.585-.155c-.24-.125-.54-.28-1.096-.28s-.856.155-1.096.28c-.188.097-.3.155-.586.155s-.397-.058-.584-.155c-.242-.125-.54-.28-1.096-.28-.555 0-.854.155-1.095.28-.187.097-.3.155-.585.155s-.398-.058-.586-.155c-.243-.125-.54-.28-1.097-.28-.306 0-.554.25-.554.555 0 .304.248.554.554.554.285 0 .398.06.586.156.24.124.54.28 1.093.28.556 0 .854-.156 1.096-.28.184-.097.3-.155.582-.155s.398.06.586.157c.24.124.54.28 1.093.28.556 0 .855-.156 1.095-.28.188-.097.3-.155.586-.155s.4.06.586.156m8.198-21.824c.327-.273.79-.276 1.12-.034l.01.024c.093.194.288.32.503.32h.067c.215 0 .41-.126.503-.32l.01-.025c.33-.243.794-.24 1.12.033.234.197.584.167.78-.067.198-.234.167-.584-.068-.78-.69-.58-1.657-.614-2.38-.154-.72-.46-1.69-.425-2.38.155-.232.195-.263.545-.066.78.196.233.547.265.78.066m2.292-2.29c.324-.274.79-.277 1.12-.036l.01.024c.09.198.285.32.5.32h.068c.216 0 .41-.122.5-.32l.01-.022c.33-.24.796-.24 1.123.034.235.197.585.167.78-.068.198-.236.167-.584-.066-.78-.69-.58-1.656-.615-2.38-.154-.72-.46-1.687-.424-2.377.156-.234.195-.266.543-.068.78.196.234.545.264.78.067" fill="#67747C"/><path d="M29.708 103.85c-.555 0-.854.156-1.095.28-.187.097-.3.154-.586.154s-.4-.057-.586-.154c-.24-.124-.54-.28-1.09-.28-.556 0-.856.156-1.096.28-.186.097-.3.154-.585.154s-.4-.057-.586-.154c-.174-.092-.38-.195-.688-.247.51-2.186 1.184-4.328 1.678-5.787l.78-2.184c.1-.277.084-.58-.042-.85-.124-.264-.352-.47-.63-.566l-.15-.054v-1.96c0-.238-.15-.45-.376-.525l-1.078-.36.017-.13V89.73c0-.24-.157-.455-.386-.528l-5.65-1.814-.458-2.058 1.824-.506c.24-.065.407-.285.407-.534v-1.524c0-.18-.09-.35-.24-.453-.145-.104-.335-.128-.505-.067l-2.348.692-2.28-.69c-.172-.063-.363-.04-.512.063-.15.107-.24.278-.24.46v1.523c0 .25.165.467.403.535l1.828.52-.455 2.044-5.65 1.814c-.23.073-.386.287-.386.528v1.738l.017.13-1.076.36c-.227.074-.38.287-.38.525v1.96l-.148.054c-.278.097-.504.3-.63.567-.127.27-.142.572-.044.85l.78 2.183c.496 1.46 1.17 3.6 1.68 5.786-.31.052-.516.155-.69.247-.187.098-.3.155-.585.155s-.396-.057-.584-.154c-.242-.123-.54-.28-1.096-.28-.554 0-.854.157-1.095.28-.19.098-.3.155-.586.155s-.4-.06-.586-.156c-.243-.123-.54-.28-1.098-.28-.304 0-.552.25-.552.554 0 .306.248.554.553.554.287 0 .4.057.587.154.24.125.54.282 1.094.282.557 0 .855-.157 1.096-.282.187-.097.3-.155.584-.155s.398.058.586.155c.24.125.54.282 1.094.282.556 0 .854-.158 1.096-.283.186-.097.3-.155.584-.155h.024c.204.194.48.312.772.312l.12-.007c.192.07.43.13.764.13.555 0 .854-.157 1.094-.282.188-.097.3-.155.586-.155s.398.058.585.155c.24.125.54.282 1.093.282s.854-.157 1.095-.282c.187-.097.3-.155.586-.155s.397.057.584.154c.24.125.54.282 1.095.282.553 0 .853-.157 1.094-.282.186-.097.3-.155.584-.155s.398.056.585.153c.24.125.54.282 1.094.282.336 0 .577-.06.77-.13.333.036.655-.083.886-.307h.023c.283 0 .396.057.584.154.24.124.54.28 1.095.28.554 0 .854-.156 1.094-.28.188-.098.3-.156.586-.156s.4.057.586.154c.242.126.542.283 1.097.283s.855-.156 1.094-.28c.19-.097.302-.155.587-.155.305 0 .554-.25.554-.556 0-.306-.25-.554-.555-.554zM10.05 90.134l4.648-1.493 1.223-.39.348-.11.345.11 1.224.395 4.648 1.492v1.1L18.09 89.77l-1.227-.41-.386-.13-.207-.026-.206.028-.386.13-1.226.41-4.398 1.465v-1.1zm6.215-3.123l-.07.01.07-.318.07.317-.07-.006zM8.61 92.887l5.786-1.93 1.87-.623 1.87.623 1.542.515 4.243 1.417v1.167l-7.1-2.517v-.128c0-.088-.02-.17-.06-.244-.09-.18-.273-.31-.492-.31-.217 0-.404.13-.494.31-.036.075-.058.157-.058.244v.126L8.61 94.05v-1.167zm5.7-9.01v-.305l1.726.48c.124.046.263.046.388 0l1.796-.486v.307l-1.926.53-.054.02-1.93-.547zm6.473 20.29l-.064-.033c-.24-.123-.54-.28-1.098-.28s-.855.157-1.095.28l-.065.033c-.153.08-.27.122-.52.122-.252 0-.37-.043-.522-.12l-.064-.034c-.24-.123-.54-.28-1.095-.28-.554 0-.853.157-1.093.28l-.066.034c-.15.078-.27.12-.52.12s-.367-.042-.52-.12l-.06-.037c-.24-.123-.54-.28-1.095-.28-.555 0-.855.157-1.095.28l-.07.035c-.097.05-.183.086-.3.106l.006-.105-.026-.238c-.54-2.465-1.313-4.922-1.863-6.55l-.007-.017-.41-1.15 4.58-1.622 1.992-.71v5.388c0 .304.247.553.553.553.306 0 .555-.25.555-.555V93.88l1.993.708 4.577 1.623-.41 1.15-.005.014c-.552 1.628-1.323 4.083-1.865 6.548l-.026.24.005.108c-.12-.02-.21-.057-.31-.108zm2.204 5.344c-.555 0-.854.153-1.095.277-.187.098-.3.156-.586.156-.285 0-.398-.057-.585-.155-.24-.124-.54-.278-1.09-.278-.556 0-.856.153-1.096.277-.186.098-.3.156-.584.156-.287 0-.4-.057-.587-.155-.24-.124-.54-.278-1.095-.278-.555 0-.855.154-1.095.278-.187.098-.3.156-.585.156-.284 0-.4-.057-.586-.155-.24-.127-.54-.28-1.095-.28-.306 0-.554.25-.554.553 0 .306.25.554.555.554.285 0 .398.06.586.156.24.127.54.28 1.096.28.555 0 .854-.153 1.095-.28.188-.097.3-.156.586-.156s.4.06.587.157c.24.127.54.28 1.097.28.554 0 .854-.153 1.095-.28.186-.097.3-.156.585-.156s.398.06.586.157c.24.127.54.28 1.095.28.556 0 .855-.153 1.096-.28.188-.097.3-.156.586-.156.306 0 .553-.248.553-.553 0-.306-.247-.554-.554-.554m-9.498-1.61c.24.124.54.28 1.094.28.556 0 .856-.156 1.097-.28.185-.097.3-.155.584-.155s.397.06.584.155c.24.124.54.28 1.096.28.554 0 .854-.156 1.095-.28.187-.097.3-.155.585-.155.306 0 .554-.25.554-.553 0-.306-.25-.555-.556-.555-.555 0-.855.155-1.095.28-.188.097-.3.155-.586.155s-.4-.058-.586-.155c-.24-.125-.54-.28-1.096-.28s-.855.155-1.095.28c-.188.097-.3.155-.587.155s-.398-.058-.585-.155c-.24-.125-.54-.28-1.096-.28s-.856.155-1.096.28c-.188.097-.3.155-.586.155s-.397-.058-.584-.155c-.242-.125-.54-.28-1.096-.28-.555 0-.854.155-1.095.28-.187.097-.3.155-.585.155s-.398-.058-.586-.155c-.243-.125-.54-.28-1.097-.28-.306 0-.554.25-.554.555 0 .304.248.554.554.554.285 0 .398.06.586.156.24.124.54.28 1.093.28.556 0 .854-.156 1.096-.28.184-.097.3-.155.582-.155s.398.06.586.157c.24.124.54.28 1.093.28.556 0 .855-.156 1.095-.28.188-.097.3-.155.586-.155s.4.06.586.156m8.198-21.824c.327-.273.79-.276 1.12-.034l.01.024c.093.194.288.32.503.32h.067c.215 0 .41-.126.503-.32l.01-.025c.33-.243.794-.24 1.12.033.234.197.584.167.78-.067.198-.234.167-.584-.068-.78-.69-.58-1.657-.614-2.38-.154-.72-.46-1.69-.425-2.38.155-.232.195-.263.545-.066.78.196.233.547.265.78.066m2.292-2.29c.324-.274.79-.277 1.12-.036l.01.024c.09.198.285.32.5.32h.068c.216 0 .41-.122.5-.32l.01-.022c.33-.24.796-.24 1.123.034.235.197.585.167.78-.068.198-.236.167-.584-.066-.78-.69-.58-1.656-.615-2.38-.154-.72-.46-1.687-.424-2.377.156-.234.195-.266.543-.068.78.196.234.545.264.78.067" fill="#fff"/><path d="M29.708 143.85c-.555 0-.854.156-1.095.28-.187.097-.3.154-.586.154s-.4-.057-.586-.154c-.24-.124-.54-.28-1.09-.28-.556 0-.856.156-1.096.28-.186.097-.3.154-.585.154s-.4-.057-.586-.154c-.174-.092-.38-.195-.688-.247.51-2.186 1.184-4.328 1.678-5.787l.78-2.184c.1-.277.084-.58-.042-.85-.124-.264-.352-.47-.63-.566l-.15-.054v-1.96c0-.238-.15-.45-.376-.525l-1.078-.36.017-.13v-1.737c0-.24-.157-.455-.386-.528l-5.65-1.814-.458-2.058 1.824-.506c.24-.065.407-.285.407-.534v-1.524c0-.18-.09-.35-.24-.453-.145-.104-.335-.128-.505-.067l-2.348.692-2.28-.69c-.172-.063-.363-.04-.512.063-.15.107-.24.278-.24.46v1.523c0 .25.165.467.403.535l1.828.52-.455 2.044-5.65 1.814c-.23.073-.386.287-.386.528v1.738l.017.13-1.076.36c-.227.074-.38.287-.38.525v1.96l-.148.054c-.278.097-.504.3-.63.567-.127.27-.142.572-.044.85l.78 2.183c.496 1.46 1.17 3.6 1.68 5.786-.31.052-.516.155-.69.247-.187.098-.3.155-.585.155s-.396-.057-.584-.154c-.242-.123-.54-.28-1.096-.28-.554 0-.854.157-1.095.28-.19.098-.3.155-.586.155s-.4-.06-.586-.156c-.243-.123-.54-.28-1.098-.28-.304 0-.552.25-.552.554 0 .306.248.554.553.554.287 0 .4.057.587.154.24.125.54.282 1.094.282.557 0 .855-.157 1.096-.282.187-.097.3-.155.584-.155s.398.058.586.155c.24.125.54.282 1.094.282.556 0 .854-.158 1.096-.283.186-.097.3-.155.584-.155h.024c.204.194.48.312.772.312l.12-.007c.192.07.43.13.764.13.555 0 .854-.157 1.094-.282.188-.097.3-.155.586-.155s.398.058.585.155c.24.125.54.282 1.093.282s.854-.157 1.095-.282c.187-.097.3-.155.586-.155s.397.057.584.154c.24.125.54.282 1.095.282.553 0 .853-.157 1.094-.282.186-.097.3-.155.584-.155s.398.056.585.153c.24.125.54.282 1.094.282.336 0 .577-.06.77-.13.333.036.655-.083.886-.307h.023c.283 0 .396.057.584.154.24.124.54.28 1.095.28.554 0 .854-.156 1.094-.28.188-.098.3-.156.586-.156s.4.057.586.154c.242.126.542.283 1.097.283s.855-.156 1.094-.28c.19-.097.302-.155.587-.155.305 0 .554-.25.554-.556 0-.306-.25-.554-.555-.554zM10.05 130.134l4.648-1.493 1.223-.39.348-.11.345.11 1.224.395 4.648 1.492v1.1l-4.396-1.466-1.227-.41-.386-.13-.207-.026-.206.028-.386.13-1.226.41-4.398 1.465v-1.1zm6.215-3.123l-.07.01.07-.318.07.317-.07-.006zm-7.655 5.876l5.786-1.93 1.87-.623 1.87.623 1.542.515 4.243 1.417v1.167l-7.1-2.517v-.128c0-.088-.02-.17-.06-.244-.09-.18-.273-.31-.492-.31-.217 0-.404.13-.494.31-.036.075-.058.157-.058.244v.126l-7.102 2.52v-1.167zm5.7-9.01v-.305l1.726.48c.124.046.263.046.388 0l1.796-.486v.307l-1.926.53-.054.02-1.93-.547zm6.473 20.29l-.064-.033c-.24-.123-.54-.28-1.098-.28s-.855.157-1.095.28l-.065.033c-.153.08-.27.122-.52.122-.252 0-.37-.043-.522-.12l-.064-.034c-.24-.123-.54-.28-1.095-.28-.554 0-.853.157-1.093.28l-.066.034c-.15.078-.27.12-.52.12s-.367-.042-.52-.12l-.06-.037c-.24-.123-.54-.28-1.095-.28-.555 0-.855.157-1.095.28l-.07.035c-.097.05-.183.086-.3.106l.006-.105-.026-.238c-.54-2.465-1.313-4.922-1.863-6.55l-.007-.017-.41-1.15 4.58-1.622 1.992-.71v5.388c0 .304.247.553.553.553.306 0 .555-.25.555-.555v-5.388l1.993.707 4.577 1.623-.41 1.146-.005.015c-.552 1.63-1.323 4.083-1.865 6.55l-.026.24.005.105c-.12-.02-.21-.057-.31-.108zm2.204 5.344c-.555 0-.854.153-1.095.277-.187.098-.3.156-.586.156-.285 0-.398-.057-.585-.155-.24-.124-.54-.278-1.09-.278-.556 0-.856.153-1.096.277-.186.098-.3.156-.584.156-.287 0-.4-.057-.587-.155-.24-.124-.54-.278-1.095-.278-.555 0-.855.154-1.095.278-.187.098-.3.156-.585.156-.284 0-.4-.057-.586-.155-.24-.127-.54-.28-1.095-.28-.306 0-.554.25-.554.553 0 .306.25.554.555.554.285 0 .398.06.586.156.24.127.54.28 1.096.28.555 0 .854-.153 1.095-.28.188-.097.3-.156.586-.156s.4.06.587.157c.24.127.54.28 1.097.28.554 0 .854-.153 1.095-.28.186-.097.3-.156.585-.156s.398.06.586.157c.24.127.54.28 1.095.28.556 0 .855-.153 1.096-.28.188-.097.3-.156.586-.156.306 0 .553-.248.553-.553 0-.306-.247-.554-.554-.554m-9.498-1.61c.24.124.54.28 1.094.28.556 0 .856-.156 1.097-.28.185-.097.3-.155.584-.155s.397.06.584.155c.24.124.54.28 1.096.28.554 0 .854-.156 1.095-.28.187-.097.3-.155.585-.155.306 0 .554-.25.554-.553 0-.306-.25-.555-.556-.555-.555 0-.855.155-1.095.28-.188.097-.3.155-.586.155s-.4-.058-.586-.155c-.24-.125-.54-.28-1.096-.28s-.855.155-1.095.28c-.188.097-.3.155-.587.155s-.398-.058-.585-.155c-.24-.125-.54-.28-1.096-.28s-.856.155-1.096.28c-.188.097-.3.155-.586.155s-.397-.058-.584-.155c-.242-.125-.54-.28-1.096-.28-.555 0-.854.155-1.095.28-.187.097-.3.155-.585.155s-.398-.058-.586-.155c-.243-.125-.54-.28-1.097-.28-.306 0-.554.25-.554.555 0 .304.248.554.554.554.285 0 .398.06.586.156.24.124.54.28 1.093.28.556 0 .854-.156 1.096-.28.184-.097.3-.155.582-.155s.398.06.586.157c.24.124.54.28 1.093.28.556 0 .855-.156 1.095-.28.188-.097.3-.155.586-.155s.4.06.586.156m8.198-21.824c.327-.273.79-.276 1.12-.034l.01.024c.093.194.288.32.503.32h.067c.215 0 .41-.126.503-.32l.01-.025c.33-.243.794-.24 1.12.033.234.197.584.167.78-.067.198-.234.167-.584-.068-.78-.69-.58-1.657-.614-2.38-.154-.72-.46-1.69-.425-2.38.155-.232.195-.263.545-.066.78.196.233.547.265.78.066m2.292-2.29c.324-.274.79-.277 1.12-.036l.01.024c.09.198.285.32.5.32h.068c.216 0 .41-.122.5-.32l.01-.022c.33-.24.796-.24 1.123.034.235.197.585.167.78-.068.198-.236.167-.584-.066-.78-.69-.58-1.656-.615-2.38-.154-.72-.46-1.687-.424-2.377.156-.234.195-.266.543-.068.78.196.234.545.264.78.067" fill="#206FAC"/></g></svg>