<?xml version="1.0" encoding="UTF-8" standalone="no"?>
<svg width="32px" height="232px" viewBox="0 0 32 232" version="1.1" xmlns="http://www.w3.org/2000/svg" xmlns:xlink="http://www.w3.org/1999/xlink" xmlns:sketch="http://www.bohemiancoding.com/sketch/ns">
    <!-- Generator: Sketch 3.0.4 (8054) - http://www.bohemiancoding.com/sketch -->
    <title>festivals-and-events 2</title>
    <desc>Created with Sketch.</desc>
    <defs></defs>
    <g id="Points-of-interest" stroke="none" stroke-width="1" fill="none" fill-rule="evenodd" sketch:type="MSPage">
        <g id="Music" sketch:type="MSLayerGroup">
            <path d="M24.2170323,19.8316667 L23.6595161,19.614 C23.7651935,19.337 23.8688387,19.06 23.9697742,18.7833333 L24.1343871,18.376 C24.1591129,18.3136667 24.175371,18.2486667 24.1845161,18.183 C24.8978387,16.1466667 25.424871,14.1613333 25.424871,12.5043333 C25.424871,7.26333333 20.8438226,3 15.2124355,3 C9.58104839,3 5,7.26333333 5,12.5043333 C5,14.1613333 5.52703226,16.1466667 6.24035484,18.1833333 C6.2495,18.249 6.26541935,18.3136667 6.29048387,18.376 L6.45441935,18.7823333 C6.55569355,19.0593333 6.65967742,19.3366667 6.76535484,19.614 L6.20783871,19.8316667 C5.99309677,19.9156667 5.88809677,20.1553333 5.97345161,20.367 L6.9248871,22.7256667 C6.96587097,22.8276667 7.04614516,22.909 7.14809677,22.9523333 C7.20093548,22.9743333 7.2575,22.9856667 7.31406452,22.9856667 C7.36622581,22.9856667 7.41906452,22.9763333 7.46851613,22.9566667 L8.02772581,22.7383333 C8.04398387,22.7653333 8.0626129,22.79 8.08124194,22.8146667 L8.57406452,24.037 C8.70480645,24.3603333 9.01946774,24.557 9.35241935,24.557 C9.4553871,24.557 9.55970968,24.5383333 9.66098387,24.499 L11.7399839,23.6873333 C11.9465968,23.6063333 12.1118871,23.4483333 12.1999516,23.2476667 C12.2294194,23.1813333 12.2483871,23.1116667 12.2585484,23.0406667 L13.0816129,22.7193333 C13.2963548,22.6353333 13.4013548,22.3963333 13.3163387,22.1846667 L11.0327581,16.5233333 C10.9917742,16.422 10.9115,16.3403333 10.8095484,16.297 C10.7075968,16.2536667 10.5920968,16.252 10.489129,16.2926667 L9.66640323,16.6136667 C9.43946774,16.438 9.12683871,16.3816667 8.83893548,16.4943333 L7.59519355,16.98 C7.05156452,15.3333333 6.67458065,13.776 6.67458065,12.5043333 C6.67458065,10.3393333 7.63143548,8.376 9.17629032,6.95333333 C9.19051613,6.98033333 9.20575806,7.00733333 9.22303226,7.03333333 C9.38425806,7.27266667 9.65048387,7.40233333 9.92212903,7.40233333 C10.0809839,7.40233333 10.2411935,7.358 10.3834516,7.26533333 C11.8128065,6.334 13.4975484,5.84166667 15.2554516,5.84166667 C17.0130161,5.84166667 18.6977581,6.334 20.1271129,7.26533333 C20.2697097,7.358 20.4299194,7.40233333 20.5887742,7.40233333 C20.8600806,7.40233333 21.1266452,7.27266667 21.2875323,7.03333333 C21.2939677,7.02433333 21.2987097,7.015 21.304129,7.00566667 C22.816129,8.42366667 23.7502903,10.3653333 23.7502903,12.5043333 C23.7502903,13.776 23.3733065,15.3333333 22.8296774,16.98 L21.5859355,16.4943333 C21.2980323,16.3816667 20.9850645,16.438 20.7584677,16.6136667 L19.9357419,16.2926667 C19.8327742,16.252 19.7176129,16.2536667 19.6153226,16.297 C19.513371,16.3403333 19.4330968,16.422 19.3921129,16.5233333 L17.1085323,22.1846667 C17.0675484,22.2863333 17.0692419,22.3993333 17.1132742,22.4996667 C17.1569677,22.6 17.2396129,22.6786667 17.3429194,22.7193333 L18.1659839,23.0406667 C18.1764839,23.1116667 18.1954516,23.1813333 18.2245806,23.2476667 C18.3126452,23.4483333 18.4782742,23.6063333 18.6845484,23.6873333 L19.3162419,23.934 C19.1943065,24.2176667 19.0188548,24.4683333 18.8058065,24.678 C18.5812419,24.899 18.314,25.0733333 18.0196613,25.191 C17.7402258,25.3023333 17.4374194,25.3636667 17.1234355,25.3636667 C17.1068387,25.3636667 17.0912581,25.367 17.075,25.3686667 C17.0594194,25.367 17.0438387,25.3636667 17.0272419,25.3636667 L11.6986613,25.3636667 C10.8214032,25.3636667 10.1080806,26.066 10.1080806,26.9293333 C10.1080806,27.7926667 10.8214032,28.495 11.6986613,28.495 L14.2220484,28.495 C14.4530484,28.495 14.6403548,28.3106667 14.6403548,28.083 C14.6403548,27.9823333 14.6024194,27.8916667 14.5417903,27.82 C14.4649032,27.7296667 14.3510968,27.671 14.2220484,27.671 L11.6986613,27.671 C11.2830645,27.671 10.9450323,27.3383333 10.9450323,26.9293333 C10.9450323,26.5206667 11.2830645,26.1876667 11.6986613,26.1876667 L17.0272419,26.1876667 C17.0438387,26.1876667 17.0594194,26.1846667 17.075,26.1826667 C17.0912581,26.1846667 17.1068387,26.1876667 17.1234355,26.1876667 C18.4193387,26.1876667 19.5831452,25.4286667 20.0874839,24.254 C20.0901935,24.2483333 20.090871,24.2426667 20.0932419,24.2373333 L20.7635484,24.499 C20.8651613,24.5383333 20.9694839,24.557 21.0724516,24.557 C21.4054032,24.557 21.7204032,24.3603333 21.8508065,24.037 L22.343629,22.8143333 C22.3625968,22.79 22.3808871,22.7653333 22.3971452,22.7383333 L22.9563548,22.9566667 C23.0068226,22.9766667 23.0589839,22.986 23.1104677,22.986 C23.2771129,22.986 23.4342742,22.8873333 23.4996452,22.7256667 L24.4514194,20.367 C24.4924032,20.2653333 24.4907097,20.152 24.4466774,20.052 C24.4029839,19.9513333 24.32,19.872 24.2170323,19.8316667 L24.2170323,19.8316667 Z M10.4088548,17.2103333 L12.3835323,22.1056667 L12.0549839,22.234 L10.0803065,17.3386667 L10.4088548,17.2103333 L10.4088548,17.2103333 Z M7.54879032,22.0386667 L6.90591935,20.4456667 L7.06443548,20.3836667 C7.27612903,20.9196667 7.49222581,21.453 7.70629032,21.9773333 L7.54879032,22.0386667 L7.54879032,22.0386667 Z M8.67872581,18.3296667 L10.3441613,22.4593333 L9.82153226,22.663 L8.15609677,18.5336667 L8.67872581,18.3296667 L8.67872581,18.3296667 Z M22.7185806,21.9773333 C22.9326452,21.453 23.1487419,20.9196667 23.3604355,20.3836667 L23.5186129,20.4456667 L22.8760806,22.0386667 L22.7185806,21.9773333 L22.7185806,21.9773333 Z M20.603,22.6633333 L20.080371,22.4593333 L21.7464839,18.3296667 L22.2687742,18.5336667 L20.603,22.6633333 L20.603,22.6633333 Z M20.3445645,17.3386667 L18.3695484,22.234 L18.041,22.1056667 L20.0160161,17.2103333 L20.3445645,17.3386667 L20.3445645,17.3386667 Z" id="Imported-Layers" fill="#373D43" sketch:type="MSShapeGroup"></path>
            <path d="M24.2170323,59.8316667 L23.6595161,59.614 C23.7651935,59.337 23.8688387,59.06 23.9697742,58.7833333 L24.1343871,58.376 C24.1591129,58.3136667 24.175371,58.2486667 24.1845161,58.183 C24.8978387,56.1466667 25.424871,54.1613333 25.424871,52.5043333 C25.424871,47.2633333 20.8438226,43 15.2124355,43 C9.58104839,43 5,47.2633333 5,52.5043333 C5,54.1613333 5.52703226,56.1466667 6.24035484,58.1833333 C6.2495,58.249 6.26541935,58.3136667 6.29048387,58.376 L6.45441935,58.7823333 C6.55569355,59.0593333 6.65967742,59.3366667 6.76535484,59.614 L6.20783871,59.8316667 C5.99309677,59.9156667 5.88809677,60.1553333 5.97345161,60.367 L6.9248871,62.7256667 C6.96587097,62.8276667 7.04614516,62.909 7.14809677,62.9523333 C7.20093548,62.9743333 7.2575,62.9856667 7.31406452,62.9856667 C7.36622581,62.9856667 7.41906452,62.9763333 7.46851613,62.9566667 L8.02772581,62.7383333 C8.04398387,62.7653333 8.0626129,62.79 8.08124194,62.8146667 L8.57406452,64.037 C8.70480645,64.3603333 9.01946774,64.557 9.35241935,64.557 C9.4553871,64.557 9.55970968,64.5383333 9.66098387,64.499 L11.7399839,63.6873333 C11.9465968,63.6063333 12.1118871,63.4483333 12.1999516,63.2476667 C12.2294194,63.1813333 12.2483871,63.1116667 12.2585484,63.0406667 L13.0816129,62.7193333 C13.2963548,62.6353333 13.4013548,62.3963333 13.3163387,62.1846667 L11.0327581,56.5233333 C10.9917742,56.422 10.9115,56.3403333 10.8095484,56.297 C10.7075968,56.2536667 10.5920968,56.252 10.489129,56.2926667 L9.66640323,56.6136667 C9.43946774,56.438 9.12683871,56.3816667 8.83893548,56.4943333 L7.59519355,56.98 C7.05156452,55.3333333 6.67458065,53.776 6.67458065,52.5043333 C6.67458065,50.3393333 7.63143548,48.376 9.17629032,46.9533333 C9.19051613,46.9803333 9.20575806,47.0073333 9.22303226,47.0333333 C9.38425806,47.2726667 9.65048387,47.4023333 9.92212903,47.4023333 C10.0809839,47.4023333 10.2411935,47.358 10.3834516,47.2653333 C11.8128065,46.334 13.4975484,45.8416667 15.2554516,45.8416667 C17.0130161,45.8416667 18.6977581,46.334 20.1271129,47.2653333 C20.2697097,47.358 20.4299194,47.4023333 20.5887742,47.4023333 C20.8600806,47.4023333 21.1266452,47.2726667 21.2875323,47.0333333 C21.2939677,47.0243333 21.2987097,47.015 21.304129,47.0056667 C22.816129,48.4236667 23.7502903,50.3653333 23.7502903,52.5043333 C23.7502903,53.776 23.3733065,55.3333333 22.8296774,56.98 L21.5859355,56.4943333 C21.2980323,56.3816667 20.9850645,56.438 20.7584677,56.6136667 L19.9357419,56.2926667 C19.8327742,56.252 19.7176129,56.2536667 19.6153226,56.297 C19.513371,56.3403333 19.4330968,56.422 19.3921129,56.5233333 L17.1085323,62.1846667 C17.0675484,62.2863333 17.0692419,62.3993333 17.1132742,62.4996667 C17.1569677,62.6 17.2396129,62.6786667 17.3429194,62.7193333 L18.1659839,63.0406667 C18.1764839,63.1116667 18.1954516,63.1813333 18.2245806,63.2476667 C18.3126452,63.4483333 18.4782742,63.6063333 18.6845484,63.6873333 L19.3162419,63.934 C19.1943065,64.2176667 19.0188548,64.4683333 18.8058065,64.678 C18.5812419,64.899 18.314,65.0733333 18.0196613,65.191 C17.7402258,65.3023333 17.4374194,65.3636667 17.1234355,65.3636667 C17.1068387,65.3636667 17.0912581,65.367 17.075,65.3686667 C17.0594194,65.367 17.0438387,65.3636667 17.0272419,65.3636667 L11.6986613,65.3636667 C10.8214032,65.3636667 10.1080806,66.066 10.1080806,66.9293333 C10.1080806,67.7926667 10.8214032,68.495 11.6986613,68.495 L14.2220484,68.495 C14.4530484,68.495 14.6403548,68.3106667 14.6403548,68.083 C14.6403548,67.9823333 14.6024194,67.8916667 14.5417903,67.82 C14.4649032,67.7296667 14.3510968,67.671 14.2220484,67.671 L11.6986613,67.671 C11.2830645,67.671 10.9450323,67.3383333 10.9450323,66.9293333 C10.9450323,66.5206667 11.2830645,66.1876667 11.6986613,66.1876667 L17.0272419,66.1876667 C17.0438387,66.1876667 17.0594194,66.1846667 17.075,66.1826667 C17.0912581,66.1846667 17.1068387,66.1876667 17.1234355,66.1876667 C18.4193387,66.1876667 19.5831452,65.4286667 20.0874839,64.254 C20.0901935,64.2483333 20.090871,64.2426667 20.0932419,64.2373333 L20.7635484,64.499 C20.8651613,64.5383333 20.9694839,64.557 21.0724516,64.557 C21.4054032,64.557 21.7204032,64.3603333 21.8508065,64.037 L22.343629,62.8143333 C22.3625968,62.79 22.3808871,62.7653333 22.3971452,62.7383333 L22.9563548,62.9566667 C23.0068226,62.9766667 23.0589839,62.986 23.1104677,62.986 C23.2771129,62.986 23.4342742,62.8873333 23.4996452,62.7256667 L24.4514194,60.367 C24.4924032,60.2653333 24.4907097,60.152 24.4466774,60.052 C24.4029839,59.9513333 24.32,59.872 24.2170323,59.8316667 L24.2170323,59.8316667 Z M10.4088548,57.2103333 L12.3835323,62.1056667 L12.0549839,62.234 L10.0803065,57.3386667 L10.4088548,57.2103333 L10.4088548,57.2103333 Z M7.54879032,62.0386667 L6.90591935,60.4456667 L7.06443548,60.3836667 C7.27612903,60.9196667 7.49222581,61.453 7.70629032,61.9773333 L7.54879032,62.0386667 L7.54879032,62.0386667 Z M8.67872581,58.3296667 L10.3441613,62.4593333 L9.82153226,62.663 L8.15609677,58.5336667 L8.67872581,58.3296667 L8.67872581,58.3296667 Z M22.7185806,61.9773333 C22.9326452,61.453 23.1487419,60.9196667 23.3604355,60.3836667 L23.5186129,60.4456667 L22.8760806,62.0386667 L22.7185806,61.9773333 L22.7185806,61.9773333 Z M20.603,62.6633333 L20.080371,62.4593333 L21.7464839,58.3296667 L22.2687742,58.5336667 L20.603,62.6633333 L20.603,62.6633333 Z M20.3445645,57.3386667 L18.3695484,62.234 L18.041,62.1056667 L20.0160161,57.2103333 L20.3445645,57.3386667 L20.3445645,57.3386667 Z" id="Imported-Layers-11" fill="#67747C" sketch:type="MSShapeGroup"></path>
            <path d="M24.2170323,139.831667 L23.6595161,139.614 C23.7651935,139.337 23.8688387,139.06 23.9697742,138.783333 L24.1343871,138.376 C24.1591129,138.313667 24.175371,138.248667 24.1845161,138.183 C24.8978387,136.146667 25.424871,134.161333 25.424871,132.504333 C25.424871,127.263333 20.8438226,123 15.2124355,123 C9.58104839,123 5,127.263333 5,132.504333 C5,134.161333 5.52703226,136.146667 6.24035484,138.183333 C6.2495,138.249 6.26541935,138.313667 6.29048387,138.376 L6.45441935,138.782333 C6.55569355,139.059333 6.65967742,139.336667 6.76535484,139.614 L6.20783871,139.831667 C5.99309677,139.915667 5.88809677,140.155333 5.97345161,140.367 L6.9248871,142.725667 C6.96587097,142.827667 7.04614516,142.909 7.14809677,142.952333 C7.20093548,142.974333 7.2575,142.985667 7.31406452,142.985667 C7.36622581,142.985667 7.41906452,142.976333 7.46851613,142.956667 L8.02772581,142.738333 C8.04398387,142.765333 8.0626129,142.79 8.08124194,142.814667 L8.57406452,144.037 C8.70480645,144.360333 9.01946774,144.557 9.35241935,144.557 C9.4553871,144.557 9.55970968,144.538333 9.66098387,144.499 L11.7399839,143.687333 C11.9465968,143.606333 12.1118871,143.448333 12.1999516,143.247667 C12.2294194,143.181333 12.2483871,143.111667 12.2585484,143.040667 L13.0816129,142.719333 C13.2963548,142.635333 13.4013548,142.396333 13.3163387,142.184667 L11.0327581,136.523333 C10.9917742,136.422 10.9115,136.340333 10.8095484,136.297 C10.7075968,136.253667 10.5920968,136.252 10.489129,136.292667 L9.66640323,136.613667 C9.43946774,136.438 9.12683871,136.381667 8.83893548,136.494333 L7.59519355,136.98 C7.05156452,135.333333 6.67458065,133.776 6.67458065,132.504333 C6.67458065,130.339333 7.63143548,128.376 9.17629032,126.953333 C9.19051613,126.980333 9.20575806,127.007333 9.22303226,127.033333 C9.38425806,127.272667 9.65048387,127.402333 9.92212903,127.402333 C10.0809839,127.402333 10.2411935,127.358 10.3834516,127.265333 C11.8128065,126.334 13.4975484,125.841667 15.2554516,125.841667 C17.0130161,125.841667 18.6977581,126.334 20.1271129,127.265333 C20.2697097,127.358 20.4299194,127.402333 20.5887742,127.402333 C20.8600806,127.402333 21.1266452,127.272667 21.2875323,127.033333 C21.2939677,127.024333 21.2987097,127.015 21.304129,127.005667 C22.816129,128.423667 23.7502903,130.365333 23.7502903,132.504333 C23.7502903,133.776 23.3733065,135.333333 22.8296774,136.98 L21.5859355,136.494333 C21.2980323,136.381667 20.9850645,136.438 20.7584677,136.613667 L19.9357419,136.292667 C19.8327742,136.252 19.7176129,136.253667 19.6153226,136.297 C19.513371,136.340333 19.4330968,136.422 19.3921129,136.523333 L17.1085323,142.184667 C17.0675484,142.286333 17.0692419,142.399333 17.1132742,142.499667 C17.1569677,142.6 17.2396129,142.678667 17.3429194,142.719333 L18.1659839,143.040667 C18.1764839,143.111667 18.1954516,143.181333 18.2245806,143.247667 C18.3126452,143.448333 18.4782742,143.606333 18.6845484,143.687333 L19.3162419,143.934 C19.1943065,144.217667 19.0188548,144.468333 18.8058065,144.678 C18.5812419,144.899 18.314,145.073333 18.0196613,145.191 C17.7402258,145.302333 17.4374194,145.363667 17.1234355,145.363667 C17.1068387,145.363667 17.0912581,145.367 17.075,145.368667 C17.0594194,145.367 17.0438387,145.363667 17.0272419,145.363667 L11.6986613,145.363667 C10.8214032,145.363667 10.1080806,146.066 10.1080806,146.929333 C10.1080806,147.792667 10.8214032,148.495 11.6986613,148.495 L14.2220484,148.495 C14.4530484,148.495 14.6403548,148.310667 14.6403548,148.083 C14.6403548,147.982333 14.6024194,147.891667 14.5417903,147.82 C14.4649032,147.729667 14.3510968,147.671 14.2220484,147.671 L11.6986613,147.671 C11.2830645,147.671 10.9450323,147.338333 10.9450323,146.929333 C10.9450323,146.520667 11.2830645,146.187667 11.6986613,146.187667 L17.0272419,146.187667 C17.0438387,146.187667 17.0594194,146.184667 17.075,146.182667 C17.0912581,146.184667 17.1068387,146.187667 17.1234355,146.187667 C18.4193387,146.187667 19.5831452,145.428667 20.0874839,144.254 C20.0901935,144.248333 20.090871,144.242667 20.0932419,144.237333 L20.7635484,144.499 C20.8651613,144.538333 20.9694839,144.557 21.0724516,144.557 C21.4054032,144.557 21.7204032,144.360333 21.8508065,144.037 L22.343629,142.814333 C22.3625968,142.79 22.3808871,142.765333 22.3971452,142.738333 L22.9563548,142.956667 C23.0068226,142.976667 23.0589839,142.986 23.1104677,142.986 C23.2771129,142.986 23.4342742,142.887333 23.4996452,142.725667 L24.4514194,140.367 C24.4924032,140.265333 24.4907097,140.152 24.4466774,140.052 C24.4029839,139.951333 24.32,139.872 24.2170323,139.831667 L24.2170323,139.831667 Z M10.4088548,137.210333 L12.3835323,142.105667 L12.0549839,142.234 L10.0803065,137.338667 L10.4088548,137.210333 L10.4088548,137.210333 Z M7.54879032,142.038667 L6.90591935,140.445667 L7.06443548,140.383667 C7.27612903,140.919667 7.49222581,141.453 7.70629032,141.977333 L7.54879032,142.038667 L7.54879032,142.038667 Z M8.67872581,138.329667 L10.3441613,142.459333 L9.82153226,142.663 L8.15609677,138.533667 L8.67872581,138.329667 L8.67872581,138.329667 Z M22.7185806,141.977333 C22.9326452,141.453 23.1487419,140.919667 23.3604355,140.383667 L23.5186129,140.445667 L22.8760806,142.038667 L22.7185806,141.977333 L22.7185806,141.977333 Z M20.603,142.663333 L20.080371,142.459333 L21.7464839,138.329667 L22.2687742,138.533667 L20.603,142.663333 L20.603,142.663333 Z M20.3445645,137.338667 L18.3695484,142.234 L18.041,142.105667 L20.0160161,137.210333 L20.3445645,137.338667 L20.3445645,137.338667 Z" id="Imported-Layers-13" fill="#206FAC" sketch:type="MSShapeGroup"></path>
            <path d="M24.2170323,99.8316667 L23.6595161,99.614 C23.7651935,99.337 23.8688387,99.06 23.9697742,98.7833333 L24.1343871,98.376 C24.1591129,98.3136667 24.175371,98.2486667 24.1845161,98.183 C24.8978387,96.1466667 25.424871,94.1613333 25.424871,92.5043333 C25.424871,87.2633333 20.8438226,83 15.2124355,83 C9.58104839,83 5,87.2633333 5,92.5043333 C5,94.1613333 5.52703226,96.1466667 6.24035484,98.1833333 C6.2495,98.249 6.26541935,98.3136667 6.29048387,98.376 L6.45441935,98.7823333 C6.55569355,99.0593333 6.65967742,99.3366667 6.76535484,99.614 L6.20783871,99.8316667 C5.99309677,99.9156667 5.88809677,100.155333 5.97345161,100.367 L6.9248871,102.725667 C6.96587097,102.827667 7.04614516,102.909 7.14809677,102.952333 C7.20093548,102.974333 7.2575,102.985667 7.31406452,102.985667 C7.36622581,102.985667 7.41906452,102.976333 7.46851613,102.956667 L8.02772581,102.738333 C8.04398387,102.765333 8.0626129,102.79 8.08124194,102.814667 L8.57406452,104.037 C8.70480645,104.360333 9.01946774,104.557 9.35241935,104.557 C9.4553871,104.557 9.55970968,104.538333 9.66098387,104.499 L11.7399839,103.687333 C11.9465968,103.606333 12.1118871,103.448333 12.1999516,103.247667 C12.2294194,103.181333 12.2483871,103.111667 12.2585484,103.040667 L13.0816129,102.719333 C13.2963548,102.635333 13.4013548,102.396333 13.3163387,102.184667 L11.0327581,96.5233333 C10.9917742,96.422 10.9115,96.3403333 10.8095484,96.297 C10.7075968,96.2536667 10.5920968,96.252 10.489129,96.2926667 L9.66640323,96.6136667 C9.43946774,96.438 9.12683871,96.3816667 8.83893548,96.4943333 L7.59519355,96.98 C7.05156452,95.3333333 6.67458065,93.776 6.67458065,92.5043333 C6.67458065,90.3393333 7.63143548,88.376 9.17629032,86.9533333 C9.19051613,86.9803333 9.20575806,87.0073333 9.22303226,87.0333333 C9.38425806,87.2726667 9.65048387,87.4023333 9.92212903,87.4023333 C10.0809839,87.4023333 10.2411935,87.358 10.3834516,87.2653333 C11.8128065,86.334 13.4975484,85.8416667 15.2554516,85.8416667 C17.0130161,85.8416667 18.6977581,86.334 20.1271129,87.2653333 C20.2697097,87.358 20.4299194,87.4023333 20.5887742,87.4023333 C20.8600806,87.4023333 21.1266452,87.2726667 21.2875323,87.0333333 C21.2939677,87.0243333 21.2987097,87.015 21.304129,87.0056667 C22.816129,88.4236667 23.7502903,90.3653333 23.7502903,92.5043333 C23.7502903,93.776 23.3733065,95.3333333 22.8296774,96.98 L21.5859355,96.4943333 C21.2980323,96.3816667 20.9850645,96.438 20.7584677,96.6136667 L19.9357419,96.2926667 C19.8327742,96.252 19.7176129,96.2536667 19.6153226,96.297 C19.513371,96.3403333 19.4330968,96.422 19.3921129,96.5233333 L17.1085323,102.184667 C17.0675484,102.286333 17.0692419,102.399333 17.1132742,102.499667 C17.1569677,102.6 17.2396129,102.678667 17.3429194,102.719333 L18.1659839,103.040667 C18.1764839,103.111667 18.1954516,103.181333 18.2245806,103.247667 C18.3126452,103.448333 18.4782742,103.606333 18.6845484,103.687333 L19.3162419,103.934 C19.1943065,104.217667 19.0188548,104.468333 18.8058065,104.678 C18.5812419,104.899 18.314,105.073333 18.0196613,105.191 C17.7402258,105.302333 17.4374194,105.363667 17.1234355,105.363667 C17.1068387,105.363667 17.0912581,105.367 17.075,105.368667 C17.0594194,105.367 17.0438387,105.363667 17.0272419,105.363667 L11.6986613,105.363667 C10.8214032,105.363667 10.1080806,106.066 10.1080806,106.929333 C10.1080806,107.792667 10.8214032,108.495 11.6986613,108.495 L14.2220484,108.495 C14.4530484,108.495 14.6403548,108.310667 14.6403548,108.083 C14.6403548,107.982333 14.6024194,107.891667 14.5417903,107.82 C14.4649032,107.729667 14.3510968,107.671 14.2220484,107.671 L11.6986613,107.671 C11.2830645,107.671 10.9450323,107.338333 10.9450323,106.929333 C10.9450323,106.520667 11.2830645,106.187667 11.6986613,106.187667 L17.0272419,106.187667 C17.0438387,106.187667 17.0594194,106.184667 17.075,106.182667 C17.0912581,106.184667 17.1068387,106.187667 17.1234355,106.187667 C18.4193387,106.187667 19.5831452,105.428667 20.0874839,104.254 C20.0901935,104.248333 20.090871,104.242667 20.0932419,104.237333 L20.7635484,104.499 C20.8651613,104.538333 20.9694839,104.557 21.0724516,104.557 C21.4054032,104.557 21.7204032,104.360333 21.8508065,104.037 L22.343629,102.814333 C22.3625968,102.79 22.3808871,102.765333 22.3971452,102.738333 L22.9563548,102.956667 C23.0068226,102.976667 23.0589839,102.986 23.1104677,102.986 C23.2771129,102.986 23.4342742,102.887333 23.4996452,102.725667 L24.4514194,100.367 C24.4924032,100.265333 24.4907097,100.152 24.4466774,100.052 C24.4029839,99.9513333 24.32,99.872 24.2170323,99.8316667 L24.2170323,99.8316667 Z M10.4088548,97.2103333 L12.3835323,102.105667 L12.0549839,102.234 L10.0803065,97.3386667 L10.4088548,97.2103333 L10.4088548,97.2103333 Z M7.54879032,102.038667 L6.90591935,100.445667 L7.06443548,100.383667 C7.27612903,100.919667 7.49222581,101.453 7.70629032,101.977333 L7.54879032,102.038667 L7.54879032,102.038667 Z M8.67872581,98.3296667 L10.3441613,102.459333 L9.82153226,102.663 L8.15609677,98.5336667 L8.67872581,98.3296667 L8.67872581,98.3296667 Z M22.7185806,101.977333 C22.9326452,101.453 23.1487419,100.919667 23.3604355,100.383667 L23.5186129,100.445667 L22.8760806,102.038667 L22.7185806,101.977333 L22.7185806,101.977333 Z M20.603,102.663333 L20.080371,102.459333 L21.7464839,98.3296667 L22.2687742,98.5336667 L20.603,102.663333 L20.603,102.663333 Z M20.3445645,97.3386667 L18.3695484,102.234 L18.041,102.105667 L20.0160161,97.2103333 L20.3445645,97.3386667 L20.3445645,97.3386667 Z" id="Imported-Layers-12" fill="#FFFFFF" sketch:type="MSShapeGroup"></path>
        </g>
    </g>
</svg>