<svg width="32" height="232" viewBox="0 0 32 232" xmlns="http://www.w3.org/2000/svg" xmlns:sketch="http://www.bohemiancoding.com/sketch/ns"><title>festivals-and-events 2</title><desc>Created with Sketch.</desc><g sketch:type="MSLayerGroup" fill="none"><path d="M24.217 19.832l-.558-.218.31-.831.165-.407.05-.193c.713-2.036 1.24-4.022 1.24-5.679 0-5.241-4.581-9.504-10.212-9.504-5.631 0-10.212 4.263-10.212 9.504 0 1.657.527 3.642 1.24 5.679l.05.193.164.406.311.832-.558.218c-.215.084-.32.324-.234.535l.951 2.359c.041.102.121.183.223.227l.166.033.154-.029.559-.218.054.076.493 1.222c.131.323.445.52.778.52.103 0 .207-.019.309-.058l2.079-.812c.207-.081.372-.239.46-.44l.059-.207.823-.321c.215-.084.32-.323.235-.535l-2.284-5.661c-.041-.101-.121-.183-.223-.226-.102-.043-.217-.045-.32-.004l-.823.321c-.227-.176-.54-.232-.827-.119l-1.244.486c-.544-1.647-.921-3.204-.921-4.476 0-2.165.957-4.128 2.502-5.551l.047.08c.161.239.427.369.699.369.159 0 .319-.044.461-.137 1.429-.931 3.114-1.424 4.872-1.424s3.442.492 4.872 1.424c.143.093.303.137.462.137.271 0 .538-.13.699-.369l.017-.028c1.512 1.418 2.446 3.36 2.446 5.499 0 1.272-.377 2.829-.921 4.476l-1.244-.486c-.288-.113-.601-.056-.827.119l-.823-.321c-.103-.041-.218-.039-.32.004-.102.043-.182.125-.223.226l-2.284 5.661c-.041.102-.039.215.005.315s.126.179.23.22l.823.321.059.207c.088.201.254.359.46.44l.632.247c-.122.284-.297.534-.51.744-.225.221-.492.395-.786.513-.279.111-.582.173-.896.173l-.048.005-.048-.005h-5.329c-.877 0-1.591.702-1.591 1.566 0 .863.713 1.566 1.591 1.566h2.523c.231 0 .418-.184.418-.412 0-.101-.038-.191-.099-.263-.077-.09-.191-.149-.32-.149h-2.523c-.416 0-.754-.333-.754-.742s.338-.742.754-.742h5.329l.048-.005.048.005c1.296 0 2.46-.759 2.964-1.934l.006-.017.67.262c.102.039.206.058.309.058.333 0 .648-.197.778-.52l.493-1.223.054-.076.559.218.154.029c.167 0 .324-.099.389-.26l.952-2.359c.041-.102.039-.215-.005-.315-.044-.101-.127-.18-.23-.22zm-13.808-2.621l1.975 4.895-.329.128-1.975-4.895.329-.128zm-2.86 4.828l-.643-1.593.159-.062c.212.536.428 1.069.642 1.594l-.157.061zm1.13-3.709l1.665 4.13-.523.204-1.665-4.129.523-.204zm14.04 3.648c.214-.524.43-1.058.642-1.594l.158.062-.643 1.593-.158-.061zm-2.116.686l-.523-.204 1.666-4.13.522.204-1.666 4.13zm-.258-5.325l-1.975 4.895-.329-.128 1.975-4.895.329.128z" fill="#373D43" sketch:type="MSShapeGroup"/><path d="M24.217 59.832l-.558-.218.31-.831.165-.407.05-.193c.713-2.036 1.24-4.022 1.24-5.679 0-5.241-4.581-9.504-10.212-9.504-5.631 0-10.212 4.263-10.212 9.504 0 1.657.527 3.642 1.24 5.679l.05.193.164.406.311.832-.558.218c-.215.084-.32.324-.234.535l.951 2.359c.041.102.121.183.223.227l.166.033.154-.029.559-.218.054.076.493 1.222c.131.323.445.52.778.52.103 0 .207-.019.309-.058l2.079-.812c.207-.081.372-.239.46-.44l.059-.207.823-.321c.215-.084.32-.323.235-.535l-2.284-5.661c-.041-.101-.121-.183-.223-.226-.102-.043-.217-.045-.32-.004l-.823.321c-.227-.176-.54-.232-.827-.119l-1.244.486c-.544-1.647-.921-3.204-.921-4.476 0-2.165.957-4.128 2.502-5.551l.047.08c.161.239.427.369.699.369.159 0 .319-.044.461-.137 1.429-.931 3.114-1.424 4.872-1.424s3.442.492 4.872 1.424c.143.093.303.137.462.137.271 0 .538-.13.699-.369l.017-.028c1.512 1.418 2.446 3.36 2.446 5.499 0 1.272-.377 2.829-.921 4.476l-1.244-.486c-.288-.113-.601-.056-.827.119l-.823-.321c-.103-.041-.218-.039-.32.004-.102.043-.182.125-.223.226l-2.284 5.661c-.041.102-.039.215.005.315s.126.179.23.22l.823.321.059.207c.088.201.254.359.46.44l.632.247c-.122.284-.297.534-.51.744-.225.221-.492.395-.786.513-.279.111-.582.173-.896.173l-.048.005-.048-.005h-5.329c-.877 0-1.591.702-1.591 1.566 0 .863.713 1.566 1.591 1.566h2.523c.231 0 .418-.184.418-.412 0-.101-.038-.191-.099-.263-.077-.09-.191-.149-.32-.149h-2.523c-.416 0-.754-.333-.754-.742s.338-.742.754-.742h5.329l.048-.005.048.005c1.296 0 2.46-.759 2.964-1.934l.006-.017.67.262c.102.039.206.058.309.058.333 0 .648-.197.778-.52l.493-1.223.054-.076.559.218.154.029c.167 0 .324-.099.389-.26l.952-2.359c.041-.102.039-.215-.005-.315-.044-.101-.127-.18-.23-.22zm-13.808-2.621l1.975 4.895-.329.128-1.975-4.895.329-.128zm-2.86 4.828l-.643-1.593.159-.062c.212.536.428 1.069.642 1.594l-.157.061zm1.13-3.709l1.665 4.13-.523.204-1.665-4.129.523-.204zm14.04 3.648c.214-.524.43-1.058.642-1.594l.158.062-.643 1.593-.158-.061zm-2.116.686l-.523-.204 1.666-4.13.522.204-1.666 4.13zm-.258-5.325l-1.975 4.895-.329-.128 1.975-4.895.329.128z" fill="#67747C" sketch:type="MSShapeGroup"/><path d="M24.217 139.832l-.558-.218.31-.831.165-.407.05-.193c.713-2.036 1.24-4.022 1.24-5.679 0-5.241-4.581-9.504-10.212-9.504-5.631 0-10.212 4.263-10.212 9.504 0 1.657.527 3.642 1.24 5.679l.05.193.164.406.311.832-.558.218c-.215.084-.32.324-.234.535l.951 2.359c.041.102.121.183.223.227l.166.033.154-.029.559-.218.054.076.493 1.222c.131.323.445.52.778.52.103 0 .207-.019.309-.058l2.079-.812c.207-.081.372-.239.46-.44l.059-.207.823-.321c.215-.084.32-.323.235-.535l-2.284-5.661c-.041-.101-.121-.183-.223-.226-.102-.043-.217-.045-.32-.004l-.823.321c-.227-.176-.54-.232-.827-.119l-1.244.486c-.544-1.647-.921-3.204-.921-4.476 0-2.165.957-4.128 2.502-5.551l.047.08c.161.239.427.369.699.369.159 0 .319-.044.461-.137 1.429-.931 3.114-1.424 4.872-1.424s3.442.492 4.872 1.424c.143.093.303.137.462.137.271 0 .538-.13.699-.369l.017-.028c1.512 1.418 2.446 3.36 2.446 5.499 0 1.272-.377 2.829-.921 4.476l-1.244-.486c-.288-.113-.601-.056-.827.119l-.823-.321c-.103-.041-.218-.039-.32.004-.102.043-.182.125-.223.226l-2.284 5.661c-.041.102-.039.215.005.315s.126.179.23.22l.823.321.059.207c.088.201.254.359.46.44l.632.247c-.122.284-.297.534-.51.744-.225.221-.492.395-.786.513-.279.111-.582.173-.896.173l-.048.005-.048-.005h-5.329c-.877 0-1.591.702-1.591 1.566 0 .863.713 1.566 1.591 1.566h2.523c.231 0 .418-.184.418-.412 0-.101-.038-.191-.099-.263-.077-.09-.191-.149-.32-.149h-2.523c-.416 0-.754-.333-.754-.742s.338-.742.754-.742h5.329l.048-.005.048.005c1.296 0 2.46-.759 2.964-1.934l.006-.017.67.262c.102.039.206.058.309.058.333 0 .648-.197.778-.52l.493-1.223.054-.076.559.218.154.029c.167 0 .324-.099.389-.26l.952-2.359c.041-.102.039-.215-.005-.315-.044-.101-.127-.18-.23-.22zm-13.808-2.621l1.975 4.895-.329.128-1.975-4.895.329-.128zm-2.86 4.828l-.643-1.593.159-.062c.212.536.428 1.069.642 1.594l-.157.061zm1.13-3.709l1.665 4.13-.523.204-1.665-4.129.523-.204zm14.04 3.648c.214-.524.43-1.058.642-1.594l.158.062-.643 1.593-.158-.061zm-2.116.686l-.523-.204 1.666-4.13.522.204-1.666 4.13zm-.258-5.325l-1.975 4.895-.329-.128 1.975-4.895.329.128z" fill="#206FAC" sketch:type="MSShapeGroup"/><path d="M24.217 99.832l-.558-.218.31-.831.165-.407.05-.193c.713-2.036 1.24-4.022 1.24-5.679 0-5.241-4.581-9.504-10.212-9.504-5.631 0-10.212 4.263-10.212 9.504 0 1.657.527 3.642 1.24 5.679l.05.193.164.406.311.832-.558.218c-.215.084-.32.324-.234.535l.951 2.359c.041.102.121.183.223.227l.166.033.154-.029.559-.218.054.076.493 1.222c.131.323.445.52.778.52.103 0 .207-.019.309-.058l2.079-.812c.207-.081.372-.239.46-.44l.059-.207.823-.321c.215-.084.32-.323.235-.535l-2.284-5.661c-.041-.101-.121-.183-.223-.226-.102-.043-.217-.045-.32-.004l-.823.321c-.227-.176-.54-.232-.827-.119l-1.244.486c-.544-1.647-.921-3.204-.921-4.476 0-2.165.957-4.128 2.502-5.551l.047.08c.161.239.427.369.699.369.159 0 .319-.044.461-.137 1.429-.931 3.114-1.424 4.872-1.424s3.442.492 4.872 1.424c.143.093.303.137.462.137.271 0 .538-.13.699-.369l.017-.028c1.512 1.418 2.446 3.36 2.446 5.499 0 1.272-.377 2.829-.921 4.476l-1.244-.486c-.288-.113-.601-.056-.827.119l-.823-.321c-.103-.041-.218-.039-.32.004-.102.043-.182.125-.223.226l-2.284 5.661c-.041.102-.039.215.005.315s.126.179.23.22l.823.321.059.207c.088.201.254.359.46.44l.632.247c-.122.284-.297.534-.51.744-.225.221-.492.395-.786.513-.279.111-.582.173-.896.173l-.048.005-.048-.005h-5.329c-.877 0-1.591.702-1.591 1.566 0 .863.713 1.566 1.591 1.566h2.523c.231 0 .418-.184.418-.412 0-.101-.038-.191-.099-.263-.077-.09-.191-.149-.32-.149h-2.523c-.416 0-.754-.333-.754-.742s.338-.742.754-.742h5.329l.048-.005.048.005c1.296 0 2.46-.759 2.964-1.934l.006-.017.67.262c.102.039.206.058.309.058.333 0 .648-.197.778-.52l.493-1.223.054-.076.559.218.154.029c.167 0 .324-.099.389-.26l.952-2.359c.041-.102.039-.215-.005-.315-.044-.101-.127-.18-.23-.22zm-13.808-2.621l1.975 4.895-.329.128-1.975-4.895.329-.128zm-2.86 4.828l-.643-1.593.159-.062c.212.536.428 1.069.642 1.594l-.157.061zm1.13-3.709l1.665 4.13-.523.204-1.665-4.129.523-.204zm14.04 3.648c.214-.524.43-1.058.642-1.594l.158.062-.643 1.593-.158-.061zm-2.116.686l-.523-.204 1.666-4.13.522.204-1.666 4.13zm-.258-5.325l-1.975 4.895-.329-.128 1.975-4.895.329.128z" fill="#fff" sketch:type="MSShapeGroup"/></g></svg>