<svg width="32" height="232" viewBox="0 0 32 232" xmlns="http://www.w3.org/2000/svg"><title>festivals-and-events 2</title><desc>Created with Sketch.</desc><g fill="none"><path d="M24.217 19.832l-.558-.218.31-.83.164-.408.05-.193c.713-2.036 1.24-4.022 1.24-5.68 0-5.24-4.58-9.503-10.212-9.503C9.582 3 5 7.263 5 12.504c0 1.657.527 3.642 1.24 5.68l.05.192.164.406.31.832-.557.218c-.215.084-.32.324-.234.535l.95 2.36c.042.1.122.182.224.226l.166.033.154-.03.56-.217.053.075.493 1.222c.13.323.445.52.778.52.104 0 .208-.02.31-.058l2.08-.813c.206-.08.37-.24.46-.44l.058-.207.823-.32c.216-.085.32-.324.236-.536l-2.284-5.66c-.04-.102-.12-.184-.223-.227-.103-.043-.218-.045-.32-.004l-.824.32c-.227-.175-.54-.23-.827-.118l-1.245.486c-.544-1.646-.92-3.203-.92-4.475 0-2.165.956-4.128 2.5-5.55l.048.08c.16.238.427.368.7.368.158 0 .318-.044.46-.137 1.43-.93 3.114-1.424 4.872-1.424s3.442.492 4.872 1.424c.143.093.303.137.462.137.27 0 .537-.13.698-.37l.017-.027c1.512 1.418 2.446 3.36 2.446 5.5 0 1.27-.376 2.828-.92 4.475l-1.244-.485c-.288-.113-.6-.056-.827.12l-.824-.322c-.103-.04-.218-.04-.32.004-.102.043-.182.125-.223.226l-2.284 5.66c-.042.103-.04.216.004.316s.126.178.23.22l.823.32.06.207c.087.2.253.36.46.44l.63.247c-.12.284-.296.534-.51.744-.224.22-.49.395-.785.513-.28.112-.582.174-.896.174l-.048.005-.048-.006H11.7c-.876 0-1.59.702-1.59 1.566 0 .863.713 1.566 1.59 1.566h2.524c.23 0 .418-.184.418-.412 0-.1-.038-.19-.1-.263-.076-.09-.19-.148-.32-.148H11.7c-.416 0-.754-.333-.754-.742s.338-.742.754-.742h5.33l.047-.005.048.005c1.296 0 2.46-.76 2.964-1.934l.005-.017.67.262c.102.038.206.057.31.057.332 0 .647-.197.777-.52l.493-1.223.054-.076.558.218.154.03c.167 0 .324-.1.39-.26l.95-2.36c.042-.102.04-.215-.004-.315s-.127-.18-.23-.22zm-13.808-2.62l1.974 4.894-.33.128-1.974-4.895.33-.13zm-2.86 4.827l-.644-1.594.16-.062c.21.536.427 1.07.64 1.594l-.156.06zm1.13-3.71l1.664 4.13-.523.204-1.664-4.13.523-.203zm14.04 3.648c.213-.524.43-1.058.64-1.594l.16.062-.644 1.593-.158-.062zm-2.117.686l-.523-.204 1.666-4.13.522.204-1.666 4.13zm-.258-5.325l-1.975 4.894-.33-.128 1.976-4.895.33.13z" fill="#373D43"/><path d="M24.217 59.832l-.558-.218.31-.83.164-.408.05-.193c.713-2.036 1.24-4.022 1.24-5.68 0-5.24-4.58-9.503-10.212-9.503C9.582 43 5 47.263 5 52.504c0 1.657.527 3.642 1.24 5.68l.05.192.164.406.31.832-.557.218c-.215.084-.32.324-.234.535l.95 2.36c.042.1.122.182.224.226l.166.033.154-.03.56-.217.053.075.493 1.222c.13.323.445.52.778.52.104 0 .208-.02.31-.058l2.08-.813c.206-.08.37-.24.46-.44l.058-.207.823-.32c.216-.085.32-.324.236-.536l-2.284-5.66c-.04-.102-.12-.184-.223-.227-.103-.043-.218-.045-.32-.004l-.824.32c-.227-.175-.54-.23-.827-.118l-1.245.486c-.544-1.646-.92-3.203-.92-4.475 0-2.165.956-4.128 2.5-5.55l.048.08c.16.238.427.368.7.368.158 0 .318-.044.46-.137 1.43-.93 3.114-1.424 4.872-1.424s3.442.492 4.872 1.424c.143.093.303.137.462.137.27 0 .537-.13.698-.37l.017-.027c1.512 1.418 2.446 3.36 2.446 5.5 0 1.27-.376 2.828-.92 4.475l-1.244-.485c-.288-.113-.6-.056-.827.12l-.824-.322c-.103-.04-.218-.04-.32.004-.102.043-.182.125-.223.226l-2.284 5.66c-.042.103-.04.216.004.316s.126.178.23.22l.823.32.06.207c.087.2.253.36.46.44l.63.247c-.12.284-.296.534-.51.744-.224.22-.49.395-.785.513-.28.112-.582.174-.896.174l-.048.005-.048-.006H11.7c-.876 0-1.59.702-1.59 1.566 0 .863.713 1.566 1.59 1.566h2.524c.23 0 .418-.184.418-.412 0-.1-.038-.19-.1-.263-.076-.09-.19-.148-.32-.148H11.7c-.416 0-.754-.333-.754-.742s.338-.742.754-.742h5.33l.047-.005.048.005c1.296 0 2.46-.76 2.964-1.934l.005-.017.67.262c.102.038.206.057.31.057.332 0 .647-.197.777-.52l.493-1.223.054-.076.558.218.154.03c.167 0 .324-.1.39-.26l.95-2.36c.042-.102.04-.215-.004-.315s-.127-.18-.23-.22zm-13.808-2.62l1.974 4.894-.33.128-1.974-4.895.33-.13zm-2.86 4.827l-.644-1.594.16-.062c.21.536.427 1.07.64 1.594l-.156.06zm1.13-3.71l1.664 4.13-.523.204-1.664-4.13.523-.203zm14.04 3.648c.213-.524.43-1.058.64-1.594l.16.062-.644 1.593-.158-.062zm-2.117.686l-.523-.204 1.666-4.13.522.204-1.666 4.13zm-.258-5.325l-1.975 4.894-.33-.128 1.976-4.895.33.13z" fill="#67747C"/><path d="M24.217 139.832l-.558-.218.31-.83.164-.408.05-.193c.713-2.036 1.24-4.022 1.24-5.68 0-5.24-4.58-9.503-10.212-9.503C9.582 123 5 127.263 5 132.504c0 1.657.527 3.642 1.24 5.68l.05.192.164.406.31.832-.557.218c-.215.084-.32.324-.234.535l.95 2.36c.042.1.122.182.224.226l.166.033.154-.03.56-.217.053.075.493 1.222c.13.323.445.52.778.52.104 0 .208-.02.31-.058l2.08-.813c.206-.08.37-.24.46-.44l.058-.207.823-.32c.216-.085.32-.324.236-.536l-2.284-5.66c-.04-.102-.12-.184-.223-.227-.103-.043-.218-.045-.32-.004l-.824.32c-.227-.175-.54-.23-.827-.118l-1.245.486c-.544-1.646-.92-3.203-.92-4.475 0-2.165.956-4.128 2.5-5.55l.048.08c.16.238.427.368.7.368.158 0 .318-.044.46-.137 1.43-.93 3.114-1.424 4.872-1.424s3.442.492 4.872 1.424c.143.093.303.137.462.137.27 0 .537-.13.698-.37l.017-.027c1.512 1.418 2.446 3.36 2.446 5.5 0 1.27-.376 2.828-.92 4.475l-1.244-.485c-.288-.113-.6-.056-.827.12l-.824-.322c-.103-.04-.218-.04-.32.004-.102.043-.182.125-.223.226l-2.284 5.66c-.042.103-.04.216.004.316s.126.178.23.22l.823.32.06.207c.087.2.253.36.46.44l.63.247c-.12.284-.296.534-.51.744-.224.22-.49.395-.785.513-.28.112-.582.174-.896.174l-.048.005-.048-.006H11.7c-.876 0-1.59.702-1.59 1.566 0 .863.713 1.566 1.59 1.566h2.524c.23 0 .418-.184.418-.412 0-.1-.038-.19-.1-.263-.076-.09-.19-.148-.32-.148H11.7c-.416 0-.754-.333-.754-.742s.338-.742.754-.742h5.33l.047-.005.048.005c1.296 0 2.46-.76 2.964-1.934l.005-.017.67.262c.102.038.206.057.31.057.332 0 .647-.197.777-.52l.493-1.223.054-.076.558.218.154.03c.167 0 .324-.1.39-.26l.95-2.36c.042-.102.04-.215-.004-.315s-.127-.18-.23-.22zm-13.808-2.62l1.974 4.894-.33.128-1.974-4.895.33-.13zm-2.86 4.827l-.644-1.594.16-.062c.21.536.427 1.07.64 1.594l-.156.06zm1.13-3.71l1.664 4.13-.523.204-1.664-4.13.523-.203zm14.04 3.648c.213-.524.43-1.058.64-1.594l.16.062-.644 1.593-.158-.062zm-2.117.686l-.523-.204 1.666-4.13.522.204-1.666 4.13zm-.258-5.325l-1.975 4.894-.33-.128 1.976-4.895.33.13z" fill="#206FAC"/><path d="M24.217 99.832l-.558-.218.31-.83.164-.408.05-.193c.713-2.036 1.24-4.022 1.24-5.68 0-5.24-4.58-9.503-10.212-9.503C9.582 83 5 87.263 5 92.504c0 1.657.527 3.642 1.24 5.68l.05.192.164.406.31.832-.557.218c-.215.084-.32.324-.234.535l.95 2.36c.042.1.122.182.224.226l.166.033.154-.03.56-.217.053.075.493 1.222c.13.323.445.52.778.52.104 0 .208-.02.31-.058l2.08-.813c.206-.08.37-.24.46-.44l.058-.207.823-.32c.216-.085.32-.324.236-.536l-2.284-5.66c-.04-.102-.12-.184-.223-.227-.103-.043-.218-.045-.32-.004l-.824.32c-.227-.175-.54-.23-.827-.118l-1.245.486c-.544-1.646-.92-3.203-.92-4.475 0-2.165.956-4.128 2.5-5.55l.048.08c.16.238.427.368.7.368.158 0 .318-.044.46-.137 1.43-.93 3.114-1.424 4.872-1.424s3.442.492 4.872 1.424c.143.093.303.137.462.137.27 0 .537-.13.698-.37l.017-.027c1.512 1.418 2.446 3.36 2.446 5.5 0 1.27-.376 2.828-.92 4.475l-1.244-.485c-.288-.113-.6-.056-.827.12l-.824-.322c-.103-.04-.218-.04-.32.004-.102.043-.182.125-.223.226l-2.284 5.66c-.042.103-.04.216.004.316s.126.178.23.22l.823.32.06.207c.087.2.253.36.46.44l.63.247c-.12.284-.296.534-.51.744-.224.22-.49.395-.785.513-.28.112-.582.174-.896.174l-.048.005-.048-.006H11.7c-.876 0-1.59.702-1.59 1.566 0 .863.713 1.566 1.59 1.566h2.524c.23 0 .418-.184.418-.412 0-.1-.038-.19-.1-.263-.076-.09-.19-.148-.32-.148H11.7c-.416 0-.754-.333-.754-.742s.338-.742.754-.742h5.33l.047-.005.048.005c1.296 0 2.46-.76 2.964-1.934l.005-.017.67.262c.102.038.206.057.31.057.332 0 .647-.197.777-.52l.493-1.223.054-.076.558.218.154.03c.167 0 .324-.1.39-.26l.95-2.36c.042-.102.04-.215-.004-.315s-.127-.18-.23-.22zm-13.808-2.62l1.974 4.894-.33.128-1.974-4.895.33-.13zm-2.86 4.827l-.644-1.594.16-.062c.21.536.427 1.07.64 1.594l-.156.06zm1.13-3.71l1.664 4.13-.523.204-1.664-4.13.523-.203zm14.04 3.648c.213-.524.43-1.058.64-1.594l.16.062-.644 1.593-.158-.062zm-2.117.686l-.523-.204 1.666-4.13.522.204-1.666 4.13zm-.258-5.325l-1.975 4.894-.33-.128 1.976-4.895.33.13z" fill="#fff"/></g></svg>