<?xml version="1.0" encoding="UTF-8" standalone="no"?>
<svg width="32px" height="232px" viewBox="0 0 32 232" version="1.1" xmlns="http://www.w3.org/2000/svg" xmlns:xlink="http://www.w3.org/1999/xlink" xmlns:sketch="http://www.bohemiancoding.com/sketch/ns">
    <!-- Generator: Sketch 3.0.4 (8054) - http://www.bohemiancoding.com/sketch -->
    <title>gear-and-tech 2</title>
    <desc>Created with Sketch.</desc>
    <defs></defs>
    <g id="Points-of-interest" stroke="none" stroke-width="1" fill="none" fill-rule="evenodd" sketch:type="MSPage">
        <g id="Off-the-Beaten-Track" sketch:type="MSLayerGroup">
            <g id="Imported-Layers" transform="translate(6.000000, 5.000000)" fill="#373D43" sketch:type="MSShapeGroup">
                <path d="M20.5986667,0.216432432 C20.398,0.0802702703 20.143375,0.0552972973 19.9208333,0.150432432 L13.712125,2.80321622 L7.50370833,0.150432432 C7.3255,0.0743243243 7.12454167,0.0743243243 6.94604167,0.150432432 L0.458791667,2.92243243 C0.19075,3.03689189 0.016625,3.30416216 0.016625,3.60027027 L0.016625,17.0740811 C0.016625,17.3202432 0.137083333,17.5497568 0.338041667,17.6859189 C0.458208333,17.7673784 0.597625,17.8087027 0.737333333,17.8087027 C0.832125,17.8087027 0.926625,17.7902703 1.01616667,17.7519189 L7.224875,15.0988378 L13.4335833,17.7519189 C13.6117917,17.828027 13.8121667,17.828027 13.9909583,17.7519189 L20.4782083,14.9799189 C20.7459583,14.8654595 20.920375,14.5984865 20.920375,14.3020811 L20.920375,0.82827027 C20.920375,0.582108108 20.799625,0.352594595 20.5986667,0.216432432 L20.5986667,0.216432432 Z M1.458625,4.08902703 L6.75733333,1.82481081 L6.75733333,7.34175676 L6.713875,7.35602703 C6.52429167,7.41875676 6.42075,7.62567568 6.482,7.81862162 C6.52370833,7.95091892 6.63220833,8.04159459 6.75733333,8.06597297 L6.75733333,13.7051081 L1.458625,15.9693243 L1.458625,4.08902703 L1.458625,4.08902703 Z M7.47833333,13.615027 L7.47833333,7.84181081 C7.57983333,7.74756757 7.62445833,7.59891892 7.57954167,7.45710811 C7.55941667,7.39408108 7.52325,7.34145946 7.47833333,7.29954054 L7.47833333,1.73324324 L13.3869167,4.25789189 L13.3869167,12.4359459 C13.2340833,12.4686486 13.1139167,12.5985676 13.1007917,12.7650541 C13.0865,12.9514595 13.2119167,13.1143784 13.3869167,13.1518378 L13.3869167,16.1381892 L7.50370833,13.6242432 C7.49525,13.6206757 7.48679167,13.6182973 7.47833333,13.615027 L7.47833333,13.615027 Z M19.478375,13.8133243 L14.107625,16.1081622 L14.107625,12.867027 L14.1332917,12.7727838 C14.1580833,12.6821081 14.1458333,12.5902432 14.107625,12.5117568 L14.107625,11.7655405 C14.1160833,11.7664324 14.1248333,11.7676216 14.133,11.7676216 C14.2907917,11.7676216 14.4360417,11.6608919 14.4800833,11.4982703 L14.5961667,11.0734324 C14.64925,10.8778108 14.5369583,10.6753514 14.3453333,10.6212432 C14.2630833,10.5980541 14.18025,10.6072703 14.107625,10.6387838 L14.107625,4.22786486 L19.478375,1.93302703 L19.478375,13.8133243 L19.478375,13.8133243 Z" id="Fill-1"></path>
                <path d="M7.08225,17.0788378 L7.08225,17.0740811 C7.08225,16.871027 6.92125,16.7066216 6.72204167,16.7066216 C6.52283333,16.7066216 6.36183333,16.871027 6.36183333,17.0740811 L6.36183333,17.0788378 C5.002375,17.1968649 3.98329167,17.9737027 3.98329167,18.944973 C3.98329167,18.944973 3.98329167,18.944973 3.98329167,18.9452703 L3.98329167,19.8915676 C3.98329167,20.9466757 5.186125,21.7734595 6.72204167,21.7734595 C8.25766667,21.7734595 9.46079167,20.9466757 9.46079167,19.8915676 L9.46079167,18.9452703 L9.46079167,18.944973 C9.46079167,17.9737027 8.44170833,17.1968649 7.08225,17.0788378 L7.08225,17.0788378 Z M8.62866667,18.5775135 C8.700125,18.6937568 8.74008333,18.8171351 8.74008333,18.944973 C8.74008333,18.944973 8.74008333,18.944973 8.74008333,18.9452703 C8.74008333,18.9892703 8.73454167,19.032973 8.72579167,19.0760811 C8.70829167,19.1578378 8.67533333,19.2366216 8.62866667,19.3127297 C8.60620833,19.3487027 8.581125,19.3837838 8.55254167,19.4182703 C8.52279167,19.4545405 8.48954167,19.4899189 8.453375,19.5241081 C8.299375,19.6697838 8.09054167,19.7958378 7.84408333,19.8915676 C7.52091667,20.0176216 7.13358333,20.0919459 6.72204167,20.0919459 C6.3105,20.0919459 5.92316667,20.0176216 5.59941667,19.8915676 C5.35325,19.7958378 5.14470833,19.6697838 4.99041667,19.5241081 C4.95425,19.4899189 4.92129167,19.4545405 4.89154167,19.4182703 C4.86325,19.3837838 4.837875,19.3487027 4.81570833,19.3127297 C4.76875,19.2366216 4.73579167,19.1578378 4.71858333,19.0760811 C4.70983333,19.032973 4.70429167,18.9892703 4.70429167,18.9452703 L4.70429167,18.944973 C4.70429167,18.8171351 4.74395833,18.6937568 4.81570833,18.5775135 C4.83379167,18.5480811 4.8545,18.5183514 4.87695833,18.4898108 C5.19370833,18.086973 5.91120833,17.7977027 6.72204167,17.7977027 C7.53316667,17.7977027 8.250375,18.086973 8.56741667,18.4898108 C8.589875,18.5183514 8.61029167,18.5480811 8.62866667,18.5775135 L8.62866667,18.5775135 Z M4.87695833,20.347027 C5.36025,20.6464054 6.00483333,20.8268649 6.72204167,20.8268649 C7.43954167,20.8268649 8.08383333,20.6464054 8.56741667,20.347027 C8.25066667,20.7495676 7.53316667,21.0385405 6.72204167,21.0385405 C5.91091667,21.0385405 5.19341667,20.7495676 4.87695833,20.347027 L4.87695833,20.347027 Z" id="Fill-2"></path>
                <path d="M7.49583333,18.9452703 L6.95304167,18.7523243 L6.82033333,18.7056486 L6.77483333,18.9452703 L6.72233333,19.2232432 L8.4175,19.2797297 L8.44316667,19.2809189 L8.40175,19.2660541 L7.49583333,18.9452703" id="Fill-3"></path>
                <path d="M4.99916667,18.6286486 L5.2325,18.7115946 L5.74583333,18.8929459 L5.89195833,18.9452703 L6.622,19.2036216 L6.671,18.9452703 L6.70920833,18.7448919 L6.72,18.6863243 L5.37979167,18.6414324 L4.99916667,18.6286486" id="Fill-4"></path>
                <path d="M12.194875,12.3241622 L11.8924167,12.2997838 L11.8722917,12.2917568 C11.6867917,12.2174324 11.4779583,12.3101892 11.40475,12.498973 C11.3318333,12.6880541 11.423125,12.9015135 11.6083333,12.9755405 L11.678625,13.0037838 C11.711875,13.0171622 11.7465833,13.0251892 11.7824583,13.0281622 L12.1382917,13.0567027 C12.147625,13.0572973 12.1575417,13.0578919 12.1671667,13.0578919 C12.35325,13.0578919 12.5113333,12.9116216 12.5259167,12.718973 C12.541375,12.5168108 12.3932083,12.3399189 12.194875,12.3241622" id="Fill-5"></path>
                <path d="M16.440375,11.8452162 C16.407125,11.6451351 16.2210417,11.5101622 16.0250417,11.5434595 C15.8290417,11.5767568 15.6960417,11.7661351 15.729,11.9665135 L15.8001667,12.4011622 C15.829625,12.581027 15.9824583,12.7082703 16.1557083,12.7082703 C16.17525,12.7082703 16.195375,12.7064865 16.2155,12.7032162 C16.4117917,12.6696216 16.5445,12.4802432 16.51125,12.2801622 L16.440375,11.8452162" id="Fill-6"></path>
                <path d="M11.7357917,8.94181081 C11.820375,8.87848649 11.87375,8.78037838 11.881625,8.67364865 C11.8897917,8.56691892 11.8515833,8.46167568 11.7769167,8.38616216 L11.7325833,8.34067568 C11.5917083,8.19708108 11.3633333,8.19708108 11.2224583,8.34067568 C11.183375,8.38081081 11.1547917,8.42808108 11.1372917,8.47802703 L11.0107083,8.57286486 C10.8505833,8.69327027 10.815875,8.92337838 10.934,9.08689189 C11.004875,9.1847027 11.1139583,9.23643243 11.2247917,9.23643243 C11.298875,9.23643243 11.3735417,9.21324324 11.438,9.16508108 L11.7357917,8.94181081" id="Fill-7"></path>
                <path d="M17.3325833,6.03691892 L17.3509583,6.15405405 C17.3795417,6.33481081 17.532375,6.46354054 17.7067917,6.46354054 C17.7254583,6.46354054 17.745,6.46175676 17.7636667,6.45878378 C17.9605417,6.42667568 18.0944167,6.23789189 18.062625,6.03781081 L18.0063333,5.67837838 C17.9876667,5.56094595 17.91475,5.45986486 17.810625,5.40724324 C17.705625,5.35462162 17.5825417,5.3567027 17.4795833,5.41318919 L17.4130833,5.44975676 C17.2377917,5.54578378 17.171875,5.76845946 17.2666667,5.94713514 C17.2841667,5.98132432 17.306625,6.01135135 17.3325833,6.03691892" id="Fill-8"></path>
                <path d="M16.7994167,8.67245946 L16.9971667,9.06459459 C17.0613333,9.19124324 17.1873333,9.26378378 17.3182917,9.26378378 C17.3734167,9.26378378 17.4302917,9.2507027 17.4827917,9.22275676 C17.6598333,9.13 17.72925,8.90821622 17.63825,8.72775676 L17.4399167,8.33591892 C17.3489167,8.15575676 17.1313333,8.0847027 16.9542917,8.17745946 C16.7775417,8.27051351 16.708125,8.492 16.7994167,8.67245946" id="Fill-9"></path>
                <path d="M15.024625,8.37783784 C15.071875,8.39924324 15.1211667,8.40905405 15.1695833,8.40905405 C15.308125,8.40905405 15.4405417,8.327 15.49975,8.18935135 L15.673875,7.78591892 C15.754375,7.60010811 15.6715417,7.38337838 15.48925,7.30162162 C15.3069583,7.21986486 15.094625,7.304 15.014125,7.48981081 L14.84,7.89354054 C14.7595,8.07905405 14.8423333,8.29608108 15.024625,8.37783784" id="Fill-10"></path>
                <path d="M14.4993333,10.0545946 C14.5317083,10.0638108 14.5640833,10.067973 14.595875,10.067973 C14.7539583,10.067973 14.898625,9.96154054 14.9429583,9.79891892 L15.05875,9.37378378 C15.112125,9.17845946 14.9995417,8.9757027 14.807625,8.92159459 C14.6157083,8.86718919 14.417375,8.98164865 14.364,9.17727027 L14.2485,9.60210811 C14.195125,9.79772973 14.3074167,10.0004865 14.4993333,10.0545946" id="Fill-11"></path>
                <path d="M17.6300833,12.3402162 L17.1978333,12.3262432 C16.9997917,12.3208919 16.832375,12.4790541 16.82625,12.6818108 C16.8198333,12.8848649 16.975875,13.0543243 17.1747917,13.0608649 L17.6073333,13.0751351 L17.6187083,13.0751351 C17.8126667,13.0751351 17.9727917,12.9181622 17.9789167,12.7195676 C17.9853333,12.5165135 17.8292917,12.3467568 17.6300833,12.3402162" id="Fill-12"></path>
                <path d="M16.8198333,10.5228378 C16.7708333,10.3257297 16.5745417,10.2068108 16.3814583,10.2564595 L15.962625,10.3646757 C15.7689583,10.4143243 15.6522917,10.6141081 15.7012917,10.8109189 C15.7424167,10.9774054 15.889125,11.0882973 16.050125,11.0882973 C16.0795833,11.0882973 16.1093333,11.0847297 16.1390833,11.077 L16.5587917,10.9687838 C16.7515833,10.9194324 16.86825,10.7193514 16.8198333,10.5228378" id="Fill-13"></path>
                <path d="M17.85525,7.03910811 C17.689875,7.06616216 17.569125,7.20351351 17.5536667,7.36524324 L17.53325,7.37624324 C17.3588333,7.47316216 17.2937917,7.69613514 17.3882917,7.87451351 C17.4539167,7.9972973 17.577875,8.06686486 17.705625,8.06686486 C17.7636667,8.06686486 17.8225833,8.0522973 17.877125,8.02227027 L18.11075,7.89324324 C18.2452083,7.81891892 18.3192917,7.66610811 18.2947917,7.51210811 L18.26825,7.34383784 C18.23675,7.14345946 18.0515417,7.007 17.85525,7.03910811" id="Fill-14"></path>
                <path d="M17.7470417,9.74540541 C17.6589583,9.79178378 17.5977083,9.86967568 17.569125,9.95856757 C17.4195,10.0331892 17.3360833,10.2071081 17.3786667,10.3786486 C17.420375,10.5448378 17.5667917,10.6557297 17.7277917,10.6557297 C17.75725,10.6557297 17.7867083,10.6521622 17.8164583,10.6444324 L18.0760417,10.5778378 C18.1827917,10.5501892 18.2711667,10.4746757 18.316375,10.3724054 C18.3612917,10.2701351 18.358375,10.1527027 18.3082083,10.0531081 L18.2326667,9.90356757 C18.141375,9.72340541 17.9237917,9.65264865 17.7470417,9.74540541" id="Fill-15"></path>
                <path d="M16.060625,6.97667568 C16.118375,6.97667568 16.1767083,6.9627027 16.23125,6.93297297 L16.6121667,6.72367568 C16.7871667,6.62764865 16.8530833,6.40467568 16.7585833,6.226 C16.6640833,6.04732432 16.4453333,5.98043243 16.2703333,6.07675676 L15.889125,6.28575676 C15.714125,6.38208108 15.6482083,6.60475676 15.743,6.78343243 C15.80775,6.90651351 15.932,6.97667568 16.060625,6.97667568" id="Fill-16"></path>
                <path d="M3.69920833,7.04089189 C3.64,6.84705405 3.43758333,6.73943243 3.24741667,6.80037838 L2.83470833,6.93237838 C2.64454167,6.99332432 2.53895833,7.19935135 2.59875,7.39289189 C2.646875,7.54986486 2.78920833,7.65035135 2.942625,7.65035135 C2.97820833,7.65035135 3.014375,7.645 3.05054167,7.63340541 L3.46325,7.50140541 C3.653125,7.44075676 3.759,7.23443243 3.69920833,7.04089189" id="Fill-17"></path>
                <path d="M5.41391667,9.98205405 C5.243,9.8782973 5.021625,9.93567568 4.91983333,10.1101892 L4.69845833,10.4889459 C4.59695833,10.6634595 4.65295833,10.8891081 4.82416667,10.9928649 C4.88191667,11.0276486 4.9455,11.0442973 5.00820833,11.0442973 C5.131,11.0442973 5.250875,10.9803784 5.31825,10.8647297 L5.53933333,10.4856757 C5.64141667,10.3114595 5.58483333,10.0858108 5.41391667,9.98205405" id="Fill-18"></path>
                <path d="M4.28283333,7.60724324 L4.11775,8.01483784 C4.04191667,8.20243243 4.129125,8.41737838 4.31345833,8.49467568 C4.358375,8.5137027 4.40475,8.52262162 4.45083333,8.52262162 C4.59229167,8.52262162 4.72675,8.4367027 4.78420833,8.29489189 L4.949,7.88759459 C5.025125,7.7 4.937625,7.48505405 4.75358333,7.40775676 C4.56954167,7.33045946 4.35866667,7.41994595 4.28283333,7.60724324" id="Fill-19"></path>
                <path d="M4.316375,9.36932432 C4.31316667,9.22810811 4.22975,9.09551351 4.09325,9.03813514 C3.90891667,8.96083784 3.698625,9.05002703 3.62279167,9.23762162 L3.58575,9.32859459 C3.53295833,9.45910811 3.55833333,9.60924324 3.651375,9.71448649 L3.87566667,9.96927027 C3.94683333,10.0498378 4.04541667,10.0908649 4.144,10.0908649 C4.23004167,10.0908649 4.31608333,10.0599459 4.38491667,9.99691892 C4.53308333,9.86105405 4.54504167,9.62886486 4.41204167,9.47783784 L4.316375,9.36932432" id="Fill-20"></path>
                <path d="M5.35033333,6.51259459 C5.29083333,6.31875676 5.08841667,6.21113514 4.89825,6.27178378 L4.48554167,6.40408108 C4.295375,6.46472973 4.18979167,6.67105405 4.24929167,6.86459459 C4.29770833,7.02156757 4.44033333,7.12205405 4.59345833,7.12205405 C4.62904167,7.12205405 4.6655,7.1167027 4.70108333,7.10510811 L5.11408333,6.97310811 C5.30425,6.91245946 5.40983333,6.70613514 5.35033333,6.51259459" id="Fill-21"></path>
                <path d="M10.0945833,10.1764865 L10.3926667,9.94875676 C10.553375,9.82894595 10.5875,9.59883784 10.4696667,9.43502703 C10.3515417,9.27151351 10.1255,9.23672973 9.965375,9.35713514 L9.65679167,9.58813514 C9.64075,9.60032432 9.625875,9.6137027 9.611875,9.62856757 L9.57745833,9.66483784 C9.43833333,9.81051351 9.442125,10.043 9.58475,10.1842162 C9.65475,10.2534865 9.74545833,10.287973 9.83616667,10.287973 C9.93008333,10.287973 10.024,10.2508108 10.0945833,10.1764865" id="Fill-22"></path>
                <path d="M10.6647917,11.8074595 L10.2622917,11.646027 C10.0770833,11.5717027 9.867375,11.6647568 9.79445833,11.8535405 C9.72154167,12.0423243 9.81283333,12.2557838 9.99804167,12.3301081 L10.4005417,12.4912432 C10.444,12.5087838 10.488625,12.5168108 10.532375,12.5168108 C10.6764583,12.5168108 10.8120833,12.4285135 10.868375,12.284027 C10.9412917,12.0949459 10.8497083,11.8817838 10.6647917,11.8074595" id="Fill-23"></path>
                <path d="M6.29854167,8.46613514 C6.12704167,8.36237838 5.90595833,8.41975676 5.80416667,8.59397297 L5.58308333,8.97332432 C5.48129167,9.14754054 5.53729167,9.37318919 5.7085,9.47664865 C5.76654167,9.51172973 5.82954167,9.52867568 5.89225,9.52867568 C6.01533333,9.52867568 6.13520833,9.46445946 6.202875,9.34881081 L6.42366667,8.96975676 C6.52575,8.79554054 6.46945833,8.56989189 6.29854167,8.46613514" id="Fill-24"></path>
                <path d="M8.89729167,7.62954054 C9.06645833,7.62954054 9.21725,7.50735135 9.25108333,7.33164865 C9.28870833,7.13245946 9.160375,6.93951351 8.96525,6.90086486 L8.54058333,6.81732432 C8.344875,6.77867568 8.15616667,6.90918919 8.11825,7.10837838 C8.08033333,7.30756757 8.208375,7.50051351 8.40379167,7.53886486 L8.82845833,7.62240541 C8.8515,7.62716216 8.87454167,7.62954054 8.89729167,7.62954054" id="Fill-25"></path>
                <path d="M10.10275,7.87362162 L10.29175,7.91078378 L10.3051667,7.92475676 C10.3754583,7.99640541 10.4679167,8.03237838 10.5600833,8.03237838 C10.6525417,8.03237838 10.7447083,7.99640541 10.815,7.92475676 C10.9561667,7.78116216 10.9561667,7.54867568 10.815,7.40508108 L10.7234167,7.31143243 C10.6726667,7.2597027 10.6073333,7.22462162 10.53675,7.21064865 L10.23925,7.15208108 C10.0435417,7.11343243 9.85483333,7.24394595 9.81720833,7.44313514 C9.779,7.64262162 9.90733333,7.83497297 10.10275,7.87362162" id="Fill-26"></path>
                <path d="M9.10029167,10.5718919 C8.901375,10.5718919 8.74008333,10.7362973 8.74008333,10.9393514 L8.74008333,11.3802432 C8.74008333,11.583 8.901375,11.7477027 9.10029167,11.7477027 C9.2995,11.7477027 9.46079167,11.583 9.46079167,11.3802432 L9.46079167,10.9393514 C9.46079167,10.7362973 9.2995,10.5718919 9.10029167,10.5718919" id="Fill-27"></path>
                <path d="M2.98404167,5.14651351 L5.85316667,3.85654054 C6.03545833,3.77448649 6.118,3.55775676 6.0375,3.37194595 C5.95729167,3.18643243 5.744375,3.1022973 5.562375,3.18405405 L2.69295833,4.47402703 C2.51095833,4.55608108 2.42841667,4.77310811 2.50891667,4.95862162 C2.56841667,5.09627027 2.70054167,5.17802703 2.83879167,5.17802703 C2.88720833,5.17802703 2.93679167,5.16791892 2.98404167,5.14651351" id="Fill-28"></path>
            </g>
            <g id="Imported-Layers-14" transform="translate(6.000000, 45.000000)" fill="#67747C" sketch:type="MSShapeGroup">
                <path d="M20.5986667,0.216432432 C20.398,0.0802702703 20.143375,0.0552972973 19.9208333,0.150432432 L13.712125,2.80321622 L7.50370833,0.150432432 C7.3255,0.0743243243 7.12454167,0.0743243243 6.94604167,0.150432432 L0.458791667,2.92243243 C0.19075,3.03689189 0.016625,3.30416216 0.016625,3.60027027 L0.016625,17.0740811 C0.016625,17.3202432 0.137083333,17.5497568 0.338041667,17.6859189 C0.458208333,17.7673784 0.597625,17.8087027 0.737333333,17.8087027 C0.832125,17.8087027 0.926625,17.7902703 1.01616667,17.7519189 L7.224875,15.0988378 L13.4335833,17.7519189 C13.6117917,17.828027 13.8121667,17.828027 13.9909583,17.7519189 L20.4782083,14.9799189 C20.7459583,14.8654595 20.920375,14.5984865 20.920375,14.3020811 L20.920375,0.82827027 C20.920375,0.582108108 20.799625,0.352594595 20.5986667,0.216432432 L20.5986667,0.216432432 Z M1.458625,4.08902703 L6.75733333,1.82481081 L6.75733333,7.34175676 L6.713875,7.35602703 C6.52429167,7.41875676 6.42075,7.62567568 6.482,7.81862162 C6.52370833,7.95091892 6.63220833,8.04159459 6.75733333,8.06597297 L6.75733333,13.7051081 L1.458625,15.9693243 L1.458625,4.08902703 L1.458625,4.08902703 Z M7.47833333,13.615027 L7.47833333,7.84181081 C7.57983333,7.74756757 7.62445833,7.59891892 7.57954167,7.45710811 C7.55941667,7.39408108 7.52325,7.34145946 7.47833333,7.29954054 L7.47833333,1.73324324 L13.3869167,4.25789189 L13.3869167,12.4359459 C13.2340833,12.4686486 13.1139167,12.5985676 13.1007917,12.7650541 C13.0865,12.9514595 13.2119167,13.1143784 13.3869167,13.1518378 L13.3869167,16.1381892 L7.50370833,13.6242432 C7.49525,13.6206757 7.48679167,13.6182973 7.47833333,13.615027 L7.47833333,13.615027 Z M19.478375,13.8133243 L14.107625,16.1081622 L14.107625,12.867027 L14.1332917,12.7727838 C14.1580833,12.6821081 14.1458333,12.5902432 14.107625,12.5117568 L14.107625,11.7655405 C14.1160833,11.7664324 14.1248333,11.7676216 14.133,11.7676216 C14.2907917,11.7676216 14.4360417,11.6608919 14.4800833,11.4982703 L14.5961667,11.0734324 C14.64925,10.8778108 14.5369583,10.6753514 14.3453333,10.6212432 C14.2630833,10.5980541 14.18025,10.6072703 14.107625,10.6387838 L14.107625,4.22786486 L19.478375,1.93302703 L19.478375,13.8133243 L19.478375,13.8133243 Z" id="Fill-1"></path>
                <path d="M7.08225,17.0788378 L7.08225,17.0740811 C7.08225,16.871027 6.92125,16.7066216 6.72204167,16.7066216 C6.52283333,16.7066216 6.36183333,16.871027 6.36183333,17.0740811 L6.36183333,17.0788378 C5.002375,17.1968649 3.98329167,17.9737027 3.98329167,18.944973 C3.98329167,18.944973 3.98329167,18.944973 3.98329167,18.9452703 L3.98329167,19.8915676 C3.98329167,20.9466757 5.186125,21.7734595 6.72204167,21.7734595 C8.25766667,21.7734595 9.46079167,20.9466757 9.46079167,19.8915676 L9.46079167,18.9452703 L9.46079167,18.944973 C9.46079167,17.9737027 8.44170833,17.1968649 7.08225,17.0788378 L7.08225,17.0788378 Z M8.62866667,18.5775135 C8.700125,18.6937568 8.74008333,18.8171351 8.74008333,18.944973 C8.74008333,18.944973 8.74008333,18.944973 8.74008333,18.9452703 C8.74008333,18.9892703 8.73454167,19.032973 8.72579167,19.0760811 C8.70829167,19.1578378 8.67533333,19.2366216 8.62866667,19.3127297 C8.60620833,19.3487027 8.581125,19.3837838 8.55254167,19.4182703 C8.52279167,19.4545405 8.48954167,19.4899189 8.453375,19.5241081 C8.299375,19.6697838 8.09054167,19.7958378 7.84408333,19.8915676 C7.52091667,20.0176216 7.13358333,20.0919459 6.72204167,20.0919459 C6.3105,20.0919459 5.92316667,20.0176216 5.59941667,19.8915676 C5.35325,19.7958378 5.14470833,19.6697838 4.99041667,19.5241081 C4.95425,19.4899189 4.92129167,19.4545405 4.89154167,19.4182703 C4.86325,19.3837838 4.837875,19.3487027 4.81570833,19.3127297 C4.76875,19.2366216 4.73579167,19.1578378 4.71858333,19.0760811 C4.70983333,19.032973 4.70429167,18.9892703 4.70429167,18.9452703 L4.70429167,18.944973 C4.70429167,18.8171351 4.74395833,18.6937568 4.81570833,18.5775135 C4.83379167,18.5480811 4.8545,18.5183514 4.87695833,18.4898108 C5.19370833,18.086973 5.91120833,17.7977027 6.72204167,17.7977027 C7.53316667,17.7977027 8.250375,18.086973 8.56741667,18.4898108 C8.589875,18.5183514 8.61029167,18.5480811 8.62866667,18.5775135 L8.62866667,18.5775135 Z M4.87695833,20.347027 C5.36025,20.6464054 6.00483333,20.8268649 6.72204167,20.8268649 C7.43954167,20.8268649 8.08383333,20.6464054 8.56741667,20.347027 C8.25066667,20.7495676 7.53316667,21.0385405 6.72204167,21.0385405 C5.91091667,21.0385405 5.19341667,20.7495676 4.87695833,20.347027 L4.87695833,20.347027 Z" id="Fill-2"></path>
                <path d="M7.49583333,18.9452703 L6.95304167,18.7523243 L6.82033333,18.7056486 L6.77483333,18.9452703 L6.72233333,19.2232432 L8.4175,19.2797297 L8.44316667,19.2809189 L8.40175,19.2660541 L7.49583333,18.9452703" id="Fill-3"></path>
                <path d="M4.99916667,18.6286486 L5.2325,18.7115946 L5.74583333,18.8929459 L5.89195833,18.9452703 L6.622,19.2036216 L6.671,18.9452703 L6.70920833,18.7448919 L6.72,18.6863243 L5.37979167,18.6414324 L4.99916667,18.6286486" id="Fill-4"></path>
                <path d="M12.194875,12.3241622 L11.8924167,12.2997838 L11.8722917,12.2917568 C11.6867917,12.2174324 11.4779583,12.3101892 11.40475,12.498973 C11.3318333,12.6880541 11.423125,12.9015135 11.6083333,12.9755405 L11.678625,13.0037838 C11.711875,13.0171622 11.7465833,13.0251892 11.7824583,13.0281622 L12.1382917,13.0567027 C12.147625,13.0572973 12.1575417,13.0578919 12.1671667,13.0578919 C12.35325,13.0578919 12.5113333,12.9116216 12.5259167,12.718973 C12.541375,12.5168108 12.3932083,12.3399189 12.194875,12.3241622" id="Fill-5"></path>
                <path d="M16.440375,11.8452162 C16.407125,11.6451351 16.2210417,11.5101622 16.0250417,11.5434595 C15.8290417,11.5767568 15.6960417,11.7661351 15.729,11.9665135 L15.8001667,12.4011622 C15.829625,12.581027 15.9824583,12.7082703 16.1557083,12.7082703 C16.17525,12.7082703 16.195375,12.7064865 16.2155,12.7032162 C16.4117917,12.6696216 16.5445,12.4802432 16.51125,12.2801622 L16.440375,11.8452162" id="Fill-6"></path>
                <path d="M11.7357917,8.94181081 C11.820375,8.87848649 11.87375,8.78037838 11.881625,8.67364865 C11.8897917,8.56691892 11.8515833,8.46167568 11.7769167,8.38616216 L11.7325833,8.34067568 C11.5917083,8.19708108 11.3633333,8.19708108 11.2224583,8.34067568 C11.183375,8.38081081 11.1547917,8.42808108 11.1372917,8.47802703 L11.0107083,8.57286486 C10.8505833,8.69327027 10.815875,8.92337838 10.934,9.08689189 C11.004875,9.1847027 11.1139583,9.23643243 11.2247917,9.23643243 C11.298875,9.23643243 11.3735417,9.21324324 11.438,9.16508108 L11.7357917,8.94181081" id="Fill-7"></path>
                <path d="M17.3325833,6.03691892 L17.3509583,6.15405405 C17.3795417,6.33481081 17.532375,6.46354054 17.7067917,6.46354054 C17.7254583,6.46354054 17.745,6.46175676 17.7636667,6.45878378 C17.9605417,6.42667568 18.0944167,6.23789189 18.062625,6.03781081 L18.0063333,5.67837838 C17.9876667,5.56094595 17.91475,5.45986486 17.810625,5.40724324 C17.705625,5.35462162 17.5825417,5.3567027 17.4795833,5.41318919 L17.4130833,5.44975676 C17.2377917,5.54578378 17.171875,5.76845946 17.2666667,5.94713514 C17.2841667,5.98132432 17.306625,6.01135135 17.3325833,6.03691892" id="Fill-8"></path>
                <path d="M16.7994167,8.67245946 L16.9971667,9.06459459 C17.0613333,9.19124324 17.1873333,9.26378378 17.3182917,9.26378378 C17.3734167,9.26378378 17.4302917,9.2507027 17.4827917,9.22275676 C17.6598333,9.13 17.72925,8.90821622 17.63825,8.72775676 L17.4399167,8.33591892 C17.3489167,8.15575676 17.1313333,8.0847027 16.9542917,8.17745946 C16.7775417,8.27051351 16.708125,8.492 16.7994167,8.67245946" id="Fill-9"></path>
                <path d="M15.024625,8.37783784 C15.071875,8.39924324 15.1211667,8.40905405 15.1695833,8.40905405 C15.308125,8.40905405 15.4405417,8.327 15.49975,8.18935135 L15.673875,7.78591892 C15.754375,7.60010811 15.6715417,7.38337838 15.48925,7.30162162 C15.3069583,7.21986486 15.094625,7.304 15.014125,7.48981081 L14.84,7.89354054 C14.7595,8.07905405 14.8423333,8.29608108 15.024625,8.37783784" id="Fill-10"></path>
                <path d="M14.4993333,10.0545946 C14.5317083,10.0638108 14.5640833,10.067973 14.595875,10.067973 C14.7539583,10.067973 14.898625,9.96154054 14.9429583,9.79891892 L15.05875,9.37378378 C15.112125,9.17845946 14.9995417,8.9757027 14.807625,8.92159459 C14.6157083,8.86718919 14.417375,8.98164865 14.364,9.17727027 L14.2485,9.60210811 C14.195125,9.79772973 14.3074167,10.0004865 14.4993333,10.0545946" id="Fill-11"></path>
                <path d="M17.6300833,12.3402162 L17.1978333,12.3262432 C16.9997917,12.3208919 16.832375,12.4790541 16.82625,12.6818108 C16.8198333,12.8848649 16.975875,13.0543243 17.1747917,13.0608649 L17.6073333,13.0751351 L17.6187083,13.0751351 C17.8126667,13.0751351 17.9727917,12.9181622 17.9789167,12.7195676 C17.9853333,12.5165135 17.8292917,12.3467568 17.6300833,12.3402162" id="Fill-12"></path>
                <path d="M16.8198333,10.5228378 C16.7708333,10.3257297 16.5745417,10.2068108 16.3814583,10.2564595 L15.962625,10.3646757 C15.7689583,10.4143243 15.6522917,10.6141081 15.7012917,10.8109189 C15.7424167,10.9774054 15.889125,11.0882973 16.050125,11.0882973 C16.0795833,11.0882973 16.1093333,11.0847297 16.1390833,11.077 L16.5587917,10.9687838 C16.7515833,10.9194324 16.86825,10.7193514 16.8198333,10.5228378" id="Fill-13"></path>
                <path d="M17.85525,7.03910811 C17.689875,7.06616216 17.569125,7.20351351 17.5536667,7.36524324 L17.53325,7.37624324 C17.3588333,7.47316216 17.2937917,7.69613514 17.3882917,7.87451351 C17.4539167,7.9972973 17.577875,8.06686486 17.705625,8.06686486 C17.7636667,8.06686486 17.8225833,8.0522973 17.877125,8.02227027 L18.11075,7.89324324 C18.2452083,7.81891892 18.3192917,7.66610811 18.2947917,7.51210811 L18.26825,7.34383784 C18.23675,7.14345946 18.0515417,7.007 17.85525,7.03910811" id="Fill-14"></path>
                <path d="M17.7470417,9.74540541 C17.6589583,9.79178378 17.5977083,9.86967568 17.569125,9.95856757 C17.4195,10.0331892 17.3360833,10.2071081 17.3786667,10.3786486 C17.420375,10.5448378 17.5667917,10.6557297 17.7277917,10.6557297 C17.75725,10.6557297 17.7867083,10.6521622 17.8164583,10.6444324 L18.0760417,10.5778378 C18.1827917,10.5501892 18.2711667,10.4746757 18.316375,10.3724054 C18.3612917,10.2701351 18.358375,10.1527027 18.3082083,10.0531081 L18.2326667,9.90356757 C18.141375,9.72340541 17.9237917,9.65264865 17.7470417,9.74540541" id="Fill-15"></path>
                <path d="M16.060625,6.97667568 C16.118375,6.97667568 16.1767083,6.9627027 16.23125,6.93297297 L16.6121667,6.72367568 C16.7871667,6.62764865 16.8530833,6.40467568 16.7585833,6.226 C16.6640833,6.04732432 16.4453333,5.98043243 16.2703333,6.07675676 L15.889125,6.28575676 C15.714125,6.38208108 15.6482083,6.60475676 15.743,6.78343243 C15.80775,6.90651351 15.932,6.97667568 16.060625,6.97667568" id="Fill-16"></path>
                <path d="M3.69920833,7.04089189 C3.64,6.84705405 3.43758333,6.73943243 3.24741667,6.80037838 L2.83470833,6.93237838 C2.64454167,6.99332432 2.53895833,7.19935135 2.59875,7.39289189 C2.646875,7.54986486 2.78920833,7.65035135 2.942625,7.65035135 C2.97820833,7.65035135 3.014375,7.645 3.05054167,7.63340541 L3.46325,7.50140541 C3.653125,7.44075676 3.759,7.23443243 3.69920833,7.04089189" id="Fill-17"></path>
                <path d="M5.41391667,9.98205405 C5.243,9.8782973 5.021625,9.93567568 4.91983333,10.1101892 L4.69845833,10.4889459 C4.59695833,10.6634595 4.65295833,10.8891081 4.82416667,10.9928649 C4.88191667,11.0276486 4.9455,11.0442973 5.00820833,11.0442973 C5.131,11.0442973 5.250875,10.9803784 5.31825,10.8647297 L5.53933333,10.4856757 C5.64141667,10.3114595 5.58483333,10.0858108 5.41391667,9.98205405" id="Fill-18"></path>
                <path d="M4.28283333,7.60724324 L4.11775,8.01483784 C4.04191667,8.20243243 4.129125,8.41737838 4.31345833,8.49467568 C4.358375,8.5137027 4.40475,8.52262162 4.45083333,8.52262162 C4.59229167,8.52262162 4.72675,8.4367027 4.78420833,8.29489189 L4.949,7.88759459 C5.025125,7.7 4.937625,7.48505405 4.75358333,7.40775676 C4.56954167,7.33045946 4.35866667,7.41994595 4.28283333,7.60724324" id="Fill-19"></path>
                <path d="M4.316375,9.36932432 C4.31316667,9.22810811 4.22975,9.09551351 4.09325,9.03813514 C3.90891667,8.96083784 3.698625,9.05002703 3.62279167,9.23762162 L3.58575,9.32859459 C3.53295833,9.45910811 3.55833333,9.60924324 3.651375,9.71448649 L3.87566667,9.96927027 C3.94683333,10.0498378 4.04541667,10.0908649 4.144,10.0908649 C4.23004167,10.0908649 4.31608333,10.0599459 4.38491667,9.99691892 C4.53308333,9.86105405 4.54504167,9.62886486 4.41204167,9.47783784 L4.316375,9.36932432" id="Fill-20"></path>
                <path d="M5.35033333,6.51259459 C5.29083333,6.31875676 5.08841667,6.21113514 4.89825,6.27178378 L4.48554167,6.40408108 C4.295375,6.46472973 4.18979167,6.67105405 4.24929167,6.86459459 C4.29770833,7.02156757 4.44033333,7.12205405 4.59345833,7.12205405 C4.62904167,7.12205405 4.6655,7.1167027 4.70108333,7.10510811 L5.11408333,6.97310811 C5.30425,6.91245946 5.40983333,6.70613514 5.35033333,6.51259459" id="Fill-21"></path>
                <path d="M10.0945833,10.1764865 L10.3926667,9.94875676 C10.553375,9.82894595 10.5875,9.59883784 10.4696667,9.43502703 C10.3515417,9.27151351 10.1255,9.23672973 9.965375,9.35713514 L9.65679167,9.58813514 C9.64075,9.60032432 9.625875,9.6137027 9.611875,9.62856757 L9.57745833,9.66483784 C9.43833333,9.81051351 9.442125,10.043 9.58475,10.1842162 C9.65475,10.2534865 9.74545833,10.287973 9.83616667,10.287973 C9.93008333,10.287973 10.024,10.2508108 10.0945833,10.1764865" id="Fill-22"></path>
                <path d="M10.6647917,11.8074595 L10.2622917,11.646027 C10.0770833,11.5717027 9.867375,11.6647568 9.79445833,11.8535405 C9.72154167,12.0423243 9.81283333,12.2557838 9.99804167,12.3301081 L10.4005417,12.4912432 C10.444,12.5087838 10.488625,12.5168108 10.532375,12.5168108 C10.6764583,12.5168108 10.8120833,12.4285135 10.868375,12.284027 C10.9412917,12.0949459 10.8497083,11.8817838 10.6647917,11.8074595" id="Fill-23"></path>
                <path d="M6.29854167,8.46613514 C6.12704167,8.36237838 5.90595833,8.41975676 5.80416667,8.59397297 L5.58308333,8.97332432 C5.48129167,9.14754054 5.53729167,9.37318919 5.7085,9.47664865 C5.76654167,9.51172973 5.82954167,9.52867568 5.89225,9.52867568 C6.01533333,9.52867568 6.13520833,9.46445946 6.202875,9.34881081 L6.42366667,8.96975676 C6.52575,8.79554054 6.46945833,8.56989189 6.29854167,8.46613514" id="Fill-24"></path>
                <path d="M8.89729167,7.62954054 C9.06645833,7.62954054 9.21725,7.50735135 9.25108333,7.33164865 C9.28870833,7.13245946 9.160375,6.93951351 8.96525,6.90086486 L8.54058333,6.81732432 C8.344875,6.77867568 8.15616667,6.90918919 8.11825,7.10837838 C8.08033333,7.30756757 8.208375,7.50051351 8.40379167,7.53886486 L8.82845833,7.62240541 C8.8515,7.62716216 8.87454167,7.62954054 8.89729167,7.62954054" id="Fill-25"></path>
                <path d="M10.10275,7.87362162 L10.29175,7.91078378 L10.3051667,7.92475676 C10.3754583,7.99640541 10.4679167,8.03237838 10.5600833,8.03237838 C10.6525417,8.03237838 10.7447083,7.99640541 10.815,7.92475676 C10.9561667,7.78116216 10.9561667,7.54867568 10.815,7.40508108 L10.7234167,7.31143243 C10.6726667,7.2597027 10.6073333,7.22462162 10.53675,7.21064865 L10.23925,7.15208108 C10.0435417,7.11343243 9.85483333,7.24394595 9.81720833,7.44313514 C9.779,7.64262162 9.90733333,7.83497297 10.10275,7.87362162" id="Fill-26"></path>
                <path d="M9.10029167,10.5718919 C8.901375,10.5718919 8.74008333,10.7362973 8.74008333,10.9393514 L8.74008333,11.3802432 C8.74008333,11.583 8.901375,11.7477027 9.10029167,11.7477027 C9.2995,11.7477027 9.46079167,11.583 9.46079167,11.3802432 L9.46079167,10.9393514 C9.46079167,10.7362973 9.2995,10.5718919 9.10029167,10.5718919" id="Fill-27"></path>
                <path d="M5.85316667,3.85654054 C6.03545833,3.77448649 6.118,3.55775676 6.0375,3.37194595 C5.95729167,3.18643243 5.744375,3.1022973 5.562375,3.18405405 L2.69295833,4.47402703 C2.51095833,4.55608108 2.42841667,4.77310811 2.50891667,4.95862162 C2.56841667,5.09627027 2.70054167,5.17802703 2.83879167,5.17802703 C2.88720833,5.17802703 2.93679167,5.16791892 2.98404167,5.14651351 L5.85316667,3.85654054 Z" id="Fill-28"></path>
            </g>
            <g id="Imported-Layers-16" transform="translate(6.000000, 125.000000)" fill="#206FAC" sketch:type="MSShapeGroup">
                <path d="M20.5986667,0.216432432 C20.398,0.0802702703 20.143375,0.0552972973 19.9208333,0.150432432 L13.712125,2.80321622 L7.50370833,0.150432432 C7.3255,0.0743243243 7.12454167,0.0743243243 6.94604167,0.150432432 L0.458791667,2.92243243 C0.19075,3.03689189 0.016625,3.30416216 0.016625,3.60027027 L0.016625,17.0740811 C0.016625,17.3202432 0.137083333,17.5497568 0.338041667,17.6859189 C0.458208333,17.7673784 0.597625,17.8087027 0.737333333,17.8087027 C0.832125,17.8087027 0.926625,17.7902703 1.01616667,17.7519189 L7.224875,15.0988378 L13.4335833,17.7519189 C13.6117917,17.828027 13.8121667,17.828027 13.9909583,17.7519189 L20.4782083,14.9799189 C20.7459583,14.8654595 20.920375,14.5984865 20.920375,14.3020811 L20.920375,0.82827027 C20.920375,0.582108108 20.799625,0.352594595 20.5986667,0.216432432 L20.5986667,0.216432432 Z M1.458625,4.08902703 L6.75733333,1.82481081 L6.75733333,7.34175676 L6.713875,7.35602703 C6.52429167,7.41875676 6.42075,7.62567568 6.482,7.81862162 C6.52370833,7.95091892 6.63220833,8.04159459 6.75733333,8.06597297 L6.75733333,13.7051081 L1.458625,15.9693243 L1.458625,4.08902703 L1.458625,4.08902703 Z M7.47833333,13.615027 L7.47833333,7.84181081 C7.57983333,7.74756757 7.62445833,7.59891892 7.57954167,7.45710811 C7.55941667,7.39408108 7.52325,7.34145946 7.47833333,7.29954054 L7.47833333,1.73324324 L13.3869167,4.25789189 L13.3869167,12.4359459 C13.2340833,12.4686486 13.1139167,12.5985676 13.1007917,12.7650541 C13.0865,12.9514595 13.2119167,13.1143784 13.3869167,13.1518378 L13.3869167,16.1381892 L7.50370833,13.6242432 C7.49525,13.6206757 7.48679167,13.6182973 7.47833333,13.615027 L7.47833333,13.615027 Z M19.478375,13.8133243 L14.107625,16.1081622 L14.107625,12.867027 L14.1332917,12.7727838 C14.1580833,12.6821081 14.1458333,12.5902432 14.107625,12.5117568 L14.107625,11.7655405 C14.1160833,11.7664324 14.1248333,11.7676216 14.133,11.7676216 C14.2907917,11.7676216 14.4360417,11.6608919 14.4800833,11.4982703 L14.5961667,11.0734324 C14.64925,10.8778108 14.5369583,10.6753514 14.3453333,10.6212432 C14.2630833,10.5980541 14.18025,10.6072703 14.107625,10.6387838 L14.107625,4.22786486 L19.478375,1.93302703 L19.478375,13.8133243 L19.478375,13.8133243 Z" id="Fill-1"></path>
                <path d="M7.08225,17.0788378 L7.08225,17.0740811 C7.08225,16.871027 6.92125,16.7066216 6.72204167,16.7066216 C6.52283333,16.7066216 6.36183333,16.871027 6.36183333,17.0740811 L6.36183333,17.0788378 C5.002375,17.1968649 3.98329167,17.9737027 3.98329167,18.944973 C3.98329167,18.944973 3.98329167,18.944973 3.98329167,18.9452703 L3.98329167,19.8915676 C3.98329167,20.9466757 5.186125,21.7734595 6.72204167,21.7734595 C8.25766667,21.7734595 9.46079167,20.9466757 9.46079167,19.8915676 L9.46079167,18.9452703 L9.46079167,18.944973 C9.46079167,17.9737027 8.44170833,17.1968649 7.08225,17.0788378 L7.08225,17.0788378 Z M8.62866667,18.5775135 C8.700125,18.6937568 8.74008333,18.8171351 8.74008333,18.944973 C8.74008333,18.944973 8.74008333,18.944973 8.74008333,18.9452703 C8.74008333,18.9892703 8.73454167,19.032973 8.72579167,19.0760811 C8.70829167,19.1578378 8.67533333,19.2366216 8.62866667,19.3127297 C8.60620833,19.3487027 8.581125,19.3837838 8.55254167,19.4182703 C8.52279167,19.4545405 8.48954167,19.4899189 8.453375,19.5241081 C8.299375,19.6697838 8.09054167,19.7958378 7.84408333,19.8915676 C7.52091667,20.0176216 7.13358333,20.0919459 6.72204167,20.0919459 C6.3105,20.0919459 5.92316667,20.0176216 5.59941667,19.8915676 C5.35325,19.7958378 5.14470833,19.6697838 4.99041667,19.5241081 C4.95425,19.4899189 4.92129167,19.4545405 4.89154167,19.4182703 C4.86325,19.3837838 4.837875,19.3487027 4.81570833,19.3127297 C4.76875,19.2366216 4.73579167,19.1578378 4.71858333,19.0760811 C4.70983333,19.032973 4.70429167,18.9892703 4.70429167,18.9452703 L4.70429167,18.944973 C4.70429167,18.8171351 4.74395833,18.6937568 4.81570833,18.5775135 C4.83379167,18.5480811 4.8545,18.5183514 4.87695833,18.4898108 C5.19370833,18.086973 5.91120833,17.7977027 6.72204167,17.7977027 C7.53316667,17.7977027 8.250375,18.086973 8.56741667,18.4898108 C8.589875,18.5183514 8.61029167,18.5480811 8.62866667,18.5775135 L8.62866667,18.5775135 Z M4.87695833,20.347027 C5.36025,20.6464054 6.00483333,20.8268649 6.72204167,20.8268649 C7.43954167,20.8268649 8.08383333,20.6464054 8.56741667,20.347027 C8.25066667,20.7495676 7.53316667,21.0385405 6.72204167,21.0385405 C5.91091667,21.0385405 5.19341667,20.7495676 4.87695833,20.347027 L4.87695833,20.347027 Z" id="Fill-2"></path>
                <path d="M6.95304167,18.7523243 L6.82033333,18.7056486 L6.77483333,18.9452703 L6.72233333,19.2232432 L8.4175,19.2797297 L8.44316667,19.2809189 L8.40175,19.2660541 L7.49583333,18.9452703 L6.95304167,18.7523243 Z" id="Fill-3"></path>
                <path d="M4.99916667,18.6286486 L5.2325,18.7115946 L5.74583333,18.8929459 L5.89195833,18.9452703 L6.622,19.2036216 L6.671,18.9452703 L6.70920833,18.7448919 L6.72,18.6863243 L5.37979167,18.6414324 L4.99916667,18.6286486" id="Fill-4"></path>
                <path d="M12.194875,12.3241622 L11.8924167,12.2997838 L11.8722917,12.2917568 C11.6867917,12.2174324 11.4779583,12.3101892 11.40475,12.498973 C11.3318333,12.6880541 11.423125,12.9015135 11.6083333,12.9755405 L11.678625,13.0037838 C11.711875,13.0171622 11.7465833,13.0251892 11.7824583,13.0281622 L12.1382917,13.0567027 C12.147625,13.0572973 12.1575417,13.0578919 12.1671667,13.0578919 C12.35325,13.0578919 12.5113333,12.9116216 12.5259167,12.718973 C12.541375,12.5168108 12.3932083,12.3399189 12.194875,12.3241622" id="Fill-5"></path>
                <path d="M16.440375,11.8452162 C16.407125,11.6451351 16.2210417,11.5101622 16.0250417,11.5434595 C15.8290417,11.5767568 15.6960417,11.7661351 15.729,11.9665135 L15.8001667,12.4011622 C15.829625,12.581027 15.9824583,12.7082703 16.1557083,12.7082703 C16.17525,12.7082703 16.195375,12.7064865 16.2155,12.7032162 C16.4117917,12.6696216 16.5445,12.4802432 16.51125,12.2801622 L16.440375,11.8452162" id="Fill-6"></path>
                <path d="M11.7357917,8.94181081 C11.820375,8.87848649 11.87375,8.78037838 11.881625,8.67364865 C11.8897917,8.56691892 11.8515833,8.46167568 11.7769167,8.38616216 L11.7325833,8.34067568 C11.5917083,8.19708108 11.3633333,8.19708108 11.2224583,8.34067568 C11.183375,8.38081081 11.1547917,8.42808108 11.1372917,8.47802703 L11.0107083,8.57286486 C10.8505833,8.69327027 10.815875,8.92337838 10.934,9.08689189 C11.004875,9.1847027 11.1139583,9.23643243 11.2247917,9.23643243 C11.298875,9.23643243 11.3735417,9.21324324 11.438,9.16508108 L11.7357917,8.94181081" id="Fill-7"></path>
                <path d="M17.3325833,6.03691892 L17.3509583,6.15405405 C17.3795417,6.33481081 17.532375,6.46354054 17.7067917,6.46354054 C17.7254583,6.46354054 17.745,6.46175676 17.7636667,6.45878378 C17.9605417,6.42667568 18.0944167,6.23789189 18.062625,6.03781081 L18.0063333,5.67837838 C17.9876667,5.56094595 17.91475,5.45986486 17.810625,5.40724324 C17.705625,5.35462162 17.5825417,5.3567027 17.4795833,5.41318919 L17.4130833,5.44975676 C17.2377917,5.54578378 17.171875,5.76845946 17.2666667,5.94713514 C17.2841667,5.98132432 17.306625,6.01135135 17.3325833,6.03691892" id="Fill-8"></path>
                <path d="M16.7994167,8.67245946 L16.9971667,9.06459459 C17.0613333,9.19124324 17.1873333,9.26378378 17.3182917,9.26378378 C17.3734167,9.26378378 17.4302917,9.2507027 17.4827917,9.22275676 C17.6598333,9.13 17.72925,8.90821622 17.63825,8.72775676 L17.4399167,8.33591892 C17.3489167,8.15575676 17.1313333,8.0847027 16.9542917,8.17745946 C16.7775417,8.27051351 16.708125,8.492 16.7994167,8.67245946" id="Fill-9"></path>
                <path d="M15.024625,8.37783784 C15.071875,8.39924324 15.1211667,8.40905405 15.1695833,8.40905405 C15.308125,8.40905405 15.4405417,8.327 15.49975,8.18935135 L15.673875,7.78591892 C15.754375,7.60010811 15.6715417,7.38337838 15.48925,7.30162162 C15.3069583,7.21986486 15.094625,7.304 15.014125,7.48981081 L14.84,7.89354054 C14.7595,8.07905405 14.8423333,8.29608108 15.024625,8.37783784" id="Fill-10"></path>
                <path d="M14.4993333,10.0545946 C14.5317083,10.0638108 14.5640833,10.067973 14.595875,10.067973 C14.7539583,10.067973 14.898625,9.96154054 14.9429583,9.79891892 L15.05875,9.37378378 C15.112125,9.17845946 14.9995417,8.9757027 14.807625,8.92159459 C14.6157083,8.86718919 14.417375,8.98164865 14.364,9.17727027 L14.2485,9.60210811 C14.195125,9.79772973 14.3074167,10.0004865 14.4993333,10.0545946" id="Fill-11"></path>
                <path d="M17.6300833,12.3402162 L17.1978333,12.3262432 C16.9997917,12.3208919 16.832375,12.4790541 16.82625,12.6818108 C16.8198333,12.8848649 16.975875,13.0543243 17.1747917,13.0608649 L17.6073333,13.0751351 L17.6187083,13.0751351 C17.8126667,13.0751351 17.9727917,12.9181622 17.9789167,12.7195676 C17.9853333,12.5165135 17.8292917,12.3467568 17.6300833,12.3402162" id="Fill-12"></path>
                <path d="M16.8198333,10.5228378 C16.7708333,10.3257297 16.5745417,10.2068108 16.3814583,10.2564595 L15.962625,10.3646757 C15.7689583,10.4143243 15.6522917,10.6141081 15.7012917,10.8109189 C15.7424167,10.9774054 15.889125,11.0882973 16.050125,11.0882973 C16.0795833,11.0882973 16.1093333,11.0847297 16.1390833,11.077 L16.5587917,10.9687838 C16.7515833,10.9194324 16.86825,10.7193514 16.8198333,10.5228378" id="Fill-13"></path>
                <path d="M17.85525,7.03910811 C17.689875,7.06616216 17.569125,7.20351351 17.5536667,7.36524324 L17.53325,7.37624324 C17.3588333,7.47316216 17.2937917,7.69613514 17.3882917,7.87451351 C17.4539167,7.9972973 17.577875,8.06686486 17.705625,8.06686486 C17.7636667,8.06686486 17.8225833,8.0522973 17.877125,8.02227027 L18.11075,7.89324324 C18.2452083,7.81891892 18.3192917,7.66610811 18.2947917,7.51210811 L18.26825,7.34383784 C18.23675,7.14345946 18.0515417,7.007 17.85525,7.03910811" id="Fill-14"></path>
                <path d="M17.7470417,9.74540541 C17.6589583,9.79178378 17.5977083,9.86967568 17.569125,9.95856757 C17.4195,10.0331892 17.3360833,10.2071081 17.3786667,10.3786486 C17.420375,10.5448378 17.5667917,10.6557297 17.7277917,10.6557297 C17.75725,10.6557297 17.7867083,10.6521622 17.8164583,10.6444324 L18.0760417,10.5778378 C18.1827917,10.5501892 18.2711667,10.4746757 18.316375,10.3724054 C18.3612917,10.2701351 18.358375,10.1527027 18.3082083,10.0531081 L18.2326667,9.90356757 C18.141375,9.72340541 17.9237917,9.65264865 17.7470417,9.74540541" id="Fill-15"></path>
                <path d="M16.23125,6.93297297 L16.6121667,6.72367568 C16.7871667,6.62764865 16.8530833,6.40467568 16.7585833,6.226 C16.6640833,6.04732432 16.4453333,5.98043243 16.2703333,6.07675676 L15.889125,6.28575676 C15.714125,6.38208108 15.6482083,6.60475676 15.743,6.78343243 C15.80775,6.90651351 15.932,6.97667568 16.060625,6.97667568 C16.118375,6.97667568 16.1767083,6.9627027 16.23125,6.93297297 Z" id="Fill-16"></path>
                <path d="M3.69920833,7.04089189 C3.64,6.84705405 3.43758333,6.73943243 3.24741667,6.80037838 L2.83470833,6.93237838 C2.64454167,6.99332432 2.53895833,7.19935135 2.59875,7.39289189 C2.646875,7.54986486 2.78920833,7.65035135 2.942625,7.65035135 C2.97820833,7.65035135 3.014375,7.645 3.05054167,7.63340541 L3.46325,7.50140541 C3.653125,7.44075676 3.759,7.23443243 3.69920833,7.04089189" id="Fill-17"></path>
                <path d="M5.41391667,9.98205405 C5.243,9.8782973 5.021625,9.93567568 4.91983333,10.1101892 L4.69845833,10.4889459 C4.59695833,10.6634595 4.65295833,10.8891081 4.82416667,10.9928649 C4.88191667,11.0276486 4.9455,11.0442973 5.00820833,11.0442973 C5.131,11.0442973 5.250875,10.9803784 5.31825,10.8647297 L5.53933333,10.4856757 C5.64141667,10.3114595 5.58483333,10.0858108 5.41391667,9.98205405" id="Fill-18"></path>
                <path d="M4.28283333,7.60724324 L4.11775,8.01483784 C4.04191667,8.20243243 4.129125,8.41737838 4.31345833,8.49467568 C4.358375,8.5137027 4.40475,8.52262162 4.45083333,8.52262162 C4.59229167,8.52262162 4.72675,8.4367027 4.78420833,8.29489189 L4.949,7.88759459 C5.025125,7.7 4.937625,7.48505405 4.75358333,7.40775676 C4.56954167,7.33045946 4.35866667,7.41994595 4.28283333,7.60724324" id="Fill-19"></path>
                <path d="M4.316375,9.36932432 C4.31316667,9.22810811 4.22975,9.09551351 4.09325,9.03813514 C3.90891667,8.96083784 3.698625,9.05002703 3.62279167,9.23762162 L3.58575,9.32859459 C3.53295833,9.45910811 3.55833333,9.60924324 3.651375,9.71448649 L3.87566667,9.96927027 C3.94683333,10.0498378 4.04541667,10.0908649 4.144,10.0908649 C4.23004167,10.0908649 4.31608333,10.0599459 4.38491667,9.99691892 C4.53308333,9.86105405 4.54504167,9.62886486 4.41204167,9.47783784 L4.316375,9.36932432" id="Fill-20"></path>
                <path d="M5.35033333,6.51259459 C5.29083333,6.31875676 5.08841667,6.21113514 4.89825,6.27178378 L4.48554167,6.40408108 C4.295375,6.46472973 4.18979167,6.67105405 4.24929167,6.86459459 C4.29770833,7.02156757 4.44033333,7.12205405 4.59345833,7.12205405 C4.62904167,7.12205405 4.6655,7.1167027 4.70108333,7.10510811 L5.11408333,6.97310811 C5.30425,6.91245946 5.40983333,6.70613514 5.35033333,6.51259459" id="Fill-21"></path>
                <path d="M10.0945833,10.1764865 L10.3926667,9.94875676 C10.553375,9.82894595 10.5875,9.59883784 10.4696667,9.43502703 C10.3515417,9.27151351 10.1255,9.23672973 9.965375,9.35713514 L9.65679167,9.58813514 C9.64075,9.60032432 9.625875,9.6137027 9.611875,9.62856757 L9.57745833,9.66483784 C9.43833333,9.81051351 9.442125,10.043 9.58475,10.1842162 C9.65475,10.2534865 9.74545833,10.287973 9.83616667,10.287973 C9.93008333,10.287973 10.024,10.2508108 10.0945833,10.1764865" id="Fill-22"></path>
                <path d="M10.6647917,11.8074595 L10.2622917,11.646027 C10.0770833,11.5717027 9.867375,11.6647568 9.79445833,11.8535405 C9.72154167,12.0423243 9.81283333,12.2557838 9.99804167,12.3301081 L10.4005417,12.4912432 C10.444,12.5087838 10.488625,12.5168108 10.532375,12.5168108 C10.6764583,12.5168108 10.8120833,12.4285135 10.868375,12.284027 C10.9412917,12.0949459 10.8497083,11.8817838 10.6647917,11.8074595" id="Fill-23"></path>
                <path d="M6.29854167,8.46613514 C6.12704167,8.36237838 5.90595833,8.41975676 5.80416667,8.59397297 L5.58308333,8.97332432 C5.48129167,9.14754054 5.53729167,9.37318919 5.7085,9.47664865 C5.76654167,9.51172973 5.82954167,9.52867568 5.89225,9.52867568 C6.01533333,9.52867568 6.13520833,9.46445946 6.202875,9.34881081 L6.42366667,8.96975676 C6.52575,8.79554054 6.46945833,8.56989189 6.29854167,8.46613514" id="Fill-24"></path>
                <path d="M8.89729167,7.62954054 C9.06645833,7.62954054 9.21725,7.50735135 9.25108333,7.33164865 C9.28870833,7.13245946 9.160375,6.93951351 8.96525,6.90086486 L8.54058333,6.81732432 C8.344875,6.77867568 8.15616667,6.90918919 8.11825,7.10837838 C8.08033333,7.30756757 8.208375,7.50051351 8.40379167,7.53886486 L8.82845833,7.62240541 C8.8515,7.62716216 8.87454167,7.62954054 8.89729167,7.62954054" id="Fill-25"></path>
                <path d="M10.10275,7.87362162 L10.29175,7.91078378 L10.3051667,7.92475676 C10.3754583,7.99640541 10.4679167,8.03237838 10.5600833,8.03237838 C10.6525417,8.03237838 10.7447083,7.99640541 10.815,7.92475676 C10.9561667,7.78116216 10.9561667,7.54867568 10.815,7.40508108 L10.7234167,7.31143243 C10.6726667,7.2597027 10.6073333,7.22462162 10.53675,7.21064865 L10.23925,7.15208108 C10.0435417,7.11343243 9.85483333,7.24394595 9.81720833,7.44313514 C9.779,7.64262162 9.90733333,7.83497297 10.10275,7.87362162" id="Fill-26"></path>
                <path d="M9.10029167,10.5718919 C8.901375,10.5718919 8.74008333,10.7362973 8.74008333,10.9393514 L8.74008333,11.3802432 C8.74008333,11.583 8.901375,11.7477027 9.10029167,11.7477027 C9.2995,11.7477027 9.46079167,11.583 9.46079167,11.3802432 L9.46079167,10.9393514 C9.46079167,10.7362973 9.2995,10.5718919 9.10029167,10.5718919" id="Fill-27"></path>
                <path d="M5.85316667,3.85654054 C6.03545833,3.77448649 6.118,3.55775676 6.0375,3.37194595 C5.95729167,3.18643243 5.744375,3.1022973 5.562375,3.18405405 L2.69295833,4.47402703 C2.51095833,4.55608108 2.42841667,4.77310811 2.50891667,4.95862162 C2.56841667,5.09627027 2.70054167,5.17802703 2.83879167,5.17802703 C2.88720833,5.17802703 2.93679167,5.16791892 2.98404167,5.14651351 L5.85316667,3.85654054 Z" id="Fill-28"></path>
            </g>
            <g id="Imported-Layers-15" transform="translate(6.000000, 85.000000)" fill="#FFFFFF" sketch:type="MSShapeGroup">
                <path d="M20.5986667,0.216432432 C20.398,0.0802702703 20.143375,0.0552972973 19.9208333,0.150432432 L13.712125,2.80321622 L7.50370833,0.150432432 C7.3255,0.0743243243 7.12454167,0.0743243243 6.94604167,0.150432432 L0.458791667,2.92243243 C0.19075,3.03689189 0.016625,3.30416216 0.016625,3.60027027 L0.016625,17.0740811 C0.016625,17.3202432 0.137083333,17.5497568 0.338041667,17.6859189 C0.458208333,17.7673784 0.597625,17.8087027 0.737333333,17.8087027 C0.832125,17.8087027 0.926625,17.7902703 1.01616667,17.7519189 L7.224875,15.0988378 L13.4335833,17.7519189 C13.6117917,17.828027 13.8121667,17.828027 13.9909583,17.7519189 L20.4782083,14.9799189 C20.7459583,14.8654595 20.920375,14.5984865 20.920375,14.3020811 L20.920375,0.82827027 C20.920375,0.582108108 20.799625,0.352594595 20.5986667,0.216432432 L20.5986667,0.216432432 Z M1.458625,4.08902703 L6.75733333,1.82481081 L6.75733333,7.34175676 L6.713875,7.35602703 C6.52429167,7.41875676 6.42075,7.62567568 6.482,7.81862162 C6.52370833,7.95091892 6.63220833,8.04159459 6.75733333,8.06597297 L6.75733333,13.7051081 L1.458625,15.9693243 L1.458625,4.08902703 L1.458625,4.08902703 Z M7.47833333,13.615027 L7.47833333,7.84181081 C7.57983333,7.74756757 7.62445833,7.59891892 7.57954167,7.45710811 C7.55941667,7.39408108 7.52325,7.34145946 7.47833333,7.29954054 L7.47833333,1.73324324 L13.3869167,4.25789189 L13.3869167,12.4359459 C13.2340833,12.4686486 13.1139167,12.5985676 13.1007917,12.7650541 C13.0865,12.9514595 13.2119167,13.1143784 13.3869167,13.1518378 L13.3869167,16.1381892 L7.50370833,13.6242432 C7.49525,13.6206757 7.48679167,13.6182973 7.47833333,13.615027 L7.47833333,13.615027 Z M19.478375,13.8133243 L14.107625,16.1081622 L14.107625,12.867027 L14.1332917,12.7727838 C14.1580833,12.6821081 14.1458333,12.5902432 14.107625,12.5117568 L14.107625,11.7655405 C14.1160833,11.7664324 14.1248333,11.7676216 14.133,11.7676216 C14.2907917,11.7676216 14.4360417,11.6608919 14.4800833,11.4982703 L14.5961667,11.0734324 C14.64925,10.8778108 14.5369583,10.6753514 14.3453333,10.6212432 C14.2630833,10.5980541 14.18025,10.6072703 14.107625,10.6387838 L14.107625,4.22786486 L19.478375,1.93302703 L19.478375,13.8133243 L19.478375,13.8133243 Z" id="Fill-1"></path>
                <path d="M7.08225,17.0788378 L7.08225,17.0740811 C7.08225,16.871027 6.92125,16.7066216 6.72204167,16.7066216 C6.52283333,16.7066216 6.36183333,16.871027 6.36183333,17.0740811 L6.36183333,17.0788378 C5.002375,17.1968649 3.98329167,17.9737027 3.98329167,18.944973 C3.98329167,18.944973 3.98329167,18.944973 3.98329167,18.9452703 L3.98329167,19.8915676 C3.98329167,20.9466757 5.186125,21.7734595 6.72204167,21.7734595 C8.25766667,21.7734595 9.46079167,20.9466757 9.46079167,19.8915676 L9.46079167,18.9452703 L9.46079167,18.944973 C9.46079167,17.9737027 8.44170833,17.1968649 7.08225,17.0788378 L7.08225,17.0788378 Z M8.62866667,18.5775135 C8.700125,18.6937568 8.74008333,18.8171351 8.74008333,18.944973 C8.74008333,18.944973 8.74008333,18.944973 8.74008333,18.9452703 C8.74008333,18.9892703 8.73454167,19.032973 8.72579167,19.0760811 C8.70829167,19.1578378 8.67533333,19.2366216 8.62866667,19.3127297 C8.60620833,19.3487027 8.581125,19.3837838 8.55254167,19.4182703 C8.52279167,19.4545405 8.48954167,19.4899189 8.453375,19.5241081 C8.299375,19.6697838 8.09054167,19.7958378 7.84408333,19.8915676 C7.52091667,20.0176216 7.13358333,20.0919459 6.72204167,20.0919459 C6.3105,20.0919459 5.92316667,20.0176216 5.59941667,19.8915676 C5.35325,19.7958378 5.14470833,19.6697838 4.99041667,19.5241081 C4.95425,19.4899189 4.92129167,19.4545405 4.89154167,19.4182703 C4.86325,19.3837838 4.837875,19.3487027 4.81570833,19.3127297 C4.76875,19.2366216 4.73579167,19.1578378 4.71858333,19.0760811 C4.70983333,19.032973 4.70429167,18.9892703 4.70429167,18.9452703 L4.70429167,18.944973 C4.70429167,18.8171351 4.74395833,18.6937568 4.81570833,18.5775135 C4.83379167,18.5480811 4.8545,18.5183514 4.87695833,18.4898108 C5.19370833,18.086973 5.91120833,17.7977027 6.72204167,17.7977027 C7.53316667,17.7977027 8.250375,18.086973 8.56741667,18.4898108 C8.589875,18.5183514 8.61029167,18.5480811 8.62866667,18.5775135 L8.62866667,18.5775135 Z M4.87695833,20.347027 C5.36025,20.6464054 6.00483333,20.8268649 6.72204167,20.8268649 C7.43954167,20.8268649 8.08383333,20.6464054 8.56741667,20.347027 C8.25066667,20.7495676 7.53316667,21.0385405 6.72204167,21.0385405 C5.91091667,21.0385405 5.19341667,20.7495676 4.87695833,20.347027 L4.87695833,20.347027 Z" id="Fill-2"></path>
                <path d="M7.49583333,18.9452703 L6.95304167,18.7523243 L6.82033333,18.7056486 L6.77483333,18.9452703 L6.72233333,19.2232432 L8.4175,19.2797297 L8.44316667,19.2809189 L8.40175,19.2660541 L7.49583333,18.9452703" id="Fill-3"></path>
                <path d="M4.99916667,18.6286486 L5.2325,18.7115946 L5.74583333,18.8929459 L5.89195833,18.9452703 L6.622,19.2036216 L6.671,18.9452703 L6.70920833,18.7448919 L6.72,18.6863243 L5.37979167,18.6414324 L4.99916667,18.6286486" id="Fill-4"></path>
                <path d="M12.194875,12.3241622 L11.8924167,12.2997838 L11.8722917,12.2917568 C11.6867917,12.2174324 11.4779583,12.3101892 11.40475,12.498973 C11.3318333,12.6880541 11.423125,12.9015135 11.6083333,12.9755405 L11.678625,13.0037838 C11.711875,13.0171622 11.7465833,13.0251892 11.7824583,13.0281622 L12.1382917,13.0567027 C12.147625,13.0572973 12.1575417,13.0578919 12.1671667,13.0578919 C12.35325,13.0578919 12.5113333,12.9116216 12.5259167,12.718973 C12.541375,12.5168108 12.3932083,12.3399189 12.194875,12.3241622" id="Fill-5"></path>
                <path d="M16.440375,11.8452162 C16.407125,11.6451351 16.2210417,11.5101622 16.0250417,11.5434595 C15.8290417,11.5767568 15.6960417,11.7661351 15.729,11.9665135 L15.8001667,12.4011622 C15.829625,12.581027 15.9824583,12.7082703 16.1557083,12.7082703 C16.17525,12.7082703 16.195375,12.7064865 16.2155,12.7032162 C16.4117917,12.6696216 16.5445,12.4802432 16.51125,12.2801622 L16.440375,11.8452162" id="Fill-6"></path>
                <path d="M11.7357917,8.94181081 C11.820375,8.87848649 11.87375,8.78037838 11.881625,8.67364865 C11.8897917,8.56691892 11.8515833,8.46167568 11.7769167,8.38616216 L11.7325833,8.34067568 C11.5917083,8.19708108 11.3633333,8.19708108 11.2224583,8.34067568 C11.183375,8.38081081 11.1547917,8.42808108 11.1372917,8.47802703 L11.0107083,8.57286486 C10.8505833,8.69327027 10.815875,8.92337838 10.934,9.08689189 C11.004875,9.1847027 11.1139583,9.23643243 11.2247917,9.23643243 C11.298875,9.23643243 11.3735417,9.21324324 11.438,9.16508108 L11.7357917,8.94181081" id="Fill-7"></path>
                <path d="M17.3325833,6.03691892 L17.3509583,6.15405405 C17.3795417,6.33481081 17.532375,6.46354054 17.7067917,6.46354054 C17.7254583,6.46354054 17.745,6.46175676 17.7636667,6.45878378 C17.9605417,6.42667568 18.0944167,6.23789189 18.062625,6.03781081 L18.0063333,5.67837838 C17.9876667,5.56094595 17.91475,5.45986486 17.810625,5.40724324 C17.705625,5.35462162 17.5825417,5.3567027 17.4795833,5.41318919 L17.4130833,5.44975676 C17.2377917,5.54578378 17.171875,5.76845946 17.2666667,5.94713514 C17.2841667,5.98132432 17.306625,6.01135135 17.3325833,6.03691892" id="Fill-8"></path>
                <path d="M16.7994167,8.67245946 L16.9971667,9.06459459 C17.0613333,9.19124324 17.1873333,9.26378378 17.3182917,9.26378378 C17.3734167,9.26378378 17.4302917,9.2507027 17.4827917,9.22275676 C17.6598333,9.13 17.72925,8.90821622 17.63825,8.72775676 L17.4399167,8.33591892 C17.3489167,8.15575676 17.1313333,8.0847027 16.9542917,8.17745946 C16.7775417,8.27051351 16.708125,8.492 16.7994167,8.67245946" id="Fill-9"></path>
                <path d="M15.024625,8.37783784 C15.071875,8.39924324 15.1211667,8.40905405 15.1695833,8.40905405 C15.308125,8.40905405 15.4405417,8.327 15.49975,8.18935135 L15.673875,7.78591892 C15.754375,7.60010811 15.6715417,7.38337838 15.48925,7.30162162 C15.3069583,7.21986486 15.094625,7.304 15.014125,7.48981081 L14.84,7.89354054 C14.7595,8.07905405 14.8423333,8.29608108 15.024625,8.37783784" id="Fill-10"></path>
                <path d="M14.4993333,10.0545946 C14.5317083,10.0638108 14.5640833,10.067973 14.595875,10.067973 C14.7539583,10.067973 14.898625,9.96154054 14.9429583,9.79891892 L15.05875,9.37378378 C15.112125,9.17845946 14.9995417,8.9757027 14.807625,8.92159459 C14.6157083,8.86718919 14.417375,8.98164865 14.364,9.17727027 L14.2485,9.60210811 C14.195125,9.79772973 14.3074167,10.0004865 14.4993333,10.0545946" id="Fill-11"></path>
                <path d="M17.6300833,12.3402162 L17.1978333,12.3262432 C16.9997917,12.3208919 16.832375,12.4790541 16.82625,12.6818108 C16.8198333,12.8848649 16.975875,13.0543243 17.1747917,13.0608649 L17.6073333,13.0751351 L17.6187083,13.0751351 C17.8126667,13.0751351 17.9727917,12.9181622 17.9789167,12.7195676 C17.9853333,12.5165135 17.8292917,12.3467568 17.6300833,12.3402162" id="Fill-12"></path>
                <path d="M16.8198333,10.5228378 C16.7708333,10.3257297 16.5745417,10.2068108 16.3814583,10.2564595 L15.962625,10.3646757 C15.7689583,10.4143243 15.6522917,10.6141081 15.7012917,10.8109189 C15.7424167,10.9774054 15.889125,11.0882973 16.050125,11.0882973 C16.0795833,11.0882973 16.1093333,11.0847297 16.1390833,11.077 L16.5587917,10.9687838 C16.7515833,10.9194324 16.86825,10.7193514 16.8198333,10.5228378" id="Fill-13"></path>
                <path d="M17.85525,7.03910811 C17.689875,7.06616216 17.569125,7.20351351 17.5536667,7.36524324 L17.53325,7.37624324 C17.3588333,7.47316216 17.2937917,7.69613514 17.3882917,7.87451351 C17.4539167,7.9972973 17.577875,8.06686486 17.705625,8.06686486 C17.7636667,8.06686486 17.8225833,8.0522973 17.877125,8.02227027 L18.11075,7.89324324 C18.2452083,7.81891892 18.3192917,7.66610811 18.2947917,7.51210811 L18.26825,7.34383784 C18.23675,7.14345946 18.0515417,7.007 17.85525,7.03910811" id="Fill-14"></path>
                <path d="M17.7470417,9.74540541 C17.6589583,9.79178378 17.5977083,9.86967568 17.569125,9.95856757 C17.4195,10.0331892 17.3360833,10.2071081 17.3786667,10.3786486 C17.420375,10.5448378 17.5667917,10.6557297 17.7277917,10.6557297 C17.75725,10.6557297 17.7867083,10.6521622 17.8164583,10.6444324 L18.0760417,10.5778378 C18.1827917,10.5501892 18.2711667,10.4746757 18.316375,10.3724054 C18.3612917,10.2701351 18.358375,10.1527027 18.3082083,10.0531081 L18.2326667,9.90356757 C18.141375,9.72340541 17.9237917,9.65264865 17.7470417,9.74540541" id="Fill-15"></path>
                <path d="M16.060625,6.97667568 C16.118375,6.97667568 16.1767083,6.9627027 16.23125,6.93297297 L16.6121667,6.72367568 C16.7871667,6.62764865 16.8530833,6.40467568 16.7585833,6.226 C16.6640833,6.04732432 16.4453333,5.98043243 16.2703333,6.07675676 L15.889125,6.28575676 C15.714125,6.38208108 15.6482083,6.60475676 15.743,6.78343243 C15.80775,6.90651351 15.932,6.97667568 16.060625,6.97667568" id="Fill-16"></path>
                <path d="M3.69920833,7.04089189 C3.64,6.84705405 3.43758333,6.73943243 3.24741667,6.80037838 L2.83470833,6.93237838 C2.64454167,6.99332432 2.53895833,7.19935135 2.59875,7.39289189 C2.646875,7.54986486 2.78920833,7.65035135 2.942625,7.65035135 C2.97820833,7.65035135 3.014375,7.645 3.05054167,7.63340541 L3.46325,7.50140541 C3.653125,7.44075676 3.759,7.23443243 3.69920833,7.04089189" id="Fill-17"></path>
                <path d="M5.41391667,9.98205405 C5.243,9.8782973 5.021625,9.93567568 4.91983333,10.1101892 L4.69845833,10.4889459 C4.59695833,10.6634595 4.65295833,10.8891081 4.82416667,10.9928649 C4.88191667,11.0276486 4.9455,11.0442973 5.00820833,11.0442973 C5.131,11.0442973 5.250875,10.9803784 5.31825,10.8647297 L5.53933333,10.4856757 C5.64141667,10.3114595 5.58483333,10.0858108 5.41391667,9.98205405" id="Fill-18"></path>
                <path d="M4.28283333,7.60724324 L4.11775,8.01483784 C4.04191667,8.20243243 4.129125,8.41737838 4.31345833,8.49467568 C4.358375,8.5137027 4.40475,8.52262162 4.45083333,8.52262162 C4.59229167,8.52262162 4.72675,8.4367027 4.78420833,8.29489189 L4.949,7.88759459 C5.025125,7.7 4.937625,7.48505405 4.75358333,7.40775676 C4.56954167,7.33045946 4.35866667,7.41994595 4.28283333,7.60724324" id="Fill-19"></path>
                <path d="M4.316375,9.36932432 C4.31316667,9.22810811 4.22975,9.09551351 4.09325,9.03813514 C3.90891667,8.96083784 3.698625,9.05002703 3.62279167,9.23762162 L3.58575,9.32859459 C3.53295833,9.45910811 3.55833333,9.60924324 3.651375,9.71448649 L3.87566667,9.96927027 C3.94683333,10.0498378 4.04541667,10.0908649 4.144,10.0908649 C4.23004167,10.0908649 4.31608333,10.0599459 4.38491667,9.99691892 C4.53308333,9.86105405 4.54504167,9.62886486 4.41204167,9.47783784 L4.316375,9.36932432" id="Fill-20"></path>
                <path d="M5.35033333,6.51259459 C5.29083333,6.31875676 5.08841667,6.21113514 4.89825,6.27178378 L4.48554167,6.40408108 C4.295375,6.46472973 4.18979167,6.67105405 4.24929167,6.86459459 C4.29770833,7.02156757 4.44033333,7.12205405 4.59345833,7.12205405 C4.62904167,7.12205405 4.6655,7.1167027 4.70108333,7.10510811 L5.11408333,6.97310811 C5.30425,6.91245946 5.40983333,6.70613514 5.35033333,6.51259459" id="Fill-21"></path>
                <path d="M10.0945833,10.1764865 L10.3926667,9.94875676 C10.553375,9.82894595 10.5875,9.59883784 10.4696667,9.43502703 C10.3515417,9.27151351 10.1255,9.23672973 9.965375,9.35713514 L9.65679167,9.58813514 C9.64075,9.60032432 9.625875,9.6137027 9.611875,9.62856757 L9.57745833,9.66483784 C9.43833333,9.81051351 9.442125,10.043 9.58475,10.1842162 C9.65475,10.2534865 9.74545833,10.287973 9.83616667,10.287973 C9.93008333,10.287973 10.024,10.2508108 10.0945833,10.1764865" id="Fill-22"></path>
                <path d="M10.6647917,11.8074595 L10.2622917,11.646027 C10.0770833,11.5717027 9.867375,11.6647568 9.79445833,11.8535405 C9.72154167,12.0423243 9.81283333,12.2557838 9.99804167,12.3301081 L10.4005417,12.4912432 C10.444,12.5087838 10.488625,12.5168108 10.532375,12.5168108 C10.6764583,12.5168108 10.8120833,12.4285135 10.868375,12.284027 C10.9412917,12.0949459 10.8497083,11.8817838 10.6647917,11.8074595" id="Fill-23"></path>
                <path d="M6.29854167,8.46613514 C6.12704167,8.36237838 5.90595833,8.41975676 5.80416667,8.59397297 L5.58308333,8.97332432 C5.48129167,9.14754054 5.53729167,9.37318919 5.7085,9.47664865 C5.76654167,9.51172973 5.82954167,9.52867568 5.89225,9.52867568 C6.01533333,9.52867568 6.13520833,9.46445946 6.202875,9.34881081 L6.42366667,8.96975676 C6.52575,8.79554054 6.46945833,8.56989189 6.29854167,8.46613514" id="Fill-24"></path>
                <path d="M8.89729167,7.62954054 C9.06645833,7.62954054 9.21725,7.50735135 9.25108333,7.33164865 C9.28870833,7.13245946 9.160375,6.93951351 8.96525,6.90086486 L8.54058333,6.81732432 C8.344875,6.77867568 8.15616667,6.90918919 8.11825,7.10837838 C8.08033333,7.30756757 8.208375,7.50051351 8.40379167,7.53886486 L8.82845833,7.62240541 C8.8515,7.62716216 8.87454167,7.62954054 8.89729167,7.62954054" id="Fill-25"></path>
                <path d="M10.10275,7.87362162 L10.29175,7.91078378 L10.3051667,7.92475676 C10.3754583,7.99640541 10.4679167,8.03237838 10.5600833,8.03237838 C10.6525417,8.03237838 10.7447083,7.99640541 10.815,7.92475676 C10.9561667,7.78116216 10.9561667,7.54867568 10.815,7.40508108 L10.7234167,7.31143243 C10.6726667,7.2597027 10.6073333,7.22462162 10.53675,7.21064865 L10.23925,7.15208108 C10.0435417,7.11343243 9.85483333,7.24394595 9.81720833,7.44313514 C9.779,7.64262162 9.90733333,7.83497297 10.10275,7.87362162" id="Fill-26"></path>
                <path d="M9.10029167,10.5718919 C8.901375,10.5718919 8.74008333,10.7362973 8.74008333,10.9393514 L8.74008333,11.3802432 C8.74008333,11.583 8.901375,11.7477027 9.10029167,11.7477027 C9.2995,11.7477027 9.46079167,11.583 9.46079167,11.3802432 L9.46079167,10.9393514 C9.46079167,10.7362973 9.2995,10.5718919 9.10029167,10.5718919" id="Fill-27"></path>
                <path d="M5.85316667,3.85654054 C6.03545833,3.77448649 6.118,3.55775676 6.0375,3.37194595 C5.95729167,3.18643243 5.744375,3.1022973 5.562375,3.18405405 L2.69295833,4.47402703 C2.51095833,4.55608108 2.42841667,4.77310811 2.50891667,4.95862162 C2.56841667,5.09627027 2.70054167,5.17802703 2.83879167,5.17802703 C2.88720833,5.17802703 2.93679167,5.16791892 2.98404167,5.14651351 L5.85316667,3.85654054 Z" id="Fill-28"></path>
            </g>
        </g>
    </g>
</svg>