<?xml version="1.0" encoding="UTF-8" standalone="no"?>
<svg width="32px" height="232px" viewBox="0 0 32 232" version="1.1" xmlns="http://www.w3.org/2000/svg" xmlns:xlink="http://www.w3.org/1999/xlink" xmlns:sketch="http://www.bohemiancoding.com/sketch/ns">
    <!-- Generator: Sketch 3.0.4 (8054) - http://www.bohemiancoding.com/sketch -->
    <title>travel-photography 2</title>
    <desc>Created with Sketch.</desc>
    <defs></defs>
    <g id="Points-of-interest" stroke="none" stroke-width="1" fill="none" fill-rule="evenodd" sketch:type="MSPage">
        <g id="Planes-&amp;-Trains" sketch:type="MSLayerGroup">
            <g id="Imported-Layers" transform="translate(3.000000, 6.000000)" fill="#373D43" sketch:type="MSShapeGroup">
                <path d="M3.268,6.04965517 L7.55566667,6.04965517 L12.3793333,11.2686207 C12.538,11.4403448 12.7546667,11.532069 12.975,11.532069 C13.0776667,11.532069 13.1823333,11.512069 13.2816667,11.4710345 C13.594,11.3410345 13.799,11.027931 13.799,10.68 L13.799,8.65413793 C13.799,8.49413793 13.7556667,8.33724138 13.6733333,8.20172414 L12.3713333,6.04965517 L17.188,6.04965517 C17.44,6.04965517 17.678,5.93068966 17.8346667,5.72586207 L21.0276667,1.5462069 C21.2233333,1.28965517 21.2603333,0.940344828 21.1226667,0.645862069 C20.985,0.351724138 20.697,0.165172414 20.3813333,0.165172414 L18.2353333,0.165172414 C18.0073333,0.165172414 17.7893333,0.263103448 17.6333333,0.435517241 L16.6016667,1.57724138 L3.27566667,1.57724138 C1.66,1.57724138 0.487333333,2.51758621 0.487333333,3.8137931 C0.487333333,5.10413793 1.65566667,6.04448276 3.268,6.04965517 L3.268,6.04965517 Z M3.27566667,3.28206897 L16.9593333,3.28206897 C17.188,3.28206897 17.4053333,3.18413793 17.5613333,3.01172414 L18.5926667,1.87 L18.68,1.87 L16.789,4.34517241 L3.27033333,4.34517241 C2.65566667,4.34275862 2.13533333,4.09965517 2.13533333,3.8137931 C2.13533333,3.52551724 2.65766667,3.28206897 3.27566667,3.28206897 L3.27566667,3.28206897 Z M9.83566667,6.04965517 L10.4266667,6.04965517 L11.5483333,7.90275862 L9.83566667,6.04965517 L9.83566667,6.04965517 Z" id="Fill-1"></path>
                <path d="M26.3976667,17.9965517 C26.3823333,17.9441379 26.0176667,16.6951724 25.229,15.437931 C24.11,13.6534483 22.6786667,12.7103448 21.0896667,12.7103448 L8.88,12.7103448 C8.12433333,12.7103448 7.50733333,13.3365517 7.488,14.1137931 L7.20533333,18.1789655 C7.204,18.1993103 7.203,18.22 7.203,18.24 C7.203,19.0341379 7.82766667,19.6803448 8.59533333,19.6803448 L25.04,19.6803448 C25.8076667,19.6803448 26.432,19.0341379 26.432,18.24 C26.432,18.1575862 26.4206667,18.0755172 26.3976667,17.9965517 L26.3976667,17.9965517 Z M21.0896667,14.4151724 C21.7083333,14.4151724 22.247,14.6593103 22.709,15.0275862 L20.572,15.0275862 C20.3446667,15.0275862 20.1596667,15.2186207 20.1596667,15.4537931 L20.1596667,16.3727586 C20.1596667,16.6082759 20.3446667,16.7989655 20.572,16.7989655 L24.1013333,16.7989655 C24.3423333,17.2434483 24.5216667,17.6655172 24.6413333,17.9758621 L8.87166667,17.9758621 L9.11933333,14.4151724 L21.0896667,14.4151724 L21.0896667,14.4151724 Z" id="Fill-2"></path>
                <path d="M18.6363333,16.3727586 C18.818,16.3727586 18.9656667,16.2858621 18.9743333,16.1772414 L18.9743333,15.65 C18.9656667,15.5406897 18.818,15.4537931 18.6363333,15.4537931 C18.455,15.4537931 18.3073333,15.5406897 18.2986667,15.65 L18.2986667,16.1772414 C18.3073333,16.2858621 18.455,16.3727586 18.6363333,16.3727586" id="Fill-3"></path>
                <path d="M17.222,16.3727586 C17.4033333,16.3727586 17.551,16.2858621 17.5596667,16.1772414 L17.5596667,15.65 C17.551,15.5406897 17.4033333,15.4537931 17.2213333,15.4537931 C17.04,15.4537931 16.8923333,15.5406897 16.8836667,15.65 L16.8836667,16.1772414 C16.8923333,16.2858621 17.04,16.3727586 17.222,16.3727586" id="Fill-4"></path>
                <path d="M15.807,16.3727586 C15.9886667,16.3727586 16.1363333,16.2858621 16.145,16.1772414 L16.145,15.65 C16.1363333,15.5406897 15.9886667,15.4537931 15.807,15.4537931 C15.6256667,15.4537931 15.4776667,15.5406897 15.469,15.65 L15.469,16.1772414 C15.4776667,16.2858621 15.6256667,16.3727586 15.807,16.3727586" id="Fill-5"></path>
                <path d="M14.3923333,16.3727586 C14.5736667,16.3727586 14.7216667,16.2858621 14.73,16.1772414 L14.73,15.65 C14.7216667,15.5406897 14.5736667,15.4537931 14.3923333,15.4537931 C14.2106667,15.4537931 14.063,15.5406897 14.0543333,15.65 L14.0543333,16.1772414 C14.063,16.2858621 14.2106667,16.3727586 14.3923333,16.3727586" id="Fill-6"></path>
                <path d="M12.978,16.3727586 C13.1593333,16.3727586 13.307,16.2858621 13.3153333,16.1772414 L13.3153333,15.65 C13.307,15.5406897 13.1593333,15.4537931 12.9773333,15.4537931 C12.796,15.4537931 12.648,15.5406897 12.6396667,15.65 L12.6396667,16.1772414 C12.648,16.2858621 12.796,16.3727586 12.978,16.3727586" id="Fill-7"></path>
                <path d="M11.563,16.3727586 C11.744,16.3727586 11.8923333,16.2858621 11.9003333,16.1772414 L11.9003333,15.65 C11.8923333,15.5406897 11.744,15.4537931 11.563,15.4537931 C11.3813333,15.4537931 11.2333333,15.5406897 11.225,15.65 L11.225,16.1772414 C11.2333333,16.2858621 11.3813333,16.3727586 11.563,16.3727586" id="Fill-8"></path>
                <path d="M10.148,16.3727586 C10.3293333,16.3727586 10.4776667,16.2858621 10.486,16.1772414 L10.486,15.65 C10.4776667,15.5406897 10.3293333,15.4537931 10.148,15.4537931 C9.96633333,15.4537931 9.81833333,15.5406897 9.81,15.65 L9.81,16.1772414 C9.81833333,16.2858621 9.96633333,16.3727586 10.148,16.3727586" id="Fill-9"></path>
                <path d="M18.3753333,6.78827586 C18.1473333,6.78827586 17.9633333,6.97896552 17.9633333,7.21448276 C17.9633333,7.45 18.1473333,7.64068966 18.3753333,7.64068966 L22.6593333,7.64068966 C22.887,7.64068966 23.0713333,7.45 23.0713333,7.21448276 C23.0713333,6.97896552 22.887,6.78827586 22.6593333,6.78827586 L18.3753333,6.78827586" id="Fill-10"></path>
                <path d="M20.105,5.60310345 C20.105,5.83862069 20.2893333,6.02931034 20.5173333,6.02931034 L25.5433333,6.02931034 C25.771,6.02931034 25.9553333,5.83862069 25.9553333,5.60310345 C25.9553333,5.36758621 25.771,5.17689655 25.5433333,5.17689655 L20.5173333,5.17689655 C20.2893333,5.17689655 20.105,5.36758621 20.105,5.60310345" id="Fill-11"></path>
                <path d="M20.5026667,3.99172414 C20.5026667,4.22689655 20.6873333,4.41758621 20.9146667,4.41758621 L23.655,4.41758621 C23.8823333,4.41758621 24.067,4.22689655 24.067,3.99172414 C24.067,3.7562069 23.8823333,3.56551724 23.655,3.56551724 L20.9146667,3.56551724 C20.6873333,3.56551724 20.5026667,3.7562069 20.5026667,3.99172414" id="Fill-12"></path>
                <path d="M5.30833333,17.3806897 L1.02366667,17.3806897 C0.796,17.3806897 0.612,17.5713793 0.612,17.8072414 C0.612,18.042069 0.796,18.2331034 1.02366667,18.2331034 L5.30833333,18.2331034 C5.53566667,18.2331034 5.72,18.042069 5.72,17.8072414 C5.72,17.5713793 5.53566667,17.3806897 5.30833333,17.3806897" id="Fill-13"></path>
                <path d="M5.30833333,15.7689655 L0.282,15.7689655 C0.0543333333,15.7689655 -0.13,15.96 -0.13,16.1955172 C-0.13,16.4303448 0.0543333333,16.6217241 0.282,16.6217241 L5.30833333,16.6217241 C5.53566667,16.6217241 5.72,16.4303448 5.72,16.1955172 C5.72,15.96 5.53566667,15.7689655 5.30833333,15.7689655" id="Fill-14"></path>
                <path d="M5.30833333,14.157931 L2.56766667,14.157931 C2.34033333,14.157931 2.156,14.3486207 2.156,14.5837931 C2.156,14.8196552 2.34033333,15.01 2.56766667,15.01 L5.30833333,15.01 C5.53566667,15.01 5.72,14.8196552 5.72,14.5837931 C5.72,14.3486207 5.53566667,14.157931 5.30833333,14.157931" id="Fill-15"></path>
            </g>
            <g id="Imported-Layers-23" transform="translate(3.000000, 46.000000)" fill="#67747C" sketch:type="MSShapeGroup">
                <path d="M3.268,6.04965517 L7.55566667,6.04965517 L12.3793333,11.2686207 C12.538,11.4403448 12.7546667,11.532069 12.975,11.532069 C13.0776667,11.532069 13.1823333,11.512069 13.2816667,11.4710345 C13.594,11.3410345 13.799,11.027931 13.799,10.68 L13.799,8.65413793 C13.799,8.49413793 13.7556667,8.33724138 13.6733333,8.20172414 L12.3713333,6.04965517 L17.188,6.04965517 C17.44,6.04965517 17.678,5.93068966 17.8346667,5.72586207 L21.0276667,1.5462069 C21.2233333,1.28965517 21.2603333,0.940344828 21.1226667,0.645862069 C20.985,0.351724138 20.697,0.165172414 20.3813333,0.165172414 L18.2353333,0.165172414 C18.0073333,0.165172414 17.7893333,0.263103448 17.6333333,0.435517241 L16.6016667,1.57724138 L3.27566667,1.57724138 C1.66,1.57724138 0.487333333,2.51758621 0.487333333,3.8137931 C0.487333333,5.10413793 1.65566667,6.04448276 3.268,6.04965517 L3.268,6.04965517 Z M3.27566667,3.28206897 L16.9593333,3.28206897 C17.188,3.28206897 17.4053333,3.18413793 17.5613333,3.01172414 L18.5926667,1.87 L18.68,1.87 L16.789,4.34517241 L3.27033333,4.34517241 C2.65566667,4.34275862 2.13533333,4.09965517 2.13533333,3.8137931 C2.13533333,3.52551724 2.65766667,3.28206897 3.27566667,3.28206897 L3.27566667,3.28206897 Z M9.83566667,6.04965517 L10.4266667,6.04965517 L11.5483333,7.90275862 L9.83566667,6.04965517 L9.83566667,6.04965517 Z" id="Fill-1"></path>
                <path d="M26.3976667,17.9965517 C26.3823333,17.9441379 26.0176667,16.6951724 25.229,15.437931 C24.11,13.6534483 22.6786667,12.7103448 21.0896667,12.7103448 L8.88,12.7103448 C8.12433333,12.7103448 7.50733333,13.3365517 7.488,14.1137931 L7.20533333,18.1789655 C7.204,18.1993103 7.203,18.22 7.203,18.24 C7.203,19.0341379 7.82766667,19.6803448 8.59533333,19.6803448 L25.04,19.6803448 C25.8076667,19.6803448 26.432,19.0341379 26.432,18.24 C26.432,18.1575862 26.4206667,18.0755172 26.3976667,17.9965517 L26.3976667,17.9965517 Z M21.0896667,14.4151724 C21.7083333,14.4151724 22.247,14.6593103 22.709,15.0275862 L20.572,15.0275862 C20.3446667,15.0275862 20.1596667,15.2186207 20.1596667,15.4537931 L20.1596667,16.3727586 C20.1596667,16.6082759 20.3446667,16.7989655 20.572,16.7989655 L24.1013333,16.7989655 C24.3423333,17.2434483 24.5216667,17.6655172 24.6413333,17.9758621 L8.87166667,17.9758621 L9.11933333,14.4151724 L21.0896667,14.4151724 L21.0896667,14.4151724 Z" id="Fill-2"></path>
                <path d="M18.6363333,16.3727586 C18.818,16.3727586 18.9656667,16.2858621 18.9743333,16.1772414 L18.9743333,15.65 C18.9656667,15.5406897 18.818,15.4537931 18.6363333,15.4537931 C18.455,15.4537931 18.3073333,15.5406897 18.2986667,15.65 L18.2986667,16.1772414 C18.3073333,16.2858621 18.455,16.3727586 18.6363333,16.3727586" id="Fill-3"></path>
                <path d="M17.222,16.3727586 C17.4033333,16.3727586 17.551,16.2858621 17.5596667,16.1772414 L17.5596667,15.65 C17.551,15.5406897 17.4033333,15.4537931 17.2213333,15.4537931 C17.04,15.4537931 16.8923333,15.5406897 16.8836667,15.65 L16.8836667,16.1772414 C16.8923333,16.2858621 17.04,16.3727586 17.222,16.3727586" id="Fill-4"></path>
                <path d="M15.807,16.3727586 C15.9886667,16.3727586 16.1363333,16.2858621 16.145,16.1772414 L16.145,15.65 C16.1363333,15.5406897 15.9886667,15.4537931 15.807,15.4537931 C15.6256667,15.4537931 15.4776667,15.5406897 15.469,15.65 L15.469,16.1772414 C15.4776667,16.2858621 15.6256667,16.3727586 15.807,16.3727586" id="Fill-5"></path>
                <path d="M14.3923333,16.3727586 C14.5736667,16.3727586 14.7216667,16.2858621 14.73,16.1772414 L14.73,15.65 C14.7216667,15.5406897 14.5736667,15.4537931 14.3923333,15.4537931 C14.2106667,15.4537931 14.063,15.5406897 14.0543333,15.65 L14.0543333,16.1772414 C14.063,16.2858621 14.2106667,16.3727586 14.3923333,16.3727586" id="Fill-6"></path>
                <path d="M12.978,16.3727586 C13.1593333,16.3727586 13.307,16.2858621 13.3153333,16.1772414 L13.3153333,15.65 C13.307,15.5406897 13.1593333,15.4537931 12.9773333,15.4537931 C12.796,15.4537931 12.648,15.5406897 12.6396667,15.65 L12.6396667,16.1772414 C12.648,16.2858621 12.796,16.3727586 12.978,16.3727586" id="Fill-7"></path>
                <path d="M11.563,16.3727586 C11.744,16.3727586 11.8923333,16.2858621 11.9003333,16.1772414 L11.9003333,15.65 C11.8923333,15.5406897 11.744,15.4537931 11.563,15.4537931 C11.3813333,15.4537931 11.2333333,15.5406897 11.225,15.65 L11.225,16.1772414 C11.2333333,16.2858621 11.3813333,16.3727586 11.563,16.3727586" id="Fill-8"></path>
                <path d="M10.486,16.1772414 L10.486,15.65 C10.4776667,15.5406897 10.3293333,15.4537931 10.148,15.4537931 C9.96633333,15.4537931 9.81833333,15.5406897 9.81,15.65 L9.81,16.1772414 C9.81833333,16.2858621 9.96633333,16.3727586 10.148,16.3727586 C10.3293333,16.3727586 10.4776667,16.2858621 10.486,16.1772414 Z" id="Fill-9"></path>
                <path d="M18.3753333,6.78827586 C18.1473333,6.78827586 17.9633333,6.97896552 17.9633333,7.21448276 C17.9633333,7.45 18.1473333,7.64068966 18.3753333,7.64068966 L22.6593333,7.64068966 C22.887,7.64068966 23.0713333,7.45 23.0713333,7.21448276 C23.0713333,6.97896552 22.887,6.78827586 22.6593333,6.78827586 L18.3753333,6.78827586" id="Fill-10"></path>
                <path d="M20.105,5.60310345 C20.105,5.83862069 20.2893333,6.02931034 20.5173333,6.02931034 L25.5433333,6.02931034 C25.771,6.02931034 25.9553333,5.83862069 25.9553333,5.60310345 C25.9553333,5.36758621 25.771,5.17689655 25.5433333,5.17689655 L20.5173333,5.17689655 C20.2893333,5.17689655 20.105,5.36758621 20.105,5.60310345" id="Fill-11"></path>
                <path d="M20.5026667,3.99172414 C20.5026667,4.22689655 20.6873333,4.41758621 20.9146667,4.41758621 L23.655,4.41758621 C23.8823333,4.41758621 24.067,4.22689655 24.067,3.99172414 C24.067,3.7562069 23.8823333,3.56551724 23.655,3.56551724 L20.9146667,3.56551724 C20.6873333,3.56551724 20.5026667,3.7562069 20.5026667,3.99172414" id="Fill-12"></path>
                <path d="M5.30833333,17.3806897 L1.02366667,17.3806897 C0.796,17.3806897 0.612,17.5713793 0.612,17.8072414 C0.612,18.042069 0.796,18.2331034 1.02366667,18.2331034 L5.30833333,18.2331034 C5.53566667,18.2331034 5.72,18.042069 5.72,17.8072414 C5.72,17.5713793 5.53566667,17.3806897 5.30833333,17.3806897" id="Fill-13"></path>
                <path d="M5.30833333,15.7689655 L0.282,15.7689655 C0.0543333333,15.7689655 -0.13,15.96 -0.13,16.1955172 C-0.13,16.4303448 0.0543333333,16.6217241 0.282,16.6217241 L5.30833333,16.6217241 C5.53566667,16.6217241 5.72,16.4303448 5.72,16.1955172 C5.72,15.96 5.53566667,15.7689655 5.30833333,15.7689655" id="Fill-14"></path>
                <path d="M5.30833333,14.157931 L2.56766667,14.157931 C2.34033333,14.157931 2.156,14.3486207 2.156,14.5837931 C2.156,14.8196552 2.34033333,15.01 2.56766667,15.01 L5.30833333,15.01 C5.53566667,15.01 5.72,14.8196552 5.72,14.5837931 C5.72,14.3486207 5.53566667,14.157931 5.30833333,14.157931" id="Fill-15"></path>
            </g>
            <g id="Imported-Layers-24" transform="translate(3.000000, 86.000000)" fill="#FFFFFF" sketch:type="MSShapeGroup">
                <path d="M3.268,6.04965517 L7.55566667,6.04965517 L12.3793333,11.2686207 C12.538,11.4403448 12.7546667,11.532069 12.975,11.532069 C13.0776667,11.532069 13.1823333,11.512069 13.2816667,11.4710345 C13.594,11.3410345 13.799,11.027931 13.799,10.68 L13.799,8.65413793 C13.799,8.49413793 13.7556667,8.33724138 13.6733333,8.20172414 L12.3713333,6.04965517 L17.188,6.04965517 C17.44,6.04965517 17.678,5.93068966 17.8346667,5.72586207 L21.0276667,1.5462069 C21.2233333,1.28965517 21.2603333,0.940344828 21.1226667,0.645862069 C20.985,0.351724138 20.697,0.165172414 20.3813333,0.165172414 L18.2353333,0.165172414 C18.0073333,0.165172414 17.7893333,0.263103448 17.6333333,0.435517241 L16.6016667,1.57724138 L3.27566667,1.57724138 C1.66,1.57724138 0.487333333,2.51758621 0.487333333,3.8137931 C0.487333333,5.10413793 1.65566667,6.04448276 3.268,6.04965517 L3.268,6.04965517 Z M3.27566667,3.28206897 L16.9593333,3.28206897 C17.188,3.28206897 17.4053333,3.18413793 17.5613333,3.01172414 L18.5926667,1.87 L18.68,1.87 L16.789,4.34517241 L3.27033333,4.34517241 C2.65566667,4.34275862 2.13533333,4.09965517 2.13533333,3.8137931 C2.13533333,3.52551724 2.65766667,3.28206897 3.27566667,3.28206897 L3.27566667,3.28206897 Z M9.83566667,6.04965517 L10.4266667,6.04965517 L11.5483333,7.90275862 L9.83566667,6.04965517 L9.83566667,6.04965517 Z" id="Fill-1"></path>
                <path d="M26.3976667,17.9965517 C26.3823333,17.9441379 26.0176667,16.6951724 25.229,15.437931 C24.11,13.6534483 22.6786667,12.7103448 21.0896667,12.7103448 L8.88,12.7103448 C8.12433333,12.7103448 7.50733333,13.3365517 7.488,14.1137931 L7.20533333,18.1789655 C7.204,18.1993103 7.203,18.22 7.203,18.24 C7.203,19.0341379 7.82766667,19.6803448 8.59533333,19.6803448 L25.04,19.6803448 C25.8076667,19.6803448 26.432,19.0341379 26.432,18.24 C26.432,18.1575862 26.4206667,18.0755172 26.3976667,17.9965517 L26.3976667,17.9965517 Z M21.0896667,14.4151724 C21.7083333,14.4151724 22.247,14.6593103 22.709,15.0275862 L20.572,15.0275862 C20.3446667,15.0275862 20.1596667,15.2186207 20.1596667,15.4537931 L20.1596667,16.3727586 C20.1596667,16.6082759 20.3446667,16.7989655 20.572,16.7989655 L24.1013333,16.7989655 C24.3423333,17.2434483 24.5216667,17.6655172 24.6413333,17.9758621 L8.87166667,17.9758621 L9.11933333,14.4151724 L21.0896667,14.4151724 L21.0896667,14.4151724 Z" id="Fill-2"></path>
                <path d="M18.6363333,16.3727586 C18.818,16.3727586 18.9656667,16.2858621 18.9743333,16.1772414 L18.9743333,15.65 C18.9656667,15.5406897 18.818,15.4537931 18.6363333,15.4537931 C18.455,15.4537931 18.3073333,15.5406897 18.2986667,15.65 L18.2986667,16.1772414 C18.3073333,16.2858621 18.455,16.3727586 18.6363333,16.3727586" id="Fill-3"></path>
                <path d="M17.222,16.3727586 C17.4033333,16.3727586 17.551,16.2858621 17.5596667,16.1772414 L17.5596667,15.65 C17.551,15.5406897 17.4033333,15.4537931 17.2213333,15.4537931 C17.04,15.4537931 16.8923333,15.5406897 16.8836667,15.65 L16.8836667,16.1772414 C16.8923333,16.2858621 17.04,16.3727586 17.222,16.3727586" id="Fill-4"></path>
                <path d="M15.807,16.3727586 C15.9886667,16.3727586 16.1363333,16.2858621 16.145,16.1772414 L16.145,15.65 C16.1363333,15.5406897 15.9886667,15.4537931 15.807,15.4537931 C15.6256667,15.4537931 15.4776667,15.5406897 15.469,15.65 L15.469,16.1772414 C15.4776667,16.2858621 15.6256667,16.3727586 15.807,16.3727586" id="Fill-5"></path>
                <path d="M14.3923333,16.3727586 C14.5736667,16.3727586 14.7216667,16.2858621 14.73,16.1772414 L14.73,15.65 C14.7216667,15.5406897 14.5736667,15.4537931 14.3923333,15.4537931 C14.2106667,15.4537931 14.063,15.5406897 14.0543333,15.65 L14.0543333,16.1772414 C14.063,16.2858621 14.2106667,16.3727586 14.3923333,16.3727586" id="Fill-6"></path>
                <path d="M12.978,16.3727586 C13.1593333,16.3727586 13.307,16.2858621 13.3153333,16.1772414 L13.3153333,15.65 C13.307,15.5406897 13.1593333,15.4537931 12.9773333,15.4537931 C12.796,15.4537931 12.648,15.5406897 12.6396667,15.65 L12.6396667,16.1772414 C12.648,16.2858621 12.796,16.3727586 12.978,16.3727586" id="Fill-7"></path>
                <path d="M11.563,16.3727586 C11.744,16.3727586 11.8923333,16.2858621 11.9003333,16.1772414 L11.9003333,15.65 C11.8923333,15.5406897 11.744,15.4537931 11.563,15.4537931 C11.3813333,15.4537931 11.2333333,15.5406897 11.225,15.65 L11.225,16.1772414 C11.2333333,16.2858621 11.3813333,16.3727586 11.563,16.3727586" id="Fill-8"></path>
                <path d="M10.148,16.3727586 C10.3293333,16.3727586 10.4776667,16.2858621 10.486,16.1772414 L10.486,15.65 C10.4776667,15.5406897 10.3293333,15.4537931 10.148,15.4537931 C9.96633333,15.4537931 9.81833333,15.5406897 9.81,15.65 L9.81,16.1772414 C9.81833333,16.2858621 9.96633333,16.3727586 10.148,16.3727586" id="Fill-9"></path>
                <path d="M18.3753333,6.78827586 C18.1473333,6.78827586 17.9633333,6.97896552 17.9633333,7.21448276 C17.9633333,7.45 18.1473333,7.64068966 18.3753333,7.64068966 L22.6593333,7.64068966 C22.887,7.64068966 23.0713333,7.45 23.0713333,7.21448276 C23.0713333,6.97896552 22.887,6.78827586 22.6593333,6.78827586 L18.3753333,6.78827586" id="Fill-10"></path>
                <path d="M20.105,5.60310345 C20.105,5.83862069 20.2893333,6.02931034 20.5173333,6.02931034 L25.5433333,6.02931034 C25.771,6.02931034 25.9553333,5.83862069 25.9553333,5.60310345 C25.9553333,5.36758621 25.771,5.17689655 25.5433333,5.17689655 L20.5173333,5.17689655 C20.2893333,5.17689655 20.105,5.36758621 20.105,5.60310345" id="Fill-11"></path>
                <path d="M20.5026667,3.99172414 C20.5026667,4.22689655 20.6873333,4.41758621 20.9146667,4.41758621 L23.655,4.41758621 C23.8823333,4.41758621 24.067,4.22689655 24.067,3.99172414 C24.067,3.7562069 23.8823333,3.56551724 23.655,3.56551724 L20.9146667,3.56551724 C20.6873333,3.56551724 20.5026667,3.7562069 20.5026667,3.99172414" id="Fill-12"></path>
                <path d="M5.30833333,17.3806897 L1.02366667,17.3806897 C0.796,17.3806897 0.612,17.5713793 0.612,17.8072414 C0.612,18.042069 0.796,18.2331034 1.02366667,18.2331034 L5.30833333,18.2331034 C5.53566667,18.2331034 5.72,18.042069 5.72,17.8072414 C5.72,17.5713793 5.53566667,17.3806897 5.30833333,17.3806897" id="Fill-13"></path>
                <path d="M5.30833333,15.7689655 L0.282,15.7689655 C0.0543333333,15.7689655 -0.13,15.96 -0.13,16.1955172 C-0.13,16.4303448 0.0543333333,16.6217241 0.282,16.6217241 L5.30833333,16.6217241 C5.53566667,16.6217241 5.72,16.4303448 5.72,16.1955172 C5.72,15.96 5.53566667,15.7689655 5.30833333,15.7689655" id="Fill-14"></path>
                <path d="M5.30833333,14.157931 L2.56766667,14.157931 C2.34033333,14.157931 2.156,14.3486207 2.156,14.5837931 C2.156,14.8196552 2.34033333,15.01 2.56766667,15.01 L5.30833333,15.01 C5.53566667,15.01 5.72,14.8196552 5.72,14.5837931 C5.72,14.3486207 5.53566667,14.157931 5.30833333,14.157931" id="Fill-15"></path>
            </g>
            <g id="Imported-Layers-25" transform="translate(3.000000, 126.000000)" fill="#206FAC" sketch:type="MSShapeGroup">
                <path d="M3.268,6.04965517 L7.55566667,6.04965517 L12.3793333,11.2686207 C12.538,11.4403448 12.7546667,11.532069 12.975,11.532069 C13.0776667,11.532069 13.1823333,11.512069 13.2816667,11.4710345 C13.594,11.3410345 13.799,11.027931 13.799,10.68 L13.799,8.65413793 C13.799,8.49413793 13.7556667,8.33724138 13.6733333,8.20172414 L12.3713333,6.04965517 L17.188,6.04965517 C17.44,6.04965517 17.678,5.93068966 17.8346667,5.72586207 L21.0276667,1.5462069 C21.2233333,1.28965517 21.2603333,0.940344828 21.1226667,0.645862069 C20.985,0.351724138 20.697,0.165172414 20.3813333,0.165172414 L18.2353333,0.165172414 C18.0073333,0.165172414 17.7893333,0.263103448 17.6333333,0.435517241 L16.6016667,1.57724138 L3.27566667,1.57724138 C1.66,1.57724138 0.487333333,2.51758621 0.487333333,3.8137931 C0.487333333,5.10413793 1.65566667,6.04448276 3.268,6.04965517 L3.268,6.04965517 Z M3.27566667,3.28206897 L16.9593333,3.28206897 C17.188,3.28206897 17.4053333,3.18413793 17.5613333,3.01172414 L18.5926667,1.87 L18.68,1.87 L16.789,4.34517241 L3.27033333,4.34517241 C2.65566667,4.34275862 2.13533333,4.09965517 2.13533333,3.8137931 C2.13533333,3.52551724 2.65766667,3.28206897 3.27566667,3.28206897 L3.27566667,3.28206897 Z M9.83566667,6.04965517 L10.4266667,6.04965517 L11.5483333,7.90275862 L9.83566667,6.04965517 L9.83566667,6.04965517 Z" id="Fill-1"></path>
                <path d="M26.3976667,17.9965517 C26.3823333,17.9441379 26.0176667,16.6951724 25.229,15.437931 C24.11,13.6534483 22.6786667,12.7103448 21.0896667,12.7103448 L8.88,12.7103448 C8.12433333,12.7103448 7.50733333,13.3365517 7.488,14.1137931 L7.20533333,18.1789655 C7.204,18.1993103 7.203,18.22 7.203,18.24 C7.203,19.0341379 7.82766667,19.6803448 8.59533333,19.6803448 L25.04,19.6803448 C25.8076667,19.6803448 26.432,19.0341379 26.432,18.24 C26.432,18.1575862 26.4206667,18.0755172 26.3976667,17.9965517 L26.3976667,17.9965517 Z M21.0896667,14.4151724 C21.7083333,14.4151724 22.247,14.6593103 22.709,15.0275862 L20.572,15.0275862 C20.3446667,15.0275862 20.1596667,15.2186207 20.1596667,15.4537931 L20.1596667,16.3727586 C20.1596667,16.6082759 20.3446667,16.7989655 20.572,16.7989655 L24.1013333,16.7989655 C24.3423333,17.2434483 24.5216667,17.6655172 24.6413333,17.9758621 L8.87166667,17.9758621 L9.11933333,14.4151724 L21.0896667,14.4151724 L21.0896667,14.4151724 Z" id="Fill-2"></path>
                <path d="M18.6363333,16.3727586 C18.818,16.3727586 18.9656667,16.2858621 18.9743333,16.1772414 L18.9743333,15.65 C18.9656667,15.5406897 18.818,15.4537931 18.6363333,15.4537931 C18.455,15.4537931 18.3073333,15.5406897 18.2986667,15.65 L18.2986667,16.1772414 C18.3073333,16.2858621 18.455,16.3727586 18.6363333,16.3727586" id="Fill-3"></path>
                <path d="M17.222,16.3727586 C17.4033333,16.3727586 17.551,16.2858621 17.5596667,16.1772414 L17.5596667,15.65 C17.551,15.5406897 17.4033333,15.4537931 17.2213333,15.4537931 C17.04,15.4537931 16.8923333,15.5406897 16.8836667,15.65 L16.8836667,16.1772414 C16.8923333,16.2858621 17.04,16.3727586 17.222,16.3727586" id="Fill-4"></path>
                <path d="M15.807,16.3727586 C15.9886667,16.3727586 16.1363333,16.2858621 16.145,16.1772414 L16.145,15.65 C16.1363333,15.5406897 15.9886667,15.4537931 15.807,15.4537931 C15.6256667,15.4537931 15.4776667,15.5406897 15.469,15.65 L15.469,16.1772414 C15.4776667,16.2858621 15.6256667,16.3727586 15.807,16.3727586" id="Fill-5"></path>
                <path d="M14.3923333,16.3727586 C14.5736667,16.3727586 14.7216667,16.2858621 14.73,16.1772414 L14.73,15.65 C14.7216667,15.5406897 14.5736667,15.4537931 14.3923333,15.4537931 C14.2106667,15.4537931 14.063,15.5406897 14.0543333,15.65 L14.0543333,16.1772414 C14.063,16.2858621 14.2106667,16.3727586 14.3923333,16.3727586" id="Fill-6"></path>
                <path d="M12.978,16.3727586 C13.1593333,16.3727586 13.307,16.2858621 13.3153333,16.1772414 L13.3153333,15.65 C13.307,15.5406897 13.1593333,15.4537931 12.9773333,15.4537931 C12.796,15.4537931 12.648,15.5406897 12.6396667,15.65 L12.6396667,16.1772414 C12.648,16.2858621 12.796,16.3727586 12.978,16.3727586" id="Fill-7"></path>
                <path d="M11.563,16.3727586 C11.744,16.3727586 11.8923333,16.2858621 11.9003333,16.1772414 L11.9003333,15.65 C11.8923333,15.5406897 11.744,15.4537931 11.563,15.4537931 C11.3813333,15.4537931 11.2333333,15.5406897 11.225,15.65 L11.225,16.1772414 C11.2333333,16.2858621 11.3813333,16.3727586 11.563,16.3727586" id="Fill-8"></path>
                <path d="M10.148,16.3727586 C10.3293333,16.3727586 10.4776667,16.2858621 10.486,16.1772414 L10.486,15.65 C10.4776667,15.5406897 10.3293333,15.4537931 10.148,15.4537931 C9.96633333,15.4537931 9.81833333,15.5406897 9.81,15.65 L9.81,16.1772414 C9.81833333,16.2858621 9.96633333,16.3727586 10.148,16.3727586" id="Fill-9"></path>
                <path d="M18.3753333,6.78827586 C18.1473333,6.78827586 17.9633333,6.97896552 17.9633333,7.21448276 C17.9633333,7.45 18.1473333,7.64068966 18.3753333,7.64068966 L22.6593333,7.64068966 C22.887,7.64068966 23.0713333,7.45 23.0713333,7.21448276 C23.0713333,6.97896552 22.887,6.78827586 22.6593333,6.78827586 L18.3753333,6.78827586" id="Fill-10"></path>
                <path d="M20.105,5.60310345 C20.105,5.83862069 20.2893333,6.02931034 20.5173333,6.02931034 L25.5433333,6.02931034 C25.771,6.02931034 25.9553333,5.83862069 25.9553333,5.60310345 C25.9553333,5.36758621 25.771,5.17689655 25.5433333,5.17689655 L20.5173333,5.17689655 C20.2893333,5.17689655 20.105,5.36758621 20.105,5.60310345" id="Fill-11"></path>
                <path d="M20.5026667,3.99172414 C20.5026667,4.22689655 20.6873333,4.41758621 20.9146667,4.41758621 L23.655,4.41758621 C23.8823333,4.41758621 24.067,4.22689655 24.067,3.99172414 C24.067,3.7562069 23.8823333,3.56551724 23.655,3.56551724 L20.9146667,3.56551724 C20.6873333,3.56551724 20.5026667,3.7562069 20.5026667,3.99172414" id="Fill-12"></path>
                <path d="M5.30833333,17.3806897 L1.02366667,17.3806897 C0.796,17.3806897 0.612,17.5713793 0.612,17.8072414 C0.612,18.042069 0.796,18.2331034 1.02366667,18.2331034 L5.30833333,18.2331034 C5.53566667,18.2331034 5.72,18.042069 5.72,17.8072414 C5.72,17.5713793 5.53566667,17.3806897 5.30833333,17.3806897" id="Fill-13"></path>
                <path d="M5.30833333,15.7689655 L0.282,15.7689655 C0.0543333333,15.7689655 -0.13,15.96 -0.13,16.1955172 C-0.13,16.4303448 0.0543333333,16.6217241 0.282,16.6217241 L5.30833333,16.6217241 C5.53566667,16.6217241 5.72,16.4303448 5.72,16.1955172 C5.72,15.96 5.53566667,15.7689655 5.30833333,15.7689655" id="Fill-14"></path>
                <path d="M5.30833333,14.157931 L2.56766667,14.157931 C2.34033333,14.157931 2.156,14.3486207 2.156,14.5837931 C2.156,14.8196552 2.34033333,15.01 2.56766667,15.01 L5.30833333,15.01 C5.53566667,15.01 5.72,14.8196552 5.72,14.5837931 C5.72,14.3486207 5.53566667,14.157931 5.30833333,14.157931" id="Fill-15"></path>
            </g>
        </g>
    </g>
</svg>