<svg width="32" height="232" viewBox="0 0 32 232" xmlns="http://www.w3.org/2000/svg"><g fill="none"><g fill="#3B444F"><path d="M15.8 16.337c-.285 0-.515.244-.515.546v2.14c0 .3.23.546.515.546.285 0 .515-.248.515-.55v-2.14c0-.3-.23-.546-.515-.546"/><path d="M29.932 12.473h-1.325c.002-.272-.092-.544-.282-.757l-.942-1.052-1.334-1.826-.877-2.928c-.135-.455-.534-.764-.983-.764h-2.544c-.217 0-.428.072-.602.205-1.976 1.515-4.248 3.185-4.792 3.487-.374.043-1.597.01-2.722-.054L11.65 6.58c-.317-.373-.834-.47-1.252-.233l-2.515 1.42H5.586c-.403 0-.77.25-.938.637L3.086 12.01c-.063.15-.093.307-.092.46H1.816c-.285 0-.515.245-.515.547 0 .302.23.546.52.546h9.376L4.878 24.798c-.19.337-.194.758-.01 1.1.183.34.525.552.894.552h20.074c.37 0 .712-.212.897-.552.183-.342.178-.763-.01-1.1l-6.315-11.235h9.523c.29 0 .52-.244.52-.546 0-.302-.23-.546-.516-.546zm-5.91 11.794h-7.706v-2.105c0-.3-.23-.546-.515-.546-.28 0-.51.245-.51.546v2.105H7.58l5.92-10.534h1.786v.328c0 .305.23.55.515.55.29 0 .52-.245.52-.546v-.327h1.78l5.922 10.534zm-4.23-11.794v-.004H5.156l.003-.004L6.244 9.95H8.14c.17 0 .336-.044.486-.13l2.032-1.15 1.626 1.905c.18.212.43.34.702.36 1.438.093 3.276.17 3.842.002.188-.055.678-.2 5.15-3.61h1.455l.702 2.352c.035.12.092.235.167.34l1.477 2.02.07.08.302.343.005.004H19.79z"/></g><g fill="#67747C"><path d="M15.8 56.337c-.285 0-.515.244-.515.546v2.14c0 .3.23.546.515.546.285 0 .515-.248.515-.55v-2.14c0-.3-.23-.546-.515-.546"/><path d="M29.932 52.473h-1.325c.002-.272-.092-.544-.282-.757l-.942-1.052-1.334-1.826-.877-2.928c-.135-.455-.534-.764-.983-.764h-2.544c-.217 0-.428.072-.602.205-1.976 1.515-4.248 3.185-4.792 3.487-.374.043-1.597.01-2.722-.054l-1.88-2.203c-.318-.373-.835-.47-1.253-.233L7.882 47.77H5.586c-.403 0-.77.25-.938.635L3.086 52.01c-.063.15-.093.307-.092.46H1.816c-.285 0-.515.245-.515.547 0 .302.23.546.52.546h9.376L4.878 64.798c-.19.337-.194.758-.01 1.1.183.34.525.552.894.552h20.074c.37 0 .712-.212.897-.552.183-.342.178-.763-.01-1.1l-6.315-11.235h9.523c.29 0 .52-.244.52-.546 0-.302-.23-.546-.516-.546zm-5.91 11.794h-7.706v-2.105c0-.3-.23-.546-.515-.546-.28 0-.51.245-.51.546v2.105H7.58l5.92-10.534h1.786v.328c0 .305.23.55.515.55.29 0 .52-.245.52-.546v-.327h1.78l5.922 10.534zm-4.23-11.794v-.004H5.156l.003-.004 1.085-2.516H8.14c.17 0 .336-.044.486-.13l2.032-1.15 1.626 1.905c.18.212.43.34.702.36 1.438.093 3.276.17 3.842.002.188-.055.678-.2 5.15-3.61h1.455l.702 2.352c.035.12.092.235.167.34l1.477 2.02.07.08.302.343.005.004H19.79z"/></g><g fill="#fff"><path d="M15.8 96.337c-.285 0-.515.244-.515.546v2.14c0 .3.23.546.515.546.285 0 .515-.248.515-.55v-2.14c0-.3-.23-.546-.515-.546"/><path d="M29.932 92.473h-1.325c.002-.272-.092-.544-.282-.757l-.942-1.052-1.334-1.826-.877-2.928c-.135-.455-.534-.764-.983-.764h-2.544c-.217 0-.428.072-.602.205-1.976 1.515-4.248 3.185-4.792 3.487-.374.043-1.597.01-2.722-.054l-1.88-2.203c-.318-.373-.835-.47-1.253-.233L7.882 87.77H5.586c-.403 0-.77.25-.938.635L3.086 92.01c-.063.15-.093.307-.092.46H1.816c-.285 0-.515.245-.515.547 0 .302.23.546.52.546h9.376L4.88 104.798c-.19.337-.195.758-.01 1.1.182.34.524.552.893.552h20.074c.37 0 .712-.212.897-.552.183-.342.178-.763-.01-1.1L20.41 93.563h9.522c.286 0 .516-.244.516-.546 0-.302-.23-.546-.515-.546zm-5.91 11.794h-7.706v-2.105c0-.3-.23-.546-.515-.546-.28 0-.51.245-.51.546v2.105H7.58l5.92-10.534h1.786v.328c0 .305.23.55.515.55.29 0 .52-.245.52-.546v-.327h1.78l5.922 10.534zm-4.23-11.794v-.004H5.156l.003-.004 1.085-2.516H8.14c.17 0 .336-.044.486-.13l2.032-1.15 1.626 1.905c.18.212.43.34.702.36 1.438.093 3.276.17 3.842.002.188-.055.678-.2 5.15-3.61h1.455l.702 2.352c.035.12.092.235.167.34l1.477 2.02.07.08.302.343.005.004H19.79z"/></g><g fill="#206FAC"><path d="M15.8 136.337c-.285 0-.515.244-.515.546v2.14c0 .3.23.546.515.546.285 0 .515-.248.515-.55v-2.14c0-.3-.23-.546-.515-.546"/><path d="M29.932 132.473h-1.325c.002-.272-.092-.544-.282-.757l-.942-1.052-1.334-1.826-.877-2.928c-.135-.455-.534-.764-.983-.764h-2.544c-.217 0-.428.072-.602.205-1.976 1.515-4.248 3.185-4.792 3.487-.374.043-1.597.01-2.722-.054l-1.88-2.203c-.318-.373-.835-.47-1.253-.233l-2.515 1.424H5.586c-.403 0-.77.25-.938.637l-1.562 3.606c-.063.15-.093.308-.092.46H1.816c-.285 0-.515.246-.515.548 0 .303.23.547.52.547h9.376L4.88 144.8c-.19.336-.195.757-.01 1.1.182.34.524.55.893.55h20.074c.37 0 .712-.21.897-.55.183-.343.178-.764-.01-1.1l-6.315-11.236h9.52c.286 0 .516-.244.516-.546 0-.302-.23-.546-.515-.546zm-5.91 11.794h-7.706v-2.105c0-.3-.23-.546-.515-.546-.28 0-.51.245-.51.546v2.105H7.58l5.92-10.534h1.786v.328c0 .305.23.55.515.55.29 0 .52-.245.52-.546v-.327h1.78l5.922 10.534zm-4.23-11.794v-.004H5.156l.003-.004 1.085-2.516H8.14c.17 0 .336-.044.486-.13l2.032-1.15 1.626 1.905c.18.212.43.34.702.36 1.438.093 3.276.17 3.842.002.188-.055.678-.2 5.15-3.61h1.455l.702 2.352c.035.12.092.235.167.34l1.477 2.02.07.08.302.343.005.004H19.79z"/></g></g></svg>