<svg width="32" height="232" viewBox="0 0 32 232" xmlns="http://www.w3.org/2000/svg"><title>road-trips</title><g fill="none"><g fill="#3B444F"><path d="M15.8 16.337c-.285 0-.515.244-.515.546v2.14c0 .3.23.546.515.546.285 0 .515-.245.515-.547v-2.14c0-.3-.23-.546-.515-.546"/><path d="M29.932 12.473h-1.325c.002-.272-.092-.544-.282-.757l-.942-1.052-1.334-1.826-.874-2.928c-.135-.455-.534-.764-.983-.764h-2.545c-.217 0-.428.072-.602.205-1.976 1.512-4.248 3.182-4.792 3.484-.374.043-1.597.01-2.722-.054L11.65 6.576c-.317-.372-.834-.468-1.252-.232L7.883 7.768H5.586c-.403 0-.77.25-.938.636L3.086 12.01c-.063.15-.093.307-.092.46H1.816c-.285 0-.515.245-.515.547 0 .302.23.546.516.546h9.377L4.878 24.798c-.19.337-.194.758-.01 1.1.183.34.525.552.894.552h20.074c.37 0 .712-.212.897-.552.183-.342.178-.763-.01-1.1l-6.315-11.235h9.523c.286 0 .516-.244.516-.546 0-.302-.23-.546-.515-.546zm-5.91 11.794h-7.706v-2.105c0-.3-.23-.546-.515-.546-.284 0-.514.245-.514.546v2.105H7.58l5.92-10.534h1.786v.328c0 .302.23.547.515.547.286 0 .516-.245.516-.546v-.327H18.1l5.922 10.534zm-4.23-11.794v-.004h-7.983l-.003.003h-6.65l.003-.004 1.088-2.516h1.895c.17 0 .335-.045.485-.13l2.032-1.15 1.627 1.904c.18.212.43.34.702.36 1.438.093 3.276.17 3.842.002.188-.055.678-.2 5.15-3.61h1.455l.702 2.352c.035.12.092.237.167.34l1.477 2.02.068.083.305.342.005.004h-6.367z"/></g><g fill="#67747C"><path d="M15.8 56.337c-.285 0-.515.244-.515.546v2.14c0 .3.23.546.515.546.285 0 .515-.245.515-.547v-2.14c0-.3-.23-.546-.515-.546"/><path d="M29.932 52.473h-1.325c.002-.272-.092-.544-.282-.757l-.942-1.052-1.334-1.826-.874-2.928c-.135-.455-.534-.764-.983-.764h-2.545c-.217 0-.428.072-.602.205-1.976 1.512-4.248 3.182-4.792 3.484-.374.043-1.597.01-2.722-.054l-1.882-2.204c-.317-.372-.834-.468-1.252-.232l-2.515 1.424H5.586c-.403 0-.77.25-.938.636L3.086 52.01c-.063.15-.093.307-.092.46H1.816c-.285 0-.515.245-.515.547 0 .302.23.546.516.546h9.377L4.878 64.798c-.19.337-.194.758-.01 1.1.183.34.525.552.894.552h20.074c.37 0 .712-.212.897-.552.183-.342.178-.763-.01-1.1l-6.315-11.235h9.523c.286 0 .516-.244.516-.546 0-.302-.23-.546-.515-.546zm-5.91 11.794h-7.706v-2.105c0-.3-.23-.546-.515-.546-.284 0-.514.245-.514.546v2.105H7.58l5.92-10.534h1.786v.328c0 .302.23.547.515.547.286 0 .516-.245.516-.546v-.327H18.1l5.922 10.534zm-4.23-11.794v-.004h-7.983l-.003.003h-6.65l.003-.004 1.088-2.516h1.895c.17 0 .335-.045.485-.13l2.032-1.15 1.627 1.904c.18.212.43.34.702.36 1.438.093 3.276.17 3.842.002.188-.055.678-.2 5.15-3.61h1.455l.702 2.352c.035.12.092.237.167.34l1.477 2.02.068.083.305.342.005.004h-6.367z"/></g><g fill="#fff"><path d="M15.8 96.337c-.285 0-.515.244-.515.546v2.14c0 .3.23.546.515.546.285 0 .515-.245.515-.547v-2.14c0-.3-.23-.546-.515-.546"/><path d="M29.932 92.473h-1.325c.002-.272-.092-.544-.282-.757l-.942-1.052-1.334-1.826-.874-2.928c-.135-.455-.534-.764-.983-.764h-2.545c-.217 0-.428.072-.602.205-1.976 1.512-4.248 3.182-4.792 3.484-.374.043-1.597.01-2.722-.054l-1.882-2.204c-.317-.372-.834-.468-1.252-.232l-2.515 1.424H5.586c-.403 0-.77.25-.938.636L3.086 92.01c-.063.15-.093.307-.092.46H1.816c-.285 0-.515.245-.515.547 0 .302.23.546.516.546h9.377l-6.315 11.235c-.19.337-.194.758-.01 1.1.183.34.525.552.894.552h20.074c.37 0 .712-.212.897-.552.183-.342.178-.763-.01-1.1l-6.315-11.235h9.523c.286 0 .516-.244.516-.546 0-.302-.23-.546-.515-.546zm-5.91 11.794h-7.706v-2.105c0-.3-.23-.546-.515-.546-.284 0-.514.245-.514.546v2.105H7.58l5.92-10.534h1.786v.328c0 .302.23.547.515.547.286 0 .516-.245.516-.546v-.327H18.1l5.922 10.534zm-4.23-11.794v-.004h-7.983l-.003.003h-6.65l.003-.004 1.088-2.516h1.895c.17 0 .335-.045.485-.13l2.032-1.15 1.627 1.904c.18.212.43.34.702.36 1.438.093 3.276.17 3.842.002.188-.055.678-.2 5.15-3.61h1.455l.702 2.352c.035.12.092.237.167.34l1.477 2.02.068.083.305.342.005.004h-6.367z"/></g><g fill="#206FAC"><path d="M15.8 136.337c-.285 0-.515.244-.515.546v2.14c0 .3.23.546.515.546.285 0 .515-.245.515-.547v-2.14c0-.3-.23-.546-.515-.546"/><path d="M29.932 132.473h-1.325c.002-.272-.092-.544-.282-.757l-.942-1.052-1.334-1.826-.874-2.928c-.135-.455-.534-.764-.983-.764h-2.545c-.217 0-.428.072-.602.205-1.976 1.512-4.248 3.182-4.792 3.484-.374.043-1.597.01-2.722-.054l-1.882-2.204c-.317-.372-.834-.468-1.252-.232l-2.515 1.424H5.586c-.403 0-.77.25-.938.636l-1.562 3.606c-.063.15-.093.307-.092.46H1.816c-.285 0-.515.245-.515.547 0 .302.23.546.516.546h9.377l-6.315 11.235c-.19.337-.194.758-.01 1.1.183.34.525.552.894.552h20.074c.37 0 .712-.212.897-.552.183-.342.178-.763-.01-1.1l-6.315-11.235h9.523c.286 0 .516-.244.516-.546 0-.302-.23-.546-.515-.546zm-5.91 11.794h-7.706v-2.105c0-.3-.23-.546-.515-.546-.284 0-.514.245-.514.546v2.105H7.58l5.92-10.534h1.786v.328c0 .302.23.547.515.547.286 0 .516-.245.516-.546v-.327H18.1l5.922 10.534zm-4.23-11.794v-.004h-7.983l-.003.003h-6.65l.003-.004 1.088-2.516h1.895c.17 0 .335-.045.485-.13l2.032-1.15 1.627 1.904c.18.212.43.34.702.36 1.438.093 3.276.17 3.842.002.188-.055.678-.2 5.15-3.61h1.455l.702 2.352c.035.12.092.237.167.34l1.477 2.02.068.083.305.342.005.004h-6.367z"/></g></g></svg>