<svg width="32" height="232" viewBox="0 0 32 232" xmlns="http://www.w3.org/2000/svg"><g fill="none"><path d="M15.033 7.276c-.39-.045-.782-.07-1.172-.07-5.37 0-9.86 4.22-10.46 9.814-.64 6.04 3.54 11.498 9.32 12.17.39.043.78.066 1.17.066 5.37 0 9.87-4.218 10.46-9.81.64-6.042-3.54-11.5-9.31-12.17zm2.468 3.277l-.21.18c-.06.05-.11.114-.14.187l-.53-.698.9.33zm-3.57 3.295l.12.16v.038l-.97-.112c-.13-.016-.27.025-.37.114l-.6.503c-.1.09-.17.22-.19.36l-.05.53-.66.55-.12.15c-.07-.06-.17-.1-.27-.12l-.92-.1c-.13-.01-.27.03-.37.12l-.91.77-.12.15-1.42-1.86.07-.67.45-.37c.22-.19.26-.53.08-.76l-.31-.4.86-1.01 1.447-1.12 1.85-.84c-.036.09-.05.19-.034.29l-1.13.95c-.1.09-.17.22-.19.36-.01.14.03.28.11.39l.5.66c.09.11.21.18.35.2l.637.07.34.456c.13.17.344.244.544.18.2-.06.348-.24.37-.454l.028-.23.11-.09c.11-.09.177-.216.19-.36l.045-.404.01.004.206.27c.08.11.21.18.34.2l.24.02.45.59-.212-.03c-.2-.02-.4.09-.5.28-.1.19-.08.426.05.597zm-1.87-2.784l.27.03.11.003-.04.168-.07.64c-.07-.066-.17-.108-.27-.12l-.63-.073-.05-.064.7-.584zm-6.61 6.19c.1-.866.3-1.69.61-2.46l-.04.382c-.01.14.02.283.11.395l1.46 1.91-.04.44c-.01.14.03.29.11.4.08.12.21.19.34.2l.4.05.43.56c.06.08.14.14.23.17l.73.29c-.03.15.01.31.1.44l.75.98-.03.298-.49.41c-.1.09-.17.22-.19.36l-.1.95c-.01.14.03.286.11.397l1.07 1.4-.094.93-.003.1.046.74c-3.577-1.38-5.94-5.173-5.5-9.31zm8.43 8.898l-1.27-.15c-.13-.014-.27.027-.37.115l-.26.217-.03-.535.12-1.1c.01-.15-.02-.29-.11-.4l-1.09-1.43.05-.5.49-.41c.11-.09.18-.22.19-.36l.02-.2 1.08.12.66.86c.09.11.21.18.35.2l.4.04.31.41c.09.11.21.18.348.19l1.056.12.32.41-.226.18-.41-.044c-.14-.017-.27.024-.38.114-.11.09-.178.22-.19.36l-.106.976-.94.784zm.52.94l1.23-1.028c.11-.09.18-.218.19-.36l.07-.66.11.012c.14.015.27-.026.38-.114l.79-.662c.11-.09.18-.218.19-.36.02-.14-.02-.282-.11-.393l-.77-1.006c-.08-.11-.2-.18-.34-.19l-1.05-.12-.31-.4c-.08-.11-.21-.18-.34-.2l-.41-.05-.66-.86c-.08-.11-.21-.18-.34-.2l-1.58-.18-.42-.56.18-.15c.163-.13.23-.36.173-.57-.06-.2-.23-.36-.437-.38l-.32-.04.066-.64c.015-.14-.024-.28-.11-.39-.084-.11-.21-.18-.34-.2l-.53-.06-.03-.04.34-.28.505.06.53.69c.13.17.34.24.54.18s.34-.24.364-.46l.08-.78.655-.55c.107-.09.176-.22.19-.36l.056-.52.268-.22 1.275.15c.28.03.54-.18.57-.47l.03-.27c.126.1.29.13.446.08.2-.06.343-.24.366-.46l.085-.77c.015-.14-.024-.28-.11-.39l-1.01-1.32c-.086-.11-.21-.18-.345-.19l-.234-.03-.21-.27c-.08-.11-.21-.186-.34-.2l-.73-.09-.02-.004.19-.16c.16-.14.23-.36.17-.57-.027-.1-.08-.19-.154-.253.11-.116.16-.275.14-.43.2-.016.39-.025.59-.025.27 0 .54.018.808.04l.018.03 1.84 2.4c.09.11.21.186.35.2l.64.076.056.003c.256 0 .48-.204.51-.48l.02-.19.6-.502c.975.71 1.796 1.625 2.412 2.676l-.16-.02c-.21-.023-.41.086-.51.275-.1.19-.08.42.05.592l.036.05-.046.037-.31.257c-.22.185-.252.52-.08.753l.47.61-.17.098-1.1.92c-.11.09-.17.22-.19.36l-.15 1.38c-.02.14.02.284.11.395l1.04 1.36c.086.11.21.18.346.2l1.21.14.18.24c-1.134 3.28-4.04 5.61-7.464 5.82zm7.55-7.11l-1.15-.132-.78-1.02.1-.95.77-.645 1.35.157-.28 2.59zm6.98-17.33c-.08-.185-.26-.302-.46-.302h-1.54c-.14 0-.27.062-.37.17l-.76.85h-9.56c-1.11 0-1.91.646-1.91 1.536 0 .886.81 1.533 1.91 1.536h3.1l3.47 3.795c.1.108.23.166.37.166l.19-.038c.2-.082.32-.278.32-.497V8.403c0-.1-.03-.2-.07-.284L22.6 6.44h3.58c.16 0 .31-.08.4-.21l2.28-3.02c.13-.16.15-.39.06-.57zm-8.17 3.79h.64l1.21 2.033-1.85-2.033zm.95-1.074h-5.46c-.5 0-.88-.204-.88-.462 0-.26.39-.464.89-.464H26c.142 0 .278-.06.374-.17l.76-.85h.25l-1.47 1.946H21.68z" fill="#3B444F"/><path d="M15.033 47.276c-.39-.045-.782-.07-1.172-.07-5.37 0-9.86 4.22-10.46 9.814-.64 6.04 3.54 11.498 9.32 12.17.39.043.78.066 1.17.066 5.37 0 9.87-4.218 10.46-9.81.64-6.042-3.54-11.5-9.31-12.17zm2.468 3.277l-.21.18c-.06.05-.11.114-.14.187l-.53-.698.9.33zm-3.57 3.295l.12.16v.038l-.97-.112c-.13-.016-.27.025-.37.114l-.6.503c-.1.09-.17.22-.19.36l-.05.53-.66.55-.12.15c-.07-.06-.17-.1-.27-.12l-.92-.1c-.13-.01-.27.03-.37.12l-.91.77-.12.15-1.42-1.86.07-.67.45-.37c.22-.19.26-.53.08-.76l-.31-.4.86-1.01 1.447-1.12 1.85-.84c-.036.09-.05.19-.034.29l-1.13.95c-.1.09-.17.22-.19.36-.01.14.03.28.11.39l.5.66c.09.11.21.18.35.2l.637.07.34.456c.13.17.344.244.544.18.2-.06.348-.24.37-.454l.028-.23.11-.09c.11-.09.177-.216.19-.36l.045-.404.01.004.206.27c.08.11.21.18.34.2l.24.02.45.59-.212-.03c-.2-.02-.4.09-.5.28-.1.19-.08.426.05.597zm-1.87-2.784l.27.03.11.003-.04.168-.07.64c-.07-.066-.17-.108-.27-.12l-.63-.073-.05-.064.7-.584zm-6.61 6.19c.1-.866.3-1.69.61-2.46l-.04.382c-.01.14.02.283.11.395l1.46 1.91-.04.44c-.01.14.03.29.11.4.08.12.21.19.34.2l.4.05.43.56c.06.08.14.14.23.17l.73.29c-.03.15.01.31.1.44l.75.98-.03.298-.49.41c-.1.09-.17.22-.19.36l-.1.95c-.01.14.03.286.11.397l1.07 1.4-.094.93-.003.1.046.74c-3.577-1.38-5.94-5.173-5.5-9.31zm8.43 8.898l-1.27-.15c-.13-.014-.27.027-.37.115l-.26.217-.03-.535.12-1.1c.01-.15-.02-.29-.11-.4l-1.09-1.43.05-.5.49-.41c.11-.09.18-.22.19-.36l.02-.2 1.08.12.66.86c.09.11.21.18.35.2l.4.04.31.41c.09.11.21.18.348.19l1.056.12.32.41-.226.18-.41-.044c-.14-.017-.27.024-.38.114-.11.09-.178.22-.19.36l-.106.976-.94.784zm.52.94l1.23-1.028c.11-.09.18-.218.19-.36l.07-.66.11.012c.14.015.27-.026.38-.114l.79-.662c.11-.09.18-.218.19-.36.02-.14-.02-.282-.11-.393l-.77-1.006c-.08-.11-.2-.18-.34-.19l-1.05-.12-.31-.4c-.08-.11-.21-.18-.34-.2l-.41-.05-.66-.86c-.08-.11-.21-.18-.34-.2l-1.58-.18-.42-.56.18-.15c.163-.13.23-.36.173-.57-.06-.2-.23-.36-.437-.38l-.32-.04.066-.64c.015-.14-.024-.28-.11-.39-.084-.11-.21-.18-.34-.2l-.53-.06-.03-.04.34-.28.505.06.53.69c.13.17.34.24.54.18s.34-.24.364-.46l.08-.78.655-.55c.107-.09.176-.22.19-.36l.056-.52.268-.22 1.275.15c.28.03.54-.18.57-.47l.03-.27c.126.1.29.13.446.08.2-.06.343-.24.366-.46l.085-.77c.015-.14-.024-.28-.11-.39l-1.01-1.32c-.086-.11-.21-.18-.345-.19l-.234-.03-.21-.27c-.08-.11-.21-.186-.34-.2l-.73-.09-.02-.004.19-.16c.16-.14.23-.36.17-.57-.027-.1-.08-.19-.154-.253.11-.116.16-.275.14-.43.2-.016.39-.025.59-.025.27 0 .54.018.808.04l.018.03 1.84 2.4c.09.11.21.186.35.2l.64.076.056.003c.256 0 .48-.204.51-.48l.02-.19.6-.502c.975.71 1.796 1.625 2.412 2.676l-.16-.02c-.21-.023-.41.086-.51.275-.1.19-.08.42.05.592l.036.05-.046.037-.31.257c-.22.185-.252.52-.08.753l.47.61-.17.098-1.1.92c-.11.09-.17.22-.19.36l-.15 1.38c-.02.14.02.284.11.395l1.04 1.36c.086.11.21.18.346.2l1.21.14.18.24c-1.134 3.28-4.04 5.61-7.464 5.82zm7.55-7.11l-1.15-.132-.78-1.02.1-.95.77-.645 1.35.157-.28 2.59zm6.98-17.33c-.08-.185-.26-.302-.46-.302h-1.54c-.14 0-.27.062-.37.17l-.76.85h-9.56c-1.11 0-1.91.646-1.91 1.536 0 .886.81 1.533 1.91 1.536h3.1l3.47 3.795c.1.108.23.166.37.166l.19-.038c.2-.082.32-.278.32-.497v-1.465c0-.1-.03-.2-.07-.284l-1-1.68h3.58c.16 0 .31-.08.4-.21l2.28-3.02c.13-.16.15-.39.06-.57zm-8.17 3.79h.64l1.22 2.033-1.85-2.033zm.95-1.074h-5.46c-.5 0-.88-.204-.88-.462 0-.26.39-.464.89-.464H26c.142 0 .278-.06.374-.17l.76-.85h.25l-1.47 1.946H21.68z" fill="#67747C"/><path d="M15.033 87.276c-.39-.045-.782-.07-1.172-.07-5.37 0-9.86 4.22-10.46 9.814-.64 6.04 3.54 11.498 9.32 12.17.39.043.78.066 1.17.066 5.37 0 9.87-4.218 10.46-9.81.64-6.042-3.54-11.5-9.31-12.17zm2.468 3.277l-.21.18c-.06.05-.11.114-.14.187l-.53-.698.9.33zm-3.57 3.295l.12.16v.038l-.97-.112c-.13-.016-.27.025-.37.114l-.6.503c-.1.09-.17.22-.19.36l-.05.53-.66.55-.12.15c-.07-.06-.17-.1-.27-.12l-.92-.1c-.13-.01-.27.03-.37.12l-.91.77-.12.15-1.42-1.86.07-.67.45-.37c.22-.19.26-.53.08-.76l-.31-.4.86-1.01 1.447-1.12 1.85-.84c-.036.09-.05.19-.034.29l-1.13.95c-.1.09-.17.22-.19.36-.01.14.03.28.11.39l.5.66c.09.11.21.18.35.2l.637.07.34.456c.13.17.344.244.544.18.2-.06.348-.24.37-.454l.028-.23.11-.09c.11-.09.177-.216.19-.36l.045-.404.01.004.206.27c.08.11.21.18.34.2l.24.02.45.59-.212-.03c-.2-.02-.4.09-.5.28-.1.19-.08.426.05.597zm-1.87-2.784l.27.03.11.003-.04.168-.07.64c-.07-.066-.17-.108-.27-.12l-.63-.073-.05-.064.7-.584zm-6.61 6.19c.1-.866.3-1.69.61-2.46l-.04.382c-.01.14.02.283.11.395l1.46 1.91-.04.44c-.01.14.03.29.11.4.08.12.21.19.34.2l.4.05.43.56c.06.08.14.14.23.17l.73.29c-.03.15.01.31.1.44l.75.98-.03.298-.49.41c-.1.09-.17.22-.19.36l-.1.95c-.01.14.03.286.11.397l1.09 1.43-.092.927-.006.097.046.74c-3.58-1.378-5.94-5.17-5.5-9.308zm8.43 8.898l-1.27-.15c-.13-.014-.27.027-.37.115l-.26.217-.03-.535.12-1.1c.01-.15-.02-.29-.11-.4l-1.09-1.43.05-.5.49-.41c.11-.09.18-.22.19-.36l.02-.2 1.08.12.66.86c.09.11.21.18.35.2l.4.04.31.41c.09.11.21.18.348.19l1.056.12.32.41-.226.18-.41-.044c-.14-.017-.27.024-.38.114-.11.09-.178.22-.19.36l-.106.976-.94.784zm.52.94l1.23-1.028c.11-.09.18-.218.19-.36l.07-.66.11.012c.14.015.27-.026.38-.114l.79-.662c.11-.09.18-.218.19-.36.02-.14-.02-.282-.11-.393l-.77-1.006c-.08-.11-.2-.18-.34-.19l-1.05-.12-.31-.4c-.08-.11-.21-.18-.34-.2l-.4-.05-.66-.86c-.09-.11-.21-.18-.34-.2l-1.583-.18-.43-.56.177-.15c.165-.13.23-.36.175-.57-.06-.2-.23-.36-.434-.38l-.32-.04.07-.63c.01-.14-.026-.28-.11-.39-.086-.11-.21-.18-.345-.19l-.53-.06-.03-.04.34-.28.506.06.526.69c.13.17.34.24.54.18s.35-.24.37-.46l.08-.78.66-.55c.106-.09.17-.22.19-.36l.05-.52.27-.223 1.28.148c.28.03.537-.18.57-.47l.03-.27c.124.1.29.13.444.08.2-.06.347-.24.37-.453l.084-.773c.015-.14-.024-.28-.11-.396l-1.01-1.314c-.09-.11-.21-.18-.347-.19l-.233-.03-.21-.27c-.09-.11-.21-.18-.342-.2l-.73-.08-.02-.007.19-.152c.16-.14.23-.36.17-.57-.023-.1-.08-.19-.15-.25.104-.113.153-.27.137-.43.194-.013.39-.02.587-.02.27 0 .54.01.805.04l.015.03 1.84 2.4c.087.11.21.18.347.2l.64.07h.056c.26 0 .48-.202.51-.477l.02-.19.6-.508c.976.706 1.8 1.62 2.413 2.673l-.16-.02c-.21-.025-.41.084-.51.273-.1.19-.08.42.05.595l.04.05-.047.03-.31.257c-.22.186-.255.523-.08.754l.47.61-.17.1-1.1.92c-.11.09-.173.22-.19.36l-.16 1.39c-.016.14.024.285.11.396l1.044 1.37c.086.11.21.18.346.19l1.21.14.18.24c-1.13 3.28-4.04 5.61-7.46 5.82zm7.55-7.11l-1.15-.132-.78-1.02.1-.95.77-.645 1.35.157-.28 2.59zm6.98-17.33c-.08-.185-.26-.302-.46-.302h-1.54c-.14 0-.27.062-.37.17l-.76.85h-9.56c-1.11 0-1.91.646-1.91 1.536 0 .886.81 1.533 1.91 1.536h3.1l3.47 3.795c.1.108.23.166.37.166l.19-.038c.2-.082.32-.278.32-.497v-1.465c0-.1-.03-.2-.07-.284l-1-1.68h3.58c.16 0 .31-.08.4-.21l2.28-3.02c.13-.16.15-.39.06-.57zm-8.17 3.79h.64l1.22 2.033-1.85-2.033zm.95-1.074h-5.46c-.5 0-.88-.204-.88-.462 0-.26.39-.464.89-.464H26c.142 0 .278-.06.374-.17l.76-.85h.25l-1.47 1.946H21.68z" fill="#fff"/><path d="M15.033 127.276c-.39-.045-.782-.07-1.172-.07-5.37 0-9.86 4.22-10.46 9.814-.64 6.04 3.54 11.498 9.32 12.17.39.043.78.066 1.17.066 5.37 0 9.87-4.218 10.46-9.81.64-6.042-3.54-11.5-9.31-12.17zm2.468 3.277l-.21.18c-.06.05-.11.114-.14.187l-.53-.698.9.33zm-3.57 3.295l.12.16v.038l-.97-.112c-.13-.016-.27.025-.37.114l-.6.503c-.1.09-.17.22-.19.36l-.05.53-.66.55-.12.15c-.07-.06-.17-.1-.27-.12l-.92-.1c-.13-.01-.27.03-.37.12l-.91.77-.12.15-1.42-1.85.07-.67.44-.37c.22-.18.26-.52.08-.75l-.31-.403.86-1.007 1.45-1.12 1.85-.84c-.04.09-.05.19-.03.29l-1.13.94c-.106.09-.175.22-.19.36-.015.14.024.28.11.39l.5.658c.09.11.21.18.35.195l.632.076.345.45c.13.17.35.24.55.18.2-.06.34-.24.365-.458l.022-.23.11-.096c.108-.09.176-.22.19-.36l.044-.41.01.008.207.27c.086.11.21.18.34.2l.24.025.45.59-.21-.028c-.205-.02-.405.09-.505.28-.1.19-.08.42.05.59zm-1.87-2.784l.27.03.11.003-.04.168-.07.64c-.07-.066-.17-.108-.27-.12l-.63-.073-.05-.064.7-.584zm-6.61 6.19c.1-.866.3-1.69.61-2.46l-.04.382c-.01.14.02.283.11.395l1.46 1.91-.04.44c-.01.14.03.29.11.4.08.12.21.19.34.2l.4.05.43.56c.06.08.14.14.23.17l.73.29c-.03.15.01.31.1.44l.75.98-.03.298-.49.41c-.1.09-.17.22-.19.36l-.1.95c-.01.14.03.286.11.397l1.09 1.43-.092.927-.006.097.046.74c-3.58-1.378-5.94-5.17-5.5-9.308zm8.43 8.898l-1.27-.15c-.13-.014-.27.027-.37.115l-.26.217-.03-.535.12-1.1c.01-.15-.02-.29-.11-.4l-1.09-1.43.05-.5.49-.41c.11-.09.18-.22.19-.36l.02-.2 1.08.12.66.86c.09.11.21.18.35.2l.4.04.31.41c.09.11.21.18.348.19l1.056.12.32.41-.226.18-.41-.044c-.14-.017-.27.024-.38.114-.11.09-.178.22-.19.36l-.106.976-.94.784zm.52.94l1.23-1.028c.11-.09.18-.218.19-.36l.07-.66.11.012c.14.015.27-.026.38-.114l.79-.662c.11-.09.18-.218.19-.36.02-.14-.02-.282-.11-.393l-.77-1.006c-.08-.11-.2-.18-.34-.19l-1.05-.12-.31-.4c-.08-.11-.21-.18-.34-.2l-.4-.05-.66-.86c-.09-.11-.21-.18-.34-.2l-1.583-.18-.427-.56.177-.15c.168-.13.23-.36.178-.57-.06-.2-.23-.36-.433-.38l-.32-.04.07-.63c.014-.14-.025-.28-.11-.39-.085-.11-.21-.18-.344-.2l-.53-.06-.03-.03.34-.28.503.06.53.69c.13.17.34.24.54.19.2-.06.35-.24.37-.46l.086-.78.657-.55c.11-.09.178-.22.19-.36l.058-.52.27-.23 1.275.15c.28.03.536-.18.568-.473l.03-.27c.124.096.29.13.444.08.2-.06.345-.24.368-.457l.085-.774c.015-.14-.024-.28-.11-.39l-1.01-1.32c-.083-.11-.21-.18-.34-.195l-.237-.03-.21-.27c-.085-.11-.21-.18-.344-.2l-.73-.082H13l.19-.16c.16-.132.23-.36.17-.57-.028-.1-.08-.19-.155-.25.105-.113.154-.272.138-.43.19-.013.39-.022.58-.022.265 0 .536.016.8.04l.02.03 1.84 2.4c.084.11.21.185.344.2l.64.075.056.005c.26 0 .48-.2.51-.472l.02-.19.6-.504c.974.703 1.8 1.62 2.41 2.67l-.16-.017c-.204-.024-.404.085-.505.274-.1.19-.08.43.05.6l.04.05-.05.04-.31.257c-.22.188-.255.525-.08.756l.47.615-.17.096-1.1.92c-.11.09-.173.22-.19.36L19 138.99c-.015.14.025.285.11.396l1.045 1.37c.085.11.21.18.345.197l1.21.14.18.24c-1.137 3.28-4.045 5.61-7.467 5.82zm7.55-7.11l-1.15-.132-.78-1.02.1-.95.77-.645 1.35.157-.28 2.59zm6.98-17.33c-.08-.185-.26-.302-.46-.302h-1.54c-.14 0-.27.062-.37.17l-.76.85h-9.56c-1.11 0-1.91.646-1.91 1.536 0 .886.81 1.533 1.91 1.536h3.1l3.47 3.795c.1.108.23.166.37.166l.19-.038c.2-.082.32-.278.32-.497v-1.465c0-.1-.03-.2-.07-.284l-1-1.68h3.58c.16 0 .31-.08.4-.21l2.28-3.02c.13-.16.15-.39.06-.57zm-8.17 3.79h.64l1.22 2.033-1.85-2.033zm.95-1.074h-5.46c-.5 0-.88-.204-.88-.462 0-.26.39-.464.89-.464H26c.142 0 .278-.06.374-.17l.76-.85h.25l-1.47 1.946H21.68z" fill="#206FAC"/></g></svg>