<svg width="32" height="232" viewBox="0 0 32 232" xmlns="http://www.w3.org/2000/svg" xmlns:sketch="http://www.bohemiancoding.com/sketch/ns"><title>beaches 2</title><desc>Created with Sketch.</desc><g sketch:type="MSLayerGroup" fill="none"><path d="M24.831 20.363c.573-.543.932-1.308.932-2.156l-.002-.054-.251-4.281c-.01-1-.519-1.884-1.29-2.416l-.368-5.367c.275-.161.461-.458.461-.799 0-.386-.237-.716-.575-.856l-.176-2.571c-.035-.511-.481-.895-.994-.862-.514.035-.902.477-.867.988l.173 2.523c-.256.165-.426.452-.426.777 0 .165.044.319.119.453.095.168.242.303.418.386l.329 4.795h-13.065c-1.643 0-2.981 1.32-2.997 2.949l-.251 4.281-.002.054c0 1.643 1.345 2.978 2.997 2.978h2.819c.599 0 1.085-.161 1.486-.422.577.623 1.525 1.423 2.578 1.423.418 0 .819-.126 1.187-.317.56-.29 1.043-.73 1.392-1.106.402.261.887.422 1.486.422h2.819l.251-.011.296 4.32c-.016 1.717-1.426 3.108-3.158 3.108-1.474 0-2.715-1.009-3.061-2.369.419-.09.734-.461.734-.905 0-.511-.418-.927-.933-.927h-1.659c-.515 0-.933.416-.933.927 0 .499.396.904.892.925.382 2.379 2.46 4.204 4.96 4.204 2.77 0 5.023-2.239 5.023-4.992l-.002-.063-.345-5.038zm-2.065-1.031h-2.819c-.667 0-1.01-.614-1.573-2.083l-.009-.024c-.448-1.169-1.01-2.609-2.461-2.609h-.043c-1.461 0-2.02 1.46-2.47 2.633-.563 1.469-.906 2.083-1.574 2.083h-2.819c-.616 0-1.119-.492-1.131-1.102l.25-4.274.001-.054c0-.62.508-1.125 1.132-1.125h13.264c.363 0 .685.171.892.435.149.191.239.43.239.69l.002.054.25 4.274c-.003.168-.045.327-.115.469-.167.339-.499.582-.892.625l-.124.008zm-6.884 1.927c-.682 0-1.402-.594-1.892-1.12.54-.657.868-1.512 1.144-2.23.179-.468.514-1.34.726-1.439l.04-.002c.216.101.55.973.73 1.441.246.643.535 1.395.981 2.017l.163.212-.308.308c-.459.426-1.034.812-1.584.812z" fill="#373D43" sketch:type="MSShapeGroup"/><path d="M24.831 60.363c.573-.543.932-1.308.932-2.156l-.002-.054-.251-4.281c-.01-1-.519-1.884-1.29-2.417l-.368-5.367c.275-.161.461-.458.461-.799 0-.386-.237-.716-.575-.856l-.176-2.571c-.035-.511-.481-.895-.994-.862-.514.035-.902.477-.867.988l.173 2.523c-.256.165-.426.451-.426.777 0 .165.044.319.119.453.095.168.242.303.418.386l.329 4.795h-13.065c-1.643 0-2.981 1.32-2.997 2.949l-.251 4.281-.002.054c0 1.642 1.345 2.978 2.997 2.978h2.819c.599 0 1.085-.161 1.486-.422.577.622 1.525 1.423 2.578 1.423.418 0 .819-.126 1.187-.317.56-.29 1.043-.73 1.392-1.106.402.261.887.422 1.486.422h2.819l.251-.011.296 4.32c-.016 1.717-1.426 3.108-3.158 3.108-1.474 0-2.715-1.009-3.061-2.369.419-.09.734-.461.734-.905 0-.511-.418-.927-.933-.927h-1.659c-.515 0-.933.415-.933.927 0 .499.396.904.892.925.382 2.379 2.46 4.204 4.96 4.204 2.77 0 5.023-2.24 5.023-4.992l-.002-.063-.345-5.038zm-2.065-1.031h-2.819c-.667 0-1.01-.614-1.573-2.083l-.009-.024c-.448-1.169-1.01-2.609-2.461-2.609h-.043c-1.461 0-2.02 1.46-2.47 2.633-.563 1.469-.906 2.083-1.574 2.083h-2.819c-.616 0-1.119-.492-1.131-1.102l.25-4.274.001-.054c0-.62.508-1.125 1.132-1.125h13.264c.363 0 .685.171.892.435.149.191.239.43.239.69l.002.054.25 4.274c-.003.168-.045.327-.115.469-.167.339-.499.582-.892.625l-.124.008zm-6.884 1.927c-.682 0-1.402-.594-1.892-1.12.54-.657.868-1.512 1.144-2.23.179-.468.514-1.34.726-1.439l.04-.002c.216.101.55.973.73 1.441.246.643.535 1.395.981 2.017l.163.212-.308.308c-.459.426-1.034.812-1.584.812z" fill="#67747C" sketch:type="MSShapeGroup"/><path d="M24.831 100.363c.573-.543.932-1.308.932-2.156l-.002-.054-.251-4.281c-.01-1-.519-1.884-1.29-2.416l-.368-5.367c.275-.161.461-.458.461-.799 0-.385-.237-.716-.575-.856l-.176-2.571c-.035-.511-.481-.895-.994-.862-.514.035-.902.477-.867.988l.173 2.523c-.256.165-.426.451-.426.777 0 .165.044.319.119.453.095.168.242.303.418.386l.329 4.795h-13.065c-1.643 0-2.981 1.32-2.997 2.949l-.251 4.281-.002.054c0 1.642 1.345 2.978 2.997 2.978h2.819c.599 0 1.085-.161 1.486-.422.577.622 1.525 1.423 2.578 1.423.418 0 .819-.126 1.187-.317.56-.29 1.043-.73 1.392-1.106.402.261.887.422 1.486.422h2.819l.251-.011.296 4.32c-.016 1.717-1.426 3.108-3.158 3.108-1.474 0-2.715-1.009-3.061-2.369.419-.09.734-.461.734-.905 0-.511-.418-.927-.933-.927h-1.659c-.515 0-.933.416-.933.927 0 .499.396.904.892.925.382 2.379 2.46 4.204 4.96 4.204 2.77 0 5.023-2.239 5.023-4.992l-.002-.063-.345-5.038zm-2.065-1.031h-2.819c-.667 0-1.01-.614-1.573-2.083l-.009-.024c-.448-1.169-1.01-2.609-2.461-2.609h-.043c-1.461 0-2.02 1.46-2.47 2.633-.563 1.469-.906 2.083-1.574 2.083h-2.819c-.616 0-1.119-.492-1.131-1.102l.25-4.274.001-.054c0-.62.508-1.125 1.132-1.125h13.264c.363 0 .685.171.892.435.149.191.239.43.239.69l.002.054.25 4.274c-.003.168-.045.327-.115.469-.167.339-.499.582-.892.625l-.124.007zm-6.884 1.927c-.682 0-1.402-.594-1.892-1.121.54-.657.868-1.512 1.144-2.23.179-.468.514-1.34.726-1.438l.04-.002c.216.101.55.973.73 1.441.246.643.535 1.395.981 2.017l.163.212-.308.308c-.459.426-1.034.812-1.584.812z" fill="#fff" sketch:type="MSShapeGroup"/><path d="M24.831 140.363c.573-.543.932-1.308.932-2.156l-.002-.054-.251-4.281c-.01-1-.519-1.884-1.29-2.417l-.368-5.367c.275-.161.461-.458.461-.799 0-.385-.237-.716-.575-.856l-.176-2.571c-.035-.511-.481-.895-.994-.862-.514.035-.902.477-.867.988l.173 2.523c-.256.165-.426.451-.426.777 0 .165.044.319.119.453.095.168.242.303.418.386l.329 4.795h-13.065c-1.643 0-2.981 1.32-2.997 2.949l-.251 4.281-.002.054c0 1.643 1.345 2.978 2.997 2.978h2.819c.599 0 1.085-.161 1.486-.422.577.623 1.525 1.423 2.578 1.423.418 0 .819-.126 1.187-.317.56-.29 1.043-.73 1.392-1.106.402.261.887.422 1.486.422h2.819l.251-.011.296 4.32c-.016 1.717-1.426 3.108-3.158 3.108-1.474 0-2.715-1.009-3.061-2.369.419-.09.734-.461.734-.905 0-.511-.418-.927-.933-.927h-1.659c-.515 0-.933.416-.933.927 0 .499.396.904.892.925.382 2.379 2.46 4.204 4.96 4.204 2.77 0 5.023-2.24 5.023-4.992l-.002-.063-.345-5.038zm-2.065-1.031h-2.819c-.667 0-1.01-.614-1.573-2.083l-.009-.024c-.448-1.169-1.01-2.609-2.461-2.609h-.043c-1.461 0-2.02 1.46-2.47 2.633-.563 1.469-.906 2.083-1.574 2.083h-2.819c-.616 0-1.119-.492-1.131-1.102l.25-4.274.001-.054c0-.62.508-1.125 1.132-1.125h13.264c.363 0 .685.171.892.435.149.191.239.43.239.69l.002.054.25 4.274c-.003.168-.045.327-.115.469-.167.339-.499.582-.892.625l-.124.007zm-6.884 1.927c-.682 0-1.402-.594-1.892-1.12.54-.657.868-1.512 1.144-2.23.179-.468.514-1.34.726-1.439l.04-.002c.216.101.55.973.73 1.441.246.643.535 1.395.981 2.017l.163.212-.308.308c-.459.426-1.034.812-1.584.812z" fill="#206FAC" sketch:type="MSShapeGroup"/></g></svg>