<svg width="32" height="232" viewBox="0 0 32 232" xmlns="http://www.w3.org/2000/svg" xmlns:sketch="http://www.bohemiancoding.com/sketch/ns"><title>honeymoons-and-romance 2</title><desc>Created with Sketch.</desc><g sketch:type="MSLayerGroup" fill="none"><g fill="#373D43" sketch:type="MSShapeGroup"><path d="M24.598 8.03l-.004-.075-.004-.024-.011-.064-.007-.026-.019-.062-.008-.022-.08-.155-.016-.023-.037-.048-.02-.023-.043-.044-.02-.018-.063-.052-.004-.004h-.001l-.078-.049-.015-.008-.065-.03-.028-.011-.055-.018-.035-.01-.022-.006-4.207-.912c-.111-1.389-1.064-2.271-2.491-2.271-.828 0-1.563.491-2.019 1.247-.373-.658-1.065-1.044-1.965-1.044-1.252 0-2.271 1.233-2.272 2.748v1.507l-3.539 1.02c-.346.1-.583.413-.583.77v14.042c0 .3.169.574.438.712l5.098 2.61.026.011.035.016.067.024.034.011.077.016.027.005.106.007.012-.001.087-.006.037-.006.063-.013.04-.011.059-.02.038-.015.015-.006 10.995-5.222c.28-.133.459-.414.459-.723v-13.712l-.001-.012zm-13.926 14.917l-.022-11.067 1.335.278v12.823l-1.314-2.034zm-.81-.127l-1.357.687v-12.073l1.368.285-.032.157.021 10.944zm5.71-13.93l3.386-.976v.897l-3.386 1.131v-1.051zm4.195-.35v-.55l.998.216-.998.333zm-6.163 3.75l9.377-3.132v12.091l-9.377 4.454v-13.413zm1.968-5.177c0-1.233.76-2.236 1.693-2.236.466 0 1.497.143 1.668 1.375l-.034.008-3.326.959v-.106zm-3.753-.087c0-1.073.656-1.947 1.462-1.947.44 0 1.463.147 1.463 1.509v.869l-2.925.843v-1.274zm2.944 2.095v1.088l-1.66.555-.141-.043-2.176-.453 3.978-1.147zm-5.738 15.021l1.1-.557 1.081 1.674-2.181-1.117z" id="Fill-1"/><path d="M20.834 15.207c-.11-.193-.356-.261-.551-.152l-3.928 2.195c-.195.109-.263.353-.154.546.074.131.211.204.352.204l.199-.052 3.928-2.195c.194-.109.263-.353.153-.546" id="Fill-2"/><path d="M20.455 16.727l-1.016.381c-.209.078-.315.309-.236.517.061.16.215.259.378.259l.143-.026 1.016-.381c.209-.078.314-.309.235-.517-.079-.207-.312-.311-.522-.233" id="Fill-3"/></g><g fill="#67747C" sketch:type="MSShapeGroup"><path d="M24.598 48.03l-.004-.075-.004-.024-.011-.064-.007-.026-.019-.062-.008-.022-.08-.155-.016-.023-.037-.048-.02-.023-.043-.044-.02-.018-.063-.052-.004-.004h-.001l-.078-.049-.015-.008-.065-.03-.028-.011-.055-.018-.035-.01-.022-.006-4.207-.912c-.111-1.389-1.064-2.271-2.491-2.271-.828 0-1.563.491-2.019 1.247-.373-.658-1.065-1.044-1.965-1.044-1.252 0-2.271 1.233-2.272 2.748v1.507l-3.539 1.02c-.346.1-.583.413-.583.77v14.042c0 .3.169.574.438.712l5.098 2.61.026.011.035.016.067.024.034.011.077.016.027.005.106.007.012-.001.087-.006.037-.006.063-.013.04-.011.059-.02.038-.015.015-.006 10.995-5.222c.28-.133.459-.414.459-.723v-13.712l-.001-.012zm-13.926 14.917l-.022-11.067 1.335.278v12.823l-1.314-2.034zm-.81-.127l-1.357.687v-12.073l1.368.285-.032.157.021 10.944zm5.71-13.93l3.386-.976v.897l-3.386 1.131v-1.051zm4.195-.35v-.55l.998.216-.998.333zm-6.163 3.75l9.377-3.132v12.091l-9.377 4.454v-13.413zm1.968-5.177c0-1.233.76-2.236 1.693-2.236.466 0 1.497.143 1.668 1.375l-.034.008-3.326.959v-.106zm-3.753-.087c0-1.073.656-1.947 1.462-1.947.44 0 1.463.147 1.463 1.509v.869l-2.925.843v-1.274zm2.944 2.095v1.088l-1.66.555-.141-.043-2.176-.453 3.978-1.147zm-5.738 15.021l1.1-.557 1.081 1.674-2.181-1.117z" id="Fill-1"/><path d="M20.283 55.055l-3.928 2.195c-.195.109-.263.353-.154.546.074.131.211.204.352.204l.199-.052 3.928-2.195c.194-.109.263-.353.153-.546-.11-.193-.356-.261-.551-.152z" id="Fill-2"/><path d="M20.455 56.727l-1.016.381c-.209.078-.315.309-.236.517.061.16.215.259.378.259l.143-.026 1.016-.381c.209-.078.314-.309.235-.517-.079-.207-.312-.311-.522-.233" id="Fill-3"/></g><g fill="#fff" sketch:type="MSShapeGroup"><path d="M24.598 88.03l-.004-.075-.004-.024-.011-.064-.007-.026-.019-.062-.008-.022-.08-.155-.016-.023-.037-.048-.02-.023-.043-.044-.02-.018-.063-.052-.004-.004h-.001l-.078-.049-.015-.008-.065-.03-.028-.011-.055-.018-.035-.01-.022-.006-4.207-.912c-.111-1.389-1.064-2.271-2.491-2.271-.828 0-1.563.491-2.019 1.247-.373-.658-1.065-1.044-1.965-1.044-1.252 0-2.271 1.233-2.272 2.748v1.507l-3.539 1.02c-.346.1-.583.413-.583.77v14.042c0 .3.169.574.438.712l5.098 2.61.026.011.035.016.067.024.034.011.077.016.027.005.106.007.012-.001.087-.006.037-.006.063-.013.04-.011.059-.02.038-.015.015-.006 10.995-5.222c.28-.133.459-.414.459-.723v-13.712l-.001-.012zm-13.926 14.917l-.022-11.067 1.335.278v12.823l-1.314-2.034zm-.81-.127l-1.357.687v-12.073l1.368.285-.032.157.021 10.944zm5.71-13.93l3.386-.976v.897l-3.386 1.131v-1.051zm4.195-.35v-.55l.998.216-.998.333zm-6.163 3.75l9.377-3.132v12.091l-9.377 4.454v-13.413zm1.968-5.177c0-1.233.76-2.236 1.693-2.236.466 0 1.497.143 1.668 1.375l-.034.008-3.326.959v-.106zm-3.753-.087c0-1.073.656-1.947 1.462-1.947.44 0 1.463.147 1.463 1.509v.869l-2.925.843v-1.274zm2.944 2.095v1.088l-1.66.555-.141-.043-2.176-.453 3.978-1.147zm-5.738 15.021l1.1-.557 1.081 1.674-2.181-1.117z" id="Fill-1"/><path d="M20.834 95.207c-.11-.193-.356-.261-.551-.152l-3.928 2.195c-.195.109-.263.353-.154.546.074.131.211.204.352.204l.199-.052 3.928-2.195c.194-.109.263-.353.153-.546" id="Fill-2"/><path d="M20.455 96.727l-1.016.381c-.209.078-.315.309-.236.517.061.16.215.259.378.259l.143-.026 1.016-.381c.209-.078.314-.309.235-.517-.079-.207-.312-.311-.522-.233" id="Fill-3"/></g><g fill="#206FAC" sketch:type="MSShapeGroup"><path d="M24.598 128.03l-.004-.075-.004-.024-.011-.064-.007-.026-.019-.062-.008-.022-.08-.155-.016-.023-.037-.048-.02-.023-.043-.044-.02-.018-.063-.052-.004-.004h-.001l-.078-.049-.015-.008-.065-.03-.028-.011-.055-.018-.035-.01-.022-.006-4.207-.912c-.111-1.389-1.064-2.271-2.491-2.271-.828 0-1.563.491-2.019 1.247-.373-.658-1.065-1.044-1.965-1.044-1.252 0-2.271 1.233-2.272 2.748v1.507l-3.539 1.02c-.346.1-.583.413-.583.77v14.042c0 .3.169.574.438.712l5.098 2.61.026.011.035.016.067.024.034.011.077.016.027.005.106.007.012-.001.087-.006.037-.006.063-.013.04-.011.059-.02.038-.015.015-.006 10.995-5.222c.28-.133.459-.414.459-.723v-13.712l-.001-.012zm-13.926 14.917l-.022-11.067 1.335.278v12.823l-1.314-2.034zm-.81-.127l-1.357.687v-12.073l1.368.285-.032.157.021 10.944zm5.71-13.93l3.386-.976v.897l-3.386 1.131v-1.051zm4.195-.35v-.55l.998.216-.998.333zm-6.163 3.75l9.377-3.132v12.091l-9.377 4.454v-13.413zm1.968-5.177c0-1.233.76-2.236 1.693-2.236.466 0 1.497.143 1.668 1.375l-.034.008-3.326.959v-.106zm-3.753-.087c0-1.073.656-1.947 1.462-1.947.44 0 1.463.147 1.463 1.509v.869l-2.925.843v-1.274zm2.944 2.095v1.088l-1.66.555-.141-.043-2.176-.453 3.978-1.147zm-5.738 15.021l1.1-.557 1.081 1.674-2.181-1.117z"/><path d="M20.283 135.055l-3.928 2.195c-.195.109-.263.353-.154.546.074.131.211.204.352.204l.199-.052 3.928-2.195c.194-.109.263-.353.153-.546-.11-.193-.356-.261-.551-.152z"/><path d="M20.455 136.727l-1.016.381c-.209.078-.315.309-.236.517.061.16.215.259.378.259l.143-.026 1.016-.381c.209-.078.314-.309.235-.517-.079-.207-.312-.311-.522-.233"/></g></g></svg>