<svg width="32" height="232" viewBox="0 0 32 232" xmlns="http://www.w3.org/2000/svg"><desc>Created with Sketch.</desc><g fill="none"><path d="M24.598 8.03l-.004-.075-.004-.024-.01-.06-.008-.026-.02-.06-.007-.023-.08-.155-.016-.023-.04-.05-.02-.02-.044-.044-.02-.018-.064-.052-.004-.004-.08-.05-.015-.006-.065-.03-.027-.01-.054-.02-.035-.01-.02-.005-4.206-.912c-.11-1.39-1.064-2.27-2.49-2.27-.83 0-1.564.49-2.02 1.247-.373-.658-1.065-1.044-1.965-1.044-1.25 0-2.27 1.232-2.27 2.747v1.507l-3.54 1.02c-.348.1-.585.413-.585.77V24.37c0 .3.17.573.438.71l5.098 2.61.027.01.034.018.068.024.033.01.078.015.028.005.105.008h.013l.087-.007.037-.004.062-.014.04-.01.06-.02.036-.015.015-.005 11-5.225c.28-.133.46-.414.46-.723V8.03zM10.672 22.947L10.65 11.88l1.335.278V24.98l-1.314-2.033zm-.81-.127l-1.357.687V11.434l1.368.285-.032.153.025 10.944zm5.71-13.93l3.386-.976v.897l-3.386 1.135v-1.05zm4.195-.35v-.55l.998.216-.998.333zm-6.163 3.75l9.377-3.132v12.09l-9.373 4.455V12.29zm1.968-5.177c0-1.233.76-2.236 1.693-2.236.466 0 1.497.143 1.668 1.375l-.034.008-3.33.96v-.107zm-3.753-.087c0-1.073.652-1.947 1.46-1.947.44 0 1.46.143 1.46 1.505v.87l-2.92.845V7.026zm2.94 2.094v1.09l-1.66.555-.14-.043-2.178-.452 3.978-1.147zM9.024 24.144l1.1-.557 1.08 1.674-2.18-1.116zm11.81-8.937c-.11-.193-.357-.26-.55-.152l-3.93 2.195c-.195.11-.263.353-.154.546.078.13.215.204.356.204l.2-.052 3.927-2.195c.195-.11.264-.353.154-.546m-.38 1.52l-1.017.38c-.21.08-.318.31-.24.518.06.16.216.26.38.26l.143-.027 1.016-.38c.21-.08.312-.31.233-.518-.08-.207-.312-.31-.522-.233" fill="#373D43"/><path d="M24.598 48.03l-.004-.075-.004-.024-.01-.06-.008-.026-.02-.06-.007-.023-.08-.155-.016-.023-.04-.05-.02-.02-.044-.044-.02-.018-.064-.052-.004-.004-.08-.05-.015-.006-.065-.03-.027-.01-.054-.02-.035-.01-.02-.005-4.206-.912c-.11-1.39-1.064-2.27-2.49-2.27-.83 0-1.564.49-2.02 1.247-.373-.658-1.065-1.044-1.965-1.044-1.25 0-2.27 1.232-2.27 2.747v1.507l-3.54 1.02c-.348.1-.585.413-.585.77V64.37c0 .3.17.573.438.71l5.098 2.61.027.01.034.018.068.024.033.01.078.015.028.005.105.008h.013l.087-.007.037-.004.062-.014.04-.01.06-.02.036-.015.015-.005 11-5.225c.28-.133.46-.414.46-.723V48.03zM10.672 62.947L10.65 51.88l1.335.278V64.98l-1.314-2.033zm-.81-.127l-1.357.687V51.434l1.368.285-.032.153.025 10.944zm5.71-13.93l3.386-.976v.897l-3.386 1.135v-1.05zm4.195-.35v-.55l.998.216-.998.333zm-6.163 3.75l9.377-3.132v12.09l-9.373 4.455V52.29zm1.968-5.177c0-1.233.76-2.236 1.693-2.236.466 0 1.497.143 1.668 1.375l-.034.008-3.33.96v-.107zm-3.753-.087c0-1.073.652-1.947 1.46-1.947.44 0 1.46.143 1.46 1.505v.87l-2.924.842v-1.275zm2.94 2.095v1.09l-1.66.557-.14-.043-2.177-.452 3.978-1.146zM9.025 64.146l1.1-.557 1.08 1.674-2.18-1.117zm11.258-9.088l-3.928 2.195c-.195.11-.263.354-.154.547.077.13.214.203.355.203l.2-.05 3.927-2.196c.195-.11.264-.353.154-.546-.11-.192-.356-.26-.55-.15zm.172 1.672l-1.016.38c-.21.08-.318.31-.24.517.06.16.216.26.38.26l.143-.027 1.016-.38c.21-.08.312-.31.233-.52-.08-.206-.312-.31-.522-.232" fill="#67747C"/><path d="M24.598 88.03l-.004-.075-.004-.024-.01-.06-.008-.026-.02-.06-.007-.023-.08-.155-.016-.023-.04-.05-.02-.02-.044-.044-.02-.018-.064-.052-.004-.004-.08-.05-.015-.006-.065-.03-.027-.01-.054-.02-.035-.01-.02-.005-4.206-.912c-.11-1.39-1.064-2.27-2.49-2.27-.83 0-1.564.49-2.02 1.247-.373-.658-1.065-1.044-1.965-1.044-1.25 0-2.27 1.232-2.27 2.747v1.507l-3.54 1.02c-.348.1-.585.413-.585.77v14.042c0 .3.17.573.438.71l5.098 2.61.027.01.034.018.068.024.033.01.078.015.028.005.105.008h.013l.087-.007.037-.004.062-.014.04-.01.06-.02.036-.015.015-.005 10.996-5.222c.28-.133.46-.414.46-.723V88.03zm-13.926 14.917L10.65 91.88l1.335.278v12.823l-1.314-2.03zm-.81-.127l-1.357.687V91.434l1.368.285-.032.153.025 10.944zm5.71-13.93l3.386-.976v.897l-3.386 1.135v-1.05zm4.195-.35v-.55l.998.216-.998.333zm-6.163 3.75l9.377-3.132v12.09l-9.373 4.455V92.29zm1.968-5.177c0-1.233.76-2.236 1.693-2.236.466 0 1.497.143 1.668 1.375l-.034.008-3.33.96v-.107zm-3.753-.087c0-1.073.652-1.947 1.46-1.947.44 0 1.46.143 1.46 1.505v.87l-2.924.842v-1.275zm2.94 2.095v1.09l-1.66.557-.14-.043-2.177-.452 3.978-1.146zM9.02 104.146l1.1-.557 1.08 1.674-2.18-1.117zm11.81-8.935c-.11-.194-.357-.26-.552-.153l-3.927 2.195c-.195.11-.263.354-.154.547.073.13.21.202.35.202l.2-.05 3.928-2.196c.193-.11.262-.353.152-.546m-.378 1.52l-1.016.38c-.21.08-.317.31-.238.52.06.16.215.26.378.26l.144-.028 1.016-.38c.21-.08.314-.31.235-.52-.08-.206-.31-.31-.52-.232" fill="#fff"/><path d="M24.598 128.03l-.004-.075-.004-.024-.01-.06-.008-.026-.02-.06-.007-.023-.08-.155-.016-.023-.04-.05-.02-.02-.044-.044-.02-.018-.064-.052-.004-.004-.08-.05-.015-.006-.065-.03-.027-.01-.054-.02-.035-.01-.02-.005-4.206-.912c-.11-1.39-1.064-2.27-2.49-2.27-.83 0-1.564.49-2.02 1.247-.373-.658-1.065-1.044-1.965-1.044-1.25 0-2.27 1.232-2.27 2.747v1.507l-3.54 1.02c-.348.1-.585.413-.585.77v14.042c0 .3.17.573.438.71l5.098 2.61.027.01.034.018.068.024.033.01.078.015.028.005.105.008h.013l.087-.007.037-.004.062-.014.04-.01.06-.02.036-.015.015-.005 10.996-5.222c.28-.133.46-.414.46-.723v-13.73zm-13.926 14.917l-.022-11.067 1.335.278v12.823l-1.314-2.03zm-.81-.127l-1.357.687v-12.073l1.368.285-.032.153.025 10.944zm5.71-13.93l3.386-.976v.897l-3.386 1.135v-1.05zm4.195-.35v-.55l.998.216-.998.333zm-6.163 3.75l9.377-3.132v12.09l-9.373 4.455V132.29zm1.968-5.177c0-1.233.76-2.236 1.693-2.236.466 0 1.497.143 1.668 1.375l-.034.008-3.33.96v-.107zm-3.753-.087c0-1.073.652-1.947 1.46-1.947.44 0 1.46.143 1.46 1.505v.87l-2.924.842v-1.275zm2.94 2.095v1.09l-1.66.557-.14-.043-2.177-.452 3.978-1.146zM9.02 144.146l1.1-.557 1.08 1.674-2.18-1.117zm11.258-9.087l-3.927 2.195c-.195.11-.263.354-.154.547.073.13.21.203.35.203l.2-.05 3.928-2.196c.193-.11.262-.353.152-.546-.11-.19-.356-.26-.55-.15zm.173 1.672l-1.016.38c-.21.08-.316.31-.237.517.06.16.216.26.38.26l.143-.027 1.016-.38c.21-.08.31-.31.232-.52-.08-.206-.312-.31-.522-.232" fill="#206FAC"/></g></svg>