<svg width="32" height="232" viewBox="0 0 32 232" xmlns="http://www.w3.org/2000/svg"><title>honeymoons-and-romance 2</title><desc>Created with Sketch.</desc><g fill="none"><g fill="#373D43"><path d="M24.598 8.03l-.004-.075-.004-.024-.01-.063-.008-.026-.02-.06-.007-.023-.08-.155-.016-.023-.038-.05-.02-.022-.043-.044-.02-.018-.064-.052-.004-.004-.08-.05-.014-.007-.065-.03-.028-.01-.055-.02-.035-.01-.022-.005-4.207-.912c-.11-1.39-1.064-2.27-2.49-2.27-.83 0-1.564.49-2.02 1.246-.373-.658-1.065-1.044-1.965-1.044-1.25 0-2.27 1.233-2.27 2.748v1.507l-3.54 1.02c-.346.1-.583.413-.583.77v14.042c0 .3.17.574.438.712l5.098 2.61.026.01.034.017.067.024.035.01.077.017.027.005.105.007h.012l.087-.007.037-.006.064-.013.04-.01.06-.02.037-.015.016-.006 10.995-5.223c.28-.133.46-.414.46-.723V8.03zM10.672 22.947L10.65 11.88l1.335.278V24.98l-1.314-2.033zm-.81-.127l-1.357.687V11.434l1.368.285-.032.156.022 10.944zm5.71-13.93l3.386-.976v.897l-3.386 1.132v-1.05zm4.195-.35v-.55l.998.216-.998.333zm-6.163 3.75l9.377-3.132v12.09l-9.376 4.455V12.29zm1.968-5.177c0-1.233.76-2.236 1.693-2.236.466 0 1.497.143 1.668 1.375l-.034.008-3.327.96v-.107zm-3.753-.087c0-1.073.655-1.947 1.46-1.947.44 0 1.464.146 1.464 1.508v.87L11.82 8.3V7.026zm2.943 2.095v1.09l-1.66.554-.14-.043-2.177-.452 3.978-1.147zM9.025 24.143l1.1-.557 1.08 1.674-2.18-1.118z"/><path d="M20.834 15.207c-.11-.193-.356-.26-.55-.152l-3.93 2.195c-.194.11-.262.353-.153.546.075.13.212.204.353.204l.2-.052 3.927-2.195c.194-.11.263-.353.153-.546"/><path d="M20.455 16.727l-1.016.38c-.21.08-.316.31-.237.518.06.16.215.26.378.26l.144-.027 1.016-.38c.21-.08.314-.31.235-.518-.08-.207-.312-.31-.522-.233"/></g><g fill="#67747C"><path d="M24.598 48.03l-.004-.075-.004-.024-.01-.063-.008-.026-.02-.06-.007-.023-.08-.155-.016-.023-.038-.05-.02-.022-.043-.044-.02-.018-.064-.052-.004-.004-.08-.05-.014-.007-.065-.03-.028-.01-.055-.02-.035-.01-.022-.005-4.207-.912c-.11-1.39-1.064-2.27-2.49-2.27-.83 0-1.564.49-2.02 1.246-.373-.658-1.065-1.044-1.965-1.044-1.25 0-2.27 1.233-2.27 2.748v1.507l-3.54 1.02c-.346.1-.583.413-.583.77v14.042c0 .3.17.574.438.712l5.098 2.61.026.01.034.017.067.024.035.01.077.017.027.005.105.007h.012l.087-.007.037-.006.064-.013.04-.01.06-.02.037-.015.016-.006 10.995-5.223c.28-.133.46-.414.46-.723V48.03zM10.672 62.947L10.65 51.88l1.335.278V64.98l-1.314-2.033zm-.81-.127l-1.357.687V51.434l1.368.285-.032.156.022 10.944zm5.71-13.93l3.386-.976v.897l-3.386 1.132v-1.05zm4.195-.35v-.55l.998.216-.998.333zm-6.163 3.75l9.377-3.132v12.09l-9.376 4.455V52.29zm1.968-5.177c0-1.233.76-2.236 1.693-2.236.466 0 1.497.143 1.668 1.375l-.034.008-3.327.96v-.107zm-3.753-.087c0-1.073.655-1.947 1.46-1.947.44 0 1.464.146 1.464 1.508v.87l-2.925.842v-1.274zm2.943 2.095v1.09l-1.66.554-.14-.043-2.177-.452 3.978-1.147zM9.025 64.143l1.1-.557 1.08 1.674-2.18-1.118zM20.283 55.055l-3.928 2.195c-.195.11-.263.353-.154.546.075.13.212.204.353.204l.2-.052 3.927-2.195c.194-.11.263-.353.153-.546-.11-.193-.356-.26-.55-.152zM20.455 56.727l-1.016.38c-.21.08-.316.31-.237.518.06.16.215.26.378.26l.144-.027 1.016-.38c.21-.08.314-.31.235-.518-.08-.207-.312-.31-.522-.233"/></g><path d="M24.598 88.03l-.004-.075-.004-.024-.01-.063-.008-.026-.02-.06-.007-.023-.08-.155-.016-.023-.038-.05-.02-.022-.043-.044-.02-.018-.064-.052-.004-.004-.08-.05-.014-.007-.065-.03-.028-.01-.055-.02-.035-.01-.022-.005-4.207-.912c-.11-1.39-1.064-2.27-2.49-2.27-.83 0-1.564.49-2.02 1.246-.373-.658-1.065-1.044-1.965-1.044-1.25 0-2.27 1.233-2.27 2.748v1.507l-3.54 1.02c-.346.1-.583.413-.583.77v14.042c0 .3.17.574.438.712l5.098 2.61.026.01.034.017.067.024.035.01.077.017.027.005.105.007h.012l.087-.007.037-.006.064-.013.04-.01.06-.02.037-.015.016-.006 10.995-5.223c.28-.133.46-.414.46-.723V88.03zm-13.926 14.917L10.65 91.88l1.335.278v12.823l-1.314-2.033zm-.81-.127l-1.357.687V91.434l1.368.285-.032.156.022 10.944zm5.71-13.93l3.386-.976v.897l-3.386 1.132v-1.05zm4.195-.35v-.55l.998.216-.998.333zm-6.163 3.75l9.377-3.132v12.09l-9.376 4.455V92.29zm1.968-5.177c0-1.233.76-2.236 1.693-2.236.466 0 1.497.143 1.668 1.375l-.034.008-3.327.96v-.107zm-3.753-.087c0-1.073.655-1.947 1.46-1.947.44 0 1.464.146 1.464 1.508v.87l-2.925.842v-1.274zm2.943 2.095v1.09l-1.66.554-.14-.043-2.177-.452 3.978-1.147zm-5.738 15.022l1.1-.557 1.08 1.674-2.18-1.118zm11.81-8.935c-.11-.193-.357-.26-.552-.152l-3.928 2.195c-.195.11-.263.353-.154.546.075.13.212.204.353.204l.2-.052 3.927-2.195c.194-.11.263-.353.153-.546m-.378 1.52l-1.016.38c-.21.08-.316.31-.237.518.06.16.215.26.378.26l.144-.027 1.016-.38c.21-.08.314-.31.235-.518-.08-.207-.312-.31-.522-.233" fill="#fff"/><path d="M24.598 128.03l-.004-.075-.004-.024-.01-.063-.008-.026-.02-.06-.007-.023-.08-.155-.016-.023-.038-.05-.02-.022-.043-.044-.02-.018-.064-.052-.004-.004-.08-.05-.014-.007-.065-.03-.028-.01-.055-.02-.035-.01-.022-.005-4.207-.912c-.11-1.39-1.064-2.27-2.49-2.27-.83 0-1.564.49-2.02 1.246-.373-.658-1.065-1.044-1.965-1.044-1.25 0-2.27 1.233-2.27 2.748v1.507l-3.54 1.02c-.346.1-.583.413-.583.77v14.042c0 .3.17.574.438.712l5.098 2.61.026.01.034.017.067.024.035.01.077.017.027.005.105.007h.012l.087-.007.037-.006.064-.013.04-.01.06-.02.037-.015.016-.006 10.995-5.223c.28-.133.46-.414.46-.723V128.03zm-13.926 14.917l-.022-11.067 1.335.278v12.823l-1.314-2.033zm-.81-.127l-1.357.687v-12.073l1.368.285-.032.156.022 10.944zm5.71-13.93l3.386-.976v.897l-3.386 1.132v-1.05zm4.195-.35v-.55l.998.216-.998.333zm-6.163 3.75l9.377-3.132v12.09l-9.376 4.455V132.29zm1.968-5.177c0-1.233.76-2.236 1.693-2.236.466 0 1.497.143 1.668 1.375l-.034.008-3.327.96v-.107zm-3.753-.087c0-1.073.655-1.947 1.46-1.947.44 0 1.464.146 1.464 1.508v.87l-2.925.842v-1.274zm2.943 2.095v1.09l-1.66.554-.14-.043-2.177-.452 3.978-1.147zm-5.738 15.022l1.1-.557 1.08 1.674-2.18-1.118zm11.258-9.087l-3.928 2.195c-.195.11-.263.353-.154.546.075.13.212.204.353.204l.2-.052 3.927-2.195c.194-.11.263-.353.153-.546-.11-.193-.356-.26-.55-.152zm.172 1.672l-1.016.38c-.21.08-.316.31-.237.518.06.16.215.26.378.26l.144-.027 1.016-.38c.21-.08.314-.31.235-.518-.08-.207-.312-.31-.522-.233" fill="#206FAC"/></g></svg>