<svg width="32" height="232" viewBox="0 0 32 232" xmlns="http://www.w3.org/2000/svg" xmlns:sketch="http://www.bohemiancoding.com/sketch/ns"><title>coasts-and-islands 2</title><desc>Created with Sketch.</desc><g sketch:type="MSLayerGroup" fill="none"><g fill="#373D43" sketch:type="MSShapeGroup"><path d="M19.658 20.353c-.028-.117-.076-.228-.142-.328l-2.365-3.623c-.322-.493-.993-.639-1.498-.324-.505.314-.654.969-.332 1.462l2.266 3.471 1.386 5.79c.117.489.563.819 1.056.819l.247-.028c.584-.133.947-.702.81-1.272l-1.427-5.966" id="Fill-1"/><path d="M24.819 26.469l-2.305-13.004.179-.04c.584-.132.947-.701.813-1.271-.135-.57-.718-.924-1.302-.793l-.061.014-.305-1.722c-.051-.288-.332-.482-.628-.432-.295.05-.493.324-.442.612l.316 1.78-2.248.507-1.941-3.5c-.189-.342-.554-.554-.952-.555l-1.364-.003h-.003c-.555 0-1.021.409-1.079.948l-.695 6.452-.006.108-.013 4.513-2.465 6.086c-.22.543.053 1.159.61 1.374.131.051.266.074.398.074.433 0 .841-.254 1.01-.67l2.54-6.271c.05-.123.076-.254.076-.387l.014-4.66.544-5.057 1.81 3.265c.233.419.723.635 1.199.528l2.935-.663 2.295 12.946c.046.258.274.439.534.439l.094-.009c.295-.049.493-.323.442-.612" id="Fill-2"/><path d="M11.158 15.919c.546 0 1.016-.401 1.077-.943l.657-5.809c.065-.582-.364-1.105-.96-1.169l-2.862-.309c-.286-.031-.573.051-.798.226-.225.176-.369.432-.4.711l-.656 5.81c-.032.279.051.559.232.778.18.22.442.36.728.391l2.862.308.121.006zm-.961-2.229l-.705-.076.418-3.704.705.076-.418 3.704z" id="Fill-3"/><path d="M16.152 7.746c1.004 0 1.822-.798 1.822-1.778 0-.981-.817-1.779-1.822-1.779-1.004 0-1.822.798-1.822 1.779 0 .981.817 1.778 1.822 1.778" id="Fill-4"/></g><g fill="#67747C" sketch:type="MSShapeGroup"><path d="M19.658 60.353c-.028-.117-.076-.228-.142-.328l-2.365-3.623c-.322-.493-.993-.639-1.498-.324-.505.314-.654.969-.332 1.462l2.266 3.471 1.386 5.79c.117.489.563.819 1.056.819l.247-.028c.584-.133.947-.702.81-1.272l-1.427-5.966" id="Fill-1"/><path d="M24.819 66.469l-2.305-13.004.179-.04c.584-.132.947-.701.813-1.271-.135-.57-.718-.924-1.302-.793l-.061.014-.305-1.722c-.051-.288-.332-.482-.628-.432-.295.05-.493.324-.442.612l.316 1.78-2.248.507-1.941-3.5c-.189-.342-.554-.554-.952-.555l-1.364-.003h-.003c-.555 0-1.021.409-1.079.948l-.695 6.452-.006.108-.013 4.513-2.465 6.086c-.22.543.053 1.159.61 1.374.131.051.266.074.398.074.433 0 .841-.254 1.01-.67l2.54-6.271c.05-.123.076-.254.076-.387l.014-4.66.544-5.057 1.81 3.265c.233.419.723.635 1.199.528l2.935-.663 2.295 12.946c.046.258.274.439.534.439l.094-.009c.295-.049.493-.323.442-.612" id="Fill-2"/><path d="M11.158 55.919c.546 0 1.016-.401 1.077-.943l.657-5.809c.065-.582-.364-1.105-.96-1.169l-2.862-.309c-.286-.031-.573.051-.798.226-.225.176-.369.432-.4.711l-.656 5.81c-.032.279.051.559.232.778.18.22.442.36.728.391l2.862.308.121.006zm-.961-2.229l-.705-.076.418-3.704.705.076-.418 3.704z" id="Fill-3"/><path d="M16.152 47.746c1.004 0 1.822-.798 1.822-1.778 0-.981-.817-1.779-1.822-1.779-1.004 0-1.822.798-1.822 1.779 0 .981.817 1.778 1.822 1.778" id="Fill-4"/></g><g fill="#fff" sketch:type="MSShapeGroup"><path d="M19.658 100.353c-.028-.117-.076-.228-.142-.328l-2.365-3.623c-.322-.493-.993-.639-1.498-.324-.505.314-.654.969-.332 1.462l2.266 3.471 1.386 5.79c.117.489.563.819 1.056.819l.247-.028c.584-.133.947-.702.81-1.272l-1.427-5.966" id="Fill-1"/><path d="M24.819 106.469l-2.305-13.004.179-.04c.584-.132.947-.701.813-1.271-.135-.57-.718-.924-1.302-.793l-.061.014-.305-1.722c-.051-.288-.332-.482-.628-.432-.295.05-.493.324-.442.612l.316 1.78-2.248.507-1.941-3.5c-.189-.342-.554-.554-.952-.555l-1.364-.003h-.003c-.555 0-1.021.409-1.079.948l-.695 6.452-.006.108-.013 4.513-2.465 6.086c-.22.543.053 1.159.61 1.374.131.051.266.074.398.074.433 0 .841-.254 1.01-.67l2.54-6.271c.05-.123.076-.254.076-.387l.014-4.66.544-5.057 1.81 3.265c.233.419.723.635 1.199.528l2.935-.663 2.295 12.946c.046.258.274.439.534.439l.094-.009c.295-.049.493-.323.442-.612" id="Fill-2"/><path d="M11.158 95.919c.546 0 1.016-.401 1.077-.943l.657-5.809c.065-.582-.364-1.105-.96-1.169l-2.862-.309c-.286-.031-.573.051-.798.226-.225.176-.369.432-.4.711l-.656 5.81c-.032.279.051.559.232.778.18.22.442.36.728.391l2.862.308.121.006zm-.961-2.229l-.705-.076.418-3.704.705.076-.418 3.704z" id="Fill-3"/><path d="M16.152 87.746c1.004 0 1.822-.798 1.822-1.778 0-.981-.817-1.779-1.822-1.779-1.004 0-1.822.798-1.822 1.779 0 .981.817 1.778 1.822 1.778" id="Fill-4"/></g><g fill="#206FAC" sketch:type="MSShapeGroup"><path d="M19.658 140.353c-.028-.117-.076-.228-.142-.328l-2.365-3.623c-.322-.493-.993-.639-1.498-.324-.505.314-.654.969-.332 1.462l2.266 3.471 1.386 5.79c.117.489.563.819 1.056.819l.247-.028c.584-.133.947-.702.81-1.272l-1.427-5.966"/><path d="M24.819 146.469l-2.305-13.004.179-.04c.584-.132.947-.701.813-1.271-.135-.57-.718-.924-1.302-.793l-.061.014-.305-1.722c-.051-.288-.332-.482-.628-.432-.295.05-.493.324-.442.612l.316 1.78-2.248.507-1.941-3.5c-.189-.342-.554-.554-.952-.555l-1.364-.003h-.003c-.555 0-1.021.409-1.079.948l-.695 6.452-.006.108-.013 4.513-2.465 6.086c-.22.543.053 1.159.61 1.374.131.051.266.074.398.074.433 0 .841-.254 1.01-.67l2.54-6.271c.05-.123.076-.254.076-.387l.014-4.66.544-5.057 1.81 3.265c.233.419.723.635 1.199.528l2.935-.663 2.295 12.946c.046.258.274.439.534.439l.094-.009c.295-.049.493-.323.442-.612"/><path d="M11.158 135.919c.546 0 1.016-.401 1.077-.943l.657-5.809c.065-.582-.364-1.105-.96-1.169l-2.862-.309c-.286-.031-.573.051-.798.226-.225.176-.369.432-.4.711l-.656 5.81c-.032.279.051.559.232.778.18.22.442.36.728.391l2.862.308.121.006zm-.961-2.229l-.705-.076.418-3.704.705.076-.418 3.704z"/><path d="M16.152 127.746c1.004 0 1.822-.798 1.822-1.778 0-.981-.817-1.779-1.822-1.779-1.004 0-1.822.798-1.822 1.779 0 .981.817 1.778 1.822 1.778"/></g></g></svg>