<svg width="32" height="232" viewBox="0 0 32 232" xmlns="http://www.w3.org/2000/svg"><g fill="none"><path d="M29.49 27.353h-2.07c.043-.197.06-.41.05-.637-.034-.803-.69-1.727-2.003-2.825-.528-.44-1.048-.81-1.4-1.05.728-1.07.685-2.185.554-2.86 1.41-.13 4.94-.902 4.94-5.294 0-3.21-3.184-4.418-6-5.484-2.2-.834-4.28-1.622-4.35-3.16-.11-2.49 1.905-2.774 2.52-2.8l.17-.004c.86 0 1.398.324 1.41.845.007.306-.19.64-.493.655h-.062c-.26 0-.264-.02-.333-.272-.062-.233-.21-.778-.862-.778h-.052c-.455.022-.766.388-.754.894.02.81.82 1.95 2.084 1.892.763-.033 1.445-.387 1.92-.995.406-.52.632-1.2.606-1.825C25.302 2.377 23.984 1 21.956 1l-.207.006c-2.35.104-5.03 1.518-4.868 5.154.144 3.312 2.963 4.36 5.45 5.284 2.11.784 3.932 1.462 4.012 3.272.02.5-.12.908-.43 1.246-.71.773-2.086.95-2.56.99-1.01-.787-3.502-1.67-5.39-1.67l-.263.007c-1.54.064-3.66.5-4.57.694-.25-.833-.94-2.482-2.415-2.417-.628.027-1.083.243-1.357.643-.235.344-.267.733-.245 1.024-.65.342-1.47 1.096-1.415 2.324.037.814.426 1.784 2.073 1.784l.495-.017.122-.007c.04.046.174.24.272.938.082.58.112 1.304.14 1.943l.01.3c.06 1.31-2.087 3.29-2.844 3.325-.44.02-.71.206-.84.44h-1.14L4.43 25.57l2.795-13.39.03-.145.536-2.57c.578-.213 1.988-.83 3.06-2.09 1.35-1.59 1.62-3.565 1.633-3.648.02-.157-.04-.314-.157-.417-.117-.103-.28-.14-.43-.095-.078.022-1.89.567-3.235 2.082L8.97 3.83c.054-.256-.107-.505-.357-.558-.25-.054-.494.108-.55.362l-1.015 4.87c-.404-1.228-1.02-2.052-1.055-2.1-.097-.126-.25-.193-.404-.182-.155.01-.295.103-.372.242-.04.073-.98 1.826-.825 3.917.153 2.09 1.34 3.683 1.39 3.75l.07.075-.286 1.373c-.068-.28-.16-.568-.278-.853-.726-1.73-2.186-2.742-2.246-2.785-.13-.086-.296-.102-.44-.04-.144.06-.247.192-.274.347-.014.075-.32 1.84.405 3.573.67 1.605 1.97 2.59 2.21 2.76l-1.38 6.603-1.266-.568c-.466-.21-1.014.003-1.22.476-.208.478.003 1.03.47 1.24l3.866 1.737c.115.052.243.08.373.08h3.53l2.83 1.03c.1.038.206.057.312.057h17.027c.51 0 .927-.42.927-.937 0-.517-.417-.937-.93-.937zM5.7 7.703c.31.594.684 1.498.76 2.523.076 1.024-.16 1.975-.383 2.608-.313-.593-.686-1.498-.762-2.52-.075-1.026.16-1.977.383-2.61zm5.672-3.27c-.192.64-.558 1.547-1.224 2.33-.663.78-1.494 1.282-2.093 1.57.193-.64.558-1.546 1.224-2.328.66-.78 1.49-1.282 2.09-1.572zM3.185 13.28c.412.41.93 1.03 1.253 1.81.327.783.404 1.59.406 2.175-.412-.408-.926-1.026-1.254-1.812-.325-.782-.404-1.587-.405-2.172zm7.185 12.003c.43-.456 1.422-1.646 1.37-2.826l-.014-.296c-.076-1.855-.156-3.78-1.313-3.78l-.04.005-.156.008-.445.016c-.817 0-1.118-.233-1.146-.888-.05-1.135 1.103-1.536 1.15-1.552.242-.08.375-.342.3-.587-.032-.11-.088-.44.047-.634.126-.18.417-.23.638-.24h.045c1.09 0 1.54 2.105 1.545 2.126.023.125.096.234.2.302.105.07.233.093.356.064.03-.01 2.96-.69 4.84-.775 1.87-.084 4.46.913 5.145 1.55.09.08.206.126.326.122.09-.003 2.246-.068 3.38-1.296.483-.522.71-1.17.68-1.927-.11-2.435-2.402-3.287-4.62-4.11-2.43-.904-4.728-1.757-4.844-4.445-.13-2.943 1.974-4.088 3.983-4.178 1.668-.077 2.61.988 2.645 1.75.016.394-.128.832-.39 1.177.126-.24.193-.517.187-.81-.01-.487-.225-.93-.608-1.244-.417-.344-.996-.52-1.724-.52l-.21.005c-1.645.075-3.523 1.11-3.405 3.783.093 2.155 2.45 3.048 4.947 3.994 2.657 1.006 5.4 2.047 5.4 4.606 0 4.175-3.775 4.387-4.532 4.387h-.065c-.158-.01-.307.07-.4.2-.09.13-.106.3-.047.45.027.063.637 1.606-.545 2.914-.095.104-.137.243-.118.38.02.14.096.262.216.336 1.386.864 3.36 2.493 3.4 3.41.01.233-.022.428-.095.594h-.87c.04-.47-.06-.938-.446-1.295-.25-.23-.63-.478-1.072-.76-.96-.618-2.277-1.46-2.314-2.31l-.053-1.185v-.032c-.03-.354-.313-.448-.46-.448-.11 0-.213.04-.298.108l-2.617.9c-.198.067-.326.262-.312.472.052.834.014 3.19-.766 4.07-.18.2-.378.3-.618.31l-.39.02c.656-1.413.61-3.844.465-7.17-.01-.26-.228-.458-.484-.448-.256.01-.455.23-.442.49v.004c.222 5.097-.506 6.835-.715 7.223l-.057.05h-1.075c.886-1.854.39-5.653.324-6.125-.036-.25-.258-.424-.504-.4-.246.022-.43.237-.42.486.036.776-.613 2.138-1.65 3.47-.565.726-1.117 1.277-1.583 1.645l-.292-.11c-.1-.037-.204-.056-.313-.056h-.26c.425-.284.832-.65 1.147-.983zm.727 1.513c.592-.545 1.083-1.148 1.306-1.432.222-.287.695-.925 1.108-1.68.035 1.494-.11 3.012-.62 3.58l-.06.09h-.2l-1.53-.558zm7.794-2.23c.055-.593.06-1.124.05-1.458l1.858-.638.025.56c.06 1.338 1.55 2.293 2.746 3.06.39.25.753.484.943.66.15.14.177.365.14.603h-6.606c.45-.597.733-1.53.847-2.788z" fill="#3B444F"/><path d="M29.49 67.353h-2.07c.043-.197.06-.41.05-.637-.034-.803-.69-1.727-2.003-2.825-.528-.44-1.048-.81-1.4-1.05.728-1.07.685-2.185.554-2.86 1.41-.13 4.94-.902 4.94-5.294 0-3.21-3.184-4.418-6-5.484-2.2-.834-4.28-1.622-4.35-3.16-.11-2.49 1.905-2.774 2.52-2.8l.17-.004c.86 0 1.398.324 1.41.845.007.306-.19.64-.493.655h-.062c-.26 0-.264-.02-.333-.272-.062-.233-.21-.778-.862-.778h-.052c-.455.022-.766.388-.754.894.02.81.82 1.95 2.084 1.892.763-.033 1.445-.387 1.92-.995.406-.52.632-1.2.606-1.825-.056-1.273-1.374-2.65-3.403-2.65l-.207.007c-2.346.105-5.026 1.518-4.865 5.154.144 3.313 2.963 4.36 5.45 5.285 2.11.784 3.932 1.46 4.012 3.27.02.5-.12.91-.43 1.248-.71.773-2.087.95-2.56.99-1.01-.787-3.503-1.67-5.39-1.67l-.264.007c-1.54.067-3.66.5-4.57.697-.252-.832-.94-2.48-2.416-2.416-.628.028-1.083.244-1.357.644-.233.343-.265.732-.243 1.023-.65.343-1.47 1.097-1.415 2.325.036.815.425 1.785 2.072 1.785l.494-.017.124-.007c.042.046.176.24.274.94.083.58.113 1.302.14 1.94l.012.3c.06 1.31-2.09 3.29-2.846 3.327-.44.02-.71.206-.84.44H5.987L4.43 65.57l2.795-13.39.03-.144.536-2.57c.578-.213 1.988-.83 3.06-2.09 1.35-1.59 1.62-3.565 1.633-3.648.02-.157-.04-.314-.157-.417-.117-.1-.28-.14-.43-.092-.078.022-1.89.567-3.235 2.082l.308-1.47c.054-.252-.107-.5-.357-.554-.25-.054-.494.108-.55.362l-1.015 4.87c-.404-1.228-1.02-2.052-1.055-2.1-.097-.126-.25-.193-.404-.182-.155.01-.295.103-.372.242-.04.072-.98 1.826-.825 3.917.153 2.09 1.34 3.682 1.39 3.75l.07.074-.286 1.37c-.068-.28-.16-.565-.278-.85-.727-1.737-2.187-2.75-2.247-2.79-.13-.088-.297-.104-.44-.044-.145.06-.248.192-.275.347-.014.075-.32 1.84.405 3.573.67 1.606 1.97 2.59 2.21 2.762l-1.38 6.604-1.267-.568c-.466-.21-1.014.003-1.22.476-.208.474.003 1.027.47 1.237L5.41 68.06c.114.053.242.08.372.08h3.53l2.83 1.03c.1.04.206.058.312.058H29.48c.51 0 .928-.42.928-.937 0-.516-.416-.936-.928-.936zM5.7 47.703c.31.594.684 1.498.76 2.523.076 1.024-.16 1.975-.383 2.608-.313-.593-.686-1.498-.762-2.52-.075-1.026.16-1.977.383-2.61zm5.672-3.27c-.192.64-.558 1.547-1.224 2.33-.663.78-1.494 1.282-2.093 1.57.193-.64.558-1.546 1.224-2.328.66-.78 1.49-1.282 2.09-1.572zM3.185 53.28c.412.41.93 1.03 1.253 1.81.327.783.404 1.59.406 2.175-.412-.408-.926-1.026-1.254-1.812-.325-.782-.404-1.587-.405-2.172zm7.185 12.003c.43-.456 1.422-1.646 1.37-2.826l-.014-.296c-.076-1.855-.156-3.78-1.313-3.78l-.04.005-.156.008-.445.016c-.817 0-1.118-.233-1.146-.888-.05-1.135 1.103-1.536 1.15-1.552.242-.08.375-.342.3-.587-.032-.11-.088-.44.047-.634.126-.18.417-.23.638-.24h.045c1.09 0 1.54 2.105 1.545 2.126.023.125.096.234.2.302.105.07.233.093.356.064.03-.01 2.96-.69 4.84-.775 1.87-.084 4.46.913 5.145 1.55.09.08.206.126.326.122.09-.003 2.246-.068 3.38-1.296.483-.522.71-1.17.68-1.927-.11-2.435-2.402-3.287-4.62-4.11-2.43-.904-4.728-1.757-4.844-4.445-.13-2.943 1.974-4.088 3.983-4.178 1.668-.077 2.61.988 2.645 1.75.016.394-.128.832-.39 1.177.126-.24.193-.517.187-.81-.01-.487-.225-.93-.608-1.244-.417-.344-.996-.52-1.724-.52l-.21.005c-1.645.075-3.523 1.11-3.405 3.783.093 2.155 2.45 3.048 4.947 3.994 2.657 1.006 5.4 2.047 5.4 4.606 0 4.175-3.775 4.387-4.532 4.387h-.065c-.158-.01-.307.07-.4.2-.09.13-.106.3-.047.45.027.063.637 1.606-.545 2.914-.095.104-.137.243-.118.38.02.14.096.262.216.336 1.386.864 3.36 2.493 3.4 3.41.01.233-.022.428-.095.594h-.87c.04-.47-.06-.938-.446-1.295-.25-.23-.63-.478-1.072-.76-.96-.618-2.277-1.46-2.314-2.31l-.053-1.185v-.032c-.03-.354-.313-.448-.46-.448-.11 0-.213.04-.298.108l-2.617.9c-.198.067-.326.262-.312.472.052.834.014 3.19-.766 4.07-.18.2-.378.3-.618.31l-.39.02c.656-1.413.61-3.844.465-7.17-.01-.26-.228-.458-.484-.448-.256.01-.455.23-.442.49v.004c.222 5.097-.506 6.835-.715 7.223l-.057.05h-1.075c.886-1.854.39-5.653.324-6.125-.036-.25-.258-.424-.504-.4-.246.022-.43.237-.42.486.036.776-.613 2.138-1.65 3.47-.565.726-1.117 1.277-1.583 1.645l-.292-.11c-.1-.037-.204-.056-.313-.056h-.26c.425-.284.832-.65 1.147-.983zm.727 1.513c.592-.545 1.083-1.148 1.306-1.432.222-.287.695-.925 1.108-1.68.035 1.494-.11 3.012-.62 3.58l-.06.088h-.2l-1.53-.557zm7.794-2.23c.055-.593.06-1.124.05-1.458l1.858-.638.025.56c.06 1.338 1.55 2.293 2.746 3.06.39.25.753.484.943.66.15.14.177.365.14.603h-6.606c.45-.597.733-1.53.847-2.788z" fill="#67747C"/><path d="M29.49 107.353h-2.07c.043-.197.06-.41.05-.637-.034-.803-.69-1.727-2.003-2.825-.528-.44-1.048-.81-1.4-1.05.728-1.07.685-2.185.554-2.86 1.41-.13 4.94-.902 4.94-5.294 0-3.21-3.184-4.418-6-5.484-2.2-.834-4.28-1.622-4.35-3.16-.11-2.49 1.905-2.774 2.52-2.8l.17-.004c.86 0 1.398.324 1.41.845.007.306-.19.64-.493.655h-.062c-.26 0-.264-.02-.333-.272-.062-.233-.21-.778-.862-.778h-.052c-.455.022-.766.388-.754.894.02.81.82 1.95 2.084 1.892.763-.033 1.445-.387 1.92-.995.406-.52.632-1.2.606-1.825-.056-1.273-1.374-2.65-3.403-2.65l-.207.007c-2.346.105-5.026 1.518-4.865 5.154.144 3.313 2.963 4.36 5.45 5.285 2.11.784 3.932 1.46 4.012 3.27.02.5-.12.91-.43 1.248-.71.773-2.087.95-2.56.99-1.01-.787-3.503-1.67-5.39-1.67l-.264.007c-1.54.067-3.66.5-4.57.697-.252-.832-.94-2.48-2.416-2.416-.628.028-1.083.244-1.357.644-.233.343-.265.732-.243 1.023-.65.343-1.47 1.097-1.415 2.325.036.815.425 1.785 2.072 1.785l.494-.017.124-.007c.042.046.176.24.274.94.083.58.113 1.302.14 1.94l.012.3c.06 1.31-2.09 3.29-2.846 3.327-.44.02-.71.206-.84.44H5.987l-1.555-.697 2.795-13.39.03-.144.536-2.57c.576-.213 1.986-.83 3.058-2.09 1.35-1.59 1.624-3.565 1.635-3.648.02-.157-.04-.314-.157-.417-.117-.1-.28-.14-.43-.093-.078.022-1.89.567-3.235 2.082l.307-1.47c.053-.252-.108-.5-.358-.554-.25-.054-.495.108-.55.362l-1.016 4.87c-.404-1.228-1.02-2.052-1.055-2.1-.094-.126-.246-.193-.4-.182-.156.01-.296.103-.373.242-.04.072-.98 1.826-.825 3.917.156 2.09 1.34 3.682 1.393 3.75l.07.074-.286 1.372c-.07-.28-.16-.567-.28-.85-.73-1.746-2.19-2.757-2.25-2.8-.13-.087-.295-.103-.44-.043-.143.06-.246.19-.273.346-.014.075-.32 1.84.405 3.573.67 1.605 1.97 2.59 2.21 2.76l-1.378 6.6-1.267-.566c-.466-.21-1.014.003-1.22.476-.208.473.003 1.026.47 1.236l3.866 1.735c.117.054.245.08.375.08h3.53l2.83 1.03c.1.04.206.06.312.06h17.027c.51 0 .927-.42.927-.94 0-.516-.414-.936-.926-.936zM5.7 87.703c.31.594.684 1.498.76 2.523.076 1.024-.16 1.975-.383 2.608-.313-.593-.686-1.498-.762-2.52-.075-1.026.16-1.977.383-2.61zm5.672-3.27c-.192.64-.558 1.547-1.224 2.33-.663.78-1.494 1.282-2.093 1.57.193-.64.558-1.546 1.224-2.328.66-.78 1.49-1.282 2.09-1.572zM3.185 93.28c.412.41.93 1.03 1.253 1.81.327.783.404 1.59.406 2.175-.412-.408-.926-1.026-1.254-1.812-.325-.782-.404-1.587-.405-2.172zm7.185 12.003c.43-.456 1.422-1.646 1.37-2.826l-.014-.296c-.076-1.855-.156-3.78-1.313-3.78l-.04.005-.156.008-.445.016c-.817 0-1.118-.233-1.146-.888-.05-1.135 1.103-1.536 1.15-1.552.242-.08.375-.342.3-.587-.032-.11-.088-.44.047-.634.126-.18.417-.23.638-.24h.045c1.09 0 1.54 2.105 1.545 2.126.023.125.096.234.2.302.105.07.233.093.356.064.03-.01 2.96-.69 4.84-.775 1.87-.084 4.46.913 5.145 1.55.09.08.206.126.326.122.09-.003 2.246-.068 3.38-1.296.483-.522.71-1.17.68-1.927-.11-2.435-2.402-3.287-4.62-4.11-2.43-.904-4.728-1.757-4.844-4.445-.13-2.943 1.974-4.088 3.983-4.178 1.668-.077 2.61.988 2.645 1.75.016.394-.128.832-.39 1.177.126-.24.193-.517.187-.81-.01-.487-.225-.93-.608-1.244-.417-.344-.996-.52-1.724-.52l-.21.005c-1.645.075-3.523 1.11-3.405 3.783.093 2.155 2.45 3.048 4.947 3.994 2.657 1.006 5.4 2.047 5.4 4.606 0 4.175-3.775 4.387-4.532 4.387h-.065c-.158-.01-.307.07-.4.2-.09.13-.106.3-.047.45.027.063.637 1.606-.545 2.914-.095.104-.137.243-.118.38.02.14.096.262.216.336 1.386.864 3.36 2.493 3.4 3.41.01.233-.022.428-.095.593h-.87c.04-.467-.06-.936-.446-1.293-.25-.23-.63-.476-1.072-.76-.96-.616-2.277-1.46-2.314-2.31l-.053-1.183v-.032c-.03-.353-.313-.447-.46-.447-.11 0-.213.04-.298.108l-2.617.9c-.198.068-.326.263-.312.473.052.832.014 3.19-.766 4.07-.18.2-.378.3-.618.31l-.39.02c.656-1.415.61-3.846.465-7.17-.01-.26-.228-.46-.484-.45-.256.01-.455.23-.442.49v.004c.222 5.095-.506 6.833-.715 7.22l-.057.052h-1.075c.886-1.855.39-5.654.324-6.126-.036-.247-.258-.422-.504-.4-.246.024-.43.24-.42.488.036.776-.613 2.138-1.65 3.47-.565.726-1.117 1.277-1.583 1.645l-.293-.107c-.1-.036-.206-.055-.315-.055h-.26c.425-.282.832-.65 1.147-.98zm.727 1.513c.592-.545 1.083-1.148 1.306-1.432.222-.287.695-.925 1.108-1.68.035 1.494-.11 3.012-.62 3.58l-.06.088h-.2l-1.53-.557zm7.794-2.23c.055-.593.06-1.124.05-1.458l1.858-.638.025.56c.06 1.338 1.55 2.293 2.746 3.06.39.25.753.484.943.66.15.14.177.365.14.603h-6.606c.45-.597.733-1.53.847-2.788z" fill="#fff"/><path d="M29.49 147.353h-2.07c.043-.197.06-.41.05-.637-.034-.803-.69-1.727-2.003-2.825-.528-.44-1.048-.81-1.4-1.05.728-1.07.685-2.185.554-2.86 1.41-.13 4.94-.902 4.94-5.294 0-3.21-3.184-4.418-6-5.484-2.2-.834-4.28-1.622-4.35-3.16-.11-2.49 1.905-2.774 2.52-2.8l.17-.004c.86 0 1.398.324 1.41.845.007.306-.19.64-.493.655h-.062c-.26 0-.264-.02-.333-.272-.062-.233-.21-.778-.862-.778h-.052c-.455.022-.766.388-.754.894.02.81.82 1.95 2.084 1.892.763-.033 1.445-.387 1.92-.995.406-.52.632-1.2.606-1.825-.056-1.273-1.374-2.65-3.403-2.65l-.207.007c-2.346.105-5.026 1.518-4.865 5.154.144 3.313 2.963 4.36 5.45 5.285 2.11.784 3.932 1.46 4.012 3.27.02.5-.12.91-.43 1.248-.71.773-2.087.95-2.56.99-1.01-.787-3.503-1.67-5.39-1.67l-.264.007c-1.54.067-3.66.5-4.57.697-.252-.832-.94-2.48-2.416-2.416-.628.028-1.083.244-1.357.644-.233.343-.265.732-.243 1.023-.65.343-1.47 1.097-1.415 2.325.036.815.425 1.785 2.072 1.785l.494-.017.124-.007c.042.046.176.24.274.94.083.58.113 1.302.14 1.94l.012.3c.06 1.31-2.09 3.29-2.846 3.327-.44.02-.71.206-.84.44H5.987l-1.555-.697 2.795-13.39.03-.144.536-2.57c.576-.213 1.986-.83 3.058-2.09 1.35-1.59 1.624-3.565 1.635-3.648.02-.157-.04-.314-.157-.417-.117-.1-.28-.14-.43-.093-.078.022-1.89.567-3.235 2.082l.307-1.47c.053-.252-.108-.5-.358-.554-.25-.054-.495.108-.55.362l-1.016 4.87c-.404-1.228-1.02-2.052-1.055-2.1-.094-.126-.246-.193-.4-.182-.156.01-.296.103-.373.242-.04.072-.98 1.826-.825 3.917.156 2.09 1.34 3.682 1.393 3.75l.07.074-.286 1.372c-.07-.28-.16-.567-.28-.85-.726-1.736-2.186-2.747-2.247-2.79-.13-.086-.296-.102-.44-.04-.144.06-.247.192-.274.347-.015.074-.32 1.84.404 3.572.668 1.606 1.97 2.59 2.208 2.76l-1.376 6.604-1.267-.568c-.467-.21-1.015.003-1.22.476-.21.475.002 1.028.47 1.238l3.865 1.736c.116.052.244.08.374.08h3.53l2.83 1.03c.1.038.205.057.31.057h17.027c.51 0 .927-.42.927-.937 0-.517-.415-.937-.927-.937zM5.7 127.703c.31.594.684 1.498.76 2.523.076 1.024-.16 1.975-.383 2.608-.313-.593-.686-1.498-.762-2.52-.075-1.026.16-1.977.383-2.61zm5.672-3.27c-.192.64-.558 1.547-1.224 2.33-.663.78-1.494 1.282-2.093 1.57.193-.64.558-1.546 1.224-2.328.66-.78 1.49-1.282 2.09-1.572zm-8.187 8.848c.412.41.93 1.03 1.253 1.81.327.786.404 1.59.406 2.178-.412-.408-.926-1.026-1.254-1.812-.325-.782-.404-1.587-.405-2.172zm7.185 12.006c.43-.456 1.422-1.646 1.37-2.826l-.014-.297c-.076-1.858-.156-3.78-1.313-3.78l-.04.002-.156.008-.445.015c-.817 0-1.118-.232-1.146-.887-.05-1.133 1.103-1.534 1.15-1.55.242-.08.375-.342.3-.587-.032-.11-.088-.44.047-.634.126-.18.417-.23.638-.24h.045c1.09 0 1.54 2.105 1.545 2.126.023.125.096.234.2.302.105.07.233.093.356.064.03-.01 2.96-.69 4.84-.774 1.87-.084 4.46.913 5.145 1.55.09.08.206.126.326.122.09-.002 2.246-.067 3.38-1.295.483-.523.71-1.172.68-1.928-.11-2.435-2.402-3.287-4.62-4.11-2.43-.904-4.728-1.757-4.844-4.445-.13-2.944 1.974-4.09 3.983-4.18 1.668-.076 2.61.99 2.645 1.75.016.395-.128.833-.39 1.178.126-.24.193-.517.187-.81-.01-.487-.225-.93-.608-1.244-.417-.344-.996-.52-1.724-.52l-.21.005c-1.645.073-3.523 1.11-3.405 3.78.093 2.156 2.45 3.05 4.947 3.995 2.657 1.006 5.4 2.047 5.4 4.606 0 4.177-3.775 4.39-4.532 4.39h-.065c-.158-.01-.307.07-.4.2-.09.13-.106.3-.047.45.027.063.637 1.606-.545 2.914-.095.104-.137.243-.118.38.02.14.096.262.216.336 1.386.862 3.36 2.49 3.4 3.41.01.23-.022.426-.095.592h-.87c.04-.47-.06-.938-.446-1.295-.25-.23-.63-.476-1.072-.76-.96-.616-2.277-1.46-2.314-2.31l-.053-1.183v-.032c-.03-.354-.313-.448-.46-.448-.11 0-.213.04-.298.108l-2.617.9c-.198.067-.326.262-.312.472.052.834.014 3.19-.766 4.07-.18.2-.378.3-.618.31l-.39.02c.656-1.413.61-3.844.465-7.17-.01-.26-.228-.458-.484-.448-.256.01-.455.23-.442.49v.004c.222 5.097-.506 6.835-.715 7.223l-.057.05h-1.075c.886-1.854.39-5.653.324-6.125-.036-.248-.258-.423-.504-.4-.246.023-.43.238-.42.487.036.776-.613 2.138-1.65 3.47-.565.726-1.117 1.277-1.583 1.645l-.293-.108c-.1-.037-.206-.056-.315-.056h-.26c.425-.284.832-.65 1.147-.983zm.727 1.513c.592-.546 1.083-1.15 1.306-1.433.222-.287.695-.925 1.108-1.68.035 1.494-.11 3.012-.62 3.58l-.06.09h-.2l-1.53-.558zm7.794-2.23c.055-.594.06-1.125.05-1.46l1.858-.64.025.56c.06 1.34 1.55 2.295 2.746 3.06.39.25.753.486.943.66.15.14.177.367.14.605h-6.606c.45-.597.733-1.53.847-2.788z" fill="#206FAC"/></g></svg>