<svg width="32" height="231" viewBox="0 0 32 231" xmlns="http://www.w3.org/2000/svg" xmlns:sketch="http://www.bohemiancoding.com/sketch/ns"><title>amsterdam</title><desc>Created with Sketch.</desc><g sketch:type="MSPage" fill="none"><g sketch:type="MSShapeGroup"><path d="M31.892 136.071c-.077-.263-.247-.482-.466-.617l-1.657-2.186v-1.034c0-.301-.23-.545-.513-.545-.283 0-.513.244-.513.545v1.066h-6.602v-1.066c0-.301-.23-.545-.513-.545-.284 0-.513.244-.513.545v1.066h-.905v-4.093l-.045-.222c-.092-1.985-1.414-3.631-3.171-4.096v-1.557c0-.301-.23-.544-.512-.545v-1.241c0-.301-.23-.545-.514-.545-.283 0-.513.244-.513.545v1.241c-.283.001-.512.244-.512.545v1.565c-1.807.493-3.147 2.238-3.147 4.31v4.093h-1.173v-1.066c0-.301-.229-.545-.513-.545-.283 0-.513.244-.513.545v1.066h-6.339l-.023-.032v-1.034c0-.301-.23-.545-.513-.545-.283 0-.514.244-.514.545v1.071l-1.611 2.125c-.255.141-.447.392-.52.694-.084.147-.096.329-.034.49v12.781c0 .603.46 1.091 1.027 1.091h29.847c.567 0 1.027-.488 1.027-1.091v-12.731c.04-.077.064-.164.064-.258 0-.127-.042-.244-.111-.336zm-29.887-.763l.727-.959.514.677.627.828.007.008h-2.293l.42-.553zm13.976-9.459c1.568 0 2.873 1.219 3.118 2.813h-6.236c.246-1.593 1.55-2.813 3.118-2.813zm14.435 10.013h-2.293l.006-.008.413-.545.727-.959.514.677.213.282.42.553zm-6.781 6.318h6.25v3.707h-6.25v-3.707zm-1.027 6.126v.546h-.627v-.988c0-.301-.229-.545-.513-.545-.283 0-.513.244-.513.545v.988h-.831v-.988c0-.301-.23-.545-.513-.545-.284 0-.514.244-.514.545v.988h-.83v-.988c0-.301-.229-.545-.513-.545-.283 0-.513.244-.513.545v.988h-.831v-.988c0-.301-.23-.545-.513-.545-.284 0-.514.244-.514.545v.988h-.83v-.988c0-.301-.23-.545-.514-.545-.283 0-.513.244-.513.545v.988h-.83v-.988c0-.301-.229-.545-.513-.545-.283 0-.513.244-.513.545v.988h-.831v-.988c0-.301-.23-.545-.513-.545-.284 0-.514.244-.514.545v.988h-.421v-1.873h13.217v1.328zm-9.734-12.998l2.175-.918.95-.4.95.4 2.175.918 1.293.545h-8.836l1.292-.545zm9.734 1.644v4.137h-13.217v-4.145h13.217v.009zm1.027.537h6.25v3.6h-6.25v-3.6zm-21.543 0h6.272v3.6h-6.272v-3.6zm0 4.691h6.272v3.707h-6.272v-3.707zm7.299 0h13.217v3.707h-13.217v-3.707zm3.428-12.427h6.361v3.548h-.869v-2.628c0-.301-.23-.545-.514-.545-.283 0-.513.244-.513.545v2.628h-.139l-.692-.292v-2.336c0-.301-.229-.545-.513-.545-.284 0-.514.244-.514.545v2.386l-.574.242h-.256v-2.628c0-.301-.23-.545-.513-.545-.284 0-.514.244-.514.545v2.628h-.751v-3.548zm15.099 4.638l-.695.918h-5.316l-2.175-.918h8.186zm-15.651 0l-2.175.918h-5.316l-.695-.918h8.186zm-10.175 12.588h6.272v1.328h-6.272v-1.328zm21.543 0h6.25v1.328h-6.25v-1.328zm-13.72-4.289h1.027v2.763h-1.027v-2.763zm1.858 0h1.026v2.763h-1.026v-2.763zm1.857 0h1.027v2.763h-1.027v-2.763zm1.857 0h1.026v2.763h-1.026v-2.763zm1.857 0h1.027v2.763h-1.027v-2.763zm1.857 0h1.026v2.763h-1.026v-2.763zm1.857 0h1.026v2.763h-1.026v-2.763zm-11.143-5.066h1.027v2.763h-1.027v-2.763zm1.858 0h1.026v2.763h-1.026v-2.763zm1.857 0h1.027v2.763h-1.027v-2.763zm1.857 0h1.026v2.763h-1.026v-2.763zm1.857 0h1.027v2.763h-1.027v-2.763zm1.857 0h1.026v2.763h-1.026v-2.763zm1.857 0h1.026v2.763h-1.026v-2.763zm-18.265 5.324h1.027v2.347h-1.027v-2.347zm1.858 0h1.027v2.347h-1.027v-2.347zm1.857 0h1.027v2.347h-1.027v-2.347zm-3.715-4.752h1.027v2.348h-1.027v-2.348zm1.858 0h1.027v2.348h-1.027v-2.348zm1.857 0h1.027v2.348h-1.027v-2.348zm17.849 4.752h1.027v2.347h-1.027v-2.347zm1.858 0h1.027v2.347h-1.027v-2.347zm1.857 0h1.027v2.347h-1.027v-2.347zm-3.714-4.752h1.027v2.348h-1.027v-2.348zm1.858 0h1.027v2.348h-1.027v-2.348zm1.857 0h1.027v2.348h-1.027v-2.348zm-4.667-11.022h.084l-.024.255c0 .743.568 1.346 1.267 1.346h4.474c.308 0 .605-.12.837-.336.273-.256.43-.624.43-1.01s-.157-.754-.43-1.009c-.232-.218-.529-.337-.838-.337h-1.075l.004-.082c0-.337-.136-.657-.374-.879-.202-.19-.461-.294-.73-.294h-3.626c-.609 0-1.104.527-1.104 1.173s.495 1.173 1.104 1.173zm0-1.255h3.626l.051.021.026.061-.027.062-.05.02h-.002c-.283 0-.513.244-.513.545 0 .301.23.546.513.546h2.176c.074 0 .127.035.159.064.03.028.082.092.082.191 0 .1-.052.163-.082.191-.031.029-.084.064-.158.064h-4.474c-.133 0-.24-.115-.24-.256 0-.14.107-.255.24-.255.284 0 .514-.245.514-.546h.002c0-.301-.229-.545-.513-.545h-1.329c-.043 0-.078-.037-.078-.082 0-.046.035-.082.078-.082z" fill="#206FAC"/><path d="M31.892 96.071c-.077-.263-.247-.482-.466-.617l-1.657-2.186v-1.034c0-.301-.23-.545-.513-.545-.283 0-.513.244-.513.545v1.066h-6.602v-1.066c0-.301-.23-.545-.513-.545-.284 0-.513.244-.513.545v1.066h-.905v-4.093l-.045-.222c-.092-1.985-1.414-3.631-3.171-4.096v-1.557c0-.301-.23-.544-.512-.545v-1.241c0-.301-.23-.545-.514-.545-.283 0-.513.244-.513.545v1.241c-.283.001-.512.244-.512.545v1.565c-1.807.493-3.147 2.238-3.147 4.31v4.093h-1.173v-1.066c0-.301-.229-.545-.513-.545-.283 0-.513.244-.513.545v1.066h-6.339l-.023-.032v-1.034c0-.301-.23-.545-.513-.545-.283 0-.514.244-.514.545v1.071l-1.611 2.125c-.255.141-.447.392-.52.694-.084.147-.096.329-.034.49v12.781c0 .603.46 1.091 1.027 1.091h29.847c.567 0 1.027-.488 1.027-1.091v-12.731c.04-.077.064-.164.064-.258 0-.127-.042-.244-.111-.336zm-29.887-.763l.727-.959.514.677.627.828.007.008h-2.293l.42-.553zm13.976-9.459c1.568 0 2.873 1.219 3.118 2.813h-6.236c.246-1.593 1.55-2.813 3.118-2.813zm14.435 10.013h-2.293l.006-.008.413-.545.727-.959.514.677.213.282.42.553zm-6.781 6.318h6.25v3.707h-6.25v-3.707zm-1.027 6.126v.546h-.627v-.988c0-.301-.229-.545-.513-.545-.283 0-.513.244-.513.545v.988h-.831v-.988c0-.301-.23-.545-.513-.545-.284 0-.514.244-.514.545v.988h-.83v-.988c0-.301-.229-.545-.513-.545-.283 0-.513.244-.513.545v.988h-.831v-.988c0-.301-.23-.545-.513-.545-.284 0-.514.244-.514.545v.988h-.83v-.988c0-.301-.23-.545-.514-.545-.283 0-.513.244-.513.545v.988h-.83v-.988c0-.301-.229-.545-.513-.545-.283 0-.513.244-.513.545v.988h-.831v-.988c0-.301-.23-.545-.513-.545-.284 0-.514.244-.514.545v.988h-.421v-1.873h13.217v1.328zm-9.734-12.997l2.175-.918.95-.4.95.4 2.175.918 1.293.545h-8.836l1.292-.545zm9.734 1.644v4.137h-13.217v-4.145h13.217v.009zm1.027.537h6.25v3.6h-6.25v-3.6zm-21.543 0h6.272v3.6h-6.272v-3.6zm0 4.691h6.272v3.707h-6.272v-3.707zm7.299 0h13.217v3.707h-13.217v-3.707zm3.428-12.427h6.361v3.547h-.869v-2.628c0-.301-.23-.545-.514-.545-.283 0-.513.244-.513.545v2.628h-.139l-.692-.292v-2.336c0-.301-.229-.545-.513-.545-.284 0-.514.244-.514.545v2.386l-.574.242h-.256v-2.628c0-.301-.23-.545-.513-.545-.284 0-.514.244-.514.545v2.628h-.751v-3.547zm15.099 4.638l-.695.918h-5.316l-2.175-.918h8.186zm-15.651 0l-2.175.918h-5.316l-.695-.918h8.186zm-10.175 12.588h6.272v1.328h-6.272v-1.328zm21.543 0h6.25v1.328h-6.25v-1.328zm-13.72-4.289h1.027v2.763h-1.027v-2.763zm1.858 0h1.026v2.763h-1.026v-2.763zm1.857 0h1.027v2.763h-1.027v-2.763zm1.857 0h1.026v2.763h-1.026v-2.763zm1.857 0h1.027v2.763h-1.027v-2.763zm1.857 0h1.026v2.763h-1.026v-2.763zm1.857 0h1.026v2.763h-1.026v-2.763zm-11.143-5.066h1.027v2.763h-1.027v-2.763zm1.858 0h1.026v2.763h-1.026v-2.763zm1.857 0h1.027v2.763h-1.027v-2.763zm1.857 0h1.026v2.763h-1.026v-2.763zm1.857 0h1.027v2.763h-1.027v-2.763zm1.857 0h1.026v2.763h-1.026v-2.763zm1.857 0h1.026v2.763h-1.026v-2.763zm-18.265 5.324h1.027v2.347h-1.027v-2.347zm1.858 0h1.027v2.347h-1.027v-2.347zm1.857 0h1.027v2.347h-1.027v-2.347zm-3.715-4.752h1.027v2.348h-1.027v-2.348zm1.858 0h1.027v2.348h-1.027v-2.348zm1.857 0h1.027v2.348h-1.027v-2.348zm17.849 4.752h1.027v2.347h-1.027v-2.347zm1.858 0h1.027v2.347h-1.027v-2.347zm1.857 0h1.027v2.347h-1.027v-2.347zm-3.714-4.752h1.027v2.348h-1.027v-2.348zm1.858 0h1.027v2.348h-1.027v-2.348zm1.857 0h1.027v2.348h-1.027v-2.348zm-4.667-11.022h.084l-.024.255c0 .743.568 1.346 1.267 1.346h4.474c.308 0 .605-.12.837-.336.273-.256.43-.624.43-1.01s-.157-.754-.43-1.009c-.232-.218-.529-.337-.838-.337h-1.075l.004-.082c0-.337-.136-.657-.374-.879-.202-.19-.461-.294-.73-.294h-3.626c-.609 0-1.104.527-1.104 1.173s.495 1.173 1.104 1.173zm0-1.255h3.626l.051.021.026.061-.027.062-.05.02h-.002c-.283 0-.513.244-.513.545 0 .301.23.546.513.546h2.176c.074 0 .127.035.159.064.03.028.082.092.082.191 0 .1-.052.163-.082.191-.031.029-.084.064-.158.064h-4.474c-.133 0-.24-.115-.24-.256 0-.14.107-.255.24-.255.284 0 .514-.245.514-.546h.002c0-.301-.229-.545-.513-.545h-1.329c-.043 0-.078-.037-.078-.082 0-.046.035-.082.078-.082z" fill="#fff"/><path d="M31.892 56.071c-.077-.262-.247-.482-.466-.617l-1.657-2.186v-1.034c0-.301-.23-.545-.513-.545-.283 0-.513.244-.513.545v1.066h-6.602v-1.066c0-.301-.23-.545-.513-.545-.284 0-.513.244-.513.545v1.066h-.905v-4.093l-.045-.222c-.092-1.985-1.414-3.631-3.171-4.096v-1.557c0-.301-.23-.544-.512-.545v-1.241c0-.301-.23-.545-.514-.545-.283 0-.513.244-.513.545v1.241c-.283.001-.512.244-.512.545v1.565c-1.807.493-3.147 2.238-3.147 4.31v4.093h-1.173v-1.066c0-.301-.229-.545-.513-.545-.283 0-.513.244-.513.545v1.066h-6.339l-.023-.032v-1.034c0-.301-.23-.545-.513-.545-.283 0-.514.244-.514.545v1.071l-1.611 2.125c-.255.141-.447.392-.52.694-.084.147-.096.329-.034.49v12.781c0 .603.46 1.091 1.027 1.091h29.847c.567 0 1.027-.488 1.027-1.091v-12.731c.04-.077.064-.164.064-.258 0-.128-.042-.244-.111-.336zm-29.887-.763l.727-.959.514.677.627.828.007.008h-2.293l.42-.553zm13.976-9.459c1.568 0 2.873 1.219 3.118 2.813h-6.236c.246-1.593 1.55-2.813 3.118-2.813zm14.435 10.012h-2.293l.006-.008.413-.545.727-.959.514.677.213.282.42.553zm-6.781 6.318h6.25v3.707h-6.25v-3.707zm-1.027 6.126v.546h-.627v-.988c0-.301-.229-.545-.513-.545-.283 0-.513.244-.513.545v.988h-.831v-.988c0-.301-.23-.545-.513-.545-.284 0-.514.244-.514.545v.988h-.83v-.988c0-.301-.229-.545-.513-.545-.283 0-.513.244-.513.545v.988h-.831v-.988c0-.301-.23-.545-.513-.545-.284 0-.514.244-.514.545v.988h-.83v-.988c0-.301-.23-.545-.514-.545-.283 0-.513.244-.513.545v.988h-.83v-.988c0-.301-.229-.545-.513-.545-.283 0-.513.244-.513.545v.988h-.831v-.988c0-.301-.23-.545-.513-.545-.284 0-.514.244-.514.545v.988h-.421v-1.873h13.217v1.328zm-9.734-12.997l2.175-.918.95-.4.95.4 2.175.918 1.293.545h-8.836l1.292-.545zm9.734 1.644v4.137h-13.217v-4.145h13.217v.009zm1.027.537h6.25v3.6h-6.25v-3.6zm-21.543 0h6.272v3.6h-6.272v-3.6zm0 4.691h6.272v3.707h-6.272v-3.707zm7.299 0h13.217v3.707h-13.217v-3.707zm3.428-12.427h6.361v3.547h-.869v-2.628c0-.301-.23-.545-.514-.545-.283 0-.513.244-.513.545v2.628h-.139l-.692-.292v-2.336c0-.301-.229-.545-.513-.545-.284 0-.514.244-.514.545v2.386l-.574.242h-.256v-2.628c0-.301-.23-.545-.513-.545-.284 0-.514.244-.514.545v2.628h-.751v-3.547zm15.099 4.638l-.695.918h-5.316l-2.175-.918h8.186zm-15.651 0l-2.175.918h-5.316l-.695-.918h8.186zm-10.175 12.588h6.272v1.328h-6.272v-1.328zm21.543 0h6.25v1.328h-6.25v-1.328zm-13.72-4.289h1.027v2.763h-1.027v-2.763zm1.858 0h1.026v2.763h-1.026v-2.763zm1.857 0h1.027v2.763h-1.027v-2.763zm1.857 0h1.026v2.763h-1.026v-2.763zm1.857 0h1.027v2.763h-1.027v-2.763zm1.857 0h1.026v2.763h-1.026v-2.763zm1.857 0h1.026v2.763h-1.026v-2.763zm-11.143-5.066h1.027v2.763h-1.027v-2.763zm1.858 0h1.026v2.763h-1.026v-2.763zm1.857 0h1.027v2.763h-1.027v-2.763zm1.857 0h1.026v2.763h-1.026v-2.763zm1.857 0h1.027v2.763h-1.027v-2.763zm1.857 0h1.026v2.763h-1.026v-2.763zm1.857 0h1.026v2.763h-1.026v-2.763zm-18.265 5.324h1.027v2.348h-1.027v-2.348zm1.858 0h1.027v2.348h-1.027v-2.348zm1.857 0h1.027v2.348h-1.027v-2.348zm-3.715-4.752h1.027v2.348h-1.027v-2.348zm1.858 0h1.027v2.348h-1.027v-2.348zm1.857 0h1.027v2.348h-1.027v-2.348zm17.849 4.752h1.027v2.348h-1.027v-2.348zm1.858 0h1.027v2.348h-1.027v-2.348zm1.857 0h1.027v2.348h-1.027v-2.348zm-3.714-4.752h1.027v2.348h-1.027v-2.348zm1.858 0h1.027v2.348h-1.027v-2.348zm1.857 0h1.027v2.348h-1.027v-2.348zm-4.667-11.022h.084l-.024.255c0 .742.568 1.346 1.267 1.346h4.474c.308 0 .605-.12.837-.336.273-.256.43-.624.43-1.01s-.157-.754-.43-1.009c-.232-.218-.529-.337-.838-.337h-1.075l.004-.082c0-.337-.136-.657-.374-.879-.202-.19-.461-.294-.73-.294h-3.626c-.609 0-1.104.527-1.104 1.173s.495 1.173 1.104 1.173zm0-1.255h3.626l.051.021.026.061-.027.062-.05.02h-.002c-.283 0-.513.244-.513.545 0 .301.23.546.513.546h2.176c.074 0 .127.035.159.064.03.028.082.092.082.191 0 .1-.052.163-.082.191-.031.029-.084.064-.158.064h-4.474c-.133 0-.24-.115-.24-.256 0-.14.107-.255.24-.255.284 0 .514-.245.514-.546h.002c0-.301-.229-.545-.513-.545h-1.329c-.043 0-.078-.037-.078-.082 0-.046.035-.083.078-.083z" fill="#67737B"/><path d="M31.892 16.071c-.077-.263-.247-.482-.466-.617l-1.657-2.186v-1.034c0-.301-.23-.545-.513-.545-.283 0-.513.244-.513.545v1.066h-6.602v-1.066c0-.301-.23-.545-.513-.545-.284 0-.513.244-.513.545v1.066h-.905v-4.093l-.045-.222c-.092-1.985-1.414-3.631-3.171-4.096v-1.557c0-.301-.23-.544-.512-.545v-1.241c0-.301-.23-.545-.514-.545-.283 0-.513.244-.513.545v1.241c-.283.001-.512.244-.512.545v1.565c-1.807.493-3.147 2.238-3.147 4.31v4.093h-1.173v-1.066c0-.301-.229-.545-.513-.545-.283 0-.513.244-.513.545v1.066h-6.339l-.023-.032v-1.034c0-.301-.23-.545-.513-.545-.283 0-.514.244-.514.545v1.071l-1.611 2.125c-.255.141-.447.392-.52.694-.084.147-.096.329-.034.49v12.781c0 .603.46 1.091 1.027 1.091h29.847c.567 0 1.027-.488 1.027-1.091v-12.731c.04-.077.064-.164.064-.258 0-.128-.042-.244-.111-.336zm-29.887-.763l.727-.959.514.677.627.828.007.008h-2.293l.42-.553zm13.976-9.459c1.568 0 2.873 1.219 3.118 2.813h-6.236c.246-1.593 1.55-2.813 3.118-2.813zm14.435 10.013h-2.293l.006-.008.413-.545.727-.959.514.677.213.282.42.553zm-6.781 6.318h6.25v3.707h-6.25v-3.707zm-1.027 6.126v.546h-.627v-.988c0-.301-.229-.545-.513-.545-.283 0-.513.244-.513.545v.988h-.831v-.988c0-.301-.23-.545-.513-.545-.284 0-.514.244-.514.545v.988h-.83v-.988c0-.301-.229-.545-.513-.545-.283 0-.513.244-.513.545v.988h-.831v-.988c0-.301-.23-.545-.513-.545-.284 0-.514.244-.514.545v.988h-.83v-.988c0-.301-.23-.545-.514-.545-.283 0-.513.244-.513.545v.988h-.83v-.988c0-.301-.229-.545-.513-.545-.283 0-.513.244-.513.545v.988h-.831v-.988c0-.301-.23-.545-.513-.545-.284 0-.514.244-.514.545v.988h-.421v-1.873h13.217v1.328zm-9.734-12.998l2.175-.918.95-.4.95.4 2.175.918 1.293.545h-8.836l1.292-.545zm9.734 1.644v4.137h-13.217v-4.145h13.217v.009zm1.027.537h6.25v3.6h-6.25v-3.6zm-21.543 0h6.272v3.6h-6.272v-3.6zm0 4.691h6.272v3.707h-6.272v-3.707zm7.299 0h13.217v3.707h-13.217v-3.707zm3.428-12.427h6.361v3.548h-.869v-2.628c0-.301-.23-.545-.514-.545-.283 0-.513.244-.513.545v2.628h-.139l-.692-.293v-2.336c0-.301-.229-.545-.513-.545-.284 0-.514.244-.514.545v2.386l-.574.242h-.256v-2.628c0-.301-.23-.545-.513-.545-.284 0-.514.244-.514.545v2.628h-.751v-3.548zm15.099 4.638l-.695.918h-5.316l-2.175-.918h8.186zm-15.651 0l-2.175.918h-5.316l-.695-.918h8.186zm-10.175 12.588h6.272v1.328h-6.272v-1.328zm21.543 0h6.25v1.328h-6.25v-1.328zm-13.72-4.289h1.027v2.763h-1.027v-2.763zm1.858 0h1.026v2.763h-1.026v-2.763zm1.857 0h1.027v2.763h-1.027v-2.763zm1.857 0h1.026v2.763h-1.026v-2.763zm1.857 0h1.027v2.763h-1.027v-2.763zm1.857 0h1.026v2.763h-1.026v-2.763zm1.857 0h1.026v2.763h-1.026v-2.763zm-11.143-5.066h1.027v2.763h-1.027v-2.763zm1.858 0h1.026v2.763h-1.026v-2.763zm1.857 0h1.027v2.763h-1.027v-2.763zm1.857 0h1.026v2.763h-1.026v-2.763zm1.857 0h1.027v2.763h-1.027v-2.763zm1.857 0h1.026v2.763h-1.026v-2.763zm1.857 0h1.026v2.763h-1.026v-2.763zm-18.265 5.324h1.027v2.348h-1.027v-2.348zm1.858 0h1.027v2.348h-1.027v-2.348zm1.857 0h1.027v2.348h-1.027v-2.348zm-3.715-4.752h1.027v2.348h-1.027v-2.348zm1.858 0h1.027v2.348h-1.027v-2.348zm1.857 0h1.027v2.348h-1.027v-2.348zm17.849 4.752h1.027v2.348h-1.027v-2.348zm1.858 0h1.027v2.348h-1.027v-2.348zm1.857 0h1.027v2.348h-1.027v-2.348zm-3.714-4.752h1.027v2.348h-1.027v-2.348zm1.858 0h1.027v2.348h-1.027v-2.348zm1.857 0h1.027v2.348h-1.027v-2.348zm-4.667-11.022h.084l-.024.255c0 .743.568 1.346 1.267 1.346h4.474c.308 0 .605-.12.837-.336.273-.256.43-.624.43-1.01s-.157-.754-.43-1.009c-.232-.217-.529-.337-.838-.337h-1.075l.004-.082c0-.337-.136-.657-.374-.879-.202-.19-.461-.294-.73-.294h-3.626c-.609 0-1.104.527-1.104 1.173s.495 1.173 1.104 1.173zm0-1.255h3.626l.051.021.026.061-.027.062-.05.02h-.002c-.283 0-.513.244-.513.545 0 .301.23.546.513.546h2.176c.074 0 .127.035.159.064.03.028.082.092.082.191 0 .1-.052.163-.082.191-.031.029-.084.064-.158.064h-4.474c-.133 0-.24-.115-.24-.256 0-.14.107-.255.24-.255.284 0 .514-.245.514-.546h.002c0-.301-.229-.545-.513-.545h-1.329c-.043 0-.078-.037-.078-.082 0-.046.035-.083.078-.083z" fill="#373D43"/></g></g></svg>