<svg width="32" height="232" viewBox="0 0 32 232" xmlns="http://www.w3.org/2000/svg"><desc>Created with Sketch.</desc><g fill="none"><path d="M10.9 137.49c.103 0 .206-.032.297-.1l1.635-1.22c.24-.18.3-.536.137-.798-.17-.262-.5-.33-.73-.15l-1.64 1.22c-.24.18-.3.537-.14.8.1.16.264.25.432.25zm-7.13-4.008c-.24.18-.3.536-.137.798l1.117 1.787c.102.162.267.25.434.25.102 0 .205-.033.296-.1.24-.18.3-.536.137-.798L4.5 133.63c-.164-.262-.49-.33-.73-.15zm-2.483 5.278l2.078.427.098.01c.248 0 .47-.192.516-.47.05-.31-.14-.61-.42-.67l-2.08-.425c-.29-.058-.56.147-.62.458-.056.312.132.612.42.67zm6.852-6.103l-.4 2.272c-.055.31.133.61.42.67l.096.01c.247 0 .47-.2.516-.47l.39-2.27c.055-.32-.133-.62-.42-.68-.284-.06-.56.146-.612.46zM10.8 134c-.242-.176-.567-.104-.727.16l-.74 1.225c-.16.264-.092.62.15.795.09.065.19.095.29.095.17 0 .337-.09.438-.258l.74-1.224c.16-.265.1-.62-.14-.795zm-8.136 2.647l1.12.808c.088.064.19.095.288.095.17 0 .338-.09.44-.258.16-.265.092-.62-.15-.795l-1.12-.808c-.242-.18-.567-.11-.727.16-.16.26-.093.62.15.79zm3.642-3.598c-.284.06-.467.36-.41.67l.27 1.435c.05.272.27.46.514.46l.106-.013c.284-.064.468-.367.41-.677l-.27-1.435c-.058-.31-.335-.51-.62-.447zM4 129.81c.31-.284.75-.288 1.06-.036l.01.025c.088.2.273.33.477.33h.063c.204 0 .39-.13.476-.333l.01-.025c.312-.253.753-.248 1.062.035.222.206.553.175.74-.07.187-.242.158-.604-.064-.81-.653-.6-1.57-.635-2.255-.16-.69-.475-1.61-.44-2.26.16-.22.206-.25.568-.07.81.185.244.52.276.74.07zm5.216-2.005h1.825v.11c0 .36.14.704.39.942.21.202.48.313.76.313h3.84c.64 0 1.15-.565 1.15-1.258s-.51-1.26-1.15-1.26h-.11l.03-.3c0-.795-.59-1.444-1.32-1.444H9.22c-.32 0-.63.13-.874.363-.285.277-.45.67-.45 1.086 0 .415.164.81.45 1.085.242.235.553.363.874.363zm-.18-1.67c.036-.034.096-.075.18-.075h5.405c.15 0 .28.134.28.298 0 .166-.12.3-.27.3-.29 0-.524.257-.524.574H14.1c0 .316.234.573.524.573h1.41c.055 0 .1.05.1.11s-.045.11-.1.11h-3.84l-.07-.03-.034-.08.035-.084.065-.03h.002c.29 0 .526-.253.526-.57 0-.317-.235-.574-.526-.574H9.214c-.084 0-.144-.04-.18-.076-.034-.036-.092-.11-.092-.226s.058-.19.093-.224zm22.36 19.41c-.6 0-.925.17-1.187.304-.22.11-.38.192-.75.192l-.296-.025c.08-.333.024-.7-.183-.995l-1.4-1.982c-.11-.156-.253-.277-.42-.355l-2.73-1.277c0-.59.06-1.36.27-2.245.36-1.485.95-2.456 1.254-2.886 1.07.15 3.66.58 5.194 1.44.077.043.16.064.24.064.153 0 .303-.07.406-.21.157-.21.16-.51.006-.72-.062-.085-1.514-2.05-4.068-2.17.983-.672 2.187-1.4 3.2-1.71.24-.07.397-.32.38-.587-.014-.27-.2-.493-.444-.533-.02-.004-.236-.038-.58-.038-.822 0-2.59.21-4.052 1.787l-.053-.266c-.268-1.21-.99-2.9-2.92-4.083-.217-.132-.486-.083-.65.117-.164.2-.18.5-.037.715.018.028 1.512 2.333 2.312 4.45-.258-.054-.55-.09-.87-.09-1.19 0-2.308.516-3.228 1.495-.177.19-.21.484-.082.713.1.173.27.273.448.273l.17-.03c.022-.01 1.92-.72 3.51-.885-.37.61-.838 1.566-1.15 2.86-.164.68-.247 1.303-.283 1.846l-1.07-.9c-.18-.15-.403-.235-.63-.237l-1.57-.01c.035-.6.012-1.47-.236-2.5-.26-1.077-.65-1.866-.95-2.365 1.61-.663 3.92-.917 3.95-.92.24-.027.44-.235.47-.502.03-.265-.118-.52-.35-.61-.59-.23-1.183-.35-1.76-.35-.782 0-1.447.214-1.982.49.65-1.41 1.49-2.71 1.5-2.73.144-.217.13-.514-.035-.714-.166-.2-.435-.25-.65-.116-1.466.896-2.142 2.213-2.405 3.38-1.175-1.175-2.55-1.333-3.202-1.333-.284 0-.464.03-.484.034-.247.04-.43.26-.447.53-.015.27.143.517.38.59.93.288 2.064 1.01 2.9 1.61-2.324.593-3.16 2.797-3.198 2.905-.093.252-.01.538.193.69.09.065.193.098.295.098.132 0 .263-.054.363-.16.93-.977 2.675-1.904 3.53-2.326.25.4.62 1.1.86 2.09.227.94.234 1.716.2 2.207-.506 0-.92.003-1.06.014-.15.01-.562.042-1.502.74l-1.887-.686c-.103-.04-.214-.06-.33-.06h-3.58l-.264.04-3.054.867-.218.09L4 142.36c-.136.075-.254.18-.347.31l-1.882 2.61c-.11.15-.17.323-.2.5-.24-.115-.55-.23-1.042-.23-.29 0-.524.258-.524.575 0 .318.236.575.526.575.363 0 .52.08.74.193.262.14.59.307 1.19.307s.924-.168 1.186-.302c.217-.11.375-.192.74-.192s.52.08.74.194c.263.136.59.303 1.19.303s.925-.17 1.187-.304c.216-.115.374-.196.74-.196.363 0 .52.08.74.194.26.134.59.302 1.19.302s.923-.168 1.185-.302c.218-.11.376-.19.74-.19s.523.08.742.192c.26.134.586.3 1.186.3s.926-.17 1.188-.302c.22-.11.377-.193.74-.193s.524.08.743.193c.262.136.588.303 1.188.303s.927-.165 1.19-.3c.217-.11.375-.19.74-.19s.523.08.74.194c.263.136.59.303 1.19.303s.925-.168 1.187-.302c.22-.11.378-.19.74-.19s.525.08.744.193c.26.137.59.304 1.19.304s.924-.17 1.187-.303c.22-.11.38-.19.74-.19h.067c.196.134.42.194.645.174l.04.02c.262.133.59.3 1.19.3s.925-.168 1.187-.3c.22-.114.376-.195.74-.195.292 0 .527-.26.527-.576 0-.316-.238-.574-.53-.574zm-5.046.304c-.218.11-.376.192-.74.192s-.524-.08-.742-.195c-.262-.135-.588-.303-1.188-.303s-.926.168-1.188.303c-.218.115-.376.196-.74.196-.365 0-.524-.08-.742-.193-.262-.134-.588-.302-1.19-.302-.598 0-.925.17-1.187.303-.218.115-.376.196-.74.196-.365 0-.523-.08-.742-.192-.26-.137-.58-.305-1.18-.305s-.924.17-1.19.303c-.22.112-.373.193-.74.193-.362 0-.52-.08-.74-.193-.26-.135-.59-.303-1.19-.303s-.925.17-1.19.306c-.22.113-.374.194-.74.194s-.52-.08-.74-.192c-.262-.135-.59-.303-1.19-.303s-.93.168-1.19.303c-.22.114-.38.195-.74.195-.366 0-.524-.08-.74-.192-.265-.132-.59-.3-1.19-.3h-.13l.91-1.263 2.876-1.612 2.81-.798h3.283l2.23.81c.326.117.686.053.962-.174.327-.266.74-.554.92-.642.38-.01 1.756-.006 3.087.005l1.465 1.235.227.146 3.055 1.43.694.98c-.173.057-.31.127-.434.19z" fill="#206FAC"/><path d="M10.9 97.49c.103 0 .206-.032.297-.1l1.635-1.22c.24-.18.3-.536.137-.798-.17-.262-.5-.33-.73-.15l-1.64 1.22c-.24.18-.3.537-.14.8.1.16.264.25.432.25zm-7.13-4.008c-.24.18-.3.536-.137.798l1.117 1.787c.102.162.267.25.434.25.102 0 .205-.033.296-.1.24-.18.3-.536.137-.798L4.5 93.63c-.164-.262-.49-.33-.73-.15zM1.287 98.76l2.078.427.098.01c.248 0 .47-.192.516-.47.05-.31-.14-.61-.42-.67l-2.08-.425c-.29-.058-.56.147-.62.458-.056.312.132.612.42.67zm6.852-6.103l-.4 2.273c-.056.31.132.61.42.67l.095.01c.247 0 .47-.2.516-.47l.39-2.27c.056-.32-.132-.618-.42-.678-.283-.058-.56.147-.61.46zM10.8 94c-.242-.176-.567-.104-.727.16l-.74 1.225c-.16.264-.092.62.15.795.09.065.19.095.29.095.17 0 .337-.09.438-.258l.74-1.224c.16-.265.1-.62-.14-.795zm-8.136 2.647l1.12.808c.088.064.19.095.288.095.17 0 .338-.09.44-.258.16-.265.092-.62-.15-.795l-1.12-.808c-.242-.18-.567-.11-.727.16-.16.26-.093.62.15.79zm3.642-3.598c-.284.06-.467.36-.41.67l.27 1.435c.05.272.27.46.514.46l.106-.013c.284-.064.468-.367.41-.677l-.27-1.435c-.058-.31-.335-.51-.62-.447zM4 89.81c.31-.284.75-.288 1.06-.036l.01.025c.088.2.273.33.477.33h.063c.204 0 .39-.13.476-.333l.01-.025c.312-.253.753-.248 1.062.035.222.206.553.175.74-.07.187-.242.158-.604-.064-.81-.653-.6-1.57-.635-2.255-.16-.69-.475-1.61-.44-2.26.16-.22.206-.25.568-.07.81.185.244.52.276.74.07zm5.216-2.005h1.825v.11c0 .36.14.704.39.942.21.202.48.313.76.313h3.84c.64 0 1.15-.565 1.15-1.258s-.51-1.26-1.15-1.26h-.11l.03-.3c0-.795-.59-1.444-1.32-1.444H9.22c-.32 0-.63.13-.874.363-.285.277-.45.67-.45 1.086 0 .415.164.81.45 1.085.242.235.553.363.874.363zm-.18-1.67c.036-.034.096-.075.18-.075h5.405c.15 0 .28.134.28.298 0 .166-.12.3-.27.3-.29 0-.524.257-.524.574H14.1c0 .316.234.573.524.573h1.41c.055 0 .1.05.1.11s-.045.11-.1.11h-3.84l-.07-.03-.034-.08.035-.084.065-.03h.002c.29 0 .526-.253.526-.57 0-.317-.235-.574-.526-.574H9.214c-.084 0-.144-.04-.18-.076-.034-.036-.092-.11-.092-.226s.058-.19.093-.224zm22.36 19.41c-.6 0-.925.17-1.187.304-.22.11-.38.192-.75.192l-.296-.025c.08-.333.024-.7-.183-.995l-1.4-1.982c-.11-.156-.253-.277-.42-.355l-2.73-1.277c0-.59.06-1.36.27-2.245.36-1.485.95-2.456 1.254-2.886 1.07.15 3.66.58 5.194 1.44.077.043.16.064.24.064.153 0 .303-.07.406-.21.157-.21.16-.51.006-.72-.062-.085-1.514-2.05-4.068-2.17.983-.672 2.187-1.4 3.2-1.71.24-.07.397-.32.38-.587-.014-.27-.2-.493-.444-.533-.02-.004-.236-.038-.58-.038-.822 0-2.59.21-4.052 1.787l-.053-.266c-.268-1.21-.99-2.9-2.92-4.083-.217-.132-.486-.083-.65.117-.164.2-.18.5-.037.715.018.028 1.512 2.333 2.312 4.45-.258-.054-.55-.09-.87-.09-1.19 0-2.308.516-3.228 1.495-.177.19-.21.484-.082.713.1.173.27.273.448.273l.17-.03c.022-.01 1.92-.72 3.51-.885-.37.61-.838 1.566-1.15 2.86-.164.68-.247 1.303-.283 1.846l-1.07-.9c-.18-.15-.403-.235-.63-.237l-1.57-.01c.035-.6.012-1.47-.236-2.5-.26-1.077-.65-1.866-.95-2.365 1.61-.663 3.92-.917 3.95-.92.24-.027.44-.235.47-.502.03-.265-.118-.52-.35-.61-.59-.23-1.183-.35-1.76-.35-.782 0-1.447.214-1.982.49.65-1.41 1.49-2.71 1.5-2.73.144-.217.13-.514-.035-.714-.166-.2-.435-.25-.65-.116-1.466.896-2.142 2.213-2.405 3.38-1.175-1.175-2.55-1.333-3.202-1.333-.284 0-.464.03-.484.034-.247.04-.43.26-.447.53-.015.27.143.517.38.59.93.288 2.064 1.01 2.9 1.61-2.324.593-3.16 2.797-3.198 2.905-.093.252-.01.538.193.69.09.065.193.098.295.098.132 0 .263-.054.363-.16.93-.977 2.675-1.904 3.53-2.326.25.4.62 1.1.86 2.09.227.94.234 1.716.2 2.207-.506 0-.92.003-1.06.014-.15.01-.562.042-1.502.74l-1.887-.686c-.103-.04-.214-.06-.33-.06h-3.58l-.264.04-3.054.867-.218.09L4 102.36c-.136.075-.254.18-.347.31l-1.882 2.61c-.11.15-.17.323-.2.5-.24-.115-.55-.23-1.042-.23-.29 0-.524.258-.524.575 0 .318.236.575.526.575.363 0 .52.08.74.193.262.14.59.307 1.19.307s.924-.168 1.186-.302c.217-.11.375-.192.74-.192s.52.08.74.194c.263.136.59.303 1.19.303s.925-.17 1.187-.304c.216-.115.374-.196.74-.196.363 0 .52.08.74.194.26.134.59.302 1.19.302s.923-.168 1.185-.302c.218-.11.376-.19.74-.19s.523.08.742.192c.26.134.586.3 1.186.3s.926-.17 1.188-.302c.22-.11.377-.193.74-.193s.524.08.743.193c.262.136.588.303 1.188.303s.927-.165 1.19-.3c.217-.11.375-.19.74-.19s.523.08.74.194c.263.136.59.303 1.19.303s.925-.168 1.187-.302c.22-.11.378-.19.74-.19s.525.08.744.193c.26.137.59.304 1.19.304s.924-.17 1.187-.303c.22-.11.38-.19.74-.19h.067c.196.134.42.194.645.174l.04.02c.262.133.59.3 1.19.3s.925-.168 1.187-.3c.22-.114.376-.195.74-.195.292 0 .527-.26.527-.576 0-.316-.238-.574-.53-.574zm-5.046.304c-.218.11-.376.192-.74.192s-.524-.08-.742-.195c-.262-.135-.588-.303-1.188-.303s-.926.168-1.188.303c-.218.115-.376.196-.74.196-.365 0-.524-.08-.742-.193-.262-.134-.588-.302-1.19-.302-.598 0-.925.17-1.187.303-.218.115-.376.196-.74.196-.365 0-.523-.08-.742-.192-.26-.137-.58-.305-1.18-.305s-.924.17-1.19.303c-.22.112-.373.193-.74.193-.362 0-.52-.08-.74-.193-.26-.135-.59-.303-1.19-.303s-.925.17-1.19.306c-.22.113-.374.194-.74.194s-.52-.08-.74-.192c-.262-.135-.59-.303-1.19-.303s-.93.168-1.19.303c-.22.114-.38.195-.74.195-.366 0-.524-.08-.74-.192-.265-.132-.59-.3-1.19-.3h-.13l.91-1.263 2.876-1.612 2.81-.798h3.283l2.23.81c.326.117.686.053.962-.174.327-.266.74-.554.92-.642.38-.01 1.756-.006 3.087.005l1.465 1.235.227.146 3.055 1.43.694.98c-.173.057-.31.127-.434.19z" fill="#fff"/><path d="M10.9 57.49c.103 0 .206-.032.297-.1l1.635-1.22c.24-.18.3-.536.137-.798-.17-.262-.5-.33-.73-.15l-1.64 1.22c-.24.18-.3.537-.14.8.1.16.264.25.432.25zm-7.13-4.008c-.24.18-.3.536-.137.798l1.117 1.787c.102.162.267.25.434.25.102 0 .205-.033.296-.1.24-.18.3-.536.137-.798L4.5 53.63c-.164-.262-.49-.33-.73-.15zM1.287 58.76l2.078.427.098.01c.248 0 .47-.192.516-.47.05-.31-.14-.61-.42-.67l-2.08-.425c-.29-.058-.56.147-.62.458-.056.312.132.612.42.67zm6.852-6.103l-.4 2.273c-.056.31.132.61.42.67l.095.01c.247 0 .47-.2.516-.47l.39-2.27c.056-.32-.132-.618-.42-.678-.283-.058-.56.147-.61.46zM10.8 54c-.242-.176-.567-.104-.727.16l-.74 1.225c-.16.264-.092.62.15.795.09.065.19.095.29.095.17 0 .337-.09.438-.258l.74-1.224c.16-.265.1-.62-.14-.795zm-8.136 2.647l1.12.808c.088.064.19.095.288.095.17 0 .338-.09.44-.258.16-.265.092-.62-.15-.795l-1.12-.808c-.242-.18-.567-.11-.727.16-.16.26-.093.62.15.79zm3.642-3.598c-.284.06-.467.36-.41.67l.27 1.435c.05.272.27.46.514.46l.106-.013c.284-.064.468-.367.41-.677l-.27-1.435c-.058-.31-.335-.51-.62-.447zM4 49.81c.31-.284.75-.288 1.06-.036l.01.025c.088.2.273.33.477.33h.063c.204 0 .39-.13.476-.333l.01-.025c.312-.253.753-.248 1.062.035.222.206.553.175.74-.07.187-.242.158-.604-.064-.81-.653-.6-1.57-.635-2.255-.16-.69-.475-1.61-.44-2.26.16-.22.206-.25.568-.07.81.185.244.52.276.74.07zm5.216-2.005h1.825v.11c0 .36.14.704.39.942.21.202.48.313.76.313h3.84c.64 0 1.15-.565 1.15-1.258s-.51-1.26-1.15-1.26h-.11l.03-.3c0-.795-.59-1.444-1.32-1.444H9.22c-.32 0-.63.13-.874.363-.285.277-.45.67-.45 1.086 0 .415.164.81.45 1.085.242.235.553.363.874.363zm-.18-1.67c.036-.034.096-.075.18-.075h5.405c.15 0 .28.134.28.298 0 .166-.12.3-.27.3-.29 0-.524.257-.524.574H14.1c0 .316.234.573.524.573h1.41c.055 0 .1.05.1.11s-.045.11-.1.11h-3.84l-.07-.03-.034-.08.035-.084.065-.03h.002c.29 0 .526-.253.526-.57 0-.317-.235-.574-.526-.574H9.214c-.084 0-.144-.04-.18-.076-.034-.036-.092-.11-.092-.226s.058-.19.093-.224zm22.36 19.41c-.6 0-.925.17-1.187.304-.22.11-.38.192-.75.192l-.296-.025c.08-.333.024-.7-.183-.995l-1.4-1.982c-.11-.156-.253-.277-.42-.355l-2.73-1.277c0-.59.06-1.36.27-2.245.36-1.485.95-2.456 1.254-2.886 1.07.15 3.66.58 5.194 1.44.077.043.16.064.24.064.153 0 .303-.07.406-.21.157-.21.16-.51.006-.72-.062-.085-1.514-2.05-4.068-2.17.983-.672 2.187-1.4 3.2-1.71.24-.07.397-.32.38-.587-.014-.27-.2-.493-.444-.533-.02-.004-.236-.038-.58-.038-.822 0-2.59.21-4.052 1.787l-.053-.266c-.268-1.21-.99-2.9-2.92-4.083-.217-.132-.486-.083-.65.117-.164.2-.18.5-.037.715.018.028 1.512 2.333 2.312 4.45-.258-.054-.55-.09-.87-.09-1.19 0-2.308.516-3.228 1.495-.177.19-.21.484-.082.713.1.173.27.273.448.273l.17-.03c.022-.01 1.92-.72 3.51-.885-.37.61-.838 1.566-1.15 2.86-.164.68-.247 1.303-.283 1.846l-1.07-.9c-.18-.15-.403-.235-.63-.237l-1.57-.01c.035-.6.012-1.47-.236-2.5-.26-1.077-.65-1.866-.95-2.365 1.61-.663 3.92-.917 3.95-.92.24-.027.44-.235.47-.502.03-.265-.118-.52-.35-.61-.59-.23-1.183-.35-1.76-.35-.782 0-1.447.214-1.982.49.65-1.41 1.49-2.71 1.5-2.73.144-.217.13-.514-.035-.714-.166-.2-.435-.25-.65-.116-1.466.896-2.142 2.213-2.405 3.38-1.175-1.175-2.55-1.333-3.202-1.333-.284 0-.464.03-.484.034-.247.04-.43.26-.447.53-.015.27.143.517.38.59.93.288 2.064 1.01 2.9 1.61-2.324.593-3.16 2.797-3.198 2.905-.093.252-.01.538.193.69.09.065.193.098.295.098.132 0 .263-.054.363-.16.93-.977 2.675-1.904 3.53-2.326.25.4.62 1.1.86 2.09.227.94.234 1.716.2 2.207-.506 0-.92.003-1.06.014-.15.01-.562.042-1.502.74l-1.887-.686c-.103-.04-.214-.06-.33-.06h-3.58l-.264.04-3.054.867-.218.09L4 62.36c-.136.075-.254.18-.347.31L1.77 65.28c-.11.15-.172.323-.202.5-.24-.115-.548-.23-1.042-.23-.29 0-.524.258-.524.575 0 .318.236.575.526.575.364 0 .522.08.74.193.263.14.59.307 1.19.307s.925-.168 1.187-.302c.217-.11.375-.192.74-.192s.52.08.74.194c.263.136.59.303 1.19.303s.925-.17 1.187-.304c.216-.115.374-.196.74-.196.363 0 .52.08.74.194.26.134.59.302 1.19.302s.923-.168 1.185-.302c.218-.11.376-.19.74-.19s.523.08.742.192c.26.134.584.3 1.184.3s.926-.17 1.188-.302c.22-.11.377-.193.74-.193s.524.08.743.193c.262.136.588.303 1.188.303s.927-.165 1.19-.3c.217-.11.375-.19.74-.19s.523.08.74.194c.263.136.59.303 1.19.303s.925-.168 1.187-.302c.22-.11.38-.19.74-.19s.526.08.745.193c.26.137.59.304 1.19.304s.924-.17 1.187-.303c.22-.11.38-.19.74-.19h.067c.194.134.42.194.643.174l.04.02c.262.133.59.3 1.19.3s.925-.168 1.187-.3c.22-.114.377-.195.74-.195.293 0 .528-.26.528-.576 0-.316-.236-.574-.527-.574zm-5.046.304c-.218.11-.376.192-.74.192s-.524-.08-.742-.195c-.262-.135-.588-.303-1.188-.303s-.926.168-1.188.303c-.218.115-.376.196-.74.196-.365 0-.524-.08-.742-.193-.262-.134-.588-.302-1.19-.302-.598 0-.925.17-1.187.303-.218.115-.376.196-.74.196-.365 0-.523-.08-.742-.192-.26-.137-.58-.305-1.18-.305s-.924.17-1.19.303c-.22.112-.373.193-.74.193-.362 0-.52-.08-.74-.193-.26-.135-.59-.303-1.19-.303s-.925.17-1.19.306c-.22.113-.374.194-.74.194s-.52-.08-.74-.192c-.262-.135-.59-.303-1.19-.303s-.93.168-1.19.303c-.22.114-.38.195-.74.195-.366 0-.524-.08-.74-.192-.265-.132-.59-.3-1.19-.3h-.13l.91-1.263 2.876-1.612 2.81-.798h3.283l2.23.81c.326.117.686.053.962-.174.327-.266.74-.554.92-.642.38-.01 1.756-.006 3.087.005l1.465 1.235.227.146 3.055 1.43.694.98c-.173.057-.31.127-.434.19z" fill="#67737B"/><path d="M10.9 17.49c.103 0 .206-.032.297-.1l1.635-1.22c.24-.18.3-.536.137-.798-.17-.262-.5-.33-.73-.15l-1.64 1.22c-.24.18-.3.537-.14.8.1.16.264.25.432.25zm-7.13-4.008c-.24.18-.3.536-.137.798l1.117 1.787c.102.162.267.25.434.25.102 0 .205-.033.296-.1.24-.18.3-.536.137-.798L4.5 13.63c-.164-.262-.49-.33-.73-.15zM1.287 18.76l2.078.427.098.01c.248 0 .47-.192.516-.47.05-.31-.14-.61-.42-.67l-2.08-.425c-.29-.058-.56.147-.62.458-.056.312.132.612.42.67zm6.852-6.103l-.4 2.273c-.056.31.132.61.42.67l.095.01c.247 0 .47-.2.516-.47l.39-2.27c.056-.32-.132-.618-.42-.678-.283-.058-.56.147-.61.46zM10.8 14c-.242-.176-.567-.104-.727.16l-.74 1.225c-.16.264-.092.62.15.795.09.065.19.095.29.095.17 0 .337-.09.438-.258l.74-1.224c.16-.265.1-.62-.14-.795zm-8.136 2.647l1.12.808c.088.064.19.095.288.095.17 0 .338-.09.44-.258.16-.265.092-.62-.15-.795l-1.12-.808c-.242-.18-.567-.11-.727.16-.16.26-.093.62.15.79zm3.642-3.598c-.284.06-.467.36-.41.67l.27 1.435c.05.272.27.46.514.46l.106-.013c.284-.064.468-.367.41-.677l-.27-1.435c-.058-.31-.335-.51-.62-.447zM4 9.81c.31-.284.75-.288 1.06-.036l.01.025c.088.2.273.33.477.33h.063c.204 0 .39-.13.476-.333l.01-.025c.312-.253.753-.248 1.062.035.222.206.553.175.74-.07.187-.242.158-.604-.064-.81-.653-.6-1.57-.635-2.255-.16-.69-.475-1.61-.44-2.26.16-.22.206-.25.568-.07.81.185.244.52.276.74.07zm5.216-2h1.825v.11c0 .36.14.705.39.943.21.203.48.314.76.314h3.84c.64 0 1.15-.565 1.15-1.258s-.51-1.26-1.15-1.26h-.11l.03-.3c0-.8-.59-1.45-1.32-1.45H9.22c-.32 0-.63.13-.874.362-.285.274-.45.67-.45 1.083 0 .415.164.81.45 1.085.242.235.553.363.874.363zm-.18-1.67c.036-.033.096-.074.18-.074h5.405c.15 0 .28.134.28.298 0 .165-.12.3-.27.3-.29 0-.524.256-.524.573H14.1c0 .316.234.573.524.573h1.41c.055 0 .1.05.1.11s-.045.11-.1.11h-3.84L12.12 8l-.035-.08.035-.083.064-.03h.002c.29 0 .526-.256.526-.573 0-.317-.235-.574-.526-.574H9.214c-.084 0-.144-.04-.18-.075-.034-.035-.092-.11-.092-.225s.058-.19.093-.223zm22.36 19.41c-.6 0-.925.17-1.187.305-.22.113-.38.194-.75.194l-.296-.03c.08-.334.024-.7-.183-.996l-1.4-1.983c-.11-.156-.253-.277-.42-.355l-2.73-1.277c0-.59.06-1.363.27-2.247.36-1.484.95-2.455 1.254-2.885 1.07.15 3.66.584 5.194 1.443.077.045.16.066.24.066.153 0 .303-.073.406-.21.157-.21.16-.51.006-.72-.062-.087-1.514-2.05-4.068-2.17.983-.674 2.187-1.4 3.2-1.713.24-.072.397-.32.38-.587-.014-.27-.2-.493-.444-.533-.02-.003-.236-.037-.58-.037-.822 0-2.59.21-4.052 1.787l-.053-.265c-.268-1.21-.99-2.9-2.92-4.083-.217-.133-.486-.084-.65.116-.164.2-.18.5-.037.718.018.028 1.512 2.333 2.312 4.45-.258-.054-.55-.09-.87-.09-1.19 0-2.308.516-3.228 1.495-.177.19-.21.485-.082.714.1.172.27.272.448.272l.17-.03c.022-.01 1.92-.72 3.51-.885-.37.61-.838 1.567-1.15 2.86-.164.68-.247 1.304-.283 1.847l-1.07-.9c-.18-.15-.403-.237-.63-.24l-1.57-.01c.035-.6.012-1.47-.236-2.5-.26-1.072-.65-1.86-.95-2.36 1.61-.663 3.92-.917 3.95-.92.24-.027.44-.235.47-.502.03-.266-.118-.52-.35-.61-.59-.23-1.183-.35-1.76-.35-.782 0-1.447.213-1.982.49.65-1.41 1.49-2.71 1.5-2.73.144-.218.13-.515-.035-.715-.166-.2-.435-.25-.65-.116-1.466.895-2.142 2.212-2.405 3.38-1.175-1.176-2.55-1.334-3.202-1.334-.284 0-.464.03-.484.033-.247.04-.43.26-.447.53-.015.27.143.514.38.59.93.285 2.064 1.01 2.9 1.606-2.324.592-3.16 2.796-3.198 2.904-.093.25-.01.537.193.69.09.064.193.097.295.097.132 0 .263-.053.363-.16.93-.976 2.675-1.903 3.53-2.325.25.4.62 1.1.86 2.096.227.94.234 1.716.2 2.207-.506 0-.92.006-1.06.017-.15.01-.562.04-1.502.74l-1.887-.687c-.103-.04-.214-.06-.33-.06h-3.58l-.264.038-3.054.87-.218.09L4 22.358c-.136.074-.254.18-.347.31l-1.882 2.61c-.11.15-.17.322-.2.5-.24-.116-.55-.23-1.042-.23-.29 0-.524.257-.524.574 0 .318.236.575.526.575.363 0 .52.08.74.193.262.14.59.308 1.19.308s.924-.168 1.186-.302c.217-.11.375-.192.74-.192s.52.08.74.194c.263.136.59.303 1.19.303s.925-.17 1.187-.3c.216-.113.374-.194.74-.194.363 0 .52.08.74.194.26.134.59.302 1.19.302s.923-.167 1.185-.3c.218-.11.376-.193.74-.193s.523.08.742.19c.26.135.586.3 1.186.3s.926-.17 1.188-.3c.22-.11.377-.194.74-.194s.524.08.743.193c.262.135.588.302 1.188.302s.927-.165 1.19-.3c.217-.11.375-.19.74-.19s.523.08.74.192c.263.136.59.303 1.19.303s.925-.168 1.187-.302c.22-.11.378-.19.74-.19s.525.08.744.193c.26.137.59.304 1.19.304s.924-.17 1.187-.302c.22-.11.38-.192.74-.192l.067.003c.196.13.42.19.645.17l.04.02c.262.135.59.3 1.19.3s.925-.166 1.187-.3c.22-.112.376-.193.74-.193.292 0 .527-.26.527-.576 0-.314-.238-.572-.53-.572zm-5.046.305c-.218.113-.376.194-.74.194s-.524-.08-.742-.2c-.262-.136-.588-.304-1.188-.304s-.926.17-1.188.303c-.218.113-.376.194-.74.194-.365 0-.524-.08-.742-.193-.262-.134-.588-.302-1.19-.302-.598 0-.925.17-1.187.302-.218.113-.376.194-.74.194-.365 0-.523-.08-.742-.194-.26-.137-.58-.305-1.18-.305s-.924.17-1.19.303c-.22.113-.373.194-.74.194-.362 0-.52-.08-.74-.193-.26-.134-.59-.3-1.19-.3s-.925.17-1.19.302c-.22.113-.374.194-.74.194s-.52-.08-.74-.193c-.262-.135-.59-.303-1.19-.303s-.93.17-1.19.304c-.22.114-.38.195-.74.195-.366 0-.524-.08-.74-.195-.265-.136-.59-.304-1.19-.304h-.13l.91-1.26 2.876-1.613 2.81-.797h3.283l2.23.81c.326.12.686.055.962-.172.327-.268.74-.556.92-.644.38-.01 1.756-.007 3.087.004l1.465 1.234.227.15 3.055 1.43.694.98c-.173.056-.31.126-.434.19z" fill="#3A434E"/></g></svg>