<svg xmlns:sketch="http://www.bohemiancoding.com/sketch/ns" xmlns="http://www.w3.org/2000/svg" width="32" height="232" viewBox="0 0 32 232"><title>argentina_buenos-aires</title><desc>Created with Sketch.</desc><g sketch:type="MSPage"><g sketch:type="MSLayerGroup"><path sketch:type="MSShapeGroup" fill="#373D43" d="M29.232 25.975c-.234 0-.334-.042-.473-.1l-.137-.054.018-.178c0-.463-.352-.838-.785-.838h-1.922v-4.969l2.104-1.834c.313-.273.382-.754.157-1.114-.224-.359-.666-.479-1.022-.276l-1.239.704v-2.15c0-.232-.176-.419-.393-.419h-.844v-1.379c0-1.47-1.304-2.654-1.787-3.043v-.983c.117-.076.189-.211.189-.358 0-.153-.078-.294-.204-.368l-.021-.012-.012-.023c-.069-.134-.201-.218-.345-.218-.143 0-.275.084-.344.218l-.012.023-.022.012c-.126.074-.204.215-.204.368 0 .147.072.282.189.358v.983c-.105.085-.25.208-.413.365h-.267c.043-.131.068-.272.068-.419 0-.693-.528-1.257-1.178-1.257h-4.672c-.287 0-.563.112-.779.315-.253.239-.399.583-.399.942 0 .36.146.704.399.943.216.203.492.315.779.315h1.294l-.025.237c0 .308.124.602.342.807.185.174.421.269.666.269h2.454c-.035.171-.057.347-.057.527v3.439h-.531v-1.641c0-.232-.176-.419-.393-.419h-.461v-1.019c0-.231-.176-.419-.393-.419s-.393.188-.393.419v1.019h-.461c-.217 0-.393.187-.393.419v1.641h-1.062v-.769c0-.231-.176-.419-.393-.419h-1.515c-.217 0-.393.188-.393.419v.769h-.661c-.217 0-.393.188-.393.419v6.973l-.671.169-.326-16.046c-.003-.168-.054-.332-.146-.469l-1.006-1.502c-.146-.219-.383-.35-.636-.351h-.003c-.252 0-.488.128-.636.347l-1.02 1.502c-.094.138-.146.303-.149.473l-.022 1.099h-2.684c-.137 0-.249-.119-.249-.266s.112-.266.249-.266c.217 0 .393-.188.393-.419s-.176-.419-.393-.419c-.57 0-1.034.495-1.034 1.104s.463 1.104 1.034 1.104h2.667l-.008.418h-1.426c-.217 0-.393.188-.393.42s.176.418.393.418h1.409l-.27 13.291h-2.542c-.434 0-.785.375-.785.838 0 .117.022.228.063.33l-.086.002c-.233 0-.333-.042-.472-.1-.167-.07-.376-.157-.758-.157-.217 0-.393.188-.393.419s.175.419.393.419c.234 0 .334.042.472.1.168.069.376.157.758.157s.591-.087.758-.157c.139-.058.238-.1.472-.1s.333.042.472.1c.168.069.376.157.758.157.381 0 .59-.087.758-.157.139-.058.239-.1.473-.1.233 0 .333.042.472.1.168.069.376.157.758.157s.59-.087.758-.157c.139-.058.239-.1.473-.1s.333.042.473.1c.167.069.376.157.757.157.382 0 .591-.087.758-.157.139-.058.238-.1.472-.1s.334.042.472.1c.168.069.377.157.758.157s.59-.087.758-.157c.139-.058.239-.1.472-.1.234 0 .334.042.473.1.167.069.377.157.758.157s.591-.087.758-.157c.139-.058.239-.1.473-.1.234 0 .334.042.473.1.168.069.377.157.758.157s.59-.087.758-.157c.139-.058.238-.1.473-.1.233 0 .334.042.473.1.168.069.376.157.758.157s.59-.087.758-.157c.139-.058.239-.1.473-.1s.334.042.473.1c.168.069.376.157.758.157s.591-.087.758-.157c.139-.058.239-.1.473-.1.234 0 .334.042.473.1.168.069.377.157.758.157.382 0 .591-.087.759-.157.139-.058.239-.1.473-.1s.334.042.473.1c.168.069.376.157.759.157.217 0 .393-.188.393-.419.001-.233-.175-.421-.392-.421zm-19.419-14.46l.059-2.895.235-.346.23.343.325 16.04c-.361.05-.735.09-1.118.116l.269-13.258zm7.905.249c0-.092.048-.151.075-.178l.147-.06h.002c.217 0 .393-.188.393-.419s-.176-.419-.393-.419h-2.279c-.122 0-.208-.058-.259-.105-.086-.082-.134-.193-.134-.314s.048-.232.134-.314c.072-.068.164-.105.259-.105h4.672c.216 0 .393.188.393.419 0 .231-.177.419-.393.419-.217 0-.393.188-.393.419h-.002c0 .231.175.419.393.419h.655c-.104.148-.202.307-.29.475h-2.759l-.146-.06c-.027-.025-.075-.085-.075-.177zm3.488 1.076c.044-.144.103-.284.171-.419.076-.147.164-.287.258-.419l.278-.351.284-.3.298-.272.022-.02c.379.319 1.139 1.044 1.343 1.889h-2.685l.031-.108zm-2.185 2.744v5.654l-.922.523v-6.177h.922zm.004 7.549l.389-.22.005-.002.388-.22.004-.003.234-.132.034-.02.358-.203.034-.02.357-.203.031-.018-.031.027-.357.312-.034.03-.358.312-.034.03-.234.204-.004.003-.388.338-.005.004-.389.337-.004.005-.983.856-.29.253h-1.668l.172-.098.079-.045.922-.523.062-.034.331-.189.062-.034.331-.188.062-.035.922-.523.002-.001zm.786 2.038l.234-.203v.296h-.234v-.093zm1.053-.366v-.552l.729-.635v1.646h-.729v-.459zm1.594 0v-1.94l.922-.804v3.204h-.922v-.46zm-.864-7.16v2.133l-.729.414v-2.754l.729-.572v.779zm1.786 1.119l-.922.523v-1.642h.922v1.119zm-7.913 4.49l-.243.138-.486.203v-7.138h.729v6.797zm9.681 1.551v.459h-.922v-3.941l.922-.803v4.285zm0-7.044l-.922.523v-2.7h.922v2.177zm-5.337-.116h.234v3.013l-.234.132v-3.145zm-3.48 0h.922v4.596l-.922.523v-5.119zm-2.647 0h.233v6.247l-.233.076v-6.323zm10.15-2.899c-.217 0-.393.187-.393.419v1.641h-1.062v-.769c0-.158-.083-.302-.215-.374-.133-.072-.291-.058-.41.036l-.631.494v-2.407h2.789v.959h-.078v.001z"/><path sketch:type="MSShapeGroup" fill="#fff" d="M29.232 107.975c-.234 0-.334-.042-.473-.1l-.137-.054.018-.178c0-.463-.352-.838-.785-.838h-1.922v-4.969l2.104-1.834c.313-.273.382-.754.157-1.114-.224-.359-.666-.479-1.022-.276l-1.239.704v-2.15c0-.232-.176-.419-.393-.419h-.844v-1.379c0-1.47-1.304-2.654-1.787-3.043v-.983c.117-.076.189-.211.189-.358 0-.153-.078-.294-.204-.368l-.021-.012-.012-.023c-.069-.134-.201-.218-.345-.218-.143 0-.275.084-.344.218l-.012.023-.022.012c-.126.074-.204.215-.204.368 0 .147.072.282.189.358v.983c-.105.085-.25.208-.413.365h-.267c.043-.131.068-.272.068-.419 0-.693-.528-1.257-1.178-1.257h-4.672c-.287 0-.563.112-.779.315-.253.239-.399.583-.399.942 0 .36.146.704.399.943.216.203.492.315.779.315h1.294l-.025.237c0 .308.124.602.342.807.185.174.421.269.666.269h2.454c-.035.171-.057.347-.057.527v3.439h-.531v-1.641c0-.232-.176-.419-.393-.419h-.461v-1.019c0-.231-.176-.419-.393-.419s-.393.188-.393.419v1.019h-.461c-.217 0-.393.187-.393.419v1.641h-1.062v-.769c0-.231-.176-.419-.393-.419h-1.515c-.217 0-.393.188-.393.419v.769h-.661c-.217 0-.393.188-.393.419v6.973l-.671.169-.326-16.046c-.003-.168-.054-.332-.146-.469l-1.006-1.502c-.146-.219-.383-.35-.636-.351h-.003c-.252 0-.488.128-.636.347l-1.02 1.502c-.094.138-.146.303-.149.473l-.022 1.099h-2.684c-.137 0-.249-.119-.249-.266s.112-.266.249-.266c.217 0 .393-.188.393-.419s-.176-.419-.393-.419c-.57 0-1.034.495-1.034 1.104s.463 1.104 1.034 1.104h2.667l-.008.418h-1.426c-.217 0-.393.188-.393.42s.176.418.393.418h1.409l-.27 13.291h-2.542c-.434 0-.785.375-.785.838 0 .117.022.228.063.33l-.086.002c-.233 0-.333-.042-.472-.1-.167-.07-.376-.157-.758-.157-.217 0-.393.188-.393.419s.175.419.393.419c.234 0 .334.042.472.1.168.069.376.157.758.157s.591-.087.758-.157c.139-.058.238-.1.472-.1s.333.042.472.1c.168.069.376.157.758.157.381 0 .59-.087.758-.157.139-.058.239-.1.473-.1.233 0 .333.042.472.1.168.069.376.157.758.157s.59-.087.758-.157c.139-.058.239-.1.473-.1s.333.042.473.1c.167.069.376.157.757.157.382 0 .591-.087.758-.157.139-.058.238-.1.472-.1s.334.042.472.1c.168.069.377.157.758.157s.59-.087.758-.157c.139-.058.239-.1.472-.1.234 0 .334.042.473.1.167.069.377.157.758.157s.591-.087.758-.157c.139-.058.239-.1.473-.1.234 0 .334.042.473.1.168.069.377.157.758.157s.59-.087.758-.157c.139-.058.238-.1.473-.1.233 0 .334.042.473.1.168.069.376.157.758.157s.59-.087.758-.157c.139-.058.239-.1.473-.1s.334.042.473.1c.168.069.376.157.758.157s.591-.087.758-.157c.139-.058.239-.1.473-.1.234 0 .334.042.473.1.168.069.377.157.758.157.382 0 .591-.087.759-.157.139-.058.239-.1.473-.1s.334.042.473.1c.168.069.376.157.759.157.217 0 .393-.188.393-.419.001-.233-.175-.421-.392-.421zm-19.419-14.46l.059-2.895.235-.346.23.343.325 16.04c-.361.05-.735.09-1.118.116l.269-13.258zm7.905.249c0-.092.048-.151.075-.178l.147-.06h.002c.217 0 .393-.188.393-.419s-.176-.419-.393-.419h-2.279c-.122 0-.208-.058-.259-.105-.086-.082-.134-.193-.134-.314s.048-.232.134-.314c.072-.068.164-.105.259-.105h4.672c.216 0 .393.188.393.419 0 .231-.177.419-.393.419-.217 0-.393.188-.393.419h-.002c0 .231.175.419.393.419h.655c-.104.148-.202.307-.29.475h-2.759l-.146-.06c-.027-.025-.075-.085-.075-.177zm3.488 1.076c.044-.144.103-.284.171-.419.076-.147.164-.287.258-.419l.278-.351.284-.3.298-.272.022-.02c.379.319 1.139 1.044 1.343 1.889h-2.685l.031-.108zm-2.185 2.744v5.654l-.922.523v-6.177h.922zm.004 7.549l.389-.22.005-.002.388-.22.004-.003.234-.132.034-.02.358-.203.034-.02.357-.203.031-.018-.031.027-.357.312-.034.03-.358.312-.034.03-.234.204-.004.003-.388.338-.005.004-.389.337-.004.005-.983.856-.29.253h-1.668l.172-.098.079-.045.922-.523.062-.034.331-.189.062-.034.331-.188.062-.035.922-.523.002-.001zm.786 2.038l.234-.203v.296h-.234v-.093zm1.053-.366v-.552l.729-.635v1.646h-.729v-.459zm1.594 0v-1.94l.922-.804v3.204h-.922v-.46zm-.864-7.16v2.133l-.729.414v-2.754l.729-.572v.779zm1.786 1.119l-.922.523v-1.642h.922v1.119zm-7.913 4.49l-.243.138-.486.203v-7.138h.729v6.797zm9.681 1.551v.459h-.922v-3.941l.922-.803v4.285zm0-7.044l-.922.523v-2.7h.922v2.177zm-5.337-.116h.234v3.013l-.234.132v-3.145zm-3.48 0h.922v4.596l-.922.523v-5.119zm-2.647 0h.233v6.247l-.233.076v-6.323zm10.15-2.899c-.217 0-.393.187-.393.419v1.641h-1.062v-.769c0-.158-.083-.302-.215-.374-.133-.072-.291-.058-.41.036l-.631.494v-2.407h2.789v.959h-.078v.001z"/><path sketch:type="MSShapeGroup" fill="#67737B" d="M29.232 66.975c-.234 0-.334-.042-.473-.1l-.137-.054.018-.178c0-.463-.352-.838-.785-.838h-1.922v-4.969l2.104-1.834c.313-.273.382-.754.157-1.114-.224-.359-.666-.479-1.022-.276l-1.239.704v-2.15c0-.232-.176-.419-.393-.419h-.844v-1.379c0-1.47-1.304-2.654-1.787-3.043v-.983c.117-.076.189-.211.189-.358 0-.153-.078-.294-.204-.368l-.021-.012-.012-.023c-.069-.134-.201-.218-.345-.218-.143 0-.275.084-.344.218l-.012.023-.022.012c-.126.074-.204.215-.204.368 0 .147.072.282.189.358v.983c-.105.085-.25.208-.413.365h-.267c.043-.131.068-.272.068-.419 0-.693-.528-1.257-1.178-1.257h-4.672c-.287 0-.563.112-.779.315-.253.239-.399.583-.399.942 0 .36.146.704.399.943.216.203.492.315.779.315h1.294l-.025.237c0 .308.124.602.342.807.185.174.421.269.666.269h2.454c-.035.171-.057.347-.057.527v3.439h-.531v-1.641c0-.232-.176-.419-.393-.419h-.461v-1.019c0-.231-.176-.419-.393-.419s-.393.188-.393.419v1.019h-.461c-.217 0-.393.187-.393.419v1.641h-1.062v-.769c0-.231-.176-.419-.393-.419h-1.515c-.217 0-.393.188-.393.419v.769h-.661c-.217 0-.393.188-.393.419v6.973l-.671.169-.326-16.046c-.003-.168-.054-.332-.146-.469l-1.006-1.502c-.146-.219-.383-.35-.636-.351h-.003c-.252 0-.488.128-.636.347l-1.02 1.502c-.094.138-.146.303-.149.473l-.022 1.099h-2.684c-.137 0-.249-.119-.249-.266s.112-.266.249-.266c.217 0 .393-.188.393-.419s-.176-.419-.393-.419c-.57 0-1.034.495-1.034 1.104s.463 1.104 1.034 1.104h2.667l-.008.418h-1.426c-.217 0-.393.188-.393.42s.176.418.393.418h1.409l-.27 13.291h-2.542c-.434 0-.785.375-.785.838 0 .117.022.228.063.33l-.086.002c-.233 0-.333-.042-.472-.1-.167-.07-.376-.157-.758-.157-.217 0-.393.188-.393.419s.175.419.393.419c.234 0 .334.042.472.1.168.069.376.157.758.157s.591-.087.758-.157c.139-.058.238-.1.472-.1s.333.042.472.1c.168.069.376.157.758.157.381 0 .59-.087.758-.157.139-.058.239-.1.473-.1.233 0 .333.042.472.1.168.069.376.157.758.157s.59-.087.758-.157c.139-.058.239-.1.473-.1s.333.042.473.1c.167.069.376.157.757.157.382 0 .591-.087.758-.157.139-.058.238-.1.472-.1s.334.042.472.1c.168.069.377.157.758.157s.59-.087.758-.157c.139-.058.239-.1.472-.1.234 0 .334.042.473.1.167.069.377.157.758.157s.591-.087.758-.157c.139-.058.239-.1.473-.1.234 0 .334.042.473.1.168.069.377.157.758.157s.59-.087.758-.157c.139-.058.238-.1.473-.1.233 0 .334.042.473.1.168.069.376.157.758.157s.59-.087.758-.157c.139-.058.239-.1.473-.1s.334.042.473.1c.168.069.376.157.758.157s.591-.087.758-.157c.139-.058.239-.1.473-.1.234 0 .334.042.473.1.168.069.377.157.758.157.382 0 .591-.087.759-.157.139-.058.239-.1.473-.1s.334.042.473.1c.168.069.376.157.759.157.217 0 .393-.188.393-.419.001-.233-.175-.421-.392-.421zm-19.419-14.46l.059-2.895.235-.346.23.343.325 16.04c-.361.05-.735.09-1.118.116l.269-13.258zm7.905.249c0-.092.048-.151.075-.178l.147-.06h.002c.217 0 .393-.188.393-.419s-.176-.419-.393-.419h-2.279c-.122 0-.208-.058-.259-.105-.086-.082-.134-.193-.134-.314s.048-.232.134-.314c.072-.068.164-.105.259-.105h4.672c.216 0 .393.188.393.419 0 .231-.177.419-.393.419-.217 0-.393.188-.393.419h-.002c0 .231.175.419.393.419h.655c-.104.148-.202.307-.29.475h-2.759l-.146-.06c-.027-.025-.075-.085-.075-.177zm3.488 1.076c.044-.144.103-.284.171-.419.076-.147.164-.287.258-.419l.278-.351.284-.3.298-.272.022-.02c.379.319 1.139 1.044 1.343 1.889h-2.685l.031-.108zm-2.185 2.744v5.654l-.922.523v-6.177h.922zm.004 7.549l.389-.22.005-.002.388-.22.004-.003.234-.132.034-.02.358-.203.034-.02.357-.203.031-.018-.031.027-.357.312-.034.03-.358.312-.034.03-.234.204-.004.003-.388.338-.005.004-.389.337-.004.005-.983.856-.29.253h-1.668l.172-.098.079-.045.922-.523.062-.034.331-.189.062-.034.331-.188.062-.035.922-.523.002-.001zm.786 2.038l.234-.203v.296h-.234v-.093zm1.053-.366v-.552l.729-.635v1.646h-.729v-.459zm1.594 0v-1.94l.922-.804v3.204h-.922v-.46zm-.864-7.16v2.133l-.729.414v-2.754l.729-.572v.779zm1.786 1.119l-.922.523v-1.642h.922v1.119zm-7.913 4.49l-.243.138-.486.203v-7.138h.729v6.797zm9.681 1.551v.459h-.922v-3.941l.922-.803v4.285zm0-7.044l-.922.523v-2.7h.922v2.177zm-5.337-.116h.234v3.013l-.234.132v-3.145zm-3.48 0h.922v4.596l-.922.523v-5.119zm-2.647 0h.233v6.247l-.233.076v-6.323zm10.15-2.899c-.217 0-.393.187-.393.419v1.641h-1.062v-.769c0-.158-.083-.302-.215-.374-.133-.072-.291-.058-.41.036l-.631.494v-2.407h2.789v.959h-.078v.001z"/><path sketch:type="MSShapeGroup" fill="#206FAC" d="M29.232 145.95c-.234 0-.334-.041-.473-.1l-.137-.054.018-.178c0-.463-.352-.839-.785-.839h-1.922v-4.969l2.104-1.834c.313-.273.382-.755.157-1.114-.224-.358-.666-.479-1.022-.276l-1.239.704v-2.15c0-.231-.176-.419-.393-.419h-.844v-1.379c0-1.471-1.304-2.654-1.787-3.043v-.984c.117-.075.189-.211.189-.357 0-.152-.078-.294-.204-.367l-.021-.013-.012-.022c-.069-.135-.201-.219-.345-.219-.143 0-.275.084-.344.219l-.012.022-.022.013c-.126.073-.204.215-.204.367 0 .146.072.282.189.357v.984c-.105.085-.25.207-.413.364h-.267c.043-.132.068-.272.068-.419 0-.693-.528-1.258-1.178-1.258h-4.672c-.287 0-.563.111-.779.314-.253.239-.399.583-.399.943 0 .359.146.703.399.942.216.202.492.315.779.315h1.294l-.025.236c0 .309.124.603.342.807.185.174.421.27.666.27h2.454c-.035.172-.057.348-.057.527v3.439h-.531v-1.642c0-.231-.176-.419-.393-.419h-.461v-1.02c0-.23-.176-.418-.393-.418s-.393.188-.393.418v1.02h-.461c-.217 0-.393.188-.393.419v1.642h-1.062v-.77c0-.23-.176-.419-.393-.419h-1.515c-.217 0-.393.188-.393.419v.77h-.661c-.217 0-.393.188-.393.419v6.974l-.671.168-.326-16.045c-.003-.169-.054-.332-.146-.469l-1.006-1.503c-.146-.219-.383-.35-.636-.351h-.003c-.252 0-.488.129-.636.347l-1.02 1.502c-.094.138-.146.303-.149.474l-.022 1.098h-2.684c-.137 0-.249-.119-.249-.266s.112-.266.249-.266c.217 0 .393-.188.393-.418 0-.232-.176-.42-.393-.42-.57 0-1.034.495-1.034 1.104 0 .609.463 1.104 1.034 1.104h2.667l-.008.418h-1.426c-.217 0-.393.189-.393.42 0 .232.176.419.393.419h1.409l-.27 13.29h-2.542c-.434 0-.785.376-.785.839 0 .117.022.228.063.329l-.086.002c-.233 0-.333-.041-.472-.1-.167-.069-.376-.156-.758-.156-.217 0-.393.188-.393.419s.175.419.393.419c.234 0 .334.043.472.1.168.07.376.157.758.157s.591-.087.758-.157c.139-.057.238-.1.472-.1s.333.043.472.1c.168.07.376.157.758.157.381 0 .59-.087.758-.157.139-.057.239-.1.473-.1.233 0 .333.043.472.1.168.07.376.157.758.157s.59-.087.758-.157c.139-.057.239-.1.473-.1s.333.043.473.1c.167.07.376.157.757.157.382 0 .591-.087.758-.157.139-.057.238-.1.472-.1s.334.043.472.1c.168.07.377.157.758.157s.59-.087.758-.157c.139-.057.239-.1.472-.1.234 0 .334.043.473.1.167.07.377.157.758.157s.591-.087.758-.157c.139-.057.239-.1.473-.1.234 0 .334.043.473.1.168.07.377.157.758.157s.59-.087.758-.157c.139-.057.238-.1.473-.1.233 0 .334.043.473.1.168.07.376.157.758.157s.59-.087.758-.157c.139-.057.239-.1.473-.1s.334.043.473.1c.168.07.376.157.758.157s.591-.087.758-.157c.139-.057.239-.1.473-.1.234 0 .334.043.473.1.168.07.377.157.758.157.382 0 .591-.087.759-.157.139-.057.239-.1.473-.1s.334.043.473.1c.168.07.376.157.759.157.217 0 .393-.188.393-.419.001-.229-.175-.418-.392-.418zm-19.419-14.46l.059-2.895.235-.347.23.344.325 16.04c-.361.05-.735.09-1.118.116l.269-13.258zm7.905.249c0-.092.048-.15.075-.178l.147-.059h.002c.217 0 .393-.188.393-.42s-.176-.419-.393-.419h-2.279c-.122 0-.208-.058-.259-.104-.086-.082-.134-.193-.134-.314 0-.122.048-.232.134-.314.072-.068.164-.105.259-.105h4.672c.216 0 .393.188.393.42 0 .23-.177.419-.393.419-.217 0-.393.188-.393.419h-.002c0 .231.175.42.393.42h.655c-.104.148-.202.307-.29.475h-2.759l-.146-.06s-.075-.087-.075-.18zm3.488 1.076c.044-.144.103-.284.171-.419.076-.147.164-.286.258-.419l.278-.351.284-.3.298-.271.022-.02c.379.318 1.139 1.043 1.343 1.889h-2.685l.031-.109zm-2.185 2.745v5.654l-.922.522v-6.177h.922v.001zm.004 7.548l.389-.22.005-.003.388-.219.004-.004.234-.132.034-.021.358-.202.034-.021.357-.203.031-.018-.031.027-.357.312-.034.029-.358.312-.034.03-.234.204-.004.003-.388.339-.005.004-.389.338-.004.004-.983.857-.29.252h-1.668l.172-.098.079-.045.922-.522.062-.034.331-.189.062-.033.331-.189.062-.034.922-.523.002-.001zm.786 2.039l.234-.203v.296h-.234v-.093zm1.053-.367v-.551l.729-.636v1.646h-.729v-.459zm1.594 0v-1.939l.922-.805v3.204h-.922v-.46zm-.864-7.16v2.133l-.729.414v-2.754l.729-.572v.779zm1.786 1.119l-.922.523v-1.643h.922v1.12zm-7.913 4.49l-.243.139-.486.203v-7.139h.729v6.797zm9.681 1.551v.46h-.922v-3.941l.922-.804v4.285zm0-7.044l-.922.522v-2.699h.922v2.177zm-5.337-.116h.234v3.013l-.234.132v-3.145zm-3.48 0h.922v4.596l-.922.523v-5.119zm-2.647 0h.233v6.247l-.233.075v-6.322zm10.15-2.898c-.217 0-.393.188-.393.419v1.642h-1.062v-.77c0-.157-.083-.302-.215-.373-.133-.072-.291-.058-.41.036l-.631.494v-2.407h2.789v.959h-.078z"/></g></g></svg>