<svg width="32" height="232" viewBox="0 0 32 232" xmlns="http://www.w3.org/2000/svg" xmlns:sketch="http://www.bohemiancoding.com/sketch/ns"><title>argentina</title><desc>Created with Sketch.</desc><g sketch:type="MSShapeGroup" fill="none"><path d="M10.901 137.491c.102 0 .205-.033.296-.1l1.635-1.221c.239-.179.301-.536.137-.798-.164-.262-.491-.329-.73-.15l-1.635 1.221c-.239.179-.301.536-.137.798.102.162.266.25.434.25zm-7.131-4.009c-.239.179-.301.536-.137.798l1.117 1.787c.102.162.267.25.434.25.102 0 .205-.033.296-.1.239-.179.301-.536.137-.798l-1.117-1.786c-.164-.262-.49-.329-.73-.15zm-2.483 5.278l2.078.427.098.01c.248 0 .469-.192.516-.469.053-.311-.134-.611-.42-.67l-2.078-.426c-.285-.058-.56.147-.614.458-.054.312.134.612.42.67zm6.852-6.103l-.391 2.272c-.054.312.134.612.419.67l.098.011c.247 0 .468-.193.516-.469l.391-2.272c.054-.312-.134-.611-.42-.671-.285-.058-.559.147-.613.459zm2.662 1.342c-.243-.175-.568-.103-.728.162l-.739 1.224c-.161.264-.093.621.149.795.089.065.189.095.289.095.17 0 .338-.091.439-.258l.74-1.224c.16-.265.093-.621-.149-.795zm-8.137 2.648l1.119.808c.089.064.19.095.289.095.171 0 .338-.09.439-.258.16-.265.093-.621-.149-.795l-1.119-.808c-.243-.175-.568-.102-.728.162-.16.265-.093.621.149.796zm3.642-3.598c-.284.064-.467.367-.409.678l.269 1.437c.051.272.269.459.514.459l.106-.012c.284-.064.468-.367.409-.677l-.269-1.437c-.058-.31-.335-.511-.62-.448zm-2.307-3.231c.31-.284.75-.288 1.062-.036l.01.025c.087.203.272.332.476.332h.063c.204 0 .39-.129.476-.332l.01-.025c.312-.252.753-.247 1.062.036.222.204.553.173.741-.071.186-.243.157-.605-.065-.809-.653-.6-1.571-.637-2.255-.16-.685-.477-1.602-.44-2.256.16-.222.204-.251.566-.065.809.186.243.518.275.74.071zm5.217-2.005h1.825l-.005.109c0 .36.142.705.391.943.21.203.48.314.76.314h3.841c.634 0 1.15-.564 1.15-1.257s-.516-1.257-1.15-1.257h-.11l.028-.299c0-.797-.594-1.446-1.323-1.446h-5.405c-.322 0-.632.129-.874.362-.285.275-.449.67-.449 1.084 0 .415.163.809.449 1.085.242.234.553.362.874.362zm-.179-1.67c.035-.034.095-.075.179-.075h5.405c.15 0 .273.134.273.298 0 .165-.122.299-.273.299-.29 0-.525.257-.525.574h-.003c0 .317.235.574.525.574h1.408c.055 0 .1.049.1.109s-.045.109-.1.109h-3.841l-.066-.028-.035-.081.035-.082.065-.028h.002c.291 0 .526-.257.526-.574 0-.317-.235-.574-.526-.574h-2.972c-.084 0-.144-.041-.179-.075-.035-.034-.093-.108-.093-.224l.093-.223zm22.36 19.411c-.6 0-.926.168-1.188.303-.218.113-.376.194-.741.194l-.295-.024c.08-.333.024-.702-.183-.995l-1.399-1.983c-.11-.155-.254-.276-.419-.354l-2.729-1.277c-.002-.592.058-1.363.27-2.247.358-1.486.947-2.457 1.251-2.887 1.07.149 3.661.583 5.192 1.442.077.043.158.064.24.064.153 0 .303-.073.406-.21.157-.209.159-.509.006-.721-.062-.086-1.514-2.049-4.068-2.169.984-.674 2.188-1.4 3.201-1.713.238-.073.397-.319.381-.588-.015-.27-.2-.491-.445-.531-.023-.004-.238-.038-.58-.038-.824 0-2.591.209-4.054 1.788l-.053-.265c-.267-1.211-.99-2.901-2.921-4.083-.215-.132-.484-.083-.648.117-.164.2-.18.498-.037.716.018.028 1.512 2.333 2.312 4.45-.257-.054-.55-.091-.871-.091-1.19 0-2.306.517-3.226 1.496-.176.188-.21.483-.081.712.098.173.269.273.447.273l.17-.031c.022-.008 1.919-.718 3.51-.884-.369.609-.838 1.565-1.15 2.861-.164.68-.247 1.301-.283 1.844l-1.069-.899c-.182-.152-.404-.236-.632-.238l-1.569-.011c.035-.597.012-1.467-.236-2.5-.259-1.073-.649-1.862-.954-2.361 1.61-.663 3.923-.917 3.949-.921.245-.026.44-.234.471-.501.03-.266-.113-.52-.344-.611-.592-.231-1.184-.349-1.761-.349-.782 0-1.447.213-1.982.491.648-1.413 1.489-2.712 1.501-2.73.142-.219.127-.516-.037-.716-.165-.2-.434-.249-.648-.117-1.467.897-2.143 2.214-2.406 3.379-1.176-1.173-2.549-1.331-3.203-1.331-.283 0-.463.028-.483.032-.245.04-.43.262-.445.532-.015.27.143.514.381.588.928.287 2.063 1.012 2.898 1.608-2.323.593-3.158 2.797-3.197 2.905-.092.252-.011.538.194.689.089.066.192.099.294.099.132 0 .263-.055.363-.16.933-.978 2.676-1.905 3.532-2.327.252.399.622 1.101.861 2.093.226.939.233 1.715.199 2.206-.506.001-.919.005-1.06.016-.149.011-.562.044-1.502.74l-1.887-.684c-.107-.038-.218-.058-.331-.058h-3.586l-.264.037-3.054.868-.215.09-3.181 1.784c-.134.075-.252.181-.345.31l-1.882 2.609c-.109.151-.178.324-.208.501-.239-.115-.548-.23-1.042-.23-.29 0-.525.258-.525.575 0 .317.235.574.525.574.364 0 .522.081.741.193.262.135.588.302 1.188.302s.926-.168 1.188-.302c.218-.112.376-.193.741-.193s.522.081.741.193c.262.135.588.302 1.188.302s.926-.168 1.188-.303c.218-.112.376-.193.74-.193.365 0 .522.081.741.193.262.135.588.303 1.188.303s.926-.168 1.188-.302c.218-.112.376-.193.741-.193s.522.081.741.193c.262.135.588.302 1.188.302s.926-.168 1.188-.302c.218-.112.376-.193.741-.193s.522.081.741.193c.262.135.588.302 1.188.302s.926-.168 1.188-.302c.218-.112.376-.193.741-.193s.523.081.741.193c.262.135.589.302 1.188.302.6 0 .926-.168 1.188-.302.218-.112.376-.193.741-.193s.522.081.741.193c.262.135.589.302 1.189.302.6 0 .926-.168 1.189-.302.218-.112.376-.193.741-.193l.062.002c.193.132.418.192.642.172l.038.02c.262.135.589.302 1.189.302.6 0 .926-.168 1.188-.302.219-.112.376-.193.741-.193.291 0 .526-.257.526-.574 0-.317-.235-.575-.526-.575zm-5.047.303c-.218.113-.376.194-.741.194s-.523-.081-.741-.194c-.262-.135-.588-.303-1.188-.303s-.926.168-1.188.303c-.218.113-.376.194-.741.194-.364 0-.523-.081-.741-.194-.262-.135-.588-.303-1.189-.303-.599 0-.926.168-1.188.303-.218.113-.376.194-.741.194-.364 0-.522-.081-.741-.194-.262-.135-.588-.303-1.188-.303s-.926.168-1.188.303c-.218.113-.376.194-.741.194-.364 0-.522-.081-.741-.194-.262-.135-.588-.303-1.188-.303s-.926.168-1.188.303c-.218.113-.376.194-.741.194s-.522-.081-.741-.194c-.262-.135-.588-.303-1.188-.303-.599 0-.926.168-1.188.303-.218.113-.376.194-.741.194-.364 0-.522-.081-.74-.194-.263-.135-.589-.303-1.189-.303l-.13.003.913-1.264 2.874-1.612 2.811-.799h3.282l2.234.809c.327.118.687.054.963-.173.325-.267.738-.555.919-.643.379-.011 1.755-.008 3.086.003l1.466 1.233.227.146 3.057 1.43.691.978c-.173.057-.311.127-.434.191z" fill="#206FAC"/><path d="M10.901 97.491c.102 0 .205-.033.296-.1l1.635-1.221c.239-.179.301-.536.137-.798-.164-.262-.491-.329-.73-.15l-1.635 1.221c-.239.179-.301.536-.137.798.102.162.266.25.434.25zm-7.131-4.009c-.239.179-.301.536-.137.798l1.117 1.787c.102.162.267.25.434.25.102 0 .205-.033.296-.1.239-.179.301-.536.137-.798l-1.117-1.786c-.164-.262-.49-.329-.73-.15zm-2.483 5.278l2.078.427.098.01c.248 0 .469-.192.516-.469.053-.311-.134-.611-.42-.67l-2.078-.426c-.285-.058-.56.147-.614.458-.054.312.134.612.42.67zm6.852-6.103l-.391 2.272c-.054.312.134.612.419.67l.098.011c.247 0 .468-.193.516-.469l.391-2.272c.054-.312-.134-.611-.42-.671-.285-.058-.559.147-.613.459zm2.662 1.342c-.243-.175-.568-.103-.728.162l-.739 1.224c-.161.264-.093.621.149.795.089.065.189.095.289.095.17 0 .338-.091.439-.258l.74-1.224c.16-.265.093-.621-.149-.795zm-8.137 2.648l1.119.808c.089.064.19.095.289.095.171 0 .338-.09.439-.258.16-.265.093-.621-.149-.795l-1.119-.808c-.243-.175-.568-.102-.728.162-.16.265-.093.621.149.796zm3.642-3.598c-.284.064-.467.367-.409.678l.269 1.437c.051.272.269.459.514.459l.106-.012c.284-.064.468-.367.409-.677l-.269-1.437c-.058-.31-.335-.511-.62-.448zm-2.307-3.231c.31-.284.75-.288 1.062-.036l.01.025c.087.203.272.332.476.332h.063c.204 0 .39-.129.476-.332l.01-.025c.312-.252.753-.247 1.062.036.222.204.553.173.741-.071.186-.243.157-.605-.065-.809-.653-.6-1.571-.637-2.255-.16-.685-.477-1.602-.44-2.256.16-.222.204-.251.566-.065.809.186.243.518.275.74.071zm5.217-2.005h1.825l-.005.109c0 .36.142.705.391.943.21.203.48.314.76.314h3.841c.634 0 1.15-.564 1.15-1.257s-.516-1.257-1.15-1.257h-.11l.028-.299c0-.797-.594-1.446-1.323-1.446h-5.405c-.322 0-.632.129-.874.362-.285.275-.449.67-.449 1.084 0 .415.163.809.449 1.085.242.234.553.362.874.362zm-.179-1.67c.035-.034.095-.075.179-.075h5.405c.15 0 .273.134.273.298 0 .165-.122.299-.273.299-.29 0-.525.257-.525.574h-.003c0 .317.235.574.525.574h1.408c.055 0 .1.049.1.109s-.045.109-.1.109h-3.841l-.066-.028-.035-.081.035-.082.065-.028h.002c.291 0 .526-.257.526-.574 0-.317-.235-.574-.526-.574h-2.972c-.084 0-.144-.041-.179-.075-.035-.034-.093-.108-.093-.224l.093-.223zm22.36 19.411c-.6 0-.926.168-1.188.303-.218.113-.376.194-.741.194l-.295-.024c.08-.333.024-.702-.183-.995l-1.399-1.983c-.11-.155-.254-.276-.419-.354l-2.729-1.277c-.002-.592.058-1.363.27-2.247.358-1.486.947-2.457 1.251-2.887 1.07.149 3.661.583 5.192 1.442.077.043.158.064.24.064.153 0 .303-.073.406-.21.157-.209.159-.509.006-.721-.062-.086-1.514-2.049-4.068-2.169.984-.674 2.188-1.4 3.201-1.713.238-.073.397-.319.381-.588-.015-.27-.2-.491-.445-.531-.023-.004-.238-.038-.58-.038-.824 0-2.591.209-4.054 1.788l-.053-.265c-.267-1.211-.99-2.901-2.921-4.083-.215-.132-.484-.083-.648.117-.164.2-.18.498-.037.716.018.028 1.512 2.333 2.312 4.45-.257-.054-.55-.091-.871-.091-1.19 0-2.306.517-3.226 1.496-.176.188-.21.483-.081.712.098.173.269.273.447.273l.17-.031c.022-.008 1.919-.718 3.51-.884-.369.609-.838 1.565-1.15 2.861-.164.68-.247 1.301-.283 1.844l-1.069-.899c-.182-.152-.404-.236-.632-.238l-1.569-.011c.035-.597.012-1.467-.236-2.5-.259-1.073-.649-1.862-.954-2.361 1.61-.663 3.923-.917 3.949-.921.245-.026.44-.234.471-.501.03-.266-.113-.52-.344-.611-.592-.231-1.184-.349-1.761-.349-.782 0-1.447.213-1.982.491.648-1.413 1.489-2.712 1.501-2.73.142-.219.127-.516-.037-.716-.165-.2-.434-.249-.648-.117-1.467.897-2.143 2.214-2.406 3.379-1.176-1.173-2.549-1.331-3.203-1.331-.283 0-.463.028-.483.032-.245.04-.43.262-.445.532-.015.27.143.514.381.588.928.287 2.063 1.012 2.898 1.608-2.323.593-3.158 2.797-3.197 2.905-.092.252-.011.538.194.689.089.066.192.099.294.099.132 0 .263-.055.363-.16.933-.978 2.676-1.905 3.532-2.327.252.399.622 1.101.861 2.093.226.939.233 1.715.199 2.206-.506.001-.919.005-1.06.016-.149.011-.562.044-1.502.74l-1.887-.684c-.107-.038-.218-.058-.331-.058h-3.586l-.264.037-3.054.868-.215.09-3.181 1.784c-.134.075-.252.181-.345.31l-1.882 2.609c-.109.151-.178.324-.208.501-.239-.115-.548-.23-1.042-.23-.29 0-.525.258-.525.575 0 .317.235.574.525.574.364 0 .522.081.741.193.262.135.588.302 1.188.302s.926-.168 1.188-.302c.218-.112.376-.193.741-.193s.522.081.741.193c.262.135.588.302 1.188.302s.926-.168 1.188-.303c.218-.112.376-.193.74-.193.365 0 .522.081.741.193.262.135.588.303 1.188.303s.926-.168 1.188-.302c.218-.112.376-.193.741-.193s.522.081.741.193c.262.135.588.302 1.188.302s.926-.168 1.188-.302c.218-.112.376-.193.741-.193s.522.081.741.193c.262.135.588.302 1.188.302s.926-.168 1.188-.302c.218-.112.376-.193.741-.193s.523.081.741.193c.262.135.589.302 1.188.302.6 0 .926-.168 1.188-.302.218-.112.376-.193.741-.193s.522.081.741.193c.262.135.589.302 1.189.302.6 0 .926-.168 1.189-.302.218-.112.376-.193.741-.193l.062.002c.193.132.418.192.642.172l.038.02c.262.135.589.302 1.189.302.6 0 .926-.168 1.188-.302.219-.112.376-.193.741-.193.291 0 .526-.257.526-.574 0-.317-.235-.575-.526-.575zm-5.047.303c-.218.113-.376.194-.741.194s-.523-.081-.741-.194c-.262-.135-.588-.303-1.188-.303s-.926.168-1.188.303c-.218.113-.376.194-.741.194-.364 0-.523-.081-.741-.194-.262-.135-.588-.303-1.189-.303-.599 0-.926.168-1.188.303-.218.113-.376.194-.741.194-.364 0-.522-.081-.741-.194-.262-.135-.588-.303-1.188-.303s-.926.168-1.188.303c-.218.113-.376.194-.741.194-.364 0-.522-.081-.741-.194-.262-.135-.588-.303-1.188-.303s-.926.168-1.188.303c-.218.113-.376.194-.741.194s-.522-.081-.741-.194c-.262-.135-.588-.303-1.188-.303-.599 0-.926.168-1.188.303-.218.113-.376.194-.741.194-.364 0-.522-.081-.74-.194-.263-.135-.589-.303-1.189-.303l-.13.003.913-1.264 2.874-1.612 2.811-.799h3.282l2.234.809c.327.118.687.054.963-.173.325-.267.738-.555.919-.643.379-.011 1.755-.008 3.086.003l1.466 1.233.227.146 3.057 1.43.691.978c-.173.057-.311.127-.434.191z" fill="#fff"/><path d="M10.901 57.491c.102 0 .205-.033.296-.1l1.635-1.221c.239-.179.301-.536.137-.798-.164-.262-.491-.329-.73-.15l-1.635 1.221c-.239.179-.301.536-.137.798.102.162.266.25.434.25zm-7.131-4.009c-.239.179-.301.536-.137.798l1.117 1.787c.102.162.267.25.434.25.102 0 .205-.033.296-.1.239-.179.301-.536.137-.798l-1.117-1.786c-.164-.262-.49-.329-.73-.15zm-2.483 5.278l2.078.427.098.01c.248 0 .469-.192.516-.469.053-.311-.134-.611-.42-.67l-2.078-.426c-.285-.058-.56.147-.614.458-.054.312.134.612.42.67zm6.852-6.103l-.391 2.272c-.054.312.134.612.419.67l.098.011c.247 0 .468-.193.516-.469l.391-2.272c.054-.312-.134-.611-.42-.671-.285-.058-.559.147-.613.459zm2.662 1.342c-.243-.175-.568-.103-.728.162l-.739 1.224c-.161.264-.093.621.149.795.089.065.189.095.289.095.17 0 .338-.091.439-.258l.74-1.224c.16-.265.093-.621-.149-.795zm-8.137 2.648l1.119.808c.089.064.19.095.289.095.171 0 .338-.09.439-.258.16-.265.093-.621-.149-.795l-1.119-.808c-.243-.175-.568-.102-.728.162-.16.265-.093.621.149.796zm3.642-3.598c-.284.064-.467.367-.409.678l.269 1.437c.051.272.269.459.514.459l.106-.012c.284-.064.468-.367.409-.677l-.269-1.437c-.058-.31-.335-.511-.62-.448zm-2.307-3.231c.31-.284.75-.288 1.062-.036l.01.025c.087.203.272.332.476.332h.063c.204 0 .39-.129.476-.332l.01-.025c.312-.252.753-.247 1.062.036.222.204.553.173.741-.071.186-.243.157-.605-.065-.809-.653-.6-1.571-.637-2.255-.16-.685-.477-1.602-.44-2.256.16-.222.204-.251.566-.065.809.186.243.518.275.74.071zm5.217-2.005h1.825l-.005.109c0 .36.142.705.391.943.21.203.48.314.76.314h3.841c.634 0 1.15-.564 1.15-1.257s-.516-1.257-1.15-1.257h-.11l.028-.299c0-.797-.594-1.446-1.323-1.446h-5.405c-.322 0-.632.129-.874.362-.285.275-.449.67-.449 1.084 0 .415.163.809.449 1.085.242.234.553.362.874.362zm-.179-1.67c.035-.034.095-.075.179-.075h5.405c.15 0 .273.134.273.298 0 .165-.122.299-.273.299-.29 0-.525.257-.525.574h-.003c0 .317.235.574.525.574h1.408c.055 0 .1.049.1.109s-.045.109-.1.109h-3.841l-.066-.028-.035-.081.035-.082.065-.028h.002c.291 0 .526-.257.526-.574 0-.317-.235-.574-.526-.574h-2.972c-.084 0-.144-.041-.179-.075-.035-.034-.093-.108-.093-.224l.093-.223zm22.36 19.411c-.6 0-.926.168-1.188.303-.218.113-.376.194-.741.194l-.295-.024c.08-.333.024-.702-.183-.995l-1.399-1.983c-.11-.155-.254-.276-.419-.354l-2.729-1.277c-.002-.592.058-1.363.27-2.247.358-1.486.947-2.457 1.251-2.887 1.07.149 3.661.583 5.192 1.442.077.043.158.064.24.064.153 0 .303-.073.406-.21.157-.209.159-.509.006-.721-.062-.086-1.514-2.049-4.068-2.169.984-.674 2.188-1.4 3.201-1.713.238-.073.397-.319.381-.588-.015-.27-.2-.491-.445-.531-.023-.004-.238-.038-.58-.038-.824 0-2.591.209-4.054 1.788l-.053-.265c-.267-1.211-.99-2.901-2.921-4.083-.215-.132-.484-.083-.648.117-.164.2-.18.498-.037.716.018.028 1.512 2.333 2.312 4.45-.257-.054-.55-.091-.871-.091-1.19 0-2.306.517-3.226 1.496-.176.188-.21.483-.081.712.098.173.269.273.447.273l.17-.031c.022-.008 1.919-.718 3.51-.884-.369.609-.838 1.565-1.15 2.861-.164.68-.247 1.301-.283 1.844l-1.069-.899c-.182-.152-.404-.236-.632-.238l-1.569-.011c.035-.597.012-1.467-.236-2.5-.259-1.073-.649-1.862-.954-2.361 1.61-.663 3.923-.917 3.949-.921.245-.026.44-.234.471-.501.03-.266-.113-.52-.344-.611-.592-.231-1.184-.349-1.761-.349-.782 0-1.447.213-1.982.491.648-1.413 1.489-2.712 1.501-2.73.142-.219.127-.516-.037-.716-.165-.2-.434-.249-.648-.117-1.467.897-2.143 2.214-2.406 3.379-1.176-1.173-2.549-1.331-3.203-1.331-.283 0-.463.028-.483.032-.245.04-.43.262-.445.532-.015.27.143.514.381.588.928.287 2.063 1.012 2.898 1.608-2.323.593-3.158 2.797-3.197 2.905-.092.252-.011.538.194.689.089.066.192.099.294.099.132 0 .263-.055.363-.16.933-.978 2.676-1.905 3.532-2.327.252.399.622 1.101.861 2.093.226.939.233 1.715.199 2.206-.506.001-.919.005-1.06.016-.149.011-.562.044-1.502.74l-1.887-.684c-.107-.038-.218-.058-.331-.058h-3.586l-.264.037-3.054.868-.215.09-3.181 1.784c-.134.075-.252.181-.345.31l-1.882 2.609c-.109.151-.178.324-.208.501-.239-.115-.548-.23-1.042-.23-.29 0-.525.258-.525.575 0 .317.235.574.525.574.364 0 .522.081.741.193.262.135.588.302 1.188.302s.926-.168 1.188-.302c.218-.112.376-.193.741-.193s.522.081.741.193c.262.135.588.302 1.188.302s.926-.168 1.188-.303c.218-.112.376-.193.74-.193.365 0 .522.081.741.193.262.135.588.303 1.188.303s.926-.168 1.188-.302c.218-.112.376-.193.741-.193s.522.081.741.193c.262.135.588.302 1.188.302s.926-.168 1.188-.302c.218-.112.376-.193.741-.193s.522.081.741.193c.262.135.588.302 1.188.302s.926-.168 1.188-.302c.218-.112.376-.193.741-.193s.523.081.741.193c.262.135.589.302 1.188.302.6 0 .926-.168 1.188-.302.218-.112.376-.193.741-.193s.522.081.741.193c.262.135.589.302 1.189.302.6 0 .926-.168 1.189-.302.218-.112.376-.193.741-.193l.062.002c.193.132.418.192.642.172l.038.02c.262.135.589.302 1.189.302.6 0 .926-.168 1.188-.302.219-.112.376-.193.741-.193.291 0 .526-.257.526-.574 0-.317-.235-.575-.526-.575zm-5.047.303c-.218.113-.376.194-.741.194s-.523-.081-.741-.194c-.262-.135-.588-.303-1.188-.303s-.926.168-1.188.303c-.218.113-.376.194-.741.194-.364 0-.523-.081-.741-.194-.262-.135-.588-.303-1.189-.303-.599 0-.926.168-1.188.303-.218.113-.376.194-.741.194-.364 0-.522-.081-.741-.194-.262-.135-.588-.303-1.188-.303s-.926.168-1.188.303c-.218.113-.376.194-.741.194-.364 0-.522-.081-.741-.194-.262-.135-.588-.303-1.188-.303s-.926.168-1.188.303c-.218.113-.376.194-.741.194s-.522-.081-.741-.194c-.262-.135-.588-.303-1.188-.303-.599 0-.926.168-1.188.303-.218.113-.376.194-.741.194-.364 0-.522-.081-.74-.194-.263-.135-.589-.303-1.189-.303l-.13.003.913-1.264 2.874-1.612 2.811-.799h3.282l2.234.809c.327.118.687.054.963-.173.325-.267.738-.555.919-.643.379-.011 1.755-.008 3.086.003l1.466 1.233.227.146 3.057 1.43.691.978c-.173.057-.311.127-.434.191z" fill="#67737B"/><path d="M10.901 17.491c.102 0 .205-.033.296-.1l1.635-1.221c.239-.179.301-.536.137-.798-.164-.262-.491-.329-.73-.15l-1.635 1.221c-.239.179-.301.536-.137.798.102.162.266.25.434.25zm-7.131-4.009c-.239.179-.301.536-.137.798l1.117 1.787c.102.162.267.25.434.25.102 0 .205-.033.296-.1.239-.179.301-.536.137-.798l-1.117-1.786c-.164-.262-.49-.329-.73-.15zm-2.483 5.278l2.078.427.098.01c.248 0 .469-.192.516-.469.053-.311-.134-.611-.42-.67l-2.078-.426c-.285-.058-.56.147-.614.458-.054.312.134.612.42.67zm6.852-6.103l-.391 2.272c-.054.312.134.612.419.67l.098.011c.247 0 .468-.193.516-.469l.391-2.272c.054-.312-.134-.611-.42-.671-.285-.058-.559.147-.613.459zm2.662 1.342c-.243-.175-.568-.103-.728.162l-.739 1.224c-.161.264-.093.621.149.795.089.065.189.095.289.095.17 0 .338-.091.439-.258l.74-1.224c.16-.265.093-.621-.149-.795zm-8.137 2.648l1.119.808c.089.064.19.095.289.095.171 0 .338-.09.439-.258.16-.265.093-.621-.149-.795l-1.119-.808c-.243-.175-.568-.102-.728.162-.16.265-.093.621.149.796zm3.642-3.598c-.284.064-.467.367-.409.678l.269 1.437c.051.272.269.459.514.459l.106-.012c.284-.064.468-.367.409-.677l-.269-1.437c-.058-.31-.335-.511-.62-.448zm-2.307-3.231c.31-.284.75-.288 1.062-.036l.01.025c.087.203.272.332.476.332h.063c.204 0 .39-.129.476-.332l.01-.025c.312-.252.753-.247 1.062.036.222.204.553.173.741-.071.186-.243.157-.605-.065-.809-.653-.6-1.571-.637-2.255-.16-.685-.477-1.602-.44-2.256.16-.222.204-.251.566-.065.809.186.243.518.275.74.071zm5.217-2.005h1.825l-.005.109c0 .36.142.705.391.943.21.203.48.314.76.314h3.841c.634 0 1.15-.564 1.15-1.257s-.516-1.257-1.15-1.257h-.11l.028-.299c0-.797-.594-1.446-1.323-1.446h-5.405c-.322 0-.632.129-.874.362-.285.275-.449.67-.449 1.084 0 .415.163.809.449 1.085.242.234.553.362.874.362zm-.179-1.67c.035-.034.095-.075.179-.075h5.405c.15 0 .273.134.273.298 0 .165-.122.299-.273.299-.29 0-.525.257-.525.574h-.003c0 .317.235.574.525.574h1.408c.055 0 .1.049.1.109s-.045.109-.1.109h-3.841l-.066-.028-.035-.081.035-.082.065-.028h.002c.291 0 .526-.257.526-.574 0-.317-.235-.574-.526-.574h-2.972c-.084 0-.144-.041-.179-.075-.035-.034-.093-.108-.093-.224l.093-.223zm22.36 19.411c-.6 0-.926.168-1.188.303-.218.113-.376.194-.741.194l-.295-.024c.08-.333.024-.702-.183-.995l-1.399-1.983c-.11-.155-.254-.276-.419-.354l-2.729-1.277c-.002-.592.058-1.363.27-2.247.358-1.486.947-2.457 1.251-2.887 1.07.149 3.661.583 5.192 1.442.077.043.158.064.24.064.153 0 .303-.073.406-.21.157-.209.159-.509.006-.721-.062-.086-1.514-2.049-4.068-2.169.984-.674 2.188-1.4 3.201-1.713.238-.073.397-.319.381-.588-.015-.27-.2-.491-.445-.531-.023-.004-.238-.038-.58-.038-.824 0-2.591.209-4.054 1.788l-.053-.265c-.267-1.211-.99-2.901-2.921-4.083-.215-.132-.484-.083-.648.117-.164.2-.18.498-.037.716.018.028 1.512 2.333 2.312 4.45-.257-.054-.55-.091-.871-.091-1.19 0-2.306.517-3.226 1.496-.176.188-.21.483-.081.712.098.173.269.273.447.273l.17-.031c.022-.008 1.919-.718 3.51-.884-.369.609-.838 1.565-1.15 2.861-.164.68-.247 1.301-.283 1.844l-1.069-.899c-.182-.152-.404-.236-.632-.238l-1.569-.011c.035-.597.012-1.467-.236-2.5-.259-1.073-.649-1.862-.954-2.361 1.61-.663 3.923-.917 3.949-.921.245-.026.44-.234.471-.501.03-.266-.113-.52-.344-.611-.592-.231-1.184-.349-1.761-.349-.782 0-1.447.213-1.982.491.648-1.413 1.489-2.712 1.501-2.73.142-.219.127-.516-.037-.716-.165-.2-.434-.249-.648-.117-1.467.897-2.143 2.214-2.406 3.379-1.176-1.173-2.549-1.331-3.203-1.331-.283 0-.463.028-.483.032-.245.04-.43.262-.445.532-.015.27.143.514.381.588.928.287 2.063 1.012 2.898 1.608-2.323.593-3.158 2.797-3.197 2.905-.092.252-.011.538.194.689.089.066.192.099.294.099.132 0 .263-.055.363-.16.933-.978 2.676-1.905 3.532-2.327.252.399.622 1.101.861 2.093.226.939.233 1.715.199 2.206-.506.001-.919.005-1.06.016-.149.011-.562.044-1.502.74l-1.887-.684c-.107-.038-.218-.058-.331-.058h-3.586l-.264.037-3.054.868-.215.09-3.181 1.784c-.134.075-.252.181-.345.31l-1.882 2.609c-.109.151-.178.324-.208.501-.239-.115-.548-.23-1.042-.23-.29 0-.525.258-.525.575 0 .317.235.574.525.574.364 0 .522.081.741.193.262.135.588.302 1.188.302s.926-.168 1.188-.302c.218-.112.376-.193.741-.193s.522.081.741.193c.262.135.588.302 1.188.302s.926-.168 1.188-.303c.218-.112.376-.193.74-.193.365 0 .522.081.741.193.262.135.588.303 1.188.303s.926-.168 1.188-.302c.218-.112.376-.193.741-.193s.522.081.741.193c.262.135.588.302 1.188.302s.926-.168 1.188-.302c.218-.112.376-.193.741-.193s.522.081.741.193c.262.135.588.302 1.188.302s.926-.168 1.188-.302c.218-.112.376-.193.741-.193s.523.081.741.193c.262.135.589.302 1.188.302.6 0 .926-.168 1.188-.302.218-.112.376-.193.741-.193s.522.081.741.193c.262.135.589.302 1.189.302.6 0 .926-.168 1.189-.302.218-.112.376-.193.741-.193l.062.002c.193.132.418.192.642.172l.038.02c.262.135.589.302 1.189.302.6 0 .926-.168 1.188-.302.219-.112.376-.193.741-.193.291 0 .526-.257.526-.574 0-.317-.235-.575-.526-.575zm-5.047.303c-.218.113-.376.194-.741.194s-.523-.081-.741-.194c-.262-.135-.588-.303-1.188-.303s-.926.168-1.188.303c-.218.113-.376.194-.741.194-.364 0-.523-.081-.741-.194-.262-.135-.588-.303-1.189-.303-.599 0-.926.168-1.188.303-.218.113-.376.194-.741.194-.364 0-.522-.081-.741-.194-.262-.135-.588-.303-1.188-.303s-.926.168-1.188.303c-.218.113-.376.194-.741.194-.364 0-.522-.081-.741-.194-.262-.135-.588-.303-1.188-.303s-.926.168-1.188.303c-.218.113-.376.194-.741.194s-.522-.081-.741-.194c-.262-.135-.588-.303-1.188-.303-.599 0-.926.168-1.188.303-.218.113-.376.194-.741.194-.364 0-.522-.081-.74-.194-.263-.135-.589-.303-1.189-.303l-.13.003.913-1.264 2.874-1.612 2.811-.799h3.282l2.234.809c.327.118.687.054.963-.173.325-.267.738-.555.919-.643.379-.011 1.755-.008 3.086.003l1.466 1.233.227.146 3.057 1.43.691.978c-.173.057-.311.127-.434.191z" fill="#3A434E"/></g></svg>