<svg width="32" height="232" viewBox="0 0 32 232" xmlns="http://www.w3.org/2000/svg"><desc>Created with Sketch.</desc><g fill="none"><path d="M31.516 147.766c-.28 0-.4-.05-.568-.12l-.164-.066.022-.214c0-.56-.423-1.012-.943-1.012h-2.31v-5.997l2.53-2.214c.375-.33.457-.91.188-1.344-.265-.437-.8-.58-1.224-.337l-1.49.85v-2.596c0-.28-.21-.507-.47-.507H26.07v-1.663c0-1.775-1.567-3.205-2.148-3.674v-1.187c.14-.09.228-.255.228-.433 0-.184-.095-.355-.246-.444l-.026-.017-.014-.028c-.083-.162-.24-.263-.414-.263-.172 0-.33.1-.414.262l-.014.026-.026.015c-.15.09-.245.26-.245.444 0 .175.09.34.23.43v1.187c-.125.103-.3.25-.494.44h-.32c.05-.16.08-.328.08-.506 0-.835-.634-1.516-1.414-1.516H15.22c-.345 0-.677.135-.936.38-.303.288-.48.703-.48 1.137 0 .436.177.85.48 1.138.26.244.593.38.937.38h1.555l-.03.286c0 .37.15.727.41.974.223.21.507.324.8.324h2.95c-.043.208-.068.42-.068.638v4.15h-.64v-1.98c0-.28-.21-.507-.47-.507h-.555v-1.23c0-.28-.21-.505-.472-.505-.26 0-.472.227-.472.506v1.23h-.554c-.26 0-.472.226-.472.506v1.98h-1.28v-.927c0-.28-.21-.507-.47-.507h-1.82c-.262 0-.473.227-.473.506v.927h-.795c-.26 0-.472.227-.472.506v8.415c-.253.07-.523.138-.804.204l-.39-19.363c-.006-.203-.067-.4-.177-.566l-1.21-1.81c-.176-.264-.46-.422-.764-.423h-.004c-.303 0-.587.156-.764.42l-1.228 1.81c-.113.168-.175.367-.18.57l-.026 1.328H3.123c-.165 0-.3-.145-.3-.32 0-.18.135-.323.3-.323.26 0 .472-.227.472-.506s-.21-.506-.472-.506c-.685 0-1.242.597-1.242 1.332 0 .734.56 1.332 1.246 1.332H6.33l-.01.503H4.602c-.26 0-.472.228-.472.507s.214.504.475.504h1.693l-.324 16.038H2.918c-.52 0-.943.454-.943 1.013 0 .14.027.275.076.398l-.1.002c-.28 0-.4-.05-.566-.12-.2-.085-.45-.19-.91-.19-.26 0-.472.227-.472.506s.21.506.473.506c.28 0 .4.05.567.12.2.084.45.19.91.19s.71-.106.91-.19c.166-.07.286-.12.567-.12.28 0 .4.05.566.12.202.084.452.19.91.19.46 0 .71-.106.912-.19.166-.07.287-.12.568-.12.28 0 .4.05.567.12.204.084.454.19.91.19.46 0 .71-.106.914-.19.167-.07.287-.12.568-.12.28 0 .4.05.57.12.2.084.45.19.91.19s.71-.106.91-.19c.166-.07.286-.12.567-.12.28 0 .4.05.566.12.202.084.453.19.91.19s.71-.106.912-.19c.167-.07.287-.12.567-.12.28 0 .4.05.568.12.2.084.453.19.91.19.46 0 .71-.106.913-.19.166-.07.287-.12.567-.12.28 0 .4.05.566.12.2.084.453.19.91.19s.71-.106.91-.19c.168-.07.288-.12.57-.12.28 0 .4.05.567.12.202.084.452.19.91.19s.71-.106.912-.19c.166-.07.286-.12.567-.12.28 0 .4.05.568.12.203.084.454.19.91.19.46 0 .71-.106.913-.19.167-.07.287-.12.568-.12.28 0 .4.05.57.12.2.084.45.19.91.19s.71-.106.912-.19c.167-.07.288-.12.57-.12.28 0 .4.05.567.12.2.084.45.19.91.19.26 0 .472-.228.472-.507s-.21-.506-.472-.506zm-23.33-17.45l.07-3.494.282-.418.276.414.39 19.357c-.433.06-.882.108-1.342.14l.323-16zm9.496.3c0-.112.057-.182.09-.215.036-.03.095-.07.178-.07h.002c.26 0 .472-.225.472-.504s-.21-.506-.472-.506h-2.738c-.146 0-.25-.07-.31-.128-.105-.097-.162-.232-.162-.38 0-.145.057-.28.16-.377.087-.082.198-.127.312-.127h5.613c.26 0 .472.227.472.506s-.216.507-.476.507-.472.228-.472.507h-.002c0 .28.21.506.473.506h.788c-.123.18-.24.37-.346.573H17.95c-.083 0-.14-.04-.176-.072-.034-.03-.09-.102-.09-.214zm4.19 1.298c.053-.173.123-.343.207-.505.09-.18.192-.35.305-.51.107-.15.22-.29.335-.423l.34-.363.36-.328.028-.024c.454.385 1.366 1.26 1.612 2.28h-3.226l.037-.132zm-2.624 3.312v6.823l-1.108.63v-7.457h1.108zm.006 9.11l.466-.266.006-.003.466-.265.006-.004.28-.16.042-.023.43-.244.042-.02.43-.245.038-.02-.038.032-.43.377-.042.037-.43.376-.042.037-.28.245-.006.004-.466.41-.006.004-.466.407-.006.005-1.18 1.034-.35.304h-2.004l.207-.118.1-.054 1.107-.63.073-.04.4-.23.07-.04.4-.228.072-.04 1.11-.633.006-.003zm.943 2.46l.28-.246v.358h-.28v-.113zm1.266-.443v-.666l.876-.767v1.987h-.88v-.555zm1.915 0v-2.342l1.108-.97v3.87h-1.108v-.555zm-1.038-8.64v2.573l-.876.5v-3.324l.876-.69v.94zm2.146 1.35l-1.108.63v-1.98h1.108v1.35zm-9.507 5.42l-.296.165-.584.245v-8.614h.877v8.2zm11.63 1.87v.555H25.5v-4.756l1.11-.97v5.172zm0-8.5l-1.11.63v-3.258h1.11v2.627zm-6.415-.14h.28v3.634l-.28.16v-3.795zm-4.18 0h1.107v5.546l-1.108.63v-6.18zm-3.18 0h.278v7.538l-.28.095v-7.63zm12.193-3.5c-.26 0-.47.227-.47.507v1.98H23.28v-.927c0-.19-.1-.365-.26-.45-.157-.087-.348-.07-.49.042l-.758.597v-2.905h3.35v1.157h-.095z" fill="#206FAC"/><path d="M31.516 107.766c-.28 0-.4-.05-.568-.12l-.164-.066.022-.214c0-.56-.423-1.012-.943-1.012h-2.31v-5.997l2.53-2.214c.375-.33.457-.91.188-1.344-.265-.437-.8-.58-1.224-.337l-1.49.85V94.72c0-.28-.21-.506-.47-.506H26.07V92.55c0-1.774-1.567-3.204-2.148-3.673V87.69c.14-.09.228-.254.228-.432 0-.184-.095-.355-.246-.444l-.026-.015-.014-.03c-.083-.16-.24-.264-.414-.264-.172 0-.33.1-.414.262l-.014.026-.026.014c-.15.09-.245.26-.245.445 0 .177.09.34.23.432v1.187c-.125.103-.3.25-.494.44h-.32c.05-.16.08-.328.08-.506 0-.836-.634-1.517-1.414-1.517H15.22c-.345 0-.677.136-.936.38-.303.29-.48.704-.48 1.14 0 .433.177.85.48 1.135.26.245.593.38.937.38h1.555l-.03.287c0 .37.15.726.41.973.223.21.507.324.8.324h2.95c-.043.206-.068.42-.068.636v4.15h-.64v-1.98c0-.28-.21-.507-.47-.507h-.555v-1.23c0-.28-.21-.505-.472-.505-.26 0-.472.227-.472.506v1.23h-.554c-.26 0-.472.226-.472.506v1.98h-1.28v-.927c0-.28-.21-.507-.47-.507h-1.82c-.262 0-.473.227-.473.506v.927h-.795c-.26 0-.472.227-.472.506v8.415c-.253.07-.523.135-.804.2l-.39-19.363c-.006-.204-.067-.4-.177-.567l-1.21-1.81c-.176-.264-.46-.422-.764-.423h-.004c-.303 0-.587.155-.764.418L6.55 85.887c-.113.167-.175.366-.18.57l-.026 1.327h-3.22c-.166 0-.3-.144-.3-.32 0-.178.134-.322.3-.322.26 0 .47-.227.47-.506s-.21-.506-.47-.506c-.686 0-1.243.597-1.243 1.332 0 .734.56 1.332 1.246 1.332H6.33l-.01.504H4.602c-.26 0-.472.227-.472.506s.214.505.475.505h1.693l-.324 16.035H2.918c-.52 0-.943.453-.943 1.012 0 .14.027.274.076.397l-.1.002c-.28 0-.4-.05-.566-.12-.2-.085-.45-.19-.91-.19-.26 0-.472.227-.472.506s.21.506.473.506c.28 0 .4.05.567.12.2.083.45.19.91.19s.71-.107.91-.19c.166-.07.286-.12.567-.12.28 0 .4.05.566.12.202.083.452.19.91.19.46 0 .71-.107.912-.19.166-.07.287-.12.568-.12.28 0 .4.05.567.12.204.083.454.19.91.19.46 0 .71-.107.914-.19.167-.07.287-.12.568-.12.28 0 .4.05.57.12.2.083.45.19.91.19s.71-.107.91-.19c.166-.07.286-.12.567-.12.28 0 .4.05.566.12.202.083.453.19.91.19s.71-.107.912-.19c.167-.07.287-.12.567-.12.28 0 .4.05.568.12.2.083.453.19.91.19.46 0 .71-.107.913-.19.166-.07.287-.12.567-.12.28 0 .4.05.566.12.2.083.453.19.91.19s.71-.107.91-.19c.168-.07.288-.12.57-.12.28 0 .4.05.567.12.202.083.452.19.91.19s.71-.107.912-.19c.166-.07.286-.12.567-.12.28 0 .4.05.568.12.203.083.454.19.91.19.46 0 .71-.107.913-.19.167-.07.287-.12.568-.12.28 0 .4.05.57.12.2.083.45.19.91.19s.71-.107.912-.19c.167-.07.288-.12.57-.12.28 0 .4.05.567.12.2.083.45.19.91.19.26 0 .472-.23.472-.508s-.21-.506-.472-.506zm-23.33-17.45l.07-3.494.282-.418.276.414.39 19.357c-.433.06-.882.108-1.342.14l.323-16zm9.496.3c0-.112.057-.182.09-.215.036-.03.095-.07.178-.07h.002c.26 0 .472-.225.472-.504s-.21-.506-.472-.506h-2.738c-.146 0-.25-.07-.31-.128-.105-.097-.162-.232-.162-.38 0-.145.057-.28.16-.377.087-.082.198-.127.312-.127h5.613c.26 0 .472.227.472.506s-.216.507-.476.507-.472.228-.472.507h-.002c0 .28.21.506.473.506h.788c-.123.18-.24.37-.346.573H17.95c-.083 0-.14-.04-.176-.072-.034-.03-.09-.102-.09-.214zm4.19 1.298c.053-.173.123-.343.207-.505.09-.18.192-.35.305-.51.107-.15.22-.29.335-.423l.34-.363.36-.328.028-.024c.454.385 1.366 1.26 1.612 2.28h-3.226l.037-.132zm-2.624 3.312v6.823l-1.108.63v-7.457h1.108zm.006 9.11l.466-.266.006-.003.466-.265.006-.004.28-.16.042-.023.43-.244.042-.02.43-.245.038-.02-.038.032-.43.377-.042.037-.43.376-.042.037-.28.245-.006.004-.466.41-.006.004-.466.407-.006.005-1.18 1.034-.35.304h-2.004l.207-.118.1-.054 1.107-.63.073-.04.4-.23.07-.04.4-.228.072-.04 1.11-.633.006-.003zm.943 2.46l.28-.246v.358h-.28v-.113zm1.266-.443v-.666l.876-.767v1.987h-.88v-.555zm1.915 0v-2.342l1.108-.97v3.87h-1.108v-.555zm-1.038-8.64v2.573l-.876.5V97.46l.876-.69v.94zm2.146 1.35l-1.108.63v-1.98h1.108v1.35zm-9.507 5.42l-.296.165-.584.245V96.28h.877v8.202zm11.63 1.87v.555H25.5v-4.756l1.11-.97v5.172zm0-8.5l-1.11.63v-3.258h1.11v2.627zm-6.415-.14h.28v3.634l-.28.16V97.71zm-4.18 0h1.107v5.546l-1.108.63v-6.18zm-3.18 0h.278v7.538l-.28.095v-7.63zm12.193-3.5c-.26 0-.47.227-.47.507v1.98H23.28v-.927c0-.19-.1-.365-.26-.45-.157-.087-.348-.07-.49.042l-.758.597v-2.905h3.35v1.157h-.095z" fill="#fff"/><path d="M31.516 67.766c-.28 0-.4-.05-.568-.12l-.164-.066.022-.214c0-.56-.423-1.012-.943-1.012h-2.31v-5.997l2.53-2.214c.375-.33.457-.91.188-1.344-.265-.437-.8-.58-1.224-.337l-1.49.85V54.72c0-.28-.21-.506-.47-.506H26.07V52.55c0-1.774-1.567-3.204-2.148-3.673V47.69c.14-.09.228-.254.228-.432 0-.184-.095-.355-.246-.444l-.026-.015-.014-.03c-.083-.16-.24-.264-.414-.264-.172 0-.33.1-.414.262l-.014.026-.026.014c-.15.09-.245.26-.245.445 0 .177.09.34.23.432v1.187c-.125.103-.3.25-.494.44h-.32c.05-.16.08-.328.08-.506 0-.836-.634-1.517-1.414-1.517H15.22c-.345 0-.677.136-.936.38-.303.29-.48.704-.48 1.14 0 .433.177.85.48 1.135.26.245.593.38.937.38h1.555l-.03.287c0 .37.15.726.41.973.223.21.507.324.8.324h2.95c-.043.206-.068.42-.068.636v4.15h-.64v-1.98c0-.28-.21-.507-.47-.507h-.555v-1.23c0-.28-.21-.505-.472-.505-.26 0-.472.227-.472.506v1.23h-.554c-.26 0-.472.226-.472.506v1.98h-1.28v-.927c0-.28-.21-.507-.47-.507h-1.82c-.262 0-.473.227-.473.506v.927h-.795c-.26 0-.472.227-.472.506v8.415c-.253.07-.523.135-.804.2l-.39-19.363c-.006-.204-.067-.4-.177-.567l-1.21-1.81c-.176-.264-.46-.422-.764-.423h-.004c-.303 0-.587.155-.764.418L6.55 45.887c-.113.167-.175.366-.18.57l-.026 1.327h-3.22c-.166 0-.3-.144-.3-.32 0-.178.134-.322.3-.322.26 0 .47-.227.47-.506s-.21-.506-.47-.506c-.686 0-1.243.597-1.243 1.332 0 .734.56 1.332 1.246 1.332H6.33l-.01.504H4.602c-.26 0-.472.227-.472.506s.214.505.475.505h1.693l-.324 16.035H2.918c-.52 0-.943.453-.943 1.012 0 .14.027.274.076.397l-.1.002c-.28 0-.4-.05-.566-.12-.2-.085-.45-.19-.91-.19-.26 0-.472.227-.472.506s.21.506.473.506c.28 0 .4.05.567.12.2.083.45.19.91.19s.71-.107.91-.19c.166-.07.286-.12.567-.12.28 0 .4.05.566.12.202.083.452.19.91.19.46 0 .71-.107.912-.19.166-.07.287-.12.568-.12.28 0 .4.05.567.12.204.083.454.19.91.19.46 0 .71-.107.914-.19.167-.07.287-.12.568-.12.28 0 .4.05.57.12.2.083.45.19.91.19s.71-.107.91-.19c.166-.07.286-.12.567-.12.28 0 .4.05.566.12.202.083.453.19.91.19s.71-.107.912-.19c.167-.07.287-.12.567-.12.28 0 .4.05.568.12.2.083.453.19.91.19.46 0 .71-.107.913-.19.166-.07.287-.12.567-.12.28 0 .4.05.566.12.2.083.453.19.91.19s.71-.107.91-.19c.168-.07.288-.12.57-.12.28 0 .4.05.567.12.202.083.452.19.91.19s.71-.107.912-.19c.166-.07.286-.12.567-.12.28 0 .4.05.568.12.203.083.454.19.91.19.46 0 .71-.107.913-.19.167-.07.287-.12.568-.12.28 0 .4.05.57.12.2.083.45.19.91.19s.71-.107.912-.19c.167-.07.288-.12.57-.12.28 0 .4.05.567.12.2.083.45.19.91.19.26 0 .472-.23.472-.508s-.21-.506-.472-.506zm-23.33-17.45l.07-3.494.282-.418.276.414.39 19.357c-.433.06-.882.108-1.342.14l.323-16zm9.496.3c0-.112.057-.182.09-.215.036-.03.095-.07.178-.07h.002c.26 0 .472-.225.472-.504s-.21-.506-.472-.506h-2.738c-.146 0-.25-.07-.31-.128-.105-.097-.162-.232-.162-.38 0-.145.057-.28.16-.377.087-.082.198-.127.312-.127h5.613c.26 0 .472.227.472.506s-.216.507-.476.507-.472.228-.472.507h-.002c0 .28.21.506.473.506h.788c-.123.18-.24.37-.346.573H17.95c-.083 0-.14-.04-.176-.072-.034-.03-.09-.102-.09-.214zm4.19 1.298c.053-.173.123-.343.207-.505.09-.18.192-.35.305-.51.107-.15.22-.29.335-.423l.34-.363.36-.328.028-.024c.454.385 1.366 1.26 1.612 2.28h-3.226l.037-.132zm-2.624 3.312v6.823l-1.108.63v-7.457h1.108zm.006 9.11l.466-.266.006-.003.466-.265.006-.004.28-.16.042-.023.43-.244.042-.02.43-.245.038-.02-.038.032-.43.377-.042.037-.43.376-.042.037-.28.245-.006.004-.466.41-.006.004-.466.407-.006.005-1.18 1.034-.35.304h-2.004l.207-.118.1-.054 1.107-.63.073-.04.4-.23.07-.04.4-.228.072-.04 1.11-.633.006-.003zm.943 2.46l.28-.246v.358h-.28v-.113zm1.266-.443v-.666l.876-.767v1.987h-.88v-.555zm1.915 0V64.01l1.108-.97v3.867h-1.108v-.555zm-1.038-8.64v2.573l-.876.5V57.46l.876-.69v.94zm2.146 1.35l-1.108.63v-1.98h1.108v1.35zm-9.507 5.42l-.296.165-.584.245V56.28h.877v8.202zm11.63 1.87v.555H25.5v-4.756l1.11-.97v5.172zm0-8.5l-1.11.63v-3.258h1.11v2.627zm-6.415-.14h.28v3.634l-.28.16V57.71zm-4.18 0h1.107v5.546l-1.108.63v-6.18zm-3.18 0h.278v7.538l-.28.095v-7.63zm12.193-3.5c-.26 0-.47.227-.47.507v1.98H23.28v-.927c0-.19-.1-.365-.26-.45-.157-.087-.348-.07-.49.042l-.758.597v-2.905h3.35v1.157h-.095z" fill="#67737B"/><path d="M31.516 27.766c-.28 0-.4-.05-.568-.12l-.164-.066.022-.214c0-.56-.423-1.012-.943-1.012h-2.31v-5.997l2.53-2.214c.375-.33.457-.91.188-1.344-.265-.437-.8-.58-1.224-.337l-1.49.85V14.72c0-.28-.21-.506-.47-.506H26.07V12.55c0-1.774-1.567-3.204-2.148-3.673V7.69c.14-.09.228-.254.228-.432 0-.184-.095-.355-.246-.444l-.026-.015-.014-.03c-.083-.16-.24-.264-.414-.264-.172 0-.33.1-.414.262l-.014.026-.026.014c-.15.09-.245.26-.245.445 0 .177.09.34.23.432v1.187c-.125.103-.3.25-.494.44h-.32c.05-.16.08-.328.08-.506 0-.836-.634-1.517-1.414-1.517H15.22c-.345 0-.677.136-.936.38-.303.29-.48.704-.48 1.14 0 .433.177.85.48 1.135.26.245.593.38.937.38h1.555l-.03.287c0 .37.15.726.41.973.223.21.507.324.8.324h2.95c-.043.206-.068.42-.068.636v4.15h-.64v-1.98c0-.28-.21-.507-.47-.507h-.555v-1.23c0-.28-.21-.505-.472-.505-.26 0-.472.227-.472.506v1.23h-.554c-.26 0-.472.226-.472.506v1.98h-1.28v-.927c0-.28-.21-.507-.47-.507h-1.82c-.262 0-.473.227-.473.506v.927h-.795c-.26 0-.472.227-.472.506v8.415c-.253.07-.523.135-.804.2L10.7 6.455c-.006-.204-.067-.4-.177-.567L9.31 4.08c-.176-.264-.46-.422-.764-.423h-.003c-.303 0-.587.155-.764.418L6.55 5.887c-.113.167-.175.366-.18.57l-.02 1.328H3.123c-.165 0-.3-.144-.3-.32 0-.178.135-.322.3-.322.26 0 .472-.227.472-.506s-.21-.506-.472-.506c-.685 0-1.242.6-1.242 1.335 0 .734.56 1.332 1.246 1.332H6.33l-.01.504H4.602c-.26 0-.472.227-.472.506s.214.505.475.505h1.693l-.324 16.04H2.918c-.52 0-.943.452-.943 1.01 0 .14.027.276.076.4h-.1c-.28 0-.4-.05-.566-.12-.2-.083-.45-.19-.91-.19-.26 0-.472.23-.472.508s.21.506.473.506c.28 0 .4.05.567.12.2.084.45.19.91.19s.71-.106.91-.19c.166-.07.286-.12.567-.12.28 0 .4.05.566.12.202.084.452.19.91.19.46 0 .71-.106.912-.19.166-.07.287-.12.568-.12.28 0 .4.05.567.12.204.084.454.19.91.19.46 0 .71-.106.914-.19.167-.07.287-.12.568-.12.28 0 .4.05.57.12.2.084.45.19.91.19s.71-.106.91-.19c.166-.07.286-.12.567-.12.28 0 .4.05.566.12.202.084.453.19.91.19s.71-.106.912-.19c.167-.07.287-.12.567-.12.28 0 .4.05.568.12.2.084.453.19.91.19.46 0 .71-.106.913-.19.166-.07.287-.12.567-.12.28 0 .4.05.566.12.2.084.453.19.91.19s.71-.106.91-.19c.168-.07.288-.12.57-.12.28 0 .4.05.567.12.202.084.452.19.91.19s.71-.106.912-.19c.166-.07.286-.12.567-.12.28 0 .4.05.568.12.203.084.454.19.91.19.46 0 .71-.106.913-.19.167-.07.287-.12.568-.12.28 0 .4.05.57.12.2.084.45.19.91.19s.71-.106.912-.19c.167-.07.288-.12.57-.12.28 0 .4.05.567.12.2.084.45.19.91.19.26 0 .472-.228.472-.507s-.21-.506-.472-.506zm-23.33-17.45l.07-3.494.282-.418.276.414.39 19.357c-.433.06-.882.108-1.342.14l.323-16zm9.496.3c0-.112.057-.182.09-.215.036-.03.095-.07.178-.07h.002c.26 0 .472-.225.472-.504s-.21-.506-.472-.506h-2.738c-.146 0-.25-.07-.31-.128-.105-.097-.162-.232-.162-.38 0-.145.057-.28.16-.377.087-.082.198-.127.312-.127h5.613c.26 0 .472.227.472.506s-.216.507-.476.507-.472.228-.472.507h-.002c0 .28.21.506.473.506h.788c-.123.18-.24.37-.346.573H17.95c-.083 0-.14-.04-.176-.072-.034-.03-.09-.102-.09-.214zm4.19 1.298c.053-.173.123-.343.207-.505.09-.18.192-.35.305-.51.107-.15.22-.29.335-.423l.34-.363.36-.328.028-.024c.454.385 1.366 1.26 1.612 2.28h-3.226l.037-.132zm-2.624 3.312v6.823l-1.108.63v-7.457h1.108zm.006 9.11l.466-.266.006-.003.466-.265.006-.004.28-.16.042-.023.43-.244.042-.02.43-.245.038-.02-.038.032-.43.377-.042.037-.43.376-.042.037-.28.245-.006.004-.466.41-.006.004-.466.407-.006.005-1.18 1.034-.35.304h-2.004l.207-.118.1-.054 1.107-.63.073-.04.4-.23.07-.04.4-.228.072-.04 1.11-.633.006-.003zm.943 2.46l.28-.246v.358h-.28v-.113zm1.266-.443v-.666l.876-.767v1.987h-.88v-.555zm1.915 0V24.01l1.108-.97v3.867h-1.108v-.555zm-1.038-8.64v2.573l-.876.5V17.46l.876-.69v.94zm2.146 1.35l-1.108.63v-1.98h1.108v1.35zm-9.507 5.42l-.296.165-.584.245V16.28h.877v8.202zm11.63 1.87v.555H25.5v-4.756l1.11-.97v5.172zm0-8.5l-1.11.63v-3.258h1.11v2.627zm-6.415-.14h.28v3.634l-.28.16V17.71zm-4.18 0h1.107v5.546l-1.108.63v-6.18zm-3.18 0h.278v7.538l-.28.095v-7.63zm12.193-3.5c-.26 0-.47.227-.47.507v1.98H23.28v-.927c0-.19-.1-.365-.26-.45-.157-.087-.348-.07-.49.042l-.758.597v-2.905h3.35v1.157h-.095z" fill="#3A434E"/></g></svg>