<svg width="32" height="232" viewBox="0 0 32 232" xmlns="http://www.w3.org/2000/svg"><title>argentina</title><desc>Created with Sketch.</desc><g fill="none"><path d="M10.9 137.49c.103 0 .206-.032.297-.1l1.635-1.22c.24-.18.3-.536.137-.798-.165-.262-.492-.33-.73-.15l-1.636 1.22c-.24.18-.3.537-.137.8.102.16.266.25.434.25zm-7.13-4.008c-.24.18-.3.536-.137.798l1.117 1.787c.102.162.267.25.434.25.102 0 .205-.033.296-.1.24-.18.3-.536.137-.798L4.5 133.632c-.164-.262-.49-.33-.73-.15zm-2.483 5.278l2.078.427.098.01c.248 0 .47-.192.516-.47.052-.31-.135-.61-.42-.67l-2.08-.425c-.284-.058-.56.147-.613.458-.054.312.134.612.42.67zm6.852-6.103l-.392 2.272c-.054.31.134.61.42.67l.097.01c.247 0 .468-.193.516-.47l.392-2.27c.054-.313-.134-.612-.42-.672-.285-.058-.56.147-.613.46zM10.8 134c-.242-.176-.567-.104-.727.16l-.74 1.225c-.16.264-.092.62.15.795.09.065.19.095.29.095.17 0 .337-.09.438-.258l.74-1.224c.16-.265.094-.62-.148-.795zm-8.136 2.647l1.12.808c.088.064.19.095.288.095.17 0 .338-.09.44-.258.16-.265.092-.62-.15-.795l-1.12-.808c-.242-.176-.567-.103-.727.16-.16.266-.093.622.15.797zm3.642-3.598c-.284.063-.467.366-.41.677l.27 1.437c.05.272.27.46.514.46l.106-.013c.284-.063.468-.366.41-.676l-.27-1.437c-.058-.31-.335-.51-.62-.448zM4 129.817c.31-.284.75-.288 1.06-.036l.01.025c.088.203.273.332.477.332h.063c.204 0 .39-.13.476-.333l.01-.025c.312-.252.753-.247 1.062.036.222.204.553.173.74-.07.187-.244.158-.606-.064-.81-.653-.6-1.57-.637-2.255-.16-.686-.477-1.603-.44-2.257.16-.222.204-.25.566-.065.81.186.242.518.274.74.07zm5.216-2.005h1.825l-.004.11c0 .36.142.704.39.942.21.203.48.314.76.314h3.842c.634 0 1.15-.565 1.15-1.258s-.516-1.257-1.15-1.257h-.11l.028-.3c0-.796-.594-1.445-1.323-1.445H9.218c-.322 0-.632.13-.874.362-.285.275-.45.67-.45 1.084 0 .415.164.81.45 1.085.242.235.553.363.874.363zm-.18-1.67c.036-.034.096-.075.18-.075h5.405c.15 0 .274.134.274.298 0 .165-.122.3-.273.3-.29 0-.524.256-.524.573h-.003c0 .316.235.573.525.573h1.408c.055 0 .1.05.1.11s-.045.108-.1.108h-3.84l-.067-.027-.036-.08.035-.083.064-.028h.002c.29 0 .526-.257.526-.574 0-.317-.235-.574-.526-.574H9.214c-.084 0-.144-.04-.18-.075-.034-.035-.092-.11-.092-.225s.058-.19.093-.223zm22.36 19.41c-.6 0-.925.17-1.187.304-.22.113-.377.194-.742.194l-.295-.023c.08-.333.024-.702-.183-.995l-1.4-1.983c-.11-.156-.253-.277-.418-.355l-2.73-1.277c0-.592.06-1.363.27-2.247.36-1.485.948-2.456 1.252-2.886 1.07.15 3.66.583 5.192 1.442.077.043.158.064.24.064.153 0 .303-.073.406-.21.157-.21.16-.51.006-.72-.062-.087-1.514-2.05-4.068-2.17.984-.674 2.188-1.4 3.2-1.713.24-.073.398-.32.382-.588-.015-.27-.2-.492-.445-.532-.023-.004-.238-.038-.58-.038-.824 0-2.59.21-4.054 1.788l-.053-.265c-.267-1.21-.99-2.9-2.92-4.083-.216-.132-.485-.083-.65.117-.163.2-.18.498-.036.716.018.028 1.512 2.333 2.312 4.45-.257-.054-.55-.09-.87-.09-1.19 0-2.307.516-3.227 1.495-.177.188-.21.483-.082.712.098.173.27.273.447.273l.17-.03c.022-.01 1.92-.72 3.51-.885-.37.61-.838 1.565-1.15 2.86-.164.68-.247 1.302-.283 1.845l-1.07-.9c-.18-.15-.403-.235-.63-.237l-1.57-.01c.035-.598.012-1.468-.236-2.5-.26-1.074-.65-1.863-.954-2.362 1.61-.663 3.923-.917 3.95-.92.244-.027.44-.235.47-.502.03-.266-.113-.52-.344-.61-.592-.232-1.184-.35-1.76-.35-.783 0-1.448.213-1.983.49.648-1.412 1.49-2.71 1.5-2.73.143-.218.128-.515-.036-.715-.166-.2-.435-.25-.65-.117-1.466.897-2.142 2.214-2.405 3.38-1.176-1.174-2.55-1.332-3.203-1.332-.283 0-.463.028-.483.032-.246.04-.43.262-.446.532-.015.27.143.514.38.588.93.287 2.064 1.012 2.9 1.608-2.324.593-3.16 2.797-3.198 2.905-.092.252-.01.538.194.69.09.065.192.098.294.098.132 0 .263-.054.363-.16.933-.977 2.676-1.904 3.532-2.326.25.4.62 1.1.86 2.093.226.94.233 1.715.2 2.206-.507 0-.92.005-1.06.016-.15.01-.563.043-1.503.74l-1.887-.685c-.107-.038-.218-.058-.33-.058h-3.587l-.264.037-3.055.868-.215.09-3.18 1.784c-.135.075-.253.18-.346.31l-1.882 2.61c-.11.15-.178.323-.208.5-.24-.115-.548-.23-1.042-.23-.29 0-.525.258-.525.575 0 .318.235.575.525.575.364 0 .522.08.74.193.263.135.59.302 1.19.302s.925-.168 1.187-.302c.217-.112.375-.193.74-.193s.522.08.74.193c.263.135.59.302 1.19.302s.925-.168 1.187-.303c.218-.112.376-.193.74-.193.365 0 .522.08.74.193.263.135.59.303 1.19.303s.925-.168 1.187-.302c.218-.112.376-.193.74-.193s.523.08.742.193c.262.135.588.302 1.188.302s.926-.168 1.188-.302c.218-.112.376-.193.74-.193s.523.08.742.193c.262.135.588.302 1.188.302s.926-.168 1.188-.302c.218-.112.376-.193.74-.193s.524.08.742.193c.262.135.59.302 1.188.302.6 0 .926-.168 1.188-.302.218-.112.376-.193.74-.193s.523.08.742.193c.262.135.59.302 1.19.302s.925-.168 1.188-.302c.218-.112.376-.193.74-.193l.063.002c.194.132.42.192.643.172l.038.02c.263.134.59.3 1.19.3s.926-.167 1.188-.3c.22-.113.376-.194.74-.194.292 0 .527-.257.527-.574 0-.317-.235-.575-.526-.575zm-5.046.304c-.218.113-.376.194-.74.194s-.524-.08-.742-.193c-.262-.135-.588-.303-1.188-.303s-.926.168-1.188.303c-.218.113-.376.194-.74.194-.365 0-.524-.08-.742-.193-.262-.135-.588-.303-1.19-.303-.598 0-.925.168-1.187.303-.218.113-.376.194-.74.194-.365 0-.523-.08-.742-.193-.26-.135-.587-.303-1.187-.303s-.926.168-1.188.303c-.218.113-.376.194-.74.194-.365 0-.523-.08-.742-.193-.262-.135-.588-.303-1.188-.303s-.926.168-1.188.303c-.218.113-.376.194-.74.194s-.523-.08-.742-.193c-.262-.135-.588-.303-1.188-.303s-.926.168-1.188.303c-.22.113-.377.194-.742.194-.364 0-.522-.08-.74-.193-.263-.135-.59-.303-1.19-.303l-.13.003.914-1.264 2.874-1.612 2.81-.798h3.283l2.233.81c.327.117.687.053.963-.174.325-.267.738-.555.92-.643.378-.01 1.754-.008 3.085.003l1.467 1.233.227.147 3.057 1.43.692.978c-.173.057-.31.127-.434.19z" fill="#206FAC"/><path d="M10.9 97.49c.103 0 .206-.032.297-.1l1.635-1.22c.24-.18.3-.536.137-.798-.165-.262-.492-.33-.73-.15l-1.636 1.22c-.24.18-.3.537-.137.8.102.16.266.25.434.25zm-7.13-4.008c-.24.18-.3.536-.137.798l1.117 1.787c.102.162.267.25.434.25.102 0 .205-.033.296-.1.24-.18.3-.536.137-.798L4.5 93.632c-.164-.262-.49-.33-.73-.15zM1.287 98.76l2.078.427.098.01c.248 0 .47-.192.516-.47.052-.31-.135-.61-.42-.67l-2.08-.425c-.284-.058-.56.147-.613.458-.054.312.134.612.42.67zm6.852-6.103l-.392 2.272c-.054.31.134.61.42.67l.097.01c.247 0 .468-.193.516-.47l.392-2.27c.054-.313-.134-.612-.42-.672-.285-.058-.56.147-.613.46zM10.8 94c-.242-.176-.567-.104-.727.16l-.74 1.225c-.16.264-.092.62.15.795.09.065.19.095.29.095.17 0 .337-.09.438-.258l.74-1.224c.16-.265.094-.62-.148-.795zm-8.136 2.647l1.12.808c.088.064.19.095.288.095.17 0 .338-.09.44-.258.16-.265.092-.62-.15-.795l-1.12-.808c-.242-.176-.567-.103-.727.16-.16.266-.093.622.15.797zm3.642-3.598c-.284.063-.467.366-.41.677l.27 1.437c.05.272.27.46.514.46l.106-.013c.284-.063.468-.366.41-.676l-.27-1.437c-.058-.31-.335-.51-.62-.448zM4 89.817c.31-.284.75-.288 1.06-.036l.01.025c.088.203.273.332.477.332h.063c.204 0 .39-.13.476-.333l.01-.025c.312-.252.753-.247 1.062.036.222.204.553.173.74-.07.187-.244.158-.606-.064-.81-.653-.6-1.57-.637-2.255-.16-.686-.477-1.603-.44-2.257.16-.222.204-.25.566-.065.81.186.242.518.274.74.07zm5.216-2.005h1.825l-.004.11c0 .36.142.704.39.942.21.203.48.314.76.314h3.842c.634 0 1.15-.565 1.15-1.258s-.516-1.257-1.15-1.257h-.11l.028-.3c0-.796-.594-1.445-1.323-1.445H9.218c-.322 0-.632.13-.874.362-.285.275-.45.67-.45 1.084 0 .415.164.81.45 1.085.242.235.553.363.874.363zm-.18-1.67c.036-.034.096-.075.18-.075h5.405c.15 0 .274.134.274.298 0 .165-.122.3-.273.3-.29 0-.524.256-.524.573h-.003c0 .316.235.573.525.573h1.408c.055 0 .1.05.1.11s-.045.108-.1.108h-3.84l-.067-.027-.036-.08.035-.083.064-.028h.002c.29 0 .526-.257.526-.574 0-.317-.235-.574-.526-.574H9.214c-.084 0-.144-.04-.18-.075-.034-.035-.092-.11-.092-.225s.058-.19.093-.223zm22.36 19.41c-.6 0-.925.17-1.187.304-.22.113-.377.194-.742.194l-.295-.023c.08-.333.024-.702-.183-.995l-1.4-1.983c-.11-.156-.253-.277-.418-.355l-2.73-1.277c0-.592.06-1.363.27-2.247.36-1.485.948-2.456 1.252-2.886 1.07.15 3.66.583 5.192 1.442.077.043.158.064.24.064.153 0 .303-.073.406-.21.157-.21.16-.51.006-.72-.062-.087-1.514-2.05-4.068-2.17.984-.674 2.188-1.4 3.2-1.713.24-.073.398-.32.382-.588-.015-.27-.2-.492-.445-.532-.023-.004-.238-.038-.58-.038-.824 0-2.59.21-4.054 1.788l-.053-.265c-.267-1.21-.99-2.9-2.92-4.083-.216-.132-.485-.083-.65.117-.163.2-.18.498-.036.716.018.028 1.512 2.333 2.312 4.45-.257-.054-.55-.09-.87-.09-1.19 0-2.307.516-3.227 1.495-.177.188-.21.483-.082.712.098.173.27.273.447.273l.17-.03c.022-.01 1.92-.72 3.51-.885-.37.61-.838 1.565-1.15 2.86-.164.68-.247 1.302-.283 1.845l-1.07-.9c-.18-.15-.403-.235-.63-.237l-1.57-.01c.035-.598.012-1.468-.236-2.5-.26-1.074-.65-1.863-.954-2.362 1.61-.663 3.923-.917 3.95-.92.244-.027.44-.235.47-.502.03-.266-.113-.52-.344-.61-.592-.232-1.184-.35-1.76-.35-.783 0-1.448.213-1.983.49.648-1.412 1.49-2.71 1.5-2.73.143-.218.128-.515-.036-.715-.166-.2-.435-.25-.65-.117-1.466.897-2.142 2.214-2.405 3.38-1.176-1.174-2.55-1.332-3.203-1.332-.283 0-.463.028-.483.032-.246.04-.43.262-.446.532-.015.27.143.514.38.588.93.287 2.064 1.012 2.9 1.608-2.324.593-3.16 2.797-3.198 2.905-.092.252-.01.538.194.69.09.065.192.098.294.098.132 0 .263-.054.363-.16.933-.977 2.676-1.904 3.532-2.326.25.4.62 1.1.86 2.093.226.94.233 1.715.2 2.206-.507 0-.92.005-1.06.016-.15.01-.563.043-1.503.74l-1.887-.685c-.107-.038-.218-.058-.33-.058h-3.587l-.264.037-3.055.868-.215.09-3.18 1.784c-.135.075-.253.18-.346.31l-1.882 2.61c-.11.15-.178.323-.208.5-.24-.115-.548-.23-1.042-.23-.29 0-.525.258-.525.575 0 .318.235.575.525.575.364 0 .522.08.74.193.263.135.59.302 1.19.302s.925-.168 1.187-.302c.217-.112.375-.193.74-.193s.522.08.74.193c.263.135.59.302 1.19.302s.925-.168 1.187-.303c.218-.112.376-.193.74-.193.365 0 .522.08.74.193.263.135.59.303 1.19.303s.925-.168 1.187-.302c.218-.112.376-.193.74-.193s.523.08.742.193c.262.135.588.302 1.188.302s.926-.168 1.188-.302c.218-.112.376-.193.74-.193s.523.08.742.193c.262.135.588.302 1.188.302s.926-.168 1.188-.302c.218-.112.376-.193.74-.193s.524.08.742.193c.262.135.59.302 1.188.302.6 0 .926-.168 1.188-.302.218-.112.376-.193.74-.193s.523.08.742.193c.262.135.59.302 1.19.302s.925-.168 1.188-.302c.218-.112.376-.193.74-.193l.063.002c.194.132.42.192.643.172l.038.02c.263.134.59.3 1.19.3s.926-.167 1.188-.3c.22-.113.376-.194.74-.194.292 0 .527-.257.527-.574 0-.317-.235-.575-.526-.575zm-5.046.304c-.218.113-.376.194-.74.194s-.524-.08-.742-.193c-.262-.135-.588-.303-1.188-.303s-.926.168-1.188.303c-.218.113-.376.194-.74.194-.365 0-.524-.08-.742-.193-.262-.135-.588-.303-1.19-.303-.598 0-.925.168-1.187.303-.218.113-.376.194-.74.194-.365 0-.523-.08-.742-.193-.26-.135-.587-.303-1.187-.303s-.926.168-1.188.303c-.218.113-.376.194-.74.194-.365 0-.523-.08-.742-.193-.262-.135-.588-.303-1.188-.303s-.926.168-1.188.303c-.218.113-.376.194-.74.194s-.523-.08-.742-.193c-.262-.135-.588-.303-1.188-.303s-.926.168-1.188.303c-.22.113-.377.194-.742.194-.364 0-.522-.08-.74-.193-.263-.135-.59-.303-1.19-.303l-.13.003.914-1.264 2.874-1.612 2.81-.798h3.283l2.233.81c.327.117.687.053.963-.174.325-.267.738-.555.92-.643.378-.01 1.754-.008 3.085.003l1.467 1.233.227.147 3.057 1.43.692.978c-.173.057-.31.127-.434.19z" fill="#fff"/><path d="M10.9 57.49c.103 0 .206-.032.297-.1l1.635-1.22c.24-.18.3-.536.137-.798-.165-.262-.492-.33-.73-.15l-1.636 1.22c-.24.18-.3.537-.137.8.102.16.266.25.434.25zm-7.13-4.008c-.24.18-.3.536-.137.798l1.117 1.787c.102.162.267.25.434.25.102 0 .205-.033.296-.1.24-.18.3-.536.137-.798L4.5 53.632c-.164-.262-.49-.33-.73-.15zM1.287 58.76l2.078.427.098.01c.248 0 .47-.192.516-.47.052-.31-.135-.61-.42-.67l-2.08-.425c-.284-.058-.56.147-.613.458-.054.312.134.612.42.67zm6.852-6.103l-.392 2.272c-.054.31.134.61.42.67l.097.01c.247 0 .468-.193.516-.47l.392-2.27c.054-.313-.134-.612-.42-.672-.285-.058-.56.147-.613.46zM10.8 54c-.242-.176-.567-.104-.727.16l-.74 1.225c-.16.264-.092.62.15.795.09.065.19.095.29.095.17 0 .337-.09.438-.258l.74-1.224c.16-.265.094-.62-.148-.795zm-8.136 2.647l1.12.808c.088.064.19.095.288.095.17 0 .338-.09.44-.258.16-.265.092-.62-.15-.795l-1.12-.808c-.242-.176-.567-.103-.727.16-.16.266-.093.622.15.797zm3.642-3.598c-.284.063-.467.366-.41.677l.27 1.437c.05.272.27.46.514.46l.106-.013c.284-.063.468-.366.41-.676l-.27-1.437c-.058-.31-.335-.51-.62-.448zM4 49.817c.31-.284.75-.288 1.06-.036l.01.025c.088.203.273.332.477.332h.063c.204 0 .39-.13.476-.333l.01-.025c.312-.252.753-.247 1.062.036.222.204.553.173.74-.07.187-.244.158-.606-.064-.81-.653-.6-1.57-.637-2.255-.16-.686-.477-1.603-.44-2.257.16-.222.204-.25.566-.065.81.186.242.518.274.74.07zm5.216-2.005h1.825l-.004.11c0 .36.142.704.39.942.21.203.48.314.76.314h3.842c.634 0 1.15-.565 1.15-1.258s-.516-1.257-1.15-1.257h-.11l.028-.3c0-.796-.594-1.445-1.323-1.445H9.218c-.322 0-.632.13-.874.362-.285.275-.45.67-.45 1.084 0 .415.164.81.45 1.085.242.235.553.363.874.363zm-.18-1.67c.036-.034.096-.075.18-.075h5.405c.15 0 .274.134.274.298 0 .165-.122.3-.273.3-.29 0-.524.256-.524.573h-.003c0 .316.235.573.525.573h1.408c.055 0 .1.05.1.11s-.045.108-.1.108h-3.84l-.067-.027-.036-.08.035-.083.064-.028h.002c.29 0 .526-.257.526-.574 0-.317-.235-.574-.526-.574H9.214c-.084 0-.144-.04-.18-.075-.034-.035-.092-.11-.092-.225s.058-.19.093-.223zm22.36 19.41c-.6 0-.925.17-1.187.304-.22.113-.377.194-.742.194l-.295-.023c.08-.333.024-.702-.183-.995l-1.4-1.983c-.11-.156-.253-.277-.418-.355l-2.73-1.277c0-.592.06-1.363.27-2.247.36-1.485.948-2.456 1.252-2.886 1.07.15 3.66.583 5.192 1.442.077.043.158.064.24.064.153 0 .303-.073.406-.21.157-.21.16-.51.006-.72-.062-.087-1.514-2.05-4.068-2.17.984-.674 2.188-1.4 3.2-1.713.24-.073.398-.32.382-.588-.015-.27-.2-.492-.445-.532-.023-.004-.238-.038-.58-.038-.824 0-2.59.21-4.054 1.788l-.053-.265c-.267-1.21-.99-2.9-2.92-4.083-.216-.132-.485-.083-.65.117-.163.2-.18.498-.036.716.018.028 1.512 2.333 2.312 4.45-.257-.054-.55-.09-.87-.09-1.19 0-2.307.516-3.227 1.495-.177.188-.21.483-.082.712.098.173.27.273.447.273l.17-.03c.022-.01 1.92-.72 3.51-.885-.37.61-.838 1.565-1.15 2.86-.164.68-.247 1.302-.283 1.845l-1.07-.9c-.18-.15-.403-.235-.63-.237l-1.57-.01c.035-.598.012-1.468-.236-2.5-.26-1.074-.65-1.863-.954-2.362 1.61-.663 3.923-.917 3.95-.92.244-.027.44-.235.47-.502.03-.266-.113-.52-.344-.61-.592-.232-1.184-.35-1.76-.35-.783 0-1.448.213-1.983.49.648-1.412 1.49-2.71 1.5-2.73.143-.218.128-.515-.036-.715-.166-.2-.435-.25-.65-.117-1.466.897-2.142 2.214-2.405 3.38-1.176-1.174-2.55-1.332-3.203-1.332-.283 0-.463.028-.483.032-.246.04-.43.262-.446.532-.015.27.143.514.38.588.93.287 2.064 1.012 2.9 1.608-2.324.593-3.16 2.797-3.198 2.905-.092.252-.01.538.194.69.09.065.192.098.294.098.132 0 .263-.054.363-.16.933-.977 2.676-1.904 3.532-2.326.25.4.62 1.1.86 2.093.226.94.233 1.715.2 2.206-.507 0-.92.005-1.06.016-.15.01-.563.043-1.503.74l-1.887-.685c-.107-.038-.218-.058-.33-.058h-3.587l-.264.037-3.055.868-.215.09-3.18 1.784c-.135.075-.253.18-.346.31l-1.882 2.61c-.11.15-.178.323-.208.5-.24-.115-.548-.23-1.042-.23-.29 0-.525.258-.525.575 0 .318.235.575.525.575.364 0 .522.08.74.193.263.135.59.302 1.19.302s.925-.168 1.187-.302c.217-.112.375-.193.74-.193s.522.08.74.193c.263.135.59.302 1.19.302s.925-.168 1.187-.303c.218-.112.376-.193.74-.193.365 0 .522.08.74.193.263.135.59.303 1.19.303s.925-.168 1.187-.302c.218-.112.376-.193.74-.193s.523.08.742.193c.262.135.588.302 1.188.302s.926-.168 1.188-.302c.218-.112.376-.193.74-.193s.523.08.742.193c.262.135.588.302 1.188.302s.926-.168 1.188-.302c.218-.112.376-.193.74-.193s.524.08.742.193c.262.135.59.302 1.188.302.6 0 .926-.168 1.188-.302.218-.112.376-.193.74-.193s.523.08.742.193c.262.135.59.302 1.19.302s.925-.168 1.188-.302c.218-.112.376-.193.74-.193l.063.002c.194.132.42.192.643.172l.038.02c.263.134.59.3 1.19.3s.926-.167 1.188-.3c.22-.113.376-.194.74-.194.292 0 .527-.257.527-.574 0-.317-.235-.575-.526-.575zm-5.046.304c-.218.113-.376.194-.74.194s-.524-.08-.742-.193c-.262-.135-.588-.303-1.188-.303s-.926.168-1.188.303c-.218.113-.376.194-.74.194-.365 0-.524-.08-.742-.193-.262-.135-.588-.303-1.19-.303-.598 0-.925.168-1.187.303-.218.113-.376.194-.74.194-.365 0-.523-.08-.742-.193-.26-.135-.587-.303-1.187-.303s-.926.168-1.188.303c-.218.113-.376.194-.74.194-.365 0-.523-.08-.742-.193-.262-.135-.588-.303-1.188-.303s-.926.168-1.188.303c-.218.113-.376.194-.74.194s-.523-.08-.742-.193c-.262-.135-.588-.303-1.188-.303s-.926.168-1.188.303c-.22.113-.377.194-.742.194-.364 0-.522-.08-.74-.193-.263-.135-.59-.303-1.19-.303l-.13.003.914-1.264 2.874-1.612 2.81-.798h3.283l2.233.81c.327.117.687.053.963-.174.325-.267.738-.555.92-.643.378-.01 1.754-.008 3.085.003l1.467 1.233.227.147 3.057 1.43.692.978c-.173.057-.31.127-.434.19z" fill="#67737B"/><path d="M10.9 17.49c.103 0 .206-.032.297-.1l1.635-1.22c.24-.18.3-.536.137-.798-.165-.262-.492-.33-.73-.15l-1.636 1.22c-.24.18-.3.537-.137.8.102.16.266.25.434.25zm-7.13-4.008c-.24.18-.3.536-.137.798l1.117 1.787c.102.162.267.25.434.25.102 0 .205-.033.296-.1.24-.18.3-.536.137-.798L4.5 13.632c-.164-.262-.49-.33-.73-.15zM1.287 18.76l2.078.427.098.01c.248 0 .47-.192.516-.47.052-.31-.135-.61-.42-.67l-2.08-.425c-.284-.058-.56.147-.613.458-.054.312.134.612.42.67zm6.852-6.103l-.392 2.272c-.054.31.134.61.42.67l.097.01c.247 0 .468-.193.516-.47l.392-2.27c.054-.313-.134-.612-.42-.672-.285-.058-.56.147-.613.46zM10.8 14c-.242-.176-.567-.104-.727.16l-.74 1.225c-.16.264-.092.62.15.795.09.065.19.095.29.095.17 0 .337-.09.438-.258l.74-1.224c.16-.265.094-.62-.148-.795zm-8.136 2.647l1.12.808c.088.064.19.095.288.095.17 0 .338-.09.44-.258.16-.265.092-.62-.15-.795l-1.12-.808c-.242-.176-.567-.103-.727.16-.16.266-.093.622.15.797zm3.642-3.598c-.284.063-.467.366-.41.677l.27 1.437c.05.272.27.46.514.46l.106-.013c.284-.063.468-.366.41-.676l-.27-1.437c-.058-.31-.335-.51-.62-.448zM4 9.817c.31-.284.75-.288 1.06-.036l.01.025c.088.203.273.332.477.332h.063c.204 0 .39-.13.476-.333l.01-.025c.312-.252.753-.247 1.062.036.222.204.553.173.74-.07.187-.244.158-.606-.064-.81-.653-.6-1.57-.637-2.255-.16-.686-.477-1.603-.44-2.257.16-.222.204-.25.566-.065.81.186.242.518.274.74.07zm5.216-2.005h1.825l-.004.11c0 .36.142.704.39.942.21.203.48.314.76.314h3.842c.634 0 1.15-.565 1.15-1.258s-.516-1.257-1.15-1.257h-.11l.028-.3c0-.796-.594-1.445-1.323-1.445H9.218c-.322 0-.632.13-.874.362-.285.275-.45.67-.45 1.084 0 .415.164.81.45 1.085.242.235.553.363.874.363zm-.18-1.67c.036-.034.096-.075.18-.075h5.405c.15 0 .274.134.274.298 0 .165-.122.3-.273.3-.29 0-.524.256-.524.573h-.003c0 .316.235.573.525.573h1.408c.055 0 .1.05.1.11s-.045.108-.1.108h-3.84l-.067-.027-.036-.08.035-.083.064-.028h.002c.29 0 .526-.257.526-.574 0-.317-.235-.574-.526-.574H9.214c-.084 0-.144-.04-.18-.075-.034-.035-.092-.11-.092-.225s.058-.19.093-.223zm22.36 19.41c-.6 0-.925.17-1.187.304-.22.113-.377.194-.742.194l-.295-.023c.08-.333.024-.702-.183-.995l-1.4-1.983c-.11-.156-.253-.277-.418-.355l-2.73-1.277c0-.592.06-1.363.27-2.247.36-1.485.948-2.456 1.252-2.886 1.07.15 3.66.583 5.192 1.442.077.043.158.064.24.064.153 0 .303-.073.406-.21.157-.21.16-.51.006-.72-.062-.087-1.514-2.05-4.068-2.17.984-.674 2.188-1.4 3.2-1.713.24-.073.398-.32.382-.588-.015-.27-.2-.492-.445-.532-.023-.004-.238-.038-.58-.038-.824 0-2.59.21-4.054 1.788l-.053-.265c-.267-1.21-.99-2.9-2.92-4.083-.216-.132-.485-.083-.65.117-.163.2-.18.498-.036.716.018.028 1.512 2.333 2.312 4.45-.257-.054-.55-.09-.87-.09-1.19 0-2.307.516-3.227 1.495-.177.188-.21.483-.082.712.098.173.27.273.447.273l.17-.03c.022-.01 1.92-.72 3.51-.885-.37.61-.838 1.565-1.15 2.86-.164.68-.247 1.302-.283 1.845l-1.07-.9c-.18-.15-.403-.235-.63-.237l-1.57-.01c.035-.598.012-1.468-.236-2.5-.26-1.074-.65-1.863-.954-2.362 1.61-.663 3.923-.917 3.95-.92.244-.027.44-.235.47-.502.03-.266-.113-.52-.344-.61-.592-.232-1.184-.35-1.76-.35-.783 0-1.448.213-1.983.49.648-1.412 1.49-2.71 1.5-2.73.143-.218.128-.515-.036-.715-.166-.2-.435-.25-.65-.117-1.466.897-2.142 2.214-2.405 3.38-1.176-1.174-2.55-1.332-3.203-1.332-.283 0-.463.028-.483.032-.246.04-.43.262-.446.532-.015.27.143.514.38.588.93.287 2.064 1.012 2.9 1.608-2.324.593-3.16 2.797-3.198 2.905-.092.252-.01.538.194.69.09.065.192.098.294.098.132 0 .263-.054.363-.16.933-.977 2.676-1.904 3.532-2.326.25.4.62 1.1.86 2.093.226.94.233 1.715.2 2.206-.507 0-.92.005-1.06.016-.15.01-.563.043-1.503.74l-1.887-.685c-.107-.038-.218-.058-.33-.058h-3.587l-.264.037-3.055.868-.215.09-3.18 1.784c-.135.075-.253.18-.346.31l-1.882 2.61c-.11.15-.178.323-.208.5-.24-.115-.548-.23-1.042-.23-.29 0-.525.258-.525.575 0 .318.235.575.525.575.364 0 .522.08.74.193.263.135.59.302 1.19.302s.925-.168 1.187-.302c.217-.112.375-.193.74-.193s.522.08.74.193c.263.135.59.302 1.19.302s.925-.168 1.187-.303c.218-.112.376-.193.74-.193.365 0 .522.08.74.193.263.135.59.303 1.19.303s.925-.168 1.187-.302c.218-.112.376-.193.74-.193s.523.08.742.193c.262.135.588.302 1.188.302s.926-.168 1.188-.302c.218-.112.376-.193.74-.193s.523.08.742.193c.262.135.588.302 1.188.302s.926-.168 1.188-.302c.218-.112.376-.193.74-.193s.524.08.742.193c.262.135.59.302 1.188.302.6 0 .926-.168 1.188-.302.218-.112.376-.193.74-.193s.523.08.742.193c.262.135.59.302 1.19.302s.925-.168 1.188-.302c.218-.112.376-.193.74-.193l.063.002c.194.132.42.192.643.172l.038.02c.263.134.59.3 1.19.3s.926-.167 1.188-.3c.22-.113.376-.194.74-.194.292 0 .527-.257.527-.574 0-.317-.235-.575-.526-.575zm-5.046.304c-.218.113-.376.194-.74.194s-.524-.08-.742-.193c-.262-.135-.588-.303-1.188-.303s-.926.168-1.188.303c-.218.113-.376.194-.74.194-.365 0-.524-.08-.742-.193-.262-.135-.588-.303-1.19-.303-.598 0-.925.168-1.187.303-.218.113-.376.194-.74.194-.365 0-.523-.08-.742-.193-.26-.135-.587-.303-1.187-.303s-.926.168-1.188.303c-.218.113-.376.194-.74.194-.365 0-.523-.08-.742-.193-.262-.135-.588-.303-1.188-.303s-.926.168-1.188.303c-.218.113-.376.194-.74.194s-.523-.08-.742-.193c-.262-.135-.588-.303-1.188-.303s-.926.168-1.188.303c-.22.113-.377.194-.742.194-.364 0-.522-.08-.74-.193-.263-.135-.59-.303-1.19-.303l-.13.003.914-1.264 2.874-1.612 2.81-.798h3.283l2.233.81c.327.117.687.053.963-.174.325-.267.738-.555.92-.643.378-.01 1.754-.008 3.085.003l1.467 1.233.227.147 3.057 1.43.692.978c-.173.057-.31.127-.434.19z" fill="#3A434E"/></g></svg>