<svg width="32" height="232" viewBox="0 0 32 232" xmlns="http://www.w3.org/2000/svg" xmlns:sketch="http://www.bohemiancoding.com/sketch/ns"><title>atacama-desert-chile</title><desc>Created with Sketch.</desc><g sketch:type="MSPage" fill="none"><g sketch:type="MSShapeGroup"><path d="M10.525 122.896c.139 0 .272-.057.37-.158.099-.101.154-.239.154-.382 0-.143-.056-.281-.155-.382-.098-.1-.231-.157-.37-.157-.138 0-.271.056-.369.157-.099.101-.155.239-.155.383 0 .143.055.28.153.381.098.101.232.158.371.158zm4.211 3.201c.139 0 .272-.057.37-.158.098-.101.154-.239.154-.382 0-.143-.056-.281-.155-.382-.098-.1-.231-.157-.37-.157-.138 0-.271.056-.37.157-.099.101-.155.239-.155.383 0 .143.055.28.153.381.098.101.232.158.371.158zm5.647-1.573c.139 0 .272-.057.37-.158.098-.101.154-.239.154-.382 0-.143-.056-.281-.155-.382-.098-.1-.231-.157-.37-.157-.138 0-.271.056-.369.157-.099.101-.155.239-.155.382 0 .143.055.28.153.381.098.101.232.158.371.158zm1.457-3.602c.098.102.233.159.372.159.139 0 .272-.057.37-.158.159-.164.199-.415.098-.622-.077-.158-.224-.266-.391-.292-.162-.025-.331.031-.447.151-.161.164-.201.417-.098.626l.096.136zm2.382 2.129c.139 0 .272-.057.37-.158.098-.101.154-.239.153-.382 0-.143-.056-.281-.155-.382-.098-.1-.231-.157-.37-.157-.138 0-.271.056-.37.157-.099.101-.155.239-.155.383 0 .143.055.28.153.381.098.101.232.158.371.158zm-19.066 1.406l.436.245.238.448c.092.173.268.28.46.28s.368-.107.46-.28l.238-.448.436-.245c.168-.094.273-.275.273-.472 0-.197-.104-.378-.273-.472l-.436-.245-.238-.448c-.092-.173-.268-.28-.46-.28s-.368.107-.46.28l-.238.448-.435.245c-.168.094-.273.276-.273.472 0 .197.104.378.273.472zm9.982-2.475l.436.245.238.448c.092.173.268.28.46.28.191 0 .368-.107.46-.28l.238-.448.436-.245c.168-.094.273-.276.273-.472 0-.197-.104-.378-.273-.472l-.436-.245-.238-.448c-.092-.173-.268-.28-.46-.28s-.368.107-.46.28l-.238.448-.436.245c-.168.094-.272.276-.272.472 0 .197.104.378.272.472zm16.244 8.785h-.177l-.114-.135-1.507-1.251-.751-1.75-.022-.045c-.231-.425-.571-.969-.878-1.142-.162-.103-1.057-.878-1.829-1.569-.125-.112-.294-.156-.456-.12l-1.544.347-.197.091-1.281.96-1.303-.353c-.207-.056-.426.023-.553.198l-1.249 1.719-.971.718h-.819c-.094 0-.186.026-.267.075l-.865.525h-2.444l-.835-.451-.297-.696c-.109-.256-.392-.384-.649-.293l-2.339.822-1.406-.277-1.448-.773c-.155-.083-.341-.081-.494.006l-1.936 1.096-1.236.344c-.082.023-.157.065-.219.124l-.803.763-.015.015-.715.735-.916.314h-.155c-.289 0-.524.241-.524.538 0 .297.234.538.524.538h30.688c.289 0 .524-.241.524-.538 0-.297-.234-.538-.524-.538zm-28.168-.279l.701-.666 1.173-.326.116-.048 1.746-.989 1.267.677.143.051 1.618.318c.089.018.182.011.268-.019l2.014-.708.177.415c.048.112.131.204.236.26l1.112.6c.075.041.159.062.244.062h2.717c.094 0 .186-.026.267-.075l.865-.525h.845c.11 0 .217-.036.306-.101l1.173-.868.114-.115 1.085-1.494 1.202.326c.153.041.315.01.442-.086l1.393-1.045 1.179-.265c.632.563 1.531 1.349 1.789 1.508.09.079.313.411.48.716l.792 1.845c.034.078.085.147.15.201l.759.63h-26.644l.272-.279zm7.113 8.993h.002c.289 0 .524-.241.524-.538v-2.46l.096.004c.631 0 1.144-.527 1.144-1.175v-1.135c0-.297-.234-.539-.524-.539-.289 0-.524.241-.524.539v1.135c0 .054-.043.099-.096.099-.053 0-.096-.044-.096-.099l-.004-.039v-2.491c0-.297-.234-.538-.524-.538-.289 0-.524.241-.524.538v3.114c0 .054-.043.098-.096.098-.053 0-.096-.044-.096-.098v-1.547c0-.297-.234-.538-.524-.538-.289 0-.524.241-.524.538v1.547c0 .648.513 1.175 1.144 1.175l.1-.005v1.338h-1.088c-.289 0-.524.241-.524.538 0 .297.235.538.524.538h1.61zm-3.654-2.562c-.289 0-.524.241-.524.538v1.552c0 .183-.145.332-.323.332-.178 0-.323-.149-.323-.332l-.005-.052v-3.406c0-.297-.234-.538-.524-.538-.289 0-.524.241-.524.538v4.258c0 .183-.145.332-.323.332-.178 0-.323-.149-.323-.332v-2.115c0-.297-.234-.538-.524-.538-.289 0-.524.241-.524.538v2.115c0 .777.615 1.409 1.371 1.409.113 0 .223-.016.329-.043v2.261h-1.68c-.289 0-.524.241-.524.538 0 .297.234.538.524.538h2.205c.289 0 .524-.241.524-.538v-3.595c.104.026.212.04.323.04.756 0 1.371-.632 1.371-1.409v-1.552c0-.297-.235-.538-.524-.538zm13.736 2.865c-1.391 0-3.476.829-5.576 2.218-1.407.93-2.63 1.993-3.442 2.992-1.365 1.678-1.2 2.75-.822 3.354.246.392.759.86 1.809.86.86 0 1.985-.318 3.215-.888v.357c-.724.518-1.238 1.323-1.383 2.255h-3.104c-.289 0-.524.241-.524.538 0 .297.234.538.524.538h9.156c.289 0 .524-.241.524-.538 0-1.156-.565-2.179-1.425-2.793v-2.711c.809-.647 1.509-1.321 2.035-1.968 1.364-1.678 1.2-2.75.822-3.354-.246-.393-.759-.86-1.81-.86zm-2.843 11.148h-2.289c.095-.409.296-.775.57-1.068.173-.185.376-.341.6-.46.309-.163.659-.257 1.03-.257s.721.094 1.03.257c.224.119.427.274.6.46.274.294.476.66.57 1.069h-2.11zm.747-2.752c-.267-.072-.548-.11-.837-.11-.289 0-.569.038-.836.11v-.394c.433-.24.873-.505 1.314-.797l.359-.244v1.434zm-1.493-3.002l-.242.156c-.339.217-.668.411-.985.585-1.309.716-2.406 1.077-3.06 1.128.342-.618 1.355-1.861 3.432-3.234 1.84-1.217 3.437-1.802 4.287-1.869-.341.617-1.355 1.86-3.432 3.234zm13.236-12.447c-.955 0-2.463.604-3.934 1.577-1.005.665-1.877 1.422-2.454 2.131-.901 1.108-.813 1.782-.581 2.152.147.235.46.514 1.117.514.62 0 1.472-.256 2.396-.7v.374c-.477.365-.823.9-.953 1.518h-2.185c-.289 0-.524.241-.524.538 0 .297.234.538.524.538h2.61l.043.004h3.947c.289 0 .524-.241.524-.538v-.006c-.002-.84-.399-1.587-1.009-2.054v-1.907c0-.128-.045-.244-.118-.336.444-.379.83-.766 1.133-1.139.901-1.108.813-1.782.581-2.152-.147-.234-.46-.514-1.117-.514zm-1.528 4.68v.902c-.143-.026-.29-.041-.44-.041-.15 0-.297.015-.44.041v-.477l.49-.309.173-.117h.217zm-1.79 2.886c.057-.15.138-.287.236-.409.213-.263.511-.449.851-.513l.263-.026.263.026c.34.064.638.251.851.513.098.122.179.259.236.408h-2.7zm1.251-3.962l-.418.288-.396.251-.051.031-.524.3c-1.048.564-1.92.825-2.397.825l-.226-.028c.016-.323.776-1.507 2.711-2.786 1.469-.971 2.749-1.406 3.367-1.406l.226.028c-.015.299-.667 1.333-2.294 2.498zm-7.791-1.754c.703-.864.62-1.413.427-1.721-.125-.2-.387-.438-.925-.438-.721 0-1.804.431-2.896 1.153-.732.484-1.368 1.036-1.79 1.555-.703.864-.62 1.413-.427 1.721.125.2.387.438.925.438.399 0 .909-.132 1.469-.372-.259.245-.452.561-.551.919h-1.449c-.289 0-.524.241-.524.538 0 .297.235.538.524.538h1.868l.03.003h2.825c.289 0 .524-.241.524-.538v-.006c-.002-.622-.284-1.178-.722-1.542v-1.291l-.041-.208c.283-.25.533-.504.733-.749zm-2.621 3.255c.162-.225.422-.372.715-.372s.553.147.715.372h-1.43zm.881-1.44l-.166-.009-.166.009v-.08l.282-.179.05-.034v.294zm-.285-1.396l-.332.23c-.266.176-.522.326-.763.452-.662.348-1.21.516-1.528.529.166-.336.747-1.022 1.821-1.732.995-.658 1.856-.964 2.29-.981-.148.3-.627.877-1.488 1.501z" fill="#206FAC"/><path d="M10.525 82.896c.139 0 .272-.057.37-.158.099-.101.154-.239.154-.382 0-.143-.056-.281-.155-.382-.098-.1-.231-.157-.37-.157-.138 0-.271.056-.369.157-.099.101-.155.239-.155.383 0 .143.055.28.153.381.098.101.232.158.371.158zm4.211 3.201c.139 0 .272-.057.37-.158.098-.101.154-.239.154-.382 0-.143-.056-.281-.155-.382-.098-.1-.231-.157-.37-.157-.138 0-.271.056-.37.157-.099.101-.155.239-.155.383 0 .143.055.28.153.381.098.101.232.158.371.158zm5.647-1.573c.139 0 .272-.057.37-.158.098-.101.154-.239.154-.382 0-.143-.056-.281-.155-.382-.098-.1-.231-.157-.37-.157-.138 0-.271.056-.369.157-.099.101-.155.239-.155.382 0 .143.055.28.153.381.098.101.232.158.371.158zm1.457-3.602c.098.102.233.159.372.159.139 0 .272-.057.37-.158.159-.164.199-.415.098-.622-.077-.158-.224-.266-.391-.292-.162-.025-.331.031-.447.151-.161.164-.201.417-.098.626l.096.136zm2.382 2.129c.139 0 .272-.057.37-.158.098-.101.154-.239.153-.382 0-.143-.056-.281-.155-.382-.098-.1-.231-.157-.37-.157-.138 0-.271.056-.37.157-.099.101-.155.239-.155.383 0 .143.055.28.153.381.098.101.232.158.371.158zm-19.066 1.406l.436.245.238.448c.092.173.268.28.46.28s.368-.107.46-.28l.238-.448.436-.245c.168-.094.273-.275.273-.472 0-.197-.104-.378-.273-.472l-.436-.245-.238-.448c-.092-.173-.268-.28-.46-.28s-.368.107-.46.28l-.238.448-.435.245c-.168.094-.273.276-.273.472 0 .197.104.378.273.472zm9.982-2.475l.436.245.238.448c.092.173.268.28.46.28.191 0 .368-.107.46-.28l.238-.448.436-.245c.168-.094.273-.276.273-.472 0-.197-.104-.378-.273-.472l-.436-.245-.238-.448c-.092-.173-.268-.28-.46-.28s-.368.107-.46.28l-.238.448-.436.245c-.168.094-.272.276-.272.472 0 .197.104.378.272.472zm16.244 8.785h-.177l-.114-.135-1.507-1.251-.751-1.75-.022-.045c-.231-.425-.571-.969-.878-1.142-.162-.103-1.057-.878-1.829-1.569-.125-.112-.294-.156-.456-.12l-1.544.347-.197.091-1.281.96-1.303-.353c-.207-.056-.426.023-.553.198l-1.249 1.719-.971.718h-.819c-.094 0-.186.026-.267.075l-.865.525h-2.444l-.835-.451-.297-.696c-.109-.256-.392-.384-.649-.293l-2.339.822-1.406-.277-1.448-.773c-.155-.083-.341-.081-.494.006l-1.936 1.096-1.236.344c-.082.023-.157.065-.219.124l-.803.763-.015.015-.715.735-.916.314h-.155c-.289 0-.524.241-.524.538 0 .297.234.538.524.538h30.688c.289 0 .524-.241.524-.538 0-.297-.234-.538-.524-.538zm-28.168-.279l.701-.666 1.173-.326.116-.048 1.746-.989 1.267.677.143.051 1.618.318c.089.018.182.011.268-.019l2.014-.708.177.415c.048.112.131.204.236.26l1.112.6c.075.041.159.062.244.062h2.717c.094 0 .186-.026.267-.075l.865-.525h.845c.11 0 .217-.036.306-.101l1.173-.868.114-.115 1.085-1.494 1.202.326c.153.041.315.01.442-.086l1.393-1.045 1.179-.265c.632.563 1.531 1.349 1.789 1.508.09.079.313.411.48.716l.792 1.845c.034.078.085.147.15.201l.759.63h-26.644l.272-.279zm7.113 8.993h.002c.289 0 .524-.241.524-.538v-2.46l.096.004c.631 0 1.144-.527 1.144-1.175v-1.135c0-.297-.234-.539-.524-.539-.289 0-.524.241-.524.539v1.135c0 .054-.043.099-.096.099-.053 0-.096-.044-.096-.099l-.004-.039v-2.491c0-.297-.234-.538-.524-.538-.289 0-.524.241-.524.538v3.114c0 .054-.043.098-.096.098-.053 0-.096-.044-.096-.098v-1.547c0-.297-.234-.538-.524-.538-.289 0-.524.241-.524.538v1.547c0 .648.513 1.175 1.144 1.175l.1-.005v1.338h-1.088c-.289 0-.524.241-.524.538 0 .297.235.538.524.538h1.61zm-3.654-2.562c-.289 0-.524.241-.524.538v1.552c0 .183-.145.332-.323.332-.178 0-.323-.149-.323-.332l-.005-.052v-3.406c0-.297-.234-.538-.524-.538-.289 0-.524.241-.524.538v4.258c0 .183-.145.332-.323.332-.178 0-.323-.149-.323-.332v-2.115c0-.297-.234-.538-.524-.538-.289 0-.524.241-.524.538v2.115c0 .777.615 1.409 1.371 1.409.113 0 .223-.016.329-.043v2.261h-1.68c-.289 0-.524.241-.524.538 0 .297.234.538.524.538h2.205c.289 0 .524-.241.524-.538v-3.595c.104.026.212.04.323.04.756 0 1.371-.632 1.371-1.409v-1.552c0-.297-.235-.538-.524-.538zm13.736 2.865c-1.391 0-3.476.829-5.576 2.218-1.407.93-2.63 1.993-3.442 2.992-1.365 1.678-1.2 2.75-.822 3.354.246.392.759.86 1.809.86.86 0 1.985-.318 3.215-.888v.357c-.724.518-1.238 1.323-1.383 2.255h-3.104c-.289 0-.524.241-.524.538 0 .297.234.538.524.538h9.156c.289 0 .524-.241.524-.538 0-1.156-.565-2.179-1.425-2.793v-2.711c.809-.647 1.509-1.321 2.035-1.968 1.364-1.678 1.2-2.75.822-3.354-.246-.393-.759-.86-1.81-.86zm-2.843 11.148h-2.289c.095-.409.296-.775.57-1.068.173-.185.376-.341.6-.46.309-.163.659-.257 1.03-.257s.721.094 1.03.257c.224.119.427.274.6.46.274.294.476.66.57 1.069h-2.11zm.747-2.752c-.267-.072-.548-.11-.837-.11-.289 0-.569.038-.836.11v-.394c.433-.24.873-.505 1.314-.797l.359-.244v1.434zm-1.493-3.002l-.242.156c-.339.217-.668.411-.985.585-1.309.716-2.406 1.077-3.06 1.128.342-.618 1.355-1.861 3.432-3.234 1.84-1.217 3.437-1.802 4.287-1.869-.341.617-1.355 1.86-3.432 3.234zm13.236-12.447c-.955 0-2.463.604-3.934 1.577-1.005.665-1.877 1.422-2.454 2.131-.901 1.108-.813 1.782-.581 2.152.147.235.46.514 1.117.514.62 0 1.472-.256 2.396-.7v.374c-.477.365-.823.9-.953 1.518h-2.185c-.289 0-.524.241-.524.538 0 .297.234.538.524.538h2.61l.043.004h3.947c.289 0 .524-.241.524-.538v-.006c-.002-.84-.399-1.587-1.009-2.054v-1.907c0-.128-.045-.244-.118-.336.444-.379.83-.766 1.133-1.139.901-1.108.813-1.782.581-2.152-.147-.234-.46-.514-1.117-.514zm-1.528 4.68v.902c-.143-.026-.29-.041-.44-.041-.15 0-.297.015-.44.041v-.477l.49-.309.173-.117h.217zm-1.79 2.886c.057-.15.138-.287.236-.409.213-.263.511-.449.851-.513l.263-.026.263.026c.34.064.638.251.851.513.098.122.179.259.236.408h-2.7zm1.251-3.962l-.418.288-.396.251-.051.031-.524.3c-1.048.564-1.92.825-2.397.825l-.226-.028c.016-.323.776-1.507 2.711-2.786 1.469-.971 2.749-1.406 3.367-1.406l.226.028c-.015.299-.667 1.333-2.294 2.498zm-7.791-1.754c.703-.864.62-1.413.427-1.721-.125-.2-.387-.438-.925-.438-.721 0-1.804.431-2.896 1.153-.732.484-1.368 1.036-1.79 1.555-.703.864-.62 1.413-.427 1.721.125.2.387.438.925.438.399 0 .909-.132 1.469-.372-.259.245-.452.561-.551.919h-1.449c-.289 0-.524.241-.524.538 0 .297.235.538.524.538h1.868l.03.003h2.825c.289 0 .524-.241.524-.538v-.006c-.002-.622-.284-1.178-.722-1.542v-1.291l-.041-.208c.283-.25.533-.504.733-.749zm-2.621 3.255c.162-.225.422-.372.715-.372s.553.147.715.372h-1.43zm.881-1.44l-.166-.009-.166.009v-.08l.282-.179.05-.034v.294zm-.285-1.396l-.332.23c-.266.176-.522.326-.763.452-.662.348-1.21.516-1.528.529.166-.336.747-1.022 1.821-1.732.995-.658 1.856-.964 2.29-.981-.148.3-.627.877-1.488 1.501z" fill="#fff"/><path d="M10.525 42.896c.139 0 .272-.057.37-.158.099-.101.154-.239.154-.382 0-.143-.056-.281-.155-.382-.098-.1-.231-.157-.37-.157-.138 0-.271.056-.369.157-.099.101-.155.239-.155.383 0 .143.055.28.153.381.098.101.232.158.371.158zm4.211 3.201c.139 0 .272-.057.37-.158.098-.101.154-.239.154-.382 0-.143-.056-.281-.155-.382-.098-.1-.231-.157-.37-.157-.138 0-.271.056-.37.157-.099.101-.155.239-.155.383 0 .143.055.28.153.381.098.101.232.158.371.158zm5.647-1.573c.139 0 .272-.057.37-.158.098-.101.154-.239.154-.382 0-.143-.056-.281-.155-.382-.098-.1-.231-.157-.37-.157-.138 0-.271.056-.369.157-.099.101-.155.239-.155.382 0 .143.055.28.153.381.098.101.232.158.371.158zm1.457-3.602c.098.102.233.159.372.159.139 0 .272-.057.37-.158.159-.164.199-.415.098-.622-.077-.158-.224-.266-.391-.292-.162-.025-.331.031-.447.151-.161.164-.201.417-.098.626l.096.136zm2.382 2.129c.139 0 .272-.057.37-.158.098-.101.154-.239.153-.382 0-.143-.056-.281-.155-.382-.098-.1-.231-.157-.37-.157-.138 0-.271.056-.37.157-.099.101-.155.239-.155.383 0 .143.055.28.153.381.098.101.232.158.371.158zm-19.066 1.406l.436.245.238.448c.092.173.268.28.46.28s.368-.107.46-.28l.238-.448.436-.245c.168-.094.273-.275.273-.472 0-.197-.104-.378-.273-.472l-.436-.245-.238-.448c-.092-.173-.268-.28-.46-.28s-.368.107-.46.28l-.238.448-.435.245c-.168.094-.273.276-.273.472 0 .197.104.378.273.472zm9.982-2.475l.436.245.238.448c.092.173.268.28.46.28.191 0 .368-.107.46-.28l.238-.448.436-.245c.168-.094.273-.276.273-.472 0-.197-.104-.378-.273-.472l-.436-.245-.238-.448c-.092-.173-.268-.28-.46-.28s-.368.107-.46.28l-.238.448-.436.245c-.168.094-.272.276-.272.472 0 .197.104.378.272.472zm16.244 8.785h-.177l-.114-.135-1.507-1.251-.751-1.75-.022-.045c-.231-.425-.571-.969-.878-1.142-.162-.103-1.057-.878-1.829-1.569-.125-.112-.294-.156-.456-.12l-1.544.347-.197.091-1.281.96-1.303-.353c-.207-.056-.426.023-.553.198l-1.249 1.719-.971.718h-.819c-.094 0-.186.026-.267.075l-.865.525h-2.444l-.835-.451-.297-.696c-.109-.256-.392-.384-.649-.293l-2.339.822-1.406-.277-1.448-.773c-.155-.083-.341-.081-.494.006l-1.936 1.096-1.236.344c-.082.023-.157.065-.219.124l-.803.763-.015.015-.715.735-.916.314h-.155c-.289 0-.524.241-.524.538 0 .297.234.538.524.538h30.688c.289 0 .524-.241.524-.538 0-.297-.234-.538-.524-.538zm-28.168-.279l.701-.666 1.173-.326.116-.048 1.746-.989 1.267.677.143.051 1.618.318c.089.018.182.011.268-.019l2.014-.708.177.415c.048.112.131.204.236.26l1.112.6c.075.041.159.062.244.062h2.717c.094 0 .186-.026.267-.075l.865-.525h.845c.11 0 .217-.036.306-.101l1.173-.868.114-.115 1.085-1.494 1.202.326c.153.041.315.01.442-.086l1.393-1.045 1.179-.265c.632.563 1.531 1.349 1.789 1.508.09.079.313.411.48.716l.792 1.845c.034.078.085.147.15.201l.759.63h-26.644l.272-.279zm7.113 8.993h.002c.289 0 .524-.241.524-.538v-2.46l.096.004c.631 0 1.144-.527 1.144-1.175v-1.135c0-.297-.234-.539-.524-.539-.289 0-.524.241-.524.539v1.135c0 .054-.043.099-.096.099-.053 0-.096-.044-.096-.099l-.004-.039v-2.491c0-.297-.234-.538-.524-.538-.289 0-.524.241-.524.538v3.114c0 .054-.043.098-.096.098-.053 0-.096-.044-.096-.098v-1.547c0-.297-.234-.538-.524-.538-.289 0-.524.241-.524.538v1.547c0 .648.513 1.175 1.144 1.175l.1-.005v1.338h-1.088c-.289 0-.524.241-.524.538 0 .297.235.538.524.538h1.61zm-3.654-2.562c-.289 0-.524.241-.524.538v1.552c0 .183-.145.332-.323.332-.178 0-.323-.149-.323-.332l-.005-.052v-3.406c0-.297-.234-.538-.524-.538-.289 0-.524.241-.524.538v4.258c0 .183-.145.332-.323.332-.178 0-.323-.149-.323-.332v-2.115c0-.297-.234-.538-.524-.538-.289 0-.524.241-.524.538v2.115c0 .777.615 1.409 1.371 1.409.113 0 .223-.016.329-.043v2.261h-1.68c-.289 0-.524.241-.524.538 0 .297.234.538.524.538h2.205c.289 0 .524-.241.524-.538v-3.595c.104.026.212.04.323.04.756 0 1.371-.632 1.371-1.409v-1.552c0-.297-.235-.538-.524-.538zm13.736 2.865c-1.391 0-3.476.829-5.576 2.218-1.407.93-2.63 1.993-3.442 2.992-1.365 1.678-1.2 2.75-.822 3.354.246.392.759.86 1.809.86.86 0 1.985-.318 3.215-.888v.357c-.724.518-1.238 1.323-1.383 2.255h-3.104c-.289 0-.524.241-.524.538 0 .297.234.538.524.538h9.156c.289 0 .524-.241.524-.538 0-1.156-.565-2.179-1.425-2.793v-2.711c.809-.647 1.509-1.321 2.035-1.968 1.364-1.678 1.2-2.75.822-3.354-.246-.393-.759-.86-1.81-.86zm-2.843 11.148h-2.289c.095-.409.296-.775.57-1.068.173-.185.376-.341.6-.46.309-.163.659-.257 1.03-.257s.721.094 1.03.257c.224.119.427.274.6.46.274.294.476.66.57 1.069h-2.11zm.747-2.752c-.267-.072-.548-.11-.837-.11-.289 0-.569.038-.836.11v-.394c.433-.24.873-.505 1.314-.797l.359-.244v1.434zm-1.493-3.002l-.242.156c-.339.217-.668.411-.985.585-1.309.716-2.406 1.077-3.06 1.128.342-.618 1.355-1.861 3.432-3.234 1.84-1.217 3.437-1.802 4.287-1.869-.341.617-1.355 1.86-3.432 3.234zm13.236-12.447c-.955 0-2.463.604-3.934 1.577-1.005.665-1.877 1.422-2.454 2.131-.901 1.108-.813 1.782-.581 2.152.147.235.46.514 1.117.514.62 0 1.472-.256 2.396-.7v.374c-.477.365-.823.9-.953 1.518h-2.185c-.289 0-.524.241-.524.538 0 .297.234.538.524.538h2.61l.043.004h3.947c.289 0 .524-.241.524-.538v-.006c-.002-.84-.399-1.587-1.009-2.054v-1.907c0-.128-.045-.244-.118-.336.444-.379.83-.766 1.133-1.139.901-1.108.813-1.782.581-2.152-.147-.234-.46-.514-1.117-.514zm-1.528 4.68v.902c-.143-.026-.29-.041-.44-.041-.15 0-.297.015-.44.041v-.477l.49-.309.173-.117h.217zm-1.79 2.886c.057-.15.138-.287.236-.409.213-.263.511-.449.851-.513l.263-.026.263.026c.34.064.638.251.851.513.098.122.179.259.236.408h-2.7zm1.251-3.962l-.418.288-.396.251-.051.031-.524.3c-1.048.564-1.92.825-2.397.825l-.226-.028c.016-.323.776-1.507 2.711-2.786 1.469-.971 2.749-1.406 3.367-1.406l.226.028c-.015.299-.667 1.333-2.294 2.498zm-7.791-1.754c.703-.864.62-1.413.427-1.721-.125-.2-.387-.438-.925-.438-.721 0-1.804.431-2.896 1.153-.732.484-1.368 1.036-1.79 1.555-.703.864-.62 1.413-.427 1.721.125.2.387.438.925.438.399 0 .909-.132 1.469-.372-.259.245-.452.561-.551.919h-1.449c-.289 0-.524.241-.524.538 0 .297.235.538.524.538h1.868l.03.003h2.825c.289 0 .524-.241.524-.538v-.006c-.002-.622-.284-1.178-.722-1.542v-1.291l-.041-.208c.283-.25.533-.504.733-.749zm-2.621 3.255c.162-.225.422-.372.715-.372s.553.147.715.372h-1.43zm.881-1.44l-.166-.009-.166.009v-.08l.282-.179.05-.034v.294zm-.285-1.396l-.332.23c-.266.176-.522.326-.763.452-.662.348-1.21.516-1.528.529.166-.336.747-1.022 1.821-1.732.995-.658 1.856-.964 2.29-.981-.148.3-.627.877-1.488 1.501z" fill="#67737B"/><path d="M10.525 2.896c.139 0 .272-.057.37-.158.099-.101.154-.239.154-.382 0-.143-.056-.281-.155-.382-.098-.1-.231-.157-.37-.157-.138 0-.271.056-.369.157-.099.101-.155.239-.155.383 0 .143.055.28.153.381.098.101.232.158.371.158zm4.211 3.201c.139 0 .272-.057.37-.158.098-.101.154-.239.154-.382 0-.143-.056-.281-.155-.382-.098-.1-.231-.157-.37-.157-.138 0-.271.056-.37.157-.099.101-.155.239-.155.383 0 .143.055.28.153.381.098.101.232.158.371.158zm5.647-1.573c.139 0 .272-.057.37-.158.098-.101.154-.239.154-.382 0-.143-.056-.281-.155-.382-.098-.1-.231-.157-.37-.157-.138 0-.271.056-.369.157-.099.101-.155.239-.155.382 0 .143.055.28.153.381.098.101.232.158.371.158zm1.457-3.602c.098.102.233.159.372.159.139 0 .272-.057.37-.158.159-.164.199-.415.098-.622-.077-.158-.224-.266-.391-.292-.162-.025-.331.031-.447.151-.161.164-.201.417-.098.626l.096.136zm2.382 2.129c.139 0 .272-.057.37-.158.098-.101.154-.239.153-.382 0-.143-.056-.281-.155-.382-.098-.1-.231-.157-.37-.157-.138 0-.271.056-.37.157-.099.101-.155.239-.155.383 0 .143.055.28.153.381.098.101.232.158.371.158zm-19.066 1.406l.436.245.238.448c.092.173.268.28.46.28s.368-.107.46-.28l.238-.448.436-.245c.168-.094.273-.275.273-.472 0-.197-.104-.378-.273-.472l-.436-.245-.238-.448c-.092-.173-.268-.28-.46-.28s-.368.107-.46.28l-.238.448-.435.245c-.168.094-.273.276-.273.472 0 .197.104.378.273.472zm9.982-2.475l.436.245.238.448c.092.173.268.28.46.28.191 0 .368-.107.46-.28l.238-.448.436-.245c.168-.094.273-.276.273-.472 0-.197-.104-.378-.273-.472l-.436-.245-.238-.448c-.092-.173-.268-.28-.46-.28s-.368.107-.46.28l-.238.448-.436.245c-.168.094-.272.276-.272.472 0 .197.104.378.272.472zm16.244 8.785h-.177l-.114-.135-1.507-1.251-.751-1.75-.022-.045c-.231-.425-.571-.969-.878-1.142-.162-.103-1.057-.878-1.829-1.569-.125-.112-.294-.156-.456-.12l-1.544.347-.197.091-1.281.96-1.303-.353c-.207-.056-.426.023-.553.198l-1.249 1.719-.971.718h-.819c-.094 0-.186.026-.267.075l-.865.525h-2.444l-.835-.451-.297-.696c-.109-.256-.392-.384-.649-.293l-2.339.822-1.406-.277-1.448-.773c-.155-.083-.341-.081-.494.006l-1.936 1.096-1.236.344c-.082.023-.157.065-.219.124l-.803.763-.015.015-.715.735-.916.314h-.155c-.289 0-.524.241-.524.538 0 .297.234.538.524.538h30.688c.289 0 .524-.241.524-.538 0-.297-.234-.538-.524-.538zm-28.168-.279l.701-.666 1.173-.326.116-.048 1.746-.989 1.267.677.143.051 1.618.318c.089.018.182.011.268-.019l2.014-.708.177.415c.048.112.131.204.236.26l1.112.6c.075.041.159.062.244.062h2.717c.094 0 .186-.026.267-.075l.865-.525h.845c.11 0 .217-.036.306-.101l1.173-.868.114-.115 1.085-1.494 1.202.326c.153.041.315.01.442-.086l1.393-1.045 1.179-.265c.632.563 1.531 1.349 1.789 1.508.09.079.313.411.48.716l.792 1.845c.034.078.085.147.15.201l.759.63h-26.644l.272-.279zm7.113 8.993h.002c.289 0 .524-.241.524-.538v-2.46l.096.004c.631 0 1.144-.527 1.144-1.175v-1.135c0-.297-.234-.539-.524-.539-.289 0-.524.241-.524.539v1.135c0 .054-.043.099-.096.099-.053 0-.096-.044-.096-.099l-.004-.039v-2.491c0-.297-.234-.538-.524-.538-.289 0-.524.241-.524.538v3.114c0 .054-.043.098-.096.098-.053 0-.096-.044-.096-.098v-1.547c0-.297-.234-.538-.524-.538-.289 0-.524.241-.524.538v1.547c0 .648.513 1.175 1.144 1.175l.1-.005v1.338h-1.088c-.289 0-.524.241-.524.538 0 .297.235.538.524.538h1.61zm-3.654-2.562c-.289 0-.524.241-.524.538v1.552c0 .183-.145.332-.323.332-.178 0-.323-.149-.323-.332l-.005-.052v-3.406c0-.297-.234-.538-.524-.538-.289 0-.524.241-.524.538v4.258c0 .183-.145.332-.323.332-.178 0-.323-.149-.323-.332v-2.115c0-.297-.234-.538-.524-.538-.289 0-.524.241-.524.538v2.115c0 .777.615 1.409 1.371 1.409.113 0 .223-.016.329-.043v2.261h-1.68c-.289 0-.524.241-.524.538 0 .297.234.538.524.538h2.205c.289 0 .524-.241.524-.538v-3.595c.104.026.212.04.323.04.756 0 1.371-.632 1.371-1.409v-1.552c0-.297-.235-.538-.524-.538zm13.736 2.865c-1.391 0-3.476.829-5.576 2.218-1.407.93-2.63 1.993-3.442 2.992-1.365 1.678-1.2 2.75-.822 3.354.246.392.759.86 1.809.86.86 0 1.985-.318 3.215-.888v.357c-.724.518-1.238 1.323-1.383 2.255h-3.104c-.289 0-.524.241-.524.538 0 .297.234.538.524.538h9.156c.289 0 .524-.241.524-.538 0-1.156-.565-2.179-1.425-2.793v-2.711c.809-.647 1.509-1.321 2.035-1.968 1.364-1.678 1.2-2.75.822-3.354-.246-.393-.759-.86-1.81-.86zm-2.843 11.148h-2.289c.095-.409.296-.775.57-1.068.173-.185.376-.341.6-.46.309-.163.659-.257 1.03-.257s.721.094 1.03.257c.224.119.427.274.6.46.274.294.476.66.57 1.069h-2.11zm.747-2.752c-.267-.072-.548-.11-.837-.11-.289 0-.569.038-.836.11v-.394c.433-.24.873-.505 1.314-.797l.359-.244v1.434zm-1.493-3.002l-.242.156c-.339.217-.668.411-.985.585-1.309.716-2.406 1.077-3.06 1.128.342-.618 1.355-1.861 3.432-3.234 1.84-1.217 3.437-1.802 4.287-1.869-.341.617-1.355 1.86-3.432 3.234zm13.236-12.447c-.955 0-2.463.604-3.934 1.577-1.005.665-1.877 1.422-2.454 2.131-.901 1.108-.813 1.782-.581 2.152.147.235.46.514 1.117.514.62 0 1.472-.256 2.396-.7v.374c-.477.365-.823.9-.953 1.518h-2.185c-.289 0-.524.241-.524.538 0 .297.234.538.524.538h2.61l.043.004h3.947c.289 0 .524-.241.524-.538v-.006c-.002-.84-.399-1.587-1.009-2.054v-1.907c0-.128-.045-.244-.118-.336.444-.379.83-.766 1.133-1.139.901-1.108.813-1.782.581-2.152-.147-.234-.46-.514-1.117-.514zm-1.528 4.68v.902c-.143-.026-.29-.041-.44-.041-.15 0-.297.015-.44.041v-.477l.49-.309.173-.117h.217zm-1.79 2.886c.057-.15.138-.287.236-.409.213-.263.511-.449.851-.513l.263-.026.263.026c.34.064.638.251.851.513.098.122.179.259.236.408h-2.7zm1.251-3.962l-.418.288-.396.251-.051.031-.524.3c-1.048.564-1.92.825-2.397.825l-.226-.028c.016-.323.776-1.507 2.711-2.786 1.469-.971 2.749-1.406 3.367-1.406l.226.028c-.015.299-.667 1.333-2.294 2.498zm-7.791-1.754c.703-.864.62-1.413.427-1.721-.125-.2-.387-.438-.925-.438-.721 0-1.804.431-2.896 1.153-.732.484-1.368 1.036-1.79 1.555-.703.864-.62 1.413-.427 1.721.125.2.387.438.925.438.399 0 .909-.132 1.469-.372-.259.245-.452.561-.551.919h-1.449c-.289 0-.524.241-.524.538 0 .297.235.538.524.538h1.868l.03.003h2.825c.289 0 .524-.241.524-.538v-.006c-.002-.622-.284-1.178-.722-1.542v-1.291l-.041-.208c.283-.25.533-.504.733-.749zm-2.621 3.255c.162-.225.422-.372.715-.372s.553.147.715.372h-1.43zm.881-1.44l-.166-.009-.166.009v-.08l.282-.179.05-.034v.294zm-.285-1.396l-.332.23c-.266.176-.522.326-.763.452-.662.348-1.21.516-1.528.529.166-.336.747-1.022 1.821-1.732.995-.658 1.856-.964 2.29-.981-.148.3-.627.877-1.488 1.501z" fill="#3A434E"/></g></g></svg>