<svg width="32" height="232" viewBox="0 0 32 232" xmlns="http://www.w3.org/2000/svg"><desc>Created with Sketch.</desc><g fill="none"><path d="M6.856 124.538h.21c-.033.13-.05.263-.05.403 0 .816.58 1.477 1.296 1.477h8.448c.316 0 .62-.13.857-.368.28-.28.44-.683.44-1.105 0-.42-.16-.823-.44-1.103-.238-.237-.542-.37-.857-.37h-4.823l.015-.2c0-.362-.138-.71-.38-.95-.203-.205-.466-.32-.738-.32H6.857c-.616 0-1.118.57-1.118 1.27s.5 1.27 1.114 1.27zm0-1.47h3.977l.116.05c.02.024.06.073.06.15s-.04.13-.06.15l-.12.052c-.26 0-.47.24-.47.534 0 .295.21.534.47.534h5.93c.11 0 .185.055.23.1.046.046.12.146.12.303s-.074.26-.12.307c-.045.046-.123.1-.233.1H8.31c-.195 0-.354-.18-.354-.403 0-.22.16-.402.355-.402.265 0 .475-.24.475-.533h.003c0-.296-.21-.535-.472-.535h-1.46c-.096 0-.175-.09-.175-.2 0-.11.078-.2.175-.2zm24.667 22.983c-.28 0-.4-.05-.567-.123-.2-.09-.452-.2-.91-.2-.457 0-.707.11-.91.2-.106.048-.196.087-.322.108l1.82-4.494c.134-.33.11-.716-.063-1.023-.17-.307-.47-.49-.79-.49h-1.04c-.076-.966-.377-1.82-.813-2.573-.007-1.602-.435-3.12-1.256-4.494l.007-.126c0-5.514-4.64-7.902-4.84-8-.24-.122-.518-.122-.76 0-.166.082-3.487 1.79-4.53 5.625-1.935-2.118-3.55-2.628-3.632-2.65-.34-.106-.704.015-.94.31-.04.05-.766.97-1.28 2.478-.578-.236-.95-.32-1.002-.33-.322-.07-.652.054-.873.33-.04.047-.78.986-1.35 2.535-.39-.135-.636-.196-.68-.207-.33-.08-.67.043-.894.325-.092.116-2.18 2.775-2.343 6.767h-1.28c-.322 0-.62.185-.794.49-.176.31-.2.693-.066 1.024l1.706 4.214c-.243.037-.41.11-.552.172-.168.073-.288.126-.568.126-.28 0-.4-.054-.566-.128-.2-.09-.452-.2-.91-.2-.26 0-.47.24-.47.534 0 .295.21.534.47.534.28 0 .4.055.567.128.2.09.454.2.91.2s.71-.11.91-.2c.168-.073.288-.127.568-.127.28 0 .4.054.566.127.2.09.45.2.91.2s.707-.11.908-.2c.168-.073.288-.127.568-.127.28 0 .4.055.568.128.2.09.45.2.908.2s.708-.11.91-.2c.166-.072.285-.126.566-.126.28 0 .4.056.567.13.2.09.45.2.91.2s.71-.11.91-.2c.164-.074.283-.128.564-.128.28 0 .4.055.566.128.203.09.453.2.91.2s.71-.11.91-.2c.167-.073.287-.127.567-.127.28 0 .4.056.566.13.2.09.453.2.91.2.458 0 .708-.11.91-.2.166-.073.286-.127.567-.127.28 0 .4.055.565.128.2.09.452.2.91.2.457 0 .707-.11.91-.2.165-.072.285-.126.565-.126.282 0 .402.055.568.128.2.09.452.2.91.2.457 0 .707-.11.908-.2.166-.073.286-.127.567-.127.28 0 .4.055.566.128.2.09.45.2.91.2s.705-.11.91-.2c.163-.072.283-.126.563-.126.28 0 .4.055.567.128.2.09.453.2.91.2.458 0 .708-.11.91-.2.167-.073.287-.127.568-.127.28 0 .4.055.566.128.2.09.453.2.91.2.26 0 .47-.24.47-.534 0-.295-.21-.534-.47-.534zm-6.748-8.394c-.23-.136-.515-.036-.636.226l-.99 2.146h-.145l.57-2.687c.06-.287-.095-.576-.348-.644-.254-.07-.51.108-.57.395l-.62 2.935H21.9l.023-.158v-3.348c0-.296-.21-.536-.47-.536-.262 0-.472.24-.472.534v3.347l.025.158h-.21l-.623-2.936c-.06-.288-.315-.465-.57-.396-.25.07-.406.358-.345.645l.57 2.687h-.254l-.99-2.144c-.12-.262-.404-.364-.635-.227-.23.137-.32.46-.2.72l.762 1.65h-2.363l-.06-.11c.458-2.59 3.766-4.303 5.366-4.876 1.623.582 5.002 2.334 5.382 4.987H24.21l.76-1.65c.123-.26.034-.584-.197-.72zm.682-2.83c-1.762-1.285-3.602-1.883-3.75-1.93-.165-.052-.34-.052-.506 0-.143.047-1.98.643-3.74 1.925 1.04-2.256 3.175-3.57 4-4.01.827.44 2.964 1.75 4 4.016zm-4.002-7.812c.665.427 2.026 1.46 2.788 3.188-1.27-1.034-2.398-1.53-2.452-1.553-.213-.095-.452-.095-.67 0-.052.023-1.18.52-2.45 1.554.76-1.73 2.124-2.763 2.788-3.19zm-8.46 3.135c.18.1.4.236.645.412.62.444 1.536 1.238 2.513 2.555-.23.4-.425.813-.588 1.237-1.07-1.326-2.188-2.235-3.158-2.852.18-.56.402-1.02.588-1.35zm-3.115 2.39c.242.09.552.222.91.41l.188.1c1.136.63 2.677 1.794 4.025 3.888l-.017.514c-.118.204-.226.416-.323.634-1.896-2.14-3.913-3.44-5.432-4.2.22-.57.46-1.028.65-1.346zm-2.928 2.657c1.208.43 4.17 1.734 6.742 4.827H10.5l.022-.158v-2.052c0-.296-.21-.535-.47-.535s-.472.235-.472.53v2.053l.022.158H9.07l.022-.157v-2.742c0-.294-.21-.533-.47-.533s-.472.24-.472.533v2.743l.023.158H7.64l.023-.156v-3.348c0-.294-.21-.534-.47-.534s-.472.24-.472.535v3.348l.027.158h-1.31c.118-2.26 1.01-4.01 1.514-4.826zm19.232 10.727c-.166.074-.286.127-.567.127-.28 0-.4-.05-.567-.123-.2-.09-.45-.2-.91-.2s-.707.11-.91.2c-.165.074-.285.127-.565.127-.28 0-.4-.052-.567-.126-.2-.09-.452-.2-.91-.2s-.708.11-.91.2c-.166.074-.285.127-.566.127-.28 0-.4-.052-.567-.126-.2-.09-.45-.2-.91-.2s-.707.11-.908.2c-.167.073-.286.126-.567.126-.28 0-.4-.052-.566-.126-.202-.09-.452-.2-.91-.2s-.708.11-.91.2c-.165.073-.285.126-.566.126-.28 0-.4-.052-.566-.126-.202-.09-.452-.2-.91-.2s-.708.11-.91.2c-.166.073-.286.126-.567.126-.28 0-.4-.052-.566-.126-.205-.09-.456-.2-.91-.2-.46 0-.71.11-.91.2-.17.074-.29.127-.57.127-.28 0-.4-.052-.566-.126-.202-.09-.452-.2-.91-.2-.457 0-.707.11-.908.2-.13.06-.235.105-.408.12.037-.212.02-.44-.067-.655l-1.3-3.235h24.568l-1.306 3.226c-.045.112-.07.228-.08.343-.353.02-.564.113-.74.19zm-5.246 2.9c-.28 0-.4-.052-.566-.125-.2-.09-.452-.2-.91-.2-.457 0-.707.11-.908.2-.166.07-.286.122-.567.122-.28 0-.4-.053-.567-.126-.2-.09-.452-.2-.91-.2s-.708.11-.91.2c-.165.072-.285.125-.565.125-.28 0-.4-.052-.567-.125-.202-.09-.452-.2-.91-.2-.457 0-.707.11-.91.2-.165.072-.285.125-.565.125-.28 0-.4-.052-.567-.125-.2-.09-.45-.2-.91-.2-.456 0-.706.11-.908.2-.166.072-.286.125-.566.125-.28 0-.4-.052-.567-.125-.2-.09-.452-.2-.91-.2-.457 0-.707.11-.908.2-.167.072-.286.125-.567.125-.28 0-.4-.053-.567-.126-.2-.09-.45-.2-.91-.2-.458 0-.708.11-.91.2-.166.072-.285.125-.566.125-.26 0-.47.24-.47.53 0 .295.21.534.47.534.458 0 .708-.11.91-.2.166-.073.286-.126.567-.126.28 0 .4.052.566.126.2.09.452.2.91.2.457 0 .707-.112.908-.2.166-.074.286-.127.567-.127.28 0 .4.052.566.126.205.09.456.2.91.2.46 0 .71-.112.91-.2.168-.074.288-.127.568-.127.28 0 .4.052.567.126.2.09.452.2.91.2.457 0 .707-.112.908-.2.168-.074.287-.127.568-.127.28 0 .4.052.567.126.2.09.452.2.91.2.457 0 .707-.11.91-.2.166-.073.286-.126.566-.126.28 0 .4.052.566.126.2.09.45.2.91.2s.707-.112.91-.2c.165-.074.284-.127.565-.127.28 0 .4.052.567.126.2.09.45.2.908.2.26 0 .472-.24.472-.536 0-.295-.21-.534-.473-.534M3.902 129.49c.143-.136.324-.202.51-.183.13.013.25.064.35.147l.006.016c.073.188.24.31.423.31h.054c.182 0 .35-.12.426-.31l.006-.016c.1-.083.22-.134.35-.147.185-.018.366.047.51.183.2.19.495.16.663-.066.167-.226.142-.563-.058-.753-.337-.32-.763-.47-1.2-.425-.262.026-.51.12-.727.275-.217-.155-.465-.25-.727-.276-.437-.043-.862.11-1.2.43-.197.188-.223.526-.056.752.167.226.464.256.663.066" fill="#206FAC"/><path d="M6.856 84.538h.21c-.033.13-.05.263-.05.403 0 .816.58 1.477 1.296 1.477h8.448c.316 0 .62-.13.857-.368.28-.28.44-.683.44-1.105 0-.42-.16-.823-.44-1.103-.238-.237-.542-.37-.857-.37h-4.823l.015-.2c0-.362-.138-.71-.38-.95-.203-.205-.466-.32-.738-.32H6.857c-.616 0-1.118.57-1.118 1.27s.5 1.27 1.114 1.27zm0-1.47h3.977l.116.05c.02.024.06.073.06.15s-.04.13-.06.15l-.12.052c-.26 0-.47.24-.47.534 0 .295.21.534.47.534h5.93c.11 0 .185.055.23.1.046.046.12.146.12.303s-.074.26-.12.307c-.045.046-.123.1-.233.1H8.31c-.195 0-.354-.18-.354-.403 0-.22.16-.402.355-.402.265 0 .475-.24.475-.533h.003c0-.296-.21-.535-.472-.535h-1.46c-.096 0-.175-.09-.175-.2 0-.11.078-.2.175-.2zm24.667 22.983c-.28 0-.4-.05-.567-.123-.2-.09-.452-.2-.91-.2-.457 0-.707.11-.91.2-.106.048-.196.087-.322.108l1.82-4.494c.134-.33.11-.716-.063-1.023-.17-.307-.47-.49-.79-.49h-1.04c-.076-.966-.377-1.82-.813-2.573-.007-1.602-.435-3.12-1.256-4.494l.007-.126c0-5.514-4.64-7.902-4.84-8-.24-.122-.518-.122-.76 0-.166.082-3.487 1.79-4.53 5.625-1.935-2.118-3.55-2.628-3.632-2.65-.34-.106-.704.015-.94.31-.04.05-.766.97-1.28 2.478-.578-.236-.95-.32-1.002-.33-.322-.07-.652.054-.873.33-.04.047-.78.986-1.35 2.535-.39-.135-.636-.196-.68-.207-.33-.08-.67.043-.894.325-.092.116-2.18 2.775-2.343 6.767h-1.28c-.322 0-.62.185-.794.49-.176.31-.2.693-.066 1.024l1.706 4.214c-.243.037-.41.11-.552.172-.168.073-.288.126-.568.126-.28 0-.4-.054-.566-.128-.2-.09-.452-.2-.91-.2-.26 0-.47.24-.47.534 0 .295.21.534.47.534.28 0 .4.055.567.128.2.09.454.2.91.2s.71-.11.91-.2c.168-.073.288-.127.568-.127.28 0 .4.054.566.127.2.09.45.2.91.2s.707-.11.908-.2c.168-.073.288-.127.568-.127.28 0 .4.055.568.128.2.09.45.2.908.2s.708-.11.91-.2c.166-.072.285-.126.566-.126.28 0 .4.056.567.13.2.09.45.2.91.2s.71-.11.91-.2c.164-.074.283-.128.564-.128.28 0 .4.055.566.128.203.09.453.2.91.2s.71-.11.91-.2c.167-.073.287-.127.567-.127.28 0 .4.056.566.13.2.09.453.2.91.2.458 0 .708-.11.91-.2.166-.073.286-.127.567-.127.28 0 .4.055.565.128.2.09.452.2.91.2.457 0 .707-.11.91-.2.165-.072.285-.126.565-.126.282 0 .402.055.568.128.2.09.452.2.91.2.457 0 .707-.11.908-.2.166-.073.286-.127.567-.127.28 0 .4.055.566.128.2.09.45.2.91.2s.705-.11.91-.2c.163-.072.283-.126.563-.126.28 0 .4.055.567.128.2.09.453.2.91.2.458 0 .708-.11.91-.2.167-.073.287-.127.568-.127.28 0 .4.055.566.128.2.09.453.2.91.2.26 0 .47-.24.47-.534 0-.295-.21-.534-.47-.534zm-6.748-8.394c-.23-.136-.515-.036-.636.226l-.99 2.146h-.145l.57-2.687c.06-.287-.095-.576-.348-.644-.254-.07-.51.108-.57.395l-.62 2.935H21.9l.023-.158V96.52c0-.295-.21-.535-.47-.535-.262 0-.472.24-.472.534v3.344l.025.158h-.21l-.623-2.936c-.06-.288-.315-.465-.57-.396-.25.07-.406.358-.345.645l.57 2.687h-.254l-.99-2.146c-.12-.262-.404-.364-.635-.227-.23.135-.32.46-.2.72l.762 1.65h-2.363l-.06-.11c.458-2.59 3.766-4.305 5.366-4.878 1.623.582 5.002 2.334 5.382 4.987H24.21l.76-1.65c.123-.26.034-.584-.197-.72zm.682-2.83c-1.762-1.285-3.602-1.883-3.75-1.93-.165-.052-.34-.052-.506 0-.143.047-1.98.643-3.74 1.925 1.04-2.256 3.175-3.57 4-4.01.827.44 2.964 1.75 4 4.016zm-4.002-7.812c.665.427 2.026 1.46 2.788 3.188-1.27-1.034-2.398-1.53-2.452-1.553-.213-.095-.452-.095-.67 0-.052.023-1.18.52-2.45 1.554.76-1.73 2.124-2.763 2.788-3.19zm-8.46 3.135c.18.1.4.236.645.412.62.444 1.536 1.238 2.513 2.555-.23.4-.425.813-.588 1.237-1.07-1.326-2.188-2.235-3.158-2.852.18-.56.402-1.02.588-1.35zM9.88 92.54c.242.09.552.222.91.41l.188.1c1.136.63 2.677 1.794 4.025 3.888l-.017.514c-.118.204-.226.416-.323.634-1.896-2.14-3.913-3.44-5.432-4.2.22-.57.46-1.028.65-1.346zm-2.928 2.657c1.208.43 4.17 1.734 6.742 4.827H10.5l.022-.158v-2.052c0-.296-.21-.535-.47-.535s-.472.235-.472.53v2.053l.022.158H9.07l.022-.157V97.12c0-.294-.21-.533-.47-.533s-.472.24-.472.533v2.743l.023.158H7.64l.023-.156v-3.348c0-.294-.21-.534-.47-.534s-.472.24-.472.535v3.348l.027.158h-1.31c.118-2.26 1.01-4.01 1.514-4.826zm19.232 10.727c-.166.074-.286.127-.567.127-.28 0-.4-.05-.567-.123-.2-.09-.45-.2-.91-.2s-.707.11-.91.2c-.165.074-.285.127-.565.127-.28 0-.4-.052-.567-.126-.2-.09-.452-.2-.91-.2s-.708.11-.91.2c-.166.074-.285.127-.566.127-.28 0-.4-.052-.567-.126-.2-.09-.45-.2-.91-.2s-.707.11-.908.2c-.167.073-.286.126-.567.126-.28 0-.4-.052-.566-.126-.202-.09-.452-.2-.91-.2s-.708.11-.91.2c-.165.073-.285.126-.566.126-.28 0-.4-.052-.566-.126-.202-.09-.452-.2-.91-.2s-.708.11-.91.2c-.166.073-.286.126-.567.126-.28 0-.4-.052-.566-.126-.205-.09-.456-.2-.91-.2-.46 0-.71.11-.91.2-.17.074-.29.127-.57.127-.28 0-.4-.052-.566-.126-.202-.09-.452-.2-.91-.2-.457 0-.707.11-.908.2-.13.06-.235.105-.408.12.037-.212.02-.44-.067-.655l-1.3-3.235h24.568l-1.306 3.226c-.045.112-.07.228-.08.343-.353.02-.564.113-.74.19zm-5.246 2.9c-.28 0-.4-.052-.566-.125-.2-.09-.452-.2-.91-.2-.457 0-.707.11-.908.2-.166.07-.286.122-.567.122-.28 0-.4-.053-.567-.126-.2-.09-.452-.2-.91-.2s-.708.11-.91.2c-.165.072-.285.125-.565.125-.28 0-.4-.052-.567-.125-.202-.09-.452-.2-.91-.2-.457 0-.707.11-.91.2-.165.072-.285.125-.565.125-.28 0-.4-.052-.567-.125-.2-.09-.45-.2-.91-.2-.456 0-.706.11-.908.2-.166.072-.286.125-.566.125-.28 0-.4-.052-.567-.125-.2-.09-.452-.2-.91-.2-.457 0-.707.11-.908.2-.167.072-.286.125-.567.125-.28 0-.4-.053-.567-.126-.2-.09-.45-.2-.91-.2-.458 0-.708.11-.91.2-.166.072-.285.125-.566.125-.26 0-.47.24-.47.53 0 .295.21.534.47.534.458 0 .708-.11.91-.2.166-.073.286-.126.567-.126.28 0 .4.052.566.126.2.09.452.2.91.2.457 0 .707-.112.908-.2.166-.074.286-.127.567-.127.28 0 .4.052.566.126.205.09.456.2.91.2.46 0 .71-.112.91-.2.168-.074.288-.127.568-.127.28 0 .4.052.567.126.2.09.452.2.91.2.457 0 .707-.112.908-.2.168-.074.287-.127.568-.127.28 0 .4.052.567.126.2.09.452.2.91.2.457 0 .707-.11.91-.2.166-.073.286-.126.566-.126.28 0 .4.052.566.126.2.09.45.2.91.2s.707-.112.91-.2c.165-.074.284-.127.565-.127.28 0 .4.052.567.126.2.09.45.2.908.2.26 0 .472-.24.472-.536 0-.295-.21-.534-.473-.534M3.902 89.49c.143-.136.324-.202.51-.183.13.013.25.064.35.147l.006.016c.073.188.24.31.423.31h.054c.182 0 .35-.12.426-.31l.006-.016c.1-.083.22-.134.35-.147.185-.018.366.047.51.183.2.19.495.16.663-.066.167-.226.142-.563-.058-.753-.337-.32-.763-.47-1.2-.425-.262.026-.51.12-.727.275-.217-.155-.465-.25-.727-.276-.437-.043-.862.11-1.2.43-.197.188-.223.526-.056.752.167.226.464.256.663.066" fill="#fff"/><path d="M6.856 44.538h.21c-.033.13-.05.263-.05.403 0 .816.58 1.477 1.296 1.477h8.448c.316 0 .62-.13.857-.368.28-.28.44-.683.44-1.105 0-.42-.16-.823-.44-1.103-.238-.237-.542-.37-.857-.37h-4.823l.015-.2c0-.362-.138-.71-.38-.95-.203-.205-.466-.32-.738-.32H6.857c-.616 0-1.118.57-1.118 1.27s.5 1.27 1.114 1.27zm0-1.47h3.977l.116.05c.02.024.06.073.06.15s-.04.13-.06.15l-.12.052c-.26 0-.47.24-.47.534 0 .295.21.534.47.534h5.93c.11 0 .185.055.23.1.046.046.12.146.12.303s-.074.26-.12.307c-.045.046-.123.1-.233.1H8.31c-.195 0-.354-.18-.354-.403 0-.22.16-.402.355-.402.265 0 .475-.24.475-.533h.003c0-.296-.21-.535-.472-.535h-1.46c-.096 0-.175-.09-.175-.2 0-.11.078-.2.175-.2zM31.523 66.05c-.28 0-.4-.05-.567-.125-.2-.09-.452-.2-.91-.2-.457 0-.707.11-.91.2-.106.048-.196.087-.322.108l1.82-4.494c.134-.33.11-.72-.063-1.026-.17-.307-.47-.49-.79-.49h-1.04c-.076-.966-.377-1.82-.813-2.573-.007-1.6-.435-3.12-1.256-4.493l.007-.125c0-5.514-4.64-7.902-4.84-8-.24-.122-.518-.122-.76 0-.166.082-3.487 1.79-4.53 5.625-1.935-2.116-3.55-2.626-3.632-2.65-.34-.104-.704.017-.94.313-.04.05-.766.97-1.28 2.478-.578-.235-.95-.32-1.002-.33-.322-.07-.652.055-.873.33-.04.048-.78.987-1.35 2.536-.39-.135-.636-.196-.68-.207-.33-.08-.67.043-.894.325-.092.115-2.18 2.774-2.343 6.766h-1.28c-.322 0-.62.186-.794.49-.176.31-.2.694-.066 1.025l1.706 4.213c-.243.037-.41.11-.552.172-.168.074-.288.127-.568.127-.28 0-.4-.054-.566-.128-.2-.09-.452-.2-.91-.2-.26 0-.47.24-.47.534 0 .297.21.536.47.536.28 0 .4.055.567.128.2.09.454.2.91.2s.71-.11.91-.2c.168-.073.288-.127.568-.127.28 0 .4.054.566.127.2.09.45.2.91.2s.707-.11.908-.2c.168-.073.288-.127.568-.127.28 0 .4.055.568.128.2.09.45.2.908.2s.708-.11.91-.2c.166-.073.285-.127.566-.127.28 0 .4.056.567.13.2.09.45.2.91.2s.71-.11.91-.2c.164-.074.283-.128.564-.128.28 0 .4.054.566.127.203.09.453.2.91.2s.71-.11.91-.2c.167-.073.287-.127.567-.127.28 0 .4.055.566.128.2.09.453.2.91.2.458 0 .708-.11.91-.2.166-.072.286-.126.567-.126.28 0 .4.055.565.128.2.09.452.2.91.2.457 0 .707-.11.91-.2.165-.073.285-.127.565-.127.282 0 .402.055.568.128.2.09.452.2.91.2.457 0 .707-.11.908-.2.166-.07.286-.125.567-.125.28 0 .4.055.566.128.2.09.45.2.91.2s.705-.11.91-.2c.163-.073.283-.127.563-.127.28 0 .4.055.567.128.2.09.453.2.91.2.458 0 .708-.11.91-.2.167-.073.287-.127.568-.127.28 0 .4.055.566.128.2.09.453.2.91.2.26 0 .47-.24.47-.534 0-.294-.21-.533-.47-.533zm-6.748-8.396c-.23-.136-.515-.036-.636.226l-.99 2.145h-.145l.57-2.687c.06-.287-.095-.576-.348-.644-.254-.07-.51.108-.57.395l-.62 2.932H21.9l.023-.158V56.52c0-.295-.21-.535-.47-.535-.262 0-.472.24-.472.534v3.344l.025.158h-.21l-.623-2.936c-.06-.288-.315-.465-.57-.396-.25.07-.406.358-.345.645l.57 2.687h-.254l-.99-2.146c-.12-.262-.404-.364-.635-.227-.23.135-.32.46-.2.72l.762 1.65h-2.363l-.06-.11c.458-2.59 3.766-4.305 5.366-4.878 1.623.582 5.002 2.334 5.382 4.987H24.21l.76-1.65c.123-.26.034-.584-.197-.72zm.682-2.83c-1.762-1.285-3.602-1.883-3.75-1.93-.165-.052-.34-.052-.506 0-.143.047-1.98.643-3.74 1.925 1.04-2.26 3.175-3.57 4-4.01.827.44 2.964 1.75 4 4.013zm-4.002-7.812c.665.427 2.026 1.46 2.788 3.188-1.27-1.035-2.398-1.53-2.452-1.554-.213-.094-.452-.094-.67 0-.052.024-1.18.52-2.45 1.555.76-1.73 2.124-2.76 2.788-3.19zm-8.46 3.135c.18.102.4.237.645.413.62.443 1.536 1.237 2.513 2.554-.23.4-.425.813-.588 1.237-1.07-1.324-2.188-2.233-3.158-2.85.18-.56.402-1.02.588-1.35zM9.88 52.54c.242.09.552.222.91.41l.188.1c1.136.63 2.677 1.794 4.025 3.888l-.017.514c-.118.204-.226.416-.323.634-1.896-2.14-3.913-3.44-5.432-4.2.22-.57.46-1.028.65-1.346zm-2.928 2.657c1.208.43 4.17 1.734 6.742 4.827H10.5l.022-.158v-2.052c0-.296-.21-.535-.47-.535s-.472.235-.472.53v2.053l.022.158H9.07l.022-.157V57.12c0-.294-.21-.533-.47-.533s-.472.24-.472.533v2.743l.023.158H7.64l.023-.156v-3.348c0-.294-.21-.534-.47-.534s-.472.24-.472.535v3.348l.027.158h-1.31c.118-2.26 1.01-4.01 1.514-4.826zm19.232 10.727c-.166.074-.286.127-.567.127-.28 0-.4-.05-.567-.123-.2-.09-.45-.2-.91-.2s-.707.11-.91.2c-.165.074-.285.127-.565.127-.28 0-.4-.052-.567-.126-.2-.09-.452-.2-.91-.2s-.708.11-.91.2c-.166.074-.285.127-.566.127-.28 0-.4-.052-.567-.126-.2-.09-.45-.2-.91-.2s-.707.11-.908.2c-.167.073-.286.126-.567.126-.28 0-.4-.052-.566-.126-.202-.09-.452-.2-.91-.2s-.708.11-.91.2c-.165.073-.285.126-.566.126-.28 0-.4-.052-.566-.126-.202-.09-.452-.2-.91-.2s-.708.11-.91.2c-.166.073-.286.126-.567.126-.28 0-.4-.052-.566-.126-.205-.09-.456-.2-.91-.2-.46 0-.71.11-.91.2-.17.074-.29.127-.57.127-.28 0-.4-.052-.566-.126-.202-.09-.452-.2-.91-.2-.457 0-.707.11-.908.2-.13.06-.235.105-.408.12.037-.212.02-.44-.067-.655l-1.3-3.235h24.568l-1.306 3.226c-.045.112-.07.228-.08.343-.353.02-.564.113-.74.19zm-5.246 2.9c-.28 0-.4-.052-.566-.125-.2-.09-.452-.2-.91-.2-.457 0-.707.11-.908.2-.166.07-.286.122-.567.122-.28 0-.4-.053-.567-.126-.2-.09-.452-.2-.91-.2s-.708.11-.91.2c-.165.072-.285.125-.565.125-.28 0-.4-.052-.567-.125-.202-.09-.452-.2-.91-.2-.457 0-.707.11-.91.2-.165.072-.285.125-.565.125-.28 0-.4-.052-.567-.125-.2-.09-.45-.2-.91-.2-.456 0-.706.11-.908.2-.166.072-.286.125-.566.125-.28 0-.4-.052-.567-.125-.2-.09-.452-.2-.91-.2-.457 0-.707.11-.908.2-.167.072-.286.125-.567.125-.28 0-.4-.053-.567-.126-.2-.09-.45-.2-.91-.2-.458 0-.708.11-.91.2-.166.072-.285.125-.566.125-.26 0-.47.24-.47.53 0 .295.21.534.47.534.458 0 .708-.11.91-.2.166-.073.286-.126.567-.126.28 0 .4.052.566.126.2.09.452.2.91.2.457 0 .707-.112.908-.2.166-.074.286-.127.567-.127.28 0 .4.052.566.126.205.09.456.2.91.2.46 0 .71-.112.91-.2.168-.074.288-.127.568-.127.28 0 .4.052.567.126.2.09.452.2.91.2.457 0 .707-.112.908-.2.168-.074.287-.127.568-.127.28 0 .4.052.567.126.2.09.452.2.91.2.457 0 .707-.11.91-.2.166-.073.286-.126.566-.126.28 0 .4.052.566.126.2.09.45.2.91.2s.707-.112.91-.2c.165-.074.284-.127.565-.127.28 0 .4.052.567.126.2.09.45.2.908.2.26 0 .472-.24.472-.536 0-.295-.21-.534-.473-.534M3.902 49.49c.143-.136.324-.202.51-.183.13.013.25.064.35.147l.006.016c.073.188.24.31.423.31h.054c.182 0 .35-.12.426-.31l.006-.016c.1-.083.22-.134.35-.147.185-.018.366.047.51.183.2.19.495.16.663-.066.167-.226.142-.563-.058-.753-.337-.32-.763-.47-1.2-.425-.262.026-.51.12-.727.275-.217-.155-.465-.25-.727-.276-.437-.043-.862.11-1.2.43-.197.188-.223.526-.056.752.167.226.464.256.663.066" fill="#67737B"/><path d="M6.856 4.538h.21c-.033.13-.05.263-.05.403 0 .816.58 1.477 1.296 1.477h8.448c.316 0 .62-.13.857-.368.28-.28.44-.683.44-1.105 0-.42-.16-.823-.44-1.103-.238-.237-.542-.37-.857-.37h-4.823l.015-.2c0-.362-.138-.71-.38-.95-.203-.205-.466-.32-.738-.32H6.857C6.24 2 5.74 2.57 5.74 3.27s.5 1.27 1.117 1.27zm0-1.47h3.977l.116.05c.02.024.06.073.06.15s-.04.13-.06.15l-.12.052c-.26 0-.47.24-.47.534 0 .295.21.534.47.534h5.93c.11 0 .185.055.23.1.046.046.12.146.12.303s-.074.26-.12.307c-.045.046-.123.1-.233.1H8.31c-.195 0-.354-.18-.354-.403 0-.22.16-.402.355-.402.265 0 .475-.24.475-.533h.003c0-.296-.21-.535-.472-.535h-1.46c-.096 0-.175-.09-.175-.2 0-.11.078-.2.175-.2zM31.523 26.05c-.28 0-.4-.05-.567-.125-.2-.09-.452-.2-.91-.2-.457 0-.707.11-.91.2-.106.048-.196.087-.322.108l1.82-4.494c.134-.33.11-.72-.063-1.026-.17-.307-.47-.49-.79-.49h-1.04c-.076-.966-.377-1.82-.813-2.573-.007-1.6-.435-3.12-1.256-4.493l.007-.125c0-5.514-4.64-7.902-4.84-8-.24-.122-.518-.122-.76 0-.166.082-3.487 1.79-4.53 5.625-1.935-2.116-3.55-2.626-3.632-2.65-.34-.104-.704.017-.94.313-.04.05-.766.97-1.28 2.478-.578-.235-.95-.32-1.002-.33-.322-.07-.652.055-.873.33-.04.048-.78.987-1.35 2.536-.39-.135-.636-.196-.68-.207-.33-.08-.67.043-.894.325-.092.115-2.18 2.774-2.343 6.766h-1.28c-.322 0-.62.186-.794.49-.176.31-.2.694-.066 1.025l1.706 4.213c-.243.037-.41.11-.552.172-.168.074-.288.127-.568.127-.28 0-.4-.054-.566-.128-.2-.09-.452-.2-.91-.2-.26 0-.47.24-.47.534 0 .297.21.536.47.536.28 0 .4.055.567.128.2.09.454.2.91.2s.71-.11.91-.2c.168-.073.288-.127.568-.127.28 0 .4.054.566.127.2.09.45.2.91.2s.707-.11.908-.2c.168-.073.288-.127.568-.127.28 0 .4.055.568.128.2.09.45.2.908.2s.708-.11.91-.2c.166-.073.285-.127.566-.127.28 0 .4.056.567.13.2.09.45.2.91.2s.71-.11.91-.2c.164-.074.283-.128.564-.128.28 0 .4.054.566.127.203.09.453.2.91.2s.71-.11.91-.2c.167-.073.287-.127.567-.127.28 0 .4.055.566.128.2.09.453.2.91.2.458 0 .708-.11.91-.2.166-.072.286-.126.567-.126.28 0 .4.055.565.128.2.09.452.2.91.2.457 0 .707-.11.91-.2.165-.073.285-.127.565-.127.282 0 .402.055.568.128.2.09.452.2.91.2.457 0 .707-.11.908-.2.166-.07.286-.125.567-.125.28 0 .4.055.566.128.2.09.45.2.91.2s.705-.11.91-.2c.163-.073.283-.127.563-.127.28 0 .4.055.567.128.2.09.453.2.91.2.458 0 .708-.11.91-.2.167-.073.287-.127.568-.127.28 0 .4.055.566.128.2.09.453.2.91.2.26 0 .47-.24.47-.534 0-.294-.21-.533-.47-.533zm-6.748-8.396c-.23-.136-.515-.036-.636.226l-.99 2.145h-.145l.57-2.687c.06-.287-.095-.576-.348-.644-.254-.07-.51.108-.57.395l-.62 2.932H21.9l.023-.158V16.52c0-.295-.21-.535-.47-.535-.262 0-.472.24-.472.534v3.344l.025.158h-.21l-.623-2.936c-.06-.288-.315-.465-.57-.396-.25.07-.406.358-.345.645l.57 2.687h-.254l-.99-2.146c-.12-.262-.404-.364-.635-.227-.23.135-.32.46-.2.72l.762 1.65h-2.363l-.06-.11c.458-2.59 3.766-4.305 5.366-4.878 1.623.582 5.002 2.334 5.382 4.987H24.21l.76-1.65c.123-.26.034-.584-.197-.72zm.682-2.83c-1.762-1.285-3.602-1.883-3.75-1.93-.165-.052-.34-.052-.506 0-.143.047-1.98.643-3.74 1.925 1.04-2.26 3.175-3.57 4-4.01.827.44 2.964 1.75 4 4.013zm-4.002-7.812c.665.427 2.026 1.46 2.788 3.188-1.27-1.035-2.398-1.53-2.452-1.554-.213-.094-.452-.094-.67 0-.052.024-1.18.52-2.45 1.555.76-1.73 2.124-2.76 2.788-3.19zm-8.46 3.135c.18.102.4.237.645.413.62.443 1.536 1.237 2.513 2.554-.23.4-.425.813-.588 1.237-1.07-1.324-2.188-2.233-3.158-2.85.18-.56.402-1.02.588-1.35zM9.88 12.54c.242.09.552.222.91.41l.188.1c1.136.63 2.677 1.794 4.025 3.888l-.017.514c-.118.204-.226.416-.323.634-1.896-2.14-3.913-3.44-5.432-4.2.22-.57.46-1.028.65-1.346zm-2.928 2.657c1.208.43 4.17 1.734 6.742 4.827H10.5l.022-.158v-2.052c0-.296-.21-.535-.47-.535s-.472.235-.472.53v2.053l.022.158H9.07l.022-.157V17.12c0-.294-.21-.533-.47-.533s-.472.24-.472.533v2.743l.023.158H7.64l.023-.156v-3.348c0-.294-.21-.534-.47-.534s-.472.24-.472.535v3.348l.027.158h-1.31c.118-2.26 1.01-4.01 1.514-4.826zm19.232 10.727c-.166.074-.286.127-.567.127-.28 0-.4-.05-.567-.123-.2-.09-.45-.2-.91-.2s-.707.11-.91.2c-.165.074-.285.127-.565.127-.28 0-.4-.052-.567-.126-.2-.09-.452-.2-.91-.2s-.708.11-.91.2c-.166.074-.285.127-.566.127-.28 0-.4-.052-.567-.126-.2-.09-.45-.2-.91-.2s-.707.11-.908.2c-.167.073-.286.126-.567.126-.28 0-.4-.052-.566-.126-.202-.09-.452-.2-.91-.2s-.708.11-.91.2c-.165.073-.285.126-.566.126-.28 0-.4-.052-.566-.126-.202-.09-.452-.2-.91-.2s-.708.11-.91.2c-.166.073-.286.126-.567.126-.28 0-.4-.052-.566-.126-.205-.09-.456-.2-.91-.2-.46 0-.71.11-.91.2-.17.074-.29.127-.57.127-.28 0-.4-.052-.566-.126-.202-.09-.452-.2-.91-.2-.457 0-.707.11-.908.2-.13.06-.235.105-.408.12.037-.212.02-.44-.067-.655l-1.3-3.235h24.568l-1.306 3.226c-.045.112-.07.228-.08.343-.353.02-.564.113-.74.19zm-5.246 2.9c-.28 0-.4-.052-.566-.125-.2-.09-.452-.2-.91-.2-.457 0-.707.11-.908.2-.166.07-.286.122-.567.122-.28 0-.4-.053-.567-.126-.2-.09-.452-.2-.91-.2s-.708.11-.91.2c-.165.072-.285.125-.565.125-.28 0-.4-.052-.567-.125-.202-.09-.452-.2-.91-.2-.457 0-.707.11-.91.2-.165.072-.285.125-.565.125-.28 0-.4-.052-.567-.125-.2-.09-.45-.2-.91-.2-.456 0-.706.11-.908.2-.166.072-.286.125-.566.125-.28 0-.4-.052-.567-.125-.2-.09-.452-.2-.91-.2-.457 0-.707.11-.908.2-.167.072-.286.125-.567.125-.28 0-.4-.053-.567-.126-.2-.09-.45-.2-.91-.2-.458 0-.708.11-.91.2-.166.072-.285.125-.566.125-.26 0-.47.24-.47.53 0 .295.21.534.47.534.458 0 .708-.11.91-.2.166-.073.286-.126.567-.126.28 0 .4.052.566.126.2.09.452.2.91.2.457 0 .707-.112.908-.2.166-.074.286-.127.567-.127.28 0 .4.052.566.126.205.09.456.2.91.2.46 0 .71-.112.91-.2.168-.074.288-.127.568-.127.28 0 .4.052.567.126.2.09.452.2.91.2.457 0 .707-.112.908-.2.168-.074.287-.127.568-.127.28 0 .4.052.567.126.2.09.452.2.91.2.457 0 .707-.11.91-.2.166-.073.286-.126.566-.126.28 0 .4.052.566.126.2.09.45.2.91.2s.707-.112.91-.2c.165-.074.284-.127.565-.127.28 0 .4.052.567.126.2.09.45.2.908.2.26 0 .472-.24.472-.536 0-.295-.21-.534-.473-.534M3.902 9.49c.143-.136.324-.202.51-.183.13.013.25.064.35.147l.006.016c.073.188.24.31.423.31h.054c.182 0 .35-.12.426-.31l.006-.016c.1-.083.22-.134.35-.147.185-.018.366.047.51.183.2.19.495.16.663-.066.167-.226.142-.563-.058-.753-.337-.32-.763-.47-1.2-.425-.262.026-.51.12-.727.275-.217-.155-.465-.25-.727-.276-.437-.043-.862.11-1.2.43-.197.188-.223.526-.056.752.167.226.464.256.663.066" fill="#3A434E"/></g></svg>