<svg width="32" height="232" viewBox="0 0 32 232" xmlns="http://www.w3.org/2000/svg" xmlns:sketch="http://www.bohemiancoding.com/sketch/ns"><title>vienna</title><desc>Created with Sketch.</desc><g sketch:type="MSPage" fill="none"><g sketch:type="MSShapeGroup"><path d="M6.414 144.064c-.086-.045-.183-.062-.279-.049-.104.014-.201.064-.276.142-.091.095-.142.224-.142.359 0 .191.103.365.265.451.067.035.142.054.216.054.075 0 .149-.018.216-.053l.125-.095c.09-.095.141-.224.141-.359 0-.134-.052-.262-.142-.358l-.124-.093zm-.603-11.956c-.047-.098-.123-.177-.216-.226-.083-.044-.176-.061-.269-.049l-.195.071-.089.072c-.148.154-.185.391-.091.587.047.096.121.174.212.222.067.036.142.055.218.055.128 0 .25-.053.34-.148.147-.154.183-.389.09-.584zm23.69-7.069l-.124-.093c-.086-.045-.184-.062-.279-.049-.104.014-.201.064-.276.142-.091.095-.142.224-.142.359 0 .191.103.365.265.451.067.035.142.054.217.054.075 0 .148-.019.216-.054l.125-.094c.09-.095.141-.225.141-.359 0-.134-.051-.263-.142-.358zm-24.762 15.949l-.4-.23-.219-.42c-.085-.162-.246-.262-.422-.262s-.338.1-.423.262l-.218.42-.4.23c-.154.088-.25.258-.25.442 0 .185.096.355.25.443l.4.23.218.42c.085.162.247.263.423.263s.337-.101.422-.263l.219-.42.4-.23c.155-.088.25-.258.25-.443s-.095-.354-.25-.442zm20.003-18.103l.4.229.218.42c.085.161.247.262.423.262s.337-.101.422-.262l.218-.42.4-.229c.154-.089.25-.259.25-.443 0-.185-.096-.355-.25-.443l-.4-.23-.218-.42c-.085-.162-.246-.262-.422-.262s-.338.101-.423.262l-.219.42-.4.23c-.154.088-.25.259-.25.443 0 .185.096.355.25.443zm-8.523 19.976c-.035-.145-.13-.265-.258-.329-.128-.065-.276-.066-.406-.005l-2.032.963c-.13.062-.226.18-.265.323-.039.143-.015.297.064.421l1.825 2.829c.131.203.383.278.596.177l1.023-.485c.213-.101.326-.349.268-.587l-.814-3.307zm5.749.454c-.508-1.168-1.416-2.066-2.559-2.531-.172-.068-.349-.128-.53-.177-.628-.272-1.125-.776-1.405-1.427-.185-.431-.263-.902-.226-1.37l.086-.336.002-.011.002-.01.039-.217.004-.023.003-.018.003-.029.025-.212.002-.033.004-.065.001-.023.007-.171v-.112l-.004-.165-.007-.119-.015-.163-.014-.114-.027-.169-.002-.012-.018-.096-.04-.171-.004-.016-.024-.093-.058-.189-.003-.01-.024-.073-.105-.271c-.888-2.063-3.21-2.985-5.177-2.053l-.359.171-3.362-7.434-.021-.065-.185-.431 1.031-.489c.242-.114.35-.414.241-.668-.11-.254-.395-.367-.637-.252l-1.031.488-.238-.552 1.031-.489c.242-.114.35-.414.24-.667-.109-.255-.394-.368-.636-.253l-1.031.488-.015-.036c-.038-.088-.098-.158-.169-.208l-.394-1.73c-.031-.138-.117-.256-.234-.324-.38-.383-.949-.493-1.44-.259-.491.233-.789.752-.767 1.304-.029.138-.001.283.077.4l.976 1.453c-.011.09-.001.183.037.271l.016.036-1.031.489c-.242.115-.35.414-.241.668.109.254.394.368.636.252l1.031-.488.238.552-1.031.489c-.242.115-.35.414-.24.668.109.254.394.367.636.252l1.031-.488.185.431.033.059 3.089 7.563-.36.171c-1.966.932-2.844 3.369-1.956 5.433l.121.257.043.079.1.175.044.07.011.017.1.151.061.083.106.137.072.087.109.121.073.077.114.111.01.009.075.069.127.107.012.01.052.043.028.022.168.121.003.002.022.015.004.003.009.005.016.01.181.113.009.005.307.16c.358.281.644.654.829 1.085.279.65.311 1.375.09 2.049-.085.175-.16.354-.224.535-.426 1.211-.383 2.527.124 3.708.822 1.914 2.712 3.06 4.703 2.856l.368-.054c.377-.07.745-.19 1.095-.356l1.376-.652.039.091c.109.254.394.368.636.252.242-.115.35-.414.241-.668l-.039-.091 1.375-.651c.406-.193.784-.445 1.121-.75l.139-.131c1.463-1.43 1.893-3.677 1.07-5.59l-.009-.019zm-6.251 2.829l-1.278-1.98.991-.469.57 2.314-.284.134zm-9.977-23.484l-.849-1.264c-.009-.148.07-.288.201-.349.13-.062.282-.032.382.071l.342 1.505-.077.036zm1.188 2.879l-.834-1.938.16-.076.834 1.938-.16.076zm.395.921l.162-.077 5.801 12.825-.633.3-5.329-13.048zm8.113 23.659l-.022.01c-.241.115-.495.197-.755.246l-.255.037c-.889.092-1.792-.221-2.457-.843.026-.191.079-.373.157-.542.176-.384.476-.697.864-.881.887-.42 1.934-.005 2.334.926.07.163.116.334.139.509.023.178.022.359-.004.537zm4.157-2.67l-.081.075c-.198.18-.42.328-.658.441l-2.514 1.19c-.039-.17-.093-.337-.162-.498-.619-1.438-2.237-2.08-3.607-1.43-.415.196-.766.49-1.032.849-.232-.646-.235-1.351-.005-2.004l.152-.356.053-.125c.417-1.19.373-2.48-.123-3.634-.341-.794-.88-1.474-1.559-1.969l-.187-.106-.214-.108-.007-.003-.088-.056-.011-.007-.013-.009-.078-.055-.017-.013-.041-.033-.068-.056-.025-.024-.016-.015-.058-.056-.039-.041-.054-.06-.038-.046-.053-.069-.029-.04-.05-.075-.031-.049-.046-.081-.026-.047-.061-.129c-.451-1.049-.005-2.288.994-2.761l.326-.154 1.831 4.485c.051.125.148.223.268.272.121.05.255.046.372-.01l1.528-.724.002-.001c.242-.115.35-.413.24-.668l-.024-.049-1.975-4.367.326-.155c1-.474 2.18-.005 2.631 1.043l.051.132.015.047.031.098.014.057.02.087.008.041.002.011.014.087.007.059.007.079.004.063.001.078v.061l-.004.085-.003.058-.001.02-.011.095-.003.022v.003l-.018.106-.001.006-.002.01-.065.24-.047.215c-.096.863.033 1.737.375 2.531.496 1.154 1.39 2.042 2.516 2.5l.125.041.354.115c.674.273 1.209.804 1.506 1.493l.007.016c.476 1.12.222 2.433-.635 3.271zm-4.278-6.463c-.109-.254-.394-.367-.637-.253l-1.859.881c-.242.115-.35.414-.241.668.11.254.395.367.637.252l1.859-.881c.242-.114.35-.414.241-.667zm9.802-1.874l-13.135-15.577c-.176-.208-.48-.228-.679-.043l-.361.335c-.199.184-.217.504-.042.712.173.206.471.227.67.051l.009-.007 12.497 14.821-.352.327-.009.007c-.199.185-.218.504-.042.713.143.17.371.215.558.126l.121-.082.361-.335 1.577 1.869c.143.171.371.215.559.126l.121-.082c.199-.185.217-.504.042-.712l-1.895-2.248zm2.791-11.121l-.004-.036-.014-.047-.015-.047-.017-.033-.027-.052-.029-.037-.029-.037-.034-.028-.04-.034-.029-.017-.055-.03-.004-.002-3.807-1.586c-.148-.062-.316-.042-.448.052-.131.094-.211.25-.211.418v3.89c-.152-.058-.314-.09-.485-.09-.798 0-1.447.682-1.447 1.519 0 .838.649 1.519 1.447 1.519s1.447-.681 1.447-1.519v-2.989l1.802.751 1.044.435v1.96c-.152-.057-.315-.089-.485-.089-.798 0-1.448.681-1.448 1.519 0 .837.649 1.519 1.448 1.519.798 0 1.447-.681 1.447-1.519v-5.3229999999999995l-.006-.064zm-5.248 4.31c-.268 0-.485-.228-.485-.509s.217-.509.485-.509.485.228.485.509-.217.509-.485.509zm3.808 1.586c-.268 0-.485-.229-.485-.509 0-.281.218-.509.485-.509s.485.229.485.509-.218.509-.485.509zm.485-5.356v.371l-.266-.11-2.58-1.075v-.499l2.845 1.185v.128zm-7.819.034c.798 0 1.447-.682 1.447-1.519v-4.684c.259.162.434.458.434.797 0 .278.216.504.481.504.266 0 .481-.226.481-.504 0-1.067-.828-1.936-1.845-1.936l-.016.002-.017-.002c-.266 0-.481.226-.481.506v3.888c-.152-.057-.315-.089-.485-.089-.798 0-1.447.681-1.447 1.519 0 .837.649 1.519 1.447 1.519zm0-2.028c.268 0 .485.228.485.509s-.217.509-.485.509-.485-.228-.485-.509.217-.509.485-.509z" fill="#206FAC"/><path d="M6.414 104.064c-.086-.045-.183-.062-.279-.049-.104.014-.201.064-.276.142-.091.095-.142.224-.142.359 0 .191.103.365.265.451.067.035.142.054.216.054.075 0 .149-.018.216-.053l.125-.095c.09-.095.141-.224.141-.359 0-.134-.052-.262-.142-.358l-.124-.093zm-.603-11.956c-.047-.098-.123-.177-.216-.226-.083-.044-.176-.061-.269-.049l-.195.071-.089.072c-.148.154-.185.391-.091.587.047.096.121.174.212.222.067.036.142.055.218.055.128 0 .25-.053.34-.148.147-.154.183-.389.09-.584zm23.69-7.069l-.124-.093c-.086-.045-.184-.062-.279-.049-.104.014-.201.064-.276.142-.091.095-.142.224-.142.359 0 .191.103.365.265.451.067.035.142.054.217.054.075 0 .148-.019.216-.054l.125-.094c.09-.095.141-.225.141-.359 0-.134-.051-.263-.142-.358zm-24.762 15.949l-.4-.23-.219-.42c-.085-.162-.246-.262-.422-.262s-.338.1-.423.262l-.218.42-.4.23c-.154.088-.25.258-.25.442 0 .185.096.355.25.443l.4.23.218.42c.085.162.247.263.423.263s.337-.101.422-.263l.219-.42.4-.23c.155-.088.25-.258.25-.443s-.095-.354-.25-.442zm20.003-18.103l.4.229.218.42c.085.161.247.262.423.262s.337-.101.422-.262l.218-.42.4-.229c.154-.089.25-.259.25-.443 0-.185-.096-.355-.25-.443l-.4-.23-.218-.42c-.085-.162-.246-.262-.422-.262s-.338.101-.423.262l-.219.42-.4.23c-.154.088-.25.259-.25.443 0 .185.096.355.25.443zm-8.523 19.976c-.035-.145-.13-.265-.258-.329-.128-.065-.276-.066-.406-.005l-2.032.963c-.13.062-.226.18-.265.323-.039.143-.015.297.064.421l1.825 2.829c.131.203.383.278.596.177l1.023-.485c.213-.101.326-.349.268-.587l-.814-3.307zm5.749.454c-.508-1.168-1.416-2.066-2.559-2.531-.172-.068-.349-.128-.53-.177-.628-.272-1.125-.776-1.405-1.427-.185-.431-.263-.902-.226-1.37l.086-.336.002-.011.002-.01.039-.217.004-.023.003-.018.003-.029.025-.212.002-.033.004-.065.001-.023.007-.171v-.112l-.004-.165-.007-.119-.015-.163-.014-.114-.027-.169-.002-.012-.018-.096-.04-.171-.004-.016-.024-.093-.058-.189-.003-.01-.024-.073-.105-.271c-.888-2.063-3.21-2.985-5.177-2.053l-.359.171-3.362-7.434-.021-.065-.185-.431 1.031-.489c.242-.114.35-.414.241-.668-.11-.254-.395-.367-.637-.252l-1.031.488-.238-.552 1.031-.489c.242-.114.35-.414.24-.667-.109-.255-.394-.368-.636-.253l-1.031.488-.015-.036c-.038-.088-.098-.158-.169-.208l-.394-1.73c-.031-.138-.117-.256-.234-.324-.38-.383-.949-.493-1.44-.259-.491.233-.789.752-.767 1.304-.029.138-.001.283.077.4l.976 1.453c-.011.09-.001.183.037.271l.016.036-1.031.489c-.242.115-.35.414-.241.668.109.254.394.368.636.252l1.031-.488.238.552-1.031.489c-.242.115-.35.414-.24.668.109.254.394.367.636.252l1.031-.488.185.431.033.059 3.089 7.563-.36.171c-1.966.932-2.844 3.369-1.956 5.433l.121.257.043.079.1.175.044.07.011.017.1.151.061.083.106.137.072.087.109.121.073.077.114.111.01.009.075.069.127.107.012.01.052.043.028.022.168.121.003.002.022.015.004.003.009.005.016.01.181.113.009.005.307.16c.358.281.644.654.829 1.085.279.65.311 1.375.09 2.049-.085.175-.16.354-.224.535-.426 1.211-.383 2.527.124 3.708.822 1.914 2.712 3.06 4.703 2.856l.368-.054c.377-.07.745-.19 1.095-.356l1.376-.652.039.091c.109.254.394.368.636.252.242-.115.35-.414.241-.668l-.039-.091 1.375-.651c.406-.193.784-.445 1.121-.75l.139-.131c1.463-1.43 1.893-3.677 1.07-5.59l-.009-.019zm-6.251 2.829l-1.278-1.98.991-.469.57 2.314-.284.134zm-9.977-23.484l-.849-1.264c-.009-.148.07-.288.201-.349.13-.062.282-.032.382.071l.342 1.505-.077.036zm1.188 2.879l-.834-1.938.16-.076.834 1.938-.16.076zm.395.921l.162-.077 5.801 12.825-.633.3-5.329-13.048zm8.113 23.659l-.022.01c-.241.115-.495.197-.755.246l-.255.037c-.889.092-1.792-.221-2.457-.843.026-.191.079-.373.157-.542.176-.384.476-.697.864-.881.887-.42 1.934-.005 2.334.926.07.163.116.334.139.509.023.178.022.359-.004.537zm4.157-2.67l-.081.075c-.198.18-.42.328-.658.441l-2.514 1.19c-.039-.17-.093-.337-.162-.498-.619-1.438-2.237-2.08-3.607-1.43-.415.196-.766.49-1.032.849-.232-.646-.235-1.351-.005-2.004l.152-.356.053-.125c.417-1.19.373-2.48-.123-3.634-.341-.794-.88-1.474-1.559-1.969l-.187-.106-.214-.108-.007-.003-.088-.056-.011-.007-.013-.009-.078-.055-.017-.013-.041-.033-.068-.056-.025-.024-.016-.015-.058-.056-.039-.041-.054-.06-.038-.046-.053-.069-.029-.04-.05-.075-.031-.049-.046-.081-.026-.047-.061-.129c-.451-1.049-.005-2.288.994-2.761l.326-.154 1.831 4.485c.051.125.148.223.268.272.121.05.255.046.372-.01l1.528-.724.002-.001c.242-.115.35-.413.24-.668l-.024-.049-1.975-4.367.326-.155c1-.474 2.18-.005 2.631 1.043l.051.132.015.047.031.098.014.057.02.087.008.041.002.011.014.087.007.059.007.079.004.063.001.078v.061l-.004.085-.003.058-.001.02-.011.095-.003.022v.003l-.018.106-.001.006-.002.01-.065.24-.047.215c-.096.863.033 1.737.375 2.531.496 1.154 1.39 2.042 2.516 2.5l.125.041.354.115c.674.273 1.209.804 1.506 1.493l.007.016c.476 1.12.222 2.433-.635 3.271zm-4.278-6.463c-.109-.254-.394-.367-.637-.253l-1.859.881c-.242.115-.35.414-.241.668.11.254.395.367.637.252l1.859-.881c.242-.114.35-.414.241-.667zm9.802-1.874l-13.135-15.577c-.176-.208-.48-.228-.679-.043l-.361.335c-.199.184-.217.504-.042.712.173.206.471.227.67.051l.009-.007 12.497 14.821-.352.327-.009.007c-.199.185-.218.504-.042.713.143.17.371.215.558.126l.121-.082.361-.335 1.577 1.869c.143.171.371.215.559.126l.121-.082c.199-.185.217-.504.042-.712l-1.895-2.248zm2.791-11.121l-.004-.036-.014-.047-.015-.047-.017-.033-.027-.052-.029-.037-.029-.037-.034-.028-.04-.034-.029-.017-.055-.03-.004-.002-3.807-1.586c-.148-.062-.316-.042-.448.052-.131.094-.211.25-.211.418v3.89c-.152-.058-.314-.09-.485-.09-.798 0-1.447.682-1.447 1.519 0 .838.649 1.519 1.447 1.519s1.447-.681 1.447-1.519v-2.989l1.802.751 1.044.435v1.96c-.152-.057-.315-.089-.485-.089-.798 0-1.448.681-1.448 1.519 0 .837.649 1.519 1.448 1.519.798 0 1.447-.681 1.447-1.519v-5.3229999999999995l-.006-.064zm-5.248 4.31c-.268 0-.485-.228-.485-.509s.217-.509.485-.509.485.228.485.509-.217.509-.485.509zm3.808 1.586c-.268 0-.485-.229-.485-.509 0-.281.218-.509.485-.509s.485.229.485.509-.218.509-.485.509zm.485-5.356v.371l-.266-.11-2.58-1.075v-.499l2.845 1.185v.128zm-7.819.034c.798 0 1.447-.682 1.447-1.519v-4.684c.259.162.434.458.434.797 0 .278.216.504.481.504.266 0 .481-.226.481-.504 0-1.067-.828-1.936-1.845-1.936l-.016.002-.017-.002c-.266 0-.481.226-.481.506v3.888c-.152-.057-.315-.089-.485-.089-.798 0-1.447.681-1.447 1.519 0 .837.649 1.519 1.447 1.519zm0-2.028c.268 0 .485.228.485.509s-.217.509-.485.509-.485-.228-.485-.509.217-.509.485-.509z" fill="#fff"/><path d="M6.414 64.064c-.086-.045-.183-.062-.279-.049-.104.014-.201.064-.276.142-.091.095-.142.224-.142.359 0 .191.103.365.265.451.067.035.142.054.216.054.075 0 .149-.018.216-.053l.125-.095c.09-.095.141-.224.141-.359 0-.134-.052-.262-.142-.358l-.124-.093zm-.603-11.956c-.047-.098-.123-.177-.216-.226-.083-.044-.176-.061-.269-.049l-.195.071-.089.072c-.148.154-.185.391-.091.587.047.096.121.174.212.222.067.036.142.055.218.055.128 0 .25-.053.34-.148.147-.154.183-.389.09-.584zm23.69-7.069l-.124-.093c-.086-.045-.184-.062-.279-.049-.104.014-.201.064-.276.142-.091.095-.142.224-.142.359 0 .191.103.365.265.451.067.035.142.054.217.054.075 0 .148-.019.216-.054l.125-.094c.09-.095.141-.225.141-.359 0-.134-.051-.263-.142-.358zm-24.762 15.949l-.4-.23-.219-.42c-.085-.162-.246-.262-.422-.262s-.338.1-.423.262l-.218.42-.4.23c-.154.088-.25.258-.25.442 0 .185.096.355.25.443l.4.23.218.42c.085.162.247.263.423.263s.337-.101.422-.263l.219-.42.4-.23c.155-.088.25-.258.25-.443s-.095-.354-.25-.442zm20.003-18.103l.4.229.218.42c.085.161.247.262.423.262s.337-.101.422-.262l.218-.42.4-.229c.154-.089.25-.259.25-.443 0-.185-.096-.355-.25-.443l-.4-.23-.218-.42c-.085-.162-.246-.262-.422-.262s-.338.101-.423.262l-.219.42-.4.23c-.154.088-.25.259-.25.443 0 .185.096.355.25.443zm-8.523 19.976c-.035-.145-.13-.265-.258-.329-.128-.065-.276-.066-.406-.005l-2.032.963c-.13.062-.226.18-.265.323-.039.143-.015.297.064.421l1.825 2.829c.131.203.383.278.596.177l1.023-.485c.213-.101.326-.349.268-.587l-.814-3.307zm5.749.454c-.508-1.168-1.416-2.066-2.559-2.531-.172-.068-.349-.128-.53-.177-.628-.272-1.125-.776-1.405-1.427-.185-.431-.263-.902-.226-1.37l.086-.336.002-.011.002-.01.039-.217.004-.023.003-.018.003-.029.025-.212.002-.033.004-.065.001-.023.007-.171v-.112l-.004-.165-.007-.119-.015-.163-.014-.114-.027-.169-.002-.012-.018-.096-.04-.171-.004-.016-.024-.093-.058-.189-.003-.01-.024-.073-.105-.271c-.888-2.063-3.21-2.985-5.177-2.053l-.359.171-3.362-7.434-.021-.065-.185-.431 1.031-.489c.242-.114.35-.414.241-.668-.11-.254-.395-.367-.637-.252l-1.031.488-.238-.552 1.031-.489c.242-.114.35-.414.24-.667-.109-.255-.394-.368-.636-.253l-1.031.488-.015-.036c-.038-.088-.098-.158-.169-.208l-.394-1.73c-.031-.138-.117-.256-.234-.324-.38-.383-.949-.493-1.44-.259-.491.233-.789.752-.767 1.304-.029.138-.001.283.077.4l.976 1.453c-.011.09-.001.183.037.271l.016.036-1.031.489c-.242.115-.35.414-.241.668.109.254.394.368.636.252l1.031-.488.238.552-1.031.489c-.242.115-.35.414-.24.668.109.254.394.367.636.252l1.031-.488.185.431.033.059 3.089 7.563-.36.171c-1.966.932-2.844 3.369-1.956 5.433l.121.257.043.079.1.175.044.07.011.017.1.151.061.083.106.137.072.087.109.121.073.077.114.111.01.009.075.069.127.107.012.01.052.043.028.022.168.121.003.002.022.015.004.003.009.005.016.01.181.113.009.005.307.16c.358.281.644.654.829 1.085.279.65.311 1.375.09 2.049-.085.175-.16.354-.224.535-.426 1.211-.383 2.527.124 3.708.822 1.914 2.712 3.06 4.703 2.856l.368-.054c.377-.07.745-.19 1.095-.356l1.376-.652.039.091c.109.254.394.368.636.252.242-.115.35-.414.241-.668l-.039-.091 1.375-.651c.406-.193.784-.445 1.121-.75l.139-.131c1.463-1.43 1.893-3.677 1.07-5.59l-.009-.019zm-6.251 2.829l-1.278-1.98.991-.469.57 2.314-.284.134zm-9.977-23.484l-.849-1.264c-.009-.148.07-.288.201-.349.13-.062.282-.032.382.071l.342 1.505-.077.036zm1.188 2.879l-.834-1.938.16-.076.834 1.938-.16.076zm.395.921l.162-.077 5.801 12.825-.633.3-5.329-13.048zm8.113 23.659l-.022.01c-.241.115-.495.197-.755.246l-.255.037c-.889.092-1.792-.221-2.457-.843.026-.191.079-.373.157-.542.176-.384.476-.697.864-.881.887-.42 1.934-.005 2.334.926.07.163.116.334.139.509.023.178.022.359-.004.537zm4.157-2.67l-.081.075c-.198.18-.42.328-.658.441l-2.514 1.19c-.039-.17-.093-.337-.162-.498-.619-1.438-2.237-2.08-3.607-1.43-.415.196-.766.49-1.032.849-.232-.646-.235-1.351-.005-2.004l.152-.356.053-.125c.417-1.19.373-2.48-.123-3.634-.341-.794-.88-1.474-1.559-1.969l-.187-.106-.214-.108-.007-.003-.088-.056-.011-.007-.013-.009-.078-.055-.017-.013-.041-.033-.068-.056-.025-.024-.016-.015-.058-.056-.039-.041-.054-.06-.038-.046-.053-.069-.029-.04-.05-.075-.031-.049-.046-.081-.026-.047-.061-.129c-.451-1.049-.005-2.288.994-2.761l.326-.154 1.831 4.485c.051.125.148.223.268.272.121.05.255.046.372-.01l1.528-.724.002-.001c.242-.115.35-.413.24-.668l-.024-.049-1.975-4.367.326-.155c1-.474 2.18-.005 2.631 1.043l.051.132.015.047.031.098.014.057.02.087.008.041.002.011.014.087.007.059.007.079.004.063.001.078v.061l-.004.085-.003.058-.001.02-.011.095-.003.022v.003l-.018.106-.001.006-.002.01-.065.24-.047.215c-.096.863.033 1.737.375 2.531.496 1.154 1.39 2.042 2.516 2.5l.125.041.354.115c.674.273 1.209.804 1.506 1.493l.007.016c.476 1.12.222 2.433-.635 3.271zm-4.278-6.463c-.109-.254-.394-.367-.637-.253l-1.859.881c-.242.115-.35.414-.241.668.11.254.395.367.637.252l1.859-.881c.242-.114.35-.414.241-.667zm9.802-1.874l-13.135-15.577c-.176-.208-.48-.228-.679-.043l-.361.335c-.199.184-.217.504-.042.712.173.206.471.227.67.051l.009-.007 12.497 14.821-.352.327-.009.007c-.199.185-.218.504-.042.713.143.17.371.215.558.126l.121-.082.361-.335 1.577 1.869c.143.171.371.215.559.126l.121-.082c.199-.185.217-.504.042-.712l-1.895-2.248zm2.791-11.121l-.004-.036-.014-.047-.015-.047-.017-.033-.027-.052-.029-.037-.029-.037-.034-.028-.04-.034-.029-.017-.055-.03-.004-.002-3.807-1.586c-.148-.062-.316-.042-.448.052-.131.094-.211.25-.211.418v3.89c-.152-.058-.314-.09-.485-.09-.798 0-1.447.682-1.447 1.519 0 .838.649 1.519 1.447 1.519s1.447-.681 1.447-1.519v-2.989l1.802.751 1.044.435v1.96c-.152-.057-.315-.089-.485-.089-.798 0-1.448.681-1.448 1.519 0 .837.649 1.519 1.448 1.519.798 0 1.447-.681 1.447-1.519v-5.3229999999999995l-.006-.064zm-5.248 4.31c-.268 0-.485-.228-.485-.509s.217-.509.485-.509.485.228.485.509-.217.509-.485.509zm3.808 1.586c-.268 0-.485-.229-.485-.509 0-.281.218-.509.485-.509s.485.229.485.509-.218.509-.485.509zm.485-5.356v.371l-.266-.11-2.58-1.075v-.499l2.845 1.185v.128zm-7.819.034c.798 0 1.447-.682 1.447-1.519v-4.684c.259.162.434.458.434.797 0 .278.216.504.481.504.266 0 .481-.226.481-.504 0-1.067-.828-1.936-1.845-1.936l-.016.002-.017-.002c-.266 0-.481.226-.481.506v3.888c-.152-.057-.315-.089-.485-.089-.798 0-1.447.681-1.447 1.519 0 .837.649 1.519 1.447 1.519zm0-2.028c.268 0 .485.228.485.509s-.217.509-.485.509-.485-.228-.485-.509.217-.509.485-.509z" fill="#67737B"/><path d="M6.414 24.064c-.086-.045-.183-.062-.279-.049-.104.014-.201.064-.276.142-.091.095-.142.224-.142.359 0 .191.103.365.265.451.067.035.142.054.216.054.075 0 .149-.018.216-.053l.125-.095c.09-.095.141-.224.141-.359 0-.134-.052-.262-.142-.358l-.124-.093zm-.603-11.956c-.047-.098-.123-.177-.216-.226-.083-.044-.176-.061-.269-.049l-.195.071-.089.072c-.148.154-.185.391-.091.587.047.096.121.174.212.222.067.036.142.055.218.055.128 0 .25-.053.34-.148.147-.154.183-.389.09-.584zm23.69-7.069l-.124-.093c-.086-.045-.184-.062-.279-.049-.104.014-.201.064-.276.142-.091.095-.142.224-.142.359 0 .191.103.365.265.451.067.035.142.054.217.054.075 0 .148-.019.216-.054l.125-.094c.09-.095.141-.225.141-.359 0-.134-.051-.263-.142-.358zm-24.762 15.949l-.4-.23-.219-.42c-.085-.162-.246-.262-.422-.262s-.338.1-.423.262l-.218.42-.4.23c-.154.088-.25.258-.25.442 0 .185.096.355.25.443l.4.23.218.42c.085.162.247.263.423.263s.337-.101.422-.263l.219-.42.4-.23c.155-.088.25-.258.25-.443s-.095-.354-.25-.442zm20.003-18.103l.4.229.218.42c.085.161.247.262.423.262s.337-.101.422-.262l.218-.42.4-.229c.154-.089.25-.259.25-.443 0-.185-.096-.355-.25-.443l-.4-.23-.218-.42c-.085-.162-.246-.262-.422-.262s-.338.101-.423.262l-.219.42-.4.23c-.154.088-.25.259-.25.443 0 .185.096.355.25.443zm-8.523 19.976c-.035-.145-.13-.265-.258-.329-.128-.065-.276-.066-.406-.005l-2.032.963c-.13.062-.226.18-.265.323-.039.143-.015.297.064.421l1.825 2.829c.131.203.383.278.596.177l1.023-.485c.213-.101.326-.349.268-.587l-.814-3.307zm5.749.454c-.508-1.168-1.416-2.066-2.559-2.531-.172-.068-.349-.128-.53-.177-.628-.272-1.125-.776-1.405-1.427-.185-.431-.263-.902-.226-1.37l.086-.336.002-.011.002-.01.039-.217.004-.023.003-.018.003-.029.025-.212.002-.033.004-.065.001-.023.007-.171v-.112l-.004-.165-.007-.119-.015-.163-.014-.114-.027-.169-.002-.012-.018-.096-.04-.171-.004-.016-.024-.093-.058-.189-.003-.01-.024-.073-.105-.271c-.888-2.063-3.21-2.985-5.177-2.053l-.359.171-3.362-7.434-.021-.065-.185-.431 1.031-.489c.242-.114.35-.414.241-.668-.11-.254-.395-.367-.637-.252l-1.031.488-.238-.552 1.031-.489c.242-.114.35-.414.24-.667-.109-.255-.394-.368-.636-.253l-1.031.488-.015-.036c-.038-.088-.098-.158-.169-.208l-.394-1.73c-.031-.138-.117-.256-.234-.324-.38-.383-.949-.493-1.44-.259-.491.233-.789.752-.767 1.304-.029.138-.001.283.077.4l.976 1.453c-.011.09-.001.183.037.271l.016.036-1.031.489c-.242.115-.35.414-.241.668.109.254.394.368.636.252l1.031-.488.238.552-1.031.489c-.242.115-.35.414-.24.668.109.254.394.367.636.252l1.031-.488.185.431.033.059 3.089 7.563-.36.171c-1.966.932-2.844 3.369-1.956 5.433l.121.257.043.079.1.175.044.07.011.017.1.151.061.083.106.137.072.087.109.121.073.077.114.111.01.009.075.069.127.107.012.01.052.043.028.022.168.121.003.002.022.015.004.003.009.005.016.01.181.113.009.005.307.16c.358.281.644.654.829 1.085.279.65.311 1.375.09 2.049-.085.175-.16.354-.224.535-.426 1.211-.383 2.527.124 3.708.822 1.914 2.712 3.06 4.703 2.856l.368-.054c.377-.07.745-.19 1.095-.356l1.376-.652.039.091c.109.254.394.368.636.252.242-.115.35-.414.241-.668l-.039-.091 1.375-.651c.406-.193.784-.445 1.121-.75l.139-.131c1.463-1.43 1.893-3.677 1.07-5.59l-.009-.019zm-6.251 2.829l-1.278-1.98.991-.469.57 2.314-.284.134zm-9.977-23.484l-.849-1.264c-.009-.148.07-.288.201-.349.13-.062.282-.032.382.071l.342 1.505-.077.036zm1.188 2.879l-.834-1.938.16-.076.834 1.938-.16.076zm.395.921l.162-.077 5.801 12.825-.633.3-5.329-13.048zm8.113 23.659l-.022.01c-.241.115-.495.197-.755.246l-.255.037c-.889.092-1.792-.221-2.457-.843.026-.191.079-.373.157-.542.176-.384.476-.697.864-.881.887-.42 1.934-.005 2.334.926.07.163.116.334.139.509.023.178.022.359-.004.537zm4.157-2.67l-.081.075c-.198.18-.42.328-.658.441l-2.514 1.19c-.039-.17-.093-.337-.162-.498-.619-1.438-2.237-2.08-3.607-1.43-.415.196-.766.49-1.032.849-.232-.646-.235-1.351-.005-2.004l.152-.356.053-.125c.417-1.19.373-2.48-.123-3.634-.341-.794-.88-1.474-1.559-1.969l-.187-.106-.214-.108-.007-.003-.088-.056-.011-.007-.013-.009-.078-.055-.017-.013-.041-.033-.068-.056-.025-.024-.016-.015-.058-.056-.039-.041-.054-.06-.038-.046-.053-.069-.029-.04-.05-.075-.031-.049-.046-.081-.026-.047-.061-.129c-.451-1.049-.005-2.288.994-2.761l.326-.154 1.831 4.485c.051.125.148.223.268.272.121.05.255.046.372-.01l1.528-.724.002-.001c.242-.115.35-.413.24-.668l-.024-.049-1.975-4.367.326-.155c1-.474 2.18-.005 2.631 1.043l.051.132.015.047.031.098.014.057.02.087.008.041.002.011.014.087.007.059.007.079.004.063.001.078v.061l-.004.085-.003.058-.001.02-.011.095-.003.022v.003l-.018.106-.001.006-.002.01-.065.24-.047.215c-.096.863.033 1.737.375 2.531.496 1.154 1.39 2.042 2.516 2.5l.125.041.354.115c.674.273 1.209.804 1.506 1.493l.007.016c.476 1.12.222 2.433-.635 3.271zm-4.278-6.463c-.109-.254-.394-.367-.637-.253l-1.859.881c-.242.115-.35.414-.241.668.11.254.395.367.637.252l1.859-.881c.242-.114.35-.414.241-.667zm9.802-1.874l-13.135-15.577c-.176-.208-.48-.228-.679-.043l-.361.335c-.199.184-.217.504-.042.712.173.206.471.227.67.051l.009-.007 12.497 14.821-.352.327-.009.007c-.199.185-.218.504-.042.713.143.17.371.215.558.126l.121-.082.361-.335 1.577 1.869c.143.171.371.215.559.126l.121-.082c.199-.185.217-.504.042-.712l-1.895-2.248zm2.791-11.121l-.004-.036-.014-.047-.015-.047-.017-.033-.027-.052-.029-.037-.029-.037-.034-.028-.04-.034-.029-.017-.055-.03-.004-.002-3.807-1.586c-.148-.062-.316-.042-.448.052-.131.094-.211.25-.211.418v3.89c-.152-.058-.314-.09-.485-.09-.798 0-1.447.682-1.447 1.519 0 .838.649 1.519 1.447 1.519s1.447-.681 1.447-1.519v-2.989l1.802.751 1.044.435v1.96c-.152-.057-.315-.089-.485-.089-.798 0-1.448.681-1.448 1.519 0 .837.649 1.519 1.448 1.519.798 0 1.447-.681 1.447-1.519v-5.3229999999999995l-.006-.064zm-5.248 4.31c-.268 0-.485-.228-.485-.509s.217-.509.485-.509.485.228.485.509-.217.509-.485.509zm3.808 1.586c-.268 0-.485-.229-.485-.509 0-.281.218-.509.485-.509s.485.229.485.509-.218.509-.485.509zm.485-5.356v.371l-.266-.11-2.58-1.075v-.499l2.845 1.185v.128zm-7.819.034c.798 0 1.447-.682 1.447-1.519v-4.684c.259.162.434.458.434.797 0 .278.216.504.481.504.266 0 .481-.226.481-.504 0-1.067-.828-1.936-1.845-1.936l-.016.002-.017-.002c-.266 0-.481.226-.481.506v3.888c-.152-.057-.315-.089-.485-.089-.798 0-1.447.681-1.447 1.519 0 .837.649 1.519 1.447 1.519zm0-2.028c.268 0 .485.228.485.509s-.217.509-.485.509-.485-.228-.485-.509.217-.509.485-.509z" fill="#3A434E"/></g></g></svg>