<svg width="32" height="232" viewBox="0 0 32 232" xmlns="http://www.w3.org/2000/svg"><desc>Created with Sketch.</desc><g fill="none"><path d="M31.945 144.016c-.12-.64-.69-1.05-1.273-.918l-.392.075c-3.42-.438-4.414-3.49-5.548-6.987-.808-2.492-1.643-5.068-3.426-7.023-3.685-4.042-9.237-4.066-12.03-1.455-.426-.334-1.082-.902-1.407-1.397-.33-.49-.448-1.485-.48-2.03.84-1.13.848-2.86.848-2.932 0-.175-.07-.34-.194-.452-.122-.112-.284-.16-.44-.128-2.323.46-3.366 1.834-3.727 2.455-.877.22-1.578 1.237-1.82 1.63l-1.78 1.055c-.175.104-.284.303-.284.52 0 .737.21 1.304.627 1.686.84.77 2.37.666 4.717.21l.753 2.926c.067.26.282.43.518.43l.148-.023c.286-.088.453-.414.373-.728l-.884-3.444c-.08-.314-.378-.497-.664-.41l-.113.053h-.175c-1.653.327-3.42.592-3.982.077-.076-.07-.17-.188-.216-.444l1.592-.944c.082-.05.15-.12.2-.21.285-.503.9-1.246 1.32-1.246.21 0 .403-.14.49-.346.026-.06.573-1.3 2.385-1.9-.083.497-.258 1.13-.626 1.54-.1.112-.158.264-.156.422.003.196.045 1.947.686 2.925.616.937 1.92 1.873 1.978 1.912l.147.072c.198.094.436.055.598-.12 1.098-1.206 2.93-1.865 4.908-1.765 2.217.112 4.32 1.14 5.92 2.898 1.61 1.77 2.408 4.217 3.175 6.586.732 2.256 1.48 4.557 2.96 6.076-1.96-.92-3.498-2.84-3.96-5.3-.107-.56-.56-.957-1.086-.94-.523.014-.96.44-1.036 1.005 0 .008-.126.867-.57 1.714-.544 1.034-1.282 1.538-2.258 1.538h-.026l-.067.006-.05.006-.052.008-.06.015-.03.008-.013.005-.065.023-.04.016-.054.026-.043.023-.043.026-.05.033-.033.026-.05.04-.03.028-.05.05-.03.03-.04.05-.03.043-.032.05-.03.05-.023.043-.028.06-.02.042-.02.06-.017.046-.015.06-.014.056-.006.05-.01.07-.003.04-.002.078v.015l.002.03v.07l.007.056.01.057.013.07.007.03.966 3.847c.132.523.565.866 1.038.866.098 0 .19-.014.29-.042.574-.173.91-.823.753-1.452l-.643-2.56c1-.323 1.847-1.016 2.5-2.057 1.575 2.964 4.502 4.843 7.677 4.843.593 0 1.195-.067 1.798-.203.582-.132.957-.756.837-1.396zm-14.74 3.154c-1.692-1.046-6.085-4.556-6.085-8.185 0-1.944.477-3.325 1.417-4.1 1.818-1.502 4.9-.556 4.932-.546.565.18 1.162-.18 1.33-.807.166-.626-.16-1.282-.73-1.465-.17-.054-4.137-1.29-6.82.92-1.518 1.245-2.288 3.262-2.288 5.994 0 2.473 1.235 4.964 3.668 7.403.76.76 1.514 1.39 2.13 1.863-1.287.21-2.957.75-4.21 2.123-.21.23-.21.605 0 .836.106.116.244.173.38.173s.278-.056.38-.17c1.598-1.75 4.135-1.9 5.013-1.896.115.044.233.068.35.068.377 0 .743-.217.94-.602.29-.567.107-1.287-.41-1.607zM8.85 130.204c-.29-.07-.578.133-.64.452l-.667 3.373c-.71-.845-1.52-1.35-2.424-1.52-1.898-.35-3.457.96-3.52 1.02-.236.2-.277.57-.095.824.182.257.52.303.755.104.013-.01 1.265-1.053 2.686-.784.917.173 1.732.86 2.424 2.038.1.17.27.27.45.27l.098-.008c.214-.043.385-.223.43-.456l.913-4.614c.066-.318-.12-.633-.41-.702zM3.4 125.52c0 .227.168.412.376.412s.377-.185.377-.414c0-.23-.168-.414-.376-.414s-.377.185-.377.413z" fill="#206FAC"/><path d="M31.945 104.016c-.12-.64-.69-1.05-1.273-.918l-.392.075c-3.42-.438-4.414-3.49-5.548-6.987-.808-2.492-1.643-5.068-3.426-7.023-3.685-4.042-9.237-4.066-12.03-1.455-.426-.334-1.082-.902-1.407-1.397-.33-.49-.448-1.485-.48-2.03.84-1.13.848-2.86.848-2.932 0-.175-.07-.34-.194-.452-.122-.112-.284-.16-.44-.128-2.323.46-3.366 1.834-3.727 2.455-.877.22-1.578 1.237-1.82 1.63l-1.78 1.05c-.174.105-.283.304-.283.52 0 .738.21 1.305.627 1.687.84.77 2.37.664 4.718.207l.754 2.927c.067.26.282.43.518.43l.147-.022c.285-.088.452-.414.372-.728l-.885-3.442c-.08-.314-.378-.497-.664-.41l-.112.053h-.173c-1.653.328-3.42.593-3.982.078-.076-.07-.17-.188-.216-.444l1.59-.947c.084-.05.153-.12.203-.208.284-.504.9-1.247 1.32-1.247.21 0 .402-.14.49-.348.025-.06.572-1.3 2.384-1.9-.083.498-.258 1.13-.626 1.54-.1.113-.156.265-.154.423.003.196.045 1.947.686 2.925.615.938 1.92 1.874 1.977 1.913l.146.074c.198.095.436.056.598-.12 1.1-1.205 2.93-1.864 4.91-1.764 2.214.112 4.317 1.14 5.92 2.898 1.61 1.768 2.405 4.216 3.172 6.585.732 2.257 1.48 4.558 2.96 6.077-1.96-.918-3.498-2.84-3.96-5.3-.107-.56-.56-.956-1.086-.94-.523.015-.96.44-1.036 1.006 0 .008-.126.867-.57 1.714-.544 1.034-1.282 1.538-2.258 1.538h-.026l-.066.005-.05.006-.052.01-.063.014-.03.007-.013.007-.065.023-.04.016-.055.027-.043.024-.044.027-.05.033-.032.027-.05.04-.03.028-.048.05-.03.03-.04.05-.03.044-.032.048-.03.052-.023.042-.027.06-.02.042-.02.06-.017.047-.014.058-.014.057-.008.05-.01.068-.003.042-.002.077v.013l.002.03.002.072.005.055.01.057.013.07.008.03.966 3.847c.132.523.565.866 1.038.866.096 0 .19-.015.288-.043.574-.174.91-.824.753-1.453l-.642-2.56c1-.324 1.848-1.017 2.5-2.058 1.576 2.963 4.503 4.842 7.678 4.842.593 0 1.195-.066 1.798-.202.582-.132.957-.756.837-1.396zm-14.74 3.154c-1.692-1.046-6.085-4.556-6.085-8.185 0-1.944.477-3.325 1.417-4.1 1.818-1.502 4.9-.556 4.932-.546.565.18 1.162-.18 1.33-.807.166-.626-.16-1.282-.73-1.465-.17-.054-4.137-1.29-6.82.92C9.73 94.233 8.96 96.25 8.96 98.982c0 2.473 1.235 4.964 3.668 7.403.76.76 1.514 1.39 2.13 1.863-1.287.21-2.957.75-4.21 2.123-.21.23-.21.605 0 .836.106.116.244.173.38.173s.278-.056.38-.17c1.598-1.75 4.135-1.9 5.013-1.896.115.044.233.068.35.068.377 0 .743-.217.94-.602.29-.567.107-1.287-.41-1.607zM8.85 90.204c-.29-.07-.578.133-.64.452l-.67 3.374c-.71-.842-1.52-1.35-2.424-1.52-1.895-.35-3.454.964-3.52 1.02-.233.2-.274.57-.092.827.182.257.52.303.755.104.01-.01 1.26-1.05 2.682-.78.917.173 1.732.86 2.424 2.038.1.17.27.27.45.27l.097-.008c.214-.044.385-.224.43-.457l.913-4.615c.063-.318-.122-.633-.412-.702zM3.4 85.52c0 .227.168.412.376.412s.377-.185.377-.414c0-.23-.168-.414-.376-.414s-.377.185-.377.413z" fill="#fff"/><path d="M31.945 64.016c-.12-.64-.69-1.05-1.273-.918l-.392.075c-3.42-.438-4.414-3.49-5.548-6.987-.808-2.492-1.643-5.068-3.426-7.023-3.685-4.042-9.237-4.066-12.03-1.455-.426-.334-1.082-.902-1.407-1.397-.33-.49-.448-1.485-.48-2.03.84-1.13.848-2.86.848-2.932 0-.175-.07-.34-.194-.452-.122-.112-.284-.16-.44-.128-2.323.46-3.366 1.834-3.727 2.455-.877.22-1.578 1.237-1.82 1.63l-1.78 1.05c-.174.105-.283.304-.283.52 0 .738.21 1.305.627 1.687.84.77 2.37.664 4.718.207l.754 2.927c.067.26.282.43.518.43l.147-.022c.285-.088.452-.414.372-.728l-.885-3.442c-.08-.314-.378-.497-.664-.41l-.112.053h-.173c-1.653.328-3.42.593-3.982.078-.076-.07-.17-.188-.216-.444l1.59-.947c.084-.05.153-.12.203-.208.284-.504.9-1.247 1.32-1.247.21 0 .402-.14.49-.348.025-.06.572-1.3 2.384-1.9-.083.498-.258 1.13-.626 1.54-.1.113-.156.265-.154.423.003.196.045 1.947.686 2.925.615.938 1.92 1.874 1.977 1.913l.146.074c.198.095.436.056.598-.12 1.1-1.205 2.93-1.864 4.91-1.764 2.214.112 4.317 1.14 5.92 2.898 1.61 1.768 2.405 4.216 3.172 6.585.732 2.257 1.48 4.558 2.96 6.077-1.96-.918-3.498-2.84-3.96-5.3-.107-.56-.56-.956-1.086-.94-.523.015-.96.44-1.036 1.006 0 .008-.126.867-.57 1.714-.544 1.034-1.282 1.538-2.258 1.538h-.026l-.066.005-.05.006-.052.01-.063.014-.03.007-.013.007-.065.023-.04.016-.055.027-.043.024-.044.027-.05.033-.032.027-.05.04-.03.028-.048.05-.03.03-.04.05-.03.044-.032.048-.03.052-.023.042-.027.06-.02.042-.02.06-.017.047-.014.058-.014.057-.008.05-.01.068-.003.042-.002.077v.013l.002.03.002.072.005.055.01.057.013.07.008.03.966 3.847c.132.523.565.866 1.038.866.096 0 .19-.015.288-.043.574-.174.91-.824.753-1.453l-.642-2.56c1-.324 1.848-1.017 2.5-2.058 1.576 2.963 4.503 4.842 7.678 4.842.593 0 1.195-.066 1.798-.202.582-.132.957-.756.837-1.396zm-14.74 3.154c-1.692-1.046-6.085-4.556-6.085-8.185 0-1.944.477-3.325 1.417-4.1 1.818-1.502 4.9-.556 4.932-.546.565.18 1.162-.18 1.33-.807.166-.626-.16-1.282-.73-1.465-.17-.054-4.137-1.29-6.82.92C9.73 54.233 8.96 56.25 8.96 58.982c0 2.473 1.235 4.964 3.668 7.403.76.76 1.514 1.39 2.13 1.863-1.287.21-2.957.75-4.21 2.123-.21.23-.21.605 0 .836.106.116.244.173.38.173s.278-.056.38-.17c1.598-1.75 4.135-1.9 5.013-1.896.115.044.233.068.35.068.377 0 .743-.217.94-.602.29-.567.107-1.287-.41-1.607zM8.85 50.204c-.29-.07-.578.133-.64.452l-.67 3.374c-.71-.842-1.52-1.35-2.424-1.52-1.895-.35-3.454.964-3.52 1.02-.233.2-.274.57-.092.827.182.257.52.303.755.104.01-.01 1.26-1.05 2.682-.78.917.173 1.732.86 2.424 2.038.1.17.27.27.45.27l.097-.008c.214-.044.385-.224.43-.457l.913-4.615c.063-.318-.122-.633-.412-.702zM3.4 45.52c0 .227.168.412.376.412s.377-.185.377-.414c0-.23-.168-.414-.376-.414s-.377.185-.377.413z" fill="#67737B"/><path d="M31.945 24.016c-.12-.64-.69-1.05-1.273-.918l-.392.075c-3.42-.438-4.414-3.49-5.548-6.987-.808-2.492-1.643-5.068-3.426-7.023C17.62 5.12 12.07 5.097 9.276 7.708 8.85 7.374 8.194 6.806 7.87 6.31c-.327-.493-.446-1.487-.477-2.03.84-1.132.847-2.86.847-2.934 0-.175-.07-.34-.193-.452-.122-.112-.284-.16-.44-.128C5.283 1.226 4.24 2.6 3.88 3.22c-.876.22-1.577 1.236-1.82 1.628L.28 5.904c-.174.104-.283.303-.283.52 0 .737.21 1.304.627 1.686.84.77 2.37.665 4.717.208l.755 2.927c.067.26.282.43.518.43l.147-.022c.285-.088.452-.414.372-.728l-.884-3.442c-.08-.314-.378-.497-.664-.41l-.113.053H5.3c-1.653.328-3.42.593-3.982.078-.076-.07-.17-.188-.216-.444l1.59-.945c.084-.05.153-.12.203-.208.284-.504.9-1.247 1.32-1.247.21 0 .402-.14.49-.347.025-.06.572-1.3 2.384-1.9-.083.498-.258 1.13-.626 1.54-.1.113-.155.265-.153.423.003.196.045 1.947.686 2.925.615.94 1.92 1.876 1.977 1.915l.146.073c.198.095.436.056.598-.12C10.812 7.66 12.644 7 14.622 7.1c2.216.112 4.32 1.14 5.92 2.898 1.61 1.768 2.407 4.216 3.174 6.585.732 2.257 1.48 4.558 2.96 6.077-1.96-.918-3.498-2.84-3.96-5.3-.107-.56-.56-.956-1.086-.94-.522.015-.958.44-1.035 1.006 0 .008-.126.867-.57 1.714-.544 1.034-1.282 1.538-2.258 1.538h-.026l-.063.005-.05.006-.052.005-.063.015-.03.008-.01.004-.066.023-.04.016-.055.03-.043.023-.043.027-.05.033-.032.027-.05.04-.03.03-.047.05-.028.03-.04.05-.03.042-.033.048-.03.052-.022.042-.028.06-.02.042-.02.06-.017.047-.014.058-.014.06-.01.05-.01.068-.002.042-.004.076v.015l.003.03.003.074.006.055.01.056.014.07.006.03.966 3.847c.132.524.565.867 1.038.867.095 0 .19-.015.287-.043.575-.174.91-.824.754-1.453l-.643-2.56c1-.324 1.848-1.017 2.5-2.058 1.576 2.963 4.503 4.842 7.678 4.842.594 0 1.196-.066 1.8-.202.58-.132.956-.756.836-1.396zm-14.74 3.154c-1.692-1.046-6.085-4.556-6.085-8.185 0-1.944.477-3.325 1.417-4.1 1.818-1.502 4.9-.556 4.932-.546.565.18 1.162-.18 1.33-.807.166-.626-.16-1.282-.73-1.465-.17-.054-4.137-1.29-6.82.92C9.73 14.233 8.96 16.25 8.96 18.982c0 2.473 1.235 4.964 3.668 7.403.76.76 1.514 1.39 2.13 1.863-1.287.21-2.957.75-4.21 2.123-.21.23-.21.605 0 .836.106.116.244.173.38.173s.278-.056.38-.17c1.598-1.75 4.135-1.9 5.013-1.896.115.044.233.068.35.068.377 0 .743-.217.94-.602.29-.567.107-1.287-.41-1.607zM8.85 10.204c-.29-.07-.578.133-.64.452l-.67 3.374c-.71-.842-1.52-1.35-2.424-1.52-1.895-.35-3.454.964-3.52 1.02-.233.2-.274.57-.092.827.182.257.52.303.755.104.01-.01 1.26-1.05 2.682-.78.917.173 1.732.86 2.424 2.038.1.17.27.27.45.27l.097-.008c.214-.044.385-.224.43-.457l.913-4.615c.063-.318-.122-.633-.412-.702zM3.398 5.52c0 .228.168.413.376.413s.377-.185.377-.414c0-.23-.165-.417-.373-.417s-.377.185-.377.413z" fill="#3A434E"/></g></svg>