<svg width="32" height="232" viewBox="0 0 32 232" xmlns="http://www.w3.org/2000/svg"><title>melbourne</title><desc>Created with Sketch.</desc><g fill="none"><path d="M30.54 149.982h-.556v-1.628c.314-.25.614-.52.898-.814.188-.194.188-.51 0-.706-.188-.194-.494-.194-.683 0l-.217.213v-6.755c0-.275-.216-.498-.483-.498h-1.905c-.267 0-.483.223-.483.498v3.53h-1.369l-.67-19.705v-3.595c0-.276-.216-.498-.483-.498s-.482.223-.482.498v3.595l-.49 14.438h-.972c-.267 0-.483.223-.483.498v3.08h-.372v-1.512c0-.274-.215-.497-.48-.497H19.36c-.267 0-.483.224-.483.498v1.02h-.465v-2.362l.01-.145v-2.85c0-.55-.432-.997-.965-.997-.534 0-.966.447-.966.997v.312l-.01.144v1.096l-1.215-.377v-2.34l-.04-.196c-.04-2.54-1.95-4.616-4.365-4.832v-3.486c0-.275-.216-.498-.483-.498H7.715c-.178 0-.342.1-.426.263-.085.163-.075.36.023.513l.515.797-.515.798c-.1.153-.108.35-.024.512.083.162.247.263.425.263H9.9v.853c-2.34.278-4.17 2.302-4.232 4.773-.038.07-.062.152-.062.24v2.333l-1.202.382v-1.552c0-.55-.433-.997-.966-.997-.533 0-.966.447-.966.997v.312l-.01.144v13.24h-.844c-.533 0-.966.446-.966.996s.433.997.966.997H30.54c.534 0 .967-.447.967-.997s-.433-.996-.966-.996zm-19.75-11.854c-.142-.147-.374-.187-.555-.094-.116.06-.203.163-.244.29l-.02.158-.002.034.05.19c.047.094.122.17.214.218.068.035.143.054.22.054.127 0 .25-.052.34-.145.085-.087.132-.2.14-.318l.002-.034c0-.075-.016-.153-.05-.224l-.092-.13zm-6.397 1.387v-.236l.01-.146v-.12H8.95c.267 0 .483-.222.483-.497l-.003-.034c-.017-.26-.224-.465-.48-.465H7.116l3.254-1.033 3.336 1.033h-1.758c-.255 0-.462.206-.48.465l-.003.034c0 .276.217.498.483.498h4.536v.5H4.394zm5.732-7.427l.325-.02.325.02c.2.495.405 1.338.442 2.535H9.682c.037-1.197.24-2.04.442-2.535zm-3.552 3.92v-.388h7.732v1.543l-3.797-1.176c-.092-.028-.19-.028-.28 0l-3.655 1.16v-1.14zm13.273 6.133v-1.02h.98v1.51c0 .276.217.5.484.5h1.337c.267 0 .483-.224.483-.5v-3.078h.454l-.19 5.595v.017c0 1.6-1.26 2.9-2.81 2.9-.083 0-.158.024-.226.06-.494-.3-.96-.657-1.39-1.066-.154-.148-.376-.17-.553-.073v-4.346h.947c.267 0 .483-.224.483-.5zm4.84-1l.14 4.034c.002 1.644.997 3.05 2.397 3.618-.87.323-1.797.492-2.75.492-.902 0-1.786-.154-2.622-.45 1.46-.537 2.506-1.975 2.51-3.66l.232-6.84.095 2.806zm2.91 3.68c.268 0 .484-.224.484-.5v-3.53h.94v7.054l-.343.23-.077-.01c-1.55 0-2.81-1.3-2.81-2.9v-.017l-.01-.328h1.818zm1.424 5.162h-2.26c.793-.212 1.553-.534 2.26-.96v.96zm-6.817 0h-3.786v-2.1c1.092 1.014 2.39 1.728 3.786 2.1zm-8.925-15.36h-1.094c-.023-.744-.112-1.49-.272-2.137.73.45 1.25 1.23 1.366 2.138zm-4.66-6.363l.194-.3c.108-.168.108-.386 0-.554l-.193-.3H9.9v1.152H8.62zm.37 4.226c-.16.646-.248 1.393-.27 2.138H7.623c.117-.907.636-1.686 1.366-2.138zm5.77 17.497h-.487v-2.045c0-2.175-1.713-3.944-3.82-3.944s-3.82 1.77-3.82 3.944v2.045H6.14v-2.045c0-2.45 1.932-4.446 4.308-4.446 2.375 0 4.308 1.995 4.308 4.446v2.045zm-1.452 0h-5.71v-2.045c0-1.625 1.28-2.947 2.855-2.947s2.856 1.323 2.856 2.948v2.045zm2.418 0v-2.045c0-3-2.366-5.443-5.273-5.443-2.907 0-5.272 2.442-5.272 5.443v2.045h-.784v-9.47h.89v1.18h.966v-1.18h.838v1.18h.966v-1.18h.838v1.18h.966v-1.18h.838v1.18h.966v-1.18h.838v1.18h.966v-1.18h.84v1.18h.965v-1.18h1.215v9.47h-.76zm-2.196-20.822c.202.184.46.285.727.285h2.727c0 .286.12.558.327.747.176.16.403.25.637.25h2.967c.533 0 .966-.447.966-.997 0-.548-.43-.994-.96-.997l.008-.138c0-.626-.493-1.135-1.1-1.135h-5.574c-.268 0-.526.1-.727.284-.237.214-.373.525-.373.85 0 .325.136.635.373.85zm.638-.953l.088-.035h5.574c.074 0 .134.062.134.14 0 .075-.06.137-.134.137-.267 0-.482.222-.482.497h-.002c0 .276.216.498.483.498h1.087-2.967.002c.266 0 .482-.223.482-.498s-.216-.498-.483-.498h-3.696l-.088-.036-.046-.103.046-.102z" fill="#206FAC"/><path d="M30.54 109.982h-.556v-1.628c.314-.25.614-.52.898-.814.188-.194.188-.51 0-.706-.188-.194-.494-.194-.683 0l-.217.213v-6.755c0-.275-.216-.498-.483-.498h-1.905c-.267 0-.483.223-.483.498v3.53h-1.369l-.67-19.705v-3.595c0-.276-.216-.498-.483-.498s-.482.223-.482.498v3.595l-.49 14.438h-.972c-.267 0-.483.223-.483.498v3.08h-.372v-1.512c0-.274-.215-.497-.48-.497H19.36c-.267 0-.483.224-.483.498v1.02h-.465V99.28l.01-.145v-2.85c0-.55-.432-.997-.965-.997-.534 0-.966.447-.966.997v.312l-.01.144v1.096l-1.215-.377v-2.34l-.04-.196c-.04-2.54-1.95-4.616-4.365-4.832v-3.486c0-.275-.216-.498-.483-.498H7.715c-.178 0-.342.1-.426.263-.085.163-.075.36.023.513l.515.797-.515.798c-.1.153-.108.35-.024.512.083.162.247.263.425.263H9.9v.853c-2.34.278-4.17 2.302-4.232 4.773-.038.07-.062.152-.062.24v2.333l-1.202.382v-1.552c0-.55-.433-.997-.966-.997-.533 0-.966.447-.966.997v.312l-.01.144v13.24h-.844c-.533 0-.966.446-.966.996s.433.997.966.997H30.54c.534 0 .967-.447.967-.997s-.433-.996-.966-.996zM10.79 98.128c-.142-.147-.374-.187-.555-.094-.116.06-.203.163-.244.29l-.02.158-.002.034.05.19c.047.094.122.17.214.218.068.035.143.054.22.054.127 0 .25-.052.34-.145.085-.087.132-.2.14-.318l.002-.034c0-.075-.016-.153-.05-.224l-.092-.13zm-6.397 1.387v-.236l.01-.146v-.12H8.95c.267 0 .483-.222.483-.497l-.003-.034c-.017-.26-.224-.465-.48-.465H7.116l3.254-1.033 3.336 1.033h-1.758c-.255 0-.462.206-.48.465l-.003.034c0 .276.217.498.483.498h4.536v.5H4.394zm5.732-7.427l.325-.02.325.02c.2.495.405 1.338.442 2.535H9.682c.037-1.197.24-2.04.442-2.535zm-3.552 3.92v-.388h7.732v1.543l-3.797-1.176c-.092-.028-.19-.028-.28 0l-3.655 1.16v-1.14zm13.273 6.133v-1.02h.98v1.51c0 .276.217.5.484.5h1.337c.267 0 .483-.224.483-.5v-3.078h.454l-.19 5.595v.017c0 1.6-1.26 2.9-2.81 2.9-.083 0-.158.024-.226.06-.494-.3-.96-.657-1.39-1.066-.154-.148-.376-.17-.553-.073v-4.346h.947c.267 0 .483-.224.483-.5zm4.84-1l.14 4.034c.002 1.644.997 3.05 2.397 3.618-.87.323-1.797.492-2.75.492-.902 0-1.786-.154-2.622-.45 1.46-.537 2.506-1.975 2.51-3.66l.232-6.84.095 2.806zm2.91 3.68c.268 0 .484-.224.484-.5v-3.53h.94v7.054l-.343.23-.077-.01c-1.55 0-2.81-1.3-2.81-2.9v-.017l-.01-.328h1.818zm1.424 5.162h-2.26c.793-.212 1.553-.534 2.26-.96v.96zm-6.817 0h-3.786v-2.1c1.092 1.014 2.39 1.728 3.786 2.1zm-8.925-15.36h-1.094c-.023-.744-.112-1.49-.272-2.137.73.45 1.25 1.23 1.366 2.138zm-4.66-6.363l.194-.3c.108-.168.108-.386 0-.554l-.193-.3H9.9v1.152H8.62zm.37 4.226c-.16.646-.248 1.393-.27 2.138H7.623c.117-.907.636-1.686 1.366-2.138zm5.77 17.497h-.487v-2.045c0-2.175-1.713-3.944-3.82-3.944s-3.82 1.77-3.82 3.944v2.045H6.14v-2.045c0-2.45 1.932-4.446 4.308-4.446 2.375 0 4.308 1.995 4.308 4.446v2.045zm-1.452 0h-5.71v-2.045c0-1.625 1.28-2.947 2.855-2.947s2.856 1.323 2.856 2.948v2.045zm2.418 0v-2.045c0-3-2.366-5.443-5.273-5.443-2.907 0-5.272 2.442-5.272 5.443v2.045h-.784v-9.47h.89v1.18h.966v-1.18h.838v1.18h.966v-1.18h.838v1.18h.966v-1.18h.838v1.18h.966v-1.18h.838v1.18h.966v-1.18h.84v1.18h.965v-1.18h1.215v9.47h-.76zM13.528 89.16c.202.184.46.285.727.285h2.727c0 .286.12.558.327.747.176.16.403.25.637.25h2.967c.533 0 .966-.447.966-.997 0-.548-.43-.994-.96-.997l.008-.138c0-.626-.493-1.135-1.1-1.135h-5.574c-.268 0-.526.1-.727.284-.237.214-.373.525-.373.85 0 .325.136.635.373.85zm.638-.953l.088-.035h5.574c.074 0 .134.062.134.14 0 .075-.06.137-.134.137-.267 0-.482.222-.482.497h-.002c0 .276.216.498.483.498h1.087-2.967.002c.266 0 .482-.223.482-.498s-.216-.498-.483-.498h-3.696l-.088-.036-.046-.103.046-.102z" fill="#fff"/><path d="M30.54 69.982h-.556v-1.628c.314-.25.614-.52.898-.814.188-.194.188-.51 0-.706-.188-.194-.494-.194-.683 0l-.217.213v-6.755c0-.275-.216-.498-.483-.498h-1.905c-.267 0-.483.223-.483.498v3.53h-1.369l-.67-19.705v-3.595c0-.276-.216-.498-.483-.498s-.482.223-.482.498v3.595l-.49 14.438h-.972c-.267 0-.483.223-.483.498v3.08h-.372V60.62c0-.274-.215-.497-.48-.497H19.36c-.267 0-.483.224-.483.498v1.02h-.465V59.28l.01-.145v-2.85c0-.55-.432-.997-.965-.997-.534 0-.966.447-.966.997v.312l-.01.144v1.096l-1.215-.377v-2.34l-.04-.196c-.04-2.54-1.95-4.616-4.365-4.832v-3.486c0-.275-.216-.498-.483-.498H7.715c-.178 0-.342.1-.426.263-.085.163-.075.36.023.513l.515.797-.515.798c-.1.153-.108.35-.024.512.083.162.247.263.425.263H9.9v.853c-2.34.278-4.17 2.302-4.232 4.773-.038.07-.062.152-.062.24v2.333l-1.202.382v-1.552c0-.55-.433-.997-.966-.997-.533 0-.966.447-.966.997v.312l-.01.144v13.24h-.844c-.533 0-.966.446-.966.996s.433.997.966.997H30.54c.534 0 .967-.447.967-.997s-.433-.996-.966-.996zM10.79 58.128c-.142-.147-.374-.187-.555-.094-.116.06-.203.163-.244.29l-.02.158-.002.034.05.19c.047.094.122.17.214.218.068.035.143.054.22.054.127 0 .25-.052.34-.145.085-.087.132-.2.14-.318l.002-.034c0-.075-.016-.153-.05-.224l-.092-.13zm-6.397 1.387v-.236l.01-.146v-.12H8.95c.267 0 .483-.222.483-.497l-.003-.034c-.017-.26-.224-.465-.48-.465H7.116l3.254-1.033 3.336 1.033h-1.758c-.255 0-.462.206-.48.465l-.003.034c0 .276.217.498.483.498h4.536v.5H4.394zm5.732-7.427l.325-.02.325.02c.2.495.405 1.338.442 2.535H9.682c.037-1.197.24-2.04.442-2.535zm-3.552 3.92v-.388h7.732v1.543l-3.797-1.176c-.092-.028-.19-.028-.28 0l-3.655 1.16v-1.14zm13.273 6.133v-1.02h.98v1.51c0 .276.217.5.484.5h1.337c.267 0 .483-.224.483-.5v-3.078h.454l-.19 5.595v.017c0 1.6-1.26 2.9-2.81 2.9-.083 0-.158.024-.226.06-.494-.3-.96-.657-1.39-1.066-.154-.148-.376-.17-.553-.073V62.64h.947c.267 0 .483-.224.483-.5zm4.84-1l.14 4.034c.002 1.644.997 3.05 2.397 3.618-.87.323-1.797.492-2.75.492-.902 0-1.786-.154-2.622-.45 1.46-.537 2.506-1.975 2.51-3.66l.232-6.84.095 2.806zm2.91 3.68c.268 0 .484-.224.484-.5v-3.53h.94v7.054l-.343.23-.077-.01c-1.55 0-2.81-1.3-2.81-2.9v-.017l-.01-.328h1.818zm1.424 5.162h-2.26c.793-.212 1.553-.534 2.26-.96v.96zm-6.817 0h-3.786v-2.1c1.092 1.014 2.39 1.728 3.786 2.1zm-8.925-15.36h-1.094c-.023-.744-.112-1.49-.272-2.137.73.45 1.25 1.23 1.366 2.138zm-4.66-6.363l.194-.3c.108-.168.108-.386 0-.554l-.193-.3H9.9v1.152H8.62zm.37 4.226c-.16.646-.248 1.393-.27 2.138H7.623c.117-.907.636-1.686 1.366-2.138zm5.77 17.497h-.487v-2.045c0-2.175-1.713-3.944-3.82-3.944s-3.82 1.77-3.82 3.944v2.045H6.14v-2.045c0-2.45 1.932-4.446 4.308-4.446 2.375 0 4.308 1.995 4.308 4.446v2.045zm-1.452 0h-5.71v-2.045c0-1.625 1.28-2.947 2.855-2.947s2.856 1.323 2.856 2.948v2.045zm2.418 0v-2.045c0-3-2.366-5.443-5.273-5.443-2.907 0-5.272 2.442-5.272 5.443v2.045h-.784v-9.47h.89v1.18h.966v-1.18h.838v1.18h.966v-1.18h.838v1.18h.966v-1.18h.838v1.18h.966v-1.18h.838v1.18h.966v-1.18h.84v1.18h.965v-1.18h1.215v9.47h-.76zM13.528 49.16c.202.184.46.285.727.285h2.727c0 .286.12.558.327.747.176.16.403.25.637.25h2.967c.533 0 .966-.447.966-.997 0-.548-.43-.994-.96-.997l.008-.138c0-.626-.493-1.135-1.1-1.135h-5.574c-.268 0-.526.1-.727.284-.237.214-.373.525-.373.85 0 .325.136.635.373.85zm.638-.953l.088-.035h5.574c.074 0 .134.062.134.14 0 .075-.06.137-.134.137-.267 0-.482.222-.482.497h-.002c0 .276.216.498.483.498h1.087-2.967.002c.266 0 .482-.223.482-.498s-.216-.498-.483-.498h-3.696l-.088-.036-.046-.103.046-.102z" fill="#67737B"/><path d="M30.54 29.982h-.556v-1.628c.314-.25.614-.52.898-.814.188-.194.188-.51 0-.706-.188-.194-.494-.194-.683 0l-.217.213v-6.755c0-.275-.216-.498-.483-.498h-1.905c-.267 0-.483.223-.483.498v3.53h-1.369l-.67-19.705V.522c0-.276-.216-.498-.483-.498s-.482.223-.482.498v3.595l-.49 14.438h-.972c-.267 0-.483.223-.483.498v3.08h-.372V20.62c0-.274-.215-.497-.48-.497H19.36c-.267 0-.483.224-.483.498v1.02h-.465V19.28l.01-.145v-2.85c0-.55-.432-.997-.965-.997-.534 0-.966.447-.966.997v.312l-.01.144v1.096l-1.215-.377v-2.34l-.04-.196c-.04-2.54-1.95-4.616-4.365-4.832V6.606c0-.275-.216-.498-.483-.498H7.715c-.178 0-.342.1-.426.263-.085.163-.075.36.023.513l.515.797-.515.798c-.1.153-.108.35-.024.512.083.162.247.263.425.263H9.9v.853c-2.34.278-4.17 2.302-4.232 4.773-.038.07-.062.152-.062.24v2.333l-1.202.382v-1.552c0-.55-.433-.997-.966-.997-.533 0-.966.447-.966.997v.312l-.01.144v13.24h-.844c-.533 0-.966.446-.966.996s.433.997.966.997H30.54c.534 0 .967-.447.967-.997s-.433-.996-.966-.996zM10.79 18.128c-.142-.147-.374-.187-.555-.094-.116.06-.203.163-.244.29l-.02.158-.002.034.05.19c.047.094.122.17.214.218.068.035.143.054.22.054.127 0 .25-.052.34-.145.085-.087.132-.2.14-.318l.002-.034c0-.075-.016-.153-.05-.224l-.092-.13zm-6.397 1.387v-.236l.01-.146v-.12H8.95c.267 0 .483-.222.483-.497l-.003-.034c-.017-.26-.224-.465-.48-.465H7.116l3.254-1.033 3.336 1.033h-1.758c-.255 0-.462.206-.48.465l-.003.034c0 .276.217.498.483.498h4.536v.5H4.394zm5.732-7.427l.325-.02.325.02c.2.495.405 1.338.442 2.535H9.682c.037-1.197.24-2.04.442-2.535zm-3.552 3.92v-.388h7.732v1.543l-3.797-1.176c-.092-.028-.19-.028-.28 0l-3.655 1.16v-1.14zm13.273 6.133v-1.02h.98v1.51c0 .276.217.5.484.5h1.337c.267 0 .483-.224.483-.5v-3.078h.454l-.19 5.595v.017c0 1.6-1.26 2.9-2.81 2.9-.083 0-.158.024-.226.06-.494-.3-.96-.657-1.39-1.066-.154-.148-.376-.17-.553-.073V22.64h.947c.267 0 .483-.224.483-.5zm4.84-1l.14 4.034c.002 1.644.997 3.05 2.397 3.618-.87.323-1.797.492-2.75.492-.902 0-1.786-.154-2.622-.45 1.46-.537 2.506-1.975 2.51-3.66l.232-6.84.095 2.806zm2.91 3.68c.268 0 .484-.224.484-.5v-3.53h.94v7.054l-.343.23-.077-.01c-1.55 0-2.81-1.3-2.81-2.9v-.017l-.01-.328h1.818zm1.424 5.162h-2.26c.793-.212 1.553-.534 2.26-.96v.96zm-6.817 0h-3.786v-2.1c1.092 1.014 2.39 1.728 3.786 2.1zm-8.925-15.36h-1.094c-.023-.744-.112-1.49-.272-2.137.73.45 1.25 1.23 1.366 2.138zM8.618 8.26l.194-.3c.108-.168.108-.386 0-.554l-.193-.3H9.9V8.26H8.62zm.37 4.226c-.16.646-.248 1.393-.27 2.138H7.623c.117-.907.636-1.686 1.366-2.138zm5.77 17.497h-.487v-2.045c0-2.175-1.713-3.944-3.82-3.944s-3.82 1.77-3.82 3.944v2.045H6.14v-2.045c0-2.45 1.932-4.446 4.308-4.446 2.375 0 4.308 1.995 4.308 4.446v2.045zm-1.452 0h-5.71v-2.045c0-1.625 1.28-2.947 2.855-2.947s2.856 1.323 2.856 2.948v2.045zm2.418 0v-2.045c0-3-2.366-5.443-5.273-5.443-2.907 0-5.272 2.442-5.272 5.443v2.045h-.784v-9.47h.89v1.18h.966v-1.18h.838v1.18h.966v-1.18h.838v1.18h.966v-1.18h.838v1.18h.966v-1.18h.838v1.18h.966v-1.18h.84v1.18h.965v-1.18h1.215v9.47h-.76zM13.528 9.16c.202.184.46.285.727.285h2.727c0 .286.12.558.327.747.176.16.403.25.637.25h2.967c.533 0 .966-.447.966-.997 0-.548-.43-.994-.96-.997l.008-.138c0-.626-.493-1.135-1.1-1.135h-5.574c-.268 0-.526.1-.727.284-.237.214-.373.525-.373.85 0 .325.136.635.373.85zm.638-.953l.088-.035h5.574c.074 0 .134.062.134.14 0 .075-.06.137-.134.137-.267 0-.482.222-.482.497h-.002c0 .276.216.498.483.498h1.087-2.967.002c.266 0 .482-.223.482-.498s-.216-.498-.483-.498h-3.696l-.088-.036-.046-.103.046-.102z" fill="#3A434E"/></g></svg>