<svg width="32" height="232" viewBox="0 0 32 232" xmlns="http://www.w3.org/2000/svg"><desc>Created with Sketch.</desc><g fill="none"><path d="M30.54 149.982h-.556v-1.628c.314-.25.614-.52.898-.814.188-.194.188-.51 0-.706-.188-.194-.494-.194-.683 0l-.22.213v-6.755c0-.275-.216-.498-.483-.498H27.59c-.266 0-.482.223-.482.498v3.53h-1.37l-.67-19.705v-3.595c0-.276-.215-.498-.482-.498s-.483.223-.483.498v3.595l-.49 14.438h-.972c-.266 0-.482.223-.482.498v3.08h-.372v-1.512c0-.27-.215-.494-.48-.494h-1.95c-.267 0-.483.224-.483.498v1.02h-.465v-2.362l.01-.144v-2.85c0-.55-.432-.997-.965-.997-.534 0-.966.447-.966.997v.312l-.01.143v1.097l-1.215-.378v-2.34l-.04-.196c-.04-2.54-1.95-4.616-4.365-4.832v-3.486c0-.275-.215-.498-.482-.498h-2.66c-.178 0-.342.1-.426.263-.088.164-.078.36.02.514l.515.797-.515.8c-.1.152-.107.35-.023.51.083.163.247.264.425.264H9.9v.853c-2.34.28-4.17 2.304-4.232 4.775-.038.07-.062.152-.062.24v2.333l-1.202.382v-1.553c0-.55-.433-.997-.966-.997-.533 0-.966.447-.966.997v.312l-.01.142v13.24h-.844c-.533 0-.966.445-.966.995s.433.997.966.997H30.54c.534 0 .967-.447.967-.997s-.433-.996-.966-.996zm-19.75-11.854c-.142-.147-.374-.187-.555-.094-.116.06-.203.163-.244.29l-.02.158v.034l.05.19c.048.094.12.17.215.218.068.035.143.054.22.054.127 0 .25-.052.34-.145.085-.087.132-.2.14-.318l.002-.034c0-.072-.016-.15-.05-.22l-.092-.13zm-6.397 1.387v-.236l.01-.15v-.12H8.95c.267 0 .483-.22.483-.496l-.003-.034c-.017-.26-.224-.464-.48-.464H7.116l3.254-1.033 3.336 1.033h-1.758c-.255 0-.462.206-.48.465l-.003.036c0 .276.217.498.483.498h4.536v.5H4.394zm5.732-7.427l.325-.02.325.02c.2.495.405 1.338.442 2.535H9.682c.037-1.197.24-2.04.442-2.535zm-3.552 3.92v-.388h7.732v1.543l-3.797-1.176c-.092-.028-.19-.028-.28 0l-3.655 1.16v-1.14zm13.273 6.133v-1.02h.98v1.51c0 .28.217.5.484.5h1.337c.267 0 .483-.22.483-.5v-3.075h.454l-.19 5.595v.016c0 1.6-1.26 2.9-2.81 2.9-.083 0-.158.024-.226.06-.494-.3-.96-.657-1.39-1.066-.154-.15-.376-.17-.553-.074v-4.346h.947c.267 0 .483-.224.483-.5zm4.84-1l.14 4.037c.002 1.644.997 3.05 2.397 3.618-.87.323-1.797.492-2.75.492-.902 0-1.786-.154-2.622-.45 1.46-.537 2.51-1.975 2.51-3.66l.235-6.84.095 2.806zm2.91 3.68c.268 0 .484-.22.484-.5v-3.53h.94v7.057l-.343.23-.077-.01c-1.55 0-2.81-1.3-2.81-2.9v-.017l-.01-.33h1.818zm1.424 5.165h-2.26c.793-.212 1.553-.534 2.26-.96v.96zm-6.817 0h-3.786v-2.1c1.092 1.014 2.39 1.728 3.786 2.1zm-8.925-15.36h-1.094c-.023-.744-.112-1.49-.272-2.137.73.45 1.25 1.23 1.366 2.138zm-4.66-6.363l.194-.3c.108-.167.108-.385 0-.553l-.193-.3H9.9v1.15H8.62zm.37 4.227c-.16.645-.248 1.392-.27 2.137H7.623c.117-.907.636-1.686 1.366-2.138zm5.77 17.496h-.487v-2.045c0-2.175-1.71-3.944-3.82-3.944s-3.82 1.77-3.82 3.944v2.044h-.49v-2.045c0-2.45 1.934-4.448 4.31-4.448 2.375 0 4.308 1.995 4.308 4.446v2.044zm-1.452 0h-5.71v-2.045c0-1.625 1.28-2.947 2.855-2.947s2.86 1.324 2.86 2.95v2.044zm2.418 0v-2.045c0-3-2.366-5.443-5.273-5.443-2.904 0-5.27 2.442-5.27 5.443v2.044h-.783v-9.47h.89v1.18h.966v-1.18h.84v1.18h.965v-1.18h.838v1.18h.966v-1.18h.838v1.18h.966v-1.18h.838v1.18h.967v-1.18h.84v1.18h.965v-1.18h1.215v9.47h-.76zm-2.196-20.822c.202.185.46.286.727.286h2.727c0 .286.12.558.327.747.173.16.4.25.634.25h2.967c.534 0 .967-.447.967-.997 0-.548-.43-.994-.96-.997l.007-.14c0-.624-.493-1.133-1.1-1.133H14.25c-.267 0-.525.1-.726.284-.237.215-.373.526-.373.85 0 .326.138.636.375.85zm.638-.952l.088-.035h5.574c.074 0 .134.062.134.14 0 .075-.06.137-.134.137-.267 0-.482.222-.482.497h-.002c0 .276.216.498.483.498h1.087-2.967.002c.263 0 .48-.223.48-.498s-.217-.5-.484-.5H14.25l-.087-.036-.046-.103.046-.1z" fill="#206FAC"/><path d="M30.54 109.982h-.556v-1.628c.314-.25.614-.52.898-.814.188-.194.188-.51 0-.706-.188-.194-.494-.194-.683 0l-.22.213v-6.755c0-.275-.216-.498-.483-.498H27.59c-.266 0-.482.223-.482.498v3.53h-1.37l-.67-19.705v-3.595c0-.276-.215-.498-.482-.498s-.483.223-.483.498v3.595l-.49 14.438h-.972c-.266 0-.482.223-.482.498v3.08h-.372v-1.512c0-.27-.215-.494-.48-.494h-1.95c-.267 0-.483.224-.483.498v1.02h-.465V99.28l.01-.145v-2.85c0-.55-.432-.997-.965-.997-.534 0-.966.447-.966.997v.312l-.01.144v1.1l-1.215-.378v-2.34l-.04-.195c-.04-2.54-1.95-4.616-4.365-4.832V86.61c0-.276-.215-.5-.482-.5h-2.66c-.178 0-.342.1-.426.263-.088.164-.078.36.02.514l.515.797-.515.8c-.1.152-.107.35-.023.51.083.163.247.264.425.264H9.9v.853c-2.34.28-4.17 2.303-4.232 4.774-.038.07-.062.152-.062.24v2.333l-1.202.382v-1.553c0-.55-.433-.997-.966-.997-.533 0-.966.446-.966.996v.312l-.01.144v13.24h-.844c-.533 0-.966.445-.966.995s.433.997.966.997H30.54c.534 0 .967-.447.967-.997s-.433-.996-.966-.996zM10.79 98.128c-.142-.147-.374-.187-.555-.094-.116.06-.203.163-.244.29l-.02.158v.034l.05.19c.048.094.12.17.215.218.068.035.143.054.22.054.127 0 .25-.052.34-.145.085-.087.132-.2.14-.318l.002-.034c0-.072-.016-.15-.05-.22l-.092-.13zm-6.397 1.387v-.236l.01-.15v-.12H8.95c.267 0 .483-.22.483-.496l-.003-.034c-.017-.26-.224-.464-.48-.464H7.116l3.254-1.033 3.336 1.033h-1.758c-.255 0-.462.206-.48.465l-.003.036c0 .276.217.498.483.498h4.536v.5H4.394zm5.732-7.427l.325-.02.325.02c.2.495.405 1.338.442 2.535H9.682c.037-1.197.24-2.04.442-2.535zm-3.552 3.92v-.388h7.732v1.543l-3.797-1.176c-.092-.028-.19-.028-.28 0l-3.655 1.16v-1.14zm13.273 6.133v-1.02h.98v1.51c0 .28.217.5.484.5h1.337c.267 0 .483-.22.483-.5v-3.075h.454l-.19 5.595v.016c0 1.6-1.26 2.9-2.81 2.9-.083 0-.158.024-.226.06-.494-.3-.96-.657-1.39-1.066-.154-.15-.376-.17-.553-.074v-4.346h.947c.267 0 .483-.224.483-.5zm4.84-1l.14 4.037c.002 1.644.997 3.05 2.397 3.618-.87.323-1.797.492-2.75.492-.902 0-1.786-.154-2.622-.45 1.46-.537 2.51-1.975 2.51-3.66l.235-6.84.095 2.806zm2.91 3.68c.268 0 .484-.22.484-.5v-3.53h.94v7.057l-.343.23-.077-.01c-1.55 0-2.81-1.3-2.81-2.9v-.017l-.01-.33h1.818zm1.424 5.165h-2.26c.793-.212 1.553-.534 2.26-.96v.96zm-6.817 0h-3.786v-2.1c1.092 1.014 2.39 1.728 3.786 2.1zm-8.925-15.36h-1.094c-.023-.744-.112-1.49-.272-2.137.73.45 1.25 1.23 1.366 2.138zm-4.66-6.363l.194-.3c.108-.167.108-.385 0-.553l-.193-.3H9.9v1.15H8.62zm.37 4.227c-.16.645-.248 1.392-.27 2.137H7.623c.117-.907.636-1.686 1.366-2.138zm5.77 17.496h-.487v-2.045c0-2.175-1.71-3.944-3.82-3.944s-3.82 1.77-3.82 3.944v2.044h-.49v-2.045c0-2.45 1.934-4.448 4.31-4.448 2.375 0 4.308 1.995 4.308 4.446v2.044zm-1.452 0h-5.71v-2.045c0-1.625 1.28-2.947 2.855-2.947s2.86 1.324 2.86 2.95v2.044zm2.418 0v-2.045c0-3-2.366-5.443-5.273-5.443-2.904 0-5.27 2.442-5.27 5.443v2.044h-.783v-9.47h.89v1.18h.966v-1.18h.84v1.18h.965v-1.18h.838v1.18h.966v-1.18h.838v1.18h.966v-1.18h.838v1.18h.967v-1.18h.84v1.18h.965v-1.18h1.215v9.47h-.76zM13.528 89.16c.202.184.46.285.727.285h2.727c0 .286.12.558.327.747.173.16.4.25.634.25h2.967c.534 0 .967-.447.967-.997 0-.548-.43-.994-.96-.997l.007-.138c0-.626-.493-1.135-1.1-1.135H14.25c-.267 0-.525.1-.726.284-.237.21-.373.522-.373.85 0 .322.138.632.375.85zm.638-.953l.088-.035h5.574c.074 0 .134.062.134.14 0 .075-.06.137-.134.137-.267 0-.482.22-.482.494h-.002c0 .276.216.498.483.498h1.087-2.967.002c.263 0 .48-.223.48-.498s-.217-.498-.484-.498H14.25l-.087-.036-.046-.102.046-.103z" fill="#fff"/><path d="M30.54 69.982h-.556v-1.628c.314-.25.614-.52.898-.814.188-.194.188-.51 0-.706-.188-.194-.494-.194-.683 0l-.22.213v-6.755c0-.275-.216-.498-.483-.498H27.59c-.266 0-.482.223-.482.498v3.53h-1.37l-.67-19.705v-3.595c0-.276-.215-.498-.482-.498s-.483.223-.483.498v3.595l-.49 14.438h-.972c-.266 0-.482.223-.482.498v3.08h-.372V60.62c0-.274-.215-.497-.48-.497h-1.95c-.267 0-.483.224-.483.498v1.02h-.465v-2.36l.01-.143v-2.85c0-.55-.432-.997-.965-.997-.534 0-.966.446-.966.996v.312l-.01.144v1.097l-1.215-.38v-2.34l-.04-.195c-.04-2.54-1.95-4.616-4.365-4.832v-3.486c0-.275-.215-.498-.482-.498h-2.66c-.178 0-.342.1-.426.262-.088.164-.078.36.02.514l.515.797-.515.8c-.1.152-.107.35-.023.51.083.163.247.264.425.264H9.9v.853c-2.34.28-4.17 2.303-4.232 4.774-.038.07-.062.152-.062.24v2.333l-1.202.382v-1.554c0-.55-.433-.997-.966-.997-.533 0-.966.446-.966.996v.312l-.01.143v13.24h-.844c-.533 0-.966.446-.966.996s.433.997.966.997H30.54c.534 0 .967-.447.967-.997s-.433-.996-.966-.996zM10.79 58.128c-.142-.147-.374-.187-.555-.094-.116.06-.203.163-.244.29l-.02.158v.034l.05.19c.048.094.12.17.215.218.068.035.143.054.22.054.127 0 .25-.052.34-.145.085-.087.132-.2.14-.318l.002-.034c0-.072-.016-.15-.05-.22l-.092-.13zm-6.397 1.387v-.236l.01-.15v-.12H8.95c.267 0 .483-.22.483-.496l-.003-.034c-.017-.26-.224-.464-.48-.464H7.116l3.254-1.033 3.336 1.033h-1.758c-.255 0-.462.206-.48.465l-.003.036c0 .276.217.498.483.498h4.536v.5H4.394zm5.732-7.427l.325-.02.325.02c.2.495.405 1.338.442 2.535H9.682c.037-1.197.24-2.04.442-2.535zm-3.552 3.92v-.388h7.732v1.543l-3.797-1.176c-.092-.028-.19-.028-.28 0l-3.655 1.16v-1.14zm13.273 6.133v-1.02h.98v1.51c0 .28.217.5.484.5h1.337c.267 0 .483-.22.483-.5v-3.075h.454l-.19 5.595v.016c0 1.6-1.26 2.9-2.81 2.9-.083 0-.158.024-.226.06-.494-.3-.96-.657-1.39-1.066-.154-.15-.376-.17-.553-.074V62.64h.947c.267 0 .483-.224.483-.5zm4.84-1l.14 4.037c.002 1.644.997 3.05 2.397 3.618-.87.323-1.797.492-2.75.492-.902 0-1.786-.154-2.622-.45 1.46-.537 2.51-1.975 2.51-3.66l.235-6.84.095 2.806zm2.91 3.68c.268 0 .484-.22.484-.5v-3.53h.94v7.057l-.343.23-.077-.01c-1.55 0-2.81-1.3-2.81-2.9v-.017l-.01-.33h1.818zm1.424 5.165h-2.26c.793-.212 1.553-.534 2.26-.96v.96zm-6.817 0h-3.786v-2.1c1.092 1.014 2.39 1.728 3.786 2.1zm-8.925-15.36h-1.094c-.023-.744-.112-1.49-.272-2.137.73.45 1.25 1.23 1.366 2.138zm-4.66-6.363l.194-.3c.108-.167.108-.385 0-.553l-.193-.3H9.9v1.15H8.62zm.37 4.227c-.16.645-.248 1.392-.27 2.137H7.623c.117-.907.636-1.686 1.366-2.138zm5.77 17.496h-.487V67.94c0-2.176-1.71-3.945-3.82-3.945s-3.82 1.77-3.82 3.944v2.043h-.49V67.94c0-2.45 1.934-4.447 4.31-4.447 2.375 0 4.308 1.995 4.308 4.446v2.043zm-1.452 0h-5.71V67.94c0-1.626 1.28-2.948 2.855-2.948s2.86 1.324 2.86 2.95v2.044zm2.418 0V67.94c0-3-2.366-5.444-5.273-5.444-2.904 0-5.27 2.442-5.27 5.443v2.043h-.783v-9.47h.89v1.18h.966v-1.18h.84v1.18h.965v-1.18h.838v1.18h.966v-1.18h.838v1.18h.966v-1.18h.838v1.18h.967v-1.18h.84v1.18h.965v-1.18h1.215v9.47h-.76zM13.528 49.16c.202.184.46.285.727.285h2.727c0 .286.12.558.327.747.173.16.4.25.634.25h2.967c.534 0 .967-.447.967-.997 0-.548-.43-.994-.96-.997l.007-.138c0-.626-.493-1.135-1.1-1.135H14.25c-.267 0-.525.1-.726.284-.237.21-.373.522-.373.85 0 .322.138.632.375.85zm.638-.953l.088-.035h5.574c.074 0 .134.062.134.14 0 .075-.06.137-.134.137-.267 0-.482.22-.482.494h-.002c0 .276.216.498.483.498h1.087-2.967.002c.263 0 .48-.223.48-.498s-.217-.498-.484-.498H14.25l-.087-.036-.046-.102.046-.103z" fill="#67737B"/><path d="M30.54 29.982h-.556v-1.628c.314-.25.614-.52.898-.814.188-.194.188-.51 0-.706-.188-.194-.494-.194-.683 0l-.22.213v-6.755c0-.275-.216-.498-.483-.498H27.59c-.266 0-.482.223-.482.498v3.53h-1.37l-.67-19.705V.522c0-.276-.215-.498-.482-.498s-.483.223-.483.498v3.595l-.49 14.438h-.972c-.266 0-.482.223-.482.498v3.08h-.372V20.62c0-.274-.215-.497-.48-.497h-1.95c-.267 0-.483.224-.483.498v1.02h-.465v-2.36l.01-.143v-2.85c0-.55-.432-.997-.965-.997-.534 0-.966.446-.966.996v.312l-.01.144v1.097l-1.215-.38v-2.34l-.04-.195c-.04-2.54-1.95-4.616-4.365-4.832V6.606c0-.275-.215-.498-.482-.498h-2.66c-.178 0-.342.1-.426.263-.088.166-.078.36.02.516l.515.797-.515.8c-.1.152-.107.35-.023.51.083.163.247.264.425.264H9.9v.853c-2.34.277-4.17 2.3-4.232 4.772-.038.07-.062.152-.062.24v2.333l-1.202.382v-1.552c0-.55-.433-.997-.966-.997-.533 0-.966.447-.966.997v.312l-.01.144v13.24h-.844c-.533 0-.966.447-.966.997s.433.997.966.997H30.54c.534 0 .967-.447.967-.997s-.433-.996-.966-.996zM10.79 18.128c-.142-.147-.374-.187-.555-.094-.116.06-.203.163-.244.29l-.02.158v.034l.05.19c.048.094.12.17.215.218.068.035.143.054.22.054.127 0 .25-.052.34-.145.085-.087.132-.2.14-.318l.002-.034c0-.072-.016-.15-.05-.22l-.092-.13zm-6.397 1.387v-.236l.01-.15v-.12H8.95c.267 0 .483-.22.483-.496l-.003-.034c-.017-.26-.224-.464-.48-.464H7.116l3.254-1.033 3.336 1.033h-1.758c-.255 0-.462.206-.48.465l-.003.036c0 .276.217.498.483.498h4.536v.5H4.394zm5.732-7.427l.325-.02.325.02c.2.495.405 1.338.442 2.535H9.682c.037-1.197.24-2.04.442-2.535zm-3.552 3.92v-.388h7.732v1.543l-3.797-1.176c-.092-.028-.19-.028-.28 0l-3.655 1.16v-1.14zm13.273 6.133v-1.02h.98v1.51c0 .28.217.5.484.5h1.337c.267 0 .483-.22.483-.5v-3.075h.454l-.19 5.595v.016c0 1.6-1.26 2.9-2.81 2.9-.083 0-.158.024-.226.06-.494-.3-.96-.657-1.39-1.066-.154-.15-.376-.17-.553-.074V22.64h.947c.267 0 .483-.224.483-.5zm4.84-1l.14 4.037c.002 1.644.997 3.05 2.397 3.618-.87.323-1.797.492-2.75.492-.902 0-1.786-.154-2.622-.45 1.46-.537 2.51-1.975 2.51-3.66l.235-6.84.095 2.806zm2.91 3.68c.268 0 .484-.22.484-.5v-3.53h.94v7.057l-.343.23-.077-.01c-1.55 0-2.81-1.3-2.81-2.9v-.017l-.01-.33h1.818zm1.424 5.165h-2.26c.793-.212 1.553-.534 2.26-.96v.96zm-6.817 0h-3.786v-2.1c1.092 1.014 2.39 1.728 3.786 2.1zm-8.925-15.36h-1.094c-.023-.744-.112-1.49-.272-2.137.73.45 1.25 1.23 1.366 2.138zM8.618 8.26l.194-.3c.108-.168.108-.386 0-.554l-.193-.3H9.9V8.26H8.62zm.37 4.226c-.16.646-.248 1.393-.27 2.138H7.623c.117-.907.636-1.686 1.366-2.138zm5.77 17.497h-.487v-2.045c0-2.175-1.71-3.944-3.82-3.944s-3.82 1.77-3.82 3.944v2.045h-.49v-2.045c0-2.45 1.934-4.446 4.31-4.446 2.375 0 4.308 1.995 4.308 4.446v2.045zm-1.452 0h-5.71v-2.045c0-1.625 1.28-2.947 2.855-2.947s2.86 1.326 2.86 2.95v2.046zm2.418 0v-2.045c0-3-2.366-5.443-5.273-5.443-2.904 0-5.27 2.442-5.27 5.443v2.045h-.783v-9.47h.89v1.18h.966v-1.18h.84v1.18h.965v-1.18h.838v1.18h.966v-1.18h.838v1.18h.966v-1.18h.838v1.18h.967v-1.18h.84v1.18h.965v-1.18h1.215v9.47h-.76zM13.528 9.16c.202.184.46.285.727.285h2.727c0 .286.12.558.327.747.173.16.4.25.634.25h2.967c.534 0 .967-.447.967-.997 0-.548-.43-.994-.96-.997l.007-.138c0-.626-.493-1.135-1.1-1.135H14.25c-.267 0-.525.1-.726.284-.237.21-.373.522-.373.85 0 .322.138.632.375.85zm.638-.953l.088-.035h5.574c.074 0 .134.062.134.14 0 .075-.06.137-.134.137-.267 0-.482.22-.482.494h-.002c0 .276.216.498.483.498h1.087-2.967.002c.263 0 .48-.223.48-.498s-.217-.498-.484-.498H14.25l-.087-.036-.046-.102.046-.103z" fill="#3A434E"/></g></svg>