<svg width="32" height="232" viewBox="0 0 32 232" xmlns="http://www.w3.org/2000/svg"><g fill="none"><path d="M31.945 144.016c-.12-.64-.69-1.05-1.273-.918l-.392.075c-3.42-.438-4.414-3.49-5.548-6.987-.808-2.492-1.643-5.068-3.426-7.023-3.685-4.042-9.237-4.066-12.03-1.455-.426-.334-1.082-.902-1.407-1.397-.33-.49-.45-1.48-.48-2.03.84-1.13.84-2.86.84-2.93 0-.17-.07-.34-.2-.45-.12-.11-.29-.16-.44-.13-2.33.46-3.37 1.84-3.73 2.46-.88.22-1.58 1.24-1.82 1.63l-1.78 1.06c-.18.11-.29.3-.29.52 0 .74.21 1.31.62 1.69.84.77 2.37.67 4.71.21l.75 2.93c.06.26.28.43.51.43l.15-.02c.28-.09.45-.41.37-.73l-.88-3.44c-.08-.31-.38-.49-.66-.41l-.12.06h-.17c-1.658.33-3.42.59-3.987.08-.077-.07-.17-.18-.217-.44l1.6-.94c.08-.05.15-.12.2-.21.287-.5.9-1.24 1.32-1.24.21 0 .405-.14.49-.34.03-.06.575-1.3 2.387-1.9-.08.5-.253 1.13-.62 1.54-.1.11-.16.268-.16.42 0 .2.046 1.95.687 2.93.616.937 1.92 1.873 1.978 1.91l.15.07c.197.097.435.06.597-.12 1.095-1.203 2.93-1.86 4.905-1.76 2.215.11 4.32 1.14 5.92 2.9 1.61 1.77 2.406 4.213 3.173 6.582.73 2.256 1.48 4.557 2.96 6.076-1.96-.92-3.5-2.84-3.96-5.3-.11-.56-.56-.956-1.088-.94-.52.015-.96.44-1.034 1.006 0 .01-.13.87-.57 1.72-.544 1.03-1.282 1.54-2.26 1.54h-.09l-.05.006-.052.01-.06.01-.03.01-.013.01-.064.02-.04.02-.06.026-.04.023-.04.03-.05.033-.03.03-.05.04-.03.025-.05.05-.03.03-.04.05-.03.046-.03.05-.03.05-.02.04-.03.06-.02.04-.02.06-.02.04-.01.06-.018.056-.006.05-.01.07v.04l-.007.08v.01l.01.03v.07l.004.05.01.06.013.07.01.03.97 3.85c.13.525.56.868 1.04.868.092 0 .19-.01.29-.04.57-.17.91-.82.75-1.45l-.647-2.56c1-.324 1.848-1.017 2.5-2.06 1.576 2.967 4.5 4.846 7.678 4.846.59 0 1.193-.066 1.8-.2.58-.134.954-.758.834-1.398zm-14.74 3.154c-1.692-1.046-6.085-4.556-6.085-8.185 0-1.944.477-3.325 1.417-4.1 1.818-1.502 4.9-.556 4.932-.546.56.18 1.16-.18 1.33-.81.16-.63-.16-1.28-.73-1.47-.17-.06-4.14-1.29-6.82.92-1.52 1.24-2.29 3.26-2.29 5.99 0 2.47 1.23 4.96 3.67 7.4.76.76 1.51 1.39 2.13 1.86-1.29.21-2.96.75-4.21 2.12-.21.23-.21.6 0 .83.1.11.24.17.38.17s.27-.06.38-.17c1.59-1.75 4.13-1.9 5.01-1.9.11.04.23.07.35.07.37 0 .74-.22.94-.6.29-.57.1-1.29-.41-1.61zM8.85 130.204c-.29-.07-.578.133-.64.452l-.667 3.373c-.71-.85-1.52-1.35-2.424-1.52-1.9-.35-3.46.96-3.52 1.02-.24.2-.28.57-.1.82.18.25.52.3.75.1.01-.01 1.26-1.06 2.68-.79.91.17 1.73.86 2.42 2.04.1.17.27.27.45.27l.09-.01c.21-.04.38-.22.43-.46l.91-4.62c.07-.32-.12-.64-.41-.7zM3.4 125.52c0 .227.168.412.376.412s.377-.185.377-.414c0-.23-.168-.414-.376-.414s-.377.185-.377.413z" fill="#206FAC"/><path d="M31.945 104.016c-.12-.64-.69-1.05-1.273-.918l-.392.075c-3.42-.438-4.414-3.49-5.548-6.987-.808-2.492-1.643-5.068-3.426-7.023-3.685-4.042-9.237-4.066-12.03-1.455-.426-.334-1.082-.902-1.407-1.397-.33-.49-.45-1.48-.48-2.03.84-1.13.84-2.86.84-2.93 0-.17-.07-.34-.2-.45-.12-.11-.29-.16-.44-.13-2.33.46-3.37 1.84-3.73 2.46-.88.22-1.58 1.24-1.82 1.63L.27 85.91c-.173.104-.282.303-.282.52 0 .737.21 1.304.63 1.686.84.77 2.37.666 4.716.21l.754 2.926c.067.26.282.43.52.43l.145-.022c.285-.088.452-.414.372-.728l-.886-3.444c-.08-.314-.38-.497-.66-.41l-.12.053h-.17c-1.66.33-3.42.59-3.98.08-.08-.07-.17-.19-.22-.44l1.59-.94c.08-.05.15-.12.2-.21.28-.5.9-1.25 1.32-1.25.21 0 .4-.14.49-.35.02-.06.57-1.3 2.38-1.9-.09.5-.26 1.13-.63 1.54-.1.12-.16.27-.16.43 0 .2.04 1.95.68 2.93.61.94 1.92 1.88 1.97 1.91l.14.08c.2.1.44.06.6-.12 1.1-1.2 2.93-1.86 4.91-1.76 2.21.11 4.32 1.14 5.92 2.9 1.61 1.77 2.4 4.22 3.17 6.59.73 2.26 1.48 4.56 2.96 6.08-1.96-.91-3.5-2.84-3.96-5.3-.11-.56-.56-.95-1.09-.94-.53.02-.96.44-1.04 1.01 0 .01-.127.87-.57 1.72-.54 1.04-1.28 1.54-2.26 1.54h-.02l-.067.008-.05.005-.05.01-.066.01-.03.01-.014.01-.066.02-.04.02-.06.03-.04.03-.04.026-.05.035-.03.03-.05.04-.03.03-.05.05-.03.03-.04.05-.03.04-.03.05-.03.05-.024.04-.027.06-.02.04-.02.06-.016.05-.02.06-.02.054-.01.05-.01.064v.04l-.002.075v.11l.01.052.01.06.01.07.01.03.97 3.85c.13.526.562.87 1.04.87.093 0 .19-.016.29-.044.57-.17.91-.82.75-1.45l-.64-2.56c1-.32 1.845-1.014 2.5-2.06 1.573 2.97 4.5 4.847 7.675 4.847.59 0 1.193-.07 1.796-.207.58-.13.96-.75.84-1.39zm-14.74 3.154c-1.692-1.046-6.085-4.556-6.085-8.185 0-1.944.477-3.325 1.417-4.1 1.818-1.502 4.9-.556 4.932-.546.56.18 1.16-.18 1.33-.81.16-.63-.16-1.28-.73-1.47-.17-.06-4.14-1.29-6.82.92-1.52 1.24-2.29 3.26-2.29 5.99 0 2.47 1.23 4.96 3.66 7.4.76.76 1.51 1.39 2.13 1.86-1.29.21-2.96.75-4.21 2.12-.21.23-.21.6 0 .83.1.11.24.17.38.17s.28-.06.38-.17c1.6-1.75 4.13-1.9 5.01-1.9.11.04.23.06.35.06.37 0 .74-.22.94-.6.29-.57.1-1.29-.41-1.61zM8.85 90.204c-.29-.07-.578.133-.64.452l-.67 3.374c-.71-.842-1.52-1.35-2.424-1.52-1.895-.35-3.454.964-3.52 1.02-.233.2-.274.57-.092.827.182.257.52.303.755.104.01-.01 1.26-1.05 2.68-.78.91.18 1.73.86 2.42 2.04.1.17.27.27.45.27l.09-.01c.21-.04.38-.22.43-.45l.91-4.61c.06-.32-.12-.63-.41-.7zM3.4 85.52c0 .227.168.412.376.412s.377-.185.377-.414c0-.23-.168-.414-.376-.414s-.377.185-.377.413z" fill="#fff"/><path d="M31.945 64.016c-.12-.64-.69-1.05-1.273-.918l-.392.075c-3.42-.438-4.414-3.49-5.548-6.987-.808-2.492-1.643-5.068-3.426-7.023-3.685-4.042-9.237-4.066-12.03-1.455-.426-.334-1.082-.902-1.407-1.397-.33-.49-.45-1.48-.48-2.03.84-1.13.84-2.86.84-2.93 0-.17-.07-.34-.2-.45-.12-.11-.29-.16-.44-.13-2.33.46-3.37 1.84-3.73 2.46-.88.22-1.58 1.24-1.82 1.63L.27 45.91c-.173.104-.282.303-.282.52 0 .737.21 1.304.63 1.686.84.77 2.37.666 4.716.21l.754 2.926c.067.26.282.43.52.43l.145-.022c.285-.088.452-.414.372-.728l-.886-3.444c-.08-.314-.38-.497-.66-.41l-.12.053h-.17c-1.66.33-3.42.59-3.98.08-.08-.07-.17-.19-.22-.44l1.59-.94c.08-.05.15-.12.2-.21.28-.5.9-1.25 1.32-1.25.21 0 .4-.14.49-.35.02-.06.57-1.3 2.38-1.9-.09.5-.26 1.13-.63 1.54-.1.12-.16.27-.16.43 0 .2.04 1.95.68 2.93.61.94 1.92 1.88 1.97 1.91l.14.08c.2.1.44.06.6-.12 1.1-1.2 2.93-1.86 4.91-1.76 2.21.11 4.32 1.14 5.92 2.9 1.61 1.77 2.4 4.22 3.17 6.59.73 2.26 1.48 4.56 2.96 6.08-1.96-.91-3.5-2.84-3.96-5.3-.11-.56-.56-.95-1.09-.94-.53.02-.96.44-1.04 1.01 0 .01-.127.87-.57 1.72-.54 1.04-1.28 1.54-2.26 1.54h-.02l-.067.008-.05.005-.05.01-.066.01-.03.01-.014.01-.066.02-.04.02-.06.03-.04.03-.04.026-.05.035-.03.03-.05.04-.03.03-.05.05-.03.03-.04.05-.03.04-.03.05-.03.05-.024.04-.027.06-.02.04-.02.06-.016.05-.02.06-.02.054-.01.05-.01.064v.04l-.002.075v.1l.01.052.01.06.01.07.01.03.97 3.85c.13.526.562.87 1.04.87.093 0 .19-.016.29-.044.57-.17.91-.82.75-1.45l-.64-2.56c1-.323 1.845-1.016 2.5-2.06 1.573 2.966 4.5 4.845 7.675 4.845.59 0 1.193-.07 1.796-.205.58-.14.96-.76.84-1.4zm-14.74 3.154c-1.692-1.046-6.085-4.556-6.085-8.185 0-1.944.477-3.325 1.417-4.1 1.818-1.502 4.9-.556 4.932-.546.56.18 1.16-.18 1.33-.81.16-.63-.16-1.28-.73-1.47-.17-.06-4.14-1.29-6.82.92-1.52 1.24-2.29 3.26-2.29 5.99 0 2.47 1.23 4.96 3.66 7.4.76.76 1.51 1.39 2.13 1.86-1.29.21-2.96.75-4.21 2.12-.21.23-.21.6 0 .83.1.11.24.17.38.17s.28-.06.38-.17c1.6-1.75 4.13-1.9 5.01-1.9.11.04.23.06.35.06.37 0 .74-.22.94-.6.29-.57.1-1.29-.41-1.61zM8.85 50.204c-.29-.07-.578.133-.64.452l-.67 3.374c-.71-.842-1.52-1.35-2.424-1.52-1.895-.35-3.454.964-3.52 1.02-.233.2-.274.57-.092.827.182.257.52.303.755.104.01-.01 1.26-1.05 2.68-.78.91.18 1.73.86 2.42 2.04.1.17.27.27.45.27l.09-.01c.21-.04.38-.22.43-.45l.91-4.61c.06-.32-.12-.63-.41-.7zM3.4 45.52c0 .227.168.412.376.412s.377-.185.377-.414c0-.23-.168-.414-.376-.414s-.377.185-.377.413z" fill="#67737B"/><path d="M31.945 24.016c-.12-.64-.69-1.05-1.273-.918l-.392.075c-3.42-.438-4.414-3.49-5.548-6.987-.808-2.492-1.643-5.068-3.426-7.023C17.62 5.12 12.07 5.097 9.276 7.708 8.85 7.374 8.194 6.806 7.87 6.31c-.327-.493-.446-1.487-.477-2.03.84-1.132.847-2.86.847-2.934 0-.175-.07-.34-.193-.452-.122-.112-.284-.16-.44-.128C5.283 1.226 4.24 2.6 3.88 3.22c-.876.22-1.577 1.236-1.82 1.628L.28 5.904c-.174.104-.283.303-.283.52 0 .737.21 1.304.627 1.686.84.77 2.37.665 4.717.208l.76 2.927c.07.26.28.43.52.43l.15-.022c.29-.088.46-.414.38-.728l-.89-3.442c-.08-.314-.38-.497-.66-.41l-.11.053H5.3c-1.653.328-3.42.593-3.982.078-.076-.07-.17-.188-.216-.444l1.59-.945c.084-.05.153-.12.203-.208.284-.504.9-1.247 1.32-1.247.21 0 .402-.14.49-.347.025-.06.572-1.3 2.384-1.9-.09.498-.26 1.13-.63 1.54-.1.113-.16.265-.16.423 0 .196.04 1.947.68 2.925.61.94 1.92 1.88 1.97 1.92L9.1 9c.197.1.435.06.597-.12C10.81 7.66 12.64 7 14.62 7.1c2.216.113 4.32 1.14 5.92 2.9 1.61 1.767 2.407 4.215 3.174 6.584.732 2.257 1.48 4.558 2.96 6.077-1.96-.91-3.498-2.84-3.96-5.3-.107-.56-.56-.95-1.086-.94-.522.02-.958.44-1.035 1.01 0 .01-.126.87-.57 1.72-.544 1.04-1.282 1.54-2.258 1.54h-.026l-.06.01-.05.01-.06.01-.07.02-.03.01-.01.01-.07.02-.04.02-.06.03-.05.02-.05.03-.05.03-.04.03-.05.04-.03.03-.05.05-.03.03-.04.05-.03.04-.038.05-.03.05-.02.05-.03.06-.02.04-.02.06-.015.048-.02.06-.013.06-.01.05-.01.07v.04l-.01.076v.015l.005.03.003.075.01.057.01.06.013.07.01.03.96 3.847c.13.53.56.87 1.04.87.094 0 .19-.015.29-.04.57-.178.91-.828.75-1.457l-.643-2.56c1-.323 1.85-1.02 2.5-2.06 1.576 2.96 4.503 4.84 7.68 4.84.594 0 1.196-.07 1.8-.2.58-.13.956-.76.836-1.4zm-14.74 3.154c-1.692-1.046-6.085-4.556-6.085-8.185 0-1.944.477-3.325 1.417-4.1 1.818-1.502 4.9-.556 4.932-.546.56.18 1.16-.18 1.33-.81.16-.63-.16-1.28-.73-1.47-.17-.06-4.14-1.29-6.82.92-1.52 1.24-2.29 3.26-2.29 5.99 0 2.47 1.23 4.96 3.66 7.4.76.76 1.51 1.39 2.13 1.86-1.29.21-2.96.75-4.21 2.12-.21.23-.21.6 0 .83.1.11.24.17.38.17s.28-.06.38-.17c1.6-1.75 4.13-1.9 5.01-1.9.11.04.23.06.35.06.37 0 .74-.22.94-.6.29-.57.1-1.29-.41-1.61zM8.85 10.204c-.29-.07-.578.133-.64.452l-.67 3.374c-.71-.842-1.52-1.35-2.424-1.52-1.895-.35-3.454.964-3.52 1.02-.233.2-.274.57-.092.827.182.257.52.303.755.104.01-.01 1.26-1.05 2.68-.78.91.18 1.73.86 2.42 2.04.1.17.27.27.45.27l.09-.01c.21-.04.38-.22.43-.45l.91-4.61c.06-.32-.12-.63-.41-.7zM3.398 5.52c0 .228.168.413.376.413s.377-.185.377-.414c0-.23-.16-.42-.37-.42s-.37.18-.37.41z" fill="#3A434E"/></g></svg>