<svg width="32" height="232" viewBox="0 0 32 232" xmlns="http://www.w3.org/2000/svg"><desc>Created with Sketch.</desc><g fill="none"><path d="M6.414 144.064c-.086-.045-.183-.062-.28-.05-.103.015-.2.065-.275.143-.095.095-.146.224-.146.36 0 .19.103.364.265.45.067.035.142.054.216.054.075 0 .15-.014.216-.05l.125-.094c.09-.095.14-.224.14-.36 0-.133-.052-.26-.142-.357l-.124-.094zm-.603-11.956c-.043-.098-.12-.177-.212-.226-.083-.044-.176-.06-.27-.05l-.194.072-.088.072c-.148.154-.185.39-.09.587.046.096.12.174.21.222.068.036.143.055.22.055.127 0 .25-.053.34-.148.146-.154.182-.39.09-.584zm23.69-7.07l-.12-.092c-.086-.045-.184-.062-.28-.05-.103.015-.2.065-.275.143-.09.09-.142.22-.142.355 0 .19.104.365.266.45.066.036.14.055.216.055.075 0 .148-.02.216-.053l.125-.095c.09-.095.14-.225.14-.36 0-.133-.05-.262-.14-.357zM4.74 140.99l-.4-.23-.22-.42c-.085-.162-.246-.262-.422-.262s-.338.1-.423.262l-.218.42-.4.23c-.154.088-.25.258-.25.442 0 .185.096.355.25.443l.4.23.218.42c.085.162.247.263.423.263s.337-.1.422-.263l.22-.42.4-.23c.154-.088.25-.258.25-.443s-.096-.354-.25-.442zm20.002-18.103l.4.23.218.42c.085.16.247.26.423.26s.337-.1.422-.26l.218-.42.4-.23c.154-.09.25-.26.25-.443 0-.185-.096-.355-.25-.443l-.4-.23-.218-.42c-.085-.16-.246-.26-.422-.26s-.338.1-.423.26l-.22.42-.4.23c-.153.09-.25.26-.25.444 0 .185.097.355.25.443zM16.22 142.86c-.036-.144-.13-.264-.26-.328-.127-.065-.275-.066-.405-.005l-2.032.963c-.13.062-.226.18-.265.323-.04.143-.015.297.064.42l1.825 2.83c.13.203.383.278.596.177l1.023-.485c.213-.1.326-.35.268-.587l-.814-3.307zm5.748.455c-.508-1.168-1.416-2.066-2.56-2.53-.17-.07-.348-.13-.53-.178-.627-.272-1.124-.776-1.404-1.427-.185-.43-.263-.902-.226-1.37l.086-.336.002-.01.002-.01.04-.218.003-.023.007-.018.003-.03.024-.21.002-.034.004-.06v-.024l.007-.17v-.113l-.004-.164-.007-.12-.015-.163-.01-.114-.028-.17-.002-.012-.018-.095-.04-.17-.006-.017-.024-.093-.057-.19-.003-.01-.024-.072-.105-.27c-.885-2.064-3.21-2.986-5.174-2.054l-.36.17-3.36-7.434-.023-.065-.185-.43 1.03-.49c.242-.113.35-.413.24-.667-.11-.254-.395-.367-.637-.252l-1.03.49-.24-.553 1.032-.49c.242-.113.35-.413.24-.666-.11-.254-.394-.367-.636-.252l-1.03.488-.016-.036c-.038-.09-.098-.16-.17-.21l-.393-1.73c-.032-.14-.12-.257-.235-.325-.38-.383-.95-.493-1.44-.26-.49.234-.79.753-.767 1.305-.03.137 0 .282.077.4l.976 1.452c-.01.09 0 .183.04.27l.015.037-1.03.49c-.243.11-.35.41-.242.664.11.254.394.368.636.252l1.03-.49.24.553-1.033.49c-.242.114-.35.413-.24.667.11.254.394.367.636.252l1.03-.49.186.43.032.06 3.09 7.564-.36.17c-1.964.933-2.842 3.37-1.954 5.434l.12.256.044.08.1.174.043.07.01.018.1.15.062.083.106.14.074.085.11.12.072.078.113.11.01.01.074.07.127.106.014.01.052.042.028.022.168.12.004.003.022.014.004.004.008.005.016.01.18.112.01.005.307.16c.36.28.646.654.83 1.085.28.65.31 1.375.09 2.05-.084.174-.16.353-.223.534-.426 1.21-.383 2.526.124 3.707.823 1.914 2.713 3.06 4.704 2.856l.368-.055c.378-.07.746-.19 1.096-.357l1.376-.654.04.092c.108.253.393.367.635.25.24-.114.35-.413.24-.667l-.04-.09 1.375-.65c.406-.194.784-.446 1.12-.75l.14-.13c1.463-1.43 1.893-3.68 1.07-5.59l-.01-.02zm-6.25 2.83l-1.28-1.98.992-.47.57 2.314-.284.13zM5.74 122.66l-.85-1.264c-.008-.148.07-.288.202-.35.13-.06.282-.03.382.072l.342 1.505-.077.036zm1.188 2.88l-.834-1.94.16-.075.834 1.938-.16.076zm.395.92l.162-.077 5.8 12.825-.632.3-5.33-13.048zm8.113 23.66l-.022.01c-.24.114-.495.196-.755.245l-.26.037c-.89.092-1.79-.22-2.456-.843.026-.195.08-.377.157-.546.177-.384.477-.697.865-.88.887-.42 1.934-.006 2.334.925.07.163.116.334.14.51.022.177.02.36-.005.536zm4.157-2.67l-.08.074c-.2.18-.42.328-.66.44l-2.513 1.19c-.04-.17-.093-.336-.162-.497-.62-1.438-2.237-2.08-3.607-1.43-.41.196-.762.49-1.03.85-.23-.647-.233-1.352-.003-2.005l.152-.356.052-.125c.417-1.19.373-2.48-.123-3.63-.34-.794-.88-1.474-1.56-1.97l-.187-.105-.213-.108-.007-.003-.09-.055-.01-.008-.014-.01-.08-.053-.017-.014-.04-.032-.07-.055-.024-.025-.017-.014-.058-.056-.04-.04-.053-.06-.04-.047-.052-.07-.03-.04-.05-.074-.03-.05-.047-.08-.025-.048-.06-.13c-.452-1.05-.006-2.288.993-2.76l.328-.155 1.83 4.484c.052.125.15.223.27.272.12.05.254.046.37-.01l1.53-.724c.243-.116.35-.414.24-.67l-.023-.048-1.975-4.367.324-.155c1-.474 2.18-.005 2.63 1.043l.053.133.015.047.03.098.016.058.02.09.008.04.002.01.014.088.008.06.007.08.004.062v.137l-.004.086-.003.058v.02l-.013.097-.002.02v.004l-.018.107v.006l-.003.01-.065.24-.048.214c-.096.864.033 1.738.375 2.532.495 1.153 1.39 2.04 2.515 2.5l.125.04.356.115c.674.273 1.21.804 1.506 1.493l.008.017c.476 1.12.222 2.433-.635 3.27zm-4.278-6.464c-.11-.254-.394-.367-.637-.253l-1.86.88c-.24.116-.35.415-.24.67.11.253.395.366.637.25l1.86-.88c.24-.114.35-.414.24-.667zm9.802-1.874l-13.135-15.577c-.176-.208-.48-.228-.68-.043l-.36.335c-.2.184-.217.504-.042.712.173.202.47.223.67.05l.01-.01 12.496 14.82-.352.33-.01.006c-.198.185-.217.504-.04.713.142.17.37.216.557.127l.125-.082.36-.335 1.578 1.87c.144.17.37.216.56.127l.12-.082c.2-.185.218-.504.043-.712l-1.895-2.247zm2.79-11.12l-.003-.037-.014-.047-.015-.047-.017-.03-.027-.05-.025-.038-.03-.037-.033-.028-.04-.034-.03-.016-.054-.03-.004-.002-3.805-1.584c-.15-.06-.317-.04-.45.053-.13.094-.21.25-.21.418v3.89c-.153-.057-.315-.09-.486-.09-.797 0-1.446.683-1.446 1.52 0 .838.65 1.52 1.447 1.52s1.448-.68 1.448-1.52v-2.99l1.802.75 1.043.437v1.96c-.152-.056-.315-.088-.485-.088-.798 0-1.448.68-1.448 1.52 0 .835.65 1.517 1.448 1.517.798 0 1.447-.68 1.447-1.52v-5.322l-.007-.064zm-5.247 4.31c-.268 0-.485-.23-.485-.51s.217-.51.485-.51.485.23.485.51-.217.51-.485.51zm3.808 1.585c-.268 0-.485-.23-.485-.51s.218-.508.485-.508.485.225.485.505-.218.51-.485.51zm.485-5.356v.375l-.266-.11-2.58-1.075v-.5l2.845 1.185v.128zm-7.82.038c.8 0 1.448-.682 1.448-1.52v-4.683c.26.162.438.458.438.797 0 .278.216.504.48.504.267 0 .482-.226.482-.504 0-1.07-.83-1.938-1.846-1.938l-.016.002-.017-.002c-.265 0-.48.226-.48.506v3.887c-.152-.057-.315-.09-.485-.09-.798 0-1.447.682-1.447 1.52 0 .837.65 1.52 1.447 1.52zm0-2.028c.27 0 .486.227.486.51s-.22.507-.49.507-.484-.228-.484-.51.216-.508.484-.508z" fill="#206FAC"/><path d="M6.414 104.064c-.086-.045-.183-.062-.28-.05-.103.015-.2.065-.275.143-.095.095-.146.224-.146.36 0 .19.103.364.265.45.067.035.142.054.216.054.075 0 .15-.014.216-.05l.125-.094c.09-.095.14-.224.14-.36 0-.133-.052-.26-.142-.357l-.124-.094zM5.81 92.108c-.046-.098-.122-.177-.215-.226-.083-.044-.176-.06-.27-.05l-.194.072-.085.072c-.148.154-.185.39-.09.587.046.096.12.174.21.222.068.036.143.055.22.055.127 0 .25-.053.34-.148.146-.154.182-.39.09-.584zm23.69-7.07l-.123-.092c-.086-.045-.184-.062-.28-.05-.103.015-.2.065-.275.143-.09.09-.142.22-.142.355 0 .19.103.365.265.45.067.036.142.055.217.055.075 0 .148-.02.216-.053l.125-.095c.09-.095.14-.225.14-.36 0-.133-.05-.262-.14-.357zM4.74 100.99l-.4-.23-.22-.42c-.085-.162-.246-.262-.422-.262s-.338.1-.423.262l-.218.42-.4.23c-.154.088-.25.258-.25.442 0 .185.096.355.25.443l.4.23.218.42c.085.162.247.263.423.263s.337-.1.422-.263l.22-.42.4-.23c.154-.088.25-.258.25-.443s-.096-.354-.25-.442zm20-18.105l.4.23.218.42c.085.16.247.26.423.26s.34-.1.425-.26l.218-.42.4-.23c.155-.09.25-.26.25-.443 0-.185-.095-.355-.25-.443l-.4-.23-.217-.42c-.085-.166-.246-.266-.422-.266s-.337.1-.422.262l-.22.42-.4.23c-.152.087-.25.258-.25.442s.098.354.25.442zm-8.52 19.975c-.036-.144-.13-.264-.26-.328-.127-.065-.275-.066-.405-.005l-2.032.963c-.13.062-.226.18-.265.323-.04.143-.015.297.064.42l1.825 2.83c.13.203.383.278.596.177l1.023-.485c.213-.1.326-.35.268-.587l-.814-3.307zm5.748.455c-.508-1.168-1.416-2.066-2.56-2.53-.17-.07-.348-.13-.53-.178-.627-.272-1.124-.776-1.404-1.427-.185-.43-.263-.902-.226-1.37l.086-.336.002-.01.002-.01.04-.218.003-.023.007-.018.003-.03.024-.21.002-.034.004-.06v-.024l.007-.17v-.113l-.004-.164-.007-.12-.015-.163-.01-.114-.028-.17-.002-.012-.018-.095-.04-.17-.006-.017-.024-.093-.057-.19-.003-.01-.024-.072-.105-.27c-.885-2.064-3.21-2.986-5.174-2.054l-.36.17-3.36-7.434-.023-.065-.185-.43 1.03-.49c.242-.113.35-.413.24-.667-.11-.254-.395-.367-.637-.252l-1.03.49-.24-.553 1.032-.49c.242-.113.35-.413.24-.666-.11-.254-.394-.367-.636-.252l-1.03.488-.016-.036c-.038-.09-.098-.16-.17-.21l-.393-1.73c-.032-.14-.12-.257-.235-.325-.38-.383-.95-.493-1.44-.26-.49.234-.79.753-.767 1.305-.03.137 0 .282.077.4l.976 1.452c-.01.09 0 .183.04.27l.015.037-1.03.49c-.243.11-.35.41-.242.664.11.254.394.368.636.252l1.03-.49.24.553-1.033.49c-.242.114-.35.413-.24.667.11.254.394.367.636.252l1.03-.49.186.43.032.06 3.09 7.564-.36.17c-1.964.933-2.842 3.37-1.954 5.434l.12.256.044.08.1.174.043.07.01.018.1.15.062.083.106.14.074.085.11.12.072.078.113.11.01.01.074.07.127.106.014.01.052.042.028.022.168.12.004.003.022.014.004.004.008.005.016.01.18.112.01.005.307.16c.36.28.646.654.83 1.085.28.65.31 1.375.09 2.05-.084.174-.16.353-.223.534-.426 1.21-.383 2.526.124 3.707.823 1.914 2.713 3.06 4.704 2.856l.368-.055c.378-.07.746-.19 1.096-.357l1.376-.654.04.092c.108.253.393.367.635.25.24-.114.35-.413.24-.667l-.04-.09 1.375-.65c.406-.194.784-.446 1.12-.75l.14-.13c1.463-1.43 1.893-3.68 1.07-5.59l-.01-.02zm-6.25 2.83l-1.28-1.98.992-.47.57 2.314-.284.13zM5.74 82.66l-.85-1.264c-.008-.148.07-.288.202-.35.13-.06.282-.03.382.072l.342 1.505-.077.036zm1.188 2.88l-.834-1.94.16-.075.834 1.938-.16.076zm.395.92l.162-.077 5.8 12.825-.632.3-5.33-13.048zm8.113 23.66l-.022.01c-.24.114-.495.196-.755.245l-.26.037c-.89.092-1.79-.22-2.456-.843.026-.195.08-.377.157-.546.177-.384.477-.697.865-.88.887-.42 1.934-.006 2.334.925.07.163.116.334.14.51.022.177.02.36-.005.536zm4.157-2.67l-.08.074c-.2.18-.42.328-.66.44l-2.513 1.19c-.04-.17-.093-.336-.162-.497-.62-1.438-2.237-2.08-3.607-1.43-.41.196-.762.49-1.03.85-.23-.647-.233-1.352-.003-2.005l.152-.356.052-.125c.417-1.19.373-2.48-.123-3.63-.34-.794-.88-1.474-1.56-1.97l-.187-.105-.213-.108-.007-.003-.09-.055-.01-.008-.014-.01-.08-.053-.017-.014-.04-.032-.07-.055-.024-.025-.017-.014-.058-.056-.04-.04-.053-.06-.04-.047-.052-.07-.03-.04-.05-.074-.03-.05-.047-.08-.025-.048-.06-.13c-.452-1.05-.006-2.288.993-2.76l.328-.155 1.83 4.484c.052.125.15.223.27.272.12.05.254.046.37-.01l1.53-.724c.243-.116.35-.414.24-.67l-.023-.048-1.975-4.367.324-.155c1-.474 2.18-.005 2.63 1.043l.053.133.015.047.03.098.016.058.02.09.008.04.002.01.014.088.008.06.007.08.004.062v.137l-.004.086-.003.058v.02l-.013.097-.002.02v.004l-.018.107v.006l-.003.01-.065.24-.048.214c-.096.864.033 1.738.375 2.532.495 1.153 1.39 2.04 2.515 2.5l.125.04.356.115c.674.273 1.21.804 1.506 1.493l.008.017c.476 1.12.222 2.433-.635 3.27zm-4.278-6.464c-.11-.254-.394-.367-.637-.253l-1.86.88c-.24.116-.35.415-.24.67.11.253.395.366.637.25l1.86-.88c.24-.114.35-.414.24-.667zm9.802-1.874L11.982 83.535c-.176-.208-.48-.228-.68-.043l-.36.335c-.2.184-.217.504-.042.712.173.202.47.223.67.05l.01-.01L24.076 99.4l-.352.33-.01.007c-.198.185-.217.504-.04.713.142.17.37.217.557.128l.125-.082.36-.335 1.578 1.87c.144.17.37.217.56.128l.12-.082c.2-.185.218-.504.043-.712l-1.895-2.247zm2.79-11.12l-.003-.037-.014-.047-.015-.047-.017-.03-.027-.05-.025-.038-.03-.037-.033-.028-.04-.034-.03-.016-.054-.03-.004-.002-3.805-1.584c-.15-.06-.317-.04-.45.053-.13.094-.21.25-.21.418v3.89c-.153-.057-.315-.09-.486-.09-.797 0-1.446.683-1.446 1.52 0 .838.65 1.52 1.447 1.52s1.448-.68 1.448-1.52v-2.99l1.802.75 1.043.437v1.96c-.152-.056-.315-.088-.485-.088-.798 0-1.448.68-1.448 1.52 0 .835.65 1.517 1.448 1.517.798 0 1.447-.68 1.447-1.52V88.06l-.007-.064zM22.66 92.3c-.268 0-.485-.23-.485-.51s.217-.51.485-.51.485.23.485.51-.217.51-.485.51zm3.808 1.585c-.268 0-.485-.23-.485-.51s.218-.508.485-.508.485.228.485.508-.218.51-.485.51zm.485-5.356v.37l-.266-.11-2.58-1.076v-.5l2.845 1.186v.13zm-7.82.032c.8 0 1.448-.682 1.448-1.52V82.36c.26.163.438.46.438.798 0 .277.216.503.48.503.267 0 .482-.223.482-.5 0-1.07-.83-1.938-1.846-1.938l-.016.003-.017-.002c-.265 0-.48.227-.48.507v3.887c-.152-.057-.315-.09-.485-.09-.798 0-1.447.682-1.447 1.52 0 .837.65 1.52 1.447 1.52zm0-2.028c.27 0 .486.228.486.51s-.22.508-.49.508-.484-.228-.484-.51.216-.508.484-.508z" fill="#fff"/><path d="M6.414 64.064c-.086-.045-.183-.062-.28-.05-.103.015-.2.065-.275.143-.095.095-.146.224-.146.36 0 .19.103.364.265.45.067.035.142.054.216.054.075 0 .15-.014.216-.05l.125-.094c.09-.095.14-.224.14-.36 0-.133-.052-.26-.142-.357l-.124-.094zM5.81 52.108c-.046-.098-.122-.177-.215-.226-.083-.044-.176-.06-.27-.05l-.194.072-.085.072c-.148.154-.185.39-.09.587.046.096.12.174.21.222.068.036.143.055.22.055.127 0 .25-.053.34-.148.146-.154.182-.39.09-.584zm23.69-7.07l-.123-.092c-.086-.045-.184-.062-.28-.05-.103.015-.2.065-.275.143-.09.09-.142.22-.142.355 0 .19.103.365.265.45.067.036.142.055.217.055.075 0 .148-.02.216-.053l.125-.095c.09-.095.14-.225.14-.36 0-.133-.05-.262-.14-.357zM4.74 60.99l-.4-.23-.22-.42c-.085-.162-.246-.262-.422-.262s-.338.1-.423.262l-.218.42-.4.23c-.154.088-.25.258-.25.442 0 .185.096.355.25.443l.4.23.218.42c.085.162.247.263.423.263s.337-.1.422-.263l.22-.42.4-.23c.154-.088.25-.258.25-.443s-.096-.354-.25-.442zm20-18.105l.4.23.218.42c.085.16.247.26.423.26s.34-.1.425-.26l.218-.42.4-.23c.155-.09.25-.26.25-.443 0-.185-.095-.355-.25-.443l-.4-.23-.217-.42c-.085-.166-.246-.266-.422-.266s-.337.1-.422.262l-.22.42-.4.23c-.152.087-.25.258-.25.442s.098.354.25.442zM16.22 62.86c-.036-.144-.13-.264-.26-.328-.127-.065-.275-.066-.405-.005l-2.032.963c-.13.062-.226.18-.265.323-.04.143-.015.297.064.42l1.825 2.83c.13.203.383.278.596.177l1.023-.485c.213-.1.326-.35.268-.587l-.814-3.307zm5.748.455c-.508-1.168-1.416-2.066-2.56-2.53-.17-.07-.348-.13-.53-.178-.627-.272-1.124-.776-1.404-1.427-.185-.43-.263-.902-.226-1.37l.086-.336.002-.01.002-.01.04-.218.003-.023.007-.018.003-.03.024-.21.002-.034.004-.06v-.024l.007-.17v-.113l-.004-.164-.007-.12-.015-.163-.01-.114-.028-.17-.002-.012-.018-.095-.04-.17-.006-.017-.024-.093-.057-.19-.003-.01-.024-.072-.105-.27c-.885-2.064-3.21-2.986-5.174-2.054l-.36.17-3.36-7.434-.023-.065-.185-.43 1.03-.49c.242-.113.35-.413.24-.667-.11-.254-.395-.367-.637-.252l-1.03.49-.24-.553 1.032-.49c.242-.113.35-.413.24-.666-.11-.254-.394-.367-.636-.252l-1.03.488-.016-.036c-.038-.09-.098-.16-.17-.21l-.393-1.73c-.032-.14-.12-.257-.235-.325-.38-.383-.95-.493-1.44-.26-.49.234-.79.753-.767 1.305-.03.137 0 .282.077.4l.976 1.452c-.01.09 0 .183.04.27l.015.037-1.03.49c-.243.11-.35.41-.242.664.11.254.394.368.636.252l1.03-.49.24.553-1.033.49c-.242.114-.35.413-.24.667.11.254.394.367.636.252l1.03-.49.186.43.032.06 3.09 7.564-.36.17c-1.964.933-2.842 3.37-1.954 5.434l.12.256.044.08.1.174.043.07.01.018.1.15.062.083.106.14.074.085.11.12.072.078.113.11.01.01.074.07.127.106.014.01.052.042.028.022.168.12.004.003.022.014.004.004.008.005.016.01.18.112.01.005.307.16c.36.28.646.654.83 1.085.28.65.31 1.375.09 2.05-.084.174-.16.353-.223.534-.426 1.21-.383 2.526.124 3.707.823 1.914 2.713 3.06 4.704 2.856l.368-.055c.378-.07.746-.19 1.096-.357l1.376-.654.04.092c.108.253.393.367.635.25.24-.114.35-.413.24-.667l-.04-.09 1.375-.65c.406-.194.784-.446 1.12-.75l.14-.13c1.463-1.43 1.893-3.68 1.07-5.59l-.01-.02zm-6.25 2.83l-1.28-1.98.992-.47.57 2.314-.284.13zM5.74 42.66l-.85-1.264c-.008-.148.07-.288.202-.35.13-.06.282-.03.382.072l.342 1.505-.077.036zm1.188 2.88l-.834-1.94.16-.075.834 1.938-.16.076zm.395.92l.162-.077 5.8 12.825-.632.3-5.33-13.048zm8.113 23.66l-.022.01c-.24.114-.495.196-.755.245l-.26.037c-.89.092-1.79-.22-2.456-.843.026-.195.08-.377.157-.546.177-.384.477-.697.865-.88.887-.42 1.934-.006 2.334.925.07.163.116.334.14.51.022.177.02.36-.005.536zm4.157-2.67l-.08.074c-.2.18-.42.328-.66.44l-2.513 1.19c-.04-.17-.093-.336-.162-.497-.62-1.438-2.237-2.08-3.607-1.43-.41.196-.762.49-1.03.85-.23-.647-.233-1.352-.003-2.005l.152-.356.052-.125c.417-1.19.373-2.48-.123-3.63-.34-.794-.88-1.474-1.56-1.97l-.187-.105-.213-.108-.007-.003-.09-.055-.01-.008-.014-.01-.08-.053-.017-.014-.04-.032-.07-.055-.024-.025-.017-.014-.058-.056-.04-.04-.053-.06-.04-.047-.052-.07-.03-.04-.05-.074-.03-.05-.047-.08-.025-.048-.06-.13c-.452-1.05-.006-2.288.993-2.76l.328-.155 1.83 4.484c.052.125.15.223.27.272.12.05.254.046.37-.01l1.53-.724c.243-.116.35-.414.24-.67l-.023-.048-1.975-4.367.324-.155c1-.474 2.18-.005 2.63 1.043l.053.133.015.047.03.098.016.058.02.09.008.04.002.01.014.088.008.06.007.08.004.062v.137l-.004.086-.003.058v.02l-.013.097-.002.02v.004l-.018.107v.006l-.003.01-.065.24-.048.214c-.096.864.033 1.738.375 2.532.495 1.153 1.39 2.04 2.515 2.5l.125.04.356.115c.674.273 1.21.804 1.506 1.493l.008.017c.476 1.12.222 2.433-.635 3.27zm-4.278-6.464c-.11-.254-.394-.367-.637-.253l-1.86.88c-.24.116-.35.415-.24.67.11.253.395.366.637.25l1.86-.88c.24-.114.35-.414.24-.667zm9.802-1.874L11.982 43.535c-.176-.208-.48-.228-.68-.043l-.36.335c-.2.184-.217.504-.042.712.173.202.47.223.67.05l.01-.01L24.076 59.4l-.352.33-.01.007c-.198.185-.217.504-.04.713.142.17.37.217.557.128l.125-.082.36-.335 1.578 1.87c.144.17.37.217.56.128l.12-.082c.2-.185.218-.504.043-.712l-1.895-2.247zm2.79-11.12l-.003-.037-.014-.047-.015-.047-.017-.03-.027-.05-.025-.038-.03-.037-.033-.028-.04-.034-.03-.016-.054-.03-.004-.002-3.805-1.584c-.15-.06-.317-.04-.45.053-.13.094-.21.25-.21.418v3.89c-.153-.057-.315-.09-.486-.09-.797 0-1.446.683-1.446 1.52 0 .838.65 1.52 1.447 1.52s1.448-.68 1.448-1.52v-2.99l1.802.75 1.043.437v1.96c-.152-.056-.315-.088-.485-.088-.798 0-1.448.68-1.448 1.52 0 .835.65 1.517 1.448 1.517.798 0 1.447-.68 1.447-1.52V48.06l-.007-.064zM22.66 52.3c-.268 0-.485-.23-.485-.51s.217-.51.485-.51.485.23.485.51-.217.51-.485.51zm3.808 1.585c-.268 0-.485-.23-.485-.51s.218-.508.485-.508.485.228.485.508-.218.51-.485.51zm.485-5.356v.37l-.266-.11-2.58-1.076v-.5l2.845 1.186v.13zm-7.82.032c.8 0 1.448-.682 1.448-1.52V42.36c.26.163.438.46.438.798 0 .277.216.503.48.503.267 0 .482-.223.482-.5 0-1.07-.83-1.938-1.846-1.938l-.016.003-.017-.002c-.265 0-.48.227-.48.507v3.887c-.152-.057-.315-.09-.485-.09-.798 0-1.447.682-1.447 1.52 0 .837.65 1.52 1.447 1.52zm0-2.028c.27 0 .486.228.486.51s-.22.508-.49.508-.484-.228-.484-.51.216-.508.484-.508z" fill="#67737B"/><path d="M6.414 24.064c-.086-.045-.183-.062-.28-.05-.103.015-.2.065-.275.143-.095.095-.146.224-.146.36 0 .19.103.364.265.45.067.035.142.054.216.054.075 0 .15-.014.216-.05l.125-.094c.09-.095.14-.224.14-.36 0-.133-.052-.26-.142-.357l-.124-.094zM5.81 12.108c-.046-.098-.122-.177-.215-.226-.083-.044-.176-.06-.27-.05l-.194.072-.085.072c-.148.154-.185.39-.09.587.046.096.12.174.21.222.068.036.143.055.22.055.127 0 .25-.053.34-.148.146-.154.182-.39.09-.584zm23.69-7.07l-.123-.092c-.086-.045-.184-.062-.28-.05-.103.015-.2.065-.275.143-.09.09-.142.22-.142.355 0 .19.103.365.265.45.067.036.142.055.217.055.075 0 .148-.02.216-.053l.125-.095c.09-.095.14-.225.14-.36 0-.133-.05-.262-.14-.357zM4.74 20.99l-.4-.23-.22-.42c-.085-.162-.246-.262-.422-.262s-.338.1-.423.262l-.218.42-.4.23c-.154.088-.25.258-.25.442 0 .185.096.355.25.443l.4.23.218.42c.085.162.247.263.423.263s.337-.1.422-.263l.22-.42.4-.23c.154-.088.25-.258.25-.443s-.096-.354-.25-.442zm20-18.105l.4.23.218.42c.085.16.247.26.423.26s.34-.1.425-.26l.218-.42.4-.23c.155-.09.25-.26.25-.443 0-.185-.095-.355-.25-.443l-.4-.23-.217-.42c-.085-.166-.246-.266-.422-.266s-.337.1-.422.262l-.22.42-.4.23c-.152.087-.25.258-.25.442s.098.354.25.442zM16.22 22.86c-.036-.144-.13-.264-.26-.328-.127-.065-.275-.066-.405-.005l-2.032.963c-.13.062-.226.18-.265.323-.04.143-.015.297.064.42l1.825 2.83c.13.203.383.278.596.177l1.023-.485c.213-.1.326-.35.268-.587l-.814-3.307zm5.748.455c-.508-1.168-1.416-2.066-2.56-2.53-.17-.07-.348-.13-.53-.178-.627-.272-1.124-.776-1.404-1.427-.185-.43-.263-.902-.226-1.37l.086-.336.002-.01.002-.01.04-.218.003-.023.007-.018.003-.03.024-.21.002-.034.004-.06v-.024l.007-.17v-.113l-.004-.164-.007-.12-.015-.163-.01-.114-.028-.17-.002-.012-.018-.095-.04-.17-.006-.017-.024-.093-.057-.19-.003-.01-.024-.072-.105-.27c-.885-2.064-3.21-2.986-5.174-2.054l-.36.17-3.36-7.434-.023-.065-.185-.43 1.03-.49c.242-.113.35-.413.24-.667-.11-.254-.395-.367-.637-.252l-1.03.49-.24-.553 1.032-.49c.242-.113.35-.413.24-.666-.11-.254-.394-.367-.636-.252l-1.03.488-.016-.036c-.038-.09-.098-.16-.17-.21L6.37.71C6.337.57 6.25.452 6.134.384c-.38-.383-.95-.493-1.44-.26-.49.234-.79.753-.767 1.305-.03.135 0 .28.077.4l.976 1.45c-.01.09 0 .182.038.27l.016.036-1.03.49c-.243.113-.35.412-.242.666.11.254.394.368.636.252l1.03-.49.24.553-1.032.49c-.242.115-.35.414-.24.668.11.254.394.367.636.252l1.03-.488.186.43.033.06 3.09 7.562-.36.17c-1.963.933-2.84 3.37-1.953 5.434l.12.257.044.08.1.174.044.07.01.018.1.15.062.083.106.137.074.087.11.12.072.078.114.11.01.01.074.07.127.106.014.01.052.043.027.022.168.12.004.003.02.014.005.002.008.005.016.01.18.113.01.006.306.16c.36.28.646.654.83 1.085.28.65.31 1.377.09 2.05-.084.176-.16.355-.223.536-.426 1.21-.383 2.526.124 3.707.823 1.914 2.713 3.06 4.704 2.856l.37-.055c.377-.07.745-.19 1.095-.357l1.376-.653.04.092c.11.253.394.367.636.25.24-.114.35-.413.24-.667l-.04-.09 1.375-.653c.407-.192.785-.444 1.12-.75l.14-.13c1.464-1.43 1.894-3.677 1.07-5.59l-.01-.02zm-6.25 2.83l-1.28-1.98.992-.47.57 2.314-.284.13zM5.74 2.66l-.85-1.264c-.008-.148.07-.288.202-.35.13-.06.282-.03.382.072l.342 1.505-.077.036zm1.188 2.88L6.094 3.6l.16-.075.834 1.938-.16.076zm.395.92l.162-.077 5.8 12.825-.632.3L7.323 6.46zm8.113 23.66l-.022.01c-.24.114-.495.196-.755.245l-.26.037c-.89.092-1.79-.22-2.456-.843.026-.195.08-.377.157-.546.177-.384.477-.697.865-.88.887-.42 1.934-.006 2.334.925.07.163.116.334.14.51.022.177.02.36-.005.536zm4.157-2.67l-.08.074c-.2.18-.42.328-.66.44l-2.513 1.19c-.04-.17-.093-.336-.162-.497-.62-1.438-2.237-2.08-3.607-1.43-.41.196-.762.49-1.03.85-.23-.647-.233-1.352-.003-2.005l.152-.356.052-.125c.417-1.19.373-2.48-.123-3.63-.34-.794-.88-1.474-1.56-1.97l-.187-.105-.213-.108-.007-.003-.09-.055-.01-.008-.014-.01-.08-.053-.017-.014-.04-.032-.07-.055-.024-.025-.017-.014-.058-.056-.04-.04-.053-.06-.04-.047-.052-.07-.03-.04-.05-.074-.03-.05-.047-.08-.025-.048-.06-.13c-.452-1.05-.006-2.288.993-2.76l.328-.155 1.83 4.484c.052.125.15.223.27.272.12.05.254.046.37-.01l1.53-.724c.243-.116.35-.414.24-.67l-.023-.048-1.975-4.367.324-.155c1-.474 2.18-.005 2.63 1.043l.053.133.015.047.03.098.016.058.02.09.008.04.002.01.014.088.008.06.007.08.004.062v.137l-.004.086-.003.058v.02l-.013.097-.002.02v.004l-.018.107v.006l-.003.01-.065.24-.048.214c-.096.864.033 1.738.375 2.532.495 1.153 1.39 2.04 2.515 2.5l.125.04.356.115c.674.273 1.21.804 1.506 1.493l.008.017c.476 1.12.222 2.433-.635 3.27zm-4.278-6.464c-.11-.254-.394-.367-.637-.253l-1.86.88c-.24.116-.35.415-.24.67.11.253.395.366.637.25l1.86-.88c.24-.114.35-.414.24-.667zm9.802-1.874L11.982 3.535c-.176-.208-.48-.228-.68-.043l-.36.335c-.2.184-.217.504-.042.712.173.202.47.223.67.05l.01-.01L24.076 19.4l-.352.33-.01.007c-.198.185-.217.504-.04.713.142.17.37.217.557.128l.125-.082.36-.335 1.578 1.87c.144.17.37.217.56.128l.12-.082c.2-.185.218-.504.043-.712l-1.895-2.247zm2.79-11.12l-.003-.037-.014-.047-.015-.047-.017-.03-.027-.05-.025-.038-.03-.037-.033-.028-.04-.034-.03-.016-.054-.03-.004-.002L23.81 6.01c-.15-.06-.317-.04-.45.053-.13.094-.21.25-.21.418v3.89c-.153-.057-.315-.09-.486-.09-.797 0-1.446.683-1.446 1.52 0 .838.65 1.52 1.447 1.52s1.448-.68 1.448-1.52V8.81l1.802.75 1.043.435v1.96c-.152-.056-.315-.088-.485-.088-.798 0-1.448.68-1.448 1.52 0 .836.65 1.518 1.448 1.518.798 0 1.447-.68 1.447-1.52V8.06l-.007-.064zM22.66 12.3c-.268 0-.485-.23-.485-.51s.217-.51.485-.51.485.23.485.51-.217.51-.485.51zm3.808 1.585c-.268 0-.485-.23-.485-.51s.218-.508.485-.508.485.228.485.508-.218.51-.485.51zm.485-5.356v.37l-.266-.11-2.58-1.076v-.5L26.952 8.4v.13zm-7.82.032c.8 0 1.448-.682 1.448-1.52v-4.68c.26.16.438.457.438.796 0 .276.216.502.48.502.267 0 .482-.226.482-.504 0-1.07-.83-1.938-1.846-1.938l-.016.002-.017-.002c-.265 0-.48.226-.48.506V5.61c-.152-.056-.315-.09-.485-.09-.798 0-1.447.683-1.447 1.52 0 .838.65 1.52 1.447 1.52zm0-2.028c.27 0 .486.228.486.51s-.22.508-.49.508-.484-.228-.484-.51.216-.508.484-.508z" fill="#3A434E"/></g></svg>