<svg width="32" height="232" viewBox="0 0 32 232" xmlns="http://www.w3.org/2000/svg"><desc>Created with Sketch.</desc><g fill="none"><path d="M14.97 123.75c.232.23.53.355.84.355h4.04l-.007.13c0 .353.136.69.375.924.203.195.46.304.73.304H24.7c.61 0 1.104-.552 1.104-1.23s-.496-1.232-1.104-1.232h-.134l.034-.32c0-.78-.57-1.418-1.274-1.418H15.81c-.31 0-.61.126-.842.355-.275.27-.432.66-.432 1.064s.158.795.432 1.064zm.652-1.303c.037-.036.1-.08.19-.08h7.516c.158 0 .286.143.286.32 0 .175-.128.318-.286.318-.273 0-.494.246-.494.55h-.002c0 .304.22.55.494.55H24.7c.066 0 .118.06.118.13 0 .073-.052.132-.117.132h-3.75l-.08-.033-.04-.098.04-.097.08-.038c.277 0 .498-.246.498-.55 0-.304-.22-.55-.494-.55h-5.14c-.087 0-.15-.043-.188-.08-.036-.036-.097-.115-.097-.24 0-.123.06-.202.096-.238zm15.892 18.11H30.17l-.877-2.368.764-.496.05.035c.167.105.357.16.55.16.406 0 .782-.245.982-.64.3-.605.104-1.37-.437-1.708l-.063-.034v-1.624l.058-.03c.54-.342.727-1.11.42-1.71-.2-.39-.574-.634-.978-.634-.194 0-.386.057-.556.164l-.043.03-1.35-.868.004-.065c0-.69-.504-1.253-1.124-1.253-.62 0-1.126.562-1.126 1.254l.004.078-1.367.88-.05-.034c-.164-.104-.354-.16-.546-.16-.407 0-.783.246-.982.642-.3.602-.11 1.37.434 1.705l.083.045v1.6l-.08.04c-.54.343-.73 1.11-.42 1.71.2.39.573.635.976.635.194 0 .387-.057.555-.164l.065-.045.75.484-.878 2.366H22.36v-3.85c0-.11-.015-.214-.04-.313l.667-1.237c.09-.17.094-.382.006-.554-.088-.173-.252-.28-.43-.28H21.47V131.5l-.005-.067v-1.085c0-.237-.102-1.063-1.413-1.776-.137-.074-.296-.074-.433 0-1.31.712-1.416 1.54-1.416 1.776v1.085l-.006.067v.29h-2.21v-.686c.195-.072.34-.276.34-.52 0-.304-.22-.55-.495-.55h-.91v-.854c0-.304-.222-.55-.494-.55h-.18l.4-.223c.245-.136.345-.465.223-.737-.122-.272-.418-.383-.662-.248l-1.085.602c.16-.216.15-.535-.03-.737-.193-.215-.505-.215-.698 0l-.344.38v-.54c0-.305-.22-.55-.494-.55-.273 0-.495.245-.495.55v.6l-.31-.598c-.135-.268-.437-.36-.673-.207-.237.15-.318.488-.182.75l.223.432-.333-.402c-.185-.223-.498-.237-.698-.03-.2.206-.212.554-.028.777l.18.217c-.183.08-.31.277-.31.51v.853h-.91c-.273 0-.494.247-.494.55 0 .244.142.448.34.52v.686H5.66v-.29l-.01-.118v-1.034c0-.237-.103-1.063-1.414-1.776-.137-.074-.296-.074-.433 0-1.31.712-1.413 1.54-1.413 1.776v3.97H1.294c-.183 0-.35.11-.437.29-.085.18-.075.4.028.567l.683 1.126c-.045.124-.07.26-.07.403v11.676H1c-.546 0-.988.492-.988 1.1 0 .608.442 1.1.987 1.1h27.685c.546 0 .987-.492.987-1.1s-.442-1.1-.987-1.1h-6.32v-1.38h6.476c.275 0 .496-.247.496-.55 0-.305-.22-.55-.494-.55H27.67c-.04-.325-.145-.636-.302-.912l.013-.215c0-.865-.63-1.568-1.403-1.568l-.21.02c-.33-.296-.744-.46-1.172-.46-.5 0-.967.217-1.314.6-.15-.05-.307-.077-.465-.077-.153 0-.303.024-.446.07v-1.7h2.792l.156.03h4.54l.155-.03h1.51c.273 0 .493-.245.493-.55 0-.303-.22-.55-.493-.55zm-5.892-3.953l1.466-.943v1.868l-.14.087-1.328-.855v-.155zm-.613-2.704l.155-.11 1.427.917-1.45.933-.136-.092V133.9zm5.142-.006v1.626l-.16.106-1.427-.918 1.427-.918.16.104zm-1.95 3.725l-.13-.087v-1.875l1.458.94.005.16-1.334.86zm1.315-4.798l-1.446.93v-1.86l.14-.09 1.31.842-.005.18zm-2.584-1.015l.15.095v1.848l-1.475-.95-.007-.136 1.333-.857zm-.374 7.394c.182.417.565.704 1.01.704.45 0 .84-.3 1.02-.73l.51 1.378h-3.04l.5-1.35zm-23.187-8.256v-.6c.01-.126.29-.42.642-.657.35.237.63.532.64.656V131h-1.28v-.055zm6.547-1.22h4.015v.305h-4.01v-.305zm-1.063 1.405H15v.653H8.86v-.654zm-.495 1.754H18.2v1.427H5.663v-1.426h2.704zm10.83-1.94v-.6c.01-.126.29-.42.643-.657.333.225.63.52.64.656V131h-1.283v-.055zm-.006 1.94v-.783h1.295v2.21h-1.29v-1.426zm-15.814 0v-.783h1.296v2.21h-1.29v-1.426zm-.493 2.528h18.81l-.113.207-.284.524H2.67l-.327-.537-.12-.194h.66zm13.753 5.31c.07.202.248.345.456.345.207 0 .384-.142.456-.345.366.184.626.58.65 1.053v4.012c-.156.09-.264.272-.264.484v2.03H16.3v-2.03c0-.232-.13-.43-.314-.51v-3.985c.023-.472.283-.87.647-1.053zm-5.167 0c.074.202.25.345.46.345.21 0 .385-.142.46-.345.362.184.622.58.646 1.053v4.003c-.164.09-.277.277-.277.494v2.028h-1.64v-2.028c0-.225-.12-.417-.295-.503v-3.99c.024-.474.284-.87.648-1.055zm-5.163 0c.072.202.25.345.456.345.21 0 .385-.142.457-.345.365.184.626.58.65 1.053v3.992c-.176.085-.297.28-.297.504v2.03H5.89v-2.03c0-.195-.093-.366-.23-.463v-4.032c.023-.472.28-.87.647-1.053zm14.185 7.65v.476h-1.57v-2.578h.265v-4.535c-.045-1.072-.728-1.942-1.632-2.167-.07-.21-.25-.36-.46-.36-.212 0-.392.15-.462.36-.902.226-1.586 1.096-1.63 2.166l-.002.026v4.51h.314v2.578h-1.57v-2.578h.278v-4.535c-.045-1.072-.73-1.942-1.63-2.167-.07-.21-.25-.36-.463-.36-.213 0-.39.15-.46.36-.904.225-1.588 1.095-1.633 2.165v4.536h.294v2.58H8.56v-2.58h.298v-4.534c-.046-1.072-.73-1.942-1.632-2.167-.07-.21-.25-.36-.462-.36-.212 0-.392.15-.46.36-.903.223-1.587 1.093-1.632 2.163v4.536h.23v2.577h-1.57v-2.578h.14v-8.47H20.39v8.473h.105v2.103zm2.313-3.99c.123 0 .245.038.353.112.23.157.53.08.676-.174.164-.29.445-.462.75-.462.253 0 .495.123.664.336.14.175.365.232.56.143l.16-.038c.23 0 .418.21.418.464l-.024.153c-.058.184-.025.386.086.535.097.13.167.28.207.438h-4.294v-1.32c.124-.12.28-.188.445-.188z" fill="#206FAC"/><path d="M14.97 83.75c.232.23.53.355.84.355h4.04l-.007.13c0 .353.136.69.375.924.203.195.46.304.73.304H24.7c.61 0 1.104-.552 1.104-1.23s-.496-1.232-1.104-1.232h-.134l.034-.32c0-.78-.57-1.418-1.274-1.418H15.81c-.31 0-.61.126-.842.355-.275.27-.432.66-.432 1.064s.158.795.432 1.064zm.652-1.303c.037-.036.1-.08.19-.08h7.516c.158 0 .286.143.286.32 0 .175-.128.318-.286.318-.273 0-.494.246-.494.55h-.002c0 .304.22.55.494.55H24.7c.066 0 .118.06.118.13 0 .073-.052.132-.117.132h-3.75l-.08-.033-.04-.098.04-.097.08-.038c.277 0 .498-.246.498-.55 0-.304-.22-.55-.494-.55h-5.14c-.087 0-.15-.043-.188-.08-.036-.036-.097-.115-.097-.24 0-.123.06-.202.096-.238zm15.892 18.11H30.17l-.877-2.368.764-.496.05.035c.167.105.357.16.55.16.406 0 .782-.245.982-.64.3-.605.104-1.37-.437-1.708l-.063-.034v-1.624l.058-.03c.54-.342.727-1.11.42-1.71-.2-.39-.574-.634-.978-.634-.194 0-.386.057-.556.164l-.043.03-1.35-.868.004-.065c0-.69-.504-1.253-1.124-1.253-.62 0-1.126.562-1.126 1.254l.004.078-1.367.88-.05-.034c-.164-.104-.354-.16-.546-.16-.407 0-.783.246-.982.642-.3.602-.11 1.37.434 1.705l.083.045v1.6l-.08.04c-.54.343-.73 1.11-.42 1.71.2.39.573.635.976.635.194 0 .387-.057.555-.164l.065-.045.75.484-.878 2.366H22.36V96.7c0-.11-.015-.214-.04-.313l.667-1.237c.09-.17.094-.382.006-.554-.088-.173-.252-.28-.43-.28H21.47V91.5l-.005-.067v-1.085c0-.237-.102-1.063-1.413-1.776-.137-.074-.296-.074-.433 0-1.31.712-1.416 1.54-1.416 1.776v1.085l-.006.067v.29h-2.21v-.686c.195-.072.34-.276.34-.52 0-.304-.22-.55-.495-.55h-.91v-.854c0-.304-.222-.55-.494-.55h-.18l.4-.223c.245-.136.345-.465.223-.737-.122-.272-.418-.383-.662-.248l-1.085.602c.16-.216.15-.535-.03-.737-.193-.215-.505-.215-.698 0l-.344.38v-.54c0-.305-.22-.55-.494-.55-.273 0-.495.245-.495.55v.6l-.31-.598c-.135-.268-.437-.36-.673-.207-.237.15-.318.488-.182.75l.223.432-.333-.402c-.185-.223-.498-.237-.698-.03-.2.206-.212.554-.028.777l.18.217c-.183.08-.31.277-.31.51v.853h-.91c-.273 0-.494.247-.494.55 0 .244.142.448.34.52v.686H5.66v-.29l-.01-.118v-1.034c0-.237-.103-1.063-1.414-1.776-.137-.074-.296-.074-.433 0-1.31.712-1.413 1.54-1.413 1.776v3.97H1.294c-.183 0-.35.11-.437.29-.085.18-.075.4.028.567l.683 1.126c-.045.124-.07.26-.07.403v11.676H1c-.546 0-.988.492-.988 1.1 0 .608.442 1.1.987 1.1h27.685c.546 0 .987-.492.987-1.1s-.442-1.1-.987-1.1h-6.32v-1.38h6.476c.275 0 .496-.247.496-.55 0-.305-.22-.55-.494-.55H27.67c-.04-.325-.145-.636-.302-.912l.013-.215c0-.865-.63-1.568-1.403-1.568l-.21.02c-.33-.296-.744-.46-1.172-.46-.5 0-.967.217-1.314.6-.15-.05-.307-.077-.465-.077-.153 0-.303.024-.446.07v-1.7h2.792l.156.03h4.54l.155-.03h1.51c.273 0 .493-.245.493-.55 0-.303-.22-.55-.493-.55zm-5.892-3.953l1.466-.943v1.868l-.14.087-1.328-.855v-.155zM25.01 93.9l.158-.11 1.427.917-1.45.933-.136-.092V93.9zm5.145-.006v1.626l-.16.106-1.427-.918 1.427-.918.16.104zm-1.95 3.725l-.13-.087V95.66l1.458.94.004.16-1.334.86zm1.315-4.798l-1.445.93v-1.86l.14-.09 1.31.842-.006.18zm-2.583-1.015l.15.095v1.848l-1.475-.95-.007-.136 1.332-.857zm-.374 7.394c.183.417.566.704 1.01.704.45 0 .84-.3 1.02-.73l.51 1.378h-3.04l.5-1.35zM3.377 90.95v-.6c.01-.126.29-.42.642-.657.35.24.63.535.64.66v.657H3.375v-.056zm6.547-1.22h4.014v.305H9.924v-.304zM8.86 91.134h6.143v.654H8.86v-.654zm-.494 1.755h9.836v1.424H5.662V92.89h2.704zm10.83-1.94v-.6c.01-.13.29-.42.643-.66.33.225.63.52.64.656v.658h-1.286v-.056zm-.006 1.94v-.786h1.296v2.21H19.19V92.89zm-15.813 0v-.786h1.296v2.21H3.377V92.89zm-.493 2.525h18.812l-.113.207-.284.525H2.67l-.327-.538-.12-.195h.66zm13.755 5.31c.07.202.245.345.453.345.208 0 .385-.14.457-.344.366.184.626.58.65 1.053v4.01c-.156.09-.264.272-.264.484v2.028h-1.634v-2.028c0-.233-.13-.43-.313-.51v-3.986c.022-.473.282-.87.646-1.054zm-5.17 0c.073.202.25.345.46.345.21 0 .384-.14.46-.344.36.184.62.58.645 1.053v4c-.164.09-.277.278-.277.495v2.028h-1.64v-2.028c0-.225-.12-.417-.295-.503v-3.992c.023-.47.283-.87.647-1.052zm-5.164 0c.072.202.25.345.456.345.21 0 .386-.14.458-.344.365.184.626.58.65 1.053v3.99c-.176.085-.297.28-.297.504v2.028h-1.68v-2.028c0-.196-.094-.367-.23-.464v-4.03c.022-.473.28-.87.646-1.054zm14.185 7.65v.476h-1.57v-2.577h.267v-4.535c-.046-1.073-.73-1.943-1.633-2.168-.07-.21-.25-.36-.46-.36-.213 0-.393.15-.463.36-.9.225-1.585 1.095-1.63 2.165v4.536h.312v2.58h-1.57v-2.578h.278v-4.535c-.044-1.073-.73-1.943-1.63-2.168-.07-.21-.25-.36-.462-.36-.212 0-.39.15-.46.36-.903.224-1.587 1.094-1.632 2.164v4.536h.294v2.58H8.56v-2.578h.297v-4.535c-.047-1.072-.73-1.942-1.633-2.167-.07-.21-.25-.36-.462-.36-.212 0-.392.15-.46.36-.903.226-1.587 1.096-1.632 2.166v4.536h.23v2.578H3.33v-2.578h.14V97.8h16.92v8.474h.105v2.103zm2.315-3.99c.122 0 .244.038.352.112.23.156.53.08.675-.175.164-.29.445-.463.75-.463.253 0 .495.122.664.335.14.175.364.232.56.143l.16-.037c.23 0 .417.21.417.467l-.024.152c-.058.182-.025.384.086.533.098.13.168.28.208.438H22.36v-1.32c.124-.123.28-.19.445-.19z" fill="#fff"/><path d="M14.97 43.75c.232.23.53.355.84.355h4.04l-.007.13c0 .353.136.69.375.924.203.195.46.304.73.304H24.7c.61 0 1.104-.552 1.104-1.23s-.496-1.232-1.104-1.232h-.134l.034-.32c0-.78-.57-1.418-1.274-1.418H15.81c-.31 0-.61.126-.842.355-.275.27-.432.66-.432 1.064s.158.795.432 1.064zm.652-1.303c.037-.036.1-.08.19-.08h7.516c.158 0 .286.143.286.32 0 .175-.128.318-.286.318-.273 0-.494.246-.494.55h-.002c0 .304.22.55.494.55H24.7c.066 0 .118.06.118.13 0 .073-.052.132-.117.132h-3.75l-.08-.033-.04-.098.04-.097.08-.038c.277 0 .498-.246.498-.55 0-.304-.22-.55-.494-.55h-5.14c-.087 0-.15-.043-.188-.08-.036-.036-.097-.115-.097-.24 0-.123.06-.202.096-.238zm15.892 18.11H30.17l-.877-2.368.764-.496.05.035c.167.105.357.16.55.16.406 0 .782-.245.982-.64.3-.605.104-1.37-.437-1.708l-.063-.034v-1.624l.058-.03c.54-.342.727-1.11.42-1.71-.2-.39-.574-.634-.978-.634-.194 0-.386.057-.556.164l-.043.03-1.35-.868.004-.065c0-.69-.504-1.253-1.124-1.253-.62 0-1.126.562-1.126 1.254l.004.078-1.367.88-.05-.034c-.164-.104-.354-.16-.546-.16-.407 0-.783.246-.982.642-.3.602-.11 1.37.434 1.705l.083.045v1.6l-.08.04c-.54.343-.73 1.11-.42 1.71.2.39.573.635.976.635.194 0 .387-.057.555-.164l.065-.045.75.484-.878 2.366H22.36V56.7c0-.11-.015-.214-.04-.313l.667-1.237c.09-.17.094-.382.006-.554-.088-.173-.252-.28-.43-.28H21.47V51.5l-.005-.067v-1.085c0-.237-.102-1.063-1.413-1.776-.137-.074-.296-.074-.433 0-1.31.712-1.416 1.54-1.416 1.776v1.085l-.006.067v.29h-2.21v-.686c.195-.072.34-.276.34-.52 0-.304-.22-.55-.495-.55h-.91v-.854c0-.304-.222-.55-.494-.55h-.18l.4-.223c.245-.136.345-.465.223-.737-.122-.272-.418-.383-.662-.248l-1.085.602c.16-.216.15-.535-.03-.737-.193-.215-.505-.215-.698 0l-.344.38v-.54c0-.305-.22-.55-.494-.55-.273 0-.495.245-.495.55v.6l-.31-.598c-.135-.268-.437-.36-.673-.207-.237.15-.318.488-.182.75l.223.432-.333-.402c-.185-.223-.498-.237-.698-.03-.2.206-.212.554-.028.777l.18.217c-.183.08-.31.277-.31.51v.853h-.91c-.273 0-.494.247-.494.55 0 .244.142.448.34.52v.686H5.66v-.29l-.01-.118v-1.034c0-.237-.103-1.063-1.414-1.776-.137-.074-.296-.074-.433 0-1.31.712-1.413 1.54-1.413 1.776v3.97H1.294c-.183 0-.35.11-.437.29-.085.18-.075.4.028.567l.683 1.126c-.045.124-.07.26-.07.403v11.676H1c-.546 0-.988.492-.988 1.1 0 .608.442 1.1.987 1.1h27.685c.546 0 .987-.492.987-1.1s-.442-1.1-.987-1.1h-6.32v-1.38h6.476c.275 0 .496-.247.496-.55 0-.305-.22-.55-.494-.55H27.67c-.04-.325-.145-.636-.302-.912l.013-.215c0-.865-.63-1.568-1.403-1.568l-.21.02c-.33-.296-.744-.46-1.172-.46-.5 0-.967.217-1.314.6-.15-.05-.307-.077-.465-.077-.153 0-.303.024-.446.07v-1.7h2.792l.156.03h4.54l.155-.03h1.51c.273 0 .493-.245.493-.55 0-.303-.22-.55-.493-.55zm-5.892-3.953l1.466-.943v1.868l-.14.087-1.328-.855v-.155zM25.01 53.9l.158-.11 1.427.917-1.45.933-.136-.092V53.9zm5.145-.006v1.626l-.16.106-1.427-.918 1.427-.918.16.104zm-1.95 3.725l-.13-.087V55.66l1.458.94.004.16-1.334.86zm1.315-4.798l-1.445.93v-1.86l.14-.09 1.31.842-.006.18zm-2.583-1.015l.15.095v1.848l-1.475-.95-.007-.136 1.332-.857zm-.374 7.394c.183.417.566.704 1.01.704.45 0 .84-.3 1.02-.73l.51 1.378h-3.04l.5-1.35zM3.377 50.95v-.6c.01-.126.29-.42.642-.657.35.24.63.535.64.66v.657H3.375v-.056zm6.547-1.22h4.014v.305H9.924v-.304zM8.86 51.134h6.143v.654H8.86v-.654zm-.494 1.755h9.836v1.424H5.662V52.89h2.704zm10.83-1.94v-.6c.01-.13.29-.42.643-.66.33.225.63.52.64.656v.658h-1.286v-.056zm-.006 1.94v-.786h1.296v2.21H19.19V52.89zm-15.813 0v-.786h1.296v2.21H3.377V52.89zm-.493 2.525h18.812l-.113.207-.284.525H2.67l-.327-.538-.12-.195h.66zm13.755 5.31c.07.202.245.345.453.345.208 0 .385-.14.457-.344.366.184.626.58.65 1.053v4.01c-.156.09-.264.272-.264.484v2.028h-1.634v-2.028c0-.233-.13-.43-.313-.51V61.78c.022-.472.282-.87.646-1.053zm-5.17 0c.073.202.25.345.46.345.21 0 .384-.14.46-.344.36.184.62.58.645 1.053v4c-.164.09-.277.278-.277.495v2.028h-1.64v-2.028c0-.225-.12-.417-.295-.503V61.78c.023-.472.283-.87.647-1.053zm-5.164 0c.072.202.25.345.456.345.21 0 .386-.14.458-.344.365.184.626.58.65 1.053v3.99c-.176.085-.297.28-.297.504v2.028h-1.68v-2.028c0-.196-.094-.367-.23-.464v-4.03c.022-.472.28-.87.646-1.053zm14.185 7.65v.476h-1.57v-2.577h.267V61.74c-.046-1.072-.73-1.942-1.633-2.167-.07-.21-.25-.36-.46-.36-.213 0-.393.15-.463.36-.9.225-1.585 1.095-1.63 2.165v4.536h.312v2.578h-1.57v-2.578h.278V61.74c-.044-1.072-.73-1.942-1.63-2.167-.07-.21-.25-.36-.462-.36-.212 0-.39.15-.46.36-.903.225-1.587 1.095-1.632 2.165v4.536h.294v2.578H8.56v-2.578h.297V61.74c-.047-1.072-.73-1.942-1.633-2.167-.07-.21-.25-.36-.462-.36-.212 0-.392.15-.46.36-.903.225-1.587 1.095-1.632 2.165v4.536h.23v2.578H3.33v-2.578h.14V57.8h16.92v8.474h.105v2.103zm2.315-3.99c.122 0 .244.038.352.112.23.156.53.08.675-.175.164-.29.445-.463.75-.463.253 0 .495.122.664.335.14.175.364.232.56.143l.16-.037c.23 0 .417.21.417.467l-.024.152c-.058.182-.025.384.086.533.098.13.168.28.208.438H22.36v-1.32c.124-.123.28-.19.445-.19z" fill="#67737B"/><path d="M14.97 3.75c.232.23.53.355.84.355h4.04l-.007.13c0 .353.136.69.375.924.203.195.46.304.73.304H24.7c.61 0 1.104-.552 1.104-1.23s-.496-1.232-1.104-1.232h-.134l.034-.32c0-.78-.57-1.418-1.274-1.418H15.81c-.31 0-.61.126-.842.355-.275.27-.432.66-.432 1.064s.158.795.432 1.064zm.652-1.303c.037-.036.1-.08.19-.08h7.516c.158 0 .286.143.286.32 0 .175-.128.318-.286.318-.273 0-.494.246-.494.55h-.002c0 .304.22.55.494.55H24.7c.066 0 .118.06.118.13 0 .073-.052.132-.117.132h-3.75l-.08-.033-.04-.098.04-.097.08-.038c.277 0 .498-.246.498-.55 0-.304-.22-.55-.494-.55h-5.14c-.087 0-.15-.043-.188-.08-.036-.036-.097-.115-.097-.24 0-.123.06-.202.096-.238zm15.892 18.11H30.17l-.877-2.368.764-.496.05.035c.167.105.357.16.55.16.406 0 .782-.245.982-.64.3-.605.104-1.37-.437-1.708l-.063-.034v-1.624l.058-.03c.54-.342.727-1.11.42-1.71-.2-.39-.574-.634-.978-.634-.194 0-.386.057-.556.164l-.043.03-1.35-.868.004-.065c0-.69-.504-1.253-1.124-1.253-.62 0-1.126.562-1.126 1.254l.004.078-1.367.88-.05-.034c-.164-.104-.354-.16-.546-.16-.407 0-.783.246-.982.642-.3.602-.11 1.37.434 1.705l.083.045v1.6l-.08.04c-.54.343-.73 1.11-.42 1.71.2.39.573.635.976.635.194 0 .387-.057.555-.164l.065-.045.75.484-.878 2.366H22.36V16.7c0-.11-.015-.214-.04-.313l.667-1.237c.09-.17.094-.382.006-.554-.088-.173-.252-.28-.43-.28H21.47V11.5l-.005-.067v-1.085c0-.237-.102-1.063-1.413-1.776-.137-.074-.296-.074-.433 0-1.31.712-1.416 1.54-1.416 1.776v1.085l-.006.067v.29h-2.21v-.686c.195-.072.34-.276.34-.52 0-.304-.22-.55-.495-.55h-.91V9.18c0-.304-.222-.55-.494-.55h-.18l.4-.223c.245-.136.345-.465.223-.737-.122-.272-.418-.383-.662-.248l-1.085.602c.16-.216.15-.535-.03-.737-.193-.215-.505-.215-.698 0l-.344.38v-.54c0-.305-.22-.55-.494-.55-.273 0-.495.245-.495.55v.6l-.31-.598c-.135-.268-.437-.36-.673-.207-.237.15-.318.488-.182.75l.223.432-.333-.402c-.185-.223-.498-.237-.698-.03-.2.206-.212.554-.028.777l.18.217c-.183.08-.31.277-.31.51v.853h-.91c-.273 0-.494.247-.494.55 0 .244.142.448.34.52v.686H5.66v-.29l-.01-.118v-1.034c0-.237-.103-1.063-1.414-1.776-.137-.074-.296-.074-.433 0-1.31.712-1.413 1.54-1.413 1.776v3.97H1.294c-.183 0-.35.11-.437.29-.085.18-.075.4.028.567l.683 1.126c-.045.124-.07.26-.07.403v11.676H1c-.546 0-.988.492-.988 1.1 0 .608.442 1.1.987 1.1h27.685c.546 0 .987-.492.987-1.1s-.442-1.1-.987-1.1h-6.32v-1.38h6.476c.275 0 .496-.247.496-.55 0-.305-.22-.55-.494-.55H27.67c-.04-.325-.145-.636-.302-.912l.013-.215c0-.865-.63-1.568-1.403-1.568l-.21.02c-.33-.296-.744-.46-1.172-.46-.5 0-.967.217-1.314.6-.15-.05-.307-.077-.465-.077-.153 0-.303.024-.446.07v-1.7h2.792l.156.03h4.54l.155-.03h1.51c.273 0 .493-.245.493-.55 0-.303-.22-.55-.493-.55zm-5.892-3.953l1.466-.943v1.868l-.14.087-1.328-.855v-.155zM25.01 13.9l.158-.11 1.427.917-1.45.933-.136-.092V13.9zm5.145-.006v1.626l-.16.106-1.427-.918 1.427-.918.16.104zm-1.95 3.725l-.13-.087V15.66l1.458.94.004.16-1.334.86zm1.315-4.798l-1.445.93v-1.86l.14-.09 1.31.842-.006.18zm-2.583-1.015l.15.095v1.848l-1.475-.95-.007-.136 1.332-.857zm-.374 7.394c.183.417.566.704 1.01.704.45 0 .84-.3 1.02-.73l.51 1.378h-3.04l.5-1.35zM3.377 10.95v-.6c.01-.126.29-.42.642-.657.35.24.63.535.64.66v.657H3.375v-.056zm6.547-1.22h4.014v.305H9.924V9.73zM8.86 11.134h6.143v.654H8.86v-.654zm-.494 1.755h9.836v1.424H5.662V12.89h2.704zm10.83-1.94v-.6c.01-.13.29-.42.643-.66.33.225.63.52.64.656v.658h-1.286v-.056zm-.006 1.94v-.786h1.296v2.21H19.19V12.89zm-15.813 0v-.786h1.296v2.21H3.377V12.89zm-.493 2.525h18.812l-.113.207-.284.525H2.67l-.327-.538-.12-.195h.66zm13.755 5.31c.07.202.245.345.453.345.208 0 .385-.14.457-.344.366.184.626.58.65 1.053v4.01c-.156.09-.264.272-.264.484v2.028h-1.634v-2.028c0-.233-.13-.43-.313-.51V21.78c.022-.472.282-.87.646-1.053zm-5.17 0c.073.202.25.345.46.345.21 0 .384-.14.46-.344.36.184.62.58.645 1.053v4c-.164.09-.277.278-.277.495v2.028h-1.64v-2.028c0-.225-.12-.417-.295-.503V21.78c.023-.472.283-.87.647-1.053zm-5.164 0c.072.202.25.345.456.345.21 0 .386-.14.458-.344.365.184.626.58.65 1.053v3.99c-.176.085-.297.28-.297.504v2.028h-1.68v-2.028c0-.196-.094-.367-.23-.464v-4.03c.022-.472.28-.87.646-1.053zm14.185 7.65v.476h-1.57v-2.577h.267V21.74c-.046-1.072-.73-1.942-1.633-2.167-.07-.21-.25-.36-.46-.36-.213 0-.393.15-.463.36-.9.225-1.585 1.095-1.63 2.165v4.536h.312v2.578h-1.57v-2.578h.278V21.74c-.044-1.072-.73-1.942-1.63-2.167-.07-.21-.25-.36-.462-.36-.212 0-.39.15-.46.36-.903.225-1.587 1.095-1.632 2.165v4.536h.294v2.578H8.56v-2.578h.297V21.74c-.047-1.072-.73-1.942-1.633-2.167-.07-.21-.25-.36-.462-.36-.212 0-.392.15-.46.36-.903.225-1.587 1.095-1.632 2.165v4.536h.23v2.578H3.33v-2.578h.14V17.8h16.92v8.474h.105v2.103zm2.315-3.99c.122 0 .244.038.352.112.23.156.53.08.675-.175.164-.29.445-.463.75-.463.253 0 .495.122.664.335.14.175.364.232.56.143l.16-.037c.23 0 .417.21.417.467l-.024.152c-.058.182-.025.384.086.533.098.13.168.28.208.438H22.36v-1.32c.124-.123.28-.19.445-.19z" fill="#3A434E"/></g></svg>