<svg width="32" height="232" viewBox="0 0 32 232" xmlns="http://www.w3.org/2000/svg"><title>belize</title><desc>Created with Sketch.</desc><g fill="none"><path d="M28.746 138.244c.248-1.077.27-2.136.06-3.132.484-.036.97-.187 1.42-.442 1.342-.76 1.43-2.864 1.437-3.102.005-.21-.106-.406-.288-.51-.046-.026-1.148-.647-2.25-.647-.434 0-.82.095-1.148.28-.453.258-.834.602-1.113.996-.75-.69-1.675-1.222-2.72-1.566l.033-.213c.206-1.442.143-3.293-1.322-3.926-1.47-.635-4.74-1.026-5.346.107-.156.29-.27.872.715 1.51.365.237.708.424 1.01.588.704.382 1.08.6 1.24 1.02.05.133.082.292.094.48-1.846.106-3.72.67-5.453 1.65l-.537.323-.135.074-.047.043c-.693.45-1.33.956-1.908 1.507-1-1.196-2.472-2.43-3.895-1.698-1.314.674-3.504 2.78-3.048 3.888.28.683 1.085.544 1.54.4.38-.12.71-.254 1-.372.666-.27 1.03-.404 1.4-.28.268.09.572.32.926.705-.17.3-.326.61-.464.922-.855 1.95-.966 3.908-.343 5.625-1.514.94-2.036 2.947-1.216 4.626l.004.007.106.203c.105.186.3.29.498.29.095 0 .192-.024.28-.074.276-.156.373-.504.217-.78l-.097-.19c-.072-.164-.1-.297-.075-.374.065-.205.577-.45 1.03-.664.268-.127.574-.273.88-.446l.072-.05c1.345 1.232 3.24 1.955 5.39 2.01.15.51.19.89.128 1.17-.084.38-.388.622-.962 1.054-.25.19-.534.403-.833.666-.832.735-.64 1.272-.45 1.526.235.317.71.443 1.285.443 1.176 0 2.774-.53 3.617-1.052 1.362-.845 1.06-2.748.55-4.223 1.03-.28 2.044-.7 3.016-1.25 1.738-.984 3.19-2.307 4.224-3.823.154.107.274.217.362.33.275.353.27.787.234 1.588-.015.343-.033.732-.018 1.167.04 1.173.597 1.376.925 1.393h.04c1.27 0 2.594-2.958 2.806-4.53.216-1.61-1.365-2.636-2.876-3.243zm-3.654 2.42c-.543.702-1.214 1.363-2 1.946l-.674-.857.094-.156 1.51-3.813c.042-.11.048-.226.023-.336l2.212-.327c.166-.024.31-.12.398-.26-.016.24-.047.482-.095.724-.072.365-.183.734-.327 1.1-.13.33-.288.66-.473.984-.194.34-.417.67-.667.995zm-3.17 2.71c-.936.53-1.914.91-2.898 1.135-.278.062-.557.115-.836.153-.408.056-.815.085-1.22.085l-.125-.003.88-2.224.203.04.084-.006 3.258-.482.1.196.773.98-.217.128zm-1.727-11.367c.334-.038.668-.057 1-.057l.195.004.49.026-.73 1.85c-.09-.037-.19-.05-.292-.035l-3.723.55-.808-1.07c1.245-.69 2.564-1.12 3.868-1.268zm6.262 1.72l.148.184-.84 2.128-2.263.334-1.42-1.79.64-1.623.2-.506.66-.097.04-.007 1.562-.23 1.273 1.606zm-4.886 7.143l-3.4.504-2.14-2.696 1.267-3.2 3.403-.503 2.137 2.695-1.266 3.2zm-9.793.875l.69-1.743 2.667-.395 1.675 2.113-.993 2.508-1.135.168-1.532.227-1.676-2.114.303-.766zm2-6.527c.468-.486.996-.933 1.576-1.336l.883 1.17-1.36 3.438-2.903.43c-.146.022-.275.1-.364.212.088-.45.232-.91.435-1.37.29-.663.68-1.3 1.157-1.892.18-.224.373-.44.576-.652zm14.76-3.533c.155-.087.352-.13.586-.13.502 0 1.038.195 1.368.34-.072.574-.294 1.48-.826 1.78-.35.2-.726.304-1.087.304l-.118-.007c-.103-.25-.22-.492-.355-.73-.133-.235-.282-.46-.443-.675.176-.345.49-.663.877-.882zm-8.76-4.507c-.297-.16-.604-.328-.932-.54l-.088-.06c.716-.152 2.422-.077 3.644.45.8.346.793 1.66.647 2.7l-.015.105c-.43-.082-.873-.135-1.33-.158-.06-1.39-.82-1.9-1.925-2.498zm-12.118 7.26c-.277.112-.562.227-.887.33.352-.588 1.282-1.627 2.343-2.17.723-.372 1.754.518 2.574 1.516-.23.267-.445.542-.648.824-1.264-1.247-2.147-1-3.384-.5zm2.203 10.044c-.22.104-.434.206-.634.317.132-.513.427-.97.865-1.283.13.222.27.435.425.638-.22.118-.44.224-.657.326zm9.014 5.383c-1.01.627-2.376.89-3.064.89h-.004c.255-.226.5-.41.74-.59 1.068-.803 1.735-1.434 1.312-3.17.346-.028.693-.07 1.04-.13.435 1.22.67 2.57-.025 3zm11.61-8.53c-.176 1.32-.99 2.823-1.49 3.358l-.006-.107c-.012-.39.004-.74.018-1.078.056-1.255.012-2.168-1.148-2.938.127-.236.245-.474.35-.717l.202-.5.095.038c.968.413 2.096 1.083 1.98 1.947zm-2.11-13.278c-.17-.126-.408-.148-.598-.053l-.088.054c-.144.108-.228.277-.228.458 0 .113.034.223.095.316l.06.077.072.064c.098.074.218.115.343.115.09 0 .177-.022.255-.06l.107-.07.093-.097.098-.2c.042-.157.014-.327-.077-.464l-.133-.142zM4.952 144.75c-.17-.125-.41-.146-.598-.052l-.087.054c-.144.108-.228.277-.228.458 0 .113.032.223.093.316l.062.077.072.066c.098.072.217.114.343.114.09 0 .177-.02.254-.06l.108-.07.093-.097.097-.198c.043-.16.015-.33-.076-.466l-.134-.14zm-.79-2.334l.096-.098.097-.2c.042-.156.014-.325-.076-.46-.107-.16-.286-.257-.477-.257-.125 0-.245.042-.343.116-.242.18-.3.522-.132.774.106.16.285.255.476.255.09 0 .176-.02.254-.06l.107-.068zm25.13-16.218c-.124 0-.244.04-.342.114-.242.182-.3.52-.134.773.106.16.285.257.477.257.09 0 .176-.02.254-.06l.107-.07.095-.097.096-.2c.042-.157.014-.326-.077-.462-.107-.16-.286-.254-.476-.254zm-1.6-1.876c-.132.1-.216.252-.227.417l.007.135c.015.09.05.172.102.242l.057.066.152.106c.076.037.162.06.253.06.125 0 .246-.04.345-.115l.057-.05c.108-.106.17-.253.17-.406 0-.218-.123-.416-.317-.513-.16-.08-.354-.08-.514.002l-.084.05zm-22.75 18.422c-.085.016-.167.052-.238.104-.222.166-.294.47-.168.717.056.11.145.2.254.253.08.04.167.06.256.06s.176-.02.255-.06l.09-.055c.117-.088.197-.218.22-.364.03-.183-.03-.367-.16-.497-.133-.133-.323-.193-.508-.16zm23.778-19.3c.15.154.363.243.582.243.173 0 .34-.057.474-.16.156-.115.26-.282.292-.475.037-.216-.02-.444-.154-.624l-.074-.08c-.148-.135-.35-.213-.555-.213-.16 0-.314.046-.446.132l-.05.035c-.317.26-.37.747-.118 1.085l.047.056zm.352-.25l.218-.24.177.268c-.12.08-.285.07-.396-.03zm.453-.015l-.093-.11.055.083-.18-.22.058-.063.223-.167c.125.167.06.367-.063.476zm-.583-.322c.016-.095.068-.182.145-.243.064-.046.14-.07.215-.07.114 0 .194.056.24.103l-.26.252-.128-.155.11.168-.265.198c-.053-.07-.073-.16-.057-.252zM3.287 138.962c.138.12.316.186.502.186.22 0 .435-.092.587-.252l.046-.056c.238-.324.193-.79-.095-1.055-.14-.135-.322-.208-.517-.208-.218 0-.432.094-.588.257l-.068.088c-.198.312-.16.732.092 1l.042.04zm.83-.427l-.273-.174.235-.22c.078.085.136.24.037.395zm-.09-.444l-.092.11.072-.067-.186.214-.07-.046-.203-.19c.123-.13.337-.134.48-.018zm-.526.075l.293.214-.13.15.145-.137.24.23c-.12.127-.36.124-.502-.004-.113-.11-.162-.295-.044-.455zm22.378-16.192c.228.236.57.378.91.378.266 0 .52-.087.72-.246.23-.164.383-.41.432-.693.057-.333-.033-.69-.246-.976l-.074-.083c-.233-.21-.554-.33-.88-.33-.252 0-.493.07-.698.206l-.048.035c-.48.393-.552 1.137-.162 1.658l.047.056zm.93-.8l.005.023-.013.01-.07-.01-.006-.034.083.012zm-20.617 6.39c.09.05.188.077.287.077.1 0 .198-.026.286-.077l1.846-1.066c.89.805 2.058 1.26 3.268 1.26 1.365 0 2.677-.58 3.6-1.588.2-.22.2-.554 0-.772-.923-1.008-2.234-1.587-3.6-1.587-1.21 0-2.377.456-3.27 1.26l-1.845-1.065c-.177-.102-.395-.102-.57 0-.178.102-.287.29-.287.495v2.567c0 .204.11.393.286.495zm5.687-2.608c.857 0 1.686.298 2.346.83-.66.532-1.49.83-2.346.83-.856 0-1.685-.298-2.345-.83.66-.532 1.49-.83 2.345-.83zm-4.83.536l.51.295-.51.294v-.588zm.323 4.773c.2-.218.2-.554 0-.77-.667-.73-1.615-1.15-2.602-1.15-.83 0-1.633.298-2.265.826l-1.156-.67c-.177-.1-.395-.1-.572 0-.176.103-.286.292-.286.496v1.762c0 .204.108.393.285.495.09.052.187.077.286.077.1 0 .2-.025.287-.077l1.156-.668c.63.528 1.434.825 2.265.825.987 0 1.936-.418 2.602-1.147zm-2.602-.776c.466 0 .92.138 1.305.39-.384.252-.84.39-1.305.39-.467 0-.92-.138-1.306-.39.386-.252.84-.39 1.306-.39zm22.148 17.285c-.83 0-1.633.298-2.265.826l-1.155-.67c-.177-.1-.395-.1-.572 0-.177.104-.285.292-.285.496v1.762c0 .204.108.393.285.495.09.052.187.077.286.077.097 0 .196-.025.285-.076l1.156-.667c.632.528 1.435.825 2.266.825.987 0 1.936-.418 2.602-1.147.2-.217.2-.553 0-.77-.667-.73-1.615-1.148-2.602-1.148zm0 1.924c-.467 0-.92-.14-1.306-.39.386-.252.84-.39 1.306-.39.466 0 .92.138 1.305.39-.384.252-.838.39-1.304.39z" fill="#206FAC"/><path d="M28.746 98.244c.248-1.077.27-2.136.06-3.132.484-.036.97-.187 1.42-.442 1.342-.76 1.43-2.864 1.437-3.102.005-.21-.106-.406-.288-.51-.046-.026-1.148-.647-2.25-.647-.434 0-.82.095-1.148.28-.453.258-.834.602-1.113.996-.75-.69-1.675-1.222-2.72-1.566l.033-.213c.206-1.442.143-3.293-1.322-3.926-1.47-.635-4.74-1.026-5.346.107-.156.29-.27.872.715 1.51.365.237.708.424 1.01.588.704.382 1.08.6 1.24 1.02.05.133.082.292.094.48-1.846.106-3.72.67-5.453 1.65l-.537.323-.135.074-.047.043c-.693.45-1.33.956-1.908 1.507-1-1.196-2.472-2.43-3.895-1.698-1.314.674-3.504 2.78-3.048 3.888.28.683 1.085.544 1.54.4.38-.12.71-.254 1-.372.666-.27 1.03-.404 1.4-.28.268.09.572.32.926.705-.17.3-.326.61-.464.922-.855 1.95-.966 3.908-.343 5.625-1.514.94-2.036 2.947-1.216 4.626l.004.007.106.203c.105.186.3.29.498.29.095 0 .192-.024.28-.074.276-.156.373-.504.217-.78l-.097-.19c-.072-.164-.1-.297-.075-.374.065-.205.577-.45 1.03-.664.268-.127.574-.273.88-.446l.072-.05c1.345 1.232 3.24 1.955 5.39 2.01.15.51.19.89.128 1.17-.084.38-.388.622-.962 1.054-.25.19-.534.403-.833.666-.832.735-.64 1.272-.45 1.526.235.317.71.443 1.285.443 1.176 0 2.774-.53 3.617-1.052 1.362-.845 1.06-2.748.55-4.223 1.03-.28 2.044-.7 3.016-1.25 1.738-.984 3.19-2.307 4.224-3.823.154.107.274.217.362.33.275.353.27.787.234 1.588-.015.343-.033.732-.018 1.167.04 1.173.597 1.376.925 1.393h.04c1.27 0 2.594-2.958 2.806-4.53.216-1.61-1.365-2.636-2.876-3.243zm-3.654 2.42c-.543.702-1.214 1.363-2 1.946l-.674-.857.094-.156 1.51-3.813c.042-.11.048-.226.023-.336l2.212-.327c.166-.024.31-.12.398-.26-.016.24-.047.482-.095.724-.072.365-.183.734-.327 1.1-.13.33-.288.66-.473.984-.194.34-.417.67-.667.995zm-3.17 2.71c-.936.53-1.914.91-2.898 1.135-.278.062-.557.115-.836.153-.408.056-.815.085-1.22.085l-.125-.003.88-2.224.203.04.084-.006 3.258-.482.1.196.773.98-.217.128zm-1.727-11.367c.334-.038.668-.057 1-.057l.195.004.49.026-.73 1.85c-.09-.037-.19-.05-.292-.035l-3.723.55-.808-1.07c1.245-.69 2.564-1.12 3.868-1.268zm6.262 1.72l.148.184-.84 2.128-2.263.334-1.42-1.79.64-1.623.2-.506.66-.097.04-.007 1.562-.23 1.273 1.606zm-4.886 7.143l-3.4.504-2.14-2.696 1.267-3.2 3.403-.503 2.137 2.695-1.266 3.2zm-9.793.875l.69-1.743 2.667-.395 1.675 2.113-.993 2.508-1.135.168-1.532.227-1.676-2.114.303-.766zm2-6.527c.468-.486.996-.933 1.576-1.336l.883 1.17-1.36 3.438-2.903.43c-.146.022-.275.1-.364.212.088-.45.232-.91.435-1.37.29-.663.68-1.3 1.157-1.892.18-.224.373-.44.576-.652zm14.76-3.533c.155-.087.352-.13.586-.13.502 0 1.038.195 1.368.34-.072.574-.294 1.48-.826 1.78-.35.2-.726.304-1.087.304l-.118-.007c-.103-.25-.22-.492-.355-.73-.133-.235-.282-.46-.443-.675.176-.345.49-.663.877-.882zm-8.76-4.507c-.297-.16-.604-.328-.932-.54l-.088-.06c.716-.152 2.422-.077 3.644.45.8.346.793 1.66.647 2.7l-.015.105c-.43-.082-.873-.135-1.33-.158-.06-1.39-.82-1.9-1.925-2.498zM7.66 94.438c-.277.112-.562.227-.887.33.352-.588 1.282-1.627 2.343-2.17.723-.372 1.754.518 2.574 1.516-.23.267-.445.542-.648.824-1.264-1.247-2.147-1-3.384-.5zm2.203 10.044c-.22.104-.434.206-.634.317.132-.513.427-.97.865-1.283.13.222.27.435.425.638-.22.118-.44.224-.657.326zm9.014 5.383c-1.01.627-2.376.89-3.064.89h-.004c.255-.226.5-.41.74-.59 1.068-.803 1.735-1.434 1.312-3.17.346-.028.693-.07 1.04-.13.435 1.22.67 2.57-.025 3zm11.61-8.53c-.176 1.32-.99 2.823-1.49 3.358l-.006-.107c-.012-.39.004-.74.018-1.078.056-1.255.012-2.168-1.148-2.938.127-.236.245-.474.35-.717l.202-.5.095.038c.968.413 2.096 1.083 1.98 1.947zm-2.11-13.278c-.17-.126-.408-.148-.598-.053l-.088.054c-.144.108-.228.277-.228.458 0 .113.034.223.095.316l.06.077.072.064c.098.074.218.115.343.115.09 0 .177-.022.255-.06l.107-.07.093-.097.098-.2c.042-.157.014-.327-.077-.464l-.133-.142zM4.952 104.75c-.17-.125-.41-.146-.598-.052l-.087.054c-.144.108-.228.277-.228.458 0 .113.032.223.093.316l.062.077.072.066c.098.072.217.114.343.114.09 0 .177-.02.254-.06l.108-.07.093-.097.097-.198c.043-.16.015-.33-.076-.466l-.134-.14zm-.79-2.334l.096-.098.097-.2c.042-.156.014-.325-.076-.46-.107-.16-.286-.257-.477-.257-.125 0-.245.042-.343.116-.242.18-.3.522-.132.774.106.16.285.255.476.255.09 0 .176-.02.254-.06l.107-.068zm25.13-16.218c-.124 0-.244.04-.342.114-.242.182-.3.52-.134.773.106.16.285.257.477.257.09 0 .176-.02.254-.06l.107-.07.095-.097.096-.2c.042-.157.014-.326-.077-.462-.107-.16-.286-.254-.476-.254zm-1.6-1.876c-.132.1-.216.252-.227.417l.007.135c.015.09.05.172.102.242l.057.066.152.106c.076.037.162.06.253.06.125 0 .246-.04.345-.115l.057-.05c.108-.106.17-.253.17-.406 0-.218-.123-.416-.317-.513-.16-.08-.354-.08-.514.002l-.084.05zm-22.75 18.422c-.085.016-.167.052-.238.104-.222.166-.294.47-.168.717.056.11.145.2.254.253.08.04.167.06.256.06s.176-.02.255-.06l.09-.055c.117-.088.197-.218.22-.364.03-.183-.03-.367-.16-.497-.133-.133-.323-.193-.508-.16zm23.778-19.3c.15.154.363.243.582.243.173 0 .34-.057.474-.16.156-.115.26-.282.292-.475.037-.216-.02-.444-.154-.624l-.074-.08c-.148-.135-.35-.213-.555-.213-.16 0-.314.046-.446.132l-.05.035c-.317.26-.37.747-.118 1.085l.047.056zm.352-.25l.218-.24.177.268c-.12.08-.285.07-.396-.03zm.453-.015l-.093-.11.055.083-.18-.22.058-.063.223-.167c.125.167.06.367-.063.476zm-.583-.322c.016-.095.068-.182.145-.243.064-.046.14-.07.215-.07.114 0 .194.056.24.103l-.26.252-.128-.155.11.168-.265.198c-.053-.07-.073-.16-.057-.252zM3.287 98.962c.138.12.316.186.502.186.22 0 .435-.092.587-.252l.046-.056c.238-.324.193-.79-.095-1.055-.14-.135-.322-.208-.517-.208-.218 0-.432.094-.588.257l-.068.088c-.198.312-.16.732.092 1l.042.04zm.83-.427l-.273-.174.235-.22c.078.085.136.24.037.395zm-.09-.444l-.092.11.072-.067-.186.214-.07-.046-.203-.19c.123-.13.337-.134.48-.018zm-.526.075l.293.214-.13.15.145-.137.24.23c-.12.127-.36.124-.502-.004-.113-.11-.162-.295-.044-.455zM25.88 81.973c.228.236.57.378.91.378.266 0 .52-.087.72-.246.23-.164.383-.41.432-.693.057-.333-.033-.69-.246-.976l-.074-.083c-.233-.21-.554-.33-.88-.33-.252 0-.493.07-.698.206l-.048.035c-.48.393-.552 1.137-.162 1.658l.047.056zm.93-.8l.005.023-.013.01-.07-.01-.006-.034.083.012zM6.19 87.564c.09.05.188.077.287.077.1 0 .198-.026.286-.077l1.846-1.066c.89.805 2.058 1.26 3.268 1.26 1.365 0 2.677-.58 3.6-1.588.2-.22.2-.554 0-.772-.923-1.008-2.234-1.587-3.6-1.587-1.21 0-2.377.456-3.27 1.26l-1.845-1.065c-.177-.102-.395-.102-.57 0-.178.102-.287.29-.287.495v2.567c0 .204.11.393.286.495zm5.687-2.608c.857 0 1.686.298 2.346.83-.66.532-1.49.83-2.346.83-.856 0-1.685-.298-2.345-.83.66-.532 1.49-.83 2.345-.83zm-4.83.536l.51.295-.51.294v-.588zm.323 4.773c.2-.218.2-.554 0-.77-.667-.73-1.615-1.15-2.602-1.15-.83 0-1.633.298-2.265.826l-1.156-.67c-.177-.1-.395-.1-.572 0-.176.103-.286.292-.286.496v1.762c0 .204.108.393.285.495.09.052.187.077.286.077.1 0 .2-.025.287-.077l1.156-.668c.63.528 1.434.825 2.265.825.987 0 1.936-.418 2.602-1.147zm-2.602-.776c.466 0 .92.138 1.305.39-.384.252-.84.39-1.305.39-.467 0-.92-.138-1.306-.39.386-.252.84-.39 1.306-.39zm22.148 17.285c-.83 0-1.633.298-2.265.826l-1.155-.67c-.177-.1-.395-.1-.572 0-.177.104-.285.292-.285.496v1.762c0 .204.108.393.285.495.09.052.187.077.286.077.097 0 .196-.025.285-.076l1.156-.667c.632.528 1.435.825 2.266.825.987 0 1.936-.418 2.602-1.147.2-.217.2-.553 0-.77-.667-.73-1.615-1.148-2.602-1.148zm0 1.924c-.467 0-.92-.14-1.306-.39.386-.252.84-.39 1.306-.39.466 0 .92.138 1.305.39-.384.252-.838.39-1.304.39z" fill="#fff"/><path d="M28.746 58.244c.248-1.077.27-2.136.06-3.132.484-.036.97-.187 1.42-.442 1.342-.76 1.43-2.864 1.437-3.102.005-.21-.106-.406-.288-.51-.046-.026-1.148-.647-2.25-.647-.434 0-.82.095-1.148.28-.453.258-.834.602-1.113.996-.75-.69-1.675-1.222-2.72-1.566l.033-.213c.206-1.442.143-3.293-1.322-3.926-1.47-.635-4.74-1.026-5.346.107-.156.29-.27.872.715 1.51.365.237.708.424 1.01.588.704.382 1.08.6 1.24 1.02.05.133.082.292.094.48-1.846.106-3.72.67-5.453 1.65l-.537.323-.135.074-.047.043c-.693.45-1.33.956-1.908 1.507-1-1.196-2.472-2.43-3.895-1.698-1.314.674-3.504 2.78-3.048 3.888.28.683 1.085.544 1.54.4.38-.12.71-.254 1-.372.666-.27 1.03-.404 1.4-.28.268.09.572.32.926.705-.17.3-.326.61-.464.922-.855 1.95-.966 3.908-.343 5.625-1.514.94-2.036 2.947-1.216 4.626l.004.007.106.203c.105.186.3.29.498.29.095 0 .192-.024.28-.074.276-.156.373-.504.217-.78l-.097-.19c-.072-.164-.1-.297-.075-.374.065-.205.577-.45 1.03-.664.268-.127.574-.273.88-.446l.072-.05c1.345 1.232 3.24 1.955 5.39 2.01.15.51.19.89.128 1.17-.084.38-.388.622-.962 1.054-.25.19-.534.403-.833.666-.832.735-.64 1.272-.45 1.526.235.317.71.443 1.285.443 1.176 0 2.774-.53 3.617-1.052 1.362-.845 1.06-2.748.55-4.223 1.03-.28 2.044-.7 3.016-1.25 1.738-.984 3.19-2.307 4.224-3.823.154.107.274.217.362.33.275.353.27.787.234 1.588-.015.343-.033.732-.018 1.167.04 1.173.597 1.376.925 1.393h.04c1.27 0 2.594-2.958 2.806-4.53.216-1.61-1.365-2.636-2.876-3.243zm-3.654 2.42c-.543.702-1.214 1.363-2 1.946l-.674-.857.094-.156 1.51-3.813c.042-.11.048-.226.023-.336l2.212-.327c.166-.024.31-.12.398-.26-.016.24-.047.482-.095.724-.072.365-.183.734-.327 1.1-.13.33-.288.66-.473.984-.194.34-.417.67-.667.995zm-3.17 2.71c-.936.53-1.914.91-2.898 1.135-.278.062-.557.115-.836.153-.408.056-.815.085-1.22.085l-.125-.003.88-2.224.203.04.084-.006 3.258-.482.1.196.773.98-.217.128zm-1.727-11.367c.334-.038.668-.057 1-.057l.195.004.49.026-.73 1.85c-.09-.037-.19-.05-.292-.035l-3.723.55-.808-1.07c1.245-.69 2.564-1.12 3.868-1.268zm6.262 1.72l.148.184-.84 2.128-2.263.334-1.42-1.79.64-1.623.2-.506.66-.097.04-.007 1.562-.23 1.273 1.606zM21.57 60.87l-3.4.504-2.14-2.696 1.267-3.2 3.403-.503 2.137 2.695-1.266 3.2zm-9.793.875l.69-1.743 2.667-.395 1.675 2.113-.993 2.508-1.135.168-1.532.227-1.676-2.114.303-.766zm2-6.527c.468-.486.996-.933 1.576-1.336l.883 1.17-1.36 3.438-2.903.43c-.146.022-.275.1-.364.212.088-.45.232-.91.435-1.37.29-.663.68-1.3 1.157-1.892.18-.224.373-.44.576-.652zm14.76-3.533c.155-.087.352-.13.586-.13.502 0 1.038.195 1.368.34-.072.574-.294 1.48-.826 1.78-.35.2-.726.304-1.087.304l-.118-.007c-.103-.25-.22-.492-.355-.73-.133-.235-.282-.46-.443-.675.176-.345.49-.663.877-.882zm-8.76-4.507c-.297-.16-.604-.328-.932-.54l-.088-.06c.716-.152 2.422-.077 3.644.45.8.346.793 1.66.647 2.7l-.015.105c-.43-.082-.873-.135-1.33-.158-.06-1.39-.82-1.9-1.925-2.498zM7.66 54.438c-.277.112-.562.227-.887.33.352-.588 1.282-1.627 2.343-2.17.723-.372 1.754.518 2.574 1.516-.23.267-.445.542-.648.824-1.264-1.247-2.147-1-3.384-.5zm2.203 10.044c-.22.104-.434.206-.634.317.132-.513.427-.97.865-1.283.13.222.27.435.425.638-.22.118-.44.224-.657.326zm9.014 5.383c-1.01.627-2.376.89-3.064.89h-.004c.255-.226.5-.41.74-.59 1.068-.803 1.735-1.434 1.312-3.17.346-.028.693-.07 1.04-.13.435 1.22.67 2.57-.025 3zm11.61-8.53c-.176 1.32-.99 2.823-1.49 3.358l-.006-.107c-.012-.39.004-.74.018-1.078.056-1.255.012-2.168-1.148-2.938.127-.236.245-.474.35-.717l.202-.5.095.038c.968.413 2.096 1.083 1.98 1.947zm-2.11-13.278c-.17-.126-.408-.148-.598-.053l-.088.054c-.144.108-.228.277-.228.458 0 .113.034.223.095.316l.06.077.072.064c.098.074.218.115.343.115.09 0 .177-.022.255-.06l.107-.07.093-.097.098-.2c.042-.157.014-.327-.077-.464l-.133-.142zM4.952 64.75c-.17-.125-.41-.146-.598-.052l-.087.054c-.144.108-.228.277-.228.458 0 .113.032.223.093.316l.062.077.072.066c.098.072.217.114.343.114.09 0 .177-.02.254-.06l.108-.07.093-.097.097-.198c.043-.16.015-.33-.076-.466l-.134-.14zm-.79-2.334l.096-.098.097-.2c.042-.156.014-.325-.076-.46-.107-.16-.286-.257-.477-.257-.125 0-.245.042-.343.116-.242.18-.3.522-.132.774.106.16.285.255.476.255.09 0 .176-.02.254-.06l.107-.068zm25.13-16.218c-.124 0-.244.04-.342.114-.242.182-.3.52-.134.773.106.16.285.257.477.257.09 0 .176-.02.254-.06l.107-.07.095-.097.096-.2c.042-.157.014-.326-.077-.462-.107-.16-.286-.254-.476-.254zm-1.6-1.876c-.132.1-.216.252-.227.417l.007.135c.015.09.05.172.102.242l.057.066.152.106c.076.037.162.06.253.06.125 0 .246-.04.345-.115l.057-.05c.108-.106.17-.253.17-.406 0-.218-.123-.416-.317-.513-.16-.08-.354-.08-.514.002l-.084.05zM4.942 62.744c-.085.016-.167.052-.238.104-.222.166-.294.47-.168.717.056.11.145.2.254.253.08.04.167.06.256.06s.176-.02.255-.06l.09-.055c.117-.088.197-.218.22-.364.03-.183-.03-.367-.16-.497-.133-.133-.323-.193-.508-.16zm23.778-19.3c.15.154.363.243.582.243.173 0 .34-.057.474-.16.156-.115.26-.282.292-.475.037-.216-.02-.444-.154-.624l-.074-.08c-.148-.135-.35-.213-.555-.213-.16 0-.314.046-.446.132l-.05.035c-.317.26-.37.747-.118 1.085l.047.056zm.352-.25l.218-.24.177.268c-.12.08-.285.07-.396-.03zm.453-.015l-.093-.11.055.083-.18-.22.058-.063.223-.167c.125.167.06.367-.063.476zm-.583-.322c.016-.095.068-.182.145-.243.064-.046.14-.07.215-.07.114 0 .194.056.24.103l-.26.252-.128-.155.11.168-.265.198c-.053-.07-.073-.16-.057-.252zM3.287 58.962c.138.12.316.186.502.186.22 0 .435-.092.587-.252l.046-.056c.238-.324.193-.79-.095-1.055-.14-.135-.322-.208-.517-.208-.218 0-.432.094-.588.257l-.068.088c-.198.312-.16.732.092 1l.042.04zm.83-.427l-.273-.174.235-.22c.078.085.136.24.037.395zm-.09-.444l-.092.11.072-.067-.186.214-.07-.046-.203-.19c.123-.13.337-.134.48-.018zm-.526.075l.293.214-.13.15.145-.137.24.23c-.12.127-.36.124-.502-.004-.113-.11-.162-.295-.044-.455zM25.88 41.973c.228.236.57.378.91.378.266 0 .52-.087.72-.246.23-.164.383-.41.432-.693.057-.333-.033-.69-.246-.976l-.074-.083c-.233-.21-.554-.33-.88-.33-.252 0-.493.07-.698.206l-.048.035c-.48.393-.552 1.137-.162 1.658l.047.056zm.93-.8l.005.023-.013.01-.07-.01-.006-.034.083.012zM6.19 47.564c.09.05.188.077.287.077.1 0 .198-.026.286-.077l1.846-1.066c.89.805 2.058 1.26 3.268 1.26 1.365 0 2.677-.58 3.6-1.588.2-.22.2-.554 0-.772-.923-1.008-2.234-1.587-3.6-1.587-1.21 0-2.377.456-3.27 1.26l-1.845-1.065c-.177-.102-.395-.102-.57 0-.178.102-.287.29-.287.495v2.567c0 .204.11.393.286.495zm5.687-2.608c.857 0 1.686.298 2.346.83-.66.532-1.49.83-2.346.83-.856 0-1.685-.298-2.345-.83.66-.532 1.49-.83 2.345-.83zm-4.83.536l.51.295-.51.294v-.588zm.323 4.773c.2-.218.2-.554 0-.77-.667-.73-1.615-1.15-2.602-1.15-.83 0-1.633.298-2.265.826l-1.156-.67c-.177-.1-.395-.1-.572 0-.176.103-.286.292-.286.496v1.762c0 .204.108.393.285.495.09.052.187.077.286.077.1 0 .2-.025.287-.077l1.156-.668c.63.528 1.434.825 2.265.825.987 0 1.936-.418 2.602-1.147zm-2.602-.776c.466 0 .92.138 1.305.39-.384.252-.84.39-1.305.39-.467 0-.92-.138-1.306-.39.386-.252.84-.39 1.306-.39zm22.148 17.285c-.83 0-1.633.298-2.265.826l-1.155-.67c-.177-.1-.395-.1-.572 0-.177.104-.285.292-.285.496v1.762c0 .204.108.393.285.495.09.052.187.077.286.077.097 0 .196-.025.285-.076l1.156-.667c.632.528 1.435.825 2.266.825.987 0 1.936-.418 2.602-1.147.2-.217.2-.553 0-.77-.667-.73-1.615-1.148-2.602-1.148zm0 1.924c-.467 0-.92-.14-1.306-.39.386-.252.84-.39 1.306-.39.466 0 .92.138 1.305.39-.384.252-.838.39-1.304.39z" fill="#67737B"/><path d="M28.746 18.244c.248-1.077.27-2.136.06-3.132.484-.036.97-.187 1.42-.442 1.342-.76 1.43-2.864 1.437-3.102.005-.21-.106-.406-.288-.51-.046-.026-1.148-.647-2.25-.647-.434 0-.82.095-1.148.28-.453.258-.834.602-1.113.996-.75-.69-1.675-1.222-2.72-1.566l.033-.213c.206-1.442.143-3.293-1.322-3.926-1.47-.635-4.74-1.026-5.346.107-.156.29-.27.872.715 1.51.365.237.708.424 1.01.588.704.382 1.08.6 1.24 1.02.05.133.082.292.094.48-1.846.106-3.72.67-5.453 1.65l-.537.323-.135.074-.047.043c-.693.45-1.33.956-1.908 1.507-1-1.196-2.472-2.43-3.895-1.698-1.314.674-3.504 2.78-3.048 3.888.28.683 1.085.544 1.54.4.38-.12.71-.254 1-.372.666-.27 1.03-.404 1.4-.28.268.09.572.32.926.705-.17.3-.326.61-.464.922-.855 1.95-.966 3.908-.343 5.625-1.514.94-2.036 2.947-1.216 4.626l.004.007.106.203c.105.186.3.29.498.29.095 0 .192-.024.28-.074.276-.156.373-.504.217-.78l-.097-.19c-.072-.164-.1-.297-.075-.374.065-.205.577-.45 1.03-.664.268-.127.574-.273.88-.446l.072-.05c1.345 1.232 3.24 1.955 5.39 2.01.15.51.19.89.128 1.17-.084.38-.388.622-.962 1.054-.25.19-.534.403-.833.666-.832.735-.64 1.272-.45 1.526.235.317.71.443 1.285.443 1.176 0 2.774-.53 3.617-1.052 1.362-.845 1.06-2.748.55-4.223 1.03-.28 2.044-.7 3.016-1.25 1.738-.984 3.19-2.307 4.224-3.823.154.107.274.217.362.33.275.353.27.787.234 1.588-.015.343-.033.732-.018 1.167.04 1.173.597 1.376.925 1.393h.04c1.27 0 2.594-2.958 2.806-4.53.216-1.61-1.365-2.636-2.876-3.243zm-3.654 2.42c-.543.702-1.214 1.363-2 1.946l-.674-.857.094-.156 1.51-3.813c.042-.11.048-.226.023-.336l2.212-.327c.166-.024.31-.12.398-.26-.016.24-.047.482-.095.724-.072.365-.183.734-.327 1.1-.13.33-.288.66-.473.984-.194.34-.417.67-.667.995zm-3.17 2.71c-.936.53-1.914.91-2.898 1.135-.278.062-.557.115-.836.153-.408.056-.815.085-1.22.085l-.125-.003.88-2.224.203.04.084-.006 3.258-.482.1.196.773.98-.217.128zm-1.727-11.367c.334-.038.668-.057 1-.057l.195.004.49.026-.73 1.85c-.09-.037-.19-.05-.292-.035l-3.723.55-.808-1.07c1.245-.69 2.564-1.12 3.868-1.268zm6.262 1.72l.148.184-.84 2.128-2.263.334-1.42-1.79.64-1.623.2-.506.66-.097.04-.007 1.562-.23 1.273 1.606zM21.57 20.87l-3.4.504-2.14-2.696 1.267-3.2 3.403-.503 2.137 2.695-1.266 3.2zm-9.793.875l.69-1.743 2.667-.395 1.675 2.113-.993 2.508-1.135.168-1.532.227-1.676-2.114.303-.766zm2-6.527c.468-.486.996-.933 1.576-1.336l.883 1.17-1.36 3.438-2.903.43c-.146.022-.275.1-.364.212.088-.45.232-.91.435-1.37.29-.663.68-1.3 1.157-1.892.18-.224.373-.44.576-.652zm14.76-3.533c.155-.087.352-.13.586-.13.502 0 1.038.195 1.368.34-.072.574-.294 1.48-.826 1.78-.35.2-.726.304-1.087.304l-.118-.007c-.103-.25-.22-.492-.355-.73-.133-.235-.282-.46-.443-.675.176-.345.49-.663.877-.882zm-8.76-4.507c-.297-.16-.604-.328-.932-.54l-.088-.06c.716-.152 2.422-.077 3.644.45.8.346.793 1.66.647 2.7l-.015.105c-.43-.082-.873-.135-1.33-.158-.06-1.39-.82-1.9-1.925-2.498zM7.66 14.438c-.277.112-.562.227-.887.33.352-.588 1.282-1.627 2.343-2.17.723-.372 1.754.518 2.574 1.516-.23.267-.445.542-.648.824-1.264-1.247-2.147-1-3.384-.5zm2.203 10.044c-.22.104-.434.206-.634.317.132-.513.427-.97.865-1.283.13.222.27.435.425.638-.22.118-.44.224-.657.326zm9.014 5.383c-1.01.627-2.376.89-3.064.89h-.004c.255-.226.5-.41.74-.59 1.068-.803 1.735-1.434 1.312-3.17.346-.028.693-.07 1.04-.13.435 1.22.67 2.57-.025 3zm11.61-8.53c-.176 1.32-.99 2.823-1.49 3.358l-.006-.107c-.012-.39.004-.74.018-1.078.056-1.255.012-2.168-1.148-2.938.127-.236.245-.474.35-.717l.202-.5.095.038c.968.413 2.096 1.083 1.98 1.947zm-2.11-13.278c-.17-.126-.408-.148-.598-.053l-.088.054c-.144.108-.228.277-.228.458 0 .113.034.223.095.316l.06.077.072.064c.098.074.218.115.343.115.09 0 .177-.022.255-.06l.107-.07.093-.097.098-.2c.042-.157.014-.327-.077-.464l-.133-.142zM4.952 24.75c-.17-.125-.41-.146-.598-.052l-.087.054c-.144.108-.228.277-.228.458 0 .113.032.223.093.316l.062.077.072.066c.098.072.217.114.343.114.09 0 .177-.02.254-.06l.108-.07.093-.097.097-.198c.043-.16.015-.33-.076-.466l-.134-.14zm-.79-2.334l.096-.098.097-.2c.042-.156.014-.325-.076-.46-.107-.16-.286-.257-.477-.257-.125 0-.245.042-.343.116-.242.18-.3.522-.132.774.106.16.285.255.476.255.09 0 .176-.02.254-.06l.107-.068zm25.13-16.218c-.124 0-.244.04-.342.114-.242.182-.3.52-.134.773.106.16.285.257.477.257.09 0 .176-.02.254-.06l.107-.07.095-.097.096-.2c.042-.157.014-.326-.077-.462-.107-.16-.286-.254-.476-.254zm-1.6-1.876c-.132.1-.216.252-.227.417l.007.135c.015.09.05.172.102.242l.057.066.152.106c.076.037.162.06.253.06.125 0 .246-.04.345-.115l.057-.05c.108-.106.17-.253.17-.406 0-.218-.123-.416-.317-.513-.16-.08-.354-.08-.514.002l-.084.05zM4.942 22.744c-.085.016-.167.052-.238.104-.222.166-.294.47-.168.717.056.11.145.2.254.253.08.04.167.06.256.06s.176-.02.255-.06l.09-.055c.117-.088.197-.218.22-.364.03-.183-.03-.367-.16-.497-.133-.133-.323-.193-.508-.16zm23.778-19.3c.15.154.363.243.582.243.173 0 .34-.057.474-.16.156-.115.26-.282.292-.475.037-.216-.02-.444-.154-.624l-.074-.08c-.148-.135-.35-.213-.555-.213-.16 0-.314.046-.446.132l-.05.035c-.317.26-.37.747-.118 1.085l.047.056zm.352-.25l.218-.24.177.268c-.12.08-.285.07-.396-.03zm.453-.015l-.093-.11.055.083-.18-.22.058-.063.223-.167c.125.167.06.367-.063.476zm-.583-.322c.016-.095.068-.182.145-.243.064-.046.14-.07.215-.07.114 0 .194.056.24.103l-.26.252-.128-.155.11.168L29 3.11c-.053-.07-.073-.16-.057-.252zM3.287 18.962c.138.12.316.186.502.186.22 0 .435-.092.587-.252l.046-.056c.238-.324.193-.79-.095-1.055-.14-.135-.322-.208-.517-.208-.218 0-.432.094-.588.257l-.068.088c-.198.312-.16.732.092 1l.042.04zm.83-.427l-.273-.174.235-.22c.078.085.136.24.037.395zm-.09-.444l-.092.11.072-.067-.186.214-.07-.046-.203-.19c.123-.13.337-.134.48-.018zm-.526.075l.293.214-.13.15.145-.137.24.23c-.12.127-.36.124-.502-.004-.113-.11-.162-.295-.044-.455zM25.88 1.973c.228.236.57.378.91.378.266 0 .52-.087.72-.246.23-.164.383-.41.432-.693.057-.333-.033-.69-.246-.976L27.62.35c-.233-.21-.554-.33-.88-.33-.252 0-.493.07-.698.206l-.048.035c-.48.393-.552 1.137-.162 1.658l.047.056zm.93-.8l.005.023-.013.01-.07-.01-.006-.034.083.012zM6.19 7.564c.09.05.188.077.287.077.1 0 .198-.026.286-.077L8.61 6.497c.89.805 2.058 1.26 3.268 1.26 1.365 0 2.677-.58 3.6-1.588.2-.22.2-.554 0-.772-.923-1.008-2.234-1.587-3.6-1.587-1.21 0-2.377.456-3.27 1.26L6.764 4.006c-.177-.102-.395-.102-.57 0-.178.102-.287.29-.287.495v2.567c0 .204.11.393.286.495zm5.687-2.608c.857 0 1.686.298 2.346.83-.66.532-1.49.83-2.346.83-.856 0-1.685-.298-2.345-.83.66-.532 1.49-.83 2.345-.83zm-4.83.536l.51.295-.51.294V5.49zm.323 4.773c.2-.218.2-.554 0-.77-.667-.73-1.615-1.15-2.602-1.15-.83 0-1.633.298-2.265.826L1.347 8.5c-.177-.1-.395-.1-.572 0-.176.103-.286.292-.286.496v1.762c0 .204.108.393.285.495.09.052.187.077.286.077.1 0 .2-.025.287-.077l1.156-.668c.63.528 1.434.825 2.265.825.987 0 1.936-.418 2.602-1.147zm-2.602-.776c.466 0 .92.138 1.305.39-.384.252-.84.39-1.305.39-.467 0-.92-.138-1.306-.39.386-.252.84-.39 1.306-.39zm22.148 17.285c-.83 0-1.633.298-2.265.826l-1.155-.67c-.177-.1-.395-.1-.572 0-.177.104-.285.292-.285.496v1.762c0 .204.108.393.285.495.09.052.187.077.286.077.097 0 .196-.025.285-.076l1.156-.667c.632.528 1.435.825 2.266.825.987 0 1.936-.418 2.602-1.147.2-.217.2-.553 0-.77-.667-.73-1.615-1.148-2.602-1.148zm0 1.924c-.467 0-.92-.14-1.306-.39.386-.252.84-.39 1.306-.39.466 0 .92.138 1.305.39-.384.252-.838.39-1.304.39z" fill="#3A434E"/></g></svg>