<svg width="32" height="232" viewBox="0 0 32 232" xmlns="http://www.w3.org/2000/svg"><title>rio-de-janero</title><desc>Created with Sketch.</desc><g fill="none"><path d="M4.024 130.847h.107l-.027.284c0 .765.576 1.386 1.285 1.386h7.922c.313 0 .615-.123.85-.346.276-.263.435-.642.435-1.038s-.16-.774-.436-1.037c-.236-.223-.537-.346-.85-.346H8.866l.005-.106c0-.345-.137-.674-.378-.902-.205-.194-.467-.3-.738-.3h-3.73c-.616 0-1.117.54-1.117 1.202 0 .664.5 1.204 1.117 1.204zm0-1.308h3.73l.064.026.033.078-.033.078-.063.026h-.002c-.282 0-.51.246-.51.55 0 .302.23.548.51.548h5.56c.08 0 .14.04.174.072.033.032.09.102.09.213 0 .113-.057.183-.09.215-.035.032-.093.07-.174.07H5.39c-.146 0-.265-.127-.265-.284 0-.156.118-.283.265-.283.282 0 .51-.246.51-.55h.003c0-.302-.23-.548-.51-.548H4.024c-.054 0-.097-.048-.097-.106 0-.058.044-.105.097-.105zm26.952 18.705h-.85v-5.032c0-.303-.228-.55-.51-.55H27.52c-.277 0-.5.237-.51.53h-1.637c-.254 0-.463.202-.5.464l-.156-.058V141.092h3.85c.283 0 .51-.246.51-.55 0-.303-.228-.55-.51-.55h-4.093l-.235-10.424 1.937.1c.47.023.89-.295 1.025-.776l.573-2.014.808.22.125.017c.082 0 .162-.02.236-.063l.913-.513c.172-.096.28-.29.274-.498-.003-.208-.117-.397-.293-.486l-.567-.285-.197-.05-1.49-.06c-.148-.125-.326-.205-.516-.228l-3.13-.384c-.096-.012-.194-.01-.29.01l-.382.07v-.845c0-1.324-.725-2.36-1.65-2.36s-1.653 1.036-1.653 2.36v.835l-.312-.062c-.098-.02-.198-.023-.296-.01l-3.193.384c-.19.023-.368.103-.516.228l-1.49.06-.198.05-.566.286c-.175.09-.29.277-.294.486-.004.21.102.403.274.5l.914.512c.073.042.154.063.236.063l.124-.018.808-.22.572 2.015c.137.48.557.798 1.025.776l1.937-.1-.09 3.932c-.18-.106-.387-.166-.608-.166H12.45c-.312 0-.614.124-.85.346-.277.263-.436.64-.436 1.037 0 .396.16.774.437 1.038.235.223.536.346.85.346h2.36l-.006.105c0 .345.14.674.38.902.204.194.467.3.738.3h2.886l-.057 2.56-.02.023h-7.38l-.296-.922v-1.117l-.04-.21-.583-1.502c-.032-.08-.08-.152-.142-.21l-.816-.738c-.21-.19-.517-.168-.703.046l-.638.74-.09.147-.358.852h-1.65c-.115 0-.227.042-.317.118l-1.023.874-.044.043-.613.66c-.06.066-.103.145-.127.232l-.274.988H2.4c-.283 0-.512.246-.512.55 0 .303.23.55.51.55h16.066v2.492l.002.03-.957.362c-.137.05-.247.163-.303.307l-.34.88h-.498l-.134.02v-1.968c0-.303-.23-.55-.51-.55h-2.098c-.282 0-.51.247-.51.55v1.71H11.96v-1.51c0-.303-.227-.55-.51-.55H9.855v-.344c0-.303-.228-.55-.51-.55H7.872c-.282 0-.51.247-.51.55v1.455H6.91v-.576c0-.303-.228-.55-.51-.55H4.257c-.282 0-.51.247-.51.55v.302H2.114c-.282 0-.51.245-.51.548v3.996h-.51c-.564 0-1.02.493-1.02 1.1 0 .606.456 1.097 1.02 1.097H30.98c.563 0 1.02-.49 1.02-1.097s-.456-1.1-1.02-1.1zm-28.356 0v-3.447h1.123v3.996H2.62v-.55zm12.593-1.267l-.672.168c-.12.03-.227.107-.3.216l-.104.16v-3.76h1.077v3.216zm-2.177 1.267v.55h-1.078v-2.774h1.078v2.225zm-3.176-4.28h1.078v4.83H9.86v-4.83zm-1.48.56v-1.456h.45v5.725h-.45v-4.27zm-1.022 3.72v.55h-.452v-3.72h.452v3.17zm-2.596-3.995v-.302h1.123v4.848H4.762v-4.546zm10.45 4.45h-.603l.298-.454.05-.076.254-.063.51-.127.222-.056c.116-.03.217-.1.288-.2l.08-.155.417-1.307h.474c.207 0 .393-.133.472-.338l.383-.99.965-.365.724-.274h3.72l.7.264.69.26.302.115.21.54.174.45c.06.16.186.274.336.318l.135.02h.476l.418 1.307.05.11.048.07c.07.087.163.15.27.176l.192.048.048.012.463.116.048.01.235.06.05.076.3.453h-13.4zm.614-12.49l.034-.08.063-.025h.002c.282 0 .51-.246.51-.55 0-.303-.228-.55-.51-.55H12.45c-.08 0-.14-.038-.174-.07-.034-.033-.09-.104-.09-.215 0-.11.055-.18.09-.213.034-.032.093-.072.174-.072h5.837c.146 0 .265.13.265.286 0 .16-.12.287-.265.287-.282 0-.51.246-.51.55h-.002c0 .303.228.55.51.55h.553l-.005.208h-2.91l-.065-.026-.033-.08zm3.604-9.46l1.71.334.29.057c.118.024.24.025.36.002l.304-.058 1.05-.2.71-.134 1.76.216-.132.468-2.24-.117c-.282-.015-.56.097-.764.31-.203.214-.314.508-.307.814l.18 8.01-1.44-1.677.14-6.332c.008-.305-.104-.6-.306-.812-.203-.214-.48-.327-.762-.31l-2.24.116-.133-.465 1.82-.22zm1.55-2.965c0-.722.333-1.262.63-1.262s.632.54.632 1.262v1.04l-.63.118-.633-.124v-1.036zm-.477 17.695v-.744h.273l.098-4.385 1.514 1.765.06 2.62h.227v1.752h-2.172v-1.008zm6.456 3.697l-.104-.013h-.5l-.335-.87h.94v.883zm2.145 2.373l-.123-.186c-.073-.11-.18-.186-.3-.216l-.655-.163v-3.22h1.078v3.785zM4.85 139.454l.5-.54.862-.735h1.802c.2 0 .382-.128.465-.325l.457-1.093.25-.29.35.317.497 1.276v1.098l.028.178.208.652H4.7l.15-.54z" fill="#206FAC"/><path d="M4.024 90.847h.107l-.027.284c0 .765.576 1.386 1.285 1.386h7.922c.313 0 .615-.123.85-.346.276-.263.435-.642.435-1.038s-.16-.774-.436-1.037c-.236-.223-.537-.346-.85-.346H8.866l.005-.106c0-.345-.137-.674-.378-.902-.205-.194-.467-.3-.738-.3h-3.73c-.616 0-1.117.54-1.117 1.202 0 .664.5 1.204 1.117 1.204zm0-1.308h3.73l.064.026.033.078-.033.078-.063.026h-.002c-.282 0-.51.246-.51.55 0 .302.23.548.51.548h5.56c.08 0 .14.04.174.072.033.032.09.102.09.213 0 .113-.057.183-.09.215-.035.032-.093.07-.174.07H5.39c-.146 0-.265-.127-.265-.285 0-.157.118-.284.265-.284.282 0 .51-.246.51-.55h.003c0-.302-.23-.548-.51-.548H4.024c-.054 0-.097-.047-.097-.105 0-.058.044-.105.097-.105zm26.952 18.705h-.85v-5.032c0-.303-.228-.55-.51-.55H27.52c-.277 0-.5.237-.51.53h-1.637c-.254 0-.463.202-.5.464l-.156-.058V101.092h3.85c.283 0 .51-.246.51-.55 0-.303-.228-.55-.51-.55h-4.093L24.24 89.57l1.937.1c.47.023.89-.295 1.025-.776l.573-2.014.808.22.125.017c.082 0 .162-.02.236-.063l.913-.513c.172-.096.28-.29.274-.498-.003-.208-.117-.397-.293-.486l-.567-.285-.197-.05-1.49-.06c-.148-.125-.326-.205-.516-.228l-3.13-.384c-.096-.012-.194-.01-.29.01l-.382.07v-.845c0-1.324-.725-2.36-1.65-2.36s-1.653 1.036-1.653 2.36v.835l-.312-.062c-.098-.02-.198-.023-.296-.01l-3.193.384c-.19.023-.368.103-.516.228l-1.49.06-.198.05-.566.286c-.175.09-.29.277-.294.486-.004.21.102.403.274.5l.914.512c.073.042.154.063.236.063l.124-.018.808-.22.572 2.015c.137.48.557.798 1.025.776l1.937-.1-.09 3.932c-.18-.106-.387-.166-.608-.166H12.45c-.312 0-.614.124-.85.346-.277.263-.436.64-.436 1.037 0 .396.16.774.437 1.038.235.223.536.346.85.346h2.36l-.006.105c0 .345.14.674.38.902.204.194.467.3.738.3h2.886l-.057 2.56-.02.023h-7.38l-.296-.922V97.95l-.04-.21-.583-1.502c-.032-.08-.08-.152-.142-.21l-.816-.738c-.21-.19-.517-.168-.703.046l-.638.74-.09.147-.358.852h-1.65c-.115 0-.227.042-.317.118l-1.023.874-.044.043-.613.66c-.06.066-.103.145-.127.232l-.274.988H2.4c-.283 0-.512.246-.512.55 0 .303.23.55.51.55h16.066v2.492l.002.03-.957.362c-.137.05-.247.163-.303.307l-.34.88h-.498l-.134.02v-1.968c0-.303-.23-.55-.51-.55h-2.098c-.282 0-.51.247-.51.55v1.71H11.96v-1.51c0-.303-.227-.55-.51-.55H9.855v-.344c0-.303-.228-.55-.51-.55H7.872c-.282 0-.51.247-.51.55v1.455H6.91v-.576c0-.303-.228-.55-.51-.55H4.257c-.282 0-.51.247-.51.55v.302H2.114c-.282 0-.51.245-.51.548v3.996h-.51c-.564 0-1.02.493-1.02 1.1 0 .606.456 1.097 1.02 1.097H30.98c.563 0 1.02-.49 1.02-1.097s-.456-1.1-1.02-1.1zm-28.356 0v-3.447h1.123v3.996H2.62v-.55zm12.593-1.267l-.672.168c-.12.03-.227.107-.3.216l-.104.16v-3.76h1.077v3.216zm-2.177 1.267v.55h-1.078v-2.774h1.078v2.225zm-3.176-4.28h1.078v4.83H9.86v-4.83zm-1.48.56v-1.456h.45v5.725h-.45v-4.27zm-1.022 3.72v.55h-.452v-3.72h.452v3.17zm-2.596-3.995v-.302h1.123v4.848H4.762v-4.546zm10.45 4.45h-.603l.298-.454.05-.076.254-.063.51-.127.222-.056c.116-.03.217-.1.288-.2l.08-.155.417-1.307h.474c.207 0 .393-.133.472-.338l.383-.99.965-.365.724-.274h3.72l.7.264.69.26.302.115.21.54.174.45c.06.16.186.274.336.318l.135.02h.476l.418 1.307.05.11.048.07c.07.087.163.15.27.176l.192.048.048.012.463.116.048.01.235.06.05.076.3.453h-13.4zm.614-12.49l.034-.08.063-.025h.002c.282 0 .51-.246.51-.55 0-.303-.228-.55-.51-.55H12.45c-.08 0-.14-.038-.174-.07-.034-.033-.09-.104-.09-.215 0-.11.055-.18.09-.213.034-.032.093-.072.174-.072h5.837c.146 0 .265.13.265.286 0 .16-.12.287-.265.287-.282 0-.51.246-.51.55h-.002c0 .303.228.55.51.55h.553l-.005.208h-2.91l-.065-.026-.033-.08zm3.604-9.46l1.71.334.29.057c.118.024.24.025.36.002l.304-.058 1.05-.2.71-.134 1.76.216-.132.468-2.24-.117c-.282-.015-.56.097-.764.31-.203.214-.314.508-.307.814l.18 8.01-1.44-1.677.14-6.332c.008-.305-.104-.6-.306-.812-.203-.214-.48-.327-.762-.31l-2.24.116-.133-.465 1.82-.22zm1.55-2.965c0-.722.333-1.262.63-1.262s.632.54.632 1.262v1.04l-.63.118-.633-.124v-1.036zm-.477 17.695v-.744h.273l.098-4.385 1.514 1.765.06 2.62h.227v1.752h-2.172v-1.008zm6.456 3.697l-.104-.013h-.5l-.335-.87h.94v.883zm2.145 2.373l-.123-.186c-.073-.11-.18-.186-.3-.216l-.655-.163v-3.22h1.078v3.785zM4.85 99.454l.5-.54.862-.735h1.802c.2 0 .382-.128.465-.325l.457-1.093.25-.29.35.317.497 1.276v1.098l.028.178.208.652H4.7l.15-.54z" fill="#fff"/><path d="M4.024 50.847h.107l-.027.284c0 .765.576 1.386 1.285 1.386h7.922c.313 0 .615-.123.85-.346.276-.263.435-.642.435-1.038s-.16-.774-.436-1.037c-.236-.223-.537-.346-.85-.346H8.866l.005-.106c0-.345-.137-.674-.378-.902-.205-.194-.467-.3-.738-.3h-3.73c-.616 0-1.117.54-1.117 1.202 0 .664.5 1.204 1.117 1.204zm0-1.308h3.73l.064.026.033.078-.033.078-.063.026h-.002c-.282 0-.51.246-.51.55 0 .302.23.548.51.548h5.56c.08 0 .14.04.174.072.033.032.09.102.09.213 0 .113-.057.183-.09.215-.035.032-.093.07-.174.07H5.39c-.146 0-.265-.127-.265-.285 0-.157.118-.284.265-.284.282 0 .51-.246.51-.55h.003c0-.302-.23-.548-.51-.548H4.024c-.054 0-.097-.047-.097-.105 0-.058.044-.105.097-.105zm26.952 18.705h-.85v-5.032c0-.303-.228-.55-.51-.55H27.52c-.277 0-.5.237-.51.53h-1.637c-.254 0-.463.202-.5.464l-.156-.058V61.092h3.85c.283 0 .51-.246.51-.55 0-.303-.228-.55-.51-.55h-4.093L24.24 49.57l1.937.1c.47.023.89-.295 1.025-.776l.573-2.014.808.22.125.017c.082 0 .162-.02.236-.063l.913-.513c.172-.096.28-.29.274-.498-.003-.208-.117-.397-.293-.486l-.567-.285-.197-.05-1.49-.06c-.148-.125-.326-.205-.516-.228l-3.13-.384c-.096-.012-.194-.01-.29.01l-.382.07v-.845c0-1.324-.725-2.36-1.65-2.36s-1.653 1.036-1.653 2.36v.835l-.312-.062c-.098-.02-.198-.023-.296-.01l-3.193.384c-.19.023-.368.103-.516.228l-1.49.06-.198.05-.566.286c-.175.09-.29.277-.294.486-.004.21.102.403.274.5l.914.512c.073.042.154.063.236.063l.124-.018.808-.22.572 2.015c.137.48.557.798 1.025.776l1.937-.1-.09 3.932c-.18-.106-.387-.166-.608-.166H12.45c-.312 0-.614.124-.85.346-.277.263-.436.64-.436 1.037 0 .396.16.774.437 1.038.235.223.536.346.85.346h2.36l-.006.105c0 .345.14.674.38.902.204.194.467.3.738.3h2.886l-.057 2.56-.02.023h-7.38l-.296-.922V57.95l-.04-.21-.583-1.502c-.032-.08-.08-.152-.142-.21l-.816-.738c-.21-.19-.517-.168-.703.046l-.638.74-.09.147-.358.852h-1.65c-.115 0-.227.042-.317.118l-1.023.874-.044.043-.613.66c-.06.066-.103.145-.127.232l-.274.988H2.4c-.283 0-.512.246-.512.55 0 .303.23.55.51.55h16.066v2.492l.002.03-.957.362c-.137.05-.247.163-.303.307l-.34.88h-.498l-.134.02v-1.968c0-.303-.23-.55-.51-.55h-2.098c-.282 0-.51.247-.51.55v1.71H11.96v-1.51c0-.303-.227-.55-.51-.55H9.855v-.344c0-.303-.228-.55-.51-.55H7.872c-.282 0-.51.247-.51.55v1.455H6.91v-.576c0-.303-.228-.55-.51-.55H4.257c-.282 0-.51.247-.51.55v.302H2.114c-.282 0-.51.245-.51.548v3.996h-.51c-.564 0-1.02.493-1.02 1.1 0 .606.456 1.097 1.02 1.097H30.98c.563 0 1.02-.49 1.02-1.097s-.456-1.1-1.02-1.1zm-28.356 0v-3.447h1.123v3.996H2.62v-.55zm12.593-1.267l-.672.168c-.12.03-.227.107-.3.216l-.104.16v-3.76h1.077v3.216zm-2.177 1.267v.55h-1.078V66.02h1.078v2.225zm-3.176-4.28h1.078v4.83H9.86v-4.83zm-1.48.56V63.07h.45v5.725h-.45v-4.27zm-1.022 3.72v.55h-.452v-3.72h.452v3.17zM4.762 64.25v-.302h1.123v4.848H4.762V64.25zm10.45 4.45h-.603l.298-.454.05-.076.254-.063.51-.127.222-.056c.116-.03.217-.1.288-.2l.08-.155.417-1.307h.474c.207 0 .393-.133.472-.338l.383-.99.965-.365.724-.274h3.72l.7.264.69.26.302.115.21.54.174.45c.06.16.186.274.336.318l.135.02h.476l.418 1.307.05.11.048.07c.07.087.163.15.27.176l.192.048.048.012.463.116.048.01.235.06.05.076.3.453h-13.4zm.614-12.49l.034-.08.063-.025h.002c.282 0 .51-.246.51-.55 0-.303-.228-.55-.51-.55H12.45c-.08 0-.14-.038-.174-.07-.034-.033-.09-.104-.09-.215 0-.11.055-.18.09-.213.034-.032.093-.072.174-.072h5.837c.146 0 .265.13.265.286 0 .16-.12.287-.265.287-.282 0-.51.246-.51.55h-.002c0 .303.228.55.51.55h.553l-.005.208h-2.91l-.065-.026-.033-.08zm3.604-9.46l1.71.334.29.057c.118.024.24.025.36.002l.304-.058 1.05-.2.71-.134 1.76.216-.132.468-2.24-.117c-.282-.015-.56.097-.764.31-.203.214-.314.508-.307.814l.18 8.01-1.44-1.677.14-6.332c.008-.305-.104-.6-.306-.812-.203-.214-.48-.327-.762-.31l-2.24.116-.133-.465 1.82-.22zm1.55-2.965c0-.722.333-1.262.63-1.262s.632.54.632 1.262v1.04l-.63.118-.633-.124v-1.036zm-.477 17.695v-.744h.273l.098-4.385 1.514 1.765.06 2.62h.227v1.752h-2.172V61.48zm6.456 3.697l-.104-.013h-.5l-.335-.87h.94v.883zm2.145 2.373l-.123-.186c-.073-.11-.18-.186-.3-.216l-.655-.163v-3.22h1.078v3.785zM4.85 59.454l.5-.54.862-.735h1.802c.2 0 .382-.128.465-.325l.457-1.093.25-.29.35.317.497 1.276v1.098l.028.178.208.652H4.7l.15-.54z" fill="#67737B"/><path d="M4.024 10.847h.107l-.027.284c0 .765.576 1.386 1.285 1.386h7.922c.313 0 .615-.123.85-.346.276-.263.435-.642.435-1.038s-.16-.774-.436-1.037c-.236-.223-.537-.346-.85-.346H8.866l.005-.106c0-.345-.137-.674-.378-.902-.205-.194-.467-.3-.738-.3h-3.73c-.616 0-1.117.54-1.117 1.202 0 .664.5 1.204 1.117 1.204zm0-1.308h3.73l.064.026.033.078-.033.078-.063.026h-.002c-.282 0-.51.246-.51.55 0 .302.23.548.51.548h5.56c.08 0 .14.04.174.072.033.032.09.102.09.213 0 .113-.057.183-.09.215-.035.032-.093.07-.174.07H5.39c-.146 0-.265-.127-.265-.285 0-.157.118-.284.265-.284.282 0 .51-.246.51-.55h.003c0-.302-.23-.548-.51-.548H4.024c-.054 0-.097-.047-.097-.105 0-.058.044-.105.097-.105zm26.952 18.705h-.85v-5.032c0-.303-.228-.55-.51-.55H27.52c-.277 0-.5.237-.51.53h-1.637c-.254 0-.463.202-.5.464l-.156-.058V21.092h3.85c.283 0 .51-.246.51-.55 0-.303-.228-.55-.51-.55h-4.093L24.24 9.57l1.937.1c.47.023.89-.295 1.025-.776l.573-2.014.808.22.125.017c.082 0 .162-.02.236-.063l.913-.513c.172-.096.28-.29.274-.498-.003-.208-.117-.397-.293-.486l-.567-.285-.197-.05-1.49-.06c-.148-.125-.326-.205-.516-.228l-3.13-.384c-.096-.012-.194-.01-.29.01l-.382.07v-.845c0-1.324-.725-2.36-1.65-2.36s-1.653 1.036-1.653 2.36v.835l-.312-.062c-.098-.02-.198-.023-.296-.01l-3.193.384c-.19.023-.368.103-.516.228l-1.49.06-.198.05-.566.286c-.175.09-.29.277-.294.486-.004.21.102.403.274.5l.914.512c.073.042.154.063.236.063l.124-.018.808-.22.572 2.015c.137.48.557.798 1.025.776l1.937-.1-.09 3.932c-.18-.106-.387-.166-.608-.166H12.45c-.312 0-.614.124-.85.346-.277.263-.436.64-.436 1.037 0 .396.16.774.437 1.038.235.223.536.346.85.346h2.36l-.006.105c0 .345.14.674.38.902.204.194.467.3.738.3h2.886l-.057 2.56-.02.023h-7.38l-.296-.922V17.95l-.04-.21-.583-1.502c-.032-.08-.08-.152-.142-.21l-.816-.738c-.21-.19-.517-.168-.703.046l-.638.74-.09.147-.358.852h-1.65c-.115 0-.227.042-.317.118l-1.023.874-.044.043-.613.66c-.06.066-.103.145-.127.232l-.274.988H2.4c-.283 0-.512.246-.512.55 0 .303.23.55.51.55h16.066v2.492l.002.03-.957.362c-.137.05-.247.163-.303.307l-.34.88h-.498l-.134.02v-1.968c0-.303-.23-.55-.51-.55h-2.098c-.282 0-.51.247-.51.55v1.71H11.96v-1.51c0-.303-.227-.55-.51-.55H9.855v-.344c0-.303-.228-.55-.51-.55H7.872c-.282 0-.51.247-.51.55v1.455H6.91v-.576c0-.303-.228-.55-.51-.55H4.257c-.282 0-.51.247-.51.55v.302H2.114c-.282 0-.51.245-.51.548v3.996h-.51c-.564 0-1.02.493-1.02 1.1 0 .606.456 1.097 1.02 1.097H30.98c.563 0 1.02-.49 1.02-1.097s-.456-1.1-1.02-1.1zm-28.356 0v-3.447h1.123v3.996H2.62v-.55zm12.593-1.267l-.672.168c-.12.03-.227.107-.3.216l-.104.16v-3.76h1.077v3.216zm-2.177 1.267v.55h-1.078V26.02h1.078v2.225zm-3.176-4.28h1.078v4.83H9.86v-4.83zm-1.48.56V23.07h.45v5.725h-.45v-4.27zm-1.022 3.72v.55h-.452v-3.72h.452v3.17zM4.762 24.25v-.302h1.123v4.848H4.762V24.25zm10.45 4.45h-.603l.298-.454.05-.076.254-.063.51-.127.222-.056c.116-.03.217-.1.288-.2l.08-.155.417-1.307h.474c.207 0 .393-.133.472-.338l.383-.99.965-.365.724-.274h3.72l.7.264.69.26.302.115.21.54.174.45c.06.16.186.274.336.318l.135.02h.476l.418 1.307.05.11.048.07c.07.087.163.15.27.176l.192.048.048.012.463.116.048.01.235.06.05.076.3.453h-13.4zm.614-12.49l.034-.08.063-.025h.002c.282 0 .51-.246.51-.55 0-.303-.228-.55-.51-.55H12.45c-.08 0-.14-.038-.174-.07-.034-.033-.09-.104-.09-.215 0-.11.055-.18.09-.213.034-.032.093-.072.174-.072h5.837c.146 0 .265.13.265.286 0 .16-.12.287-.265.287-.282 0-.51.246-.51.55h-.002c0 .303.228.55.51.55h.553l-.005.208h-2.91l-.065-.026-.033-.08zm3.604-9.46l1.71.334.29.057c.118.024.24.025.36.002l.304-.058 1.05-.2.71-.134 1.76.216-.132.468-2.24-.117c-.282-.015-.56.097-.764.31-.203.214-.314.508-.307.814l.18 8.01-1.44-1.677.14-6.332c.008-.305-.104-.6-.306-.812-.203-.214-.48-.327-.762-.31l-2.24.116-.133-.465 1.82-.22zm1.55-2.965c0-.722.333-1.262.63-1.262s.632.54.632 1.262v1.04l-.63.118-.633-.124V3.783zm-.477 17.695v-.744h.273l.098-4.385 1.514 1.765.06 2.62h.227v1.752h-2.172V21.48zm6.456 3.697l-.104-.013h-.5l-.335-.87h.94v.883zm2.145 2.373l-.123-.186c-.073-.11-.18-.186-.3-.216l-.655-.163v-3.22h1.078v3.785zM4.85 19.454l.5-.54.862-.735h1.802c.2 0 .382-.128.465-.325l.457-1.093.25-.29.35.317.497 1.276v1.098l.028.178.208.652H4.7l.15-.54z" fill="#3A434E"/></g></svg>