<svg width="32" height="232" viewBox="0 0 32 232" xmlns="http://www.w3.org/2000/svg" xmlns:sketch="http://www.bohemiancoding.com/sketch/ns"><title>budapest</title><desc>Created with Sketch.</desc><g sketch:type="MSPage" fill="none"><g sketch:type="MSShapeGroup"><path d="M29.589 139.496v-3.323c0-.174-.091-.326-.228-.413v-2.648c0-.26-.204-.472-.462-.491v-1.747c0-.196-.116-.364-.284-.444l-.844-8.117c-.026-.252-.241-.443-.497-.443s-.47.192-.496.443l-.844 8.117c-.168.08-.284.248-.284.444v1.747c-.258.019-.462.23-.462.491v2.648c-.137.088-.228.24-.228.413v1.793l-.882-.624c-.174-.123-.407-.123-.581 0l-.413.293v-2.694c0-.123-.023-.246-.069-.361l-.877-2.213.03-.161.029-3.932c.002-.273-.22-.495-.496-.497h-.003c-.274 0-.497.219-.499.49l-.006.842c-1.113-2.1-2.995-3.707-3.961-4.441v-1.651c0-.273-.224-.493-.499-.493h-.158v-.841l-.001-.013.057-.104.214-.116c.16-.086.26-.253.26-.433s-.1-.346-.26-.433l-.214-.116-.117-.212c-.088-.159-.256-.257-.438-.257s-.351.098-.438.257l-.117.212-.214.116c-.16.087-.26.253-.26.433s.1.347.26.433l.214.116.057.104-.001.013v.841h-.158c-.276 0-.499.221-.499.493v1.651c-.911.692-2.638 2.161-3.765 4.089l.003-.484c.002-.273-.22-.495-.495-.497-.28-.003-.501.217-.503.49l-.024 3.274c-.031.218-.051.44-.059.664l-.941 2.375c-.046.115-.069.237-.069.361v2.633l-.327-.231c-.174-.123-.407-.123-.581 0l-.968.685v-1.854c0-.174-.091-.326-.228-.413v-2.648c0-.26-.204-.472-.462-.491v-1.747c0-.196-.117-.364-.284-.444l-.844-8.117c-.026-.252-.241-.443-.497-.443s-.47.192-.497.443l-.844 8.117c-.167.08-.284.248-.284.444v1.747c-.258.019-.462.23-.462.491v2.648c-.137.088-.228.24-.228.413v3.323c-.298.171-.499.49-.499.855v10.625c0 .546.447.988.999.988h26.03c.551 0 .998-.442.998-.988v-10.625c0-.365-.201-.684-.499-.855zm-24.714-12.302l.331 3.187h-.662l.331-3.187zm2.367 12.01l1.205-.853.618.437.37.262c.174.123.407.123.581 0l.988-.7.988.699c.174.123.407.123.581 0l.988-.699.988.699c.174.123.407.123.581 0l.977-.692.011-.008.015.011.973.689c.174.123.407.123.581 0l.988-.699.988.699c.174.123.408.123.581 0l.844-.597.144-.102.988.7c.174.123.408.123.581 0l.284-.201.704-.498 1.172.83.029.02-.005.833-.025-.012c-.223-.105-.469-.165-.729-.165-.464 0-.886.187-1.204.494l-.153.166-.153-.166-.015-.014c-.315-.298-.732-.48-1.189-.48-.128 0-.252.016-.373.042-.316.071-.601.229-.83.452l-.153.166-.153-.166c-.317-.307-.739-.494-1.203-.494-.464 0-.886.187-1.204.494l-.153.166-.153-.166c-.317-.307-.74-.494-1.204-.494-.464 0-.886.187-1.204.494l-.153.166-.153-.166c-.317-.307-.739-.494-1.204-.494-.464 0-.886.187-1.204.494l-.152.166-.153-.166c-.239-.231-.538-.394-.87-.46l-.334-.033c-.464 0-.886.187-1.204.494l-.003.003-.149.163-.153-.166c-.317-.307-.74-.494-1.204-.494-.258 0-.504.059-.725.164l.007-.817zm3.82-4.076l.689-1.739h8.647l.689 1.739v2.144l-.146.071-.474.336v-2.441c0-.273-.224-.494-.499-.494-.276 0-.499.221-.499.494v2.461l-.503-.356c-.122-.086-.273-.111-.413-.076v-2.03c0-.273-.223-.494-.499-.494s-.499.221-.499.494v2.631l.006.058-.164.115-.758-.536v-2.268c0-.273-.224-.494-.5-.494s-.499.221-.499.494v2.238l-.8.566-.124-.087.009-.085v-2.631c0-.273-.224-.494-.499-.494-.276 0-.499.221-.499.494v2.042c-.151-.052-.32-.032-.455.064l-.461.326v-2.431c0-.273-.224-.494-.499-.494-.276 0-.499.221-.499.494v2.471l-.516-.365c-.071-.049-.151-.079-.233-.088v-2.127zm4.854-11.615h.317v.571c-.105-.016-.212-.016-.317 0v-.571zm-.112 2.985l.271-.214.273.216c.57 1.094 1.32 2.868 1.514 4.913h-3.574c.195-2.043.946-3.82 1.516-4.915zm11.471.696l.332 3.187h-.663l.331-3.187zm-21.084 23.309h-2.632v-11.262h2.632v2.301l-.009.107-.001.021v3.387l.01.098v5.348zm-2.404-16.897h2.177v2.073h-2.177v-2.073zm.462-2.237h1.252v1.249h-1.252v-1.249zm21.71 5.298h2.632v1.587h-2.632v-1.587zm.228-3.061h2.177v2.073h-2.177v-2.073zm.462-2.237h1.252v1.249h-1.252v-1.249zm-17.908 10.312v2.882h-1.562v-2.882l.01-.097.033-.145c.107-.348.397-.595.738-.595.415 0 .756.367.781.836zm1.931-.836c.415 0 .757.367.781.836v2.882h-1.562v-2.882c.025-.47.366-.836.781-.836zm3.493.836v2.882h-1.562v-2.882c.025-.47.366-.836.781-.836.415 0 .757.367.781.836zm2.712 0v2.882h-1.562v-2.882c.025-.47.366-.836.781-.836.415 0 .757.367.781.836zm2.712 0v2.882h-1.562v-2.882c.025-.47.366-.836.781-.836.415 0 .756.367.781.836zm1.15 2.867v-2.867c.025-.47.366-.836.781-.836.415 0 .757.367.781.836v2.882h-1.562v-.015zm4.222-3.136l.015.048.037.221v2.882h-1.562v-2.882c.025-.47.366-.836.781-.836.332 0 .615.234.729.568zm-21.401-4.745h2.632v1.587h-2.632v-1.587zm25.031 3.684v10.152h-2.632v-5.231l.052-.215v-3.408l-.036-.291.007-1.007.006-1.11h2.603v1.11zm-21.401 5.199h2.051l.076-.007.076.007h2.56l.076-.007.076.007h2.561l.076-.007.076.007h2.56l.076-.007.076.007h2.56l.076-.007.076.007h2.561l.076-.007.076.007h2.009v4.438h-17.771v-4.438zm12.771-14.137h-1.097c-.1-1.154-.359-2.224-.675-3.152.73.841 1.485 1.947 1.771 3.152zm-5.998-3.158c-.316.93-.577 2.001-.677 3.158h-1.099c.275-1.173.994-2.261 1.776-3.158zm-9.088 12.365c-.408 0-.741.318-.76.717v1.827h1.52v-1.827c-.019-.399-.352-.717-.76-.717zm0 3.149c-.408 0-.741.318-.76.717v1.827h1.52v-1.827c-.019-.399-.352-.717-.76-.717zm22.4-3.149c-.408 0-.741.318-.76.717v1.827h1.52v-1.827c-.019-.399-.352-.717-.76-.717zm0 3.149c-.408 0-.741.318-.76.717v1.827h1.52v-1.827c-.019-.399-.352-.717-.76-.717zm-19.113 2.667h.999v2.584h-.999v-2.584zm1.839 0h.999v2.584h-.999v-2.584zm1.839 0h.999v2.584h-.999v-2.584zm1.839 0h.999v2.584h-.999v-2.584zm1.839 0h.999v2.584h-.999v-2.584zm1.839 0h.999v2.584h-.999v-2.584zm1.839 0h.999v2.584h-.999v-2.584zm1.839 0h.999v2.584h-.999v-2.584zm1.839 0h.999v2.584h-.999v-2.584z" fill="#206FAC"/><path d="M29.589 99.496v-3.323c0-.174-.091-.326-.228-.413v-2.648c0-.26-.204-.472-.462-.491v-1.747c0-.196-.116-.364-.284-.444l-.844-8.117c-.026-.252-.241-.443-.497-.443s-.47.192-.496.443l-.844 8.117c-.168.08-.284.248-.284.444v1.747c-.258.019-.462.23-.462.491v2.648c-.137.088-.228.24-.228.413v1.793l-.882-.624c-.174-.123-.407-.123-.581 0l-.413.293v-2.694c0-.123-.023-.246-.069-.361l-.877-2.213.03-.161.029-3.932c.002-.273-.22-.495-.496-.497h-.003c-.274 0-.497.219-.499.49l-.006.842c-1.113-2.1-2.995-3.707-3.961-4.441v-1.651c0-.273-.224-.493-.499-.493h-.158v-.841l-.001-.013.057-.104.214-.116c.16-.086.26-.253.26-.433s-.1-.346-.26-.433l-.214-.116-.117-.212c-.088-.159-.256-.257-.438-.257s-.351.098-.438.257l-.117.212-.214.116c-.16.087-.26.253-.26.433s.1.347.26.433l.214.116.057.104-.001.013v.841h-.158c-.276 0-.499.221-.499.493v1.651c-.911.692-2.638 2.161-3.765 4.089l.003-.484c.002-.273-.22-.495-.495-.497-.28-.003-.501.217-.503.49l-.024 3.274c-.031.218-.051.44-.059.664l-.941 2.375c-.046.115-.069.237-.069.361v2.633l-.327-.231c-.174-.123-.407-.123-.581 0l-.968.685v-1.854c0-.174-.091-.326-.228-.413v-2.648c0-.26-.204-.472-.462-.491v-1.747c0-.196-.117-.364-.284-.444l-.844-8.117c-.026-.252-.241-.443-.497-.443s-.47.192-.497.443l-.844 8.117c-.167.08-.284.248-.284.444v1.747c-.258.019-.462.23-.462.491v2.648c-.137.088-.228.24-.228.413v3.323c-.298.171-.499.49-.499.855v10.625c0 .546.447.988.999.988h26.03c.551 0 .998-.442.998-.988v-10.625c0-.365-.201-.684-.499-.855zm-24.714-12.302l.331 3.187h-.662l.331-3.187zm2.367 12.01l1.205-.853.618.437.37.262c.174.123.407.123.581 0l.988-.7.988.699c.174.123.407.123.581 0l.988-.699.988.699c.174.123.407.123.581 0l.977-.692.011-.008.015.011.973.689c.174.123.407.123.581 0l.988-.699.988.699c.174.123.408.123.581 0l.844-.597.144-.102.988.7c.174.123.408.123.581 0l.284-.201.704-.498 1.172.83.029.02-.005.833-.025-.012c-.223-.105-.469-.165-.729-.165-.464 0-.886.187-1.204.494l-.153.166-.153-.166-.015-.014c-.315-.298-.732-.48-1.189-.48-.128 0-.252.016-.373.042-.316.071-.601.229-.83.452l-.153.166-.153-.166c-.317-.307-.739-.494-1.203-.494-.464 0-.886.187-1.204.494l-.153.166-.153-.166c-.317-.307-.74-.494-1.204-.494-.464 0-.886.187-1.204.494l-.153.166-.153-.166c-.317-.307-.739-.494-1.204-.494-.464 0-.886.187-1.204.494l-.152.166-.153-.166c-.239-.231-.538-.394-.87-.46l-.334-.033c-.464 0-.886.187-1.204.494l-.003.003-.149.163-.153-.166c-.317-.307-.74-.494-1.204-.494-.258 0-.504.059-.725.164l.007-.817zm3.82-4.076l.689-1.739h8.647l.689 1.739v2.144l-.146.071-.474.336v-2.441c0-.273-.224-.494-.499-.494-.276 0-.499.221-.499.494v2.461l-.503-.356c-.122-.086-.273-.111-.413-.076v-2.03c0-.273-.223-.494-.499-.494s-.499.221-.499.494v2.631l.006.058-.164.115-.758-.536v-2.268c0-.273-.224-.494-.5-.494s-.499.221-.499.494v2.238l-.8.566-.124-.087.009-.085v-2.631c0-.273-.224-.494-.499-.494-.276 0-.499.221-.499.494v2.042c-.151-.052-.32-.032-.455.064l-.461.326v-2.431c0-.273-.224-.494-.499-.494-.276 0-.499.221-.499.494v2.471l-.516-.365c-.071-.049-.151-.079-.233-.088v-2.127zm4.854-11.615h.317v.571c-.105-.016-.212-.016-.317 0v-.571zm-.112 2.985l.271-.214.273.216c.57 1.094 1.32 2.868 1.514 4.913h-3.574c.195-2.043.946-3.82 1.516-4.915zm11.471.696l.332 3.187h-.663l.331-3.187zm-21.084 23.309h-2.632v-11.262h2.632v2.301l-.009.107-.001.021v3.387l.01.098v5.348zm-2.404-16.897h2.177v2.073h-2.177v-2.073zm.462-2.237h1.252v1.249h-1.252v-1.249zm21.71 5.298h2.632v1.587h-2.632v-1.587zm.228-3.061h2.177v2.073h-2.177v-2.073zm.462-2.237h1.252v1.249h-1.252v-1.249zm-17.908 10.312v2.882h-1.562v-2.882l.01-.097.033-.145c.107-.348.397-.595.738-.595.415 0 .756.367.781.836zm1.931-.836c.415 0 .757.367.781.836v2.882h-1.562v-2.882c.025-.47.366-.836.781-.836zm3.493.836v2.882h-1.562v-2.882c.025-.47.366-.836.781-.836.415 0 .757.367.781.836zm2.712 0v2.882h-1.562v-2.882c.025-.47.366-.836.781-.836.415 0 .757.367.781.836zm2.712 0v2.882h-1.562v-2.882c.025-.47.366-.836.781-.836.415 0 .756.367.781.836zm1.15 2.867v-2.867c.025-.47.366-.836.781-.836.415 0 .757.367.781.836v2.882h-1.562v-.015zm4.222-3.136l.015.048.037.221v2.882h-1.562v-2.882c.025-.47.366-.836.781-.836.332 0 .615.234.729.568zm-21.401-4.745h2.632v1.587h-2.632v-1.587zm25.031 3.684v10.152h-2.632v-5.231l.052-.215v-3.408l-.036-.291.007-1.007.006-1.11h2.603v1.11zm-21.401 5.199h2.051l.076-.007.076.007h2.56l.076-.007.076.007h2.561l.076-.007.076.007h2.56l.076-.007.076.007h2.56l.076-.007.076.007h2.561l.076-.007.076.007h2.009v4.438h-17.771v-4.438zm12.771-14.137h-1.097c-.1-1.154-.359-2.224-.675-3.152.73.841 1.485 1.947 1.771 3.152zm-5.998-3.158c-.316.93-.577 2.001-.677 3.158h-1.099c.275-1.173.994-2.261 1.776-3.158zm-9.088 12.365c-.408 0-.741.318-.76.717v1.827h1.52v-1.827c-.019-.399-.352-.717-.76-.717zm0 3.149c-.408 0-.741.318-.76.717v1.827h1.52v-1.827c-.019-.399-.352-.717-.76-.717zm22.4-3.149c-.408 0-.741.318-.76.717v1.827h1.52v-1.827c-.019-.399-.352-.717-.76-.717zm0 3.149c-.408 0-.741.318-.76.717v1.827h1.52v-1.827c-.019-.399-.352-.717-.76-.717zm-19.113 2.667h.999v2.584h-.999v-2.584zm1.839 0h.999v2.584h-.999v-2.584zm1.839 0h.999v2.584h-.999v-2.584zm1.839 0h.999v2.584h-.999v-2.584zm1.839 0h.999v2.584h-.999v-2.584zm1.839 0h.999v2.584h-.999v-2.584zm1.839 0h.999v2.584h-.999v-2.584zm1.839 0h.999v2.584h-.999v-2.584zm1.839 0h.999v2.584h-.999v-2.584z" fill="#fff"/><path d="M29.589 59.496v-3.323c0-.174-.091-.326-.228-.413v-2.648c0-.26-.204-.472-.462-.491v-1.747c0-.196-.116-.364-.284-.444l-.844-8.117c-.026-.252-.241-.443-.497-.443s-.47.192-.496.443l-.844 8.117c-.168.08-.284.248-.284.444v1.747c-.258.019-.462.23-.462.491v2.648c-.137.088-.228.24-.228.413v1.793l-.882-.624c-.174-.123-.407-.123-.581 0l-.413.293v-2.694c0-.123-.023-.246-.069-.361l-.877-2.213.03-.161.029-3.932c.002-.273-.22-.495-.496-.497h-.003c-.274 0-.497.219-.499.49l-.006.842c-1.113-2.1-2.995-3.707-3.961-4.441v-1.651c0-.273-.224-.493-.499-.493h-.158v-.841l-.001-.013.057-.104.214-.116c.16-.086.26-.253.26-.433s-.1-.346-.26-.433l-.214-.116-.117-.212c-.088-.159-.256-.257-.438-.257s-.351.098-.438.257l-.117.212-.214.116c-.16.087-.26.253-.26.433s.1.347.26.433l.214.116.057.104-.001.013v.841h-.158c-.276 0-.499.221-.499.493v1.651c-.911.692-2.638 2.161-3.765 4.089l.003-.484c.002-.273-.22-.495-.495-.497-.28-.003-.501.217-.503.49l-.024 3.274c-.031.218-.051.44-.059.664l-.941 2.375c-.046.115-.069.237-.069.361v2.633l-.327-.231c-.174-.123-.407-.123-.581 0l-.968.685v-1.854c0-.174-.091-.326-.228-.413v-2.648c0-.26-.204-.472-.462-.491v-1.747c0-.196-.117-.364-.284-.444l-.844-8.117c-.026-.252-.241-.443-.497-.443s-.47.192-.497.443l-.844 8.117c-.167.08-.284.248-.284.444v1.747c-.258.019-.462.23-.462.491v2.648c-.137.088-.228.24-.228.413v3.323c-.298.171-.499.49-.499.855v10.625c0 .546.447.988.999.988h26.03c.551 0 .998-.442.998-.988v-10.625c0-.365-.201-.684-.499-.855zm-24.714-12.302l.331 3.187h-.662l.331-3.187zm2.367 12.01l1.205-.853.618.437.37.262c.174.123.407.123.581 0l.988-.7.988.699c.174.123.407.123.581 0l.988-.699.988.699c.174.123.407.123.581 0l.977-.692.011-.008.015.011.973.689c.174.123.407.123.581 0l.988-.699.988.699c.174.123.408.123.581 0l.844-.597.144-.102.988.7c.174.123.408.123.581 0l.284-.201.704-.498 1.172.83.029.02-.005.833-.025-.012c-.223-.105-.469-.165-.729-.165-.464 0-.886.187-1.204.494l-.153.166-.153-.166-.015-.014c-.315-.298-.732-.48-1.189-.48-.128 0-.252.016-.373.042-.316.071-.601.229-.83.452l-.153.166-.153-.166c-.317-.307-.739-.494-1.203-.494-.464 0-.886.187-1.204.494l-.153.166-.153-.166c-.317-.307-.74-.494-1.204-.494-.464 0-.886.187-1.204.494l-.153.166-.153-.166c-.317-.307-.739-.494-1.204-.494-.464 0-.886.187-1.204.494l-.152.166-.153-.166c-.239-.231-.538-.394-.87-.46l-.334-.033c-.464 0-.886.187-1.204.494l-.003.003-.149.163-.153-.166c-.317-.307-.74-.494-1.204-.494-.258 0-.504.059-.725.164l.007-.817zm3.82-4.076l.689-1.739h8.647l.689 1.739v2.144l-.146.071-.474.336v-2.441c0-.273-.224-.494-.499-.494-.276 0-.499.221-.499.494v2.461l-.503-.356c-.122-.086-.273-.111-.413-.076v-2.03c0-.273-.223-.494-.499-.494s-.499.221-.499.494v2.631l.006.058-.164.115-.758-.536v-2.268c0-.273-.224-.494-.5-.494s-.499.221-.499.494v2.238l-.8.566-.124-.087.009-.085v-2.631c0-.273-.224-.494-.499-.494-.276 0-.499.221-.499.494v2.042c-.151-.052-.32-.032-.455.064l-.461.326v-2.431c0-.273-.224-.494-.499-.494-.276 0-.499.221-.499.494v2.471l-.516-.365c-.071-.049-.151-.079-.233-.088v-2.127zm4.854-11.615h.317v.571c-.105-.016-.212-.016-.317 0v-.571zm-.112 2.985l.271-.214.273.216c.57 1.094 1.32 2.868 1.514 4.913h-3.574c.195-2.043.946-3.82 1.516-4.915zm11.471.696l.332 3.187h-.663l.331-3.187zm-21.084 23.309h-2.632v-11.262h2.632v2.301l-.009.107-.001.021v3.387l.01.098v5.348zm-2.404-16.897h2.177v2.073h-2.177v-2.073zm.462-2.237h1.252v1.249h-1.252v-1.249zm21.71 5.298h2.632v1.587h-2.632v-1.587zm.228-3.061h2.177v2.073h-2.177v-2.073zm.462-2.237h1.252v1.249h-1.252v-1.249zm-17.908 10.312v2.882h-1.562v-2.882l.01-.097.033-.145c.107-.348.397-.595.738-.595.415 0 .756.367.781.836zm1.931-.836c.415 0 .757.367.781.836v2.882h-1.562v-2.882c.025-.47.366-.836.781-.836zm3.493.836v2.882h-1.562v-2.882c.025-.47.366-.836.781-.836.415 0 .757.367.781.836zm2.712 0v2.882h-1.562v-2.882c.025-.47.366-.836.781-.836.415 0 .757.367.781.836zm2.712 0v2.882h-1.562v-2.882c.025-.47.366-.836.781-.836.415 0 .756.367.781.836zm1.15 2.867v-2.867c.025-.47.366-.836.781-.836.415 0 .757.367.781.836v2.882h-1.562v-.015zm4.222-3.136l.015.048.037.221v2.882h-1.562v-2.882c.025-.47.366-.836.781-.836.332 0 .615.234.729.568zm-21.401-4.745h2.632v1.587h-2.632v-1.587zm25.031 3.684v10.152h-2.632v-5.231l.052-.215v-3.408l-.036-.291.007-1.007.006-1.11h2.603v1.11zm-21.401 5.199h2.051l.076-.007.076.007h2.56l.076-.007.076.007h2.561l.076-.007.076.007h2.56l.076-.007.076.007h2.56l.076-.007.076.007h2.561l.076-.007.076.007h2.009v4.438h-17.771v-4.438zm12.771-14.137h-1.097c-.1-1.154-.359-2.224-.675-3.152.73.841 1.485 1.947 1.771 3.152zm-5.998-3.158c-.316.93-.577 2.001-.677 3.158h-1.099c.275-1.173.994-2.261 1.776-3.158zm-9.088 12.365c-.408 0-.741.318-.76.717v1.827h1.52v-1.827c-.019-.399-.352-.717-.76-.717zm0 3.149c-.408 0-.741.318-.76.717v1.827h1.52v-1.827c-.019-.399-.352-.717-.76-.717zm22.4-3.149c-.408 0-.741.318-.76.717v1.827h1.52v-1.827c-.019-.399-.352-.717-.76-.717zm0 3.149c-.408 0-.741.318-.76.717v1.827h1.52v-1.827c-.019-.399-.352-.717-.76-.717zm-19.113 2.667h.999v2.584h-.999v-2.584zm1.839 0h.999v2.584h-.999v-2.584zm1.839 0h.999v2.584h-.999v-2.584zm1.839 0h.999v2.584h-.999v-2.584zm1.839 0h.999v2.584h-.999v-2.584zm1.839 0h.999v2.584h-.999v-2.584zm1.839 0h.999v2.584h-.999v-2.584zm1.839 0h.999v2.584h-.999v-2.584zm1.839 0h.999v2.584h-.999v-2.584z" fill="#67737B"/><path d="M29.589 19.496v-3.323c0-.174-.091-.326-.228-.413v-2.648c0-.26-.204-.472-.462-.491v-1.747c0-.196-.116-.364-.284-.444l-.844-8.117c-.026-.252-.241-.443-.497-.443s-.47.192-.496.443l-.844 8.117c-.168.08-.284.248-.284.444v1.747c-.258.019-.462.23-.462.491v2.648c-.137.088-.228.24-.228.413v1.793l-.882-.624c-.174-.123-.407-.123-.581 0l-.413.293v-2.694c0-.123-.023-.246-.069-.361l-.877-2.213.03-.161.029-3.932c.002-.273-.22-.495-.496-.497h-.003c-.274 0-.497.219-.499.49l-.006.842c-1.113-2.1-2.995-3.707-3.961-4.441v-1.651c0-.273-.224-.493-.499-.493h-.158v-.841l-.001-.013.057-.104.214-.116c.16-.086.26-.253.26-.433s-.1-.346-.26-.433l-.214-.116-.117-.212c-.088-.159-.256-.257-.438-.257s-.351.098-.438.257l-.117.212-.214.116c-.16.087-.26.253-.26.433s.1.347.26.433l.214.116.057.104-.001.013v.841h-.158c-.276 0-.499.221-.499.493v1.651c-.911.692-2.638 2.161-3.765 4.089l.003-.484c.002-.273-.22-.495-.495-.497-.28-.003-.501.217-.503.49l-.024 3.274c-.031.218-.051.44-.059.664l-.941 2.375c-.046.115-.069.237-.069.361v2.633l-.327-.231c-.174-.123-.407-.123-.581 0l-.968.685v-1.854c0-.174-.091-.326-.228-.413v-2.648c0-.26-.204-.472-.462-.491v-1.747c0-.196-.117-.364-.284-.444l-.844-8.117c-.026-.252-.241-.443-.497-.443s-.47.192-.497.443l-.844 8.117c-.167.08-.284.248-.284.444v1.747c-.258.019-.462.23-.462.491v2.648c-.137.088-.228.24-.228.413v3.323c-.298.171-.499.49-.499.855v10.625c0 .546.447.988.999.988h26.03c.551 0 .998-.442.998-.988v-10.625c0-.365-.201-.684-.499-.855zm-24.714-12.302l.331 3.187h-.662l.331-3.187zm2.367 12.01l1.205-.853.618.437.37.262c.174.123.407.123.581 0l.988-.7.988.699c.174.123.407.123.581 0l.988-.699.988.699c.174.123.407.123.581 0l.977-.692.011-.008.015.011.973.689c.174.123.407.123.581 0l.988-.699.988.699c.174.123.408.123.581 0l.844-.597.144-.102.988.7c.174.123.408.123.581 0l.284-.201.704-.498 1.172.83.029.02-.005.833-.025-.012c-.223-.105-.469-.165-.729-.165-.464 0-.886.187-1.204.494l-.153.166-.153-.166-.015-.014c-.315-.298-.732-.48-1.189-.48-.128 0-.252.016-.373.042-.316.071-.601.229-.83.452l-.153.166-.153-.166c-.317-.307-.739-.494-1.203-.494-.464 0-.886.187-1.204.494l-.153.166-.153-.166c-.317-.307-.74-.494-1.204-.494-.464 0-.886.187-1.204.494l-.153.166-.153-.166c-.317-.307-.739-.494-1.204-.494-.464 0-.886.187-1.204.494l-.152.166-.153-.166c-.239-.231-.538-.394-.87-.46l-.334-.033c-.464 0-.886.187-1.204.494l-.003.003-.149.163-.153-.166c-.317-.307-.74-.494-1.204-.494-.258 0-.504.059-.725.164l.007-.817zm3.82-4.076l.689-1.739h8.647l.689 1.739v2.144l-.146.071-.474.336v-2.441c0-.273-.224-.494-.499-.494-.276 0-.499.221-.499.494v2.461l-.503-.356c-.122-.086-.273-.111-.413-.076v-2.03c0-.273-.223-.494-.499-.494s-.499.221-.499.494v2.631l.006.058-.164.115-.758-.536v-2.268c0-.273-.224-.494-.5-.494s-.499.221-.499.494v2.238l-.8.566-.124-.087.009-.085v-2.631c0-.273-.224-.494-.499-.494-.276 0-.499.221-.499.494v2.042c-.151-.052-.32-.032-.455.064l-.461.326v-2.431c0-.273-.224-.494-.499-.494-.276 0-.499.221-.499.494v2.471l-.516-.365c-.071-.049-.151-.079-.233-.088v-2.127zm4.854-11.615h.317v.571c-.105-.016-.212-.016-.317 0v-.571zm-.112 2.985l.271-.214.273.216c.57 1.094 1.32 2.868 1.514 4.913h-3.574c.195-2.043.946-3.82 1.516-4.915zm11.471.696l.332 3.187h-.663l.331-3.187zm-21.084 23.309h-2.632v-11.262h2.632v2.301l-.009.107-.001.021v3.387l.01.098v5.348zm-2.404-16.897h2.177v2.073h-2.177v-2.073zm.462-2.237h1.252v1.249h-1.252v-1.249zm21.71 5.298h2.632v1.587h-2.632v-1.587zm.228-3.061h2.177v2.073h-2.177v-2.073zm.462-2.237h1.252v1.249h-1.252v-1.249zm-17.908 10.312v2.882h-1.562v-2.882l.01-.097.033-.145c.107-.348.397-.595.738-.595.415 0 .756.367.781.836zm1.931-.836c.415 0 .757.367.781.836v2.882h-1.562v-2.882c.025-.47.366-.836.781-.836zm3.493.836v2.882h-1.562v-2.882c.025-.47.366-.836.781-.836.415 0 .757.367.781.836zm2.712 0v2.882h-1.562v-2.882c.025-.47.366-.836.781-.836.415 0 .757.367.781.836zm2.712 0v2.882h-1.562v-2.882c.025-.47.366-.836.781-.836.415 0 .756.367.781.836zm1.15 2.867v-2.867c.025-.47.366-.836.781-.836.415 0 .757.367.781.836v2.882h-1.562v-.015zm4.222-3.136l.015.048.037.221v2.882h-1.562v-2.882c.025-.47.366-.836.781-.836.332 0 .615.234.729.568zm-21.401-4.745h2.632v1.587h-2.632v-1.587zm25.031 3.684v10.152h-2.632v-5.231l.052-.215v-3.408l-.036-.291.007-1.007.006-1.11h2.603v1.11zm-21.401 5.199h2.051l.076-.007.076.007h2.56l.076-.007.076.007h2.561l.076-.007.076.007h2.56l.076-.007.076.007h2.56l.076-.007.076.007h2.561l.076-.007.076.007h2.009v4.438h-17.771v-4.438zm12.771-14.137h-1.097c-.1-1.154-.359-2.224-.675-3.152.73.841 1.485 1.947 1.771 3.152zm-5.998-3.158c-.316.93-.577 2.001-.677 3.158h-1.099c.275-1.173.994-2.261 1.776-3.158zm-9.088 12.365c-.408 0-.741.318-.76.717v1.827h1.52v-1.827c-.019-.399-.352-.717-.76-.717zm0 3.149c-.408 0-.741.318-.76.717v1.827h1.52v-1.827c-.019-.399-.352-.717-.76-.717zm22.4-3.149c-.408 0-.741.318-.76.717v1.827h1.52v-1.827c-.019-.399-.352-.717-.76-.717zm0 3.149c-.408 0-.741.318-.76.717v1.827h1.52v-1.827c-.019-.399-.352-.717-.76-.717zm-19.113 2.667h.999v2.584h-.999v-2.584zm1.839 0h.999v2.584h-.999v-2.584zm1.839 0h.999v2.584h-.999v-2.584zm1.839 0h.999v2.584h-.999v-2.584zm1.839 0h.999v2.584h-.999v-2.584zm1.839 0h.999v2.584h-.999v-2.584zm1.839 0h.999v2.584h-.999v-2.584zm1.839 0h.999v2.584h-.999v-2.584zm1.839 0h.999v2.584h-.999v-2.584z" fill="#3A434E"/></g></g></svg>