<svg width="32" height="232" viewBox="0 0 32 232" xmlns="http://www.w3.org/2000/svg" xmlns:sketch="http://www.bohemiancoding.com/sketch/ns"><title>buenos-aires</title><desc>Created with Sketch.</desc><g sketch:type="MSPage" fill="none"><g sketch:type="MSShapeGroup"><path d="M31.516 147.766c-.281 0-.401-.051-.568-.12l-.164-.066.022-.214c0-.559-.423-1.012-.943-1.012h-2.31v-5.997l2.529-2.214c.376-.329.458-.91.189-1.344-.269-.433-.8-.578-1.228-.333l-1.489.849v-2.595c0-.28-.211-.506-.472-.506h-1.013v-1.664c0-1.774-1.566-3.204-2.147-3.673v-1.187c.141-.091.228-.254.228-.432 0-.184-.095-.355-.246-.444l-.026-.015-.014-.027c-.083-.162-.241-.263-.414-.263-.172 0-.331.101-.414.263l-.014.027-.026.015c-.151.089-.245.259-.245.444 0 .177.087.341.228.432v1.187c-.127.103-.301.251-.496.44h-.321c.052-.159.082-.328.082-.506 0-.837-.635-1.518-1.415-1.518h-5.613c-.344 0-.676.135-.935.38-.305.288-.48.703-.48 1.137 0 .435.175.849.48 1.137.259.245.591.38.935.38h1.555l-.031.287c0 .371.15.726.411.973.222.21.506.324.8.324h2.948c-.042.207-.067.419-.067.637v4.15h-.639v-1.981c0-.28-.211-.506-.472-.506h-.554v-1.229c0-.279-.211-.506-.472-.506-.26 0-.472.227-.472.506v1.229h-.554c-.26 0-.472.226-.472.506v1.981h-1.276v-.928c0-.279-.211-.506-.472-.506h-1.82c-.261 0-.472.227-.472.506v.928h-.794c-.26 0-.472.227-.472.506v8.415c-.256.07-.526.138-.807.204l-.391-19.364c-.004-.203-.065-.4-.175-.566l-1.208-1.813c-.176-.264-.461-.422-.764-.423h-.003c-.303 0-.587.155-.764.418l-1.225 1.812c-.113.167-.175.366-.179.571l-.027 1.326h-3.225c-.165 0-.299-.144-.299-.321 0-.177.134-.321.299-.321.261 0 .472-.227.472-.506s-.211-.506-.472-.506c-.685 0-1.242.597-1.242 1.332 0 .734.557 1.332 1.242 1.332h3.204l-.01.504h-1.714c-.26 0-.472.227-.472.506s.211.505.472.505h1.693l-.324 16.039h-3.054c-.521 0-.943.453-.943 1.012 0 .141.027.275.076.398l-.103.002c-.28 0-.401-.051-.567-.12-.201-.084-.452-.189-.911-.189-.261 0-.472.227-.472.506s.211.506.472.506c.281 0 .401.051.567.12.202.084.452.189.911.189.458 0 .709-.105.911-.189.166-.07.286-.12.567-.12.281 0 .401.051.567.12.202.084.452.189.911.189.458 0 .709-.105.911-.189.166-.07.287-.12.568-.12.28 0 .401.051.567.12.202.084.452.189.911.189.458 0 .709-.105.911-.189.167-.07.287-.12.568-.12.281 0 .401.051.568.12.202.084.452.189.91.189.459 0 .709-.105.911-.189.166-.07.286-.12.567-.12.281 0 .401.051.567.12.202.084.453.189.911.189s.709-.105.911-.189c.167-.07.287-.12.567-.12.281 0 .401.051.568.12.201.084.452.189.911.189.458 0 .709-.105.911-.189.166-.07.287-.12.567-.12.281 0 .401.051.567.12.202.084.453.189.911.189s.709-.105.911-.189c.166-.07.286-.12.567-.12.281 0 .401.051.568.12.202.084.452.189.911.189s.709-.105.911-.189c.167-.07.287-.12.568-.12.28 0 .401.051.568.12.201.084.452.189.91.189.459 0 .71-.105.911-.189.167-.07.287-.12.568-.12.281 0 .401.051.568.12.202.084.452.189.911.189s.71-.105.912-.189c.166-.07.287-.12.568-.12.281 0 .401.051.568.12.202.084.452.189.911.189.26 0 .472-.227.472-.506s-.211-.506-.472-.506zm-23.331-17.451l.071-3.493.282-.418.276.414.391 19.357c-.434.06-.883.108-1.343.139l.323-16zm9.497.301c0-.112.057-.182.091-.215.035-.033.094-.072.177-.072h.002c.261 0 .472-.227.472-.506s-.211-.506-.472-.506h-2.738c-.146 0-.25-.069-.311-.127-.104-.098-.161-.233-.161-.379 0-.147.057-.281.161-.379.086-.082.197-.127.311-.127h5.613c.26 0 .472.227.472.506s-.212.506-.472.506-.472.227-.472.506h-.002c0 .279.211.506.472.506h.788c-.125.179-.243.371-.348.573h-3.315c-.083 0-.141-.04-.176-.072-.034-.032-.091-.103-.091-.215zm4.191 1.298c.052-.173.122-.343.206-.505.091-.177.196-.346.309-.506.107-.151.22-.292.335-.423l.341-.362.359-.328.027-.023c.455.385 1.367 1.26 1.613 2.279h-3.226l.037-.131zm-2.625 3.312v6.823l-1.108.631v-7.454h1.108zm.006 9.11l.466-.266.006-.003.466-.265.006-.004.28-.159.042-.024.43-.244.042-.024.43-.245.038-.021-.038.033-.43.377-.042.036-.43.376-.042.037-.28.245-.006.004-.466.408-.006.005-.466.407-.006.005-1.181 1.034-.349.305h-2.004l.207-.118.095-.054 1.108-.632.073-.041.399-.228.073-.042.399-.227.073-.042 1.108-.632.006-.003zm.943 2.459l.28-.245v.358h-.28v-.113zm1.266-.442v-.666l.876-.767v1.987h-.876v-.555zm1.915 0v-2.342l1.108-.97v3.866h-1.108v-.555zm-1.038-8.641v2.574l-.876.499v-3.323l.876-.69v.94zm2.146 1.351l-1.108.631v-1.982h1.108v1.351zm-9.507 5.419l-.292.166-.584.245v-8.614h.876v8.203zm11.631 1.871v.555h-1.108v-4.756l1.108-.969v5.171zm0-8.501l-1.108.631v-3.258h1.108v2.627zm-6.412-.14h.28v3.635l-.28.159v-3.794zm-4.181 0h1.108v5.547l-1.108.631v-6.178zm-3.18 0h.279v7.539l-.279.091v-7.63zm12.194-3.498c-.26 0-.472.226-.472.506v1.981h-1.276v-.928c0-.19-.1-.365-.259-.451-.158-.086-.349-.07-.492.043l-.757.597v-2.905h3.35v1.157h-.095z" fill="#206FAC"/><path d="M31.516 107.766c-.281 0-.401-.051-.568-.12l-.164-.066.022-.214c0-.559-.423-1.012-.943-1.012h-2.31v-5.997l2.529-2.214c.376-.329.458-.91.189-1.344-.269-.433-.8-.578-1.228-.333l-1.489.849v-2.595c0-.28-.211-.506-.472-.506h-1.013v-1.664c0-1.774-1.566-3.204-2.147-3.673v-1.187c.141-.091.228-.254.228-.432 0-.184-.095-.355-.246-.444l-.026-.015-.014-.027c-.083-.162-.241-.263-.414-.263-.172 0-.331.101-.414.263l-.014.027-.026.015c-.151.089-.245.259-.245.444 0 .177.087.341.228.432v1.187c-.127.103-.301.251-.496.44h-.321c.052-.159.082-.328.082-.506 0-.837-.635-1.518-1.415-1.518h-5.613c-.344 0-.676.135-.935.38-.305.288-.48.703-.48 1.137 0 .435.175.849.48 1.137.259.245.591.38.935.38h1.555l-.031.287c0 .371.15.726.411.973.222.21.506.324.8.324h2.948c-.042.207-.067.419-.067.637v4.15h-.639v-1.981c0-.28-.211-.506-.472-.506h-.554v-1.229c0-.279-.211-.506-.472-.506-.26 0-.472.227-.472.506v1.229h-.554c-.26 0-.472.226-.472.506v1.981h-1.276v-.928c0-.279-.211-.506-.472-.506h-1.82c-.261 0-.472.227-.472.506v.928h-.794c-.26 0-.472.227-.472.506v8.415c-.256.07-.526.138-.807.204l-.391-19.364c-.004-.203-.065-.4-.175-.566l-1.208-1.813c-.176-.264-.461-.422-.764-.423h-.003c-.303 0-.587.155-.764.418l-1.225 1.812c-.113.167-.175.366-.179.571l-.027 1.326h-3.225c-.165 0-.299-.144-.299-.321 0-.177.134-.321.299-.321.261 0 .472-.227.472-.506s-.211-.506-.472-.506c-.685 0-1.242.597-1.242 1.332 0 .734.557 1.332 1.242 1.332h3.204l-.01.504h-1.714c-.26 0-.472.227-.472.506s.211.505.472.505h1.693l-.324 16.039h-3.054c-.521 0-.943.453-.943 1.012 0 .141.027.275.076.398l-.103.002c-.28 0-.401-.051-.567-.12-.201-.084-.452-.189-.911-.189-.261 0-.472.227-.472.506s.211.506.472.506c.281 0 .401.051.567.12.202.084.452.189.911.189.458 0 .709-.105.911-.189.166-.07.286-.12.567-.12.281 0 .401.051.567.12.202.084.452.189.911.189.458 0 .709-.105.911-.189.166-.07.287-.12.568-.12.28 0 .401.051.567.12.202.084.452.189.911.189.458 0 .709-.105.911-.189.167-.07.287-.12.568-.12.281 0 .401.051.568.12.202.084.452.189.91.189.459 0 .709-.105.911-.189.166-.07.286-.12.567-.12.281 0 .401.051.567.12.202.084.453.189.911.189s.709-.105.911-.189c.167-.07.287-.12.567-.12.281 0 .401.051.568.12.201.084.452.189.911.189.458 0 .709-.105.911-.189.166-.07.287-.12.567-.12.281 0 .401.051.567.12.202.084.453.189.911.189s.709-.105.911-.189c.166-.07.286-.12.567-.12.281 0 .401.051.568.12.202.084.452.189.911.189s.709-.105.911-.189c.167-.07.287-.12.568-.12.28 0 .401.051.568.12.201.084.452.189.91.189.459 0 .71-.105.911-.189.167-.07.287-.12.568-.12.281 0 .401.051.568.12.202.084.452.189.911.189s.71-.105.912-.189c.166-.07.287-.12.568-.12.281 0 .401.051.568.12.202.084.452.189.911.189.26 0 .472-.227.472-.506s-.211-.506-.472-.506zm-23.331-17.451l.071-3.493.282-.418.276.414.391 19.357c-.434.06-.883.108-1.343.139l.323-16zm9.497.301c0-.112.057-.182.091-.215.035-.033.094-.072.177-.072h.002c.261 0 .472-.227.472-.506s-.211-.506-.472-.506h-2.738c-.146 0-.25-.069-.311-.127-.104-.098-.161-.233-.161-.379 0-.147.057-.281.161-.379.086-.082.197-.127.311-.127h5.613c.26 0 .472.227.472.506s-.212.506-.472.506-.472.227-.472.506h-.002c0 .279.211.506.472.506h.788c-.125.179-.243.371-.348.573h-3.315c-.083 0-.141-.04-.176-.072-.034-.032-.091-.103-.091-.215zm4.191 1.298c.052-.173.122-.343.206-.505.091-.177.196-.346.309-.506.107-.151.22-.292.335-.423l.341-.362.359-.328.027-.023c.455.385 1.367 1.26 1.613 2.279h-3.226l.037-.131zm-2.625 3.312v6.823l-1.108.631v-7.454h1.108zm.006 9.11l.466-.266.006-.003.466-.265.006-.004.28-.159.042-.024.43-.244.042-.024.43-.245.038-.021-.038.033-.43.377-.042.036-.43.376-.042.037-.28.245-.006.004-.466.408-.006.005-.466.407-.006.005-1.181 1.034-.349.305h-2.004l.207-.118.095-.054 1.108-.632.073-.041.399-.228.073-.042.399-.227.073-.042 1.108-.632.006-.003zm.943 2.459l.28-.245v.358h-.28v-.113zm1.266-.442v-.666l.876-.767v1.987h-.876v-.555zm1.915 0v-2.342l1.108-.97v3.866h-1.108v-.555zm-1.038-8.641v2.574l-.876.499v-3.323l.876-.69v.94zm2.146 1.351l-1.108.631v-1.982h1.108v1.351zm-9.507 5.419l-.292.166-.584.245v-8.614h.876v8.203zm11.631 1.871v.555h-1.108v-4.756l1.108-.969v5.171zm0-8.501l-1.108.631v-3.258h1.108v2.627zm-6.412-.14h.28v3.635l-.28.159v-3.794zm-4.181 0h1.108v5.547l-1.108.631v-6.178zm-3.18 0h.279v7.539l-.279.091v-7.63zm12.194-3.498c-.26 0-.472.226-.472.506v1.981h-1.276v-.928c0-.19-.1-.365-.259-.451-.158-.086-.349-.07-.492.043l-.757.597v-2.905h3.35v1.157h-.095z" fill="#fff"/><path d="M31.516 67.766c-.281 0-.401-.051-.568-.12l-.164-.066.022-.214c0-.559-.423-1.012-.943-1.012h-2.31v-5.997l2.529-2.214c.376-.329.458-.91.189-1.344-.269-.433-.8-.578-1.228-.333l-1.489.849v-2.595c0-.28-.211-.506-.472-.506h-1.013v-1.664c0-1.774-1.566-3.204-2.147-3.673v-1.187c.141-.091.228-.254.228-.432 0-.184-.095-.355-.246-.444l-.026-.015-.014-.027c-.083-.162-.241-.263-.414-.263-.172 0-.331.101-.414.263l-.014.027-.026.015c-.151.089-.245.259-.245.444 0 .177.087.341.228.432v1.187c-.127.103-.301.251-.496.44h-.321c.052-.159.082-.328.082-.506 0-.837-.635-1.518-1.415-1.518h-5.613c-.344 0-.676.135-.935.38-.305.288-.48.703-.48 1.137 0 .435.175.849.48 1.137.259.245.591.38.935.38h1.555l-.031.287c0 .371.15.726.411.973.222.21.506.324.8.324h2.948c-.042.207-.067.419-.067.637v4.15h-.639v-1.981c0-.28-.211-.506-.472-.506h-.554v-1.229c0-.279-.211-.506-.472-.506-.26 0-.472.227-.472.506v1.229h-.554c-.26 0-.472.226-.472.506v1.981h-1.276v-.928c0-.279-.211-.506-.472-.506h-1.82c-.261 0-.472.227-.472.506v.928h-.794c-.26 0-.472.227-.472.506v8.415c-.256.07-.526.138-.807.204l-.391-19.364c-.004-.203-.065-.4-.175-.566l-1.208-1.813c-.176-.264-.461-.422-.764-.423h-.003c-.303 0-.587.155-.764.418l-1.225 1.812c-.113.167-.175.366-.179.571l-.027 1.326h-3.225c-.165 0-.299-.144-.299-.321 0-.177.134-.321.299-.321.261 0 .472-.227.472-.506s-.211-.506-.472-.506c-.685 0-1.242.597-1.242 1.332 0 .734.557 1.332 1.242 1.332h3.204l-.01.504h-1.714c-.26 0-.472.227-.472.506s.211.505.472.505h1.693l-.324 16.039h-3.054c-.521 0-.943.453-.943 1.012 0 .141.027.275.076.398l-.103.002c-.28 0-.401-.051-.567-.12-.201-.084-.452-.189-.911-.189-.261 0-.472.227-.472.506s.211.506.472.506c.281 0 .401.051.567.12.202.084.452.189.911.189.458 0 .709-.105.911-.189.166-.07.286-.12.567-.12.281 0 .401.051.567.12.202.084.452.189.911.189.458 0 .709-.105.911-.189.166-.07.287-.12.568-.12.28 0 .401.051.567.12.202.084.452.189.911.189.458 0 .709-.105.911-.189.167-.07.287-.12.568-.12.281 0 .401.051.568.12.202.084.452.189.91.189.459 0 .709-.105.911-.189.166-.07.286-.12.567-.12.281 0 .401.051.567.12.202.084.453.189.911.189s.709-.105.911-.189c.167-.07.287-.12.567-.12.281 0 .401.051.568.12.201.084.452.189.911.189.458 0 .709-.105.911-.189.166-.07.287-.12.567-.12.281 0 .401.051.567.12.202.084.453.189.911.189s.709-.105.911-.189c.166-.07.286-.12.567-.12.281 0 .401.051.568.12.202.084.452.189.911.189s.709-.105.911-.189c.167-.07.287-.12.568-.12.28 0 .401.051.568.12.201.084.452.189.91.189.459 0 .71-.105.911-.189.167-.07.287-.12.568-.12.281 0 .401.051.568.12.202.084.452.189.911.189s.71-.105.912-.189c.166-.07.287-.12.568-.12.281 0 .401.051.568.12.202.084.452.189.911.189.26 0 .472-.227.472-.506s-.211-.506-.472-.506zm-23.331-17.451l.071-3.493.282-.418.276.414.391 19.357c-.434.06-.883.108-1.343.139l.323-16zm9.497.301c0-.112.057-.182.091-.215.035-.033.094-.072.177-.072h.002c.261 0 .472-.227.472-.506s-.211-.506-.472-.506h-2.738c-.146 0-.25-.069-.311-.127-.104-.098-.161-.233-.161-.379 0-.147.057-.281.161-.379.086-.082.197-.127.311-.127h5.613c.26 0 .472.227.472.506s-.212.506-.472.506-.472.227-.472.506h-.002c0 .279.211.506.472.506h.788c-.125.179-.243.371-.348.573h-3.315c-.083 0-.141-.04-.176-.072-.034-.032-.091-.103-.091-.215zm4.191 1.298c.052-.173.122-.343.206-.505.091-.177.196-.346.309-.506.107-.151.22-.292.335-.423l.341-.362.359-.328.027-.023c.455.385 1.367 1.26 1.613 2.279h-3.226l.037-.131zm-2.625 3.312v6.823l-1.108.631v-7.454h1.108zm.006 9.11l.466-.266.006-.003.466-.265.006-.004.28-.159.042-.024.43-.244.042-.024.43-.245.038-.021-.038.033-.43.377-.042.036-.43.376-.042.037-.28.245-.006.004-.466.408-.006.005-.466.407-.006.005-1.181 1.034-.349.305h-2.004l.207-.118.095-.054 1.108-.632.073-.041.399-.228.073-.042.399-.227.073-.042 1.108-.632.006-.003zm.943 2.459l.28-.245v.358h-.28v-.113zm1.266-.442v-.666l.876-.767v1.987h-.876v-.555zm1.915 0v-2.342l1.108-.97v3.866h-1.108v-.555zm-1.038-8.641v2.574l-.876.499v-3.323l.876-.69v.94zm2.146 1.351l-1.108.631v-1.982h1.108v1.351zm-9.507 5.419l-.292.166-.584.245v-8.614h.876v8.203zm11.631 1.871v.555h-1.108v-4.756l1.108-.969v5.171zm0-8.501l-1.108.631v-3.258h1.108v2.627zm-6.412-.14h.28v3.635l-.28.159v-3.794zm-4.181 0h1.108v5.547l-1.108.631v-6.178zm-3.18 0h.279v7.539l-.279.091v-7.63zm12.194-3.498c-.26 0-.472.226-.472.506v1.981h-1.276v-.928c0-.19-.1-.365-.259-.451-.158-.086-.349-.07-.492.043l-.757.597v-2.905h3.35v1.157h-.095z" fill="#67737B"/><path d="M31.516 27.766c-.281 0-.401-.051-.568-.12l-.164-.066.022-.214c0-.559-.423-1.012-.943-1.012h-2.31v-5.997l2.529-2.214c.376-.329.458-.91.189-1.344-.269-.433-.8-.578-1.228-.333l-1.489.849v-2.595c0-.28-.211-.506-.472-.506h-1.013v-1.664c0-1.774-1.566-3.204-2.147-3.673v-1.187c.141-.091.228-.254.228-.432 0-.184-.095-.355-.246-.444l-.026-.015-.014-.027c-.083-.162-.241-.263-.414-.263-.172 0-.331.101-.414.263l-.014.027-.026.015c-.151.089-.245.259-.245.444 0 .177.087.341.228.432v1.187c-.127.103-.301.251-.496.44h-.321c.052-.159.082-.328.082-.506 0-.837-.635-1.518-1.415-1.518h-5.613c-.344 0-.676.135-.935.38-.305.288-.48.703-.48 1.137 0 .435.175.849.48 1.137.259.245.591.38.935.38h1.555l-.031.287c0 .371.15.726.411.973.222.21.506.324.8.324h2.948c-.042.207-.067.419-.067.637v4.15h-.639v-1.981c0-.28-.211-.506-.472-.506h-.554v-1.229c0-.279-.211-.506-.472-.506-.26 0-.472.227-.472.506v1.229h-.554c-.26 0-.472.226-.472.506v1.981h-1.276v-.928c0-.279-.211-.506-.472-.506h-1.82c-.261 0-.472.227-.472.506v.928h-.794c-.26 0-.472.227-.472.506v8.415c-.256.07-.526.138-.807.204l-.391-19.364c-.004-.203-.065-.4-.175-.566l-1.208-1.813c-.176-.264-.461-.422-.764-.423h-.003c-.303 0-.587.155-.764.418l-1.225 1.812c-.113.167-.175.366-.179.571l-.027 1.326h-3.225c-.165 0-.299-.144-.299-.321 0-.177.134-.321.299-.321.261 0 .472-.227.472-.506s-.211-.506-.472-.506c-.685 0-1.242.597-1.242 1.332 0 .734.557 1.332 1.242 1.332h3.204l-.01.504h-1.714c-.26 0-.472.227-.472.506s.211.505.472.505h1.693l-.324 16.039h-3.054c-.521 0-.943.453-.943 1.012 0 .141.027.275.076.398l-.103.002c-.28 0-.401-.051-.567-.12-.201-.084-.452-.189-.911-.189-.261 0-.472.227-.472.506s.211.506.472.506c.281 0 .401.051.567.12.202.084.452.189.911.189.458 0 .709-.105.911-.189.166-.07.286-.12.567-.12.281 0 .401.051.567.12.202.084.452.189.911.189.458 0 .709-.105.911-.189.166-.07.287-.12.568-.12.28 0 .401.051.567.12.202.084.452.189.911.189.458 0 .709-.105.911-.189.167-.07.287-.12.568-.12.281 0 .401.051.568.12.202.084.452.189.91.189.459 0 .709-.105.911-.189.166-.07.286-.12.567-.12.281 0 .401.051.567.12.202.084.453.189.911.189s.709-.105.911-.189c.167-.07.287-.12.567-.12.281 0 .401.051.568.12.201.084.452.189.911.189.458 0 .709-.105.911-.189.166-.07.287-.12.567-.12.281 0 .401.051.567.12.202.084.453.189.911.189s.709-.105.911-.189c.166-.07.286-.12.567-.12.281 0 .401.051.568.12.202.084.452.189.911.189s.709-.105.911-.189c.167-.07.287-.12.568-.12.28 0 .401.051.568.12.201.084.452.189.91.189.459 0 .71-.105.911-.189.167-.07.287-.12.568-.12.281 0 .401.051.568.12.202.084.452.189.911.189s.71-.105.912-.189c.166-.07.287-.12.568-.12.281 0 .401.051.568.12.202.084.452.189.911.189.26 0 .472-.227.472-.506s-.211-.506-.472-.506zm-23.331-17.451l.071-3.493.282-.418.276.414.391 19.357c-.434.06-.883.108-1.343.139l.323-16zm9.497.301c0-.112.057-.182.091-.215.035-.033.094-.072.177-.072h.002c.261 0 .472-.227.472-.506s-.211-.506-.472-.506h-2.738c-.146 0-.25-.069-.311-.127-.104-.098-.161-.233-.161-.379 0-.147.057-.281.161-.379.086-.082.197-.127.311-.127h5.613c.26 0 .472.227.472.506s-.212.506-.472.506-.472.227-.472.506h-.002c0 .279.211.506.472.506h.788c-.125.179-.243.371-.348.573h-3.315c-.083 0-.141-.04-.176-.072-.034-.032-.091-.103-.091-.215zm4.191 1.298c.052-.173.122-.343.206-.505.091-.177.196-.346.309-.506.107-.151.22-.292.335-.423l.341-.362.359-.328.027-.023c.455.385 1.367 1.26 1.613 2.279h-3.226l.037-.131zm-2.625 3.312v6.823l-1.108.631v-7.454h1.108zm.006 9.11l.466-.266.006-.003.466-.265.006-.004.28-.159.042-.024.43-.244.042-.024.43-.245.038-.021-.038.033-.43.377-.042.036-.43.376-.042.037-.28.245-.006.004-.466.408-.006.005-.466.407-.006.005-1.181 1.034-.349.305h-2.004l.207-.118.095-.054 1.108-.632.073-.041.399-.228.073-.042.399-.227.073-.042 1.108-.632.006-.003zm.943 2.459l.28-.245v.358h-.28v-.113zm1.266-.442v-.666l.876-.767v1.987h-.876v-.555zm1.915 0v-2.342l1.108-.97v3.866h-1.108v-.555zm-1.038-8.641v2.574l-.876.499v-3.323l.876-.69v.94zm2.146 1.351l-1.108.631v-1.982h1.108v1.351zm-9.507 5.419l-.292.166-.584.245v-8.614h.876v8.203zm11.631 1.871v.555h-1.108v-4.756l1.108-.969v5.171zm0-8.501l-1.108.631v-3.258h1.108v2.627zm-6.412-.14h.28v3.635l-.28.159v-3.794zm-4.181 0h1.108v5.547l-1.108.631v-6.178zm-3.18 0h.279v7.539l-.279.091v-7.63zm12.194-3.498c-.26 0-.472.226-.472.506v1.981h-1.276v-.928c0-.19-.1-.365-.259-.451-.158-.086-.349-.07-.492.043l-.757.597v-2.905h3.35v1.157h-.095z" fill="#3A434E"/></g></g></svg>