<svg width="32" height="232" viewBox="0 0 32 232" xmlns="http://www.w3.org/2000/svg"><title>plovdiv-bulgaria</title><desc>Created with Sketch.</desc><g fill="none"><path d="M18.238 121.37c.095.094.226.147.36.147.136 0 .265-.053.36-.147.155-.153.193-.387.095-.58-.075-.148-.217-.248-.38-.272-.156-.023-.32.03-.433.14-.156.153-.195.39-.095.583l.093.128zm-4.843 1.602l.422.228.23.417c.09.16.26.26.446.26s.356-.1.445-.26l.23-.417.423-.228c.164-.088.265-.257.265-.44s-.1-.352-.264-.44l-.42-.228-.232-.417c-.09-.16-.26-.26-.445-.26-.186 0-.356.1-.445.26l-.23.417-.423.228c-.163.088-.264.257-.264.44s.102.352.265.44zm17.59 26.392h-.297v-5.575h.004c.28 0 .508-.226.508-.502 0-.277-.227-.502-.508-.502h-.004v-4.347h.004c.28 0 .508-.225.508-.502s-.227-.5-.508-.5h-.004v-1.257c0-.276-.227-.5-.508-.5h-5.76v-1.035h.15c.28 0 .51-.224.51-.5s-.228-.502-.51-.502h-.285c-.14-.24-.38-.42-.665-.48l-.364-1.114c-.068-.208-.263-.35-.483-.35h-5.12c-.205-.654-.823-1.13-1.552-1.13s-1.346.477-1.55 1.13H9.67c-.22 0-.416.14-.483.35l-.364 1.114c-.284.06-.524.238-.665.48h-.286c-.28 0-.508.224-.508.5 0 .277.227.5.508.5h.15v1.036H5.423v-4.135h.2c.28 0 .508-.224.508-.5s-.227-.502-.508-.502H5.43l-.183-.957h25.14c.28 0 .508-.224.508-.5s-.227-.502-.508-.502h-.172l-.11-.126-1.46-1.165-.728-1.63-.02-.04c-.225-.397-.555-.903-.852-1.064-.157-.097-1.025-.82-1.773-1.462-.12-.104-.285-.145-.442-.112l-1.496.324-.19.085-1.242.894-1.263-.33c-.2-.052-.413.02-.537.185l-1.21 1.6-.94.67h-.795c-.09 0-.18.024-.258.07l-.838.49h-2.37l-.808-.42-.288-.65c-.106-.238-.38-.356-.63-.272L9.7 126.4l-1.363-.26-1.404-.72c-.15-.076-.33-.074-.48.007l-1.812.986-1.07-5.6c-.045-.237-.255-.408-.5-.408s-.453.17-.498.408l-1.466 7.668-.313.104h-.15c-.28 0-.508.224-.508.5s.227.502.508.502h.252l-.183.957H.518c-.28 0-.508.224-.508.5s.227.502.508.502h.2v6.81h-.2c-.28 0-.508.225-.508.502s.227.5.508.5h.2v10.326c-.17.18-.275.42-.275.684 0 .554.455 1.003 1.015 1.003h29.528c.56 0 1.015-.45 1.015-1.003 0-.554-.454-1.003-1.014-1.003zM3.07 136.582h.772v-2.722c-.02-.405-.358-.728-.773-.728-.416 0-.755.323-.774.728v2.722h.773zm-1.144-6.998l.065-.34.032-.162.002-.01.094-.49.004-.02.947-4.956 1.04 5.45.006.026.28 1.46H1.742l.183-.958zm2.973-2.186l.11-.045 1.693-.92 1.228.63.14.047 1.568.296c.087.017.176.01.26-.018l1.952-.66.172.387c.046.104.127.19.23.242l1.076.56c.073.037.154.056.236.056h2.633c.09 0 .18-.024.258-.07l.838-.49h.82c.106 0 .21-.032.296-.094l1.136-.81.11-.107 1.052-1.392 1.165.304c.148.038.305.01.43-.08l1.35-.973 1.142-.246c.613.524 1.484 1.257 1.734 1.405.086.073.302.382.464.665l.768 1.72c.032.072.082.136.145.187l.736.587H5.053l-.224-1.166.067-.018zm-3.17 4.146H4.41v6.81H1.73v-6.81zm8.32 4.135v-.534h3.31v5.208h-3.31v-4.674zm-.154-2.54l.143-.437h4.438v.94H9.733l.164-.502zm5.597-.97c0-.19.09-.36.232-.47.103-.08.234-.13.376-.13s.273.05.377.13c.14.11.232.28.232.47l.002.032.032.153v1.552h-1.25v-1.736zm7.216 1.472h-4.95v-.94h4.643l.306.94zm6.962 15.722h-.738v-4.773h-1.35v4.774h-1.012v-4.773h-1.35v4.774h-.8v-5.59h3.748l.116.015h1.386v5.574zm-8.8-2.916c-.415 0-.754.323-.773.728v2.188h-1.02v-2.085l.013-.11c0-1.01.833-1.834 1.857-1.834.58 0 1.1.264 1.44.677v3.35h-.745v-2.187c-.02-.405-.358-.728-.773-.728zM5.987 144.59v4.774h-.565v-5.59H8.02v5.59h-.684v-4.773h-1.35zm-.565-5.23h.2c.28 0 .508-.225.508-.502 0-.185-.102-.344-.253-.43H8.02v4.346h-.684v-2.98h-1.35v2.98h-.564v-3.414zm8.953-.934v-3.28h3.69v5.208h-3.69v-1.928zm1.845 8.022c-.415 0-.754.323-.773.728v2.188h-1.072v-2.404c.106-.913.892-1.625 1.844-1.625.952 0 1.738.712 1.844 1.626v2.404h-1.07v-2.188c-.02-.405-.36-.728-.774-.728zm-4.652 0c-.415 0-.754.323-.773.728v2.188h-.745v-3.334c.34-.422.865-.694 1.453-.694.97 0 1.767.738 1.85 1.675l-.006.16.013.11v2.085h-1.02v-2.188c-.018-.405-.357-.728-.772-.728zm-1.518-2.275c.125-.155.275-.29.444-.398.29-.186.637-.296 1.01-.296.37 0 .717.11 1.007.295.42.27.724.7.818 1.205-.497-.405-1.133-.648-1.825-.648-.53 0-1.026.143-1.453.39v-.55zm5.162-.398c.29-.186.637-.296 1.008-.296.372 0 .718.11 1.008.295.42.27.723.7.817 1.205-.497-.405-1.133-.648-1.825-.648-.693 0-1.33.243-1.825.648.094-.504.397-.936.817-1.205zm4.73 0c.29-.186.637-.296 1.008-.296.372 0 .718.11 1.008.295.163.105.31.233.43.38v.56c-.423-.242-.914-.382-1.44-.382-.692 0-1.328.243-1.824.648.094-.503.397-.935.817-1.204zm2.448-1.003v.087l-.164-.088c-.385-.19-.818-.296-1.276-.296-.458 0-.89.107-1.276.296-.215.106-.414.237-.595.39v-1.806h3.31v1.416zm-4.325-1.416v1.784c-.174-.144-.364-.268-.57-.368-.384-.19-.817-.296-1.275-.296-.458 0-.89.107-1.276.296-.205.1-.395.224-.57.368v-1.784h3.69zm-4.704 1.416v.38c-.176-.15-.37-.277-.58-.38-.386-.19-.82-.296-1.277-.296-.458 0-.89.107-1.276.296l-.177.095v-1.51h3.31v1.415zm16.313 0h-.738v-2.98h-1.35v2.98h-1.012v-2.98h-1.35v2.98h-.8v-4.347h3.748l.117.014h1.386v4.33zm-5.25-6.09h5.25v.74h-5.25v-.74zm-2.032-1.003v4.673h-3.31v-5.208h3.31v.533zM5.424 136.68H8.02v.74H5.423v-.74zm-2.86 2.676h1.845v10.006h-.565v-2.188c-.01-.215-.11-.407-.265-.54-.136-.116-.313-.188-.508-.188s-.372.072-.508.19c-.154.132-.255.323-.265.538v2.188h-.565v-10.006h.83zm13.96-2.676c-.096-.027-.197-.042-.302-.042-.104 0-.205.015-.3.042-.364.102-.65.383-.754.74-.028.097-.044.198-.044.303l.02.2c.035.188.12.36.24.5.202.236.502.385.838.385.336 0 .637-.15.838-.384.12-.14.206-.313.24-.502l.02-.2c0-.104-.016-.205-.044-.3-.105-.36-.39-.64-.753-.742zm-4.078 1.744v-2.245H10.9v3.14h1.545v-.894zm9.012 0v-2.245H19.91v3.14h1.547v-.894" fill="#206FAC"/><path d="M18.238 81.37c.095.094.226.147.36.147.136 0 .265-.053.36-.147.155-.153.193-.387.095-.58-.075-.148-.217-.248-.38-.272-.156-.023-.32.03-.433.14-.156.153-.195.39-.095.583l.093.128zm-4.843 1.602l.422.228.23.417c.09.16.26.26.446.26s.356-.1.445-.26l.23-.417.423-.228c.164-.088.265-.257.265-.44s-.1-.352-.264-.44l-.42-.228-.232-.417c-.09-.16-.26-.26-.445-.26-.186 0-.356.1-.445.26l-.23.417-.423.228c-.163.088-.264.257-.264.44s.102.352.265.44zm17.59 26.392h-.297v-5.575h.004c.28 0 .508-.226.508-.502 0-.277-.227-.502-.508-.502h-.004V98.44h.004c.28 0 .508-.225.508-.502s-.227-.5-.508-.5h-.004V96.18c0-.276-.227-.5-.508-.5h-5.76v-1.035h.15c.28 0 .51-.224.51-.5s-.228-.502-.51-.502h-.285c-.14-.24-.38-.42-.665-.48l-.364-1.114c-.068-.208-.263-.35-.483-.35h-5.12c-.205-.654-.823-1.13-1.552-1.13s-1.346.477-1.55 1.13H9.67c-.22 0-.416.14-.483.35l-.364 1.114c-.284.06-.524.238-.665.48h-.286c-.28 0-.508.224-.508.5 0 .277.227.5.508.5h.15v1.036H5.423v-4.135h.2c.28 0 .508-.224.508-.5s-.227-.502-.508-.502H5.43l-.183-.957h25.14c.28 0 .508-.224.508-.5s-.227-.502-.508-.502h-.172l-.11-.126-1.46-1.165-.728-1.63-.02-.04c-.225-.397-.555-.903-.852-1.064-.157-.097-1.025-.82-1.773-1.462-.12-.104-.285-.145-.442-.112l-1.496.324-.19.085-1.242.894-1.263-.33c-.2-.052-.413.02-.537.185l-1.21 1.6-.94.67h-.795c-.09 0-.18.024-.258.07l-.838.49h-2.37l-.808-.42-.288-.65c-.106-.238-.38-.356-.63-.272L9.7 86.4l-1.363-.26-1.404-.72c-.15-.076-.33-.074-.48.007l-1.812.986-1.07-5.6c-.045-.237-.255-.408-.5-.408s-.453.17-.498.408L1.106 88.48l-.313.104h-.15c-.28 0-.508.224-.508.5s.227.502.508.502h.252l-.183.957H.518c-.28 0-.508.224-.508.5s.227.502.508.502h.2v6.81h-.2c-.28 0-.508.225-.508.502s.227.5.508.5h.2v10.326c-.17.18-.275.42-.275.684 0 .554.455 1.003 1.015 1.003h29.528c.56 0 1.015-.45 1.015-1.003 0-.554-.454-1.003-1.014-1.003zM3.07 96.582h.772V93.86c-.02-.405-.358-.728-.773-.728-.416 0-.755.323-.774.728v2.722h.773zm-1.144-6.998l.065-.34.032-.162.002-.01.094-.49.004-.02.947-4.956 1.04 5.45.006.026.28 1.46H1.742l.183-.958zM4.9 87.398l.11-.045 1.693-.92 1.228.63.14.047 1.568.296c.087.017.176.01.26-.018l1.952-.66.172.387c.046.104.127.19.23.242l1.076.56c.073.037.154.056.236.056h2.633c.09 0 .18-.024.258-.07l.838-.49h.82c.106 0 .21-.032.296-.094l1.136-.81.11-.107 1.052-1.392 1.165.304c.148.038.305.01.43-.08l1.35-.973 1.142-.246c.613.524 1.484 1.257 1.734 1.405.086.073.302.382.464.665l.768 1.72c.032.072.082.136.145.187l.736.587H5.053l-.224-1.166.067-.018zm-3.17 4.146H4.41v6.81H1.73v-6.81zm8.32 4.135v-.534h3.31v5.208h-3.31V95.68zm-.154-2.54l.143-.437h4.438v.94H9.733l.164-.502zm5.597-.97c0-.19.09-.36.232-.47.103-.08.234-.13.376-.13s.273.05.377.13c.14.11.232.28.232.47l.002.032.032.153v1.552h-1.25V92.17zm7.216 1.472h-4.95v-.94h4.643l.306.94zm6.962 15.722h-.738v-4.773h-1.35v4.774h-1.012v-4.773h-1.35v4.774h-.8v-5.59h3.748l.116.015h1.386v5.574zm-8.8-2.916c-.415 0-.754.323-.773.728v2.188h-1.02v-2.085l.013-.11c0-1.01.833-1.834 1.857-1.834.58 0 1.1.264 1.44.677v3.35h-.745v-2.187c-.02-.405-.358-.728-.773-.728zM5.987 104.59v4.774h-.565v-5.59H8.02v5.59h-.684v-4.773h-1.35zm-.565-5.23h.2c.28 0 .508-.225.508-.502 0-.185-.102-.344-.253-.43H8.02v4.346h-.684v-2.98h-1.35v2.98h-.564V99.36zm8.953-.934v-3.28h3.69v5.208h-3.69v-1.928zm1.845 8.022c-.415 0-.754.323-.773.728v2.188h-1.072v-2.404c.106-.913.892-1.625 1.844-1.625.952 0 1.738.712 1.844 1.626v2.404h-1.07v-2.188c-.02-.405-.36-.728-.774-.728zm-4.652 0c-.415 0-.754.323-.773.728v2.188h-.745v-3.334c.34-.422.865-.694 1.453-.694.97 0 1.767.738 1.85 1.675l-.006.16.013.11v2.085h-1.02v-2.188c-.018-.405-.357-.728-.772-.728zm-1.518-2.275c.125-.155.275-.29.444-.398.29-.186.637-.296 1.01-.296.37 0 .717.11 1.007.295.42.27.724.7.818 1.205-.497-.405-1.133-.648-1.825-.648-.53 0-1.026.143-1.453.39v-.55zm5.162-.398c.29-.186.637-.296 1.008-.296.372 0 .718.11 1.008.295.42.27.723.7.817 1.205-.497-.405-1.133-.648-1.825-.648-.693 0-1.33.243-1.825.648.094-.504.397-.936.817-1.205zm4.73 0c.29-.186.637-.296 1.008-.296.372 0 .718.11 1.008.295.163.105.31.233.43.38v.56c-.423-.242-.914-.382-1.44-.382-.692 0-1.328.243-1.824.648.094-.503.397-.935.817-1.204zm2.448-1.003v.087l-.164-.088c-.385-.19-.818-.296-1.276-.296-.458 0-.89.107-1.276.296-.215.106-.414.237-.595.39v-1.806h3.31v1.416zm-4.325-1.416v1.784c-.174-.144-.364-.268-.57-.368-.384-.19-.817-.296-1.275-.296-.458 0-.89.107-1.276.296-.205.1-.395.224-.57.368v-1.784h3.69zm-4.704 1.416v.38c-.176-.15-.37-.277-.58-.38-.386-.19-.82-.296-1.277-.296-.458 0-.89.107-1.276.296l-.177.095v-1.51h3.31v1.415zm16.313 0h-.738v-2.98h-1.35v2.98h-1.012v-2.98h-1.35v2.98h-.8v-4.347h3.748l.117.014h1.386v4.33zm-5.25-6.09h5.25v.74h-5.25v-.74zM22.39 95.68v4.673h-3.31v-5.208h3.31v.533zM5.424 96.68H8.02v.74H5.423v-.74zm-2.86 2.676h1.845v10.006h-.565v-2.188c-.01-.215-.11-.407-.265-.54-.136-.116-.313-.188-.508-.188s-.372.072-.508.19c-.154.132-.255.323-.265.538v2.188h-.565V99.358h.83zm13.96-2.676c-.096-.027-.197-.042-.302-.042-.104 0-.205.015-.3.042-.364.102-.65.383-.754.74-.028.097-.044.198-.044.303l.02.2c.035.188.12.36.24.5.202.236.502.385.838.385.336 0 .637-.15.838-.384.12-.14.206-.313.24-.502l.02-.2c0-.104-.016-.205-.044-.3-.105-.36-.39-.64-.753-.742zm-4.078 1.744V96.18H10.9v3.14h1.545v-.894zm9.012 0V96.18H19.91v3.14h1.547v-.894" fill="#fff"/><path d="M18.238 41.37c.095.094.226.147.36.147.136 0 .265-.053.36-.147.155-.153.193-.387.095-.58-.075-.148-.217-.248-.38-.272-.156-.023-.32.03-.433.14-.156.153-.195.39-.095.583l.093.128zm-4.843 1.602l.422.228.23.417c.09.16.26.26.446.26s.356-.1.445-.26l.23-.417.423-.228c.164-.088.265-.257.265-.44s-.1-.352-.264-.44l-.42-.228-.232-.417c-.09-.16-.26-.26-.445-.26-.186 0-.356.1-.445.26l-.23.417-.423.228c-.163.088-.264.257-.264.44s.102.352.265.44zm17.59 26.392h-.297V63.79h.004c.28 0 .508-.226.508-.502 0-.277-.227-.502-.508-.502h-.004V58.44h.004c.28 0 .508-.225.508-.502s-.227-.5-.508-.5h-.004V56.18c0-.276-.227-.5-.508-.5h-5.76v-1.035h.15c.28 0 .51-.224.51-.5s-.228-.502-.51-.502h-.285c-.14-.24-.38-.42-.665-.48l-.364-1.114c-.068-.208-.263-.35-.483-.35h-5.12c-.205-.654-.823-1.13-1.552-1.13s-1.346.477-1.55 1.13H9.67c-.22 0-.416.14-.483.35l-.364 1.114c-.284.06-.524.238-.665.48h-.286c-.28 0-.508.224-.508.5 0 .277.227.5.508.5h.15v1.036H5.423v-4.135h.2c.28 0 .508-.224.508-.5s-.227-.502-.508-.502H5.43l-.183-.957h25.14c.28 0 .508-.224.508-.5s-.227-.502-.508-.502h-.172l-.11-.126-1.46-1.165-.728-1.63-.02-.04c-.225-.397-.555-.903-.852-1.064-.157-.097-1.025-.82-1.773-1.462-.12-.104-.285-.145-.442-.112l-1.496.324-.19.085-1.242.894-1.263-.33c-.2-.052-.413.02-.537.185l-1.21 1.6-.94.67h-.795c-.09 0-.18.024-.258.07l-.838.49h-2.37l-.808-.42-.288-.65c-.106-.238-.38-.356-.63-.272L9.7 46.4l-1.363-.26-1.404-.72c-.15-.076-.33-.074-.48.007l-1.812.986-1.07-5.6c-.045-.237-.255-.408-.5-.408s-.453.17-.498.408L1.106 48.48l-.313.104h-.15c-.28 0-.508.224-.508.5s.227.502.508.502h.252l-.183.957H.518c-.28 0-.508.224-.508.5s.227.502.508.502h.2v6.81h-.2c-.28 0-.508.225-.508.502s.227.5.508.5h.2v10.326c-.17.18-.275.42-.275.684 0 .554.455 1.003 1.015 1.003h29.528c.56 0 1.015-.45 1.015-1.003 0-.554-.454-1.003-1.014-1.003zM3.07 56.582h.772V53.86c-.02-.405-.358-.728-.773-.728-.416 0-.755.323-.774.728v2.722h.773zm-1.144-6.998l.065-.34.032-.162.002-.01.094-.49.004-.02.947-4.956 1.04 5.45.006.026.28 1.46H1.742l.183-.958zM4.9 47.398l.11-.045 1.693-.92 1.228.63.14.047 1.568.296c.087.017.176.01.26-.018l1.952-.66.172.387c.046.104.127.19.23.242l1.076.56c.073.037.154.056.236.056h2.633c.09 0 .18-.024.258-.07l.838-.49h.82c.106 0 .21-.032.296-.094l1.136-.81.11-.107 1.052-1.392 1.165.304c.148.038.305.01.43-.08l1.35-.973 1.142-.246c.613.524 1.484 1.257 1.734 1.405.086.073.302.382.464.665l.768 1.72c.032.072.082.136.145.187l.736.587H5.053l-.224-1.166.067-.018zm-3.17 4.146H4.41v6.81H1.73v-6.81zm8.32 4.135v-.534h3.31v5.208h-3.31V55.68zm-.154-2.54l.143-.437h4.438v.94H9.733l.164-.502zm5.597-.97c0-.19.09-.36.232-.47.103-.08.234-.13.376-.13s.273.05.377.13c.14.11.232.28.232.47l.002.032.032.153v1.552h-1.25V52.17zm7.216 1.472h-4.95v-.94h4.643l.306.94zm6.962 15.722h-.738V64.59h-1.35v4.774h-1.012V64.59h-1.35v4.774h-.8v-5.59h3.748l.116.015h1.386v5.574zm-8.8-2.916c-.415 0-.754.323-.773.728v2.188h-1.02V67.28l.013-.11c0-1.01.833-1.834 1.857-1.834.58 0 1.1.264 1.44.677v3.35h-.745v-2.187c-.02-.405-.358-.728-.773-.728zM5.987 64.59v4.774h-.565v-5.59H8.02v5.59h-.684V64.59h-1.35zm-.565-5.23h.2c.28 0 .508-.225.508-.502 0-.185-.102-.344-.253-.43H8.02v4.346h-.684v-2.98h-1.35v2.98h-.564V59.36zm8.953-.934v-3.28h3.69v5.208h-3.69v-1.928zm1.845 8.022c-.415 0-.754.323-.773.728v2.188h-1.072V66.96c.106-.913.892-1.625 1.844-1.625.952 0 1.738.712 1.844 1.626v2.404h-1.07v-2.188c-.02-.405-.36-.728-.774-.728zm-4.652 0c-.415 0-.754.323-.773.728v2.188h-.745V66.03c.34-.422.865-.694 1.453-.694.97 0 1.767.738 1.85 1.675l-.006.16.013.11v2.085h-1.02v-2.188c-.018-.405-.357-.728-.772-.728zm-1.518-2.275c.125-.155.275-.29.444-.398.29-.186.637-.296 1.01-.296.37 0 .717.11 1.007.295.42.27.724.7.818 1.205-.497-.405-1.133-.648-1.825-.648-.53 0-1.026.143-1.453.39v-.55zm5.162-.398c.29-.186.637-.296 1.008-.296.372 0 .718.11 1.008.295.42.27.723.7.817 1.205-.497-.405-1.133-.648-1.825-.648-.693 0-1.33.243-1.825.648.094-.504.397-.936.817-1.205zm4.73 0c.29-.186.637-.296 1.008-.296.372 0 .718.11 1.008.295.163.105.31.233.43.38v.56c-.423-.242-.914-.382-1.44-.382-.692 0-1.328.243-1.824.648.094-.503.397-.935.817-1.204zm2.448-1.003v.087l-.164-.088c-.385-.19-.818-.296-1.276-.296-.458 0-.89.107-1.276.296-.215.106-.414.237-.595.39v-1.806h3.31v1.416zm-4.325-1.416v1.784c-.174-.144-.364-.268-.57-.368-.384-.19-.817-.296-1.275-.296-.458 0-.89.107-1.276.296-.205.1-.395.224-.57.368v-1.784h3.69zm-4.704 1.416v.38c-.176-.15-.37-.277-.58-.38-.386-.19-.82-.296-1.277-.296-.458 0-.89.107-1.276.296l-.177.095v-1.51h3.31v1.415zm16.313 0h-.738v-2.98h-1.35v2.98h-1.012v-2.98h-1.35v2.98h-.8v-4.347h3.748l.117.014h1.386v4.33zm-5.25-6.09h5.25v.74h-5.25v-.74zM22.39 55.68v4.673h-3.31v-5.208h3.31v.533zM5.424 56.68H8.02v.74H5.423v-.74zm-2.86 2.676h1.845v10.006h-.565v-2.188c-.01-.215-.11-.407-.265-.54-.136-.116-.313-.188-.508-.188s-.372.072-.508.19c-.154.132-.255.323-.265.538v2.188h-.565V59.358h.83zm13.96-2.676c-.096-.027-.197-.042-.302-.042-.104 0-.205.015-.3.042-.364.102-.65.383-.754.74-.028.097-.044.198-.044.303l.02.2c.035.188.12.36.24.5.202.236.502.385.838.385.336 0 .637-.15.838-.384.12-.14.206-.313.24-.502l.02-.2c0-.104-.016-.205-.044-.3-.105-.36-.39-.64-.753-.742zm-4.078 1.744V56.18H10.9v3.14h1.545v-.894zm9.012 0V56.18H19.91v3.14h1.547v-.894" fill="#67737B"/><path d="M18.238 1.37c.095.094.226.147.36.147.136 0 .265-.053.36-.147.155-.153.193-.387.095-.58-.075-.148-.217-.248-.38-.272-.156-.023-.32.03-.433.14-.156.153-.195.39-.095.583l.093.128zM13.395 2.97l.422.228.23.417c.09.16.26.26.446.26s.356-.1.445-.26l.23-.417.423-.228c.164-.088.265-.257.265-.44s-.1-.352-.264-.44l-.42-.228-.232-.417c-.09-.16-.26-.26-.445-.26-.186 0-.356.1-.445.26l-.23.417-.423.228c-.163.088-.264.257-.264.44s.102.352.265.44zm17.59 26.392h-.297V23.79h.004c.28 0 .508-.226.508-.502 0-.277-.227-.502-.508-.502h-.004V18.44h.004c.28 0 .508-.225.508-.502s-.227-.5-.508-.5h-.004V16.18c0-.276-.227-.5-.508-.5h-5.76v-1.035h.15c.28 0 .51-.224.51-.5s-.228-.502-.51-.502h-.285c-.14-.24-.38-.42-.665-.48l-.364-1.114c-.068-.208-.263-.35-.483-.35h-5.12c-.205-.654-.823-1.13-1.552-1.13s-1.346.477-1.55 1.13H9.67c-.22 0-.416.14-.483.35l-.364 1.114c-.284.06-.524.238-.665.48h-.286c-.28 0-.508.224-.508.5 0 .277.227.5.508.5h.15v1.036H5.423v-4.135h.2c.28 0 .508-.224.508-.5s-.227-.502-.508-.502H5.43l-.183-.957h25.14c.28 0 .508-.224.508-.5s-.227-.502-.508-.502h-.172l-.11-.126-1.46-1.165-.728-1.63-.02-.04c-.225-.397-.555-.903-.852-1.064-.157-.097-1.025-.82-1.773-1.462-.12-.104-.285-.145-.442-.112l-1.496.324-.19.085-1.242.894-1.263-.33c-.2-.052-.413.02-.537.185l-1.21 1.6-.94.67h-.795c-.09 0-.18.024-.258.07l-.838.49h-2.37l-.808-.42-.288-.65c-.106-.238-.38-.356-.63-.272L9.7 6.4l-1.363-.26-1.404-.72c-.15-.076-.33-.074-.48.007l-1.812.986-1.07-5.6c-.045-.237-.255-.408-.5-.408s-.453.17-.498.408L1.106 8.48l-.313.104h-.15c-.28 0-.508.224-.508.5s.227.502.508.502h.252l-.183.957H.518c-.28 0-.508.224-.508.5s.227.502.508.502h.2v6.81h-.2c-.28 0-.508.225-.508.502s.227.5.508.5h.2v10.326c-.17.18-.275.42-.275.684 0 .554.455 1.003 1.015 1.003h29.528c.56 0 1.015-.45 1.015-1.003 0-.554-.454-1.003-1.014-1.003zM3.07 16.582h.772V13.86c-.02-.405-.358-.728-.773-.728-.416 0-.755.323-.774.728v2.722h.773zM1.925 9.584l.065-.34.032-.162.002-.01.094-.49.004-.02.947-4.956 1.04 5.45.006.026.28 1.46H1.742l.183-.958zM4.9 7.398l.11-.045 1.693-.92 1.228.63.14.047 1.568.296c.087.017.176.01.26-.018l1.952-.66.172.387c.046.104.127.19.23.242l1.076.56c.073.037.154.056.236.056h2.633c.09 0 .18-.024.258-.07l.838-.49h.82c.106 0 .21-.032.296-.094l1.136-.81.11-.107 1.052-1.392 1.165.304c.148.038.305.01.43-.08l1.35-.973 1.142-.246c.613.524 1.484 1.257 1.734 1.405.086.073.302.382.464.665l.768 1.72c.032.072.082.136.145.187l.736.587H5.053l-.224-1.166.067-.018zm-3.17 4.146H4.41v6.81H1.73v-6.81zm8.32 4.135v-.534h3.31v5.208h-3.31V15.68zm-.154-2.54l.143-.437h4.438v.94H9.733l.164-.502zm5.597-.97c0-.19.09-.36.232-.47.103-.08.234-.13.376-.13s.273.05.377.13c.14.11.232.28.232.47l.002.032.032.153v1.552h-1.25V12.17zm7.216 1.472h-4.95v-.94h4.643l.306.94zm6.962 15.722h-.738V24.59h-1.35v4.774h-1.012V24.59h-1.35v4.774h-.8v-5.59h3.748l.116.015h1.386v5.574zm-8.8-2.916c-.415 0-.754.323-.773.728v2.188h-1.02V27.28l.013-.11c0-1.01.833-1.834 1.857-1.834.58 0 1.1.264 1.44.677v3.35h-.745v-2.187c-.02-.405-.358-.728-.773-.728zM5.987 24.59v4.774h-.565v-5.59H8.02v5.59h-.684V24.59h-1.35zm-.565-5.23h.2c.28 0 .508-.225.508-.502 0-.185-.102-.344-.253-.43H8.02v4.346h-.684v-2.98h-1.35v2.98h-.564V19.36zm8.953-.934v-3.28h3.69v5.208h-3.69v-1.928zm1.845 8.022c-.415 0-.754.323-.773.728v2.188h-1.072V26.96c.106-.913.892-1.625 1.844-1.625.952 0 1.738.712 1.844 1.626v2.404h-1.07v-2.188c-.02-.405-.36-.728-.774-.728zm-4.652 0c-.415 0-.754.323-.773.728v2.188h-.745V26.03c.34-.422.865-.694 1.453-.694.97 0 1.767.738 1.85 1.675l-.006.16.013.11v2.085h-1.02v-2.188c-.018-.405-.357-.728-.772-.728zm-1.518-2.275c.125-.155.275-.29.444-.398.29-.186.637-.296 1.01-.296.37 0 .717.11 1.007.295.42.27.724.7.818 1.205-.497-.405-1.133-.648-1.825-.648-.53 0-1.026.143-1.453.39v-.55zm5.162-.398c.29-.186.637-.296 1.008-.296.372 0 .718.11 1.008.295.42.27.723.7.817 1.205-.497-.405-1.133-.648-1.825-.648-.693 0-1.33.243-1.825.648.094-.504.397-.936.817-1.205zm4.73 0c.29-.186.637-.296 1.008-.296.372 0 .718.11 1.008.295.163.105.31.233.43.38v.56c-.423-.242-.914-.382-1.44-.382-.692 0-1.328.243-1.824.648.094-.503.397-.935.817-1.204zm2.448-1.003v.087l-.164-.088c-.385-.19-.818-.296-1.276-.296-.458 0-.89.107-1.276.296-.215.106-.414.237-.595.39v-1.806h3.31v1.416zm-4.325-1.416v1.784c-.174-.144-.364-.268-.57-.368-.384-.19-.817-.296-1.275-.296-.458 0-.89.107-1.276.296-.205.1-.395.224-.57.368v-1.784h3.69zm-4.704 1.416v.38c-.176-.15-.37-.277-.58-.38-.386-.19-.82-.296-1.277-.296-.458 0-.89.107-1.276.296l-.177.095v-1.51h3.31v1.415zm16.313 0h-.738v-2.98h-1.35v2.98h-1.012v-2.98h-1.35v2.98h-.8v-4.347h3.748l.117.014h1.386v4.33zm-5.25-6.09h5.25v.74h-5.25v-.74zM22.39 15.68v4.673h-3.31v-5.208h3.31v.533zM5.424 16.68H8.02v.74H5.423v-.74zm-2.86 2.676h1.845v10.006h-.565v-2.188c-.01-.215-.11-.407-.265-.54-.136-.116-.313-.188-.508-.188s-.372.072-.508.19c-.154.132-.255.323-.265.538v2.188h-.565V19.358h.83zm13.96-2.676c-.096-.027-.197-.042-.302-.042-.104 0-.205.015-.3.042-.364.102-.65.383-.754.74-.028.097-.044.198-.044.303l.02.2c.035.188.12.36.24.5.202.236.502.385.838.385.336 0 .637-.15.838-.384.12-.14.206-.313.24-.502l.02-.2c0-.104-.016-.205-.044-.3-.105-.36-.39-.64-.753-.742zm-4.078 1.744V16.18H10.9v3.14h1.545v-.894zm9.012 0V16.18H19.91v3.14h1.547v-.894" fill="#3A434E"/></g></svg>