<svg width="32" height="232" viewBox="0 0 32 232" xmlns="http://www.w3.org/2000/svg"><desc>Created with Sketch.</desc><g fill="none"><path d="M18.238 121.37c.095.094.226.147.36.147.136 0 .265-.053.36-.147.155-.153.193-.387.095-.58-.075-.148-.217-.248-.38-.272-.156-.023-.32.03-.433.14-.156.153-.195.39-.095.583l.093.13zm-4.843 1.602l.422.228.23.417c.09.16.26.26.446.26s.356-.1.445-.26l.23-.417.423-.228c.167-.088.268-.257.268-.44s-.1-.352-.264-.44l-.42-.228-.232-.417c-.09-.16-.26-.26-.444-.26-.186 0-.356.1-.445.26l-.23.417-.422.228c-.162.088-.263.257-.263.44s.102.352.265.44zm17.59 26.392h-.297v-5.575h.004c.28 0 .508-.23.508-.505 0-.277-.227-.502-.508-.502h-.004v-4.347h.004c.28 0 .508-.225.508-.502s-.227-.5-.508-.5h-.004v-1.257c0-.277-.227-.5-.508-.5h-5.76v-1.036h.15c.28 0 .51-.223.51-.5s-.228-.5-.51-.5h-.285c-.14-.24-.38-.42-.665-.48l-.364-1.115c-.068-.208-.263-.35-.483-.35h-5.12c-.205-.654-.823-1.13-1.552-1.13s-1.343.477-1.55 1.13H9.67c-.22 0-.416.14-.483.35l-.364 1.114c-.284.06-.524.237-.665.48h-.286c-.28 0-.508.223-.508.5 0 .276.227.5.508.5h.15v1.035h-2.6v-4.135h.2c.28 0 .51-.223.51-.5s-.228-.5-.51-.5H5.43l-.183-.957h25.14c.28 0 .508-.224.508-.5s-.227-.502-.508-.502h-.172l-.11-.124-1.46-1.165-.728-1.63-.02-.04c-.225-.395-.555-.9-.852-1.062-.157-.097-1.025-.82-1.773-1.462-.12-.104-.285-.145-.442-.112l-1.496.324-.19.085-1.242.894-1.263-.33c-.2-.052-.416.02-.54.185l-1.21 1.6-.94.67h-.795c-.09 0-.18.026-.258.07l-.84.49h-2.37l-.807-.42-.287-.65c-.106-.236-.38-.354-.63-.27l-2.265.77-1.363-.26-1.404-.72c-.15-.075-.33-.073-.48.008l-1.81.986-1.07-5.6c-.044-.237-.254-.408-.5-.408s-.452.17-.497.408l-1.466 7.668-.313.105h-.15c-.28 0-.508.223-.508.5s.227.5.508.5h.252l-.183.957H.518c-.28 0-.508.224-.508.5s.227.502.508.502h.2v6.81h-.2c-.28 0-.508.224-.508.5s.227.5.508.5h.2v10.327c-.17.18-.275.42-.275.684 0 .555.455 1.004 1.015 1.004h29.528c.56 0 1.015-.45 1.015-1.002 0-.553-.45-1.002-1.01-1.002zM3.07 136.582h.772v-2.722c-.02-.405-.358-.728-.773-.728-.42 0-.758.323-.777.728v2.722h.773zm-1.144-6.998l.065-.34.035-.162.002-.01.094-.49.004-.02.947-4.956 1.04 5.45.007.026.28 1.46H1.742l.183-.958zm2.973-2.186l.11-.045 1.69-.92 1.23.63.14.047 1.566.296c.087.017.176.01.26-.018l1.952-.66.17.387c.047.104.128.19.23.242l1.077.56c.073.037.154.056.236.056h2.634c.09 0 .18-.024.258-.07l.838-.49h.82c.106 0 .21-.032.296-.094l1.135-.81.11-.11 1.053-1.39 1.165.302c.148.038.305.01.43-.08l1.35-.973 1.142-.246c.613.524 1.484 1.257 1.734 1.405.086.072.302.38.464.664l.768 1.72c.032.072.082.136.145.187l.737.588H5.053l-.224-1.168.065-.018zm-3.17 4.146h2.68v6.81H1.73v-6.81zm8.32 4.135v-.537h3.31v5.208h-3.31v-4.673zm-.157-2.54l.143-.44h4.438v.94h-4.74l.163-.5zm5.597-.97c0-.19.09-.36.233-.47.103-.08.234-.13.376-.13s.27.05.375.13c.14.11.232.28.232.47v.03l.033.152v1.552h-1.25v-1.736zm7.217 1.47h-4.95v-.94H22.4l.307.94zm6.962 15.72h-.74v-4.772h-1.35v4.773h-1.01v-4.772h-1.35v4.775h-.8v-5.59h3.747l.116.015h1.386v5.574zm-8.8-2.915c-.417 0-.756.323-.775.728v2.188h-1.02v-2.084l.013-.11c0-1.01.832-1.834 1.856-1.834.58 0 1.1.264 1.44.677v3.35h-.745v-2.187c-.02-.405-.358-.728-.773-.728zM5.985 144.59v4.774H5.42v-5.59h2.6v5.59h-.684v-4.773h-1.35zm-.565-5.23h.2c.28 0 .51-.225.51-.502 0-.185-.103-.344-.254-.43H8.02v4.346h-.684v-2.98h-1.35v2.98h-.564v-3.414zm8.954-.934v-3.28h3.69v5.208h-3.69v-1.928zm1.845 8.022c-.416 0-.755.323-.774.728v2.188h-1.072v-2.404c.106-.913.892-1.625 1.844-1.625.95 0 1.736.712 1.842 1.626v2.407h-1.07v-2.188c-.02-.406-.36-.73-.774-.73zm-4.653 0c-.415 0-.754.323-.773.728v2.188h-.745v-3.334c.34-.422.864-.694 1.452-.694.97 0 1.767.738 1.85 1.675l-.006.16.013.11v2.088h-1.02v-2.188c-.02-.406-.358-.73-.773-.73zm-1.518-2.275c.124-.155.274-.29.443-.398.29-.186.637-.296 1.01-.296.37 0 .717.11 1.007.292.42.27.726.7.82 1.205-.497-.406-1.133-.65-1.825-.65-.53 0-1.026.144-1.453.39v-.55zm5.16-.398c.29-.186.638-.296 1.01-.296.37 0 .717.11 1.007.292.42.27.723.7.817 1.205-.497-.406-1.133-.65-1.825-.65-.694 0-1.33.244-1.826.65.094-.505.397-.937.817-1.206zm4.73 0c.29-.186.638-.296 1.01-.296.37 0 .717.11 1.007.292.163.105.31.233.43.38v.56c-.423-.242-.914-.382-1.44-.382-.692 0-1.328.244-1.824.65.094-.504.397-.936.817-1.205zm2.45-1.003v.087l-.165-.09c-.385-.19-.818-.297-1.276-.297-.46 0-.89.107-1.277.296-.215.106-.414.237-.595.39v-1.806h3.31v1.416zm-4.326-1.416v1.784c-.174-.144-.364-.268-.57-.368-.384-.19-.817-.296-1.275-.296-.46 0-.89.107-1.277.296-.205.1-.395.224-.57.368v-1.784h3.69zm-4.704 1.416v.38c-.174-.15-.37-.277-.58-.38-.384-.19-.82-.296-1.275-.296-.458 0-.89.107-1.276.296l-.18.095v-1.51h3.31v1.415zm16.315 0h-.738v-2.98h-1.35v2.98h-1.012v-2.98h-1.35v2.98h-.8v-4.347h3.748l.117.014h1.385v4.33zm-5.25-6.09h5.25v.74h-5.25v-.74zm-2.032-1.003v4.67h-3.31v-5.208h3.31v.533zm-16.968 1H8.02v.74H5.423v-.74zm-2.86 2.674H4.41v10.006h-.566v-2.187c-.01-.215-.11-.407-.265-.54-.14-.116-.316-.188-.51-.188s-.37.072-.51.19c-.153.132-.254.323-.264.538v2.188H1.73v-10.004h.83zm13.96-2.676c-.096-.028-.197-.043-.302-.043-.104 0-.205.015-.3.042-.364.1-.65.382-.754.74-.03.096-.046.197-.046.302l.02.2c.035.187.12.36.24.5.202.235.502.384.838.384.336 0 .637-.15.838-.384.12-.14.207-.313.24-.502l.02-.2c0-.103-.015-.204-.043-.3-.105-.36-.39-.64-.753-.74zm-4.078 1.743v-2.244H10.9v3.14h1.545v-.895zm9.012 0v-2.244h-1.55v3.14h1.546v-.895" fill="#206FAC"/><path d="M18.238 81.37c.095.094.226.147.36.147.136 0 .265-.053.36-.147.155-.153.193-.387.095-.58-.075-.148-.217-.248-.38-.272-.156-.023-.32.03-.433.14-.156.153-.195.39-.095.583l.093.13zm-4.843 1.602l.422.228.23.417c.09.16.26.26.446.26s.356-.1.445-.26l.23-.417.423-.228c.167-.088.268-.257.268-.44s-.1-.352-.264-.44l-.42-.228-.232-.417c-.09-.16-.26-.26-.444-.26-.186 0-.356.1-.445.26l-.23.417-.422.228c-.162.088-.263.257-.263.44s.102.352.265.44zm17.59 26.392h-.297v-5.575h.004c.28 0 .508-.23.508-.505 0-.277-.227-.502-.508-.502h-.004V98.44h.004c.28 0 .508-.225.508-.502s-.227-.5-.508-.5h-.004V96.18c0-.276-.227-.5-.508-.5h-5.76v-1.035h.15c.28 0 .51-.224.51-.5s-.228-.502-.51-.502h-.285c-.14-.24-.38-.42-.665-.48l-.364-1.114c-.068-.21-.263-.35-.483-.35h-5.12c-.205-.657-.823-1.13-1.552-1.13s-1.343.474-1.55 1.13H9.67c-.22 0-.416.14-.483.35l-.364 1.11c-.284.06-.524.24-.665.48h-.286c-.28 0-.508.225-.508.5 0 .278.227.5.508.5h.15v1.037h-2.6V91.54h.2c.28 0 .51-.223.51-.5s-.228-.5-.51-.5H5.43l-.183-.958h25.14c.28 0 .508-.224.508-.5s-.227-.502-.508-.502h-.172l-.11-.125-1.46-1.165-.728-1.63-.02-.04c-.225-.397-.555-.903-.852-1.064-.157-.097-1.025-.82-1.773-1.462-.12-.104-.285-.145-.442-.112l-1.496.324-.19.085-1.242.896-1.263-.33c-.2-.052-.416.02-.54.185l-1.21 1.6-.94.67h-.795c-.09 0-.18.025-.258.07l-.84.49h-2.37l-.807-.42-.287-.65c-.106-.237-.38-.355-.63-.27L9.7 86.4l-1.363-.26-1.404-.72c-.15-.076-.33-.074-.48.007l-1.812.986-1.07-5.6c-.042-.237-.252-.408-.5-.408s-.45.17-.495.408l-1.47 7.667-.312.104h-.15c-.28 0-.508.224-.508.5s.227.502.508.502h.252l-.183.957H.518c-.28 0-.508.224-.508.5s.227.502.508.502h.2v6.81h-.2c-.28 0-.508.225-.508.502s.227.5.508.5h.2v10.326c-.17.18-.275.42-.275.684 0 .554.455 1.003 1.015 1.003h29.528c.56 0 1.015-.45 1.015-1.003 0-.554-.45-1.003-1.01-1.003zM3.07 96.582h.772V93.86c-.02-.405-.358-.728-.773-.728-.42 0-.758.323-.777.728v2.722h.773zm-1.144-6.998l.065-.34.035-.162.002-.01.094-.49.004-.02.947-4.956 1.04 5.45.007.026.28 1.46H1.742l.183-.958zM4.9 87.398l.11-.045 1.693-.92 1.228.63.14.047 1.57.296c.088.017.177.01.26-.018l1.95-.66.175.387c.046.104.127.19.23.242l1.076.56c.073.037.154.056.236.056H16.2c.09 0 .18-.024.257-.07l.838-.49h.82c.106 0 .21-.032.296-.094l1.137-.81.11-.11 1.052-1.39 1.164.302c.148.038.305.01.43-.08l1.35-.973 1.142-.246c.613.524 1.484 1.257 1.734 1.405.084.072.3.38.462.664l.768 1.72c.033.072.083.136.146.187l.736.588H5.052L4.83 87.41l.065-.018zm-3.17 4.146h2.68v6.81H1.73v-6.81zm8.32 4.135v-.537h3.31v5.208h-3.31v-4.67zm-.154-2.54l.143-.44h4.435v.94H9.733l.164-.5zm5.597-.97c0-.19.09-.36.232-.47.103-.08.234-.13.376-.13s.276.05.38.13c.14.11.23.28.23.47l.004.03.032.152v1.552h-1.25V92.17zm7.216 1.47h-4.95v-.94h4.64l.305.94zm6.96 15.72h-.74v-4.772h-1.35v4.773h-1.01v-4.772h-1.35v4.775h-.8v-5.59h3.75l.115.015h1.386v5.574zm-8.8-2.915c-.416 0-.755.323-.774.728v2.188h-1.02v-2.084l.013-.11c0-1.01.833-1.834 1.857-1.834.58 0 1.1.264 1.44.677v3.35h-.745v-2.187c-.02-.405-.358-.728-.773-.728zM5.986 104.59v4.774h-.565v-5.59H8.02v5.59h-.684v-4.773h-1.35zm-.565-5.23h.2c.28 0 .508-.225.508-.502 0-.185-.1-.344-.252-.43H8.02v4.346h-.684v-2.98h-1.35v2.98h-.564V99.36zm8.953-.934v-3.28h3.69v5.208h-3.69v-1.928zm1.845 8.022c-.414 0-.753.323-.772.728v2.188h-1.072v-2.404c.106-.913.892-1.625 1.844-1.625.95 0 1.737.712 1.843 1.626v2.407h-1.07v-2.188c-.02-.406-.36-.73-.774-.73zm-4.65 0c-.416 0-.755.323-.774.728v2.188h-.745v-3.334c.34-.422.867-.694 1.455-.694.97 0 1.767.738 1.85 1.675l-.006.16.012.11v2.088h-1.02v-2.188c-.017-.406-.356-.73-.77-.73zm-1.52-2.275c.126-.155.276-.29.445-.398.29-.186.637-.296 1.01-.296.37 0 .717.11 1.007.292.42.27.725.7.82 1.205-.498-.406-1.134-.65-1.826-.65-.53 0-1.026.144-1.453.39v-.55zm5.163-.398c.29-.186.637-.296 1.008-.296.374 0 .72.11 1.01.292.42.27.723.7.817 1.205-.497-.406-1.133-.65-1.825-.65s-1.33.244-1.824.65c.094-.505.397-.937.817-1.206zm4.73 0c.29-.186.637-.296 1.008-.296.374 0 .72.11 1.01.292.163.105.31.233.43.38v.56c-.423-.242-.914-.382-1.44-.382-.692 0-1.33.244-1.824.65.094-.504.397-.936.817-1.205zm2.448-1.003v.087l-.162-.09c-.385-.19-.818-.297-1.276-.297-.457 0-.89.107-1.275.296-.215.106-.414.237-.595.39v-1.806h3.31v1.416zm-4.323-1.416v1.784c-.174-.144-.364-.268-.57-.368-.384-.19-.817-.296-1.275-.296-.457 0-.89.107-1.275.296-.205.1-.395.224-.57.368v-1.784h3.69zm-4.704 1.416v.38c-.175-.15-.37-.277-.58-.38-.385-.19-.82-.296-1.276-.296-.458 0-.89.107-1.276.296l-.176.095v-1.51h3.31v1.415zm16.314 0h-.738v-2.98h-1.35v2.98h-1.013v-2.98h-1.35v2.98h-.8v-4.347h3.748l.117.014h1.386v4.33zm-5.25-6.09h5.25v.74h-5.25v-.74zM22.39 95.68v4.673h-3.31v-5.208h3.31v.533zm-16.966 1H8.02v.74H5.423v-.74zm-2.86 2.676H4.41v10.006h-.566v-2.188c-.01-.215-.11-.407-.265-.54-.14-.116-.316-.188-.51-.188s-.37.072-.51.19c-.153.132-.254.323-.264.538v2.188H1.73V99.358h.83zm13.96-2.676c-.096-.027-.197-.042-.302-.042-.104 0-.205.015-.3.042-.364.102-.65.383-.754.74-.028.097-.044.198-.044.303l.02.2c.035.188.12.36.24.5.202.236.502.385.838.385.336 0 .637-.15.838-.384.12-.14.206-.313.24-.502l.02-.2c0-.104-.016-.205-.044-.3-.105-.36-.39-.64-.753-.742zm-4.078 1.744V96.18H10.9v3.14h1.545v-.894zm9.012 0V96.18H19.91v3.14h1.547v-.894" fill="#fff"/><path d="M18.238 41.37c.095.094.226.147.36.147.136 0 .265-.053.36-.147.155-.153.193-.387.095-.58-.075-.148-.217-.248-.38-.272-.156-.023-.32.03-.433.14-.156.153-.195.39-.095.583l.093.13zm-4.843 1.602l.422.228.23.417c.09.16.26.26.446.26s.356-.1.445-.26l.23-.417.423-.228c.167-.088.268-.257.268-.44s-.1-.352-.264-.44l-.42-.228-.232-.417c-.09-.16-.26-.26-.444-.26-.186 0-.356.1-.445.26l-.23.417-.422.228c-.162.088-.263.257-.263.44s.102.352.265.44zm17.59 26.392h-.297V63.79h.004c.28 0 .508-.226.508-.502 0-.277-.227-.502-.508-.502h-.004V58.44h.004c.28 0 .508-.225.508-.502s-.227-.5-.508-.5h-.004V56.18c0-.276-.227-.5-.508-.5h-5.76v-1.035h.15c.28 0 .51-.224.51-.5s-.228-.502-.51-.502h-.285c-.14-.24-.38-.42-.665-.48l-.364-1.114c-.068-.21-.263-.35-.483-.35h-5.12c-.205-.657-.823-1.13-1.552-1.13s-1.343.474-1.55 1.13H9.67c-.22 0-.416.14-.483.35l-.364 1.11c-.284.06-.524.24-.665.48h-.286c-.28 0-.508.225-.508.5 0 .278.227.5.508.5h.15v1.037h-2.6V51.54h.2c.28 0 .51-.223.51-.5s-.228-.5-.51-.5H5.43l-.183-.958h25.14c.28 0 .508-.224.508-.5s-.227-.502-.508-.502h-.172l-.11-.125-1.46-1.165-.728-1.63-.02-.04c-.225-.397-.555-.903-.852-1.064-.157-.097-1.025-.82-1.773-1.462-.12-.104-.285-.145-.442-.112l-1.496.324-.19.085-1.242.896-1.263-.33c-.2-.052-.416.02-.54.185l-1.21 1.6-.94.67h-.795c-.09 0-.18.025-.258.07l-.84.49h-2.37l-.807-.42-.287-.65c-.106-.237-.38-.355-.63-.27L9.7 46.4l-1.363-.26-1.404-.72c-.15-.076-.33-.074-.48.007l-1.812.986-1.07-5.6c-.042-.237-.252-.408-.5-.408s-.45.17-.495.408l-1.47 7.667-.312.104h-.15c-.28 0-.508.224-.508.5s.227.502.508.502h.252l-.183.957H.518c-.28 0-.508.224-.508.5s.227.502.508.502h.2v6.81h-.2c-.28 0-.508.225-.508.502s.227.5.508.5h.2v10.326c-.17.18-.275.42-.275.684 0 .554.455 1.003 1.015 1.003h29.528c.56 0 1.015-.45 1.015-1.003 0-.554-.45-1.003-1.01-1.003zM3.07 56.582h.772V53.86c-.02-.405-.358-.728-.773-.728-.42 0-.758.323-.777.728v2.722h.773zm-1.144-6.998l.065-.34.035-.162.002-.01.094-.49.004-.02.947-4.956 1.04 5.45.007.026.28 1.46H1.742l.183-.958zM4.9 47.398l.11-.045 1.693-.92 1.228.63.14.047 1.57.296c.088.017.177.01.26-.018l1.95-.66.175.387c.046.104.127.19.23.242l1.076.56c.073.037.154.056.236.056H16.2c.09 0 .18-.024.257-.07l.838-.49h.82c.106 0 .21-.032.296-.094l1.137-.81.11-.11 1.052-1.39 1.164.302c.148.038.305.01.43-.08l1.35-.973 1.142-.246c.613.524 1.484 1.257 1.734 1.405.084.072.3.38.462.664l.768 1.72c.033.072.083.136.146.187l.736.588H5.052L4.83 47.41l.065-.018zm-3.17 4.146h2.68v6.81H1.73v-6.81zm8.32 4.135v-.537h3.31v5.208h-3.31v-4.67zm-.154-2.54l.143-.44h4.435v.94H9.733l.164-.5zm5.597-.97c0-.19.09-.36.232-.47.103-.08.234-.13.376-.13s.276.05.38.13c.14.11.23.28.23.47l.004.03.032.152v1.552h-1.25V52.17zm7.216 1.47h-4.95v-.94h4.64l.305.94zm6.96 15.72h-.74v-4.77h-1.35v4.774h-1.01V64.59h-1.35v4.774h-.8v-5.59h3.75l.115.015h1.386v5.57zm-8.8-2.915c-.416 0-.755.323-.774.728v2.188h-1.02v-2.08l.013-.11c0-1.01.833-1.834 1.857-1.834.58 0 1.1.264 1.44.677v3.35h-.745v-2.187c-.02-.405-.358-.728-.773-.728zM5.986 64.59v4.774h-.565v-5.59H8.02v5.59h-.684V64.59h-1.35zm-.565-5.23h.2c.28 0 .508-.225.508-.502 0-.185-.1-.344-.252-.43H8.02v4.346h-.684v-2.98h-1.35v2.98h-.564V59.36zm8.953-.934v-3.28h3.69v5.208h-3.69v-1.928zm1.845 8.022c-.414 0-.753.323-.772.728v2.188h-1.072V66.96c.106-.913.892-1.625 1.844-1.625.95 0 1.737.712 1.843 1.626v2.407h-1.07V67.18c-.02-.406-.36-.73-.774-.73zm-4.65 0c-.416 0-.755.323-.774.728v2.188h-.745V66.03c.34-.422.867-.694 1.455-.694.97 0 1.767.738 1.85 1.675l-.006.16.012.11v2.088h-1.02V67.18c-.017-.406-.356-.73-.77-.73zm-1.52-2.275c.126-.155.276-.29.445-.398.29-.186.637-.296 1.01-.296.37 0 .717.11 1.007.292.42.27.725.7.82 1.205-.498-.406-1.134-.65-1.826-.65-.53 0-1.026.144-1.453.39v-.55zm5.163-.398c.29-.186.637-.296 1.008-.296.374 0 .72.11 1.01.292.42.27.723.7.817 1.205-.497-.406-1.133-.65-1.825-.65s-1.33.244-1.824.65c.094-.505.397-.937.817-1.206zm4.73 0c.29-.186.637-.296 1.008-.296.374 0 .72.11 1.01.292.163.105.31.233.43.38v.56c-.423-.242-.914-.382-1.44-.382-.692 0-1.33.244-1.824.65.094-.504.397-.936.817-1.205zm2.448-1.003v.087l-.162-.09c-.385-.19-.818-.297-1.276-.297-.457 0-.89.107-1.275.296-.215.106-.414.237-.595.39v-1.806h3.31v1.416zm-4.323-1.416v1.784c-.174-.144-.364-.268-.57-.368-.384-.19-.817-.296-1.275-.296-.457 0-.89.107-1.275.296-.205.1-.395.224-.57.368v-1.784h3.69zm-4.704 1.416v.38c-.175-.15-.37-.277-.58-.38-.385-.19-.82-.296-1.276-.296-.458 0-.89.107-1.276.296l-.176.095v-1.51h3.31v1.415zm16.314 0h-.738v-2.98h-1.35v2.98h-1.013v-2.98h-1.35v2.98h-.8v-4.347h3.748l.117.014h1.386v4.33zm-5.25-6.09h5.25v.74h-5.25v-.74zM22.39 55.68v4.673h-3.31v-5.208h3.31v.533zm-16.966 1H8.02v.74H5.423v-.74zm-2.86 2.676H4.41v10.006h-.566v-2.188c-.01-.215-.11-.407-.265-.54-.14-.116-.316-.188-.51-.188s-.37.072-.51.19c-.153.132-.254.323-.264.538v2.188H1.73V59.358h.83zm13.96-2.676c-.096-.027-.197-.042-.302-.042-.104 0-.205.015-.3.042-.364.102-.65.383-.754.74-.028.097-.044.198-.044.303l.02.2c.035.188.12.36.24.5.202.236.502.385.838.385.336 0 .637-.15.838-.384.12-.14.206-.313.24-.502l.02-.2c0-.104-.016-.205-.044-.3-.105-.36-.39-.64-.753-.742zm-4.078 1.744V56.18H10.9v3.14h1.545v-.894zm9.012 0V56.18H19.91v3.14h1.547v-.894" fill="#67737B"/><path d="M18.238 1.37c.095.094.226.147.36.147.136 0 .265-.053.36-.147.155-.153.193-.387.095-.58-.075-.148-.217-.248-.38-.272-.156-.023-.32.03-.433.14-.156.153-.195.39-.095.583l.093.13zm-4.843 1.6l.422.228.23.417c.09.16.26.26.446.26s.356-.1.445-.26l.23-.417.423-.228c.167-.088.268-.257.268-.44s-.1-.352-.264-.44l-.42-.228-.232-.417c-.09-.16-.26-.26-.444-.26-.186 0-.356.1-.445.26l-.23.417-.422.228c-.162.088-.263.257-.263.44s.102.352.265.44zm17.59 26.392h-.297V23.79h.004c.28 0 .508-.226.508-.502 0-.277-.227-.502-.508-.502h-.004V18.44h.004c.28 0 .508-.225.508-.502s-.227-.5-.508-.5h-.004V16.18c0-.276-.227-.5-.508-.5h-5.76v-1.035h.15c.28 0 .51-.224.51-.5s-.228-.502-.51-.502h-.285c-.14-.24-.38-.42-.665-.48l-.364-1.114c-.068-.21-.263-.35-.483-.35h-5.12c-.205-.657-.823-1.13-1.552-1.13s-1.343.474-1.55 1.13H9.67c-.22 0-.416.14-.483.35l-.364 1.11c-.284.06-.524.24-.665.48h-.286c-.28 0-.508.225-.508.5 0 .278.227.5.508.5h.15v1.037h-2.6V11.54h.2c.28 0 .51-.223.51-.5s-.228-.5-.51-.5H5.43l-.183-.958h25.14c.28 0 .508-.224.508-.5s-.227-.502-.508-.502h-.172l-.11-.125-1.46-1.165-.728-1.63-.02-.04c-.225-.397-.555-.903-.852-1.064-.157-.097-1.025-.82-1.773-1.462-.12-.104-.285-.145-.442-.112l-1.496.324-.19.085-1.242.896-1.263-.33c-.2-.052-.416.02-.54.185l-1.21 1.6-.94.67h-.795c-.09 0-.18.025-.258.07l-.84.49h-2.37l-.807-.42-.287-.65c-.106-.237-.38-.355-.63-.27L9.7 6.4l-1.363-.26-1.404-.72c-.15-.076-.33-.074-.48.007l-1.812.986-1.07-5.6C3.53.576 3.32.405 3.07.405s-.45.17-.495.408L1.105 8.48l-.312.104h-.15c-.28 0-.508.224-.508.5s.227.502.508.502h.252l-.183.957H.518c-.28 0-.508.224-.508.5s.227.502.508.502h.2v6.81h-.2c-.28 0-.508.225-.508.502s.227.5.508.5h.2v10.326c-.17.18-.275.42-.275.684 0 .554.455 1.003 1.015 1.003h29.528c.56 0 1.015-.45 1.015-1.003 0-.554-.45-1.003-1.01-1.003zM3.07 16.582h.772V13.86c-.02-.405-.358-.728-.773-.728-.42 0-.758.323-.777.728v2.722h.773zM1.925 9.584l.065-.34.032-.162.002-.01.094-.49.004-.02.947-4.956 1.04 5.45.003.026.28 1.46h-2.65l.182-.958zM4.9 7.398l.11-.045 1.693-.92 1.228.63.14.047 1.57.296c.088.017.177.01.26-.018l1.95-.66.175.387c.046.104.127.19.23.242l1.076.56c.073.037.154.056.236.056H16.2c.09 0 .18-.024.257-.07l.838-.49h.82c.106 0 .21-.032.296-.094l1.137-.81.11-.11 1.052-1.39 1.164.302c.148.038.305.01.43-.08l1.35-.973 1.142-.246c.613.524 1.484 1.257 1.734 1.405.084.072.3.38.462.664l.768 1.72c.033.072.083.136.146.187l.736.588H5.052L4.83 7.41l.066-.018zm-3.17 4.146h2.68v6.81H1.73v-6.81zm8.32 4.135v-.537h3.31v5.208h-3.31v-4.67zm-.154-2.54l.143-.44h4.435v.94H9.733l.164-.5zm5.597-.97c0-.19.09-.36.232-.47.103-.08.234-.13.376-.13s.276.05.38.13c.14.11.23.28.23.47l.004.03.032.152v1.552h-1.25V12.17zm7.216 1.47h-4.95v-.94h4.64l.305.94zm6.96 15.72h-.74v-4.77h-1.35v4.774h-1.01V24.59h-1.35v4.774h-.8v-5.59h3.75l.115.015h1.386v5.57zm-8.8-2.915c-.416 0-.755.323-.774.728v2.188h-1.02v-2.08l.013-.11c0-1.01.833-1.834 1.857-1.834.58 0 1.1.264 1.44.677v3.35h-.745v-2.187c-.02-.405-.358-.728-.773-.728zM5.986 24.59v4.774h-.565v-5.59H8.02v5.59h-.684V24.59h-1.35zm-.565-5.23h.2c.28 0 .508-.225.508-.502 0-.185-.1-.344-.252-.43H8.02v4.346h-.684v-2.98h-1.35v2.98h-.564V19.36zm8.953-.934v-3.28h3.69v5.208h-3.69v-1.928zm1.845 8.022c-.414 0-.753.323-.772.728v2.188h-1.072V26.96c.106-.913.892-1.625 1.844-1.625.95 0 1.737.712 1.843 1.626v2.407h-1.07V27.18c-.02-.406-.36-.73-.774-.73zm-4.65 0c-.416 0-.755.323-.774.728v2.188h-.745V26.03c.34-.422.867-.694 1.455-.694.97 0 1.767.738 1.85 1.675l-.006.16.012.11v2.088h-1.02V27.18c-.017-.406-.356-.73-.77-.73zm-1.52-2.275c.126-.155.276-.29.445-.398.29-.186.637-.296 1.01-.296.37 0 .717.11 1.007.292.42.27.725.7.82 1.205-.498-.406-1.134-.65-1.826-.65-.53 0-1.026.144-1.453.39v-.55zm5.163-.398c.29-.186.637-.296 1.008-.296.374 0 .72.11 1.01.292.42.27.723.7.817 1.205-.497-.406-1.133-.65-1.825-.65s-1.33.244-1.824.65c.094-.505.397-.937.817-1.206zm4.73 0c.29-.186.637-.296 1.008-.296.374 0 .72.11 1.01.292.163.105.31.233.43.38v.56c-.423-.242-.914-.382-1.44-.382-.692 0-1.33.244-1.824.65.094-.504.397-.936.817-1.205zm2.448-1.003v.087l-.162-.09c-.385-.19-.818-.297-1.276-.297-.457 0-.89.107-1.275.296-.215.106-.414.237-.595.39v-1.806h3.31v1.416zm-4.323-1.416v1.784c-.174-.144-.364-.268-.57-.368-.384-.19-.817-.296-1.275-.296-.457 0-.89.107-1.275.296-.205.1-.395.224-.57.368v-1.784h3.69zm-4.704 1.416v.38c-.175-.15-.37-.277-.58-.38-.385-.19-.82-.296-1.276-.296-.458 0-.89.107-1.276.296l-.176.095v-1.51h3.31v1.415zm16.314 0h-.738v-2.98h-1.35v2.98h-1.013v-2.98h-1.35v2.98h-.8v-4.347h3.748l.117.014h1.386v4.33zm-5.25-6.09h5.25v.74h-5.25v-.74zM22.39 15.68v4.673h-3.31v-5.208h3.31v.533zm-16.966 1H8.02v.74H5.423v-.74zm-2.86 2.676H4.41v10.006h-.566v-2.188c-.01-.215-.11-.407-.265-.54-.14-.116-.316-.188-.51-.188s-.37.072-.51.19c-.153.132-.254.323-.264.538v2.188H1.73V19.358h.83zm13.96-2.676c-.096-.027-.197-.042-.302-.042-.104 0-.205.015-.3.042-.364.102-.65.383-.754.74-.028.097-.044.198-.044.303l.02.2c.035.188.12.36.24.5.202.236.502.385.838.385.336 0 .637-.15.838-.384.12-.14.206-.313.24-.502l.02-.2c0-.104-.016-.205-.044-.3-.105-.36-.39-.64-.753-.742zm-4.078 1.744V16.18H10.9v3.14h1.545v-.894zm9.012 0V16.18H19.91v3.14h1.547v-.894" fill="#3A434E"/></g></svg>