<svg width="32" height="232" viewBox="0 0 32 232" xmlns="http://www.w3.org/2000/svg"><desc>Created with Sketch.</desc><g fill="none"><path d="M22.45 150.574c-.272 0-.39-.046-.55-.11-.197-.076-.44-.17-.886-.17s-.69.094-.885.17c-.166.064-.28.11-.556.11s-.39-.046-.552-.11c-.196-.076-.44-.17-.885-.17s-.69.094-.886.17c-.16.064-.28.11-.55.11s-.39-.046-.55-.11c-.198-.076-.44-.17-.887-.17s-.69.094-.885.17c-.16.064-.28.11-.55.11s-.39-.046-.554-.11c-.196-.076-.44-.17-.885-.17s-.69.094-.885.17c-.162.064-.28.11-.552.11s-.39-.046-.55-.11c-.197-.076-.44-.17-.886-.17s-.69.094-.886.17c-.16.064-.28.11-.55.11s-.39-.046-.553-.11c-.195-.076-.44-.17-.884-.17-.446 0-.69.094-.885.17-.16.064-.278.11-.55.11s-.39-.046-.553-.11c-.196-.076-.44-.17-.885-.17-.253 0-.458.205-.458.46s.205.46.458.46c.273 0 .39.045.552.108.196.077.44.172.885.172s.687-.095.883-.172c.162-.063.28-.11.552-.11s.39.047.552.11c.196.077.44.172.885.172s.69-.095.884-.172c.162-.063.28-.11.552-.11s.39.047.55.11c.197.077.44.172.886.172s.69-.095.885-.172c.163-.063.28-.11.553-.11s.39.047.55.11c.197.077.44.172.886.172.444 0 .69-.095.884-.172.162-.063.28-.11.55-.11.274 0 .39.047.553.11.196.077.44.172.885.172s.69-.095.885-.172c.162-.063.28-.11.552-.11s.39.047.55.11c.196.077.44.172.885.172s.69-.095.885-.172c.164-.063.28-.11.554-.11s.39.047.55.11c.197.077.44.172.886.172.255 0 .46-.206.46-.46s-.205-.46-.46-.46m9.54-2.552c0-.508-.41-.92-.916-.92h-1.93v-10.747c0-.254-.204-.46-.457-.46H24.79c-.253 0-.458.206-.458.46v2.203c-.072-.158-.23-.27-.416-.27h-2.55c-.254 0-.46.207-.46.46v.76h-.214c-.253 0-.46.205-.46.46v3.87c-.236-.17-.48-.33-.727-.48v-6.704c0-.254-.205-.46-.458-.46h-.734v-2.415c0-.258-.205-.46-.458-.46s-.458.202-.458.46v2.41h-.407v-3.034c0-.174-.097-.333-.25-.41-.156-.08-.34-.064-.48.04l-3.362 2.478c-.117.087-.187.224-.187.37v4.26h-2.33c-.25 0-.46.206-.46.46v2.135l-.52.216v-1.138c0-.256-.202-.46-.46-.46H7.1l-.31-9.32h.4c.235 0 .43-.18.457-.41l.2-1.835c.015-.13-.026-.26-.113-.358l-.095-.08v-.82c0-.254-.208-.46-.46-.46h-.815v-6.82c0-.253-.205-.46-.458-.46s-.46.207-.46.46v6.82H4.64c-.253 0-.458.206-.458.46v.82l-.096.08c-.087.097-.128.227-.114.357l.2 1.83c.026.234.223.41.457.41h.4l-.31 9.322H2.69c-.253 0-.458.206-.458.46v5.53H.906c-.506 0-.917.412-.917.92 0 .404.255.746.62.87.08.07.18.112.293.112.273 0 .39.045.552.11.196.075.44.17.885.17s.69-.095.886-.17c.162-.065.28-.11.55-.11.274 0 .39.045.553.11.195.075.44.17.884.17s.69-.095.885-.17c.163-.065.28-.11.553-.11s.39.045.552.11c.196.075.44.17.885.17s.69-.095.887-.17c.162-.065.28-.11.552-.11s.39.045.55.11c.195.075.44.17.884.17s.69-.095.885-.17c.16-.065.276-.11.55-.11s.39.045.55.11c.196.075.44.17.885.17s.69-.095.885-.17c.164-.065.28-.11.55-.11.276 0 .39.045.555.11.196.075.44.17.885.17s.69-.095.884-.17c.162-.065.28-.11.552-.11s.39.045.55.11c.197.075.44.17.886.17s.69-.095.885-.17c.162-.065.28-.11.552-.11s.39.045.55.11c.195.075.44.17.884.17s.69-.095.885-.17c.162-.065.28-.11.552-.11s.39.045.55.11c.197.075.44.17.886.17s.69-.095.883-.17c.163-.065.28-.11.553-.11s.39.045.552.11c.195.075.438.17.884.17s.69-.095.885-.17c.16-.065.278-.11.55-.11s.39.045.553.11c.195.075.44.17.885.17.252 0 .457-.206.457-.46v-.007c.273-.16.458-.456.458-.796zm-26.36-6.91l.278-8.26.473 14.25.004.14.025.707h-1l.022-.71v-.03l.204-6.1zm-.535-12.36h1.63v.286H5.092v-.286zm-.16 1.207h1.95l-.1.91H5.034l-.1-.914zm12.19 7.15h1.467v5.747c-.474-.23-.964-.425-1.467-.584v-5.163zM16.073 142c-.73-.153-1.48-.234-2.242-.234l-.203.003v-5.9l2.445-1.805V142zm-5.235-1.18h1.467v1.055c-.498.07-.987.176-1.467.313v-1.37zm0 3.296c.476-.166.966-.294 1.467-.38l.406-.06.053-.005.406-.035.05-.004.404-.02.204-.002c.764 0 1.516.098 2.242.283l.132.035.327.095.132.04.327.114.133.05c.51.2 1 .442 1.467.726l.46.3.458.34c.253.2.496.413.728.64.158.153.31.314.46.48l.064.074h-1.12l-.133-.17c-.145-.183-.298-.358-.458-.524-.15-.15-.3-.297-.46-.435-.45-.39-.94-.722-1.468-.99l-.132-.068-.325-.15-.132-.054-.327-.123-.132-.044c-.715-.235-1.47-.36-2.242-.36l-.203.002-.408.024-.05.004-.407.05-.052.008-.405.077c-.508.11-1 .278-1.468.49l-.458.23-.458.27c-.18.12-.353.24-.52.37-.33.256-.636.538-.918.846-.16.176-.314.36-.46.552h-.74l-.01-.4c.373-.382.78-.73 1.21-1.04.293-.212.6-.406.916-.582l.522-.268.458-.203.458-.174zm-1.615 2.666l.177-.18c.163-.163.34-.316.52-.46.15-.115.3-.225.46-.328.145-.097.3-.188.454-.272.462-.25.955-.44 1.467-.57l.407-.088.05-.01.407-.055.052-.01.405-.026.205-.003c.775 0 1.533.146 2.24.416l.133.05.326.145.133.065.326.175.132.08c.483.294.927.653 1.32 1.07l.147.16.133.16H8.94l.283-.32zm16.027-9.966h2.975v10.287H25.25v-10.287zm-3.428 2.393h1.634v.295H21.82v-.3zm-.672 1.214h2.98v6.675h-.356v-5.71c0-.253-.205-.46-.458-.46s-.458.207-.458.46v5.104L22.49 146v-4.61c0-.253-.204-.46-.457-.46s-.458.207-.458.46v3.577l-.423-.397v-4.144zM8.48 142.03v1.137c-.446.25-.877.53-1.286.842l-.066-1.98H8.48zm-5.336 0h1.54l-.164 4.89-.11.18H3.148v-5.07zm18.605-10.22l.12.085.202.05.206-.05c.225-.113.316-.39.203-.616-.043-.09-.116-.166-.205-.21-.172-.086-.392-.05-.528.086-.14.14-.177.356-.087.533l.084.116zm-1.94-4.32l.205.05c.122 0 .238-.05.324-.136.14-.14.175-.354.087-.532-.044-.09-.117-.162-.206-.206-.077-.04-.167-.055-.255-.045l-.186.07-.086.065c-.14.14-.176.357-.086.535.042.086.113.157.2.2zm-5.18 1.096l.38.21.21.38c.08.148.233.24.4.24s.322-.092.402-.24l.21-.38.38-.21c.147-.08.24-.235.24-.404 0-.168-.093-.323-.24-.403l-.38-.21-.21-.385c-.08-.148-.235-.24-.402-.24-.167 0-.32.093-.4.24l-.21.382-.38.21c-.148.08-.24.233-.24.4s.09.324.24.405z" fill="#206FAC"/><path d="M22.45 110.574c-.272 0-.39-.046-.55-.11-.197-.076-.44-.17-.886-.17s-.69.094-.885.17c-.166.064-.28.11-.556.11s-.39-.046-.552-.11c-.196-.076-.44-.17-.885-.17s-.69.094-.886.17c-.16.064-.28.11-.55.11s-.39-.046-.55-.11c-.198-.076-.44-.17-.887-.17s-.69.094-.885.17c-.16.064-.28.11-.55.11s-.39-.046-.554-.11c-.196-.076-.44-.17-.885-.17s-.69.094-.885.17c-.162.064-.28.11-.552.11s-.39-.046-.55-.11c-.197-.076-.44-.17-.886-.17s-.69.094-.886.17c-.16.064-.28.11-.55.11s-.39-.046-.553-.11c-.195-.076-.44-.17-.884-.17-.446 0-.69.094-.885.17-.16.064-.278.11-.55.11s-.39-.046-.553-.11c-.196-.076-.44-.17-.885-.17-.253 0-.458.205-.458.46s.205.46.458.46c.273 0 .39.045.552.108.196.077.44.172.885.172s.687-.095.883-.172c.162-.063.28-.11.552-.11s.39.047.552.11c.196.077.44.172.885.172s.69-.095.884-.172c.162-.063.28-.11.552-.11s.39.047.55.11c.197.077.44.172.886.172s.69-.095.885-.172c.163-.063.28-.11.553-.11s.39.047.55.11c.197.077.44.172.886.172.444 0 .69-.095.884-.172.162-.063.28-.11.55-.11.274 0 .39.047.553.11.196.077.44.172.885.172s.69-.095.885-.172c.162-.063.28-.11.552-.11s.39.047.55.11c.196.077.44.172.885.172s.69-.095.885-.172c.164-.063.28-.11.554-.11s.39.047.55.11c.197.077.44.172.886.172.255 0 .46-.206.46-.46s-.205-.46-.46-.46m9.54-2.552c0-.508-.41-.92-.916-.92h-1.93V96.355c0-.254-.204-.46-.457-.46H24.79c-.253 0-.458.206-.458.46v2.203c-.072-.158-.23-.27-.416-.27h-2.55c-.254 0-.46.207-.46.46v.76h-.214c-.253 0-.46.205-.46.46v3.87c-.236-.17-.48-.33-.727-.48v-6.704c0-.254-.205-.46-.458-.46h-.734V93.78c0-.255-.205-.46-.458-.46s-.458.205-.458.46v2.414h-.407V93.16c0-.174-.097-.333-.25-.41-.156-.08-.34-.064-.48.04l-3.362 2.478c-.117.087-.187.224-.187.37v4.26h-2.33c-.25 0-.46.206-.46.46v2.135l-.52.216v-1.14c0-.255-.202-.46-.46-.46H7.1l-.31-9.32h.4c.235 0 .43-.18.457-.41l.2-1.834c.015-.13-.026-.26-.113-.358l-.095-.08v-.82c0-.255-.208-.46-.46-.46h-.815v-6.82c0-.254-.205-.46-.458-.46s-.46.206-.46.46v6.82H4.64c-.253 0-.458.205-.458.46v.82l-.096.08c-.087.096-.128.226-.114.356l.2 1.83c.026.234.223.41.457.41h.4l-.31 9.322H2.69c-.253 0-.458.205-.458.46v5.53H.906c-.506 0-.917.41-.917.92 0 .403.255.745.62.87.08.07.18.11.293.11.273 0 .39.047.552.11.196.077.44.17.885.17s.69-.093.886-.17c.162-.063.28-.11.55-.11.274 0 .39.047.553.11.195.077.44.17.884.17s.69-.093.885-.17c.163-.063.28-.11.553-.11s.39.047.552.11c.196.077.44.17.885.17s.69-.093.887-.17c.162-.063.28-.11.552-.11s.39.047.55.11c.195.077.44.17.884.17s.69-.093.885-.17c.16-.063.276-.11.55-.11s.39.047.55.11c.196.077.44.17.885.17s.69-.093.885-.17c.164-.063.28-.11.55-.11.276 0 .39.047.555.11.196.077.44.17.885.17s.69-.093.884-.17c.162-.063.28-.11.552-.11s.39.047.55.11c.197.077.44.17.886.17s.69-.093.885-.17c.162-.063.28-.11.552-.11s.39.047.55.11c.195.077.44.17.884.17s.69-.093.885-.17c.162-.063.28-.11.552-.11s.39.047.55.11c.197.077.44.17.886.17s.69-.093.883-.17c.163-.063.28-.11.553-.11s.39.047.552.11c.195.077.438.17.884.17s.69-.093.885-.17c.16-.063.278-.11.55-.11s.39.047.553.11c.195.077.44.17.885.17.252 0 .457-.204.457-.46v-.005c.273-.16.458-.455.458-.795zm-26.36-6.91l.278-8.26.473 14.25.004.14.025.707h-1l.022-.71v-.03l.204-6.1zm-.535-12.36h1.63v.286H5.092v-.286zm-.16 1.207h1.95l-.1.91H5.034l-.1-.914zm12.19 7.15h1.467v5.747c-.474-.23-.964-.425-1.467-.584V97.11zM16.073 102c-.73-.153-1.48-.234-2.242-.234l-.203.003v-5.9l2.445-1.805V102zm-5.235-1.18h1.467v1.055c-.498.07-.987.176-1.467.313v-1.37zm0 3.296c.476-.166.966-.294 1.467-.38l.406-.06.053-.005.406-.035.05-.004.404-.02.204-.002c.764 0 1.516.098 2.242.283l.132.035.327.095.132.04.327.114.133.05c.51.2 1 .442 1.467.726l.46.3.458.34c.253.2.496.413.728.64.158.153.31.314.46.48l.064.074h-1.12l-.133-.17c-.145-.183-.298-.358-.458-.524-.15-.15-.3-.297-.46-.435-.45-.39-.94-.722-1.468-.99l-.132-.068-.325-.15-.132-.054-.327-.123-.132-.044c-.715-.235-1.47-.36-2.242-.36l-.203.002-.408.024-.05.004-.407.05-.052.008-.405.077c-.508.11-1 .278-1.468.49l-.458.23-.458.27c-.18.12-.353.24-.52.37-.33.256-.636.538-.918.846-.16.176-.314.36-.46.552h-.74l-.01-.4c.373-.382.78-.73 1.21-1.04.293-.212.6-.406.916-.582l.522-.268.458-.203.458-.174zm-1.615 2.666l.177-.18c.163-.163.34-.316.52-.46.15-.115.3-.225.46-.328.145-.097.3-.188.454-.272.462-.25.955-.44 1.467-.57l.407-.088.05-.01.407-.055.052-.01.405-.026.205-.003c.775 0 1.533.146 2.24.416l.133.05.326.145.133.065.326.175.132.08c.483.294.927.653 1.32 1.07l.147.16.133.16H8.94l.283-.32zm16.027-9.966h2.975v10.287H25.25V96.816zM21.82 99.21h1.634v.295H21.82v-.3zm-.672 1.214h2.98v6.675h-.356v-5.71c0-.253-.205-.46-.458-.46s-.458.207-.458.46v5.104L22.49 106v-4.61c0-.253-.204-.46-.457-.46s-.458.207-.458.46v3.577l-.423-.397v-4.144zM8.48 102.03v1.137c-.446.25-.877.53-1.286.842l-.066-1.98H8.48zm-5.336 0h1.54l-.164 4.89-.11.18H3.148v-5.07zM21.75 91.81l.12.085.204.05.206-.05c.226-.113.317-.39.204-.616-.044-.09-.117-.166-.206-.21-.172-.086-.392-.05-.528.086-.14.14-.176.356-.086.533l.084.116zm-1.94-4.32l.207.05c.122 0 .238-.05.324-.136.14-.14.178-.354.09-.532-.044-.09-.117-.162-.206-.206-.078-.04-.168-.055-.256-.045l-.186.07-.084.065c-.14.14-.176.357-.086.535.043.086.114.157.2.2zm-5.18 1.096l.382.21.208.38c.08.148.235.24.402.24.167 0 .322-.092.402-.24l.21-.38.38-.21c.147-.08.24-.235.24-.404 0-.168-.093-.323-.24-.403l-.38-.21-.21-.385c-.08-.148-.235-.24-.402-.24-.168 0-.322.093-.402.24l-.21.382-.38.21c-.147.08-.238.233-.238.4s.09.324.238.405z" fill="#fff"/><path d="M22.45 70.574c-.272 0-.39-.046-.55-.11-.197-.076-.44-.17-.886-.17s-.69.094-.885.17c-.166.064-.28.11-.556.11s-.39-.046-.552-.11c-.196-.076-.44-.17-.885-.17s-.69.094-.886.17c-.16.064-.28.11-.55.11s-.39-.046-.55-.11c-.198-.076-.44-.17-.887-.17s-.69.094-.885.17c-.16.064-.28.11-.55.11s-.39-.046-.554-.11c-.196-.076-.44-.17-.885-.17s-.69.094-.885.17c-.162.064-.28.11-.552.11s-.39-.046-.55-.11c-.197-.076-.44-.17-.886-.17s-.69.094-.886.17c-.16.064-.28.11-.55.11s-.39-.046-.553-.11c-.195-.076-.44-.17-.884-.17-.446 0-.69.094-.885.17-.16.064-.278.11-.55.11s-.39-.046-.553-.11c-.196-.076-.44-.17-.885-.17-.253 0-.458.205-.458.46s.205.46.458.46c.273 0 .39.045.552.108.196.077.44.172.885.172s.687-.095.883-.172c.162-.063.28-.11.552-.11s.39.047.552.11c.196.077.44.172.885.172s.69-.095.884-.172c.162-.063.28-.11.552-.11s.39.047.55.11c.197.077.44.172.886.172s.69-.095.885-.172c.163-.063.28-.11.553-.11s.39.047.55.11c.197.077.44.172.886.172.444 0 .69-.095.884-.172.162-.063.28-.11.55-.11.274 0 .39.047.553.11.196.077.44.172.885.172s.69-.095.885-.172c.162-.063.28-.11.552-.11s.39.047.55.11c.196.077.44.172.885.172s.69-.095.885-.172c.164-.063.28-.11.554-.11s.39.047.55.11c.197.077.44.172.886.172.255 0 .46-.206.46-.46s-.205-.46-.46-.46m9.54-2.552c0-.508-.41-.92-.916-.92h-1.93V56.355c0-.254-.204-.46-.457-.46H24.79c-.253 0-.458.206-.458.46v2.203c-.072-.158-.23-.27-.416-.27h-2.55c-.254 0-.46.207-.46.46v.76h-.214c-.253 0-.46.205-.46.46v3.87c-.236-.17-.48-.33-.727-.48v-6.704c0-.254-.205-.46-.458-.46h-.734V53.78c0-.255-.205-.46-.458-.46s-.458.205-.458.46v2.414h-.407V53.16c0-.174-.097-.333-.25-.41-.156-.08-.34-.064-.48.04l-3.362 2.478c-.117.087-.187.224-.187.37v4.26h-2.33c-.25 0-.46.206-.46.46v2.135l-.52.216v-1.14c0-.256-.202-.46-.46-.46H7.1l-.31-9.32h.4c.235 0 .43-.18.457-.41l.2-1.835c.015-.13-.026-.26-.113-.358l-.095-.08v-.82c0-.255-.208-.46-.46-.46h-.815v-6.82c0-.254-.205-.46-.458-.46s-.46.206-.46.46v6.82H4.64c-.253 0-.458.205-.458.46v.82l-.096.08c-.087.096-.128.226-.114.356l.2 1.83c.026.234.223.41.457.41h.4l-.31 9.322H2.69c-.253 0-.458.206-.458.46v5.53H.906c-.506 0-.917.412-.917.92 0 .404.255.746.62.87.08.07.18.112.293.112.273 0 .39.046.552.11.196.076.44.17.885.17s.69-.094.886-.17c.162-.064.28-.11.55-.11.274 0 .39.046.553.11.195.076.44.17.884.17s.69-.094.885-.17c.163-.064.28-.11.553-.11s.39.046.552.11c.196.076.44.17.885.17s.69-.094.887-.17c.162-.064.28-.11.552-.11s.39.046.55.11c.195.076.44.17.884.17s.69-.094.885-.17c.16-.064.276-.11.55-.11s.39.046.55.11c.196.076.44.17.885.17s.69-.094.885-.17c.164-.064.28-.11.55-.11.276 0 .39.046.555.11.196.076.44.17.885.17s.69-.094.884-.17c.162-.064.28-.11.552-.11s.39.046.55.11c.197.076.44.17.886.17s.69-.094.885-.17c.162-.064.28-.11.552-.11s.39.046.55.11c.195.076.44.17.884.17s.69-.094.885-.17c.162-.064.28-.11.552-.11s.39.046.55.11c.197.076.44.17.886.17s.69-.094.883-.17c.163-.064.28-.11.553-.11s.39.046.552.11c.195.076.438.17.884.17s.69-.094.885-.17c.16-.064.278-.11.55-.11s.39.046.553.11c.195.076.44.17.885.17.252 0 .457-.205.457-.46v-.006c.273-.16.458-.455.458-.795zm-26.36-6.91l.278-8.26.473 14.25.004.14.025.707h-1l.022-.71v-.03l.204-6.1zm-.535-12.36h1.63v.286H5.092v-.286zm-.16 1.207h1.95l-.1.91H5.034l-.1-.914zm12.19 7.15h1.467v5.747c-.474-.23-.964-.425-1.467-.584V57.11zM16.073 62c-.73-.153-1.48-.234-2.242-.234l-.203.003v-5.9l2.445-1.805V62zm-5.235-1.18h1.467v1.055c-.498.07-.987.176-1.467.313v-1.37zm0 3.296c.476-.166.966-.294 1.467-.38l.406-.06.053-.005.406-.035.05-.004.404-.02.204-.002c.764 0 1.516.098 2.242.283l.132.035.327.095.132.04.327.114.133.05c.51.2 1 .442 1.467.726l.46.3.458.34c.253.2.496.413.728.64.158.153.31.314.46.48l.064.074h-1.12l-.133-.17c-.145-.183-.298-.358-.458-.524-.15-.15-.3-.297-.46-.435-.45-.39-.94-.722-1.468-.99l-.132-.068-.325-.15-.132-.054-.327-.123-.132-.044c-.715-.235-1.47-.36-2.242-.36l-.203.002-.408.024-.05.004-.407.05-.052.008-.405.077c-.508.11-1 .278-1.468.49l-.458.23-.458.27c-.18.12-.353.24-.52.37-.33.256-.636.538-.918.846-.16.176-.314.36-.46.552h-.74l-.01-.4c.373-.382.78-.73 1.21-1.04.293-.212.6-.406.916-.582l.522-.268.458-.203.458-.174zm-1.615 2.666l.177-.18c.163-.163.34-.316.52-.46.15-.115.3-.225.46-.328.145-.097.3-.188.454-.272.462-.25.955-.44 1.467-.57l.407-.088.05-.01.407-.055.052-.01.405-.026.205-.003c.775 0 1.533.146 2.24.416l.133.05.326.145.133.065.326.175.132.08c.483.294.927.653 1.32 1.07l.147.16.133.16H8.94l.283-.32zm16.027-9.966h2.975v10.287H25.25V56.816zM21.82 59.21h1.634v.295H21.82v-.3zm-.672 1.214h2.98V67.1h-.356v-5.71c0-.252-.205-.46-.458-.46s-.458.208-.458.46v5.105L22.493 66v-4.607c0-.254-.205-.46-.458-.46s-.458.206-.458.46v3.576l-.423-.4v-4.145zM8.483 62.03v1.137c-.447.25-.878.53-1.287.842l-.066-1.98h1.35zm-5.337 0h1.54l-.164 4.89-.11.18H3.15v-5.07zM21.75 51.81l.12.085.204.05.206-.05c.226-.113.317-.39.204-.616-.044-.09-.117-.166-.206-.21-.172-.086-.392-.05-.528.086-.14.14-.176.356-.086.533l.084.116zm-1.94-4.32l.207.05c.122 0 .238-.05.324-.136.14-.14.178-.354.09-.532-.044-.09-.117-.162-.206-.206-.078-.04-.168-.055-.256-.045l-.186.07-.084.065c-.14.14-.176.357-.086.535.043.086.114.157.2.2zm-5.18 1.096l.382.21.208.38c.08.148.235.24.402.24.167 0 .322-.092.402-.24l.21-.38.38-.21c.147-.08.24-.235.24-.404 0-.168-.093-.323-.24-.403l-.38-.21-.21-.385c-.08-.148-.235-.24-.402-.24-.168 0-.322.093-.402.24l-.21.382-.38.21c-.147.08-.238.233-.238.4s.09.324.238.405z" fill="#67737B"/><path d="M22.45 30.574c-.272 0-.39-.046-.55-.11-.197-.076-.44-.17-.886-.17s-.69.094-.885.17c-.166.064-.28.11-.556.11s-.39-.046-.552-.11c-.196-.076-.44-.17-.885-.17s-.69.094-.886.17c-.16.064-.28.11-.55.11s-.39-.046-.55-.11c-.198-.076-.44-.17-.887-.17s-.69.094-.885.17c-.16.064-.28.11-.55.11s-.39-.046-.554-.11c-.196-.076-.44-.17-.885-.17s-.69.094-.885.17c-.162.064-.28.11-.552.11s-.39-.046-.55-.11c-.197-.076-.44-.17-.886-.17s-.69.094-.886.17c-.16.064-.28.11-.55.11s-.39-.046-.553-.11c-.195-.076-.44-.17-.884-.17-.446 0-.69.094-.885.17-.16.064-.278.11-.55.11s-.39-.046-.553-.11c-.196-.076-.44-.17-.885-.17-.253 0-.458.205-.458.46s.205.46.458.46c.273 0 .39.045.552.108.196.077.44.172.885.172s.687-.095.883-.172c.162-.063.28-.11.552-.11s.39.047.552.11c.196.077.44.172.885.172s.69-.095.884-.172c.162-.063.28-.11.552-.11s.39.047.55.11c.197.077.44.172.886.172s.69-.095.885-.172c.163-.063.28-.11.553-.11s.39.047.55.11c.197.077.44.172.886.172.444 0 .69-.095.884-.172.162-.063.28-.11.55-.11.274 0 .39.047.553.11.196.077.44.172.885.172s.69-.095.885-.172c.162-.063.28-.11.552-.11s.39.047.55.11c.196.077.44.172.885.172s.69-.095.885-.172c.164-.063.28-.11.554-.11s.39.047.55.11c.197.077.44.172.886.172.255 0 .46-.206.46-.46s-.205-.46-.46-.46m9.54-2.552c0-.508-.41-.92-.916-.92h-1.93V16.355c0-.254-.204-.46-.457-.46H24.79c-.253 0-.458.206-.458.46v2.203c-.072-.158-.23-.27-.416-.27h-2.55c-.254 0-.46.207-.46.46v.76h-.214c-.253 0-.46.205-.46.46v3.87c-.236-.17-.48-.33-.727-.48v-6.704c0-.254-.205-.46-.458-.46h-.734V13.78c0-.255-.205-.46-.458-.46s-.458.205-.458.46v2.414h-.407V13.16c0-.174-.097-.333-.25-.41-.156-.08-.34-.064-.48.04l-3.362 2.478c-.117.087-.187.224-.187.37v4.26h-2.33c-.25 0-.46.206-.46.46v2.135l-.52.216v-1.14c0-.256-.202-.46-.46-.46H7.1l-.31-9.32h.4c.235 0 .43-.18.457-.41l.2-1.835c.015-.13-.026-.26-.113-.358l-.095-.08v-.82c0-.255-.208-.46-.46-.46h-.815V1.01c0-.254-.205-.46-.458-.46s-.46.206-.46.46v6.82H4.64c-.253 0-.458.205-.458.46v.82l-.096.08c-.087.096-.128.226-.114.356l.2 1.83c.026.234.223.41.457.41h.4l-.31 9.322H2.69c-.253 0-.458.206-.458.46v5.53H.906c-.506 0-.917.412-.917.92 0 .404.255.746.62.87.08.07.18.112.293.112.273 0 .39.046.552.11.196.076.44.17.885.17s.69-.094.886-.17c.162-.064.28-.11.55-.11.274 0 .39.046.553.11.195.076.44.17.884.17s.69-.094.885-.17c.163-.064.28-.11.553-.11s.39.046.552.11c.196.076.44.17.885.17s.69-.094.887-.17c.162-.064.28-.11.552-.11s.39.046.55.11c.195.076.44.17.884.17s.69-.094.885-.17c.16-.064.276-.11.55-.11s.39.046.55.11c.196.076.44.17.885.17s.69-.094.885-.17c.164-.064.28-.11.55-.11.276 0 .39.046.555.11.196.076.44.17.885.17s.69-.094.884-.17c.162-.064.28-.11.552-.11s.39.046.55.11c.197.076.44.17.886.17s.69-.094.885-.17c.162-.064.28-.11.552-.11s.39.046.55.11c.195.076.44.17.884.17s.69-.094.885-.17c.162-.064.28-.11.552-.11s.39.046.55.11c.197.076.44.17.886.17s.69-.094.883-.17c.163-.064.28-.11.553-.11s.39.046.552.11c.195.076.438.17.884.17s.69-.094.885-.17c.16-.064.278-.11.55-.11s.39.046.553.11c.195.076.44.17.885.17.252 0 .457-.205.457-.46v-.006c.273-.16.458-.456.458-.796zm-26.36-6.91l.278-8.26.473 14.25.004.14.025.707h-1l.022-.71v-.03l.204-6.1zM5.09 8.752h1.63v.286H5.092v-.286zM4.93 9.96h1.95l-.1.91H5.034l-.1-.914zm12.19 7.15h1.467v5.747c-.474-.23-.964-.425-1.467-.584V17.11zM16.073 22c-.73-.153-1.48-.234-2.242-.234l-.203.003v-5.9l2.445-1.805V22zm-5.235-1.18h1.467v1.055c-.498.07-.987.176-1.467.313v-1.37zm0 3.296c.476-.166.966-.294 1.467-.38l.406-.06.053-.005.406-.035.05-.004.404-.02.204-.002c.764 0 1.516.098 2.242.283l.132.035.327.095.132.04.327.114.133.05c.51.2 1 .442 1.467.726l.46.3.458.34c.253.2.496.413.728.64.158.153.31.314.46.48l.064.074h-1.12l-.133-.17c-.145-.183-.298-.358-.458-.524-.15-.15-.3-.297-.46-.435-.45-.39-.94-.722-1.468-.99l-.132-.068-.325-.15-.132-.054-.327-.123-.132-.044c-.715-.235-1.47-.36-2.242-.36l-.203.002-.408.024-.05.004-.407.05-.052.008-.405.077c-.508.11-1 .278-1.468.49l-.458.23-.458.27c-.18.12-.353.24-.52.37-.33.256-.636.538-.918.846-.16.176-.314.36-.46.552h-.74l-.01-.4c.373-.382.78-.73 1.21-1.04.293-.212.6-.406.916-.582l.522-.268.458-.203.458-.174zm-1.615 2.666l.177-.18c.163-.163.34-.316.52-.46.15-.115.3-.225.46-.328.145-.097.3-.188.454-.272.462-.25.955-.44 1.467-.57l.407-.088.05-.01.407-.055.052-.01.405-.026.205-.003c.775 0 1.533.146 2.24.416l.133.05.326.145.133.065.326.175.132.08c.483.294.927.653 1.32 1.07l.147.16.133.16H8.94l.283-.32zm16.027-9.966h2.975v10.287H25.25V16.816zM21.82 19.21h1.634v.295H21.82v-.3zm-.672 1.214h2.98V27.1h-.356v-5.71c0-.252-.205-.46-.458-.46s-.458.208-.458.46v5.105L22.493 26v-4.607c0-.254-.205-.46-.458-.46s-.458.206-.458.46v3.576l-.423-.4v-4.145zM8.483 22.03v1.137c-.447.25-.878.53-1.287.842l-.066-1.98h1.35zm-5.337 0h1.54l-.164 4.89-.11.18H3.15v-5.07zM21.75 11.81l.12.085.204.05.206-.05c.226-.113.317-.39.204-.616-.044-.09-.117-.166-.206-.21-.172-.086-.392-.05-.528.086-.14.14-.176.356-.086.533l.084.116zm-1.94-4.32l.207.05c.122 0 .238-.05.324-.136.14-.14.178-.354.09-.532-.044-.09-.117-.162-.206-.206-.078-.04-.168-.055-.256-.045l-.186.07-.084.065c-.14.14-.176.357-.086.535.043.086.114.157.2.2zm-5.18 1.096l.382.21.208.38c.08.148.235.24.402.24.167 0 .322-.092.402-.24l.21-.38.38-.21c.147-.08.24-.235.24-.404 0-.168-.093-.323-.24-.403l-.38-.21-.21-.385c-.08-.148-.235-.24-.402-.24-.168 0-.322.093-.402.24l-.21.382-.38.21c-.147.08-.238.233-.238.4s.09.324.238.405z" fill="#3A434E"/></g></svg>