<svg width="32" height="232" viewBox="0 0 32 232" xmlns="http://www.w3.org/2000/svg" xmlns:sketch="http://www.bohemiancoding.com/sketch/ns"><title>chennai-india</title><desc>Created with Sketch.</desc><g sketch:type="MSPage" fill="none"><g sketch:type="MSShapeGroup"><path d="M30.405 150.163v-6.516l.002-.019-.009-.092-.273-2.608c-.025-.243-.232-.428-.478-.428h-1.628l.009-.084v-1.015c.524-.008.947-.432.947-.955 0-.528-.431-.955-.961-.955h-5.683c-.531 0-.962.428-.962.955 0 .523.423.947.947.955v1.015l.009.084h-1.549v-11.826c0-.261-.106-.498-.277-.67v-1.605c0-.264-.215-.478-.481-.478s-.481.214-.481.478v.192l-1.488-3.921c-.044-.116-.131-.208-.238-.26v-1.907c0-.264-.215-.478-.481-.478s-.481.214-.481.478v1.858h-1.809v-1.858c0-.264-.215-.478-.481-.478s-.481.214-.481.478v1.907c-.108.052-.194.144-.238.26l-1.488 3.921v-.192c0-.264-.215-.478-.481-.478s-.481.214-.481.478v1.605c-.171.172-.277.409-.277.67v11.826h-7.016v-2.7l.239.01c.359 0 .701-.063 1.032-.124.302-.055.586-.108.857-.108.195 0 .367.028.525.086.147.054.313.033.442-.056s.206-.236.206-.392v-2.003c0-.2-.125-.379-.314-.448-.266-.098-.547-.145-.858-.145-.359 0-.701.063-1.032.124-.302.055-.586.108-.857.108l-.267-.02c-.066-.187-.242-.322-.452-.322-.266 0-.481.214-.481.478v5.512h-.894c-.246 0-.453.185-.478.428l-.277 2.651v.024l-.003.025v3.753l-.002.024.002.024v2.733c-.287.165-.481.473-.481.826 0 .528.431.955.962.955h27.959c.531 0 .961-.428.961-.955 0-.354-.194-.661-.481-.826zm-27.73-8.708h8.438v1.696h-8.615l.177-1.696zm10.276-13.736l1.671-4.402h2.644l1.853 4.88h-1.014l-.095-.099-1.8-1.376c-.175-.133-.419-.132-.592.004l-1.259.993-.486.383-.09.094h-1.013l.181-.478zm16.44 15.432h-8.615v-1.696h8.438l.177 1.696zm-26.945.955h8.668v2.822h-8.668v-2.822zm18.33 0h8.668v2.822h-8.668v-2.822zm-1.955 6.883l-.023-.146c-.03-.164-.073-.324-.129-.478l-.148-.331c-.483-.926-1.456-1.561-2.577-1.561s-2.094.635-2.577 1.561l-.148.331c-.057.154-.1.313-.129.478l-.023.146-.007.055h-.515l.001-.055.005-.146c.01-.163.03-.322.063-.478l.087-.331c.082-.26.195-.506.335-.735.596-.977 1.677-1.631 2.908-1.631 1.232 0 2.312.654 2.908 1.631.14.229.252.475.335.735l.086.331c.032.156.053.315.063.478l.005.146.002.055h-.515l-.007-.055zm-5.784-7.36v-1.361c.086-.327.279-.611.541-.813.258-.199.58-.318.931-.318.341 0 .666.113.932.318l.135.116c.187.183.487.183.674 0l.135-.116c.266-.206.591-.318.932-.318.351 0 .673.12.931.318.359.277.592.709.592 1.194l.015.113v5.059c-.772-.688-1.792-1.108-2.908-1.108-1.116 0-2.136.42-2.908 1.108v-4.192zm.971 7.692l.026-.277.008-.055.035-.146c.047-.17.117-.33.206-.478.072-.12.157-.231.253-.331.354-.372.853-.606 1.408-.606.555 0 1.055.234 1.408.606.096.101.18.212.253.331.089.148.159.308.206.478l.035.146.008.055.026.277.002.033h-3.878l.002-.033zm14.334-1.287v-1.095c-.011-.226-.198-.405-.428-.405-.23 0-.417.18-.428.405v1.095h-.559v-1.095c-.011-.226-.198-.405-.428-.405-.23 0-.417.18-.428.405v1.095h-.559v-1.095c-.011-.226-.198-.405-.428-.405-.23 0-.417.18-.428.405v1.095h-.559v-1.095c-.011-.226-.198-.405-.428-.405-.23 0-.417.18-.428.405v1.095h-.56v-1.095c-.01-.226-.198-.405-.428-.405-.23 0-.417.18-.428.405v1.095h-1.05v-2.151h8.668v2.151h-1.103zm-9.488-15.056c-.423-.333-.957-.532-1.538-.532-.327 0-.645.064-.939.184v-.71h2.477v1.058zm-4.2-5.826v-.445l.042-.033 1.211-.955.016-.012.016.012 1.25.955.049.037v2.258h-2.583v-1.818zm4.2 3.813h-2.477v-1.04h1.341c.266 0 .481-.214.481-.478v-1.818h.655v3.335zm-4.68-1.04h1.242v1.04h-2.378v-3.335h.655v1.818c0 .264.215.478.481.478zm-1.136 1.995h2.378v.696c-.285-.111-.591-.169-.906-.169-.55 0-1.059.179-1.472.481v-1.007zm0 2.612c.171-.649.765-1.131 1.472-1.131.401 0 .78.154 1.067.434.187.183.487.183.674 0 .287-.28.666-.434 1.067-.434.84 0 1.523.679 1.523 1.513l.015.113v3.686c-.1-.079-.207-.15-.319-.213-.36-.202-.776-.318-1.218-.318-.433 0-.851.111-1.219.318l-.184.114-.184-.114c-.368-.207-.786-.318-1.219-.318-.442 0-.858.116-1.218.318l-.253.163v-4.131zm-10.591 11.351h8.668v2.151h-1.05v-1.095c-.011-.226-.198-.405-.428-.405-.23 0-.417.18-.428.405v1.095h-.559v-1.095c-.01-.226-.198-.405-.428-.405-.23 0-.417.18-.428.405v1.095h-.559v-1.095c-.011-.226-.198-.405-.428-.405-.23 0-.417.18-.428.405v1.095h-.559v-1.095c-.011-.226-.198-.405-.428-.405-.23 0-.417.18-.428.405v1.095h-.56v-1.095c-.008-.184-.135-.335-.306-.386l-.122-.019c-.151 0-.283.079-.359.196-.039.061-.065.132-.069.209v1.095h-1.103v-2.151zm20.832-7.468v-1.015h3.789v1.015l.008.084h-3.806l.008-.084zm-17.909-4.733c.301-.055.586-.108.857-.108l.211.012v1.043l-.21-.008c-.359 0-.701.063-1.032.124-.302.055-.586.108-.857.108l-.211-.012v-1.043l.211.008c.359 0 .701-.063 1.032-.124zm17.293-4.661c.222.194.506.301.8.301h1.67l-.005.091c0 .3.13.586.357.785.193.169.44.262.696.262h3.514c.581 0 1.053-.469 1.053-1.046 0-.577-.472-1.046-1.053-1.046h-.101l.026-.248c0-.663-.543-1.203-1.211-1.203h-4.946c-.295 0-.579.107-.8.301-.261.229-.411.558-.411.902s.15.673.411.902zm.636-1.088c.032-.028.087-.062.164-.062h4.946c.138 0 .25.111.25.248s-.112.248-.25.248c-.265 0-.481.214-.481.478h-.002c0 .264.215.478.481.478h1.288c.05 0 .091.041.091.091 0 .05-.041.091-.091.091h-3.514l-.06-.023-.031-.068.032-.068.059-.023h.002c.265 0 .481-.214.481-.478s-.215-.478-.481-.478h-2.72c-.077 0-.132-.034-.164-.062-.032-.028-.085-.089-.085-.186 0-.096.053-.158.085-.186zm-19.2 16.508h.306v-1.312c-.008-.184-.135-.335-.306-.386l-.122-.019c-.151 0-.283.079-.359.196-.039.061-.065.132-.069.209v1.312h.549zm1.721-1.312c-.011-.226-.198-.405-.428-.405-.23 0-.417.18-.428.405v1.312h.856v-1.312zm4.245 0c-.011-.226-.198-.405-.428-.405-.23 0-.417.18-.428.405v1.312h.855v-1.312zm-2.83 0c-.011-.226-.198-.405-.428-.405-.23 0-.417.18-.428.405v1.312h.856v-1.312zm1.415 0c-.01-.226-.198-.405-.428-.405-.23 0-.417.18-.428.405v1.312h.856v-1.312zm14.033 0c-.01-.226-.198-.405-.428-.405-.23 0-.417.18-.428.405v1.312h.855v-1.312zm1.415 0c-.011-.226-.198-.405-.428-.405-.23 0-.417.18-.428.405v1.312h.856v-1.312zm4.245 0c-.011-.226-.198-.405-.428-.405-.23 0-.417.18-.428.405v1.312h.855v-1.312zm-2.83 0c-.011-.226-.198-.405-.428-.405-.23 0-.417.18-.428.405v1.312h.856v-1.312zm1.415 0c-.011-.226-.198-.405-.428-.405-.23 0-.417.18-.428.405v1.312h.856v-1.312zm-12.762-5.573h3.561c.266 0 .481-.214.481-.478 0-.228-.161-.419-.377-.466v-1.78c-.018-.386-.339-.693-.732-.693-.393 0-.714.307-.732.693v1.768h-.841v-1.768c-.018-.386-.339-.693-.732-.693-.393 0-.714.307-.732.693v1.78c-.216.047-.377.238-.377.466 0 .264.215.478.481.478zm0 5.646h3.561c.266 0 .481-.214.481-.478 0-.228-.161-.418-.377-.466v-1.78c-.018-.386-.339-.693-.732-.693-.393 0-.714.307-.732.693v1.768h-.841v-1.768c-.018-.386-.339-.693-.732-.693-.393 0-.714.307-.732.693v1.78c-.216.047-.377.238-.377.466 0 .264.215.478.481.478zm1.781-15.076c.311 0 .572-.211.647-.497l.023-.168c0-.112-.028-.217-.077-.31-.112-.211-.335-.356-.592-.356-.257 0-.48.144-.592.356-.049.093-.077.198-.077.31l.022.168c.075.286.336.497.647.497z" fill="#206FAC"/><path d="M30.405 110.163v-6.516l.002-.019-.009-.092-.273-2.608c-.025-.243-.232-.428-.478-.428h-1.628l.009-.084v-1.015c.524-.008.947-.432.947-.955 0-.528-.431-.955-.961-.955h-5.683c-.531 0-.962.428-.962.955 0 .523.423.947.947.955v1.015l.009.084h-1.549v-11.826c0-.261-.106-.498-.277-.67v-1.605c0-.264-.215-.478-.481-.478s-.481.214-.481.478v.192l-1.488-3.921c-.044-.116-.131-.208-.238-.26v-1.907c0-.264-.215-.478-.481-.478s-.481.214-.481.478v1.858h-1.809v-1.858c0-.264-.215-.478-.481-.478s-.481.214-.481.478v1.907c-.108.052-.194.144-.238.26l-1.488 3.921v-.192c0-.264-.215-.478-.481-.478s-.481.214-.481.478v1.605c-.171.172-.277.409-.277.67v11.826h-7.016v-2.7l.239.01c.359 0 .701-.063 1.032-.124.302-.055.586-.108.857-.108.195 0 .367.028.525.086.147.054.313.033.442-.056s.206-.236.206-.392v-2.003c0-.2-.125-.379-.314-.448-.266-.098-.547-.145-.858-.145-.359 0-.701.063-1.032.124-.302.055-.586.108-.857.108l-.267-.02c-.066-.187-.242-.322-.452-.322-.266 0-.481.214-.481.478v5.512h-.894c-.246 0-.453.185-.478.428l-.277 2.651v.024l-.003.025v3.753l-.002.024.002.024v2.733c-.287.165-.481.473-.481.826 0 .528.431.955.962.955h27.959c.531 0 .961-.428.961-.955 0-.354-.194-.661-.481-.826zm-27.73-8.708h8.438v1.696h-8.615l.177-1.696zm10.276-13.736l1.671-4.402h2.644l1.853 4.88h-1.014l-.095-.099-1.8-1.376c-.175-.133-.419-.132-.592.004l-1.259.993-.486.383-.09.094h-1.013l.181-.478zm16.44 15.432h-8.615v-1.696h8.438l.177 1.696zm-26.945.955h8.668v2.822h-8.668v-2.822zm18.33 0h8.668v2.822h-8.668v-2.822zm-1.955 6.883l-.023-.146c-.03-.164-.073-.324-.129-.478l-.148-.331c-.483-.926-1.456-1.561-2.577-1.561s-2.094.635-2.577 1.561l-.148.331c-.057.154-.1.313-.129.478l-.023.146-.007.055h-.515l.001-.055.005-.146c.01-.163.03-.322.063-.478l.087-.331c.082-.26.195-.506.335-.735.596-.977 1.677-1.631 2.908-1.631 1.232 0 2.312.654 2.908 1.631.14.229.252.475.335.735l.086.331c.032.156.053.315.063.478l.005.146.002.055h-.515l-.007-.055zm-5.784-7.36v-1.361c.086-.327.279-.611.541-.813.258-.199.58-.318.931-.318.341 0 .666.113.932.318l.135.116c.187.183.487.183.674 0l.135-.116c.266-.206.591-.318.932-.318.351 0 .673.12.931.318.359.277.592.709.592 1.194l.015.113v5.059c-.772-.688-1.792-1.108-2.908-1.108-1.116 0-2.136.42-2.908 1.108v-4.192zm.971 7.692l.026-.277.008-.055.035-.146c.047-.17.117-.33.206-.478.072-.12.157-.231.253-.331.354-.372.853-.606 1.408-.606.555 0 1.055.234 1.408.606.096.101.18.212.253.331.089.148.159.308.206.478l.035.146.008.055.026.277.002.033h-3.878l.002-.033zm14.334-1.287v-1.095c-.011-.226-.198-.405-.428-.405-.23 0-.417.18-.428.405v1.095h-.559v-1.095c-.011-.226-.198-.405-.428-.405-.23 0-.417.18-.428.405v1.095h-.559v-1.095c-.011-.226-.198-.405-.428-.405-.23 0-.417.18-.428.405v1.095h-.559v-1.095c-.011-.226-.198-.405-.428-.405-.23 0-.417.18-.428.405v1.095h-.56v-1.095c-.01-.226-.198-.405-.428-.405-.23 0-.417.18-.428.405v1.095h-1.05v-2.151h8.668v2.151h-1.103zm-9.488-15.056c-.423-.333-.957-.532-1.538-.532-.327 0-.645.064-.939.184v-.71h2.477v1.058zm-4.2-5.826v-.445l.042-.033 1.211-.955.016-.012.016.012 1.25.955.049.037v2.258h-2.583v-1.818zm4.2 3.813h-2.477v-1.04h1.341c.266 0 .481-.214.481-.478v-1.818h.655v3.335zm-4.68-1.04h1.242v1.04h-2.378v-3.335h.655v1.818c0 .264.215.478.481.478zm-1.136 1.995h2.378v.696c-.285-.111-.591-.169-.906-.169-.55 0-1.059.179-1.472.481v-1.007zm0 2.612c.171-.649.765-1.131 1.472-1.131.401 0 .78.154 1.067.434.187.183.487.183.674 0 .287-.28.666-.434 1.067-.434.84 0 1.523.679 1.523 1.513l.015.113v3.686c-.1-.079-.207-.15-.319-.213-.36-.202-.776-.318-1.218-.318-.433 0-.851.111-1.219.318l-.184.114-.184-.114c-.368-.207-.786-.318-1.219-.318-.442 0-.858.116-1.218.318l-.253.163v-4.131zm-10.591 11.351h8.668v2.151h-1.05v-1.095c-.011-.226-.198-.405-.428-.405-.23 0-.417.18-.428.405v1.095h-.559v-1.095c-.01-.226-.198-.405-.428-.405-.23 0-.417.18-.428.405v1.095h-.559v-1.095c-.011-.226-.198-.405-.428-.405-.23 0-.417.18-.428.405v1.095h-.559v-1.095c-.011-.226-.198-.405-.428-.405-.23 0-.417.18-.428.405v1.095h-.56v-1.095c-.008-.184-.135-.335-.306-.386l-.122-.019c-.151 0-.283.079-.359.196-.039.061-.065.132-.069.209v1.095h-1.103v-2.151zm20.832-7.468v-1.015h3.789v1.015l.008.084h-3.806l.008-.084zm-17.909-4.733c.301-.055.586-.108.857-.108l.211.012v1.043l-.21-.008c-.359 0-.701.063-1.032.124-.302.055-.586.108-.857.108l-.211-.012v-1.043l.211.008c.359 0 .701-.063 1.032-.124zm17.293-4.661c.222.194.506.301.8.301h1.67l-.005.091c0 .3.13.586.357.785.193.169.44.262.696.262h3.514c.581 0 1.053-.469 1.053-1.046 0-.577-.472-1.046-1.053-1.046h-.101l.026-.248c0-.663-.543-1.203-1.211-1.203h-4.946c-.295 0-.579.107-.8.301-.261.229-.411.558-.411.902s.15.673.411.902zm.636-1.088c.032-.028.087-.062.164-.062h4.946c.138 0 .25.111.25.248s-.112.248-.25.248c-.265 0-.481.214-.481.478h-.002c0 .264.215.478.481.478h1.288c.05 0 .091.041.091.091 0 .05-.041.091-.091.091h-3.514l-.06-.023-.031-.068.032-.068.059-.023h.002c.265 0 .481-.214.481-.478s-.215-.478-.481-.478h-2.72c-.077 0-.132-.034-.164-.062-.032-.028-.085-.089-.085-.186 0-.096.053-.158.085-.186zm-19.2 16.508h.306v-1.312c-.008-.184-.135-.335-.306-.386l-.122-.019c-.151 0-.283.079-.359.196-.039.061-.065.132-.069.209v1.312h.549zm1.721-1.312c-.011-.226-.198-.405-.428-.405-.23 0-.417.18-.428.405v1.312h.856v-1.312zm4.245 0c-.011-.226-.198-.405-.428-.405-.23 0-.417.18-.428.405v1.312h.855v-1.312zm-2.83 0c-.011-.226-.198-.405-.428-.405-.23 0-.417.18-.428.405v1.312h.856v-1.312zm1.415 0c-.01-.226-.198-.405-.428-.405-.23 0-.417.18-.428.405v1.312h.856v-1.312zm14.033 0c-.01-.226-.198-.405-.428-.405-.23 0-.417.18-.428.405v1.312h.855v-1.312zm1.415 0c-.011-.226-.198-.405-.428-.405-.23 0-.417.18-.428.405v1.312h.856v-1.312zm4.245 0c-.011-.226-.198-.405-.428-.405-.23 0-.417.18-.428.405v1.312h.855v-1.312zm-2.83 0c-.011-.226-.198-.405-.428-.405-.23 0-.417.18-.428.405v1.312h.856v-1.312zm1.415 0c-.011-.226-.198-.405-.428-.405-.23 0-.417.18-.428.405v1.312h.856v-1.312zm-12.762-5.573h3.561c.266 0 .481-.214.481-.478 0-.228-.161-.419-.377-.466v-1.78c-.018-.386-.339-.693-.732-.693-.393 0-.714.307-.732.693v1.768h-.841v-1.768c-.018-.386-.339-.693-.732-.693-.393 0-.714.307-.732.693v1.78c-.216.047-.377.238-.377.466 0 .264.215.478.481.478zm0 5.646h3.561c.266 0 .481-.214.481-.478 0-.228-.161-.418-.377-.466v-1.78c-.018-.386-.339-.693-.732-.693-.393 0-.714.307-.732.693v1.768h-.841v-1.768c-.018-.386-.339-.693-.732-.693-.393 0-.714.307-.732.693v1.78c-.216.047-.377.238-.377.466 0 .264.215.478.481.478zm1.781-15.076c.311 0 .572-.211.647-.497l.023-.168c0-.112-.028-.217-.077-.31-.112-.211-.335-.356-.592-.356-.257 0-.48.144-.592.356-.049.093-.077.198-.077.31l.022.168c.075.286.336.497.647.497z" fill="#fff"/><path d="M30.405 70.163v-6.516l.002-.019-.009-.092-.273-2.608c-.025-.243-.232-.428-.478-.428h-1.628l.009-.084v-1.015c.524-.008.947-.432.947-.955 0-.528-.431-.955-.961-.955h-5.683c-.531 0-.962.428-.962.955 0 .523.423.947.947.955v1.015l.009.084h-1.549v-11.826c0-.261-.106-.498-.277-.67v-1.605c0-.264-.215-.478-.481-.478s-.481.214-.481.478v.192l-1.488-3.921c-.044-.116-.131-.208-.238-.26v-1.907c0-.264-.215-.478-.481-.478s-.481.214-.481.478v1.858h-1.809v-1.858c0-.264-.215-.478-.481-.478s-.481.214-.481.478v1.907c-.108.052-.194.144-.238.26l-1.488 3.921v-.192c0-.264-.215-.478-.481-.478s-.481.214-.481.478v1.605c-.171.172-.277.409-.277.67v11.826h-7.016v-2.7l.239.01c.359 0 .701-.063 1.032-.124.302-.055.586-.108.857-.108.195 0 .367.028.525.086.147.054.313.033.442-.056s.206-.236.206-.392v-2.003c0-.2-.125-.379-.314-.448-.266-.098-.547-.145-.858-.145-.359 0-.701.063-1.032.124-.302.055-.586.108-.857.108l-.267-.02c-.066-.187-.242-.322-.452-.322-.266 0-.481.214-.481.478v5.512h-.894c-.246 0-.453.185-.478.428l-.277 2.651v.024l-.003.025v3.753l-.002.024.002.024v2.733c-.287.165-.481.473-.481.826 0 .528.431.955.962.955h27.959c.531 0 .961-.428.961-.955 0-.354-.194-.661-.481-.826zm-27.73-8.708h8.438v1.696h-8.615l.177-1.696zm10.276-13.736l1.671-4.402h2.644l1.853 4.88h-1.014l-.095-.099-1.8-1.376c-.175-.133-.419-.132-.592.004l-1.259.993-.486.383-.09.094h-1.013l.181-.478zm16.44 15.432h-8.615v-1.696h8.438l.177 1.696zm-26.945.955h8.668v2.822h-8.668v-2.822zm18.33 0h8.668v2.822h-8.668v-2.822zm-1.955 6.883l-.023-.146c-.03-.164-.073-.324-.129-.478l-.148-.331c-.483-.926-1.456-1.561-2.577-1.561s-2.094.635-2.577 1.561l-.148.331c-.057.154-.1.313-.129.478l-.023.146-.007.055h-.515l.001-.055.005-.146c.01-.163.03-.322.063-.478l.087-.331c.082-.26.195-.506.335-.735.596-.977 1.677-1.631 2.908-1.631 1.232 0 2.312.654 2.908 1.631.14.229.252.475.335.735l.086.331c.032.156.053.315.063.478l.005.146.002.055h-.515l-.007-.055zm-5.784-7.36v-1.361c.086-.327.279-.611.541-.813.258-.199.58-.318.931-.318.341 0 .666.113.932.318l.135.116c.187.183.487.183.674 0l.135-.116c.266-.206.591-.318.932-.318.351 0 .673.12.931.318.359.277.592.709.592 1.194l.015.113v5.059c-.772-.688-1.792-1.108-2.908-1.108-1.116 0-2.136.42-2.908 1.108v-4.192zm.971 7.692l.026-.277.008-.055.035-.146c.047-.17.117-.33.206-.478.072-.12.157-.231.253-.331.354-.372.853-.606 1.408-.606.555 0 1.055.234 1.408.606.096.101.18.212.253.331.089.148.159.308.206.478l.035.146.008.055.026.277.002.033h-3.878l.002-.033zm14.334-1.287v-1.095c-.011-.226-.198-.405-.428-.405-.23 0-.417.18-.428.405v1.095h-.559v-1.095c-.011-.226-.198-.405-.428-.405-.23 0-.417.18-.428.405v1.095h-.559v-1.095c-.011-.226-.198-.405-.428-.405-.23 0-.417.18-.428.405v1.095h-.559v-1.095c-.011-.226-.198-.405-.428-.405-.23 0-.417.18-.428.405v1.095h-.56v-1.095c-.01-.226-.198-.405-.428-.405-.23 0-.417.18-.428.405v1.095h-1.05v-2.151h8.668v2.151h-1.103zm-9.488-15.056c-.423-.333-.957-.532-1.538-.532-.327 0-.645.064-.939.184v-.71h2.477v1.058zm-4.2-5.826v-.445l.042-.033 1.211-.955.016-.012.016.012 1.25.955.049.037v2.258h-2.583v-1.818zm4.2 3.813h-2.477v-1.04h1.341c.266 0 .481-.214.481-.478v-1.818h.655v3.335zm-4.68-1.04h1.242v1.04h-2.378v-3.335h.655v1.818c0 .264.215.478.481.478zm-1.136 1.995h2.378v.696c-.285-.111-.591-.169-.906-.169-.55 0-1.059.179-1.472.481v-1.007zm0 2.612c.171-.649.765-1.131 1.472-1.131.401 0 .78.154 1.067.434.187.183.487.183.674 0 .287-.28.666-.434 1.067-.434.84 0 1.523.679 1.523 1.513l.015.113v3.686c-.1-.079-.207-.15-.319-.213-.36-.202-.776-.318-1.218-.318-.433 0-.851.111-1.219.318l-.184.114-.184-.114c-.368-.207-.786-.318-1.219-.318-.442 0-.858.116-1.218.318l-.253.163v-4.131zm-10.591 11.351h8.668v2.151h-1.05v-1.095c-.011-.226-.198-.405-.428-.405-.23 0-.417.18-.428.405v1.095h-.559v-1.095c-.01-.226-.198-.405-.428-.405-.23 0-.417.18-.428.405v1.095h-.559v-1.095c-.011-.226-.198-.405-.428-.405-.23 0-.417.18-.428.405v1.095h-.559v-1.095c-.011-.226-.198-.405-.428-.405-.23 0-.417.18-.428.405v1.095h-.56v-1.095c-.008-.184-.135-.335-.306-.386l-.122-.019c-.151 0-.283.079-.359.196-.039.061-.065.132-.069.209v1.095h-1.103v-2.151zm20.832-7.468v-1.015h3.789v1.015l.008.084h-3.806l.008-.084zm-17.909-4.733c.301-.055.586-.108.857-.108l.211.012v1.043l-.21-.008c-.359 0-.701.063-1.032.124-.302.055-.586.108-.857.108l-.211-.012v-1.043l.211.008c.359 0 .701-.063 1.032-.124zm17.293-4.661c.222.194.506.301.8.301h1.67l-.005.091c0 .3.13.586.357.785.193.169.44.262.696.262h3.514c.581 0 1.053-.469 1.053-1.046 0-.577-.472-1.046-1.053-1.046h-.101l.026-.248c0-.663-.543-1.203-1.211-1.203h-4.946c-.295 0-.579.107-.8.301-.261.229-.411.558-.411.902s.15.673.411.902zm.636-1.088c.032-.028.087-.062.164-.062h4.946c.138 0 .25.111.25.248s-.112.248-.25.248c-.265 0-.481.214-.481.478h-.002c0 .264.215.478.481.478h1.288c.05 0 .091.041.091.091 0 .05-.041.091-.091.091h-3.514l-.06-.023-.031-.068.032-.068.059-.023h.002c.265 0 .481-.214.481-.478s-.215-.478-.481-.478h-2.72c-.077 0-.132-.034-.164-.062-.032-.028-.085-.089-.085-.186 0-.096.053-.158.085-.186zm-19.2 16.508h.306v-1.312c-.008-.184-.135-.335-.306-.386l-.122-.019c-.151 0-.283.079-.359.196-.039.061-.065.132-.069.209v1.312h.549zm1.721-1.312c-.011-.226-.198-.405-.428-.405-.23 0-.417.18-.428.405v1.312h.856v-1.312zm4.245 0c-.011-.226-.198-.405-.428-.405-.23 0-.417.18-.428.405v1.312h.855v-1.312zm-2.83 0c-.011-.226-.198-.405-.428-.405-.23 0-.417.18-.428.405v1.312h.856v-1.312zm1.415 0c-.01-.226-.198-.405-.428-.405-.23 0-.417.18-.428.405v1.312h.856v-1.312zm14.033 0c-.01-.226-.198-.405-.428-.405-.23 0-.417.18-.428.405v1.312h.855v-1.312zm1.415 0c-.011-.226-.198-.405-.428-.405-.23 0-.417.18-.428.405v1.312h.856v-1.312zm4.245 0c-.011-.226-.198-.405-.428-.405-.23 0-.417.18-.428.405v1.312h.855v-1.312zm-2.83 0c-.011-.226-.198-.405-.428-.405-.23 0-.417.18-.428.405v1.312h.856v-1.312zm1.415 0c-.011-.226-.198-.405-.428-.405-.23 0-.417.18-.428.405v1.312h.856v-1.312zm-12.762-5.573h3.561c.266 0 .481-.214.481-.478 0-.228-.161-.419-.377-.466v-1.78c-.018-.386-.339-.693-.732-.693-.393 0-.714.307-.732.693v1.768h-.841v-1.768c-.018-.386-.339-.693-.732-.693-.393 0-.714.307-.732.693v1.78c-.216.047-.377.238-.377.466 0 .264.215.478.481.478zm0 5.646h3.561c.266 0 .481-.214.481-.478 0-.228-.161-.418-.377-.466v-1.78c-.018-.386-.339-.693-.732-.693-.393 0-.714.307-.732.693v1.768h-.841v-1.768c-.018-.386-.339-.693-.732-.693-.393 0-.714.307-.732.693v1.78c-.216.047-.377.238-.377.466 0 .264.215.478.481.478zm1.781-15.076c.311 0 .572-.211.647-.497l.023-.168c0-.112-.028-.217-.077-.31-.112-.211-.335-.356-.592-.356-.257 0-.48.144-.592.356-.049.093-.077.198-.077.31l.022.168c.075.286.336.497.647.497z" fill="#67737B"/><path d="M30.405 30.163v-6.516l.002-.019-.009-.092-.273-2.608c-.025-.243-.232-.428-.478-.428h-1.628l.009-.084v-1.015c.524-.008.947-.432.947-.955 0-.528-.431-.955-.961-.955h-5.683c-.531 0-.962.428-.962.955 0 .523.423.947.947.955v1.015l.009.084h-1.549v-11.826c0-.261-.106-.498-.277-.67v-1.605c0-.264-.215-.478-.481-.478s-.481.214-.481.478v.192l-1.488-3.921c-.044-.116-.131-.208-.238-.26v-1.907c0-.264-.215-.478-.481-.478s-.481.214-.481.478v1.858h-1.809v-1.858c0-.264-.215-.478-.481-.478s-.481.214-.481.478v1.907c-.108.052-.194.144-.238.26l-1.488 3.921v-.192c0-.264-.215-.478-.481-.478s-.481.214-.481.478v1.605c-.171.172-.277.409-.277.67v11.826h-7.016v-2.7l.239.01c.359 0 .701-.063 1.032-.124.302-.055.586-.108.857-.108.195 0 .367.028.525.086.147.054.313.033.442-.056s.206-.236.206-.392v-2.003c0-.2-.125-.379-.314-.448-.266-.098-.547-.145-.858-.145-.359 0-.701.063-1.032.124-.302.055-.586.108-.857.108l-.267-.02c-.066-.187-.242-.322-.452-.322-.266 0-.481.214-.481.478v5.512h-.894c-.246 0-.453.185-.478.428l-.277 2.651v.024l-.003.025v3.753l-.002.024.002.024v2.733c-.287.165-.481.473-.481.826 0 .528.431.955.962.955h27.959c.531 0 .961-.428.961-.955 0-.354-.194-.661-.481-.826zm-27.73-8.708h8.438v1.696h-8.615l.177-1.696zm10.276-13.736l1.671-4.402h2.644l1.853 4.88h-1.014l-.095-.099-1.8-1.376c-.175-.133-.419-.132-.592.004l-1.259.993-.486.383-.09.094h-1.013l.181-.478zm16.44 15.432h-8.615v-1.696h8.438l.177 1.696zm-26.945.955h8.668v2.822h-8.668v-2.822zm18.33 0h8.668v2.822h-8.668v-2.822zm-1.955 6.883l-.023-.146c-.03-.164-.073-.324-.129-.478l-.148-.331c-.483-.926-1.456-1.561-2.577-1.561s-2.094.635-2.577 1.561l-.148.331c-.057.154-.1.313-.129.478l-.023.146-.007.055h-.515l.001-.055.005-.146c.01-.163.03-.322.063-.478l.087-.331c.082-.26.195-.506.335-.735.596-.977 1.677-1.631 2.908-1.631 1.232 0 2.312.654 2.908 1.631.14.229.252.475.335.735l.086.331c.032.156.053.315.063.478l.005.146.002.055h-.515l-.007-.055zm-5.784-7.36v-1.361c.086-.327.279-.611.541-.813.258-.199.58-.318.931-.318.341 0 .666.113.932.318l.135.116c.187.183.487.183.674 0l.135-.116c.266-.206.591-.318.932-.318.351 0 .673.12.931.318.359.277.592.709.592 1.194l.015.113v5.059c-.772-.688-1.792-1.108-2.908-1.108-1.116 0-2.136.42-2.908 1.108v-4.192zm.971 7.692l.026-.277.008-.055.035-.146c.047-.17.117-.33.206-.478.072-.12.157-.231.253-.331.354-.372.853-.606 1.408-.606.555 0 1.055.234 1.408.606.096.101.18.212.253.331.089.148.159.308.206.478l.035.146.008.055.026.277.002.033h-3.878l.002-.033zm14.334-1.287v-1.095c-.011-.226-.198-.405-.428-.405-.23 0-.417.18-.428.405v1.095h-.559v-1.095c-.011-.226-.198-.405-.428-.405-.23 0-.417.18-.428.405v1.095h-.559v-1.095c-.011-.226-.198-.405-.428-.405-.23 0-.417.18-.428.405v1.095h-.559v-1.095c-.011-.226-.198-.405-.428-.405-.23 0-.417.18-.428.405v1.095h-.56v-1.095c-.01-.226-.198-.405-.428-.405-.23 0-.417.18-.428.405v1.095h-1.05v-2.151h8.668v2.151h-1.103zm-9.488-15.056c-.423-.333-.957-.532-1.538-.532-.327 0-.645.064-.939.184v-.71h2.477v1.058zm-4.2-5.826v-.445l.042-.033 1.211-.955.016-.012.016.012 1.25.955.049.037v2.258h-2.583v-1.818zm4.2 3.813h-2.477v-1.04h1.341c.266 0 .481-.214.481-.478v-1.818h.655v3.335zm-4.68-1.04h1.242v1.04h-2.378v-3.335h.655v1.818c0 .264.215.478.481.478zm-1.136 1.995h2.378v.696c-.285-.111-.591-.169-.906-.169-.55 0-1.059.179-1.472.481v-1.007zm0 2.612c.171-.649.765-1.131 1.472-1.131.401 0 .78.154 1.067.434.187.183.487.183.674 0 .287-.28.666-.434 1.067-.434.84 0 1.523.679 1.523 1.513l.015.113v3.686c-.1-.079-.207-.15-.319-.213-.36-.202-.776-.318-1.218-.318-.433 0-.851.111-1.219.318l-.184.114-.184-.114c-.368-.207-.786-.318-1.219-.318-.442 0-.858.116-1.218.318l-.253.163v-4.131zm-10.591 11.351h8.668v2.151h-1.05v-1.095c-.011-.226-.198-.405-.428-.405-.23 0-.417.18-.428.405v1.095h-.559v-1.095c-.01-.226-.198-.405-.428-.405-.23 0-.417.18-.428.405v1.095h-.559v-1.095c-.011-.226-.198-.405-.428-.405-.23 0-.417.18-.428.405v1.095h-.559v-1.095c-.011-.226-.198-.405-.428-.405-.23 0-.417.18-.428.405v1.095h-.56v-1.095c-.008-.184-.135-.335-.306-.386l-.122-.019c-.151 0-.283.079-.359.196-.039.061-.065.132-.069.209v1.095h-1.103v-2.151zm20.832-7.468v-1.015h3.789v1.015l.008.084h-3.806l.008-.084zm-17.909-4.733c.301-.055.586-.108.857-.108l.211.012v1.043l-.21-.008c-.359 0-.701.063-1.032.124-.302.055-.586.108-.857.108l-.211-.012v-1.043l.211.008c.359 0 .701-.063 1.032-.124zm17.293-4.661c.222.194.506.301.8.301h1.67l-.005.091c0 .3.13.586.357.785.193.169.44.262.696.262h3.514c.581 0 1.053-.469 1.053-1.046 0-.577-.472-1.046-1.053-1.046h-.101l.026-.248c0-.663-.543-1.203-1.211-1.203h-4.946c-.295 0-.579.107-.8.301-.261.229-.411.558-.411.902s.15.673.411.902zm.636-1.088c.032-.028.087-.062.164-.062h4.946c.138 0 .25.111.25.248s-.112.248-.25.248c-.265 0-.481.214-.481.478h-.002c0 .264.215.478.481.478h1.288c.05 0 .091.041.091.091 0 .05-.041.091-.091.091h-3.514l-.06-.023-.031-.068.032-.068.059-.023h.002c.265 0 .481-.214.481-.478s-.215-.478-.481-.478h-2.72c-.077 0-.132-.034-.164-.062-.032-.028-.085-.089-.085-.186 0-.096.053-.158.085-.186zm-19.2 16.508h.306v-1.312c-.008-.184-.135-.335-.306-.386l-.122-.019c-.151 0-.283.079-.359.196-.039.061-.065.132-.069.209v1.312h.549zm1.721-1.312c-.011-.226-.198-.405-.428-.405-.23 0-.417.18-.428.405v1.312h.856v-1.312zm4.245 0c-.011-.226-.198-.405-.428-.405-.23 0-.417.18-.428.405v1.312h.855v-1.312zm-2.83 0c-.011-.226-.198-.405-.428-.405-.23 0-.417.18-.428.405v1.312h.856v-1.312zm1.415 0c-.01-.226-.198-.405-.428-.405-.23 0-.417.18-.428.405v1.312h.856v-1.312zm14.033 0c-.01-.226-.198-.405-.428-.405-.23 0-.417.18-.428.405v1.312h.855v-1.312zm1.415 0c-.011-.226-.198-.405-.428-.405-.23 0-.417.18-.428.405v1.312h.856v-1.312zm4.245 0c-.011-.226-.198-.405-.428-.405-.23 0-.417.18-.428.405v1.312h.855v-1.312zm-2.83 0c-.011-.226-.198-.405-.428-.405-.23 0-.417.18-.428.405v1.312h.856v-1.312zm1.415 0c-.011-.226-.198-.405-.428-.405-.23 0-.417.18-.428.405v1.312h.856v-1.312zm-12.762-5.573h3.561c.266 0 .481-.214.481-.478 0-.228-.161-.419-.377-.466v-1.78c-.018-.386-.339-.693-.732-.693-.393 0-.714.307-.732.693v1.768h-.841v-1.768c-.018-.386-.339-.693-.732-.693-.393 0-.714.307-.732.693v1.78c-.216.047-.377.238-.377.466 0 .264.215.478.481.478zm0 5.646h3.561c.266 0 .481-.214.481-.478 0-.228-.161-.418-.377-.466v-1.78c-.018-.386-.339-.693-.732-.693-.393 0-.714.307-.732.693v1.768h-.841v-1.768c-.018-.386-.339-.693-.732-.693-.393 0-.714.307-.732.693v1.78c-.216.047-.377.238-.377.466 0 .264.215.478.481.478zm1.781-15.076c.311 0 .572-.211.647-.497l.023-.168c0-.112-.028-.217-.077-.31-.112-.211-.335-.356-.592-.356-.257 0-.48.144-.592.356-.049.093-.077.198-.077.31l.022.168c.075.286.336.497.647.497z" fill="#3A434E"/></g></g></svg>