<svg width="32" height="232" viewBox="0 0 32 232" xmlns="http://www.w3.org/2000/svg"><title>atacama-desert-chile</title><desc>Created with Sketch.</desc><g fill="none"><path d="M10.525 122.896c.14 0 .272-.057.37-.158.1-.1.154-.24.154-.382 0-.143-.057-.28-.156-.382-.098-.1-.23-.157-.37-.157-.138 0-.27.056-.37.157-.098.1-.154.24-.154.383 0 .143.055.28.153.38.098.102.232.16.37.16zm4.21 3.2c.14 0 .273-.056.37-.157.1-.102.155-.24.155-.383 0-.143-.056-.28-.155-.382-.098-.1-.23-.157-.37-.157-.138 0-.27.056-.37.157-.1.1-.155.24-.155.383 0 .143.055.28.153.38.098.102.232.16.37.16zm5.648-1.572c.14 0 .272-.057.37-.158.098-.1.154-.24.154-.382 0-.143-.056-.28-.155-.382-.098-.1-.23-.157-.37-.157-.138 0-.27.056-.37.157-.098.1-.154.24-.154.382 0 .143.055.28.153.38.1.102.233.16.372.16zm1.457-3.602c.098.102.233.16.372.16.14 0 .272-.058.37-.16.16-.163.2-.414.098-.62-.077-.16-.224-.267-.39-.293-.163-.026-.332.03-.448.15-.16.164-.2.417-.098.626l.096.136zm2.382 2.13c.14 0 .272-.058.37-.16.098-.1.154-.238.153-.38 0-.144-.056-.282-.155-.383-.098-.1-.23-.158-.37-.158-.138 0-.27.056-.37.157-.1.1-.155.238-.155.382 0 .143.055.28.153.38.098.102.232.16.37.16zm-19.066 1.405l.436.245.238.448c.092.173.268.28.46.28s.368-.107.46-.28l.238-.448.436-.245c.168-.094.273-.275.273-.472 0-.197-.104-.378-.273-.472l-.436-.245-.238-.448c-.092-.173-.268-.28-.46-.28s-.368.107-.46.28l-.238.448-.435.245c-.168.094-.273.276-.273.472 0 .197.104.378.273.472zm9.982-2.475l.436.245.238.448c.092.173.268.28.46.28.19 0 .368-.107.46-.28l.238-.448.436-.245c.168-.094.273-.276.273-.472 0-.197-.105-.378-.274-.472l-.436-.245-.238-.448c-.092-.173-.268-.28-.46-.28s-.368.107-.46.28l-.238.448-.436.245c-.168.094-.272.276-.272.472 0 .197.104.378.272.472zm16.244 8.785h-.177l-.114-.135-1.506-1.25-.75-1.75-.023-.046c-.23-.425-.57-.97-.877-1.142-.162-.103-1.057-.878-1.83-1.57-.124-.11-.293-.155-.455-.12l-1.544.348-.197.09-1.28.96-1.304-.352c-.207-.056-.426.023-.553.198l-1.25 1.72-.97.717h-.82c-.093 0-.185.026-.266.075l-.865.525h-2.445l-.835-.45-.297-.697c-.11-.256-.392-.384-.65-.293l-2.338.822-1.406-.277-1.45-.773c-.154-.083-.34-.08-.493.006L4.75 128.47l-1.235.343c-.082.023-.157.065-.22.124l-.802.763-.015.015-.715.735-.916.314H.692c-.29 0-.524.24-.524.538 0 .297.234.538.524.538H31.38c.29 0 .524-.24.524-.538 0-.297-.234-.538-.524-.538zm-28.168-.28l.7-.665 1.174-.326.116-.048 1.746-.99 1.267.678.143.05 1.618.32c.09.017.182.01.268-.02l2.014-.708.177.415c.048.112.13.204.236.26l1.112.6c.075.04.16.062.244.062h2.716c.094 0 .186-.026.267-.075l.865-.525h.845c.11 0 .217-.036.306-.1l1.172-.87.114-.114 1.085-1.493 1.203.326c.153.04.315.01.442-.086l1.393-1.045 1.18-.265c.63.563 1.53 1.35 1.788 1.508.09.08.313.41.48.716l.792 1.846c.034.078.085.147.15.2l.76.63H2.942l.272-.278zm7.113 8.994h.002c.288 0 .523-.24.523-.537v-2.46l.096.004c.63 0 1.143-.527 1.143-1.175v-1.135c0-.297-.234-.54-.524-.54-.29 0-.525.242-.525.54v1.135c0 .054-.043.1-.096.1-.054 0-.097-.045-.097-.1l-.004-.04v-2.49c0-.297-.235-.538-.525-.538-.29 0-.524.24-.524.538v3.114c0 .054-.042.098-.095.098s-.096-.044-.096-.098v-1.547c0-.298-.235-.54-.525-.54-.29 0-.524.242-.524.54v1.546c0 .648.514 1.175 1.145 1.175l.1-.004v1.338H8.717c-.29 0-.524.24-.524.538 0 .297.235.538.524.538h1.61zm-3.654-2.56c-.29 0-.524.24-.524.537v1.552c0 .182-.146.33-.324.33-.178 0-.323-.148-.323-.33l-.005-.053v-3.406c0-.296-.234-.537-.524-.537-.29 0-.524.24-.524.538v4.26c0 .182-.145.33-.323.33-.178 0-.323-.148-.323-.33v-2.116c0-.297-.234-.538-.524-.538-.29 0-.524.24-.524.538v2.115c0 .776.615 1.408 1.37 1.408.114 0 .224-.016.33-.043v2.26h-1.68c-.29 0-.524.242-.524.54 0 .296.234.537.524.537H4.98c.29 0 .525-.24.525-.538v-3.595c.104.025.212.04.323.04.756 0 1.37-.633 1.37-1.41v-1.552c0-.297-.234-.538-.523-.538zm13.736 2.864c-1.392 0-3.477.83-5.577 2.218-1.407.93-2.63 1.993-3.442 2.992-1.364 1.678-1.2 2.75-.82 3.354.245.392.758.86 1.808.86.86 0 1.985-.318 3.215-.888v.357c-.724.518-1.238 1.323-1.383 2.255h-3.104c-.29 0-.524.24-.524.538 0 .297.234.538.524.538h9.156c.29 0 .524-.24.524-.538 0-1.156-.565-2.18-1.425-2.793v-2.71c.81-.648 1.51-1.322 2.036-1.97 1.364-1.677 1.2-2.75.822-3.353-.246-.393-.76-.86-1.81-.86zm-2.844 11.148h-2.29c.096-.41.297-.775.57-1.068.174-.185.377-.34.6-.46.31-.163.66-.257 1.03-.257s.722.094 1.03.257c.225.12.428.274.6.46.275.294.477.66.57 1.07h-2.11zm.747-2.752c-.267-.072-.548-.11-.837-.11-.29 0-.57.038-.836.11v-.394c.433-.24.873-.505 1.314-.797l.36-.245v1.434zm-1.493-3.002l-.242.156c-.34.217-.668.41-.985.585-1.31.715-2.406 1.076-3.06 1.127.342-.618 1.355-1.86 3.432-3.234 1.84-1.217 3.437-1.802 4.287-1.87-.34.618-1.355 1.86-3.432 3.235zm13.236-12.447c-.955 0-2.463.605-3.934 1.578-1.005.665-1.877 1.422-2.454 2.13-.9 1.11-.813 1.783-.58 2.153.146.236.46.515 1.116.515.62 0 1.472-.256 2.396-.7v.374c-.477.364-.823.9-.953 1.517h-2.185c-.29 0-.524.24-.524.538 0 .297.234.538.524.538h2.61l.043.004h3.947c.29 0 .524-.24.524-.538v-.007c-.002-.84-.4-1.587-1.01-2.054v-1.908c0-.128-.044-.244-.117-.336.443-.38.83-.766 1.132-1.14.9-1.107.813-1.78.58-2.15-.146-.235-.46-.515-1.116-.515zm-1.528 4.68v.903c-.143-.026-.29-.04-.44-.04-.15 0-.297.014-.44.04v-.477l.49-.31.173-.116h.218zm-1.79 2.887c.057-.15.138-.287.236-.41.213-.262.51-.448.85-.512l.264-.026.263.025c.34.064.64.25.852.513.098.122.18.26.236.408h-2.7zm1.25-3.962l-.417.288-.395.25-.05.032-.525.3c-1.048.564-1.92.825-2.397.825l-.226-.028c.016-.323.776-1.507 2.71-2.786 1.47-.97 2.75-1.406 3.368-1.406l.226.028c-.014.3-.666 1.333-2.293 2.498zm-7.79-1.754c.703-.863.62-1.412.427-1.72-.125-.2-.387-.438-.925-.438-.72 0-1.804.43-2.896 1.153-.732.484-1.368 1.036-1.79 1.555-.703.864-.62 1.413-.427 1.72.125.2.387.44.925.44.4 0 .91-.133 1.47-.373-.26.245-.453.56-.552.92h-1.45c-.288 0-.523.24-.523.537 0 .297.235.538.524.538h1.87l.03.003h2.824c.29 0 .524-.24.524-.538v-.006c-.002-.62-.284-1.177-.722-1.54v-1.292l-.04-.208c.282-.25.532-.504.732-.75zm-2.62 3.256c.16-.225.42-.372.714-.372s.553.147.715.372h-1.43zm.88-1.44l-.166-.01-.166.01v-.08l.282-.18.05-.033v.294zM18.173 135l-.332.23c-.265.176-.52.326-.762.452-.662.348-1.21.516-1.528.53.166-.337.747-1.023 1.82-1.733.996-.66 1.857-.965 2.29-.982-.147.3-.626.877-1.487 1.5z" fill="#206FAC"/><path d="M10.525 82.896c.14 0 .272-.057.37-.158.1-.1.154-.24.154-.382 0-.143-.057-.28-.156-.382-.098-.1-.23-.157-.37-.157-.138 0-.27.056-.37.157-.098.1-.154.24-.154.383 0 .143.055.28.153.38.098.102.232.16.37.16zm4.21 3.2c.14 0 .273-.056.37-.157.1-.102.155-.24.155-.383 0-.143-.056-.28-.155-.382-.098-.1-.23-.157-.37-.157-.138 0-.27.056-.37.157-.1.1-.155.24-.155.383 0 .143.055.28.153.38.098.102.232.16.37.16zm5.648-1.572c.14 0 .272-.057.37-.158.098-.1.154-.24.154-.382 0-.143-.056-.28-.155-.382-.098-.1-.23-.157-.37-.157-.138 0-.27.056-.37.157-.098.1-.154.24-.154.382 0 .143.055.28.153.38.1.102.233.16.372.16zm1.457-3.602c.098.102.233.16.372.16.14 0 .272-.058.37-.16.16-.163.2-.414.098-.62-.077-.16-.224-.267-.39-.293-.163-.026-.332.03-.448.15-.16.164-.2.417-.098.626l.096.136zm2.382 2.13c.14 0 .272-.058.37-.16.098-.1.154-.238.153-.38 0-.144-.056-.282-.155-.383-.098-.1-.23-.158-.37-.158-.138 0-.27.056-.37.157-.1.1-.155.238-.155.382 0 .143.055.28.153.38.098.102.232.16.37.16zM5.156 84.456l.436.245.238.448c.092.173.268.28.46.28s.368-.107.46-.28l.238-.448.436-.245c.168-.094.273-.275.273-.472 0-.197-.104-.378-.273-.472l-.436-.245-.238-.448c-.092-.173-.268-.28-.46-.28s-.368.107-.46.28l-.238.448-.435.245c-.168.094-.273.276-.273.472 0 .197.104.378.273.472zm9.982-2.475l.436.245.238.448c.092.173.268.28.46.28.19 0 .368-.107.46-.28l.238-.448.436-.245c.168-.094.273-.276.273-.472 0-.197-.105-.378-.274-.472l-.436-.245-.238-.448c-.092-.173-.268-.28-.46-.28s-.368.107-.46.28l-.238.448-.436.245c-.168.094-.272.276-.272.472 0 .197.104.378.272.472zm16.244 8.785h-.177l-.114-.135-1.506-1.25-.75-1.75-.023-.046c-.23-.425-.57-.97-.877-1.142-.162-.103-1.057-.878-1.83-1.57-.124-.11-.293-.155-.455-.12l-1.544.348-.197.09-1.28.96-1.304-.352c-.207-.056-.426.023-.553.198l-1.25 1.72-.97.717h-.82c-.093 0-.185.026-.266.075l-.865.525h-2.445l-.835-.45-.297-.697c-.11-.256-.392-.384-.65-.293l-2.338.822-1.406-.277-1.45-.773c-.154-.083-.34-.08-.493.006L4.75 88.47l-1.235.343c-.082.023-.157.065-.22.124l-.802.763-.015.015-.715.735-.916.314H.692c-.29 0-.524.24-.524.538 0 .297.234.538.524.538H31.38c.29 0 .524-.24.524-.538 0-.297-.234-.538-.524-.538zm-28.168-.28l.7-.665 1.174-.326.116-.048 1.746-.99 1.267.678.143.05 1.618.32c.09.017.182.01.268-.02l2.014-.708.177.415c.048.112.13.204.236.26l1.112.6c.075.04.16.062.244.062h2.716c.094 0 .186-.026.267-.075l.865-.525h.845c.11 0 .217-.036.306-.1l1.172-.87.114-.114 1.085-1.493 1.203.326c.153.04.315.01.442-.086l1.393-1.045 1.18-.265c.63.563 1.53 1.35 1.788 1.508.09.08.313.41.48.716l.792 1.846c.034.078.085.147.15.2l.76.63H2.942l.272-.278zm7.113 8.994h.002c.288 0 .523-.24.523-.537v-2.46l.096.004c.63 0 1.143-.527 1.143-1.175v-1.135c0-.297-.234-.54-.524-.54-.29 0-.525.242-.525.54v1.135c0 .054-.043.1-.096.1-.054 0-.097-.045-.097-.1l-.004-.04v-2.49c0-.297-.235-.538-.525-.538-.29 0-.524.24-.524.538v3.114c0 .054-.042.098-.095.098s-.096-.044-.096-.098V94.35c0-.298-.235-.54-.525-.54-.29 0-.524.242-.524.54v1.546c0 .648.514 1.175 1.145 1.175l.1-.004v1.338H8.717c-.29 0-.524.24-.524.538 0 .297.235.538.524.538h1.61zm-3.654-2.56c-.29 0-.524.24-.524.537v1.552c0 .182-.146.33-.324.33-.178 0-.323-.148-.323-.33l-.005-.053V95.55c0-.296-.234-.537-.524-.537-.29 0-.524.24-.524.538v4.26c0 .182-.145.33-.323.33-.178 0-.323-.148-.323-.33v-2.116c0-.297-.234-.538-.524-.538-.29 0-.524.24-.524.538v2.115c0 .776.615 1.408 1.37 1.408.114 0 .224-.016.33-.043v2.26h-1.68c-.29 0-.524.242-.524.54 0 .296.234.537.524.537H4.98c.29 0 .525-.24.525-.538v-3.595c.104.025.212.04.323.04.756 0 1.37-.633 1.37-1.41v-1.552c0-.297-.234-.538-.523-.538zm13.736 2.864c-1.392 0-3.477.83-5.577 2.218-1.407.93-2.63 1.993-3.442 2.992-1.364 1.678-1.2 2.75-.82 3.354.245.392.758.86 1.808.86.86 0 1.985-.318 3.215-.888v.357c-.724.518-1.238 1.323-1.383 2.255h-3.104c-.29 0-.524.24-.524.538 0 .297.234.538.524.538h9.156c.29 0 .524-.24.524-.538 0-1.156-.565-2.18-1.425-2.793v-2.71c.81-.648 1.51-1.322 2.036-1.97 1.364-1.677 1.2-2.75.822-3.353-.246-.393-.76-.86-1.81-.86zm-2.844 11.148h-2.29c.096-.41.297-.775.57-1.068.174-.185.377-.34.6-.46.31-.163.66-.257 1.03-.257s.722.094 1.03.257c.225.12.428.274.6.46.275.294.477.66.57 1.07h-2.11zm.747-2.752c-.267-.072-.548-.11-.837-.11-.29 0-.57.038-.836.11v-.394c.433-.24.873-.505 1.314-.797l.36-.245v1.434zm-1.493-3.002l-.242.156c-.34.217-.668.41-.985.585-1.31.715-2.406 1.076-3.06 1.127.342-.618 1.355-1.86 3.432-3.234 1.84-1.217 3.437-1.802 4.287-1.87-.34.618-1.355 1.86-3.432 3.235zM30.056 92.73c-.955 0-2.463.605-3.934 1.578-1.005.665-1.877 1.422-2.454 2.13-.9 1.11-.813 1.783-.58 2.153.146.236.46.515 1.116.515.62 0 1.472-.256 2.396-.7v.374c-.477.364-.823.9-.953 1.517h-2.185c-.29 0-.524.24-.524.538 0 .297.234.538.524.538h2.61l.043.004h3.947c.29 0 .524-.24.524-.538v-.007c-.002-.84-.4-1.587-1.01-2.054V96.87c0-.128-.044-.244-.117-.336.443-.38.83-.766 1.132-1.14.9-1.107.813-1.78.58-2.15-.146-.235-.46-.515-1.116-.515zm-1.528 4.68v.903c-.143-.026-.29-.04-.44-.04-.15 0-.297.014-.44.04v-.477l.49-.31.173-.116h.218zm-1.79 2.887c.057-.15.138-.287.236-.41.213-.262.51-.448.85-.512l.264-.026.263.025c.34.064.64.25.852.513.098.122.18.26.236.408h-2.7zm1.25-3.962l-.417.288-.395.25-.05.032-.525.3c-1.048.564-1.92.825-2.397.825l-.226-.028c.016-.323.776-1.507 2.71-2.786 1.47-.97 2.75-1.406 3.368-1.406l.226.028c-.014.3-.666 1.333-2.293 2.498zM20.2 94.58c.703-.863.62-1.412.427-1.72-.125-.2-.387-.438-.925-.438-.72 0-1.804.43-2.896 1.153-.732.484-1.368 1.036-1.79 1.555-.703.864-.62 1.413-.427 1.72.125.2.387.44.925.44.4 0 .91-.133 1.47-.373-.26.245-.453.56-.552.92h-1.45c-.288 0-.523.24-.523.537 0 .297.235.538.524.538h1.87l.03.003h2.824c.29 0 .524-.24.524-.538v-.006c-.002-.62-.284-1.177-.722-1.54v-1.292l-.04-.208c.282-.25.532-.504.732-.75zm-2.62 3.256c.16-.225.42-.372.714-.372s.553.147.715.372h-1.43zm.88-1.44l-.166-.01-.166.01v-.08l.282-.18.05-.033v.294zM18.173 95l-.332.23c-.265.176-.52.326-.762.452-.662.348-1.21.516-1.528.53.166-.337.747-1.023 1.82-1.733.996-.66 1.857-.965 2.29-.982-.147.3-.626.877-1.487 1.5z" fill="#fff"/><path d="M10.525 42.896c.14 0 .272-.057.37-.158.1-.1.154-.24.154-.382 0-.143-.057-.28-.156-.382-.098-.1-.23-.157-.37-.157-.138 0-.27.056-.37.157-.098.1-.154.24-.154.383 0 .143.055.28.153.38.098.102.232.16.37.16zm4.21 3.2c.14 0 .273-.056.37-.157.1-.102.155-.24.155-.383 0-.143-.056-.28-.155-.382-.098-.1-.23-.157-.37-.157-.138 0-.27.056-.37.157-.1.1-.155.24-.155.383 0 .143.055.28.153.38.098.102.232.16.37.16zm5.648-1.572c.14 0 .272-.057.37-.158.098-.1.154-.24.154-.382 0-.143-.056-.28-.155-.382-.098-.1-.23-.157-.37-.157-.138 0-.27.056-.37.157-.098.1-.154.24-.154.382 0 .143.055.28.153.38.1.102.233.16.372.16zm1.457-3.602c.098.102.233.16.372.16.14 0 .272-.058.37-.16.16-.163.2-.414.098-.62-.077-.16-.224-.267-.39-.293-.163-.026-.332.03-.448.15-.16.164-.2.417-.098.626l.096.136zm2.382 2.13c.14 0 .272-.058.37-.16.098-.1.154-.238.153-.38 0-.144-.056-.282-.155-.383-.098-.1-.23-.158-.37-.158-.138 0-.27.056-.37.157-.1.1-.155.238-.155.382 0 .143.055.28.153.38.098.102.232.16.37.16zM5.156 44.456l.436.245.238.448c.092.173.268.28.46.28s.368-.107.46-.28l.238-.448.436-.245c.168-.094.273-.275.273-.472 0-.197-.104-.378-.273-.472l-.436-.245-.238-.448c-.092-.173-.268-.28-.46-.28s-.368.107-.46.28l-.238.448-.435.245c-.168.094-.273.276-.273.472 0 .197.104.378.273.472zm9.982-2.475l.436.245.238.448c.092.173.268.28.46.28.19 0 .368-.107.46-.28l.238-.448.436-.245c.168-.094.273-.276.273-.472 0-.197-.105-.378-.274-.472l-.436-.245-.238-.448c-.092-.173-.268-.28-.46-.28s-.368.107-.46.28l-.238.448-.436.245c-.168.094-.272.276-.272.472 0 .197.104.378.272.472zm16.244 8.785h-.177l-.114-.135-1.506-1.25-.75-1.75-.023-.046c-.23-.425-.57-.97-.877-1.142-.162-.103-1.057-.878-1.83-1.57-.124-.11-.293-.155-.455-.12l-1.544.348-.197.09-1.28.96-1.304-.352c-.207-.056-.426.023-.553.198l-1.25 1.72-.97.717h-.82c-.093 0-.185.026-.266.075l-.865.525h-2.445l-.835-.45-.297-.697c-.11-.256-.392-.384-.65-.293l-2.338.822-1.406-.277-1.45-.773c-.154-.083-.34-.08-.493.006L4.75 48.47l-1.235.343c-.082.023-.157.065-.22.124l-.802.763-.015.015-.715.735-.916.314H.692c-.29 0-.524.24-.524.538 0 .297.234.538.524.538H31.38c.29 0 .524-.24.524-.538 0-.297-.234-.538-.524-.538zm-28.168-.28l.7-.665 1.174-.326.116-.048 1.746-.99 1.267.678.143.05 1.618.32c.09.017.182.01.268-.02l2.014-.708.177.415c.048.112.13.204.236.26l1.112.6c.075.04.16.062.244.062h2.716c.094 0 .186-.026.267-.075l.865-.525h.845c.11 0 .217-.036.306-.1l1.172-.87.114-.114 1.085-1.493 1.203.326c.153.04.315.01.442-.086l1.393-1.045 1.18-.265c.63.563 1.53 1.35 1.788 1.508.09.08.313.41.48.716l.792 1.846c.034.078.085.147.15.2l.76.63H2.942l.272-.278zm7.113 8.994h.002c.288 0 .523-.24.523-.537v-2.46l.096.004c.63 0 1.143-.527 1.143-1.175v-1.135c0-.297-.234-.54-.524-.54-.29 0-.525.242-.525.54v1.135c0 .054-.043.1-.096.1-.054 0-.097-.045-.097-.1l-.004-.04v-2.49c0-.297-.235-.538-.525-.538-.29 0-.524.24-.524.538v3.114c0 .054-.042.098-.095.098s-.096-.044-.096-.098V54.35c0-.298-.235-.54-.525-.54-.29 0-.524.242-.524.54v1.546c0 .648.514 1.175 1.145 1.175l.1-.004v1.338H8.717c-.29 0-.524.24-.524.538 0 .297.235.538.524.538h1.61zm-3.654-2.56c-.29 0-.524.24-.524.537v1.552c0 .182-.146.33-.324.33-.178 0-.323-.148-.323-.33l-.005-.053V55.55c0-.296-.234-.537-.524-.537-.29 0-.524.24-.524.538v4.26c0 .182-.145.33-.323.33-.178 0-.323-.148-.323-.33v-2.116c0-.297-.234-.538-.524-.538-.29 0-.524.24-.524.538v2.115c0 .776.615 1.408 1.37 1.408.114 0 .224-.016.33-.043v2.26h-1.68c-.29 0-.524.242-.524.54 0 .296.234.537.524.537H4.98c.29 0 .525-.24.525-.538V60.38c.104.025.212.04.323.04.756 0 1.37-.633 1.37-1.41v-1.552c0-.297-.234-.538-.523-.538zm13.736 2.864c-1.392 0-3.477.83-5.577 2.218-1.407.93-2.63 1.993-3.442 2.992-1.364 1.678-1.2 2.75-.82 3.354.245.392.758.86 1.808.86.86 0 1.985-.318 3.215-.888v.357c-.724.518-1.238 1.323-1.383 2.255h-3.104c-.29 0-.524.24-.524.538 0 .297.234.538.524.538h9.156c.29 0 .524-.24.524-.538 0-1.156-.565-2.18-1.425-2.793v-2.71c.81-.648 1.51-1.322 2.036-1.97 1.364-1.677 1.2-2.75.822-3.353-.246-.393-.76-.86-1.81-.86zm-2.844 11.148h-2.29c.096-.41.297-.775.57-1.068.174-.185.377-.34.6-.46.31-.163.66-.257 1.03-.257s.722.094 1.03.257c.225.12.428.274.6.46.275.294.477.66.57 1.07h-2.11zm.747-2.752c-.267-.072-.548-.11-.837-.11-.29 0-.57.038-.836.11v-.394c.433-.24.873-.505 1.314-.797l.36-.245v1.434zm-1.493-3.002l-.242.156c-.34.217-.668.41-.985.585-1.31.715-2.406 1.076-3.06 1.127.342-.618 1.355-1.86 3.432-3.234 1.84-1.217 3.437-1.802 4.287-1.87-.34.618-1.355 1.86-3.432 3.235zM30.056 52.73c-.955 0-2.463.605-3.934 1.578-1.005.665-1.877 1.422-2.454 2.13-.9 1.11-.813 1.783-.58 2.153.146.236.46.515 1.116.515.62 0 1.472-.256 2.396-.7v.374c-.477.364-.823.9-.953 1.517h-2.185c-.29 0-.524.24-.524.538 0 .297.234.538.524.538h2.61l.043.004h3.947c.29 0 .524-.24.524-.538v-.007c-.002-.84-.4-1.587-1.01-2.054V56.87c0-.128-.044-.244-.117-.336.443-.38.83-.766 1.132-1.14.9-1.107.813-1.78.58-2.15-.146-.235-.46-.515-1.116-.515zm-1.528 4.68v.903c-.143-.026-.29-.04-.44-.04-.15 0-.297.014-.44.04v-.477l.49-.31.173-.116h.218zm-1.79 2.887c.057-.15.138-.287.236-.41.213-.262.51-.448.85-.512l.264-.026.263.025c.34.064.64.25.852.513.098.122.18.26.236.408h-2.7zm1.25-3.962l-.417.288-.395.25-.05.032-.525.3c-1.048.564-1.92.825-2.397.825l-.226-.028c.016-.323.776-1.507 2.71-2.786 1.47-.97 2.75-1.406 3.368-1.406l.226.028c-.014.3-.666 1.333-2.293 2.498zM20.2 54.58c.703-.863.62-1.412.427-1.72-.125-.2-.387-.438-.925-.438-.72 0-1.804.43-2.896 1.153-.732.484-1.368 1.036-1.79 1.555-.703.864-.62 1.413-.427 1.72.125.2.387.44.925.44.4 0 .91-.133 1.47-.373-.26.245-.453.56-.552.92h-1.45c-.288 0-.523.24-.523.537 0 .297.235.538.524.538h1.87l.03.003h2.824c.29 0 .524-.24.524-.538v-.006c-.002-.62-.284-1.177-.722-1.54v-1.292l-.04-.208c.282-.25.532-.504.732-.75zm-2.62 3.256c.16-.225.42-.372.714-.372s.553.147.715.372h-1.43zm.88-1.44l-.166-.01-.166.01v-.08l.282-.18.05-.033v.294zM18.173 55l-.332.23c-.265.176-.52.326-.762.452-.662.348-1.21.516-1.528.53.166-.337.747-1.023 1.82-1.733.996-.66 1.857-.965 2.29-.982-.147.3-.626.877-1.487 1.5z" fill="#67737B"/><path d="M10.525 2.896c.14 0 .272-.057.37-.158.1-.1.154-.24.154-.382 0-.143-.057-.28-.156-.382-.098-.1-.23-.157-.37-.157-.138 0-.27.056-.37.157-.098.1-.154.24-.154.383 0 .143.055.28.153.38.098.102.232.16.37.16zm4.21 3.2c.14 0 .273-.056.37-.157.1-.102.155-.24.155-.383 0-.143-.056-.28-.155-.382-.098-.1-.23-.157-.37-.157-.138 0-.27.056-.37.157-.1.1-.155.24-.155.383 0 .143.055.28.153.38.098.102.232.16.37.16zm5.648-1.572c.14 0 .272-.057.37-.158.098-.1.154-.24.154-.382 0-.143-.056-.28-.155-.382-.098-.1-.23-.157-.37-.157-.138 0-.27.056-.37.157-.098.1-.154.24-.154.382 0 .143.055.28.153.38.1.102.233.16.372.16zM21.84.922c.098.102.233.16.372.16.14 0 .272-.058.37-.16.16-.163.2-.414.098-.62-.077-.16-.224-.267-.39-.293-.163-.026-.332.03-.448.15-.16.164-.2.417-.098.626l.096.136zm2.382 2.13c.14 0 .272-.058.37-.16.098-.1.154-.238.153-.38 0-.144-.056-.282-.155-.383-.098-.1-.23-.158-.37-.158-.138 0-.27.056-.37.157-.1.1-.155.238-.155.382 0 .143.055.28.153.38.098.102.232.16.37.16zM5.156 4.456l.436.245.238.448c.092.173.268.28.46.28s.368-.107.46-.28l.238-.448.436-.245c.168-.094.273-.275.273-.472 0-.197-.104-.378-.273-.472l-.436-.245-.238-.448c-.092-.173-.268-.28-.46-.28s-.368.107-.46.28l-.238.448-.435.245c-.168.094-.273.276-.273.472 0 .197.104.378.273.472zm9.982-2.475l.436.245.238.448c.092.173.268.28.46.28.19 0 .368-.107.46-.28l.238-.448.436-.245c.168-.094.273-.276.273-.472 0-.197-.105-.378-.274-.472L16.97.793l-.238-.448c-.092-.173-.268-.28-.46-.28s-.368.107-.46.28l-.238.448-.436.245c-.168.094-.272.276-.272.472 0 .197.104.378.272.472zm16.244 8.785h-.177l-.114-.135-1.506-1.25-.75-1.75-.023-.046c-.23-.425-.57-.97-.877-1.142-.162-.103-1.057-.878-1.83-1.57-.124-.11-.293-.155-.455-.12l-1.544.348-.197.09-1.28.96-1.304-.352c-.207-.056-.426.023-.553.198l-1.25 1.72-.97.717h-.82c-.093 0-.185.026-.266.075l-.865.525h-2.445l-.835-.45-.297-.697c-.11-.256-.392-.384-.65-.293l-2.338.822L8.63 8.14l-1.45-.773c-.154-.083-.34-.08-.493.006L4.75 8.47l-1.235.343c-.082.023-.157.065-.22.124l-.802.763-.015.015-.715.735-.916.314H.692c-.29 0-.524.24-.524.538 0 .297.234.538.524.538H31.38c.29 0 .524-.24.524-.538 0-.297-.234-.538-.524-.538zm-28.168-.28l.7-.665 1.174-.326.116-.048 1.746-.99 1.267.678.143.05 1.618.32c.09.017.182.01.268-.02l2.014-.708.177.415c.048.112.13.204.236.26l1.112.6c.075.04.16.062.244.062h2.716c.094 0 .186-.026.267-.075l.865-.525h.845c.11 0 .217-.036.306-.1l1.172-.87.114-.114L21.4 6.938l1.203.326c.153.04.315.01.442-.086l1.393-1.045 1.18-.265c.63.563 1.53 1.35 1.788 1.508.09.08.313.41.48.716l.792 1.846c.034.078.085.147.15.2l.76.63H2.942l.272-.278zm7.113 8.994h.002c.288 0 .523-.24.523-.537v-2.46l.096.004c.63 0 1.143-.527 1.143-1.175v-1.135c0-.297-.234-.54-.524-.54-.29 0-.525.242-.525.54v1.135c0 .054-.043.1-.096.1-.054 0-.097-.045-.097-.1l-.004-.04v-2.49c0-.297-.235-.538-.525-.538-.29 0-.524.24-.524.538v3.114c0 .054-.042.098-.095.098s-.096-.044-.096-.098V14.35c0-.298-.235-.54-.525-.54-.29 0-.524.242-.524.54v1.546c0 .648.514 1.175 1.145 1.175l.1-.004v1.338H8.717c-.29 0-.524.24-.524.538 0 .297.235.538.524.538h1.61zm-3.654-2.56c-.29 0-.524.24-.524.537v1.552c0 .182-.146.33-.324.33-.178 0-.323-.148-.323-.33l-.005-.053V15.55c0-.296-.234-.537-.524-.537-.29 0-.524.24-.524.538v4.26c0 .182-.145.33-.323.33-.178 0-.323-.148-.323-.33v-2.116c0-.297-.234-.538-.524-.538-.29 0-.524.24-.524.538v2.115c0 .776.615 1.408 1.37 1.408.114 0 .224-.016.33-.043v2.26h-1.68c-.29 0-.524.242-.524.54 0 .296.234.537.524.537H4.98c.29 0 .525-.24.525-.538V20.38c.104.025.212.04.323.04.756 0 1.37-.633 1.37-1.41v-1.552c0-.297-.234-.538-.523-.538zm13.736 2.864c-1.392 0-3.477.83-5.577 2.218-1.407.93-2.63 1.993-3.442 2.992-1.364 1.678-1.2 2.75-.82 3.354.245.392.758.86 1.808.86.86 0 1.985-.318 3.215-.888v.357c-.724.518-1.238 1.323-1.383 2.255h-3.104c-.29 0-.524.24-.524.538 0 .297.234.538.524.538h9.156c.29 0 .524-.24.524-.538 0-1.156-.565-2.18-1.425-2.793v-2.71c.81-.648 1.51-1.322 2.036-1.97 1.364-1.677 1.2-2.75.822-3.353-.246-.393-.76-.86-1.81-.86zm-2.844 11.148h-2.29c.096-.41.297-.775.57-1.068.174-.185.377-.34.6-.46.31-.163.66-.257 1.03-.257s.722.094 1.03.257c.225.12.428.274.6.46.275.294.477.66.57 1.07h-2.11zm.747-2.752c-.267-.072-.548-.11-.837-.11-.29 0-.57.038-.836.11v-.394c.433-.24.873-.505 1.314-.797l.36-.245v1.434zm-1.493-3.002l-.242.156c-.34.217-.668.41-.985.585-1.31.715-2.406 1.076-3.06 1.127.342-.618 1.355-1.86 3.432-3.234 1.84-1.217 3.437-1.802 4.287-1.87-.34.618-1.355 1.86-3.432 3.235zM30.056 12.73c-.955 0-2.463.605-3.934 1.578-1.005.665-1.877 1.422-2.454 2.13-.9 1.11-.813 1.783-.58 2.153.146.236.46.515 1.116.515.62 0 1.472-.256 2.396-.7v.374c-.477.364-.823.9-.953 1.517h-2.185c-.29 0-.524.24-.524.538 0 .297.234.538.524.538h2.61l.043.004h3.947c.29 0 .524-.24.524-.538v-.007c-.002-.84-.4-1.587-1.01-2.054V16.87c0-.128-.044-.244-.117-.336.443-.38.83-.766 1.132-1.14.9-1.107.813-1.78.58-2.15-.146-.235-.46-.515-1.116-.515zm-1.528 4.68v.903c-.143-.026-.29-.04-.44-.04-.15 0-.297.014-.44.04v-.477l.49-.31.173-.116h.218zm-1.79 2.887c.057-.15.138-.287.236-.41.213-.262.51-.448.85-.512l.264-.026.263.025c.34.064.64.25.852.513.098.122.18.26.236.408h-2.7zm1.25-3.962l-.417.288-.395.25-.05.032-.525.3c-1.048.564-1.92.825-2.397.825l-.226-.028c.016-.323.776-1.507 2.71-2.786 1.47-.97 2.75-1.406 3.368-1.406l.226.028c-.014.3-.666 1.333-2.293 2.498zM20.2 14.58c.703-.863.62-1.412.427-1.72-.125-.2-.387-.438-.925-.438-.72 0-1.804.43-2.896 1.153-.732.484-1.368 1.036-1.79 1.555-.703.864-.62 1.413-.427 1.72.125.2.387.44.925.44.4 0 .91-.133 1.47-.373-.26.245-.453.56-.552.92h-1.45c-.288 0-.523.24-.523.537 0 .297.235.538.524.538h1.87l.03.003h2.824c.29 0 .524-.24.524-.538v-.006c-.002-.62-.284-1.177-.722-1.54v-1.292l-.04-.208c.282-.25.532-.504.732-.75zm-2.62 3.256c.16-.225.42-.372.714-.372s.553.147.715.372h-1.43zm.88-1.44l-.166-.01-.166.01v-.08l.282-.18.05-.033v.294zM18.173 15l-.332.23c-.265.176-.52.326-.762.452-.662.348-1.21.516-1.528.53.166-.337.747-1.023 1.82-1.733.996-.66 1.857-.965 2.29-.982-.147.3-.626.877-1.487 1.5z" fill="#3A434E"/></g></svg>