<svg width="32" height="232" viewBox="0 0 32 232" xmlns="http://www.w3.org/2000/svg" xmlns:sketch="http://www.bohemiancoding.com/sketch/ns"><title>chile</title><desc>Created with Sketch.</desc><g sketch:type="MSPage" fill="none"><g sketch:type="MSShapeGroup"><path d="M31.009 146.913l-4.113-.329-1.901-.584-.119-.028-1.88-.32-.029-.005-3.026-.419-.129-.009h-.275c.225-.302.273-.713.122-1.065-.16-.371-.512-.608-.899-.608h-.007l-1.244.009.499-.113c.166-.038.321-.121.448-.24l2.732-2.562.047-.047 2.234-2.39 1.474-1.012 2.951-.229.091-.011 3.244-.571c.538-.095.901-.628.811-1.193-.09-.564-.598-.945-1.136-.85l-.326.057-1.637-3.633-.983-2.198-.422-2.866c-.033-.22-.197-.395-.407-.431l-1.787-.314c-.203-.035-.405.064-.508.251l-1.034 1.862-1.21 1.771-.847-3.18-.118-.609h1.216c.272 0 .494-.232.494-.518 0-.286-.221-.518-.494-.518h-1.417l-.407-2.095c-.035-.181-.16-.328-.326-.387s-.351-.02-.482.101l-1.4 1.286-2.306.801-.005.003-.075.035-.015.009-.07.052-.006.005-.006.006-.059.067-.009.013-.041.07-.005.01-.009.023h-2.026c-.272 0-.494.232-.494.518 0 .286.221.518.494.518h1.696l-.359 1.136-.022.102-.334 2.979-.843-1.33-1.146-2.304c-.073-.148-.21-.249-.368-.273-.158-.023-.316.034-.426.154l-1.564 1.709c-.086.094-.134.218-.137.347l-.048 2.297-1.012 1.968-.174.338-.833-.709-.631-1.283v-2.105c0-.185-.094-.356-.247-.448-.153-.092-.341-.092-.493 0l-2.049 1.241c-.086.052-.155.131-.198.225l-.691 1.518-.252-.534c-.062-.133-.176-.231-.312-.27l-1.055-.304c-.133-.039-.276-.016-.393.061-.117.077-.198.203-.223.346l-.287 1.66-1.257 1.575c-.175.219-.147.546.062.729.093.081.205.121.317.121.141 0 .281-.063.379-.185l.38-.476.961-1.204c.055-.069.093-.152.108-.24l.214-1.238.321.092.499 1.06-.547 1.237-.074.169-.984 1.38c-.089.126-.12.288-.082.441l.303 1.216v2.283h-.989c-.272 0-.494.232-.494.518 0 .286.221.518.494.518h6.922l-.358.697h-1.621c-.272 0-.494.231-.494.517 0 .286.222.518.494.518h7.662c.193 0 .369-.119.449-.305.08-.185.049-.402-.079-.555l-.73-.873h5.745l-2.039 1.912-2.133.485c-.336.077-.609.33-.723.671l-.546 1.638-.051.263-.136-.052c-.176-.072-.396-.162-.797-.162-.402 0-.621.09-.798.162-.133.055-.222.091-.438.091-.215 0-.304-.036-.438-.091-.176-.072-.395-.162-.797-.162s-.621.09-.797.162c-.134.055-.222.091-.438.091-.215 0-.304-.036-.438-.091-.176-.072-.395-.162-.797-.162s-.621.09-.797.162c-.134.055-.223.091-.438.091-.216 0-.304-.036-.438-.091-.176-.072-.395-.162-.797-.162-.401 0-.621.09-.797.162-.134.055-.223.091-.438.091-.272 0-.494.232-.494.518 0 .286.222.517.494.517.401 0 .621-.09.797-.162.133-.055.222-.091.438-.091.215 0 .304.036.438.091.176.072.395.162.797.162.401 0 .621-.09.797-.162.134-.055.222-.091.438-.091s.304.036.438.091c.176.072.395.162.797.162s.621-.09.797-.162c.134-.055.223-.091.438-.091.216 0 .304.036.438.091.176.072.395.162.797.162s.621-.09.797-.162c.134-.055.223-.091.438-.091.216 0 .304.036.437.091.176.072.396.162.798.162l.337-.025c.109.043.225.065.344.065h.007l1.677-.013c-.214.3-.258.7-.111 1.045.159.372.512.612.901.612h2.408l2.948.409 1.805.307 1.942.596.202.039 4.216.337.076.003c.511 0 .944-.414.983-.957.042-.57-.366-1.068-.909-1.112zm-8.876-10.241l-1.732 1.854h-4.374l.275-1.374 1.578-.752c.164-.078.274-.243.288-.431l.122-1.637c.021-.285-.182-.535-.454-.557-.27-.022-.51.191-.53.476l-.099 1.332-1.54.735c-.143.068-.247.204-.279.365l-.183.917-.185.926h-1.772l-.146-.156-.988-.664-.147-.066-1.104-.287c-.171-.044-.352.011-.474.144l-.694.758-.262.155-.198.117h-2.881l.133-.108.072-.07 1.21-1.461 2.978-1.045c.094-.033.176-.094.236-.177l1.693-2.321 3.092-2.193.068-.06.009-.008.053-.068.009-.014.038-.075.006-.015.024-.083.002-.012.006-.034.486-4.327.389-1.231 1.228 1.461.051.053 1.131 1.001c.093.082.206.122.319.122.127 0 .254-.051.35-.153l.948-1.002.062-.08.024-.038.893 3.355-.552 1.021-.54 1-.634.034-.652.036c-.272.014-.482.258-.468.543.013.277.231.491.492.491l.026-.001 1.557-.083c.168-.009.321-.108.404-.262l1.314-2.432 1.479-2.165 1.234 1.22c.094.093.216.141.338.141.09 0 .179-.025.259-.077l.885-.572.032.095 1.013 2.267 1.519 3.369-1.861.327-3.159.246c-.167.013-.328.07-.468.166l-1.777 1.221-.112.091-.053.051zm-9.523 3.169l.102.195.186.223h-3.829l.331-.644.091-.053.749-.442.096-.076.018-.017.459-.501.088-.096.369.096.378.098.624.42.14.094.198.703zm-9.25-2.287v-1.069l.608-.347.571-.326c.24-.137.329-.451.198-.703-.13-.251-.429-.344-.669-.208l-.884.504-.028-.114-.071-.285.305-.428.566-.796.052-.092.741-1.676 1.062-2.334 1.176-.712v1.333c0 .083.018.164.055.238l.733 1.491.093.128.035.037 1.377 1.17c.114.097.263.136.407.106.144-.031.268-.127.338-.263l1.524-2.965c.037-.072.057-.153.059-.235l.046-2.22.955-1.043.839 1.689.027.047 1.33 2.1-2.753 1.952-.116.114-1.648 2.262-2.963 1.039c-.083.03-.158.081-.216.151l-1.265 1.528-1.111.897h-1.373v-.972zm15.434-13.546l.416-.144.17-.103.836-.767.197 1.014.101.518.101.518.073.376-.046.015-.146.079-.119.13-.232.37-.592.626-.755-.669-1.216-1.445-.005-.006-.058-.069 1.276-.444zm7.817 2.216l.228 1.545-.167.067-.356.23-.396.256-.606-.6-.478-.472.677-1.219 1.099.193zm-16.064 21.079c.216 0 .304.037.438.091.176.072.396.162.798.162.401 0 .621-.09.797-.162.134-.054.222-.091.438-.091s.304.037.437.091c.176.072.396.162.797.162.402 0 .622-.09.797-.162.134-.054.222-.091.438-.091.273 0 .494-.231.494-.518 0-.286-.221-.517-.494-.517-.401 0-.621.09-.797.162-.134.055-.222.091-.438.091s-.304-.036-.438-.091c-.176-.072-.395-.162-.797-.162s-.621.09-.798.162c-.133.055-.222.091-.437.091-.216 0-.304-.036-.439-.091-.176-.072-.395-.162-.797-.162-.401 0-.621.09-.797.162-.133.055-.222.091-.437.091-.216 0-.304-.036-.438-.091-.176-.072-.395-.162-.797-.162s-.621.09-.797.162c-.134.055-.222.091-.438.091-.272 0-.494.231-.494.517 0 .286.221.518.494.518.401 0 .621-.09.797-.162.134-.054.223-.091.438-.091.216 0 .304.037.437.091.176.072.396.162.798.162.401 0 .621-.09.797-.162.134-.054.223-.091.438-.091zm8.638 1.529c-.401 0-.621.091-.797.162-.134.055-.222.091-.438.091s-.304-.036-.438-.091c-.176-.072-.396-.162-.797-.162s-.621.091-.797.162c-.134.055-.222.091-.438.091s-.304-.036-.439-.091c-.176-.072-.395-.162-.796-.162-.402 0-.621.091-.798.162-.133.055-.222.091-.437.091-.216 0-.304-.036-.438-.091-.176-.072-.395-.162-.797-.162-.401 0-.621.091-.797.162-.134.055-.222.091-.438.091-.272 0-.494.231-.494.518 0 .286.221.518.494.518.401 0 .621-.09.797-.162.134-.055.223-.091.438-.091.216 0 .304.036.437.091.176.072.396.162.798.162.401 0 .621-.09.796-.162.134-.055.223-.091.439-.091s.304.036.437.091c.176.072.396.162.798.162.401 0 .621-.09.797-.162.134-.055.222-.091.438-.091s.304.036.438.091c.176.072.395.162.797.162.401 0 .621-.09.797-.162.134-.055.222-.091.438-.091.273 0 .494-.233.494-.518 0-.286-.221-.518-.494-.518zm-14.917-5.637c.216 0 .304.036.438.091.176.073.395.162.798.162.401 0 .62-.09.796-.162.134-.054.223-.091.438-.091.216 0 .304.036.438.091.176.073.395.162.797.162.401 0 .621-.09.797-.162.134-.054.223-.091.438-.091.273 0 .494-.232.494-.518 0-.286-.221-.518-.494-.518-.401 0-.621.09-.797.162-.134.054-.222.091-.438.091s-.304-.037-.438-.091c-.176-.073-.395-.162-.797-.162-.401 0-.621.09-.797.162-.134.054-.222.091-.437.091-.216 0-.305-.037-.439-.091-.176-.073-.395-.162-.797-.162s-.621.09-.797.162c-.133.054-.222.091-.438.091-.215 0-.304-.037-.438-.091-.176-.073-.395-.162-.796-.162-.402 0-.621.09-.798.162-.133.054-.222.091-.438.091-.272 0-.494.231-.494.518 0 .286.221.518.494.518.402 0 .621-.09.797-.162.133-.054.223-.091.438-.091s.304.036.437.091c.176.073.395.162.797.162s.621-.09.797-.162c.134-.054.222-.091.438-.091zm-1.481-19.461c.224.207.511.322.808.322h1.053l-.004.081c0 .32.131.625.361.838.195.18.445.279.704.279h3.508c.587 0 1.064-.501 1.064-1.117s-.477-1.117-1.064-1.117h-.084l.023-.247c0-.708-.548-1.283-1.223-1.283h-4.337c-.297 0-.584.113-.808.321-.263.244-.415.594-.415.962 0 .367.151.718.415.962zm.653-1.147l.155-.062h4.337c.13 0 .236.111.236.247s-.106.247-.236.247c-.272 0-.493.233-.493.518h-.002c0 .286.221.518.493.518h1.286c.043 0 .078.036.078.081 0 .045-.035.081-.078.081h-3.508l-.05-.02-.027-.061.027-.061.05-.02h.002c.273 0 .494-.232.494-.518 0-.286-.221-.518-.494-.518h-2.115l-.155-.062c-.031-.027-.08-.089-.08-.185 0-.097.05-.157.08-.185zm8.509.695h5.012c.273 0 .494-.231.494-.518 0-.286-.221-.518-.494-.518h-5.012c-.272 0-.494.232-.494.518 0 .286.221.518.494.518" fill="#206FAC"/><path d="M31.009 106.913l-4.113-.329-1.901-.584-.119-.028-1.88-.32-.029-.005-3.026-.419-.129-.009h-.275c.225-.302.273-.713.122-1.065-.16-.371-.512-.608-.899-.608h-.007l-1.244.009.499-.113c.166-.038.321-.121.448-.24l2.732-2.562.047-.047 2.234-2.39 1.474-1.012 2.951-.229.091-.011 3.244-.571c.538-.095.901-.628.811-1.193-.09-.564-.598-.945-1.136-.85l-.326.057-1.637-3.633-.983-2.198-.422-2.866c-.033-.22-.197-.395-.407-.431l-1.787-.314c-.203-.035-.405.064-.508.251l-1.034 1.862-1.21 1.771-.847-3.18-.118-.609h1.216c.272 0 .494-.232.494-.518 0-.286-.221-.518-.494-.518h-1.417l-.407-2.095c-.035-.181-.16-.328-.326-.387s-.351-.02-.482.101l-1.4 1.286-2.306.801-.005.003-.075.035-.015.009-.07.052-.006.005-.006.006-.059.067-.009.013-.041.07-.005.01-.009.023h-2.026c-.272 0-.494.232-.494.518 0 .286.221.518.494.518h1.696l-.359 1.136-.022.102-.334 2.979-.843-1.33-1.146-2.304c-.073-.148-.21-.249-.368-.273-.158-.023-.316.034-.426.154l-1.564 1.709c-.086.094-.134.218-.137.347l-.048 2.297-1.012 1.968-.174.338-.833-.709-.631-1.283v-2.105c0-.185-.094-.356-.247-.448-.153-.092-.341-.092-.493 0l-2.049 1.241c-.086.052-.155.131-.198.225l-.691 1.518-.252-.534c-.062-.133-.176-.231-.312-.27l-1.055-.304c-.133-.039-.276-.016-.393.061-.117.077-.198.203-.223.346l-.287 1.66-1.257 1.575c-.175.219-.147.546.062.729.093.081.205.121.317.121.141 0 .281-.063.379-.185l.38-.476.961-1.204c.055-.069.093-.152.108-.24l.214-1.238.321.092.499 1.06-.547 1.237-.074.169-.984 1.38c-.089.126-.12.288-.082.441l.303 1.216v2.283h-.989c-.272 0-.494.232-.494.518 0 .286.221.518.494.518h6.922l-.358.697h-1.621c-.272 0-.494.231-.494.517 0 .286.222.518.494.518h7.662c.193 0 .369-.119.449-.305.08-.185.049-.402-.079-.555l-.73-.873h5.745l-2.039 1.912-2.133.485c-.336.077-.609.33-.723.671l-.546 1.638-.051.263-.136-.052c-.176-.072-.396-.162-.797-.162-.402 0-.621.09-.798.162-.133.055-.222.091-.438.091-.215 0-.304-.036-.438-.091-.176-.072-.395-.162-.797-.162s-.621.09-.797.162c-.134.055-.222.091-.438.091-.215 0-.304-.036-.438-.091-.176-.072-.395-.162-.797-.162s-.621.09-.797.162c-.134.055-.223.091-.438.091-.216 0-.304-.036-.438-.091-.176-.072-.395-.162-.797-.162-.401 0-.621.09-.797.162-.134.055-.223.091-.438.091-.272 0-.494.232-.494.518 0 .286.222.517.494.517.401 0 .621-.09.797-.162.133-.055.222-.091.438-.091.215 0 .304.036.438.091.176.072.395.162.797.162.401 0 .621-.09.797-.162.134-.055.222-.091.438-.091s.304.036.438.091c.176.072.395.162.797.162s.621-.09.797-.162c.134-.055.223-.091.438-.091.216 0 .304.036.438.091.176.072.395.162.797.162s.621-.09.797-.162c.134-.055.223-.091.438-.091.216 0 .304.036.437.091.176.072.396.162.798.162l.337-.025c.109.043.225.065.344.065h.007l1.677-.013c-.214.3-.258.7-.111 1.045.159.372.512.612.901.612h2.408l2.948.409 1.805.307 1.942.596.202.039 4.216.337.076.003c.511 0 .944-.414.983-.957.042-.57-.366-1.068-.909-1.112zm-8.876-10.241l-1.732 1.854h-4.374l.275-1.374 1.578-.752c.164-.078.274-.243.288-.431l.122-1.637c.021-.285-.182-.535-.454-.557-.27-.022-.51.191-.53.476l-.099 1.332-1.54.735c-.143.068-.247.204-.279.365l-.183.917-.185.926h-1.772l-.146-.156-.988-.664-.147-.066-1.104-.287c-.171-.044-.352.011-.474.144l-.694.758-.262.155-.198.117h-2.881l.133-.108.072-.07 1.21-1.461 2.978-1.045c.094-.033.176-.094.236-.177l1.693-2.321 3.092-2.193.068-.06.009-.008.053-.068.009-.014.038-.075.006-.015.024-.083.002-.012.006-.034.486-4.327.389-1.231 1.228 1.461.051.053 1.131 1.001c.093.082.206.122.319.122.127 0 .254-.051.35-.153l.948-1.002.062-.08.024-.038.893 3.355-.552 1.021-.54 1-.634.034-.652.036c-.272.014-.482.258-.468.543.013.277.231.491.492.491l.026-.001 1.557-.083c.168-.009.321-.108.404-.262l1.314-2.432 1.479-2.165 1.234 1.22c.094.093.216.141.338.141.09 0 .179-.025.259-.077l.885-.572.032.095 1.013 2.267 1.519 3.369-1.861.327-3.159.246c-.167.013-.328.07-.468.166l-1.777 1.221-.112.091-.053.051zm-9.523 3.169l.102.195.186.223h-3.829l.331-.644.091-.053.749-.442.096-.076.018-.017.459-.501.088-.096.369.096.378.098.624.42.14.094.198.703zm-9.25-2.287v-1.069l.608-.347.571-.326c.24-.137.329-.451.198-.703-.13-.251-.429-.344-.669-.208l-.884.504-.028-.114-.071-.285.305-.428.566-.796.052-.092.741-1.676 1.062-2.334 1.176-.712v1.333c0 .083.018.164.055.238l.733 1.491.093.128.035.037 1.377 1.17c.114.097.263.136.407.106.144-.031.268-.127.338-.263l1.524-2.965c.037-.072.057-.153.059-.235l.046-2.22.955-1.043.839 1.689.027.047 1.33 2.1-2.753 1.952-.116.114-1.648 2.262-2.963 1.039c-.083.03-.158.081-.216.151l-1.265 1.528-1.111.897h-1.373v-.972zm15.434-13.546l.416-.144.17-.103.836-.767.197 1.014.101.518.101.518.073.376-.046.015-.146.079-.119.13-.232.37-.592.626-.755-.669-1.216-1.445-.005-.006-.058-.069 1.276-.444zm7.817 2.216l.228 1.545-.167.067-.356.23-.396.256-.606-.6-.478-.472.677-1.219 1.099.193zm-16.064 21.079c.216 0 .304.037.438.091.176.072.396.162.798.162.401 0 .621-.09.797-.162.134-.054.222-.091.438-.091s.304.037.437.091c.176.072.396.162.797.162.402 0 .622-.09.797-.162.134-.054.222-.091.438-.091.273 0 .494-.231.494-.518 0-.286-.221-.517-.494-.517-.401 0-.621.09-.797.162-.134.055-.222.091-.438.091s-.304-.036-.438-.091c-.176-.072-.395-.162-.797-.162s-.621.09-.798.162c-.133.055-.222.091-.437.091-.216 0-.304-.036-.439-.091-.176-.072-.395-.162-.797-.162-.401 0-.621.09-.797.162-.133.055-.222.091-.437.091-.216 0-.304-.036-.438-.091-.176-.072-.395-.162-.797-.162s-.621.09-.797.162c-.134.055-.222.091-.438.091-.272 0-.494.231-.494.517 0 .286.221.518.494.518.401 0 .621-.09.797-.162.134-.054.223-.091.438-.091.216 0 .304.037.437.091.176.072.396.162.798.162.401 0 .621-.09.797-.162.134-.054.223-.091.438-.091zm8.638 1.529c-.401 0-.621.091-.797.162-.134.055-.222.091-.438.091s-.304-.036-.438-.091c-.176-.072-.396-.162-.797-.162s-.621.091-.797.162c-.134.055-.222.091-.438.091s-.304-.036-.439-.091c-.176-.072-.395-.162-.796-.162-.402 0-.621.091-.798.162-.133.055-.222.091-.437.091-.216 0-.304-.036-.438-.091-.176-.072-.395-.162-.797-.162-.401 0-.621.091-.797.162-.134.055-.222.091-.438.091-.272 0-.494.231-.494.518 0 .286.221.518.494.518.401 0 .621-.09.797-.162.134-.055.223-.091.438-.091.216 0 .304.036.437.091.176.072.396.162.798.162.401 0 .621-.09.796-.162.134-.055.223-.091.439-.091s.304.036.437.091c.176.072.396.162.798.162.401 0 .621-.09.797-.162.134-.055.222-.091.438-.091s.304.036.438.091c.176.072.395.162.797.162.401 0 .621-.09.797-.162.134-.055.222-.091.438-.091.273 0 .494-.233.494-.518 0-.286-.221-.518-.494-.518zm-14.917-5.637c.216 0 .304.036.438.091.176.073.395.162.798.162.401 0 .62-.09.796-.162.134-.054.223-.091.438-.091.216 0 .304.036.438.091.176.073.395.162.797.162.401 0 .621-.09.797-.162.134-.054.223-.091.438-.091.273 0 .494-.232.494-.518 0-.286-.221-.518-.494-.518-.401 0-.621.09-.797.162-.134.054-.222.091-.438.091s-.304-.037-.438-.091c-.176-.073-.395-.162-.797-.162-.401 0-.621.09-.797.162-.134.054-.222.091-.437.091-.216 0-.305-.037-.439-.091-.176-.073-.395-.162-.797-.162s-.621.09-.797.162c-.133.054-.222.091-.438.091-.215 0-.304-.037-.438-.091-.176-.073-.395-.162-.796-.162-.402 0-.621.09-.798.162-.133.054-.222.091-.438.091-.272 0-.494.231-.494.518 0 .286.221.518.494.518.402 0 .621-.09.797-.162.133-.054.223-.091.438-.091s.304.036.437.091c.176.073.395.162.797.162s.621-.09.797-.162c.134-.054.222-.091.438-.091zm-1.481-19.461c.224.207.511.322.808.322h1.053l-.004.081c0 .32.131.625.361.838.195.18.445.279.704.279h3.508c.587 0 1.064-.501 1.064-1.117s-.477-1.117-1.064-1.117h-.084l.023-.247c0-.708-.548-1.283-1.223-1.283h-4.337c-.297 0-.584.113-.808.321-.263.244-.415.594-.415.962 0 .367.151.718.415.962zm.653-1.147l.155-.062h4.337c.13 0 .236.111.236.247s-.106.247-.236.247c-.272 0-.493.233-.493.518h-.002c0 .286.221.518.493.518h1.286c.043 0 .078.036.078.081 0 .045-.035.081-.078.081h-3.508l-.05-.02-.027-.061.027-.061.05-.02h.002c.273 0 .494-.232.494-.518 0-.286-.221-.518-.494-.518h-2.115l-.155-.062c-.031-.027-.08-.089-.08-.185 0-.097.05-.157.08-.185zm8.509.695h5.012c.273 0 .494-.231.494-.518 0-.286-.221-.518-.494-.518h-5.012c-.272 0-.494.232-.494.518 0 .286.221.518.494.518" fill="#fff"/><path d="M31.009 66.913l-4.113-.329-1.901-.584-.119-.028-1.88-.32-.029-.005-3.026-.419-.129-.009h-.275c.225-.302.273-.713.122-1.065-.16-.371-.512-.608-.899-.608h-.007l-1.244.009.499-.113c.166-.038.321-.121.448-.24l2.732-2.562.047-.047 2.234-2.39 1.474-1.012 2.951-.229.091-.011 3.244-.571c.538-.095.901-.628.811-1.193-.09-.564-.598-.945-1.136-.85l-.326.057-1.637-3.633-.983-2.198-.422-2.866c-.033-.22-.197-.395-.407-.431l-1.787-.314c-.203-.035-.405.064-.508.251l-1.034 1.862-1.21 1.771-.847-3.18-.118-.609h1.216c.272 0 .494-.232.494-.518 0-.286-.221-.518-.494-.518h-1.417l-.407-2.095c-.035-.181-.16-.328-.326-.387s-.351-.02-.482.101l-1.4 1.286-2.306.801-.005.003-.075.035-.015.009-.07.052-.006.005-.006.006-.059.067-.009.013-.041.07-.005.01-.009.023h-2.026c-.272 0-.494.232-.494.518 0 .286.221.518.494.518h1.696l-.359 1.136-.022.102-.334 2.979-.843-1.33-1.146-2.304c-.073-.148-.21-.249-.368-.273-.158-.023-.316.034-.426.154l-1.564 1.709c-.086.094-.134.218-.137.347l-.048 2.297-1.012 1.968-.174.338-.833-.709-.631-1.283v-2.105c0-.185-.094-.356-.247-.448-.153-.092-.341-.092-.493 0l-2.049 1.241c-.086.052-.155.131-.198.225l-.691 1.518-.252-.534c-.062-.133-.176-.231-.312-.27l-1.055-.304c-.133-.039-.276-.016-.393.061-.117.077-.198.203-.223.346l-.287 1.66-1.257 1.575c-.175.219-.147.546.062.729.093.081.205.121.317.121.141 0 .281-.063.379-.185l.38-.476.961-1.204c.055-.069.093-.152.108-.24l.214-1.238.321.092.499 1.06-.547 1.237-.074.169-.984 1.38c-.089.126-.12.288-.082.441l.303 1.216v2.283h-.989c-.272 0-.494.232-.494.518 0 .286.221.518.494.518h6.922l-.358.697h-1.621c-.272 0-.494.231-.494.517 0 .286.222.518.494.518h7.662c.193 0 .369-.119.449-.305.08-.185.049-.402-.079-.555l-.73-.873h5.745l-2.039 1.912-2.133.485c-.336.077-.609.33-.723.671l-.546 1.638-.051.263-.136-.052c-.176-.072-.396-.162-.797-.162-.402 0-.621.09-.798.162-.133.055-.222.091-.438.091-.215 0-.304-.036-.438-.091-.176-.072-.395-.162-.797-.162s-.621.09-.797.162c-.134.055-.222.091-.438.091-.215 0-.304-.036-.438-.091-.176-.072-.395-.162-.797-.162s-.621.09-.797.162c-.134.055-.223.091-.438.091-.216 0-.304-.036-.438-.091-.176-.072-.395-.162-.797-.162-.401 0-.621.09-.797.162-.134.055-.223.091-.438.091-.272 0-.494.232-.494.518 0 .286.222.517.494.517.401 0 .621-.09.797-.162.133-.055.222-.091.438-.091.215 0 .304.036.438.091.176.072.395.162.797.162.401 0 .621-.09.797-.162.134-.055.222-.091.438-.091s.304.036.438.091c.176.072.395.162.797.162s.621-.09.797-.162c.134-.055.223-.091.438-.091.216 0 .304.036.438.091.176.072.395.162.797.162s.621-.09.797-.162c.134-.055.223-.091.438-.091.216 0 .304.036.437.091.176.072.396.162.798.162l.337-.025c.109.043.225.065.344.065h.007l1.677-.013c-.214.3-.258.7-.111 1.045.159.372.512.612.901.612h2.408l2.948.409 1.805.307 1.942.596.202.039 4.216.337.076.003c.511 0 .944-.414.983-.957.042-.57-.366-1.068-.909-1.112zm-8.876-10.241l-1.732 1.854h-4.374l.275-1.374 1.578-.752c.164-.078.274-.243.288-.431l.122-1.637c.021-.285-.182-.535-.454-.557-.27-.022-.51.191-.53.476l-.099 1.332-1.54.735c-.143.068-.247.204-.279.365l-.183.917-.185.926h-1.772l-.146-.156-.988-.664-.147-.066-1.104-.287c-.171-.044-.352.011-.474.144l-.694.758-.262.155-.198.117h-2.881l.133-.108.072-.07 1.21-1.461 2.978-1.045c.094-.033.176-.094.236-.177l1.693-2.321 3.092-2.193.068-.06.009-.008.053-.068.009-.014.038-.075.006-.015.024-.083.002-.012.006-.034.486-4.327.389-1.231 1.228 1.461.051.053 1.131 1.001c.093.082.206.122.319.122.127 0 .254-.051.35-.153l.948-1.002.062-.08.024-.038.893 3.355-.552 1.021-.54 1-.634.034-.652.036c-.272.014-.482.258-.468.543.013.277.231.491.492.491l.026-.001 1.557-.083c.168-.009.321-.108.404-.262l1.314-2.432 1.479-2.165 1.234 1.22c.094.093.216.141.338.141.09 0 .179-.025.259-.077l.885-.572.032.095 1.013 2.267 1.519 3.369-1.861.327-3.159.246c-.167.013-.328.07-.468.166l-1.777 1.221-.112.091-.053.051zm-9.523 3.169l.102.195.186.223h-3.829l.331-.644.091-.053.749-.442.096-.076.018-.017.459-.501.088-.096.369.096.378.098.624.42.14.094.198.703zm-9.25-2.287v-1.069l.608-.347.571-.326c.24-.137.329-.451.198-.703-.13-.251-.429-.344-.669-.208l-.884.504-.028-.114-.071-.285.305-.428.566-.796.052-.092.741-1.676 1.062-2.334 1.176-.712v1.333c0 .083.018.164.055.238l.733 1.491.093.128.035.037 1.377 1.17c.114.097.263.136.407.106.144-.031.268-.127.338-.263l1.524-2.965c.037-.072.057-.153.059-.235l.046-2.22.955-1.043.839 1.689.027.047 1.33 2.1-2.753 1.952-.116.114-1.648 2.262-2.963 1.039c-.083.03-.158.081-.216.151l-1.265 1.528-1.111.897h-1.373v-.972zm15.434-13.546l.416-.144.17-.103.836-.767.197 1.014.101.518.101.518.073.376-.046.015-.146.079-.119.13-.232.37-.592.626-.755-.669-1.216-1.445-.005-.006-.058-.069 1.276-.444zm7.817 2.216l.228 1.545-.167.067-.356.23-.396.256-.606-.6-.478-.472.677-1.219 1.099.193zm-16.064 21.079c.216 0 .304.037.438.091.176.072.396.162.798.162.401 0 .621-.09.797-.162.134-.054.222-.091.438-.091s.304.037.437.091c.176.072.396.162.797.162.402 0 .622-.09.797-.162.134-.054.222-.091.438-.091.273 0 .494-.231.494-.518 0-.286-.221-.517-.494-.517-.401 0-.621.09-.797.162-.134.055-.222.091-.438.091s-.304-.036-.438-.091c-.176-.072-.395-.162-.797-.162s-.621.09-.798.162c-.133.055-.222.091-.437.091-.216 0-.304-.036-.439-.091-.176-.072-.395-.162-.797-.162-.401 0-.621.09-.797.162-.133.055-.222.091-.437.091-.216 0-.304-.036-.438-.091-.176-.072-.395-.162-.797-.162s-.621.09-.797.162c-.134.055-.222.091-.438.091-.272 0-.494.231-.494.517 0 .286.221.518.494.518.401 0 .621-.09.797-.162.134-.054.223-.091.438-.091.216 0 .304.037.437.091.176.072.396.162.798.162.401 0 .621-.09.797-.162.134-.054.223-.091.438-.091zm8.638 1.529c-.401 0-.621.091-.797.162-.134.055-.222.091-.438.091s-.304-.036-.438-.091c-.176-.072-.396-.162-.797-.162s-.621.091-.797.162c-.134.055-.222.091-.438.091s-.304-.036-.439-.091c-.176-.072-.395-.162-.796-.162-.402 0-.621.091-.798.162-.133.055-.222.091-.437.091-.216 0-.304-.036-.438-.091-.176-.072-.395-.162-.797-.162-.401 0-.621.091-.797.162-.134.055-.222.091-.438.091-.272 0-.494.231-.494.518 0 .286.221.518.494.518.401 0 .621-.09.797-.162.134-.055.223-.091.438-.091.216 0 .304.036.437.091.176.072.396.162.798.162.401 0 .621-.09.796-.162.134-.055.223-.091.439-.091s.304.036.437.091c.176.072.396.162.798.162.401 0 .621-.09.797-.162.134-.055.222-.091.438-.091s.304.036.438.091c.176.072.395.162.797.162.401 0 .621-.09.797-.162.134-.055.222-.091.438-.091.273 0 .494-.233.494-.518 0-.286-.221-.518-.494-.518zm-14.917-5.637c.216 0 .304.036.438.091.176.073.395.162.798.162.401 0 .62-.09.796-.162.134-.054.223-.091.438-.091.216 0 .304.036.438.091.176.073.395.162.797.162.401 0 .621-.09.797-.162.134-.054.223-.091.438-.091.273 0 .494-.232.494-.518 0-.286-.221-.518-.494-.518-.401 0-.621.09-.797.162-.134.054-.222.091-.438.091s-.304-.037-.438-.091c-.176-.073-.395-.162-.797-.162-.401 0-.621.09-.797.162-.134.054-.222.091-.437.091-.216 0-.305-.037-.439-.091-.176-.073-.395-.162-.797-.162s-.621.09-.797.162c-.133.054-.222.091-.438.091-.215 0-.304-.037-.438-.091-.176-.073-.395-.162-.796-.162-.402 0-.621.09-.798.162-.133.054-.222.091-.438.091-.272 0-.494.231-.494.518 0 .286.221.518.494.518.402 0 .621-.09.797-.162.133-.054.223-.091.438-.091s.304.036.437.091c.176.073.395.162.797.162s.621-.09.797-.162c.134-.054.222-.091.438-.091zm-1.481-19.461c.224.207.511.322.808.322h1.053l-.004.081c0 .32.131.625.361.838.195.18.445.279.704.279h3.508c.587 0 1.064-.501 1.064-1.117s-.477-1.117-1.064-1.117h-.084l.023-.247c0-.708-.548-1.283-1.223-1.283h-4.337c-.297 0-.584.113-.808.321-.263.244-.415.594-.415.962 0 .367.151.718.415.962zm.653-1.147l.155-.062h4.337c.13 0 .236.111.236.247s-.106.247-.236.247c-.272 0-.493.233-.493.518h-.002c0 .286.221.518.493.518h1.286c.043 0 .078.036.078.081 0 .045-.035.081-.078.081h-3.508l-.05-.02-.027-.061.027-.061.05-.02h.002c.273 0 .494-.232.494-.518 0-.286-.221-.518-.494-.518h-2.115l-.155-.062c-.031-.027-.08-.089-.08-.185 0-.097.05-.157.08-.185zm8.509.695h5.012c.273 0 .494-.231.494-.518 0-.286-.221-.518-.494-.518h-5.012c-.272 0-.494.232-.494.518 0 .286.221.518.494.518" fill="#67737B"/><path d="M31.009 26.913l-4.113-.329-1.901-.584-.119-.028-1.88-.32-.029-.005-3.026-.419-.129-.009h-.275c.225-.302.273-.713.122-1.065-.16-.371-.512-.608-.899-.608h-.007l-1.244.009.499-.113c.166-.038.321-.121.448-.24l2.732-2.562.047-.047 2.234-2.39 1.474-1.012 2.951-.229.091-.011 3.244-.571c.538-.095.901-.628.811-1.193-.09-.564-.598-.945-1.136-.85l-.326.057-1.637-3.633-.983-2.198-.422-2.866c-.033-.22-.197-.395-.407-.431l-1.787-.314c-.203-.035-.405.064-.508.251l-1.034 1.862-1.21 1.771-.847-3.18-.118-.609h1.216c.272 0 .494-.232.494-.518 0-.286-.221-.518-.494-.518h-1.417l-.407-2.095c-.035-.181-.16-.328-.326-.387s-.351-.02-.482.101l-1.4 1.286-2.306.801-.005.003-.075.035-.015.009-.07.052-.006.005-.006.006-.059.067-.009.013-.041.07-.005.01-.009.023h-2.026c-.272 0-.494.232-.494.518 0 .286.221.518.494.518h1.696l-.359 1.136-.022.102-.334 2.979-.843-1.33-1.146-2.304c-.073-.148-.21-.249-.368-.273-.158-.023-.316.034-.426.154l-1.564 1.709c-.086.094-.134.218-.137.347l-.048 2.297-1.012 1.968-.174.338-.833-.709-.631-1.283v-2.105c0-.185-.094-.356-.247-.448-.153-.092-.341-.092-.493 0l-2.049 1.241c-.086.052-.155.131-.198.225l-.691 1.518-.252-.534c-.062-.133-.176-.231-.312-.27l-1.055-.304c-.133-.039-.276-.016-.393.061-.117.077-.198.203-.223.346l-.287 1.66-1.257 1.575c-.175.219-.147.546.062.729.093.081.205.121.317.121.141 0 .281-.063.379-.185l.38-.476.961-1.204c.055-.069.093-.152.108-.24l.214-1.238.321.092.499 1.06-.547 1.237-.074.169-.984 1.38c-.089.126-.12.288-.082.441l.303 1.216v2.283h-.989c-.272 0-.494.232-.494.518 0 .286.221.518.494.518h6.922l-.358.697h-1.621c-.272 0-.494.231-.494.517 0 .286.222.518.494.518h7.662c.193 0 .369-.119.449-.305.08-.185.049-.402-.079-.555l-.73-.873h5.745l-2.039 1.912-2.133.485c-.336.077-.609.33-.723.671l-.546 1.638-.051.263-.136-.052c-.176-.072-.396-.162-.797-.162-.402 0-.621.09-.798.162-.133.055-.222.091-.438.091-.215 0-.304-.036-.438-.091-.176-.072-.395-.162-.797-.162s-.621.09-.797.162c-.134.055-.222.091-.438.091-.215 0-.304-.036-.438-.091-.176-.072-.395-.162-.797-.162s-.621.09-.797.162c-.134.055-.223.091-.438.091-.216 0-.304-.036-.438-.091-.176-.072-.395-.162-.797-.162-.401 0-.621.09-.797.162-.134.055-.223.091-.438.091-.272 0-.494.232-.494.518 0 .286.222.517.494.517.401 0 .621-.09.797-.162.133-.055.222-.091.438-.091.215 0 .304.036.438.091.176.072.395.162.797.162.401 0 .621-.09.797-.162.134-.055.222-.091.438-.091s.304.036.438.091c.176.072.395.162.797.162s.621-.09.797-.162c.134-.055.223-.091.438-.091.216 0 .304.036.438.091.176.072.395.162.797.162s.621-.09.797-.162c.134-.055.223-.091.438-.091.216 0 .304.036.437.091.176.072.396.162.798.162l.337-.025c.109.043.225.065.344.065h.007l1.677-.013c-.214.3-.258.7-.111 1.045.159.372.512.612.901.612h2.408l2.948.409 1.805.307 1.942.596.202.039 4.216.337.076.003c.511 0 .944-.414.983-.957.042-.57-.366-1.068-.909-1.112zm-8.876-10.241l-1.732 1.854h-4.374l.275-1.374 1.578-.752c.164-.078.274-.243.288-.431l.122-1.637c.021-.285-.182-.535-.454-.557-.27-.022-.51.191-.53.476l-.099 1.332-1.54.735c-.143.068-.247.204-.279.365l-.183.917-.185.926h-1.772l-.146-.156-.988-.664-.147-.066-1.104-.287c-.171-.044-.352.011-.474.144l-.694.758-.262.155-.198.117h-2.881l.133-.108.072-.07 1.21-1.461 2.978-1.045c.094-.033.176-.094.236-.177l1.693-2.321 3.092-2.193.068-.06.009-.008.053-.068.009-.014.038-.075.006-.015.024-.083.002-.012.006-.034.486-4.327.389-1.231 1.228 1.461.051.053 1.131 1.001c.093.082.206.122.319.122.127 0 .254-.051.35-.153l.948-1.002.062-.08.024-.038.893 3.355-.552 1.021-.54 1-.634.034-.652.036c-.272.014-.482.258-.468.543.013.277.231.491.492.491l.026-.001 1.557-.083c.168-.009.321-.108.404-.262l1.314-2.432 1.479-2.165 1.234 1.22c.094.093.216.141.338.141.09 0 .179-.025.259-.077l.885-.572.032.095 1.013 2.267 1.519 3.369-1.861.327-3.159.246c-.167.013-.328.07-.468.166l-1.777 1.221-.112.091-.053.051zm-9.523 3.169l.102.195.186.223h-3.829l.331-.644.091-.053.749-.442.096-.076.018-.017.459-.501.088-.096.369.096.378.098.624.42.14.094.198.703zm-9.25-2.287v-1.069l.608-.347.571-.326c.24-.137.329-.451.198-.703-.13-.251-.429-.344-.669-.208l-.884.504-.028-.114-.071-.285.305-.428.566-.796.052-.092.741-1.676 1.062-2.334 1.176-.712v1.333c0 .083.018.164.055.238l.733 1.491.093.128.035.037 1.377 1.17c.114.097.263.136.407.106.144-.031.268-.127.338-.263l1.524-2.965c.037-.072.057-.153.059-.235l.046-2.22.955-1.043.839 1.689.027.047 1.33 2.1-2.753 1.952-.116.114-1.648 2.262-2.963 1.039c-.083.03-.158.081-.216.151l-1.265 1.528-1.111.897h-1.373v-.972zm15.434-13.546l.416-.144.17-.103.836-.767.197 1.014.101.518.101.518.073.376-.046.015-.146.079-.119.13-.232.37-.592.626-.755-.669-1.216-1.445-.005-.006-.058-.069 1.276-.444zm7.817 2.216l.228 1.545-.167.067-.356.23-.396.256-.606-.6-.478-.472.677-1.219 1.099.193zm-16.064 21.079c.216 0 .304.037.438.091.176.072.396.162.798.162.401 0 .621-.09.797-.162.134-.054.222-.091.438-.091s.304.037.437.091c.176.072.396.162.797.162.402 0 .622-.09.797-.162.134-.054.222-.091.438-.091.273 0 .494-.231.494-.518 0-.286-.221-.517-.494-.517-.401 0-.621.09-.797.162-.134.055-.222.091-.438.091s-.304-.036-.438-.091c-.176-.072-.395-.162-.797-.162s-.621.09-.798.162c-.133.055-.222.091-.437.091-.216 0-.304-.036-.439-.091-.176-.072-.395-.162-.797-.162-.401 0-.621.09-.797.162-.133.055-.222.091-.437.091-.216 0-.304-.036-.438-.091-.176-.072-.395-.162-.797-.162s-.621.09-.797.162c-.134.055-.222.091-.438.091-.272 0-.494.231-.494.517 0 .286.221.518.494.518.401 0 .621-.09.797-.162.134-.054.223-.091.438-.091.216 0 .304.037.437.091.176.072.396.162.798.162.401 0 .621-.09.797-.162.134-.054.223-.091.438-.091zm8.638 1.529c-.401 0-.621.091-.797.162-.134.055-.222.091-.438.091s-.304-.036-.438-.091c-.176-.072-.396-.162-.797-.162s-.621.091-.797.162c-.134.055-.222.091-.438.091s-.304-.036-.439-.091c-.176-.072-.395-.162-.796-.162-.402 0-.621.091-.798.162-.133.055-.222.091-.437.091-.216 0-.304-.036-.438-.091-.176-.072-.395-.162-.797-.162-.401 0-.621.091-.797.162-.134.055-.222.091-.438.091-.272 0-.494.231-.494.518 0 .286.221.518.494.518.401 0 .621-.09.797-.162.134-.055.223-.091.438-.091.216 0 .304.036.437.091.176.072.396.162.798.162.401 0 .621-.09.796-.162.134-.055.223-.091.439-.091s.304.036.437.091c.176.072.396.162.798.162.401 0 .621-.09.797-.162.134-.055.222-.091.438-.091s.304.036.438.091c.176.072.395.162.797.162.401 0 .621-.09.797-.162.134-.055.222-.091.438-.091.273 0 .494-.233.494-.518 0-.286-.221-.518-.494-.518zm-14.917-5.637c.216 0 .304.036.438.091.176.073.395.162.798.162.401 0 .62-.09.796-.162.134-.054.223-.091.438-.091.216 0 .304.036.438.091.176.073.395.162.797.162.401 0 .621-.09.797-.162.134-.054.223-.091.438-.091.273 0 .494-.232.494-.518 0-.286-.221-.518-.494-.518-.401 0-.621.09-.797.162-.134.054-.222.091-.438.091s-.304-.037-.438-.091c-.176-.073-.395-.162-.797-.162-.401 0-.621.09-.797.162-.134.054-.222.091-.437.091-.216 0-.305-.037-.439-.091-.176-.073-.395-.162-.797-.162s-.621.09-.797.162c-.133.054-.222.091-.438.091-.215 0-.304-.037-.438-.091-.176-.073-.395-.162-.796-.162-.402 0-.621.09-.798.162-.133.054-.222.091-.438.091-.272 0-.494.231-.494.518 0 .286.221.518.494.518.402 0 .621-.09.797-.162.133-.054.223-.091.438-.091s.304.036.437.091c.176.073.395.162.797.162s.621-.09.797-.162c.134-.054.222-.091.438-.091zm-1.481-19.461c.224.207.511.322.808.322h1.053l-.004.081c0 .32.131.625.361.838.195.18.445.279.704.279h3.508c.587 0 1.064-.501 1.064-1.117s-.477-1.117-1.064-1.117h-.084l.023-.247c0-.708-.548-1.283-1.223-1.283h-4.337c-.297 0-.584.113-.808.321-.263.244-.415.594-.415.962 0 .367.151.718.415.962zm.653-1.147l.155-.062h4.337c.13 0 .236.111.236.247s-.106.247-.236.247c-.272 0-.493.233-.493.518h-.002c0 .286.221.518.493.518h1.286c.043 0 .078.036.078.081 0 .045-.035.081-.078.081h-3.508l-.05-.02-.027-.061.027-.061.05-.02h.002c.273 0 .494-.232.494-.518 0-.286-.221-.518-.494-.518h-2.115l-.155-.062c-.031-.027-.08-.089-.08-.185 0-.097.05-.157.08-.185zm8.509.695h5.012c.273 0 .494-.231.494-.518 0-.286-.221-.518-.494-.518h-5.012c-.272 0-.494.232-.494.518 0 .286.221.518.494.518" fill="#3A434E"/></g></g></svg>
