<svg width="32" height="232" viewBox="0 0 32 232" xmlns="http://www.w3.org/2000/svg"><title>chile</title><desc>Created with Sketch.</desc><g fill="none"><path d="M31.01 146.913l-4.114-.33-1.9-.583-.12-.028-1.88-.32-.03-.005-3.025-.42-.128-.008h-.275c.225-.303.273-.714.122-1.066-.16-.37-.513-.608-.9-.608h-.007l-1.244.01.498-.114c.166-.038.32-.12.448-.24l2.732-2.562.047-.047 2.234-2.39 1.473-1.012 2.95-.228.092-.01 3.244-.572c.537-.095.9-.628.81-1.193-.09-.564-.598-.945-1.136-.85l-.326.057-1.637-3.633-.982-2.197-.422-2.866c-.033-.22-.197-.395-.407-.43l-1.788-.315c-.203-.035-.405.064-.508.25l-1.034 1.863-1.21 1.77-.847-3.18-.118-.608h1.216c.273 0 .495-.232.495-.518 0-.287-.22-.52-.494-.52h-1.416l-.407-2.094c-.035-.18-.16-.328-.326-.387s-.35-.02-.48.1l-1.4 1.286-2.307.8-.005.004-.075.035-.015.01-.07.05-.006.006-.006.007-.06.067-.008.013-.04.07-.006.01-.01.023h-2.025c-.272 0-.494.232-.494.518 0 .286.22.518.494.518h1.696l-.36 1.136-.02.102-.335 2.98-.843-1.33-1.146-2.305c-.074-.15-.21-.25-.37-.274-.157-.023-.315.034-.425.154l-1.564 1.71c-.085.093-.133.217-.136.346l-.048 2.297-1.012 1.968-.174.34-.833-.71-.63-1.283v-2.105c0-.185-.095-.356-.248-.448-.154-.092-.342-.092-.494 0l-2.05 1.24c-.085.053-.154.132-.197.226l-.692 1.518-.252-.534c-.062-.133-.176-.23-.312-.27L2.68 129.5c-.134-.04-.277-.016-.394.06-.117.078-.198.204-.223.347l-.287 1.66-1.257 1.575c-.176.22-.148.546.06.73.094.08.206.12.318.12.14 0 .28-.063.38-.185l.38-.476.96-1.203c.055-.07.093-.152.108-.24l.214-1.238.32.09.5 1.06-.547 1.238-.074.17-.985 1.38c-.09.125-.12.287-.082.44l.303 1.216v2.283h-.99c-.27 0-.493.232-.493.518 0 .286.22.518.494.518H8.31l-.36.697H6.33c-.272 0-.494.23-.494.517 0 .286.222.518.494.518h7.662c.193 0 .37-.12.45-.305.08-.185.048-.402-.08-.555l-.73-.873h5.745l-2.04 1.912-2.132.485c-.336.076-.61.33-.723.67l-.546 1.638-.05.263-.137-.05c-.177-.073-.397-.163-.798-.163-.402 0-.62.09-.798.162-.133.054-.222.09-.438.09-.215 0-.304-.036-.438-.09-.176-.073-.395-.163-.797-.163s-.62.09-.796.162c-.134.054-.222.09-.438.09-.215 0-.304-.036-.438-.09-.176-.073-.395-.163-.797-.163s-.62.09-.796.162c-.134.054-.223.09-.438.09-.216 0-.304-.036-.438-.09-.176-.073-.395-.163-.797-.163-.4 0-.62.09-.796.162-.134.054-.223.09-.438.09-.272 0-.494.232-.494.518 0 .286.222.517.494.517.4 0 .62-.09.797-.162.133-.055.222-.09.438-.09s.305.035.44.09c.175.072.394.162.796.162.4 0 .62-.09.797-.162.134-.055.222-.09.438-.09s.305.035.44.09c.175.072.394.162.796.162s.62-.09.797-.162c.134-.055.223-.09.438-.09.217 0 .305.035.44.09.175.072.394.162.796.162s.62-.09.797-.162c.134-.055.223-.09.438-.09.217 0 .305.035.438.09.176.072.396.162.798.162l.337-.025c.11.043.225.065.344.065h.007l1.677-.013c-.213.3-.257.7-.11 1.045.16.372.512.612.9.612h2.41l2.947.408 1.805.307 1.942.596.202.04 4.216.337.076.003c.51 0 .944-.414.983-.957.043-.57-.365-1.068-.908-1.112zm-8.877-10.24l-1.732 1.853h-4.373l.275-1.374 1.578-.752c.164-.078.274-.243.288-.43l.122-1.638c.02-.285-.182-.535-.454-.557-.27-.022-.51.19-.53.476l-.1 1.333-1.54.735c-.142.068-.246.204-.278.365l-.183.917-.185.926h-1.772l-.146-.156-.988-.664-.147-.066-1.104-.287c-.17-.044-.352.01-.474.144l-.695.758-.262.155-.198.117h-2.88l.132-.108.072-.07 1.21-1.462 2.977-1.045c.094-.033.176-.094.236-.177l1.693-2.32 3.092-2.194.068-.06.01-.008.052-.068.01-.014.037-.075.006-.015.025-.083.002-.013.006-.034.486-4.327.388-1.23 1.228 1.46.05.053 1.132 1c.093.082.206.122.32.122.126 0 .253-.05.35-.153l.947-1.003.062-.08.024-.038.894 3.354-.552 1.02-.54 1-.634.035-.652.035c-.272.014-.482.258-.468.543.013.277.23.49.492.49h.026l1.557-.083c.168-.01.32-.108.404-.262l1.314-2.432 1.48-2.164 1.234 1.22c.094.093.216.14.338.14.09 0 .18-.024.26-.076l.884-.572.032.095 1.013 2.267 1.52 3.37-1.86.326-3.16.246c-.167.013-.328.07-.468.166l-1.777 1.22-.112.092-.053.05zm-9.523 3.168l.102.196.186.223h-3.83l.332-.645.09-.053.75-.442.096-.076.018-.017.46-.5.087-.097.37.096.378.098.624.42.14.094.198.703zm-9.25-2.286v-1.07l.608-.346.57-.326c.24-.137.33-.45.2-.703-.13-.252-.43-.345-.67-.21l-.884.505-.028-.114-.07-.284.304-.428.566-.796.052-.092.74-1.676 1.063-2.334 1.177-.712v1.333c0 .084.018.165.055.24l.733 1.49.093.128.035.037 1.377 1.17c.114.097.263.136.407.106.144-.03.268-.126.338-.262l1.524-2.965c.036-.072.056-.153.058-.235l.046-2.22.955-1.043.838 1.69.027.046 1.33 2.1-2.753 1.953-.116.114-1.648 2.262-2.963 1.038c-.083.03-.158.08-.216.15l-1.266 1.53-1.11.896H3.36v-.972zm15.434-13.546l.416-.144.17-.103.836-.766.197 1.014.1.518.102.518.073.376-.046.015-.146.08-.12.13-.23.37-.593.625-.755-.67-1.216-1.444-.005-.006-.058-.07 1.275-.443zm7.817 2.216l.23 1.545-.168.066-.356.23-.396.256-.606-.6-.478-.472.677-1.22 1.1.194zm-16.063 21.08c.216 0 .304.036.438.09.176.072.396.162.798.162.4 0 .62-.09.797-.162.134-.054.222-.09.438-.09s.304.036.437.09c.176.072.396.162.797.162.402 0 .622-.09.797-.162.133-.054.22-.09.437-.09.273 0 .494-.232.494-.52 0-.285-.22-.516-.493-.516-.4 0-.62.09-.797.162-.134.055-.222.09-.438.09s-.304-.035-.438-.09c-.176-.072-.395-.162-.797-.162s-.62.09-.798.162c-.134.055-.223.09-.438.09-.216 0-.304-.035-.44-.09-.175-.072-.394-.162-.796-.162-.4 0-.62.09-.797.162-.134.055-.223.09-.438.09-.216 0-.304-.035-.438-.09-.176-.072-.395-.162-.797-.162s-.62.09-.797.162c-.134.055-.222.09-.438.09-.272 0-.494.232-.494.518 0 .286.22.518.494.518.4 0 .62-.09.797-.162.133-.054.222-.09.437-.09.216 0 .304.036.437.09.176.072.396.162.798.162.4 0 .62-.09.797-.162.133-.054.222-.09.437-.09zm8.638 1.528c-.4 0-.62.09-.797.162-.134.055-.222.09-.438.09s-.304-.035-.438-.09c-.176-.072-.396-.162-.797-.162s-.62.09-.797.162c-.134.055-.222.09-.438.09s-.304-.035-.44-.09c-.175-.072-.394-.162-.795-.162-.402 0-.62.09-.798.162-.133.055-.222.09-.437.09-.216 0-.304-.035-.438-.09-.176-.072-.395-.162-.797-.162-.4 0-.62.09-.797.162-.134.055-.222.09-.438.09-.272 0-.494.232-.494.52 0 .285.22.517.494.517.4 0 .62-.09.797-.16.134-.056.223-.092.438-.092.216 0 .304.036.437.09.176.073.396.163.798.163.4 0 .62-.09.796-.16.134-.056.223-.092.44-.092s.303.036.436.09c.176.073.396.163.798.163.4 0 .62-.09.797-.16.134-.056.222-.092.438-.092s.304.036.438.09c.176.073.395.163.797.163.4 0 .62-.09.797-.16.134-.056.222-.092.438-.092.273 0 .494-.233.494-.518 0-.286-.222-.518-.495-.518zm-14.917-5.637c.216 0 .304.036.438.09.176.074.395.163.798.163.4 0 .62-.09.796-.162.134-.054.223-.09.438-.09.216 0 .304.035.438.09.176.073.395.162.797.162.4 0 .62-.09.797-.162.134-.054.223-.09.438-.09.273 0 .494-.233.494-.52 0-.285-.22-.517-.494-.517-.4 0-.62.09-.797.16-.133.055-.22.092-.437.092s-.304-.037-.438-.09c-.176-.074-.395-.163-.797-.163-.4 0-.62.09-.797.16-.133.055-.22.092-.436.092s-.305-.037-.44-.09c-.175-.074-.394-.163-.796-.163s-.62.09-.797.16c-.132.055-.22.092-.437.092-.215 0-.304-.037-.438-.09-.176-.074-.395-.163-.796-.163-.403 0-.622.09-.8.16-.132.055-.22.092-.437.092-.272 0-.494.23-.494.518 0 .286.22.518.493.518.402 0 .62-.09.797-.162.133-.054.223-.09.438-.09s.304.035.437.09c.176.073.395.162.797.162s.62-.09.797-.162c.133-.054.22-.09.437-.09zm-1.48-19.46c.223.206.51.32.807.32h1.053l-.004.082c0 .32.13.625.36.838.196.18.446.28.705.28h3.507c.587 0 1.064-.502 1.064-1.118s-.476-1.117-1.063-1.117h-.084l.023-.247c0-.708-.548-1.283-1.223-1.283H3.596c-.297 0-.584.113-.808.32-.263.245-.415.595-.415.963 0 .367.15.718.415.962zm.652-1.148l.155-.062h4.337c.13 0 .236.11.236.247s-.106.247-.236.247c-.272 0-.493.232-.493.517h-.003c0 .286.22.518.493.518h1.286c.043 0 .078.036.078.08 0 .046-.035.082-.078.082H5.708l-.05-.02-.027-.06.028-.062.05-.02h.002c.273 0 .494-.232.494-.518 0-.286-.22-.518-.494-.518H3.595l-.155-.063c-.03-.027-.08-.09-.08-.185 0-.097.05-.157.08-.185zm8.51.695h5.01c.274 0 .495-.23.495-.518 0-.286-.22-.518-.494-.518h-5.01c-.273 0-.495.232-.495.518 0 .286.22.518.494.518" fill="#206FAC"/><path d="M31.01 106.913l-4.114-.33-1.9-.583-.12-.028-1.88-.32-.03-.005-3.025-.42-.128-.008h-.275c.225-.303.273-.714.122-1.066-.16-.37-.513-.608-.9-.608h-.007l-1.244.01.498-.114c.166-.038.32-.12.448-.24l2.732-2.562.047-.047 2.234-2.39 1.473-1.012 2.95-.228.092-.01 3.244-.572c.537-.095.9-.628.81-1.193-.09-.564-.598-.945-1.136-.85l-.326.057-1.637-3.633-.982-2.197-.422-2.866c-.033-.22-.197-.395-.407-.43l-1.788-.315c-.203-.035-.405.064-.508.25L23.8 87.066l-1.21 1.77-.847-3.18-.118-.608h1.216c.273 0 .495-.232.495-.518 0-.287-.22-.52-.494-.52h-1.416l-.407-2.094c-.035-.18-.16-.328-.326-.387s-.35-.02-.48.1l-1.4 1.286-2.307.8-.005.004-.075.035-.015.01-.07.05-.006.006-.006.007-.06.067-.008.013-.04.07-.006.01-.01.023h-2.025c-.272 0-.494.232-.494.518 0 .286.22.518.494.518h1.696l-.36 1.136-.02.102-.335 2.98-.843-1.33-1.146-2.305c-.074-.15-.21-.25-.37-.274-.157-.023-.315.034-.425.154l-1.564 1.71c-.085.093-.133.217-.136.346l-.048 2.297-1.012 1.968-.174.34-.833-.71-.63-1.283v-2.105c0-.185-.095-.356-.248-.448-.154-.092-.342-.092-.494 0l-2.05 1.24c-.085.053-.154.132-.197.226l-.692 1.518-.252-.534c-.062-.133-.176-.23-.312-.27L2.68 89.5c-.134-.04-.277-.016-.394.06-.117.078-.198.204-.223.347l-.287 1.66L.52 93.142c-.176.22-.148.546.06.73.094.08.206.12.318.12.14 0 .28-.063.38-.185l.38-.476.96-1.203c.055-.07.093-.152.108-.24l.214-1.238.32.09.5 1.06-.547 1.238-.074.17-.985 1.38c-.09.125-.12.287-.082.44l.303 1.216v2.283h-.99c-.27 0-.493.232-.493.518 0 .286.22.518.494.518H8.31l-.36.697H6.33c-.272 0-.494.23-.494.517 0 .286.222.518.494.518h7.662c.193 0 .37-.12.45-.305.08-.185.048-.402-.08-.555l-.73-.873h5.745l-2.04 1.912-2.132.485c-.336.076-.61.33-.723.67l-.546 1.638-.05.263-.137-.05c-.177-.073-.397-.163-.798-.163-.402 0-.62.09-.798.162-.133.054-.222.09-.438.09-.215 0-.304-.036-.438-.09-.176-.073-.395-.163-.797-.163s-.62.09-.796.162c-.134.054-.222.09-.438.09-.215 0-.304-.036-.438-.09-.176-.073-.395-.163-.797-.163s-.62.09-.796.162c-.134.054-.223.09-.438.09-.216 0-.304-.036-.438-.09-.176-.073-.395-.163-.797-.163-.4 0-.62.09-.796.162-.134.054-.223.09-.438.09-.272 0-.494.232-.494.518 0 .286.222.517.494.517.4 0 .62-.09.797-.162.133-.055.222-.09.438-.09s.305.035.44.09c.175.072.394.162.796.162.4 0 .62-.09.797-.162.134-.055.222-.09.438-.09s.305.035.44.09c.175.072.394.162.796.162s.62-.09.797-.162c.134-.055.223-.09.438-.09.217 0 .305.035.44.09.175.072.394.162.796.162s.62-.09.797-.162c.134-.055.223-.09.438-.09.217 0 .305.035.438.09.176.072.396.162.798.162l.337-.025c.11.043.225.065.344.065h.007l1.677-.013c-.213.3-.257.7-.11 1.045.16.372.512.612.9.612h2.41l2.947.408 1.805.307 1.942.596.202.04 4.216.337.076.003c.51 0 .944-.414.983-.957.043-.57-.365-1.068-.908-1.112zm-8.877-10.24L20.4 98.525h-4.373l.275-1.374 1.578-.752c.164-.078.274-.243.288-.43l.122-1.638c.02-.285-.182-.535-.454-.557-.27-.022-.51.19-.53.476l-.1 1.333-1.54.735c-.142.068-.246.204-.278.365l-.183.917-.185.926h-1.772l-.146-.156-.988-.664-.147-.066-1.104-.287c-.17-.044-.352.01-.474.144l-.695.758-.262.155-.198.117h-2.88l.132-.108.072-.07 1.21-1.462 2.977-1.045c.094-.033.176-.094.236-.177l1.693-2.32 3.092-2.194.068-.06.01-.008.052-.068.01-.014.037-.075.006-.015.025-.083.002-.013.006-.034.486-4.327.388-1.23 1.228 1.46.05.053 1.132 1c.093.082.206.122.32.122.126 0 .253-.05.35-.153l.947-1.003.062-.08.024-.038.894 3.354-.552 1.02-.54 1-.634.035-.652.035c-.272.014-.482.258-.468.543.013.277.23.49.492.49h.026l1.557-.083c.168-.01.32-.108.404-.262l1.314-2.432 1.48-2.164 1.234 1.22c.094.093.216.14.338.14.09 0 .18-.024.26-.076l.884-.572.032.095L28.05 91.2l1.52 3.37-1.86.326-3.16.246c-.167.013-.328.07-.468.166l-1.777 1.22-.112.092-.053.05zM12.61 99.84l.102.196.186.223h-3.83l.332-.645.09-.053.75-.442.096-.076.018-.017.46-.5.087-.097.37.096.378.098.624.42.14.094.198.703zm-9.25-2.286v-1.07l.608-.346.57-.326c.24-.137.33-.45.2-.703-.13-.252-.43-.345-.67-.21l-.884.505-.028-.114-.07-.284.304-.428.566-.796.052-.092.74-1.676 1.063-2.334 1.177-.712V90.3c0 .084.018.165.055.24l.733 1.49.093.128.035.037 1.377 1.17c.114.097.263.136.407.106.144-.03.268-.126.338-.262l1.524-2.965c.036-.072.056-.153.058-.235l.046-2.22.955-1.043.838 1.69.027.046 1.33 2.1-2.753 1.953-.116.114-1.648 2.262-2.963 1.038c-.083.03-.158.08-.216.15l-1.266 1.53-1.11.896H3.36v-.972zm15.434-13.546l.416-.144.17-.103.836-.766.197 1.014.1.518.102.518.073.376-.046.015-.146.08-.12.13-.23.37-.593.625-.755-.67-1.216-1.444-.005-.006-.058-.07 1.275-.443zm7.817 2.216l.23 1.545-.168.066-.356.23-.396.256-.606-.6-.478-.472.677-1.22 1.1.194zm-16.063 21.08c.216 0 .304.036.438.09.176.072.396.162.798.162.4 0 .62-.09.797-.162.134-.054.222-.09.438-.09s.304.036.437.09c.176.072.396.162.797.162.402 0 .622-.09.797-.162.133-.054.22-.09.437-.09.273 0 .494-.232.494-.52 0-.285-.22-.516-.493-.516-.4 0-.62.09-.797.162-.134.055-.222.09-.438.09s-.304-.035-.438-.09c-.176-.072-.395-.162-.797-.162s-.62.09-.798.162c-.134.055-.223.09-.438.09-.216 0-.304-.035-.44-.09-.175-.072-.394-.162-.796-.162-.4 0-.62.09-.797.162-.134.055-.223.09-.438.09-.216 0-.304-.035-.438-.09-.176-.072-.395-.162-.797-.162s-.62.09-.797.162c-.134.055-.222.09-.438.09-.272 0-.494.232-.494.518 0 .286.22.518.494.518.4 0 .62-.09.797-.162.133-.054.222-.09.437-.09.216 0 .304.036.437.09.176.072.396.162.798.162.4 0 .62-.09.797-.162.133-.054.222-.09.437-.09zm8.638 1.528c-.4 0-.62.09-.797.162-.134.055-.222.09-.438.09s-.304-.035-.438-.09c-.176-.072-.396-.162-.797-.162s-.62.09-.797.162c-.134.055-.222.09-.438.09s-.304-.035-.44-.09c-.175-.072-.394-.162-.795-.162-.402 0-.62.09-.798.162-.133.055-.222.09-.437.09-.216 0-.304-.035-.438-.09-.176-.072-.395-.162-.797-.162-.4 0-.62.09-.797.162-.134.055-.222.09-.438.09-.272 0-.494.232-.494.52 0 .285.22.517.494.517.4 0 .62-.09.797-.16.134-.056.223-.092.438-.092.216 0 .304.036.437.09.176.073.396.163.798.163.4 0 .62-.09.796-.16.134-.056.223-.092.44-.092s.303.036.436.09c.176.073.396.163.798.163.4 0 .62-.09.797-.16.134-.056.222-.092.438-.092s.304.036.438.09c.176.073.395.163.797.163.4 0 .62-.09.797-.16.134-.056.222-.092.438-.092.273 0 .494-.233.494-.518 0-.286-.222-.518-.495-.518zm-14.917-5.637c.216 0 .304.036.438.09.176.074.395.163.798.163.4 0 .62-.09.796-.162.134-.054.223-.09.438-.09.216 0 .304.035.438.09.176.073.395.162.797.162.4 0 .62-.09.797-.162.134-.054.223-.09.438-.09.273 0 .494-.233.494-.52 0-.285-.22-.517-.494-.517-.4 0-.62.09-.797.16-.133.055-.22.092-.437.092s-.304-.037-.438-.09c-.176-.074-.395-.163-.797-.163-.4 0-.62.09-.797.16-.133.055-.22.092-.436.092s-.305-.037-.44-.09c-.175-.074-.394-.163-.796-.163s-.62.09-.797.16c-.132.055-.22.092-.437.092-.215 0-.304-.037-.438-.09-.176-.074-.395-.163-.796-.163-.403 0-.622.09-.8.16-.132.055-.22.092-.437.092-.272 0-.494.23-.494.518 0 .286.22.518.493.518.402 0 .62-.09.797-.162.133-.054.223-.09.438-.09s.304.035.437.09c.176.073.395.162.797.162s.62-.09.797-.162c.133-.054.22-.09.437-.09zm-1.48-19.46c.223.206.51.32.807.32h1.053l-.004.082c0 .32.13.625.36.838.196.18.446.28.705.28h3.507c.587 0 1.064-.502 1.064-1.118s-.476-1.117-1.063-1.117h-.084l.023-.247c0-.708-.548-1.283-1.223-1.283H3.596c-.297 0-.584.113-.808.32-.263.245-.415.595-.415.963 0 .367.15.718.415.962zm.652-1.148l.155-.062h4.337c.13 0 .236.11.236.247s-.106.247-.236.247c-.272 0-.493.232-.493.517h-.003c0 .286.22.518.493.518h1.286c.043 0 .078.036.078.08 0 .046-.035.082-.078.082H5.708l-.05-.02-.027-.06.028-.062.05-.02h.002c.273 0 .494-.232.494-.518 0-.286-.22-.518-.494-.518H3.595l-.155-.063c-.03-.027-.08-.09-.08-.185 0-.097.05-.157.08-.185zm8.51.695h5.01c.274 0 .495-.23.495-.518 0-.286-.22-.518-.494-.518h-5.01c-.273 0-.495.232-.495.518 0 .286.22.518.494.518" fill="#fff"/><path d="M31.01 66.913l-4.114-.33-1.9-.583-.12-.028-1.88-.32-.03-.005-3.025-.42-.128-.008h-.275c.225-.303.273-.714.122-1.066-.16-.37-.513-.608-.9-.608h-.007l-1.244.01.498-.114c.166-.038.32-.12.448-.24l2.732-2.562.047-.047 2.234-2.39 1.473-1.012 2.95-.228.092-.01 3.244-.572c.537-.095.9-.628.81-1.193-.09-.564-.598-.945-1.136-.85l-.326.057-1.637-3.633-.982-2.197-.422-2.866c-.033-.22-.197-.395-.407-.43l-1.788-.315c-.203-.035-.405.064-.508.25L23.8 47.066l-1.21 1.77-.847-3.18-.118-.608h1.216c.273 0 .495-.232.495-.518 0-.287-.22-.52-.494-.52h-1.416l-.407-2.094c-.035-.18-.16-.328-.326-.387s-.35-.02-.48.1l-1.4 1.286-2.307.8-.005.004-.075.035-.015.01-.07.05-.006.006-.006.007-.06.067-.008.013-.04.07-.006.01-.01.023h-2.025c-.272 0-.494.232-.494.518 0 .286.22.518.494.518h1.696l-.36 1.136-.02.102-.335 2.98-.843-1.33-1.146-2.305c-.074-.15-.21-.25-.37-.274-.157-.023-.315.034-.425.154l-1.564 1.71c-.085.093-.133.217-.136.346l-.048 2.297-1.012 1.968-.174.34-.833-.71-.63-1.283v-2.105c0-.185-.095-.356-.248-.448-.154-.092-.342-.092-.494 0l-2.05 1.24c-.085.053-.154.132-.197.226l-.692 1.518-.252-.534c-.062-.133-.176-.23-.312-.27L2.68 49.5c-.134-.04-.277-.016-.394.06-.117.078-.198.204-.223.347l-.287 1.66L.52 53.142c-.176.22-.148.546.06.73.094.08.206.12.318.12.14 0 .28-.063.38-.185l.38-.476.96-1.203c.055-.07.093-.152.108-.24l.214-1.238.32.09.5 1.06-.547 1.238-.074.17-.985 1.38c-.09.125-.12.287-.082.44l.303 1.216v2.283h-.99c-.27 0-.493.232-.493.518 0 .286.22.518.494.518H8.31l-.36.697H6.33c-.272 0-.494.23-.494.517 0 .286.222.518.494.518h7.662c.193 0 .37-.12.45-.305.08-.185.048-.402-.08-.555l-.73-.873h5.745l-2.04 1.912-2.132.485c-.336.076-.61.33-.723.67l-.546 1.638-.05.263-.137-.05c-.177-.073-.397-.163-.798-.163-.402 0-.62.09-.798.162-.133.054-.222.09-.438.09-.215 0-.304-.036-.438-.09-.176-.073-.395-.163-.797-.163s-.62.09-.796.162c-.134.054-.222.09-.438.09-.215 0-.304-.036-.438-.09-.176-.073-.395-.163-.797-.163s-.62.09-.796.162c-.134.054-.223.09-.438.09-.216 0-.304-.036-.438-.09-.176-.073-.395-.163-.797-.163-.4 0-.62.09-.796.162-.134.054-.223.09-.438.09-.272 0-.494.232-.494.518 0 .286.222.517.494.517.4 0 .62-.09.797-.162.133-.055.222-.09.438-.09s.305.035.44.09c.175.072.394.162.796.162.4 0 .62-.09.797-.162.134-.055.222-.09.438-.09s.305.035.44.09c.175.072.394.162.796.162s.62-.09.797-.162c.134-.055.223-.09.438-.09.217 0 .305.035.44.09.175.072.394.162.796.162s.62-.09.797-.162c.134-.055.223-.09.438-.09.217 0 .305.035.438.09.176.072.396.162.798.162l.337-.025c.11.043.225.065.344.065h.007l1.677-.013c-.213.3-.257.7-.11 1.045.16.372.512.612.9.612h2.41l2.947.408 1.805.307 1.942.596.202.04 4.216.337.076.003c.51 0 .944-.414.983-.957.043-.57-.365-1.068-.908-1.112zm-8.877-10.24L20.4 58.525h-4.373l.275-1.374 1.578-.752c.164-.078.274-.243.288-.43l.122-1.638c.02-.285-.182-.535-.454-.557-.27-.022-.51.19-.53.476l-.1 1.333-1.54.735c-.142.068-.246.204-.278.365l-.183.917-.185.926h-1.772l-.146-.156-.988-.664-.147-.066-1.104-.287c-.17-.044-.352.01-.474.144l-.695.758-.262.155-.198.117h-2.88l.132-.108.072-.07 1.21-1.462 2.977-1.045c.094-.033.176-.094.236-.177l1.693-2.32 3.092-2.194.068-.06.01-.008.052-.068.01-.014.037-.075.006-.015.025-.083.002-.013.006-.034.486-4.327.388-1.23 1.228 1.46.05.053 1.132 1c.093.082.206.122.32.122.126 0 .253-.05.35-.153l.947-1.003.062-.08.024-.038.894 3.354-.552 1.02-.54 1-.634.035-.652.035c-.272.014-.482.258-.468.543.013.277.23.49.492.49h.026l1.557-.083c.168-.01.32-.108.404-.262l1.314-2.432 1.48-2.164 1.234 1.22c.094.093.216.14.338.14.09 0 .18-.024.26-.076l.884-.572.032.095L28.05 51.2l1.52 3.37-1.86.326-3.16.246c-.167.013-.328.07-.468.166l-1.777 1.22-.112.092-.053.05zM12.61 59.84l.102.196.186.223h-3.83l.332-.645.09-.053.75-.442.096-.076.018-.017.46-.5.087-.097.37.096.378.098.624.42.14.094.198.703zm-9.25-2.286v-1.07l.608-.346.57-.326c.24-.137.33-.45.2-.703-.13-.252-.43-.345-.67-.21l-.884.505-.028-.114-.07-.284.304-.428.566-.796.052-.092.74-1.676 1.063-2.334 1.177-.712V50.3c0 .084.018.165.055.24l.733 1.49.093.128.035.037 1.377 1.17c.114.097.263.136.407.106.144-.03.268-.126.338-.262l1.524-2.965c.036-.072.056-.153.058-.235l.046-2.22.955-1.043.838 1.69.027.046 1.33 2.1-2.753 1.953-.116.114-1.648 2.262-2.963 1.038c-.083.03-.158.08-.216.15l-1.266 1.53-1.11.896H3.36v-.972zm15.434-13.546l.416-.144.17-.103.836-.766.197 1.014.1.518.102.518.073.376-.046.015-.146.08-.12.13-.23.37-.593.625-.755-.67-1.216-1.444-.005-.006-.058-.07 1.275-.443zm7.817 2.216l.23 1.545-.168.066-.356.23-.396.256-.606-.6-.478-.472.677-1.22 1.1.194zm-16.063 21.08c.216 0 .304.036.438.09.176.072.396.162.798.162.4 0 .62-.09.797-.162.134-.054.222-.09.438-.09s.304.036.437.09c.176.072.396.162.797.162.402 0 .622-.09.797-.162.133-.054.22-.09.437-.09.273 0 .494-.232.494-.52 0-.285-.22-.516-.493-.516-.4 0-.62.09-.797.162-.134.055-.222.09-.438.09s-.304-.035-.438-.09c-.176-.072-.395-.162-.797-.162s-.62.09-.798.162c-.134.055-.223.09-.438.09-.216 0-.304-.035-.44-.09-.175-.072-.394-.162-.796-.162-.4 0-.62.09-.797.162-.134.055-.223.09-.438.09-.216 0-.304-.035-.438-.09-.176-.072-.395-.162-.797-.162s-.62.09-.797.162c-.134.055-.222.09-.438.09-.272 0-.494.232-.494.518 0 .286.22.518.494.518.4 0 .62-.09.797-.162.133-.054.222-.09.437-.09.216 0 .304.036.437.09.176.072.396.162.798.162.4 0 .62-.09.797-.162.133-.054.222-.09.437-.09zm8.638 1.528c-.4 0-.62.09-.797.162-.134.055-.222.09-.438.09s-.304-.035-.438-.09c-.176-.072-.396-.162-.797-.162s-.62.09-.797.162c-.134.055-.222.09-.438.09s-.304-.035-.44-.09c-.175-.072-.394-.162-.795-.162-.402 0-.62.09-.798.162-.133.055-.222.09-.437.09-.216 0-.304-.035-.438-.09-.176-.072-.395-.162-.797-.162-.4 0-.62.09-.797.162-.134.055-.222.09-.438.09-.272 0-.494.232-.494.52 0 .285.22.517.494.517.4 0 .62-.09.797-.16.134-.056.223-.092.438-.092.216 0 .304.036.437.09.176.073.396.163.798.163.4 0 .62-.09.796-.16.134-.056.223-.092.44-.092s.303.036.436.09c.176.073.396.163.798.163.4 0 .62-.09.797-.16.134-.056.222-.092.438-.092s.304.036.438.09c.176.073.395.163.797.163.4 0 .62-.09.797-.16.134-.056.222-.092.438-.092.273 0 .494-.233.494-.518 0-.286-.222-.518-.495-.518zM4.268 63.195c.216 0 .304.036.438.09.176.074.395.163.798.163.4 0 .62-.09.796-.162.134-.054.223-.09.438-.09.216 0 .304.035.438.09.176.073.395.162.797.162.4 0 .62-.09.797-.162.134-.054.223-.09.438-.09.273 0 .494-.233.494-.52 0-.285-.22-.517-.494-.517-.4 0-.62.09-.797.16-.133.055-.22.092-.437.092s-.304-.037-.438-.09c-.176-.074-.395-.163-.797-.163-.4 0-.62.09-.797.16-.133.055-.22.092-.436.092s-.305-.037-.44-.09c-.175-.074-.394-.163-.796-.163s-.62.09-.797.16c-.132.055-.22.092-.437.092-.215 0-.304-.037-.438-.09-.176-.074-.395-.163-.796-.163-.403 0-.622.09-.8.16-.132.055-.22.092-.437.092-.272 0-.494.23-.494.518 0 .286.22.518.493.518.402 0 .62-.09.797-.162.133-.054.223-.09.438-.09s.304.035.437.09c.176.073.395.162.797.162s.62-.09.797-.162c.133-.054.22-.09.437-.09zm-1.48-19.46c.223.206.51.32.807.32h1.053l-.004.082c0 .32.13.625.36.838.196.18.446.28.705.28h3.507c.587 0 1.064-.502 1.064-1.118s-.476-1.117-1.063-1.117h-.084l.023-.247c0-.708-.548-1.283-1.223-1.283H3.596c-.297 0-.584.113-.808.32-.263.245-.415.595-.415.963 0 .367.15.718.415.962zm.652-1.148l.155-.062h4.337c.13 0 .236.11.236.247s-.106.247-.236.247c-.272 0-.493.232-.493.517h-.003c0 .286.22.518.493.518h1.286c.043 0 .078.036.078.08 0 .046-.035.082-.078.082H5.708l-.05-.02-.027-.06.028-.062.05-.02h.002c.273 0 .494-.232.494-.518 0-.286-.22-.518-.494-.518H3.595l-.155-.063c-.03-.027-.08-.09-.08-.185 0-.097.05-.157.08-.185zm8.51.695h5.01c.274 0 .495-.23.495-.518 0-.286-.22-.518-.494-.518h-5.01c-.273 0-.495.232-.495.518 0 .286.22.518.494.518" fill="#67737B"/><path d="M31.01 26.913l-4.114-.33-1.9-.583-.12-.028-1.88-.32-.03-.005-3.025-.42-.128-.008h-.275c.225-.303.273-.714.122-1.066-.16-.37-.513-.608-.9-.608h-.007l-1.244.01.498-.114c.166-.038.32-.12.448-.24l2.732-2.562.047-.047 2.234-2.39 1.473-1.012 2.95-.228.092-.01 3.244-.572c.537-.095.9-.628.81-1.193-.09-.564-.598-.945-1.136-.85l-.326.057-1.637-3.633-.982-2.197-.422-2.866c-.033-.22-.197-.395-.407-.43L25.34 4.95c-.203-.035-.405.064-.508.25L23.8 7.066l-1.21 1.77-.847-3.18-.118-.608h1.216c.273 0 .495-.232.495-.518 0-.287-.22-.52-.494-.52h-1.416l-.407-2.094c-.035-.18-.16-.328-.326-.387s-.35-.02-.48.1l-1.4 1.286-2.307.8-.005.004-.075.035-.015.01-.07.05-.006.006-.006.007-.06.067-.008.013-.04.07-.006.01-.01.023h-2.025c-.272 0-.494.232-.494.518 0 .286.22.518.494.518h1.696l-.36 1.136-.02.102-.335 2.98-.843-1.33-1.146-2.305c-.074-.15-.21-.25-.37-.274-.157-.023-.315.034-.425.154L10.81 7.22c-.085.093-.133.217-.136.346l-.048 2.297-1.012 1.968-.174.34-.833-.71-.63-1.283V8.072c0-.185-.095-.356-.248-.448-.154-.092-.342-.092-.494 0l-2.05 1.24c-.085.053-.154.132-.197.226l-.692 1.518-.252-.534c-.062-.133-.176-.23-.312-.27L2.68 9.5c-.134-.04-.277-.016-.394.06-.117.078-.198.204-.223.347l-.287 1.66L.52 13.142c-.176.22-.148.546.06.73.094.08.206.12.318.12.14 0 .28-.063.38-.185l.38-.476.96-1.203c.055-.07.093-.152.108-.24l.214-1.238.32.09.5 1.06-.547 1.238-.074.17-.985 1.38c-.09.125-.12.287-.082.44l.303 1.216v2.283h-.99c-.27 0-.493.232-.493.518 0 .286.22.518.494.518H8.31l-.36.697H6.33c-.272 0-.494.23-.494.517 0 .286.222.518.494.518h7.662c.193 0 .37-.12.45-.305.08-.185.048-.402-.08-.555l-.73-.873h5.745l-2.04 1.912-2.132.485c-.336.076-.61.33-.723.67l-.546 1.638-.05.263-.137-.05c-.177-.073-.397-.163-.798-.163-.402 0-.62.09-.798.162-.133.054-.222.09-.438.09-.215 0-.304-.036-.438-.09-.176-.073-.395-.163-.797-.163s-.62.09-.796.162c-.134.054-.222.09-.438.09-.215 0-.304-.036-.438-.09-.176-.073-.395-.163-.797-.163s-.62.09-.796.162c-.134.054-.223.09-.438.09-.216 0-.304-.036-.438-.09-.176-.073-.395-.163-.797-.163-.4 0-.62.09-.796.162-.134.054-.223.09-.438.09-.272 0-.494.232-.494.518 0 .286.222.517.494.517.4 0 .62-.09.797-.162.133-.055.222-.09.438-.09s.305.035.44.09c.175.072.394.162.796.162.4 0 .62-.09.797-.162.134-.055.222-.09.438-.09s.305.035.44.09c.175.072.394.162.796.162s.62-.09.797-.162c.134-.055.223-.09.438-.09.217 0 .305.035.44.09.175.072.394.162.796.162s.62-.09.797-.162c.134-.055.223-.09.438-.09.217 0 .305.035.438.09.176.072.396.162.798.162l.337-.025c.11.043.225.065.344.065h.007l1.677-.013c-.213.3-.257.7-.11 1.045.16.372.512.612.9.612h2.41l2.947.408 1.805.307 1.942.596.202.04 4.216.337.076.003c.51 0 .944-.414.983-.957.043-.57-.365-1.068-.908-1.112zm-8.877-10.24L20.4 18.525h-4.373l.275-1.374 1.578-.752c.164-.078.274-.243.288-.43l.122-1.638c.02-.285-.182-.535-.454-.557-.27-.022-.51.19-.53.476l-.1 1.333-1.54.735c-.142.068-.246.204-.278.365l-.183.917-.185.926h-1.772l-.146-.156-.988-.664-.147-.066-1.104-.287c-.17-.044-.352.01-.474.144l-.695.758-.262.155-.198.117h-2.88l.132-.108.072-.07 1.21-1.462 2.977-1.045c.094-.033.176-.094.236-.177l1.693-2.32 3.092-2.194.068-.06.01-.008.052-.068.01-.014.037-.075.006-.015.025-.083.002-.013.006-.034.486-4.327.388-1.23 1.228 1.46.05.053 1.132 1c.093.082.206.122.32.122.126 0 .253-.05.35-.153l.947-1.003.062-.08.024-.038.894 3.354-.552 1.02-.54 1-.634.035-.652.035c-.272.014-.482.258-.468.543.013.277.23.49.492.49h.026l1.557-.083c.168-.01.32-.108.404-.262l1.314-2.432 1.48-2.164 1.234 1.22c.094.093.216.14.338.14.09 0 .18-.024.26-.076l.884-.572.032.095L28.05 11.2l1.52 3.37-1.86.326-3.16.246c-.167.013-.328.07-.468.166l-1.777 1.22-.112.092-.053.05zM12.61 19.84l.102.196.186.223h-3.83l.332-.645.09-.053.75-.442.096-.076.018-.017.46-.5.087-.097.37.096.378.098.624.42.14.094.198.703zm-9.25-2.286v-1.07l.608-.346.57-.326c.24-.137.33-.45.2-.703-.13-.252-.43-.345-.67-.21l-.884.505-.028-.114-.07-.284.304-.428.566-.796.052-.092.74-1.676L5.812 9.68l1.177-.712V10.3c0 .084.018.165.055.24l.733 1.49.093.128.035.037 1.377 1.17c.114.097.263.136.407.106.144-.03.268-.126.338-.262l1.524-2.965c.036-.072.056-.153.058-.235l.046-2.22.955-1.043.838 1.69.027.046 1.33 2.1-2.753 1.953-.116.114-1.648 2.262-2.963 1.038c-.083.03-.158.08-.216.15l-1.266 1.53-1.11.896H3.36v-.972zM18.794 4.008l.416-.144.17-.103.836-.766.197 1.014.1.518.102.518.073.376-.046.015-.146.08-.12.13-.23.37-.593.625-.755-.67-1.216-1.444-.005-.006-.058-.07 1.275-.443zm7.817 2.216l.23 1.545-.168.066-.356.23-.396.256-.606-.6-.478-.472.677-1.22 1.1.194zm-16.063 21.08c.216 0 .304.036.438.09.176.072.396.162.798.162.4 0 .62-.09.797-.162.134-.054.222-.09.438-.09s.304.036.437.09c.176.072.396.162.797.162.402 0 .622-.09.797-.162.133-.054.22-.09.437-.09.273 0 .494-.232.494-.52 0-.285-.22-.516-.493-.516-.4 0-.62.09-.797.162-.134.055-.222.09-.438.09s-.304-.035-.438-.09c-.176-.072-.395-.162-.797-.162s-.62.09-.798.162c-.134.055-.223.09-.438.09-.216 0-.304-.035-.44-.09-.175-.072-.394-.162-.796-.162-.4 0-.62.09-.797.162-.134.055-.223.09-.438.09-.216 0-.304-.035-.438-.09-.176-.072-.395-.162-.797-.162s-.62.09-.797.162c-.134.055-.222.09-.438.09-.272 0-.494.232-.494.518 0 .286.22.518.494.518.4 0 .62-.09.797-.162.133-.054.222-.09.437-.09.216 0 .304.036.437.09.176.072.396.162.798.162.4 0 .62-.09.797-.162.133-.054.222-.09.437-.09zm8.638 1.528c-.4 0-.62.09-.797.162-.134.055-.222.09-.438.09s-.304-.035-.438-.09c-.176-.072-.396-.162-.797-.162s-.62.09-.797.162c-.134.055-.222.09-.438.09s-.304-.035-.44-.09c-.175-.072-.394-.162-.795-.162-.402 0-.62.09-.798.162-.133.055-.222.09-.437.09-.216 0-.304-.035-.438-.09-.176-.072-.395-.162-.797-.162-.4 0-.62.09-.797.162-.134.055-.222.09-.438.09-.272 0-.494.232-.494.52 0 .285.22.517.494.517.4 0 .62-.09.797-.16.134-.056.223-.092.438-.092.216 0 .304.036.437.09.176.073.396.163.798.163.4 0 .62-.09.796-.16.134-.056.223-.092.44-.092s.303.036.436.09c.176.073.396.163.798.163.4 0 .62-.09.797-.16.134-.056.222-.092.438-.092s.304.036.438.09c.176.073.395.163.797.163.4 0 .62-.09.797-.16.134-.056.222-.092.438-.092.273 0 .494-.233.494-.518 0-.286-.222-.518-.495-.518zM4.268 23.195c.216 0 .304.036.438.09.176.074.395.163.798.163.4 0 .62-.09.796-.162.134-.054.223-.09.438-.09.216 0 .304.035.438.09.176.073.395.162.797.162.4 0 .62-.09.797-.162.134-.054.223-.09.438-.09.273 0 .494-.233.494-.52 0-.285-.22-.517-.494-.517-.4 0-.62.09-.797.16-.133.055-.22.092-.437.092s-.304-.037-.438-.09c-.176-.074-.395-.163-.797-.163-.4 0-.62.09-.797.16-.133.055-.22.092-.436.092s-.305-.037-.44-.09c-.175-.074-.394-.163-.796-.163s-.62.09-.797.16c-.132.055-.22.092-.437.092-.215 0-.304-.037-.438-.09-.176-.074-.395-.163-.796-.163-.403 0-.622.09-.8.16-.132.055-.22.092-.437.092-.272 0-.494.23-.494.518 0 .286.22.518.493.518.402 0 .62-.09.797-.162.133-.054.223-.09.438-.09s.304.035.437.09c.176.073.395.162.797.162s.62-.09.797-.162c.133-.054.22-.09.437-.09zm-1.48-19.46c.223.206.51.32.807.32h1.053l-.004.082c0 .32.13.625.36.838.196.18.446.28.705.28h3.507c.587 0 1.064-.502 1.064-1.118S9.805 3.02 9.218 3.02h-.084l.023-.247c0-.708-.548-1.283-1.223-1.283H3.596c-.297 0-.584.113-.808.32-.263.245-.415.595-.415.963 0 .367.15.718.415.962zm.652-1.148l.155-.062h4.337c.13 0 .236.11.236.247s-.106.247-.236.247c-.272 0-.493.232-.493.517h-.003c0 .286.22.518.493.518h1.286c.043 0 .078.036.078.08 0 .046-.035.082-.078.082H5.708l-.05-.02-.027-.06.028-.062.05-.02h.002c.273 0 .494-.232.494-.518 0-.286-.22-.518-.494-.518H3.595l-.155-.063c-.03-.027-.08-.09-.08-.185 0-.097.05-.157.08-.185zm8.51.695h5.01c.274 0 .495-.23.495-.518 0-.286-.22-.518-.494-.518h-5.01c-.273 0-.495.232-.495.518 0 .286.22.518.494.518" fill="#3A434E"/></g></svg>