<svg width="32" height="232" viewBox="0 0 32 232" xmlns="http://www.w3.org/2000/svg" xmlns:sketch="http://www.bohemiancoding.com/sketch/ns"><title>macau-china</title><desc>Created with Sketch.</desc><g sketch:type="MSPage" fill="none"><g sketch:type="MSShapeGroup"><path d="M30.877 148.822h-1.956l1.915-9.769c.029-.148-.009-.301-.104-.417-.095-.116-.237-.184-.386-.184h-4.42v-1.001c.161-.059.285-.199.319-.377l.32-1.66c.263.047.533.072.806.072.358 0 .717-.042 1.068-.126 2.17-.516 3.668-2.517 3.562-4.757-.01-.208-.147-.389-.343-.454-.197-.065-.413-.001-.544.161-.395.491-.853.91-1.361 1.252.666-1.699.293-3.678-1.035-5.011-.147-.148-.369-.189-.558-.103-.189.086-.306.28-.294.488.014.249.014.497-.001.742-.213-.505-.512-.968-.885-1.369-.332-1.488-1.147-2.834-2.345-3.827-.184-.153-.451-.153-.635 0-1.198.992-2.012 2.338-2.344 3.827-.373.401-.672.865-.885 1.369-.015-.245-.015-.493-.001-.743.012-.208-.105-.402-.294-.488-.189-.086-.411-.045-.558.103-1.328 1.333-1.701 3.313-1.035 5.011-.508-.342-.966-.761-1.361-1.252-.131-.162-.347-.226-.544-.161-.197.065-.334.246-.343.454-.106 2.24 1.392 4.241 3.562 4.757.351.083.71.126 1.068.126.273 0 .543-.025.806-.072l.32 1.66c.034.177.158.318.319.377v1.001h-3.256c-.276 0-.5.225-.5.503v1.112c-3.103-.317-7.258-1.008-10.823-2.509.018-1.901.066-4.09.157-6.598l.057-.117.455-1.401h.343c.276 0 .5-.225.5-.503 0-.117-.039-.224-.105-.309l-.862-1.329c-.092-.142-.25-.228-.418-.228h-.141l-.705-5.407c-.033-.25-.245-.438-.495-.438-.251 0-.463.187-.495.438l-.705 5.407h-.085c-.169 0-.326.086-.418.228l-.885 1.362c-.1.155-.109.352-.021.515.087.163.256.264.439.264h.341l.455 1.401c.026.081.072.152.131.208.071 1.979.116 3.758.14 5.354-.98-.577-1.87-1.238-2.624-1.997-.143-.144-.358-.187-.544-.109-.187.078-.309.261-.309.465v14.059h-1.335c-.552 0-.999.451-.999 1.006 0 .556.447 1.006.999 1.006h29.878c.552 0 .999-.451.999-1.006 0-.556-.448-1.006-.999-1.006zm-1.139-9.364l-1.836 9.364h-.581l-.492-6.3c-.02-.262-.237-.464-.498-.464h-.404v-2.6h3.812zm-23.056-8.119h.592c-.075 2.148-.119 4.064-.14 5.77l-.006.552-.004.559c-.008 1.264-.003 2.403.013 3.426l.009.503.01.503.026.954.017.503.02.503.055 1.131.03.503.034.503.069.87.048.503.055.503.024.195.06.439h-1.229l.06-.439.024-.195.055-.503.048-.503.069-.87.034-.503.03-.503.055-1.131.02-.503.017-.503.026-.954.01-.503.009-.503c.016-1.06.021-2.244.012-3.562l-.005-.567-.006-.562c-.021-1.668-.065-3.532-.138-5.616zm-.783-3.259h2.087l.231.356h-2.549l.114-.176.117-.18zm1.848 1.362l-.241.741h-1.13l-.24-.741h1.611zm11.205 11.639l.999.091c1.161.096 2.116.138 2.757.157v.317h-14.57c-.014-.896-.02-1.893-.016-2.998 1.981.796 4.296 1.43 6.935 1.898 1.393.247 2.72.417 3.894.535zm1.473-6.701c-1.234-.293-2.191-1.199-2.592-2.344.644.52 1.372.918 2.162 1.187.528.507 1.166.881 1.862 1.091l.24.066-.218.045c-.201.035-.407.054-.616.054-.28 0-.562-.033-.838-.099zm-.233-2.466c-.716-1.054-.817-2.372-.347-3.491.113.721.337 1.418.664 2.075.169.777.526 1.478 1.02 2.053.171.199.357.382.558.549.153.127.315.244.483.351-.403-.07-.789-.209-1.142-.406-.332-.185-.634-.423-.896-.706-.123-.133-.237-.274-.34-.426zm1.244-1.895c-.072-.502-.036-.999.088-1.465.1-.378.26-.735.471-1.059.164-.252.359-.484.581-.689l.079-.074c-.056.181-.102.365-.143.55-.188.843-.225 1.717-.1 2.596l.087.483c.136.646.355 1.261.655 1.836l.022.04.152.276.074.119.122.197c-.144-.066-.283-.142-.416-.227l-.071-.047c-.805-.534-1.388-1.383-1.573-2.385l-.026-.151zm2.88-6.477c.526.503.949 1.093 1.255 1.738-.155-.073-.315-.139-.481-.196-.196-.067-.413-.005-.545.156-.132.161-.152.387-.05.569.676 1.202.93 2.559.736 3.927-.116.815-.385 1.58-.791 2.27l-.124.125-.124-.125c-.406-.69-.675-1.455-.791-2.27-.195-1.368.06-2.725.736-3.927.102-.182.082-.408-.05-.569-.132-.161-.349-.223-.545-.156-.166.056-.326.123-.481.196.307-.645.729-1.235 1.255-1.738zm2.88 6.477l-.026.15c-.185 1.002-.769 1.851-1.573 2.385l-.071.047.008-.056-.03-.218-.046-.092.022-.04c.299-.575.519-1.19.655-1.836l.087-.482c.125-.879.088-1.753-.1-2.597-.041-.185-.087-.368-.143-.549l.079.073c.222.205.417.437.581.689.211.324.371.682.472 1.059.124.466.16.963.088 1.465zm.173 4.46c-.209 0-.414-.019-.615-.054l-.219-.045.24-.066c.696-.211 1.334-.584 1.862-1.091.79-.269 1.519-.667 2.162-1.187-.401 1.145-1.358 2.051-2.592 2.344-.276.066-.558.099-.838.099zm.731-2.139c-.262.283-.564.521-.896.706-.353.197-.739.336-1.142.406.169-.107.33-.224.483-.351.201-.167.388-.351.558-.549.494-.575.852-1.276 1.02-2.054.327-.657.551-1.353.664-2.075.47 1.119.368 2.437-.347 3.491-.103.152-.218.293-.34.426zm-3.985 2.153h.402c.33.261.695.476 1.083.638l-.259 1.344h-2.05l-.259-1.344c.389-.162.753-.377 1.083-.638zm-.408 3.96v-.971h1.219v4.578h-1.219v-3.607zm2.658 10.978h-4.097l.008-.104v-.001l.489-6.26h3.102l.497 6.365zm-20.631-4.817l-.055 1.131h-2.346v-1.131h2.401zm-2.401 2.137h2.281l-.071.87h-2.21v-.87zm0-4.098h2.464l-.026.954h-2.438v-.954zm5.282 6.673l-.073-.504-.025-.195h12.811l-.055.699v.001h-12.659zm-.274-2.575h13.135l-.068.87h-12.996l-.071-.87zm-.12-2.137h13.422l-.088 1.131h-13.278l-.055-1.131zm-.063-1.961h13.638l-.075.954h-13.538l-.026-.954zm-2.341-1.006h-2.483v-5.747c.727.605 1.558 1.163 2.492 1.673.014 1.543.009 2.896-.009 4.074zm-2.483 7.176v-.195h2.104l-.025.195-.073.504h-2.007v-.504zm16.618-9.364h2.757v.863c-.638-.02-1.594-.063-2.757-.161v-.702zm-12.854-12.454h-.367l.183-1.407.183 1.407zm5.761 2.674l.134.094c.068.034.144.054.221.054.078 0 .155-.019.225-.054.246-.125.346-.427.222-.675-.048-.098-.127-.177-.225-.226-.187-.094-.427-.055-.575.094-.154.154-.191.39-.094.585l.091.127zm-2.428-3.475c.07.036.148.054.226.054.133 0 .26-.053.354-.147.152-.153.19-.388.094-.582-.048-.098-.127-.177-.225-.226-.086-.043-.184-.06-.28-.05l-.203.072-.093.071c-.154.154-.191.39-.094.585.048.096.125.173.22.222zm.228 8.039c0 .184.1.353.26.442l.416.229.227.418c.088.161.256.262.438.262.183 0 .351-.1.438-.262l.227-.418.416-.229c.16-.088.26-.258.26-.442s-.1-.353-.26-.441l-.416-.229-.227-.418c-.088-.161-.256-.262-.438-.262-.183 0-.351.1-.438.262l-.227.418-.415.229c-.16.088-.26.258-.26.441" fill="#206FAC"/><path d="M30.877 108.822h-1.956l1.915-9.769c.029-.148-.009-.301-.104-.417-.095-.116-.237-.184-.386-.184h-4.42v-1.001c.161-.059.285-.199.319-.377l.32-1.66c.263.047.533.072.806.072.358 0 .717-.042 1.068-.126 2.17-.516 3.668-2.517 3.562-4.757-.01-.208-.147-.389-.343-.454-.197-.065-.413-.001-.544.161-.395.491-.853.91-1.361 1.252.666-1.699.293-3.678-1.035-5.011-.147-.148-.369-.188-.558-.103-.189.086-.306.28-.294.488.014.249.014.497-.001.742-.213-.505-.512-.968-.885-1.369-.332-1.488-1.147-2.834-2.345-3.827-.184-.153-.451-.153-.635 0-1.198.992-2.012 2.338-2.344 3.827-.373.401-.672.865-.885 1.369-.015-.245-.015-.493-.001-.743.012-.208-.105-.402-.294-.488-.189-.086-.411-.045-.558.103-1.328 1.333-1.701 3.313-1.035 5.011-.508-.342-.966-.761-1.361-1.252-.131-.162-.347-.226-.544-.161-.197.065-.334.246-.343.454-.106 2.24 1.392 4.241 3.562 4.757.351.083.71.126 1.068.126.273 0 .543-.025.806-.072l.32 1.66c.034.177.158.318.319.377v1.001h-3.256c-.276 0-.5.225-.5.503v1.112c-3.103-.317-7.258-1.008-10.823-2.509.018-1.901.066-4.09.157-6.598l.057-.117.455-1.401h.343c.276 0 .5-.225.5-.503 0-.117-.039-.224-.105-.309l-.862-1.329c-.092-.142-.25-.228-.418-.228h-.141l-.705-5.407c-.033-.25-.245-.438-.495-.438-.251 0-.463.187-.495.438l-.705 5.407h-.085c-.169 0-.326.086-.418.228l-.885 1.362c-.1.155-.109.352-.021.515.087.163.256.264.439.264h.341l.455 1.401c.026.081.072.152.131.208.071 1.979.116 3.758.14 5.354-.98-.577-1.87-1.238-2.624-1.997-.143-.144-.358-.187-.544-.109-.187.078-.309.261-.309.465v14.059h-1.335c-.552 0-.999.451-.999 1.006 0 .556.447 1.006.999 1.006h29.878c.552 0 .999-.451.999-1.006 0-.556-.448-1.006-.999-1.006zm-1.139-9.364l-1.836 9.364h-.581l-.492-6.3c-.02-.262-.237-.464-.498-.464h-.404v-2.6h3.812zm-23.056-8.119h.592c-.075 2.148-.119 4.064-.14 5.77l-.006.552-.004.559c-.008 1.264-.003 2.403.013 3.426l.009.503.01.503.026.954.017.503.02.503.055 1.131.03.503.034.503.069.87.048.503.055.503.024.195.06.439h-1.229l.06-.439.024-.195.055-.503.048-.503.069-.87.034-.503.03-.503.055-1.131.02-.503.017-.503.026-.954.01-.503.009-.503c.016-1.06.021-2.244.012-3.562l-.005-.567-.006-.562c-.021-1.668-.065-3.532-.138-5.616zm-.783-3.259h2.087l.231.356h-2.549l.114-.176.117-.18zm1.848 1.362l-.241.741h-1.13l-.24-.741h1.611zm11.205 11.639l.999.091c1.161.096 2.116.138 2.757.157v.317h-14.57c-.014-.896-.02-1.893-.016-2.998 1.981.796 4.296 1.43 6.935 1.898 1.393.247 2.72.417 3.894.535zm1.473-6.701c-1.234-.293-2.191-1.199-2.592-2.344.644.52 1.372.918 2.162 1.187.528.507 1.166.881 1.862 1.091l.24.066-.218.045c-.201.035-.407.054-.616.054-.28 0-.562-.033-.838-.099zm-.233-2.466c-.716-1.054-.817-2.372-.347-3.491.113.721.337 1.418.664 2.075.169.777.526 1.478 1.02 2.053.171.199.357.382.558.549.153.127.315.244.483.351-.403-.07-.789-.209-1.142-.406-.332-.185-.634-.423-.896-.706-.123-.133-.237-.274-.34-.426zm1.244-1.895c-.072-.502-.036-.999.088-1.465.1-.378.26-.735.471-1.059.164-.252.359-.484.581-.689l.079-.074c-.056.181-.102.365-.143.55-.188.843-.225 1.717-.1 2.596l.087.483c.136.646.355 1.261.655 1.836l.022.04.152.276.074.119.122.197c-.144-.066-.283-.142-.416-.227l-.071-.047c-.805-.534-1.388-1.383-1.573-2.385l-.026-.151zm2.88-6.477c.526.503.949 1.093 1.255 1.738-.155-.073-.315-.139-.481-.196-.196-.067-.413-.005-.545.156-.132.161-.152.387-.05.569.676 1.202.93 2.559.736 3.927-.116.815-.385 1.58-.791 2.27l-.124.125-.124-.125c-.406-.69-.675-1.455-.791-2.27-.195-1.368.06-2.725.736-3.927.102-.182.082-.408-.05-.569-.132-.161-.349-.223-.545-.156-.166.056-.326.123-.481.196.307-.645.729-1.235 1.255-1.738zm2.88 6.477l-.026.15c-.185 1.002-.769 1.851-1.573 2.385l-.071.047.008-.056-.03-.218-.046-.092.022-.04c.299-.575.519-1.19.655-1.836l.087-.482c.125-.879.088-1.753-.1-2.597-.041-.185-.087-.368-.143-.549l.079.073c.222.205.417.437.581.689.211.324.371.682.472 1.059.124.466.16.963.088 1.465zm.173 4.46c-.209 0-.414-.019-.615-.054l-.219-.045.24-.066c.696-.211 1.334-.584 1.862-1.091.79-.269 1.519-.667 2.162-1.187-.401 1.145-1.358 2.051-2.592 2.344-.276.066-.558.099-.838.099zm.731-2.139c-.262.283-.564.521-.896.706-.353.197-.739.336-1.142.406.169-.107.33-.224.483-.351.201-.167.388-.351.558-.549.494-.575.852-1.276 1.02-2.054.327-.657.551-1.353.664-2.075.47 1.119.368 2.437-.347 3.491-.103.152-.218.293-.34.426zm-3.985 2.153h.402c.33.261.695.476 1.083.638l-.259 1.344h-2.05l-.259-1.344c.389-.162.753-.377 1.083-.638zm-.408 3.96v-.971h1.219v4.578h-1.219v-3.607zm2.658 10.978h-4.097l.008-.104v-.001l.489-6.26h3.102l.497 6.365zm-20.631-4.817l-.055 1.131h-2.346v-1.131h2.401zm-2.401 2.137h2.281l-.071.87h-2.21v-.87zm0-4.098h2.464l-.026.954h-2.438v-.954zm5.282 6.673l-.073-.504-.025-.195h12.811l-.055.699v.001h-12.659zm-.274-2.575h13.135l-.068.87h-12.996l-.071-.87zm-.12-2.137h13.422l-.088 1.131h-13.278l-.055-1.131zm-.063-1.961h13.638l-.075.954h-13.538l-.026-.954zm-2.341-1.006h-2.483v-5.747c.727.605 1.558 1.163 2.492 1.673.014 1.543.009 2.896-.009 4.074zm-2.483 7.176v-.195h2.104l-.025.195-.073.504h-2.007v-.504zm16.618-9.364h2.757v.863c-.638-.02-1.594-.063-2.757-.161v-.702zm-12.854-12.454h-.367l.183-1.407.183 1.407zm5.761 2.674l.134.094c.068.034.144.054.221.054.078 0 .155-.019.225-.054.246-.125.346-.427.222-.675-.048-.098-.127-.177-.225-.226-.187-.094-.427-.055-.575.094-.154.154-.191.39-.094.585l.091.127zm-2.428-3.475c.07.036.148.054.226.054.133 0 .26-.053.354-.147.152-.153.19-.388.094-.582-.048-.098-.127-.177-.225-.226-.086-.043-.184-.06-.28-.05l-.203.072-.093.071c-.154.154-.191.39-.094.585.048.096.125.173.22.222zm.228 8.039c0 .184.1.353.26.442l.416.229.227.418c.088.161.256.262.438.262.183 0 .351-.1.438-.262l.227-.418.416-.229c.16-.088.26-.258.26-.442s-.1-.353-.26-.441l-.416-.229-.227-.418c-.088-.161-.256-.262-.438-.262-.183 0-.351.1-.438.262l-.227.418-.415.229c-.16.088-.26.258-.26.441" fill="#fff"/><path d="M30.877 68.822h-1.956l1.915-9.769c.029-.148-.009-.301-.104-.417-.095-.116-.237-.184-.386-.184h-4.42v-1.001c.161-.059.285-.199.319-.377l.32-1.66c.263.047.533.072.806.072.358 0 .717-.042 1.068-.126 2.17-.516 3.668-2.517 3.562-4.757-.01-.208-.147-.389-.343-.454-.197-.065-.413-.001-.544.161-.395.491-.853.91-1.361 1.252.666-1.699.293-3.678-1.035-5.011-.147-.148-.369-.188-.558-.103-.189.086-.306.28-.294.488.014.249.014.497-.001.742-.213-.505-.512-.968-.885-1.369-.332-1.488-1.147-2.834-2.345-3.827-.184-.153-.451-.153-.635 0-1.198.992-2.012 2.338-2.344 3.827-.373.401-.672.865-.885 1.369-.015-.245-.015-.493-.001-.743.012-.208-.105-.402-.294-.488-.189-.086-.411-.045-.558.103-1.328 1.333-1.701 3.313-1.035 5.011-.508-.342-.966-.761-1.361-1.252-.131-.162-.347-.226-.544-.161-.197.065-.334.246-.343.454-.106 2.24 1.392 4.241 3.562 4.757.351.083.71.126 1.068.126.273 0 .543-.025.806-.072l.32 1.66c.034.177.158.318.319.377v1.001h-3.256c-.276 0-.5.225-.5.503v1.112c-3.103-.317-7.258-1.008-10.823-2.509.018-1.901.066-4.09.157-6.598l.057-.117.455-1.401h.343c.276 0 .5-.225.5-.503 0-.117-.039-.224-.105-.309l-.862-1.329c-.092-.142-.25-.228-.418-.228h-.141l-.705-5.407c-.033-.25-.245-.438-.495-.438-.251 0-.463.187-.495.438l-.705 5.407h-.085c-.169 0-.326.086-.418.228l-.885 1.362c-.1.155-.109.352-.021.515.087.163.256.264.439.264h.341l.455 1.401c.026.081.072.152.131.208.071 1.979.116 3.758.14 5.354-.98-.577-1.87-1.238-2.624-1.997-.143-.144-.358-.187-.544-.109-.187.078-.309.261-.309.465v14.059h-1.335c-.552 0-.999.451-.999 1.006 0 .556.447 1.006.999 1.006h29.878c.552 0 .999-.451.999-1.006 0-.556-.448-1.006-.999-1.006zm-1.139-9.364l-1.836 9.364h-.581l-.492-6.3c-.02-.262-.237-.464-.498-.464h-.404v-2.6h3.812zm-23.056-8.119h.592c-.075 2.148-.119 4.064-.14 5.77l-.006.552-.004.559c-.008 1.264-.003 2.403.013 3.426l.009.503.01.503.026.954.017.503.02.503.055 1.131.03.503.034.503.069.87.048.503.055.503.024.195.06.439h-1.229l.06-.439.024-.195.055-.503.048-.503.069-.87.034-.503.03-.503.055-1.131.02-.503.017-.503.026-.954.01-.503.009-.503c.016-1.06.021-2.244.012-3.562l-.005-.567-.006-.562c-.021-1.668-.065-3.532-.138-5.616zm-.783-3.259h2.087l.231.356h-2.549l.114-.176.117-.18zm1.848 1.362l-.241.741h-1.13l-.24-.741h1.611zm11.205 11.639l.999.091c1.161.096 2.116.138 2.757.157v.317h-14.57c-.014-.896-.02-1.893-.016-2.998 1.981.796 4.296 1.43 6.935 1.898 1.393.247 2.72.417 3.894.535zm1.473-6.701c-1.234-.293-2.191-1.199-2.592-2.344.644.52 1.372.918 2.162 1.187.528.507 1.166.881 1.862 1.091l.24.066-.218.045c-.201.035-.407.054-.616.054-.28 0-.562-.033-.838-.099zm-.233-2.466c-.716-1.054-.817-2.372-.347-3.491.113.721.337 1.418.664 2.075.169.777.526 1.478 1.02 2.053.171.199.357.382.558.549.153.127.315.244.483.351-.403-.07-.789-.209-1.142-.406-.332-.185-.634-.423-.896-.706-.123-.133-.237-.274-.34-.426zm1.244-1.895c-.072-.502-.036-.999.088-1.465.1-.378.26-.735.471-1.059.164-.252.359-.484.581-.689l.079-.074c-.056.181-.102.365-.143.55-.188.843-.225 1.717-.1 2.596l.087.483c.136.646.355 1.261.655 1.836l.022.04.152.276.074.119.122.197c-.144-.066-.283-.142-.416-.227l-.071-.047c-.805-.534-1.388-1.383-1.573-2.385l-.026-.151zm2.88-6.477c.526.503.949 1.093 1.255 1.738-.155-.073-.315-.139-.481-.196-.196-.067-.413-.005-.545.156-.132.161-.152.387-.05.569.676 1.202.93 2.559.736 3.927-.116.815-.385 1.58-.791 2.27l-.124.125-.124-.125c-.406-.69-.675-1.455-.791-2.27-.195-1.368.06-2.725.736-3.927.102-.182.082-.408-.05-.569-.132-.161-.349-.223-.545-.156-.166.056-.326.123-.481.196.307-.645.729-1.235 1.255-1.738zm2.88 6.477l-.026.15c-.185 1.002-.769 1.851-1.573 2.385l-.071.047.008-.056-.03-.218-.046-.092.022-.04c.299-.575.519-1.19.655-1.836l.087-.482c.125-.879.088-1.753-.1-2.597-.041-.185-.087-.368-.143-.549l.079.073c.222.205.417.437.581.689.211.324.371.682.472 1.059.124.466.16.963.088 1.465zm.173 4.46c-.209 0-.414-.019-.615-.054l-.219-.045.24-.066c.696-.211 1.334-.584 1.862-1.091.79-.269 1.519-.667 2.162-1.187-.401 1.145-1.358 2.051-2.592 2.344-.276.066-.558.099-.838.099zm.731-2.139c-.262.283-.564.521-.896.706-.353.197-.739.336-1.142.406.169-.107.33-.224.483-.351.201-.167.388-.351.558-.549.494-.575.852-1.276 1.02-2.054.327-.657.551-1.353.664-2.075.47 1.119.368 2.437-.347 3.491-.103.152-.218.293-.34.426zm-3.985 2.153h.402c.33.261.695.476 1.083.638l-.259 1.344h-2.05l-.259-1.344c.389-.162.753-.377 1.083-.638zm-.408 3.96v-.971h1.219v4.578h-1.219v-3.607zm2.658 10.978h-4.097l.008-.104v-.001l.489-6.26h3.102l.497 6.365zm-20.631-4.817l-.055 1.131h-2.346v-1.131h2.401zm-2.401 2.137h2.281l-.071.87h-2.21v-.87zm0-4.098h2.464l-.026.954h-2.438v-.954zm5.282 6.673l-.073-.504-.025-.195h12.811l-.055.699v.001h-12.659zm-.274-2.575h13.135l-.068.87h-12.996l-.071-.87zm-.12-2.137h13.422l-.088 1.131h-13.278l-.055-1.131zm-.063-1.961h13.638l-.075.954h-13.538l-.026-.954zm-2.341-1.006h-2.483v-5.747c.727.605 1.558 1.163 2.492 1.673.014 1.543.009 2.896-.009 4.074zm-2.483 7.176v-.195h2.104l-.025.195-.073.504h-2.007v-.504zm16.618-9.364h2.757v.863c-.638-.02-1.594-.063-2.757-.161v-.702zm-12.854-12.454h-.367l.183-1.407.183 1.407zm5.761 2.674l.134.094c.068.034.144.054.221.054.078 0 .155-.019.225-.054.246-.125.346-.427.222-.675-.048-.098-.127-.177-.225-.226-.187-.094-.427-.055-.575.094-.154.154-.191.39-.094.585l.091.127zm-2.428-3.475c.07.036.148.054.226.054.133 0 .26-.053.354-.147.152-.153.19-.388.094-.582-.048-.098-.127-.177-.225-.226-.086-.043-.184-.06-.28-.05l-.203.072-.093.071c-.154.154-.191.39-.094.585.048.096.125.173.22.222zm.228 8.039c0 .184.1.353.26.442l.416.229.227.418c.088.161.256.262.438.262.183 0 .351-.1.438-.262l.227-.418.416-.229c.16-.088.26-.258.26-.442s-.1-.353-.26-.441l-.416-.229-.227-.418c-.088-.161-.256-.262-.438-.262-.183 0-.351.1-.438.262l-.227.418-.415.229c-.16.088-.26.258-.26.441" fill="#67737B"/><path d="M30.877 28.822h-1.956l1.915-9.769c.029-.148-.009-.301-.104-.417-.095-.116-.237-.184-.386-.184h-4.42v-1.001c.161-.059.285-.199.319-.377l.32-1.66c.263.047.533.072.806.072.358 0 .717-.042 1.068-.126 2.17-.516 3.668-2.517 3.562-4.757-.01-.208-.147-.389-.343-.454-.197-.065-.413-.001-.544.161-.395.491-.853.91-1.361 1.252.666-1.699.293-3.678-1.035-5.011-.147-.148-.369-.188-.558-.103-.189.086-.306.28-.294.488.014.249.014.497-.001.742-.213-.505-.512-.968-.885-1.369-.332-1.488-1.147-2.834-2.345-3.827-.184-.153-.451-.153-.635 0-1.198.992-2.012 2.338-2.344 3.827-.373.401-.672.865-.885 1.369-.015-.245-.015-.493-.001-.743.012-.208-.105-.402-.294-.488-.189-.086-.411-.045-.558.103-1.328 1.333-1.701 3.313-1.035 5.011-.508-.342-.966-.761-1.361-1.252-.131-.162-.347-.226-.544-.161-.197.065-.334.246-.343.454-.106 2.24 1.392 4.241 3.562 4.757.351.083.71.126 1.068.126.273 0 .543-.025.806-.072l.32 1.66c.034.177.158.318.319.377v1.001h-3.256c-.276 0-.5.225-.5.503v1.112c-3.103-.317-7.258-1.008-10.823-2.509.018-1.901.066-4.09.157-6.598l.057-.117.455-1.401h.343c.276 0 .5-.225.5-.503 0-.117-.039-.224-.105-.309l-.862-1.329c-.092-.142-.25-.228-.418-.228h-.141l-.705-5.407c-.033-.25-.245-.438-.495-.438-.251 0-.463.187-.495.438l-.705 5.407h-.085c-.169 0-.326.086-.418.228l-.885 1.362c-.1.155-.109.352-.021.515.087.163.256.264.439.264h.341l.455 1.401c.026.081.072.152.131.208.071 1.979.116 3.758.14 5.354-.98-.577-1.87-1.238-2.624-1.997-.143-.144-.358-.187-.544-.109-.187.078-.309.261-.309.465v14.059h-1.335c-.552 0-.999.451-.999 1.006 0 .556.447 1.006.999 1.006h29.878c.552 0 .999-.451.999-1.006 0-.556-.448-1.006-.999-1.006zm-1.139-9.364l-1.836 9.364h-.581l-.492-6.3c-.02-.262-.237-.464-.498-.464h-.404v-2.6h3.812zm-23.056-8.119h.592c-.075 2.148-.119 4.064-.14 5.77l-.006.552-.004.559c-.008 1.264-.003 2.403.013 3.426l.009.503.01.503.026.954.017.503.02.503.055 1.131.03.503.034.503.069.87.048.503.055.503.024.195.06.439h-1.229l.06-.439.024-.195.055-.503.048-.503.069-.87.034-.503.03-.503.055-1.131.02-.503.017-.503.026-.954.01-.503.009-.503c.016-1.06.021-2.244.012-3.562l-.005-.567-.006-.562c-.021-1.668-.065-3.532-.138-5.616zm-.783-3.259h2.087l.231.356h-2.549l.114-.176.117-.18zm1.848 1.362l-.241.741h-1.13l-.24-.741h1.611zm11.205 11.639l.999.091c1.161.096 2.116.138 2.757.157v.317h-14.57c-.014-.896-.02-1.893-.016-2.998 1.981.796 4.296 1.43 6.935 1.898 1.393.247 2.72.417 3.894.535zm1.473-6.701c-1.234-.293-2.191-1.199-2.592-2.344.644.52 1.372.918 2.162 1.187.528.507 1.166.881 1.862 1.091l.24.066-.218.045c-.201.035-.407.054-.616.054-.28 0-.562-.033-.838-.099zm-.233-2.466c-.716-1.054-.817-2.372-.347-3.491.113.721.337 1.418.664 2.075.169.777.526 1.478 1.02 2.053.171.199.357.382.558.549.153.127.315.244.483.351-.403-.07-.789-.209-1.142-.406-.332-.185-.634-.423-.896-.706-.123-.133-.237-.274-.34-.426zm1.244-1.895c-.072-.502-.036-.999.088-1.465.1-.378.26-.735.471-1.059.164-.252.359-.484.581-.689l.079-.074c-.056.181-.102.365-.143.55-.188.843-.225 1.717-.1 2.596l.087.483c.136.646.355 1.261.655 1.836l.022.04.152.276.074.119.122.197c-.144-.066-.283-.142-.416-.227l-.071-.047c-.805-.534-1.388-1.383-1.573-2.385l-.026-.151zm2.88-6.477c.526.503.949 1.093 1.255 1.738-.155-.073-.315-.139-.481-.196-.196-.067-.413-.005-.545.156-.132.161-.152.387-.05.569.676 1.202.93 2.559.736 3.927-.116.815-.385 1.58-.791 2.27l-.124.125-.124-.125c-.406-.69-.675-1.455-.791-2.27-.195-1.368.06-2.725.736-3.927.102-.182.082-.408-.05-.569-.132-.161-.349-.223-.545-.156-.166.056-.326.123-.481.196.307-.645.729-1.235 1.255-1.738zm2.88 6.477l-.026.15c-.185 1.002-.769 1.851-1.573 2.385l-.071.047.008-.056-.03-.218-.046-.092.022-.04c.299-.575.519-1.19.655-1.836l.087-.482c.125-.879.088-1.753-.1-2.597-.041-.185-.087-.368-.143-.549l.079.073c.222.205.417.437.581.689.211.324.371.682.472 1.059.124.466.16.963.088 1.465zm.173 4.46c-.209 0-.414-.019-.615-.054l-.219-.045.24-.066c.696-.211 1.334-.584 1.862-1.091.79-.269 1.519-.667 2.162-1.187-.401 1.145-1.358 2.051-2.592 2.344-.276.066-.558.099-.838.099zm.731-2.139c-.262.283-.564.521-.896.706-.353.197-.739.336-1.142.406.169-.107.33-.224.483-.351.201-.167.388-.351.558-.549.494-.575.852-1.276 1.02-2.054.327-.657.551-1.353.664-2.075.47 1.119.368 2.437-.347 3.491-.103.152-.218.293-.34.426zm-3.985 2.153h.402c.33.261.695.476 1.083.638l-.259 1.344h-2.05l-.259-1.344c.389-.162.753-.377 1.083-.638zm-.408 3.96v-.971h1.219v4.578h-1.219v-3.607zm2.658 10.978h-4.097l.008-.104v-.001l.489-6.26h3.102l.497 6.365zm-20.631-4.817l-.055 1.131h-2.346v-1.131h2.401zm-2.401 2.137h2.281l-.071.87h-2.21v-.87zm0-4.098h2.464l-.026.954h-2.438v-.954zm5.282 6.673l-.073-.504-.025-.195h12.811l-.055.699v.001h-12.659zm-.274-2.575h13.135l-.068.87h-12.996l-.071-.87zm-.12-2.137h13.422l-.088 1.131h-13.278l-.055-1.131zm-.063-1.961h13.638l-.075.954h-13.538l-.026-.954zm-2.341-1.006h-2.483v-5.747c.727.605 1.558 1.163 2.492 1.673.014 1.543.009 2.896-.009 4.074zm-2.483 7.176v-.195h2.104l-.025.195-.073.504h-2.007v-.504zm16.618-9.364h2.757v.863c-.638-.02-1.594-.063-2.757-.161v-.702zm-12.854-12.454h-.367l.183-1.407.183 1.407zm5.761 2.674l.134.094c.068.034.144.054.221.054.078 0 .155-.019.225-.054.246-.125.346-.427.222-.675-.048-.098-.127-.177-.225-.226-.187-.094-.427-.055-.575.094-.154.154-.191.39-.094.585l.091.127zm-2.428-3.475c.07.036.148.054.226.054.133 0 .26-.053.354-.147.152-.153.19-.388.094-.582-.048-.098-.127-.177-.225-.226-.086-.043-.184-.06-.28-.05l-.203.072-.093.071c-.154.154-.191.39-.094.585.048.096.125.173.22.222zm.228 8.039c0 .184.1.353.26.442l.416.229.227.418c.088.161.256.262.438.262.183 0 .351-.1.438-.262l.227-.418.416-.229c.16-.088.26-.258.26-.442s-.1-.353-.26-.441l-.416-.229-.227-.418c-.088-.161-.256-.262-.438-.262-.183 0-.351.1-.438.262l-.227.418-.415.229c-.16.088-.26.258-.26.441" fill="#3A434E"/></g></g></svg>