<svg width="32" height="232" viewBox="0 0 32 232" xmlns="http://www.w3.org/2000/svg"><title>macau-china</title><desc>Created with Sketch.</desc><g fill="none"><path d="M30.877 148.822H28.92l1.916-9.77c.03-.147-.01-.3-.104-.416-.095-.116-.237-.184-.386-.184h-4.42v-1c.16-.06.285-.2.32-.378l.32-1.66c.262.047.532.072.805.072.36 0 .718-.042 1.07-.126 2.17-.516 3.667-2.517 3.56-4.757-.01-.208-.146-.39-.342-.454-.197-.066-.413-.002-.544.16-.395.49-.853.91-1.36 1.252.665-1.7.292-3.678-1.036-5.01-.147-.15-.37-.19-.558-.104-.19.086-.306.28-.294.488.014.25.014.497 0 .742-.214-.505-.513-.968-.886-1.37-.332-1.487-1.147-2.833-2.345-3.826-.184-.153-.45-.153-.635 0-1.198.992-2.012 2.338-2.344 3.827-.373.4-.672.864-.885 1.368-.014-.245-.014-.493 0-.743.012-.208-.105-.402-.294-.488-.19-.086-.41-.045-.558.103-1.328 1.333-1.7 3.313-1.035 5.01-.508-.34-.966-.76-1.36-1.25-.132-.163-.348-.227-.545-.162-.197.065-.334.246-.343.454-.106 2.24 1.392 4.24 3.562 4.757.35.082.71.125 1.068.125.273 0 .543-.025.806-.072l.32 1.66c.035.177.16.318.32.377v1h-3.256c-.276 0-.5.226-.5.504v1.112c-3.103-.317-7.258-1.008-10.823-2.51.02-1.9.067-4.09.158-6.597l.057-.118.455-1.4h.343c.276 0 .5-.226.5-.504 0-.117-.04-.224-.105-.31l-.862-1.328c-.092-.142-.25-.228-.418-.228h-.14l-.706-5.407c-.033-.25-.245-.438-.495-.438s-.463.187-.495.438l-.705 5.407h-.085c-.17 0-.326.086-.418.228l-.885 1.362c-.1.155-.11.352-.022.515.087.163.256.264.44.264h.34l.455 1.402c.026.08.072.152.13.208.072 1.98.117 3.758.14 5.354-.98-.577-1.87-1.238-2.623-1.997-.143-.144-.358-.187-.544-.11-.187.08-.31.262-.31.466v14.06H1.003c-.552 0-1 .45-1 1.005 0 .556.448 1.006 1 1.006H30.88c.552 0 1-.45 1-1.006s-.45-1.006-1-1.006zm-1.14-9.364l-1.835 9.364h-.58l-.493-6.3c-.02-.262-.238-.464-.5-.464h-.403v-2.6h3.812zm-23.055-8.12h.592c-.075 2.15-.12 4.065-.14 5.77l-.006.553-.004.56c-.008 1.264-.003 2.403.013 3.426l.01.503.01.502.025.954.017.503.02.502.054 1.13.03.504.034.503.07.87.047.502.055.503.024.195.06.44h-1.23l.06-.44.025-.195.054-.503.048-.503.07-.87.033-.504.03-.503.055-1.13.02-.504.017-.504.026-.954.01-.503.01-.504c.015-1.06.02-2.244.01-3.562l-.004-.567-.007-.562c-.02-1.668-.065-3.532-.138-5.616zM5.9 128.08h2.086l.23.356H5.67l.114-.176.117-.18zm1.847 1.362l-.24.74h-1.13l-.24-.74h1.61zm11.205 11.64l1 .09c1.16.096 2.115.138 2.756.157v.316H8.138c-.014-.896-.02-1.893-.016-2.998 1.98.796 4.296 1.43 6.935 1.898 1.393.247 2.72.417 3.894.535zm1.473-6.702c-1.234-.293-2.19-1.2-2.592-2.344.644.52 1.372.918 2.162 1.187.528.507 1.166.88 1.862 1.09l.24.067-.218.045c-.202.035-.408.054-.617.054-.28 0-.562-.034-.838-.1zm-.233-2.466c-.716-1.054-.817-2.372-.347-3.49.113.72.337 1.417.664 2.074.168.777.525 1.478 1.02 2.053.17.2.356.383.557.55.153.127.315.244.483.35-.403-.07-.79-.208-1.142-.405-.332-.185-.634-.423-.896-.706-.123-.134-.237-.275-.34-.427zm1.244-1.895c-.072-.503-.036-1 .088-1.466.1-.378.26-.735.47-1.06.165-.25.36-.483.582-.688l.08-.074c-.057.18-.103.365-.144.55-.188.843-.225 1.717-.1 2.596l.087.483c.135.647.354 1.262.654 1.837l.022.04.152.276.074.12.122.196c-.144-.067-.283-.143-.416-.228l-.07-.047c-.806-.534-1.39-1.383-1.574-2.385l-.026-.15zm2.88-6.478c.526.503.95 1.093 1.255 1.738-.154-.073-.314-.14-.48-.196-.196-.067-.413-.005-.545.156-.132.16-.152.387-.05.57.676 1.2.93 2.558.736 3.926-.115.815-.384 1.58-.79 2.27l-.124.125-.124-.124c-.406-.69-.675-1.455-.79-2.27-.196-1.368.06-2.725.735-3.927.102-.183.082-.41-.05-.57-.132-.16-.35-.223-.545-.156-.166.056-.326.123-.48.196.306-.645.728-1.235 1.254-1.738zm2.88 6.477l-.026.15c-.185 1-.77 1.85-1.573 2.384l-.07.047.007-.055-.03-.218-.046-.092.022-.04c.3-.575.52-1.19.655-1.836l.087-.483c.125-.88.088-1.753-.1-2.597-.04-.185-.087-.368-.143-.55l.078.074c.222.205.417.437.58.69.212.323.372.68.473 1.058.125.466.16.963.09 1.465zm.173 4.46c-.21 0-.415-.02-.616-.055l-.22-.045.24-.066c.697-.21 1.335-.584 1.863-1.09.79-.27 1.52-.668 2.162-1.188-.402 1.145-1.36 2.05-2.593 2.344-.276.066-.558.1-.838.1zm.73-2.14c-.262.283-.564.52-.896.706-.353.197-.74.336-1.142.406.17-.107.33-.224.483-.35.2-.168.388-.352.558-.55.494-.575.852-1.276 1.02-2.054.327-.657.55-1.353.664-2.075.47 1.12.368 2.437-.347 3.49-.103.153-.218.294-.34.427zm-3.985 2.153h.402c.33.26.695.476 1.083.638l-.26 1.345h-2.05l-.258-1.344c.39-.16.753-.376 1.083-.637zm-.408 3.96v-.97h1.22v4.577h-1.22v-3.607zm2.658 10.978h-4.097l.008-.103.49-6.26h3.1l.498 6.364zm-20.63-4.816l-.056 1.13H3.332v-1.13h2.4zm-2.402 2.137h2.28l-.07.87h-2.21v-.87zm0-4.097h2.464l-.026.954H3.334v-.954zm5.282 6.673l-.073-.504-.025-.195h12.81l-.054.7H8.613zm-.274-2.575h13.136l-.068.87H8.412l-.07-.87zm-.12-2.136h13.423l-.088 1.13H8.277l-.055-1.13zm-.062-1.96h13.638l-.075.953H8.184l-.026-.954zm-2.34-1.007H3.333V135.9c.727.605 1.558 1.163 2.492 1.673.014 1.543.01 2.896-.01 4.074zm-2.484 7.176v-.195h2.104l-.025.195-.073.504H3.333v-.504zm16.618-9.364h2.757v.862c-.64-.02-1.595-.063-2.758-.16v-.703zM7.098 127.004H6.73l.184-1.407.183 1.407zm5.76 2.674l.135.093c.068.034.144.054.22.054.08 0 .156-.02.226-.054.245-.125.345-.427.22-.675-.047-.098-.126-.177-.224-.226-.187-.094-.427-.055-.575.094-.153.154-.19.39-.093.585l.09.128zm-2.427-3.476c.07.036.15.054.227.054.133 0 .26-.053.354-.147.153-.152.19-.387.095-.58-.048-.1-.127-.178-.225-.227-.086-.043-.184-.06-.28-.05l-.203.072-.093.07c-.154.155-.19.39-.094.586.048.097.125.174.22.223zm.23 8.04c0 .183.1.352.26.44l.415.23.227.418c.088.16.256.262.438.262.183 0 .35-.1.438-.262l.227-.418.416-.23c.16-.087.26-.257.26-.44s-.1-.354-.26-.442l-.415-.23-.227-.417c-.088-.16-.256-.262-.438-.262-.183 0-.35.1-.438.262l-.227.418-.415.23c-.16.087-.26.257-.26.44" fill="#206FAC"/><path d="M30.877 108.822H28.92l1.916-9.77c.03-.147-.01-.3-.104-.416-.095-.116-.237-.184-.386-.184h-4.42v-1c.16-.06.285-.2.32-.378l.32-1.66c.262.047.532.072.805.072.36 0 .718-.042 1.07-.126 2.17-.516 3.667-2.517 3.56-4.757-.01-.208-.146-.39-.342-.454-.197-.066-.413-.002-.544.16-.395.49-.853.91-1.36 1.252.665-1.7.292-3.678-1.036-5.01-.147-.15-.37-.19-.558-.104-.19.086-.306.28-.294.488.014.25.014.497 0 .742-.214-.505-.513-.968-.886-1.37-.332-1.487-1.147-2.833-2.345-3.826-.184-.153-.45-.153-.635 0-1.198.992-2.012 2.338-2.344 3.827-.373.4-.672.864-.885 1.368-.014-.245-.014-.493 0-.743.012-.208-.105-.402-.294-.488-.19-.086-.41-.045-.558.103-1.328 1.333-1.7 3.313-1.035 5.01-.508-.34-.966-.76-1.36-1.25-.132-.163-.348-.227-.545-.162-.197.065-.334.246-.343.454-.106 2.24 1.392 4.24 3.562 4.757.35.082.71.125 1.068.125.273 0 .543-.025.806-.072l.32 1.66c.035.177.16.318.32.377v1h-3.256c-.276 0-.5.226-.5.504v1.112c-3.103-.317-7.258-1.008-10.823-2.51.02-1.9.067-4.09.158-6.597l.057-.118.455-1.4h.343c.276 0 .5-.226.5-.504 0-.117-.04-.224-.105-.31L8.676 87.3c-.092-.142-.25-.228-.418-.228h-.14l-.706-5.407c-.033-.25-.245-.438-.495-.438s-.463.187-.495.438l-.705 5.407h-.085c-.17 0-.326.086-.418.228l-.885 1.362c-.1.155-.11.352-.022.515.087.163.256.264.44.264h.34l.455 1.402c.026.08.072.152.13.208.072 1.98.117 3.758.14 5.354-.98-.577-1.87-1.238-2.623-1.997-.143-.144-.358-.187-.544-.11-.187.08-.31.262-.31.466v14.06H1.003c-.552 0-1 .45-1 1.005 0 .556.448 1.006 1 1.006H30.88c.552 0 1-.45 1-1.006s-.45-1.006-1-1.006zm-1.14-9.364l-1.835 9.364h-.58l-.493-6.3c-.02-.262-.238-.464-.5-.464h-.403v-2.6h3.812zm-23.055-8.12h.592c-.075 2.15-.12 4.065-.14 5.77l-.006.553-.004.56c-.008 1.264-.003 2.403.013 3.426l.01.503.01.502.025.954.017.503.02.502.054 1.13.03.504.034.503.07.87.047.502.055.503.024.195.06.44h-1.23l.06-.44.025-.195.054-.503.048-.503.07-.87.033-.504.03-.503.055-1.13.02-.504.017-.504.026-.954.01-.503.01-.504c.015-1.06.02-2.244.01-3.562l-.004-.567-.007-.562c-.02-1.668-.065-3.532-.138-5.616zM5.9 88.08h2.086l.23.356H5.67l.114-.176.117-.18zm1.847 1.362l-.24.74h-1.13l-.24-.74h1.61zm11.205 11.64l1 .09c1.16.096 2.115.138 2.756.157v.316H8.138c-.014-.896-.02-1.893-.016-2.998 1.98.796 4.296 1.43 6.935 1.898 1.393.247 2.72.417 3.894.535zm1.473-6.702c-1.234-.293-2.19-1.2-2.592-2.344.644.52 1.372.918 2.162 1.187.528.507 1.166.88 1.862 1.09l.24.067-.218.045c-.202.035-.408.054-.617.054-.28 0-.562-.034-.838-.1zm-.233-2.466c-.716-1.054-.817-2.372-.347-3.49.113.72.337 1.417.664 2.074.168.777.525 1.478 1.02 2.053.17.2.356.383.557.55.153.127.315.244.483.35-.403-.07-.79-.208-1.142-.405-.332-.185-.634-.423-.896-.706-.123-.134-.237-.275-.34-.427zm1.244-1.895c-.072-.503-.036-1 .088-1.466.1-.378.26-.735.47-1.06.165-.25.36-.483.582-.688l.08-.074c-.057.18-.103.365-.144.55-.188.843-.225 1.717-.1 2.596l.087.483c.135.647.354 1.262.654 1.837l.022.04.152.276.074.12.122.196c-.144-.067-.283-.143-.416-.228l-.07-.047c-.806-.534-1.39-1.383-1.574-2.385l-.026-.15zm2.88-6.478c.526.503.95 1.093 1.255 1.738-.154-.073-.314-.14-.48-.196-.196-.067-.413-.005-.545.156-.132.16-.152.387-.05.57.676 1.2.93 2.558.736 3.926-.115.815-.384 1.58-.79 2.27l-.124.125-.124-.124c-.406-.69-.675-1.455-.79-2.27-.196-1.368.06-2.725.735-3.927.102-.183.082-.41-.05-.57-.132-.16-.35-.223-.545-.156-.166.056-.326.123-.48.196.306-.645.728-1.235 1.254-1.738zm2.88 6.477l-.026.15c-.185 1-.77 1.85-1.573 2.384l-.07.047.007-.055-.03-.218-.046-.092.022-.04c.3-.575.52-1.19.655-1.836l.087-.483c.125-.88.088-1.753-.1-2.597-.04-.185-.087-.368-.143-.55l.078.074c.222.205.417.437.58.69.212.323.372.68.473 1.058.125.466.16.963.09 1.465zm.173 4.46c-.21 0-.415-.02-.616-.055l-.22-.045.24-.066c.697-.21 1.335-.584 1.863-1.09.79-.27 1.52-.668 2.162-1.188-.402 1.145-1.36 2.05-2.593 2.344-.276.066-.558.1-.838.1zm.73-2.14c-.262.283-.564.52-.896.706-.353.197-.74.336-1.142.406.17-.107.33-.224.483-.35.2-.168.388-.352.558-.55.494-.575.852-1.276 1.02-2.054.327-.657.55-1.353.664-2.075.47 1.12.368 2.437-.347 3.49-.103.153-.218.294-.34.427zm-3.985 2.153h.402c.33.26.695.476 1.083.638l-.26 1.345h-2.05l-.258-1.344c.39-.16.753-.376 1.083-.637zm-.408 3.96v-.97h1.22v4.577h-1.22v-3.607zm2.658 10.978h-4.097l.008-.103.49-6.26h3.1l.498 6.364zm-20.63-4.816l-.056 1.13H3.332v-1.13h2.4zm-2.402 2.137h2.28l-.07.87h-2.21v-.87zm0-4.097h2.464l-.026.954H3.334v-.954zm5.282 6.673l-.073-.504-.025-.195h12.81l-.054.7H8.613zm-.274-2.575h13.136l-.068.87H8.412l-.07-.87zm-.12-2.136h13.423l-.088 1.13H8.277l-.055-1.13zm-.062-1.96h13.638l-.075.953H8.184l-.026-.954zm-2.34-1.007H3.333V95.9c.727.605 1.558 1.163 2.492 1.673.014 1.543.01 2.896-.01 4.074zm-2.484 7.176v-.195h2.104l-.025.195-.073.504H3.333v-.504zm16.618-9.364h2.757v.862c-.64-.02-1.595-.063-2.758-.16v-.703zM7.098 87.004H6.73l.184-1.407.183 1.407zm5.76 2.674l.135.093c.068.034.144.054.22.054.08 0 .156-.02.226-.054.245-.125.345-.427.22-.675-.047-.098-.126-.177-.224-.226-.187-.094-.427-.055-.575.094-.153.154-.19.39-.093.585l.09.128zm-2.427-3.476c.07.036.15.054.227.054.133 0 .26-.053.354-.147.153-.152.19-.387.095-.58-.048-.1-.127-.178-.225-.227-.086-.043-.184-.06-.28-.05l-.203.072-.093.07c-.154.155-.19.39-.094.586.048.097.125.174.22.223zm.23 8.04c0 .183.1.352.26.44l.415.23.227.418c.088.16.256.262.438.262.183 0 .35-.1.438-.262l.227-.418.416-.23c.16-.087.26-.257.26-.44s-.1-.354-.26-.442l-.415-.23-.227-.417c-.088-.16-.256-.262-.438-.262-.183 0-.35.1-.438.262l-.227.418-.415.23c-.16.087-.26.257-.26.44" fill="#fff"/><path d="M30.877 68.822H28.92l1.916-9.77c.03-.147-.01-.3-.104-.416-.095-.116-.237-.184-.386-.184h-4.42v-1c.16-.06.285-.2.32-.378l.32-1.66c.262.047.532.072.805.072.36 0 .718-.042 1.07-.126 2.17-.516 3.667-2.517 3.56-4.757-.01-.208-.146-.39-.342-.454-.197-.066-.413-.002-.544.16-.395.49-.853.91-1.36 1.252.665-1.7.292-3.678-1.036-5.01-.147-.15-.37-.19-.558-.104-.19.086-.306.28-.294.488.014.25.014.497 0 .742-.214-.505-.513-.968-.886-1.37-.332-1.487-1.147-2.833-2.345-3.826-.184-.153-.45-.153-.635 0-1.198.992-2.012 2.338-2.344 3.827-.373.4-.672.864-.885 1.368-.014-.245-.014-.493 0-.743.012-.208-.105-.402-.294-.488-.19-.086-.41-.045-.558.103-1.328 1.333-1.7 3.313-1.035 5.01-.508-.34-.966-.76-1.36-1.25-.132-.163-.348-.227-.545-.162-.197.065-.334.246-.343.454-.106 2.24 1.392 4.24 3.562 4.757.35.082.71.125 1.068.125.273 0 .543-.025.806-.072l.32 1.66c.035.177.16.318.32.377v1h-3.256c-.276 0-.5.226-.5.504v1.112c-3.103-.317-7.258-1.008-10.823-2.51.02-1.9.067-4.09.158-6.597l.057-.118.455-1.4h.343c.276 0 .5-.226.5-.504 0-.117-.04-.224-.105-.31L8.676 47.3c-.092-.142-.25-.228-.418-.228h-.14l-.706-5.407c-.033-.25-.245-.438-.495-.438s-.463.187-.495.438l-.705 5.407h-.085c-.17 0-.326.086-.418.228l-.885 1.362c-.1.155-.11.352-.022.515.087.163.256.264.44.264h.34l.455 1.402c.026.08.072.152.13.208.072 1.98.117 3.758.14 5.354-.98-.577-1.87-1.238-2.623-1.997-.143-.144-.358-.187-.544-.11-.187.08-.31.262-.31.466v14.06H1.003c-.552 0-1 .45-1 1.005 0 .556.448 1.006 1 1.006H30.88c.552 0 1-.45 1-1.006s-.45-1.006-1-1.006zm-1.14-9.364l-1.835 9.364h-.58l-.493-6.3c-.02-.262-.238-.464-.5-.464h-.403v-2.6h3.812zm-23.055-8.12h.592c-.075 2.15-.12 4.065-.14 5.77l-.006.553-.004.56c-.008 1.264-.003 2.403.013 3.426l.01.503.01.502.025.954.017.503.02.502.054 1.13.03.504.034.503.07.87.047.502.055.503.024.195.06.44h-1.23l.06-.44.025-.195.054-.503.048-.503.07-.87.033-.504.03-.503.055-1.13.02-.504.017-.504.026-.954.01-.503.01-.504c.015-1.06.02-2.244.01-3.562l-.004-.567-.007-.562c-.02-1.668-.065-3.532-.138-5.616zM5.9 48.08h2.086l.23.356H5.67l.114-.176.117-.18zm1.847 1.362l-.24.74h-1.13l-.24-.74h1.61zm11.205 11.64l1 .09c1.16.096 2.115.138 2.756.157v.316H8.138c-.014-.896-.02-1.893-.016-2.998 1.98.796 4.296 1.43 6.935 1.898 1.393.247 2.72.417 3.894.535zm1.473-6.702c-1.234-.293-2.19-1.2-2.592-2.344.644.52 1.372.918 2.162 1.187.528.507 1.166.88 1.862 1.09l.24.067-.218.045c-.202.035-.408.054-.617.054-.28 0-.562-.034-.838-.1zm-.233-2.466c-.716-1.054-.817-2.372-.347-3.49.113.72.337 1.417.664 2.074.168.777.525 1.478 1.02 2.053.17.2.356.383.557.55.153.127.315.244.483.35-.403-.07-.79-.208-1.142-.405-.332-.185-.634-.423-.896-.706-.123-.134-.237-.275-.34-.427zm1.244-1.895c-.072-.503-.036-1 .088-1.466.1-.378.26-.735.47-1.06.165-.25.36-.483.582-.688l.08-.074c-.057.18-.103.365-.144.55-.188.843-.225 1.717-.1 2.596l.087.483c.135.647.354 1.262.654 1.837l.022.04.152.276.074.12.122.196c-.144-.067-.283-.143-.416-.228l-.07-.047c-.806-.534-1.39-1.383-1.574-2.385l-.026-.15zm2.88-6.478c.526.503.95 1.093 1.255 1.738-.154-.073-.314-.14-.48-.196-.196-.067-.413-.005-.545.156-.132.16-.152.387-.05.57.676 1.2.93 2.558.736 3.926-.115.815-.384 1.58-.79 2.27l-.124.125-.124-.124c-.406-.69-.675-1.455-.79-2.27-.196-1.368.06-2.725.735-3.927.102-.183.082-.41-.05-.57-.132-.16-.35-.223-.545-.156-.166.056-.326.123-.48.196.306-.645.728-1.235 1.254-1.738zm2.88 6.477l-.026.15c-.185 1-.77 1.85-1.573 2.384l-.07.047.007-.055-.03-.218-.046-.092.022-.04c.3-.575.52-1.19.655-1.836l.087-.483c.125-.88.088-1.753-.1-2.597-.04-.185-.087-.368-.143-.55l.078.074c.222.205.417.437.58.69.212.323.372.68.473 1.058.125.466.16.963.09 1.465zm.173 4.46c-.21 0-.415-.02-.616-.055l-.22-.045.24-.066c.697-.21 1.335-.584 1.863-1.09.79-.27 1.52-.668 2.162-1.188-.402 1.145-1.36 2.05-2.593 2.344-.276.066-.558.1-.838.1zm.73-2.14c-.262.283-.564.52-.896.706-.353.197-.74.336-1.142.406.17-.107.33-.224.483-.35.2-.168.388-.352.558-.55.494-.575.852-1.276 1.02-2.054.327-.657.55-1.353.664-2.075.47 1.12.368 2.437-.347 3.49-.103.153-.218.294-.34.427zm-3.985 2.153h.402c.33.26.695.476 1.083.638l-.26 1.345h-2.05l-.258-1.344c.39-.16.753-.376 1.083-.637zm-.408 3.96v-.97h1.22v4.577h-1.22v-3.607zm2.658 10.978h-4.097l.008-.103.49-6.26h3.1l.498 6.364zm-20.63-4.816l-.056 1.13H3.332v-1.13h2.4zM3.332 66.75h2.28l-.07.87h-2.21v-.87zm0-4.097h2.464l-.026.954H3.334v-.954zm5.282 6.673l-.073-.504-.025-.195h12.81l-.054.7H8.613zM8.34 66.75h13.136l-.068.87H8.412l-.07-.87zm-.12-2.136h13.423l-.088 1.13H8.277l-.055-1.13zm-.062-1.96h13.638l-.075.953H8.184l-.026-.954zm-2.34-1.007H3.333V55.9c.727.605 1.558 1.163 2.492 1.673.014 1.543.01 2.896-.01 4.074zm-2.484 7.176v-.195h2.104l-.025.195-.073.504H3.333v-.504zm16.618-9.364h2.757v.862c-.64-.02-1.595-.063-2.758-.16v-.703zM7.098 47.004H6.73l.184-1.407.183 1.407zm5.76 2.674l.135.093c.068.034.144.054.22.054.08 0 .156-.02.226-.054.245-.125.345-.427.22-.675-.047-.098-.126-.177-.224-.226-.187-.094-.427-.055-.575.094-.153.154-.19.39-.093.585l.09.128zm-2.427-3.476c.07.036.15.054.227.054.133 0 .26-.053.354-.147.153-.152.19-.387.095-.58-.048-.1-.127-.178-.225-.227-.086-.043-.184-.06-.28-.05l-.203.072-.093.07c-.154.155-.19.39-.094.586.048.097.125.174.22.223zm.23 8.04c0 .183.1.352.26.44l.415.23.227.418c.088.16.256.262.438.262.183 0 .35-.1.438-.262l.227-.418.416-.23c.16-.087.26-.257.26-.44s-.1-.354-.26-.442l-.415-.23-.227-.417c-.088-.16-.256-.262-.438-.262-.183 0-.35.1-.438.262l-.227.418-.415.23c-.16.087-.26.257-.26.44" fill="#67737B"/><path d="M30.877 28.822H28.92l1.916-9.77c.03-.147-.01-.3-.104-.416-.095-.116-.237-.184-.386-.184h-4.42v-1c.16-.06.285-.2.32-.378l.32-1.66c.262.047.532.072.805.072.36 0 .718-.042 1.07-.126 2.17-.516 3.667-2.517 3.56-4.757-.01-.208-.146-.39-.342-.454-.197-.066-.413-.002-.544.16-.395.49-.853.91-1.36 1.252.665-1.7.292-3.678-1.036-5.01-.147-.15-.37-.19-.558-.104-.19.086-.306.28-.294.488.014.25.014.497 0 .742-.214-.505-.513-.968-.886-1.37-.332-1.487-1.147-2.833-2.345-3.826-.184-.153-.45-.153-.635 0-1.198.992-2.012 2.338-2.344 3.827-.373.4-.672.864-.885 1.368-.014-.245-.014-.493 0-.743.012-.208-.105-.402-.294-.488-.19-.086-.41-.045-.558.103-1.328 1.333-1.7 3.313-1.035 5.01-.508-.34-.966-.76-1.36-1.25-.132-.163-.348-.227-.545-.162-.197.065-.334.246-.343.454-.106 2.24 1.392 4.24 3.562 4.757.35.082.71.125 1.068.125.273 0 .543-.025.806-.072l.32 1.66c.035.177.16.318.32.377v1h-3.256c-.276 0-.5.226-.5.504v1.112c-3.103-.317-7.258-1.008-10.823-2.51.02-1.9.067-4.09.158-6.597l.057-.118.455-1.4h.343c.276 0 .5-.226.5-.504 0-.117-.04-.224-.105-.31L8.676 7.3c-.092-.142-.25-.228-.418-.228h-.14L7.41 1.665c-.033-.25-.245-.438-.495-.438s-.463.187-.495.438l-.705 5.407h-.085c-.17 0-.326.086-.418.228L4.33 8.662c-.1.155-.11.352-.022.515.087.163.256.264.44.264h.34l.455 1.402c.026.08.072.152.13.208.072 1.98.117 3.758.14 5.354-.98-.577-1.87-1.238-2.623-1.997-.143-.144-.358-.187-.544-.11-.187.08-.31.262-.31.466v14.06H1.003c-.552 0-1 .45-1 1.005 0 .556.448 1.006 1 1.006H30.88c.552 0 1-.45 1-1.006s-.45-1.006-1-1.006zm-1.14-9.364l-1.835 9.364h-.58l-.493-6.3c-.02-.262-.238-.464-.5-.464h-.403v-2.6h3.812zm-23.055-8.12h.592c-.075 2.15-.12 4.065-.14 5.77l-.006.553-.004.56c-.008 1.264-.003 2.403.013 3.426l.01.503.01.502.025.954.017.503.02.502.054 1.13.03.504.034.503.07.87.047.502.055.503.024.195.06.44h-1.23l.06-.44.025-.195.054-.503.048-.503.07-.87.033-.504.03-.503.055-1.13.02-.504.017-.504.026-.954.01-.503.01-.504c.015-1.06.02-2.244.01-3.562l-.004-.567-.007-.562c-.02-1.668-.065-3.532-.138-5.616zM5.9 8.08h2.086l.23.356H5.67l.114-.176.117-.18zm1.847 1.362l-.24.74h-1.13l-.24-.74h1.61zm11.205 11.64l1 .09c1.16.096 2.115.138 2.756.157v.316H8.138c-.014-.896-.02-1.893-.016-2.998 1.98.796 4.296 1.43 6.935 1.898 1.393.247 2.72.417 3.894.535zm1.473-6.702c-1.234-.293-2.19-1.2-2.592-2.344.644.52 1.372.918 2.162 1.187.528.507 1.166.88 1.862 1.09l.24.067-.218.045c-.202.035-.408.054-.617.054-.28 0-.562-.034-.838-.1zm-.233-2.466c-.716-1.054-.817-2.372-.347-3.49.113.72.337 1.417.664 2.074.168.777.525 1.478 1.02 2.053.17.2.356.383.557.55.153.127.315.244.483.35-.403-.07-.79-.208-1.142-.405-.332-.185-.634-.423-.896-.706-.123-.134-.237-.275-.34-.427zm1.244-1.895c-.072-.503-.036-1 .088-1.466.1-.378.26-.735.47-1.06.165-.25.36-.483.582-.688l.08-.074c-.057.18-.103.365-.144.55-.188.843-.225 1.717-.1 2.596l.087.483c.135.647.354 1.262.654 1.837l.022.04.152.276.074.12.122.196c-.144-.067-.283-.143-.416-.228l-.07-.047c-.806-.534-1.39-1.383-1.574-2.385l-.026-.15zm2.88-6.478c.526.503.95 1.093 1.255 1.738-.154-.073-.314-.14-.48-.196-.196-.067-.413-.005-.545.156-.132.16-.152.387-.05.57.676 1.2.93 2.558.736 3.926-.115.815-.384 1.58-.79 2.27l-.124.125-.124-.124c-.406-.69-.675-1.455-.79-2.27-.196-1.368.06-2.725.735-3.927.102-.183.082-.41-.05-.57-.132-.16-.35-.223-.545-.156-.166.056-.326.123-.48.196.306-.645.728-1.235 1.254-1.738zm2.88 6.477l-.026.15c-.185 1-.77 1.85-1.573 2.384l-.07.047.007-.055-.03-.218-.046-.092.022-.04c.3-.575.52-1.19.655-1.836l.087-.483c.125-.88.088-1.753-.1-2.597-.04-.185-.087-.368-.143-.55l.078.074c.222.205.417.437.58.69.212.323.372.68.473 1.058.125.466.16.963.09 1.465zm.173 4.46c-.21 0-.415-.02-.616-.055l-.22-.045.24-.066c.697-.21 1.335-.584 1.863-1.09.79-.27 1.52-.668 2.162-1.188-.402 1.145-1.36 2.05-2.593 2.344-.276.066-.558.1-.838.1zm.73-2.14c-.262.283-.564.52-.896.706-.353.197-.74.336-1.142.406.17-.107.33-.224.483-.35.2-.168.388-.352.558-.55.494-.575.852-1.276 1.02-2.054.327-.657.55-1.353.664-2.075.47 1.12.368 2.437-.347 3.49-.103.153-.218.294-.34.427zm-3.985 2.153h.402c.33.26.695.476 1.083.638l-.26 1.345h-2.05l-.258-1.344c.39-.16.753-.376 1.083-.637zm-.408 3.96v-.97h1.22v4.577h-1.22v-3.607zm2.658 10.978h-4.097l.008-.103.49-6.26h3.1l.498 6.364zm-20.63-4.816l-.056 1.13H3.332v-1.13h2.4zM3.332 26.75h2.28l-.07.87h-2.21v-.87zm0-4.097h2.464l-.026.954H3.334v-.954zm5.282 6.673l-.073-.504-.025-.195h12.81l-.054.7H8.613zM8.34 26.75h13.136l-.068.87H8.412l-.07-.87zm-.12-2.136h13.423l-.088 1.13H8.277l-.055-1.13zm-.062-1.96h13.638l-.075.953H8.184l-.026-.954zm-2.34-1.007H3.333V15.9c.727.605 1.558 1.163 2.492 1.673.014 1.543.01 2.896-.01 4.074zm-2.484 7.176v-.195h2.104l-.025.195-.073.504H3.333v-.504zm16.618-9.364h2.757v.862c-.64-.02-1.595-.063-2.758-.16v-.703zM7.098 7.004H6.73l.184-1.407.183 1.407zm5.76 2.674l.135.093c.068.034.144.054.22.054.08 0 .156-.02.226-.054.245-.125.345-.427.22-.675-.047-.098-.126-.177-.224-.226-.187-.094-.427-.055-.575.094-.153.154-.19.39-.093.585l.09.128zm-2.427-3.476c.07.036.15.054.227.054.133 0 .26-.053.354-.147.153-.152.19-.387.095-.58-.048-.1-.127-.178-.225-.227-.086-.043-.184-.06-.28-.05l-.203.072-.093.07c-.154.155-.19.39-.094.586.048.097.125.174.22.223zm.23 8.04c0 .183.1.352.26.44l.415.23.227.418c.088.16.256.262.438.262.183 0 .35-.1.438-.262l.227-.418.416-.23c.16-.087.26-.257.26-.44s-.1-.354-.26-.442l-.415-.23-.227-.417c-.088-.16-.256-.262-.438-.262-.183 0-.35.1-.438.262l-.227.418-.415.23c-.16.087-.26.257-.26.44" fill="#3A434E"/></g></svg>