<svg width="32" height="232" viewBox="0 0 32 232" xmlns="http://www.w3.org/2000/svg"><desc>Created with Sketch.</desc><g fill="none"><path d="M30.877 148.822H28.92l1.916-9.77c.03-.147-.01-.3-.104-.416-.095-.116-.237-.184-.386-.184h-4.42v-1c.16-.06.285-.2.32-.378l.32-1.66c.262.047.532.072.805.072.36 0 .72-.042 1.07-.126 2.17-.516 3.67-2.517 3.56-4.757-.01-.208-.143-.39-.34-.454-.196-.07-.412-.005-.543.16-.395.49-.853.91-1.36 1.25.665-1.7.292-3.68-1.036-5.01-.147-.15-.37-.19-.56-.105-.19.086-.304.28-.292.488.014.25.014.497 0 .742-.214-.505-.513-.968-.886-1.37-.33-1.487-1.145-2.833-2.343-3.826-.185-.153-.45-.153-.636 0-1.197.992-2.01 2.34-2.343 3.827-.373.4-.672.864-.885 1.368-.014-.245-.014-.493 0-.743.012-.208-.105-.402-.294-.488-.19-.086-.41-.045-.557.103-1.328 1.333-1.7 3.313-1.035 5.01-.508-.34-.966-.76-1.36-1.25-.132-.163-.348-.227-.545-.162-.197.065-.334.246-.343.454-.107 2.24 1.39 4.24 3.56 4.756.35.082.71.125 1.068.125.273 0 .543-.024.806-.07l.32 1.66c.035.176.16.317.32.376v1h-3.256c-.276 0-.5.226-.5.504v1.114c-3.103-.317-7.258-1.008-10.823-2.51.02-1.9.067-4.09.158-6.597l.057-.118.454-1.4h.343c.276 0 .5-.228.5-.506 0-.117-.04-.224-.105-.31l-.862-1.328c-.092-.142-.25-.228-.418-.228h-.14l-.706-5.408c-.033-.25-.245-.437-.495-.437s-.46.187-.492.438l-.705 5.41H5.64c-.17 0-.327.086-.42.23l-.884 1.36c-.1.155-.11.352-.022.515.088.163.257.264.44.264h.34l.456 1.4c.025.08.07.15.13.208.07 1.98.116 3.757.14 5.353-.98-.575-1.87-1.236-2.624-1.995-.143-.144-.358-.187-.544-.11-.188.08-.31.262-.31.466v14.06h-1.34c-.552 0-1 .45-1 1.006s.448 1.006 1 1.006H30.88c.552 0 1-.45 1-1.005s-.45-1.007-1-1.007zm-1.14-9.364l-1.835 9.364h-.58l-.493-6.3c-.02-.262-.24-.464-.5-.464h-.406v-2.6h3.812zm-23.055-8.12h.592c-.075 2.15-.12 4.065-.14 5.77l-.006.553-.004.56c-.008 1.267-.003 2.406.013 3.43l.01.502.01.503.025.954.017.502.02.5.05 1.13.03.505.035.503.07.87.047.502.055.503.023.195.06.44H6.36l.06-.44.026-.195.054-.503.048-.503.07-.87.033-.505.03-.503.057-1.13.02-.504.017-.504.026-.954.01-.503.01-.504c.015-1.06.02-2.242.01-3.56l-.004-.567-.007-.562c-.02-1.667-.067-3.53-.14-5.615zM5.9 128.08h2.086l.23.356H5.67l.114-.176.117-.18zm1.847 1.362l-.24.74h-1.13l-.24-.74h1.61zm11.205 11.64l1 .09c1.16.096 2.115.138 2.756.157v.313H8.138c-.014-.896-.02-1.893-.016-2.998 1.98.796 4.296 1.43 6.935 1.898 1.393.247 2.72.417 3.894.535zm1.473-6.702c-1.234-.293-2.19-1.2-2.592-2.344.644.52 1.372.918 2.162 1.187.528.507 1.166.88 1.862 1.09l.24.067-.218.045c-.205.035-.41.054-.62.054-.28 0-.56-.037-.838-.1zm-.233-2.466c-.716-1.054-.817-2.372-.347-3.49.113.72.337 1.417.664 2.074.165.777.522 1.478 1.02 2.053.17.2.353.386.554.55.153.13.315.247.483.35-.404-.07-.79-.205-1.143-.402-.332-.185-.634-.423-.896-.706-.123-.133-.237-.274-.34-.426zm1.244-1.895c-.072-.506-.036-1 .088-1.47.1-.377.26-.734.47-1.06.165-.25.36-.482.582-.687l.08-.074c-.057.18-.103.365-.144.55-.188.843-.225 1.717-.1 2.596l.087.483c.132.646.35 1.26.65 1.836l.023.04.152.276.074.12.122.196c-.144-.07-.283-.145-.416-.23l-.07-.047c-.806-.533-1.39-1.382-1.574-2.384l-.026-.15zm2.88-6.48c.526.502.95 1.092 1.255 1.74-.15-.076-.31-.14-.48-.2-.193-.066-.41-.004-.542.157-.132.16-.152.386-.05.57.676 1.2.93 2.557.736 3.925-.115.815-.384 1.58-.79 2.27l-.124.125-.125-.124c-.406-.69-.675-1.455-.79-2.27-.196-1.368.06-2.725.735-3.927.1-.184.08-.41-.05-.57-.133-.16-.35-.224-.546-.157-.166.055-.326.122-.48.195.306-.646.728-1.236 1.254-1.74zm2.88 6.476l-.026.15c-.185 1-.77 1.85-1.573 2.384l-.07.048.007-.056-.03-.218-.046-.092.022-.04c.3-.575.52-1.19.655-1.836l.087-.483c.125-.88.088-1.753-.1-2.597-.04-.185-.087-.368-.143-.55l.075.074c.222.205.417.437.58.69.212.323.372.68.473 1.058.124.466.16.963.09 1.465zm.173 4.46c-.21 0-.418-.02-.62-.055l-.22-.044.24-.066c.698-.21 1.336-.583 1.864-1.09.79-.27 1.52-.667 2.162-1.187-.402 1.145-1.36 2.05-2.593 2.344-.276.066-.558.1-.838.1zm.73-2.14c-.265.283-.567.52-.9.706-.352.197-.74.336-1.14.406.17-.108.33-.225.483-.35.2-.17.388-.353.558-.55.495-.576.853-1.277 1.02-2.055.328-.657.55-1.353.665-2.075.47 1.12.368 2.438-.347 3.49-.105.154-.22.295-.34.428zm-3.988 2.153h.402c.33.26.695.476 1.083.64l-.26 1.343h-2.05l-.26-1.344c.39-.16.754-.377 1.084-.638zm-.408 3.96v-.97h1.22v4.577h-1.22v-3.607zm2.658 10.98h-4.097l.008-.105.49-6.26h3.1l.498 6.364zm-20.63-4.818l-.056 1.13H3.332v-1.13h2.4zM3.33 146.75h2.28l-.07.87H3.33v-.87zm0-4.097h2.465l-.026.954H3.332v-.954zm5.283 6.673l-.073-.504-.024-.195h12.81l-.054.7H8.612zm-.274-2.575h13.134l-.068.87H8.412l-.07-.87zm-.12-2.133h13.42l-.088 1.13H8.277l-.055-1.13zm-.064-1.96h13.638l-.075.953H8.184l-.026-.955zm-2.34-1.007H3.333v-5.75c.727.605 1.558 1.163 2.492 1.673.014 1.543.01 2.896-.01 4.074zm-2.484 7.175v-.195h2.104l-.025.194-.072.504H3.332v-.504zm16.618-9.364h2.758v.864c-.64-.02-1.596-.063-2.76-.16v-.703zM7.1 127.006h-.37l.184-1.407.183 1.407zm5.76 2.674l.135.092c.068.036.144.056.22.056.08 0 .156-.02.226-.054.244-.124.344-.426.22-.674-.05-.098-.127-.177-.225-.226-.187-.094-.427-.055-.575.094-.154.154-.19.39-.094.585l.09.128zm-2.427-3.477c.07.036.15.054.23.054.132 0 .26-.053.353-.147.153-.154.19-.39.095-.58-.047-.1-.126-.18-.224-.23-.086-.042-.184-.06-.28-.05l-.203.073-.094.07c-.155.155-.19.39-.095.586.048.095.125.172.22.22zm.23 8.04c0 .183.1.352.26.44l.417.23.227.418c.088.16.256.263.438.263.184 0 .35-.1.44-.262l.226-.417.417-.23c.16-.087.26-.257.26-.44s-.1-.354-.26-.442l-.415-.23-.228-.416c-.088-.16-.256-.262-.438-.262-.183 0-.35.1-.438.264l-.227.418-.415.23c-.16.088-.26.258-.26.44" fill="#206FAC"/><path d="M30.877 108.822H28.92l1.916-9.77c.03-.147-.01-.3-.104-.416-.095-.116-.237-.184-.386-.184h-4.42v-1c.16-.06.285-.2.32-.378l.32-1.66c.262.047.532.072.805.072.36 0 .72-.042 1.07-.126 2.17-.516 3.67-2.517 3.56-4.757-.01-.208-.143-.39-.34-.454-.196-.07-.412-.005-.543.16-.395.49-.853.91-1.36 1.25.665-1.7.292-3.68-1.036-5.01-.147-.15-.37-.19-.56-.105-.19.086-.304.28-.292.488.014.25.014.497 0 .742-.214-.505-.513-.968-.886-1.37-.33-1.487-1.145-2.833-2.343-3.826-.185-.153-.45-.153-.636 0-1.197.992-2.01 2.34-2.343 3.827-.373.4-.672.864-.885 1.368-.014-.245-.014-.493 0-.743.012-.208-.105-.402-.294-.488-.19-.086-.41-.045-.557.103-1.328 1.333-1.7 3.313-1.035 5.01-.508-.34-.966-.76-1.36-1.25-.132-.163-.348-.227-.545-.162-.197.065-.334.246-.343.454-.107 2.24 1.39 4.24 3.56 4.756.35.082.71.125 1.068.125.273 0 .543-.024.806-.07l.32 1.66c.035.176.16.317.32.376v1h-3.256c-.276 0-.5.226-.5.504v1.114c-3.103-.317-7.258-1.008-10.823-2.51.02-1.9.067-4.09.158-6.597l.057-.118.454-1.4h.343c.276 0 .5-.228.5-.506 0-.117-.04-.224-.105-.31L8.676 87.3c-.092-.142-.25-.228-.418-.228h-.14l-.706-5.407c-.033-.25-.245-.438-.495-.438s-.463.187-.495.438l-.705 5.407h-.085c-.17 0-.326.086-.418.228l-.885 1.362c-.1.155-.11.352-.025.515.087.163.256.264.44.264h.34l.455 1.405c.027.08.073.152.13.208.073 1.98.118 3.76.14 5.355-.98-.577-1.87-1.238-2.622-1.997-.144-.143-.36-.186-.545-.11-.187.08-.31.263-.31.467v14.06h-1.33c-.552 0-1 .45-1 1.005 0 .556.448 1.006 1 1.006H30.88c.552 0 1-.45 1-1.006s-.45-1.007-1-1.007zm-1.14-9.364l-1.835 9.364h-.58l-.493-6.3c-.02-.262-.24-.464-.5-.464h-.406v-2.6h3.812zm-23.055-8.12h.592c-.075 2.15-.12 4.065-.14 5.77l-.006.553-.004.56c-.008 1.267-.003 2.406.013 3.43l.01.502.01.503.025.954.017.502.02.5.05 1.13.03.505.035.503.07.87.047.502.055.503.023.195.06.44H6.36l.06-.44.026-.195.054-.503.048-.503.07-.87.033-.505.03-.503.057-1.13.02-.504.017-.504.026-.954.01-.503.01-.504c.015-1.06.02-2.242.01-3.56l-.004-.567-.007-.562c-.02-1.667-.067-3.53-.14-5.615zM5.9 88.08h2.086l.23.356H5.67l.114-.176.117-.18zm1.847 1.362l-.24.74h-1.13l-.24-.74h1.61zm11.205 11.64l1 .09c1.16.096 2.115.138 2.756.157v.313H8.138c-.014-.896-.02-1.893-.016-2.998 1.98.796 4.296 1.43 6.935 1.898 1.393.247 2.72.417 3.894.535zm1.473-6.702c-1.234-.293-2.19-1.2-2.592-2.344.644.52 1.372.918 2.162 1.187.528.507 1.166.88 1.862 1.09l.24.067-.218.045c-.205.035-.41.054-.62.054-.28 0-.56-.037-.838-.1zm-.233-2.466c-.716-1.054-.817-2.372-.347-3.49.113.72.337 1.417.664 2.074.165.777.522 1.478 1.02 2.053.17.2.353.386.554.55.153.13.315.247.483.35-.404-.07-.79-.205-1.143-.402-.332-.185-.634-.423-.896-.706-.123-.133-.237-.274-.34-.426zm1.244-1.895c-.072-.506-.036-1 .088-1.47.1-.377.26-.734.47-1.06.165-.25.36-.482.582-.687l.08-.074c-.057.18-.103.365-.144.55-.188.843-.225 1.717-.1 2.596l.087.483c.132.646.35 1.26.65 1.836l.023.04.152.276.074.12.122.196c-.144-.07-.283-.145-.416-.23l-.07-.047c-.806-.533-1.39-1.382-1.574-2.384l-.026-.15zm2.88-6.48c.526.502.95 1.092 1.255 1.74-.15-.076-.31-.14-.48-.2-.193-.066-.41-.004-.542.157-.132.16-.152.386-.05.57.676 1.2.93 2.557.736 3.925-.115.815-.384 1.58-.79 2.27l-.124.125-.125-.124c-.406-.69-.675-1.455-.79-2.27-.196-1.368.06-2.725.735-3.927.1-.184.08-.41-.05-.57-.133-.16-.35-.224-.546-.157-.166.055-.326.122-.48.195.306-.646.728-1.236 1.254-1.74zm2.88 6.476l-.026.15c-.185 1-.77 1.85-1.573 2.384l-.07.048.007-.056-.03-.218-.046-.092.022-.04c.3-.575.52-1.19.655-1.836l.087-.483c.125-.88.088-1.753-.1-2.597-.04-.185-.087-.368-.143-.55l.075.074c.222.205.417.437.58.69.212.323.372.68.473 1.058.124.466.16.963.09 1.465zm.173 4.46c-.21 0-.418-.02-.62-.055l-.22-.044.24-.066c.698-.21 1.336-.583 1.864-1.09.79-.27 1.52-.667 2.162-1.187-.402 1.145-1.36 2.05-2.593 2.344-.276.066-.558.1-.838.1zm.73-2.14c-.265.283-.567.52-.9.706-.352.197-.74.336-1.14.406.17-.108.33-.225.483-.35.2-.17.388-.353.558-.55.495-.576.853-1.277 1.02-2.055.328-.657.55-1.353.665-2.075.47 1.12.368 2.438-.347 3.49-.105.154-.22.295-.34.428zM24.11 94.49h.402c.33.26.695.476 1.083.64l-.26 1.343h-2.05l-.26-1.344c.39-.16.754-.377 1.084-.638zm-.408 3.96v-.97h1.22v4.577h-1.22V98.45zm2.658 10.98h-4.097l.008-.105.49-6.26h3.1l.498 6.364zm-20.63-4.818l-.056 1.13H3.332v-1.13h2.4zM3.33 106.75h2.28l-.07.87H3.33v-.87zm0-4.097h2.465l-.026.954H3.332v-.954zm5.283 6.673l-.073-.504-.024-.195h12.81l-.054.7H8.612zm-.274-2.575h13.134l-.068.87H8.412l-.07-.87zm-.12-2.133h13.42l-.088 1.13H8.277l-.055-1.13zm-.064-1.96h13.638l-.075.953H8.184l-.026-.955zm-2.34-1.007H3.333V95.9c.727.605 1.558 1.163 2.492 1.673.014 1.543.01 2.896-.01 4.074zm-2.484 7.175v-.195h2.104l-.025.194-.072.504H3.332v-.504zM19.95 99.46h2.758v.863c-.64-.02-1.596-.063-2.76-.16v-.703zM7.1 87.005h-.37l.184-1.407.183 1.407zm5.76 2.674l.135.092c.068.036.144.056.22.056.08 0 .156-.02.226-.054.244-.124.344-.426.22-.674-.05-.098-.127-.177-.225-.226-.187-.094-.427-.055-.575.094-.154.154-.19.39-.094.585l.09.128zm-2.427-3.477c.07.036.15.054.23.054.132 0 .26-.053.353-.147.153-.154.19-.39.095-.58-.047-.1-.126-.18-.224-.23-.086-.042-.184-.06-.28-.05l-.203.073-.094.07c-.155.155-.19.39-.095.586.048.095.125.172.22.22zm.23 8.04c0 .183.1.352.26.44l.417.23.227.418c.088.16.256.263.438.263.184 0 .35-.1.44-.262l.226-.417.417-.23c.16-.087.26-.257.26-.44s-.1-.354-.26-.442l-.415-.23-.228-.416c-.088-.16-.256-.262-.438-.262-.183 0-.35.1-.438.264l-.227.418-.415.23c-.16.088-.26.258-.26.44" fill="#fff"/><path d="M30.877 68.822H28.92l1.916-9.77c.03-.147-.01-.3-.104-.416-.095-.116-.237-.184-.386-.184h-4.42v-1c.16-.06.285-.2.32-.378l.32-1.66c.262.047.532.072.805.072.36 0 .72-.042 1.07-.126 2.17-.516 3.67-2.517 3.56-4.757-.01-.208-.143-.39-.34-.454-.196-.07-.412-.005-.543.16-.395.49-.853.91-1.36 1.25.665-1.7.292-3.68-1.036-5.01-.147-.15-.37-.19-.56-.105-.19.086-.304.28-.292.488.014.25.014.497 0 .742-.214-.505-.513-.968-.886-1.37-.33-1.487-1.145-2.833-2.343-3.826-.185-.153-.45-.153-.636 0-1.197.992-2.01 2.34-2.343 3.827-.373.4-.672.864-.885 1.368-.014-.245-.014-.493 0-.743.012-.208-.105-.402-.294-.488-.19-.086-.41-.045-.557.103-1.328 1.333-1.7 3.313-1.035 5.01-.508-.34-.966-.76-1.36-1.25-.132-.163-.348-.227-.545-.162-.197.065-.334.246-.343.454-.107 2.24 1.39 4.24 3.56 4.756.35.082.71.125 1.068.125.273 0 .543-.024.806-.07l.32 1.66c.035.176.16.317.32.376v1h-3.256c-.276 0-.5.226-.5.504v1.114c-3.103-.317-7.258-1.008-10.823-2.51.02-1.9.067-4.09.158-6.597l.057-.118.454-1.4h.343c.276 0 .5-.228.5-.506 0-.117-.04-.224-.105-.31L8.676 47.3c-.092-.142-.25-.228-.418-.228h-.14l-.706-5.407c-.033-.25-.245-.438-.495-.438s-.463.187-.495.438l-.705 5.407h-.085c-.17 0-.326.086-.418.228l-.885 1.362c-.1.155-.11.352-.025.515.087.163.256.264.44.264h.34l.455 1.405c.027.08.073.152.13.208.073 1.98.118 3.76.14 5.355-.98-.577-1.87-1.238-2.622-1.997-.144-.143-.36-.186-.545-.11-.187.08-.31.263-.31.467v14.06h-1.33c-.552 0-1 .45-1 1.005 0 .556.448 1.006 1 1.006H30.88c.552 0 1-.45 1-1.006s-.45-1.007-1-1.007zm-1.14-9.364l-1.835 9.364h-.58l-.493-6.3c-.02-.262-.24-.464-.5-.464h-.406v-2.6h3.812zm-23.055-8.12h.592c-.075 2.15-.12 4.065-.14 5.77l-.006.553-.004.56c-.008 1.267-.003 2.406.013 3.43l.01.502.01.503.025.954.017.502.02.5.05 1.13.03.505.035.503.07.87.047.502.055.503.023.195.06.44H6.36l.06-.44.026-.195.054-.503.048-.503.07-.87.033-.505.03-.503.057-1.13.02-.504.017-.504.026-.954.01-.503.01-.504c.015-1.06.02-2.242.01-3.56l-.004-.567-.007-.562c-.02-1.667-.067-3.53-.14-5.615zM5.9 48.08h2.086l.23.356H5.67l.114-.176.117-.18zm1.847 1.362l-.24.74h-1.13l-.24-.74h1.61zm11.205 11.64l1 .09c1.16.096 2.115.138 2.756.157v.313H8.138c-.014-.896-.02-1.893-.016-2.998 1.98.796 4.296 1.43 6.935 1.898 1.393.247 2.72.417 3.894.535zm1.473-6.702c-1.234-.293-2.19-1.2-2.592-2.344.644.52 1.372.918 2.162 1.187.528.507 1.166.88 1.862 1.09l.24.067-.218.045c-.205.035-.41.054-.62.054-.28 0-.56-.037-.838-.1zm-.233-2.466c-.716-1.054-.817-2.372-.347-3.49.113.72.337 1.417.664 2.074.165.777.522 1.478 1.02 2.053.17.2.353.386.554.55.153.13.315.247.483.35-.404-.07-.79-.205-1.143-.402-.332-.185-.634-.423-.896-.706-.123-.133-.237-.274-.34-.426zm1.244-1.895c-.072-.506-.036-1 .088-1.47.1-.377.26-.734.47-1.06.165-.25.36-.482.582-.687l.08-.074c-.057.18-.103.365-.144.55-.188.843-.225 1.717-.1 2.596l.087.483c.132.646.35 1.26.65 1.836l.023.04.152.276.074.12.122.196c-.144-.07-.283-.145-.416-.23l-.07-.047c-.806-.533-1.39-1.382-1.574-2.384l-.026-.15zm2.88-6.48c.526.502.95 1.092 1.255 1.74-.15-.076-.31-.14-.48-.2-.193-.066-.41-.004-.542.157-.132.16-.152.386-.05.57.676 1.2.93 2.557.736 3.925-.115.815-.384 1.58-.79 2.27l-.124.125-.125-.124c-.406-.69-.675-1.455-.79-2.27-.196-1.368.06-2.725.735-3.927.1-.184.08-.41-.05-.57-.133-.16-.35-.224-.546-.157-.166.055-.326.122-.48.195.306-.646.728-1.236 1.254-1.74zm2.88 6.476l-.026.15c-.185 1-.77 1.85-1.573 2.384l-.07.048.007-.056-.03-.218-.046-.092.022-.04c.3-.575.52-1.19.655-1.836l.087-.483c.125-.88.088-1.753-.1-2.597-.04-.185-.087-.368-.143-.55l.075.074c.222.205.417.437.58.69.212.323.372.68.473 1.058.124.466.16.963.09 1.465zm.173 4.46c-.21 0-.418-.02-.62-.055l-.22-.044.24-.066c.698-.21 1.336-.583 1.864-1.09.79-.27 1.52-.667 2.162-1.187-.402 1.145-1.36 2.05-2.593 2.344-.276.066-.558.1-.838.1zm.73-2.14c-.265.283-.567.52-.9.706-.352.197-.74.336-1.14.406.17-.108.33-.225.483-.35.2-.17.388-.353.558-.55.495-.576.853-1.277 1.02-2.055.328-.657.55-1.353.665-2.075.47 1.12.368 2.438-.347 3.49-.105.154-.22.295-.34.428zM24.11 54.49h.402c.33.26.695.476 1.083.64l-.26 1.343h-2.05l-.26-1.344c.39-.16.754-.377 1.084-.638zm-.408 3.96v-.97h1.22v4.577h-1.22V58.45zm2.658 10.98h-4.097l.008-.105.49-6.26h3.1l.498 6.364zM5.732 64.61l-.056 1.13H3.332v-1.13h2.4zm-2.4 2.137h2.28l-.07.87h-2.21v-.87zm0-4.098h2.463l-.026.954H3.333v-.954zm5.28 6.673l-.072-.504-.023-.194h12.81l-.054.7H8.613zM8.34 66.75h13.136l-.068.87H8.412l-.07-.87zm-.12-2.136h13.423l-.088 1.13H8.277l-.055-1.13zm-.062-1.96h13.638l-.075.953H8.187l-.026-.954zm-2.34-1.007H3.333V55.9c.727.605 1.558 1.163 2.492 1.673.014 1.543.01 2.896-.01 4.074zm-2.484 7.176v-.195h2.104l-.025.195-.073.504H3.333v-.504zm16.618-9.364h2.757v.86c-.64-.02-1.598-.064-2.76-.16v-.704zM7.098 47H6.73l.184-1.407.183 1.407zm5.76 2.674l.135.093c.068.034.144.054.22.054.08 0 .156-.02.226-.054.242-.123.342-.425.22-.673-.05-.098-.13-.177-.227-.226-.187-.092-.427-.053-.575.096-.154.154-.19.39-.094.585l.09.128zM10.43 46.2c.07.037.15.055.23.055.132 0 .26-.053.353-.147.153-.153.19-.388.095-.58-.048-.1-.127-.18-.225-.228-.086-.043-.184-.06-.28-.05l-.203.072-.094.07c-.154.155-.19.39-.094.586.048.097.125.174.22.223zm.23 8.04c0 .184.1.353.26.44l.417.23.227.42c.088.16.256.26.438.26.184 0 .35-.1.44-.26l.226-.42.416-.23c.16-.086.26-.256.26-.44s-.1-.353-.26-.44l-.415-.23-.23-.418c-.087-.16-.255-.262-.437-.262-.183 0-.35.1-.438.263l-.227.418-.416.23c-.16.09-.26.26-.26.44" fill="#67737B"/><path d="M30.877 28.822H28.92l1.916-9.77c.03-.147-.01-.3-.104-.416-.095-.116-.237-.184-.386-.184h-4.42v-1c.16-.06.285-.2.32-.378l.32-1.66c.262.047.532.072.805.072.36 0 .72-.042 1.07-.126 2.17-.516 3.67-2.517 3.56-4.757-.01-.208-.143-.39-.34-.454-.196-.07-.412-.005-.543.16-.395.49-.853.91-1.36 1.25.665-1.7.292-3.68-1.036-5.01-.147-.15-.37-.19-.56-.105-.19.086-.304.28-.292.488.014.25.014.497 0 .742-.214-.505-.513-.968-.886-1.37-.33-1.487-1.145-2.833-2.343-3.826-.185-.153-.45-.153-.636 0-1.197.992-2.01 2.34-2.343 3.827-.373.4-.672.864-.885 1.368-.014-.245-.014-.493 0-.743.012-.208-.105-.402-.294-.488-.19-.086-.41-.045-.557.103-1.328 1.333-1.7 3.313-1.035 5.01-.508-.34-.966-.76-1.36-1.25-.132-.163-.348-.227-.545-.162-.197.065-.334.246-.343.454-.107 2.24 1.39 4.24 3.56 4.756.35.082.71.125 1.068.125.273 0 .543-.024.806-.07l.32 1.66c.035.176.16.317.32.376v1h-3.256c-.276 0-.5.226-.5.504v1.114c-3.103-.317-7.258-1.008-10.823-2.51.02-1.9.067-4.09.158-6.597l.057-.118.454-1.4h.343c.276 0 .5-.228.5-.506 0-.117-.04-.224-.105-.31L8.676 7.3c-.092-.142-.25-.228-.418-.228h-.14L7.41 1.665c-.033-.25-.245-.438-.495-.438s-.463.187-.495.438l-.705 5.407H5.63c-.17 0-.326.086-.418.228L4.33 8.662c-.1.155-.11.352-.022.515.087.163.256.264.44.264h.34l.455 1.405c.026.08.072.152.13.208.072 1.98.117 3.76.14 5.355-.98-.577-1.87-1.238-2.623-1.997-.143-.143-.358-.186-.544-.11-.187.08-.31.263-.31.467v14.06H1.003c-.552 0-1 .45-1 1.005 0 .556.448 1.006 1 1.006H30.88c.552 0 1-.45 1-1.006s-.45-1.007-1-1.007zm-1.14-9.364l-1.835 9.364h-.58l-.493-6.3c-.02-.262-.24-.464-.5-.464h-.406v-2.6h3.812zm-23.055-8.12h.592c-.075 2.15-.12 4.065-.14 5.77l-.006.553-.004.56c-.008 1.267-.003 2.406.013 3.43l.01.502.01.503.025.954.017.502.02.5.05 1.13.03.505.035.503.07.87.047.502.055.503.023.195.06.44H6.36l.06-.44.026-.195.054-.503.048-.503.07-.87.033-.505.03-.503.057-1.13.02-.504.017-.504.026-.954.01-.503.01-.504c.015-1.06.02-2.242.01-3.56l-.004-.567-.007-.562c-.02-1.667-.067-3.53-.14-5.615zM5.9 8.08h2.086l.23.356H5.67l.114-.176.117-.18zm1.847 1.362l-.24.74h-1.13l-.24-.74h1.61zm11.205 11.64l1 .09c1.16.096 2.115.138 2.756.157v.313H8.138c-.014-.896-.02-1.893-.016-2.998 1.98.796 4.296 1.43 6.935 1.898 1.393.247 2.72.417 3.894.535zm1.473-6.702c-1.234-.293-2.19-1.2-2.592-2.344.644.52 1.372.918 2.162 1.187.528.507 1.166.88 1.862 1.09l.24.067-.218.045c-.205.035-.41.054-.62.054-.28 0-.56-.037-.838-.1zm-.233-2.466c-.716-1.054-.817-2.372-.347-3.49.113.72.337 1.417.664 2.074.165.777.522 1.478 1.02 2.053.17.2.353.386.554.55.153.13.315.247.483.35-.404-.07-.79-.205-1.143-.402-.332-.185-.634-.423-.896-.706-.123-.133-.237-.274-.34-.426zm1.244-1.895c-.072-.506-.036-1 .088-1.47.1-.377.26-.734.47-1.06.165-.25.36-.482.582-.687l.08-.074c-.057.18-.103.365-.144.55-.188.843-.225 1.717-.1 2.596l.087.483c.132.646.35 1.26.65 1.836l.023.04.152.276.074.12.122.196c-.144-.07-.283-.145-.416-.23l-.07-.047c-.806-.533-1.39-1.382-1.574-2.384l-.026-.15zm2.88-6.48c.526.502.95 1.092 1.255 1.74-.15-.076-.31-.14-.48-.2-.193-.066-.41-.004-.542.157-.132.16-.152.386-.05.57.676 1.2.93 2.557.736 3.925-.115.815-.384 1.58-.79 2.27l-.124.125-.125-.124c-.406-.69-.675-1.455-.79-2.27-.196-1.368.06-2.725.735-3.927.1-.184.08-.41-.05-.57-.133-.16-.35-.224-.546-.157-.166.055-.326.122-.48.195.306-.646.728-1.236 1.254-1.74zm2.88 6.476l-.026.15c-.185 1-.77 1.85-1.573 2.384l-.07.048.007-.056-.03-.218-.046-.092.022-.04c.3-.575.52-1.19.655-1.836l.087-.483c.125-.88.088-1.753-.1-2.597-.04-.185-.087-.368-.143-.55l.075.074c.222.205.417.437.58.69.212.323.372.68.473 1.058.124.466.16.963.09 1.465zm.173 4.46c-.21 0-.418-.02-.62-.055l-.22-.044.24-.066c.698-.21 1.336-.583 1.864-1.09.79-.27 1.52-.667 2.162-1.187-.402 1.145-1.36 2.05-2.593 2.344-.276.066-.558.1-.838.1zm.73-2.14c-.265.283-.567.52-.9.706-.352.197-.74.336-1.14.406.17-.108.33-.225.483-.35.2-.17.388-.353.558-.55.495-.576.853-1.277 1.02-2.055.328-.657.55-1.353.665-2.075.47 1.12.368 2.438-.347 3.49-.105.154-.22.295-.34.428zM24.11 14.49h.402c.33.26.695.476 1.083.64l-.26 1.343h-2.05l-.26-1.344c.39-.16.754-.377 1.084-.638zm-.408 3.96v-.97h1.22v4.577h-1.22V18.45zm2.658 10.98h-4.097l.008-.105.49-6.26h3.1l.498 6.364zM5.732 24.61l-.056 1.13H3.332v-1.13h2.4zm-2.4 2.137h2.28l-.07.87h-2.21v-.87zm0-4.098h2.463l-.026.954H3.333v-.954zm5.28 6.673l-.072-.504-.023-.194h12.81l-.054.7H8.613zM8.34 26.75h13.136l-.068.87H8.412l-.07-.87zm-.12-2.136h13.423l-.088 1.13H8.277l-.055-1.13zm-.062-1.96h13.638l-.075.953H8.187l-.026-.954zm-2.34-1.007H3.333V15.9c.727.605 1.558 1.163 2.492 1.673.014 1.543.01 2.896-.01 4.074zm-2.484 7.176v-.195h2.104l-.025.195-.073.504H3.333v-.504zm16.618-9.364h2.757v.86c-.64-.02-1.598-.064-2.76-.16v-.704zM7.098 7H6.73l.184-1.407.183 1.407zm5.76 2.674l.135.093c.068.034.144.054.22.054.08 0 .156-.02.226-.054.242-.123.342-.425.22-.673-.05-.098-.13-.177-.227-.226-.187-.092-.427-.053-.575.096-.154.154-.19.39-.094.585l.09.128zM10.43 6.202c.07.036.15.054.228.054.133 0 .26-.053.354-.147.153-.155.19-.39.095-.58-.048-.1-.127-.18-.225-.23-.086-.043-.184-.06-.28-.05l-.203.072-.096.07c-.154.155-.19.39-.094.586.05.096.126.173.22.222zm.23 8.04c0 .183.1.352.26.44l.416.23.227.418c.088.16.256.262.438.262.186 0 .35-.1.44-.262l.228-.418.416-.23c.16-.087.26-.257.26-.44s-.1-.354-.26-.442l-.415-.23-.228-.417c-.087-.16-.255-.262-.437-.262-.183 0-.35.1-.438.265l-.227.418-.415.23c-.16.088-.26.258-.26.44" fill="#3A434E"/></g></svg>