<svg width="32" height="232" viewBox="0 0 32 232" xmlns="http://www.w3.org/2000/svg"><desc>Created with Sketch.</desc><g fill="none"><path d="M30.547 29.77h-.684v-4c.146-.1.244-.272.244-.467s-.097-.367-.244-.467v-.744c.146-.1.244-.272.244-.467s-.097-.367-.244-.467v-.744c.146-.1.244-.272.244-.467 0-.197-.1-.37-.248-.47-.02-.292-.255-.525-.54-.525-.29 0-.52.233-.54.526-.15.1-.25.273-.25.47s.098.366.245.466v.744c-.147.1-.244.272-.244.467s.098.367.245.467v.744c-.147.1-.244.27-.244.467 0 .195.098.367.245.467v3.997H26.9V19.753c2.013-.943 3.293-2.224 3.293-3.83 0-.618-.486-1.12-1.084-1.12-.6 0-1.088.502-1.088 1.12 0 .21-.136.47-.42.754L23.95 15.15l-.12-.04v-2.23c1.388-.348 2.63-.797 3.643-1.346l.218-.122c1.55-.893 2.5-2.035 2.5-3.418 0-.618-.482-1.12-1.08-1.12-.6 0-1.085.502-1.085 1.12 0 .36-.396.863-1.243 1.377-.31-.006-.62-.03-.927-.063V8.42c0-.31-.242-.56-.542-.56-.3 0-.54.25-.54.56v.704c-3.33-.738-6.216-3.045-7.7-6.295-.09-.23-.25-.428-.47-.557V.56c0-.31-.24-.56-.54-.56-.3 0-.543.25-.543.56v1.71c-.23.134-.396.345-.48.588-1.49 3.234-4.367 5.53-7.687 6.265v-.705c0-.308-.243-.56-.54-.56-.3 0-.544.252-.544.56v.888c-.308.036-.618.057-.93.065-.85-.51-1.243-1.013-1.243-1.373 0-.618-.486-1.12-1.084-1.12-.6 0-1.084.502-1.084 1.12 0 1.384.95 2.526 2.5 3.42l.217.12c1.012.55 2.255.998 3.642 1.345v2.23l-.12.043-3.654 1.526c-.283-.283-.42-.544-.42-.754 0-.618-.485-1.12-1.083-1.12-.6 0-1.084.502-1.084 1.12 0 1.606 1.28 2.887 3.29 3.83V29.77H3.26v-4c.147-.1.243-.272.243-.467s-.098-.367-.245-.467v-.744c.148-.1.244-.272.244-.467s-.1-.367-.247-.467v-.744c.148-.1.244-.272.244-.467 0-.197-.1-.37-.25-.47-.017-.292-.25-.525-.54-.525-.29 0-.52.233-.54.526-.15.1-.246.273-.246.47s.097.366.244.466v.744c-.147.1-.244.272-.244.467s.097.367.244.467v.744c-.147.1-.244.27-.244.467 0 .195.097.367.244.467v3.997H1.46c-.598 0-1.084.5-1.084 1.12 0 .617.486 1.118 1.084 1.118h29.084c.6 0 1.084-.5 1.084-1.12s-.485-1.12-1.084-1.12zm-8.882-14.7h-.636v-1.65l.632-.097v1.748zm-9.486-1.517c1.262.136 2.572.205 3.88.205 1.305 0 2.615-.07 3.882-.205v1.517H12.18v-1.517zm3.88-8.032c1.605 2.488 3.96 4.35 6.66 5.328-1.97.438-4.26.673-6.66.673-2.4 0-4.69-.235-6.66-.672 2.7-.977 5.053-2.84 6.66-5.325zm-4.968 7.9v1.654h-.636v-1.748l.635.097zm-2.307 3.89h14.55l1.82.76-.222.08c-2.354.84-5.505 1.3-8.873 1.3-3.367 0-6.52-.46-8.872-1.3l-.223-.08 1.82-.76zm3.272 4.16c-1.06.49-2.03 1.17-2.87 2.02v-2.47c.912.192 1.876.344 2.87.454zm-2.87 3.696c1.67-2.19 4.164-3.444 6.872-3.444 2.706 0 5.2 1.255 6.873 3.446v1.566c-1.36-2.466-3.93-4.135-6.874-4.135-2.944 0-5.514 1.67-6.875 4.137V25.17zm13.745-1.674c-.84-.85-1.813-1.53-2.87-2.017.992-.11 1.956-.262 2.87-.454v2.473zM7.39 20.568l.715.198v9.006H7.39V20.57zm1.92 9.205c.464-3.417 3.315-6.057 6.753-6.057s6.288 2.64 6.753 6.058H9.31zm14.71-9.005l.716-.198v9.203h-.715v-9.006z" fill="#3A434E"/><path d="M30.547 69.77h-.684v-4c.146-.1.244-.272.244-.467s-.097-.367-.244-.467v-.744c.146-.1.244-.272.244-.467s-.097-.367-.244-.467v-.744c.146-.1.244-.272.244-.467 0-.197-.1-.37-.248-.47-.02-.292-.255-.525-.54-.525-.29 0-.52.233-.54.526-.15.1-.25.273-.25.47s.098.366.245.466v.744c-.147.1-.244.272-.244.467s.098.367.245.467v.744c-.147.1-.244.27-.244.467 0 .195.098.367.245.467v3.997H26.9V59.753c2.013-.943 3.293-2.224 3.293-3.83 0-.618-.486-1.12-1.084-1.12-.6 0-1.088.502-1.088 1.12 0 .21-.136.47-.42.754L23.95 55.15l-.12-.04v-2.23c1.388-.348 2.63-.797 3.643-1.346l.218-.122c1.55-.893 2.5-2.035 2.5-3.418 0-.618-.482-1.12-1.08-1.12-.6 0-1.085.502-1.085 1.12 0 .36-.396.863-1.243 1.377-.31-.006-.62-.03-.927-.063v-.888c0-.31-.242-.56-.542-.56-.3 0-.54.25-.54.56v.704c-3.33-.738-6.216-3.045-7.7-6.295-.09-.23-.25-.428-.47-.557v-1.71c0-.31-.24-.56-.54-.56-.3 0-.543.25-.543.56v1.71c-.23.134-.396.345-.48.588-1.49 3.235-4.367 5.53-7.687 6.266v-.705c0-.307-.243-.56-.54-.56-.3 0-.544.253-.544.56v.89c-.308.035-.618.056-.93.064C4.49 48.86 4.098 48.36 4.098 48c0-.62-.486-1.12-1.084-1.12-.6 0-1.084.5-1.084 1.12 0 1.383.95 2.525 2.5 3.42l.217.12c1.012.55 2.255.997 3.642 1.344v2.23l-.12.042-3.654 1.526c-.283-.282-.42-.543-.42-.753 0-.62-.485-1.12-1.083-1.12-.6 0-1.084.5-1.084 1.12 0 1.605 1.28 2.886 3.29 3.83v10.01H3.26v-4c.147-.1.243-.272.243-.467s-.098-.367-.245-.467v-.744c.148-.1.244-.272.244-.467s-.1-.367-.247-.467v-.744c.148-.1.244-.272.244-.467 0-.197-.1-.37-.25-.47-.017-.292-.25-.525-.54-.525-.29 0-.52.233-.54.526-.15.1-.246.273-.246.47s.097.366.244.466v.744c-.147.1-.244.272-.244.467s.097.367.244.467v.744c-.147.1-.244.27-.244.467 0 .195.097.367.244.467v3.997H1.46c-.598 0-1.084.5-1.084 1.12 0 .617.486 1.118 1.084 1.118h29.084c.6 0 1.084-.5 1.084-1.12s-.485-1.12-1.084-1.12zm-8.882-14.7h-.636v-1.65l.632-.097v1.748zm-9.486-1.517c1.262.136 2.572.205 3.88.205 1.305 0 2.615-.07 3.882-.205v1.517H12.18v-1.517zm3.88-8.032c1.605 2.488 3.96 4.35 6.66 5.328-1.97.438-4.26.673-6.66.673-2.4 0-4.69-.235-6.66-.672 2.7-.977 5.053-2.84 6.66-5.325zm-4.968 7.9v1.654h-.636v-1.748l.635.097zm-2.307 3.89h14.55l1.82.76-.222.08c-2.354.84-5.505 1.3-8.873 1.3-3.367 0-6.52-.46-8.872-1.3l-.223-.08 1.82-.76zm3.272 4.16c-1.06.49-2.03 1.17-2.87 2.02v-2.47c.912.192 1.876.344 2.87.454zm-2.87 3.696c1.67-2.19 4.164-3.444 6.872-3.444 2.706 0 5.2 1.255 6.873 3.446v1.566c-1.36-2.466-3.93-4.135-6.874-4.135-2.944 0-5.514 1.67-6.875 4.137V65.17zm13.745-1.674c-.84-.85-1.813-1.53-2.87-2.017.992-.11 1.956-.262 2.87-.454v2.473zM7.39 60.568l.715.198v9.006H7.39V60.57zm1.92 9.205c.464-3.417 3.315-6.057 6.753-6.057s6.288 2.64 6.753 6.058H9.31zm14.71-9.005l.716-.198v9.203h-.715v-9.006z" fill="#67737B"/><path d="M30.547 109.77h-.684v-3.998c.146-.1.244-.272.244-.467s-.097-.367-.244-.467v-.744c.146-.1.244-.272.244-.467s-.097-.367-.244-.467v-.744c.146-.1.244-.272.244-.467 0-.2-.1-.37-.248-.47-.02-.295-.255-.528-.54-.528-.29 0-.52.233-.54.526-.15.1-.25.272-.25.47s.098.365.245.465v.744c-.147.1-.244.27-.244.466s.098.367.245.467v.744c-.147.1-.244.27-.244.467 0 .196.098.368.245.468v3.998H26.9V99.752c2.013-.943 3.293-2.224 3.293-3.83 0-.618-.486-1.12-1.084-1.12-.6 0-1.088.502-1.088 1.12 0 .21-.136.47-.42.754L23.95 95.15l-.12-.04v-2.23c1.388-.348 2.63-.797 3.643-1.346l.218-.122c1.55-.893 2.5-2.035 2.5-3.418 0-.618-.482-1.12-1.08-1.12-.6 0-1.085.502-1.085 1.12 0 .36-.396.863-1.243 1.377-.31-.006-.62-.03-.927-.063v-.888c0-.31-.242-.56-.542-.56-.3 0-.54.25-.54.56v.704c-3.33-.738-6.216-3.045-7.7-6.295-.09-.23-.25-.428-.47-.557v-1.71c0-.31-.24-.56-.54-.56-.3 0-.543.25-.543.56v1.71c-.23.134-.396.345-.48.588-1.49 3.235-4.367 5.53-7.687 6.266v-.705c0-.307-.243-.56-.54-.56-.3 0-.544.253-.544.56v.89c-.308.035-.618.056-.93.064C4.49 88.86 4.098 88.36 4.098 88c0-.62-.486-1.12-1.084-1.12-.6 0-1.084.5-1.084 1.12 0 1.383.95 2.525 2.5 3.42l.217.12c1.012.55 2.255.997 3.642 1.344v2.23l-.12.042-3.654 1.526c-.283-.282-.42-.543-.42-.753 0-.62-.485-1.12-1.083-1.12-.6 0-1.084.5-1.084 1.12 0 1.605 1.28 2.886 3.29 3.83v10.014H3.26v-4c.147-.1.243-.27.243-.466s-.098-.367-.245-.467v-.744c.148-.1.244-.272.244-.467s-.1-.368-.247-.468v-.744c.148-.1.244-.272.244-.467 0-.197-.1-.37-.25-.47-.017-.292-.25-.525-.54-.525-.29 0-.52.233-.54.526-.15.1-.246.273-.246.47s.097.366.244.466v.744c-.147.1-.244.27-.244.465s.097.367.244.467v.744c-.147.1-.244.27-.244.467 0 .195.097.367.244.467v3.998H1.46c-.598 0-1.084.5-1.084 1.12 0 .617.486 1.118 1.084 1.118h29.084c.6 0 1.084-.5 1.084-1.12s-.485-1.12-1.084-1.12zm-8.882-14.7h-.636v-1.65l.632-.097v1.748zm-9.486-1.517c1.262.136 2.572.205 3.88.205 1.305 0 2.615-.07 3.882-.205v1.517H12.18v-1.517zm3.88-8.032c1.605 2.488 3.96 4.35 6.66 5.328-1.97.438-4.26.673-6.66.673-2.4 0-4.69-.235-6.66-.672 2.7-.977 5.053-2.84 6.66-5.325zm-4.968 7.9v1.654h-.636v-1.748l.635.097zm-2.307 3.89h14.55l1.82.76-.222.08c-2.354.84-5.505 1.3-8.873 1.3-3.367 0-6.52-.46-8.872-1.3l-.223-.08 1.82-.76zm3.272 4.16c-1.06.49-2.03 1.17-2.87 2.02v-2.47c.912.19 1.876.343 2.87.453zm-2.87 3.696c1.67-2.19 4.164-3.444 6.872-3.444 2.706 0 5.2 1.255 6.873 3.446v1.566c-1.36-2.466-3.93-4.135-6.874-4.135-2.944 0-5.514 1.67-6.875 4.137v-1.566zm13.745-1.674c-.84-.85-1.813-1.53-2.87-2.017.992-.11 1.956-.262 2.87-.454v2.473zM7.39 100.568l.715.198v9.006H7.39v-9.203zm1.92 9.205c.464-3.417 3.315-6.057 6.753-6.057s6.288 2.64 6.753 6.058H9.31zm14.71-9.005l.716-.198v9.203h-.715v-9.006z" fill="#fff"/><path d="M30.547 149.77h-.684v-3.998c.146-.1.244-.272.244-.467s-.097-.367-.244-.467v-.744c.146-.1.244-.272.244-.467s-.097-.367-.244-.467v-.744c.146-.1.244-.272.244-.467 0-.2-.1-.37-.248-.47-.02-.295-.255-.528-.54-.528-.29 0-.52.233-.54.526-.15.1-.25.272-.25.47s.098.365.245.465v.744c-.147.1-.244.27-.244.466s.098.367.245.467v.744c-.147.1-.244.27-.244.467 0 .196.098.368.245.468v3.998H26.9V139.75c2.013-.942 3.293-2.223 3.293-3.83 0-.617-.486-1.12-1.084-1.12-.6 0-1.088.503-1.088 1.12 0 .21-.136.47-.42.755l-3.653-1.526-.12-.04v-2.234c1.387-.348 2.63-.797 3.642-1.346l.218-.12c1.55-.894 2.5-2.036 2.5-3.42 0-.617-.483-1.12-1.08-1.12-.6 0-1.086.503-1.086 1.12 0 .36-.396.864-1.243 1.378-.31-.008-.62-.03-.926-.065v-.888c0-.308-.242-.56-.542-.56-.3 0-.54.252-.54.56v.705c-3.33-.738-6.216-3.045-7.7-6.295-.09-.228-.25-.427-.47-.556v-1.71c0-.31-.24-.56-.54-.56-.3 0-.543.25-.543.56v1.71c-.23.13-.397.342-.48.585-1.49 3.234-4.368 5.53-7.688 6.265v-.704c0-.308-.243-.56-.54-.56-.3 0-.544.252-.544.56v.888c-.307.036-.617.057-.928.065-.85-.516-1.244-1.018-1.244-1.378 0-.618-.486-1.12-1.084-1.12-.6 0-1.084.502-1.084 1.12 0 1.384.952 2.526 2.5 3.42l.218.12c1.012.55 2.255.998 3.642 1.345v2.23l-.12.04-3.653 1.527c-.283-.283-.42-.544-.42-.754 0-.617-.485-1.12-1.083-1.12-.6 0-1.084.503-1.084 1.12 0 1.607 1.28 2.888 3.29 3.83v10.016h-1.96v-3.998c.148-.1.244-.272.244-.467s-.098-.365-.245-.465v-.744c.148-.1.244-.27.244-.466s-.1-.367-.246-.467v-.744c.148-.1.244-.272.244-.467 0-.197-.1-.37-.25-.47-.016-.292-.25-.525-.538-.525-.29 0-.52.234-.54.527-.15.1-.247.273-.247.47s.097.366.244.466v.744c-.147.1-.244.272-.244.467s.097.367.244.467v.745c-.147.1-.244.27-.244.467 0 .196.097.368.244.468v3.997H1.46c-.598 0-1.084.5-1.084 1.12 0 .617.486 1.118 1.084 1.118h29.084c.6 0 1.084-.5 1.084-1.12s-.485-1.12-1.084-1.12zm-8.882-14.698h-.636v-1.652l.632-.097v1.748zm-9.486-1.517c1.262.136 2.572.205 3.88.205 1.305 0 2.615-.07 3.882-.205v1.517H12.18v-1.517zm3.88-8.032c1.605 2.485 3.96 4.348 6.66 5.325-1.97.438-4.26.673-6.66.673-2.4 0-4.69-.232-6.66-.67 2.7-.976 5.053-2.84 6.66-5.324zm-4.968 7.898v1.656h-.636v-1.748l.635.097zm-2.307 3.89h14.55l1.82.76-.222.085c-2.354.838-5.505 1.3-8.873 1.3-3.367 0-6.52-.46-8.872-1.3l-.223-.08 1.82-.76zm3.272 4.165c-1.06.486-2.03 1.166-2.87 2.02v-2.474c.912.19 1.876.344 2.87.454zm-2.87 3.693c1.67-2.19 4.164-3.444 6.872-3.444 2.706 0 5.2 1.254 6.873 3.445v1.565c-1.36-2.467-3.93-4.136-6.874-4.136-2.944 0-5.514 1.67-6.875 4.137v-1.566zm13.745-1.674c-.84-.852-1.813-1.532-2.87-2.018.992-.11 1.956-.262 2.87-.454v2.474zM7.39 140.567l.715.198v9.006H7.39v-9.202zm1.92 9.205c.464-3.417 3.315-6.057 6.753-6.057s6.288 2.64 6.753 6.058H9.31zm14.71-9.005l.716-.198v9.202h-.715v-9.006z" fill="#206FAC"/></g></svg>