<svg width="32" height="232" viewBox="0 0 32 232" xmlns="http://www.w3.org/2000/svg"><title>dubrovnik</title><desc>Created with Sketch.</desc><g fill="none"><path d="M18.352 146.43c.458 0 .71-.096.91-.173.167-.064.287-.11.57-.11.26 0 .47-.207.47-.462s-.21-.462-.47-.462c-.46 0-.71.096-.912.174-.167.064-.287.11-.568.11-.28 0-.4-.047-.567-.11-.202-.078-.453-.174-.91-.174-.46 0-.71.096-.912.174-.166.064-.286.11-.567.11-.28 0-.4-.047-.568-.11-.202-.078-.452-.174-.91-.174-.46 0-.71.096-.912.174-.167.064-.287.11-.568.11-.28 0-.4-.047-.567-.11-.2-.078-.45-.174-.91-.174-.458 0-.71.096-.91.174-.168.064-.288.11-.57.11-.28 0-.4-.047-.566-.11-.202-.078-.452-.174-.91-.174s-.71.096-.912.174c-.167.064-.287.11-.568.11-.28 0-.4-.047-.567-.11-.202-.078-.452-.174-.91-.174s-.71.096-.912.174c-.166.064-.287.11-.567.11-.28 0-.4-.047-.568-.11-.202-.078-.452-.174-.91-.174-.262 0-.473.207-.473.462 0 .256.21.462.472.462.28 0 .4.046.566.11.202.077.452.173.91.173.46 0 .71-.096.912-.173.166-.064.287-.11.568-.11.28 0 .4.046.567.11.202.077.452.173.91.173.46 0 .71-.096.912-.173.167-.064.287-.11.568-.11.28 0 .4.046.567.11.202.077.452.173.91.173s.71-.096.912-.173c.166-.064.286-.11.567-.11.28 0 .4.046.566.11.202.077.452.173.91.173s.71-.096.912-.173c.166-.064.287-.11.568-.11.28 0 .4.046.567.11.202.077.453.173.91.173s.71-.096.912-.173c.166-.064.287-.11.568-.11.28 0 .4.046.568.11.202.077.453.173.912.173m-1.314-21.46h.21c-.033.112-.052.23-.052.35 0 .703.583 1.274 1.3 1.274h8.463c.315 0 .62-.114.858-.32.28-.24.44-.59.44-.954 0-.365-.16-.713-.44-.955-.238-.205-.543-.318-.86-.318h-4.83l.015-.174c0-.315-.138-.615-.38-.824-.205-.178-.47-.276-.74-.276h-3.986c-.618 0-1.12.493-1.12 1.098 0 .606.502 1.098 1.12 1.098zm0-1.27h3.985l.116.043.06.13-.06.13-.117.043h-.002c-.26 0-.47.207-.47.462s.21.463.47.463h5.94c.11 0 .19.05.235.09.045.038.122.124.122.26s-.076.223-.12.26c-.047.04-.126.09-.236.09H18.5c-.197 0-.356-.158-.356-.35 0-.193.16-.35.356-.35.26 0 .472-.207.472-.462h.002c0-.255-.21-.462-.472-.462h-1.46c-.098 0-.178-.078-.178-.174 0-.095.08-.174.177-.174zM2.863 143.71c.166-.064.286-.11.567-.11.28 0 .4.046.567.11.202.077.452.174.91.174.46 0 .71-.096.91-.174.167-.064.288-.11.57-.11.28 0 .4.046.567.11.202.077.452.174.91.174.46 0 .71-.096.912-.174.167-.064.287-.11.568-.11.28 0 .4.046.568.11.2.077.452.174.91.174.46 0 .71-.096.91-.174.167-.064.287-.11.568-.11.28 0 .4.046.568.11.2.077.452.174.91.174.46 0 .71-.096.912-.174.166-.064.287-.11.567-.11.28 0 .4.046.567.11.202.077.453.174.91.174s.71-.096.912-.174c.166-.064.287-.11.568-.11.28 0 .4.046.568.11.2.077.452.174.91.174.46 0 .71-.096.912-.174.166-.064.286-.11.567-.11.282 0 .402.046.57.11.2.077.45.174.91.174s.71-.096.91-.174c.167-.064.288-.11.57-.11h.047c-.09.62-.142 1.302-.142 2.048 0 .255.21.463.47.463h3.43c.262 0 .473-.207.473-.462v-1.77l.157.006c.458 0 .71-.096.912-.174.166-.064.287-.11.568-.11.28 0 .4.046.568.11.202.077.452.174.91.174.262 0 .473-.208.473-.463s-.21-.46-.472-.46l-.26-.02c.042-.106.066-.22.066-.343v-2.36c0-.48-.374-.876-.856-.92v-.894c0-.255-.21-.462-.472-.462s-.47.208-.47.463v.846l-1.123-.055v-3.065c0-.255-.212-.463-.473-.463s-.472.208-.472.463v1.692c-.286.17-.844.555-1.428 1.26l-10.118-.487v-2.582h3.338v.65c0 .255.21.462.472.462h1.793c.26 0 .472-.207.472-.462v-1.262h2.123c.26 0 .472-.206.472-.46v-.126h5.38v1.727c0 .256.21.463.47.463s.473-.207.473-.462v-2.19c0-.254-.21-.46-.472-.46H24.12c-.26 0-.472.206-.472.46v.126h-2.123c-.26 0-.472.207-.472.462v1.262h-.848v-.65c0-.255-.21-.462-.472-.462h-3.81v-4.1h2.784v.124c0 .255.21.462.472.462H21.3v1.262c0 .255.21.462.472.462h1.793c.26 0 .472-.207.472-.462v-.65h2.407c.26 0 .47-.208.47-.462v-1.59h3.304c.26 0 .472-.208.472-.464 0-.255-.21-.462-.472-.462h-3.775c-.26 0-.472.207-.472.462v1.59h-2.406c-.26 0-.472.208-.472.463v.65h-.85v-1.262c0-.254-.21-.46-.47-.46h-2.125v-.126c0-.256-.21-.463-.472-.463H15.92v-.094l-.002-.007v-1.13h.02c.26 0 .472-.207.472-.462v-1.498c0-.255-.21-.462-.472-.462H13.93c-.26 0-.472.207-.472.462v.403h-.382v-.403c0-.255-.21-.462-.472-.462H10.95c-.26 0-.472.207-.472.462v.403h-.382v-.403c0-.255-.21-.462-.472-.462H7.97c-.262 0-.473.207-.473.462v.403h-.382v-.403c0-.255-.21-.462-.472-.462H4.988c-.26 0-.472.207-.472.462v.403h-.382v-.403c0-.255-.212-.462-.472-.462H1.664c-.26 0-.472.207-.472.462v1.498c0 .255.21.463.472.463h.077v11.837l-.776 2.032c-.134-.028-.294-.047-.496-.047-.26 0-.472.208-.472.462 0 .255.21.462.472.462.28 0 .4.046.568.11.2.077.452.174.91.174.46 0 .71-.095.912-.173zm-.723-16.355h1.054v.403c0 .255.21.462.472.462h1.326c.26 0 .472-.208.472-.462v-.403h.71v.403c0 .255.212.462.473.462h1.325c.26 0 .472-.208.472-.462v-.403h.71v.403c0 .255.212.462.473.462h1.325c.26 0 .472-.208.472-.462v-.403h.71v.403c0 .255.212.462.473.462h1.326c.26 0 .472-.208.472-.462v-.403h1.065v.573h-.02c-.26 0-.472.207-.472.462v.674c-.52 0-.943.414-.943.924v9.508c0 .493.395.9.897.924l.046.002.472.023.47.023 9.017.432c-.107.24-.208.498-.3.772H3.634v-11.684c0-.51-.423-.924-.944-.924v-.674c0-.255-.21-.462-.472-.462H2.14v-.573zm25.122 11.806l.206-.18v6.207h-2.48c.016-.483.054-.933.112-1.352l.047-.312.116-.6.078-.325c.088-.333.186-.64.294-.925.1-.26.205-.502.315-.723.17-.343.354-.642.537-.9.267-.376.536-.668.774-.89zm2.184 2.513h-1.034v-.605l1.034.05v.556zm2.022 6.807c-.407 0-.59-.07-.82-.16l-.212-.076c.86-.442 1.094-.948 1.132-1.044.055-.143.036-.302-.052-.427-.09-.125-.234-.2-.39-.2H22.31c-.156 0-.302.075-.39.2-.087.125-.107.285-.05.427.044.114.363.805 1.676 1.28h-.016c-.407 0-.59-.07-.82-.16-.272-.103-.58-.22-1.165-.22s-.893.118-1.164.22c-.23.09-.412.16-.82.16-.407 0-.59-.07-.82-.16-.273-.103-.58-.22-1.165-.22-.26 0-.472.207-.472.462 0 .256.21.462.472.462.408 0 .59.07.82.16.273.103.58.22 1.165.22s.893-.118 1.164-.22c.23-.09.414-.16.82-.16s.59.07.82.16c.273.103.58.22 1.165.22s.892-.118 1.163-.22c.23-.09.413-.16.82-.16.408 0 .59.07.82.16.273.103.58.22 1.165.22s.893-.118 1.164-.22c.23-.09.413-.16.82-.16.408 0 .59.07.822.16.272.103.58.22 1.164.22.26 0 .472-.207.472-.462s-.21-.462-.472-.462zm-1.615-.983c-.585.265-1.554.513-3.136.513-1.57 0-2.54-.247-3.127-.513h6.262zm-23.42-12.47c-.018-.373-.332-.67-.72-.67-.385 0-.7.297-.718.67v.44h1.437v-.44zm3.017 0c-.018-.373-.333-.67-.72-.67-.385 0-.7.297-.718.67v.44H9.45v-.44zm3.017 0c-.018-.373-.332-.67-.718-.67-.387 0-.702.297-.72.67v.44h1.437v-.44zm-6.034-2.297c-.018-.373-.332-.67-.72-.67-.385 0-.7.297-.718.67v.44h1.437v-.44zm3.017 0c-.018-.373-.333-.67-.72-.67-.385 0-.7.297-.718.67v.44H9.45v-.44zm3.017 0c-.008-.177-.084-.337-.202-.457-.13-.132-.313-.214-.516-.214s-.386.08-.517.213c-.118.12-.194.28-.203.457v.44h1.437v-.44zm-6.034-2.21c-.01-.218-.12-.41-.288-.532-.12-.09-.27-.14-.43-.14-.163 0-.312.05-.432.14-.166.122-.277.313-.288.53v.44h1.437v-.44zm3.017 0c-.01-.218-.12-.41-.288-.532-.12-.09-.27-.14-.43-.14-.163 0-.312.05-.43.14-.168.122-.28.313-.29.53v.44H9.45v-.44zm3.017.44v-.44l-.032-.178c-.046-.143-.136-.265-.255-.353-.12-.09-.268-.142-.43-.142-.162 0-.31.052-.43.14-.167.123-.28.314-.29.532v.44h1.438zm-6.034 6.265c-.018-.373-.332-.67-.72-.67-.385 0-.7.297-.718.67v.44h1.437v-.44zm3.017 0c-.018-.373-.333-.67-.72-.67-.385 0-.7.297-.718.67v.44H9.45v-.44zm3.017 0c-.018-.373-.332-.67-.718-.67-.387 0-.702.297-.72.67v.44h1.437v-.44zm-6.034 2.197c-.018-.373-.332-.67-.72-.67-.385 0-.7.297-.718.67v.44h1.437v-.44zm3.017 0c-.018-.373-.333-.67-.72-.67-.385 0-.7.297-.718.67v.44H9.45v-.44zm3.017 0c-.018-.373-.332-.67-.718-.67-.387 0-.702.297-.72.67v.44h1.437v-.44z" fill="#206FAC"/><path d="M18.352 106.43c.458 0 .71-.096.91-.173.167-.064.287-.11.57-.11.26 0 .47-.207.47-.462s-.21-.462-.47-.462c-.46 0-.71.096-.912.174-.167.064-.287.11-.568.11-.28 0-.4-.047-.567-.11-.202-.078-.453-.174-.91-.174-.46 0-.71.096-.912.174-.166.064-.286.11-.567.11-.28 0-.4-.047-.568-.11-.202-.078-.452-.174-.91-.174-.46 0-.71.096-.912.174-.167.064-.287.11-.568.11-.28 0-.4-.047-.567-.11-.2-.078-.45-.174-.91-.174-.458 0-.71.096-.91.174-.168.064-.288.11-.57.11-.28 0-.4-.047-.566-.11-.202-.078-.452-.174-.91-.174s-.71.096-.912.174c-.167.064-.287.11-.568.11-.28 0-.4-.047-.567-.11-.202-.078-.452-.174-.91-.174s-.71.096-.912.174c-.166.064-.287.11-.567.11-.28 0-.4-.047-.568-.11-.202-.078-.452-.174-.91-.174-.262 0-.473.207-.473.462 0 .256.21.462.472.462.28 0 .4.046.566.11.202.077.452.173.91.173.46 0 .71-.096.912-.173.166-.064.287-.11.568-.11.28 0 .4.046.567.11.202.077.452.173.91.173.46 0 .71-.096.912-.173.167-.064.287-.11.568-.11.28 0 .4.046.567.11.202.077.452.173.91.173s.71-.096.912-.173c.166-.064.286-.11.567-.11.28 0 .4.046.566.11.202.077.452.173.91.173s.71-.096.912-.173c.166-.064.287-.11.568-.11.28 0 .4.046.567.11.202.077.453.173.91.173s.71-.096.912-.173c.166-.064.287-.11.568-.11.28 0 .4.046.568.11.202.077.453.173.912.173m-1.314-21.46h.21c-.033.112-.052.23-.052.35 0 .703.583 1.274 1.3 1.274h8.463c.315 0 .62-.114.858-.32.28-.24.44-.59.44-.954 0-.365-.16-.713-.44-.955-.238-.205-.543-.318-.86-.318h-4.83l.015-.174c0-.315-.138-.615-.38-.824-.205-.178-.47-.276-.74-.276h-3.986c-.618 0-1.12.493-1.12 1.098 0 .606.502 1.098 1.12 1.098zm0-1.27h3.985l.116.043.06.13-.06.13-.117.043h-.002c-.26 0-.47.207-.47.462s.21.463.47.463h5.94c.11 0 .19.05.235.09.045.038.122.124.122.26s-.076.223-.12.26c-.047.04-.126.09-.236.09H18.5c-.197 0-.356-.158-.356-.35 0-.193.16-.35.356-.35.26 0 .472-.207.472-.462h.002c0-.255-.21-.462-.472-.462h-1.46c-.098 0-.178-.078-.178-.174 0-.095.08-.174.177-.174zM2.863 103.71c.166-.064.286-.11.567-.11.28 0 .4.046.567.11.202.077.452.174.91.174.46 0 .71-.096.91-.174.167-.064.288-.11.57-.11.28 0 .4.046.567.11.202.077.452.174.91.174.46 0 .71-.096.912-.174.167-.064.287-.11.568-.11.28 0 .4.046.568.11.2.077.452.174.91.174.46 0 .71-.096.91-.174.167-.064.287-.11.568-.11.28 0 .4.046.568.11.2.077.452.174.91.174.46 0 .71-.096.912-.174.166-.064.287-.11.567-.11.28 0 .4.046.567.11.202.077.453.174.91.174s.71-.096.912-.174c.166-.064.287-.11.568-.11.28 0 .4.046.568.11.2.077.452.174.91.174.46 0 .71-.096.912-.174.166-.064.286-.11.567-.11.282 0 .402.046.57.11.2.077.45.174.91.174s.71-.096.91-.174c.167-.064.288-.11.57-.11h.047c-.09.62-.142 1.302-.142 2.048 0 .255.21.463.47.463h3.43c.262 0 .473-.207.473-.462v-1.77l.157.006c.458 0 .71-.096.912-.174.166-.064.287-.11.568-.11.28 0 .4.046.568.11.202.077.452.174.91.174.262 0 .473-.208.473-.463s-.21-.46-.472-.46l-.26-.02c.042-.106.066-.22.066-.343v-2.36c0-.48-.374-.876-.856-.92v-.894c0-.255-.21-.462-.472-.462s-.47.208-.47.463v.846l-1.123-.055V96.15c0-.255-.212-.463-.473-.463s-.472.208-.472.463v1.692c-.286.17-.844.555-1.428 1.26l-10.118-.487v-2.582h3.338v.65c0 .255.21.462.472.462h1.793c.26 0 .472-.207.472-.462V95.42h2.123c.26 0 .472-.206.472-.46v-.126h5.38v1.727c0 .256.21.463.47.463s.473-.207.473-.462v-2.19c0-.254-.21-.46-.472-.46H24.12c-.26 0-.472.206-.472.46v.126h-2.123c-.26 0-.472.207-.472.462v1.262h-.848v-.65c0-.255-.21-.462-.472-.462h-3.81v-4.1h2.784v.124c0 .255.21.462.472.462H21.3v1.262c0 .255.21.462.472.462h1.793c.26 0 .472-.207.472-.462v-.65h2.407c.26 0 .47-.208.47-.462v-1.59h3.304c.26 0 .472-.208.472-.464 0-.255-.21-.462-.472-.462h-3.775c-.26 0-.472.207-.472.462v1.59h-2.406c-.26 0-.472.208-.472.463v.65h-.85V91.13c0-.254-.21-.46-.47-.46h-2.125v-.126c0-.256-.21-.463-.472-.463H15.92v-.094l-.002-.007v-1.13h.02c.26 0 .472-.207.472-.462V86.89c0-.255-.21-.462-.472-.462H13.93c-.26 0-.472.207-.472.462v.403h-.382v-.403c0-.255-.21-.462-.472-.462H10.95c-.26 0-.472.207-.472.462v.403h-.382v-.403c0-.255-.21-.462-.472-.462H7.97c-.262 0-.473.207-.473.462v.403h-.382v-.403c0-.255-.21-.462-.472-.462H4.988c-.26 0-.472.207-.472.462v.403h-.382v-.403c0-.255-.212-.462-.472-.462H1.664c-.26 0-.472.207-.472.462v1.498c0 .255.21.463.472.463h.077v11.837l-.776 2.032c-.134-.028-.294-.047-.496-.047-.26 0-.472.208-.472.462 0 .255.21.462.472.462.28 0 .4.046.568.11.2.077.452.174.91.174.46 0 .71-.095.912-.173zM2.14 87.355h1.054v.403c0 .255.21.462.472.462h1.326c.26 0 .472-.208.472-.462v-.403h.71v.403c0 .255.212.462.473.462h1.325c.26 0 .472-.208.472-.462v-.403h.71v.403c0 .255.212.462.473.462h1.325c.26 0 .472-.208.472-.462v-.403h.71v.403c0 .255.212.462.473.462h1.326c.26 0 .472-.208.472-.462v-.403h1.065v.573h-.02c-.26 0-.472.207-.472.462v.674c-.52 0-.943.414-.943.924v9.508c0 .493.395.9.897.924l.046.002.472.023.47.023 9.017.432c-.107.24-.208.498-.3.772H3.634V89.988c0-.51-.423-.924-.944-.924v-.674c0-.255-.21-.462-.472-.462H2.14v-.573zM27.262 99.16l.206-.18v6.207h-2.48c.016-.483.054-.933.112-1.352l.047-.312.116-.6.078-.325c.088-.333.186-.64.294-.925.1-.26.205-.502.315-.723.17-.343.354-.642.537-.9.267-.376.536-.668.774-.89zm2.184 2.513h-1.034v-.605l1.034.05v.556zm2.022 6.807c-.407 0-.59-.07-.82-.16l-.212-.076c.86-.442 1.094-.948 1.132-1.044.055-.143.036-.302-.052-.427-.09-.125-.234-.2-.39-.2H22.31c-.156 0-.302.075-.39.2-.087.125-.107.285-.05.427.044.114.363.805 1.676 1.28h-.016c-.407 0-.59-.07-.82-.16-.272-.103-.58-.22-1.165-.22s-.893.118-1.164.22c-.23.09-.412.16-.82.16-.407 0-.59-.07-.82-.16-.273-.103-.58-.22-1.165-.22-.26 0-.472.207-.472.462 0 .256.21.462.472.462.408 0 .59.07.82.16.273.103.58.22 1.165.22s.893-.118 1.164-.22c.23-.09.414-.16.82-.16s.59.07.82.16c.273.103.58.22 1.165.22s.892-.118 1.163-.22c.23-.09.413-.16.82-.16.408 0 .59.07.82.16.273.103.58.22 1.165.22s.893-.118 1.164-.22c.23-.09.413-.16.82-.16.408 0 .59.07.822.16.272.103.58.22 1.164.22.26 0 .472-.207.472-.462s-.21-.462-.472-.462zm-1.615-.983c-.585.265-1.554.513-3.136.513-1.57 0-2.54-.247-3.127-.513h6.262zm-23.42-12.47c-.018-.373-.332-.67-.72-.67-.385 0-.7.297-.718.67v.44h1.437v-.44zm3.017 0c-.018-.373-.333-.67-.72-.67-.385 0-.7.297-.718.67v.44H9.45v-.44zm3.017 0c-.018-.373-.332-.67-.718-.67-.387 0-.702.297-.72.67v.44h1.437v-.44zM6.433 92.73c-.018-.373-.332-.67-.72-.67-.385 0-.7.297-.718.67v.44h1.437v-.44zm3.017 0c-.018-.373-.333-.67-.72-.67-.385 0-.7.297-.718.67v.44H9.45v-.44zm3.017 0c-.008-.177-.084-.337-.202-.457-.13-.132-.313-.214-.516-.214s-.386.08-.517.213c-.118.12-.194.28-.203.457v.44h1.437v-.44zm-6.034-2.21c-.01-.218-.12-.41-.288-.532-.12-.09-.27-.14-.43-.14-.163 0-.312.05-.432.14-.166.122-.277.313-.288.53v.44h1.437v-.44zm3.017 0c-.01-.218-.12-.41-.288-.532-.12-.09-.27-.14-.43-.14-.163 0-.312.05-.43.14-.168.122-.28.313-.29.53v.44H9.45v-.44zm3.017.44v-.44l-.032-.178c-.046-.143-.136-.265-.255-.353-.12-.09-.268-.142-.43-.142-.162 0-.31.052-.43.14-.167.123-.28.314-.29.532v.44h1.438zm-6.034 6.265c-.018-.373-.332-.67-.72-.67-.385 0-.7.297-.718.67v.44h1.437v-.44zm3.017 0c-.018-.373-.333-.67-.72-.67-.385 0-.7.297-.718.67v.44H9.45v-.44zm3.017 0c-.018-.373-.332-.67-.718-.67-.387 0-.702.297-.72.67v.44h1.437v-.44zm-6.034 2.197c-.018-.373-.332-.67-.72-.67-.385 0-.7.297-.718.67v.44h1.437v-.44zm3.017 0c-.018-.373-.333-.67-.72-.67-.385 0-.7.297-.718.67v.44H9.45v-.44zm3.017 0c-.018-.373-.332-.67-.718-.67-.387 0-.702.297-.72.67v.44h1.437v-.44z" fill="#fff"/><path d="M18.352 66.43c.458 0 .71-.096.91-.173.167-.064.287-.11.57-.11.26 0 .47-.207.47-.462s-.21-.462-.47-.462c-.46 0-.71.096-.912.174-.167.064-.287.11-.568.11-.28 0-.4-.047-.567-.11-.202-.078-.453-.174-.91-.174-.46 0-.71.096-.912.174-.166.064-.286.11-.567.11-.28 0-.4-.047-.568-.11-.202-.078-.452-.174-.91-.174-.46 0-.71.096-.912.174-.167.064-.287.11-.568.11-.28 0-.4-.047-.567-.11-.2-.078-.45-.174-.91-.174-.458 0-.71.096-.91.174-.168.064-.288.11-.57.11-.28 0-.4-.047-.566-.11-.202-.078-.452-.174-.91-.174s-.71.096-.912.174c-.167.064-.287.11-.568.11-.28 0-.4-.047-.567-.11-.202-.078-.452-.174-.91-.174s-.71.096-.912.174c-.166.064-.287.11-.567.11-.28 0-.4-.047-.568-.11-.202-.078-.452-.174-.91-.174-.262 0-.473.207-.473.462 0 .256.21.462.472.462.28 0 .4.046.566.11.202.077.452.173.91.173.46 0 .71-.096.912-.173.166-.064.287-.11.568-.11.28 0 .4.046.567.11.202.077.452.173.91.173.46 0 .71-.096.912-.173.167-.064.287-.11.568-.11.28 0 .4.046.567.11.202.077.452.173.91.173s.71-.096.912-.173c.166-.064.286-.11.567-.11.28 0 .4.046.566.11.202.077.452.173.91.173s.71-.096.912-.173c.166-.064.287-.11.568-.11.28 0 .4.046.567.11.202.077.453.173.91.173s.71-.096.912-.173c.166-.064.287-.11.568-.11.28 0 .4.046.568.11.202.077.453.173.912.173m-1.314-21.46h.21c-.033.112-.052.23-.052.35 0 .703.583 1.274 1.3 1.274h8.463c.315 0 .62-.114.858-.32.28-.24.44-.59.44-.954 0-.365-.16-.713-.44-.955-.238-.205-.543-.318-.86-.318h-4.83l.015-.174c0-.315-.138-.615-.38-.824-.205-.178-.47-.276-.74-.276h-3.986c-.618 0-1.12.493-1.12 1.098 0 .606.502 1.098 1.12 1.098zm0-1.27h3.985l.116.043.06.13-.06.13-.117.043h-.002c-.26 0-.47.207-.47.462s.21.463.47.463h5.94c.11 0 .19.05.235.09.045.038.122.124.122.26s-.076.223-.12.26c-.047.04-.126.09-.236.09H18.5c-.197 0-.356-.158-.356-.35 0-.193.16-.35.356-.35.26 0 .472-.207.472-.462h.002c0-.255-.21-.462-.472-.462h-1.46c-.098 0-.178-.078-.178-.174 0-.095.08-.174.177-.174zM2.863 63.71c.166-.064.286-.11.567-.11.28 0 .4.046.567.11.202.077.452.174.91.174.46 0 .71-.096.91-.174.167-.064.288-.11.57-.11.28 0 .4.046.567.11.202.077.452.174.91.174.46 0 .71-.096.912-.174.167-.064.287-.11.568-.11.28 0 .4.046.568.11.2.077.452.174.91.174.46 0 .71-.096.91-.174.167-.064.287-.11.568-.11.28 0 .4.046.568.11.2.077.452.174.91.174.46 0 .71-.096.912-.174.166-.064.287-.11.567-.11.28 0 .4.046.567.11.202.077.453.174.91.174s.71-.096.912-.174c.166-.064.287-.11.568-.11.28 0 .4.046.568.11.2.077.452.174.91.174.46 0 .71-.096.912-.174.166-.064.286-.11.567-.11.282 0 .402.046.57.11.2.077.45.174.91.174s.71-.096.91-.174c.167-.064.288-.11.57-.11h.047c-.09.62-.142 1.302-.142 2.048 0 .255.21.463.47.463h3.43c.262 0 .473-.207.473-.462v-1.77l.157.006c.458 0 .71-.096.912-.174.166-.064.287-.11.568-.11.28 0 .4.046.568.11.202.077.452.174.91.174.262 0 .473-.208.473-.463s-.21-.46-.472-.46l-.26-.02c.042-.106.066-.22.066-.343v-2.36c0-.48-.374-.876-.856-.92v-.894c0-.255-.21-.462-.472-.462s-.47.208-.47.463v.846l-1.123-.055V56.15c0-.255-.212-.463-.473-.463s-.472.208-.472.463v1.692c-.286.17-.844.555-1.428 1.26l-10.118-.487v-2.582h3.338v.65c0 .255.21.462.472.462h1.793c.26 0 .472-.207.472-.462V55.42h2.123c.26 0 .472-.206.472-.46v-.126h5.38v1.727c0 .256.21.463.47.463s.473-.207.473-.462v-2.19c0-.254-.21-.46-.472-.46H24.12c-.26 0-.472.206-.472.46v.126h-2.123c-.26 0-.472.207-.472.462v1.262h-.848v-.65c0-.255-.21-.462-.472-.462h-3.81v-4.1h2.784v.124c0 .255.21.462.472.462H21.3v1.262c0 .255.21.462.472.462h1.793c.26 0 .472-.207.472-.462v-.65h2.407c.26 0 .47-.208.47-.462v-1.59h3.304c.26 0 .472-.208.472-.464 0-.255-.21-.462-.472-.462h-3.775c-.26 0-.472.207-.472.462v1.59h-2.406c-.26 0-.472.208-.472.463v.65h-.85V51.13c0-.254-.21-.46-.47-.46h-2.125v-.126c0-.256-.21-.463-.472-.463H15.92v-.094l-.002-.007v-1.13h.02c.26 0 .472-.207.472-.462V46.89c0-.255-.21-.462-.472-.462H13.93c-.26 0-.472.207-.472.462v.403h-.382v-.403c0-.255-.21-.462-.472-.462H10.95c-.26 0-.472.207-.472.462v.403h-.382v-.403c0-.255-.21-.462-.472-.462H7.97c-.262 0-.473.207-.473.462v.403h-.382v-.403c0-.255-.21-.462-.472-.462H4.988c-.26 0-.472.207-.472.462v.403h-.382v-.403c0-.255-.212-.462-.472-.462H1.664c-.26 0-.472.207-.472.462v1.498c0 .255.21.463.472.463h.077v11.837L.965 62.72c-.134-.028-.294-.047-.496-.047-.26 0-.472.208-.472.462 0 .255.21.462.472.462.28 0 .4.046.568.11.2.077.452.174.91.174.46 0 .71-.095.912-.173zM2.14 47.355h1.054v.403c0 .255.21.462.472.462h1.326c.26 0 .472-.208.472-.462v-.403h.71v.403c0 .255.212.462.473.462h1.325c.26 0 .472-.208.472-.462v-.403h.71v.403c0 .255.212.462.473.462h1.325c.26 0 .472-.208.472-.462v-.403h.71v.403c0 .255.212.462.473.462h1.326c.26 0 .472-.208.472-.462v-.403h1.065v.573h-.02c-.26 0-.472.207-.472.462v.674c-.52 0-.943.414-.943.924v9.508c0 .493.395.9.897.924l.046.002.472.023.47.023 9.017.432c-.107.24-.208.498-.3.772H3.634V49.988c0-.51-.423-.924-.944-.924v-.674c0-.255-.21-.462-.472-.462H2.14v-.573zM27.262 59.16l.206-.18v6.207h-2.48c.016-.483.054-.933.112-1.352l.047-.312.116-.6.078-.325c.088-.333.186-.64.294-.925.1-.26.205-.502.315-.723.17-.343.354-.642.537-.9.267-.376.536-.668.774-.89zm2.184 2.513h-1.034v-.605l1.034.05v.556zm2.022 6.807c-.407 0-.59-.07-.82-.16l-.212-.076c.86-.442 1.094-.948 1.132-1.044.055-.143.036-.302-.052-.427-.09-.125-.234-.2-.39-.2H22.31c-.156 0-.302.075-.39.2-.087.125-.107.285-.05.427.044.114.363.805 1.676 1.28h-.016c-.407 0-.59-.07-.82-.16-.272-.103-.58-.22-1.165-.22s-.893.118-1.164.22c-.23.09-.412.16-.82.16-.407 0-.59-.07-.82-.16-.273-.103-.58-.22-1.165-.22-.26 0-.472.207-.472.462 0 .256.21.462.472.462.408 0 .59.07.82.16.273.103.58.22 1.165.22s.893-.118 1.164-.22c.23-.09.414-.16.82-.16s.59.07.82.16c.273.103.58.22 1.165.22s.892-.118 1.163-.22c.23-.09.413-.16.82-.16.408 0 .59.07.82.16.273.103.58.22 1.165.22s.893-.118 1.164-.22c.23-.09.413-.16.82-.16.408 0 .59.07.822.16.272.103.58.22 1.164.22.26 0 .472-.207.472-.462s-.21-.462-.472-.462zm-1.615-.983c-.585.265-1.554.513-3.136.513-1.57 0-2.54-.247-3.127-.513h6.262zm-23.42-12.47c-.018-.373-.332-.67-.72-.67-.385 0-.7.297-.718.67v.44h1.437v-.44zm3.017 0c-.018-.373-.333-.67-.72-.67-.385 0-.7.297-.718.67v.44H9.45v-.44zm3.017 0c-.018-.373-.332-.67-.718-.67-.387 0-.702.297-.72.67v.44h1.437v-.44zM6.433 52.73c-.018-.373-.332-.67-.72-.67-.385 0-.7.297-.718.67v.44h1.437v-.44zm3.017 0c-.018-.373-.333-.67-.72-.67-.385 0-.7.297-.718.67v.44H9.45v-.44zm3.017 0c-.008-.177-.084-.337-.202-.457-.13-.132-.313-.214-.516-.214s-.386.08-.517.213c-.118.12-.194.28-.203.457v.44h1.437v-.44zm-6.034-2.21c-.01-.218-.12-.41-.288-.532-.12-.09-.27-.14-.43-.14-.163 0-.312.05-.432.14-.166.122-.277.313-.288.53v.44h1.437v-.44zm3.017 0c-.01-.218-.12-.41-.288-.532-.12-.09-.27-.14-.43-.14-.163 0-.312.05-.43.14-.168.122-.28.313-.29.53v.44H9.45v-.44zm3.017.44v-.44l-.032-.178c-.046-.143-.136-.265-.255-.353-.12-.09-.268-.142-.43-.142-.162 0-.31.052-.43.14-.167.123-.28.314-.29.532v.44h1.438zm-6.034 6.265c-.018-.373-.332-.67-.72-.67-.385 0-.7.297-.718.67v.44h1.437v-.44zm3.017 0c-.018-.373-.333-.67-.72-.67-.385 0-.7.297-.718.67v.44H9.45v-.44zm3.017 0c-.018-.373-.332-.67-.718-.67-.387 0-.702.297-.72.67v.44h1.437v-.44zm-6.034 2.197c-.018-.373-.332-.67-.72-.67-.385 0-.7.297-.718.67v.44h1.437v-.44zm3.017 0c-.018-.373-.333-.67-.72-.67-.385 0-.7.297-.718.67v.44H9.45v-.44zm3.017 0c-.018-.373-.332-.67-.718-.67-.387 0-.702.297-.72.67v.44h1.437v-.44z" fill="#67737B"/><path d="M18.352 26.43c.458 0 .71-.096.91-.173.167-.064.287-.11.57-.11.26 0 .47-.207.47-.462s-.21-.462-.47-.462c-.46 0-.71.096-.912.174-.167.064-.287.11-.568.11-.28 0-.4-.047-.567-.11-.202-.078-.453-.174-.91-.174-.46 0-.71.096-.912.174-.166.064-.286.11-.567.11-.28 0-.4-.047-.568-.11-.202-.078-.452-.174-.91-.174-.46 0-.71.096-.912.174-.167.064-.287.11-.568.11-.28 0-.4-.047-.567-.11-.2-.078-.45-.174-.91-.174-.458 0-.71.096-.91.174-.168.064-.288.11-.57.11-.28 0-.4-.047-.566-.11-.202-.078-.452-.174-.91-.174s-.71.096-.912.174c-.167.064-.287.11-.568.11-.28 0-.4-.047-.567-.11-.202-.078-.452-.174-.91-.174s-.71.096-.912.174c-.166.064-.287.11-.567.11-.28 0-.4-.047-.568-.11-.202-.078-.452-.174-.91-.174-.262 0-.473.207-.473.462 0 .256.21.462.472.462.28 0 .4.046.566.11.202.077.452.173.91.173.46 0 .71-.096.912-.173.166-.064.287-.11.568-.11.28 0 .4.046.567.11.202.077.452.173.91.173.46 0 .71-.096.912-.173.167-.064.287-.11.568-.11.28 0 .4.046.567.11.202.077.452.173.91.173s.71-.096.912-.173c.166-.064.286-.11.567-.11.28 0 .4.046.566.11.202.077.452.173.91.173s.71-.096.912-.173c.166-.064.287-.11.568-.11.28 0 .4.046.567.11.202.077.453.173.91.173s.71-.096.912-.173c.166-.064.287-.11.568-.11.28 0 .4.046.568.11.202.077.453.173.912.173M17.038 4.97h.21c-.033.112-.052.23-.052.35 0 .703.583 1.274 1.3 1.274h8.463c.315 0 .62-.114.858-.32.28-.24.44-.59.44-.954 0-.365-.16-.713-.44-.955-.238-.205-.543-.318-.86-.318h-4.83l.015-.174c0-.315-.138-.615-.38-.824-.205-.178-.47-.276-.74-.276h-3.986c-.618 0-1.12.493-1.12 1.098 0 .606.502 1.098 1.12 1.098zm0-1.27h3.985l.116.043.06.13-.06.13-.117.043h-.002c-.26 0-.47.207-.47.462s.21.463.47.463h5.94c.11 0 .19.05.235.09.045.038.122.124.122.26s-.076.223-.12.26c-.047.04-.126.09-.236.09H18.5c-.197 0-.356-.158-.356-.35 0-.193.16-.35.356-.35.26 0 .472-.207.472-.462h.002c0-.255-.21-.462-.472-.462h-1.46c-.098 0-.178-.078-.178-.174 0-.095.08-.174.177-.174zM2.863 23.71c.166-.064.286-.11.567-.11.28 0 .4.046.567.11.202.077.452.174.91.174.46 0 .71-.096.91-.174.167-.064.288-.11.57-.11.28 0 .4.046.567.11.202.077.452.174.91.174.46 0 .71-.096.912-.174.167-.064.287-.11.568-.11.28 0 .4.046.568.11.2.077.452.174.91.174.46 0 .71-.096.91-.174.167-.064.287-.11.568-.11.28 0 .4.046.568.11.2.077.452.174.91.174.46 0 .71-.096.912-.174.166-.064.287-.11.567-.11.28 0 .4.046.567.11.202.077.453.174.91.174s.71-.096.912-.174c.166-.064.287-.11.568-.11.28 0 .4.046.568.11.2.077.452.174.91.174.46 0 .71-.096.912-.174.166-.064.286-.11.567-.11.282 0 .402.046.57.11.2.077.45.174.91.174s.71-.096.91-.174c.167-.064.288-.11.57-.11h.047c-.09.62-.142 1.302-.142 2.048 0 .255.21.463.47.463h3.43c.262 0 .473-.207.473-.462v-1.77l.157.006c.458 0 .71-.096.912-.174.166-.064.287-.11.568-.11.28 0 .4.046.568.11.202.077.452.174.91.174.262 0 .473-.208.473-.463s-.21-.46-.472-.46l-.26-.02c.042-.106.066-.22.066-.343v-2.36c0-.48-.374-.876-.856-.92v-.894c0-.255-.21-.462-.472-.462s-.47.208-.47.463v.846l-1.123-.055V16.15c0-.255-.212-.463-.473-.463s-.472.208-.472.463v1.692c-.286.17-.844.555-1.428 1.26l-10.118-.487v-2.582h3.338v.65c0 .255.21.462.472.462h1.793c.26 0 .472-.207.472-.462V15.42h2.123c.26 0 .472-.206.472-.46v-.126h5.38v1.727c0 .256.21.463.47.463s.473-.207.473-.462v-2.19c0-.254-.21-.46-.472-.46H24.12c-.26 0-.472.206-.472.46v.126h-2.123c-.26 0-.472.207-.472.462v1.262h-.848v-.65c0-.255-.21-.462-.472-.462h-3.81v-4.1h2.784v.124c0 .255.21.462.472.462H21.3v1.262c0 .255.21.462.472.462h1.793c.26 0 .472-.207.472-.462v-.65h2.407c.26 0 .47-.208.47-.462v-1.59h3.304c.26 0 .472-.208.472-.464 0-.255-.21-.462-.472-.462h-3.775c-.26 0-.472.207-.472.462v1.59h-2.406c-.26 0-.472.208-.472.463v.65h-.85V11.13c0-.254-.21-.46-.47-.46h-2.125v-.126c0-.256-.21-.463-.472-.463H15.92v-.094l-.002-.007V8.85h.02c.26 0 .472-.207.472-.462V6.89c0-.255-.21-.462-.472-.462H13.93c-.26 0-.472.207-.472.462v.403h-.382V6.89c0-.255-.21-.462-.472-.462H10.95c-.26 0-.472.207-.472.462v.403h-.382V6.89c0-.255-.21-.462-.472-.462H7.97c-.262 0-.473.207-.473.462v.403h-.382V6.89c0-.255-.21-.462-.472-.462H4.988c-.26 0-.472.207-.472.462v.403h-.382V6.89c0-.255-.212-.462-.472-.462H1.664c-.26 0-.472.207-.472.462v1.498c0 .255.21.463.472.463h.077v11.837L.965 22.72c-.134-.028-.294-.047-.496-.047-.26 0-.472.208-.472.462 0 .255.21.462.472.462.28 0 .4.046.568.11.2.077.452.174.91.174.46 0 .71-.095.912-.173zM2.14 7.355h1.054v.403c0 .255.21.462.472.462h1.326c.26 0 .472-.208.472-.462v-.403h.71v.403c0 .255.212.462.473.462h1.325c.26 0 .472-.208.472-.462v-.403h.71v.403c0 .255.212.462.473.462h1.325c.26 0 .472-.208.472-.462v-.403h.71v.403c0 .255.212.462.473.462h1.326c.26 0 .472-.208.472-.462v-.403h1.065v.573h-.02c-.26 0-.472.207-.472.462v.674c-.52 0-.943.414-.943.924v9.508c0 .493.395.9.897.924l.046.002.472.023.47.023 9.017.432c-.107.24-.208.498-.3.772H3.634V9.988c0-.51-.423-.924-.944-.924V8.39c0-.255-.21-.462-.472-.462H2.14v-.573zM27.262 19.16l.206-.18v6.207h-2.48c.016-.483.054-.933.112-1.352l.047-.312.116-.6.078-.325c.088-.333.186-.64.294-.925.1-.26.205-.502.315-.723.17-.343.354-.642.537-.9.267-.376.536-.668.774-.89zm2.184 2.513h-1.034v-.605l1.034.05v.556zm2.022 6.807c-.407 0-.59-.07-.82-.16l-.212-.076c.86-.442 1.094-.948 1.132-1.044.055-.143.036-.302-.052-.427-.09-.125-.234-.2-.39-.2H22.31c-.156 0-.302.075-.39.2-.087.125-.107.285-.05.427.044.114.363.805 1.676 1.28h-.016c-.407 0-.59-.07-.82-.16-.272-.103-.58-.22-1.165-.22s-.893.118-1.164.22c-.23.09-.412.16-.82.16-.407 0-.59-.07-.82-.16-.273-.103-.58-.22-1.165-.22-.26 0-.472.207-.472.462 0 .256.21.462.472.462.408 0 .59.07.82.16.273.103.58.22 1.165.22s.893-.118 1.164-.22c.23-.09.414-.16.82-.16s.59.07.82.16c.273.103.58.22 1.165.22s.892-.118 1.163-.22c.23-.09.413-.16.82-.16.408 0 .59.07.82.16.273.103.58.22 1.165.22s.893-.118 1.164-.22c.23-.09.413-.16.82-.16.408 0 .59.07.822.16.272.103.58.22 1.164.22.26 0 .472-.207.472-.462s-.21-.462-.472-.462zm-1.615-.983c-.585.265-1.554.513-3.136.513-1.57 0-2.54-.247-3.127-.513h6.262zm-23.42-12.47c-.018-.373-.332-.67-.72-.67-.385 0-.7.297-.718.67v.44h1.437v-.44zm3.017 0c-.018-.373-.333-.67-.72-.67-.385 0-.7.297-.718.67v.44H9.45v-.44zm3.017 0c-.018-.373-.332-.67-.718-.67-.387 0-.702.297-.72.67v.44h1.437v-.44zM6.433 12.73c-.018-.373-.332-.67-.72-.67-.385 0-.7.297-.718.67v.44h1.437v-.44zm3.017 0c-.018-.373-.333-.67-.72-.67-.385 0-.7.297-.718.67v.44H9.45v-.44zm3.017 0c-.008-.177-.084-.337-.202-.457-.13-.132-.313-.214-.516-.214s-.386.08-.517.213c-.118.12-.194.28-.203.457v.44h1.437v-.44zm-6.034-2.21c-.01-.218-.12-.41-.288-.532-.12-.09-.27-.14-.43-.14-.163 0-.312.05-.432.14-.166.122-.277.313-.288.53v.44h1.437v-.44zm3.017 0c-.01-.218-.12-.41-.288-.532-.12-.09-.27-.14-.43-.14-.163 0-.312.05-.43.14-.168.122-.28.313-.29.53v.44H9.45v-.44zm3.017.44v-.44l-.032-.178c-.046-.143-.136-.265-.255-.353-.12-.09-.268-.142-.43-.142-.162 0-.31.052-.43.14-.167.123-.28.314-.29.532v.44h1.438zm-6.034 6.265c-.018-.373-.332-.67-.72-.67-.385 0-.7.297-.718.67v.44h1.437v-.44zm3.017 0c-.018-.373-.333-.67-.72-.67-.385 0-.7.297-.718.67v.44H9.45v-.44zm3.017 0c-.018-.373-.332-.67-.718-.67-.387 0-.702.297-.72.67v.44h1.437v-.44zm-6.034 2.197c-.018-.373-.332-.67-.72-.67-.385 0-.7.297-.718.67v.44h1.437v-.44zm3.017 0c-.018-.373-.333-.67-.72-.67-.385 0-.7.297-.718.67v.44H9.45v-.44zm3.017 0c-.018-.373-.332-.67-.718-.67-.387 0-.702.297-.72.67v.44h1.437v-.44z" fill="#3A434E"/></g></svg>