<svg width="32" height="232" viewBox="0 0 32 232" xmlns="http://www.w3.org/2000/svg"><title>havana</title><desc>Created with Sketch.</desc><g fill="none"><path d="M6.547 140.697c1.652 0 2.996-1.36 2.996-3.032 0-.63-.19-1.214-.518-1.7-.54-.803-1.45-1.33-2.48-1.33-.51 0-.988.13-1.41.357-.943.51-1.586 1.517-1.586 2.673 0 1.672 1.343 3.032 2.995 3.032zm0-4.93c.3 0 .58.073.83.198.618.31 1.046.955 1.046 1.7 0 1.047-.842 1.898-1.877 1.898-1.035 0-1.877-.85-1.877-1.898 0-.87.582-1.603 1.372-1.826.16-.046.33-.072.504-.072zm0 3.5c.872 0 1.582-.72 1.582-1.602 0-.312-.252-.566-.56-.566-.31 0-.56.253-.56.565 0 .26-.21.47-.464.47-.31 0-.56.252-.56.565 0 .313.25.566.56.566zm18.836 1.43c1.652 0 2.996-1.36 2.996-3.032 0-1.17-.66-2.186-1.623-2.692-.412-.216-.88-.34-1.374-.34-1.03 0-1.94.53-2.48 1.332-.325.485-.517 1.07-.517 1.7 0 1.672 1.345 3.032 2.996 3.032zm4.712 6.21h-.415l.73-4.192c.08-.36 1.136-5.542-1.135-8.4-.627-.79-1.44-1.324-2.43-1.602l-.35-3.205c-.034-1-.768-1.81-1.683-1.854l-8.71-.99h-.25l-8.78.99c-.915.045-1.65.853-1.684 1.854l-.343 3.154c-1.076.26-1.956.81-2.623 1.652-2.27 2.86-1.213 8.042-1.136 8.4l.732 4.192h-.183c-.618 0-1.12.507-1.12 1.132 0 .567.412 1.035.95 1.118v1.698c0 .626.5 1.133 1.12 1.133H7.19c.62 0 1.12-.507 1.12-1.133v-1.684h4.265c.005.31.253.557.56.557h5.428c.306 0 .554-.25.56-.557h4.616v1.684c0 .626.5 1.133 1.12 1.133h4.406c.62 0 1.12-.507 1.12-1.133v-1.724c.477-.13.83-.57.83-1.093 0-.625-.503-1.132-1.12-1.132zm-5.54-10.942c.25-.125.53-.198.828-.198.164 0 .323.023.475.064.805.215 1.4.955 1.4 1.835 0 1.047-.84 1.898-1.876 1.898-1.035 0-1.877-.85-1.877-1.898 0-.745.428-1.39 1.047-1.7zm.828 3.3c.872 0 1.583-.717 1.583-1.6 0-.312-.25-.566-.56-.566-.31 0-.56.253-.56.565 0 .26-.207.47-.463.47-.31 0-.56.252-.56.565 0 .313.25.566.56.566zM2.38 142.484c-.01-.05-1.052-4.987.916-7.462.428-.538.963-.916 1.616-1.143.488-.17 1.04-.254 1.667-.254.24 0 .438.013.61.034l.25.043c.383.085.6.23.853.4.465.312.99.665 2.333.665 1.09 0 1.865-.5 2.523-1.065l.524-.472c.57-.53 1.074-.994 1.73-1.167v4.148h-1.86c-.308 0-.56.253-.56.566 0 .313.252.566.56.566h.686l.137.375c.08.223.29.37.525.37h2.143c.234 0 .443-.147.525-.37l.137-.375h.685c.31 0 .56-.254.56-.566 0-.313-.25-.566-.56-.566h-1.86v-4.073c.548.21.998.63 1.498 1.093l.524.472c.658.564 1.433 1.065 2.523 1.065 1.342 0 1.87-.353 2.334-.665.253-.17.47-.315.854-.4.125-.027.27-.048.436-.06l.426-.017c.708 0 1.325.11 1.86.327.565.23 1.037.587 1.422 1.07 1.968 2.476.926 7.413.915 7.462l-.005.023-.416 2.382c-.052-.837-.74-1.502-1.58-1.502h-1.335v-.506c0-.626-.5-1.133-1.12-1.133-.268 0-.514.096-.707.255l-.112-.15-.73-1.397c-.09-.176-.268-.29-.465-.3l-6.826-.358h-.058l-6.877.357c-.197.01-.374.125-.466.3l-.818 1.568c-.197-.17-.453-.275-.73-.275-.62 0-1.12.507-1.12 1.132v.505H4.613c-.875 0-1.586.72-1.586 1.604 0 .883.71 1.603 1.586 1.603H5.95v.312H3.15l-.768-4.4-.005-.023zm15.623 5.555v.557h-4.31v-2h4.31v1.443zm10.54-1.132H25.98v-.312h1.334c.647 0 1.203-.394 1.45-.956l-.22 1.268zm-6.073-5.636l.223.427h-6.17v-.738l5.947.31zm1.27 3.348v.843h-7.216v-.94h7.215v.098zm-15.55 0v-.1h7.215v.943H8.19v-.842zm19.124.843H25.98v-.94h1.334c.257 0 .466.21.466.47s-.21.47-.466.47zm-3.74-2.074h-7.05v-.556h6.76l.29.556zm-8.17-1.69H9.238l.223-.427 5.945-.31v.735zm0 1.133v.555h-7.05l.29-.556h6.76zm-9.453 2.63H4.617c-.257 0-.466-.21-.466-.47s.21-.472.466-.472H5.95v.942zm13.173 1.133h4.617v.312h-4.617v-.312zm-10.932 0h4.385v.312H8.19v-.312zm-.59-16.72l8.375-.945 8.308.945.287 2.64c-.95.082-1.39.377-1.786.642-.397.266-.71.476-1.714.476l-.207-.01 3.05-1.57c.275-.14.385-.48.244-.76-.14-.28-.477-.39-.753-.25l-3.76 1.936-.108.074c-.253-.193-.498-.42-.756-.66-.7-.648-1.487-1.38-2.66-1.515l-.027-.006-.03-.007-.082-.008h-.03l-.097.002h-.01c-.09-.004-.184-.006-.27.02-1.17.136-1.96.868-2.657 1.515-.716.665-1.335 1.24-2.29 1.24-.832 0-1.19-.145-1.514-.346l2.617-1.225c.28-.13.402-.467.272-.75s-.463-.41-.743-.277l-3.42 1.6c-.156-.04-.33-.075-.53-.1l.29-2.66zM3.904 149.17H6.07v.552H3.903v-.552zm22.076 0h2.167v.552H25.98v-.552zm-5.91-23.143c.085.225.297.362.522.362l.202-.04 2.278-.89c.29-.114.432-.442.32-.734-.112-.292-.436-.437-.724-.324l-2.28.892c-.287.113-.43.44-.32.733zm-6.567-2.934c.086.225.298.363.523.363l.202-.04c.29-.112.432-.44.32-.73l-.882-2.306c-.112-.29-.436-.436-.724-.323-.29.113-.432.44-.32.732l.882 2.303zm-4.902 1.96l2.39 1.066c.072.032.15.047.225.047.215 0 .42-.126.513-.338.125-.287-.003-.62-.286-.748l-2.388-1.066c-.283-.126-.614.003-.74.29-.124.286.004.62.287.746zm9.083-1.555c.073.033.15.048.226.048.214 0 .42-.126.51-.338l1.056-2.415c.125-.286-.003-.62-.285-.747-.282-.126-.612.003-.738.29l-1.055 2.414c-.125.286.003.62.286.747zm1.458 1.04c.11.12.26.178.408.178.138 0 .276-.05.384-.155l1.205-1.15c.224-.214.235-.572.023-.8-.212-.227-.567-.237-.792-.022l-1.204 1.15c-.224.215-.235.573-.022.8zm-7.174-.206c.11.118.26.178.407.178.138 0 .276-.052.384-.155.226-.214.235-.572.023-.8l-1.136-1.218c-.212-.228-.567-.238-.79-.023-.226.215-.236.573-.024.8l1.137 1.218zm4.02-1.222h.018c.302 0 .55-.242.56-.55l.046-1.674c.01-.313-.234-.573-.543-.582-.31-.01-.567.238-.576.55l-.046 1.674c-.008.313.235.574.544.582z" fill="#206FAC"/><path d="M6.547 100.697c1.652 0 2.996-1.36 2.996-3.032 0-.63-.19-1.214-.518-1.7-.54-.803-1.45-1.33-2.48-1.33-.51 0-.988.13-1.41.357-.943.51-1.586 1.517-1.586 2.673 0 1.672 1.343 3.032 2.995 3.032zm0-4.93c.3 0 .58.073.83.198.618.31 1.046.955 1.046 1.7 0 1.047-.842 1.898-1.877 1.898-1.035 0-1.877-.85-1.877-1.898 0-.87.582-1.603 1.372-1.826.16-.046.33-.072.504-.072zm0 3.5c.872 0 1.582-.72 1.582-1.602 0-.312-.252-.566-.56-.566-.31 0-.56.253-.56.565 0 .26-.21.47-.464.47-.31 0-.56.252-.56.565 0 .313.25.566.56.566zm18.836 1.43c1.652 0 2.996-1.36 2.996-3.032 0-1.17-.66-2.186-1.623-2.692-.412-.216-.88-.34-1.374-.34-1.03 0-1.94.53-2.48 1.332-.325.485-.517 1.07-.517 1.7 0 1.672 1.345 3.032 2.996 3.032zm4.712 6.21h-.415l.73-4.192c.08-.36 1.136-5.542-1.135-8.4-.627-.79-1.44-1.324-2.43-1.602l-.35-3.205c-.034-1-.768-1.81-1.683-1.854l-8.71-.99h-.25l-8.78.99c-.915.045-1.65.853-1.684 1.854l-.343 3.154c-1.076.26-1.956.81-2.623 1.652-2.27 2.86-1.213 8.042-1.136 8.4l.732 4.192h-.183c-.618 0-1.12.507-1.12 1.132 0 .567.412 1.035.95 1.118v1.698c0 .626.5 1.133 1.12 1.133H7.19c.62 0 1.12-.507 1.12-1.133v-1.684h4.265c.005.31.253.557.56.557h5.428c.306 0 .554-.25.56-.557h4.616v1.684c0 .626.5 1.133 1.12 1.133h4.406c.62 0 1.12-.507 1.12-1.133v-1.724c.477-.13.83-.57.83-1.093 0-.625-.503-1.132-1.12-1.132zm-5.54-10.942c.25-.125.53-.198.828-.198.164 0 .323.023.475.064.805.215 1.4.955 1.4 1.835 0 1.047-.84 1.898-1.876 1.898-1.035 0-1.877-.85-1.877-1.898 0-.745.428-1.39 1.047-1.7zm.828 3.3c.872 0 1.583-.717 1.583-1.6 0-.312-.25-.566-.56-.566-.31 0-.56.253-.56.565 0 .26-.207.47-.463.47-.31 0-.56.252-.56.565 0 .313.25.566.56.566zM2.38 102.484c-.01-.05-1.052-4.987.916-7.462.428-.538.963-.916 1.616-1.143.488-.17 1.04-.254 1.667-.254.24 0 .438.013.61.034l.25.043c.383.085.6.23.853.4.465.312.99.665 2.333.665 1.09 0 1.865-.5 2.523-1.065l.524-.472c.57-.53 1.074-.994 1.73-1.167v4.148h-1.86c-.308 0-.56.253-.56.566 0 .313.252.566.56.566h.686l.137.375c.08.223.29.37.525.37h2.143c.234 0 .443-.147.525-.37l.137-.375h.685c.31 0 .56-.254.56-.566 0-.313-.25-.566-.56-.566h-1.86v-4.073c.548.21.998.63 1.498 1.093l.524.472c.658.564 1.433 1.065 2.523 1.065 1.342 0 1.87-.353 2.334-.665.253-.17.47-.315.854-.4.125-.027.27-.048.436-.06l.426-.017c.708 0 1.325.11 1.86.327.565.23 1.037.587 1.422 1.07 1.968 2.476.926 7.413.915 7.462l-.005.023-.416 2.382c-.052-.837-.74-1.502-1.58-1.502h-1.335v-.506c0-.626-.5-1.133-1.12-1.133-.268 0-.514.096-.707.255l-.112-.15-.73-1.397c-.09-.176-.268-.29-.465-.3l-6.826-.358h-.058l-6.877.357c-.197.01-.374.125-.466.3l-.818 1.568c-.197-.17-.453-.275-.73-.275-.62 0-1.12.507-1.12 1.132v.505H4.613c-.875 0-1.586.72-1.586 1.604 0 .883.71 1.603 1.586 1.603H5.95v.312H3.15l-.768-4.4-.005-.023zm15.623 5.555v.557h-4.31v-2h4.31v1.443zm10.54-1.132H25.98v-.312h1.334c.647 0 1.203-.394 1.45-.956l-.22 1.268zm-6.073-5.636l.223.427h-6.17v-.738l5.947.31zm1.27 3.348v.843h-7.216v-.94h7.215v.098zm-15.55 0v-.1h7.215v.943H8.19v-.842zm19.124.843H25.98v-.94h1.334c.257 0 .466.21.466.47s-.21.47-.466.47zm-3.74-2.074h-7.05v-.556h6.76l.29.556zm-8.17-1.69H9.238l.223-.427 5.945-.31v.735zm0 1.133v.555h-7.05l.29-.556h6.76zm-9.453 2.63H4.617c-.257 0-.466-.21-.466-.47s.21-.472.466-.472H5.95v.942zm13.173 1.133h4.617v.312h-4.617v-.312zm-10.932 0h4.385v.312H8.19v-.312zm-.59-16.72l8.375-.945 8.308.945.287 2.64c-.95.082-1.39.377-1.786.642-.397.266-.71.476-1.714.476l-.207-.01 3.05-1.57c.275-.14.385-.48.244-.76-.14-.28-.477-.39-.753-.25l-3.76 1.936-.108.074c-.253-.193-.498-.42-.756-.66-.7-.648-1.487-1.38-2.66-1.515l-.027-.006-.03-.007-.082-.008h-.03l-.097.002h-.01c-.09-.004-.184-.006-.27.02-1.17.136-1.96.868-2.657 1.515-.716.665-1.335 1.24-2.29 1.24-.832 0-1.19-.145-1.514-.346l2.617-1.225c.28-.13.402-.467.272-.75s-.463-.41-.743-.277l-3.42 1.6c-.156-.04-.33-.075-.53-.1l.29-2.66zM3.904 109.17H6.07v.552H3.903v-.552zm22.076 0h2.167v.552H25.98v-.552zm-5.91-23.143c.085.225.297.362.522.362l.202-.04 2.278-.89c.29-.114.432-.442.32-.734-.112-.292-.436-.437-.724-.324l-2.28.892c-.287.113-.43.44-.32.733zm-6.567-2.934c.086.225.298.363.523.363l.202-.04c.29-.112.432-.44.32-.73l-.882-2.306c-.112-.29-.436-.436-.724-.323-.29.113-.432.44-.32.732l.882 2.303zM8.6 85.053l2.39 1.066c.072.032.15.047.225.047.215 0 .42-.126.513-.338.125-.287-.003-.62-.286-.748l-2.388-1.066c-.283-.126-.614.003-.74.29-.124.286.004.62.287.746zm9.083-1.555c.073.033.15.048.226.048.214 0 .42-.126.51-.338l1.056-2.415c.125-.286-.003-.62-.285-.747-.282-.126-.612.003-.738.29l-1.055 2.414c-.125.286.003.62.286.747zm1.458 1.04c.11.12.26.178.408.178.138 0 .276-.05.384-.155l1.205-1.15c.224-.214.235-.572.023-.8-.212-.227-.567-.237-.792-.022l-1.204 1.15c-.224.215-.235.573-.022.8zm-7.174-.206c.11.118.26.178.407.178.138 0 .276-.052.384-.155.226-.214.235-.572.023-.8l-1.136-1.218c-.212-.228-.567-.238-.79-.023-.226.215-.236.573-.024.8l1.137 1.218zm4.02-1.222h.018c.302 0 .55-.242.56-.55l.046-1.674c.01-.313-.234-.573-.543-.582-.31-.01-.567.238-.576.55l-.046 1.674c-.008.313.235.574.544.582z" fill="#fff"/><path d="M6.547 60.697c1.652 0 2.996-1.36 2.996-3.032 0-.63-.19-1.214-.518-1.7-.54-.803-1.45-1.33-2.48-1.33-.51 0-.988.13-1.41.357-.943.51-1.586 1.517-1.586 2.673 0 1.672 1.343 3.032 2.995 3.032zm0-4.93c.3 0 .58.073.83.198.618.31 1.046.955 1.046 1.7 0 1.047-.842 1.898-1.877 1.898-1.035 0-1.877-.85-1.877-1.898 0-.87.582-1.603 1.372-1.826.16-.046.33-.072.504-.072zm0 3.5c.872 0 1.582-.72 1.582-1.602 0-.312-.252-.566-.56-.566-.31 0-.56.253-.56.565 0 .26-.21.47-.464.47-.31 0-.56.252-.56.565 0 .313.25.566.56.566zm18.836 1.43c1.652 0 2.996-1.36 2.996-3.032 0-1.17-.66-2.186-1.623-2.692-.412-.216-.88-.34-1.374-.34-1.03 0-1.94.53-2.48 1.332-.325.485-.517 1.07-.517 1.7 0 1.672 1.345 3.032 2.996 3.032zm4.712 6.21h-.415l.73-4.192c.08-.36 1.136-5.542-1.135-8.4-.627-.79-1.44-1.325-2.43-1.602l-.35-3.205c-.034-1-.768-1.81-1.683-1.854l-8.71-.99h-.25l-8.78.99c-.915.045-1.65.853-1.684 1.854l-.343 3.154c-1.076.26-1.956.81-2.623 1.652-2.27 2.86-1.213 8.042-1.136 8.4l.732 4.192h-.183c-.618 0-1.12.507-1.12 1.132 0 .567.412 1.035.95 1.118v1.698c0 .626.5 1.133 1.12 1.133H7.19c.62 0 1.12-.507 1.12-1.133V69.17h4.265c.005.31.253.557.56.557h5.428c.306 0 .554-.25.56-.557h4.616v1.684c0 .626.5 1.133 1.12 1.133h4.406c.62 0 1.12-.507 1.12-1.133V69.13c.477-.13.83-.57.83-1.093 0-.625-.503-1.132-1.12-1.132zm-5.54-10.942c.25-.125.53-.198.828-.198.164 0 .323.023.475.064.805.215 1.4.955 1.4 1.835 0 1.047-.84 1.898-1.876 1.898-1.035 0-1.877-.85-1.877-1.898 0-.745.428-1.39 1.047-1.7zm.828 3.3c.872 0 1.583-.717 1.583-1.6 0-.312-.25-.566-.56-.566-.31 0-.56.253-.56.565 0 .26-.207.47-.463.47-.31 0-.56.252-.56.565 0 .313.25.566.56.566zM2.38 62.484c-.01-.05-1.052-4.987.916-7.462.428-.538.963-.916 1.616-1.143.488-.17 1.04-.254 1.667-.254.24 0 .438.013.61.034l.25.043c.383.085.6.23.853.4.465.312.99.665 2.333.665 1.09 0 1.865-.5 2.523-1.065l.524-.472c.57-.53 1.074-.994 1.73-1.167v4.148h-1.86c-.308 0-.56.253-.56.566 0 .313.252.566.56.566h.686l.137.375c.08.223.29.37.525.37h2.143c.234 0 .443-.147.525-.37l.137-.375h.685c.31 0 .56-.254.56-.566 0-.313-.25-.566-.56-.566h-1.86v-4.073c.548.21.998.63 1.498 1.093l.524.472c.658.564 1.433 1.065 2.523 1.065 1.342 0 1.87-.353 2.334-.665.253-.17.47-.315.854-.4.125-.027.27-.048.436-.06l.426-.017c.708 0 1.325.11 1.86.327.565.23 1.037.587 1.422 1.07 1.968 2.476.926 7.413.915 7.462l-.005.023-.416 2.382c-.052-.837-.74-1.502-1.58-1.502h-1.335v-.506c0-.626-.5-1.133-1.12-1.133-.268 0-.514.096-.707.255l-.112-.15-.73-1.397c-.09-.176-.268-.29-.465-.3l-6.826-.358h-.058l-6.877.357c-.197.01-.374.125-.466.3L7.8 62.023c-.197-.17-.453-.275-.73-.275-.62 0-1.12.507-1.12 1.132v.505H4.613c-.875 0-1.586.72-1.586 1.604 0 .883.71 1.603 1.586 1.603H5.95v.312H3.15l-.768-4.4-.005-.023zm15.623 5.555v.557h-4.31v-2h4.31v1.443zm10.54-1.132H25.98v-.312h1.334c.647 0 1.203-.394 1.45-.956l-.22 1.268zM22.47 61.27l.223.427h-6.17v-.738l5.947.31zm1.27 3.348v.843h-7.216v-.94h7.215v.098zm-15.55 0v-.1h7.215v.943H8.19v-.842zm19.124.843H25.98v-.94h1.334c.257 0 .466.21.466.47s-.21.47-.466.47zm-3.74-2.074h-7.05v-.556h6.76l.29.556zm-8.17-1.69H9.238l.223-.427 5.945-.31v.735zm0 1.133v.555h-7.05l.29-.556h6.76zm-9.453 2.63H4.617c-.257 0-.466-.21-.466-.47s.21-.472.466-.472H5.95v.942zm13.173 1.133h4.617v.312h-4.617v-.312zm-10.932 0h4.385v.312H8.19v-.312zm-.59-16.72l8.375-.945 8.308.945.287 2.64c-.95.082-1.39.377-1.786.642-.397.266-.71.476-1.714.476l-.207-.01 3.05-1.57c.275-.14.385-.48.244-.76-.14-.28-.477-.39-.753-.25l-3.76 1.936-.108.074c-.253-.193-.498-.42-.756-.66-.7-.648-1.487-1.38-2.66-1.515l-.027-.006-.03-.007-.082-.008h-.03l-.097.002h-.01c-.09-.004-.184-.006-.27.02-1.17.136-1.96.868-2.657 1.515-.716.665-1.335 1.24-2.29 1.24-.832 0-1.19-.145-1.514-.346l2.617-1.225c.28-.13.402-.467.272-.75s-.463-.41-.743-.277l-3.42 1.6c-.156-.04-.33-.075-.53-.1l.29-2.66zM3.904 69.17H6.07v.552H3.903v-.552zm22.076 0h2.167v.552H25.98v-.552zm-5.91-23.143c.085.225.297.362.522.362l.202-.04 2.278-.89c.29-.114.432-.442.32-.734-.112-.292-.436-.437-.724-.324l-2.28.892c-.287.113-.43.44-.32.733zm-6.567-2.934c.086.225.298.363.523.363l.202-.04c.29-.112.432-.44.32-.73l-.882-2.306c-.112-.29-.436-.436-.724-.323-.29.113-.432.44-.32.732l.882 2.303zM8.6 45.053l2.39 1.066c.072.032.15.047.225.047.215 0 .42-.126.513-.338.125-.287-.003-.62-.286-.748l-2.388-1.066c-.283-.126-.614.003-.74.29-.124.286.004.62.287.746zm9.083-1.555c.073.033.15.048.226.048.214 0 .42-.126.51-.338l1.056-2.415c.125-.286-.003-.62-.285-.747-.282-.126-.612.003-.738.29l-1.055 2.414c-.125.286.003.62.286.747zm1.458 1.04c.11.12.26.178.408.178.138 0 .276-.05.384-.155l1.205-1.15c.224-.214.235-.572.023-.8-.212-.227-.567-.237-.792-.022l-1.204 1.15c-.224.215-.235.573-.022.8zm-7.174-.206c.11.118.26.178.407.178.138 0 .276-.052.384-.155.226-.214.235-.572.023-.8l-1.136-1.218c-.212-.228-.567-.238-.79-.023-.226.215-.236.573-.024.8l1.137 1.218zm4.02-1.222h.018c.302 0 .55-.242.56-.55l.046-1.674c.01-.313-.234-.573-.543-.582-.31-.01-.567.238-.576.55l-.046 1.674c-.008.313.235.574.544.582z" fill="#67737B"/><path d="M6.547 20.697c1.652 0 2.996-1.36 2.996-3.032 0-.63-.19-1.214-.518-1.7-.54-.803-1.45-1.33-2.48-1.33-.51 0-.988.13-1.41.357-.943.51-1.586 1.517-1.586 2.673 0 1.672 1.343 3.032 2.995 3.032zm0-4.93c.3 0 .58.073.83.198.618.31 1.046.955 1.046 1.7 0 1.047-.842 1.898-1.877 1.898-1.035 0-1.877-.85-1.877-1.898 0-.87.582-1.603 1.372-1.826.16-.046.33-.072.504-.072zm0 3.5c.872 0 1.582-.72 1.582-1.602 0-.312-.252-.566-.56-.566-.31 0-.56.253-.56.565 0 .26-.21.47-.464.47-.31 0-.56.252-.56.565 0 .313.25.566.56.566zm18.836 1.43c1.652 0 2.996-1.36 2.996-3.032 0-1.17-.66-2.186-1.623-2.692-.412-.216-.88-.34-1.374-.34-1.03 0-1.94.53-2.48 1.332-.325.485-.517 1.07-.517 1.7 0 1.672 1.345 3.032 2.996 3.032zm4.712 6.21h-.415l.73-4.192c.08-.36 1.136-5.542-1.135-8.4-.627-.79-1.44-1.325-2.43-1.602l-.35-3.205c-.034-1-.768-1.81-1.683-1.854l-8.71-.99h-.25l-8.78.99c-.915.045-1.65.853-1.684 1.854l-.343 3.154c-1.076.26-1.956.81-2.623 1.652-2.27 2.86-1.213 8.042-1.136 8.4l.732 4.192h-.183c-.618 0-1.12.507-1.12 1.132 0 .567.412 1.035.95 1.118v1.698c0 .626.5 1.133 1.12 1.133H7.19c.62 0 1.12-.507 1.12-1.133V29.17h4.265c.005.31.253.557.56.557h5.428c.306 0 .554-.25.56-.557h4.616v1.684c0 .626.5 1.133 1.12 1.133h4.406c.62 0 1.12-.507 1.12-1.133V29.13c.477-.13.83-.57.83-1.093 0-.625-.503-1.132-1.12-1.132zm-5.54-10.942c.25-.125.53-.198.828-.198.164 0 .323.023.475.064.805.215 1.4.955 1.4 1.835 0 1.047-.84 1.898-1.876 1.898-1.035 0-1.877-.85-1.877-1.898 0-.745.428-1.39 1.047-1.7zm.828 3.3c.872 0 1.583-.717 1.583-1.6 0-.312-.25-.566-.56-.566-.31 0-.56.253-.56.565 0 .26-.207.47-.463.47-.31 0-.56.252-.56.565 0 .313.25.566.56.566zM2.38 22.484c-.01-.05-1.052-4.987.916-7.462.428-.538.963-.916 1.616-1.143.488-.17 1.04-.254 1.667-.254.24 0 .438.013.61.034l.25.043c.383.085.6.23.853.4.465.312.99.665 2.333.665 1.09 0 1.865-.5 2.523-1.065l.524-.472c.57-.53 1.074-.994 1.73-1.167v4.148h-1.86c-.308 0-.56.253-.56.566 0 .313.252.566.56.566h.686l.137.375c.08.223.29.37.525.37h2.143c.234 0 .443-.147.525-.37l.137-.375h.685c.31 0 .56-.254.56-.566 0-.313-.25-.566-.56-.566h-1.86v-4.073c.548.21.998.63 1.498 1.093l.524.472c.658.564 1.433 1.065 2.523 1.065 1.342 0 1.87-.353 2.334-.665.253-.17.47-.315.854-.4.125-.027.27-.048.436-.06l.426-.017c.708 0 1.325.11 1.86.327.565.23 1.037.587 1.422 1.07 1.968 2.476.926 7.413.915 7.462l-.005.023-.416 2.382c-.052-.837-.74-1.502-1.58-1.502h-1.335v-.506c0-.626-.5-1.133-1.12-1.133-.268 0-.514.096-.707.255l-.112-.15-.73-1.397c-.09-.176-.268-.29-.465-.3l-6.826-.358h-.058l-6.877.357c-.197.01-.374.125-.466.3L7.8 22.023c-.197-.17-.453-.275-.73-.275-.62 0-1.12.507-1.12 1.132v.505H4.613c-.875 0-1.586.72-1.586 1.604 0 .883.71 1.603 1.586 1.603H5.95v.312H3.15l-.768-4.4-.005-.023zm15.623 5.555v.557h-4.31v-2h4.31v1.443zm10.54-1.132H25.98v-.312h1.334c.647 0 1.203-.394 1.45-.956l-.22 1.268zM22.47 21.27l.223.427h-6.17v-.738l5.947.31zm1.27 3.348v.843h-7.216v-.94h7.215v.098zm-15.55 0v-.1h7.215v.943H8.19v-.842zm19.124.843H25.98v-.94h1.334c.257 0 .466.21.466.47s-.21.47-.466.47zm-3.74-2.074h-7.05v-.556h6.76l.29.556zm-8.17-1.69H9.238l.223-.427 5.945-.31v.735zm0 1.133v.555h-7.05l.29-.556h6.76zm-9.453 2.63H4.617c-.257 0-.466-.21-.466-.47s.21-.472.466-.472H5.95v.942zm13.173 1.133h4.617v.312h-4.617v-.312zm-10.932 0h4.385v.312H8.19v-.312zM7.6 9.873l8.375-.945 8.308.945.287 2.64c-.95.082-1.39.377-1.786.642-.397.266-.71.476-1.714.476l-.207-.01 3.05-1.57c.275-.14.385-.48.244-.76-.14-.28-.477-.39-.753-.25l-3.76 1.936-.108.074c-.253-.193-.498-.42-.756-.66-.7-.648-1.487-1.38-2.66-1.515l-.027-.006-.03-.007-.082-.008h-.03l-.097.002h-.01c-.09-.004-.184-.006-.27.02-1.17.136-1.96.868-2.657 1.515-.716.665-1.335 1.24-2.29 1.24-.832 0-1.19-.145-1.514-.346l2.617-1.225c.28-.13.402-.467.272-.75s-.463-.41-.743-.277l-3.42 1.6c-.156-.04-.33-.075-.53-.1l.29-2.66zM3.904 29.17H6.07v.552H3.903v-.552zm22.076 0h2.167v.552H25.98v-.552zM20.07 6.027c.085.225.297.362.522.362l.202-.04 2.278-.89c.29-.114.432-.442.32-.734-.112-.292-.436-.437-.724-.324l-2.28.892c-.287.113-.43.44-.32.733zm-6.567-2.934c.086.225.298.363.523.363l.202-.04c.29-.112.432-.44.32-.73L13.666.38c-.112-.29-.436-.436-.724-.323-.29.113-.432.44-.32.732l.882 2.303zM8.6 5.053l2.39 1.066c.072.032.15.047.225.047.215 0 .42-.126.513-.338.125-.287-.003-.62-.286-.748L9.054 4.016c-.283-.126-.614.003-.74.29-.124.286.004.62.287.746zm9.083-1.555c.073.033.15.048.226.048.214 0 .42-.126.51-.338L19.477.793c.125-.286-.003-.62-.285-.747-.282-.126-.612.003-.738.29L17.397 2.75c-.125.286.003.62.286.747zm1.458 1.04c.11.12.26.178.408.178.138 0 .276-.05.384-.155l1.205-1.15c.224-.214.235-.572.023-.8-.212-.227-.567-.237-.792-.022l-1.204 1.15c-.224.215-.235.573-.022.8zm-7.174-.206c.11.118.26.178.407.178.138 0 .276-.052.384-.155.226-.214.235-.572.023-.8l-1.136-1.218c-.212-.228-.567-.238-.79-.023-.226.215-.236.573-.024.8l1.137 1.218zm4.02-1.222h.018c.302 0 .55-.242.56-.55L16.61.887c.01-.313-.234-.573-.543-.582-.31-.01-.567.238-.576.55l-.046 1.674c-.008.313.235.574.544.582z" fill="#3A434E"/></g></svg>