<svg width="32" height="232" viewBox="0 0 32 232" xmlns="http://www.w3.org/2000/svg"><title>cuba</title><desc>Created with Sketch.</desc><g fill="none"><path d="M21.063 121.862c.378-.335.92-.335 1.296-.03l.016.042c.086.195.27.32.476.32h.072c.204 0 .39-.125.476-.32l.017-.042c.377-.305.918-.305 1.297.03.222.196.554.166.74-.068.186-.234.157-.584-.065-.78-.727-.642-1.75-.673-2.502-.144-.75-.53-1.775-.498-2.5.144-.223.196-.252.546-.066.78.186.234.518.264.74.068zm-1.55 2.57c.166-.146.395-.155.567-.04.09.182.27.3.467.3h.046c.197 0 .377-.117.467-.3.172-.116.402-.107.566.04.222.195.554.165.74-.07.187-.233.158-.583-.064-.78-.5-.442-1.192-.49-1.732-.172-.54-.317-1.23-.27-1.732.173-.222.196-.25.545-.065.78.186.234.518.264.74.068zm12.11 10.036c-.188-.197-.8-.834-1.67-1.64l.024-.09c.036-.203-.04-.412-.197-.54-.126-.1-1.892-1.516-4.03-2.71-1.555-1.004-3.187-1.755-4.59-1.755-2.058 0-3.832.34-5.128.98-1.14.566-1.924 1.382-2.296 2.365-.293-.187-.61-.38-.936-.565-.115-.164-.184-.363-.184-.606 0-.61.29-.844 1.355-1.38.97-.488 2.434-1.225 2.434-3.155 0-1.18-.45-1.88-.83-2.26-.098-.098-.2-.183-.302-.258-.175-1.082-1.214-2.172-2.564-2.172-1.078 0-2.068.648-2.437 1.55-1.285.53-1.936 2.592-1.844 3.62.06.663.435.9.766.9.682 0 1.114-.58 1.495-1.09.182-.242.367-.49.558-.65.428.25.936.385 1.464.385.577 0 1.112-.164 1.543-.44.038.134.05.287.05.414 0 .445-.21.64-1.237 1.158-.943.475-2.334 1.176-2.527 2.952-.538-.173-1.062-.28-1.542-.28-1.236 0-2.496.24-3.458.66-.506.22-.907.48-1.196.767-.347.345-.53.73-.53 1.132l.007.147c-.12-.036-.216-.083-.288-.14-.114-.09-.265-.278-.265-.875 0-.542.38-.983.87-1.412l.498-.414c.82-.667 1.843-1.496 1.444-2.774-.25-.797-.81-1.2-1.392-1.382-.326-.616-1.03-1.04-1.783-1.04-.22 0-.436.037-.642.11-.788.273-1.37.99-1.46 1.748-.71.67-.787 2.03-.59 2.835.18.74.573.85.79.85l.207-.035c.543-.188.74-.76.898-1.217.06-.17.12-.348.19-.485l.322.024c.257 0 .514-.046.765-.133.133-.046.26-.103.377-.17.34-.187.616-.45.808-.752.05.083.09.18.126.295.115.366-.103.63-.814 1.13l-.325.22c-.867.58-1.946 1.3-1.946 2.603 0 1.435 1.182 3.16 2.647 3.454.607 1.013 1.794 1.79 3.277 2.13l.015.212.416 1.587-1.005.132-1.414.185c-.137.018-.26.09-.347.206l-.672.893c-.18.24-.142.588.086.778.097.08.212.12.326.12.155 0 .31-.07.412-.21l.538-.714 2.36-.31.587 2.237-.366 1.784c-.275.062-.465.172-.616.26-.178.106-.285.17-.552.17-.268 0-.376-.064-.553-.17-.222-.13-.525-.31-1.068-.31-.542 0-.845.18-1.067.312-.178.104-.285.168-.553.168-.267 0-.375-.064-.553-.17-.222-.13-.525-.31-1.068-.31-.29 0-.525.25-.525.555 0 .306.235.554.525.554.268 0 .376.064.553.17.22.13.525.31 1.067.31.542 0 .845-.18 1.067-.31.177-.106.284-.17.552-.17.268 0 .375.064.553.17.22.13.525.31 1.067.31.417 0 .692-.108.898-.216l-.212 1.037h-.413c-.29 0-.525.247-.525.554 0 .307.235.554.525.554h.837c.248 0 .46-.182.514-.437l.388-1.89.16.09c.223.13.526.31 1.068.31s.845-.18 1.067-.31c.177-.106.284-.17.552-.17.268 0 .376.064.554.17.22.13.524.31 1.067.31.542 0 .845-.18 1.066-.31.177-.106.284-.17.552-.17.267 0 .375.064.553.17.22.13.524.31 1.067.31.542 0 .845-.18 1.066-.31.178-.106.286-.17.553-.17.27 0 .376.064.554.17.22.13.525.31 1.067.31.17 0 .316-.02.443-.048l-1.084 5.284h-.708c-.29 0-.525.248-.525.554 0 .306.235.553.525.553h1.13c.25 0 .462-.18.515-.435l1.306-6.366.003-.022h.015c.27 0 .376.063.554.168.22.13.524.31 1.067.31.543 0 .847-.18 1.068-.31.178-.105.285-.17.553-.17.27 0 .376.065.554.17.22.13.525.31 1.067.31.543 0 .846-.18 1.068-.31.178-.105.285-.17.553-.17.292 0 .527-.247.527-.553 0-.306-.235-.554-.526-.554-.54 0-.844.178-1.066.31-.178.104-.285.168-.553.168-.267 0-.375-.064-.553-.17-.22-.13-.525-.31-1.067-.31-.542 0-.846.18-1.067.31-.178.107-.285.17-.553.17-.268 0-.375-.064-.553-.17-.22-.13-.525-.31-1.067-.31l-.25.017-.737-2.812 6.77.128c.25.003.473-.18.524-.44.05-.262-.08-.524-.314-.625l-4-1.736c3.392-.452 7.08-1.485 7.276-1.54.36-.103.645-.4.742-.783.098-.38-.006-.79-.27-1.07zm-20.56-10.62c-.526.225-.886.706-1.203 1.13-.12.16-.254.342-.38.475.037-.356.166-.895.442-1.405.255-.47.56-.762.855-.822.203-.04.364-.202.413-.413.113-.492.726-1.024 1.517-1.024.474 0 .895.233 1.178.55.226.25.362.555.362.833 0 .356-.244.678-.614.884-.26.145-.58.233-.925.233-.43 0-.834-.13-1.132-.37-.147-.117-.342-.145-.514-.072zm-8.798 2.685c-.175-.063-.368-.024-.51.1-.302.27-.457.645-.583.997.006-.173.026-.358.07-.54.072-.297.19-.506.33-.59.18-.105.287-.31.27-.528-.024-.32.255-.77.75-.94.1-.036.204-.053.31-.053l.123.007c.224.028.427.127.572.254l.1.105.108.19c.035.112.02.236-.03.36-.046.11-.124.22-.227.32l-.175.14c-.095.066-.202.12-.318.16-.145.052-.29.077-.436.077-.128 0-.247-.02-.355-.06zm26.472 8.127c-2.04.494-5.32 1.19-7.576 1.19-1.682 0-3.22-.482-4.25-1.23-.343-.246-.63-.524-.847-.822l-.078-.114.07.044.05.028c1.224.704 2.845 1.168 4.482 1.168 2.165 0 5.17-.692 7.106-1.208.38.333.734.654 1.045.944zm-.794-2.157c-.377.103-.815.22-1.292.34-1.85.463-4.292.974-6.064.974-1.93 0-3.547-.66-4.522-1.39-.157-.118-.297-.237-.42-.356-.292-.282-.483-.562-.55-.804l-.03-.19c0-.847 2.478-2.154 5.77-2.154 1.282 0 2.903.694 4.372 1.515 1.217.68 2.33 1.445 3.06 1.977l-.323.09zM5.14 132.28l-.117-.144-.005-.008c-.102-.14-.156-.268-.156-.37 0-.162.287-.53 1.078-.876.84-.365 1.953-.574 3.056-.574.44 0 .975.12 1.59.352l.082.375c.206.784.61 1.566 1.15 2.225-1.038.214-2.134.383-3.005.383-1.787 0-3.12-.758-3.672-1.365zm-.044 1.38l.108.072.185.115c.98.583 2.197.904 3.422.904 1.174 0 2.676-.27 3.962-.567.408.305.854.54 1.323.675-1.49.335-3.442.7-4.86.7-1.778 0-3.35-.715-4.024-1.707l-.117-.192zm3.622 3.334l-.092-.35.5.02.11.003h.126l.084.053 2.117 1.085-2.543.334-.3-1.146zm11.924 6.738c-.102.047-.21.075-.383.075-.27 0-.376-.064-.554-.17-.222-.13-.525-.31-1.067-.31-.543 0-.846.18-1.068.31-.178.107-.285.17-.553.17-.27 0-.376-.064-.554-.17-.22-.13-.524-.31-1.067-.31-.543 0-.846.18-1.068.312-.178.104-.285.168-.553.168-.27 0-.376-.064-.554-.17-.22-.13-.525-.31-1.067-.31-.543 0-.846.18-1.067.31-.178.107-.285.17-.553.17-.267 0-.375-.064-.552-.17-.12-.07-.262-.152-.452-.215l.355-1.728c.02-.088.016-.178-.006-.264l-.58-2.21 4.148-.546c.23-.03.415-.217.453-.46.038-.24-.08-.48-.288-.587L11.4 136.49c1.267-.177 2.574-.46 3.558-.694 1 1 2.448 1.74 4.147 2.073l.402 1.53-3.237-.062c-.166-.002-.32.075-.42.21l-.91 1.206c-.18.24-.14.588.087.778.097.08.212.12.326.12.154 0 .308-.072.412-.21l.746-.99 3.29.06.844 3.22zm4.252-4.233l-4.295-.082-.366-1.393c.303.026.612.04.925.04l.413-.007 3.32 1.44zM11.81 122.656c-.16 0-.29.137-.29.306 0 .17.13.306.29.306.16 0 .29-.138.29-.307 0-.17-.13-.306-.29-.306m-9.455 2.93c-.122 0-.22.104-.22.233s.1.233.22.233c.122 0 .222-.104.222-.233s-.1-.233-.222-.233" fill="#206FAC"/><path d="M21.063 81.862c.378-.335.92-.335 1.296-.03l.016.042c.086.195.27.32.476.32h.072c.204 0 .39-.125.476-.32l.017-.042c.377-.305.918-.305 1.297.03.222.196.554.166.74-.068.186-.234.157-.584-.065-.78-.727-.642-1.75-.673-2.502-.144-.75-.53-1.775-.498-2.5.144-.223.196-.252.546-.066.78.186.234.518.264.74.068zm-1.55 2.57c.166-.146.395-.155.567-.04.09.182.27.3.467.3h.046c.197 0 .377-.117.467-.3.172-.116.402-.107.566.04.222.195.554.165.74-.07.187-.233.158-.583-.064-.78-.5-.442-1.192-.49-1.732-.172-.54-.317-1.23-.27-1.732.173-.222.196-.25.545-.065.78.186.234.518.264.74.068zm12.11 10.036c-.188-.197-.8-.834-1.67-1.64l.024-.09c.036-.203-.04-.412-.197-.54-.126-.1-1.892-1.516-4.03-2.71-1.555-1.004-3.187-1.755-4.59-1.755-2.058 0-3.832.34-5.128.98-1.14.566-1.924 1.382-2.296 2.365-.293-.187-.61-.38-.936-.565-.115-.164-.184-.363-.184-.606 0-.61.29-.844 1.355-1.38.97-.488 2.434-1.225 2.434-3.155 0-1.18-.45-1.88-.83-2.26-.098-.098-.2-.183-.302-.258-.175-1.082-1.214-2.172-2.564-2.172-1.078 0-2.068.648-2.437 1.55-1.285.53-1.936 2.592-1.844 3.62.06.663.435.9.766.9.682 0 1.114-.58 1.495-1.09.182-.242.367-.49.558-.65.428.25.936.385 1.464.385.577 0 1.112-.164 1.543-.44.038.134.05.287.05.414 0 .445-.21.64-1.237 1.158-.943.475-2.334 1.176-2.527 2.952-.538-.173-1.062-.28-1.542-.28-1.236 0-2.496.24-3.458.66-.506.22-.907.48-1.196.767-.347.345-.53.73-.53 1.132l.007.147c-.12-.036-.216-.083-.288-.14-.114-.09-.265-.278-.265-.875 0-.542.38-.983.87-1.412l.498-.414c.82-.667 1.843-1.496 1.444-2.774-.25-.797-.81-1.2-1.392-1.382-.326-.616-1.03-1.04-1.783-1.04-.22 0-.436.037-.642.11-.788.273-1.37.99-1.46 1.748-.71.67-.787 2.03-.59 2.835.18.74.573.85.79.85l.207-.035c.543-.188.74-.76.898-1.217.06-.17.12-.348.19-.485l.322.024c.257 0 .514-.046.765-.133.133-.046.26-.103.377-.17.34-.187.616-.45.808-.752.05.083.09.18.126.295.115.366-.103.63-.814 1.13l-.325.22c-.867.58-1.946 1.3-1.946 2.603 0 1.435 1.182 3.16 2.647 3.454.607 1.013 1.794 1.79 3.277 2.13l.015.212.416 1.587-1.005.132-1.414.185c-.137.018-.26.09-.347.206l-.672.893c-.18.24-.142.588.086.778.097.08.212.12.326.12.155 0 .31-.07.412-.21l.538-.714 2.36-.31.587 2.237-.366 1.784c-.275.062-.465.172-.616.26-.178.106-.285.17-.552.17-.268 0-.376-.064-.553-.17-.222-.13-.525-.31-1.068-.31-.542 0-.845.18-1.067.312-.178.104-.285.168-.553.168-.267 0-.375-.064-.553-.17-.222-.13-.525-.31-1.068-.31-.29 0-.525.25-.525.555 0 .306.235.554.525.554.268 0 .376.064.553.17.22.13.525.31 1.067.31.542 0 .845-.18 1.067-.31.177-.106.284-.17.552-.17.268 0 .375.064.553.17.22.13.525.31 1.067.31.417 0 .692-.108.898-.216l-.212 1.037h-.413c-.29 0-.525.247-.525.554 0 .307.235.554.525.554h.837c.248 0 .46-.182.514-.437l.388-1.89.16.09c.223.13.526.31 1.068.31s.845-.18 1.067-.31c.177-.106.284-.17.552-.17.268 0 .376.064.554.17.22.13.524.31 1.067.31.542 0 .845-.18 1.066-.31.177-.106.284-.17.552-.17.267 0 .375.064.553.17.22.13.524.31 1.067.31.542 0 .845-.18 1.066-.31.178-.106.286-.17.553-.17.27 0 .376.064.554.17.22.13.525.31 1.067.31.17 0 .316-.02.443-.048l-1.084 5.284h-.708c-.29 0-.525.248-.525.554 0 .306.235.553.525.553h1.13c.25 0 .462-.18.515-.435l1.306-6.366.003-.022h.015c.27 0 .376.063.554.168.22.13.524.31 1.067.31.543 0 .847-.18 1.068-.31.178-.105.285-.17.553-.17.27 0 .376.065.554.17.22.13.525.31 1.067.31.543 0 .846-.18 1.068-.31.178-.105.285-.17.553-.17.292 0 .527-.247.527-.553 0-.306-.235-.554-.526-.554-.54 0-.844.178-1.066.31-.178.104-.285.168-.553.168-.267 0-.375-.064-.553-.17-.22-.13-.525-.31-1.067-.31-.542 0-.846.18-1.067.31-.178.107-.285.17-.553.17-.268 0-.375-.064-.553-.17-.22-.13-.525-.31-1.067-.31l-.25.017-.737-2.812 6.77.128c.25.003.473-.18.524-.44.05-.262-.08-.524-.314-.625l-4-1.736c3.392-.452 7.08-1.485 7.276-1.54.36-.103.645-.4.742-.783.098-.38-.006-.79-.27-1.07zm-20.56-10.62c-.526.225-.886.706-1.203 1.13-.12.16-.254.342-.38.475.037-.356.166-.895.442-1.405.255-.47.56-.762.855-.822.203-.04.364-.202.413-.413.113-.492.726-1.024 1.517-1.024.474 0 .895.233 1.178.55.226.25.362.555.362.833 0 .356-.244.678-.614.884-.26.145-.58.233-.925.233-.43 0-.834-.13-1.132-.37-.147-.117-.342-.145-.514-.072zm-8.798 2.685c-.175-.063-.368-.024-.51.1-.302.27-.457.645-.583.997.006-.173.026-.358.07-.54.072-.297.19-.506.33-.59.18-.105.287-.31.27-.528-.024-.32.255-.77.75-.94.1-.036.204-.053.31-.053l.123.007c.224.028.427.127.572.254l.1.105.108.19c.035.112.02.236-.03.36-.046.11-.124.22-.227.32l-.175.14c-.095.066-.202.12-.318.16-.145.052-.29.077-.436.077-.128 0-.247-.02-.355-.06zm26.472 8.127c-2.04.494-5.32 1.19-7.576 1.19-1.682 0-3.22-.482-4.25-1.23-.343-.246-.63-.524-.847-.822l-.078-.114.07.044.05.028c1.224.704 2.845 1.168 4.482 1.168 2.165 0 5.17-.692 7.106-1.208.38.333.734.654 1.045.944zm-.794-2.157c-.377.103-.815.22-1.292.34-1.85.463-4.292.974-6.064.974-1.93 0-3.547-.66-4.522-1.39-.157-.118-.297-.237-.42-.356-.292-.282-.483-.562-.55-.804l-.03-.19c0-.847 2.478-2.154 5.77-2.154 1.282 0 2.903.694 4.372 1.515 1.217.68 2.33 1.445 3.06 1.977l-.323.09zM5.14 92.28l-.117-.144-.005-.008c-.102-.14-.156-.268-.156-.37 0-.162.287-.53 1.078-.876.84-.365 1.953-.574 3.056-.574.44 0 .975.12 1.59.352l.082.375c.206.784.61 1.566 1.15 2.225-1.038.214-2.134.383-3.005.383-1.787 0-3.12-.758-3.672-1.365zm-.044 1.38l.108.072.185.115c.98.583 2.197.904 3.422.904 1.174 0 2.676-.27 3.962-.567.408.305.854.54 1.323.675-1.49.335-3.442.7-4.86.7-1.778 0-3.35-.715-4.024-1.707l-.117-.192zm3.622 3.334l-.092-.35.5.02.11.003h.126l.084.053 2.117 1.085-2.543.334-.3-1.146zm11.924 6.738c-.102.047-.21.075-.383.075-.27 0-.376-.064-.554-.17-.222-.13-.525-.31-1.067-.31-.543 0-.846.18-1.068.31-.178.107-.285.17-.553.17-.27 0-.376-.064-.554-.17-.22-.13-.524-.31-1.067-.31-.543 0-.846.18-1.068.312-.178.104-.285.168-.553.168-.27 0-.376-.064-.554-.17-.22-.13-.525-.31-1.067-.31-.543 0-.846.18-1.067.31-.178.107-.285.17-.553.17-.267 0-.375-.064-.552-.17-.12-.07-.262-.152-.452-.215l.355-1.728c.02-.088.016-.178-.006-.264l-.58-2.21 4.148-.546c.23-.03.415-.217.453-.46.038-.24-.08-.48-.288-.587L11.4 96.49c1.267-.177 2.574-.46 3.558-.694 1 1 2.448 1.74 4.147 2.073l.402 1.53-3.237-.062c-.166-.002-.32.075-.42.21l-.91 1.206c-.18.24-.14.588.087.778.097.08.212.12.326.12.154 0 .308-.072.412-.21l.746-.99 3.29.06.844 3.22zm4.252-4.233l-4.295-.082-.366-1.393c.303.026.612.04.925.04l.413-.007 3.32 1.44zM11.81 82.656c-.16 0-.29.137-.29.306 0 .17.13.306.29.306.16 0 .29-.138.29-.307 0-.17-.13-.306-.29-.306m-9.455 2.93c-.122 0-.22.104-.22.233s.1.233.22.233c.122 0 .222-.104.222-.233s-.1-.233-.222-.233" fill="#fff"/><path d="M21.063 41.862c.378-.335.92-.335 1.296-.03l.016.042c.086.195.27.32.476.32h.072c.204 0 .39-.125.476-.32l.017-.042c.377-.305.918-.305 1.297.03.222.196.554.166.74-.068.186-.234.157-.584-.065-.78-.727-.642-1.75-.673-2.502-.144-.75-.53-1.775-.498-2.5.144-.223.196-.252.546-.066.78.186.234.518.264.74.068zm-1.55 2.57c.166-.146.395-.155.567-.04.09.182.27.3.467.3h.046c.197 0 .377-.117.467-.3.172-.116.402-.107.566.04.222.195.554.165.74-.07.187-.233.158-.583-.064-.78-.5-.442-1.192-.49-1.732-.172-.54-.317-1.23-.27-1.732.173-.222.196-.25.545-.065.78.186.234.518.264.74.068zm12.11 10.036c-.188-.197-.8-.834-1.67-1.64l.024-.09c.036-.203-.04-.412-.197-.54-.126-.1-1.892-1.516-4.03-2.71-1.555-1.004-3.187-1.755-4.59-1.755-2.058 0-3.832.34-5.128.98-1.14.566-1.924 1.382-2.296 2.365-.293-.187-.61-.38-.936-.565-.115-.164-.184-.363-.184-.606 0-.61.29-.844 1.355-1.38.97-.488 2.434-1.225 2.434-3.155 0-1.18-.45-1.88-.83-2.26-.098-.098-.2-.183-.302-.258-.175-1.082-1.214-2.172-2.564-2.172-1.078 0-2.068.648-2.437 1.55-1.285.53-1.936 2.592-1.844 3.62.06.663.435.9.766.9.682 0 1.114-.58 1.495-1.09.182-.242.367-.49.558-.65.428.25.936.385 1.464.385.577 0 1.112-.164 1.543-.44.038.134.05.287.05.414 0 .445-.21.64-1.237 1.158-.943.475-2.334 1.176-2.527 2.952-.538-.173-1.062-.28-1.542-.28-1.236 0-2.496.24-3.458.66-.506.22-.907.48-1.196.767-.347.345-.53.73-.53 1.132l.007.147c-.12-.036-.216-.083-.288-.14-.114-.09-.265-.278-.265-.875 0-.542.38-.983.87-1.412l.498-.414c.82-.667 1.843-1.496 1.444-2.774-.25-.797-.81-1.2-1.392-1.382-.326-.616-1.03-1.04-1.783-1.04-.22 0-.436.037-.642.11-.788.273-1.37.99-1.46 1.748-.71.67-.787 2.03-.59 2.835.18.74.573.85.79.85l.207-.035c.543-.188.74-.76.898-1.217.06-.17.12-.348.19-.485l.322.024c.257 0 .514-.046.765-.133.133-.046.26-.103.377-.17.34-.187.616-.45.808-.752.05.083.09.18.126.295.115.366-.103.63-.814 1.13l-.325.22c-.867.58-1.946 1.3-1.946 2.603 0 1.435 1.182 3.16 2.647 3.454.607 1.013 1.794 1.79 3.277 2.13l.015.212.416 1.587-1.005.132-1.414.185c-.137.018-.26.09-.347.206l-.672.893c-.18.24-.142.588.086.778.097.08.212.12.326.12.155 0 .31-.07.412-.21l.538-.714 2.36-.31.587 2.237-.366 1.784c-.275.062-.465.172-.616.26-.178.106-.285.17-.552.17-.268 0-.376-.064-.553-.17-.222-.13-.525-.31-1.068-.31-.542 0-.845.18-1.067.312-.178.104-.285.168-.553.168-.267 0-.375-.064-.553-.17-.222-.13-.525-.31-1.068-.31-.29 0-.525.25-.525.555 0 .306.235.554.525.554.268 0 .376.064.553.17.22.13.525.31 1.067.31.542 0 .845-.18 1.067-.31.177-.106.284-.17.552-.17.268 0 .375.064.553.17.22.13.525.31 1.067.31.417 0 .692-.108.898-.216l-.212 1.037h-.413c-.29 0-.525.247-.525.554 0 .307.235.554.525.554h.837c.248 0 .46-.182.514-.437l.388-1.89.16.09c.223.13.526.31 1.068.31s.845-.18 1.067-.31c.177-.106.284-.17.552-.17.268 0 .376.064.554.17.22.13.524.31 1.067.31.542 0 .845-.18 1.066-.31.177-.106.284-.17.552-.17.267 0 .375.064.553.17.22.13.524.31 1.067.31.542 0 .845-.18 1.066-.31.178-.106.286-.17.553-.17.27 0 .376.064.554.17.22.13.525.31 1.067.31.17 0 .316-.02.443-.048l-1.084 5.284h-.708c-.29 0-.525.248-.525.554 0 .306.235.553.525.553h1.13c.25 0 .462-.18.515-.435l1.306-6.366.003-.022h.015c.27 0 .376.063.554.168.22.13.524.31 1.067.31.543 0 .847-.18 1.068-.31.178-.105.285-.17.553-.17.27 0 .376.065.554.17.22.13.525.31 1.067.31.543 0 .846-.18 1.068-.31.178-.105.285-.17.553-.17.292 0 .527-.247.527-.553 0-.306-.235-.554-.526-.554-.54 0-.844.178-1.066.31-.178.104-.285.168-.553.168-.267 0-.375-.064-.553-.17-.22-.13-.525-.31-1.067-.31-.542 0-.846.18-1.067.31-.178.107-.285.17-.553.17-.268 0-.375-.064-.553-.17-.22-.13-.525-.31-1.067-.31l-.25.017-.737-2.812 6.77.128c.25.003.473-.18.524-.44.05-.262-.08-.524-.314-.625l-4-1.736c3.392-.452 7.08-1.485 7.276-1.54.36-.103.645-.4.742-.783.098-.38-.006-.79-.27-1.07zm-20.56-10.62c-.526.225-.886.706-1.203 1.13-.12.16-.254.342-.38.475.037-.356.166-.895.442-1.405.255-.47.56-.762.855-.822.203-.04.364-.202.413-.413.113-.492.726-1.024 1.517-1.024.474 0 .895.233 1.178.55.226.25.362.555.362.833 0 .356-.244.678-.614.884-.26.145-.58.233-.925.233-.43 0-.834-.13-1.132-.37-.147-.117-.342-.145-.514-.072zm-8.798 2.685c-.175-.063-.368-.024-.51.1-.302.27-.457.645-.583.997.006-.173.026-.358.07-.54.072-.297.19-.506.33-.59.18-.105.287-.31.27-.528-.024-.32.255-.77.75-.94.1-.036.204-.053.31-.053l.123.007c.224.028.427.127.572.254l.1.105.108.19c.035.112.02.236-.03.36-.046.11-.124.22-.227.32l-.175.14c-.095.066-.202.12-.318.16-.145.052-.29.077-.436.077-.128 0-.247-.02-.355-.06zm26.472 8.127c-2.04.494-5.32 1.19-7.576 1.19-1.682 0-3.22-.482-4.25-1.23-.343-.246-.63-.524-.847-.822l-.078-.114.07.044.05.028c1.224.704 2.845 1.168 4.482 1.168 2.165 0 5.17-.692 7.106-1.208.38.333.734.654 1.045.944zm-.794-2.157c-.377.103-.815.22-1.292.34-1.85.463-4.292.974-6.064.974-1.93 0-3.547-.66-4.522-1.39-.157-.118-.297-.237-.42-.356-.292-.282-.483-.562-.55-.804l-.03-.19c0-.847 2.478-2.154 5.77-2.154 1.282 0 2.903.694 4.372 1.515 1.217.68 2.33 1.445 3.06 1.977l-.323.09zM5.14 52.28l-.117-.144-.005-.008c-.102-.14-.156-.268-.156-.37 0-.162.287-.53 1.078-.876.84-.365 1.953-.574 3.056-.574.44 0 .975.12 1.59.352l.082.375c.206.784.61 1.566 1.15 2.225-1.038.214-2.134.383-3.005.383-1.787 0-3.12-.758-3.672-1.365zm-.044 1.38l.108.072.185.115c.98.583 2.197.904 3.422.904 1.174 0 2.676-.27 3.962-.567.408.305.854.54 1.323.675-1.49.335-3.442.7-4.86.7-1.778 0-3.35-.715-4.024-1.707l-.117-.192zm3.622 3.334l-.092-.35.5.02.11.003h.126l.084.053 2.117 1.085-2.543.334-.3-1.146zm11.924 6.738c-.102.047-.21.075-.383.075-.27 0-.376-.064-.554-.17-.222-.13-.525-.31-1.067-.31-.543 0-.846.18-1.068.31-.178.107-.285.17-.553.17-.27 0-.376-.064-.554-.17-.22-.13-.524-.31-1.067-.31-.543 0-.846.18-1.068.312-.178.104-.285.168-.553.168-.27 0-.376-.064-.554-.17-.22-.13-.525-.31-1.067-.31-.543 0-.846.18-1.067.31-.178.107-.285.17-.553.17-.267 0-.375-.064-.552-.17-.12-.07-.262-.152-.452-.215l.355-1.728c.02-.088.016-.178-.006-.264l-.58-2.21 4.148-.546c.23-.03.415-.217.453-.46.038-.24-.08-.48-.288-.587L11.4 56.49c1.267-.177 2.574-.46 3.558-.694 1 1 2.448 1.74 4.147 2.073l.402 1.53-3.237-.062c-.166-.002-.32.075-.42.21l-.91 1.206c-.18.24-.14.588.087.778.097.08.212.12.326.12.154 0 .308-.072.412-.21l.746-.99 3.29.06.844 3.22zm4.252-4.233l-4.295-.082-.366-1.393c.303.026.612.04.925.04l.413-.007 3.32 1.44zM11.81 42.656c-.16 0-.29.137-.29.306 0 .17.13.306.29.306.16 0 .29-.138.29-.307 0-.17-.13-.306-.29-.306m-9.455 2.93c-.122 0-.22.104-.22.233s.1.233.22.233c.122 0 .222-.104.222-.233s-.1-.233-.222-.233" fill="#67737B"/><path d="M21.063 1.862c.378-.335.92-.335 1.296-.03l.016.042c.086.195.27.32.476.32h.072c.204 0 .39-.125.476-.32l.017-.042c.377-.305.918-.305 1.297.03.222.196.554.166.74-.068.186-.234.157-.584-.065-.78C24.662.372 23.64.34 22.887.87c-.75-.53-1.775-.498-2.5.144-.223.196-.252.546-.066.78.186.234.518.264.74.068zm-1.55 2.57c.166-.146.395-.155.567-.04.09.182.27.3.467.3h.046c.197 0 .377-.117.467-.3.172-.116.402-.107.566.04.222.195.554.165.74-.07.187-.233.158-.583-.064-.78-.5-.442-1.192-.49-1.732-.172-.54-.317-1.23-.27-1.732.173-.222.196-.25.545-.065.78.186.234.518.264.74.068zm12.11 10.036c-.188-.197-.8-.834-1.67-1.64l.024-.09c.036-.203-.04-.412-.197-.54-.126-.1-1.892-1.516-4.03-2.71-1.555-1.004-3.187-1.755-4.59-1.755-2.058 0-3.832.34-5.128.98-1.14.566-1.924 1.382-2.296 2.365-.293-.187-.61-.38-.936-.565-.115-.164-.184-.363-.184-.606 0-.61.29-.844 1.355-1.38.97-.488 2.434-1.225 2.434-3.155 0-1.18-.45-1.88-.83-2.26-.098-.098-.2-.183-.302-.258-.175-1.082-1.214-2.172-2.564-2.172-1.078 0-2.068.648-2.437 1.55-1.285.53-1.936 2.592-1.844 3.62.06.663.435.9.766.9.682 0 1.114-.58 1.495-1.09.182-.242.367-.49.558-.65.428.25.936.385 1.464.385.577 0 1.112-.164 1.543-.44.038.134.05.287.05.414 0 .445-.21.64-1.237 1.158-.943.475-2.334 1.176-2.527 2.952C10 9.307 9.477 9.2 8.997 9.2c-1.236 0-2.496.24-3.458.66-.506.22-.907.48-1.196.767-.347.345-.53.73-.53 1.132l.007.147c-.12-.036-.216-.083-.288-.14-.114-.09-.265-.278-.265-.875 0-.542.38-.983.87-1.412l.498-.414C5.455 8.4 6.478 7.57 6.08 6.292c-.25-.797-.81-1.2-1.392-1.382-.326-.616-1.03-1.04-1.783-1.04-.22 0-.436.037-.642.11-.788.273-1.37.99-1.46 1.748-.71.67-.787 2.03-.59 2.835.18.74.573.85.79.85l.207-.035c.543-.188.74-.76.898-1.217.06-.17.12-.348.19-.485l.322.024c.257 0 .514-.046.765-.133.133-.046.26-.103.377-.17.34-.187.616-.45.808-.752.05.083.09.18.126.295.115.366-.103.63-.814 1.13l-.325.22c-.867.58-1.946 1.3-1.946 2.603 0 1.435 1.182 3.16 2.647 3.454.607 1.013 1.794 1.79 3.277 2.13l.015.212.416 1.587-1.005.132-1.414.185c-.137.018-.26.09-.347.206l-.672.893c-.18.24-.142.588.086.778.097.08.212.12.326.12.155 0 .31-.07.412-.21l.538-.714 2.36-.31.587 2.237-.366 1.784c-.275.062-.465.172-.616.26-.178.106-.285.17-.552.17-.268 0-.376-.064-.553-.17-.222-.13-.525-.31-1.068-.31-.542 0-.845.18-1.067.312-.178.104-.285.168-.553.168-.267 0-.375-.064-.553-.17-.222-.13-.525-.31-1.068-.31-.29 0-.525.25-.525.555 0 .306.235.554.525.554.268 0 .376.064.553.17.22.13.525.31 1.067.31.542 0 .845-.18 1.067-.31.177-.106.284-.17.552-.17.268 0 .375.064.553.17.22.13.525.31 1.067.31.417 0 .692-.108.898-.216l-.212 1.037h-.413c-.29 0-.525.247-.525.554 0 .307.235.554.525.554h.837c.248 0 .46-.182.514-.437l.388-1.89.16.09c.223.13.526.31 1.068.31s.845-.18 1.067-.31c.177-.106.284-.17.552-.17.268 0 .376.064.554.17.22.13.524.31 1.067.31.542 0 .845-.18 1.066-.31.177-.106.284-.17.552-.17.267 0 .375.064.553.17.22.13.524.31 1.067.31.542 0 .845-.18 1.066-.31.178-.106.286-.17.553-.17.27 0 .376.064.554.17.22.13.525.31 1.067.31.17 0 .316-.02.443-.048l-1.084 5.284h-.708c-.29 0-.525.248-.525.554 0 .306.235.553.525.553h1.13c.25 0 .462-.18.515-.435l1.306-6.366.003-.022h.015c.27 0 .376.063.554.168.22.13.524.31 1.067.31.543 0 .847-.18 1.068-.31.178-.105.285-.17.553-.17.27 0 .376.065.554.17.22.13.525.31 1.067.31.543 0 .846-.18 1.068-.31.178-.105.285-.17.553-.17.292 0 .527-.247.527-.553 0-.306-.235-.554-.526-.554-.54 0-.844.178-1.066.31-.178.104-.285.168-.553.168-.267 0-.375-.064-.553-.17-.22-.13-.525-.31-1.067-.31-.542 0-.846.18-1.067.31-.178.107-.285.17-.553.17-.268 0-.375-.064-.553-.17-.22-.13-.525-.31-1.067-.31l-.25.017-.737-2.812 6.77.128c.25.003.473-.18.524-.44.05-.262-.08-.524-.314-.625l-4-1.736c3.392-.452 7.08-1.485 7.276-1.54.36-.103.645-.4.742-.783.098-.38-.006-.79-.27-1.07zm-20.56-10.62c-.526.225-.886.706-1.203 1.13-.12.16-.254.342-.38.475.037-.356.166-.895.442-1.405.255-.47.56-.762.855-.822.203-.04.364-.202.413-.413.113-.492.726-1.024 1.517-1.024.474 0 .895.233 1.178.55.226.25.362.555.362.833 0 .356-.244.678-.614.884-.26.145-.58.233-.925.233-.43 0-.834-.13-1.132-.37-.147-.117-.342-.145-.514-.072zM2.264 6.534c-.175-.063-.368-.024-.51.1-.302.27-.457.645-.583.997.006-.173.026-.358.07-.54.072-.297.19-.506.33-.59.18-.105.287-.31.27-.528-.024-.32.255-.77.75-.94.1-.036.204-.053.31-.053l.123.007c.224.028.427.127.572.254l.1.105.108.19c.035.112.02.236-.03.36-.046.11-.124.22-.227.32l-.175.14c-.095.066-.202.12-.318.16-.145.052-.29.077-.436.077-.128 0-.247-.02-.355-.06zm26.472 8.127c-2.04.494-5.32 1.19-7.576 1.19-1.682 0-3.22-.482-4.25-1.23-.343-.246-.63-.524-.847-.822l-.078-.114.07.044.05.028c1.224.704 2.845 1.168 4.482 1.168 2.165 0 5.17-.692 7.106-1.208.38.333.734.654 1.045.944zm-.794-2.157c-.377.103-.815.22-1.292.34-1.85.463-4.292.974-6.064.974-1.93 0-3.547-.66-4.522-1.39-.157-.118-.297-.237-.42-.356-.292-.282-.483-.562-.55-.804l-.03-.19c0-.847 2.478-2.154 5.77-2.154 1.282 0 2.903.694 4.372 1.515 1.217.68 2.33 1.445 3.06 1.977l-.323.09zM5.14 12.28l-.117-.144-.005-.008c-.102-.14-.156-.268-.156-.37 0-.162.287-.53 1.078-.876.84-.365 1.953-.574 3.056-.574.44 0 .975.12 1.59.352l.082.375c.206.784.61 1.566 1.15 2.225-1.038.214-2.134.383-3.005.383-1.787 0-3.12-.758-3.672-1.365zm-.044 1.38l.108.072.185.115c.98.583 2.197.904 3.422.904 1.174 0 2.676-.27 3.962-.567.408.305.854.54 1.323.675-1.49.335-3.442.7-4.86.7-1.778 0-3.35-.715-4.024-1.707l-.117-.192zm3.622 3.334l-.092-.35.5.02.11.003h.126l.084.053 2.117 1.085-2.543.334-.3-1.146zm11.924 6.738c-.102.047-.21.075-.383.075-.27 0-.376-.064-.554-.17-.222-.13-.525-.31-1.067-.31-.543 0-.846.18-1.068.31-.178.107-.285.17-.553.17-.27 0-.376-.064-.554-.17-.22-.13-.524-.31-1.067-.31-.543 0-.846.18-1.068.312-.178.104-.285.168-.553.168-.27 0-.376-.064-.554-.17-.22-.13-.525-.31-1.067-.31-.543 0-.846.18-1.067.31-.178.107-.285.17-.553.17-.267 0-.375-.064-.552-.17-.12-.07-.262-.152-.452-.215l.355-1.728c.02-.088.016-.178-.006-.264l-.58-2.21 4.148-.546c.23-.03.415-.217.453-.46.038-.24-.08-.48-.288-.587L11.4 16.49c1.267-.177 2.574-.46 3.558-.694 1 1 2.448 1.74 4.147 2.073l.402 1.53-3.237-.062c-.166-.002-.32.075-.42.21l-.91 1.206c-.18.24-.14.588.087.778.097.08.212.12.326.12.154 0 .308-.072.412-.21l.746-.99 3.29.06.844 3.22zm4.252-4.233l-4.295-.082-.366-1.393c.303.026.612.04.925.04l.413-.007 3.32 1.44zM11.81 2.656c-.16 0-.29.137-.29.306 0 .17.13.306.29.306.16 0 .29-.138.29-.307 0-.17-.13-.306-.29-.306m-9.455 2.93c-.122 0-.22.104-.22.233s.1.233.22.233c.122 0 .222-.104.222-.233s-.1-.233-.222-.233" fill="#3A434E"/></g></svg>