<svg width="32" height="232" viewBox="0 0 32 232" xmlns="http://www.w3.org/2000/svg"><desc>Created with Sketch.</desc><g fill="none"><path d="M21.063 121.862c.378-.335.92-.335 1.296-.03l.01.042c.08.195.27.32.47.32h.07c.2 0 .39-.125.47-.32l.01-.042c.38-.305.92-.305 1.3.03.22.196.55.166.74-.068.18-.234.15-.584-.07-.78-.73-.642-1.75-.673-2.5-.144-.75-.53-1.78-.498-2.5.144-.22.196-.25.546-.07.78.18.234.51.264.74.068zm-1.55 2.57c.166-.146.395-.155.567-.04.09.182.27.3.467.3h.046c.197 0 .377-.117.467-.3.172-.116.402-.107.566.04.222.195.554.165.74-.07.187-.233.158-.583-.064-.78-.5-.442-1.192-.49-1.732-.172-.54-.317-1.23-.27-1.732.173-.222.196-.25.545-.065.78.186.234.518.264.74.068zm12.11 10.036c-.188-.197-.8-.834-1.67-1.64l.024-.09c.036-.203-.04-.412-.197-.54-.126-.1-1.892-1.516-4.03-2.71-1.555-1.004-3.187-1.755-4.59-1.755-2.058 0-3.832.34-5.128.98-1.14.566-1.924 1.382-2.296 2.365-.293-.187-.61-.38-.936-.565-.115-.164-.184-.363-.184-.606 0-.61.29-.844 1.355-1.38.97-.488 2.44-1.225 2.44-3.155 0-1.18-.45-1.88-.83-2.26-.1-.098-.2-.183-.3-.258-.17-1.082-1.21-2.172-2.56-2.172-1.08 0-2.07.648-2.43 1.55-1.28.53-1.93 2.592-1.84 3.62.06.663.44.9.77.9.68 0 1.12-.58 1.5-1.09.18-.242.37-.49.56-.65.43.25.94.385 1.47.385.58 0 1.12-.164 1.55-.44.037.134.05.287.05.414 0 .45-.21.64-1.24 1.16-.94.48-2.33 1.18-2.524 2.95-.536-.17-1.06-.28-1.54-.28-1.236 0-2.496.24-3.46.66-.504.22-.905.48-1.194.77-.346.35-.53.73-.53 1.13l.01.15c-.12-.03-.215-.08-.287-.14-.12-.09-.27-.28-.27-.87 0-.54.38-.98.87-1.41l.496-.41c.82-.66 1.84-1.49 1.44-2.77-.25-.79-.81-1.2-1.39-1.38-.33-.61-1.03-1.04-1.785-1.04-.22 0-.44.04-.645.11-.79.28-1.37.99-1.46 1.75-.71.67-.79 2.03-.59 2.84.18.74.57.85.79.85l.206-.03c.54-.19.74-.76.9-1.22.06-.17.12-.34.19-.48l.32.03c.258 0 .515-.04.766-.13.134-.04.26-.1.38-.17.34-.18.614-.45.806-.75.05.08.09.18.13.3.114.366-.104.63-.815 1.13l-.33.22c-.86.58-1.94 1.3-1.94 2.6 0 1.437 1.18 3.16 2.645 3.456.607 1.01 1.794 1.79 3.277 2.13l.017.21.414 1.59-1 .133-1.41.183c-.135.017-.26.09-.345.205l-.67.89c-.18.24-.14.59.09.78.1.08.218.12.33.12.15 0 .31-.07.41-.21l.537-.715 2.36-.31.59 2.234-.366 1.785c-.277.063-.467.173-.62.26-.18.107-.285.17-.55.17-.27 0-.38-.063-.555-.17-.223-.13-.526-.31-1.07-.31s-.845.18-1.067.313c-.18.1-.285.163-.553.163-.266 0-.374-.066-.552-.17-.225-.13-.53-.31-1.07-.31-.29 0-.53.25-.53.553 0 .31.238.555.528.555.27 0 .374.068.55.17.22.13.524.31 1.066.31s.845-.18 1.067-.31c.172-.102.28-.17.55-.17.264 0 .37.068.55.17.22.13.526.31 1.07.31.42 0 .69-.11.9-.212l-.237 1h-.42c-.29 0-.525.25-.525.556 0 .31.236.55.526.55h.837c.248 0 .46-.18.514-.43l.39-1.89.16.09c.23.13.53.31 1.07.31s.85-.18 1.07-.31c.18-.1.29-.17.55-.17.27 0 .38.07.56.17.22.13.53.31 1.07.31s.85-.18 1.07-.31c.18-.1.29-.17.56-.17.27 0 .38.07.56.17.22.13.528.31 1.07.31.54 0 .846-.18 1.067-.31.18-.1.287-.17.55-.17.27 0 .38.07.558.17.22.13.53.31 1.07.31.17 0 .318-.02.44-.05l-1.08 5.29h-.71c-.29 0-.524.25-.524.553 0 .306.24.553.53.553h1.13c.25 0 .46-.18.515-.434l1.307-6.37v-.02h.01c.27 0 .377.06.555.17.22.13.52.31 1.06.31s.85-.18 1.07-.31c.18-.11.29-.17.558-.17.27 0 .373.06.55.17.22.13.524.31 1.066.31s.84-.18 1.07-.31c.17-.11.28-.17.55-.17.29 0 .522-.25.522-.56 0-.31-.233-.555-.524-.555-.54 0-.843.18-1.065.31-.177.102-.28.17-.55.17s-.377-.07-.555-.17c-.22-.13-.52-.31-1.063-.31s-.84.18-1.062.31c-.18.1-.29.17-.56.17-.27 0-.373-.07-.55-.17-.22-.13-.524-.31-1.066-.31l-.25.01-.74-2.81 6.77.13c.25.004.475-.18.526-.44.05-.26-.08-.523-.31-.624l-4-1.732c3.39-.457 7.08-1.49 7.274-1.54.36-.11.64-.4.74-.79.1-.38-.01-.79-.27-1.07zm-20.56-10.62c-.526.225-.886.706-1.203 1.13-.12.16-.254.342-.38.475.037-.356.166-.895.442-1.405.255-.47.56-.762.855-.822.203-.04.364-.202.413-.413.113-.492.726-1.024 1.517-1.024.474 0 .895.23 1.178.55.226.25.362.55.362.83 0 .35-.244.68-.614.88-.26.14-.58.23-.925.23-.43 0-.834-.13-1.132-.37-.147-.12-.342-.15-.514-.08zm-8.798 2.685c-.175-.063-.368-.024-.51.1-.302.27-.457.645-.583.997.006-.173.026-.358.07-.54.072-.297.19-.506.33-.59.18-.105.287-.31.27-.528-.024-.32.255-.77.75-.94.1-.036.204-.053.31-.053h.123c.224.03.427.12.572.25l.1.1.108.19c.035.11.02.23-.03.36-.046.11-.124.22-.227.32l-.175.14c-.095.06-.202.12-.318.16-.145.05-.29.07-.436.07-.13 0-.25-.02-.36-.06zm26.472 8.127c-2.04.494-5.32 1.19-7.576 1.19-1.68 0-3.22-.482-4.25-1.23-.34-.246-.63-.524-.84-.822l-.08-.114.07.044.05.028c1.23.704 2.85 1.168 4.48 1.168 2.17 0 5.17-.692 7.11-1.208.38.333.74.654 1.05.944zm-.794-2.157c-.377.103-.815.22-1.292.34-1.85.463-4.29.974-6.06.974-1.93 0-3.54-.66-4.52-1.39-.15-.118-.29-.237-.42-.356-.29-.28-.48-.56-.55-.8l-.03-.19c0-.84 2.48-2.15 5.77-2.15 1.28 0 2.91.7 4.37 1.52 1.22.68 2.33 1.45 3.06 1.98l-.32.09zM5.14 132.28l-.117-.144-.005-.008c-.102-.14-.156-.268-.156-.37 0-.162.287-.53 1.078-.876.84-.365 1.953-.574 3.056-.574.44 0 .975.12 1.59.352l.082.375c.206.784.61 1.566 1.15 2.225-1.038.214-2.134.383-3.005.383-1.787 0-3.12-.758-3.672-1.365zm-.044 1.38l.108.072.185.115c.98.583 2.19.904 3.42.904 1.17 0 2.67-.27 3.96-.56.41.31.85.54 1.32.68-1.49.34-3.44.7-4.86.7-1.78 0-3.35-.71-4.03-1.7l-.12-.19zm3.622 3.334l-.092-.35.5.02.11.003h.126l.084.053 2.117 1.085-2.543.334-.3-1.15zm11.924 6.738c-.102.047-.21.075-.383.075-.27 0-.38-.064-.56-.17-.22-.13-.53-.31-1.07-.31-.55 0-.85.18-1.07.31-.18.107-.29.17-.56.17-.27 0-.38-.064-.56-.17-.22-.13-.53-.31-1.07-.31s-.85.18-1.07.312c-.18.1-.29.16-.56.16-.27 0-.38-.07-.56-.17-.22-.13-.53-.31-1.07-.31s-.84.18-1.066.31c-.175.1-.28.17-.55.17-.264 0-.37-.07-.55-.17-.12-.07-.26-.15-.45-.22l.355-1.73c.02-.09.013-.18-.01-.27l-.58-2.21 4.146-.55c.23-.03.414-.22.452-.46.033-.24-.08-.48-.29-.59l-2.21-1.14c1.263-.18 2.57-.46 3.554-.7 1 1 2.45 1.74 4.15 2.07l.405 1.53-3.237-.06c-.17 0-.32.07-.42.21l-.91 1.2c-.18.24-.14.59.08.78.1.08.21.12.33.12.153 0 .307-.07.41-.21l.747-.99 3.29.06.844 3.22zm4.252-4.233l-4.295-.09-.37-1.4c.3.02.61.04.92.04l.41-.01 3.32 1.44zM11.81 122.65c-.16 0-.29.137-.29.306 0 .17.13.306.29.306.16 0 .29-.138.29-.307 0-.17-.13-.306-.29-.306m-9.455 2.93c-.122 0-.22.1-.22.23s.1.23.22.23c.122 0 .222-.1.222-.23s-.1-.24-.222-.24" fill="#206FAC"/><path d="M21.063 81.862c.378-.335.92-.335 1.296-.03l.01.042c.08.195.27.32.47.32h.07c.2 0 .39-.125.47-.32l.01-.042c.38-.305.92-.305 1.3.03.22.196.55.166.74-.068.18-.234.15-.584-.07-.78-.73-.642-1.75-.673-2.5-.144-.75-.53-1.78-.498-2.5.144-.22.196-.25.546-.07.78.18.234.51.264.74.068zm-1.55 2.57c.166-.146.395-.155.567-.04.09.182.27.3.467.3h.046c.197 0 .377-.117.467-.3.172-.116.402-.107.566.04.222.195.554.165.74-.07.187-.233.158-.583-.064-.78-.5-.442-1.192-.49-1.732-.172-.54-.317-1.23-.27-1.732.173-.222.196-.25.545-.065.78.186.234.518.264.74.068zm12.11 10.036c-.188-.197-.8-.834-1.67-1.64l.024-.09c.036-.203-.04-.412-.197-.54-.126-.1-1.892-1.516-4.03-2.71-1.555-1.004-3.187-1.755-4.59-1.755-2.058 0-3.832.34-5.128.98-1.14.566-1.924 1.382-2.296 2.365-.293-.187-.61-.38-.936-.565-.115-.164-.184-.363-.184-.606 0-.61.29-.844 1.355-1.38.97-.488 2.44-1.225 2.44-3.155 0-1.18-.45-1.88-.83-2.26-.1-.098-.2-.183-.3-.258-.17-1.082-1.21-2.172-2.56-2.172-1.08 0-2.07.648-2.43 1.55-1.28.53-1.93 2.592-1.84 3.62.06.663.44.9.77.9.68 0 1.12-.58 1.5-1.09.18-.242.37-.49.56-.65.43.25.94.385 1.47.385.58 0 1.12-.164 1.55-.44.037.134.05.287.05.414 0 .45-.21.64-1.24 1.16-.94.48-2.33 1.18-2.524 2.95-.536-.17-1.06-.28-1.54-.28-1.236 0-2.496.24-3.46.66-.504.22-.905.48-1.194.77-.346.35-.53.73-.53 1.13l.01.15c-.12-.03-.215-.08-.287-.14-.12-.09-.27-.28-.27-.87 0-.54.38-.98.87-1.41l.496-.41c.82-.66 1.84-1.49 1.44-2.77-.25-.79-.81-1.2-1.39-1.38-.33-.61-1.03-1.04-1.785-1.04-.22 0-.44.04-.645.11-.79.28-1.37.99-1.46 1.75-.71.67-.79 2.03-.59 2.84.18.74.57.85.79.85l.206-.03c.54-.19.74-.76.9-1.22.06-.17.12-.34.19-.48l.32.03c.258 0 .515-.04.766-.13.134-.04.26-.1.38-.17.34-.18.614-.45.806-.75.05.08.09.18.13.3.114.366-.104.63-.815 1.13l-.33.22c-.86.58-1.94 1.3-1.94 2.6 0 1.437 1.18 3.16 2.645 3.456.607 1.01 1.794 1.79 3.277 2.13l.017.21L8 98.32l-1 .132-1.41.184c-.135.017-.26.09-.345.205l-.67.89c-.18.24-.14.59.09.78.1.08.217.12.33.12.15 0 .31-.07.41-.21l.536-.71 2.36-.31.59 2.237-.36 1.785c-.274.064-.464.174-.62.26-.18.108-.282.17-.55.17-.27 0-.38-.062-.552-.17-.223-.13-.526-.31-1.07-.31s-.845.18-1.067.314c-.18.1-.285.164-.553.164-.267 0-.375-.066-.553-.17-.225-.13-.53-.31-1.07-.31-.29 0-.53.25-.53.553 0 .31.238.556.528.556.27 0 .375.067.55.17.22.13.525.31 1.067.31s.844-.18 1.066-.31c.17-.103.28-.17.55-.17.262 0 .37.067.55.17.22.13.524.31 1.07.31.42 0 .69-.11.9-.213l-.24 1h-.42c-.29 0-.526.25-.526.556 0 .31.235.55.525.55h.836c.248 0 .46-.18.514-.43l.39-1.89.16.09c.23.13.53.31 1.07.31s.85-.18 1.07-.31c.18-.1.29-.17.55-.17.27 0 .38.07.56.17.22.13.53.31 1.07.31s.85-.18 1.07-.31c.18-.1.29-.17.56-.17.27 0 .38.07.56.17.22.13.525.31 1.07.31.54 0 .843-.18 1.064-.31.178-.1.286-.17.55-.17.27 0 .38.07.557.17.22.13.53.31 1.07.31.17 0 .318-.02.44-.05l-1.08 5.29h-.71c-.29 0-.524.25-.524.552 0 .307.24.554.53.554h1.13c.25 0 .46-.18.515-.435l1.308-6.37v-.02h.01c.27 0 .378.06.556.17.22.13.52.31 1.06.31s.85-.18 1.07-.31c.18-.11.29-.17.556-.17.27 0 .373.06.55.17.22.13.524.31 1.066.31s.84-.18 1.07-.31c.17-.11.28-.17.55-.17.29 0 .524-.25.524-.56 0-.31-.232-.557-.523-.557-.54 0-.842.18-1.064.31-.18.102-.28.17-.55.17s-.38-.07-.558-.17c-.22-.13-.52-.31-1.064-.31s-.84.18-1.062.31c-.18.1-.29.17-.56.17-.27 0-.373-.07-.55-.17-.22-.13-.524-.31-1.066-.31l-.25.01-.74-2.81 6.77.13c.25.004.475-.18.526-.44.05-.26-.08-.523-.31-.624l-4-1.733c3.39-.456 7.08-1.49 7.275-1.54.36-.107.64-.4.74-.787.1-.38-.01-.79-.27-1.07zm-20.56-10.62c-.526.225-.886.706-1.203 1.13-.12.16-.254.342-.38.475.037-.356.166-.895.442-1.405.255-.47.56-.762.855-.822.203-.04.364-.202.413-.413.113-.492.726-1.024 1.517-1.024.474 0 .895.23 1.178.55.226.25.362.55.362.83 0 .35-.244.68-.614.88-.26.14-.58.23-.925.23-.43 0-.834-.13-1.132-.37-.147-.12-.342-.15-.514-.08zm-8.798 2.685c-.175-.063-.368-.024-.51.1-.302.27-.457.645-.583.997.006-.173.026-.358.07-.54.072-.297.19-.506.33-.59.18-.105.287-.31.27-.528-.024-.32.255-.77.75-.94.1-.036.204-.053.31-.053h.123c.224.03.427.12.572.25l.1.1.108.19c.035.11.02.23-.03.36-.046.11-.124.22-.227.32l-.175.14c-.095.06-.202.12-.318.16-.145.05-.29.07-.436.07-.13 0-.25-.02-.36-.06zm26.472 8.127c-2.04.494-5.32 1.19-7.576 1.19-1.68 0-3.22-.482-4.25-1.23-.34-.246-.63-.524-.84-.822l-.08-.114.07.044.05.028c1.23.704 2.85 1.168 4.48 1.168 2.17 0 5.17-.692 7.11-1.208.38.333.74.654 1.05.944zm-.794-2.157c-.377.103-.815.22-1.292.34-1.85.463-4.29.974-6.06.974-1.93 0-3.54-.66-4.52-1.39-.15-.118-.29-.237-.42-.356-.29-.28-.48-.56-.55-.8l-.03-.19c0-.84 2.48-2.15 5.77-2.15 1.28 0 2.91.7 4.37 1.52 1.22.68 2.33 1.45 3.06 1.98l-.32.09zM5.14 92.28l-.117-.144-.005-.008c-.102-.14-.156-.268-.156-.37 0-.162.287-.53 1.078-.876.84-.365 1.953-.574 3.056-.574.44 0 .975.12 1.59.352l.082.375c.206.784.61 1.566 1.15 2.225-1.038.214-2.134.383-3.005.383-1.787 0-3.12-.758-3.672-1.365zm-.044 1.38l.108.072.185.115c.98.583 2.19.904 3.42.904 1.17 0 2.67-.27 3.96-.56.41.31.85.54 1.32.68-1.49.34-3.44.7-4.86.7-1.78 0-3.35-.71-4.03-1.7l-.12-.19zm3.622 3.334l-.092-.35.5.02.11.003h.126l.084.053 2.117 1.085-2.543.334-.3-1.15zm11.924 6.738c-.102.047-.21.075-.383.075-.27 0-.38-.064-.56-.17-.22-.13-.53-.31-1.07-.31-.55 0-.85.18-1.07.31-.18.107-.29.17-.56.17-.27 0-.38-.064-.56-.17-.22-.13-.53-.31-1.07-.31s-.85.18-1.07.312c-.18.1-.29.16-.56.16-.27 0-.38-.07-.56-.17-.22-.13-.53-.31-1.07-.31s-.84.18-1.066.31c-.175.1-.28.17-.55.17-.264 0-.37-.07-.55-.17-.12-.07-.26-.15-.45-.22l.355-1.73c.02-.09.013-.18-.01-.27l-.58-2.21 4.146-.55c.23-.03.414-.22.452-.46.033-.24-.08-.48-.29-.59l-2.18-1.11c1.265-.18 2.572-.46 3.556-.7 1 1 2.45 1.74 4.148 2.07l.4 1.53-3.236-.07c-.167 0-.32.07-.42.21l-.91 1.2c-.18.24-.14.59.086.78.096.08.21.12.325.12.153 0 .31-.07.41-.21l.747-.99 3.29.06.85 3.22zm4.252-4.233l-4.294-.09-.37-1.4c.3.02.61.04.923.04l.413-.01 3.32 1.44zM11.81 82.65c-.16 0-.29.137-.29.306 0 .17.13.306.29.306.16 0 .29-.138.29-.307 0-.17-.13-.306-.29-.306m-9.455 2.93c-.122 0-.22.1-.22.23s.1.23.22.23c.122 0 .222-.1.222-.23s-.1-.24-.222-.24" fill="#fff"/><path d="M21.063 41.862c.378-.335.92-.335 1.296-.03l.01.042c.08.195.27.32.47.32h.07c.2 0 .39-.125.47-.32l.01-.042c.38-.305.92-.305 1.3.03.22.196.55.166.74-.068.18-.234.15-.584-.07-.78-.73-.642-1.75-.673-2.5-.144-.75-.53-1.78-.498-2.5.144-.22.196-.25.546-.07.78.18.234.51.264.74.068zm-1.55 2.57c.166-.146.395-.155.567-.04.09.182.27.3.467.3h.046c.197 0 .377-.117.467-.3.172-.116.402-.107.566.04.222.195.554.165.74-.07.187-.233.158-.583-.064-.78-.5-.442-1.192-.49-1.732-.172-.54-.317-1.23-.27-1.732.173-.222.196-.25.545-.065.78.186.234.518.264.74.068zm12.11 10.036c-.188-.197-.8-.834-1.67-1.64l.024-.09c.036-.203-.04-.412-.197-.54-.126-.1-1.892-1.516-4.03-2.71-1.555-1.004-3.187-1.755-4.59-1.755-2.058 0-3.832.34-5.128.98-1.14.566-1.924 1.382-2.296 2.365-.293-.187-.61-.38-.936-.565-.115-.164-.184-.363-.184-.606 0-.61.29-.844 1.355-1.38.97-.488 2.44-1.225 2.44-3.155 0-1.18-.45-1.88-.83-2.26-.1-.098-.2-.183-.3-.258-.17-1.082-1.21-2.172-2.56-2.172-1.08 0-2.07.648-2.43 1.55-1.28.53-1.93 2.592-1.84 3.62.06.663.44.9.77.9.68 0 1.12-.58 1.5-1.09.18-.242.37-.49.56-.65.43.25.94.385 1.47.385.58 0 1.12-.164 1.55-.44.037.134.05.287.05.414 0 .45-.21.64-1.24 1.16-.94.48-2.33 1.18-2.524 2.95-.536-.17-1.06-.28-1.54-.28-1.236 0-2.496.24-3.46.66-.504.22-.905.48-1.194.77-.346.35-.53.73-.53 1.13l.01.15c-.12-.03-.215-.08-.287-.14-.12-.09-.27-.28-.27-.87 0-.54.38-.98.87-1.41l.496-.41c.82-.66 1.84-1.49 1.44-2.77-.25-.79-.81-1.2-1.39-1.38-.33-.61-1.03-1.04-1.785-1.04-.22 0-.44.04-.645.11-.79.28-1.37.99-1.46 1.75-.71.67-.79 2.03-.59 2.84.18.74.57.85.79.85l.206-.03c.54-.19.74-.76.9-1.22.06-.17.12-.34.19-.48l.32.03c.258 0 .515-.04.766-.13.134-.04.26-.1.38-.17.34-.18.614-.45.806-.75.05.08.09.18.13.3.114.366-.104.63-.815 1.13l-.33.22c-.86.58-1.94 1.3-1.94 2.6 0 1.437 1.18 3.16 2.645 3.456.607 1.01 1.794 1.79 3.277 2.13l.017.21L8 58.32l-1 .132-1.41.184c-.135.017-.26.09-.345.205l-.67.89c-.18.24-.14.59.09.78.1.08.217.12.33.12.15 0 .31-.07.41-.21l.536-.71 2.36-.31.59 2.237-.36 1.785c-.274.064-.464.174-.62.26-.18.108-.282.17-.55.17-.27 0-.38-.062-.552-.17-.223-.13-.526-.31-1.07-.31s-.845.18-1.067.314c-.18.1-.285.164-.553.164-.267 0-.375-.066-.553-.17-.225-.13-.53-.31-1.07-.31-.29 0-.53.25-.53.553 0 .31.238.556.528.556.27 0 .375.067.55.17.22.13.525.31 1.067.31s.844-.18 1.066-.31c.17-.103.28-.17.55-.17.262 0 .37.067.55.17.22.13.524.31 1.07.31.42 0 .69-.11.9-.213l-.24 1h-.42c-.29 0-.525.25-.525.557 0 .31.235.55.525.55h.838c.248 0 .46-.18.514-.43l.39-1.89.16.09c.23.13.53.31 1.07.31s.85-.18 1.07-.31c.18-.1.29-.17.55-.17.27 0 .38.07.56.17.22.13.53.31 1.07.31s.85-.18 1.07-.31c.18-.1.29-.17.56-.17.27 0 .38.07.56.17.22.13.528.31 1.07.31.54 0 .846-.18 1.067-.31.18-.1.287-.17.55-.17.27 0 .38.07.558.17.22.13.528.31 1.07.31.17 0 .316-.02.44-.05l-1.085 5.28h-.705c-.29 0-.524.25-.524.56 0 .31.24.556.53.556h1.13c.25 0 .46-.18.514-.433l1.31-6.367v-.02h.01c.27 0 .376.06.55.17.22.13.528.31 1.07.31s.847-.18 1.068-.31c.18-.11.29-.17.558-.17.27 0 .378.06.556.17.22.13.52.31 1.062.31s.845-.18 1.07-.31c.175-.11.28-.17.55-.17.29 0 .527-.25.527-.56 0-.3-.237-.55-.53-.55-.54 0-.84.18-1.06.31-.18.104-.29.17-.55.17-.27 0-.38-.07-.56-.17-.22-.13-.52-.31-1.065-.31s-.847.18-1.07.31c-.18.103-.285.17-.553.17-.27 0-.37-.07-.55-.17-.22-.13-.525-.31-1.07-.31l-.25.013-.734-2.81 6.77.13c.25.002.48-.18.53-.44.05-.26-.08-.525-.31-.626l-4-1.73c3.39-.452 7.08-1.49 7.276-1.54.36-.103.64-.4.74-.783.1-.38-.01-.79-.27-1.07zm-20.56-10.62c-.526.225-.886.706-1.203 1.13-.12.16-.254.342-.38.475.037-.356.166-.895.442-1.405.255-.47.56-.762.855-.822.203-.04.364-.202.413-.413.113-.492.726-1.024 1.517-1.024.474 0 .895.23 1.178.55.226.25.362.55.362.83 0 .35-.244.68-.614.88-.26.14-.58.23-.925.23-.43 0-.834-.13-1.132-.37-.147-.12-.342-.15-.514-.08zm-8.798 2.685c-.175-.063-.368-.024-.51.1-.302.27-.457.645-.583.997.006-.173.026-.358.07-.54.072-.297.19-.506.33-.59.18-.105.287-.31.27-.528-.024-.32.255-.77.75-.94.1-.036.204-.053.31-.053h.123c.224.03.427.12.572.25l.1.1.108.19c.035.11.02.23-.03.36-.046.11-.124.22-.227.32l-.175.14c-.095.06-.202.12-.318.16-.145.05-.29.07-.436.07-.13 0-.25-.02-.36-.06zm26.472 8.127c-2.04.494-5.32 1.19-7.576 1.19-1.68 0-3.22-.482-4.25-1.23-.34-.246-.63-.524-.84-.822l-.08-.114.07.044.05.028c1.23.704 2.85 1.168 4.48 1.168 2.17 0 5.17-.692 7.11-1.208.38.333.74.654 1.05.944zm-.794-2.157c-.377.103-.815.22-1.292.34-1.85.463-4.29.974-6.06.974-1.93 0-3.54-.66-4.52-1.39-.15-.118-.29-.237-.42-.356-.29-.28-.48-.56-.55-.8l-.03-.19c0-.84 2.48-2.15 5.77-2.15 1.28 0 2.91.7 4.37 1.52 1.22.68 2.33 1.45 3.06 1.98l-.32.09zM5.14 52.28l-.117-.144-.005-.008c-.102-.14-.156-.268-.156-.37 0-.162.287-.53 1.078-.876.84-.365 1.953-.574 3.056-.574.44 0 .975.12 1.59.352l.082.375c.206.784.61 1.566 1.15 2.225-1.038.214-2.134.383-3.005.383-1.787 0-3.12-.758-3.672-1.365zm-.044 1.38l.108.072.185.115c.98.583 2.19.904 3.42.904 1.17 0 2.67-.27 3.96-.56.41.31.85.54 1.32.68-1.49.34-3.44.7-4.86.7-1.78 0-3.35-.71-4.03-1.7l-.12-.19zm3.622 3.334l-.092-.35.5.02.11.003h.126l.084.053 2.117 1.085-2.543.334-.3-1.15zm11.924 6.738c-.102.047-.21.075-.383.075-.27 0-.38-.064-.56-.17-.22-.13-.53-.31-1.07-.31-.55 0-.85.18-1.07.31-.18.107-.29.17-.56.17-.27 0-.38-.064-.56-.17-.22-.13-.53-.31-1.07-.31s-.85.18-1.07.312c-.18.1-.29.16-.56.16-.27 0-.38-.07-.56-.17-.22-.13-.53-.31-1.07-.31s-.84.18-1.066.31c-.175.1-.28.17-.55.17-.264 0-.37-.07-.55-.17-.12-.07-.26-.15-.45-.22l.355-1.73c.02-.09.013-.18-.01-.27l-.58-2.21 4.146-.55c.23-.03.414-.22.452-.46.033-.24-.08-.48-.29-.59l-2.18-1.11c1.265-.18 2.572-.46 3.556-.7 1 1 2.45 1.74 4.148 2.07l.4 1.53-3.236-.07c-.167 0-.32.07-.42.21l-.91 1.2c-.18.24-.14.59.086.78.096.08.21.12.325.12.153 0 .31-.07.41-.21l.747-.99 3.29.06.85 3.22zm4.252-4.233l-4.294-.09-.37-1.4c.3.02.61.04.923.04l.413-.01 3.32 1.44zM11.81 42.65c-.16 0-.29.137-.29.306 0 .17.13.306.29.306.16 0 .29-.138.29-.307 0-.17-.13-.306-.29-.306m-9.455 2.93c-.122 0-.22.1-.22.23s.1.23.22.23c.122 0 .222-.1.222-.23s-.1-.24-.222-.24" fill="#67737B"/><path d="M21.063 1.862c.378-.335.92-.335 1.296-.03l.01.042c.08.195.27.32.47.32h.07c.2 0 .39-.125.47-.32l.01-.042c.38-.305.92-.305 1.3.03.22.196.55.166.74-.068.18-.234.15-.584-.07-.78-.7-.642-1.72-.674-2.48-.144-.75-.53-1.77-.498-2.5.144-.22.196-.25.546-.07.78.19.234.52.264.74.068zm-1.55 2.57c.166-.146.395-.155.567-.04.09.182.27.3.467.3h.046c.197 0 .377-.117.467-.3.172-.116.402-.107.566.04.222.195.554.165.74-.07.187-.233.158-.583-.064-.78-.5-.442-1.192-.49-1.732-.172-.54-.317-1.23-.27-1.732.173-.222.196-.25.545-.065.78.186.234.518.264.74.068zm12.11 10.036c-.188-.197-.8-.834-1.67-1.64l.024-.09c.036-.203-.04-.412-.197-.54-.126-.1-1.892-1.516-4.03-2.71-1.555-1.004-3.187-1.755-4.59-1.755-2.058 0-3.832.34-5.128.98-1.14.566-1.924 1.382-2.296 2.365-.293-.187-.61-.38-.936-.565-.115-.164-.184-.363-.184-.606 0-.61.29-.844 1.355-1.38.97-.488 2.44-1.225 2.44-3.155 0-1.18-.45-1.88-.83-2.26-.1-.098-.2-.183-.3-.258C15.1 1.772 14.06.682 12.71.682c-1.08 0-2.07.648-2.437 1.55-1.285.53-1.936 2.592-1.844 3.62.06.663.43.9.76.9.68 0 1.11-.58 1.49-1.09.18-.242.36-.49.55-.65.43.25.93.385 1.46.385.57 0 1.11-.164 1.54-.44.04.134.05.287.05.414 0 .45-.21.64-1.24 1.16-.94.48-2.33 1.18-2.53 2.95-.54-.17-1.07-.28-1.55-.28-1.24 0-2.5.24-3.46.66-.51.22-.91.48-1.2.77-.35.35-.53.73-.53 1.13l.01.15c-.12-.03-.22-.08-.29-.14-.11-.09-.267-.28-.267-.87 0-.54.38-.98.87-1.41l.496-.41c.827-.67 1.85-1.5 1.453-2.77-.25-.79-.81-1.2-1.396-1.38-.326-.61-1.03-1.04-1.783-1.04-.22 0-.44.04-.645.11-.787.28-1.37.99-1.46 1.75-.7.66-.77 2.02-.58 2.83.18.74.575.85.79.85l.21-.03c.542-.19.74-.76.9-1.21.06-.17.12-.34.19-.48l.32.03c.25 0 .51-.04.76-.13.13-.04.26-.1.38-.17.34-.182.61-.45.81-.75.05.086.09.18.12.298.115.37-.1.63-.814 1.13l-.328.22c-.86.573-1.94 1.293-1.94 2.6 0 1.435 1.186 3.16 2.65 3.454.61 1.01 1.795 1.79 3.28 2.13l.013.21.42 1.59-1.01.13-1.417.183c-.136.02-.26.09-.346.208l-.67.89c-.18.24-.14.59.084.78.1.08.21.12.33.12.153 0 .31-.07.41-.21l.54-.712 2.36-.31.59 2.24-.37 1.79c-.276.06-.466.17-.617.26-.178.1-.285.17-.55.17-.27 0-.378-.07-.555-.17-.22-.13-.524-.31-1.07-.31-.54 0-.842.18-1.064.31-.176.1-.283.164-.55.164-.264 0-.37-.06-.55-.17-.224-.13-.527-.31-1.07-.31-.29 0-.525.25-.525.56 0 .31.236.56.526.56.27 0 .38.06.558.17.22.13.525.31 1.067.31.544 0 .847-.18 1.07-.31.176-.11.283-.17.55-.17.27 0 .376.06.554.17.22.13.527.31 1.07.31.416 0 .69-.11.897-.22l-.21 1.03h-.41c-.29 0-.53.25-.53.555 0 .304.24.55.53.55h.83c.25 0 .46-.18.514-.436l.39-1.89.16.09c.22.13.524.31 1.066.31s.848-.18 1.07-.31c.18-.11.284-.17.55-.17.27 0 .38.06.557.17.22.13.53.31 1.07.31s.85-.18 1.07-.31c.176-.11.28-.17.55-.17.268 0 .376.06.554.17.22.13.52.31 1.07.31s.84-.18 1.06-.31c.18-.11.29-.17.556-.17.27 0 .38.06.552.17.22.13.53.31 1.07.31.17 0 .32-.02.45-.05l-1.08 5.282h-.71c-.29 0-.527.248-.527.554 0 .307.235.55.525.55h1.13c.25 0 .46-.18.51-.43l1.305-6.37v-.02h.015c.27 0 .38.063.554.17.22.13.52.31 1.07.31.54 0 .84-.18 1.06-.31.18-.104.29-.17.56-.17.27 0 .376.066.554.17.22.13.53.31 1.07.31.55 0 .85-.18 1.07-.31.18-.104.29-.17.557-.17.29 0 .523-.246.523-.55 0-.307-.24-.555-.53-.555-.54 0-.847.174-1.07.31-.18.1-.283.164-.55.164-.265 0-.37-.07-.55-.17-.22-.13-.524-.31-1.066-.31s-.847.18-1.068.31c-.175.1-.28.17-.55.17s-.375-.07-.553-.17c-.22-.13-.523-.31-1.065-.31l-.25.01-.74-2.81 6.77.13c.25 0 .47-.18.524-.44.05-.26-.08-.526-.31-.627l-4-1.738c3.396-.458 7.08-1.49 7.28-1.54.36-.11.64-.4.74-.79.1-.38-.006-.79-.27-1.07zm-20.56-10.62c-.526.225-.886.706-1.203 1.13-.12.16-.254.342-.38.475.037-.356.166-.895.442-1.405.255-.47.56-.762.855-.822.203-.04.364-.202.413-.413.113-.492.726-1.024 1.517-1.024.474 0 .895.23 1.178.55.226.25.362.55.362.83 0 .35-.244.68-.614.88-.26.14-.58.23-.925.23-.43 0-.834-.13-1.132-.37-.147-.12-.342-.15-.514-.08zm-8.8 2.686c-.174-.063-.367-.024-.51.1-.3.27-.456.645-.582.997.01-.17.03-.35.07-.54.08-.29.19-.5.33-.59.18-.1.29-.31.27-.52-.02-.32.26-.77.75-.94.1-.03.21-.05.31-.05l.13.01c.23.03.43.13.57.26l.1.11.11.19c.04.12.02.24-.03.36-.04.11-.12.22-.22.32l-.17.14c-.09.07-.2.12-.32.16-.14.06-.29.08-.43.08-.13 0-.24-.02-.35-.06zm26.473 8.127c-2.04.5-5.32 1.19-7.576 1.19-1.682 0-3.22-.48-4.25-1.23-.343-.24-.63-.52-.847-.82l-.078-.11.07.05.05.03c1.224.71 2.845 1.17 4.482 1.17 2.165 0 5.17-.69 7.106-1.21.38.34.734.66 1.045.95zm-.794-2.15c-.377.11-.815.22-1.292.34-1.85.47-4.292.98-6.064.98-1.93 0-3.547-.66-4.522-1.39-.157-.12-.297-.23-.42-.35-.292-.28-.483-.56-.55-.8l-.03-.19c0-.85 2.478-2.15 5.77-2.15 1.282 0 2.903.69 4.372 1.52 1.217.68 2.33 1.45 3.06 1.98l-.323.09zM5.14 12.28l-.117-.144-.005-.008c-.102-.14-.156-.268-.156-.37 0-.162.287-.53 1.078-.876.84-.365 1.953-.574 3.056-.574.44 0 .975.12 1.59.352l.082.375c.206.784.61 1.566 1.15 2.225-1.038.214-2.134.383-3.005.383-1.787 0-3.12-.758-3.672-1.365zm-.044 1.38l.108.072.185.115c.98.583 2.19.904 3.42.904 1.17 0 2.67-.27 3.96-.56.41.31.85.54 1.32.68-1.49.34-3.44.7-4.86.7-1.78 0-3.35-.71-4.03-1.7l-.12-.19zm3.622 3.334l-.092-.35.5.02.11.003h.126l.084.053 2.117 1.085-2.543.334-.3-1.15zm11.924 6.738c-.102.047-.21.075-.383.075-.27 0-.38-.064-.56-.17-.22-.13-.53-.31-1.07-.31-.55 0-.85.18-1.07.31-.18.107-.29.17-.56.17-.27 0-.38-.064-.56-.17-.22-.13-.53-.31-1.07-.31s-.85.18-1.07.312c-.18.1-.29.16-.56.16-.27 0-.38-.07-.56-.17-.22-.13-.53-.31-1.07-.31s-.84.18-1.066.31c-.175.1-.28.17-.55.17-.264 0-.37-.07-.55-.17-.12-.07-.26-.15-.45-.22l.355-1.73c.02-.09.013-.18-.01-.27l-.58-2.21 4.146-.55c.23-.03.414-.22.452-.46.033-.24-.08-.48-.29-.59l-2.18-1.11c1.265-.18 2.572-.46 3.556-.7 1 1 2.45 1.74 4.148 2.07l.4 1.53-3.236-.07c-.167 0-.32.07-.42.21l-.91 1.2c-.18.24-.14.59.086.78.096.08.21.12.325.12.153 0 .31-.07.41-.21l.747-.99 3.29.06.85 3.22zm4.252-4.233l-4.294-.09-.37-1.4c.3.02.61.04.923.04l.413-.01 3.32 1.44zM11.81 2.65c-.16 0-.29.137-.29.306 0 .17.13.306.29.306.16 0 .29-.138.29-.307 0-.17-.13-.306-.29-.306M2.355 5.58c-.122 0-.22.105-.22.234s.1.233.22.233c.122 0 .222-.1.222-.23s-.1-.233-.222-.233" fill="#3A434E"/></g></svg>