<svg width="32" height="232" viewBox="0 0 32 232" xmlns="http://www.w3.org/2000/svg"><title>republic-of-congo</title><desc>Created with Sketch.</desc><g fill="none"><path d="M31.103 149.178h-.45l-1.202-26.23-.003-.026-.004-.036-.004-.02-.01-.03-.01-.036-.01-.022-.012-.022-.02-.036-.014-.02-.007-.01-.005-.006-.027-.033-.016-.014-.01-.01-.007-.005-.034-.027-.038-.023-.04-.022-.02-.007-.01-.003-.01-.004-.044-.014-.023-.006-.017-.002h-.005l-.035-.006c-.225-.01-5.516-.235-7.535 1.72-.537.522-.81 1.15-.81 1.87 0 .253.203.46.454.46s.454-.207.454-.46c0-.464.174-.857.53-1.202.69-.67 2.054-1.136 3.94-1.35-.655.55-1.197 1.313-1.61 2.28-.673 1.58-.762 3.136-.765 3.2-.013.255.18.472.43.486h.024c.24 0 .44-.19.452-.435 0-.014.083-1.455.692-2.883.408-.958.946-1.67 1.606-2.13-1.7 2.216-.803 7.46-.763 7.685.04.223.23.38.446.38l.08-.007c.247-.045.41-.284.367-.534-.252-1.434-.63-5.49.63-7.013.25-.304.552-.49.916-.562l.182 16.184h-.062l-1.008-3.913c-.02-.075-.058-.145-.112-.202l-1.267-1.34c-.14-.147-.36-.183-.54-.087l-1.783.956-1.786-.955c-.17-.09-.377-.063-.518.07l-3.03 2.83-.223-.186c-.753-.633-1.526-1.283-2.318-1.515-.31-.353-1.606-1.762-2.56-1.762-.59 0-2.157 0-2.157 1.158 0 .185-.09.437-.196.728-.163.45-.364 1.007-.364 1.69 0 .26.106.42.195.51.16.16.356.194.52.2l-.05.065c-.177.232-.445.582-.445 1.273 0 .93.815 1.377 1.616 1.42l-.014.294-.04.83h-1.342l-.08-.143-2.25-3.957c-.046-.08-.113-.143-.193-.183l-.04-.02.038-5.058c.897.404 1.387.856 1.387 1.305 0 .255.203.462.454.462s.453-.206.453-.46c0-.922-.768-1.693-2.288-2.3l.013-1.725c.67.27 1.33.74 1.978 1.406.176.18.463.183.642.005s.18-.47.005-.65c-.842-.868-1.717-1.447-2.618-1.737l.027-3.708c.494.29.876.725 1.092 1.255.25.608.248 1.274-.003 1.873-.097.234.01.505.242.604l.177.037c.176 0 .344-.104.417-.28.347-.83.35-1.747.006-2.586-.236-.58-.616-1.072-1.102-1.447 1.054-.27 2.222.126 2.868 1.064.088.13.23.198.373.198.09 0 .18-.027.26-.083.205-.145.256-.433.112-.64-.86-1.25-2.41-1.784-3.81-1.435.538-.828 1.562-1.3 2.63-1.114.246.044.48-.125.523-.376.042-.25-.123-.49-.37-.532-1.287-.224-2.53.27-3.3 1.19-.108-.29-.256-.568-.445-.827-.546-.75-1.354-1.25-2.276-1.41-.248-.045-.482.124-.524.375-.042.25.124.49.37.532.69.12 1.294.494 1.7 1.05.2.274.338.576.415.89-1.208-.803-2.845-.825-4.065.063-.204.148-.25.436-.105.643.146.207.43.254.633.106.916-.667 2.15-.647 3.052-.034-.58.19-1.1.526-1.513.99-.598.676-.898 1.542-.843 2.44.015.245.215.433.453.433l.028-.002c.25-.015.44-.234.425-.488-.04-.65.178-1.278.612-1.768.285-.32.64-.56 1.038-.704l-.155 3.485c-.162-.01-.325-.015-.49-.007-1.626.073-2.857 1.043-3.433 1.598-.075-.13-.118-.272-.13-.43-.07-.835.706-1.91 1.01-2.255.17-.19.154-.48-.032-.652-.186-.17-.473-.155-.64.033-.057.063-1.356 1.543-1.244 2.947.04.483.232.898.574 1.236v6.16l-1.677.888c-.222.12-.308.397-.192.623.117.225.39.313.613.195l.386-.205.87-.46v10.513H.905c-.5 0-.908.413-.908.92 0 .51.406.922.908.922h30.198c.5 0 .908-.412.908-.92 0-.51-.405-.922-.907-.922zm-5.58-10.084c-.546-.453-1.29-.723-1.995-.723-.59 0-1.108.04-1.61.08-.507.038-1.03.077-1.643.08h-.045c-.098 0-.212-.034-.336-.088-.164-.072-.345-.184-.536-.32l2.683-2.504 1.716.917c.132.07.29.07.424 0l1.692-.907.948 1.002 1.067 4.14c.052.204.233.345.44.345h.422l.05 4.455-.137-.157c-.94-1.088-2.006-2.32-2.006-3.63 0-.827-.203-1.447-.473-1.907-.2-.343-.44-.597-.66-.78zm-5.293.356c.667 0 1.22-.042 1.755-.083.508-.04.988-.075 1.543-.075l.126.007c.144.01.394.048.672.152.637.24 1.422.836 1.422 2.332 0 1.656 1.237 3.087 2.23 4.237.303.35.61.705.836 1.02l.02 1.768-.107.187-.012.023h-.86l.037-.246c.08-.718-.158-1.296-.666-1.63-.88-.58-2.578-2.2-2.756-2.533-.225-.42-.677-.345-1.886-.143-.66.11-1.48.247-2.328.308h-.002l-.017.002c-1.362.096-2.783-.007-3.68-.74.087-.562.198-.987.304-1.386.163-.614.316-1.194.316-2.08 0-.253-.203-.46-.454-.46s-.454.206-.454.46c0 .765-.126 1.24-.284 1.843-.22.835-.495 1.874-.495 4.036 0 .88-.15 1.94-.24 2.49h-.476l-.013-.443c0-.79-.33-1.31-.65-1.813-.346-.546-.674-1.06-.674-2.02 0-1.17.054-2.243.103-3.19.04-.807.078-1.57.078-2.273 0-2.13.634-2.52 1.883-2.52.673 0 1.55.74 2.326 1.393.84.708 1.636 1.378 2.4 1.378zm-3.357 5.834l.205 3.655h-.906c.094-.608.227-1.616.227-2.492 0-.528.016-.982.044-1.38.138.08.28.153.43.217zm.925.287c.666.143 1.38.175 2.083.148.106.356.302.747.506 1.153.207.413.465.926.465 1.148 0 .4-.382.92-.515 1.07l-.06.09h-2.276l-.203-3.606zm4.43 3.368h-.708c.133-.272.24-.593.24-.92 0-.444-.275-.99-.565-1.567-.13-.257-.278-.552-.376-.8.587-.06 1.145-.15 1.637-.23.254.84.565 1.996.565 2.397 0 .52-.48 1.12-.793 1.12zM11.94 139.71c0-.374.113-.52.256-.708.14-.18.328-.43.328-.82 0-.27-.108-.434-.2-.525-.185-.184-.417-.205-.594-.205.035-.43.17-.8.3-1.163.13-.36.25-.697.25-1.045 0-.01.015-.237 1.25-.237.252 0 .757.355 1.25.807-1.44.244-2.068 1.295-2.068 3.385 0 .322-.01.66-.022 1.01-.458-.02-.75-.21-.75-.5zm-5.82-4.22l.152.028c.186 0 .36-.117.427-.305.434-1.234-.43-2.427-1.293-3.252.508.092 1.082.21 1.653.363l.48.136-.214 4.807-1.51-.758c-.13-.066-.284-.064-.412.004l-.898.476-.242-4.81c.214.17.452.374.68.605.554.56 1.16 1.382.9 2.117-.085.24.038.503.274.59zm-1.47 4.39l-.093-1.878 1.063-.563 1.66.833-.485 10.904H5.12l-.47-9.295zm2.595-9.974l.408.007-.07 1.6-.303-.083c-.93-.246-1.85-.408-2.51-.507.554-.445 1.422-.97 2.475-1.017zm1.363 19.27l.07-9.606 1.92 3.375c.08.143.23.23.392.23h1.566c-.016.475-.026.97-.026 1.486 0 1.233.454 1.947.818 2.52.283.446.506.798.506 1.322v.014l.02.66H8.606zm14.753-3.9l.43-.05c.515.685 2.168 2.18 2.944 2.69.434.285.234.992.136 1.262h-3.443c.308-.394.502-.902.502-1.36 0-.56-.353-1.82-.57-2.543zm-8.588-15.507c.24-.207.584-.21.83-.032l.005.013c.074.163.235.267.41.267h.053c.176 0 .337-.104.41-.266l.007-.012c.245-.18.588-.175.83.03.19.165.477.14.638-.056.16-.195.136-.485-.056-.65-.54-.457-1.29-.49-1.857-.13-.566-.36-1.318-.327-1.856.13-.192.165-.217.455-.056.65s.448.22.64.057zm2.617 2.052c.16.195.446.22.638.057.24-.206.584-.21.83-.032l.005.013c.075.163.235.267.41.267h.053c.176 0 .337-.104.41-.266l.007-.012c.245-.18.588-.175.83.03.19.165.477.14.638-.056.162-.195.137-.485-.055-.65-.538-.457-1.29-.49-1.856-.13-.567-.36-1.32-.327-1.857.13-.192.165-.217.455-.056.65z" fill="#206FAC"/><path d="M31.103 109.178h-.45l-1.202-26.23-.003-.026-.004-.036-.004-.02-.01-.03-.01-.036-.01-.022-.012-.022-.02-.036-.014-.02-.007-.01-.005-.006-.027-.033-.016-.014-.01-.01-.007-.005-.034-.027-.038-.023-.04-.022-.02-.007-.01-.003-.01-.004-.044-.014-.023-.006-.017-.002h-.005l-.035-.006c-.225-.01-5.516-.235-7.535 1.72-.537.522-.81 1.15-.81 1.87 0 .253.203.46.454.46s.454-.207.454-.46c0-.464.174-.857.53-1.202.69-.67 2.054-1.136 3.94-1.35-.655.55-1.197 1.313-1.61 2.28-.673 1.58-.762 3.136-.765 3.2-.013.255.18.472.43.486h.024c.24 0 .44-.19.452-.435 0-.014.083-1.455.692-2.883.408-.958.946-1.67 1.606-2.13-1.7 2.216-.803 7.46-.763 7.685.04.223.23.38.446.38l.08-.007c.247-.045.41-.284.367-.534-.252-1.434-.63-5.49.63-7.013.25-.304.552-.49.916-.562l.182 16.184h-.062l-1.008-3.913c-.02-.075-.058-.145-.112-.202l-1.267-1.34c-.14-.147-.36-.183-.54-.087l-1.783.956-1.786-.955c-.17-.09-.377-.063-.518.07l-3.03 2.83-.223-.186c-.753-.633-1.526-1.283-2.318-1.515-.31-.353-1.606-1.762-2.56-1.762-.59 0-2.157 0-2.157 1.158 0 .185-.09.437-.196.728-.163.45-.364 1.007-.364 1.69 0 .26.106.42.195.51.16.16.356.194.52.2l-.05.065c-.177.232-.445.582-.445 1.273 0 .93.815 1.377 1.616 1.42l-.014.294-.04.83h-1.342l-.08-.143-2.25-3.957c-.046-.08-.113-.143-.193-.183l-.04-.02.038-5.058c.897.404 1.387.856 1.387 1.305 0 .255.203.462.454.462s.453-.206.453-.46c0-.922-.768-1.693-2.288-2.3l.013-1.725c.67.27 1.33.74 1.978 1.406.176.18.463.183.642.005s.18-.47.005-.65c-.842-.868-1.717-1.447-2.618-1.737l.027-3.708c.494.29.876.725 1.092 1.255.25.608.248 1.274-.003 1.873-.097.234.01.505.242.604l.177.037c.176 0 .344-.104.417-.28.347-.83.35-1.747.006-2.586-.236-.58-.616-1.072-1.102-1.447 1.054-.27 2.222.126 2.868 1.064.088.13.23.198.373.198.09 0 .18-.027.26-.083.205-.145.256-.433.112-.64-.86-1.25-2.41-1.784-3.81-1.435.538-.828 1.562-1.3 2.63-1.114.246.044.48-.125.523-.376.042-.25-.123-.49-.37-.532-1.287-.224-2.53.27-3.3 1.19-.108-.29-.256-.568-.445-.827-.546-.75-1.354-1.25-2.276-1.41-.248-.045-.482.124-.524.375-.042.25.124.49.37.532.69.12 1.294.494 1.7 1.05.2.274.338.576.415.89-1.208-.803-2.845-.825-4.065.063-.204.148-.25.436-.105.643.146.207.43.254.633.106.916-.667 2.15-.647 3.052-.034-.58.19-1.1.526-1.513.99-.598.676-.898 1.542-.843 2.44.015.245.215.433.453.433l.028-.002c.25-.015.44-.234.425-.488-.04-.65.178-1.278.612-1.768.285-.32.64-.56 1.038-.704l-.155 3.485c-.162-.01-.325-.015-.49-.007-1.626.073-2.857 1.043-3.433 1.598-.075-.13-.118-.272-.13-.43-.07-.835.706-1.91 1.01-2.255.17-.19.154-.48-.032-.652-.186-.17-.473-.155-.64.033-.057.063-1.356 1.543-1.244 2.947.04.483.232.898.574 1.236v6.16l-1.677.888c-.222.12-.308.397-.192.623.117.225.39.313.613.195l.386-.205.87-.46v10.513H.905c-.5 0-.908.413-.908.92 0 .51.406.922.908.922h30.198c.5 0 .908-.412.908-.92 0-.51-.405-.922-.907-.922zm-5.58-10.084c-.546-.453-1.29-.723-1.995-.723-.59 0-1.108.04-1.61.08-.507.038-1.03.077-1.643.08h-.045c-.098 0-.212-.034-.336-.088-.164-.072-.345-.184-.536-.32l2.683-2.504 1.716.917c.132.07.29.07.424 0l1.692-.907.948 1.002 1.067 4.14c.052.204.233.345.44.345h.422l.05 4.455-.137-.157c-.94-1.088-2.006-2.32-2.006-3.63 0-.827-.203-1.447-.473-1.907-.2-.343-.44-.597-.66-.78zm-5.293.356c.667 0 1.22-.042 1.755-.083.508-.04.988-.075 1.543-.075l.126.007c.144.01.394.048.672.152.637.24 1.422.836 1.422 2.332 0 1.656 1.237 3.087 2.23 4.237.303.35.61.705.836 1.02l.02 1.768-.107.187-.012.023h-.86l.037-.246c.08-.718-.158-1.296-.666-1.63-.88-.58-2.578-2.2-2.756-2.533-.225-.42-.677-.345-1.886-.143-.66.11-1.48.247-2.328.308h-.002l-.017.002c-1.362.096-2.783-.007-3.68-.74.087-.562.198-.987.304-1.386.163-.614.316-1.194.316-2.08 0-.253-.203-.46-.454-.46s-.454.206-.454.46c0 .765-.126 1.24-.284 1.843-.22.835-.495 1.874-.495 4.036 0 .88-.15 1.94-.24 2.49h-.476l-.013-.443c0-.79-.33-1.31-.65-1.813-.346-.546-.674-1.06-.674-2.02 0-1.17.054-2.243.103-3.19.04-.807.078-1.57.078-2.273 0-2.13.634-2.52 1.883-2.52.673 0 1.55.74 2.326 1.393.84.708 1.636 1.378 2.4 1.378zm-3.357 5.834l.205 3.655h-.906c.094-.608.227-1.616.227-2.492 0-.528.016-.982.044-1.38.138.08.28.153.43.217zm.925.287c.666.143 1.38.175 2.083.148.106.356.302.747.506 1.153.207.413.465.926.465 1.148 0 .4-.382.92-.515 1.07l-.06.09h-2.276l-.203-3.606zm4.43 3.368h-.708c.133-.272.24-.593.24-.92 0-.444-.275-.99-.565-1.567-.13-.257-.278-.552-.376-.8.587-.06 1.145-.15 1.637-.23.254.84.565 1.996.565 2.397 0 .52-.48 1.12-.793 1.12zM11.94 99.71c0-.374.113-.52.256-.708.14-.18.328-.43.328-.82 0-.27-.108-.434-.2-.525-.185-.184-.417-.205-.594-.205.035-.43.17-.8.3-1.163.13-.36.25-.697.25-1.045 0-.01.015-.237 1.25-.237.252 0 .757.355 1.25.807-1.44.244-2.068 1.295-2.068 3.385 0 .322-.01.66-.022 1.01-.458-.02-.75-.21-.75-.5zm-5.82-4.22l.152.028c.186 0 .36-.117.427-.305.434-1.234-.43-2.427-1.293-3.252.508.092 1.082.21 1.653.363l.48.136-.214 4.807-1.51-.758c-.13-.066-.284-.064-.412.004l-.898.476-.242-4.81c.214.17.452.374.68.605.554.56 1.16 1.382.9 2.117-.085.24.038.503.274.59zm-1.47 4.39l-.093-1.878 1.063-.563 1.66.833-.485 10.904H5.12l-.47-9.295zm2.595-9.974l.408.007-.07 1.6-.303-.083c-.93-.246-1.85-.408-2.51-.507.554-.445 1.422-.97 2.475-1.017zm1.363 19.27l.07-9.606 1.92 3.375c.08.143.23.23.392.23h1.566c-.016.475-.026.97-.026 1.486 0 1.233.454 1.947.818 2.52.283.446.506.798.506 1.322v.014l.02.66H8.606zm14.753-3.9l.43-.05c.515.685 2.168 2.18 2.944 2.69.434.285.234.992.136 1.262h-3.443c.308-.394.502-.902.502-1.36 0-.56-.353-1.82-.57-2.543zm-8.588-15.507c.24-.207.584-.21.83-.032l.005.013c.074.163.235.267.41.267h.053c.176 0 .337-.104.41-.266l.007-.012c.245-.18.588-.175.83.03.19.165.477.14.638-.056.16-.195.136-.485-.056-.65-.54-.457-1.29-.49-1.857-.13-.566-.36-1.318-.327-1.856.13-.192.165-.217.455-.056.65s.448.22.64.057zm2.617 2.052c.16.195.446.22.638.057.24-.206.584-.21.83-.032l.005.013c.075.163.235.267.41.267h.053c.176 0 .337-.104.41-.266l.007-.012c.245-.18.588-.175.83.03.19.165.477.14.638-.056.162-.195.137-.485-.055-.65-.538-.457-1.29-.49-1.856-.13-.567-.36-1.32-.327-1.857.13-.192.165-.217.455-.056.65z" fill="#fff"/><path d="M31.103 69.178h-.45l-1.202-26.23-.003-.026-.004-.036-.004-.02-.01-.03-.01-.036-.01-.022-.012-.022-.02-.036-.014-.02-.007-.01-.005-.006-.027-.033-.016-.014-.01-.01-.007-.005-.034-.027-.038-.023-.04-.022-.02-.007-.01-.003-.01-.004-.044-.014-.023-.006-.017-.002h-.005l-.035-.006c-.225-.01-5.516-.235-7.535 1.72-.537.522-.81 1.15-.81 1.87 0 .253.203.46.454.46s.454-.207.454-.46c0-.464.174-.857.53-1.202.69-.67 2.054-1.136 3.94-1.35-.655.55-1.197 1.313-1.61 2.28-.673 1.58-.762 3.136-.765 3.2-.013.255.18.472.43.486h.024c.24 0 .44-.19.452-.435 0-.014.083-1.455.692-2.883.408-.958.946-1.67 1.606-2.13-1.7 2.216-.803 7.46-.763 7.685.04.223.23.38.446.38l.08-.007c.247-.045.41-.284.367-.534-.252-1.434-.63-5.49.63-7.013.25-.304.552-.49.916-.562l.182 16.184h-.062l-1.008-3.913c-.02-.075-.058-.145-.112-.202l-1.267-1.34c-.14-.147-.36-.183-.54-.087l-1.783.956-1.786-.955c-.17-.09-.377-.063-.518.07l-3.03 2.83-.223-.186c-.753-.633-1.526-1.283-2.318-1.515-.31-.353-1.606-1.762-2.56-1.762-.59 0-2.157 0-2.157 1.158 0 .185-.09.437-.196.728-.163.45-.364 1.007-.364 1.69 0 .26.106.42.195.51.16.16.356.194.52.2l-.05.065c-.177.232-.445.582-.445 1.273 0 .93.815 1.377 1.616 1.42l-.014.294-.04.83h-1.342l-.08-.143-2.25-3.957c-.046-.08-.113-.143-.193-.183l-.04-.02.038-5.058c.897.404 1.387.856 1.387 1.305 0 .255.203.462.454.462s.453-.206.453-.46c0-.922-.768-1.693-2.288-2.3l.013-1.725c.67.27 1.33.74 1.978 1.406.176.18.463.183.642.005s.18-.47.005-.65c-.842-.868-1.717-1.447-2.618-1.737l.027-3.708c.494.29.876.725 1.092 1.255.25.608.248 1.274-.003 1.873-.097.234.01.505.242.604l.177.037c.176 0 .344-.104.417-.28.347-.83.35-1.747.006-2.586-.236-.58-.616-1.072-1.102-1.447 1.054-.27 2.222.126 2.868 1.064.088.13.23.198.373.198.09 0 .18-.027.26-.083.205-.145.256-.433.112-.64-.86-1.25-2.41-1.784-3.81-1.435.538-.828 1.562-1.3 2.63-1.114.246.044.48-.125.523-.376.042-.25-.123-.49-.37-.532-1.287-.224-2.53.27-3.3 1.19-.108-.29-.256-.568-.445-.827-.546-.75-1.354-1.25-2.276-1.41-.248-.045-.482.124-.524.375-.042.25.124.49.37.532.69.12 1.294.494 1.7 1.05.2.274.338.576.415.89-1.208-.803-2.845-.825-4.065.063-.204.148-.25.436-.105.643.146.207.43.254.633.106.916-.667 2.15-.647 3.052-.034-.58.19-1.1.526-1.513.99-.598.676-.898 1.542-.843 2.44.015.245.215.433.453.433l.028-.002c.25-.015.44-.234.425-.488-.04-.65.178-1.278.612-1.768.285-.32.64-.56 1.038-.704l-.155 3.485c-.162-.01-.325-.015-.49-.007-1.626.073-2.857 1.043-3.433 1.598-.075-.13-.118-.272-.13-.43-.07-.835.706-1.91 1.01-2.255.17-.19.154-.48-.032-.652-.186-.17-.473-.155-.64.033-.057.063-1.356 1.543-1.244 2.947.04.483.232.898.574 1.236v6.16l-1.677.888c-.222.12-.308.397-.192.623.117.225.39.313.613.195l.386-.205.87-.46v10.513H.905c-.5 0-.908.413-.908.92 0 .51.406.922.908.922h30.198c.5 0 .908-.412.908-.92 0-.51-.405-.922-.907-.922zm-5.58-10.084c-.546-.453-1.29-.723-1.995-.723-.59 0-1.108.04-1.61.08-.507.038-1.03.077-1.643.08h-.045c-.098 0-.212-.034-.336-.088-.164-.072-.345-.184-.536-.32l2.683-2.504 1.716.917c.132.07.29.07.424 0l1.692-.907.948 1.002 1.067 4.14c.052.204.233.345.44.345h.422l.05 4.455-.137-.157c-.94-1.088-2.006-2.32-2.006-3.63 0-.827-.203-1.447-.473-1.907-.2-.343-.44-.597-.66-.78zm-5.293.356c.667 0 1.22-.042 1.755-.083.508-.04.988-.075 1.543-.075l.126.007c.144.01.394.048.672.152.637.24 1.422.836 1.422 2.332 0 1.656 1.237 3.087 2.23 4.237.303.35.61.705.836 1.02l.02 1.768-.107.187-.012.023h-.86l.037-.246c.08-.718-.158-1.296-.666-1.63-.88-.58-2.578-2.2-2.756-2.533-.225-.42-.677-.345-1.886-.143-.66.11-1.48.247-2.328.308h-.002l-.017.002c-1.362.096-2.783-.007-3.68-.74.087-.562.198-.987.304-1.386.163-.614.316-1.194.316-2.08 0-.253-.203-.46-.454-.46s-.454.206-.454.46c0 .765-.126 1.24-.284 1.843-.22.835-.495 1.874-.495 4.036 0 .88-.15 1.94-.24 2.49h-.476l-.013-.443c0-.79-.33-1.31-.65-1.813-.346-.546-.674-1.06-.674-2.02 0-1.17.054-2.243.103-3.19.04-.807.078-1.57.078-2.273 0-2.13.634-2.52 1.883-2.52.673 0 1.55.74 2.326 1.393.84.708 1.636 1.378 2.4 1.378zm-3.357 5.834l.205 3.655h-.906c.094-.608.227-1.616.227-2.492 0-.528.016-.982.044-1.38.138.08.28.153.43.217zm.925.287c.666.143 1.38.175 2.083.148.106.356.302.747.506 1.153.207.413.465.926.465 1.148 0 .4-.382.92-.515 1.07l-.06.09h-2.276l-.203-3.606zm4.43 3.368h-.708c.133-.272.24-.593.24-.92 0-.444-.275-.99-.565-1.567-.13-.257-.278-.552-.376-.8.587-.06 1.145-.15 1.637-.23.254.84.565 1.996.565 2.397 0 .52-.48 1.12-.793 1.12zM11.94 59.71c0-.374.113-.52.256-.708.14-.18.328-.43.328-.82 0-.27-.108-.434-.2-.525-.185-.184-.417-.205-.594-.205.035-.43.17-.8.3-1.163.13-.36.25-.697.25-1.045 0-.01.015-.237 1.25-.237.252 0 .757.355 1.25.807-1.44.244-2.068 1.295-2.068 3.385 0 .322-.01.66-.022 1.01-.458-.02-.75-.21-.75-.5zm-5.82-4.22l.152.028c.186 0 .36-.117.427-.305.434-1.234-.43-2.427-1.293-3.252.508.092 1.082.21 1.653.363l.48.136-.214 4.807-1.51-.758c-.13-.066-.284-.064-.412.004l-.898.476-.242-4.81c.214.17.452.374.68.605.554.56 1.16 1.382.9 2.117-.085.24.038.503.274.59zm-1.47 4.39l-.093-1.878 1.063-.563 1.66.833-.485 10.904H5.12l-.47-9.295zm2.595-9.974l.408.007-.07 1.6-.303-.083c-.93-.246-1.85-.408-2.51-.507.554-.445 1.422-.97 2.475-1.017zm1.363 19.27l.07-9.606 1.92 3.375c.08.143.23.23.392.23h1.566c-.016.475-.026.97-.026 1.486 0 1.233.454 1.947.818 2.52.283.446.506.798.506 1.322v.014l.02.66H8.606zm14.753-3.9l.43-.05c.515.685 2.168 2.18 2.944 2.69.434.285.234.992.136 1.262h-3.443c.308-.394.502-.902.502-1.36 0-.56-.353-1.82-.57-2.543zm-8.588-15.507c.24-.207.584-.21.83-.032l.005.013c.074.163.235.267.41.267h.053c.176 0 .337-.104.41-.266l.007-.012c.245-.18.588-.175.83.03.19.165.477.14.638-.056.16-.195.136-.485-.056-.65-.54-.457-1.29-.49-1.857-.13-.566-.36-1.318-.327-1.856.13-.192.165-.217.455-.056.65s.448.22.64.057zm2.617 2.052c.16.195.446.22.638.057.24-.206.584-.21.83-.032l.005.013c.075.163.235.267.41.267h.053c.176 0 .337-.104.41-.266l.007-.012c.245-.18.588-.175.83.03.19.165.477.14.638-.056.162-.195.137-.485-.055-.65-.538-.457-1.29-.49-1.856-.13-.567-.36-1.32-.327-1.857.13-.192.165-.217.455-.056.65z" fill="#67737B"/><path d="M31.103 29.178h-.45l-1.202-26.23-.003-.026-.004-.036-.004-.02-.01-.03-.01-.036-.01-.022-.012-.022-.02-.036-.014-.02-.007-.01-.005-.006-.027-.033-.016-.014-.01-.01-.007-.005-.034-.027-.038-.023-.04-.022-.02-.007-.01-.003-.01-.004-.044-.014-.023-.006-.017-.002h-.005l-.035-.006c-.225-.01-5.516-.235-7.535 1.72-.537.522-.81 1.15-.81 1.87 0 .253.203.46.454.46s.454-.207.454-.46c0-.464.174-.857.53-1.202.69-.67 2.054-1.136 3.94-1.35-.655.55-1.197 1.313-1.61 2.28-.673 1.58-.762 3.136-.765 3.2-.013.255.18.472.43.486h.024c.24 0 .44-.19.452-.435 0-.014.083-1.455.692-2.883.408-.958.946-1.67 1.606-2.13-1.7 2.216-.803 7.46-.763 7.685.04.223.23.38.446.38l.08-.007c.247-.045.41-.284.367-.534-.252-1.434-.63-5.49.63-7.013.25-.304.552-.49.916-.562l.182 16.184h-.062l-1.008-3.913c-.02-.075-.058-.145-.112-.202l-1.267-1.34c-.14-.147-.36-.183-.54-.087l-1.783.956-1.786-.955c-.17-.09-.377-.063-.518.07l-3.03 2.83-.223-.186c-.753-.633-1.526-1.283-2.318-1.515-.31-.353-1.606-1.762-2.56-1.762-.59 0-2.157 0-2.157 1.158 0 .185-.09.437-.196.728-.163.45-.364 1.007-.364 1.69 0 .26.106.42.195.51.16.16.356.194.52.2l-.05.065c-.177.232-.445.582-.445 1.273 0 .93.815 1.377 1.616 1.42l-.014.294-.04.83h-1.342l-.08-.143-2.25-3.957c-.046-.08-.113-.143-.193-.183l-.04-.02.038-5.058c.897.404 1.387.856 1.387 1.305 0 .255.203.462.454.462s.453-.206.453-.46c0-.922-.768-1.693-2.288-2.3l.013-1.725c.67.27 1.33.74 1.978 1.406.176.18.463.183.642.005s.18-.47.005-.65C10.53 10.07 9.656 9.49 8.755 9.2l.027-3.708c.494.29.876.725 1.092 1.255.25.608.248 1.274-.003 1.873-.097.234.01.505.242.604l.177.037c.176 0 .344-.104.417-.28.347-.83.35-1.747.006-2.586-.236-.58-.616-1.072-1.102-1.447 1.054-.27 2.222.126 2.868 1.064.088.13.23.198.373.198.09 0 .18-.027.26-.083.205-.145.256-.433.112-.64-.86-1.25-2.41-1.784-3.81-1.435.538-.828 1.562-1.3 2.63-1.114.246.044.48-.125.523-.376.042-.25-.123-.49-.37-.532-1.287-.224-2.53.27-3.3 1.19-.108-.29-.256-.568-.445-.827-.546-.75-1.354-1.25-2.276-1.41-.248-.045-.482.124-.524.375-.042.25.124.49.37.532.69.12 1.294.494 1.7 1.05.2.274.338.576.415.89-1.208-.803-2.845-.825-4.065.063-.204.148-.25.436-.105.643.146.207.43.254.633.106.916-.667 2.15-.647 3.052-.034-.58.19-1.1.526-1.513.99-.598.676-.898 1.542-.843 2.44.015.245.215.433.453.433l.028-.002c.25-.015.44-.234.425-.488-.04-.65.178-1.278.612-1.768.285-.32.64-.56 1.038-.704l-.155 3.485c-.162-.01-.325-.015-.49-.007-1.626.073-2.857 1.043-3.433 1.598-.075-.13-.118-.272-.13-.43-.07-.835.706-1.91 1.01-2.255.17-.19.154-.48-.032-.652-.186-.17-.473-.155-.64.033-.057.063-1.356 1.543-1.244 2.947.04.483.232.898.574 1.236v6.16l-1.677.888c-.222.12-.308.397-.192.623.117.225.39.313.613.195l.386-.205.87-.46v10.513H.905c-.5 0-.908.413-.908.92 0 .51.406.922.908.922h30.198c.5 0 .908-.412.908-.92 0-.51-.405-.922-.907-.922zm-5.58-10.084c-.546-.453-1.29-.723-1.995-.723-.59 0-1.108.04-1.61.08-.507.038-1.03.077-1.643.08h-.045c-.098 0-.212-.034-.336-.088-.164-.072-.345-.184-.536-.32l2.683-2.504 1.716.917c.132.07.29.07.424 0l1.692-.907.948 1.002 1.067 4.14c.052.204.233.345.44.345h.422l.05 4.455-.137-.157c-.94-1.088-2.006-2.32-2.006-3.63 0-.827-.203-1.447-.473-1.907-.2-.343-.44-.597-.66-.78zm-5.293.356c.667 0 1.22-.042 1.755-.083.508-.04.988-.075 1.543-.075l.126.007c.144.01.394.048.672.152.637.24 1.422.836 1.422 2.332 0 1.656 1.237 3.087 2.23 4.237.303.35.61.705.836 1.02l.02 1.768-.107.187-.012.023h-.86l.037-.246c.08-.718-.158-1.296-.666-1.63-.88-.58-2.578-2.2-2.756-2.533-.225-.42-.677-.345-1.886-.143-.66.11-1.48.247-2.328.308h-.002l-.017.002c-1.362.096-2.783-.007-3.68-.74.087-.562.198-.987.304-1.386.163-.614.316-1.194.316-2.08 0-.253-.203-.46-.454-.46s-.454.206-.454.46c0 .765-.126 1.24-.284 1.843-.22.835-.495 1.874-.495 4.036 0 .88-.15 1.94-.24 2.49h-.476l-.013-.443c0-.79-.33-1.31-.65-1.813-.346-.546-.674-1.06-.674-2.02 0-1.17.054-2.243.103-3.19.04-.807.078-1.57.078-2.273 0-2.13.634-2.52 1.883-2.52.673 0 1.55.74 2.326 1.393.84.708 1.636 1.378 2.4 1.378zm-3.357 5.834l.205 3.655h-.906c.094-.608.227-1.616.227-2.492 0-.528.016-.982.044-1.38.138.08.28.153.43.217zm.925.287c.666.143 1.38.175 2.083.148.106.356.302.747.506 1.153.207.413.465.926.465 1.148 0 .4-.382.92-.515 1.07l-.06.09h-2.276l-.203-3.606zm4.43 3.368h-.708c.133-.272.24-.593.24-.92 0-.444-.275-.99-.565-1.567-.13-.257-.278-.552-.376-.8.587-.06 1.145-.15 1.637-.23.254.84.565 1.996.565 2.397 0 .52-.48 1.12-.793 1.12zM11.94 19.71c0-.374.113-.52.256-.708.14-.18.328-.43.328-.82 0-.27-.108-.434-.2-.525-.185-.184-.417-.205-.594-.205.035-.43.17-.8.3-1.163.13-.36.25-.697.25-1.045 0-.01.015-.237 1.25-.237.252 0 .757.355 1.25.807-1.44.244-2.068 1.295-2.068 3.385 0 .322-.01.66-.022 1.01-.458-.02-.75-.21-.75-.5zm-5.82-4.22l.152.028c.186 0 .36-.117.427-.305.434-1.234-.43-2.427-1.293-3.252.508.092 1.082.21 1.653.363l.48.136-.214 4.807-1.51-.758c-.13-.066-.284-.064-.412.004l-.898.476-.242-4.81c.214.17.452.374.68.605.554.56 1.16 1.382.9 2.117-.085.24.038.503.274.59zm-1.47 4.39l-.093-1.878 1.063-.563 1.66.833-.485 10.904H5.12l-.47-9.295zm2.595-9.974l.408.007-.07 1.6-.303-.083c-.93-.246-1.85-.408-2.51-.507.554-.445 1.422-.97 2.475-1.017zm1.363 19.27l.07-9.606 1.92 3.375c.08.143.23.23.392.23h1.566c-.016.475-.026.97-.026 1.486 0 1.233.454 1.947.818 2.52.283.446.506.798.506 1.322v.014l.02.66H8.606zm14.753-3.9l.43-.05c.515.685 2.168 2.18 2.944 2.69.434.285.234.992.136 1.262h-3.443c.308-.394.502-.902.502-1.36 0-.56-.353-1.82-.57-2.543zM14.773 9.768c.24-.207.584-.21.83-.032l.005.013c.074.163.235.267.41.267h.053c.176 0 .337-.104.41-.266l.007-.012c.245-.18.588-.175.83.03.19.165.477.14.638-.056.16-.195.136-.485-.056-.65-.54-.457-1.29-.49-1.857-.13-.566-.36-1.318-.327-1.856.13-.192.165-.217.455-.056.65s.448.22.64.057zm2.617 2.052c.16.195.446.22.638.057.24-.206.584-.21.83-.032l.005.013c.075.163.235.267.41.267h.053c.176 0 .337-.104.41-.266l.007-.012c.245-.18.588-.175.83.03.19.165.477.14.638-.056.162-.195.137-.485-.055-.65-.538-.457-1.29-.49-1.856-.13-.567-.36-1.32-.327-1.857.13-.192.165-.217.455-.056.65z" fill="#3A434E"/></g></svg>