<svg width="32" height="232" viewBox="0 0 32 232" xmlns="http://www.w3.org/2000/svg"><desc>Created with Sketch.</desc><g fill="none"><path d="M14.977 122.893c.363-.335.883-.335 1.244-.03l.02.043c.09.196.26.32.46.32h.07c.2 0 .38-.124.46-.32l.02-.042c.36-.306.88-.306 1.25.03.22.197.53.166.71-.07.18-.234.16-.584-.06-.78-.7-.645-1.68-.677-2.4-.146-.72-.53-1.7-.5-2.4.145-.21.197-.24.547-.06.782s.5.266.71.068zm-1.487 2.578c.158-.14.378-.15.543-.04.086.19.26.31.448.31h.05c.19 0 .36-.11.45-.3.17-.11.39-.1.55.04.22.2.53.17.71-.07.18-.23.15-.58-.06-.78-.48-.44-1.14-.49-1.66-.17-.52-.32-1.18-.27-1.66.18-.21.2-.24.55-.06.79s.5.27.71.07zm17.464 22.87H24.66l.27-1.54c.54 0 .837-.16 1.077-.29.198-.1.34-.18.67-.18s.472.08.67.19c.245.14.55.3 1.113.3s.867-.16 1.113-.29c.198-.1.34-.18.67-.18.28 0 .505-.25.505-.55 0-.3-.226-.55-.505-.55-.562 0-.867.17-1.112.3-.19.11-.34.18-.67.18s-.47-.07-.67-.18c-.24-.13-.55-.3-1.11-.3s-.87.17-1.11.3c-.14.08-.26.14-.43.17l.44-2.513c.09.03.18.035.26.01l.36-.09.32.22c.12.08.26.105.39.07l.36-.092.31.22c.12.08.26.108.39.07l.36-.09.31.22c.12.08.26.108.39.07l.36-.09.31.22c.08.055.18.085.27.085l.12-.02.49-.12h.06c.1 0 .2-.03.29-.1.23-.174.28-.52.13-.77l-4.46-7.07c-.075-.13-.194-.21-.33-.23-.132-.03-.27.01-.38.09l-6.314 5.06c-.226.18-.276.53-.11.78.07.11.177.18.29.21l.43.3c.115.08.254.107.387.07l.36-.09.31.22c.11.08.25.105.387.07l.36-.095.32.22c.11.08.25.105.384.07l.36-.093.316.22c.114.08.254.11.39.08l.36-.092.31.22.19.08-.44 2.48c-.23-.12-.53-.25-1.027-.25-.56 0-.87.165-1.11.297-.2.11-.34.188-.67.188s-.47-.075-.67-.18c-.245-.13-.55-.295-1.113-.295-.565 0-.87.167-1.115.3-.196.107-.34.184-.67.184-.327 0-.47-.08-.67-.183-.243-.13-.55-.293-1.11-.293s-.867.16-1.113.293c-.198.104-.34.18-.67.18-.328 0-.47-.08-.67-.183-.244-.13-.55-.293-1.11-.293s-.868.166-1.11.298c-.2.105-.34.18-.67.18s-.47-.075-.67-.18c-.247-.13-.55-.3-1.11-.3-.42 0-.697.09-.91.195.26-.93.67-1.875 1.31-2.66 1.03-1.24 2.494-1.864 4.364-1.864 2.304 0 4.43-.994 5.98-2.797 1.306-1.513 2.11-3.485 2.33-5.644.445.48.735 1.09.83 1.76.11.784-.063 1.563-.49 2.193-.165.246-.12.594.105.778.09.076.19.11.3.11.15 0 .3-.075.4-.222.59-.87.83-1.945.678-3.03-.105-.743-.39-1.43-.814-2.01 1.206-.01 2.365.79 2.818 2.08.08.22.27.357.47.357l.187-.04c.26-.11.39-.43.29-.72-.603-1.71-2.14-2.782-3.74-2.78.796-.815 2.02-1.07 3.125-.545.26.12.56-.01.67-.29.11-.28-.01-.61-.26-.73-1.33-.635-2.8-.413-3.87.44-.168-1.443-1.027-2.775-2.36-3.41-.254-.122-.55.008-.66.29-.11.28.01.607.265.73 1.1.526 1.77 1.687 1.778 2.884-1.092-1.29-2.853-1.79-4.4-1.104-.257.115-.38.44-.277.72.1.28.4.42.654.306 1.16-.515 2.483-.134 3.3.845-.677.054-1.32.3-1.89.725-.82.62-1.37 1.55-1.54 2.62-.05.3.13.59.404.644l.09.01c.24 0 .45-.19.495-.46.13-.774.52-1.446 1.12-1.895.4-.3.86-.48 1.35-.53-.37 4.11-3.22 6.81-7.32 6.81-3.22 0-5.7 1.825-7.17 5.283-.154.37-.29.73-.41 1.09-.19-.07-.43-.13-.75-.13h-.08l.284-4.85c.46-.155.97-.234 1.536-.234 3.276 0 5.23-4.556 5.956-6.63.64.09 1.22.43 1.62.96.39.53.58 1.19.51 1.86-.03.31.173.58.45.61l.05.006c.256 0 .475-.216.5-.5.094-.97-.17-1.926-.74-2.68-.365-.49-.83-.86-1.353-1.097.877-.526 2-.47 2.82.237.22.187.536.145.71-.1.17-.24.13-.59-.09-.78-1.136-.98-2.694-1.06-3.91-.334.09-.262.215-.514.383-.744.41-.57 1-.93 1.67-1.02.273-.04.47-.32.433-.62-.04-.31-.29-.52-.57-.48-.924.13-1.75.63-2.325 1.42-.178.24-.324.5-.44.772-.735-.98-1.92-1.53-3.177-1.355-.273.04-.47.316-.432.62.035.3.286.52.564.48.97-.14 1.89.33 2.39 1.13-1.34-.36-2.83.153-3.702 1.42-.17.24-.13.59.094.773.09.077.2.11.3.11.15 0 .3-.07.4-.213.675-.97 1.85-1.33 2.87-.955-.67 1.68-2.38 5.18-4.99 5.18-.5 0-.974.06-1.423.17l.59-10.06c.51.25.94.66 1.24 1.18.383.67.51 1.466.34 2.23-.066.3.1.6.373.67l.113.016c.22 0 .43-.17.49-.426.22-1.06.05-2.15-.47-3.08-.37-.636-.88-1.145-1.48-1.49 1.1-.54 2.45-.31 3.33.67.1.11.23.17.36.17.13 0 .26-.05.357-.16.195-.215.2-.566 0-.785-1.17-1.31-2.97-1.62-4.44-.92.44-1.097 1.47-1.87 2.67-1.87.28 0 .51-.25.51-.555 0-.3-.224-.55-.5-.55-1.45 0-2.72.85-3.39 2.1-.676-1.25-1.94-2.1-3.395-2.1-.275 0-.5.25-.5.558 0 .31.226.555.504.555 1.2 0 2.233.77 2.67 1.87-1.47-.71-3.27-.395-4.44.91-.2.218-.2.57 0 .785.1.11.226.16.355.16.13 0 .26-.05.36-.16.88-.98 2.23-1.21 3.33-.67-.6.345-1.11.854-1.477 1.49-.53.93-.7 2.02-.47 3.08.05.252.26.424.49.424l.112-.015c.27-.07.44-.37.373-.67-.163-.764-.04-1.555.344-2.23.29-.5.695-.89 1.18-1.15L4.05 139.1c-.43.283-.82.633-1.18 1.054-1.14 1.34-1.877 3.33-2.2 5.91-.12.973-.156 1.84-.162 2.463-.29.195-.486.547-.486.95 0 .613.45 1.11 1.008 1.11h29.93c.558 0 1.01-.497 1.01-1.11 0-.614-.452-1.11-1.01-1.11zm-24.37-1.14c-.044.43-.064.82-.072 1.15h-.147c.052-.33.123-.72.22-1.14zm22.754-4.66l-.36.1-.312-.22c-.115-.08-.254-.1-.386-.07l-.36.1-.312-.22c-.115-.08-.254-.1-.387-.07l-.36.1-.31-.22c-.11-.08-.25-.1-.38-.07l-.36.1-.31-.22c-.11-.08-.25-.1-.38-.07l-.36.09-.31-.22c-.11-.08-.25-.1-.38-.07l-.36.09-.31-.22c-.11-.08-.25-.1-.39-.07l-.36.1-.31-.21c-.11-.08-.25-.11-.38-.074l-.36.09-.31-.22-.16-.07 4.93-3.97 3.49 5.527-.18.01zM8.186 146.5c.198-.106.34-.183.67-.183.328 0 .47.077.67.183.244.132.55.296 1.11.296s.868-.164 1.113-.297c.19-.11.34-.19.67-.19s.47.07.67.18c.24.13.55.29 1.11.29s.86-.17 1.11-.3c.2-.11.34-.19.67-.19s.47.07.67.18c.24.13.55.29 1.11.29s.87-.17 1.11-.3c.19-.11.34-.19.67-.19s.47.07.67.18c.24.13.55.29 1.11.29s.86-.168 1.11-.3c.19-.11.34-.187.67-.187s.47.072.67.18l.16.08-.31 1.753H7.52c.014-.447.05-1.005.143-1.61.22-.06.38-.148.52-.224zm-2.894-.183c.197 0 .326.027.44.073-.195.75-.317 1.423-.392 1.945h-.31l.118-2.012.143-.006zm-2.616 2.018c-.053-.47-.103-1.078-.11-1.748.166.082.37.16.652.193l-.165 1.554h-.376zm1.06-6.69l.032-.04-.433 4.072c-.21-.023-.336-.09-.494-.174l-.24-.123c.1-1.324.4-2.72 1.14-3.736zm-2.228 6.69c.006-.345.023-.76.058-1.217.018.452.052.864.09 1.217h-.15z" fill="#206FAC"/><path d="M14.977 82.893c.363-.335.883-.335 1.244-.03l.02.043c.09.196.26.32.46.32h.07c.2 0 .38-.124.46-.32l.02-.042c.36-.306.88-.306 1.25.03.22.197.53.166.71-.07.18-.234.16-.584-.06-.78-.7-.645-1.68-.677-2.4-.146-.72-.53-1.7-.5-2.4.145-.21.197-.24.547-.06.782s.5.266.71.068zM13.49 85.47c.158-.145.378-.155.543-.04.086.185.26.302.448.302h.05c.19 0 .36-.117.45-.3.17-.116.39-.107.55.04.22.196.53.165.71-.07.18-.235.15-.585-.06-.782-.48-.444-1.14-.49-1.66-.174-.52-.318-1.18-.27-1.66.174-.21.197-.24.548-.06.782.18.235.5.266.71.07zm17.464 22.865H24.66l.27-1.54c.54-.006.837-.165 1.077-.295.198-.106.34-.183.67-.183s.472.077.67.183c.245.133.55.297 1.113.297s.867-.164 1.113-.297c.198-.106.34-.183.67-.183.28 0 .505-.25.505-.556 0-.3-.226-.55-.505-.55-.562 0-.867.17-1.112.3-.19.11-.34.19-.67.19s-.47-.07-.67-.18c-.24-.13-.55-.29-1.11-.29s-.87.17-1.11.3c-.14.08-.26.14-.43.17l.44-2.51c.09.03.18.04.26.01l.36-.09.32.22c.12.08.26.11.39.07l.36-.09.31.22c.12.08.26.11.39.07l.36-.09.31.22c.12.08.26.11.39.07l.36-.09.31.22c.08.06.18.09.27.09l.12-.01.49-.13.06.007c.1 0 .2-.03.29-.096.23-.174.28-.52.13-.77l-4.47-7.1c-.075-.123-.194-.206-.33-.23-.13-.026-.27.01-.38.097l-6.314 5.055c-.225.18-.275.53-.11.778.073.114.178.184.29.214l.43.3c.116.08.255.106.388.07l.36-.09.315.21c.11.08.25.1.384.07l.36-.1.32.22c.12.08.26.1.39.07l.36-.1.32.22c.12.08.26.106.39.07l.36-.094.31.212.19.08-.43 2.48c-.23-.12-.53-.25-1.026-.25-.568 0-.87.163-1.118.295-.2.105-.34.18-.67.18s-.47-.076-.67-.18c-.246-.13-.55-.3-1.114-.3-.566 0-.87.165-1.116.297-.196.1-.34.18-.67.18-.327 0-.47-.08-.67-.187-.243-.13-.55-.295-1.11-.295s-.867.165-1.113.3c-.193.103-.34.18-.67.18-.323 0-.47-.078-.67-.18-.24-.136-.55-.3-1.11-.3s-.863.165-1.11.3c-.2.103-.34.18-.67.18s-.47-.077-.67-.183c-.243-.135-.55-.3-1.11-.3-.415 0-.69.09-.91.19.26-.93.67-1.877 1.317-2.66 1.03-1.24 2.496-1.866 4.366-1.866 2.3 0 4.427-.99 5.98-2.796 1.3-1.51 2.11-3.483 2.327-5.642.446.48.736 1.09.83 1.76.11.784-.062 1.563-.49 2.193-.164.245-.12.593.106.777.09.077.197.11.3.11.156 0 .308-.074.407-.22.59-.87.83-1.947.677-3.03-.11-.745-.39-1.433-.818-2.013 1.204-.01 2.363.79 2.82 2.08.08.22.27.355.47.355l.18-.04c.26-.11.386-.43.286-.72-.6-1.71-2.14-2.78-3.74-2.78.797-.815 2.024-1.07 3.126-.545.258.12.555-.01.665-.29.11-.28-.004-.61-.26-.73-1.33-.634-2.8-.412-3.87.44-.163-1.443-1.02-2.78-2.354-3.41-.256-.122-.553.008-.663.29-.11.28.01.607.26.73 1.1.526 1.77 1.687 1.78 2.884-1.1-1.29-2.86-1.79-4.405-1.1-.257.112-.38.435-.277.72.103.285.4.422.655.31 1.16-.516 2.483-.135 3.3.844-.68.05-1.326.295-1.89.722-.82.617-1.37 1.546-1.54 2.615-.05.3.13.59.403.64l.09.01c.24 0 .45-.19.498-.46.13-.77.53-1.44 1.12-1.89.41-.304.87-.48 1.35-.53-.36 4.11-3.21 6.81-7.32 6.81-3.22 0-5.7 1.826-7.163 5.284-.15.37-.29.73-.41 1.09-.19-.07-.43-.13-.75-.13h-.08l.29-4.85c.46-.153.97-.232 1.54-.232 3.274 0 5.23-4.55 5.954-6.622.64.09 1.22.426 1.62.963.393.526.58 1.186.513 1.86-.03.304.17.577.45.61h.05c.258 0 .477-.21.5-.5.096-.97-.17-1.92-.74-2.68-.363-.484-.83-.86-1.35-1.09.876-.524 2-.47 2.82.24.22.187.535.14.71-.1.17-.24.13-.59-.09-.774-1.137-.98-2.695-1.064-3.913-.34.086-.27.214-.52.382-.75.41-.56 1.004-.924 1.67-1.02.275-.04.47-.32.435-.62-.037-.304-.29-.52-.566-.48-.92.13-1.75.637-2.322 1.424-.18.244-.322.504-.44.776-.733-.976-1.92-1.53-3.175-1.352-.28.04-.47.32-.436.62.036.306.287.52.565.48.97-.14 1.884.33 2.39 1.13-1.345-.36-2.833.16-3.707 1.42-.17.25-.13.598.09.78.098.08.2.117.31.117.15 0 .3-.08.4-.22.67-.975 1.85-1.33 2.87-.956-.67 1.672-2.383 5.18-4.99 5.18-.5 0-.975.053-1.424.17l.59-10.06c.51.25.94.66 1.24 1.18.386.67.51 1.46.344 2.23-.068.293.1.592.37.663l.116.01c.226 0 .433-.17.49-.424.224-1.06.056-2.15-.47-3.075-.37-.64-.876-1.15-1.477-1.49 1.1-.54 2.456-.31 3.336.67.1.11.23.163.36.163.13 0 .26-.05.354-.16.198-.21.2-.566.004-.78-1.17-1.31-2.96-1.62-4.43-.92.43-1.1 1.47-1.87 2.67-1.87.28 0 .5-.25.5-.558 0-.31-.23-.558-.504-.558-1.45 0-2.72.844-3.39 2.1-.675-1.255-1.94-2.1-3.394-2.1-.28 0-.502.246-.502.553 0 .31.22.555.5.555 1.2 0 2.232.78 2.67 1.87-1.47-.7-3.27-.39-4.44.92-.2.22-.197.57 0 .784.1.11.23.16.358.16.13 0 .26-.05.36-.16.88-.98 2.23-1.21 3.333-.67-.6.345-1.1.854-1.47 1.49-.53.93-.693 2.02-.47 3.08.058.253.26.43.49.43l.12-.02c.27-.07.44-.37.376-.664-.16-.767-.04-1.558.344-2.23.29-.507.7-.9 1.18-1.15L4.05 99.07c-.428.284-.82.634-1.18 1.055-1.14 1.34-1.88 3.33-2.2 5.91-.12.97-.16 1.84-.165 2.46-.292.196-.487.55-.487.95 0 .614.45 1.112 1 1.112h29.94c.55 0 1.01-.493 1.01-1.11 0-.61-.45-1.11-1.01-1.11zm-24.37-1.145c-.044.425-.064.812-.072 1.145h-.147c.052-.332.123-.72.22-1.145zm22.754-4.662l-.36.093-.312-.21c-.115-.08-.254-.1-.386-.07l-.36.1-.312-.22c-.115-.08-.254-.1-.387-.07l-.36.09-.31-.22c-.11-.08-.25-.1-.38-.07l-.36.1-.31-.22c-.11-.08-.25-.1-.38-.07l-.36.1-.31-.22c-.11-.08-.25-.1-.38-.07l-.36.09-.31-.22c-.11-.08-.25-.1-.39-.07l-.36.1-.31-.22c-.11-.08-.25-.11-.38-.07l-.36.1-.31-.22-.16-.075L26.04 97l3.487 5.526-.18.01zm-21.152 3.97c.198-.105.34-.182.67-.182.328 0 .47.077.67.183.244.13.55.29 1.11.29s.868-.17 1.113-.3c.19-.11.34-.19.67-.19s.47.07.67.18c.24.13.55.29 1.11.29s.86-.17 1.11-.3c.2-.11.34-.19.67-.19s.47.07.67.18c.24.13.55.29 1.11.29s.87-.17 1.11-.3c.19-.11.34-.19.67-.19s.47.073.67.18c.24.13.55.293 1.11.293s.86-.17 1.11-.3c.19-.11.34-.186.67-.186s.47.077.67.183l.16.08-.31 1.753H7.52c.014-.446.05-1.004.143-1.61.22-.06.38-.146.52-.22zm-2.894-.182c.197 0 .326.027.44.073-.195.75-.317 1.42-.392 1.94h-.31l.118-2.01.143-.01zm-2.616 2.018c-.053-.47-.103-1.078-.11-1.748.166.082.37.16.652.193l-.165 1.55h-.376zm1.06-6.69l.032-.04-.433 4.072c-.21-.023-.336-.09-.494-.174l-.24-.123c.1-1.33.4-2.72 1.14-3.74zm-2.228 6.69c.006-.345.023-.76.058-1.217.018.452.052.864.09 1.217h-.15z" fill="#fff"/><path d="M14.977 42.893c.363-.335.883-.335 1.244-.03l.02.043c.09.196.26.32.46.32h.07c.2 0 .38-.124.46-.32l.02-.042c.36-.306.88-.306 1.25.03.22.197.53.166.71-.07.18-.234.16-.584-.06-.78-.7-.645-1.68-.677-2.4-.146-.72-.53-1.7-.5-2.4.145-.21.197-.24.547-.06.782s.5.266.71.068zM13.49 45.47c.158-.145.378-.155.543-.04.086.185.26.302.448.302h.05c.19 0 .36-.117.45-.3.17-.116.39-.107.55.04.22.196.53.165.71-.07.18-.235.15-.585-.06-.782-.48-.444-1.14-.49-1.66-.174-.52-.318-1.18-.27-1.66.174-.21.197-.24.548-.06.782.18.235.5.266.71.07zm17.464 22.865H24.66l.27-1.54c.54-.006.837-.165 1.077-.295.198-.106.34-.183.67-.183s.472.077.67.183c.245.133.55.297 1.113.297s.867-.164 1.113-.297c.198-.106.34-.183.67-.183.28 0 .505-.25.505-.556 0-.3-.226-.55-.505-.55-.562 0-.867.17-1.112.3-.19.11-.34.19-.67.19s-.47-.07-.67-.18c-.24-.13-.55-.29-1.11-.29s-.87.17-1.11.3c-.14.08-.26.14-.43.17l.44-2.51c.09.03.18.04.26.01l.36-.09.32.22c.12.08.26.11.39.07l.36-.09.31.22c.12.08.26.11.39.07l.36-.09.31.22c.12.08.26.11.39.07l.36-.09.31.22c.08.06.18.09.27.09l.12-.01.49-.13.06.007c.1 0 .2-.03.29-.096.23-.174.28-.52.13-.77l-4.47-7.1c-.075-.123-.194-.206-.33-.23-.13-.026-.27.01-.38.097l-6.314 5.055c-.225.18-.275.53-.11.778.073.114.178.184.29.214l.43.3c.116.08.255.106.388.07l.36-.09.315.21c.11.08.25.1.384.07l.36-.1.32.22c.12.08.26.1.39.07l.36-.1.32.22c.12.08.26.106.39.07l.36-.094.31.212.19.08-.43 2.48c-.23-.12-.53-.25-1.026-.25-.568 0-.87.163-1.118.295-.2.105-.34.18-.67.18s-.47-.076-.67-.18c-.246-.13-.55-.3-1.114-.3-.566 0-.87.165-1.116.297-.196.1-.34.18-.67.18-.327 0-.47-.08-.67-.187-.243-.13-.55-.295-1.11-.295s-.867.165-1.113.3c-.193.103-.34.18-.67.18-.323 0-.47-.078-.67-.18-.24-.136-.55-.3-1.11-.3s-.863.165-1.11.3c-.2.103-.34.18-.67.18s-.47-.077-.67-.183c-.243-.135-.55-.3-1.11-.3-.415 0-.69.09-.91.19.26-.93.67-1.877 1.317-2.66 1.03-1.24 2.496-1.866 4.366-1.866 2.3 0 4.427-.99 5.98-2.796 1.3-1.51 2.11-3.483 2.327-5.642.446.48.736 1.09.83 1.76.11.784-.062 1.563-.49 2.193-.164.245-.12.593.106.777.09.077.197.11.3.11.156 0 .308-.074.407-.22.59-.87.83-1.947.677-3.03-.11-.745-.39-1.433-.818-2.013 1.204-.01 2.363.79 2.82 2.08.08.22.27.355.47.355l.18-.04c.26-.11.386-.43.286-.72-.6-1.71-2.14-2.78-3.74-2.78.797-.815 2.024-1.07 3.126-.545.258.12.555-.01.665-.29.11-.28-.004-.61-.26-.73-1.33-.634-2.8-.412-3.87.44-.163-1.443-1.02-2.78-2.354-3.41-.256-.122-.553.008-.663.29-.11.28.01.607.26.73 1.1.526 1.77 1.687 1.78 2.884-1.1-1.29-2.86-1.79-4.405-1.1-.257.112-.38.435-.277.72.103.285.4.422.655.31 1.16-.516 2.483-.135 3.3.844-.68.05-1.326.295-1.89.722-.82.617-1.37 1.546-1.54 2.615-.05.3.13.59.403.64l.09.01c.24 0 .45-.19.498-.46.13-.77.53-1.44 1.12-1.89.41-.304.87-.48 1.35-.53-.36 4.11-3.21 6.81-7.32 6.81-3.22 0-5.7 1.826-7.163 5.284-.15.37-.29.73-.41 1.09-.19-.07-.43-.13-.75-.13h-.08l.29-4.85c.46-.153.97-.232 1.54-.232 3.274 0 5.23-4.55 5.954-6.622.64.09 1.22.426 1.62.963.393.526.58 1.186.513 1.86-.03.304.17.577.45.61h.05c.258 0 .477-.21.5-.5.096-.97-.17-1.92-.74-2.68-.363-.484-.83-.86-1.35-1.09.876-.524 2-.47 2.82.24.22.187.535.14.71-.1.17-.24.13-.59-.09-.774-1.137-.98-2.695-1.064-3.913-.34.086-.27.214-.52.382-.75.41-.56 1.004-.924 1.67-1.02.275-.04.47-.32.435-.62-.037-.304-.29-.52-.566-.48-.92.13-1.75.637-2.322 1.424-.18.244-.322.504-.44.776-.733-.976-1.92-1.53-3.175-1.352-.28.04-.47.32-.436.62.036.306.287.52.565.48.97-.14 1.884.33 2.39 1.13-1.345-.36-2.833.16-3.707 1.42-.17.25-.13.598.09.78.098.08.2.117.31.117.15 0 .3-.08.4-.22.67-.975 1.85-1.33 2.87-.956-.67 1.672-2.383 5.18-4.99 5.18-.5 0-.975.053-1.424.17l.59-10.06c.51.25.94.66 1.24 1.18.386.67.51 1.46.344 2.23-.068.293.1.592.37.663l.116.01c.226 0 .433-.17.49-.424.224-1.06.056-2.15-.47-3.075-.37-.64-.876-1.15-1.477-1.49 1.1-.54 2.456-.31 3.336.67.1.11.23.163.36.163.13 0 .26-.05.354-.16.198-.21.2-.566.004-.78-1.17-1.31-2.96-1.62-4.43-.92.43-1.1 1.47-1.87 2.67-1.87.28 0 .5-.25.5-.558 0-.31-.23-.558-.504-.558-1.45 0-2.72.844-3.39 2.1-.675-1.255-1.94-2.1-3.394-2.1-.28 0-.502.246-.502.553 0 .31.22.555.5.555 1.2 0 2.232.78 2.67 1.87-1.47-.7-3.27-.39-4.44.92-.2.22-.197.57 0 .784.1.11.23.16.358.16.13 0 .26-.05.36-.16.88-.98 2.23-1.21 3.333-.67-.6.345-1.1.854-1.47 1.49-.53.93-.693 2.02-.47 3.08.058.253.26.43.49.43l.12-.02c.27-.07.44-.37.376-.664-.16-.767-.04-1.558.344-2.23.29-.507.7-.9 1.18-1.15L4.05 59.07c-.428.284-.82.634-1.18 1.055-1.14 1.34-1.88 3.33-2.2 5.91-.12.97-.16 1.84-.165 2.46-.292.196-.487.55-.487.95 0 .614.45 1.112 1 1.112h29.94c.55 0 1.01-.493 1.01-1.11 0-.61-.45-1.11-1.01-1.11zM6.584 67.19c-.044.425-.064.812-.072 1.145h-.147c.052-.332.123-.72.22-1.145zm22.754-4.662l-.36.093-.312-.21c-.115-.08-.254-.1-.386-.07l-.36.1-.312-.22c-.115-.08-.254-.1-.387-.07l-.36.09-.31-.22c-.11-.08-.25-.1-.38-.07l-.36.1-.31-.22c-.11-.08-.25-.1-.38-.07l-.36.1-.31-.22c-.11-.08-.25-.1-.38-.07l-.36.09-.31-.22c-.11-.08-.25-.1-.39-.07l-.36.1-.31-.22c-.11-.08-.25-.11-.38-.07l-.36.1-.31-.22-.16-.075L26.04 57l3.487 5.526-.18.01zm-21.152 3.97c.198-.105.34-.182.67-.182.328 0 .47.077.67.183.244.13.55.29 1.11.29s.868-.17 1.113-.3c.19-.11.34-.19.67-.19s.47.07.67.18c.24.13.55.29 1.11.29s.86-.17 1.11-.3c.2-.11.34-.19.67-.19s.47.07.67.18c.24.13.55.29 1.11.29s.87-.17 1.11-.3c.19-.11.34-.19.67-.19s.47.073.67.18c.24.13.55.293 1.11.293s.86-.17 1.11-.3c.19-.11.34-.186.67-.186s.47.077.67.183l.16.08-.31 1.753H7.52c.014-.446.05-1.004.143-1.61.22-.06.38-.146.52-.22zm-2.894-.182c.197 0 .326.027.44.073-.195.75-.317 1.42-.392 1.94h-.31l.118-2.01.143-.01zm-2.616 2.018c-.053-.47-.103-1.078-.11-1.748.166.082.37.16.652.193l-.165 1.55h-.376zm1.06-6.69l.032-.04-.433 4.072c-.21-.023-.336-.09-.494-.174l-.24-.122c.1-1.324.4-2.72 1.14-3.736zm-2.228 6.69c.006-.345.023-.76.058-1.217.018.452.052.864.09 1.217h-.15z" fill="#67737B"/><path d="M14.977 2.893c.363-.335.883-.335 1.244-.03l.02.043c.09.196.26.32.46.32h.07c.2 0 .38-.124.46-.32l.02-.042c.36-.306.88-.306 1.25.03.22.197.53.166.71-.07.18-.234.16-.584-.06-.78-.7-.645-1.68-.677-2.4-.146-.72-.53-1.7-.5-2.4.145-.21.197-.24.547-.06.782s.5.266.71.068zM13.49 5.47c.158-.145.378-.155.543-.04.086.185.26.302.448.302h.05c.19 0 .36-.117.45-.3.17-.116.39-.107.55.04.22.196.53.165.71-.07.18-.235.15-.585-.06-.782-.48-.444-1.14-.49-1.66-.174-.52-.318-1.18-.27-1.66.174-.21.197-.24.548-.06.782.18.235.5.266.71.07zm17.464 22.865H24.66l.27-1.54c.54-.006.837-.165 1.077-.295.198-.106.34-.183.67-.183s.472.077.67.183c.245.133.55.297 1.113.297s.867-.164 1.113-.297c.198-.106.34-.183.67-.183.28 0 .505-.25.505-.556 0-.3-.226-.55-.505-.55-.562 0-.867.17-1.112.3-.19.11-.34.19-.67.19s-.47-.07-.67-.18c-.24-.13-.55-.29-1.11-.29s-.87.17-1.11.3c-.14.08-.26.14-.43.17l.44-2.51c.09.03.18.04.26.01l.36-.09.32.22c.12.08.26.11.39.07l.36-.09.31.22c.12.08.26.11.39.07l.36-.09.31.22c.12.08.26.11.39.07l.36-.09.31.22c.08.06.18.09.27.09l.12-.01.49-.13.06.007c.1 0 .2-.03.29-.096.23-.174.28-.52.13-.77l-4.47-7.1c-.075-.123-.194-.206-.33-.23-.13-.026-.27.01-.38.097l-6.314 5.055c-.225.18-.275.53-.11.778.073.114.178.184.29.214l.43.3c.116.08.255.106.388.07l.36-.09.315.21c.11.08.25.1.384.07l.36-.1.32.22c.12.08.26.1.39.07l.36-.1.32.22c.12.08.26.106.39.07l.36-.094.31.212.19.08-.43 2.48c-.23-.12-.53-.25-1.026-.25-.568 0-.87.163-1.118.295-.2.105-.34.18-.67.18s-.47-.076-.67-.18c-.246-.13-.55-.3-1.114-.3-.566 0-.87.165-1.116.297-.196.1-.34.18-.67.18-.327 0-.47-.08-.67-.187-.243-.13-.55-.295-1.11-.295s-.867.165-1.113.3c-.193.103-.34.18-.67.18-.323 0-.47-.078-.67-.18-.24-.136-.55-.3-1.11-.3s-.863.165-1.11.3c-.2.103-.34.18-.67.18s-.47-.077-.67-.183c-.243-.135-.55-.3-1.11-.3-.415 0-.69.09-.91.19.26-.93.67-1.877 1.317-2.66 1.03-1.24 2.496-1.866 4.366-1.866 2.3 0 4.427-.99 5.98-2.796 1.3-1.51 2.11-3.483 2.327-5.642.446.48.736 1.09.83 1.76.11.784-.062 1.563-.49 2.193-.164.245-.12.593.106.777.09.077.197.11.3.11.156 0 .308-.074.407-.22.59-.87.83-1.947.677-3.03-.11-.745-.39-1.433-.818-2.013 1.204-.01 2.363.79 2.82 2.08.08.22.27.355.47.355l.18-.04c.26-.11.386-.43.286-.72-.6-1.71-2.14-2.78-3.74-2.78.797-.815 2.024-1.07 3.126-.545.258.12.555-.01.665-.29.11-.28-.004-.61-.26-.73-1.33-.634-2.8-.412-3.87.44-.17-1.443-1.024-2.78-2.36-3.41-.253-.122-.55.008-.66.29-.11.28.007.607.26.73 1.1.526 1.77 1.687 1.78 2.884-1.1-1.29-2.86-1.79-4.403-1.1-.25.112-.38.435-.27.72.105.285.4.422.657.31 1.16-.516 2.485-.135 3.3.844-.67.05-1.32.295-1.89.722-.82.615-1.366 1.54-1.54 2.61-.05.305.133.59.41.647l.09.01c.24 0 .45-.19.49-.46.128-.773.524-1.445 1.12-1.894.4-.3.865-.48 1.348-.53-.36 4.11-3.21 6.81-7.32 6.81-3.22 0-5.7 1.826-7.167 5.284-.152.37-.29.73-.41 1.09-.19-.07-.43-.127-.75-.127h-.08l.29-4.85c.46-.16.97-.238 1.536-.238 3.27 0 5.23-4.55 5.95-6.628.64.086 1.22.424 1.62.96.39.53.58 1.19.51 1.86-.026.305.175.58.45.61h.054c.253 0 .47-.21.5-.496.09-.97-.17-1.922-.74-2.68-.37-.486-.83-.857-1.356-1.092.877-.527 2-.47 2.82.236.22.186.54.144.71-.098.17-.24.133-.59-.087-.78-1.14-.98-2.697-1.065-3.915-.34.088-.267.216-.52.384-.75.41-.563 1.003-.925 1.67-1.02.274-.04.47-.32.434-.62-.037-.305-.29-.52-.566-.48-.92.13-1.75.636-2.328 1.423-.178.245-.324.505-.44.777-.735-.975-1.92-1.53-3.177-1.35-.275.04-.47.32-.434.623.036.3.287.52.565.48.97-.14 1.885.33 2.39 1.13-1.345-.36-2.83.157-3.71 1.42-.17.245-.12.594.1.78.09.076.2.113.305.113.15 0 .3-.076.4-.22.672-.972 1.85-1.33 2.87-.953-.67 1.67-2.385 5.176-4.99 5.176-.5 0-.977.06-1.426.17L6.26 8.3c.513.256.94.66 1.24 1.18.387.676.51 1.467.345 2.23-.07.3.1.6.37.67l.12.017c.222 0 .43-.17.49-.42.22-1.06.052-2.15-.47-3.08-.37-.64-.88-1.15-1.48-1.49 1.1-.546 2.453-.31 3.333.67.1.11.23.162.36.162.125 0 .253-.05.35-.16.196-.215.2-.566 0-.785C9.753 6 7.96 5.69 6.49 6.39c.436-1.1 1.47-1.87 2.67-1.87.28 0 .505-.25.505-.558 0-.307-.227-.555-.505-.555-1.45 0-2.72.844-3.39 2.1-.67-1.255-1.94-2.1-3.39-2.1-.28 0-.5.246-.5.553 0 .307.23.555.507.555 1.2 0 2.234.77 2.67 1.87-1.483-.704-3.28-.39-4.45.916-.2.22-.196.57 0 .79.1.11.23.16.358.16.13 0 .26-.05.36-.16.88-.98 2.23-1.21 3.33-.67-.6.35-1.11.86-1.47 1.49-.53.93-.7 2.02-.47 3.08.052.26.26.43.49.43l.112-.01c.27-.07.44-.37.38-.67-.16-.77-.04-1.56.345-2.23.29-.5.694-.9 1.18-1.15L4.05 19.08c-.426.283-.82.633-1.18 1.054-1.14 1.34-1.88 3.33-2.2 5.91-.12.974-.158 1.84-.164 2.464-.292.196-.487.548-.487.95 0 .614.45 1.112 1 1.112h29.94c.55 0 1.01-.498 1.01-1.11 0-.615-.45-1.112-1.01-1.112zM6.584 27.19c-.044.425-.064.812-.072 1.145h-.147c.052-.332.123-.72.22-1.145zm22.754-4.662l-.36.093-.312-.21c-.115-.08-.254-.1-.386-.07l-.36.1-.312-.22c-.115-.08-.254-.1-.387-.07l-.36.09-.31-.22c-.11-.08-.25-.1-.38-.07l-.36.1-.31-.22c-.11-.08-.25-.1-.38-.07l-.36.1-.31-.22c-.11-.08-.25-.1-.38-.07l-.36.09-.31-.22c-.11-.08-.25-.1-.39-.07l-.36.1-.31-.22c-.11-.08-.25-.11-.38-.07l-.36.1-.31-.22-.16-.075L26.04 17l3.487 5.526-.18.01zm-21.152 3.97c.198-.105.34-.182.67-.182.328 0 .47.077.67.183.244.13.55.29 1.11.29s.868-.17 1.113-.3c.19-.11.34-.19.67-.19s.47.07.67.18c.24.13.55.29 1.11.29s.86-.17 1.11-.3c.2-.11.34-.19.67-.19s.47.07.67.18c.24.13.55.29 1.11.29s.87-.17 1.11-.3c.19-.11.34-.19.67-.19s.47.073.67.18c.24.13.55.293 1.11.293s.86-.17 1.11-.3c.19-.11.34-.186.67-.186s.47.077.67.183l.16.08-.31 1.753H7.52c.014-.446.05-1.004.143-1.61.22-.06.38-.146.52-.22zm-2.894-.182c.197 0 .326.027.44.073-.195.75-.317 1.42-.392 1.94h-.31l.118-2.01.143-.01zm-2.616 2.018c-.053-.47-.103-1.078-.11-1.748.166.082.37.16.652.193l-.165 1.55h-.376zm1.06-6.69l.032-.04-.433 4.072c-.21-.023-.336-.09-.494-.174l-.24-.122c.1-1.324.4-2.72 1.14-3.736zm-2.228 6.69c.006-.345.023-.76.058-1.217.018.452.052.864.09 1.217h-.15z" fill="#3A434E"/></g></svg>