<svg width="32" height="232" viewBox="0 0 32 232" xmlns="http://www.w3.org/2000/svg"><desc>Created with Sketch.</desc><g fill="none"><path d="M14.977 122.893c.363-.335.883-.335 1.244-.03l.02.043c.083.196.26.32.457.32h.07c.195 0 .373-.124.456-.32l.017-.042c.36-.306.88-.306 1.244.03.214.197.532.166.71-.07.18-.234.153-.584-.06-.78-.698-.645-1.68-.677-2.4-.146-.722-.53-1.703-.5-2.4.145-.212.197-.24.547-.06.782s.496.266.71.068zm-1.487 2.578c.158-.142.378-.152.543-.04.086.188.26.305.448.305h.048c.19 0 .362-.117.448-.3.164-.116.385-.107.543.04.212.196.53.165.71-.07.18-.235.15-.585-.063-.782-.48-.443-1.145-.49-1.662-.173-.518-.32-1.182-.27-1.662.173-.212.198-.24.55-.06.783.18.235.496.266.71.07zm17.464 22.868H24.66l.27-1.54c.54-.006.837-.165 1.077-.295.198-.105.34-.182.67-.182s.472.078.67.184c.245.134.55.298 1.113.298s.867-.163 1.113-.296c.198-.105.34-.182.67-.182.28 0 .505-.25.505-.556 0-.306-.226-.554-.505-.554-.562 0-.867.165-1.112.297-.194.106-.34.183-.67.183s-.47-.077-.67-.183c-.24-.133-.55-.298-1.11-.298s-.87.165-1.11.297c-.145.075-.26.14-.438.164l.44-2.514c.085.028.174.034.26.01l.36-.09.313.22c.115.08.254.104.387.07l.36-.093.31.22c.115.08.254.105.387.07l.36-.093.31.22c.113.08.253.104.385.07l.36-.094.312.22c.082.056.175.086.27.086l.116-.015.49-.126.06.003c.1 0 .2-.03.286-.098.23-.176.283-.52.124-.774L26.57 135.9c-.076-.124-.195-.207-.33-.23-.133-.027-.27.01-.38.096l-6.315 5.055c-.225.18-.275.53-.11.777.073.112.178.182.29.212l.43.3c.116.08.255.106.388.07l.36-.09.312.217c.114.08.254.107.386.073l.36-.096.316.22c.115.08.254.105.387.07l.36-.093.313.22c.115.08.255.11.387.074l.36-.093.31.22.19.08-.435 2.48c-.23-.12-.528-.25-1.026-.25-.564 0-.87.164-1.114.296-.198.106-.34.183-.67.183s-.47-.078-.67-.184c-.245-.132-.55-.297-1.113-.297-.562 0-.867.164-1.112.296-.196.106-.34.183-.67.183-.327 0-.47-.078-.67-.184-.243-.132-.55-.297-1.11-.297s-.867.164-1.113.296c-.198.106-.34.183-.67.183-.328 0-.47-.078-.67-.184-.244-.132-.55-.297-1.11-.297s-.868.164-1.113.296c-.198.106-.34.183-.67.183s-.47-.078-.67-.184c-.245-.132-.55-.297-1.112-.297-.417 0-.693.09-.91.192.26-.93.67-1.874 1.315-2.656 1.024-1.24 2.492-1.867 4.362-1.867 2.303 0 4.427-.995 5.982-2.798 1.303-1.514 2.11-3.486 2.327-5.645.445.48.735 1.09.83 1.76.11.786-.063 1.565-.49 2.195-.165.245-.12.593.105.777.09.073.196.11.3.11.155 0 .307-.078.406-.225.59-.87.83-1.947.677-3.028-.105-.746-.387-1.434-.814-2.014 1.206-.01 2.365.79 2.818 2.08.078.22.27.354.47.354l.183-.037c.26-.112.388-.433.288-.72-.603-1.712-2.14-2.785-3.74-2.783.796-.815 2.023-1.07 3.125-.545.256.12.553-.01.663-.29.11-.28-.007-.608-.262-.73-1.332-.636-2.8-.414-3.87.44-.165-1.444-1.024-2.776-2.356-3.41-.257-.123-.554.007-.664.29-.11.28.007.606.262.73 1.103.525 1.772 1.686 1.778 2.883-1.095-1.29-2.856-1.788-4.403-1.102-.257.116-.38.44-.277.724.104.285.398.422.656.308 1.16-.514 2.486-.133 3.302.846-.675.054-1.323.298-1.89.725-.82.616-1.367 1.545-1.54 2.614-.05.3.132.59.406.643l.09.01c.24 0 .452-.19.496-.46.126-.772.522-1.444 1.118-1.893.403-.303.865-.482 1.348-.528-.364 4.11-3.214 6.81-7.32 6.81-3.222 0-5.7 1.825-7.166 5.283-.155.367-.29.73-.41 1.087-.19-.07-.43-.127-.753-.127h-.08l.286-4.85c.46-.155.97-.234 1.536-.234 3.272 0 5.23-4.552 5.952-6.625.644.088 1.22.426 1.622.963.395.527.58 1.187.515 1.86-.028.305.173.578.45.61l.052.002c.254 0 .473-.213.5-.5.092-.97-.17-1.923-.74-2.68-.367-.488-.83-.86-1.355-1.094.876-.526 2-.47 2.818.237.22.187.537.145.71-.097.17-.24.132-.59-.088-.778-1.137-.98-2.695-1.062-3.913-.338.086-.266.214-.518.382-.748.412-.563 1.005-.925 1.67-1.02.276-.04.47-.318.436-.62-.036-.305-.287-.52-.565-.48-.924.13-1.75.636-2.325 1.423-.178.243-.324.503-.44.775-.735-.977-1.92-1.532-3.177-1.353-.276.04-.47.318-.435.622.036.302.287.52.565.48.973-.14 1.886.33 2.392 1.13-1.345-.36-2.833.158-3.707 1.423-.17.243-.126.592.096.777.093.077.2.114.307.114.15 0 .3-.075.4-.218.672-.973 1.85-1.33 2.87-.954-.67 1.675-2.385 5.18-4.99 5.18-.5 0-.977.056-1.426.17l.59-10.06c.512.252.94.66 1.24 1.18.386.672.508 1.463.344 2.23-.064.296.104.595.375.666l.115.015c.227 0 .434-.17.49-.427.225-1.057.057-2.15-.47-3.075-.368-.636-.875-1.145-1.476-1.49 1.102-.54 2.455-.31 3.335.67.098.11.228.168.36.168.127 0 .255-.052.353-.16.198-.214.2-.565.004-.784-1.17-1.307-2.967-1.62-4.437-.917.436-1.097 1.47-1.87 2.67-1.87.28 0 .505-.25.505-.555 0-.306-.226-.554-.504-.554-1.45 0-2.72.846-3.39 2.1-.674-1.253-1.94-2.1-3.393-2.1-.278 0-.504.248-.504.555 0 .308.226.556.504.556 1.202 0 2.236.772 2.673 1.87-1.47-.706-3.267-.393-4.438.915-.198.217-.196.57.002.784.098.107.226.16.355.16.13 0 .26-.055.36-.165.88-.982 2.232-1.212 3.334-.672-.6.344-1.107.853-1.473 1.49-.53.926-.698 2.02-.47 3.076.053.255.26.427.49.427l.115-.015c.27-.07.44-.37.375-.67-.164-.765-.042-1.556.343-2.23.29-.5.698-.894 1.184-1.15l-1.14 10.72c-.427.282-.82.632-1.18 1.053-1.137 1.34-1.876 3.33-2.197 5.91-.12.973-.158 1.84-.164 2.463-.292.196-.487.548-.487.95 0 .614.45 1.112 1.007 1.112H30.96c.557 0 1.01-.498 1.01-1.11 0-.615-.453-1.112-1.01-1.112zm-24.37-1.145c-.044.426-.064.813-.072 1.146h-.147c.052-.333.123-.72.22-1.146zm22.754-4.66l-.36.092-.312-.218c-.115-.08-.254-.106-.386-.072l-.36.093-.312-.218c-.115-.08-.254-.108-.387-.073l-.36.093-.31-.22c-.112-.08-.252-.105-.384-.07l-.36.093-.312-.22c-.113-.08-.253-.106-.385-.07l-.36.093-.313-.22c-.115-.08-.255-.106-.386-.07l-.36.092-.312-.22c-.115-.08-.254-.105-.387-.07l-.36.093-.31-.216c-.115-.082-.255-.108-.387-.074l-.36.093-.312-.22-.166-.072 4.942-3.953 3.485 5.525-.18.01zM8.186 146.5c.198-.106.34-.183.67-.183.328 0 .47.077.67.183.244.132.55.296 1.11.296s.868-.164 1.113-.297c.194-.11.34-.187.67-.187s.47.077.67.183c.24.132.55.296 1.11.296s.866-.164 1.11-.297c.2-.107.34-.184.67-.184s.47.078.67.184c.246.132.55.296 1.113.296s.868-.163 1.113-.296c.197-.107.34-.184.668-.184.33 0 .472.078.67.184.245.132.55.296 1.112.296s.867-.164 1.112-.297c.197-.107.34-.184.67-.184s.47.074.67.18l.16.082-.31 1.753H7.522c.014-.447.052-1.005.143-1.612.22-.06.38-.147.52-.223zm-2.894-.183c.197 0 .326.027.44.073-.195.75-.317 1.423-.392 1.945h-.31l.118-2.012.143-.006zm-2.616 2.018c-.053-.47-.103-1.078-.11-1.748.166.082.37.16.652.193l-.165 1.554h-.376zm1.06-6.69l.032-.04-.433 4.072c-.21-.023-.336-.09-.494-.174l-.24-.123c.094-1.324.397-2.72 1.14-3.736zm-2.228 6.69c.006-.345.023-.76.058-1.217.018.452.052.864.09 1.217h-.15z" fill="#206FAC"/><path d="M14.977 82.893c.363-.335.883-.335 1.244-.03l.02.043c.083.196.26.32.457.32h.07c.195 0 .373-.124.456-.32l.017-.042c.36-.306.88-.306 1.244.03.214.197.532.166.71-.07.18-.234.153-.584-.06-.78-.698-.645-1.68-.677-2.4-.146-.722-.53-1.703-.5-2.4.145-.212.197-.24.547-.06.782s.496.266.71.068zM13.49 85.47c.158-.145.378-.155.543-.04.086.185.26.302.448.302h.048c.19 0 .362-.117.448-.3.164-.116.385-.107.543.04.212.196.53.165.71-.07.18-.235.15-.585-.063-.782-.48-.444-1.145-.49-1.662-.174-.518-.318-1.182-.27-1.662.174-.212.197-.24.548-.06.782.18.235.496.266.71.07zm17.464 22.865H24.66l.27-1.54c.54-.006.837-.165 1.077-.295.198-.106.34-.183.67-.183s.472.077.67.183c.245.133.55.297 1.113.297s.867-.164 1.113-.297c.198-.106.34-.183.67-.183.28 0 .505-.25.505-.556 0-.303-.226-.55-.505-.55-.562 0-.867.164-1.112.296-.194.106-.34.183-.67.183s-.47-.078-.67-.184c-.24-.132-.55-.297-1.11-.297s-.87.164-1.11.296c-.145.077-.26.14-.438.166l.44-2.514c.085.027.174.033.26.01l.36-.092.313.22c.115.08.254.105.387.07l.36-.092.31.22c.115.08.254.106.387.07l.36-.092.31.22c.113.08.253.105.385.07l.36-.093.312.22c.082.055.175.085.27.085l.116-.014.49-.13.06.006c.1 0 .2-.03.286-.098.23-.175.283-.52.124-.773L26.57 95.9c-.076-.123-.195-.206-.33-.23-.133-.026-.27.01-.38.097l-6.315 5.055c-.225.18-.275.527-.11.774.073.112.178.182.29.212l.43.302c.116.08.255.106.388.072l.36-.093.312.216c.114.08.254.107.386.073l.36-.095.316.22c.115.08.254.105.387.07l.36-.093.313.22c.115.08.255.108.387.073l.36-.093.31.217.19.08-.435 2.48c-.23-.12-.528-.25-1.026-.25-.564 0-.87.164-1.114.296-.198.106-.34.183-.67.183s-.47-.078-.67-.184c-.245-.132-.55-.297-1.113-.297-.562 0-.867.164-1.112.296-.196.106-.34.183-.67.183-.327 0-.47-.078-.67-.184-.243-.132-.55-.297-1.11-.297s-.867.164-1.113.296c-.198.106-.34.183-.67.183-.328 0-.47-.078-.67-.184-.244-.132-.55-.297-1.11-.297s-.868.164-1.113.296c-.198.106-.34.183-.67.183s-.47-.078-.67-.184c-.245-.132-.55-.297-1.112-.297-.417 0-.693.09-.91.192.26-.93.67-1.876 1.315-2.658 1.024-1.24 2.492-1.867 4.362-1.867 2.303 0 4.427-.994 5.982-2.797 1.303-1.512 2.11-3.484 2.327-5.643.445.48.735 1.09.83 1.76.11.786-.063 1.565-.49 2.195-.165.244-.12.592.105.776.09.074.196.11.3.11.155 0 .307-.077.406-.224.59-.87.83-1.947.677-3.028-.105-.746-.387-1.434-.814-2.014 1.206-.012 2.365.79 2.818 2.078.078.22.27.354.47.354l.183-.037c.26-.112.388-.433.288-.72-.603-1.712-2.14-2.785-3.74-2.783.796-.815 2.023-1.07 3.125-.545.256.12.553-.01.663-.29.11-.28-.007-.61-.262-.73-1.332-.637-2.8-.415-3.87.44-.165-1.446-1.024-2.778-2.356-3.413-.257-.122-.554.008-.664.29-.11.28.007.607.262.73 1.103.526 1.772 1.687 1.778 2.884-1.095-1.29-2.856-1.786-4.403-1.1-.257.115-.38.438-.277.723.104.285.398.422.656.308 1.16-.514 2.486-.133 3.302.846-.675.053-1.323.297-1.89.724-.82.616-1.367 1.545-1.54 2.614-.05.302.132.59.406.644l.09.01c.24 0 .452-.19.496-.46.126-.772.522-1.444 1.118-1.893.403-.303.865-.482 1.348-.528-.364 4.11-3.214 6.81-7.32 6.81-3.222 0-5.7 1.826-7.166 5.284-.155.368-.29.73-.41 1.088-.19-.07-.43-.127-.753-.127h-.08l.286-4.85c.46-.155.97-.234 1.536-.234 3.272 0 5.23-4.552 5.952-6.625.644.088 1.22.426 1.622.963.395.527.58 1.187.515 1.86-.028.305.173.578.45.61l.052.002c.254 0 .473-.212.5-.498.092-.972-.17-1.924-.74-2.682-.367-.487-.83-.858-1.355-1.093.876-.524 2-.47 2.818.24.22.187.537.145.71-.097.17-.24.132-.59-.088-.778-1.137-.98-2.695-1.062-3.913-.338.086-.267.214-.52.382-.75.412-.562 1.005-.924 1.67-1.02.276-.04.47-.317.436-.62-.036-.304-.287-.52-.565-.48-.924.13-1.75.637-2.325 1.424-.178.243-.324.503-.44.775-.735-.978-1.92-1.533-3.177-1.354-.276.04-.47.318-.435.622.036.304.287.52.565.48.973-.14 1.886.332 2.392 1.133-1.345-.36-2.833.157-3.707 1.42-.17.245-.126.594.096.78.093.076.2.113.307.113.15 0 .3-.075.4-.218.672-.973 1.85-1.33 2.87-.954-.67 1.675-2.385 5.18-4.99 5.18-.5 0-.977.056-1.426.17l.59-10.06c.512.252.94.66 1.24 1.18.386.672.508 1.463.344 2.23-.064.296.104.595.375.666l.115.015c.227 0 .434-.17.49-.427.225-1.057.057-2.15-.47-3.075-.368-.638-.875-1.147-1.476-1.49 1.102-.542 2.455-.31 3.335.67.098.11.228.166.36.166.127 0 .255-.052.353-.16.198-.214.2-.565.004-.784-1.168-1.31-2.964-1.62-4.434-.92.436-1.097 1.47-1.87 2.67-1.87.28 0 .505-.25.505-.555 0-.307-.226-.555-.504-.555-1.45 0-2.72.846-3.39 2.1-.674-1.253-1.94-2.1-3.393-2.1-.278 0-.504.248-.504.555 0 .307.226.555.504.555 1.202 0 2.236.773 2.673 1.87-1.47-.705-3.266-.392-4.437.916-.197.218-.195.57.003.785.098.11.226.16.355.16.13 0 .26-.052.36-.162.88-.983 2.234-1.213 3.336-.673-.6.344-1.108.853-1.474 1.49-.53.926-.697 2.02-.47 3.076.054.257.26.43.49.43l.116-.015c.27-.07.44-.37.375-.668-.163-.765-.04-1.556.344-2.228.29-.504.697-.897 1.183-1.15L4.05 99.075c-.427.283-.82.633-1.18 1.054-1.14 1.34-1.88 3.33-2.2 5.91-.12.974-.158 1.84-.164 2.464-.292.196-.487.548-.487.95 0 .614.45 1.112 1.005 1.112h29.938c.556 0 1.008-.498 1.008-1.11 0-.615-.45-1.112-1.007-1.112zm-24.37-1.145c-.044.425-.064.812-.072 1.145h-.147c.052-.332.123-.72.22-1.145zm22.754-4.662l-.36.093-.312-.215c-.115-.08-.254-.106-.386-.072l-.36.094-.312-.218c-.115-.08-.254-.108-.387-.073l-.36.093-.31-.22c-.112-.08-.252-.106-.384-.07l-.36.092-.312-.22c-.113-.08-.253-.107-.385-.072l-.36.094-.313-.22c-.115-.08-.255-.106-.386-.07l-.36.092-.312-.22c-.115-.08-.254-.105-.387-.07l-.36.093-.31-.22c-.115-.083-.255-.11-.387-.075l-.36.094-.312-.22-.166-.074 4.942-3.955 3.485 5.526-.18.01zm-21.152 3.97c.198-.105.34-.182.67-.182.328 0 .47.077.67.183.244.13.55.293 1.11.293s.868-.164 1.113-.297c.194-.107.34-.184.67-.184s.47.077.67.183c.24.132.55.296 1.11.296s.866-.163 1.11-.296c.2-.107.34-.184.67-.184s.47.078.67.184c.246.132.55.296 1.113.296s.868-.163 1.113-.296c.197-.107.34-.184.668-.184.33 0 .472.077.67.183.245.132.55.296 1.112.296s.867-.167 1.112-.3c.197-.107.34-.184.67-.184s.47.077.67.183l.16.082-.31 1.753H7.522c.014-.447.052-1.005.143-1.612.22-.06.38-.147.52-.223zm-2.894-.182c.197 0 .326.027.44.073-.195.75-.317 1.42-.392 1.942h-.31l.118-2.012.143-.005zm-2.616 2.018c-.053-.47-.103-1.078-.11-1.748.166.082.37.16.652.193l-.165 1.55h-.376zm1.06-6.69l.032-.04-.433 4.072c-.21-.023-.336-.09-.494-.174l-.24-.123c.094-1.327.397-2.72 1.14-3.74zm-2.228 6.69c.006-.345.023-.76.058-1.217.018.452.052.864.09 1.217h-.15z" fill="#fff"/><path d="M14.977 42.893c.363-.335.883-.335 1.244-.03l.02.043c.083.196.26.32.457.32h.07c.195 0 .373-.124.456-.32l.017-.042c.36-.306.88-.306 1.244.03.214.197.532.166.71-.07.18-.234.153-.584-.06-.78-.698-.645-1.68-.677-2.4-.146-.722-.53-1.703-.5-2.4.145-.212.197-.24.547-.06.782s.496.266.71.068zM13.49 45.47c.158-.145.378-.155.543-.04.086.185.26.302.448.302h.048c.19 0 .362-.117.448-.3.164-.116.385-.107.543.04.212.196.53.165.71-.07.18-.235.15-.585-.063-.782-.48-.444-1.145-.49-1.662-.174-.518-.318-1.182-.27-1.662.174-.212.197-.24.548-.06.782.18.235.496.266.71.07zm17.464 22.865H24.66l.27-1.54c.54-.006.837-.165 1.077-.295.198-.106.34-.183.67-.183s.472.077.67.183c.245.133.55.297 1.113.297s.867-.164 1.113-.297c.198-.106.34-.183.67-.183.28 0 .505-.25.505-.556 0-.303-.226-.55-.505-.55-.562 0-.867.164-1.112.296-.194.106-.34.183-.67.183s-.47-.078-.67-.184c-.24-.132-.55-.297-1.11-.297s-.87.164-1.11.296c-.145.077-.26.14-.438.166l.44-2.514c.085.027.174.033.26.01l.36-.092.313.22c.115.08.254.105.387.07l.36-.092.31.22c.115.08.254.106.387.07l.36-.092.31.22c.113.08.253.105.385.07l.36-.093.312.22c.082.055.175.085.27.085l.116-.014.49-.13.06.006c.1 0 .2-.03.286-.098.23-.175.283-.52.124-.773L26.57 55.9c-.076-.123-.195-.206-.33-.23-.133-.026-.27.01-.38.097l-6.315 5.055c-.225.18-.275.527-.11.774.073.112.178.182.29.212l.43.302c.116.08.255.106.388.072l.36-.093.312.216c.114.08.254.107.386.073l.36-.095.316.22c.115.08.254.105.387.07l.36-.093.313.22c.115.08.255.108.387.073l.36-.093.31.217.19.08-.435 2.48c-.23-.12-.528-.25-1.026-.25-.564 0-.87.164-1.114.296-.198.106-.34.183-.67.183s-.47-.078-.67-.184c-.245-.132-.55-.297-1.113-.297-.562 0-.867.164-1.112.296-.196.106-.34.183-.67.183-.327 0-.47-.078-.67-.184-.243-.132-.55-.297-1.11-.297s-.867.164-1.113.296c-.198.106-.34.183-.67.183-.328 0-.47-.078-.67-.184-.244-.132-.55-.297-1.11-.297s-.868.164-1.113.296c-.198.106-.34.183-.67.183s-.47-.078-.67-.184c-.245-.132-.55-.297-1.112-.297-.417 0-.693.09-.91.192.26-.93.67-1.876 1.315-2.658 1.024-1.24 2.492-1.867 4.362-1.867 2.303 0 4.427-.994 5.982-2.797 1.303-1.512 2.11-3.484 2.327-5.643.445.48.735 1.09.83 1.76.11.786-.063 1.565-.49 2.195-.165.244-.12.592.105.776.09.074.196.11.3.11.155 0 .307-.077.406-.224.59-.87.83-1.947.677-3.028-.105-.746-.387-1.434-.814-2.014 1.206-.012 2.365.79 2.818 2.078.078.22.27.354.47.354l.183-.037c.26-.112.388-.433.288-.72-.603-1.712-2.14-2.785-3.74-2.783.796-.815 2.023-1.07 3.125-.545.256.12.553-.01.663-.29.11-.28-.007-.61-.262-.73-1.332-.637-2.8-.415-3.87.44-.165-1.446-1.024-2.778-2.356-3.413-.257-.122-.554.008-.664.29-.11.28.007.607.262.73 1.103.526 1.772 1.687 1.778 2.884-1.095-1.29-2.856-1.786-4.403-1.1-.257.115-.38.438-.277.723.104.285.398.422.656.308 1.16-.514 2.486-.133 3.302.846-.675.053-1.323.297-1.89.724-.82.616-1.367 1.545-1.54 2.614-.05.302.132.59.406.644l.09.01c.24 0 .452-.19.496-.46.126-.772.522-1.444 1.118-1.893.403-.303.865-.482 1.348-.528-.364 4.11-3.214 6.81-7.32 6.81-3.222 0-5.7 1.826-7.166 5.284-.155.368-.29.73-.41 1.088-.19-.07-.43-.127-.753-.127h-.08l.286-4.85c.46-.155.97-.234 1.536-.234 3.272 0 5.23-4.552 5.952-6.625.644.088 1.22.426 1.622.963.395.527.58 1.187.515 1.86-.028.305.173.578.45.61l.052.002c.254 0 .473-.212.5-.498.092-.972-.17-1.924-.74-2.682-.367-.487-.83-.858-1.355-1.093.876-.524 2-.47 2.818.24.22.187.537.145.71-.097.17-.24.132-.59-.088-.778-1.137-.98-2.695-1.062-3.913-.338.086-.267.214-.52.382-.75.412-.562 1.005-.924 1.67-1.02.276-.04.47-.317.436-.62-.036-.304-.287-.52-.565-.48-.924.13-1.75.637-2.325 1.424-.178.243-.324.503-.44.775-.735-.978-1.92-1.533-3.177-1.354-.276.04-.47.318-.435.622.036.304.287.52.565.48.973-.14 1.886.332 2.392 1.133-1.345-.36-2.833.157-3.707 1.42-.17.245-.126.594.096.78.093.076.2.113.307.113.15 0 .3-.075.4-.218.672-.973 1.85-1.33 2.87-.954-.67 1.675-2.385 5.18-4.99 5.18-.5 0-.977.056-1.426.17l.59-10.06c.512.252.94.66 1.24 1.18.386.672.508 1.463.344 2.23-.064.296.104.595.375.666l.115.015c.227 0 .434-.17.49-.427.225-1.057.057-2.15-.47-3.075-.368-.638-.875-1.147-1.476-1.49 1.102-.542 2.455-.31 3.335.67.098.11.228.166.36.166.127 0 .255-.052.353-.16.198-.214.2-.565.004-.784-1.168-1.31-2.964-1.62-4.434-.92.436-1.097 1.47-1.87 2.67-1.87.28 0 .505-.25.505-.555 0-.307-.226-.555-.504-.555-1.45 0-2.72.846-3.39 2.1-.674-1.253-1.94-2.1-3.393-2.1-.278 0-.504.248-.504.555 0 .307.226.555.504.555 1.202 0 2.236.773 2.673 1.87-1.47-.705-3.266-.392-4.437.916-.197.218-.195.57.003.785.098.11.226.16.355.16.13 0 .26-.052.36-.162.88-.983 2.234-1.213 3.336-.673-.6.344-1.108.853-1.474 1.49-.53.926-.697 2.02-.47 3.076.054.257.26.43.49.43l.116-.015c.27-.07.44-.37.375-.668-.163-.765-.04-1.556.344-2.228.29-.504.697-.897 1.183-1.15L4.05 59.075c-.427.283-.82.633-1.18 1.054-1.14 1.34-1.88 3.33-2.2 5.91-.12.974-.158 1.84-.164 2.464-.292.196-.487.548-.487.95 0 .614.45 1.112 1.005 1.112h29.938c.556 0 1.008-.498 1.008-1.11 0-.615-.45-1.112-1.007-1.112zM6.584 67.19c-.044.425-.064.812-.072 1.145h-.147c.052-.332.123-.72.22-1.145zm22.754-4.662l-.36.093-.312-.215c-.115-.08-.254-.106-.386-.072l-.36.094-.312-.218c-.115-.08-.254-.108-.387-.073l-.36.093-.31-.22c-.112-.08-.252-.106-.384-.07l-.36.092-.312-.22c-.113-.08-.253-.107-.385-.072l-.36.094-.313-.22c-.115-.08-.255-.106-.386-.07l-.36.092-.312-.22c-.115-.08-.254-.105-.387-.07l-.36.093-.31-.22c-.115-.083-.255-.11-.387-.075l-.36.094-.312-.22-.166-.074 4.942-3.955 3.485 5.526-.18.01zm-21.152 3.97c.198-.105.34-.182.67-.182.328 0 .47.077.67.183.244.13.55.293 1.11.293s.868-.164 1.113-.297c.194-.107.34-.184.67-.184s.47.077.67.183c.24.132.55.296 1.11.296s.866-.163 1.11-.296c.2-.107.34-.184.67-.184s.47.078.67.184c.246.132.55.296 1.113.296s.868-.163 1.113-.296c.197-.107.34-.184.668-.184.33 0 .472.077.67.183.245.132.55.296 1.112.296s.867-.167 1.112-.3c.197-.107.34-.184.67-.184s.47.077.67.183l.16.082-.31 1.753H7.522c.014-.447.052-1.005.143-1.612.22-.06.38-.147.52-.223zm-2.894-.182c.197 0 .326.027.44.073-.195.75-.317 1.42-.392 1.942h-.31l.118-2.012.143-.005zm-2.616 2.018c-.053-.47-.103-1.078-.11-1.748.166.082.37.16.652.193l-.165 1.55h-.376zm1.06-6.69l.032-.04-.433 4.072c-.21-.023-.336-.09-.494-.174l-.24-.122c.095-1.324.398-2.72 1.14-3.736zm-2.228 6.69c.006-.345.023-.76.058-1.217.018.452.052.864.09 1.217h-.15z" fill="#67737B"/><path d="M14.977 2.893c.363-.335.883-.335 1.244-.03l.02.043c.083.196.26.32.457.32h.07c.195 0 .373-.124.456-.32l.017-.042c.36-.306.88-.306 1.244.03.214.197.532.166.71-.07.18-.234.153-.584-.06-.78-.698-.645-1.68-.677-2.4-.146-.722-.53-1.703-.5-2.4.145-.212.197-.24.547-.06.782s.496.266.71.068zM13.49 5.47c.158-.145.378-.155.543-.04.086.185.26.302.448.302h.048c.19 0 .362-.117.448-.3.164-.116.385-.107.543.04.212.196.53.165.71-.07.18-.235.15-.585-.063-.782-.48-.444-1.145-.49-1.662-.174-.518-.318-1.182-.27-1.662.174-.212.197-.24.548-.06.782.18.235.496.266.71.07zm17.464 22.865H24.66l.27-1.54c.54-.006.837-.165 1.077-.295.198-.106.34-.183.67-.183s.472.077.67.183c.245.133.55.297 1.113.297s.867-.164 1.113-.297c.198-.106.34-.183.67-.183.28 0 .505-.25.505-.556 0-.303-.226-.55-.505-.55-.562 0-.867.164-1.112.296-.194.106-.34.183-.67.183s-.47-.078-.67-.184c-.24-.132-.55-.297-1.11-.297s-.87.164-1.11.296c-.145.077-.26.14-.438.166l.44-2.514c.085.027.174.033.26.01l.36-.092.313.22c.115.08.254.105.387.07l.36-.092.31.22c.115.08.254.106.387.07l.36-.092.31.22c.113.08.253.105.385.07l.36-.093.312.22c.082.055.175.085.27.085l.116-.014.49-.13.06.006c.1 0 .2-.03.286-.098.23-.175.283-.52.124-.773L26.57 15.9c-.076-.123-.195-.206-.33-.23-.133-.026-.27.01-.38.097l-6.315 5.055c-.225.18-.275.527-.11.774.073.112.178.182.29.212l.43.302c.116.08.255.106.388.072l.36-.093.312.216c.114.08.254.107.386.073l.36-.095.316.22c.115.08.254.105.387.07l.36-.093.313.22c.115.08.255.108.387.073l.36-.093.31.217.19.08-.435 2.48c-.23-.12-.528-.25-1.026-.25-.564 0-.87.164-1.114.296-.198.106-.34.183-.67.183s-.47-.078-.67-.184c-.245-.132-.55-.297-1.113-.297-.562 0-.867.164-1.112.296-.196.106-.34.183-.67.183-.327 0-.47-.078-.67-.184-.243-.132-.55-.297-1.11-.297s-.867.164-1.113.296c-.198.106-.34.183-.67.183-.328 0-.47-.078-.67-.184-.244-.132-.55-.297-1.11-.297s-.868.164-1.113.296c-.198.106-.34.183-.67.183s-.47-.078-.67-.184c-.245-.132-.55-.297-1.112-.297-.417 0-.693.09-.91.192.26-.93.67-1.876 1.315-2.658 1.024-1.24 2.492-1.867 4.362-1.867 2.303 0 4.427-.994 5.982-2.797 1.303-1.512 2.11-3.484 2.327-5.643.445.48.735 1.09.83 1.76.11.786-.063 1.565-.49 2.195-.165.244-.12.592.105.776.09.074.196.11.3.11.155 0 .307-.077.406-.224.59-.87.83-1.947.677-3.028-.105-.746-.387-1.434-.814-2.014 1.206-.012 2.365.79 2.818 2.078.078.22.27.354.47.354l.183-.037c.26-.112.388-.433.288-.72-.603-1.712-2.14-2.785-3.74-2.783.796-.815 2.023-1.07 3.125-.545.256.12.553-.01.663-.29.11-.28-.007-.61-.262-.73-1.332-.637-2.8-.415-3.87.44-.168-1.446-1.026-2.78-2.36-3.413-.255-.122-.552.008-.662.29-.11.28.007.607.262.73 1.103.526 1.772 1.687 1.778 2.884-1.095-1.29-2.856-1.786-4.403-1.1-.255.115-.38.438-.275.723.104.285.398.422.656.308 1.16-.514 2.487-.133 3.303.846-.675.053-1.323.297-1.89.724-.82.614-1.367 1.543-1.54 2.612-.05.302.132.59.406.644l.09.01c.24 0 .45-.19.495-.46.126-.772.522-1.444 1.118-1.893.403-.303.865-.482 1.348-.528-.363 4.11-3.213 6.81-7.32 6.81-3.22 0-5.7 1.826-7.165 5.284-.155.364-.29.73-.41 1.084-.19-.07-.43-.127-.753-.127h-.08l.287-4.85c.46-.156.972-.235 1.537-.235 3.272 0 5.23-4.552 5.952-6.625.644.087 1.22.425 1.622.962.395.526.58 1.186.515 1.86-.028.304.173.577.45.61h.052c.254 0 .473-.21.5-.497.092-.972-.17-1.924-.74-2.682-.367-.486-.83-.857-1.355-1.092.876-.526 2-.47 2.818.237.22.188.538.146.71-.096.17-.24.133-.59-.087-.778-1.137-.98-2.695-1.062-3.913-.338.087-.266.215-.518.383-.748.412-.562 1.005-.924 1.67-1.02.276-.038.47-.317.436-.62-.038-.304-.29-.52-.567-.48-.924.132-1.75.637-2.325 1.424-.178.244-.324.504-.44.776-.735-.977-1.92-1.532-3.177-1.353-.276.04-.47.318-.435.622.036.304.287.52.565.48.973-.14 1.886.332 2.392 1.133-1.345-.36-2.833.156-3.707 1.42-.17.244-.126.593.096.778.093.077.2.114.307.114.15 0 .3-.075.4-.218.674-.973 1.853-1.33 2.87-.954-.67 1.674-2.383 5.178-4.99 5.178-.5 0-.975.057-1.424.17l.588-10.06c.513.253.942.66 1.242 1.18.385.673.507 1.464.343 2.23-.065.297.103.596.374.667l.116.015c.227 0 .434-.172.49-.428.225-1.057.057-2.15-.47-3.075-.368-.638-.875-1.147-1.476-1.49 1.103-.542 2.456-.31 3.336.67.098.11.228.166.36.166.127 0 .255-.05.353-.16.196-.212.2-.563.002-.782C9.715 6.01 7.92 5.7 6.45 6.4c.436-1.097 1.47-1.87 2.67-1.87.28 0 .505-.25.505-.555 0-.307-.226-.555-.504-.555-1.45 0-2.72.846-3.39 2.1-.672-1.253-1.94-2.1-3.39-2.1-.28 0-.505.248-.505.555 0 .307.226.555.504.555 1.2 0 2.235.773 2.672 1.87-1.47-.705-3.266-.392-4.437.916-.197.218-.195.57.003.785.098.11.226.16.355.16.13 0 .26-.052.36-.162.88-.983 2.233-1.213 3.335-.673-.6.344-1.108.853-1.474 1.49-.53.926-.697 2.02-.47 3.076.054.257.26.43.49.43l.116-.015c.27-.07.44-.37.375-.668-.163-.765-.04-1.556.344-2.228.29-.504.696-.897 1.182-1.15l-1.14 10.716c-.427.283-.82.633-1.18 1.054C1.73 21.47.99 23.46.67 26.04c-.12.974-.158 1.84-.164 2.464-.292.196-.487.548-.487.95 0 .614.45 1.112 1.005 1.112h29.938c.556 0 1.008-.498 1.008-1.11 0-.615-.45-1.112-1.007-1.112zM6.584 27.19c-.044.425-.064.812-.072 1.145h-.147c.052-.332.123-.72.22-1.145zm22.754-4.662l-.36.093-.312-.215c-.115-.08-.254-.106-.386-.072l-.36.094-.312-.218c-.115-.08-.254-.108-.387-.073l-.36.093-.31-.22c-.112-.08-.252-.106-.384-.07l-.36.092-.312-.22c-.113-.08-.253-.107-.385-.072l-.36.094-.313-.22c-.115-.08-.255-.106-.386-.07l-.36.092-.312-.22c-.115-.08-.254-.105-.387-.07l-.36.093-.31-.22c-.115-.083-.255-.11-.387-.075l-.36.094-.312-.22-.166-.074 4.942-3.955 3.485 5.526-.18.01zm-21.152 3.97c.198-.105.34-.182.67-.182.328 0 .47.077.67.183.244.13.55.293 1.11.293s.868-.164 1.113-.297c.194-.107.34-.184.67-.184s.47.077.67.183c.24.132.55.296 1.11.296s.866-.163 1.11-.296c.2-.107.34-.184.67-.184s.47.078.67.184c.246.132.55.296 1.113.296s.868-.163 1.113-.296c.197-.107.34-.184.668-.184.33 0 .472.077.67.183.245.132.55.296 1.112.296s.867-.167 1.112-.3c.197-.107.34-.184.67-.184s.47.077.67.183l.16.082-.31 1.753H7.522c.014-.447.052-1.005.143-1.612.22-.06.38-.147.52-.223zm-2.894-.182c.197 0 .326.027.44.073-.195.75-.317 1.42-.392 1.942h-.31l.118-2.012.143-.005zm-2.616 2.018c-.053-.47-.103-1.078-.11-1.748.166.082.37.16.652.193l-.165 1.55h-.376zm1.06-6.69l.032-.04-.433 4.072c-.21-.023-.336-.09-.494-.174l-.24-.122c.095-1.324.398-2.72 1.14-3.736zm-2.228 6.69c.006-.345.023-.76.058-1.217.018.452.052.864.09 1.217h-.15z" fill="#3A434E"/></g></svg>