<svg width="32" height="232" viewBox="0 0 32 232" xmlns="http://www.w3.org/2000/svg" xmlns:sketch="http://www.bohemiancoding.com/sketch/ns"><title>dominican-republic</title><desc>Created with Sketch.</desc><g sketch:type="MSPage" fill="none"><g sketch:type="MSShapeGroup"><path d="M14.977 122.893c.363-.335.883-.335 1.244-.029l.016.042c.083.196.261.321.457.321h.069c.196 0 .374-.125.457-.321l.016-.042c.362-.306.881-.306 1.245.029.213.198.531.167.71-.068.179-.235.152-.585-.062-.782-.697-.644-1.678-.676-2.399-.145-.722-.53-1.703-.499-2.399.145-.213.197-.241.547-.062.782s.497.266.71.068zm-1.487 2.578c.158-.146.378-.156.543-.04.086.184.259.301.448.301h.044c.189 0 .362-.117.448-.301.164-.115.385-.106.543.04.213.197.531.166.71-.069.179-.235.151-.585-.062-.782-.48-.444-1.145-.491-1.662-.174-.518-.318-1.182-.271-1.662.174-.213.197-.241.548-.062.782.179.235.497.266.71.069zm17.464 22.864h-6.294l.27-1.539c.539-.007.837-.166 1.077-.296.198-.106.341-.183.67-.183s.472.077.67.183c.245.133.551.297 1.113.297.563 0 .867-.164 1.113-.297.198-.106.341-.183.67-.183.279 0 .505-.249.505-.556 0-.307-.226-.555-.505-.555-.562 0-.867.165-1.112.297-.198.106-.341.183-.67.183s-.472-.077-.67-.183c-.245-.132-.551-.297-1.113-.297-.562 0-.868.165-1.112.297-.144.077-.259.139-.437.166l.441-2.514c.084.027.173.033.26.011l.36-.093.312.219c.115.08.254.106.387.072l.36-.093.312.218c.115.08.254.106.387.072l.36-.094.312.219c.114.08.254.106.386.072l.36-.094.312.219c.082.057.175.087.271.087l.115-.015.491-.128.058.004c.1 0 .2-.032.287-.099.229-.175.285-.521.126-.773l-4.455-7.062c-.077-.123-.196-.206-.33-.231-.134-.025-.27.01-.38.098l-6.316 5.055c-.225.18-.275.528-.111.775.074.112.179.182.292.212l.43.302c.115.081.254.106.387.072l.36-.093.312.218c.114.081.254.107.386.073l.36-.094.312.219c.115.08.254.106.387.072l.36-.094.312.219c.115.081.255.107.387.072l.36-.093.312.218.189.08-.435 2.48c-.231-.121-.528-.25-1.026-.25-.563 0-.868.165-1.113.297-.198.106-.341.183-.67.183s-.471-.077-.67-.183c-.245-.132-.55-.297-1.113-.297-.562 0-.867.165-1.112.297-.198.106-.34.183-.67.183-.329 0-.472-.077-.67-.183-.245-.132-.55-.297-1.112-.297s-.867.165-1.113.297c-.198.106-.341.183-.669.183-.329 0-.472-.077-.67-.183-.245-.132-.55-.297-1.112-.297s-.867.165-1.112.297c-.198.106-.341.183-.67.183s-.471-.077-.67-.183c-.245-.132-.55-.297-1.112-.297-.419 0-.695.092-.911.193.259-.93.668-1.876 1.314-2.658 1.024-1.239 2.492-1.867 4.362-1.867 2.304 0 4.428-.994 5.983-2.797 1.304-1.513 2.112-3.485 2.328-5.644.445.479.735 1.089.83 1.761.11.785-.063 1.564-.489 2.194-.166.246-.12.594.104.778.09.074.196.11.301.11.154 0 .306-.077.405-.224.588-.871.829-1.947.676-3.028-.105-.746-.387-1.434-.814-2.014 1.206-.013 2.365.79 2.818 2.077.077.22.268.354.47.354l.182-.037c.26-.112.388-.433.288-.72-.604-1.712-2.139-2.785-3.742-2.783.797-.815 2.024-1.071 3.126-.545.256.122.553-.008.663-.289.11-.282-.007-.608-.262-.73-1.332-.636-2.801-.414-3.87.441-.165-1.444-1.024-2.776-2.356-3.411-.256-.122-.553.008-.663.289-.11.282.007.608.262.731 1.103.526 1.772 1.687 1.778 2.884-1.095-1.29-2.856-1.788-4.403-1.102-.259.115-.383.438-.279.723.104.285.398.422.656.308 1.162-.516 2.487-.135 3.303.844-.676.053-1.324.297-1.89.724-.821.617-1.368 1.546-1.542 2.615-.049.302.133.59.407.644l.09.009c.24 0 .452-.188.496-.458.126-.773.522-1.445 1.118-1.894.403-.303.865-.482 1.348-.528-.364 4.109-3.214 6.809-7.321 6.809-3.221 0-5.698 1.827-7.165 5.285-.155.365-.29.729-.409 1.085-.191-.071-.43-.127-.754-.127l-.078.002.284-4.851c.46-.155.973-.234 1.538-.234 3.272 0 5.23-4.552 5.952-6.625.645.086 1.219.424 1.623.961.396.527.579 1.187.516 1.86-.028.305.173.578.45.609l.052.003c.255 0 .474-.212.501-.498.092-.972-.172-1.924-.742-2.682-.365-.487-.829-.858-1.353-1.093.876-.527 1.999-.47 2.818.236.219.188.536.146.708-.096.171-.242.133-.591-.087-.779-1.138-.98-2.696-1.062-3.914-.338.088-.266.216-.518.384-.748.411-.562 1.004-.924 1.669-1.019.276-.039.471-.318.436-.621-.036-.304-.287-.519-.565-.48-.925.132-1.751.637-2.326 1.424-.177.243-.323.503-.438.775-.736-.977-1.922-1.532-3.178-1.353-.276.039-.471.318-.435.622.036.304.287.519.565.48.974-.14 1.887.332 2.393 1.133-1.345-.36-2.833.157-3.707 1.422-.169.244-.126.593.096.778.091.077.199.114.305.114.152-.001.302-.076.401-.219.673-.973 1.852-1.329 2.868-.954-.669 1.674-2.382 5.178-4.99 5.178-.5 0-.974.057-1.423.169l.588-10.059c.513.253.942.659 1.242 1.181.385.672.507 1.463.343 2.228-.064.298.104.597.375.668l.116.015c.228 0 .435-.172.49-.428.226-1.057.058-2.149-.471-3.075-.366-.638-.873-1.147-1.474-1.491 1.102-.541 2.455-.31 3.335.672.098.11.228.165.359.165.128 0 .256-.053.354-.16.198-.215.201-.566.004-.785-1.171-1.307-2.967-1.621-4.437-.917.437-1.096 1.47-1.869 2.672-1.869.278 0 .504-.249.504-.555 0-.307-.226-.555-.504-.555-1.452 0-2.719.846-3.392 2.099-.673-1.252-1.94-2.099-3.392-2.099-.278 0-.504.248-.504.555 0 .307.226.555.504.555 1.202 0 2.236.773 2.673 1.869-1.47-.704-3.267-.391-4.438.917-.196.218-.194.57.004.785.098.107.226.16.355.16.13 0 .26-.055.359-.165.88-.982 2.233-1.212 3.335-.672-.601.344-1.108.853-1.474 1.491-.53.925-.698 2.018-.471 3.075.054.256.261.428.49.428l.116-.015c.271-.07.439-.369.375-.668-.164-.765-.042-1.556.343-2.228.288-.503.696-.896 1.182-1.151l-1.139 10.718c-.428.283-.822.633-1.18 1.054-1.138 1.34-1.877 3.329-2.198 5.91-.121.973-.157 1.84-.163 2.463-.292.195-.487.547-.487.95 0 .613.452 1.111 1.008 1.111h29.938c.556 0 1.008-.498 1.008-1.111 0-.614-.452-1.111-1.008-1.111zm-24.37-1.145c-.044.425-.064.812-.072 1.145h-.147c.052-.332.123-.72.219-1.145zm22.754-4.662l-.36.093-.312-.219c-.115-.08-.254-.106-.386-.072l-.36.093-.312-.218c-.115-.081-.254-.107-.387-.072l-.36.093-.312-.219c-.114-.08-.254-.106-.386-.072l-.36.094-.312-.219c-.114-.08-.254-.107-.386-.072l-.36.094-.312-.219c-.115-.081-.255-.107-.386-.072l-.36.093-.312-.219c-.115-.08-.254-.106-.387-.071l-.36.093-.312-.218c-.114-.081-.254-.107-.386-.073l-.36.094-.312-.219-.167-.073 4.941-3.955 3.485 5.525-.181.009zm-21.152 3.971c.198-.106.341-.183.669-.183.329 0 .472.077.67.183.245.133.55.297 1.112.297s.867-.164 1.112-.297c.198-.106.341-.183.67-.183s.471.077.67.183c.245.133.55.297 1.113.297.562 0 .867-.164 1.112-.297.198-.106.341-.183.67-.183s.471.077.67.183c.245.133.55.297 1.112.297s.868-.164 1.113-.297c.198-.106.341-.183.669-.183.329 0 .472.077.67.183.245.133.55.297 1.112.297s.867-.164 1.112-.297c.198-.106.341-.183.67-.183s.471.077.67.183l.159.083-.308 1.753h-16.11c.013-.447.051-1.005.142-1.612.219-.06.38-.147.521-.223zm-2.894-.183c.197 0 .326.027.441.073-.196.75-.318 1.424-.393 1.946h-.309l.117-2.012.143-.006zm-2.616 2.018c-.053-.471-.103-1.078-.111-1.748.167.082.371.16.653.193l-.165 1.555h-.376zm1.061-6.691l.031-.039-.433 4.072c-.211-.023-.336-.089-.494-.174l-.243-.123c.093-1.323.396-2.718 1.14-3.735zm-2.229 6.691c.006-.345.023-.76.058-1.217.018.452.052.864.09 1.217h-.149z" fill="#206FAC"/><path d="M14.977 82.893c.363-.335.883-.335 1.244-.029l.016.042c.083.196.261.321.457.321h.069c.196 0 .374-.125.457-.321l.016-.042c.362-.306.881-.306 1.245.029.213.198.531.167.71-.068.179-.235.152-.585-.062-.782-.697-.644-1.678-.676-2.399-.145-.722-.53-1.703-.499-2.399.145-.213.197-.241.547-.062.782s.497.266.71.068zm-1.487 2.578c.158-.146.378-.156.543-.04.086.184.259.301.448.301h.044c.189 0 .362-.117.448-.301.164-.115.385-.106.543.04.213.197.531.166.71-.069.179-.235.151-.585-.062-.782-.48-.444-1.145-.491-1.662-.174-.518-.318-1.182-.271-1.662.174-.213.197-.241.548-.062.782.179.235.497.266.71.069zm17.464 22.864h-6.294l.27-1.539c.539-.007.837-.166 1.077-.296.198-.106.341-.183.67-.183s.472.077.67.183c.245.133.551.297 1.113.297.563 0 .867-.164 1.113-.297.198-.106.341-.183.67-.183.279 0 .505-.249.505-.556 0-.307-.226-.555-.505-.555-.562 0-.867.165-1.112.297-.198.106-.341.183-.67.183s-.472-.077-.67-.183c-.245-.132-.551-.297-1.113-.297-.562 0-.868.165-1.112.297-.144.077-.259.139-.437.166l.441-2.514c.084.027.173.033.26.011l.36-.093.312.219c.115.08.254.106.387.072l.36-.093.312.218c.115.08.254.106.387.072l.36-.094.312.219c.114.08.254.106.386.072l.36-.094.312.219c.082.057.175.087.271.087l.115-.015.491-.128.058.004c.1 0 .2-.032.287-.099.229-.175.285-.521.126-.773l-4.455-7.062c-.077-.123-.196-.206-.33-.231-.134-.025-.27.01-.38.098l-6.316 5.055c-.225.18-.275.528-.111.775.074.112.179.182.292.212l.43.302c.115.081.254.106.387.072l.36-.093.312.218c.114.081.254.107.386.073l.36-.094.312.219c.115.08.254.106.387.072l.36-.094.312.219c.115.081.255.107.387.072l.36-.093.312.218.189.08-.435 2.48c-.231-.121-.528-.25-1.026-.25-.563 0-.868.165-1.113.297-.198.106-.341.183-.67.183s-.471-.077-.67-.183c-.245-.132-.55-.297-1.113-.297-.562 0-.867.165-1.112.297-.198.106-.34.183-.67.183-.329 0-.472-.077-.67-.183-.245-.132-.55-.297-1.112-.297s-.867.165-1.113.297c-.198.106-.341.183-.669.183-.329 0-.472-.077-.67-.183-.245-.132-.55-.297-1.112-.297s-.867.165-1.112.297c-.198.106-.341.183-.67.183s-.471-.077-.67-.183c-.245-.132-.55-.297-1.112-.297-.419 0-.695.092-.911.193.259-.93.668-1.876 1.314-2.658 1.024-1.239 2.492-1.867 4.362-1.867 2.304 0 4.428-.994 5.983-2.797 1.304-1.513 2.112-3.485 2.328-5.644.445.479.735 1.089.83 1.761.11.785-.063 1.564-.489 2.194-.166.246-.12.594.104.778.09.074.196.11.301.11.154 0 .306-.077.405-.224.588-.871.829-1.947.676-3.028-.105-.746-.387-1.434-.814-2.014 1.206-.013 2.365.79 2.818 2.077.077.22.268.354.47.354l.182-.037c.26-.112.388-.433.288-.72-.604-1.712-2.139-2.785-3.742-2.783.797-.815 2.024-1.071 3.126-.545.256.122.553-.008.663-.289.11-.282-.007-.608-.262-.73-1.332-.636-2.801-.414-3.87.441-.165-1.444-1.024-2.776-2.356-3.411-.256-.122-.553.008-.663.289-.11.282.007.608.262.731 1.103.526 1.772 1.687 1.778 2.884-1.095-1.29-2.856-1.788-4.403-1.102-.259.115-.383.438-.279.723.104.285.398.422.656.308 1.162-.516 2.487-.135 3.303.844-.676.053-1.324.297-1.89.724-.821.617-1.368 1.546-1.542 2.615-.049.302.133.59.407.644l.09.009c.24 0 .452-.188.496-.458.126-.773.522-1.445 1.118-1.894.403-.303.865-.482 1.348-.528-.364 4.109-3.214 6.809-7.321 6.809-3.221 0-5.698 1.827-7.165 5.285-.155.365-.29.729-.409 1.085-.191-.071-.43-.127-.754-.127l-.078.002.284-4.851c.46-.155.973-.234 1.538-.234 3.272 0 5.23-4.552 5.952-6.625.645.086 1.219.424 1.623.961.396.527.579 1.187.516 1.86-.028.305.173.578.45.609l.052.003c.255 0 .474-.212.501-.498.092-.972-.172-1.924-.742-2.682-.365-.487-.829-.858-1.353-1.093.876-.527 1.999-.47 2.818.236.219.188.536.146.708-.096.171-.242.133-.591-.087-.779-1.138-.98-2.696-1.062-3.914-.338.088-.266.216-.518.384-.748.411-.562 1.004-.924 1.669-1.019.276-.039.471-.318.436-.621-.036-.304-.287-.519-.565-.48-.925.132-1.751.637-2.326 1.424-.177.243-.323.503-.438.775-.736-.977-1.922-1.532-3.178-1.353-.276.039-.471.318-.435.622.036.304.287.519.565.48.974-.14 1.887.332 2.393 1.133-1.345-.36-2.833.157-3.707 1.422-.169.244-.126.593.096.778.091.077.199.114.305.114.152-.001.302-.076.401-.219.673-.973 1.852-1.329 2.868-.954-.669 1.674-2.382 5.178-4.99 5.178-.5 0-.974.057-1.423.169l.588-10.059c.513.253.942.659 1.242 1.181.385.672.507 1.463.343 2.228-.064.298.104.597.375.668l.116.015c.228 0 .435-.172.49-.428.226-1.057.058-2.149-.471-3.075-.366-.638-.873-1.147-1.474-1.491 1.102-.541 2.455-.31 3.335.672.098.11.228.165.359.165.128 0 .256-.053.354-.16.198-.215.201-.566.004-.785-1.171-1.307-2.967-1.621-4.437-.917.437-1.096 1.47-1.869 2.672-1.869.278 0 .504-.249.504-.555 0-.307-.226-.555-.504-.555-1.452 0-2.719.846-3.392 2.099-.673-1.252-1.94-2.099-3.392-2.099-.278 0-.504.248-.504.555 0 .307.226.555.504.555 1.202 0 2.236.773 2.673 1.869-1.47-.704-3.267-.391-4.438.917-.196.218-.194.57.004.785.098.107.226.16.355.16.13 0 .26-.055.359-.165.88-.982 2.233-1.212 3.335-.672-.601.344-1.108.853-1.474 1.491-.53.925-.698 2.018-.471 3.075.054.256.261.428.49.428l.116-.015c.271-.07.439-.369.375-.668-.164-.765-.042-1.556.343-2.228.288-.503.696-.896 1.182-1.151l-1.139 10.718c-.428.283-.822.633-1.18 1.054-1.138 1.34-1.877 3.329-2.198 5.91-.121.973-.157 1.84-.163 2.463-.292.195-.487.547-.487.95 0 .613.452 1.111 1.008 1.111h29.938c.556 0 1.008-.498 1.008-1.111 0-.614-.452-1.111-1.008-1.111zm-24.37-1.145c-.044.425-.064.812-.072 1.145h-.147c.052-.332.123-.72.219-1.145zm22.754-4.662l-.36.093-.312-.219c-.115-.08-.254-.106-.386-.072l-.36.093-.312-.218c-.115-.081-.254-.107-.387-.072l-.36.093-.312-.219c-.114-.08-.254-.106-.386-.072l-.36.094-.312-.219c-.114-.08-.254-.107-.386-.072l-.36.094-.312-.219c-.115-.081-.255-.107-.386-.072l-.36.093-.312-.219c-.115-.08-.254-.106-.387-.071l-.36.093-.312-.218c-.114-.081-.254-.107-.386-.073l-.36.094-.312-.219-.167-.073 4.941-3.955 3.485 5.525-.181.009zm-21.152 3.971c.198-.106.341-.183.669-.183.329 0 .472.077.67.183.245.133.55.297 1.112.297s.867-.164 1.112-.297c.198-.106.341-.183.67-.183s.471.077.67.183c.245.133.55.297 1.113.297.562 0 .867-.164 1.112-.297.198-.106.341-.183.67-.183s.471.077.67.183c.245.133.55.297 1.112.297s.868-.164 1.113-.297c.198-.106.341-.183.669-.183.329 0 .472.077.67.183.245.133.55.297 1.112.297s.867-.164 1.112-.297c.198-.106.341-.183.67-.183s.471.077.67.183l.159.083-.308 1.753h-16.11c.013-.447.051-1.005.142-1.612.219-.06.38-.147.521-.223zm-2.894-.183c.197 0 .326.027.441.073-.196.75-.318 1.424-.393 1.946h-.309l.117-2.012.143-.006zm-2.616 2.018c-.053-.471-.103-1.078-.111-1.748.167.082.371.16.653.193l-.165 1.555h-.376zm1.061-6.691l.031-.039-.433 4.072c-.211-.023-.336-.089-.494-.174l-.243-.123c.093-1.323.396-2.718 1.14-3.735zm-2.229 6.691c.006-.345.023-.76.058-1.217.018.452.052.864.09 1.217h-.149z" fill="#fff"/><path d="M14.977 42.893c.363-.335.883-.335 1.244-.029l.016.042c.083.196.261.321.457.321h.069c.196 0 .374-.125.457-.321l.016-.042c.362-.306.881-.306 1.245.029.213.198.531.167.71-.068.179-.235.152-.585-.062-.782-.697-.644-1.678-.676-2.399-.145-.722-.53-1.703-.499-2.399.145-.213.197-.241.547-.062.782s.497.266.71.068zm-1.487 2.578c.158-.146.378-.156.543-.04.086.184.259.301.448.301h.044c.189 0 .362-.117.448-.301.164-.115.385-.106.543.04.213.197.531.166.71-.069.179-.235.151-.585-.062-.782-.48-.444-1.145-.491-1.662-.174-.518-.318-1.182-.271-1.662.174-.213.197-.241.548-.062.782.179.235.497.266.71.069zm17.464 22.864h-6.294l.27-1.539c.539-.007.837-.166 1.077-.296.198-.106.341-.183.67-.183s.472.077.67.183c.245.133.551.297 1.113.297.563 0 .867-.164 1.113-.297.198-.106.341-.183.67-.183.279 0 .505-.249.505-.556 0-.307-.226-.555-.505-.555-.562 0-.867.165-1.112.297-.198.106-.341.183-.67.183s-.472-.077-.67-.183c-.245-.132-.551-.297-1.113-.297-.562 0-.868.165-1.112.297-.144.077-.259.139-.437.166l.441-2.514c.084.027.173.033.26.011l.36-.093.312.219c.115.08.254.106.387.072l.36-.093.312.218c.115.08.254.106.387.072l.36-.094.312.219c.114.08.254.106.386.072l.36-.094.312.219c.082.057.175.087.271.087l.115-.015.491-.128.058.004c.1 0 .2-.032.287-.099.229-.175.285-.521.126-.773l-4.455-7.062c-.077-.123-.196-.206-.33-.231-.134-.025-.27.01-.38.098l-6.316 5.055c-.225.18-.275.528-.111.775.074.112.179.182.292.212l.43.302c.115.081.254.106.387.072l.36-.093.312.218c.114.081.254.107.386.073l.36-.094.312.219c.115.08.254.106.387.072l.36-.094.312.219c.115.081.255.107.387.072l.36-.093.312.218.189.08-.435 2.48c-.231-.121-.528-.25-1.026-.25-.563 0-.868.165-1.113.297-.198.106-.341.183-.67.183s-.471-.077-.67-.183c-.245-.132-.55-.297-1.113-.297-.562 0-.867.165-1.112.297-.198.106-.34.183-.67.183-.329 0-.472-.077-.67-.183-.245-.132-.55-.297-1.112-.297s-.867.165-1.113.297c-.198.106-.341.183-.669.183-.329 0-.472-.077-.67-.183-.245-.132-.55-.297-1.112-.297s-.867.165-1.112.297c-.198.106-.341.183-.67.183s-.471-.077-.67-.183c-.245-.132-.55-.297-1.112-.297-.419 0-.695.092-.911.193.259-.93.668-1.876 1.314-2.658 1.024-1.239 2.492-1.867 4.362-1.867 2.304 0 4.428-.994 5.983-2.797 1.304-1.513 2.112-3.485 2.328-5.644.445.479.735 1.089.83 1.761.11.785-.063 1.564-.489 2.194-.166.246-.12.594.104.778.09.074.196.11.301.11.154 0 .306-.077.405-.224.588-.871.829-1.947.676-3.028-.105-.746-.387-1.434-.814-2.014 1.206-.013 2.365.79 2.818 2.077.077.22.268.354.47.354l.182-.037c.26-.112.388-.433.288-.72-.604-1.712-2.139-2.785-3.742-2.783.797-.815 2.024-1.071 3.126-.545.256.122.553-.008.663-.289.11-.282-.007-.608-.262-.73-1.332-.636-2.801-.414-3.87.441-.165-1.444-1.024-2.776-2.356-3.411-.256-.122-.553.008-.663.289-.11.282.007.608.262.731 1.103.526 1.772 1.687 1.778 2.884-1.095-1.29-2.856-1.788-4.403-1.102-.259.115-.383.438-.279.723.104.285.398.422.656.308 1.162-.516 2.487-.135 3.303.844-.676.053-1.324.297-1.89.724-.821.617-1.368 1.546-1.542 2.615-.049.302.133.59.407.644l.09.009c.24 0 .452-.188.496-.458.126-.773.522-1.445 1.118-1.894.403-.303.865-.482 1.348-.528-.364 4.109-3.214 6.809-7.321 6.809-3.221 0-5.698 1.827-7.165 5.285-.155.365-.29.729-.409 1.085-.191-.071-.43-.127-.754-.127l-.078.002.284-4.851c.46-.155.973-.234 1.538-.234 3.272 0 5.23-4.552 5.952-6.625.645.086 1.219.424 1.623.961.396.527.579 1.187.516 1.86-.028.305.173.578.45.609l.052.003c.255 0 .474-.212.501-.498.092-.972-.172-1.924-.742-2.682-.365-.487-.829-.858-1.353-1.093.876-.527 1.999-.47 2.818.236.219.188.536.146.708-.096.171-.242.133-.591-.087-.779-1.138-.98-2.696-1.062-3.914-.338.088-.266.216-.518.384-.748.411-.562 1.004-.924 1.669-1.019.276-.039.471-.318.436-.621-.036-.304-.287-.519-.565-.48-.925.132-1.751.637-2.326 1.424-.177.243-.323.503-.438.775-.736-.977-1.922-1.532-3.178-1.353-.276.039-.471.318-.435.622.036.304.287.519.565.48.974-.14 1.887.332 2.393 1.133-1.345-.36-2.833.157-3.707 1.422-.169.244-.126.593.096.778.091.077.199.114.305.114.152-.001.302-.076.401-.219.673-.973 1.852-1.329 2.868-.954-.669 1.674-2.382 5.178-4.99 5.178-.5 0-.974.057-1.423.169l.588-10.059c.513.253.942.659 1.242 1.181.385.672.507 1.463.343 2.228-.064.298.104.597.375.668l.116.015c.228 0 .435-.172.49-.428.226-1.057.058-2.149-.471-3.075-.366-.638-.873-1.147-1.474-1.491 1.102-.541 2.455-.31 3.335.672.098.11.228.165.359.165.128 0 .256-.053.354-.16.198-.215.201-.566.004-.785-1.171-1.307-2.967-1.621-4.437-.917.437-1.096 1.47-1.869 2.672-1.869.278 0 .504-.249.504-.555 0-.307-.226-.555-.504-.555-1.452 0-2.719.846-3.392 2.099-.673-1.252-1.94-2.099-3.392-2.099-.278 0-.504.248-.504.555 0 .307.226.555.504.555 1.202 0 2.236.773 2.673 1.869-1.47-.704-3.267-.391-4.438.917-.196.218-.194.57.004.785.098.107.226.16.355.16.13 0 .26-.055.359-.165.88-.982 2.233-1.212 3.335-.672-.601.344-1.108.853-1.474 1.491-.53.925-.698 2.018-.471 3.075.054.256.261.428.49.428l.116-.015c.271-.07.439-.369.375-.668-.164-.765-.042-1.556.343-2.228.288-.503.696-.896 1.182-1.151l-1.139 10.718c-.428.283-.822.633-1.18 1.054-1.138 1.34-1.877 3.329-2.198 5.91-.121.973-.157 1.84-.163 2.463-.292.195-.487.547-.487.95 0 .613.452 1.111 1.008 1.111h29.938c.556 0 1.008-.498 1.008-1.111 0-.614-.452-1.111-1.008-1.111zm-24.37-1.145c-.044.425-.064.812-.072 1.145h-.147c.052-.332.123-.72.219-1.145zm22.754-4.662l-.36.093-.312-.219c-.115-.08-.254-.106-.386-.072l-.36.093-.312-.218c-.115-.081-.254-.107-.387-.072l-.36.093-.312-.219c-.114-.08-.254-.106-.386-.072l-.36.094-.312-.219c-.114-.08-.254-.107-.386-.072l-.36.094-.312-.219c-.115-.081-.255-.107-.386-.072l-.36.093-.312-.219c-.115-.08-.254-.106-.387-.071l-.36.093-.312-.218c-.114-.081-.254-.107-.386-.073l-.36.094-.312-.219-.167-.073 4.941-3.955 3.485 5.525-.181.009zm-21.152 3.971c.198-.106.341-.183.669-.183.329 0 .472.077.67.183.245.133.55.297 1.112.297s.867-.164 1.112-.297c.198-.106.341-.183.67-.183s.471.077.67.183c.245.133.55.297 1.113.297.562 0 .867-.164 1.112-.297.198-.106.341-.183.67-.183s.471.077.67.183c.245.133.55.297 1.112.297s.868-.164 1.113-.297c.198-.106.341-.183.669-.183.329 0 .472.077.67.183.245.133.55.297 1.112.297s.867-.164 1.112-.297c.198-.106.341-.183.67-.183s.471.077.67.183l.159.083-.308 1.753h-16.11c.013-.447.051-1.005.142-1.612.219-.06.38-.147.521-.223zm-2.894-.183c.197 0 .326.027.441.073-.196.75-.318 1.424-.393 1.946h-.309l.117-2.012.143-.006zm-2.616 2.018c-.053-.471-.103-1.078-.111-1.748.167.082.371.16.653.193l-.165 1.555h-.376zm1.061-6.691l.031-.039-.433 4.072c-.211-.023-.336-.089-.494-.174l-.243-.123c.093-1.323.396-2.718 1.14-3.735zm-2.229 6.691c.006-.345.023-.76.058-1.217.018.452.052.864.09 1.217h-.149z" fill="#67737B"/><path d="M14.977 2.893c.363-.335.883-.335 1.244-.029l.016.042c.083.196.261.321.457.321h.069c.196 0 .374-.125.457-.321l.016-.042c.362-.306.881-.306 1.245.029.213.198.531.167.71-.068.179-.235.152-.585-.062-.782-.697-.644-1.678-.676-2.399-.145-.722-.53-1.703-.499-2.399.145-.213.197-.241.547-.062.782s.497.266.71.068zm-1.487 2.578c.158-.146.378-.156.543-.04.086.184.259.301.448.301h.044c.189 0 .362-.117.448-.301.164-.115.385-.106.543.04.213.197.531.166.71-.069.179-.235.151-.585-.062-.782-.48-.444-1.145-.491-1.662-.174-.518-.318-1.182-.271-1.662.174-.213.197-.241.548-.062.782.179.235.497.266.71.069zm17.464 22.864h-6.294l.27-1.539c.539-.007.837-.166 1.077-.296.198-.106.341-.183.67-.183s.472.077.67.183c.245.133.551.297 1.113.297.563 0 .867-.164 1.113-.297.198-.106.341-.183.67-.183.279 0 .505-.249.505-.556 0-.307-.226-.555-.505-.555-.562 0-.867.165-1.112.297-.198.106-.341.183-.67.183s-.472-.077-.67-.183c-.245-.132-.551-.297-1.113-.297-.562 0-.868.165-1.112.297-.144.077-.259.139-.437.166l.441-2.514c.084.027.173.033.26.011l.36-.093.312.219c.115.08.254.106.387.072l.36-.093.312.218c.115.08.254.106.387.072l.36-.094.312.219c.114.08.254.106.386.072l.36-.094.312.219c.082.057.175.087.271.087l.115-.015.491-.128.058.004c.1 0 .2-.032.287-.099.229-.175.285-.521.126-.773l-4.455-7.062c-.077-.123-.196-.206-.33-.231-.134-.025-.27.01-.38.098l-6.316 5.055c-.225.18-.275.528-.111.775.074.112.179.182.292.212l.43.302c.115.081.254.106.387.072l.36-.093.312.218c.114.081.254.107.386.073l.36-.094.312.219c.115.08.254.106.387.072l.36-.094.312.219c.115.081.255.107.387.072l.36-.093.312.218.189.08-.435 2.48c-.231-.121-.528-.25-1.026-.25-.563 0-.868.165-1.113.297-.198.106-.341.183-.67.183s-.471-.077-.67-.183c-.245-.132-.55-.297-1.113-.297-.562 0-.867.165-1.112.297-.198.106-.34.183-.67.183-.329 0-.472-.077-.67-.183-.245-.132-.55-.297-1.112-.297s-.867.165-1.113.297c-.198.106-.341.183-.669.183-.329 0-.472-.077-.67-.183-.245-.132-.55-.297-1.112-.297s-.867.165-1.112.297c-.198.106-.341.183-.67.183s-.471-.077-.67-.183c-.245-.132-.55-.297-1.112-.297-.419 0-.695.092-.911.193.259-.93.668-1.876 1.314-2.658 1.024-1.239 2.492-1.867 4.362-1.867 2.304 0 4.428-.994 5.983-2.797 1.304-1.513 2.112-3.485 2.328-5.644.445.479.735 1.089.83 1.761.11.785-.063 1.564-.489 2.194-.166.246-.12.594.104.778.09.074.196.11.301.11.154 0 .306-.077.405-.224.588-.871.829-1.947.676-3.028-.105-.746-.387-1.434-.814-2.014 1.206-.013 2.365.79 2.818 2.077.077.22.268.354.47.354l.182-.037c.26-.112.388-.433.288-.72-.604-1.712-2.139-2.785-3.742-2.783.797-.815 2.024-1.071 3.126-.545.256.122.553-.008.663-.289.11-.282-.007-.608-.262-.73-1.332-.636-2.801-.414-3.87.441-.165-1.444-1.024-2.776-2.356-3.411-.256-.122-.553.008-.663.289-.11.282.007.608.262.731 1.103.526 1.772 1.687 1.778 2.884-1.095-1.29-2.856-1.788-4.403-1.102-.259.115-.383.438-.279.723.104.285.398.422.656.308 1.162-.516 2.487-.135 3.303.844-.676.053-1.324.297-1.89.724-.821.617-1.368 1.546-1.542 2.615-.049.302.133.59.407.644l.09.009c.24 0 .452-.188.496-.458.126-.773.522-1.445 1.118-1.894.403-.303.865-.482 1.348-.528-.364 4.109-3.214 6.809-7.321 6.809-3.221 0-5.698 1.827-7.165 5.285-.155.365-.29.729-.409 1.085-.191-.071-.43-.127-.754-.127l-.078.002.284-4.851c.46-.155.973-.234 1.538-.234 3.272 0 5.23-4.552 5.952-6.625.645.086 1.219.424 1.623.961.396.527.579 1.187.516 1.86-.028.305.173.578.45.609l.052.003c.255 0 .474-.212.501-.498.092-.972-.172-1.924-.742-2.682-.365-.487-.829-.858-1.353-1.093.876-.527 1.999-.47 2.818.236.219.188.536.146.708-.096.171-.242.133-.591-.087-.779-1.138-.98-2.696-1.062-3.914-.338.088-.266.216-.518.384-.748.411-.562 1.004-.924 1.669-1.019.276-.039.471-.318.436-.621-.036-.304-.287-.519-.565-.48-.925.132-1.751.637-2.326 1.424-.177.243-.323.503-.438.775-.736-.977-1.922-1.532-3.178-1.353-.276.039-.471.318-.435.622.036.304.287.519.565.48.974-.14 1.887.332 2.393 1.133-1.345-.36-2.833.157-3.707 1.422-.169.244-.126.593.096.778.091.077.199.114.305.114.152-.001.302-.076.401-.219.673-.973 1.852-1.329 2.868-.954-.669 1.674-2.382 5.178-4.99 5.178-.5 0-.974.057-1.423.169l.588-10.059c.513.253.942.659 1.242 1.181.385.672.507 1.463.343 2.228-.064.298.104.597.375.668l.116.015c.228 0 .435-.172.49-.428.226-1.057.058-2.149-.471-3.075-.366-.638-.873-1.147-1.474-1.491 1.102-.541 2.455-.31 3.335.672.098.11.228.165.359.165.128 0 .256-.053.354-.16.198-.215.201-.566.004-.785-1.171-1.307-2.967-1.621-4.437-.917.437-1.096 1.47-1.869 2.672-1.869.278 0 .504-.249.504-.555 0-.307-.226-.555-.504-.555-1.452 0-2.719.846-3.392 2.099-.673-1.252-1.94-2.099-3.392-2.099-.278 0-.504.248-.504.555 0 .307.226.555.504.555 1.202 0 2.236.773 2.673 1.869-1.47-.704-3.267-.391-4.438.917-.196.218-.194.57.004.785.098.107.226.16.355.16.13 0 .26-.055.359-.165.88-.982 2.233-1.212 3.335-.672-.601.344-1.108.853-1.474 1.491-.53.925-.698 2.018-.471 3.075.054.256.261.428.49.428l.116-.015c.271-.07.439-.369.375-.668-.164-.765-.042-1.556.343-2.228.288-.503.696-.896 1.182-1.151l-1.139 10.718c-.428.283-.822.633-1.18 1.054-1.138 1.34-1.877 3.329-2.198 5.91-.121.973-.157 1.84-.163 2.463-.292.195-.487.547-.487.95 0 .613.452 1.111 1.008 1.111h29.938c.556 0 1.008-.498 1.008-1.111 0-.614-.452-1.111-1.008-1.111zm-24.37-1.145c-.044.425-.064.812-.072 1.145h-.147c.052-.332.123-.72.219-1.145zm22.754-4.662l-.36.093-.312-.219c-.115-.08-.254-.106-.386-.072l-.36.093-.312-.218c-.115-.081-.254-.107-.387-.072l-.36.093-.312-.219c-.114-.08-.254-.106-.386-.072l-.36.094-.312-.219c-.114-.08-.254-.107-.386-.072l-.36.094-.312-.219c-.115-.081-.255-.107-.386-.072l-.36.093-.312-.219c-.115-.08-.254-.106-.387-.071l-.36.093-.312-.218c-.114-.081-.254-.107-.386-.073l-.36.094-.312-.219-.167-.073 4.941-3.955 3.485 5.525-.181.009zm-21.152 3.971c.198-.106.341-.183.669-.183.329 0 .472.077.67.183.245.133.55.297 1.112.297s.867-.164 1.112-.297c.198-.106.341-.183.67-.183s.471.077.67.183c.245.133.55.297 1.113.297.562 0 .867-.164 1.112-.297.198-.106.341-.183.67-.183s.471.077.67.183c.245.133.55.297 1.112.297s.868-.164 1.113-.297c.198-.106.341-.183.669-.183.329 0 .472.077.67.183.245.133.55.297 1.112.297s.867-.164 1.112-.297c.198-.106.341-.183.67-.183s.471.077.67.183l.159.083-.308 1.753h-16.11c.013-.447.051-1.005.142-1.612.219-.06.38-.147.521-.223zm-2.894-.183c.197 0 .326.027.441.073-.196.75-.318 1.424-.393 1.946h-.309l.117-2.012.143-.006zm-2.616 2.018c-.053-.471-.103-1.078-.111-1.748.167.082.371.16.653.193l-.165 1.555h-.376zm1.061-6.691l.031-.039-.433 4.072c-.211-.023-.336-.089-.494-.174l-.243-.123c.093-1.323.396-2.718 1.14-3.735zm-2.229 6.691c.006-.345.023-.76.058-1.217.018.452.052.864.09 1.217h-.149z" fill="#3A434E"/></g></g></svg>