<svg width="32" height="232" viewBox="0 0 32 232" xmlns="http://www.w3.org/2000/svg" xmlns:sketch="http://www.bohemiancoding.com/sketch/ns"><title>dubai</title><desc>Created with Sketch.</desc><g sketch:type="MSPage" fill="none"><g sketch:type="MSShapeGroup"><path d="M10.173 125.54h.079l-.022.237c0 .689.535 1.25 1.192 1.25h4.21c.29 0 .57-.111.788-.312.257-.238.405-.58.405-.938s-.148-.7-.404-.937c-.218-.202-.498-.313-.788-.313h-1.011l.004-.076c0-.312-.129-.61-.352-.816-.19-.177-.434-.274-.688-.274h-3.413c-.572 0-1.039.489-1.039 1.089s.467 1.089 1.039 1.089zm0-1.166h3.413l.048.02.025.057-.026.057-.047.019h-.001c-.267 0-.483.226-.483.506s.216.506.483.506h2.048l.149.06c.029.027.077.085.077.177 0 .093-.048.151-.077.178l-.149.06h-4.21c-.125 0-.226-.106-.226-.237 0-.13.102-.237.226-.237.267 0 .483-.227.483-.506h.002c0-.28-.216-.506-.483-.506h-1.251l-.073-.076.073-.077zm9.469 6.649c.257-.226.622-.231.883-.034l.006.014c.079.179.25.293.438.293h.055c.188 0 .359-.114.438-.293l.006-.014c.261-.197.626-.192.883.034.204.18.509.152.681-.062.171-.214.145-.534-.059-.714-.572-.504-1.374-.539-1.975-.145-.603-.393-1.403-.358-1.976.145-.204.18-.231.499-.059.714.171.214.476.242.681.062zm9.265 11.475c.17-.07.294-.12.581-.12.289 0 .411.05.582.12.206.085.463.19.934.19.267 0 .483-.226.483-.506s-.216-.506-.483-.506c-.289 0-.411-.05-.582-.12-.207-.085-.464-.19-.934-.19-.469 0-.726.105-.932.19-.123.05-.222.09-.374.108v-2.501l-.006-.063.005-.095-.278-7.527-.004-.035.003-.098-.417-7.527c-.014-.241-.186-.432-.406-.469v-2.823c0-.279-.216-.506-.483-.506s-.483.227-.483.506v2.823c-.22.037-.392.228-.405.469l-.418 7.527.004.098-.004.035-.278 7.527.005.095-.006.063v2.474l-.228-.082c-.206-.085-.463-.19-.933-.19-.47 0-.727.105-.933.19-.171.07-.294.12-.581.12s-.411-.05-.581-.12c-.206-.085-.463-.19-.932-.19-.148 0-.273.011-.383.028l-.125-3.291-.007-.055c.327.183.602.447.801.778.29.481.382 1.048.258 1.595-.061.273.1.545.36.609l.111.013c.219 0 .417-.157.47-.391.182-.814.047-1.655-.382-2.367-.262-.436-.615-.792-1.029-1.053.8-.295 1.734-.107 2.356.553.094.1.219.151.343.151.123 0 .246-.049.34-.146.19-.197.192-.517.004-.716-.889-.944-2.224-1.214-3.367-.793.372-.675 1.092-1.133 1.918-1.133.267 0 .484-.226.484-.506s-.216-.506-.484-.506c-1.12 0-2.105.594-2.665 1.488-.56-.893-1.545-1.488-2.665-1.488-.267 0-.484.227-.484.506 0 .28.216.506.484.506.826 0 1.546.458 1.918 1.133-1.143-.421-2.478-.151-3.367.793-.188.199-.186.52.004.716.094.098.217.146.34.146.124 0 .249-.05.343-.151.623-.66 1.557-.848 2.356-.553-.414.26-.767.616-1.029 1.052-.429.713-.565 1.554-.382 2.368.053.233.251.391.47.391l.111-.013c.26-.064.421-.337.36-.609-.123-.547-.032-1.114.258-1.595.201-.334.481-.6.813-.784l-.009.061-.135 3.571c-.222-.01-.336-.057-.486-.118-.206-.085-.463-.19-.933-.19-.469 0-.727.105-.933.19-.171.07-.294.12-.581.12-.288 0-.411-.05-.581-.12-.207-.085-.464-.19-.933-.19-.469 0-.726.105-.933.19l-.04.016c-.99-12.557-6.446-16.203-6.701-16.366l-.163-.083v-1.382c0-.28-.216-.506-.483-.506s-.483.227-.483.506v1.554c-.077.068-.146.15-.202.245-.253.434-.159.985.202 1.301v3.138c-.289.175-.484.501-.484.876v10.518c-.344.025-.556.111-.729.182-.17.07-.294.12-.581.12-.288 0-.411-.05-.581-.12-.207-.085-.463-.19-.933-.19-.469 0-.726.105-.933.19-.17.07-.293.12-.581.12-.267 0-.483.226-.483.506s.216.506.483.506c.469 0 .726-.105.933-.19.17-.07.294-.12.58-.12.288 0 .411.05.581.12.206.085.463.19.933.19.469 0 .726-.105.932-.19.124-.051.224-.091.378-.109v2.206h-3.473c-.533 0-.966.454-.966 1.013 0 .56.433 1.012.966 1.012h13.544c.172 0 .312.148.312.328 0 .181-.14.328-.312.328l-.137.01c-1.169.08-2.097 1.103-2.097 2.348 0 1.281.982 2.327 2.199 2.353h14.777999999999999c.533 0 .966-.453.966-1.013 0-.559-.432-1.012-.966-1.012h-2.111v-7.283c.341-.026.552-.11.726-.182zm-2.311-17.258l.312 5.626h-.625l.312-5.626zm-.6 13.276l.241-6.514h.719l.241 6.514h-1.201zm-5.174 3.861c.287 0 .411.05.581.12.206.085.464.19.933.19.469 0 .727-.105.933-.19.171-.07.294-.12.582-.12s.411.05.581.12c.148.06.322.131.58.167v7.298h-4.247l-.286-7.549c.09-.022.195-.036.344-.036zm-13.41 2.217v-.824h3.379c.267 0 .483-.226.483-.506s-.216-.506-.483-.506h-3.379v-.938h3.379c.267 0 .483-.227.483-.507s-.216-.506-.483-.506h-3.379v-.938h3.24c.267 0 .483-.226.483-.506s-.216-.506-.483-.506h-3.24v-.939h2.928c.267 0 .483-.226.483-.506s-.216-.506-.483-.506h-2.928v-.939h2.402c.267 0 .484-.226.484-.506s-.216-.506-.484-.506h-2.402v-.938h1.704c.267 0 .484-.226.484-.506s-.216-.507-.484-.507h-1.704v-.938h1.071c.267 0 .483-.226.483-.506s-.216-.507-.483-.507h-1.071v-.198c0-.375-.195-.701-.483-.876v-2.283c.561.59 1.332 1.555 2.099 3.008 2.277 4.313 2.895 9.761 2.977 13.892h-4.592zm7.836 5.039c0-.181.14-.328.313-.328l.137-.01c1.169-.08 2.097-1.103 2.097-2.349 0-1.297-1.008-2.353-2.248-2.353h-1.61c-.013-.683-.037-1.345-.074-1.983l.321-.114c.171-.07.293-.12.581-.12s.411.05.581.12c.206.085.463.19.933.19.469 0 .726-.105.933-.19.17-.07.294-.12.581-.12s.411.05.581.12c.186.076.414.168.799.186l-.276 7.278h-3.336c-.173 0-.313-.147-.313-.328zm10.729-9.966h1.239v10.294h-1.239v-10.294zm-16.305 10.801h-5.115c-.267 0-.483.227-.483.506 0 .28.216.507.483.507h5.115c.267 0 .483-.227.483-.507 0-.279-.216-.506-.483-.506zm2.082-2.263h-8.522c-.267 0-.483.227-.483.506 0 .28.216.506.483.506h8.522c.267 0 .483-.227.483-.506 0-.28-.216-.506-.483-.506z" fill="#206FAC"/><path d="M10.173 85.54h.079l-.022.237c0 .689.535 1.25 1.192 1.25h4.21c.29 0 .57-.111.788-.312.257-.238.405-.58.405-.938s-.148-.7-.404-.937c-.218-.202-.498-.313-.788-.313h-1.011l.004-.076c0-.312-.129-.61-.352-.816-.19-.177-.434-.274-.688-.274h-3.413c-.572 0-1.039.489-1.039 1.089s.467 1.089 1.039 1.089zm0-1.166h3.413l.048.02.025.057-.026.057-.047.019h-.001c-.267 0-.483.226-.483.506s.216.506.483.506h2.048l.149.06c.029.027.077.085.077.177 0 .093-.048.151-.077.178l-.149.06h-4.21c-.125 0-.226-.106-.226-.237 0-.13.102-.237.226-.237.267 0 .483-.227.483-.506h.002c0-.28-.216-.506-.483-.506h-1.251l-.073-.076.073-.077zm9.469 6.649c.257-.226.622-.231.883-.034l.006.014c.079.179.25.293.438.293h.055c.188 0 .359-.114.438-.293l.006-.014c.261-.197.626-.192.883.034.204.18.509.152.681-.062.171-.214.145-.534-.059-.714-.572-.504-1.374-.539-1.975-.145-.603-.393-1.403-.358-1.976.145-.204.18-.231.499-.059.714.171.214.476.242.681.062zm9.265 11.475c.17-.07.294-.12.581-.12.289 0 .411.05.582.12.206.085.463.19.934.19.267 0 .483-.226.483-.506s-.216-.506-.483-.506c-.289 0-.411-.05-.582-.12-.207-.085-.464-.19-.934-.19-.469 0-.726.105-.932.19-.123.05-.222.09-.374.108v-2.501l-.006-.063.005-.095-.278-7.527-.004-.035.003-.098-.417-7.527c-.014-.241-.186-.432-.406-.469v-2.823c0-.279-.216-.506-.483-.506s-.483.227-.483.506v2.823c-.22.037-.392.228-.405.469l-.418 7.527.004.098-.004.035-.278 7.527.005.095-.006.063v2.474l-.228-.082c-.206-.085-.463-.19-.933-.19-.47 0-.727.105-.933.19-.171.07-.294.12-.581.12s-.411-.05-.581-.12c-.206-.085-.463-.19-.932-.19-.148 0-.273.011-.383.028l-.125-3.291-.007-.055c.327.183.602.447.801.778.29.481.382 1.048.258 1.595-.061.273.1.545.36.609l.111.013c.219 0 .417-.157.47-.391.182-.814.047-1.655-.382-2.367-.262-.436-.615-.792-1.029-1.053.8-.295 1.734-.107 2.356.553.094.1.219.151.343.151.123 0 .246-.049.34-.146.19-.197.192-.517.004-.716-.889-.944-2.224-1.214-3.367-.793.372-.675 1.092-1.133 1.918-1.133.267 0 .484-.226.484-.506s-.216-.506-.484-.506c-1.12 0-2.105.594-2.665 1.488-.56-.893-1.545-1.488-2.665-1.488-.267 0-.484.227-.484.506 0 .28.216.506.484.506.826 0 1.546.458 1.918 1.133-1.143-.421-2.478-.151-3.367.793-.188.199-.186.52.004.716.094.098.217.146.34.146.124 0 .249-.05.343-.151.623-.66 1.557-.848 2.356-.553-.414.26-.767.616-1.029 1.052-.429.713-.565 1.554-.382 2.368.053.233.251.391.47.391l.111-.013c.26-.064.421-.337.36-.609-.123-.547-.032-1.114.258-1.595.201-.334.481-.6.813-.784l-.009.061-.135 3.571c-.222-.01-.336-.057-.486-.118-.206-.085-.463-.19-.933-.19-.469 0-.727.105-.933.19-.171.07-.294.12-.581.12-.288 0-.411-.05-.581-.12-.207-.085-.464-.19-.933-.19-.469 0-.726.105-.933.19l-.04.016c-.99-12.557-6.446-16.203-6.701-16.366l-.163-.083v-1.382c0-.28-.216-.506-.483-.506s-.483.227-.483.506v1.554c-.077.068-.146.15-.202.245-.253.434-.159.985.202 1.301v3.138c-.289.175-.484.501-.484.876v10.518c-.344.025-.556.111-.729.182-.17.07-.294.12-.581.12-.288 0-.411-.05-.581-.12-.207-.085-.463-.19-.933-.19-.469 0-.726.105-.933.19-.17.07-.293.12-.581.12-.267 0-.483.226-.483.506s.216.506.483.506c.469 0 .726-.105.933-.19.17-.07.294-.12.58-.12.288 0 .411.05.581.12.206.085.463.19.933.19.469 0 .726-.105.932-.19.124-.051.224-.091.378-.109v2.206h-3.473c-.533 0-.966.454-.966 1.013 0 .56.433 1.012.966 1.012h13.544c.172 0 .312.148.312.328 0 .181-.14.328-.312.328l-.137.01c-1.169.08-2.097 1.103-2.097 2.348 0 1.281.982 2.327 2.199 2.353h14.777999999999999c.533 0 .966-.453.966-1.013 0-.559-.432-1.012-.966-1.012h-2.111v-7.283c.341-.026.552-.11.726-.182zm-2.311-17.258l.312 5.626h-.625l.312-5.626zm-.6 13.276l.241-6.514h.719l.241 6.514h-1.201zm-5.174 3.861c.287 0 .411.05.581.12.206.085.464.19.933.19.469 0 .727-.105.933-.19.171-.07.294-.12.582-.12s.411.05.581.12c.148.06.322.131.58.167v7.298h-4.247l-.286-7.549c.09-.022.195-.036.344-.036zm-13.41 2.217v-.824h3.379c.267 0 .483-.226.483-.506s-.216-.506-.483-.506h-3.379v-.938h3.379c.267 0 .483-.227.483-.507s-.216-.506-.483-.506h-3.379v-.938h3.24c.267 0 .483-.226.483-.506s-.216-.506-.483-.506h-3.24v-.939h2.928c.267 0 .483-.226.483-.506s-.216-.506-.483-.506h-2.928v-.939h2.402c.267 0 .484-.226.484-.506s-.216-.506-.484-.506h-2.402v-.938h1.704c.267 0 .484-.226.484-.506s-.216-.507-.484-.507h-1.704v-.938h1.071c.267 0 .483-.226.483-.506s-.216-.507-.483-.507h-1.071v-.198c0-.375-.195-.701-.483-.876v-2.283c.561.59 1.332 1.555 2.099 3.008 2.277 4.313 2.895 9.761 2.977 13.892h-4.592zm7.836 5.039c0-.181.14-.328.313-.328l.137-.01c1.169-.08 2.097-1.103 2.097-2.349 0-1.297-1.008-2.353-2.248-2.353h-1.61c-.013-.683-.037-1.345-.074-1.983l.321-.114c.171-.07.293-.12.581-.12s.411.05.581.12c.206.085.463.19.933.19.469 0 .726-.105.933-.19.17-.07.294-.12.581-.12s.411.05.581.12c.186.076.414.168.799.186l-.276 7.278h-3.336c-.173 0-.313-.147-.313-.328zm10.729-9.966h1.239v10.294h-1.239v-10.294zm-16.305 10.801h-5.115c-.267 0-.483.227-.483.506 0 .28.216.507.483.507h5.115c.267 0 .483-.227.483-.507 0-.279-.216-.506-.483-.506zm2.082-2.263h-8.522c-.267 0-.483.227-.483.506 0 .28.216.506.483.506h8.522c.267 0 .483-.227.483-.506 0-.28-.216-.506-.483-.506z" fill="#fff"/><path d="M10.173 45.54h.079l-.022.237c0 .689.535 1.25 1.192 1.25h4.21c.29 0 .57-.111.788-.312.257-.238.405-.58.405-.938s-.148-.7-.404-.937c-.218-.202-.498-.313-.788-.313h-1.011l.004-.076c0-.312-.129-.61-.352-.816-.19-.177-.434-.274-.688-.274h-3.413c-.572 0-1.039.489-1.039 1.089s.467 1.089 1.039 1.089zm0-1.166h3.413l.048.02.025.057-.026.057-.047.019h-.001c-.267 0-.483.226-.483.506s.216.506.483.506h2.048l.149.06c.029.027.077.085.077.177 0 .093-.048.151-.077.178l-.149.06h-4.21c-.125 0-.226-.106-.226-.237 0-.13.102-.237.226-.237.267 0 .483-.227.483-.506h.002c0-.28-.216-.506-.483-.506h-1.251l-.073-.076.073-.077zm9.469 6.649c.257-.226.622-.231.883-.034l.006.014c.079.179.25.293.438.293h.055c.188 0 .359-.114.438-.293l.006-.014c.261-.197.626-.192.883.034.204.18.509.152.681-.062.171-.214.145-.534-.059-.714-.572-.504-1.374-.539-1.975-.145-.603-.393-1.403-.358-1.976.145-.204.18-.231.499-.059.714.171.214.476.242.681.062zm9.265 11.475c.17-.07.294-.12.581-.12.289 0 .411.05.582.12.206.085.463.19.934.19.267 0 .483-.226.483-.506s-.216-.506-.483-.506c-.289 0-.411-.05-.582-.12-.207-.085-.464-.19-.934-.19-.469 0-.726.105-.932.19-.123.05-.222.09-.374.108v-2.501l-.006-.063.005-.095-.278-7.527-.004-.035.003-.098-.417-7.527c-.014-.241-.186-.432-.406-.469v-2.823c0-.279-.216-.506-.483-.506s-.483.227-.483.506v2.823c-.22.037-.392.228-.405.469l-.418 7.527.004.098-.004.035-.278 7.527.005.095-.006.063v2.474l-.228-.082c-.206-.085-.463-.19-.933-.19-.47 0-.727.105-.933.19-.171.07-.294.12-.581.12s-.411-.05-.581-.12c-.206-.085-.463-.19-.932-.19-.148 0-.273.011-.383.028l-.125-3.291-.007-.055c.327.183.602.447.801.778.29.481.382 1.048.258 1.595-.061.273.1.545.36.609l.111.013c.219 0 .417-.157.47-.391.182-.814.047-1.655-.382-2.367-.262-.436-.615-.792-1.029-1.053.8-.295 1.734-.107 2.356.553.094.1.219.151.343.151.123 0 .246-.049.34-.146.19-.197.192-.517.004-.716-.889-.944-2.224-1.214-3.367-.793.372-.675 1.092-1.133 1.918-1.133.267 0 .484-.226.484-.506s-.216-.506-.484-.506c-1.12 0-2.105.594-2.665 1.488-.56-.893-1.545-1.488-2.665-1.488-.267 0-.484.227-.484.506 0 .28.216.506.484.506.826 0 1.546.458 1.918 1.133-1.143-.421-2.478-.151-3.367.793-.188.199-.186.52.004.716.094.098.217.146.34.146.124 0 .249-.05.343-.151.623-.66 1.557-.848 2.356-.553-.414.26-.767.616-1.029 1.052-.429.713-.565 1.554-.382 2.368.053.233.251.391.47.391l.111-.013c.26-.064.421-.337.36-.609-.123-.547-.032-1.114.258-1.595.201-.334.481-.6.813-.784l-.009.061-.135 3.571c-.222-.01-.336-.057-.486-.118-.206-.085-.463-.19-.933-.19-.469 0-.727.105-.933.19-.171.07-.294.12-.581.12-.288 0-.411-.05-.581-.12-.207-.085-.464-.19-.933-.19-.469 0-.726.105-.933.19l-.04.016c-.99-12.557-6.446-16.203-6.701-16.366l-.163-.083v-1.382c0-.28-.216-.506-.483-.506s-.483.227-.483.506v1.554c-.077.068-.146.15-.202.245-.253.434-.159.985.202 1.301v3.138c-.289.175-.484.501-.484.876v10.518c-.344.025-.556.111-.729.182-.17.07-.294.12-.581.12-.288 0-.411-.05-.581-.12-.207-.085-.463-.19-.933-.19-.469 0-.726.105-.933.19-.17.07-.293.12-.581.12-.267 0-.483.226-.483.506s.216.506.483.506c.469 0 .726-.105.933-.19.17-.07.294-.12.58-.12.288 0 .411.05.581.12.206.085.463.19.933.19.469 0 .726-.105.932-.19.124-.051.224-.091.378-.109v2.206h-3.473c-.533 0-.966.454-.966 1.013 0 .56.433 1.012.966 1.012h13.544c.172 0 .312.148.312.328 0 .181-.14.328-.312.328l-.137.01c-1.169.08-2.097 1.103-2.097 2.348 0 1.281.982 2.327 2.199 2.353h14.777999999999999c.533 0 .966-.453.966-1.013 0-.559-.432-1.012-.966-1.012h-2.111v-7.283c.341-.026.552-.11.726-.182zm-2.311-17.258l.312 5.626h-.625l.312-5.626zm-.6 13.276l.241-6.514h.719l.241 6.514h-1.201zm-5.174 3.861c.287 0 .411.05.581.12.206.085.464.19.933.19.469 0 .727-.105.933-.19.171-.07.294-.12.582-.12s.411.05.581.12c.148.06.322.131.58.167v7.298h-4.247l-.286-7.549c.09-.022.195-.036.344-.036zm-13.41 2.217v-.824h3.379c.267 0 .483-.226.483-.506s-.216-.506-.483-.506h-3.379v-.938h3.379c.267 0 .483-.227.483-.507s-.216-.506-.483-.506h-3.379v-.938h3.24c.267 0 .483-.226.483-.506s-.216-.506-.483-.506h-3.24v-.939h2.928c.267 0 .483-.226.483-.506s-.216-.506-.483-.506h-2.928v-.939h2.402c.267 0 .484-.226.484-.506s-.216-.506-.484-.506h-2.402v-.938h1.704c.267 0 .484-.226.484-.506s-.216-.507-.484-.507h-1.704v-.938h1.071c.267 0 .483-.226.483-.506s-.216-.507-.483-.507h-1.071v-.198c0-.375-.195-.701-.483-.876v-2.283c.561.59 1.332 1.555 2.099 3.008 2.277 4.313 2.895 9.761 2.977 13.892h-4.592zm7.836 5.039c0-.181.14-.328.313-.328l.137-.01c1.169-.08 2.097-1.103 2.097-2.349 0-1.297-1.008-2.353-2.248-2.353h-1.61c-.013-.683-.037-1.345-.074-1.983l.321-.114c.171-.07.293-.12.581-.12s.411.05.581.12c.206.085.463.19.933.19.469 0 .726-.105.933-.19.17-.07.294-.12.581-.12s.411.05.581.12c.186.076.414.168.799.186l-.276 7.278h-3.336c-.173 0-.313-.147-.313-.328zm10.729-9.966h1.239v10.294h-1.239v-10.294zm-16.305 10.801h-5.115c-.267 0-.483.227-.483.506 0 .28.216.507.483.507h5.115c.267 0 .483-.227.483-.507 0-.279-.216-.506-.483-.506zm2.082-2.263h-8.522c-.267 0-.483.227-.483.506 0 .28.216.506.483.506h8.522c.267 0 .483-.227.483-.506 0-.28-.216-.506-.483-.506z" fill="#67737B"/><path d="M10.173 5.54h.079l-.022.237c0 .689.535 1.25 1.192 1.25h4.21c.29 0 .57-.111.788-.312.257-.238.405-.58.405-.938s-.148-.7-.404-.937c-.218-.202-.498-.313-.788-.313h-1.011l.004-.076c0-.312-.129-.61-.352-.816-.19-.177-.434-.274-.688-.274h-3.413c-.572 0-1.039.489-1.039 1.089s.467 1.089 1.039 1.089zm0-1.166h3.413l.048.02.025.057-.026.057-.047.019h-.001c-.267 0-.483.226-.483.506s.216.506.483.506h2.048l.149.06c.029.027.077.085.077.177 0 .093-.048.151-.077.178l-.149.06h-4.21c-.125 0-.226-.106-.226-.237 0-.13.102-.237.226-.237.267 0 .483-.227.483-.506h.002c0-.28-.216-.506-.483-.506h-1.251l-.073-.076.073-.077zm9.469 6.649c.257-.226.622-.231.883-.034l.006.014c.079.179.25.293.438.293h.055c.188 0 .359-.114.438-.293l.006-.014c.261-.197.626-.192.883.034.204.18.509.152.681-.062.171-.214.145-.534-.059-.714-.572-.504-1.374-.539-1.975-.145-.603-.393-1.403-.358-1.976.145-.204.18-.231.499-.059.714.171.214.476.242.681.062zm9.265 11.475c.17-.07.294-.12.581-.12.289 0 .411.05.582.12.206.085.463.19.934.19.267 0 .483-.226.483-.506s-.216-.506-.483-.506c-.289 0-.411-.05-.582-.12-.207-.085-.464-.19-.934-.19-.469 0-.726.105-.932.19-.123.05-.222.09-.374.108v-2.501l-.006-.063.005-.095-.278-7.527-.004-.035.003-.098-.417-7.527c-.014-.241-.186-.432-.406-.469v-2.823c0-.279-.216-.506-.483-.506s-.483.227-.483.506v2.823c-.22.037-.392.228-.405.469l-.418 7.527.004.098-.004.035-.278 7.527.005.095-.006.063v2.474l-.228-.082c-.206-.085-.463-.19-.933-.19-.47 0-.727.105-.933.19-.171.07-.294.12-.581.12s-.411-.05-.581-.12c-.206-.085-.463-.19-.932-.19-.148 0-.273.011-.383.028l-.125-3.291-.007-.055c.327.183.602.447.801.778.29.481.382 1.048.258 1.595-.061.273.1.545.36.609l.111.013c.219 0 .417-.157.47-.391.182-.814.047-1.655-.382-2.367-.262-.436-.615-.792-1.029-1.053.8-.295 1.734-.107 2.356.553.094.1.219.151.343.151.123 0 .246-.049.34-.146.19-.197.192-.517.004-.716-.889-.944-2.224-1.214-3.367-.793.372-.675 1.092-1.133 1.918-1.133.267 0 .484-.226.484-.506s-.216-.506-.484-.506c-1.12 0-2.105.594-2.665 1.488-.56-.893-1.545-1.488-2.665-1.488-.267 0-.484.227-.484.506 0 .28.216.506.484.506.826 0 1.546.458 1.918 1.133-1.143-.421-2.478-.151-3.367.793-.188.199-.186.52.004.716.094.098.217.146.34.146.124 0 .249-.05.343-.151.623-.66 1.557-.848 2.356-.553-.414.26-.767.616-1.029 1.052-.429.713-.565 1.554-.382 2.368.053.233.251.391.47.391l.111-.013c.26-.064.421-.337.36-.609-.123-.547-.032-1.114.258-1.595.201-.334.481-.6.813-.784l-.009.061-.135 3.571c-.222-.01-.336-.057-.486-.118-.206-.085-.463-.19-.933-.19-.469 0-.727.105-.933.19-.171.07-.294.12-.581.12-.288 0-.411-.05-.581-.12-.207-.085-.464-.19-.933-.19-.469 0-.726.105-.933.19l-.04.016c-.99-12.557-6.446-16.203-6.701-16.366l-.163-.083v-1.382c0-.28-.216-.506-.483-.506s-.483.227-.483.506v1.554c-.077.068-.146.15-.202.245-.253.434-.159.985.202 1.301v3.138c-.289.175-.484.501-.484.876v10.518c-.344.025-.556.111-.729.182-.17.07-.294.12-.581.12-.288 0-.411-.05-.581-.12-.207-.085-.463-.19-.933-.19-.469 0-.726.105-.933.19-.17.07-.293.12-.581.12-.267 0-.483.226-.483.506s.216.506.483.506c.469 0 .726-.105.933-.19.17-.07.294-.12.58-.12.288 0 .411.05.581.12.206.085.463.19.933.19.469 0 .726-.105.932-.19.124-.051.224-.091.378-.109v2.206h-3.473c-.533 0-.966.454-.966 1.013 0 .56.433 1.012.966 1.012h13.544c.172 0 .312.148.312.328 0 .181-.14.328-.312.328l-.137.01c-1.169.08-2.097 1.103-2.097 2.348 0 1.281.982 2.327 2.199 2.353h14.777999999999999c.533 0 .966-.453.966-1.013 0-.559-.432-1.012-.966-1.012h-2.111v-7.283c.341-.026.552-.11.726-.182zm-2.311-17.258l.312 5.626h-.625l.312-5.626zm-.6 13.276l.241-6.514h.719l.241 6.514h-1.201zm-5.174 3.861c.287 0 .411.05.581.12.206.085.464.19.933.19.469 0 .727-.105.933-.19.171-.07.294-.12.582-.12s.411.05.581.12c.148.06.322.131.58.167v7.298h-4.247l-.286-7.549c.09-.022.195-.036.344-.036zm-13.41 2.217v-.824h3.379c.267 0 .483-.226.483-.506s-.216-.506-.483-.506h-3.379v-.938h3.379c.267 0 .483-.227.483-.507s-.216-.506-.483-.506h-3.379v-.938h3.24c.267 0 .483-.226.483-.506s-.216-.506-.483-.506h-3.24v-.939h2.928c.267 0 .483-.226.483-.506s-.216-.506-.483-.506h-2.928v-.939h2.402c.267 0 .484-.226.484-.506s-.216-.506-.484-.506h-2.402v-.938h1.704c.267 0 .484-.226.484-.506s-.216-.507-.484-.507h-1.704v-.938h1.071c.267 0 .483-.226.483-.506s-.216-.507-.483-.507h-1.071v-.198c0-.375-.195-.701-.483-.876v-2.283c.561.59 1.332 1.555 2.099 3.008 2.277 4.313 2.895 9.761 2.977 13.892h-4.592zm7.836 5.039c0-.181.14-.328.313-.328l.137-.01c1.169-.08 2.097-1.103 2.097-2.349 0-1.297-1.008-2.353-2.248-2.353h-1.61c-.013-.683-.037-1.345-.074-1.983l.321-.114c.171-.07.293-.12.581-.12s.411.05.581.12c.206.085.463.19.933.19.469 0 .726-.105.933-.19.17-.07.294-.12.581-.12s.411.05.581.12c.186.076.414.168.799.186l-.276 7.278h-3.336c-.173 0-.313-.147-.313-.328zm10.729-9.966h1.239v10.294h-1.239v-10.294zm-16.305 10.801h-5.115c-.267 0-.483.227-.483.506 0 .28.216.507.483.507h5.115c.267 0 .483-.227.483-.507 0-.279-.216-.506-.483-.506zm2.082-2.263h-8.522c-.267 0-.483.227-.483.506 0 .28.216.506.483.506h8.522c.267 0 .483-.227.483-.506 0-.28-.216-.506-.483-.506z" fill="#3A434E"/></g></g></svg>