<svg width="32" height="232" viewBox="0 0 32 232" xmlns="http://www.w3.org/2000/svg" xmlns:sketch="http://www.bohemiancoding.com/sketch/ns"><title>dublin</title><desc>Created with Sketch.</desc><g sketch:type="MSPage" fill="none"><g sketch:type="MSShapeGroup"><path d="M20.955 124.95c.197.187.449.29.71.29h2.666c0 .293.117.572.32.765.172.165.394.255.624.255h2.9c.521 0 .944-.458.944-1.02 0-.561-.421-1.017-.94-1.02l.009-.141c0-.64-.482-1.162-1.074-1.162h-5.449c-.261 0-.513.103-.71.291-.232.22-.364.538-.364.871 0 .332.133.65.365.871zm.624-.977l.086-.036h5.449c.072 0 .131.064.131.141 0 .078-.059.141-.131.141-.261 0-.472.228-.472.51h-.001c0 .282.211.51.472.51l1.063.001-2.901-.001h.002c.261 0 .472-.228.472-.51 0-.282-.211-.51-.472-.51h-3.612l-.085-.036-.045-.106.045-.106zm-16.329-.554l-.008.142c0 .64.482 1.161 1.074 1.161h5.449c.262 0 .513-.103.71-.291.231-.221.364-.538.364-.871 0-.332-.133-.65-.365-.871-.197-.187-.448-.29-.71-.29h-2.666v-.001c0-.293-.117-.571-.319-.765-.173-.164-.395-.255-.624-.255h-2.901c-.521 0-.944.457-.944 1.02 0 .561.421 1.017.939 1.02zm2.905-1.019h-.002c-.261 0-.472.228-.472.51 0 .282.212.509.472.509h3.611l.086.036.045.106-.045.105-.086.036h-5.449c-.072 0-.13-.064-.13-.141 0-.078.058-.142.13-.142.261 0 .472-.228.472-.509h.001c0-.282-.211-.51-.472-.51l-1.063-.001 2.901.001zm23.359 24.835c-.281 0-.401-.051-.568-.121l-.104-.043v-14.023c0-.282-.211-.509-.472-.509h-4.601v-.672c0-.282-.211-.51-.472-.51s-.472.228-.472.51v.672h-2.68v-2.407l.007-.075c0-2.356-1.67-4.299-3.798-4.521v-3.196c0-.282-.211-.51-.472-.51h-2.607c-.174 0-.334.104-.416.27-.082.166-.073.367.024.523l.504.816-.504.816c-.097.156-.106.358-.024.523.082.166.242.269.416.269h2.136v.506c-2.065.286-3.667 2.196-3.667 4.504v.791h-.6c-.261 0-.472.228-.472.509v.467h-.31v-.467c0-.282-.212-.509-.472-.509h-1.565c-.261 0-.472.228-.472.509v.467h-.31v-.467c0-.282-.211-.509-.472-.509h-1.565c-.261 0-.472.228-.472.509v.467h-.31v-.467c0-.282-.211-.509-.472-.509h-1.565c-.261 0-.472.228-.472.509v.467h-.309v-.467c0-.282-.211-.509-.472-.509h-1.864c-.261 0-.472.228-.472.509v1.691c0 .282.211.51.472.51h.048v13.468l.033.184-.286-.096c-.202-.085-.453-.191-.911-.191-.261 0-.472.228-.472.51 0 .282.211.51.472.51.281 0 .401.051.568.121.202.085.453.191.912.191s.709-.106.911-.191c.166-.071.287-.121.568-.121.281 0 .402.051.568.121.202.085.453.191.911.191.459 0 .709-.106.911-.191.166-.071.287-.121.568-.121.281 0 .402.051.568.121.202.085.453.191.911.191.459 0 .71-.106.912-.191.166-.071.287-.121.568-.121.281 0 .401.051.568.121.201.085.452.191.911.191.458 0 .709-.106.911-.191.166-.071.287-.121.568-.121.281 0 .401.051.568.121.201.085.452.191.911.191.458 0 .709-.106.911-.191.166-.071.287-.121.568-.121.281 0 .401.051.568.121.201.085.452.191.911.191s.71-.106.911-.191c.167-.071.287-.121.568-.121.281 0 .401.051.568.121.202.085.453.191.911.191.459 0 .71-.106.912-.191.166-.071.287-.121.568-.121.281 0 .401.051.568.121.202.085.452.191.911.191s.71-.106.912-.191c.166-.071.287-.121.568-.121.281 0 .401.051.567.121.202.085.453.191.912.191s.71-.106.911-.191c.167-.071.287-.121.568-.121.281 0 .402.051.568.121.202.085.453.191.911.191.459 0 .71-.106.912-.191.167-.071.287-.121.568-.121.281 0 .402.051.568.121.202.085.453.191.912.191.261 0 .472-.228.472-.51 0-.282-.211-.509-.472-.509zm-29.473-15.368h.92v.467c0 .282.212.509.472.509h1.254c.261 0 .472-.228.472-.509v-.467h.621v.467c0 .282.211.509.472.509h1.253c.261 0 .472-.228.472-.509v-.467h.621v.467c0 .282.211.509.472.509h1.254c.261 0 .472-.228.472-.509v-.467h.62v.467c0 .282.211.509.472.509h1.254c.261 0 .472-.228.472-.509v-.467h.866v.671c-.099.001-.191.037-.266.094-.12.093-.199.244-.199.415v.505l-.029-.002h-11.396l-.029.002v-.505c0-.282-.211-.509-.472-.509h-.048v-.671zm14.743-5.102c-.301.733-.472 1.747-.523 2.781h-1.542c.172-1.276.98-2.332 2.064-2.781zm4.387 2.781h-1.542c-.051-1.033-.221-2.048-.523-2.781 1.084.448 1.892 1.505 2.064 2.781zm-7.951 13.93c-.282-.02-.562-.031-.84-.031-.364 0-.726.013-1.088.036-3.085.197-6.054 1.233-8.686 3.033v-1.973c.471-.195.954-.374 1.446-.54 2.557-.858 5.398-1.308 8.328-1.308l.547.008.354.015c.395.019.794.048 1.198.091l.331.04.613.084c1.32.199 2.692.525 4.129.983l.056.018c.293.094.59.194.888.299l.056.02.834.304v2.004c-.281-.18-.558-.351-.834-.515l-.056-.034c-.299-.176-.594-.343-.888-.501l-.056-.03c-1.43-.765-2.802-1.31-4.129-1.642-.317-.08-.632-.147-.944-.202l-.123-.021c-.382-.064-.761-.109-1.136-.136zm6.332-.626c-1.433-.442-2.804-.758-4.129-.95v-8.343h4.129v9.293zm-13.501-5.752h.944v2.808h-.944v-2.808zm3.528 0h.944v2.808h-.944v-2.808zm-1.764 0h.944v2.808h-.944v-2.808zm5.112 4.581l-.547-.008c-2.917 0-5.754.434-8.328 1.262v-7.344h8.875v6.089zm5.018-14.995c.204.112.65 1.062.74 2.861h-1.48c.09-1.799.536-2.749.74-2.861zm-3.26 3.881h6.514v1.718h-.647v-.418c0-.282-.211-.51-.472-.51s-.473.228-.473.51v.418h-4.184v-.927c0-.282-.211-.509-.472-.509h-.266v-.281zm4.867 16.055v.248h-4.129v-1.985c1.318.353 2.689.93 4.129 1.737zm6.215-13.064h4.129v13.312h-4.129v-13.312zm-1.087 0v13.312h-2.35v-2.676c0-.215-.125-.407-.313-.479-.496-.193-.984-.371-1.466-.537v-9.62h4.128zm-8.525-9.53l.189-.306c.106-.171.106-.395 0-.566l-.188-.306h1.252v1.178h-1.253zm-2.392 23.208c-.281 0-.402-.051-.568-.121-.202-.085-.453-.191-.911-.191-.459 0-.71.106-.911.191-.166.071-.287.121-.568.121-.281 0-.402-.051-.568-.121-.202-.085-.453-.191-.911-.191-.459 0-.71.106-.912.191-.167.071-.287.121-.568.121-.281 0-.401-.051-.568-.121-.202-.085-.453-.191-.912-.191s-.71.106-.911.191c-.167.071-.287.121-.568.121-.281 0-.401-.051-.568-.121-.141-.06-.309-.129-.553-.165 2.627-1.629 5.574-2.483 8.612-2.483.687 0 1.385.068 2.099.202v2.386l-.148.06c-.166.071-.287.121-.568.121zm14.79 2.151c-.281 0-.401-.051-.568-.121-.202-.085-.453-.191-.911-.191-.459 0-.71.106-.912.191-.167.07-.287.121-.568.121-.281 0-.401-.051-.568-.121-.202-.085-.453-.191-.911-.191-.459 0-.71.106-.912.191-.167.07-.287.121-.568.121-.281 0-.401-.051-.568-.121-.202-.085-.453-.191-.911-.191-.459 0-.71.106-.912.191-.166.07-.287.121-.568.121-.281 0-.401-.051-.568-.121-.202-.085-.453-.191-.912-.191-.458 0-.709.106-.911.191-.166.07-.287.121-.568.121-.281 0-.401-.051-.568-.121-.202-.085-.453-.191-.911-.191-.459 0-.71.106-.911.191-.166.07-.287.121-.568.121-.281 0-.402-.051-.568-.121-.202-.085-.453-.191-.911-.191-.261 0-.472.228-.472.509 0 .282.211.51.472.51.281 0 .401.051.568.121.201.086.452.191.911.191.458 0 .709-.105.911-.191.166-.07.287-.121.568-.121.281 0 .401.051.568.121.201.086.452.191.911.191s.71-.105.911-.191c.167-.07.287-.121.568-.121.281 0 .401.051.568.121.202.086.453.191.911.191.459 0 .71-.105.912-.191.166-.07.287-.121.568-.121.281 0 .401.051.568.121.202.086.452.191.911.191s.71-.105.912-.191c.166-.07.287-.121.568-.121.281 0 .401.051.567.121.202.086.453.191.912.191s.71-.105.911-.191c.167-.07.287-.121.568-.121.281 0 .402.051.568.121.202.086.453.191.911.191.261 0 .472-.228.472-.509 0-.282-.212-.51-.472-.51zm-1.422-11.12c-.272 0-.494.231-.506.522v1.328h1.012v-1.328c-.013-.291-.234-.522-.506-.522zm1.515 0c-.272 0-.493.231-.506.522v1.328h1.012v-1.328c-.012-.291-.234-.522-.506-.522zm-1.515-2.507c-.272 0-.494.231-.506.521v1.328h1.012v-1.328c-.013-.291-.234-.521-.506-.521zm1.515 0c-.272 0-.493.231-.506.521v1.328h1.012v-1.328c-.012-.291-.234-.521-.506-.521zm-11.41 1.496c-.013-.189-.235-.34-.506-.34-.272 0-.493.15-.506.34v.865h1.013v-.865zm1.515 0c-.012-.189-.234-.34-.506-.34s-.494.15-.506.34v.865h1.012v-.865zm-1.515-1.632c-.013-.189-.235-.34-.506-.34-.272 0-.493.151-.506.34v.865h1.013v-.865zm1.515 0c-.012-.189-.234-.34-.506-.34s-.494.151-.506.34v.865h1.012v-.865zm-1.515 5.144c-.013-.189-.235-.34-.506-.34-.272 0-.493.151-.506.34v.865h1.013v-.865zm1.515 0c-.012-.189-.234-.34-.506-.34s-.494.151-.506.34v.865h1.012v-.865zm-1.515-1.632c-.013-.189-.235-.34-.506-.34-.272 0-.493.151-.506.34v.865h1.013v-.865zm1.515 0c-.012-.189-.234-.34-.506-.34s-.494.151-.506.34v.865h1.012v-.865zm8.38 4.714c-.272 0-.494.231-.506.521v1.329h1.012v-1.329c-.013-.29-.234-.521-.506-.521zm1.515 0c-.272 0-.493.231-.506.521v1.329h1.012v-1.329c-.012-.29-.234-.521-.506-.521zm-1.515-2.508c-.272 0-.494.231-.506.522v1.328h1.012v-1.328c-.013-.291-.234-.522-.506-.522zm1.515 0c-.272 0-.493.231-.506.522v1.328h1.012v-1.328c-.012-.291-.234-.522-.506-.522zm-6.282-2.7c-.013-.29-.234-.521-.506-.521s-.494.231-.506.521v1.329h1.012v-1.329zm1.516 0c-.012-.29-.234-.521-.506-.521s-.493.231-.506.521v1.329h1.012v-1.329zm-1.516-2.508c-.013-.29-.234-.521-.506-.521s-.494.231-.506.521v1.329h1.012v-1.329zm1.516 0c-.012-.29-.234-.521-.506-.521s-.493.231-.506.521v1.329h1.012v-1.329zm-1.516 4.995c-.013-.29-.234-.521-.506-.521s-.494.231-.506.521v1.329h1.012v-1.329zm1.516 0c-.012-.29-.234-.521-.506-.521s-.493.231-.506.521v1.329h1.012v-1.329z" fill="#206FAC"/><path d="M20.955 84.95c.197.187.449.29.71.29h2.666c0 .293.117.572.32.765.172.165.394.255.624.255h2.9c.521 0 .944-.458.944-1.02 0-.561-.421-1.017-.94-1.02l.009-.141c0-.64-.482-1.162-1.074-1.162h-5.449c-.261 0-.513.103-.71.291-.232.22-.364.538-.364.871 0 .332.133.65.365.871zm.624-.977l.086-.036h5.449c.072 0 .131.064.131.141 0 .078-.059.141-.131.141-.261 0-.472.228-.472.51h-.001c0 .282.211.51.472.51l1.063.001-2.901-.001h.002c.261 0 .472-.228.472-.51 0-.282-.211-.51-.472-.51h-3.612l-.085-.036-.045-.106.045-.106zm-16.329-.554l-.008.142c0 .64.482 1.161 1.074 1.161h5.449c.262 0 .513-.103.71-.291.231-.221.364-.538.364-.871 0-.332-.133-.65-.365-.871-.197-.187-.448-.29-.71-.29h-2.666v-.001c0-.293-.117-.571-.319-.765-.173-.164-.395-.255-.624-.255h-2.901c-.521 0-.944.457-.944 1.02 0 .561.421 1.017.939 1.02zm2.905-1.019h-.002c-.261 0-.472.228-.472.51 0 .282.212.509.472.509h3.611l.086.036.045.106-.045.105-.086.036h-5.449c-.072 0-.13-.064-.13-.141 0-.078.058-.142.13-.142.261 0 .472-.228.472-.509h.001c0-.282-.211-.51-.472-.51l-1.063-.001 2.901.001zm23.359 24.835c-.281 0-.401-.051-.568-.121l-.104-.043v-14.023c0-.282-.211-.509-.472-.509h-4.601v-.672c0-.282-.211-.51-.472-.51s-.472.228-.472.51v.672h-2.68v-2.406l.007-.075c0-2.356-1.67-4.299-3.798-4.521v-3.196c0-.282-.211-.51-.472-.51h-2.607c-.174 0-.334.104-.416.27-.082.166-.073.367.024.523l.504.816-.504.816c-.097.156-.106.358-.024.523.082.166.242.269.416.269h2.136v.506c-2.065.286-3.667 2.196-3.667 4.504v.791h-.6c-.261 0-.472.228-.472.509v.467h-.31v-.467c0-.282-.212-.509-.472-.509h-1.565c-.261 0-.472.228-.472.509v.467h-.31v-.467c0-.282-.211-.509-.472-.509h-1.565c-.261 0-.472.228-.472.509v.467h-.31v-.467c0-.282-.211-.509-.472-.509h-1.565c-.261 0-.472.228-.472.509v.467h-.309v-.467c0-.282-.211-.509-.472-.509h-1.864c-.261 0-.472.228-.472.509v1.691c0 .282.211.51.472.51h.048v13.468l.033.184-.286-.096c-.202-.085-.453-.191-.911-.191-.261 0-.472.228-.472.51 0 .282.211.51.472.51.281 0 .401.051.568.121.202.085.453.191.912.191s.709-.106.911-.191c.166-.071.287-.121.568-.121.281 0 .402.051.568.121.202.085.453.191.911.191.459 0 .709-.106.911-.191.166-.071.287-.121.568-.121.281 0 .402.051.568.121.202.085.453.191.911.191.459 0 .71-.106.912-.191.166-.071.287-.121.568-.121.281 0 .401.051.568.121.201.085.452.191.911.191.458 0 .709-.106.911-.191.166-.071.287-.121.568-.121.281 0 .401.051.568.121.201.085.452.191.911.191.458 0 .709-.106.911-.191.166-.071.287-.121.568-.121.281 0 .401.051.568.121.201.085.452.191.911.191s.71-.106.911-.191c.167-.071.287-.121.568-.121.281 0 .401.051.568.121.202.085.453.191.911.191.459 0 .71-.106.912-.191.166-.071.287-.121.568-.121.281 0 .401.051.568.121.202.085.452.191.911.191s.71-.106.912-.191c.166-.071.287-.121.568-.121.281 0 .401.051.567.121.202.085.453.191.912.191s.71-.106.911-.191c.167-.071.287-.121.568-.121.281 0 .402.051.568.121.202.085.453.191.911.191.459 0 .71-.106.912-.191.167-.071.287-.121.568-.121.281 0 .402.051.568.121.202.085.453.191.912.191.261 0 .472-.228.472-.51 0-.282-.211-.509-.472-.509zm-29.473-15.368h.92v.467c0 .282.212.509.472.509h1.254c.261 0 .472-.228.472-.509v-.467h.621v.467c0 .282.211.509.472.509h1.253c.261 0 .472-.228.472-.509v-.467h.621v.467c0 .282.211.509.472.509h1.254c.261 0 .472-.228.472-.509v-.467h.62v.467c0 .282.211.509.472.509h1.254c.261 0 .472-.228.472-.509v-.467h.866v.671c-.099.001-.191.037-.266.094-.12.093-.199.244-.199.415v.505l-.029-.002h-11.396l-.029.002v-.505c0-.282-.211-.509-.472-.509h-.048v-.671zm14.743-5.102c-.301.733-.472 1.747-.523 2.781h-1.542c.172-1.276.98-2.332 2.064-2.781zm4.387 2.781h-1.542c-.051-1.033-.221-2.048-.523-2.781 1.084.448 1.892 1.505 2.064 2.781zm-7.951 13.93c-.282-.02-.562-.031-.84-.031-.364 0-.726.013-1.088.036-3.085.197-6.054 1.233-8.686 3.033v-1.973c.471-.195.954-.374 1.446-.54 2.557-.858 5.398-1.308 8.328-1.308l.547.008.354.015c.395.019.794.048 1.198.091l.331.04.613.084c1.32.199 2.692.525 4.129.983l.056.018c.293.094.59.194.888.299l.056.02.834.304v2.004c-.281-.18-.558-.351-.834-.515l-.056-.034c-.299-.176-.594-.343-.888-.501l-.056-.03c-1.43-.765-2.802-1.31-4.129-1.642-.317-.08-.632-.147-.944-.202l-.123-.021c-.382-.064-.761-.109-1.136-.136zm6.332-.626c-1.433-.442-2.804-.758-4.129-.95v-8.343h4.129v9.293zm-13.501-5.752h.944v2.808h-.944v-2.808zm3.528 0h.944v2.808h-.944v-2.808zm-1.764 0h.944v2.808h-.944v-2.808zm5.112 4.581l-.547-.008c-2.917 0-5.754.434-8.328 1.262v-7.344h8.875v6.089zm5.018-14.995c.204.112.65 1.062.74 2.861h-1.48c.09-1.799.536-2.749.74-2.861zm-3.26 3.881h6.514v1.718h-.647v-.418c0-.282-.211-.51-.472-.51s-.473.228-.473.51v.418h-4.184v-.927c0-.282-.211-.509-.472-.509h-.266v-.281zm4.867 16.055v.248h-4.129v-1.985c1.318.353 2.689.93 4.129 1.737zm6.215-13.064h4.129v13.312h-4.129v-13.312zm-1.087 0v13.312h-2.35v-2.676c0-.215-.125-.407-.313-.479-.496-.193-.984-.371-1.466-.537v-9.62h4.128zm-8.525-9.53l.189-.306c.106-.171.106-.395 0-.566l-.188-.306h1.252v1.178h-1.253zm-2.392 23.208c-.281 0-.402-.051-.568-.121-.202-.085-.453-.191-.911-.191-.459 0-.71.106-.911.191-.166.071-.287.121-.568.121-.281 0-.402-.051-.568-.121-.202-.085-.453-.191-.911-.191-.459 0-.71.106-.912.191-.167.071-.287.121-.568.121-.281 0-.401-.051-.568-.121-.202-.085-.453-.191-.912-.191s-.71.106-.911.191c-.167.071-.287.121-.568.121-.281 0-.401-.051-.568-.121-.141-.06-.309-.129-.553-.165 2.627-1.629 5.574-2.483 8.612-2.483.687 0 1.385.068 2.099.202v2.386l-.148.06c-.166.071-.287.121-.568.121zm14.79 2.151c-.281 0-.401-.051-.568-.121-.202-.085-.453-.191-.911-.191-.459 0-.71.106-.912.191-.167.07-.287.121-.568.121-.281 0-.401-.051-.568-.121-.202-.085-.453-.191-.911-.191-.459 0-.71.106-.912.191-.167.07-.287.121-.568.121-.281 0-.401-.051-.568-.121-.202-.085-.453-.191-.911-.191-.459 0-.71.106-.912.191-.166.07-.287.121-.568.121-.281 0-.401-.051-.568-.121-.202-.085-.453-.191-.912-.191-.458 0-.709.106-.911.191-.166.07-.287.121-.568.121-.281 0-.401-.051-.568-.121-.202-.085-.453-.191-.911-.191-.459 0-.71.106-.911.191-.166.07-.287.121-.568.121-.281 0-.402-.051-.568-.121-.202-.085-.453-.191-.911-.191-.261 0-.472.228-.472.509 0 .282.211.51.472.51.281 0 .401.051.568.121.201.086.452.191.911.191.458 0 .709-.105.911-.191.166-.07.287-.121.568-.121.281 0 .401.051.568.121.201.086.452.191.911.191s.71-.105.911-.191c.167-.07.287-.121.568-.121.281 0 .401.051.568.121.202.086.453.191.911.191.459 0 .71-.105.912-.191.166-.07.287-.121.568-.121.281 0 .401.051.568.121.202.086.452.191.911.191s.71-.105.912-.191c.166-.07.287-.121.568-.121.281 0 .401.051.567.121.202.086.453.191.912.191s.71-.105.911-.191c.167-.07.287-.121.568-.121.281 0 .402.051.568.121.202.086.453.191.911.191.261 0 .472-.228.472-.509 0-.282-.212-.51-.472-.51zm-1.422-11.12c-.272 0-.494.231-.506.522v1.328h1.012v-1.328c-.013-.291-.234-.522-.506-.522zm1.515 0c-.272 0-.493.231-.506.522v1.328h1.012v-1.328c-.012-.291-.234-.522-.506-.522zm-1.515-2.507c-.272 0-.494.231-.506.521v1.328h1.012v-1.328c-.013-.291-.234-.521-.506-.521zm1.515 0c-.272 0-.493.231-.506.521v1.328h1.012v-1.328c-.012-.291-.234-.521-.506-.521zm-11.41 1.496c-.013-.189-.235-.34-.506-.34-.272 0-.493.15-.506.34v.865h1.013v-.865zm1.515 0c-.012-.189-.234-.34-.506-.34s-.494.15-.506.34v.865h1.012v-.865zm-1.515-1.632c-.013-.189-.235-.34-.506-.34-.272 0-.493.151-.506.34v.865h1.013v-.865zm1.515 0c-.012-.189-.234-.34-.506-.34s-.494.151-.506.34v.865h1.012v-.865zm-1.515 5.144c-.013-.189-.235-.34-.506-.34-.272 0-.493.151-.506.34v.865h1.013v-.865zm1.515 0c-.012-.189-.234-.34-.506-.34s-.494.151-.506.34v.865h1.012v-.865zm-1.515-1.632c-.013-.189-.235-.34-.506-.34-.272 0-.493.151-.506.34v.865h1.013v-.865zm1.515 0c-.012-.189-.234-.34-.506-.34s-.494.151-.506.34v.865h1.012v-.865zm8.38 4.714c-.272 0-.494.231-.506.521v1.329h1.012v-1.329c-.013-.29-.234-.521-.506-.521zm1.515 0c-.272 0-.493.231-.506.521v1.329h1.012v-1.329c-.012-.29-.234-.521-.506-.521zm-1.515-2.508c-.272 0-.494.231-.506.522v1.328h1.012v-1.328c-.013-.291-.234-.522-.506-.522zm1.515 0c-.272 0-.493.231-.506.522v1.328h1.012v-1.328c-.012-.291-.234-.522-.506-.522zm-6.282-2.7c-.013-.29-.234-.521-.506-.521s-.494.231-.506.521v1.329h1.012v-1.329zm1.516 0c-.012-.29-.234-.521-.506-.521s-.493.231-.506.521v1.329h1.012v-1.329zm-1.516-2.508c-.013-.29-.234-.521-.506-.521s-.494.231-.506.521v1.329h1.012v-1.329zm1.516 0c-.012-.29-.234-.521-.506-.521s-.493.231-.506.521v1.329h1.012v-1.329zm-1.516 4.995c-.013-.29-.234-.521-.506-.521s-.494.231-.506.521v1.329h1.012v-1.329zm1.516 0c-.012-.29-.234-.521-.506-.521s-.493.231-.506.521v1.329h1.012v-1.329z" fill="#fff"/><path d="M20.955 44.95c.197.187.449.29.71.29h2.666c0 .293.117.572.32.765.172.165.394.255.624.255h2.9c.521 0 .944-.458.944-1.02 0-.561-.421-1.017-.94-1.02l.009-.141c0-.64-.482-1.162-1.074-1.162h-5.449c-.261 0-.513.103-.71.291-.232.22-.364.538-.364.871 0 .332.133.65.365.871zm.624-.977l.086-.036h5.449c.072 0 .131.064.131.141 0 .078-.059.141-.131.141-.261 0-.472.228-.472.51h-.001c0 .282.211.51.472.51l1.063.001-2.901-.001h.002c.261 0 .472-.228.472-.51 0-.282-.211-.51-.472-.51h-3.612l-.085-.036-.045-.106.045-.106zm-16.329-.554l-.008.142c0 .64.482 1.161 1.074 1.161h5.449c.262 0 .513-.103.71-.291.231-.221.364-.538.364-.871 0-.332-.133-.65-.365-.871-.197-.187-.448-.29-.71-.29h-2.666v-.001c0-.293-.117-.571-.319-.765-.173-.164-.395-.255-.624-.255h-2.901c-.521 0-.944.457-.944 1.02 0 .561.421 1.017.939 1.02zm2.905-1.019h-.002c-.261 0-.472.228-.472.51 0 .282.212.509.472.509h3.611l.086.036.045.106-.045.105-.086.036h-5.449c-.072 0-.13-.064-.13-.141 0-.078.058-.142.13-.142.261 0 .472-.228.472-.509h.001c0-.282-.211-.51-.472-.51l-1.063-.001 2.901.001zm23.359 24.835c-.281 0-.401-.051-.568-.121l-.104-.043v-14.023c0-.282-.211-.509-.472-.509h-4.601v-.672c0-.282-.211-.51-.472-.51s-.472.228-.472.51v.672h-2.68v-2.406l.007-.075c0-2.356-1.67-4.299-3.798-4.521v-3.196c0-.282-.211-.51-.472-.51h-2.607c-.174 0-.334.104-.416.27-.082.166-.073.367.024.523l.504.816-.504.816c-.097.156-.106.358-.024.523.082.166.242.269.416.269h2.136v.506c-2.065.286-3.667 2.196-3.667 4.504v.791h-.6c-.261 0-.472.228-.472.509v.467h-.31v-.467c0-.282-.212-.509-.472-.509h-1.565c-.261 0-.472.228-.472.509v.467h-.31v-.467c0-.282-.211-.509-.472-.509h-1.565c-.261 0-.472.228-.472.509v.467h-.31v-.467c0-.282-.211-.509-.472-.509h-1.565c-.261 0-.472.228-.472.509v.467h-.309v-.467c0-.282-.211-.509-.472-.509h-1.864c-.261 0-.472.228-.472.509v1.691c0 .282.211.51.472.51h.048v13.468l.033.184-.286-.096c-.202-.085-.453-.191-.911-.191-.261 0-.472.228-.472.51 0 .282.211.51.472.51.281 0 .401.051.568.121.202.085.453.191.912.191s.709-.106.911-.191c.166-.071.287-.121.568-.121.281 0 .402.051.568.121.202.085.453.191.911.191.459 0 .709-.106.911-.191.166-.071.287-.121.568-.121.281 0 .402.051.568.121.202.085.453.191.911.191.459 0 .71-.106.912-.191.166-.071.287-.121.568-.121.281 0 .401.051.568.121.201.085.452.191.911.191.458 0 .709-.106.911-.191.166-.071.287-.121.568-.121.281 0 .401.051.568.121.201.085.452.191.911.191.458 0 .709-.106.911-.191.166-.071.287-.121.568-.121.281 0 .401.051.568.121.201.085.452.191.911.191s.71-.106.911-.191c.167-.071.287-.121.568-.121.281 0 .401.051.568.121.202.085.453.191.911.191.459 0 .71-.106.912-.191.166-.071.287-.121.568-.121.281 0 .401.051.568.121.202.085.452.191.911.191s.71-.106.912-.191c.166-.071.287-.121.568-.121.281 0 .401.051.567.121.202.085.453.191.912.191s.71-.106.911-.191c.167-.071.287-.121.568-.121.281 0 .402.051.568.121.202.085.453.191.911.191.459 0 .71-.106.912-.191.167-.071.287-.121.568-.121.281 0 .402.051.568.121.202.085.453.191.912.191.261 0 .472-.228.472-.51 0-.282-.211-.509-.472-.509zm-29.473-15.368h.92v.467c0 .282.212.509.472.509h1.254c.261 0 .472-.228.472-.509v-.467h.621v.467c0 .282.211.509.472.509h1.253c.261 0 .472-.228.472-.509v-.467h.621v.467c0 .282.211.509.472.509h1.254c.261 0 .472-.228.472-.509v-.467h.62v.467c0 .282.211.509.472.509h1.254c.261 0 .472-.228.472-.509v-.467h.866v.671c-.099.001-.191.037-.266.094-.12.093-.199.244-.199.415v.505l-.029-.002h-11.396l-.029.002v-.505c0-.282-.211-.509-.472-.509h-.048v-.671zm14.743-5.102c-.301.733-.472 1.747-.523 2.781h-1.542c.172-1.276.98-2.332 2.064-2.781zm4.387 2.781h-1.542c-.051-1.033-.221-2.048-.523-2.781 1.084.448 1.892 1.505 2.064 2.781zm-7.951 13.93c-.282-.02-.562-.031-.84-.031-.364 0-.726.013-1.088.036-3.085.197-6.054 1.233-8.686 3.033v-1.973c.471-.195.954-.374 1.446-.54 2.557-.858 5.398-1.308 8.328-1.308l.547.008.354.015c.395.019.794.048 1.198.091l.331.04.613.084c1.32.199 2.692.525 4.129.983l.056.018c.293.094.59.194.888.299l.056.02.834.304v2.004c-.281-.18-.558-.351-.834-.515l-.056-.034c-.299-.176-.594-.343-.888-.501l-.056-.03c-1.43-.765-2.802-1.31-4.129-1.642-.317-.08-.632-.147-.944-.202l-.123-.021c-.382-.064-.761-.109-1.136-.136zm6.332-.626c-1.433-.442-2.804-.758-4.129-.95v-8.343h4.129v9.293zm-13.501-5.752h.944v2.808h-.944v-2.808zm3.528 0h.944v2.808h-.944v-2.808zm-1.764 0h.944v2.808h-.944v-2.808zm5.112 4.581l-.547-.008c-2.917 0-5.754.434-8.328 1.262v-7.344h8.875v6.089zm5.018-14.995c.204.112.65 1.062.74 2.861h-1.48c.09-1.799.536-2.749.74-2.861zm-3.26 3.881h6.514v1.718h-.647v-.418c0-.282-.211-.51-.472-.51s-.473.228-.473.51v.418h-4.184v-.927c0-.282-.211-.509-.472-.509h-.266v-.281zm4.867 16.055v.248h-4.129v-1.985c1.318.353 2.689.93 4.129 1.737zm6.215-13.064h4.129v13.312h-4.129v-13.312zm-1.087 0v13.312h-2.35v-2.676c0-.215-.125-.407-.313-.479-.496-.193-.984-.371-1.466-.537v-9.62h4.128zm-8.525-9.53l.189-.306c.106-.171.106-.395 0-.566l-.188-.306h1.252v1.178h-1.253zm-2.392 23.208c-.281 0-.402-.051-.568-.121-.202-.085-.453-.191-.911-.191-.459 0-.71.106-.911.191-.166.071-.287.121-.568.121-.281 0-.402-.051-.568-.121-.202-.085-.453-.191-.911-.191-.459 0-.71.106-.912.191-.167.071-.287.121-.568.121-.281 0-.401-.051-.568-.121-.202-.085-.453-.191-.912-.191s-.71.106-.911.191c-.167.071-.287.121-.568.121-.281 0-.401-.051-.568-.121-.141-.06-.309-.129-.553-.165 2.627-1.629 5.574-2.483 8.612-2.483.687 0 1.385.068 2.099.202v2.386l-.148.06c-.166.071-.287.121-.568.121zm14.79 2.151c-.281 0-.401-.051-.568-.121-.202-.085-.453-.191-.911-.191-.459 0-.71.106-.912.191-.167.07-.287.121-.568.121-.281 0-.401-.051-.568-.121-.202-.085-.453-.191-.911-.191-.459 0-.71.106-.912.191-.167.07-.287.121-.568.121-.281 0-.401-.051-.568-.121-.202-.085-.453-.191-.911-.191-.459 0-.71.106-.912.191-.166.07-.287.121-.568.121-.281 0-.401-.051-.568-.121-.202-.085-.453-.191-.912-.191-.458 0-.709.106-.911.191-.166.07-.287.121-.568.121-.281 0-.401-.051-.568-.121-.202-.085-.453-.191-.911-.191-.459 0-.71.106-.911.191-.166.07-.287.121-.568.121-.281 0-.402-.051-.568-.121-.202-.085-.453-.191-.911-.191-.261 0-.472.228-.472.509 0 .282.211.51.472.51.281 0 .401.051.568.121.201.086.452.191.911.191.458 0 .709-.105.911-.191.166-.07.287-.121.568-.121.281 0 .401.051.568.121.201.086.452.191.911.191s.71-.105.911-.191c.167-.07.287-.121.568-.121.281 0 .401.051.568.121.202.086.453.191.911.191.459 0 .71-.105.912-.191.166-.07.287-.121.568-.121.281 0 .401.051.568.121.202.086.452.191.911.191s.71-.105.912-.191c.166-.07.287-.121.568-.121.281 0 .401.051.567.121.202.086.453.191.912.191s.71-.105.911-.191c.167-.07.287-.121.568-.121.281 0 .402.051.568.121.202.086.453.191.911.191.261 0 .472-.228.472-.509 0-.282-.212-.51-.472-.51zm-1.422-11.12c-.272 0-.494.231-.506.522v1.328h1.012v-1.328c-.013-.291-.234-.522-.506-.522zm1.515 0c-.272 0-.493.231-.506.522v1.328h1.012v-1.328c-.012-.291-.234-.522-.506-.522zm-1.515-2.507c-.272 0-.494.231-.506.521v1.328h1.012v-1.328c-.013-.291-.234-.521-.506-.521zm1.515 0c-.272 0-.493.231-.506.521v1.328h1.012v-1.328c-.012-.291-.234-.521-.506-.521zm-11.41 1.496c-.013-.189-.235-.34-.506-.34-.272 0-.493.15-.506.34v.865h1.013v-.865zm1.515 0c-.012-.189-.234-.34-.506-.34s-.494.15-.506.34v.865h1.012v-.865zm-1.515-1.632c-.013-.189-.235-.34-.506-.34-.272 0-.493.151-.506.34v.865h1.013v-.865zm1.515 0c-.012-.189-.234-.34-.506-.34s-.494.151-.506.34v.865h1.012v-.865zm-1.515 5.144c-.013-.189-.235-.34-.506-.34-.272 0-.493.151-.506.34v.865h1.013v-.865zm1.515 0c-.012-.189-.234-.34-.506-.34s-.494.151-.506.34v.865h1.012v-.865zm-1.515-1.632c-.013-.189-.235-.34-.506-.34-.272 0-.493.151-.506.34v.865h1.013v-.865zm1.515 0c-.012-.189-.234-.34-.506-.34s-.494.151-.506.34v.865h1.012v-.865zm8.38 4.714c-.272 0-.494.231-.506.521v1.329h1.012v-1.329c-.013-.29-.234-.521-.506-.521zm1.515 0c-.272 0-.493.231-.506.521v1.329h1.012v-1.329c-.012-.29-.234-.521-.506-.521zm-1.515-2.508c-.272 0-.494.231-.506.522v1.328h1.012v-1.328c-.013-.291-.234-.522-.506-.522zm1.515 0c-.272 0-.493.231-.506.522v1.328h1.012v-1.328c-.012-.291-.234-.522-.506-.522zm-6.282-2.7c-.013-.29-.234-.521-.506-.521s-.494.231-.506.521v1.329h1.012v-1.329zm1.516 0c-.012-.29-.234-.521-.506-.521s-.493.231-.506.521v1.329h1.012v-1.329zm-1.516-2.508c-.013-.29-.234-.521-.506-.521s-.494.231-.506.521v1.329h1.012v-1.329zm1.516 0c-.012-.29-.234-.521-.506-.521s-.493.231-.506.521v1.329h1.012v-1.329zm-1.516 4.995c-.013-.29-.234-.521-.506-.521s-.494.231-.506.521v1.329h1.012v-1.329zm1.516 0c-.012-.29-.234-.521-.506-.521s-.493.231-.506.521v1.329h1.012v-1.329z" fill="#67737B"/><path d="M20.955 4.95c.197.187.449.29.71.29h2.666c0 .293.117.572.32.765.172.165.394.255.624.255h2.9c.521 0 .944-.458.944-1.02 0-.561-.421-1.017-.94-1.02l.009-.141c0-.64-.482-1.162-1.074-1.162h-5.449c-.261 0-.513.103-.71.291-.232.22-.364.538-.364.871 0 .332.133.65.365.871zm.624-.977l.086-.036h5.449c.072 0 .131.064.131.141 0 .078-.059.141-.131.141-.261 0-.472.228-.472.51h-.001c0 .282.211.51.472.51l1.063.001-2.901-.001h.002c.261 0 .472-.228.472-.51 0-.282-.211-.51-.472-.51h-3.612l-.085-.036-.045-.106.045-.106zm-16.329-.554l-.008.142c0 .64.482 1.161 1.074 1.161h5.449c.262 0 .513-.103.71-.291.231-.221.364-.538.364-.871 0-.332-.133-.65-.365-.871-.197-.187-.448-.29-.71-.29h-2.666v-.001c0-.293-.117-.571-.319-.765-.173-.164-.395-.255-.624-.255h-2.901c-.521 0-.944.457-.944 1.02 0 .561.421 1.017.939 1.02zm2.905-1.019h-.002c-.261 0-.472.228-.472.51 0 .282.212.509.472.509h3.611l.086.036.045.106-.045.105-.086.036h-5.449c-.072 0-.13-.064-.13-.141 0-.078.058-.142.13-.142.261 0 .472-.228.472-.509h.001c0-.282-.211-.51-.472-.51l-1.063-.001 2.901.001zm23.359 24.835c-.281 0-.401-.051-.568-.121l-.104-.043v-14.023c0-.282-.211-.509-.472-.509h-4.601v-.672c0-.282-.211-.51-.472-.51s-.472.228-.472.51v.672h-2.68v-2.406l.007-.075c0-2.356-1.67-4.299-3.798-4.521v-3.196c0-.282-.211-.51-.472-.51h-2.607c-.174 0-.334.104-.416.27-.082.166-.073.367.024.523l.504.816-.504.816c-.097.156-.106.358-.024.523.082.166.242.269.416.269h2.136v.506c-2.065.286-3.667 2.196-3.667 4.504v.791h-.6c-.261 0-.472.228-.472.509v.467h-.31v-.467c0-.282-.212-.509-.472-.509h-1.565c-.261 0-.472.228-.472.509v.467h-.31v-.467c0-.282-.211-.509-.472-.509h-1.565c-.261 0-.472.228-.472.509v.467h-.31v-.467c0-.282-.211-.509-.472-.509h-1.565c-.261 0-.472.228-.472.509v.467h-.309v-.467c0-.282-.211-.509-.472-.509h-1.864c-.261 0-.472.228-.472.509v1.691c0 .282.211.51.472.51h.048v13.468l.033.184-.286-.096c-.202-.085-.453-.191-.911-.191-.261 0-.472.228-.472.51 0 .282.211.51.472.51.281 0 .401.051.568.121.202.085.453.191.912.191s.709-.106.911-.191c.166-.071.287-.121.568-.121.281 0 .402.051.568.121.202.085.453.191.911.191.459 0 .709-.106.911-.191.166-.071.287-.121.568-.121.281 0 .402.051.568.121.202.085.453.191.911.191.459 0 .71-.106.912-.191.166-.071.287-.121.568-.121.281 0 .401.051.568.121.201.085.452.191.911.191.458 0 .709-.106.911-.191.166-.071.287-.121.568-.121.281 0 .401.051.568.121.201.085.452.191.911.191.458 0 .709-.106.911-.191.166-.071.287-.121.568-.121.281 0 .401.051.568.121.201.085.452.191.911.191s.71-.106.911-.191c.167-.071.287-.121.568-.121.281 0 .401.051.568.121.202.085.453.191.911.191.459 0 .71-.106.912-.191.166-.071.287-.121.568-.121.281 0 .401.051.568.121.202.085.452.191.911.191s.71-.106.912-.191c.166-.071.287-.121.568-.121.281 0 .401.051.567.121.202.085.453.191.912.191s.71-.106.911-.191c.167-.071.287-.121.568-.121.281 0 .402.051.568.121.202.085.453.191.911.191.459 0 .71-.106.912-.191.167-.071.287-.121.568-.121.281 0 .402.051.568.121.202.085.453.191.912.191.261 0 .472-.228.472-.51 0-.282-.211-.509-.472-.509zm-29.473-15.368h.92v.467c0 .282.212.509.472.509h1.254c.261 0 .472-.228.472-.509v-.467h.621v.467c0 .282.211.509.472.509h1.253c.261 0 .472-.228.472-.509v-.467h.621v.467c0 .282.211.509.472.509h1.254c.261 0 .472-.228.472-.509v-.467h.62v.467c0 .282.211.509.472.509h1.254c.261 0 .472-.228.472-.509v-.467h.866v.671c-.099.001-.191.037-.266.094-.12.093-.199.244-.199.415v.505l-.029-.002h-11.396l-.029.002v-.505c0-.282-.211-.509-.472-.509h-.048v-.671zm14.743-5.102c-.301.733-.472 1.747-.523 2.781h-1.542c.172-1.276.98-2.332 2.064-2.781zm4.387 2.781h-1.542c-.051-1.033-.221-2.048-.523-2.781 1.084.448 1.892 1.505 2.064 2.781zm-7.951 13.93c-.282-.02-.562-.031-.84-.031-.364 0-.726.013-1.088.036-3.085.197-6.054 1.233-8.686 3.033v-1.973c.471-.195.954-.374 1.446-.54 2.557-.858 5.398-1.308 8.328-1.308l.547.008.354.015c.395.019.794.048 1.198.091l.331.04.613.084c1.32.199 2.692.525 4.129.983l.056.018c.293.094.59.194.888.299l.056.02.834.304v2.004c-.281-.18-.558-.351-.834-.515l-.056-.034c-.299-.176-.594-.343-.888-.501l-.056-.03c-1.43-.765-2.802-1.31-4.129-1.642-.317-.08-.632-.147-.944-.202l-.123-.021c-.382-.064-.761-.109-1.136-.136zm6.332-.626c-1.433-.442-2.804-.758-4.129-.95v-8.343h4.129v9.293zm-13.501-5.752h.944v2.808h-.944v-2.808zm3.528 0h.944v2.808h-.944v-2.808zm-1.764 0h.944v2.808h-.944v-2.808zm5.112 4.581l-.547-.008c-2.917 0-5.754.434-8.328 1.262v-7.344h8.875v6.089zm5.018-14.995c.204.112.65 1.062.74 2.861h-1.48c.09-1.799.536-2.749.74-2.861zm-3.26 3.881h6.514v1.718h-.647v-.418c0-.282-.211-.51-.472-.51s-.473.228-.473.51v.418h-4.184v-.927c0-.282-.211-.509-.472-.509h-.266v-.281zm4.867 16.055v.248h-4.129v-1.985c1.318.353 2.689.93 4.129 1.737zm6.215-13.064h4.129v13.312h-4.129v-13.312zm-1.087 0v13.312h-2.35v-2.676c0-.215-.125-.407-.313-.479-.496-.193-.984-.371-1.466-.537v-9.62h4.128zm-8.525-9.53l.189-.306c.106-.171.106-.395 0-.566l-.188-.306h1.252v1.178h-1.253zm-2.392 23.208c-.281 0-.402-.051-.568-.121-.202-.085-.453-.191-.911-.191-.459 0-.71.106-.911.191-.166.071-.287.121-.568.121-.281 0-.402-.051-.568-.121-.202-.085-.453-.191-.911-.191-.459 0-.71.106-.912.191-.167.071-.287.121-.568.121-.281 0-.401-.051-.568-.121-.202-.085-.453-.191-.912-.191s-.71.106-.911.191c-.167.071-.287.121-.568.121-.281 0-.401-.051-.568-.121-.141-.06-.309-.129-.553-.165 2.627-1.629 5.574-2.483 8.612-2.483.687 0 1.385.068 2.099.202v2.386l-.148.06c-.166.071-.287.121-.568.121zm14.79 2.151c-.281 0-.401-.051-.568-.121-.202-.085-.453-.191-.911-.191-.459 0-.71.106-.912.191-.167.07-.287.121-.568.121-.281 0-.401-.051-.568-.121-.202-.085-.453-.191-.911-.191-.459 0-.71.106-.912.191-.167.07-.287.121-.568.121-.281 0-.401-.051-.568-.121-.202-.085-.453-.191-.911-.191-.459 0-.71.106-.912.191-.166.07-.287.121-.568.121-.281 0-.401-.051-.568-.121-.202-.085-.453-.191-.912-.191-.458 0-.709.106-.911.191-.166.07-.287.121-.568.121-.281 0-.401-.051-.568-.121-.202-.085-.453-.191-.911-.191-.459 0-.71.106-.911.191-.166.07-.287.121-.568.121-.281 0-.402-.051-.568-.121-.202-.085-.453-.191-.911-.191-.261 0-.472.228-.472.509 0 .282.211.51.472.51.281 0 .401.051.568.121.201.086.452.191.911.191.458 0 .709-.105.911-.191.166-.07.287-.121.568-.121.281 0 .401.051.568.121.201.086.452.191.911.191s.71-.105.911-.191c.167-.07.287-.121.568-.121.281 0 .401.051.568.121.202.086.453.191.911.191.459 0 .71-.105.912-.191.166-.07.287-.121.568-.121.281 0 .401.051.568.121.202.086.452.191.911.191s.71-.105.912-.191c.166-.07.287-.121.568-.121.281 0 .401.051.567.121.202.086.453.191.912.191s.71-.105.911-.191c.167-.07.287-.121.568-.121.281 0 .402.051.568.121.202.086.453.191.911.191.261 0 .472-.228.472-.509 0-.282-.212-.51-.472-.51zm-1.422-11.12c-.272 0-.494.231-.506.522v1.328h1.012v-1.328c-.013-.291-.234-.522-.506-.522zm1.515 0c-.272 0-.493.231-.506.522v1.328h1.012v-1.328c-.012-.291-.234-.522-.506-.522zm-1.515-2.507c-.272 0-.494.231-.506.521v1.328h1.012v-1.328c-.013-.291-.234-.521-.506-.521zm1.515 0c-.272 0-.493.231-.506.521v1.328h1.012v-1.328c-.012-.291-.234-.521-.506-.521zm-11.41 1.496c-.013-.189-.235-.34-.506-.34-.272 0-.493.15-.506.34v.865h1.013v-.865zm1.515 0c-.012-.189-.234-.34-.506-.34s-.494.15-.506.34v.865h1.012v-.865zm-1.515-1.632c-.013-.189-.235-.34-.506-.34-.272 0-.493.151-.506.34v.865h1.013v-.865zm1.515 0c-.012-.189-.234-.34-.506-.34s-.494.151-.506.34v.865h1.012v-.865zm-1.515 5.144c-.013-.189-.235-.34-.506-.34-.272 0-.493.151-.506.34v.865h1.013v-.865zm1.515 0c-.012-.189-.234-.34-.506-.34s-.494.151-.506.34v.865h1.012v-.865zm-1.515-1.632c-.013-.189-.235-.34-.506-.34-.272 0-.493.151-.506.34v.865h1.013v-.865zm1.515 0c-.012-.189-.234-.34-.506-.34s-.494.151-.506.34v.865h1.012v-.865zm8.38 4.714c-.272 0-.494.231-.506.521v1.329h1.012v-1.329c-.013-.29-.234-.521-.506-.521zm1.515 0c-.272 0-.493.231-.506.521v1.329h1.012v-1.329c-.012-.29-.234-.521-.506-.521zm-1.515-2.508c-.272 0-.494.231-.506.522v1.328h1.012v-1.328c-.013-.291-.234-.522-.506-.522zm1.515 0c-.272 0-.493.231-.506.522v1.328h1.012v-1.328c-.012-.291-.234-.522-.506-.522zm-6.282-2.7c-.013-.29-.234-.521-.506-.521s-.494.231-.506.521v1.329h1.012v-1.329zm1.516 0c-.012-.29-.234-.521-.506-.521s-.493.231-.506.521v1.329h1.012v-1.329zm-1.516-2.508c-.013-.29-.234-.521-.506-.521s-.494.231-.506.521v1.329h1.012v-1.329zm1.516 0c-.012-.29-.234-.521-.506-.521s-.493.231-.506.521v1.329h1.012v-1.329zm-1.516 4.995c-.013-.29-.234-.521-.506-.521s-.494.231-.506.521v1.329h1.012v-1.329zm1.516 0c-.012-.29-.234-.521-.506-.521s-.493.231-.506.521v1.329h1.012v-1.329z" fill="#3A434E"/></g></g></svg>