<svg width="32" height="232" viewBox="0 0 32 232" xmlns="http://www.w3.org/2000/svg" xmlns:sketch="http://www.bohemiancoding.com/sketch/ns"><title>dubrovnik</title><desc>Created with Sketch.</desc><g sketch:type="MSPage" fill="none"><g sketch:type="MSShapeGroup"><path d="M18.352 146.43c.458 0 .71-.096.911-.173.166-.064.286-.11.568-.11.261 0 .472-.207.472-.462s-.211-.462-.472-.462c-.459 0-.71.096-.911.174-.167.064-.287.109-.568.109-.281 0-.401-.046-.567-.109-.202-.078-.453-.174-.911-.174-.459 0-.71.096-.911.174-.166.064-.286.109-.567.109-.281 0-.401-.046-.568-.109-.202-.078-.452-.174-.911-.174-.458 0-.71.096-.911.174-.167.064-.287.109-.568.109-.281 0-.401-.046-.567-.109-.202-.078-.452-.174-.911-.174-.458 0-.709.096-.911.174-.167.064-.287.109-.568.109-.28 0-.401-.046-.567-.109-.202-.078-.452-.174-.911-.174s-.709.096-.911.174c-.167.064-.287.109-.568.109-.28 0-.401-.046-.567-.109-.202-.078-.452-.174-.911-.174s-.71.096-.911.174c-.166.064-.287.109-.567.109-.281 0-.401-.046-.568-.109-.202-.078-.452-.174-.911-.174-.261 0-.472.207-.472.462 0 .256.211.462.472.462.281 0 .401.046.567.11.202.077.452.173.911.173.458 0 .709-.096.911-.173.166-.064.287-.11.568-.11.281 0 .401.046.567.11.202.077.452.173.911.173.458 0 .71-.096.911-.173.167-.064.287-.11.568-.11.281 0 .401.046.567.11.202.077.452.173.911.173s.71-.096.911-.173c.166-.064.286-.11.567-.11.28 0 .401.046.567.11.202.077.452.173.911.173s.71-.096.911-.173c.166-.064.287-.11.568-.11.28 0 .401.046.567.11.202.077.453.173.911.173s.709-.096.911-.173c.166-.064.287-.11.568-.11.281 0 .401.046.568.11.201.077.452.173.911.173m-1.314-21.459h.209c-.032.111-.051.228-.051.349 0 .703.583 1.274 1.3 1.274h8.463c.316 0 .621-.114.859-.319.28-.242.441-.591.441-.955 0-.365-.161-.713-.441-.955-.238-.205-.543-.318-.859-.318h-4.832l.016-.174c0-.315-.138-.615-.38-.824-.205-.177-.469-.275-.741-.275h-3.985c-.618 0-1.121.493-1.121 1.098 0 .606.503 1.098 1.121 1.098zm0-1.272h3.985l.116.044.061.129-.061.13-.116.044h-.002c-.261 0-.472.207-.472.462s.211.463.472.463h5.939c.11 0 .189.048.235.088.045.039.122.125.122.261s-.076.223-.121.261c-.046.04-.125.088-.235.088h-8.463c-.197 0-.356-.157-.356-.349 0-.193.159-.349.356-.349.261 0 .472-.208.472-.463h.002c0-.255-.211-.462-.472-.462h-1.461c-.097 0-.177-.078-.177-.174 0-.095.08-.174.177-.174zm-14.175 20.011c.166-.064.286-.11.567-.11.281 0 .401.046.567.11.202.077.452.174.911.174.458 0 .709-.096.91-.174.166-.064.287-.11.568-.11.281 0 .401.046.568.11.202.077.452.174.911.174.458 0 .709-.096.911-.174.167-.064.287-.11.568-.11.28 0 .401.046.568.11.201.077.452.174.91.174.459 0 .71-.096.911-.174.166-.064.286-.11.567-.11.28 0 .401.046.568.11.201.077.452.174.911.174.458 0 .709-.096.911-.174.166-.064.287-.11.567-.11.281 0 .401.046.567.11.202.077.453.174.911.174s.709-.096.911-.174c.166-.064.287-.11.568-.11.281 0 .401.046.568.11.201.077.452.174.911.174.458 0 .709-.096.911-.174.166-.064.286-.11.567-.11.281 0 .401.046.568.11.202.077.452.174.911.174s.71-.096.911-.174c.166-.064.287-.11.568-.11l.048.001c-.09.62-.142 1.301-.142 2.047 0 .255.211.463.471.463h3.43c.261 0 .472-.208.472-.463v-1.769l.157.005c.458 0 .71-.096.912-.174.166-.064.287-.11.568-.11.281 0 .401.046.568.11.202.077.452.174.911.174.261 0 .472-.208.472-.463s-.211-.462-.472-.462l-.261-.019c.043-.106.067-.221.067-.343v-2.361c0-.479-.374-.875-.856-.919v-.894c0-.255-.211-.462-.472-.462s-.471.207-.471.462v.846l-1.122-.054v-3.065c0-.255-.211-.463-.472-.463s-.472.208-.472.463v1.692c-.286.17-.844.555-1.428 1.259l-10.118-.486v-2.582h3.339v.65c0 .255.211.462.472.462h1.793c.261 0 .472-.207.472-.462v-1.262h2.123c.261 0 .472-.207.472-.462v-.125h5.379v1.727c0 .255.211.462.472.462s.472-.207.472-.462v-2.19c0-.255-.211-.462-.472-.462h-6.323c-.26 0-.472.207-.472.462v.125h-2.123c-.261 0-.472.207-.472.462v1.262h-.849v-.65c0-.255-.211-.462-.472-.462h-3.81v-4.101h2.784v.125c0 .255.211.462.472.462h2.124v1.262c0 .255.211.462.472.462h1.793c.261 0 .472-.207.472-.462v-.65h2.407c.261 0 .471-.208.471-.462v-1.591h3.303c.261 0 .472-.207.472-.463 0-.255-.211-.462-.472-.462h-3.775c-.261 0-.472.207-.472.462v1.591h-2.407c-.261 0-.472.207-.472.462v.65h-.849v-1.262c0-.255-.211-.462-.472-.462h-2.124v-.125c0-.256-.211-.463-.472-.463h-3.256v-.095l-.001-.007v-1.128h.02c.261 0 .472-.208.472-.463v-1.498c0-.255-.211-.462-.472-.462h-2.008c-.261 0-.472.207-.472.462v.403h-.382v-.403c0-.255-.211-.462-.472-.462h-1.654c-.261 0-.472.207-.472.462v.403h-.382v-.403c0-.255-.211-.462-.472-.462h-1.655c-.261 0-.472.207-.472.462v.403h-.382v-.403c0-.255-.211-.462-.472-.462h-1.655c-.261 0-.472.207-.472.462v.403h-.382v-.403c0-.255-.212-.462-.472-.462h-1.998c-.261 0-.472.207-.472.462v1.498c0 .255.211.463.472.463h.077v11.836l-.777 2.032c-.134-.027-.294-.046-.496-.046-.261 0-.472.208-.472.462 0 .255.211.462.472.462.281 0 .401.046.568.11.201.077.452.174.911.174.458 0 .71-.096.911-.174zm-.723-16.355h1.054v.403c0 .255.211.462.472.462h1.326c.261 0 .472-.208.472-.462v-.403h.711v.403c0 .255.211.462.472.462h1.325c.261 0 .472-.208.472-.462v-.403h.711v.403c0 .255.211.462.472.462h1.325c.261 0 .472-.208.472-.462v-.403h.711v.403c0 .255.211.462.472.462h1.326c.261 0 .472-.208.472-.462v-.403h1.065v.573h-.02c-.261 0-.472.207-.472.462v.674c-.521 0-.943.414-.943.924v9.508c0 .493.395.899.897.924l.046.002.472.023.471.023 9.016.432c-.107.241-.208.498-.301.772h-21.001v-11.684c0-.511-.423-.924-.944-.924h-.001v-.674c0-.255-.211-.462-.472-.462h-.077v-.573zm25.122 11.806l.206-.18v6.206h-2.479c.015-.483.053-.933.111-1.352l.047-.312.116-.601.078-.324c.087-.333.185-.641.293-.925.099-.26.205-.502.315-.723.172-.343.355-.642.538-.9.267-.376.536-.668.774-.889zm2.184 2.512h-1.034v-.605l1.034.05v.556zm2.022 6.807c-.407 0-.59-.07-.821-.159l-.211-.077c.86-.442 1.094-.948 1.132-1.044.055-.143.036-.302-.052-.427-.089-.125-.234-.2-.389-.2h-8.818c-.155 0-.301.075-.388.2-.088.125-.108.285-.052.427.045.114.364.805 1.677 1.28h-.016c-.407 0-.59-.07-.821-.159-.271-.104-.579-.221-1.164-.221s-.893.118-1.164.221c-.231.089-.413.159-.821.159-.407 0-.59-.07-.821-.159-.272-.104-.579-.221-1.164-.221-.261 0-.472.207-.472.462 0 .256.211.462.472.462.408 0 .59.07.821.159.272.104.579.221 1.164.221s.893-.118 1.164-.221c.231-.089.414-.159.821-.159s.59.07.82.159c.272.104.579.221 1.164.221s.893-.118 1.164-.221c.231-.089.413-.159.821-.159.407 0 .59.07.82.159.272.104.579.221 1.164.221s.893-.118 1.164-.221c.231-.089.413-.159.821-.159.407 0 .59.07.821.159.272.104.579.221 1.164.221.261 0 .472-.207.472-.462s-.211-.462-.472-.462zm-1.615-.983c-.585.265-1.554.513-3.136.513-1.571 0-2.54-.247-3.127-.513h6.262zm-23.42-12.469c-.018-.374-.332-.672-.719-.672-.386 0-.7.298-.719.672v.44h1.437v-.44zm3.017 0c-.018-.374-.333-.672-.719-.672-.386 0-.7.298-.719.672v.44h1.437v-.44zm3.017 0c-.018-.374-.332-.672-.718-.672-.386 0-.701.298-.719.672v.44h1.437v-.44zm-6.034-2.298c-.018-.373-.332-.671-.719-.671-.386 0-.7.298-.719.671v.441h1.437v-.441zm3.017 0c-.018-.373-.333-.671-.719-.671-.386 0-.7.298-.719.671v.441h1.437v-.441zm3.017 0c-.008-.177-.084-.337-.202-.457-.131-.132-.313-.214-.516-.214s-.385.082-.516.214c-.118.119-.194.279-.203.457v.441h1.437v-.441zm-6.034-2.211c-.011-.217-.121-.408-.288-.531-.12-.089-.269-.141-.431-.141-.162 0-.311.052-.431.141-.166.122-.277.313-.288.531v.44h1.437v-.44zm3.017 0c-.011-.217-.121-.408-.288-.531-.121-.089-.269-.141-.431-.141-.162 0-.311.052-.43.141-.167.122-.278.313-.288.531v.44h1.437v-.44zm3.017.44v-.44l-.032-.177c-.046-.143-.136-.265-.255-.353-.12-.089-.268-.141-.43-.141-.162 0-.311.052-.431.141-.166.122-.278.313-.288.531v.44h1.437zm-6.034 6.266c-.018-.373-.332-.671-.719-.671-.386 0-.7.298-.719.671v.44h1.437v-.44zm3.017 0c-.018-.373-.333-.671-.719-.671-.386 0-.7.298-.719.671v.44h1.437v-.44zm3.017 0c-.018-.373-.332-.671-.718-.671-.386 0-.701.298-.719.671v.44h1.437v-.44zm-6.034 2.197c-.018-.373-.332-.671-.719-.671-.386 0-.7.298-.719.671v.441h1.437v-.441zm3.017 0c-.018-.373-.333-.671-.719-.671-.386 0-.7.298-.719.671v.441h1.437v-.441zm3.017 0c-.018-.373-.332-.671-.718-.671-.386 0-.701.298-.719.671v.441h1.437v-.441z" fill="#206FAC"/><path d="M18.352 106.43c.458 0 .71-.096.911-.173.166-.064.286-.11.568-.11.261 0 .472-.207.472-.462s-.211-.462-.472-.462c-.459 0-.71.096-.911.174-.167.064-.287.109-.568.109-.281 0-.401-.046-.567-.109-.202-.078-.453-.174-.911-.174-.459 0-.71.096-.911.174-.166.064-.286.109-.567.109-.281 0-.401-.046-.568-.109-.202-.078-.452-.174-.911-.174-.458 0-.71.096-.911.174-.167.064-.287.109-.568.109-.281 0-.401-.046-.567-.109-.202-.078-.452-.174-.911-.174-.458 0-.709.096-.911.174-.167.064-.287.109-.568.109-.28 0-.401-.046-.567-.109-.202-.078-.452-.174-.911-.174s-.709.096-.911.174c-.167.064-.287.109-.568.109-.28 0-.401-.046-.567-.109-.202-.078-.452-.174-.911-.174s-.71.096-.911.174c-.166.064-.287.109-.567.109-.281 0-.401-.046-.568-.109-.202-.078-.452-.174-.911-.174-.261 0-.472.207-.472.462 0 .256.211.462.472.462.281 0 .401.046.567.11.202.077.452.173.911.173.458 0 .709-.096.911-.173.166-.064.287-.11.568-.11.281 0 .401.046.567.11.202.077.452.173.911.173.458 0 .71-.096.911-.173.167-.064.287-.11.568-.11.281 0 .401.046.567.11.202.077.452.173.911.173s.71-.096.911-.173c.166-.064.286-.11.567-.11.28 0 .401.046.567.11.202.077.452.173.911.173s.71-.096.911-.173c.166-.064.287-.11.568-.11.28 0 .401.046.567.11.202.077.453.173.911.173s.709-.096.911-.173c.166-.064.287-.11.568-.11.281 0 .401.046.568.11.201.077.452.173.911.173m-1.314-21.459h.209c-.032.111-.051.228-.051.349 0 .703.583 1.274 1.3 1.274h8.463c.316 0 .621-.114.859-.319.28-.242.441-.591.441-.955 0-.365-.161-.713-.441-.955-.238-.205-.543-.318-.859-.318h-4.832l.016-.174c0-.315-.138-.615-.38-.824-.205-.177-.469-.275-.741-.275h-3.985c-.618 0-1.121.493-1.121 1.098 0 .606.503 1.098 1.121 1.098zm0-1.272h3.985l.116.044.061.129-.061.13-.116.044h-.002c-.261 0-.472.207-.472.462s.211.463.472.463h5.939c.11 0 .189.048.235.088.045.039.122.125.122.261s-.076.223-.121.261c-.046.04-.125.088-.235.088h-8.463c-.197 0-.356-.157-.356-.349 0-.193.159-.349.356-.349.261 0 .472-.208.472-.463h.002c0-.255-.211-.462-.472-.462h-1.461c-.097 0-.177-.078-.177-.174 0-.095.08-.174.177-.174zm-14.175 20.011c.166-.064.286-.11.567-.11.281 0 .401.046.567.11.202.077.452.174.911.174.458 0 .709-.096.91-.174.166-.064.287-.11.568-.11.281 0 .401.046.568.11.202.077.452.174.911.174.458 0 .709-.096.911-.174.167-.064.287-.11.568-.11.28 0 .401.046.568.11.201.077.452.174.91.174.459 0 .71-.096.911-.174.166-.064.286-.11.567-.11.28 0 .401.046.568.11.201.077.452.174.911.174.458 0 .709-.096.911-.174.166-.064.287-.11.567-.11.281 0 .401.046.567.11.202.077.453.174.911.174s.709-.096.911-.174c.166-.064.287-.11.568-.11.281 0 .401.046.568.11.201.077.452.174.911.174.458 0 .709-.096.911-.174.166-.064.286-.11.567-.11.281 0 .401.046.568.11.202.077.452.174.911.174s.71-.096.911-.174c.166-.064.287-.11.568-.11l.048.001c-.09.62-.142 1.301-.142 2.047 0 .255.211.463.471.463h3.43c.261 0 .472-.208.472-.463v-1.769l.157.005c.458 0 .71-.096.912-.174.166-.064.287-.11.568-.11.281 0 .401.046.568.11.202.077.452.174.911.174.261 0 .472-.208.472-.463s-.211-.462-.472-.462l-.261-.019c.043-.106.067-.221.067-.343v-2.361c0-.479-.374-.875-.856-.919v-.894c0-.255-.211-.462-.472-.462s-.471.207-.471.462v.846l-1.122-.054v-3.065c0-.255-.211-.463-.472-.463s-.472.208-.472.463v1.692c-.286.17-.844.555-1.428 1.259l-10.118-.486v-2.582h3.339v.65c0 .255.211.462.472.462h1.793c.261 0 .472-.207.472-.462v-1.262h2.123c.261 0 .472-.207.472-.462v-.125h5.379v1.727c0 .255.211.462.472.462s.472-.207.472-.462v-2.19c0-.255-.211-.462-.472-.462h-6.323c-.26 0-.472.207-.472.462v.125h-2.123c-.261 0-.472.207-.472.462v1.262h-.849v-.65c0-.255-.211-.462-.472-.462h-3.81v-4.101h2.784v.125c0 .255.211.462.472.462h2.124v1.262c0 .255.211.462.472.462h1.793c.261 0 .472-.207.472-.462v-.65h2.407c.261 0 .471-.208.471-.462v-1.591h3.303c.261 0 .472-.207.472-.463 0-.255-.211-.462-.472-.462h-3.775c-.261 0-.472.207-.472.462v1.591h-2.407c-.261 0-.472.207-.472.462v.65h-.849v-1.262c0-.255-.211-.462-.472-.462h-2.124v-.125c0-.256-.211-.463-.472-.463h-3.256v-.095l-.001-.007v-1.128h.02c.261 0 .472-.208.472-.463v-1.498c0-.255-.211-.462-.472-.462h-2.008c-.261 0-.472.207-.472.462v.403h-.382v-.403c0-.255-.211-.462-.472-.462h-1.654c-.261 0-.472.207-.472.462v.403h-.382v-.403c0-.255-.211-.462-.472-.462h-1.655c-.261 0-.472.207-.472.462v.403h-.382v-.403c0-.255-.211-.462-.472-.462h-1.655c-.261 0-.472.207-.472.462v.403h-.382v-.403c0-.255-.212-.462-.472-.462h-1.998c-.261 0-.472.207-.472.462v1.498c0 .255.211.463.472.463h.077v11.836l-.777 2.032c-.134-.027-.294-.046-.496-.046-.261 0-.472.208-.472.462 0 .255.211.462.472.462.281 0 .401.046.568.11.201.077.452.174.911.174.458 0 .71-.096.911-.174zm-.723-16.355h1.054v.403c0 .255.211.462.472.462h1.326c.261 0 .472-.208.472-.462v-.403h.711v.403c0 .255.211.462.472.462h1.325c.261 0 .472-.208.472-.462v-.403h.711v.403c0 .255.211.462.472.462h1.325c.261 0 .472-.208.472-.462v-.403h.711v.403c0 .255.211.462.472.462h1.326c.261 0 .472-.208.472-.462v-.403h1.065v.573h-.02c-.261 0-.472.207-.472.462v.674c-.521 0-.943.414-.943.924v9.508c0 .493.395.899.897.924l.046.002.472.023.471.023 9.016.432c-.107.241-.208.498-.301.772h-21.001v-11.684c0-.511-.423-.924-.944-.924h-.001v-.674c0-.255-.211-.462-.472-.462h-.077v-.573zm25.122 11.806l.206-.18v6.206h-2.479c.015-.483.053-.933.111-1.352l.047-.312.116-.601.078-.324c.087-.333.185-.641.293-.925.099-.26.205-.502.315-.723.172-.343.355-.642.538-.9.267-.376.536-.668.774-.889zm2.184 2.512h-1.034v-.605l1.034.05v.556zm2.022 6.807c-.407 0-.59-.07-.821-.159l-.211-.077c.86-.442 1.094-.948 1.132-1.044.055-.143.036-.302-.052-.427-.089-.125-.234-.2-.389-.2h-8.818c-.155 0-.301.075-.388.2-.088.125-.108.285-.052.427.045.114.364.805 1.677 1.28h-.016c-.407 0-.59-.07-.821-.159-.271-.104-.579-.221-1.164-.221s-.893.118-1.164.221c-.231.089-.413.159-.821.159-.407 0-.59-.07-.821-.159-.272-.104-.579-.221-1.164-.221-.261 0-.472.207-.472.462 0 .256.211.462.472.462.408 0 .59.07.821.159.272.104.579.221 1.164.221s.893-.118 1.164-.221c.231-.089.414-.159.821-.159s.59.07.82.159c.272.104.579.221 1.164.221s.893-.118 1.164-.221c.231-.089.413-.159.821-.159.407 0 .59.07.82.159.272.104.579.221 1.164.221s.893-.118 1.164-.221c.231-.089.413-.159.821-.159.407 0 .59.07.821.159.272.104.579.221 1.164.221.261 0 .472-.207.472-.462s-.211-.462-.472-.462zm-1.615-.983c-.585.265-1.554.513-3.136.513-1.571 0-2.54-.247-3.127-.513h6.262zm-23.42-12.469c-.018-.374-.332-.672-.719-.672-.386 0-.7.298-.719.672v.44h1.437v-.44zm3.017 0c-.018-.374-.333-.672-.719-.672-.386 0-.7.298-.719.672v.44h1.437v-.44zm3.017 0c-.018-.374-.332-.672-.718-.672-.386 0-.701.298-.719.672v.44h1.437v-.44zm-6.034-2.298c-.018-.373-.332-.671-.719-.671-.386 0-.7.298-.719.671v.441h1.437v-.441zm3.017 0c-.018-.373-.333-.671-.719-.671-.386 0-.7.298-.719.671v.441h1.437v-.441zm3.017 0c-.008-.177-.084-.337-.202-.457-.131-.132-.313-.214-.516-.214s-.385.082-.516.214c-.118.119-.194.279-.203.457v.441h1.437v-.441zm-6.034-2.211c-.011-.217-.121-.408-.288-.531-.12-.089-.269-.141-.431-.141-.162 0-.311.052-.431.141-.166.122-.277.313-.288.531v.44h1.437v-.44zm3.017 0c-.011-.217-.121-.408-.288-.531-.121-.089-.269-.141-.431-.141-.162 0-.311.052-.43.141-.167.122-.278.313-.288.531v.44h1.437v-.44zm3.017.44v-.44l-.032-.177c-.046-.143-.136-.265-.255-.353-.12-.089-.268-.141-.43-.141-.162 0-.311.052-.431.141-.166.122-.278.313-.288.531v.44h1.437zm-6.034 6.266c-.018-.373-.332-.671-.719-.671-.386 0-.7.298-.719.671v.44h1.437v-.44zm3.017 0c-.018-.373-.333-.671-.719-.671-.386 0-.7.298-.719.671v.44h1.437v-.44zm3.017 0c-.018-.373-.332-.671-.718-.671-.386 0-.701.298-.719.671v.44h1.437v-.44zm-6.034 2.197c-.018-.373-.332-.671-.719-.671-.386 0-.7.298-.719.671v.441h1.437v-.441zm3.017 0c-.018-.373-.333-.671-.719-.671-.386 0-.7.298-.719.671v.441h1.437v-.441zm3.017 0c-.018-.373-.332-.671-.718-.671-.386 0-.701.298-.719.671v.441h1.437v-.441z" fill="#fff"/><path d="M18.352 66.43c.458 0 .71-.096.911-.173.166-.064.286-.11.568-.11.261 0 .472-.207.472-.462s-.211-.462-.472-.462c-.459 0-.71.096-.911.174-.167.064-.287.109-.568.109-.281 0-.401-.046-.567-.109-.202-.078-.453-.174-.911-.174-.459 0-.71.096-.911.174-.166.064-.286.109-.567.109-.281 0-.401-.046-.568-.109-.202-.078-.452-.174-.911-.174-.458 0-.71.096-.911.174-.167.064-.287.109-.568.109-.281 0-.401-.046-.567-.109-.202-.078-.452-.174-.911-.174-.458 0-.709.096-.911.174-.167.064-.287.109-.568.109-.28 0-.401-.046-.567-.109-.202-.078-.452-.174-.911-.174s-.709.096-.911.174c-.167.064-.287.109-.568.109-.28 0-.401-.046-.567-.109-.202-.078-.452-.174-.911-.174s-.71.096-.911.174c-.166.064-.287.109-.567.109-.281 0-.401-.046-.568-.109-.202-.078-.452-.174-.911-.174-.261 0-.472.207-.472.462 0 .256.211.462.472.462.281 0 .401.046.567.11.202.077.452.173.911.173.458 0 .709-.096.911-.173.166-.064.287-.11.568-.11.281 0 .401.046.567.11.202.077.452.173.911.173.458 0 .71-.096.911-.173.167-.064.287-.11.568-.11.281 0 .401.046.567.11.202.077.452.173.911.173s.71-.096.911-.173c.166-.064.286-.11.567-.11.28 0 .401.046.567.11.202.077.452.173.911.173s.71-.096.911-.173c.166-.064.287-.11.568-.11.28 0 .401.046.567.11.202.077.453.173.911.173s.709-.096.911-.173c.166-.064.287-.11.568-.11.281 0 .401.046.568.11.201.077.452.173.911.173m-1.314-21.459h.209c-.032.111-.051.228-.051.349 0 .703.583 1.274 1.3 1.274h8.463c.316 0 .621-.114.859-.319.28-.242.441-.591.441-.955 0-.365-.161-.713-.441-.955-.238-.205-.543-.318-.859-.318h-4.832l.016-.174c0-.315-.138-.615-.38-.824-.205-.177-.469-.275-.741-.275h-3.985c-.618 0-1.121.493-1.121 1.098 0 .606.503 1.098 1.121 1.098zm0-1.272h3.985l.116.044.061.129-.061.13-.116.044h-.002c-.261 0-.472.207-.472.462s.211.463.472.463h5.939c.11 0 .189.048.235.088.045.039.122.125.122.261s-.076.223-.121.261c-.046.04-.125.088-.235.088h-8.463c-.197 0-.356-.157-.356-.349 0-.193.159-.349.356-.349.261 0 .472-.208.472-.463h.002c0-.255-.211-.462-.472-.462h-1.461c-.097 0-.177-.078-.177-.174 0-.095.08-.174.177-.174zm-14.175 20.011c.166-.064.286-.11.567-.11.281 0 .401.046.567.11.202.077.452.174.911.174.458 0 .709-.096.91-.174.166-.064.287-.11.568-.11.281 0 .401.046.568.11.202.077.452.174.911.174.458 0 .709-.096.911-.174.167-.064.287-.11.568-.11.28 0 .401.046.568.11.201.077.452.174.91.174.459 0 .71-.096.911-.174.166-.064.286-.11.567-.11.28 0 .401.046.568.11.201.077.452.174.911.174.458 0 .709-.096.911-.174.166-.064.287-.11.567-.11.281 0 .401.046.567.11.202.077.453.174.911.174s.709-.096.911-.174c.166-.064.287-.11.568-.11.281 0 .401.046.568.11.201.077.452.174.911.174.458 0 .709-.096.911-.174.166-.064.286-.11.567-.11.281 0 .401.046.568.11.202.077.452.174.911.174s.71-.096.911-.174c.166-.064.287-.11.568-.11l.048.001c-.09.62-.142 1.301-.142 2.047 0 .255.211.463.471.463h3.43c.261 0 .472-.208.472-.463v-1.769l.157.005c.458 0 .71-.096.912-.174.166-.064.287-.11.568-.11.281 0 .401.046.568.11.202.077.452.174.911.174.261 0 .472-.208.472-.463s-.211-.462-.472-.462l-.261-.019c.043-.106.067-.221.067-.343v-2.361c0-.479-.374-.875-.856-.919v-.894c0-.255-.211-.462-.472-.462s-.471.207-.471.462v.846l-1.122-.054v-3.065c0-.255-.211-.463-.472-.463s-.472.208-.472.463v1.692c-.286.17-.844.555-1.428 1.259l-10.118-.486v-2.582h3.339v.65c0 .255.211.462.472.462h1.793c.261 0 .472-.207.472-.462v-1.262h2.123c.261 0 .472-.207.472-.462v-.125h5.379v1.727c0 .255.211.462.472.462s.472-.207.472-.462v-2.19c0-.255-.211-.462-.472-.462h-6.323c-.26 0-.472.207-.472.462v.125h-2.123c-.261 0-.472.207-.472.462v1.262h-.849v-.65c0-.255-.211-.462-.472-.462h-3.81v-4.101h2.784v.125c0 .255.211.462.472.462h2.124v1.262c0 .255.211.462.472.462h1.793c.261 0 .472-.207.472-.462v-.65h2.407c.261 0 .471-.208.471-.462v-1.591h3.303c.261 0 .472-.207.472-.463 0-.255-.211-.462-.472-.462h-3.775c-.261 0-.472.207-.472.462v1.591h-2.407c-.261 0-.472.207-.472.462v.65h-.849v-1.262c0-.255-.211-.462-.472-.462h-2.124v-.125c0-.256-.211-.463-.472-.463h-3.256v-.095l-.001-.007v-1.128h.02c.261 0 .472-.208.472-.463v-1.498c0-.255-.211-.462-.472-.462h-2.008c-.261 0-.472.207-.472.462v.403h-.382v-.403c0-.255-.211-.462-.472-.462h-1.654c-.261 0-.472.207-.472.462v.403h-.382v-.403c0-.255-.211-.462-.472-.462h-1.655c-.261 0-.472.207-.472.462v.403h-.382v-.403c0-.255-.211-.462-.472-.462h-1.655c-.261 0-.472.207-.472.462v.403h-.382v-.403c0-.255-.212-.462-.472-.462h-1.998c-.261 0-.472.207-.472.462v1.498c0 .255.211.463.472.463h.077v11.836l-.777 2.032c-.134-.027-.294-.046-.496-.046-.261 0-.472.208-.472.462 0 .255.211.462.472.462.281 0 .401.046.568.11.201.077.452.174.911.174.458 0 .71-.096.911-.174zm-.723-16.355h1.054v.403c0 .255.211.462.472.462h1.326c.261 0 .472-.208.472-.462v-.403h.711v.403c0 .255.211.462.472.462h1.325c.261 0 .472-.208.472-.462v-.403h.711v.403c0 .255.211.462.472.462h1.325c.261 0 .472-.208.472-.462v-.403h.711v.403c0 .255.211.462.472.462h1.326c.261 0 .472-.208.472-.462v-.403h1.065v.573h-.02c-.261 0-.472.207-.472.462v.674c-.521 0-.943.414-.943.924v9.508c0 .493.395.899.897.924l.046.002.472.023.471.023 9.016.432c-.107.241-.208.498-.301.772h-21.001v-11.684c0-.511-.423-.924-.944-.924h-.001v-.674c0-.255-.211-.462-.472-.462h-.077v-.573zm25.122 11.806l.206-.18v6.206h-2.479c.015-.483.053-.933.111-1.352l.047-.312.116-.601.078-.324c.087-.333.185-.641.293-.925.099-.26.205-.502.315-.723.172-.343.355-.642.538-.9.267-.376.536-.668.774-.889zm2.184 2.512h-1.034v-.605l1.034.05v.556zm2.022 6.807c-.407 0-.59-.07-.821-.159l-.211-.077c.86-.442 1.094-.948 1.132-1.044.055-.143.036-.302-.052-.427-.089-.125-.234-.2-.389-.2h-8.818c-.155 0-.301.075-.388.2-.088.125-.108.285-.052.427.045.114.364.805 1.677 1.28h-.016c-.407 0-.59-.07-.821-.159-.271-.104-.579-.221-1.164-.221s-.893.118-1.164.221c-.231.089-.413.159-.821.159-.407 0-.59-.07-.821-.159-.272-.104-.579-.221-1.164-.221-.261 0-.472.207-.472.462 0 .256.211.462.472.462.408 0 .59.07.821.159.272.104.579.221 1.164.221s.893-.118 1.164-.221c.231-.089.414-.159.821-.159s.59.07.82.159c.272.104.579.221 1.164.221s.893-.118 1.164-.221c.231-.089.413-.159.821-.159.407 0 .59.07.82.159.272.104.579.221 1.164.221s.893-.118 1.164-.221c.231-.089.413-.159.821-.159.407 0 .59.07.821.159.272.104.579.221 1.164.221.261 0 .472-.207.472-.462s-.211-.462-.472-.462zm-1.615-.983c-.585.265-1.554.513-3.136.513-1.571 0-2.54-.247-3.127-.513h6.262zm-23.42-12.469c-.018-.374-.332-.672-.719-.672-.386 0-.7.298-.719.672v.44h1.437v-.44zm3.017 0c-.018-.374-.333-.672-.719-.672-.386 0-.7.298-.719.672v.44h1.437v-.44zm3.017 0c-.018-.374-.332-.672-.718-.672-.386 0-.701.298-.719.672v.44h1.437v-.44zm-6.034-2.298c-.018-.373-.332-.671-.719-.671-.386 0-.7.298-.719.671v.441h1.437v-.441zm3.017 0c-.018-.373-.333-.671-.719-.671-.386 0-.7.298-.719.671v.441h1.437v-.441zm3.017 0c-.008-.177-.084-.337-.202-.457-.131-.132-.313-.214-.516-.214s-.385.082-.516.214c-.118.119-.194.279-.203.457v.441h1.437v-.441zm-6.034-2.211c-.011-.217-.121-.408-.288-.531-.12-.089-.269-.141-.431-.141-.162 0-.311.052-.431.141-.166.122-.277.313-.288.531v.44h1.437v-.44zm3.017 0c-.011-.217-.121-.408-.288-.531-.121-.089-.269-.141-.431-.141-.162 0-.311.052-.43.141-.167.122-.278.313-.288.531v.44h1.437v-.44zm3.017.44v-.44l-.032-.177c-.046-.143-.136-.265-.255-.353-.12-.089-.268-.141-.43-.141-.162 0-.311.052-.431.141-.166.122-.278.313-.288.531v.44h1.437zm-6.034 6.266c-.018-.373-.332-.671-.719-.671-.386 0-.7.298-.719.671v.44h1.437v-.44zm3.017 0c-.018-.373-.333-.671-.719-.671-.386 0-.7.298-.719.671v.44h1.437v-.44zm3.017 0c-.018-.373-.332-.671-.718-.671-.386 0-.701.298-.719.671v.44h1.437v-.44zm-6.034 2.197c-.018-.373-.332-.671-.719-.671-.386 0-.7.298-.719.671v.441h1.437v-.441zm3.017 0c-.018-.373-.333-.671-.719-.671-.386 0-.7.298-.719.671v.441h1.437v-.441zm3.017 0c-.018-.373-.332-.671-.718-.671-.386 0-.701.298-.719.671v.441h1.437v-.441z" fill="#67737B"/><path d="M18.352 26.43c.458 0 .71-.096.911-.173.166-.064.286-.11.568-.11.261 0 .472-.207.472-.462s-.211-.462-.472-.462c-.459 0-.71.096-.911.174-.167.064-.287.109-.568.109-.281 0-.401-.046-.567-.109-.202-.078-.453-.174-.911-.174-.459 0-.71.096-.911.174-.166.064-.286.109-.567.109-.281 0-.401-.046-.568-.109-.202-.078-.452-.174-.911-.174-.458 0-.71.096-.911.174-.167.064-.287.109-.568.109-.281 0-.401-.046-.567-.109-.202-.078-.452-.174-.911-.174-.458 0-.709.096-.911.174-.167.064-.287.109-.568.109-.28 0-.401-.046-.567-.109-.202-.078-.452-.174-.911-.174s-.709.096-.911.174c-.167.064-.287.109-.568.109-.28 0-.401-.046-.567-.109-.202-.078-.452-.174-.911-.174s-.71.096-.911.174c-.166.064-.287.109-.567.109-.281 0-.401-.046-.568-.109-.202-.078-.452-.174-.911-.174-.261 0-.472.207-.472.462 0 .256.211.462.472.462.281 0 .401.046.567.11.202.077.452.173.911.173.458 0 .709-.096.911-.173.166-.064.287-.11.568-.11.281 0 .401.046.567.11.202.077.452.173.911.173.458 0 .71-.096.911-.173.167-.064.287-.11.568-.11.281 0 .401.046.567.11.202.077.452.173.911.173s.71-.096.911-.173c.166-.064.286-.11.567-.11.28 0 .401.046.567.11.202.077.452.173.911.173s.71-.096.911-.173c.166-.064.287-.11.568-.11.28 0 .401.046.567.11.202.077.453.173.911.173s.709-.096.911-.173c.166-.064.287-.11.568-.11.281 0 .401.046.568.11.201.077.452.173.911.173m-1.314-21.459h.209c-.032.111-.051.228-.051.349 0 .703.583 1.274 1.3 1.274h8.463c.316 0 .621-.114.859-.319.28-.242.441-.591.441-.955 0-.365-.161-.713-.441-.955-.238-.205-.543-.318-.859-.318h-4.832l.016-.174c0-.315-.138-.615-.38-.824-.205-.177-.469-.275-.741-.275h-3.985c-.618 0-1.121.493-1.121 1.098 0 .606.503 1.098 1.121 1.098zm0-1.272h3.985l.116.044.061.129-.061.13-.116.044h-.002c-.261 0-.472.207-.472.462s.211.463.472.463h5.939c.11 0 .189.048.235.088.045.039.122.125.122.261s-.076.223-.121.261c-.046.04-.125.088-.235.088h-8.463c-.197 0-.356-.157-.356-.349 0-.193.159-.349.356-.349.261 0 .472-.208.472-.463h.002c0-.255-.211-.462-.472-.462h-1.461c-.097 0-.177-.078-.177-.174 0-.095.08-.174.177-.174zm-14.175 20.011c.166-.064.286-.11.567-.11.281 0 .401.046.567.11.202.077.452.174.911.174.458 0 .709-.096.91-.174.166-.064.287-.11.568-.11.281 0 .401.046.568.11.202.077.452.174.911.174.458 0 .709-.096.911-.174.167-.064.287-.11.568-.11.28 0 .401.046.568.11.201.077.452.174.91.174.459 0 .71-.096.911-.174.166-.064.286-.11.567-.11.28 0 .401.046.568.11.201.077.452.174.911.174.458 0 .709-.096.911-.174.166-.064.287-.11.567-.11.281 0 .401.046.567.11.202.077.453.174.911.174s.709-.096.911-.174c.166-.064.287-.11.568-.11.281 0 .401.046.568.11.201.077.452.174.911.174.458 0 .709-.096.911-.174.166-.064.286-.11.567-.11.281 0 .401.046.568.11.202.077.452.174.911.174s.71-.096.911-.174c.166-.064.287-.11.568-.11l.048.001c-.09.62-.142 1.301-.142 2.047 0 .255.211.463.471.463h3.43c.261 0 .472-.208.472-.463v-1.769l.157.005c.458 0 .71-.096.912-.174.166-.064.287-.11.568-.11.281 0 .401.046.568.11.202.077.452.174.911.174.261 0 .472-.208.472-.463s-.211-.462-.472-.462l-.261-.019c.043-.106.067-.221.067-.343v-2.361c0-.479-.374-.875-.856-.919v-.894c0-.255-.211-.462-.472-.462s-.471.207-.471.462v.846l-1.122-.054v-3.065c0-.255-.211-.463-.472-.463s-.472.208-.472.463v1.692c-.286.17-.844.555-1.428 1.259l-10.118-.486v-2.582h3.339v.65c0 .255.211.462.472.462h1.793c.261 0 .472-.207.472-.462v-1.262h2.123c.261 0 .472-.207.472-.462v-.125h5.379v1.727c0 .255.211.462.472.462s.472-.207.472-.462v-2.19c0-.255-.211-.462-.472-.462h-6.323c-.26 0-.472.207-.472.462v.125h-2.123c-.261 0-.472.207-.472.462v1.262h-.849v-.65c0-.255-.211-.462-.472-.462h-3.81v-4.101h2.784v.125c0 .255.211.462.472.462h2.124v1.262c0 .255.211.462.472.462h1.793c.261 0 .472-.207.472-.462v-.65h2.407c.261 0 .471-.208.471-.462v-1.591h3.303c.261 0 .472-.207.472-.463 0-.255-.211-.462-.472-.462h-3.775c-.261 0-.472.207-.472.462v1.591h-2.407c-.261 0-.472.207-.472.462v.65h-.849v-1.262c0-.255-.211-.462-.472-.462h-2.124v-.125c0-.256-.211-.463-.472-.463h-3.256v-.095l-.001-.007v-1.128h.02c.261 0 .472-.208.472-.463v-1.498c0-.255-.211-.462-.472-.462h-2.008c-.261 0-.472.207-.472.462v.403h-.382v-.403c0-.255-.211-.462-.472-.462h-1.654c-.261 0-.472.207-.472.462v.403h-.382v-.403c0-.255-.211-.462-.472-.462h-1.655c-.261 0-.472.207-.472.462v.403h-.382v-.403c0-.255-.211-.462-.472-.462h-1.655c-.261 0-.472.207-.472.462v.403h-.382v-.403c0-.255-.212-.462-.472-.462h-1.998c-.261 0-.472.207-.472.462v1.498c0 .255.211.463.472.463h.077v11.836l-.777 2.032c-.134-.027-.294-.046-.496-.046-.261 0-.472.208-.472.462 0 .255.211.462.472.462.281 0 .401.046.568.11.201.077.452.174.911.174.458 0 .71-.096.911-.174zm-.723-16.355h1.054v.403c0 .255.211.462.472.462h1.326c.261 0 .472-.208.472-.462v-.403h.711v.403c0 .255.211.462.472.462h1.325c.261 0 .472-.208.472-.462v-.403h.711v.403c0 .255.211.462.472.462h1.325c.261 0 .472-.208.472-.462v-.403h.711v.403c0 .255.211.462.472.462h1.326c.261 0 .472-.208.472-.462v-.403h1.065v.573h-.02c-.261 0-.472.207-.472.462v.674c-.521 0-.943.414-.943.924v9.508c0 .493.395.899.897.924l.046.002.472.023.471.023 9.016.432c-.107.241-.208.498-.301.772h-21.001v-11.684c0-.511-.423-.924-.944-.924h-.001v-.674c0-.255-.211-.462-.472-.462h-.077v-.573zm25.122 11.806l.206-.18v6.206h-2.479c.015-.483.053-.933.111-1.352l.047-.312.116-.601.078-.324c.087-.333.185-.641.293-.925.099-.26.205-.502.315-.723.172-.343.355-.642.538-.9.267-.376.536-.668.774-.889zm2.184 2.512h-1.034v-.605l1.034.05v.556zm2.022 6.807c-.407 0-.59-.07-.821-.159l-.211-.077c.86-.442 1.094-.948 1.132-1.044.055-.143.036-.302-.052-.427-.089-.125-.234-.2-.389-.2h-8.818c-.155 0-.301.075-.388.2-.088.125-.108.285-.052.427.045.114.364.805 1.677 1.28h-.016c-.407 0-.59-.07-.821-.159-.271-.104-.579-.221-1.164-.221s-.893.118-1.164.221c-.231.089-.413.159-.821.159-.407 0-.59-.07-.821-.159-.272-.104-.579-.221-1.164-.221-.261 0-.472.207-.472.462 0 .256.211.462.472.462.408 0 .59.07.821.159.272.104.579.221 1.164.221s.893-.118 1.164-.221c.231-.089.414-.159.821-.159s.59.07.82.159c.272.104.579.221 1.164.221s.893-.118 1.164-.221c.231-.089.413-.159.821-.159.407 0 .59.07.82.159.272.104.579.221 1.164.221s.893-.118 1.164-.221c.231-.089.413-.159.821-.159.407 0 .59.07.821.159.272.104.579.221 1.164.221.261 0 .472-.207.472-.462s-.211-.462-.472-.462zm-1.615-.983c-.585.265-1.554.513-3.136.513-1.571 0-2.54-.247-3.127-.513h6.262zm-23.42-12.469c-.018-.374-.332-.672-.719-.672-.386 0-.7.298-.719.672v.44h1.437v-.44zm3.017 0c-.018-.374-.333-.672-.719-.672-.386 0-.7.298-.719.672v.44h1.437v-.44zm3.017 0c-.018-.374-.332-.672-.718-.672-.386 0-.701.298-.719.672v.44h1.437v-.44zm-6.034-2.298c-.018-.373-.332-.671-.719-.671-.386 0-.7.298-.719.671v.441h1.437v-.441zm3.017 0c-.018-.373-.333-.671-.719-.671-.386 0-.7.298-.719.671v.441h1.437v-.441zm3.017 0c-.008-.177-.084-.337-.202-.457-.131-.132-.313-.214-.516-.214s-.385.082-.516.214c-.118.119-.194.279-.203.457v.441h1.437v-.441zm-6.034-2.211c-.011-.217-.121-.408-.288-.531-.12-.089-.269-.141-.431-.141-.162 0-.311.052-.431.141-.166.122-.277.313-.288.531v.44h1.437v-.44zm3.017 0c-.011-.217-.121-.408-.288-.531-.121-.089-.269-.141-.431-.141-.162 0-.311.052-.43.141-.167.122-.278.313-.288.531v.44h1.437v-.44zm3.017.44v-.44l-.032-.177c-.046-.143-.136-.265-.255-.353-.12-.089-.268-.141-.43-.141-.162 0-.311.052-.431.141-.166.122-.278.313-.288.531v.44h1.437zm-6.034 6.266c-.018-.373-.332-.671-.719-.671-.386 0-.7.298-.719.671v.44h1.437v-.44zm3.017 0c-.018-.373-.333-.671-.719-.671-.386 0-.7.298-.719.671v.44h1.437v-.44zm3.017 0c-.018-.373-.332-.671-.718-.671-.386 0-.701.298-.719.671v.44h1.437v-.44zm-6.034 2.197c-.018-.373-.332-.671-.719-.671-.386 0-.7.298-.719.671v.441h1.437v-.441zm3.017 0c-.018-.373-.333-.671-.719-.671-.386 0-.7.298-.719.671v.441h1.437v-.441zm3.017 0c-.018-.373-.332-.671-.718-.671-.386 0-.701.298-.719.671v.441h1.437v-.441z" fill="#3A434E"/></g></g></svg>