<svg width="32" height="232" viewBox="0 0 32 232" xmlns="http://www.w3.org/2000/svg"><title>ecuador</title><desc>Created with Sketch.</desc><g fill="none"><path d="M31.217 128.383c-.01-.795-.063-1.303-.07-1.378-.024-.208-.105-.405-.23-.566-.07-.09-.163-.182-.275-.267l.526-2.503c.03-.148.003-.304-.08-.43s-.208-.207-.35-.228l-1.752-.26c-.142-.022-.286.02-.397.117-.112.096-.18.236-.188.39l-.16 2.815-.01.006c-1.244.02-2.858 1.655-4.796 4.865l-.152.234c-.868.917-2.03 1.366-3.548 1.366-2.69 0-5.72-1.452-7.346-2.232-.47-.225-.808-.387-1.042-.472-.48-.172-.932-.26-1.345-.26-.33 0-.59.056-.784.123l-.065-.004c-.3 0-.428.232-.522.4l-.288.54c-.088.166-.17.44-.07.8.065.226.21.54.656.993-.53-.155-.922-.268-1.193-.32-.36-.066-.708-.1-1.032-.1-.77 0-1.297.19-1.625.37-.366-.01-.486.3-.57.525l-.264.74c-.06.17-.102.43-.008.738-.19-.015-.377-.023-.557-.023-1.126 0-1.896.282-2.387.567-.64.072-.838.683-.926.953l-.287.93c-.1.33-.154.847.147 1.44.292.576 1.01 1.478 3.875 2.67 1.453.604 2.784 1.004 2.843 1.02.398.118.79.228 1.18.333l-.48.078c-1.664.346-2.588 1.05-3.078 1.604-.11.055-.212.13-.3.223-.3.324-.303.685-.307 1.004l.003.97c.018 1.798 2.244 2.2 2.975 2.333 1.253.226 2.746.274 3.78.274.746 0 1.257-.023 1.282-.024 9.324-.483 15.485-3.26 18.31-8.25 2.527-4.463 1.676-9.448.91-12.102zM6.735 146.215c3.186-.087 11.766-.61 17.148-3.68.184-.105.282-.31.268-.52l-.058-.218c-.134-.265-.446-.365-.696-.222-.56.32-1.18.62-1.855.9-.914.382-1.93.727-3.04 1.033-1.89.522-4.045.93-6.417 1.215-1.185.14-2.29.235-3.243.296-.997.064-1.827.094-2.41.11.32-.223.824-.473 1.606-.635.29-.06.892-.122 1.587-.192 1.412-.144 3.4-.347 5.527-.788 1.36-.28 2.777-.66 4.14-1.184 1.583-.608 3.09-1.412 4.347-2.485 1.127-.962 2.052-2.14 2.645-3.59.178-.435.327-.893.442-1.377l.01-.038.076-.36.183-.892.055-.25.046-.205c.148-.653.297-1.224.444-1.724l.036-.123c.176-.592.35-1.08.512-1.48.212-.52.407-.895.577-1.165l.103-.156.193-.25-.042.32-.1.742-.145.975c-.086.556-.183 1.135-.29 1.72l-.065.346c-.072.378-.147.757-.228 1.13-.183.858-.387 1.69-.61 2.44l-.115.366c-.304.947-.644 1.73-1.014 2.205-.155.202-.153.484-.01.68l.08.09c.096.083.212.124.327.124.148 0 .295-.068.397-.198.456-.586.885-1.53 1.284-2.825.357-1.156.69-2.59.995-4.3.08-.45.155-.895.222-1.32.084.454.157.94.208 1.453.12 1.202.118 2.54-.13 3.893-.203 1.11-.573 2.23-1.18 3.3-2.456 4.32-8.055 6.736-16.64 7.18-.004 0-.488.024-1.185.024-2.02 0-3.264-.178-3.98-.363zm-3.97-8.372c.955.324 2.382.78 4.024 1.21 3.262.853 6.07 1.283 8.375 1.283.534 0 1.04-.023 1.52-.07.283-.027.492-.292.466-.592-.01-.127-.062-.24-.14-.325-.103-.117-.253-.186-.417-.17-.254.025-.516.042-.78.052-.626.024-1.278.01-1.943-.034-2.696-.18-5.615-.854-7.9-1.5-1.394-.393-2.55-.776-3.278-1.028.24-.07.562-.127.987-.127.237 0 .493.018.76.054.294.04.882.182 1.563.346.99.24 2.29.554 3.757.82 1.122.204 2.34.38 3.59.47.59.044 1.186.07 1.783.07.56 0 1.1-.024 1.62-.067 1.67-.14 3.137-.5 4.395-1.083.493-.23.955-.49 1.384-.786.48-.332.92-.706 1.317-1.122.344-.36.657-.754.94-1.178-.043.22-.096.434-.16.642-.092.31-.205.606-.335.89-.14.304-.3.593-.478.87-.173.264-.362.518-.566.758-.316.37-.67.713-1.05 1.028-.395.325-.82.62-1.27.892-1.76 1.06-3.882 1.73-5.914 2.168-2.262-.176-4.782-.67-7.52-1.476-.012-.004-1.316-.395-2.684-.967-.99-.414-1.63-.76-2.046-1.03zm4.794-4.656c.254.047.712.182 1.293.353.703.207 1.582.466 2.568.71.606.15 1.252.292 1.92.415.632.115 1.285.21 1.945.275.565.055 1.137.087 1.705.087 2.384 0 4.296-.562 5.71-1.673-1.052 1.253-2.568 2.083-4.53 2.485-.44.09-.902.158-1.386.204-.464.045-.95.07-1.454.076l-.198.002c-3.276 0-6.655-.817-8.673-1.304l-.704-.168c-.53-.41-.548-.62-.548-.622l.208-.587c.106-.083.488-.336 1.288-.336.265 0 .552.028.855.085zm12.075.447c-.79.2-1.672.302-2.645.302-1.79 0-3.628-.334-5.206-.717-1.322-.798-2.438-1.708-2.524-2.086l.19-.358c.077-.038.254-.103.55-.103.3 0 .643.068 1.016.202.186.067.522.228.948.432 1.68.805 4.787 2.293 7.67 2.327zm9.654-7.86l.104-1.862.65.096-.378 1.798-.003.01-.11.52-.293-.043.027-.48.003-.04z" fill="#206FAC"/><path d="M31.217 88.383c-.01-.795-.063-1.303-.07-1.378-.024-.208-.105-.405-.23-.566-.07-.09-.163-.182-.275-.267l.526-2.503c.03-.148.003-.304-.08-.43s-.208-.207-.35-.228l-1.752-.26c-.142-.022-.286.02-.397.117-.112.096-.18.236-.188.39l-.16 2.815-.01.006c-1.244.02-2.858 1.655-4.796 4.865l-.152.234c-.868.917-2.03 1.366-3.548 1.366-2.69 0-5.72-1.452-7.346-2.232-.47-.225-.808-.387-1.042-.472-.48-.172-.932-.26-1.345-.26-.33 0-.59.056-.784.123l-.065-.004c-.3 0-.428.232-.522.4l-.288.54c-.088.166-.17.44-.07.8.065.226.21.54.656.993-.53-.155-.922-.268-1.193-.32-.36-.066-.708-.1-1.032-.1-.77 0-1.297.19-1.625.37-.366-.01-.486.3-.57.525l-.264.74c-.06.17-.102.43-.008.738-.19-.015-.377-.023-.557-.023-1.126 0-1.896.282-2.387.567-.64.072-.838.683-.926.953l-.287.93c-.1.33-.154.847.147 1.44.292.576 1.01 1.478 3.875 2.67 1.453.604 2.784 1.004 2.843 1.02.398.118.79.228 1.18.333l-.48.078c-1.664.346-2.588 1.05-3.078 1.604-.11.055-.212.13-.3.223-.3.324-.303.685-.307 1.004l.003.97c.018 1.798 2.244 2.2 2.975 2.333 1.253.226 2.746.274 3.78.274.746 0 1.257-.023 1.282-.024 9.324-.483 15.485-3.26 18.31-8.25 2.527-4.463 1.676-9.448.91-12.102zM6.735 106.215c3.186-.087 11.766-.61 17.148-3.68.184-.105.282-.31.268-.52l-.058-.218c-.134-.265-.446-.365-.696-.222-.56.32-1.18.62-1.855.9-.914.382-1.93.727-3.04 1.033-1.89.522-4.045.93-6.417 1.215-1.185.14-2.29.235-3.243.296-.997.064-1.827.094-2.41.11.32-.223.824-.473 1.606-.635.29-.06.892-.122 1.587-.192 1.412-.144 3.4-.347 5.527-.788 1.36-.28 2.777-.66 4.14-1.184 1.583-.608 3.09-1.412 4.347-2.485 1.127-.962 2.052-2.14 2.645-3.59.178-.435.327-.893.442-1.377l.01-.038.076-.36.183-.892.055-.25.046-.205c.148-.653.297-1.224.444-1.724l.036-.123c.176-.592.35-1.08.512-1.48.212-.52.407-.895.577-1.165l.103-.156.193-.25-.042.32-.1.742-.145.975c-.086.556-.183 1.135-.29 1.72l-.065.346c-.072.378-.147.757-.228 1.13-.183.858-.387 1.69-.61 2.44l-.115.366c-.304.947-.644 1.73-1.014 2.205-.155.202-.153.484-.01.68l.08.09c.096.083.212.124.327.124.148 0 .295-.068.397-.198.456-.586.885-1.53 1.284-2.825.357-1.156.69-2.59.995-4.3.08-.45.155-.895.222-1.32.084.454.157.94.208 1.453.12 1.202.118 2.54-.13 3.893-.203 1.11-.573 2.23-1.18 3.3-2.456 4.32-8.055 6.736-16.64 7.18-.004 0-.488.024-1.185.024-2.02 0-3.264-.178-3.98-.363zm-3.97-8.372c.955.324 2.382.78 4.024 1.21 3.262.853 6.07 1.283 8.375 1.283.534 0 1.04-.023 1.52-.07.283-.027.492-.292.466-.592-.01-.127-.062-.24-.14-.325-.103-.117-.253-.186-.417-.17-.254.025-.516.042-.78.052-.626.024-1.278.01-1.943-.034-2.696-.18-5.615-.854-7.9-1.5-1.394-.393-2.55-.776-3.278-1.028.24-.07.562-.127.987-.127.237 0 .493.018.76.054.294.04.882.182 1.563.346.99.24 2.29.554 3.757.82 1.122.204 2.34.38 3.59.47.59.044 1.186.07 1.783.07.56 0 1.1-.024 1.62-.067 1.67-.14 3.137-.5 4.395-1.083.493-.23.955-.49 1.384-.786.48-.332.92-.706 1.317-1.122.344-.36.657-.754.94-1.178-.043.22-.096.434-.16.642-.092.31-.205.606-.335.89-.14.304-.3.593-.478.87-.173.264-.362.518-.566.758-.316.37-.67.713-1.05 1.028-.395.325-.82.62-1.27.892-1.76 1.06-3.882 1.73-5.914 2.168-2.262-.176-4.782-.67-7.52-1.476-.012-.004-1.316-.395-2.684-.967-.99-.414-1.63-.76-2.046-1.03zm4.794-4.656c.254.047.712.182 1.293.353.703.207 1.582.466 2.568.71.606.15 1.252.292 1.92.415.632.115 1.285.21 1.945.275.565.055 1.137.087 1.705.087 2.384 0 4.296-.562 5.71-1.673-1.052 1.253-2.568 2.083-4.53 2.485-.44.09-.902.158-1.386.204-.464.045-.95.07-1.454.076l-.198.002c-3.276 0-6.655-.817-8.673-1.304l-.704-.168c-.53-.41-.548-.62-.548-.622l.208-.587c.106-.083.488-.336 1.288-.336.265 0 .552.028.855.085zm12.075.447c-.79.2-1.672.302-2.645.302-1.79 0-3.628-.334-5.206-.717-1.322-.798-2.438-1.708-2.524-2.086l.19-.358c.077-.038.254-.103.55-.103.3 0 .643.068 1.016.202.186.067.522.228.948.432 1.68.805 4.787 2.293 7.67 2.327zm9.654-7.86l.104-1.862.65.096-.378 1.798-.003.01-.11.52-.293-.043.027-.48.003-.04z" fill="#fff"/><path d="M31.217 48.383c-.01-.795-.063-1.303-.07-1.378-.024-.208-.105-.405-.23-.566-.07-.09-.163-.182-.275-.267l.526-2.503c.03-.148.003-.304-.08-.43s-.208-.207-.35-.228l-1.752-.26c-.142-.022-.286.02-.397.117-.112.096-.18.236-.188.39l-.16 2.815-.01.006c-1.244.02-2.858 1.655-4.796 4.865l-.152.234c-.868.917-2.03 1.366-3.548 1.366-2.69 0-5.72-1.452-7.346-2.232-.47-.225-.808-.387-1.042-.472-.48-.172-.932-.26-1.345-.26-.33 0-.59.056-.784.123l-.065-.004c-.3 0-.428.232-.522.4l-.288.54c-.088.166-.17.44-.07.8.065.226.21.54.656.993-.53-.155-.922-.268-1.193-.32-.36-.066-.708-.1-1.032-.1-.77 0-1.297.19-1.625.37-.366-.01-.486.3-.57.525l-.264.74c-.06.17-.102.43-.008.738-.19-.015-.377-.023-.557-.023-1.126 0-1.896.282-2.387.567-.64.072-.838.683-.926.953l-.287.93c-.1.33-.154.847.147 1.44.292.576 1.01 1.478 3.875 2.67 1.453.604 2.784 1.004 2.843 1.02.398.118.79.228 1.18.333l-.48.078c-1.664.346-2.588 1.05-3.078 1.604-.11.055-.212.13-.3.223-.3.324-.303.685-.307 1.004l.003.97c.018 1.798 2.244 2.2 2.975 2.333 1.253.226 2.746.274 3.78.274.746 0 1.257-.023 1.282-.024 9.324-.483 15.485-3.26 18.31-8.25 2.527-4.463 1.676-9.448.91-12.102zM6.735 66.215c3.186-.087 11.766-.61 17.148-3.68.184-.105.282-.31.268-.52l-.058-.218c-.134-.265-.446-.365-.696-.222-.56.32-1.18.62-1.855.9-.914.382-1.93.727-3.04 1.033-1.89.522-4.045.93-6.417 1.215-1.185.14-2.29.235-3.243.296-.997.064-1.827.094-2.41.11.32-.223.824-.473 1.606-.635.29-.06.892-.122 1.587-.192 1.412-.144 3.4-.347 5.527-.788 1.36-.28 2.777-.66 4.14-1.184 1.583-.608 3.09-1.412 4.347-2.485 1.127-.962 2.052-2.14 2.645-3.59.178-.435.327-.893.442-1.377l.01-.038.076-.36.183-.892.055-.25.046-.205c.148-.653.297-1.224.444-1.724l.036-.123c.176-.592.35-1.08.512-1.48.212-.52.407-.895.577-1.165l.103-.156.193-.25-.042.32-.1.742-.145.975c-.086.556-.183 1.135-.29 1.72l-.065.346c-.072.378-.147.757-.228 1.13-.183.858-.387 1.69-.61 2.44l-.115.366c-.304.947-.644 1.73-1.014 2.205-.155.202-.153.484-.01.68l.08.09c.096.083.212.124.327.124.148 0 .295-.068.397-.198.456-.586.885-1.53 1.284-2.825.357-1.156.69-2.59.995-4.3.08-.45.155-.895.222-1.32.084.454.157.94.208 1.453.12 1.202.118 2.54-.13 3.893-.203 1.11-.573 2.23-1.18 3.3-2.456 4.32-8.055 6.736-16.64 7.18-.004 0-.488.024-1.185.024-2.02 0-3.264-.178-3.98-.363zm-3.97-8.372c.955.324 2.382.78 4.024 1.21 3.262.853 6.07 1.283 8.375 1.283.534 0 1.04-.023 1.52-.07.283-.027.492-.292.466-.592-.01-.127-.062-.24-.14-.325-.103-.117-.253-.186-.417-.17-.254.025-.516.042-.78.052-.626.024-1.278.01-1.943-.034-2.696-.18-5.615-.854-7.9-1.5-1.394-.393-2.55-.776-3.278-1.028.24-.07.562-.127.987-.127.237 0 .493.018.76.054.294.04.882.182 1.563.346.99.24 2.29.554 3.757.82 1.122.204 2.34.38 3.59.47.59.044 1.186.07 1.783.07.56 0 1.1-.024 1.62-.067 1.67-.14 3.137-.5 4.395-1.083.493-.23.955-.49 1.384-.786.48-.332.92-.706 1.317-1.122.344-.36.657-.754.94-1.178-.043.22-.096.434-.16.642-.092.31-.205.606-.335.89-.14.304-.3.593-.478.87-.173.264-.362.518-.566.758-.316.37-.67.713-1.05 1.028-.395.325-.82.62-1.27.892-1.76 1.06-3.882 1.73-5.914 2.168-2.262-.176-4.782-.67-7.52-1.476-.012-.004-1.316-.395-2.684-.967-.99-.414-1.63-.76-2.046-1.03zm4.794-4.656c.254.047.712.182 1.293.353.703.207 1.582.466 2.568.71.606.15 1.252.292 1.92.415.632.115 1.285.21 1.945.275.565.055 1.137.087 1.705.087 2.384 0 4.296-.562 5.71-1.673-1.052 1.253-2.568 2.083-4.53 2.485-.44.09-.902.158-1.386.204-.464.045-.95.07-1.454.076l-.198.002c-3.276 0-6.655-.817-8.673-1.304l-.704-.168c-.53-.41-.548-.62-.548-.622l.208-.587c.106-.083.488-.336 1.288-.336.265 0 .552.028.855.085zm12.075.447c-.79.2-1.672.302-2.645.302-1.79 0-3.628-.334-5.206-.717-1.322-.798-2.438-1.708-2.524-2.086l.19-.358c.077-.038.254-.103.55-.103.3 0 .643.068 1.016.202.186.067.522.228.948.432 1.68.805 4.787 2.293 7.67 2.327zm9.654-7.86l.104-1.862.65.096-.378 1.798-.003.01-.11.52-.293-.043.027-.48.003-.04z" fill="#67737B"/><path d="M31.217 8.383c-.01-.795-.063-1.303-.07-1.378-.024-.208-.105-.405-.23-.566-.07-.09-.163-.182-.275-.267l.526-2.503c.03-.148.003-.304-.08-.43s-.208-.207-.35-.228l-1.752-.26c-.142-.022-.286.02-.397.117-.112.096-.18.236-.188.39l-.16 2.815-.01.006c-1.244.02-2.858 1.655-4.796 4.865l-.152.234c-.868.917-2.03 1.366-3.548 1.366-2.69 0-5.72-1.452-7.346-2.232-.47-.225-.808-.387-1.042-.472-.48-.172-.932-.26-1.345-.26-.33 0-.59.056-.784.123L9.154 9.7c-.3 0-.428.232-.522.4l-.288.54c-.088.166-.17.44-.07.8.065.226.21.54.656.993-.53-.155-.922-.268-1.193-.32-.36-.066-.708-.1-1.032-.1-.77 0-1.297.19-1.625.37-.366-.01-.486.3-.57.525l-.264.74c-.06.17-.102.43-.008.738-.19-.015-.377-.023-.557-.023-1.126 0-1.896.282-2.387.567-.64.072-.838.683-.926.953l-.287.93c-.1.33-.154.847.147 1.44.292.576 1.01 1.478 3.875 2.67 1.453.604 2.784 1.004 2.843 1.02.398.118.79.228 1.18.333l-.48.078c-1.664.346-2.588 1.05-3.078 1.604-.11.055-.212.13-.3.223-.3.324-.303.685-.307 1.004l.003.97c.018 1.798 2.244 2.2 2.975 2.333 1.253.226 2.746.274 3.78.274.746 0 1.257-.023 1.282-.024 9.324-.483 15.485-3.26 18.31-8.25 2.527-4.463 1.676-9.448.91-12.102zM6.735 26.215c3.186-.087 11.766-.61 17.148-3.68.184-.105.282-.31.268-.52l-.058-.218c-.134-.265-.446-.365-.696-.222-.56.32-1.18.62-1.855.9-.914.382-1.93.727-3.04 1.033-1.89.522-4.045.93-6.417 1.215-1.185.14-2.29.235-3.243.296-.997.064-1.827.094-2.41.11.32-.223.824-.473 1.606-.635.29-.06.892-.122 1.587-.192 1.412-.144 3.4-.347 5.527-.788 1.36-.28 2.777-.66 4.14-1.184 1.583-.608 3.09-1.412 4.347-2.485 1.127-.962 2.052-2.14 2.645-3.59.178-.435.327-.893.442-1.377l.01-.038.076-.36.183-.892.055-.25.046-.205c.148-.653.297-1.224.444-1.724l.036-.123c.176-.592.35-1.08.512-1.48.212-.52.407-.895.577-1.165l.103-.156.193-.25-.042.32-.1.742-.145.975c-.086.556-.183 1.135-.29 1.72l-.065.346c-.072.378-.147.757-.228 1.13-.183.858-.387 1.69-.61 2.44l-.115.366c-.304.947-.644 1.73-1.014 2.205-.155.202-.153.484-.01.68l.08.09c.096.083.212.124.327.124.148 0 .295-.068.397-.198.456-.586.885-1.53 1.284-2.825.357-1.156.69-2.59.995-4.3.08-.45.155-.895.222-1.32.084.454.157.94.208 1.453.12 1.202.118 2.54-.13 3.893-.203 1.11-.573 2.23-1.18 3.3-2.456 4.32-8.055 6.736-16.64 7.18-.004 0-.488.024-1.185.024-2.02 0-3.264-.178-3.98-.363zm-3.97-8.372c.955.324 2.382.78 4.024 1.21 3.262.853 6.07 1.283 8.375 1.283.534 0 1.04-.023 1.52-.07.283-.027.492-.292.466-.592-.01-.127-.062-.24-.14-.325-.103-.117-.253-.186-.417-.17-.254.025-.516.042-.78.052-.626.024-1.278.01-1.943-.034-2.696-.18-5.615-.854-7.9-1.5-1.394-.393-2.55-.776-3.278-1.028.24-.07.562-.127.987-.127.237 0 .493.018.76.054.294.04.882.182 1.563.346.99.24 2.29.554 3.757.82 1.122.204 2.34.38 3.59.47.59.044 1.186.07 1.783.07.56 0 1.1-.024 1.62-.067 1.67-.14 3.137-.5 4.395-1.083.493-.23.955-.49 1.384-.786.48-.332.92-.706 1.317-1.122.344-.36.657-.754.94-1.178-.043.22-.096.434-.16.642-.092.31-.205.606-.335.89-.14.304-.3.593-.478.87-.173.264-.362.518-.566.758-.316.37-.67.713-1.05 1.028-.395.325-.82.62-1.27.892-1.76 1.06-3.882 1.73-5.914 2.168-2.262-.176-4.782-.67-7.52-1.476-.012-.004-1.316-.395-2.684-.967-.99-.414-1.63-.76-2.046-1.03zm4.794-4.656c.254.047.712.182 1.293.353.703.207 1.582.466 2.568.71.606.15 1.252.292 1.92.415.632.115 1.285.21 1.945.275.565.055 1.137.087 1.705.087 2.384 0 4.296-.562 5.71-1.673-1.052 1.253-2.568 2.083-4.53 2.485-.44.09-.902.158-1.386.204-.464.045-.95.07-1.454.076l-.198.002c-3.276 0-6.655-.817-8.673-1.304l-.704-.168c-.53-.41-.548-.62-.548-.622l.208-.587c.106-.083.488-.336 1.288-.336.265 0 .552.028.855.085zm12.075.447c-.79.2-1.672.302-2.645.302-1.79 0-3.628-.334-5.206-.717-1.322-.798-2.438-1.708-2.524-2.086l.19-.358c.077-.038.254-.103.55-.103.3 0 .643.068 1.016.202.186.067.522.228.948.432 1.68.805 4.787 2.293 7.67 2.327zm9.654-7.86l.104-1.862.65.096-.378 1.798-.003.01-.11.52-.293-.043.027-.48.003-.04z" fill="#3A434E"/></g></svg>