<svg width="32" height="232" viewBox="0 0 32 232" xmlns="http://www.w3.org/2000/svg"><desc>Created with Sketch.</desc><g fill="none"><path d="M15.398 135.138v.995c0 .262.206.474.46.474h.75c.252 0 .46-.212.46-.474s-.207-.474-.46-.474h-.292v-.525c0-.262-.206-.474-.46-.474s-.458.213-.458.475zm5.705.4l.153-.028.475-.153c.25-.07.39-.33.327-.58-.066-.254-.318-.403-.563-.334-.18.05-.363.11-.54.174-.24.087-.364.358-.28.605.066.195.244.317.433.317zm8.255 3.21c.083.16.242.25.405.25.073 0 .147-.02.216-.057.22-.12.304-.41.184-.64-.088-.17-.184-.34-.285-.503-.136-.22-.42-.286-.634-.145-.214.14-.277.433-.14.654l.25.443zm-5.157-3.595l.497.074.083.008c.216 0 .41-.16.45-.39.046-.256-.12-.503-.368-.55-.185-.036-.373-.064-.56-.085-.253-.028-.48.16-.506.42-.027.26.155.494.408.522zm5.9 6.045l.04.513c.01.26.215.458.46.458h.02c.252-.01.45-.23.44-.493-.01-.193-.025-.39-.046-.58v-.02c-.032-.26-.26-.44-.512-.408-.25.032-.43.273-.4.534zM27 136.15l.414.29c.082.06.177.09.27.09.142 0 .282-.067.372-.194.15-.21.105-.508-.1-.662-.152-.115-.31-.224-.47-.327-.214-.138-.497-.07-.63.152-.135.22-.07.51.146.65zm3.363 7.797c-.24-.086-.5.045-.585.292l-.18.475c-.1.24.006.52.24.623l.18.04c.18 0 .347-.108.423-.286.08-.178.148-.362.21-.545.083-.248-.044-.52-.283-.604zm-5.013 5.61l.12-.017c.182-.05.364-.11.542-.174.24-.088.364-.358.28-.605-.084-.243-.346-.372-.586-.285l-.475.153c-.24.068-.39.328-.32.58.055.212.24.35.443.35zm2.858-2.722l-.364.35c-.192.172-.212.472-.046.67.09.108.22.163.347.163.106 0 .214-.038.3-.116.143-.127.282-.26.415-.4.18-.185.178-.485-.002-.67-.18-.184-.47-.183-.65.003zm-5.447 1.99l-.49-.074c-.25-.043-.49.126-.534.38-.046.26.12.51.368.556.186.036.375.064.562.085l.05.003c.23 0 .43-.18.456-.422.028-.26-.154-.493-.406-.52zM2.79 132.493l-.01.132c0 .595.47 1.08 1.046 1.08h5.3c.254 0 .5-.096.69-.27.226-.206.355-.5.355-.81 0-.31-.13-.604-.353-.81-.19-.175-.437-.27-.69-.27H6.53c0-.272-.113-.53-.31-.71-.168-.154-.383-.238-.607-.238h-2.82c-.507 0-.92.425-.92.948 0 .52.41.945.915.948zm2.826-.948h-.002c-.253 0-.46.212-.46.474 0 .26.207.47.46.47h3.513l.083.032.044.1-.043.097-.082.033h-5.3c-.07 0-.127-.06-.127-.13 0-.074.057-.133.127-.133.254 0 .46-.21.46-.47 0-.265-.205-.476-.46-.476H2.793h2.822zm24.874 18.567h-1.76L27.1 147.3c1.616-1.176 2.675-3.117 2.675-5.31 0-3.58-2.822-6.495-6.292-6.495-1.13 0-2.216.307-3.167.88v-3.783c0-.35-.185-.656-.46-.82v-1.462l-.007-.074-.01-.024-.02-.07-.004-.01-.038-.07-.014-.02-.02-.025-1.587-1.977v-1.668c.013-.15-.04-.3-.15-.4-1.08-.988-1.698-2.406-1.698-3.89v-1.59c0-.262-.207-.474-.46-.474s-.46.213-.46.474v1.59c0 1.484-.617 2.9-1.695 3.89-.11.1-.167.25-.15.4v1.668l-1.59 1.977-.018.025-.014.02-.036.07-.004.012-.02.07-.005.023-.006.074v1.466c-.275.164-.46.47-.46.82v7.02c0 .33.164.622.41.792v.424h-2.64v-.6c0-.26-.206-.473-.46-.473h-.06v-1.6c0-.264-.205-.476-.46-.476h-.4v-1.157c0-.262-.205-.474-.458-.474-.254 0-.46.21-.46.474v1.16h-.642v-1.16c0-.262-.206-.474-.46-.474-.253 0-.458.21-.458.473v1.16h-.39c-.252 0-.458.21-.458.473v1.6h-.06c-.255 0-.46.212-.46.474v2.9H2.02c-.254 0-.46.21-.46.475v6.51h-.28c-.507 0-.918.423-.918.947s.41.95.918.95h29.207c.507 0 .918-.426.918-.95 0-.523-.41-.947-.918-.947zm-17.712-19.32h6.163v.853h-6.16v-.852zm5.703 4.378c-.25-.716-.762-1.303-1.42-1.63h1.422v1.63zm-.755.963c0 1.06-.837 1.926-1.865 1.926s-1.866-.868-1.866-1.93c0-1.06.837-1.925 1.865-1.925s1.863.864 1.863 1.925zm-4.488-.963v-1.63h1.423c-.66.327-1.176.913-1.424 1.63zm0 1.925c.234.676.705 1.235 1.31 1.57h-1.31v-1.57zm5.244 0v1.57h-1.31c.605-.336 1.077-.895 1.31-1.57zm-4.833 3.466h4.42v2.528h-4.42v-2.524zm0 3.476h4.42v2.947h-4.42v-2.946zm14.013 6.078H19.9v-1.03l.75-1.29c.866.45 1.83.693 2.83.693 1.016 0 1.977-.25 2.828-.696l1.35 2.325zm-3.785-8.365c-.083-.144-.233-.23-.394-.23s-.31.086-.39.23l-.877 1.51c-.308-.33-.498-.777-.498-1.268 0-1.005.792-1.823 1.767-1.823.976 0 1.77.817 1.77 1.823 0 .49-.19.94-.497 1.267l-.874-1.51zm.088 1.995c-.153.046-.315.072-.482.072-.164 0-.325-.026-.48-.07l.48-.832.485.83zm-.482 1.02c.344 0 .67-.067.968-.186l1.39 2.397c-.71.36-1.51.563-2.355.563-.828 0-1.63-.198-2.355-.563l1.39-2.4c.3.12.626.187.966.187zm0-8.318c2.966 0 5.376 2.488 5.376 5.547 0 1.847-.88 3.485-2.23 4.493l-1.39-2.397c.57-.51.932-1.26.932-2.1 0-1.527-1.204-2.77-2.685-2.77-1.48 0-2.684 1.244-2.684 2.77 0 .84.36 1.59.93 2.1l-1.392 2.4c-.15-.114-.297-.235-.436-.363v-5.72c.25-.17.41-.46.41-.792v-2.105c.916-.69 2.015-1.067 3.17-1.067zm-9.01-9.632h2.774v.986H14.47v-.986zm1.386-2.365c.203.5.47.973.794 1.405h-1.59c.326-.43.592-.904.795-1.405zm-1.68 4.3h3.36l.885 1.1h-5.127l.883-1.1zm-5.013 13.03h2.646v8.335H9.16v-8.335zm-4.31-1.08h.06c.255 0 .46-.21.46-.47v-1.603h2.35v1.602c0 .26.206.47.46.47h.06v9.41h-.46v-8.79c0-.263-.205-.475-.458-.475-.254 0-.46.212-.46.474v8.793h-.642v-8.793c0-.262-.206-.474-.46-.474-.253 0-.458.212-.458.474v8.793h-.45v-9.41zm-2.376 3.375h1.46v6.036h-1.46v-6.034zm11.167 3.853h4.42v2.183h-4.42v-2.18z" fill="#206FAC"/><path d="M15.398 95.138v.995c0 .262.206.474.46.474h.75c.252 0 .46-.212.46-.474s-.207-.474-.46-.474h-.292v-.525c0-.262-.206-.474-.46-.474s-.458.213-.458.475zm5.705.4l.153-.028.475-.153c.25-.07.39-.33.327-.58-.066-.254-.318-.403-.563-.334-.18.05-.363.11-.54.174-.24.087-.364.358-.28.605.066.195.244.317.433.317zm8.255 3.21c.083.16.242.25.405.25.073 0 .147-.02.216-.057.22-.12.304-.41.184-.64-.088-.17-.184-.34-.285-.503-.136-.22-.42-.286-.634-.145-.214.14-.277.433-.14.654l.25.443zM24.2 95.152l.494.074.083.008c.217 0 .41-.16.45-.39.047-.256-.118-.503-.367-.55-.186-.036-.374-.064-.56-.085-.254-.03-.48.16-.507.42-.027.26.155.49.408.52zm5.9 6.045l.038.513c.01.256.214.455.46.455h.018c.253-.01.45-.23.44-.493-.01-.193-.024-.39-.045-.58v-.02c-.03-.26-.26-.44-.51-.408-.25.032-.43.273-.4.534zM27 96.15l.414.29c.082.06.177.09.27.09.142 0 .282-.067.372-.194.15-.21.105-.508-.1-.662-.152-.115-.31-.224-.47-.327-.214-.138-.497-.07-.63.152-.135.22-.07.51.146.65zm3.363 7.797c-.24-.086-.5.045-.585.292l-.18.475c-.1.24.006.52.24.623l.18.04c.18 0 .347-.108.423-.286.08-.178.148-.362.21-.545.083-.248-.044-.52-.283-.604zm-5.013 5.61l.12-.017c.182-.05.364-.11.542-.174.24-.088.364-.358.28-.605-.084-.243-.346-.372-.586-.285l-.475.153c-.24.068-.39.328-.32.58.055.212.24.35.443.35zm2.858-2.722l-.364.35c-.192.172-.212.472-.046.67.09.108.22.163.347.163.106 0 .214-.038.3-.116.143-.127.282-.26.415-.4.18-.185.178-.485-.002-.67-.18-.184-.47-.183-.65.003zm-5.447 1.99l-.49-.074c-.25-.043-.49.126-.534.38-.046.26.12.51.368.556.186.036.375.064.562.085l.05.003c.23 0 .43-.18.456-.422.028-.26-.154-.493-.406-.52zM2.79 92.493l-.01.132c0 .595.47 1.08 1.046 1.08h5.3c.254 0 .5-.096.69-.27.226-.206.355-.5.355-.81 0-.31-.13-.604-.353-.81-.19-.175-.437-.27-.69-.27H6.53c0-.272-.113-.53-.31-.71-.168-.154-.383-.238-.607-.238h-2.82c-.507 0-.92.425-.92.948 0 .52.41.945.915.948zm2.826-.948h-.002c-.253 0-.46.212-.46.474 0 .26.207.47.46.47h3.513l.083.032.044.1-.043.097-.082.033h-5.3c-.07 0-.127-.06-.127-.13 0-.074.057-.133.127-.133.254 0 .46-.21.46-.47 0-.265-.205-.476-.46-.476H2.793h2.822zm24.874 18.567h-1.76L27.1 107.3c1.616-1.176 2.675-3.117 2.675-5.31 0-3.58-2.822-6.495-6.292-6.495-1.13 0-2.216.307-3.167.88v-3.783c0-.35-.185-.656-.46-.82V90.31l-.007-.074-.01-.024-.02-.07-.004-.01-.038-.07-.014-.02-.02-.025-1.587-1.977v-1.668c.013-.15-.04-.3-.15-.4-1.08-.988-1.698-2.406-1.698-3.89v-1.59c0-.262-.207-.474-.46-.474s-.46.213-.46.474v1.59c0 1.484-.617 2.9-1.695 3.89-.11.1-.167.25-.15.4v1.668l-1.59 1.977-.018.025-.014.02-.036.07-.004.012-.02.07-.005.023-.006.074v1.466c-.275.164-.46.47-.46.82v7.02c0 .33.164.622.41.792v.424h-2.64v-.6c0-.26-.206-.473-.46-.473h-.06v-1.6c0-.264-.205-.476-.46-.476h-.4v-1.157c0-.262-.205-.474-.458-.474-.254 0-.46.21-.46.474v1.16h-.642v-1.16c0-.262-.206-.474-.46-.474-.253 0-.458.21-.458.473v1.16h-.39c-.252 0-.458.21-.458.473v1.6h-.06c-.255 0-.46.212-.46.474v2.9H2.02c-.254 0-.46.21-.46.475v6.51h-.28c-.507 0-.918.423-.918.947s.41.95.918.95h29.207c.507 0 .918-.426.918-.95 0-.523-.41-.947-.918-.947zm-17.712-19.32h6.163v.853h-6.16v-.852zm5.703 4.378c-.25-.716-.762-1.303-1.42-1.63h1.422v1.63zm-.755.963c0 1.06-.837 1.926-1.865 1.926s-1.866-.868-1.866-1.93c0-1.06.837-1.925 1.865-1.925s1.863.864 1.863 1.925zm-4.488-.963v-1.63h1.423c-.66.327-1.176.913-1.424 1.63zm0 1.925c.234.676.705 1.235 1.31 1.57h-1.31v-1.57zm5.244 0v1.57h-1.31c.605-.336 1.077-.895 1.31-1.57zm-4.833 3.466h4.42v2.528h-4.42v-2.524zm0 3.476h4.42v2.947h-4.42v-2.946zm14.013 6.078H19.9v-1.03l.75-1.29c.866.45 1.83.693 2.83.693 1.016 0 1.977-.25 2.828-.696l1.35 2.325zm-3.785-8.365c-.083-.144-.233-.23-.394-.23s-.31.086-.39.23l-.877 1.51c-.308-.33-.498-.777-.498-1.268 0-1.005.792-1.823 1.767-1.823.976 0 1.77.817 1.77 1.823 0 .49-.19.94-.497 1.267l-.874-1.51zm.088 1.995c-.153.046-.315.072-.482.072-.164 0-.325-.026-.48-.07l.48-.832.485.83zm-.482 1.02c.344 0 .67-.067.968-.186l1.39 2.397c-.71.36-1.51.563-2.355.563-.828 0-1.63-.198-2.355-.563l1.39-2.4c.3.12.626.187.966.187zm0-8.318c2.966 0 5.376 2.488 5.376 5.547 0 1.847-.88 3.485-2.23 4.493l-1.39-2.397c.57-.51.932-1.26.932-2.1 0-1.527-1.204-2.77-2.685-2.77-1.48 0-2.684 1.244-2.684 2.77 0 .84.36 1.59.93 2.1l-1.392 2.4c-.15-.114-.297-.235-.436-.363v-5.72c.25-.17.41-.46.41-.792V97.51c.916-.69 2.015-1.067 3.17-1.067zm-9.01-9.632h2.774v.986H14.47v-.986zm1.386-2.365c.203.5.47.973.794 1.405h-1.59c.326-.43.592-.904.795-1.405zm-1.68 4.3h3.36l.885 1.1h-5.127l.883-1.1zm-5.013 13.03h2.646v8.335H9.16v-8.335zm-4.31-1.08h.06c.255 0 .46-.21.46-.47v-1.603h2.35v1.602c0 .26.206.47.46.47h.06v9.41h-.46v-8.79c0-.263-.205-.475-.458-.475-.254 0-.46.212-.46.474v8.793h-.642v-8.793c0-.262-.206-.474-.46-.474-.253 0-.458.212-.458.474v8.793h-.45v-9.41zm-2.376 3.375h1.46v6.036h-1.46v-6.034zm11.167 3.853h4.42v2.183h-4.42v-2.18z" fill="#fff"/><path d="M15.398 55.138v.995c0 .262.206.474.46.474h.75c.252 0 .46-.212.46-.474s-.207-.474-.46-.474h-.292v-.525c0-.262-.206-.474-.46-.474s-.458.213-.458.475zm5.705.4l.153-.028.475-.153c.25-.07.39-.33.327-.58-.066-.254-.318-.403-.563-.334-.18.05-.363.11-.54.174-.24.087-.364.358-.28.605.066.195.244.317.433.317zm8.255 3.21c.083.16.242.25.405.25.073 0 .147-.02.216-.057.22-.12.304-.41.184-.64-.088-.17-.184-.34-.285-.503-.136-.22-.42-.286-.634-.145-.214.14-.277.433-.14.654l.25.443zM24.2 55.152l.494.074.083.008c.217 0 .41-.16.45-.39.047-.256-.118-.503-.367-.55-.186-.036-.374-.064-.56-.085-.254-.03-.48.16-.507.42-.027.26.155.49.408.52zm5.9 6.045l.038.513c.01.256.214.455.46.455h.018c.253-.01.45-.23.44-.493-.01-.193-.024-.39-.045-.58v-.02c-.03-.26-.26-.44-.51-.408-.25.032-.43.273-.4.534zM27 56.15l.414.29c.082.06.177.09.27.09.142 0 .282-.067.372-.194.15-.21.105-.508-.1-.662-.152-.115-.31-.224-.47-.327-.214-.138-.497-.07-.63.152-.135.22-.07.51.146.65zm3.363 7.797c-.24-.086-.5.045-.585.292l-.18.475c-.1.24.006.52.24.623l.18.04c.18 0 .347-.108.423-.286.08-.178.148-.362.21-.545.083-.248-.044-.52-.283-.604zm-5.013 5.61l.12-.017c.182-.05.364-.11.542-.174.24-.088.364-.358.28-.605-.084-.243-.346-.372-.586-.285l-.475.153c-.24.068-.39.328-.32.58.055.212.24.35.443.35zm2.858-2.722l-.364.35c-.192.172-.212.472-.046.67.09.108.22.163.347.163.106 0 .214-.038.3-.116.143-.127.282-.26.415-.4.18-.185.178-.485-.002-.67-.18-.184-.47-.183-.65.003zm-5.447 1.99l-.49-.074c-.25-.043-.49.126-.534.38-.046.26.12.51.368.556.186.036.375.064.562.085l.05.003c.23 0 .43-.18.456-.422.028-.26-.154-.493-.406-.52zM2.79 52.493l-.01.132c0 .595.47 1.08 1.046 1.08h5.3c.254 0 .5-.096.69-.27.226-.206.355-.5.355-.81 0-.31-.13-.604-.353-.81-.19-.175-.437-.27-.69-.27H6.53c0-.272-.113-.53-.31-.71-.168-.154-.383-.238-.607-.238h-2.82c-.507 0-.92.425-.92.948 0 .52.41.945.915.948zm2.826-.948h-.002c-.253 0-.46.212-.46.474 0 .26.207.47.46.47h3.513l.083.032.044.1-.043.097-.082.033h-5.3c-.07 0-.127-.06-.127-.13 0-.074.057-.133.127-.133.254 0 .46-.21.46-.47 0-.265-.205-.476-.46-.476H2.793h2.822zM30.49 70.112h-1.76L27.1 67.3c1.616-1.176 2.675-3.117 2.675-5.31 0-3.58-2.822-6.495-6.292-6.495-1.13 0-2.216.307-3.167.88v-3.783c0-.35-.185-.656-.46-.82V50.31l-.007-.074-.01-.024-.02-.07-.004-.01-.038-.07-.014-.02-.02-.025-1.587-1.977v-1.668c.013-.15-.04-.3-.15-.4-1.08-.988-1.698-2.406-1.698-3.89v-1.59c0-.262-.207-.474-.46-.474s-.46.213-.46.474v1.59c0 1.484-.617 2.9-1.695 3.89-.11.1-.167.25-.15.4v1.668l-1.59 1.977-.018.025-.014.02-.036.07-.004.012-.02.07-.005.023-.006.074v1.466c-.275.164-.46.47-.46.82v7.02c0 .33.164.622.41.792v.424h-2.64v-.6c0-.26-.206-.473-.46-.473h-.06v-1.6c0-.264-.205-.476-.46-.476h-.4v-1.157c0-.262-.205-.474-.458-.474-.254 0-.46.21-.46.474v1.16h-.642v-1.16c0-.262-.206-.474-.46-.474-.253 0-.458.21-.458.473v1.16h-.39c-.252 0-.458.21-.458.473v1.6h-.06c-.255 0-.46.212-.46.474v2.9H2.02c-.254 0-.46.21-.46.475v6.51h-.28c-.507 0-.918.423-.918.947s.41.95.918.95h29.207c.507 0 .918-.426.918-.95 0-.523-.41-.947-.918-.947zm-17.712-19.32h6.163v.853h-6.16v-.852zm5.703 4.378c-.25-.716-.762-1.303-1.42-1.63h1.422v1.63zm-.755.963c0 1.06-.837 1.926-1.865 1.926s-1.866-.868-1.866-1.93c0-1.06.837-1.925 1.865-1.925s1.863.864 1.863 1.925zm-4.488-.963v-1.63h1.423c-.66.327-1.176.913-1.424 1.63zm0 1.925c.234.676.705 1.235 1.31 1.57h-1.31v-1.57zm5.244 0v1.57h-1.31c.605-.336 1.077-.895 1.31-1.57zm-4.833 3.466h4.42v2.528h-4.42V60.56zm0 3.476h4.42v2.947h-4.42v-2.946zm14.013 6.078H19.9v-1.03l.75-1.29c.866.45 1.83.693 2.83.693 1.016 0 1.977-.25 2.828-.696l1.35 2.325zm-3.785-8.365c-.083-.144-.233-.23-.394-.23s-.31.086-.39.23l-.877 1.51c-.308-.33-.498-.777-.498-1.268 0-1.005.792-1.823 1.767-1.823.976 0 1.77.817 1.77 1.823 0 .49-.19.94-.497 1.267l-.874-1.51zm.088 1.995c-.153.046-.315.072-.482.072-.164 0-.325-.026-.48-.07l.48-.832.485.83zm-.482 1.02c.344 0 .67-.067.968-.186l1.39 2.397c-.71.36-1.51.563-2.355.563-.828 0-1.63-.198-2.355-.563l1.39-2.4c.3.12.626.187.966.187zm0-8.318c2.966 0 5.376 2.488 5.376 5.547 0 1.847-.88 3.485-2.23 4.493l-1.39-2.397c.57-.51.932-1.26.932-2.1 0-1.527-1.204-2.77-2.685-2.77-1.48 0-2.684 1.244-2.684 2.77 0 .84.36 1.59.93 2.1l-1.392 2.4c-.15-.114-.297-.235-.436-.363v-5.72c.25-.17.41-.46.41-.792V57.51c.916-.69 2.015-1.067 3.17-1.067zm-9.01-9.632h2.774v.986H14.47v-.986zm1.386-2.365c.203.5.47.973.794 1.405h-1.59c.326-.43.592-.904.795-1.405zm-1.68 4.3h3.36l.885 1.1h-5.127l.883-1.1zM9.162 61.78h2.646v8.335H9.162V61.78zM4.854 60.7h.06c.255 0 .46-.21.46-.472v-1.602h2.35v1.602c0 .26.206.473.46.473h.06v9.41h-.46v-8.79c0-.26-.205-.473-.458-.473-.254 0-.46.212-.46.474v8.795h-.642V61.32c0-.263-.206-.475-.46-.475-.253 0-.458.212-.458.474v8.79h-.45V60.7zm-2.376 3.374h1.46v6.036h-1.46v-6.036zm11.167 3.853h4.42v2.183h-4.42v-2.183z" fill="#67737B"/><path d="M15.398 15.138v.995c0 .262.206.474.46.474h.75c.252 0 .46-.212.46-.474s-.207-.474-.46-.474h-.292v-.525c0-.262-.206-.474-.46-.474s-.458.213-.458.475zm5.705.4l.153-.028.475-.153c.25-.07.39-.33.327-.58-.066-.254-.318-.403-.563-.334-.18.05-.363.11-.54.174-.24.087-.364.358-.28.605.066.195.244.317.433.317zm8.255 3.21c.083.16.242.25.405.25.073 0 .147-.02.216-.057.22-.12.304-.41.184-.64-.088-.17-.184-.34-.285-.503-.136-.22-.42-.286-.634-.145-.214.14-.277.433-.14.654l.25.443zM24.2 15.152l.494.074.083.008c.217 0 .41-.16.45-.39.047-.256-.118-.503-.367-.55-.186-.036-.374-.064-.56-.085-.254-.03-.48.16-.507.42-.027.26.155.49.408.52zm5.9 6.045l.038.513c.01.256.214.455.46.455h.018c.253-.01.45-.23.44-.493-.01-.193-.024-.39-.045-.58v-.02c-.03-.26-.26-.44-.51-.408-.25.032-.43.273-.4.534zM27 16.15l.414.29c.082.06.177.09.27.09.142 0 .282-.067.372-.194.15-.21.105-.508-.1-.662-.152-.115-.31-.224-.47-.327-.214-.138-.497-.07-.63.152-.135.22-.07.51.146.65zm3.363 7.797c-.24-.086-.5.045-.585.292l-.18.475c-.1.24.006.52.24.623l.18.04c.18 0 .347-.108.423-.286.08-.178.148-.362.21-.545.083-.248-.044-.52-.283-.604zm-5.013 5.61l.12-.017c.182-.05.364-.11.542-.174.24-.088.364-.358.28-.605-.084-.243-.346-.372-.586-.285l-.475.153c-.24.068-.39.328-.32.58.055.212.24.35.443.35zm2.858-2.722l-.364.35c-.192.172-.212.472-.046.67.09.108.22.163.347.163.106 0 .214-.038.3-.116.143-.127.282-.26.415-.4.18-.185.178-.485-.002-.67-.18-.184-.47-.183-.65.003zm-5.447 1.99l-.49-.074c-.25-.043-.49.126-.534.38-.046.26.12.51.368.556.186.036.375.064.562.085l.05.003c.23 0 .43-.18.456-.422.028-.26-.154-.493-.406-.52zM2.79 12.493l-.01.132c0 .595.47 1.08 1.046 1.08h5.3c.254 0 .5-.096.69-.27.226-.206.355-.5.355-.81 0-.31-.13-.604-.353-.81-.19-.175-.437-.27-.69-.27H6.53c0-.272-.113-.53-.31-.71-.168-.154-.383-.238-.607-.238h-2.82c-.507 0-.92.425-.92.948 0 .52.41.945.915.948zm2.826-.948h-.002c-.253 0-.46.212-.46.474 0 .26.207.47.46.47h3.513l.083.032.044.1-.043.097-.082.033h-5.3c-.07 0-.127-.06-.127-.13 0-.074.057-.133.127-.133.254 0 .46-.21.46-.47 0-.265-.205-.476-.46-.476H2.793h2.822zM30.49 30.112h-1.76L27.1 27.3c1.616-1.176 2.675-3.117 2.675-5.31 0-3.58-2.822-6.495-6.292-6.495-1.13 0-2.216.307-3.167.88v-3.783c0-.35-.185-.656-.46-.82V10.31l-.007-.074-.01-.024-.02-.07-.004-.01-.038-.07-.014-.02-.02-.025L18.16 8.04V6.372c.014-.15-.04-.3-.15-.4-1.08-.988-1.697-2.406-1.697-3.89V.49c0-.262-.206-.474-.46-.474S15.4.23 15.4.492v1.59c0 1.484-.618 2.9-1.696 3.89-.11.1-.166.25-.15.4V8.04l-1.59 1.977-.017.025-.014.02-.036.07-.004.012-.02.07-.005.023-.007.074v1.466c-.272.164-.46.47-.46.82v7.02c0 .33.167.622.41.792v.424H9.167v-.6c0-.26-.206-.473-.46-.473h-.06v-1.6c0-.264-.205-.476-.46-.476h-.4v-1.157c0-.262-.205-.474-.458-.474-.254 0-.46.21-.46.474v1.16h-.642v-1.16c0-.262-.206-.474-.46-.474-.253 0-.458.21-.458.473v1.16h-.39c-.252 0-.458.21-.458.473v1.6H4.4c-.256 0-.46.212-.46.474v2.9H2.02c-.254 0-.46.21-.46.475v6.51h-.28c-.507 0-.918.423-.918.947s.41.95.918.95h29.207c.507 0 .918-.426.918-.95 0-.523-.41-.947-.918-.947zm-17.712-19.32h6.163v.853h-6.16v-.852zm5.703 4.378c-.25-.716-.762-1.303-1.42-1.63h1.422v1.63zm-.755.963c0 1.06-.837 1.926-1.865 1.926s-1.866-.868-1.866-1.93c0-1.06.837-1.925 1.865-1.925s1.863.864 1.863 1.925zm-4.488-.963v-1.63h1.423c-.66.327-1.176.913-1.424 1.63zm0 1.925c.234.676.705 1.235 1.31 1.57h-1.31v-1.57zm5.244 0v1.57h-1.31c.605-.336 1.077-.895 1.31-1.57zm-4.833 3.466h4.42v2.528h-4.42V20.56zm0 3.476h4.42v2.947h-4.42v-2.946zm14.013 6.078H19.9v-1.03l.75-1.29c.866.45 1.83.693 2.83.693 1.016 0 1.977-.25 2.828-.696l1.35 2.325zm-3.785-8.365c-.083-.144-.233-.23-.394-.23s-.31.086-.39.23l-.877 1.51c-.308-.33-.498-.777-.498-1.268 0-1.005.792-1.823 1.767-1.823.976 0 1.77.817 1.77 1.823 0 .49-.19.94-.497 1.267l-.874-1.51zm.088 1.995c-.153.046-.315.072-.482.072-.164 0-.325-.026-.48-.07l.48-.832.485.83zm-.482 1.02c.344 0 .67-.067.968-.186l1.39 2.397c-.71.36-1.51.563-2.355.563-.828 0-1.63-.198-2.355-.563l1.39-2.4c.3.12.626.187.966.187zm0-8.318c2.966 0 5.376 2.488 5.376 5.547 0 1.847-.88 3.485-2.23 4.493l-1.39-2.397c.57-.51.932-1.26.932-2.1 0-1.527-1.204-2.77-2.685-2.77-1.48 0-2.684 1.244-2.684 2.77 0 .84.36 1.59.93 2.1l-1.392 2.4c-.15-.114-.297-.235-.436-.363v-5.72c.25-.17.41-.46.41-.792V17.51c.916-.69 2.015-1.067 3.17-1.067zM14.47 6.81h2.776v.986H14.47V6.81zm1.388-2.365c.203.5.47.974.794 1.406h-1.59c.326-.43.592-.9.795-1.402zm-1.68 4.3h3.36l.885 1.1h-5.126l.883-1.1zm-5.013 13.03h2.646v8.336H9.16V21.78zM4.853 20.7h.06c.256 0 .46-.21.46-.472v-1.602h2.35v1.602c0 .26.207.473.46.473h.06v9.41h-.46v-8.79c0-.26-.204-.473-.457-.473-.254 0-.46.212-.46.474v8.795h-.642V21.32c0-.263-.206-.475-.46-.475-.253 0-.458.212-.458.474v8.79h-.45V20.7zM2.48 24.074h1.46v6.036H2.48v-6.036zm11.167 3.853h4.42v2.183h-4.42v-2.183z" fill="#3A434E"/></g></svg>