<svg width="32" height="232" viewBox="0 0 32 232" xmlns="http://www.w3.org/2000/svg"><title>salisbury-uk</title><desc>Created with Sketch.</desc><g fill="none"><path d="M31.053 122.07H29.89c-.085-.124-.225-.206-.385-.206h-1.51c-.16 0-.3.082-.386.207h-1.033c-.086-.124-.226-.206-.386-.206h-1.51c-.16 0-.3.082-.385.207h-1.032c-.086-.124-.226-.206-.386-.206h-1.51c-.16 0-.3.082-.386.207h-1.03c-.087-.124-.227-.206-.387-.206h-1.51c-.16 0-.3.082-.386.207h-3.84l-.027.002-.135-.023c-.845 0-1.6-.583-2.07-1.05-.23-.594-.584-1.004-1.076-1.004-.962 0-1.4 1.564-1.4 3.017 0 1.453.438 3.017 1.4 3.017.45 0 .787-.345 1.016-.86.464-.476 1.248-1.11 2.13-1.11l.136-.022h3.776v4.63c-1.22-.135-2.295-.886-2.865-2.027l-.005-.01-.022-.045c-.114-.236-.314-.414-.555-.496-.24-.083-.504-.06-.73.06l-11.486 6.166c-.225.12-.394.33-.47.58-.076.25-.052.522.066.754l.026.05.002.003c.84 1.68.35 3.77-1.138 4.86-.418.305-.527.9-.246 1.343 2.733 4.324 5.858 7.58 9.288 9.68 3.405 2.083 6.066 2.394 7.35 2.394.725 0 1.35-.1 1.813-.287l.173-.075.04-.023.04-.02.164-.106c1.355-.93 3.536-4.438 3.69-10.21l.753.68c.09.08.2.12.31.12.112 0 .223-.04.312-.12l5.725-5.15c.104-.093.164-.23.164-.372V124.04h1.073c.523 0 .95-.44.95-.985s-.426-.985-.95-.985zm-20.626-.93l.094-.136c.073.075.173.258.26.545.104.34.19.83.19 1.463 0 .717-.11 1.252-.233 1.595-.076.212-.156.35-.216.414l-.064-.087c-.162-.257-.384-.908-.384-1.922 0-.957.198-1.588.356-1.873zm1.466 2.494c.018-.206.027-.415.027-.62l-.02-.533c.298.187.63.345.99.445l-.01.13.01.13c-.363.1-.698.262-.998.45zm17.137.406v12.154l-5.25 4.722-3.083-2.773-.433-.39-1.734-1.56V122.85h.56v2.682c0 .272.213.492.475.492h1.803c.262 0 .475-.22.475-.492v-2.682h.56v2.682c0 .272.213.492.475.492h1.803c.263 0 .476-.22.476-.492v-2.682h.56v2.682c0 .272.213.492.475.492h1.804c.262 0 .475-.22.475-.492v-2.682h.56v1.192zm-9.817 19.915c-.54 2.98-1.607 4.327-1.89 4.64-.11.018-.282.034-.514.034-.703 0-2.185-.146-4.227-1.117-3.84-1.824-6.813-5.24-8.688-7.894 1.046-1.52 1.478-3.394 1.21-5.24l8.083-4.34c1.186 1.18 2.753 1.887 4.393 1.988v4.39c0 .143.06.278.165.372l1.62 1.457c.195 1.85.195 3.797-.15 5.707zm7.454-19.915h.854v.998h-.853v-.998zm-3.313 0h.854v.998h-.854v-.998zm-3.313 0h.855v.998h-.854v-.998zm.483 20.17c-.614 3.388-1.984 5.25-2.55 5.622l-.022.014-.022.01c-.086.037-.42.156-1.132.156-.877 0-3.255-.207-6.384-2.12-2.987-1.83-5.742-4.632-8.198-8.342 1.482-1.534 2.013-3.836 1.36-5.903l9.92-5.325c.964 1.355 2.45 2.207 4.088 2.326v.394c-1.5-.107-2.922-.8-3.955-1.942-.145-.16-.376-.202-.565-.1l-8.704 4.67c-.19.102-.29.32-.247.537.356 1.802-.073 3.66-1.176 5.1-.132.172-.138.414-.014.593 1.926 2.787 5.098 6.526 9.268 8.508 2.206 1.05 3.843 1.205 4.622 1.205.352 0 .668-.032.87-.09l.176-.094c.25-.215.67-.74 1.095-1.577.54-1.057.942-2.308 1.197-3.717.3-1.66.354-3.34.25-4.962l.407.367c.073 1.54 0 3.113-.282 4.67zm7.683 5.955c-.147-.023-.3.03-.405.138-.145.15-.18.382-.088.572l.087.125c.088.093.21.145.336.145.126 0 .247-.052.336-.144.145-.15.18-.378.09-.568-.07-.145-.204-.243-.356-.267zM7.69 126.96c.127 0 .248-.05.337-.143.09-.092.14-.218.14-.35 0-.13-.052-.255-.14-.348-.09-.092-.21-.144-.336-.144-.124 0-.245.052-.334.143-.09.092-.14.218-.14.35 0 .13.05.255.14.347.088.092.21.144.335.144zm-1.84-3.197c.127 0 .248-.052.337-.144.09-.093.14-.22.14-.35 0-.257-.19-.468-.433-.49-.14-.014-.28.04-.378.14-.09.093-.14.22-.14.35 0 .13.05.256.138.348.09.093.21.145.337.145zm22.86 17.146c-.14-.014-.28.038-.38.14-.09.092-.14.218-.14.35 0 .13.05.255.14.347.088.093.21.145.336.145.126 0 .247-.052.336-.144.09-.092.14-.218.14-.35 0-.256-.19-.467-.433-.49zm-2.017 4.5l-.395-.225-.216-.41c-.083-.157-.243-.255-.417-.255s-.333.098-.416.256l-.217.41-.395.223c-.152.085-.247.25-.247.43s.096.347.248.433l.395.224.216.41c.082.157.242.255.415.255s.333-.098.417-.256l.216-.41.395-.223c.152-.086.247-.252.247-.432s-.095-.345-.247-.43zM2.825 128.39l.395.223.216.41c.083.157.243.255.416.255.174 0 .333-.098.417-.256l.215-.41.395-.223c.152-.087.247-.253.247-.433s-.095-.346-.247-.432l-.395-.224-.216-.408c-.084-.158-.244-.256-.418-.256s-.333.098-.416.256l-.216.41-.395.223c-.152.086-.247.252-.247.432s.095.346.247.432zm13.578 15.46l-.915-1.553-2.022-4.05 2.073-1.113.893-.17c.172-.033.312-.16.366-.332.053-.172.01-.36-.11-.49l-.608-.664-.16-.875c-.033-.178-.157-.323-.324-.378-.167-.055-.35-.01-.474.118l-.65.66-2.074 1.11-.882-1.766-.164-.927c-.032-.178-.155-.323-.32-.38-.166-.054-.348-.012-.474.113l-.64.63-.843.167c-.172.034-.312.163-.364.336-.052.173-.01.362.113.492l.635.674.883 1.767-2.073 1.112-.894.17c-.17.033-.312.16-.366.332-.054.172-.012.36.108.49l.61.664.16.875c.032.178.156.323.323.378.168.056.35.01.475-.117l.65-.66 2.074-1.11 2.02 4.05.695 1.67.23 1.363c.032.182.16.33.33.385l.138.023c.126 0 .25-.052.34-.15l.8-.853 1.112-.172c.177-.028.324-.156.38-.332.056-.176.013-.37-.113-.502l-.94-.982zm-1.01 1.183l-.264.282-.08-.47-.033-.11-.723-1.74-.014-.03-2.248-4.505c-.084-.17-.25-.266-.422-.266-.074 0-.148.018-.218.055l-2.558 1.37-.113.086-.067.07-.02-.117c-.018-.094-.06-.18-.124-.25l-.1-.108.1-.02.13-.046 2.558-1.372c.233-.125.324-.422.204-.663l-1.133-2.27-.083-.117-.066-.07.113-.022c.09-.016.173-.06.24-.126l.104-.104.018.104.045.137 1.133 2.27c.058.117.158.204.278.244.12.04.25.028.363-.032l2.557-1.372.113-.085.068-.07.022.117c.017.093.06.18.123.248l.1.11-.1.018-.132.047-2.557 1.372c-.112.06-.196.164-.234.288-.038.124-.027.26.03.375l2.25 4.504.016.03.953 1.617.07.09.317.334-.344.053c-.103.016-.198.067-.27.144zm12.332-17.854h-7.888c-.262 0-.475.22-.475.49v7.502c0 .143.06.278.164.372l3.944 3.547c.09.08.2.12.31.12.112 0 .223-.04.312-.12l3.944-3.546c.104-.094.164-.23.164-.372v-7.5c0-.273-.213-.493-.475-.493zm-.475 7.768l-3.47 3.12-3.468-3.12v-6.784h6.94v6.784z" fill="#206FAC"/><path d="M31.053 82.07H29.89c-.085-.124-.225-.206-.385-.206h-1.51c-.16 0-.3.082-.386.207h-1.033c-.086-.124-.226-.206-.386-.206h-1.51c-.16 0-.3.082-.385.207h-1.032c-.086-.124-.226-.206-.386-.206h-1.51c-.16 0-.3.082-.386.207h-1.03c-.087-.124-.227-.206-.387-.206h-1.51c-.16 0-.3.082-.386.207h-3.84l-.027.002-.135-.023c-.845 0-1.6-.583-2.07-1.05-.23-.594-.584-1.004-1.076-1.004-.962 0-1.4 1.564-1.4 3.017 0 1.453.438 3.017 1.4 3.017.45 0 .787-.345 1.016-.86.464-.476 1.248-1.11 2.13-1.11l.136-.022h3.776v4.63c-1.22-.135-2.295-.886-2.865-2.027l-.005-.01-.022-.045c-.114-.236-.314-.414-.555-.496-.24-.083-.504-.06-.73.06L1.914 92.317c-.225.12-.394.33-.47.58-.076.25-.052.522.066.754l.026.05.002.003c.84 1.68.35 3.77-1.138 4.86-.418.305-.527.9-.246 1.343 2.733 4.324 5.858 7.58 9.288 9.68 3.405 2.083 6.066 2.394 7.35 2.394.725 0 1.35-.1 1.813-.287l.173-.075.04-.023.04-.02.164-.106c1.355-.93 3.536-4.438 3.69-10.21l.753.68c.09.08.2.12.31.12.112 0 .223-.04.312-.12l5.725-5.15c.104-.093.164-.23.164-.372V84.04h1.073c.523 0 .95-.44.95-.985s-.426-.985-.95-.985zm-20.626-.93l.094-.136c.073.075.173.258.26.545.104.34.19.83.19 1.463 0 .717-.11 1.252-.233 1.595-.076.212-.156.35-.216.414l-.064-.087c-.162-.257-.384-.908-.384-1.922 0-.957.198-1.588.356-1.873zm1.466 2.494c.018-.206.027-.415.027-.62l-.02-.533c.298.187.63.345.99.445l-.01.13.01.13c-.363.1-.698.262-.998.45zm17.137.406v12.154l-5.25 4.722-3.083-2.773-.433-.39-1.734-1.56V82.85h.56v2.682c0 .272.213.492.475.492h1.803c.262 0 .475-.22.475-.492v-2.682h.56v2.682c0 .272.213.492.475.492h1.803c.263 0 .476-.22.476-.492v-2.682h.56v2.682c0 .272.213.492.475.492h1.804c.262 0 .475-.22.475-.492v-2.682h.56v1.192zm-9.817 19.915c-.54 2.98-1.607 4.327-1.89 4.64-.11.018-.282.034-.514.034-.703 0-2.185-.146-4.227-1.117-3.84-1.824-6.813-5.24-8.688-7.894 1.046-1.52 1.478-3.394 1.21-5.24l8.083-4.34c1.186 1.18 2.753 1.887 4.393 1.988v4.39c0 .143.06.278.165.372l1.62 1.457c.195 1.85.195 3.797-.15 5.707zm7.454-19.915h.854v.998h-.853v-.998zm-3.313 0h.854v.998h-.854v-.998zm-3.313 0h.855v.998h-.854v-.998zm.483 20.17c-.614 3.388-1.984 5.25-2.55 5.622l-.022.014-.022.01c-.086.037-.42.156-1.132.156-.877 0-3.255-.207-6.384-2.12-2.987-1.83-5.742-4.632-8.198-8.342 1.482-1.534 2.013-3.836 1.36-5.903l9.92-5.325c.964 1.355 2.45 2.207 4.088 2.326v.394c-1.5-.107-2.922-.8-3.955-1.942-.145-.16-.376-.202-.565-.1l-8.704 4.67c-.19.102-.29.32-.247.537.356 1.802-.073 3.66-1.176 5.1-.132.172-.138.414-.014.593 1.926 2.787 5.098 6.526 9.268 8.508 2.206 1.05 3.843 1.205 4.622 1.205.352 0 .668-.032.87-.09l.176-.094c.25-.215.67-.74 1.095-1.577.54-1.057.942-2.308 1.197-3.717.3-1.66.354-3.34.25-4.962l.407.367c.073 1.54 0 3.113-.282 4.67zm7.683 5.955c-.147-.023-.3.03-.405.138-.145.15-.18.382-.088.572l.087.125c.088.093.21.145.336.145.126 0 .247-.052.336-.144.145-.15.18-.378.09-.568-.07-.145-.204-.243-.356-.267zM7.69 86.96c.127 0 .248-.05.337-.143.09-.092.14-.218.14-.35 0-.13-.052-.255-.14-.348-.09-.092-.21-.144-.336-.144-.124 0-.245.052-.334.143-.09.092-.14.218-.14.35 0 .13.05.255.14.347.088.092.21.144.335.144zm-1.84-3.197c.127 0 .248-.052.337-.144.09-.093.14-.22.14-.35 0-.257-.19-.468-.433-.49-.14-.014-.28.04-.378.14-.09.093-.14.22-.14.35 0 .13.05.256.138.348.09.093.21.145.337.145zm22.86 17.146c-.14-.014-.28.038-.38.14-.09.092-.14.218-.14.35 0 .13.05.255.14.347.088.093.21.145.336.145.126 0 .247-.052.336-.144.09-.092.14-.218.14-.35 0-.256-.19-.467-.433-.49zm-2.017 4.5l-.395-.225-.216-.41c-.083-.157-.243-.255-.417-.255s-.333.098-.416.256l-.217.41-.395.223c-.152.085-.247.25-.247.43s.096.347.248.433l.395.224.216.41c.082.157.242.255.415.255s.333-.098.417-.256l.216-.41.395-.223c.152-.086.247-.252.247-.432s-.095-.345-.247-.43zM2.825 88.39l.395.223.216.41c.083.157.243.255.416.255.174 0 .333-.098.417-.256l.215-.41.395-.223c.152-.087.247-.253.247-.433s-.095-.346-.247-.432l-.395-.224-.216-.408c-.084-.158-.244-.256-.418-.256s-.333.098-.416.256l-.216.41-.395.223c-.152.086-.247.252-.247.432s.095.346.247.432zm13.578 15.46l-.915-1.553-2.022-4.05 2.073-1.113.893-.17c.172-.033.312-.16.366-.332.053-.172.01-.36-.11-.49l-.608-.664-.16-.875c-.033-.178-.157-.323-.324-.378-.167-.055-.35-.01-.474.118l-.65.66-2.074 1.11-.882-1.766-.164-.927c-.032-.178-.155-.323-.32-.38-.166-.054-.348-.012-.474.113l-.64.63-.843.167c-.172.034-.312.163-.364.336-.052.173-.01.362.113.492l.635.674.883 1.767L8.27 98.33l-.894.17c-.17.033-.312.16-.366.332-.054.172-.012.36.108.49l.61.664.16.875c.032.178.156.323.323.378.168.056.35.01.475-.117l.65-.66 2.074-1.11 2.02 4.05.695 1.67.23 1.363c.032.182.16.33.33.385l.138.023c.126 0 .25-.052.34-.15l.8-.853 1.112-.172c.177-.028.324-.156.38-.332.056-.176.013-.37-.113-.502l-.94-.982zm-1.01 1.183l-.264.282-.08-.47-.033-.11-.723-1.74-.014-.03-2.248-4.505c-.084-.17-.25-.266-.422-.266-.074 0-.148.018-.218.055l-2.558 1.37-.113.086-.067.07-.02-.117c-.018-.094-.06-.18-.124-.25l-.1-.108.1-.02.13-.046 2.558-1.372c.233-.125.324-.422.204-.663l-1.133-2.27-.083-.117-.066-.07.113-.022c.09-.016.173-.06.24-.126l.104-.104.018.104.045.137L11.773 97c.058.117.158.204.278.244.12.04.25.028.363-.032l2.557-1.372.113-.085.068-.07.022.117c.017.093.06.18.123.248l.1.11-.1.018-.132.047-2.557 1.372c-.112.06-.196.164-.234.288-.038.124-.027.26.03.375l2.25 4.504.016.03.953 1.617.07.09.317.334-.344.053c-.103.016-.198.067-.27.144zM27.725 87.18h-7.888c-.262 0-.475.22-.475.49v7.502c0 .143.06.278.164.372l3.944 3.547c.09.08.2.12.31.12.112 0 .223-.04.312-.12l3.944-3.546c.104-.094.164-.23.164-.372v-7.5c0-.273-.213-.493-.475-.493zm-.475 7.768l-3.47 3.12-3.468-3.12v-6.784h6.94v6.784z" fill="#fff"/><path d="M31.053 42.07H29.89c-.085-.124-.225-.206-.385-.206h-1.51c-.16 0-.3.082-.386.207h-1.033c-.086-.124-.226-.206-.386-.206h-1.51c-.16 0-.3.082-.385.207h-1.032c-.086-.124-.226-.206-.386-.206h-1.51c-.16 0-.3.082-.386.207h-1.03c-.087-.124-.227-.206-.387-.206h-1.51c-.16 0-.3.082-.386.207h-3.84l-.027.002-.135-.023c-.845 0-1.6-.583-2.07-1.05-.23-.594-.584-1.004-1.076-1.004-.962 0-1.4 1.564-1.4 3.017 0 1.453.438 3.017 1.4 3.017.45 0 .787-.345 1.016-.86.464-.476 1.248-1.11 2.13-1.11l.136-.022h3.776v4.63c-1.22-.135-2.295-.886-2.865-2.027l-.005-.01-.022-.045c-.114-.236-.314-.414-.555-.496-.24-.083-.504-.06-.73.06L1.914 52.317c-.225.12-.394.33-.47.58-.076.25-.052.522.066.754l.026.05.002.003c.84 1.68.35 3.77-1.138 4.86-.418.305-.527.9-.246 1.343 2.733 4.324 5.858 7.58 9.288 9.68 3.405 2.083 6.066 2.394 7.35 2.394.725 0 1.35-.1 1.813-.287l.173-.075.04-.023.04-.02.164-.106c1.355-.93 3.536-4.438 3.69-10.21l.753.68c.09.08.2.12.31.12.112 0 .223-.04.312-.12l5.725-5.15c.104-.093.164-.23.164-.372V44.04h1.073c.523 0 .95-.44.95-.985s-.426-.985-.95-.985zm-20.626-.93l.094-.136c.073.075.173.258.26.545.104.34.19.83.19 1.463 0 .717-.11 1.252-.233 1.595-.076.212-.156.35-.216.414l-.064-.087c-.162-.257-.384-.908-.384-1.922 0-.957.198-1.588.356-1.873zm1.466 2.494c.018-.206.027-.415.027-.62l-.02-.533c.298.187.63.345.99.445l-.01.13.01.13c-.363.1-.698.262-.998.45zm17.137.406v12.154l-5.25 4.722-3.083-2.773-.433-.39-1.734-1.56V42.85h.56v2.682c0 .272.213.492.475.492h1.803c.262 0 .475-.22.475-.492v-2.682h.56v2.682c0 .272.213.492.475.492h1.803c.263 0 .476-.22.476-.492v-2.682h.56v2.682c0 .272.213.492.475.492h1.804c.262 0 .475-.22.475-.492v-2.682h.56v1.192zm-9.817 19.915c-.54 2.98-1.607 4.327-1.89 4.64-.11.018-.282.034-.514.034-.703 0-2.185-.146-4.227-1.117-3.84-1.824-6.813-5.24-8.688-7.894 1.046-1.52 1.478-3.394 1.21-5.24l8.083-4.34c1.186 1.18 2.753 1.887 4.393 1.988v4.39c0 .143.06.278.165.372l1.62 1.457c.195 1.85.195 3.797-.15 5.707zm7.454-19.915h.854v.998h-.853v-.998zm-3.313 0h.854v.998h-.854v-.998zm-3.313 0h.855v.998h-.854v-.998zm.483 20.17c-.614 3.388-1.984 5.25-2.55 5.622l-.022.014-.022.01c-.086.037-.42.156-1.132.156-.877 0-3.255-.207-6.384-2.12-2.987-1.83-5.742-4.632-8.198-8.342 1.482-1.534 2.013-3.836 1.36-5.903l9.92-5.325c.964 1.355 2.45 2.207 4.088 2.326v.394c-1.5-.107-2.922-.8-3.955-1.942-.145-.16-.376-.202-.565-.1l-8.704 4.67c-.19.102-.29.32-.247.537.356 1.802-.073 3.66-1.176 5.1-.132.172-.138.414-.014.593 1.926 2.787 5.098 6.526 9.268 8.508 2.206 1.05 3.843 1.205 4.622 1.205.352 0 .668-.032.87-.09l.176-.094c.25-.215.67-.74 1.095-1.577.54-1.057.942-2.308 1.197-3.717.3-1.66.354-3.34.25-4.962l.407.367c.073 1.54 0 3.113-.282 4.67zm7.683 5.955c-.147-.023-.3.03-.405.138-.145.15-.18.382-.088.572L27.8 71c.088.093.21.145.336.145.126 0 .247-.052.336-.144.145-.15.18-.378.09-.568-.07-.145-.204-.243-.356-.267zM7.69 46.96c.127 0 .248-.05.337-.143.09-.092.14-.218.14-.35 0-.13-.052-.255-.14-.348-.09-.092-.21-.144-.336-.144-.124 0-.245.052-.334.143-.09.092-.14.218-.14.35 0 .13.05.255.14.347.088.092.21.144.335.144zm-1.84-3.197c.127 0 .248-.052.337-.144.09-.093.14-.22.14-.35 0-.257-.19-.468-.433-.49-.14-.014-.28.04-.378.14-.09.093-.14.22-.14.35 0 .13.05.256.138.348.09.093.21.145.337.145zM28.71 60.91c-.14-.014-.28.038-.38.14-.09.092-.14.218-.14.35 0 .13.05.255.14.347.088.093.21.145.336.145.126 0 .247-.052.336-.144.09-.092.14-.218.14-.35 0-.256-.19-.467-.433-.49zm-2.017 4.5l-.395-.225-.216-.41c-.083-.157-.243-.255-.417-.255s-.333.098-.416.256l-.217.41-.395.223c-.152.085-.247.25-.247.43s.096.347.248.433l.395.224.216.41c.082.157.242.255.415.255s.333-.098.417-.256l.216-.41.395-.223c.152-.086.247-.252.247-.432s-.095-.345-.247-.43zM2.825 48.39l.395.223.216.41c.083.157.243.255.416.255.174 0 .333-.098.417-.256l.215-.41.395-.223c.152-.087.247-.253.247-.433s-.095-.346-.247-.432l-.395-.224-.216-.408c-.084-.158-.244-.256-.418-.256s-.333.098-.416.256l-.216.41-.395.223c-.152.086-.247.252-.247.432s.095.346.247.432zm13.578 15.46l-.915-1.553-2.022-4.05 2.073-1.113.893-.17c.172-.033.312-.16.366-.332.053-.172.01-.36-.11-.49l-.608-.664-.16-.875c-.033-.178-.157-.323-.324-.378-.167-.055-.35-.01-.474.118l-.65.66-2.074 1.11-.882-1.766-.164-.927c-.032-.178-.155-.323-.32-.38-.166-.054-.348-.012-.474.113l-.64.63-.843.167c-.172.034-.312.163-.364.336-.052.173-.01.362.113.492l.635.674.883 1.767L8.27 58.33l-.894.17c-.17.033-.312.16-.366.332-.054.172-.012.36.108.49l.61.664.16.875c.032.178.156.323.323.378.168.056.35.01.475-.117l.65-.66 2.074-1.11 2.02 4.05.695 1.67.23 1.363c.032.182.16.33.33.385l.138.023c.126 0 .25-.052.34-.15l.8-.853 1.112-.172c.177-.028.324-.156.38-.332.056-.176.013-.37-.113-.502l-.94-.982zm-1.01 1.183l-.264.282-.08-.47-.033-.11-.723-1.74-.014-.03-2.248-4.505c-.084-.17-.25-.266-.422-.266-.074 0-.148.018-.218.055l-2.558 1.37-.113.086-.067.07-.02-.117c-.018-.094-.06-.18-.124-.25l-.1-.108.1-.02.13-.046 2.558-1.372c.233-.125.324-.422.204-.663l-1.133-2.27-.083-.117-.066-.07.113-.022c.09-.016.173-.06.24-.126l.104-.104.018.104.045.137L11.773 57c.058.117.158.204.278.244.12.04.25.028.363-.032l2.557-1.372.113-.085.068-.07.022.117c.017.093.06.18.123.248l.1.11-.1.018-.132.047-2.557 1.372c-.112.06-.196.164-.234.288-.038.124-.027.26.03.375l2.25 4.504.016.03.953 1.617.07.09.317.334-.344.053c-.103.016-.198.067-.27.144zM27.725 47.18h-7.888c-.262 0-.475.22-.475.49v7.502c0 .143.06.278.164.372l3.944 3.547c.09.08.2.12.31.12.112 0 .223-.04.312-.12l3.944-3.546c.104-.094.164-.23.164-.372v-7.5c0-.273-.213-.493-.475-.493zm-.475 7.768l-3.47 3.12-3.468-3.12v-6.784h6.94v6.784z" fill="#67737B"/><path d="M31.053 2.07H29.89c-.085-.124-.225-.206-.385-.206h-1.51c-.16 0-.3.082-.386.207h-1.033c-.086-.124-.226-.206-.386-.206h-1.51c-.16 0-.3.082-.385.207h-1.032c-.086-.124-.226-.206-.386-.206h-1.51c-.16 0-.3.082-.386.207h-1.03c-.087-.124-.227-.206-.387-.206h-1.51c-.16 0-.3.082-.386.207h-3.84l-.027.002-.135-.023c-.845 0-1.6-.583-2.07-1.05-.23-.594-.584-1.004-1.076-1.004-.962 0-1.4 1.564-1.4 3.017 0 1.453.438 3.017 1.4 3.017.45 0 .787-.345 1.016-.86.464-.476 1.248-1.11 2.13-1.11l.136-.022h3.776v4.63c-1.22-.135-2.295-.886-2.865-2.027l-.005-.01-.022-.045c-.114-.236-.314-.414-.555-.496-.24-.083-.504-.06-.73.06L1.914 12.317c-.225.12-.394.33-.47.58-.076.25-.052.522.066.754l.026.05.002.003c.84 1.68.35 3.77-1.138 4.86-.418.305-.527.9-.246 1.343 2.733 4.324 5.858 7.58 9.288 9.68 3.405 2.083 6.066 2.394 7.35 2.394.725 0 1.35-.1 1.813-.287l.173-.075.04-.023.04-.02.164-.106c1.355-.93 3.536-4.438 3.69-10.21l.753.68c.09.08.2.12.31.12.112 0 .223-.04.312-.12l5.725-5.15c.104-.093.164-.23.164-.372V4.04h1.073c.523 0 .95-.44.95-.985s-.426-.985-.95-.985zm-20.626-.93l.094-.136c.073.075.173.258.26.545.104.34.19.83.19 1.463 0 .717-.11 1.252-.233 1.595-.076.212-.156.35-.216.414l-.064-.087c-.162-.257-.384-.908-.384-1.922 0-.957.198-1.588.356-1.873zm1.466 2.494c.018-.206.027-.415.027-.62l-.02-.533c.298.187.63.345.99.445l-.01.13.01.13c-.363.1-.698.262-.998.45zm17.137.406v12.154l-5.25 4.722-3.083-2.773-.433-.39-1.734-1.56V2.85h.56V5.53c0 .272.213.492.475.492h1.803c.262 0 .475-.22.475-.492V2.848h.56V5.53c0 .272.213.492.475.492h1.803c.263 0 .476-.22.476-.492V2.848h.56V5.53c0 .272.213.492.475.492h1.804c.262 0 .475-.22.475-.492V2.848h.56V4.04zm-9.817 19.915c-.54 2.98-1.607 4.327-1.89 4.64-.11.018-.282.034-.514.034-.703 0-2.185-.146-4.227-1.117-3.84-1.824-6.813-5.24-8.688-7.894 1.046-1.52 1.478-3.394 1.21-5.24l8.083-4.34c1.186 1.18 2.753 1.887 4.393 1.988v4.39c0 .143.06.278.165.372l1.62 1.457c.195 1.85.195 3.797-.15 5.707zM26.667 4.04h.854v.998h-.853V4.04zm-3.313 0h.854v.998h-.854V4.04zm-3.313 0h.855v.998h-.854V4.04zm.483 20.17c-.614 3.388-1.984 5.25-2.55 5.622l-.022.014-.022.01c-.086.037-.42.156-1.132.156-.877 0-3.255-.207-6.384-2.12-2.987-1.83-5.742-4.632-8.198-8.342 1.482-1.534 2.013-3.836 1.36-5.903l9.92-5.325c.964 1.355 2.45 2.207 4.088 2.326v.394c-1.5-.107-2.922-.8-3.955-1.942-.145-.16-.376-.202-.565-.1l-8.704 4.67c-.19.102-.29.32-.247.537.356 1.802-.073 3.66-1.176 5.1-.132.172-.138.414-.014.593 1.926 2.787 5.098 6.526 9.268 8.508 2.206 1.05 3.843 1.205 4.622 1.205.352 0 .668-.032.87-.09l.176-.094c.25-.215.67-.74 1.095-1.577.54-1.057.942-2.308 1.197-3.717.3-1.66.354-3.34.25-4.962l.407.367c.073 1.54 0 3.113-.282 4.67zm7.683 5.955c-.147-.023-.3.03-.405.138-.145.15-.18.382-.088.572L27.8 31c.088.093.21.145.336.145.126 0 .247-.052.336-.144.145-.15.18-.378.09-.568-.07-.145-.204-.243-.356-.267zM7.69 6.96c.127 0 .248-.05.337-.143.09-.092.14-.218.14-.35 0-.13-.052-.255-.14-.348-.09-.092-.21-.144-.336-.144-.124 0-.245.052-.334.143-.09.092-.14.218-.14.35 0 .13.05.255.14.347.088.092.21.144.335.144zM5.85 3.764c.127 0 .248-.052.337-.144.09-.093.14-.22.14-.35 0-.257-.19-.468-.433-.49-.14-.014-.28.04-.378.14-.09.093-.14.22-.14.35 0 .13.05.256.138.348.09.093.21.145.337.145zM28.71 20.91c-.14-.014-.28.038-.38.14-.09.092-.14.218-.14.35 0 .13.05.255.14.347.088.093.21.145.336.145.126 0 .247-.052.336-.144.09-.092.14-.218.14-.35 0-.256-.19-.467-.433-.49zm-2.017 4.5l-.395-.225-.216-.41c-.083-.157-.243-.255-.417-.255s-.333.098-.416.256l-.217.41-.395.223c-.152.085-.247.25-.247.43s.096.347.248.433l.395.224.216.41c.082.157.242.255.415.255s.333-.098.417-.256l.216-.41.395-.223c.152-.086.247-.252.247-.432s-.095-.345-.247-.43zM2.825 8.39l.395.223.216.41c.083.157.243.255.416.255.174 0 .333-.098.417-.256l.215-.41.395-.223c.152-.087.247-.253.247-.433s-.095-.346-.247-.432L4.485 7.3l-.216-.408c-.084-.158-.244-.256-.418-.256s-.333.098-.416.256l-.216.41-.395.223c-.152.086-.247.252-.247.432s.095.346.247.432zm13.578 15.46l-.915-1.553-2.022-4.05 2.073-1.113.893-.17c.172-.033.312-.16.366-.332.053-.172.01-.36-.11-.49l-.608-.664-.16-.875c-.033-.178-.157-.323-.324-.378-.167-.055-.35-.01-.474.118l-.65.66-2.074 1.11-.882-1.766-.164-.927c-.032-.178-.155-.323-.32-.38-.166-.054-.348-.012-.474.113l-.64.63-.843.167c-.172.034-.312.163-.364.336-.052.173-.01.362.113.492l.635.674.883 1.767L8.27 18.33l-.894.17c-.17.033-.312.16-.366.332-.054.172-.012.36.108.49l.61.664.16.875c.032.178.156.323.323.378.168.056.35.01.475-.117l.65-.66 2.074-1.11 2.02 4.05.695 1.67.23 1.363c.032.182.16.33.33.385l.138.023c.126 0 .25-.052.34-.15l.8-.853 1.112-.172c.177-.028.324-.156.38-.332.056-.176.013-.37-.113-.502l-.94-.982zm-1.01 1.183l-.264.282-.08-.47-.033-.11-.723-1.74-.014-.03-2.248-4.505c-.084-.17-.25-.266-.422-.266-.074 0-.148.018-.218.055l-2.558 1.37-.113.086-.067.07-.02-.117c-.018-.094-.06-.18-.124-.25l-.1-.108.1-.02.13-.046 2.558-1.372c.233-.125.324-.422.204-.663l-1.133-2.27-.083-.117-.066-.07.113-.022c.09-.016.173-.06.24-.126l.104-.104.018.104.045.137L11.773 17c.058.117.158.204.278.244.12.04.25.028.363-.032l2.557-1.372.113-.085.068-.07.022.117c.017.093.06.18.123.248l.1.11-.1.018-.132.047-2.557 1.372c-.112.06-.196.164-.234.288-.038.124-.027.26.03.375l2.25 4.504.016.03.953 1.617.07.09.317.334-.344.053c-.103.016-.198.067-.27.144zM27.725 7.18h-7.888c-.262 0-.475.22-.475.49v7.502c0 .143.06.278.164.372l3.944 3.547c.09.08.2.12.31.12.112 0 .223-.04.312-.12l3.944-3.546c.104-.094.164-.23.164-.372v-7.5c0-.273-.213-.493-.475-.493zm-.475 7.768l-3.47 3.12-3.468-3.12V8.164h6.94v6.784z" fill="#3A434E"/></g></svg>