<svg width="32" height="232" viewBox="0 0 32 232" xmlns="http://www.w3.org/2000/svg" xmlns:sketch="http://www.bohemiancoding.com/sketch/ns"><title>london</title><desc>Created with Sketch.</desc><g sketch:type="MSPage" fill="none"><g sketch:type="MSShapeGroup"><path d="M15.398 135.138v.995c0 .262.206.474.459.474h.75c.253 0 .46-.212.46-.474s-.206-.474-.46-.474h-.291v-.521c0-.262-.206-.474-.459-.474s-.459.212-.459.474zm5.705.399l.153-.027.475-.153c.245-.069.39-.329.323-.581-.066-.253-.318-.402-.563-.333-.182.051-.364.11-.541.174-.239.087-.364.358-.28.605.066.195.244.317.433.317zm8.255 3.21c.083.16.242.25.405.25.073 0 .147-.018.216-.056.224-.124.308-.411.188-.642-.088-.171-.184-.341-.285-.505-.136-.221-.419-.286-.634-.145-.214.14-.277.433-.141.654l.251.443zm-5.157-3.594l.493.074.083.008c.217 0 .41-.16.451-.389.046-.257-.119-.504-.368-.552-.186-.035-.374-.063-.561-.084-.253-.028-.479.16-.506.42-.027.261.155.494.408.522zm5.898 6.045l.039.513c.01.255.214.454.459.454h.019c.253-.011.45-.231.439-.493-.008-.193-.023-.39-.044-.581l-.002-.019c-.031-.26-.26-.44-.511-.408-.252.032-.43.273-.4.534zm-3.098-5.047l.413.288c.082.061.177.091.271.091.141 0 .281-.067.371-.194.15-.211.105-.508-.1-.662-.152-.115-.31-.224-.469-.327-.215-.138-.498-.07-.632.152-.134.223-.069.514.147.653zm3.362 7.796c-.239-.086-.501.045-.585.292l-.18.479c-.101.24.006.519.239.623l.182.039c.178 0 .346-.107.422-.285.075-.178.144-.362.206-.545.083-.247-.044-.518-.283-.603zm-5.013 5.609l.12-.016c.182-.051.364-.109.542-.174.239-.088.364-.358.28-.605-.084-.247-.346-.376-.586-.289l-.475.153c-.245.068-.39.328-.324.581.055.211.241.35.443.35zm2.858-2.721l-.364.351c-.192.171-.212.471-.046.669.091.108.219.163.347.163.106 0 .214-.038.301-.116.142-.127.281-.261.414-.399.179-.186.178-.486-.002-.671-.18-.184-.471-.183-.649.003zm-5.447 1.99l-.493-.074c-.249-.047-.489.122-.535.38-.046.257.119.505.368.552.185.036.374.064.561.085l.05.003c.231 0 .43-.18.456-.423.027-.26-.155-.494-.407-.522zm-19.973-16.332l-.009.132c0 .595.469 1.079 1.045 1.079h5.3c.254 0 .5-.095.69-.27.226-.205.355-.5.355-.809 0-.309-.13-.604-.355-.81-.191-.175-.437-.27-.69-.27h-2.593c0-.272-.114-.531-.311-.711-.168-.153-.383-.237-.607-.237h-2.821c-.506 0-.918.425-.918.948 0 .521.41.945.914.948zm2.826-.948h-.002c-.253 0-.459.212-.459.474 0 .261.206.473.459.473h3.513l.083.033.044.099-.043.098-.084.033h-5.3c-.07 0-.127-.059-.127-.131 0-.073.057-.132.127-.132.254 0 .459-.212.459-.473h.002c0-.263-.206-.474-.46-.474l-1.034-.001 2.822.001zm24.874 18.567h-1.758l-1.631-2.812c1.617-1.176 2.676-3.117 2.676-5.31 0-3.581-2.822-6.495-6.292-6.495-1.131 0-2.216.307-3.167.881v-3.784c0-.351-.185-.656-.459-.82v-1.454l-.001-.008-.007-.074-.005-.024-.021-.069-.004-.01-.037-.071-.013-.02-.018-.025-1.588-1.977v-1.668c.014-.149-.04-.299-.151-.401-1.078-.987-1.696-2.405-1.696-3.89v-1.589c0-.262-.206-.474-.459-.474s-.459.213-.459.474v1.589c0 1.485-.618 2.902-1.696 3.89-.111.102-.166.252-.151.4v1.669l-1.588 1.977-.018.025-.014.02-.037.071-.004.011-.02.069-.005.024-.007.074v1.462c-.275.164-.46.469-.46.82v7.021c0 .33.164.621.411.791v.424h-2.646v-.599c0-.262-.206-.474-.459-.474h-.06v-1.601c0-.262-.206-.474-.46-.474h-.4v-1.159c0-.262-.206-.474-.459-.474-.254 0-.459.212-.459.474v1.159h-.643v-1.159c0-.262-.206-.474-.459-.474-.254 0-.459.212-.459.474v1.159h-.389c-.253 0-.459.212-.459.474v1.601h-.061c-.254 0-.459.212-.459.474v2.899h-1.917c-.254 0-.459.212-.459.474v6.51h-.281c-.507 0-.918.424-.918.948 0 .523.411.948.918.948h29.207c.507 0 .918-.425.918-.948 0-.524-.411-.948-.918-.948zm-17.712-19.319h6.163v.852h-6.163v-.852zm5.703 4.377c-.248-.716-.764-1.303-1.423-1.629h1.423v1.629zm-.757.963c0 1.061-.837 1.926-1.865 1.926s-1.865-.864-1.865-1.926c0-1.061.837-1.925 1.865-1.925s1.865.864 1.865 1.925zm-4.488-.963v-1.629h1.423c-.659.326-1.175.912-1.423 1.629zm0 1.925c.234.676.705 1.235 1.31 1.571h-1.31v-1.571zm5.244 0v1.57h-1.31c.605-.336 1.077-.895 1.31-1.57zm-4.833 3.466h4.421v2.524h-4.421v-2.524zm0 3.472h4.421v2.947h-4.421v-2.947zm14.013 6.078h-7.756v-1.03l.75-1.292c.866.451 1.831.694 2.829.694 1.017 0 1.978-.251 2.829-.696l1.348 2.325zm-3.783-8.366c-.083-.143-.233-.231-.394-.231s-.311.088-.394.231l-.875 1.509c-.308-.328-.498-.775-.498-1.266 0-1.006.792-1.824 1.767-1.824.974 0 1.767.818 1.767 1.824 0 .491-.19.938-.497 1.266l-.875-1.509zm.088 1.996c-.153.045-.315.071-.482.071-.167 0-.328-.026-.481-.071l.481-.831.482.831zm-.482 1.019c.341 0 .666-.067.965-.186l1.391 2.398c-.712.36-1.511.563-2.356.563-.829 0-1.632-.197-2.356-.562l1.391-2.399c.3.119.625.186.965.186zm0-8.318c2.963 0 5.373 2.488 5.373 5.547 0 1.848-.88 3.486-2.231 4.494l-1.39-2.397c.571-.509.933-1.26.933-2.098 0-1.528-1.204-2.771-2.685-2.771-1.48 0-2.685 1.244-2.685 2.771 0 .838.363 1.589.933 2.098l-1.392 2.399c-.151-.112-.296-.233-.435-.361v-5.721c.248-.17.411-.46.411-.791v-2.105c.914-.691 2.013-1.066 3.167-1.066zm-9.014-9.632h2.776v.986h-2.776v-.986zm1.388-2.365c.203.501.469.974.794 1.406h-1.588c.325-.432.591-.905.794-1.406zm-1.68 4.3h3.361l.884 1.099h-5.128l.883-1.099zm-5.013 13.03h2.646v8.336h-2.646v-8.336zm-4.308-1.074h.061c.254 0 .46-.212.46-.473v-1.602h2.35v1.602c0 .261.205.473.459.473h.061v9.41h-.46v-8.794c0-.262-.206-.474-.459-.474-.254 0-.459.212-.459.474v8.794h-.643v-8.794c0-.262-.206-.474-.459-.474-.254 0-.459.212-.459.474v8.794h-.45v-9.41zm-2.376 3.373h1.459v6.036h-1.459v-6.036zm11.167 3.853h4.421v2.183h-4.421v-2.183z" fill="#206FAC"/><path d="M15.398 95.138v.995c0 .262.206.474.459.474h.75c.253 0 .46-.212.46-.474s-.206-.474-.46-.474h-.291v-.521c0-.262-.206-.474-.459-.474s-.459.212-.459.474zm5.705.399l.153-.027.475-.153c.245-.069.39-.329.323-.581-.066-.253-.318-.402-.563-.333-.182.051-.364.11-.541.174-.239.087-.364.358-.28.605.066.195.244.317.433.317zm8.255 3.21c.083.16.242.25.405.25.073 0 .147-.018.216-.056.224-.124.308-.411.188-.642-.088-.171-.184-.341-.285-.505-.136-.221-.419-.286-.634-.145-.214.14-.277.433-.141.654l.251.443zm-5.157-3.594l.493.074.083.008c.217 0 .41-.16.451-.389.046-.257-.119-.504-.368-.552-.186-.035-.374-.063-.561-.084-.253-.028-.479.16-.506.42-.027.261.155.494.408.522zm5.898 6.045l.039.513c.01.255.214.454.459.454h.019c.253-.011.45-.231.439-.493-.008-.193-.023-.39-.044-.581l-.002-.019c-.031-.26-.26-.44-.511-.408-.252.032-.43.273-.4.534zm-3.098-5.047l.413.288c.082.061.177.091.271.091.141 0 .281-.067.371-.194.15-.211.105-.508-.1-.662-.152-.115-.31-.224-.469-.327-.215-.138-.498-.07-.632.152-.134.223-.069.514.147.653zm3.362 7.796c-.239-.086-.501.045-.585.292l-.18.479c-.101.24.006.519.239.623l.182.039c.178 0 .346-.107.422-.285.075-.178.144-.362.206-.545.083-.247-.044-.518-.283-.603zm-5.013 5.609l.12-.016c.182-.051.364-.109.542-.174.239-.088.364-.358.28-.605-.084-.247-.346-.376-.586-.289l-.475.153c-.245.068-.39.328-.324.581.055.211.241.35.443.35zm2.858-2.721l-.364.351c-.192.171-.212.471-.046.669.091.108.219.163.347.163.106 0 .214-.038.301-.116.142-.127.281-.261.414-.399.179-.186.178-.486-.002-.671-.18-.184-.471-.183-.649.003zm-5.447 1.99l-.493-.074c-.249-.047-.489.122-.535.38-.046.257.119.505.368.552.185.036.374.064.561.085l.05.003c.231 0 .43-.18.456-.423.027-.26-.155-.494-.407-.522zm-19.973-16.332l-.009.132c0 .595.469 1.079 1.045 1.079h5.3c.254 0 .5-.095.69-.27.226-.205.355-.5.355-.809 0-.309-.13-.604-.355-.81-.191-.175-.437-.27-.69-.27h-2.593c0-.272-.114-.531-.311-.711-.168-.153-.383-.237-.607-.237h-2.821c-.506 0-.918.425-.918.948 0 .521.41.945.914.948zm2.826-.948h-.002c-.253 0-.459.212-.459.474 0 .261.206.473.459.473h3.513l.083.033.044.099-.043.098-.084.033h-5.3c-.07 0-.127-.059-.127-.131 0-.073.057-.132.127-.132.254 0 .459-.212.459-.473h.002c0-.263-.206-.474-.46-.474l-1.034-.001 2.822.001zm24.874 18.567h-1.758l-1.631-2.812c1.617-1.176 2.676-3.117 2.676-5.31 0-3.581-2.822-6.495-6.292-6.495-1.131 0-2.216.307-3.167.881v-3.784c0-.351-.185-.656-.459-.82v-1.454l-.001-.008-.007-.074-.005-.024-.021-.069-.004-.01-.037-.071-.013-.02-.018-.025-1.588-1.977v-1.668c.014-.149-.04-.299-.151-.401-1.078-.987-1.696-2.405-1.696-3.89v-1.589c0-.262-.206-.474-.459-.474s-.459.213-.459.474v1.589c0 1.485-.618 2.902-1.696 3.89-.111.102-.166.252-.151.4v1.669l-1.588 1.977-.018.025-.014.02-.037.071-.004.011-.02.069-.005.024-.007.074v1.462c-.275.164-.46.469-.46.82v7.021c0 .33.164.621.411.791v.424h-2.646v-.599c0-.262-.206-.474-.459-.474h-.06v-1.601c0-.262-.206-.474-.46-.474h-.4v-1.159c0-.262-.206-.474-.459-.474-.254 0-.459.212-.459.474v1.159h-.643v-1.159c0-.262-.206-.474-.459-.474-.254 0-.459.212-.459.474v1.159h-.389c-.253 0-.459.212-.459.474v1.601h-.061c-.254 0-.459.212-.459.474v2.899h-1.917c-.254 0-.459.212-.459.474v6.51h-.281c-.507 0-.918.424-.918.948 0 .523.411.948.918.948h29.207c.507 0 .918-.425.918-.948 0-.524-.411-.948-.918-.948zm-17.712-19.319h6.163v.852h-6.163v-.852zm5.703 4.377c-.248-.716-.764-1.303-1.423-1.629h1.423v1.629zm-.757.963c0 1.061-.837 1.926-1.865 1.926s-1.865-.864-1.865-1.926c0-1.061.837-1.925 1.865-1.925s1.865.864 1.865 1.925zm-4.488-.963v-1.629h1.423c-.659.326-1.175.912-1.423 1.629zm0 1.925c.234.676.705 1.235 1.31 1.571h-1.31v-1.571zm5.244 0v1.57h-1.31c.605-.336 1.077-.895 1.31-1.57zm-4.833 3.466h4.421v2.524h-4.421v-2.524zm0 3.472h4.421v2.947h-4.421v-2.947zm14.013 6.078h-7.756v-1.03l.75-1.292c.866.451 1.831.694 2.829.694 1.017 0 1.978-.251 2.829-.696l1.348 2.325zm-3.783-8.366c-.083-.143-.233-.231-.394-.231s-.311.088-.394.231l-.875 1.509c-.308-.328-.498-.775-.498-1.266 0-1.006.792-1.824 1.767-1.824.974 0 1.767.818 1.767 1.824 0 .491-.19.938-.497 1.266l-.875-1.509zm.088 1.996c-.153.045-.315.071-.482.071-.167 0-.328-.026-.481-.071l.481-.831.482.831zm-.482 1.019c.341 0 .666-.067.965-.186l1.391 2.398c-.712.36-1.511.563-2.356.563-.829 0-1.632-.197-2.356-.562l1.391-2.399c.3.119.625.186.965.186zm0-8.318c2.963 0 5.373 2.488 5.373 5.547 0 1.848-.88 3.486-2.231 4.494l-1.39-2.397c.571-.509.933-1.26.933-2.098 0-1.528-1.204-2.771-2.685-2.771-1.48 0-2.685 1.244-2.685 2.771 0 .838.363 1.589.933 2.098l-1.392 2.399c-.151-.112-.296-.233-.435-.361v-5.721c.248-.17.411-.46.411-.791v-2.105c.914-.691 2.013-1.066 3.167-1.066zm-9.014-9.632h2.776v.986h-2.776v-.986zm1.388-2.365c.203.501.469.974.794 1.406h-1.588c.325-.432.591-.905.794-1.406zm-1.68 4.3h3.361l.884 1.099h-5.128l.883-1.099zm-5.013 13.03h2.646v8.336h-2.646v-8.336zm-4.308-1.074h.061c.254 0 .46-.212.46-.473v-1.602h2.35v1.602c0 .261.205.473.459.473h.061v9.41h-.46v-8.794c0-.262-.206-.474-.459-.474-.254 0-.459.212-.459.474v8.794h-.643v-8.794c0-.262-.206-.474-.459-.474-.254 0-.459.212-.459.474v8.794h-.45v-9.41zm-2.376 3.373h1.459v6.036h-1.459v-6.036zm11.167 3.853h4.421v2.183h-4.421v-2.183z" fill="#fff"/><path d="M15.398 55.138v.995c0 .262.206.474.459.474h.75c.253 0 .46-.212.46-.474s-.206-.474-.46-.474h-.291v-.521c0-.262-.206-.474-.459-.474s-.459.212-.459.474zm5.705.399l.153-.027.475-.153c.245-.069.39-.329.323-.581-.066-.253-.318-.402-.563-.333-.182.051-.364.11-.541.174-.239.087-.364.358-.28.605.066.195.244.317.433.317zm8.255 3.21c.083.16.242.25.405.25.073 0 .147-.018.216-.056.224-.124.308-.411.188-.642-.088-.171-.184-.341-.285-.505-.136-.221-.419-.286-.634-.145-.214.14-.277.433-.141.654l.251.443zm-5.157-3.594l.493.074.083.008c.217 0 .41-.16.451-.389.046-.257-.119-.504-.368-.552-.186-.035-.374-.063-.561-.084-.253-.028-.479.16-.506.42-.027.261.155.494.408.522zm5.898 6.045l.039.513c.01.255.214.454.459.454h.019c.253-.011.45-.231.439-.493-.008-.193-.023-.39-.044-.581l-.002-.019c-.031-.26-.26-.44-.511-.408-.252.032-.43.273-.4.534zm-3.098-5.047l.413.288c.082.061.177.091.271.091.141 0 .281-.067.371-.194.15-.211.105-.508-.1-.662-.152-.115-.31-.224-.469-.327-.215-.138-.498-.07-.632.152-.134.223-.069.514.147.653zm3.362 7.796c-.239-.086-.501.045-.585.292l-.18.479c-.101.24.006.519.239.623l.182.039c.178 0 .346-.107.422-.285.075-.178.144-.362.206-.545.083-.247-.044-.518-.283-.603zm-5.013 5.609l.12-.016c.182-.051.364-.109.542-.174.239-.088.364-.358.28-.605-.084-.247-.346-.376-.586-.289l-.475.153c-.245.068-.39.328-.324.581.055.211.241.35.443.35zm2.858-2.721l-.364.351c-.192.171-.212.471-.046.669.091.108.219.163.347.163.106 0 .214-.038.301-.116.142-.127.281-.261.414-.399.179-.186.178-.486-.002-.671-.18-.184-.471-.183-.649.003zm-5.447 1.99l-.493-.074c-.249-.047-.489.122-.535.38-.046.257.119.505.368.552.185.036.374.064.561.085l.05.003c.231 0 .43-.18.456-.423.027-.26-.155-.494-.407-.522zm-19.973-16.332l-.009.132c0 .595.469 1.079 1.045 1.079h5.3c.254 0 .5-.095.69-.27.226-.205.355-.5.355-.809 0-.309-.13-.604-.355-.81-.191-.175-.437-.27-.69-.27h-2.593c0-.272-.114-.531-.311-.711-.168-.153-.383-.237-.607-.237h-2.821c-.506 0-.918.425-.918.948 0 .521.41.945.914.948zm2.826-.948h-.002c-.253 0-.459.212-.459.474 0 .261.206.473.459.473h3.513l.083.033.044.099-.043.098-.084.033h-5.3c-.07 0-.127-.059-.127-.131 0-.073.057-.132.127-.132.254 0 .459-.212.459-.473h.002c0-.263-.206-.474-.46-.474l-1.034-.001 2.822.001zm24.874 18.567h-1.758l-1.631-2.812c1.617-1.176 2.676-3.117 2.676-5.31 0-3.581-2.822-6.495-6.292-6.495-1.131 0-2.216.307-3.167.881v-3.784c0-.351-.185-.656-.459-.82v-1.454l-.001-.008-.007-.074-.005-.024-.021-.069-.004-.01-.037-.071-.013-.02-.018-.025-1.588-1.977v-1.668c.014-.149-.04-.299-.151-.401-1.078-.987-1.696-2.405-1.696-3.89v-1.589c0-.262-.206-.474-.459-.474s-.459.213-.459.474v1.589c0 1.485-.618 2.902-1.696 3.89-.111.102-.166.252-.151.4v1.669l-1.588 1.977-.018.025-.014.02-.037.071-.004.011-.02.069-.005.024-.007.074v1.462c-.275.164-.46.469-.46.82v7.021c0 .33.164.621.411.791v.424h-2.646v-.599c0-.262-.206-.474-.459-.474h-.06v-1.601c0-.262-.206-.474-.46-.474h-.4v-1.159c0-.262-.206-.474-.459-.474-.254 0-.459.212-.459.474v1.159h-.643v-1.159c0-.262-.206-.474-.459-.474-.254 0-.459.212-.459.474v1.159h-.389c-.253 0-.459.212-.459.474v1.601h-.061c-.254 0-.459.212-.459.474v2.899h-1.917c-.254 0-.459.212-.459.474v6.51h-.281c-.507 0-.918.424-.918.948 0 .523.411.948.918.948h29.207c.507 0 .918-.425.918-.948 0-.524-.411-.948-.918-.948zm-17.712-19.319h6.163v.852h-6.163v-.852zm5.703 4.377c-.248-.716-.764-1.303-1.423-1.629h1.423v1.629zm-.757.963c0 1.061-.837 1.926-1.865 1.926s-1.865-.864-1.865-1.926c0-1.061.837-1.925 1.865-1.925s1.865.864 1.865 1.925zm-4.488-.963v-1.629h1.423c-.659.326-1.175.912-1.423 1.629zm0 1.925c.234.676.705 1.235 1.31 1.571h-1.31v-1.571zm5.244 0v1.57h-1.31c.605-.336 1.077-.895 1.31-1.57zm-4.833 3.466h4.421v2.524h-4.421v-2.524zm0 3.472h4.421v2.947h-4.421v-2.947zm14.013 6.078h-7.756v-1.03l.75-1.292c.866.451 1.831.694 2.829.694 1.017 0 1.978-.251 2.829-.696l1.348 2.325zm-3.783-8.366c-.083-.143-.233-.231-.394-.231s-.311.088-.394.231l-.875 1.509c-.308-.328-.498-.775-.498-1.266 0-1.006.792-1.824 1.767-1.824.974 0 1.767.818 1.767 1.824 0 .491-.19.938-.497 1.266l-.875-1.509zm.088 1.996c-.153.045-.315.071-.482.071-.167 0-.328-.026-.481-.071l.481-.831.482.831zm-.482 1.019c.341 0 .666-.067.965-.186l1.391 2.398c-.712.36-1.511.563-2.356.563-.829 0-1.632-.197-2.356-.562l1.391-2.399c.3.119.625.186.965.186zm0-8.318c2.963 0 5.373 2.488 5.373 5.547 0 1.848-.88 3.486-2.231 4.494l-1.39-2.397c.571-.509.933-1.26.933-2.098 0-1.528-1.204-2.771-2.685-2.771-1.48 0-2.685 1.244-2.685 2.771 0 .838.363 1.589.933 2.098l-1.392 2.399c-.151-.112-.296-.233-.435-.361v-5.721c.248-.17.411-.46.411-.791v-2.105c.914-.691 2.013-1.066 3.167-1.066zm-9.014-9.632h2.776v.986h-2.776v-.986zm1.388-2.365c.203.501.469.974.794 1.406h-1.588c.325-.432.591-.905.794-1.406zm-1.68 4.3h3.361l.884 1.099h-5.128l.883-1.099zm-5.013 13.03h2.646v8.336h-2.646v-8.336zm-4.308-1.074h.061c.254 0 .46-.212.46-.473v-1.602h2.35v1.602c0 .261.205.473.459.473h.061v9.41h-.46v-8.794c0-.262-.206-.474-.459-.474-.254 0-.459.212-.459.474v8.794h-.643v-8.794c0-.262-.206-.474-.459-.474-.254 0-.459.212-.459.474v8.794h-.45v-9.41zm-2.376 3.373h1.459v6.036h-1.459v-6.036zm11.167 3.853h4.421v2.183h-4.421v-2.183z" fill="#67737B"/><path d="M15.398 15.138v.995c0 .262.206.474.459.474h.75c.253 0 .46-.212.46-.474s-.206-.474-.46-.474h-.291v-.521c0-.262-.206-.474-.459-.474s-.459.212-.459.474zm5.705.399l.153-.027.475-.153c.245-.069.39-.329.323-.581-.066-.253-.318-.402-.563-.333-.182.051-.364.11-.541.174-.239.087-.364.358-.28.605.066.195.244.317.433.317zm8.255 3.21c.083.16.242.25.405.25.073 0 .147-.018.216-.056.224-.124.308-.411.188-.642-.088-.171-.184-.341-.285-.505-.136-.221-.419-.286-.634-.145-.214.14-.277.433-.141.654l.251.443zm-5.157-3.594l.493.074.083.008c.217 0 .41-.16.451-.389.046-.257-.119-.504-.368-.552-.186-.035-.374-.063-.561-.084-.253-.028-.479.16-.506.42-.027.261.155.494.408.522zm5.898 6.045l.039.513c.01.255.214.454.459.454h.019c.253-.011.45-.231.439-.493-.008-.193-.023-.39-.044-.581l-.002-.019c-.031-.26-.26-.44-.511-.408-.252.032-.43.273-.4.534zm-3.098-5.047l.413.288c.082.061.177.091.271.091.141 0 .281-.067.371-.194.15-.211.105-.508-.1-.662-.152-.115-.31-.224-.469-.327-.215-.138-.498-.07-.632.152-.134.223-.069.514.147.653zm3.362 7.796c-.239-.086-.501.045-.585.292l-.18.479c-.101.24.006.519.239.623l.182.039c.178 0 .346-.107.422-.285.075-.178.144-.362.206-.545.083-.247-.044-.518-.283-.603zm-5.013 5.609l.12-.016c.182-.051.364-.109.542-.174.239-.088.364-.358.28-.605-.084-.247-.346-.376-.586-.289l-.475.153c-.245.068-.39.328-.324.581.055.211.241.35.443.35zm2.858-2.721l-.364.351c-.192.171-.212.471-.046.669.091.108.219.163.347.163.106 0 .214-.038.301-.116.142-.127.281-.261.414-.399.179-.186.178-.486-.002-.671-.18-.184-.471-.183-.649.003zm-5.447 1.99l-.493-.074c-.249-.047-.489.122-.535.38-.046.257.119.505.368.552.185.036.374.064.561.085l.05.003c.231 0 .43-.18.456-.423.027-.26-.155-.494-.407-.522zm-19.973-16.332l-.009.132c0 .595.469 1.079 1.045 1.079h5.3c.254 0 .5-.095.69-.27.226-.205.355-.5.355-.809 0-.309-.13-.604-.355-.81-.191-.175-.437-.27-.69-.27h-2.593c0-.272-.114-.531-.311-.711-.168-.153-.383-.237-.607-.237h-2.821c-.506 0-.918.425-.918.948 0 .521.41.945.914.948zm2.826-.948h-.002c-.253 0-.459.212-.459.474 0 .261.206.473.459.473h3.513l.083.033.044.099-.043.098-.084.033h-5.3c-.07 0-.127-.059-.127-.131 0-.073.057-.132.127-.132.254 0 .459-.212.459-.473h.002c0-.263-.206-.474-.46-.474l-1.034-.001 2.822.001zm24.874 18.567h-1.758l-1.631-2.812c1.617-1.176 2.676-3.117 2.676-5.31 0-3.581-2.822-6.495-6.292-6.495-1.131 0-2.216.307-3.167.881v-3.784c0-.351-.185-.656-.459-.82v-1.454l-.001-.008-.007-.074-.005-.024-.021-.069-.004-.01-.037-.071-.013-.02-.018-.025-1.588-1.977v-1.668c.014-.149-.04-.299-.151-.401-1.078-.987-1.696-2.405-1.696-3.89v-1.589c0-.262-.206-.474-.459-.474s-.459.213-.459.474v1.589c0 1.485-.618 2.902-1.696 3.89-.111.102-.166.252-.151.4v1.669l-1.588 1.977-.018.025-.014.02-.037.071-.004.011-.02.069-.005.024-.007.074v1.462c-.275.164-.46.469-.46.82v7.021c0 .33.164.621.411.791v.424h-2.646v-.599c0-.262-.206-.474-.459-.474h-.06v-1.601c0-.262-.206-.474-.46-.474h-.4v-1.159c0-.262-.206-.474-.459-.474-.254 0-.459.212-.459.474v1.159h-.643v-1.159c0-.262-.206-.474-.459-.474-.254 0-.459.212-.459.474v1.159h-.389c-.253 0-.459.212-.459.474v1.601h-.061c-.254 0-.459.212-.459.474v2.899h-1.917c-.254 0-.459.212-.459.474v6.51h-.281c-.507 0-.918.424-.918.948 0 .523.411.948.918.948h29.207c.507 0 .918-.425.918-.948 0-.524-.411-.948-.918-.948zm-17.712-19.319h6.163v.852h-6.163v-.852zm5.703 4.377c-.248-.716-.764-1.303-1.423-1.629h1.423v1.629zm-.757.963c0 1.061-.837 1.926-1.865 1.926s-1.865-.864-1.865-1.926c0-1.061.837-1.925 1.865-1.925s1.865.864 1.865 1.925zm-4.488-.963v-1.629h1.423c-.659.326-1.175.912-1.423 1.629zm0 1.925c.234.676.705 1.235 1.31 1.571h-1.31v-1.571zm5.244 0v1.57h-1.31c.605-.336 1.077-.895 1.31-1.57zm-4.833 3.466h4.421v2.524h-4.421v-2.524zm0 3.472h4.421v2.947h-4.421v-2.947zm14.013 6.078h-7.756v-1.03l.75-1.292c.866.451 1.831.694 2.829.694 1.017 0 1.978-.251 2.829-.696l1.348 2.325zm-3.783-8.366c-.083-.143-.233-.231-.394-.231s-.311.088-.394.231l-.875 1.509c-.308-.328-.498-.775-.498-1.266 0-1.006.792-1.824 1.767-1.824.974 0 1.767.818 1.767 1.824 0 .491-.19.938-.497 1.266l-.875-1.509zm.088 1.996c-.153.045-.315.071-.482.071-.167 0-.328-.026-.481-.071l.481-.831.482.831zm-.482 1.019c.341 0 .666-.067.965-.186l1.391 2.398c-.712.36-1.511.563-2.356.563-.829 0-1.632-.197-2.356-.562l1.391-2.399c.3.119.625.186.965.186zm0-8.318c2.963 0 5.373 2.488 5.373 5.547 0 1.848-.88 3.486-2.231 4.494l-1.39-2.397c.571-.509.933-1.26.933-2.098 0-1.528-1.204-2.771-2.685-2.771-1.48 0-2.685 1.244-2.685 2.771 0 .838.363 1.589.933 2.098l-1.392 2.399c-.151-.112-.296-.233-.435-.361v-5.721c.248-.17.411-.46.411-.791v-2.105c.914-.691 2.013-1.066 3.167-1.066zm-9.014-9.632h2.776v.986h-2.776v-.986zm1.388-2.365c.203.501.469.974.794 1.406h-1.588c.325-.432.591-.905.794-1.406zm-1.68 4.3h3.361l.884 1.099h-5.128l.883-1.099zm-5.013 13.03h2.646v8.336h-2.646v-8.336zm-4.308-1.074h.061c.254 0 .46-.212.46-.473v-1.602h2.35v1.602c0 .261.205.473.459.473h.061v9.41h-.46v-8.794c0-.262-.206-.474-.459-.474-.254 0-.459.212-.459.474v8.794h-.643v-8.794c0-.262-.206-.474-.459-.474-.254 0-.459.212-.459.474v8.794h-.45v-9.41zm-2.376 3.373h1.459v6.036h-1.459v-6.036zm11.167 3.853h4.421v2.183h-4.421v-2.183z" fill="#3A434E"/></g></g></svg>