<svg width="32" height="232" viewBox="0 0 32 232" xmlns="http://www.w3.org/2000/svg"><g fill="none"><path d="M13.47 122.867c.362-.336.882-.336 1.244-.03l.016.042c.083.19.26.32.457.32h.07c.195 0 .374-.13.456-.32l.015-.05c.363-.31.883-.31 1.246.03.214.19.532.16.71-.07.18-.24.152-.59-.06-.78-.7-.65-1.68-.68-2.403-.15-.72-.53-1.7-.5-2.4.14-.21.19-.24.55-.06.78.18.23.5.26.71.07zm2.315 1.728c-.214.197-.242.548-.062.783s.498.266.71.068c.16-.145.38-.155.544-.04.086.185.26.3.448.3h.045c.19 0 .362-.116.448-.3.06-.044.132-.07.207-.077.123-.02.243.02.336.11.22.2.54.16.72-.07.18-.24.15-.59-.06-.79-.3-.28-.68-.41-1.07-.38-.21.02-.41.09-.59.2-.52-.32-1.18-.27-1.66.17zm15.68 23.892c-.004-.623-.04-1.49-.162-2.465-.32-2.584-1.06-4.573-2.2-5.914-.357-.42-.75-.77-1.18-1.054l-1.14-10.724c.487.254.896.65 1.184 1.15.385.674.506 1.465.343 2.23-.064.3.104.598.375.668l.116.015c.23 0 .44-.173.5-.43.23-1.057.06-2.15-.47-3.076-.36-.64-.87-1.148-1.47-1.492 1.11-.54 2.46-.31 3.34.672.1.11.23.165.36.165.13 0 .26-.053.36-.16.2-.216.2-.568 0-.786-1.17-1.308-2.97-1.622-4.44-.917.44-1.1 1.47-1.87 2.68-1.87.28 0 .51-.25.51-.56 0-.31-.22-.56-.5-.56-1.45 0-2.72.84-3.4 2.1-.67-1.26-1.94-2.1-3.39-2.1-.28 0-.5.25-.5.55 0 .3.228.55.507.55 1.2 0 2.233.77 2.67 1.87-1.475-.71-3.27-.39-4.44.91-.2.21-.2.57 0 .78.1.11.224.16.35.16.13 0 .26-.05.36-.16.88-.99 2.236-1.22 3.34-.67-.6.34-1.11.85-1.474 1.49-.53.92-.7 2.02-.47 3.07.05.26.26.43.49.43l.11-.02c.275-.07.44-.37.378-.67-.165-.77-.043-1.56.34-2.23.3-.53.73-.93 1.244-1.18l.59 10.06c-.45-.11-.924-.17-1.425-.17-2.61 0-4.32-3.51-4.99-5.18 1.02-.38 2.2-.02 2.87.95.1.14.25.22.4.22.105 0 .213-.04.304-.11.225-.19.27-.54.1-.78-.877-1.27-2.367-1.78-3.71-1.42.145-.24.33-.44.544-.62.527-.43 1.184-.61 1.85-.52.278.04.53-.176.565-.48.035-.306-.16-.58-.437-.62-.92-.13-1.84.124-2.58.724-.22.185-.42.394-.6.626-.11-.27-.26-.53-.44-.772-.57-.784-1.4-1.29-2.32-1.42-.28-.04-.53.172-.564.48-.04.3.16.58.435.62.67.093 1.26.455 1.67 1.02.17.23.3.48.39.75-1.22-.73-2.78-.647-3.92.333-.22.19-.26.54-.08.78.17.24.49.288.71.1.82-.703 1.94-.76 2.82-.233-.526.238-.99.61-1.356 1.097-.57.76-.84 1.71-.75 2.683.03.286.246.5.5.5h.05c.28-.03.48-.304.45-.61-.06-.67.12-1.33.52-1.86.4-.54.975-.876 1.62-.96.72 2.073 2.68 6.63 5.96 6.63.564 0 1.08.08 1.54.232l.31 5.33h-.11c-.33 0-.47-.08-.67-.185l-.036-.018c-.13-.4-.28-.82-.46-1.23-1.465-3.46-3.945-5.286-7.17-5.286-4.11 0-6.96-2.7-7.325-6.814.48.05.94.226 1.35.53.6.45.99 1.12 1.12 1.895.04.27.25.46.49.46l.09-.01c.273-.05.455-.34.41-.64-.18-1.07-.727-2-1.55-2.62-.57-.423-1.217-.67-1.89-.72.814-.98 2.14-1.36 3.303-.843.26.11.55-.026.656-.31.11-.287-.02-.61-.275-.725-1.55-.69-3.32-.19-4.41 1.106 0-.39.07-.783.212-1.16.295-.77.85-1.386 1.564-1.73.257-.12.375-.45.264-.73-.11-.28-.41-.41-.666-.29-.955.458-1.7 1.28-2.093 2.317-.134.354-.22.72-.27 1.094-1.07-.856-2.54-1.077-3.87-.44-.253.12-.37.45-.26.73.11.28.41.41.666.29 1.106-.53 2.33-.27 3.13.543-1.604-.003-3.14 1.07-3.745 2.785-.1.28.025.6.285.72l.183.03c.2 0 .39-.135.47-.354.455-1.29 1.615-2.09 2.82-2.08-.43.58-.71 1.27-.814 2.02-.158 1.08.082 2.16.67 3.03.1.146.25.224.403.224.103 0 .21-.036.3-.11.22-.18.27-.53.1-.78-.43-.63-.6-1.41-.49-2.19.096-.67.387-1.286.83-1.76.22 2.16 1.026 4.13 2.33 5.643 1.556 1.806 3.68 2.8 5.99 2.8 1.87 0 3.337.63 4.36 1.865.645.78 1.054 1.72 1.31 2.65l-.235.12c-.197.105-.34.18-.67.18s-.47-.074-.67-.18c-.24-.13-.55-.3-1.11-.3s-.87.167-1.115.3c-.2.104-.34.18-.67.18s-.47-.08-.67-.185c-.245-.13-.55-.293-1.113-.293s-.87.167-1.113.3c-.197.103-.34.18-.67.18s-.47-.08-.67-.19c-.243-.13-.55-.296-1.11-.296s-.868.16-1.114.294c-.2.1-.34.18-.67.18s-.47-.08-.67-.185c-.24-.14-.55-.3-1.11-.3s-.87.16-1.11.292c-.2.106-.34.18-.67.18s-.47-.08-.67-.18c-.11-.06-.23-.12-.38-.177l-.41-2.35.19-.08.31-.22.36.094c.13.035.27.01.38-.07l.313-.22.36.09c.13.04.27.01.38-.07l.31-.22.36.093c.135.035.274.01.39-.07l.31-.22.36.09c.133.03.273.01.39-.077l.43-.3c.11-.03.22-.1.29-.212.164-.25.114-.597-.11-.777l-6.32-5.06c-.11-.085-.248-.12-.38-.1-.135.03-.254.11-.33.23L.94 142.9c-.16.25-.105.6.124.776.09.07.19.1.29.1l.056-.008.49.12.117.01c.1 0 .19-.03.27-.087l.318-.22.36.097c.13.035.27.01.384-.072l.31-.22.36.1c.13.03.27.01.38-.07l.31-.22.36.094c.13.03.27.01.384-.07l.31-.22.36.09c.09.02.18.014.26-.01l.367 2.07c-.37.045-.604.17-.8.28-.2.1-.34.18-.67.18s-.472-.08-.67-.185c-.244-.13-.55-.296-1.113-.296-.56 0-.86.165-1.11.3-.2.11-.34.183-.67.183-.28 0-.506.25-.506.553 0 .31.23.558.508.558.56 0 .866-.167 1.11-.3.2-.108.34-.185.67-.185s.47.074.67.18c.246.13.55.294 1.115.294s.87-.16 1.114-.292c.17-.09.307-.16.55-.18l.35 2.018H.99c-.557 0-1.01.492-1.01 1.11s.453 1.11 1.01 1.11h29.96c.557 0 1.008-.5 1.008-1.11 0-.406-.196-.758-.488-.95zm-2.558-.16l-.212-2.002c.17.03.284.09.424.164l.27.13c-.01.65-.06 1.24-.11 1.7h-.38zm-.715-6.736l.03.04c.75 1.03 1.05 2.43 1.142 3.76-.194-.09-.437-.17-.79-.19l-.382-3.6zm2.2 5.5c.036.47.054.89.06 1.24h-.15c.038-.36.072-.78.09-1.24zm-3.726-.3h.17l.09 1.55h-.31c-.062-.43-.156-.96-.297-1.56l.34.03zm-1.293.4c.097.43.167.82.22 1.15h-.147c-.008-.33-.03-.72-.073-1.14zm-16.54-.39c.56 0 .867-.16 1.112-.29.198-.1.34-.18.67-.18s.472.08.67.19c.245.13.55.3 1.114.3.56 0 .86-.16 1.11-.3.2-.11.34-.18.67-.18s.47.08.67.19c.24.13.55.3 1.11.3s.87-.162 1.11-.295c.2-.11.34-.185.67-.185s.47.075.67.18c.24.13.55.296 1.11.296s.87-.16 1.11-.294c.2-.11.34-.183.67-.183s.47.08.67.184c.24.13.55.295 1.11.295s.86-.16 1.11-.295l.04-.02c.12.7.16 1.35.18 1.853H8.31l-.297-1.69c.2.08.456.15.818.15zm2.018-5.85l-.16.08-.31.22-.36-.09c-.13-.03-.27 0-.38.08l-.31.22-.36-.09c-.13-.03-.27 0-.38.08l-.31.22-.36-.1c-.13-.03-.27-.01-.39.07l-.31.22-.36-.09c-.13-.03-.27-.01-.39.07l-.31.22-.36-.09c-.13-.03-.27-.01-.38.07l-.31.22-.36-.09c-.13-.03-.27-.01-.39.08l-.31.22-.36-.09c-.13-.034-.27-.01-.38.07l-.31.22-.36-.092-.18-.01L5.93 137l4.942 3.957z" fill="#206FAC"/><path d="M13.47 82.867c.362-.336.882-.336 1.244-.03l.016.042c.083.19.26.32.457.32h.07c.195 0 .374-.13.456-.32l.015-.05c.363-.31.883-.31 1.246.03.214.19.532.16.71-.07.18-.24.152-.59-.06-.78-.7-.65-1.68-.68-2.403-.15-.72-.53-1.7-.5-2.4.14-.21.19-.24.55-.06.78.18.23.5.26.71.07zm2.315 1.728c-.214.197-.242.548-.062.783s.498.266.71.068c.16-.145.38-.155.544-.04.086.185.26.3.448.3h.045c.19 0 .362-.116.448-.3.06-.044.132-.07.207-.077.123-.02.243.02.336.11.22.2.54.16.72-.07.18-.24.15-.59-.06-.79-.3-.28-.68-.41-1.07-.38-.21.02-.41.09-.59.2-.52-.32-1.18-.27-1.66.17zm15.68 23.892c-.004-.623-.04-1.49-.162-2.465-.32-2.584-1.06-4.573-2.2-5.914-.357-.42-.75-.77-1.18-1.054l-1.14-10.724c.487.254.896.65 1.184 1.15.385.674.506 1.465.343 2.23-.064.3.104.598.375.668l.116.015c.23 0 .44-.173.5-.43.23-1.057.06-2.15-.47-3.076-.36-.64-.87-1.148-1.47-1.492 1.11-.54 2.46-.31 3.34.672.1.11.23.165.36.165.13 0 .26-.053.36-.16.2-.216.2-.568 0-.786-1.17-1.308-2.97-1.622-4.44-.917.44-1.1 1.47-1.87 2.68-1.87.28 0 .51-.25.51-.56 0-.31-.22-.56-.5-.56-1.45 0-2.72.84-3.4 2.1-.67-1.26-1.94-2.1-3.39-2.1-.28 0-.5.25-.5.55 0 .3.228.55.507.55 1.2 0 2.233.77 2.67 1.87-1.475-.71-3.27-.39-4.44.91-.2.21-.2.57 0 .78.1.11.224.16.35.16.13 0 .26-.05.36-.16.88-.99 2.236-1.22 3.34-.67-.6.34-1.11.85-1.474 1.49-.53.92-.7 2.02-.47 3.07.05.26.26.43.49.43l.11-.02c.275-.07.44-.37.378-.67-.165-.77-.043-1.56.34-2.23.3-.53.73-.93 1.244-1.18l.59 10.06c-.45-.11-.924-.17-1.425-.17-2.61 0-4.32-3.51-4.99-5.18 1.02-.38 2.2-.02 2.87.95.1.14.25.22.4.22.105 0 .213-.04.304-.11.225-.19.27-.54.1-.78-.877-1.27-2.367-1.78-3.71-1.42.145-.24.33-.44.544-.62.527-.43 1.184-.61 1.85-.52.278.04.53-.176.565-.48.035-.306-.16-.58-.437-.62-.92-.13-1.84.124-2.58.724-.22.185-.42.394-.6.626-.11-.27-.26-.53-.44-.772-.57-.784-1.4-1.29-2.32-1.42-.28-.04-.53.172-.564.48-.04.3.16.58.435.62.67.093 1.26.455 1.67 1.02.17.23.3.48.39.75-1.22-.73-2.78-.647-3.92.333-.22.19-.26.54-.08.78.17.24.49.288.71.1.82-.703 1.94-.76 2.82-.233-.526.238-.99.61-1.356 1.097-.57.76-.84 1.71-.75 2.683.03.286.246.5.5.5h.05c.28-.03.48-.304.45-.61-.06-.67.12-1.33.52-1.86.4-.54.975-.876 1.62-.96.72 2.073 2.68 6.63 5.96 6.63.564 0 1.08.08 1.54.232l.31 5.33h-.11c-.33 0-.47-.08-.67-.185l-.036-.018c-.13-.4-.28-.82-.46-1.23-1.465-3.46-3.945-5.286-7.17-5.286-4.11 0-6.96-2.7-7.325-6.814.48.05.94.226 1.35.53.6.45.99 1.12 1.12 1.895.04.27.25.46.49.46l.09-.01c.273-.05.455-.34.41-.64-.18-1.07-.727-2-1.55-2.62-.57-.423-1.217-.67-1.89-.72.814-.98 2.14-1.36 3.303-.843.26.11.55-.026.656-.31.11-.287-.02-.61-.275-.725-1.55-.69-3.32-.19-4.41 1.106 0-.39.07-.783.212-1.16.295-.77.85-1.386 1.564-1.73.257-.12.375-.45.264-.73-.11-.28-.41-.41-.666-.29-.955.458-1.7 1.28-2.093 2.317-.134.354-.22.72-.27 1.094-1.07-.856-2.54-1.077-3.87-.44-.253.12-.37.45-.26.73.11.28.41.41.666.29 1.106-.53 2.33-.27 3.13.543-1.604-.003-3.14 1.07-3.745 2.785-.1.28.025.6.285.72l.183.03c.2 0 .39-.135.47-.354.47-1.29 1.63-2.093 2.84-2.08-.43.58-.71 1.27-.815 2.015-.16 1.08.08 2.16.67 3.03.1.143.25.22.4.22.103 0 .21-.04.3-.11.222-.19.27-.54.102-.78-.43-.63-.6-1.41-.49-2.2.093-.67.384-1.284.83-1.76.215 2.16 1.023 4.13 2.33 5.645 1.553 1.81 3.68 2.8 5.99 2.8 1.87 0 3.34.63 4.36 1.87.64.78 1.05 1.72 1.31 2.65l-.24.12c-.195.106-.34.183-.67.183s-.47-.078-.67-.18c-.242-.137-.55-.3-1.11-.3s-.87.16-1.112.293c-.2.1-.34.18-.67.18s-.47-.08-.67-.19c-.25-.13-.55-.3-1.112-.3-.56 0-.864.16-1.11.29-.2.11-.34.19-.67.19s-.47-.08-.67-.19c-.245-.13-.55-.3-1.114-.3s-.87.168-1.116.3c-.2.11-.34.186-.67.186s-.47-.08-.67-.187c-.245-.13-.55-.294-1.114-.294s-.87.164-1.115.3c-.2.104-.34.18-.67.18s-.47-.08-.67-.182c-.11-.06-.23-.125-.38-.18l-.41-2.35.19-.08.31-.22.36.09c.13.036.27.01.384-.07l.317-.22.36.09c.13.04.27.01.38-.07l.31-.22.36.098c.14.03.28.007.39-.074l.31-.22.36.09c.136.038.276.01.39-.07l.43-.3c.114-.03.22-.1.29-.21.17-.246.12-.594-.11-.774L6.1 95.73c-.11-.088-.245-.124-.38-.1-.132.026-.25.11-.33.23l-4.48 7.08c-.16.253-.1.6.127.775.085.067.186.1.285.1l.057-.005.49.127.11.015c.09 0 .19-.03.27-.09l.31-.22.36.096c.13.034.27.008.38-.073l.31-.22.36.095c.13.032.27.01.39-.074l.31-.22.36.095c.13.04.27.01.39-.07l.31-.22.36.1c.08.02.17.02.26-.01l.36 2.07c-.37.05-.61.17-.8.28-.2.11-.34.19-.67.19s-.48-.08-.67-.18c-.25-.13-.55-.29-1.12-.29s-.87.17-1.12.3c-.2.11-.35.18-.67.18-.28 0-.51.25-.51.56 0 .31.22.56.5.56.56 0 .87-.16 1.11-.29.2-.11.34-.18.67-.18s.47.075.67.18c.24.13.55.295 1.11.295s.87-.165 1.11-.3c.17-.09.304-.16.55-.174l.35 2.018H.983c-.55 0-1.01.5-1.01 1.11s.46 1.11 1.01 1.11h29.96c.56 0 1.01-.49 1.01-1.11 0-.4-.192-.75-.49-.95zm-2.558-.16l-.212-2.002c.17.03.284.09.424.164l.27.13c-.01.65-.06 1.24-.11 1.7h-.38zm-.715-6.736l.03.04c.75 1.03 1.05 2.43 1.142 3.76-.194-.09-.437-.17-.79-.19l-.382-3.6zm2.2 5.5c.036.47.054.89.06 1.24h-.15c.038-.36.072-.78.09-1.24zm-3.726-.3h.17l.09 1.55h-.31c-.062-.43-.156-.96-.297-1.56l.34.03zm-1.293.4c.097.43.167.82.22 1.15h-.147c-.008-.33-.03-.72-.073-1.14zm-16.54-.39c.56 0 .867-.16 1.112-.29.198-.1.34-.18.67-.18s.472.08.67.19c.245.13.55.3 1.114.3.56 0 .86-.16 1.11-.3.2-.11.34-.18.67-.18s.47.08.67.19c.24.13.55.3 1.11.3s.87-.162 1.11-.295c.2-.11.34-.185.67-.185s.47.075.67.18c.24.13.55.296 1.11.296s.87-.16 1.11-.294c.2-.11.34-.183.67-.183s.47.08.67.184c.24.13.55.295 1.11.295s.86-.16 1.11-.295l.04-.02c.12.7.16 1.35.18 1.853H8.31l-.297-1.69c.2.08.456.15.818.15zm2.018-5.85l-.16.08-.31.22-.36-.09c-.13-.03-.27 0-.38.08l-.31.22-.36-.09c-.13-.03-.27 0-.38.08l-.31.22-.36-.1c-.13-.03-.27-.01-.39.07l-.31.22-.36-.09c-.13-.03-.27-.01-.39.07l-.31.22-.36-.09c-.13-.03-.27-.01-.38.07l-.31.22-.36-.09c-.13-.03-.27-.01-.39.08l-.31.22-.36-.09c-.13-.034-.27-.01-.38.07l-.31.22-.36-.092-.18-.01L5.93 97l4.94 3.957z" fill="#fff"/><path d="M13.47 42.867c.362-.336.882-.336 1.244-.03l.016.042c.083.19.26.32.457.32h.07c.195 0 .374-.13.456-.32l.015-.05c.363-.31.883-.31 1.246.03.214.19.532.16.71-.07.18-.24.152-.59-.06-.78-.7-.65-1.68-.68-2.403-.15-.72-.53-1.7-.5-2.4.14-.21.19-.24.55-.06.78.18.23.5.26.71.07zm2.315 1.728c-.214.197-.242.548-.062.783s.498.266.71.068c.16-.145.38-.155.544-.04.086.185.26.3.448.3h.045c.19 0 .362-.116.448-.3.06-.044.132-.07.207-.077.123-.02.243.02.336.11.22.2.54.16.72-.07.18-.24.15-.59-.06-.79-.3-.28-.68-.41-1.07-.38-.21.02-.41.09-.59.2-.52-.32-1.18-.27-1.66.17zm15.68 23.892c-.004-.623-.04-1.49-.162-2.465-.32-2.584-1.06-4.573-2.2-5.914-.357-.42-.75-.77-1.18-1.054l-1.14-10.724c.487.254.896.65 1.184 1.15.385.674.506 1.465.343 2.23-.064.3.104.598.375.668l.116.015c.23 0 .44-.173.5-.43.23-1.057.06-2.15-.47-3.076-.36-.64-.87-1.148-1.47-1.492 1.11-.54 2.46-.31 3.34.672.1.11.23.165.36.165.13 0 .26-.053.36-.16.2-.216.2-.568 0-.786-1.17-1.308-2.97-1.622-4.44-.917.44-1.1 1.47-1.87 2.68-1.87.28 0 .51-.25.51-.56 0-.31-.22-.56-.5-.56-1.45 0-2.72.84-3.4 2.1-.67-1.26-1.94-2.1-3.39-2.1-.28 0-.5.25-.5.55 0 .3.228.55.507.55 1.2 0 2.233.77 2.67 1.87-1.475-.71-3.27-.39-4.44.91-.2.21-.2.57 0 .78.1.11.224.16.35.16.13 0 .26-.05.36-.16.88-.99 2.236-1.22 3.34-.67-.6.34-1.11.85-1.474 1.49-.53.92-.7 2.02-.47 3.07.05.26.26.43.49.43l.11-.02c.275-.07.44-.37.378-.67-.165-.77-.043-1.56.34-2.23.3-.53.73-.93 1.244-1.18l.59 10.06c-.45-.11-.924-.17-1.425-.17-2.61 0-4.32-3.51-4.99-5.18 1.02-.38 2.2-.02 2.87.95.1.14.25.22.4.22.105 0 .213-.04.304-.11.225-.19.27-.54.1-.78-.877-1.27-2.367-1.78-3.71-1.42.145-.24.33-.44.544-.62.527-.43 1.184-.61 1.85-.52.278.04.53-.176.565-.48.035-.306-.16-.58-.437-.62-.92-.13-1.84.124-2.58.724-.22.185-.42.394-.6.626-.11-.27-.26-.53-.44-.772-.57-.784-1.4-1.29-2.32-1.42-.28-.04-.53.172-.564.48-.04.3.16.58.435.62.67.093 1.26.455 1.67 1.02.17.23.3.48.39.75-1.22-.73-2.78-.647-3.92.333-.22.19-.26.54-.08.78.17.24.49.288.71.1.82-.703 1.94-.76 2.82-.233-.526.238-.99.61-1.356 1.097-.57.76-.84 1.71-.75 2.683.03.286.246.5.5.5h.05c.28-.03.48-.304.45-.61-.06-.67.12-1.33.52-1.86.4-.54.975-.876 1.62-.96.72 2.073 2.68 6.63 5.96 6.63.564 0 1.08.08 1.54.232l.31 5.33h-.11c-.33 0-.47-.08-.67-.185l-.036-.018c-.13-.4-.28-.82-.46-1.23-1.465-3.46-3.945-5.286-7.17-5.286-4.11 0-6.96-2.7-7.325-6.814.48.05.94.226 1.35.53.6.45.99 1.12 1.12 1.895.04.27.25.46.49.46l.09-.01c.273-.05.455-.34.41-.64-.18-1.07-.727-2-1.55-2.62-.57-.423-1.217-.67-1.89-.72.814-.98 2.14-1.36 3.303-.843.26.11.55-.026.656-.31.11-.287-.02-.61-.275-.725-1.55-.69-3.32-.19-4.41 1.106 0-.39.07-.783.212-1.162.295-.77.85-1.388 1.564-1.73.257-.12.375-.45.264-.73-.11-.28-.41-.41-.666-.29-.955.457-1.7 1.28-2.093 2.316-.134.36-.22.72-.27 1.1-1.07-.85-2.54-1.08-3.87-.44-.253.12-.37.45-.26.73.11.28.41.41.666.29 1.106-.53 2.33-.27 3.13.54-1.604-.007-3.14 1.07-3.745 2.78-.1.29.025.61.285.72l.183.04c.2 0 .39-.14.47-.36.47-1.3 1.63-2.1 2.84-2.09-.43.58-.71 1.27-.815 2.017-.16 1.09.08 2.16.67 3.03.1.15.25.23.4.23.103 0 .21-.03.3-.11.222-.18.27-.53.102-.77-.43-.63-.6-1.41-.49-2.2.093-.67.384-1.28.83-1.76.215 2.16 1.023 4.14 2.33 5.65 1.553 1.81 3.68 2.8 5.99 2.8 1.87 0 3.34.63 4.36 1.86.64.78 1.05 1.72 1.31 2.65l-.24.12c-.195.11-.34.18-.67.18s-.47-.08-.67-.18c-.242-.13-.55-.295-1.11-.295s-.87.163-1.112.295c-.2.11-.34.19-.67.19s-.47-.08-.67-.188c-.25-.13-.55-.294-1.112-.294-.56 0-.864.162-1.11.294-.2.103-.34.18-.67.18s-.47-.08-.67-.183c-.245-.13-.55-.297-1.114-.297s-.87.168-1.116.3c-.2.107-.34.184-.67.184s-.47-.074-.67-.18c-.245-.134-.55-.3-1.114-.3s-.87.165-1.115.297c-.2.105-.34.18-.67.18s-.47-.08-.67-.184c-.11-.06-.23-.12-.38-.176l-.41-2.35.19-.08.31-.214.36.09c.13.03.27.01.384-.075l.317-.22.36.09c.13.036.27.01.38-.07l.31-.22.36.094c.14.033.28.01.39-.074l.31-.215.36.093c.136.03.276.01.39-.074l.43-.3c.114-.03.22-.1.29-.21.17-.25.12-.6-.11-.78L6.1 55.75c-.11-.09-.246-.128-.38-.1-.133.02-.252.104-.33.23L.933 62.93c-.16.253-.104.6.125.775.09.07.19.1.29.1h.056l.49.125.117.016c.1 0 .19-.03.27-.087l.32-.22.36.09c.13.03.27 0 .39-.08l.31-.22.36.09c.14.03.28 0 .39-.08l.31-.22.36.09c.14.03.28.01.39-.07l.31-.22.36.09c.09.02.18.01.26-.01l.37 2.07c-.37.04-.6.17-.8.27-.2.11-.34.19-.67.19s-.47-.08-.67-.19c-.24-.13-.55-.3-1.11-.3s-.86.162-1.11.3c-.2.1-.34.18-.67.18-.28 0-.51.25-.51.55 0 .305.23.554.51.554.56 0 .87-.17 1.12-.3.2-.11.34-.184.67-.184s.48.08.67.186c.25.134.55.3 1.12.3.56 0 .87-.166 1.11-.3.178-.09.31-.16.558-.18l.33 2.04H1c-.558 0-1.01.5-1.01 1.11S.44 70.54 1 70.54h29.96c.557 0 1.01-.5 1.01-1.11 0-.403-.198-.755-.49-.95zm-2.558-.16l-.212-2.002c.17.03.284.09.424.164l.27.13c-.01.65-.06 1.24-.11 1.7h-.38zm-.715-6.736l.03.04c.75 1.03 1.05 2.43 1.142 3.76-.194-.09-.437-.17-.79-.19l-.382-3.6zm2.2 5.5c.036.47.054.89.06 1.24h-.15c.038-.36.072-.78.09-1.24zm-3.726-.3h.17l.09 1.55h-.31c-.062-.43-.156-.96-.297-1.56l.34.03zm-1.293.4c.097.43.167.82.22 1.15h-.147c-.008-.33-.03-.72-.073-1.14zm-16.54-.39c.56 0 .867-.16 1.112-.29.198-.1.34-.18.67-.18s.472.08.67.19c.245.13.55.3 1.114.3.56 0 .86-.16 1.11-.3.2-.1.34-.18.67-.18s.47.08.67.19c.24.13.55.3 1.11.3s.87-.16 1.11-.293c.2-.11.34-.183.67-.183s.47.078.67.184c.24.13.55.294 1.11.294s.87-.16 1.11-.294c.2-.11.34-.185.67-.185s.47.08.67.188c.24.13.55.3 1.11.3s.86-.16 1.11-.294l.04-.02c.12.7.16 1.35.18 1.854H8.31l-.297-1.69c.2.08.456.15.818.15zm2.018-5.85l-.16.08-.31.22-.36-.09c-.13-.03-.27 0-.38.08l-.31.22-.36-.09c-.13-.03-.27-.01-.38.07l-.31.22-.36-.09c-.13-.03-.27-.01-.39.07l-.31.22-.36-.09c-.13-.03-.27-.01-.39.07l-.31.22-.36-.09c-.13-.03-.27 0-.38.08l-.31.22-.36-.094c-.13-.035-.27-.01-.39.07l-.31.22-.36-.09c-.13-.035-.27-.01-.38.07l-.31.22-.36-.093-.18-.01L5.93 57l4.943 3.957z" fill="#67737B"/><path d="M13.47 2.867c.362-.336.882-.336 1.244-.03l.016.042c.083.19.26.32.457.32h.07c.195 0 .374-.13.456-.32l.015-.05c.363-.31.883-.31 1.246.03.214.19.532.16.71-.07.18-.24.152-.59-.06-.78-.7-.65-1.68-.68-2.403-.15-.72-.53-1.7-.5-2.4.14-.21.19-.24.55-.06.78.18.23.5.26.71.07zm2.315 1.728c-.214.197-.242.548-.062.783s.498.266.71.068c.16-.145.38-.155.544-.04.086.185.26.3.448.3h.045c.19 0 .362-.116.448-.3.06-.044.132-.07.207-.077.123-.02.243.02.336.11.22.2.54.16.72-.07.18-.24.15-.59-.06-.79-.3-.28-.68-.41-1.07-.38-.21.02-.41.09-.59.2-.52-.32-1.18-.27-1.66.17zm15.68 23.892c-.004-.623-.04-1.49-.162-2.465-.32-2.584-1.06-4.573-2.2-5.914-.357-.42-.75-.77-1.18-1.054L26.783 8.33c.487.254.896.65 1.184 1.15.385.674.506 1.465.343 2.23-.064.3.104.598.375.668l.116.015c.23 0 .44-.173.5-.43.23-1.057.06-2.15-.47-3.076-.36-.64-.87-1.148-1.47-1.492 1.11-.54 2.46-.31 3.34.672.1.11.23.165.36.165.13 0 .26-.053.36-.16.2-.216.2-.568 0-.786-1.17-1.308-2.97-1.622-4.44-.917.44-1.1 1.47-1.87 2.68-1.87.28 0 .51-.25.51-.56 0-.31-.22-.56-.5-.56-1.45 0-2.72.84-3.4 2.1-.67-1.26-1.94-2.1-3.39-2.1-.28 0-.5.25-.5.55 0 .3.228.55.507.55 1.2 0 2.233.77 2.67 1.87-1.475-.71-3.27-.39-4.44.91-.2.21-.2.57 0 .78.1.11.224.16.35.16.13 0 .26-.05.36-.16.88-.99 2.236-1.22 3.34-.67-.6.34-1.11.85-1.474 1.49-.53.92-.7 2.02-.47 3.07.05.26.26.43.49.43l.11-.02c.275-.07.44-.37.378-.67-.165-.77-.043-1.56.34-2.23.3-.53.73-.93 1.244-1.18l.59 10.06c-.45-.11-.924-.17-1.425-.17-2.61 0-4.32-3.51-4.99-5.18 1.02-.38 2.2-.02 2.87.95.1.14.25.22.4.22.105 0 .213-.04.304-.11.225-.19.27-.54.1-.78-.877-1.27-2.367-1.78-3.71-1.42.145-.24.33-.44.544-.62.527-.43 1.184-.61 1.85-.52.278.04.53-.176.565-.48.035-.306-.16-.58-.437-.62-.92-.13-1.84.124-2.58.724-.22.185-.42.394-.6.626-.11-.27-.26-.53-.44-.772-.57-.784-1.4-1.29-2.32-1.42-.28-.04-.53.172-.564.48-.04.3.16.58.435.62.67.093 1.26.455 1.67 1.02.17.23.3.48.39.75-1.22-.73-2.78-.647-3.92.333-.22.19-.26.54-.08.78.17.24.49.288.71.1.82-.703 1.94-.76 2.82-.233-.526.238-.99.61-1.356 1.097-.57.76-.84 1.71-.75 2.683.03.286.246.5.5.5h.05c.28-.03.48-.304.45-.61-.06-.67.12-1.33.52-1.86.4-.54.975-.876 1.62-.96.72 2.073 2.68 6.63 5.96 6.63.564 0 1.08.08 1.54.232l.31 5.33h-.11c-.33 0-.47-.08-.67-.185l-.036-.018c-.13-.4-.28-.82-.46-1.23-1.465-3.46-3.945-5.286-7.17-5.286-4.11 0-6.96-2.7-7.325-6.814.48.05.94.226 1.35.53.6.45.99 1.12 1.12 1.895.04.27.25.46.49.46l.09-.01c.273-.05.455-.34.41-.64-.18-1.07-.727-2-1.55-2.62-.57-.423-1.217-.67-1.89-.72.814-.98 2.14-1.36 3.303-.843.26.11.55-.026.656-.31.11-.287-.02-.61-.275-.725-1.55-.69-3.32-.19-4.41 1.106 0-.39.07-.783.212-1.16.295-.77.85-1.386 1.564-1.73.257-.12.375-.45.264-.73-.11-.28-.41-.41-.666-.29-.955.458-1.7 1.28-2.093 2.317-.134.354-.22.72-.27 1.094-1.07-.856-2.54-1.077-3.87-.44-.253.12-.37.45-.26.73.11.28.41.41.666.29 1.106-.53 2.33-.27 3.13.543-1.604-.003-3.14 1.07-3.745 2.785-.1.28.025.6.285.72l.183.03c.2 0 .39-.135.47-.354.47-1.29 1.63-2.093 2.84-2.08-.43.58-.71 1.27-.815 2.015-.16 1.08.08 2.16.67 3.03.1.143.25.22.4.22.103 0 .21-.04.3-.11.222-.19.27-.54.102-.78-.43-.63-.6-1.41-.49-2.2.093-.67.384-1.284.83-1.76.215 2.16 1.023 4.13 2.33 5.645 1.553 1.81 3.68 2.8 5.99 2.8 1.87 0 3.34.63 4.36 1.87.64.78 1.05 1.72 1.31 2.65l-.24.12c-.195.106-.34.183-.67.183s-.47-.078-.67-.18c-.242-.137-.55-.3-1.11-.3s-.87.16-1.112.293c-.2.1-.34.18-.67.18s-.47-.08-.67-.19c-.25-.13-.55-.3-1.112-.3-.56 0-.864.16-1.11.29-.2.11-.34.19-.67.19s-.47-.08-.67-.19c-.245-.13-.55-.3-1.114-.3s-.87.168-1.116.3c-.2.11-.34.186-.67.186s-.47-.08-.67-.187c-.245-.13-.55-.294-1.114-.294s-.87.164-1.115.3c-.2.104-.34.18-.67.18s-.47-.08-.67-.182c-.11-.06-.23-.125-.38-.18L7.4 22.9l.19-.08.31-.22.36.09c.13.036.27.01.384-.07l.315-.22.36.09c.13.04.27.01.38-.07l.31-.22.36.098c.14.03.28.006.39-.075l.31-.22.36.09c.133.038.273.01.39-.07l.43-.3c.11-.03.22-.1.29-.21.17-.246.12-.594-.11-.774L6.1 15.73c-.11-.088-.245-.124-.38-.1-.132.026-.25.11-.33.23L.94 22.93c-.16.25-.103.597.126.773.09.07.19.1.29.1l.052-.003.49.13.116.014c.095 0 .19-.03.27-.084l.313-.22.36.098c.13.034.27.008.386-.073l.31-.22.36.096c.133.04.272.01.39-.07l.31-.22.36.1c.133.04.272.01.39-.07l.31-.22.36.09c.09.03.18.02.26-.01l.362 2.07c-.37.05-.607.18-.8.28-.2.11-.34.18-.67.18s-.475-.08-.67-.19c-.247-.13-.55-.29-1.116-.29-.56 0-.87.17-1.12.3-.2.11-.35.19-.67.19-.28 0-.51.25-.51.56 0 .31.22.56.5.56.56 0 .87-.16 1.11-.29.2-.1.34-.18.67-.18s.47.08.67.18c.24.14.55.3 1.11.3s.87-.16 1.11-.3c.17-.09.3-.16.55-.17l.35 2.014H1c-.556 0-1.01.496-1.01 1.11s.444 1.105 1 1.105h29.96c.557 0 1.008-.493 1.008-1.11 0-.4-.197-.75-.49-.95zm-2.558-.16l-.212-2.002c.17.03.284.09.424.164l.27.13c-.01.65-.06 1.24-.11 1.7h-.38zm-.715-6.736l.03.04c.75 1.03 1.05 2.43 1.142 3.76-.194-.09-.437-.17-.79-.19l-.382-3.6zm2.2 5.5c.036.47.054.89.06 1.24h-.15c.038-.36.072-.78.09-1.24zm-3.726-.3h.17l.09 1.55h-.31c-.062-.43-.156-.96-.297-1.56l.34.03zm-1.293.4c.097.43.167.82.22 1.15h-.147c-.008-.33-.03-.72-.073-1.14zm-16.54-.39c.56 0 .867-.16 1.112-.29.198-.1.34-.18.67-.18s.472.08.67.19c.245.13.55.3 1.114.3.56 0 .86-.16 1.11-.3.2-.1.34-.18.67-.18s.47.08.67.19c.24.13.55.3 1.11.3s.87-.16 1.11-.293c.2-.11.34-.183.67-.183s.47.078.67.184c.24.13.55.294 1.11.294s.87-.16 1.11-.294c.2-.11.34-.185.67-.185s.47.08.67.188c.24.13.55.3 1.11.3s.86-.16 1.11-.294l.04-.02c.12.7.16 1.35.18 1.854H8.31l-.297-1.69c.2.08.456.15.818.15zm2.018-5.85l-.16.08-.31.22-.36-.09c-.13-.03-.27 0-.38.08l-.31.22-.36-.09c-.13-.03-.27-.01-.38.07l-.31.22-.36-.09c-.13-.03-.27-.01-.39.07l-.31.22-.36-.09c-.13-.03-.27-.01-.39.07l-.31.22-.36-.09c-.13-.03-.27 0-.38.08l-.31.22-.36-.094c-.13-.035-.27-.01-.39.07l-.31.22-.36-.09c-.13-.035-.27-.01-.38.07l-.31.22-.36-.093-.18-.01L5.93 17l4.943 3.957z" fill="#3A434E"/></g></svg>