<svg width="32" height="232" viewBox="0 0 32 232" xmlns="http://www.w3.org/2000/svg"><desc>Created with Sketch.</desc><g fill="none"><path d="M13.47 122.867c.362-.336.882-.336 1.244-.03l.016.042c.083.19.26.32.457.32h.07c.195 0 .374-.13.456-.32l.015-.05c.363-.31.883-.31 1.246.03.214.19.532.16.71-.07.18-.24.152-.59-.06-.78-.7-.65-1.68-.68-2.403-.15-.72-.53-1.7-.5-2.4.14-.21.19-.24.55-.06.78.18.23.5.26.71.07zm2.315 1.728c-.214.197-.242.548-.062.783s.498.266.71.068c.16-.145.38-.155.544-.04.086.185.26.3.448.3h.045c.19 0 .362-.116.448-.3.06-.044.132-.07.207-.077.123-.02.243.02.336.11.22.2.54.16.72-.07.18-.24.15-.59-.06-.79-.3-.28-.68-.41-1.07-.38-.21.02-.41.09-.59.2-.52-.32-1.18-.27-1.66.17zm15.68 23.892c-.004-.623-.04-1.49-.162-2.465-.32-2.584-1.06-4.573-2.2-5.914-.357-.42-.75-.77-1.18-1.054l-1.14-10.724c.487.254.896.65 1.184 1.15.385.674.506 1.465.343 2.23-.064.3.104.598.375.668l.116.015c.23 0 .44-.173.5-.43.23-1.057.06-2.15-.47-3.076-.36-.64-.87-1.148-1.47-1.492 1.11-.54 2.46-.31 3.34.672.1.11.23.165.36.165.13 0 .26-.053.36-.16.2-.216.2-.568 0-.786-1.17-1.308-2.97-1.622-4.44-.917.44-1.1 1.47-1.87 2.68-1.87.28 0 .51-.25.51-.56 0-.31-.22-.56-.5-.56-1.456 0-2.725.84-3.4 2.1-.672-1.26-1.94-2.1-3.393-2.1-.28 0-.504.25-.504.55 0 .3.225.55.504.55 1.2 0 2.233.77 2.67 1.87-1.475-.71-3.27-.39-4.44.91-.2.21-.2.57 0 .78.1.11.224.16.35.16.13 0 .26-.05.36-.16.88-.99 2.236-1.22 3.34-.67-.6.34-1.11.85-1.474 1.49-.53.92-.7 2.02-.47 3.07.05.26.26.43.49.43l.112-.02c.273-.07.44-.37.376-.67-.166-.77-.044-1.56.34-2.23.3-.528.73-.93 1.243-1.18l.59 10.06c-.45-.11-.924-.17-1.425-.17-2.61 0-4.323-3.505-4.993-5.18 1.02-.376 2.2-.02 2.87.954.1.145.25.22.4.22.107 0 .215-.037.306-.11.228-.19.27-.538.1-.78-.874-1.268-2.364-1.78-3.71-1.42.148-.237.33-.44.547-.62.526-.43 1.183-.61 1.85-.517.277.04.53-.173.564-.48.037-.303-.16-.58-.435-.62-.92-.13-1.84.127-2.58.727-.22.185-.42.394-.6.626-.11-.27-.26-.53-.44-.772-.57-.784-1.4-1.29-2.32-1.42-.28-.04-.53.172-.563.48-.04.3.16.58.433.62.67.093 1.26.455 1.67 1.02.17.23.3.48.39.75-1.22-.73-2.78-.647-3.92.333-.22.19-.26.54-.08.78.17.24.49.286.71.098.82-.704 1.94-.76 2.82-.234-.525.236-.99.61-1.355 1.095-.57.76-.84 1.71-.748 2.684.03.287.247.5.503.5h.05c.28-.03.48-.303.45-.61-.06-.67.12-1.33.52-1.86.4-.54.975-.875 1.62-.96.72 2.074 2.68 6.63 5.96 6.63.564 0 1.08.08 1.54.233l.31 5.33H26.7c-.33 0-.47-.077-.67-.183l-.037-.015c-.13-.4-.28-.82-.46-1.23-1.466-3.46-3.946-5.284-7.17-5.284-4.11 0-6.962-2.7-7.326-6.815.48.05.942.228 1.35.53.6.45.992 1.12 1.12 1.897.04.27.253.46.493.46l.09-.01c.274-.05.456-.34.41-.64-.178-1.07-.726-2-1.548-2.62-.568-.424-1.217-.67-1.89-.72.814-.98 2.14-1.36 3.303-.844.26.11.55-.027.656-.31.107-.288-.02-.61-.276-.726-1.55-.69-3.32-.19-4.41 1.104 0-.39.07-.784.212-1.16.297-.77.85-1.387 1.566-1.73.256-.12.374-.45.263-.73-.11-.28-.41-.41-.665-.29-.957.457-1.7 1.28-2.095 2.316-.134.352-.22.72-.27 1.092-1.07-.856-2.54-1.077-3.87-.44-.253.12-.37.45-.26.73.11.28.41.41.666.29 1.105-.53 2.33-.27 3.13.543-1.605-.005-3.14 1.07-3.746 2.783-.1.28.024.6.284.72l.184.03c.2 0 .39-.137.47-.356.455-1.29 1.615-2.09 2.82-2.08-.43.58-.71 1.27-.814 2.02-.157 1.08.083 2.16.67 3.03.1.145.25.223.404.223.102 0 .21-.034.3-.11.22-.18.27-.53.1-.78-.43-.63-.6-1.41-.49-2.19.095-.67.386-1.284.83-1.76.22 2.16 1.025 4.13 2.33 5.645 1.555 1.805 3.68 2.8 5.99 2.8 1.87 0 3.336.63 4.36 1.864.644.78 1.053 1.72 1.31 2.65l-.236.12c-.195.105-.34.182-.67.182s-.47-.076-.67-.182c-.24-.13-.55-.3-1.11-.3s-.87.167-1.113.3c-.2.104-.34.18-.67.18s-.47-.08-.67-.185c-.246-.13-.55-.294-1.114-.294s-.87.167-1.114.3c-.196.103-.34.18-.67.18s-.47-.08-.67-.19c-.242-.13-.55-.296-1.11-.296s-.867.16-1.113.293c-.2.1-.34.18-.67.18s-.47-.08-.67-.184c-.24-.14-.55-.3-1.11-.3s-.87.16-1.11.293c-.2.106-.34.18-.67.18s-.47-.08-.67-.18c-.11-.06-.23-.12-.38-.177l-.41-2.35.19-.08.31-.217.36.092c.13.036.27.01.38-.07l.312-.22.36.09c.13.04.27.01.38-.07l.31-.22.36.094c.137.036.276.01.39-.07l.31-.22.36.09c.135.03.275.01.39-.076l.43-.3c.11-.03.22-.1.29-.214.166-.25.116-.596-.11-.776l-6.32-5.06c-.11-.086-.246-.122-.38-.1-.133.028-.252.11-.33.23l-4.45 7.09c-.16.25-.103.6.126.775.09.07.19.1.29.1l.057-.008.49.12.117.01c.1 0 .19-.03.27-.087l.318-.22.36.095c.13.035.27.01.383-.072l.31-.22.36.1c.13.03.27.01.38-.074l.31-.22.36.097c.13.03.27.01.388-.07l.31-.22.36.09c.09.02.178.015.26-.01l.366 2.07c-.37.046-.607.17-.8.28-.2.1-.34.18-.67.18s-.475-.08-.67-.184c-.247-.13-.55-.296-1.116-.296-.56 0-.86.166-1.11.3-.2.11-.34.184-.67.184-.28 0-.504.25-.504.553 0 .304.228.553.507.553.56 0 .866-.166 1.11-.3.2-.107.34-.184.67-.184s.47.075.67.18c.246.13.55.295 1.115.295s.87-.16 1.113-.293c.17-.09.307-.16.55-.18l.35 2.015H.99c-.557 0-1.01.493-1.01 1.11s.453 1.11 1.01 1.11h29.96c.557 0 1.008-.5 1.008-1.11 0-.405-.196-.757-.488-.95zm-2.558-.16l-.212-2.002c.17.03.284.09.424.164l.27.13c-.01.65-.06 1.24-.11 1.7h-.38zm-.715-6.736l.03.04c.75 1.03 1.05 2.43 1.142 3.76-.194-.09-.437-.17-.79-.19l-.382-3.6zm2.2 5.5c.036.47.054.89.06 1.24h-.15c.038-.36.072-.78.09-1.24zm-3.726-.3h.17l.09 1.55h-.31c-.062-.43-.156-.96-.297-1.56l.34.03zm-1.293.4c.097.43.167.82.22 1.15h-.147c-.008-.33-.03-.72-.073-1.14zm-16.54-.39c.56 0 .867-.16 1.112-.29.198-.1.34-.18.67-.18s.472.08.67.19c.245.13.55.3 1.114.3.56 0 .86-.16 1.11-.3.2-.11.34-.18.67-.18s.47.08.67.186c.24.13.55.296 1.11.296s.87-.164 1.11-.297c.2-.11.34-.185.67-.185s.47.075.67.18c.24.13.55.296 1.11.296s.87-.16 1.11-.295c.2-.11.34-.184.67-.184s.47.08.67.185c.24.13.55.295 1.11.295s.86-.162 1.11-.295l.04-.02c.12.7.16 1.35.18 1.853H8.31l-.297-1.69c.2.08.456.15.818.15zm2.018-5.85l-.16.08-.31.22-.36-.09c-.13-.03-.27 0-.38.08l-.31.22-.36-.09c-.13-.03-.27 0-.38.08l-.31.22-.36-.1c-.13-.033-.27-.01-.39.07l-.31.22-.36-.092c-.13-.034-.27-.01-.39.07l-.31.22-.36-.09c-.13-.03-.27-.01-.38.07l-.31.22-.36-.093c-.13-.032-.27-.01-.39.075l-.31.22-.36-.09c-.13-.035-.27-.01-.38.07l-.31.22-.36-.093-.18-.01L5.93 137l4.942 3.957z" fill="#206FAC"/><path d="M13.47 82.867c.362-.336.882-.336 1.244-.03l.016.042c.083.19.26.32.457.32h.07c.195 0 .374-.13.456-.32l.015-.05c.363-.31.883-.31 1.246.03.214.19.532.16.71-.07.18-.24.152-.59-.06-.78-.7-.65-1.68-.68-2.403-.15-.72-.53-1.7-.5-2.4.14-.21.19-.24.55-.06.78.18.23.5.26.71.07zm2.315 1.728c-.214.197-.242.548-.062.783s.498.266.71.068c.16-.145.38-.155.544-.04.086.185.26.3.448.3h.045c.19 0 .362-.116.448-.3.06-.044.132-.07.207-.077.123-.02.243.02.336.11.22.2.54.16.72-.07.18-.24.15-.59-.06-.79-.3-.28-.68-.41-1.07-.38-.21.02-.41.09-.59.2-.52-.32-1.18-.27-1.66.17zm15.68 23.892c-.004-.623-.04-1.49-.162-2.465-.32-2.584-1.06-4.573-2.2-5.914-.357-.42-.75-.77-1.18-1.054l-1.14-10.724c.487.254.896.65 1.184 1.15.385.674.506 1.465.343 2.23-.064.3.104.598.375.668l.116.015c.23 0 .44-.173.5-.43.23-1.057.06-2.15-.47-3.076-.36-.64-.87-1.148-1.47-1.492 1.11-.54 2.46-.31 3.34.672.1.11.23.165.36.165.13 0 .26-.053.36-.16.2-.216.2-.568 0-.786-1.17-1.308-2.97-1.622-4.44-.917.44-1.1 1.47-1.87 2.68-1.87.28 0 .51-.25.51-.56 0-.31-.22-.56-.5-.56-1.456 0-2.725.84-3.4 2.1-.672-1.26-1.94-2.1-3.393-2.1-.28 0-.504.25-.504.55 0 .3.225.55.504.55 1.2 0 2.233.77 2.67 1.87-1.475-.71-3.27-.39-4.44.91-.2.21-.2.57 0 .78.1.11.224.16.35.16.13 0 .26-.05.36-.16.88-.99 2.236-1.22 3.34-.67-.6.34-1.11.85-1.474 1.49-.53.92-.7 2.02-.47 3.07.05.26.26.43.49.43l.112-.02c.273-.07.44-.37.376-.67-.166-.77-.044-1.56.34-2.23.3-.528.73-.93 1.243-1.18l.59 10.06c-.45-.11-.924-.17-1.425-.17-2.61 0-4.323-3.505-4.993-5.18 1.02-.376 2.2-.02 2.87.954.1.145.25.22.4.22.107 0 .215-.037.306-.11.228-.19.27-.538.1-.78-.874-1.268-2.364-1.78-3.71-1.42.148-.237.33-.44.547-.62.526-.43 1.183-.61 1.85-.517.277.04.53-.173.564-.48.037-.303-.16-.58-.435-.62-.92-.13-1.84.127-2.58.727-.22.185-.42.394-.6.626-.11-.27-.26-.53-.44-.772-.57-.784-1.4-1.29-2.32-1.42-.28-.04-.53.172-.563.48-.04.3.16.58.433.62.67.093 1.26.455 1.67 1.02.17.23.3.48.39.75-1.22-.73-2.78-.647-3.92.333-.22.19-.26.54-.08.78.17.24.49.286.71.098.82-.704 1.94-.76 2.82-.234-.525.236-.99.61-1.355 1.095-.57.76-.84 1.71-.748 2.684.03.287.247.5.503.5h.05c.28-.03.48-.303.45-.61-.06-.67.12-1.33.52-1.86.4-.54.975-.875 1.62-.96.72 2.074 2.68 6.63 5.96 6.63.564 0 1.08.08 1.54.233l.31 5.33H26.7c-.33 0-.47-.077-.67-.183l-.037-.015c-.13-.4-.28-.82-.46-1.23-1.466-3.46-3.946-5.284-7.17-5.284-4.11 0-6.962-2.7-7.326-6.815.48.05.942.228 1.35.53.6.45.992 1.12 1.12 1.897.04.27.253.46.493.46l.09-.01c.274-.05.456-.34.41-.64-.178-1.07-.726-2-1.548-2.62-.568-.424-1.217-.67-1.89-.72.814-.98 2.14-1.36 3.303-.844.26.11.55-.027.656-.31.107-.288-.02-.61-.276-.726-1.55-.69-3.32-.19-4.41 1.104 0-.39.07-.784.212-1.16.297-.77.85-1.387 1.566-1.73.256-.12.374-.45.263-.73-.11-.28-.41-.41-.665-.29-.957.457-1.7 1.28-2.095 2.316-.134.352-.22.72-.27 1.092-1.07-.856-2.54-1.077-3.87-.44-.253.12-.37.45-.26.73.11.28.41.41.666.29 1.105-.53 2.33-.27 3.13.543-1.605-.005-3.14 1.07-3.746 2.783-.1.28.024.6.284.72l.184.03c.2 0 .39-.137.47-.356.47-1.29 1.63-2.094 2.84-2.08-.43.58-.71 1.27-.815 2.014-.156 1.08.084 2.16.673 3.03.1.145.25.223.4.223.103 0 .21-.04.3-.11.222-.19.27-.54.102-.78-.43-.63-.6-1.41-.49-2.2.093-.67.384-1.285.83-1.76.215 2.16 1.023 4.13 2.33 5.644 1.553 1.81 3.68 2.8 5.99 2.8 1.87 0 3.34.63 4.36 1.87.64.78 1.05 1.72 1.31 2.65l-.24.12c-.195.106-.34.183-.67.183s-.47-.077-.67-.18c-.242-.136-.55-.3-1.11-.3s-.87.162-1.112.294c-.2.1-.34.18-.67.18s-.47-.08-.67-.19c-.25-.133-.55-.3-1.114-.3-.56 0-.865.16-1.11.29-.2.11-.34.187-.67.187s-.47-.08-.67-.184c-.246-.133-.55-.298-1.115-.298s-.87.164-1.114.296c-.2.11-.34.185-.67.185s-.47-.08-.67-.188c-.244-.13-.55-.292-1.113-.292s-.87.164-1.114.3c-.2.104-.34.18-.67.18s-.47-.08-.67-.182c-.11-.06-.23-.126-.38-.18l-.41-2.35.19-.08.31-.22.36.09c.13.035.27.01.382-.07l.316-.22.36.09c.13.038.27.01.382-.07l.31-.22.36.097c.14.03.28.006.39-.075l.31-.22.36.09c.137.038.277.01.39-.07l.43-.3c.115-.03.22-.1.29-.21.17-.246.12-.594-.11-.774L6.1 95.73c-.11-.088-.245-.124-.38-.1-.132.026-.25.11-.33.23l-4.48 7.08c-.16.253-.1.6.127.775.085.067.186.1.285.1l.057-.005.49.127.11.015c.09 0 .19-.03.27-.09l.31-.22.36.096c.13.034.27.008.38-.073l.31-.22.36.095c.13.032.27.01.39-.074l.31-.22.36.095c.13.04.27.01.39-.07l.31-.22.36.1c.08.02.17.02.26-.01l.36 2.07c-.37.05-.61.17-.8.28-.2.11-.34.19-.67.19s-.48-.08-.67-.18c-.25-.13-.55-.29-1.12-.29s-.87.17-1.12.3c-.2.11-.35.18-.67.18-.28 0-.51.25-.51.56 0 .31.22.56.5.56.56 0 .87-.162 1.11-.295.2-.11.34-.185.67-.185s.474.074.67.18c.246.13.55.294 1.115.294s.87-.165 1.116-.3c.17-.09.304-.16.55-.174l.35 2.017H.987c-.555 0-1.01.5-1.01 1.11s.455 1.11 1.01 1.11h29.96c.56 0 1.01-.49 1.01-1.11 0-.4-.196-.75-.49-.95zm-2.558-.16l-.212-2.002c.17.03.284.09.424.164l.27.13c-.01.65-.06 1.24-.11 1.7h-.38zm-.715-6.736l.03.04c.75 1.03 1.05 2.43 1.142 3.76-.194-.09-.437-.17-.79-.19l-.382-3.6zm2.2 5.5c.036.47.054.89.06 1.24h-.15c.038-.36.072-.78.09-1.24zm-3.726-.3h.17l.09 1.55h-.31c-.062-.43-.156-.96-.297-1.56l.34.03zm-1.293.4c.097.43.167.82.22 1.15h-.147c-.008-.33-.03-.72-.073-1.14zm-16.54-.39c.56 0 .867-.16 1.112-.29.198-.1.34-.18.67-.18s.472.08.67.19c.245.13.55.3 1.114.3.56 0 .86-.16 1.11-.3.2-.11.34-.18.67-.18s.47.08.67.186c.24.13.55.296 1.11.296s.87-.164 1.11-.297c.2-.11.34-.185.67-.185s.47.075.67.18c.24.13.55.296 1.11.296s.87-.16 1.11-.295c.2-.11.34-.184.67-.184s.47.08.67.185c.24.13.55.295 1.11.295s.86-.162 1.11-.295l.04-.02c.12.7.16 1.35.18 1.853H8.31l-.297-1.69c.2.08.456.15.818.15zm2.018-5.85l-.16.08-.31.22-.36-.09c-.13-.03-.27 0-.38.08l-.31.22-.36-.09c-.13-.03-.27 0-.38.08l-.31.22-.36-.1c-.13-.033-.27-.01-.39.07l-.31.22-.36-.092c-.13-.034-.27-.01-.39.07l-.31.22-.36-.09c-.13-.03-.27-.01-.38.07l-.31.22-.36-.093c-.13-.032-.27-.01-.39.075l-.31.22-.36-.09c-.13-.035-.27-.01-.38.07l-.31.22-.36-.093-.18-.01L5.93 97l4.94 3.957z" fill="#fff"/><path d="M13.47 42.867c.362-.336.882-.336 1.244-.03l.016.042c.083.19.26.32.457.32h.07c.195 0 .374-.13.456-.32l.015-.05c.363-.31.883-.31 1.246.03.214.19.532.16.71-.07.18-.24.152-.59-.06-.78-.7-.65-1.68-.68-2.403-.15-.72-.53-1.7-.5-2.4.14-.21.19-.24.55-.06.78.18.23.5.26.71.07zm2.315 1.728c-.214.197-.242.548-.062.783s.498.266.71.068c.16-.145.38-.155.544-.04.086.185.26.3.448.3h.045c.19 0 .362-.116.448-.3.06-.044.132-.07.207-.077.123-.02.243.02.336.11.22.2.54.16.72-.07.18-.24.15-.59-.06-.79-.3-.28-.68-.41-1.07-.38-.21.02-.41.09-.59.2-.52-.32-1.18-.27-1.66.17zm15.68 23.892c-.004-.623-.04-1.49-.162-2.465-.32-2.584-1.06-4.573-2.2-5.914-.357-.42-.75-.77-1.18-1.054l-1.14-10.724c.487.254.896.65 1.184 1.15.385.674.506 1.465.343 2.23-.064.3.104.598.375.668l.116.015c.23 0 .44-.173.5-.43.23-1.057.06-2.15-.47-3.076-.36-.64-.87-1.148-1.47-1.492 1.11-.54 2.46-.31 3.34.672.1.11.23.165.36.165.13 0 .26-.053.36-.16.2-.216.2-.568 0-.786-1.17-1.308-2.97-1.622-4.44-.917.44-1.1 1.47-1.87 2.68-1.87.28 0 .51-.25.51-.56 0-.31-.22-.56-.5-.56-1.456 0-2.725.84-3.4 2.1-.672-1.26-1.94-2.1-3.393-2.1-.28 0-.504.25-.504.55 0 .3.225.55.504.55 1.2 0 2.233.77 2.67 1.87-1.475-.71-3.27-.39-4.44.91-.2.21-.2.57 0 .78.1.11.224.16.35.16.13 0 .26-.05.36-.16.88-.99 2.236-1.22 3.34-.67-.6.34-1.11.85-1.474 1.49-.53.92-.7 2.02-.47 3.07.05.26.26.43.49.43l.112-.02c.273-.07.44-.37.376-.67-.166-.77-.044-1.56.34-2.23.3-.528.73-.93 1.243-1.18l.59 10.06c-.45-.11-.924-.17-1.425-.17-2.61 0-4.323-3.505-4.993-5.18 1.02-.376 2.2-.02 2.87.954.1.145.25.22.4.22.107 0 .215-.037.306-.11.228-.19.27-.538.1-.78-.874-1.268-2.364-1.78-3.71-1.42.148-.237.33-.44.547-.62.526-.43 1.183-.61 1.85-.517.277.04.53-.173.564-.48.037-.303-.16-.58-.435-.62-.92-.13-1.84.127-2.58.727-.22.185-.42.394-.6.626-.11-.27-.26-.53-.44-.772-.57-.784-1.4-1.29-2.32-1.42-.28-.04-.53.172-.563.48-.04.3.16.58.433.62.67.093 1.26.455 1.67 1.02.17.23.3.48.39.75-1.22-.73-2.78-.647-3.92.333-.22.19-.26.54-.08.78.17.24.49.286.71.098.82-.704 1.94-.76 2.82-.234-.525.236-.99.61-1.355 1.095-.57.76-.84 1.71-.748 2.684.03.287.247.5.503.5h.05c.28-.03.48-.303.45-.61-.06-.67.12-1.33.52-1.86.4-.54.975-.875 1.62-.96.72 2.074 2.68 6.63 5.96 6.63.564 0 1.08.08 1.54.233l.31 5.33H26.7c-.33 0-.47-.077-.67-.183l-.037-.015c-.13-.4-.28-.82-.46-1.23-1.466-3.46-3.946-5.284-7.17-5.284-4.11 0-6.962-2.7-7.326-6.815.48.05.942.228 1.35.53.6.45.992 1.12 1.12 1.897.04.27.253.46.493.46l.09-.01c.274-.05.456-.34.41-.64-.178-1.07-.726-2-1.548-2.62-.568-.424-1.217-.67-1.89-.72.814-.98 2.14-1.36 3.303-.844.26.11.55-.027.656-.31.107-.288-.02-.61-.276-.726-1.55-.69-3.32-.19-4.41 1.104 0-.39.07-.784.212-1.163.297-.77.85-1.388 1.566-1.73.256-.12.374-.45.263-.73-.11-.28-.41-.41-.665-.29-.957.457-1.7 1.28-2.095 2.316-.134.36-.22.722-.27 1.1-1.07-.85-2.54-1.08-3.87-.44-.253.12-.37.45-.26.73.11.28.41.41.666.29 1.105-.53 2.33-.27 3.13.54-1.605-.005-3.14 1.07-3.746 2.783-.1.29.024.61.284.72l.184.04c.2 0 .39-.14.47-.36.47-1.3 1.63-2.1 2.84-2.09-.43.58-.71 1.27-.815 2.016-.156 1.088.084 2.16.673 3.03.1.15.25.23.4.23.103 0 .21-.03.3-.11.222-.18.27-.53.102-.77-.43-.63-.6-1.41-.49-2.2.093-.67.384-1.28.83-1.76.215 2.16 1.023 4.14 2.33 5.65 1.553 1.807 3.68 2.8 5.99 2.8 1.87 0 3.34.628 4.36 1.86.64.78 1.05 1.72 1.31 2.65l-.24.12c-.195.11-.34.18-.67.18s-.47-.08-.67-.18c-.242-.13-.55-.295-1.11-.295s-.87.163-1.112.295c-.2.11-.34.187-.67.187s-.47-.08-.67-.186c-.25-.13-.55-.295-1.114-.295-.56 0-.865.163-1.11.295-.2.102-.34.18-.67.18s-.47-.08-.67-.184c-.246-.13-.55-.297-1.115-.297s-.87.166-1.114.3c-.2.105-.34.182-.67.182s-.47-.074-.67-.18c-.244-.134-.55-.3-1.113-.3s-.87.165-1.114.297c-.2.103-.34.18-.67.18s-.47-.08-.67-.186c-.11-.06-.23-.12-.38-.174l-.41-2.35.19-.08.31-.215.36.09c.13.03.27.01.382-.076l.316-.22.36.09c.13.035.27.01.382-.072l.31-.22.36.094c.14.034.28.01.39-.073l.31-.215.36.095c.137.03.277.01.39-.073l.43-.3c.115-.03.22-.1.29-.21.17-.25.12-.6-.11-.78L6.1 55.75c-.11-.09-.246-.128-.38-.1-.133.02-.252.104-.33.23L.933 62.93c-.16.253-.104.6.125.775.09.07.19.1.29.1h.056l.49.125.117.016c.1 0 .19-.03.27-.087l.32-.22.36.09c.13.03.27 0 .39-.08l.31-.22.36.09c.14.03.28 0 .39-.08l.31-.22.36.09c.14.03.28.01.39-.07l.31-.22.36.09c.09.02.18.01.26-.01l.37 2.07c-.37.04-.6.17-.8.27-.2.11-.34.19-.67.19s-.47-.08-.67-.186c-.24-.13-.55-.297-1.11-.297s-.86.165-1.11.3c-.2.104-.34.18-.67.18-.28 0-.51.25-.51.553 0 .306.23.555.51.555.56 0 .87-.17 1.118-.3.2-.11.34-.184.67-.184s.473.08.67.185c.245.134.55.3 1.114.3.56 0 .87-.166 1.11-.3.176-.09.308-.16.556-.18l.33 2.04H1c-.558 0-1.01.5-1.01 1.11S.44 70.54 1 70.54h29.96c.557 0 1.01-.5 1.01-1.11 0-.403-.198-.755-.49-.95zm-2.558-.16l-.212-2.002c.17.03.284.09.424.164l.27.13c-.01.65-.06 1.24-.11 1.7h-.38zm-.715-6.736l.03.04c.75 1.03 1.05 2.43 1.142 3.76-.194-.09-.437-.17-.79-.19l-.382-3.6zm2.2 5.5c.036.47.054.89.06 1.24h-.15c.038-.36.072-.78.09-1.24zm-3.726-.3h.17l.09 1.55h-.31c-.062-.43-.156-.96-.297-1.56l.34.03zm-1.293.4c.097.43.167.82.22 1.15h-.147c-.008-.33-.03-.72-.073-1.14zm-16.54-.39c.56 0 .867-.16 1.112-.29.198-.1.34-.18.67-.18s.472.08.67.19c.245.13.55.3 1.114.3.56 0 .86-.16 1.11-.3.2-.1.34-.18.67-.18s.47.08.67.19c.24.13.55.292 1.11.292s.87-.162 1.11-.295c.2-.11.34-.183.67-.183s.47.078.67.184c.24.13.55.294 1.11.294s.87-.162 1.11-.295c.2-.11.34-.184.67-.184s.47.08.67.187c.24.13.55.3 1.11.3s.86-.165 1.11-.298l.04-.02c.12.7.16 1.35.18 1.856H8.31l-.297-1.69c.2.08.456.15.818.15zm2.018-5.85l-.16.08-.31.22-.36-.09c-.13-.03-.27 0-.38.08l-.31.22-.36-.09c-.13-.03-.27-.01-.38.07l-.31.22-.36-.09c-.13-.036-.27-.01-.39.07l-.31.22-.36-.095c-.13-.03-.27-.01-.39.07l-.31.22-.36-.09c-.13-.03-.27-.004-.38.076l-.31.22-.36-.095c-.13-.035-.27-.01-.39.07l-.31.22-.36-.09c-.13-.035-.27-.01-.38.07l-.31.22-.36-.093-.18-.01L5.93 57l4.943 3.957z" fill="#67737B"/><path d="M13.47 2.867c.362-.336.882-.336 1.244-.03l.016.042c.083.19.26.32.457.32h.07c.195 0 .374-.13.456-.32l.015-.05c.363-.31.883-.31 1.246.03.214.19.532.16.71-.07.18-.24.152-.59-.06-.78-.7-.65-1.68-.68-2.403-.15-.72-.53-1.7-.5-2.4.14-.21.19-.24.55-.06.78.18.23.5.26.71.07zm2.315 1.728c-.214.197-.242.548-.062.783s.498.266.71.068c.16-.145.38-.155.544-.04.086.185.26.3.448.3h.045c.19 0 .362-.116.448-.3.06-.044.132-.07.207-.077.123-.02.243.02.336.11.22.2.54.16.72-.07.18-.24.15-.59-.06-.79-.3-.28-.68-.41-1.07-.38-.21.02-.41.09-.59.2-.52-.32-1.18-.27-1.66.17zm15.68 23.892c-.004-.623-.04-1.49-.162-2.465-.32-2.584-1.06-4.573-2.2-5.914-.357-.42-.75-.77-1.18-1.054L26.783 8.33c.487.254.896.65 1.184 1.15.385.674.506 1.465.343 2.23-.064.3.104.598.375.668l.116.015c.23 0 .44-.173.5-.43.23-1.057.06-2.15-.47-3.076-.36-.64-.87-1.148-1.47-1.492 1.11-.54 2.46-.31 3.34.672.1.11.23.165.36.165.13 0 .26-.053.36-.16.2-.216.2-.568 0-.786-1.17-1.308-2.97-1.622-4.44-.917.44-1.1 1.47-1.87 2.68-1.87.28 0 .51-.25.51-.56 0-.31-.22-.56-.5-.56-1.456 0-2.725.84-3.4 2.1-.672-1.26-1.94-2.1-3.393-2.1-.28 0-.504.25-.504.55 0 .3.225.55.504.55 1.2 0 2.233.77 2.67 1.87-1.475-.71-3.27-.39-4.44.91-.2.21-.2.57 0 .78.1.11.224.16.35.16.13 0 .26-.05.36-.16.88-.99 2.236-1.22 3.34-.67-.6.34-1.11.85-1.474 1.49-.53.92-.7 2.02-.47 3.07.05.26.26.43.49.43l.112-.02c.273-.07.44-.37.376-.67-.166-.77-.044-1.56.34-2.23.3-.528.73-.93 1.243-1.18l.59 10.06c-.45-.11-.924-.17-1.425-.17-2.61 0-4.323-3.505-4.993-5.18 1.02-.376 2.2-.02 2.87.954.1.145.25.22.4.22.107 0 .215-.037.306-.11.228-.19.27-.538.1-.78-.874-1.268-2.364-1.78-3.71-1.42.148-.237.33-.44.547-.62.526-.43 1.183-.61 1.85-.517.277.04.53-.173.564-.48.037-.303-.16-.58-.435-.62-.92-.13-1.84.127-2.58.727-.22.185-.42.394-.6.626-.11-.27-.26-.53-.44-.772-.57-.784-1.4-1.29-2.32-1.42-.28-.04-.53.172-.563.48-.04.3.16.58.433.62.67.093 1.26.455 1.67 1.02.17.23.3.48.39.75-1.22-.73-2.78-.647-3.92.333-.22.19-.26.54-.08.78.17.24.49.286.71.098.82-.704 1.94-.76 2.82-.234-.525.236-.99.61-1.355 1.095-.57.76-.84 1.71-.748 2.684.03.287.247.5.503.5h.05c.28-.03.48-.303.45-.61-.06-.67.12-1.33.52-1.86.4-.54.975-.875 1.62-.96.72 2.074 2.68 6.63 5.96 6.63.564 0 1.08.08 1.54.233l.31 5.33H26.7c-.33 0-.47-.077-.67-.183l-.037-.015c-.13-.4-.28-.82-.46-1.23-1.466-3.46-3.946-5.284-7.17-5.284-4.11 0-6.962-2.7-7.326-6.815.48.05.942.228 1.35.53.6.45.992 1.12 1.12 1.897.04.27.253.46.493.46l.09-.01c.274-.05.456-.34.41-.64-.178-1.07-.726-2-1.548-2.62-.568-.424-1.217-.67-1.89-.72.814-.98 2.14-1.36 3.303-.844.26.11.55-.027.656-.31.107-.288-.02-.61-.276-.726-1.55-.69-3.32-.19-4.41 1.104 0-.39.07-.784.212-1.16.297-.77.85-1.387 1.566-1.73.256-.12.374-.45.263-.73-.11-.28-.41-.41-.665-.29-.957.457-1.7 1.28-2.095 2.316-.134.352-.22.72-.27 1.092-1.07-.856-2.54-1.077-3.87-.44-.253.12-.37.45-.26.73.11.28.41.41.666.29 1.105-.53 2.33-.27 3.13.543-1.605-.005-3.14 1.07-3.746 2.783-.1.28.024.6.284.72l.184.03c.2 0 .39-.137.47-.356.47-1.29 1.63-2.094 2.84-2.08-.43.58-.71 1.27-.815 2.014-.156 1.08.084 2.16.673 3.03.1.145.25.223.4.223.103 0 .21-.04.3-.11.222-.19.27-.54.102-.78-.43-.63-.6-1.41-.49-2.2.093-.67.384-1.285.83-1.76.215 2.16 1.023 4.13 2.33 5.644 1.553 1.81 3.68 2.8 5.99 2.8 1.87 0 3.34.63 4.36 1.87.64.78 1.05 1.72 1.31 2.65l-.24.12c-.195.106-.34.183-.67.183s-.47-.077-.67-.18c-.242-.136-.55-.3-1.11-.3s-.87.162-1.112.294c-.2.1-.34.18-.67.18s-.47-.08-.67-.19c-.25-.133-.55-.3-1.114-.3-.56 0-.865.16-1.11.29-.2.11-.34.187-.67.187s-.47-.08-.67-.184c-.246-.133-.55-.298-1.115-.298s-.87.164-1.114.296c-.2.11-.34.185-.67.185s-.47-.08-.67-.188c-.244-.13-.55-.292-1.113-.292s-.87.164-1.114.3c-.2.104-.34.18-.67.18s-.47-.08-.67-.182c-.11-.06-.23-.126-.38-.18l-.41-2.35.19-.08.31-.22.36.09c.13.035.27.01.382-.07l.316-.22.36.09c.13.038.27.01.382-.07l.31-.22.36.097c.14.03.28.006.39-.075l.31-.22.36.09c.137.038.277.01.39-.07l.43-.3c.115-.03.22-.1.29-.21.17-.246.12-.594-.11-.774L6.1 15.73c-.11-.088-.245-.124-.38-.1-.132.026-.25.11-.33.23L.94 22.93c-.16.25-.103.597.126.773.09.07.19.1.29.1l.052-.003.49.13.116.014c.095 0 .19-.03.27-.084l.313-.22.36.098c.13.034.27.008.386-.073l.31-.22.36.096c.133.04.272.01.39-.07l.31-.22.36.1c.133.04.272.01.39-.07l.31-.22.36.09c.09.03.18.02.26-.01l.362 2.07c-.37.05-.607.18-.8.28-.2.11-.34.18-.67.18s-.475-.08-.67-.19c-.247-.13-.55-.29-1.116-.29-.56 0-.87.17-1.12.3-.2.11-.35.19-.67.19-.28 0-.51.25-.51.56 0 .31.22.56.5.56.56 0 .87-.16 1.11-.294.2-.104.34-.18.67-.18s.47.076.67.18c.24.136.55.3 1.11.3s.87-.164 1.11-.3c.17-.09.3-.16.55-.175l.35 2.013H1c-.556 0-1.01.496-1.01 1.11s.444 1.105 1 1.105h29.96c.557 0 1.008-.493 1.008-1.11 0-.4-.197-.752-.49-.95zm-2.558-.16l-.212-2.002c.17.03.284.09.424.164l.27.13c-.01.65-.06 1.24-.11 1.7h-.38zm-.715-6.736l.03.04c.75 1.03 1.05 2.43 1.142 3.76-.194-.09-.437-.17-.79-.19l-.382-3.6zm2.2 5.5c.036.47.054.89.06 1.24h-.15c.038-.36.072-.78.09-1.24zm-3.726-.3h.17l.09 1.55h-.31c-.062-.43-.156-.96-.297-1.56l.34.03zm-1.293.4c.097.43.167.82.22 1.15h-.147c-.008-.33-.03-.72-.073-1.14zm-16.54-.39c.56 0 .867-.16 1.112-.29.198-.1.34-.18.67-.18s.472.08.67.19c.245.13.55.3 1.114.3.56 0 .86-.16 1.11-.3.2-.1.34-.18.67-.18s.47.08.67.19c.24.13.55.292 1.11.292s.87-.162 1.11-.295c.2-.11.34-.183.67-.183s.47.078.67.184c.24.13.55.294 1.11.294s.87-.162 1.11-.295c.2-.11.34-.184.67-.184s.47.08.67.187c.24.13.55.3 1.11.3s.86-.165 1.11-.298l.04-.02c.12.7.16 1.35.18 1.856H8.31l-.297-1.69c.2.08.456.15.818.15zm2.018-5.85l-.16.08-.31.22-.36-.09c-.13-.03-.27 0-.38.08l-.31.22-.36-.09c-.13-.03-.27-.01-.38.07l-.31.22-.36-.09c-.13-.036-.27-.01-.39.07l-.31.22-.36-.095c-.13-.03-.27-.01-.39.07l-.31.22-.36-.09c-.13-.03-.27-.004-.38.076l-.31.22-.36-.095c-.13-.035-.27-.01-.39.07l-.31.22-.36-.09c-.13-.035-.27-.01-.38.07l-.31.22-.36-.093-.18-.01L5.93 17l4.943 3.957z" fill="#3A434E"/></g></svg>