<svg width="32" height="232" viewBox="0 0 32 232" xmlns="http://www.w3.org/2000/svg"><desc>Created with Sketch.</desc><g fill="none"><path d="M16.93 143.863c-.118-.843-.56-1.59-1.245-2.106-.332-.25-.702-.426-1.093-.533.326-.592.457-1.268.363-1.95-.118-.843-.56-1.59-1.245-2.105-.313-.24-.66-.41-1.028-.52.318-.586.443-1.254.35-1.927-.116-.844-.56-1.59-1.244-2.105-.565-.425-1.24-.65-1.948-.65-1.018 0-1.955.46-2.57 1.26-.61.795-.782 1.784-.56 2.685-.733.022-1.418.282-1.965.737l-3.085-2.31c-.318-.24-.77-.177-1.01.136-.242.314-.18.76.137.998l3.088 2.317c-.3.66-.36 1.39-.192 2.07-.978.03-1.872.483-2.466 1.257-.52.678-.743 1.516-.626 2.36.12.842.56 1.59 1.248 2.104.566.425 1.24.65 1.948.65.845 0 1.633-.317 2.228-.882.2.315.46.602.776.84.564.424 1.237.648 1.946.648.853 0 1.646-.322 2.243-.896.206.34.48.644.81.892.566.424 1.24.65 1.95.65 1.017 0 1.954-.46 2.57-1.26.52-.68.742-1.517.626-2.36zm-4.093-5.558c.38.284.623.697.687 1.163.064.466-.058.93-.346 1.304-.34.443-.857.697-1.42.697-.392 0-.763-.128-1.075-.36-.47-.355-.712-.895-.702-1.44l.05-.38c.06-.228.16-.45.31-.648.155-.197.34-.353.55-.47.13-.044.26-.097.388-.158.156-.043.32-.07.487-.07.39 0 .763.125 1.076.36zm-4.42-4.21c.34-.443.858-.696 1.42-.696.393 0 .763.12 1.076.354.38.284.624.698.688 1.164.068.466-.055.93-.342 1.304-.152.196-.338.352-.547.47-.133.043-.26.096-.386.157-.157.043-.32.07-.488.07-.39 0-.763-.124-1.075-.36-.782-.586-.936-1.693-.342-2.466zm-1.605 3.244c.39 0 .762.12 1.075.354.38.284.623.697.688 1.164l.014.28-.05.36c-.055.237-.16.463-.314.663-.152.197-.34.354-.55.47-.13.045-.26.097-.384.16-.157.043-.32.07-.487.07-.392 0-.763-.126-1.076-.36-.783-.587-.936-1.694-.34-2.467.34-.443.86-.696 1.42-.696zm-3.03 7.46c-.392 0-.765-.125-1.077-.36-.38-.284-.623-.697-.688-1.164-.064-.467.058-.93.346-1.305.34-.44.857-.695 1.42-.695.392 0 .764.123 1.076.357.47.356.712.902.7 1.45l-.047.346c-.055.236-.158.465-.316.67-.34.443-.858.697-1.42.697zm4.948.606c-.39 0-.763-.125-1.076-.36-.474-.355-.716-.9-.7-1.448l.043-.35c.055-.236.158-.464.316-.67.15-.195.337-.352.546-.47.13-.043.26-.095.383-.157.157-.042.32-.07.488-.07.39 0 .764.126 1.076.36.378.285.623.698.688 1.164.064.464-.06.927-.346 1.303-.34.44-.86.695-1.42.695zm6.424-.05c-.34.443-.858.697-1.42.697-.393 0-.764-.124-1.076-.36-.38-.283-.623-.696-.69-1.162-.063-.465.06-.927.347-1.303.34-.443.858-.696 1.42-.696.392 0 .764.124 1.077.36.38.284.623.697.687 1.163.06.466-.06.928-.35 1.303zm12.207 3.787H24.14v-11.9c4.06-.68 7.164-4.18 7.164-8.383 0-.06-.155-6.563-.92-8.06-.243-.48-.742-.782-1.286-.782h-12.8c-.546 0-1.044.303-1.29.784-.763 1.496-.918 7.997-.918 8.06 0 4.203 3.104 7.703 7.165 8.383v11.9h-3.226c-.796 0-1.442.638-1.442 1.425 0 .788.648 1.426 1.444 1.426h9.336c.797 0 1.443-.64 1.443-1.427s-.647-1.427-1.443-1.427zm-9.94-26.273h10.55c.18 1.175.335 3.22.404 4.687H17.01c.07-1.466.225-3.512.406-4.688zm-.443 6.113H28.41c-.065 3.063-2.604 5.534-5.718 5.534s-5.653-2.47-5.72-5.534z" fill="#206FAC"/><path d="M16.93 103.863c-.118-.843-.56-1.59-1.245-2.106-.332-.25-.702-.426-1.093-.533.326-.592.457-1.268.363-1.95-.118-.843-.56-1.59-1.245-2.105-.313-.24-.66-.41-1.028-.52.318-.586.443-1.254.35-1.927-.116-.844-.56-1.59-1.244-2.105-.565-.425-1.24-.65-1.948-.65-1.018 0-1.955.46-2.57 1.26-.61.795-.782 1.784-.56 2.685-.733.022-1.418.282-1.965.737L1.66 94.34c-.318-.24-.77-.177-1.01.136-.242.314-.18.76.137.998l3.088 2.317c-.3.66-.36 1.39-.192 2.07-.978.03-1.872.483-2.466 1.257-.52.678-.743 1.516-.626 2.36.12.842.56 1.59 1.248 2.104.566.425 1.24.65 1.948.65.845 0 1.633-.317 2.228-.882.2.315.46.602.776.84.564.424 1.237.648 1.946.648.853 0 1.646-.322 2.243-.896.206.34.48.644.81.892.566.424 1.24.65 1.95.65 1.017 0 1.954-.46 2.57-1.26.52-.68.742-1.517.626-2.36zm-4.093-5.558c.38.284.623.697.687 1.163.064.466-.058.93-.346 1.304-.34.443-.857.697-1.42.697-.392 0-.763-.128-1.075-.36-.47-.355-.712-.895-.702-1.44l.05-.38c.06-.228.16-.45.31-.648.155-.197.34-.353.55-.47.13-.044.26-.097.388-.158.156-.043.32-.07.487-.07.39 0 .763.125 1.076.36zm-4.42-4.21c.34-.443.858-.696 1.42-.696.393 0 .763.12 1.076.354.38.284.624.698.688 1.164.068.466-.055.93-.342 1.304-.152.196-.338.352-.547.47-.133.043-.26.096-.386.157-.157.043-.32.07-.488.07-.39 0-.763-.124-1.075-.36-.782-.586-.936-1.693-.342-2.466zM6.812 97.34c.39 0 .762.123 1.075.357.38.284.623.697.688 1.164l.014.285-.05.36c-.055.236-.16.462-.314.662-.152.196-.34.353-.55.47-.13.044-.26.096-.384.158-.157.043-.32.07-.487.07-.392 0-.763-.126-1.076-.36-.783-.587-.936-1.694-.34-2.467.34-.443.86-.696 1.42-.696zm-3.03 7.462c-.392 0-.765-.124-1.077-.36-.38-.283-.623-.696-.688-1.163-.064-.47.058-.93.346-1.308.34-.442.857-.696 1.42-.696.392 0 .764.123 1.076.357.47.356.712.902.7 1.45l-.047.346c-.055.237-.158.466-.316.67-.34.444-.858.7-1.42.7zm4.948.607c-.39 0-.763-.128-1.076-.36-.474-.358-.716-.9-.7-1.45l.043-.35c.055-.236.158-.464.316-.67.15-.195.337-.352.546-.47.13-.043.26-.095.383-.157.157-.043.32-.07.488-.07.39 0 .764.125 1.076.36.378.284.623.697.688 1.163.064.464-.06.927-.346 1.303-.34.442-.86.696-1.42.696zm6.424-.05c-.34.44-.858.694-1.42.694-.393 0-.764-.124-1.076-.36-.38-.283-.623-.696-.69-1.162-.063-.466.06-.928.347-1.304.34-.443.858-.696 1.42-.696.392 0 .764.123 1.077.358.38.285.623.698.687 1.164.06.466-.06.928-.35 1.303zm12.207 3.784H24.14v-11.9c4.06-.68 7.164-4.18 7.164-8.383 0-.06-.155-6.563-.92-8.06-.243-.48-.742-.782-1.286-.782h-12.8c-.546 0-1.044.303-1.29.784-.763 1.496-.918 7.997-.918 8.06 0 4.203 3.104 7.703 7.165 8.383v11.9h-3.226c-.796 0-1.442.638-1.442 1.425 0 .788.648 1.426 1.444 1.426h9.336c.797 0 1.443-.64 1.443-1.428s-.647-1.426-1.443-1.426zM17.42 82.87h10.55c.18 1.177.335 3.223.404 4.69H17.01c.07-1.467.225-3.513.406-4.69zm-.443 6.115H28.41c-.065 3.063-2.604 5.534-5.718 5.534s-5.653-2.47-5.72-5.537z" fill="#fff"/><path d="M16.93 63.863c-.118-.843-.56-1.59-1.245-2.106-.332-.25-.702-.426-1.093-.533.326-.592.457-1.268.363-1.95-.118-.843-.56-1.59-1.245-2.105-.313-.24-.66-.41-1.028-.52.318-.586.443-1.254.35-1.927-.116-.844-.56-1.59-1.244-2.105-.565-.425-1.24-.65-1.948-.65-1.018 0-1.955.46-2.57 1.26-.61.795-.782 1.784-.56 2.685-.733.022-1.418.282-1.965.737L1.66 54.34c-.318-.24-.77-.177-1.01.136-.242.314-.18.76.137.998l3.088 2.317c-.3.66-.36 1.39-.192 2.07-.978.03-1.872.483-2.466 1.257-.52.678-.743 1.516-.626 2.36.12.842.56 1.59 1.248 2.104.566.425 1.24.65 1.948.65.845 0 1.633-.317 2.228-.882.2.315.46.602.776.84.564.424 1.237.648 1.946.648.853 0 1.646-.322 2.243-.896.206.34.48.644.81.892.566.424 1.24.65 1.95.65 1.017 0 1.954-.46 2.57-1.26.52-.68.742-1.517.626-2.36zm-4.093-5.558c.38.284.623.697.687 1.163.064.466-.058.93-.346 1.304-.34.443-.857.697-1.42.697-.392 0-.763-.128-1.075-.36-.47-.355-.712-.895-.702-1.44l.05-.38c.06-.228.16-.45.31-.648.155-.197.34-.353.55-.47.13-.044.26-.097.388-.158.156-.043.32-.07.487-.07.39 0 .763.125 1.076.36zm-4.42-4.21c.34-.443.858-.696 1.42-.696.393 0 .763.12 1.076.354.38.284.624.698.688 1.164.068.466-.055.93-.342 1.304-.152.196-.338.352-.547.47-.133.043-.26.096-.386.157-.157.043-.32.07-.488.07-.39 0-.763-.124-1.075-.36-.782-.586-.936-1.693-.342-2.466zM6.812 57.34c.39 0 .762.123 1.075.357.38.284.623.697.688 1.164l.014.285-.05.36c-.055.236-.16.462-.314.662-.152.196-.34.353-.55.47-.13.044-.26.096-.384.158-.157.043-.32.07-.487.07-.392 0-.763-.126-1.076-.36-.783-.587-.936-1.694-.34-2.467.34-.443.86-.696 1.42-.696zm-3.03 7.46c-.392 0-.765-.124-1.077-.36-.38-.283-.623-.696-.688-1.163-.064-.467.058-.93.346-1.305.34-.442.857-.696 1.42-.696.392 0 .764.123 1.076.357.47.356.712.902.7 1.45l-.047.346c-.055.234-.158.463-.316.67-.34.44-.858.695-1.42.695zm4.948.607c-.39 0-.763-.125-1.076-.36-.474-.355-.716-.9-.7-1.448l.043-.35c.055-.238.158-.466.316-.67.15-.197.337-.354.546-.47.13-.045.26-.097.383-.16.157-.042.32-.07.488-.07.39 0 .764.126 1.076.36.378.285.623.698.688 1.164.064.464-.06.927-.346 1.303-.34.44-.86.695-1.42.695zm6.424-.05c-.34.443-.858.697-1.42.697-.393 0-.764-.124-1.076-.36-.38-.283-.623-.696-.69-1.162-.063-.466.06-.928.347-1.304.34-.442.858-.695 1.42-.695.392 0 .764.123 1.077.358.38.288.623.7.687 1.167.06.466-.06.928-.35 1.303zm12.207 3.787H24.14v-11.9c4.06-.68 7.164-4.18 7.164-8.383 0-.06-.155-6.56-.92-8.06-.243-.48-.742-.78-1.286-.78h-12.8c-.546 0-1.044.304-1.29.785-.763 1.496-.918 7.997-.918 8.06 0 4.203 3.104 7.703 7.165 8.383v11.9h-3.226c-.796 0-1.442.638-1.442 1.425 0 .79.648 1.427 1.444 1.427h9.336c.797 0 1.443-.64 1.443-1.428s-.647-1.426-1.443-1.426zM17.42 42.87h10.55c.18 1.175.335 3.22.404 4.687H17.01c.07-1.466.225-3.512.406-4.688zm-.443 6.113H28.41c-.065 3.063-2.604 5.534-5.718 5.534s-5.653-2.47-5.72-5.534z" fill="#67737B"/><path d="M16.93 23.863c-.118-.843-.56-1.59-1.245-2.106-.332-.25-.702-.426-1.093-.533.326-.592.457-1.268.363-1.95-.118-.843-.56-1.59-1.245-2.105-.313-.24-.66-.41-1.028-.52.318-.586.443-1.254.35-1.927-.116-.844-.56-1.59-1.244-2.105-.565-.425-1.24-.65-1.948-.65-1.018 0-1.955.46-2.57 1.26-.61.795-.782 1.784-.56 2.685-.733.022-1.418.282-1.965.737L1.66 14.34c-.318-.24-.77-.177-1.01.136-.242.314-.18.76.137.998l3.088 2.317c-.3.66-.36 1.39-.192 2.07-.978.03-1.872.483-2.466 1.257-.52.678-.743 1.516-.626 2.36.12.842.56 1.59 1.248 2.104.566.425 1.24.65 1.948.65.845 0 1.633-.317 2.228-.882.2.315.46.602.776.84.564.424 1.237.648 1.946.648.853 0 1.646-.322 2.243-.896.206.34.48.644.81.892.566.424 1.24.65 1.95.65 1.017 0 1.954-.46 2.57-1.26.52-.68.742-1.517.626-2.36zm-4.093-5.558c.38.284.623.697.687 1.163.064.466-.058.93-.346 1.304-.34.443-.857.697-1.42.697-.392 0-.763-.128-1.075-.36-.47-.355-.712-.895-.702-1.44l.05-.38c.06-.228.16-.45.31-.648.155-.197.34-.353.55-.47.13-.044.26-.097.388-.158.156-.043.32-.07.487-.07.39 0 .763.125 1.076.36zm-4.42-4.21c.34-.443.858-.696 1.42-.696.393 0 .763.12 1.076.354.38.284.624.698.688 1.164.068.466-.055.93-.342 1.304-.152.196-.338.352-.547.47-.133.043-.26.096-.386.157-.157.043-.32.07-.488.07-.39 0-.763-.124-1.075-.36-.782-.586-.936-1.693-.342-2.466zM6.812 17.34c.39 0 .762.123 1.075.357.38.284.623.697.688 1.164l.014.285-.05.36c-.055.236-.16.462-.314.662-.152.196-.34.353-.55.47-.13.044-.26.096-.384.158-.157.043-.32.07-.487.07-.392 0-.763-.126-1.076-.36-.783-.587-.936-1.694-.34-2.467.34-.443.86-.696 1.42-.696zm-3.03 7.46c-.392 0-.765-.124-1.077-.36-.38-.283-.623-.696-.688-1.163-.064-.467.058-.93.346-1.305.34-.442.857-.696 1.42-.696.392 0 .764.123 1.076.357.47.356.712.902.7 1.45l-.047.346c-.055.234-.158.463-.316.67-.34.44-.858.695-1.42.695zm4.948.607c-.39 0-.763-.125-1.076-.36-.474-.355-.716-.9-.7-1.448l.043-.35c.055-.238.158-.466.316-.67.15-.197.337-.354.546-.47.13-.045.26-.097.383-.16.157-.042.32-.07.488-.07.39 0 .764.126 1.076.36.378.285.623.698.688 1.164.064.464-.06.927-.346 1.303-.34.44-.86.695-1.42.695zm6.424-.05c-.34.443-.858.697-1.42.697-.393 0-.764-.124-1.076-.36-.38-.283-.623-.696-.69-1.162-.063-.466.06-.928.347-1.304.34-.442.858-.695 1.42-.695.392 0 .764.123 1.077.358.38.288.623.7.687 1.167.06.466-.06.928-.35 1.303zm12.207 3.787H24.14v-11.9c4.06-.68 7.164-4.18 7.164-8.383 0-.06-.155-6.56-.92-8.06-.243-.48-.742-.78-1.286-.78h-12.8c-.546 0-1.044.304-1.29.785-.763 1.496-.918 7.997-.918 8.06 0 4.203 3.104 7.703 7.165 8.383v11.9h-3.226c-.796 0-1.442.638-1.442 1.425 0 .79.648 1.427 1.444 1.427h9.336c.797 0 1.443-.64 1.443-1.428s-.647-1.426-1.443-1.426zM17.42 2.872h10.55c.18 1.176.335 3.222.404 4.688H17.01c.07-1.466.225-3.512.406-4.688zm-.443 6.114H28.41c-.065 3.063-2.604 5.534-5.718 5.534s-5.653-2.47-5.72-5.534z" fill="#3A434E"/></g></svg>