<svg width="32" height="232" viewBox="0 0 32 232" xmlns="http://www.w3.org/2000/svg"><title>france</title><desc>Created with Sketch.</desc><g fill="none"><path d="M16.93 143.863c-.118-.843-.56-1.59-1.245-2.106-.332-.25-.702-.426-1.093-.533.326-.592.457-1.268.363-1.95-.118-.843-.56-1.59-1.245-2.105-.313-.236-.66-.407-1.028-.516.318-.587.443-1.255.35-1.928-.116-.844-.56-1.59-1.244-2.105-.565-.424-1.24-.648-1.948-.648-1.018 0-1.955.46-2.57 1.26-.61.794-.782 1.783-.56 2.684-.733.022-1.418.282-1.965.737L1.66 134.34c-.318-.24-.77-.177-1.01.136-.242.314-.18.76.137.998l3.088 2.317c-.3.66-.36 1.387-.192 2.067-.978.03-1.872.483-2.466 1.257-.52.678-.743 1.516-.626 2.36.118.842.56 1.59 1.245 2.104.566.425 1.24.65 1.948.65.845 0 1.633-.317 2.228-.882.2.315.46.602.776.84.565.424 1.238.648 1.947.648.853 0 1.646-.322 2.243-.896.208.342.48.646.813.894.564.424 1.238.65 1.947.65 1.018 0 1.955-.46 2.57-1.26.52-.68.743-1.517.627-2.36zm-4.093-5.558c.38.284.623.697.687 1.163.064.466-.058.93-.346 1.304-.34.443-.857.697-1.42.697-.392 0-.763-.125-1.075-.36-.47-.352-.712-.892-.702-1.436l.05-.382c.056-.228.158-.45.31-.648.152-.197.34-.353.55-.47.13-.044.26-.097.385-.158.156-.043.32-.07.487-.07.39 0 .763.125 1.076.36zm-4.42-4.21c.34-.443.858-.696 1.42-.696.393 0 .763.122 1.076.357.38.284.624.698.688 1.164.065.467-.058.93-.345 1.305-.152.196-.338.352-.547.47-.133.043-.26.096-.386.157-.157.043-.32.07-.488.07-.39 0-.763-.124-1.075-.36-.783-.586-.937-1.693-.343-2.466zm-1.605 3.244c.39 0 .762.123 1.075.357.38.284.623.697.688 1.164l.014.282-.046.36c-.056.236-.162.462-.315.662-.152.196-.34.353-.55.47-.13.044-.26.096-.384.158-.157.043-.32.07-.487.07-.392 0-.763-.126-1.076-.36-.783-.587-.936-1.694-.342-2.467.34-.443.86-.696 1.422-.696zm-3.03 7.462c-.392 0-.765-.124-1.077-.36-.38-.283-.623-.696-.688-1.163-.064-.467.058-.93.346-1.305.34-.442.857-.696 1.42-.696.392 0 .764.123 1.076.357.473.356.715.902.7 1.45l-.044.346c-.055.237-.158.466-.316.67-.34.444-.857.698-1.42.698zm4.948.607c-.39 0-.763-.125-1.076-.36-.474-.355-.716-.9-.7-1.448l.043-.348c.055-.237.158-.465.316-.67.15-.196.337-.353.546-.47.132-.044.26-.096.386-.158.157-.043.32-.07.488-.07.39 0 .763.125 1.075.36.378.284.623.697.688 1.163.064.464-.06.927-.346 1.303-.34.442-.858.696-1.42.696zm6.424-.05c-.34.443-.858.697-1.42.697-.393 0-.764-.124-1.076-.36-.38-.283-.623-.696-.69-1.162-.063-.466.06-.928.347-1.304.34-.442.858-.695 1.42-.695.392 0 .764.123 1.077.358.38.285.623.698.687 1.164.064.466-.06.928-.347 1.303zm12.207 3.787h-3.225v-11.9c4.06-.68 7.164-4.18 7.164-8.383 0-.062-.156-6.564-.92-8.06-.244-.48-.743-.783-1.287-.783h-12.8c-.546 0-1.044.304-1.29.785-.763 1.496-.918 7.997-.918 8.06 0 4.203 3.104 7.703 7.165 8.383v11.9h-3.227c-.796 0-1.442.638-1.442 1.425 0 .788.647 1.426 1.443 1.426h9.337c.796 0 1.442-.64 1.442-1.427s-.646-1.426-1.442-1.426zm-9.944-26.275H27.97c.18 1.176.335 3.222.404 4.688H17.01c.07-1.466.225-3.512.406-4.688zm-.443 6.114H28.41c-.065 3.063-2.604 5.534-5.718 5.534s-5.653-2.47-5.72-5.534z" fill="#206FAC"/><path d="M16.93 103.863c-.118-.843-.56-1.59-1.245-2.106-.332-.25-.702-.426-1.093-.533.326-.592.457-1.268.363-1.95-.118-.843-.56-1.59-1.245-2.105-.313-.236-.66-.407-1.028-.516.318-.587.443-1.255.35-1.928-.116-.844-.56-1.59-1.244-2.105-.565-.424-1.24-.648-1.948-.648-1.018 0-1.955.46-2.57 1.26-.61.794-.782 1.783-.56 2.684-.733.022-1.418.282-1.965.737L1.66 94.34c-.318-.24-.77-.177-1.01.136-.242.314-.18.76.137.998l3.088 2.317c-.3.66-.36 1.387-.192 2.067-.978.03-1.872.483-2.466 1.257-.52.678-.743 1.516-.626 2.36.118.842.56 1.59 1.245 2.104.566.425 1.24.65 1.948.65.845 0 1.633-.317 2.228-.882.2.315.46.602.776.84.565.424 1.238.648 1.947.648.853 0 1.646-.322 2.243-.896.208.342.48.646.813.894.564.424 1.238.65 1.947.65 1.018 0 1.955-.46 2.57-1.26.52-.68.743-1.517.627-2.36zm-4.093-5.558c.38.284.623.697.687 1.163.064.466-.058.93-.346 1.304-.34.443-.857.697-1.42.697-.392 0-.763-.125-1.075-.36-.47-.352-.712-.892-.702-1.436l.05-.382c.056-.228.158-.45.31-.648.152-.197.34-.353.55-.47.13-.044.26-.097.385-.158.156-.043.32-.07.487-.07.39 0 .763.125 1.076.36zm-4.42-4.21c.34-.443.858-.696 1.42-.696.393 0 .763.122 1.076.357.38.284.624.698.688 1.164.065.467-.058.93-.345 1.305-.152.196-.338.352-.547.47-.133.043-.26.096-.386.157-.157.043-.32.07-.488.07-.39 0-.763-.124-1.075-.36-.783-.586-.937-1.693-.343-2.466zM6.812 97.34c.39 0 .762.123 1.075.357.38.284.623.697.688 1.164l.014.282-.046.36c-.056.236-.162.462-.315.662-.152.196-.34.353-.55.47-.13.044-.26.096-.384.158-.157.043-.32.07-.487.07-.392 0-.763-.126-1.076-.36-.783-.587-.936-1.694-.342-2.467.34-.443.86-.696 1.422-.696zm-3.03 7.462c-.392 0-.765-.124-1.077-.36-.38-.283-.623-.696-.688-1.163-.064-.467.058-.93.346-1.305.34-.442.857-.696 1.42-.696.392 0 .764.123 1.076.357.473.356.715.902.7 1.45l-.044.346c-.055.237-.158.466-.316.67-.34.444-.857.698-1.42.698zm4.948.607c-.39 0-.763-.125-1.076-.36-.474-.355-.716-.9-.7-1.448l.043-.348c.055-.237.158-.465.316-.67.15-.196.337-.353.546-.47.132-.044.26-.096.386-.158.157-.043.32-.07.488-.07.39 0 .763.125 1.075.36.378.284.623.697.688 1.163.064.464-.06.927-.346 1.303-.34.442-.858.696-1.42.696zm6.424-.05c-.34.443-.858.697-1.42.697-.393 0-.764-.124-1.076-.36-.38-.283-.623-.696-.69-1.162-.063-.466.06-.928.347-1.304.34-.442.858-.695 1.42-.695.392 0 .764.123 1.077.358.38.285.623.698.687 1.164.064.466-.06.928-.347 1.303zm12.207 3.787h-3.225v-11.9c4.06-.68 7.164-4.18 7.164-8.383 0-.062-.156-6.564-.92-8.06-.244-.48-.743-.783-1.287-.783h-12.8c-.546 0-1.044.304-1.29.785-.763 1.496-.918 7.997-.918 8.06 0 4.203 3.104 7.703 7.165 8.383v11.9h-3.227c-.796 0-1.442.638-1.442 1.425 0 .788.647 1.426 1.443 1.426h9.337c.796 0 1.442-.64 1.442-1.427s-.646-1.426-1.442-1.426zm-9.944-26.275H27.97c.18 1.176.335 3.222.404 4.688H17.01c.07-1.466.225-3.512.406-4.688zm-.443 6.114H28.41c-.065 3.063-2.604 5.534-5.718 5.534s-5.653-2.47-5.72-5.534z" fill="#fff"/><path d="M16.93 63.863c-.118-.843-.56-1.59-1.245-2.106-.332-.25-.702-.426-1.093-.533.326-.592.457-1.268.363-1.95-.118-.843-.56-1.59-1.245-2.105-.313-.236-.66-.407-1.028-.516.318-.587.443-1.255.35-1.928-.116-.844-.56-1.59-1.244-2.105-.565-.424-1.24-.648-1.948-.648-1.018 0-1.955.46-2.57 1.26-.61.794-.782 1.783-.56 2.684-.733.022-1.418.282-1.965.737L1.66 54.34c-.318-.24-.77-.177-1.01.136-.242.314-.18.76.137.998l3.088 2.317c-.3.66-.36 1.387-.192 2.067-.978.03-1.872.483-2.466 1.257-.52.678-.743 1.516-.626 2.36.118.842.56 1.59 1.245 2.104.566.425 1.24.65 1.948.65.845 0 1.633-.317 2.228-.882.2.315.46.602.776.84.565.424 1.238.648 1.947.648.853 0 1.646-.322 2.243-.896.208.342.48.646.813.894.564.424 1.238.65 1.947.65 1.018 0 1.955-.46 2.57-1.26.52-.68.743-1.517.627-2.36zm-4.093-5.558c.38.284.623.697.687 1.163.064.466-.058.93-.346 1.304-.34.443-.857.697-1.42.697-.392 0-.763-.125-1.075-.36-.47-.352-.712-.892-.702-1.436l.05-.382c.056-.228.158-.45.31-.648.152-.197.34-.353.55-.47.13-.044.26-.097.385-.158.156-.043.32-.07.487-.07.39 0 .763.125 1.076.36zm-4.42-4.21c.34-.443.858-.696 1.42-.696.393 0 .763.122 1.076.357.38.284.624.698.688 1.164.065.467-.058.93-.345 1.305-.152.196-.338.352-.547.47-.133.043-.26.096-.386.157-.157.043-.32.07-.488.07-.39 0-.763-.124-1.075-.36-.783-.586-.937-1.693-.343-2.466zM6.812 57.34c.39 0 .762.123 1.075.357.38.284.623.697.688 1.164l.014.282-.046.36c-.056.236-.162.462-.315.662-.152.196-.34.353-.55.47-.13.044-.26.096-.384.158-.157.043-.32.07-.487.07-.392 0-.763-.126-1.076-.36-.783-.587-.936-1.694-.342-2.467.34-.443.86-.696 1.422-.696zM3.782 64.8c-.392 0-.765-.124-1.077-.36-.38-.283-.623-.696-.688-1.163-.064-.467.058-.93.346-1.305.34-.442.857-.696 1.42-.696.392 0 .764.123 1.076.357.473.356.715.902.7 1.45l-.044.346c-.055.237-.158.466-.316.67-.34.444-.857.698-1.42.698zm4.948.607c-.39 0-.763-.125-1.076-.36-.474-.355-.716-.9-.7-1.448l.043-.348c.055-.237.158-.465.316-.67.15-.196.337-.353.546-.47.132-.044.26-.096.386-.158.157-.043.32-.07.488-.07.39 0 .763.125 1.075.36.378.284.623.697.688 1.163.064.464-.06.927-.346 1.303-.34.442-.858.696-1.42.696zm6.424-.05c-.34.443-.858.697-1.42.697-.393 0-.764-.124-1.076-.36-.38-.283-.623-.696-.69-1.162-.063-.466.06-.928.347-1.304.34-.442.858-.695 1.42-.695.392 0 .764.123 1.077.358.38.285.623.698.687 1.164.064.466-.06.928-.347 1.303zm12.207 3.787h-3.225v-11.9c4.06-.68 7.164-4.18 7.164-8.383 0-.062-.156-6.564-.92-8.06-.244-.48-.743-.783-1.287-.783h-12.8c-.546 0-1.044.304-1.29.785-.763 1.496-.918 7.997-.918 8.06 0 4.203 3.104 7.703 7.165 8.383v11.9h-3.227c-.796 0-1.442.638-1.442 1.425 0 .788.647 1.426 1.443 1.426h9.337c.796 0 1.442-.64 1.442-1.427s-.646-1.426-1.442-1.426zm-9.944-26.275H27.97c.18 1.176.335 3.222.404 4.688H17.01c.07-1.466.225-3.512.406-4.688zm-.443 6.114H28.41c-.065 3.063-2.604 5.534-5.718 5.534s-5.653-2.47-5.72-5.534z" fill="#67737B"/><path d="M16.93 23.863c-.118-.843-.56-1.59-1.245-2.106-.332-.25-.702-.426-1.093-.533.326-.592.457-1.268.363-1.95-.118-.843-.56-1.59-1.245-2.105-.313-.236-.66-.407-1.028-.516.318-.587.443-1.255.35-1.928-.116-.844-.56-1.59-1.244-2.105-.565-.424-1.24-.648-1.948-.648-1.018 0-1.955.46-2.57 1.26-.61.794-.782 1.783-.56 2.684-.733.022-1.418.282-1.965.737L1.66 14.34c-.318-.24-.77-.177-1.01.136-.242.314-.18.76.137.998l3.088 2.317c-.3.66-.36 1.387-.192 2.067-.978.03-1.872.483-2.466 1.257-.52.678-.743 1.516-.626 2.36.118.842.56 1.59 1.245 2.104.566.425 1.24.65 1.948.65.845 0 1.633-.317 2.228-.882.2.315.46.602.776.84.565.424 1.238.648 1.947.648.853 0 1.646-.322 2.243-.896.208.342.48.646.813.894.564.424 1.238.65 1.947.65 1.018 0 1.955-.46 2.57-1.26.52-.68.743-1.517.627-2.36zm-4.093-5.558c.38.284.623.697.687 1.163.064.466-.058.93-.346 1.304-.34.443-.857.697-1.42.697-.392 0-.763-.125-1.075-.36-.47-.352-.712-.892-.702-1.436l.05-.382c.056-.228.158-.45.31-.648.152-.197.34-.353.55-.47.13-.044.26-.097.385-.158.156-.043.32-.07.487-.07.39 0 .763.125 1.076.36zm-4.42-4.21c.34-.443.858-.696 1.42-.696.393 0 .763.122 1.076.357.38.284.624.698.688 1.164.065.467-.058.93-.345 1.305-.152.196-.338.352-.547.47-.133.043-.26.096-.386.157-.157.043-.32.07-.488.07-.39 0-.763-.124-1.075-.36-.783-.586-.937-1.693-.343-2.466zM6.812 17.34c.39 0 .762.123 1.075.357.38.284.623.697.688 1.164l.014.282-.046.36c-.056.236-.162.462-.315.662-.152.196-.34.353-.55.47-.13.044-.26.096-.384.158-.157.043-.32.07-.487.07-.392 0-.763-.126-1.076-.36-.783-.587-.936-1.694-.342-2.467.34-.443.86-.696 1.422-.696zM3.782 24.8c-.392 0-.765-.124-1.077-.36-.38-.283-.623-.696-.688-1.163-.064-.467.058-.93.346-1.305.34-.442.857-.696 1.42-.696.392 0 .764.123 1.076.357.473.356.715.902.7 1.45l-.044.346c-.055.237-.158.466-.316.67-.34.444-.857.698-1.42.698zm4.948.607c-.39 0-.763-.125-1.076-.36-.474-.355-.716-.9-.7-1.448l.043-.348c.055-.237.158-.465.316-.67.15-.196.337-.353.546-.47.132-.044.26-.096.386-.158.157-.043.32-.07.488-.07.39 0 .763.125 1.075.36.378.284.623.697.688 1.163.064.464-.06.927-.346 1.303-.34.442-.858.696-1.42.696zm6.424-.05c-.34.443-.858.697-1.42.697-.393 0-.764-.124-1.076-.36-.38-.283-.623-.696-.69-1.162-.063-.466.06-.928.347-1.304.34-.442.858-.695 1.42-.695.392 0 .764.123 1.077.358.38.285.623.698.687 1.164.064.466-.06.928-.347 1.303zm12.207 3.787h-3.225v-11.9c4.06-.68 7.164-4.18 7.164-8.383 0-.062-.156-6.564-.92-8.06-.244-.48-.743-.783-1.287-.783h-12.8c-.546 0-1.044.304-1.29.785-.763 1.496-.918 7.997-.918 8.06 0 4.203 3.104 7.703 7.165 8.383v11.9h-3.227c-.796 0-1.442.638-1.442 1.425 0 .788.647 1.426 1.443 1.426h9.337c.796 0 1.442-.64 1.442-1.427s-.646-1.426-1.442-1.426zM17.417 2.872H27.97c.18 1.176.335 3.222.404 4.688H17.01c.07-1.466.225-3.512.406-4.688zm-.443 6.114H28.41c-.065 3.063-2.604 5.534-5.718 5.534s-5.653-2.47-5.72-5.534z" fill="#3A434E"/></g></svg>