<svg width="32" height="232" viewBox="0 0 32 232" xmlns="http://www.w3.org/2000/svg"><title>germany</title><desc>Created with Sketch.</desc><g fill="none"><path d="M31.883 146.592l-2.03-5.027c-.16-.393-.522-.648-.92-.648H27.53l-.08-7.49h1.05l.038-.006.033-.002.04-.007c.478-.08.844-.524.844-1.06v-1.085l1.008-1.794c.286-.508.132-1.168-.342-1.475-.13-.083-.267-.13-.406-.147l.252-1.065c.076-.322.01-.663-.18-.924-.19-.263-.483-.416-.792-.416h-7.72c.09-.31.04-.65-.13-.92-.188-.293-.497-.468-.828-.468h-3.15l.194-.207c.196-.21.196-.55 0-.762-.195-.21-.513-.21-.708 0l-.13.138v-.592c0-.297-.225-.538-.502-.538s-.5.24-.5.538v.592l-.13-.14c-.197-.21-.515-.208-.71.002-.196.21-.196.55 0 .76l.194.208h-3.247c-.33 0-.64.175-.827.468-.173.27-.22.61-.132.92h-7.72c-.31 0-.6.153-.79.415-.19.26-.258.602-.18.923l.25 1.065c-.157.018-.312.077-.452.178-.457.333-.578 1-.267 1.493l.977 1.548v1.312c0 .594.45 1.075 1.002 1.075l.23-.03h.868l-.08 7.492h-1.45c-.4 0-.762.255-.92.648l-2.056 5.09c-.134.332-.104.715.082 1.017.185.303.5.485.838.485H30.99c.553 0 1.002-.48 1.002-1.075 0-.176-.04-.342-.11-.49zM5.51 140.916l.08-7.49h.267l.115 10.74h-.496l.035-3.25zm1.35-7.49h1.548l-.08 7.49H6.94l-.08-7.49zm2.933 10.74h-.496l.114-10.74h.267l.116 10.74zm.887-10.74h1.548l-.08 7.49H10.76l-.08-7.49zm2.932 10.74h-.495l.115-10.74h.266l.114 10.74zm.888-10.74h3.037l-.08 7.49H14.58l-.08-7.49zm4.422 10.74h-.496l.115-10.74h.267l.115 10.74zm.887-10.74h1.548l-.08 7.49H19.89l-.08-7.49zm2.932 10.74h-.496l.115-10.74h.267l.115 10.74zm.887-10.74h1.548l-.08 7.49H23.71l-.08-7.49zm2.897 7.49l.023 2.15.012 1.1h-.496l.114-10.74h.266l.08 7.49zm-22.12-10.61H3.87l-.155-.247-.115-.183-.267-.424h25.432l-.24.428-.24.427H4.408zm-.17-2.712h7.614v.678H4.4l-.16-.678zm8.17-1.926h7.225l-.288.796h-6.648l-.174-.483-.113-.312zm15.14 2.603h-7.36v-.677h7.52l-.16.678zm-14.693-.73h6.332v.73h-6.332v-.73zm-8.36 3.842H27.45v.968H4.493v-.968zM2.53 146.006l1.187-2.94h.77l-.018 1.632c-.003.144.05.283.144.384.094.102.223.16.357.16h1.51c.135 0 .263-.058.358-.16.094-.102.146-.24.145-.384l-.018-1.63h1.342l-.018 1.63c-.002.144.05.283.144.384.094.102.222.16.357.16h1.51c.135 0 .263-.058.358-.16.094-.102.146-.24.144-.384l-.018-1.63h1.342l-.017 1.63c-.002.144.05.283.144.384.094.102.223.16.356.16h1.51c.135 0 .263-.058.358-.16.094-.102.146-.24.145-.384l-.018-1.63h2.83l-.016 1.63c-.002.144.05.283.144.384.094.102.222.16.356.16h1.51c.134 0 .262-.058.357-.16.094-.102.146-.24.145-.384l-.018-1.63h1.342l-.017 1.63c-.003.144.05.283.143.384.094.102.223.16.357.16h1.51c.134 0 .262-.058.357-.16.094-.102.146-.24.144-.384l-.017-1.63h1.342l-.018 1.63c0 .144.05.283.145.384.094.102.222.16.356.16h1.51c.134 0 .263-.058.357-.16.094-.102.146-.24.145-.384l-.017-1.63h.72l1.188 2.938H2.53z" fill="#206FAC"/><path d="M31.883 106.592l-2.03-5.027c-.16-.393-.522-.648-.92-.648H27.53l-.08-7.49h1.05l.038-.006.033-.002.04-.007c.478-.08.844-.524.844-1.06v-1.085l1.008-1.794c.286-.508.132-1.168-.342-1.475-.13-.083-.267-.13-.406-.147l.252-1.065c.076-.322.01-.663-.18-.924-.19-.263-.483-.416-.792-.416h-7.72c.09-.31.04-.65-.13-.92-.188-.293-.497-.468-.828-.468h-3.15l.194-.207c.196-.21.196-.55 0-.762-.195-.21-.513-.21-.708 0l-.13.138v-.592c0-.297-.225-.538-.502-.538s-.5.24-.5.538v.592l-.13-.14c-.197-.21-.515-.208-.71.002-.196.21-.196.55 0 .76l.194.208h-3.247c-.33 0-.64.175-.827.468-.173.27-.22.61-.132.92h-7.72c-.31 0-.6.153-.79.415-.19.26-.258.602-.18.923l.25 1.065c-.157.018-.312.077-.452.178-.457.333-.578 1-.267 1.493l.977 1.548v1.312c0 .594.45 1.075 1.002 1.075l.23-.03h.868l-.08 7.492h-1.45c-.4 0-.762.255-.92.648l-2.056 5.09c-.134.332-.104.715.082 1.017.185.303.5.485.838.485H30.99c.553 0 1.002-.48 1.002-1.075 0-.176-.04-.342-.11-.49zM5.51 100.916l.08-7.49h.267l.115 10.74h-.496l.035-3.25zm1.35-7.49h1.548l-.08 7.49H6.94l-.08-7.49zm2.933 10.74h-.496l.114-10.74h.267l.116 10.74zm.887-10.74h1.548l-.08 7.49H10.76l-.08-7.49zm2.932 10.74h-.495l.115-10.74h.266l.114 10.74zm.888-10.74h3.037l-.08 7.49H14.58l-.08-7.49zm4.422 10.74h-.496l.115-10.74h.267l.115 10.74zm.887-10.74h1.548l-.08 7.49H19.89l-.08-7.49zm2.932 10.74h-.496l.115-10.74h.267l.115 10.74zm.887-10.74h1.548l-.08 7.49H23.71l-.08-7.49zm2.897 7.49l.023 2.15.012 1.1h-.496l.114-10.74h.266l.08 7.49zm-22.12-10.61H3.87l-.155-.247-.115-.183-.267-.424h25.432l-.24.428-.24.427H4.408zm-.17-2.712h7.614v.678H4.4l-.16-.678zm8.17-1.926h7.225l-.288.796h-6.648l-.174-.483-.113-.312zm15.14 2.603h-7.36v-.677h7.52l-.16.678zm-14.693-.73h6.332v.73h-6.332v-.73zm-8.36 3.842H27.45v.968H4.493v-.968zM2.53 106.006l1.187-2.94h.77l-.018 1.632c-.003.144.05.283.144.384.094.102.223.16.357.16h1.51c.135 0 .263-.058.358-.16.094-.102.146-.24.145-.384l-.018-1.63h1.342l-.018 1.63c-.002.144.05.283.144.384.094.102.222.16.357.16h1.51c.135 0 .263-.058.358-.16.094-.102.146-.24.144-.384l-.018-1.63h1.342l-.017 1.63c-.002.144.05.283.144.384.094.102.223.16.356.16h1.51c.135 0 .263-.058.358-.16.094-.102.146-.24.145-.384l-.018-1.63h2.83l-.016 1.63c-.002.144.05.283.144.384.094.102.222.16.356.16h1.51c.134 0 .262-.058.357-.16.094-.102.146-.24.145-.384l-.018-1.63h1.342l-.017 1.63c-.003.144.05.283.143.384.094.102.223.16.357.16h1.51c.134 0 .262-.058.357-.16.094-.102.146-.24.144-.384l-.017-1.63h1.342l-.018 1.63c0 .144.05.283.145.384.094.102.222.16.356.16h1.51c.134 0 .263-.058.357-.16.094-.102.146-.24.145-.384l-.017-1.63h.72l1.188 2.938H2.53z" fill="#fff"/><path d="M31.883 66.592l-2.03-5.027c-.16-.393-.522-.648-.92-.648H27.53l-.08-7.49h1.05l.038-.006.033-.002.04-.007c.478-.08.844-.524.844-1.06v-1.085l1.008-1.794c.286-.508.132-1.168-.342-1.475-.13-.083-.267-.13-.406-.147l.252-1.065c.076-.322.01-.663-.18-.924-.19-.263-.483-.416-.792-.416h-7.72c.09-.31.04-.65-.13-.92-.188-.293-.497-.468-.828-.468h-3.15l.194-.207c.196-.21.196-.55 0-.762-.195-.21-.513-.21-.708 0l-.13.138v-.592c0-.297-.225-.538-.502-.538s-.5.24-.5.538v.592l-.13-.14c-.197-.21-.515-.208-.71.002-.196.21-.196.55 0 .76l.194.208h-3.247c-.33 0-.64.175-.827.468-.173.27-.22.61-.132.92h-7.72c-.31 0-.6.153-.79.415-.19.26-.258.602-.18.923l.25 1.065c-.157.018-.312.077-.452.178-.457.333-.578 1-.267 1.493l.977 1.548v1.312c0 .594.45 1.075 1.002 1.075l.23-.03h.868l-.08 7.492h-1.45c-.4 0-.762.255-.92.648L.08 66.655c-.134.332-.104.715.082 1.017.185.303.5.485.838.485H30.99c.553 0 1.002-.48 1.002-1.075 0-.176-.04-.342-.11-.49zM5.51 60.916l.08-7.49h.267l.115 10.74h-.496l.035-3.25zm1.35-7.49h1.548l-.08 7.49H6.94l-.08-7.49zm2.933 10.74h-.496l.114-10.74h.267l.116 10.74zm.887-10.74h1.548l-.08 7.49H10.76l-.08-7.49zm2.932 10.74h-.495l.115-10.74h.266l.114 10.74zm.888-10.74h3.037l-.08 7.49H14.58l-.08-7.49zm4.422 10.74h-.496l.115-10.74h.267l.115 10.74zm.887-10.74h1.548l-.08 7.49H19.89l-.08-7.49zm2.932 10.74h-.496l.115-10.74h.267l.115 10.74zm.887-10.74h1.548l-.08 7.49H23.71l-.08-7.49zm2.897 7.49l.023 2.15.012 1.1h-.496l.114-10.74h.266l.08 7.49zm-22.12-10.61H3.87l-.155-.247-.115-.183-.267-.424h25.432l-.24.428-.24.427H4.408zm-.17-2.712h7.614v.678H4.4l-.16-.678zm8.17-1.926h7.225l-.288.796h-6.648l-.174-.483-.113-.312zm15.14 2.603h-7.36v-.677h7.52l-.16.678zm-14.693-.73h6.332v.73h-6.332v-.73zm-8.36 3.842H27.45v.968H4.493v-.968zM2.53 66.006l1.187-2.94h.77L4.468 64.7c-.003.144.05.283.144.384.094.102.223.16.357.16h1.51c.135 0 .263-.058.358-.16.094-.102.146-.24.145-.384l-.018-1.63h1.342l-.018 1.63c-.002.144.05.283.144.384.094.102.222.16.357.16h1.51c.135 0 .263-.058.358-.16.094-.102.146-.24.144-.384l-.018-1.63h1.342l-.017 1.63c-.002.144.05.283.144.384.094.102.223.16.356.16h1.51c.135 0 .263-.058.358-.16.094-.102.146-.24.145-.384l-.018-1.63h2.83l-.016 1.63c-.002.144.05.283.144.384.094.102.222.16.356.16h1.51c.134 0 .262-.058.357-.16.094-.102.146-.24.145-.384l-.018-1.63h1.342l-.017 1.63c-.003.144.05.283.143.384.094.102.223.16.357.16h1.51c.134 0 .262-.058.357-.16.094-.102.146-.24.144-.384l-.017-1.63h1.342l-.018 1.63c0 .144.05.283.145.384.094.102.222.16.356.16h1.51c.134 0 .263-.058.357-.16.094-.102.146-.24.145-.384l-.017-1.63h.72l1.188 2.938H2.53z" fill="#67737B"/><path d="M31.883 26.592l-2.03-5.027c-.16-.393-.522-.648-.92-.648H27.53l-.08-7.49h1.05l.038-.006.033-.002.04-.007c.478-.08.844-.524.844-1.06v-1.085l1.008-1.794c.286-.508.132-1.168-.342-1.475-.13-.083-.267-.13-.406-.147l.252-1.065c.076-.322.01-.663-.18-.924-.19-.263-.483-.416-.792-.416h-7.72c.09-.31.04-.65-.13-.92-.188-.293-.497-.468-.828-.468h-3.15l.194-.207c.196-.21.196-.55 0-.762-.195-.21-.513-.21-.708 0l-.13.138v-.592c0-.297-.225-.538-.502-.538s-.5.24-.5.538v.592l-.13-.14c-.197-.21-.515-.208-.71.002-.196.21-.196.55 0 .76l.194.208h-3.247c-.33 0-.64.175-.827.468-.173.27-.22.61-.132.92h-7.72c-.31 0-.6.153-.79.415-.19.26-.258.602-.18.923l.25 1.065c-.157.018-.312.077-.452.178-.457.333-.578 1-.267 1.493l.977 1.548v1.312c0 .594.45 1.075 1.002 1.075l.23-.03h.868l-.08 7.492h-1.45c-.4 0-.762.255-.92.648L.08 26.655c-.134.332-.104.715.082 1.017.185.303.5.485.838.485H30.99c.553 0 1.002-.48 1.002-1.075 0-.176-.04-.342-.11-.49zM5.51 20.916l.08-7.49h.267l.115 10.74h-.496l.035-3.25zm1.35-7.49h1.548l-.08 7.49H6.94l-.08-7.49zm2.933 10.74h-.496l.114-10.74h.267l.116 10.74zm.887-10.74h1.548l-.08 7.49H10.76l-.08-7.49zm2.932 10.74h-.495l.115-10.74h.266l.114 10.74zm.888-10.74h3.037l-.08 7.49H14.58l-.08-7.49zm4.422 10.74h-.496l.115-10.74h.267l.115 10.74zm.887-10.74h1.548l-.08 7.49H19.89l-.08-7.49zm2.932 10.74h-.496l.115-10.74h.267l.115 10.74zm.887-10.74h1.548l-.08 7.49H23.71l-.08-7.49zm2.897 7.49l.023 2.15.012 1.1h-.496l.114-10.74h.266l.08 7.49zm-22.12-10.61H3.87l-.155-.247-.115-.183-.267-.424h25.432l-.24.428-.24.427H4.408zm-.17-2.712h7.614v.678H4.4l-.16-.678zm8.17-1.926h7.225l-.288.796h-6.648l-.174-.483-.113-.312zm15.14 2.603h-7.36v-.677h7.52l-.16.678zm-14.693-.73h6.332v.73h-6.332v-.73zm-8.36 3.842H27.45v.968H4.493v-.968zM2.53 26.006l1.187-2.94h.77L4.468 24.7c-.003.144.05.283.144.384.094.102.223.16.357.16h1.51c.135 0 .263-.058.358-.16.094-.102.146-.24.145-.384l-.018-1.63h1.342l-.018 1.63c-.002.144.05.283.144.384.094.102.222.16.357.16h1.51c.135 0 .263-.058.358-.16.094-.102.146-.24.144-.384l-.018-1.63h1.342l-.017 1.63c-.002.144.05.283.144.384.094.102.223.16.356.16h1.51c.135 0 .263-.058.358-.16.094-.102.146-.24.145-.384l-.018-1.63h2.83l-.016 1.63c-.002.144.05.283.144.384.094.102.222.16.356.16h1.51c.134 0 .262-.058.357-.16.094-.102.146-.24.145-.384l-.018-1.63h1.342l-.017 1.63c-.003.144.05.283.143.384.094.102.223.16.357.16h1.51c.134 0 .262-.058.357-.16.094-.102.146-.24.144-.384l-.017-1.63h1.342l-.018 1.63c0 .144.05.283.145.384.094.102.222.16.356.16h1.51c.134 0 .263-.058.357-.16.094-.102.146-.24.145-.384l-.017-1.63h.72l1.188 2.938H2.53z" fill="#3A434E"/></g></svg>