<svg width="32" height="232" viewBox="0 0 32 232" xmlns="http://www.w3.org/2000/svg" xmlns:sketch="http://www.bohemiancoding.com/sketch/ns"><title>germany</title><desc>Created with Sketch.</desc><g sketch:type="MSPage" fill="none"><g sketch:type="MSShapeGroup"><path d="M31.883 146.592l-2.031-5.027c-.159-.393-.521-.648-.92-.648h-1.402l-.08-7.491h1.0499999999999998l.038-.005.033-.003.04-.007c.477-.082.843-.525.843-1.06v-1.086l1.008-1.794c.286-.509.132-1.169-.342-1.476-.129-.083-.267-.13-.406-.147l.252-1.065c.076-.322.009-.663-.181-.924-.19-.262-.482-.415-.791-.415h-7.72c.089-.311.041-.649-.131-.92-.187-.293-.496-.468-.827-.468h-3.151l.195-.207c.196-.21.196-.55 0-.761-.195-.21-.513-.21-.708-.001l-.13.139v-.592c0-.297-.225-.538-.502-.538s-.501.241-.501.538v.592l-.13-.139c-.196-.21-.514-.209-.709.001-.196.21-.196.55 0 .761l.194.207h-3.247c-.331 0-.641.175-.827.468-.173.27-.22.609-.132.92h-7.72c-.309 0-.601.153-.791.415-.19.261-.257.603-.18.924l.251 1.065c-.157.018-.312.077-.452.178-.457.333-.578 1.001-.267 1.493l.978 1.549v1.312c0 .594.449 1.075 1.002 1.075l.231-.029h.868l-.08 7.491h-1.451c-.4 0-.761.255-.92.648l-2.055 5.09c-.134.332-.104.715.082 1.017.185.303.5.485.838.485h29.987000000000002c.554 0 1.003-.481 1.003-1.075 0-.176-.039-.342-.11-.49zm-26.372-5.676l.08-7.491h.266l.115 10.742h-.496l.035-3.251zm1.349-7.491h1.548l-.08 7.491h-1.388l-.08-7.491zm2.933 10.742h-.496l.114-10.742h.266l.116 10.742zm.887-10.742h1.548l-.08 7.491h-1.388l-.08-7.491zm2.932 10.742h-.495l.115-10.742h.266l.114 10.742zm.888-10.742h3.037l-.08 7.491h-2.877l-.081-7.491zm4.422 10.742h-.496l.115-10.742h.266l.115 10.742zm.887-10.742h1.549l-.08 7.491h-1.388l-.081-7.491zm2.933 10.742h-.496l.115-10.742h.266l.115 10.742zm.887-10.742h1.549l-.08 7.491h-1.388l-.08-7.491zm2.898 7.491l.023 2.151.012 1.1h-.496l.114-10.742h.266l.08 7.491zm-22.121-10.609h-.535l-.156-.248-.115-.182-.267-.424h25.432l-.24.428-.239.426h-23.879zm-.169-2.713h7.614v.678h-7.453l-.161-.678zm8.171-1.926h7.224l-.288.796h-6.648l-.174-.483-.113-.313zm15.138 2.603h-7.358v-.678h7.518l-.16.678zm-14.692-.732h6.332v.732h-6.332v-.732zm-8.361 3.843h22.957v.968h-22.957v-.968zm-1.963 14.624l1.187-2.939h.769l-.017 1.631c-.002.144.051.283.145.384.094.102.223.16.357.16h1.51c.134 0 .262-.058.357-.16.094-.102.146-.24.145-.384l-.018-1.631h1.342l-.018 1.631c-.001.144.051.283.145.384.094.102.222.16.357.16h1.51c.134 0 .262-.058.357-.16.094-.102.146-.24.144-.384l-.018-1.631h1.342l-.017 1.631c-.001.144.05.283.145.384.094.102.223.16.356.16h1.511c.134 0 .262-.058.357-.16.094-.102.146-.24.145-.384l-.018-1.631h2.831l-.017 1.631c-.001.144.051.283.145.384.094.102.222.16.356.16h1.51c.134 0 .262-.058.357-.16.094-.102.146-.24.145-.384l-.018-1.631h1.342l-.017 1.631c-.002.144.05.283.144.384.094.102.223.16.357.16h1.51c.134 0 .262-.058.357-.16.094-.102.146-.24.144-.384l-.018-1.631h1.342l-.018 1.631c-.001.144.051.283.145.384.094.102.222.16.356.16h1.511c.133 0 .262-.058.356-.16.094-.102.146-.24.145-.384l-.017-1.631h.721l1.187 2.939h-26.932z" fill="#206FAC"/><path d="M31.883 106.592l-2.031-5.027c-.159-.393-.521-.648-.92-.648h-1.402l-.08-7.491h1.0499999999999998l.038-.005.033-.003.04-.007c.477-.082.843-.525.843-1.06v-1.086l1.008-1.794c.286-.509.132-1.169-.342-1.476-.129-.083-.267-.13-.406-.147l.252-1.065c.076-.322.009-.663-.181-.924-.19-.262-.482-.415-.791-.415h-7.72c.089-.311.041-.649-.131-.92-.187-.293-.496-.468-.827-.468h-3.151l.195-.207c.196-.21.196-.55 0-.761-.195-.21-.513-.21-.708-.001l-.13.139v-.592c0-.297-.225-.538-.502-.538s-.501.241-.501.538v.592l-.13-.139c-.196-.21-.514-.209-.709.001-.196.21-.196.55 0 .761l.194.207h-3.247c-.331 0-.641.175-.827.468-.173.27-.22.609-.132.92h-7.72c-.309 0-.601.153-.791.415-.19.261-.257.603-.18.924l.251 1.065c-.157.018-.312.077-.452.178-.457.333-.578 1.001-.267 1.493l.978 1.549v1.312c0 .594.449 1.075 1.002 1.075l.231-.029h.868l-.08 7.491h-1.451c-.4 0-.761.255-.92.648l-2.055 5.09c-.134.332-.104.715.082 1.017.185.303.5.485.838.485h29.987000000000002c.554 0 1.003-.481 1.003-1.075 0-.176-.039-.342-.11-.49zm-26.372-5.676l.08-7.491h.266l.115 10.742h-.496l.035-3.251zm1.349-7.491h1.548l-.08 7.491h-1.388l-.08-7.491zm2.933 10.742h-.496l.114-10.742h.266l.116 10.742zm.887-10.742h1.548l-.08 7.491h-1.388l-.08-7.491zm2.932 10.742h-.495l.115-10.742h.266l.114 10.742zm.888-10.742h3.037l-.08 7.491h-2.877l-.081-7.491zm4.422 10.742h-.496l.115-10.742h.266l.115 10.742zm.887-10.742h1.549l-.08 7.491h-1.388l-.081-7.491zm2.933 10.742h-.496l.115-10.742h.266l.115 10.742zm.887-10.742h1.549l-.08 7.491h-1.388l-.08-7.491zm2.898 7.491l.023 2.151.012 1.1h-.496l.114-10.742h.266l.08 7.491zm-22.121-10.609h-.535l-.156-.248-.115-.182-.267-.424h25.432l-.24.428-.239.426h-23.879zm-.169-2.713h7.614v.678h-7.453l-.161-.678zm8.171-1.926h7.224l-.288.796h-6.648l-.174-.483-.113-.313zm15.138 2.603h-7.358v-.678h7.518l-.16.678zm-14.692-.732h6.332v.732h-6.332v-.732zm-8.361 3.843h22.957v.968h-22.957v-.968zm-1.963 14.624l1.187-2.939h.769l-.017 1.631c-.002.144.051.283.145.384.094.102.223.16.357.16h1.51c.134 0 .262-.058.357-.16.094-.102.146-.24.145-.384l-.018-1.631h1.342l-.018 1.631c-.001.144.051.283.145.384.094.102.222.16.357.16h1.51c.134 0 .262-.058.357-.16.094-.102.146-.24.144-.384l-.018-1.631h1.342l-.017 1.631c-.001.144.05.283.145.384.094.102.223.16.356.16h1.511c.134 0 .262-.058.357-.16.094-.102.146-.24.145-.384l-.018-1.631h2.831l-.017 1.631c-.001.144.051.283.145.384.094.102.222.16.356.16h1.51c.134 0 .262-.058.357-.16.094-.102.146-.24.145-.384l-.018-1.631h1.342l-.017 1.631c-.002.144.05.283.144.384.094.102.223.16.357.16h1.51c.134 0 .262-.058.357-.16.094-.102.146-.24.144-.384l-.018-1.631h1.342l-.018 1.631c-.001.144.051.283.145.384.094.102.222.16.356.16h1.511c.133 0 .262-.058.356-.16.094-.102.146-.24.145-.384l-.017-1.631h.721l1.187 2.939h-26.932z" fill="#fff"/><path d="M31.883 66.592l-2.031-5.027c-.159-.393-.521-.648-.92-.648h-1.402l-.08-7.491h1.0499999999999998l.038-.005.033-.003.04-.007c.477-.082.843-.525.843-1.06v-1.086l1.008-1.794c.286-.509.132-1.169-.342-1.476-.129-.083-.267-.13-.406-.147l.252-1.065c.076-.322.009-.663-.181-.924-.19-.262-.482-.415-.791-.415h-7.72c.089-.311.041-.649-.131-.92-.187-.293-.496-.468-.827-.468h-3.151l.195-.207c.196-.21.196-.55 0-.761-.195-.21-.513-.21-.708-.001l-.13.139v-.592c0-.297-.225-.538-.502-.538s-.501.241-.501.538v.592l-.13-.139c-.196-.21-.514-.209-.709.001-.196.21-.196.55 0 .761l.194.207h-3.247c-.331 0-.641.175-.827.468-.173.27-.22.609-.132.92h-7.72c-.309 0-.601.153-.791.415-.19.261-.257.603-.18.924l.251 1.065c-.157.018-.312.077-.452.178-.457.333-.578 1.001-.267 1.493l.978 1.549v1.312c0 .594.449 1.075 1.002 1.075l.231-.029h.868l-.08 7.491h-1.451c-.4 0-.761.255-.92.648l-2.055 5.09c-.134.332-.104.715.082 1.017.185.303.5.485.838.485h29.987000000000002c.554 0 1.003-.481 1.003-1.075 0-.176-.039-.342-.11-.49zm-26.372-5.676l.08-7.491h.266l.115 10.742h-.496l.035-3.251zm1.349-7.491h1.548l-.08 7.491h-1.388l-.08-7.491zm2.933 10.742h-.496l.114-10.742h.266l.116 10.742zm.887-10.742h1.548l-.08 7.491h-1.388l-.08-7.491zm2.932 10.742h-.495l.115-10.742h.266l.114 10.742zm.888-10.742h3.037l-.08 7.491h-2.877l-.081-7.491zm4.422 10.742h-.496l.115-10.742h.266l.115 10.742zm.887-10.742h1.549l-.08 7.491h-1.388l-.081-7.491zm2.933 10.742h-.496l.115-10.742h.266l.115 10.742zm.887-10.742h1.549l-.08 7.491h-1.388l-.08-7.491zm2.898 7.491l.023 2.151.012 1.1h-.496l.114-10.742h.266l.08 7.491zm-22.121-10.609h-.535l-.156-.248-.115-.182-.267-.424h25.432l-.24.428-.239.426h-23.879zm-.169-2.713h7.614v.678h-7.453l-.161-.678zm8.171-1.926h7.224l-.288.796h-6.648l-.174-.483-.113-.313zm15.138 2.603h-7.358v-.678h7.518l-.16.678zm-14.692-.732h6.332v.732h-6.332v-.732zm-8.361 3.843h22.957v.968h-22.957v-.968zm-1.963 14.624l1.187-2.939h.769l-.017 1.631c-.002.144.051.283.145.384.094.102.223.16.357.16h1.51c.134 0 .262-.058.357-.16.094-.102.146-.24.145-.384l-.018-1.631h1.342l-.018 1.631c-.001.144.051.283.145.384.094.102.222.16.357.16h1.51c.134 0 .262-.058.357-.16.094-.102.146-.24.144-.384l-.018-1.631h1.342l-.017 1.631c-.001.144.05.283.145.384.094.102.223.16.356.16h1.511c.134 0 .262-.058.357-.16.094-.102.146-.24.145-.384l-.018-1.631h2.831l-.017 1.631c-.001.144.051.283.145.384.094.102.222.16.356.16h1.51c.134 0 .262-.058.357-.16.094-.102.146-.24.145-.384l-.018-1.631h1.342l-.017 1.631c-.002.144.05.283.144.384.094.102.223.16.357.16h1.51c.134 0 .262-.058.357-.16.094-.102.146-.24.144-.384l-.018-1.631h1.342l-.018 1.631c-.001.144.051.283.145.384.094.102.222.16.356.16h1.511c.133 0 .262-.058.356-.16.094-.102.146-.24.145-.384l-.017-1.631h.721l1.187 2.939h-26.932z" fill="#67737B"/><path d="M31.883 26.592l-2.031-5.027c-.159-.393-.521-.648-.92-.648h-1.402l-.08-7.491h1.0499999999999998l.038-.005.033-.003.04-.007c.477-.082.843-.525.843-1.06v-1.086l1.008-1.794c.286-.509.132-1.169-.342-1.476-.129-.083-.267-.13-.406-.147l.252-1.065c.076-.322.009-.663-.181-.924-.19-.262-.482-.415-.791-.415h-7.72c.089-.311.041-.649-.131-.92-.187-.293-.496-.468-.827-.468h-3.151l.195-.207c.196-.21.196-.55 0-.761-.195-.21-.513-.21-.708-.001l-.13.139v-.592c0-.297-.225-.538-.502-.538s-.501.241-.501.538v.592l-.13-.139c-.196-.21-.514-.209-.709.001-.196.21-.196.55 0 .761l.194.207h-3.247c-.331 0-.641.175-.827.468-.173.27-.22.609-.132.92h-7.72c-.309 0-.601.153-.791.415-.19.261-.257.603-.18.924l.251 1.065c-.157.018-.312.077-.452.178-.457.333-.578 1.001-.267 1.493l.978 1.549v1.312c0 .594.449 1.075 1.002 1.075l.231-.029h.868l-.08 7.491h-1.451c-.4 0-.761.255-.92.648l-2.055 5.09c-.134.332-.104.715.082 1.017.185.303.5.485.838.485h29.987000000000002c.554 0 1.003-.481 1.003-1.075 0-.176-.039-.342-.11-.49zm-26.372-5.676l.08-7.491h.266l.115 10.742h-.496l.035-3.251zm1.349-7.491h1.548l-.08 7.491h-1.388l-.08-7.491zm2.933 10.742h-.496l.114-10.742h.266l.116 10.742zm.887-10.742h1.548l-.08 7.491h-1.388l-.08-7.491zm2.932 10.742h-.495l.115-10.742h.266l.114 10.742zm.888-10.742h3.037l-.08 7.491h-2.877l-.081-7.491zm4.422 10.742h-.496l.115-10.742h.266l.115 10.742zm.887-10.742h1.549l-.08 7.491h-1.388l-.081-7.491zm2.933 10.742h-.496l.115-10.742h.266l.115 10.742zm.887-10.742h1.549l-.08 7.491h-1.388l-.08-7.491zm2.898 7.491l.023 2.151.012 1.1h-.496l.114-10.742h.266l.08 7.491zm-22.121-10.609h-.535l-.156-.248-.115-.182-.267-.424h25.432l-.24.428-.239.426h-23.879zm-.169-2.713h7.614v.678h-7.453l-.161-.678zm8.171-1.926h7.224l-.288.796h-6.648l-.174-.483-.113-.313zm15.138 2.603h-7.358v-.678h7.518l-.16.678zm-14.692-.732h6.332v.732h-6.332v-.732zm-8.361 3.843h22.957v.968h-22.957v-.968zm-1.963 14.624l1.187-2.939h.769l-.017 1.631c-.002.144.051.283.145.384.094.102.223.16.357.16h1.51c.134 0 .262-.058.357-.16.094-.102.146-.24.145-.384l-.018-1.631h1.342l-.018 1.631c-.001.144.051.283.145.384.094.102.222.16.357.16h1.51c.134 0 .262-.058.357-.16.094-.102.146-.24.144-.384l-.018-1.631h1.342l-.017 1.631c-.001.144.05.283.145.384.094.102.223.16.356.16h1.511c.134 0 .262-.058.357-.16.094-.102.146-.24.145-.384l-.018-1.631h2.831l-.017 1.631c-.001.144.051.283.145.384.094.102.222.16.356.16h1.51c.134 0 .262-.058.357-.16.094-.102.146-.24.145-.384l-.018-1.631h1.342l-.017 1.631c-.002.144.05.283.144.384.094.102.223.16.357.16h1.51c.134 0 .262-.058.357-.16.094-.102.146-.24.144-.384l-.018-1.631h1.342l-.018 1.631c-.001.144.051.283.145.384.094.102.222.16.356.16h1.511c.133 0 .262-.058.356-.16.094-.102.146-.24.145-.384l-.017-1.631h.721l1.187 2.939h-26.932z" fill="#3A434E"/></g></g></svg>