<svg width="32" height="232" viewBox="0 0 32 232" xmlns="http://www.w3.org/2000/svg"><desc>Created with Sketch.</desc><g fill="none"><path d="M31.865 147.12l-2.03-4.925c-.158-.385-.52-.634-.92-.634h-1.4l-.08-7.34h1.088l.033-.005.04-.006c.478-.08.843-.516.843-1.04v-1.064l1.002-1.757c.285-.5.132-1.147-.342-1.447-.127-.08-.266-.126-.406-.143l.252-1.044c.076-.315.01-.65-.18-.906-.19-.257-.483-.406-.792-.406H21.26c.09-.304.04-.636-.13-.9-.188-.287-.497-.458-.828-.458h-3.148l.193-.203c.196-.205.196-.54 0-.745-.194-.206-.51-.206-.707-.002l-.13.137v-.58c0-.292-.224-.528-.5-.528s-.502.236-.502.527v.58l-.13-.14c-.196-.204-.513-.203-.71.003-.194.206-.194.54.002.745l.194.202H11.62c-.332 0-.64.17-.828.458-.173.265-.22.597-.132.9H2.945c-.31 0-.6.15-.79.407-.19.257-.256.59-.18.906l.25 1.044c-.156.018-.31.075-.45.174-.458.33-.578.984-.268 1.465l.977 1.52v1.285c0 .58.45 1.053 1.002 1.053l.23-.03h.87l-.08 7.34h-1.45c-.4 0-.762.25-.92.635L.08 147.183c-.133.326-.103.7.083.997.186.297.5.475.838.475h29.975c.553 0 1.002-.47 1.002-1.054 0-.17-.04-.332-.11-.48zM5.51 141.56l.08-7.34h.265l.114 10.525h-.5l.034-3.185zm1.347-7.34h1.547l-.08 7.34H6.937l-.08-7.34zm2.93 10.525H9.29l.116-10.526h.266l.115 10.522zm.887-10.526h1.547l-.08 7.34h-1.383l-.08-7.34zm2.93 10.522h-.496l.115-10.526h.267l.115 10.525zm.887-10.526h3.04l-.08 7.34h-2.88l-.08-7.34zm4.42 10.525h-.494l.115-10.525h.266l.103 9.447.01 1.078zm.89-10.525h1.547l-.08 7.34H19.88l-.08-7.34zm2.93 10.525h-.496l.117-10.525h.266l.114 10.525zm.887-10.525h1.547l-.08 7.34h-1.386l-.08-7.34zm2.896 7.34l.036 3.185h-.497l.114-10.525h.266l.08 7.34zm-22.11-10.39H3.87l-.158-.244-.113-.175-.27-.415h25.42l-.24.42-.1.172-.14.244H4.4zm-.17-2.66h7.61v.664h-7.45l-.16-.668zm8.167-1.886h7.22l-.115.302-.174.474H12.69l-.175-.475-.11-.305zm15.13 2.55h-7.355v-.668h7.514l-.16.664zm-14.685-.72h6.328v.716h-6.328v-.718zm-8.356 3.764h22.943v.948H4.488v-.948zm-1.964 14.33l1.186-2.88h.77l-.018 1.598c-.002.14.05.276.145.377.09.1.22.156.353.156h1.51c.134 0 .262-.056.356-.156.094-.1.146-.234.145-.374l-.018-1.6H8.3l-.018 1.6c-.002.14.05.276.144.377.094.1.223.156.357.156h1.51c.133 0 .262-.06.356-.16.09-.1.142-.234.14-.375l-.017-1.6h1.34l-.017 1.6c-.002.14.05.276.144.377.095.1.223.157.357.157h1.51c.133 0 .26-.058.355-.158.094-.1.146-.236.145-.377l-.017-1.6h2.83l-.017 1.6c0 .14.05.276.146.376.092.1.22.156.354.156h1.51c.133 0 .26-.056.355-.156.094-.1.147-.236.145-.376l-.017-1.6h1.34l-.02 1.6c0 .14.05.276.146.376.094.1.222.155.356.155h1.51c.133 0 .26-.056.355-.156.093-.1.145-.24.144-.38l-.017-1.6h1.34l-.016 1.6c0 .14.05.277.145.378.094.1.222.155.357.155h1.51c.132 0 .26-.057.355-.157.093-.1.145-.237.143-.377l-.017-1.6h.72l1.19 2.88H2.527z" fill="#206FAC"/><path d="M31.865 107.12l-2.03-4.925c-.158-.385-.52-.634-.92-.634h-1.4l-.08-7.34h1.088l.033-.005.04-.006c.478-.08.843-.516.843-1.04v-1.064l1.002-1.757c.285-.5.132-1.147-.342-1.447-.127-.08-.266-.126-.406-.143l.252-1.044c.076-.315.01-.65-.18-.906-.19-.257-.483-.406-.792-.406H21.26c.09-.304.04-.636-.13-.9-.188-.287-.497-.458-.828-.458h-3.148l.193-.203c.196-.205.196-.54 0-.745-.194-.206-.51-.206-.707-.002l-.13.137v-.58c0-.292-.224-.528-.5-.528s-.502.236-.502.527v.58l-.13-.14c-.196-.204-.513-.203-.71.003-.194.206-.194.54.002.745l.194.202H11.62c-.332 0-.64.17-.828.458-.173.265-.22.597-.132.9H2.945c-.31 0-.6.15-.79.407-.19.257-.256.59-.18.906l.25 1.044c-.156.018-.31.075-.45.174-.458.33-.578.984-.268 1.465l.977 1.52V93.2c0 .58.45 1.053 1.002 1.053l.23-.03h.87l-.08 7.34h-1.45c-.4 0-.762.25-.92.635L.08 107.183c-.133.326-.103.7.083.997.186.297.5.475.838.475h29.975c.553 0 1.002-.47 1.002-1.054 0-.17-.04-.332-.11-.48zM5.51 101.56l.08-7.34h.265l.114 10.525h-.5l.034-3.185zm1.347-7.34h1.547l-.08 7.34H6.937l-.08-7.34zm2.93 10.525H9.29l.116-10.526h.266l.115 10.522zm.887-10.526h1.547l-.08 7.34h-1.383l-.08-7.34zm2.93 10.522h-.496l.115-10.526h.267l.115 10.525zm.887-10.526h3.04l-.08 7.34h-2.88l-.08-7.34zm4.42 10.525h-.494l.115-10.525h.266l.103 9.447.01 1.078zm.89-10.525h1.547l-.08 7.34H19.88l-.08-7.34zm2.93 10.525h-.496l.117-10.525h.266l.114 10.525zm.887-10.525h1.547l-.08 7.34h-1.386l-.08-7.34zm2.896 7.34l.036 3.185h-.497l.114-10.525h.266l.08 7.34zm-22.11-10.39H3.87l-.158-.244-.113-.175-.27-.415h25.42l-.24.42-.1.172-.14.244H4.4zm-.17-2.66h7.61v.664h-7.45l-.16-.668zM12.4 86.62h7.22l-.115.302-.174.474H12.69l-.175-.475-.11-.305zm15.13 2.55h-7.355V88.5h7.514l-.16.664zm-14.685-.72h6.328v.716h-6.328v-.718zM4.49 92.213h22.944v.948H4.488v-.948zm-1.963 14.33l1.186-2.88h.77l-.018 1.598c-.002.14.05.276.145.377.092.1.22.156.354.156h1.51c.134 0 .262-.056.356-.156.095-.1.147-.234.146-.374l-.018-1.6H8.3l-.018 1.6c-.002.14.05.276.144.377.094.1.223.156.357.156h1.51c.133 0 .262-.06.356-.16.09-.1.142-.234.14-.375l-.017-1.6h1.34l-.017 1.6c-.002.14.05.276.144.377.095.1.223.157.357.157h1.51c.133 0 .26-.058.355-.158.094-.1.146-.236.145-.377l-.017-1.6h2.83l-.017 1.6c0 .14.05.276.146.376.092.1.22.156.354.156h1.51c.133 0 .26-.056.355-.156.094-.1.147-.236.145-.376l-.017-1.6h1.34l-.02 1.6c0 .14.05.276.146.376.094.1.222.155.356.155h1.51c.133 0 .26-.056.355-.156.093-.1.145-.24.144-.38l-.017-1.6h1.34l-.016 1.6c0 .14.05.277.145.378.094.1.222.155.357.155h1.51c.132 0 .26-.057.355-.157.093-.1.145-.237.143-.377l-.017-1.6h.72l1.19 2.88H2.527z" fill="#fff"/><path d="M31.865 67.12l-2.03-4.925c-.158-.385-.52-.634-.92-.634h-1.4l-.08-7.34h1.088l.033-.005.04-.006c.478-.08.843-.516.843-1.04v-1.064l1.002-1.757c.285-.5.132-1.147-.342-1.447-.127-.08-.266-.126-.406-.143l.252-1.044c.076-.315.01-.65-.18-.906-.19-.257-.483-.406-.792-.406H21.26c.09-.304.04-.636-.13-.9-.188-.287-.497-.458-.828-.458h-3.148l.193-.203c.196-.205.196-.54 0-.745-.194-.206-.51-.206-.707-.002l-.13.137v-.58c0-.292-.224-.528-.5-.528s-.502.236-.502.527v.58l-.13-.14c-.196-.204-.513-.203-.71.003-.194.206-.194.54.002.745l.194.202H11.62c-.332 0-.64.17-.828.458-.173.265-.22.597-.132.9H2.945c-.31 0-.6.15-.79.407-.19.257-.256.59-.18.906l.25 1.044c-.156.018-.31.075-.45.174-.458.33-.578.984-.268 1.465l.977 1.52V53.2c0 .58.45 1.053 1.002 1.053l.23-.03h.87l-.08 7.34h-1.45c-.4 0-.762.25-.92.635L.08 67.183c-.133.326-.103.7.083.997.186.297.5.475.838.475h29.975c.553 0 1.002-.47 1.002-1.054 0-.17-.04-.332-.11-.48zM5.51 61.56l.08-7.34h.265l.114 10.525h-.5l.034-3.185zm1.347-7.34h1.547l-.08 7.34H6.937l-.08-7.34zm2.93 10.525H9.29l.116-10.526h.266l.115 10.522zm.887-10.526h1.547l-.08 7.34h-1.383l-.08-7.34zm2.93 10.522h-.496l.115-10.526h.267l.115 10.525zm.887-10.526h3.04l-.08 7.34h-2.88l-.08-7.34zm4.42 10.525h-.494l.115-10.525h.266l.103 9.447.01 1.078zm.89-10.525h1.547l-.08 7.34H19.88l-.08-7.34zm2.93 10.525h-.496l.117-10.525h.266l.114 10.525zm.887-10.525h1.547l-.08 7.34h-1.386l-.08-7.34zm2.896 7.34l.036 3.185h-.497l.114-10.525h.266l.08 7.34zm-22.11-10.39H3.87l-.158-.244-.113-.175-.27-.415h25.42l-.24.42-.1.172-.14.244H4.4zm-.17-2.66h7.61v.664h-7.45l-.16-.668zM12.4 46.62h7.22l-.115.302-.174.474H12.69l-.175-.475-.11-.305zm15.13 2.55h-7.355V48.5h7.514l-.16.664zm-14.685-.72h6.328v.716h-6.328v-.718zM4.49 52.213h22.944v.948H4.488v-.948zm-1.963 14.33l1.186-2.88h.77l-.018 1.598c-.002.14.05.276.145.377.092.1.22.156.354.156h1.51c.134 0 .262-.056.356-.156.095-.1.147-.234.146-.374l-.018-1.6H8.3l-.018 1.6c-.002.14.05.276.144.377.094.1.223.156.357.156h1.51c.133 0 .262-.06.356-.16.09-.1.142-.234.14-.375l-.017-1.6h1.34l-.017 1.6c-.002.14.05.276.144.377.095.1.223.157.357.157h1.51c.133 0 .26-.058.355-.158.094-.1.146-.236.145-.377l-.017-1.6h2.83l-.017 1.6c0 .14.05.276.146.376.092.1.22.156.354.156h1.51c.133 0 .26-.056.355-.156.094-.1.147-.236.145-.376l-.017-1.6h1.34l-.02 1.6c0 .14.05.276.146.376.094.1.222.155.356.155h1.51c.133 0 .26-.056.355-.156.093-.1.145-.24.144-.38l-.017-1.6h1.34l-.016 1.6c0 .14.05.277.145.378.094.1.222.155.357.155h1.51c.132 0 .26-.057.355-.157.093-.1.145-.237.143-.377l-.017-1.6h.72l1.19 2.88H2.527z" fill="#67737B"/><path d="M31.865 27.12l-2.03-4.925c-.158-.385-.52-.634-.92-.634h-1.4l-.08-7.34h1.088l.033-.005.04-.006c.478-.08.843-.516.843-1.04v-1.064l1.002-1.757c.285-.5.132-1.147-.342-1.447-.127-.08-.266-.126-.406-.143l.252-1.044c.076-.315.01-.65-.18-.906-.19-.257-.483-.406-.792-.406H21.26c.09-.304.04-.636-.13-.9-.188-.287-.497-.458-.828-.458h-3.148l.193-.203c.196-.205.196-.54 0-.745-.194-.206-.51-.206-.707-.002l-.13.137v-.58c0-.292-.224-.528-.5-.528s-.502.236-.502.527v.58l-.13-.14c-.196-.204-.513-.203-.71.003-.194.206-.194.54.002.745l.194.202H11.62c-.332 0-.64.17-.828.458-.173.265-.22.597-.132.9H2.945c-.31 0-.6.15-.79.407-.19.257-.256.59-.18.906l.25 1.044c-.156.018-.31.075-.45.174-.458.33-.578.984-.268 1.465l.977 1.52V13.2c0 .58.45 1.053 1.002 1.053l.23-.03h.87l-.08 7.34h-1.45c-.4 0-.762.25-.92.635L.08 27.183c-.133.326-.103.7.083.997.186.297.5.475.838.475h29.975c.553 0 1.002-.47 1.002-1.054 0-.17-.04-.332-.11-.48zM5.51 21.56l.08-7.34h.265l.114 10.525h-.5l.034-3.185zm1.347-7.34h1.547l-.08 7.34H6.937l-.08-7.34zm2.93 10.525H9.29l.116-10.526h.266l.115 10.522zm.887-10.526h1.547l-.08 7.34h-1.383l-.08-7.34zm2.93 10.522h-.496l.115-10.526h.267l.115 10.525zm.887-10.526h3.04l-.08 7.34h-2.88l-.08-7.34zm4.42 10.525h-.494l.115-10.525h.266l.103 9.447.01 1.078zm.89-10.525h1.547l-.08 7.34H19.88l-.08-7.34zm2.93 10.525h-.496l.117-10.525h.266l.114 10.525zm.887-10.525h1.547l-.08 7.34h-1.386l-.08-7.34zm2.896 7.34l.036 3.185h-.497l.114-10.525h.266l.08 7.34zm-22.11-10.39H3.87l-.158-.244-.113-.175-.27-.415h25.42l-.24.42-.1.172-.14.244H4.4zm-.17-2.66h7.61v.664h-7.45l-.16-.668zM12.4 6.618h7.22l-.115.303-.174.475H12.69l-.175-.475-.11-.306zm15.13 2.55h-7.355V8.5h7.514l-.16.665zm-14.686-.72h6.328v.716h-6.327V8.45zm-8.356 3.764h22.945v.948H4.488v-.948zm-1.962 14.33l1.186-2.88h.77l-.017 1.598c-.002.14.05.276.145.377.093.1.22.155.355.155h1.51c.134 0 .262-.056.356-.156.096-.1.148-.237.147-.377l-.018-1.6H8.3l-.018 1.6c-.002.14.05.275.144.376.094.1.223.157.357.157h1.51c.133 0 .262-.057.356-.157.09-.1.142-.236.14-.377l-.017-1.6h1.34l-.017 1.6c-.002.14.05.275.144.376.095.1.223.156.357.156h1.51c.133 0 .26-.057.355-.157.094-.1.146-.238.145-.38l-.017-1.6h2.83l-.017 1.6c0 .14.05.277.146.377.092.1.22.156.354.156h1.51c.133 0 .26-.056.355-.156.094-.1.147-.236.145-.376l-.017-1.6h1.34l-.02 1.6c0 .14.05.277.146.377.094.1.222.156.356.156h1.51c.133 0 .26-.057.355-.157.093-.1.145-.236.144-.376l-.017-1.6h1.34l-.016 1.6c0 .14.05.277.145.378.094.1.222.155.357.155h1.51c.132 0 .26-.057.355-.157.093-.1.145-.236.143-.376l-.017-1.6h.72l1.19 2.88H2.527z" fill="#373D43"/></g></svg>