<svg width="32" height="232" viewBox="0 0 32 232" xmlns="http://www.w3.org/2000/svg"><title>berlin</title><desc>Created with Sketch.</desc><g fill="none"><path d="M31.865 147.12l-2.03-4.925c-.158-.385-.52-.634-.92-.634h-1.4l-.08-7.34h1.05l.038-.004.033-.004.04-.006c.478-.08.843-.515.843-1.04v-1.063l1.005-1.757c.285-.5.132-1.146-.342-1.446-.128-.08-.267-.127-.407-.144l.252-1.043c.076-.315.01-.65-.18-.906-.19-.257-.483-.406-.792-.406H21.26c.09-.304.04-.636-.13-.9-.188-.287-.497-.458-.828-.458h-3.148l.193-.203c.196-.206.196-.54 0-.746-.194-.206-.51-.206-.707-.002l-.13.137v-.58c0-.292-.224-.528-.5-.528s-.502.236-.502.527v.58l-.13-.138c-.196-.205-.513-.204-.71.002-.194.206-.194.54.002.745l.194.202H11.62c-.332 0-.64.17-.828.458-.173.265-.22.597-.132.9H2.945c-.31 0-.6.15-.79.407-.19.257-.256.59-.18.906l.25 1.043c-.156.018-.31.075-.45.174-.458.327-.578.982-.268 1.463l.977 1.518v1.286c0 .582.45 1.054 1.002 1.054l.23-.03h.87l-.08 7.342h-1.45c-.4 0-.762.25-.92.634L.08 147.183c-.133.326-.103.7.083.997.186.297.5.475.838.475h29.972c.553 0 1.002-.47 1.002-1.054 0-.172-.04-.335-.11-.48zM5.51 141.56l.08-7.34h.265l.114 10.525h-.497l.035-3.185zm1.347-7.34h1.547l-.08 7.34H6.937l-.08-7.34zm2.93 10.525H9.29l.116-10.526h.266l.115 10.525zm.887-10.526h1.547l-.08 7.34h-1.386l-.08-7.34zm2.93 10.525h-.496l.115-10.526h.267l.115 10.525zm.887-10.526h3.037l-.08 7.34H14.57l-.08-7.34zm4.42 10.525h-.497l.115-10.526h.266l.103 9.447.012 1.078zm.887-10.526h1.547l-.08 7.34h-1.387l-.08-7.34zm2.93 10.525h-.496l.117-10.526h.266l.114 10.525zm.887-10.526h1.547l-.08 7.34h-1.386l-.08-7.34zm2.896 7.34l.035 3.185h-.496l.114-10.526h.266l.08 7.34zM4.402 131.164h-.534l-.157-.243-.114-.178-.267-.415h25.417l-.24.42-.1.173-.14.243H4.402zm-.17-2.66h7.61v.665h-7.45l-.16-.665zm8.166-1.885h7.22l-.114.305-.174.474h-6.644l-.175-.475-.112-.306zm15.13 2.55h-7.354v-.665h7.514l-.16.664zm-14.684-.718h6.328v.717h-6.328v-.718zm-8.356 3.765h22.945v.948H4.488v-.948zm-1.962 14.33l1.186-2.88h.77l-.018 1.598c-.002.14.05.276.145.377.093.1.22.156.355.156h1.51c.134 0 .262-.056.356-.156.095-.1.147-.236.146-.376l-.018-1.6H8.3l-.018 1.6c-.002.14.05.276.144.377.094.1.223.156.357.156h1.51c.133 0 .262-.057.356-.157.093-.1.145-.236.144-.377l-.018-1.6h1.34l-.017 1.6c-.002.14.05.276.144.377.094.1.222.156.356.156h1.51c.133 0 .26-.057.355-.157.094-.1.146-.236.145-.377l-.017-1.6h2.83l-.018 1.6c0 .14.05.276.146.376.095.1.223.156.357.156h1.51c.133 0 .26-.056.355-.156.094-.1.147-.236.145-.376l-.017-1.6h1.34l-.017 1.6c0 .14.05.276.145.376.094.1.222.156.356.156h1.51c.133 0 .26-.056.355-.156.093-.1.145-.236.144-.376l-.017-1.6h1.34l-.016 1.6c0 .14.052.276.146.377.094.1.222.156.357.156h1.51c.133 0 .26-.057.356-.157.093-.1.145-.236.143-.376l-.017-1.6h.72l1.188 2.88H2.527z" fill="#206FAC"/><path d="M31.865 107.12l-2.03-4.925c-.158-.385-.52-.634-.92-.634h-1.4l-.08-7.34h1.05l.038-.004.033-.004.04-.006c.478-.08.843-.515.843-1.04v-1.063l1.005-1.757c.285-.5.132-1.146-.342-1.446-.128-.08-.267-.127-.407-.144l.252-1.043c.076-.315.01-.65-.18-.906-.19-.257-.483-.406-.792-.406H21.26c.09-.304.04-.636-.13-.9-.188-.287-.497-.458-.828-.458h-3.148l.193-.203c.196-.206.196-.54 0-.746-.194-.206-.51-.206-.707-.002l-.13.137v-.58c0-.292-.224-.528-.5-.528s-.502.236-.502.527v.58l-.13-.138c-.196-.205-.513-.204-.71.002-.194.206-.194.54.002.745l.194.202H11.62c-.332 0-.64.17-.828.458-.173.265-.22.597-.132.9H2.945c-.31 0-.6.15-.79.407-.19.257-.256.59-.18.906l.25 1.043c-.156.018-.31.075-.45.174-.458.327-.578.982-.268 1.463l.977 1.518v1.286c0 .582.45 1.054 1.002 1.054l.23-.03h.87l-.08 7.342h-1.45c-.4 0-.762.25-.92.634L.08 107.183c-.133.326-.103.7.083.997.186.297.5.475.838.475h29.972c.553 0 1.002-.47 1.002-1.054 0-.172-.04-.335-.11-.48zM5.51 101.56l.08-7.34h.265l.114 10.525h-.497l.035-3.185zm1.347-7.34h1.547l-.08 7.34H6.937l-.08-7.34zm2.93 10.525H9.29l.116-10.526h.266l.115 10.525zm.887-10.526h1.547l-.08 7.34h-1.386l-.08-7.34zm2.93 10.525h-.496l.115-10.526h.267l.115 10.525zm.887-10.526h3.037l-.08 7.34H14.57l-.08-7.34zm4.42 10.525h-.497l.115-10.526h.266l.103 9.447.012 1.078zm.887-10.526h1.547l-.08 7.34h-1.387l-.08-7.34zm2.93 10.525h-.496l.117-10.526h.266l.114 10.525zm.887-10.526h1.547l-.08 7.34h-1.386l-.08-7.34zm2.896 7.34l.035 3.185h-.496l.114-10.526h.266l.08 7.34zM4.402 91.164h-.534l-.157-.243-.114-.178-.267-.415h25.417l-.24.42-.1.173-.14.243H4.402zm-.17-2.66h7.61v.665h-7.45l-.16-.665zm8.166-1.885h7.22l-.114.305-.174.474h-6.644l-.175-.475-.112-.306zm15.13 2.55h-7.354v-.665h7.514l-.16.664zm-14.684-.718h6.328v.717h-6.328v-.718zm-8.356 3.765h22.945v.948H4.488v-.948zm-1.962 14.33l1.186-2.88h.77l-.018 1.598c-.002.14.05.276.145.377.093.1.22.156.355.156h1.51c.134 0 .262-.056.356-.156.095-.1.147-.236.146-.376l-.018-1.6H8.3l-.018 1.6c-.002.14.05.276.144.377.094.1.223.156.357.156h1.51c.133 0 .262-.057.356-.157.093-.1.145-.236.144-.377l-.018-1.6h1.34l-.017 1.6c-.002.14.05.276.144.377.094.1.222.156.356.156h1.51c.133 0 .26-.057.355-.157.094-.1.146-.236.145-.377l-.017-1.6h2.83l-.018 1.6c0 .14.05.276.146.376.095.1.223.156.357.156h1.51c.133 0 .26-.056.355-.156.094-.1.147-.236.145-.376l-.017-1.6h1.34l-.017 1.6c0 .14.05.276.145.376.094.1.222.156.356.156h1.51c.133 0 .26-.056.355-.156.093-.1.145-.236.144-.376l-.017-1.6h1.34l-.016 1.6c0 .14.052.276.146.377.094.1.222.156.357.156h1.51c.133 0 .26-.057.356-.157.093-.1.145-.236.143-.376l-.017-1.6h.72l1.188 2.88H2.527z" fill="#fff"/><path d="M31.865 67.12l-2.03-4.925c-.158-.385-.52-.634-.92-.634h-1.4l-.08-7.34h1.05l.038-.004.033-.004.04-.006c.478-.08.843-.515.843-1.04v-1.063l1.005-1.757c.285-.5.132-1.146-.342-1.446-.128-.08-.267-.127-.407-.144l.252-1.043c.076-.315.01-.65-.18-.906-.19-.257-.483-.406-.792-.406H21.26c.09-.304.04-.636-.13-.9-.188-.287-.497-.458-.828-.458h-3.148l.193-.203c.196-.206.196-.54 0-.746-.194-.206-.51-.206-.707-.002l-.13.137v-.58c0-.292-.224-.528-.5-.528s-.502.236-.502.527v.58l-.13-.138c-.196-.205-.513-.204-.71.002-.194.206-.194.54.002.745l.194.202H11.62c-.332 0-.64.17-.828.458-.173.265-.22.597-.132.9H2.945c-.31 0-.6.15-.79.407-.19.257-.256.59-.18.906l.25 1.043c-.156.018-.31.075-.45.174-.458.327-.578.982-.268 1.463l.977 1.518v1.286c0 .582.45 1.054 1.002 1.054l.23-.03h.87l-.08 7.342h-1.45c-.4 0-.762.25-.92.634L.08 67.183c-.133.326-.103.7.083.997.186.297.5.475.838.475h29.972c.553 0 1.002-.47 1.002-1.054 0-.172-.04-.335-.11-.48zM5.51 61.56l.08-7.34h.265l.114 10.525h-.497l.035-3.185zm1.347-7.34h1.547l-.08 7.34H6.937l-.08-7.34zm2.93 10.525H9.29l.116-10.526h.266l.115 10.525zm.887-10.526h1.547l-.08 7.34h-1.386l-.08-7.34zm2.93 10.525h-.496l.115-10.526h.267l.115 10.525zm.887-10.526h3.037l-.08 7.34H14.57l-.08-7.34zm4.42 10.525h-.497l.115-10.526h.266l.103 9.447.012 1.078zm.887-10.526h1.547l-.08 7.34h-1.387l-.08-7.34zm2.93 10.525h-.496l.117-10.526h.266l.114 10.525zm.887-10.526h1.547l-.08 7.34h-1.386l-.08-7.34zm2.896 7.34l.035 3.185h-.496l.114-10.526h.266l.08 7.34zM4.402 51.164h-.534l-.157-.243-.114-.178-.267-.415h25.417l-.24.42-.1.173-.14.243H4.402zm-.17-2.66h7.61v.665h-7.45l-.16-.665zm8.166-1.885h7.22l-.114.305-.174.474h-6.644l-.175-.475-.112-.306zm15.13 2.55h-7.354v-.665h7.514l-.16.664zm-14.684-.718h6.328v.717h-6.328v-.718zm-8.356 3.765h22.945v.948H4.488v-.948zm-1.962 14.33l1.186-2.88h.77l-.018 1.598c-.002.14.05.276.145.377.093.1.22.156.355.156h1.51c.134 0 .262-.056.356-.156.095-.1.147-.236.146-.376l-.018-1.6H8.3l-.018 1.6c-.002.14.05.276.144.377.094.1.223.156.357.156h1.51c.133 0 .262-.057.356-.157.093-.1.145-.236.144-.377l-.018-1.6h1.34l-.017 1.6c-.002.14.05.276.144.377.094.1.222.156.356.156h1.51c.133 0 .26-.057.355-.157.094-.1.146-.236.145-.377l-.017-1.6h2.83l-.018 1.6c0 .14.05.276.146.376.095.1.223.156.357.156h1.51c.133 0 .26-.056.355-.156.094-.1.147-.236.145-.376l-.017-1.6h1.34l-.017 1.6c0 .14.05.276.145.376.094.1.222.156.356.156h1.51c.133 0 .26-.056.355-.156.093-.1.145-.236.144-.376l-.017-1.6h1.34l-.016 1.6c0 .14.052.276.146.377.094.1.222.156.357.156h1.51c.133 0 .26-.057.356-.157.093-.1.145-.236.143-.376l-.017-1.6h.72l1.188 2.88H2.527z" fill="#67737B"/><path d="M31.865 27.12l-2.03-4.925c-.158-.385-.52-.634-.92-.634h-1.4l-.08-7.34h1.05l.038-.004.033-.004.04-.006c.478-.08.843-.515.843-1.04v-1.063l1.005-1.757c.285-.5.132-1.146-.342-1.446-.128-.08-.267-.127-.407-.144l.252-1.043c.076-.315.01-.65-.18-.906-.19-.257-.483-.406-.792-.406H21.26c.09-.304.04-.636-.13-.9-.188-.287-.497-.458-.828-.458h-3.148l.193-.203c.196-.206.196-.54 0-.746-.194-.206-.51-.206-.707-.002l-.13.137v-.58c0-.292-.224-.528-.5-.528s-.502.236-.502.527v.58l-.13-.138c-.196-.205-.513-.204-.71.002-.194.206-.194.54.002.745l.194.202H11.62c-.332 0-.64.17-.828.458-.173.265-.22.597-.132.9H2.945c-.31 0-.6.15-.79.407-.19.257-.256.59-.18.906l.25 1.043c-.156.018-.31.075-.45.174-.458.327-.578.982-.268 1.463l.977 1.518v1.286c0 .582.45 1.054 1.002 1.054l.23-.03h.87l-.08 7.342h-1.45c-.4 0-.762.25-.92.634L.08 27.183c-.133.326-.103.7.083.997.186.297.5.475.838.475h29.972c.553 0 1.002-.47 1.002-1.054 0-.172-.04-.335-.11-.48zM5.51 21.56l.08-7.34h.265l.114 10.525h-.497l.035-3.185zm1.347-7.34h1.547l-.08 7.34H6.937l-.08-7.34zm2.93 10.525H9.29l.116-10.526h.266l.115 10.525zm.887-10.526h1.547l-.08 7.34h-1.386l-.08-7.34zm2.93 10.525h-.496l.115-10.526h.267l.115 10.525zm.887-10.526h3.037l-.08 7.34H14.57l-.08-7.34zm4.42 10.525h-.497l.115-10.526h.266l.103 9.447.012 1.078zm.887-10.526h1.547l-.08 7.34h-1.387l-.08-7.34zm2.93 10.525h-.496l.117-10.526h.266l.114 10.525zm.887-10.526h1.547l-.08 7.34h-1.386l-.08-7.34zm2.896 7.34l.035 3.185h-.496l.114-10.526h.266l.08 7.34zM4.402 11.164h-.534l-.157-.243-.114-.178-.267-.415h25.417l-.24.42-.1.173-.14.243H4.402zm-.17-2.66h7.61v.665h-7.45l-.16-.665zm8.166-1.885h7.22l-.114.305-.174.474h-6.644l-.175-.475-.112-.306zm15.13 2.55h-7.354v-.665h7.514l-.16.664zM12.843 8.45h6.328v.717h-6.328V8.45zm-8.356 3.765h22.945v.948H4.488v-.948zm-1.962 14.33l1.186-2.88h.77l-.018 1.598c-.002.14.05.276.145.377.093.1.22.156.355.156h1.51c.134 0 .262-.056.356-.156.095-.1.147-.236.146-.376l-.018-1.6H8.3l-.018 1.6c-.002.14.05.276.144.377.094.1.223.156.357.156h1.51c.133 0 .262-.057.356-.157.093-.1.145-.236.144-.377l-.018-1.6h1.34l-.017 1.6c-.002.14.05.276.144.377.094.1.222.156.356.156h1.51c.133 0 .26-.057.355-.157.094-.1.146-.236.145-.377l-.017-1.6h2.83l-.018 1.6c0 .14.05.276.146.376.095.1.223.156.357.156h1.51c.133 0 .26-.056.355-.156.094-.1.147-.236.145-.376l-.017-1.6h1.34l-.017 1.6c0 .14.05.276.145.376.094.1.222.156.356.156h1.51c.133 0 .26-.056.355-.156.093-.1.145-.236.144-.376l-.017-1.6h1.34l-.016 1.6c0 .14.052.276.146.377.094.1.222.156.357.156h1.51c.133 0 .26-.057.356-.157.093-.1.145-.236.143-.376l-.017-1.6h.72l1.188 2.88H2.527z" fill="#373D43"/></g></svg>