<svg width="32" height="232" viewBox="0 0 32 232" xmlns="http://www.w3.org/2000/svg"><desc>Created with Sketch.</desc><g fill="none"><path d="M31.883 146.592l-2.03-5.027c-.16-.393-.522-.648-.92-.648H27.53l-.08-7.49h1.05l.038-.006h.033l.04-.006c.48-.08.847-.524.847-1.06v-1.085l1.008-1.795c.286-.508.132-1.168-.342-1.475-.13-.084-.266-.13-.405-.148l.252-1.064c.075-.322.01-.663-.18-.924-.19-.263-.484-.416-.793-.416h-7.72c.09-.31.04-.65-.13-.92-.188-.293-.497-.468-.828-.468h-3.15l.192-.207c.197-.21.197-.55 0-.76-.194-.21-.512-.21-.707 0l-.13.137v-.592c0-.297-.225-.538-.502-.538s-.5.24-.5.538v.592l-.13-.14c-.196-.21-.514-.208-.71.002-.195.21-.195.55 0 .76l.195.207H11.63c-.33 0-.64.173-.827.466-.172.27-.22.61-.13.92H2.95c-.31 0-.6.153-.79.415-.19.26-.26.603-.18.924l.25 1.065c-.158.017-.313.076-.453.177-.457.333-.578 1-.267 1.493l.977 1.548v1.312c0 .593.45 1.074 1.002 1.074l.23-.03h.865l-.08 7.492h-1.45c-.4 0-.762.255-.92.648l-2.056 5.09c-.134.332-.104.715.082 1.017.185.306.5.488.838.488h29.99c.554 0 1.003-.48 1.003-1.075 0-.175-.04-.34-.11-.49zM5.51 140.916l.08-7.49h.267l.115 10.74h-.496l.035-3.25zm1.35-7.49h1.548l-.08 7.49H6.94l-.08-7.49zm2.933 10.74h-.496l.114-10.74h.27l.116 10.74zm.887-10.74h1.548l-.08 7.49H10.76l-.08-7.49zm2.932 10.74h-.495l.115-10.74h.266l.114 10.74zm.888-10.74h3.037l-.08 7.49H14.58l-.08-7.49zm4.422 10.74h-.496l.115-10.74h.27l.115 10.74zm.887-10.74h1.545l-.08 7.49H19.89l-.08-7.49zm2.93 10.74h-.497l.115-10.74h.266l.115 10.74zm.886-10.74h1.548l-.08 7.49H23.71l-.08-7.49zm2.897 7.49l.023 2.15.012 1.1h-.497l.115-10.74h.266l.08 7.49zm-22.12-10.61H3.87l-.155-.247-.115-.186-.267-.424h25.432l-.24.43-.24.426H4.408zm-.17-2.712h7.614v.678H4.4l-.16-.678zm8.17-1.926h7.225l-.29.796H12.69l-.173-.483-.114-.31zm15.14 2.603h-7.36v-.674h7.52l-.16.678zm-14.693-.73h6.333v.73H12.85v-.73zm-8.36 3.845h22.96v.968H4.493v-.967zm-1.96 14.622l1.187-2.94h.77L4.47 144.7c-.006.143.05.282.14.383.095.102.224.16.358.16h1.51c.134 0 .262-.058.357-.16.094-.102.146-.24.145-.384l-.018-1.63h1.342l-.018 1.63c-.003.143.05.282.143.383.094.102.222.16.357.16h1.51c.135 0 .263-.058.358-.16.094-.102.146-.24.144-.384l-.02-1.63h1.343l-.017 1.63c-.003.143.05.282.143.383.093.102.222.16.355.16h1.51c.134 0 .262-.058.357-.16.094-.102.146-.24.145-.384l-.018-1.63h2.83l-.017 1.63c-.002.143.05.282.144.383.094.102.222.16.356.16h1.51c.134 0 .262-.058.357-.16.095-.102.147-.24.146-.384l-.018-1.63h1.342l-.017 1.63c-.003.143.05.282.143.383.094.102.223.16.357.16h1.51c.134 0 .262-.058.357-.16.094-.102.146-.24.144-.384l-.017-1.63h1.343l-.018 1.63c0 .143.05.282.145.383.094.102.222.16.356.16h1.51c.134 0 .263-.058.357-.16.094-.102.146-.24.145-.384l-.017-1.63h.72l1.19 2.937H2.53z" fill="#206FAC"/><path d="M31.883 106.592l-2.03-5.027c-.16-.393-.522-.648-.92-.648H27.53l-.08-7.49h1.05l.038-.006h.033l.04-.006c.48-.08.847-.524.847-1.06V91.27l1.008-1.795c.286-.508.132-1.168-.342-1.475-.13-.084-.266-.13-.405-.148l.252-1.064c.075-.322.01-.663-.18-.924-.19-.263-.484-.416-.793-.416h-7.72c.09-.31.04-.65-.13-.92-.188-.293-.497-.468-.828-.468h-3.15l.192-.207c.197-.21.197-.55 0-.76-.194-.21-.512-.21-.707 0l-.13.137v-.592c0-.297-.225-.538-.502-.538s-.5.24-.5.538v.592l-.13-.14c-.196-.21-.514-.208-.71.002-.195.21-.195.55 0 .76l.195.207H11.63c-.33 0-.64.173-.827.466-.172.27-.22.61-.13.92H2.95c-.31 0-.6.153-.79.415-.19.26-.26.603-.18.924l.25 1.065c-.158.017-.313.076-.453.177-.457.333-.578 1-.267 1.493l.977 1.548v1.312c0 .593.45 1.074 1.002 1.074l.23-.03h.865l-.08 7.492h-1.45c-.4 0-.762.255-.92.648l-2.056 5.09c-.134.332-.104.715.082 1.017.185.306.5.488.838.488h29.99c.554 0 1.003-.48 1.003-1.075 0-.175-.04-.34-.11-.49zM5.51 100.916l.08-7.49h.267l.115 10.74h-.496l.035-3.25zm1.35-7.49h1.548l-.08 7.49H6.94l-.08-7.49zm2.933 10.74h-.496l.114-10.74h.27l.116 10.74zm.887-10.74h1.548l-.08 7.49H10.76l-.08-7.49zm2.932 10.74h-.495l.115-10.74h.266l.114 10.74zm.888-10.74h3.037l-.08 7.49H14.58l-.08-7.49zm4.422 10.74h-.496l.115-10.74h.27l.115 10.74zm.887-10.74h1.545l-.08 7.49H19.89l-.08-7.49zm2.93 10.74h-.497l.115-10.74h.266l.115 10.74zm.886-10.74h1.548l-.08 7.49H23.71l-.08-7.49zm2.897 7.49l.023 2.15.012 1.1h-.497l.115-10.74h.266l.08 7.49zm-22.12-10.61H3.87l-.155-.247-.115-.186-.267-.424h25.432l-.24.43-.24.426H4.408zm-.17-2.712h7.614v.678H4.4l-.16-.678zm8.17-1.926h7.225l-.29.796H12.69l-.173-.483-.114-.31zm15.14 2.603h-7.36v-.674h7.52l-.16.678zm-14.693-.73h6.333v.73H12.85v-.73zm-8.36 3.845h22.96v.968H4.493v-.967zm-1.96 14.622l1.187-2.94h.77L4.47 104.7c-.006.143.05.282.14.383.095.102.224.16.358.16h1.51c.134 0 .262-.058.357-.16.094-.102.146-.24.145-.384l-.018-1.63h1.342l-.018 1.63c-.003.143.05.282.143.383.094.102.222.16.357.16h1.51c.135 0 .263-.058.358-.16.094-.102.146-.24.144-.384l-.02-1.63h1.343l-.017 1.63c-.003.143.05.282.143.383.093.102.222.16.355.16h1.51c.134 0 .262-.058.357-.16.094-.102.146-.24.145-.384l-.018-1.63h2.83l-.017 1.63c-.002.143.05.282.144.383.094.102.222.16.356.16h1.51c.134 0 .262-.058.357-.16.095-.102.147-.24.146-.384l-.018-1.63h1.342l-.017 1.63c-.003.143.05.282.143.383.094.102.223.16.357.16h1.51c.134 0 .262-.058.357-.16.094-.102.146-.24.144-.384l-.017-1.63h1.343l-.018 1.63c0 .143.05.282.145.383.094.102.222.16.356.16h1.51c.134 0 .263-.058.357-.16.094-.102.146-.24.145-.384l-.017-1.63h.72l1.19 2.937H2.53z" fill="#fff"/><path d="M31.883 66.592l-2.03-5.027c-.16-.393-.522-.648-.92-.648H27.53l-.08-7.49h1.05l.038-.006h.033l.04-.006c.48-.08.847-.524.847-1.06V51.27l1.008-1.795c.286-.508.132-1.168-.342-1.475-.13-.084-.266-.13-.405-.148l.252-1.064c.075-.322.01-.663-.18-.924-.19-.263-.484-.416-.793-.416h-7.72c.09-.31.04-.65-.13-.92-.188-.293-.497-.468-.828-.468h-3.15l.192-.207c.197-.21.197-.55 0-.76-.194-.21-.512-.21-.707 0l-.13.137v-.592c0-.297-.225-.538-.502-.538s-.5.24-.5.538v.592l-.13-.14c-.196-.21-.514-.208-.71.002-.195.21-.195.55 0 .76l.195.207H11.63c-.33 0-.64.173-.827.466-.172.27-.22.61-.13.92H2.95c-.31 0-.6.153-.79.415-.19.26-.26.603-.18.924l.25 1.065c-.158.017-.313.076-.453.177-.457.333-.578 1-.267 1.493l.977 1.548v1.312c0 .593.45 1.074 1.002 1.074l.23-.03h.865l-.08 7.492h-1.45c-.4 0-.762.255-.92.648L.08 66.654c-.134.333-.104.716.082 1.018.185.303.5.485.838.485h29.99c.553 0 1.002-.48 1.002-1.075 0-.176-.04-.342-.11-.49zM5.51 60.916l.08-7.49h.267l.115 10.74h-.496l.035-3.25zm1.35-7.49h1.548l-.08 7.49H6.94l-.08-7.49zm2.933 10.74h-.496l.114-10.74h.27l.116 10.74zm.887-10.74h1.548l-.08 7.49H10.76l-.08-7.49zm2.932 10.74h-.495l.115-10.74h.266l.114 10.74zm.888-10.74h3.037l-.08 7.49H14.58l-.08-7.49zm4.422 10.74h-.496l.115-10.74h.27l.115 10.74zm.887-10.74h1.545l-.08 7.49H19.89l-.08-7.49zm2.93 10.74h-.497l.115-10.74h.266l.115 10.74zm.886-10.74h1.548l-.08 7.49H23.71l-.08-7.49zm2.897 7.49l.023 2.15.012 1.1h-.497l.115-10.74h.266l.08 7.49zm-22.12-10.61H3.87l-.155-.247-.115-.186-.267-.424h25.432l-.24.43-.24.426H4.408zm-.17-2.712h7.614v.678H4.4l-.16-.678zm8.17-1.926h7.225l-.29.796H12.69l-.173-.483-.114-.31zm15.14 2.603h-7.36v-.674h7.52l-.16.678zm-14.693-.73h6.333v.73H12.85v-.73zm-8.36 3.845h22.96v.968H4.493v-.967zm-1.96 14.62l1.187-2.94h.77l-.02 1.635c-.002.144.05.283.145.384.094.102.223.16.357.16h1.51c.132 0 .26-.058.355-.16.094-.102.146-.24.145-.384l-.017-1.63h1.342l-.018 1.63c-.002.144.05.283.144.384.096.102.224.16.36.16h1.51c.133 0 .26-.058.356-.16.094-.102.146-.24.144-.384l-.018-1.63h1.342l-.017 1.63c-.002.144.05.283.144.384.096.102.225.16.358.16h1.51c.135 0 .263-.058.358-.16.094-.102.146-.24.145-.384l-.016-1.63h2.83l-.016 1.63c-.002.144.05.283.144.384.096.102.224.16.358.16h1.51c.134 0 .262-.058.357-.16.094-.102.146-.24.145-.384l-.02-1.63h1.343l-.017 1.63c-.003.144.05.283.143.384.093.102.22.16.356.16h1.51c.134 0 .262-.058.357-.16.094-.102.146-.24.144-.384l-.017-1.63h1.34l-.017 1.63c0 .144.05.283.145.384.093.102.22.16.355.16h1.51c.134 0 .263-.058.357-.16.094-.102.146-.24.145-.384l-.017-1.63h.72l1.188 2.938H2.53z" fill="#67737B"/><path d="M31.883 26.592l-2.03-5.027c-.16-.393-.522-.648-.92-.648H27.53l-.08-7.49h1.05l.038-.006h.033l.04-.006c.48-.08.847-.524.847-1.06V11.27l1.008-1.795c.286-.508.132-1.168-.342-1.475-.13-.084-.266-.13-.405-.148l.252-1.064c.075-.322.01-.663-.18-.924-.19-.263-.484-.416-.793-.416h-7.72c.09-.31.04-.65-.13-.92-.188-.293-.497-.468-.828-.468h-3.15l.192-.207c.197-.21.197-.55 0-.76-.194-.21-.512-.21-.707 0l-.13.137v-.592c0-.297-.225-.538-.502-.538s-.5.24-.5.538v.592l-.13-.14c-.196-.21-.514-.208-.71.002-.195.21-.195.55 0 .76l.195.207H11.63c-.33 0-.64.173-.827.466-.172.27-.22.61-.13.92H2.95c-.31 0-.6.153-.79.415-.19.26-.26.603-.18.924l.25 1.065c-.158.017-.313.076-.453.177-.457.333-.578 1-.267 1.493l.977 1.548v1.312c0 .593.45 1.074 1.002 1.074l.23-.03h.865l-.08 7.492h-1.45c-.4 0-.762.255-.92.648L.08 26.654c-.134.333-.104.716.082 1.018.185.303.5.485.838.485h29.99c.553 0 1.002-.48 1.002-1.075 0-.176-.04-.342-.11-.49zM5.51 20.916l.08-7.49h.267l.115 10.74h-.496l.035-3.25zm1.35-7.49h1.548l-.08 7.49H6.94l-.08-7.49zm2.933 10.74h-.496l.114-10.74h.27l.116 10.74zm.887-10.74h1.548l-.08 7.49H10.76l-.08-7.49zm2.932 10.74h-.495l.115-10.74h.266l.114 10.74zm.888-10.74h3.037l-.08 7.49H14.58l-.08-7.49zm4.422 10.74h-.496l.115-10.74h.27l.115 10.74zm.887-10.74h1.545l-.08 7.49H19.89l-.08-7.49zm2.93 10.74h-.497l.115-10.74h.266l.115 10.74zm.886-10.74h1.548l-.08 7.49H23.71l-.08-7.49zm2.897 7.49l.023 2.15.012 1.1h-.497l.115-10.74h.266l.08 7.49zm-22.12-10.61H3.87l-.155-.247-.115-.186-.267-.424h25.432l-.24.43-.24.426H4.408zm-.17-2.712h7.614v.678H4.4l-.16-.678zm8.17-1.926h7.225l-.29.796H12.69l-.173-.483-.114-.31zm15.14 2.603h-7.36v-.674h7.52l-.16.678zM12.85 7.54h6.333v.73H12.85v-.73zm-8.36 3.844h22.96v.968H4.493v-.967zM2.53 26.006l1.187-2.94h.77l-.02 1.634c-.002.144.05.283.145.384.094.102.223.16.357.16h1.51c.132 0 .26-.058.355-.16.094-.102.146-.24.145-.384l-.017-1.63h1.342l-.018 1.63c-.002.144.05.283.144.384.096.102.224.16.36.16h1.51c.133 0 .26-.058.356-.16.094-.102.146-.24.144-.384l-.018-1.63h1.342l-.017 1.63c-.002.144.05.283.144.384.096.102.225.16.358.16h1.51c.135 0 .263-.058.358-.16.094-.102.146-.24.145-.384l-.016-1.63h2.83l-.016 1.63c-.002.144.05.283.144.384.096.102.224.16.358.16h1.51c.134 0 .262-.058.357-.16.094-.102.146-.24.145-.384l-.02-1.63h1.343l-.017 1.63c-.003.144.05.283.143.384.093.102.22.16.356.16h1.51c.134 0 .262-.058.357-.16.094-.102.146-.24.144-.384l-.017-1.63h1.34l-.017 1.63c0 .144.05.283.145.384.093.102.22.16.355.16h1.51c.134 0 .263-.058.357-.16.094-.102.146-.24.145-.384l-.017-1.63h.72l1.188 2.938H2.53z" fill="#3A434E"/></g></svg>