<svg width="32" height="232" viewBox="0 0 32 232" xmlns="http://www.w3.org/2000/svg" xmlns:sketch="http://www.bohemiancoding.com/sketch/ns"><title>berlin</title><desc>Created with Sketch.</desc><g sketch:type="MSPage" fill="none"><g sketch:type="MSShapeGroup"><path d="M31.865 147.121l-2.029-4.926c-.159-.385-.52-.634-.92-.634h-1.401l-.08-7.341h.991l.011.001.011-.001h.037l.038-.004.033-.004.04-.006c.478-.081.843-.515.843-1.039v-1.064l1.006-1.757c.285-.499.132-1.146-.342-1.446-.128-.081-.267-.127-.407-.144l.252-1.043c.076-.315.009-.649-.181-.906-.189-.257-.482-.406-.791-.406h-7.715c.088-.305.04-.637-.132-.901-.187-.287-.496-.458-.827-.458h-3.148l.193-.203c.196-.205.196-.539.001-.745-.195-.206-.512-.206-.708-.002l-.13.137v-.58c0-.291-.224-.527-.501-.527s-.501.236-.501.527v.58l-.13-.137c-.196-.205-.513-.204-.709.002-.195.206-.195.54.001.745l.194.203h-3.245c-.331 0-.64.171-.827.458-.173.265-.22.597-.132.901h-7.715c-.309 0-.601.15-.79.406-.19.257-.256.591-.181.906l.252 1.043c-.157.018-.312.075-.451.174-.458.327-.578.982-.268 1.463l.977 1.518v1.285c0 .582.449 1.054 1.002 1.054l.23-.029h.869l-.08 7.341h-1.45c-.4 0-.761.249-.92.634l-2.054 4.987c-.134.326-.104.7.082.997.186.297.5.475.838.475h29.971c.553 0 1.002-.471 1.002-1.054 0-.173-.039-.336-.11-.48zm-26.356-5.561l.08-7.341h.266l.114 10.526h-.496l.035-3.185zm1.348-7.341h1.547l-.08 7.341h-1.387l-.08-7.341zm2.93 10.526h-.496l.115-10.526h.266l.115 10.526zm.887-10.526h1.547l-.08 7.341h-1.387l-.08-7.341zm2.93 10.526h-.496l.115-10.526h.267l.115 10.526zm.887-10.526h3.036l-.08 7.341h-2.876l-.08-7.341zm4.419 10.526h-.497l.115-10.526h.266l.103 9.448.012 1.078zm.887-10.526h1.547l-.08 7.341h-1.387l-.08-7.341zm2.93 10.526h-.496l.116-10.526h.266l.114 10.526zm.887-10.526h1.547l-.08 7.341h-1.387l-.08-7.341zm2.896 7.341l.035 3.185h-.496l.115-10.526h.266l.081 7.341zm-22.108-10.396h-.534l-.157-.243-.115-.179-.267-.415h25.418l-.241.419-.1.174-.139.243h-23.865zm-.17-2.659h7.61v.664h-7.45l-.16-.664zm8.166-1.886h7.22l-.114.306-.174.474h-6.644l-.175-.474-.113-.306zm15.129 2.55h-7.353v-.664h7.514l-.16.664zm-14.683-.717h6.328v.717h-6.328v-.717zm-8.356 3.765h22.945v.948h-22.945v-.948zm-1.962 14.329l1.186-2.88h.769l-.017 1.599c-.002.141.05.276.145.377.094.1.222.156.356.156h1.51c.134 0 .262-.056.356-.156.094-.1.146-.236.145-.376l-.018-1.599h1.342l-.018 1.599c-.002.141.05.276.144.377.094.1.223.156.357.156h1.509c.134 0 .263-.056.357-.156.094-.1.146-.236.145-.377l-.018-1.599h1.341l-.018 1.599c-.001.141.051.276.145.377.094.1.222.156.356.156h1.509c.134 0 .262-.056.356-.156.094-.1.146-.236.145-.377l-.017-1.599h2.83l-.018 1.599c0 .14.051.276.146.376.094.1.222.156.356.156h1.509c.134 0 .262-.056.356-.156.094-.1.147-.236.145-.376l-.017-1.599h1.341l-.018 1.599c-.001.14.051.276.145.376.094.1.222.156.356.156h1.509c.134 0 .262-.056.356-.156.094-.1.146-.236.145-.376l-.017-1.599h1.341l-.017 1.599c-.001.141.051.276.145.377.094.1.222.156.357.156h1.509c.134 0 .262-.056.357-.156.094-.1.146-.236.144-.376l-.017-1.599h.721l1.187 2.88h-26.917z" fill="#206FAC"/><path d="M31.865 107.121l-2.029-4.926c-.159-.385-.52-.634-.92-.634h-1.401l-.08-7.341h.991l.011.001.011-.001h.037l.038-.004.033-.004.04-.006c.478-.081.843-.515.843-1.039v-1.064l1.006-1.757c.285-.499.132-1.146-.342-1.446-.128-.081-.267-.127-.407-.144l.252-1.043c.076-.315.009-.649-.181-.906-.189-.257-.482-.406-.791-.406h-7.715c.088-.305.04-.637-.132-.901-.187-.287-.496-.458-.827-.458h-3.148l.193-.203c.196-.205.196-.539.001-.745-.195-.206-.512-.206-.708-.002l-.13.137v-.58c0-.291-.224-.527-.501-.527s-.501.236-.501.527v.58l-.13-.137c-.196-.205-.513-.204-.709.002-.195.206-.195.54.001.745l.194.203h-3.245c-.331 0-.64.171-.827.458-.173.265-.22.597-.132.901h-7.715c-.309 0-.601.15-.79.406-.19.257-.256.591-.181.906l.252 1.043c-.157.018-.312.075-.451.174-.458.327-.578.982-.268 1.463l.977 1.518v1.285c0 .582.449 1.054 1.002 1.054l.23-.029h.869l-.08 7.341h-1.45c-.4 0-.761.249-.92.634l-2.054 4.987c-.134.326-.104.7.082.997.186.297.5.475.838.475h29.971c.553 0 1.002-.471 1.002-1.054 0-.173-.039-.336-.11-.48zm-26.356-5.561l.08-7.341h.266l.114 10.526h-.496l.035-3.185zm1.348-7.341h1.547l-.08 7.341h-1.387l-.08-7.341zm2.93 10.526h-.496l.115-10.526h.266l.115 10.526zm.887-10.526h1.547l-.08 7.341h-1.387l-.08-7.341zm2.93 10.526h-.496l.115-10.526h.267l.115 10.526zm.887-10.526h3.036l-.08 7.341h-2.876l-.08-7.341zm4.419 10.526h-.497l.115-10.526h.266l.103 9.448.012 1.078zm.887-10.526h1.547l-.08 7.341h-1.387l-.08-7.341zm2.93 10.526h-.496l.116-10.526h.266l.114 10.526zm.887-10.526h1.547l-.08 7.341h-1.387l-.08-7.341zm2.896 7.341l.035 3.185h-.496l.115-10.526h.266l.081 7.341zm-22.108-10.396h-.534l-.157-.243-.115-.179-.267-.415h25.418l-.241.419-.1.174-.139.243h-23.865zm-.17-2.659h7.61v.664h-7.45l-.16-.664zm8.166-1.886h7.22l-.114.306-.174.474h-6.644l-.175-.474-.113-.306zm15.129 2.55h-7.353v-.664h7.514l-.16.664zm-14.683-.717h6.328v.717h-6.328v-.717zm-8.356 3.765h22.945v.948h-22.945v-.948zm-1.962 14.329l1.186-2.88h.769l-.017 1.599c-.002.141.05.276.145.377.094.1.222.156.356.156h1.51c.134 0 .262-.056.356-.156.094-.1.146-.236.145-.376l-.018-1.599h1.342l-.018 1.599c-.002.141.05.276.144.377.094.1.223.156.357.156h1.509c.134 0 .263-.056.357-.156.094-.1.146-.236.145-.377l-.018-1.599h1.341l-.018 1.599c-.001.141.051.276.145.377.094.1.222.156.356.156h1.509c.134 0 .262-.056.356-.156.094-.1.146-.236.145-.377l-.017-1.599h2.83l-.018 1.599c0 .14.051.276.146.376.094.1.222.156.356.156h1.509c.134 0 .262-.056.356-.156.094-.1.147-.236.145-.376l-.017-1.599h1.341l-.018 1.599c-.001.14.051.276.145.376.094.1.222.156.356.156h1.509c.134 0 .262-.056.356-.156.094-.1.146-.236.145-.376l-.017-1.599h1.341l-.017 1.599c-.001.141.051.276.145.377.094.1.222.156.357.156h1.509c.134 0 .262-.056.357-.156.094-.1.146-.236.144-.376l-.017-1.599h.721l1.187 2.88h-26.917z" fill="#fff"/><path d="M31.865 67.121l-2.029-4.926c-.159-.385-.52-.634-.92-.634h-1.401l-.08-7.341h.991l.011.001.011-.001h.037l.038-.004.033-.004.04-.006c.478-.081.843-.515.843-1.039v-1.064l1.006-1.757c.285-.499.132-1.146-.342-1.446-.128-.081-.267-.127-.407-.144l.252-1.043c.076-.315.009-.649-.181-.906-.189-.257-.482-.406-.791-.406h-7.715c.088-.305.04-.637-.132-.901-.187-.287-.496-.458-.827-.458h-3.148l.193-.203c.196-.205.196-.539.001-.745-.195-.206-.512-.206-.708-.002l-.13.137v-.58c0-.291-.224-.527-.501-.527s-.501.236-.501.527v.58l-.13-.137c-.196-.205-.513-.204-.709.002-.195.206-.195.54.001.745l.194.203h-3.245c-.331 0-.64.171-.827.458-.173.265-.22.597-.132.901h-7.715c-.309 0-.601.15-.79.406-.19.257-.256.591-.181.906l.252 1.043c-.157.018-.312.075-.451.174-.458.327-.578.982-.268 1.463l.977 1.518v1.285c0 .582.449 1.054 1.002 1.054l.23-.029h.869l-.08 7.341h-1.45c-.4 0-.761.249-.92.634l-2.054 4.987c-.134.326-.104.7.082.997.186.297.5.475.838.475h29.971c.553 0 1.002-.471 1.002-1.054 0-.173-.039-.336-.11-.48zm-26.356-5.561l.08-7.341h.266l.114 10.526h-.496l.035-3.185zm1.348-7.341h1.547l-.08 7.341h-1.387l-.08-7.341zm2.93 10.526h-.496l.115-10.526h.266l.115 10.526zm.887-10.526h1.547l-.08 7.341h-1.387l-.08-7.341zm2.93 10.526h-.496l.115-10.526h.267l.115 10.526zm.887-10.526h3.036l-.08 7.341h-2.876l-.08-7.341zm4.419 10.526h-.497l.115-10.526h.266l.103 9.448.012 1.078zm.887-10.526h1.547l-.08 7.341h-1.387l-.08-7.341zm2.93 10.526h-.496l.116-10.526h.266l.114 10.526zm.887-10.526h1.547l-.08 7.341h-1.387l-.08-7.341zm2.896 7.341l.035 3.185h-.496l.115-10.526h.266l.081 7.341zm-22.108-10.396h-.534l-.157-.243-.115-.179-.267-.415h25.418l-.241.419-.1.174-.139.243h-23.865zm-.17-2.659h7.61v.664h-7.45l-.16-.664zm8.166-1.886h7.22l-.114.306-.174.474h-6.644l-.175-.474-.113-.306zm15.129 2.55h-7.353v-.664h7.514l-.16.664zm-14.683-.717h6.328v.717h-6.328v-.717zm-8.356 3.765h22.945v.948h-22.945v-.948zm-1.962 14.329l1.186-2.88h.769l-.017 1.599c-.002.141.05.276.145.377.094.1.222.156.356.156h1.51c.134 0 .262-.056.356-.156.094-.1.146-.236.145-.376l-.018-1.599h1.342l-.018 1.599c-.002.141.05.276.144.377.094.1.223.156.357.156h1.509c.134 0 .263-.056.357-.156.094-.1.146-.236.145-.377l-.018-1.599h1.341l-.018 1.599c-.001.141.051.276.145.377.094.1.222.156.356.156h1.509c.134 0 .262-.056.356-.156.094-.1.146-.236.145-.377l-.017-1.599h2.83l-.018 1.599c0 .14.051.276.146.376.094.1.222.156.356.156h1.509c.134 0 .262-.056.356-.156.094-.1.147-.236.145-.376l-.017-1.599h1.341l-.018 1.599c-.001.14.051.276.145.376.094.1.222.156.356.156h1.509c.134 0 .262-.056.356-.156.094-.1.146-.236.145-.376l-.017-1.599h1.341l-.017 1.599c-.001.141.051.276.145.377.094.1.222.156.357.156h1.509c.134 0 .262-.056.357-.156.094-.1.146-.236.144-.376l-.017-1.599h.721l1.187 2.88h-26.917z" fill="#67737B"/><path d="M31.865 27.121l-2.029-4.926c-.159-.385-.52-.634-.92-.634h-1.401l-.08-7.341h.991l.011.001.011-.001h.037l.038-.004.033-.004.04-.006c.478-.081.843-.515.843-1.039v-1.064l1.006-1.757c.285-.499.132-1.146-.342-1.446-.128-.081-.267-.127-.407-.144l.252-1.043c.076-.315.009-.649-.181-.906-.189-.257-.482-.406-.791-.406h-7.715c.088-.305.04-.637-.132-.901-.187-.287-.496-.458-.827-.458h-3.148l.193-.203c.196-.205.196-.539.001-.745-.195-.206-.512-.206-.708-.002l-.13.137v-.58c0-.291-.224-.527-.501-.527s-.501.236-.501.527v.58l-.13-.137c-.196-.205-.513-.204-.709.002-.195.206-.195.54.001.745l.194.203h-3.245c-.331 0-.64.171-.827.458-.173.265-.22.597-.132.901h-7.715c-.309 0-.601.15-.79.406-.19.257-.256.591-.181.906l.252 1.043c-.157.018-.312.075-.451.174-.458.327-.578.982-.268 1.463l.977 1.518v1.285c0 .582.449 1.054 1.002 1.054l.23-.029h.869l-.08 7.341h-1.45c-.4 0-.761.249-.92.634l-2.054 4.987c-.134.326-.104.7.082.997.186.297.5.475.838.475h29.971c.553 0 1.002-.471 1.002-1.054 0-.173-.039-.336-.11-.48zm-26.356-5.561l.08-7.341h.266l.114 10.526h-.496l.035-3.185zm1.348-7.341h1.547l-.08 7.341h-1.387l-.08-7.341zm2.93 10.526h-.496l.115-10.526h.266l.115 10.526zm.887-10.526h1.547l-.08 7.341h-1.387l-.08-7.341zm2.93 10.526h-.496l.115-10.526h.267l.115 10.526zm.887-10.526h3.036l-.08 7.341h-2.876l-.08-7.341zm4.419 10.526h-.497l.115-10.526h.266l.103 9.448.012 1.078zm.887-10.526h1.547l-.08 7.341h-1.387l-.08-7.341zm2.93 10.526h-.496l.116-10.526h.266l.114 10.526zm.887-10.526h1.547l-.08 7.341h-1.387l-.08-7.341zm2.896 7.341l.035 3.185h-.496l.115-10.526h.266l.081 7.341zm-22.108-10.396h-.534l-.157-.243-.115-.179-.267-.415h25.418l-.241.419-.1.174-.139.243h-23.865zm-.17-2.659h7.61v.664h-7.45l-.16-.664zm8.166-1.886h7.22l-.114.306-.174.474h-6.644l-.175-.474-.113-.306zm15.129 2.55h-7.353v-.664h7.514l-.16.664zm-14.683-.717h6.328v.717h-6.328v-.717zm-8.356 3.765h22.945v.948h-22.945v-.948zm-1.962 14.329l1.186-2.88h.769l-.017 1.599c-.002.141.05.276.145.377.094.1.222.156.356.156h1.51c.134 0 .262-.056.356-.156.094-.1.146-.236.145-.376l-.018-1.599h1.342l-.018 1.599c-.002.141.05.276.144.377.094.1.223.156.357.156h1.509c.134 0 .263-.056.357-.156.094-.1.146-.236.145-.377l-.018-1.599h1.341l-.018 1.599c-.001.141.051.276.145.377.094.1.222.156.356.156h1.509c.134 0 .262-.056.356-.156.094-.1.146-.236.145-.377l-.017-1.599h2.83l-.018 1.599c0 .14.051.276.146.376.094.1.222.156.356.156h1.509c.134 0 .262-.056.356-.156.094-.1.147-.236.145-.376l-.017-1.599h1.341l-.018 1.599c-.001.14.051.276.145.376.094.1.222.156.356.156h1.509c.134 0 .262-.056.356-.156.094-.1.146-.236.145-.376l-.017-1.599h1.341l-.017 1.599c-.001.141.051.276.145.377.094.1.222.156.357.156h1.509c.134 0 .262-.056.357-.156.094-.1.146-.236.144-.376l-.017-1.599h.721l1.187 2.88h-26.917z" fill="#373D43"/></g></g></svg>