<svg width="32" height="232" viewBox="0 0 32 232" xmlns="http://www.w3.org/2000/svg"><desc>Created with Sketch.</desc><g fill="none"><path d="M30.966 144.596H27.79v-.907c-.04-.92-.597-1.685-1.37-1.998v-1.518c0-.477-.39-.865-.877-.88v-4.3c0-.484-.4-.877-.896-.88v-4.496c0-.487-.405-.88-.905-.88h-1.985v-3.186l.002-.017-.02-.12-.515-2.696c-.04-.21-.227-.36-.444-.36h-.75l-.523-.315c-.127-.076-.28-.087-.418-.03l-.65.274-.72-.586c-.07-.056-.153-.09-.24-.1l-.955-.1c-.142-.015-.282.036-.38.137l-.582.608-1.047-.59c-.204-.113-.464-.057-.597.13l-.36.507-.65-.172c-.073-.02-.15-.02-.227-.003l-1.056.255c-.17.04-.303.177-.335.347l-.52 2.727v.007l-.008.072v3.21h-2.07c-.5 0-.906.392-.906.88v4.493c-.497.005-.898.397-.898.88v4.3c-.486.016-.876.404-.876.88v4.42h-.73v-.412c-.037-.86-.717-1.532-1.547-1.532s-1.51.673-1.548 1.533v.41H.903c-.5 0-.905.395-.905.88s.405.88.905.88H2.19v1.74c0 .245.204.44.454.44h3.51c.25 0 .453-.195.453-.44 0-.242-.203-.44-.453-.44h-.867v-1.3H23.49v3.39c0 .245.202.44.452.44h5.992c.25 0 .452-.195.452-.44 0-.242-.202-.44-.452-.44h-2.14v-2.947h3.175c.495 0 .9-.395.9-.88 0-.488-.405-.882-.904-.882zm-4.08 1.763v2.943h-2.494v-5.588c.013-.26.092-.498.217-.7.2-.323.525-.546.9-.587l.125-.007c.295 0 .566.113.78.3.268.236.448.59.467.995v2.64zm-14.756-23.2l.66-.16.843.223.103.014.235-.054.156-.134.306-.43.58.325.152-.036-.023.105-.11.452-.83-.07h-.072l-1.332.098-.11-.02-.593-.1.04-.22zm5.117-.7l.828.676c.13.107.314.132.47.067l.69-.29.432.26c.072.043.153.066.238.066h.502l.353 1.855h-8.998l.162-.85.768.132.112.005 1.352-.1 1.185.1.04.002c.21 0 .396-.14.44-.342l.248-1.027.59-.614.592.063zm-5.577 6.276v-2.76h9.18v3.01h-2.955v-1.506c0-.242-.203-.44-.452-.44h-2.365c-.25 0-.452.198-.452.44v1.508H11.67v-.25zm3.86 0v-.815h1.46v1.067h-1.46v-.25zm4.237 2.743v.435h-6.905l-.036.003v-.44h6.94zm-6.94 1.313l.035.003h6.905v.434h-6.905l-.036.005v-.442zm0 5.264l.035.003h6.905v.437h-6.905l-.036.003v-.44zm.035-1.313h6.905v.435h-6.905l-.036.002v-.442l.036.005zm-.036 2.63l.036.002h6.905v.434h-6.905l-.036.005v-.442zm0-9.148h6.94v.372h-6.904l-.036.002v-.377zm0 3.882h6.94v.436h-6.904l-.036.003v-.443zm0 1.314l.036.003h6.905v.436h-6.905l-.036.005v-.442zm0 6.58l.036.003h6.905v.436h-6.905l-.036.005v-.442zm0 1.316l.036.005h6.905v.435h-6.905l-.036.003v-.44zm6.94-2.193h-6.904l-.036.004v-.44l.036.003h6.905v.435zm.905-5.25h3.065v3.536h-3.06v-3.536zm0-5.377h2.168v3.537H20.67V130.5zm-11.97 8.8v-3.42h3.22v3.535H8.7v-.12zm4.125 5.342l.036.004h6.91v.394h-6.94v-.398zm-3.23-14.137h2.325v3.537H9.596v-3.537zm-1.772 10.675h4.097v3.42H7.823v-3.42zm12.848 0h3.94v.638c-.64.364-1.085 1.06-1.12 1.873v.903h-2.82v-3.42zm-16.29 5.18v1.3H3.096v-3.44c.02-.383.3-.68.643-.68.34 0 .622.297.642.68v2.142z" fill="#206FAC"/><path d="M30.966 104.596H27.79v-.907c-.04-.92-.597-1.685-1.37-1.998v-1.518c0-.477-.39-.865-.877-.88v-4.3c0-.484-.4-.877-.896-.88V89.62c0-.486-.405-.88-.905-.88h-1.985v-3.185l.002-.017-.02-.12-.515-2.696c-.04-.21-.227-.36-.444-.36h-.75l-.523-.315c-.127-.076-.28-.087-.418-.03l-.65.274-.72-.583c-.07-.056-.153-.09-.24-.1l-.955-.1c-.142-.015-.282.036-.38.137l-.582.607-1.047-.587c-.204-.114-.464-.058-.597.13l-.36.506-.65-.173c-.073-.02-.15-.02-.227-.003l-1.056.255c-.17.04-.303.176-.335.346l-.52 2.727v.007l-.008.07v3.21h-2.07c-.5 0-.906.394-.906.88v4.495c-.497.005-.898.397-.898.88v4.3c-.486.016-.876.404-.876.88v4.42h-.73v-.412c-.037-.86-.717-1.533-1.547-1.533s-1.51.674-1.548 1.534v.41H.903c-.5 0-.905.394-.905.88s.405.88.905.88H2.19v1.74c0 .244.204.44.454.44h3.51c.25 0 .453-.196.453-.44 0-.243-.203-.44-.453-.44h-.867v-1.3H23.49v3.39c0 .244.202.44.452.44h5.992c.25 0 .452-.196.452-.44 0-.243-.202-.44-.452-.44h-2.14v-2.948h3.175c.495 0 .9-.395.9-.88 0-.488-.405-.882-.904-.882zm-4.08 1.763v2.943h-2.494v-5.588c.013-.26.092-.498.217-.7.2-.323.525-.546.9-.587l.125-.007c.295 0 .566.113.78.3.268.236.448.59.467.995v2.64zM12.13 83.16l.66-.158.843.223.103.014.235-.056.156-.134.306-.43.58.327.152-.036-.023.108-.11.452-.83-.07h-.072l-1.332.097-.11-.02-.593-.1.04-.22zm5.117-.697l.828.675c.13.107.314.132.47.067l.69-.29.432.26c.072.043.153.066.238.066h.502l.353 1.858h-8.998l.162-.85.768.132.112.004 1.352-.1 1.185.1.04.002c.21 0 .396-.14.44-.342l.248-1.027.59-.614.592.062zM11.67 88.74v-2.76h9.18v3.01h-2.955v-1.506c0-.243-.203-.44-.452-.44h-2.365c-.25 0-.452.197-.452.44v1.507H11.67v-.25zm3.86 0v-.815h1.46v1.066h-1.46v-.25zm4.237 2.743v.435h-6.905l-.036.003v-.44l.036.006h6.905zm-6.94 1.313l.035.003h6.905v.43h-6.905l-.036.004v-.442zm0 5.264l.035.003h6.905v.435h-6.905l-.036.003v-.44zm.035-1.313h6.905v.435h-6.905l-.036.003v-.442l.036.003zm-.036 2.63l.036.002h6.905v.43h-6.905l-.036.004v-.442zm0-9.148h6.94v.37h-6.904l-.036.003v-.377zm0 3.88l.036.002h6.905v.435h-6.905l-.036.002v-.443zm0 1.315l.036.003h6.905v.435h-6.905l-.036.004v-.443zm0 6.58l.036.003h6.905v.435h-6.905l-.036.004v-.443zm0 1.316l.036.005h6.905v.435h-6.905l-.036.004v-.442zm6.94-2.193h-6.904l-.036.003v-.44l.036.004h6.905v.435zm.905-5.25h3.065v3.535h-3.06V95.88zm0-5.378h2.168v3.536H20.67V90.5zM8.7 99.296V95.88h3.22v3.536H8.7v-.12zm4.125 5.343l.036.004h6.91v.394h-6.94v-.398zm-3.23-14.137h2.325v3.537H9.596v-3.537zm-1.772 10.675h4.097v3.42H7.823v-3.42zm12.848 0h3.94v.638c-.64.364-1.085 1.06-1.12 1.873v.903h-2.82v-3.42zm-16.29 5.18v1.3H3.096v-3.44c.02-.383.3-.68.643-.68.34 0 .622.297.642.68v2.142z" fill="#fff"/><path d="M30.966 64.596H27.79v-.907c-.04-.92-.597-1.685-1.37-1.998v-1.518c0-.477-.39-.865-.877-.88v-4.3c0-.484-.4-.877-.896-.88V49.62c0-.486-.405-.88-.905-.88h-1.985v-3.185l.002-.017-.02-.12-.515-2.696c-.04-.21-.227-.36-.444-.36h-.75l-.523-.315c-.127-.076-.28-.087-.418-.03l-.65.274-.72-.583c-.07-.056-.153-.09-.24-.1l-.955-.1c-.142-.015-.282.036-.38.137l-.582.607-1.047-.587c-.204-.114-.464-.058-.597.13l-.36.506-.65-.173c-.073-.02-.15-.02-.227-.003l-1.056.255c-.17.04-.303.176-.335.346l-.52 2.727v.007l-.008.07v3.21h-2.07c-.5 0-.906.394-.906.88v4.495c-.497.005-.898.397-.898.88v4.3c-.486.016-.876.404-.876.88v4.42h-.73v-.412c-.037-.86-.717-1.533-1.547-1.533s-1.51.674-1.548 1.534v.41H.903c-.5 0-.905.394-.905.88s.405.88.905.88H2.19v1.74c0 .244.204.44.454.44h3.51c.25 0 .453-.196.453-.44 0-.243-.203-.44-.453-.44h-.867v-1.3H23.49v3.39c0 .244.202.44.452.44h5.992c.25 0 .452-.196.452-.44 0-.243-.202-.44-.452-.44h-2.14v-2.948h3.175c.495 0 .9-.395.9-.88 0-.488-.405-.882-.904-.882zm-4.08 1.763v2.943h-2.494v-5.588c.013-.26.092-.498.217-.7.2-.323.525-.546.9-.587l.125-.007c.295 0 .566.113.78.3.268.236.448.59.467.995v2.64zM12.13 43.16l.66-.158.843.223.103.014.235-.056.156-.134.306-.43.58.327.152-.036-.023.108-.11.452-.83-.07h-.072l-1.332.097-.11-.02-.593-.1.04-.22zm5.117-.697l.828.675c.13.107.314.132.47.067l.69-.29.432.26c.072.043.153.066.238.066h.502l.353 1.858h-8.998l.162-.85.768.132.112.004 1.352-.1 1.185.1.04.002c.21 0 .396-.14.44-.342l.248-1.027.59-.614.592.062zM11.67 48.74v-2.76h9.18v3.01h-2.955v-1.506c0-.243-.203-.44-.452-.44h-2.365c-.25 0-.452.197-.452.44v1.507H11.67v-.25zm3.86 0v-.815h1.46v1.066h-1.46v-.25zm4.237 2.743v.435h-6.905l-.036.003v-.44l.036.006h6.905zm-6.94 1.313l.035.003h6.905v.43h-6.905l-.036.004v-.442zm0 5.264l.035.003h6.905v.435h-6.905l-.036.003v-.44zm.035-1.313h6.905v.435h-6.905l-.036.003v-.442l.036.003zm-.036 2.63l.036.002h6.905v.43h-6.905l-.036.004v-.442zm0-9.148h6.94v.37h-6.904l-.036.003v-.377zm0 3.88l.036.002h6.905v.435h-6.905l-.036.002v-.443zm0 1.315l.036.003h6.905v.435h-6.905l-.036.004v-.443zm0 6.58l.036.003h6.905v.435h-6.905l-.036.004v-.443zm0 1.316l.036.005h6.905v.435h-6.905l-.036.004v-.442zm6.94-2.193h-6.904l-.036.003v-.44l.036.004h6.905v.435zm.905-5.25h3.065v3.535h-3.06V55.88zm0-5.378h2.168v3.536H20.67V50.5zM8.7 59.296V55.88h3.22v3.536H8.7v-.12zm4.125 5.343l.036.004h6.91v.394h-6.94v-.398zm-3.23-14.137h2.325v3.537H9.596v-3.537zm-1.77 10.675h4.096v3.42H7.826v-3.42zm12.847 0h3.94v.638c-.643.364-1.088 1.06-1.123 1.873v.903h-2.82v-3.42zm-16.29 5.18v1.3h-1.29v-3.44c.02-.383.3-.68.644-.68.34 0 .622.297.642.68v2.142z" fill="#67737B"/><path d="M30.966 24.596H27.79v-.907c-.04-.92-.597-1.685-1.37-1.998v-1.518c0-.477-.39-.865-.877-.88v-4.3c0-.484-.4-.877-.896-.88V9.62c0-.486-.405-.88-.905-.88h-1.985V5.555l.002-.017-.02-.12-.515-2.696c-.04-.21-.227-.36-.444-.36h-.75l-.523-.315c-.127-.076-.28-.087-.418-.03l-.65.274-.72-.583c-.07-.056-.153-.09-.24-.1l-.955-.1c-.142-.015-.282.036-.38.137l-.582.607-1.047-.587c-.204-.114-.464-.058-.597.13l-.36.506-.65-.173c-.073-.02-.15-.02-.227-.003l-1.056.255c-.17.04-.303.176-.335.346l-.52 2.727v.007l-.008.07v3.21h-2.07c-.5 0-.906.394-.906.88v4.495c-.497.005-.898.397-.898.88v4.3c-.486.016-.876.404-.876.88v4.42h-.73v-.41c-.037-.86-.717-1.534-1.547-1.534s-1.51.676-1.548 1.536v.41H.903c-.5 0-.905.394-.905.88s.405.88.905.88H2.19v1.74c0 .244.204.44.454.44h3.51c.25 0 .453-.196.453-.44 0-.243-.203-.44-.453-.44h-.867v-1.3H23.49v3.39c0 .244.202.44.452.44h5.992c.25 0 .452-.196.452-.44 0-.243-.202-.44-.452-.44h-2.14v-2.948h3.175c.495 0 .9-.395.9-.88 0-.488-.405-.882-.904-.882zm-4.08 1.763v2.943h-2.494v-5.588c.013-.26.092-.498.217-.7.2-.323.525-.546.9-.587l.125-.007c.295 0 .566.113.78.3.268.236.448.59.467.995v2.64zM12.13 3.16l.66-.158.843.223.103.014.235-.056.156-.134.306-.43.58.327.152-.036-.023.108-.11.452-.83-.07h-.072l-1.332.097-.11-.02-.593-.1.04-.22zm5.117-.697l.828.675c.13.107.314.132.47.067l.69-.29.432.26c.072.043.153.066.238.066h.502L20.76 5.1h-8.998l.162-.85.768.132.112.004 1.352-.1 1.185.1.04.002c.21 0 .396-.14.44-.342l.248-1.027.59-.614.592.062zM11.67 8.74V5.98h9.18v3.01h-2.955V7.485c0-.243-.203-.44-.452-.44h-2.365c-.25 0-.452.197-.452.44V8.99H11.67v-.25zm3.86 0v-.815h1.46V8.99h-1.46v-.25zm4.237 2.743v.435h-6.905l-.036.003v-.44l.036.006h6.905zm-6.94 1.313l.035.003h6.905v.43h-6.905l-.036.004v-.442zm0 5.264l.035.003h6.905v.435h-6.905l-.036.003v-.44zm.035-1.313h6.905v.435h-6.905l-.036.003v-.442l.036.003zm-.036 2.63l.036.002h6.905v.43h-6.905l-.036.004v-.442zm0-9.148h6.94v.37h-6.904l-.036.003v-.377zm0 3.88l.036.002h6.905v.435h-6.905l-.036.002v-.443zm0 1.315l.036.003h6.905v.435h-6.905l-.036.004v-.443zm0 6.58l.036.003h6.905v.435h-6.905l-.036.004v-.443zm0 1.316l.036.005h6.905v.435h-6.905l-.036.004v-.442zm6.94-2.193h-6.904l-.036.003v-.44l.036.004h6.905v.435zm.905-5.25h3.065v3.535h-3.06V15.88zm0-5.378h2.168v3.536H20.67V10.5zM8.7 19.296V15.88h3.22v3.536H8.7v-.12zm4.125 5.343l.036.004h6.91v.394h-6.94v-.398zm-3.23-14.137h2.325v3.537H9.596v-3.537zm-1.77 10.675h4.096v3.42H7.826v-3.42zm12.847 0h3.94v.638c-.643.364-1.088 1.06-1.123 1.873v.903h-2.82v-3.42zm-16.29 5.18v1.3h-1.29v-3.44c.02-.383.3-.68.644-.68.34 0 .622.297.642.68v2.142z" fill="#3A434E"/></g></svg>