<svg width="32" height="232" viewBox="0 0 32 232" xmlns="http://www.w3.org/2000/svg" xmlns:sketch="http://www.bohemiancoding.com/sketch/ns"><title>guatemala</title><desc>Created with Sketch.</desc><g sketch:type="MSPage" fill="none"><g sketch:type="MSShapeGroup"><path d="M30.966 144.596h-3.175v-.907c-.04-.916-.598-1.681-1.372-1.994v-1.518c0-.477-.39-.865-.876-.88v-4.301c0-.483-.401-.876-.896-.88v-4.495c0-.487-.405-.881-.905-.881h-1.985v-3.185l.002-.017-.017-.119-.514-2.697c-.04-.209-.227-.36-.444-.36h-.75l-.524-.315c-.126-.076-.281-.087-.417-.029l-.649.273-.72-.587c-.069-.056-.153-.091-.241-.1l-.954-.1c-.141-.015-.281.036-.379.137l-.582.606-1.047-.587c-.204-.114-.464-.058-.597.13l-.361.506-.647-.172c-.074-.02-.152-.021-.228-.003l-1.056.254c-.172.041-.304.177-.336.347l-.52 2.727-.001.008-.007.073-.001.007v3.202h-2.073c-.5 0-.905.395-.905.881v4.495c-.496.005-.897.397-.897.88v4.301c-.486.015-.876.403-.876.88v4.418h-.729v-.39l-.001-.019c-.037-.86-.717-1.533-1.547-1.533s-1.51.673-1.547 1.533l-.001.019v.39h-1.284c-.5 0-.905.394-.905.881s.405.881.905.881h1.284v1.739c0 .243.203.44.453.44h3.51c.25 0 .453-.197.453-.44 0-.244-.203-.441-.453-.441h-.867v-1.298h18.202v3.388c0 .244.203.441.453.441h5.992c.25 0 .452-.197.452-.441 0-.243-.202-.441-.452-.441h-2.14v-2.947h3.175c.499 0 .904-.395.904-.881 0-.487-.405-.881-.904-.881zm-4.08 1.763v2.947h-2.494v-5.588c.013-.26.092-.498.217-.699.203-.324.529-.547.904-.588l.125-.007c.295 0 .566.112.78.3.268.235.448.59.467.994v2.641zm-14.755-23.197l.66-.158.842.223.103.014.235-.054.152-.134.306-.429.579.325.153-.035-.025.106-.108.452-.83-.07h-.073l-1.332.098-.11-.019-.593-.1.041-.22zm5.116-.697l.828.675c.131.107.314.132.47.067l.689-.29.433.26c.072.043.153.066.238.066h.502l.353 1.855h-8.998l.162-.849.768.131.112.005 1.352-.1 1.185.1.039.002c.209 0 .393-.14.441-.342l.244-1.027.59-.614.592.062zm-5.577 6.275v-2.761h9.181v3.012h-2.956v-1.507c0-.243-.203-.44-.452-.44h-2.365c-.25 0-.452.197-.452.44v1.507h-2.956v-.251zm3.861 0v-.815h1.46v1.066h-1.46v-.251zm4.236 2.743v.435h-6.905l-.036.003v-.442l.036.004h6.905zm-6.941 1.313l.036.003h6.905v.435h-6.905l-.036.003v-.442zm0 5.264l.036.003h6.905v.435h-6.905l-.036.003v-.441zm.036-1.313h6.905v.435h-6.905l-.036.003v-.442l.036.003zm-.036 2.629l.036.003h6.905v.435h-6.905l-.036.003v-.442zm0-9.147h6.941v.373h-6.905l-.036.004v-.377zm0 3.883l.036.003h6.905v.435h-6.905l-.036.003v-.442zm0 1.316l.036.003h6.905v.435h-6.905l-.036.004v-.442zm0 6.58l.036.003h6.905v.435h-6.905l-.036.004v-.442zm0 1.316l.036.004h6.905v.435h-6.905l-.036.003v-.442zm6.941-2.194h-6.905l-.036.004v-.442l.036.004h6.905v.435zm.904-5.251h3.061v3.537h-3.061v-3.537zm0-5.376h2.164v3.537h-2.164v-3.537zm-11.971 8.794v-3.418h3.22v3.537h-3.22v-.119zm4.125 5.343l.036.004h6.905v.394h-6.941v-.398zm-3.229-14.137h2.324v3.537h-2.324v-3.537zm-1.773 10.675h4.097v3.419h-4.097v-3.419zm12.848 0h3.938v.638c-.642.364-1.087 1.059-1.122 1.873l-.001.019v.888h-2.815v-3.419zm-16.292 5.181v1.298h-1.285v-3.44c.02-.382.301-.68.643-.68.341 0 .622.298.642.68v2.143z" fill="#206FAC"/><path d="M30.966 104.596h-3.175v-.907c-.04-.916-.598-1.681-1.372-1.994v-1.518c0-.477-.39-.865-.876-.88v-4.301c0-.483-.401-.876-.896-.88v-4.495c0-.487-.405-.881-.905-.881h-1.985v-3.185l.002-.017-.017-.119-.514-2.697c-.04-.209-.227-.36-.444-.36h-.75l-.524-.315c-.126-.076-.281-.087-.417-.029l-.649.273-.72-.587c-.069-.056-.153-.091-.241-.1l-.954-.1c-.141-.015-.281.036-.379.137l-.582.606-1.047-.587c-.204-.114-.464-.058-.597.13l-.361.506-.647-.172c-.074-.02-.152-.021-.228-.003l-1.056.254c-.172.041-.304.177-.336.347l-.52 2.727-.001.008-.007.073-.001.007v3.202h-2.073c-.5 0-.905.395-.905.881v4.495c-.496.005-.897.397-.897.88v4.301c-.486.015-.876.403-.876.88v4.418h-.729v-.39l-.001-.019c-.037-.86-.717-1.533-1.547-1.533s-1.51.673-1.547 1.533l-.001.019v.39h-1.284c-.5 0-.905.394-.905.881s.405.881.905.881h1.284v1.739c0 .243.203.44.453.44h3.51c.25 0 .453-.197.453-.44 0-.244-.203-.441-.453-.441h-.867v-1.298h18.202v3.388c0 .244.203.441.453.441h5.992c.25 0 .452-.197.452-.441 0-.243-.202-.441-.452-.441h-2.14v-2.947h3.175c.499 0 .904-.395.904-.881 0-.487-.405-.881-.904-.881zm-4.08 1.763v2.947h-2.494v-5.588c.013-.26.092-.498.217-.699.203-.324.529-.547.904-.588l.125-.007c.295 0 .566.112.78.3.268.235.448.59.467.994v2.641zm-14.755-23.197l.66-.158.842.223.103.014.235-.054.152-.134.306-.429.579.325.153-.035-.025.106-.108.452-.83-.07h-.073l-1.332.098-.11-.019-.593-.1.041-.22zm5.116-.697l.828.675c.131.107.314.132.47.067l.689-.29.433.26c.072.043.153.066.238.066h.502l.353 1.855h-8.998l.162-.849.768.131.112.005 1.352-.1 1.185.1.039.002c.209 0 .393-.14.441-.342l.244-1.027.59-.614.592.062zm-5.577 6.275v-2.761h9.181v3.012h-2.956v-1.507c0-.243-.203-.44-.452-.44h-2.365c-.25 0-.452.197-.452.44v1.507h-2.956v-.251zm3.861 0v-.815h1.46v1.066h-1.46v-.251zm4.236 2.743v.435h-6.905l-.036.003v-.442l.036.004h6.905zm-6.941 1.313l.036.003h6.905v.435h-6.905l-.036.003v-.442zm0 5.264l.036.003h6.905v.435h-6.905l-.036.003v-.441zm.036-1.313h6.905v.435h-6.905l-.036.003v-.442l.036.003zm-.036 2.629l.036.003h6.905v.435h-6.905l-.036.003v-.442zm0-9.147h6.941v.373h-6.905l-.036.004v-.377zm0 3.883l.036.003h6.905v.435h-6.905l-.036.003v-.442zm0 1.316l.036.003h6.905v.435h-6.905l-.036.004v-.442zm0 6.58l.036.003h6.905v.435h-6.905l-.036.004v-.442zm0 1.316l.036.004h6.905v.435h-6.905l-.036.003v-.442zm6.941-2.194h-6.905l-.036.004v-.442l.036.004h6.905v.435zm.904-5.251h3.061v3.537h-3.061v-3.537zm0-5.376h2.164v3.537h-2.164v-3.537zm-11.971 8.794v-3.418h3.22v3.537h-3.22v-.119zm4.125 5.343l.036.004h6.905v.394h-6.941v-.398zm-3.229-14.137h2.324v3.537h-2.324v-3.537zm-1.773 10.675h4.097v3.419h-4.097v-3.419zm12.848 0h3.938v.638c-.642.364-1.087 1.059-1.122 1.873l-.001.019v.888h-2.815v-3.419zm-16.292 5.181v1.298h-1.285v-3.44c.02-.382.301-.68.643-.68.341 0 .622.298.642.68v2.143z" fill="#fff"/><path d="M30.966 64.596h-3.175v-.907c-.04-.916-.598-1.681-1.372-1.994v-1.518c0-.477-.39-.865-.876-.88v-4.301c0-.483-.401-.876-.896-.88v-4.495c0-.487-.405-.881-.905-.881h-1.985v-3.185l.002-.017-.017-.119-.514-2.697c-.04-.209-.227-.36-.444-.36h-.75l-.524-.315c-.126-.076-.281-.087-.417-.029l-.649.273-.72-.587c-.069-.056-.153-.091-.241-.1l-.954-.1c-.141-.015-.281.036-.379.137l-.582.606-1.047-.587c-.204-.114-.464-.058-.597.13l-.361.506-.647-.172c-.074-.02-.152-.021-.228-.003l-1.056.254c-.172.041-.304.177-.336.347l-.52 2.727-.001.008-.007.073-.001.007v3.202h-2.073c-.5 0-.905.395-.905.881v4.495c-.496.005-.897.397-.897.88v4.301c-.486.015-.876.403-.876.88v4.418h-.729v-.39l-.001-.019c-.037-.86-.717-1.533-1.547-1.533s-1.51.673-1.547 1.533l-.001.019v.39h-1.284c-.5 0-.905.394-.905.881s.405.881.905.881h1.284v1.739c0 .243.203.44.453.44h3.51c.25 0 .453-.197.453-.44 0-.244-.203-.441-.453-.441h-.867v-1.298h18.202v3.388c0 .244.203.441.453.441h5.992c.25 0 .452-.197.452-.441 0-.243-.202-.441-.452-.441h-2.14v-2.947h3.175c.499 0 .904-.395.904-.881 0-.487-.405-.881-.904-.881zm-4.08 1.763v2.947h-2.494v-5.588c.013-.26.092-.498.217-.699.203-.324.529-.547.904-.588l.125-.007c.295 0 .566.112.78.3.268.235.448.59.467.994v2.641zm-14.755-23.197l.66-.158.842.223.103.014.235-.054.152-.134.306-.429.579.325.153-.035-.025.106-.108.452-.83-.07h-.073l-1.332.098-.11-.019-.593-.1.041-.22zm5.116-.697l.828.675c.131.107.314.132.47.067l.689-.29.433.26c.072.043.153.066.238.066h.502l.353 1.855h-8.998l.162-.849.768.131.112.005 1.352-.1 1.185.1.039.002c.209 0 .393-.14.441-.342l.244-1.027.59-.614.592.062zm-5.577 6.275v-2.761h9.181v3.012h-2.956v-1.507c0-.243-.203-.44-.452-.44h-2.365c-.25 0-.452.197-.452.44v1.507h-2.956v-.251zm3.861 0v-.815h1.46v1.066h-1.46v-.251zm4.236 2.743v.435h-6.905l-.036.003v-.442l.036.004h6.905zm-6.941 1.313l.036.003h6.905v.435h-6.905l-.036.003v-.442zm0 5.264l.036.003h6.905v.435h-6.905l-.036.003v-.441zm.036-1.313h6.905v.435h-6.905l-.036.003v-.442l.036.003zm-.036 2.629l.036.003h6.905v.435h-6.905l-.036.003v-.442zm0-9.147h6.941v.373h-6.905l-.036.004v-.377zm0 3.883l.036.003h6.905v.435h-6.905l-.036.003v-.442zm0 1.316l.036.003h6.905v.435h-6.905l-.036.004v-.442zm0 6.58l.036.003h6.905v.435h-6.905l-.036.004v-.442zm0 1.316l.036.004h6.905v.435h-6.905l-.036.003v-.442zm6.941-2.194h-6.905l-.036.004v-.442l.036.004h6.905v.435zm.904-5.251h3.061v3.537h-3.061v-3.537zm0-5.376h2.164v3.537h-2.164v-3.537zm-11.971 8.794v-3.418h3.22v3.537h-3.22v-.119zm4.125 5.343l.036.004h6.905v.394h-6.941v-.398zm-3.229-14.137h2.324v3.537h-2.324v-3.537zm-1.773 10.675h4.097v3.419h-4.097v-3.419zm12.848 0h3.938v.638c-.642.364-1.087 1.059-1.122 1.873l-.001.019v.888h-2.815v-3.419zm-16.292 5.181v1.298h-1.285v-3.44c.02-.382.301-.68.643-.68.341 0 .622.298.642.68v2.143z" fill="#67737B"/><path d="M30.966 24.596h-3.175v-.907c-.04-.916-.598-1.681-1.372-1.994v-1.518c0-.477-.39-.865-.876-.88v-4.301c0-.483-.401-.876-.896-.88v-4.495c0-.487-.405-.881-.905-.881h-1.985v-3.185l.002-.017-.017-.119-.514-2.697c-.04-.209-.227-.36-.444-.36h-.75l-.524-.315c-.126-.076-.281-.087-.417-.029l-.649.273-.72-.587c-.069-.056-.153-.091-.241-.1l-.954-.1c-.141-.015-.281.036-.379.137l-.582.606-1.047-.587c-.204-.114-.464-.058-.597.13l-.361.506-.647-.172c-.074-.02-.152-.021-.228-.003l-1.056.254c-.172.041-.304.177-.336.347l-.52 2.727-.001.008-.007.073-.001.007v3.202h-2.073c-.5 0-.905.395-.905.881v4.495c-.496.005-.897.397-.897.88v4.301c-.486.015-.876.403-.876.88v4.418h-.729v-.39l-.001-.019c-.037-.86-.717-1.533-1.547-1.533s-1.51.673-1.547 1.533l-.001.019v.39h-1.284c-.5 0-.905.394-.905.881s.405.881.905.881h1.284v1.739c0 .243.203.44.453.44h3.51c.25 0 .453-.197.453-.44 0-.244-.203-.441-.453-.441h-.867v-1.298h18.202v3.388c0 .244.203.441.453.441h5.992c.25 0 .452-.197.452-.441 0-.243-.202-.441-.452-.441h-2.14v-2.947h3.175c.499 0 .904-.395.904-.881 0-.487-.405-.881-.904-.881zm-4.08 1.763v2.947h-2.494v-5.588c.013-.26.092-.498.217-.699.203-.324.529-.547.904-.588l.125-.007c.295 0 .566.112.78.3.268.235.448.59.467.994v2.641zm-14.755-23.197l.66-.158.842.223.103.014.235-.054.152-.134.306-.429.579.325.153-.035-.025.106-.108.452-.83-.07h-.073l-1.332.098-.11-.019-.593-.1.041-.22zm5.116-.697l.828.675c.131.107.314.132.47.067l.689-.29.433.26c.072.043.153.066.238.066h.502l.353 1.855h-8.998l.162-.849.768.131.112.005 1.352-.1 1.185.1.039.002c.209 0 .393-.14.441-.342l.244-1.027.59-.614.592.062zm-5.577 6.275v-2.761h9.181v3.012h-2.956v-1.507c0-.243-.203-.44-.452-.44h-2.365c-.25 0-.452.197-.452.44v1.507h-2.956v-.251zm3.861 0v-.815h1.46v1.066h-1.46v-.251zm4.236 2.743v.435h-6.905l-.036.003v-.442l.036.004h6.905zm-6.941 1.313l.036.003h6.905v.435h-6.905l-.036.003v-.442zm0 5.264l.036.003h6.905v.435h-6.905l-.036.003v-.441zm.036-1.313h6.905v.435h-6.905l-.036.003v-.442l.036.003zm-.036 2.629l.036.003h6.905v.435h-6.905l-.036.003v-.442zm0-9.147h6.941v.373h-6.905l-.036.004v-.377zm0 3.883l.036.003h6.905v.435h-6.905l-.036.003v-.442zm0 1.316l.036.003h6.905v.435h-6.905l-.036.004v-.442zm0 6.58l.036.003h6.905v.435h-6.905l-.036.004v-.442zm0 1.316l.036.004h6.905v.435h-6.905l-.036.003v-.442zm6.941-2.194h-6.905l-.036.004v-.442l.036.004h6.905v.435zm.904-5.251h3.061v3.537h-3.061v-3.537zm0-5.376h2.164v3.537h-2.164v-3.537zm-11.971 8.794v-3.418h3.22v3.537h-3.22v-.119zm4.125 5.343l.036.004h6.905v.394h-6.941v-.398zm-3.229-14.137h2.324v3.537h-2.324v-3.537zm-1.773 10.675h4.097v3.419h-4.097v-3.419zm12.848 0h3.938v.638c-.642.364-1.087 1.059-1.122 1.873l-.001.019v.888h-2.815v-3.419zm-16.292 5.181v1.298h-1.285v-3.44c.02-.382.301-.68.643-.68.341 0 .622.298.642.68v2.143z" fill="#3A434E"/></g></g></svg>