<svg width="32" height="232" viewBox="0 0 32 232" xmlns="http://www.w3.org/2000/svg" xmlns:sketch="http://www.bohemiancoding.com/sketch/ns"><title>hanoi</title><desc>Created with Sketch.</desc><g sketch:type="MSPage" fill="none"><g sketch:type="MSShapeGroup"><path d="M31.455 147.363h-2.746c.966-.919 1.582-2.307 1.582-3.858 0-1.044-.28-2.015-.758-2.819.642-.099 1.116-.311 1.41-.73.168-.24.344-.656.228-1.276-.302-1.611-2.091-2.452-3.788-2.773l-1.656-5.037c.122-.117.201-.29.201-.487 0-.352-.249-.638-.555-.638h-.016l-.598-1.82c.588-.487.973-1.279.973-2.174 0-1.478-1.046-2.68-2.331-2.68h-3.255c-.101 0-.201.032-.287.092l-1.06.737c-.166.116-.268.323-.268.546v1.114l-.508.243c-.283.135-.417.508-.3.833.089.245.295.393.513.393l.212-.049.083-.039v.853c0 .352.248.638.555.638h.865c.399.74 1.445 2.891 1.445 5.132 0 2.199-.966 6.024-1.42 7.7l-.038.071-2.993.098-1.895-.307c-.239-.667-1.057-3.063-1.057-4.618 0-.707-.059-1.399-.138-2.007.387-.374.946-1.062.78-1.805-.2-.903-1.238-1.039-1.578-1.082-.708-.093-1.985-.14-3.795-.14-3.055 0-6.651.135-6.687.137-.232.008-.434.182-.507.435l-.149.509-.275-.228v-1.058c0-.352-.249-.638-.555-.638-.307 0-.555.286-.555.638v1.384c0 .205.086.397.23.517l1.108.919-1.64 5.256c-.125.175-.213.389-.242.631-.05.408.075.797.308 1.071l-.32 2.887c-.028.256.08.505.274.634.086.056.181.084.276.084.12 0 .239-.044.338-.132l1.064-.942.138-.18.857-1.659.211.034c-.174.541-.27 1.125-.27 1.735 0 1.551.616 2.939 1.582 3.858h-3.811c-.306 0-.555.286-.555.638 0 .351.249.637.555.637h30.816c.306 0 .555-.286.555-.637 0-.353-.249-.638-.555-.638zm-20.541-8.851h-3.179l-.075.009c-.271.043-.48.307-.48.629 0 .352.248.638.555.638h3.179c.307 0 .555-.286.555-.638 0-.352-.248-.638-.555-.638zm0-1.621h-2.202c-.307 0-.555.286-.555.638 0 .352.249.638.555.638h2.202c.307 0 .555-.286.555-.638 0-.352-.248-.638-.555-.638zm0-1.621h-1.207c-.307 0-.555.285-.555.638 0 .351.248.638.555.638h1.207c.307 0 .555-.286.555-.638 0-.353-.248-.638-.555-.638zm-3.689 9.151c.44 0 .797-.411.797-.917s-.357-.916-.797-.916c-.44 0-.797.41-.797.916s.357.917.797.917zm18.708 0c.44 0 .797-.411.797-.917s-.357-.916-.797-.916c-.44 0-.797.41-.797.916s.357.917.797.917zm-6.291-18.011l.824-.393c.283-.135.417-.509.299-.834-.118-.325-.443-.479-.725-.345l-.398.19v-.224l.66-.459h2.761c-.14.383-.219.864-.219 1.413 0 .541.077 1.015.213 1.395h-3.415v-.744zm4.408-1.45l.108-.279.026-.009c.269.258.44.645.44 1.078 0 .44-.178.833-.454 1.09l-.012-.004-.108-.279c-.051-.187-.096-.453-.096-.798 0-.345.045-.611.096-.799zm-.648 3.469h.338l1.179 3.584-.929.117c-.261.033-.466.272-.491.573l-.366 4.336.007.18c.028.167.113.318.241.415l.132.071.172.033c.093 0 .185-.026.269-.08l.851-.544 1.48-.945.079.241.079.24-5.003 3.946-.161.127c.168-.651.359-1.435.539-2.265l.083-.384.15-.746c.259-1.343.455-2.708.455-3.769 0-2.072-.738-4.007-1.27-5.132h2.165zm6.686 10.518c.019.103.017.173-.007.206-.098.14-.454.303-1.549.332l-.354.005-.701-.008-.708-.008c-.516 0-1.11.016-1.596.137-.356.088-.715.246-1.071.435l1.963-1.548 1.367-1.079.147-.174c1.274.311 2.365.925 2.511 1.7zm-4.155 2.099c1.179 0 2.139 1.103 2.139 2.458 0 1.356-.959 2.458-2.139 2.458-1.179 0-2.138-1.103-2.138-2.458 0-1.355.959-2.458 2.138-2.458zm-1.524-5.136l-.07.044.002-.026.218-2.587.765-.097.565 1.72-1.48.945zm-22.673 5.631l-.476.921.209-1.884.718.088-.451.874zm9.356-1.059l-.432-.054-6.227-.767-.41-.051-.607-.075-.607-.074-1.201-.148-.183-.023.292-.937.034-.108.952.108 1.249.142.596.068 1.103.125.055.003c.282 0 .524-.246.552-.575.03-.35-.192-.663-.498-.697l-1.408-.159.501-1.329c.072-.19.059-.408-.035-.586-.094-.177-.258-.291-.438-.304l-1.593-.119.16-.51 9.825.405c.063.521.11 1.101.11 1.686 0 1.371.509 3.19.869 4.304l-2.66-.326zm2.433-7.448c-.064.128-.219.321-.39.489l-.033.033-.532-.021-6.01-.248-3.641-.15.078-.269c1.008-.034 3.812-.121 6.265-.121 1.769 0 3.003.044 3.669.131l.074.011c.288.044.444.105.52.146zm-11.126 3.138l.21.016.913.068-.329.873-.017.045-.029-.05-1.009-.115.261-.837zm6.864 6.589c.065.235.1.484.1.743 0 1.356-.959 2.458-2.139 2.458-1.179 0-2.139-1.103-2.139-2.458 0-.503.132-.972.36-1.361l3.817.618zm2.32.743l-.013-.37 5.159.836.155.013.032-.001 3.685-.12c.374-.012.717-.24.913-.606l.077-.142-.015.39c0 1.551.616 2.939 1.582 3.858h-13.158c.966-.919 1.583-2.307 1.583-3.858z" fill="#206FAC"/><path d="M31.455 107.363h-2.746c.966-.919 1.582-2.307 1.582-3.858 0-1.044-.28-2.015-.758-2.819.642-.099 1.116-.311 1.41-.73.168-.24.344-.656.228-1.276-.302-1.611-2.091-2.452-3.788-2.773l-1.656-5.037c.122-.117.201-.29.201-.487 0-.352-.249-.638-.555-.638h-.016l-.598-1.82c.588-.487.973-1.279.973-2.174 0-1.478-1.046-2.68-2.331-2.68h-3.255c-.101 0-.201.032-.287.092l-1.06.737c-.166.116-.268.323-.268.546v1.114l-.508.243c-.283.135-.417.508-.3.833.089.245.295.393.513.393l.212-.049.083-.039v.853c0 .352.248.638.555.638h.865c.399.74 1.445 2.891 1.445 5.132 0 2.199-.966 6.024-1.42 7.7l-.038.071-2.993.098-1.895-.307c-.239-.667-1.057-3.063-1.057-4.618 0-.707-.059-1.399-.138-2.007.387-.374.946-1.062.78-1.805-.2-.903-1.238-1.039-1.578-1.082-.708-.093-1.985-.14-3.795-.14-3.055 0-6.651.135-6.687.137-.232.008-.434.182-.507.435l-.149.509-.275-.228v-1.058c0-.352-.249-.638-.555-.638-.307 0-.555.286-.555.638v1.384c0 .205.086.397.23.517l1.108.919-1.64 5.256c-.125.175-.213.389-.242.631-.05.408.075.797.308 1.071l-.32 2.887c-.028.256.08.505.274.634.086.056.181.084.276.084.12 0 .239-.044.338-.132l1.064-.942.138-.18.857-1.659.211.034c-.174.541-.27 1.125-.27 1.735 0 1.551.616 2.939 1.582 3.858h-3.811c-.306 0-.555.286-.555.638 0 .351.249.637.555.637h30.816c.306 0 .555-.286.555-.637 0-.353-.249-.638-.555-.638zm-20.541-8.851h-3.179l-.075.009c-.271.043-.48.307-.48.629 0 .352.248.638.555.638h3.179c.307 0 .555-.286.555-.638 0-.352-.248-.638-.555-.638zm0-1.621h-2.202c-.307 0-.555.286-.555.638 0 .352.249.638.555.638h2.202c.307 0 .555-.286.555-.638 0-.352-.248-.638-.555-.638zm0-1.621h-1.207c-.307 0-.555.285-.555.638 0 .351.248.638.555.638h1.207c.307 0 .555-.286.555-.638 0-.353-.248-.638-.555-.638zm-3.689 9.151c.44 0 .797-.411.797-.917s-.357-.916-.797-.916c-.44 0-.797.41-.797.916s.357.917.797.917zm18.708 0c.44 0 .797-.411.797-.917s-.357-.916-.797-.916c-.44 0-.797.41-.797.916s.357.917.797.917zm-6.291-18.011l.824-.393c.283-.135.417-.509.299-.834-.118-.325-.443-.479-.725-.345l-.398.19v-.224l.66-.459h2.761c-.14.383-.219.864-.219 1.413 0 .541.077 1.015.213 1.395h-3.415v-.744zm4.408-1.45l.108-.279.026-.009c.269.258.44.645.44 1.078 0 .44-.178.833-.454 1.09l-.012-.004-.108-.279c-.051-.187-.096-.453-.096-.798 0-.345.045-.611.096-.799zm-.648 3.469h.338l1.179 3.584-.929.117c-.261.033-.466.272-.491.573l-.366 4.336.007.18c.028.167.113.318.241.415l.132.071.172.033c.093 0 .185-.026.269-.08l.851-.544 1.48-.945.079.241.079.24-5.003 3.946-.161.127c.168-.651.359-1.435.539-2.265l.083-.384.15-.746c.259-1.343.455-2.708.455-3.769 0-2.072-.738-4.007-1.27-5.132h2.165zm6.686 10.518c.019.103.017.173-.007.206-.098.14-.454.303-1.549.332l-.354.005-.701-.008-.708-.008c-.516 0-1.11.016-1.596.137-.356.088-.715.246-1.071.435l1.963-1.548 1.367-1.079.147-.174c1.274.311 2.365.925 2.511 1.7zm-4.155 2.099c1.179 0 2.139 1.103 2.139 2.458 0 1.356-.959 2.458-2.139 2.458-1.179 0-2.138-1.103-2.138-2.458 0-1.355.959-2.458 2.138-2.458zm-1.524-5.136l-.07.044.002-.026.218-2.587.765-.097.565 1.72-1.48.945zm-22.673 5.631l-.476.921.209-1.884.718.088-.451.874zm9.356-1.059l-.432-.054-6.227-.767-.41-.051-.607-.075-.607-.074-1.201-.148-.183-.023.292-.937.034-.108.952.108 1.249.142.596.068 1.103.125.055.003c.282 0 .524-.246.552-.575.03-.35-.192-.663-.498-.697l-1.408-.159.501-1.329c.072-.19.059-.408-.035-.586-.094-.177-.258-.291-.438-.304l-1.593-.119.16-.51 9.825.405c.063.521.11 1.101.11 1.686 0 1.371.509 3.19.869 4.304l-2.66-.326zm2.433-7.448c-.064.128-.219.321-.39.489l-.033.033-.532-.021-6.01-.248-3.641-.15.078-.269c1.008-.034 3.812-.121 6.265-.121 1.769 0 3.003.044 3.669.131l.074.011c.288.044.444.105.52.146zm-11.126 3.138l.21.016.913.068-.329.873-.017.045-.029-.05-1.009-.115.261-.837zm6.864 6.589c.065.235.1.484.1.743 0 1.356-.959 2.458-2.139 2.458-1.179 0-2.139-1.103-2.139-2.458 0-.503.132-.972.36-1.361l3.817.618zm2.32.743l-.013-.37 5.159.836.155.013.032-.001 3.685-.12c.374-.012.717-.24.913-.606l.077-.142-.015.39c0 1.551.616 2.939 1.582 3.858h-13.158c.966-.919 1.583-2.307 1.583-3.858z" fill="#fff"/><path d="M31.455 67.363h-2.746c.966-.919 1.582-2.307 1.582-3.858 0-1.044-.28-2.015-.758-2.819.642-.099 1.116-.311 1.41-.73.168-.24.344-.656.228-1.276-.302-1.611-2.091-2.452-3.788-2.773l-1.656-5.037c.122-.117.201-.29.201-.487 0-.352-.249-.638-.555-.638h-.016l-.598-1.82c.588-.487.973-1.279.973-2.174 0-1.478-1.046-2.68-2.331-2.68h-3.255c-.101 0-.201.032-.287.092l-1.06.737c-.166.116-.268.323-.268.546v1.114l-.508.243c-.283.135-.417.508-.3.833.089.245.295.393.513.393l.212-.049.083-.039v.853c0 .352.248.638.555.638h.865c.399.74 1.445 2.891 1.445 5.132 0 2.199-.966 6.024-1.42 7.7l-.038.071-2.993.098-1.895-.307c-.239-.667-1.057-3.063-1.057-4.618 0-.707-.059-1.399-.138-2.007.387-.374.946-1.062.78-1.805-.2-.903-1.238-1.039-1.578-1.082-.708-.093-1.985-.14-3.795-.14-3.055 0-6.651.135-6.687.137-.232.008-.434.182-.507.435l-.149.509-.275-.228v-1.058c0-.352-.249-.638-.555-.638-.307 0-.555.286-.555.638v1.384c0 .205.086.397.23.517l1.108.919-1.64 5.256c-.125.175-.213.389-.242.631-.05.408.075.797.308 1.071l-.32 2.887c-.028.256.08.505.274.634.086.056.181.084.276.084.12 0 .239-.044.338-.132l1.064-.942.138-.18.857-1.659.211.034c-.174.541-.27 1.125-.27 1.735 0 1.551.616 2.939 1.582 3.858h-3.811c-.306 0-.555.286-.555.638 0 .351.249.637.555.637h30.816c.306 0 .555-.286.555-.637 0-.353-.249-.638-.555-.638zm-20.541-8.851h-3.179l-.075.009c-.271.043-.48.307-.48.629 0 .352.248.638.555.638h3.179c.307 0 .555-.286.555-.638 0-.352-.248-.638-.555-.638zm0-1.621h-2.202c-.307 0-.555.286-.555.638 0 .352.249.638.555.638h2.202c.307 0 .555-.286.555-.638 0-.352-.248-.638-.555-.638zm0-1.621h-1.207c-.307 0-.555.285-.555.638 0 .351.248.638.555.638h1.207c.307 0 .555-.286.555-.638 0-.353-.248-.638-.555-.638zm-3.689 9.151c.44 0 .797-.411.797-.917s-.357-.916-.797-.916c-.44 0-.797.41-.797.916s.357.917.797.917zm18.708 0c.44 0 .797-.411.797-.917s-.357-.916-.797-.916c-.44 0-.797.41-.797.916s.357.917.797.917zm-6.291-18.011l.824-.393c.283-.135.417-.509.299-.834-.118-.325-.443-.479-.725-.345l-.398.19v-.224l.66-.459h2.761c-.14.383-.219.864-.219 1.413 0 .541.077 1.015.213 1.395h-3.415v-.744zm4.408-1.45l.108-.279.026-.009c.269.258.44.645.44 1.078 0 .44-.178.833-.454 1.09l-.012-.004-.108-.279c-.051-.187-.096-.453-.096-.798 0-.345.045-.611.096-.799zm-.648 3.469h.338l1.179 3.584-.929.117c-.261.033-.466.272-.491.573l-.366 4.336.007.18c.028.167.113.318.241.415l.132.071.172.033c.093 0 .185-.026.269-.08l.851-.544 1.48-.945.079.241.079.24-5.003 3.946-.161.127c.168-.651.359-1.435.539-2.265l.083-.384.15-.746c.259-1.343.455-2.708.455-3.769 0-2.072-.738-4.007-1.27-5.132h2.165zm6.686 10.518c.019.103.017.173-.007.206-.098.14-.454.303-1.549.332l-.354.005-.701-.008-.708-.008c-.516 0-1.11.016-1.596.137-.356.088-.715.246-1.071.435l1.963-1.548 1.367-1.079.147-.174c1.274.311 2.365.925 2.511 1.7zm-4.155 2.099c1.179 0 2.139 1.103 2.139 2.458 0 1.356-.959 2.458-2.139 2.458-1.179 0-2.138-1.103-2.138-2.458 0-1.355.959-2.458 2.138-2.458zm-1.524-5.136l-.07.044.002-.026.218-2.587.765-.097.565 1.72-1.48.945zm-22.673 5.631l-.476.921.209-1.884.718.088-.451.874zm9.356-1.059l-.432-.054-6.227-.767-.41-.051-.607-.075-.607-.074-1.201-.148-.183-.023.292-.937.034-.108.952.108 1.249.142.596.068 1.103.125.055.003c.282 0 .524-.246.552-.575.03-.35-.192-.663-.498-.697l-1.408-.159.501-1.329c.072-.19.059-.408-.035-.586-.094-.177-.258-.291-.438-.304l-1.593-.119.16-.51 9.825.405c.063.521.11 1.101.11 1.686 0 1.371.509 3.19.869 4.304l-2.66-.326zm2.433-7.448c-.064.128-.219.321-.39.489l-.033.033-.532-.021-6.01-.248-3.641-.15.078-.269c1.008-.034 3.812-.121 6.265-.121 1.769 0 3.003.044 3.669.131l.074.011c.288.044.444.105.52.146zm-11.126 3.138l.21.016.913.068-.329.873-.017.045-.029-.05-1.009-.115.261-.837zm6.864 6.589c.065.235.1.484.1.743 0 1.356-.959 2.458-2.139 2.458-1.179 0-2.139-1.103-2.139-2.458 0-.503.132-.972.36-1.361l3.817.618zm2.32.743l-.013-.37 5.159.836.155.013.032-.001 3.685-.12c.374-.012.717-.24.913-.606l.077-.142-.015.39c0 1.551.616 2.939 1.582 3.858h-13.158c.966-.919 1.583-2.307 1.583-3.858z" fill="#67737B"/><path d="M31.455 27.363h-2.746c.966-.919 1.582-2.307 1.582-3.858 0-1.044-.28-2.015-.758-2.819.642-.099 1.116-.311 1.41-.73.168-.24.344-.656.228-1.276-.302-1.611-2.091-2.452-3.788-2.773l-1.656-5.037c.122-.117.201-.29.201-.487 0-.352-.249-.638-.555-.638h-.016l-.598-1.82c.588-.487.973-1.279.973-2.174 0-1.478-1.046-2.68-2.331-2.68h-3.255c-.101 0-.201.032-.287.092l-1.06.737c-.166.116-.268.323-.268.546v1.114l-.508.243c-.283.135-.417.508-.3.833.089.245.295.393.513.393l.212-.049.083-.039v.853c0 .352.248.638.555.638h.865c.399.74 1.445 2.891 1.445 5.132 0 2.199-.966 6.024-1.42 7.7l-.038.071-2.993.098-1.895-.307c-.239-.667-1.057-3.063-1.057-4.618 0-.707-.059-1.399-.138-2.007.387-.374.946-1.062.78-1.805-.2-.903-1.238-1.039-1.578-1.082-.708-.093-1.985-.14-3.795-.14-3.055 0-6.651.135-6.687.137-.232.008-.434.182-.507.435l-.149.509-.275-.228v-1.058c0-.352-.249-.638-.555-.638-.307 0-.555.286-.555.638v1.384c0 .205.086.397.23.517l1.108.919-1.64 5.256c-.125.175-.213.389-.242.631-.05.408.075.797.308 1.071l-.32 2.887c-.028.256.08.505.274.634.086.056.181.084.276.084.12 0 .239-.044.338-.132l1.064-.942.138-.18.857-1.659.211.034c-.174.541-.27 1.125-.27 1.735 0 1.551.616 2.939 1.582 3.858h-3.811c-.306 0-.555.286-.555.638 0 .351.249.637.555.637h30.816c.306 0 .555-.286.555-.637 0-.353-.249-.638-.555-.638zm-20.541-8.851h-3.179l-.075.009c-.271.043-.48.307-.48.629 0 .352.248.638.555.638h3.179c.307 0 .555-.286.555-.638 0-.352-.248-.638-.555-.638zm0-1.621h-2.202c-.307 0-.555.286-.555.638 0 .352.249.638.555.638h2.202c.307 0 .555-.286.555-.638 0-.352-.248-.638-.555-.638zm0-1.621h-1.207c-.307 0-.555.285-.555.638 0 .351.248.638.555.638h1.207c.307 0 .555-.286.555-.638 0-.353-.248-.638-.555-.638zm-3.689 9.151c.44 0 .797-.411.797-.917s-.357-.916-.797-.916c-.44 0-.797.41-.797.916s.357.917.797.917zm18.708 0c.44 0 .797-.411.797-.917s-.357-.916-.797-.916c-.44 0-.797.41-.797.916s.357.917.797.917zm-6.291-18.011l.824-.393c.283-.135.417-.509.299-.834-.118-.325-.443-.479-.725-.345l-.398.19v-.224l.66-.459h2.761c-.14.383-.219.864-.219 1.413 0 .541.077 1.015.213 1.395h-3.415v-.744zm4.408-1.45l.108-.279.026-.009c.269.258.44.645.44 1.078 0 .44-.178.833-.454 1.09l-.012-.004-.108-.279c-.051-.187-.096-.453-.096-.798 0-.345.045-.611.096-.799zm-.648 3.469h.338l1.179 3.584-.929.117c-.261.033-.466.272-.491.573l-.366 4.336.007.18c.028.167.113.318.241.415l.132.071.172.033c.093 0 .185-.026.269-.08l.851-.544 1.48-.945.079.241.079.24-5.003 3.946-.161.127c.168-.651.359-1.435.539-2.265l.083-.384.15-.746c.259-1.343.455-2.708.455-3.769 0-2.072-.738-4.007-1.27-5.132h2.165zm6.686 10.518c.019.103.017.173-.007.206-.098.14-.454.303-1.549.332l-.354.005-.701-.008-.708-.008c-.516 0-1.11.016-1.596.137-.356.088-.715.246-1.071.435l1.963-1.548 1.367-1.079.147-.174c1.274.311 2.365.925 2.511 1.7zm-4.155 2.099c1.179 0 2.139 1.103 2.139 2.458 0 1.356-.959 2.458-2.139 2.458-1.179 0-2.138-1.103-2.138-2.458 0-1.355.959-2.458 2.138-2.458zm-1.524-5.136l-.07.044.002-.026.218-2.587.765-.097.565 1.72-1.48.945zm-22.673 5.631l-.476.921.209-1.884.718.088-.451.874zm9.356-1.059l-.432-.054-6.227-.767-.41-.051-.607-.075-.607-.074-1.201-.148-.183-.023.292-.937.034-.108.952.108 1.249.142.596.068 1.103.125.055.003c.282 0 .524-.246.552-.575.03-.35-.192-.663-.498-.697l-1.408-.159.501-1.329c.072-.19.059-.408-.035-.586-.094-.177-.258-.291-.438-.304l-1.593-.119.16-.51 9.825.405c.063.521.11 1.101.11 1.686 0 1.371.509 3.19.869 4.304l-2.66-.326zm2.433-7.448c-.064.128-.219.321-.39.489l-.033.033-.532-.021-6.01-.248-3.641-.15.078-.269c1.008-.034 3.812-.121 6.265-.121 1.769 0 3.003.044 3.669.131l.074.011c.288.044.444.105.52.146zm-11.126 3.138l.21.016.913.068-.329.873-.017.045-.029-.05-1.009-.115.261-.837zm6.864 6.589c.065.235.1.484.1.743 0 1.356-.959 2.458-2.139 2.458-1.179 0-2.139-1.103-2.139-2.458 0-.503.132-.972.36-1.361l3.817.618zm2.32.743l-.013-.37 5.159.836.155.013.032-.001 3.685-.12c.374-.012.717-.24.913-.606l.077-.142-.015.39c0 1.551.616 2.939 1.582 3.858h-13.158c.966-.919 1.583-2.307 1.583-3.858z" fill="#3A434E"/></g></g></svg>