<svg width="32" height="232" viewBox="0 0 32 232" xmlns="http://www.w3.org/2000/svg" xmlns:sketch="http://www.bohemiancoding.com/sketch/ns"><title>hong-kong</title><desc>Created with Sketch.</desc><g sketch:type="MSPage" fill="none"><g sketch:type="MSShapeGroup"><path d="M31.474 150.717c-.28 0-.4-.049-.567-.117-.176-.072-.39-.159-.747-.18v-9.982l.24.202.446.377c.202.171.499.137.662-.074.163-.211.132-.522-.07-.693l-1.278-1.079v-1.612c0-.272-.212-.493-.471-.493h-.593c-.191-.356-.55-.964-.864-1.145-.145-.092-.906-.759-1.636-1.418v-10.725l.019-.196c0-1.127-.541-2.432-1.346-3.246-.175-.178-.411-.276-.655-.276h-2.539c-.245 0-.481.1-.657.278-.741.753-1.262 1.902-1.345 2.956l-.012.155v13.348l-.311.436-1.011.762h-.854c-.085 0-.168.024-.24.069l-.894.552h-.84v-.715c0-.272-.211-.493-.472-.493h-.754v-2.788c0-.272-.211-.493-.472-.493-.26 0-.471.221-.471.493v2.788h-.418v-3.497c0-.188-.103-.361-.265-.443-.162-.082-.355-.061-.496.055l-2.481 2.032v-4.197c0-.262-.1-.512-.276-.697l-.887-.927v-2.971c0-.272-.212-.493-.472-.493s-.471.221-.471.493v1.986l-.148-.155c-.368-.385-.965-.385-1.333 0l-.148.155v-1.986c0-.272-.211-.493-.471-.493s-.471.221-.471.493v2.971l-.887.927c-.177.185-.277.435-.277.697v6.799l-.805.227c-.073.021-.141.06-.197.114l-.817.789-.013.014-.738.771-1.026.357c-.247.086-.38.365-.298.623.066.206.25.337.447.337l.149-.025 1.131-.394.148-.085.036-.034.811-.846.725-.7.447-.127v2.459h-1.508c-.26 0-.471.221-.471.493v8.555c-.086.021-.185.032-.324.032-.28 0-.4-.049-.567-.117-.201-.082-.452-.184-.91-.184-.261 0-.472.221-.472.493s.211.493.472.493c.28 0 .4.049.567.117.2.082.451.184.909.184s.709-.102.91-.184c.125-.051.224-.091.383-.108h.368c.159.017.258.058.383.108.201.082.451.184.909.184s.709-.102.91-.184c.167-.068.287-.117.567-.117.28 0 .4.049.567.117.202.082.452.184.91.184s.709-.102.91-.184c.165-.068.285-.116.56-.117l.082.009h.109c.159.017.258.058.382.108.201.082.452.184.91.184.457 0 .708-.102.91-.184.124-.051.223-.091.382-.108h.369c.159.017.258.058.382.108.201.082.452.184.91.184.457 0 .708-.102.91-.184.125-.051.223-.091.382-.108h.369c.159.017.258.058.382.108.201.082.452.184.91.184.457 0 .708-.102.91-.184.166-.068.287-.117.567-.117.281 0 .4.049.567.117.201.082.452.184.911.184.457 0 .708-.102.91-.184.166-.068.287-.117.567-.117.281 0 .4.049.567.117.201.082.452.184.91.184s.709-.102.91-.184c.166-.068.287-.117.567-.117.281 0 .4.049.567.117.201.082.452.184.91.184s.708-.102.909-.184c.167-.068.287-.117.568-.117.281 0 .4.049.567.117.201.082.451.184.91.184.458 0 .709-.102.91-.184.167-.068.287-.117.568-.117.281 0 .401.049.568.117.201.082.452.184.91.184.261 0 .472-.221.472-.493s-.211-.493-.472-.493zm-9.527-27.182l.002-.033c.025-.472.243-1.043.55-1.472h1.69c.287.404.494.939.534 1.397l-.011.155v.701h-2.765v-.748zm6.039 13.532h-1.39v-1.265c.488.433.993.869 1.167.975.046.039.13.149.223.29zm1.232 1.499v11.708h-2.674c.033-.101.052-.209.052-.322v-11.899h2.622v.513zm-7.271-13.297h2.765v.656h-2.765v-.656zm0 19.687h2.765v.655h-2.765v-.655zm0-1.641h2.765v.655h-2.765v-.655zm0-1.641h2.765v.655h-2.765v-.655zm0-1.641h2.765v.655h-2.765v-.655zm0 6.563h2.765v.655h-2.765v-.655zm0-9.844h2.765v.656h-2.765v-.656zm0 1.641h2.765v.655h-2.765v-.655zm0-11.484h2.765v.655h-2.765v-.655zm0 1.64h2.765v.655h-2.765v-.655zm0 1.641h2.765v.655h-2.765v-.655zm0 1.64h2.765v.655h-2.765v-.655zm0 1.641h2.765v.655h-2.765v-.655zm1.62 1.641h1.145v.656h-2.765v-.656h1.62zm-1.62 13.125h2.765v.73h-2.765v-.73zm-3.652-7.452h1.679v.405h-1.679v-.405zm2.15 1.39h.221v8.099h-.368l.002-.019v-6.945c0-.182-.096-.34-.237-.425-.069-.042-.148-.067-.234-.067-.26 0-.471.22-.471.492v6.945l.002.019h-.38l.002-.019v-6.945c0-.272-.211-.492-.471-.492s-.471.22-.471.492v6.945l.002.019h-.437v-8.099h2.842zm-17.238 8.249v-7.802h1.508v7.803h-1.508zm11.008-12.031h.754v12.031h-1.508v-12.031h.754zm-1.832-1.246v13.277h-2.514v-13.443l.213-.174 2.3-1.885v2.226zm-6.256 4.162l.363.379-.363.379v-.758zm2.071-7.499l-.369-.385.369-.386v.771zm0 14.363l-1.035 1.082-.276-.289-.76-.793-.275-.289.275-.289 1.036-1.082 1.311 1.371-.276.289zm-2.071-2.742l.369.385-.369.385v-.77zm2.071-3.365l-.363-.379.363-.379v.758zm0 4.136l-.369-.386.369-.385v.771zm-2.071-10.422l-.275-.289 1.311-1.371 1.035 1.082.276.288-1.311 1.371-1.036-1.082zm1.036 2.475l1.035 1.083.276.288-1.16 1.213-.151.158-1.036-1.082-.275-.288 1.311-1.371zm0 4.123l1.035 1.083.276.288-.276.288-1.035 1.083-1.311-1.371 1.311-1.371zm1.311-11.021l-.333.348-.978 1.023-.978-1.023-.333-.348 1.311-1.371 1.311 1.371zm-2.347 1.682l.369.386-.369.385v-.771zm0 4.166v-.031l.02.02.346.363.003.002-.369.385v-.739zm2.071.261v.479l-.369-.385.185-.194.184-.192v.292zm7.714 13.049v-10.914h.968c.084 0 .167-.023.24-.068l.894-.553h.877c.099 0 .194-.033.275-.093l.896-.675v1.587h-2.239c-.26 0-.471.221-.471.493v.898h-.22c-.261 0-.471.22-.471.493v9.033c-.247-.005-.365-.052-.522-.116l-.227-.085zm1.958-19.257c.082.065.182.1.285.1.101 0 .2-.035.282-.098.183-.143.243-.403.14-.616l-.139-.174c-.162-.128-.402-.128-.566-.001-.183.143-.242.404-.138.618l.136.17m-2.114-4.719c.082.065.182.1.284.1.102 0 .201-.035.282-.098.183-.143.242-.403.14-.616l-.138-.174c-.163-.128-.402-.128-.565-.001-.183.143-.242.404-.139.618l.137.17m-5.252 1.222l.392.224.214.41c.083.158.242.256.414.256s.33-.098.413-.256l.214-.41.392-.224c.151-.087.245-.253.245-.433s-.094-.346-.245-.432l-.392-.224-.214-.41c-.083-.158-.241-.256-.413-.256s-.331.098-.414.256l-.214.41-.392.224c-.151.087-.245.252-.245.432s.094.346.245.433" fill="#206FAC"/><path d="M31.474 110.717c-.28 0-.4-.049-.567-.117-.176-.072-.39-.159-.747-.18v-9.982l.24.202.446.377c.202.171.499.137.662-.074.163-.211.132-.522-.07-.693l-1.278-1.079v-1.612c0-.272-.212-.493-.471-.493h-.593c-.191-.356-.55-.964-.864-1.145-.145-.092-.906-.759-1.636-1.418v-10.725l.019-.196c0-1.127-.541-2.432-1.346-3.246-.175-.178-.411-.276-.655-.276h-2.539c-.245 0-.481.1-.657.278-.741.753-1.262 1.902-1.345 2.956l-.012.155v13.348l-.311.436-1.011.762h-.854c-.085 0-.168.024-.24.069l-.894.552h-.84v-.715c0-.272-.211-.493-.472-.493h-.754v-2.788c0-.272-.211-.493-.472-.493-.26 0-.471.221-.471.493v2.788h-.418v-3.497c0-.188-.103-.361-.265-.443-.162-.082-.355-.061-.496.055l-2.481 2.032v-4.197c0-.262-.1-.512-.276-.697l-.887-.927v-2.971c0-.272-.212-.493-.472-.493s-.471.221-.471.493v1.986l-.148-.155c-.368-.385-.965-.385-1.333 0l-.148.155v-1.986c0-.272-.211-.493-.471-.493s-.471.221-.471.493v2.971l-.887.927c-.177.185-.277.435-.277.697v6.799l-.805.227c-.073.021-.141.06-.197.114l-.817.789-.013.014-.738.771-1.026.357c-.247.086-.38.365-.298.623.066.206.25.337.447.337l.149-.025 1.131-.394.148-.085.036-.034.811-.846.725-.7.447-.127v2.459h-1.508c-.26 0-.471.221-.471.493v8.555c-.086.021-.185.032-.324.032-.28 0-.4-.049-.567-.117-.201-.082-.452-.184-.91-.184-.261 0-.472.221-.472.493s.211.493.472.493c.28 0 .4.049.567.117.2.082.451.184.909.184s.709-.102.91-.184c.125-.051.224-.091.383-.108h.368c.159.017.258.058.383.108.201.082.451.184.909.184s.709-.102.91-.184c.167-.068.287-.117.567-.117.28 0 .4.049.567.117.202.082.452.184.91.184s.709-.102.91-.184c.165-.068.285-.116.56-.117l.082.009h.109c.159.017.258.058.382.108.201.082.452.184.91.184.457 0 .708-.102.91-.184.124-.051.223-.091.382-.108h.369c.159.017.258.058.382.108.201.082.452.184.91.184.457 0 .708-.102.91-.184.125-.051.223-.091.382-.108h.369c.159.017.258.058.382.108.201.082.452.184.91.184.457 0 .708-.102.91-.184.166-.068.287-.117.567-.117.281 0 .4.049.567.117.201.082.452.184.911.184.457 0 .708-.102.91-.184.166-.068.287-.117.567-.117.281 0 .4.049.567.117.201.082.452.184.91.184s.709-.102.91-.184c.166-.068.287-.117.567-.117.281 0 .4.049.567.117.201.082.452.184.91.184s.708-.102.909-.184c.167-.068.287-.117.568-.117.281 0 .4.049.567.117.201.082.451.184.91.184.458 0 .709-.102.91-.184.167-.068.287-.117.568-.117.281 0 .401.049.568.117.201.082.452.184.91.184.261 0 .472-.221.472-.493s-.211-.493-.472-.493zm-9.527-27.182l.002-.033c.025-.472.243-1.043.55-1.472h1.69c.287.404.494.939.534 1.397l-.011.155v.701h-2.765v-.748zm6.039 13.532h-1.39v-1.265c.488.433.993.869 1.167.975.046.039.13.149.223.29zm1.232 1.499v11.708h-2.674c.033-.101.052-.209.052-.322v-11.899h2.622v.513zm-7.271-13.297h2.765v.656h-2.765v-.656zm0 19.687h2.765v.655h-2.765v-.655zm0-1.641h2.765v.655h-2.765v-.655zm0-1.641h2.765v.655h-2.765v-.655zm0-1.641h2.765v.655h-2.765v-.655zm0 6.563h2.765v.655h-2.765v-.655zm0-9.844h2.765v.656h-2.765v-.656zm0 1.641h2.765v.655h-2.765v-.655zm0-11.484h2.765v.655h-2.765v-.655zm0 1.64h2.765v.655h-2.765v-.655zm0 1.641h2.765v.655h-2.765v-.655zm0 1.64h2.765v.655h-2.765v-.655zm0 1.641h2.765v.655h-2.765v-.655zm1.62 1.641h1.145v.656h-2.765v-.656h1.62zm-1.62 13.125h2.765v.73h-2.765v-.73zm-3.652-7.452h1.679v.405h-1.679v-.405zm2.15 1.39h.221v8.099h-.368l.002-.019v-6.945c0-.182-.096-.34-.237-.425-.069-.042-.148-.067-.234-.067-.26 0-.471.22-.471.492v6.945l.002.019h-.38l.002-.019v-6.945c0-.272-.211-.492-.471-.492s-.471.22-.471.492v6.945l.002.019h-.437v-8.099h2.842zm-17.238 8.249v-7.802h1.508v7.803h-1.508zm11.008-12.031h.754v12.031h-1.508v-12.031h.754zm-1.832-1.246v13.277h-2.514v-13.443l.213-.174 2.3-1.885v2.226zm-6.256 4.162l.363.379-.363.379v-.758zm2.071-7.499l-.369-.385.369-.386v.771zm0 14.363l-1.035 1.082-.276-.289-.76-.793-.275-.289.275-.289 1.036-1.082 1.311 1.371-.276.289zm-2.071-2.742l.369.385-.369.385v-.77zm2.071-3.365l-.363-.379.363-.379v.758zm0 4.136l-.369-.386.369-.385v.771zm-2.071-10.422l-.275-.289 1.311-1.371 1.035 1.082.276.288-1.311 1.371-1.036-1.082zm1.036 2.475l1.035 1.083.276.288-1.16 1.213-.151.158-1.036-1.082-.275-.288 1.311-1.371zm0 4.123l1.035 1.083.276.288-.276.288-1.035 1.083-1.311-1.371 1.311-1.371zm1.311-11.021l-.333.348-.978 1.023-.978-1.023-.333-.348 1.311-1.371 1.311 1.371zm-2.347 1.682l.369.386-.369.385v-.771zm0 4.166v-.031l.02.02.346.363.003.002-.369.385v-.739zm2.071.261v.479l-.369-.385.185-.194.184-.192v.292zm7.714 13.049v-10.914h.968c.084 0 .167-.023.24-.068l.894-.553h.877c.099 0 .194-.033.275-.093l.896-.675v1.587h-2.239c-.26 0-.471.221-.471.493v.898h-.22c-.261 0-.471.22-.471.493v9.033c-.247-.005-.365-.052-.522-.116l-.227-.085zm1.958-19.257c.082.065.182.1.285.1.101 0 .2-.035.282-.098.183-.143.243-.403.14-.616l-.139-.174c-.162-.128-.402-.128-.566-.001-.183.143-.242.404-.138.618l.136.17m-2.114-4.719c.082.065.182.1.284.1.102 0 .201-.035.282-.098.183-.143.242-.403.14-.616l-.138-.174c-.163-.128-.402-.128-.565-.001-.183.143-.242.404-.139.618l.137.17m-5.252 1.222l.392.224.214.41c.083.158.242.256.414.256s.33-.098.413-.256l.214-.41.392-.224c.151-.087.245-.253.245-.433s-.094-.346-.245-.432l-.392-.224-.214-.41c-.083-.158-.241-.256-.413-.256s-.331.098-.414.256l-.214.41-.392.224c-.151.087-.245.252-.245.432s.094.346.245.433" fill="#fff"/><path d="M31.474 70.717c-.28 0-.4-.049-.567-.117-.176-.072-.39-.159-.747-.18v-9.982l.24.202.446.377c.202.171.499.137.662-.074.163-.211.132-.522-.07-.693l-1.278-1.079v-1.612c0-.272-.212-.493-.471-.493h-.593c-.191-.356-.55-.964-.864-1.145-.145-.092-.906-.759-1.636-1.418v-10.725l.019-.196c0-1.127-.541-2.432-1.346-3.246-.175-.178-.411-.276-.655-.276h-2.539c-.245 0-.481.1-.657.278-.741.753-1.262 1.902-1.345 2.956l-.012.155v13.348l-.311.436-1.011.762h-.854c-.085 0-.168.024-.24.069l-.894.552h-.84v-.715c0-.272-.211-.493-.472-.493h-.754v-2.788c0-.272-.211-.493-.472-.493-.26 0-.471.221-.471.493v2.788h-.418v-3.497c0-.188-.103-.361-.265-.443-.162-.082-.355-.061-.496.055l-2.481 2.032v-4.197c0-.262-.1-.512-.276-.697l-.887-.927v-2.971c0-.272-.212-.493-.472-.493s-.471.221-.471.493v1.986l-.148-.155c-.368-.385-.965-.385-1.333 0l-.148.155v-1.986c0-.272-.211-.493-.471-.493s-.471.221-.471.493v2.971l-.887.927c-.177.185-.277.435-.277.697v6.799l-.805.227c-.073.021-.141.06-.197.114l-.817.789-.013.014-.738.771-1.026.357c-.247.086-.38.365-.298.623.066.206.25.337.447.337l.149-.025 1.131-.394.148-.085.036-.034.811-.846.725-.7.447-.127v2.459h-1.508c-.26 0-.471.221-.471.493v8.555c-.086.021-.185.032-.324.032-.28 0-.4-.049-.567-.117-.201-.082-.452-.184-.91-.184-.261 0-.472.221-.472.493s.211.493.472.493c.28 0 .4.049.567.117.2.082.451.184.909.184s.709-.102.91-.184c.125-.051.224-.091.383-.108h.368c.159.017.258.058.383.108.201.082.451.184.909.184s.709-.102.91-.184c.167-.068.287-.117.567-.117.28 0 .4.049.567.117.202.082.452.184.91.184s.709-.102.91-.184c.165-.068.285-.116.56-.117l.082.009h.109c.159.017.258.058.382.108.201.082.452.184.91.184.457 0 .708-.102.91-.184.124-.051.223-.091.382-.108h.369c.159.017.258.058.382.108.201.082.452.184.91.184.457 0 .708-.102.91-.184.125-.051.223-.091.382-.108h.369c.159.017.258.058.382.108.201.082.452.184.91.184.457 0 .708-.102.91-.184.166-.068.287-.117.567-.117.281 0 .4.049.567.117.201.082.452.184.911.184.457 0 .708-.102.91-.184.166-.068.287-.117.567-.117.281 0 .4.049.567.117.201.082.452.184.91.184s.709-.102.91-.184c.166-.068.287-.117.567-.117.281 0 .4.049.567.117.201.082.452.184.91.184s.708-.102.909-.184c.167-.068.287-.117.568-.117.281 0 .4.049.567.117.201.082.451.184.91.184.458 0 .709-.102.91-.184.167-.068.287-.117.568-.117.281 0 .401.049.568.117.201.082.452.184.91.184.261 0 .472-.221.472-.493s-.211-.493-.472-.493zm-9.527-27.182l.002-.033c.025-.472.243-1.043.55-1.472h1.69c.287.404.494.939.534 1.397l-.011.155v.701h-2.765v-.748zm6.039 13.532h-1.39v-1.265c.488.433.993.869 1.167.975.046.039.13.149.223.29zm1.232 1.499v11.708h-2.674c.033-.101.052-.209.052-.322v-11.899h2.622v.513zm-7.271-13.297h2.765v.656h-2.765v-.656zm0 19.687h2.765v.655h-2.765v-.655zm0-1.641h2.765v.655h-2.765v-.655zm0-1.641h2.765v.655h-2.765v-.655zm0-1.641h2.765v.655h-2.765v-.655zm0 6.563h2.765v.655h-2.765v-.655zm0-9.844h2.765v.656h-2.765v-.656zm0 1.641h2.765v.655h-2.765v-.655zm0-11.484h2.765v.655h-2.765v-.655zm0 1.64h2.765v.655h-2.765v-.655zm0 1.641h2.765v.655h-2.765v-.655zm0 1.64h2.765v.655h-2.765v-.655zm0 1.641h2.765v.655h-2.765v-.655zm1.62 1.641h1.145v.656h-2.765v-.656h1.62zm-1.62 13.125h2.765v.73h-2.765v-.73zm-3.652-7.452h1.679v.405h-1.679v-.405zm2.15 1.39h.221v8.099h-.368l.002-.019v-6.945c0-.182-.096-.34-.237-.425-.069-.042-.148-.067-.234-.067-.26 0-.471.22-.471.492v6.945l.002.019h-.38l.002-.019v-6.945c0-.272-.211-.492-.471-.492s-.471.22-.471.492v6.945l.002.019h-.437v-8.099h2.842zm-17.238 8.249v-7.802h1.508v7.803h-1.508zm11.008-12.031h.754v12.031h-1.508v-12.031h.754zm-1.832-1.246v13.277h-2.514v-13.443l.213-.174 2.3-1.885v2.226zm-6.256 4.162l.363.379-.363.379v-.758zm2.071-7.499l-.369-.385.369-.386v.771zm0 14.363l-1.035 1.082-.276-.289-.76-.793-.275-.289.275-.289 1.036-1.082 1.311 1.371-.276.289zm-2.071-2.742l.369.385-.369.385v-.77zm2.071-3.365l-.363-.379.363-.379v.758zm0 4.136l-.369-.386.369-.385v.771zm-2.071-10.422l-.275-.289 1.311-1.371 1.035 1.082.276.288-1.311 1.371-1.036-1.082zm1.036 2.475l1.035 1.083.276.288-1.16 1.213-.151.158-1.036-1.082-.275-.288 1.311-1.371zm0 4.123l1.035 1.083.276.288-.276.288-1.035 1.083-1.311-1.371 1.311-1.371zm1.311-11.021l-.333.348-.978 1.023-.978-1.023-.333-.348 1.311-1.371 1.311 1.371zm-2.347 1.682l.369.386-.369.385v-.771zm0 4.166v-.031l.02.02.346.363.003.002-.369.385v-.739zm2.071.261v.479l-.369-.385.185-.194.184-.192v.292zm7.714 13.049v-10.914h.968c.084 0 .167-.023.24-.068l.894-.553h.877c.099 0 .194-.033.275-.093l.896-.675v1.587h-2.239c-.26 0-.471.221-.471.493v.898h-.22c-.261 0-.471.22-.471.493v9.033c-.247-.005-.365-.052-.522-.116l-.227-.085zm1.958-19.257c.082.065.182.1.285.1.101 0 .2-.035.282-.098.183-.143.243-.403.14-.616l-.139-.174c-.162-.128-.402-.128-.566-.001-.183.143-.242.404-.138.618l.136.17m-2.114-4.719c.082.065.182.1.284.1.102 0 .201-.035.282-.098.183-.143.242-.403.14-.616l-.138-.174c-.163-.128-.402-.128-.565-.001-.183.143-.242.404-.139.618l.137.17m-5.252 1.222l.392.224.214.41c.083.158.242.256.414.256s.33-.098.413-.256l.214-.41.392-.224c.151-.087.245-.253.245-.433s-.094-.346-.245-.432l-.392-.224-.214-.41c-.083-.158-.241-.256-.413-.256s-.331.098-.414.256l-.214.41-.392.224c-.151.087-.245.252-.245.432s.094.346.245.433" fill="#67737B"/><path d="M31.474 30.717c-.28 0-.4-.049-.567-.117-.176-.072-.39-.159-.747-.18v-9.982l.24.202.446.377c.202.171.499.137.662-.074.163-.211.132-.522-.07-.693l-1.278-1.079v-1.612c0-.272-.212-.493-.471-.493h-.593c-.191-.356-.55-.964-.864-1.145-.145-.092-.906-.759-1.636-1.418v-10.725l.019-.196c0-1.127-.541-2.432-1.346-3.246-.175-.178-.411-.276-.655-.276h-2.539c-.245 0-.481.1-.657.278-.741.753-1.262 1.902-1.345 2.956l-.012.155v13.348l-.311.436-1.011.762h-.854c-.085 0-.168.024-.24.069l-.894.552h-.84v-.715c0-.272-.211-.493-.472-.493h-.754v-2.788c0-.272-.211-.493-.472-.493-.26 0-.471.221-.471.493v2.788h-.418v-3.497c0-.188-.103-.361-.265-.443-.162-.082-.355-.061-.496.055l-2.481 2.032v-4.197c0-.262-.1-.512-.276-.697l-.887-.927v-2.971c0-.272-.212-.493-.472-.493s-.471.221-.471.493v1.986l-.148-.155c-.368-.385-.965-.385-1.333 0l-.148.155v-1.986c0-.272-.211-.493-.471-.493s-.471.221-.471.493v2.971l-.887.927c-.177.185-.277.435-.277.697v6.799l-.805.227c-.073.021-.141.06-.197.114l-.817.789-.013.014-.738.771-1.026.357c-.247.086-.38.365-.298.623.066.206.25.337.447.337l.149-.025 1.131-.394.148-.085.036-.034.811-.846.725-.7.447-.127v2.459h-1.508c-.26 0-.471.221-.471.493v8.555c-.086.021-.185.032-.324.032-.28 0-.4-.049-.567-.117-.201-.082-.452-.184-.91-.184-.261 0-.472.221-.472.493s.211.493.472.493c.28 0 .4.049.567.117.2.082.451.184.909.184s.709-.102.91-.184c.125-.051.224-.091.383-.108h.368c.159.017.258.058.383.108.201.082.451.184.909.184s.709-.102.91-.184c.167-.068.287-.117.567-.117.28 0 .4.049.567.117.202.082.452.184.91.184s.709-.102.91-.184c.165-.068.285-.116.56-.117l.082.009h.109c.159.017.258.058.382.108.201.082.452.184.91.184.457 0 .708-.102.91-.184.124-.051.223-.091.382-.108h.369c.159.017.258.058.382.108.201.082.452.184.91.184.457 0 .708-.102.91-.184.125-.051.223-.091.382-.108h.369c.159.017.258.058.382.108.201.082.452.184.91.184.457 0 .708-.102.91-.184.166-.068.287-.117.567-.117.281 0 .4.049.567.117.201.082.452.184.911.184.457 0 .708-.102.91-.184.166-.068.287-.117.567-.117.281 0 .4.049.567.117.201.082.452.184.91.184s.709-.102.91-.184c.166-.068.287-.117.567-.117.281 0 .4.049.567.117.201.082.452.184.91.184s.708-.102.909-.184c.167-.068.287-.117.568-.117.281 0 .4.049.567.117.201.082.451.184.91.184.458 0 .709-.102.91-.184.167-.068.287-.117.568-.117.281 0 .401.049.568.117.201.082.452.184.91.184.261 0 .472-.221.472-.493s-.211-.493-.472-.493zm-9.527-27.182l.002-.033c.025-.472.243-1.043.55-1.472h1.69c.287.404.494.939.534 1.397l-.011.155v.701h-2.765v-.748zm6.039 13.532h-1.39v-1.265c.488.433.993.869 1.167.975.046.039.13.149.223.29zm1.232 1.499v11.708h-2.674c.033-.101.052-.209.052-.322v-11.899h2.622v.513zm-7.271-13.297h2.765v.656h-2.765v-.656zm0 19.687h2.765v.655h-2.765v-.655zm0-1.641h2.765v.655h-2.765v-.655zm0-1.641h2.765v.655h-2.765v-.655zm0-1.641h2.765v.655h-2.765v-.655zm0 6.563h2.765v.655h-2.765v-.655zm0-9.844h2.765v.656h-2.765v-.656zm0 1.641h2.765v.655h-2.765v-.655zm0-11.484h2.765v.655h-2.765v-.655zm0 1.64h2.765v.655h-2.765v-.655zm0 1.641h2.765v.655h-2.765v-.655zm0 1.64h2.765v.655h-2.765v-.655zm0 1.641h2.765v.655h-2.765v-.655zm1.62 1.641h1.145v.656h-2.765v-.656h1.62zm-1.62 13.125h2.765v.73h-2.765v-.73zm-3.652-7.452h1.679v.405h-1.679v-.405zm2.15 1.39h.221v8.099h-.368l.002-.019v-6.945c0-.182-.096-.34-.237-.425-.069-.042-.148-.067-.234-.067-.26 0-.471.22-.471.492v6.945l.002.019h-.38l.002-.019v-6.945c0-.272-.211-.492-.471-.492s-.471.22-.471.492v6.945l.002.019h-.437v-8.099h2.842zm-17.238 8.249v-7.802h1.508v7.803h-1.508zm11.008-12.031h.754v12.031h-1.508v-12.031h.754zm-1.832-1.246v13.277h-2.514v-13.443l.213-.174 2.3-1.885v2.226zm-6.256 4.162l.363.379-.363.379v-.758zm2.071-7.499l-.369-.385.369-.386v.771zm0 14.363l-1.035 1.082-.276-.289-.76-.793-.275-.289.275-.289 1.036-1.082 1.311 1.371-.276.289zm-2.071-2.742l.369.385-.369.385v-.77zm2.071-3.365l-.363-.379.363-.379v.758zm0 4.136l-.369-.386.369-.385v.771zm-2.071-10.422l-.275-.289 1.311-1.371 1.035 1.082.276.288-1.311 1.371-1.036-1.082zm1.036 2.475l1.035 1.083.276.288-1.16 1.213-.151.158-1.036-1.082-.275-.288 1.311-1.371zm0 4.123l1.035 1.083.276.288-.276.288-1.035 1.083-1.311-1.371 1.311-1.371zm1.311-11.021l-.333.348-.978 1.023-.978-1.023-.333-.348 1.311-1.371 1.311 1.371zm-2.347 1.682l.369.386-.369.385v-.771zm0 4.166v-.031l.02.02.346.363.003.002-.369.385v-.739zm2.071.261v.479l-.369-.385.185-.194.184-.192v.292zm7.714 13.049v-10.914h.968c.084 0 .167-.023.24-.068l.894-.553h.877c.099 0 .194-.033.275-.093l.896-.675v1.587h-2.239c-.26 0-.471.221-.471.493v.898h-.22c-.261 0-.471.22-.471.493v9.033c-.247-.005-.365-.052-.522-.116l-.227-.085zm1.958-19.257c.082.065.182.1.285.1.101 0 .2-.035.282-.098.183-.143.243-.403.14-.616l-.139-.174c-.162-.128-.402-.128-.566-.001-.183.143-.242.404-.138.618l.136.17m-2.114-4.719c.082.065.182.1.284.1.102 0 .201-.035.282-.098.183-.143.242-.403.14-.616l-.138-.174c-.163-.128-.402-.128-.565-.001-.183.143-.242.404-.139.618l.137.17m-5.252 1.222l.392.224.214.41c.083.158.242.256.414.256s.33-.098.413-.256l.214-.41.392-.224c.151-.087.245-.253.245-.433s-.094-.346-.245-.432l-.392-.224-.214-.41c-.083-.158-.241-.256-.413-.256s-.331.098-.414.256l-.214.41-.392.224c-.151.087-.245.252-.245.432s.094.346.245.433" fill="#3A434E"/></g></g></svg>