<svg width="32" height="232" viewBox="0 0 32 232" xmlns="http://www.w3.org/2000/svg"><title>india</title><desc>Created with Sketch.</desc><g fill="none"><path d="M5.93 142.977h2.435c.276 0 .5-.228.5-.508v-2.162c0-.983-1.23-1.72-1.478-1.857-.15-.082-.33-.082-.48 0-.247.14-1.476.875-1.476 1.858v2.16c0 .28.224.51.5.51zm.5-2.67c0-.206.344-.555.718-.814.375.26.718.608.718.815v1.653H6.43v-1.652zm-.5 7.622h2.435c.276 0 .5-.23.5-.51v-2.16c0-.983-1.23-1.72-1.478-1.857-.15-.083-.33-.083-.48 0-.247.137-1.476.874-1.476 1.857v2.16c0 .28.224.51.5.51zm.5-2.67c0-.208.344-.557.718-.815.375.26.718.608.718.815v1.653H6.43v-1.653zm-3.503-2.283H4.3c.277 0 .5-.228.5-.508v-2.162c0-.92-.752-1.69-.838-1.776-.194-.192-.502-.192-.696 0-.086.084-.838.855-.838 1.776v2.16c0 .28.223.51.5.51zm.5-2.67c0-.193.082-.4.187-.582.104.18.188.39.188.583v1.653h-.376v-1.652zm-.5 7.622H4.3c.277 0 .5-.23.5-.51v-2.16c0-.92-.752-1.69-.838-1.776-.194-.192-.502-.192-.696 0-.086.085-.838.856-.838 1.776v2.16c0 .28.223.51.5.51zm.5-2.67c0-.194.082-.402.187-.583.104.182.188.39.188.583v1.653h-.376v-1.653zm20.042-2.283h2.434c.276 0 .5-.228.5-.508v-2.162c0-.983-1.23-1.72-1.478-1.857-.15-.082-.33-.082-.48 0-.247.14-1.476.875-1.476 1.858v2.16c0 .28.224.51.5.51zm.498-2.67c0-.207.344-.555.718-.814.375.26.718.608.718.815v1.653h-1.437v-1.652zm-.5 7.622h2.436c.276 0 .5-.23.5-.51v-2.16c0-.983-1.23-1.72-1.478-1.857-.15-.083-.33-.083-.48 0-.247.137-1.476.874-1.476 1.857v2.16c0 .28.224.51.5.51zm.5-2.67c0-.208.343-.557.718-.815.352.246.72.6.72.815v1.653h-1.438v-1.653zm3.565-2.283h1.374c.276 0 .5-.228.5-.508v-2.162c0-.92-.754-1.69-.84-1.776-.193-.192-.5-.192-.695 0-.086.084-.838.855-.838 1.776v2.16c0 .28.223.51.5.51zm.5-2.67c0-.193.082-.4.187-.582.104.18.188.39.188.583v1.653h-.376v-1.652zm-.5 7.622h1.374c.276 0 .5-.23.5-.51v-2.16c0-.92-.754-1.69-.84-1.776-.193-.192-.5-.192-.695 0-.086.085-.838.856-.838 1.776v2.16c0 .28.223.51.5.51zm3.43-17.442c-.552 0-.998.455-.998 1.016v5.202h-.437v-2.588c0-.28-.224-.508-.5-.508-.275 0-.498.228-.498.508v2.588h-1.588c.21-.33.366-.754.366-1.292 0-1.23-.88-1.926-1.588-2.485-.307-.244-.6-.476-.78-.713v-.8c.102-.12.166-.275.166-.446 0-.373-.3-.677-.666-.677-.367 0-.666.304-.666.678 0 .173.063.328.167.448v.798c-.18.238-.472.47-.78.713-.164.13-.338.266-.507.416.016-.18.027-.365.027-.558 0-2.86-2.075-4.5-3.743-5.817-.856-.675-1.664-1.314-2.088-2-.056-.097-.128-.186-.214-.262l-.154-.11v-1.74c.24-.164.4-.444.4-.76 0-.506-.403-.918-.9-.918s-.9.412-.9.917c0 .317.16.597.402.762v1.737l-.025.014c-.153.096-.27.225-.35.373-.428.68-1.232 1.316-2.082 1.99-1.668 1.316-3.743 2.957-3.743 5.816 0 .192.01.376.027.557-.17-.15-.343-.287-.507-.417-.307-.243-.6-.475-.78-.712v-.8c.102-.12.166-.274.166-.446 0-.374-.298-.678-.665-.678-.367 0-.666.304-.666.678 0 .17.062.327.166.447v.798c-.18.237-.473.47-.78.712-.71.56-1.59 1.255-1.59 2.485 0 .537.157.963.367 1.292H3.435v-2.588c0-.28-.223-.51-.5-.51s-.498.23-.498.51v2.587H2v-5.202c0-.56-.447-1.016-.998-1.016-.552 0-.998.454-.998 1.015v18.293c0 .56.447 1.016.998 1.016l9.75.003h5.326l14.885.004c.264 0 .518-.105.706-.296.186-.19.292-.45.292-.72v-18.3c0-.56-.447-1.015-.998-1.015zm-2.93 14.772c0-.194.082-.402.187-.583.104.182.188.39.188.583v1.653h-.376v-1.653zM6.856 133.732c.228-.18.46-.365.668-.567.206.203.44.387.667.567.645.51 1.202.95 1.202 1.683 0 .75-.534 1.13-.738 1.25H6.394c-.207-.122-.74-.503-.74-1.25 0-.733.558-1.173 1.203-1.683zm16.916 0c.228-.18.46-.365.667-.567.206.203.44.387.667.567.645.51 1.202.95 1.202 1.683 0 .75-.535 1.13-.74 1.25h-2.26c-.208-.122-.74-.503-.74-1.25 0-.733.557-1.173 1.202-1.683zm-11.996 3.99v-.778h8.412v11.84h-.7v-7.114c0-1.52-1.458-2.895-2.423-3.64l-.422-.308-.407-.27c-.157-.094-.353-.094-.51 0l-.408.27-.422.31c-.965.743-2.423 2.117-2.423 3.638v7.114h-.7v-11.062zm4.206 5.84c-.407 0-.74.328-.76.738v4.428h-1.748v-5.69c0-.874 1.456-1.96 2.507-2.528.265.146.737.423 1.207.782.84.64 1.303 1.262 1.303 1.745v5.69h-1.75V144.3c-.018-.41-.35-.737-.76-.737zm.22-4.08c-.14-.07-.3-.07-.438 0-.193.095-1.245.635-2.108 1.43.448-.993 1.625-1.95 2.328-2.422.704.473 1.88 1.428 2.328 2.424-.863-.796-1.917-1.337-2.11-1.433zm13.763 9.307l-7.78-.003v-11.064h7.78v11.067zM9.78 137.72v11.06H2.003v-11.06h7.78zm14.66-7.09c.15 0 .273.1.316.236-.086-.072-.195-.116-.315-.116s-.228.044-.314.117c.043-.138.167-.238.315-.238zm-8.457-8.635c.054 0 .098.045.098.1 0 .055-.043.1-.097.1-.054 0-.098-.045-.098-.1 0-.055.044-.1.098-.1zm-1.73 6.58c.597-.473 1.207-.956 1.73-1.492.523.536 1.133 1.02 1.73 1.49 1.528 1.21 2.97 2.35 2.97 4.213 0 .913-.308 1.61-.69 2.124h-8.02c-.38-.514-.69-1.21-.69-2.124 0-1.864 1.442-3.004 2.97-4.212zm-6.728 2.056c.148 0 .273.1.315.237-.086-.072-.195-.117-.315-.117s-.23.044-.315.117c.043-.137.167-.237.315-.237zm.167-5.12c.276 0 .5-.23.5-.51s-.224-.508-.5-.508-.5.228-.5.51c0 .28.224.507.5.507m13.56-.962l.415.23.227.424c.087.163.255.264.438.264.182 0 .35-.1.438-.264l.227-.423.415-.23c.16-.09.26-.26.26-.445 0-.186-.1-.357-.26-.446l-.415-.233-.227-.422c-.087-.163-.255-.264-.438-.264-.182 0-.35.102-.438.265l-.227.422-.415.232c-.16.088-.26.26-.26.445s.1.357.26.446m5.435 2.593l.024.026c.093.093.22.147.353.147.107 0 .212-.035.3-.1.115-.09.188-.225.2-.372.007-.112-.023-.224-.082-.316l-.04-.055-.024-.026c-.093-.095-.22-.15-.352-.15-.107 0-.212.037-.3.102-.115.088-.188.224-.2.37-.007.114.023.225.083.317l.04.053" fill="#206FAC"/><path d="M5.93 102.977h2.435c.276 0 .5-.228.5-.508v-2.162c0-.983-1.23-1.72-1.478-1.857-.15-.082-.33-.082-.48 0-.247.14-1.476.875-1.476 1.858v2.16c0 .28.224.51.5.51zm.5-2.67c0-.206.344-.555.718-.814.375.26.718.608.718.815v1.653H6.43v-1.652zm-.5 7.622h2.435c.276 0 .5-.23.5-.51v-2.16c0-.983-1.23-1.72-1.478-1.857-.15-.083-.33-.083-.48 0-.247.137-1.476.874-1.476 1.857v2.16c0 .28.224.51.5.51zm.5-2.67c0-.208.344-.557.718-.815.375.26.718.608.718.815v1.653H6.43v-1.653zm-3.503-2.283H4.3c.277 0 .5-.228.5-.508v-2.162c0-.92-.752-1.69-.838-1.776-.194-.192-.502-.192-.696 0-.086.084-.838.855-.838 1.776v2.16c0 .28.223.51.5.51zm.5-2.67c0-.193.082-.4.187-.582.104.18.188.39.188.583v1.653h-.376v-1.652zm-.5 7.622H4.3c.277 0 .5-.23.5-.51v-2.16c0-.92-.752-1.69-.838-1.776-.194-.192-.502-.192-.696 0-.086.085-.838.856-.838 1.776v2.16c0 .28.223.51.5.51zm.5-2.67c0-.194.082-.402.187-.583.104.182.188.39.188.583v1.653h-.376v-1.653zm20.042-2.283h2.434c.276 0 .5-.228.5-.508v-2.162c0-.983-1.23-1.72-1.478-1.857-.15-.082-.33-.082-.48 0-.247.14-1.476.875-1.476 1.858v2.16c0 .28.224.51.5.51zm.498-2.67c0-.207.344-.555.718-.814.375.26.718.608.718.815v1.653h-1.437v-1.652zm-.5 7.622h2.436c.276 0 .5-.23.5-.51v-2.16c0-.983-1.23-1.72-1.478-1.857-.15-.083-.33-.083-.48 0-.247.137-1.476.874-1.476 1.857v2.16c0 .28.224.51.5.51zm.5-2.67c0-.208.343-.557.718-.815.352.246.72.6.72.815v1.653h-1.438v-1.653zm3.565-2.283h1.374c.276 0 .5-.228.5-.508v-2.162c0-.92-.754-1.69-.84-1.776-.193-.192-.5-.192-.695 0-.086.084-.838.855-.838 1.776v2.16c0 .28.223.51.5.51zm.5-2.67c0-.193.082-.4.187-.582.104.18.188.39.188.583v1.653h-.376v-1.652zm-.5 7.622h1.374c.276 0 .5-.23.5-.51v-2.16c0-.92-.754-1.69-.84-1.776-.193-.192-.5-.192-.695 0-.086.085-.838.856-.838 1.776v2.16c0 .28.223.51.5.51zm3.43-17.442c-.552 0-.998.455-.998 1.016v5.202h-.437v-2.588c0-.28-.224-.508-.5-.508-.275 0-.498.228-.498.508v2.588h-1.588c.21-.33.366-.754.366-1.292 0-1.23-.88-1.926-1.588-2.485-.307-.244-.6-.476-.78-.713v-.8c.102-.12.166-.275.166-.446 0-.373-.3-.677-.666-.677-.367 0-.666.304-.666.678 0 .173.063.328.167.448v.798c-.18.238-.472.47-.78.713-.164.13-.338.266-.507.416.016-.18.027-.365.027-.558 0-2.86-2.075-4.5-3.743-5.817-.856-.675-1.664-1.314-2.088-2-.056-.097-.128-.186-.214-.262l-.154-.11v-1.74c.24-.164.4-.444.4-.76 0-.506-.403-.918-.9-.918s-.9.412-.9.917c0 .317.16.597.402.762v1.737l-.025.014c-.153.096-.27.225-.35.373-.428.68-1.232 1.316-2.082 1.99-1.668 1.316-3.743 2.957-3.743 5.816 0 .192.01.376.027.557-.17-.15-.343-.287-.507-.417-.307-.243-.6-.475-.78-.712v-.8c.102-.12.166-.274.166-.446 0-.374-.298-.678-.665-.678-.367 0-.666.304-.666.678 0 .17.062.327.166.447v.798c-.18.237-.473.47-.78.712-.71.56-1.59 1.255-1.59 2.485 0 .537.157.963.367 1.292H3.435V94.12c0-.28-.223-.51-.5-.51s-.498.23-.498.51v2.587H2v-5.202c0-.56-.447-1.016-.998-1.016-.552 0-.998.454-.998 1.015v18.293c0 .56.447 1.016.998 1.016l9.75.003h5.326l14.885.004c.264 0 .518-.105.706-.296.186-.19.292-.45.292-.72v-18.3c0-.56-.447-1.015-.998-1.015zm-2.93 14.772c0-.194.082-.402.187-.583.104.182.188.39.188.583v1.653h-.376v-1.653zM6.856 93.732c.228-.18.46-.365.668-.567.206.203.44.387.667.567.645.51 1.202.95 1.202 1.683 0 .75-.534 1.13-.738 1.25H6.394c-.207-.122-.74-.503-.74-1.25 0-.733.558-1.173 1.203-1.683zm16.916 0c.228-.18.46-.365.667-.567.206.203.44.387.667.567.645.51 1.202.95 1.202 1.683 0 .75-.535 1.13-.74 1.25h-2.26c-.208-.122-.74-.503-.74-1.25 0-.733.557-1.173 1.202-1.683zm-11.996 3.99v-.778h8.412v11.84h-.7v-7.114c0-1.52-1.458-2.895-2.423-3.64l-.422-.308-.407-.27c-.157-.094-.353-.094-.51 0l-.408.27-.422.31c-.965.743-2.423 2.117-2.423 3.638v7.114h-.7V97.722zm4.206 5.84c-.407 0-.74.328-.76.738v4.428h-1.748v-5.69c0-.874 1.456-1.96 2.507-2.528.265.146.737.423 1.207.782.84.64 1.303 1.262 1.303 1.745v5.69h-1.75V104.3c-.018-.41-.35-.737-.76-.737zm.22-4.08c-.14-.07-.3-.07-.438 0-.193.095-1.245.635-2.108 1.43.448-.993 1.625-1.95 2.328-2.422.704.473 1.88 1.428 2.328 2.424-.863-.796-1.917-1.337-2.11-1.433zm13.763 9.307l-7.78-.003V97.723h7.78v11.067zM9.78 97.72v11.06H2.003V97.72h7.78zm14.66-7.09c.15 0 .273.1.316.236-.086-.072-.195-.116-.315-.116s-.228.044-.314.117c.043-.138.167-.238.315-.238zm-8.457-8.635c.054 0 .098.045.098.1 0 .055-.043.1-.097.1-.054 0-.098-.045-.098-.1 0-.055.044-.1.098-.1zm-1.73 6.58c.597-.473 1.207-.956 1.73-1.492.523.536 1.133 1.02 1.73 1.49 1.528 1.21 2.97 2.35 2.97 4.213 0 .913-.308 1.61-.69 2.124h-8.02c-.38-.514-.69-1.21-.69-2.124 0-1.864 1.442-3.004 2.97-4.212zm-6.728 2.056c.148 0 .273.1.315.237-.086-.072-.195-.117-.315-.117s-.23.044-.315.117c.043-.137.167-.237.315-.237zm.167-5.12c.276 0 .5-.23.5-.51s-.224-.508-.5-.508-.5.228-.5.51c0 .28.224.507.5.507m13.56-.962l.415.23.227.424c.087.163.255.264.438.264.182 0 .35-.1.438-.264l.227-.423.415-.23c.16-.09.26-.26.26-.445 0-.186-.1-.357-.26-.446l-.415-.233-.227-.422c-.087-.163-.255-.264-.438-.264-.182 0-.35.102-.438.265l-.227.422-.415.232c-.16.088-.26.26-.26.445s.1.357.26.446m5.435 2.593l.024.026c.093.093.22.147.353.147.107 0 .212-.035.3-.1.115-.09.188-.225.2-.372.007-.112-.023-.224-.082-.316l-.04-.055-.024-.026c-.093-.095-.22-.15-.352-.15-.107 0-.212.037-.3.102-.115.088-.188.224-.2.37-.007.114.023.225.083.317l.04.053" fill="#fff"/><path d="M5.93 62.977h2.435c.276 0 .5-.228.5-.508v-2.162c0-.983-1.23-1.72-1.478-1.857-.15-.082-.33-.082-.48 0-.247.14-1.476.875-1.476 1.858v2.16c0 .28.224.51.5.51zm.5-2.67c0-.206.344-.555.718-.814.375.26.718.608.718.815v1.653H6.43V60.31zm-.5 7.622h2.435c.276 0 .5-.23.5-.51v-2.16c0-.983-1.23-1.72-1.478-1.857-.15-.083-.33-.083-.48 0-.247.137-1.476.874-1.476 1.857v2.16c0 .28.224.51.5.51zm.5-2.67c0-.208.344-.557.718-.815.375.26.718.608.718.815v1.653H6.43V65.26zm-3.503-2.283H4.3c.277 0 .5-.228.5-.508v-2.162c0-.92-.752-1.69-.838-1.776-.194-.192-.502-.192-.696 0-.086.084-.838.855-.838 1.776v2.16c0 .28.223.51.5.51zm.5-2.67c0-.193.082-.4.187-.582.104.18.188.39.188.583v1.653h-.376V60.31zm-.5 7.622H4.3c.277 0 .5-.23.5-.51v-2.16c0-.92-.752-1.69-.838-1.776-.194-.192-.502-.192-.696 0-.086.085-.838.856-.838 1.776v2.16c0 .28.223.51.5.51zm.5-2.67c0-.194.082-.402.187-.583.104.182.188.39.188.583v1.653h-.376V65.26zm20.042-2.283h2.434c.276 0 .5-.228.5-.508v-2.162c0-.983-1.23-1.72-1.478-1.857-.15-.082-.33-.082-.48 0-.247.14-1.476.875-1.476 1.858v2.16c0 .28.224.51.5.51zm.498-2.67c0-.207.344-.555.718-.814.375.26.718.608.718.815v1.653h-1.437V60.31zm-.5 7.622h2.436c.276 0 .5-.23.5-.51v-2.16c0-.983-1.23-1.72-1.478-1.857-.15-.083-.33-.083-.48 0-.247.137-1.476.874-1.476 1.857v2.16c0 .28.224.51.5.51zm.5-2.67c0-.208.343-.557.718-.815.352.246.72.6.72.815v1.653h-1.438V65.26zm3.565-2.283h1.374c.276 0 .5-.228.5-.508v-2.162c0-.92-.754-1.69-.84-1.776-.193-.192-.5-.192-.695 0-.086.084-.838.855-.838 1.776v2.16c0 .28.223.51.5.51zm.5-2.67c0-.193.082-.4.187-.582.104.18.188.39.188.583v1.653h-.376V60.31zm-.5 7.622h1.374c.276 0 .5-.23.5-.51v-2.16c0-.92-.754-1.69-.84-1.776-.193-.192-.5-.192-.695 0-.086.085-.838.856-.838 1.776v2.16c0 .28.223.51.5.51zm3.43-17.442c-.552 0-.998.455-.998 1.016v5.202h-.437v-2.588c0-.28-.224-.508-.5-.508-.275 0-.498.228-.498.508v2.588h-1.588c.21-.33.366-.754.366-1.292 0-1.23-.88-1.926-1.588-2.485-.307-.244-.6-.476-.78-.713v-.8c.102-.12.166-.275.166-.446 0-.373-.3-.677-.666-.677-.367 0-.666.304-.666.678 0 .173.063.328.167.448v.798c-.18.238-.472.47-.78.713-.164.13-.338.266-.507.416.016-.18.027-.365.027-.558 0-2.86-2.075-4.5-3.743-5.817-.856-.675-1.664-1.314-2.088-2-.056-.097-.128-.186-.214-.262l-.154-.11v-1.74c.24-.164.4-.444.4-.76 0-.506-.403-.918-.9-.918s-.9.412-.9.917c0 .317.16.597.402.762v1.737l-.025.014c-.153.096-.27.225-.35.373-.428.68-1.232 1.316-2.082 1.99-1.668 1.316-3.743 2.957-3.743 5.816 0 .192.01.376.027.557-.17-.15-.343-.287-.507-.417-.307-.243-.6-.475-.78-.712v-.8c.102-.12.166-.274.166-.446 0-.374-.298-.678-.665-.678-.367 0-.666.304-.666.678 0 .17.062.327.166.447v.798c-.18.237-.473.47-.78.712-.71.56-1.59 1.255-1.59 2.485 0 .537.157.963.367 1.292H3.435V54.12c0-.28-.223-.51-.5-.51s-.498.23-.498.51v2.587H2v-5.202c0-.56-.447-1.016-.998-1.016-.552 0-.998.454-.998 1.015v18.293c0 .56.447 1.016.998 1.016l9.75.003h5.326l14.885.004c.264 0 .518-.105.706-.296.186-.19.292-.45.292-.72v-18.3c0-.56-.447-1.015-.998-1.015zm-2.93 14.772c0-.194.082-.402.187-.583.104.182.188.39.188.583v1.653h-.376V65.26zM6.856 53.732c.228-.18.46-.365.668-.567.206.203.44.387.667.567.645.51 1.202.95 1.202 1.683 0 .75-.534 1.13-.738 1.25H6.394c-.207-.122-.74-.503-.74-1.25 0-.733.558-1.173 1.203-1.683zm16.916 0c.228-.18.46-.365.667-.567.206.203.44.387.667.567.645.51 1.202.95 1.202 1.683 0 .75-.535 1.13-.74 1.25h-2.26c-.208-.122-.74-.503-.74-1.25 0-.733.557-1.173 1.202-1.683zm-11.996 3.99v-.778h8.412v11.84h-.7V61.67c0-1.52-1.458-2.895-2.423-3.64l-.422-.308-.407-.27c-.157-.094-.353-.094-.51 0l-.408.27-.422.31c-.965.743-2.423 2.117-2.423 3.638v7.114h-.7V57.722zm4.206 5.84c-.407 0-.74.328-.76.738v4.428h-1.748v-5.69c0-.874 1.456-1.96 2.507-2.528.265.146.737.423 1.207.782.84.64 1.303 1.262 1.303 1.745v5.69h-1.75V64.3c-.018-.41-.35-.737-.76-.737zm.22-4.08c-.14-.07-.3-.07-.438 0-.193.095-1.245.635-2.108 1.43.448-.993 1.625-1.95 2.328-2.422.704.473 1.88 1.428 2.328 2.424-.863-.796-1.917-1.337-2.11-1.433zm13.763 9.307l-7.78-.003V57.723h7.78V68.79zM9.78 57.72v11.06H2.003V57.72h7.78zm14.66-7.09c.15 0 .273.1.316.236-.086-.072-.195-.116-.315-.116s-.228.044-.314.117c.043-.138.167-.238.315-.238zm-8.457-8.635c.054 0 .098.045.098.1 0 .055-.043.1-.097.1-.054 0-.098-.045-.098-.1 0-.055.044-.1.098-.1zm-1.73 6.58c.597-.473 1.207-.956 1.73-1.492.523.536 1.133 1.02 1.73 1.49 1.528 1.21 2.97 2.35 2.97 4.213 0 .913-.308 1.61-.69 2.124h-8.02c-.38-.514-.69-1.21-.69-2.124 0-1.864 1.442-3.004 2.97-4.212zm-6.728 2.056c.148 0 .273.1.315.237-.086-.072-.195-.117-.315-.117s-.23.044-.315.117c.043-.137.167-.237.315-.237zm.167-5.12c.276 0 .5-.23.5-.51s-.224-.508-.5-.508-.5.228-.5.51c0 .28.224.507.5.507m13.56-.962l.415.23.227.424c.087.163.255.264.438.264.182 0 .35-.1.438-.264l.227-.423.415-.23c.16-.09.26-.26.26-.445 0-.186-.1-.357-.26-.446l-.415-.233-.227-.422c-.087-.163-.255-.264-.438-.264-.182 0-.35.102-.438.265l-.227.422-.415.232c-.16.088-.26.26-.26.445s.1.357.26.446m5.435 2.593l.024.026c.093.093.22.147.353.147.107 0 .212-.035.3-.1.115-.09.188-.225.2-.372.007-.112-.023-.224-.082-.316l-.04-.055-.024-.026c-.093-.095-.22-.15-.352-.15-.107 0-.212.037-.3.102-.115.088-.188.224-.2.37-.007.114.023.225.083.317l.04.053" fill="#67737B"/><path d="M5.93 22.977h2.435c.276 0 .5-.228.5-.508v-2.162c0-.983-1.23-1.72-1.478-1.857-.15-.082-.33-.082-.48 0-.247.14-1.476.875-1.476 1.858v2.16c0 .28.224.51.5.51zm.5-2.67c0-.206.344-.555.718-.814.375.26.718.608.718.815v1.653H6.43V20.31zm-.5 7.622h2.435c.276 0 .5-.23.5-.51v-2.16c0-.983-1.23-1.72-1.478-1.857-.15-.083-.33-.083-.48 0-.247.137-1.476.874-1.476 1.857v2.16c0 .28.224.51.5.51zm.5-2.67c0-.208.344-.557.718-.815.375.26.718.608.718.815v1.653H6.43V25.26zm-3.503-2.283H4.3c.277 0 .5-.228.5-.508v-2.162c0-.92-.752-1.69-.838-1.776-.194-.192-.502-.192-.696 0-.086.084-.838.855-.838 1.776v2.16c0 .28.223.51.5.51zm.5-2.67c0-.193.082-.4.187-.582.104.18.188.39.188.583v1.653h-.376V20.31zm-.5 7.622H4.3c.277 0 .5-.23.5-.51v-2.16c0-.92-.752-1.69-.838-1.776-.194-.192-.502-.192-.696 0-.086.085-.838.856-.838 1.776v2.16c0 .28.223.51.5.51zm.5-2.67c0-.194.082-.402.187-.583.104.182.188.39.188.583v1.653h-.376V25.26zm20.042-2.283h2.434c.276 0 .5-.228.5-.508v-2.162c0-.983-1.23-1.72-1.478-1.857-.15-.082-.33-.082-.48 0-.247.14-1.476.875-1.476 1.858v2.16c0 .28.224.51.5.51zm.498-2.67c0-.207.344-.555.718-.814.375.26.718.608.718.815v1.653h-1.437V20.31zm-.5 7.622h2.436c.276 0 .5-.23.5-.51v-2.16c0-.983-1.23-1.72-1.478-1.857-.15-.083-.33-.083-.48 0-.247.137-1.476.874-1.476 1.857v2.16c0 .28.224.51.5.51zm.5-2.67c0-.208.343-.557.718-.815.352.246.72.6.72.815v1.653h-1.438V25.26zm3.565-2.283h1.374c.276 0 .5-.228.5-.508v-2.162c0-.92-.754-1.69-.84-1.776-.193-.192-.5-.192-.695 0-.086.084-.838.855-.838 1.776v2.16c0 .28.223.51.5.51zm.5-2.67c0-.193.082-.4.187-.582.104.18.188.39.188.583v1.653h-.376V20.31zm-.5 7.622h1.374c.276 0 .5-.23.5-.51v-2.16c0-.92-.754-1.69-.84-1.776-.193-.192-.5-.192-.695 0-.086.085-.838.856-.838 1.776v2.16c0 .28.223.51.5.51zm3.43-17.442c-.552 0-.998.455-.998 1.016v5.202h-.437v-2.588c0-.28-.224-.508-.5-.508-.275 0-.498.228-.498.508v2.588h-1.588c.21-.33.366-.754.366-1.292 0-1.23-.88-1.926-1.588-2.485-.307-.244-.6-.476-.78-.713v-.8c.102-.12.166-.275.166-.446 0-.373-.3-.677-.666-.677-.367 0-.666.304-.666.678 0 .173.063.328.167.448v.798c-.18.238-.472.47-.78.713-.164.13-.338.266-.507.416.016-.18.027-.365.027-.558 0-2.86-2.075-4.5-3.743-5.817-.856-.675-1.664-1.314-2.088-2-.056-.097-.128-.186-.214-.262l-.154-.11v-1.74c.24-.164.4-.444.4-.76 0-.506-.403-.918-.9-.918s-.9.412-.9.917c0 .317.16.597.402.762v1.737l-.025.014c-.153.096-.27.225-.35.373-.428.68-1.232 1.316-2.082 1.99-1.668 1.316-3.743 2.957-3.743 5.816 0 .192.01.376.027.557-.17-.15-.343-.287-.507-.417-.307-.243-.6-.475-.78-.712v-.8c.102-.12.166-.274.166-.446 0-.374-.298-.678-.665-.678-.367 0-.666.304-.666.678 0 .17.062.327.166.447v.798c-.18.237-.473.47-.78.712-.71.56-1.59 1.255-1.59 2.485 0 .537.157.963.367 1.292H3.435V14.12c0-.28-.223-.51-.5-.51s-.498.23-.498.51v2.587H2v-5.202c0-.56-.447-1.016-.998-1.016-.552 0-.998.454-.998 1.015v18.293c0 .56.447 1.016.998 1.016l9.75.003h5.326l14.885.004c.264 0 .518-.105.706-.296.186-.19.292-.45.292-.72v-18.3c0-.56-.447-1.015-.998-1.015zm-2.93 14.772c0-.194.082-.402.187-.583.104.182.188.39.188.583v1.653h-.376V25.26zM6.856 13.732c.228-.18.46-.365.668-.567.206.203.44.387.667.567.645.51 1.202.95 1.202 1.683 0 .75-.534 1.13-.738 1.25H6.394c-.207-.122-.74-.503-.74-1.25 0-.733.558-1.173 1.203-1.683zm16.916 0c.228-.18.46-.365.667-.567.206.203.44.387.667.567.645.51 1.202.95 1.202 1.683 0 .75-.535 1.13-.74 1.25h-2.26c-.208-.122-.74-.503-.74-1.25 0-.733.557-1.173 1.202-1.683zm-11.996 3.99v-.778h8.412v11.84h-.7V21.67c0-1.52-1.458-2.895-2.423-3.64l-.422-.308-.407-.27c-.157-.094-.353-.094-.51 0l-.408.27-.422.31c-.965.743-2.423 2.117-2.423 3.638v7.114h-.7V17.722zm4.206 5.84c-.407 0-.74.328-.76.738v4.428h-1.748v-5.69c0-.874 1.456-1.96 2.507-2.528.265.146.737.423 1.207.782.84.64 1.303 1.262 1.303 1.745v5.69h-1.75V24.3c-.018-.41-.35-.737-.76-.737zm.22-4.08c-.14-.07-.3-.07-.438 0-.193.095-1.245.635-2.108 1.43.448-.993 1.625-1.95 2.328-2.422.704.473 1.88 1.428 2.328 2.424-.863-.796-1.917-1.337-2.11-1.433zm13.763 9.307l-7.78-.003V17.723h7.78V28.79zM9.78 17.72v11.06H2.003V17.72h7.78zm14.66-7.09c.15 0 .273.1.316.236-.086-.072-.195-.116-.315-.116s-.228.044-.314.117c.043-.138.167-.238.315-.238zm-8.457-8.635c.054 0 .098.045.098.1 0 .055-.043.1-.097.1-.054 0-.098-.045-.098-.1 0-.055.044-.1.098-.1zm-1.73 6.58c.597-.473 1.207-.956 1.73-1.492.523.536 1.133 1.02 1.73 1.49 1.528 1.21 2.97 2.35 2.97 4.213 0 .913-.308 1.61-.69 2.124h-8.02c-.38-.514-.69-1.21-.69-2.124 0-1.864 1.442-3.004 2.97-4.212zm-6.728 2.056c.148 0 .273.1.315.237-.086-.072-.195-.117-.315-.117s-.23.044-.315.117c.043-.137.167-.237.315-.237zm.167-5.12c.276 0 .5-.23.5-.51s-.224-.508-.5-.508-.5.228-.5.51c0 .28.224.507.5.507m13.56-.962l.415.23.227.424c.087.163.255.264.438.264.182 0 .35-.1.438-.264l.227-.423.415-.23c.16-.09.26-.26.26-.445 0-.186-.1-.357-.26-.446l-.415-.233-.227-.422c-.087-.163-.255-.264-.438-.264-.182 0-.35.102-.438.265l-.227.422-.415.232c-.16.088-.26.26-.26.445s.1.357.26.446m5.435 2.593l.024.026c.093.093.22.147.353.147.107 0 .212-.035.3-.1.115-.09.188-.225.2-.372.007-.112-.023-.224-.082-.316l-.04-.055-.024-.026c-.093-.095-.22-.15-.352-.15-.107 0-.212.037-.3.102-.115.088-.188.224-.2.37-.007.114.023.225.083.317l.04.053" fill="#3A434E"/></g></svg>