<svg width="32" height="232" viewBox="0 0 32 232" xmlns="http://www.w3.org/2000/svg" xmlns:sketch="http://www.bohemiancoding.com/sketch/ns"><title>india</title><desc>Created with Sketch.</desc><g sketch:type="MSPage" fill="none"><g sketch:type="MSShapeGroup"><path d="M5.93 142.977h2.435c.276 0 .499-.228.499-.508v-2.161c0-.983-1.23-1.719-1.477-1.857-.15-.083-.33-.083-.48 0-.247.138-1.476.874-1.476 1.857v2.161c0 .28.223.508.499.508zm.5-2.669c0-.207.344-.556.718-.815.375.26.718.608.718.815v1.653h-1.437v-1.653zm-.5 7.621h2.435c.276 0 .499-.228.499-.508v-2.161c0-.983-1.23-1.72-1.477-1.857-.15-.083-.33-.083-.48 0-.247.137-1.476.874-1.476 1.857v2.161c0 .28.223.508.499.508zm.5-2.669c0-.208.344-.557.718-.815.375.259.718.608.718.815v1.653h-1.437v-1.653zm-3.503-2.283h1.374c.276 0 .499-.228.499-.508v-2.161c0-.92-.752-1.691-.838-1.776-.194-.192-.502-.192-.696 0-.086.084-.838.855-.838 1.776v2.161c0 .28.223.508.499.508zm.499-2.669c0-.194.083-.402.188-.583.104.181.188.389.188.583v1.653h-.376v-1.653zm-.499 7.621h1.374c.276 0 .499-.228.499-.508v-2.161c0-.92-.752-1.691-.838-1.776-.194-.192-.502-.192-.696 0-.086.085-.838.856-.838 1.776v2.161c0 .28.223.508.499.508zm.499-2.669c0-.194.083-.402.188-.583.104.182.188.389.188.583v1.653h-.376v-1.653zm20.043-2.283h2.435c.276 0 .499-.228.499-.508v-2.161c0-.983-1.23-1.719-1.477-1.857-.15-.083-.33-.083-.48 0-.247.138-1.476.874-1.476 1.857v2.161c0 .28.224.508.499.508zm.499-2.669c0-.208.344-.556.718-.815.375.26.718.608.718.815v1.653h-1.437v-1.653zm-.499 7.621h2.435c.276 0 .499-.228.499-.508v-2.161c0-.983-1.23-1.72-1.477-1.857-.15-.083-.33-.083-.48 0-.247.137-1.476.874-1.476 1.857v2.161c0 .28.224.508.499.508zm.499-2.669c0-.208.343-.557.718-.815.352.246.719.599.719.815v1.653h-1.437v-1.653zm3.565-2.283h1.374c.276 0 .499-.228.499-.508v-2.161c0-.92-.753-1.691-.838-1.776-.194-.192-.502-.192-.696 0-.086.084-.838.855-.838 1.776v2.161c0 .28.223.508.499.508zm.499-2.669c0-.194.083-.402.188-.583.104.181.188.389.188.583v1.653h-.376v-1.653zm-.499 7.621h1.374c.276 0 .499-.228.499-.508v-2.161c0-.92-.753-1.691-.838-1.776-.194-.192-.502-.192-.696 0-.086.085-.838.856-.838 1.776v2.161c0 .28.223.508.499.508zm3.43-17.441c-.552 0-.998.455-.998 1.016v5.202h-.437v-2.588c0-.28-.224-.508-.499-.508-.276 0-.499.228-.499.508v2.588h-1.588c.209-.329.366-.754.366-1.292 0-1.23-.881-1.926-1.588-2.485-.307-.243-.6-.475-.781-.712v-.799c.103-.12.167-.276.167-.447 0-.374-.299-.678-.666-.678-.367 0-.666.304-.666.678 0 .172.063.327.167.447v.798c-.181.238-.473.469-.781.713-.164.13-.338.267-.507.417.016-.18.027-.365.027-.558 0-2.859-2.075-4.499-3.743-5.817-.856-.676-1.664-1.315-2.088-2-.055-.098-.127-.187-.213-.263l-.154-.111v-1.738c.241-.165.401-.445.401-.762 0-.505-.404-.917-.9-.917s-.9.412-.9.917c0 .317.159.597.401.762v1.738l-.025.014c-.152.095-.27.224-.35.372-.427.68-1.231 1.316-2.081 1.989-1.668 1.317-3.743 2.958-3.743 5.817 0 .193.01.377.027.558-.17-.15-.343-.287-.507-.417-.307-.243-.6-.475-.781-.712v-.799c.103-.12.167-.275.167-.447 0-.374-.299-.678-.666-.678-.367 0-.666.304-.666.678 0 .171.063.327.167.447v.799c-.181.237-.473.469-.781.712-.708.559-1.588 1.255-1.588 2.485 0 .537.156.963.366 1.292h-1.588v-2.588c0-.28-.223-.508-.499-.508s-.499.228-.499.508v2.588h-.437v-5.202c0-.561-.447-1.016-.998-1.016-.552 0-.998.455-.998 1.016v18.293c0 .561.447 1.016.998 1.016l9.749.003.027.001h5.3l14.885.003c.264 0 .518-.106.706-.297.187-.191.293-.449.293-.719v-18.3c0-.561-.447-1.016-.998-1.016zm-2.931 14.772c0-.194.083-.402.188-.583.104.182.188.389.188.583v1.653h-.376v-1.653zm-21.175-11.528c.228-.181.461-.365.668-.567.206.203.439.387.667.567.645.51 1.202.95 1.202 1.683 0 .749-.534 1.131-.738 1.249h-2.262c-.207-.121-.739-.502-.739-1.249 0-.733.557-1.173 1.202-1.683zm16.916 0c.228-.181.461-.365.667-.567.206.203.439.387.667.567.645.51 1.202.95 1.202 1.683 0 .749-.534 1.131-.739 1.249h-2.261c-.207-.121-.739-.502-.739-1.249 0-.733.557-1.173 1.202-1.683zm-11.996 3.99v-.778h8.412v11.84h-.699v-7.114c0-1.521-1.458-2.895-2.423-3.639l-.422-.309-.407-.269c-.157-.095-.353-.095-.51 0l-.408.269-.422.309c-.965.744-2.423 2.118-2.423 3.639v7.114h-.699v-11.062zm4.206 5.841c-.407 0-.741.327-.759.737v4.428h-1.749v-5.691c0-.873 1.456-1.959 2.507-2.527.265.146.737.423 1.207.782.841.641 1.304 1.262 1.304 1.745v5.691h-1.749v-4.428c-.019-.41-.352-.737-.76-.737zm.219-4.082c-.138-.068-.299-.068-.437 0-.193.096-1.245.636-2.108 1.432.448-.994 1.625-1.95 2.328-2.423.704.473 1.881 1.428 2.328 2.424-.863-.796-1.917-1.337-2.11-1.433zm13.764 9.308l-7.78-.002v-11.064h7.78v11.067zm-20.185-11.067v11.061l-7.779-.002v-11.059h7.779zm14.66-7.09c.148 0 .272.1.315.236-.086-.072-.195-.116-.315-.116-.121 0-.229.044-.315.117.043-.137.167-.237.315-.237zm-8.458-8.635c.054 0 .098.045.098.1 0 .055-.044.1-.098.1-.054 0-.098-.045-.098-.1 0-.055.044-.1.098-.1zm-1.73 6.579c.597-.472 1.207-.955 1.73-1.491.523.536 1.133 1.019 1.73 1.491 1.528 1.208 2.971 2.349 2.971 4.212 0 .913-.309 1.61-.69 2.124h-8.022c-.38-.514-.69-1.211-.69-2.124 0-1.864 1.443-3.004 2.971-4.212zm-6.728 2.057c.148 0 .273.1.315.237-.086-.072-.195-.117-.315-.117s-.229.044-.315.117c.043-.137.167-.237.315-.237zm.167-5.121c.276 0 .5-.228.5-.508 0-.281-.224-.509-.5-.509s-.5.228-.5.509c0 .28.224.508.5.508m13.56-.962l.415.231.227.423c.087.163.255.264.438.264.182 0 .351-.101.438-.264l.227-.423.415-.231c.16-.089.26-.26.26-.445 0-.186-.1-.357-.26-.446l-.415-.232-.227-.422c-.087-.163-.255-.264-.438-.264-.182 0-.351.101-.438.264l-.227.422-.415.232c-.16.089-.26.26-.26.446s.1.357.26.446m5.435 2.592l.024.026c.092.094.219.148.352.148.107 0 .212-.035.299-.1.116-.089.189-.225.2-.372.008-.112-.022-.224-.081-.316l-.04-.054-.025-.026c-.093-.094-.219-.148-.352-.148-.107 0-.212.036-.299.101-.116.088-.189.224-.2.371-.008.113.022.224.082.316l.04.054" fill="#206FAC"/><path d="M5.93 102.977h2.435c.276 0 .499-.228.499-.508v-2.161c0-.983-1.23-1.719-1.477-1.857-.15-.083-.33-.083-.48 0-.247.138-1.476.874-1.476 1.857v2.161c0 .28.223.508.499.508zm.5-2.669c0-.207.344-.556.718-.815.375.26.718.608.718.815v1.653h-1.437v-1.653zm-.5 7.621h2.435c.276 0 .499-.228.499-.508v-2.161c0-.983-1.23-1.72-1.477-1.857-.15-.083-.33-.083-.48 0-.247.137-1.476.874-1.476 1.857v2.161c0 .28.223.508.499.508zm.5-2.669c0-.208.344-.557.718-.815.375.259.718.608.718.815v1.653h-1.437v-1.653zm-3.503-2.283h1.374c.276 0 .499-.228.499-.508v-2.161c0-.92-.752-1.691-.838-1.776-.194-.192-.502-.192-.696 0-.086.084-.838.855-.838 1.776v2.161c0 .28.223.508.499.508zm.499-2.669c0-.194.083-.402.188-.583.104.181.188.389.188.583v1.653h-.376v-1.653zm-.499 7.621h1.374c.276 0 .499-.228.499-.508v-2.161c0-.92-.752-1.691-.838-1.776-.194-.192-.502-.192-.696 0-.086.085-.838.856-.838 1.776v2.161c0 .28.223.508.499.508zm.499-2.669c0-.194.083-.402.188-.583.104.182.188.389.188.583v1.653h-.376v-1.653zm20.043-2.283h2.435c.276 0 .499-.228.499-.508v-2.161c0-.983-1.23-1.719-1.477-1.857-.15-.083-.33-.083-.48 0-.247.138-1.476.874-1.476 1.857v2.161c0 .28.224.508.499.508zm.499-2.669c0-.208.344-.556.718-.815.375.26.718.608.718.815v1.653h-1.437v-1.653zm-.499 7.621h2.435c.276 0 .499-.228.499-.508v-2.161c0-.983-1.23-1.72-1.477-1.857-.15-.083-.33-.083-.48 0-.247.137-1.476.874-1.476 1.857v2.161c0 .28.224.508.499.508zm.499-2.669c0-.208.343-.557.718-.815.352.246.719.599.719.815v1.653h-1.437v-1.653zm3.565-2.283h1.374c.276 0 .499-.228.499-.508v-2.161c0-.92-.753-1.691-.838-1.776-.194-.192-.502-.192-.696 0-.086.084-.838.855-.838 1.776v2.161c0 .28.223.508.499.508zm.499-2.669c0-.194.083-.402.188-.583.104.181.188.389.188.583v1.653h-.376v-1.653zm-.499 7.621h1.374c.276 0 .499-.228.499-.508v-2.161c0-.92-.753-1.691-.838-1.776-.194-.192-.502-.192-.696 0-.086.085-.838.856-.838 1.776v2.161c0 .28.223.508.499.508zm3.43-17.441c-.552 0-.998.455-.998 1.016v5.202h-.437v-2.588c0-.28-.224-.508-.499-.508-.276 0-.499.228-.499.508v2.588h-1.588c.209-.329.366-.754.366-1.292 0-1.23-.881-1.926-1.588-2.485-.307-.243-.6-.475-.781-.712v-.799c.103-.12.167-.276.167-.447 0-.374-.299-.678-.666-.678-.367 0-.666.304-.666.678 0 .172.063.327.167.447v.798c-.181.238-.473.469-.781.713-.164.13-.338.267-.507.417.016-.18.027-.365.027-.558 0-2.859-2.075-4.499-3.743-5.817-.856-.676-1.664-1.315-2.088-2-.055-.098-.127-.187-.213-.263l-.154-.111v-1.738c.241-.165.401-.445.401-.762 0-.505-.404-.917-.9-.917s-.9.412-.9.917c0 .317.159.597.401.762v1.738l-.025.014c-.152.095-.27.224-.35.372-.427.68-1.231 1.316-2.081 1.989-1.668 1.317-3.743 2.958-3.743 5.817 0 .193.01.377.027.558-.17-.15-.343-.287-.507-.417-.307-.243-.6-.475-.781-.712v-.799c.103-.12.167-.275.167-.447 0-.374-.299-.678-.666-.678-.367 0-.666.304-.666.678 0 .171.063.327.167.447v.799c-.181.237-.473.469-.781.712-.708.559-1.588 1.255-1.588 2.485 0 .537.156.963.366 1.292h-1.588v-2.588c0-.28-.223-.508-.499-.508s-.499.228-.499.508v2.588h-.437v-5.202c0-.561-.447-1.016-.998-1.016-.552 0-.998.455-.998 1.016v18.293c0 .561.447 1.016.998 1.016l9.749.003.027.001h5.3l14.885.003c.264 0 .518-.106.706-.297.187-.191.293-.449.293-.719v-18.3c0-.561-.447-1.016-.998-1.016zm-2.931 14.772c0-.194.083-.402.188-.583.104.182.188.389.188.583v1.653h-.376v-1.653zm-21.175-11.528c.228-.181.461-.365.668-.567.206.203.439.387.667.567.645.51 1.202.95 1.202 1.683 0 .749-.534 1.131-.738 1.249h-2.262c-.207-.121-.739-.502-.739-1.249 0-.733.557-1.173 1.202-1.683zm16.916 0c.228-.181.461-.365.667-.567.206.203.439.387.667.567.645.51 1.202.95 1.202 1.683 0 .749-.534 1.131-.739 1.249h-2.261c-.207-.121-.739-.502-.739-1.249 0-.733.557-1.173 1.202-1.683zm-11.996 3.99v-.778h8.412v11.84h-.699v-7.114c0-1.521-1.458-2.895-2.423-3.639l-.422-.309-.407-.269c-.157-.095-.353-.095-.51 0l-.408.269-.422.309c-.965.744-2.423 2.118-2.423 3.639v7.114h-.699v-11.062zm4.206 5.841c-.407 0-.741.327-.759.737v4.428h-1.749v-5.691c0-.873 1.456-1.959 2.507-2.527.265.146.737.423 1.207.782.841.641 1.304 1.262 1.304 1.745v5.691h-1.749v-4.428c-.019-.41-.352-.737-.76-.737zm.219-4.082c-.138-.068-.299-.068-.437 0-.193.096-1.245.636-2.108 1.432.448-.994 1.625-1.95 2.328-2.423.704.473 1.881 1.428 2.328 2.424-.863-.796-1.917-1.337-2.11-1.433zm13.764 9.308l-7.78-.002v-11.064h7.78v11.067zm-20.185-11.067v11.061l-7.779-.002v-11.059h7.779zm14.66-7.09c.148 0 .272.1.315.236-.086-.072-.195-.116-.315-.116-.121 0-.229.044-.315.117.043-.137.167-.237.315-.237zm-8.458-8.635c.054 0 .098.045.098.1 0 .055-.044.1-.098.1-.054 0-.098-.045-.098-.1 0-.055.044-.1.098-.1zm-1.73 6.579c.597-.472 1.207-.955 1.73-1.491.523.536 1.133 1.019 1.73 1.491 1.528 1.208 2.971 2.349 2.971 4.212 0 .913-.309 1.61-.69 2.124h-8.022c-.38-.514-.69-1.211-.69-2.124 0-1.864 1.443-3.004 2.971-4.212zm-6.728 2.057c.148 0 .273.1.315.237-.086-.072-.195-.117-.315-.117s-.229.044-.315.117c.043-.137.167-.237.315-.237zm.167-5.121c.276 0 .5-.228.5-.508 0-.281-.224-.509-.5-.509s-.5.228-.5.509c0 .28.224.508.5.508m13.56-.962l.415.231.227.423c.087.163.255.264.438.264.182 0 .351-.101.438-.264l.227-.423.415-.231c.16-.089.26-.26.26-.445 0-.186-.1-.357-.26-.446l-.415-.232-.227-.422c-.087-.163-.255-.264-.438-.264-.182 0-.351.101-.438.264l-.227.422-.415.232c-.16.089-.26.26-.26.446s.1.357.26.446m5.435 2.592l.024.026c.092.094.219.148.352.148.107 0 .212-.035.299-.1.116-.089.189-.225.2-.372.008-.112-.022-.224-.081-.316l-.04-.054-.025-.026c-.093-.094-.219-.148-.352-.148-.107 0-.212.036-.299.101-.116.088-.189.224-.2.371-.008.113.022.224.082.316l.04.054" fill="#fff"/><path d="M5.93 62.977h2.435c.276 0 .499-.228.499-.508v-2.161c0-.983-1.23-1.719-1.477-1.857-.15-.083-.33-.083-.48 0-.247.138-1.476.874-1.476 1.857v2.161c0 .28.223.508.499.508zm.5-2.669c0-.207.344-.556.718-.815.375.26.718.608.718.815v1.653h-1.437v-1.653zm-.5 7.621h2.435c.276 0 .499-.228.499-.508v-2.161c0-.983-1.23-1.72-1.477-1.857-.15-.083-.33-.083-.48 0-.247.137-1.476.874-1.476 1.857v2.161c0 .28.223.508.499.508zm.5-2.669c0-.208.344-.557.718-.815.375.259.718.608.718.815v1.653h-1.437v-1.653zm-3.503-2.283h1.374c.276 0 .499-.228.499-.508v-2.161c0-.92-.752-1.691-.838-1.776-.194-.192-.502-.192-.696 0-.086.084-.838.855-.838 1.776v2.161c0 .28.223.508.499.508zm.499-2.669c0-.194.083-.402.188-.583.104.181.188.389.188.583v1.653h-.376v-1.653zm-.499 7.621h1.374c.276 0 .499-.228.499-.508v-2.161c0-.92-.752-1.691-.838-1.776-.194-.192-.502-.192-.696 0-.086.085-.838.856-.838 1.776v2.161c0 .28.223.508.499.508zm.499-2.669c0-.194.083-.402.188-.583.104.182.188.389.188.583v1.653h-.376v-1.653zm20.043-2.283h2.435c.276 0 .499-.228.499-.508v-2.161c0-.983-1.23-1.719-1.477-1.857-.15-.083-.33-.083-.48 0-.247.138-1.476.874-1.476 1.857v2.161c0 .28.224.508.499.508zm.499-2.669c0-.208.344-.556.718-.815.375.26.718.608.718.815v1.653h-1.437v-1.653zm-.499 7.621h2.435c.276 0 .499-.228.499-.508v-2.161c0-.983-1.23-1.72-1.477-1.857-.15-.083-.33-.083-.48 0-.247.137-1.476.874-1.476 1.857v2.161c0 .28.224.508.499.508zm.499-2.669c0-.208.343-.557.718-.815.352.246.719.599.719.815v1.653h-1.437v-1.653zm3.565-2.283h1.374c.276 0 .499-.228.499-.508v-2.161c0-.92-.753-1.691-.838-1.776-.194-.192-.502-.192-.696 0-.086.084-.838.855-.838 1.776v2.161c0 .28.223.508.499.508zm.499-2.669c0-.194.083-.402.188-.583.104.181.188.389.188.583v1.653h-.376v-1.653zm-.499 7.621h1.374c.276 0 .499-.228.499-.508v-2.161c0-.92-.753-1.691-.838-1.776-.194-.192-.502-.192-.696 0-.086.085-.838.856-.838 1.776v2.161c0 .28.223.508.499.508zm3.43-17.441c-.552 0-.998.455-.998 1.016v5.202h-.437v-2.588c0-.28-.224-.508-.499-.508-.276 0-.499.228-.499.508v2.588h-1.588c.209-.329.366-.754.366-1.292 0-1.23-.881-1.926-1.588-2.485-.307-.243-.6-.475-.781-.712v-.799c.103-.12.167-.276.167-.447 0-.374-.299-.678-.666-.678-.367 0-.666.304-.666.678 0 .172.063.327.167.447v.798c-.181.238-.473.469-.781.713-.164.13-.338.267-.507.417.016-.18.027-.365.027-.558 0-2.859-2.075-4.499-3.743-5.817-.856-.676-1.664-1.315-2.088-2-.055-.098-.127-.187-.213-.263l-.154-.111v-1.738c.241-.165.401-.445.401-.762 0-.505-.404-.917-.9-.917s-.9.412-.9.917c0 .317.159.597.401.762v1.738l-.025.014c-.152.095-.27.224-.35.372-.427.68-1.231 1.316-2.081 1.989-1.668 1.317-3.743 2.958-3.743 5.817 0 .193.01.377.027.558-.17-.15-.343-.287-.507-.417-.307-.243-.6-.475-.781-.712v-.799c.103-.12.167-.275.167-.447 0-.374-.299-.678-.666-.678-.367 0-.666.304-.666.678 0 .171.063.327.167.447v.799c-.181.237-.473.469-.781.712-.708.559-1.588 1.255-1.588 2.485 0 .537.156.963.366 1.292h-1.588v-2.588c0-.28-.223-.508-.499-.508s-.499.228-.499.508v2.588h-.437v-5.202c0-.561-.447-1.016-.998-1.016-.552 0-.998.455-.998 1.016v18.293c0 .561.447 1.016.998 1.016l9.749.003.027.001h5.3l14.885.003c.264 0 .518-.106.706-.297.187-.191.293-.449.293-.719v-18.3c0-.561-.447-1.016-.998-1.016zm-2.931 14.772c0-.194.083-.402.188-.583.104.182.188.389.188.583v1.653h-.376v-1.653zm-21.175-11.528c.228-.181.461-.365.668-.567.206.203.439.387.667.567.645.51 1.202.95 1.202 1.683 0 .749-.534 1.131-.738 1.249h-2.262c-.207-.121-.739-.502-.739-1.249 0-.733.557-1.173 1.202-1.683zm16.916 0c.228-.181.461-.365.667-.567.206.203.439.387.667.567.645.51 1.202.95 1.202 1.683 0 .749-.534 1.131-.739 1.249h-2.261c-.207-.121-.739-.502-.739-1.249 0-.733.557-1.173 1.202-1.683zm-11.996 3.99v-.778h8.412v11.84h-.699v-7.114c0-1.521-1.458-2.895-2.423-3.639l-.422-.309-.407-.269c-.157-.095-.353-.095-.51 0l-.408.269-.422.309c-.965.744-2.423 2.118-2.423 3.639v7.114h-.699v-11.062zm4.206 5.841c-.407 0-.741.327-.759.737v4.428h-1.749v-5.691c0-.873 1.456-1.959 2.507-2.527.265.146.737.423 1.207.782.841.641 1.304 1.262 1.304 1.745v5.691h-1.749v-4.428c-.019-.41-.352-.737-.76-.737zm.219-4.082c-.138-.068-.299-.068-.437 0-.193.096-1.245.636-2.108 1.432.448-.994 1.625-1.95 2.328-2.423.704.473 1.881 1.428 2.328 2.424-.863-.796-1.917-1.337-2.11-1.433zm13.764 9.308l-7.78-.002v-11.064h7.78v11.067zm-20.185-11.067v11.061l-7.779-.002v-11.059h7.779zm14.66-7.09c.148 0 .272.1.315.236-.086-.072-.195-.116-.315-.116-.121 0-.229.044-.315.117.043-.137.167-.237.315-.237zm-8.458-8.635c.054 0 .098.045.098.1 0 .055-.044.1-.098.1-.054 0-.098-.045-.098-.1 0-.055.044-.1.098-.1zm-1.73 6.579c.597-.472 1.207-.955 1.73-1.491.523.536 1.133 1.019 1.73 1.491 1.528 1.208 2.971 2.349 2.971 4.212 0 .913-.309 1.61-.69 2.124h-8.022c-.38-.514-.69-1.211-.69-2.124 0-1.864 1.443-3.004 2.971-4.212zm-6.728 2.057c.148 0 .273.1.315.237-.086-.072-.195-.117-.315-.117s-.229.044-.315.117c.043-.137.167-.237.315-.237zm.167-5.121c.276 0 .5-.228.5-.508 0-.281-.224-.509-.5-.509s-.5.228-.5.509c0 .28.224.508.5.508m13.56-.962l.415.231.227.423c.087.163.255.264.438.264.182 0 .351-.101.438-.264l.227-.423.415-.231c.16-.089.26-.26.26-.445 0-.186-.1-.357-.26-.446l-.415-.232-.227-.422c-.087-.163-.255-.264-.438-.264-.182 0-.351.101-.438.264l-.227.422-.415.232c-.16.089-.26.26-.26.446s.1.357.26.446m5.435 2.592l.024.026c.092.094.219.148.352.148.107 0 .212-.035.299-.1.116-.089.189-.225.2-.372.008-.112-.022-.224-.081-.316l-.04-.054-.025-.026c-.093-.094-.219-.148-.352-.148-.107 0-.212.036-.299.101-.116.088-.189.224-.2.371-.008.113.022.224.082.316l.04.054" fill="#67737B"/><path d="M5.93 22.977h2.435c.276 0 .499-.228.499-.508v-2.161c0-.983-1.23-1.719-1.477-1.857-.15-.083-.33-.083-.48 0-.247.138-1.476.874-1.476 1.857v2.161c0 .28.223.508.499.508zm.5-2.669c0-.207.344-.556.718-.815.375.26.718.608.718.815v1.653h-1.437v-1.653zm-.5 7.621h2.435c.276 0 .499-.228.499-.508v-2.161c0-.983-1.23-1.72-1.477-1.857-.15-.083-.33-.083-.48 0-.247.137-1.476.874-1.476 1.857v2.161c0 .28.223.508.499.508zm.5-2.669c0-.208.344-.557.718-.815.375.259.718.608.718.815v1.653h-1.437v-1.653zm-3.503-2.283h1.374c.276 0 .499-.228.499-.508v-2.161c0-.92-.752-1.691-.838-1.776-.194-.192-.502-.192-.696 0-.086.084-.838.855-.838 1.776v2.161c0 .28.223.508.499.508zm.499-2.669c0-.194.083-.402.188-.583.104.181.188.389.188.583v1.653h-.376v-1.653zm-.499 7.621h1.374c.276 0 .499-.228.499-.508v-2.161c0-.92-.752-1.691-.838-1.776-.194-.192-.502-.192-.696 0-.086.085-.838.856-.838 1.776v2.161c0 .28.223.508.499.508zm.499-2.669c0-.194.083-.402.188-.583.104.182.188.389.188.583v1.653h-.376v-1.653zm20.043-2.283h2.435c.276 0 .499-.228.499-.508v-2.161c0-.983-1.23-1.719-1.477-1.857-.15-.083-.33-.083-.48 0-.247.138-1.476.874-1.476 1.857v2.161c0 .28.224.508.499.508zm.499-2.669c0-.208.344-.556.718-.815.375.26.718.608.718.815v1.653h-1.437v-1.653zm-.499 7.621h2.435c.276 0 .499-.228.499-.508v-2.161c0-.983-1.23-1.72-1.477-1.857-.15-.083-.33-.083-.48 0-.247.137-1.476.874-1.476 1.857v2.161c0 .28.224.508.499.508zm.499-2.669c0-.208.343-.557.718-.815.352.246.719.599.719.815v1.653h-1.437v-1.653zm3.565-2.283h1.374c.276 0 .499-.228.499-.508v-2.161c0-.92-.753-1.691-.838-1.776-.194-.192-.502-.192-.696 0-.086.084-.838.855-.838 1.776v2.161c0 .28.223.508.499.508zm.499-2.669c0-.194.083-.402.188-.583.104.181.188.389.188.583v1.653h-.376v-1.653zm-.499 7.621h1.374c.276 0 .499-.228.499-.508v-2.161c0-.92-.753-1.691-.838-1.776-.194-.192-.502-.192-.696 0-.086.085-.838.856-.838 1.776v2.161c0 .28.223.508.499.508zm3.43-17.441c-.552 0-.998.455-.998 1.016v5.202h-.437v-2.588c0-.28-.224-.508-.499-.508-.276 0-.499.228-.499.508v2.588h-1.588c.209-.329.366-.754.366-1.292 0-1.23-.881-1.926-1.588-2.485-.307-.243-.6-.475-.781-.712v-.799c.103-.12.167-.276.167-.447 0-.374-.299-.678-.666-.678-.367 0-.666.304-.666.678 0 .172.063.327.167.447v.798c-.181.238-.473.469-.781.713-.164.13-.338.267-.507.417.016-.18.027-.365.027-.558 0-2.859-2.075-4.499-3.743-5.817-.856-.676-1.664-1.315-2.088-2-.055-.098-.127-.187-.213-.263l-.154-.111v-1.738c.241-.165.401-.445.401-.762 0-.505-.404-.917-.9-.917s-.9.412-.9.917c0 .317.159.597.401.762v1.738l-.025.014c-.152.095-.27.224-.35.372-.427.68-1.231 1.316-2.081 1.989-1.668 1.317-3.743 2.958-3.743 5.817 0 .193.01.377.027.558-.17-.15-.343-.287-.507-.417-.307-.243-.6-.475-.781-.712v-.799c.103-.12.167-.275.167-.447 0-.374-.299-.678-.666-.678-.367 0-.666.304-.666.678 0 .171.063.327.167.447v.799c-.181.237-.473.469-.781.712-.708.559-1.588 1.255-1.588 2.485 0 .537.156.963.366 1.292h-1.588v-2.588c0-.28-.223-.508-.499-.508s-.499.228-.499.508v2.588h-.437v-5.202c0-.561-.447-1.016-.998-1.016-.552 0-.998.455-.998 1.016v18.293c0 .561.447 1.016.998 1.016l9.749.003.027.001h5.3l14.885.003c.264 0 .518-.106.706-.297.187-.191.293-.449.293-.719v-18.3c0-.561-.447-1.016-.998-1.016zm-2.931 14.772c0-.194.083-.402.188-.583.104.182.188.389.188.583v1.653h-.376v-1.653zm-21.175-11.528c.228-.181.461-.365.668-.567.206.203.439.387.667.567.645.51 1.202.95 1.202 1.683 0 .749-.534 1.131-.738 1.249h-2.262c-.207-.121-.739-.502-.739-1.249 0-.733.557-1.173 1.202-1.683zm16.916 0c.228-.181.461-.365.667-.567.206.203.439.387.667.567.645.51 1.202.95 1.202 1.683 0 .749-.534 1.131-.739 1.249h-2.261c-.207-.121-.739-.502-.739-1.249 0-.733.557-1.173 1.202-1.683zm-11.996 3.99v-.778h8.412v11.84h-.699v-7.114c0-1.521-1.458-2.895-2.423-3.639l-.422-.309-.407-.269c-.157-.095-.353-.095-.51 0l-.408.269-.422.309c-.965.744-2.423 2.118-2.423 3.639v7.114h-.699v-11.062zm4.206 5.841c-.407 0-.741.327-.759.737v4.428h-1.749v-5.691c0-.873 1.456-1.959 2.507-2.527.265.146.737.423 1.207.782.841.641 1.304 1.262 1.304 1.745v5.691h-1.749v-4.428c-.019-.41-.352-.737-.76-.737zm.219-4.082c-.138-.068-.299-.068-.437 0-.193.096-1.245.636-2.108 1.432.448-.994 1.625-1.95 2.328-2.423.704.473 1.881 1.428 2.328 2.424-.863-.796-1.917-1.337-2.11-1.433zm13.764 9.308l-7.78-.002v-11.064h7.78v11.067zm-20.185-11.067v11.061l-7.779-.002v-11.059h7.779zm14.66-7.09c.148 0 .272.1.315.236-.086-.072-.195-.116-.315-.116-.121 0-.229.044-.315.117.043-.137.167-.237.315-.237zm-8.458-8.635c.054 0 .098.045.098.1 0 .055-.044.1-.098.1-.054 0-.098-.045-.098-.1 0-.055.044-.1.098-.1zm-1.73 6.579c.597-.472 1.207-.955 1.73-1.491.523.536 1.133 1.019 1.73 1.491 1.528 1.208 2.971 2.349 2.971 4.212 0 .913-.309 1.61-.69 2.124h-8.022c-.38-.514-.69-1.211-.69-2.124 0-1.864 1.443-3.004 2.971-4.212zm-6.728 2.057c.148 0 .273.1.315.237-.086-.072-.195-.117-.315-.117s-.229.044-.315.117c.043-.137.167-.237.315-.237zm.167-5.121c.276 0 .5-.228.5-.508 0-.281-.224-.509-.5-.509s-.5.228-.5.509c0 .28.224.508.5.508m13.56-.962l.415.231.227.423c.087.163.255.264.438.264.182 0 .351-.101.438-.264l.227-.423.415-.231c.16-.089.26-.26.26-.445 0-.186-.1-.357-.26-.446l-.415-.232-.227-.422c-.087-.163-.255-.264-.438-.264-.182 0-.351.101-.438.264l-.227.422-.415.232c-.16.089-.26.26-.26.446s.1.357.26.446m5.435 2.592l.024.026c.092.094.219.148.352.148.107 0 .212-.035.299-.1.116-.089.189-.225.2-.372.008-.112-.022-.224-.081-.316l-.04-.054-.025-.026c-.093-.094-.219-.148-.352-.148-.107 0-.212.036-.299.101-.116.088-.189.224-.2.371-.008.113.022.224.082.316l.04.054" fill="#3A434E"/></g></g></svg>
