<svg width="32" height="232" viewBox="0 0 32 232" xmlns="http://www.w3.org/2000/svg" xmlns:sketch="http://www.bohemiancoding.com/sketch/ns"><title>delhi</title><desc>Created with Sketch.</desc><g sketch:type="MSPage" fill="none"><g sketch:type="MSShapeGroup"><path d="M5.948 143.645h2.437c.276 0 .5-.242.5-.54v-2.298c0-1.046-1.231-1.829-1.478-1.976-.15-.089-.331-.089-.48 0-.246.146-1.478.93-1.478 1.976v2.298c0 .298.224.54.5.54zm.501-2.839c0-.221.343-.592.717-.867.353.261.72.636.72.867v1.758h-1.437v-1.758zm-.501 8.105h2.437c.276 0 .5-.242.5-.541v-2.298c0-1.046-1.231-1.829-1.478-1.976-.15-.089-.331-.089-.48 0-.246.146-1.478.93-1.478 1.976v2.298c0 .299.224.541.5.541zm.501-2.839c0-.221.344-.592.718-.867.375.275.719.646.719.867v1.758h-1.437v-1.758zm-3.506-2.428h1.375c.276 0 .499-.242.499-.54v-2.298c0-.979-.753-1.799-.839-1.889-.193-.204-.502-.204-.697 0-.085.09-.839.91-.839 1.889v2.298c0 .298.223.54.5.54zm.5-2.839c0-.206.084-.428.188-.621.105.193.188.415.188.621v1.758h-.376v-1.758zm-.5 8.105h1.375c.276 0 .499-.242.499-.541v-2.298c0-.979-.753-1.799-.839-1.889-.193-.204-.502-.204-.697 0-.085.09-.839.91-.839 1.889v2.298c0 .299.223.541.5.541zm.5-2.839c0-.206.084-.428.188-.621.104.193.188.415.188.621v1.758h-.376v-1.758zm20.059-2.428h2.437c.276 0 .5-.242.5-.54v-2.298c0-1.046-1.231-1.829-1.478-1.976-.15-.089-.331-.089-.48 0-.247.146-1.478.93-1.478 1.976v2.298c0 .298.223.54.499.54zm.5-2.839c0-.221.344-.592.72-.868.375.275.719.647.719.868v1.758h-1.439v-1.758zm-.5 8.105h2.437c.276 0 .5-.242.5-.541v-2.298c0-1.046-1.231-1.829-1.478-1.976-.15-.089-.331-.089-.48 0-.247.146-1.478.93-1.478 1.976v2.298c0 .299.223.541.499.541zm.5-2.839c0-.221.344-.592.72-.867.375.275.719.646.719.867v1.758h-1.439v-1.758zm3.568-2.428h1.376c.275 0 .5-.242.5-.54v-2.298c0-.979-.753-1.799-.84-1.889-.194-.204-.502-.204-.696 0-.086.09-.84.91-.84 1.889v2.298c0 .298.223.54.499.54zm.5-2.839c0-.207.084-.428.189-.621.105.193.188.415.188.621v1.758h-.377v-1.758zm-.5 8.105h1.376c.275 0 .5-.242.5-.541v-2.298c0-.979-.753-1.799-.84-1.889-.194-.204-.502-.203-.696 0-.086.09-.84.91-.84 1.889v2.298c0 .299.223.541.499.541zm3.433-18.549c-.551 0-.999.484-.999 1.081v5.532h-.437v-2.753c0-.298-.224-.54-.501-.54-.276 0-.499.242-.499.54v2.753h-1.588c.209-.35.366-.803.366-1.374 0-1.308-.881-2.049-1.589-2.644-.308-.258-.6-.504-.781-.756v-.85c.104-.128.167-.294.167-.476 0-.397-.299-.721-.666-.721-.368 0-.667.324-.667.721 0 .182.064.349.167.476v.849c-.181.253-.474.499-.782.757-.164.138-.338.285-.507.444.017-.192.027-.389.027-.593 0-3.041-2.077-4.785-3.746-6.187-.857-.719-1.665-1.399-2.09-2.127-.055-.104-.126-.199-.212-.28l-.156-.118v-1.849c.243-.175.402-.473.402-.81 0-.537-.404-.974-.901-.974s-.901.437-.901.974c0 .338.16.636.401.81v1.848l-.025.015c-.152.101-.269.238-.35.395-.428.724-1.233 1.4-2.084 2.115-1.668 1.402-3.745 3.147-3.745 6.187 0 .204.01.401.026.593l-.507-.444c-.308-.258-.601-.504-.782-.756v-.85c.104-.127.168-.294.168-.476 0-.397-.299-.721-.667-.721-.367 0-.666.324-.666.721 0 .182.063.348.167.476v.849c-.181.253-.474.499-.781.757-.709.595-1.589 1.335-1.589 2.644 0 .571.156 1.024.365 1.374h-1.588v-2.753c0-.298-.223-.54-.5-.54-.276 0-.499.242-.499.54v2.753h-.438v-5.532c0-.597-.447-1.081-.999-1.081s-.999.484-.999 1.081v19.455c0 .597.447 1.08.999 1.081l9.757.003.027.002h5.304l14.898.004c.264 0 .519-.114.706-.317.188-.203.293-.478.293-.764v-19.463c0-.597-.448-1.081-1-1.081zm-2.934 15.711c0-.206.084-.428.189-.621.105.193.188.415.188.621v1.758h-.377v-1.758zm-21.191-12.262c.229-.192.462-.387.668-.603.207.215.44.411.668.603.646.542 1.204 1.011 1.204 1.79 0 .796-.535 1.202-.739 1.328h-2.263c-.208-.128-.74-.534-.74-1.328 0-.78.558-1.248 1.203-1.79zm16.929 0c.228-.192.461-.387.668-.603.206.215.439.411.668.603.645.542 1.203 1.011 1.203 1.79 0 .796-.534 1.202-.739 1.328h-2.264c-.207-.128-.739-.534-.739-1.328 0-.78.557-1.248 1.203-1.79zm-12.006 4.244v-.827h8.419v12.594h-.7v-7.567c0-1.617-1.459-3.08-2.425-3.87l-.422-.33-.408-.286c-.157-.101-.352-.101-.51 0l-.408.286-.422.33c-.966.791-2.425 2.253-2.425 3.87v7.566h-.7v-11.766zm4.209 6.213c-.408 0-.742.347-.76.784v4.709h-1.751v-6.053c0-.928 1.456-2.083 2.508-2.687.265.156.738.45 1.209.831.842.683 1.305 1.342 1.305 1.856v6.053h-1.751v-4.709c-.018-.437-.352-.784-.76-.784zm.218-4.342c-.138-.073-.299-.073-.437 0-.193.102-1.246.677-2.11 1.523.449-1.057 1.625-2.073 2.329-2.577.704.503 1.883 1.519 2.331 2.578-.865-.847-1.919-1.422-2.112-1.524zm13.775 9.899l-7.786-.002v-11.768h7.786v11.77zm-20.201-11.77v11.765l-7.787-.002v-11.762h7.787zm14.672-7.54c.148 0 .272.106.315.252-.086-.077-.195-.125-.315-.125-.121 0-.229.048-.316.125.042-.145.167-.252.316-.252zm-8.465-9.185c.053 0 .098.048.098.106 0 .058-.044.106-.098.106-.053 0-.098-.048-.098-.106 0-.058.044-.106.098-.106zm-1.732 6.998c.598-.502 1.208-1.015 1.732-1.586.523.571 1.134 1.083 1.732 1.586 1.529 1.284 2.973 2.497 2.973 4.48 0 .971-.31 1.713-.69 2.259h-8.028c-.381-.546-.691-1.289-.691-2.259 0-1.983 1.444-3.196 2.973-4.48zm-6.733 2.187c.149 0 .273.106.315.252-.086-.077-.194-.125-.315-.125-.12 0-.229.048-.316.125.043-.145.168-.252.316-.252zm19.177-3.714h.001l.024.028c.092.1.218.157.352.157.108 0 .212-.038.299-.107.117-.093.19-.238.2-.395.008-.119-.022-.238-.082-.337l-.04-.057v-.001l-.024-.028c-.093-.1-.219-.157-.352-.157-.107 0-.212.038-.298.107-.117.094-.19.239-.2.395-.008.119.021.238.081.337l.04.057zm-19.01-1.733c.276 0 .5-.243.5-.541 0-.298-.224-.541-.5-.541-.275 0-.5.243-.5.541 0 .298.224.541.5.541zm13.571-1.024l.416.246.227.45c.087.173.255.281.438.281.182 0 .351-.108.438-.281l.227-.45.416-.246c.16-.095.26-.277.26-.474 0-.197-.1-.379-.26-.475l-.416-.245-.227-.449c-.087-.174-.256-.282-.438-.282-.183 0-.351.108-.438.282l-.227.449-.416.245c-.16.095-.26.277-.26.475 0 .197.1.379.26.474z" fill="#206FAC"/><path d="M5.948 103.645h2.437c.276 0 .5-.242.5-.54v-2.298c0-1.046-1.231-1.829-1.478-1.976-.15-.089-.331-.089-.48 0-.246.146-1.478.93-1.478 1.976v2.298c0 .298.224.54.5.54zm.501-2.839c0-.221.343-.592.717-.867.353.261.72.636.72.867v1.758h-1.437v-1.758zm-.501 8.105h2.437c.276 0 .5-.242.5-.541v-2.298c0-1.046-1.231-1.829-1.478-1.976-.15-.089-.331-.089-.48 0-.246.146-1.478.93-1.478 1.976v2.298c0 .299.224.541.5.541zm.501-2.839c0-.221.344-.592.718-.867.375.275.719.646.719.867v1.758h-1.437v-1.758zm-3.506-2.428h1.375c.276 0 .499-.242.499-.54v-2.298c0-.979-.753-1.799-.839-1.889-.193-.204-.502-.204-.697 0-.085.09-.839.91-.839 1.889v2.298c0 .298.223.54.5.54zm.5-2.839c0-.206.084-.428.188-.621.105.193.188.415.188.621v1.758h-.376v-1.758zm-.5 8.105h1.375c.276 0 .499-.242.499-.541v-2.298c0-.979-.753-1.799-.839-1.889-.193-.204-.502-.204-.697 0-.085.09-.839.91-.839 1.889v2.298c0 .299.223.541.5.541zm.5-2.839c0-.206.084-.428.188-.621.104.193.188.415.188.621v1.758h-.376v-1.758zm20.059-2.428h2.437c.276 0 .5-.242.5-.54v-2.298c0-1.046-1.231-1.829-1.478-1.976-.15-.089-.331-.089-.48 0-.247.146-1.478.93-1.478 1.976v2.298c0 .298.223.54.499.54zm.5-2.839c0-.221.344-.592.72-.868.375.275.719.647.719.868v1.758h-1.439v-1.758zm-.5 8.105h2.437c.276 0 .5-.242.5-.541v-2.298c0-1.046-1.231-1.829-1.478-1.976-.15-.089-.331-.089-.48 0-.247.146-1.478.93-1.478 1.976v2.298c0 .299.223.541.499.541zm.5-2.839c0-.221.344-.592.72-.867.375.275.719.646.719.867v1.758h-1.439v-1.758zm3.568-2.428h1.376c.275 0 .5-.242.5-.54v-2.298c0-.979-.753-1.799-.84-1.889-.194-.204-.502-.204-.696 0-.086.09-.84.91-.84 1.889v2.298c0 .298.223.54.499.54zm.5-2.839c0-.207.084-.428.189-.621.105.193.188.415.188.621v1.758h-.377v-1.758zm-.5 8.105h1.376c.275 0 .5-.242.5-.541v-2.298c0-.979-.753-1.799-.84-1.889-.194-.204-.502-.203-.696 0-.086.09-.84.91-.84 1.889v2.298c0 .299.223.541.499.541zm3.433-18.549c-.551 0-.999.484-.999 1.081v5.532h-.437v-2.753c0-.298-.224-.54-.501-.54-.276 0-.499.242-.499.54v2.753h-1.588c.209-.35.366-.803.366-1.374 0-1.308-.881-2.049-1.589-2.644-.308-.258-.6-.504-.781-.756v-.85c.104-.128.167-.294.167-.476 0-.397-.299-.721-.666-.721-.368 0-.667.324-.667.721 0 .182.064.349.167.476v.849c-.181.253-.474.499-.782.757-.164.138-.338.285-.507.444.017-.192.027-.389.027-.593 0-3.041-2.077-4.785-3.746-6.187-.857-.719-1.665-1.399-2.09-2.127-.055-.104-.126-.199-.212-.28l-.156-.118v-1.849c.243-.175.402-.473.402-.81 0-.537-.404-.974-.901-.974s-.901.437-.901.974c0 .338.16.636.401.81v1.848l-.025.015c-.152.101-.269.238-.35.395-.428.724-1.233 1.4-2.084 2.115-1.668 1.402-3.745 3.147-3.745 6.187 0 .204.01.401.026.593l-.507-.444c-.308-.258-.601-.504-.782-.756v-.85c.104-.127.168-.294.168-.476 0-.397-.299-.721-.667-.721-.367 0-.666.324-.666.721 0 .182.063.348.167.476v.849c-.181.253-.474.499-.781.757-.709.595-1.589 1.335-1.589 2.644 0 .571.156 1.024.365 1.374h-1.588v-2.753c0-.298-.223-.54-.5-.54-.276 0-.499.242-.499.54v2.753h-.438v-5.532c0-.597-.447-1.081-.999-1.081s-.999.484-.999 1.081v19.455c0 .597.447 1.08.999 1.081l9.757.003.027.002h5.304l14.898.004c.264 0 .519-.114.706-.317.188-.203.293-.478.293-.764v-19.463c0-.597-.448-1.081-1-1.081zm-2.934 15.711c0-.206.084-.428.189-.621.105.193.188.415.188.621v1.758h-.377v-1.758zm-21.191-12.262c.229-.192.462-.387.668-.603.207.215.44.411.668.603.646.542 1.204 1.011 1.204 1.79 0 .796-.535 1.202-.739 1.328h-2.263c-.208-.128-.74-.534-.74-1.328 0-.78.558-1.248 1.203-1.79zm16.929 0c.228-.192.461-.387.668-.603.206.215.439.411.668.603.645.542 1.203 1.011 1.203 1.79 0 .796-.534 1.202-.739 1.328h-2.264c-.207-.128-.739-.534-.739-1.328 0-.78.557-1.248 1.203-1.79zm-12.006 4.244v-.827h8.419v12.594h-.7v-7.567c0-1.617-1.459-3.08-2.425-3.87l-.422-.33-.408-.286c-.157-.101-.352-.101-.51 0l-.408.286-.422.33c-.966.791-2.425 2.253-2.425 3.87v7.566h-.7v-11.766zm4.209 6.213c-.408 0-.742.347-.76.784v4.709h-1.751v-6.053c0-.928 1.456-2.083 2.508-2.687.265.156.738.45 1.209.831.842.683 1.305 1.342 1.305 1.856v6.053h-1.751v-4.709c-.018-.437-.352-.784-.76-.784zm.218-4.342c-.138-.073-.299-.073-.437 0-.193.102-1.246.677-2.11 1.523.449-1.057 1.625-2.073 2.329-2.577.704.503 1.883 1.519 2.331 2.578-.865-.847-1.919-1.422-2.112-1.524zm13.775 9.899l-7.786-.002v-11.768h7.786v11.77zm-20.201-11.77v11.765l-7.787-.002v-11.762h7.787zm14.672-7.54c.148 0 .272.106.315.252-.086-.077-.195-.125-.315-.125-.121 0-.229.048-.316.125.042-.145.167-.252.316-.252zm-8.465-9.185c.053 0 .098.048.098.106 0 .058-.044.106-.098.106-.053 0-.098-.048-.098-.106 0-.058.044-.106.098-.106zm-1.732 6.998c.598-.502 1.208-1.015 1.732-1.586.523.571 1.134 1.083 1.732 1.586 1.529 1.284 2.973 2.497 2.973 4.48 0 .971-.31 1.713-.69 2.259h-8.028c-.381-.546-.691-1.289-.691-2.259 0-1.983 1.444-3.196 2.973-4.48zm-6.733 2.187c.149 0 .273.106.315.252-.086-.077-.194-.125-.315-.125-.12 0-.229.048-.316.125.043-.145.168-.252.316-.252zm19.177-3.714h.001l.024.028c.092.1.218.157.352.157.108 0 .212-.038.299-.107.117-.093.19-.238.2-.395.008-.119-.022-.238-.082-.337l-.04-.057v-.001l-.024-.028c-.093-.1-.219-.157-.352-.157-.107 0-.212.038-.298.107-.117.094-.19.239-.2.395-.008.119.021.238.081.337l.04.057zm-19.01-1.733c.276 0 .5-.243.5-.541 0-.298-.224-.541-.5-.541-.275 0-.5.243-.5.541 0 .298.224.541.5.541zm13.571-1.024l.416.246.227.45c.087.173.255.281.438.281.182 0 .351-.108.438-.281l.227-.45.416-.246c.16-.095.26-.277.26-.474 0-.197-.1-.379-.26-.475l-.416-.245-.227-.449c-.087-.174-.256-.282-.438-.282-.183 0-.351.108-.438.282l-.227.449-.416.245c-.16.095-.26.277-.26.475 0 .197.1.379.26.474z" fill="#fff"/><path d="M5.948 63.645h2.437c.276 0 .5-.242.5-.54v-2.298c0-1.046-1.231-1.829-1.478-1.976-.15-.089-.331-.089-.48 0-.246.146-1.478.93-1.478 1.976v2.298c0 .298.224.54.5.54zm.501-2.839c0-.221.343-.592.717-.867.353.261.72.636.72.867v1.758h-1.437v-1.758zm-.501 8.105h2.437c.276 0 .5-.242.5-.541v-2.298c0-1.046-1.231-1.829-1.478-1.976-.15-.089-.331-.089-.48 0-.246.146-1.478.93-1.478 1.976v2.298c0 .299.224.541.5.541zm.501-2.839c0-.221.344-.592.718-.867.375.275.719.646.719.867v1.758h-1.437v-1.758zm-3.506-2.428h1.375c.276 0 .499-.242.499-.54v-2.298c0-.979-.753-1.799-.839-1.889-.193-.204-.502-.204-.697 0-.085.09-.839.91-.839 1.889v2.298c0 .298.223.54.5.54zm.5-2.839c0-.206.084-.428.188-.621.105.193.188.415.188.621v1.758h-.376v-1.758zm-.5 8.105h1.375c.276 0 .499-.242.499-.541v-2.298c0-.979-.753-1.799-.839-1.889-.193-.204-.502-.204-.697 0-.085.09-.839.91-.839 1.889v2.298c0 .299.223.541.5.541zm.5-2.839c0-.206.084-.428.188-.621.104.193.188.415.188.621v1.758h-.376v-1.758zm20.059-2.428h2.437c.276 0 .5-.242.5-.54v-2.298c0-1.046-1.231-1.829-1.478-1.976-.15-.089-.331-.089-.48 0-.247.146-1.478.93-1.478 1.976v2.298c0 .298.223.54.499.54zm.5-2.839c0-.221.344-.592.72-.868.375.275.719.647.719.868v1.758h-1.439v-1.758zm-.5 8.105h2.437c.276 0 .5-.242.5-.541v-2.298c0-1.046-1.231-1.829-1.478-1.976-.15-.089-.331-.089-.48 0-.247.146-1.478.93-1.478 1.976v2.298c0 .299.223.541.499.541zm.5-2.839c0-.221.344-.592.72-.867.375.275.719.646.719.867v1.758h-1.439v-1.758zm3.568-2.428h1.376c.275 0 .5-.242.5-.54v-2.298c0-.979-.753-1.799-.84-1.889-.194-.204-.502-.204-.696 0-.086.09-.84.91-.84 1.889v2.298c0 .298.223.54.499.54zm.5-2.839c0-.207.084-.428.189-.621.105.193.188.415.188.621v1.758h-.377v-1.758zm-.5 8.105h1.376c.275 0 .5-.242.5-.541v-2.298c0-.979-.753-1.799-.84-1.889-.194-.204-.502-.203-.696 0-.086.09-.84.91-.84 1.889v2.298c0 .299.223.541.499.541zm3.433-18.549c-.551 0-.999.484-.999 1.081v5.532h-.437v-2.753c0-.298-.224-.54-.501-.54-.276 0-.499.242-.499.54v2.753h-1.588c.209-.35.366-.803.366-1.374 0-1.308-.881-2.049-1.589-2.644-.308-.258-.6-.504-.781-.756v-.85c.104-.128.167-.294.167-.476 0-.397-.299-.721-.666-.721-.368 0-.667.324-.667.721 0 .182.064.349.167.476v.849c-.181.253-.474.499-.782.757-.164.138-.338.285-.507.444.017-.192.027-.389.027-.593 0-3.041-2.077-4.785-3.746-6.187-.857-.719-1.665-1.399-2.09-2.127-.055-.104-.126-.199-.212-.28l-.156-.118v-1.849c.243-.175.402-.473.402-.81 0-.537-.404-.974-.901-.974s-.901.437-.901.974c0 .338.16.636.401.81v1.848l-.025.015c-.152.101-.269.238-.35.395-.428.724-1.233 1.4-2.084 2.115-1.668 1.402-3.745 3.147-3.745 6.187 0 .204.01.401.026.593l-.507-.444c-.308-.258-.601-.504-.782-.756v-.85c.104-.127.168-.294.168-.476 0-.397-.299-.721-.667-.721-.367 0-.666.324-.666.721 0 .182.063.348.167.476v.849c-.181.253-.474.499-.781.757-.709.595-1.589 1.335-1.589 2.644 0 .571.156 1.024.365 1.374h-1.588v-2.753c0-.298-.223-.54-.5-.54-.276 0-.499.242-.499.54v2.753h-.438v-5.532c0-.597-.447-1.081-.999-1.081s-.999.484-.999 1.081v19.455c0 .597.447 1.08.999 1.081l9.757.003.027.002h5.304l14.898.004c.264 0 .519-.114.706-.317.188-.203.293-.478.293-.764v-19.463c0-.597-.448-1.081-1-1.081zm-2.934 15.711c0-.206.084-.428.189-.621.105.193.188.415.188.621v1.758h-.377v-1.758zm-21.191-12.262c.229-.192.462-.387.668-.603.207.215.44.411.668.603.646.542 1.204 1.011 1.204 1.79 0 .796-.535 1.202-.739 1.328h-2.263c-.208-.128-.74-.534-.74-1.328 0-.78.558-1.248 1.203-1.79zm16.929 0c.228-.192.461-.387.668-.603.206.215.439.411.668.603.645.542 1.203 1.011 1.203 1.79 0 .796-.534 1.202-.739 1.328h-2.264c-.207-.128-.739-.534-.739-1.328 0-.78.557-1.248 1.203-1.79zm-12.006 4.244v-.827h8.419v12.594h-.7v-7.567c0-1.617-1.459-3.08-2.425-3.87l-.422-.33-.408-.286c-.157-.101-.352-.101-.51 0l-.408.286-.422.33c-.966.791-2.425 2.253-2.425 3.87v7.566h-.7v-11.766zm4.209 6.213c-.408 0-.742.347-.76.784v4.709h-1.751v-6.053c0-.928 1.456-2.083 2.508-2.687.265.156.738.45 1.209.831.842.683 1.305 1.342 1.305 1.856v6.053h-1.751v-4.709c-.018-.437-.352-.784-.76-.784zm.218-4.342c-.138-.073-.299-.073-.437 0-.193.102-1.246.677-2.11 1.523.449-1.057 1.625-2.073 2.329-2.577.704.503 1.883 1.519 2.331 2.578-.865-.847-1.919-1.422-2.112-1.524zm13.775 9.899l-7.786-.002v-11.768h7.786v11.77zm-20.201-11.77v11.765l-7.787-.002v-11.762h7.787zm14.672-7.54c.148 0 .272.106.315.252-.086-.077-.195-.125-.315-.125-.121 0-.229.048-.316.125.042-.145.167-.252.316-.252zm-8.465-9.185c.053 0 .098.048.098.106 0 .058-.044.106-.098.106-.053 0-.098-.048-.098-.106 0-.058.044-.106.098-.106zm-1.732 6.998c.598-.502 1.208-1.015 1.732-1.586.523.571 1.134 1.083 1.732 1.586 1.529 1.284 2.973 2.497 2.973 4.48 0 .971-.31 1.713-.69 2.259h-8.028c-.381-.546-.691-1.289-.691-2.259 0-1.983 1.444-3.196 2.973-4.48zm-6.733 2.187c.149 0 .273.106.315.252-.086-.077-.194-.125-.315-.125-.12 0-.229.048-.316.125.043-.145.168-.252.316-.252zm19.177-3.714h.001l.024.028c.092.1.218.157.352.157.108 0 .212-.038.299-.107.117-.093.19-.238.2-.395.008-.119-.022-.238-.082-.337l-.04-.057v-.001l-.024-.028c-.093-.1-.219-.157-.352-.157-.107 0-.212.038-.298.107-.117.094-.19.239-.2.395-.008.119.021.238.081.337l.04.057zm-19.01-1.733c.276 0 .5-.243.5-.541 0-.298-.224-.541-.5-.541-.275 0-.5.243-.5.541 0 .298.224.541.5.541zm13.571-1.024l.416.246.227.45c.087.173.255.281.438.281.182 0 .351-.108.438-.281l.227-.45.416-.246c.16-.095.26-.277.26-.474 0-.197-.1-.379-.26-.475l-.416-.245-.227-.449c-.087-.174-.256-.282-.438-.282-.183 0-.351.108-.438.282l-.227.449-.416.245c-.16.095-.26.277-.26.475 0 .197.1.379.26.474z" fill="#67737B"/><path d="M5.948 23.645h2.437c.276 0 .5-.242.5-.54v-2.298c0-1.046-1.231-1.829-1.478-1.976-.15-.089-.331-.089-.48 0-.246.146-1.478.93-1.478 1.976v2.298c0 .298.224.54.5.54zm.501-2.839c0-.221.343-.592.717-.867.353.261.72.636.72.867v1.758h-1.437v-1.758zm-.501 8.105h2.437c.276 0 .5-.242.5-.541v-2.298c0-1.046-1.231-1.829-1.478-1.976-.15-.089-.331-.089-.48 0-.246.146-1.478.93-1.478 1.976v2.298c0 .299.224.541.5.541zm.501-2.839c0-.221.344-.592.718-.867.375.275.719.646.719.867v1.758h-1.437v-1.758zm-3.506-2.428h1.375c.276 0 .499-.242.499-.54v-2.298c0-.979-.753-1.799-.839-1.889-.193-.204-.502-.204-.697 0-.085.09-.839.91-.839 1.889v2.298c0 .298.223.54.5.54zm.5-2.839c0-.206.084-.428.188-.621.105.193.188.415.188.621v1.758h-.376v-1.758zm-.5 8.105h1.375c.276 0 .499-.242.499-.541v-2.298c0-.979-.753-1.799-.839-1.889-.193-.204-.502-.204-.697 0-.085.09-.839.91-.839 1.889v2.298c0 .299.223.541.5.541zm.5-2.839c0-.206.084-.428.188-.621.104.193.188.415.188.621v1.758h-.376v-1.758zm20.059-2.428h2.437c.276 0 .5-.242.5-.54v-2.298c0-1.046-1.231-1.829-1.478-1.976-.15-.089-.331-.089-.48 0-.247.146-1.478.93-1.478 1.976v2.298c0 .298.223.54.499.54zm.5-2.839c0-.221.344-.592.72-.868.375.275.719.647.719.868v1.758h-1.439v-1.758zm-.5 8.105h2.437c.276 0 .5-.242.5-.541v-2.298c0-1.046-1.231-1.829-1.478-1.976-.15-.089-.331-.089-.48 0-.247.146-1.478.93-1.478 1.976v2.298c0 .299.223.541.499.541zm.5-2.839c0-.221.344-.592.72-.867.375.275.719.646.719.867v1.758h-1.439v-1.758zm3.568-2.428h1.376c.275 0 .5-.242.5-.54v-2.298c0-.979-.753-1.799-.84-1.889-.194-.204-.502-.204-.696 0-.086.09-.84.91-.84 1.889v2.298c0 .298.223.54.499.54zm.5-2.839c0-.207.084-.428.189-.621.105.193.188.415.188.621v1.758h-.377v-1.758zm-.5 8.105h1.376c.275 0 .5-.242.5-.541v-2.298c0-.979-.753-1.799-.84-1.889-.194-.204-.502-.203-.696 0-.086.09-.84.91-.84 1.889v2.298c0 .299.223.541.499.541zm3.433-18.549c-.551 0-.999.484-.999 1.081v5.532h-.437v-2.753c0-.298-.224-.54-.501-.54-.276 0-.499.242-.499.54v2.753h-1.588c.209-.35.366-.803.366-1.374 0-1.308-.881-2.049-1.589-2.644-.308-.258-.6-.504-.781-.756v-.85c.104-.128.167-.294.167-.476 0-.397-.299-.721-.666-.721-.368 0-.667.324-.667.721 0 .182.064.349.167.476v.849c-.181.253-.474.499-.782.757-.164.138-.338.285-.507.444.017-.192.027-.389.027-.593 0-3.041-2.077-4.785-3.746-6.187-.857-.719-1.665-1.399-2.09-2.127-.055-.104-.126-.199-.212-.28l-.156-.118v-1.849c.243-.175.402-.473.402-.81 0-.537-.404-.974-.901-.974s-.901.437-.901.974c0 .338.16.636.401.81v1.848l-.025.015c-.152.101-.269.238-.35.395-.428.724-1.233 1.4-2.084 2.115-1.668 1.402-3.745 3.147-3.745 6.187 0 .204.01.401.026.593l-.507-.444c-.308-.258-.601-.504-.782-.756v-.85c.104-.127.168-.294.168-.476 0-.397-.299-.721-.667-.721-.367 0-.666.324-.666.721 0 .182.063.348.167.476v.849c-.181.253-.474.499-.781.757-.709.595-1.589 1.335-1.589 2.644 0 .571.156 1.024.365 1.374h-1.588v-2.753c0-.298-.223-.54-.5-.54-.276 0-.499.242-.499.54v2.753h-.438v-5.532c0-.597-.447-1.081-.999-1.081s-.999.484-.999 1.081v19.455c0 .597.447 1.08.999 1.081l9.757.003.027.002h5.304l14.898.004c.264 0 .519-.114.706-.317.188-.203.293-.478.293-.764v-19.463c0-.597-.448-1.081-1-1.081zm-2.934 15.711c0-.206.084-.428.189-.621.105.193.188.415.188.621v1.758h-.377v-1.758zm-21.191-12.262c.229-.192.462-.387.668-.603.207.215.44.411.668.603.646.542 1.204 1.011 1.204 1.79 0 .796-.535 1.202-.739 1.328h-2.263c-.208-.128-.74-.534-.74-1.328 0-.78.558-1.248 1.203-1.79zm16.929 0c.228-.192.461-.387.668-.603.206.215.439.411.668.603.645.542 1.203 1.011 1.203 1.79 0 .796-.534 1.202-.739 1.328h-2.264c-.207-.128-.739-.534-.739-1.328 0-.78.557-1.248 1.203-1.79zm-12.006 4.244v-.827h8.419v12.594h-.7v-7.567c0-1.617-1.459-3.08-2.425-3.87l-.422-.33-.408-.286c-.157-.101-.352-.101-.51 0l-.408.286-.422.33c-.966.791-2.425 2.253-2.425 3.87v7.566h-.7v-11.766zm4.209 6.213c-.408 0-.742.347-.76.784v4.709h-1.751v-6.053c0-.928 1.456-2.083 2.508-2.687.265.156.738.45 1.209.831.842.683 1.305 1.342 1.305 1.856v6.053h-1.751v-4.709c-.018-.437-.352-.784-.76-.784zm.218-4.342c-.138-.073-.299-.073-.437 0-.193.102-1.246.677-2.11 1.523.449-1.057 1.625-2.073 2.329-2.577.704.503 1.883 1.519 2.331 2.578-.865-.847-1.919-1.422-2.112-1.524zm13.775 9.899l-7.786-.002v-11.768h7.786v11.77zm-20.201-11.77v11.765l-7.787-.002v-11.762h7.787zm14.672-7.54c.148 0 .272.106.315.252-.086-.077-.195-.125-.315-.125-.121 0-.229.048-.316.125.042-.145.167-.252.316-.252zm-8.465-9.185c.053 0 .098.048.098.106 0 .058-.044.106-.098.106-.053 0-.098-.048-.098-.106 0-.058.044-.106.098-.106zm-1.732 6.998c.598-.502 1.208-1.015 1.732-1.586.523.571 1.134 1.083 1.732 1.586 1.529 1.284 2.973 2.497 2.973 4.48 0 .971-.31 1.713-.69 2.259h-8.028c-.381-.546-.691-1.289-.691-2.259 0-1.983 1.444-3.196 2.973-4.48zm-6.733 2.187c.149 0 .273.106.315.252-.086-.077-.194-.125-.315-.125-.12 0-.229.048-.316.125.043-.145.168-.252.316-.252zm19.177-3.714h.001l.024.028c.092.1.218.157.352.157.108 0 .212-.038.299-.107.117-.093.19-.238.2-.395.008-.119-.022-.238-.082-.337l-.04-.057v-.001l-.024-.028c-.093-.1-.219-.157-.352-.157-.107 0-.212.038-.298.107-.117.094-.19.239-.2.395-.008.119.021.238.081.337l.04.057zm-19.01-1.733c.276 0 .5-.243.5-.541 0-.298-.224-.541-.5-.541-.275 0-.5.243-.5.541 0 .298.224.541.5.541zm13.571-1.024l.416.246.227.45c.087.173.255.281.438.281.182 0 .351-.108.438-.281l.227-.45.416-.246c.16-.095.26-.277.26-.474 0-.197-.1-.379-.26-.475l-.416-.245-.227-.449c-.087-.174-.256-.282-.438-.282-.183 0-.351.108-.438.282l-.227.449-.416.245c-.16.095-.26.277-.26.475 0 .197.1.379.26.474z" fill="#3A434E"/></g></g></svg>