<svg width="32" height="232" viewBox="0 0 32 232" xmlns="http://www.w3.org/2000/svg"><desc>Created with Sketch.</desc><g fill="none"><path d="M5.724 125.678c.21.2.48.312.76.312h1.59l-.006.094c0 .31.124.606.34.812.183.174.418.27.66.27h3.342c.552 0 1-.484 1-1.08 0-.598-.448-1.083-1-1.083h-.096l.025-.256c0-.686-.52-1.245-1.16-1.245h-4.7c-.28 0-.55.11-.76.31-.25.237-.4.578-.4.934 0 .356.14.697.39.933zm.605-1.125c.03-.03.08-.064.15-.064h4.7c.13 0 .23.11.23.25s-.11.25-.24.25c-.26 0-.46.22-.46.49s.2.49.45.49h1.23c.05 0 .09.04.09.09s-.04.09-.09.09H9.07l-.057-.02-.03-.07.03-.07.057-.03h.002c.252 0 .457-.22.457-.5s-.21-.49-.46-.49H6.48c-.073 0-.125-.04-.156-.07-.03-.03-.08-.09-.08-.19s.05-.16.08-.19zm25.59 22.474c0-.546-.41-.988-.92-.988h-9.99l-.84-.4-.72-.39 3.3-.42.12-.04 1.91-.89.08-.05.87-.66.09-.09.83-1.07 1.34.16c.15.02.29-.05.39-.17l.92-1.14 1.57-.61c.236-.09.36-.38.274-.63-.088-.26-.35-.39-.587-.3l-1.685.65c-.07.024-.13.072-.19.14l-.84 1.032-.41-.05-.94-.11c-.15-.017-.3.05-.4.174l-.95 1.22-.784.59-1.107.51-2.06-.85-.05-.016-1.97-.55-.07-.01-2.643-.3-.716-.08.17-.1.13-.08h4.58c.16 0 .31-.09.39-.24l.586-1.06 2.38-.89 1.83-.68h.002l1.4-.513c.24-.09.37-.37.29-.626-.08-.26-.34-.4-.58-.31l-.86.31-.22-2.23v-2.52l-.02-.22h3.426c.28 0 .55-.11.76-.31.25-.24.39-.58.39-.934 0-.36-.15-.7-.4-.938-.21-.205-.48-.315-.76-.315h-1.59l.005-.094c0-.31-.126-.607-.34-.81-.185-.177-.42-.27-.66-.27h-1.91l-.49-1.58-.107-.19-1.276-1.394c-.11-.12-.27-.17-.42-.135-.15.035-.28.15-.334.307l-.565 1.58-.03.165-.06 1.92-.11.58-.41-.51c-.1-.123-.243-.186-.39-.17-.15.016-.28.11-.35.247l-.644 1.3c-.04.07-.06.16-.06.24v2.815l-.34.134-.294-.436-.273-2.39h.066c.26 0 .46-.22.46-.498s-.2-.494-.45-.494h-.17l-.01-.14-.2-2.61c-.01-.17-.1-.318-.24-.397-.133-.08-.3-.08-.433.003l-1.19.71c-.13.08-.22.22-.23.384l-.13 1.58-.038.46H13.1l-.25-.378c-.143-.217-.42-.27-.623-.126l-.708.506H10.2c-.253 0-.457.22-.457.493s.21.49.46.49h.64l-.193.502-.034.19v2.01l-.396 1.29-.582.76-.23-2v-1.79l-.04-.2-.97-2.37-.113-.167-1.08-1.045c-.133-.13-.324-.163-.49-.085-.163.08-.27.255-.272.45l-.013 1.92-.29.853-.12-.056c-.19-.086-.41-.03-.54.143l-.69.91c-.06.07-.09.16-.1.25l-.19 1.76-.01.06v2.7l-.41-.357-.18-.095-2.08-.57c-.25-.07-.5.09-.56.354-.067.26.08.53.33.6l1.973.55 1.07.94 1.44 1.324c.07.065.16.105.252.115l3.345.34 2.974.286.035.61c.01.21.15.392.34.45l2.44.672.06.01 3.46.39 1.91.54.19.075.65.27-1.93.24-1.87.23-.033.01-1.87-.83c-.39-.2-1.61-.823-1.8-.9-.153-.054-1.047-.19-2.66-.39L9.1 142l-.876-.7c-.08-.06-.173-.096-.27-.096H6.09l-1.57-.183-1.703-.46-.11-.01h-.99c-.253 0-.457.22-.457.5s.205.5.457.5h.933l1.676.46.06.01.987.12.64.08.05.01h1.755l.853.68c.07.05.14.086.22.096l2.62.323c1.07.134 2.28.3 2.47.35.15.064.98.48 1.72.86l.03.01 1.93.85 1.21.65.29.15-.52-.15H.92c-.505 0-.914.44-.914.99 0 .43.26.8.617.93.08.076.183.12.296.12.28 0 .39.05.55.12.2.083.44.186.89.186s.68-.1.88-.183c.16-.064.27-.113.55-.113s.39.05.55.116c.19.08.43.186.88.186s.69-.103.88-.185c.16-.07.28-.12.55-.12s.39.05.55.12c.19.08.44.18.88.18s.68-.1.88-.185c.16-.07.28-.12.55-.12s.39.05.55.12c.19.08.44.187.88.187s.68-.105.88-.187c.16-.07.28-.117.55-.117s.39.05.55.12c.19.084.44.19.88.19s.68-.1.88-.19c.16-.07.28-.114.55-.114s.39.05.55.12c.19.08.44.186.88.186s.68-.107.88-.19c.16-.07.27-.116.55-.116s.39.05.55.12c.19.08.43.18.88.18.44 0 .68-.1.88-.183.16-.07.28-.12.55-.12s.39.05.55.12c.19.08.44.19.88.19s.68-.1.88-.185c.16-.07.28-.12.55-.12s.39.05.55.117c.19.08.44.19.88.19s.68-.1.88-.185c.16-.067.28-.116.55-.116s.39.05.55.12c.19.08.44.185.88.185s.68-.104.88-.186c.16-.07.27-.12.55-.12s.39.05.55.12c.19.08.44.185.88.185.25 0 .45-.22.45-.493v-.01c.277-.17.46-.49.46-.85zm-18.33-5.885l-.04-.677c-.02-.244-.19-.442-.42-.463l-2.98-.288-.22-.02v-1.82l-.01-.1-.08-.392.11-.154.99-1.29.08-.16.44-1.455.02-.155v-1.99l.32-.827.52-.37.26.41.02.04.05 1.94-.37 1.08-.45.07c-.226.04-.394.24-.394.49v1.54c0 .28.205.5.46.5.25 0 .454-.22.454-.49v-1.1l.33-.05c.17-.02.31-.14.37-.32l.42-1.25.326-.16.2.44v1.544l.02.136.335 1.294.01.017c.054.19.21.33.4.34l.843.07-.11.33-.01.05-.74 3.34-.06.033-.11.06-.12.108-.9-.25zm2.34-9.758l-.02.27-.01.04v2.506l.13 2.053-.09.258-.78-.06-.23-.89v-1.59l-.05-.21-.44-.97c-.11-.24-.38-.34-.6-.23l-.28.14-.04-1.29h2.38zm.99-.988l.03-.376.11-1.32.35-.213.14 1.86v.05l.42 3.626c.01.084.03.163.08.23l.57.84.01.018.04.06v.01l1.254 1.19.96 1.84c.09.16.24.25.4.25.08 0 .16-.02.23-.06.22-.13.3-.43.17-.67l-1-1.91-.093-.12-.73-.69.246-.1c.18-.07.3-.25.3-.46v-3.03l.29-.55.6.75.01.01.044.05.01.01.05.04.02.01.07.03h.01l.08.02h.01l.388.048.17.02.59.73.04 1.257c.006.27.21.48.455.48h.012c.253-.01.45-.236.443-.51l-.047-1.432c0-.112-.04-.222-.11-.31l-.82-1.01c-.08-.09-.18-.15-.3-.16l-.23-.025.2-1.08.01-.08.05-1.873.28-.79.7.77.49 1.58.03.066.02.05.27.45.11.186.01.016.284.474.088.147.03.29.18 1.86v2.526l.244 2.48-1.49.55-2.545.95c-.1.04-.19.112-.24.213l-.085.16v.003l-.446.813h-4.43l-.11.01.54-2.46.54-1.63.025-.2-.136-2.133v-2.43l.106-1.32zm9.76-.493l.05.024.03.07-.03.07-.06.024c-.25 0-.46.23-.46.5s.204.5.456.5h2.586c.07 0 .122.04.153.07.03.03.08.09.08.19s-.05.17-.08.19c-.03.03-.083.07-.156.07h-3.52l-.1-1.08c-.01-.08-.03-.15-.07-.22l-.23-.39h1.34zm-21.3 4.883l.17-1.595.36-.47v1.06c0 .28.2.5.46.5s.45-.22.45-.49v-1.34l.46-1.34.02-.16.01-.89.252.25.896 2.18v1.78l.24 2.125.005.04.294 1.534v1.676l-2.46-.25-1.176-1.08v-3.49zm9.71-8.94h2.34c.25 0 .45-.22.45-.494s-.21-.494-.46-.494H15.1c-.253 0-.457.22-.457.494s.204.494.456.494m.08-1.358h5.76c.25 0 .45-.22.45-.494s-.2-.494-.45-.494h-5.77c-.26 0-.46.22-.46.494s.2.494.46.494" fill="#206FAC"/><path d="M5.724 85.678c.21.2.48.312.76.312h1.59l-.006.094c0 .31.124.606.34.812.183.174.418.27.66.27h3.342c.552 0 1-.484 1-1.08 0-.598-.448-1.083-1-1.083h-.096l.025-.256c0-.686-.52-1.245-1.16-1.245h-4.7c-.28 0-.55.11-.76.31-.25.237-.4.578-.4.934 0 .356.14.697.39.933zm.605-1.125c.03-.03.08-.064.15-.064h4.7c.13 0 .23.11.23.25s-.11.25-.24.25c-.26 0-.46.22-.46.49s.2.49.45.49h1.23c.05 0 .09.04.09.09s-.04.09-.09.09H9.07l-.057-.02-.03-.07.03-.07.057-.03h.002c.252 0 .457-.22.457-.5S9.32 85 9.07 85H6.487c-.073 0-.125-.034-.156-.063-.03-.03-.08-.092-.08-.192s.05-.163.08-.192zm25.59 22.474c0-.546-.41-.988-.92-.988h-9.99l-.84-.4-.72-.39 3.3-.42.12-.04 1.91-.89.08-.05.87-.66.09-.09.83-1.07 1.34.16c.15.02.29-.05.39-.17l.92-1.14 1.57-.61c.236-.09.36-.38.274-.63-.088-.26-.35-.39-.587-.3l-1.685.65c-.07.024-.13.072-.19.14l-.84 1.032-.41-.05-.94-.11c-.15-.017-.3.05-.4.174l-.95 1.22-.784.59-1.107.51-2.06-.85-.05-.016-1.97-.55-.07-.01-2.643-.3-.716-.08.17-.1.13-.08h4.58c.16 0 .31-.09.39-.24l.586-1.06 2.4-.874 1.83-.676h.002l1.4-.513c.24-.09.37-.37.29-.62-.08-.26-.34-.4-.58-.31l-.855.31-.22-2.23v-2.5l-.02-.22h3.42c.28 0 .55-.11.76-.31.25-.23.39-.57.39-.93 0-.352-.15-.692-.4-.93-.21-.21-.48-.32-.76-.32h-1.59v-.1c0-.31-.127-.61-.34-.81-.186-.18-.42-.27-.66-.27h-1.91l-.49-1.58-.11-.19-1.27-1.396c-.11-.12-.27-.17-.42-.134-.15.033-.28.15-.336.305l-.56 1.58-.03.168-.06 1.92-.11.58-.41-.51c-.097-.12-.244-.182-.39-.17-.15.02-.28.11-.35.25L19.565 91c-.04.07-.06.16-.06.24v2.818l-.342.13-.296-.433-.275-2.39h.07c.26 0 .46-.22.46-.497s-.2-.493-.46-.493h-.17l-.01-.14-.2-2.61c-.01-.17-.1-.32-.24-.398-.13-.08-.3-.08-.43.003l-1.19.71c-.13.08-.22.226-.23.39l-.13 1.58-.033.463H13.1L12.85 90c-.145-.216-.42-.27-.625-.125l-.708.502H10.2c-.253 0-.457.22-.457.494s.21.49.46.49h.64l-.193.51-.034.19v2.01l-.396 1.29-.582.76-.23-2v-1.79l-.04-.2-.97-2.37-.113-.16-1.08-1.05c-.133-.13-.324-.16-.49-.08-.163.08-.27.26-.272.45l-.013 1.91-.29.86-.12-.05c-.19-.08-.41-.03-.54.15l-.69.915c-.055.074-.09.16-.1.256l-.2 1.76-.004.06v2.7l-.408-.35-.18-.1-2.078-.573c-.245-.07-.495.09-.558.356-.064.26.083.53.33.6l1.976.55 1.07.936 1.44 1.325c.07.07.16.11.256.12l3.35.34 2.974.287.033.61c.02.215.15.397.35.45l2.45.677.07.016 3.46.39 1.92.533.19.077.65.27-1.93.246-1.86.233-.03.01-1.87-.83c-.39-.2-1.61-.83-1.8-.9-.15-.06-1.05-.19-2.66-.4l-2.5-.31-.88-.7c-.08-.06-.17-.096-.27-.096h-1.9l-1.57-.184-1.7-.46-.11-.01h-.99c-.25 0-.45.22-.45.494s.207.5.46.5h.935l1.675.45.06.01.99.115.64.077.05.003h1.76l.855.68c.064.05.14.08.22.09l2.62.324c1.07.134 2.27.3 2.47.35.15.064.977.482 1.713.86l.024.01 1.927.855 1.21.65.28.156-.52-.15H.92c-.505 0-.914.445-.914.99 0 .43.26.8.617.935.08.07.183.12.296.12.27 0 .39.05.55.11.2.086.44.19.88.19s.68-.1.88-.18c.16-.07.27-.116.55-.116s.38.05.55.112c.19.086.43.19.88.19s.68-.1.88-.18c.16-.07.28-.12.55-.12s.39.05.55.117c.19.08.44.184.88.184s.68-.105.88-.187c.16-.07.27-.12.55-.12s.39.05.55.12c.19.08.43.184.88.184s.68-.1.88-.18c.16-.07.28-.117.55-.117s.39.05.55.117c.19.08.44.183.88.183s.68-.104.88-.186c.16-.065.28-.114.55-.114s.39.05.55.115c.19.08.44.19.88.19s.68-.1.88-.184c.16-.063.28-.11.55-.11s.39.05.55.114c.19.084.44.187.88.187s.68-.1.88-.18c.16-.07.28-.12.55-.12s.39.05.55.12c.19.08.44.184.88.184s.68-.1.88-.185c.16-.07.28-.12.55-.12s.39.05.55.117c.19.085.44.188.88.188s.683-.1.88-.182c.16-.07.28-.12.55-.12s.39.05.55.118c.194.085.44.188.88.188s.69-.1.883-.18c.16-.065.277-.114.55-.114s.39.05.55.115c.195.085.44.19.88.19.255 0 .46-.22.46-.495v-.01c.27-.17.457-.49.457-.86zm-18.33-5.885l-.04-.677c-.02-.244-.19-.442-.42-.463l-2.98-.288-.22-.02v-1.82l-.01-.1-.08-.392.11-.154.99-1.29.08-.16.44-1.455.02-.155v-1.99l.32-.827.52-.37.26.41.02.04.05 1.94-.37 1.08-.45.07c-.226.04-.394.24-.394.49v1.54c0 .28.205.5.46.5.25 0 .454-.22.454-.49v-1.11l.33-.05c.17-.02.31-.15.37-.32l.42-1.25.326-.16.2.44v1.55l.02.133.335 1.29.01.02c.054.19.21.32.4.34l.843.07-.11.33-.01.05-.74 3.33-.06.037-.11.06-.12.1-.9-.25zm2.34-9.758l-.02.27-.01.04V94.2l.13 2.053-.09.258-.78-.06-.23-.89v-1.6l-.05-.21-.44-.97c-.11-.24-.38-.34-.6-.23l-.28.14-.04-1.29h2.38zm.99-.988l.03-.376.11-1.32.35-.213.14 1.86v.05l.42 3.626c.01.084.03.163.08.23l.57.84.01.018.04.06v.01l1.254 1.19.96 1.84c.09.16.24.25.4.25.08 0 .16-.02.23-.06.22-.13.3-.43.17-.67l-1-1.91-.093-.12-.73-.69.246-.1c.18-.07.3-.25.3-.46V91.4l.29-.556.6.75.01.01.044.046.01.01.05.04.02.014.07.03h.01l.08.02h.01l.388.05.17.02.59.73.04 1.256c.006.267.21.478.455.478h.012c.253-.01.45-.235.443-.51l-.047-1.43c0-.115-.04-.225-.11-.31l-.82-1.008c-.08-.096-.18-.155-.3-.168l-.23-.024.2-1.08.01-.08.05-1.874.28-.79.7.77.49 1.58.03.065.02.04.27.45.11.18.01.01.284.47.088.144.03.29.18 1.855v2.523l.244 2.48-1.49.55-2.545.942c-.1.04-.19.11-.24.212l-.085.16v.002l-.446.814h-4.43l-.11.012.54-2.468.54-1.63.025-.2-.136-2.14V91.7l.106-1.32zm9.76-.493l.05.024.03.07-.03.07-.06.024c-.25 0-.46.23-.46.5s.204.5.456.5h2.586c.07 0 .122.04.153.07.03.03.08.09.08.19s-.05.17-.08.19c-.03.03-.083.07-.156.07h-3.52l-.1-1.08c-.01-.08-.03-.15-.07-.22l-.23-.39h1.34zM5.4 94.786l.173-1.595.36-.47v1.06c0 .28.204.5.456.5s.46-.22.46-.49v-1.35l.45-1.34.03-.16.01-.89.25.25.89 2.18v1.78l.24 2.13v.04l.29 1.533v1.67l-2.46-.25-1.16-1.09V94.8zm9.71-8.94h2.34c.255 0 .46-.22.46-.494s-.2-.494-.454-.494h-2.342c-.253 0-.457.22-.457.494s.205.494.457.494m.076-1.358h5.766c.253 0 .457-.22.457-.494s-.204-.494-.456-.494H15.19c-.253 0-.457.22-.457.494s.206.494.458.494" fill="#fff"/><path d="M5.724 45.678c.21.2.48.312.76.312h1.59l-.006.094c0 .31.124.606.34.812.183.174.418.27.66.27h3.342c.552 0 1-.484 1-1.08 0-.598-.448-1.083-1-1.083h-.096l.025-.256c0-.686-.52-1.245-1.16-1.245h-4.7c-.28 0-.55.11-.76.31-.25.237-.4.578-.4.934 0 .356.14.697.39.933zm.605-1.125c.03-.03.08-.064.15-.064h4.7c.13 0 .23.11.23.25s-.11.25-.24.25c-.26 0-.46.22-.46.49s.2.49.45.49h1.23c.05 0 .09.04.09.09s-.04.09-.09.09H9.07l-.057-.02-.03-.07.03-.07.057-.03h.002c.252 0 .457-.22.457-.5S9.32 45 9.07 45H6.487c-.073 0-.125-.034-.156-.063-.03-.03-.08-.092-.08-.192s.05-.163.08-.192zm25.59 22.474c0-.546-.41-.988-.92-.988h-9.99l-.84-.4-.72-.39 3.3-.42.12-.04 1.91-.89.08-.05.87-.66.09-.09.83-1.07 1.34.16c.15.02.3-.05.4-.17l.92-1.14 1.572-.61c.24-.09.36-.38.275-.63-.088-.26-.35-.39-.587-.3l-1.68.65c-.074.024-.14.072-.19.14l-.84 1.032-.41-.05-.94-.11c-.15-.017-.3.05-.4.174l-.95 1.22-.79.59-1.11.51-2.063-.85-.04-.02-1.976-.55-.07-.01-2.643-.3-.717-.08.17-.1.13-.08h4.58c.16 0 .31-.09.392-.24l.587-1.06L24 59.32l1.83-.67h.004l1.4-.516c.24-.09.37-.37.29-.63-.08-.258-.34-.397-.58-.31l-.853.314-.22-2.23v-2.5l-.02-.226h3.42c.28 0 .55-.11.76-.31.25-.238.398-.58.398-.935 0-.355-.148-.695-.397-.93-.21-.21-.48-.32-.76-.32H27.7l.005-.1c0-.31-.124-.61-.34-.81-.183-.18-.418-.27-.66-.27h-1.91l-.487-1.58-.108-.19-1.274-1.4c-.11-.12-.267-.17-.42-.132-.15.033-.277.15-.333.305l-.564 1.58-.03.164-.06 1.92-.11.58-.41-.51c-.1-.12-.25-.186-.39-.17-.15.016-.28.11-.35.25l-.68 1.3c-.04.07-.06.16-.06.24v2.817l-.35.13-.3-.43-.28-2.39h.066c.252 0 .456-.22.456-.493s-.206-.493-.458-.493h-.17l-.02-.14-.2-2.61c-.02-.17-.11-.32-.24-.397-.14-.08-.3-.08-.44.003l-1.19.71c-.13.08-.22.224-.24.39l-.13 1.58-.04.46h-2.92l-.25-.373c-.15-.217-.42-.27-.63-.126l-.705.505h-1.31c-.254 0-.458.22-.458.496s.21.49.46.49h.64l-.19.5-.03.19v2.01l-.4 1.29-.583.76-.23-2v-1.79l-.04-.2-.97-2.37-.11-.17-1.08-1.05c-.135-.13-.326-.16-.49-.09-.165.08-.27.256-.274.45l-.01 1.92-.29.85-.12-.06c-.19-.08-.41-.03-.54.15l-.69.914c-.054.07-.09.16-.1.25l-.2 1.76-.003.06v2.71l-.41-.35-.18-.1-2.08-.57c-.25-.07-.5.09-.56.35-.07.265.08.535.33.6l1.97.55 1.07.938 1.44 1.33c.07.065.16.105.25.115l3.35.34 2.975.29.03.61c.01.215.15.397.34.45l2.45.677.06.016 3.46.39 1.913.535.188.07.65.27-1.93.25-1.87.237-.03.01-1.87-.83c-.39-.2-1.61-.826-1.8-.9-.156-.06-1.05-.19-2.66-.395l-2.5-.31-.88-.7c-.08-.06-.17-.096-.27-.096H6.08l-1.57-.186-1.7-.46-.11-.015h-.99c-.253 0-.457.22-.457.493s.205.495.457.495h.935L4.32 62l.06.01.99.12.64.08.05.003h1.76l.86.68c.07.05.14.084.22.094l2.62.326c1.07.137 2.27.304 2.47.35.15.067.98.485 1.72.864l.03.01 1.93.855 1.21.646.285.157-.52-.15H.92c-.505 0-.914.443-.914.99 0 .43.26.8.617.933.08.072.183.12.296.12.27 0 .39.05.55.12.2.08.44.183.88.183s.68-.1.88-.18c.16-.07.27-.12.55-.12s.38.05.55.12c.19.09.43.19.88.19s.68-.1.88-.18c.16-.07.28-.12.55-.12s.39.05.55.12c.19.08.44.184.88.184s.68-.104.88-.186c.16-.07.27-.117.55-.117s.39.05.55.12c.19.083.43.186.88.186s.68-.1.88-.185c.16-.07.28-.114.55-.114s.39.05.55.115c.19.08.44.186.88.186s.68-.1.88-.18c.16-.068.28-.117.55-.117s.39.05.55.113c.19.08.44.184.88.184s.68-.1.88-.18c.16-.064.28-.11.55-.11s.39.05.55.114c.19.085.44.188.88.188s.68-.1.88-.183c.16-.07.28-.117.55-.117s.39.05.55.116c.19.09.44.19.88.19s.68-.1.88-.18c.16-.066.28-.115.55-.115s.39.05.55.116c.19.08.44.186.88.186s.683-.1.88-.182c.16-.07.28-.12.55-.12s.39.05.55.117c.194.084.44.187.88.187s.69-.1.883-.182c.16-.066.277-.115.55-.115s.39.05.55.11c.195.08.44.186.88.186.255 0 .46-.22.46-.495v-.01c.27-.17.457-.49.457-.86zm-18.33-5.885l-.04-.677c-.02-.244-.19-.442-.42-.463l-2.98-.288-.22-.02v-1.82l-.01-.1-.08-.392.11-.154.99-1.29.08-.16.44-1.455.02-.155v-1.99l.32-.827.52-.37.26.41.02.04.05 1.94-.37 1.08-.45.07c-.23.04-.397.24-.397.49v1.54c0 .28.204.5.46.5.25 0 .453-.22.453-.49v-1.11l.33-.05c.17-.02.31-.15.37-.32l.42-1.25.323-.16.2.44v1.55l.02.133.333 1.29.006.02c.057.19.214.32.4.34l.846.07-.11.33-.01.05-.74 3.33-.06.037-.11.06-.12.1-.9-.25zm2.34-9.758l-.02.27-.01.04V54.2l.13 2.053-.09.258-.78-.06-.23-.89v-1.6l-.05-.21-.44-.97c-.11-.24-.38-.34-.6-.23l-.28.14-.04-1.29h2.38zm.99-.988l.03-.376.11-1.32.35-.213.14 1.86v.05l.42 3.626c.01.084.04.163.08.23l.57.84.01.018.04.06.005.01 1.25 1.19.96 1.84c.09.16.24.25.4.25.08 0 .157-.02.23-.06.22-.13.296-.43.17-.67l-1-1.91-.1-.12-.73-.69.246-.1c.18-.07.3-.25.3-.46V51.4l.293-.556.595.75.01.01.042.046.014.01.05.04.02.014.067.03h.01l.08.02h.01l.388.05.17.02.59.73.036 1.256c.003.267.21.478.452.478h.014c.258-.01.45-.235.448-.51l-.04-1.43c-.005-.115-.046-.225-.116-.31l-.82-1.008c-.08-.096-.18-.155-.3-.168l-.237-.024.2-1.08.01-.08.056-1.874.28-.79.7.77.49 1.58.03.065.02.04.27.45.11.18.01.01.287.47.086.144.03.29.18 1.855v2.523l.243 2.48-1.5.55-2.545.942c-.1.04-.19.11-.242.212l-.082.16v.002l-.45.814h-4.43l-.11.012.547-2.468.538-1.63.024-.2-.13-2.14V51.7l.11-1.32zm9.76-.493l.06.024.03.07-.03.07-.06.024c-.26 0-.46.23-.46.5s.2.5.45.5h2.58c.07 0 .12.04.152.07.03.03.08.09.08.19s-.05.17-.08.19c-.03.03-.08.07-.15.07h-3.51l-.1-1.08c-.007-.08-.03-.15-.07-.22l-.23-.39h1.34zM5.4 54.786l.173-1.595.36-.47v1.06c0 .28.204.5.456.5s.46-.22.46-.49v-1.35l.45-1.34.03-.16.01-.89.25.25.89 2.18v1.78l.24 2.13v.04l.29 1.533v1.67l-2.46-.25-1.16-1.09V54.8zm9.71-8.94h2.34c.255 0 .46-.22.46-.494s-.2-.494-.454-.494h-2.342c-.253 0-.457.22-.457.494s.205.494.457.494m.076-1.358h5.766c.253 0 .457-.22.457-.494s-.204-.494-.456-.494H15.19c-.253 0-.457.22-.457.494s.206.494.458.494" fill="#67737B"/><path d="M5.724 5.678c.21.2.48.312.76.312h1.59l-.006.094c0 .31.124.606.34.812.183.174.418.27.66.27h3.342c.552 0 1-.484 1-1.08 0-.598-.448-1.083-1-1.083h-.096l.025-.256c0-.686-.52-1.245-1.16-1.245h-4.7c-.28 0-.55.11-.76.31-.25.237-.4.578-.4.934 0 .356.14.697.39.933zm.605-1.125c.03-.03.08-.064.15-.064h4.7c.13 0 .23.11.23.25s-.11.25-.24.25c-.26 0-.46.22-.46.49s.2.49.45.49h1.23c.05 0 .09.04.09.09s-.04.09-.09.09H9.07l-.057-.02-.03-.07.03-.07.057-.03h.002c.252 0 .457-.22.457-.5S9.32 5 9.07 5H6.487c-.073 0-.125-.034-.156-.063-.03-.03-.08-.092-.08-.192s.05-.163.08-.192zm25.59 22.474c0-.546-.41-.988-.92-.988h-9.99l-.84-.4-.72-.39 3.3-.42.12-.04 1.91-.89.08-.05.87-.66.09-.09.83-1.07 1.34.16c.15.02.3-.05.4-.17l.92-1.14 1.572-.61c.24-.09.36-.38.275-.63-.088-.26-.35-.39-.587-.3l-1.68.65c-.074.024-.14.072-.19.14l-.84 1.032-.41-.05-.94-.11c-.15-.017-.3.05-.4.174l-.95 1.22-.79.59-1.11.51-2.063-.85-.04-.02-1.976-.55-.07-.01-2.643-.3-.717-.08.17-.1.13-.08h4.58c.16 0 .31-.09.392-.24l.587-1.06L24 19.32l1.83-.67h.004l1.4-.516c.24-.09.37-.37.29-.63-.08-.258-.34-.397-.58-.31l-.853.314-.22-2.23v-2.5l-.02-.226h3.42c.28 0 .55-.11.76-.31.25-.238.398-.58.398-.935 0-.355-.148-.695-.397-.93-.21-.21-.48-.32-.76-.32H27.7l.005-.1c0-.31-.124-.61-.34-.81-.183-.18-.418-.27-.66-.27h-1.91l-.487-1.58-.108-.19-1.274-1.4c-.11-.12-.267-.17-.42-.132-.15.033-.277.15-.333.305l-.56 1.58-.03.163-.06 1.92-.106.58-.41-.51c-.096-.12-.243-.18-.39-.17-.147.02-.278.11-.352.25l-.67 1.28c-.04.075-.06.16-.06.245v2.82l-.345.136-.295-.435-.275-2.39h.064c.25 0 .458-.22.458-.49s-.205-.5-.457-.5h-.18l-.016-.14-.2-2.615c-.02-.17-.11-.318-.24-.397-.14-.08-.3-.078-.44.004l-1.19.71c-.13.08-.22.226-.24.39l-.14 1.58-.04.465h-2.92l-.25-.378c-.15-.215-.42-.27-.63-.124l-.71.504h-1.31c-.26 0-.46.22-.46.492s.2.49.46.49h.63l-.2.5-.04.19v2.01l-.396 1.29-.58.76-.23-2v-1.79l-.04-.2-.97-2.368-.11-.17L7.19 8.55c-.133-.13-.324-.164-.49-.086-.163.076-.27.252-.272.446l-.012 1.905-.29.854L6 11.62c-.186-.08-.405-.03-.535.15l-.69.912c-.053.073-.09.16-.1.255L4.49 14.7l-.004.058v2.706l-.407-.355-.18-.1-2.08-.58c-.25-.07-.5.09-.56.35-.07.26.08.53.33.6l1.97.55 1.07.93 1.45 1.34c.07.06.16.1.25.11l3.35.34 2.97.29.03.61c.01.21.15.39.34.45l2.44.67.06.01 3.46.39 1.91.53.186.07.652.27-1.93.24-1.87.23-.03.01-1.87-.83c-.39-.2-1.61-.83-1.8-.9-.16-.06-1.05-.19-2.66-.4l-2.5-.31-.88-.7c-.08-.064-.17-.1-.27-.1H6.08L4.51 21l-1.7-.46-.11-.01h-.99c-.253 0-.457.22-.457.49s.205.496.457.496h.935L4.32 22l.06.01.99.117.64.08.05.003h1.76l.857.68c.064.052.14.084.22.094l2.62.324c1.07.138 2.27.305 2.47.35.15.068.977.486 1.713.865l.024.01 1.926.856 1.21.64.283.15-.517-.15H.92c-.505 0-.914.44-.914.99 0 .43.26.8.617.93.08.07.183.12.296.12.27 0 .39.05.55.12.2.08.44.18.88.18s.68-.1.88-.19c.16-.07.27-.12.55-.12s.38.05.55.11c.19.083.43.19.88.19s.68-.1.88-.187c.16-.07.28-.12.55-.12s.39.05.55.114c.19.08.44.184.88.184s.68-.103.88-.185c.16-.07.27-.116.55-.116s.39.05.55.117c.19.085.43.19.88.19s.68-.1.88-.185c.16-.07.28-.12.55-.12s.39.05.55.117c.19.08.44.182.88.182s.68-.1.88-.18c.16-.067.28-.116.55-.116s.39.05.55.114c.19.08.44.19.88.19s.68-.1.88-.187c.16-.06.28-.11.55-.11s.39.05.55.117c.19.083.44.186.88.186s.68-.104.88-.186c.16-.07.28-.12.55-.12s.39.05.55.12c.19.08.44.183.88.183s.68-.102.88-.184c.16-.07.28-.12.55-.12s.39.05.55.115c.19.08.44.185.88.185s.683-.1.88-.182c.16-.07.28-.12.55-.12s.39.05.55.115c.194.085.44.188.88.188s.69-.1.883-.18c.16-.063.277-.112.55-.112s.39.05.55.116c.195.083.44.19.88.19.255 0 .46-.22.46-.49v-.01c.27-.17.457-.49.457-.86zm-18.33-5.885l-.04-.677c-.02-.244-.19-.442-.42-.463l-2.98-.288-.22-.02v-1.82l-.01-.1-.08-.392.11-.154.99-1.29.08-.16.44-1.455.02-.155v-1.99l.32-.827.52-.37.26.41.02.04.05 1.94-.37 1.08-.45.07c-.23.04-.397.24-.397.49v1.54c0 .28.204.5.46.5.25 0 .453-.22.453-.49v-1.11l.33-.05c.17-.02.31-.15.37-.32l.42-1.25.323-.16.2.44v1.55l.02.133.333 1.29.006.02c.057.19.214.32.4.34l.846.07-.11.33-.01.05-.74 3.33-.06.037-.11.06-.12.1-.9-.25zm2.34-9.758l-.02.27-.01.04V14.2l.13 2.053-.09.258-.78-.06-.23-.89v-1.6l-.05-.21-.44-.97c-.11-.24-.38-.34-.6-.23l-.28.14-.04-1.29h2.38zm.99-.988l.03-.376.11-1.32.35-.213.14 1.86v.05l.42 3.626c.01.084.04.163.08.23l.57.84.01.018.04.06.005.01 1.25 1.19.96 1.84c.09.16.24.25.4.25.08 0 .157-.02.23-.06.22-.13.296-.43.17-.67l-1-1.91-.1-.12-.73-.69.246-.1c.18-.07.3-.25.3-.46V11.4l.293-.556.595.75.01.01.042.046.014.01.05.04.02.014.067.03h.01l.08.02h.01l.388.05.17.02.59.73.036 1.256c.003.267.21.478.452.478h.014c.258-.01.45-.235.448-.51l-.04-1.43c-.005-.115-.046-.225-.116-.31l-.82-1.008c-.08-.096-.18-.155-.3-.168l-.237-.024.2-1.08.01-.08.056-1.874.28-.79.7.77.49 1.58.03.065.02.04.27.45.11.18.01.01.287.47.086.144.03.29.18 1.855v2.523l.243 2.48-1.5.55-2.545.942c-.1.04-.19.11-.242.212l-.082.16v.002l-.45.814h-4.43l-.11.012.547-2.468.538-1.63.024-.2-.13-2.14V11.7l.11-1.32zm9.76-.493l.06.024.03.07-.03.07-.06.024c-.26 0-.46.23-.46.5s.2.5.45.5h2.58c.07 0 .12.04.152.07.03.03.08.09.08.19s-.05.17-.08.19c-.03.03-.08.07-.15.07h-3.51l-.1-1.08c-.007-.08-.03-.15-.07-.22l-.23-.39h1.34zM5.4 14.786l.173-1.595.36-.47v1.06c0 .28.204.5.456.5s.46-.22.46-.49v-1.35l.45-1.34.03-.16.01-.89.25.25.89 2.18v1.78l.24 2.13v.04l.29 1.533v1.67l-2.46-.25-1.16-1.09V14.8zm9.71-8.94h2.34c.255 0 .46-.22.46-.494s-.2-.494-.454-.494h-2.342c-.253 0-.457.22-.457.494s.205.494.457.494m.076-1.358h5.766c.253 0 .457-.22.457-.494s-.204-.494-.456-.494H15.19c-.253 0-.457.22-.457.494s.206.494.458.494" fill="#373D43"/></g></svg>