<svg width="32" height="232" viewBox="0 0 32 232" xmlns="http://www.w3.org/2000/svg"><title>flores-indonesia</title><desc>Created with Sketch.</desc><g fill="none"><path d="M5.724 125.678c.21.2.48.312.76.312h1.59l-.006.094c0 .31.124.606.34.812.183.174.418.27.66.27h3.342c.552 0 1-.484 1-1.08 0-.598-.448-1.083-1-1.083h-.096l.025-.256c0-.686-.518-1.245-1.153-1.245H6.484c-.28 0-.55.11-.76.31-.25.237-.392.578-.392.934 0 .356.142.697.39.933zm.605-1.125c.03-.03.082-.064.155-.064h4.703c.13 0 .237.114.237.256 0 .142-.106.256-.237.256-.253 0-.457.22-.457.494 0 .273.204.494.456.494h1.225c.05 0 .088.042.088.094s-.04.094-.087.094H9.07l-.057-.024-.03-.07.03-.07.057-.024h.002c.252 0 .457-.22.457-.494s-.206-.494-.458-.494H6.486c-.073 0-.125-.035-.156-.064-.03-.03-.08-.092-.08-.192s.05-.163.08-.192zm25.597 22.474c0-.546-.41-.988-.914-.988h-9.99l-.842-.396-.72-.384 3.307-.418.127-.037 1.916-.887.08-.05.875-.657.088-.086.835-1.07 1.344.157c.148.02.294-.043.393-.164l.922-1.134 1.572-.608c.237-.092.36-.375.275-.632-.085-.257-.347-.39-.584-.3l-1.683.652c-.073.028-.138.076-.19.14l-.843 1.036-.41-.048-.94-.11c-.15-.018-.3.047-.4.173l-.952 1.22-.787.593-1.107.512-2.064-.85-.048-.016-1.974-.552-.067-.013-2.645-.3-.717-.08.17-.1.13-.077h4.577c.16 0 .31-.092.393-.242l.585-1.062 2.383-.888 1.83-.673h.002l1.4-.515c.24-.088.368-.37.286-.627-.08-.258-.34-.397-.58-.31l-.852.314-.22-2.23v-2.52l-.022-.224h3.423c.28 0 .55-.11.76-.31.25-.237.392-.578.392-.934 0-.356-.143-.696-.392-.933-.21-.202-.48-.312-.76-.312h-1.59l.006-.094c0-.31-.124-.606-.34-.81-.183-.176-.418-.272-.66-.272h-1.91l-.487-1.574-.108-.19-1.273-1.396c-.11-.12-.267-.17-.42-.137-.15.034-.277.15-.333.306l-.565 1.58-.03.163-.06 1.918-.107.58-.41-.512c-.096-.122-.243-.185-.39-.17-.147.017-.278.11-.352.248l-.672 1.28c-.04.073-.06.158-.06.243v2.816l-.345.136-.295-.435-.274-2.39h.064c.253 0 .457-.22.457-.493s-.205-.494-.457-.494H18.5l-.016-.142-.2-2.612c-.012-.167-.102-.316-.24-.395-.136-.078-.3-.077-.436.005l-1.19.713c-.13.08-.22.225-.233.388l-.132 1.582-.037.463h-2.92l-.25-.377c-.144-.216-.42-.27-.624-.125l-.708.504h-1.316c-.253 0-.457.22-.457.494s.206.494.458.494h.636l-.194.503-.035.19v2.01l-.396 1.29-.582.76-.23-2v-1.793l-.04-.2-.973-2.368-.112-.167-1.08-1.048c-.133-.13-.324-.163-.49-.085-.163.078-.27.254-.272.448l-.015 1.905-.29.853-.12-.057c-.187-.087-.406-.03-.536.142l-.69.913c-.055.073-.09.16-.1.255l-.19 1.767-.004.058v2.706l-.407-.355-.175-.095-2.075-.577c-.244-.068-.494.09-.557.355-.063.264.084.534.33.602l1.977.55 1.07.937 1.442 1.326c.07.066.16.106.253.116l3.348.34 2.975.286.033.612c.013.215.15.397.344.45l2.446.677.066.013 3.46.39 1.916.537.188.077.652.268-1.93.244-1.865.236-.032.008-1.87-.83c-.39-.2-1.612-.827-1.8-.9-.154-.058-1.048-.19-2.66-.396l-2.5-.31-.877-.698c-.08-.063-.174-.097-.272-.097h-1.88l-1.57-.185-1.702-.46-.11-.015h-.99c-.253 0-.457.22-.457.494s.205.495.457.495h.933l1.676.454.06.01.987.117.64.076.05.003h1.755l.853.68c.064.052.14.084.22.094l2.62.323c1.07.136 2.272.303 2.47.35.15.066.977.484 1.713.863l.024.01 1.925.854 1.21.645.286.152-.517-.152H.923c-.505 0-.914.442-.914.988 0 .433.26.8.618.934.08.074.183.12.296.12.272 0 .39.05.55.118.195.082.438.185.882.185s.687-.103.883-.185c.16-.068.277-.117.55-.117s.388.05.55.117c.194.082.437.185.88.185s.688-.103.883-.185c.16-.068.278-.117.55-.117s.39.05.55.117c.195.082.438.185.882.185s.687-.103.882-.185c.16-.068.278-.117.55-.117s.39.05.55.117c.195.082.438.185.882.185s.686-.103.88-.185c.162-.068.28-.117.55-.117s.39.05.55.117c.196.082.44.185.883.185s.687-.103.882-.185c.16-.068.278-.117.55-.117s.39.05.55.117c.195.082.438.185.882.185s.687-.103.883-.185c.16-.068.278-.117.55-.117s.39.05.55.117c.195.082.438.185.883.185.444 0 .687-.103.882-.185.16-.068.278-.117.55-.117s.39.05.55.117c.195.082.438.185.883.185.444 0 .687-.103.883-.185.162-.068.28-.117.55-.117s.39.05.55.117c.196.082.44.185.884.185s.687-.103.883-.185c.16-.068.278-.117.55-.117s.39.05.55.117c.195.082.438.185.882.185s.687-.103.882-.185c.162-.068.278-.117.55-.117s.39.05.55.117c.196.082.44.185.884.185.252 0 .457-.22.457-.494v-.008c.272-.17.457-.49.457-.855zm-18.33-5.885l-.037-.677c-.013-.244-.19-.442-.416-.463l-2.977-.288-.218-.02v-1.82l-.01-.1-.076-.392.118-.154.988-1.29.082-.16.446-1.455.023-.155v-1.99l.32-.827.52-.37.267.406.023.034.05 1.94-.365 1.08-.45.068c-.226.034-.394.243-.394.49v1.534c0 .273.206.494.458.494.253 0 .457-.22.457-.494v-1.105l.328-.05c.167-.024.31-.147.366-.32l.422-1.254.324-.16.195.434v1.546l.018.134.336 1.292.006.017c.057.19.214.326.4.34l.846.07-.11.333-.013.05-.74 3.333-.06.034-.107.063-.12.104-.902-.25zm2.345-9.758l-.02.27-.003.04V134.2l.13 2.053-.085.258-.775-.063-.232-.894v-1.592l-.046-.215-.436-.97c-.108-.243-.375-.346-.6-.234l-.277.137-.034-1.294h2.377zm.996-.988l.03-.376.11-1.32.357-.213.142 1.86.002.02.003.03.416 3.626c.01.084.038.163.084.23l.57.84.015.018.043.052.007.008 1.252 1.19.963 1.837c.084.16.24.25.398.25.076 0 .154-.02.225-.063.22-.135.297-.436.172-.673l-1-1.91-.097-.127-.732-.695.246-.097c.18-.07.3-.256.3-.463v-3.032l.293-.557.597.75.007.006.043.046.013.01.052.04.022.012.064.03.01.003.08.018.01.002.384.043.17.02.594.728.037 1.256c.008.267.21.478.457.478h.015c.252-.01.45-.237.442-.51l-.042-1.433c-.003-.115-.044-.225-.114-.31l-.82-1.008c-.075-.094-.18-.153-.295-.166l-.233-.026.2-1.08.008-.08.057-1.875.28-.788.7.77.49 1.578.027.067.023.044.268.45.112.188.01.017.284.476.086.143.027.29.174 1.858v2.47l.002.053.243 2.48-1.495.55-2.543.946c-.102.038-.19.114-.244.215l-.087.16-.002.005-.446.813h-4.43l-.11.015.548-2.468.534-1.627.025-.2-.135-2.138v-2.432l.105-1.32zm9.767-.493l.057.024.03.07-.03.07-.056.024h-.002c-.252 0-.457.222-.457.495s.205.494.457.494h2.586c.073 0 .125.034.156.063.03.03.08.092.08.192s-.05.163-.08.192c-.03.03-.083.065-.156.065h-3.515l-.1-1.082c-.008-.078-.032-.152-.072-.218l-.232-.39h1.335zm-21.303 4.883l.173-1.595.36-.474v1.06c0 .274.204.495.456.495.254 0 .458-.22.458-.493v-1.346l.455-1.342.028-.165.008-.895.253.246.896 2.175v1.717l.004.06.244 2.123.006.04.295 1.536v1.676l-2.458-.25-1.175-1.08v-3.484zm9.71-8.94h2.342c.253 0 .457-.22.457-.494s-.204-.494-.456-.494h-2.342c-.253 0-.457.22-.457.494s.205.494.457.494m.076-1.358h5.766c.253 0 .457-.22.457-.494s-.204-.494-.456-.494h-5.766c-.253 0-.457.22-.457.494s.206.494.458.494" fill="#206FAC"/><path d="M5.724 85.678c.21.2.48.312.76.312h1.59l-.006.094c0 .31.124.606.34.812.183.174.418.27.66.27h3.342c.552 0 1-.484 1-1.08 0-.598-.448-1.083-1-1.083h-.096l.025-.256c0-.686-.518-1.245-1.153-1.245H6.484c-.28 0-.55.11-.76.31-.25.237-.392.578-.392.934 0 .356.142.697.39.933zm.605-1.125c.03-.03.082-.064.155-.064h4.703c.13 0 .237.114.237.256 0 .142-.106.256-.237.256-.253 0-.457.22-.457.494 0 .273.204.494.456.494h1.225c.05 0 .088.042.088.094s-.04.094-.087.094H9.07l-.057-.024-.03-.07.03-.07.057-.024h.002c.252 0 .457-.22.457-.494s-.206-.494-.458-.494H6.486c-.073 0-.125-.035-.156-.064-.03-.03-.08-.092-.08-.192s.05-.163.08-.192zm25.597 22.474c0-.546-.41-.988-.914-.988h-9.99l-.842-.396-.72-.384 3.307-.418.127-.037 1.916-.887.08-.05.875-.657.088-.086.835-1.07 1.344.157c.148.02.294-.043.393-.164l.922-1.134 1.572-.608c.237-.092.36-.375.275-.632-.085-.257-.347-.39-.584-.3l-1.683.652c-.073.028-.138.076-.19.14l-.843 1.036-.41-.048-.94-.11c-.15-.018-.3.047-.4.173l-.952 1.22-.787.593-1.107.512-2.064-.85-.048-.016-1.974-.552-.067-.013-2.645-.3-.717-.08.17-.1.13-.077h4.577c.16 0 .31-.092.393-.242l.585-1.062 2.383-.888 1.83-.673h.002l1.4-.515c.24-.088.368-.37.286-.627-.08-.258-.34-.397-.58-.31l-.852.314-.22-2.23V92.8l-.022-.224h3.423c.28 0 .55-.11.76-.31.25-.237.392-.578.392-.934 0-.356-.143-.696-.392-.933-.21-.202-.48-.312-.76-.312h-1.59l.006-.094c0-.31-.124-.606-.34-.81-.183-.176-.418-.272-.66-.272h-1.91l-.487-1.574-.108-.19-1.273-1.396c-.11-.12-.267-.17-.42-.137-.15.034-.277.15-.333.306l-.565 1.58-.03.163-.06 1.918-.107.58-.41-.512c-.096-.122-.243-.185-.39-.17-.147.017-.278.11-.352.248l-.672 1.28c-.04.073-.06.158-.06.243v2.816l-.345.136-.295-.435-.274-2.39h.064c.253 0 .457-.22.457-.493s-.205-.494-.457-.494H18.5l-.016-.142-.2-2.612c-.012-.167-.102-.316-.24-.395-.136-.078-.3-.077-.436.005l-1.19.713c-.13.08-.22.225-.233.388l-.132 1.582-.037.463h-2.92l-.25-.377c-.144-.216-.42-.27-.624-.125l-.708.504h-1.316c-.253 0-.457.22-.457.494s.206.494.458.494h.636l-.194.503-.035.19v2.01l-.396 1.29-.582.76-.23-2V92.34l-.04-.2-.973-2.368-.112-.167-1.08-1.048c-.133-.13-.324-.163-.49-.085-.163.078-.27.254-.272.448l-.015 1.905-.29.853-.12-.057c-.187-.087-.406-.03-.536.142l-.69.913c-.055.073-.09.16-.1.255l-.19 1.767-.004.058v2.706l-.407-.355-.175-.095-2.075-.577c-.244-.068-.494.09-.557.355-.063.264.084.534.33.602l1.977.55 1.07.937 1.442 1.326c.07.066.16.106.253.116l3.348.34 2.975.286.033.612c.013.215.15.397.344.45l2.446.677.066.013 3.46.39 1.916.537.188.077.652.268-1.93.244-1.865.236-.032.008-1.87-.83c-.39-.2-1.612-.827-1.8-.9-.154-.058-1.048-.19-2.66-.396l-2.5-.31-.877-.698c-.08-.063-.174-.097-.272-.097h-1.88l-1.57-.185-1.702-.46-.11-.015h-.99c-.253 0-.457.22-.457.494s.205.495.457.495h.933l1.676.454.06.01.987.117.64.076.05.003h1.755l.853.68c.064.052.14.084.22.094l2.62.323c1.07.136 2.272.303 2.47.35.15.066.977.484 1.713.863l.024.01 1.925.854 1.21.645.286.152-.517-.152H.923c-.505 0-.914.442-.914.988 0 .433.26.8.618.934.08.074.183.12.296.12.272 0 .39.05.55.118.195.082.438.185.882.185s.687-.103.883-.185c.16-.068.277-.117.55-.117s.388.05.55.117c.194.082.437.185.88.185s.688-.103.883-.185c.16-.068.278-.117.55-.117s.39.05.55.117c.195.082.438.185.882.185s.687-.103.882-.185c.16-.068.278-.117.55-.117s.39.05.55.117c.195.082.438.185.882.185s.686-.103.88-.185c.162-.068.28-.117.55-.117s.39.05.55.117c.196.082.44.185.883.185s.687-.103.882-.185c.16-.068.278-.117.55-.117s.39.05.55.117c.195.082.438.185.882.185s.687-.103.883-.185c.16-.068.278-.117.55-.117s.39.05.55.117c.195.082.438.185.883.185.444 0 .687-.103.882-.185.16-.068.278-.117.55-.117s.39.05.55.117c.195.082.438.185.883.185.444 0 .687-.103.883-.185.162-.068.28-.117.55-.117s.39.05.55.117c.196.082.44.185.884.185s.687-.103.883-.185c.16-.068.278-.117.55-.117s.39.05.55.117c.195.082.438.185.882.185s.687-.103.882-.185c.162-.068.278-.117.55-.117s.39.05.55.117c.196.082.44.185.884.185.252 0 .457-.22.457-.494v-.008c.272-.17.457-.49.457-.855zm-18.33-5.885l-.037-.677c-.013-.244-.19-.442-.416-.463l-2.977-.288-.218-.02v-1.82l-.01-.1-.076-.392.118-.154.988-1.29.082-.16.446-1.455.023-.155v-1.99l.32-.827.52-.37.267.406.023.034.05 1.94-.365 1.08-.45.068c-.226.034-.394.243-.394.49v1.534c0 .273.206.494.458.494.253 0 .457-.22.457-.494v-1.105l.328-.05c.167-.024.31-.147.366-.32l.422-1.254.324-.16.195.434v1.546l.018.134.336 1.292.006.017c.057.19.214.326.4.34l.846.07-.11.333-.013.05-.74 3.333-.06.034-.107.063-.12.104-.902-.25zm2.345-9.758l-.02.27-.003.04V94.2l.13 2.053-.085.258-.775-.063-.232-.894V93.96l-.046-.215-.436-.97c-.108-.243-.375-.346-.6-.234l-.277.137-.034-1.294h2.377zm.996-.988l.03-.376.11-1.32.357-.213.142 1.86.002.02.003.03.416 3.626c.01.084.038.163.084.23l.57.84.015.018.043.052.007.008 1.252 1.19.963 1.837c.084.16.24.25.398.25.076 0 .154-.02.225-.063.22-.135.297-.436.172-.673l-1-1.91-.097-.127-.732-.695.246-.097c.18-.07.3-.256.3-.463v-3.032l.293-.557.597.75.007.006.043.046.013.01.052.04.022.012.064.03.01.003.08.018.01.002.384.043.17.02.594.728.037 1.256c.008.267.21.478.457.478h.015c.252-.01.45-.237.442-.51l-.042-1.433c-.003-.115-.044-.225-.114-.31l-.82-1.008c-.075-.094-.18-.153-.295-.166l-.233-.026.2-1.08.008-.08.057-1.875.28-.788.7.77.49 1.578.027.067.023.044.268.45.112.188.01.017.284.476.086.143.027.29.174 1.858v2.47l.002.053.243 2.48-1.495.55-2.543.946c-.102.038-.19.114-.244.215l-.087.16-.002.005-.446.813h-4.43l-.11.015.548-2.468.534-1.627.025-.2-.135-2.138v-2.432l.105-1.32zm9.767-.493l.057.024.03.07-.03.07-.056.024h-.002c-.252 0-.457.222-.457.495s.205.494.457.494h2.586c.073 0 .125.034.156.063.03.03.08.092.08.192s-.05.163-.08.192c-.03.03-.083.065-.156.065h-3.515l-.1-1.082c-.008-.078-.032-.152-.072-.218l-.232-.39h1.335zM5.402 94.786l.173-1.595.36-.474v1.06c0 .274.204.495.456.495.254 0 .458-.22.458-.493V92.43l.455-1.342.028-.165.008-.895.253.246.896 2.175v1.717l.004.06.244 2.123.006.04.295 1.536v1.676l-2.458-.25-1.175-1.08v-3.484zm9.71-8.94h2.342c.253 0 .457-.22.457-.494s-.204-.494-.456-.494h-2.342c-.253 0-.457.22-.457.494s.205.494.457.494m.076-1.358h5.766c.253 0 .457-.22.457-.494s-.204-.494-.456-.494h-5.766c-.253 0-.457.22-.457.494s.206.494.458.494" fill="#fff"/><path d="M5.724 45.678c.21.2.48.312.76.312h1.59l-.006.094c0 .31.124.606.34.812.183.174.418.27.66.27h3.342c.552 0 1-.484 1-1.08 0-.598-.448-1.083-1-1.083h-.096l.025-.256c0-.686-.518-1.245-1.153-1.245H6.484c-.28 0-.55.11-.76.31-.25.237-.392.578-.392.934 0 .356.142.697.39.933zm.605-1.125c.03-.03.082-.064.155-.064h4.703c.13 0 .237.114.237.256 0 .142-.106.256-.237.256-.253 0-.457.22-.457.494 0 .273.204.494.456.494h1.225c.05 0 .088.042.088.094s-.04.094-.087.094H9.07l-.057-.024-.03-.07.03-.07.057-.024h.002c.252 0 .457-.22.457-.494s-.206-.494-.458-.494H6.486c-.073 0-.125-.035-.156-.064-.03-.03-.08-.092-.08-.192s.05-.163.08-.192zm25.597 22.474c0-.546-.41-.988-.914-.988h-9.99l-.842-.396-.72-.384 3.307-.418.127-.037 1.916-.887.08-.05.875-.657.088-.086.835-1.07 1.344.157c.148.02.294-.043.393-.164l.922-1.134 1.572-.608c.237-.092.36-.375.275-.632-.085-.257-.347-.39-.584-.3l-1.683.652c-.073.028-.138.076-.19.14l-.843 1.036-.41-.048-.94-.11c-.15-.018-.3.047-.4.173l-.952 1.22-.787.593-1.107.512-2.064-.85-.048-.016-1.974-.552-.067-.013-2.645-.3-.717-.08.17-.1.13-.077h4.577c.16 0 .31-.092.393-.242l.585-1.062 2.383-.888 1.83-.673h.002l1.4-.515c.24-.088.368-.37.286-.627-.08-.258-.34-.397-.58-.31l-.852.314-.22-2.23V52.8l-.022-.224h3.423c.28 0 .55-.11.76-.31.25-.237.392-.578.392-.934 0-.356-.143-.696-.392-.933-.21-.202-.48-.312-.76-.312h-1.59l.006-.094c0-.31-.124-.606-.34-.81-.183-.176-.418-.272-.66-.272h-1.91l-.487-1.574-.108-.19-1.273-1.396c-.11-.12-.267-.17-.42-.137-.15.034-.277.15-.333.306l-.565 1.58-.03.163-.06 1.918-.107.58-.41-.512c-.096-.122-.243-.185-.39-.17-.147.017-.278.11-.352.248l-.672 1.28c-.04.073-.06.158-.06.243v2.816l-.345.136-.295-.435-.274-2.39h.064c.253 0 .457-.22.457-.493s-.205-.494-.457-.494H18.5l-.016-.142-.2-2.612c-.012-.167-.102-.316-.24-.395-.136-.078-.3-.077-.436.005l-1.19.713c-.13.08-.22.225-.233.388l-.132 1.582-.037.463h-2.92l-.25-.377c-.144-.216-.42-.27-.624-.125l-.708.504h-1.316c-.253 0-.457.22-.457.494s.206.494.458.494h.636l-.194.503-.035.19v2.01l-.396 1.29-.582.76-.23-2V52.34l-.04-.2-.973-2.368-.112-.167-1.08-1.048c-.133-.13-.324-.163-.49-.085-.163.078-.27.254-.272.448l-.015 1.905-.29.853-.12-.057c-.187-.087-.406-.03-.536.142l-.69.913c-.055.073-.09.16-.1.255l-.19 1.767-.004.058v2.706l-.407-.355-.175-.095-2.075-.577c-.244-.068-.494.09-.557.355-.063.264.084.534.33.602l1.977.55 1.07.937 1.442 1.326c.07.066.16.106.253.116l3.348.34 2.975.286.033.612c.013.215.15.397.344.45l2.446.677.066.013 3.46.39 1.916.537.188.077.652.268-1.93.244-1.865.236-.032.008-1.87-.83c-.39-.2-1.612-.827-1.8-.9-.154-.058-1.048-.19-2.66-.396l-2.5-.31-.877-.698c-.08-.063-.174-.097-.272-.097h-1.88l-1.57-.185-1.702-.46-.11-.015h-.99c-.253 0-.457.22-.457.494s.205.495.457.495h.933l1.676.454.06.01.987.117.64.076.05.003h1.755l.853.68c.064.052.14.084.22.094l2.62.323c1.07.136 2.272.303 2.47.35.15.066.977.484 1.713.863l.024.01 1.925.854 1.21.645.286.152-.517-.152H.923c-.505 0-.914.442-.914.988 0 .433.26.8.618.934.08.074.183.12.296.12.272 0 .39.05.55.118.195.082.438.185.882.185s.687-.103.883-.185c.16-.068.277-.117.55-.117s.388.05.55.117c.194.082.437.185.88.185s.688-.103.883-.185c.16-.068.278-.117.55-.117s.39.05.55.117c.195.082.438.185.882.185s.687-.103.882-.185c.16-.068.278-.117.55-.117s.39.05.55.117c.195.082.438.185.882.185s.686-.103.88-.185c.162-.068.28-.117.55-.117s.39.05.55.117c.196.082.44.185.883.185s.687-.103.882-.185c.16-.068.278-.117.55-.117s.39.05.55.117c.195.082.438.185.882.185s.687-.103.883-.185c.16-.068.278-.117.55-.117s.39.05.55.117c.195.082.438.185.883.185.444 0 .687-.103.882-.185.16-.068.278-.117.55-.117s.39.05.55.117c.195.082.438.185.883.185.444 0 .687-.103.883-.185.162-.068.28-.117.55-.117s.39.05.55.117c.196.082.44.185.884.185s.687-.103.883-.185c.16-.068.278-.117.55-.117s.39.05.55.117c.195.082.438.185.882.185s.687-.103.882-.185c.162-.068.278-.117.55-.117s.39.05.55.117c.196.082.44.185.884.185.252 0 .457-.22.457-.494v-.008c.272-.17.457-.49.457-.855zm-18.33-5.885l-.037-.677c-.013-.244-.19-.442-.416-.463l-2.977-.288-.218-.02v-1.82l-.01-.1-.076-.392.118-.154.988-1.29.082-.16.446-1.455.023-.155v-1.99l.32-.827.52-.37.267.406.023.034.05 1.94-.365 1.08-.45.068c-.226.034-.394.243-.394.49v1.534c0 .273.206.494.458.494.253 0 .457-.22.457-.494v-1.105l.328-.05c.167-.024.31-.147.366-.32l.422-1.254.324-.16.195.434v1.546l.018.134.336 1.292.006.017c.057.19.214.326.4.34l.846.07-.11.333-.013.05-.74 3.333-.06.034-.107.063-.12.104-.902-.25zm2.345-9.758l-.02.27-.003.04V54.2l.13 2.053-.085.258-.775-.063-.232-.894V53.96l-.046-.215-.436-.97c-.108-.243-.375-.346-.6-.234l-.277.137-.034-1.294h2.377zm.996-.988l.03-.376.11-1.32.357-.213.142 1.86.002.02.003.03.416 3.626c.01.084.038.163.084.23l.57.84.015.018.043.052.007.008 1.252 1.19.963 1.837c.084.16.24.25.398.25.076 0 .154-.02.225-.063.22-.135.297-.436.172-.673l-1-1.91-.097-.127-.732-.695.246-.097c.18-.07.3-.256.3-.463v-3.032l.293-.557.597.75.007.006.043.046.013.01.052.04.022.012.064.03.01.003.08.018.01.002.384.043.17.02.594.728.037 1.256c.008.267.21.478.457.478h.015c.252-.01.45-.237.442-.51l-.042-1.433c-.003-.115-.044-.225-.114-.31l-.82-1.008c-.075-.094-.18-.153-.295-.166l-.233-.026.2-1.08.008-.08.057-1.875.28-.788.7.77.49 1.578.027.067.023.044.268.45.112.188.01.017.284.476.086.143.027.29.174 1.858v2.47l.002.053.243 2.48-1.495.55-2.543.946c-.102.038-.19.114-.244.215l-.087.16-.002.005-.446.813h-4.43l-.11.015.548-2.468.534-1.627.025-.2-.135-2.138v-2.432l.105-1.32zm9.767-.493l.057.024.03.07-.03.07-.056.024h-.002c-.252 0-.457.222-.457.495s.205.494.457.494h2.586c.073 0 .125.034.156.063.03.03.08.092.08.192s-.05.163-.08.192c-.03.03-.083.065-.156.065h-3.515l-.1-1.082c-.008-.078-.032-.152-.072-.218l-.232-.39h1.335zM5.402 54.786l.173-1.595.36-.474v1.06c0 .274.204.495.456.495.254 0 .458-.22.458-.493V52.43l.455-1.342.028-.165.008-.895.253.246.896 2.175v1.717l.004.06.244 2.123.006.04.295 1.536v1.676l-2.458-.25-1.175-1.08v-3.484zm9.71-8.94h2.342c.253 0 .457-.22.457-.494s-.204-.494-.456-.494h-2.342c-.253 0-.457.22-.457.494s.205.494.457.494m.076-1.358h5.766c.253 0 .457-.22.457-.494s-.204-.494-.456-.494h-5.766c-.253 0-.457.22-.457.494s.206.494.458.494" fill="#67737B"/><path d="M5.724 5.678c.21.2.48.312.76.312h1.59l-.006.094c0 .31.124.606.34.812.183.174.418.27.66.27h3.342c.552 0 1-.484 1-1.08 0-.598-.448-1.083-1-1.083h-.096l.025-.256c0-.686-.518-1.245-1.153-1.245H6.484c-.28 0-.55.11-.76.31-.25.237-.392.578-.392.934 0 .356.142.697.39.933zm.605-1.125c.03-.03.082-.064.155-.064h4.703c.13 0 .237.114.237.256 0 .142-.106.256-.237.256-.253 0-.457.22-.457.494 0 .273.204.494.456.494h1.225c.05 0 .088.042.088.094s-.04.094-.087.094H9.07l-.057-.024-.03-.07.03-.07.057-.024h.002c.252 0 .457-.22.457-.494s-.206-.494-.458-.494H6.486c-.073 0-.125-.035-.156-.064-.03-.03-.08-.092-.08-.192s.05-.163.08-.192zm25.597 22.474c0-.546-.41-.988-.914-.988h-9.99l-.842-.396-.72-.384 3.307-.418.127-.037 1.916-.887.08-.05.875-.657.088-.086.835-1.07 1.344.157c.148.02.294-.043.393-.164l.922-1.134 1.572-.608c.237-.092.36-.375.275-.632-.085-.257-.347-.39-.584-.3l-1.683.652c-.073.028-.138.076-.19.14l-.843 1.036-.41-.048-.94-.11c-.15-.018-.3.047-.4.173l-.952 1.22-.787.593-1.107.512-2.064-.85-.048-.016-1.974-.552-.067-.013-2.645-.3-.717-.08.17-.1.13-.077h4.577c.16 0 .31-.092.393-.242l.585-1.062 2.383-.888 1.83-.673h.002l1.4-.515c.24-.088.368-.37.286-.627-.08-.258-.34-.397-.58-.31l-.852.314-.22-2.23V12.8l-.022-.224h3.423c.28 0 .55-.11.76-.31.25-.237.392-.578.392-.934 0-.356-.143-.696-.392-.933-.21-.202-.48-.312-.76-.312h-1.59l.006-.094c0-.31-.124-.606-.34-.81-.183-.176-.418-.272-.66-.272h-1.91l-.487-1.574-.108-.19-1.273-1.396c-.11-.12-.267-.17-.42-.137-.15.034-.277.15-.333.306L21.61 7.5l-.03.163-.06 1.918-.107.58-.41-.512c-.096-.122-.243-.185-.39-.17-.147.017-.278.11-.352.248l-.672 1.28c-.04.073-.06.158-.06.243v2.816l-.345.136-.295-.435-.274-2.39h.064c.253 0 .457-.22.457-.493s-.205-.494-.457-.494H18.5l-.016-.142-.2-2.612c-.012-.167-.102-.316-.24-.395-.136-.078-.3-.077-.436.005l-1.19.713c-.13.08-.22.225-.233.388l-.132 1.582-.037.463h-2.92l-.25-.377c-.144-.216-.42-.27-.624-.125l-.708.504h-1.316c-.253 0-.457.22-.457.494s.206.494.458.494h.636l-.194.503-.035.19v2.01l-.396 1.29-.582.76-.23-2V12.34l-.04-.2-.973-2.368-.112-.167-1.08-1.048c-.133-.13-.324-.163-.49-.085-.163.078-.27.254-.272.448l-.015 1.905-.29.853-.12-.057c-.187-.087-.406-.03-.536.142l-.69.913c-.055.073-.09.16-.1.255l-.19 1.767-.004.058v2.706l-.407-.355-.175-.095-2.075-.577c-.244-.068-.494.09-.557.355-.063.264.084.534.33.602l1.977.55 1.07.937 1.442 1.326c.07.066.16.106.253.116l3.348.34 2.975.286.033.612c.013.215.15.397.344.45l2.446.677.066.013 3.46.39 1.916.537.188.077.652.268-1.93.244-1.865.236-.032.008-1.87-.83c-.39-.2-1.612-.827-1.8-.9-.154-.058-1.048-.19-2.66-.396l-2.5-.31-.877-.698c-.08-.063-.174-.097-.272-.097h-1.88l-1.57-.185-1.702-.46-.11-.015h-.99c-.253 0-.457.22-.457.494s.205.495.457.495h.933l1.676.454.06.01.987.117.64.076.05.003h1.755l.853.68c.064.052.14.084.22.094l2.62.323c1.07.136 2.272.303 2.47.35.15.066.977.484 1.713.863l.024.01 1.925.854 1.21.645.286.152-.517-.152H.923c-.505 0-.914.442-.914.988 0 .433.26.8.618.934.08.074.183.12.296.12.272 0 .39.05.55.118.195.082.438.185.882.185s.687-.103.883-.185c.16-.068.277-.117.55-.117s.388.05.55.117c.194.082.437.185.88.185s.688-.103.883-.185c.16-.068.278-.117.55-.117s.39.05.55.117c.195.082.438.185.882.185s.687-.103.882-.185c.16-.068.278-.117.55-.117s.39.05.55.117c.195.082.438.185.882.185s.686-.103.88-.185c.162-.068.28-.117.55-.117s.39.05.55.117c.196.082.44.185.883.185s.687-.103.882-.185c.16-.068.278-.117.55-.117s.39.05.55.117c.195.082.438.185.882.185s.687-.103.883-.185c.16-.068.278-.117.55-.117s.39.05.55.117c.195.082.438.185.883.185.444 0 .687-.103.882-.185.16-.068.278-.117.55-.117s.39.05.55.117c.195.082.438.185.883.185.444 0 .687-.103.883-.185.162-.068.28-.117.55-.117s.39.05.55.117c.196.082.44.185.884.185s.687-.103.883-.185c.16-.068.278-.117.55-.117s.39.05.55.117c.195.082.438.185.882.185s.687-.103.882-.185c.162-.068.278-.117.55-.117s.39.05.55.117c.196.082.44.185.884.185.252 0 .457-.22.457-.494v-.008c.272-.17.457-.49.457-.855zm-18.33-5.885l-.037-.677c-.013-.244-.19-.442-.416-.463l-2.977-.288-.218-.02v-1.82l-.01-.1-.076-.392.118-.154.988-1.29.082-.16.446-1.455.023-.155v-1.99l.32-.827.52-.37.267.406.023.034.05 1.94-.365 1.08-.45.068c-.226.034-.394.243-.394.49v1.534c0 .273.206.494.458.494.253 0 .457-.22.457-.494v-1.105l.328-.05c.167-.024.31-.147.366-.32l.422-1.254.324-.16.195.434v1.546l.018.134.336 1.292.006.017c.057.19.214.326.4.34l.846.07-.11.333-.013.05-.74 3.333-.06.034-.107.063-.12.104-.902-.25zm2.345-9.758l-.02.27-.003.04V14.2l.13 2.053-.085.258-.775-.063-.232-.894V13.96l-.046-.215-.436-.97c-.108-.243-.375-.346-.6-.234l-.277.137-.034-1.294h2.377zm.996-.988l.03-.376.11-1.32.357-.213.142 1.86.002.02.003.03.416 3.626c.01.084.038.163.084.23l.57.84.015.018.043.052.007.008 1.252 1.19.963 1.837c.084.16.24.25.398.25.076 0 .154-.02.225-.063.22-.135.297-.436.172-.673l-1-1.91-.097-.127-.732-.695.246-.097c.18-.07.3-.256.3-.463v-3.032l.293-.557.597.75.007.006.043.046.013.01.052.04.022.012.064.03.01.003.08.018.01.002.384.043.17.02.594.728.037 1.256c.008.267.21.478.457.478h.015c.252-.01.45-.237.442-.51l-.042-1.433c-.003-.115-.044-.225-.114-.31l-.82-1.008c-.075-.094-.18-.153-.295-.166l-.233-.026.2-1.08.008-.08.057-1.875.28-.788.7.77.49 1.578.027.067.023.044.268.45.112.188.01.017.284.476.086.143.027.29.174 1.858v2.47l.002.053.243 2.48-1.495.55-2.543.946c-.102.038-.19.114-.244.215l-.087.16-.002.005-.446.813h-4.43l-.11.015.548-2.468.534-1.627.025-.2-.135-2.138v-2.432l.105-1.32zm9.767-.493l.057.024.03.07-.03.07-.056.024h-.002c-.252 0-.457.222-.457.495s.205.494.457.494h2.586c.073 0 .125.034.156.063.03.03.08.092.08.192s-.05.163-.08.192c-.03.03-.083.065-.156.065h-3.515l-.1-1.082c-.008-.078-.032-.152-.072-.218l-.232-.39h1.335zM5.402 14.786l.173-1.595.36-.474v1.06c0 .274.204.495.456.495.254 0 .458-.22.458-.493V12.43l.455-1.342.028-.165.008-.895.253.246.896 2.175v1.717l.004.06.244 2.123.006.04.295 1.536v1.676l-2.458-.25-1.175-1.08v-3.484zm9.71-8.94h2.342c.253 0 .457-.22.457-.494s-.204-.494-.456-.494h-2.342c-.253 0-.457.22-.457.494s.205.494.457.494m.076-1.358h5.766c.253 0 .457-.22.457-.494s-.204-.494-.456-.494h-5.766c-.253 0-.457.22-.457.494s.206.494.458.494" fill="#373D43"/></g></svg>