<svg width="32" height="232" viewBox="0 0 32 232" xmlns="http://www.w3.org/2000/svg" xmlns:sketch="http://www.bohemiancoding.com/sketch/ns"><title>iran</title><desc>Created with Sketch.</desc><g sketch:type="MSPage" fill="none"><g sketch:type="MSShapeGroup"><path d="M31.019 147.806h-.354v-8.446c0-.264-.213-.477-.476-.477h-1.315c.271-.453.458-1.013.458-1.685 0-1.675-1.218-2.625-2.107-3.319-.41-.319-.797-.621-.978-.905l-.169-.211-.176-.132v-.41c.128-.125.208-.299.208-.491 0-.379-.306-.686-.683-.686-.377 0-.683.308-.683.686 0 .193.08.367.208.492v.41l-.023.013c-.14.086-.249.203-.326.337-.184.281-.567.581-.974.898-.889.694-2.108 1.644-2.108 3.319 0 .672.187 1.232.458 1.685h-1.315c-.262 0-.475.214-.475.477v4.503c-.325-.437-.647-.898-.955-1.376v-11.648c0-.264-.213-.477-.475-.477h-1.975c-.119-.205-.31-.362-.54-.435-.09-.028-.184-.043-.283-.043h-2.882v-.507c0-.264-.213-.477-.475-.477s-.475.213-.475.477v.507h-2.882c-.099 0-.193.015-.283.043-.23.072-.422.229-.54.435h-1.975c-.263 0-.475.214-.475.477v11.648c-1.67 2.596-3.747 4.648-4.459 5.319h-.553c-.525 0-.951.428-.951.955 0 .528.426.954.951.954h30.057c.525 0 .951-.427.951-.954 0-.527-.426-.955-.951-.955zm-5.593-16.344c.133 0 .243.098.263.226-.075-.05-.166-.08-.263-.08-.098 0-.188.03-.263.08.02-.128.13-.226.263-.226zm-.631 3.926c.212-.165.427-.333.631-.512.204.179.419.346.631.512.854.666 1.373 1.12 1.373 1.81 0 .678-.441 1.053-.683 1.208h-2.642c-.242-.155-.683-.53-.683-1.208 0-.69.518-1.144 1.373-1.81zm-18.079 9.395c.223-.307.445-.626.662-.955.56-.847 1.089-1.759 1.534-2.712.396-.848.725-1.728.951-2.626.213-.843.334-1.702.334-2.562v-4.133h4.812v4.133c0 .86.122 1.719.335 2.562.226.898.555 1.779.95 2.626.445.953.974 1.865 1.534 2.712.217.328.439.648.662.955.572.788 1.155 1.504 1.697 2.126l.475.534.332.36h-4.838l-1.332-7.515c-.019-.497-.342-1.109-.985-1.869-.451-.533-.896-.943-.915-.96-.182-.167-.46-.167-.642 0-.019.017-.464.427-.915.96-.643.76-.966 1.373-.985 1.869l-1.332 7.515h-4.839c.74-.79 1.635-1.822 2.504-3.02zm14.423-4.944h8.575v8.441h-.375v-6.176c-.04-.931-.753-1.66-1.626-1.66-.442 0-.843.188-1.136.494-.293-.306-.694-.494-1.136-.494-.449 0-.856.195-1.15.51-.295-.315-.701-.51-1.151-.51-.872 0-1.586.73-1.626 1.66v3.411l-.374-.443v-5.235zm3.627 2.298c.021-.414.317-.737.675-.737.317 0 .584.252.657.597l-.01.109v6.245h-1.322v-6.213zm-.951 5.67v.114l-.122-.114c-.259-.243-.696-.669-1.229-1.235v-4.436c.021-.414.317-.737.675-.737.359 0 .653.323.675.737v5.67zm-13.743-.004l1.248-5.416.012-.106c.017-.225.593-.829 1.272-1.351.678.522 1.254 1.125 1.271 1.35l.012.107 1.248 5.416h-5.064zm2.805-7.857c-.164-.116-.383-.116-.547 0-.266.188-.692.508-1.077.883l.072-.41.007-.084c0-.377.613-1.193 1.273-1.863.864.868 1.27 1.607 1.27 1.863l.007.084.073.41c-.386-.374-.812-.694-1.078-.883zm15.511 8.404h-1.35v-6.213l.019-.14c.072-.345.34-.597.656-.597.359 0 .654.323.675.737v6.213zm-10.106-7.503c-.808-1.57-1.371-3.26-1.371-4.919v-4.61h1.371v9.53zm-11.358-9.53h1.371v4.61c0 1.659-.563 3.349-1.371 4.919v-9.53zm5.143 1.666c-.008-.175-.152-.315-.329-.315-.177 0-.32.14-.329.315v1.177h.658v-1.177zm.864 0c-.008-.175-.152-.315-.329-.315-.177 0-.321.14-.329.315v1.177h.658v-1.177zm.864 0c-.008-.175-.152-.315-.329-.315-.177 0-.321.14-.329.315v1.177h.658v-1.177zm.864 0c-.008-.175-.152-.315-.329-.315-.177 0-.32.14-.329.315v1.177h.658v-1.177zm-3.456 0c-.008-.175-.152-.315-.328-.315-.177 0-.321.14-.329.315v1.177h.658v-1.177zm10.387-3.097c.031.241.235.415.471.415l.063-.004 2.496-.329c.26-.035.444-.274.41-.536-.034-.261-.272-.445-.533-.411l-2.496.329c-.261.035-.444.274-.41.535zm-5.865-4.523c.031.241.236.415.471.415l.063-.004c.26-.034.444-.274.41-.536l-.327-2.506c-.034-.261-.273-.446-.533-.411-.26.034-.444.274-.41.536l.327 2.505zm-5.418.679l2.133 1.645c.086.067.188.099.289.099.143 0 .284-.064.377-.187.16-.209.121-.509-.087-.67l-2.133-1.645c-.208-.16-.507-.121-.666.088-.16.209-.12.508.087.669zm9.465.679c.086.067.188.099.29.099.142 0 .283-.064.377-.187l1.638-2.141c.16-.209.121-.508-.087-.669-.208-.161-.507-.121-.666.088l-1.638 2.142c-.16.209-.12.508.087.669zm1.234 1.422c.088.155.248.241.414.241.08 0 .16-.02.235-.062l1.482-.848c.228-.13.308-.422.178-.651-.13-.229-.421-.309-.649-.178l-1.482.848c-.228.13-.308.422-.178.65zm-7.132-1.962c.088.155.248.241.413.241.08 0 .161-.02.235-.063.228-.13.307-.422.177-.651l-.844-1.488c-.13-.229-.42-.309-.648-.178-.228.13-.308.422-.178.65l.844 1.489zm4.259-.278l.126.017c.209 0 .4-.14.458-.352l.451-1.652c.07-.254-.079-.517-.333-.587-.253-.069-.515.08-.584.334l-.451 1.652c-.07.254.079.517.333.587z" fill="#206FAC"/><path d="M31.019 107.806h-.354v-8.446c0-.264-.213-.477-.476-.477h-1.315c.271-.453.458-1.013.458-1.685 0-1.675-1.218-2.625-2.107-3.319-.41-.319-.797-.621-.978-.905l-.169-.211-.176-.132v-.41c.128-.125.208-.299.208-.491 0-.379-.306-.686-.683-.686-.377 0-.683.308-.683.686 0 .193.08.367.208.492v.41l-.023.013c-.14.086-.249.203-.326.337-.184.281-.567.581-.974.898-.889.694-2.108 1.644-2.108 3.319 0 .672.187 1.232.458 1.685h-1.315c-.262 0-.475.214-.475.477v4.503c-.325-.437-.647-.898-.955-1.376v-11.648c0-.264-.213-.477-.475-.477h-1.975c-.119-.205-.31-.362-.54-.435-.09-.028-.184-.043-.283-.043h-2.882v-.507c0-.264-.213-.477-.475-.477s-.475.213-.475.477v.507h-2.882c-.099 0-.193.015-.283.043-.23.072-.422.229-.54.435h-1.975c-.263 0-.475.214-.475.477v11.648c-1.67 2.596-3.747 4.648-4.459 5.319h-.553c-.525 0-.951.428-.951.955 0 .528.426.954.951.954h30.057c.525 0 .951-.427.951-.954 0-.527-.426-.955-.951-.955zm-5.593-16.344c.133 0 .243.098.263.226-.075-.05-.166-.08-.263-.08-.098 0-.188.03-.263.08.02-.128.13-.226.263-.226zm-.631 3.926c.212-.165.427-.333.631-.512.204.179.419.346.631.512.854.666 1.373 1.12 1.373 1.811 0 .678-.441 1.053-.683 1.208h-2.642c-.242-.155-.683-.53-.683-1.208 0-.69.518-1.144 1.373-1.811zm-18.079 9.395c.223-.307.445-.626.662-.955.56-.847 1.089-1.759 1.534-2.712.396-.848.725-1.728.951-2.626.213-.843.334-1.702.334-2.562v-4.133h4.812v4.133c0 .86.122 1.719.335 2.562.226.898.555 1.779.95 2.626.445.953.974 1.865 1.534 2.712.217.328.439.648.662.955.572.788 1.155 1.504 1.697 2.126l.475.534.332.36h-4.838l-1.332-7.515c-.019-.497-.342-1.109-.985-1.869-.451-.533-.896-.943-.915-.96-.182-.167-.46-.167-.642 0-.019.017-.464.427-.915.96-.643.76-.966 1.373-.985 1.869l-1.332 7.515h-4.839c.74-.79 1.635-1.822 2.504-3.02zm14.423-4.944h8.575v8.441h-.375v-6.176c-.04-.931-.753-1.66-1.626-1.66-.442 0-.843.188-1.136.494-.293-.306-.694-.494-1.136-.494-.449 0-.856.195-1.15.51-.295-.315-.701-.51-1.151-.51-.872 0-1.586.73-1.626 1.66v3.411l-.374-.443v-5.235zm3.627 2.298c.021-.414.317-.737.675-.737.317 0 .584.252.657.597l-.01.109v6.245h-1.322v-6.213zm-.951 5.67v.114l-.122-.114c-.259-.243-.696-.669-1.229-1.235v-4.436c.021-.414.317-.737.675-.737.359 0 .653.323.675.737v5.67zm-13.743-.004l1.248-5.416.012-.106c.017-.225.593-.829 1.272-1.351.678.522 1.254 1.125 1.271 1.35l.012.107 1.248 5.416h-5.064zm2.805-7.857c-.164-.116-.383-.116-.547 0-.266.188-.692.508-1.077.883l.072-.41.007-.084c0-.377.613-1.193 1.273-1.863.864.868 1.27 1.607 1.27 1.863l.007.084.073.41c-.386-.374-.812-.694-1.078-.883zm15.511 8.404h-1.35v-6.213l.019-.14c.072-.345.34-.597.656-.597.359 0 .654.323.675.737v6.213zm-10.106-7.503c-.808-1.57-1.371-3.26-1.371-4.919v-4.61h1.371v9.53zm-11.358-9.53h1.371v4.61c0 1.659-.563 3.349-1.371 4.919v-9.53zm5.143 1.666c-.008-.175-.152-.315-.329-.315-.177 0-.32.14-.329.315v1.177h.658v-1.177zm.864 0c-.008-.175-.152-.315-.329-.315-.177 0-.321.14-.329.315v1.177h.658v-1.177zm.864 0c-.008-.175-.152-.315-.329-.315-.177 0-.321.14-.329.315v1.177h.658v-1.177zm.864 0c-.008-.175-.152-.315-.329-.315-.177 0-.32.14-.329.315v1.177h.658v-1.177zm-3.456 0c-.008-.175-.152-.315-.328-.315-.177 0-.321.14-.329.315v1.177h.658v-1.177zm10.387-3.097c.031.241.235.415.471.415l.063-.004 2.496-.329c.26-.035.444-.274.41-.536-.034-.261-.272-.445-.533-.411l-2.496.329c-.261.035-.444.274-.41.535zm-5.865-4.523c.031.241.236.415.471.415l.063-.004c.26-.034.444-.274.41-.536l-.327-2.506c-.034-.261-.273-.446-.533-.411-.26.034-.444.274-.41.536l.327 2.505zm-5.418.679l2.133 1.645c.086.067.188.099.289.099.143 0 .284-.064.377-.187.16-.209.121-.509-.087-.67l-2.133-1.645c-.208-.16-.507-.121-.666.088-.16.209-.12.508.087.669zm9.465.679c.086.067.188.099.29.099.142 0 .283-.064.377-.187l1.638-2.141c.16-.209.121-.508-.087-.669-.208-.161-.507-.121-.666.088l-1.638 2.142c-.16.209-.12.508.087.669zm1.234 1.422c.088.155.248.241.414.241.08 0 .16-.02.235-.062l1.482-.848c.228-.13.308-.422.178-.651-.13-.229-.421-.309-.649-.178l-1.482.848c-.228.13-.308.422-.178.65zm-7.132-1.962c.088.155.248.241.413.241.08 0 .161-.02.235-.063.228-.13.307-.422.177-.651l-.844-1.488c-.13-.229-.42-.309-.648-.178-.228.13-.308.422-.178.65l.844 1.489zm4.259-.278l.126.017c.209 0 .4-.14.458-.352l.451-1.652c.07-.254-.079-.517-.333-.587-.253-.069-.515.08-.584.334l-.451 1.652c-.07.254.079.517.333.587z" fill="#fff"/><path d="M31.019 67.806h-.354v-8.446c0-.264-.213-.477-.476-.477h-1.315c.271-.453.458-1.013.458-1.685 0-1.675-1.218-2.625-2.107-3.319-.41-.319-.797-.621-.978-.905l-.169-.211-.176-.132v-.41c.128-.125.208-.299.208-.491 0-.379-.306-.686-.683-.686-.377 0-.683.308-.683.686 0 .193.08.367.208.492v.41l-.023.013c-.14.086-.249.203-.326.337-.184.281-.567.581-.974.898-.889.694-2.108 1.644-2.108 3.319 0 .672.187 1.232.458 1.685h-1.315c-.262 0-.475.214-.475.477v4.503c-.325-.437-.647-.898-.955-1.376v-11.648c0-.264-.213-.477-.475-.477h-1.975c-.119-.205-.31-.362-.54-.435-.09-.028-.184-.043-.283-.043h-2.882v-.507c0-.264-.213-.477-.475-.477s-.475.213-.475.477v.507h-2.882c-.099 0-.193.015-.283.043-.23.072-.422.229-.54.435h-1.975c-.263 0-.475.214-.475.477v11.648c-1.67 2.596-3.747 4.648-4.459 5.319h-.553c-.525 0-.951.428-.951.955 0 .528.426.954.951.954h30.057c.525 0 .951-.427.951-.954 0-.527-.426-.955-.951-.955zm-5.593-16.344c.133 0 .243.098.263.226-.075-.05-.166-.08-.263-.08-.098 0-.188.03-.263.08.02-.128.13-.226.263-.226zm-.631 3.926c.212-.165.427-.333.631-.512.204.179.419.346.631.512.854.666 1.373 1.12 1.373 1.811 0 .678-.441 1.053-.683 1.208h-2.642c-.242-.155-.683-.53-.683-1.208 0-.69.518-1.144 1.373-1.811zm-18.079 9.395c.223-.307.445-.626.662-.955.56-.847 1.089-1.759 1.534-2.712.396-.848.725-1.728.951-2.626.213-.843.334-1.702.334-2.562v-4.133h4.812v4.133c0 .86.122 1.719.335 2.562.226.898.555 1.779.95 2.626.445.953.974 1.865 1.534 2.712.217.328.439.648.662.955.572.788 1.155 1.504 1.697 2.126l.475.534.332.36h-4.838l-1.332-7.515c-.019-.497-.342-1.109-.985-1.869-.451-.533-.896-.943-.915-.96-.182-.167-.46-.167-.642 0-.019.017-.464.427-.915.96-.643.76-.966 1.373-.985 1.869l-1.332 7.515h-4.839c.74-.79 1.635-1.822 2.504-3.02zm14.423-4.944h8.575v8.441h-.375v-6.176c-.04-.931-.753-1.66-1.626-1.66-.442 0-.843.188-1.136.494-.293-.306-.694-.494-1.136-.494-.449 0-.856.195-1.15.51-.295-.315-.701-.51-1.151-.51-.872 0-1.586.73-1.626 1.66v3.411l-.374-.443v-5.235zm3.627 2.298c.021-.414.317-.737.675-.737.317 0 .584.252.657.597l-.01.109v6.245h-1.322v-6.213zm-.951 5.67v.114l-.122-.114c-.259-.243-.696-.669-1.229-1.235v-4.436c.021-.414.317-.737.675-.737.359 0 .653.323.675.737v5.67zm-13.743-.004l1.248-5.416.012-.106c.017-.225.593-.829 1.272-1.351.678.522 1.254 1.125 1.271 1.35l.012.107 1.248 5.416h-5.064zm2.805-7.857c-.164-.116-.383-.116-.547 0-.266.188-.692.508-1.077.883l.072-.41.007-.084c0-.377.613-1.193 1.273-1.863.864.868 1.27 1.607 1.27 1.863l.007.084.073.41c-.386-.374-.812-.694-1.078-.883zm15.511 8.404h-1.35v-6.213l.019-.14c.072-.345.34-.597.656-.597.359 0 .654.323.675.737v6.213zm-10.106-7.503c-.808-1.57-1.371-3.26-1.371-4.919v-4.61h1.371v9.53zm-11.358-9.53h1.371v4.61c0 1.659-.563 3.349-1.371 4.919v-9.53zm5.143 1.666c-.008-.175-.152-.315-.329-.315-.177 0-.32.14-.329.315v1.177h.658v-1.177zm.864 0c-.008-.175-.152-.315-.329-.315-.177 0-.321.14-.329.315v1.177h.658v-1.177zm.864 0c-.008-.175-.152-.315-.329-.315-.177 0-.321.14-.329.315v1.177h.658v-1.177zm.864 0c-.008-.175-.152-.315-.329-.315-.177 0-.32.14-.329.315v1.177h.658v-1.177zm-3.456 0c-.008-.175-.152-.315-.328-.315-.177 0-.321.14-.329.315v1.177h.658v-1.177zm10.387-3.097c.031.241.235.415.471.415l.063-.004 2.496-.329c.26-.035.444-.274.41-.536-.034-.261-.272-.445-.533-.411l-2.496.329c-.261.035-.444.274-.41.535zm-5.865-4.523c.031.241.236.415.471.415l.063-.004c.26-.034.444-.274.41-.536l-.327-2.506c-.034-.261-.273-.446-.533-.411-.26.034-.444.274-.41.536l.327 2.505zm-5.418.679l2.133 1.645c.086.067.188.099.289.099.143 0 .284-.064.377-.187.16-.209.121-.509-.087-.67l-2.133-1.645c-.208-.16-.507-.121-.666.088-.16.209-.12.508.087.669zm9.465.679c.086.067.188.099.29.099.142 0 .283-.064.377-.187l1.638-2.141c.16-.209.121-.508-.087-.669-.208-.161-.507-.121-.666.088l-1.638 2.142c-.16.209-.12.508.087.669zm1.234 1.422c.088.155.248.241.414.241.08 0 .16-.02.235-.062l1.482-.848c.228-.13.308-.422.178-.651-.13-.229-.421-.309-.649-.178l-1.482.848c-.228.13-.308.422-.178.65zm-7.132-1.962c.088.155.248.241.413.241.08 0 .161-.02.235-.063.228-.13.307-.422.177-.651l-.844-1.488c-.13-.229-.42-.309-.648-.178-.228.13-.308.422-.178.65l.844 1.489zm4.259-.278l.126.017c.209 0 .4-.14.458-.352l.451-1.652c.07-.254-.079-.517-.333-.587-.253-.069-.515.08-.584.334l-.451 1.652c-.07.254.079.517.333.587z" fill="#67737B"/><path d="M31.019 27.806h-.354v-8.446c0-.264-.213-.477-.476-.477h-1.315c.271-.453.458-1.013.458-1.685 0-1.675-1.218-2.625-2.107-3.319-.41-.319-.797-.621-.978-.905l-.169-.211-.176-.132v-.41c.128-.125.208-.299.208-.491 0-.379-.306-.686-.683-.686-.377 0-.683.308-.683.686 0 .193.08.367.208.492v.41l-.023.013c-.14.086-.249.203-.326.337-.184.281-.567.581-.974.898-.889.694-2.108 1.644-2.108 3.319 0 .672.187 1.232.458 1.685h-1.315c-.262 0-.475.214-.475.477v4.503c-.325-.437-.647-.898-.955-1.376v-11.648c0-.264-.213-.477-.475-.477h-1.975c-.119-.205-.31-.362-.54-.435-.09-.028-.184-.043-.283-.043h-2.882v-.507c0-.264-.213-.477-.475-.477s-.475.213-.475.477v.507h-2.882c-.099 0-.193.015-.283.043-.23.072-.422.229-.54.435h-1.975c-.263 0-.475.214-.475.477v11.648c-1.67 2.596-3.747 4.648-4.459 5.319h-.553c-.525 0-.951.428-.951.955 0 .528.426.954.951.954h30.057c.525 0 .951-.427.951-.954 0-.527-.426-.955-.951-.955zm-5.593-16.344c.133 0 .243.098.263.226-.075-.05-.166-.08-.263-.08-.098 0-.188.03-.263.08.02-.128.13-.226.263-.226zm-.631 3.926c.212-.165.427-.333.631-.512.204.179.419.346.631.512.854.666 1.373 1.12 1.373 1.811 0 .678-.441 1.053-.683 1.208h-2.642c-.242-.155-.683-.53-.683-1.208 0-.69.518-1.144 1.373-1.811zm-18.079 9.395c.223-.307.445-.626.662-.955.56-.847 1.089-1.759 1.534-2.712.396-.848.725-1.728.951-2.626.213-.843.334-1.702.334-2.562v-4.133h4.812v4.133c0 .86.122 1.719.335 2.562.226.898.555 1.779.95 2.626.445.953.974 1.865 1.534 2.712.217.328.439.648.662.955.572.788 1.155 1.504 1.697 2.126l.475.534.332.36h-4.838l-1.332-7.515c-.019-.497-.342-1.109-.985-1.869-.451-.533-.896-.943-.915-.96-.182-.167-.46-.167-.642 0-.019.017-.464.427-.915.96-.643.76-.966 1.373-.985 1.869l-1.332 7.515h-4.839c.74-.79 1.635-1.822 2.504-3.02zm14.423-4.944h8.575v8.441h-.375v-6.176c-.04-.931-.753-1.66-1.626-1.66-.442 0-.843.188-1.136.494-.293-.306-.694-.494-1.136-.494-.449 0-.856.195-1.15.51-.295-.315-.701-.51-1.151-.51-.872 0-1.586.73-1.626 1.66v3.411l-.374-.443v-5.235zm3.627 2.298c.021-.414.317-.737.675-.737.317 0 .584.252.657.597l-.01.109v6.245h-1.322v-6.213zm-.951 5.67v.114l-.122-.114c-.259-.243-.696-.669-1.229-1.235v-4.436c.021-.414.317-.737.675-.737.359 0 .653.323.675.737v5.67zm-13.743-.004l1.248-5.416.012-.106c.017-.225.593-.829 1.272-1.351.678.522 1.254 1.125 1.271 1.35l.012.107 1.248 5.416h-5.064zm2.805-7.857c-.164-.116-.383-.116-.547 0-.266.188-.692.508-1.077.883l.072-.41.007-.084c0-.377.613-1.193 1.273-1.863.864.868 1.27 1.607 1.27 1.863l.007.084.073.41c-.386-.374-.812-.694-1.078-.883zm15.511 8.404h-1.35v-6.213l.019-.14c.072-.345.34-.597.656-.597.359 0 .654.323.675.737v6.213zm-10.106-7.503c-.808-1.57-1.371-3.26-1.371-4.919v-4.61h1.371v9.53zm-11.358-9.53h1.371v4.61c0 1.659-.563 3.349-1.371 4.919v-9.53zm5.143 1.666c-.008-.175-.152-.315-.329-.315-.177 0-.32.14-.329.315v1.177h.658v-1.177zm.864 0c-.008-.175-.152-.315-.329-.315-.177 0-.321.14-.329.315v1.177h.658v-1.177zm.864 0c-.008-.175-.152-.315-.329-.315-.177 0-.321.14-.329.315v1.177h.658v-1.177zm.864 0c-.008-.175-.152-.315-.329-.315-.177 0-.32.14-.329.315v1.177h.658v-1.177zm-3.456 0c-.008-.175-.152-.315-.328-.315-.177 0-.321.14-.329.315v1.177h.658v-1.177zm10.387-3.097c.031.241.235.415.471.415l.063-.004 2.496-.329c.26-.035.444-.274.41-.536-.034-.261-.272-.445-.533-.411l-2.496.329c-.261.035-.444.274-.41.535zm-5.865-4.523c.031.241.236.415.471.415l.063-.004c.26-.034.444-.274.41-.536l-.327-2.506c-.034-.261-.273-.446-.533-.411-.26.034-.444.274-.41.536l.327 2.505zm-5.418.679l2.133 1.645c.086.067.188.099.289.099.143 0 .284-.064.377-.187.16-.209.121-.509-.087-.67l-2.133-1.645c-.208-.16-.507-.121-.666.088-.16.209-.12.508.087.669zm9.465.679c.086.067.188.099.29.099.142 0 .283-.064.377-.187l1.638-2.141c.16-.209.121-.508-.087-.669-.208-.161-.507-.121-.666.088l-1.638 2.142c-.16.209-.12.508.087.669zm1.234 1.422c.088.155.248.241.414.241.08 0 .16-.02.235-.062l1.482-.848c.228-.13.308-.422.178-.651-.13-.229-.421-.309-.649-.178l-1.482.848c-.228.13-.308.422-.178.65zm-7.132-1.962c.088.155.248.241.413.241.08 0 .161-.02.235-.063.228-.13.307-.422.177-.651l-.844-1.488c-.13-.229-.42-.309-.648-.178-.228.13-.308.422-.178.65l.844 1.489zm4.259-.278l.126.017c.209 0 .4-.14.458-.352l.451-1.652c.07-.254-.079-.517-.333-.587-.253-.069-.515.08-.584.334l-.451 1.652c-.07.254.079.517.333.587z" fill="#3A434E"/></g></g></svg>
