<svg width="32" height="232" viewBox="0 0 32 232" xmlns="http://www.w3.org/2000/svg"><title>iran</title><desc>Created with Sketch.</desc><g fill="none"><path d="M31.02 147.806h-.355v-8.446c0-.264-.213-.477-.476-.477h-1.316c.27-.453.458-1.013.458-1.685 0-1.675-1.218-2.625-2.107-3.32-.41-.318-.797-.62-.978-.904l-.17-.21-.175-.133v-.41c.128-.124.208-.298.208-.49 0-.38-.306-.686-.683-.686-.377 0-.683.308-.683.686 0 .193.08.367.208.492v.41l-.023.013c-.14.086-.25.203-.327.337-.184.28-.567.58-.974.898-.89.694-2.11 1.644-2.11 3.32 0 .67.188 1.23.46 1.684h-1.316c-.262 0-.475.214-.475.477v4.504c-.326-.437-.648-.898-.956-1.376V130.84c0-.264-.213-.477-.475-.477h-1.976c-.12-.205-.31-.362-.54-.435-.09-.028-.184-.043-.283-.043h-2.88v-.507c0-.264-.214-.477-.476-.477s-.475.214-.475.478v.507H9.246c-.1 0-.193.015-.283.043-.23.072-.422.23-.54.435H6.45c-.264 0-.476.214-.476.477v11.648c-1.67 2.596-3.747 4.648-4.46 5.32H.963c-.525 0-.95.427-.95.954 0 .528.425.954.95.954H31.02c.524 0 .95-.427.95-.954 0-.527-.426-.955-.95-.955zm-5.594-16.344c.133 0 .243.098.263.226-.076-.05-.167-.08-.264-.08-.098 0-.188.03-.263.08.02-.128.13-.226.263-.226zm-.63 3.926c.21-.165.426-.333.63-.512.204.18.42.346.63.512.855.666 1.374 1.12 1.374 1.81 0 .678-.44 1.053-.683 1.208h-2.642c-.242-.155-.683-.53-.683-1.208 0-.69.518-1.144 1.373-1.81zm-18.08 9.395c.223-.307.445-.626.662-.955.56-.847 1.09-1.76 1.534-2.712.396-.848.725-1.728.95-2.626.214-.843.335-1.702.335-2.562v-4.133h4.812v4.133c0 .86.12 1.72.334 2.562.226.898.555 1.78.95 2.626.445.953.974 1.865 1.534 2.712.217.328.44.648.662.955.572.788 1.155 1.504 1.697 2.126l.475.533.332.36h-4.838l-1.332-7.515c-.02-.497-.342-1.11-.985-1.87-.452-.532-.897-.942-.916-.96-.182-.166-.46-.166-.642 0-.02.018-.464.428-.915.96-.643.76-.966 1.374-.985 1.87l-1.332 7.515H4.21c.74-.79 1.636-1.822 2.505-3.02zm14.423-4.944h8.574v8.44h-.375v-6.176c-.04-.93-.754-1.66-1.627-1.66-.442 0-.843.188-1.136.494-.293-.306-.694-.494-1.136-.494-.448 0-.855.195-1.15.51-.294-.315-.7-.51-1.15-.51-.872 0-1.586.73-1.626 1.66v3.41l-.374-.442v-5.235zm3.626 2.297c.02-.414.317-.737.675-.737.318 0 .585.252.658.597l-.01.11v6.244h-1.322v-6.212zm-.95 5.67v.114l-.123-.113c-.26-.243-.696-.67-1.23-1.235v-4.436c.022-.414.318-.737.676-.737.358 0 .652.322.674.736v5.67zm-13.744-.004l1.248-5.416.012-.106c.017-.224.593-.828 1.272-1.35.678.522 1.254 1.125 1.27 1.35l.013.107 1.248 5.416H10.07zm2.805-7.857c-.164-.116-.383-.116-.547 0-.266.188-.692.508-1.077.883l.072-.41.007-.085c0-.377.613-1.193 1.273-1.863.864.868 1.27 1.607 1.27 1.863l.007.084.073.41c-.386-.375-.812-.695-1.078-.884zm15.51 8.404h-1.35v-6.213l.02-.14c.072-.345.34-.597.656-.597.36 0 .654.323.675.737v6.213zm-10.105-7.503c-.808-1.57-1.37-3.26-1.37-4.92v-4.61h1.37v9.53zm-11.358-9.53h1.37v4.61c0 1.66-.562 3.35-1.37 4.92v-9.53zm5.143 1.666c-.008-.175-.152-.315-.33-.315-.176 0-.32.14-.328.315v1.177h.657v-1.177zm.864 0c-.007-.175-.15-.315-.328-.315-.177 0-.32.14-.33.315v1.177h.66v-1.177zm.865 0c-.008-.175-.152-.315-.33-.315-.176 0-.32.14-.328.315v1.177h.658v-1.177zm.864 0c-.01-.175-.153-.315-.33-.315-.177 0-.32.14-.33.315v1.177h.66v-1.177zm-3.457 0c-.008-.175-.152-.315-.328-.315-.177 0-.32.14-.33.315v1.177h.66v-1.177zm10.387-3.097c.03.24.235.415.47.415l.064-.003 2.496-.33c.26-.034.444-.273.41-.535-.034-.26-.272-.445-.533-.41L22 129.35c-.26.035-.443.274-.41.535zm-5.865-4.523c.03.24.236.415.47.415l.064-.004c.26-.034.443-.274.41-.536l-.328-2.506c-.034-.26-.273-.446-.533-.41-.26.033-.445.273-.41.535l.326 2.505zm-5.418.68l2.133 1.644c.086.067.188.1.29.1.142 0 .283-.065.376-.188.16-.21.12-.51-.087-.67l-2.134-1.646c-.208-.16-.507-.12-.666.088-.16.21-.12.508.087.67zm9.465.678c.086.068.188.1.29.1.142 0 .283-.064.377-.187l1.637-2.14c.16-.21.12-.51-.087-.67-.208-.16-.507-.12-.666.088l-1.638 2.143c-.16.21-.12.508.087.67zm1.234 1.423c.088.155.248.24.414.24.08 0 .16-.02.235-.06l1.482-.85c.228-.13.308-.42.178-.65-.13-.23-.42-.31-.65-.178l-1.48.848c-.23.13-.31.422-.18.65zm-7.132-1.962c.088.156.248.242.413.242.08 0 .16-.02.235-.063.228-.13.307-.423.177-.652l-.845-1.488c-.13-.23-.42-.31-.648-.178-.228.13-.308.422-.178.65l.843 1.49zm4.26-.277l.125.017c.208 0 .4-.14.457-.352l.45-1.652c.07-.254-.078-.517-.332-.587-.253-.07-.515.08-.584.333l-.45 1.652c-.07.254.08.517.333.587z" fill="#206FAC"/><path d="M31.02 107.806h-.355V99.36c0-.264-.213-.477-.476-.477h-1.316c.27-.453.458-1.013.458-1.685 0-1.675-1.218-2.625-2.107-3.32-.41-.318-.797-.62-.978-.904l-.17-.21-.175-.133v-.41c.128-.124.208-.298.208-.49 0-.38-.306-.686-.683-.686-.377 0-.683.308-.683.686 0 .193.08.367.208.492v.41l-.023.013c-.14.086-.25.203-.327.337-.184.28-.567.58-.974.898-.89.694-2.11 1.644-2.11 3.32 0 .67.188 1.23.46 1.684h-1.316c-.262 0-.475.214-.475.477v4.504c-.326-.437-.648-.898-.956-1.376V90.84c0-.264-.213-.477-.475-.477h-1.976c-.12-.205-.31-.362-.54-.435-.09-.028-.184-.043-.283-.043h-2.88v-.507c0-.264-.214-.477-.476-.477s-.475.214-.475.478v.507H9.246c-.1 0-.193.015-.283.043-.23.072-.422.23-.54.435H6.45c-.264 0-.476.214-.476.477v11.648c-1.67 2.596-3.747 4.648-4.46 5.32H.963c-.525 0-.95.427-.95.954 0 .528.425.954.95.954H31.02c.524 0 .95-.427.95-.954 0-.527-.426-.955-.95-.955zm-5.594-16.344c.133 0 .243.098.263.226-.076-.05-.167-.08-.264-.08-.098 0-.188.03-.263.08.02-.128.13-.226.263-.226zm-.63 3.926c.21-.165.426-.333.63-.512.204.18.42.346.63.512.855.666 1.374 1.12 1.374 1.81 0 .68-.44 1.054-.683 1.21h-2.642c-.242-.156-.683-.53-.683-1.21 0-.69.518-1.143 1.373-1.81zm-18.08 9.395c.223-.307.445-.626.662-.955.56-.847 1.09-1.76 1.534-2.712.396-.848.725-1.728.95-2.626.214-.843.335-1.702.335-2.562v-4.133h4.812v4.133c0 .86.12 1.72.334 2.562.226.898.555 1.78.95 2.626.445.953.974 1.865 1.534 2.712.217.328.44.648.662.955.572.788 1.155 1.504 1.697 2.126l.475.533.332.36h-4.838l-1.332-7.515c-.02-.497-.342-1.11-.985-1.87-.452-.532-.897-.942-.916-.96-.182-.166-.46-.166-.642 0-.02.018-.464.428-.915.96-.643.76-.966 1.374-.985 1.87l-1.332 7.515H4.21c.74-.79 1.636-1.822 2.505-3.02zM21.14 99.84h8.574v8.44h-.375v-6.176c-.04-.93-.754-1.66-1.627-1.66-.442 0-.843.188-1.136.494-.293-.306-.694-.494-1.136-.494-.448 0-.855.195-1.15.51-.294-.315-.7-.51-1.15-.51-.872 0-1.586.73-1.626 1.66v3.41l-.374-.442v-5.235zm3.626 2.297c.02-.414.317-.737.675-.737.318 0 .585.252.658.597l-.01.11v6.244h-1.322v-6.212zm-.95 5.67v.114l-.123-.113c-.26-.243-.696-.67-1.23-1.235v-4.436c.022-.414.318-.737.676-.737.358 0 .652.322.674.736v5.67zm-13.744-.004l1.248-5.416.012-.106c.017-.224.593-.828 1.272-1.35.678.522 1.254 1.125 1.27 1.35l.013.107 1.248 5.416H10.07zm2.805-7.857c-.164-.116-.383-.116-.547 0-.266.188-.692.508-1.077.883l.072-.41.007-.085c0-.377.613-1.193 1.273-1.863.864.868 1.27 1.607 1.27 1.863l.007.084.073.41c-.386-.375-.812-.695-1.078-.884zm15.51 8.404h-1.35v-6.213l.02-.14c.072-.345.34-.597.656-.597.36 0 .654.323.675.737v6.213zm-10.105-7.503c-.808-1.57-1.37-3.26-1.37-4.92v-4.61h1.37v9.53zm-11.358-9.53h1.37v4.61c0 1.66-.562 3.35-1.37 4.92v-9.53zm5.143 1.666c-.008-.175-.152-.315-.33-.315-.176 0-.32.14-.328.315v1.177h.657v-1.177zm.864 0c-.007-.175-.15-.315-.328-.315-.177 0-.32.14-.33.315v1.177h.66v-1.177zm.865 0c-.008-.175-.152-.315-.33-.315-.176 0-.32.14-.328.315v1.177h.658v-1.177zm.864 0c-.01-.175-.153-.315-.33-.315-.177 0-.32.14-.33.315v1.177h.66v-1.177zm-3.457 0c-.008-.175-.152-.315-.328-.315-.177 0-.32.14-.33.315v1.177h.66v-1.177zm10.387-3.097c.03.24.235.415.47.415l.064-.003 2.496-.33c.26-.034.444-.273.41-.535-.034-.26-.272-.445-.533-.41L22 89.35c-.26.035-.443.274-.41.535zm-5.865-4.523c.03.24.236.415.47.415l.064-.004c.26-.034.443-.274.41-.536l-.328-2.506c-.034-.26-.273-.446-.533-.41-.26.033-.445.273-.41.535l.326 2.505zm-5.418.68l2.133 1.644c.086.067.188.1.29.1.142 0 .283-.065.376-.188.16-.21.12-.51-.087-.67l-2.134-1.646c-.208-.16-.507-.12-.666.088-.16.21-.12.508.087.67zm9.465.678c.086.068.188.1.29.1.142 0 .283-.064.377-.187l1.637-2.14c.16-.21.12-.51-.087-.67-.208-.16-.507-.12-.666.088l-1.638 2.143c-.16.21-.12.508.087.67zm1.234 1.423c.088.155.248.24.414.24.08 0 .16-.02.235-.06l1.482-.85c.228-.13.308-.42.178-.65-.13-.23-.42-.31-.65-.178l-1.48.848c-.23.13-.31.422-.18.65zm-7.132-1.962c.088.156.248.242.413.242.08 0 .16-.02.235-.063.228-.13.307-.423.177-.652l-.845-1.488c-.13-.23-.42-.31-.648-.178-.228.13-.308.422-.178.65l.843 1.49zm4.26-.277l.125.017c.208 0 .4-.14.457-.352l.45-1.652c.07-.254-.078-.517-.332-.587-.253-.07-.515.08-.584.333l-.45 1.652c-.07.254.08.517.333.587z" fill="#fff"/><path d="M31.02 67.806h-.355V59.36c0-.264-.213-.477-.476-.477h-1.316c.27-.453.458-1.013.458-1.685 0-1.675-1.218-2.625-2.107-3.32-.41-.318-.797-.62-.978-.904l-.17-.21-.175-.133v-.41c.128-.124.208-.298.208-.49 0-.38-.306-.686-.683-.686-.377 0-.683.308-.683.686 0 .193.08.367.208.492v.41l-.023.013c-.14.086-.25.203-.327.337-.184.28-.567.58-.974.898-.89.694-2.11 1.644-2.11 3.32 0 .67.188 1.23.46 1.684h-1.316c-.262 0-.475.214-.475.477v4.504c-.326-.437-.648-.898-.956-1.376V50.84c0-.264-.213-.477-.475-.477h-1.976c-.12-.205-.31-.362-.54-.435-.09-.028-.184-.043-.283-.043h-2.88v-.507c0-.264-.214-.477-.476-.477s-.475.214-.475.478v.507H9.246c-.1 0-.193.015-.283.043-.23.072-.422.23-.54.435H6.45c-.264 0-.476.214-.476.477v11.648c-1.67 2.596-3.747 4.648-4.46 5.32H.963c-.525 0-.95.427-.95.954 0 .528.425.954.95.954H31.02c.524 0 .95-.427.95-.954 0-.527-.426-.955-.95-.955zm-5.594-16.344c.133 0 .243.098.263.226-.076-.05-.167-.08-.264-.08-.098 0-.188.03-.263.08.02-.128.13-.226.263-.226zm-.63 3.926c.21-.165.426-.333.63-.512.204.18.42.346.63.512.855.666 1.374 1.12 1.374 1.81 0 .68-.44 1.054-.683 1.21h-2.642c-.242-.156-.683-.53-.683-1.21 0-.69.518-1.143 1.373-1.81zm-18.08 9.395c.223-.307.445-.626.662-.955.56-.847 1.09-1.76 1.534-2.712.396-.848.725-1.728.95-2.626.214-.843.335-1.702.335-2.562v-4.133h4.812v4.133c0 .86.12 1.72.334 2.562.226.898.555 1.78.95 2.626.445.953.974 1.865 1.534 2.712.217.328.44.648.662.955.572.788 1.155 1.504 1.697 2.126l.475.533.332.36h-4.838l-1.332-7.515c-.02-.497-.342-1.11-.985-1.87-.452-.532-.897-.942-.916-.96-.182-.166-.46-.166-.642 0-.02.018-.464.428-.915.96-.643.76-.966 1.374-.985 1.87L9.05 67.803H4.21c.74-.79 1.636-1.822 2.505-3.02zM21.14 59.84h8.574v8.44h-.375v-6.176c-.04-.93-.754-1.66-1.627-1.66-.442 0-.843.188-1.136.494-.293-.306-.694-.494-1.136-.494-.448 0-.855.195-1.15.51-.294-.315-.7-.51-1.15-.51-.872 0-1.586.73-1.626 1.66v3.41l-.374-.442v-5.235zm3.626 2.297c.02-.414.317-.737.675-.737.318 0 .585.252.658.597l-.01.11v6.244h-1.322V62.14zm-.95 5.67v.114l-.123-.113c-.26-.243-.696-.67-1.23-1.235v-4.436c.022-.414.318-.737.676-.737.358 0 .652.322.674.736v5.67zm-13.744-.004l1.248-5.416.012-.106c.017-.224.593-.828 1.272-1.35.678.522 1.254 1.125 1.27 1.35l.013.107 1.248 5.416H10.07zm2.805-7.857c-.164-.116-.383-.116-.547 0-.266.188-.692.508-1.077.883l.072-.41.007-.085c0-.377.613-1.193 1.273-1.863.864.868 1.27 1.607 1.27 1.863l.007.084.073.41c-.386-.375-.812-.695-1.078-.884zm15.51 8.404h-1.35v-6.213l.02-.14c.072-.345.34-.597.656-.597.36 0 .654.323.675.737v6.213zm-10.105-7.503c-.808-1.57-1.37-3.26-1.37-4.92v-4.61h1.37v9.53zm-11.358-9.53h1.37v4.61c0 1.66-.562 3.35-1.37 4.92v-9.53zm5.143 1.666c-.008-.175-.152-.315-.33-.315-.176 0-.32.14-.328.315v1.177h.657v-1.177zm.864 0c-.007-.175-.15-.315-.328-.315-.177 0-.32.14-.33.315v1.177h.66v-1.177zm.865 0c-.008-.175-.152-.315-.33-.315-.176 0-.32.14-.328.315v1.177h.658v-1.177zm.864 0c-.01-.175-.153-.315-.33-.315-.177 0-.32.14-.33.315v1.177h.66v-1.177zm-3.457 0c-.008-.175-.152-.315-.328-.315-.177 0-.32.14-.33.315v1.177h.66v-1.177zm10.387-3.097c.03.24.235.415.47.415l.064-.003 2.496-.33c.26-.034.444-.273.41-.535-.034-.26-.272-.445-.533-.41L22 49.35c-.26.035-.443.274-.41.535zm-5.865-4.523c.03.24.236.415.47.415l.064-.004c.26-.034.443-.274.41-.536l-.328-2.506c-.034-.26-.273-.446-.533-.41-.26.033-.445.273-.41.535l.326 2.505zm-5.418.68l2.133 1.644c.086.067.188.1.29.1.142 0 .283-.065.376-.188.16-.21.12-.51-.087-.67l-2.134-1.646c-.208-.16-.507-.12-.666.088-.16.21-.12.508.087.67zm9.465.678c.086.068.188.1.29.1.142 0 .283-.064.377-.187l1.637-2.14c.16-.21.12-.51-.087-.67-.208-.16-.507-.12-.666.088l-1.638 2.143c-.16.21-.12.508.087.67zm1.234 1.423c.088.155.248.24.414.24.08 0 .16-.02.235-.06l1.482-.85c.228-.13.308-.42.178-.65-.13-.23-.42-.31-.65-.178l-1.48.848c-.23.13-.31.422-.18.65zm-7.132-1.962c.088.156.248.242.413.242.08 0 .16-.02.235-.063.228-.13.307-.423.177-.652l-.845-1.488c-.13-.23-.42-.31-.648-.178-.228.13-.308.422-.178.65l.843 1.49zm4.26-.277l.125.017c.208 0 .4-.14.457-.352l.45-1.652c.07-.254-.078-.517-.332-.587-.253-.07-.515.08-.584.333l-.45 1.652c-.07.254.08.517.333.587z" fill="#67737B"/><path d="M31.02 27.806h-.355V19.36c0-.264-.213-.477-.476-.477h-1.316c.27-.453.458-1.013.458-1.685 0-1.675-1.218-2.625-2.107-3.32-.41-.318-.797-.62-.978-.904l-.17-.21-.175-.133v-.41c.128-.124.208-.298.208-.49 0-.38-.306-.686-.683-.686-.377 0-.683.308-.683.686 0 .193.08.367.208.492v.41l-.023.013c-.14.086-.25.203-.327.337-.184.28-.567.58-.974.898-.89.694-2.11 1.644-2.11 3.32 0 .67.188 1.23.46 1.684h-1.316c-.262 0-.475.214-.475.477v4.504c-.326-.437-.648-.898-.956-1.376V10.84c0-.264-.213-.477-.475-.477h-1.976c-.12-.205-.31-.362-.54-.435-.09-.028-.184-.043-.283-.043h-2.88v-.507c0-.264-.214-.477-.476-.477s-.475.214-.475.478v.507H9.246c-.1 0-.193.015-.283.043-.23.072-.422.23-.54.435H6.45c-.264 0-.476.214-.476.477v11.648c-1.67 2.596-3.747 4.648-4.46 5.32H.963c-.525 0-.95.427-.95.954 0 .528.425.954.95.954H31.02c.524 0 .95-.427.95-.954 0-.527-.426-.955-.95-.955zm-5.594-16.344c.133 0 .243.098.263.226-.076-.05-.167-.08-.264-.08-.098 0-.188.03-.263.08.02-.128.13-.226.263-.226zm-.63 3.926c.21-.165.426-.333.63-.512.204.18.42.346.63.512.855.666 1.374 1.12 1.374 1.81 0 .68-.44 1.054-.683 1.21h-2.642c-.242-.156-.683-.53-.683-1.21 0-.69.518-1.143 1.373-1.81zm-18.08 9.395c.223-.307.445-.626.662-.955.56-.847 1.09-1.76 1.534-2.712.396-.848.725-1.728.95-2.626.214-.843.335-1.702.335-2.562v-4.133h4.812v4.133c0 .86.12 1.72.334 2.562.226.898.555 1.78.95 2.626.445.953.974 1.865 1.534 2.712.217.328.44.648.662.955.572.788 1.155 1.504 1.697 2.126l.475.533.332.36h-4.838l-1.332-7.515c-.02-.497-.342-1.11-.985-1.87-.452-.532-.897-.942-.916-.96-.182-.166-.46-.166-.642 0-.02.018-.464.428-.915.96-.643.76-.966 1.374-.985 1.87L9.05 27.803H4.21c.74-.79 1.636-1.822 2.505-3.02zM21.14 19.84h8.574v8.44h-.375v-6.176c-.04-.93-.754-1.66-1.627-1.66-.442 0-.843.188-1.136.494-.293-.306-.694-.494-1.136-.494-.448 0-.855.195-1.15.51-.294-.315-.7-.51-1.15-.51-.872 0-1.586.73-1.626 1.66v3.41l-.374-.442v-5.235zm3.626 2.297c.02-.414.317-.737.675-.737.318 0 .585.252.658.597l-.01.11v6.244h-1.322V22.14zm-.95 5.67v.114l-.123-.113c-.26-.243-.696-.67-1.23-1.235v-4.436c.022-.414.318-.737.676-.737.358 0 .652.322.674.736v5.67zm-13.744-.004l1.248-5.416.012-.106c.017-.224.593-.828 1.272-1.35.678.522 1.254 1.125 1.27 1.35l.013.107 1.248 5.416H10.07zm2.805-7.857c-.164-.116-.383-.116-.547 0-.266.188-.692.508-1.077.883l.072-.41.007-.085c0-.377.613-1.193 1.273-1.863.864.868 1.27 1.607 1.27 1.863l.007.084.073.41c-.386-.375-.812-.695-1.078-.884zm15.51 8.404h-1.35v-6.213l.02-.14c.072-.345.34-.597.656-.597.36 0 .654.323.675.737v6.213zm-10.105-7.503c-.808-1.57-1.37-3.26-1.37-4.92v-4.61h1.37v9.53zm-11.358-9.53h1.37v4.61c0 1.66-.562 3.35-1.37 4.92v-9.53zm5.143 1.666c-.008-.175-.152-.315-.33-.315-.176 0-.32.14-.328.315v1.177h.657v-1.177zm.864 0c-.007-.175-.15-.315-.328-.315-.177 0-.32.14-.33.315v1.177h.66v-1.177zm.865 0c-.008-.175-.152-.315-.33-.315-.176 0-.32.14-.328.315v1.177h.658v-1.177zm.864 0c-.01-.175-.153-.315-.33-.315-.177 0-.32.14-.33.315v1.177h.66v-1.177zm-3.457 0c-.008-.175-.152-.315-.328-.315-.177 0-.32.14-.33.315v1.177h.66v-1.177zM21.59 9.886c.03.24.235.415.47.415l.064-.003 2.496-.33c.26-.034.444-.273.41-.535-.034-.26-.272-.445-.533-.41L22 9.35c-.26.035-.443.274-.41.535zm-5.865-4.523c.03.24.236.415.47.415l.064-.004c.26-.034.443-.274.41-.536l-.328-2.506c-.034-.26-.273-.446-.533-.41-.26.033-.445.273-.41.535l.326 2.505zm-5.418.68l2.133 1.644c.086.067.188.1.29.1.142 0 .283-.065.376-.188.16-.21.12-.51-.087-.67l-2.134-1.646c-.208-.16-.507-.12-.666.088-.16.21-.12.508.087.67zm9.465.678c.086.068.188.1.29.1.142 0 .283-.064.377-.187l1.637-2.14c.16-.21.12-.51-.087-.67-.208-.16-.507-.12-.666.088l-1.638 2.143c-.16.21-.12.508.087.67zm1.234 1.423c.088.155.248.24.414.24.08 0 .16-.02.235-.06l1.482-.85c.228-.13.308-.42.178-.65-.13-.23-.42-.31-.65-.178l-1.48.848c-.23.13-.31.422-.18.65zM13.874 6.18c.088.156.248.242.413.242.08 0 .16-.02.235-.063.228-.13.307-.423.177-.652l-.845-1.488c-.13-.23-.42-.31-.648-.178-.228.13-.308.422-.178.65l.843 1.49zm4.26-.277l.125.017c.208 0 .4-.14.457-.352l.45-1.652c.07-.254-.078-.517-.332-.587-.253-.07-.515.08-.584.333l-.45 1.652c-.07.254.08.517.333.587z" fill="#3A434E"/></g></svg>