<svg width="32" height="232" viewBox="0 0 32 232" xmlns="http://www.w3.org/2000/svg"><desc>Created with Sketch.</desc><g fill="none"><path d="M20.955 124.95c.197.187.45.29.71.29h2.666c0 .293.12.572.32.765.176.165.398.255.628.255h2.9c.52 0 .944-.458.944-1.02 0-.56-.42-1.017-.94-1.02l.01-.14c0-.64-.483-1.163-1.075-1.163h-5.45c-.26 0-.512.103-.71.29-.23.22-.363.54-.363.872 0 .33.135.65.367.87zm.624-.977l.082-.036h5.45c.07 0 .13.064.13.14 0 .08-.06.142-.13.142-.262 0-.473.224-.473.51 0 .28.21.51.47.51h1.064-2.9c.262 0 .473-.23.473-.51 0-.286-.212-.51-.473-.51h-3.612l-.085-.04-.045-.106.045-.106zm-16.33-.554l-.01.14c0 .64.48 1.16 1.073 1.16h5.45c.26 0 .512-.104.71-.29.23-.22.363-.54.363-.87 0-.335-.134-.65-.366-.87-.196-.19-.447-.29-.71-.29H9.1v-.005c0-.293-.117-.57-.32-.765-.172-.163-.394-.254-.623-.254h-2.9c-.522 0-.945.457-.945 1.02 0 .56.42 1.017.94 1.02zm2.902-1.02H8.15c-.26 0-.47.225-.47.51 0 .28.212.51.472.51h3.61l.087.032.043.106-.045.105-.087.036H6.31c-.07 0-.13-.064-.13-.14 0-.08.06-.143.13-.143.263 0 .474-.23.474-.51 0-.283-.21-.51-.47-.51H5.252h2.9zm23.36 24.832c-.282 0-.402-.05-.57-.12l-.103-.044v-14.02c0-.283-.21-.51-.47-.51h-4.6v-.67c0-.284-.214-.51-.475-.51s-.472.226-.472.51v.67h-2.68v-2.407l.007-.074c0-2.357-1.67-4.3-3.796-4.52v-3.198c0-.282-.21-.51-.472-.51h-2.606c-.174 0-.334.104-.416.27-.083.166-.074.367.023.523l.505.817-.504.815c-.096.156-.105.358-.023.523.08.165.24.27.417.27h2.136v.504c-2.064.285-3.666 2.195-3.666 4.503v.79h-.6c-.26 0-.472.23-.472.51v.467h-.31v-.467c0-.282-.212-.51-.472-.51h-1.565c-.26 0-.472.23-.472.51v.467h-.31v-.467c0-.282-.21-.51-.47-.51h-1.57c-.26 0-.47.23-.47.51v.467h-.31v-.467c0-.282-.21-.51-.473-.51H4.687c-.26 0-.472.23-.472.51v.467h-.31v-.467c0-.282-.21-.51-.47-.51H1.57c-.26 0-.472.23-.472.51v1.69c0 .283.21.51.472.51h.048v13.47l.033.183-.282-.096c-.202-.085-.453-.19-.91-.19-.262 0-.473.227-.473.51 0 .28.21.51.472.51.28 0 .4.05.568.12.202.085.453.19.912.19s.71-.105.91-.19c.167-.07.288-.12.57-.12.28 0 .4.05.567.12.203.085.454.19.912.19.46 0 .71-.105.91-.19.167-.07.288-.12.57-.12.28 0 .4.05.567.12.2.085.453.19.91.19.46 0 .71-.105.913-.19.166-.07.287-.12.568-.12.28 0 .4.05.57.12.2.085.45.19.91.19s.71-.105.91-.19c.167-.07.288-.12.57-.12.28 0 .4.05.567.12.2.085.453.19.91.19.46 0 .71-.105.913-.19.165-.07.286-.12.567-.12.28 0 .4.05.567.12.2.085.452.19.91.19s.71-.105.912-.19c.165-.07.285-.12.566-.12.28 0 .4.05.568.12.202.085.453.19.91.19.46 0 .71-.105.913-.19.166-.07.287-.12.568-.12.28 0 .4.05.568.12.203.085.453.19.912.19s.71-.105.912-.19c.166-.07.287-.12.568-.12.28 0 .4.05.567.12.2.085.453.19.91.19s.71-.105.913-.19c.167-.07.287-.12.568-.12.28 0 .403.05.57.12.2.085.452.19.91.19.46 0 .71-.105.912-.19.168-.07.288-.12.57-.12.28 0 .4.05.567.12.2.085.452.19.91.19.26 0 .47-.227.47-.51 0-.28-.21-.508-.47-.508zM2.04 131.867h.92v.467c0 .282.213.51.473.51h1.254c.26 0 .472-.23.472-.51v-.467h.62v.467c0 .282.21.51.47.51H7.5c.26 0 .472-.23.472-.51v-.467h.62v.467c0 .282.212.51.473.51h1.253c.26 0 .473-.23.473-.51v-.467h.62v.467c0 .282.21.51.472.51h1.254c.26 0 .47-.23.47-.51v-.467h.867v.67c-.1.002-.19.038-.267.095-.12.093-.2.244-.2.415v.505l-.027-.002H2.59l-.03.002v-.505c0-.282-.21-.51-.47-.51h-.05v-.67zm14.744-5.102c-.3.733-.472 1.747-.523 2.78h-1.54c.17-1.275.98-2.33 2.066-2.78zm4.387 2.78h-1.54c-.05-1.032-.22-2.047-.52-2.78 1.083.448 1.89 1.505 2.063 2.78zm-7.95 13.93c-.28-.02-.56-.03-.84-.03-.36 0-.723.013-1.085.036-3.085.2-6.054 1.237-8.686 3.037v-1.973c.47-.194.953-.373 1.445-.54 2.557-.857 5.398-1.307 8.328-1.307l.548.008.355.016c.396.02.795.048 1.2.09l.33.04.613.085c1.32.2 2.692.526 4.13.984l.055.017c.293.094.59.194.888.3l.057.02.834.303v2.002c-.28-.18-.557-.352-.833-.516l-.056-.034c-.3-.176-.593-.343-.887-.5l-.056-.03c-1.43-.766-2.802-1.31-4.13-1.643-.316-.08-.63-.15-.943-.204l-.123-.02c-.38-.065-.76-.11-1.135-.137zm6.335-.625c-1.433-.442-2.804-.758-4.13-.95v-8.343h4.13v9.293zm-13.5-5.752h.943v2.808H6.05v-2.808zm3.527 0h.944v2.808H9.58v-2.808zm-1.764 0h.944v2.808h-.946v-2.808zm5.112 4.58l-.547-.007c-2.916 0-5.753.438-8.327 1.266v-7.344h8.875v6.09zm5.018-14.994c.204.112.65 1.062.74 2.86h-1.48c.09-1.798.536-2.748.74-2.86zm-3.26 3.88H21.2v1.72h-.648v-.42c0-.28-.21-.51-.472-.51s-.473.23-.473.51v.42h-4.184v-.928c0-.282-.21-.51-.472-.51h-.262v-.28zm4.867 16.056v.248h-4.13v-1.985c1.32.353 2.69.93 4.13 1.737zm6.215-13.064h4.13v13.312h-4.13v-13.312zm-1.087 0v13.312h-2.35v-2.676c0-.215-.124-.407-.312-.48-.495-.192-.983-.37-1.465-.536v-9.62h4.13zm-8.524-9.53l.19-.306c.104-.17.104-.395 0-.566l-.19-.306h1.252v1.178h-1.254zm-2.393 23.208c-.28 0-.402-.05-.568-.12-.203-.086-.454-.192-.91-.192-.46 0-.71.106-.913.19-.166.072-.287.122-.568.122-.28 0-.403-.05-.57-.12-.2-.086-.452-.192-.91-.192-.46 0-.71.106-.912.19-.167.072-.287.122-.568.122-.28 0-.4-.05-.568-.12-.203-.086-.454-.192-.913-.192s-.71.106-.91.19c-.17.072-.29.122-.57.122-.28 0-.4-.05-.568-.12-.143-.06-.31-.13-.555-.166 2.627-1.63 5.574-2.483 8.612-2.483.686 0 1.384.068 2.1.202v2.386l-.15.06c-.166.07-.287.12-.568.12zm14.79 2.15c-.28 0-.4-.05-.568-.12-.203-.085-.454-.19-.91-.19-.46 0-.71.105-.914.19-.167.07-.287.12-.568.12-.28 0-.4-.05-.568-.12-.202-.085-.453-.19-.91-.19-.46 0-.71.105-.913.19-.167.07-.287.12-.568.12-.28 0-.4-.05-.57-.12-.2-.085-.452-.19-.91-.19-.46 0-.71.105-.912.19-.166.07-.287.12-.568.12-.28 0-.4-.05-.568-.12-.203-.085-.454-.19-.913-.19-.46 0-.71.105-.91.19-.168.07-.29.12-.57.12-.28 0-.4-.05-.568-.12-.204-.085-.455-.19-.913-.19-.46 0-.71.105-.91.19-.168.07-.29.12-.57.12-.28 0-.4-.05-.568-.12-.2-.085-.452-.19-.91-.19-.26 0-.472.227-.472.508 0 .282.21.51.472.51.28 0 .4.05.568.12.2.087.452.192.91.192.46 0 .71-.105.912-.19.166-.07.287-.122.568-.122.28 0 .4.05.568.12.2.087.452.192.91.192s.71-.105.912-.19c.167-.07.287-.122.568-.122.28 0 .4.05.568.12.202.087.453.192.91.192.46 0 .71-.105.913-.19.165-.07.286-.122.567-.122.28 0 .4.05.568.12.202.087.452.192.91.192s.71-.105.913-.19c.166-.07.287-.122.568-.122.28 0 .4.05.567.12.205.087.456.192.915.192s.71-.105.91-.19c.168-.07.288-.122.57-.122.28 0 .4.05.567.12.203.087.454.192.91.192.263 0 .474-.228.474-.51 0-.28-.213-.51-.473-.51zm-1.422-11.12c-.27 0-.492.232-.504.523v1.328h1.013v-1.328c-.013-.29-.234-.522-.506-.522zm1.517 0c-.273 0-.494.232-.507.523v1.328h1.013v-1.328c-.012-.29-.234-.522-.506-.522zm-1.516-2.506c-.27 0-.493.23-.505.52v1.33h1.01v-1.33c-.012-.29-.233-.52-.505-.52zm1.516 0c-.272 0-.493.23-.506.52v1.33h1.012v-1.33c-.012-.29-.234-.52-.506-.52zm-11.41 1.496c-.013-.19-.235-.34-.506-.34-.272 0-.493.15-.506.34v.865h1.013v-.87zm1.515 0c-.01-.19-.233-.34-.505-.34s-.494.15-.506.34v.865h1.01v-.87zm-1.514-1.632c-.013-.19-.235-.34-.506-.34-.272 0-.493.15-.506.34v.865h1.014v-.865zm1.515 0c-.01-.19-.233-.34-.505-.34s-.495.15-.507.34v.865h1.01v-.865zm-1.514 5.144c-.012-.19-.234-.34-.505-.34-.273 0-.494.15-.507.34v.865h1.012v-.86zm1.516 0c-.01-.19-.233-.34-.505-.34s-.493.15-.505.34v.865h1.01v-.86zm-1.514-1.632c-.012-.19-.234-.34-.505-.34-.27 0-.492.15-.505.34V140h1.013v-.866zm1.516 0c-.01-.19-.233-.34-.505-.34s-.493.15-.505.34V140h1.01v-.866zm8.38 4.714c-.27 0-.493.23-.505.52v1.33h1.013v-1.33c-.013-.29-.234-.52-.506-.52zm1.516 0c-.272 0-.493.23-.506.52v1.33h1.012v-1.33c-.012-.29-.234-.52-.506-.52zm-1.515-2.508c-.27 0-.494.23-.506.522v1.328h1.012v-1.328c-.014-.29-.235-.522-.507-.522zm1.515 0c-.272 0-.493.23-.506.522v1.328h1.01v-1.328c-.012-.29-.234-.522-.506-.522zm-6.282-2.7c-.012-.29-.233-.52-.505-.52s-.493.23-.505.52v1.33h1.01v-1.33zm1.517 0c-.012-.29-.234-.52-.506-.52s-.492.23-.505.52v1.33h1.01v-1.33zm-1.516-2.508c-.012-.29-.233-.52-.505-.52s-.495.23-.507.52v1.33h1.01v-1.33zm1.517 0c-.01-.29-.233-.52-.505-.52s-.493.23-.506.52v1.33h1.012v-1.33zm-1.515 4.995c-.013-.29-.234-.52-.506-.52s-.494.23-.506.52v1.33h1.01v-1.33zm1.516 0c-.012-.29-.234-.52-.506-.52s-.492.23-.505.52v1.33h1.013v-1.33z" fill="#206FAC"/><path d="M20.955 84.95c.197.187.45.29.71.29h2.666c0 .293.12.572.32.765.176.165.398.255.628.255h2.9c.52 0 .944-.458.944-1.02 0-.56-.42-1.017-.94-1.02l.01-.14c0-.64-.483-1.163-1.075-1.163h-5.45c-.26 0-.512.103-.71.29-.23.22-.363.54-.363.872 0 .33.135.65.367.87zm.624-.977l.082-.036h5.45c.07 0 .13.064.13.14 0 .08-.06.142-.13.142-.262 0-.473.224-.473.51 0 .28.21.51.47.51h1.064-2.9c.262 0 .473-.23.473-.51 0-.286-.212-.51-.473-.51h-3.612l-.085-.04-.045-.106.045-.106zM5.25 83.42l-.008.14c0 .64.482 1.162 1.074 1.162h5.45c.26 0 .512-.103.71-.29.23-.222.363-.54.363-.872 0-.332-.137-.65-.37-.87-.196-.188-.447-.29-.71-.29H9.1v-.002c0-.293-.117-.57-.32-.765-.172-.164-.394-.255-.623-.255h-2.9c-.522 0-.945.457-.945 1.02 0 .56.42 1.017.94 1.02zm2.905-1.02h-.002c-.26 0-.472.228-.472.51 0 .282.216.51.476.51h3.61l.087.035.046.106-.046.11-.085.035H6.32c-.07 0-.13-.064-.13-.14 0-.08.06-.143.13-.143.26 0 .472-.23.472-.51s-.21-.51-.47-.51h-1.07 2.9zm23.36 24.835c-.282 0-.402-.05-.57-.12l-.103-.044V93.05c0-.282-.21-.51-.472-.51h-4.6v-.67c0-.283-.212-.51-.473-.51s-.472.227-.472.51v.67h-2.68v-2.405l.007-.075c0-2.356-1.67-4.3-3.798-4.52v-3.2c0-.28-.21-.51-.472-.51h-2.607c-.174 0-.334.105-.416.27-.086.167-.077.368.02.524l.504.816-.504.816c-.096.156-.105.358-.023.523.08.162.24.265.415.265h2.136v.506c-2.065.287-3.667 2.197-3.667 4.505v.79h-.6c-.26 0-.47.23-.47.51v.467h-.31v-.467c0-.282-.21-.51-.47-.51h-1.566c-.26 0-.472.23-.472.51v.467h-.31v-.467c0-.282-.21-.51-.47-.51H7.506c-.26 0-.472.23-.472.51v.467h-.31v-.467c0-.282-.21-.51-.472-.51H4.687c-.26 0-.472.23-.472.51v.467h-.31v-.467c0-.282-.21-.51-.47-.51H1.57c-.26 0-.472.23-.472.51v1.69c0 .283.21.51.472.51h.048v13.47l.033.183-.282-.096c-.202-.085-.453-.19-.91-.19-.262 0-.473.227-.473.51 0 .28.21.51.472.51.28 0 .4.05.568.12.202.085.453.19.912.19s.71-.105.91-.19c.167-.07.288-.12.57-.12.28 0 .4.05.567.12.203.085.454.19.912.19.46 0 .71-.105.91-.19.167-.07.288-.12.57-.12.28 0 .4.05.567.12.2.085.453.19.91.19.46 0 .71-.105.913-.19.166-.07.287-.12.568-.12.28 0 .4.05.57.12.2.085.45.19.91.19s.71-.105.91-.19c.167-.07.288-.12.57-.12.28 0 .4.05.567.12.2.085.453.19.91.19.46 0 .71-.105.913-.19.165-.07.286-.12.567-.12.28 0 .4.05.567.12.2.085.452.19.91.19s.71-.105.912-.19c.165-.07.285-.12.566-.12.28 0 .4.05.568.12.202.085.453.19.91.19.46 0 .71-.105.913-.19.166-.07.287-.12.568-.12.28 0 .4.05.568.12.203.085.453.19.912.19s.71-.105.912-.19c.166-.07.287-.12.568-.12.28 0 .4.05.567.12.2.085.453.19.91.19s.71-.105.913-.19c.167-.07.287-.12.568-.12.28 0 .403.05.57.12.2.085.452.19.91.19.46 0 .71-.105.912-.19.168-.07.288-.12.57-.12.28 0 .4.05.567.12.2.085.452.19.91.19.26 0 .47-.227.47-.51 0-.28-.21-.508-.47-.508zM2.04 91.867h.92v.467c0 .282.213.51.473.51h1.254c.26 0 .472-.23.472-.51v-.467h.62v.467c0 .282.21.51.47.51H7.5c.26 0 .472-.23.472-.51v-.467h.62v.467c0 .282.212.51.473.51h1.253c.26 0 .473-.23.473-.51v-.467h.62v.467c0 .282.21.51.472.51h1.254c.26 0 .47-.23.47-.51v-.467h.867v.67c-.1.002-.19.038-.267.095-.12.093-.2.244-.2.415v.505l-.027-.002H2.59l-.03.002v-.505c0-.282-.21-.51-.47-.51h-.05v-.67zm14.744-5.102c-.3.733-.472 1.747-.523 2.78h-1.54c.17-1.275.98-2.33 2.066-2.78zm4.387 2.78h-1.54c-.05-1.032-.22-2.047-.52-2.78 1.083.448 1.89 1.505 2.063 2.78zm-7.95 13.93c-.28-.02-.56-.03-.84-.03-.36 0-.723.013-1.085.036-3.085.2-6.054 1.237-8.686 3.037v-1.973c.47-.194.953-.373 1.445-.54 2.557-.857 5.398-1.307 8.328-1.307l.548.008.355.016c.396.02.795.048 1.2.09l.33.04.613.085c1.32.2 2.692.526 4.13.984l.055.017c.293.094.59.194.888.3l.057.02.834.303v2.002c-.28-.18-.557-.352-.833-.516l-.056-.034c-.3-.176-.593-.343-.887-.5l-.056-.03c-1.43-.766-2.802-1.31-4.13-1.643-.316-.08-.63-.15-.943-.204l-.123-.02c-.38-.065-.76-.11-1.135-.137zm6.335-.625c-1.433-.442-2.804-.758-4.13-.95v-8.343h4.13v9.293zm-13.5-5.752h.943v2.808H6.05v-2.808zm3.527 0h.944v2.808H9.58v-2.808zm-1.764 0h.944v2.808h-.946v-2.808zm5.112 4.58l-.547-.007c-2.916 0-5.753.438-8.327 1.266V95.59h8.875v6.088zm5.018-14.994c.204.112.65 1.062.74 2.86h-1.48c.09-1.798.536-2.748.74-2.86zm-3.26 3.88H21.2v1.72h-.648v-.42c0-.28-.21-.51-.472-.51s-.473.23-.473.51v.42h-4.184v-.928c0-.282-.21-.51-.472-.51h-.262v-.28zm4.867 16.056v.248h-4.13v-1.985c1.32.353 2.69.93 4.13 1.737zm6.215-13.064h4.13v13.312h-4.13V93.556zm-1.087 0v13.312h-2.35v-2.676c0-.215-.124-.407-.312-.48-.495-.192-.983-.37-1.465-.536v-9.62h4.13zm-8.524-9.53l.19-.306c.104-.17.104-.395 0-.566l-.19-.306h1.252v1.178h-1.254zm-2.393 23.208c-.28 0-.402-.05-.568-.12-.203-.086-.454-.192-.91-.192-.46 0-.71.106-.913.19-.166.072-.287.122-.568.122-.28 0-.403-.05-.57-.12-.2-.086-.452-.192-.91-.192-.46 0-.71.106-.912.19-.167.072-.287.122-.568.122-.28 0-.4-.05-.568-.12-.203-.086-.454-.192-.913-.192s-.71.106-.91.19c-.17.072-.29.122-.57.122-.28 0-.4-.05-.568-.12-.143-.06-.31-.13-.555-.166 2.627-1.63 5.574-2.483 8.612-2.483.686 0 1.384.068 2.1.202v2.386l-.15.06c-.166.07-.287.12-.568.12zm14.79 2.15c-.28 0-.4-.05-.568-.12-.203-.085-.454-.19-.91-.19-.46 0-.71.105-.914.19-.167.07-.287.12-.568.12-.28 0-.4-.05-.568-.12-.202-.085-.453-.19-.91-.19-.46 0-.71.105-.913.19-.167.07-.287.12-.568.12-.28 0-.4-.05-.57-.12-.2-.085-.452-.19-.91-.19-.46 0-.71.105-.912.19-.166.07-.287.12-.568.12-.28 0-.4-.05-.568-.12-.203-.085-.454-.19-.913-.19-.46 0-.71.105-.91.19-.168.07-.29.12-.57.12-.28 0-.4-.05-.568-.12-.204-.085-.455-.19-.913-.19-.46 0-.71.105-.91.19-.168.07-.29.12-.57.12-.28 0-.4-.05-.568-.12-.2-.085-.452-.19-.91-.19-.26 0-.472.227-.472.508 0 .282.21.51.472.51.28 0 .4.05.568.12.2.087.452.192.91.192.46 0 .71-.105.912-.19.166-.07.287-.122.568-.122.28 0 .4.05.568.12.2.087.452.192.91.192s.71-.105.912-.19c.167-.07.287-.122.568-.122.28 0 .4.05.568.12.202.087.453.192.91.192.46 0 .71-.105.913-.19.165-.07.286-.122.567-.122.28 0 .4.05.568.12.202.087.452.192.91.192s.71-.105.913-.19c.166-.07.287-.122.568-.122.28 0 .4.05.567.12.205.087.456.192.915.192s.71-.105.91-.19c.168-.07.288-.122.57-.122.28 0 .4.05.567.12.203.087.454.192.91.192.263 0 .474-.228.474-.51 0-.28-.213-.51-.473-.51zm-1.422-11.12c-.27 0-.492.232-.504.523v1.328h1.013v-1.328c-.013-.29-.234-.522-.506-.522zm1.517 0c-.273 0-.494.232-.507.523v1.328h1.013v-1.328c-.012-.29-.234-.522-.506-.522zm-1.52-2.504c-.27 0-.493.23-.505.52v1.33h1.012v-1.33c-.014-.29-.235-.52-.507-.52zm1.516 0c-.272 0-.493.23-.506.52v1.33h1.012v-1.33c-.012-.29-.234-.52-.506-.52zm-11.41 1.496c-.013-.19-.235-.34-.506-.34-.272 0-.493.15-.506.34v.865h1.013v-.863zm1.515 0c-.01-.19-.23-.34-.503-.34s-.494.15-.506.34v.865h1.01v-.863zm-1.512-1.632c-.012-.19-.234-.34-.505-.34-.27 0-.492.15-.505.34v.865h1.013v-.868zm1.516 0c-.01-.19-.233-.34-.505-.34s-.493.15-.505.34v.865h1.01v-.868zm-1.514 5.144c-.014-.19-.236-.34-.507-.34-.272 0-.493.15-.506.34v.865h1.012v-.864zm1.514 0c-.01-.19-.233-.34-.505-.34s-.494.15-.506.34v.865h1.01v-.864zm-1.514-1.632c-.014-.19-.236-.34-.507-.34-.272 0-.493.15-.506.34V100h1.012v-.866zm1.514 0c-.01-.19-.233-.34-.505-.34s-.495.15-.507.34V100h1.01v-.866zm8.38 4.714c-.27 0-.493.23-.505.52v1.33h1.01v-1.33c-.012-.29-.233-.52-.505-.52zm1.516 0c-.272 0-.493.23-.506.52v1.33h1.012v-1.33c-.012-.29-.234-.52-.506-.52zm-1.515-2.508c-.27 0-.493.23-.505.522v1.328h1.012v-1.328c-.013-.29-.234-.522-.506-.522zm1.516 0c-.27 0-.49.23-.504.522v1.328h1.01v-1.328c-.01-.29-.233-.522-.505-.522zm-6.28-2.7c-.013-.29-.234-.52-.506-.52s-.494.23-.506.52v1.33h1.013v-1.33zm1.516 0c-.013-.29-.235-.52-.507-.52s-.494.23-.507.52v1.33h1.012v-1.33zm-1.517-2.508c-.014-.29-.235-.52-.507-.52s-.494.23-.506.52v1.33h1.012v-1.33zm1.515 0c-.012-.29-.234-.52-.506-.52s-.495.23-.508.52v1.33h1.012v-1.33zm-1.516 4.995c-.015-.29-.236-.52-.508-.52s-.494.23-.506.52v1.33h1.012v-1.33zm1.514 0c-.012-.29-.234-.52-.506-.52s-.494.23-.507.52v1.33h1.013v-1.33z" fill="#fff"/><path d="M20.955 44.95c.197.187.45.29.71.29h2.666c0 .293.12.572.32.765.176.165.398.255.628.255h2.9c.52 0 .944-.458.944-1.02 0-.56-.42-1.017-.94-1.02l.01-.14c0-.64-.483-1.163-1.075-1.163h-5.45c-.26 0-.512.103-.71.29-.23.22-.363.54-.363.872 0 .33.135.65.367.87zm.624-.977l.082-.036h5.45c.07 0 .13.064.13.14 0 .08-.06.142-.13.142-.262 0-.473.224-.473.51 0 .28.21.51.47.51h1.064-2.9c.262 0 .473-.23.473-.51 0-.286-.212-.51-.473-.51h-3.612l-.085-.04-.045-.106.045-.106zM5.25 43.42l-.008.14c0 .64.482 1.162 1.074 1.162h5.45c.26 0 .512-.103.71-.29.23-.222.363-.54.363-.872 0-.332-.137-.65-.37-.87-.196-.188-.447-.29-.71-.29H9.1v-.002c0-.293-.117-.57-.32-.765-.172-.164-.394-.255-.623-.255h-2.9c-.522 0-.945.457-.945 1.02 0 .56.42 1.017.94 1.02zm2.905-1.02h-.002c-.26 0-.472.228-.472.51 0 .282.216.51.476.51h3.61l.087.035.046.106-.046.11-.085.035H6.32c-.07 0-.13-.064-.13-.14 0-.08.06-.143.13-.143.26 0 .472-.23.472-.51s-.21-.51-.47-.51h-1.07 2.9zm23.36 24.835c-.282 0-.402-.05-.57-.12l-.103-.044V53.05c0-.282-.21-.51-.472-.51h-4.6v-.67c0-.283-.212-.51-.473-.51s-.472.227-.472.51v.67h-2.68v-2.405l.007-.075c0-2.356-1.67-4.3-3.798-4.52v-3.2c0-.28-.21-.51-.472-.51h-2.607c-.174 0-.334.105-.416.27-.086.167-.077.368.02.524l.504.816-.504.816c-.096.156-.105.358-.023.523.08.162.24.265.415.265h2.136v.506c-2.065.287-3.667 2.197-3.667 4.505v.79h-.6c-.26 0-.47.23-.47.51v.467h-.31v-.467c0-.282-.21-.51-.47-.51h-1.566c-.26 0-.472.23-.472.51v.467h-.31v-.467c0-.282-.21-.51-.47-.51H7.506c-.26 0-.472.23-.472.51v.467h-.31v-.467c0-.282-.21-.51-.472-.51H4.687c-.26 0-.472.23-.472.51v.467h-.31v-.467c0-.282-.21-.51-.47-.51H1.57c-.26 0-.472.23-.472.51v1.69c0 .283.21.51.472.51h.048v13.47l.033.183-.282-.096c-.202-.085-.453-.19-.91-.19-.262 0-.473.227-.473.51 0 .28.21.51.472.51.28 0 .4.05.568.12.202.085.453.19.912.19s.71-.105.91-.19c.167-.07.288-.12.57-.12.28 0 .4.05.567.12.203.085.454.19.912.19.46 0 .71-.105.91-.19.167-.07.288-.12.57-.12.28 0 .4.05.567.12.2.085.453.19.91.19.46 0 .71-.105.913-.19.166-.07.287-.12.568-.12.28 0 .4.05.57.12.2.085.45.19.91.19s.71-.105.91-.19c.167-.07.288-.12.57-.12.28 0 .4.05.567.12.2.085.453.19.91.19.46 0 .71-.105.913-.19.165-.07.286-.12.567-.12.28 0 .4.05.567.12.2.085.452.19.91.19s.71-.105.912-.19c.165-.07.285-.12.566-.12.28 0 .4.05.568.12.202.085.453.19.91.19.46 0 .71-.105.913-.19.166-.07.287-.12.568-.12.28 0 .4.05.568.12.203.085.453.19.912.19s.71-.105.912-.19c.166-.07.287-.12.568-.12.28 0 .4.05.567.12.2.085.453.19.91.19s.71-.105.913-.19c.167-.07.287-.12.568-.12.28 0 .403.05.57.12.2.085.452.19.91.19.46 0 .71-.105.912-.19.168-.07.288-.12.57-.12.28 0 .4.05.567.12.2.085.452.19.91.19.26 0 .47-.227.47-.51 0-.28-.21-.508-.47-.508zM2.04 51.867h.92v.467c0 .282.213.51.473.51h1.254c.26 0 .472-.23.472-.51v-.467h.62v.467c0 .282.21.51.47.51H7.5c.26 0 .472-.23.472-.51v-.467h.62v.467c0 .282.212.51.473.51h1.253c.26 0 .473-.23.473-.51v-.467h.62v.467c0 .282.21.51.472.51h1.254c.26 0 .47-.23.47-.51v-.467h.867v.67c-.1.002-.19.038-.267.095-.12.093-.2.244-.2.415v.505l-.027-.002H2.59l-.03.002v-.505c0-.282-.21-.51-.47-.51h-.05v-.67zm14.744-5.102c-.3.733-.472 1.747-.523 2.78h-1.54c.17-1.275.98-2.33 2.066-2.78zm4.387 2.78h-1.54c-.05-1.032-.22-2.047-.52-2.78 1.083.448 1.89 1.505 2.063 2.78zm-7.95 13.93c-.28-.02-.56-.03-.84-.03-.36 0-.723.013-1.085.036-3.085.2-6.054 1.237-8.686 3.037V64.54c.47-.194.953-.373 1.445-.54 2.557-.857 5.398-1.307 8.328-1.307l.548.008.355.02c.396.02.795.047 1.2.09l.33.04.613.084c1.32.2 2.692.526 4.13.984l.055.018c.293.094.59.194.888.3l.057.02.834.303v2.003c-.28-.18-.557-.35-.833-.515l-.056-.034c-.3-.175-.593-.342-.887-.5l-.056-.03c-1.43-.765-2.802-1.31-4.13-1.642-.316-.08-.63-.146-.943-.2l-.123-.02c-.38-.066-.76-.11-1.135-.138zm6.335-.625c-1.433-.442-2.804-.758-4.13-.95v-8.343h4.13v9.293zm-13.5-5.752h.943v2.808H6.05v-2.808zm3.527 0h.944v2.808H9.58v-2.808zm-1.764 0h.944v2.808h-.946v-2.808zm5.112 4.58l-.547-.007c-2.916 0-5.753.438-8.327 1.266V55.59h8.875v6.088zm5.018-14.994c.204.112.65 1.062.74 2.86h-1.48c.09-1.798.536-2.748.74-2.86zm-3.26 3.88H21.2v1.72h-.648v-.42c0-.28-.21-.51-.472-.51s-.473.23-.473.51v.42h-4.184v-.928c0-.282-.21-.51-.472-.51h-.262v-.28zm4.867 16.056v.248h-4.13v-1.985c1.32.353 2.69.93 4.13 1.737zm6.215-13.064h4.13v13.312h-4.13V53.556zm-1.087 0v13.312h-2.35v-2.676c0-.215-.124-.407-.312-.48-.495-.192-.983-.37-1.465-.536v-9.62h4.13zm-8.524-9.53l.19-.306c.104-.17.104-.395 0-.566l-.19-.306h1.252v1.178h-1.254zm-2.393 23.208c-.28 0-.402-.05-.568-.12-.203-.086-.454-.192-.91-.192-.46 0-.71.106-.913.19-.166.072-.287.122-.568.122-.28 0-.403-.05-.57-.12-.2-.086-.452-.192-.91-.192-.46 0-.71.106-.912.19-.167.072-.287.122-.568.122-.28 0-.4-.05-.568-.12-.203-.086-.454-.192-.913-.192s-.71.106-.91.19c-.17.072-.29.122-.57.122-.28 0-.4-.05-.568-.12-.143-.06-.31-.13-.555-.166 2.627-1.63 5.574-2.483 8.612-2.483.686 0 1.384.068 2.1.202v2.386l-.15.06c-.166.07-.287.12-.568.12zm14.79 2.15c-.28 0-.4-.05-.568-.12-.203-.085-.454-.19-.91-.19-.46 0-.71.105-.914.19-.167.07-.287.12-.568.12-.28 0-.4-.05-.568-.12-.202-.085-.453-.19-.91-.19-.46 0-.71.105-.913.19-.167.07-.287.12-.568.12-.28 0-.4-.05-.57-.12-.2-.085-.452-.19-.91-.19-.46 0-.71.105-.912.19-.166.07-.287.12-.568.12-.28 0-.4-.05-.568-.12-.203-.085-.454-.19-.913-.19-.46 0-.71.105-.91.19-.168.07-.29.12-.57.12-.28 0-.4-.05-.568-.12-.204-.085-.455-.19-.913-.19-.46 0-.71.105-.91.19-.168.07-.29.12-.57.12-.28 0-.4-.05-.568-.12-.2-.085-.452-.19-.91-.19-.26 0-.472.227-.472.508 0 .282.21.51.472.51.28 0 .4.05.568.12.2.087.452.192.91.192.46 0 .71-.105.912-.19.166-.07.287-.122.568-.122.28 0 .4.05.568.12.2.087.452.192.91.192s.71-.105.912-.19c.167-.07.287-.122.568-.122.28 0 .4.05.568.12.202.087.453.192.91.192.46 0 .71-.105.913-.19.165-.07.286-.122.567-.122.28 0 .4.05.568.12.202.087.452.192.91.192s.71-.105.913-.19c.166-.07.287-.122.568-.122.28 0 .4.05.567.12.205.087.456.192.915.192s.71-.105.91-.19c.168-.07.288-.122.57-.122.28 0 .4.05.567.12.203.087.454.192.91.192.263 0 .474-.228.474-.51 0-.28-.213-.51-.473-.51zm-1.422-11.12c-.27 0-.492.232-.504.523v1.328h1.013v-1.328c-.013-.29-.234-.522-.506-.522zm1.517 0c-.273 0-.494.232-.507.523v1.328h1.013v-1.328c-.012-.29-.234-.522-.506-.522zm-1.52-2.504c-.27 0-.493.23-.505.52v1.33h1.012v-1.33c-.014-.29-.235-.52-.507-.52zm1.516 0c-.272 0-.493.23-.506.52v1.33h1.012v-1.33c-.012-.29-.234-.52-.506-.52zm-11.41 1.496c-.013-.19-.235-.34-.506-.34-.272 0-.493.15-.506.34v.865h1.013v-.863zm1.515 0c-.01-.19-.23-.34-.503-.34s-.494.15-.506.34v.865h1.01v-.863zm-1.512-1.632c-.012-.19-.234-.34-.505-.34-.27 0-.492.15-.505.34v.865h1.013v-.868zm1.516 0c-.01-.19-.233-.34-.505-.34s-.493.15-.505.34v.865h1.01v-.868zm-1.514 5.144c-.014-.19-.236-.34-.507-.34-.272 0-.493.15-.506.34v.865h1.012v-.864zm1.514 0c-.01-.19-.233-.34-.505-.34s-.494.15-.506.34v.865h1.01v-.864zm-1.514-1.632c-.014-.19-.236-.34-.507-.34-.272 0-.493.15-.506.34V60h1.012v-.866zm1.514 0c-.01-.19-.233-.34-.505-.34s-.495.15-.507.34V60h1.01v-.866zm8.38 4.714c-.27 0-.493.23-.505.52v1.33h1.01v-1.33c-.012-.29-.233-.52-.505-.52zm1.516 0c-.272 0-.493.23-.506.52v1.33h1.012v-1.33c-.012-.29-.234-.52-.506-.52zm-1.52-2.51c-.27 0-.493.23-.505.522v1.328h1.012v-1.328c-.014-.29-.235-.522-.507-.522zm1.516 0c-.272 0-.493.23-.506.522v1.328h1.012v-1.328c-.012-.29-.234-.522-.506-.522zm-6.282-2.7c-.013-.29-.234-.52-.506-.52s-.494.23-.506.52v1.33h1.012v-1.33zm1.516 0c-.012-.29-.234-.52-.506-.52s-.493.23-.506.52v1.33h1.012v-1.33zm-1.516-2.508c-.013-.29-.234-.52-.506-.52s-.494.23-.506.52v1.33h1.012v-1.33zm1.516 0c-.012-.29-.234-.52-.506-.52s-.493.23-.506.52v1.33h1.012v-1.33zm-1.516 4.995c-.013-.29-.234-.52-.506-.52s-.494.23-.506.52v1.33h1.012v-1.33zm1.516 0c-.012-.29-.234-.52-.506-.52s-.493.23-.506.52v1.33h1.012v-1.33z" fill="#67737B"/><path d="M20.955 4.95c.197.187.45.29.71.29h2.666c0 .293.12.572.32.765.176.165.398.255.628.255h2.9c.52 0 .944-.458.944-1.02 0-.56-.42-1.017-.94-1.02l.01-.14c0-.64-.483-1.163-1.075-1.163h-5.45c-.26 0-.512.103-.71.29-.23.22-.363.54-.363.872 0 .33.135.65.367.87zm.624-.977l.082-.036h5.45c.07 0 .13.064.13.14 0 .08-.06.142-.13.142-.262 0-.473.224-.473.51 0 .28.21.51.47.51h1.064-2.9c.262 0 .473-.23.473-.51 0-.286-.212-.51-.473-.51h-3.612l-.085-.04-.045-.106.045-.106zM5.25 3.42l-.008.14c0 .64.482 1.162 1.074 1.162h5.45c.26 0 .512-.103.71-.29.23-.222.363-.54.363-.872 0-.332-.137-.65-.37-.87-.196-.188-.447-.29-.71-.29H9.1v-.002c0-.293-.117-.57-.32-.765-.172-.164-.394-.255-.623-.255h-2.9c-.522 0-.945.457-.945 1.02 0 .56.42 1.017.94 1.02zM8.155 2.4h-.002c-.26 0-.472.228-.472.51 0 .282.216.51.476.51h3.61l.087.035.046.106-.046.11-.085.035H6.32c-.07 0-.13-.064-.13-.14 0-.08.06-.143.13-.143.26 0 .472-.23.472-.51s-.21-.51-.47-.51h-1.07 2.9zm23.36 24.835c-.282 0-.402-.05-.57-.12l-.103-.044V13.05c0-.282-.21-.51-.472-.51h-4.6v-.67c0-.283-.212-.51-.473-.51s-.472.227-.472.51v.67h-2.68v-2.405l.007-.075c0-2.356-1.67-4.3-3.798-4.52v-3.2c0-.28-.21-.51-.472-.51h-2.607c-.174 0-.334.105-.416.27-.086.167-.077.368.02.524l.504.816-.504.816c-.096.156-.105.358-.023.523.08.162.24.265.415.265h2.136v.506c-2.065.287-3.667 2.197-3.667 4.505v.79h-.6c-.26 0-.47.23-.47.51v.467h-.31v-.467c0-.282-.21-.51-.47-.51h-1.566c-.26 0-.472.23-.472.51v.467h-.31v-.467c0-.282-.21-.51-.47-.51H7.506c-.26 0-.472.23-.472.51v.467h-.31v-.467c0-.282-.21-.51-.472-.51H4.687c-.26 0-.472.23-.472.51v.467h-.31v-.467c0-.282-.21-.51-.47-.51H1.57c-.26 0-.472.23-.472.51v1.69c0 .283.21.51.472.51h.048v13.47l.033.183-.282-.096c-.202-.085-.453-.19-.91-.19-.262 0-.473.227-.473.51 0 .28.21.51.472.51.28 0 .4.05.568.12.202.085.453.19.912.19s.71-.105.91-.19c.167-.07.288-.12.57-.12.28 0 .4.05.567.12.203.085.454.19.912.19.46 0 .71-.105.91-.19.167-.07.288-.12.57-.12.28 0 .4.05.567.12.2.085.453.19.91.19.46 0 .71-.105.913-.19.166-.07.287-.12.568-.12.28 0 .4.05.57.12.2.085.45.19.91.19s.71-.105.91-.19c.167-.07.288-.12.57-.12.28 0 .4.05.567.12.2.085.453.19.91.19.46 0 .71-.105.913-.19.165-.07.286-.12.567-.12.28 0 .4.05.567.12.2.085.452.19.91.19s.71-.105.912-.19c.165-.07.285-.12.566-.12.28 0 .4.05.568.12.202.085.453.19.91.19.46 0 .71-.105.913-.19.166-.07.287-.12.568-.12.28 0 .4.05.568.12.203.085.453.19.912.19s.71-.105.912-.19c.166-.07.287-.12.568-.12.28 0 .4.05.567.12.2.085.453.19.91.19s.71-.105.913-.19c.167-.07.287-.12.568-.12.28 0 .403.05.57.12.2.085.452.19.91.19.46 0 .71-.105.912-.19.168-.07.288-.12.57-.12.28 0 .4.05.567.12.2.085.452.19.91.19.26 0 .47-.227.47-.51 0-.28-.21-.508-.47-.508zM2.04 11.867h.92v.467c0 .282.213.51.473.51h1.254c.26 0 .472-.23.472-.51v-.467h.62v.467c0 .282.21.51.47.51H7.5c.26 0 .472-.23.472-.51v-.467h.62v.467c0 .282.212.51.473.51h1.253c.26 0 .473-.23.473-.51v-.467h.62v.467c0 .282.21.51.472.51h1.254c.26 0 .47-.23.47-.51v-.467h.867v.67c-.1.002-.19.038-.267.095-.12.093-.2.244-.2.415v.505l-.027-.002H2.59l-.03.002v-.505c0-.282-.21-.51-.47-.51h-.05v-.67zm14.744-5.102c-.3.733-.472 1.747-.523 2.78h-1.54c.17-1.275.98-2.33 2.066-2.78zm4.387 2.78h-1.54c-.05-1.032-.22-2.047-.52-2.78 1.08.448 1.89 1.505 2.06 2.78zm-7.95 13.93c-.28-.02-.56-.03-.84-.03-.36 0-.723.013-1.085.036-3.085.2-6.054 1.237-8.686 3.037V24.54c.47-.194.953-.373 1.445-.54 2.557-.857 5.398-1.307 8.328-1.307l.548.008.355.02c.396.02.795.047 1.2.09l.33.04.613.084c1.32.2 2.692.526 4.13.984l.055.018c.293.094.59.194.888.3l.057.02.834.303v2.003c-.28-.18-.557-.35-.833-.515l-.056-.034c-.3-.175-.593-.342-.887-.5l-.056-.03c-1.43-.765-2.802-1.31-4.13-1.642-.316-.08-.63-.146-.943-.2l-.123-.02c-.38-.066-.76-.11-1.135-.138zm6.335-.625c-1.433-.442-2.804-.758-4.13-.95v-8.343h4.13v9.293zm-13.5-5.752h.943v2.808H6.05v-2.808zm3.527 0h.944v2.808H9.58v-2.808zm-1.764 0h.944v2.808h-.946v-2.808zm5.112 4.58l-.547-.007c-2.916 0-5.753.438-8.327 1.266V15.59h8.875v6.088zm5.018-14.994c.204.112.65 1.062.74 2.86h-1.48c.09-1.798.536-2.748.74-2.86zm-3.26 3.88H21.2v1.72h-.648v-.42c0-.28-.21-.51-.472-.51s-.473.23-.473.51v.42h-4.184v-.928c0-.282-.21-.51-.472-.51h-.262v-.28zm4.867 16.056v.248h-4.13v-1.985c1.32.353 2.69.93 4.13 1.737zm6.215-13.064h4.13v13.312h-4.13V13.556zm-1.087 0v13.312h-2.35v-2.676c0-.215-.124-.407-.312-.48-.495-.192-.983-.37-1.465-.536v-9.62h4.13zm-8.524-9.53l.19-.306c.104-.17.104-.395 0-.566l-.19-.306h1.252v1.178h-1.254zm-2.393 23.208c-.28 0-.402-.05-.568-.12-.203-.086-.454-.192-.91-.192-.46 0-.71.106-.913.19-.166.072-.287.122-.568.122-.28 0-.403-.05-.57-.12-.2-.086-.452-.192-.91-.192-.46 0-.71.106-.912.19-.167.072-.287.122-.568.122-.28 0-.4-.05-.568-.12-.203-.086-.454-.192-.913-.192s-.71.106-.91.19c-.17.072-.29.122-.57.122-.28 0-.4-.05-.568-.12-.143-.06-.31-.13-.555-.166 2.627-1.63 5.574-2.483 8.612-2.483.686 0 1.384.068 2.1.202v2.386l-.15.06c-.166.07-.287.12-.568.12zm14.79 2.15c-.28 0-.4-.05-.568-.12-.203-.085-.454-.19-.91-.19-.46 0-.71.105-.914.19-.167.07-.287.12-.568.12-.28 0-.4-.05-.568-.12-.202-.085-.453-.19-.91-.19-.46 0-.71.105-.913.19-.167.07-.287.12-.568.12-.28 0-.4-.05-.57-.12-.2-.085-.452-.19-.91-.19-.46 0-.71.105-.912.19-.166.07-.287.12-.568.12-.28 0-.4-.05-.568-.12-.203-.085-.454-.19-.913-.19-.46 0-.71.105-.91.19-.168.07-.29.12-.57.12-.28 0-.4-.05-.568-.12-.204-.085-.455-.19-.913-.19-.46 0-.71.105-.91.19-.168.07-.29.12-.57.12-.28 0-.4-.05-.568-.12-.2-.085-.452-.19-.91-.19-.26 0-.472.227-.472.508 0 .282.21.51.472.51.28 0 .4.05.568.12.2.087.452.192.91.192.46 0 .71-.105.912-.19.166-.07.287-.122.568-.122.28 0 .4.05.568.12.2.087.452.192.91.192s.71-.105.912-.19c.167-.07.287-.122.568-.122.28 0 .4.05.568.12.202.087.453.192.91.192.46 0 .71-.105.913-.19.165-.07.286-.122.567-.122.28 0 .4.05.568.12.202.087.452.192.91.192s.71-.105.913-.19c.166-.07.287-.122.568-.122.28 0 .4.05.567.12.205.087.456.192.915.192s.71-.105.91-.19c.168-.07.288-.122.57-.122.28 0 .4.05.567.12.203.087.454.192.91.192.263 0 .474-.228.474-.51 0-.28-.213-.51-.473-.51zm-1.422-11.12c-.27 0-.492.232-.504.523v1.328h1.013v-1.328c-.013-.29-.234-.522-.506-.522zm1.517 0c-.273 0-.494.232-.507.523v1.328h1.013v-1.328c-.012-.29-.234-.522-.506-.522zm-1.52-2.504c-.27 0-.493.23-.505.52v1.33h1.012v-1.33c-.014-.29-.235-.52-.507-.52zm1.516 0c-.272 0-.493.23-.506.52v1.33h1.012v-1.33c-.012-.29-.234-.52-.506-.52zm-11.41 1.496c-.013-.19-.235-.34-.506-.34-.272 0-.493.15-.506.34v.865h1.013v-.863zm1.515 0c-.01-.19-.23-.34-.503-.34s-.494.15-.506.34v.865h1.01v-.863zm-1.512-1.632c-.012-.19-.234-.34-.505-.34-.27 0-.492.15-.505.34v.865h1.013v-.868zm1.516 0c-.01-.19-.233-.34-.505-.34s-.493.15-.505.34v.865h1.01v-.868zm-1.514 5.144c-.014-.19-.236-.34-.507-.34-.272 0-.493.15-.506.34v.865h1.012v-.864zm1.514 0c-.01-.19-.233-.34-.505-.34s-.494.15-.506.34v.865h1.01v-.864zm-1.514-1.632c-.014-.19-.236-.34-.507-.34-.272 0-.493.15-.506.34V20h1.012v-.866zm1.514 0c-.01-.19-.233-.34-.505-.34s-.495.15-.507.34V20h1.01v-.866zm8.38 4.714c-.27 0-.493.23-.505.52v1.33h1.01v-1.33c-.012-.29-.233-.52-.505-.52zm1.516 0c-.272 0-.493.23-.506.52v1.33h1.012v-1.33c-.012-.29-.234-.52-.506-.52zm-1.52-2.51c-.27 0-.493.23-.505.522v1.328h1.012v-1.328c-.014-.29-.235-.522-.507-.522zm1.516 0c-.272 0-.493.23-.506.522v1.328h1.012v-1.328c-.012-.29-.234-.522-.506-.522zm-6.282-2.7c-.013-.29-.234-.52-.506-.52s-.494.23-.506.52v1.33h1.012v-1.33zm1.516 0c-.012-.29-.234-.52-.506-.52s-.493.23-.506.52v1.33h1.012v-1.33zm-1.516-2.508c-.013-.29-.234-.52-.506-.52s-.494.23-.506.52v1.33h1.012v-1.33zm1.516 0c-.012-.29-.234-.52-.506-.52s-.493.23-.506.52v1.33h1.012v-1.33zm-1.516 4.995c-.013-.29-.234-.52-.506-.52s-.494.23-.506.52v1.33h1.012v-1.33zm1.516 0c-.012-.29-.234-.52-.506-.52s-.493.23-.506.52v1.33h1.012v-1.33z" fill="#3A434E"/></g></svg>