<svg width="32" height="232" viewBox="0 0 32 232" xmlns="http://www.w3.org/2000/svg"><title>ireland</title><desc>Created with Sketch.</desc><g fill="none"><path d="M30.178 136.055c-.754-.74-2.032-1.25-3.816-1.533 1.61-.887 2.634-1.795 3.108-2.756.475-.963.585-1.86.33-2.66-.454-1.417-1.887-2.156-3.404-2.938l-.473-.245-.47-.248c-1.252-.663-2.33-1.236-3.433-1.236-1.19 0-2.122.666-2.77 1.98-.477.965-.584 2.358-.326 4.227-1.155-1.2-2.19-1.93-3.135-2.208-.166-1.542-.34-2.48-.354-2.553-.07-.368-.306-.665-.62-.814v-.05c0-1.934-5.63-1.99-6.27-1.99-.643 0-6.273.056-6.273 1.99v.05c-.314.15-.55.446-.62.814-.027.142-.655 3.53-.655 8.28 0 2.627.477 4.734.9 6.592.353 1.563.688 3.04.688 4.61 0 3.466-.298 5.275-.3 5.292-.058.33.03.67.24.928.21.257.52.406.845.406H13.72c.325 0 .634-.15.843-.406.21-.257.3-.596.244-.926-.003-.018-.3-1.827-.3-5.292 0-1.57.334-3.048.688-4.612l.21-.94.23-.036c1.2-.344 2.513-1.02 3.624-1.68-.453.936-.743 1.957-.843 3.028-.217 2.298.447 4.545 1.872 6.327.11.136.267.206.426.206.124 0 .25-.042.35-.13.237-.198.27-.556.077-.798-1.237-1.548-1.814-3.5-1.625-5.496.09-.96.355-1.875.77-2.708l.06.533c.33 2.778.964 4.592 1.935 5.543.737.722 1.513 1.088 2.307 1.088 1.483 0 2.6-1.224 3.782-2.52l.363-.394.365-.393c1.176-1.258 2.288-2.447 2.256-3.937-.017-.844-.412-1.65-1.172-2.395zm-8.962-8.607c.364-.74.65-.74.805-.74.568 0 1.47.48 2.422.985l.482.254.484.25c1.047.54 2.13 1.1 2.296 1.618.082.258-.064.643-.2.92-.56 1.137-3.32 2.477-5.57 3.276-.702-2.34-1.28-5.425-.718-6.563zm-17.838-2.365l.15-.117c.54-.332 2.25-.8 5.02-.8 2.77 0 4.477.468 5.018.8l.15.117v.466h-1.237c-.306 0-.552.253-.552.567v4.39c0 .14-.2.295-.47.295-.27 0-.472-.156-.472-.295v-4.39c0-.313-.247-.568-.55-.568H3.378v-.467zm10.185 3.3h-.532v-1.146h.388c.044.312.095.698.145 1.147zm-3.68-1.146v1.147H3.53c.05-.45.1-.835.146-1.147h6.207zm-5.265 22.485l.034-.398h7.79l.035.398H4.62zm8.43-9.48c-.384 1.695-.747 3.296-.747 5.128 0 1.097.03 2.038.07 2.82H4.725c.04-.782.068-1.723.068-2.82 0-1.832-.363-3.433-.747-5.128-.413-1.825-.84-3.71-.84-6.078 0-1.78.093-3.368.208-4.644h6.468v.987c0 .79.706 1.43 1.574 1.43.868 0 1.574-.64 1.574-1.43v-.987h.65c.114 1.276.208 2.865.208 4.644 0 2.366-.427 4.252-.84 6.078zm2.82-2.938c.136-.964.226-2.004.226-3.14 0-1.126-.035-2.174-.09-3.12 1.17.816 2.628 2.56 3.702 4.1-.92.63-2.43 1.59-3.837 2.16zm11.64 3.51l-.376.403-.372.405c-.81.886-1.646 1.803-2.176 1.803-.26 0-.57-.252-.786-.462-.896-.877-1.352-3.98-1.45-6.43h.185c3.044 0 5.39.448 6.125 1.168.22.216.482.53.488.8.012.547-.828 1.446-1.64 2.315zm-1.953 7.576l-.458-.258-.25-.472c-.097-.182-.283-.296-.485-.296-.2 0-.387.114-.484.296l-.25.472-.46.258c-.177.1-.287.29-.287.5 0 .206.11.397.288.497l.458.258.25.472c.097.182.283.296.485.296s.388-.113.485-.296l.25-.472.46-.258c.176-.1.286-.29.286-.498 0-.208-.11-.4-.286-.5zm-19.2-27.327c.097.074.214.115.334.115.118 0 .234-.04.33-.113.213-.164.282-.464.163-.71l-.035-.06c-.103-.158-.275-.253-.46-.253-.118 0-.234.04-.33.113-.128.1-.21.25-.22.416-.01.166.048.328.162.444l.056.05zm3.138 1.153c.095.075.213.115.333.115.12 0 .235-.04.33-.112.214-.165.283-.464.164-.71l-.035-.062c-.102-.157-.275-.252-.46-.252-.117 0-.233.04-.328.113-.13.1-.21.25-.22.416-.012.165.047.327.16.443l.056.05zm8.28 26.356c-.103-.157-.276-.252-.46-.252-.118 0-.234.04-.33.113-.128.1-.21.25-.22.415-.01.165.048.327.16.444l.057.05c.096.075.213.115.333.115.12 0 .235-.04.33-.113.213-.164.282-.464.163-.71l-.035-.062zM6.1 143.437c-.3.033-.52.312-.49.624.047.455.07.883.07 1.31 0 .546-.008 1.085-.022 1.605-.01.313.23.575.535.584h.016c.296 0 .54-.245.55-.552.015-.53.022-1.082.022-1.638 0-.466-.024-.934-.075-1.427-.032-.312-.304-.54-.607-.506zm-.163-.976c.298-.064.488-.365.425-.672-.097-.47-.2-.93-.31-1.416-.422-1.856-.856-3.776-.856-6.207 0-.99.03-1.997.086-2.996.018-.314-.214-.583-.518-.6-.302-.018-.565.22-.582.532-.058 1.02-.088 2.052-.088 3.063 0 2.562.47 4.636.884 6.465.11.48.212.935.307 1.394.055.267.284.45.54.45l.114-.013z" fill="#206FAC"/><path d="M30.178 96.055c-.754-.74-2.032-1.25-3.816-1.533 1.61-.887 2.634-1.795 3.108-2.756.475-.963.585-1.86.33-2.66-.454-1.417-1.887-2.156-3.404-2.938l-.473-.245-.47-.248c-1.252-.663-2.33-1.236-3.433-1.236-1.19 0-2.122.666-2.77 1.98-.477.965-.584 2.358-.326 4.227-1.155-1.2-2.19-1.93-3.135-2.208-.166-1.542-.34-2.48-.354-2.553-.07-.368-.306-.665-.62-.814v-.05c0-1.934-5.63-1.99-6.27-1.99-.643 0-6.273.056-6.273 1.99v.05c-.314.15-.55.446-.62.814-.027.142-.655 3.53-.655 8.28 0 2.627.477 4.734.9 6.592.353 1.563.688 3.04.688 4.61 0 3.466-.298 5.275-.3 5.292-.058.33.03.67.24.928.21.257.52.406.845.406H13.72c.325 0 .634-.15.843-.406.21-.257.3-.596.244-.926-.003-.018-.3-1.827-.3-5.292 0-1.57.334-3.048.688-4.612l.21-.94.23-.036c1.2-.344 2.513-1.02 3.624-1.68-.453.936-.743 1.957-.843 3.028-.217 2.298.447 4.545 1.872 6.327.11.136.267.206.426.206.124 0 .25-.042.35-.13.237-.198.27-.556.077-.798-1.237-1.548-1.814-3.5-1.625-5.496.09-.96.355-1.875.77-2.708l.06.533c.33 2.778.964 4.592 1.935 5.543.737.722 1.513 1.088 2.307 1.088 1.483 0 2.6-1.224 3.782-2.52l.363-.394.365-.393c1.176-1.258 2.288-2.447 2.256-3.937-.017-.844-.412-1.65-1.172-2.395zm-8.962-8.607c.364-.74.65-.74.805-.74.568 0 1.47.48 2.422.985l.482.254.484.25c1.047.54 2.13 1.1 2.296 1.618.082.258-.064.643-.2.92-.56 1.137-3.32 2.477-5.57 3.276-.702-2.34-1.28-5.425-.718-6.563zM3.378 85.083l.15-.117c.54-.332 2.25-.8 5.02-.8 2.77 0 4.477.468 5.018.8l.15.117v.466h-1.237c-.306 0-.552.253-.552.567v4.39c0 .14-.2.295-.47.295-.27 0-.472-.156-.472-.295v-4.39c0-.313-.247-.568-.55-.568H3.378v-.467zm10.185 3.3h-.532v-1.146h.388c.044.312.095.698.145 1.147zm-3.68-1.146v1.147H3.53c.05-.45.1-.835.146-1.147h6.207zm-5.265 22.485l.034-.398h7.79l.035.398H4.62zm8.43-9.48c-.384 1.695-.747 3.296-.747 5.128 0 1.097.03 2.038.07 2.82H4.725c.04-.782.068-1.723.068-2.82 0-1.832-.363-3.433-.747-5.128-.413-1.825-.84-3.71-.84-6.078 0-1.78.093-3.368.208-4.644h6.468v.987c0 .79.706 1.43 1.574 1.43.868 0 1.574-.64 1.574-1.43v-.987h.65c.114 1.276.208 2.865.208 4.644 0 2.366-.427 4.252-.84 6.078zm2.82-2.938c.136-.964.226-2.004.226-3.14 0-1.126-.035-2.174-.09-3.12 1.17.816 2.628 2.56 3.702 4.1-.92.63-2.43 1.59-3.837 2.16zm11.64 3.51l-.376.403-.372.405c-.81.886-1.646 1.803-2.176 1.803-.26 0-.57-.252-.786-.462-.896-.877-1.352-3.98-1.45-6.43h.185c3.044 0 5.39.448 6.125 1.168.22.216.482.53.488.8.012.547-.828 1.446-1.64 2.315zm-1.953 7.576l-.458-.258-.25-.472c-.097-.182-.283-.296-.485-.296-.2 0-.387.114-.484.296l-.25.472-.46.258c-.177.1-.287.29-.287.5 0 .206.11.397.288.497l.458.258.25.472c.097.182.283.296.485.296s.388-.113.485-.296l.25-.472.46-.258c.176-.1.286-.29.286-.498 0-.208-.11-.4-.286-.5zm-19.2-27.327c.097.074.214.115.334.115.118 0 .234-.04.33-.113.213-.164.282-.464.163-.71l-.035-.06c-.103-.158-.275-.253-.46-.253-.118 0-.234.04-.33.113-.128.1-.21.25-.22.416-.01.166.048.328.162.444l.056.05zm3.138 1.153c.095.075.213.115.333.115.12 0 .235-.04.33-.112.214-.165.283-.464.164-.71l-.035-.062c-.102-.157-.275-.252-.46-.252-.117 0-.233.04-.328.113-.13.1-.21.25-.22.416-.012.165.047.327.16.443l.056.05zm8.28 26.356c-.103-.157-.276-.252-.46-.252-.118 0-.234.04-.33.113-.128.1-.21.25-.22.415-.01.165.048.327.16.444l.057.05c.096.075.213.115.333.115.12 0 .235-.04.33-.113.213-.164.282-.464.163-.71l-.035-.062zM6.1 103.437c-.3.033-.52.312-.49.624.047.455.07.883.07 1.31 0 .546-.008 1.085-.022 1.605-.01.313.23.575.535.584h.016c.296 0 .54-.245.55-.552.015-.53.022-1.082.022-1.638 0-.466-.024-.934-.075-1.427-.032-.312-.304-.54-.607-.506zm-.163-.976c.298-.064.488-.365.425-.672-.097-.47-.2-.93-.31-1.416-.422-1.856-.856-3.776-.856-6.207 0-.99.03-1.997.086-2.996.018-.314-.214-.583-.518-.6-.302-.018-.565.22-.582.532-.058 1.02-.088 2.052-.088 3.063 0 2.562.47 4.636.884 6.465.11.48.212.935.307 1.394.055.267.284.45.54.45l.114-.013z" fill="#fff"/><path d="M30.178 56.055c-.754-.74-2.032-1.25-3.816-1.533 1.61-.887 2.634-1.795 3.108-2.756.475-.963.585-1.86.33-2.66-.454-1.417-1.887-2.156-3.404-2.938l-.473-.245-.47-.248c-1.252-.663-2.33-1.236-3.433-1.236-1.19 0-2.122.666-2.77 1.98-.477.965-.584 2.358-.326 4.227-1.155-1.2-2.19-1.93-3.135-2.208-.166-1.542-.34-2.48-.354-2.553-.07-.368-.306-.665-.62-.814v-.05c0-1.934-5.63-1.99-6.27-1.99-.643 0-6.273.056-6.273 1.99v.05c-.314.15-.55.446-.62.814-.027.142-.655 3.53-.655 8.28 0 2.627.477 4.734.9 6.592.353 1.563.688 3.04.688 4.61 0 3.466-.298 5.275-.3 5.292-.058.33.03.67.24.928.21.257.52.406.845.406H13.72c.325 0 .634-.15.843-.406.21-.257.3-.596.244-.926-.003-.018-.3-1.827-.3-5.292 0-1.57.334-3.048.688-4.612l.21-.94.23-.036c1.2-.344 2.513-1.02 3.624-1.68-.453.936-.743 1.957-.843 3.028-.217 2.298.447 4.545 1.872 6.327.11.136.267.206.426.206.124 0 .25-.042.35-.13.237-.198.27-.556.077-.798-1.237-1.548-1.814-3.5-1.625-5.496.09-.96.355-1.875.77-2.708l.06.533c.33 2.778.964 4.592 1.935 5.543.737.722 1.513 1.088 2.307 1.088 1.483 0 2.6-1.224 3.782-2.52l.363-.394.365-.393c1.176-1.258 2.288-2.447 2.256-3.937-.017-.844-.412-1.65-1.172-2.395zm-8.962-8.607c.364-.74.65-.74.805-.74.568 0 1.47.48 2.422.985l.482.254.484.25c1.047.54 2.13 1.1 2.296 1.618.082.258-.064.643-.2.92-.56 1.137-3.32 2.477-5.57 3.276-.702-2.34-1.28-5.425-.718-6.563zM3.378 45.083l.15-.117c.54-.332 2.25-.8 5.02-.8 2.77 0 4.477.468 5.018.8l.15.117v.466h-1.237c-.306 0-.552.253-.552.567v4.39c0 .14-.2.295-.47.295-.27 0-.472-.156-.472-.295v-4.39c0-.313-.247-.568-.55-.568H3.378v-.467zm10.185 3.3h-.532v-1.146h.388c.044.312.095.698.145 1.147zm-3.68-1.146v1.147H3.53c.05-.45.1-.835.146-1.147h6.207zM4.618 69.722l.034-.398h7.79l.035.398H4.62zm8.43-9.48c-.384 1.695-.747 3.296-.747 5.128 0 1.097.03 2.038.07 2.82H4.725c.04-.782.068-1.723.068-2.82 0-1.832-.363-3.433-.747-5.128-.413-1.825-.84-3.71-.84-6.078 0-1.78.093-3.368.208-4.644h6.468v.987c0 .79.706 1.43 1.574 1.43.868 0 1.574-.64 1.574-1.43v-.987h.65c.114 1.276.208 2.865.208 4.644 0 2.366-.427 4.252-.84 6.078zm2.82-2.938c.136-.964.226-2.004.226-3.14 0-1.126-.035-2.174-.09-3.12 1.17.816 2.628 2.56 3.702 4.1-.92.63-2.43 1.59-3.837 2.16zm11.64 3.51l-.376.403-.372.405c-.81.886-1.646 1.803-2.176 1.803-.26 0-.57-.252-.786-.462-.896-.877-1.352-3.98-1.45-6.43h.185c3.044 0 5.39.448 6.125 1.168.22.216.482.53.488.8.012.547-.828 1.446-1.64 2.315zm-1.953 7.576l-.458-.258-.25-.472c-.097-.182-.283-.296-.485-.296-.2 0-.387.114-.484.296l-.25.472-.46.258c-.177.1-.287.29-.287.5 0 .206.11.397.288.497l.458.258.25.472c.097.182.283.296.485.296s.388-.113.485-.296l.25-.472.46-.258c.176-.1.286-.29.286-.498 0-.208-.11-.4-.286-.5zm-19.2-27.327c.097.074.214.115.334.115.118 0 .234-.04.33-.113.213-.164.282-.464.163-.71l-.035-.06c-.103-.158-.275-.253-.46-.253-.118 0-.234.04-.33.113-.128.1-.21.25-.22.416-.01.166.048.328.162.444l.056.05zm3.138 1.153c.095.075.213.115.333.115.12 0 .235-.04.33-.112.214-.165.283-.464.164-.71l-.035-.062c-.102-.157-.275-.252-.46-.252-.117 0-.233.04-.328.113-.13.1-.21.25-.22.416-.012.165.047.327.16.443l.056.05zm8.28 26.356c-.103-.157-.276-.252-.46-.252-.118 0-.234.04-.33.113-.128.1-.21.25-.22.415-.01.165.048.327.16.444l.057.05c.096.075.213.115.333.115.12 0 .235-.04.33-.113.213-.164.282-.464.163-.71l-.035-.062zM6.1 63.437c-.3.033-.52.312-.49.624.047.455.07.883.07 1.31 0 .546-.008 1.085-.022 1.605-.01.313.23.575.535.584h.016c.296 0 .54-.245.55-.552.015-.53.022-1.082.022-1.638 0-.466-.024-.934-.075-1.427-.032-.312-.304-.54-.607-.506zm-.163-.976c.298-.064.488-.365.425-.672-.097-.47-.2-.93-.31-1.416-.422-1.856-.856-3.776-.856-6.207 0-.99.03-1.997.086-2.996.018-.314-.214-.583-.518-.6-.302-.018-.565.22-.582.532-.058 1.02-.088 2.052-.088 3.063 0 2.562.47 4.636.884 6.465.11.48.212.935.307 1.394.055.267.284.45.54.45l.114-.013z" fill="#67737B"/><path d="M30.178 16.055c-.754-.74-2.032-1.25-3.816-1.533 1.61-.887 2.634-1.795 3.108-2.756.475-.963.585-1.86.33-2.66-.454-1.417-1.887-2.156-3.404-2.938l-.473-.245-.47-.248C24.2 5.012 23.122 4.44 22.02 4.44c-1.19 0-2.122.666-2.77 1.98-.477.965-.584 2.358-.326 4.227-1.155-1.2-2.19-1.93-3.135-2.208-.166-1.542-.34-2.48-.354-2.553-.07-.368-.306-.665-.62-.814v-.05c0-1.934-5.63-1.99-6.27-1.99-.643 0-6.273.056-6.273 1.99v.05c-.314.15-.55.446-.62.814-.027.142-.655 3.53-.655 8.28 0 2.627.477 4.734.9 6.592.353 1.563.688 3.04.688 4.61 0 3.466-.298 5.275-.3 5.292-.058.33.03.67.24.928.21.257.52.406.845.406H13.72c.325 0 .634-.15.843-.406.21-.257.3-.596.244-.926-.003-.018-.3-1.827-.3-5.292 0-1.57.334-3.048.688-4.612l.21-.94.23-.036c1.2-.344 2.513-1.02 3.624-1.68-.453.936-.743 1.957-.843 3.028-.217 2.298.447 4.545 1.872 6.327.11.136.267.206.426.206.124 0 .25-.042.35-.13.237-.198.27-.556.077-.798-1.237-1.548-1.814-3.5-1.625-5.496.09-.96.355-1.875.77-2.708l.06.533c.33 2.778.964 4.592 1.935 5.543.737.722 1.513 1.088 2.307 1.088 1.483 0 2.6-1.224 3.782-2.52l.363-.394.365-.393c1.176-1.258 2.288-2.447 2.256-3.937-.017-.844-.412-1.65-1.172-2.395zm-8.962-8.607c.364-.74.65-.74.805-.74.568 0 1.47.48 2.422.985l.482.254.484.25c1.047.54 2.13 1.1 2.296 1.618.082.258-.064.643-.2.92-.56 1.137-3.32 2.477-5.57 3.276-.702-2.34-1.28-5.425-.718-6.563zM3.378 5.083l.15-.117c.54-.332 2.25-.8 5.02-.8 2.77 0 4.477.468 5.018.8l.15.117v.466h-1.237c-.306 0-.552.253-.552.567v4.39c0 .14-.2.295-.47.295-.27 0-.472-.156-.472-.295v-4.39c0-.313-.247-.568-.55-.568H3.378v-.467zm10.185 3.3h-.532V7.238h.388c.044.312.095.698.145 1.147zm-3.68-1.146v1.147H3.53c.05-.45.1-.835.146-1.147h6.207zM4.618 29.722l.034-.398h7.79l.035.398H4.62zm8.43-9.48c-.384 1.695-.747 3.296-.747 5.128 0 1.097.03 2.038.07 2.82H4.725c.04-.782.068-1.723.068-2.82 0-1.832-.363-3.433-.747-5.128-.413-1.825-.84-3.71-.84-6.078 0-1.78.093-3.368.208-4.644h6.468v.987c0 .79.706 1.43 1.574 1.43.868 0 1.574-.64 1.574-1.43V9.52h.65c.114 1.276.208 2.865.208 4.644 0 2.366-.427 4.252-.84 6.078zm2.82-2.938c.136-.964.226-2.004.226-3.14 0-1.126-.035-2.174-.09-3.12 1.17.816 2.628 2.56 3.702 4.1-.92.63-2.43 1.59-3.837 2.16zm11.64 3.51l-.376.403-.372.405c-.81.886-1.646 1.803-2.176 1.803-.26 0-.57-.252-.786-.462-.896-.877-1.352-3.98-1.45-6.43h.185c3.044 0 5.39.448 6.125 1.168.22.216.482.53.488.8.012.547-.828 1.446-1.64 2.315zm-1.953 7.576l-.458-.258-.25-.472c-.097-.182-.283-.296-.485-.296-.2 0-.387.114-.484.296l-.25.472-.46.258c-.177.1-.287.29-.287.5 0 .206.11.397.288.497l.458.258.25.472c.097.182.283.296.485.296s.388-.113.485-.296l.25-.472.46-.258c.176-.1.286-.29.286-.498 0-.208-.11-.4-.286-.5zM6.355 1.063c.097.074.214.115.334.115.118 0 .234-.04.33-.113C7.232.9 7.3.6 7.182.355l-.035-.06C7.045.136 6.873.04 6.688.04c-.118 0-.234.04-.33.113-.128.1-.21.25-.22.416-.01.166.048.328.162.444l.056.05zm3.138 1.153c.095.075.213.115.333.115.12 0 .235-.04.33-.112.214-.165.283-.464.164-.71l-.035-.062c-.102-.157-.275-.252-.46-.252-.117 0-.233.04-.328.113-.13.1-.21.25-.22.416-.012.165.047.327.16.443l.056.05zm8.28 26.356c-.103-.157-.276-.252-.46-.252-.118 0-.234.04-.33.113-.128.1-.21.25-.22.415-.01.165.048.327.16.444l.057.05c.096.075.213.115.333.115.12 0 .235-.04.33-.113.213-.164.282-.464.163-.71l-.035-.062zM6.1 23.437c-.3.033-.52.312-.49.624.047.455.07.883.07 1.31 0 .546-.008 1.085-.022 1.605-.01.313.23.575.535.584h.016c.296 0 .54-.245.55-.552.015-.53.022-1.082.022-1.638 0-.466-.024-.934-.075-1.427-.032-.312-.304-.54-.607-.506zm-.163-.976c.298-.064.488-.365.425-.672-.097-.47-.2-.93-.31-1.416-.422-1.856-.856-3.776-.856-6.207 0-.99.03-1.997.086-2.996.018-.314-.214-.583-.518-.6-.302-.018-.565.22-.582.532-.058 1.02-.088 2.052-.088 3.063 0 2.562.47 4.636.884 6.465.11.48.212.935.307 1.394.055.267.284.45.54.45l.114-.013z" fill="#3A434E"/></g></svg>