<svg width="32" height="232" viewBox="0 0 32 232" xmlns="http://www.w3.org/2000/svg" xmlns:sketch="http://www.bohemiancoding.com/sketch/ns"><title>ireland</title><desc>Created with Sketch.</desc><g sketch:type="MSPage" fill="none"><g sketch:type="MSShapeGroup"><path d="M30.178 136.055c-.754-.739-2.032-1.251-3.816-1.533 1.61-.887 2.634-1.795 3.108-2.756.475-.963.585-1.859.329-2.661-.453-1.416-1.886-2.155-3.403-2.937l-.473-.245-.471-.248c-1.251-.663-2.33-1.236-3.432-1.236-1.19 0-2.122.667-2.771 1.982-.476.964-.583 2.357-.325 4.226-1.155-1.201-2.19-1.93-3.135-2.208-.165-1.541-.339-2.479-.353-2.552-.069-.368-.306-.665-.619-.814v-.049c0-1.935-5.63-1.99-6.272-1.99-.642 0-6.272.055-6.272 1.99v.049c-.314.149-.55.446-.62.814-.027.142-.655 3.531-.655 8.279 0 2.628.477 4.735.899 6.593.354 1.564.689 3.042.689 4.612 0 3.465-.298 5.274-.301 5.291-.057.331.032.67.242.928.209.257.518.406.844.406h10.347c.325 0 .634-.149.843-.406.21-.257.298-.596.243-.926-.003-.018-.301-1.827-.301-5.292 0-1.57.335-3.048.689-4.612l.21-.939.229-.037c1.202-.344 2.514-1.019 3.625-1.679-.453.935-.743 1.956-.843 3.027-.217 2.298.447 4.545 1.872 6.327.109.137.267.207.426.207.123 0 .248-.042.35-.129.236-.199.269-.557.076-.799-1.237-1.548-1.814-3.5-1.625-5.496.09-.96.355-1.875.771-2.708l.058.533c.331 2.778.965 4.592 1.936 5.543.737.722 1.513 1.088 2.307 1.088 1.483 0 2.6-1.224 3.782-2.519l.363-.395.366-.393c1.176-1.259 2.288-2.448 2.256-3.938-.018-.844-.413-1.651-1.173-2.395zm-8.962-8.607c.364-.739.651-.739.805-.739.567 0 1.468.478 2.421.984l.482.254.484.25c1.047.54 2.13 1.099 2.296 1.618.082.258-.064.643-.2.921-.561 1.136-3.319 2.476-5.571 3.275-.701-2.342-1.278-5.426-.717-6.564zm-17.838-2.365l.149-.117c.542-.332 2.25-.799 5.02-.799 2.77 0 4.478.467 5.019.799l.149.117v.466h-1.236c-.305 0-.551.254-.551.568v4.39c0 .139-.201.295-.471.295-.269 0-.471-.156-.471-.295v-4.39c0-.313-.247-.568-.551-.568h-7.056v-.466zm10.185 3.301h-.532v-1.147h.387c.044.312.095.698.145 1.147zm-3.68-1.147v1.147h-6.353c.051-.449.101-.835.146-1.147h6.207zm-5.265 22.485l.034-.398h7.791l.034.398h-7.858zm8.429-9.48c-.383 1.695-.746 3.296-.746 5.128 0 1.097.028 2.038.068 2.819h-7.643c.04-.781.068-1.722.068-2.819 0-1.832-.363-3.433-.747-5.128-.413-1.825-.841-3.711-.841-6.078 0-1.779.094-3.368.209-4.644h6.468v.987c0 .789.706 1.431 1.574 1.431.868 0 1.574-.642 1.574-1.431v-.987h.648c.115 1.276.209 2.865.209 4.644 0 2.366-.427 4.252-.841 6.078zm2.822-2.938c.135-.964.225-2.004.225-3.14 0-1.126-.035-2.174-.09-3.121 1.169.817 2.628 2.561 3.702 4.1-.921.631-2.429 1.591-3.837 2.161zm11.638 3.51l-.375.403-.372.405c-.809.886-1.646 1.803-2.176 1.803-.261 0-.571-.252-.786-.462-.896-.877-1.352-3.979-1.451-6.429h.186c3.044 0 5.391.447 6.125 1.167.219.215.482.528.488.8.012.546-.828 1.445-1.64 2.314zm-1.952 7.576l-.458-.258-.251-.472c-.096-.182-.282-.296-.484-.296-.201 0-.387.114-.484.296l-.251.472-.459.258c-.177.1-.287.291-.287.499 0 .207.11.398.287.498l.458.258.251.472c.096.182.282.296.484.296.201 0 .387-.113.484-.296l.251-.472.458-.258c.177-.099.287-.291.287-.498 0-.207-.11-.399-.287-.499zm-19.199-27.327c.096.074.213.115.333.115.119 0 .235-.04.33-.113.214-.164.283-.464.164-.709l-.035-.062c-.103-.157-.275-.252-.459-.252-.119 0-.235.04-.33.113-.129.099-.21.25-.221.416-.011.165.048.327.162.443l.056.05zm3.137 1.153c.095.075.213.115.333.115.119 0 .235-.04.33-.113.214-.165.283-.464.164-.71l-.035-.062c-.102-.157-.275-.252-.459-.252-.118 0-.234.04-.329.113-.129.099-.21.25-.221.416-.011.165.048.327.161.443l.056.05zm8.279 26.356c-.102-.157-.275-.252-.458-.252-.119 0-.235.04-.33.113-.129.099-.21.25-.221.415-.011.165.048.327.161.444l.056.05c.096.075.213.115.333.115.119 0 .235-.04.329-.113.214-.164.283-.464.164-.71l-.035-.062zm-11.671-5.135c-.302.033-.522.312-.49.624.046.454.069.882.069 1.309 0 .546-.008 1.085-.022 1.605-.009.313.231.575.535.584h.016c.297 0 .542-.244.551-.551.015-.53.022-1.082.022-1.638 0-.466-.024-.934-.075-1.427-.032-.312-.304-.539-.607-.506zm-.164-.976c.298-.065.488-.366.425-.673-.097-.47-.201-.93-.311-1.416-.421-1.856-.855-3.776-.855-6.207 0-.989.029-1.997.086-2.996.018-.313-.214-.582-.518-.6-.302-.017-.565.22-.582.533-.058 1.021-.088 2.052-.088 3.063 0 2.562.47 4.636.884 6.465.109.481.212.935.307 1.394.055.267.284.45.539.45l.115-.013z" fill="#206FAC"/><path d="M30.178 96.055c-.754-.739-2.032-1.251-3.816-1.533 1.61-.887 2.634-1.795 3.108-2.756.475-.963.585-1.859.329-2.661-.453-1.416-1.886-2.155-3.403-2.937l-.473-.245-.471-.248c-1.251-.663-2.33-1.236-3.432-1.236-1.19 0-2.122.667-2.771 1.982-.476.964-.583 2.357-.325 4.226-1.155-1.201-2.19-1.93-3.135-2.208-.165-1.541-.339-2.479-.353-2.552-.069-.368-.306-.665-.619-.814v-.049c0-1.935-5.63-1.99-6.272-1.99-.642 0-6.272.055-6.272 1.99v.049c-.314.149-.55.446-.62.814-.027.142-.655 3.531-.655 8.279 0 2.628.477 4.735.899 6.593.354 1.564.689 3.042.689 4.612 0 3.465-.298 5.274-.301 5.291-.057.331.032.67.242.928.209.257.518.406.844.406h10.347c.325 0 .634-.149.843-.406.21-.257.298-.596.243-.926-.003-.018-.301-1.827-.301-5.292 0-1.57.335-3.048.689-4.612l.21-.939.229-.037c1.202-.344 2.514-1.019 3.625-1.679-.453.935-.743 1.956-.843 3.027-.217 2.298.447 4.545 1.872 6.327.109.137.267.207.426.207.123 0 .248-.042.35-.129.236-.199.269-.557.076-.799-1.237-1.548-1.814-3.5-1.625-5.496.09-.96.355-1.875.771-2.708l.058.533c.331 2.778.965 4.592 1.936 5.543.737.722 1.513 1.088 2.307 1.088 1.483 0 2.6-1.224 3.782-2.519l.363-.395.366-.393c1.176-1.259 2.288-2.448 2.256-3.938-.018-.844-.413-1.651-1.173-2.395zm-8.962-8.607c.364-.739.651-.739.805-.739.567 0 1.468.478 2.421.984l.482.254.484.25c1.047.54 2.13 1.099 2.296 1.618.082.258-.064.643-.2.921-.561 1.136-3.319 2.476-5.571 3.275-.701-2.342-1.278-5.426-.717-6.564zm-17.838-2.365l.149-.117c.542-.332 2.25-.799 5.02-.799 2.77 0 4.478.467 5.019.799l.149.117v.466h-1.236c-.305 0-.551.254-.551.568v4.39c0 .139-.201.295-.471.295-.269 0-.471-.156-.471-.295v-4.39c0-.313-.247-.568-.551-.568h-7.056v-.466zm10.185 3.301h-.532v-1.147h.387c.044.312.095.698.145 1.147zm-3.68-1.147v1.147h-6.353c.051-.449.101-.835.146-1.147h6.207zm-5.265 22.485l.034-.398h7.791l.034.398h-7.858zm8.429-9.48c-.383 1.695-.746 3.296-.746 5.128 0 1.097.028 2.038.068 2.819h-7.643c.04-.781.068-1.722.068-2.819 0-1.832-.363-3.433-.747-5.128-.413-1.825-.841-3.711-.841-6.078 0-1.779.094-3.368.209-4.644h6.468v.987c0 .789.706 1.431 1.574 1.431.868 0 1.574-.642 1.574-1.431v-.987h.648c.115 1.276.209 2.865.209 4.644 0 2.366-.427 4.252-.841 6.078zm2.822-2.938c.135-.964.225-2.004.225-3.14 0-1.126-.035-2.174-.09-3.121 1.169.817 2.628 2.561 3.702 4.1-.921.631-2.429 1.591-3.837 2.161zm11.638 3.51l-.375.403-.372.405c-.809.886-1.646 1.803-2.176 1.803-.261 0-.571-.252-.786-.462-.896-.877-1.352-3.979-1.451-6.429h.186c3.044 0 5.391.447 6.125 1.167.219.215.482.528.488.8.012.546-.828 1.445-1.64 2.314zm-1.952 7.576l-.458-.258-.251-.472c-.096-.182-.282-.296-.484-.296-.201 0-.387.114-.484.296l-.251.472-.459.258c-.177.1-.287.291-.287.499 0 .207.11.398.287.498l.458.258.251.472c.096.182.282.296.484.296.201 0 .387-.113.484-.296l.251-.472.458-.258c.177-.099.287-.291.287-.498 0-.207-.11-.399-.287-.499zm-19.199-27.327c.096.074.213.115.333.115.119 0 .235-.04.33-.113.214-.164.283-.464.164-.709l-.035-.062c-.103-.157-.275-.252-.459-.252-.119 0-.235.04-.33.113-.129.099-.21.25-.221.416-.011.165.048.327.162.443l.056.05zm3.137 1.153c.095.075.213.115.333.115.119 0 .235-.04.33-.113.214-.165.283-.464.164-.71l-.035-.062c-.102-.157-.275-.252-.459-.252-.118 0-.234.04-.329.113-.129.099-.21.25-.221.416-.011.165.048.327.161.443l.056.05zm8.279 26.356c-.102-.157-.275-.252-.458-.252-.119 0-.235.04-.33.113-.129.099-.21.25-.221.415-.011.165.048.327.161.444l.056.05c.096.075.213.115.333.115.119 0 .235-.04.329-.113.214-.164.283-.464.164-.71l-.035-.062zm-11.671-5.135c-.302.033-.522.312-.49.624.046.454.069.882.069 1.309 0 .546-.008 1.085-.022 1.605-.009.313.231.575.535.584h.016c.297 0 .542-.244.551-.551.015-.53.022-1.082.022-1.638 0-.466-.024-.934-.075-1.427-.032-.312-.304-.539-.607-.506zm-.164-.976c.298-.065.488-.366.425-.673-.097-.47-.201-.93-.311-1.416-.421-1.856-.855-3.776-.855-6.207 0-.989.029-1.997.086-2.996.018-.313-.214-.582-.518-.6-.302-.017-.565.22-.582.533-.058 1.021-.088 2.052-.088 3.063 0 2.562.47 4.636.884 6.465.109.481.212.935.307 1.394.055.267.284.45.539.45l.115-.013z" fill="#fff"/><path d="M30.178 56.055c-.754-.739-2.032-1.251-3.816-1.533 1.61-.887 2.634-1.795 3.108-2.756.475-.963.585-1.859.329-2.661-.453-1.416-1.886-2.155-3.403-2.937l-.473-.245-.471-.248c-1.251-.663-2.33-1.236-3.432-1.236-1.19 0-2.122.667-2.771 1.982-.476.964-.583 2.357-.325 4.226-1.155-1.201-2.19-1.93-3.135-2.208-.165-1.541-.339-2.479-.353-2.552-.069-.368-.306-.665-.619-.814v-.049c0-1.935-5.63-1.99-6.272-1.99-.642 0-6.272.055-6.272 1.99v.049c-.314.149-.55.446-.62.814-.027.142-.655 3.531-.655 8.279 0 2.628.477 4.735.899 6.593.354 1.564.689 3.042.689 4.612 0 3.465-.298 5.274-.301 5.291-.057.331.032.67.242.928.209.257.518.406.844.406h10.347c.325 0 .634-.149.843-.406.21-.257.298-.596.243-.926-.003-.018-.301-1.827-.301-5.292 0-1.57.335-3.048.689-4.612l.21-.939.229-.037c1.202-.344 2.514-1.019 3.625-1.679-.453.935-.743 1.956-.843 3.027-.217 2.298.447 4.545 1.872 6.327.109.137.267.207.426.207.123 0 .248-.042.35-.129.236-.199.269-.557.076-.799-1.237-1.548-1.814-3.5-1.625-5.496.09-.96.355-1.875.771-2.708l.058.533c.331 2.778.965 4.592 1.936 5.543.737.722 1.513 1.088 2.307 1.088 1.483 0 2.6-1.224 3.782-2.519l.363-.395.366-.393c1.176-1.259 2.288-2.448 2.256-3.938-.018-.844-.413-1.651-1.173-2.395zm-8.962-8.607c.364-.739.651-.739.805-.739.567 0 1.468.478 2.421.984l.482.254.484.25c1.047.54 2.13 1.099 2.296 1.618.082.258-.064.643-.2.921-.561 1.136-3.319 2.476-5.571 3.275-.701-2.342-1.278-5.426-.717-6.564zm-17.838-2.365l.149-.117c.542-.332 2.25-.799 5.02-.799 2.77 0 4.478.467 5.019.799l.149.117v.466h-1.236c-.305 0-.551.254-.551.568v4.39c0 .139-.201.295-.471.295-.269 0-.471-.156-.471-.295v-4.39c0-.313-.247-.568-.551-.568h-7.056v-.466zm10.185 3.301h-.532v-1.147h.387c.044.312.095.698.145 1.147zm-3.68-1.147v1.147h-6.353c.051-.449.101-.835.146-1.147h6.207zm-5.265 22.485l.034-.398h7.791l.034.398h-7.858zm8.429-9.48c-.383 1.695-.746 3.296-.746 5.128 0 1.097.028 2.038.068 2.819h-7.643c.04-.781.068-1.722.068-2.819 0-1.832-.363-3.433-.747-5.128-.413-1.825-.841-3.711-.841-6.078 0-1.779.094-3.368.209-4.644h6.468v.987c0 .789.706 1.431 1.574 1.431.868 0 1.574-.642 1.574-1.431v-.987h.648c.115 1.276.209 2.865.209 4.644 0 2.366-.427 4.252-.841 6.078zm2.822-2.938c.135-.964.225-2.004.225-3.14 0-1.126-.035-2.174-.09-3.121 1.169.817 2.628 2.561 3.702 4.1-.921.631-2.429 1.591-3.837 2.161zm11.638 3.51l-.375.403-.372.405c-.809.886-1.646 1.803-2.176 1.803-.261 0-.571-.252-.786-.462-.896-.877-1.352-3.979-1.451-6.429h.186c3.044 0 5.391.447 6.125 1.167.219.215.482.528.488.8.012.546-.828 1.445-1.64 2.314zm-1.952 7.576l-.458-.258-.251-.472c-.096-.182-.282-.296-.484-.296-.201 0-.387.114-.484.296l-.251.472-.459.258c-.177.1-.287.291-.287.499 0 .207.11.398.287.498l.458.258.251.472c.096.182.282.296.484.296.201 0 .387-.113.484-.296l.251-.472.458-.258c.177-.099.287-.291.287-.498 0-.207-.11-.399-.287-.499zm-19.199-27.327c.096.074.213.115.333.115.119 0 .235-.04.33-.113.214-.164.283-.464.164-.709l-.035-.062c-.103-.157-.275-.252-.459-.252-.119 0-.235.04-.33.113-.129.099-.21.25-.221.416-.011.165.048.327.162.443l.056.05zm3.137 1.153c.095.075.213.115.333.115.119 0 .235-.04.33-.113.214-.165.283-.464.164-.71l-.035-.062c-.102-.157-.275-.252-.459-.252-.118 0-.234.04-.329.113-.129.099-.21.25-.221.416-.011.165.048.327.161.443l.056.05zm8.279 26.356c-.102-.157-.275-.252-.458-.252-.119 0-.235.04-.33.113-.129.099-.21.25-.221.415-.011.165.048.327.161.444l.056.05c.096.075.213.115.333.115.119 0 .235-.04.329-.113.214-.164.283-.464.164-.71l-.035-.062zm-11.671-5.135c-.302.033-.522.312-.49.624.046.454.069.882.069 1.309 0 .546-.008 1.085-.022 1.605-.009.313.231.575.535.584h.016c.297 0 .542-.244.551-.551.015-.53.022-1.082.022-1.638 0-.466-.024-.934-.075-1.427-.032-.312-.304-.539-.607-.506zm-.164-.976c.298-.065.488-.366.425-.673-.097-.47-.201-.93-.311-1.416-.421-1.856-.855-3.776-.855-6.207 0-.989.029-1.997.086-2.996.018-.313-.214-.582-.518-.6-.302-.017-.565.22-.582.533-.058 1.021-.088 2.052-.088 3.063 0 2.562.47 4.636.884 6.465.109.481.212.935.307 1.394.055.267.284.45.539.45l.115-.013z" fill="#67737B"/><path d="M30.178 16.055c-.754-.739-2.032-1.251-3.816-1.533 1.61-.887 2.634-1.795 3.108-2.756.475-.963.585-1.859.329-2.661-.453-1.416-1.886-2.155-3.403-2.937l-.473-.245-.471-.248c-1.251-.663-2.33-1.236-3.432-1.236-1.19 0-2.122.667-2.771 1.982-.476.964-.583 2.357-.325 4.226-1.155-1.201-2.19-1.93-3.135-2.208-.165-1.541-.339-2.479-.353-2.552-.069-.368-.306-.665-.619-.814v-.049c0-1.935-5.63-1.99-6.272-1.99-.642 0-6.272.055-6.272 1.99v.049c-.314.149-.55.446-.62.814-.027.142-.655 3.531-.655 8.279 0 2.628.477 4.735.899 6.593.354 1.564.689 3.042.689 4.612 0 3.465-.298 5.274-.301 5.291-.057.331.032.67.242.928.209.257.518.406.844.406h10.347c.325 0 .634-.149.843-.406.21-.257.298-.596.243-.926-.003-.018-.301-1.827-.301-5.292 0-1.57.335-3.048.689-4.612l.21-.939.229-.037c1.202-.344 2.514-1.019 3.625-1.679-.453.935-.743 1.956-.843 3.027-.217 2.298.447 4.545 1.872 6.327.109.137.267.207.426.207.123 0 .248-.042.35-.129.236-.199.269-.557.076-.799-1.237-1.548-1.814-3.5-1.625-5.496.09-.96.355-1.875.771-2.708l.058.533c.331 2.778.965 4.592 1.936 5.543.737.722 1.513 1.088 2.307 1.088 1.483 0 2.6-1.224 3.782-2.519l.363-.395.366-.393c1.176-1.259 2.288-2.448 2.256-3.938-.018-.844-.413-1.651-1.173-2.395zm-8.962-8.607c.364-.739.651-.739.805-.739.567 0 1.468.478 2.421.984l.482.254.484.25c1.047.54 2.13 1.099 2.296 1.618.082.258-.064.643-.2.921-.561 1.136-3.319 2.476-5.571 3.275-.701-2.342-1.278-5.426-.717-6.564zm-17.838-2.365l.149-.117c.542-.332 2.25-.799 5.02-.799 2.77 0 4.478.467 5.019.799l.149.117v.466h-1.236c-.305 0-.551.254-.551.568v4.39c0 .139-.201.295-.471.295-.269 0-.471-.156-.471-.295v-4.39c0-.313-.247-.568-.551-.568h-7.056v-.466zm10.185 3.301h-.532v-1.147h.387c.044.312.095.698.145 1.147zm-3.68-1.147v1.147h-6.353c.051-.449.101-.835.146-1.147h6.207zm-5.265 22.485l.034-.398h7.791l.034.398h-7.858zm8.429-9.48c-.383 1.695-.746 3.296-.746 5.128 0 1.097.028 2.038.068 2.819h-7.643c.04-.781.068-1.722.068-2.819 0-1.832-.363-3.433-.747-5.128-.413-1.825-.841-3.711-.841-6.078 0-1.779.094-3.368.209-4.644h6.468v.987c0 .789.706 1.431 1.574 1.431.868 0 1.574-.642 1.574-1.431v-.987h.648c.115 1.276.209 2.865.209 4.644 0 2.366-.427 4.252-.841 6.078zm2.822-2.938c.135-.964.225-2.004.225-3.14 0-1.126-.035-2.174-.09-3.121 1.169.817 2.628 2.561 3.702 4.1-.921.631-2.429 1.591-3.837 2.161zm11.638 3.51l-.375.403-.372.405c-.809.886-1.646 1.803-2.176 1.803-.261 0-.571-.252-.786-.462-.896-.877-1.352-3.979-1.451-6.429h.186c3.044 0 5.391.447 6.125 1.167.219.215.482.528.488.8.012.546-.828 1.445-1.64 2.314zm-1.952 7.576l-.458-.258-.251-.472c-.096-.182-.282-.296-.484-.296-.201 0-.387.114-.484.296l-.251.472-.459.258c-.177.1-.287.291-.287.499 0 .207.11.398.287.498l.458.258.251.472c.096.182.282.296.484.296.201 0 .387-.113.484-.296l.251-.472.458-.258c.177-.099.287-.291.287-.498 0-.207-.11-.399-.287-.499zm-19.199-27.327c.096.074.213.115.333.115.119 0 .235-.04.33-.113.214-.164.283-.464.164-.709l-.035-.062c-.103-.157-.275-.252-.459-.252-.119 0-.235.04-.33.113-.129.099-.21.25-.221.416-.011.165.048.327.162.443l.056.05zm3.137 1.153c.095.075.213.115.333.115.119 0 .235-.04.33-.113.214-.165.283-.464.164-.71l-.035-.062c-.102-.157-.275-.252-.459-.252-.118 0-.234.04-.329.113-.129.099-.21.25-.221.416-.011.165.048.327.161.443l.056.05zm8.279 26.356c-.102-.157-.275-.252-.458-.252-.119 0-.235.04-.33.113-.129.099-.21.25-.221.415-.011.165.048.327.161.444l.056.05c.096.075.213.115.333.115.119 0 .235-.04.329-.113.214-.164.283-.464.164-.71l-.035-.062zm-11.671-5.135c-.302.033-.522.312-.49.624.046.454.069.882.069 1.309 0 .546-.008 1.085-.022 1.605-.009.313.231.575.535.584h.016c.297 0 .542-.244.551-.551.015-.53.022-1.082.022-1.638 0-.466-.024-.934-.075-1.427-.032-.312-.304-.539-.607-.506zm-.164-.976c.298-.065.488-.366.425-.673-.097-.47-.201-.93-.311-1.416-.421-1.856-.855-3.776-.855-6.207 0-.989.029-1.997.086-2.996.018-.313-.214-.582-.518-.6-.302-.017-.565.22-.582.533-.058 1.021-.088 2.052-.088 3.063 0 2.562.47 4.636.884 6.465.109.481.212.935.307 1.394.055.267.284.45.539.45l.115-.013z" fill="#3A434E"/></g></g></svg>