<svg width="32" height="232" viewBox="0 0 32 232" xmlns="http://www.w3.org/2000/svg"><desc>Created with Sketch.</desc><g fill="none"><path d="M29.996 149.88h-8.084l.3-3.108c.184-.065.325-.234.346-.447.02-.213-.086-.408-.255-.51l.233-2.418h1.017v1.344c0 .296.23.53.512.53h1.363c.283 0 .512-.234.512-.53v-.53h4.056c.283 0 .512-.237.512-.53 0-.292-.23-.53-.512-.53h-4.568l-.206.047c-.18.082-.305.267-.305.482v.535h-.34v-1.344c0-.292-.23-.53-.512-.53h-1.127l.006-.03c.02-.21-.086-.406-.255-.507l.29-3.058c.185-.064.326-.234.347-.447.02-.213-.087-.41-.256-.51l.296-3.057c.183-.063.324-.233.344-.446.02-.213-.084-.408-.253-.508l.295-3.058c.185-.064.326-.233.346-.447.023-.212-.083-.407-.252-.51l.395-4.11c.058-.58-.353-1.097-.915-1.154l-.548-.056.24-2.504c.056-.58-.354-1.097-.917-1.155l-6.953-.71c-.27-.027-.54.058-.75.235-.21.177-.342.434-.37.713l-.24 2.5-.547-.057c-.27-.024-.54.06-.75.237-.21.177-.34.434-.37.712l-.393 4.11c-.184.065-.326.234-.346.447-.02.213.088.41.257.51l-.294 3.057c-.183.064-.325.234-.345.447-.02.213.085.408.254.51l-.294 3.057c-.184.065-.326.234-.346.447-.02.213.084.408.253.51l-.294 3.057-.123.064c-1.724.368-2.993 1.222-3.312 2.283h-2.05c-.28 0-.51.237-.51.528v2.435h-2.87c-.28 0-.51.234-.51.526 0 .292.228.528.51.528h3.38c.284 0 .513-.236.513-.528v-2.435h1.97c.283 0 .512-.235.512-.53 0-.663.916-1.384 2.377-1.733l-.276 2.877c-.182.064-.324.233-.344.447-.02.216.085.41.254.51l-.42 4.35H2.06c-.563 0-1.02.473-1.02 1.056s.457 1.056 1.022 1.056H30c.564 0 1.022-.47 1.022-1.054 0-.584-.458-1.056-1.023-1.056zm-15.614-11.522c-.26-.026-.494.17-.52.44l-.153 1.588.94.097.154-1.59c.026-.268-.165-.508-.426-.535zm2.917.792c.022-.27-.168-.51-.43-.536-.26-.027-.494.17-.52.44l-.153 1.588.945.096.152-1.588zm2.49.255c.024-.27-.167-.51-.428-.536-.26-.03-.494.17-.52.435l-.153 1.588.946.097.153-1.59zm-5.026-5.05c-.26-.026-.494.17-.52.44l-.152 1.59.945.095.15-1.588c.027-.27-.164-.51-.425-.537zm2.492.256c-.262-.023-.495.17-.52.44l-.153 1.59.946.098.152-1.59c.026-.268-.165-.508-.426-.535zm2.49.26c-.26-.028-.494.17-.52.44l-.152 1.59.946.094.153-1.588c.026-.27-.165-.51-.425-.536zm-4.598-4.514c-.26-.026-.494.17-.52.44l-.153 1.588.945.098.153-1.59c.026-.267-.165-.507-.426-.534zm2.49.255c-.26-.026-.493.17-.52.44l-.152 1.588.945.096.154-1.588c.025-.27-.165-.51-.427-.536zm2.49.255c-.26-.027-.49.17-.52.44l-.15 1.588.945.098.153-1.59c.026-.27-.164-.51-.426-.534zm-6.13 11.5c-.26-.028-.494.17-.52.44l-.152 1.587.945.1.155-1.59c.026-.27-.165-.51-.426-.536zm2.49.254c-.26-.027-.493.17-.52.44l-.152 1.587.946.096.153-1.588c.026-.27-.165-.51-.426-.536zm2.492.254c-.26-.026-.494.17-.52.44l-.152 1.59.945.095.153-1.59c.026-.27-.165-.51-.426-.536zm-3.44-16.524c-.263-.024-.495.17-.52.44l-.154 1.59.945.097.155-1.59c.026-.268-.165-.508-.426-.535zm2.49.257c-.26-.027-.494.17-.52.44l-.153 1.588.946.096.153-1.59c.026-.265-.165-.505-.426-.532zm2.49.255c-.26-.025-.494.17-.52.44l-.152 1.59.945.096.153-1.588c.026-.27-.165-.51-.426-.537zm-2.793 20.258c-.47-.048-.888.306-.934.79l-.19 1.975h-1.32l-.3-.03.204-2.11c.046-.484-.296-.916-.765-.964-.468-.05-.887.308-.933.79l-.206 2.11-1.522-.156.36-3.73 8.05.823-.315 3.268h-1.54l.173-1.8c.047-.484-.296-.916-.765-.963zm-4.45-13.37l8.05.824-.284 2.963-8.05-.824.285-2.962zm.386-4.014l8.05.824-.284 2.963-8.05-.823.28-2.963zm.39-4.064l8.05.824-.288 3.013-8.05-.827.29-3.013zm6.89 12.916l-.286 2.963-7.82-.8c-.042-.1-.117-.184-.21-.24l.264-2.745 8.05.824zm-8.437 3.19l8.05.824-.285 2.963-8.05-.824.288-2.96zm3.456-19.497l4.918.506-.14 1.45-.74-.077.066-.68c.026-.27-.165-.51-.426-.536-.26-.026-.494.17-.52.44l-.065.68-1.546-.16.062-.68c.025-.268-.165-.508-.426-.535-.26-.027-.494.17-.52.44l-.065.68-.74-.078.14-1.45zM1.41 131.4c.252.23.576.357.912.357h1.34l-.013.175c0 .352.144.687.4.922.22.198.5.307.79.307h4.18c.66 0 1.194-.553 1.194-1.23 0-.68-.534-1.23-1.192-1.23H8.82c.03-.12.048-.243.048-.37 0-.786-.62-1.425-1.38-1.425h-5.17c-.334 0-.658.127-.91.356-.3.27-.47.66-.47 1.07 0 .408.172.797.47 1.068zm.677-1.344c.046-.043.125-.092.235-.092h5.17c.196 0 .356.166.356.37 0 .202-.16.367-.357.367-.28 0-.51.237-.51.53H6.98c0 .29.23.527.51.527H9.02c.093 0 .17.078.17.175 0 .096-.077.174-.17.174H4.84l-.11-.044-.058-.13.058-.13.11-.046h.004c.282 0 .512-.236.512-.528 0-.292-.23-.53-.512-.53h-2.52c-.11 0-.19-.05-.236-.09-.046-.043-.122-.133-.122-.277 0-.145.076-.236.122-.277z" fill="#206FAC"/><path d="M29.996 109.88h-8.084l.3-3.108c.184-.065.325-.234.346-.447.02-.213-.086-.408-.255-.51l.233-2.418h1.017v1.344c0 .296.23.53.512.53h1.363c.283 0 .512-.234.512-.53v-.53h4.056c.283 0 .512-.237.512-.53 0-.292-.23-.53-.512-.53h-4.568l-.206.047c-.18.082-.305.267-.305.482v.535h-.34v-1.344c0-.292-.23-.53-.512-.53h-1.127l.006-.03c.02-.21-.086-.406-.255-.507l.29-3.058c.185-.064.326-.234.347-.447.02-.213-.087-.41-.256-.51l.296-3.057c.183-.063.324-.233.344-.446.02-.213-.084-.408-.253-.508l.295-3.058c.185-.064.326-.233.346-.447.023-.212-.083-.407-.252-.51l.395-4.11c.058-.58-.353-1.097-.915-1.154l-.548-.056.24-2.504c.056-.58-.354-1.097-.917-1.155l-6.953-.71c-.27-.027-.54.058-.75.235-.21.177-.342.434-.37.713l-.24 2.5-.547-.057c-.27-.024-.54.06-.75.237-.21.177-.34.434-.37.712l-.393 4.11c-.184.065-.326.234-.346.447-.02.213.088.41.257.51l-.294 3.057c-.183.064-.325.234-.345.447-.02.213.085.408.254.51l-.294 3.057c-.184.065-.326.234-.346.447-.02.213.084.408.253.51l-.294 3.057-.123.064c-1.724.368-2.993 1.222-3.312 2.283h-2.05c-.28 0-.51.237-.51.528v2.435h-2.87c-.28 0-.51.234-.51.526 0 .292.228.528.51.528h3.38c.284 0 .513-.236.513-.528v-2.435h1.97c.283 0 .512-.235.512-.53 0-.663.916-1.384 2.377-1.733l-.276 2.877c-.182.064-.324.233-.344.447-.02.216.085.41.254.51l-.42 4.35H2.06c-.563 0-1.02.473-1.02 1.056s.457 1.056 1.022 1.056H30c.564 0 1.022-.47 1.022-1.054 0-.584-.458-1.056-1.023-1.056zM14.382 98.358c-.26-.026-.494.17-.52.44l-.153 1.588.94.097.154-1.59c.026-.268-.165-.508-.426-.535zm2.917.792c.022-.27-.168-.51-.43-.536-.26-.027-.494.17-.52.44l-.153 1.588.945.096.152-1.588zm2.49.255c.024-.27-.167-.51-.428-.536-.26-.03-.494.17-.52.435l-.153 1.588.946.097.153-1.59zm-5.026-5.05c-.26-.026-.494.17-.52.44l-.152 1.59.945.095.15-1.588c.027-.27-.164-.51-.425-.537zm2.492.256c-.262-.023-.495.17-.52.44l-.153 1.59.946.098.152-1.59c.026-.268-.165-.508-.426-.535zm2.49.26c-.26-.028-.494.17-.52.44l-.152 1.59.946.094.153-1.588c.026-.27-.165-.51-.425-.536zm-4.598-4.514c-.26-.026-.494.17-.52.44l-.153 1.588.945.098.153-1.59c.026-.267-.165-.507-.426-.534zm2.49.255c-.26-.026-.493.17-.52.44l-.152 1.588.945.096.154-1.588c.025-.27-.165-.51-.427-.536zm2.49.255c-.26-.027-.49.17-.52.44l-.15 1.588.945.098.153-1.59c.026-.27-.164-.51-.426-.534zm-6.13 11.5c-.26-.028-.494.17-.52.44l-.152 1.587.945.1.155-1.59c.026-.27-.165-.51-.426-.536zm2.49.254c-.26-.027-.493.17-.52.44l-.152 1.587.946.096.153-1.588c.026-.27-.165-.51-.426-.536zm2.492.254c-.26-.026-.494.17-.52.44l-.152 1.59.945.095.153-1.59c.026-.27-.165-.51-.426-.536zM15.537 86.35c-.262-.025-.494.17-.52.44l-.153 1.59.945.096.15-1.59c.025-.268-.166-.508-.427-.535zm2.49.256c-.26-.027-.493.17-.518.44l-.157 1.588.946.096.153-1.59c.026-.268-.165-.508-.426-.535zm2.492.255c-.265-.022-.498.17-.52.44l-.156 1.59.945.1.153-1.59c.026-.27-.165-.51-.426-.537zm-2.797 20.26c-.47-.05-.888.307-.934.79l-.19 1.976h-1.32l-.3-.03.204-2.11c.046-.484-.296-.916-.765-.964-.47-.05-.888.306-.934.79l-.203 2.108-1.522-.156.36-3.73 8.05.824-.314 3.268H18.32l.173-1.8c.046-.484-.297-.916-.766-.963zm-4.45-13.37l8.05.825-.284 2.963-8.05-.824.285-2.962zm.386-4.013l8.05.824-.284 2.963-8.05-.823.284-2.965zm.39-4.064l8.05.825-.288 3.013-8.05-.823.29-3.013zm6.89 12.917l-.286 2.962-7.82-.8c-.042-.103-.117-.187-.21-.244l.264-2.744 8.05.824zm-8.437 3.19l8.05.823-.285 2.964-8.05-.824.283-2.964zm3.456-19.5l4.917.503-.14 1.45-.74-.077.066-.68c.026-.27-.165-.51-.426-.535-.26-.023-.494.17-.52.44l-.065.68-1.546-.16.065-.68c.026-.265-.164-.505-.425-.532-.26-.026-.494.17-.52.44l-.065.68-.74-.077.14-1.45zM1.41 91.397c.252.23.576.357.912.357h1.34l-.013.175c0 .35.144.685.4.92.22.2.5.307.79.307h4.18c.66 0 1.194-.553 1.194-1.23 0-.68-.534-1.23-1.192-1.23H8.82c.03-.12.048-.243.048-.37 0-.786-.62-1.425-1.38-1.425h-5.17c-.334 0-.658.127-.91.356-.3.27-.47.66-.47 1.07 0 .406.172.795.47 1.066zm.677-1.344c.046-.043.125-.092.235-.092h5.17c.196 0 .356.168.356.37 0 .204-.16.37-.357.37-.28 0-.51.236-.51.53H6.98c0 .29.23.526.51.526H9.02c.093 0 .17.078.17.175 0 .096-.077.174-.17.174H4.84l-.11-.044-.058-.13.058-.13.11-.047h.004c.282 0 .512-.236.512-.528 0-.292-.23-.53-.512-.53h-2.52c-.11 0-.19-.05-.236-.09-.046-.043-.122-.133-.122-.277 0-.145.076-.236.122-.277z" fill="#fff"/><path d="M29.996 69.88h-8.084l.3-3.108c.184-.065.325-.234.346-.447.02-.213-.086-.408-.255-.51l.233-2.418h1.017v1.344c0 .296.23.53.512.53h1.363c.283 0 .512-.234.512-.53v-.53h4.056c.283 0 .512-.237.512-.53 0-.292-.23-.53-.512-.53h-4.568l-.206.047c-.18.082-.305.267-.305.482v.535h-.34V62.87c0-.293-.23-.53-.512-.53h-1.127l.006-.03c.02-.212-.086-.407-.255-.508l.29-3.058c.185-.064.326-.234.347-.447.02-.213-.087-.41-.256-.51l.296-3.057c.183-.064.324-.234.344-.447.02-.213-.084-.408-.253-.508l.295-3.058c.185-.064.326-.233.346-.447.023-.213-.083-.408-.252-.51l.395-4.11c.058-.58-.353-1.098-.915-1.155l-.548-.056.24-2.505c.056-.58-.354-1.097-.917-1.155l-6.953-.71c-.27-.028-.54.057-.75.234-.21.177-.342.434-.37.713l-.24 2.5-.547-.057c-.27-.025-.54.06-.75.236-.21.177-.34.434-.37.712l-.393 4.11c-.184.066-.326.235-.346.448-.02.213.088.41.257.51l-.294 3.057c-.183.064-.325.234-.345.447-.02.212.085.407.254.508l-.294 3.058c-.184.065-.326.234-.346.447-.02.213.084.408.253.51l-.294 3.057-.123.063c-1.724.368-2.993 1.222-3.312 2.283h-2.05c-.28 0-.51.237-.51.528v2.435h-2.87c-.28 0-.51.233-.51.525 0 .292.228.528.51.528h3.38c.284 0 .513-.236.513-.528V63.96h1.97c.283 0 .512-.236.512-.53 0-.664.916-1.385 2.377-1.734l-.276 2.877c-.182.064-.324.233-.344.447-.02.215.085.41.254.51l-.42 4.35H2.06c-.563 0-1.02.472-1.02 1.055s.457 1.056 1.022 1.056H30c.564 0 1.022-.47 1.022-1.053 0-.584-.458-1.056-1.023-1.056zM14.382 58.358c-.26-.026-.494.17-.52.44l-.153 1.588.94.097.154-1.59c.026-.268-.165-.508-.426-.535zm2.917.792c.022-.27-.168-.51-.43-.536-.26-.027-.494.17-.52.44l-.15 1.586.945.096.152-1.588zm2.49.255c.024-.27-.167-.51-.428-.536-.26-.03-.494.17-.52.435l-.153 1.588.946.097.153-1.59zm-5.026-5.05c-.26-.026-.494.17-.52.44l-.152 1.59.945.095.15-1.588c.027-.27-.164-.51-.425-.537zm2.492.256c-.262-.023-.495.17-.52.44l-.153 1.59.946.098.152-1.59c.026-.268-.165-.508-.426-.535zm2.49.26c-.26-.028-.494.17-.52.44l-.152 1.59.946.094.153-1.588c.026-.27-.165-.51-.425-.536zm-4.598-4.514c-.26-.026-.494.17-.52.44l-.153 1.588.945.098.153-1.59c.026-.267-.165-.507-.426-.534zm2.49.255c-.26-.026-.493.17-.52.44l-.152 1.588.945.096.154-1.588c.025-.27-.165-.51-.427-.536zm2.49.255c-.26-.027-.49.17-.52.44l-.15 1.588.945.098.153-1.59c.026-.27-.164-.51-.426-.534zM14 62.365c-.26-.03-.494.17-.52.44l-.152 1.586.945.1.154-1.59c.026-.27-.165-.51-.426-.535zm2.49.253c-.26-.026-.493.17-.52.44l-.152 1.588.946.096.153-1.588c.026-.27-.165-.51-.426-.536zm2.492.255c-.26-.026-.494.17-.52.44l-.152 1.59.945.095.153-1.59c.026-.268-.165-.508-.426-.535zM15.537 46.35c-.262-.025-.494.17-.52.44l-.153 1.59.945.096.15-1.59c.025-.268-.166-.508-.427-.535zm2.49.256c-.26-.027-.493.17-.518.44l-.157 1.588.946.096.153-1.59c.026-.268-.165-.508-.426-.535zm2.492.255c-.265-.022-.498.17-.52.44l-.156 1.59.945.1.153-1.59c.026-.27-.165-.51-.426-.537zm-2.797 20.26c-.47-.046-.888.308-.934.79l-.19 1.977h-1.32l-.3-.03.204-2.11c.046-.484-.296-.916-.765-.964-.47-.05-.888.306-.934.79l-.203 2.108-1.522-.155.36-3.73 8.05.823-.314 3.268H18.32l.173-1.8c.046-.484-.297-.916-.766-.963zm-4.45-13.37l8.05.826-.284 2.963-8.05-.825.285-2.962zm.386-4.012l8.05.824-.284 2.964-8.05-.823.284-2.962zm.39-4.064l8.05.824-.288 3.013-8.05-.824.29-3.013zm6.89 12.916l-.286 2.962-7.82-.8c-.042-.102-.117-.186-.21-.243l.264-2.746 8.05.824zm-8.437 3.19l8.05.823-.285 2.963-8.05-.824.283-2.963zm3.456-19.5l4.917.503-.14 1.45-.74-.077.066-.68c.026-.27-.165-.51-.426-.535-.26-.023-.494.17-.52.44l-.065.68-1.546-.16.065-.68c.026-.265-.164-.505-.425-.532-.26-.026-.494.17-.52.44l-.065.68-.74-.077.14-1.45zM1.41 51.397c.252.23.576.357.912.357h1.34l-.013.175c0 .35.144.685.4.92.22.2.5.307.79.307h4.18c.66 0 1.194-.553 1.194-1.23 0-.68-.534-1.23-1.192-1.23H8.82c.03-.12.048-.243.048-.37 0-.786-.62-1.425-1.38-1.425h-5.17c-.334 0-.658.127-.91.356-.3.27-.47.66-.47 1.07 0 .406.172.795.47 1.066zm.677-1.344c.046-.043.125-.092.235-.092h5.17c.196 0 .356.168.356.37 0 .204-.16.37-.357.37-.28 0-.51.236-.51.53H6.98c0 .29.23.526.51.526H9.02c.093 0 .17.078.17.175 0 .096-.077.174-.17.174H4.84l-.11-.044-.058-.13.058-.13.11-.047h.004c.282 0 .512-.236.512-.528 0-.292-.23-.53-.512-.53h-2.52c-.11 0-.19-.05-.236-.09-.046-.043-.122-.133-.122-.277 0-.145.076-.236.122-.277z" fill="#67737B"/><path d="M29.996 29.88h-8.084l.3-3.108c.184-.065.325-.234.346-.447.02-.213-.086-.408-.255-.51l.233-2.418h1.017v1.344c0 .296.23.53.512.53h1.363c.283 0 .512-.234.512-.53v-.53h4.056c.283 0 .512-.237.512-.53 0-.292-.23-.53-.512-.53h-4.568l-.206.047c-.18.082-.305.267-.305.482v.535h-.34V22.87c0-.293-.23-.53-.512-.53h-1.127l.006-.03c.02-.212-.086-.407-.255-.508l.29-3.058c.185-.064.326-.234.347-.447.02-.213-.087-.41-.256-.51l.296-3.057c.183-.064.324-.234.344-.447.02-.213-.084-.408-.253-.508l.295-3.058c.185-.064.326-.233.346-.447.023-.213-.083-.408-.252-.51l.395-4.11c.058-.58-.353-1.098-.915-1.155l-.548-.056.24-2.505c.056-.58-.354-1.097-.917-1.155L15.147.07c-.27-.027-.54.058-.75.235-.21.177-.342.434-.37.713l-.24 2.5-.547-.057c-.27-.023-.54.06-.75.238-.21.177-.34.434-.37.712l-.393 4.11c-.184.065-.326.234-.346.447-.02.213.087.41.256.51l-.294 3.057c-.183.064-.325.234-.345.447-.02.214.085.41.254.51l-.294 3.058c-.184.065-.326.234-.346.447-.02.213.084.408.253.51l-.294 3.057-.124.064c-1.724.368-2.993 1.222-3.312 2.283h-2.05c-.28 0-.51.236-.51.527v2.435h-2.87c-.28 0-.51.235-.51.527 0 .29.228.527.51.527h3.38c.284 0 .513-.236.513-.528v-2.436h1.97c.283 0 .512-.237.512-.53 0-.665.915-1.386 2.376-1.735l-.276 2.876c-.182.064-.324.233-.344.447-.02.216.085.41.254.51l-.42 4.35H2.06c-.563 0-1.02.473-1.02 1.056s.457 1.055 1.022 1.055H30c.564 0 1.022-.472 1.022-1.055 0-.584-.458-1.056-1.023-1.056zM14.382 18.358c-.26-.026-.494.17-.52.44l-.153 1.588.94.097.154-1.59c.026-.268-.165-.508-.426-.535zm2.917.792c.022-.27-.168-.51-.43-.536-.26-.027-.494.17-.52.44l-.15 1.586.945.096.152-1.588zm2.49.255c.024-.27-.167-.51-.428-.536-.26-.03-.494.17-.52.435l-.153 1.588.946.097.153-1.59zm-5.026-5.05c-.26-.026-.494.17-.52.44l-.152 1.59.945.095.15-1.588c.027-.27-.164-.51-.425-.537zm2.492.256c-.262-.023-.495.17-.52.44l-.153 1.59.946.098.152-1.59c.026-.268-.165-.508-.426-.535zm2.49.26c-.26-.028-.494.17-.52.44l-.152 1.59.946.094.153-1.588c.026-.27-.165-.51-.425-.536zm-4.598-4.514c-.26-.026-.494.17-.52.44l-.153 1.588.945.098.153-1.59c.026-.267-.165-.507-.426-.534zm2.49.255c-.26-.026-.493.17-.52.44l-.152 1.588.945.096.154-1.588c.025-.27-.165-.51-.427-.536zm2.49.255c-.26-.027-.49.17-.52.44l-.15 1.588.945.098.153-1.59c.026-.27-.164-.51-.426-.534zM14 22.365c-.26-.03-.494.17-.52.44l-.152 1.586.945.1.154-1.59c.026-.27-.165-.51-.426-.535zm2.49.253c-.26-.026-.493.17-.52.44l-.152 1.588.946.096.153-1.588c.026-.27-.165-.51-.426-.536zm2.492.255c-.26-.026-.494.17-.52.44l-.152 1.59.945.095.153-1.59c.026-.268-.165-.508-.426-.535zM15.537 6.35c-.262-.025-.494.17-.52.44l-.153 1.59.945.096.15-1.59c.025-.268-.166-.508-.427-.535zm2.49.256c-.26-.027-.493.17-.518.44l-.157 1.588.946.096.153-1.59c.026-.268-.165-.508-.426-.535zm2.492.255c-.265-.022-.498.17-.52.44l-.156 1.59.945.1.153-1.59c.026-.27-.165-.51-.426-.537zm-2.797 20.26c-.47-.046-.888.308-.934.79l-.19 1.977h-1.32l-.3-.03.204-2.11c.046-.484-.296-.916-.765-.964-.47-.05-.888.306-.934.79l-.203 2.108-1.522-.155.36-3.73 8.05.823-.314 3.268H18.32l.173-1.8c.046-.484-.297-.916-.766-.963zm-4.45-13.37l8.05.826-.284 2.963-8.05-.825.285-2.962zm.386-4.012l8.05.824-.284 2.964-8.05-.823.284-2.962zm.39-4.064l8.05.824-.288 3.013-8.05-.824.29-3.013zm6.89 12.916l-.286 2.962-7.82-.8c-.042-.102-.117-.186-.21-.243l.264-2.746 8.05.824zm-8.437 3.19l8.05.823-.285 2.963-8.05-.824.283-2.963zm3.456-19.5l4.917.503-.14 1.45-.74-.077.066-.68c.026-.27-.165-.51-.426-.535-.26-.023-.494.17-.52.44l-.065.68-1.546-.16.065-.68c.026-.265-.164-.505-.425-.532-.26-.026-.494.17-.52.44l-.065.68-.74-.077.14-1.45zM1.41 11.397c.252.23.576.357.912.357h1.34l-.013.175c0 .35.144.685.4.92.22.2.5.307.79.307h4.18c.66 0 1.194-.553 1.194-1.23 0-.68-.534-1.23-1.192-1.23H8.82c.03-.12.048-.243.048-.37 0-.786-.62-1.425-1.38-1.425h-5.17c-.334 0-.658.127-.91.356-.3.27-.47.66-.47 1.07 0 .406.172.795.47 1.066zm.677-1.344c.046-.043.125-.092.235-.092h5.17c.196 0 .356.168.356.37 0 .204-.16.37-.357.37-.28 0-.51.236-.51.53H6.98c0 .29.23.526.51.526H9.02c.093 0 .17.078.17.175 0 .096-.077.174-.17.174H4.84l-.11-.044-.058-.13.058-.13.11-.047h.004c.282 0 .512-.236.512-.528 0-.292-.23-.53-.512-.53h-2.52c-.11 0-.19-.05-.236-.09-.046-.043-.122-.133-.122-.277 0-.145.076-.236.122-.277z" fill="#3A434E"/></g></svg>