<svg width="32" height="232" viewBox="0 0 32 232" xmlns="http://www.w3.org/2000/svg"><title>rome</title><desc>Created with Sketch.</desc><g fill="none"><path d="M4.92 124.82h.076l-.02.237c0 .686.52 1.246 1.162 1.246h5.333c.284 0 .557-.11.77-.312.252-.235.396-.575.396-.933 0-.357-.144-.697-.395-.933-.212-.2-.485-.312-.77-.312H9.26l.005-.076c0-.31-.126-.608-.343-.813-.185-.175-.424-.273-.67-.273H4.92c-.56 0-1.014.487-1.014 1.085s.455 1.085 1.014 1.085zm0-1.16h3.33l.047.02.025.057-.025.057-.045.02H8.25c-.26 0-.472.225-.472.504s.21.505.472.505h3.222l.145.06c.03.026.076.084.076.175 0 .092-.048.15-.076.177l-.145.06H6.14c-.122 0-.222-.107-.222-.237s.1-.236.22-.236c.262 0 .473-.226.473-.505h.003c0-.28-.21-.505-.472-.505H4.92l-.07-.076.07-.076zM4.4 143.236H6.19c.26 0 .47-.226.47-.504v-3.13c0-.806-.612-1.462-1.364-1.462-.753 0-1.365.655-1.365 1.46v3.132c0 .28.212.504.472.504zm.472-3.635c0-.248.19-.45.422-.45.233 0 .423.202.423.45v2.628h-.846V139.6zm3.396 3.636h1.788c.26 0 .472-.226.472-.504v-3.13c0-.806-.613-1.462-1.365-1.462-.753 0-1.366.655-1.366 1.46v3.132c0 .28.21.504.47.504zm.472-3.635c0-.248.19-.45.422-.45.232 0 .422.202.422.45v2.628h-.844V139.6zm3.396 3.636h1.787c.26 0 .472-.226.472-.504v-3.13c0-.806-.613-1.462-1.365-1.462-.753 0-1.365.655-1.365 1.46v3.132c0 .28.21.504.472.504zm.472-3.635c0-.248.19-.45.422-.45.233 0 .422.202.422.45v2.628h-.844V139.6zm14.506-.2c-.6 0-1.09.523-1.09 1.166v2.166c0 .28.21.505.47.505h1.238c.26 0 .472-.226.472-.505v-2.166c0-.643-.49-1.166-1.09-1.166zm.146 2.828h-.294v-1.662c0-.087.066-.157.147-.157.08 0 .146.07.146.156v1.662zm-22.86-4.867H6.19c.26 0 .47-.225.47-.504v-3.13c0-.806-.612-1.462-1.364-1.462-.753 0-1.365.655-1.365 1.46v3.132c0 .28.212.505.472.505zm.472-3.635c0-.25.19-.452.422-.452.233 0 .423.202.423.452v2.627h-.846v-2.627zm3.396 3.636h1.788c.26 0 .472-.225.472-.504v-3.13c0-.806-.613-1.462-1.365-1.462-.753 0-1.366.655-1.366 1.46v3.132c0 .28.21.505.47.505zm.472-3.635c0-.25.19-.452.422-.452.232 0 .422.202.422.452v2.627h-.844v-2.627zm6.115-.832c.26 0 .47-.226.47-.504v-2.06h3.928v1.614H17.77c-.26 0-.472.226-.472.504v2.22c0 .28.21.505.472.505.26 0 .47-.226.47-.505v-1.715h3.188c.176 0 .327-.104.408-.256.062-.086.1-.192.1-.308v-2.886h5.498v5.44c0 .28.21.506.472.506h2.334c.26 0 .472-.226.472-.505s-.21-.505-.472-.505h-1.863V129c0-2.636-2.456-4.76-3.204-5.345v-.462l.094-.055c.152-.09.246-.258.246-.443 0-.184-.094-.354-.246-.442l-.098-.058-.055-.105c-.082-.162-.24-.262-.413-.262s-.33.1-.414.262l-.054.105-.098.058c-.15.088-.245.258-.245.442 0 .185.095.354.247.443l.094.055v.462c-.73.57-3.077 2.603-3.196 5.145l-.038.2v2.944H20.2v-2.117c0-1.994-1.794-3.602-2.423-4.103v-.215l.01-.007c.153-.09.247-.258.247-.442s-.094-.353-.245-.442l-.046-.026-.024-.048c-.082-.163-.24-.263-.414-.263-.172 0-.33.1-.414.264l-.024.047-.045.027c-.15.09-.245.26-.245.444 0 .185.094.354.246.443l.01.007v.214c-.61.488-2.318 2.018-2.416 3.933l-.03.17v2.562c0 .278.21.503.472.503zm8.84-4.398c.1-1.51.63-2.824 1.005-3.587.376.762.903 2.075 1.004 3.587h-2.01zm3.697 0h-.742c-.053-.92-.246-1.77-.48-2.492.563.694 1.08 1.558 1.222 2.492zm-4.167-2.486c-.232.72-.423 1.568-.477 2.485h-.743c.144-.93.658-1.792 1.22-2.486zm-6.558 3.312c.083-.935.38-1.76.633-2.317.253.556.55 1.382.634 2.317h-1.27zm2.53 0h-.315c-.03-.41-.096-.798-.182-1.16.226.357.41.748.497 1.16zm-3.297-1.16c-.086.362-.15.75-.182 1.16h-.315c.087-.412.272-.803.497-1.16zm9.174 3.168v4.337h1.436v-4.337c-.018-.407-.333-.733-.72-.733-.384 0-.7.325-.717.733zm5.976 16.755h-.95v-7.704l.266-1.836c.02-.146-.02-.294-.108-.406-.09-.112-.22-.176-.36-.176H17.546l-.297-1.73c-.082-.477-.47-.824-.923-.827l-2.216-.012-.868-5.113c-.08-.48-.47-.83-.928-.83H1.782c-.275 0-.537.13-.716.352-.18.224-.26.52-.216.81l.26 1.8v15.67H.95c-.52 0-.943.453-.943 1.01 0 .558.423 1.01.943 1.01h30.105c.52 0 .943-.452.943-1.01 0-.557-.422-1.01-.943-1.01zM11.527 131.47l.866 5.108c.08.478.47.826.923.83l2.22.01.864 5.033c.082.48.472.828.928.828h5.768v4.806h-.964v-2.607c0-.805-.612-1.46-1.365-1.46s-1.366.655-1.366 1.46v2.607h-1.135v-2.607c0-.805-.613-1.46-1.366-1.46-.753 0-1.366.655-1.366 1.46v2.607h-1.137v-2.607c0-.805-.613-1.46-1.365-1.46-.753 0-1.365.655-1.365 1.46v2.607H10.53v-2.607c0-.805-.613-1.46-1.365-1.46-.753 0-1.366.655-1.366 1.46v2.607H6.66v-2.607c0-.805-.613-1.46-1.365-1.46-.753 0-1.365.655-1.365 1.46v2.607H3v-15.748l-.012-.154-.103-.713h8.643zm12.407 9.79h-.293v-.694c0-.087.066-.157.147-.157.08 0 .146.07.146.156v.694zm-3.327 0h-.294v-.694c0-.087.066-.157.147-.157.08 0 .147.07.147.156v.694zm.58 6.824h-.844v-2.607c0-.25.19-.452.423-.452.233 0 .422.202.422.452v2.607zm-3.867 0h-.844v-2.607c0-.25.19-.452.422-.452.233 0 .422.202.422.452v2.607zm-3.867 0h-.844v-2.607c0-.25.188-.452.42-.452.234 0 .423.202.423.452v2.607zm-3.867 0h-.844v-2.607c0-.25.19-.452.422-.452.232 0 .422.202.422.452v2.607zm-3.867 0h-.846v-2.607c0-.25.19-.452.422-.452.233 0 .423.202.423.452v2.607zm21.248-1.462v-.62c0-.088.066-.16.147-.16.08 0 .146.072.146.16v1.66h-.293v-1.04zm1.237 1.462V146c0-.642-.49-1.165-1.09-1.165-.563 0-1.028.458-1.084 1.045l-.005.12v2.084h-1.042v-5.815c0-.167-.038-.323-.104-.46v-1.245c0-.643-.49-1.166-1.092-1.166s-1.09.522-1.09 1.165v.694H21.55v-.695c0-.643-.49-1.166-1.09-1.166-.6 0-1.09.522-1.09 1.165v.694h-1.257l-.33-1.915-.063-.376h11.633l-.188 1.293-.005.078v7.743h-.955zm-5.34-16.755v4.336h1.437v-4.337c-.018-.408-.332-.734-.718-.734-.385 0-.7.325-.718.733" fill="#206FAC"/><path d="M4.92 84.82h.076l-.02.237c0 .686.52 1.246 1.162 1.246h5.333c.284 0 .557-.11.77-.312.252-.235.396-.575.396-.933 0-.357-.144-.697-.395-.933-.212-.2-.485-.312-.77-.312H9.26l.005-.076c0-.31-.126-.608-.343-.813-.185-.175-.424-.273-.67-.273H4.92c-.56 0-1.014.487-1.014 1.085S4.36 84.82 4.92 84.82zm0-1.16h3.33l.047.02.025.057-.025.057-.045.02H8.25c-.26 0-.472.225-.472.504s.21.505.472.505h3.222l.145.06c.03.026.076.084.076.175 0 .092-.048.15-.076.177l-.145.06H6.14c-.122 0-.222-.107-.222-.237s.1-.236.22-.236c.262 0 .473-.226.473-.505h.003c0-.28-.21-.505-.472-.505H4.92l-.07-.076.07-.076zM4.4 103.236H6.19c.26 0 .47-.226.47-.504v-3.13c0-.806-.612-1.462-1.364-1.462-.753 0-1.365.655-1.365 1.46v3.132c0 .28.212.504.472.504zm.472-3.635c0-.248.19-.45.422-.45.233 0 .423.202.423.45v2.628h-.846V99.6zm3.396 3.636h1.788c.26 0 .472-.226.472-.504v-3.13c0-.806-.613-1.462-1.365-1.462-.753 0-1.366.655-1.366 1.46v3.132c0 .28.21.504.47.504zm.472-3.635c0-.248.19-.45.422-.45.232 0 .422.202.422.45v2.628h-.844V99.6zm3.396 3.636h1.787c.26 0 .472-.226.472-.504v-3.13c0-.806-.613-1.462-1.365-1.462-.753 0-1.365.655-1.365 1.46v3.132c0 .28.21.504.472.504zm.472-3.635c0-.248.19-.45.422-.45.233 0 .422.202.422.45v2.628h-.844V99.6zm14.506-.2c-.6 0-1.09.523-1.09 1.166v2.166c0 .28.21.505.47.505h1.238c.26 0 .472-.226.472-.505v-2.166c0-.643-.49-1.166-1.09-1.166zm.146 2.828h-.294v-1.662c0-.087.066-.157.147-.157.08 0 .146.07.146.156v1.662zM4.402 97.36H6.19c.26 0 .47-.225.47-.504v-3.13c0-.806-.612-1.462-1.364-1.462-.753 0-1.365.655-1.365 1.46v3.132c0 .28.212.505.472.505zm.472-3.635c0-.25.19-.452.422-.452.233 0 .423.202.423.452v2.627h-.846v-2.627zM8.27 97.36h1.788c.26 0 .472-.225.472-.504v-3.13c0-.806-.613-1.462-1.365-1.462-.753 0-1.366.655-1.366 1.46v3.132c0 .28.21.505.47.505zm.472-3.635c0-.25.19-.452.422-.452.232 0 .422.202.422.452v2.627h-.844v-2.627zm6.115-.832c.26 0 .47-.226.47-.504v-2.06h3.928v1.614H17.77c-.26 0-.472.226-.472.504v2.22c0 .28.21.505.472.505.26 0 .47-.226.47-.505v-1.715h3.188c.176 0 .327-.104.408-.256.062-.086.1-.192.1-.308v-2.886h5.498v5.44c0 .28.21.506.472.506h2.334c.26 0 .472-.226.472-.505s-.21-.505-.472-.505h-1.863V89c0-2.636-2.456-4.76-3.204-5.345v-.462l.094-.055c.152-.09.246-.258.246-.443 0-.184-.094-.354-.246-.442l-.098-.058-.055-.105c-.082-.162-.24-.262-.413-.262s-.33.1-.414.262l-.054.105-.098.058c-.15.088-.245.258-.245.442 0 .185.095.354.247.443l.094.055v.462c-.73.57-3.077 2.603-3.196 5.145l-.038.2v2.944H20.2v-2.117c0-1.994-1.794-3.602-2.423-4.103v-.215l.01-.007c.153-.09.247-.258.247-.442s-.094-.353-.245-.442l-.046-.026-.024-.048c-.082-.163-.24-.263-.414-.263-.172 0-.33.1-.414.264l-.024.047-.045.027c-.15.09-.245.26-.245.444 0 .185.094.354.246.443l.01.007v.214c-.61.488-2.318 2.018-2.416 3.933l-.03.17v2.562c0 .278.21.503.472.503zm8.84-4.398c.1-1.51.63-2.824 1.005-3.587.376.762.903 2.075 1.004 3.587h-2.01zm3.697 0h-.742c-.053-.92-.246-1.77-.48-2.492.563.694 1.08 1.558 1.222 2.492zm-4.167-2.486c-.232.72-.423 1.568-.477 2.485h-.743c.144-.93.658-1.792 1.22-2.486zM16.67 89.32c.083-.935.38-1.76.633-2.317.253.556.55 1.382.634 2.317h-1.27zm2.53 0h-.315c-.03-.41-.096-.798-.182-1.16.226.357.41.748.497 1.16zm-3.297-1.16c-.086.362-.15.75-.182 1.16h-.315c.087-.412.272-.803.497-1.16zm9.174 3.168v4.337h1.436V91.33c-.018-.407-.333-.733-.72-.733-.384 0-.7.325-.717.733zm5.976 16.755h-.95v-7.704l.266-1.836c.02-.146-.02-.294-.108-.406-.09-.112-.22-.176-.36-.176H17.546l-.297-1.73c-.082-.477-.47-.824-.923-.827l-2.216-.012-.868-5.113c-.08-.48-.47-.83-.928-.83H1.782c-.275 0-.537.13-.716.352-.18.224-.26.52-.216.81l.26 1.8v15.67H.95c-.52 0-.943.453-.943 1.01 0 .558.423 1.01.943 1.01h30.105c.52 0 .943-.452.943-1.01 0-.557-.422-1.01-.943-1.01zM11.527 91.47l.866 5.108c.08.478.47.826.923.83l2.22.01.864 5.033c.082.48.472.828.928.828h5.768v4.806h-.964v-2.607c0-.805-.612-1.46-1.365-1.46s-1.366.655-1.366 1.46v2.607h-1.135v-2.607c0-.805-.613-1.46-1.366-1.46-.753 0-1.366.655-1.366 1.46v2.607h-1.137v-2.607c0-.805-.613-1.46-1.365-1.46-.753 0-1.365.655-1.365 1.46v2.607H10.53v-2.607c0-.805-.613-1.46-1.365-1.46-.753 0-1.366.655-1.366 1.46v2.607H6.66v-2.607c0-.805-.613-1.46-1.365-1.46-.753 0-1.365.655-1.365 1.46v2.607H3V92.336l-.012-.154-.103-.713h8.643zm12.407 9.79h-.293v-.694c0-.087.066-.157.147-.157.08 0 .146.07.146.156v.694zm-3.327 0h-.294v-.694c0-.087.066-.157.147-.157.08 0 .147.07.147.156v.694zm.58 6.824h-.844v-2.607c0-.25.19-.452.423-.452.233 0 .422.202.422.452v2.607zm-3.867 0h-.844v-2.607c0-.25.19-.452.422-.452.233 0 .422.202.422.452v2.607zm-3.867 0h-.844v-2.607c0-.25.188-.452.42-.452.234 0 .423.202.423.452v2.607zm-3.867 0h-.844v-2.607c0-.25.19-.452.422-.452.232 0 .422.202.422.452v2.607zm-3.867 0h-.846v-2.607c0-.25.19-.452.422-.452.233 0 .423.202.423.452v2.607zm21.248-1.462v-.62c0-.088.066-.16.147-.16.08 0 .146.072.146.16v1.66h-.293v-1.04zm1.237 1.462V106c0-.642-.49-1.165-1.09-1.165-.563 0-1.028.458-1.084 1.045l-.005.12v2.084h-1.042v-5.815c0-.167-.038-.323-.104-.46v-1.245c0-.643-.49-1.166-1.092-1.166s-1.09.522-1.09 1.165v.694H21.55v-.695c0-.643-.49-1.166-1.09-1.166-.6 0-1.09.522-1.09 1.165v.694h-1.257l-.33-1.915-.063-.376h11.633l-.188 1.293-.005.078v7.743h-.955zm-5.34-16.755v4.336h1.437V91.33c-.018-.408-.332-.734-.718-.734-.385 0-.7.325-.718.733" fill="#fff"/><path d="M4.92 44.82h.076l-.02.237c0 .686.52 1.246 1.162 1.246h5.333c.284 0 .557-.11.77-.312.252-.235.396-.575.396-.933 0-.357-.144-.697-.395-.933-.212-.2-.485-.312-.77-.312H9.26l.005-.076c0-.31-.126-.608-.343-.813-.185-.175-.424-.273-.67-.273H4.92c-.56 0-1.014.487-1.014 1.085S4.36 44.82 4.92 44.82zm0-1.16h3.33l.047.02.025.057-.025.057-.045.02H8.25c-.26 0-.472.225-.472.504s.21.505.472.505h3.222l.145.06c.03.026.076.084.076.175 0 .092-.048.15-.076.177l-.145.06H6.14c-.122 0-.222-.107-.222-.237s.1-.236.22-.236c.262 0 .473-.226.473-.505h.003c0-.28-.21-.505-.472-.505H4.92l-.07-.076.07-.076zM4.4 63.236H6.19c.26 0 .47-.226.47-.504v-3.13c0-.806-.612-1.462-1.364-1.462-.753 0-1.365.655-1.365 1.46v3.132c0 .28.212.504.472.504zm.472-3.635c0-.248.19-.45.422-.45.233 0 .423.202.423.45v2.628h-.846V59.6zm3.396 3.636h1.788c.26 0 .472-.226.472-.504v-3.13c0-.806-.613-1.462-1.365-1.462-.753 0-1.366.655-1.366 1.46v3.132c0 .28.21.504.47.504zm.472-3.635c0-.248.19-.45.422-.45.232 0 .422.202.422.45v2.628h-.844V59.6zm3.396 3.636h1.787c.26 0 .472-.226.472-.504v-3.13c0-.806-.613-1.462-1.365-1.462-.753 0-1.365.655-1.365 1.46v3.132c0 .28.21.504.472.504zm.472-3.635c0-.248.19-.45.422-.45.233 0 .422.202.422.45v2.628h-.844V59.6zm14.506-.2c-.6 0-1.09.523-1.09 1.166v2.166c0 .28.21.505.47.505h1.238c.26 0 .472-.226.472-.505v-2.166c0-.643-.49-1.166-1.09-1.166zm.146 2.828h-.294v-1.662c0-.087.066-.157.147-.157.08 0 .146.07.146.156v1.662zM4.402 57.36H6.19c.26 0 .47-.225.47-.504v-3.13c0-.806-.612-1.462-1.364-1.462-.753 0-1.365.655-1.365 1.46v3.132c0 .28.212.505.472.505zm.472-3.635c0-.25.19-.452.422-.452.233 0 .423.202.423.452v2.627h-.846v-2.627zM8.27 57.36h1.788c.26 0 .472-.225.472-.504v-3.13c0-.806-.613-1.462-1.365-1.462-.753 0-1.366.655-1.366 1.46v3.132c0 .28.21.505.47.505zm.472-3.635c0-.25.19-.452.422-.452.232 0 .422.202.422.452v2.627h-.844v-2.627zm6.115-.832c.26 0 .47-.226.47-.504v-2.06h3.928v1.614H17.77c-.26 0-.472.226-.472.504v2.22c0 .28.21.505.472.505.26 0 .47-.226.47-.505v-1.715h3.188c.176 0 .327-.104.408-.256.062-.086.1-.192.1-.308v-2.886h5.498v5.44c0 .28.21.506.472.506h2.334c.26 0 .472-.226.472-.505s-.21-.505-.472-.505h-1.863V49c0-2.636-2.456-4.76-3.204-5.345v-.462l.094-.055c.152-.09.246-.258.246-.443 0-.184-.094-.354-.246-.442l-.098-.058-.055-.105c-.082-.162-.24-.262-.413-.262s-.33.1-.414.262l-.054.105-.098.058c-.15.088-.245.258-.245.442 0 .185.095.354.247.443l.094.055v.462c-.73.57-3.077 2.603-3.196 5.145l-.038.2v2.944H20.2v-2.117c0-1.994-1.794-3.602-2.423-4.103v-.215l.01-.007c.153-.09.247-.258.247-.442s-.094-.353-.245-.442l-.046-.026-.024-.048c-.082-.163-.24-.263-.414-.263-.172 0-.33.1-.414.264l-.024.047-.045.027c-.15.09-.245.26-.245.444 0 .185.094.354.246.443l.01.007v.214c-.61.488-2.318 2.018-2.416 3.933l-.03.17v2.562c0 .278.21.503.472.503zm8.84-4.398c.1-1.51.63-2.824 1.005-3.587.376.762.903 2.075 1.004 3.587h-2.01zm3.697 0h-.742c-.053-.92-.246-1.77-.48-2.492.563.694 1.08 1.558 1.222 2.492zm-4.167-2.486c-.232.72-.423 1.568-.477 2.485h-.743c.144-.93.658-1.792 1.22-2.486zM16.67 49.32c.083-.935.38-1.76.633-2.317.253.556.55 1.382.634 2.317h-1.27zm2.53 0h-.315c-.03-.41-.096-.798-.182-1.16.226.357.41.748.497 1.16zm-3.297-1.16c-.086.362-.15.75-.182 1.16h-.315c.087-.412.272-.803.497-1.16zm9.174 3.168v4.337h1.436V51.33c-.018-.407-.333-.733-.72-.733-.384 0-.7.325-.717.733zm5.976 16.755h-.95V60.38l.266-1.836c.02-.146-.02-.294-.108-.406-.09-.112-.22-.176-.36-.176H17.546l-.297-1.73c-.082-.477-.47-.824-.923-.827l-2.216-.012-.868-5.113c-.08-.48-.47-.83-.928-.83H1.782c-.275 0-.537.13-.716.352-.18.224-.26.52-.216.81l.26 1.8v15.67H.95c-.52 0-.943.453-.943 1.01 0 .558.423 1.01.943 1.01h30.105c.52 0 .943-.452.943-1.01 0-.557-.422-1.01-.943-1.01zM11.527 51.47l.866 5.108c.08.478.47.826.923.83l2.22.01.864 5.033c.082.48.472.828.928.828h5.768v4.806h-.964v-2.607c0-.805-.612-1.46-1.365-1.46s-1.366.655-1.366 1.46v2.607h-1.135v-2.607c0-.805-.613-1.46-1.366-1.46-.753 0-1.366.655-1.366 1.46v2.607h-1.137v-2.607c0-.805-.613-1.46-1.365-1.46-.753 0-1.365.655-1.365 1.46v2.607H10.53v-2.607c0-.805-.613-1.46-1.365-1.46-.753 0-1.366.655-1.366 1.46v2.607H6.66v-2.607c0-.805-.613-1.46-1.365-1.46-.753 0-1.365.655-1.365 1.46v2.607H3V52.336l-.012-.154-.103-.713h8.643zm12.407 9.79h-.293v-.694c0-.087.066-.157.147-.157.08 0 .146.07.146.156v.694zm-3.327 0h-.294v-.694c0-.087.066-.157.147-.157.08 0 .147.07.147.156v.694zm.58 6.824h-.844v-2.607c0-.25.19-.452.423-.452.233 0 .422.202.422.452v2.607zm-3.867 0h-.844v-2.607c0-.25.19-.452.422-.452.233 0 .422.202.422.452v2.607zm-3.867 0h-.844v-2.607c0-.25.188-.452.42-.452.234 0 .423.202.423.452v2.607zm-3.867 0h-.844v-2.607c0-.25.19-.452.422-.452.232 0 .422.202.422.452v2.607zm-3.867 0h-.846v-2.607c0-.25.19-.452.422-.452.233 0 .423.202.423.452v2.607zm21.248-1.462v-.62c0-.088.066-.16.147-.16.08 0 .146.072.146.16v1.66h-.293v-1.04zm1.237 1.462V66c0-.642-.49-1.165-1.09-1.165-.563 0-1.028.458-1.084 1.045l-.005.12v2.084h-1.042V62.27c0-.167-.038-.323-.104-.46v-1.245c0-.643-.49-1.166-1.092-1.166s-1.09.522-1.09 1.165v.694H21.55v-.695c0-.643-.49-1.166-1.09-1.166-.6 0-1.09.522-1.09 1.165v.694h-1.257l-.33-1.915-.063-.376h11.633l-.188 1.293-.005.078v7.743h-.955zm-5.34-16.755v4.336h1.437V51.33c-.018-.408-.332-.734-.718-.734-.385 0-.7.325-.718.733" fill="#67737B"/><path d="M4.92 4.82h.076l-.02.237c0 .686.52 1.246 1.162 1.246h5.333c.284 0 .557-.11.77-.312.252-.235.396-.575.396-.933 0-.357-.144-.697-.395-.933-.212-.2-.485-.312-.77-.312H9.26l.005-.076c0-.31-.126-.608-.343-.813-.185-.175-.424-.273-.67-.273H4.92c-.56 0-1.014.487-1.014 1.085S4.36 4.82 4.92 4.82zm0-1.16h3.33l.047.02.025.057-.025.057-.045.02H8.25c-.26 0-.472.225-.472.504s.21.505.472.505h3.222l.145.06c.03.026.076.084.076.175 0 .092-.048.15-.076.177l-.145.06H6.14c-.122 0-.222-.107-.222-.237s.1-.236.22-.236c.262 0 .473-.226.473-.505h.003c0-.28-.21-.505-.472-.505H4.92l-.07-.076.07-.076zM4.4 23.236H6.19c.26 0 .47-.226.47-.504v-3.13c0-.806-.612-1.462-1.364-1.462-.753 0-1.365.655-1.365 1.46v3.132c0 .28.212.504.472.504zm.472-3.635c0-.248.19-.45.422-.45.233 0 .423.202.423.45v2.628h-.846V19.6zm3.396 3.636h1.788c.26 0 .472-.226.472-.504v-3.13c0-.806-.613-1.462-1.365-1.462-.753 0-1.366.655-1.366 1.46v3.132c0 .28.21.504.47.504zm.472-3.635c0-.248.19-.45.422-.45.232 0 .422.202.422.45v2.628h-.844V19.6zm3.396 3.636h1.787c.26 0 .472-.226.472-.504v-3.13c0-.806-.613-1.462-1.365-1.462-.753 0-1.365.655-1.365 1.46v3.132c0 .28.21.504.472.504zm.472-3.635c0-.248.19-.45.422-.45.233 0 .422.202.422.45v2.628h-.844V19.6zm14.506-.2c-.6 0-1.09.523-1.09 1.166v2.166c0 .28.21.505.47.505h1.238c.26 0 .472-.226.472-.505v-2.166c0-.643-.49-1.166-1.09-1.166zm.146 2.828h-.294v-1.662c0-.087.066-.157.147-.157.08 0 .146.07.146.156v1.662zM4.402 17.36H6.19c.26 0 .47-.225.47-.504v-3.13c0-.806-.612-1.462-1.364-1.462-.753 0-1.365.655-1.365 1.46v3.132c0 .28.212.505.472.505zm.472-3.635c0-.25.19-.452.422-.452.233 0 .423.202.423.452v2.627h-.846v-2.627zM8.27 17.36h1.788c.26 0 .472-.225.472-.504v-3.13c0-.806-.613-1.462-1.365-1.462-.753 0-1.366.655-1.366 1.46v3.132c0 .28.21.505.47.505zm.472-3.635c0-.25.19-.452.422-.452.232 0 .422.202.422.452v2.627h-.844v-2.627zm6.115-.832c.26 0 .47-.226.47-.504v-2.06h3.928v1.614H17.77c-.26 0-.472.226-.472.504v2.22c0 .28.21.505.472.505.26 0 .47-.226.47-.505v-1.715h3.188c.176 0 .327-.104.408-.256.062-.086.1-.192.1-.308V9.503h5.498v5.44c0 .28.21.506.472.506h2.334c.26 0 .472-.226.472-.505s-.21-.505-.472-.505h-1.863V9c0-2.636-2.456-4.76-3.204-5.345v-.462l.094-.055c.152-.09.246-.258.246-.443 0-.184-.094-.354-.246-.442l-.098-.058-.055-.105c-.082-.162-.24-.262-.413-.262s-.33.1-.414.262l-.054.105-.098.058c-.15.088-.245.258-.245.442 0 .185.095.354.247.443l.094.055v.462c-.73.57-3.077 2.603-3.196 5.145l-.038.2v2.944H20.2V9.827c0-1.994-1.794-3.602-2.423-4.103V5.51l.01-.007c.153-.09.247-.258.247-.442s-.094-.353-.245-.442l-.046-.026-.024-.048c-.082-.163-.24-.263-.414-.263-.172 0-.33.1-.414.264l-.024.047-.045.027c-.15.09-.245.26-.245.444 0 .185.094.354.246.443l.01.007v.214c-.61.488-2.318 2.018-2.416 3.933l-.03.17v2.562c0 .278.21.503.472.503zm8.84-4.398c.1-1.51.63-2.824 1.005-3.587.376.762.903 2.075 1.004 3.587h-2.01zm3.697 0h-.742c-.053-.92-.246-1.77-.48-2.492.563.694 1.08 1.558 1.222 2.492zM23.227 6.01c-.232.72-.423 1.568-.477 2.485h-.743c.144-.93.658-1.792 1.22-2.486zM16.67 9.32c.083-.935.38-1.76.633-2.317.253.556.55 1.382.634 2.317h-1.27zm2.53 0h-.315c-.03-.41-.096-.798-.182-1.16.226.357.41.748.497 1.16zm-3.297-1.16c-.086.362-.15.75-.182 1.16h-.315c.087-.412.272-.803.497-1.16zm9.174 3.168v4.337h1.436V11.33c-.018-.407-.333-.733-.72-.733-.384 0-.7.325-.717.733zm5.976 16.755h-.95V20.38l.266-1.836c.02-.146-.02-.294-.108-.406-.09-.112-.22-.176-.36-.176H17.546l-.297-1.73c-.082-.477-.47-.824-.923-.827l-2.216-.012-.868-5.113c-.08-.48-.47-.83-.928-.83H1.782c-.275 0-.537.13-.716.352-.18.224-.26.52-.216.81l.26 1.8v15.67H.95c-.52 0-.943.453-.943 1.01 0 .558.423 1.01.943 1.01h30.105c.52 0 .943-.452.943-1.01 0-.557-.422-1.01-.943-1.01zM11.527 11.47l.866 5.108c.08.478.47.826.923.83l2.22.01.864 5.033c.082.48.472.828.928.828h5.768v4.806h-.964v-2.607c0-.805-.612-1.46-1.365-1.46s-1.366.655-1.366 1.46v2.607h-1.135v-2.607c0-.805-.613-1.46-1.366-1.46-.753 0-1.366.655-1.366 1.46v2.607h-1.137v-2.607c0-.805-.613-1.46-1.365-1.46-.753 0-1.365.655-1.365 1.46v2.607H10.53v-2.607c0-.805-.613-1.46-1.365-1.46-.753 0-1.366.655-1.366 1.46v2.607H6.66v-2.607c0-.805-.613-1.46-1.365-1.46-.753 0-1.365.655-1.365 1.46v2.607H3V12.336l-.012-.154-.103-.713h8.643zm12.407 9.79h-.293v-.694c0-.087.066-.157.147-.157.08 0 .146.07.146.156v.694zm-3.327 0h-.294v-.694c0-.087.066-.157.147-.157.08 0 .147.07.147.156v.694zm.58 6.824h-.844v-2.607c0-.25.19-.452.423-.452.233 0 .422.202.422.452v2.607zm-3.867 0h-.844v-2.607c0-.25.19-.452.422-.452.233 0 .422.202.422.452v2.607zm-3.867 0h-.844v-2.607c0-.25.188-.452.42-.452.234 0 .423.202.423.452v2.607zm-3.867 0h-.844v-2.607c0-.25.19-.452.422-.452.232 0 .422.202.422.452v2.607zm-3.867 0h-.846v-2.607c0-.25.19-.452.422-.452.233 0 .423.202.423.452v2.607zm21.248-1.462v-.62c0-.088.066-.16.147-.16.08 0 .146.072.146.16v1.66h-.293v-1.04zm1.237 1.462V26c0-.642-.49-1.165-1.09-1.165-.563 0-1.028.458-1.084 1.045l-.005.12v2.084h-1.042V22.27c0-.167-.038-.323-.104-.46v-1.245c0-.643-.49-1.166-1.092-1.166s-1.09.522-1.09 1.165v.694H21.55v-.695c0-.643-.49-1.166-1.09-1.166-.6 0-1.09.522-1.09 1.165v.694h-1.257l-.33-1.915-.063-.376h11.633l-.188 1.293-.005.078v7.743h-.955zm-5.34-16.755v4.336h1.437V11.33c-.018-.408-.332-.734-.718-.734-.385 0-.7.325-.718.733" fill="#3A434E"/></g></svg>