<svg width="32" height="232" viewBox="0 0 32 232" xmlns="http://www.w3.org/2000/svg"><desc>Created with Sketch.</desc><g fill="none"><path d="M30.317 138.464c.094-.17.143-.365.143-.564v-1.43c0-.334.246-.604.548-.604.545 0 .987-.486.987-1.087 0-.6-.44-1.09-.987-1.09-1.278 0-2.336 1.05-2.498 2.41-.188.21-.81.76-2.49 1.25l2.41-4.52c.137-.26.06-.59-.176-.75-.235-.15-.537-.07-.675.19l-2.88 5.39c-.43.09-.91.17-1.43.24l2.21-4.16c.14-.26.06-.6-.18-.75-.24-.15-.54-.07-.68.19l-2.59 4.852c-1.35.14-2.98.22-4.92.22-8.74 0-10.9-1.71-11.33-2.164v-3.3c0-1.53-1.13-2.776-2.52-2.776-.55 0-.99.49-.99 1.09 0 .6.44 1.09.98 1.09.3 0 .54.27.54.6v.128h-.54c-.27 0-.49.247-.49.547 0 .3.22.544.49.544h.55v.3h-.55c-.27 0-.49.243-.49.544 0 .3.22.545.5.545h.55v.303h-.55c-.27 0-.49.245-.49.546 0 .3.22.55.49.55h.55v1.075c0 .2.05.39.14.56.1.19 1.95 3.472 6.66 5.24-.25.06-.43.15-.584.232-.2.104-.34.18-.67.18s-.47-.076-.67-.18c-.24-.13-.54-.29-1.1-.29-.55 0-.85.16-1.094.29-.2.104-.34.18-.67.18s-.473-.076-.67-.18c-.24-.13-.543-.29-1.1-.29-.553 0-.855.16-1.097.29-.198.104-.34.18-.67.18s-.474-.076-.67-.18c-.244-.13-.546-.29-1.1-.29-.27 0-.49.24-.49.544 0 .3.22.544.49.544.33 0 .474.077.672.183.24.127.54.29 1.1.29.55 0 .852-.163 1.094-.29.2-.106.34-.183.67-.183s.477.078.675.18c.243.13.545.29 1.1.29s.857-.16 1.1-.29c.2-.102.34-.18.67-.18s.476.08.674.185c.24.13.542.29 1.096.29.56 0 .86-.16 1.1-.29.2-.104.34-.18.67-.18s.477.08.67.185c.25.127.55.29 1.1.29s.86-.163 1.1-.29c.2-.106.34-.183.67-.183s.477.08.67.185c.25.128.55.29 1.1.29s.86-.162 1.1-.29l.267-.122.693-.033c.15.03.25.08.38.15.24.123.546.29 1.1.29.328 0 .566-.06.757-.13l-.95 1.782-.28-.02c-.52 0-.8.16-1.02.29-.176.1-.29.162-.57.162-.27 0-.39-.068-.56-.168-.22-.126-.5-.285-1.02-.285s-.79.16-1.02.287c-.17.1-.29.17-.56.17-.27 0-.49.24-.49.54 0 .3.22.543.495.543.513 0 .792-.16 1.02-.285.17-.1.29-.17.562-.17.28 0 .39.063.57.163.22.13.5.29 1.02.29s.79-.16 1.02-.29c.17-.1.29-.163.56-.163.27 0 .39.07.56.17.224.13.503.286 1.02.286s.796-.16 1.02-.29c.174-.1.29-.164.566-.164.28 0 .398.063.57.163.226.13.505.287 1.02.287.27 0 .495-.24.495-.54 0-.3-.22-.54-.49-.54-.276 0-.39-.06-.566-.16-.226-.13-.505-.29-1.02-.29s-.798.16-1.02.285c-.176.1-.29.167-.568.167-.16 0-.26-.02-.36-.06l1.32-2.475c.14.03.25.082.376.15.24.125.542.29 1.1.29s.854-.16 1.1-.29c.195-.11.34-.185.67-.185s.47.075.67.18c.242.13.544.29 1.1.29.553 0 .855-.16 1.1-.29.195-.105.34-.182.67-.182s.472.078.67.184c.243.13.545.29 1.1.29.272 0 .492-.25.492-.55 0-.3-.22-.54-.492-.54-.33 0-.474-.074-.67-.18-.245-.13-.546-.29-1.1-.29s-.86.16-1.1.29c-.2.106-.34.18-.67.18s-.475-.074-.67-.18c-.245-.13-.547-.29-1.1-.29s-.86.16-1.1.29c-.2.106-.34.18-.67.18-.31 0-.46-.067-.64-.16 5.25-1.69 7.303-5.29 7.41-5.49zm-7.813 3.34c-1.457.487-3.238.827-5.378.827-4.408 0-7.29-1.44-8.933-2.65-.28-.2-.536-.41-.767-.61 1.965.63 5.004 1.11 9.7 1.11 2.553 0 4.616-.14 6.285-.37l-.9 1.7zm3.576-1.825c-.56.41-1.266.84-2.124 1.24l.707-1.33c.847-.16 1.57-.34 2.187-.54-.233.2-.49.41-.77.61zm-18.164-5.49c.517 0 .796-.16 1.02-.29.174-.1.29-.17.566-.17.276 0 .39.06.566.16.224.13.503.28 1.02.28s.796-.16 1.02-.29c.174-.1.29-.17.566-.17.276 0 .392.06.566.16.224.13.503.28 1.02.28.516 0 .796-.16 1.02-.288.174-.1.29-.165.566-.165.276 0 .392.065.566.165.224.13.503.288 1.02.288.27 0 .493-.24.493-.542 0-.3-.22-.54-.494-.54s-.39-.07-.56-.165c-.22-.13-.5-.29-1.02-.29s-.79.16-1.02.29c-.17.1-.29.166-.56.166-.27 0-.39-.07-.56-.166-.22-.13-.5-.29-1.02-.29s-.79.16-1.02.29c-.17.1-.29.16-.56.16-.27 0-.39-.066-.56-.164-.22-.13-.5-.29-1.02-.29s-.79.16-1.02.29c-.17.1-.29.16-.56.16-.27 0-.49.24-.49.54 0 .3.22.55.49.55zm9.046.64c-.224-.13-.503-.29-1.02-.29s-.796.16-1.02.29c-.174.1-.29.16-.566.16-.276 0-.39-.07-.565-.17-.22-.13-.5-.29-1.02-.29s-.79.16-1.02.29c-.17.1-.29.16-.56.16-.27 0-.49.24-.49.54 0 .3.22.54.5.54.52 0 .8-.16 1.02-.29.18-.1.29-.17.57-.17.28 0 .39.06.57.16.23.13.51.29 1.02.29s.8-.16 1.02-.29c.18-.1.29-.17.57-.17.28 0 .39.065.57.164.23.13.51.29 1.02.29s.8-.16 1.02-.29c.18-.1.29-.166.57-.166.28 0 .39.065.57.164.23.13.51.29 1.02.29.27 0 .5-.24.5-.54 0-.3-.22-.545-.49-.545-.275 0-.39-.064-.564-.164-.223-.13-.502-.29-1.02-.29s-.795.16-1.02.29c-.173.1-.29.162-.565.162-.277 0-.39-.068-.567-.168zm3.276-10.63c.07.04.146.06.223.06.14 0 .26-.06.35-.16.15-.17.19-.42.1-.63-.05-.11-.12-.2-.22-.25-.08-.05-.18-.07-.27-.06l-.2.08-.09.07c-.15.16-.18.42-.09.63.05.1.13.18.22.24zm1.287 5.17c.07.04.145.06.223.06.13 0 .256-.06.348-.16.15-.17.188-.42.093-.63-.05-.11-.13-.19-.23-.24-.09-.05-.18-.07-.28-.06l-.2.08-.09.07c-.16.17-.19.42-.1.63.04.1.12.18.22.24zm-11.613-3.94c.07.04.146.06.223.06.13 0 .256-.06.35-.16.15-.17.187-.42.092-.63-.048-.11-.126-.19-.222-.25-.085-.05-.18-.07-.276-.05l-.21.07-.09.08c-.16.16-.19.42-.1.63.04.1.12.18.21.24zm4.42 2.48l.41.24.225.45c.087.17.253.28.433.28s.346-.11.433-.29l.224-.45.41-.248c.158-.095.257-.277.257-.476 0-.2-.1-.38-.257-.476l-.41-.246-.224-.456c-.087-.178-.252-.286-.433-.286-.18 0-.346.107-.433.28l-.224.454-.41.245c-.158.1-.256.28-.256.48 0 .2.098.38.256.475z" fill="#206FAC"/><path d="M30.317 98.464c.094-.17.143-.365.143-.564v-1.43c0-.334.246-.604.548-.604.545 0 .987-.486.987-1.087 0-.6-.44-1.09-.987-1.09-1.278 0-2.336 1.05-2.498 2.41-.188.21-.81.76-2.49 1.25l2.41-4.52c.137-.26.06-.59-.176-.75-.235-.15-.537-.07-.675.19l-2.88 5.4c-.43.09-.91.17-1.43.24l2.21-4.16c.14-.26.06-.6-.18-.75-.24-.15-.54-.07-.68.19l-2.59 4.854c-1.35.14-2.98.222-4.92.222-8.74 0-10.9-1.71-11.33-2.168v-3.3c0-1.53-1.13-2.778-2.52-2.778-.55 0-.99.486-.99 1.086 0 .61.44 1.09.98 1.09.3 0 .54.27.54.61v.13h-.54c-.27 0-.49.25-.49.55 0 .3.22.543.49.543h.55v.306h-.55c-.27 0-.49.24-.49.54 0 .3.22.547.5.547h.55v.3h-.55c-.27 0-.49.24-.49.544 0 .3.22.547.5.547h.55v1.07c0 .195.05.39.14.56.103.19 1.954 3.473 6.666 5.24-.25.06-.43.154-.586.235-.2.11-.34.18-.67.18s-.475-.07-.67-.18c-.24-.13-.547-.29-1.1-.29s-.86.16-1.1.29c-.2.11-.34.18-.67.18s-.475-.07-.67-.18c-.24-.13-.546-.29-1.1-.29s-.86.16-1.1.29c-.2.11-.34.18-.67.18s-.475-.07-.67-.18c-.245-.13-.547-.29-1.1-.29-.27 0-.49.245-.49.55 0 .3.22.54.49.54.33 0 .473.08.67.18.245.13.547.29 1.1.29s.86-.16 1.1-.29c.2-.1.34-.18.67-.18s.476.077.674.18c.24.13.54.29 1.1.29.55 0 .852-.16 1.094-.29.2-.103.34-.18.67-.18s.477.076.675.18c.244.13.546.29 1.1.29s.86-.16 1.1-.29c.2-.105.34-.18.67-.18s.474.076.67.18c.245.13.546.29 1.1.29s.86-.16 1.1-.29c.2-.105.34-.18.67-.18s.474.08.67.18c.245.13.546.29 1.1.29s.86-.16 1.1-.29l.264-.12.7-.03c.15.034.25.09.38.16.24.13.54.29 1.1.29.323 0 .56-.06.752-.13l-.95 1.785-.28-.02c-.52 0-.798.16-1.02.29-.176.1-.29.17-.568.17-.278 0-.39-.068-.567-.168-.22-.13-.5-.29-1.02-.29s-.79.16-1.02.288c-.17.1-.29.17-.56.17-.277 0-.498.245-.498.546 0 .3.22.54.497.54.514 0 .793-.16 1.02-.285.17-.1.29-.165.563-.165.278 0 .39.066.567.166.23.13.51.29 1.02.29s.8-.16 1.02-.284c.18-.1.29-.166.57-.166.276 0 .39.066.566.166.223.127.5.286 1.02.286s.795-.16 1.02-.28c.173-.1.29-.17.565-.17.28 0 .39.068.57.168.22.13.5.29 1.02.29.27 0 .49-.24.49-.54 0-.3-.22-.54-.49-.54-.28 0-.39-.067-.57-.167-.224-.13-.503-.287-1.02-.287s-.796.16-1.02.288c-.174.1-.29.17-.566.17-.16 0-.264-.02-.36-.06l1.32-2.47c.14.03.25.084.374.15.24.13.542.29 1.1.29s.854-.16 1.1-.29c.2-.104.34-.18.67-.18s.47.075.67.18c.242.13.544.29 1.1.29.553 0 .86-.16 1.1-.29.2-.105.34-.18.67-.18s.472.074.67.18c.243.13.55.29 1.1.29.272 0 .492-.247.492-.55 0-.3-.22-.54-.49-.54-.33 0-.473-.073-.67-.18-.244-.13-.545-.29-1.1-.29s-.86.16-1.1.29c-.2.107-.34.18-.67.18s-.474-.073-.67-.18c-.244-.13-.546-.29-1.1-.29s-.86.16-1.1.29c-.2.107-.34.18-.67.18-.31 0-.46-.066-.64-.16 5.25-1.68 7.304-5.29 7.41-5.485zm-7.813 3.34c-1.457.487-3.238.827-5.378.827-4.408 0-7.29-1.44-8.933-2.65-.28-.2-.536-.41-.767-.61 1.965.63 5.004 1.11 9.7 1.11 2.553 0 4.616-.14 6.285-.37l-.9 1.7zm3.576-1.825c-.56.41-1.266.84-2.124 1.24l.707-1.33c.847-.16 1.57-.34 2.187-.54-.233.2-.49.41-.77.61zM7.916 94.49c.517 0 .796-.16 1.02-.287.174-.1.29-.166.566-.166.276 0 .39.066.566.166.224.128.503.287 1.02.287s.796-.16 1.02-.287c.174-.1.29-.166.566-.166.276 0 .392.068.566.168.224.128.503.287 1.02.287.516 0 .796-.16 1.02-.287.174-.1.29-.166.566-.166.276 0 .392.06.566.16.224.12.503.28 1.02.28.27 0 .493-.25.493-.55 0-.3-.22-.54-.494-.54s-.39-.07-.56-.17c-.22-.13-.5-.29-1.02-.29s-.79.16-1.02.29c-.17.1-.29.16-.56.16-.27 0-.39-.07-.56-.17-.22-.13-.5-.29-1.02-.29s-.79.16-1.02.29c-.17.1-.29.16-.56.16-.27 0-.39-.07-.56-.17-.22-.13-.5-.29-1.02-.29s-.79.16-1.02.29c-.17.1-.29.16-.56.16-.27 0-.49.24-.49.543 0 .3.22.545.49.545zm9.046.645c-.224-.13-.503-.29-1.02-.29s-.796.16-1.02.29c-.174.1-.29.165-.566.165-.276 0-.39-.066-.565-.166-.22-.13-.5-.29-1.02-.29s-.79.16-1.02.29c-.17.1-.29.165-.56.165-.27 0-.49.24-.49.54 0 .3.22.54.5.54.52 0 .8-.16 1.02-.29.18-.1.29-.17.57-.17.28 0 .39.06.57.16.23.13.51.29 1.02.29s.8-.16 1.02-.29c.18-.1.29-.17.57-.17.28 0 .39.06.57.16.23.13.51.29 1.02.29s.8-.16 1.02-.29c.18-.1.29-.17.57-.17.28 0 .39.06.57.16.23.13.51.29 1.02.29.27 0 .5-.24.5-.54 0-.3-.22-.54-.49-.54-.275 0-.39-.07-.564-.17-.223-.13-.502-.29-1.02-.29s-.795.16-1.02.29c-.173.1-.29.165-.565.165-.277 0-.39-.063-.567-.163zm3.276-10.624c.07.04.146.06.223.06.14 0 .26-.05.35-.16.15-.16.19-.42.1-.62-.05-.1-.12-.19-.22-.24-.08-.04-.18-.06-.27-.05l-.2.08-.09.08c-.15.17-.18.42-.09.63.05.11.13.19.22.24zm1.287 5.18c.07.04.145.06.223.06.13 0 .256-.05.348-.16.15-.16.188-.42.093-.63-.05-.1-.13-.19-.23-.24-.09-.04-.18-.06-.28-.05l-.2.08-.09.08c-.16.17-.19.43-.1.64.04.11.12.19.22.24zM9.912 85.75c.07.04.146.06.223.06.13 0 .256-.06.35-.16.15-.166.187-.42.092-.628-.048-.105-.126-.19-.222-.243-.085-.05-.18-.07-.276-.06l-.21.08-.09.07c-.16.16-.19.42-.1.63.04.1.12.18.21.24zm4.42 2.482l.41.247.225.45c.087.17.253.28.433.28s.346-.11.433-.29l.224-.45.41-.25c.158-.1.257-.28.257-.48 0-.2-.1-.38-.257-.48l-.41-.25-.224-.46c-.087-.17-.252-.28-.433-.28-.18 0-.346.11-.433.28l-.224.45-.41.24c-.158.1-.256.28-.256.48 0 .2.098.38.256.48z" fill="#fff"/><path d="M30.317 58.464c.094-.17.143-.365.143-.564v-1.43c0-.334.246-.604.548-.604.545 0 .987-.486.987-1.087 0-.6-.44-1.09-.987-1.09-1.278 0-2.336 1.05-2.498 2.41-.188.21-.81.76-2.49 1.25l2.41-4.52c.137-.26.06-.59-.176-.75-.235-.15-.537-.07-.675.19l-2.88 5.4c-.43.09-.91.17-1.43.24l2.21-4.16c.14-.26.06-.6-.18-.75-.24-.15-.54-.07-.68.19l-2.59 4.854c-1.35.14-2.98.222-4.92.222-8.74 0-10.9-1.71-11.33-2.168v-3.3c0-1.53-1.13-2.778-2.52-2.778-.55 0-.99.486-.99 1.086 0 .61.44 1.09.98 1.09.3 0 .54.27.54.61v.13h-.54c-.27 0-.49.25-.49.55 0 .3.22.543.49.543h.55v.306h-.55c-.27 0-.49.24-.49.54 0 .3.22.547.5.547h.55v.3h-.55c-.27 0-.49.24-.49.544 0 .3.22.547.5.547h.55v1.07c0 .195.05.39.14.56.103.19 1.954 3.473 6.666 5.24-.25.06-.43.154-.586.235-.2.11-.34.18-.67.18s-.475-.07-.67-.18c-.24-.13-.547-.29-1.1-.29s-.86.16-1.1.29c-.2.11-.34.18-.67.18s-.475-.07-.67-.18c-.24-.13-.546-.29-1.1-.29s-.86.16-1.1.29c-.2.11-.34.18-.67.18s-.475-.07-.67-.18c-.245-.13-.547-.29-1.1-.29-.27 0-.49.245-.49.55 0 .3.22.54.49.54.33 0 .473.08.67.18.245.13.547.29 1.1.29s.86-.16 1.1-.29c.2-.1.34-.18.67-.18s.476.077.674.18c.24.13.54.29 1.1.29.55 0 .852-.16 1.094-.29.2-.103.34-.18.67-.18s.477.076.675.18c.244.13.546.29 1.1.29s.86-.16 1.1-.29c.2-.105.34-.18.67-.18s.474.076.67.18c.245.13.546.29 1.1.29s.86-.16 1.1-.29c.2-.105.34-.18.67-.18s.474.08.67.18c.245.13.546.29 1.1.29s.86-.16 1.1-.29l.264-.12.7-.03c.15.034.25.09.38.16.24.13.54.29 1.1.29.323 0 .56-.06.752-.13l-.95 1.785-.28-.02c-.52 0-.798.16-1.02.29-.176.1-.29.17-.568.17-.278 0-.39-.068-.567-.168-.22-.13-.5-.29-1.02-.29s-.79.16-1.02.288c-.17.1-.29.17-.56.17-.277 0-.498.245-.498.546 0 .3.22.54.497.54.514 0 .793-.16 1.02-.285.17-.1.29-.165.563-.165.278 0 .39.066.567.166.23.13.51.29 1.02.29s.8-.16 1.02-.284c.18-.1.29-.166.57-.166.276 0 .39.066.566.166.223.127.5.286 1.02.286s.795-.16 1.02-.28c.173-.1.29-.17.565-.17.28 0 .39.068.57.168.22.13.5.29 1.02.29.27 0 .49-.24.49-.54 0-.3-.22-.54-.49-.54-.28 0-.39-.067-.57-.167-.224-.13-.503-.287-1.02-.287s-.796.16-1.02.288c-.174.1-.29.17-.566.17-.16 0-.264-.02-.36-.06l1.32-2.47c.14.03.25.084.374.15.24.13.542.29 1.1.29s.854-.16 1.1-.29c.2-.104.34-.18.67-.18s.47.075.67.18c.242.13.544.29 1.1.29.553 0 .86-.16 1.1-.29.2-.105.34-.18.67-.18s.472.074.67.18c.243.13.55.29 1.1.29.272 0 .492-.247.492-.55 0-.3-.22-.54-.49-.54-.33 0-.473-.073-.67-.18-.244-.13-.545-.29-1.1-.29s-.86.16-1.1.29c-.2.107-.34.18-.67.18s-.474-.073-.67-.18c-.244-.13-.546-.29-1.1-.29s-.86.16-1.1.29c-.2.107-.34.18-.67.18-.31 0-.46-.066-.64-.16 5.25-1.68 7.304-5.29 7.41-5.485zm-7.813 3.34c-1.457.487-3.238.827-5.378.827-4.408 0-7.29-1.44-8.933-2.65-.28-.2-.536-.41-.767-.61 1.965.63 5.004 1.11 9.7 1.11 2.553 0 4.616-.14 6.285-.37l-.9 1.7zm3.576-1.825c-.56.41-1.266.84-2.124 1.24l.707-1.33c.847-.16 1.57-.34 2.187-.54-.233.2-.49.41-.77.61zM7.916 54.49c.517 0 .796-.16 1.02-.287.174-.1.29-.166.566-.166.276 0 .39.066.566.166.224.128.503.287 1.02.287s.796-.16 1.02-.287c.174-.1.29-.166.566-.166.276 0 .392.068.566.168.224.128.503.287 1.02.287.516 0 .796-.16 1.02-.287.174-.1.29-.166.566-.166.276 0 .392.06.566.16.224.12.503.28 1.02.28.27 0 .493-.25.493-.55 0-.3-.22-.54-.494-.54s-.39-.07-.56-.17c-.22-.13-.5-.29-1.02-.29s-.79.16-1.02.29c-.17.1-.29.16-.56.16-.27 0-.39-.07-.56-.17-.22-.13-.5-.29-1.02-.29s-.79.16-1.02.29c-.17.1-.29.16-.56.16-.27 0-.39-.07-.56-.17-.22-.13-.5-.29-1.02-.29s-.79.16-1.02.29c-.17.1-.29.16-.56.16-.27 0-.49.24-.49.543 0 .3.22.545.49.545zm9.046.645c-.224-.13-.503-.29-1.02-.29s-.796.16-1.02.29c-.174.1-.29.165-.566.165-.276 0-.39-.066-.565-.166-.22-.13-.5-.29-1.02-.29s-.79.16-1.02.29c-.17.1-.29.165-.56.165-.27 0-.49.24-.49.54 0 .3.22.54.5.54.52 0 .8-.16 1.02-.29.18-.1.29-.17.57-.17.28 0 .39.06.57.16.23.13.51.29 1.02.29s.8-.16 1.02-.29c.18-.1.29-.17.57-.17.28 0 .39.06.57.16.23.13.51.29 1.02.29s.8-.16 1.02-.29c.18-.1.29-.17.57-.17.28 0 .39.06.57.16.23.13.51.29 1.02.29.27 0 .5-.24.5-.54 0-.3-.22-.54-.49-.54-.275 0-.39-.07-.564-.17-.223-.13-.502-.29-1.02-.29s-.795.16-1.02.29c-.173.1-.29.165-.565.165-.277 0-.39-.063-.567-.163zm3.276-10.624c.07.04.146.06.223.06.14 0 .26-.05.35-.16.15-.16.19-.42.1-.62-.05-.1-.12-.19-.22-.24-.08-.04-.18-.06-.27-.05l-.2.08-.09.08c-.15.17-.18.42-.09.63.05.11.13.19.22.24zm1.287 5.18c.07.04.145.06.223.06.13 0 .256-.05.348-.16.15-.16.188-.42.093-.63-.05-.1-.13-.19-.23-.24-.09-.04-.18-.06-.28-.05l-.2.08-.09.08c-.16.17-.19.43-.1.64.04.11.12.19.22.24zM9.912 45.75c.07.04.146.06.223.06.13 0 .256-.06.35-.16.15-.166.187-.42.092-.628-.048-.105-.126-.19-.222-.243-.085-.05-.18-.07-.276-.06l-.21.08-.09.07c-.16.16-.19.42-.1.63.04.1.12.18.21.24zm4.42 2.482l.41.247.225.45c.087.17.253.28.433.28s.346-.11.433-.29l.224-.45.41-.25c.158-.1.257-.28.257-.48 0-.2-.1-.38-.257-.48l-.41-.25-.224-.46c-.087-.17-.252-.28-.433-.28-.18 0-.346.11-.433.28l-.224.45-.41.24c-.158.1-.256.28-.256.48 0 .2.098.38.256.48z" fill="#67737B"/><path d="M30.317 18.464c.094-.17.143-.365.143-.564v-1.43c0-.334.246-.604.548-.604.545 0 .987-.486.987-1.087 0-.6-.44-1.09-.987-1.09-1.278 0-2.336 1.05-2.498 2.41-.188.21-.81.76-2.49 1.25l2.41-4.52c.137-.26.06-.59-.176-.75-.235-.15-.537-.07-.675.19l-2.88 5.4c-.43.09-.91.17-1.43.24l2.21-4.16c.14-.26.06-.6-.18-.75-.24-.15-.54-.07-.68.19l-2.59 4.854c-1.35.14-2.98.222-4.92.222-8.74 0-10.9-1.71-11.33-2.168v-3.3c0-1.53-1.13-2.778-2.52-2.778-.55 0-.99.486-.99 1.086 0 .61.44 1.09.98 1.09.3 0 .54.27.54.61v.13h-.54c-.27 0-.49.25-.49.55 0 .3.22.543.49.543h.55v.306h-.55c-.27 0-.49.24-.49.54 0 .3.22.547.5.547h.55v.3h-.55c-.27 0-.49.24-.49.544 0 .3.22.547.5.547h.55v1.07c0 .195.05.39.14.56.103.19 1.954 3.473 6.666 5.24-.25.06-.43.154-.586.235-.2.11-.34.18-.67.18s-.475-.07-.67-.18c-.24-.13-.547-.29-1.1-.29s-.86.16-1.1.29c-.2.11-.34.18-.67.18s-.475-.07-.67-.18c-.24-.13-.546-.29-1.1-.29s-.86.16-1.1.29c-.2.11-.34.18-.67.18s-.475-.07-.67-.18c-.245-.13-.547-.29-1.1-.29-.27 0-.49.245-.49.55 0 .3.22.54.49.54.33 0 .473.08.67.18.245.13.547.29 1.1.29s.86-.16 1.1-.29c.2-.1.34-.18.67-.18s.476.077.674.18c.24.13.54.29 1.1.29.55 0 .852-.16 1.094-.29.2-.103.34-.18.67-.18s.477.076.675.18c.244.13.546.29 1.1.29s.86-.16 1.1-.29c.2-.105.34-.18.67-.18s.474.076.67.18c.245.13.546.29 1.1.29s.86-.16 1.1-.29c.2-.105.34-.18.67-.18s.474.08.67.18c.245.13.546.29 1.1.29s.86-.16 1.1-.29l.264-.12.7-.03c.15.034.25.09.38.16.24.13.54.29 1.1.29.323 0 .56-.06.752-.13l-.95 1.785-.28-.02c-.52 0-.798.16-1.02.29-.176.1-.29.17-.568.17-.278 0-.39-.068-.567-.168-.22-.13-.5-.29-1.02-.29s-.79.16-1.02.288c-.17.1-.29.17-.56.17-.277 0-.498.245-.498.546 0 .3.22.54.497.54.514 0 .793-.16 1.02-.285.17-.1.29-.165.563-.165.278 0 .39.066.567.166.23.13.51.29 1.02.29s.8-.16 1.02-.284c.18-.1.29-.166.57-.166.276 0 .39.066.566.166.223.127.5.286 1.02.286s.795-.16 1.02-.28c.173-.1.29-.17.565-.17.28 0 .39.068.57.168.22.13.5.29 1.02.29.27 0 .49-.24.49-.54 0-.3-.22-.54-.49-.54-.28 0-.39-.067-.57-.167-.224-.13-.503-.287-1.02-.287s-.796.16-1.02.288c-.174.1-.29.17-.566.17-.16 0-.264-.02-.36-.06l1.32-2.47c.14.03.25.084.374.15.24.13.542.29 1.1.29s.854-.16 1.1-.29c.2-.104.34-.18.67-.18s.47.075.67.18c.242.13.544.29 1.1.29.553 0 .86-.16 1.1-.29.2-.105.34-.18.67-.18s.472.074.67.18c.243.13.55.29 1.1.29.272 0 .492-.247.492-.55 0-.3-.22-.54-.49-.54-.33 0-.473-.073-.67-.18-.244-.13-.545-.29-1.1-.29s-.86.16-1.1.29c-.2.107-.34.18-.67.18s-.474-.073-.67-.18c-.244-.13-.546-.29-1.1-.29s-.86.16-1.1.29c-.2.107-.34.18-.67.18-.31 0-.46-.066-.64-.16 5.25-1.68 7.304-5.29 7.41-5.485zm-7.813 3.34c-1.457.487-3.238.827-5.378.827-4.408 0-7.29-1.44-8.933-2.65-.28-.2-.536-.41-.767-.61 1.965.63 5.004 1.11 9.7 1.11 2.553 0 4.616-.14 6.285-.37l-.9 1.7zm3.576-1.825c-.56.41-1.266.84-2.124 1.24l.707-1.33c.847-.16 1.57-.34 2.187-.54-.233.2-.49.41-.77.61zM7.916 14.49c.517 0 .796-.16 1.02-.287.174-.1.29-.166.566-.166.276 0 .39.066.566.166.224.128.503.287 1.02.287s.796-.16 1.02-.287c.174-.1.29-.166.566-.166.276 0 .392.068.566.168.224.128.503.287 1.02.287.516 0 .796-.16 1.02-.287.174-.1.29-.166.566-.166.276 0 .392.06.566.16.224.12.503.28 1.02.28.27 0 .493-.25.493-.55 0-.3-.22-.54-.494-.54s-.39-.07-.56-.17c-.22-.13-.5-.29-1.02-.29s-.79.16-1.02.29c-.17.1-.29.16-.56.16-.27 0-.39-.07-.56-.17-.22-.13-.5-.29-1.02-.29s-.79.16-1.02.29c-.17.1-.29.16-.56.16-.27 0-.39-.07-.56-.17-.22-.13-.5-.29-1.02-.29s-.79.16-1.02.29c-.17.1-.29.16-.56.16-.27 0-.49.24-.49.543 0 .3.22.545.49.545zm9.046.645c-.224-.13-.503-.29-1.02-.29s-.796.16-1.02.29c-.174.1-.29.165-.566.165-.276 0-.39-.066-.565-.166-.22-.13-.5-.29-1.02-.29s-.79.16-1.02.29c-.17.1-.29.165-.56.165-.27 0-.49.24-.49.54 0 .3.22.54.5.54.52 0 .8-.16 1.02-.29.18-.1.29-.17.57-.17.28 0 .39.06.57.16.23.13.51.29 1.02.29s.8-.16 1.02-.29c.18-.1.29-.17.57-.17.28 0 .39.06.57.16.23.13.51.29 1.02.29s.8-.16 1.02-.29c.18-.1.29-.17.57-.17.28 0 .39.06.57.16.23.13.51.29 1.02.29.27 0 .5-.24.5-.54 0-.3-.22-.54-.49-.54-.275 0-.39-.07-.564-.17-.223-.13-.502-.29-1.02-.29s-.795.16-1.02.29c-.173.1-.29.165-.565.165-.277 0-.39-.063-.567-.163zM20.238 4.51c.07.04.146.06.223.06.14 0 .26-.057.35-.16.15-.165.19-.42.1-.627-.05-.106-.12-.192-.22-.244-.08-.05-.18-.07-.27-.06l-.2.08-.09.07c-.15.16-.18.42-.09.63.05.1.13.18.22.24zm1.287 5.178c.07.04.145.06.223.06.13 0 .256-.057.348-.16.15-.165.188-.42.093-.63-.05-.103-.13-.19-.23-.24-.09-.047-.18-.066-.28-.054l-.2.078-.09.076c-.16.168-.19.423-.1.634.04.103.12.186.22.24zM9.912 5.75c.07.04.146.06.223.06.13 0 .256-.06.35-.16.15-.166.187-.42.092-.628-.048-.105-.126-.19-.222-.243-.085-.05-.18-.07-.276-.06l-.21.08-.09.07c-.16.16-.19.42-.1.63.04.1.12.18.21.24zm4.42 2.482l.41.247.225.45c.087.17.253.28.433.28s.346-.11.433-.29l.224-.45.41-.25c.158-.1.257-.28.257-.48 0-.2-.1-.38-.257-.48l-.41-.25-.224-.46c-.087-.17-.252-.28-.433-.28-.18 0-.346.11-.433.28l-.224.45-.41.24c-.158.1-.256.28-.256.48 0 .2.098.38.256.48z" fill="#3A434E"/></g></svg>