<svg width="32" height="232" viewBox="0 0 32 232" xmlns="http://www.w3.org/2000/svg" xmlns:sketch="http://www.bohemiancoding.com/sketch/ns"><title>florence</title><desc>Created with Sketch.</desc><g sketch:type="MSPage" fill="none"><g sketch:type="MSShapeGroup"><path d="M23.017 134.748c-.557 0-1.008.472-1.008 1.055s.451 1.056 1.008 1.056c.556 0 1.008-.473 1.008-1.056 0-.583-.452-1.055-1.008-1.055zm4.389 10.62c-.132 0-.256.036-.365.098-.223.129-.377.373-.39.655v.494h1.509v-.494c-.019-.419-.349-.753-.754-.753zm-4.357-1.729c-.405 0-.736.334-.755.753v4.572h1.509v-4.572c-.019-.419-.35-.753-.755-.753zm-3.742 2.976v-.494c-.009-.211-.097-.4-.235-.536-.135-.135-.318-.218-.52-.218-.405 0-.736.334-.754.753v.494h1.509zm-9.909-1.911c.379 0 .686-.322.686-.718 0-.397-.307-.718-.686-.718-.379 0-.686.322-.686.718 0 .397.307.718.686.718zm4.629 0c.379 0 .686-.322.686-.718 0-.397-.307-.718-.686-.718-.379 0-.685.322-.685.718 0 .397.307.718.685.718zm-9.274 0c.379 0 .685-.322.685-.718 0-.397-.307-.718-.685-.718-.379 0-.686.322-.686.718 0 .397.307.718.686.718m-1.097-12.748c.304.281.694.436 1.099.436h2.039c-.042.14-.065.287-.065.438 0 .423.174.826.478 1.107.259.239.589.369.932.369h5.614c.778 0 1.41-.662 1.41-1.476 0-.813-.632-1.475-1.41-1.475h-.535c.091-.216.143-.453.143-.703 0-.96-.746-1.741-1.663-1.741h-6.943c-.405 0-.795.155-1.099.436-.359.331-.564.806-.564 1.305 0 .498.205.974.564 1.305zm.655-1.832c.124-.114.281-.176.444-.176h6.943c.37 0 .672.315.672.703 0 .388-.302.703-.672.703-.274 0-.496.232-.496.518h-.003c0 .286.222.519.496.519h2.058c.231 0 .419.196.419.438s-.188.438-.419.438h-5.614c-.13 0-.222-.06-.276-.11-.092-.085-.143-.201-.143-.328 0-.126.051-.243.143-.328.055-.05.147-.11.277-.11h.003c.274 0 .496-.233.496-.519 0-.286-.222-.518-.496-.518h-3.387c-.163 0-.32-.063-.444-.177-.145-.134-.228-.326-.228-.526s.083-.392.228-.526zm26.679 19.728h-.39v-7.308l-.001-.048c-.051-1.146-.658-2.165-1.574-2.729v-6.831l-.007-.116-.006-.036-.013-.078-.002-.014c-.013-.214-.036-.426-.068-.634v-.004l-.034-.203-.001-.006-.039-.199-.002-.008-.045-.196-.002-.009-.05-.194-.002-.009-.055-.192-.002-.009-.061-.191-.002-.007-.066-.191-.001-.005-.071-.191-.001-.002c-.218-.564-.492-1.099-.799-1.602-.922-1.508-2.137-2.714-3.006-3.468l-.003-.003-.094-.082-.005-.004-.089-.076-.007-.006-.083-.07-.009-.008-.078-.063-.011-.01-.071-.058-.016-.013-.022-.017v-1.734c0-.287-.222-.519-.496-.519h-.179v-.883l-.003-.032.047-.09.213-.122c.159-.091.258-.265.258-.455s-.099-.364-.258-.455l-.213-.122-.117-.223c-.087-.166-.254-.27-.435-.27s-.348.103-.435.27l-.116.223-.213.122c-.159.092-.258.266-.258.455 0 .19.099.364.258.455l.213.122.068.129v.876h-.136c-.274 0-.496.232-.496.519v1.733c-1.383 1.112-4.659 4.13-4.806 7.864l-.005.109v4.337h-11.679c-.273 0-.533.118-.721.325l-3.271 3.622c-.174.193-.271.448-.271.713v7.919h-.142c-.547 0-.991.464-.991 1.037s.444 1.038.991 1.038h29.984c.547 0 .991-.465.991-1.038s-.444-1.037-.991-1.037zm-14.123-7.296c.014-.288.094-.558.223-.794.295-.539.849-.9 1.483-.9.173 0 .341.028.499.077.672.214 1.17.847 1.209 1.616v.911h-3.414v-.911zm0 3.191v-1.243h3.414v5.317h-3.414v-4.075zm4.541-12.198h3.239v5.231c-.454-.359-1.018-.572-1.63-.572-.602 0-1.159.206-1.609.556v-5.215zm1.609 5.698c.764 0 1.412.523 1.63 1.252v1.352h-3.239v-1.422c.237-.693.869-1.182 1.609-1.182zm-1.609 9.977v-6.336h3.239v6.934h-3.239v-.598zm-9.199-2.959h3.665v3.556h-3.665v-3.556zm-4.559 0h3.569v3.556h-3.569v-3.556zm-4.519 0h3.529v3.556h-3.529v-3.556zm25.982 3.559l-.046-.003h-3.351v-5.317h3.398v5.32zm0-6.358h-3.398v-1.08c.105-.741.639-1.326 1.326-1.482l.098-.018.267-.023c.75 0 1.388.504 1.618 1.212.049.152.08.313.089.481v.911zm-3.446-2.979l-.029-.139v-6.8h1.404v6.303c-.519.073-.992.3-1.374.637zm.18-7.977c-.063-1.386-.345-2.668-.696-3.764.886 1.09 1.66 2.404 1.836 3.764h-1.14zm-3.067-5.626l.27-.225.27.227c.606 1.23 1.417 3.282 1.536 5.625h-3.613c.119-2.339.931-4.394 1.538-5.626zm-3.708 11.618v-4.953h1.345v6.722l-.057.259c-.358-.33-.8-.561-1.288-.656v-1.371zm-3.197 4.041v2.684h-3.666v-2.776h3.666v.092zm-8.225-.092h3.569v2.776h-3.569v-2.776zm-4.519 0h3.529v2.776h-3.529v-2.776zm19.762-18.703h.315v.6c-.104-.018-.21-.018-.315 0v-.6zm-2.548 5.787l.148-.212.001-.002c.148-.204.301-.402.457-.591-.353 1.099-.637 2.387-.701 3.779h-1.14l.005-.042.01-.069.033-.195.012-.062.044-.199.013-.054.056-.203.014-.047.067-.207.014-.041.077-.21.015-.035.088-.212.014-.03.098-.214.013-.025.108-.214.011-.02.117-.215.009-.016.126-.215.007-.012.134-.214.006-.009.141-.212.003-.005zm-3.255 9.812v.941c-.404.278-.732.666-.945 1.125h-12.173l1.866-2.066h11.253z" fill="#206FAC"/><path d="M23.017 94.748c-.557 0-1.008.472-1.008 1.055s.451 1.056 1.008 1.056c.556 0 1.008-.473 1.008-1.056 0-.583-.452-1.055-1.008-1.055zm4.389 10.62c-.132 0-.256.036-.365.098-.223.129-.377.373-.39.655v.494h1.509v-.494c-.019-.419-.349-.753-.754-.753zm-4.357-1.729c-.405 0-.736.334-.755.753v4.572h1.509v-4.572c-.019-.419-.35-.753-.755-.753zm-3.742 2.976v-.494c-.009-.211-.097-.4-.235-.536-.135-.135-.318-.218-.52-.218-.405 0-.736.334-.754.753v.494h1.509zm-9.909-1.911c.379 0 .686-.322.686-.718 0-.397-.307-.718-.686-.718-.379 0-.686.322-.686.718 0 .397.307.718.686.718zm4.629 0c.379 0 .686-.322.686-.718 0-.397-.307-.718-.686-.718-.379 0-.685.322-.685.718 0 .397.307.718.685.718zm-9.274 0c.379 0 .685-.322.685-.718 0-.397-.307-.718-.685-.718-.379 0-.686.322-.686.718 0 .397.307.718.686.718m-1.097-12.748c.304.281.694.436 1.099.436h2.039c-.042.14-.065.287-.065.438 0 .423.174.826.478 1.107.259.239.589.369.932.369h5.614c.778 0 1.41-.662 1.41-1.476 0-.813-.632-1.475-1.41-1.475h-.535c.091-.216.143-.453.143-.703 0-.96-.746-1.741-1.663-1.741h-6.943c-.405 0-.795.155-1.099.436-.359.331-.564.806-.564 1.305 0 .498.205.974.564 1.305zm.655-1.832c.124-.114.281-.176.444-.176h6.943c.37 0 .672.315.672.703 0 .388-.302.703-.672.703-.274 0-.496.232-.496.518h-.003c0 .286.222.519.496.519h2.058c.231 0 .419.196.419.438s-.188.438-.419.438h-5.614c-.13 0-.222-.06-.276-.11-.092-.085-.143-.201-.143-.328 0-.126.051-.243.143-.328.055-.05.147-.11.277-.11h.003c.274 0 .496-.233.496-.519 0-.286-.222-.518-.496-.518h-3.387c-.163 0-.32-.063-.444-.177-.145-.134-.228-.326-.228-.526s.083-.392.228-.526zm26.679 19.728h-.39v-7.308l-.001-.048c-.051-1.146-.658-2.165-1.574-2.729v-6.831l-.007-.116-.006-.036-.013-.078-.002-.014c-.013-.214-.036-.426-.068-.634v-.004l-.034-.203-.001-.006-.039-.199-.002-.008-.045-.196-.002-.009-.05-.194-.002-.009-.055-.192-.002-.009-.061-.191-.002-.007-.066-.191-.001-.005-.071-.191-.001-.002c-.218-.564-.492-1.099-.799-1.602-.922-1.508-2.137-2.714-3.006-3.468l-.003-.003-.094-.082-.005-.004-.089-.076-.007-.006-.083-.07-.009-.008-.078-.063-.011-.01-.071-.058-.016-.013-.022-.017v-1.734c0-.287-.222-.519-.496-.519h-.179v-.883l-.003-.032.047-.09.213-.122c.159-.091.258-.265.258-.455s-.099-.364-.258-.455l-.213-.122-.117-.223c-.087-.166-.254-.27-.435-.27s-.348.103-.435.27l-.116.223-.213.122c-.159.092-.258.266-.258.455 0 .19.099.364.258.455l.213.122.068.129v.876h-.136c-.274 0-.496.232-.496.519v1.733c-1.383 1.112-4.659 4.13-4.806 7.864l-.005.109v4.337h-11.679c-.273 0-.533.118-.721.325l-3.271 3.622c-.174.193-.271.448-.271.713v7.919h-.142c-.547 0-.991.464-.991 1.037s.444 1.038.991 1.038h29.984c.547 0 .991-.465.991-1.038s-.444-1.037-.991-1.037zm-14.123-7.296c.014-.288.094-.558.223-.794.295-.539.849-.9 1.483-.9.173 0 .341.028.499.077.672.214 1.17.847 1.209 1.616v.911h-3.414v-.911zm0 3.191v-1.243h3.414v5.317h-3.414v-4.075zm4.541-12.198h3.239v5.231c-.454-.359-1.018-.572-1.63-.572-.602 0-1.159.206-1.609.556v-5.215zm1.609 5.698c.764 0 1.412.523 1.63 1.252v1.352h-3.239v-1.422c.237-.693.869-1.182 1.609-1.182zm-1.609 9.977v-6.336h3.239v6.934h-3.239v-.598zm-9.199-2.959h3.665v3.556h-3.665v-3.556zm-4.559 0h3.569v3.556h-3.569v-3.556zm-4.519 0h3.529v3.556h-3.529v-3.556zm25.982 3.559l-.046-.003h-3.351v-5.317h3.398v5.32zm0-6.358h-3.398v-1.08c.105-.741.639-1.326 1.326-1.482l.098-.018.267-.023c.75 0 1.388.504 1.618 1.212.049.152.08.313.089.481v.911zm-3.446-2.979l-.029-.139v-6.8h1.404v6.303c-.519.073-.992.3-1.374.637zm.18-7.977c-.063-1.386-.345-2.668-.696-3.764.886 1.09 1.66 2.404 1.836 3.764h-1.14zm-3.067-5.626l.27-.225.27.227c.606 1.23 1.417 3.282 1.536 5.625h-3.613c.119-2.339.931-4.394 1.538-5.626zm-3.708 11.618v-4.953h1.345v6.722l-.057.259c-.358-.33-.8-.561-1.288-.656v-1.371zm-3.197 4.041v2.684h-3.666v-2.776h3.666v.092zm-8.225-.092h3.569v2.776h-3.569v-2.776zm-4.519 0h3.529v2.776h-3.529v-2.776zm19.762-18.703h.315v.6c-.104-.018-.21-.018-.315 0v-.6zm-2.548 5.787l.148-.212.001-.002c.148-.204.301-.402.457-.591-.353 1.099-.637 2.387-.701 3.779h-1.14l.005-.042.01-.069.033-.195.012-.062.044-.199.013-.054.056-.203.014-.047.067-.207.014-.041.077-.21.015-.035.088-.212.014-.03.098-.214.013-.025.108-.214.011-.02.117-.215.009-.016.126-.215.007-.012.134-.214.006-.009.141-.212.003-.005zm-3.255 9.812v.941c-.404.278-.732.666-.945 1.125h-12.173l1.866-2.066h11.253z" fill="#fff"/><path d="M23.017 54.748c-.557 0-1.008.472-1.008 1.055s.451 1.056 1.008 1.056c.556 0 1.008-.473 1.008-1.056 0-.583-.452-1.055-1.008-1.055zm4.389 10.62c-.132 0-.256.036-.365.098-.223.129-.377.373-.39.655v.494h1.509v-.494c-.019-.419-.349-.753-.754-.753zm-4.357-1.729c-.405 0-.736.334-.755.753v4.572h1.509v-4.572c-.019-.419-.35-.753-.755-.753zm-3.742 2.976v-.494c-.009-.211-.097-.4-.235-.536-.135-.135-.318-.218-.52-.218-.405 0-.736.334-.754.753v.494h1.509zm-9.909-1.911c.379 0 .686-.322.686-.718 0-.397-.307-.718-.686-.718-.379 0-.686.322-.686.718 0 .397.307.718.686.718zm4.629 0c.379 0 .686-.322.686-.718 0-.397-.307-.718-.686-.718-.379 0-.685.322-.685.718 0 .397.307.718.685.718zm-9.274 0c.379 0 .685-.322.685-.718 0-.397-.307-.718-.685-.718-.379 0-.686.322-.686.718 0 .397.307.718.686.718m-1.097-12.748c.304.281.694.436 1.099.436h2.039c-.042.14-.065.287-.065.438 0 .423.174.826.478 1.107.259.239.589.369.932.369h5.614c.778 0 1.41-.662 1.41-1.476 0-.813-.632-1.475-1.41-1.475h-.535c.091-.216.143-.453.143-.703 0-.96-.746-1.741-1.663-1.741h-6.943c-.405 0-.795.155-1.099.436-.359.331-.564.806-.564 1.305 0 .498.205.974.564 1.305zm.655-1.832c.124-.114.281-.176.444-.176h6.943c.37 0 .672.315.672.703 0 .388-.302.703-.672.703-.274 0-.496.232-.496.518h-.003c0 .286.222.519.496.519h2.058c.231 0 .419.196.419.438s-.188.438-.419.438h-5.614c-.13 0-.222-.06-.276-.11-.092-.085-.143-.201-.143-.328 0-.126.051-.243.143-.328.055-.05.147-.11.277-.11h.003c.274 0 .496-.233.496-.519 0-.286-.222-.518-.496-.518h-3.387c-.163 0-.32-.063-.444-.177-.145-.134-.228-.326-.228-.526s.083-.392.228-.526zm26.679 19.728h-.39v-7.308l-.001-.048c-.051-1.146-.658-2.165-1.574-2.729v-6.831l-.007-.116-.006-.036-.013-.078-.002-.014c-.013-.214-.036-.426-.068-.634v-.004l-.034-.203-.001-.006-.039-.199-.002-.008-.045-.196-.002-.009-.05-.194-.002-.009-.055-.192-.002-.009-.061-.191-.002-.007-.066-.191-.001-.005-.071-.191-.001-.002c-.218-.564-.492-1.099-.799-1.602-.922-1.508-2.137-2.714-3.006-3.468l-.003-.003-.094-.082-.005-.004-.089-.076-.007-.006-.083-.07-.009-.008-.078-.063-.011-.01-.071-.058-.016-.013-.022-.017v-1.734c0-.287-.222-.519-.496-.519h-.179v-.883l-.003-.032.047-.09.213-.122c.159-.091.258-.265.258-.455s-.099-.364-.258-.455l-.213-.122-.117-.223c-.087-.166-.254-.27-.435-.27s-.348.103-.435.27l-.116.223-.213.122c-.159.092-.258.266-.258.455 0 .19.099.364.258.455l.213.122.068.129v.876h-.136c-.274 0-.496.232-.496.519v1.733c-1.383 1.112-4.659 4.13-4.806 7.864l-.005.109v4.337h-11.679c-.273 0-.533.118-.721.325l-3.271 3.622c-.174.193-.271.448-.271.713v7.919h-.142c-.547 0-.991.464-.991 1.037s.444 1.038.991 1.038h29.984c.547 0 .991-.465.991-1.038s-.444-1.037-.991-1.037zm-14.123-7.296c.014-.288.094-.558.223-.794.295-.539.849-.9 1.483-.9.173 0 .341.028.499.077.672.214 1.17.847 1.209 1.616v.911h-3.414v-.911zm0 3.191v-1.243h3.414v5.317h-3.414v-4.075zm4.541-12.198h3.239v5.231c-.454-.359-1.018-.572-1.63-.572-.602 0-1.159.206-1.609.556v-5.215zm1.609 5.698c.764 0 1.412.523 1.63 1.252v1.352h-3.239v-1.422c.237-.693.869-1.182 1.609-1.182zm-1.609 9.977v-6.336h3.239v6.934h-3.239v-.598zm-9.199-2.959h3.665v3.556h-3.665v-3.556zm-4.559 0h3.569v3.556h-3.569v-3.556zm-4.519 0h3.529v3.556h-3.529v-3.556zm25.982 3.559l-.046-.003h-3.351v-5.317h3.398v5.32zm0-6.358h-3.398v-1.08c.105-.741.639-1.326 1.326-1.482l.098-.018.267-.023c.75 0 1.388.504 1.618 1.212.049.152.08.313.089.481v.911zm-3.446-2.979l-.029-.139v-6.8h1.404v6.303c-.519.073-.992.3-1.374.637zm.18-7.977c-.063-1.386-.345-2.668-.696-3.764.886 1.09 1.66 2.404 1.836 3.764h-1.14zm-3.067-5.626l.27-.225.27.227c.606 1.23 1.417 3.282 1.536 5.625h-3.613c.119-2.339.931-4.394 1.538-5.626zm-3.708 11.618v-4.953h1.345v6.722l-.057.259c-.358-.33-.8-.561-1.288-.656v-1.371zm-3.197 4.041v2.684h-3.666v-2.776h3.666v.092zm-8.225-.092h3.569v2.776h-3.569v-2.776zm-4.519 0h3.529v2.776h-3.529v-2.776zm19.762-18.703h.315v.6c-.104-.018-.21-.018-.315 0v-.6zm-2.548 5.787l.148-.212.001-.002c.148-.204.301-.402.457-.591-.353 1.099-.637 2.387-.701 3.779h-1.14l.005-.042.01-.069.033-.195.012-.062.044-.199.013-.054.056-.203.014-.047.067-.207.014-.041.077-.21.015-.035.088-.212.014-.03.098-.214.013-.025.108-.214.011-.02.117-.215.009-.016.126-.215.007-.012.134-.214.006-.009.141-.212.003-.005zm-3.255 9.812v.941c-.404.278-.732.666-.945 1.125h-12.173l1.866-2.066h11.253z" fill="#67737B"/><path d="M23.017 14.748c-.557 0-1.008.472-1.008 1.055s.451 1.056 1.008 1.056c.556 0 1.008-.473 1.008-1.056 0-.583-.452-1.055-1.008-1.055zm4.389 10.62c-.132 0-.256.036-.365.098-.223.129-.377.373-.39.655v.494h1.509v-.494c-.019-.419-.349-.753-.754-.753zm-4.357-1.729c-.405 0-.736.334-.755.753v4.572h1.509v-4.572c-.019-.419-.35-.753-.755-.753zm-3.742 2.976v-.494c-.009-.211-.097-.4-.235-.536-.135-.135-.318-.218-.52-.218-.405 0-.736.334-.754.753v.494h1.509zm-9.909-1.911c.379 0 .686-.322.686-.718 0-.397-.307-.718-.686-.718-.379 0-.686.322-.686.718 0 .397.307.718.686.718zm4.629 0c.379 0 .686-.322.686-.718 0-.397-.307-.718-.686-.718-.379 0-.685.322-.685.718 0 .397.307.718.685.718zm-9.274 0c.379 0 .685-.322.685-.718 0-.397-.307-.718-.685-.718-.379 0-.686.322-.686.718 0 .397.307.718.686.718m-1.097-12.748c.304.281.694.436 1.099.436h2.039c-.042.14-.065.287-.065.438 0 .423.174.826.478 1.107.259.239.589.369.932.369h5.614c.778 0 1.41-.662 1.41-1.476 0-.813-.632-1.475-1.41-1.475h-.535c.091-.216.143-.453.143-.703 0-.96-.746-1.741-1.663-1.741h-6.943c-.405 0-.795.155-1.099.436-.359.331-.564.806-.564 1.305 0 .498.205.974.564 1.305zm.655-1.832c.124-.114.281-.176.444-.176h6.943c.37 0 .672.315.672.703 0 .388-.302.703-.672.703-.274 0-.496.232-.496.518h-.003c0 .286.222.519.496.519h2.058c.231 0 .419.196.419.438s-.188.438-.419.438h-5.614c-.13 0-.222-.06-.276-.11-.092-.085-.143-.201-.143-.328 0-.126.051-.243.143-.328.055-.05.147-.11.277-.11h.003c.274 0 .496-.233.496-.519 0-.286-.222-.518-.496-.518h-3.387c-.163 0-.32-.063-.444-.177-.145-.134-.228-.326-.228-.526s.083-.392.228-.526zm26.679 19.728h-.39v-7.308l-.001-.048c-.051-1.146-.658-2.165-1.574-2.729v-6.831l-.007-.116-.006-.036-.013-.078-.002-.014c-.013-.214-.036-.426-.068-.634v-.004l-.034-.203-.001-.006-.039-.199-.002-.008-.045-.196-.002-.009-.05-.194-.002-.009-.055-.192-.002-.009-.061-.191-.002-.007-.066-.191-.001-.005-.071-.191-.001-.002c-.218-.564-.492-1.099-.799-1.602-.922-1.508-2.137-2.714-3.006-3.468l-.003-.003-.094-.082-.005-.004-.089-.076-.007-.006-.083-.07-.009-.008-.078-.063-.011-.01-.071-.058-.016-.013-.022-.017v-1.734c0-.287-.222-.519-.496-.519h-.179v-.883l-.003-.032.047-.09.213-.122c.159-.091.258-.265.258-.455s-.099-.364-.258-.455l-.213-.122-.117-.223c-.087-.166-.254-.27-.435-.27s-.348.103-.435.27l-.116.223-.213.122c-.159.092-.258.266-.258.455 0 .19.099.364.258.455l.213.122.068.129v.876h-.136c-.274 0-.496.232-.496.519v1.733c-1.383 1.112-4.659 4.13-4.806 7.864l-.005.109v4.337h-11.679c-.273 0-.533.118-.721.325l-3.271 3.622c-.174.193-.271.448-.271.713v7.919h-.142c-.547 0-.991.464-.991 1.037s.444 1.038.991 1.038h29.984c.547 0 .991-.465.991-1.038s-.444-1.037-.991-1.037zm-14.123-7.296c.014-.288.094-.558.223-.794.295-.539.849-.9 1.483-.9.173 0 .341.028.499.077.672.214 1.17.847 1.209 1.616v.911h-3.414v-.911zm0 3.191v-1.243h3.414v5.317h-3.414v-4.075zm4.541-12.198h3.239v5.231c-.454-.359-1.018-.572-1.63-.572-.602 0-1.159.206-1.609.556v-5.215zm1.609 5.698c.764 0 1.412.523 1.63 1.252v1.352h-3.239v-1.422c.237-.693.869-1.182 1.609-1.182zm-1.609 9.977v-6.336h3.239v6.934h-3.239v-.598zm-9.199-2.959h3.665v3.556h-3.665v-3.556zm-4.559 0h3.569v3.556h-3.569v-3.556zm-4.519 0h3.529v3.556h-3.529v-3.556zm25.982 3.559l-.046-.003h-3.351v-5.317h3.398v5.32zm0-6.358h-3.398v-1.08c.105-.741.639-1.326 1.326-1.482l.098-.018.267-.023c.75 0 1.388.504 1.618 1.212.049.152.08.313.089.481v.911zm-3.446-2.979l-.029-.139v-6.8h1.404v6.303c-.519.073-.992.3-1.374.637zm.18-7.977c-.063-1.386-.345-2.668-.696-3.764.886 1.09 1.66 2.404 1.836 3.764h-1.14zm-3.067-5.626l.27-.225.27.227c.606 1.23 1.417 3.282 1.536 5.625h-3.613c.119-2.339.931-4.394 1.538-5.626zm-3.708 11.618v-4.953h1.345v6.722l-.057.259c-.358-.33-.8-.561-1.288-.656v-1.371zm-3.197 4.041v2.684h-3.666v-2.776h3.666v.092zm-8.225-.092h3.569v2.776h-3.569v-2.776zm-4.519 0h3.529v2.776h-3.529v-2.776zm19.762-18.703h.315v.6c-.104-.018-.21-.018-.315 0v-.6zm-2.548 5.787l.148-.212.001-.002c.148-.204.301-.402.457-.591-.353 1.099-.637 2.387-.701 3.779h-1.14l.005-.042.01-.069.033-.195.012-.062.044-.199.013-.054.056-.203.014-.047.067-.207.014-.041.077-.21.015-.035.088-.212.014-.03.098-.214.013-.025.108-.214.011-.02.117-.215.009-.016.126-.215.007-.012.134-.214.006-.009.141-.212.003-.005zm-3.255 9.812v.941c-.404.278-.732.666-.945 1.125h-12.173l1.866-2.066h11.253z" fill="#3A434E"/></g></g></svg>