<svg width="32" height="232" viewBox="0 0 32 232" xmlns="http://www.w3.org/2000/svg"><desc>Created with Sketch.</desc><g fill="none"><path d="M4.92 124.82h.076l-.02.237c0 .686.52 1.246 1.162 1.246h5.333c.29 0 .56-.11.77-.312.26-.23.4-.57.4-.93 0-.35-.14-.69-.39-.93-.21-.2-.48-.31-.77-.31H9.26l.005-.07c0-.31-.126-.61-.343-.81-.185-.17-.424-.27-.67-.27H4.92c-.56 0-1.014.49-1.014 1.09s.455 1.09 1.014 1.09zm0-1.16h3.33l.047.02.025.057-.025.057-.045.02H8.25c-.26 0-.472.225-.472.504s.21.505.472.505h3.222l.145.06c.03.026.076.084.076.175 0 .092-.048.15-.076.177l-.145.06H6.14c-.122 0-.222-.107-.222-.237s.1-.236.22-.236c.262 0 .473-.226.473-.505h.01c0-.28-.21-.505-.47-.505H4.92l-.07-.076.07-.076zm-.52 19.576h1.79c.26 0 .47-.226.47-.504v-3.13c0-.806-.612-1.462-1.364-1.462-.753 0-1.365.655-1.365 1.46v3.132c0 .28.22.504.48.504zm.472-3.635c0-.24.19-.45.422-.45.233 0 .423.21.423.45v2.63H4.87v-2.63zm3.396 3.64h1.788c.26 0 .472-.22.472-.5v-3.13c0-.8-.613-1.46-1.365-1.46-.753 0-1.366.66-1.366 1.46v3.14c0 .28.21.51.47.51zm.472-3.63c0-.25.19-.45.422-.45.232 0 .422.2.422.45v2.63H8.74v-2.63zm3.396 3.64h1.787c.26 0 .472-.22.472-.5v-3.13c0-.8-.613-1.46-1.365-1.46-.753 0-1.365.66-1.365 1.46v3.14c0 .28.21.5.472.5zm.472-3.63c0-.25.19-.45.422-.45.233 0 .422.2.422.45v2.63h-.844v-2.63zm14.506-.2c-.6 0-1.09.53-1.09 1.17v2.17c0 .28.21.51.47.51h1.238c.26 0 .472-.22.472-.5v-2.17c0-.64-.49-1.17-1.09-1.17zm.146 2.83h-.294v-1.66c0-.08.066-.15.147-.15.08 0 .146.07.146.16v1.67zM4.4 137.37h1.79c.26 0 .47-.225.47-.504v-3.13c0-.802-.612-1.46-1.364-1.46-.753 0-1.365.657-1.365 1.46v3.13c0 .28.22.51.48.51zm.472-3.635c0-.25.19-.452.422-.452.233 0 .423.203.423.453v2.622H4.87v-2.627zm3.396 3.636h1.788c.26 0 .472-.22.472-.5v-3.13c0-.8-.613-1.46-1.365-1.46-.753 0-1.366.66-1.366 1.46v3.13c0 .28.21.51.47.51zm.472-3.63c0-.25.19-.45.422-.45.232 0 .422.2.422.45v2.63H8.74v-2.62zm6.115-.83c.26 0 .47-.22.47-.5v-2.06h3.928v1.62H17.77c-.26 0-.472.23-.472.51v2.22c0 .28.21.51.472.51.26 0 .47-.22.47-.5V133h3.188c.176 0 .327-.103.408-.255.062-.08.1-.19.1-.304v-2.882h5.498v5.44c0 .28.21.51.472.51h2.334c.26 0 .472-.23.472-.51s-.21-.5-.472-.5h-1.863V129c0-2.636-2.456-4.76-3.204-5.345v-.462l.094-.055c.152-.09.246-.258.246-.443 0-.184-.094-.354-.246-.442l-.098-.058-.06-.105c-.08-.162-.24-.262-.42-.262s-.33.1-.42.262l-.06.105-.1.058c-.15.088-.25.258-.25.442 0 .185.09.354.24.443l.09.055v.462c-.73.57-3.08 2.603-3.2 5.145l-.04.2v2.944h-.79v-2.117c0-1.994-1.797-3.602-2.426-4.103v-.215l.01-.01c.154-.09.25-.26.25-.44s-.09-.36-.24-.45l-.05-.03-.028-.05c-.084-.17-.24-.27-.416-.27-.17 0-.33.1-.41.26l-.03.05-.045.02c-.15.09-.25.26-.25.44 0 .19.093.35.245.44h.01v.213c-.61.49-2.32 2.02-2.42 3.935l-.03.17v2.56c0 .28.21.503.473.503zm8.84-4.4c.1-1.51.63-2.82 1.005-3.58.376.76.903 2.08 1.004 3.59h-2.01zm3.697 0h-.742c-.053-.92-.246-1.77-.48-2.49.563.7 1.08 1.56 1.222 2.49zm-4.167-2.48c-.232.72-.423 1.57-.477 2.49h-.743c.144-.93.658-1.79 1.22-2.49zm-6.558 3.31c.083-.93.38-1.76.633-2.31.253.55.55 1.38.634 2.31h-1.27zm2.53 0h-.315c-.03-.41-.096-.79-.182-1.16.226.36.41.75.497 1.16zm-3.297-1.16c-.086.37-.15.75-.182 1.16h-.315c.087-.41.272-.8.497-1.16zm9.174 3.17v4.34h1.436v-4.33c-.018-.4-.333-.73-.72-.73-.384 0-.7.33-.717.74zm5.976 16.75h-.95v-7.71l.266-1.83c.02-.15-.02-.29-.108-.41-.09-.11-.22-.17-.36-.17H17.546l-.297-1.73c-.09-.47-.47-.82-.93-.82l-2.22-.01-.87-5.11c-.08-.48-.47-.83-.93-.83H1.78c-.275 0-.537.13-.716.35-.18.23-.26.52-.216.81l.26 1.8v15.67H.95c-.52 0-.943.45-.943 1.01s.423 1.01.943 1.01h30.105c.52 0 .943-.45.943-1.01s-.422-1.01-.943-1.01zm-19.523-16.62l.866 5.11c.08.48.47.83.923.83l2.22.01.864 5.04c.082.48.472.83.928.83h5.768v4.81h-.964v-2.61c0-.8-.612-1.46-1.365-1.46s-1.366.66-1.366 1.46v2.61h-1.13v-2.61c0-.81-.61-1.46-1.36-1.46-.75 0-1.36.65-1.36 1.46v2.6H14.4v-2.604c0-.807-.613-1.46-1.365-1.46-.753 0-1.365.653-1.365 1.46v2.605h-1.14v-2.6c0-.803-.613-1.46-1.365-1.46-.753 0-1.366.657-1.366 1.46v2.61H6.66v-2.61c0-.807-.613-1.46-1.365-1.46-.753 0-1.365.653-1.365 1.46v2.605H3v-15.75l-.012-.158-.103-.713h8.643zm12.407 9.79h-.293v-.7c0-.08.07-.15.15-.15.08 0 .15.07.15.16v.7zm-3.327 0h-.294v-.7c0-.08.066-.15.147-.15.08 0 .147.07.147.16v.7zm.58 6.82h-.844v-2.6c0-.25.19-.45.423-.45.233 0 .422.21.422.46v2.61zm-3.867 0h-.844v-2.6c0-.25.19-.45.422-.45.233 0 .422.21.422.46v2.61zm-3.867 0h-.844v-2.6c0-.25.18-.45.42-.45.23 0 .42.21.42.46v2.61zm-3.867 0h-.844v-2.6c0-.25.19-.45.422-.45.232 0 .422.21.422.46v2.61zm-3.867 0h-.85v-2.6c0-.25.19-.45.42-.45.23 0 .42.21.42.46v2.61zm21.24-1.46V146c0-.087.06-.16.14-.16.08 0 .14.073.14.16v1.66h-.3v-1.04zm1.23 1.46V146c0-.642-.49-1.165-1.09-1.165-.57 0-1.03.458-1.09 1.045L26 146v2.084h-1.04v-5.815c0-.17-.037-.33-.103-.46v-1.25c0-.65-.49-1.17-1.093-1.17s-1.09.52-1.09 1.16v.69h-1.14v-.7c0-.65-.49-1.17-1.09-1.17-.6 0-1.09.52-1.09 1.16v.69H18.1l-.33-1.92-.062-.38h11.64l-.19 1.29-.004.08v7.743H28.2zm-5.34-16.75v4.34h1.44v-4.34c-.02-.41-.33-.73-.72-.73-.39 0-.7.33-.72.74" fill="#206FAC"/><path d="M4.92 84.82h.076l-.02.237c0 .686.52 1.246 1.162 1.246h5.333c.29 0 .56-.11.77-.312.26-.23.4-.57.4-.93 0-.35-.14-.69-.39-.93-.21-.2-.48-.31-.77-.31H9.26l.005-.07c0-.31-.126-.61-.343-.81-.185-.17-.424-.27-.67-.27H4.92c-.56 0-1.014.49-1.014 1.09s.454 1.08 1.014 1.08zm0-1.16h3.33l.047.02.025.057-.025.057-.045.02H8.25c-.26 0-.472.225-.472.504s.21.505.472.505h3.222l.145.06c.03.026.076.084.076.175 0 .092-.048.15-.076.177l-.145.06H6.14c-.122 0-.222-.107-.222-.237s.1-.236.22-.236c.262 0 .473-.226.473-.505h.01c0-.28-.21-.505-.47-.505H4.92l-.07-.076.07-.076zm-.52 19.576h1.79c.26 0 .47-.226.47-.504v-3.13c0-.806-.612-1.462-1.364-1.462-.753 0-1.365.655-1.365 1.46v3.132c0 .28.22.504.48.504zm.472-3.635c0-.24.19-.45.422-.45.233 0 .423.21.423.45v2.63H4.87V99.6zm3.396 3.64h1.788c.26 0 .472-.22.472-.5v-3.13c0-.8-.613-1.46-1.365-1.46-.753 0-1.366.66-1.366 1.46v3.14c0 .28.21.51.47.51zm.472-3.63c0-.25.19-.45.422-.45.232 0 .422.2.422.45v2.63H8.74V99.6zm3.396 3.64h1.787c.26 0 .472-.22.472-.5v-3.13c0-.8-.613-1.46-1.365-1.46-.753 0-1.365.66-1.365 1.46v3.14c0 .28.21.5.472.5zm.472-3.63c0-.25.19-.45.422-.45.233 0 .422.2.422.45v2.63h-.844V99.6zm14.506-.2c-.6 0-1.09.53-1.09 1.17v2.17c0 .28.21.51.47.51h1.238c.26 0 .472-.22.472-.5v-2.17c0-.64-.49-1.17-1.09-1.17zm.146 2.83h-.294v-1.66c0-.08.066-.15.147-.15.08 0 .146.07.146.16v1.67zM4.402 97.36H6.19c.26 0 .47-.225.47-.504v-3.13c0-.806-.612-1.462-1.364-1.462-.753 0-1.365.655-1.365 1.46v3.132c0 .28.22.505.48.505zm.472-3.635c0-.25.19-.452.422-.452.233 0 .423.202.423.452v2.627h-.85v-2.627zM8.27 97.36h1.788c.26 0 .472-.225.472-.504v-3.13c0-.806-.613-1.462-1.365-1.462-.753 0-1.366.655-1.366 1.46v3.132c0 .28.21.505.47.505zm.472-3.635c0-.25.19-.452.422-.452.232 0 .422.202.422.452v2.627h-.844v-2.627zm6.115-.832c.26 0 .47-.226.47-.504v-2.06h3.928v1.61H17.77c-.26 0-.472.22-.472.5v2.22c0 .28.21.5.472.5.26 0 .47-.23.47-.51v-1.71h3.188c.176 0 .327-.11.408-.26.062-.09.1-.19.1-.31V89.5h5.498v5.44c0 .28.21.507.472.507h2.334c.26 0 .472-.226.472-.505s-.21-.505-.472-.505h-1.863V89c0-2.636-2.456-4.76-3.204-5.345v-.462l.094-.055c.152-.09.246-.258.246-.443 0-.184-.094-.354-.246-.442l-.098-.058-.06-.105c-.08-.162-.24-.262-.42-.262s-.33.1-.42.262l-.06.105-.1.058c-.15.088-.25.258-.25.442 0 .185.09.354.24.443l.09.055v.462c-.73.57-3.08 2.603-3.2 5.145l-.04.2v2.944h-.79v-2.117c0-1.994-1.797-3.602-2.426-4.103v-.215l.01-.01c.154-.09.25-.26.25-.44s-.09-.36-.24-.45l-.05-.03-.028-.05c-.084-.17-.24-.27-.416-.27-.17 0-.33.1-.41.26l-.03.05-.045.02c-.15.09-.25.26-.25.44 0 .19.093.35.245.44h.01v.213c-.61.49-2.32 2.02-2.42 3.935l-.03.17v2.56c0 .28.21.503.473.503zm8.84-4.398c.1-1.51.63-2.824 1.005-3.587.376.762.903 2.075 1.004 3.587h-2.01zm3.697 0h-.742c-.053-.92-.246-1.77-.48-2.492.563.694 1.08 1.558 1.222 2.492zm-4.167-2.486c-.232.72-.423 1.56-.477 2.48h-.743c.144-.93.658-1.79 1.22-2.49zm-6.557 3.31c.083-.94.38-1.76.633-2.32.253.55.55 1.38.634 2.31h-1.27zm2.53 0h-.315c-.03-.41-.096-.8-.182-1.16.226.35.41.74.497 1.16zm-3.297-1.16c-.086.36-.15.75-.182 1.16h-.31c.09-.42.27-.81.5-1.16zm9.174 3.16v4.33h1.436v-4.33c-.018-.41-.333-.74-.72-.74-.384 0-.7.32-.717.73zm5.976 16.75h-.95v-7.71l.266-1.84c.02-.15-.02-.3-.11-.41-.09-.11-.22-.18-.36-.18H17.54l-.297-1.73c-.084-.48-.47-.83-.925-.83l-2.215-.01-.87-5.12c-.08-.48-.47-.83-.927-.83H1.782c-.276 0-.538.13-.717.35-.18.22-.26.52-.216.81l.26 1.8v15.67H.95c-.52 0-.943.45-.943 1.01s.423 1.01.943 1.01h30.105c.52 0 .943-.45.943-1.01s-.422-1.01-.943-1.01zm-19.526-16.6l.866 5.1c.08.48.47.82.923.83l2.22.01.864 5.03c.082.48.472.83.928.83h5.768v4.81h-.964v-2.6c0-.81-.612-1.46-1.365-1.46s-1.366.65-1.366 1.46v2.6h-1.13v-2.61c0-.81-.61-1.46-1.36-1.46-.75 0-1.36.65-1.36 1.46v2.6H14.4v-2.61c0-.81-.613-1.46-1.365-1.46-.753 0-1.365.65-1.365 1.46v2.603h-1.14v-2.603c0-.81-.613-1.46-1.365-1.46-.753 0-1.366.65-1.366 1.46v2.6H6.66v-2.606c0-.803-.613-1.46-1.365-1.46-.753 0-1.365.657-1.365 1.46v2.61H3V92.34l-.012-.152-.103-.714h8.643zm12.407 9.79h-.293v-.7c0-.09.07-.16.15-.16.08 0 .15.07.15.15v.69zm-3.327 0h-.294v-.7c0-.09.066-.16.147-.16.08 0 .147.07.147.15v.69zm.58 6.82h-.844v-2.61c0-.25.19-.45.423-.45.233 0 .422.2.422.45v2.6zm-3.867 0h-.844v-2.61c0-.25.19-.45.422-.45.233 0 .422.2.422.45v2.6zm-3.867 0h-.844v-2.61c0-.25.18-.45.42-.45.23 0 .42.2.42.45v2.6zm-3.867 0h-.844v-2.61c0-.25.19-.45.422-.45.232 0 .422.2.422.45v2.6zm-3.867 0h-.85v-2.61c0-.25.19-.45.42-.45.23 0 .42.2.42.45v2.6zm21.24-1.46V106c0-.087.06-.16.14-.16.08 0 .14.073.14.16v1.66h-.3v-1.04zm1.23 1.46V106c0-.642-.49-1.165-1.09-1.165-.57 0-1.03.458-1.09 1.045L26 106v2.084h-1.04v-5.815c0-.17-.037-.33-.103-.46v-1.25c0-.65-.49-1.17-1.093-1.17s-1.09.52-1.09 1.16v.69h-1.14v-.7c0-.65-.49-1.17-1.09-1.17-.6 0-1.09.52-1.09 1.16v.69H18.1l-.33-1.92-.062-.38h11.64l-.19 1.29-.004.08v7.743H28.2zm-5.33-16.75v4.33h1.44v-4.33c-.02-.41-.33-.74-.72-.74-.39 0-.7.32-.72.73" fill="#fff"/><path d="M4.92 44.82h.076l-.02.237c0 .686.52 1.246 1.162 1.246h5.333c.29 0 .56-.11.77-.312.26-.23.4-.57.4-.93 0-.35-.14-.69-.39-.93-.21-.2-.48-.31-.77-.31H9.26l.005-.07c0-.31-.126-.61-.343-.81-.185-.17-.424-.27-.67-.27H4.92c-.56 0-1.014.49-1.014 1.09s.454 1.08 1.014 1.08zm0-1.16h3.33l.047.02.025.057-.025.057-.045.02H8.25c-.26 0-.472.225-.472.504s.21.505.472.505h3.222l.145.06c.03.026.076.084.076.175 0 .092-.048.15-.076.177l-.145.06H6.14c-.122 0-.222-.107-.222-.237s.1-.236.22-.236c.262 0 .473-.226.473-.505h.01c0-.28-.21-.505-.47-.505H4.92l-.07-.076.07-.076zM4.4 63.236h1.79c.26 0 .47-.226.47-.504v-3.13c0-.806-.612-1.462-1.364-1.462-.753 0-1.365.655-1.365 1.46v3.132c0 .28.22.504.48.504zm.472-3.635c0-.24.19-.45.422-.45.233 0 .423.21.423.45v2.63H4.87V59.6zm3.396 3.64h1.788c.26 0 .472-.22.472-.5v-3.13c0-.8-.613-1.46-1.365-1.46-.753 0-1.366.66-1.366 1.46v3.14c0 .28.21.51.47.51zm.472-3.63c0-.25.19-.45.422-.45.232 0 .422.2.422.45v2.63H8.74V59.6zm3.396 3.64h1.787c.26 0 .472-.22.472-.5v-3.13c0-.8-.613-1.46-1.365-1.46-.753 0-1.365.66-1.365 1.46v3.14c0 .28.21.5.472.5zm.472-3.63c0-.25.19-.45.422-.45.233 0 .422.2.422.45v2.63h-.844V59.6zm14.506-.2c-.6 0-1.09.53-1.09 1.17v2.17c0 .28.21.51.47.51h1.238c.26 0 .472-.22.472-.5V60.6c0-.643-.49-1.166-1.09-1.166zm.146 2.83h-.294v-1.66c0-.08.066-.15.147-.15.08 0 .146.07.146.16v1.67zM4.402 57.36H6.19c.26 0 .47-.225.47-.504v-3.13c0-.806-.612-1.462-1.364-1.462-.753 0-1.365.655-1.365 1.46v3.132c0 .28.22.505.48.505zm.472-3.635c0-.25.19-.452.422-.452.233 0 .423.202.423.452v2.627h-.85v-2.627zM8.27 57.36h1.788c.26 0 .472-.225.472-.504v-3.13c0-.806-.613-1.462-1.365-1.462-.753 0-1.366.655-1.366 1.46v3.132c0 .28.21.505.47.505zm.472-3.635c0-.25.19-.452.422-.452.232 0 .422.202.422.452v2.627h-.844v-2.627zm6.115-.832c.26 0 .47-.226.47-.504v-2.06h3.928v1.61H17.77c-.26 0-.472.22-.472.5v2.22c0 .28.21.5.472.5.26 0 .47-.23.47-.51v-1.71h3.188c.176 0 .327-.11.408-.26.062-.09.1-.19.1-.31V49.5h5.498v5.44c0 .28.21.507.472.507h2.334c.26 0 .472-.226.472-.505s-.21-.505-.472-.505h-1.863V49c0-2.636-2.456-4.76-3.204-5.345v-.462l.094-.055c.152-.09.246-.258.246-.443 0-.184-.094-.354-.246-.442l-.098-.058-.06-.105c-.08-.162-.24-.262-.42-.262s-.33.1-.42.262l-.06.105-.1.058c-.15.088-.25.258-.25.442 0 .185.09.354.24.443l.09.055v.462c-.73.57-3.08 2.603-3.2 5.145l-.04.2v2.944h-.79v-2.117c0-1.994-1.797-3.602-2.426-4.103v-.215l.01-.01c.154-.09.25-.26.25-.44s-.09-.36-.24-.45l-.05-.03-.028-.05c-.084-.17-.24-.27-.416-.27-.17 0-.33.1-.41.26l-.03.05-.045.02c-.15.09-.25.26-.25.44 0 .19.093.35.245.44h.01v.213c-.61.49-2.32 2.02-2.42 3.935l-.03.17v2.56c0 .28.21.503.473.503zm8.84-4.398c.1-1.51.63-2.824 1.005-3.587.376.762.903 2.075 1.004 3.587h-2.01zm3.697 0h-.742c-.053-.92-.246-1.77-.48-2.492.563.694 1.08 1.558 1.222 2.492zm-4.167-2.486c-.232.72-.423 1.56-.477 2.48h-.743c.144-.93.658-1.79 1.22-2.49zm-6.557 3.31c.083-.94.38-1.76.633-2.32.253.55.55 1.38.634 2.31h-1.27zm2.53 0h-.315c-.03-.41-.096-.8-.182-1.16.226.35.41.74.497 1.16zm-3.297-1.16c-.086.36-.15.75-.182 1.16h-.31c.09-.42.27-.81.5-1.16zm9.174 3.16v4.33h1.436v-4.33c-.018-.41-.333-.74-.72-.74-.384 0-.7.32-.717.73zm5.976 16.75h-.95v-7.7l.266-1.84c.02-.15-.02-.3-.11-.41-.09-.11-.22-.18-.36-.18H17.54l-.297-1.73c-.084-.48-.47-.83-.925-.83l-2.215-.02-.87-5.11c-.08-.48-.47-.83-.927-.83H1.782c-.276 0-.538.13-.717.35-.18.22-.26.52-.216.81l.26 1.8v15.67H.95c-.52 0-.943.45-.943 1.01s.423 1.01.943 1.01h30.105c.52 0 .943-.45.943-1.01s-.422-1.01-.943-1.01zm-19.526-16.6l.866 5.1c.08.48.47.82.923.83l2.22.01.864 5.03c.082.48.472.83.928.83h5.768v4.81h-.964v-2.61c0-.8-.612-1.46-1.365-1.46s-1.366.66-1.366 1.46v2.61h-1.13v-2.61c0-.8-.61-1.46-1.36-1.46-.75 0-1.36.66-1.36 1.46v2.61H14.4v-2.61c0-.81-.613-1.46-1.365-1.46-.753 0-1.365.65-1.365 1.46v2.6h-1.14v-2.6c0-.81-.613-1.46-1.365-1.46-.753 0-1.366.65-1.366 1.46v2.6H6.66v-2.6c0-.81-.613-1.46-1.365-1.46-.753 0-1.365.65-1.365 1.46v2.6H3V52.33l-.012-.152-.103-.714h8.643zm12.407 9.79h-.293v-.7c0-.09.07-.16.15-.16.08 0 .15.07.15.15v.69zm-3.327 0h-.294v-.7c0-.09.066-.16.147-.16.08 0 .147.07.147.15v.69zm.58 6.82h-.844v-2.61c0-.25.19-.46.423-.46.233 0 .422.2.422.45v2.6zm-3.867 0h-.844v-2.61c0-.25.19-.46.422-.46.233 0 .422.2.422.45v2.6zm-3.867 0h-.844v-2.61c0-.25.18-.46.42-.46.23 0 .42.2.42.45v2.6zm-3.867 0h-.844v-2.61c0-.25.19-.46.422-.46.232 0 .422.2.422.45v2.6zm-3.867 0h-.85v-2.61c0-.25.19-.46.42-.46.23 0 .42.2.42.45v2.6zm21.24-1.46V66c0-.087.06-.16.14-.16.08 0 .14.073.14.16v1.66h-.3v-1.04zm1.23 1.46V66c0-.642-.49-1.165-1.09-1.165-.57 0-1.03.458-1.09 1.045L26 66v2.084h-1.04V62.27c0-.167-.037-.323-.103-.46v-1.245c0-.643-.49-1.166-1.093-1.166s-1.09.52-1.09 1.16v.69h-1.14v-.7c0-.65-.49-1.17-1.09-1.17-.6 0-1.09.52-1.09 1.16v.69H18.1l-.33-1.92-.062-.38h11.64l-.19 1.29-.004.07v7.75H28.2zm-5.33-16.75v4.33h1.44v-4.33c-.02-.41-.33-.74-.72-.74-.39 0-.7.32-.72.73" fill="#67737B"/><path d="M4.92 4.82h.076l-.02.237c0 .686.52 1.246 1.162 1.246h5.333c.29 0 .56-.11.77-.312.26-.23.4-.57.4-.93 0-.35-.14-.69-.39-.93-.21-.2-.48-.31-.77-.31H9.26l.005-.07c0-.31-.126-.61-.343-.81-.185-.17-.424-.27-.67-.27H4.92c-.56 0-1.014.49-1.014 1.09S4.36 4.82 4.92 4.82zm0-1.16h3.33l.047.02.025.057-.025.057-.045.02H8.25c-.26 0-.472.225-.472.504s.21.505.472.505h3.222l.145.06c.03.026.076.084.076.175 0 .092-.048.15-.076.177l-.145.06H6.14c-.122 0-.222-.107-.222-.237s.1-.236.22-.236c.262 0 .473-.226.473-.505h.01c0-.28-.21-.505-.47-.505H4.92l-.07-.076.07-.076zM4.4 23.236h1.79c.26 0 .47-.226.47-.504v-3.13c0-.806-.612-1.462-1.364-1.462-.753 0-1.365.655-1.365 1.46v3.132c0 .28.22.504.48.504zm.472-3.635c0-.24.19-.45.422-.45.233 0 .423.21.423.45v2.63H4.87V19.6zm3.396 3.64h1.788c.26 0 .472-.22.472-.5v-3.13c0-.8-.613-1.46-1.365-1.46-.753 0-1.366.66-1.366 1.46v3.14c0 .28.21.51.47.51zm.472-3.63c0-.25.19-.45.422-.45.232 0 .422.2.422.45v2.63H8.74V19.6zm3.396 3.64h1.787c.26 0 .472-.22.472-.5v-3.13c0-.8-.613-1.46-1.365-1.46-.753 0-1.365.66-1.365 1.46v3.14c0 .28.21.5.472.5zm.472-3.63c0-.25.19-.45.422-.45.233 0 .422.2.422.45v2.63h-.844V19.6zm14.506-.2c-.6 0-1.09.53-1.09 1.17v2.17c0 .28.21.51.47.51h1.238c.26 0 .472-.22.472-.5V20.6c0-.643-.49-1.166-1.09-1.166zm.146 2.83h-.294v-1.66c0-.08.066-.15.147-.15.08 0 .146.07.146.16v1.67zM4.402 17.36H6.19c.26 0 .47-.225.47-.504v-3.13c0-.806-.612-1.462-1.364-1.462-.753 0-1.365.655-1.365 1.46v3.132c0 .28.22.505.48.505zm.472-3.635c0-.25.19-.452.422-.452.233 0 .423.202.423.452v2.627h-.85v-2.627zM8.27 17.36h1.788c.26 0 .472-.225.472-.504v-3.13c0-.806-.613-1.462-1.365-1.462-.753 0-1.366.655-1.366 1.46v3.132c0 .28.21.505.47.505zm.472-3.635c0-.25.19-.452.422-.452.232 0 .422.202.422.452v2.627h-.844v-2.627zm6.115-.832c.26 0 .47-.226.47-.504v-2.06h3.928v1.61H17.77c-.26 0-.472.22-.472.5v2.22c0 .28.21.5.472.5.26 0 .47-.23.47-.51v-1.71h3.188c.176 0 .327-.11.408-.26.062-.09.1-.19.1-.31V9.5h5.498v5.44c0 .28.21.505.472.505h2.334c.26 0 .472-.23.472-.51s-.21-.51-.472-.51h-1.863V9c0-2.636-2.456-4.76-3.204-5.345v-.462l.094-.055c.152-.09.246-.258.246-.443 0-.184-.094-.354-.246-.442l-.098-.058-.06-.105c-.08-.162-.24-.262-.42-.262s-.33.1-.42.262l-.06.105-.1.058c-.15.088-.25.258-.25.442 0 .185.09.354.24.443l.09.055v.462c-.73.57-3.08 2.603-3.2 5.145l-.04.2v2.944h-.79V9.827c0-1.994-1.797-3.602-2.426-4.103V5.51l.01-.007c.154-.09.25-.258.25-.442s-.09-.35-.24-.44l-.05-.02-.028-.05c-.084-.16-.24-.26-.416-.26-.17 0-.33.1-.41.27l-.03.05-.045.03c-.15.09-.25.26-.25.45s.093.36.245.45l.01.01v.22c-.61.49-2.32 2.02-2.42 3.938l-.03.17v2.56c0 .28.21.504.473.504zm8.84-4.398c.1-1.51.63-2.824 1.005-3.587.376.762.903 2.075 1.004 3.587h-2.01zm3.697 0h-.742c-.053-.92-.246-1.77-.48-2.492.563.694 1.08 1.558 1.222 2.492zM23.227 6.01c-.232.72-.423 1.568-.477 2.485h-.743c.144-.93.658-1.792 1.22-2.486zM16.67 9.32c.083-.935.38-1.76.633-2.317.253.556.55 1.382.634 2.317h-1.27zm2.53 0h-.315c-.03-.41-.096-.798-.182-1.16.226.357.41.748.497 1.16zm-3.297-1.16c-.086.362-.15.75-.182 1.16h-.31c.09-.412.27-.803.5-1.16zm9.174 3.168v4.337h1.436V11.33c-.018-.407-.333-.733-.72-.733-.384 0-.7.325-.717.733zm5.976 16.755h-.95V20.38l.266-1.836c.02-.146-.02-.294-.11-.406-.09-.112-.22-.176-.36-.176H17.54l-.297-1.73c-.084-.477-.47-.824-.925-.827l-2.215-.012-.87-5.113c-.08-.48-.47-.83-.927-.83H1.782c-.276 0-.538.13-.717.352-.18.224-.26.52-.216.81l.26 1.8v15.67H.95c-.52 0-.943.453-.943 1.01 0 .558.423 1.01.943 1.01h30.105c.52 0 .943-.452.943-1.01 0-.557-.422-1.01-.943-1.01zM11.527 11.47l.866 5.108c.08.478.47.826.923.83l2.22.01.864 5.033c.082.48.472.83.928.83h5.768v4.81h-.964v-2.61c0-.8-.612-1.46-1.365-1.46s-1.366.66-1.366 1.46v2.61h-1.13v-2.61c0-.8-.61-1.46-1.36-1.46-.75 0-1.36.66-1.36 1.46v2.61H14.4v-2.61c0-.8-.613-1.46-1.365-1.46-.753 0-1.365.66-1.365 1.46v2.61h-1.14v-2.61c0-.8-.613-1.46-1.365-1.46-.753 0-1.366.66-1.366 1.46v2.61H6.66v-2.61c0-.8-.613-1.46-1.365-1.46-.753 0-1.365.66-1.365 1.46v2.61H3V12.34l-.012-.154-.103-.713h8.643zm12.407 9.79h-.293v-.694c0-.087.07-.157.15-.157.08 0 .15.07.15.15v.69zm-3.327 0h-.294v-.694c0-.087.066-.157.147-.157.08 0 .147.07.147.15v.69zm.58 6.824h-.844v-2.607c0-.25.19-.452.423-.452.233 0 .422.202.422.452v2.607zm-3.867 0h-.844v-2.607c0-.25.19-.452.422-.452.233 0 .422.202.422.452v2.607zm-3.867 0h-.844v-2.607c0-.25.18-.452.42-.452.23 0 .42.202.42.452v2.607zm-3.867 0h-.844v-2.607c0-.25.19-.452.422-.452.232 0 .422.202.422.452v2.607zm-3.867 0h-.85v-2.607c0-.25.19-.452.42-.452.23 0 .42.202.42.452v2.607zm21.24-1.462v-.62c0-.088.06-.16.14-.16.08 0 .14.072.14.16v1.66h-.3v-1.04zm1.23 1.462V26c0-.642-.49-1.165-1.09-1.165-.57 0-1.03.458-1.09 1.045L26 26v2.084h-1.04V22.27c0-.167-.037-.323-.103-.46v-1.245c0-.643-.49-1.166-1.093-1.166s-1.09.52-1.09 1.16v.69h-1.14v-.7c0-.65-.49-1.17-1.09-1.17-.6 0-1.09.52-1.09 1.16v.69H18.1l-.33-1.92-.062-.38h11.64l-.19 1.29-.004.07v7.75H28.2zM22.86 11.33v4.332h1.44V11.33c-.017-.408-.33-.734-.717-.734-.385 0-.7.325-.718.733" fill="#3A434E"/></g></svg>