<svg width="32" height="232" viewBox="0 0 32 232" xmlns="http://www.w3.org/2000/svg"><title>venice</title><desc>Created with Sketch.</desc><g fill="none"><path d="M30.317 138.464c.094-.17.143-.365.143-.564v-1.43c0-.334.246-.604.548-.604.545 0 .987-.486.987-1.087 0-.6-.44-1.088-.987-1.088-1.278 0-2.336 1.054-2.498 2.415-.188.21-.81.76-2.49 1.255l2.41-4.516c.137-.26.06-.592-.176-.744-.235-.152-.537-.066-.675.193l-2.88 5.392c-.428.09-.904.172-1.43.247l2.218-4.158c.138-.258.06-.592-.175-.744-.235-.152-.537-.066-.675.193l-2.59 4.855c-1.35.138-2.973.223-4.92.223-8.733 0-10.902-1.71-11.326-2.167v-3.305c0-1.53-1.13-2.776-2.52-2.776-.546 0-.988.487-.988 1.087 0 .602.44 1.088.987 1.088.303 0 .548.27.548.603v.126H3.28c-.272 0-.492.243-.492.543 0 .3.22.543.493.543h.548v.303H3.28c-.272 0-.492.243-.492.544 0 .3.22.543.493.543h.548v.303H3.28c-.272 0-.492.243-.492.544 0 .3.22.544.493.544h.548v1.076c0 .198.05.39.14.56.104.19 1.955 3.476 6.667 5.243-.25.058-.43.152-.583.233-.198.105-.34.18-.67.18s-.473-.075-.672-.18c-.242-.13-.544-.29-1.1-.29-.554 0-.856.16-1.098.29-.198.105-.34.18-.67.18s-.474-.075-.672-.18c-.242-.13-.544-.29-1.1-.29-.554 0-.856.16-1.098.29-.198.105-.34.18-.672.18-.33 0-.473-.075-.67-.18-.243-.13-.545-.29-1.1-.29-.272 0-.492.244-.492.545 0 .3.22.544.493.544.33 0 .474.076.672.182.242.128.544.29 1.1.29.554 0 .856-.162 1.098-.29.198-.105.34-.182.67-.182s.474.076.672.182c.242.128.544.29 1.1.29.554 0 .856-.162 1.098-.29.198-.105.34-.182.67-.182s.474.076.672.182c.242.128.544.29 1.098.29.555 0 .857-.162 1.1-.29.197-.105.34-.182.67-.182s.473.076.67.182c.244.128.545.29 1.1.29s.857-.162 1.1-.29c.197-.105.34-.182.67-.182s.473.076.67.182c.244.128.545.29 1.1.29s.857-.162 1.1-.29l.263-.122.694-.033c.15.032.255.087.384.156.243.128.545.29 1.1.29.327 0 .565-.057.756-.13l-.953 1.787-.283-.02c-.517 0-.796.16-1.02.288-.174.1-.29.167-.566.167-.276 0-.392-.066-.565-.166-.225-.127-.504-.286-1.02-.286s-.797.16-1.02.287c-.175.1-.29.167-.567.167-.272 0-.493.243-.493.544 0 .3.22.544.493.544.517 0 .796-.16 1.02-.287.174-.1.29-.166.566-.166.275 0 .39.067.564.167.224.128.503.287 1.02.287s.796-.16 1.02-.287c.174-.1.29-.166.565-.166.275 0 .39.067.565.167.224.128.503.287 1.02.287s.796-.16 1.02-.287c.174-.1.29-.166.566-.166.277 0 .393.067.567.167.224.128.503.287 1.02.287.272 0 .493-.243.493-.543 0-.3-.22-.543-.493-.543-.276 0-.39-.066-.566-.166-.223-.127-.502-.286-1.02-.286s-.795.16-1.02.287c-.173.1-.29.167-.565.167-.158 0-.264-.022-.358-.06l1.32-2.474c.143.03.248.086.374.153.243.128.545.29 1.1.29s.857-.16 1.1-.29c.198-.105.34-.182.67-.182s.474.076.672.182c.243.13.545.29 1.1.29.554 0 .856-.16 1.098-.29.198-.105.34-.182.672-.182.33 0 .473.076.67.182.244.13.546.29 1.1.29.273 0 .493-.244.493-.545 0-.3-.22-.543-.493-.543-.33 0-.473-.075-.67-.18-.244-.13-.545-.29-1.1-.29s-.857.16-1.1.29c-.197.105-.34.18-.67.18s-.474-.075-.672-.18c-.242-.13-.544-.29-1.1-.29-.554 0-.856.16-1.098.29-.198.105-.342.18-.672.18-.31 0-.456-.068-.64-.164 5.253-1.683 7.306-5.29 7.415-5.488zm-7.813 3.34c-1.457.487-3.238.827-5.378.827-4.408 0-7.29-1.44-8.933-2.65-.28-.206-.536-.414-.767-.616 1.965.628 5.004 1.112 9.7 1.112 2.553 0 4.616-.143 6.285-.374l-.906 1.7zm3.576-1.825c-.56.41-1.266.847-2.124 1.247l.707-1.326c.847-.157 1.57-.34 2.187-.537-.233.202-.49.41-.77.617zm-18.164-5.485c.517 0 .796-.16 1.02-.287.174-.1.29-.166.566-.166.276 0 .39.066.566.166.224.128.503.287 1.02.287s.796-.16 1.02-.287c.174-.1.29-.166.566-.166.276 0 .392.066.566.166.224.128.503.287 1.02.287.516 0 .796-.16 1.02-.287.174-.1.29-.166.566-.166.276 0 .392.066.566.166.224.128.503.287 1.02.287.27 0 .493-.243.493-.544 0-.3-.22-.543-.494-.543-.275 0-.39-.066-.564-.164-.224-.13-.503-.288-1.02-.288s-.796.16-1.02.288c-.174.1-.29.164-.565.164-.276 0-.39-.066-.565-.164-.224-.13-.503-.288-1.02-.288s-.796.16-1.02.288c-.174.1-.29.164-.566.164-.277 0-.392-.066-.566-.164-.224-.13-.503-.288-1.02-.288s-.796.16-1.02.288c-.175.1-.29.164-.566.164-.273 0-.493.243-.493.544 0 .3.22.545.493.545zm9.046.645c-.224-.128-.503-.288-1.02-.288s-.796.16-1.02.288c-.174.1-.29.166-.566.166-.276 0-.39-.066-.565-.166-.223-.128-.502-.288-1.02-.288s-.795.16-1.02.288c-.174.1-.29.166-.565.166-.273 0-.493.243-.493.543 0 .3.22.543.493.543.517 0 .796-.16 1.02-.288.174-.1.29-.165.566-.165.277 0 .392.066.567.165.224.128.503.288 1.02.288s.796-.16 1.02-.288c.174-.1.29-.165.566-.165.276 0 .392.066.566.165.223.128.502.288 1.02.288s.795-.16 1.02-.288c.173-.1.288-.165.565-.165.276 0 .39.066.566.165.225.128.504.288 1.02.288.273 0 .494-.243.494-.544 0-.3-.22-.544-.493-.544-.275 0-.39-.066-.564-.166-.224-.128-.503-.288-1.02-.288s-.796.16-1.02.288c-.174.1-.29.166-.566.166-.276 0-.39-.066-.566-.166zm3.276-10.623c.07.038.146.058.223.058.132 0 .258-.057.35-.16.15-.165.188-.42.093-.627-.048-.106-.126-.192-.222-.244-.084-.046-.18-.065-.275-.053l-.2.078-.092.077c-.15.166-.188.42-.093.632.047.103.124.187.217.24zm1.287 5.177c.07.038.145.06.223.06.13 0 .256-.058.348-.16.15-.166.188-.42.093-.63-.048-.104-.127-.19-.222-.242-.085-.047-.18-.066-.276-.054l-.2.078-.092.076c-.152.167-.19.422-.093.633.047.103.124.186.218.24zm-11.613-3.946c.07.04.146.06.223.06.13 0 .256-.06.35-.16.15-.166.187-.42.092-.628-.048-.105-.126-.19-.222-.243-.085-.046-.18-.065-.276-.053l-.202.078-.09.077c-.153.165-.19.42-.094.63.047.104.123.188.217.24zm4.42 2.482l.41.247.225.452c.087.174.253.282.433.282s.346-.108.433-.283l.224-.452.41-.248c.158-.096.257-.278.257-.477 0-.198-.1-.38-.257-.476l-.41-.247-.224-.452c-.087-.175-.252-.283-.433-.283-.18 0-.346.108-.433.283l-.224.452-.41.247c-.158.095-.256.278-.256.476 0 .2.098.382.256.477z" fill="#206FAC"/><path d="M30.317 98.464c.094-.17.143-.365.143-.564v-1.43c0-.334.246-.604.548-.604.545 0 .987-.486.987-1.087 0-.6-.44-1.088-.987-1.088-1.278 0-2.336 1.054-2.498 2.415-.188.21-.81.76-2.49 1.255l2.41-4.516c.137-.26.06-.592-.176-.744-.235-.152-.537-.066-.675.193l-2.88 5.392c-.428.09-.904.172-1.43.247l2.218-4.158c.138-.258.06-.592-.175-.744-.235-.152-.537-.066-.675.193l-2.59 4.855c-1.35.138-2.973.223-4.92.223-8.733 0-10.902-1.71-11.326-2.167V92.83c0-1.53-1.13-2.776-2.52-2.776-.546 0-.988.487-.988 1.087 0 .602.44 1.088.987 1.088.303 0 .548.27.548.603v.126H3.28c-.272 0-.492.243-.492.543 0 .3.22.543.493.543h.548v.303H3.28c-.272 0-.492.243-.492.544 0 .3.22.543.493.543h.548v.303H3.28c-.272 0-.492.243-.492.544 0 .3.22.544.493.544h.548V97.9c0 .198.05.39.14.56.104.19 1.955 3.476 6.667 5.243-.25.058-.43.152-.583.233-.198.105-.34.18-.67.18s-.473-.075-.672-.18c-.242-.13-.544-.29-1.1-.29-.554 0-.856.16-1.098.29-.198.105-.34.18-.67.18s-.474-.075-.672-.18c-.242-.13-.544-.29-1.1-.29-.554 0-.856.16-1.098.29-.198.105-.34.18-.672.18-.33 0-.473-.075-.67-.18-.243-.13-.545-.29-1.1-.29-.272 0-.492.244-.492.545 0 .3.22.544.493.544.33 0 .474.076.672.182.242.128.544.29 1.1.29.554 0 .856-.162 1.098-.29.198-.105.34-.182.67-.182s.474.076.672.182c.242.128.544.29 1.1.29.554 0 .856-.162 1.098-.29.198-.105.34-.182.67-.182s.474.076.672.182c.242.128.544.29 1.098.29.555 0 .857-.162 1.1-.29.197-.105.34-.182.67-.182s.473.076.67.182c.244.128.545.29 1.1.29s.857-.162 1.1-.29c.197-.105.34-.182.67-.182s.473.076.67.182c.244.128.545.29 1.1.29s.857-.162 1.1-.29l.263-.122.694-.033c.15.032.255.087.384.156.243.128.545.29 1.1.29.327 0 .565-.057.756-.13l-.953 1.787-.283-.02c-.517 0-.796.16-1.02.288-.174.1-.29.167-.566.167-.276 0-.392-.066-.565-.166-.225-.127-.504-.286-1.02-.286s-.797.16-1.02.287c-.175.1-.29.167-.567.167-.272 0-.493.243-.493.544 0 .3.22.544.493.544.517 0 .796-.16 1.02-.287.174-.1.29-.166.566-.166.275 0 .39.067.564.167.224.128.503.287 1.02.287s.796-.16 1.02-.287c.174-.1.29-.166.565-.166.275 0 .39.067.565.167.224.128.503.287 1.02.287s.796-.16 1.02-.287c.174-.1.29-.166.566-.166.277 0 .393.067.567.167.224.128.503.287 1.02.287.272 0 .493-.243.493-.543 0-.3-.22-.543-.493-.543-.276 0-.39-.066-.566-.166-.223-.127-.502-.286-1.02-.286s-.795.16-1.02.287c-.173.1-.29.167-.565.167-.158 0-.264-.022-.358-.06l1.32-2.474c.143.03.248.086.374.153.243.128.545.29 1.1.29s.857-.16 1.1-.29c.198-.105.34-.182.67-.182s.474.076.672.182c.243.13.545.29 1.1.29.554 0 .856-.16 1.098-.29.198-.105.34-.182.672-.182.33 0 .473.076.67.182.244.13.546.29 1.1.29.273 0 .493-.244.493-.545 0-.3-.22-.543-.493-.543-.33 0-.473-.075-.67-.18-.244-.13-.545-.29-1.1-.29s-.857.16-1.1.29c-.197.105-.34.18-.67.18s-.474-.075-.672-.18c-.242-.13-.544-.29-1.1-.29-.554 0-.856.16-1.098.29-.198.105-.342.18-.672.18-.31 0-.456-.068-.64-.164 5.253-1.683 7.306-5.29 7.415-5.488zm-7.813 3.34c-1.457.487-3.238.827-5.378.827-4.408 0-7.29-1.44-8.933-2.65-.28-.206-.536-.414-.767-.616 1.965.628 5.004 1.112 9.7 1.112 2.553 0 4.616-.143 6.285-.374l-.906 1.7zm3.576-1.825c-.56.41-1.266.847-2.124 1.247l.707-1.326c.847-.157 1.57-.34 2.187-.537-.233.202-.49.41-.77.617zM7.916 94.494c.517 0 .796-.16 1.02-.287.174-.1.29-.166.566-.166.276 0 .39.066.566.166.224.128.503.287 1.02.287s.796-.16 1.02-.287c.174-.1.29-.166.566-.166.276 0 .392.066.566.166.224.128.503.287 1.02.287.516 0 .796-.16 1.02-.287.174-.1.29-.166.566-.166.276 0 .392.066.566.166.224.128.503.287 1.02.287.27 0 .493-.243.493-.544 0-.3-.22-.543-.494-.543-.275 0-.39-.066-.564-.164-.224-.13-.503-.288-1.02-.288s-.796.16-1.02.288c-.174.1-.29.164-.565.164-.276 0-.39-.066-.565-.164-.224-.13-.503-.288-1.02-.288s-.796.16-1.02.288c-.174.1-.29.164-.566.164-.277 0-.392-.066-.566-.164-.224-.13-.503-.288-1.02-.288s-.796.16-1.02.288c-.175.1-.29.164-.566.164-.273 0-.493.243-.493.544 0 .3.22.545.493.545zm9.046.645c-.224-.128-.503-.288-1.02-.288s-.796.16-1.02.288c-.174.1-.29.166-.566.166-.276 0-.39-.066-.565-.166-.223-.128-.502-.288-1.02-.288s-.795.16-1.02.288c-.174.1-.29.166-.565.166-.273 0-.493.243-.493.543 0 .3.22.543.493.543.517 0 .796-.16 1.02-.288.174-.1.29-.165.566-.165.277 0 .392.066.567.165.224.128.503.288 1.02.288s.796-.16 1.02-.288c.174-.1.29-.165.566-.165.276 0 .392.066.566.165.223.128.502.288 1.02.288s.795-.16 1.02-.288c.173-.1.288-.165.565-.165.276 0 .39.066.566.165.225.128.504.288 1.02.288.273 0 .494-.243.494-.544 0-.3-.22-.544-.493-.544-.275 0-.39-.066-.564-.166-.224-.128-.503-.288-1.02-.288s-.796.16-1.02.288c-.174.1-.29.166-.566.166-.276 0-.39-.066-.566-.166zm3.276-10.623c.07.038.146.058.223.058.132 0 .258-.057.35-.16.15-.165.188-.42.093-.627-.048-.106-.126-.192-.222-.244-.084-.046-.18-.065-.275-.053l-.2.078-.092.077c-.15.166-.188.42-.093.632.047.103.124.187.217.24zm1.287 5.177c.07.038.145.06.223.06.13 0 .256-.058.348-.16.15-.166.188-.42.093-.63-.048-.104-.127-.19-.222-.242-.085-.047-.18-.066-.276-.054l-.2.078-.092.076c-.152.167-.19.422-.093.633.047.103.124.186.218.24zM9.912 85.748c.07.04.146.06.223.06.13 0 .256-.06.35-.16.15-.166.187-.42.092-.628-.048-.105-.126-.19-.222-.243-.085-.046-.18-.065-.276-.053l-.202.078-.09.077c-.153.165-.19.42-.094.63.047.104.123.188.217.24zm4.42 2.482l.41.247.225.452c.087.174.253.282.433.282s.346-.108.433-.283l.224-.452.41-.248c.158-.096.257-.278.257-.477 0-.198-.1-.38-.257-.476l-.41-.247-.224-.452c-.087-.175-.252-.283-.433-.283-.18 0-.346.108-.433.283l-.224.452-.41.247c-.158.095-.256.278-.256.476 0 .2.098.382.256.477z" fill="#fff"/><path d="M30.317 58.464c.094-.17.143-.365.143-.564v-1.43c0-.334.246-.604.548-.604.545 0 .987-.486.987-1.087 0-.6-.44-1.088-.987-1.088-1.278 0-2.336 1.054-2.498 2.415-.188.21-.81.76-2.49 1.255l2.41-4.516c.137-.26.06-.592-.176-.744-.235-.152-.537-.066-.675.193l-2.88 5.392c-.428.09-.904.172-1.43.247l2.218-4.158c.138-.258.06-.592-.175-.744-.235-.152-.537-.066-.675.193l-2.59 4.855c-1.35.138-2.973.223-4.92.223-8.733 0-10.902-1.71-11.326-2.167V52.83c0-1.53-1.13-2.776-2.52-2.776-.546 0-.988.487-.988 1.087 0 .602.44 1.088.987 1.088.303 0 .548.27.548.603v.126H3.28c-.272 0-.492.243-.492.543 0 .3.22.543.493.543h.548v.303H3.28c-.272 0-.492.243-.492.544 0 .3.22.543.493.543h.548v.303H3.28c-.272 0-.492.243-.492.544 0 .3.22.544.493.544h.548V57.9c0 .198.05.39.14.56.104.19 1.955 3.476 6.667 5.243-.25.058-.43.152-.583.233-.198.105-.34.18-.67.18s-.473-.075-.672-.18c-.242-.13-.544-.29-1.1-.29-.554 0-.856.16-1.098.29-.198.105-.34.18-.67.18s-.474-.075-.672-.18c-.242-.13-.544-.29-1.1-.29-.554 0-.856.16-1.098.29-.198.105-.34.18-.672.18-.33 0-.473-.075-.67-.18-.243-.13-.545-.29-1.1-.29-.272 0-.492.244-.492.545 0 .3.22.544.493.544.33 0 .474.076.672.182.242.128.544.29 1.1.29.554 0 .856-.162 1.098-.29.198-.105.34-.182.67-.182s.474.076.672.182c.242.128.544.29 1.1.29.554 0 .856-.162 1.098-.29.198-.105.34-.182.67-.182s.474.076.672.182c.242.128.544.29 1.098.29.555 0 .857-.162 1.1-.29.197-.105.34-.182.67-.182s.473.076.67.182c.244.128.545.29 1.1.29s.857-.162 1.1-.29c.197-.105.34-.182.67-.182s.473.076.67.182c.244.128.545.29 1.1.29s.857-.162 1.1-.29l.263-.122.694-.033c.15.032.255.087.384.156.243.128.545.29 1.1.29.327 0 .565-.057.756-.13l-.953 1.787-.283-.02c-.517 0-.796.16-1.02.288-.174.1-.29.167-.566.167-.276 0-.392-.066-.565-.166-.225-.127-.504-.286-1.02-.286s-.797.16-1.02.287c-.175.1-.29.167-.567.167-.272 0-.493.243-.493.544 0 .3.22.544.493.544.517 0 .796-.16 1.02-.287.174-.1.29-.166.566-.166.275 0 .39.067.564.167.224.128.503.287 1.02.287s.796-.16 1.02-.287c.174-.1.29-.166.565-.166.275 0 .39.067.565.167.224.128.503.287 1.02.287s.796-.16 1.02-.287c.174-.1.29-.166.566-.166.277 0 .393.067.567.167.224.128.503.287 1.02.287.272 0 .493-.243.493-.543 0-.3-.22-.543-.493-.543-.276 0-.39-.066-.566-.166-.223-.127-.502-.286-1.02-.286s-.795.16-1.02.287c-.173.1-.29.167-.565.167-.158 0-.264-.022-.358-.06l1.32-2.474c.143.03.248.086.374.153.243.128.545.29 1.1.29s.857-.16 1.1-.29c.198-.105.34-.182.67-.182s.474.076.672.182c.243.13.545.29 1.1.29.554 0 .856-.16 1.098-.29.198-.105.34-.182.672-.182.33 0 .473.076.67.182.244.13.546.29 1.1.29.273 0 .493-.244.493-.545 0-.3-.22-.543-.493-.543-.33 0-.473-.075-.67-.18-.244-.13-.545-.29-1.1-.29s-.857.16-1.1.29c-.197.105-.34.18-.67.18s-.474-.075-.672-.18c-.242-.13-.544-.29-1.1-.29-.554 0-.856.16-1.098.29-.198.105-.342.18-.672.18-.31 0-.456-.068-.64-.164 5.253-1.683 7.306-5.29 7.415-5.488zm-7.813 3.34c-1.457.487-3.238.827-5.378.827-4.408 0-7.29-1.44-8.933-2.65-.28-.206-.536-.414-.767-.616 1.965.628 5.004 1.112 9.7 1.112 2.553 0 4.616-.143 6.285-.374l-.906 1.7zm3.576-1.825c-.56.41-1.266.847-2.124 1.247l.707-1.326c.847-.157 1.57-.34 2.187-.537-.233.202-.49.41-.77.617zM7.916 54.494c.517 0 .796-.16 1.02-.287.174-.1.29-.166.566-.166.276 0 .39.066.566.166.224.128.503.287 1.02.287s.796-.16 1.02-.287c.174-.1.29-.166.566-.166.276 0 .392.066.566.166.224.128.503.287 1.02.287.516 0 .796-.16 1.02-.287.174-.1.29-.166.566-.166.276 0 .392.066.566.166.224.128.503.287 1.02.287.27 0 .493-.243.493-.544 0-.3-.22-.543-.494-.543-.275 0-.39-.066-.564-.164-.224-.13-.503-.288-1.02-.288s-.796.16-1.02.288c-.174.1-.29.164-.565.164-.276 0-.39-.066-.565-.164-.224-.13-.503-.288-1.02-.288s-.796.16-1.02.288c-.174.1-.29.164-.566.164-.277 0-.392-.066-.566-.164-.224-.13-.503-.288-1.02-.288s-.796.16-1.02.288c-.175.1-.29.164-.566.164-.273 0-.493.243-.493.544 0 .3.22.545.493.545zm9.046.645c-.224-.128-.503-.288-1.02-.288s-.796.16-1.02.288c-.174.1-.29.166-.566.166-.276 0-.39-.066-.565-.166-.223-.128-.502-.288-1.02-.288s-.795.16-1.02.288c-.174.1-.29.166-.565.166-.273 0-.493.243-.493.543 0 .3.22.543.493.543.517 0 .796-.16 1.02-.288.174-.1.29-.165.566-.165.277 0 .392.066.567.165.224.128.503.288 1.02.288s.796-.16 1.02-.288c.174-.1.29-.165.566-.165.276 0 .392.066.566.165.223.128.502.288 1.02.288s.795-.16 1.02-.288c.173-.1.288-.165.565-.165.276 0 .39.066.566.165.225.128.504.288 1.02.288.273 0 .494-.243.494-.544 0-.3-.22-.544-.493-.544-.275 0-.39-.066-.564-.166-.224-.128-.503-.288-1.02-.288s-.796.16-1.02.288c-.174.1-.29.166-.566.166-.276 0-.39-.066-.566-.166zm3.276-10.623c.07.038.146.058.223.058.132 0 .258-.057.35-.16.15-.165.188-.42.093-.627-.048-.106-.126-.192-.222-.244-.084-.046-.18-.065-.275-.053l-.2.078-.092.077c-.15.166-.188.42-.093.632.047.103.124.187.217.24zm1.287 5.177c.07.038.145.06.223.06.13 0 .256-.058.348-.16.15-.166.188-.42.093-.63-.048-.104-.127-.19-.222-.242-.085-.047-.18-.066-.276-.054l-.2.078-.092.076c-.152.167-.19.422-.093.633.047.103.124.186.218.24zM9.912 45.748c.07.04.146.06.223.06.13 0 .256-.06.35-.16.15-.166.187-.42.092-.628-.048-.105-.126-.19-.222-.243-.085-.046-.18-.065-.276-.053l-.202.078-.09.077c-.153.165-.19.42-.094.63.047.104.123.188.217.24zm4.42 2.482l.41.247.225.452c.087.174.253.282.433.282s.346-.108.433-.283l.224-.452.41-.248c.158-.096.257-.278.257-.477 0-.198-.1-.38-.257-.476l-.41-.247-.224-.452c-.087-.175-.252-.283-.433-.283-.18 0-.346.108-.433.283l-.224.452-.41.247c-.158.095-.256.278-.256.476 0 .2.098.382.256.477z" fill="#67737B"/><path d="M30.317 18.464c.094-.17.143-.365.143-.564v-1.43c0-.334.246-.604.548-.604.545 0 .987-.486.987-1.087 0-.6-.44-1.088-.987-1.088-1.278 0-2.336 1.054-2.498 2.415-.188.21-.81.76-2.49 1.255l2.41-4.516c.137-.26.06-.592-.176-.744-.235-.152-.537-.066-.675.193l-2.88 5.392c-.428.09-.904.172-1.43.247l2.218-4.158c.138-.258.06-.592-.175-.744-.235-.152-.537-.066-.675.193l-2.59 4.855c-1.35.138-2.973.223-4.92.223-8.733 0-10.902-1.71-11.326-2.167V12.83c0-1.53-1.13-2.776-2.52-2.776-.546 0-.988.487-.988 1.087 0 .602.44 1.088.987 1.088.303 0 .548.27.548.603v.126H3.28c-.272 0-.492.243-.492.543 0 .3.22.543.493.543h.548v.303H3.28c-.272 0-.492.243-.492.544 0 .3.22.543.493.543h.548v.303H3.28c-.272 0-.492.243-.492.544 0 .3.22.544.493.544h.548V17.9c0 .198.05.39.14.56.104.19 1.955 3.476 6.667 5.243-.25.058-.43.152-.583.233-.198.105-.34.18-.67.18s-.473-.075-.672-.18c-.242-.13-.544-.29-1.1-.29-.554 0-.856.16-1.098.29-.198.105-.34.18-.67.18s-.474-.075-.672-.18c-.242-.13-.544-.29-1.1-.29-.554 0-.856.16-1.098.29-.198.105-.34.18-.672.18-.33 0-.473-.075-.67-.18-.243-.13-.545-.29-1.1-.29-.272 0-.492.244-.492.545 0 .3.22.544.493.544.33 0 .474.076.672.182.242.128.544.29 1.1.29.554 0 .856-.162 1.098-.29.198-.105.34-.182.67-.182s.474.076.672.182c.242.128.544.29 1.1.29.554 0 .856-.162 1.098-.29.198-.105.34-.182.67-.182s.474.076.672.182c.242.128.544.29 1.098.29.555 0 .857-.162 1.1-.29.197-.105.34-.182.67-.182s.473.076.67.182c.244.128.545.29 1.1.29s.857-.162 1.1-.29c.197-.105.34-.182.67-.182s.473.076.67.182c.244.128.545.29 1.1.29s.857-.162 1.1-.29l.263-.122.694-.033c.15.032.255.087.384.156.243.128.545.29 1.1.29.327 0 .565-.057.756-.13l-.953 1.787-.283-.02c-.517 0-.796.16-1.02.288-.174.1-.29.167-.566.167-.276 0-.392-.066-.565-.166-.225-.127-.504-.286-1.02-.286s-.797.16-1.02.287c-.175.1-.29.167-.567.167-.272 0-.493.243-.493.544 0 .3.22.544.493.544.517 0 .796-.16 1.02-.287.174-.1.29-.166.566-.166.275 0 .39.067.564.167.224.128.503.287 1.02.287s.796-.16 1.02-.287c.174-.1.29-.166.565-.166.275 0 .39.067.565.167.224.128.503.287 1.02.287s.796-.16 1.02-.287c.174-.1.29-.166.566-.166.277 0 .393.067.567.167.224.128.503.287 1.02.287.272 0 .493-.243.493-.543 0-.3-.22-.543-.493-.543-.276 0-.39-.066-.566-.166-.223-.127-.502-.286-1.02-.286s-.795.16-1.02.287c-.173.1-.29.167-.565.167-.158 0-.264-.022-.358-.06l1.32-2.474c.143.03.248.086.374.153.243.128.545.29 1.1.29s.857-.16 1.1-.29c.198-.105.34-.182.67-.182s.474.076.672.182c.243.13.545.29 1.1.29.554 0 .856-.16 1.098-.29.198-.105.34-.182.672-.182.33 0 .473.076.67.182.244.13.546.29 1.1.29.273 0 .493-.244.493-.545 0-.3-.22-.543-.493-.543-.33 0-.473-.075-.67-.18-.244-.13-.545-.29-1.1-.29s-.857.16-1.1.29c-.197.105-.34.18-.67.18s-.474-.075-.672-.18c-.242-.13-.544-.29-1.1-.29-.554 0-.856.16-1.098.29-.198.105-.342.18-.672.18-.31 0-.456-.068-.64-.164 5.253-1.683 7.306-5.29 7.415-5.488zm-7.813 3.34c-1.457.487-3.238.827-5.378.827-4.408 0-7.29-1.44-8.933-2.65-.28-.206-.536-.414-.767-.616 1.965.628 5.004 1.112 9.7 1.112 2.553 0 4.616-.143 6.285-.374l-.906 1.7zm3.576-1.825c-.56.41-1.266.847-2.124 1.247l.707-1.326c.847-.157 1.57-.34 2.187-.537-.233.202-.49.41-.77.617zM7.916 14.494c.517 0 .796-.16 1.02-.287.174-.1.29-.166.566-.166.276 0 .39.066.566.166.224.128.503.287 1.02.287s.796-.16 1.02-.287c.174-.1.29-.166.566-.166.276 0 .392.066.566.166.224.128.503.287 1.02.287.516 0 .796-.16 1.02-.287.174-.1.29-.166.566-.166.276 0 .392.066.566.166.224.128.503.287 1.02.287.27 0 .493-.243.493-.544 0-.3-.22-.543-.494-.543-.275 0-.39-.066-.564-.164-.224-.13-.503-.288-1.02-.288s-.796.16-1.02.288c-.174.1-.29.164-.565.164-.276 0-.39-.066-.565-.164-.224-.13-.503-.288-1.02-.288s-.796.16-1.02.288c-.174.1-.29.164-.566.164-.277 0-.392-.066-.566-.164-.224-.13-.503-.288-1.02-.288s-.796.16-1.02.288c-.175.1-.29.164-.566.164-.273 0-.493.243-.493.544 0 .3.22.545.493.545zm9.046.645c-.224-.128-.503-.288-1.02-.288s-.796.16-1.02.288c-.174.1-.29.166-.566.166-.276 0-.39-.066-.565-.166-.223-.128-.502-.288-1.02-.288s-.795.16-1.02.288c-.174.1-.29.166-.565.166-.273 0-.493.243-.493.543 0 .3.22.543.493.543.517 0 .796-.16 1.02-.288.174-.1.29-.165.566-.165.277 0 .392.066.567.165.224.128.503.288 1.02.288s.796-.16 1.02-.288c.174-.1.29-.165.566-.165.276 0 .392.066.566.165.223.128.502.288 1.02.288s.795-.16 1.02-.288c.173-.1.288-.165.565-.165.276 0 .39.066.566.165.225.128.504.288 1.02.288.273 0 .494-.243.494-.544 0-.3-.22-.544-.493-.544-.275 0-.39-.066-.564-.166-.224-.128-.503-.288-1.02-.288s-.796.16-1.02.288c-.174.1-.29.166-.566.166-.276 0-.39-.066-.566-.166zm3.276-10.623c.07.038.146.058.223.058.132 0 .258-.057.35-.16.15-.165.188-.42.093-.627-.048-.106-.126-.192-.222-.244-.084-.046-.18-.065-.275-.053l-.2.078-.092.077c-.15.166-.188.42-.093.632.047.103.124.187.217.24zm1.287 5.177c.07.038.145.06.223.06.13 0 .256-.058.348-.16.15-.166.188-.42.093-.63-.048-.104-.127-.19-.222-.242-.085-.047-.18-.066-.276-.054l-.2.078-.092.076c-.152.167-.19.422-.093.633.047.103.124.186.218.24zM9.912 5.748c.07.04.146.06.223.06.13 0 .256-.06.35-.16.15-.166.187-.42.092-.628-.048-.105-.126-.19-.222-.243-.085-.046-.18-.065-.276-.053l-.202.078-.09.077c-.153.165-.19.42-.094.63.047.104.123.188.217.24zm4.42 2.482l.41.247.225.452c.087.174.253.282.433.282s.346-.108.433-.283l.224-.452.41-.248c.158-.096.257-.278.257-.477 0-.198-.1-.38-.257-.476l-.41-.247-.224-.452c-.087-.175-.252-.283-.433-.283-.18 0-.346.108-.433.283l-.224.452-.41.247c-.158.095-.256.278-.256.476 0 .2.098.382.256.477z" fill="#3A434E"/></g></svg>