<svg width="32" height="232" viewBox="0 0 32 232" xmlns="http://www.w3.org/2000/svg"><desc>Created with Sketch.</desc><g fill="none"><path d="M31.902 128.118c-.186-1.58-.917-2.73-2.06-3.24-.395-.178-.822-.268-1.27-.268-1.345 0-2.76.81-3.917 2.152-.997-1.535-2.366-2.494-3.762-2.494-.224 0-.45.025-.666.074-1.22.275-2.168 1.258-2.664 2.77-.443 1.345-.48 2.99-.108 4.63.572 2.52 2.01 4.55 3.686 5.277l.298 1.545-1.418 2.87-.03.065-2.16 5.397c-.185.46.028.984.483 1.187l1.765.79c.123.056.253.08.38.08.342 0 .67-.187.832-.51l1.577-3.132 1.043 3.82c.113.41.487.683.898.683l.206-.023 1.887-.425c.49-.11.8-.58.715-1.07l-1.04-5.714-.016-.07-.92-3.48.784-1.916c1.786-.382 3.602-2.085 4.665-4.442.69-1.536.982-3.156.817-4.562zm-6.174 7.23c-.114.004-.224.03-.325.074-.224.093-.408.27-.503.503l-2.673 6.534-.038.072-2.167 4.29-.14-.062 1.816-4.537.31-.624 1.367-2.77.18-.364 1.272-2.574c.16-.327.115-.718-.118-1-.275-.33-.467-.854-.53-1.504-.03-.28-.032-.583-.01-.904l.05-.464.096.043.576.26 3.313 1.48c-.84.99-1.778 1.52-2.483 1.544zm-6.458-4.013c-.098-.432-.16-.868-.188-1.295l4.086-.92-.006.015c-.423.938-.69 1.896-.8 2.81l-2.717.61c-.147-.374-.274-.782-.374-1.22zm9.302-4.87c.183 0 .355.034.508.103.513.23.868.873.973 1.766.052.44.04.924-.03 1.425l-3.964-1.777c.743-.883 1.645-1.522 2.51-1.522zm.815 5.455c-.185.41-.39.784-.61 1.123l-2.6-1.163-.212-.095-.97-.434-.574-.253c.11-.388.257-.79.44-1.2.177-.387.39-.777.63-1.146l.15.066 4.19 1.875c-.11.41-.26.827-.44 1.23zm-10.055-4.23c.28-.855.757-1.416 1.306-1.54l.256-.027c.9 0 1.777.87 2.412 2.017l-4.228.952c.03-.505.115-.98.254-1.403zm2.84 7.73c-.686-.166-1.5-.87-2.126-2.004l2.256-.508c0 1.007.208 1.923.62 2.65l-.155.315c-.124-.224-.337-.392-.596-.454zm2.574 7.535l.874 4.806-.148.037-1.286-4.714-.065-.34.35-.844.28 1.057zm-13.16-13.375c.274-.23.665-.233.94-.03l.01.02c.076.164.24.27.42.27h.058c.18 0 .346-.105.422-.27l.01-.02c.275-.202.665-.2.94.03.196.164.49.14.655-.057.17-.196.14-.488-.053-.653-.58-.484-1.392-.515-1.998-.13-.607-.384-1.42-.354-2 .13-.197.164-.223.457-.057.653s.46.222.656.057zm1.124-2.65c.274-.23.665-.233.94-.03l.01.02c.076.163.24.268.422.268h.056c.18 0 .345-.104.422-.268l.01-.02c.275-.203.665-.2.94.03.196.164.49.138.655-.058.165-.196.14-.488-.057-.653-.58-.488-1.392-.518-1.998-.13-.606-.388-1.42-.358-1.998.13-.197.16-.223.453-.057.65.165.195.46.22.655.056zm4.936 7.397c0-.373-.24-.895-1.39-1.26-.733-.234-1.7-.362-2.72-.362s-1.984.128-2.717.36l-.31.11h-.09c-.932 0-1.815.116-2.485.33-1.07.34-1.295.834-1.295 1.187 0 .158.046.343.19.53l.59 6.387-.246 1.605-.256-.037H4.903l1.457-16.7c.476.21.874.55 1.15.988.357.56.47 1.22.318 1.857-.06.25.096.498.346.557l.107.012c.21 0 .405-.144.456-.357.208-.883.054-1.794-.436-2.567-.338-.533-.806-.957-1.36-1.244 1.016-.45 2.265-.26 3.08.56.09.09.21.137.33.137.117 0 .235-.043.326-.133.183-.18.185-.474.005-.656-1.08-1.09-2.74-1.353-4.095-.764.404-.916 1.357-1.56 2.467-1.56.258 0 .466-.208.466-.463s-.208-.462-.465-.462c-1.34 0-2.51.707-3.13 1.75-.622-1.043-1.792-1.75-3.132-1.75-.255 0-.464.21-.464.464 0 .257.21.464.465.464 1.11 0 2.064.644 2.468 1.56-1.358-.59-3.016-.327-4.096.763-.18.18-.18.475.003.655.09.09.21.134.327.134.12 0 .24-.047.33-.14.81-.82 2.06-1.01 3.077-.56-.555.288-1.024.713-1.36 1.245-.49.774-.645 1.684-.437 2.567.05.213.244.357.455.357l.107-.013c.25-.06.406-.308.347-.557-.15-.638-.04-1.298.316-1.86.264-.416.638-.744 1.084-.956l-2.336 16.67H.934c-.513 0-.93.413-.93.925s.417.925.93.925H6.9l-.108.708c-.02.132.02.27.107.37.085.103.214.162.35.162h2.37l-.03.203c-.02.132.02.268.104.37.088.103.217.162.352.162h6.975c.137 0 .265-.06.353-.16.09-.104.128-.24.107-.373l-.694-4.55.65-7.037c.158-.2.207-.397.207-.565zm-8.768-.098c.173-.035.363-.06.57-.08l-.013.08-.006.094c0 .11.02.235.08.365l.123.2.024.263.01.1c-.296-.023-.56-.057-.793-.1-.726-.132-1.156-.335-1.28-.463.124-.126.553-.33 1.28-.46zm4.386-.597l.274-.004c.895 0 1.605.102 2.125.232.61.153.96.346 1.043.463-.084.118-.434.31-1.043.464-.397.1-.905.182-1.522.215l-.102.005-.463.01h-.033c-.32 0-.613-.01-.885-.033-.49-.04-.904-.112-1.24-.196l-.344-.1c-.397-.13-.63-.27-.697-.363l.11-.098.224-.125c.173-.08.41-.166.71-.24.158-.04.335-.078.53-.11.374-.063.815-.108 1.32-.12zM7.94 135.88l.075.02.3 4.142c.016.244.22.43.463.43h.034c.256-.02.45-.24.43-.496l-.278-3.87.317.042v.025l.16 3.816c.01.245.22.44.467.44h.02c.08-.003.154-.028.218-.066l.073.795h-1.9l-.49-5.32.114.04zm.352 6.207h1.97l-.498 3.262h-1.97l.497-3.266zm5.68 3.998h-3.38l.043-.272.52-3.405h4.768l.56 3.677h-2.51zm1.925-4.604H11.18l-.03-.32-.458-4.95-.02-.217-.023-.245-.02-.22.19.065.26.075v.028l.002.034.313 4.34c.018.245.222.43.464.43h.033l.13-.03c.187-.07.316-.256.3-.465l-.282-3.92-.016-.233.342.04.094.01.007.1.133 3.155.035.858.002.012c.016.23.2.41.428.428l.035.003h.022c.256-.01.456-.226.445-.482l-.143-3.39-.027-.635h.143l.41-.005-.17 4.03c-.01.256.188.472.446.482h.02c.248 0 .454-.195.464-.443l.175-4.14.437-.064-.303 4.193c-.02.255.17.477.43.495h.03c.243 0 .447-.186.465-.43l.324-4.486.18-.06-.55 5.958z" fill="#206FAC"/><path d="M31.902 88.118c-.186-1.58-.917-2.73-2.06-3.24-.395-.178-.822-.268-1.27-.268-1.345 0-2.76.81-3.917 2.152-.997-1.535-2.366-2.494-3.762-2.494-.224 0-.45.025-.666.074-1.22.275-2.168 1.258-2.664 2.77-.443 1.345-.48 2.99-.108 4.63.572 2.52 2.01 4.55 3.686 5.277l.298 1.545-1.418 2.87-.03.065-2.16 5.397c-.185.46.028.984.483 1.187l1.765.79c.123.056.253.08.38.08.342 0 .67-.187.832-.51l1.577-3.132 1.043 3.82c.113.41.487.683.898.683l.206-.023 1.887-.425c.49-.11.8-.58.715-1.07l-1.04-5.714-.016-.07-.92-3.48.784-1.916c1.786-.382 3.602-2.085 4.665-4.442.69-1.536.982-3.156.817-4.562zm-6.174 7.23c-.114.004-.224.03-.325.074-.224.093-.408.27-.503.503l-2.673 6.534-.038.072-2.167 4.29-.14-.062 1.816-4.537.31-.624 1.367-2.77.18-.364 1.272-2.574c.16-.327.115-.718-.118-1-.275-.33-.467-.854-.53-1.504-.03-.28-.032-.583-.01-.904l.05-.464.096.043.576.26 3.313 1.48c-.84.99-1.778 1.52-2.483 1.544zm-6.458-4.013c-.098-.432-.16-.868-.188-1.295l4.086-.92-.006.015c-.423.938-.69 1.896-.8 2.81l-2.717.61c-.147-.374-.274-.782-.374-1.22zm9.302-4.87c.183 0 .355.034.508.103.513.23.868.873.973 1.766.052.44.04.924-.03 1.425l-3.964-1.777c.743-.883 1.645-1.522 2.51-1.522zm.815 5.455c-.185.41-.39.784-.61 1.123l-2.6-1.163-.212-.095-.97-.434-.574-.253c.11-.388.257-.79.44-1.2.177-.387.39-.777.63-1.146l.15.066 4.19 1.875c-.11.41-.26.827-.44 1.23zm-10.055-4.23c.28-.855.757-1.416 1.306-1.54l.256-.027c.9 0 1.777.87 2.412 2.017l-4.228.952c.03-.505.115-.98.254-1.403zm2.84 7.73c-.686-.166-1.5-.87-2.126-2.004l2.256-.508c0 1.007.208 1.923.62 2.65l-.155.315c-.124-.224-.337-.392-.596-.454zm2.574 7.535l.874 4.806-.148.037-1.286-4.714-.065-.34.35-.844.28 1.057zM11.586 89.58c.274-.23.665-.233.94-.03l.01.02c.076.164.24.27.42.27h.058c.18 0 .346-.105.422-.27l.01-.02c.275-.202.665-.2.94.03.196.164.49.14.655-.057.17-.196.14-.488-.053-.653-.58-.484-1.392-.515-1.998-.13-.607-.384-1.42-.354-2 .13-.197.164-.223.457-.057.653s.46.222.656.057zm1.124-2.65c.274-.23.665-.233.94-.03l.01.02c.076.163.24.268.422.268h.056c.18 0 .345-.104.422-.268l.01-.02c.275-.203.665-.2.94.03.196.164.49.138.655-.058.165-.196.14-.488-.057-.653-.58-.488-1.392-.518-1.998-.13-.606-.388-1.42-.358-1.998.13-.197.16-.223.453-.057.65.165.195.46.22.655.056zm4.936 7.397c0-.373-.24-.895-1.39-1.26-.733-.234-1.7-.362-2.72-.362s-1.984.128-2.717.36l-.31.11h-.09c-.932 0-1.815.116-2.485.33-1.07.34-1.295.834-1.295 1.187 0 .158.046.343.19.53l.59 6.387-.246 1.605-.256-.037H4.903L6.36 86.482c.475.21.873.55 1.15.987.356.56.468 1.22.317 1.857-.06.25.096.498.346.557l.107.012c.21 0 .402-.144.453-.357.208-.883.054-1.794-.436-2.567-.337-.533-.805-.957-1.36-1.244 1.017-.45 2.266-.26 3.08.56.09.09.21.137.33.137.118 0 .236-.044.327-.134.183-.18.185-.473.005-.655-1.085-1.09-2.74-1.356-4.1-.767.404-.914 1.357-1.56 2.467-1.56.256 0 .464-.206.464-.46s-.207-.463-.464-.463c-1.34 0-2.51.705-3.13 1.75-.624-1.045-1.794-1.75-3.134-1.75-.256 0-.465.207-.465.462s.21.462.466.462c1.11 0 2.063.644 2.467 1.56-1.357-.59-3.015-.327-4.095.763-.18.18-.18.474.004.654.09.09.21.133.326.133.12 0 .24-.046.33-.138.812-.82 2.06-1.012 3.078-.56-.554.287-1.023.712-1.36 1.244-.49.772-.644 1.682-.436 2.565.05.213.24.357.452.357l.107-.012c.25-.06.404-.307.345-.556-.15-.638-.038-1.298.317-1.86.263-.416.637-.744 1.083-.956L3.07 103.18H.935c-.513 0-.93.415-.93.927s.417.926.93.926H6.9l-.108.707c-.02.133.02.27.107.37.085.104.214.163.35.163h2.37l-.03.203c-.02.132.02.268.104.37.088.103.217.162.352.162h6.975c.137 0 .265-.06.353-.16.09-.104.128-.24.107-.373l-.694-4.55.65-7.037c.158-.2.207-.397.207-.565zm-8.768-.098c.173-.035.363-.06.57-.08l-.013.08-.006.094c0 .11.02.235.08.365l.123.2.024.263.01.1c-.296-.023-.56-.057-.793-.1-.726-.132-1.156-.335-1.28-.463.124-.126.553-.33 1.28-.46zm4.386-.597l.274-.004c.895 0 1.605.102 2.125.232.61.153.96.346 1.043.463-.084.118-.434.31-1.043.464-.397.1-.905.182-1.522.215l-.102.005-.463.01h-.033c-.32 0-.613-.01-.885-.033-.49-.04-.904-.112-1.24-.196l-.344-.1c-.397-.13-.63-.27-.697-.363l.11-.098.224-.125c.173-.08.41-.166.71-.24.158-.04.335-.078.53-.11.374-.063.815-.108 1.32-.12zM7.94 95.88l.075.02.3 4.142c.016.244.22.43.463.43h.034c.256-.02.45-.24.43-.496l-.278-3.87.317.042v.025l.16 3.816c.01.245.22.44.467.44h.02c.08-.003.154-.028.218-.066l.073.795h-1.9l-.49-5.32.114.04zm.352 6.207h1.97l-.498 3.262h-1.97l.497-3.266zm5.68 3.998h-3.38l.043-.272.52-3.405h4.768l.56 3.677h-2.51zm1.925-4.604H11.18l-.03-.32-.458-4.95-.02-.217-.023-.245-.02-.22.19.065.26.075v.028l.002.034.313 4.34c.018.245.222.43.464.43h.033l.13-.03c.187-.07.316-.256.3-.465l-.282-3.92-.016-.233.342.04.094.01.007.1.133 3.155.035.858.002.012c.016.23.2.41.428.428l.035.003h.022c.256-.01.456-.226.445-.482l-.143-3.39-.027-.635h.143l.41-.005-.17 4.03c-.01.256.188.472.446.482h.02c.248 0 .454-.195.464-.443l.175-4.14.437-.064-.303 4.193c-.02.255.17.477.43.495h.03c.243 0 .447-.186.465-.43l.324-4.486.18-.06-.55 5.958z" fill="#fff"/><path d="M31.902 48.118c-.186-1.58-.917-2.73-2.06-3.24-.395-.178-.822-.268-1.27-.268-1.345 0-2.76.81-3.917 2.152-.997-1.535-2.366-2.494-3.762-2.494-.224 0-.45.025-.666.074-1.22.275-2.168 1.258-2.664 2.77-.443 1.345-.48 2.99-.108 4.63.572 2.52 2.01 4.55 3.686 5.277l.298 1.545-1.418 2.87-.03.065-2.16 5.4c-.186.46.027.984.482 1.187l1.765.79c.123.056.253.08.38.08.342 0 .67-.187.832-.51l1.575-3.132 1.043 3.82c.112.41.486.683.897.683l.206-.023 1.888-.425c.49-.11.8-.58.713-1.07l-1.04-5.714-.015-.07-.92-3.48.785-1.916c1.786-.382 3.602-2.085 4.665-4.442.692-1.536.983-3.156.818-4.562zm-6.174 7.23c-.114.004-.224.03-.325.074-.224.093-.408.27-.503.503l-2.673 6.534-.038.072-2.167 4.29-.14-.062 1.816-4.537.31-.624 1.367-2.77.18-.364 1.272-2.574c.16-.327.115-.718-.118-1-.275-.33-.467-.854-.53-1.504-.03-.28-.032-.583-.01-.904l.05-.464.096.043.576.26 3.313 1.48c-.84.99-1.778 1.52-2.483 1.544zm-6.458-4.013c-.098-.432-.16-.868-.188-1.295l4.086-.92-.006.015c-.423.938-.69 1.896-.8 2.81l-2.717.61c-.147-.374-.274-.782-.374-1.22zm9.302-4.87c.183 0 .355.034.508.103.513.23.868.873.973 1.766.052.44.04.924-.03 1.425l-3.964-1.777c.743-.883 1.645-1.522 2.51-1.522zm.815 5.455c-.185.41-.39.784-.61 1.123l-2.6-1.163-.212-.095-.97-.434-.574-.253c.11-.388.257-.79.44-1.2.177-.387.39-.777.63-1.146l.15.066 4.19 1.875c-.11.41-.26.827-.44 1.23zm-10.055-4.23c.28-.855.757-1.416 1.306-1.54l.256-.027c.9 0 1.777.87 2.412 2.017l-4.228.952c.03-.505.115-.98.254-1.403zm2.84 7.73c-.686-.166-1.5-.87-2.126-2.004l2.256-.508c0 1.007.208 1.923.62 2.65l-.155.315c-.124-.224-.337-.392-.596-.454zm2.574 7.535l.874 4.806-.148.037-1.286-4.714-.065-.34.35-.844.28 1.057zM11.586 49.58c.274-.23.665-.233.94-.03l.01.02c.076.164.24.27.42.27h.058c.18 0 .346-.105.422-.27l.01-.02c.275-.202.665-.2.94.03.196.164.49.14.655-.057.17-.196.14-.488-.053-.653-.58-.484-1.392-.515-1.998-.13-.607-.384-1.42-.354-2 .13-.197.164-.223.457-.057.653s.46.222.656.057zm1.124-2.65c.274-.23.665-.233.94-.03l.01.02c.076.163.24.268.422.268h.056c.18 0 .345-.104.422-.268l.01-.02c.275-.203.665-.2.94.03.196.164.49.138.655-.058.165-.196.14-.488-.057-.653-.58-.488-1.392-.518-1.998-.13-.606-.388-1.42-.358-1.998.13-.197.16-.223.453-.057.65.165.195.46.22.655.056zm4.936 7.397c0-.373-.24-.895-1.39-1.26-.733-.234-1.7-.362-2.72-.362s-1.984.128-2.717.36l-.31.11h-.09c-.932 0-1.815.116-2.485.33-1.07.34-1.295.834-1.295 1.187 0 .158.046.343.19.53l.59 6.387-.246 1.605-.256-.037H4.903L6.36 46.482c.475.21.873.55 1.15.987.356.56.468 1.22.317 1.857-.06.25.096.498.346.557l.107.012c.21 0 .402-.144.453-.357.208-.883.054-1.794-.436-2.567-.337-.533-.805-.957-1.36-1.244 1.017-.45 2.266-.26 3.08.56.09.09.21.137.33.137.118 0 .236-.044.327-.134.183-.18.185-.473.005-.655-1.085-1.09-2.74-1.356-4.1-.767.404-.914 1.357-1.56 2.467-1.56.256 0 .464-.206.464-.46s-.207-.463-.464-.463c-1.34 0-2.51.705-3.13 1.75-.624-1.045-1.794-1.75-3.134-1.75-.256 0-.465.207-.465.462s.21.462.466.462c1.11 0 2.063.644 2.467 1.56-1.357-.59-3.015-.327-4.095.763-.18.18-.18.474.004.654.09.09.21.133.326.133.12 0 .24-.046.33-.138.812-.82 2.06-1.012 3.078-.56-.554.287-1.023.712-1.36 1.244-.49.772-.644 1.682-.436 2.565.05.213.24.357.452.357l.107-.012c.25-.06.404-.307.345-.556-.15-.638-.038-1.298.317-1.86.263-.416.637-.744 1.083-.956L3.07 63.18H.935c-.513 0-.93.415-.93.927s.417.926.93.926H6.9l-.108.707c-.02.133.02.27.107.37.085.104.214.163.35.163h2.37l-.03.203c-.02.132.02.268.104.37.088.103.217.162.352.162h6.975c.137 0 .265-.06.353-.16.09-.104.128-.24.107-.373l-.694-4.55.65-7.037c.158-.2.207-.397.207-.565zm-8.768-.098c.173-.035.363-.06.57-.08l-.013.08-.006.094c0 .11.02.235.08.365l.123.2.024.263.01.1c-.296-.023-.56-.057-.793-.1-.726-.132-1.156-.335-1.28-.463.124-.126.553-.33 1.28-.46zm4.386-.597l.274-.004c.895 0 1.605.102 2.125.232.61.153.96.346 1.043.463-.084.118-.434.31-1.043.464-.397.1-.905.182-1.522.215l-.102.005-.463.01h-.033c-.32 0-.613-.01-.885-.033-.49-.04-.904-.112-1.24-.196l-.344-.1c-.397-.13-.63-.27-.697-.363l.11-.098.224-.125c.173-.08.41-.166.71-.24.158-.04.335-.078.53-.11.374-.063.815-.108 1.32-.12zM7.94 55.88l.075.02.3 4.142c.016.244.22.43.463.43h.034c.256-.02.45-.24.43-.496l-.278-3.87.317.042v.025l.16 3.816c.01.245.22.44.467.44h.02c.08-.003.154-.028.218-.066l.073.795h-1.9l-.49-5.32.114.04zm.352 6.207h1.97l-.498 3.262h-1.97l.497-3.266zm5.68 3.998h-3.38l.043-.272.52-3.405h4.768l.56 3.677h-2.51zm1.925-4.604H11.18l-.03-.32-.458-4.95-.02-.217-.023-.245-.02-.22.19.065.26.075v.028l.002.034.313 4.34c.018.245.222.43.464.43h.033l.13-.03c.187-.07.316-.256.3-.465l-.282-3.92-.016-.233.342.04.094.01.007.1.133 3.155.035.858.002.012c.016.23.2.41.428.428l.035.003h.022c.256-.01.456-.226.445-.482l-.143-3.39-.027-.635h.143l.41-.005-.17 4.03c-.01.256.188.472.446.482h.02c.248 0 .454-.195.464-.443l.175-4.14.437-.064-.303 4.193c-.02.255.17.477.43.495h.03c.243 0 .447-.186.465-.43l.324-4.486.18-.06-.55 5.958z" fill="#67737B"/><path d="M31.902 8.118c-.186-1.58-.917-2.73-2.06-3.24-.395-.178-.822-.268-1.27-.268-1.345 0-2.76.81-3.917 2.152-.997-1.535-2.366-2.494-3.762-2.494-.224 0-.45.025-.666.074-1.22.275-2.168 1.258-2.664 2.77-.443 1.345-.48 2.99-.108 4.63.572 2.52 2.01 4.55 3.686 5.277l.298 1.545-1.418 2.87-.03.065-2.16 5.4c-.186.46.027.984.482 1.187l1.765.79c.123.056.253.08.38.08.342 0 .67-.187.832-.51l1.575-3.132 1.043 3.82c.112.41.486.683.897.683l.206-.023 1.888-.425c.49-.11.8-.58.713-1.07l-1.04-5.714-.015-.07-.92-3.48.785-1.916c1.786-.382 3.602-2.085 4.665-4.442.692-1.536.983-3.156.818-4.562zm-6.174 7.23c-.114.004-.224.03-.325.074-.224.093-.408.27-.503.503l-2.673 6.534-.038.072-2.167 4.29-.14-.062 1.816-4.537.31-.624 1.367-2.77.18-.364 1.272-2.574c.16-.327.115-.718-.118-1-.275-.33-.467-.854-.53-1.504-.03-.28-.032-.583-.01-.904l.05-.464.096.043.576.26 3.313 1.48c-.84.99-1.778 1.52-2.483 1.544zm-6.458-4.013c-.098-.432-.16-.868-.188-1.295l4.086-.92-.006.015c-.423.938-.69 1.896-.8 2.81l-2.717.61c-.147-.374-.274-.782-.374-1.22zm9.302-4.87c.183 0 .355.034.508.103.513.23.868.873.973 1.766.052.44.04.924-.03 1.425L26.06 7.982c.745-.883 1.647-1.522 2.51-1.522zm.815 5.455c-.185.41-.39.784-.61 1.123l-2.6-1.163-.212-.095-.97-.434-.574-.253c.11-.388.257-.79.44-1.2.177-.387.39-.777.63-1.146l.15.066 4.19 1.875c-.11.41-.26.827-.44 1.23zM19.332 7.69c.28-.855.757-1.416 1.306-1.54l.256-.027c.9 0 1.777.87 2.412 2.017l-4.228.952c.03-.505.115-.98.254-1.403zm2.84 7.73c-.686-.166-1.5-.87-2.126-2.004l2.256-.508c0 1.007.208 1.923.62 2.65l-.155.315c-.124-.224-.337-.392-.596-.454zm2.574 7.535l.874 4.806-.148.037-1.286-4.714-.065-.34.35-.844.28 1.057zM11.586 9.58c.274-.23.665-.233.94-.03l.01.02c.076.164.24.27.42.27h.058c.18 0 .346-.105.422-.27l.01-.02c.275-.202.665-.2.94.03.196.164.49.14.655-.057.17-.196.14-.488-.053-.653-.58-.484-1.392-.515-1.998-.13-.607-.384-1.42-.354-2 .13-.197.164-.223.457-.057.653s.46.222.656.057zm1.124-2.65c.274-.23.665-.233.94-.03l.01.02c.076.163.24.268.422.268h.056c.18 0 .345-.104.422-.268l.01-.02c.275-.203.665-.2.94.03.196.164.49.138.655-.058.165-.196.14-.488-.057-.653-.58-.488-1.392-.518-1.998-.13-.606-.388-1.42-.358-1.998.13-.197.16-.223.453-.057.65.165.195.46.22.655.056zm4.936 7.397c0-.373-.24-.895-1.39-1.26-.733-.234-1.7-.362-2.72-.362s-1.984.128-2.717.36l-.31.11h-.09c-.932 0-1.815.116-2.485.33-1.07.34-1.295.834-1.295 1.187 0 .158.046.343.19.53l.59 6.387-.246 1.605-.256-.037H4.903L6.36 6.482c.475.21.873.55 1.15.987.356.56.468 1.22.317 1.857-.06.25.096.498.346.557l.107.012c.21 0 .402-.144.453-.357.208-.883.054-1.794-.436-2.567-.337-.533-.805-.957-1.36-1.244 1.017-.45 2.266-.26 3.08.56.09.09.21.137.33.137.118 0 .236-.044.327-.134.183-.18.185-.473.005-.655-1.085-1.09-2.74-1.356-4.1-.767.404-.914 1.357-1.56 2.467-1.56.256 0 .464-.206.464-.46s-.207-.463-.464-.463c-1.34 0-2.51.705-3.13 1.75-.624-1.045-1.794-1.75-3.134-1.75-.256 0-.465.207-.465.462s.21.462.466.462c1.11 0 2.063.644 2.467 1.56-1.357-.59-3.015-.327-4.095.763-.18.18-.18.474.004.654.09.09.21.133.326.133.12 0 .24-.046.33-.138.812-.82 2.06-1.012 3.078-.56-.554.287-1.023.712-1.36 1.244-.49.772-.644 1.682-.436 2.565.05.213.24.357.452.357l.107-.012c.25-.06.404-.307.345-.556-.15-.638-.038-1.298.317-1.86.263-.416.637-.744 1.083-.956L3.07 23.18H.935c-.513 0-.93.415-.93.927s.417.926.93.926H6.9l-.108.707c-.02.133.02.27.107.37.085.104.214.163.35.163h2.37l-.03.203c-.02.132.02.268.104.37.088.103.217.162.352.162h6.975c.137 0 .265-.06.353-.16.09-.104.128-.24.107-.373l-.694-4.55.65-7.037c.158-.2.207-.397.207-.565zm-8.768-.098c.173-.035.363-.06.57-.08l-.013.08-.006.094c0 .11.02.235.08.365l.123.2.024.263.01.1c-.296-.023-.56-.057-.793-.1-.726-.132-1.156-.335-1.28-.463.124-.126.553-.33 1.28-.46zm4.386-.597l.274-.004c.895 0 1.605.102 2.125.232.61.153.96.346 1.043.463-.084.118-.434.31-1.043.464-.397.1-.905.182-1.522.215l-.102.005-.463.01h-.033c-.32 0-.613-.01-.885-.033-.49-.04-.904-.112-1.24-.196l-.344-.1c-.397-.13-.63-.27-.697-.363l.11-.098.224-.125c.173-.08.41-.166.71-.24.158-.04.335-.078.53-.11.374-.063.815-.108 1.32-.12zM7.94 15.88l.075.02.3 4.142c.016.244.22.43.463.43h.034c.256-.02.45-.24.43-.496l-.278-3.87.317.042v.025l.16 3.816c.01.245.22.44.467.44h.02c.08-.003.154-.028.218-.066l.073.795h-1.9l-.49-5.32.114.04zm.352 6.207h1.97l-.498 3.262h-1.97l.497-3.266zm5.68 3.998h-3.38l.043-.272.52-3.405h4.768l.56 3.677h-2.51zm1.925-4.604H11.18l-.03-.32-.458-4.95-.02-.217-.023-.245-.02-.22.19.065.26.075v.028l.002.034.313 4.34c.018.245.222.43.464.43h.033l.13-.03c.187-.07.316-.256.3-.465l-.282-3.92-.016-.233.342.04.094.01.007.1.133 3.155.035.858.002.012c.016.23.2.41.428.428l.035.003h.022c.256-.01.456-.226.445-.482l-.143-3.39-.027-.635h.143l.41-.005-.17 4.03c-.01.256.188.472.446.482h.02c.248 0 .454-.195.464-.443l.175-4.14.437-.064-.303 4.193c-.02.255.17.477.43.495h.03c.243 0 .447-.186.465-.43l.324-4.486.18-.06-.55 5.958z" fill="#3A434E"/></g></svg>