<svg width="32" height="232" viewBox="0 0 32 232" xmlns="http://www.w3.org/2000/svg"><desc>Created with Sketch.</desc><g fill="none"><path d="M30.517 149.72h-.683v-3.99c.147-.1.244-.272.244-.467s-.097-.366-.244-.467v-.742c.147-.1.244-.27.244-.466s-.097-.367-.244-.467v-.74c.147-.1.244-.27.244-.465s-.098-.368-.247-.468c-.014-.292-.25-.525-.534-.525-.288 0-.52.233-.538.525-.148.1-.247.272-.247.468 0 .195.097.367.244.467v.74c-.147.1-.244.272-.244.467s.095.365.242.465v.742c-.147.1-.244.27-.244.467 0 .195.096.366.243.466v3.99h-1.87v-10c2.008-.94 3.286-2.22 3.286-3.823 0-.617-.485-1.117-1.083-1.117s-1.083.5-1.083 1.117c0 .21-.138.47-.42.754l-3.65-1.523-.12-.04v-2.23c1.386-.346 2.627-.795 3.637-1.342l.218-.122c1.546-.89 2.496-2.032 2.496-3.413 0-.617-.483-1.117-1.08-1.117s-1.084.5-1.084 1.117c0 .36-.394.863-1.24 1.377-.312-.008-.62-.03-.927-.065v-.885c0-.308-.243-.56-.54-.56-.3 0-.543.252-.543.56v.704c-3.325-.735-6.205-3.04-7.688-6.282-.09-.228-.248-.426-.467-.555v-1.71c0-.307-.242-.56-.54-.56-.3 0-.542.253-.542.56v1.707c-.23.135-.394.345-.48.587-1.486 3.228-4.36 5.52-7.673 6.255v-.705c0-.308-.242-.56-.54-.56-.3 0-.542.252-.542.56v.886c-.306.038-.616.06-.927.067-.848-.514-1.243-1.015-1.243-1.375 0-.616-.485-1.116-1.083-1.116s-1.082.5-1.082 1.115c0 1.382.95 2.522 2.498 3.414l.216.12c1.01.548 2.252.996 3.636 1.343v2.227l-.12.04-3.647 1.524c-.282-.282-.417-.54-.417-.753 0-.615-.485-1.115-1.083-1.115s-1.083.5-1.083 1.117c0 1.605 1.28 2.884 3.286 3.825v10h-1.96v-3.99c.146-.1.243-.272.243-.467s-.1-.366-.246-.467v-.74c.148-.1.245-.27.245-.467s-.1-.367-.246-.467v-.74c.147-.1.244-.273.244-.47s-.1-.367-.248-.467c-.018-.293-.25-.526-.538-.526-.288 0-.52.232-.538.524-.15.1-.247.273-.247.47 0 .194.096.366.243.466v.74c-.147.1-.244.273-.244.468s.096.368.243.468v.742c-.148.1-.245.27-.245.466 0 .195.097.366.244.466v3.99h-.707c-.598 0-1.083.5-1.083 1.117s.485 1.115 1.083 1.115h29.035c.598 0 1.083-.5 1.083-1.117s-.483-1.117-1.082-1.117zm-8.867-14.673h-.635v-1.65l.635-.095v1.745zm-9.47-1.514c1.263.135 2.57.204 3.876.204 1.305 0 2.612-.07 3.877-.204v1.514H12.18v-1.514zm3.876-8.02c1.604 2.482 3.954 4.342 6.647 5.317-1.967.437-4.25.672-6.647.672s-4.68-.235-6.647-.672c2.69-.975 5.04-2.835 6.643-5.316zm-4.96 7.885v1.65h-.634V133.3l.635.096zm-2.302 3.884H23.32l1.816.76-.22.08c-2.35.837-5.497 1.298-8.86 1.298-3.363 0-6.51-.46-8.86-1.298l-.22-.08 1.817-.76zm3.266 4.154c-1.057.485-2.026 1.164-2.866 2.015v-2.464c.913.192 1.875.344 2.866.453zm-2.866 3.687c1.67-2.187 4.16-3.44 6.862-3.44 2.703 0 5.193 1.252 6.862 3.44v1.563c-1.36-2.464-3.925-4.13-6.862-4.13-2.938 0-5.504 1.666-6.862 4.13v-1.563zm13.724-1.672c-.84-.85-1.81-1.53-2.866-2.01.99-.11 1.953-.26 2.866-.454v2.468zm-15.52-2.915l.713.198v8.99H7.4v-9.187zm1.916 9.19c.464-3.414 3.31-6.05 6.742-6.05s6.278 2.636 6.742 6.05H9.315zM24 140.73l.714-.198v9.19H24v-8.992z" fill="#206FAC"/><path d="M30.517 109.72h-.683v-3.99c.147-.1.244-.272.244-.467s-.097-.366-.244-.467v-.742c.147-.1.244-.27.244-.466s-.097-.367-.244-.467v-.74c.147-.1.244-.27.244-.465s-.098-.368-.247-.468c-.014-.292-.25-.525-.534-.525-.288 0-.52.233-.538.525-.148.1-.247.272-.247.468 0 .195.097.367.244.467v.74c-.147.1-.244.272-.244.467s.095.365.242.465v.742c-.147.1-.244.27-.244.467 0 .195.096.366.243.466v3.99h-1.87v-10c2.008-.94 3.286-2.22 3.286-3.823 0-.617-.485-1.117-1.083-1.117S28 95.28 28 95.898c0 .21-.136.47-.42.753l-3.647-1.52-.12-.04v-2.23c1.385-.345 2.626-.794 3.636-1.34l.215-.123c1.546-.89 2.496-2.032 2.496-3.413 0-.616-.484-1.116-1.082-1.116S28 87.364 28 87.98c0 .36-.394.862-1.24 1.376-.312-.008-.62-.03-.927-.065v-.882c0-.308-.242-.56-.54-.56-.3 0-.542.252-.542.56v.704c-3.322-.737-6.202-3.04-7.685-6.284-.088-.228-.247-.426-.466-.555v-1.71c0-.307-.243-.56-.54-.56-.3 0-.543.253-.543.56v1.707c-.23.136-.395.346-.48.588-1.487 3.228-4.36 5.52-7.674 6.255v-.706c0-.308-.24-.56-.54-.56-.3 0-.54.252-.54.56v.886c-.307.037-.617.058-.928.066-.847-.515-1.242-1.016-1.242-1.376 0-.614-.485-1.114-1.083-1.114s-1.084.5-1.084 1.117c0 1.382.95 2.522 2.497 3.414l.217.123c1.01.547 2.252.995 3.636 1.342v2.228l-.12.04-3.647 1.524c-.285-.282-.42-.54-.42-.753 0-.617-.485-1.117-1.083-1.117s-1.083.5-1.083 1.117c0 1.603 1.28 2.882 3.287 3.823v10H3.27v-3.99c.145-.1.242-.272.242-.467s-.097-.366-.244-.467v-.744c.147-.1.244-.27.244-.467s-.097-.366-.244-.466v-.74c.147-.1.244-.272.244-.468s-.098-.37-.247-.47c-.018-.29-.25-.524-.538-.524-.288 0-.52.232-.538.524-.15.1-.25.272-.25.468 0 .195.097.367.244.467v.74c-.147.1-.244.273-.244.468s.098.366.245.466v.74c-.147.1-.244.27-.244.468 0 .195.1.366.246.466v3.99H1.48c-.598 0-1.083.5-1.083 1.12s.485 1.116 1.083 1.116h29.035c.598 0 1.083-.5 1.083-1.117s-.484-1.118-1.083-1.118zM21.65 95.047h-.635v-1.65l.635-.095v1.745zm-9.47-1.514c1.263.135 2.57.204 3.876.204 1.305 0 2.612-.07 3.877-.204v1.514H12.18v-1.514zm3.876-8.02c1.604 2.482 3.954 4.342 6.647 5.317-1.967.437-4.25.672-6.647.672s-4.68-.235-6.647-.672c2.69-.975 5.04-2.835 6.643-5.316zm-4.96 7.885v1.65h-.634V93.3l.635.096zm-2.302 3.884H23.32l1.816.76-.22.08c-2.35.837-5.497 1.298-8.86 1.298-3.363 0-6.51-.46-8.86-1.298l-.22-.08 1.817-.76zm3.266 4.154c-1.057.485-2.026 1.164-2.866 2.015v-2.464c.913.192 1.875.344 2.866.453zm-2.866 3.687c1.67-2.187 4.16-3.44 6.862-3.44 2.703 0 5.193 1.252 6.862 3.44v1.563c-1.36-2.464-3.925-4.13-6.862-4.13-2.938 0-5.504 1.666-6.862 4.13v-1.563zm13.724-1.672c-.84-.85-1.81-1.53-2.866-2.01.99-.11 1.953-.26 2.866-.454v2.468zm-15.52-2.915l.713.198v8.99H7.4v-9.187zm1.916 9.19c.464-3.414 3.31-6.05 6.742-6.05s6.278 2.636 6.742 6.05H9.315zM24 100.73l.714-.198v9.19H24v-8.992z" fill="#fff"/><path d="M30.517 69.72h-.683v-3.99c.147-.1.244-.272.244-.467s-.097-.366-.244-.467v-.742c.147-.1.244-.27.244-.466s-.097-.367-.244-.467v-.74c.147-.1.244-.27.244-.465s-.098-.368-.247-.468c-.014-.292-.25-.525-.534-.525-.288 0-.52.233-.538.525-.148.1-.247.272-.247.468 0 .195.097.367.244.467v.74c-.147.1-.244.272-.244.467s.095.365.242.465v.742c-.147.1-.244.27-.244.467 0 .195.096.366.243.466v3.99h-1.87v-10c2.008-.94 3.286-2.22 3.286-3.823 0-.617-.485-1.117-1.083-1.117S28 55.28 28 55.898c0 .21-.136.47-.42.753l-3.647-1.52-.12-.04v-2.23c1.385-.345 2.626-.794 3.636-1.34l.215-.123c1.546-.89 2.496-2.032 2.496-3.413 0-.616-.484-1.116-1.082-1.116S28 47.364 28 47.98c0 .36-.394.862-1.24 1.376-.312-.008-.62-.03-.927-.065v-.882c0-.308-.242-.56-.54-.56-.3 0-.542.252-.542.56v.704c-3.322-.737-6.202-3.04-7.685-6.284-.088-.228-.247-.426-.466-.555v-1.71c0-.307-.243-.56-.54-.56-.3 0-.543.253-.543.56v1.707c-.23.136-.395.346-.48.588-1.487 3.228-4.36 5.52-7.674 6.255v-.706c0-.308-.24-.56-.54-.56-.3 0-.54.252-.54.56v.886c-.307.037-.617.058-.928.066-.847-.515-1.242-1.016-1.242-1.376 0-.614-.485-1.114-1.083-1.114s-1.084.5-1.084 1.117c0 1.382.95 2.522 2.497 3.414l.217.123c1.01.547 2.252.995 3.636 1.342v2.228l-.12.04-3.647 1.524c-.285-.282-.42-.54-.42-.753 0-.617-.485-1.117-1.083-1.117s-1.083.5-1.083 1.117c0 1.603 1.28 2.882 3.287 3.823v10H3.27v-3.99c.145-.1.242-.272.242-.467s-.097-.366-.244-.467v-.744c.147-.1.244-.27.244-.467s-.097-.366-.244-.466v-.74c.147-.1.244-.272.244-.468s-.098-.37-.247-.47c-.018-.29-.25-.524-.538-.524-.288 0-.52.232-.538.524-.15.1-.25.272-.25.468 0 .195.097.367.244.467v.74c-.147.1-.244.273-.244.468s.098.366.245.466v.74c-.147.1-.244.27-.244.468 0 .195.1.366.246.466v3.99H1.48c-.598 0-1.083.5-1.083 1.12S.882 71.96 1.48 71.96h29.035c.598 0 1.083-.5 1.083-1.117s-.484-1.118-1.083-1.118zM21.65 55.047h-.635v-1.65l.635-.095v1.745zm-9.47-1.514c1.263.135 2.57.204 3.876.204 1.305 0 2.612-.07 3.877-.204v1.514H12.18v-1.514zm3.876-8.02c1.604 2.482 3.954 4.342 6.647 5.317-1.967.437-4.25.672-6.647.672s-4.68-.235-6.647-.672c2.69-.975 5.04-2.835 6.643-5.316zm-4.96 7.885v1.65h-.634V53.3l.635.096zm-2.302 3.884H23.32l1.816.76-.22.08c-2.35.837-5.497 1.298-8.86 1.298-3.363 0-6.51-.46-8.86-1.298l-.22-.08 1.817-.76zm3.266 4.154c-1.057.485-2.026 1.164-2.866 2.015v-2.464c.913.192 1.875.344 2.866.453zm-2.866 3.687c1.67-2.187 4.16-3.44 6.862-3.44 2.703 0 5.193 1.252 6.862 3.44v1.563c-1.36-2.464-3.925-4.13-6.862-4.13-2.938 0-5.504 1.666-6.862 4.13v-1.563zm13.724-1.672c-.84-.85-1.81-1.53-2.866-2.01.99-.11 1.953-.26 2.866-.454v2.468zm-15.52-2.915l.713.198v8.99H7.4v-9.187zm1.916 9.19c.464-3.414 3.31-6.05 6.742-6.05s6.278 2.636 6.742 6.05H9.315zM24 60.73l.714-.198v9.19H24V60.73z" fill="#67737B"/><path d="M30.517 29.72h-.683v-3.99c.147-.1.244-.272.244-.467s-.097-.366-.244-.467v-.742c.147-.1.244-.27.244-.466s-.097-.367-.244-.467v-.74c.147-.1.244-.27.244-.465s-.098-.368-.247-.468c-.014-.292-.25-.525-.534-.525-.288 0-.52.233-.538.525-.148.1-.247.272-.247.468 0 .195.097.367.244.467v.74c-.147.1-.244.272-.244.467s.095.365.242.465v.742c-.147.1-.244.27-.244.467 0 .195.096.366.243.466v3.99h-1.87v-10c2.008-.94 3.286-2.22 3.286-3.823 0-.617-.485-1.117-1.083-1.117S28 15.28 28 15.898c0 .21-.136.47-.42.753l-3.647-1.52-.12-.04v-2.23c1.385-.345 2.626-.794 3.636-1.34l.215-.123c1.546-.89 2.496-2.032 2.496-3.413 0-.616-.484-1.116-1.082-1.116S28 7.364 28 7.98c0 .36-.394.862-1.24 1.376-.312-.008-.62-.03-.927-.065V8.41c0-.308-.242-.56-.54-.56-.3 0-.542.252-.542.56v.704c-3.322-.737-6.202-3.04-7.685-6.284-.088-.228-.247-.426-.466-.555V.56c0-.308-.243-.56-.54-.56-.3 0-.543.252-.543.56v1.706c-.23.136-.395.346-.48.588-1.487 3.228-4.36 5.52-7.674 6.255V8.4c0-.308-.24-.56-.54-.56-.3 0-.54.252-.54.56v.886c-.307.036-.617.057-.928.065-.85-.51-1.245-1.013-1.245-1.373 0-.615-.485-1.115-1.083-1.115s-1.083.5-1.083 1.117c0 1.382.95 2.522 2.497 3.414l.22.122c1.01.548 2.25.996 3.635 1.343v2.23l-.12.04-3.647 1.524c-.283-.282-.418-.54-.418-.753 0-.617-.486-1.117-1.084-1.117s-1.083.5-1.083 1.117c0 1.602 1.28 2.88 3.287 3.822v10H3.27v-3.99c.145-.1.242-.272.242-.467s-.097-.366-.244-.467v-.743c.147-.1.244-.27.244-.466s-.097-.368-.244-.468v-.74c.147-.1.244-.272.244-.468s-.098-.368-.247-.468c-.018-.292-.25-.525-.538-.525-.288 0-.52.233-.538.525-.15.1-.25.272-.25.468 0 .195.097.367.244.467v.74c-.147.1-.244.274-.244.47s.098.365.245.465v.742c-.147.1-.244.27-.244.467 0 .195.1.366.246.466v3.99H1.48c-.598 0-1.083.5-1.083 1.118s.485 1.117 1.083 1.117h29.035c.598 0 1.083-.5 1.083-1.117s-.484-1.117-1.083-1.117zM21.65 15.047h-.635v-1.65l.635-.095v1.745zm-9.47-1.514c1.263.135 2.57.204 3.876.204 1.305 0 2.612-.07 3.877-.204v1.514H12.18v-1.514zm3.876-8.02c1.604 2.482 3.954 4.342 6.647 5.317-1.967.437-4.25.672-6.647.672s-4.68-.235-6.647-.672c2.69-.975 5.04-2.835 6.643-5.316zm-4.96 7.885v1.65h-.634V13.3l.635.096zm-2.302 3.884H23.32l1.816.76-.22.08c-2.35.837-5.497 1.298-8.86 1.298-3.363 0-6.51-.46-8.86-1.298l-.22-.08 1.817-.76zm3.266 4.154c-1.057.485-2.026 1.164-2.866 2.015v-2.464c.913.192 1.875.344 2.866.453zm-2.866 3.687c1.67-2.187 4.16-3.44 6.862-3.44 2.703 0 5.193 1.252 6.862 3.44v1.563c-1.36-2.464-3.925-4.13-6.862-4.13-2.938 0-5.504 1.666-6.862 4.13v-1.563zm13.724-1.672c-.84-.85-1.81-1.53-2.866-2.01.99-.11 1.953-.26 2.866-.454v2.468zm-15.52-2.915l.713.198v8.99H7.4v-9.187zm1.916 9.19c.464-3.414 3.31-6.05 6.742-6.05s6.278 2.636 6.742 6.05H9.315zM24 20.73l.714-.198v9.19H24V20.73z" fill="#3A434E"/></g></svg>