<svg width="32" height="232" viewBox="0 0 32 232" xmlns="http://www.w3.org/2000/svg"><desc>Created with Sketch.</desc><g fill="none"><path d="M10.292 122.796c.09-.286-.043-.6-.3-.704-.257-.105-.543.037-.642.32L5.873 132.3l-.76-10.5c-.02-.302-.258-.528-.53-.51-.275.02-.484.278-.47.58l.57 13.81-4.65 13.23c-.05.145-.044.307.018.447.067.14.18.244.315.287l.842.268.14.022c.208 0 .4-.144.473-.372l3.044-9.617.425 10.255c.01.294.23.526.494.53l.876.01h.005c.14 0 .272-.065.367-.178.098-.114.146-.267.135-.423L6.14 135.92l4.155-13.126zm7.877 10.778c0-1.91-.26-3.795-.76-5.606-.51-1.823-1.26-3.552-2.24-5.135-.127-.2-.35-.29-.565-.217-.21.072-.353.287-.353.53v1.108c-.457-.105-.877-.354-1.217-.725-.11-.12-.26-.18-.414-.16-.15.02-.286.116-.366.26-.754 1.362-1.35 2.82-1.77 4.336-.258.924-.45 1.868-.576 2.825-1.1.99-1.75 2.488-1.75 4.06 0 1.033.27 2.03.786 2.89.093.156.25.25.418.25.168 0 .324-.093.418-.248.086-.143.18-.28.28-.41l.088.455c-.343.533-.53 1.173-.53 1.834 0 .623.165 1.226.475 1.743.093.155.25.248.418.248.17 0 .325-.092.42-.247l.196-.27c.568 1.46 1.3 2.834 2.18 4.097-.66.86-1.394 1.65-2.185 2.357-.153.138-.22.364-.17.576.05.213.21.37.41.405l.055.007.023.003.072.006c.085 0 .17-.024.245-.07.668-.417 1.427-.637 2.195-.637.768 0 1.527.22 2.194.635.097.06.21.085.32.066l.02-.003.057-.008c.2-.035.358-.193.41-.406.05-.21-.014-.44-.17-.575-.79-.706-1.523-1.496-2.183-2.353.883-1.27 1.616-2.657 2.182-4.12l.193.27c.093.154.25.247.418.247.17 0 .328-.093.42-.248.308-.513.47-1.11.47-1.727 0-.66-.19-1.303-.536-1.833.282-1.375.428-2.786.428-4.21zm-.937 6.457l-.07-.053.108-.35c0 .138-.012.274-.037.407zm-3.287 6.7c-.194 0-.385.01-.575.034.197-.225.388-.457.575-.694.185.236.377.467.572.694-.19-.02-.383-.032-.574-.032zm-3.286-6.674c-.025-.13-.037-.267-.04-.404l.11.347-.07.056zm-1.216-3.62c-.187-.497-.284-1.032-.284-1.58 0-.79.21-1.555.587-2.21-.015.31-.023.62-.023.93 0 .816.047 1.626.14 2.425-.148.136-.288.28-.42.434zm5.31-11.012c.214 0 .398-.148.47-.358.436.892.8 1.82 1.093 2.78v.002l-.24.11-.038.017-.316.122-.1.033-.22.07-.123.03-.205.05-.13.027-.207.035-.127.02-.225.023-.107.01-.333.01-.336-.01-.107-.01-.226-.023-.126-.02-.204-.034-.13-.027-.205-.05-.122-.03-.22-.07-.1-.033-.316-.12-.038-.018-.24-.11v-.003c.324-1.064.74-2.096 1.242-3.08.566.43 1.236.66 1.936.66zm-.306 18.09v-14.02l.163-.016.056-.007.282-.04.03-.003.295-.058.063-.015.29-.074.04-.01.27-.085.044-.015.28-.107.06-.023.28-.123.005-.002c.367 1.514.553 3.08.553 4.66 0 3.537-.955 7.008-2.714 9.936zm-3.72-9.936c0-1.58.187-3.145.554-4.66l.004.002.28.12.06.025.282.105.046.014.27.085.04.01.29.072.063.014.296.058.03.004.283.04.053.005.16.015v14.02c-.605-1.004-1.12-2.072-1.53-3.19-.786-2.143-1.184-4.414-1.184-6.746zm2.21-5.708c.465 0 .843-.42.843-.933s-.376-.932-.84-.932c-.464 0-.843.418-.843.932s.38.932.843.932zm0-1.11c.09 0 .16.08.16.177 0 .098-.07.178-.16.178s-.16-.08-.16-.178c0-.098.07-.178.16-.178zm18.66-2.897c-.09-.083-2.256-2.032-6.055-2.032-1.576 0-3.046.348-4.254 1.004-.95.516-1.434 1.058-1.486 1.118-.178.208-.278.48-.278.768v23.26c0 .33.132.644.362.855.09.083 2.257 2.032 6.056 2.032 1.574 0 3.045-.346 4.253-1.002.95-.516 1.432-1.058 1.484-1.118.18-.206.28-.48.28-.766v-23.26c0-.33-.134-.645-.363-.855zm-1.642 23.594c-.53.416-1.808 1.187-4.01 1.187-2.233 0-3.757-.815-4.412-1.252V125.24c.53-.416 1.808-1.187 4.01-1.187 2.23 0 3.755.817 4.41 1.253v22.154zm-2.004-8.016c-.104-.084-.233-.122-.36-.104l-3.997.54c-.15.02-.28.113-.362.252-.033.057-.32.576-.23 1.38.09.822.483 1.182.56 1.246.087.072.192.11.3.11l.06-.004 3.997-.543c.148-.02.28-.112.36-.25.034-.058.32-.577.23-1.38-.09-.823-.482-1.183-.56-1.247zm-3.95 1.93c-.02-.175-.007-.323.013-.432l3.414-.462c.034.08.07.194.085.347.02.178.007.325-.014.435l-3.414.462c-.033-.08-.067-.195-.084-.348zm3.95 1.648c-.104-.086-.233-.124-.36-.106l-3.997.54c-.15.02-.28.114-.362.253-.033.057-.32.576-.23 1.38.09.822.483 1.183.56 1.247.087.07.192.11.3.11l.06-.005 3.997-.54c.148-.02.28-.113.36-.252.034-.055.32-.575.23-1.38-.09-.82-.482-1.18-.56-1.245zm-3.95 1.93c-.02-.177-.007-.324.013-.433l3.414-.462c.034.08.07.195.085.348.02.18.007.327-.014.436l-3.414.463c-.033-.08-.067-.195-.084-.348zm.928-18.78c-.25.09-.415.28-.534.42l-.116.124-.146.087c-.156.082-.37.196-.522.43-.152.23-.184.49-.208.68l-.03.182-.07.154c-.083.17-.196.402-.196.696 0 .294.113.527.196.696l.07.156.03.184c.024.19.056.447.208.678.153.232.366.346.522.43l.146.085.116.124c.12.14.284.33.534.42.095.033.194.05.302.05.126 0 .24-.022.34-.043l.173-.025.17.026c.102.02.216.043.342.043.106 0 .206-.016.3-.05.25-.09.415-.282.535-.42l.116-.125.147-.086c.156-.08.37-.193.522-.426.15-.23.183-.49.207-.68l.03-.183.07-.155c.083-.17.196-.402.196-.697 0-.293-.113-.526-.197-.695l-.07-.153-.03-.185c-.024-.19-.056-.448-.208-.68-.153-.232-.366-.346-.523-.43l-.146-.085-.117-.124c-.12-.14-.286-.33-.536-.42-.096-.034-.195-.05-.303-.05-.125 0-.24.022-.34.042l-.172.026-.175-.025c-.1-.02-.214-.042-.34-.042-.108 0-.208.016-.302.05zm1.32 1.06l.117.125c.07.08.15.173.252.256.102.082.21.14.3.187l.142.085.028.177c.015.11.03.24.07.374.04.13.094.244.14.34l.076.17-.075.168c-.046.098-.1.21-.14.34-.04.136-.055.263-.07.376l-.03.177-.14.085c-.092.05-.197.105-.3.188-.104.082-.182.175-.253.256l-.116.125-.155-.026c-.103-.022-.22-.045-.35-.045-.13 0-.245.022-.348.043l-.158.023-.117-.125c-.07-.08-.15-.173-.252-.255-.102-.082-.207-.14-.3-.19l-.143-.08-.028-.176c-.015-.114-.03-.24-.07-.376-.04-.132-.094-.244-.14-.342l-.076-.168.074-.17c.05-.097.105-.21.143-.34.04-.135.057-.262.07-.375l.03-.178.144-.084c.092-.05.197-.106.3-.19.102-.082.182-.174.252-.255l.116-.127.158.025c.102.02.218.044.348.044.13 0 .246-.022.35-.043l.156-.024zm-1.57 1.714c0 .653.476 1.18 1.065 1.18.588 0 1.065-.53 1.065-1.18s-.477-1.18-1.066-1.18c-.59 0-1.067.53-1.067 1.18zm1.065-.07l.06.07-.06.07-.063-.07.062-.07zm-2.372 7.206l.03.184c.024.19.056.446.208.68.155.23.368.344.524.427l.146.085.116.125c.12.14.284.33.534.42.096.033.195.05.303.05.126 0 .24-.022.34-.043l.173-.026.17.025c.102.02.216.043.342.043.108 0 .207-.017.302-.05.25-.09.414-.28.534-.42l.116-.125.145-.086c.155-.083.368-.196.522-.43.152-.23.184-.49.208-.678l.03-.185.07-.156c.082-.17.196-.403.196-.697 0-.293-.11-.526-.194-.695l-.07-.156-.03-.183c-.024-.19-.056-.45-.208-.68-.153-.233-.366-.347-.522-.43l-.146-.086-.117-.123c-.12-.14-.284-.33-.534-.42-.097-.034-.196-.05-.304-.05-.126 0-.24.02-.34.04l-.173.027-.174-.027c-.1-.02-.216-.045-.34-.045-.11 0-.21.016-.304.05-.25.09-.415.28-.534.42l-.116.124-.146.085c-.154.084-.37.198-.52.43-.152.23-.184.49-.21.68l-.03.183-.07.154c-.08.17-.194.402-.194.696 0 .295.113.528.196.697l.07.157zm.813-1.02c.05-.1.104-.21.142-.34.04-.136.056-.263.07-.376l.028-.178.144-.083c.092-.05.197-.106.3-.19.102-.08.182-.174.252-.256l.116-.125.157.023c.102.02.218.044.348.044.13 0 .246-.023.35-.044l.156-.025.115.124c.07.083.15.175.252.257.103.082.21.14.3.19l.143.08.03.177c.014.11.03.24.07.374.04.13.093.243.14.34l.075.17-.075.168c-.047.098-.102.21-.14.34-.04.136-.056.263-.07.376l-.03.176-.14.085c-.093.05-.198.105-.3.188-.105.082-.184.174-.254.257l-.116.126-.156-.026c-.103-.02-.22-.042-.35-.042-.13 0-.245.023-.348.043l-.158.028-.115-.124c-.07-.08-.15-.173-.252-.255-.1-.083-.205-.14-.3-.188l-.14-.084-.028-.176c-.013-.113-.03-.24-.07-.375-.037-.13-.092-.242-.14-.34l-.074-.168.074-.17zm1.558 1.347c.59 0 1.066-.528 1.066-1.18s-.477-1.178-1.066-1.178c-.59 0-1.066.528-1.066 1.18s.477 1.178 1.066 1.178zm0-1.248l.062.07-.062.068-.062-.07.062-.068z" fill="#206FAC"/><path d="M10.292 82.796c.09-.286-.043-.6-.3-.704-.257-.105-.543.037-.642.32L5.873 92.3l-.76-10.5c-.02-.302-.258-.528-.53-.51-.275.02-.484.278-.47.58l.57 13.81-4.65 13.23c-.05.145-.044.307.018.447.067.14.18.244.315.287l.842.268.14.022c.208 0 .4-.144.473-.372l3.044-9.617.425 10.255c.01.294.23.526.494.53l.876.01h.005c.14 0 .272-.065.367-.178.098-.114.146-.267.135-.423l-1.03-14.22 4.157-13.126zm7.877 10.778c0-1.91-.26-3.795-.76-5.606-.51-1.823-1.26-3.552-2.24-5.135-.127-.2-.35-.29-.565-.217-.21.072-.353.287-.353.53v1.108c-.457-.105-.877-.354-1.217-.725-.11-.12-.26-.18-.414-.16-.15.02-.286.116-.366.26-.754 1.362-1.35 2.82-1.77 4.336-.258.924-.45 1.868-.576 2.825-1.1.99-1.75 2.488-1.75 4.06 0 1.033.27 2.03.786 2.89.093.156.25.25.418.25.168 0 .324-.093.418-.248.086-.143.18-.28.28-.41l.088.455c-.343.533-.53 1.173-.53 1.834 0 .623.165 1.226.475 1.743.093.155.25.248.418.248.17 0 .325-.092.42-.247l.196-.27c.568 1.46 1.3 2.834 2.18 4.097-.66.86-1.394 1.65-2.185 2.357-.153.138-.22.364-.17.576.05.213.21.37.41.405l.055.007.023.003.072.006c.085 0 .17-.024.245-.07.668-.417 1.427-.637 2.195-.637.768 0 1.527.22 2.194.635.097.06.21.085.32.066l.02-.003.057-.008c.2-.035.358-.193.41-.406.05-.21-.014-.44-.17-.575-.79-.706-1.523-1.496-2.183-2.353.883-1.27 1.616-2.657 2.182-4.12l.193.27c.093.154.25.247.418.247.17 0 .328-.093.42-.248.308-.513.47-1.11.47-1.727 0-.66-.19-1.303-.536-1.833.282-1.375.428-2.786.428-4.21zm-.937 6.457l-.07-.053.108-.35c0 .138-.012.274-.037.407zm-3.287 6.7c-.194 0-.385.01-.575.034.197-.225.388-.457.575-.694.185.236.377.467.572.694-.19-.02-.383-.032-.574-.032zm-3.286-6.674c-.025-.13-.037-.267-.04-.404l.11.347-.07.056zm-1.216-3.62c-.187-.497-.284-1.032-.284-1.58 0-.79.21-1.555.587-2.21-.015.31-.023.62-.023.93 0 .816.047 1.626.14 2.425-.148.136-.288.28-.42.434zm5.31-11.012c.214 0 .398-.148.47-.358.436.892.8 1.82 1.093 2.78v.002l-.24.11-.038.017-.316.122-.1.033-.22.07-.123.03-.205.05-.13.027-.207.035-.127.02-.225.023-.107.01-.333.01-.336-.01-.107-.01-.226-.023-.126-.02-.204-.034-.13-.027-.205-.05-.122-.03-.22-.07-.1-.033-.316-.12-.038-.018-.24-.11v-.003c.324-1.064.74-2.096 1.242-3.08.566.43 1.236.66 1.936.66zm-.306 18.09V89.49l.163-.016.056-.007.282-.04.03-.003.295-.058.063-.014.29-.074.04-.01.27-.086.044-.015.28-.105.06-.023.28-.127.005-.002c.367 1.515.553 3.08.553 4.66 0 3.538-.955 7.01-2.714 9.937zm-3.72-9.936c0-1.58.187-3.145.554-4.66l.004.002.28.12.06.025.282.105.046.014.27.085.04.01.29.072.063.014.296.058.03.004.283.04.053.005.16.015v14.02c-.605-1.004-1.12-2.072-1.53-3.19-.786-2.143-1.184-4.414-1.184-6.746zm2.21-5.708c.465 0 .843-.42.843-.933s-.376-.932-.84-.932c-.464 0-.843.418-.843.932s.38.932.843.932zm0-1.11c.09 0 .16.08.16.177 0 .098-.07.178-.16.178s-.16-.08-.16-.178c0-.098.07-.178.16-.178zm18.662-2.9c-.09-.083-2.257-2.032-6.056-2.032-1.576 0-3.046.346-4.254 1.002-.95.516-1.433 1.058-1.485 1.118-.178.207-.278.48-.278.767v23.26c0 .33.132.644.362.855.09.083 2.255 2.032 6.054 2.032 1.574 0 3.045-.346 4.253-1.002.95-.516 1.432-1.058 1.484-1.118.18-.206.28-.48.28-.766v-23.26c0-.33-.134-.645-.363-.855zm-1.643 23.594c-.53.416-1.808 1.187-4.01 1.187-2.233 0-3.757-.812-4.412-1.25V85.235c.53-.415 1.808-1.186 4.01-1.186 2.23 0 3.755.816 4.41 1.252v22.153zm-2.004-8.016c-.104-.086-.233-.124-.36-.106l-3.997.54c-.15.02-.28.113-.362.252-.033.057-.32.576-.23 1.38.09.822.483 1.182.56 1.246.087.072.192.11.3.11l.06-.004 3.997-.542c.15-.02.28-.112.36-.25.037-.058.32-.577.23-1.38-.09-.823-.48-1.183-.56-1.247zm-3.95 1.93c-.02-.177-.007-.325.013-.434l3.414-.462c.035.08.07.194.086.347.02.174.007.32-.014.43l-3.415.463c-.033-.08-.067-.194-.084-.347zm3.95 1.646c-.104-.086-.233-.124-.36-.106l-3.997.54c-.15.02-.28.113-.362.252-.033.057-.32.576-.23 1.38.09.822.483 1.183.56 1.247.087.07.192.11.3.11l.06-.004 3.997-.54c.15-.02.28-.113.36-.252.037-.052.32-.572.23-1.38-.09-.82-.48-1.18-.56-1.242zm-3.95 1.93c-.02-.177-.007-.324.013-.433l3.414-.46c.035.08.07.195.086.348.02.178.007.326-.014.435l-3.415.464c-.033-.08-.067-.194-.084-.347zm.928-18.78c-.25.09-.412.28-.53.42l-.117.124-.145.086c-.156.083-.37.197-.522.43-.152.23-.184.49-.208.68l-.03.183-.07.155c-.083.17-.196.402-.196.696 0 .294.113.527.196.696l.07.156.03.184c.024.19.056.447.208.678.153.232.366.346.522.43l.146.085.117.125c.12.14.284.33.534.42.096.033.195.05.303.05.126 0 .24-.022.34-.043l.173-.03.17.026c.1.02.215.042.34.042.108 0 .208-.017.303-.05.25-.09.414-.283.534-.42l.116-.126.146-.086c.154-.083.37-.196.52-.43.152-.23.184-.49.21-.68l.03-.182.07-.156c.08-.17.194-.402.194-.697 0-.293-.113-.526-.197-.695l-.07-.155-.03-.184c-.024-.19-.056-.447-.208-.68-.154-.23-.367-.345-.524-.43l-.146-.084-.115-.124c-.12-.14-.284-.33-.534-.42-.093-.034-.192-.05-.3-.05-.126 0-.24.022-.34.042l-.173.026-.174-.025c-.1-.02-.215-.04-.34-.04-.11 0-.21.016-.303.05zm1.32 1.06l.12.125c.07.08.15.17.253.252.105.083.21.14.3.188l.145.086.028.177c.014.112.03.24.07.375.038.13.093.242.14.34l.075.17-.073.166c-.048.098-.103.21-.14.34-.04.136-.057.263-.07.376l-.03.177-.142.083c-.092.05-.197.105-.3.188-.104.083-.182.176-.253.257l-.116.126-.156-.023c-.103-.022-.22-.045-.35-.045-.13 0-.245.024-.348.045l-.16.023-.115-.125c-.07-.08-.15-.174-.252-.256-.103-.085-.208-.14-.3-.19L24.43 90l-.028-.176c-.014-.113-.03-.24-.07-.375-.038-.135-.093-.247-.14-.345l-.075-.168.074-.17c.05-.097.107-.21.145-.34.04-.135.056-.262.07-.375l.028-.177.145-.084c.092-.05.197-.105.3-.19.102-.08.182-.173.252-.254l.115-.126.157.026c.102.02.218.043.348.043.13 0 .246-.025.35-.046l.156-.025zm-1.57 1.714c0 .652.48 1.18 1.068 1.18.588 0 1.065-.53 1.065-1.18s-.476-1.18-1.065-1.18c-.59 0-1.067.53-1.067 1.18zm1.068-.07l.06.07-.06.07-.063-.07.062-.07zm-2.372 7.205l.03.184c.024.19.056.447.208.68.153.232.366.345.522.428l.146.086.117.128c.12.14.283.33.533.42.096.033.195.05.303.05.126 0 .24-.022.34-.043l.173-.026.17.025c.1.02.215.043.34.043.11 0 .208-.017.303-.05.25-.09.413-.28.533-.42l.116-.125.143-.085c.155-.083.368-.196.522-.43.152-.23.184-.49.208-.678l.03-.184.07-.156c.082-.17.196-.402.196-.696 0-.293-.113-.526-.197-.695l-.07-.157-.03-.184c-.024-.19-.056-.45-.208-.68-.153-.233-.366-.347-.522-.43l-.146-.086-.116-.123c-.12-.14-.282-.33-.532-.42-.095-.033-.194-.05-.302-.05-.126 0-.24.023-.34.043l-.173.025-.174-.027c-.1-.02-.215-.042-.34-.042-.11 0-.21.017-.303.05-.25.09-.415.282-.534.42l-.116.125-.146.087c-.155.082-.37.196-.52.43-.153.23-.185.49-.21.68l-.03.18-.07.156c-.082.17-.195.402-.195.696 0 .295.113.528.196.697l.07.155zm.813-1.02c.05-.1.103-.21.14-.34.04-.136.056-.263.07-.376l.028-.177.144-.083c.094-.05.2-.105.3-.19.104-.08.184-.173.254-.255l.116-.125.156.025c.102.02.218.044.348.044.13 0 .246-.023.35-.044l.156-.025.116.125c.07.082.15.174.252.256.104.083.21.14.3.19l.144.082.028.177c.014.112.03.24.07.375.038.13.093.242.14.34l.075.17-.075.167c-.048.094-.103.205-.14.34-.04.132-.057.26-.07.372l-.03.176-.142.085c-.092.05-.197.105-.3.188-.104.083-.183.175-.253.258l-.116.127-.157-.025c-.103-.02-.22-.042-.35-.042-.13 0-.245.023-.348.043l-.158.027-.115-.127c-.07-.08-.15-.173-.25-.255-.104-.084-.21-.14-.3-.19l-.145-.084-.027-.175c-.015-.113-.03-.24-.07-.375-.04-.13-.094-.242-.14-.34l-.076-.168.074-.168zm1.56 1.347c.59 0 1.066-.528 1.066-1.18s-.477-1.178-1.066-1.178c-.59 0-1.066.528-1.066 1.18S25.16 96.4 25.75 96.4zm0-1.248l.062.07-.062.068-.062-.07.062-.068z" fill="#fff"/><path d="M10.292 42.796c.09-.286-.043-.6-.3-.704-.257-.105-.543.037-.642.32L5.873 52.3l-.76-10.5c-.02-.302-.258-.528-.53-.51-.275.02-.484.278-.47.58l.57 13.81-4.65 13.23c-.05.145-.044.307.018.447.067.14.18.244.315.287l.842.268.14.022c.208 0 .4-.144.473-.372l3.044-9.617L5.29 70.2c.01.294.23.526.495.53l.876.01h.006c.14 0 .272-.065.367-.178.098-.114.146-.267.135-.423l-1.03-14.22 4.157-13.126zm7.877 10.778c0-1.91-.26-3.795-.76-5.606-.51-1.823-1.26-3.552-2.24-5.135-.127-.2-.35-.29-.565-.217-.21.072-.353.287-.353.53v1.108c-.457-.105-.877-.354-1.217-.725-.11-.12-.26-.18-.414-.16-.15.02-.286.116-.366.26-.754 1.362-1.35 2.82-1.77 4.336-.258.924-.45 1.868-.576 2.825-1.1.99-1.75 2.488-1.75 4.06 0 1.033.27 2.03.786 2.89.093.156.25.25.418.25.168 0 .324-.093.418-.248.086-.143.18-.28.28-.41l.088.455c-.343.533-.53 1.173-.53 1.834 0 .623.165 1.226.475 1.743.093.155.25.248.418.248.17 0 .325-.092.42-.247l.196-.27c.568 1.46 1.3 2.834 2.18 4.097-.66.86-1.394 1.65-2.185 2.357-.153.138-.22.364-.17.576.05.213.21.37.41.405l.055.007.023.003.072.006c.085 0 .17-.024.245-.07.668-.417 1.427-.637 2.195-.637.768 0 1.527.22 2.194.635.097.06.21.085.32.066l.02-.003.057-.008c.2-.035.358-.193.41-.406.05-.21-.014-.44-.17-.575-.79-.706-1.523-1.496-2.183-2.353.883-1.27 1.616-2.657 2.182-4.12l.193.27c.093.154.25.247.418.247.17 0 .328-.093.42-.248.308-.513.47-1.11.47-1.727 0-.66-.19-1.303-.536-1.833.282-1.375.428-2.786.428-4.21zm-.937 6.457l-.07-.053.108-.35c0 .138-.012.274-.037.407zm-3.285 6.7c-.195 0-.386.01-.576.035.196-.225.387-.457.574-.694.184.237.376.468.57.695-.19-.02-.38-.032-.572-.032zm-3.287-6.673c-.025-.13-.037-.267-.04-.404l.11.347-.07.056zm-1.216-3.62c-.187-.497-.284-1.032-.284-1.58 0-.79.21-1.555.586-2.21-.016.31-.024.62-.024.93 0 .816.047 1.626.14 2.425-.148.137-.288.28-.42.435zm5.31-11.012c.214 0 .398-.148.47-.358.436.892.8 1.82 1.093 2.78v.002l-.24.11-.04.016-.313.122-.1.033-.22.07-.123.03-.205.05-.13.028-.208.035-.126.02-.225.022-.107.01-.333.01-.337-.01-.108-.01-.226-.023-.127-.02-.207-.032-.13-.027-.205-.05-.123-.03-.22-.07-.1-.032-.316-.12-.04-.017-.24-.11v-.003c.325-1.064.74-2.096 1.243-3.08.565.43 1.235.66 1.935.66zm-.306 18.09V49.49l.165-.016.054-.007.28-.04.03-.003.296-.058.063-.014.29-.074.04-.01.27-.086.043-.015.28-.105.06-.023.28-.127.005-.002c.366 1.515.552 3.08.552 4.66 0 3.538-.956 7.01-2.715 9.937zM10.73 53.58c0-1.58.187-3.146.554-4.66h.004l.28.12.06.026.282.105.046.016.27.085.04.01.29.076.063.014.3.056.03.004.28.04.056.007.163.015v14.02c-.607-1.005-1.12-2.073-1.53-3.192-.788-2.142-1.186-4.413-1.186-6.745zm2.21-5.71c.465 0 .843-.42.843-.932s-.378-.932-.843-.932c-.463 0-.842.418-.842.932s.38.932.843.932zm0-1.11c.09 0 .16.08.16.178 0 .098-.07.178-.16.178s-.16-.08-.16-.178c0-.098.07-.178.16-.178zm18.658-2.9c-.09-.082-2.257-2.03-6.056-2.03-1.576 0-3.046.345-4.254 1-.95.517-1.433 1.06-1.485 1.12-.178.206-.278.48-.278.766v23.26c0 .33.132.644.362.855.09.084 2.256 2.033 6.055 2.033 1.574 0 3.045-.346 4.253-1.002.95-.515 1.432-1.057 1.484-1.117.177-.206.28-.48.28-.766v-23.26c0-.33-.136-.645-.365-.855zm-1.64 23.595c-.53.416-1.808 1.187-4.01 1.187-2.233 0-3.757-.813-4.412-1.25V45.234c.53-.415 1.808-1.186 4.01-1.186 2.23 0 3.755.816 4.41 1.252v22.153zm-2.004-8.016c-.104-.087-.233-.125-.36-.107l-3.997.54c-.15.02-.28.113-.364.252-.033.057-.32.576-.23 1.38.09.822.483 1.182.56 1.246.087.073.192.11.3.11l.06-.003 3.997-.542c.148-.02.28-.112.36-.25.034-.058.32-.577.23-1.38-.09-.823-.482-1.183-.56-1.247zm-3.95 1.93c-.02-.178-.007-.326.013-.435l3.412-.462c.034.08.07.194.085.347.02.175.006.322-.015.432l-3.415.462c-.033-.08-.067-.194-.084-.347zm3.95 1.645c-.104-.086-.233-.124-.36-.106l-3.997.54c-.15.02-.28.112-.364.25-.033.058-.32.577-.23 1.38.09.823.483 1.184.56 1.248.087.07.192.11.3.11l.06-.004 3.997-.54c.148-.02.28-.113.36-.252.034-.053.32-.573.23-1.38-.09-.82-.482-1.18-.56-1.243zm-3.95 1.93c-.02-.177-.007-.324.013-.433l3.412-.46c.034.08.07.194.085.347.02.177.006.325-.015.434l-3.415.464c-.033-.08-.067-.194-.084-.347zm.928-18.78c-.25.09-.415.28-.534.42l-.116.124-.146.085c-.156.083-.37.197-.522.43-.152.23-.184.49-.208.68l-.03.183-.07.155c-.083.17-.196.402-.196.696 0 .293.113.526.196.695l.07.156.03.185c.024.19.056.447.208.678.153.232.366.346.522.43l.146.085.116.125c.12.14.284.33.534.42.095.033.194.05.302.05.126 0 .24-.022.34-.043l.173-.03.17.027c.1.02.214.042.34.042.107 0 .207-.018.302-.05.25-.09.413-.284.533-.42l.116-.127.145-.086c.155-.083.37-.196.52-.43.153-.23.185-.49.21-.68l.03-.182.07-.156c.082-.17.195-.403.195-.698 0-.294-.113-.527-.197-.696l-.07-.155-.03-.183c-.024-.19-.056-.447-.208-.68-.153-.23-.366-.345-.523-.43l-.146-.084-.116-.124c-.12-.14-.284-.33-.534-.42-.094-.035-.193-.05-.3-.05-.127 0-.24.02-.34.04l-.174.027-.174-.025c-.1-.02-.214-.042-.34-.042-.108 0-.208.017-.302.05zm1.32 1.06l.117.125c.07.08.15.17.254.253.104.083.21.14.3.188l.144.087.027.177c.014.112.03.24.07.375.038.13.093.24.14.34l.075.17-.073.165c-.05.098-.104.21-.14.34-.04.136-.058.263-.07.376l-.03.178-.143.083c-.092.05-.197.106-.3.19-.104.082-.182.175-.253.256l-.115.126-.156-.024c-.104-.022-.22-.045-.35-.045-.13 0-.246.024-.35.045l-.157.023-.116-.124c-.07-.08-.15-.174-.252-.256-.103-.084-.208-.14-.3-.19L24.43 50l-.028-.176c-.014-.113-.03-.24-.07-.375-.038-.135-.093-.247-.14-.345l-.075-.168.074-.17c.05-.097.107-.21.145-.34.04-.135.056-.262.07-.375l.028-.177.145-.084c.092-.05.197-.105.3-.19.102-.08.182-.173.252-.254l.115-.126.157.026c.102.02.218.043.348.043.13 0 .246-.025.35-.046l.156-.025zm-1.57 1.714c0 .65.476 1.18 1.065 1.18.586 0 1.063-.53 1.063-1.18s-.477-1.18-1.066-1.18c-.59 0-1.067.53-1.067 1.18zm1.065-.07l.06.07-.06.07-.065-.07.062-.07zm-2.374 7.204l.03.184c.024.19.056.447.208.68.154.232.367.345.523.428l.146.086.115.127c.12.14.283.33.533.42.096.032.195.05.303.05.127 0 .24-.023.34-.044l.174-.026.17.026c.102.02.216.043.342.043.108 0 .207-.018.302-.05.25-.09.414-.28.534-.42l.116-.126.145-.085c.155-.084.368-.197.522-.43.15-.23.183-.49.207-.68l.03-.183.07-.156c.082-.17.196-.4.196-.695 0-.293-.113-.526-.197-.695l-.07-.156-.03-.184c-.023-.19-.055-.448-.207-.68-.153-.232-.366-.346-.522-.43l-.145-.085-.116-.123c-.12-.14-.284-.33-.534-.42-.095-.034-.194-.05-.302-.05-.126 0-.24.022-.34.042l-.173.025-.173-.028c-.1-.02-.213-.043-.34-.043-.107 0-.207.016-.3.05-.25.09-.416.28-.535.42l-.116.124-.147.087c-.157.083-.37.197-.523.43-.15.23-.183.49-.207.68l-.03.18-.07.157c-.082.17-.195.402-.195.696 0 .295.113.528.196.697l.07.156zm.813-1.02c.05-.1.103-.21.14-.34.04-.136.057-.263.07-.376l.03-.177.143-.082c.09-.05.196-.105.3-.19.1-.08.18-.173.25-.255l.117-.125.158.025c.1.02.217.044.347.044.13 0 .246-.023.35-.044l.156-.025.117.125c.07.082.15.174.25.256.105.082.21.14.3.19l.145.08.028.178c.014.112.03.24.07.375.038.13.093.242.14.34l.075.17-.075.167c-.048.095-.103.206-.14.34-.04.133-.057.26-.07.373l-.03.176-.142.084c-.09.05-.196.105-.3.188-.103.082-.182.174-.252.257l-.116.126-.156-.025c-.103-.02-.22-.04-.35-.04-.13 0-.245.022-.348.042l-.158.026-.115-.127c-.07-.08-.15-.172-.25-.254-.103-.084-.208-.14-.3-.19l-.144-.084-.028-.176c-.015-.113-.03-.24-.07-.375-.04-.13-.094-.24-.14-.34l-.076-.167.074-.168zm1.56 1.347c.59 0 1.065-.527 1.065-1.18s-.476-1.177-1.065-1.177c-.59 0-1.067.528-1.067 1.18S25.16 56.4 25.75 56.4zm0-1.247l.06.07-.06.068-.063-.07.062-.067z" fill="#67737B"/><path d="M10.292 2.796c.09-.286-.043-.6-.3-.704-.257-.105-.543.037-.642.32L5.873 12.3l-.76-10.5c-.02-.302-.258-.528-.53-.51-.275.02-.484.278-.47.58l.57 13.81-4.65 13.23c-.05.145-.044.307.018.447.067.14.18.244.315.287l.842.268.14.022c.208 0 .4-.144.473-.372l3.044-9.617L5.29 30.2c.01.294.23.526.495.53l.876.01h.006c.14 0 .272-.065.367-.178.098-.114.146-.267.135-.423l-1.03-14.22 4.157-13.126zm7.877 10.778c0-1.91-.26-3.795-.76-5.606-.51-1.823-1.26-3.552-2.24-5.135-.127-.2-.35-.29-.565-.217-.21.072-.353.287-.353.53v1.108c-.457-.105-.877-.354-1.217-.725-.11-.12-.26-.18-.414-.16-.15.02-.286.116-.366.26-.754 1.362-1.35 2.82-1.77 4.336-.258.924-.45 1.868-.576 2.825-1.1.99-1.75 2.488-1.75 4.06 0 1.033.27 2.03.786 2.89.093.156.25.25.418.25.168 0 .324-.093.418-.248.086-.143.18-.28.28-.41l.088.455c-.343.533-.53 1.173-.53 1.834 0 .623.165 1.226.475 1.743.093.155.25.248.418.248.17 0 .325-.092.42-.247l.196-.27c.568 1.46 1.3 2.834 2.18 4.097-.66.86-1.394 1.65-2.185 2.357-.153.138-.22.364-.17.576.05.213.21.37.41.405l.055.007.023.003.072.006c.085 0 .17-.024.245-.07.668-.417 1.427-.637 2.195-.637.768 0 1.527.22 2.194.635.097.06.21.085.32.066l.02-.003.057-.008c.2-.035.358-.193.41-.406.05-.21-.014-.44-.17-.575-.79-.706-1.523-1.496-2.183-2.353.883-1.27 1.616-2.657 2.182-4.12l.193.27c.093.154.25.247.418.247.17 0 .328-.093.42-.248.308-.513.47-1.11.47-1.727 0-.66-.19-1.303-.536-1.833.282-1.375.428-2.786.428-4.21zm-.937 6.457l-.07-.053.108-.35c0 .138-.012.274-.037.407zm-3.285 6.7c-.195 0-.386.01-.576.035.196-.225.387-.457.574-.694.184.237.376.468.57.695-.19-.02-.38-.032-.572-.032zm-3.287-6.673c-.025-.13-.037-.267-.04-.404l.11.347-.07.056zm-1.216-3.62c-.187-.497-.284-1.032-.284-1.58 0-.79.21-1.555.586-2.21-.016.31-.024.62-.024.93 0 .816.047 1.626.14 2.425-.148.137-.288.28-.42.435zm5.31-11.012c.214 0 .398-.148.47-.358.436.892.8 1.82 1.093 2.78v.002l-.24.11-.04.016-.313.122-.1.033-.22.07-.123.03-.205.05-.13.028-.208.035-.126.02-.225.022-.107.01-.333.01-.337-.01-.108-.01-.226-.023-.127-.02-.207-.032-.13-.027-.205-.05-.123-.03-.22-.07-.1-.032-.316-.12-.04-.017-.24-.11V7.85c.325-1.064.74-2.096 1.243-3.08.565.43 1.235.66 1.935.66zm-.306 18.09V9.49l.165-.016.054-.007.28-.04.03-.003.296-.058.063-.014.29-.074.04-.01.27-.086.043-.015.28-.105.06-.023.28-.127.005-.002c.366 1.515.552 3.08.552 4.66 0 3.538-.956 7.01-2.715 9.937zM10.73 13.58c0-1.58.187-3.146.554-4.66h.004l.28.12.06.026.282.105.046.016.27.085.04.01.29.076.063.014.3.056.03.004.28.04.056.007.163.015v14.02c-.607-1.005-1.12-2.073-1.53-3.192-.788-2.142-1.186-4.413-1.186-6.745zm2.21-5.71c.465 0 .843-.42.843-.932s-.378-.932-.843-.932c-.463 0-.842.418-.842.932s.38.932.843.932zm0-1.11c.09 0 .16.08.16.178 0 .098-.07.178-.16.178s-.16-.08-.16-.178c0-.098.07-.178.16-.178zm18.66-2.9c-.09-.083-2.257-2.032-6.056-2.032-1.576 0-3.046.346-4.254 1.002-.95.516-1.433 1.058-1.485 1.118-.178.207-.278.48-.278.767v23.26c0 .33.132.644.362.855.09.083 2.255 2.032 6.054 2.032 1.574 0 3.045-.346 4.253-1.002.95-.516 1.432-1.058 1.484-1.118.18-.206.28-.48.28-.766V4.716c0-.33-.134-.645-.363-.855zm-1.64 23.594c-.53.416-1.808 1.187-4.01 1.187-2.233 0-3.757-.812-4.412-1.25V5.235c.53-.415 1.808-1.186 4.01-1.186 2.23 0 3.755.816 4.41 1.252v22.153zm-2.004-8.016c-.104-.086-.233-.124-.36-.106l-3.997.54c-.15.02-.28.113-.365.252-.033.057-.32.576-.23 1.38.09.822.483 1.182.56 1.246.087.072.192.11.3.11l.06-.004 3.997-.542c.148-.02.28-.112.36-.25.034-.058.32-.577.23-1.38-.09-.823-.482-1.183-.56-1.247zm-3.95 1.93c-.02-.177-.007-.325.013-.434l3.41-.462c.036.08.07.194.087.347.02.174.006.32-.015.43l-3.415.463c-.033-.08-.067-.194-.084-.347zm3.95 1.646c-.104-.086-.233-.124-.36-.106l-3.997.54c-.15.02-.28.113-.365.252-.033.057-.32.576-.23 1.38.09.822.483 1.183.56 1.247.087.07.192.11.3.11l.06-.004 3.997-.54c.148-.02.28-.113.36-.252.034-.052.32-.572.23-1.38-.09-.82-.482-1.18-.56-1.242zm-3.95 1.93c-.02-.177-.007-.324.013-.433l3.41-.46c.036.08.07.195.087.348.02.178.006.326-.015.435l-3.415.464c-.033-.08-.067-.194-.084-.347zm.928-18.78c-.25.09-.415.28-.534.42l-.116.124-.146.086c-.156.083-.37.197-.522.43-.152.23-.184.49-.208.68l-.03.183-.07.155c-.083.17-.196.402-.196.696 0 .294.113.527.196.696l.07.156.03.184c.024.19.056.447.208.678.153.232.366.346.522.43l.146.085.116.125c.12.14.284.33.534.42.095.033.194.05.302.05.126 0 .24-.022.34-.043l.173-.03.17.026c.1.02.213.042.34.042.106 0 .206-.017.3-.05.25-.09.415-.283.535-.42l.116-.126.147-.086c.155-.083.37-.196.52-.43.153-.23.185-.49.21-.68l.03-.182.07-.156c.082-.17.195-.402.195-.697 0-.293-.113-.526-.197-.695l-.07-.155-.03-.184c-.024-.19-.056-.447-.208-.68-.153-.23-.366-.345-.523-.43l-.146-.084-.116-.124c-.12-.14-.284-.33-.534-.42-.094-.034-.193-.05-.3-.05-.127 0-.24.022-.34.042l-.174.026-.174-.025c-.1-.02-.214-.04-.34-.04-.108 0-.208.016-.302.05zm1.32 1.06l.117.125c.07.08.15.17.256.252.104.083.21.14.3.188l.144.086.027.177c.014.112.03.24.07.375.038.13.093.242.14.34l.075.17-.073.166c-.05.098-.105.21-.14.34-.04.136-.06.263-.07.376l-.03.177-.144.083c-.092.05-.197.105-.3.188-.104.083-.182.176-.253.257l-.116.126-.156-.023c-.102-.022-.22-.045-.35-.045-.13 0-.244.024-.347.045l-.158.023-.116-.125c-.07-.08-.15-.174-.253-.256-.103-.085-.208-.14-.3-.19L24.43 10l-.028-.176c-.014-.113-.03-.24-.07-.375-.038-.135-.093-.247-.14-.345l-.075-.168.074-.17c.05-.097.107-.21.145-.34.04-.135.056-.262.07-.375l.028-.177.145-.084c.092-.05.197-.105.3-.19.102-.08.182-.173.252-.254l.115-.126.157.026c.102.02.218.043.348.043.13 0 .246-.025.35-.046l.156-.025zm-1.57 1.714c0 .652.476 1.18 1.065 1.18.585 0 1.062-.53 1.062-1.18s-.477-1.18-1.066-1.18c-.59 0-1.067.53-1.067 1.18zm1.065-.07l.06.07-.06.07-.066-.07.062-.07zm-2.375 7.205l.03.184c.024.19.056.447.208.68.153.232.366.345.522.428l.146.086.117.128c.12.14.283.33.533.42.096.033.195.05.303.05.126 0 .24-.022.34-.043l.173-.026.17.025c.102.02.216.043.342.043.108 0 .207-.017.302-.05.25-.09.414-.28.534-.42l.116-.125.145-.085c.155-.083.368-.196.522-.43.15-.23.183-.49.207-.678l.03-.184.07-.156c.082-.17.196-.402.196-.696 0-.293-.113-.526-.197-.695l-.07-.157-.03-.184c-.024-.19-.056-.45-.208-.68-.153-.233-.366-.347-.522-.43l-.146-.086-.116-.123c-.12-.14-.282-.33-.532-.42-.095-.033-.194-.05-.302-.05-.126 0-.24.023-.34.043l-.173.025-.174-.027c-.1-.02-.214-.042-.34-.042-.108 0-.208.017-.3.05-.25.09-.417.282-.536.42l-.116.125-.147.087c-.155.082-.37.196-.52.43-.15.23-.184.49-.208.68l-.03.18-.07.156c-.082.17-.195.402-.195.696 0 .295.113.528.196.697l.07.155zm.813-1.02c.05-.1.103-.21.14-.34.04-.136.057-.263.07-.376l.03-.177.143-.083c.093-.05.198-.105.3-.19.103-.08.183-.173.253-.255l.116-.125.157.025c.1.02.217.044.347.044.13 0 .246-.023.35-.044l.156-.025.117.125c.07.082.15.174.25.256.105.083.21.14.3.19l.145.082.028.177c.014.112.03.24.07.375.038.13.093.242.14.34l.075.17-.075.167c-.048.094-.103.205-.14.34-.04.132-.057.26-.07.372l-.03.176-.142.085c-.09.05-.196.105-.3.188-.103.083-.182.175-.252.258l-.116.127-.156-.025c-.103-.02-.22-.042-.35-.042-.13 0-.245.023-.348.043l-.158.027-.115-.127c-.07-.08-.15-.173-.252-.255-.1-.084-.206-.14-.3-.19l-.142-.084-.028-.175c-.015-.113-.03-.24-.07-.375-.04-.13-.094-.242-.14-.34l-.076-.168.074-.168zm1.56 1.347c.59 0 1.065-.528 1.065-1.18s-.477-1.178-1.066-1.178c-.59 0-1.067.528-1.067 1.18s.48 1.178 1.07 1.178zm0-1.248l.06.07-.06.068-.063-.07.062-.068z" fill="#3A434E"/></g></svg>