<svg width="32" height="232" viewBox="0 0 32 232" xmlns="http://www.w3.org/2000/svg" xmlns:sketch="http://www.bohemiancoding.com/sketch/ns"><title>kyoto</title><desc>Created with Sketch.</desc><g sketch:type="MSPage" fill="none"><g sketch:type="MSShapeGroup"><path d="M30.517 149.72h-.683v-3.991c.147-.1.244-.271.244-.466s-.097-.366-.244-.467v-.742c.147-.1.244-.271.244-.466s-.097-.367-.244-.467v-.742c.147-.1.244-.271.244-.467s-.098-.368-.247-.468c-.018-.292-.25-.525-.538-.525-.288 0-.521.233-.538.525-.148.099-.247.272-.247.468 0 .195.097.367.244.467v.742c-.147.1-.244.272-.244.467s.097.366.244.466v.742c-.147.1-.244.271-.244.467 0 .195.097.366.244.466v3.991h-1.873v-9.999c2.008-.941 3.286-2.22 3.286-3.824 0-.617-.485-1.117-1.083-1.117s-1.083.5-1.083 1.117c0 .211-.135.471-.418.754l-3.648-1.523-.12-.041v-2.229c1.385-.346 2.626-.795 3.636-1.342l.219-.122c1.546-.891 2.496-2.032 2.496-3.413 0-.617-.485-1.117-1.083-1.117s-1.083.501-1.083 1.117c0 .36-.394.861-1.241 1.375-.311-.008-.62-.029-.926-.065v-.886c0-.308-.243-.559-.542-.559-.299 0-.541.251-.541.559v.704c-3.325-.737-6.205-3.041-7.688-6.284-.088-.228-.247-.426-.466-.555v-1.71c0-.308-.242-.559-.541-.559-.299 0-.541.251-.541.559v1.706c-.229.136-.395.346-.48.588-1.487 3.228-4.359 5.52-7.674 6.255v-.704c0-.308-.242-.559-.541-.559-.299 0-.541.251-.541.559v.886c-.306.036-.616.057-.927.065-.846-.514-1.241-1.015-1.241-1.375 0-.617-.485-1.117-1.083-1.117s-1.083.501-1.083 1.117c0 1.381.95 2.521 2.497 3.413l.217.122c1.01.548 2.252.996 3.636 1.343v2.228l-.12.041-3.647 1.523c-.283-.283-.418-.542-.418-.754 0-.617-.485-1.117-1.083-1.117s-1.083.5-1.083 1.117c0 1.604 1.279 2.883 3.286 3.824v9.999h-1.961v-3.991c.147-.1.244-.271.244-.466s-.097-.366-.244-.467v-.742c.147-.1.244-.271.244-.466s-.097-.367-.244-.467v-.742c.147-.1.244-.271.244-.467s-.098-.368-.247-.468c-.018-.292-.25-.525-.538-.525-.288 0-.521.233-.538.525-.149.099-.247.272-.247.468 0 .195.097.367.244.467v.742c-.147.1-.244.272-.244.467s.097.366.244.466v.742c-.147.1-.244.271-.244.467 0 .195.097.366.244.466v3.991h-.706c-.598 0-1.083.5-1.083 1.117s.485 1.117 1.083 1.117h29.035c.598 0 1.083-.5 1.083-1.117s-.484-1.117-1.083-1.117zm-8.867-14.673h-.635v-1.649l.635-.096v1.745zm-9.471-1.514c1.264.135 2.572.204 3.877.204 1.305 0 2.612-.069 3.877-.204v1.514h-7.753v-1.514zm3.877-8.019c1.604 2.481 3.954 4.341 6.647 5.316-1.967.437-4.251.672-6.647.672s-4.681-.235-6.647-.672c2.694-.975 5.043-2.835 6.647-5.316zm-4.959 7.884v1.649h-.635v-1.745l.635.096zm-2.303 3.884h14.525l1.817.759-.221.081c-2.35.837-5.496 1.298-8.859 1.298-3.363 0-6.509-.46-8.859-1.298l-.221-.081 1.817-.759zm3.266 4.154c-1.057.485-2.026 1.164-2.866 2.015v-2.468c.913.192 1.875.344 2.866.453zm-2.866 3.687c1.669-2.187 4.16-3.439 6.862-3.439 2.703 0 5.193 1.251 6.862 3.439v1.563c-1.359-2.464-3.925-4.131-6.862-4.131-2.938 0-5.504 1.667-6.862 4.131v-1.563zm13.724-1.672c-.84-.852-1.809-1.53-2.866-2.015.991-.11 1.953-.261 2.866-.453v2.468zm-15.521-2.919l.714.198v8.991h-.714v-9.189zm1.917 9.189c.464-3.413 3.31-6.048 6.742-6.048s6.278 2.635 6.742 6.048h-13.483zm14.686-8.991l.714-.198v9.189h-.714v-8.991z" fill="#206FAC"/><path d="M30.517 109.72h-.683v-3.991c.147-.1.244-.271.244-.466s-.097-.366-.244-.467v-.742c.147-.1.244-.271.244-.466s-.097-.367-.244-.467v-.742c.147-.1.244-.271.244-.467s-.098-.368-.247-.468c-.018-.292-.25-.525-.538-.525-.288 0-.521.233-.538.525-.148.099-.247.272-.247.468 0 .195.097.367.244.467v.742c-.147.1-.244.272-.244.467s.097.366.244.466v.742c-.147.1-.244.271-.244.467 0 .195.097.366.244.466v3.991h-1.873v-9.999c2.008-.941 3.286-2.22 3.286-3.824 0-.617-.485-1.117-1.083-1.117s-1.083.5-1.083 1.117c0 .211-.135.471-.418.754l-3.648-1.523-.12-.041v-2.229c1.385-.346 2.626-.795 3.636-1.342l.219-.122c1.546-.891 2.496-2.032 2.496-3.413 0-.617-.485-1.117-1.083-1.117s-1.083.501-1.083 1.117c0 .36-.394.861-1.241 1.375-.311-.008-.62-.029-.926-.065v-.886c0-.308-.243-.559-.542-.559-.299 0-.541.251-.541.559v.704c-3.325-.737-6.205-3.041-7.688-6.284-.088-.228-.247-.426-.466-.555v-1.71c0-.308-.242-.559-.541-.559-.299 0-.541.251-.541.559v1.706c-.229.136-.395.346-.48.588-1.487 3.228-4.359 5.52-7.674 6.255v-.704c0-.308-.242-.559-.541-.559-.299 0-.541.251-.541.559v.886c-.306.036-.616.057-.927.065-.846-.514-1.241-1.015-1.241-1.375 0-.617-.485-1.117-1.083-1.117s-1.083.501-1.083 1.117c0 1.381.95 2.521 2.497 3.413l.217.122c1.01.548 2.252.996 3.636 1.343v2.228l-.12.041-3.647 1.523c-.283-.283-.418-.542-.418-.754 0-.617-.485-1.117-1.083-1.117s-1.083.5-1.083 1.117c0 1.604 1.279 2.883 3.286 3.824v9.999h-1.961v-3.991c.147-.1.244-.271.244-.466s-.097-.366-.244-.467v-.742c.147-.1.244-.271.244-.466s-.097-.367-.244-.467v-.742c.147-.1.244-.271.244-.467s-.098-.368-.247-.468c-.018-.292-.25-.525-.538-.525-.288 0-.521.233-.538.525-.149.099-.247.272-.247.468 0 .195.097.367.244.467v.742c-.147.1-.244.272-.244.467s.097.366.244.466v.742c-.147.1-.244.271-.244.467 0 .195.097.366.244.466v3.991h-.706c-.598 0-1.083.5-1.083 1.117s.485 1.117 1.083 1.117h29.035c.598 0 1.083-.5 1.083-1.117s-.484-1.117-1.083-1.117zm-8.867-14.673h-.635v-1.649l.635-.096v1.745zm-9.471-1.514c1.264.135 2.572.204 3.877.204 1.305 0 2.612-.069 3.877-.204v1.514h-7.753v-1.514zm3.877-8.019c1.604 2.481 3.954 4.341 6.647 5.316-1.967.437-4.251.672-6.647.672s-4.681-.235-6.647-.672c2.694-.975 5.043-2.835 6.647-5.316zm-4.959 7.884v1.649h-.635v-1.745l.635.096zm-2.303 3.884h14.525l1.817.759-.221.081c-2.35.837-5.496 1.298-8.859 1.298-3.363 0-6.509-.46-8.859-1.298l-.221-.081 1.817-.759zm3.266 4.154c-1.057.485-2.026 1.164-2.866 2.015v-2.468c.913.192 1.875.344 2.866.453zm-2.866 3.687c1.669-2.187 4.16-3.439 6.862-3.439 2.703 0 5.193 1.251 6.862 3.439v1.563c-1.359-2.464-3.925-4.131-6.862-4.131-2.938 0-5.504 1.667-6.862 4.131v-1.563zm13.724-1.672c-.84-.852-1.809-1.53-2.866-2.015.991-.11 1.953-.261 2.866-.453v2.468zm-15.521-2.919l.714.198v8.991h-.714v-9.189zm1.917 9.189c.464-3.413 3.31-6.048 6.742-6.048s6.278 2.635 6.742 6.048h-13.483zm14.686-8.991l.714-.198v9.189h-.714v-8.991z" fill="#fff"/><path d="M30.517 69.72h-.683v-3.991c.147-.1.244-.271.244-.466s-.097-.366-.244-.467v-.742c.147-.1.244-.271.244-.466s-.097-.367-.244-.467v-.742c.147-.1.244-.271.244-.467s-.098-.368-.247-.468c-.018-.292-.25-.525-.538-.525-.288 0-.521.233-.538.525-.148.099-.247.272-.247.468 0 .195.097.367.244.467v.742c-.147.1-.244.272-.244.467s.097.366.244.466v.742c-.147.1-.244.271-.244.467 0 .195.097.366.244.466v3.991h-1.873v-9.999c2.008-.941 3.286-2.22 3.286-3.824 0-.617-.485-1.117-1.083-1.117s-1.083.5-1.083 1.117c0 .211-.135.471-.418.754l-3.648-1.523-.12-.041v-2.229c1.385-.346 2.626-.795 3.636-1.342l.219-.122c1.546-.891 2.496-2.032 2.496-3.413 0-.617-.485-1.117-1.083-1.117s-1.083.501-1.083 1.117c0 .36-.394.861-1.241 1.375-.311-.008-.62-.029-.926-.065v-.886c0-.308-.243-.559-.542-.559-.299 0-.541.251-.541.559v.704c-3.325-.737-6.205-3.041-7.688-6.284-.088-.228-.247-.426-.466-.555v-1.71c0-.308-.242-.559-.541-.559-.299 0-.541.251-.541.559v1.706c-.229.136-.395.346-.48.588-1.487 3.228-4.359 5.52-7.674 6.255v-.704c0-.308-.242-.559-.541-.559-.299 0-.541.251-.541.559v.886c-.306.036-.616.057-.927.065-.846-.514-1.241-1.015-1.241-1.375 0-.617-.485-1.117-1.083-1.117s-1.083.501-1.083 1.117c0 1.381.95 2.521 2.497 3.413l.217.122c1.01.548 2.252.996 3.636 1.343v2.228l-.12.041-3.647 1.523c-.283-.283-.418-.542-.418-.754 0-.617-.485-1.117-1.083-1.117s-1.083.5-1.083 1.117c0 1.604 1.279 2.883 3.286 3.824v9.999h-1.961v-3.991c.147-.1.244-.271.244-.466s-.097-.366-.244-.467v-.742c.147-.1.244-.271.244-.466s-.097-.367-.244-.467v-.742c.147-.1.244-.271.244-.467s-.098-.368-.247-.468c-.018-.292-.25-.525-.538-.525-.288 0-.521.233-.538.525-.149.099-.247.272-.247.468 0 .195.097.367.244.467v.742c-.147.1-.244.272-.244.467s.097.366.244.466v.742c-.147.1-.244.271-.244.467 0 .195.097.366.244.466v3.991h-.706c-.598 0-1.083.5-1.083 1.117s.485 1.117 1.083 1.117h29.035c.598 0 1.083-.5 1.083-1.117s-.484-1.117-1.083-1.117zm-8.867-14.673h-.635v-1.649l.635-.096v1.745zm-9.471-1.514c1.264.135 2.572.204 3.877.204 1.305 0 2.612-.069 3.877-.204v1.514h-7.753v-1.514zm3.877-8.019c1.604 2.481 3.954 4.341 6.647 5.316-1.967.437-4.251.672-6.647.672s-4.681-.235-6.647-.672c2.694-.975 5.043-2.835 6.647-5.316zm-4.959 7.884v1.649h-.635v-1.745l.635.096zm-2.303 3.884h14.525l1.817.759-.221.081c-2.35.837-5.496 1.298-8.859 1.298-3.363 0-6.509-.46-8.859-1.298l-.221-.081 1.817-.759zm3.266 4.154c-1.057.485-2.026 1.164-2.866 2.015v-2.468c.913.192 1.875.344 2.866.453zm-2.866 3.687c1.669-2.187 4.16-3.439 6.862-3.439 2.703 0 5.193 1.251 6.862 3.439v1.563c-1.359-2.464-3.925-4.131-6.862-4.131-2.938 0-5.504 1.667-6.862 4.131v-1.563zm13.724-1.672c-.84-.852-1.809-1.53-2.866-2.015.991-.11 1.953-.261 2.866-.453v2.468zm-15.521-2.919l.714.198v8.991h-.714v-9.189zm1.917 9.189c.464-3.413 3.31-6.048 6.742-6.048s6.278 2.635 6.742 6.048h-13.483zm14.686-8.991l.714-.198v9.189h-.714v-8.991z" fill="#67737B"/><path d="M30.517 29.72h-.683v-3.991c.147-.1.244-.271.244-.466s-.097-.366-.244-.467v-.742c.147-.1.244-.271.244-.466s-.097-.367-.244-.467v-.742c.147-.1.244-.271.244-.467s-.098-.368-.247-.468c-.018-.292-.25-.525-.538-.525-.288 0-.521.233-.538.525-.148.099-.247.272-.247.468 0 .195.097.367.244.467v.742c-.147.1-.244.272-.244.467s.097.366.244.466v.742c-.147.1-.244.271-.244.467 0 .195.097.366.244.466v3.991h-1.873v-9.999c2.008-.941 3.286-2.22 3.286-3.824 0-.617-.485-1.117-1.083-1.117s-1.083.5-1.083 1.117c0 .211-.135.471-.418.754l-3.648-1.523-.12-.041v-2.229c1.385-.346 2.626-.795 3.636-1.342l.219-.122c1.546-.891 2.496-2.032 2.496-3.413 0-.617-.485-1.117-1.083-1.117s-1.083.501-1.083 1.117c0 .36-.394.861-1.241 1.375-.311-.008-.62-.029-.926-.065v-.886c0-.308-.243-.559-.542-.559-.299 0-.541.251-.541.559v.704c-3.325-.737-6.205-3.041-7.688-6.284-.088-.228-.247-.426-.466-.555v-1.71c0-.308-.242-.559-.541-.559-.299 0-.541.251-.541.559v1.706c-.229.136-.395.346-.48.588-1.487 3.228-4.359 5.52-7.674 6.255v-.704c0-.308-.242-.559-.541-.559-.299 0-.541.251-.541.559v.886c-.306.036-.616.057-.927.065-.846-.514-1.241-1.015-1.241-1.375 0-.617-.485-1.117-1.083-1.117s-1.083.501-1.083 1.117c0 1.381.95 2.521 2.497 3.413l.217.122c1.01.548 2.252.996 3.636 1.343v2.228l-.12.041-3.647 1.523c-.283-.283-.418-.542-.418-.754 0-.617-.485-1.117-1.083-1.117s-1.083.5-1.083 1.117c0 1.604 1.279 2.883 3.286 3.824v9.999h-1.961v-3.991c.147-.1.244-.271.244-.466s-.097-.366-.244-.467v-.742c.147-.1.244-.271.244-.466s-.097-.367-.244-.467v-.742c.147-.1.244-.271.244-.467s-.098-.368-.247-.468c-.018-.292-.25-.525-.538-.525-.288 0-.521.233-.538.525-.149.099-.247.272-.247.468 0 .195.097.367.244.467v.742c-.147.1-.244.272-.244.467s.097.366.244.466v.742c-.147.1-.244.271-.244.467 0 .195.097.366.244.466v3.991h-.706c-.598 0-1.083.5-1.083 1.117s.485 1.117 1.083 1.117h29.035c.598 0 1.083-.5 1.083-1.117s-.484-1.117-1.083-1.117zm-8.867-14.673h-.635v-1.649l.635-.096v1.745zm-9.471-1.514c1.264.135 2.572.204 3.877.204 1.305 0 2.612-.069 3.877-.204v1.514h-7.753v-1.514zm3.877-8.019c1.604 2.481 3.954 4.341 6.647 5.316-1.967.437-4.251.672-6.647.672s-4.681-.235-6.647-.672c2.694-.975 5.043-2.835 6.647-5.316zm-4.959 7.884v1.649h-.635v-1.745l.635.096zm-2.303 3.884h14.525l1.817.759-.221.081c-2.35.837-5.496 1.298-8.859 1.298-3.363 0-6.509-.46-8.859-1.298l-.221-.081 1.817-.759zm3.266 4.154c-1.057.485-2.026 1.164-2.866 2.015v-2.468c.913.192 1.875.344 2.866.453zm-2.866 3.687c1.669-2.187 4.16-3.439 6.862-3.439 2.703 0 5.193 1.251 6.862 3.439v1.563c-1.359-2.464-3.925-4.131-6.862-4.131-2.938 0-5.504 1.667-6.862 4.131v-1.563zm13.724-1.672c-.84-.852-1.809-1.53-2.866-2.015.991-.11 1.953-.261 2.866-.453v2.468zm-15.521-2.919l.714.198v8.991h-.714v-9.189zm1.917 9.189c.464-3.413 3.31-6.048 6.742-6.048s6.278 2.635 6.742 6.048h-13.483zm14.686-8.991l.714-.198v9.189h-.714v-8.991z" fill="#3A434E"/></g></g></svg>