<svg width="32" height="232" viewBox="0 0 32 232" xmlns="http://www.w3.org/2000/svg"><desc>Created with Sketch.</desc><g fill="none"><path d="M20.19 121.218c.066.035.14.054.216.054.074 0 .148-.018.215-.054l.13-.094c.09-.094.14-.223.14-.357 0-.134-.05-.262-.14-.356l-.126-.09c-.085-.044-.183-.06-.278-.05-.104.016-.2.066-.276.144-.09.095-.143.224-.143.358 0 .19.103.365.265.45zm-5.852.915l.4.228.22.42c.084.16.245.26.42.26s.338-.1.424-.26l.218-.42.4-.225c.155-.088.25-.257.25-.442 0-.182-.095-.352-.25-.44l-.4-.23-.218-.416c-.085-.16-.247-.26-.423-.26s-.34.1-.426.26l-.22.418-.4.23c-.153.087-.25.257-.25.44 0 .184.097.353.25.442zm16.255 27.847h-1.3v-23.012c0-.194-.107-.37-.274-.454L26.99 125.5l-.014-.006-.016-.007-.077-.025-.013-.002-.087-.01h-.002l-.005.002-.085.01h-.007l-.08.026-.013.006-.008.003-2.13 1.014c-.172.086-.283.265-.283.46v9.29h-1.018v-.2c0-.275-.216-.5-.48-.5-.267 0-.482.225-.482.503v.2h-.853v-9.29c0-.196-.107-.374-.277-.456l-2.042-.993-.042-.02-.006-.002-.05-.02-.07-.017-.058-.007h-.014l-.21.046-2.068 1.012c-.17.083-.277.26-.277.456v12.72c-.035.07-.057.147-.057.232v5.213h-.464c.034-1.706.045-3.657 0-5.662-.112-4.992-.508-8.782-1.202-11.44l-.003-.007c-.45-1.712-1.02-2.953-1.72-3.736-.62-.696-1.38-1.063-2.19-1.063s-1.566.367-2.185 1.063c-1.778 2-2.714 6.968-2.862 15.188-.037 2.065-.016 4.07.028 5.81-.296.188-.5.524-.505.91l-.26 3.785H4.54l-.11-16.465 1.003-2.525c.056-.14.048-.298-.02-.432-.07-.133-.194-.227-.336-.254l-.646-.126v-3.895c.154-.085.258-.25.258-.443 0-.24-.162-.443-.38-.49v-1.69c0-.277-.214-.502-.48-.502h-.03v-2.615c0-.278-.216-.503-.48-.503-.267 0-.482.227-.482.505v2.617H2.8c-.265 0-.48.225-.48.503v1.688c-.217.05-.38.25-.38.49 0 .195.105.36.258.444v3.893l-.646.125c-.142.028-.266.12-.335.254s-.077.29-.022.432l1.002 2.526-.108 16.465H1.37c-.53 0-.962.45-.962 1.005 0 .555.43 1.006.963 1.006H30.59c.532 0 .963-.45.963-1.005s-.43-1.006-.962-1.006zm-2.63-9.556h.367v9.556h-3.19v-9.556h2.822zm-1.495-9.053H27v8.05h-.532v-8.05zm-6.483 9.057h.396v4.855l-.392-.093c-.195-.035-.392-.053-.59-.053H17.13v-4.71h2.853zm1.663 7.208h-2.625 2.625zm-3.157-16.26h.537v8.047h-.533v-8.05zm-1.835 14.768h2.743c.206 0 .402.028.59.074.137.032.27.076.397.13.168.07.328.154.48.252l.047.03h-2.57c-.265 0-.48.226-.48.503v1.005c0 .278.215.503.48.503h4.255c.253.467.44.91.563 1.23l.04.113.107.307-.06.034H5.825l-.045-.017-.027-.05.013-.197.005-.078.26-3.727v-.037l.076-.077h10.55zm-6.02-20.854l1.01 1.055-1.01 1.057-1.01-1.056 1.01-1.055zm3.178 16.383l-.807-.846.79-.826c.01.565.016 1.124.018 1.67zm-2.672 3.464H10.13l-.503-.527 1.01-1.057 1.01 1.058-.504.53zm-.506-3.255l-1.01-1.056 1.01-1.056 1.01 1.056-1.01 1.055zm0-12.74l1.01 1.055-.34.357c-.213-.12-.44-.186-.683-.186-.233 0-.456.063-.663.177l-.332-.346 1.01-1.057zm2.597 2.713l-.71.74c-.1-.522-.28-.984-.517-1.35l.322-.336.907.945zm-2.595 6.31l-1.01-1.057.428-.446c.18.083.37.13.57.13.206 0 .404-.05.59-.14l.434.455-1.01 1.056zm-1.042-4.617v-.068c.016-.615.157-1.146.356-1.522.06-.113.123-.21.192-.293.115-.14.238-.232.36-.27l.12-.02.165.035c.12.05.24.15.35.295l.17.272c.2.38.337.916.347 1.532v.01l.002.06c0 .7-.168 1.3-.4 1.697l-.146.214-.017.02c-.147.174-.31.274-.467.274-.084 0-.17-.03-.25-.08l-.16-.13-.02-.02-.126-.158-.067-.102c-.237-.397-.41-1.006-.41-1.715l.002-.034zm2.353 2.45c.285-.4.495-.935.6-1.547l.82.86-1.04 1.085-.38-.398zm-2.692-4.768c-.24.363-.422.822-.526 1.343l-.685-.715.905-.946.307.32zm-.546 3.246c.107.61.32 1.14.606 1.54l-.366.38-1.038-1.085.8-.836zm1.34 4.492l-1.1 1.147-1.096-1.147 1.098-1.148 1.1 1.148zm1.184 0l1.1-1.148 1.097 1.148-1.1 1.147-1.1-1.147zm2.51-1.095l-.73-.762.664-.693c.025.466.047.952.067 1.458zm-.73-4.357l.404-.422.09.94-.495-.516zm-.68-4.027l-1.163-1.216 1.05-1.097c.184.485.37 1.092.55 1.856l-.438.456zm-2.22-1.216l-1.16 1.216-.484-.505c.177-.765.364-1.374.55-1.856l1.096 1.145zM8.27 130.2l-.06.064.017-.106.042.044zm-.44 2.857l.44.46-.534.556.094-1.015zm-.248 3.337l.687.72-.75.782c.016-.52.04-1.02.06-1.5zm-.112 3.603l.798.834-.808.846c0-.552.003-1.113.01-1.68zm1.478 1.545l1.13 1.18-1.13 1.18-1.128-1.18 1.13-1.18zm2.253 1.18l1.13-1.18 1.13 1.18-1.13 1.18-1.13-1.18zm-3.723 1.064l.794.83-.502.527H7.5l-.027-1.356zM25.15 127.3l1.167-.556v2.76c0 .277.217.5.48.5.268 0 .483-.224.483-.5v-2.743l1.06.53v12.135h-.367v-8.55c0-.28-.215-.504-.48-.504H25.99c-.265 0-.48.226-.48.504v8.55h-.367v-12.126zm-1.13 9.975v12.12c-.18-.46-.46-1.088-.85-1.72v-10.4h.85zm-1.814 0v9.157c-.273-.277-.558-.51-.853-.7v-8.457h.853zm-5.006-9.98l1.115-.545v2.754c0 .277.214.5.48.5s.482-.224.482-.5v-2.75l1.114.544v12.13h-.394v-8.552c0-.277-.216-.502-.48-.502h-1.5c-.265 0-.48.225-.48.503v8.552h-.34V127.3zm-3.683 17.847l-.503-.527.8-.838-.02 1.364h-.277zM3.165 126.45l.153.03.153-.03v3.618h-.304v-3.617zm-.036 6.776l-.81-2.046.55-.107h.9l.55.107-.81 2.046-.037.196.11 16.56h-.526l.11-16.56-.037-.196zm12.75 14.12v.577c.01.104.13.19.292.21l.057.003h.013c.197 0 .357-.095.367-.214v-.578c-.01-.12-.17-.214-.365-.214h-.016l-.06.005c-.16.02-.285.105-.293.21zm-1.168-.215c-.197 0-.357.1-.366.218v.578c.01.12.17.214.366.214.197 0 .357-.096.367-.215v-.578c-.01-.12-.17-.214-.37-.214zm-1.533 0c-.2 0-.36.1-.37.218v.578c.01.103.13.19.293.21l.075.003c.195 0 .355-.096.365-.215v-.578c-.01-.12-.17-.214-.367-.214zm-1.536 0c-.197 0-.357.1-.366.218v.578c.005.096.112.175.26.203l.105.01.103-.01c.146-.026.255-.106.262-.204v-.578c-.01-.12-.17-.214-.366-.214zm-1.534 0c-.195 0-.355.1-.364.218v.578l.066.117c.067.06.177.098.3.098.2 0 .36-.094.368-.213v-.58c-.012-.118-.17-.212-.367-.212zm-1.53 0l-.014.005c-.19.004-.345.097-.354.213v.578c.007.077.077.144.178.18l.19.034c.197 0 .357-.096.366-.215v-.578c-.01-.12-.17-.214-.366-.214zm-1.343.04l-.192-.036c-.197 0-.357.097-.366.215v.577c.01.12.17.214.365.214.197 0 .357-.095.366-.214v-.578c-.004-.076-.072-.142-.172-.18z" fill="#206FAC"/><path d="M20.19 81.218c.066.035.14.054.216.054.074 0 .148-.018.215-.054l.13-.094c.09-.094.14-.223.14-.357 0-.134-.05-.262-.14-.356l-.126-.09c-.085-.044-.183-.06-.278-.05-.104.016-.2.066-.276.144-.09.095-.143.224-.143.358 0 .19.103.365.265.45zm-5.852.915l.4.228.22.42c.084.16.245.26.42.26s.338-.1.424-.26l.218-.42.4-.225c.155-.088.25-.257.25-.442 0-.182-.095-.352-.25-.44l-.4-.23-.218-.416c-.085-.16-.247-.26-.423-.26s-.34.1-.426.26l-.22.418-.4.23c-.153.087-.25.257-.25.44 0 .184.097.353.25.442zm16.255 27.847h-1.3V86.968c0-.194-.107-.37-.274-.454L26.99 85.5l-.014-.006-.016-.007-.077-.025-.013-.002-.087-.01h-.002l-.005.002-.085.01h-.007l-.08.026-.013.006-.008.003-2.13 1.014c-.172.086-.283.265-.283.46v9.29h-1.018v-.2c0-.275-.216-.5-.48-.5-.267 0-.482.225-.482.503v.2h-.853v-9.29c0-.196-.107-.374-.277-.456l-2.042-.993-.042-.02-.006-.002-.05-.02-.07-.017-.058-.007h-.014l-.21.046-2.068 1.012c-.17.083-.277.26-.277.456v12.72c-.035.07-.057.147-.057.232v5.213h-.464c.034-1.706.045-3.657 0-5.662-.112-4.992-.508-8.782-1.202-11.44l-.003-.007c-.45-1.712-1.02-2.953-1.72-3.736-.62-.696-1.38-1.063-2.19-1.063s-1.566.367-2.185 1.063c-1.778 2-2.714 6.968-2.862 15.188-.037 2.065-.016 4.07.028 5.81-.296.188-.5.524-.505.91l-.26 3.785H4.54L4.43 93.52l1-2.527c.055-.14.047-.298-.022-.432-.07-.132-.193-.226-.335-.253l-.646-.125v-3.897c.152-.084.256-.25.256-.442 0-.24-.162-.442-.38-.49v-1.69c0-.276-.214-.5-.48-.5h-.03v-2.617c0-.278-.216-.503-.48-.503-.267 0-.482.227-.482.505v2.617H2.8c-.265 0-.48.226-.48.504v1.687c-.217.048-.38.25-.38.49 0 .194.105.36.258.443v3.894l-.646.126c-.142.028-.266.12-.335.254s-.077.29-.022.432l1.002 2.526-.108 16.465H1.37c-.53 0-.962.45-.962 1.006 0 .553.43 1.004.963 1.004H30.59c.532 0 .963-.45.963-1.006s-.43-1.005-.962-1.005zm-2.63-9.556h.367v9.556h-3.19v-9.556h2.822zm-1.495-9.053H27v8.05h-.532v-8.05zm-6.483 9.057h.396v4.855l-.392-.093c-.195-.035-.392-.053-.59-.053H17.13v-4.71h2.853zm1.663 7.208h-2.625 2.625zm-3.157-16.26h.537v8.047h-.533v-8.05zm-1.835 14.768h2.743c.206 0 .402.028.59.074.137.032.27.076.397.13.168.07.328.154.48.252l.047.03h-2.57c-.265 0-.48.226-.48.503v1.005c0 .278.215.503.48.503h4.255c.253.467.44.91.563 1.23l.04.113.107.307-.06.034H5.825l-.045-.017-.027-.05.013-.197.005-.078.26-3.727v-.037l.076-.077h10.55zm-6.02-20.854l1.01 1.055-1.01 1.057-1.01-1.056 1.01-1.055zm3.178 16.383l-.807-.846.79-.826c.01.565.016 1.124.018 1.67zm-2.672 3.464H10.13l-.503-.527 1.01-1.057 1.01 1.058-.504.53zm-.506-3.255l-1.01-1.056 1.01-1.056 1.01 1.056-1.01 1.055zm0-12.74l1.01 1.055-.34.357c-.213-.12-.44-.186-.683-.186-.233 0-.456.063-.663.177l-.332-.346 1.01-1.057zm2.597 2.713l-.71.74c-.1-.522-.28-.984-.517-1.35l.322-.336.907.945zm-2.595 6.31l-1.01-1.057.428-.446c.18.083.37.13.57.13.206 0 .404-.05.59-.14l.434.455-1.01 1.056zm-1.045-4.62v-.068c.016-.615.157-1.146.356-1.522.06-.113.124-.21.193-.293.112-.14.235-.232.36-.27l.12-.02.162.035c.12.05.24.15.35.295l.17.272c.2.38.337.916.347 1.532V93.576c0 .7-.167 1.3-.4 1.698l-.145.214-.017.02c-.15.174-.31.274-.47.274-.083 0-.17-.03-.25-.08l-.16-.13-.02-.02-.125-.158-.067-.102c-.237-.397-.41-1.006-.41-1.715l.002-.033zm2.353 2.45c.285-.4.495-.935.6-1.547l.82.86-1.04 1.085-.38-.398zM9.248 91.23c-.24.363-.422.822-.526 1.343l-.684-.716.905-.946.308.32zM8.7 94.474c.107.61.32 1.14.606 1.54l-.366.38-1.038-1.085.8-.84zm1.34 4.492l-1.1 1.147-1.096-1.147 1.097-1.148 1.1 1.148zm1.184 0l1.098-1.148 1.098 1.148-1.098 1.147-1.098-1.147zm2.51-1.095l-.73-.76.663-.694c.026.466.048.952.068 1.458zm-.73-4.355l.403-.422.09.94-.494-.516zm-.68-4.027L11.16 88.27l1.05-1.098c.185.485.372 1.092.55 1.856l-.437.457zm-2.22-1.215L8.942 89.49l-.483-.506c.173-.765.36-1.374.55-1.856l1.092 1.146zM8.262 90.2l-.06.064.018-.107.042.044zm-.44 2.857l.44.46-.533.556.09-1.015zm-.247 3.337l.687.718-.75.783c.018-.52.04-1.02.063-1.5zm-.112 3.602l.798.834-.805.846c0-.552.003-1.113.01-1.68zm1.478 1.545l1.13 1.18-1.13 1.18-1.125-1.18 1.13-1.18zm2.256 1.18l1.13-1.18 1.13 1.18-1.13 1.18-1.13-1.18zm-3.725 1.065l.793.83-.503.527H7.5l-.03-1.355zm17.67-16.488l1.17-.556v2.76c0 .277.215.5.48.5.266 0 .48-.224.48-.5v-2.743l1.06.53V99.42h-.366v-8.55c0-.28-.215-.504-.48-.504H25.99c-.267 0-.48.225-.48.503v8.55h-.37V87.29zm-1.127 9.975v12.12c-.18-.46-.46-1.088-.852-1.72v-10.4h.853zm-1.815 0v9.157c-.273-.278-.558-.51-.853-.7v-8.46h.853zm-5.006-9.98l1.117-.545V89.5c0 .277.214.5.48.5s.482-.224.482-.5v-2.75l1.113.543v12.13h-.396V90.87c0-.277-.217-.502-.48-.502h-1.5c-.265 0-.48.225-.48.503v8.555h-.34v-12.13zm-3.68 17.847l-.505-.528.8-.84-.02 1.365h-.277zM3.162 86.45l.154.03.153-.03v3.618h-.307V86.45zm-.035 6.776l-.81-2.046.55-.107h.902l.55.107-.81 2.046-.038.196.11 16.56h-.526l.11-16.56-.037-.196zm12.75 14.12v.577c.01.104.132.19.294.21l.058.003h.013c.198 0 .358-.095.368-.214v-.578c-.01-.12-.17-.214-.366-.214h-.016l-.058.005c-.162.02-.285.105-.293.21zm-1.166-.215c-.196 0-.356.1-.365.218v.578c.01.12.17.214.366.214.198 0 .358-.096.368-.215v-.578c-.01-.12-.17-.214-.37-.214zm-1.532 0c-.2 0-.36.1-.37.218v.578c.01.103.13.19.293.21l.076.003c.196 0 .356-.096.366-.215v-.578c-.01-.12-.17-.214-.367-.214zm-1.536 0c-.197 0-.357.1-.366.218v.578c.006.096.113.175.26.203l.106.01.103-.01c.146-.026.255-.106.262-.204v-.578c-.01-.12-.17-.214-.367-.214zm-1.534 0c-.196 0-.356.1-.365.218v.578l.066.117c.067.06.177.098.3.098.2 0 .36-.094.37-.213v-.58c-.014-.118-.17-.212-.37-.212zm-1.532 0l-.013.005c-.19.004-.345.097-.354.213v.578c.007.077.077.144.18.18l.19.034c.195 0 .355-.096.364-.215v-.578c-.01-.12-.17-.214-.366-.214zm-1.342.04l-.192-.036c-.197 0-.357.097-.366.215v.577c.01.12.17.214.367.214.197 0 .357-.095.366-.214v-.578c-.005-.076-.073-.142-.173-.18z" fill="#fff"/><path d="M20.19 41.218c.066.035.14.054.216.054.074 0 .148-.018.215-.054l.13-.094c.09-.094.14-.223.14-.357 0-.134-.05-.262-.14-.356l-.126-.09c-.085-.044-.183-.06-.278-.05-.104.016-.2.066-.276.144-.09.095-.143.224-.143.358 0 .19.103.365.265.45zm-5.852.915l.4.228.22.42c.084.16.245.26.42.26s.338-.1.424-.26l.218-.42.4-.225c.155-.088.25-.257.25-.442 0-.182-.095-.352-.25-.44l-.4-.23-.218-.416c-.085-.16-.247-.26-.423-.26s-.34.1-.426.26l-.22.418-.4.23c-.153.087-.25.257-.25.44 0 .184.097.353.25.442zM30.593 69.98h-1.3V46.968c0-.194-.107-.37-.274-.454L26.99 45.5l-.014-.006-.016-.007-.077-.025-.013-.002-.087-.01h-.002l-.005.002-.085.01h-.007l-.08.026-.013.006-.008.003-2.13 1.014c-.172.086-.283.265-.283.46v9.29h-1.018v-.2c0-.275-.216-.5-.48-.5-.267 0-.482.225-.482.503v.2h-.853v-9.29c0-.196-.107-.374-.277-.456l-2.042-.993-.042-.02-.006-.002-.05-.02-.07-.017-.058-.007h-.014l-.21.046-2.068 1.012c-.17.083-.277.26-.277.456v12.72c-.035.07-.057.147-.057.232v5.213h-.464c.034-1.706.045-3.657 0-5.662-.112-4.992-.508-8.782-1.202-11.44l-.003-.007c-.45-1.712-1.02-2.953-1.72-3.736-.62-.696-1.38-1.063-2.19-1.063s-1.566.367-2.185 1.063c-1.778 2-2.714 6.968-2.862 15.188-.037 2.065-.016 4.07.028 5.81-.296.188-.5.524-.505.91l-.26 3.785H4.54L4.43 53.52l1-2.527c.055-.14.047-.298-.022-.432-.07-.132-.193-.226-.335-.253l-.646-.125v-3.897c.152-.084.256-.25.256-.442 0-.24-.162-.442-.38-.49v-1.69c0-.276-.214-.5-.48-.5h-.03v-2.617c0-.278-.216-.503-.48-.503-.267 0-.482.227-.482.505v2.617H2.8c-.265 0-.48.226-.48.504v1.687c-.217.048-.38.25-.38.49 0 .194.105.36.258.443v3.894l-.646.126c-.142.028-.266.12-.335.254s-.077.29-.022.432l1.002 2.526L2.09 69.98h-.715c-.53 0-.962.45-.962 1.006 0 .555.43 1.006.962 1.006H30.59c.532 0 .963-.45.963-1.006 0-.555-.43-1.005-.962-1.005zm-2.63-9.556h.367v9.556h-3.19v-9.556h2.822zm-1.495-9.053H27v8.05h-.532v-8.05zm-6.483 9.057h.396v4.855l-.392-.093c-.195-.035-.392-.053-.59-.053H17.13v-4.71h2.853zm1.663 7.208h-2.625 2.625zm-3.157-16.26h.537v8.047h-.533v-8.05zM16.656 66.14h2.743c.206 0 .402.027.59.073.137.032.27.076.397.13.168.07.328.154.48.252l.047.032h-2.57c-.265 0-.48.225-.48.502v1.002c0 .278.215.503.48.503h4.255c.253.466.44.908.563 1.23l.04.112.107.306-.06.035H5.825L5.78 70.3l-.027-.05.013-.196.005-.078.26-3.728v-.037l.076-.076h10.55zm-6.02-20.855l1.01 1.056-1.01 1.06-1.01-1.056 1.01-1.055zM13.81 61.67l-.808-.846.79-.826c.01.564.016 1.123.018 1.67zm-2.673 3.464h-1.013l-.503-.527 1.01-1.056 1.01 1.06-.5.527zm-.507-3.255l-1.01-1.06 1.01-1.056 1.01 1.056-1.01 1.055zm0-12.74l1.01 1.052-.342.357c-.212-.12-.44-.187-.682-.187-.234 0-.457.063-.664.177l-.332-.345 1.01-1.056zm2.596 2.71l-.71.74c-.1-.52-.28-.984-.518-1.35l.323-.336.91.946zm-2.596 6.31l-1.01-1.057.427-.446c.18.083.37.13.57.13.206 0 .404-.05.59-.14l.434.455-1.01 1.056zm-1.043-4.617v-.068c.016-.615.157-1.146.356-1.522.06-.113.124-.21.193-.293.114-.14.237-.23.36-.27l.12-.02.164.036c.12.05.24.15.35.295l.17.274c.198.38.336.916.346 1.532v.01l.002.06c0 .7-.167 1.3-.398 1.698l-.147.214-.017.02c-.148.174-.31.274-.468.274-.083 0-.168-.03-.25-.08l-.158-.13-.02-.02-.127-.157-.067-.102c-.237-.396-.41-1.005-.41-1.714l.002-.034zm2.353 2.45c.284-.4.494-.935.598-1.547l.822.86-1.04 1.085-.38-.397zM9.247 51.23c-.24.363-.422.822-.526 1.343l-.682-.716.905-.946.308.32zM8.7 54.474c.107.61.32 1.14.606 1.54l-.366.38-1.038-1.085.8-.84zm1.34 4.492l-1.1 1.147-1.096-1.147 1.097-1.148 1.1 1.148zm1.184 0l1.098-1.148 1.098 1.148-1.098 1.147-1.098-1.147zm2.51-1.095l-.73-.76.663-.694c.026.466.048.952.068 1.458zm-.73-4.355l.403-.422.09.94-.494-.516zm-.68-4.027L11.16 48.27l1.05-1.098c.185.485.372 1.092.55 1.856l-.437.457zm-2.22-1.215L8.942 49.49l-.483-.506c.173-.765.36-1.374.55-1.856l1.092 1.146zM8.262 50.2l-.06.064.018-.107.042.044zm-.44 2.857l.44.46-.533.556.09-1.015zm-.247 3.337l.687.718-.75.783c.018-.52.04-1.02.063-1.5zm-.112 3.602l.798.834-.805.846c0-.552.003-1.113.01-1.68zM8.94 61.54l1.13 1.18-1.13 1.18-1.127-1.18 1.13-1.18zm2.254 1.18l1.13-1.18 1.13 1.18-1.13 1.18-1.13-1.18zM7.47 63.782l.792.83-.503.527H7.5l-.03-1.358zm17.67-16.488l1.168-.556v2.76c0 .276.216.5.48.5.267 0 .482-.225.482-.5v-2.744l1.06.53V59.42h-.367v-8.55c0-.28-.215-.504-.48-.504h-1.495c-.266 0-.48.225-.48.503v8.55h-.368V47.29zm-1.128 9.975v12.116c-.18-.46-.46-1.087-.852-1.718v-10.4h.852zm-1.815 0v9.154c-.273-.277-.558-.51-.853-.7V57.27h.853zm-5.006-9.98l1.118-.548v2.754c0 .278.215.502.48.502s.483-.226.483-.503V46.75l1.114.543v12.13h-.396V50.87c0-.277-.216-.502-.48-.502H18.01c-.265 0-.48.225-.48.503v8.555h-.34v-12.13zm-3.68 17.845l-.503-.527.8-.84-.02 1.364h-.277zM3.165 46.45l.153.03.153-.03v3.618h-.306V46.45zm-.036 6.776l-.81-2.046.55-.107h.902l.55.107-.81 2.046-.037.196.11 16.56h-.526l.11-16.56-.037-.196zm12.75 14.12v.577c.01.104.132.19.294.21l.057.003h.012c.197 0 .357-.095.367-.214v-.578c-.01-.12-.17-.214-.367-.214h-.016l-.058.005c-.163.02-.286.105-.294.21zm-1.166-.215c-.197 0-.357.1-.366.218v.578c.01.12.17.214.366.214.197 0 .357-.096.367-.215v-.578c-.01-.12-.17-.214-.37-.214zm-1.533 0c-.2 0-.36.1-.37.218v.578c.01.103.13.19.292.21l.075.003c.196 0 .356-.096.366-.215v-.578c-.01-.12-.17-.214-.367-.214zm-1.537 0c-.197 0-.357.1-.366.218v.578c.006.096.113.175.26.203l.106.01.103-.01c.146-.026.255-.106.262-.204v-.578c-.01-.12-.17-.214-.367-.214zm-1.534 0c-.197 0-.357.1-.366.218v.578l.066.117c.068.06.178.098.3.098.2 0 .36-.094.37-.213v-.58c-.013-.118-.17-.212-.368-.212zm-1.533 0l-.013.005c-.19.004-.345.097-.354.213v.578c.008.077.078.144.18.18l.19.034c.196 0 .356-.096.365-.215v-.578c-.01-.12-.17-.214-.366-.214zm-1.342.04l-.192-.036c-.197 0-.357.097-.366.215v.577c.01.12.17.214.367.214.197 0 .357-.095.366-.214v-.578c-.004-.076-.072-.142-.172-.18z" fill="#67737B"/><path d="M20.19 1.218c.066.035.14.054.216.054.074 0 .148-.018.215-.054l.13-.094c.09-.094.14-.223.14-.357 0-.134-.05-.262-.14-.356l-.13-.09c-.085-.045-.183-.062-.278-.05-.104.015-.2.065-.276.143-.09.095-.142.224-.142.358 0 .19.103.367.265.45zm-5.852.915l.4.228.22.42c.084.16.245.26.42.26s.338-.1.424-.26l.218-.42.4-.225c.155-.088.25-.257.25-.442 0-.182-.095-.352-.25-.44l-.4-.23-.218-.416c-.085-.16-.247-.26-.423-.26s-.34.1-.426.26l-.22.418-.4.23c-.153.087-.25.257-.25.44 0 .184.097.353.25.442zM30.593 29.98h-1.3V6.968c0-.194-.107-.37-.274-.454L26.99 5.5l-.014-.006-.016-.007-.077-.025-.013-.002-.087-.01h-.002l-.005.002-.085.01h-.007l-.08.026-.013.006-.008.003-2.13 1.014c-.172.086-.283.265-.283.46v9.29h-1.018v-.2c0-.275-.216-.5-.48-.5-.267 0-.482.225-.482.503v.2h-.853V6.97c0-.197-.107-.375-.277-.457L19.02 5.52l-.044-.02-.005-.003-.05-.02-.07-.018-.055-.01h-.014l-.21.046L16.5 6.51c-.17.084-.277.26-.277.457v12.72c-.035.07-.057.147-.057.232v5.21h-.464c.034-1.705.045-3.656 0-5.66-.112-4.993-.508-8.783-1.202-11.44l-.003-.008c-.448-1.712-1.02-2.953-1.72-3.736-.62-.696-1.378-1.063-2.188-1.063-.81 0-1.57.368-2.19 1.064-1.777 2-2.713 6.967-2.86 15.187-.037 2.064-.016 4.07.03 5.81-.3.187-.5.523-.51.91l-.26 3.784h-.265l-.11-16.466L5.43 10.99c.055-.14.047-.298-.022-.432-.07-.133-.193-.227-.335-.254l-.646-.125V6.28c.152-.084.256-.25.256-.442 0-.24-.162-.442-.38-.49V3.66c0-.276-.214-.5-.48-.5h-.03V.544c0-.278-.216-.503-.48-.503-.267 0-.482.227-.482.505V3.16H2.8c-.265 0-.48.226-.48.504v1.688c-.217.048-.38.25-.38.49 0 .194.105.36.258.443v3.894l-.646.12c-.142.03-.266.12-.335.255s-.077.292-.022.433l1.002 2.525L2.09 29.98h-.715c-.53 0-.962.45-.962 1.006 0 .555.43 1.006.962 1.006H30.59c.532 0 .963-.45.963-1.006 0-.555-.43-1.005-.962-1.005zm-2.63-9.556h.367v9.556h-3.19v-9.556h2.822zm-1.495-9.053H27v8.05h-.532v-8.05zm-6.483 9.057h.396v4.855l-.392-.093c-.195-.035-.392-.053-.59-.053H17.13v-4.71h2.853zm1.663 7.208h-2.625 2.625zm-3.157-16.26h.537v8.047h-.533v-8.05zM16.656 26.14h2.743c.206 0 .402.027.59.073.137.032.27.076.397.13.168.07.328.154.48.252l.047.032h-2.57c-.265 0-.48.225-.48.502v1.002c0 .278.215.503.48.503h4.255c.253.466.44.908.563 1.23l.04.112.107.306-.06.035H5.825L5.78 30.3l-.027-.05.013-.196.005-.078.26-3.728v-.037l.076-.076h10.55zm-6.02-20.855l1.01 1.056-1.01 1.06L9.62 6.34l1.01-1.055zM13.81 21.67l-.808-.846.79-.826c.01.564.016 1.123.018 1.67zm-2.673 3.464h-1.013l-.503-.527 1.01-1.056 1.01 1.06-.5.527zm-.507-3.255l-1.01-1.06 1.01-1.056 1.01 1.056-1.01 1.055zm0-12.74l1.01 1.052-.342.357c-.212-.12-.44-.187-.682-.187-.234 0-.457.063-.664.177l-.332-.345 1.01-1.056zm2.596 2.71l-.71.74c-.1-.52-.28-.984-.518-1.35l.323-.336.91.946zm-2.596 6.31l-1.01-1.057.427-.446c.18.083.37.13.57.13.206 0 .404-.05.59-.14l.434.455-1.01 1.056zm-1.043-4.617v-.068c.016-.615.157-1.146.356-1.522.06-.113.124-.21.193-.293.114-.14.237-.23.36-.27l.12-.02.164.036c.12.05.24.15.35.295l.17.274c.198.38.336.916.346 1.532v.01l.002.06c0 .7-.167 1.3-.398 1.698l-.147.214-.017.02c-.148.174-.31.274-.468.274-.083 0-.168-.03-.25-.08l-.158-.13-.02-.02-.127-.157-.067-.102c-.237-.396-.41-1.005-.41-1.714l.002-.034zm2.353 2.45c.284-.4.494-.935.598-1.547l.822.86-1.04 1.085-.38-.397zM9.247 11.23c-.24.363-.422.822-.526 1.343l-.682-.716.905-.946.308.32zM8.7 14.474c.107.61.32 1.14.606 1.54l-.366.38-1.038-1.085.8-.84zm1.34 4.492l-1.1 1.147-1.096-1.147 1.097-1.148 1.1 1.148zm1.184 0l1.098-1.148 1.098 1.148-1.098 1.147-1.098-1.147zm2.51-1.095l-.73-.76.663-.694c.026.466.048.952.068 1.458zm-.73-4.355l.403-.422.09.94-.494-.516zm-.68-4.027L11.16 8.27l1.05-1.098c.185.485.372 1.092.55 1.856l-.437.457zm-2.22-1.215l-1.16 1.215-.484-.505c.176-.766.363-1.375.55-1.857l1.095 1.146zM8.262 10.2l-.06.064.018-.107.042.044zm-.44 2.857l.44.46-.533.556.09-1.015zm-.247 3.337l.687.718-.75.783c.018-.52.04-1.02.063-1.5zm-.112 3.602l.798.834-.805.846c0-.552.003-1.113.01-1.68zM8.94 21.54l1.13 1.18-1.13 1.18-1.127-1.18 1.13-1.18zm2.254 1.18l1.13-1.18 1.13 1.18-1.13 1.18-1.13-1.18zM7.47 23.782l.792.83-.503.527H7.5l-.03-1.358zM25.14 7.295l1.168-.556V9.5c0 .276.216.5.48.5.267 0 .482-.225.482-.5V6.753l1.06.53V19.42h-.367v-8.55c0-.28-.215-.504-.48-.504h-1.495c-.266 0-.48.225-.48.503v8.55h-.368V7.29zm-1.128 9.975v12.118c-.18-.46-.46-1.087-.852-1.718v-10.4h.852zm-1.815 0v9.156c-.273-.277-.558-.51-.853-.7V17.27h.853zM17.19 7.29l1.115-.546v2.754c0 .278.215.502.48.502s.483-.225.483-.502V6.75l1.114.543v12.13h-.396V10.87c0-.277-.216-.502-.48-.502H18.01c-.265 0-.48.225-.48.503v8.555h-.34V7.295zm-3.683 17.846l-.504-.527.8-.84-.02 1.363h-.277zM3.164 6.45l.153.03.153-.03v3.618h-.306V6.45zm-.036 6.776l-.81-2.046.55-.107h.902l.55.107-.81 2.046-.037.196.11 16.56h-.526l.11-16.56-.037-.196zm12.75 14.12v.577c.01.104.132.19.294.21l.057.003h.012c.197 0 .357-.095.367-.214v-.578c-.01-.12-.17-.214-.367-.214h-.016l-.058.005c-.163.02-.286.105-.294.21zm-1.166-.215c-.197 0-.357.1-.366.218v.578c.01.12.17.214.366.214.197 0 .357-.096.367-.215v-.578c-.01-.12-.17-.214-.37-.214zm-1.533 0c-.2 0-.36.1-.37.218v.578c.01.103.13.19.292.21l.075.003c.196 0 .356-.096.366-.215v-.578c-.01-.12-.17-.214-.367-.214zm-1.537 0c-.197 0-.357.1-.366.218v.578c.006.096.113.175.26.203l.106.01.103-.01c.146-.026.255-.106.262-.204v-.578c-.01-.12-.17-.214-.367-.214zm-1.534 0c-.197 0-.357.1-.366.218v.578l.066.117c.068.06.178.098.3.098.2 0 .36-.094.37-.213v-.58c-.013-.118-.17-.212-.368-.212zm-1.533 0l-.013.005c-.19.004-.345.097-.354.213v.578c.008.077.078.144.18.18l.19.034c.196 0 .356-.096.365-.215v-.578c-.01-.12-.17-.214-.366-.214zm-1.342.04l-.192-.036c-.197 0-.357.097-.366.215v.577c.01.12.17.214.367.214.197 0 .357-.095.366-.214v-.578c-.004-.076-.072-.142-.172-.18z" fill="#3A434E"/></g></svg>