<svg width="32" height="232" viewBox="0 0 32 232" xmlns="http://www.w3.org/2000/svg"><title>japan</title><desc>Created with Sketch.</desc><g fill="none"><path d="M10.292 122.796c.09-.286-.043-.6-.3-.704-.257-.105-.543.037-.642.32L5.873 132.3l-.76-10.5c-.02-.302-.258-.528-.53-.51-.275.02-.484.278-.47.58l.57 13.81-4.65 13.23c-.05.145-.044.307.018.447.064.14.176.244.312.287l.842.268.14.022c.208 0 .4-.144.473-.372l3.045-9.617.425 10.255c.012.294.23.526.496.53l.876.01h.004c.14 0 .272-.065.367-.178.097-.114.145-.267.134-.423l-1.028-14.22 4.156-13.124zm7.877 10.778c0-1.91-.256-3.795-.76-5.606-.507-1.823-1.26-3.552-2.24-5.135-.124-.2-.35-.29-.562-.217-.21.072-.353.287-.353.53v1.108c-.457-.105-.877-.354-1.217-.725-.11-.12-.26-.177-.414-.157-.152.02-.287.116-.367.26-.754 1.362-1.35 2.82-1.77 4.336-.258.924-.45 1.868-.576 2.825-1.1.988-1.75 2.487-1.75 4.06 0 1.032.272 2.03.787 2.89.093.155.25.248.418.248.168 0 .324-.093.418-.248.086-.143.18-.28.28-.41l.088.455c-.344.533-.53 1.173-.53 1.834 0 .622.164 1.225.474 1.742.093.155.25.248.418.248.168 0 .324-.093.418-.248l.195-.27c.568 1.46 1.3 2.834 2.18 4.097-.66.858-1.394 1.65-2.185 2.355-.155.138-.222.364-.17.576.05.213.21.37.408.405l.055.007.023.003.073.006c.085 0 .17-.024.245-.07.668-.417 1.427-.637 2.195-.637.768 0 1.527.22 2.194.635.097.06.21.084.32.065l.02-.003.057-.008c.197-.035.356-.193.41-.406.05-.212-.016-.438-.17-.576-.792-.706-1.525-1.496-2.185-2.353.884-1.27 1.617-2.658 2.183-4.122l.195.27c.093.155.25.248.418.248.17 0 .327-.092.42-.247.307-.512.47-1.11.47-1.726 0-.66-.19-1.303-.537-1.833.282-1.375.428-2.786.428-4.21zm-.934 6.457l-.07-.056.108-.35c0 .138-.013.274-.038.407zm-3.287 6.698c-.194 0-.385.01-.575.033.196-.225.387-.457.574-.694.185.237.377.468.572.695-.19-.02-.382-.032-.573-.032zm-3.286-6.675c-.026-.13-.038-.267-.04-.404l.11.346-.07.057zm-1.217-3.62c-.187-.497-.284-1.032-.284-1.58 0-.79.21-1.555.586-2.21-.015.31-.023.62-.023.93 0 .816.047 1.626.14 2.425-.148.136-.288.28-.42.434zm5.31-11.012c.214 0 .398-.148.47-.358.436.892.8 1.82 1.093 2.78v.002l-.24.11-.038.017-.314.122-.1.033-.22.07-.123.032-.206.05-.13.026-.207.035-.126.02-.226.022-.107.01-.334.01-.336-.01-.108-.01-.226-.023-.126-.02-.206-.034-.13-.027-.205-.05-.123-.032-.22-.068-.1-.033-.315-.12-.038-.018-.24-.11v-.002c.324-1.064.74-2.096 1.242-3.08.566.43 1.236.66 1.936.66zm-.306 18.09v-14.02l.164-.016.054-.007.282-.04.03-.003.296-.058.063-.014.29-.074.04-.01.27-.086.044-.015.282-.105.06-.023.28-.124.004-.002c.367 1.514.553 3.08.553 4.66 0 3.537-.956 7.008-2.715 9.936zm-3.718-9.936c0-1.58.186-3.145.553-4.66l.004.002.28.122.06.024.282.105.046.015.27.085.04.01.29.075.063.014.297.058.03.004.283.04.054.006.163.015v14.02c-.606-1.005-1.12-2.073-1.53-3.192-.787-2.142-1.185-4.413-1.185-6.745zm2.21-5.708c.464 0 .842-.418.842-.932s-.378-.932-.843-.932c-.463 0-.842.418-.842.932s.38.932.843.932zm0-1.11c.088 0 .16.08.16.178 0 .098-.072.178-.16.178-.09 0-.16-.08-.16-.178 0-.098.07-.178.16-.178zm18.66-2.896c-.09-.083-2.257-2.032-6.056-2.032-1.576 0-3.046.346-4.254 1.002-.95.516-1.433 1.058-1.485 1.118-.178.207-.278.48-.278.767v23.26c0 .33.132.644.362.855.09.083 2.258 2.032 6.057 2.032 1.574 0 3.045-.346 4.253-1.002.95-.516 1.433-1.058 1.485-1.118.178-.206.28-.48.28-.766v-23.26c0-.33-.135-.645-.364-.855zm-1.643 23.594c-.53.416-1.808 1.187-4.01 1.187-2.233 0-3.757-.815-4.412-1.252v-22.154c.53-.415 1.808-1.186 4.01-1.186 2.23 0 3.755.816 4.41 1.252v22.154zm-2.004-8.016c-.104-.086-.233-.124-.36-.106l-3.997.54c-.15.02-.28.113-.362.252-.033.057-.32.576-.23 1.38.09.822.483 1.182.56 1.246.087.072.192.11.3.11l.06-.004 3.997-.542c.148-.02.28-.112.36-.25.034-.058.32-.577.23-1.38-.09-.823-.482-1.183-.56-1.247zm-3.95 1.93c-.02-.177-.007-.325.013-.434l3.414-.462c.035.08.07.194.086.347.02.177.007.324-.014.434l-3.415.462c-.033-.08-.067-.194-.084-.347zm3.95 1.646c-.104-.086-.233-.124-.36-.106l-3.997.54c-.15.02-.28.113-.362.252-.033.057-.32.576-.23 1.38.09.822.483 1.183.56 1.247.087.07.192.11.3.11l.06-.004 3.997-.54c.148-.02.28-.113.36-.252.034-.055.32-.575.23-1.38-.09-.82-.482-1.18-.56-1.245zm-3.95 1.93c-.02-.177-.007-.324.013-.433l3.414-.462c.035.08.07.194.086.347.02.178.007.326-.014.435l-3.415.463c-.033-.08-.067-.194-.084-.347zm.928-18.78c-.25.09-.415.28-.534.42l-.116.124-.146.086c-.156.083-.37.197-.522.43-.152.23-.184.49-.208.68l-.03.183-.07.155c-.083.17-.196.402-.196.696 0 .294.113.527.196.696l.07.156.03.184c.024.19.056.447.208.678.153.232.366.346.522.43l.146.085.116.125c.12.14.284.33.534.42.095.033.194.05.302.05.126 0 .24-.022.34-.043l.173-.027.17.026c.102.02.216.042.342.042.107 0 .207-.016.302-.05.25-.09.414-.282.534-.42l.116-.125.146-.086c.156-.082.37-.195.522-.428.152-.23.184-.49.208-.68l.03-.183.07-.156c.083-.17.196-.402.196-.697 0-.294-.113-.527-.197-.696l-.07-.154-.03-.184c-.024-.19-.056-.448-.208-.68-.153-.232-.366-.346-.523-.43l-.146-.085-.116-.124c-.12-.14-.284-.33-.534-.42-.095-.034-.194-.05-.302-.05-.126 0-.24.022-.34.042l-.173.026-.174-.025c-.1-.02-.214-.042-.34-.042-.108 0-.208.016-.302.05zm1.32 1.06l.117.125c.07.08.15.172.253.255.104.083.21.14.3.188l.144.085.028.177c.014.112.03.24.07.375.038.13.093.243.14.34l.075.17-.074.167c-.048.098-.103.21-.14.34-.04.136-.057.263-.07.376l-.03.177-.142.084c-.092.05-.197.105-.3.188-.104.082-.182.175-.253.256l-.116.126-.156-.025c-.103-.022-.22-.045-.35-.045-.13 0-.245.023-.348.044l-.158.023-.116-.125c-.07-.08-.15-.174-.252-.256-.103-.083-.208-.14-.3-.19L24.43 130l-.028-.176c-.014-.113-.03-.24-.07-.375-.038-.132-.093-.244-.14-.342l-.075-.168.074-.168c.05-.098.104-.21.142-.34.04-.136.056-.263.07-.376l.028-.177.144-.084c.092-.05.197-.106.3-.19.102-.082.182-.174.252-.255l.116-.125.157.025c.102.02.218.044.348.044.13 0 .246-.023.35-.044l.156-.024zm-1.57 1.714c0 .652.476 1.18 1.065 1.18.588 0 1.065-.53 1.065-1.18s-.477-1.18-1.066-1.18c-.59 0-1.067.53-1.067 1.18zm1.065-.07l.06.07-.06.07-.063-.07.062-.07zm-2.372 7.205l.03.184c.024.19.056.447.208.68.153.232.366.345.522.428l.146.086.116.125c.12.14.284.33.534.42.095.033.194.05.302.05.126 0 .24-.022.34-.043l.173-.026.17.026c.102.02.216.043.342.043.108 0 .207-.017.302-.05.25-.09.414-.28.534-.42l.116-.125.145-.086c.155-.083.368-.196.522-.43.152-.23.184-.49.208-.678l.03-.183.07-.156c.082-.17.196-.402.196-.696 0-.293-.113-.526-.197-.695l-.07-.155-.03-.184c-.024-.19-.056-.448-.208-.68-.153-.232-.366-.346-.522-.43l-.146-.085-.116-.123c-.12-.14-.284-.33-.534-.42-.095-.034-.194-.05-.302-.05-.126 0-.24.022-.34.042l-.173.025-.174-.026c-.1-.02-.214-.044-.34-.044-.108 0-.208.017-.302.05-.25.09-.415.282-.534.42l-.116.125-.146.087c-.156.083-.37.197-.522.43-.152.23-.184.49-.208.68l-.03.182-.07.155c-.083.17-.196.402-.196.696 0 .295.113.528.196.697l.07.156zm.813-1.02c.05-.1.104-.21.142-.34.04-.136.056-.263.07-.376l.028-.177.144-.083c.092-.05.197-.105.3-.19.102-.08.182-.173.252-.255l.116-.125.157.025c.102.02.218.044.348.044.13 0 .246-.023.35-.044l.156-.025.116.125c.07.082.15.174.252.256.104.083.21.14.3.19l.144.082.028.177c.014.112.03.24.07.375.038.13.093.242.14.34l.075.17-.075.167c-.048.097-.103.208-.14.34-.04.135-.057.262-.07.375l-.03.176-.142.086c-.092.05-.197.105-.3.188-.104.082-.183.174-.253.257l-.116.126-.156-.025c-.103-.02-.22-.042-.35-.042-.13 0-.245.023-.348.043l-.158.026-.115-.125c-.07-.08-.15-.173-.252-.255-.103-.083-.208-.14-.3-.188l-.144-.085-.027-.176c-.014-.113-.03-.24-.07-.375-.038-.13-.093-.242-.14-.34l-.075-.168.074-.168zm1.558 1.347c.59 0 1.066-.528 1.066-1.18s-.477-1.178-1.066-1.178c-.59 0-1.066.528-1.066 1.18s.477 1.178 1.066 1.178zm0-1.248l.062.07-.062.068-.062-.07.062-.068z" fill="#206FAC"/><path d="M10.292 82.796c.09-.286-.043-.6-.3-.704-.257-.105-.543.037-.642.32L5.873 92.3l-.76-10.5c-.02-.302-.258-.528-.53-.51-.275.02-.484.278-.47.58l.57 13.81-4.65 13.23c-.05.145-.044.307.018.447.064.14.176.244.312.287l.842.268.14.022c.208 0 .4-.144.473-.372l3.045-9.617.425 10.255c.012.294.23.526.496.53l.876.01h.004c.14 0 .272-.065.367-.178.097-.114.145-.267.134-.423L6.136 95.92l4.156-13.124zm7.877 10.778c0-1.91-.256-3.795-.76-5.606-.507-1.823-1.26-3.552-2.24-5.135-.124-.2-.35-.29-.562-.217-.21.072-.353.287-.353.53v1.108c-.457-.105-.877-.354-1.217-.725-.11-.12-.26-.177-.414-.157-.152.02-.287.116-.367.26-.754 1.362-1.35 2.82-1.77 4.336-.258.924-.45 1.868-.576 2.825-1.1.988-1.75 2.487-1.75 4.06 0 1.032.272 2.03.787 2.89.093.155.25.248.418.248.168 0 .324-.093.418-.248.086-.143.18-.28.28-.41l.088.455c-.344.533-.53 1.173-.53 1.834 0 .622.164 1.225.474 1.742.093.155.25.248.418.248.168 0 .324-.093.418-.248l.195-.27c.568 1.46 1.3 2.834 2.18 4.097-.66.858-1.394 1.65-2.185 2.355-.155.138-.222.364-.17.576.05.213.21.37.408.405l.055.007.023.003.073.006c.085 0 .17-.024.245-.07.668-.417 1.427-.637 2.195-.637.768 0 1.527.22 2.194.635.097.06.21.084.32.065l.02-.003.057-.008c.197-.035.356-.193.41-.406.05-.212-.016-.438-.17-.576-.792-.706-1.525-1.496-2.185-2.353.884-1.27 1.617-2.658 2.183-4.122l.195.27c.093.155.25.248.418.248.17 0 .327-.092.42-.247.307-.512.47-1.11.47-1.726 0-.66-.19-1.303-.537-1.833.282-1.375.428-2.786.428-4.21zm-.934 6.457l-.07-.056.108-.35c0 .138-.013.274-.038.407zm-3.287 6.698c-.194 0-.385.01-.575.033.196-.225.387-.457.574-.694.185.237.377.468.572.695-.19-.02-.382-.032-.573-.032zm-3.286-6.675c-.026-.13-.038-.267-.04-.404l.11.346-.07.057zm-1.217-3.62c-.187-.497-.284-1.032-.284-1.58 0-.79.21-1.555.586-2.21-.015.31-.023.62-.023.93 0 .816.047 1.626.14 2.425-.148.136-.288.28-.42.434zm5.31-11.012c.214 0 .398-.148.47-.358.436.892.8 1.82 1.093 2.78v.002l-.24.11-.038.017-.314.122-.1.033-.22.07-.123.032-.206.05-.13.026-.207.035-.126.02-.226.022-.107.01-.334.01-.336-.01-.108-.01-.226-.023-.126-.02-.206-.034-.13-.027-.205-.05-.123-.032-.22-.068-.1-.033-.315-.12-.038-.018-.24-.11v-.002c.324-1.064.74-2.096 1.242-3.08.566.43 1.236.66 1.936.66zm-.306 18.09V89.49l.164-.016.054-.007.282-.04.03-.003.296-.058.063-.014.29-.074.04-.01.27-.086.044-.015.282-.105.06-.023.28-.124.004-.002c.367 1.514.553 3.08.553 4.66 0 3.537-.956 7.008-2.715 9.936zm-3.718-9.936c0-1.58.186-3.145.553-4.66l.004.002.28.122.06.024.282.105.046.015.27.085.04.01.29.075.063.014.297.058.03.004.283.04.054.006.163.015v14.02c-.606-1.005-1.12-2.073-1.53-3.192-.787-2.142-1.185-4.413-1.185-6.745zm2.21-5.708c.464 0 .842-.418.842-.932s-.378-.932-.843-.932c-.463 0-.842.418-.842.932s.38.932.843.932zm0-1.11c.088 0 .16.08.16.178 0 .098-.072.178-.16.178-.09 0-.16-.08-.16-.178 0-.098.07-.178.16-.178zM31.6 83.86c-.09-.083-2.257-2.032-6.056-2.032-1.576 0-3.046.346-4.254 1.002-.95.516-1.433 1.058-1.485 1.118-.178.207-.278.48-.278.767v23.26c0 .33.132.644.362.855.09.083 2.258 2.032 6.057 2.032 1.574 0 3.045-.346 4.253-1.002.95-.516 1.433-1.058 1.485-1.118.178-.206.28-.48.28-.766v-23.26c0-.33-.135-.645-.364-.855zm-1.643 23.594c-.53.416-1.808 1.187-4.01 1.187-2.233 0-3.757-.815-4.412-1.252V85.234c.53-.415 1.808-1.186 4.01-1.186 2.23 0 3.755.816 4.41 1.252v22.154zm-2.004-8.016c-.104-.086-.233-.124-.36-.106l-3.997.54c-.15.02-.28.113-.362.252-.033.057-.32.576-.23 1.38.09.822.483 1.182.56 1.246.087.072.192.11.3.11l.06-.004 3.997-.542c.148-.02.28-.112.36-.25.034-.058.32-.577.23-1.38-.09-.823-.482-1.183-.56-1.247zm-3.95 1.93c-.02-.177-.007-.325.013-.434l3.414-.462c.035.08.07.194.086.347.02.177.007.324-.014.434l-3.415.462c-.033-.08-.067-.194-.084-.347zm3.95 1.646c-.104-.086-.233-.124-.36-.106l-3.997.54c-.15.02-.28.113-.362.252-.033.057-.32.576-.23 1.38.09.822.483 1.183.56 1.247.087.07.192.11.3.11l.06-.004 3.997-.54c.148-.02.28-.113.36-.252.034-.055.32-.575.23-1.38-.09-.82-.482-1.18-.56-1.245zm-3.95 1.93c-.02-.177-.007-.324.013-.433l3.414-.462c.035.08.07.194.086.347.02.178.007.326-.014.435l-3.415.463c-.033-.08-.067-.194-.084-.347zm.928-18.78c-.25.09-.415.28-.534.42l-.116.124-.146.086c-.156.083-.37.197-.522.43-.152.23-.184.49-.208.68l-.03.183-.07.155c-.083.17-.196.402-.196.696 0 .294.113.527.196.696l.07.156.03.184c.024.19.056.447.208.678.153.232.366.346.522.43l.146.085.116.125c.12.14.284.33.534.42.095.033.194.05.302.05.126 0 .24-.022.34-.043l.173-.027.17.026c.102.02.216.042.342.042.107 0 .207-.016.302-.05.25-.09.414-.282.534-.42l.116-.125.146-.086c.156-.082.37-.195.522-.428.152-.23.184-.49.208-.68l.03-.183.07-.156c.083-.17.196-.402.196-.697 0-.294-.113-.527-.197-.696l-.07-.154-.03-.184c-.024-.19-.056-.448-.208-.68-.153-.232-.366-.346-.523-.43l-.146-.085-.116-.124c-.12-.14-.284-.33-.534-.42-.095-.034-.194-.05-.302-.05-.126 0-.24.022-.34.042l-.173.026-.174-.025c-.1-.02-.214-.042-.34-.042-.108 0-.208.016-.302.05zm1.32 1.06l.117.125c.07.08.15.172.253.255.104.083.21.14.3.188l.144.085.028.177c.014.112.03.24.07.375.038.13.093.243.14.34l.075.17-.074.167c-.048.098-.103.21-.14.34-.04.136-.057.263-.07.376l-.03.177-.142.084c-.092.05-.197.105-.3.188-.104.082-.182.175-.253.256l-.116.126-.156-.025c-.103-.022-.22-.045-.35-.045-.13 0-.245.023-.348.044l-.158.023-.116-.125c-.07-.08-.15-.174-.252-.256-.103-.083-.208-.14-.3-.19L24.43 90l-.028-.176c-.014-.113-.03-.24-.07-.375-.038-.132-.093-.244-.14-.342l-.075-.168.074-.168c.05-.098.104-.21.142-.34.04-.136.056-.263.07-.376l.028-.177.144-.084c.092-.05.197-.106.3-.19.102-.082.182-.174.252-.255l.116-.125.157.025c.102.02.218.044.348.044.13 0 .246-.023.35-.044l.156-.024zm-1.57 1.714c0 .652.476 1.18 1.065 1.18.588 0 1.065-.53 1.065-1.18s-.477-1.18-1.066-1.18c-.59 0-1.067.53-1.067 1.18zm1.065-.07l.06.07-.06.07-.063-.07.062-.07zm-2.372 7.205l.03.184c.024.19.056.447.208.68.153.232.366.345.522.428l.146.086.116.125c.12.14.284.33.534.42.095.033.194.05.302.05.126 0 .24-.022.34-.043l.173-.026.17.026c.102.02.216.043.342.043.108 0 .207-.017.302-.05.25-.09.414-.28.534-.42l.116-.125.145-.086c.155-.083.368-.196.522-.43.152-.23.184-.49.208-.678l.03-.183.07-.156c.082-.17.196-.402.196-.696 0-.293-.113-.526-.197-.695l-.07-.155-.03-.184c-.024-.19-.056-.448-.208-.68-.153-.232-.366-.346-.522-.43l-.146-.085-.116-.123c-.12-.14-.284-.33-.534-.42-.095-.034-.194-.05-.302-.05-.126 0-.24.022-.34.042l-.173.025-.174-.026c-.1-.02-.214-.044-.34-.044-.108 0-.208.017-.302.05-.25.09-.415.282-.534.42l-.116.125-.146.087c-.156.083-.37.197-.522.43-.152.23-.184.49-.208.68l-.03.182-.07.155c-.083.17-.196.402-.196.696 0 .295.113.528.196.697l.07.156zm.813-1.02c.05-.1.104-.21.142-.34.04-.136.056-.263.07-.376l.028-.177.144-.083c.092-.05.197-.105.3-.19.102-.08.182-.173.252-.255l.116-.125.157.025c.102.02.218.044.348.044.13 0 .246-.023.35-.044l.156-.025.116.125c.07.082.15.174.252.256.104.083.21.14.3.19l.144.082.028.177c.014.112.03.24.07.375.038.13.093.242.14.34l.075.17-.075.167c-.048.097-.103.208-.14.34-.04.135-.057.262-.07.375l-.03.176-.142.086c-.092.05-.197.105-.3.188-.104.082-.183.174-.253.257l-.116.126-.156-.025c-.103-.02-.22-.042-.35-.042-.13 0-.245.023-.348.043l-.158.026-.115-.125c-.07-.08-.15-.173-.252-.255-.103-.083-.208-.14-.3-.188l-.144-.085-.027-.176c-.014-.113-.03-.24-.07-.375-.038-.13-.093-.242-.14-.34l-.075-.168.074-.168zM25.75 96.4c.59 0 1.066-.528 1.066-1.18s-.477-1.178-1.066-1.178c-.59 0-1.066.528-1.066 1.18s.477 1.178 1.066 1.178zm0-1.248l.062.07-.062.068-.062-.07.062-.068z" fill="#fff"/><path d="M10.292 42.796c.09-.286-.043-.6-.3-.704-.257-.105-.543.037-.642.32L5.873 52.3l-.76-10.5c-.02-.302-.258-.528-.53-.51-.275.02-.484.278-.47.58l.57 13.81-4.65 13.23c-.05.145-.044.307.018.447.064.14.176.244.312.287l.842.268.14.022c.208 0 .4-.144.473-.372l3.045-9.617.425 10.255c.012.294.23.526.496.53l.876.01h.004c.14 0 .272-.065.367-.178.097-.114.145-.267.134-.423L6.136 55.92l4.156-13.124zm7.877 10.778c0-1.91-.256-3.795-.76-5.606-.507-1.823-1.26-3.552-2.24-5.135-.124-.2-.35-.29-.562-.217-.21.072-.353.287-.353.53v1.108c-.457-.105-.877-.354-1.217-.725-.11-.12-.26-.177-.414-.157-.152.02-.287.116-.367.26-.754 1.362-1.35 2.82-1.77 4.336-.258.924-.45 1.868-.576 2.825-1.1.988-1.75 2.487-1.75 4.06 0 1.032.272 2.03.787 2.89.093.155.25.248.418.248.168 0 .324-.093.418-.248.086-.143.18-.28.28-.41l.088.455c-.344.533-.53 1.173-.53 1.834 0 .622.164 1.225.474 1.742.093.155.25.248.418.248.168 0 .324-.093.418-.248l.195-.27c.568 1.46 1.3 2.834 2.18 4.097-.66.858-1.394 1.65-2.185 2.355-.155.138-.222.364-.17.576.05.213.21.37.408.405l.055.007.023.003.073.006c.085 0 .17-.024.245-.07.668-.417 1.427-.637 2.195-.637.768 0 1.527.22 2.194.635.097.06.21.084.32.065l.02-.003.057-.008c.197-.035.356-.193.41-.406.05-.212-.016-.438-.17-.576-.792-.706-1.525-1.496-2.185-2.353.884-1.27 1.617-2.658 2.183-4.122l.195.27c.093.155.25.248.418.248.17 0 .327-.092.42-.247.307-.512.47-1.11.47-1.726 0-.66-.19-1.303-.537-1.833.282-1.375.428-2.786.428-4.21zm-.934 6.457l-.07-.056.108-.35c0 .138-.013.274-.038.407zM13.95 66.73c-.194 0-.385.01-.575.033.196-.225.387-.457.574-.694.185.237.377.468.572.695-.19-.02-.382-.032-.573-.032zm-3.286-6.675c-.026-.13-.038-.267-.04-.404l.11.346-.07.057zm-1.217-3.62c-.187-.497-.284-1.032-.284-1.58 0-.79.21-1.555.586-2.21-.015.31-.023.62-.023.93 0 .816.047 1.626.14 2.425-.148.136-.288.28-.42.434zm5.31-11.012c.214 0 .398-.148.47-.358.436.892.8 1.82 1.093 2.78v.002l-.24.11-.038.017-.314.122-.1.033-.22.07-.123.032-.206.05-.13.026-.207.035-.126.02-.226.022-.107.01-.334.01-.336-.01-.108-.01-.226-.023-.126-.02-.206-.034-.13-.027-.205-.05-.123-.032-.22-.068-.1-.033-.315-.12-.038-.018-.24-.11v-.002c.324-1.064.74-2.096 1.242-3.08.566.43 1.236.66 1.936.66zm-.306 18.09V49.49l.164-.016.054-.007.282-.04.03-.003.296-.058.063-.014.29-.074.04-.01.27-.086.044-.015.282-.105.06-.023.28-.124.004-.002c.367 1.514.553 3.08.553 4.66 0 3.537-.956 7.008-2.715 9.936zm-3.718-9.936c0-1.58.186-3.145.553-4.66l.004.002.28.122.06.024.282.105.046.015.27.085.04.01.29.075.063.014.297.058.03.004.283.04.054.006.163.015v14.02c-.606-1.005-1.12-2.073-1.53-3.192-.787-2.142-1.185-4.413-1.185-6.745zm2.21-5.708c.464 0 .842-.418.842-.932s-.378-.932-.843-.932c-.463 0-.842.418-.842.932s.38.932.843.932zm0-1.11c.088 0 .16.08.16.178 0 .098-.072.178-.16.178-.09 0-.16-.08-.16-.178 0-.098.07-.178.16-.178zM31.6 43.86c-.09-.083-2.257-2.032-6.056-2.032-1.576 0-3.046.346-4.254 1.002-.95.516-1.433 1.058-1.485 1.118-.178.207-.278.48-.278.767v23.26c0 .33.132.644.362.855.09.083 2.258 2.032 6.057 2.032 1.574 0 3.045-.346 4.253-1.002.95-.516 1.433-1.058 1.485-1.118.178-.206.28-.48.28-.766v-23.26c0-.33-.135-.645-.364-.855zM29.96 67.454c-.53.416-1.808 1.187-4.01 1.187-2.233 0-3.757-.815-4.412-1.252V45.234c.53-.415 1.808-1.186 4.01-1.186 2.23 0 3.755.816 4.41 1.252v22.154zm-2.004-8.016c-.104-.086-.233-.124-.36-.106l-3.997.54c-.15.02-.28.113-.362.252-.033.057-.32.576-.23 1.38.09.822.483 1.182.56 1.246.087.072.192.11.3.11l.06-.004 3.997-.542c.148-.02.28-.112.36-.25.034-.058.32-.577.23-1.38-.09-.823-.482-1.183-.56-1.247zm-3.95 1.93c-.02-.177-.007-.325.013-.434l3.414-.462c.035.08.07.194.086.347.02.177.007.324-.014.434l-3.415.462c-.033-.08-.067-.194-.084-.347zm3.95 1.646c-.104-.086-.233-.124-.36-.106l-3.997.54c-.15.02-.28.113-.362.252-.033.057-.32.576-.23 1.38.09.822.483 1.183.56 1.247.087.07.192.11.3.11l.06-.004 3.997-.54c.148-.02.28-.113.36-.252.034-.055.32-.575.23-1.38-.09-.82-.482-1.18-.56-1.245zm-3.95 1.93c-.02-.177-.007-.324.013-.433l3.414-.462c.035.08.07.194.086.347.02.178.007.326-.014.435l-3.415.463c-.033-.08-.067-.194-.084-.347zm.928-18.78c-.25.09-.415.28-.534.42l-.116.124-.146.086c-.156.083-.37.197-.522.43-.152.23-.184.49-.208.68l-.03.183-.07.155c-.083.17-.196.402-.196.696 0 .294.113.527.196.696l.07.156.03.184c.024.19.056.447.208.678.153.232.366.346.522.43l.146.085.116.125c.12.14.284.33.534.42.095.033.194.05.302.05.126 0 .24-.022.34-.043l.173-.027.17.026c.102.02.216.042.342.042.107 0 .207-.016.302-.05.25-.09.414-.282.534-.42l.116-.125.146-.086c.156-.082.37-.195.522-.428.152-.23.184-.49.208-.68l.03-.183.07-.156c.083-.17.196-.402.196-.697 0-.294-.113-.527-.197-.696l-.07-.154-.03-.184c-.024-.19-.056-.448-.208-.68-.153-.232-.366-.346-.523-.43l-.146-.085-.116-.124c-.12-.14-.284-.33-.534-.42-.095-.034-.194-.05-.302-.05-.126 0-.24.022-.34.042l-.173.026-.174-.025c-.1-.02-.214-.042-.34-.042-.108 0-.208.016-.302.05zm1.32 1.06l.117.125c.07.08.15.172.253.255.104.083.21.14.3.188l.144.085.028.177c.014.112.03.24.07.375.038.13.093.243.14.34l.075.17-.074.167c-.048.098-.103.21-.14.34-.04.136-.057.263-.07.376l-.03.177-.142.084c-.092.05-.197.105-.3.188-.104.082-.182.175-.253.256l-.116.126-.156-.025c-.103-.022-.22-.045-.35-.045-.13 0-.245.023-.348.044l-.158.023-.116-.125c-.07-.08-.15-.174-.252-.256-.103-.083-.208-.14-.3-.19L24.43 50l-.028-.176c-.014-.113-.03-.24-.07-.375-.038-.132-.093-.244-.14-.342l-.075-.168.074-.168c.05-.098.104-.21.142-.34.04-.136.056-.263.07-.376l.028-.177.144-.084c.092-.05.197-.106.3-.19.102-.082.182-.174.252-.255l.116-.125.157.025c.102.02.218.044.348.044.13 0 .246-.023.35-.044l.156-.024zm-1.57 1.714c0 .652.476 1.18 1.065 1.18.588 0 1.065-.53 1.065-1.18s-.477-1.18-1.066-1.18c-.59 0-1.067.53-1.067 1.18zm1.065-.07l.06.07-.06.07-.063-.07.062-.07zm-2.372 7.205l.03.184c.024.19.056.447.208.68.153.232.366.345.522.428l.146.086.116.125c.12.14.284.33.534.42.095.033.194.05.302.05.126 0 .24-.022.34-.043l.173-.026.17.026c.102.02.216.043.342.043.108 0 .207-.017.302-.05.25-.09.414-.28.534-.42l.116-.125.145-.086c.155-.083.368-.196.522-.43.152-.23.184-.49.208-.678l.03-.183.07-.156c.082-.17.196-.402.196-.696 0-.293-.113-.526-.197-.695l-.07-.155-.03-.184c-.024-.19-.056-.448-.208-.68-.153-.232-.366-.346-.522-.43l-.146-.085-.116-.123c-.12-.14-.284-.33-.534-.42-.095-.034-.194-.05-.302-.05-.126 0-.24.022-.34.042l-.173.025-.174-.026c-.1-.02-.214-.044-.34-.044-.108 0-.208.017-.302.05-.25.09-.415.282-.534.42l-.116.125-.146.087c-.156.083-.37.197-.522.43-.152.23-.184.49-.208.68l-.03.182-.07.155c-.083.17-.196.402-.196.696 0 .295.113.528.196.697l.07.156zm.813-1.02c.05-.1.104-.21.142-.34.04-.136.056-.263.07-.376l.028-.177.144-.083c.092-.05.197-.105.3-.19.102-.08.182-.173.252-.255l.116-.125.157.025c.102.02.218.044.348.044.13 0 .246-.023.35-.044l.156-.025.116.125c.07.082.15.174.252.256.104.083.21.14.3.19l.144.082.028.177c.014.112.03.24.07.375.038.13.093.242.14.34l.075.17-.075.167c-.048.097-.103.208-.14.34-.04.135-.057.262-.07.375l-.03.176-.142.086c-.092.05-.197.105-.3.188-.104.082-.183.174-.253.257l-.116.126-.156-.025c-.103-.02-.22-.042-.35-.042-.13 0-.245.023-.348.043l-.158.026-.115-.125c-.07-.08-.15-.173-.252-.255-.103-.083-.208-.14-.3-.188l-.144-.085-.027-.176c-.014-.113-.03-.24-.07-.375-.038-.13-.093-.242-.14-.34l-.075-.168.074-.168zM25.75 56.4c.59 0 1.066-.528 1.066-1.18s-.477-1.178-1.066-1.178c-.59 0-1.066.528-1.066 1.18s.477 1.178 1.066 1.178zm0-1.248l.062.07-.062.068-.062-.07.062-.068z" fill="#67737B"/><path d="M10.292 2.796c.09-.286-.043-.6-.3-.704-.257-.105-.543.037-.642.32L5.873 12.3l-.76-10.5c-.02-.302-.258-.528-.53-.51-.275.02-.484.278-.47.58l.57 13.81-4.65 13.23c-.05.145-.044.307.018.447.064.14.176.244.312.287l.842.268.14.022c.208 0 .4-.144.473-.372l3.045-9.617.425 10.255c.012.294.23.526.496.53l.876.01h.004c.14 0 .272-.065.367-.178.097-.114.145-.267.134-.423L6.136 15.92l4.156-13.124zm7.877 10.778c0-1.91-.256-3.795-.76-5.606-.507-1.823-1.26-3.552-2.24-5.135-.124-.2-.35-.29-.562-.217-.21.072-.353.287-.353.53v1.108c-.457-.105-.877-.354-1.217-.725-.11-.12-.26-.177-.414-.157-.152.02-.287.116-.367.26-.754 1.362-1.35 2.82-1.77 4.336-.258.924-.45 1.868-.576 2.825-1.1.988-1.75 2.487-1.75 4.06 0 1.032.272 2.03.787 2.89.093.155.25.248.418.248.168 0 .324-.093.418-.248.086-.143.18-.28.28-.41l.088.455c-.344.533-.53 1.173-.53 1.834 0 .622.164 1.225.474 1.742.093.155.25.248.418.248.168 0 .324-.093.418-.248l.195-.27c.568 1.46 1.3 2.834 2.18 4.097-.66.858-1.394 1.65-2.185 2.355-.155.138-.222.364-.17.576.05.213.21.37.408.405l.055.007.023.003.073.006c.085 0 .17-.024.245-.07.668-.417 1.427-.637 2.195-.637.768 0 1.527.22 2.194.635.097.06.21.084.32.065l.02-.003.057-.008c.197-.035.356-.193.41-.406.05-.212-.016-.438-.17-.576-.792-.706-1.525-1.496-2.185-2.353.884-1.27 1.617-2.658 2.183-4.122l.195.27c.093.155.25.248.418.248.17 0 .327-.092.42-.247.307-.512.47-1.11.47-1.726 0-.66-.19-1.303-.537-1.833.282-1.375.428-2.786.428-4.21zm-.934 6.457l-.07-.056.108-.35c0 .138-.013.274-.038.407zM13.95 26.73c-.194 0-.385.01-.575.033.196-.225.387-.457.574-.694.185.237.377.468.572.695-.19-.02-.382-.032-.573-.032zm-3.286-6.675c-.026-.13-.038-.267-.04-.404l.11.346-.07.057zm-1.217-3.62c-.187-.497-.284-1.032-.284-1.58 0-.79.21-1.555.586-2.21-.015.31-.023.62-.023.93 0 .816.047 1.626.14 2.425-.148.136-.288.28-.42.434zm5.31-11.012c.214 0 .398-.148.47-.358.436.892.8 1.82 1.093 2.78v.002l-.24.11-.038.017-.314.122-.1.033-.22.07-.123.032-.206.05-.13.026-.207.035-.126.02-.226.022-.107.01-.334.01-.336-.01-.108-.01-.226-.023-.126-.02-.206-.034-.13-.027-.205-.05-.123-.032-.22-.068-.1-.033-.315-.12-.038-.018-.24-.11v-.002c.324-1.064.74-2.096 1.242-3.08.566.43 1.236.66 1.936.66zm-.306 18.09V9.49l.164-.016.054-.007.282-.04.03-.003.296-.058.063-.014.29-.074.04-.01.27-.086.044-.015.282-.105.06-.023.28-.124.004-.002c.367 1.514.553 3.08.553 4.66 0 3.537-.956 7.008-2.715 9.936zm-3.718-9.936c0-1.58.186-3.145.553-4.66l.004.002.28.122.06.024.282.105.046.015.27.085.04.01.29.075.063.014.297.058.03.004.283.04.054.006.163.015v14.02c-.606-1.005-1.12-2.073-1.53-3.192-.787-2.142-1.185-4.413-1.185-6.745zm2.21-5.708c.464 0 .842-.418.842-.932s-.378-.932-.843-.932c-.463 0-.842.418-.842.932s.38.932.843.932zm0-1.11c.088 0 .16.08.16.178 0 .098-.072.178-.16.178-.09 0-.16-.08-.16-.178 0-.098.07-.178.16-.178zM31.6 3.86c-.09-.083-2.257-2.032-6.056-2.032-1.576 0-3.046.346-4.254 1.002-.95.516-1.433 1.058-1.485 1.118-.178.207-.278.48-.278.767v23.26c0 .33.132.644.362.855.09.083 2.258 2.032 6.057 2.032 1.574 0 3.045-.346 4.253-1.002.95-.516 1.433-1.058 1.485-1.118.178-.206.28-.48.28-.766V4.716c0-.33-.135-.645-.364-.855zM29.96 27.454c-.53.416-1.808 1.187-4.01 1.187-2.233 0-3.757-.815-4.412-1.252V5.234c.53-.415 1.808-1.186 4.01-1.186 2.23 0 3.755.816 4.41 1.252v22.154zm-2.004-8.016c-.104-.086-.233-.124-.36-.106l-3.997.54c-.15.02-.28.113-.362.252-.033.057-.32.576-.23 1.38.09.822.483 1.182.56 1.246.087.072.192.11.3.11l.06-.004 3.997-.542c.148-.02.28-.112.36-.25.034-.058.32-.577.23-1.38-.09-.823-.482-1.183-.56-1.247zm-3.95 1.93c-.02-.177-.007-.325.013-.434l3.414-.462c.035.08.07.194.086.347.02.177.007.324-.014.434l-3.415.462c-.033-.08-.067-.194-.084-.347zm3.95 1.646c-.104-.086-.233-.124-.36-.106l-3.997.54c-.15.02-.28.113-.362.252-.033.057-.32.576-.23 1.38.09.822.483 1.183.56 1.247.087.07.192.11.3.11l.06-.004 3.997-.54c.148-.02.28-.113.36-.252.034-.055.32-.575.23-1.38-.09-.82-.482-1.18-.56-1.245zm-3.95 1.93c-.02-.177-.007-.324.013-.433l3.414-.462c.035.08.07.194.086.347.02.178.007.326-.014.435l-3.415.463c-.033-.08-.067-.194-.084-.347zm.928-18.78c-.25.09-.415.28-.534.42l-.116.124-.146.086c-.156.083-.37.197-.522.43-.152.23-.184.49-.208.68l-.03.183-.07.155c-.083.17-.196.402-.196.696 0 .294.113.527.196.696l.07.156.03.184c.024.19.056.447.208.678.153.232.366.346.522.43l.146.085.116.125c.12.14.284.33.534.42.095.033.194.05.302.05.126 0 .24-.022.34-.043l.173-.027.17.026c.102.02.216.042.342.042.107 0 .207-.016.302-.05.25-.09.414-.282.534-.42l.116-.125.146-.086c.156-.082.37-.195.522-.428.152-.23.184-.49.208-.68l.03-.183.07-.156c.083-.17.196-.402.196-.697 0-.294-.113-.527-.197-.696l-.07-.154-.03-.184c-.024-.19-.056-.448-.208-.68-.153-.232-.366-.346-.523-.43l-.146-.085-.116-.124c-.12-.14-.284-.33-.534-.42-.095-.034-.194-.05-.302-.05-.126 0-.24.022-.34.042l-.173.026-.174-.025c-.1-.02-.214-.042-.34-.042-.108 0-.208.016-.302.05zm1.32 1.06l.117.125c.07.08.15.172.253.255.104.083.21.14.3.188l.144.085.028.177c.014.112.03.24.07.375.038.13.093.243.14.34l.075.17-.074.167c-.048.098-.103.21-.14.34-.04.136-.057.263-.07.376l-.03.177-.142.084c-.092.05-.197.105-.3.188-.104.082-.182.175-.253.256l-.116.126-.156-.025c-.103-.022-.22-.045-.35-.045-.13 0-.245.023-.348.044l-.158.023-.116-.125c-.07-.08-.15-.174-.252-.256-.103-.083-.208-.14-.3-.19L24.43 10l-.028-.176c-.014-.113-.03-.24-.07-.375-.038-.132-.093-.244-.14-.342l-.075-.168.074-.168c.05-.098.104-.21.142-.34.04-.136.056-.263.07-.376l.028-.177.144-.084c.092-.05.197-.106.3-.19.102-.082.182-.174.252-.255l.116-.125.157.025c.102.02.218.044.348.044.13 0 .246-.023.35-.044l.156-.024zm-1.57 1.714c0 .652.476 1.18 1.065 1.18.588 0 1.065-.53 1.065-1.18s-.477-1.18-1.066-1.18c-.59 0-1.067.53-1.067 1.18zm1.065-.07l.06.07-.06.07-.063-.07.062-.07zm-2.372 7.205l.03.184c.024.19.056.447.208.68.153.232.366.345.522.428l.146.086.116.125c.12.14.284.33.534.42.095.033.194.05.302.05.126 0 .24-.022.34-.043l.173-.026.17.026c.102.02.216.043.342.043.108 0 .207-.017.302-.05.25-.09.414-.28.534-.42l.116-.125.145-.086c.155-.083.368-.196.522-.43.152-.23.184-.49.208-.678l.03-.183.07-.156c.082-.17.196-.402.196-.696 0-.293-.113-.526-.197-.695l-.07-.155-.03-.184c-.024-.19-.056-.448-.208-.68-.153-.232-.366-.346-.522-.43l-.146-.085-.116-.123c-.12-.14-.284-.33-.534-.42-.095-.034-.194-.05-.302-.05-.126 0-.24.022-.34.042l-.173.025-.174-.026c-.1-.02-.214-.044-.34-.044-.108 0-.208.017-.302.05-.25.09-.415.282-.534.42l-.116.125-.146.087c-.156.083-.37.197-.522.43-.152.23-.184.49-.208.68l-.03.182-.07.155c-.083.17-.196.402-.196.696 0 .295.113.528.196.697l.07.156zm.813-1.02c.05-.1.104-.21.142-.34.04-.136.056-.263.07-.376l.028-.177.144-.083c.092-.05.197-.105.3-.19.102-.08.182-.173.252-.255l.116-.125.157.025c.102.02.218.044.348.044.13 0 .246-.023.35-.044l.156-.025.116.125c.07.082.15.174.252.256.104.083.21.14.3.19l.144.082.028.177c.014.112.03.24.07.375.038.13.093.242.14.34l.075.17-.075.167c-.048.097-.103.208-.14.34-.04.135-.057.262-.07.375l-.03.176-.142.086c-.092.05-.197.105-.3.188-.104.082-.183.174-.253.257l-.116.126-.156-.025c-.103-.02-.22-.042-.35-.042-.13 0-.245.023-.348.043l-.158.026-.115-.125c-.07-.08-.15-.173-.252-.255-.103-.083-.208-.14-.3-.188l-.144-.085-.027-.176c-.014-.113-.03-.24-.07-.375-.038-.13-.093-.242-.14-.34l-.075-.168.074-.168zM25.75 16.4c.59 0 1.066-.528 1.066-1.18s-.477-1.178-1.066-1.178c-.59 0-1.066.528-1.066 1.18s.477 1.178 1.066 1.178zm0-1.248l.062.07-.062.068-.062-.07.062-.068z" fill="#3A434E"/></g></svg>