<svg width="32" height="232" viewBox="0 0 32 232" xmlns="http://www.w3.org/2000/svg" xmlns:sketch="http://www.bohemiancoding.com/sketch/ns"><title>jeruselum-hills</title><desc>Created with Sketch.</desc><g sketch:type="MSPage" fill="none"><g sketch:type="MSShapeGroup"><path d="M9.42 129.122c.255 0 .501-.099.694-.279.227-.212.357-.518.357-.838l-.005-.097h5.989c.294 0 .577-.114.798-.321.261-.244.41-.595.41-.963s-.15-.72-.41-.963c-.221-.207-.505-.322-.799-.322h-9.257c-.666 0-1.208.576-1.208 1.285l.026.265h-.101c-.579 0-1.05.501-1.05 1.117s.471 1.117 1.05 1.117h3.506zm-3.506-1.214h1.285c.265 0 .48-.228.48-.51h-.002c0-.282-.215-.51-.48-.51-.137 0-.249-.119-.249-.265 0-.146.112-.265.249-.265h9.257c.077 0 .132.036.164.067.032.03.085.095.085.198 0 .103-.053.168-.085.198-.032.03-.087.067-.164.067h-7.036c-.265 0-.48.228-.48.51 0 .282.215.51.48.51h.002l.06.025.031.072-.031.072-.06.025h-3.506c-.05 0-.091-.043-.091-.097 0-.053.041-.097.091-.097zm13.561-2.38c.221.207.505.322.798.322h4.934c.666 0 1.208-.576 1.208-1.285l-.026-.265h.101c.579 0 1.05-.501 1.05-1.117s-.471-1.117-1.05-1.117h-3.506c-.255 0-.501.099-.694.279-.227.212-.357.517-.357.838l.005.097h-1.666c-.293 0-.577.114-.798.322-.26.244-.41.595-.41.963s.149.719.41.963zm.634-1.161c.033-.03.087-.067.164-.067h2.713c.265 0 .48-.228.48-.51 0-.282-.215-.51-.48-.51h-.002l-.06-.025-.031-.072.031-.072.06-.025h3.506c.05 0 .091.044.091.097 0 .054-.041.097-.091.097h-1.285c-.265 0-.48.228-.48.51h.002c0 .282.215.51.48.51.137 0 .249.119.249.265 0 .146-.112.265-.249.265h-4.934c-.077 0-.132-.036-.164-.067-.032-.03-.085-.095-.085-.198 0-.103.053-.168.085-.198zm10.93 17.909h-1.56l-.035.001c-2.952.115-4.656.253-5.067.409-.513.195-1.757.87-2.002 1.003l-.079.05-1.17-.407-.08-.02-3.106-.479-1.038-.196-.113-.007-2.084.136.436-.693 2.624-.663 2.684-.42h8.93c.265 0 .48-.228.48-.51v-2.848h.766c.265 0 .48-.228.48-.51 0-.282-.215-.51-.48-.51h-.766v-1.655c0-.282-.215-.51-.48-.51h-3.279v-.26h2.674c.265 0 .48-.228.48-.51 0-.282-.215-.51-.48-.51h-2.674v-1.266c0-.282-.215-.51-.48-.51h-3.522c-.265 0-.48.228-.48.51v.813h-.548v-1.496c0-.282-.215-.51-.48-.51h-2.329c-.265 0-.48.228-.48.51v1.205h-.654c-.265 0-.48.228-.48.51v1.191l-1.885.351-.071.019-2.438.874c-.074.027-.136.072-.188.127l-.145-.109c-.081-.06-.177-.093-.276-.093h-1.599v-2.151c0-.282-.215-.51-.48-.51h-2.977c-.265 0-.48.228-.48.51v.59h-.679v-.056c0-.282-.215-.51-.48-.51h-1.919c-.265 0-.48.228-.48.51v1.215h-.237c-.265 0-.48.228-.48.51 0 .282.215.51.48.51h.237v.65c0 .282.215.51.48.51h3.077v.05c0 .282.215.51.48.51h2.977c.265 0 .48-.228.48-.51v-.807h1.447l1.638 1.225.149.075 1.915.56-3.297.757-3.924-.438-.143.007-4.225.893c-.26.055-.428.323-.377.6.045.243.246.411.47.411l.094-.01 4.154-.877 3.928.438.151-.009 3.432-.788 2.321-.526h2.155v1.408l-2.329.364-.041.008-2.828.714c-.118.03-.221.106-.288.213l-.858 1.365-1.552-.147-.833-.353c-.072-.03-.15-.042-.226-.034l-2.733.294h-2.863l-1.226-.217-.958-.223-.201-.001-2.03.453c-.259.058-.425.328-.371.604.054.276.308.452.568.395l1.93-.43.87.203.024.005 1.277.226.079.007h2.927l.048-.003 2.64-.284.789.334.135.034 2.498.236.072.001 2.339-.152.989.187.015.003 3.072.474.601.209-.593.579h-3.401l-2.021-.046h-1.9709999999999999c-.146 0-.291.036-.423.104l-2.238 1.168h-5.259c-.16 0-.317.043-.458.124l-2.264 1.307-1.958.154c-.528.041-.925.531-.886 1.093.037.536.458.945.956.945l.072-.003 2.163-.17c.136-.011.268-.052.387-.121l2.231-1.289h5.238c.147 0 .291-.036.423-.104l2.238-1.168h1.716l2.021.046h3.806c.24 0 .472-.096.648-.268l1.469-1.433c.52-.282 1.323-.701 1.631-.825.416-.093 2.638-.228 4.501-.301h1.542c.53 0 .959-.457.959-1.02s-.429-1.02-.959-1.02zm-21.951-5.96v.297h-2.017v-2.958h2.017v2.661zm-5.574-2.128h.959v1.865h-.959v-1.865zm1.919.566h.679v1.298h-.679v-1.298zm15.87-1.018h.552v1.582h-.552v-1.582zm3.838-.568v1.28h-1.014c-.265 0-.48.228-.48.51v.077h-.833v-1.81c0-.186-.095-.348-.235-.436v-.377h2.563v.756zm3.759 3.445v3.358h-2.229v-2.848c0-.174-.082-.328-.208-.42-.077-.057-.171-.09-.272-.09h-1.585v-1.144h4.293v1.145zm-10.158-4.884h1.37v2.993h-.619v-1.787c0-.282-.215-.51-.48-.51h-.272v-.695zm-1.133 1.715h.926v1.277h-.926v-1.277zm3.285 4.188h4.818v2.338h-4.818v-2.338zm-3.165-.02l-.1.011-.497.113-.186-.108-3.329-.973-.63-.471 1.979-.709 1.684-.314v.071c0 .282.215.51.48.51h3.215v.086c0 .282.215.51.48.51h1.511c.188 0 .348-.116.427-.283h.886v.557h-3.233c-.265 0-.48.228-.48.51v.49h-2.206z" fill="#206FAC"/><path d="M9.42 89.122c.255 0 .501-.099.694-.279.227-.212.357-.518.357-.838l-.005-.097h5.989c.294 0 .577-.114.798-.321.261-.244.41-.595.41-.963s-.15-.72-.41-.963c-.221-.207-.505-.322-.799-.322h-9.257c-.666 0-1.208.576-1.208 1.285l.026.265h-.101c-.579 0-1.05.501-1.05 1.117s.471 1.117 1.05 1.117h3.506zm-3.506-1.214h1.285c.265 0 .48-.228.48-.51h-.002c0-.282-.215-.51-.48-.51-.137 0-.249-.119-.249-.265 0-.146.112-.265.249-.265h9.257c.077 0 .132.036.164.067.032.03.085.095.085.198 0 .103-.053.168-.085.198-.032.03-.087.067-.164.067h-7.036c-.265 0-.48.228-.48.51 0 .282.215.51.48.51h.002l.06.025.031.072-.031.072-.06.025h-3.506c-.05 0-.091-.043-.091-.097 0-.053.041-.097.091-.097zm13.561-2.38c.221.207.505.322.798.322h4.934c.666 0 1.208-.576 1.208-1.285l-.026-.265h.101c.579 0 1.05-.501 1.05-1.117s-.471-1.117-1.05-1.117h-3.506c-.255 0-.501.099-.694.279-.227.212-.357.517-.357.838l.005.097h-1.666c-.293 0-.577.114-.798.322-.26.244-.41.595-.41.963s.149.719.41.963zm.634-1.161c.033-.03.087-.067.164-.067h2.713c.265 0 .48-.228.48-.51 0-.282-.215-.51-.48-.51h-.002l-.06-.025-.031-.072.031-.072.06-.025h3.506c.05 0 .091.044.091.097 0 .054-.041.097-.091.097h-1.285c-.265 0-.48.228-.48.51h.002c0 .282.215.51.48.51.137 0 .249.119.249.265 0 .146-.112.265-.249.265h-4.934c-.077 0-.132-.036-.164-.067-.032-.03-.085-.095-.085-.198 0-.103.053-.168.085-.198zm10.93 17.909h-1.56l-.035.001c-2.952.115-4.656.253-5.067.409-.513.195-1.757.87-2.002 1.003l-.079.05-1.17-.407-.08-.02-3.106-.479-1.038-.196-.113-.007-2.084.136.436-.693 2.624-.663 2.684-.42h8.93c.265 0 .48-.228.48-.51v-2.848h.766c.265 0 .48-.228.48-.51 0-.282-.215-.51-.48-.51h-.766v-1.655c0-.282-.215-.51-.48-.51h-3.279v-.26h2.674c.265 0 .48-.228.48-.51 0-.282-.215-.51-.48-.51h-2.674v-1.266c0-.282-.215-.51-.48-.51h-3.522c-.265 0-.48.228-.48.51v.813h-.548v-1.496c0-.282-.215-.51-.48-.51h-2.329c-.265 0-.48.228-.48.51v1.205h-.654c-.265 0-.48.228-.48.51v1.191l-1.885.351-.071.019-2.438.874c-.074.027-.136.072-.188.127l-.145-.109c-.081-.06-.177-.093-.276-.093h-1.599v-2.151c0-.282-.215-.51-.48-.51h-2.977c-.265 0-.48.228-.48.51v.59h-.679v-.056c0-.282-.215-.51-.48-.51h-1.919c-.265 0-.48.228-.48.51v1.215h-.237c-.265 0-.48.228-.48.51 0 .282.215.51.48.51h.237v.65c0 .282.215.51.48.51h3.077v.05c0 .282.215.51.48.51h2.977c.265 0 .48-.228.48-.51v-.807h1.447l1.638 1.225.149.075 1.915.56-3.297.757-3.924-.438-.143.007-4.225.893c-.26.055-.428.323-.377.6.045.243.246.411.47.411l.094-.01 4.154-.877 3.928.438.151-.009 3.432-.788 2.321-.526h2.155v1.408l-2.329.364-.041.008-2.828.714c-.118.03-.221.106-.288.213l-.858 1.365-1.552-.147-.833-.353c-.072-.03-.15-.042-.226-.034l-2.733.294h-2.863l-1.226-.217-.958-.223-.201-.001-2.03.453c-.259.058-.425.328-.371.604.054.276.308.452.568.395l1.93-.43.87.203.024.005 1.277.226.079.007h2.927l.048-.003 2.64-.284.789.334.135.034 2.498.236.072.001 2.339-.152.989.187.015.003 3.072.474.601.209-.593.579h-3.401l-2.021-.046h-1.9709999999999999c-.146 0-.291.036-.423.104l-2.238 1.168h-5.259c-.16 0-.317.043-.458.124l-2.264 1.307-1.958.154c-.528.041-.925.531-.886 1.093.037.536.458.945.956.945l.072-.003 2.163-.17c.136-.011.268-.052.387-.121l2.231-1.289h5.238c.147 0 .291-.036.423-.104l2.238-1.168h1.716l2.021.046h3.806c.24 0 .472-.096.648-.268l1.469-1.433c.52-.282 1.323-.701 1.631-.825.416-.093 2.638-.228 4.501-.301h1.542c.53 0 .959-.457.959-1.02s-.429-1.02-.959-1.02zm-21.951-5.96v.297h-2.017v-2.958h2.017v2.661zm-5.574-2.128h.959v1.865h-.959v-1.865zm1.919.566h.679v1.298h-.679v-1.298zm15.87-1.018h.552v1.582h-.552v-1.582zm3.838-.568v1.28h-1.014c-.265 0-.48.228-.48.51v.077h-.833v-1.81c0-.186-.095-.348-.235-.436v-.377h2.563v.756zm3.759 3.445v3.358h-2.229v-2.848c0-.174-.082-.328-.208-.42-.077-.057-.171-.09-.272-.09h-1.585v-1.144h4.293v1.145zm-10.158-4.884h1.37v2.993h-.619v-1.787c0-.282-.215-.51-.48-.51h-.272v-.695zm-1.133 1.715h.926v1.277h-.926v-1.277zm3.285 4.188h4.818v2.338h-4.818v-2.338zm-3.165-.02l-.1.011-.497.113-.186-.108-3.329-.973-.63-.471 1.979-.709 1.684-.314v.071c0 .282.215.51.48.51h3.215v.086c0 .282.215.51.48.51h1.511c.188 0 .348-.116.427-.283h.886v.557h-3.233c-.265 0-.48.228-.48.51v.49h-2.206z" fill="#fff"/><path d="M9.42 49.122c.255 0 .501-.099.694-.279.227-.212.357-.518.357-.838l-.005-.097h5.989c.294 0 .577-.114.798-.321.261-.244.41-.595.41-.963s-.15-.72-.41-.963c-.221-.207-.505-.322-.799-.322h-9.257c-.666 0-1.208.576-1.208 1.285l.026.265h-.101c-.579 0-1.05.501-1.05 1.117s.471 1.117 1.05 1.117h3.506zm-3.506-1.214h1.285c.265 0 .48-.228.48-.51h-.002c0-.282-.215-.51-.48-.51-.137 0-.249-.119-.249-.265 0-.146.112-.265.249-.265h9.257c.077 0 .132.036.164.067.032.03.085.095.085.198 0 .103-.053.168-.085.198-.032.03-.087.067-.164.067h-7.036c-.265 0-.48.228-.48.51 0 .282.215.51.48.51h.002l.06.025.031.072-.031.072-.06.025h-3.506c-.05 0-.091-.043-.091-.097 0-.053.041-.097.091-.097zm13.561-2.38c.221.207.505.322.798.322h4.934c.666 0 1.208-.576 1.208-1.285l-.026-.265h.101c.579 0 1.05-.501 1.05-1.117s-.471-1.117-1.05-1.117h-3.506c-.255 0-.501.099-.694.279-.227.212-.357.517-.357.838l.005.097h-1.666c-.293 0-.577.114-.798.322-.26.244-.41.595-.41.963s.149.719.41.963zm.634-1.161c.033-.03.087-.067.164-.067h2.713c.265 0 .48-.228.48-.51 0-.282-.215-.51-.48-.51h-.002l-.06-.025-.031-.072.031-.072.06-.025h3.506c.05 0 .091.044.091.097 0 .054-.041.097-.091.097h-1.285c-.265 0-.48.228-.48.51h.002c0 .282.215.51.48.51.137 0 .249.119.249.265 0 .146-.112.265-.249.265h-4.934c-.077 0-.132-.036-.164-.067-.032-.03-.085-.095-.085-.198 0-.103.053-.168.085-.198zm10.93 17.909h-1.56l-.035.001c-2.952.115-4.656.253-5.067.409-.513.195-1.757.87-2.002 1.003l-.079.05-1.17-.407-.08-.02-3.106-.479-1.038-.196-.113-.007-2.084.136.436-.693 2.624-.663 2.684-.42h8.93c.265 0 .48-.228.48-.51v-2.848h.766c.265 0 .48-.228.48-.51 0-.282-.215-.51-.48-.51h-.766v-1.655c0-.282-.215-.51-.48-.51h-3.279v-.26h2.674c.265 0 .48-.228.48-.51 0-.282-.215-.51-.48-.51h-2.674v-1.266c0-.282-.215-.51-.48-.51h-3.522c-.265 0-.48.228-.48.51v.813h-.548v-1.496c0-.282-.215-.51-.48-.51h-2.329c-.265 0-.48.228-.48.51v1.205h-.654c-.265 0-.48.228-.48.51v1.191l-1.885.351-.071.019-2.438.874c-.074.027-.136.072-.188.127l-.145-.109c-.081-.06-.177-.093-.276-.093h-1.599v-2.151c0-.282-.215-.51-.48-.51h-2.977c-.265 0-.48.228-.48.51v.59h-.679v-.056c0-.282-.215-.51-.48-.51h-1.919c-.265 0-.48.228-.48.51v1.215h-.237c-.265 0-.48.228-.48.51 0 .282.215.51.48.51h.237v.65c0 .282.215.51.48.51h3.077v.05c0 .282.215.51.48.51h2.977c.265 0 .48-.228.48-.51v-.807h1.447l1.638 1.225.149.075 1.915.56-3.297.757-3.924-.438-.143.007-4.225.893c-.26.055-.428.323-.377.6.045.243.246.411.47.411l.094-.01 4.154-.877 3.928.438.151-.009 3.432-.788 2.321-.526h2.155v1.408l-2.329.364-.041.008-2.828.714c-.118.03-.221.106-.288.213l-.858 1.365-1.552-.147-.833-.353c-.072-.03-.15-.042-.226-.034l-2.733.294h-2.863l-1.226-.217-.958-.223-.201-.001-2.03.453c-.259.058-.425.328-.371.604.054.276.308.452.568.395l1.93-.43.87.203.024.005 1.277.226.079.007h2.927l.048-.003 2.64-.284.789.334.135.034 2.498.236.072.001 2.339-.152.989.187.015.003 3.072.474.601.209-.593.579h-3.401l-2.021-.046h-1.9709999999999999c-.146 0-.291.036-.423.104l-2.238 1.168h-5.259c-.16 0-.317.043-.458.124l-2.264 1.307-1.958.154c-.528.041-.925.531-.886 1.093.037.536.458.945.956.945l.072-.003 2.163-.17c.136-.011.268-.052.387-.121l2.231-1.289h5.238c.147 0 .291-.036.423-.104l2.238-1.168h1.716l2.021.046h3.806c.24 0 .472-.096.648-.268l1.469-1.433c.52-.282 1.323-.701 1.631-.825.416-.093 2.638-.228 4.501-.301h1.542c.53 0 .959-.457.959-1.02s-.429-1.02-.959-1.02zm-21.951-5.96v.297h-2.017v-2.958h2.017v2.661zm-5.574-2.128h.959v1.865h-.959v-1.865zm1.919.566h.679v1.298h-.679v-1.298zm15.87-1.018h.552v1.582h-.552v-1.582zm3.838-.568v1.28h-1.014c-.265 0-.48.228-.48.51v.077h-.833v-1.81c0-.186-.095-.348-.235-.436v-.377h2.563v.756zm3.759 3.445v3.358h-2.229v-2.848c0-.174-.082-.328-.208-.42-.077-.057-.171-.09-.272-.09h-1.585v-1.144h4.293v1.145zm-10.158-4.884h1.37v2.993h-.619v-1.787c0-.282-.215-.51-.48-.51h-.272v-.695zm-1.133 1.715h.926v1.277h-.926v-1.277zm3.285 4.188h4.818v2.338h-4.818v-2.338zm-3.165-.02l-.1.011-.497.113-.186-.108-3.329-.973-.63-.471 1.979-.709 1.684-.314v.071c0 .282.215.51.48.51h3.215v.086c0 .282.215.51.48.51h1.511c.188 0 .348-.116.427-.283h.886v.557h-3.233c-.265 0-.48.228-.48.51v.49h-2.206z" fill="#67737B"/><path d="M9.42 9.122c.255 0 .501-.099.694-.279.227-.212.357-.518.357-.838l-.005-.097h5.989c.294 0 .577-.114.798-.321.261-.244.41-.595.41-.963s-.15-.72-.41-.963c-.221-.207-.505-.322-.799-.322h-9.257c-.666 0-1.208.576-1.208 1.285l.026.265h-.101c-.579 0-1.05.501-1.05 1.117s.471 1.117 1.05 1.117h3.506zm-3.506-1.214h1.285c.265 0 .48-.228.48-.51h-.002c0-.282-.215-.51-.48-.51-.137 0-.249-.119-.249-.265 0-.146.112-.265.249-.265h9.257c.077 0 .132.036.164.067.032.03.085.095.085.198 0 .103-.053.168-.085.198-.032.03-.087.067-.164.067h-7.036c-.265 0-.48.228-.48.51 0 .282.215.51.48.51h.002l.06.025.031.072-.031.072-.06.025h-3.506c-.05 0-.091-.043-.091-.097 0-.053.041-.097.091-.097zm13.561-2.38c.221.207.505.322.798.322h4.934c.666 0 1.208-.576 1.208-1.285l-.026-.265h.101c.579 0 1.05-.501 1.05-1.117s-.471-1.117-1.05-1.117h-3.506c-.255 0-.501.099-.694.279-.227.212-.357.517-.357.838l.005.097h-1.666c-.293 0-.577.114-.798.322-.26.244-.41.595-.41.963s.149.719.41.963zm.634-1.161c.033-.03.087-.067.164-.067h2.713c.265 0 .48-.228.48-.51 0-.282-.215-.51-.48-.51h-.002l-.06-.025-.031-.072.031-.072.06-.025h3.506c.05 0 .091.044.091.097 0 .054-.041.097-.091.097h-1.285c-.265 0-.48.228-.48.51h.002c0 .282.215.51.48.51.137 0 .249.119.249.265 0 .146-.112.265-.249.265h-4.934c-.077 0-.132-.036-.164-.067-.032-.03-.085-.095-.085-.198 0-.103.053-.168.085-.198zm10.93 17.909h-1.56l-.035.001c-2.952.115-4.656.253-5.067.409-.513.195-1.757.87-2.002 1.003l-.079.05-1.17-.407-.08-.02-3.106-.479-1.038-.196-.113-.007-2.084.136.436-.693 2.624-.663 2.684-.42h8.93c.265 0 .48-.228.48-.51v-2.848h.766c.265 0 .48-.228.48-.51 0-.282-.215-.51-.48-.51h-.766v-1.655c0-.282-.215-.51-.48-.51h-3.279v-.26h2.674c.265 0 .48-.228.48-.51 0-.282-.215-.51-.48-.51h-2.674v-1.266c0-.282-.215-.51-.48-.51h-3.522c-.265 0-.48.228-.48.51v.813h-.548v-1.496c0-.282-.215-.51-.48-.51h-2.329c-.265 0-.48.228-.48.51v1.205h-.654c-.265 0-.48.228-.48.51v1.191l-1.885.351-.071.019-2.438.874c-.074.027-.136.072-.188.127l-.145-.109c-.081-.06-.177-.093-.276-.093h-1.599v-2.151c0-.282-.215-.51-.48-.51h-2.977c-.265 0-.48.228-.48.51v.59h-.679v-.056c0-.282-.215-.51-.48-.51h-1.919c-.265 0-.48.228-.48.51v1.215h-.237c-.265 0-.48.228-.48.51 0 .282.215.51.48.51h.237v.65c0 .282.215.51.48.51h3.077v.05c0 .282.215.51.48.51h2.977c.265 0 .48-.228.48-.51v-.807h1.447l1.638 1.225.149.075 1.915.56-3.297.757-3.924-.438-.143.007-4.225.893c-.26.055-.428.323-.377.6.045.243.246.411.47.411l.094-.01 4.154-.877 3.928.438.151-.009 3.432-.788 2.321-.526h2.155v1.408l-2.329.364-.041.008-2.828.714c-.118.03-.221.106-.288.213l-.858 1.365-1.552-.147-.833-.353c-.072-.03-.15-.042-.226-.034l-2.733.294h-2.863l-1.226-.217-.958-.223-.201-.001-2.03.453c-.259.058-.425.328-.371.604.054.276.308.452.568.395l1.93-.43.87.203.024.005 1.277.226.079.007h2.927l.048-.003 2.64-.284.789.334.135.034 2.498.236.072.001 2.339-.152.989.187.015.003 3.072.474.601.209-.593.579h-3.401l-2.021-.046h-1.9709999999999999c-.146 0-.291.036-.423.104l-2.238 1.168h-5.259c-.16 0-.317.043-.458.124l-2.264 1.307-1.958.154c-.528.041-.925.531-.886 1.093.037.536.458.945.956.945l.072-.003 2.163-.17c.136-.011.268-.052.387-.121l2.231-1.289h5.238c.147 0 .291-.036.423-.104l2.238-1.168h1.716l2.021.046h3.806c.24 0 .472-.096.648-.268l1.469-1.433c.52-.282 1.323-.701 1.631-.825.416-.093 2.638-.228 4.501-.301h1.542c.53 0 .959-.457.959-1.02s-.429-1.02-.959-1.02zm-21.951-5.96v.297h-2.017v-2.958h2.017v2.661zm-5.574-2.128h.959v1.865h-.959v-1.865zm1.919.566h.679v1.298h-.679v-1.298zm15.87-1.018h.552v1.582h-.552v-1.582zm3.838-.568v1.28h-1.014c-.265 0-.48.228-.48.51v.077h-.833v-1.81c0-.186-.095-.348-.235-.436v-.377h2.563v.756zm3.759 3.445v3.358h-2.229v-2.848c0-.174-.082-.328-.208-.42-.077-.057-.171-.09-.272-.09h-1.585v-1.144h4.293v1.145zm-10.158-4.884h1.37v2.993h-.619v-1.787c0-.282-.215-.51-.48-.51h-.272v-.695zm-1.133 1.715h.926v1.277h-.926v-1.277zm3.285 4.188h4.818v2.338h-4.818v-2.338zm-3.165-.02l-.1.011-.497.113-.186-.108-3.329-.973-.63-.471 1.979-.709 1.684-.314v.071c0 .282.215.51.48.51h3.215v.086c0 .282.215.51.48.51h1.511c.188 0 .348-.116.427-.283h.886v.557h-3.233c-.265 0-.48.228-.48.51v.49h-2.206z" fill="#3A434E"/></g></g></svg>
