<svg width="32" height="232" viewBox="0 0 32 232" xmlns="http://www.w3.org/2000/svg" xmlns:sketch="http://www.bohemiancoding.com/sketch/ns"><title>kuala-lumpur</title><desc>Created with Sketch.</desc><g sketch:type="MSPage" fill="none"><g sketch:type="MSShapeGroup"><path d="M18.147 124.919c.066.034.138.052.212.052.125 0 .244-.051.332-.141.088-.089.138-.211.138-.338 0-.181-.101-.347-.261-.427-.131-.067-.292-.066-.422.001l-.042.026-.077.062c-.089.089-.139.212-.139.339 0 .127.05.249.139.339l.119.087zm-2.58 2.422c-.081-.041-.173-.057-.263-.046l-.191.068-.087.068c-.144.146-.18.371-.088.554.046.091.118.165.207.211.066.034.139.051.213.051.125 0 .244-.05.332-.14.143-.145.178-.368.088-.552-.046-.092-.12-.167-.211-.214zm-2.03-3.448l.39.218.214.396c.083.154.24.249.412.249s.33-.095.412-.249l.213-.396.391-.218c.15-.083.244-.244.244-.419 0-.174-.094-.335-.244-.418l-.391-.218-.213-.397c-.083-.152-.241-.248-.412-.248-.172 0-.329.095-.412.248l-.214.397-.39.218c-.151.083-.245.244-.245.418s.094.335.245.419zm12.115 26.149h-.658v-16.28c0-.426-.274-.787-.653-.91-.197-2.068-.429-3.752-.69-5.019l.006-.064c0-.095-.028-.182-.075-.257-.305-1.377-.753-2.731-1.673-3.073v-.639c.243-.018.434-.222.434-.474s-.191-.455-.434-.474v-2.352c0-.264-.21-.477-.47-.477-.259 0-.47.213-.47.477v2.353c-.237.024-.422.226-.422.473 0 .247.185.448.422.473v.64c-.966.359-1.406 1.831-1.708 3.276-.269 1.286-.503 3.024-.7 5.174-.328.149-.557.484-.557.873v4.864h-3.995v-4.864c0-.426-.275-.787-.653-.91-.197-2.068-.429-3.752-.69-5.019l.006-.064c0-.095-.028-.182-.075-.257-.305-1.377-.753-2.731-1.673-3.073v-.64c.239-.022.428-.224.428-.473 0-.25-.189-.452-.428-.473v-2.353c0-.264-.21-.477-.47-.477-.259 0-.47.213-.47.477v2.353c-.24.022-.429.224-.429.473 0 .249.189.451.429.473v.639c-.966.359-1.406 1.831-1.708 3.275-.269 1.287-.503 3.025-.7 5.174-.328.149-.557.484-.557.873v16.28h-.705c-.519 0-.939.427-.939.954 0 .527.42.955.939.955h19.339c.519 0 .939-.428.939-.955 0-.528-.42-.954-.939-.954zm-15.196-23.244l.151.494h-.299l.148-.494zm.374 1.449l.034.169h-.81l.033-.169h.742zm10.611-1.449l.15.494h-.299l.149-.494zm.374 1.449l.034.169h-.81l.033-.169h.743zm1.3 21.795h-.481v-8.177c0-.264-.21-.477-.47-.477-.259 0-.47.214-.47.477v8.177h-.427v-8.177c0-.264-.21-.477-.47-.477-.259 0-.47.214-.47.477v8.177h-.445v-9.202h3.232v9.202zm-3.232-15.444c.266-.15.454-.428.481-.755l.009-.106h2.162l.01.109c.031.362.259.662.57.796v.229h-3.232v-.273zm.814-3.983h1.503l.06.469h-1.621l.058-.469zm1.368-.955h-1.236l.045-.289h1.146l.046.289zm-1.532 2.379h1.838l.077.743h-1.988l.073-.743zm-.649 3.787h3.232v1.415h-3.232v-1.415zm0 2.37h3.232v1.689h-3.232v-1.689zm-1.879 4.844l-1.185-2.16h1.185v2.16zm-9.106-8.442c.266-.15.454-.428.482-.755l.009-.106h2.162l.01.109c.031.362.259.662.57.796v.229h-3.232v-.273zm.814-3.983h1.503l.06.469h-1.621l.058-.469zm1.368-.955h-1.236l.044-.289h1.146l.046.289zm-1.532 2.379h1.837l.077.743h-1.988l.074-.743zm-.65 3.787h3.232v1.415h-3.232v-1.415zm0 2.37h3.232v1.689h-3.232v-1.689zm5.112 2.684h1.275l-1.275 2.326v-2.326zm-5.112-.04h3.232v9.202h-.496v-8.177c0-.264-.21-.477-.47-.477-.259 0-.47.214-.47.477v8.177h-.427v-8.177c0-.264-.21-.477-.47-.477-.259 0-.47.214-.47.477v8.177h-.43v-9.202zm5.112 4.327l2.043-3.725 1.952 3.56v5.041h-3.995v-4.875zm0-5.586h3.995v.343h-3.995v-.343z" fill="#206FAC"/><path d="M18.147 84.919c.066.034.138.052.212.052.125 0 .244-.051.332-.141.088-.089.138-.211.138-.338 0-.181-.101-.347-.261-.427-.131-.067-.292-.066-.422.001l-.042.026-.077.062c-.089.089-.139.212-.139.339 0 .127.05.249.139.339l.119.087zm-2.58 2.422c-.081-.041-.173-.057-.263-.046l-.191.068-.087.068c-.144.146-.18.371-.088.554.046.091.118.165.207.211.066.034.139.051.213.051.125 0 .244-.05.332-.14.143-.145.178-.368.088-.552-.046-.092-.12-.167-.211-.214zm-2.03-3.448l.39.218.214.396c.083.154.24.249.412.249s.33-.095.412-.249l.213-.396.391-.218c.15-.083.244-.244.244-.419 0-.174-.094-.335-.244-.418l-.391-.218-.213-.397c-.083-.152-.241-.248-.412-.248-.172 0-.329.095-.412.248l-.214.397-.39.218c-.151.083-.245.244-.245.418s.094.335.245.419zm12.115 26.149h-.658v-16.28c0-.426-.274-.787-.653-.91-.197-2.068-.429-3.752-.69-5.019l.006-.064c0-.095-.028-.182-.075-.257-.305-1.377-.753-2.731-1.673-3.073v-.639c.243-.018.434-.222.434-.474s-.191-.455-.434-.474v-2.352c0-.264-.21-.477-.47-.477-.259 0-.47.213-.47.477v2.353c-.237.024-.422.226-.422.473 0 .247.185.448.422.473v.64c-.966.359-1.406 1.831-1.708 3.276-.269 1.286-.503 3.024-.7 5.174-.328.149-.557.484-.557.873v4.864h-3.995v-4.864c0-.426-.275-.787-.653-.91-.197-2.068-.429-3.752-.69-5.019l.006-.064c0-.095-.028-.182-.075-.257-.305-1.377-.753-2.731-1.673-3.073v-.64c.239-.022.428-.224.428-.473 0-.25-.189-.452-.428-.473v-2.353c0-.264-.21-.477-.47-.477-.259 0-.47.213-.47.477v2.353c-.24.022-.429.224-.429.473 0 .249.189.451.429.473v.639c-.966.359-1.406 1.831-1.708 3.275-.269 1.287-.503 3.025-.7 5.174-.328.149-.557.484-.557.873v16.28h-.705c-.519 0-.939.427-.939.954 0 .527.42.955.939.955h19.339c.519 0 .939-.428.939-.955 0-.528-.42-.954-.939-.954zm-15.196-23.244l.151.494h-.299l.148-.494zm.374 1.449l.034.169h-.81l.033-.169h.742zm10.611-1.449l.15.494h-.299l.149-.494zm.374 1.449l.034.169h-.81l.033-.169h.743zm1.3 21.795h-.481v-8.177c0-.264-.21-.477-.47-.477-.259 0-.47.214-.47.477v8.177h-.427v-8.177c0-.264-.21-.477-.47-.477-.259 0-.47.214-.47.477v8.177h-.445v-9.202h3.232v9.202zm-3.232-15.444c.266-.15.454-.428.481-.755l.009-.106h2.162l.01.109c.031.362.259.662.57.796v.229h-3.232v-.273zm.814-3.983h1.503l.06.469h-1.621l.058-.469zm1.368-.955h-1.236l.045-.289h1.146l.046.289zm-1.532 2.379h1.838l.077.743h-1.988l.073-.743zm-.649 3.787h3.232v1.415h-3.232v-1.415zm0 2.37h3.232v1.689h-3.232v-1.689zm-1.879 4.844l-1.185-2.16h1.185v2.16zm-9.106-8.442c.266-.15.454-.428.482-.755l.009-.106h2.162l.01.109c.031.362.259.662.57.796v.229h-3.232v-.273zm.814-3.983h1.503l.06.469h-1.621l.058-.469zm1.368-.955h-1.236l.044-.289h1.146l.046.289zm-1.532 2.379h1.837l.077.743h-1.988l.074-.743zm-.65 3.787h3.232v1.415h-3.232v-1.415zm0 2.37h3.232v1.689h-3.232v-1.689zm5.112 2.684h1.275l-1.275 2.326v-2.326zm-5.112-.04h3.232v9.202h-.496v-8.177c0-.264-.21-.477-.47-.477-.259 0-.47.214-.47.477v8.177h-.427v-8.177c0-.264-.21-.477-.47-.477-.259 0-.47.214-.47.477v8.177h-.43v-9.202zm5.112 4.327l2.043-3.725 1.952 3.56v5.041h-3.995v-4.875zm0-5.586h3.995v.343h-3.995v-.343z" fill="#fff"/><path d="M18.147 44.919c.066.034.138.052.212.052.125 0 .244-.051.332-.141.088-.089.138-.211.138-.338 0-.181-.101-.347-.261-.427-.131-.067-.292-.066-.422.001l-.042.026-.077.062c-.089.089-.139.212-.139.339 0 .127.05.249.139.339l.119.087zm-2.58 2.422c-.081-.041-.173-.057-.263-.046l-.191.068-.087.068c-.144.146-.18.371-.088.554.046.091.118.165.207.211.066.034.139.051.213.051.125 0 .244-.05.332-.14.143-.145.178-.368.088-.552-.046-.092-.12-.167-.211-.214zm-2.03-3.448l.39.218.214.396c.083.154.24.249.412.249s.33-.095.412-.249l.213-.396.391-.218c.15-.083.244-.244.244-.419 0-.174-.094-.335-.244-.418l-.391-.218-.213-.397c-.083-.152-.241-.248-.412-.248-.172 0-.329.095-.412.248l-.214.397-.39.218c-.151.083-.245.244-.245.418s.094.335.245.419zm12.115 26.149h-.658v-16.28c0-.426-.274-.787-.653-.91-.197-2.068-.429-3.752-.69-5.019l.006-.064c0-.095-.028-.182-.075-.257-.305-1.377-.753-2.731-1.673-3.073v-.639c.243-.018.434-.222.434-.474s-.191-.455-.434-.474v-2.352c0-.264-.21-.477-.47-.477-.259 0-.47.213-.47.477v2.353c-.237.024-.422.226-.422.473 0 .247.185.448.422.473v.64c-.966.359-1.406 1.831-1.708 3.276-.269 1.286-.503 3.024-.7 5.174-.328.149-.557.484-.557.873v4.864h-3.995v-4.864c0-.426-.275-.787-.653-.91-.197-2.068-.429-3.752-.69-5.019l.006-.064c0-.095-.028-.182-.075-.257-.305-1.377-.753-2.731-1.673-3.073v-.64c.239-.022.428-.224.428-.473 0-.25-.189-.452-.428-.473v-2.353c0-.264-.21-.477-.47-.477-.259 0-.47.213-.47.477v2.353c-.24.022-.429.224-.429.473 0 .249.189.451.429.473v.639c-.966.359-1.406 1.831-1.708 3.275-.269 1.287-.503 3.025-.7 5.174-.328.149-.557.484-.557.873v16.28h-.705c-.519 0-.939.427-.939.955 0 .527.42.955.939.955h19.339c.519 0 .939-.428.939-.955 0-.528-.42-.955-.939-.955zm-15.196-23.244l.151.494h-.299l.148-.494zm.374 1.449l.034.169h-.81l.033-.169h.742zm10.611-1.449l.15.494h-.299l.149-.494zm.374 1.449l.034.169h-.81l.033-.169h.743zm1.3 21.795h-.481v-8.177c0-.264-.21-.477-.47-.477-.259 0-.47.214-.47.477v8.177h-.427v-8.177c0-.264-.21-.477-.47-.477-.259 0-.47.214-.47.477v8.177h-.445v-9.202h3.232v9.202zm-3.232-15.444c.266-.15.454-.428.481-.755l.009-.106h2.162l.01.109c.031.362.259.662.57.796v.229h-3.232v-.273zm.814-3.983h1.503l.06.469h-1.621l.058-.469zm1.368-.955h-1.236l.045-.289h1.146l.046.289zm-1.532 2.379h1.838l.077.743h-1.988l.073-.743zm-.649 3.787h3.232v1.415h-3.232v-1.415zm0 2.37h3.232v1.689h-3.232v-1.689zm-1.879 4.844l-1.185-2.16h1.185v2.16zm-9.106-8.442c.266-.15.454-.428.482-.755l.009-.106h2.162l.01.109c.031.362.259.662.57.796v.229h-3.232v-.273zm.814-3.983h1.503l.06.469h-1.621l.058-.469zm1.368-.955h-1.236l.044-.289h1.146l.046.289zm-1.532 2.379h1.837l.077.743h-1.988l.074-.743zm-.65 3.787h3.232v1.415h-3.232v-1.415zm0 2.37h3.232v1.689h-3.232v-1.689zm5.112 2.684h1.275l-1.275 2.326v-2.326zm-5.112-.04h3.232v9.202h-.496v-8.177c0-.264-.21-.477-.47-.477-.259 0-.47.214-.47.477v8.177h-.427v-8.177c0-.264-.21-.477-.47-.477-.259 0-.47.214-.47.477v8.177h-.43v-9.202zm5.112 4.327l2.043-3.725 1.952 3.56v5.041h-3.995v-4.875zm0-5.586h3.995v.343h-3.995v-.343z" fill="#67737B"/><path d="M18.147 4.919c.066.034.138.052.212.052.125 0 .244-.051.332-.141.088-.089.138-.211.138-.338 0-.181-.101-.347-.261-.427-.131-.067-.292-.066-.422.001l-.042.026-.077.062c-.089.089-.139.212-.139.339 0 .127.05.249.139.339l.119.087zm-2.58 2.422c-.081-.041-.173-.057-.263-.046l-.191.068-.087.068c-.144.146-.18.371-.088.554.046.091.118.165.207.211.066.034.139.051.213.051.125 0 .244-.05.332-.14.143-.145.178-.368.088-.552-.046-.092-.12-.167-.211-.214zm-2.03-3.448l.39.218.214.396c.083.154.24.249.412.249s.33-.095.412-.249l.213-.396.391-.218c.15-.083.244-.244.244-.419 0-.174-.094-.335-.244-.418l-.391-.218-.213-.397c-.083-.152-.241-.248-.412-.248-.172 0-.329.095-.412.248l-.214.397-.39.218c-.151.083-.245.244-.245.418s.094.335.245.419zm12.115 26.149h-.658v-16.28c0-.426-.274-.787-.653-.91-.197-2.068-.429-3.752-.69-5.019l.006-.064c0-.095-.028-.182-.075-.257-.305-1.377-.753-2.731-1.673-3.073v-.639c.243-.018.434-.222.434-.474s-.191-.455-.434-.474v-2.352c0-.264-.21-.477-.47-.477-.259 0-.47.213-.47.477v2.353c-.237.024-.422.226-.422.473 0 .247.185.448.422.473v.64c-.966.359-1.406 1.831-1.708 3.276-.269 1.286-.503 3.024-.7 5.174-.328.149-.557.484-.557.873v4.864h-3.995v-4.864c0-.426-.275-.787-.653-.91-.197-2.068-.429-3.752-.69-5.019l.006-.064c0-.095-.028-.182-.075-.257-.305-1.377-.753-2.731-1.673-3.073v-.64c.239-.022.428-.224.428-.473 0-.25-.189-.452-.428-.473v-2.353c0-.264-.21-.477-.47-.477-.259 0-.47.213-.47.477v2.353c-.24.022-.429.224-.429.473 0 .249.189.451.429.473v.639c-.966.359-1.406 1.831-1.708 3.275-.269 1.287-.503 3.025-.7 5.174-.328.149-.557.484-.557.873v16.28h-.705c-.519 0-.939.427-.939.954 0 .527.42.955.939.955h19.339c.519 0 .939-.428.939-.955 0-.528-.42-.954-.939-.954zm-15.196-23.244l.151.494h-.299l.148-.494zm.374 1.449l.034.169h-.81l.033-.169h.742zm10.611-1.449l.15.494h-.299l.149-.494zm.374 1.449l.034.169h-.81l.033-.169h.743zm1.3 21.795h-.481v-8.177c0-.264-.21-.477-.47-.477-.259 0-.47.214-.47.477v8.177h-.427v-8.177c0-.264-.21-.477-.47-.477-.259 0-.47.214-.47.477v8.177h-.445v-9.202h3.232v9.202zm-3.232-15.444c.266-.15.454-.428.481-.755l.009-.106h2.162l.01.109c.031.362.259.662.57.796v.229h-3.232v-.273zm.814-3.983h1.503l.06.469h-1.621l.058-.469zm1.368-.955h-1.236l.045-.289h1.146l.046.289zm-1.532 2.379h1.838l.077.743h-1.988l.073-.743zm-.649 3.787h3.232v1.415h-3.232v-1.415zm0 2.37h3.232v1.689h-3.232v-1.689zm-1.879 4.844l-1.185-2.16h1.185v2.16zm-9.106-8.442c.266-.15.454-.428.482-.755l.009-.106h2.162l.01.109c.031.362.259.662.57.796v.229h-3.232v-.273zm.814-3.983h1.503l.06.469h-1.621l.058-.469zm1.368-.955h-1.236l.044-.289h1.146l.046.289zm-1.532 2.379h1.837l.077.743h-1.988l.074-.743zm-.65 3.787h3.232v1.415h-3.232v-1.415zm0 2.37h3.232v1.689h-3.232v-1.689zm5.112 2.684h1.275l-1.275 2.326v-2.326zm-5.112-.04h3.232v9.202h-.496v-8.177c0-.264-.21-.477-.47-.477-.259 0-.47.214-.47.477v8.177h-.427v-8.177c0-.264-.21-.477-.47-.477-.259 0-.47.214-.47.477v8.177h-.43v-9.202zm5.112 4.327l2.043-3.725 1.952 3.56v5.041h-3.995v-4.875zm0-5.586h3.995v.343h-3.995v-.343z" fill="#3A434E"/></g></g></svg>