<svg width="32" height="232" viewBox="0 0 32 232" xmlns="http://www.w3.org/2000/svg"><desc>Created with Sketch.</desc><g fill="none"><path d="M16.45 144.6c-.28 0-.4-.05-.568-.12-.202-.085-.453-.19-.91-.19-.46 0-.71.104-.913.188-.17.07-.29.12-.57.12-.28 0-.4-.05-.57-.12-.2-.084-.453-.19-.91-.19-.46 0-.71.105-.91.19-.168.07-.288.12-.57.12-.28 0-.4-.05-.567-.12-.202-.084-.453-.19-.91-.19-.46 0-.71.106-.912.19-.166.07-.286.12-.567.12-.28 0-.4-.05-.568-.12-.202-.083-.453-.19-.91-.19-.46 0-.71.106-.912.19-.167.07-.287.12-.568.12-.26 0-.472.227-.472.507s.21.506.472.506c.46 0 .71-.1.91-.185.168-.07.288-.12.57-.12.28 0 .4.05.567.12.202.084.453.19.91.19.46 0 .71-.106.912-.19.167-.07.287-.12.568-.12.28 0 .4.05.568.12.203.084.454.19.91.19.46 0 .71-.106.913-.19.167-.07.287-.12.568-.12.28 0 .4.05.57.12.2.084.453.19.91.19.46 0 .71-.106.91-.19.17-.07.29-.12.57-.12.28 0 .4.05.568.12.202.084.453.19.91.19.262 0 .473-.227.473-.507s-.21-.506-.47-.506m-5.014-16.97h3.45c.252 0 .495-.1.684-.278.22-.21.35-.51.35-.83l-.006-.095h1.64c.29 0 .568-.114.786-.32.257-.24.404-.59.404-.955s-.147-.712-.403-.954c-.215-.206-.494-.32-.783-.32H12.7c-.657 0-1.19.573-1.19 1.275l.026.264h-.1c-.57 0-1.033.496-1.033 1.107 0 .612.464 1.11 1.034 1.11zm0-1.205H12.7c.26 0 .47-.226.47-.506s-.212-.506-.473-.506c-.135 0-.245-.118-.245-.263 0-.146.11-.264.245-.264h4.856c.076 0 .13.036.16.066.032.03.085.096.085.2 0 .1-.052.165-.084.194-.032.03-.086.066-.16.066H14.88c-.26 0-.472.226-.472.506s.21.506.472.506h.002l.06.025.03.07-.03.07-.06.026h-3.45c-.05 0-.09-.043-.09-.096 0-.053.04-.096.09-.096zm20.374 16.25c.06-.133.09-.28.09-.436 0-.56-.42-1.012-.942-1.012h-.143v-.474c0-.226-.14-.424-.342-.486l-.197-.06-.447-.958v-.464c0-.154-.067-.3-.18-.395l-.28-.24-.045-.07v-6.146c.166-.078.282-.256.282-.463 0-.21-.117-.385-.283-.464v-.462h.376c.26 0 .474-.226.474-.506 0-.13-.047-.25-.123-.34l-3.966-5.49v-1.452c0-.28-.21-.506-.472-.506s-.47.224-.47.504v1.45l-3.99 5.522c-.11.153-.13.36-.05.532.08.172.243.282.423.282h.402v.45c-.18.072-.31.256-.31.474 0 .218.13.402.31.473v3.307h-.923c-.26 0-.472.226-.472.506v.51h-.37v-.51c0-.28-.21-.506-.47-.506H19v-.606h.424c.19 0 .362-.122.435-.31.07-.19.03-.405-.1-.55l-2.067-2.244v-.918c0-.28-.21-.507-.472-.507s-.47.226-.47.505v.524h-1.38v-.525c0-.28-.21-.507-.473-.507s-.472.225-.472.504v.797l-2.17 2.365c-.132.145-.17.362-.098.55.074.188.245.31.435.31h.238v.606h-.69c-.26 0-.47.227-.47.507v.51h-.37v-.51c0-.28-.21-.507-.47-.507h-.63v-3.32c.167-.076.283-.254.283-.46 0-.207-.116-.384-.282-.463v-.462h.38c.26 0 .47-.225.47-.505 0-.13-.05-.25-.124-.34l-3.968-5.49v-1.45c0-.28-.21-.507-.472-.507s-.472.226-.472.506v1.45l-3.99 5.52c-.11.152-.13.36-.05.53.078.174.243.284.423.284H2.8v.45c-.18.072-.31.256-.31.474 0 .217.128.4.31.472v6.09l-.073.118-.28.24c-.113.097-.18.24-.18.396v.463l-.446.956-.193.06c-.203.063-.342.262-.342.487v.474H.977c-.52 0-.944.454-.944 1.013l.027.24c-.05.08-.08.18-.08.284 0 .28.21.507.47.507.282 0 .402.05.57.12.2.085.452.19.91.19.46 0 .71-.105.91-.19.168-.07.288-.12.57-.12.28 0 .4.05.567.12.202.085.453.19.91.19.46 0 .71-.105.912-.19.163-.07.283-.12.564-.12.28 0 .4.05.568.12.202.085.453.19.91.19.378 0 .613-.07.798-.143h1.366c.184.072.42.143.797.143.377 0 .613-.07.797-.143h1.366c.184.072.42.143.797.143.377 0 .612-.07.797-.143h1.366c.184.072.42.143.797.143.377 0 .613-.07.797-.143h1.365c.184.072.42.143.797.143.377 0 .612-.07.797-.143h1.36c.185.072.42.143.798.143.42 0 .665-.088.86-.167v3.052c0 .28.21.506.47.506h2.56c.26 0 .47-.223.47-.503v-.046c-.006-1.226-.165-2.235-.404-3.064.13-.05.252-.085.483-.085.28 0 .4.05.567.12.202.087.453.19.91.19.46 0 .71-.103.913-.19.17-.07.29-.12.57-.12.28 0 .4.05.57.12.2.087.452.19.91.19.26 0 .473-.224.473-.504 0-.162-.072-.304-.182-.397zm-23.66-10.16c-.176 0-.32.147-.327.332v1.074h.65v-1.073c-.01-.185-.15-.332-.326-.332zm-3.326 0c-.174 0-.317.147-.325.332v1.074h.646v-1.073c-.008-.185-.15-.332-.325-.332zm1.662 0c-.174 0-.317.147-.325.332v1.074h.65v-1.073c-.006-.185-.15-.332-.323-.332zm1.662 2.693c-.175 0-.318.147-.326.332v1.072h.65v-1.074c-.01-.186-.15-.333-.326-.333zm-3.325 0c-.174 0-.317.147-.325.332v1.072h.648v-1.074c-.008-.186-.15-.333-.325-.333zm1.662 0c-.174 0-.317.147-.325.332v1.072h.65v-1.074c-.008-.186-.15-.333-.325-.333zm20.788-2.693c-.174 0-.317.147-.325.332v1.074h.648v-1.073c-.008-.185-.15-.332-.325-.332zm-3.324 0c-.175 0-.318.147-.326.332v1.074h.65v-1.073c-.01-.185-.15-.332-.326-.332zm1.66 0c-.173 0-.316.147-.324.332v1.074h.65v-1.073c-.01-.185-.15-.332-.326-.332zm1.663 2.693c-.174 0-.317.147-.325.332v1.072h.647v-1.074c-.008-.186-.15-.333-.325-.333zm-3.324 0c-.174 0-.317.147-.325.332v1.072h.65v-1.074c-.01-.186-.15-.333-.326-.333zm1.662 0c-.174 0-.317.147-.325.332v1.072h.65v-1.074c-.01-.186-.15-.333-.326-.333zm-23.384 6.02v-.092l.052-.017c.127-.04.233-.133.292-.26l.59-1.263c.033-.07.05-.148.05-.226v-.34l.164-.14.1-.12.19-.315c.05-.082.075-.177.075-.274v-6.203h5.513v6.25c0 .097.026.192.075.274l.09.148.072.122.102.12.164.14v.34c0 .076.017.153.05.223l.59 1.263c.06.127.165.22.292.26l.054.016v.387h-8.52v-.295zm1.515-10.682h5.512v.42h-5.51v-.42zm7.084 6.733h1.31c.26 0 .473-.226.473-.506v-.51h.217v4.966h-1.14v-.475c0-.226-.14-.424-.34-.486l-.198-.06-.447-.96v-.463c0-.154-.065-.3-.178-.395l-.28-.24-.045-.073v-1.817h.157v.51c0 .278.21.505.472.505zm2.945-2.027v-.62h4.28v7.104h-.676v-2.594c-.038-.82-.667-1.465-1.436-1.465-.77 0-1.398.644-1.434 1.466v2.594h-.734v-6.482zm3.162-3.09l1.342 1.457H13.73l1.277-1.39.146-.07h1.782zm2.752 5.12H21c.26 0 .47-.228.47-.508v-.508h.45v1.77l-.07.118-.28.24c-.113.096-.18.24-.18.395v.462l-.446.958-.2.06c-.202.062-.34.26-.34.486v.474H19v-4.965h.218v.51c0 .28.21.506.472.506zm3.18-6.735h5.512v.42H22.87v-.42zm-7.414 11.188v-2.556c.017-.277.23-.49.49-.49s.473.213.49.49v2.664h-.98v-.108zm14.416-.506v.293H25.8l-.194-.293c-.453-.65-.906-1.02-1.164-1.197v-1.31c0-.278-.21-.505-.472-.505s-.472.226-.472.506v2.8h-2.145v-.385l.054-.02c.128-.04.234-.132.29-.26l.59-1.262c.036-.07.05-.15.05-.227v-.34l.167-.14.102-.12.19-.314c.047-.082.073-.177.073-.274v-6.204h5.512v6.25c0 .097.026.192.075.274l.16.267.104.12.166.14v.34c0 .08.016.156.05.226l.59 1.263c.06.126.164.22.29.26l.055.015v.092zm-5.428 2.07v-1.98l.18.2c.118.145.242.31.365.508.094.15.19.317.28.502l.002.003c.073.147.143.306.21.477l.022.057.066.183.106.323c.193.647.333 1.433.37 2.382h-1.6V143.3zm1.17-18.092l3.125 4.326h-6.253l3.126-4.326zm-19.126 0l3.124 4.326h-6.25l3.125-4.326zm9.782 11.64v-.935l-.044-.155c-.057-.105-.16-.176-.282-.176-.12 0-.225.07-.28.176l-.045.156v1.075h.65v-.14m13.66 11.48c-.46 0-.71.104-.91.19-.17.07-.29.12-.57.12-.25 0-.37-.04-.51-.1.494-.343.642-.696.67-.77.053-.155.034-.33-.054-.467s-.232-.22-.39-.22H21.6c-.155 0-.3.083-.39.22-.087.137-.107.312-.05.467.02.06.133.335.48.63-.15-.04-.336-.072-.582-.072-.46 0-.71.105-.912.19-.167.07-.287.12-.568.12-.26 0-.472.225-.472.505s.21.506.472.506c.46 0 .71-.107.91-.19.168-.07.288-.12.57-.12.28 0 .4.05.567.12.202.083.453.19.91.19.46 0 .71-.107.912-.19.167-.07.287-.12.568-.12.28 0 .4.05.568.12.203.083.454.19.912.19.46 0 .71-.107.91-.19.168-.07.288-.12.57-.12.28 0 .4.05.567.12.2.083.452.19.91.19.46 0 .71-.107.912-.19.167-.07.287-.12.568-.12.26 0 .472-.227.472-.507 0-.278-.21-.505-.472-.505zm-5.048-.074c-.664 0-1.178-.065-1.575-.16h3.15c-.398.094-.912.16-1.576.16z" fill="#206FAC"/><path d="M16.45 104.6c-.28 0-.4-.05-.568-.12-.202-.085-.453-.19-.91-.19-.46 0-.71.104-.913.188-.17.07-.29.12-.57.12-.28 0-.4-.05-.57-.12-.2-.084-.453-.19-.91-.19-.46 0-.71.105-.91.19-.168.07-.288.12-.57.12-.28 0-.4-.05-.567-.12-.202-.084-.453-.19-.91-.19-.46 0-.71.106-.912.19-.166.07-.286.12-.567.12-.28 0-.4-.05-.568-.12-.202-.083-.453-.19-.91-.19-.46 0-.71.106-.912.19-.167.07-.287.12-.568.12-.26 0-.472.227-.472.507s.21.506.472.506c.46 0 .71-.1.91-.185.168-.07.288-.12.57-.12.28 0 .4.05.567.12.202.084.453.19.91.19.46 0 .71-.106.912-.19.167-.07.287-.12.568-.12.28 0 .4.05.568.12.203.084.454.19.91.19.46 0 .71-.106.913-.19.167-.07.287-.12.568-.12.28 0 .4.05.57.12.2.084.453.19.91.19.46 0 .71-.106.91-.19.17-.07.29-.12.57-.12.28 0 .4.05.568.12.202.084.453.19.91.19.262 0 .473-.227.473-.507s-.21-.506-.47-.506m-5.014-16.97h3.45c.252 0 .495-.1.684-.278.22-.21.35-.51.35-.83l-.006-.095h1.64c.29 0 .568-.114.786-.32.257-.24.404-.59.404-.955s-.147-.712-.403-.954c-.215-.206-.494-.32-.783-.32H12.7c-.657 0-1.19.573-1.19 1.275l.026.264h-.1c-.57 0-1.033.496-1.033 1.107 0 .612.464 1.11 1.034 1.11zm0-1.205H12.7c.26 0 .47-.226.47-.506s-.212-.506-.473-.506c-.135 0-.245-.118-.245-.263 0-.146.11-.264.245-.264h4.856c.076 0 .13.036.16.066.032.03.085.096.085.2 0 .1-.052.165-.084.194-.032.03-.086.066-.16.066H14.88c-.26 0-.472.226-.472.506s.21.506.472.506h.002l.06.025.03.07-.03.07-.06.026h-3.45c-.05 0-.09-.043-.09-.096 0-.053.04-.096.09-.096zm20.374 16.25c.06-.133.09-.28.09-.436 0-.56-.42-1.012-.942-1.012h-.143v-.474c0-.226-.14-.424-.342-.486l-.197-.06-.447-.958v-.464c0-.154-.067-.3-.18-.395l-.28-.24-.045-.07v-6.146c.166-.078.282-.256.282-.463 0-.21-.117-.385-.283-.464v-.462h.376c.26 0 .474-.226.474-.506 0-.13-.047-.25-.123-.34l-3.966-5.49v-1.452c0-.28-.21-.506-.472-.506s-.47.224-.47.504v1.45l-3.99 5.522c-.11.153-.13.36-.05.532.08.172.243.282.423.282h.402v.45c-.18.072-.31.256-.31.474 0 .218.13.402.31.473v3.307h-.923c-.26 0-.472.226-.472.506v.51h-.37v-.51c0-.28-.21-.506-.47-.506H19v-.606h.424c.19 0 .362-.122.435-.31.07-.19.03-.405-.1-.55l-2.067-2.244v-.918c0-.28-.21-.507-.472-.507s-.47.226-.47.505v.524h-1.38v-.525c0-.28-.21-.507-.473-.507s-.472.225-.472.504v.797l-2.17 2.365c-.132.145-.17.362-.098.55.074.188.245.31.435.31h.238v.606h-.69c-.26 0-.47.227-.47.507v.51h-.37v-.51c0-.28-.21-.507-.47-.507h-.63v-3.32c.167-.076.283-.254.283-.46 0-.207-.116-.384-.282-.463v-.462h.38c.26 0 .47-.225.47-.505 0-.13-.05-.25-.124-.34l-3.97-5.49v-1.45c0-.28-.21-.507-.47-.507s-.473.226-.473.506v1.45l-3.99 5.52c-.11.152-.13.36-.05.53.078.174.243.284.423.284H2.8v.45c-.18.072-.31.256-.31.474 0 .217.128.4.31.472v6.09l-.073.118-.28.24c-.113.097-.18.24-.18.396v.463l-.446.956-.193.06c-.203.063-.342.262-.342.487v.474H.977c-.52 0-.944.454-.944 1.013l.027.24c-.05.08-.08.18-.08.284 0 .28.21.507.47.507.282 0 .402.05.57.12.2.085.452.19.91.19.46 0 .71-.105.91-.19.168-.07.288-.12.57-.12.28 0 .4.05.567.12.202.085.453.19.91.19.46 0 .71-.105.912-.19.163-.07.283-.12.564-.12.28 0 .4.05.568.12.202.085.453.19.91.19.378 0 .613-.07.798-.143h1.366c.184.072.42.143.797.143.377 0 .613-.07.797-.143h1.366c.184.072.42.143.797.143.377 0 .612-.07.797-.143h1.366c.184.072.42.143.797.143.377 0 .613-.07.797-.143h1.365c.184.072.42.143.797.143.377 0 .612-.07.797-.143h1.36c.185.072.42.143.798.143.42 0 .665-.088.86-.167v3.052c0 .28.21.506.47.506h2.56c.26 0 .47-.223.47-.503v-.046c-.006-1.226-.165-2.235-.404-3.064.13-.05.252-.085.483-.085.28 0 .4.05.567.12.202.087.453.19.91.19.46 0 .71-.103.913-.19.17-.07.29-.12.57-.12.28 0 .4.05.57.12.2.087.452.19.91.19.26 0 .473-.224.473-.504 0-.162-.072-.304-.182-.397zM8.15 92.515c-.175 0-.318.146-.326.33v1.076h.65v-1.07c-.01-.185-.15-.332-.326-.332zm-3.325 0c-.174 0-.317.146-.325.33v1.076h.648v-1.07c-.008-.185-.15-.332-.325-.332zm1.662 0c-.174 0-.317.146-.325.33v1.076h.65v-1.07c-.008-.185-.15-.332-.325-.332zm1.662 2.692c-.177 0-.32.147-.328.332v1.07h.65v-1.07c-.01-.187-.15-.334-.326-.334zm-3.327 0c-.174 0-.317.147-.325.332v1.07h.647v-1.07c-.008-.187-.15-.334-.325-.334zm1.662 0c-.174 0-.317.147-.325.332v1.07h.65v-1.07c-.007-.187-.15-.334-.324-.334zm20.788-2.693c-.174 0-.317.147-.325.332v1.075h.647v-1.07c-.008-.185-.15-.332-.325-.332zm-3.324 0c-.174 0-.317.147-.325.332v1.075h.65v-1.07c-.01-.185-.15-.332-.326-.332zm1.662 0c-.174 0-.317.147-.325.332v1.075h.65v-1.07c-.01-.185-.15-.332-.326-.332zm1.662 2.693c-.174 0-.317.147-.325.332v1.07h.647v-1.07c-.008-.187-.15-.334-.325-.334zm-3.324 0c-.172 0-.315.147-.323.332v1.07h.65v-1.07c-.01-.187-.15-.334-.326-.334zm1.664 0c-.174 0-.317.147-.325.332v1.07h.65v-1.07c-.01-.187-.15-.334-.328-.334zm-23.384 6.02v-.092l.053-.017c.127-.04.233-.133.292-.26l.59-1.263c.033-.07.05-.148.05-.226v-.34l.164-.14.1-.12.19-.318c.05-.082.073-.177.073-.274v-6.205h5.512v6.25c0 .097.026.192.075.274l.09.146.073.122.102.12.164.14v.34c0 .077.015.154.05.224l.59 1.262c.06.127.163.22.29.26l.054.016v.388h-8.52v-.293zm1.516-10.682h5.512v.42H3.745v-.42zm7.084 6.733h1.312c.26 0 .472-.226.472-.506v-.51h.217v4.966h-1.14v-.474c0-.226-.14-.424-.34-.486l-.196-.06-.446-.958v-.463c0-.154-.065-.3-.178-.395l-.28-.24-.046-.073V96.26h.157v.51c0 .278.21.505.474.505zm2.946-2.027v-.62h4.28v7.106h-.676V99.14c-.037-.82-.666-1.465-1.435-1.465-.77 0-1.398.644-1.434 1.466v2.596h-.732V95.25zm3.162-3.09l1.342 1.46h-4.544l1.276-1.39.145-.07h1.782zm2.752 5.12h1.314c.26 0 .472-.226.472-.506v-.508h.45v1.77l-.07.118-.282.24c-.112.096-.178.24-.178.395v.462l-.447.96-.2.06c-.204.06-.34.26-.34.485v.474H19v-4.97h.218v.51c0 .28.21.507.472.507zm3.18-6.733h5.513v.42H22.87v-.42zm-7.413 11.188V99.18c.017-.277.23-.49.49-.49s.473.213.49.49v2.664h-.98v-.108zm14.416-.506v.293h-4.068l-.194-.293c-.45-.65-.904-1.02-1.162-1.198v-1.31c0-.278-.21-.505-.472-.505s-.472.226-.472.506v2.8H21.36v-.385l.053-.017c.127-.04.233-.13.29-.26l.59-1.26c.035-.07.05-.15.05-.227v-.34l.166-.14.1-.12.19-.315c.05-.082.075-.177.075-.274V91.98h5.513v6.25c0 .096.026.19.075.273l.16.267.103.12.165.14v.34c0 .08.018.156.05.226l.59 1.263c.06.125.166.22.293.26l.054.014v.092zm-5.428 2.07v-1.98l.18.2c.118.145.242.31.365.508.095.15.19.317.28.502l.003.002c.073.147.143.306.21.477l.022.055.067.183.105.322c.193.647.333 1.433.37 2.382h-1.6V103.3zm1.17-18.092l3.125 4.326h-6.252l3.126-4.326zm-19.126 0l3.122 4.326h-6.25l3.125-4.326zm9.78 11.64v-.935l-.044-.155c-.057-.105-.16-.176-.282-.176-.12 0-.225.07-.28.177l-.045.155v1.075h.65v-.14m13.66 11.48c-.46 0-.71.106-.91.19-.17.07-.29.12-.57.12-.25 0-.37-.04-.51-.097.494-.343.642-.696.67-.77.053-.155.034-.33-.054-.467s-.233-.22-.39-.22H21.6c-.155 0-.3.083-.39.22-.087.137-.107.312-.05.467.02.06.133.334.48.63-.15-.04-.336-.073-.582-.073-.46 0-.71.105-.912.19-.167.07-.287.12-.568.12-.26 0-.472.225-.472.505s.21.506.472.506c.46 0 .71-.104.91-.19.168-.07.288-.12.57-.12.28 0 .4.05.567.12.202.086.453.19.91.19.46 0 .71-.104.912-.19.167-.07.287-.12.568-.12.28 0 .4.05.568.12.203.086.454.19.912.19.46 0 .71-.104.91-.19.168-.07.288-.12.57-.12.28 0 .4.05.567.12.2.086.452.19.91.19.46 0 .71-.104.912-.19.167-.07.287-.12.568-.12.26 0 .472-.224.472-.504 0-.278-.21-.505-.472-.505zm-5.048-.072c-.664 0-1.178-.065-1.575-.16h3.15c-.398.094-.912.16-1.576.16z" fill="#fff"/><path d="M16.45 64.6c-.28 0-.4-.05-.568-.12-.202-.085-.453-.19-.91-.19-.46 0-.71.104-.913.188-.17.07-.29.12-.57.12-.28 0-.4-.05-.57-.12-.2-.084-.453-.19-.91-.19-.46 0-.71.105-.91.19-.168.07-.288.12-.57.12-.28 0-.4-.05-.567-.12-.202-.084-.453-.19-.91-.19-.46 0-.71.106-.912.19-.166.07-.286.12-.567.12-.28 0-.4-.05-.568-.12-.202-.083-.453-.19-.91-.19-.46 0-.71.106-.912.19-.167.07-.287.12-.568.12-.26 0-.472.227-.472.507s.21.506.472.506c.46 0 .71-.1.91-.185.168-.07.288-.12.57-.12.28 0 .4.05.567.12.202.084.453.19.91.19.46 0 .71-.106.912-.19.167-.07.287-.12.568-.12.28 0 .4.05.568.12.203.084.454.19.91.19.46 0 .71-.106.913-.19.167-.07.287-.12.568-.12.28 0 .4.05.57.12.2.084.453.19.91.19.46 0 .71-.106.91-.19.17-.07.29-.12.57-.12.28 0 .4.05.568.12.202.084.453.19.91.19.262 0 .473-.227.473-.507s-.21-.506-.47-.506m-5.014-16.97h3.45c.252 0 .495-.1.684-.278.22-.21.35-.51.35-.83l-.006-.095h1.64c.29 0 .568-.114.786-.32.257-.24.404-.59.404-.955s-.147-.712-.403-.954c-.215-.206-.494-.32-.783-.32H12.7c-.657 0-1.19.573-1.19 1.275l.026.264h-.1c-.57 0-1.033.496-1.033 1.107 0 .612.464 1.11 1.034 1.11zm0-1.205H12.7c.26 0 .47-.226.47-.506s-.212-.506-.473-.506c-.135 0-.245-.118-.245-.263 0-.146.11-.264.245-.264h4.856c.076 0 .13.036.16.066.032.03.085.096.085.2 0 .1-.052.165-.084.194-.032.03-.086.066-.16.066H14.88c-.26 0-.472.226-.472.506s.21.506.472.506h.002l.06.025.03.07-.03.07-.06.026h-3.45c-.05 0-.09-.043-.09-.096 0-.053.04-.096.09-.096zm20.374 16.25c.06-.133.09-.28.09-.436 0-.56-.42-1.012-.942-1.012h-.143v-.474c0-.226-.14-.424-.342-.486l-.197-.06-.447-.958v-.464c0-.154-.067-.3-.18-.395l-.28-.24-.045-.07v-6.146c.166-.078.282-.256.282-.463 0-.21-.117-.385-.283-.464v-.462h.376c.26 0 .474-.226.474-.506 0-.13-.047-.25-.123-.34l-3.966-5.49v-1.452c0-.28-.21-.506-.472-.506s-.47.224-.47.504v1.45l-3.99 5.522c-.11.153-.13.36-.05.532.08.172.243.282.423.282h.402v.45c-.18.072-.31.256-.31.474 0 .218.13.402.31.473v3.307h-.923c-.26 0-.472.226-.472.506v.51h-.37v-.51c0-.28-.21-.506-.47-.506H19v-.606h.424c.19 0 .362-.122.435-.31.07-.19.03-.405-.1-.55l-2.067-2.244v-.918c0-.28-.21-.507-.472-.507s-.47.226-.47.505v.524h-1.38v-.525c0-.28-.21-.507-.473-.507s-.472.225-.472.504v.797l-2.17 2.365c-.132.145-.17.362-.098.55.074.188.245.31.435.31h.238v.606h-.69c-.26 0-.47.227-.47.507v.51h-.37v-.51c0-.28-.21-.507-.47-.507h-.63v-3.32c.167-.076.283-.254.283-.46 0-.207-.116-.384-.282-.463v-.462h.38c.26 0 .47-.225.47-.505 0-.13-.05-.25-.124-.34l-3.97-5.49v-1.45c0-.28-.21-.507-.47-.507s-.473.226-.473.506v1.45l-3.99 5.52c-.11.152-.13.36-.05.53.078.174.243.284.423.284H2.8v.45c-.18.072-.31.256-.31.474 0 .217.128.4.31.472v6.09l-.073.118-.28.24c-.113.097-.18.24-.18.396v.463l-.446.956-.193.06c-.203.063-.342.262-.342.487v.474H.977c-.52 0-.944.454-.944 1.013l.027.24c-.05.08-.08.18-.08.284 0 .28.21.507.47.507.282 0 .402.05.57.12.2.085.452.19.91.19.46 0 .71-.105.91-.19.168-.07.288-.12.57-.12.28 0 .4.05.567.12.202.085.453.19.91.19.46 0 .71-.105.912-.19.163-.07.283-.12.564-.12.28 0 .4.05.568.12.202.085.453.19.91.19.378 0 .613-.07.798-.143h1.366c.184.072.42.143.797.143.377 0 .613-.07.797-.143h1.366c.184.072.42.143.797.143.377 0 .612-.07.797-.143h1.366c.184.072.42.143.797.143.377 0 .613-.07.797-.143h1.365c.184.072.42.143.797.143.377 0 .612-.07.797-.143h1.36c.185.072.42.143.798.143.42 0 .665-.088.86-.167v3.052c0 .28.21.506.47.506h2.56c.26 0 .47-.223.47-.503v-.046c-.006-1.226-.165-2.235-.404-3.064.13-.05.252-.085.483-.085.28 0 .4.05.567.12.202.087.453.19.91.19.46 0 .71-.103.913-.19.17-.07.29-.12.57-.12.28 0 .4.05.57.12.2.087.452.19.91.19.26 0 .473-.224.473-.504 0-.162-.072-.304-.182-.397zM8.15 52.515c-.175 0-.318.146-.326.33v1.076h.65v-1.07c-.01-.185-.15-.332-.326-.332zm-3.325 0c-.174 0-.317.146-.325.33v1.076h.648v-1.07c-.008-.185-.15-.332-.325-.332zm1.662 0c-.174 0-.317.146-.325.33v1.076h.65v-1.07c-.008-.185-.15-.332-.325-.332zm1.662 2.692c-.177 0-.32.147-.328.332v1.07h.65v-1.07c-.01-.187-.15-.334-.326-.334zm-3.327 0c-.174 0-.317.147-.325.332v1.07h.647v-1.07c-.008-.187-.15-.334-.325-.334zm1.662 0c-.174 0-.317.147-.325.332v1.07h.65v-1.07c-.007-.187-.15-.334-.324-.334zm20.788-2.693c-.174 0-.317.147-.325.332v1.075h.647v-1.07c-.008-.185-.15-.332-.325-.332zm-3.324 0c-.174 0-.317.147-.325.332v1.075h.65v-1.07c-.01-.185-.15-.332-.326-.332zm1.662 0c-.174 0-.317.147-.325.332v1.075h.65v-1.07c-.01-.185-.15-.332-.326-.332zm1.662 2.693c-.174 0-.317.147-.325.332v1.07h.647v-1.07c-.008-.187-.15-.334-.325-.334zm-3.324 0c-.172 0-.315.147-.323.332v1.07h.65v-1.07c-.01-.187-.15-.334-.326-.334zm1.664 0c-.174 0-.317.147-.325.332v1.07h.65v-1.07c-.01-.187-.15-.334-.328-.334zM2.23 61.227v-.092l.053-.017c.127-.04.233-.133.292-.26l.59-1.263c.033-.07.05-.148.05-.226v-.34l.164-.14.1-.12.19-.318c.05-.082.073-.177.073-.274v-6.205h5.512v6.25c0 .097.026.192.075.274l.09.146.073.122.102.12.164.14v.34c0 .077.015.154.05.224l.59 1.262c.06.127.163.22.29.26l.054.016v.388h-8.52v-.293zm1.516-10.682h5.512v.42H3.745v-.42zm7.084 6.733h1.312c.26 0 .472-.226.472-.506v-.51h.217v4.966h-1.14v-.474c0-.226-.14-.424-.34-.486l-.196-.06-.446-.958v-.463c0-.154-.065-.3-.178-.395l-.28-.24-.046-.073V56.26h.157v.51c0 .278.21.505.474.505zm2.946-2.027v-.62h4.28v7.106h-.676V59.14c-.037-.82-.666-1.465-1.435-1.465-.77 0-1.398.644-1.434 1.466v2.596h-.732V55.25zm3.162-3.09l1.342 1.46h-4.544l1.276-1.39.145-.07h1.782zm2.752 5.12h1.314c.26 0 .472-.226.472-.506v-.508h.45v1.77l-.07.118-.282.24c-.112.096-.178.24-.178.395v.462l-.447.96-.2.06c-.204.06-.34.26-.34.485v.474H19v-4.97h.218v.51c0 .28.21.507.472.507zm3.18-6.733h5.513v.42H22.87v-.42zm-7.413 11.188V59.18c.017-.277.23-.49.49-.49s.473.213.49.49v2.664h-.98v-.108zm14.416-.506v.293h-4.068l-.194-.293c-.45-.65-.904-1.02-1.162-1.198v-1.31c0-.278-.21-.505-.472-.505s-.472.226-.472.506v2.8H21.36v-.385l.053-.017c.127-.04.233-.13.29-.26l.59-1.26c.035-.07.05-.15.05-.227v-.34l.166-.14.1-.12.19-.315c.05-.082.075-.177.075-.274V51.98h5.513v6.25c0 .096.026.19.075.273l.16.267.103.12.165.14v.34c0 .08.018.156.05.226l.59 1.263c.06.125.166.22.293.26l.054.014v.092zm-5.428 2.07v-1.98l.18.2c.118.144.242.31.365.507.095.15.19.317.28.502h.003c.073.148.143.307.21.478l.022.056.067.183.105.322c.193.646.333 1.432.37 2.38h-1.6V63.3zm1.17-18.093l3.125 4.326h-6.252l3.126-4.326zm-19.126 0l3.122 4.326h-6.25l3.125-4.326zm9.78 11.64v-.935l-.044-.155c-.057-.105-.16-.176-.282-.176-.12 0-.225.07-.28.178l-.045.156v1.075h.65v-.14m13.66 11.48c-.46 0-.71.105-.91.19-.17.07-.29.12-.57.12-.25 0-.37-.04-.51-.098.494-.343.642-.696.67-.77.053-.155.034-.33-.054-.467s-.233-.22-.39-.22H21.6c-.155 0-.3.083-.39.22-.087.137-.107.312-.05.467.02.06.133.334.48.63-.15-.04-.336-.073-.582-.073-.46 0-.71.104-.912.19-.167.07-.287.12-.568.12-.26 0-.472.224-.472.504s.21.506.472.506c.46 0 .71-.105.91-.19.168-.07.288-.12.57-.12.28 0 .4.05.567.12.202.085.453.19.91.19.46 0 .71-.105.912-.19.167-.07.287-.12.568-.12.28 0 .4.05.568.12.203.085.454.19.912.19.46 0 .71-.105.91-.19.168-.07.288-.12.57-.12.28 0 .4.05.567.12.2.085.452.19.91.19.46 0 .71-.105.912-.19.167-.07.287-.12.568-.12.26 0 .472-.225.472-.505 0-.278-.21-.505-.472-.505zm-5.048-.073c-.664 0-1.178-.065-1.575-.16h3.15c-.398.094-.912.16-1.576.16z" fill="#67737B"/><path d="M16.45 24.6c-.28 0-.4-.05-.568-.12-.202-.085-.453-.19-.91-.19-.46 0-.71.104-.913.188-.17.07-.29.12-.57.12-.28 0-.4-.05-.57-.12-.2-.084-.453-.19-.91-.19-.46 0-.71.105-.91.19-.168.07-.288.12-.57.12-.28 0-.4-.05-.567-.12-.202-.084-.453-.19-.91-.19-.46 0-.71.106-.912.19-.166.07-.286.12-.567.12-.28 0-.4-.05-.568-.12-.202-.083-.453-.19-.91-.19-.46 0-.71.106-.912.19-.167.07-.287.12-.568.12-.26 0-.472.227-.472.507s.21.506.472.506c.46 0 .71-.1.91-.185.168-.07.288-.12.57-.12.28 0 .4.05.567.12.202.084.453.19.91.19.46 0 .71-.106.912-.19.167-.07.287-.12.568-.12.28 0 .4.05.568.12.203.084.454.19.91.19.46 0 .71-.106.913-.19.167-.07.287-.12.568-.12.28 0 .4.05.57.12.2.084.453.19.91.19.46 0 .71-.106.91-.19.17-.07.29-.12.57-.12.28 0 .4.05.568.12.202.084.453.19.91.19.262 0 .473-.227.473-.507s-.21-.506-.47-.506M11.435 7.628h3.45c.252 0 .495-.1.684-.277.223-.21.35-.51.35-.83l-.004-.095h1.64c.29 0 .568-.113.786-.32.255-.24.402-.59.402-.954s-.147-.712-.403-.954c-.22-.206-.5-.32-.79-.32h-4.855c-.656 0-1.19.573-1.19 1.275l.027.264h-.1c-.57 0-1.033.497-1.033 1.108 0 .614.464 1.11 1.034 1.11zm0-1.204H12.7c.26 0 .47-.226.47-.506s-.212-.506-.473-.506c-.135 0-.245-.116-.245-.26 0-.147.11-.265.245-.265h4.856c.076 0 .13.036.16.066.032.03.085.095.085.198 0 .1-.052.167-.084.196-.032.03-.086.066-.16.066H14.88c-.26 0-.472.226-.472.506s.21.506.472.506h.002l.06.026.03.072-.03.072-.06.025h-3.45c-.05 0-.09-.044-.09-.097 0-.052.04-.095.09-.095zm20.374 16.25c.06-.133.093-.28.093-.436 0-.56-.42-1.012-.94-1.012h-.143v-.474c0-.224-.14-.422-.342-.484l-.197-.06-.447-.958v-.463c0-.154-.066-.3-.18-.395l-.28-.24-.044-.074V11.93c.166-.077.282-.255.282-.462 0-.208-.116-.385-.282-.464v-.462h.376c.26 0 .475-.226.475-.506 0-.13-.047-.25-.123-.34l-3.967-5.49v-1.45c0-.28-.21-.507-.472-.507s-.47.223-.47.503v1.45L21.15 9.73c-.11.153-.13.36-.05.532.078.173.243.283.423.283h.402v.45c-.18.072-.31.256-.31.474 0 .215.13.4.31.47v3.31h-.923c-.26 0-.472.224-.472.504v.51h-.37v-.51c0-.28-.21-.506-.472-.506h-.69v-.607h.425c.19 0 .362-.122.435-.31.073-.19.034-.405-.1-.55l-2.064-2.244v-.92c0-.28-.21-.506-.472-.506s-.472.227-.472.506v.524h-1.38v-.525c0-.28-.212-.508-.473-.508s-.472.226-.472.505v.797l-2.17 2.364c-.132.145-.17.362-.098.55.074.188.245.31.435.31h.238v.606h-.69c-.26 0-.47.226-.47.506v.51h-.37v-.51c0-.28-.21-.507-.472-.507H10.2v-3.32c.166-.078.282-.256.282-.463 0-.206-.116-.383-.282-.462v-.46h.377c.26 0 .472-.226.472-.506 0-.13-.05-.25-.127-.34L6.955 4.2V2.75c0-.28-.21-.507-.472-.507s-.472.226-.472.506V4.2L2.02 9.72c-.11.154-.13.36-.05.533.08.173.244.283.424.283H2.8v.45c-.18.07-.31.254-.31.472 0 .218.128.402.31.473v6.09l-.073.12-.28.24c-.113.095-.18.24-.18.394v.462l-.446.958-.193.06c-.203.063-.342.262-.342.487v.475H.977c-.52 0-.944.454-.944 1.013l.027.238c-.05.083-.08.18-.08.286 0 .28.21.506.47.506.282 0 .402.05.57.12.2.085.452.19.91.19.46 0 .71-.105.91-.19.168-.07.288-.12.57-.12.28 0 .4.05.567.12.202.085.453.19.91.19.46 0 .71-.105.912-.19.163-.07.283-.12.564-.12.28 0 .4.05.568.12.202.085.453.19.91.19.378 0 .613-.07.798-.143h1.366c.184.07.42.142.797.142.377 0 .613-.07.797-.143h1.366c.184.07.42.142.797.142.377 0 .612-.07.797-.143h1.366c.184.07.42.142.797.142.377 0 .613-.07.797-.143h1.365c.184.07.42.142.797.142.377 0 .612-.07.797-.143h1.36c.185.07.42.143.798.143.42 0 .665-.088.86-.167v3.052c0 .28.21.506.47.506h2.56c.26 0 .47-.225.47-.505V26.4c-.006-1.225-.165-2.234-.404-3.063.13-.05.252-.087.483-.087.28 0 .4.05.567.12.202.086.453.19.91.19.46 0 .71-.104.913-.19.17-.07.29-.12.57-.12.28 0 .4.05.57.12.2.086.452.19.91.19.26 0 .473-.225.473-.505 0-.162-.072-.304-.182-.397zm-23.66-10.16c-.174 0-.317.147-.325.332v1.075h.65v-1.073c-.01-.185-.15-.332-.326-.332zm-3.324 0c-.174 0-.317.147-.325.332v1.075h.646v-1.073c-.008-.185-.15-.332-.325-.332zm1.662 0c-.174 0-.317.147-.325.332v1.075h.65v-1.073c-.006-.185-.15-.332-.323-.332zm1.662 2.693c-.174 0-.317.147-.325.332v1.072h.65v-1.07c-.01-.185-.15-.332-.326-.332zm-3.324 0c-.174 0-.317.147-.325.332v1.072h.646v-1.07c-.008-.185-.15-.332-.325-.332zm1.662 0c-.174 0-.317.147-.325.332v1.072h.65v-1.07c-.006-.185-.15-.332-.323-.332zm20.788-2.693c-.174 0-.317.147-.325.332v1.075h.646v-1.073c-.008-.185-.15-.332-.325-.332zm-3.324 0c-.175 0-.318.147-.326.332v1.075h.65v-1.073c-.01-.185-.15-.332-.326-.332zm1.66 0c-.173 0-.316.147-.324.332v1.075h.65v-1.073c-.01-.185-.15-.332-.326-.332zm1.663 2.693c-.174 0-.317.147-.325.332v1.072h.648v-1.07c-.008-.185-.15-.332-.325-.332zm-3.324 0c-.177 0-.32.147-.328.332v1.072h.65v-1.07c-.01-.185-.15-.332-.326-.332zm1.66 0c-.175 0-.318.147-.326.332v1.072h.65v-1.07c-.01-.185-.15-.332-.326-.332zm-23.385 6.02v-.092l.054-.017c.127-.04.233-.133.292-.26l.59-1.263c.033-.07.05-.148.05-.226v-.34l.164-.14.102-.12.19-.316c.046-.082.072-.177.072-.274v-6.206h5.512v6.25c0 .097.026.192.075.274l.09.146.07.122.103.12.164.14v.34c0 .078.017.155.05.225l.59 1.265c.06.127.165.22.292.26l.053.016v.388H2.225v-.294zm1.517-10.682h5.512v.42h-5.51v-.42zm7.084 6.733h1.312c.26 0 .47-.226.47-.506v-.51h.218v4.968h-1.14v-.474c0-.226-.14-.424-.343-.486l-.197-.06-.446-.958v-.464c0-.154-.065-.3-.178-.395l-.28-.24-.045-.07v-1.816h.157v.51c0 .278.21.505.472.505zm2.946-2.027v-.62h4.28v7.104h-.676V19.14c-.037-.82-.666-1.465-1.435-1.465-.77 0-1.397.644-1.433 1.466v2.596h-.736V15.25zm3.162-3.09l1.342 1.457h-4.544l1.276-1.39.144-.068h1.782zm2.752 5.12H21c.26 0 .473-.228.473-.508v-.506h.45v1.77l-.07.118-.282.24c-.11.097-.176.24-.176.396v.463l-.447.958-.198.06c-.205.063-.344.26-.344.487v.474H19v-4.97h.218v.51c0 .28.21.506.472.506zm3.18-6.735h5.513v.42h-5.51v-.42zm-7.413 11.188v-2.556c.017-.276.23-.49.49-.49s.473.214.49.49v2.665h-.98v-.106zm14.416-.506v.294H25.8l-.194-.293c-.456-.65-.91-1.02-1.167-1.197v-1.31c0-.28-.21-.507-.47-.507s-.47.226-.47.506v2.8h-2.147v-.388l.054-.017c.125-.04.23-.133.29-.26l.59-1.263c.033-.07.05-.148.05-.226v-.34l.164-.14.103-.12.19-.314c.048-.082.074-.177.074-.274v-6.206h5.513v6.25c0 .097.027.192.076.274l.16.266.103.12.164.14v.34c0 .08.017.156.05.226l.59 1.263c.06.128.165.22.292.26l.054.017v.092zM24.44 23.3v-1.98l.18.2c.118.144.242.31.365.507.095.15.19.317.28.502l.003.003c.075.147.145.306.21.477l.024.055.067.183.107.322c.193.647.333 1.433.37 2.382h-1.6V23.3zm1.17-18.093l3.125 4.326h-6.252l3.126-4.326zm-19.126 0L9.61 9.533H3.36l3.13-4.327zm9.783 11.64v-.935l-.045-.153c-.057-.106-.16-.177-.282-.177-.12 0-.225.07-.28.176l-.045.155v1.076h.65v-.14m13.656 11.48c-.458 0-.71.107-.91.19-.168.07-.288.12-.57.12-.247 0-.37-.04-.51-.096.496-.344.644-.697.67-.77.055-.156.036-.33-.052-.47s-.233-.22-.39-.22H21.6c-.155 0-.3.085-.39.22-.087.14-.107.314-.05.47.02.06.133.334.48.63-.15-.04-.336-.073-.582-.073-.46 0-.71.106-.912.19-.167.07-.287.12-.568.12-.26 0-.472.226-.472.506s.21.507.472.507c.46 0 .71-.106.91-.19.168-.07.288-.12.57-.12.28 0 .4.05.567.12.202.084.453.19.91.19.46 0 .71-.106.912-.19.167-.07.287-.12.568-.12.28 0 .4.05.568.12.203.084.454.19.912.19.46 0 .71-.106.91-.19.168-.07.288-.12.57-.12.28 0 .4.05.567.12.2.084.452.19.91.19.46 0 .71-.106.912-.19.167-.07.287-.12.568-.12.26 0 .472-.226.472-.506 0-.278-.21-.505-.472-.505zm-5.046-.07c-.663 0-1.177-.066-1.574-.16h3.15c-.398.093-.912.16-1.576.16z" fill="#3A434E"/></g></svg>