<svg width="32" height="232" viewBox="0 0 32 232" xmlns="http://www.w3.org/2000/svg" xmlns:sketch="http://www.bohemiancoding.com/sketch/ns"><title>lithuania</title><desc>Created with Sketch.</desc><g sketch:type="MSPage" fill="none"><g sketch:type="MSShapeGroup"><path d="M16.45 144.599c-.281 0-.401-.05-.568-.12-.202-.084-.453-.19-.911-.19-.459 0-.71.105-.912.189-.167.07-.287.12-.568.12-.281 0-.401-.05-.568-.12-.202-.084-.453-.19-.911-.19-.459 0-.71.105-.911.19-.167.069-.287.12-.568.12-.281 0-.401-.05-.568-.12-.202-.084-.453-.189-.911-.189-.459 0-.71.105-.911.19-.167.069-.287.12-.568.12-.281 0-.401-.05-.568-.12-.202-.084-.453-.19-.911-.19-.459 0-.71.105-.911.19-.167.069-.287.12-.568.12-.261 0-.472.226-.472.506 0 .279.211.506.472.506.459 0 .71-.105.911-.189.167-.07.287-.12.568-.12.281 0 .401.05.568.12.202.084.453.189.911.189.459 0 .71-.105.911-.189.167-.07.287-.12.568-.12.281 0 .401.05.568.12.202.084.453.189.911.189.459 0 .71-.105.911-.189.167-.07.287-.12.568-.12.281 0 .401.05.568.12.202.084.453.189.911.189.459 0 .71-.105.911-.189.167-.07.287-.12.568-.12.281 0 .401.05.568.12.202.084.453.189.911.189.261 0 .472-.226.472-.506 0-.279-.211-.506-.472-.506m-5.015-16.971h3.451c.251 0 .494-.099.683-.277.223-.211.351-.513.351-.831l-.005-.096h1.64c.289 0 .568-.113.786-.319.256-.242.403-.59.403-.955s-.147-.713-.403-.955c-.218-.206-.497-.319-.786-.319h-4.856c-.656 0-1.189.572-1.189 1.274l.026.263h-.099c-.57 0-1.034.497-1.034 1.108 0 .611.464 1.108 1.034 1.108zm0-1.204h1.265c.261 0 .472-.226.472-.506h-.002c0-.279-.211-.506-.472-.506-.135 0-.245-.118-.245-.263 0-.145.11-.263.245-.263h4.856c.076 0 .129.036.161.066.031.03.084.094.084.197 0 .102-.052.167-.084.196-.032.03-.086.066-.161.066h-2.671c-.261 0-.472.226-.472.506 0 .279.211.506.472.506h.002l.059.025.031.072-.031.072-.059.025h-3.451c-.049 0-.09-.043-.09-.096 0-.053.04-.096.09-.096zm20.374 16.249c.059-.132.093-.279.093-.435 0-.559-.423-1.012-.944-1.012h-.142v-.474c0-.226-.14-.424-.342-.486l-.197-.06-.447-.958v-.463c0-.154-.065-.299-.178-.395l-.281-.24-.044-.073v-6.145c.166-.078.282-.256.282-.463 0-.207-.116-.384-.282-.463v-.462h.376c.261 0 .473-.226.473-.506 0-.131-.047-.251-.123-.341l-3.968-5.49v-1.451c0-.279-.211-.506-.472-.506s-.472.226-.472.506v1.451l-3.99 5.521c-.11.153-.13.359-.051.532.079.173.244.283.424.283h.402v.451c-.181.071-.31.255-.31.473 0 .218.129.402.31.473v3.308h-.923c-.261 0-.472.226-.472.506v.509h-.37v-.509c0-.279-.211-.506-.472-.506h-.689v-.606h.424c.19 0 .362-.123.435-.311.073-.188.034-.405-.099-.55l-2.065-2.244v-.918c0-.279-.211-.506-.472-.506s-.472.227-.472.506v.525h-1.381v-.525c0-.279-.211-.506-.472-.506s-.472.227-.472.506v.798l-2.169 2.365c-.133.145-.172.362-.099.55.074.188.245.31.435.31h.238v.606h-.689c-.261 0-.472.226-.472.506v.509h-.369v-.509c0-.279-.211-.506-.472-.506h-.628v-3.319c.166-.078.282-.256.282-.463 0-.207-.116-.384-.282-.463v-.462h.377c.261 0 .472-.226.472-.506 0-.131-.047-.251-.123-.341l-3.968-5.49v-1.451c0-.279-.211-.506-.472-.506s-.472.226-.472.506v1.451l-3.99 5.521c-.11.153-.13.359-.051.532.079.173.244.283.424.283h.402v.451c-.18.071-.31.255-.31.473 0 .218.129.402.31.473v6.089l-.072.119-.281.24c-.112.096-.178.241-.178.395v.463l-.447.958-.197.06c-.203.062-.342.261-.342.486v.474h-.305c-.521 0-.944.453-.944 1.012l.027.238c-.051.081-.081.179-.081.284 0 .279.211.506.472.506.281 0 .401.05.568.12.202.084.453.189.911.189.459 0 .71-.105.911-.189.167-.07.287-.12.568-.12.281 0 .401.05.568.12.202.084.453.189.911.189.459 0 .71-.105.911-.189.167-.07.287-.12.568-.12.281 0 .401.05.568.12.202.084.453.189.911.189.377 0 .612-.071.797-.143h1.365c.184.072.42.143.797.143.377 0 .613-.071.797-.143h1.365c.184.072.42.143.797.143.377 0 .612-.071.797-.143h1.365c.184.072.42.143.797.143.377 0 .613-.071.797-.143h1.365c.184.072.42.143.797.143.377 0 .612-.071.797-.143h1.365c.184.072.42.143.797.143.42 0 .665-.088.858-.167v3.052c0 .279.211.506.472.506h2.558c.261 0 .472-.226.472-.506l-.002-.046c-.004-1.225-.163-2.234-.402-3.063.129-.051.252-.085.483-.085.281 0 .401.05.568.12.202.084.453.189.911.189.459 0 .71-.105.912-.189.167-.07.287-.12.568-.12.281 0 .402.05.569.12.202.084.453.189.912.189.261 0 .472-.226.472-.506 0-.162-.072-.304-.182-.397zm-23.66-10.159c-.174 0-.317.147-.325.332v1.075h.649v-1.075c-.008-.185-.15-.332-.325-.332zm-3.324 0c-.174 0-.317.147-.325.332v1.075h.649v-1.075c-.008-.185-.15-.332-.325-.332zm1.662 0c-.174 0-.317.147-.325.332v1.075h.649v-1.075c-.008-.185-.15-.332-.325-.332zm1.662 2.693c-.174 0-.317.147-.325.332v1.074h.649v-1.074c-.008-.185-.15-.332-.325-.332zm-3.324 0c-.174 0-.317.147-.325.332v1.074h.649v-1.074c-.008-.185-.15-.332-.325-.332zm1.662 0c-.174 0-.317.147-.325.332v1.074h.649v-1.074c-.008-.185-.15-.332-.325-.332zm20.788-2.693c-.174 0-.317.147-.325.332v1.075h.649v-1.075c-.008-.185-.15-.332-.325-.332zm-3.324 0c-.174 0-.317.147-.325.332v1.075h.649v-1.075c-.008-.185-.15-.332-.325-.332zm1.662 0c-.174 0-.317.147-.325.332v1.075h.649v-1.075c-.008-.185-.15-.332-.325-.332zm1.662 2.693c-.174 0-.317.147-.325.332v1.074h.649v-1.074c-.008-.185-.15-.332-.325-.332zm-3.324 0c-.174 0-.317.147-.325.332v1.074h.649v-1.074c-.008-.185-.15-.332-.325-.332zm1.662 0c-.174 0-.317.147-.325.332v1.074h.649v-1.074c-.008-.185-.15-.332-.325-.332zm-23.384 6.02v-.092l.054-.017c.127-.039.233-.133.292-.26l.59-1.263c.033-.07.05-.148.05-.226v-.339l.164-.14.102-.121.189-.314c.049-.082.075-.177.075-.274v-6.205h5.512v6.25c0 .097.026.192.075.274l.088.147.073.122.102.121.164.14v.339c0 .079.017.156.05.226l.59 1.263c.059.127.165.221.292.26l.054.016v.387h-8.518v-.294zm1.517-10.682h5.512v.419h-5.512v-.419zm7.084 6.733h1.313c.261 0 .472-.226.472-.506v-.509h.217v4.965h-1.141v-.474c0-.226-.14-.424-.342-.486l-.197-.06-.447-.958v-.463c0-.154-.065-.299-.178-.395l-.281-.24-.044-.073v-1.814h.156v.509c0 .279.211.506.472.506zm2.947-2.027v-.623h4.28v7.105h-.676v-2.569l-.001-.023c-.036-.822-.665-1.466-1.434-1.466-.769 0-1.398.644-1.434 1.466v2.592h-.736v-6.482zm3.162-3.093l1.342 1.458h-4.544l1.276-1.391.145-.067h1.782zm2.752 5.119h1.314c.261 0 .472-.226.472-.506v-.509h.451v1.769l-.072.119-.281.24c-.112.096-.178.241-.178.395v.463l-.447.958-.197.06c-.203.062-.342.261-.342.486v.474h-1.409v-4.965h.217v.509c0 .279.211.506.472.506zm3.181-6.733h5.512v.419h-5.512v-.419zm-7.414 11.188v-2.556c.017-.276.23-.491.49-.491s.473.215.49.491v2.665h-.98v-.109zm14.416-.506v.294h-4.068l-.194-.294c-.455-.649-.908-1.019-1.166-1.197v-1.308c0-.279-.211-.506-.472-.506s-.472.226-.472.506v2.799h-2.146v-.386l.054-.017c.127-.039.233-.133.292-.26l.59-1.263c.033-.07.05-.148.05-.226v-.339l.164-.14.102-.121.189-.314c.049-.082.075-.177.075-.274v-6.205h5.512v6.25c0 .097.026.192.075.274l.161.268.102.121.164.14v.339c0 .079.017.156.05.226l.59 1.263c.059.127.165.221.292.26l.054.016v.092zm-5.428 2.072v-1.979l.179.201c.119.143.243.311.366.506.095.15.189.317.281.502l.002.004c.073.147.143.306.21.477l.022.058.067.183.105.323c.193.647.333 1.433.371 2.382h-1.602v-2.656zm1.169-18.092l3.126 4.326h-6.252l3.126-4.326zm-19.125 0l3.126 4.326h-6.252l3.126-4.326zm9.784 11.639v-.934l-.044-.156c-.056-.105-.16-.176-.281-.176-.121 0-.225.071-.281.176l-.044.156v1.074h.649v-.141m13.659 11.482c-.459 0-.71.105-.912.189-.167.07-.287.12-.568.12-.248 0-.371-.039-.511-.097.496-.344.644-.697.67-.771.055-.155.036-.33-.052-.467s-.233-.219-.389-.219h-6.571c-.155 0-.301.082-.389.219-.088.137-.108.312-.052.467.022.062.134.335.481.63-.151-.041-.336-.072-.582-.072-.459 0-.71.105-.912.189-.167.07-.287.12-.568.12-.261 0-.472.226-.472.506s.211.506.472.506c.459 0 .71-.105.911-.189.167-.07.287-.12.568-.12.281 0 .401.05.568.12.202.084.453.189.911.189.459 0 .71-.105.911-.189.167-.07.287-.12.568-.12.281 0 .401.05.568.12.202.084.453.189.911.189.459 0 .71-.105.911-.189.167-.07.287-.12.568-.12.281 0 .401.05.568.12.202.084.453.189.911.189.459 0 .71-.105.912-.189.167-.07.287-.12.568-.12.261 0 .472-.226.472-.506 0-.279-.211-.506-.472-.506zm-5.047-.073c-.664 0-1.178-.065-1.575-.16h3.15c-.397.094-.911.16-1.575.16z" fill="#206FAC"/><path d="M16.45 104.599c-.281 0-.401-.05-.568-.12-.202-.084-.453-.19-.911-.19-.459 0-.71.105-.912.189-.167.07-.287.12-.568.12-.281 0-.401-.05-.568-.12-.202-.084-.453-.19-.911-.19-.459 0-.71.105-.911.19-.167.069-.287.12-.568.12-.281 0-.401-.05-.568-.12-.202-.084-.453-.189-.911-.189-.459 0-.71.105-.911.19-.167.069-.287.12-.568.12-.281 0-.401-.05-.568-.12-.202-.084-.453-.19-.911-.19-.459 0-.71.105-.911.19-.167.069-.287.12-.568.12-.261 0-.472.226-.472.506 0 .279.211.506.472.506.459 0 .71-.105.911-.189.167-.07.287-.12.568-.12.281 0 .401.05.568.12.202.084.453.189.911.189.459 0 .71-.105.911-.189.167-.07.287-.12.568-.12.281 0 .401.05.568.12.202.084.453.189.911.189.459 0 .71-.105.911-.189.167-.07.287-.12.568-.12.281 0 .401.05.568.12.202.084.453.189.911.189.459 0 .71-.105.911-.189.167-.07.287-.12.568-.12.281 0 .401.05.568.12.202.084.453.189.911.189.261 0 .472-.226.472-.506 0-.279-.211-.506-.472-.506m-5.015-16.971h3.451c.251 0 .494-.099.683-.277.223-.211.351-.513.351-.831l-.005-.096h1.64c.289 0 .568-.113.786-.319.256-.242.403-.59.403-.955s-.147-.713-.403-.955c-.218-.206-.497-.319-.786-.319h-4.856c-.656 0-1.189.572-1.189 1.274l.026.263h-.099c-.57 0-1.034.497-1.034 1.108 0 .611.464 1.108 1.034 1.108zm0-1.204h1.265c.261 0 .472-.226.472-.506h-.002c0-.279-.211-.506-.472-.506-.135 0-.245-.118-.245-.263 0-.145.11-.263.245-.263h4.856c.076 0 .129.036.161.066.031.03.084.094.084.197 0 .102-.052.167-.084.196-.032.03-.086.066-.161.066h-2.671c-.261 0-.472.226-.472.506 0 .279.211.506.472.506h.002l.059.025.031.072-.031.072-.059.025h-3.451c-.049 0-.09-.043-.09-.096 0-.053.04-.096.09-.096zm20.374 16.249c.059-.132.093-.279.093-.435 0-.559-.423-1.012-.944-1.012h-.142v-.474c0-.226-.14-.424-.342-.486l-.197-.06-.447-.958v-.463c0-.154-.065-.299-.178-.395l-.281-.24-.044-.073v-6.145c.166-.078.282-.256.282-.463 0-.207-.116-.384-.282-.463v-.462h.376c.261 0 .473-.226.473-.506 0-.131-.047-.251-.123-.341l-3.968-5.49v-1.451c0-.279-.211-.506-.472-.506s-.472.226-.472.506v1.451l-3.99 5.521c-.11.153-.13.359-.051.532.079.173.244.283.424.283h.402v.451c-.181.071-.31.255-.31.473 0 .218.129.402.31.473v3.308h-.923c-.261 0-.472.226-.472.506v.509h-.37v-.509c0-.279-.211-.506-.472-.506h-.689v-.606h.424c.19 0 .362-.123.435-.311.073-.188.034-.405-.099-.55l-2.065-2.244v-.918c0-.279-.211-.506-.472-.506s-.472.227-.472.506v.525h-1.381v-.525c0-.279-.211-.506-.472-.506s-.472.227-.472.506v.798l-2.169 2.365c-.133.145-.172.362-.099.55.074.188.245.31.435.31h.238v.606h-.689c-.261 0-.472.226-.472.506v.509h-.369v-.509c0-.279-.211-.506-.472-.506h-.628v-3.319c.166-.078.282-.256.282-.463 0-.207-.116-.384-.282-.463v-.462h.377c.261 0 .472-.226.472-.506 0-.131-.047-.251-.123-.341l-3.968-5.49v-1.451c0-.279-.211-.506-.472-.506s-.472.226-.472.506v1.451l-3.99 5.521c-.11.153-.13.359-.051.532.079.173.244.283.424.283h.402v.451c-.18.071-.31.255-.31.473 0 .218.129.402.31.473v6.089l-.072.119-.281.24c-.112.096-.178.241-.178.395v.463l-.447.958-.197.06c-.203.062-.342.261-.342.486v.474h-.305c-.521 0-.944.453-.944 1.012l.027.238c-.051.081-.081.179-.081.284 0 .279.211.506.472.506.281 0 .401.05.568.12.202.084.453.189.911.189.459 0 .71-.105.911-.189.167-.07.287-.12.568-.12.281 0 .401.05.568.12.202.084.453.189.911.189.459 0 .71-.105.911-.189.167-.07.287-.12.568-.12.281 0 .401.05.568.12.202.084.453.189.911.189.377 0 .612-.071.797-.143h1.365c.184.072.42.143.797.143.377 0 .613-.071.797-.143h1.365c.184.072.42.143.797.143.377 0 .612-.071.797-.143h1.365c.184.072.42.143.797.143.377 0 .613-.071.797-.143h1.365c.184.072.42.143.797.143.377 0 .612-.071.797-.143h1.365c.184.072.42.143.797.143.42 0 .665-.088.858-.167v3.052c0 .279.211.506.472.506h2.558c.261 0 .472-.226.472-.506l-.002-.046c-.004-1.225-.163-2.234-.402-3.063.129-.051.252-.085.483-.085.281 0 .401.05.568.12.202.084.453.189.911.189.459 0 .71-.105.912-.189.167-.07.287-.12.568-.12.281 0 .402.05.569.12.202.084.453.189.912.189.261 0 .472-.226.472-.506 0-.162-.072-.304-.182-.397zm-23.66-10.159c-.174 0-.317.147-.325.332v1.075h.649v-1.075c-.008-.185-.15-.332-.325-.332zm-3.324 0c-.174 0-.317.147-.325.332v1.075h.649v-1.075c-.008-.185-.15-.332-.325-.332zm1.662 0c-.174 0-.317.147-.325.332v1.075h.649v-1.075c-.008-.185-.15-.332-.325-.332zm1.662 2.693c-.174 0-.317.147-.325.332v1.074h.649v-1.074c-.008-.185-.15-.332-.325-.332zm-3.324 0c-.174 0-.317.147-.325.332v1.074h.649v-1.074c-.008-.185-.15-.332-.325-.332zm1.662 0c-.174 0-.317.147-.325.332v1.074h.649v-1.074c-.008-.185-.15-.332-.325-.332zm20.788-2.693c-.174 0-.317.147-.325.332v1.075h.649v-1.075c-.008-.185-.15-.332-.325-.332zm-3.324 0c-.174 0-.317.147-.325.332v1.075h.649v-1.075c-.008-.185-.15-.332-.325-.332zm1.662 0c-.174 0-.317.147-.325.332v1.075h.649v-1.075c-.008-.185-.15-.332-.325-.332zm1.662 2.693c-.174 0-.317.147-.325.332v1.074h.649v-1.074c-.008-.185-.15-.332-.325-.332zm-3.324 0c-.174 0-.317.147-.325.332v1.074h.649v-1.074c-.008-.185-.15-.332-.325-.332zm1.662 0c-.174 0-.317.147-.325.332v1.074h.649v-1.074c-.008-.185-.15-.332-.325-.332zm-23.384 6.02v-.092l.054-.017c.127-.039.233-.133.292-.26l.59-1.263c.033-.07.05-.148.05-.226v-.339l.164-.14.102-.121.189-.314c.049-.082.075-.177.075-.274v-6.205h5.512v6.25c0 .097.026.192.075.274l.088.147.073.122.102.121.164.14v.339c0 .079.017.156.05.226l.59 1.263c.059.127.165.221.292.26l.054.016v.387h-8.518v-.294zm1.517-10.682h5.512v.419h-5.512v-.419zm7.084 6.733h1.313c.261 0 .472-.226.472-.506v-.509h.217v4.965h-1.141v-.474c0-.226-.14-.424-.342-.486l-.197-.06-.447-.958v-.463c0-.154-.065-.299-.178-.395l-.281-.24-.044-.073v-1.814h.156v.509c0 .279.211.506.472.506zm2.947-2.027v-.623h4.28v7.105h-.676v-2.569l-.001-.023c-.036-.822-.665-1.466-1.434-1.466-.769 0-1.398.644-1.434 1.466v2.592h-.736v-6.482zm3.162-3.093l1.342 1.458h-4.544l1.276-1.391.145-.067h1.782zm2.752 5.119h1.314c.261 0 .472-.226.472-.506v-.509h.451v1.769l-.072.119-.281.24c-.112.096-.178.241-.178.395v.463l-.447.958-.197.06c-.203.062-.342.261-.342.486v.474h-1.409v-4.965h.217v.509c0 .279.211.506.472.506zm3.181-6.733h5.512v.419h-5.512v-.419zm-7.414 11.188v-2.556c.017-.276.23-.491.49-.491s.473.215.49.491v2.665h-.98v-.109zm14.416-.506v.294h-4.068l-.194-.294c-.455-.649-.908-1.019-1.166-1.197v-1.308c0-.279-.211-.506-.472-.506s-.472.226-.472.506v2.799h-2.146v-.386l.054-.017c.127-.039.233-.133.292-.26l.59-1.263c.033-.07.05-.148.05-.226v-.339l.164-.14.102-.121.189-.314c.049-.082.075-.177.075-.274v-6.205h5.512v6.25c0 .097.026.192.075.274l.161.268.102.121.164.14v.339c0 .079.017.156.05.226l.59 1.263c.059.127.165.221.292.26l.054.016v.092zm-5.428 2.072v-1.979l.179.201c.119.143.243.311.366.506.095.15.189.317.281.502l.002.004c.073.147.143.306.21.477l.022.058.067.183.105.323c.193.647.333 1.433.371 2.382h-1.602v-2.656zm1.169-18.092l3.126 4.326h-6.252l3.126-4.326zm-19.125 0l3.126 4.326h-6.252l3.126-4.326zm9.784 11.639v-.934l-.044-.156c-.056-.105-.16-.176-.281-.176-.121 0-.225.071-.281.176l-.044.156v1.074h.649v-.141m13.659 11.482c-.459 0-.71.105-.912.189-.167.07-.287.12-.568.12-.248 0-.371-.039-.511-.097.496-.344.644-.697.67-.771.055-.155.036-.33-.052-.467s-.233-.219-.389-.219h-6.571c-.155 0-.301.082-.389.219-.088.137-.108.312-.052.467.022.062.134.335.481.63-.151-.041-.336-.072-.582-.072-.459 0-.71.105-.912.189-.167.07-.287.12-.568.12-.261 0-.472.226-.472.506 0 .279.211.506.472.506.459 0 .71-.105.911-.189.167-.07.287-.12.568-.12.281 0 .401.05.568.12.202.084.453.189.911.189.459 0 .71-.105.911-.189.167-.07.287-.12.568-.12.281 0 .401.05.568.12.202.084.453.189.911.189.459 0 .71-.105.911-.189.167-.07.287-.12.568-.12.281 0 .401.05.568.12.202.084.453.189.911.189.459 0 .71-.105.912-.189.167-.07.287-.12.568-.12.261 0 .472-.226.472-.506 0-.279-.211-.506-.472-.506zm-5.047-.073c-.664 0-1.178-.065-1.575-.16h3.15c-.397.094-.911.16-1.575.16z" fill="#fff"/><path d="M16.45 64.599c-.281 0-.401-.05-.568-.12-.202-.084-.453-.19-.911-.19-.459 0-.71.105-.912.189-.167.07-.287.12-.568.12-.281 0-.401-.05-.568-.12-.202-.084-.453-.19-.911-.19-.459 0-.71.105-.911.19-.167.069-.287.12-.568.12-.281 0-.401-.05-.568-.12-.202-.084-.453-.189-.911-.189-.459 0-.71.105-.911.19-.167.069-.287.12-.568.12-.281 0-.401-.05-.568-.12-.202-.084-.453-.19-.911-.19-.459 0-.71.105-.911.19-.167.069-.287.12-.568.12-.261 0-.472.226-.472.506 0 .279.211.506.472.506.459 0 .71-.105.911-.189.167-.07.287-.12.568-.12.281 0 .401.05.568.12.202.084.453.189.911.189.459 0 .71-.105.911-.189.167-.07.287-.12.568-.12.281 0 .401.05.568.12.202.084.453.189.911.189.459 0 .71-.105.911-.189.167-.07.287-.12.568-.12.281 0 .401.05.568.12.202.084.453.189.911.189.459 0 .71-.105.911-.189.167-.07.287-.12.568-.12.281 0 .401.05.568.12.202.084.453.189.911.189.261 0 .472-.226.472-.506 0-.279-.211-.506-.472-.506m-5.015-16.971h3.451c.251 0 .494-.099.683-.277.223-.211.351-.513.351-.831l-.005-.096h1.64c.289 0 .568-.113.786-.319.256-.242.403-.59.403-.955s-.147-.713-.403-.955c-.218-.206-.497-.319-.786-.319h-4.856c-.656 0-1.189.572-1.189 1.274l.026.263h-.099c-.57 0-1.034.497-1.034 1.108 0 .611.464 1.108 1.034 1.108zm0-1.204h1.265c.261 0 .472-.226.472-.506h-.002c0-.279-.211-.506-.472-.506-.135 0-.245-.118-.245-.263 0-.145.11-.263.245-.263h4.856c.076 0 .129.036.161.066.031.03.084.094.084.197 0 .102-.052.167-.084.196-.032.03-.086.066-.161.066h-2.671c-.261 0-.472.226-.472.506 0 .279.211.506.472.506h.002l.059.025.031.072-.031.072-.059.025h-3.451c-.049 0-.09-.043-.09-.096 0-.053.04-.096.09-.096zm20.374 16.249c.059-.132.093-.279.093-.435 0-.559-.423-1.012-.944-1.012h-.142v-.474c0-.226-.14-.424-.342-.486l-.197-.06-.447-.958v-.463c0-.154-.065-.299-.178-.395l-.281-.24-.044-.073v-6.145c.166-.078.282-.256.282-.463 0-.207-.116-.384-.282-.463v-.462h.376c.261 0 .473-.226.473-.506 0-.131-.047-.251-.123-.341l-3.968-5.49v-1.451c0-.279-.211-.506-.472-.506s-.472.226-.472.506v1.451l-3.99 5.521c-.11.153-.13.359-.051.532.079.173.244.283.424.283h.402v.451c-.181.071-.31.255-.31.473 0 .218.129.402.31.473v3.308h-.923c-.261 0-.472.226-.472.506v.509h-.37v-.509c0-.279-.211-.506-.472-.506h-.689v-.606h.424c.19 0 .362-.123.435-.311.073-.188.034-.405-.099-.55l-2.065-2.244v-.918c0-.279-.211-.506-.472-.506s-.472.227-.472.506v.525h-1.381v-.525c0-.279-.211-.506-.472-.506s-.472.227-.472.506v.798l-2.169 2.365c-.133.145-.172.362-.099.55.074.188.245.31.435.31h.238v.606h-.689c-.261 0-.472.226-.472.506v.509h-.369v-.509c0-.279-.211-.506-.472-.506h-.628v-3.319c.166-.078.282-.256.282-.463 0-.207-.116-.384-.282-.463v-.462h.377c.261 0 .472-.226.472-.506 0-.131-.047-.251-.123-.341l-3.968-5.49v-1.451c0-.279-.211-.506-.472-.506s-.472.226-.472.506v1.451l-3.99 5.521c-.11.153-.13.359-.051.532.079.173.244.283.424.283h.402v.451c-.18.071-.31.255-.31.473 0 .218.129.402.31.473v6.089l-.072.119-.281.24c-.112.096-.178.241-.178.395v.463l-.447.958-.197.06c-.203.062-.342.261-.342.486v.474h-.305c-.521 0-.944.453-.944 1.012l.027.238c-.051.081-.081.179-.081.284 0 .279.211.506.472.506.281 0 .401.05.568.12.202.084.453.189.911.189.459 0 .71-.105.911-.189.167-.07.287-.12.568-.12.281 0 .401.05.568.12.202.084.453.189.911.189.459 0 .71-.105.911-.189.167-.07.287-.12.568-.12.281 0 .401.05.568.12.202.084.453.189.911.189.377 0 .612-.071.797-.143h1.365c.184.072.42.143.797.143.377 0 .613-.071.797-.143h1.365c.184.072.42.143.797.143.377 0 .612-.071.797-.143h1.365c.184.072.42.143.797.143.377 0 .613-.071.797-.143h1.365c.184.072.42.143.797.143.377 0 .612-.071.797-.143h1.365c.184.072.42.143.797.143.42 0 .665-.088.858-.167v3.052c0 .279.211.506.472.506h2.558c.261 0 .472-.226.472-.506l-.002-.046c-.004-1.225-.163-2.234-.402-3.063.129-.051.252-.085.483-.085.281 0 .401.05.568.12.202.084.453.189.911.189.459 0 .71-.105.912-.189.167-.07.287-.12.568-.12.281 0 .402.05.569.12.202.084.453.189.912.189.261 0 .472-.226.472-.506 0-.162-.072-.304-.182-.397zm-23.66-10.159c-.174 0-.317.147-.325.332v1.075h.649v-1.075c-.008-.185-.15-.332-.325-.332zm-3.324 0c-.174 0-.317.147-.325.332v1.075h.649v-1.075c-.008-.185-.15-.332-.325-.332zm1.662 0c-.174 0-.317.147-.325.332v1.075h.649v-1.075c-.008-.185-.15-.332-.325-.332zm1.662 2.693c-.174 0-.317.147-.325.332v1.074h.649v-1.074c-.008-.185-.15-.332-.325-.332zm-3.324 0c-.174 0-.317.147-.325.332v1.074h.649v-1.074c-.008-.185-.15-.332-.325-.332zm1.662 0c-.174 0-.317.147-.325.332v1.074h.649v-1.074c-.008-.185-.15-.332-.325-.332zm20.788-2.693c-.174 0-.317.147-.325.332v1.075h.649v-1.075c-.008-.185-.15-.332-.325-.332zm-3.324 0c-.174 0-.317.147-.325.332v1.075h.649v-1.075c-.008-.185-.15-.332-.325-.332zm1.662 0c-.174 0-.317.147-.325.332v1.075h.649v-1.075c-.008-.185-.15-.332-.325-.332zm1.662 2.693c-.174 0-.317.147-.325.332v1.074h.649v-1.074c-.008-.185-.15-.332-.325-.332zm-3.324 0c-.174 0-.317.147-.325.332v1.074h.649v-1.074c-.008-.185-.15-.332-.325-.332zm1.662 0c-.174 0-.317.147-.325.332v1.074h.649v-1.074c-.008-.185-.15-.332-.325-.332zm-23.384 6.02v-.092l.054-.017c.127-.039.233-.133.292-.26l.59-1.263c.033-.07.05-.148.05-.226v-.339l.164-.14.102-.121.189-.314c.049-.082.075-.177.075-.274v-6.205h5.512v6.25c0 .097.026.192.075.274l.088.147.073.122.102.121.164.14v.339c0 .079.017.156.05.226l.59 1.263c.059.127.165.221.292.26l.054.016v.387h-8.518v-.294zm1.517-10.682h5.512v.419h-5.512v-.419zm7.084 6.733h1.313c.261 0 .472-.226.472-.506v-.509h.217v4.965h-1.141v-.474c0-.226-.14-.424-.342-.486l-.197-.06-.447-.958v-.463c0-.154-.065-.299-.178-.395l-.281-.24-.044-.073v-1.814h.156v.509c0 .279.211.506.472.506zm2.947-2.027v-.623h4.28v7.105h-.676v-2.569l-.001-.023c-.036-.822-.665-1.466-1.434-1.466-.769 0-1.398.644-1.434 1.466v2.592h-.736v-6.482zm3.162-3.093l1.342 1.458h-4.544l1.276-1.391.145-.067h1.782zm2.752 5.119h1.314c.261 0 .472-.226.472-.506v-.509h.451v1.769l-.072.119-.281.24c-.112.096-.178.241-.178.395v.463l-.447.958-.197.06c-.203.062-.342.261-.342.486v.474h-1.409v-4.965h.217v.509c0 .279.211.506.472.506zm3.181-6.733h5.512v.419h-5.512v-.419zm-7.414 11.188v-2.556c.017-.276.23-.491.49-.491s.473.215.49.491v2.665h-.98v-.109zm14.416-.506v.294h-4.068l-.194-.294c-.455-.649-.908-1.019-1.166-1.197v-1.308c0-.279-.211-.506-.472-.506s-.472.226-.472.506v2.799h-2.146v-.386l.054-.017c.127-.039.233-.133.292-.26l.59-1.263c.033-.07.05-.148.05-.226v-.339l.164-.14.102-.121.189-.314c.049-.082.075-.177.075-.274v-6.205h5.512v6.25c0 .097.026.192.075.274l.161.268.102.121.164.14v.339c0 .079.017.156.05.226l.59 1.263c.059.127.165.221.292.26l.054.016v.092zm-5.428 2.072v-1.979l.179.201c.119.143.243.311.366.506.095.15.189.317.281.502l.002.004c.073.147.143.306.21.477l.022.058.067.183.105.323c.193.647.333 1.433.371 2.382h-1.602v-2.656zm1.169-18.092l3.126 4.326h-6.252l3.126-4.326zm-19.125 0l3.126 4.326h-6.252l3.126-4.326zm9.784 11.639v-.934l-.044-.156c-.056-.105-.16-.176-.281-.176-.121 0-.225.071-.281.176l-.044.156v1.074h.649v-.141m13.659 11.482c-.459 0-.71.105-.912.189-.167.07-.287.12-.568.12-.248 0-.371-.039-.511-.097.496-.344.644-.697.67-.771.055-.155.036-.33-.052-.467s-.233-.219-.389-.219h-6.571c-.155 0-.301.082-.389.219-.088.137-.108.312-.052.467.022.062.134.335.481.63-.151-.041-.336-.072-.582-.072-.459 0-.71.105-.912.189-.167.07-.287.12-.568.12-.261 0-.472.226-.472.506s.211.506.472.506c.459 0 .71-.105.911-.189.167-.07.287-.12.568-.12.281 0 .401.05.568.12.202.084.453.189.911.189.459 0 .71-.105.911-.189.167-.07.287-.12.568-.12.281 0 .401.05.568.12.202.084.453.189.911.189.459 0 .71-.105.911-.189.167-.07.287-.12.568-.12.281 0 .401.05.568.12.202.084.453.189.911.189.459 0 .71-.105.912-.189.167-.07.287-.12.568-.12.261 0 .472-.226.472-.506 0-.279-.211-.506-.472-.506zm-5.047-.073c-.664 0-1.178-.065-1.575-.16h3.15c-.397.094-.911.16-1.575.16z" fill="#67737B"/><path d="M16.45 24.599c-.281 0-.401-.05-.568-.12-.202-.084-.453-.19-.911-.19-.459 0-.71.105-.912.189-.167.07-.287.12-.568.12-.281 0-.401-.05-.568-.12-.202-.084-.453-.19-.911-.19-.459 0-.71.105-.911.19-.167.069-.287.12-.568.12-.281 0-.401-.05-.568-.12-.202-.084-.453-.189-.911-.189-.459 0-.71.105-.911.19-.167.069-.287.12-.568.12-.281 0-.401-.05-.568-.12-.202-.084-.453-.19-.911-.19-.459 0-.71.105-.911.19-.167.069-.287.12-.568.12-.261 0-.472.226-.472.506 0 .279.211.506.472.506.459 0 .71-.105.911-.189.167-.07.287-.12.568-.12.281 0 .401.05.568.12.202.084.453.189.911.189.459 0 .71-.105.911-.189.167-.07.287-.12.568-.12.281 0 .401.05.568.12.202.084.453.189.911.189.459 0 .71-.105.911-.189.167-.07.287-.12.568-.12.281 0 .401.05.568.12.202.084.453.189.911.189.459 0 .71-.105.911-.189.167-.07.287-.12.568-.12.281 0 .401.05.568.12.202.084.453.189.911.189.261 0 .472-.226.472-.506 0-.279-.211-.506-.472-.506m-5.015-16.971h3.451c.251 0 .494-.099.683-.277.223-.211.351-.513.351-.831l-.005-.096h1.64c.289 0 .568-.113.786-.319.256-.242.403-.59.403-.955s-.147-.713-.403-.955c-.218-.206-.497-.319-.786-.319h-4.856c-.656 0-1.189.572-1.189 1.274l.026.263h-.099c-.57 0-1.034.497-1.034 1.108 0 .611.464 1.108 1.034 1.108zm0-1.204h1.265c.261 0 .472-.226.472-.506h-.002c0-.279-.211-.506-.472-.506-.135 0-.245-.118-.245-.263 0-.145.11-.263.245-.263h4.856c.076 0 .129.036.161.066.031.03.084.094.084.197 0 .102-.052.167-.084.196-.032.03-.086.066-.161.066h-2.671c-.261 0-.472.226-.472.506 0 .279.211.506.472.506h.002l.059.025.031.072-.031.072-.059.025h-3.451c-.049 0-.09-.043-.09-.096 0-.053.04-.096.09-.096zm20.374 16.249c.059-.132.093-.279.093-.435 0-.559-.423-1.012-.944-1.012h-.142v-.474c0-.226-.14-.424-.342-.486l-.197-.06-.447-.958v-.463c0-.154-.065-.299-.178-.395l-.281-.24-.044-.073v-6.145c.166-.078.282-.256.282-.463 0-.207-.116-.384-.282-.463v-.462h.376c.261 0 .473-.226.473-.506 0-.131-.047-.251-.123-.341l-3.968-5.49v-1.451c0-.279-.211-.506-.472-.506s-.472.226-.472.506v1.451l-3.99 5.521c-.11.153-.13.359-.051.532.079.173.244.283.424.283h.402v.451c-.181.071-.31.255-.31.473 0 .218.129.402.31.473v3.308h-.923c-.261 0-.472.226-.472.506v.509h-.37v-.509c0-.279-.211-.506-.472-.506h-.689v-.606h.424c.19 0 .362-.123.435-.311.073-.188.034-.405-.099-.55l-2.065-2.244v-.918c0-.279-.211-.506-.472-.506s-.472.227-.472.506v.525h-1.381v-.525c0-.279-.211-.506-.472-.506s-.472.227-.472.506v.798l-2.169 2.365c-.133.145-.172.362-.099.55.074.188.245.31.435.31h.238v.606h-.689c-.261 0-.472.226-.472.506v.509h-.369v-.509c0-.279-.211-.506-.472-.506h-.628v-3.319c.166-.078.282-.256.282-.463 0-.207-.116-.384-.282-.463v-.462h.377c.261 0 .472-.226.472-.506 0-.131-.047-.251-.123-.341l-3.968-5.49v-1.451c0-.279-.211-.506-.472-.506s-.472.226-.472.506v1.451l-3.99 5.521c-.11.153-.13.359-.051.532.079.173.244.283.424.283h.402v.451c-.18.071-.31.255-.31.473 0 .218.129.402.31.473v6.089l-.072.119-.281.24c-.112.096-.178.241-.178.395v.463l-.447.958-.197.06c-.203.062-.342.261-.342.486v.474h-.305c-.521 0-.944.453-.944 1.012l.027.238c-.051.081-.081.179-.081.284 0 .279.211.506.472.506.281 0 .401.05.568.12.202.084.453.189.911.189.459 0 .71-.105.911-.189.167-.07.287-.12.568-.12.281 0 .401.05.568.12.202.084.453.189.911.189.459 0 .71-.105.911-.189.167-.07.287-.12.568-.12.281 0 .401.05.568.12.202.084.453.189.911.189.377 0 .612-.071.797-.143h1.365c.184.072.42.143.797.143.377 0 .613-.071.797-.143h1.365c.184.072.42.143.797.143.377 0 .612-.071.797-.143h1.365c.184.072.42.143.797.143.377 0 .613-.071.797-.143h1.365c.184.072.42.143.797.143.377 0 .612-.071.797-.143h1.365c.184.072.42.143.797.143.42 0 .665-.088.858-.167v3.052c0 .279.211.506.472.506h2.558c.261 0 .472-.226.472-.506l-.002-.046c-.004-1.225-.163-2.234-.402-3.063.129-.051.252-.085.483-.085.281 0 .401.05.568.12.202.084.453.189.911.189.459 0 .71-.105.912-.189.167-.07.287-.12.568-.12.281 0 .402.05.569.12.202.084.453.189.912.189.261 0 .472-.226.472-.506 0-.162-.072-.304-.182-.397zm-23.66-10.159c-.174 0-.317.147-.325.332v1.075h.649v-1.075c-.008-.185-.15-.332-.325-.332zm-3.324 0c-.174 0-.317.147-.325.332v1.075h.649v-1.075c-.008-.185-.15-.332-.325-.332zm1.662 0c-.174 0-.317.147-.325.332v1.075h.649v-1.075c-.008-.185-.15-.332-.325-.332zm1.662 2.693c-.174 0-.317.147-.325.332v1.074h.649v-1.074c-.008-.185-.15-.332-.325-.332zm-3.324 0c-.174 0-.317.147-.325.332v1.074h.649v-1.074c-.008-.185-.15-.332-.325-.332zm1.662 0c-.174 0-.317.147-.325.332v1.074h.649v-1.074c-.008-.185-.15-.332-.325-.332zm20.788-2.693c-.174 0-.317.147-.325.332v1.075h.649v-1.075c-.008-.185-.15-.332-.325-.332zm-3.324 0c-.174 0-.317.147-.325.332v1.075h.649v-1.075c-.008-.185-.15-.332-.325-.332zm1.662 0c-.174 0-.317.147-.325.332v1.075h.649v-1.075c-.008-.185-.15-.332-.325-.332zm1.662 2.693c-.174 0-.317.147-.325.332v1.074h.649v-1.074c-.008-.185-.15-.332-.325-.332zm-3.324 0c-.174 0-.317.147-.325.332v1.074h.649v-1.074c-.008-.185-.15-.332-.325-.332zm1.662 0c-.174 0-.317.147-.325.332v1.074h.649v-1.074c-.008-.185-.15-.332-.325-.332zm-23.384 6.02v-.092l.054-.017c.127-.039.233-.133.292-.26l.59-1.263c.033-.07.05-.148.05-.226v-.339l.164-.14.102-.121.189-.314c.049-.082.075-.177.075-.274v-6.205h5.512v6.25c0 .097.026.192.075.274l.088.147.073.122.102.121.164.14v.339c0 .079.017.156.05.226l.59 1.263c.059.127.165.221.292.26l.054.016v.387h-8.518v-.294zm1.517-10.682h5.512v.419h-5.512v-.419zm7.084 6.733h1.313c.261 0 .472-.226.472-.506v-.509h.217v4.965h-1.141v-.474c0-.226-.14-.424-.342-.486l-.197-.06-.447-.958v-.463c0-.154-.065-.299-.178-.395l-.281-.24-.044-.073v-1.814h.156v.509c0 .279.211.506.472.506zm2.947-2.027v-.623h4.28v7.105h-.676v-2.569l-.001-.023c-.036-.822-.665-1.466-1.434-1.466-.769 0-1.398.644-1.434 1.466v2.592h-.736v-6.482zm3.162-3.093l1.342 1.458h-4.544l1.276-1.391.145-.067h1.782zm2.752 5.119h1.314c.261 0 .472-.226.472-.506v-.509h.451v1.769l-.072.119-.281.24c-.112.096-.178.241-.178.395v.463l-.447.958-.197.06c-.203.062-.342.261-.342.486v.474h-1.409v-4.965h.217v.509c0 .279.211.506.472.506zm3.181-6.733h5.512v.419h-5.512v-.419zm-7.414 11.188v-2.556c.017-.276.23-.491.49-.491s.473.215.49.491v2.665h-.98v-.109zm14.416-.506v.294h-4.068l-.194-.294c-.455-.649-.908-1.019-1.166-1.197v-1.308c0-.279-.211-.506-.472-.506s-.472.226-.472.506v2.799h-2.146v-.386l.054-.017c.127-.039.233-.133.292-.26l.59-1.263c.033-.07.05-.148.05-.226v-.339l.164-.14.102-.121.189-.314c.049-.082.075-.177.075-.274v-6.205h5.512v6.25c0 .097.026.192.075.274l.161.268.102.121.164.14v.339c0 .079.017.156.05.226l.59 1.263c.059.127.165.221.292.26l.054.016v.092zm-5.428 2.072v-1.979l.179.201c.119.143.243.311.366.506.095.15.189.317.281.502l.002.004c.073.147.143.306.21.477l.022.058.067.183.105.323c.193.647.333 1.433.371 2.382h-1.602v-2.656zm1.169-18.092l3.126 4.326h-6.252l3.126-4.326zm-19.125 0l3.126 4.326h-6.252l3.126-4.326zm9.784 11.639v-.934l-.044-.156c-.056-.105-.16-.176-.281-.176-.121 0-.225.071-.281.176l-.044.156v1.074h.649v-.141m13.659 11.482c-.459 0-.71.105-.912.189-.167.07-.287.12-.568.12-.248 0-.371-.039-.511-.097.496-.344.644-.697.67-.771.055-.155.036-.33-.052-.467s-.233-.219-.389-.219h-6.571c-.155 0-.301.082-.389.219-.088.137-.108.312-.052.467.022.062.134.335.481.63-.151-.041-.336-.072-.582-.072-.459 0-.71.105-.912.189-.167.07-.287.12-.568.12-.261 0-.472.226-.472.506s.211.506.472.506c.459 0 .71-.105.911-.189.167-.07.287-.12.568-.12.281 0 .401.05.568.12.202.084.453.189.911.189.459 0 .71-.105.911-.189.167-.07.287-.12.568-.12.281 0 .401.05.568.12.202.084.453.189.911.189.459 0 .71-.105.911-.189.167-.07.287-.12.568-.12.281 0 .401.05.568.12.202.084.453.189.911.189.459 0 .71-.105.912-.189.167-.07.287-.12.568-.12.261 0 .472-.226.472-.506 0-.279-.211-.506-.472-.506zm-5.047-.073c-.664 0-1.178-.065-1.575-.16h3.15c-.397.094-.911.16-1.575.16z" fill="#3A434E"/></g></g></svg>
