<svg width="32" height="232" viewBox="0 0 32 232" xmlns="http://www.w3.org/2000/svg" xmlns:sketch="http://www.bohemiancoding.com/sketch/ns"><title>los-angeles</title><desc>Created with Sketch.</desc><g sketch:type="MSPage" fill="none"><g sketch:type="MSShapeGroup"><path d="M2.471 130.033c-.285 0-.517.239-.517.534v2.894c0 .294.232.533.517.533.286 0 .516-.239.516-.533v-.914h.405v.914c0 .294.231.533.516.533.285 0 .516-.239.516-.533v-2.894c0-.295-.231-.534-.516-.534-.286 0-.516.239-.516.534v.914h-.405v-.914c0-.295-.231-.534-.516-.534zm5.241-.461c-.285 0-.516.238-.516.533v2.894c0 .295.231.533.516.533l.033-.004.034.004h.589c.285 0 .517-.238.517-.533 0-.294-.232-.533-.517-.533h-.139v-2.361c0-.295-.231-.533-.517-.533zm1.791.154c-.285 0-.516.239-.516.534v2.893c0 .295.231.534.516.534l.033-.004.033.004h.589c.285 0 .516-.239.516-.534 0-.294-.231-.534-.516-.534h-.14v-2.359c0-.295-.231-.534-.516-.534zm-3.669 4.022c.644 0 1.169-.541 1.169-1.207v-1.608c0-.666-.525-1.207-1.169-1.207s-1.169.541-1.169 1.207v1.608c0 .665.524 1.207 1.169 1.207zm-.136-2.815c0-.078.061-.141.136-.141.075 0 .136.063.136.141v1.608c0 .077-.061.14-.136.14-.075 0-.136-.063-.136-.14v-1.608zm11.303 3.583c.644 0 1.169-.542 1.169-1.207v-1.608c0-.666-.524-1.207-1.169-1.207s-1.169.541-1.169 1.207v1.608c0 .665.524 1.207 1.169 1.207zm-.136-2.815c0-.077.061-.14.136-.14.075 0 .136.063.136.14v1.608c0 .077-.061.14-.136.14-.075 0-.136-.063-.136-.14v-1.608zm-5.479 2.293c.285 0 .516-.239.516-.533v-1.103l.602-1.597c.103-.275-.028-.584-.294-.691-.265-.107-.565.029-.668.303l-.156.413-.156-.413c-.103-.275-.403-.411-.669-.303-.266.106-.397.416-.294.691l.602 1.597v1.103c0 .294.231.533.516.533zm2.086.212l.059.004c.21 0 .403-.133.481-.339l.138-.366.139.366c.078.206.27.339.48.339l.059-.004c.233-.028.418-.214.452-.454l.413-2.956c.041-.292-.155-.562-.437-.604-.284-.042-.544.16-.585.452l-.145 1.036-.01-.009-.021-.019-.051-.042-.024-.017-.083-.043h-.001l-.022-.008-.051-.016-.043-.007-.033-.005h-.077l-.052.008-.024.004-.072.023-.003.001-.083.044-.023.016-.052.043-.02.019-.01.009-.145-1.036c-.041-.291-.302-.494-.584-.452-.283.042-.479.312-.438.604l.413 2.956c.033.239.219.425.452.454zm-9.812 3.922c.183.226.509.255.727.065.158-.136.357-.201.56-.182.141.013.272.064.383.147l.007.015c.084.188.267.308.468.308h.059c.2 0 .382-.12.468-.308l.007-.015c.112-.083.243-.135.383-.147.204-.018.404.046.56.182.218.19.544.161.728-.065.183-.225.155-.562-.064-.751-.368-.32-.834-.472-1.314-.429-.288.026-.559.121-.797.275-.238-.154-.509-.249-.797-.275-.481-.043-.946.11-1.314.429-.219.19-.247.527-.063.751zm27.311-.485h-4.414v-1.596c0-.349-.162-.658-.413-.852v-3.372l1.501.254 1.291 2.282c.066.116.173.203.299.242l1.159.354.147.021c.223 0 .429-.15.495-.382.081-.282-.075-.579-.348-.663l-.963-.293-1.309-2.316c-.078-.138-.211-.232-.362-.257l-1.909-.324v-4.885c0-.589-.462-1.067-1.032-1.067h-.768v-3.016c0-.295-.231-.533-.516-.533-.286 0-.516.238-.516.533v3.016h-.772v-3.016c0-.295-.231-.533-.517-.533-.285 0-.516.238-.516.533v3.016h-.731c-.571 0-1.033.478-1.033 1.067v2.691l-3.135-1.437-1.088-2.991c-.084-.23-.309-.371-.546-.342l-3.48.435-.169.052-1.964 1.014-1.673-.423c-.121-.03-.248-.015-.358.043l-2.947 1.558-.059.037-2.294 1.642c-.234.167-.293.5-.13.742.162.242.484.302.718.135l2.266-1.622 2.746-1.451 1.671.423c.119.03.244.015.354-.041l2.054-1.06 2.989-.374 1.021 2.808c.049.134.148.242.274.299l3.751 1.72v.946l-.158-.012c-.645 0-1.169.541-1.169 1.207v1.608c0 .665.524 1.207 1.169 1.207l.158-.013v.537c-.251.194-.414.503-.414.852v1.596h-3.117v-.664c0-.589-.463-1.067-1.033-1.067h-3.644c-.57 0-1.033.478-1.033 1.067v4.103h-1.984c-.286 0-.516.239-.516.533v2.13h-.85v-3.223c0-.295-.231-.533-.516-.533h-3.21c-.286 0-.516.238-.516.533v1.129h-.437c-.285 0-.517.238-.517.533 0 .294.232.533.517.533h.954c.285 0 .516-.239.516-.533v-1.129h2.177v3.222c0 .295.232.533.517.533h1.882c.285 0 .517-.238.517-.533v-2.129h1.467v4.653l-.194.009c-.307 0-.439-.053-.621-.127-.221-.089-.496-.2-.997-.2s-.776.111-.997.2c-.182.074-.313.127-.621.127-.307 0-.438-.053-.62-.127-.221-.089-.496-.2-.997-.2-.502 0-.776.111-.997.2-.182.074-.314.127-.621.127s-.439-.053-.62-.127c-.221-.089-.496-.2-.997-.2-.502 0-.776.111-.997.2-.182.074-.313.127-.62.127-.286 0-.517.239-.517.533 0 .295.231.533.517.533.501 0 .776-.111.996-.2.183-.074.314-.127.621-.127s.439.053.621.127c.22.089.495.2.996.2.502 0 .777-.111.997-.2.183-.074.314-.127.621-.127s.439.053.621.127c.22.089.495.2.996.2.503 0 .777-.111.997-.2.183-.074.313-.127.621-.127.307 0 .439.053.621.127.221.089.496.2.997.2l.194-.007v1.696l.002.023h-9.964c-.286 0-.516.239-.516.534 0 .294.231.533.516.533h30.432l.206-.046c.471-.099.826-.529.826-1.045v-10.856c0-.589-.462-1.067-1.032-1.067zm-11.251-4.18c0 .077-.061.14-.136.14-.075 0-.136-.063-.136-.14v-1.608c0-.077.061-.14.136-.14.075 0 .136.063.136.14v1.608zm-3.467 6.313h3.099v8.724h-3.099v-8.724zm5.554-5.336v-7.517h2.273v8.056h-2.273v-.54zm2.685 2.673v11.387h-3.075v-9.79l-.023-.225v-1.372h3.098zm2.065 2.663h3.381v8.723h-3.381v-8.723zm-13.99-1.731h1.578v10.454h-1.578v-10.454z" fill="#206FAC"/><path d="M2.471 90.033c-.285 0-.517.239-.517.534v2.894c0 .294.232.533.517.533.286 0 .516-.239.516-.533v-.914h.405v.914c0 .294.231.533.516.533.285 0 .516-.239.516-.533v-2.894c0-.295-.231-.534-.516-.534-.286 0-.516.239-.516.534v.914h-.405v-.914c0-.295-.231-.534-.516-.534zm5.241-.461c-.285 0-.516.238-.516.533v2.894c0 .295.231.533.516.533l.033-.004.034.004h.589c.285 0 .517-.238.517-.533 0-.294-.232-.533-.517-.533h-.139v-2.361c0-.295-.231-.533-.517-.533zm1.791.154c-.285 0-.516.239-.516.534v2.893c0 .295.231.534.516.534l.033-.004.033.004h.589c.285 0 .516-.239.516-.534 0-.294-.231-.534-.516-.534h-.14v-2.359c0-.295-.231-.534-.516-.534zm-3.669 4.022c.644 0 1.169-.541 1.169-1.207v-1.608c0-.666-.525-1.207-1.169-1.207s-1.169.541-1.169 1.207v1.608c0 .665.524 1.207 1.169 1.207zm-.136-2.815c0-.078.061-.141.136-.141.075 0 .136.063.136.141v1.608c0 .077-.061.14-.136.14-.075 0-.136-.063-.136-.14v-1.608zm11.303 3.583c.644 0 1.169-.542 1.169-1.207v-1.608c0-.666-.524-1.207-1.169-1.207s-1.169.541-1.169 1.207v1.608c0 .665.524 1.207 1.169 1.207zm-.136-2.815c0-.077.061-.14.136-.14.075 0 .136.063.136.14v1.608c0 .077-.061.14-.136.14-.075 0-.136-.063-.136-.14v-1.608zm-5.479 2.293c.285 0 .516-.239.516-.533v-1.103l.602-1.597c.103-.275-.028-.584-.294-.691-.265-.107-.565.029-.668.303l-.156.413-.156-.413c-.103-.275-.403-.411-.669-.303-.266.106-.397.416-.294.691l.602 1.597v1.103c0 .294.231.533.516.533zm2.086.212l.059.004c.21 0 .403-.133.481-.339l.138-.366.139.366c.078.206.27.339.48.339l.059-.004c.233-.028.418-.214.452-.454l.413-2.956c.041-.292-.155-.562-.437-.604-.284-.042-.544.16-.585.452l-.145 1.036-.01-.009-.021-.019-.051-.042-.024-.017-.083-.043h-.001l-.022-.008-.051-.016-.043-.007-.033-.005h-.077l-.052.008-.024.004-.072.023-.003.001-.083.044-.023.016-.052.043-.02.019-.01.009-.145-1.036c-.041-.291-.302-.494-.584-.452-.283.042-.479.312-.438.604l.413 2.956c.033.239.219.425.452.454zm-9.812 3.922c.183.226.509.255.727.065.158-.136.357-.201.56-.182.141.013.272.064.383.147l.007.015c.084.188.267.308.468.308h.059c.2 0 .382-.12.468-.308l.007-.015c.112-.083.243-.135.383-.147.204-.018.404.046.56.182.218.19.544.161.728-.065.183-.225.155-.562-.064-.751-.368-.32-.834-.472-1.314-.429-.288.026-.559.121-.797.275-.238-.154-.509-.249-.797-.275-.481-.043-.946.11-1.314.429-.219.19-.247.527-.063.751zm27.311-.485h-4.414v-1.596c0-.349-.162-.658-.413-.852v-3.372l1.501.254 1.291 2.282c.066.116.173.203.299.242l1.159.354.147.021c.223 0 .429-.15.495-.382.081-.282-.075-.579-.348-.663l-.963-.293-1.309-2.316c-.078-.138-.211-.232-.362-.257l-1.909-.324v-4.885c0-.589-.462-1.067-1.032-1.067h-.768v-3.016c0-.295-.231-.533-.516-.533-.286 0-.516.238-.516.533v3.016h-.772v-3.016c0-.295-.231-.533-.517-.533-.285 0-.516.238-.516.533v3.016h-.731c-.571 0-1.033.478-1.033 1.067v2.691l-3.135-1.437-1.088-2.991c-.084-.23-.309-.371-.546-.342l-3.48.435-.169.052-1.964 1.014-1.673-.423c-.121-.03-.248-.015-.358.043l-2.947 1.558-.059.037-2.294 1.642c-.234.167-.293.5-.13.742.162.242.484.302.718.135l2.266-1.622 2.746-1.451 1.671.423c.119.03.244.015.354-.041l2.054-1.06 2.989-.374 1.021 2.808c.049.134.148.242.274.299l3.751 1.72v.946l-.158-.012c-.645 0-1.169.541-1.169 1.207v1.608c0 .665.524 1.207 1.169 1.207l.158-.013v.537c-.251.194-.414.503-.414.852v1.596h-3.117v-.664c0-.589-.463-1.067-1.033-1.067h-3.644c-.57 0-1.033.478-1.033 1.067v4.103h-1.984c-.286 0-.516.239-.516.533v2.13h-.85v-3.223c0-.295-.231-.533-.516-.533h-3.21c-.286 0-.516.238-.516.533v1.129h-.437c-.285 0-.517.238-.517.533 0 .294.232.533.517.533h.954c.285 0 .516-.239.516-.533v-1.129h2.177v3.222c0 .295.232.533.517.533h1.882c.285 0 .517-.238.517-.533v-2.129h1.467v4.653l-.194.009c-.307 0-.439-.053-.621-.127-.221-.089-.496-.2-.997-.2s-.776.111-.997.2c-.182.074-.313.127-.621.127-.307 0-.438-.053-.62-.127-.221-.089-.496-.2-.997-.2-.502 0-.776.111-.997.2-.182.074-.314.127-.621.127s-.439-.053-.62-.127c-.221-.089-.496-.2-.997-.2-.502 0-.776.111-.997.2-.182.074-.313.127-.62.127-.286 0-.517.239-.517.533 0 .295.231.533.517.533.501 0 .776-.111.996-.2.183-.074.314-.127.621-.127s.439.053.621.127c.22.089.495.2.996.2.502 0 .777-.111.997-.2.183-.074.314-.127.621-.127s.439.053.621.127c.22.089.495.2.996.2.503 0 .777-.111.997-.2.183-.074.313-.127.621-.127.307 0 .439.053.621.127.221.089.496.2.997.2l.194-.007v1.696l.002.023h-9.964c-.286 0-.516.239-.516.534 0 .294.231.533.516.533h30.432l.206-.046c.471-.099.826-.529.826-1.045v-10.856c0-.589-.462-1.067-1.032-1.067zm-11.251-4.18c0 .077-.061.14-.136.14-.075 0-.136-.063-.136-.14v-1.608c0-.077.061-.14.136-.14.075 0 .136.063.136.14v1.608zm-3.467 6.313h3.099v8.724h-3.099v-8.724zm5.554-5.336v-7.517h2.273v8.056h-2.273v-.54zm2.685 2.673v11.387h-3.075v-9.79l-.023-.225v-1.372h3.098zm2.065 2.663h3.381v8.723h-3.381v-8.723zm-13.99-1.731h1.578v10.454h-1.578v-10.454z" fill="#fff"/><path d="M2.471 50.033c-.285 0-.517.239-.517.534v2.894c0 .294.232.533.517.533.286 0 .516-.239.516-.533v-.914h.405v.914c0 .294.231.533.516.533.285 0 .516-.239.516-.533v-2.894c0-.295-.231-.534-.516-.534-.286 0-.516.239-.516.534v.914h-.405v-.914c0-.295-.231-.534-.516-.534zm5.241-.461c-.285 0-.516.238-.516.533v2.894c0 .295.231.533.516.533l.033-.004.034.004h.589c.285 0 .517-.238.517-.533 0-.294-.232-.533-.517-.533h-.139v-2.361c0-.295-.231-.533-.517-.533zm1.791.154c-.285 0-.516.239-.516.534v2.893c0 .295.231.534.516.534l.033-.004.033.004h.589c.285 0 .516-.239.516-.534 0-.294-.231-.534-.516-.534h-.14v-2.359c0-.295-.231-.534-.516-.534zm-3.669 4.022c.644 0 1.169-.541 1.169-1.207v-1.608c0-.666-.525-1.207-1.169-1.207s-1.169.541-1.169 1.207v1.608c0 .665.524 1.207 1.169 1.207zm-.136-2.815c0-.078.061-.141.136-.141.075 0 .136.063.136.141v1.608c0 .077-.061.14-.136.14-.075 0-.136-.063-.136-.14v-1.608zm11.303 3.583c.644 0 1.169-.542 1.169-1.207v-1.608c0-.666-.524-1.207-1.169-1.207s-1.169.541-1.169 1.207v1.608c0 .665.524 1.207 1.169 1.207zm-.136-2.815c0-.077.061-.14.136-.14.075 0 .136.063.136.14v1.608c0 .077-.061.14-.136.14-.075 0-.136-.063-.136-.14v-1.608zm-5.479 2.293c.285 0 .516-.239.516-.533v-1.103l.602-1.597c.103-.275-.028-.584-.294-.691-.265-.107-.565.029-.668.303l-.156.413-.156-.413c-.103-.275-.403-.411-.669-.303-.266.106-.397.416-.294.691l.602 1.597v1.103c0 .294.231.533.516.533zm2.086.212l.059.004c.21 0 .403-.133.481-.339l.138-.366.139.366c.078.206.27.339.48.339l.059-.004c.233-.028.418-.214.452-.454l.413-2.956c.041-.292-.155-.562-.437-.604-.284-.042-.544.16-.585.452l-.145 1.036-.01-.009-.021-.019-.051-.042-.024-.017-.083-.043h-.001l-.022-.008-.051-.016-.043-.007-.033-.005h-.077l-.052.008-.024.004-.072.023-.003.001-.083.044-.023.016-.052.043-.02.019-.01.009-.145-1.036c-.041-.291-.302-.494-.584-.452-.283.042-.479.312-.438.604l.413 2.956c.033.239.219.425.452.454zm-9.812 3.922c.183.226.509.255.727.065.158-.136.357-.201.56-.182.141.013.272.064.383.147l.007.015c.084.188.267.308.468.308h.059c.2 0 .382-.12.468-.308l.007-.015c.112-.083.243-.135.383-.147.204-.018.404.046.56.182.218.19.544.161.728-.065.183-.225.155-.562-.064-.751-.368-.32-.834-.472-1.314-.429-.288.026-.559.121-.797.275-.238-.154-.509-.249-.797-.275-.481-.043-.946.11-1.314.429-.219.19-.247.527-.063.751zm27.311-.485h-4.414v-1.596c0-.349-.162-.658-.413-.852v-3.372l1.501.254 1.291 2.282c.066.116.173.203.299.242l1.159.354.147.021c.223 0 .429-.15.495-.382.081-.282-.075-.579-.348-.663l-.963-.293-1.309-2.316c-.078-.138-.211-.232-.362-.257l-1.909-.324v-4.885c0-.589-.462-1.067-1.032-1.067h-.768v-3.016c0-.295-.231-.533-.516-.533-.286 0-.516.238-.516.533v3.016h-.772v-3.016c0-.295-.231-.533-.517-.533-.285 0-.516.238-.516.533v3.016h-.731c-.571 0-1.033.478-1.033 1.067v2.691l-3.135-1.437-1.088-2.991c-.084-.23-.309-.371-.546-.342l-3.48.435-.169.052-1.964 1.014-1.673-.423c-.121-.03-.248-.015-.358.043l-2.947 1.558-.059.037-2.294 1.642c-.234.167-.293.5-.13.742.162.242.484.302.718.135l2.266-1.622 2.746-1.451 1.671.423c.119.03.244.015.354-.041l2.054-1.06 2.989-.374 1.021 2.808c.049.134.148.242.274.299l3.751 1.72v.946l-.158-.012c-.645 0-1.169.541-1.169 1.207v1.608c0 .665.524 1.207 1.169 1.207l.158-.013v.537c-.251.194-.414.503-.414.852v1.596h-3.117v-.664c0-.589-.463-1.067-1.033-1.067h-3.644c-.57 0-1.033.478-1.033 1.067v4.103h-1.984c-.286 0-.516.239-.516.533v2.13h-.85v-3.223c0-.295-.231-.533-.516-.533h-3.21c-.286 0-.516.238-.516.533v1.129h-.437c-.285 0-.517.238-.517.533 0 .294.232.533.517.533h.954c.285 0 .516-.239.516-.533v-1.129h2.177v3.222c0 .295.232.533.517.533h1.882c.285 0 .517-.238.517-.533v-2.129h1.467v4.653l-.194.009c-.307 0-.439-.053-.621-.127-.221-.089-.496-.2-.997-.2s-.776.111-.997.2c-.182.074-.313.127-.621.127-.307 0-.438-.053-.62-.127-.221-.089-.496-.2-.997-.2-.502 0-.776.111-.997.2-.182.074-.314.127-.621.127s-.439-.053-.62-.127c-.221-.089-.496-.2-.997-.2-.502 0-.776.111-.997.2-.182.074-.313.127-.62.127-.286 0-.517.239-.517.533 0 .295.231.533.517.533.501 0 .776-.111.996-.2.183-.074.314-.127.621-.127s.439.053.621.127c.22.089.495.2.996.2.502 0 .777-.111.997-.2.183-.074.314-.127.621-.127s.439.053.621.127c.22.089.495.2.996.2.503 0 .777-.111.997-.2.183-.074.313-.127.621-.127.307 0 .439.053.621.127.221.089.496.2.997.2l.194-.007v1.696l.002.023h-9.964c-.286 0-.516.239-.516.534 0 .294.231.533.516.533h30.432l.206-.046c.471-.099.826-.529.826-1.045v-10.856c0-.589-.462-1.067-1.032-1.067zm-11.251-4.18c0 .077-.061.14-.136.14-.075 0-.136-.063-.136-.14v-1.608c0-.077.061-.14.136-.14.075 0 .136.063.136.14v1.608zm-3.467 6.313h3.099v8.724h-3.099v-8.724zm5.554-5.336v-7.517h2.273v8.056h-2.273v-.54zm2.685 2.673v11.387h-3.075v-9.79l-.023-.225v-1.372h3.098zm2.065 2.663h3.381v8.723h-3.381v-8.723zm-13.99-1.731h1.578v10.454h-1.578v-10.454z" fill="#67737B"/><path d="M2.471 10.033c-.285 0-.517.239-.517.534v2.894c0 .294.232.533.517.533.286 0 .516-.239.516-.533v-.914h.405v.914c0 .294.231.533.516.533.285 0 .516-.239.516-.533v-2.894c0-.295-.231-.534-.516-.534-.286 0-.516.239-.516.534v.914h-.405v-.914c0-.295-.231-.534-.516-.534zm5.241-.461c-.285 0-.516.238-.516.533v2.894c0 .295.231.533.516.533l.033-.004.034.004h.589c.285 0 .517-.238.517-.533 0-.294-.232-.533-.517-.533h-.139v-2.361c0-.295-.231-.533-.517-.533zm1.791.154c-.285 0-.516.239-.516.534v2.893c0 .295.231.534.516.534l.033-.004.033.004h.589c.285 0 .516-.239.516-.534 0-.294-.231-.534-.516-.534h-.14v-2.359c0-.295-.231-.534-.516-.534zm-3.669 4.022c.644 0 1.169-.541 1.169-1.207v-1.608c0-.666-.525-1.207-1.169-1.207s-1.169.541-1.169 1.207v1.608c0 .665.524 1.207 1.169 1.207zm-.136-2.815c0-.078.061-.141.136-.141.075 0 .136.063.136.141v1.608c0 .077-.061.14-.136.14-.075 0-.136-.063-.136-.14v-1.608zm11.303 3.583c.644 0 1.169-.542 1.169-1.207v-1.608c0-.666-.524-1.207-1.169-1.207s-1.169.541-1.169 1.207v1.608c0 .665.524 1.207 1.169 1.207zm-.136-2.815c0-.077.061-.14.136-.14.075 0 .136.063.136.14v1.608c0 .077-.061.14-.136.14-.075 0-.136-.063-.136-.14v-1.608zm-5.479 2.293c.285 0 .516-.239.516-.533v-1.103l.602-1.597c.103-.275-.028-.584-.294-.691-.265-.107-.565.029-.668.303l-.156.413-.156-.413c-.103-.275-.403-.411-.669-.303-.266.106-.397.416-.294.691l.602 1.597v1.103c0 .294.231.533.516.533zm2.086.212l.059.004c.21 0 .403-.133.481-.339l.138-.366.139.366c.078.206.27.339.48.339l.059-.004c.233-.028.418-.214.452-.454l.413-2.956c.041-.292-.155-.562-.437-.604-.284-.042-.544.16-.585.452l-.145 1.036-.01-.009-.021-.019-.051-.042-.024-.017-.083-.043h-.001l-.022-.008-.051-.016-.043-.007-.033-.005h-.077l-.052.008-.024.004-.072.023-.003.001-.083.044-.023.016-.052.043-.02.019-.01.009-.145-1.036c-.041-.291-.302-.494-.584-.452-.283.042-.479.312-.438.604l.413 2.956c.033.239.219.425.452.454zm-9.812 3.922c.183.226.509.255.727.065.158-.136.357-.201.56-.182.141.013.272.064.383.147l.007.015c.084.188.267.308.468.308h.059c.2 0 .382-.12.468-.308l.007-.015c.112-.083.243-.135.383-.147.204-.018.404.046.56.182.218.19.544.161.728-.065.183-.225.155-.562-.064-.751-.368-.32-.834-.472-1.314-.429-.288.026-.559.121-.797.275-.238-.154-.509-.249-.797-.275-.481-.043-.946.11-1.314.429-.219.19-.247.527-.063.751zm27.311-.485h-4.414v-1.596c0-.349-.162-.658-.413-.852v-3.372l1.501.254 1.291 2.282c.066.116.173.203.299.242l1.159.354.147.021c.223 0 .429-.15.495-.382.081-.282-.075-.579-.348-.663l-.963-.293-1.309-2.316c-.078-.138-.211-.232-.362-.257l-1.909-.324v-4.885c0-.589-.462-1.067-1.032-1.067h-.768v-3.016c0-.295-.231-.533-.516-.533-.286 0-.516.238-.516.533v3.016h-.772v-3.016c0-.295-.231-.533-.517-.533-.285 0-.516.238-.516.533v3.016h-.731c-.571 0-1.033.478-1.033 1.067v2.691l-3.135-1.437-1.088-2.991c-.084-.23-.309-.371-.546-.342l-3.48.435-.169.052-1.964 1.014-1.673-.423c-.121-.03-.248-.015-.358.043l-2.947 1.558-.059.037-2.294 1.642c-.234.167-.293.5-.13.742.162.242.484.302.718.135l2.266-1.622 2.746-1.451 1.671.423c.119.03.244.015.354-.041l2.054-1.06 2.989-.374 1.021 2.808c.049.134.148.242.274.299l3.751 1.72v.946l-.158-.012c-.645 0-1.169.541-1.169 1.207v1.608c0 .665.524 1.207 1.169 1.207l.158-.013v.537c-.251.194-.414.503-.414.852v1.596h-3.117v-.664c0-.589-.463-1.067-1.033-1.067h-3.644c-.57 0-1.033.478-1.033 1.067v4.103h-1.984c-.286 0-.516.239-.516.533v2.13h-.85v-3.223c0-.295-.231-.533-.516-.533h-3.21c-.286 0-.516.238-.516.533v1.129h-.437c-.285 0-.517.238-.517.533 0 .294.232.533.517.533h.954c.285 0 .516-.239.516-.533v-1.129h2.177v3.222c0 .295.232.533.517.533h1.882c.285 0 .517-.238.517-.533v-2.129h1.467v4.653l-.194.009c-.307 0-.439-.053-.621-.127-.221-.089-.496-.2-.997-.2s-.776.111-.997.2c-.182.074-.313.127-.621.127-.307 0-.438-.053-.62-.127-.221-.089-.496-.2-.997-.2-.502 0-.776.111-.997.2-.182.074-.314.127-.621.127s-.439-.053-.62-.127c-.221-.089-.496-.2-.997-.2-.502 0-.776.111-.997.2-.182.074-.313.127-.62.127-.286 0-.517.239-.517.533 0 .295.231.533.517.533.501 0 .776-.111.996-.2.183-.074.314-.127.621-.127s.439.053.621.127c.22.089.495.2.996.2.502 0 .777-.111.997-.2.183-.074.314-.127.621-.127s.439.053.621.127c.22.089.495.2.996.2.503 0 .777-.111.997-.2.183-.074.313-.127.621-.127.307 0 .439.053.621.127.221.089.496.2.997.2l.194-.007v1.696l.002.023h-9.964c-.286 0-.516.239-.516.534 0 .294.231.533.516.533h30.432l.206-.046c.471-.099.826-.529.826-1.045v-10.856c0-.589-.462-1.067-1.032-1.067zm-11.251-4.18c0 .077-.061.14-.136.14-.075 0-.136-.063-.136-.14v-1.608c0-.077.061-.14.136-.14.075 0 .136.063.136.14v1.608zm-3.467 6.313h3.099v8.724h-3.099v-8.724zm5.554-5.336v-7.517h2.273v8.056h-2.273v-.54zm2.685 2.673v11.387h-3.075v-9.79l-.023-.225v-1.372h3.098zm2.065 2.663h3.381v8.723h-3.381v-8.723zm-13.99-1.731h1.578v10.454h-1.578v-10.454z" fill="#3A434E"/></g></g></svg>