<svg width="32" height="232" viewBox="0 0 32 232" xmlns="http://www.w3.org/2000/svg"><title>kuala-lumpur</title><desc>Created with Sketch.</desc><g fill="none"><path d="M18.147 124.92c.066.033.138.05.212.05.124 0 .243-.05.33-.14.09-.09.14-.21.14-.338 0-.18-.102-.347-.262-.427-.13-.067-.292-.066-.422 0l-.042.027-.077.062c-.09.09-.14.212-.14.34 0 .126.05.248.14.338l.12.087zm-2.58 2.42c-.08-.04-.173-.056-.263-.045l-.19.068-.088.068c-.144.147-.18.372-.088.555.046.09.118.165.207.21.066.035.14.052.213.052.125 0 .244-.05.332-.14.143-.145.178-.368.088-.552-.046-.092-.12-.167-.21-.214zm-2.03-3.447l.39.218.214.397c.084.154.24.25.413.25s.33-.096.412-.25l.213-.396.39-.217c.15-.083.245-.244.245-.42 0-.173-.094-.334-.244-.417l-.392-.218-.213-.397c-.083-.15-.24-.247-.412-.247s-.33.095-.412.248l-.213.398-.39.218c-.15.083-.245.244-.245.418s.094.335.245.42zm12.115 26.15h-.658v-16.28c0-.427-.274-.788-.653-.91-.196-2.07-.428-3.753-.69-5.02l.007-.064c0-.096-.028-.183-.075-.258-.305-1.377-.753-2.73-1.673-3.073v-.64c.242-.018.433-.222.433-.474s-.19-.455-.434-.474V120.5c0-.264-.21-.477-.47-.477s-.47.213-.47.477v2.353c-.238.024-.423.226-.423.473 0 .247.185.448.422.473v.64c-.967.358-1.407 1.83-1.71 3.275-.268 1.286-.502 3.024-.7 5.174-.327.148-.556.483-.556.872v4.864H14.01v-4.864c0-.426-.276-.787-.654-.91-.197-2.068-.43-3.752-.69-5.02l.006-.063c0-.096-.028-.183-.075-.258-.305-1.377-.753-2.73-1.673-3.073v-.64c.24-.023.428-.225.428-.474 0-.25-.19-.452-.428-.473V120.5c0-.264-.21-.477-.47-.477s-.47.213-.47.477v2.353c-.24.022-.43.224-.43.473 0 .25.19.45.43.473v.638c-.966.36-1.406 1.83-1.708 3.275-.27 1.287-.503 3.025-.7 5.174-.328.15-.557.484-.557.873v16.28h-.706c-.52 0-.94.427-.94.954 0 .527.42.955.94.955h19.34c.518 0 .938-.43.938-.956 0-.528-.42-.954-.94-.954zm-15.196-23.245l.15.494h-.298l.148-.494zm.374 1.45l.034.168h-.81l.033-.17h.742zm10.61-1.45l.15.494h-.298l.15-.494zm.375 1.45l.034.168h-.81l.032-.17h.743zm1.3 21.794h-.48v-8.177c0-.264-.21-.477-.47-.477s-.47.214-.47.477v8.177h-.428v-8.177c0-.264-.21-.477-.47-.477s-.47.214-.47.477v8.177h-.445v-9.202h3.232v9.202zm-3.232-15.444c.266-.15.454-.428.48-.755l.01-.106h2.162l.01.11c.03.36.26.66.57.795v.23h-3.232v-.274zm.814-3.983H22.2l.06.47h-1.62l.057-.47zm1.368-.955H20.83l.044-.29h1.146l.046.29zm-1.532 2.38h1.838l.078.742H20.46l.073-.743zm-.65 3.786h3.233v1.415h-3.232v-1.414zm0 2.37h3.233v1.69h-3.232v-1.69zm-1.878 4.844l-1.185-2.16h1.185v2.16zM8.9 134.598c.265-.15.453-.428.48-.755l.01-.106h2.162l.01.11c.03.36.26.66.57.795v.23H8.9v-.274zm.813-3.983h1.503l.06.47h-1.62l.057-.47zm1.368-.955H9.846l.044-.29h1.145l.046.29zm-1.53 2.38h1.836l.077.742H9.475l.074-.743zm-.65 3.786h3.23v1.415H8.9v-1.414zm0 2.37h3.23v1.69H8.9v-1.69zm5.11 2.684h1.276l-1.275 2.326v-2.326zm-5.11-.04h3.23v9.202h-.495v-8.177c0-.264-.21-.477-.47-.477s-.47.214-.47.477v8.177h-.427v-8.177c0-.264-.21-.477-.47-.477s-.47.214-.47.477v8.177h-.43v-9.202zm5.11 4.327l2.044-3.725 1.952 3.56v5.04H14.01v-4.874zm0-5.586h3.996v.344H14.01v-.343z" fill="#206FAC"/><path d="M18.147 84.92c.066.033.138.05.212.05.124 0 .243-.05.33-.14.09-.09.14-.21.14-.338 0-.18-.102-.347-.262-.427-.13-.067-.292-.066-.422 0l-.042.027-.077.062c-.09.09-.14.212-.14.34 0 .126.05.248.14.338l.12.087zm-2.58 2.42c-.08-.04-.173-.056-.263-.045l-.19.068-.088.068c-.144.147-.18.372-.088.555.046.09.118.165.207.21.066.035.14.052.213.052.125 0 .244-.05.332-.14.143-.145.178-.368.088-.552-.046-.092-.12-.167-.21-.214zm-2.03-3.447l.39.218.214.397c.084.154.24.25.413.25s.33-.096.412-.25l.213-.396.39-.217c.15-.083.245-.244.245-.42 0-.173-.094-.334-.244-.417l-.392-.218-.213-.397c-.083-.15-.24-.247-.412-.247s-.33.095-.412.248l-.213.398-.39.218c-.15.083-.245.244-.245.418s.094.335.245.42zm12.115 26.15h-.658v-16.28c0-.427-.274-.788-.653-.91-.196-2.07-.428-3.753-.69-5.02l.007-.064c0-.096-.028-.183-.075-.258-.305-1.377-.753-2.73-1.673-3.073v-.64c.242-.018.433-.222.433-.474s-.19-.455-.434-.474V80.5c0-.264-.21-.477-.47-.477s-.47.213-.47.477v2.353c-.238.024-.423.226-.423.473 0 .247.185.448.422.473v.64c-.967.358-1.407 1.83-1.71 3.275-.268 1.286-.502 3.024-.7 5.174-.327.148-.556.483-.556.872v4.864H14.01v-4.864c0-.426-.276-.787-.654-.91-.197-2.068-.43-3.752-.69-5.02l.006-.063c0-.096-.028-.183-.075-.258-.305-1.377-.753-2.73-1.673-3.073v-.64c.24-.023.428-.225.428-.474 0-.25-.19-.452-.428-.473V80.5c0-.264-.21-.477-.47-.477s-.47.213-.47.477v2.353c-.24.022-.43.224-.43.473 0 .25.19.45.43.473v.638c-.966.36-1.406 1.83-1.708 3.275-.27 1.287-.503 3.025-.7 5.174-.328.15-.557.484-.557.873v16.28h-.706c-.52 0-.94.427-.94.954 0 .527.42.955.94.955h19.34c.518 0 .938-.43.938-.956 0-.528-.42-.954-.94-.954zM10.456 86.797l.15.494h-.298l.148-.494zm.374 1.45l.034.168h-.81l.033-.17h.742zm10.61-1.45l.15.494h-.298l.15-.494zm.375 1.45l.034.168h-.81l.032-.17h.743zm1.3 21.794h-.48v-8.177c0-.264-.21-.477-.47-.477s-.47.214-.47.477v8.177h-.428v-8.177c0-.264-.21-.477-.47-.477s-.47.214-.47.477v8.177h-.445v-9.202h3.232v9.202zm-3.232-15.444c.266-.15.454-.428.48-.755l.01-.106h2.162l.01.11c.03.36.26.66.57.795v.23h-3.232v-.274zm.814-3.983H22.2l.06.47h-1.62l.057-.47zm1.368-.955H20.83l.044-.29h1.146l.046.29zm-1.532 2.38h1.838l.078.742H20.46l.073-.743zm-.65 3.786h3.233v1.415h-3.232v-1.414zm0 2.37h3.233v1.69h-3.232v-1.69zm-1.878 4.844l-1.185-2.16h1.185v2.16zM8.9 94.598c.265-.15.453-.428.48-.755l.01-.106h2.162l.01.11c.03.36.26.66.57.795v.23H8.9v-.274zm.813-3.983h1.503l.06.47h-1.62l.057-.47zm1.368-.955H9.846l.044-.29h1.145l.046.29zm-1.53 2.38h1.836l.077.742H9.475l.074-.743zm-.65 3.786h3.23v1.415H8.9v-1.414zm0 2.37h3.23v1.69H8.9v-1.69zm5.11 2.684h1.276l-1.275 2.326v-2.326zm-5.11-.04h3.23v9.202h-.495v-8.177c0-.264-.21-.477-.47-.477s-.47.214-.47.477v8.177h-.427v-8.177c0-.264-.21-.477-.47-.477s-.47.214-.47.477v8.177h-.43v-9.202zm5.11 4.327l2.044-3.725 1.952 3.56v5.04H14.01v-4.874zm0-5.586h3.996v.344H14.01v-.343z" fill="#fff"/><path d="M18.147 44.92c.066.033.138.05.212.05.124 0 .243-.05.33-.14.09-.09.14-.21.14-.338 0-.18-.102-.347-.262-.427-.13-.067-.292-.066-.422 0l-.042.027-.077.062c-.09.09-.14.212-.14.34 0 .126.05.248.14.338l.12.087zm-2.58 2.42c-.08-.04-.173-.056-.263-.045l-.19.068-.088.068c-.144.147-.18.372-.088.555.046.09.118.165.207.21.066.035.14.052.213.052.125 0 .244-.05.332-.14.143-.145.178-.368.088-.552-.046-.092-.12-.167-.21-.214zm-2.03-3.447l.39.218.214.397c.084.154.24.25.413.25s.33-.096.412-.25l.213-.396.39-.217c.15-.083.245-.244.245-.42 0-.173-.094-.334-.244-.417l-.392-.218-.213-.397c-.083-.15-.24-.247-.412-.247s-.33.095-.412.248l-.213.398-.39.218c-.15.083-.245.244-.245.418s.094.335.245.42zm12.115 26.15h-.658v-16.28c0-.427-.274-.788-.653-.91-.196-2.07-.428-3.753-.69-5.02l.007-.064c0-.096-.028-.183-.075-.258-.305-1.377-.753-2.73-1.673-3.073v-.64c.242-.018.433-.222.433-.474s-.19-.455-.434-.474V40.5c0-.264-.21-.477-.47-.477s-.47.213-.47.477v2.353c-.238.024-.423.226-.423.473 0 .247.185.448.422.473v.64c-.967.358-1.407 1.83-1.71 3.275-.268 1.286-.502 3.024-.7 5.174-.327.148-.556.483-.556.872v4.864H14.01v-4.864c0-.426-.276-.787-.654-.91-.197-2.068-.43-3.752-.69-5.02l.006-.063c0-.096-.028-.183-.075-.258-.305-1.377-.753-2.73-1.673-3.073v-.64c.24-.023.428-.225.428-.474 0-.25-.19-.452-.428-.473V40.5c0-.264-.21-.477-.47-.477s-.47.213-.47.477v2.353c-.24.022-.43.224-.43.473 0 .25.19.45.43.473v.638c-.966.36-1.406 1.83-1.708 3.275-.27 1.287-.503 3.025-.7 5.174-.328.15-.557.484-.557.873v16.28h-.706c-.52 0-.94.427-.94.955 0 .527.42.955.94.955h19.34c.518 0 .938-.428.938-.955 0-.528-.42-.955-.94-.955zM10.456 46.797l.15.494h-.298l.148-.494zm.374 1.45l.034.168h-.81l.033-.17h.742zm10.61-1.45l.15.494h-.298l.15-.494zm.375 1.45l.034.168h-.81l.032-.17h.743zm1.3 21.794h-.48v-8.177c0-.264-.21-.477-.47-.477s-.47.214-.47.477v8.177h-.428v-8.177c0-.264-.21-.477-.47-.477s-.47.214-.47.477v8.177h-.445V60.84h3.232v9.202zm-3.232-15.444c.266-.15.454-.428.48-.755l.01-.106h2.162l.01.11c.03.36.26.66.57.795v.23h-3.232v-.274zm.814-3.983H22.2l.06.47h-1.62l.057-.47zm1.368-.955H20.83l.044-.29h1.146l.046.29zm-1.532 2.38h1.838l.078.742H20.46l.073-.743zm-.65 3.786h3.233v1.415h-3.232v-1.414zm0 2.37h3.233v1.69h-3.232v-1.69zm-1.878 4.844l-1.185-2.16h1.185v2.16zM8.9 54.598c.265-.15.453-.428.48-.755l.01-.106h2.162l.01.11c.03.36.26.66.57.795v.23H8.9v-.274zm.813-3.983h1.503l.06.47h-1.62l.057-.47zm1.368-.955H9.846l.044-.29h1.145l.046.29zm-1.53 2.38h1.836l.077.742H9.475l.074-.743zm-.65 3.786h3.23v1.415H8.9v-1.414zm0 2.37h3.23v1.69H8.9v-1.69zm5.11 2.684h1.276l-1.275 2.326V60.88zm-5.11-.04h3.23v9.202h-.495v-8.177c0-.264-.21-.477-.47-.477s-.47.214-.47.477v8.177h-.427v-8.177c0-.264-.21-.477-.47-.477s-.47.214-.47.477v8.177h-.43V60.84zm5.11 4.327l2.044-3.725 1.952 3.56v5.04H14.01V65.17zm0-5.586h3.996v.344H14.01v-.343z" fill="#67737B"/><path d="M18.147 4.92c.066.033.138.05.212.05.124 0 .243-.05.33-.14.09-.09.14-.21.14-.338 0-.18-.102-.347-.262-.427-.13-.067-.292-.066-.422 0l-.042.027-.077.062c-.09.09-.14.212-.14.34 0 .126.05.248.14.338l.12.087zm-2.58 2.42c-.08-.04-.173-.056-.263-.045l-.19.068-.088.068c-.144.147-.18.372-.088.555.046.09.118.165.207.21.066.035.14.052.213.052.125 0 .244-.05.332-.14.143-.145.178-.368.088-.552-.046-.092-.12-.167-.21-.214zm-2.03-3.447l.39.218.214.397c.084.154.24.25.413.25s.33-.096.412-.25l.213-.396.39-.217c.15-.083.245-.244.245-.42 0-.173-.094-.334-.244-.417l-.392-.218-.213-.397c-.083-.15-.24-.247-.412-.247s-.33.095-.412.248l-.213.398-.39.218c-.15.083-.245.244-.245.418s.094.335.245.42zm12.115 26.15h-.658v-16.28c0-.427-.274-.788-.653-.91-.196-2.07-.428-3.753-.69-5.02l.007-.064c0-.096-.028-.183-.075-.258-.305-1.377-.753-2.73-1.673-3.073V3.8c.242-.018.433-.222.433-.474s-.19-.455-.434-.474V.5c0-.264-.21-.477-.47-.477s-.47.213-.47.477v2.353c-.238.024-.423.226-.423.473 0 .247.185.448.422.473v.64c-.967.358-1.407 1.83-1.71 3.275-.268 1.286-.502 3.024-.7 5.174-.327.148-.556.483-.556.872v4.864H14.01v-4.864c0-.426-.276-.787-.654-.91-.197-2.068-.43-3.752-.69-5.02l.006-.063c0-.096-.028-.183-.075-.258-.305-1.377-.753-2.73-1.673-3.073V3.8c.24-.023.428-.225.428-.474 0-.25-.19-.452-.428-.473V.5c0-.264-.21-.477-.47-.477s-.47.213-.47.477v2.353c-.24.022-.43.224-.43.473 0 .25.19.45.43.473v.638c-.966.36-1.406 1.83-1.708 3.275-.27 1.287-.503 3.025-.7 5.174-.328.15-.557.484-.557.873v16.28h-.706c-.52 0-.94.427-.94.954 0 .527.42.955.94.955h19.34c.518 0 .938-.43.938-.956 0-.528-.42-.954-.94-.954zM10.456 6.797l.15.494h-.298l.148-.494zm.374 1.45l.034.168h-.81l.033-.17h.742zm10.61-1.45l.15.494h-.298l.15-.494zm.375 1.45l.034.168h-.81l.032-.17h.743zm1.3 21.794h-.48v-8.177c0-.264-.21-.477-.47-.477s-.47.214-.47.477v8.177h-.428v-8.177c0-.264-.21-.477-.47-.477s-.47.214-.47.477v8.177h-.445V20.84h3.232v9.202zm-3.232-15.444c.266-.15.454-.428.48-.755l.01-.106h2.162l.01.11c.03.36.26.66.57.795v.23h-3.232v-.274zm.814-3.983H22.2l.06.47h-1.62l.057-.47zm1.368-.955H20.83l.044-.29h1.146l.046.29zm-1.532 2.38h1.838l.078.742H20.46l.073-.743zm-.65 3.786h3.233v1.415h-3.232v-1.414zm0 2.37h3.233v1.69h-3.232v-1.69zm-1.878 4.844l-1.185-2.16h1.185v2.16zM8.9 14.598c.265-.15.453-.428.48-.755l.01-.106h2.162l.01.11c.03.36.26.66.57.795v.23H8.9v-.274zm.813-3.983h1.503l.06.47h-1.62l.057-.47zm1.368-.955H9.846l.044-.29h1.145l.046.29zm-1.53 2.38h1.836l.077.742H9.475l.074-.743zm-.65 3.786h3.23v1.415H8.9v-1.414zm0 2.37h3.23v1.69H8.9v-1.69zm5.11 2.684h1.276l-1.275 2.326V20.88zm-5.11-.04h3.23v9.202h-.495v-8.177c0-.264-.21-.477-.47-.477s-.47.214-.47.477v8.177h-.427v-8.177c0-.264-.21-.477-.47-.477s-.47.214-.47.477v8.177h-.43V20.84zm5.11 4.327l2.044-3.725 1.952 3.56v5.04H14.01V25.17zm0-5.586h3.996v.344H14.01v-.343z" fill="#3A434E"/></g></svg>