<svg width="32" height="232" viewBox="0 0 32 232" xmlns="http://www.w3.org/2000/svg" xmlns:sketch="http://www.bohemiancoding.com/sketch/ns"><title>valetta-malta</title><desc>Created with Sketch.</desc><g sketch:type="MSShapeGroup" fill="none"><path d="M3.517 126.845h.209c-.032.127-.051.261-.051.4 0 .804.583 1.459 1.299 1.459h8.458c.316 0 .62-.13.858-.365.28-.277.441-.676.441-1.094 0-.418-.161-.816-.441-1.094-.238-.235-.543-.365-.858-.365h-4.829l.016-.199c0-.36-.139-.704-.38-.943-.205-.203-.468-.315-.74-.315h-3.982c-.618 0-1.12.564-1.12 1.258 0 .693.502 1.258 1.12 1.258zm0-1.456h3.982l.116.05.061.149-.061.148-.116.05h-.002c-.26 0-.472.237-.472.53 0 .292.211.53.472.53h5.935c.11 0 .188.055.235.1.045.045.122.144.122.299 0 .156-.076.255-.121.3-.046.046-.124.101-.235.101h-8.458c-.196 0-.356-.18-.356-.4 0-.221.16-.4.356-.4.261 0 .472-.237.472-.53h.002c0-.293-.211-.53-.472-.53h-1.46c-.098 0-.177-.089-.177-.199 0-.11.079-.199.177-.199zm28.001 17.71c-.281 0-.401-.053-.568-.126-.201-.088-.452-.198-.911-.198l-.174.006v-6.247c0-.293-.211-.53-.471-.53h-.768v-2.156c0-.293-.211-.53-.472-.53h-1.581v-3.134c0-.585-.422-1.059-.943-1.059h-.175l-1.254-5.666c-.052-.236-.241-.402-.458-.402-.217 0-.405.166-.458.402l-1.254 5.666h-.174c-.521 0-.943.474-.943 1.059v2.604h-.95c-.65-1.398-1.893-2.396-3.352-2.57v-1.16c0-.293-.211-.53-.472-.53s-.472.237-.472.53v1.164c-2.072.264-3.701 2.189-3.802 4.557h-.841v-.932c0-.585-.422-1.059-.943-1.059h-.408v-1.342c0-.292-.211-.53-.472-.53h-5.858c-.261 0-.472.237-.472.53v1.342h-.408c-.521 0-.943.474-.943 1.059v9.018l.013.166-.142-.059c-.202-.088-.452-.198-.91-.198-.261 0-.472.237-.472.53 0 .293.211.53.472.53.281 0 .401.053.567.126.201.088.452.198.91.198s.709-.11.91-.198c.166-.073.287-.126.567-.126.281 0 .401.053.567.126.201.088.452.198.91.198l.08-.002v1.497c0 .293.211.53.472.53h2.555c.261 0 .472-.237.472-.53l-.002-.049c-.002-.543-.032-1.044-.084-1.509.152-.039.27-.09.374-.136.166-.073.287-.126.567-.126.281 0 .401.053.567.126.201.088.452.198.91.198s.709-.11.91-.198l.216-.083h.702l.216.083c.201.088.452.198.91.198s.709-.11.91-.198l.216-.083h.703l.216.083c.201.088.452.198.91.198s.709-.11.911-.198l.216-.083h.703l.216.083c.201.088.452.198.911.198.458 0 .709-.11.91-.198l.216-.083h.703l.047.014.012.005.158.064c.201.088.452.198.91.198s.709-.11.911-.198l.041-.018h1.052l.041.018c.201.088.452.198.91.198s.709-.11.911-.198c.166-.073.287-.126.568-.126.281 0 .401.053.567.126.201.088.452.198.91.198.459 0 .709-.11.911-.198.167-.073.287-.126.568-.126.281 0 .401.053.568.126.201.088.452.198.911.198.261 0 .472-.237.472-.53 0-.292-.211-.529-.472-.529zm-15.363-11.849c1.107 0 2.09.606 2.701 1.538.109.166.206.344.29.53.076.17.142.346.195.53.06.205.104.418.132.637h-6.635c.23-1.825 1.63-3.234 3.317-3.234zm6.848-2.125l.74-3.343.865 3.907h-1.73l.125-.564zm3.57 7.938h2.349v5.712h-2.349v-5.712zm0-2.685h1.11v1.626h-1.11v-1.626zm-3.773-3.134h1.886v10.58h-1.886v-10.58zm-2.08 11.574h-.229v-1.094c0-.292-.211-.53-.472-.53s-.472.237-.472.53v1.094h-.763v-1.094c0-.292-.211-.53-.472-.53s-.472.237-.472.53v1.094h-.763v-1.094c0-.292-.211-.53-.472-.53s-.472.237-.472.53v1.094h-.763v-1.094c0-.292-.211-.53-.472-.53-.26 0-.472.237-.472.53v1.094h-.763v-1.094c0-.292-.211-.53-.471-.53-.261 0-.472.237-.472.53v1.094h-.763v-1.094c0-.168-.071-.316-.18-.413-.081-.072-.181-.116-.291-.116-.232 0-.423.188-.463.435l-.008.094v1.094h-.463v-2.815h10.514v2.815h-.347zm-7.916-7.275h6.744v1.492h-6.744v-1.492zm-.081 2.614h8.344v.786h-10.358l.203-.786h1.811zm8.087-4.31v3.187h-.319v-2.021l-.047-.226c-.013-.323-.055-.637-.123-.94h.488zm-9.785 1.991h.755v1.259h-.755v-1.259zm-7.209-3.862h4.915v.812h-4.915v-.812zm2.122 11.935v-3.641c.43.474.982 1.309 1.315 2.68.086.354.157.743.208 1.172.037.313.064.645.077 1.001h-1.6v-1.211zm2.5-.939l-.192.076c-.535-2.618-1.8-3.764-2.307-4.129v-1.369c0-.293-.211-.53-.471-.53-.261 0-.472.237-.472.53v5.546l-.08.002c-.281 0-.401-.053-.567-.126-.138-.06-.3-.13-.535-.169l.003-.031v-7.867h4.915v7.867l.008.085-.3.115zm4.747 4.635c-.458 0-.709.11-.911.198-.166.073-.287.126-.567.126-.281 0-.401-.053-.567-.126-.201-.088-.452-.198-.91-.198-.272 0-.47.039-.629.089.361-.314.478-.606.501-.674.055-.163.036-.346-.052-.489-.088-.144-.233-.229-.388-.229h-6.564c-.155 0-.3.086-.388.229-.088.143-.107.326-.052.489.026.076.175.453.676.816-.132.055-.254.092-.49.092-.261 0-.472.237-.472.53 0 .292.211.529.472.529.458 0 .709-.11.91-.198.167-.073.287-.126.568-.126.281 0 .401.053.567.126.202.088.452.198.91.198s.709-.11.91-.198c.167-.073.287-.126.567-.126.28 0 .401.053.567.126.201.088.452.198.911.198.458 0 .709-.11.91-.198.167-.073.287-.126.567-.126.28 0 .401.053.567.126.201.088.452.198.91.198s.709-.11.911-.198c.167-.073.287-.126.568-.126.26 0 .472-.237.472-.53 0-.293-.211-.53-.472-.53zm-8.381-.244h3.147c-.397.099-.91.167-1.573.167-.663 0-1.177-.068-1.573-.167z" fill="#206FAC"/><path d="M3.517 86.845h.209c-.032.127-.051.261-.051.4 0 .804.583 1.459 1.299 1.459h8.458c.316 0 .62-.13.858-.365.28-.277.441-.676.441-1.094 0-.418-.161-.816-.441-1.094-.238-.235-.543-.365-.858-.365h-4.829l.016-.199c0-.36-.139-.704-.38-.943-.205-.203-.468-.315-.74-.315h-3.982c-.618 0-1.12.564-1.12 1.258 0 .693.502 1.258 1.12 1.258zm0-1.456h3.982l.116.05.061.149-.061.148-.116.05h-.002c-.26 0-.472.237-.472.53 0 .292.211.53.472.53h5.935c.11 0 .188.055.235.1.045.045.122.144.122.299 0 .156-.076.255-.121.3-.046.046-.124.101-.235.101h-8.458c-.196 0-.356-.18-.356-.4 0-.221.16-.4.356-.4.261 0 .472-.237.472-.53h.002c0-.293-.211-.53-.472-.53h-1.46c-.098 0-.177-.089-.177-.199 0-.11.079-.199.177-.199zm28.001 17.71c-.281 0-.401-.053-.568-.126-.201-.088-.452-.198-.911-.198l-.174.006v-6.247c0-.293-.211-.53-.471-.53h-.768v-2.156c0-.293-.211-.53-.472-.53h-1.581v-3.134c0-.585-.422-1.059-.943-1.059h-.175l-1.254-5.666c-.052-.236-.241-.402-.458-.402-.217 0-.405.166-.458.402l-1.254 5.666h-.174c-.521 0-.943.474-.943 1.059v2.604h-.95c-.65-1.398-1.893-2.396-3.352-2.57v-1.16c0-.293-.211-.53-.472-.53s-.472.237-.472.53v1.164c-2.072.264-3.701 2.189-3.802 4.557h-.841v-.932c0-.585-.422-1.059-.943-1.059h-.408v-1.342c0-.292-.211-.53-.472-.53h-5.858c-.261 0-.472.237-.472.53v1.342h-.408c-.521 0-.943.474-.943 1.059v9.018l.013.166-.142-.059c-.202-.088-.452-.198-.91-.198-.261 0-.472.237-.472.53 0 .293.211.53.472.53.281 0 .401.053.567.126.201.088.452.198.91.198s.709-.11.91-.198c.166-.073.287-.126.567-.126.281 0 .401.053.567.126.201.088.452.198.91.198l.08-.002v1.497c0 .293.211.53.472.53h2.555c.261 0 .472-.237.472-.53l-.002-.049c-.002-.543-.032-1.044-.084-1.509.152-.039.27-.09.374-.136.166-.073.287-.126.567-.126.281 0 .401.053.567.126.201.088.452.198.91.198s.709-.11.91-.198l.216-.083h.702l.216.083c.201.088.452.198.91.198s.709-.11.91-.198l.216-.083h.703l.216.083c.201.088.452.198.91.198s.709-.11.911-.198l.216-.083h.703l.216.083c.201.088.452.198.911.198.458 0 .709-.11.91-.198l.216-.083h.703l.047.014.012.005.158.064c.201.088.452.198.91.198s.709-.11.911-.198l.041-.018h1.052l.041.018c.201.088.452.198.91.198s.709-.11.911-.198c.166-.073.287-.126.568-.126.281 0 .401.053.567.126.201.088.452.198.91.198.459 0 .709-.11.911-.198.167-.073.287-.126.568-.126.281 0 .401.053.568.126.201.088.452.198.911.198.261 0 .472-.237.472-.53 0-.292-.211-.529-.472-.529zm-15.363-11.849c1.107 0 2.09.606 2.701 1.538.109.166.206.344.29.53.076.17.142.346.195.53.06.205.104.418.132.637h-6.635c.23-1.825 1.63-3.234 3.317-3.234zm6.848-2.125l.74-3.343.865 3.907h-1.73l.125-.564zm3.57 7.938h2.349v5.712h-2.349v-5.712zm0-2.685h1.11v1.626h-1.11v-1.626zm-3.773-3.134h1.886v10.58h-1.886v-10.58zm-2.08 11.574h-.229v-1.094c0-.292-.211-.53-.472-.53s-.472.237-.472.53v1.094h-.763v-1.094c0-.292-.211-.53-.472-.53s-.472.237-.472.53v1.094h-.763v-1.094c0-.292-.211-.53-.472-.53s-.472.237-.472.53v1.094h-.763v-1.094c0-.292-.211-.53-.472-.53-.26 0-.472.237-.472.53v1.094h-.763v-1.094c0-.292-.211-.53-.471-.53-.261 0-.472.237-.472.53v1.094h-.763v-1.094c0-.168-.071-.316-.18-.413-.081-.072-.181-.116-.291-.116-.232 0-.423.188-.463.435l-.008.094v1.094h-.463v-2.815h10.514v2.815h-.347zm-7.916-7.275h6.744v1.492h-6.744v-1.492zm-.081 2.614h8.344v.786h-10.358l.203-.786h1.811zm8.087-4.31v3.187h-.319v-2.021l-.047-.226c-.013-.323-.055-.637-.123-.94h.488zm-9.785 1.991h.755v1.259h-.755v-1.259zm-7.209-3.862h4.915v.812h-4.915v-.812zm2.122 11.935v-3.641c.43.474.982 1.309 1.315 2.68.086.354.157.743.208 1.172.037.313.064.645.077 1.001h-1.6v-1.211zm2.5-.939l-.192.076c-.535-2.618-1.8-3.764-2.307-4.129v-1.369c0-.293-.211-.53-.471-.53-.261 0-.472.237-.472.53v5.546l-.08.002c-.281 0-.401-.053-.567-.126-.138-.06-.3-.13-.535-.169l.003-.031v-7.867h4.915v7.867l.008.085-.3.115zm4.747 4.635c-.458 0-.709.11-.911.198-.166.073-.287.126-.567.126-.281 0-.401-.053-.567-.126-.201-.088-.452-.198-.91-.198-.272 0-.47.039-.629.089.361-.314.478-.606.501-.674.055-.163.036-.346-.052-.489-.088-.144-.233-.229-.388-.229h-6.564c-.155 0-.3.086-.388.229-.088.143-.107.326-.052.489.026.076.175.453.676.816-.132.055-.254.092-.49.092-.261 0-.472.237-.472.53 0 .292.211.529.472.529.458 0 .709-.11.91-.198.167-.073.287-.126.568-.126.281 0 .401.053.567.126.202.088.452.198.91.198s.709-.11.91-.198c.167-.073.287-.126.567-.126.28 0 .401.053.567.126.201.088.452.198.911.198.458 0 .709-.11.91-.198.167-.073.287-.126.567-.126.28 0 .401.053.567.126.201.088.452.198.91.198s.709-.11.911-.198c.167-.073.287-.126.568-.126.26 0 .472-.237.472-.53 0-.293-.211-.53-.472-.53zm-8.381-.244h3.147c-.397.099-.91.167-1.573.167-.663 0-1.177-.068-1.573-.167z" fill="#fff"/><path d="M3.517 46.845h.209c-.032.127-.051.261-.051.4 0 .804.583 1.459 1.299 1.459h8.458c.316 0 .62-.13.858-.365.28-.277.441-.676.441-1.094 0-.418-.161-.816-.441-1.094-.238-.235-.543-.365-.858-.365h-4.829l.016-.199c0-.36-.139-.704-.38-.943-.205-.203-.468-.315-.74-.315h-3.982c-.618 0-1.12.564-1.12 1.258 0 .693.502 1.258 1.12 1.258zm0-1.456h3.982l.116.05.061.149-.061.148-.116.05h-.002c-.26 0-.472.237-.472.53 0 .292.211.53.472.53h5.935c.11 0 .188.055.235.1.045.045.122.144.122.299 0 .156-.076.255-.121.3-.046.046-.124.101-.235.101h-8.458c-.196 0-.356-.18-.356-.4 0-.221.16-.4.356-.4.261 0 .472-.237.472-.53h.002c0-.293-.211-.53-.472-.53h-1.46c-.098 0-.177-.089-.177-.199 0-.11.079-.199.177-.199zm28.001 17.71c-.281 0-.401-.053-.568-.126-.201-.088-.452-.198-.911-.198l-.174.006v-6.247c0-.293-.211-.53-.471-.53h-.768v-2.156c0-.293-.211-.53-.472-.53h-1.581v-3.134c0-.585-.422-1.059-.943-1.059h-.175l-1.254-5.666c-.052-.236-.241-.402-.458-.402-.217 0-.405.166-.458.402l-1.254 5.666h-.174c-.521 0-.943.474-.943 1.059v2.604h-.95c-.65-1.398-1.893-2.396-3.352-2.57v-1.16c0-.293-.211-.53-.472-.53s-.472.237-.472.53v1.164c-2.072.264-3.701 2.189-3.802 4.557h-.841v-.932c0-.585-.422-1.059-.943-1.059h-.408v-1.342c0-.292-.211-.53-.472-.53h-5.858c-.261 0-.472.237-.472.53v1.342h-.408c-.521 0-.943.474-.943 1.059v9.018l.013.166-.142-.059c-.202-.088-.452-.198-.91-.198-.261 0-.472.237-.472.53 0 .293.211.53.472.53.281 0 .401.053.567.126.201.088.452.198.91.198s.709-.11.91-.198c.166-.073.287-.126.567-.126.281 0 .401.053.567.126.201.088.452.198.91.198l.08-.002v1.497c0 .293.211.53.472.53h2.555c.261 0 .472-.237.472-.53l-.002-.049c-.002-.543-.032-1.044-.084-1.509.152-.039.27-.09.374-.136.166-.073.287-.126.567-.126.281 0 .401.053.567.126.201.088.452.198.91.198s.709-.11.91-.198l.216-.083h.702l.216.083c.201.088.452.198.91.198s.709-.11.91-.198l.216-.083h.703l.216.083c.201.088.452.198.91.198s.709-.11.911-.198l.216-.083h.703l.216.083c.201.088.452.198.911.198.458 0 .709-.11.91-.198l.216-.083h.703l.047.014.012.005.158.064c.201.088.452.198.91.198s.709-.11.911-.198l.041-.018h1.052l.041.018c.201.088.452.198.91.198s.709-.11.911-.198c.166-.073.287-.126.568-.126.281 0 .401.053.567.126.201.088.452.198.91.198.459 0 .709-.11.911-.198.167-.073.287-.126.568-.126.281 0 .401.053.568.126.201.088.452.198.911.198.261 0 .472-.237.472-.53 0-.292-.211-.529-.472-.529zm-15.363-11.849c1.107 0 2.09.606 2.701 1.538.109.166.206.344.29.53.076.17.142.346.195.53.06.205.104.418.132.637h-6.635c.23-1.825 1.63-3.234 3.317-3.234zm6.848-2.125l.74-3.343.865 3.907h-1.73l.125-.564zm3.57 7.938h2.349v5.712h-2.349v-5.712zm0-2.685h1.11v1.626h-1.11v-1.626zm-3.773-3.134h1.886v10.58h-1.886v-10.58zm-2.08 11.574h-.229v-1.094c0-.292-.211-.53-.472-.53s-.472.237-.472.53v1.094h-.763v-1.094c0-.292-.211-.53-.472-.53s-.472.237-.472.53v1.094h-.763v-1.094c0-.292-.211-.53-.472-.53s-.472.237-.472.53v1.094h-.763v-1.094c0-.292-.211-.53-.472-.53-.26 0-.472.237-.472.53v1.094h-.763v-1.094c0-.292-.211-.53-.471-.53-.261 0-.472.237-.472.53v1.094h-.763v-1.094c0-.168-.071-.316-.18-.413-.081-.072-.181-.116-.291-.116-.232 0-.423.188-.463.435l-.008.094v1.094h-.463v-2.815h10.514v2.815h-.347zm-7.916-7.275h6.744v1.492h-6.744v-1.492zm-.081 2.614h8.344v.786h-10.358l.203-.786h1.811zm8.087-4.31v3.187h-.319v-2.021l-.047-.226c-.013-.323-.055-.637-.123-.94h.488zm-9.785 1.991h.755v1.259h-.755v-1.259zm-7.209-3.862h4.915v.812h-4.915v-.812zm2.122 11.935v-3.641c.43.474.982 1.309 1.315 2.68.086.354.157.743.208 1.172.037.313.064.645.077 1.001h-1.6v-1.211zm2.5-.939l-.192.076c-.535-2.618-1.8-3.764-2.307-4.129v-1.369c0-.293-.211-.53-.471-.53-.261 0-.472.237-.472.53v5.546l-.08.002c-.281 0-.401-.053-.567-.126-.138-.06-.3-.13-.535-.169l.003-.031v-7.867h4.915v7.867l.008.085-.3.115zm4.747 4.635c-.458 0-.709.11-.911.198-.166.073-.287.126-.567.126-.281 0-.401-.053-.567-.126-.201-.088-.452-.198-.91-.198-.272 0-.47.039-.629.089.361-.314.478-.606.501-.674.055-.163.036-.346-.052-.489-.088-.144-.233-.229-.388-.229h-6.564c-.155 0-.3.086-.388.229-.088.143-.107.326-.052.489.026.076.175.453.676.816-.132.055-.254.092-.49.092-.261 0-.472.237-.472.53 0 .292.211.529.472.529.458 0 .709-.11.91-.198.167-.073.287-.126.568-.126.281 0 .401.053.567.126.202.088.452.198.91.198s.709-.11.91-.198c.167-.073.287-.126.567-.126.28 0 .401.053.567.126.201.088.452.198.911.198.458 0 .709-.11.91-.198.167-.073.287-.126.567-.126.28 0 .401.053.567.126.201.088.452.198.91.198s.709-.11.911-.198c.167-.073.287-.126.568-.126.26 0 .472-.237.472-.53 0-.293-.211-.53-.472-.53zm-8.381-.244h3.147c-.397.099-.91.167-1.573.167-.663 0-1.177-.068-1.573-.167z" fill="#67737B"/><path d="M3.517 6.845h.209c-.032.127-.051.261-.051.4 0 .804.583 1.459 1.299 1.459h8.458c.316 0 .62-.13.858-.365.28-.277.441-.676.441-1.094 0-.418-.161-.816-.441-1.094-.238-.235-.543-.365-.858-.365h-4.829l.016-.199c0-.36-.139-.704-.38-.943-.205-.203-.468-.315-.74-.315h-3.982c-.618 0-1.12.564-1.12 1.258 0 .693.502 1.258 1.12 1.258zm0-1.456h3.982l.116.05.061.149-.061.148-.116.05h-.002c-.26 0-.472.237-.472.53 0 .292.211.53.472.53h5.935c.11 0 .188.055.235.1.045.045.122.144.122.299 0 .156-.076.255-.121.3-.046.046-.124.101-.235.101h-8.458c-.196 0-.356-.18-.356-.4 0-.221.16-.4.356-.4.261 0 .472-.237.472-.53h.002c0-.293-.211-.53-.472-.53h-1.46c-.098 0-.177-.089-.177-.199 0-.11.079-.199.177-.199zm28.001 17.71c-.281 0-.401-.053-.568-.126-.201-.088-.452-.198-.911-.198l-.174.006v-6.247c0-.293-.211-.53-.471-.53h-.768v-2.156c0-.293-.211-.53-.472-.53h-1.581v-3.134c0-.585-.422-1.059-.943-1.059h-.175l-1.254-5.666c-.052-.236-.241-.402-.458-.402-.217 0-.405.166-.458.402l-1.254 5.666h-.174c-.521 0-.943.474-.943 1.059v2.604h-.95c-.65-1.398-1.893-2.396-3.352-2.57v-1.16c0-.293-.211-.53-.472-.53s-.472.237-.472.53v1.164c-2.072.264-3.701 2.189-3.802 4.557h-.841v-.932c0-.585-.422-1.059-.943-1.059h-.408v-1.342c0-.292-.211-.53-.472-.53h-5.858c-.261 0-.472.237-.472.53v1.342h-.408c-.521 0-.943.474-.943 1.059v9.018l.013.166-.142-.059c-.202-.088-.452-.198-.91-.198-.261 0-.472.237-.472.53 0 .293.211.53.472.53.281 0 .401.053.567.126.201.088.452.198.91.198s.709-.11.91-.198c.166-.073.287-.126.567-.126.281 0 .401.053.567.126.201.088.452.198.91.198l.08-.002v1.497c0 .293.211.53.472.53h2.555c.261 0 .472-.237.472-.53l-.002-.049c-.002-.543-.032-1.044-.084-1.509.152-.039.27-.09.374-.136.166-.073.287-.126.567-.126.281 0 .401.053.567.126.201.088.452.198.91.198s.709-.11.91-.198l.216-.083h.702l.216.083c.201.088.452.198.91.198s.709-.11.91-.198l.216-.083h.703l.216.083c.201.088.452.198.91.198s.709-.11.911-.198l.216-.083h.703l.216.083c.201.088.452.198.911.198.458 0 .709-.11.91-.198l.216-.083h.703l.047.014.012.005.158.064c.201.088.452.198.91.198s.709-.11.911-.198l.041-.018h1.052l.041.018c.201.088.452.198.91.198s.709-.11.911-.198c.166-.073.287-.126.568-.126.281 0 .401.053.567.126.201.088.452.198.91.198.459 0 .709-.11.911-.198.167-.073.287-.126.568-.126.281 0 .401.053.568.126.201.088.452.198.911.198.261 0 .472-.237.472-.53 0-.292-.211-.529-.472-.529zm-15.363-11.849c1.107 0 2.09.606 2.701 1.538.109.166.206.344.29.53.076.17.142.346.195.53.06.205.104.418.132.637h-6.635c.23-1.825 1.63-3.234 3.317-3.234zm6.848-2.125l.74-3.343.865 3.907h-1.73l.125-.564zm3.57 7.938h2.349v5.712h-2.349v-5.712zm0-2.685h1.11v1.626h-1.11v-1.626zm-3.773-3.134h1.886v10.58h-1.886v-10.58zm-2.08 11.574h-.229v-1.094c0-.292-.211-.53-.472-.53s-.472.237-.472.53v1.094h-.763v-1.094c0-.292-.211-.53-.472-.53s-.472.237-.472.53v1.094h-.763v-1.094c0-.292-.211-.53-.472-.53s-.472.237-.472.53v1.094h-.763v-1.094c0-.292-.211-.53-.472-.53-.26 0-.472.237-.472.53v1.094h-.763v-1.094c0-.292-.211-.53-.471-.53-.261 0-.472.237-.472.53v1.094h-.763v-1.094c0-.168-.071-.316-.18-.413-.081-.072-.181-.116-.291-.116-.232 0-.423.188-.463.435l-.008.094v1.094h-.463v-2.815h10.514v2.815h-.347zm-7.916-7.275h6.744v1.492h-6.744v-1.492zm-.081 2.614h8.344v.786h-10.358l.203-.786h1.811zm8.087-4.31v3.187h-.319v-2.021l-.047-.226c-.013-.323-.055-.637-.123-.94h.488zm-9.785 1.991h.755v1.259h-.755v-1.259zm-7.209-3.862h4.915v.812h-4.915v-.812zm2.122 11.935v-3.641c.43.474.982 1.309 1.315 2.68.086.354.157.743.208 1.172.037.313.064.645.077 1.001h-1.6v-1.211zm2.5-.939l-.192.076c-.535-2.618-1.8-3.764-2.307-4.129v-1.369c0-.293-.211-.53-.471-.53-.261 0-.472.237-.472.53v5.546l-.08.002c-.281 0-.401-.053-.567-.126-.138-.06-.3-.13-.535-.169l.003-.031v-7.867h4.915v7.867l.008.085-.3.115zm4.747 4.635c-.458 0-.709.11-.911.198-.166.073-.287.126-.567.126-.281 0-.401-.053-.567-.126-.201-.088-.452-.198-.91-.198-.272 0-.47.039-.629.089.361-.314.478-.606.501-.674.055-.163.036-.346-.052-.489-.088-.144-.233-.229-.388-.229h-6.564c-.155 0-.3.086-.388.229-.088.143-.107.326-.052.489.026.076.175.453.676.816-.132.055-.254.092-.49.092-.261 0-.472.237-.472.53 0 .292.211.529.472.529.458 0 .709-.11.91-.198.167-.073.287-.126.568-.126.281 0 .401.053.567.126.202.088.452.198.91.198s.709-.11.91-.198c.167-.073.287-.126.567-.126.28 0 .401.053.567.126.201.088.452.198.911.198.458 0 .709-.11.91-.198.167-.073.287-.126.567-.126.28 0 .401.053.567.126.201.088.452.198.91.198s.709-.11.911-.198c.167-.073.287-.126.568-.126.26 0 .472-.237.472-.53 0-.293-.211-.53-.472-.53zm-8.381-.244h3.147c-.397.099-.91.167-1.573.167-.663 0-1.177-.068-1.573-.167z" fill="#3A434E"/></g></svg>