<svg width="32" height="232" viewBox="0 0 32 232" xmlns="http://www.w3.org/2000/svg" xmlns:sketch="http://www.bohemiancoding.com/sketch/ns"><title>manila</title><desc>Created with Sketch.</desc><g sketch:type="MSPage" fill="none"><g sketch:type="MSShapeGroup"><path d="M31.012 148.846h-1.324v-6.407h.218c.273 0 .495-.238.495-.532 0-.293-.221-.532-.495-.532h-.218v-1.74c0-.393-.199-.736-.495-.919v-5.227c0-.138-.05-.262-.13-.357v-4.47c0-.271-.189-.492-.433-.525v-1.352c0-.294-.222-.532-.496-.532h-.471v-1.199c.226-.049.398-.263.398-.521 0-.293-.222-.531-.496-.531h-.018c-.267-.63-.939-1.118-1.345-1.368v-.389c.218-.056.381-.265.381-.516 0-.255-.168-.468-.392-.52-.047-.241-.246-.421-.484-.421s-.436.18-.483.421c-.224.051-.392.264-.392.52 0 .252.162.461.381.516v.389c-.407.25-1.078.737-1.346 1.368h-.018c-.274 0-.495.238-.495.531 0 .258.171.473.398.521v1.199h-.472c-.273 0-.495.238-.495.532v1.352c-.244.032-.434.254-.434.525v1.504l-5.829-3.951v-.835h.042c.273 0 .495-.238.495-.532 0-.293-.222-.531-.495-.531h-.042v-.044c0-.293-.221-.532-.495-.532-.273 0-.495.239-.495.532v.044h-.041c-.273 0-.495.238-.495.531 0 .294.221.532.495.532h.041v.835l-5.829 3.951v-1.504c0-.271-.19-.492-.434-.525v-1.352c0-.294-.221-.532-.495-.532h-.471v-1.199c.227-.049.397-.263.397-.521 0-.293-.222-.531-.495-.531h-.018c-.268-.63-.939-1.118-1.346-1.368v-.389c.218-.056.381-.265.381-.516 0-.255-.168-.468-.392-.52-.047-.241-.246-.421-.484-.421-.239 0-.437.18-.484.421-.224.051-.392.264-.392.52 0 .252.163.461.381.516v.389c-.407.25-1.078.737-1.346 1.368h-.019c-.273 0-.495.238-.495.531 0 .258.171.473.398.521v1.199h-.472c-.273 0-.495.238-.495.532v1.352c-.244.032-.434.254-.434.525v4.47c-.08.095-.129.219-.129.356v5.227c-.296.183-.496.526-.496.919v1.74h-.218c-.273 0-.495.238-.495.532 0 .294.222.532.495.532h.218v6.407h-1.324c-.547 0-.99.476-.99 1.063s.444 1.063.99 1.063h29.973c.547 0 .99-.476.99-1.063s-.443-1.063-.99-1.063zm-24.667-25.291c.231.142.434.298.594.448h-1.189c.16-.15.363-.306.595-.448zm-.966 1.511h1.932v1.189h-1.932v-1.189zm4.323 7.178h12.647v.668h-12.647v-.668zm16.004-8.689c.212.132.423.29.594.448h-1.189c.16-.15.363-.306.594-.448zm-.965 1.511h1.932v1.189h-1.932v-1.189zm-5.295 20.048c-.053-.075-1.337-1.821-3.42-1.821-2.082 0-3.366 1.746-3.42 1.821-.067.092-.104.207-.104.325v3.408h-1.159v-6.407h9.366v6.407h-1.16v-3.408c0-.118-.036-.233-.104-.325zm-11.612.353v3.379h-1.117v-3.379h-.99v3.379h-1.383v-4.49h6.009v4.49h-1.529v-3.379h-.99zm-3.49-3.028h6.009v.854h-6.009v-.854zm23.365-1.064h-5.828l.2-.676h5.628v.676zm0 7.471h-1.383v-3.379h-.991v3.379h-1.116v-3.379h-.991v3.379h-1.529v-4.49h6.009v4.49zm-15.108-10.273v-4.598h6.852v5.13h-.602v-2.925c0-.293-.221-.532-.495-.532h-.986c-.202-.585-.728-1.004-1.343-1.004s-1.141.419-1.342 1.004h-.987c-.274 0-.495.238-.495.532v2.925h-.602v-.532zm-1.589 2.126l-.157-.532h10.345l-.157.532-.2.676h-9.631l-.2-.676zm3.181-2.126v-1.861h.899c.274 0 .496-.238.496-.532 0-.261.197-.473.44-.473s.441.213.441.473c0 .294.221.532.495.532h.898v2.393h-3.669v-.532zm7.507 3.866h6.009v.854h-6.009v-.854zm.651-3.866v.532h-1.908v-5.13h1.908v4.598zm-12.647 0v-4.598h1.908v5.13h-1.908v-.532zm-5.359 2.126h5.629l.2.676h-5.829v-.676zm9.149 8.147v-3.21c.299-.347 1.223-1.28 2.533-1.28 1.301 0 2.233.936 2.533 1.281v3.741h-5.066v-.532zm13.1-10.273v-1.25c-.021-.505-.41-.909-.887-.909-.476 0-.864.403-.886.909v1.25h-1.48v-4.552h4.864v4.552h-1.611zm-2.819-11.255h3.866v.814h-3.866v-.814zm-.434 3.521v-1.644h4.734v3.763h-1.48v-1.337c-.021-.505-.41-.909-.887-.909-.465 0-.847.386-.883.876l-.003.032v1.337h-1.48v-2.119zm-14.628.341v1.778h-1.48v-1.337l-.003-.033c-.036-.489-.417-.876-.883-.876-.476 0-.865.403-.887.909v1.337h-1.48v-3.763h4.734v1.985zm-4.3-3.862h3.866v.814h-3.866v-.814zm-.563 6.703h4.864v4.552h-1.481v-1.25c-.022-.505-.41-.909-.886-.909-.476 0-.865.403-.887.909v1.25h-1.61v-4.552zm12.13-6.852l.047.005.047-.005 5.917 4.01h-3.139v-.932c0-.294-.221-.532-.495-.532-.273 0-.495.238-.495.532v.932h-3.669v-.932c0-.294-.221-.532-.495-.532s-.495.238-.495.532v.932h-3.139l5.917-4.01zm-.174 2.755c.068.036.144.055.22.055.098 0 .194-.031.275-.09.109-.078.185-.201.211-.339.026-.139-.001-.282-.074-.399l-.06-.078c-.107-.116-.256-.172-.406-.155-.112.013-.216.067-.296.152-.15.161-.188.409-.093.614.048.104.126.188.223.24z" fill="#206FAC"/><path d="M31.012 108.846h-1.324v-6.407h.218c.273 0 .495-.238.495-.532 0-.293-.221-.532-.495-.532h-.218v-1.74c0-.393-.199-.736-.495-.919v-5.227c0-.138-.05-.262-.13-.357v-4.47c0-.271-.189-.492-.433-.525v-1.352c0-.294-.222-.532-.496-.532h-.471v-1.199c.226-.049.398-.263.398-.521 0-.293-.222-.531-.496-.531h-.018c-.267-.63-.939-1.118-1.345-1.368v-.389c.218-.056.381-.265.381-.516 0-.255-.168-.468-.392-.52-.047-.241-.246-.421-.484-.421s-.436.18-.483.421c-.224.051-.392.264-.392.52 0 .252.162.461.381.516v.389c-.407.25-1.078.737-1.346 1.368h-.018c-.274 0-.495.238-.495.531 0 .258.171.473.398.521v1.199h-.472c-.273 0-.495.238-.495.532v1.352c-.244.032-.434.254-.434.525v1.504l-5.829-3.951v-.835h.042c.273 0 .495-.238.495-.532 0-.293-.222-.531-.495-.531h-.042v-.044c0-.293-.221-.532-.495-.532-.273 0-.495.239-.495.532v.044h-.041c-.273 0-.495.238-.495.531 0 .294.221.532.495.532h.041v.835l-5.829 3.951v-1.504c0-.271-.19-.492-.434-.525v-1.352c0-.294-.221-.532-.495-.532h-.471v-1.199c.227-.049.397-.263.397-.521 0-.293-.222-.531-.495-.531h-.018c-.268-.63-.939-1.118-1.346-1.368v-.389c.218-.056.381-.265.381-.516 0-.255-.168-.468-.392-.52-.047-.241-.246-.421-.484-.421-.239 0-.437.18-.484.421-.224.051-.392.264-.392.52 0 .252.163.461.381.516v.389c-.407.25-1.078.737-1.346 1.368h-.019c-.273 0-.495.238-.495.531 0 .258.171.473.398.521v1.199h-.472c-.273 0-.495.238-.495.532v1.352c-.244.032-.434.254-.434.525v4.47c-.08.095-.129.219-.129.356v5.227c-.296.183-.496.526-.496.919v1.74h-.218c-.273 0-.495.238-.495.532 0 .294.222.532.495.532h.218v6.407h-1.324c-.547 0-.99.476-.99 1.063s.444 1.063.99 1.063h29.973c.547 0 .99-.476.99-1.063s-.443-1.063-.99-1.063zm-24.667-25.291c.231.142.434.298.594.448h-1.189c.16-.15.363-.307.595-.448zm-.966 1.511h1.932v1.189h-1.932v-1.189zm4.323 7.178h12.647v.668h-12.647v-.668zm16.004-8.689c.212.132.423.29.594.448h-1.189c.16-.15.363-.307.594-.448zm-.965 1.511h1.932v1.189h-1.932v-1.189zm-5.295 20.048c-.053-.075-1.337-1.821-3.42-1.821-2.082 0-3.366 1.746-3.42 1.821-.067.092-.104.207-.104.325v3.408h-1.159v-6.407h9.366v6.407h-1.16v-3.408c0-.118-.036-.233-.104-.325zm-11.612.353v3.379h-1.117v-3.379h-.99v3.379h-1.383v-4.49h6.009v4.49h-1.529v-3.379h-.99zm-3.49-3.028h6.009v.854h-6.009v-.854zm23.365-1.064h-5.828l.2-.676h5.628v.676zm0 7.471h-1.383v-3.379h-.991v3.379h-1.116v-3.379h-.991v3.379h-1.529v-4.49h6.009v4.49zm-15.108-10.273v-4.598h6.852v5.13h-.602v-2.925c0-.293-.221-.532-.495-.532h-.986c-.202-.585-.728-1.004-1.343-1.004s-1.141.419-1.342 1.004h-.987c-.274 0-.495.238-.495.532v2.925h-.602v-.532zm-1.589 2.126l-.157-.532h10.345l-.157.532-.2.676h-9.631l-.2-.676zm3.181-2.126v-1.861h.899c.274 0 .496-.238.496-.532 0-.261.197-.473.44-.473s.441.213.441.473c0 .294.221.532.495.532h.898v2.393h-3.669v-.532zm7.507 3.866h6.009v.854h-6.009v-.854zm.651-3.866v.532h-1.908v-5.13h1.908v4.598zm-12.647 0v-4.598h1.908v5.13h-1.908v-.532zm-5.359 2.126h5.629l.2.676h-5.829v-.676zm9.149 8.147v-3.21c.299-.347 1.223-1.28 2.533-1.28 1.301 0 2.233.936 2.533 1.281v3.741h-5.066v-.532zm13.1-10.273v-1.25c-.021-.505-.41-.909-.887-.909-.476 0-.864.403-.886.909v1.25h-1.48v-4.552h4.864v4.552h-1.611zm-2.819-11.255h3.866v.814h-3.866v-.814zm-.434 3.521v-1.644h4.734v3.763h-1.48v-1.337c-.021-.505-.41-.909-.887-.909-.465 0-.847.386-.883.876l-.003.032v1.337h-1.48v-2.119zm-14.628.341v1.778h-1.48v-1.337l-.003-.033c-.036-.489-.417-.876-.883-.876-.476 0-.865.403-.887.909v1.337h-1.48v-3.763h4.734v1.985zm-4.3-3.862h3.866v.814h-3.866v-.814zm-.563 6.703h4.864v4.552h-1.481v-1.25c-.022-.505-.41-.909-.886-.909-.476 0-.865.403-.887.909v1.25h-1.61v-4.552zm12.13-6.852l.047.005.047-.005 5.917 4.01h-3.139v-.932c0-.294-.221-.532-.495-.532-.273 0-.495.238-.495.532v.932h-3.669v-.932c0-.294-.221-.532-.495-.532s-.495.238-.495.532v.932h-3.139l5.917-4.01zm-.174 2.755c.068.036.144.055.22.055.098 0 .194-.031.275-.09.109-.078.185-.201.211-.339.026-.139-.001-.282-.074-.399l-.06-.078c-.107-.116-.256-.172-.406-.155-.112.013-.216.067-.296.152-.15.161-.188.409-.093.614.048.104.126.188.223.24z" fill="#fff"/><path d="M31.012 68.846h-1.324v-6.407h.218c.273 0 .495-.238.495-.532 0-.293-.221-.532-.495-.532h-.218v-1.74c0-.393-.199-.736-.495-.919v-5.227c0-.138-.05-.262-.13-.357v-4.47c0-.271-.189-.492-.433-.525v-1.352c0-.294-.222-.532-.496-.532h-.471v-1.199c.226-.049.398-.263.398-.521 0-.293-.222-.531-.496-.531h-.018c-.267-.63-.939-1.118-1.345-1.368v-.389c.218-.056.381-.265.381-.516 0-.255-.168-.468-.392-.52-.047-.241-.246-.421-.484-.421s-.436.18-.483.421c-.224.051-.392.264-.392.52 0 .252.162.461.381.516v.389c-.407.25-1.078.737-1.346 1.368h-.018c-.274 0-.495.238-.495.531 0 .258.171.473.398.521v1.199h-.472c-.273 0-.495.238-.495.532v1.352c-.244.032-.434.254-.434.525v1.504l-5.829-3.951v-.835h.042c.273 0 .495-.238.495-.532 0-.293-.222-.531-.495-.531h-.042v-.044c0-.293-.221-.532-.495-.532-.273 0-.495.239-.495.532v.044h-.041c-.273 0-.495.238-.495.531 0 .294.221.532.495.532h.041v.835l-5.829 3.951v-1.504c0-.271-.19-.492-.434-.525v-1.352c0-.294-.221-.532-.495-.532h-.471v-1.199c.227-.049.397-.263.397-.521 0-.293-.222-.531-.495-.531h-.018c-.268-.63-.939-1.118-1.346-1.368v-.389c.218-.056.381-.265.381-.516 0-.255-.168-.468-.392-.52-.047-.241-.246-.421-.484-.421-.239 0-.437.18-.484.421-.224.051-.392.264-.392.52 0 .252.163.461.381.516v.389c-.407.25-1.078.737-1.346 1.368h-.019c-.273 0-.495.238-.495.531 0 .258.171.473.398.521v1.199h-.472c-.273 0-.495.238-.495.532v1.352c-.244.032-.434.254-.434.525v4.47c-.08.095-.129.219-.129.356v5.227c-.296.183-.496.526-.496.919v1.74h-.218c-.273 0-.495.238-.495.532 0 .294.222.532.495.532h.218v6.407h-1.324c-.547 0-.99.476-.99 1.063s.444 1.063.99 1.063h29.973c.547 0 .99-.476.99-1.063s-.443-1.063-.99-1.063zm-24.667-25.291c.231.142.434.298.594.448h-1.189c.16-.15.363-.307.595-.448zm-.966 1.511h1.932v1.189h-1.932v-1.189zm4.323 7.178h12.647v.668h-12.647v-.668zm16.004-8.689c.212.132.423.29.594.448h-1.189c.16-.15.363-.307.594-.448zm-.965 1.511h1.932v1.189h-1.932v-1.189zm-5.295 20.048c-.053-.075-1.337-1.821-3.42-1.821-2.082 0-3.366 1.746-3.42 1.821-.067.092-.104.207-.104.325v3.408h-1.159v-6.407h9.366v6.407h-1.16v-3.408c0-.118-.036-.233-.104-.325zm-11.612.353v3.379h-1.117v-3.379h-.99v3.379h-1.383v-4.49h6.009v4.49h-1.529v-3.379h-.99zm-3.49-3.028h6.009v.854h-6.009v-.854zm23.365-1.064h-5.828l.2-.676h5.628v.676zm0 7.471h-1.383v-3.379h-.991v3.379h-1.116v-3.379h-.991v3.379h-1.529v-4.49h6.009v4.49zm-15.108-10.273v-4.598h6.852v5.13h-.602v-2.925c0-.293-.221-.532-.495-.532h-.986c-.202-.585-.728-1.004-1.343-1.004s-1.141.419-1.342 1.004h-.987c-.274 0-.495.238-.495.532v2.925h-.602v-.532zm-1.589 2.126l-.157-.532h10.345l-.157.532-.2.676h-9.631l-.2-.676zm3.181-2.126v-1.861h.899c.274 0 .496-.238.496-.532 0-.261.197-.473.44-.473s.441.213.441.473c0 .294.221.532.495.532h.898v2.393h-3.669v-.532zm7.507 3.866h6.009v.854h-6.009v-.854zm.651-3.866v.532h-1.908v-5.13h1.908v4.598zm-12.647 0v-4.598h1.908v5.13h-1.908v-.532zm-5.359 2.126h5.629l.2.676h-5.829v-.676zm9.149 8.147v-3.21c.299-.347 1.223-1.28 2.533-1.28 1.301 0 2.233.936 2.533 1.281v3.741h-5.066v-.532zm13.1-10.273v-1.25c-.021-.505-.41-.909-.887-.909-.476 0-.864.403-.886.909v1.25h-1.48v-4.552h4.864v4.552h-1.611zm-2.819-11.255h3.866v.814h-3.866v-.814zm-.434 3.521v-1.644h4.734v3.763h-1.48v-1.337c-.021-.505-.41-.909-.887-.909-.465 0-.847.386-.883.876l-.003.032v1.337h-1.48v-2.119zm-14.628.341v1.778h-1.48v-1.337l-.003-.033c-.036-.489-.417-.876-.883-.876-.476 0-.865.403-.887.909v1.337h-1.48v-3.763h4.734v1.985zm-4.3-3.862h3.866v.814h-3.866v-.814zm-.563 6.703h4.864v4.552h-1.481v-1.25c-.022-.505-.41-.909-.886-.909-.476 0-.865.403-.887.909v1.25h-1.61v-4.552zm12.13-6.852l.047.005.047-.005 5.917 4.01h-3.139v-.932c0-.294-.221-.532-.495-.532-.273 0-.495.238-.495.532v.932h-3.669v-.932c0-.294-.221-.532-.495-.532s-.495.238-.495.532v.932h-3.139l5.917-4.01zm-.174 2.755c.068.036.144.055.22.055.098 0 .194-.031.275-.09.109-.078.185-.201.211-.339.026-.139-.001-.282-.074-.399l-.06-.078c-.107-.116-.256-.172-.406-.155-.112.013-.216.067-.296.152-.15.161-.188.409-.093.614.048.104.126.188.223.24z" fill="#67737B"/><path d="M31.012 28.846h-1.324v-6.407h.218c.273 0 .495-.238.495-.532 0-.293-.221-.532-.495-.532h-.218v-1.74c0-.393-.199-.736-.495-.919v-5.227c0-.138-.05-.262-.13-.357v-4.47c0-.271-.189-.492-.433-.525v-1.352c0-.294-.222-.532-.496-.532h-.471v-1.199c.226-.049.398-.263.398-.521 0-.293-.222-.531-.496-.531h-.018c-.267-.63-.939-1.118-1.345-1.368v-.389c.218-.056.381-.265.381-.516 0-.255-.168-.468-.392-.52-.047-.241-.246-.421-.484-.421s-.436.18-.483.421c-.224.051-.392.264-.392.52 0 .252.162.461.381.516v.389c-.407.25-1.078.737-1.346 1.368h-.018c-.274 0-.495.238-.495.531 0 .258.171.473.398.521v1.199h-.472c-.273 0-.495.238-.495.532v1.352c-.244.032-.434.254-.434.525v1.504l-5.829-3.951v-.835h.042c.273 0 .495-.238.495-.532 0-.293-.222-.531-.495-.531h-.042v-.044c0-.293-.221-.532-.495-.532-.273 0-.495.239-.495.532v.044h-.041c-.273 0-.495.238-.495.531 0 .294.221.532.495.532h.041v.835l-5.829 3.951v-1.504c0-.271-.19-.492-.434-.525v-1.352c0-.294-.221-.532-.495-.532h-.471v-1.199c.227-.049.397-.263.397-.521 0-.293-.222-.531-.495-.531h-.018c-.268-.63-.939-1.118-1.346-1.368v-.389c.218-.056.381-.265.381-.516 0-.255-.168-.468-.392-.52-.047-.241-.246-.421-.484-.421-.239 0-.437.18-.484.421-.224.051-.392.264-.392.52 0 .252.163.461.381.516v.389c-.407.25-1.078.737-1.346 1.368h-.019c-.273 0-.495.238-.495.531 0 .258.171.473.398.521v1.199h-.472c-.273 0-.495.238-.495.532v1.352c-.244.032-.434.254-.434.525v4.47c-.08.095-.129.219-.129.356v5.227c-.296.183-.496.526-.496.919v1.74h-.218c-.273 0-.495.238-.495.532 0 .294.222.532.495.532h.218v6.407h-1.324c-.547 0-.99.476-.99 1.063s.444 1.063.99 1.063h29.973c.547 0 .99-.476.99-1.063s-.443-1.063-.99-1.063zm-24.667-25.291c.231.142.434.298.594.448h-1.189c.16-.15.363-.307.595-.448zm-.966 1.511h1.932v1.189h-1.932v-1.189zm4.323 7.178h12.647v.668h-12.647v-.668zm16.004-8.689c.212.132.423.29.594.448h-1.189c.16-.15.363-.307.594-.448zm-.965 1.511h1.932v1.189h-1.932v-1.189zm-5.295 20.048c-.053-.075-1.337-1.821-3.42-1.821-2.082 0-3.366 1.746-3.42 1.821-.067.092-.104.207-.104.325v3.408h-1.159v-6.407h9.366v6.407h-1.16v-3.408c0-.118-.036-.233-.104-.325zm-11.612.353v3.379h-1.117v-3.379h-.99v3.379h-1.383v-4.49h6.009v4.49h-1.529v-3.379h-.99zm-3.49-3.028h6.009v.854h-6.009v-.854zm23.365-1.064h-5.828l.2-.676h5.628v.676zm0 7.471h-1.383v-3.379h-.991v3.379h-1.116v-3.379h-.991v3.379h-1.529v-4.49h6.009v4.49zm-15.108-10.273v-4.598h6.852v5.13h-.602v-2.925c0-.293-.221-.532-.495-.532h-.986c-.202-.585-.728-1.004-1.343-1.004s-1.141.419-1.342 1.004h-.987c-.274 0-.495.238-.495.532v2.925h-.602v-.532zm-1.589 2.126l-.157-.532h10.345l-.157.532-.2.676h-9.631l-.2-.676zm3.181-2.126v-1.861h.899c.274 0 .496-.238.496-.532 0-.261.197-.473.44-.473s.441.213.441.473c0 .294.221.532.495.532h.898v2.393h-3.669v-.532zm7.507 3.866h6.009v.854h-6.009v-.854zm.651-3.866v.532h-1.908v-5.13h1.908v4.598zm-12.647 0v-4.598h1.908v5.13h-1.908v-.532zm-5.359 2.126h5.629l.2.676h-5.829v-.676zm9.149 8.147v-3.21c.299-.347 1.223-1.28 2.533-1.28 1.301 0 2.233.936 2.533 1.281v3.741h-5.066v-.532zm13.1-10.273v-1.25c-.021-.505-.41-.909-.887-.909-.476 0-.864.403-.886.909v1.25h-1.48v-4.552h4.864v4.552h-1.611zm-2.819-11.255h3.866v.814h-3.866v-.814zm-.434 3.521v-1.644h4.734v3.763h-1.48v-1.337c-.021-.505-.41-.909-.887-.909-.465 0-.847.386-.883.876l-.003.032v1.337h-1.48v-2.119zm-14.628.341v1.778h-1.48v-1.337l-.003-.033c-.036-.489-.417-.876-.883-.876-.476 0-.865.403-.887.909v1.337h-1.48v-3.763h4.734v1.985zm-4.3-3.862h3.866v.814h-3.866v-.814zm-.563 6.703h4.864v4.552h-1.481v-1.25c-.022-.505-.41-.909-.886-.909-.476 0-.865.403-.887.909v1.25h-1.61v-4.552zm12.13-6.852l.047.005.047-.005 5.917 4.01h-3.139v-.932c0-.294-.221-.532-.495-.532-.273 0-.495.238-.495.532v.932h-3.669v-.932c0-.294-.221-.532-.495-.532s-.495.238-.495.532v.932h-3.139l5.917-4.01zm-.174 2.755c.068.036.144.055.22.055.098 0 .194-.031.275-.09.109-.078.185-.201.211-.339.026-.139-.001-.282-.074-.399l-.06-.078c-.107-.116-.256-.172-.406-.155-.112.013-.216.067-.296.152-.15.161-.188.409-.093.614.048.104.126.188.223.24z" fill="#3A434E"/></g></g></svg>