<svg width="32" height="232" viewBox="0 0 32 232" xmlns="http://www.w3.org/2000/svg" xmlns:sketch="http://www.bohemiancoding.com/sketch/ns"><title>marrakesh</title><desc>Created with Sketch.</desc><g sketch:type="MSPage" fill="none"><g sketch:type="MSShapeGroup"><path d="M5.452 123.62h.08l-.023.246c0 .714.545 1.296 1.215 1.296h5.566c.295 0 .581-.115.803-.324.262-.246.412-.6.412-.971 0-.372-.15-.726-.412-.971-.223-.21-.508-.325-.804-.325h-2.307l.004-.078c0-.324-.131-.633-.358-.847-.194-.182-.443-.283-.7-.283h-3.477c-.584 0-1.059.507-1.059 1.13 0 .622.475 1.128 1.059 1.128zm0-1.207h3.477l.048.02.026.059-.027.059-.047.02h-.002c-.271 0-.492.235-.492.525 0 .29.221.525.492.525h3.363l.152.062c.029.027.078.088.078.184s-.049.157-.079.184l-.152.062h-5.566c-.127 0-.231-.11-.231-.246s.103-.246.231-.246c.272 0 .492-.235.492-.525h.002c0-.29-.221-.525-.492-.525h-1.274l-.075-.078.075-.079zm25.566 26.094h-2.101c.375-.525.588-1.144.588-1.811l-.001-.087c.005-.096-.002-.193-.023-.288-.036-.286-.111-.564-.227-.83l-2.157-7.834c-.026-.541-.18-1.063-.451-1.524l-.041-.067c-.11-.179-.237-.344-.377-.493-.327-.348-.716-.605-1.141-.76.11-.087.214-.182.312-.287.313-.335.534-.73.664-1.151.461-.238.813-.693.921-1.253l.071-.364c.109-.564-.044-1.128-.378-1.539.003-.37-.059-.736-.182-1.082h2.701c.272 0 .492-.235.492-.525 0-.289-.22-.525-.492-.525h-3.333c-.387-.419-.881-.707-1.434-.829-.188-.041-.38-.062-.571-.062-1.141 0-2.157.744-2.591 1.835-.301.155-.555.404-.725.715h-1.421v-1.96c0-.29-.221-.525-.493-.525h-6.596c-.271 0-.492.235-.492.525v.142h-2.215c-.272 0-.492.235-.492.525v1.432h-.887v-.738c0-.289-.22-.524-.492-.524h-2.511v-1.805c0-.291-.22-.525-.492-.525h-3.938c-.272 0-.492.235-.492.525 0 .289.221.524.492.524h3.446v1.805c0 .291.22.525.492.525h2.51v.738c0 .29.221.525.492.525h1.871c.271 0 .492-.235.492-.525v-1.432h2.215c.272 0 .493-.235.493-.524v-.143h5.612v1.961c0 .29.221.525.492.525h1.628c-.063.557.123 1.095.473 1.474-.049.811.215 1.639.795 2.257.271.289.59.509.937.655-.159.114-.308.244-.446.392-.297.317-.531.702-.679 1.121l-1.143 1.976-1.044-.715c.06-.189.094-.389.094-.592l1.534-1.844c.173-.208.164-.523-.02-.72l-.889-.947c-.184-.196-.48-.206-.674-.022l-1.73 1.636c-.467.004-.905.199-1.236.55-.371.396-.553.933-.512 1.48l-2.126 2.521c-.175.207-.167.524.018.722v.001l-.809.862c-.192.206-.192.537 0 .743.096.103.222.154.348.154.126 0 .251-.052.348-.154l.81-.864c.095.096.217.145.339.145.117 0 .235-.044.328-.135l1.385-1.327c.086.203.205.393.361.559l.038.038 2.784 2.667c.224.232.495.407.792.511l.199.087-2.537.457c-1.846.039-3.279 1.28-3.279 2.859 0 .416.1.809.28 1.162h-1.978v-2.271c0-.713-.309-1.344-.782-1.727.054-.19.085-.392.085-.602v-1.904c0-1.075-.767-1.949-1.709-1.949h-1.767c-.151-.514-.34-1.036-.528-1.553-.11-.303-.221-.609-.319-.903-.192-.571-.338-1.099-.338-1.469 0-.297.057-.497.168-.594.201-.173.641-.189.955-.147l.141.025c.365.087.729-.056.958-.338h.79c.272 0 .492-.235.492-.524 0-.29-.22-.525-.492-.525h-.61c-.111-.322-.368-.579-.704-.661-.17-.041-1.691-.378-2.756.527-.416.354-.912 1.029-.912 2.237 0 .953.383 2.01.79 3.13l.282.795h-2.229c-.942 0-1.709.874-1.709 1.949v1.904c0 .21.03.413.085.602-.472.383-.782 1.014-.782 1.727v2.271h-.912c-.544 0-.985.47-.985 1.05 0 .58.441 1.05.985 1.05h29.802c.544 0 .985-.47.985-1.05 0-.58-.441-1.05-.985-1.05zm-16.355-8.127l-.028-.029 1.97-2.336c.108-.128.15-.304.114-.471-.063-.285.014-.578.206-.783.171-.182.412-.269.653-.236.141.019.283-.028.389-.128l1.534-1.452.233.249-1.36 1.636c-.095.113-.138.264-.12.414l-.009.268c-.029.161-.102.309-.213.428l-.083.075c-.204.005-.4.059-.575.159l-.076-.014c-.157-.04-.323.006-.442.12l-2.191 2.101zm9.193-11.084l.174.019c.221.048.412.187.536.388l.056.108c.078.173.103.368.068.56l-.001.006-.013.053-.002.011c-.065.28-.017.564.114.795l.069.106-2.278-.501-.06-.013c.25-.145.436-.403.496-.718l.009-.044.008-.06c.038-.18.125-.34.246-.461.153-.154.359-.248.58-.248zm1.065 4.205c-.062.1-.135.196-.219.284-.331.354-.772.549-1.242.549s-.911-.195-1.242-.549c-.261-.278-.422-.624-.484-.984l3.186.701zm-8.729 13.844c0-.696.866-1.285 1.89-1.285l.082-.008.52-.093-1.321 2.548-.011.02-.059-.02c-.643-.207-1.101-.655-1.101-1.162zm1.563-7.741c-.052-.06-.081-.138-.081-.22l.048-.173.041-.055c.092-.098.241-.115.354-.053l.072.053.082.071 1.54 1.054v1.293l-2.056-1.97zm3.041 2.688v-1.74l.126-.145 1.722-2.979.048-.111c.074-.239.196-.45.365-.629.283-.303.661-.469 1.062-.469s.779.166 1.063.469c.073.078.14.166.197.261l.004.006c.157.259.239.559.239.867l.02.149 2.216 8.045.032.087c.071.151.115.309.13.469l.003.02v.003l.004.102c0 .298-.101.581-.279.835l-.461-.006-.191-.012c-.99-.077-1.775-.392-2.337-.943-.393-.385-.618-.833-.745-1.208l-.102-.361c-.058-.254-.066-.424-.066-.433l-.002-.015v-.017l-.214-2.442 1.455-1.552c.193-.205.193-.537 0-.742-.192-.205-.504-.205-.696 0l-1.016 1.083-.602.642-.728.777c-.184.196-.428.304-.689.304-.154 0-.307-.039-.442-.112l-.091-.038-.046-.017.021-.146zm-2.309 6.215l1.437-2.773 3.018-.544c.032.151.076.323.138.507.169.504.468 1.105.999 1.63.323.32.698.58 1.12.778.351.164.736.286 1.154.366l-.125.036c-.297.08-.616.124-.945.124h-6.861l.064-.124zm-13.694-6.354h5.558v1.602h-5.558v-1.602zm-.697 6.338v-.294h2.767c.272 0 .492-.235.492-.525 0-.29-.22-.525-.492-.525h-2.767v-.927h6.952l.001.015v2.256l-.001.015h-6.952v-.015zm20.968-21.888c.077.204.262.328.456.328l.184-.038 1.624-.699c.252-.108.374-.414.273-.683-.102-.269-.389-.4-.641-.291l-1.624.699c-.252.108-.374.414-.272.683zm-4.735-2.147c.077.204.262.328.457.328l.184-.038c.252-.108.374-.415.272-.683l-.655-1.732c-.101-.268-.388-.399-.64-.29-.252.108-.374.414-.273.683l.655 1.732zm-3.444 1.586l1.722.78.192.042c.191 0 .374-.12.453-.32.107-.267-.01-.575-.26-.688l-1.722-.78c-.25-.114-.539.01-.646.277-.106.267.011.575.261.688zm6.493-1.272l.192.042c.191 0 .374-.12.453-.319l.732-1.837c.107-.266-.01-.574-.26-.688-.25-.112-.539.011-.646.278l-.732 1.836c-.107.267.011.575.261.688zm1.025.75c.096.106.224.159.353.159.124 0 .247-.049.343-.149l.852-.881c.194-.202.199-.534.01-.743-.19-.208-.501-.212-.696-.011l-.852.882c-.195.202-.199.534-.01.742zm-5.144-.079c.097.106.225.159.353.159.123 0 .248-.049.343-.148.194-.202.199-.534.01-.742l-.827-.909c-.19-.208-.501-.213-.696-.011-.195.202-.199.534-.01.743l.827.908zm2.934-.938l.007.001c.268 0 .488-.23.492-.517l.017-1.265c.004-.29-.213-.528-.485-.533h-.007c-.269 0-.488.229-.492.517l-.017 1.265c-.004.29.213.529.486.532z" fill="#206FAC"/><path d="M5.452 83.62h.08l-.023.246c0 .714.545 1.296 1.215 1.296h5.566c.295 0 .581-.115.803-.324.262-.246.412-.6.412-.971 0-.372-.15-.726-.412-.971-.223-.21-.508-.325-.804-.325h-2.307l.004-.078c0-.324-.131-.633-.358-.847-.194-.182-.443-.283-.7-.283h-3.477c-.584 0-1.059.507-1.059 1.13 0 .622.475 1.128 1.059 1.128zm0-1.207h3.477l.048.02.026.059-.027.059-.047.02h-.002c-.271 0-.492.235-.492.525 0 .29.221.525.492.525h3.363l.152.062c.029.027.078.088.078.184s-.049.157-.079.184l-.152.062h-5.566c-.127 0-.231-.11-.231-.246s.103-.246.231-.246c.272 0 .492-.235.492-.525h.002c0-.29-.221-.525-.492-.525h-1.274l-.075-.078.075-.079zm25.566 26.094h-2.101c.375-.525.588-1.144.588-1.811l-.001-.087c.005-.096-.002-.193-.023-.288-.036-.286-.111-.564-.227-.83l-2.157-7.834c-.026-.541-.18-1.063-.451-1.524l-.041-.067c-.11-.179-.237-.344-.377-.493-.327-.348-.716-.605-1.141-.76.11-.087.214-.182.312-.287.313-.335.534-.73.664-1.151.461-.238.813-.693.921-1.253l.071-.364c.109-.564-.044-1.128-.378-1.539.003-.37-.059-.736-.182-1.082h2.701c.272 0 .492-.235.492-.525 0-.289-.22-.525-.492-.525h-3.333c-.387-.419-.881-.707-1.434-.829-.188-.041-.38-.062-.571-.062-1.141 0-2.157.744-2.591 1.835-.301.155-.555.404-.725.715h-1.421v-1.96c0-.29-.221-.525-.493-.525h-6.596c-.271 0-.492.235-.492.525v.142h-2.215c-.272 0-.492.235-.492.525v1.432h-.887v-.738c0-.289-.22-.524-.492-.524h-2.511v-1.805c0-.291-.22-.525-.492-.525h-3.938c-.272 0-.492.235-.492.525 0 .289.221.524.492.524h3.446v1.805c0 .291.22.525.492.525h2.51v.738c0 .29.221.525.492.525h1.871c.271 0 .492-.235.492-.525v-1.432h2.215c.272 0 .493-.235.493-.524v-.143h5.612v1.961c0 .29.221.525.492.525h1.628c-.063.557.123 1.095.473 1.474-.049.811.215 1.639.795 2.257.271.289.59.509.937.655-.159.114-.308.244-.446.392-.297.317-.531.702-.679 1.121l-1.143 1.976-1.044-.715c.06-.189.094-.389.094-.592l1.534-1.844c.173-.208.164-.523-.02-.72l-.889-.947c-.184-.196-.48-.206-.674-.022l-1.73 1.636c-.467.004-.905.199-1.236.55-.371.396-.553.933-.512 1.48l-2.126 2.521c-.175.207-.167.524.018.722v.001l-.809.862c-.192.206-.192.537 0 .743.096.103.222.154.348.154.126 0 .251-.052.348-.154l.81-.864c.095.096.217.145.339.145.117 0 .235-.044.328-.135l1.385-1.327c.086.203.205.393.361.559l.038.038 2.784 2.667c.224.232.495.407.792.511l.199.087-2.537.457c-1.846.039-3.279 1.28-3.279 2.859 0 .416.1.809.28 1.162h-1.978v-2.271c0-.713-.309-1.344-.782-1.727.054-.19.085-.392.085-.602v-1.904c0-1.075-.767-1.949-1.709-1.949h-1.767c-.151-.514-.34-1.036-.528-1.553-.11-.303-.221-.609-.319-.903-.192-.571-.338-1.099-.338-1.469 0-.297.057-.497.168-.594.201-.173.641-.189.955-.147l.141.025c.365.087.729-.056.958-.338h.79c.272 0 .492-.235.492-.524 0-.29-.22-.525-.492-.525h-.61c-.111-.322-.368-.579-.704-.661-.17-.041-1.691-.378-2.756.527-.416.354-.912 1.029-.912 2.237 0 .953.383 2.01.79 3.13l.282.795h-2.229c-.942 0-1.709.874-1.709 1.949v1.904c0 .21.03.413.085.602-.472.383-.782 1.014-.782 1.727v2.271h-.912c-.544 0-.985.47-.985 1.05 0 .58.441 1.05.985 1.05h29.802c.544 0 .985-.47.985-1.05 0-.58-.441-1.05-.985-1.05zm-16.355-8.127l-.028-.029 1.97-2.336c.108-.128.15-.304.114-.471-.063-.285.014-.578.206-.783.171-.182.412-.269.653-.236.141.019.283-.028.389-.128l1.534-1.452.233.249-1.36 1.636c-.095.113-.138.264-.12.414l-.009.268c-.029.161-.102.309-.213.428l-.083.075c-.204.005-.4.059-.575.159l-.076-.014c-.157-.04-.323.006-.442.12l-2.191 2.101zm9.193-11.084l.174.019c.221.048.412.187.536.388l.056.108c.078.173.103.368.068.56l-.001.006-.013.053-.002.011c-.065.28-.017.564.114.795l.069.106-2.278-.501-.06-.013c.25-.145.436-.403.496-.718l.009-.044.008-.06c.038-.18.125-.34.246-.461.153-.154.359-.248.58-.248zm1.065 4.205c-.062.1-.135.196-.219.284-.331.354-.772.549-1.242.549s-.911-.195-1.242-.549c-.261-.278-.422-.624-.484-.984l3.186.701zm-8.729 13.844c0-.696.866-1.285 1.89-1.285l.082-.008.52-.093-1.321 2.548-.011.02-.059-.02c-.643-.207-1.101-.655-1.101-1.162zm1.563-7.741c-.052-.06-.081-.138-.081-.22l.048-.173.041-.055c.092-.098.241-.115.354-.053l.072.053.082.071 1.54 1.054v1.293l-2.056-1.97zm3.041 2.688v-1.74l.126-.145 1.722-2.979.048-.111c.074-.239.196-.45.365-.629.283-.303.661-.469 1.062-.469s.779.166 1.063.469c.073.078.14.166.197.261l.004.006c.157.259.239.559.239.867l.02.149 2.216 8.045.032.087c.071.151.115.309.13.469l.003.02v.003l.004.102c0 .298-.101.581-.279.835l-.461-.006-.191-.012c-.99-.077-1.775-.392-2.337-.943-.393-.385-.618-.833-.745-1.208l-.102-.361c-.058-.254-.066-.424-.066-.433l-.002-.015v-.017l-.214-2.442 1.455-1.552c.193-.205.193-.537 0-.742-.192-.205-.504-.205-.696 0l-1.016 1.083-.602.642-.728.777c-.184.196-.428.304-.689.304-.154 0-.307-.039-.442-.112l-.091-.038-.046-.017.021-.146zm-2.309 6.215l1.437-2.773 3.018-.544c.032.151.076.323.138.507.169.504.468 1.105.999 1.63.323.32.698.58 1.12.778.351.164.736.286 1.154.366l-.125.036c-.297.08-.616.124-.945.124h-6.861l.064-.124zm-13.694-6.354h5.558v1.602h-5.558v-1.602zm-.697 6.338v-.294h2.767c.272 0 .492-.235.492-.525 0-.29-.22-.525-.492-.525h-2.767v-.927h6.952l.001.015v2.256l-.001.015h-6.952v-.015zm20.968-21.888c.077.204.262.328.456.328l.184-.038 1.624-.699c.252-.108.374-.414.273-.683-.102-.269-.389-.4-.641-.291l-1.624.699c-.252.108-.374.414-.272.683zm-4.735-2.147c.077.204.262.328.457.328l.184-.038c.252-.108.374-.415.272-.683l-.655-1.732c-.101-.268-.388-.399-.64-.29-.252.108-.374.414-.273.683l.655 1.732zm-3.444 1.586l1.722.78.192.042c.191 0 .374-.12.453-.32.107-.267-.01-.575-.26-.688l-1.722-.78c-.25-.114-.539.01-.646.277-.106.267.011.575.261.688zm6.493-1.272l.192.042c.191 0 .374-.12.453-.319l.732-1.837c.107-.266-.01-.574-.26-.688-.25-.112-.539.011-.646.278l-.732 1.836c-.107.267.011.575.261.688zm1.025.75c.096.106.224.159.353.159.124 0 .247-.049.343-.149l.852-.881c.194-.202.199-.534.01-.743-.19-.208-.501-.212-.696-.011l-.852.882c-.195.202-.199.534-.01.742zm-5.144-.079c.097.106.225.159.353.159.123 0 .248-.049.343-.148.194-.202.199-.534.01-.742l-.827-.909c-.19-.208-.501-.213-.696-.011-.195.202-.199.534-.01.743l.827.908zm2.934-.938l.007.001c.268 0 .488-.23.492-.517l.017-1.265c.004-.29-.213-.528-.485-.533h-.007c-.269 0-.488.229-.492.517l-.017 1.265c-.004.29.213.529.486.532z" fill="#fff"/><path d="M5.452 43.62h.08l-.023.246c0 .714.545 1.296 1.215 1.296h5.566c.295 0 .581-.115.803-.324.262-.246.412-.6.412-.971 0-.372-.15-.726-.412-.971-.223-.21-.508-.325-.804-.325h-2.307l.004-.078c0-.324-.131-.633-.358-.847-.194-.182-.443-.283-.7-.283h-3.477c-.584 0-1.059.507-1.059 1.13 0 .622.475 1.128 1.059 1.128zm0-1.207h3.477l.048.02.026.059-.027.059-.047.02h-.002c-.271 0-.492.235-.492.525 0 .29.221.525.492.525h3.363l.152.062c.029.027.078.088.078.184s-.049.157-.079.184l-.152.062h-5.566c-.127 0-.231-.11-.231-.246s.103-.246.231-.246c.272 0 .492-.235.492-.525h.002c0-.29-.221-.525-.492-.525h-1.274l-.075-.078.075-.079zm25.566 26.094h-2.101c.375-.525.588-1.144.588-1.811l-.001-.087c.005-.096-.002-.193-.023-.288-.036-.286-.111-.564-.227-.83l-2.157-7.834c-.026-.541-.18-1.063-.451-1.524l-.041-.067c-.11-.179-.237-.344-.377-.493-.327-.348-.716-.605-1.141-.76.11-.087.214-.182.312-.287.313-.335.534-.73.664-1.151.461-.238.813-.693.921-1.253l.071-.364c.109-.564-.044-1.128-.378-1.539.003-.37-.059-.736-.182-1.082h2.701c.272 0 .492-.235.492-.525 0-.289-.22-.525-.492-.525h-3.333c-.387-.419-.881-.707-1.434-.829-.188-.041-.38-.062-.571-.062-1.141 0-2.157.744-2.591 1.835-.301.155-.555.404-.725.715h-1.421v-1.96c0-.29-.221-.525-.493-.525h-6.596c-.271 0-.492.235-.492.525v.142h-2.215c-.272 0-.492.235-.492.525v1.432h-.887v-.738c0-.289-.22-.524-.492-.524h-2.511v-1.805c0-.291-.22-.525-.492-.525h-3.938c-.272 0-.492.235-.492.525 0 .289.221.524.492.524h3.446v1.805c0 .291.22.525.492.525h2.51v.738c0 .29.221.525.492.525h1.871c.271 0 .492-.235.492-.525v-1.432h2.215c.272 0 .493-.235.493-.524v-.143h5.612v1.961c0 .29.221.525.492.525h1.628c-.063.557.123 1.095.473 1.474-.049.811.215 1.639.795 2.257.271.289.59.509.937.655-.159.114-.308.244-.446.392-.297.317-.531.702-.679 1.121l-1.143 1.976-1.044-.715c.06-.189.094-.389.094-.592l1.534-1.844c.173-.208.164-.523-.02-.72l-.889-.947c-.184-.196-.48-.206-.674-.022l-1.73 1.636c-.467.004-.905.199-1.236.55-.371.396-.553.933-.512 1.48l-2.126 2.521c-.175.207-.167.524.018.722v.001l-.809.862c-.192.206-.192.537 0 .743.096.103.222.154.348.154.126 0 .251-.052.348-.154l.81-.864c.095.096.217.145.339.145.117 0 .235-.044.328-.135l1.385-1.327c.086.203.205.393.361.559l.038.038 2.784 2.667c.224.232.495.407.792.511l.199.087-2.537.457c-1.846.039-3.279 1.28-3.279 2.859 0 .416.1.809.28 1.162h-1.978v-2.271c0-.713-.309-1.344-.782-1.727.054-.19.085-.392.085-.602v-1.904c0-1.075-.767-1.949-1.709-1.949h-1.767c-.151-.514-.34-1.036-.528-1.553-.11-.303-.221-.609-.319-.903-.192-.571-.338-1.099-.338-1.469 0-.297.057-.497.168-.594.201-.173.641-.189.955-.147l.141.025c.365.087.729-.056.958-.338h.79c.272 0 .492-.235.492-.524 0-.29-.22-.525-.492-.525h-.61c-.111-.322-.368-.579-.704-.661-.17-.041-1.691-.378-2.756.527-.416.354-.912 1.029-.912 2.237 0 .953.383 2.01.79 3.13l.282.795h-2.229c-.942 0-1.709.874-1.709 1.949v1.904c0 .21.03.413.085.602-.472.383-.782 1.014-.782 1.727v2.271h-.912c-.544 0-.985.47-.985 1.05 0 .58.441 1.05.985 1.05h29.802c.544 0 .985-.47.985-1.05 0-.58-.441-1.05-.985-1.05zm-16.355-8.127l-.028-.029 1.97-2.336c.108-.128.15-.304.114-.471-.063-.285.014-.578.206-.783.171-.182.412-.269.653-.236.141.019.283-.028.389-.128l1.534-1.452.233.249-1.36 1.636c-.095.113-.138.264-.12.414l-.009.268c-.029.161-.102.309-.213.428l-.083.075c-.204.005-.4.059-.575.159l-.076-.014c-.157-.04-.323.006-.442.12l-2.191 2.101zm9.193-11.084l.174.019c.221.048.412.187.536.388l.056.108c.078.173.103.368.068.56l-.001.006-.013.053-.002.011c-.065.28-.017.564.114.795l.069.106-2.278-.501-.06-.013c.25-.145.436-.403.496-.718l.009-.044.008-.06c.038-.18.125-.34.246-.461.153-.154.359-.248.58-.248zm1.065 4.205c-.062.1-.135.196-.219.284-.331.354-.772.549-1.242.549s-.911-.195-1.242-.549c-.261-.278-.422-.624-.484-.984l3.186.701zm-8.729 13.844c0-.696.866-1.285 1.89-1.285l.082-.008.52-.093-1.321 2.548-.011.02-.059-.02c-.643-.207-1.101-.655-1.101-1.162zm1.563-7.741c-.052-.06-.081-.138-.081-.22l.048-.173.041-.055c.092-.098.241-.115.354-.053l.072.053.082.071 1.54 1.054v1.293l-2.056-1.97zm3.041 2.688v-1.74l.126-.145 1.722-2.979.048-.111c.074-.239.196-.45.365-.629.283-.303.661-.469 1.062-.469s.779.166 1.063.469c.073.078.14.166.197.261l.004.006c.157.259.239.559.239.867l.02.149 2.216 8.045.032.087c.071.151.115.309.13.469l.003.02v.003l.004.102c0 .298-.101.581-.279.835l-.461-.006-.191-.012c-.99-.077-1.775-.392-2.337-.943-.393-.385-.618-.833-.745-1.208l-.102-.361c-.058-.254-.066-.424-.066-.433l-.002-.015v-.017l-.214-2.442 1.455-1.552c.193-.205.193-.537 0-.742-.192-.205-.504-.205-.696 0l-1.016 1.083-.602.642-.728.777c-.184.196-.428.304-.689.304-.154 0-.307-.039-.442-.112l-.091-.038-.046-.017.021-.146zm-2.309 6.215l1.437-2.773 3.018-.544c.032.151.076.323.138.507.169.504.468 1.105.999 1.63.323.32.698.58 1.12.778.351.164.736.286 1.154.366l-.125.036c-.297.08-.616.124-.945.124h-6.861l.064-.124zm-13.694-6.354h5.558v1.602h-5.558v-1.602zm-.697 6.338v-.294h2.767c.272 0 .492-.235.492-.525 0-.29-.22-.525-.492-.525h-2.767v-.927h6.952l.001.015v2.256l-.001.015h-6.952v-.015zm20.968-21.888c.077.204.262.328.456.328l.184-.038 1.624-.699c.252-.108.374-.414.273-.683-.102-.269-.389-.4-.641-.291l-1.624.699c-.252.108-.374.414-.272.683zm-4.735-2.147c.077.204.262.328.457.328l.184-.038c.252-.108.374-.415.272-.683l-.655-1.732c-.101-.268-.388-.399-.64-.29-.252.108-.374.414-.273.683l.655 1.732zm-3.444 1.586l1.722.78.192.042c.191 0 .374-.12.453-.32.107-.267-.01-.575-.26-.688l-1.722-.78c-.25-.114-.539.01-.646.277-.106.267.011.575.261.688zm6.493-1.272l.192.042c.191 0 .374-.12.453-.319l.732-1.837c.107-.266-.01-.574-.26-.688-.25-.112-.539.011-.646.278l-.732 1.836c-.107.267.011.575.261.688zm1.025.75c.096.106.224.159.353.159.124 0 .247-.049.343-.149l.852-.881c.194-.202.199-.534.01-.743-.19-.208-.501-.212-.696-.011l-.852.882c-.195.202-.199.534-.01.742zm-5.144-.079c.097.106.225.159.353.159.123 0 .248-.049.343-.148.194-.202.199-.534.01-.742l-.827-.909c-.19-.208-.501-.213-.696-.011-.195.202-.199.534-.01.743l.827.908zm2.934-.938l.007.001c.268 0 .488-.23.492-.517l.017-1.265c.004-.29-.213-.528-.485-.533h-.007c-.269 0-.488.229-.492.517l-.017 1.265c-.004.29.213.529.486.532z" fill="#67737B"/><path d="M5.452 3.62h.08l-.023.246c0 .714.545 1.296 1.215 1.296h5.566c.295 0 .581-.115.803-.324.262-.246.412-.6.412-.971 0-.372-.15-.726-.412-.971-.223-.21-.508-.325-.804-.325h-2.307l.004-.078c0-.324-.131-.633-.358-.847-.194-.182-.443-.283-.7-.283h-3.477c-.584 0-1.059.507-1.059 1.13 0 .622.475 1.128 1.059 1.128zm0-1.207h3.477l.048.02.026.059-.027.059-.047.02h-.002c-.271 0-.492.235-.492.525 0 .29.221.525.492.525h3.363l.152.062c.029.027.078.088.078.184s-.049.157-.079.184l-.152.062h-5.566c-.127 0-.231-.11-.231-.246s.103-.246.231-.246c.272 0 .492-.235.492-.525h.002c0-.29-.221-.525-.492-.525h-1.274l-.075-.078.075-.079zm25.566 26.094h-2.101c.375-.525.588-1.144.588-1.811l-.001-.087c.005-.096-.002-.193-.023-.288-.036-.286-.111-.564-.227-.83l-2.157-7.834c-.026-.541-.18-1.063-.451-1.524l-.041-.067c-.11-.179-.237-.344-.377-.493-.327-.348-.716-.605-1.141-.76.11-.087.214-.182.312-.287.313-.335.534-.73.664-1.151.461-.238.813-.693.921-1.253l.071-.364c.109-.564-.044-1.128-.378-1.539.003-.37-.059-.736-.182-1.082h2.701c.272 0 .492-.235.492-.525 0-.289-.22-.525-.492-.525h-3.333c-.387-.419-.881-.707-1.434-.829-.188-.041-.38-.062-.571-.062-1.141 0-2.157.744-2.591 1.835-.301.155-.555.404-.725.715h-1.421v-1.96c0-.29-.221-.525-.493-.525h-6.596c-.271 0-.492.235-.492.525v.142h-2.215c-.272 0-.492.235-.492.525v1.432h-.887v-.738c0-.289-.22-.524-.492-.524h-2.511v-1.805c0-.291-.22-.525-.492-.525h-3.938c-.272 0-.492.235-.492.525 0 .289.221.524.492.524h3.446v1.805c0 .291.22.525.492.525h2.51v.738c0 .29.221.525.492.525h1.871c.271 0 .492-.235.492-.525v-1.432h2.215c.272 0 .493-.235.493-.524v-.143h5.612v1.961c0 .29.221.525.492.525h1.628c-.063.557.123 1.095.473 1.474-.049.811.215 1.639.795 2.257.271.289.59.509.937.655-.159.114-.308.244-.446.392-.297.317-.531.702-.679 1.121l-1.143 1.976-1.044-.715c.06-.189.094-.389.094-.592l1.534-1.844c.173-.208.164-.523-.02-.72l-.889-.947c-.184-.196-.48-.206-.674-.022l-1.73 1.636c-.467.004-.905.199-1.236.55-.371.396-.553.933-.512 1.48l-2.126 2.521c-.175.207-.167.524.018.722v.001l-.809.862c-.192.206-.192.537 0 .743.096.103.222.154.348.154.126 0 .251-.052.348-.154l.81-.864c.095.096.217.145.339.145.117 0 .235-.044.328-.135l1.385-1.327c.086.203.205.393.361.559l.038.038 2.784 2.667c.224.232.495.407.792.511l.199.087-2.537.457c-1.846.039-3.279 1.28-3.279 2.859 0 .416.1.809.28 1.162h-1.978v-2.271c0-.713-.309-1.344-.782-1.727.054-.19.085-.392.085-.602v-1.904c0-1.075-.767-1.949-1.709-1.949h-1.767c-.151-.514-.34-1.036-.528-1.553-.11-.303-.221-.609-.319-.903-.192-.571-.338-1.099-.338-1.469 0-.297.057-.497.168-.594.201-.173.641-.189.955-.147l.141.025c.365.087.729-.056.958-.338h.79c.272 0 .492-.235.492-.524 0-.29-.22-.525-.492-.525h-.61c-.111-.322-.368-.579-.704-.661-.17-.041-1.691-.378-2.756.527-.416.354-.912 1.029-.912 2.237 0 .953.383 2.01.79 3.13l.282.795h-2.229c-.942 0-1.709.874-1.709 1.949v1.904c0 .21.03.413.085.602-.472.383-.782 1.014-.782 1.727v2.271h-.912c-.544 0-.985.47-.985 1.05 0 .58.441 1.05.985 1.05h29.802c.544 0 .985-.47.985-1.05 0-.58-.441-1.05-.985-1.05zm-16.355-8.127l-.028-.029 1.97-2.336c.108-.128.15-.304.114-.471-.063-.285.014-.578.206-.783.171-.182.412-.269.653-.236.141.019.283-.028.389-.128l1.534-1.452.233.249-1.36 1.636c-.095.113-.138.264-.12.414l-.009.268c-.029.161-.102.309-.213.428l-.083.075c-.204.005-.4.059-.575.159l-.076-.014c-.157-.04-.323.006-.442.12l-2.191 2.101zm9.193-11.084l.174.019c.221.048.412.187.536.388l.056.108c.078.173.103.368.068.56l-.001.006-.013.053-.002.011c-.065.28-.017.564.114.795l.069.106-2.278-.501-.06-.013c.25-.145.436-.403.496-.718l.009-.044.008-.06c.038-.18.125-.34.246-.461.153-.154.359-.248.58-.248zm1.065 4.205c-.062.1-.135.196-.219.284-.331.354-.772.549-1.242.549s-.911-.195-1.242-.549c-.261-.278-.422-.624-.484-.984l3.186.701zm-8.729 13.844c0-.696.866-1.285 1.89-1.285l.082-.008.52-.093-1.321 2.548-.011.02-.059-.02c-.643-.207-1.101-.655-1.101-1.162zm1.563-7.741c-.052-.06-.081-.138-.081-.22l.048-.173.041-.055c.092-.098.241-.115.354-.053l.072.053.082.071 1.54 1.054v1.293l-2.056-1.97zm3.041 2.688v-1.74l.126-.145 1.722-2.979.048-.111c.074-.239.196-.45.365-.629.283-.303.661-.469 1.062-.469s.779.166 1.063.469c.073.078.14.166.197.261l.004.006c.157.259.239.559.239.867l.02.149 2.216 8.045.032.087c.071.151.115.309.13.469l.003.02v.003l.004.102c0 .298-.101.581-.279.835l-.461-.006-.191-.012c-.99-.077-1.775-.392-2.337-.943-.393-.385-.618-.833-.745-1.208l-.102-.361c-.058-.254-.066-.424-.066-.433l-.002-.015v-.017l-.214-2.442 1.455-1.552c.193-.205.193-.537 0-.742-.192-.205-.504-.205-.696 0l-1.016 1.083-.602.642-.728.777c-.184.196-.428.304-.689.304-.154 0-.307-.039-.442-.112l-.091-.038-.046-.017.021-.146zm-2.309 6.215l1.437-2.773 3.018-.544c.032.151.076.323.138.507.169.504.468 1.105.999 1.63.323.32.698.58 1.12.778.351.164.736.286 1.154.366l-.125.036c-.297.08-.616.124-.945.124h-6.861l.064-.124zm-13.694-6.354h5.558v1.602h-5.558v-1.602zm-.697 6.338v-.294h2.767c.272 0 .492-.235.492-.525 0-.29-.22-.525-.492-.525h-2.767v-.927h6.952l.001.015v2.256l-.001.015h-6.952v-.015zm20.968-21.888c.077.204.262.328.456.328l.184-.038 1.624-.699c.252-.108.374-.414.273-.683-.102-.269-.389-.4-.641-.291l-1.624.699c-.252.108-.374.414-.272.683zm-4.735-2.147c.077.204.262.328.457.328l.184-.038c.252-.108.374-.415.272-.683l-.655-1.732c-.101-.268-.388-.399-.64-.29-.252.108-.374.414-.273.683l.655 1.732zm-3.444 1.586l1.722.78.192.042c.191 0 .374-.12.453-.32.107-.267-.01-.575-.26-.688l-1.722-.78c-.25-.114-.539.01-.646.277-.106.267.011.575.261.688zm6.493-1.272l.192.042c.191 0 .374-.12.453-.319l.732-1.837c.107-.266-.01-.574-.26-.688-.25-.112-.539.011-.646.278l-.732 1.836c-.107.267.011.575.261.688zm1.025.75c.096.106.224.159.353.159.124 0 .247-.049.343-.149l.852-.881c.194-.202.199-.534.01-.743-.19-.208-.501-.212-.696-.011l-.852.882c-.195.202-.199.534-.01.742zm-5.144-.079c.097.106.225.159.353.159.123 0 .248-.049.343-.148.194-.202.199-.534.01-.742l-.827-.909c-.19-.208-.501-.213-.696-.011-.195.202-.199.534-.01.743l.827.908zm2.934-.938l.007.001c.268 0 .488-.23.492-.517l.017-1.265c.004-.29-.213-.528-.485-.533h-.007c-.269 0-.488.229-.492.517l-.017 1.265c-.004.29.213.529.486.532z" fill="#3A434E"/></g></g></svg>