<svg width="32" height="232" viewBox="0 0 32 232" xmlns="http://www.w3.org/2000/svg" xmlns:sketch="http://www.bohemiancoding.com/sketch/ns"><title>melbourne</title><desc>Created with Sketch.</desc><g sketch:type="MSPage" fill="none"><g sketch:type="MSShapeGroup"><path d="M30.541 149.982h-.557v-1.628c.314-.249.614-.52.898-.814.188-.194.188-.51 0-.706-.188-.194-.494-.194-.683.001l-.216.212v-6.755c0-.275-.216-.498-.483-.498h-1.905c-.267 0-.483.223-.483.498v3.53h-1.355l-.014.001-.67-19.706v-3.595c0-.276-.216-.498-.483-.498s-.482.223-.482.498v3.595l-.491 14.438h-.971c-.267 0-.483.223-.483.498v3.079h-.372v-1.511c0-.275-.216-.498-.482-.498h-1.947c-.267 0-.483.224-.483.498v1.02h-.464v-2.363l.011-.145v-2.85c0-.55-.433-.997-.966-.997-.534 0-.966.447-.966.997v.312l-.011.144v1.097l-1.214-.377v-2.34l-.038-.195c-.042-2.539-1.95-4.616-4.366-4.832v-3.486c0-.275-.216-.498-.483-.498h-2.667c-.178 0-.342.101-.426.263-.084.162-.074.359.024.512l.515.797-.515.798c-.099.153-.108.35-.024.512.084.162.248.263.426.263h2.184v.853c-2.339.278-4.168 2.302-4.231 4.773-.038.072-.062.153-.062.241v2.333l-1.202.382v-1.552c0-.55-.433-.997-.966-.997-.533 0-.966.447-.966.997v.312l-.011.144v13.241h-.843c-.533 0-.966.446-.966.996 0 .551.433.997.966.997h28.923c.533 0 .966-.447.966-.997s-.433-.996-.966-.996zm-19.75-11.854c-.143-.147-.375-.187-.556-.094-.116.059-.203.163-.244.289l-.022.159-.001.034.051.189c.046.095.121.172.213.219.068.035.143.054.219.054.128 0 .25-.052.341-.145.085-.087.132-.201.14-.318l.002-.034c0-.076-.016-.154-.051-.225l-.091-.13zm-6.398 1.387v-.236l.011-.145v-.119h4.546c.267 0 .483-.223.483-.498l-.003-.034c-.017-.259-.224-.465-.48-.465h-1.834l3.254-1.033 3.336 1.033h-1.758c-.255 0-.462.206-.479.465l-.004.034c0 .276.217.498.483.498h4.536v.5h-12.091zm5.732-7.427l.325-.02.325.02c.201.495.405 1.338.442 2.535h-1.535c.037-1.197.241-2.04.442-2.535zm-3.552 3.919v-.387h7.732v1.543l-3.797-1.176c-.092-.028-.19-.028-.281.001l-3.654 1.16v-1.141zm13.273 6.134v-1.021h.981v1.511c0 .275.216.498.483.498h1.337c.267 0 .483-.223.483-.498v-3.079h.454l-.191 5.595v.017c0 1.6-1.26 2.901-2.81 2.901-.082 0-.157.023-.225.059-.494-.301-.961-.657-1.389-1.066-.155-.148-.377-.169-.554-.073v-4.346h.947c.267 0 .483-.223.483-.498zm4.841-1.001l.138 4.034c.003 1.644.998 3.05 2.398 3.618-.87.323-1.797.492-2.75.492-.902 0-1.786-.154-2.622-.449 1.458-.538 2.505-1.976 2.509-3.662l.232-6.839.095 2.806zm2.91 3.679c.267 0 .483-.223.483-.498v-3.531h.94v7.054l-.343.229-.077-.008c-1.549 0-2.809-1.301-2.809-2.901v-.017l-.011-.328h1.818zm1.423 5.163h-2.26c.793-.212 1.553-.534 2.26-.959v.959zm-6.817 0h-3.786v-2.099c1.092 1.013 2.389 1.727 3.786 2.099zm-8.925-15.359h-1.094c-.023-.745-.112-1.492-.272-2.138.73.451 1.249 1.23 1.366 2.138zm-4.659-6.364l.193-.299c.108-.168.108-.386 0-.554l-.193-.299h1.282v1.151h-1.282zm.37 4.227c-.16.646-.249 1.393-.272 2.138h-1.093c.117-.907.636-1.686 1.366-2.138zm5.769 17.497h-.487v-2.045c0-2.175-1.714-3.944-3.821-3.944s-3.821 1.769-3.821 3.944v2.045h-.487v-2.045c0-2.451 1.932-4.446 4.308-4.446 2.375 0 4.308 1.995 4.308 4.446v2.045zm-1.452 0h-5.71v-2.045c0-1.625 1.281-2.947 2.855-2.947s2.855 1.322 2.855 2.947v2.045zm2.418 0v-2.045c0-3.001-2.366-5.443-5.273-5.443-2.908 0-5.273 2.442-5.273 5.443v2.045h-.784v-9.471h.891v1.182h.965v-1.182h.838v1.182h.966v-1.182h.838v1.182h.966v-1.182h.838v1.182h.966v-1.182h.838v1.182h.966v-1.182h.839v1.182h.966v-1.182h1.214v9.471h-.761zm-2.196-20.822c.202.183.46.284.727.284h2.727c0 .286.12.558.327.747.177.161.404.25.638.25h2.967c.533 0 .966-.447.966-.997 0-.548-.431-.994-.961-.997l.009-.138c0-.626-.493-1.135-1.1-1.135h-5.574c-.268 0-.526.1-.727.284-.237.215-.373.526-.373.851 0 .325.136.635.373.851zm.638-.954l.088-.035h5.574c.074 0 .134.062.134.139 0 .076-.06.138-.134.138-.267 0-.482.223-.482.498h-.002c0 .276.216.498.483.498l1.087.001-2.967-.001h.002c.267 0 .483-.223.483-.498s-.216-.498-.483-.498h-3.695l-.088-.035-.046-.103.046-.103z" fill="#206FAC"/><path d="M30.541 109.982h-.557v-1.628c.314-.249.614-.52.898-.814.188-.194.188-.51 0-.706-.188-.194-.494-.194-.683.001l-.216.212v-6.755c0-.275-.216-.498-.483-.498h-1.905c-.267 0-.483.223-.483.498v3.53h-1.355l-.014.001-.67-19.706v-3.595c0-.276-.216-.498-.483-.498s-.482.223-.482.498v3.595l-.491 14.438h-.971c-.267 0-.483.223-.483.498v3.079h-.372v-1.511c0-.275-.216-.498-.482-.498h-1.947c-.267 0-.483.224-.483.498v1.02h-.464v-2.363l.011-.145v-2.85c0-.55-.433-.997-.966-.997-.534 0-.966.447-.966.997v.312l-.011.144v1.097l-1.214-.377v-2.34l-.038-.195c-.042-2.539-1.95-4.616-4.366-4.832v-3.486c0-.275-.216-.498-.483-.498h-2.667c-.178 0-.342.101-.426.263-.084.162-.074.359.024.512l.515.797-.515.798c-.099.153-.108.35-.024.512.084.162.248.263.426.263h2.184v.853c-2.339.278-4.168 2.302-4.231 4.773-.038.072-.062.153-.062.241v2.333l-1.202.382v-1.552c0-.55-.433-.997-.966-.997-.533 0-.966.447-.966.997v.312l-.011.144v13.241h-.843c-.533 0-.966.446-.966.996 0 .551.433.997.966.997h28.923c.533 0 .966-.447.966-.997s-.433-.996-.966-.996zm-19.75-11.854c-.143-.147-.375-.187-.556-.094-.116.059-.203.163-.244.289l-.022.159-.001.034.051.189c.046.095.121.172.213.219.068.035.143.054.219.054.128 0 .25-.052.341-.145.085-.087.132-.201.14-.318l.002-.034c0-.076-.016-.154-.051-.225l-.091-.13zm-6.398 1.387v-.236l.011-.145v-.119h4.546c.267 0 .483-.223.483-.498l-.003-.034c-.017-.259-.224-.465-.48-.465h-1.834l3.254-1.033 3.336 1.033h-1.758c-.255 0-.462.206-.479.465l-.004.034c0 .276.217.498.483.498h4.536v.5h-12.091zm5.732-7.427l.325-.02.325.02c.201.495.405 1.338.442 2.535h-1.535c.037-1.197.241-2.04.442-2.535zm-3.552 3.919v-.387h7.732v1.543l-3.797-1.176c-.092-.028-.19-.028-.281.001l-3.654 1.16v-1.141zm13.273 6.134v-1.021h.981v1.511c0 .275.216.498.483.498h1.337c.267 0 .483-.223.483-.498v-3.079h.454l-.191 5.595v.017c0 1.6-1.26 2.901-2.81 2.901-.082 0-.157.023-.225.059-.494-.301-.961-.657-1.389-1.066-.155-.148-.377-.169-.554-.073v-4.346h.947c.267 0 .483-.223.483-.498zm4.841-1.001l.138 4.034c.003 1.644.998 3.05 2.398 3.618-.87.323-1.797.492-2.75.492-.902 0-1.786-.154-2.622-.449 1.458-.538 2.505-1.976 2.509-3.662l.232-6.839.095 2.806zm2.91 3.679c.267 0 .483-.223.483-.498v-3.531h.94v7.054l-.343.229-.077-.008c-1.549 0-2.809-1.301-2.809-2.901v-.017l-.011-.328h1.818zm1.423 5.163h-2.26c.793-.212 1.553-.534 2.26-.959v.959zm-6.817 0h-3.786v-2.099c1.092 1.013 2.389 1.727 3.786 2.099zm-8.925-15.359h-1.094c-.023-.745-.112-1.492-.272-2.138.73.451 1.249 1.23 1.366 2.138zm-4.659-6.364l.193-.299c.108-.168.108-.386 0-.554l-.193-.299h1.282v1.151h-1.282zm.37 4.227c-.16.646-.249 1.393-.272 2.138h-1.093c.117-.907.636-1.686 1.366-2.138zm5.769 17.497h-.487v-2.045c0-2.175-1.714-3.944-3.821-3.944s-3.821 1.769-3.821 3.944v2.045h-.487v-2.045c0-2.451 1.932-4.446 4.308-4.446 2.375 0 4.308 1.995 4.308 4.446v2.045zm-1.452 0h-5.71v-2.045c0-1.625 1.281-2.947 2.855-2.947s2.855 1.322 2.855 2.947v2.045zm2.418 0v-2.045c0-3.001-2.366-5.443-5.273-5.443-2.908 0-5.273 2.442-5.273 5.443v2.045h-.784v-9.471h.891v1.182h.965v-1.182h.838v1.182h.966v-1.182h.838v1.182h.966v-1.182h.838v1.182h.966v-1.182h.838v1.182h.966v-1.182h.839v1.182h.966v-1.182h1.214v9.471h-.761zm-2.196-20.822c.202.183.46.284.727.284h2.727c0 .286.12.558.327.747.177.161.404.25.638.25h2.967c.533 0 .966-.447.966-.997 0-.548-.431-.994-.961-.997l.009-.138c0-.626-.493-1.135-1.1-1.135h-5.574c-.268 0-.526.1-.727.284-.237.215-.373.526-.373.851 0 .325.136.635.373.851zm.638-.954l.088-.035h5.574c.074 0 .134.062.134.139 0 .076-.06.138-.134.138-.267 0-.482.223-.482.498h-.002c0 .276.216.498.483.498l1.087.001-2.967-.001h.002c.267 0 .483-.223.483-.498s-.216-.498-.483-.498h-3.695l-.088-.035-.046-.103.046-.103z" fill="#fff"/><path d="M30.541 69.982h-.557v-1.628c.314-.249.614-.52.898-.814.188-.194.188-.51 0-.706-.188-.194-.494-.194-.683.001l-.216.212v-6.755c0-.275-.216-.498-.483-.498h-1.905c-.267 0-.483.223-.483.498v3.53h-1.355l-.014.001-.67-19.706v-3.595c0-.276-.216-.498-.483-.498s-.482.223-.482.498v3.595l-.491 14.438h-.971c-.267 0-.483.223-.483.498v3.079h-.372v-1.511c0-.275-.216-.498-.482-.498h-1.947c-.267 0-.483.224-.483.498v1.02h-.464v-2.363l.011-.145v-2.85c0-.55-.433-.997-.966-.997-.534 0-.966.447-.966.997v.312l-.011.144v1.097l-1.214-.377v-2.34l-.038-.195c-.042-2.539-1.95-4.616-4.366-4.832v-3.486c0-.275-.216-.498-.483-.498h-2.667c-.178 0-.342.101-.426.263-.084.162-.074.359.024.512l.515.797-.515.798c-.099.153-.108.35-.024.512.084.162.248.263.426.263h2.184v.853c-2.339.278-4.168 2.302-4.231 4.773-.038.072-.062.153-.062.241v2.333l-1.202.382v-1.552c0-.55-.433-.997-.966-.997-.533 0-.966.447-.966.997v.312l-.011.144v13.241h-.843c-.533 0-.966.446-.966.996 0 .551.433.997.966.997h28.923c.533 0 .966-.447.966-.997s-.433-.996-.966-.996zm-19.75-11.854c-.143-.147-.375-.187-.556-.094-.116.059-.203.163-.244.289l-.022.159-.001.034.051.189c.046.095.121.172.213.219.068.035.143.054.219.054.128 0 .25-.052.341-.145.085-.087.132-.201.14-.318l.002-.034c0-.076-.016-.154-.051-.225l-.091-.13zm-6.398 1.387v-.236l.011-.145v-.119h4.546c.267 0 .483-.223.483-.498l-.003-.034c-.017-.259-.224-.465-.48-.465h-1.834l3.254-1.033 3.336 1.033h-1.758c-.255 0-.462.206-.479.465l-.004.034c0 .276.217.498.483.498h4.536v.5h-12.091zm5.732-7.427l.325-.02.325.02c.201.495.405 1.338.442 2.535h-1.535c.037-1.197.241-2.04.442-2.535zm-3.552 3.919v-.387h7.732v1.543l-3.797-1.176c-.092-.028-.19-.028-.281.001l-3.654 1.16v-1.141zm13.273 6.134v-1.021h.981v1.511c0 .275.216.498.483.498h1.337c.267 0 .483-.223.483-.498v-3.079h.454l-.191 5.595v.017c0 1.6-1.26 2.901-2.81 2.901-.082 0-.157.023-.225.059-.494-.301-.961-.657-1.389-1.066-.155-.148-.377-.169-.554-.073v-4.346h.947c.267 0 .483-.223.483-.498zm4.841-1.001l.138 4.034c.003 1.644.998 3.05 2.398 3.618-.87.323-1.797.492-2.75.492-.902 0-1.786-.154-2.622-.449 1.458-.538 2.505-1.976 2.509-3.662l.232-6.839.095 2.806zm2.91 3.679c.267 0 .483-.223.483-.498v-3.531h.94v7.054l-.343.229-.077-.008c-1.549 0-2.809-1.301-2.809-2.901v-.017l-.011-.328h1.818zm1.423 5.163h-2.26c.793-.212 1.553-.534 2.26-.959v.959zm-6.817 0h-3.786v-2.099c1.092 1.013 2.389 1.727 3.786 2.099zm-8.925-15.359h-1.094c-.023-.745-.112-1.492-.272-2.138.73.451 1.249 1.23 1.366 2.138zm-4.659-6.364l.193-.299c.108-.168.108-.386 0-.554l-.193-.299h1.282v1.151h-1.282zm.37 4.227c-.16.646-.249 1.393-.272 2.138h-1.093c.117-.907.636-1.686 1.366-2.138zm5.769 17.497h-.487v-2.045c0-2.175-1.714-3.944-3.821-3.944s-3.821 1.769-3.821 3.944v2.045h-.487v-2.045c0-2.451 1.932-4.446 4.308-4.446 2.375 0 4.308 1.995 4.308 4.446v2.045zm-1.452 0h-5.71v-2.045c0-1.625 1.281-2.947 2.855-2.947s2.855 1.322 2.855 2.947v2.045zm2.418 0v-2.045c0-3.001-2.366-5.443-5.273-5.443-2.908 0-5.273 2.442-5.273 5.443v2.045h-.784v-9.471h.891v1.182h.965v-1.182h.838v1.182h.966v-1.182h.838v1.182h.966v-1.182h.838v1.182h.966v-1.182h.838v1.182h.966v-1.182h.839v1.182h.966v-1.182h1.214v9.471h-.761zm-2.196-20.822c.202.183.46.284.727.284h2.727c0 .286.12.558.327.747.177.161.404.25.638.25h2.967c.533 0 .966-.447.966-.997 0-.548-.431-.994-.961-.997l.009-.138c0-.626-.493-1.135-1.1-1.135h-5.574c-.268 0-.526.1-.727.284-.237.215-.373.526-.373.851 0 .325.136.635.373.851zm.638-.954l.088-.035h5.574c.074 0 .134.062.134.139 0 .076-.06.138-.134.138-.267 0-.482.223-.482.498h-.002c0 .276.216.498.483.498l1.087.001-2.967-.001h.002c.267 0 .483-.223.483-.498s-.216-.498-.483-.498h-3.695l-.088-.035-.046-.103.046-.103z" fill="#67737B"/><path d="M30.541 29.982h-.557v-1.628c.314-.249.614-.52.898-.814.188-.194.188-.51 0-.706-.188-.194-.494-.194-.683.001l-.216.212v-6.755c0-.275-.216-.498-.483-.498h-1.905c-.267 0-.483.223-.483.498v3.53h-1.355l-.014.001-.67-19.706v-3.595c0-.276-.216-.498-.483-.498s-.482.223-.482.498v3.595l-.491 14.438h-.971c-.267 0-.483.223-.483.498v3.079h-.372v-1.511c0-.275-.216-.498-.482-.498h-1.947c-.267 0-.483.224-.483.498v1.02h-.464v-2.363l.011-.145v-2.85c0-.55-.433-.997-.966-.997-.534 0-.966.447-.966.997v.312l-.011.144v1.097l-1.214-.377v-2.34l-.038-.195c-.042-2.539-1.95-4.616-4.366-4.832v-3.486c0-.275-.216-.498-.483-.498h-2.667c-.178 0-.342.101-.426.263-.084.162-.074.359.024.512l.515.797-.515.798c-.099.153-.108.35-.024.512.084.162.248.263.426.263h2.184v.853c-2.339.278-4.168 2.302-4.231 4.773-.038.072-.062.153-.062.241v2.333l-1.202.382v-1.552c0-.55-.433-.997-.966-.997-.533 0-.966.447-.966.997v.312l-.011.144v13.241h-.843c-.533 0-.966.446-.966.996 0 .551.433.997.966.997h28.923c.533 0 .966-.447.966-.997s-.433-.996-.966-.996zm-19.75-11.854c-.143-.147-.375-.187-.556-.094-.116.059-.203.163-.244.289l-.022.159-.001.034.051.189c.046.095.121.172.213.219.068.035.143.054.219.054.128 0 .25-.052.341-.145.085-.087.132-.201.14-.318l.002-.034c0-.076-.016-.154-.051-.225l-.091-.13zm-6.398 1.387v-.236l.011-.145v-.119h4.546c.267 0 .483-.223.483-.498l-.003-.034c-.017-.259-.224-.465-.48-.465h-1.834l3.254-1.033 3.336 1.033h-1.758c-.255 0-.462.206-.479.465l-.004.034c0 .276.217.498.483.498h4.536v.5h-12.091zm5.732-7.427l.325-.02.325.02c.201.495.405 1.338.442 2.535h-1.535c.037-1.197.241-2.04.442-2.535zm-3.552 3.919v-.387h7.732v1.543l-3.797-1.176c-.092-.028-.19-.028-.281.001l-3.654 1.16v-1.141zm13.273 6.134v-1.021h.981v1.511c0 .275.216.498.483.498h1.337c.267 0 .483-.223.483-.498v-3.079h.454l-.191 5.595v.017c0 1.6-1.26 2.901-2.81 2.901-.082 0-.157.023-.225.059-.494-.301-.961-.657-1.389-1.066-.155-.148-.377-.169-.554-.073v-4.346h.947c.267 0 .483-.223.483-.498zm4.841-1.001l.138 4.034c.003 1.644.998 3.05 2.398 3.618-.87.323-1.797.492-2.75.492-.902 0-1.786-.154-2.622-.449 1.458-.538 2.505-1.976 2.509-3.662l.232-6.839.095 2.806zm2.91 3.679c.267 0 .483-.223.483-.498v-3.531h.94v7.054l-.343.229-.077-.008c-1.549 0-2.809-1.301-2.809-2.901v-.017l-.011-.328h1.818zm1.423 5.163h-2.26c.793-.212 1.553-.534 2.26-.959v.959zm-6.817 0h-3.786v-2.099c1.092 1.013 2.389 1.727 3.786 2.099zm-8.925-15.359h-1.094c-.023-.745-.112-1.492-.272-2.138.73.451 1.249 1.23 1.366 2.138zm-4.659-6.364l.193-.299c.108-.168.108-.386 0-.554l-.193-.299h1.282v1.151h-1.282zm.37 4.227c-.16.646-.249 1.393-.272 2.138h-1.093c.117-.907.636-1.686 1.366-2.138zm5.769 17.497h-.487v-2.045c0-2.175-1.714-3.944-3.821-3.944s-3.821 1.769-3.821 3.944v2.045h-.487v-2.045c0-2.451 1.932-4.446 4.308-4.446 2.375 0 4.308 1.995 4.308 4.446v2.045zm-1.452 0h-5.71v-2.045c0-1.625 1.281-2.947 2.855-2.947s2.855 1.322 2.855 2.947v2.045zm2.418 0v-2.045c0-3.001-2.366-5.443-5.273-5.443-2.908 0-5.273 2.442-5.273 5.443v2.045h-.784v-9.471h.891v1.182h.965v-1.182h.838v1.182h.966v-1.182h.838v1.182h.966v-1.182h.838v1.182h.966v-1.182h.838v1.182h.966v-1.182h.839v1.182h.966v-1.182h1.214v9.471h-.761zm-2.196-20.822c.202.183.46.284.727.284h2.727c0 .286.12.558.327.747.177.161.404.25.638.25h2.967c.533 0 .966-.447.966-.997 0-.548-.431-.994-.961-.997l.009-.138c0-.626-.493-1.135-1.1-1.135h-5.574c-.268 0-.526.1-.727.284-.237.215-.373.526-.373.851 0 .325.136.635.373.851zm.638-.954l.088-.035h5.574c.074 0 .134.062.134.139 0 .076-.06.138-.134.138-.267 0-.482.223-.482.498h-.002c0 .276.216.498.483.498l1.087.001-2.967-.001h.002c.267 0 .483-.223.483-.498s-.216-.498-.483-.498h-3.695l-.088-.035-.046-.103.046-.103z" fill="#3A434E"/></g></g></svg>