<svg width="32" height="232" viewBox="0 0 32 232" xmlns="http://www.w3.org/2000/svg"><title>mexico</title><desc>Created with Sketch.</desc><g fill="none"><path d="M23.29 133.14c-.164.2-.14.505.05.677l1.65 1.494c.087.08.19.116.295.116.128 0 .256-.057.346-.17.164-.2.14-.505-.05-.677l-1.65-1.495c-.19-.173-.478-.148-.64.053zm-6.813-5.53c.086.077.19.114.295.114.128 0 .256-.057.345-.17.163-.2.14-.505-.05-.677l-1.652-1.495c-.19-.173-.476-.148-.64.054-.162.202-.14.506.05.678l1.653 1.494zm6.655-.418c.128 0 .256-.057.346-.17l1.41-1.75c.163-.2.14-.505-.05-.678-.19-.173-.478-.148-.64.054l-1.41 1.75c-.164.202-.142.506.05.678.085.078.19.115.293.115zm-3.284-1.13h.036c.25-.022.438-.254.418-.52l-.183-2.45c-.02-.266-.24-.463-.49-.443-.25.02-.437.252-.417.517l.183 2.45c.018.253.218.444.452.444zm4.4 3.946c.02.252.218.444.452.444l.037-.002 2.313-.193c.25-.02.436-.252.417-.518-.02-.266-.238-.465-.49-.443l-2.312.194c-.25.022-.437.253-.417.518zm1.636 2.81c.19 0 .368-.13.43-.33.08-.253-.05-.525-.287-.61l-1.398-.488c-.24-.084-.496.053-.575.305-.08.252.05.525.29.608l1.397.49.142.023zm-4.408-6.554l.143.024c.19 0 .367-.128.43-.33l.462-1.48c.08-.253-.05-.526-.29-.61-.237-.082-.494.054-.573.307l-.462 1.48c-.08.253.05.525.29.61zm-3.706.028c.08.168.24.265.406.265l.204-.052c.224-.12.314-.41.202-.646l-.662-1.394c-.112-.237-.385-.333-.61-.213-.223.12-.314.408-.2.646l.66 1.392zm6.057 2.12c.08.17.24.266.406.266l.204-.052 1.315-.7c.224-.12.315-.41.2-.647-.11-.24-.384-.334-.608-.215l-1.315.7c-.225.12-.315.41-.203.648zm7.26 18.91h-1.074v-1.564c0-.266-.203-.48-.454-.48h-.728v-1.493c0-.266-.203-.48-.454-.48h-.766v-1.493c0-.266-.203-.482-.454-.482h-.766v-1.492c0-.266-.203-.48-.454-.48h-.805v-1.493c0-.266-.203-.482-.455-.482h-.824v-1.492c0-.265-.204-.48-.454-.48h-.806v-1.492c0-.266-.203-.482-.454-.482h-1.11v-4.315c0-.265-.202-.48-.453-.48h-9.154c-.25 0-.454.216-.454.48v4.316H9.86c-.25 0-.454.216-.454.482v1.492H8.6c-.25 0-.454.216-.454.48v1.493H7.32c-.25 0-.453.216-.453.482v1.492h-.805c-.25 0-.455.216-.455.48v1.493H4.84c-.25 0-.453.216-.453.482v1.492H3.62c-.25 0-.453.216-.453.48v1.493H2.44c-.25 0-.454.216-.454.48v1.566H.912c-.502 0-.908.43-.908.963 0 .53.406.963.908.963h30.175c.5 0 .908-.432.908-.964s-.407-.963-.908-.963zm-16.328-.073v-12.964h2.45v12.983h-2.45v-.02zm4.237-1.01h10.107v1.01H18.997v-1.01zm0-1.974h8.927v1.01h-8.927v-1.01zm0-1.973h7.707v1.01h-7.707v-1.01zm0-1.973h6.487v1.01h-6.487v-1.01zm0-1.973h5.227v1.01h-5.227v-1.01zm0-1.973h3.948v1.01h-3.948v-1.01zm2.69-1.973v1.012h-2.69v-.994h1.58l.112-.017h.996zm-9.81-4.795h8.246v3.833h-1.257c-.16-.278-.447-.465-.776-.465-.33 0-.617.187-.777.465h-.6v-1.373c0-.247-.318-.447-.712-.447-.393 0-.713.2-.713.447v1.373h-.6c-.16-.278-.446-.465-.776-.465-.328 0-.616.187-.775.465h-1.258v-3.833zm-1.563 4.796h.996l.112.018h1.58v.994h-2.688v-1.01zm-1.26 1.974h3.95v1.01h-3.95v-1.01zm-1.278 1.973h5.227v1.01H7.776v-1.01zm-1.26 1.973h6.488v1.01H6.517v-1.01zm-1.22 1.973h7.708v1.01H5.297v-1.01zm-1.22 1.973h8.928v1.01H4.077v-1.01zm-1.18 1.973h10.108v1.01H2.896v-1.01z" fill="#206FAC"/><path d="M23.29 93.14c-.164.2-.14.505.05.677l1.65 1.494c.087.08.19.116.295.116.128 0 .256-.057.346-.17.164-.2.14-.505-.05-.677l-1.65-1.495c-.19-.173-.478-.148-.64.053zm-6.813-5.53c.086.077.19.114.295.114.128 0 .256-.057.345-.17.163-.2.14-.505-.05-.677l-1.652-1.495c-.19-.173-.476-.148-.64.054-.162.202-.14.506.05.678l1.653 1.494zm6.655-.418c.128 0 .256-.057.346-.17l1.41-1.75c.163-.2.14-.505-.05-.678-.19-.173-.478-.148-.64.054l-1.41 1.75c-.164.202-.142.506.05.678.085.078.19.115.293.115zm-3.284-1.13h.036c.25-.022.438-.254.418-.52l-.183-2.45c-.02-.266-.24-.463-.49-.443-.25.02-.437.252-.417.517l.183 2.45c.018.253.218.444.452.444zm4.4 3.946c.02.252.218.444.452.444l.037-.002 2.313-.193c.25-.02.436-.252.417-.518-.02-.266-.238-.465-.49-.443l-2.312.194c-.25.022-.437.253-.417.518zm1.636 2.81c.19 0 .368-.13.43-.33.08-.253-.05-.525-.287-.61l-1.398-.488c-.24-.084-.496.053-.575.305-.08.252.05.525.29.608l1.397.49.142.023zm-4.408-6.554l.143.024c.19 0 .367-.128.43-.33l.462-1.48c.08-.253-.05-.526-.29-.61-.237-.082-.494.054-.573.307l-.462 1.48c-.08.253.05.525.29.61zm-3.706.028c.08.168.24.265.406.265l.204-.052c.224-.12.314-.41.202-.646l-.662-1.394c-.112-.237-.385-.333-.61-.213-.223.12-.314.408-.2.646l.66 1.392zm6.057 2.12c.08.17.24.266.406.266l.204-.052 1.315-.7c.224-.12.315-.41.2-.647-.11-.24-.384-.334-.608-.215l-1.315.7c-.225.12-.315.41-.203.648zm7.26 18.91h-1.074v-1.564c0-.266-.203-.48-.454-.48h-.728v-1.493c0-.266-.203-.48-.454-.48h-.766v-1.493c0-.266-.203-.482-.454-.482h-.766v-1.492c0-.266-.203-.48-.454-.48h-.805v-1.493c0-.266-.203-.482-.455-.482h-.824V95.89c0-.265-.204-.48-.454-.48h-.806v-1.492c0-.266-.203-.482-.454-.482h-1.11V89.12c0-.265-.202-.48-.453-.48h-9.154c-.25 0-.454.216-.454.48v4.316H9.86c-.25 0-.454.216-.454.482v1.492H8.6c-.25 0-.454.216-.454.48v1.493H7.32c-.25 0-.453.216-.453.482v1.492h-.805c-.25 0-.455.216-.455.48v1.493H4.84c-.25 0-.453.216-.453.482v1.492H3.62c-.25 0-.453.216-.453.48v1.493H2.44c-.25 0-.454.216-.454.48v1.566H.912c-.502 0-.908.43-.908.963 0 .53.406.963.908.963h30.175c.5 0 .908-.432.908-.964s-.407-.963-.908-.963zm-16.328-.073V94.285h2.45v12.983h-2.45v-.02zm4.237-1.01h10.107v1.01H18.997v-1.01zm0-1.974h8.927v1.01h-8.927v-1.01zm0-1.973h7.707v1.01h-7.707v-1.01zm0-1.973h6.487v1.01h-6.487v-1.01zm0-1.973h5.227v1.01h-5.227v-1.01zm0-1.973h3.948v1.01h-3.948v-1.01zm2.69-1.973v1.012h-2.69v-.994h1.58l.112-.017h.996zm-9.81-4.795h8.246v3.833h-1.257c-.16-.278-.447-.465-.776-.465-.33 0-.617.187-.777.465h-.6v-1.373c0-.247-.318-.447-.712-.447-.393 0-.713.2-.713.447v1.373h-.6c-.16-.278-.446-.465-.776-.465-.328 0-.616.187-.775.465h-1.258v-3.833zM10.314 94.4h.996l.112.018h1.58v.994h-2.688v-1.01zm-1.26 1.974h3.95v1.01h-3.95v-1.01zm-1.278 1.973h5.227v1.01H7.776v-1.01zm-1.26 1.973h6.488v1.01H6.517v-1.01zm-1.22 1.973h7.708v1.01H5.297v-1.01zm-1.22 1.973h8.928v1.01H4.077v-1.01zm-1.18 1.973h10.108v1.01H2.896v-1.01z" fill="#fff"/><path d="M23.29 53.14c-.164.2-.14.505.05.677l1.65 1.494c.087.08.19.116.295.116.128 0 .256-.057.346-.17.164-.2.14-.505-.05-.677l-1.65-1.495c-.19-.173-.478-.148-.64.053zm-6.813-5.53c.086.077.19.114.295.114.128 0 .256-.057.345-.17.163-.2.14-.505-.05-.677l-1.652-1.495c-.19-.173-.476-.148-.64.054-.162.202-.14.506.05.678l1.653 1.494zm6.655-.418c.128 0 .256-.057.346-.17l1.41-1.75c.163-.2.14-.505-.05-.678-.19-.173-.478-.148-.64.054l-1.41 1.75c-.164.202-.142.506.05.678.085.078.19.115.293.115zm-3.284-1.13h.036c.25-.022.438-.254.418-.52l-.183-2.45c-.02-.266-.24-.463-.49-.443-.25.02-.437.252-.417.517l.183 2.45c.018.253.218.444.452.444zm4.4 3.946c.02.252.218.444.452.444l.037-.002 2.313-.193c.25-.02.436-.252.417-.518-.02-.266-.238-.465-.49-.443l-2.312.194c-.25.022-.437.253-.417.518zm1.636 2.81c.19 0 .368-.13.43-.33.08-.253-.05-.525-.287-.61l-1.398-.488c-.24-.084-.496.053-.575.305-.08.252.05.525.29.608l1.397.49.142.023zm-4.408-6.554l.143.024c.19 0 .367-.128.43-.33l.462-1.48c.08-.253-.05-.526-.29-.61-.237-.082-.494.054-.573.307l-.462 1.48c-.08.253.05.525.29.61zm-3.706.028c.08.168.24.265.406.265l.204-.052c.224-.12.314-.41.202-.646l-.662-1.394c-.112-.237-.385-.333-.61-.213-.223.12-.314.408-.2.646l.66 1.392zm6.057 2.12c.08.17.24.266.406.266l.204-.052 1.315-.7c.224-.12.315-.41.2-.647-.11-.24-.384-.334-.608-.215l-1.315.7c-.225.12-.315.41-.203.648zm7.26 18.91h-1.074V65.76c0-.266-.203-.48-.454-.48h-.728v-1.493c0-.266-.203-.48-.454-.48h-.766V61.81c0-.266-.203-.482-.454-.482h-.766v-1.492c0-.266-.203-.48-.454-.48h-.805v-1.493c0-.266-.203-.482-.455-.482h-.824V55.89c0-.265-.204-.48-.454-.48h-.806v-1.492c0-.266-.203-.482-.454-.482h-1.11V49.12c0-.265-.202-.48-.453-.48h-9.154c-.25 0-.454.216-.454.48v4.316H9.86c-.25 0-.454.216-.454.482v1.492H8.6c-.25 0-.454.216-.454.48v1.493H7.32c-.25 0-.453.216-.453.482v1.492h-.805c-.25 0-.455.216-.455.48v1.493H4.84c-.25 0-.453.216-.453.482v1.492H3.62c-.25 0-.453.216-.453.48v1.493H2.44c-.25 0-.454.216-.454.48v1.566H.912c-.502 0-.908.43-.908.963 0 .53.406.963.908.963h30.175c.5 0 .908-.432.908-.964s-.407-.963-.908-.963zM14.76 67.25V54.285h2.45V67.27h-2.45v-.02zm4.237-1.01h10.107v1.01H18.997v-1.01zm0-1.974h8.927v1.01h-8.927v-1.01zm0-1.973h7.707v1.01h-7.707v-1.01zm0-1.973h6.487v1.01h-6.487v-1.01zm0-1.973h5.227v1.01h-5.227v-1.01zm0-1.973h3.948v1.01h-3.948v-1.01zm2.69-1.973v1.012h-2.69v-.994h1.58l.112-.017h.996zm-9.81-4.795h8.246v3.833h-1.257c-.16-.278-.447-.465-.776-.465-.33 0-.617.187-.777.465h-.6v-1.373c0-.247-.318-.447-.712-.447-.393 0-.713.2-.713.447v1.373h-.6c-.16-.278-.446-.465-.776-.465-.328 0-.616.187-.775.465h-1.258v-3.833zM10.314 54.4h.996l.112.018h1.58v.994h-2.688v-1.01zm-1.26 1.974h3.95v1.01h-3.95v-1.01zm-1.278 1.973h5.227v1.01H7.776v-1.01zm-1.26 1.973h6.488v1.01H6.517v-1.01zm-1.22 1.973h7.708v1.01H5.297v-1.01zm-1.22 1.973h8.928v1.01H4.077v-1.01zm-1.18 1.973h10.108v1.01H2.896v-1.01z" fill="#67737B"/><path d="M23.29 13.14c-.164.2-.14.505.05.677l1.65 1.494c.087.08.19.116.295.116.128 0 .256-.057.346-.17.164-.2.14-.505-.05-.677l-1.65-1.495c-.19-.173-.478-.148-.64.053zm-6.813-5.53c.086.077.19.114.295.114.128 0 .256-.057.345-.17.163-.2.14-.505-.05-.677l-1.652-1.495c-.19-.173-.476-.148-.64.054-.162.202-.14.506.05.678l1.653 1.494zm6.655-.418c.128 0 .256-.057.346-.17l1.41-1.75c.163-.2.14-.505-.05-.678-.19-.173-.478-.148-.64.054l-1.41 1.75c-.164.202-.142.506.05.678.085.078.19.115.293.115zm-3.284-1.13h.036c.25-.022.438-.254.418-.52l-.183-2.45c-.02-.266-.24-.463-.49-.443-.25.02-.437.252-.417.517l.183 2.45c.018.253.218.444.452.444zm4.4 3.946c.02.252.218.444.452.444l.037-.002 2.313-.193c.25-.02.436-.252.417-.518-.02-.266-.238-.465-.49-.443l-2.312.194c-.25.022-.437.253-.417.518zm1.636 2.81c.19 0 .368-.13.43-.33.08-.253-.05-.525-.287-.61l-1.398-.488c-.24-.084-.496.053-.575.305-.08.252.05.525.29.608l1.397.49.142.023zm-4.408-6.554l.143.024c.19 0 .367-.128.43-.33l.462-1.48c.08-.253-.05-.526-.29-.61-.237-.082-.494.054-.573.307l-.462 1.48c-.08.253.05.525.29.61zm-3.706.028c.08.168.24.265.406.265l.204-.052c.224-.12.314-.41.202-.646l-.662-1.394c-.112-.237-.385-.333-.61-.213-.223.12-.314.408-.2.646l.66 1.392zm6.057 2.12c.08.17.24.266.406.266l.204-.052 1.315-.7c.224-.12.315-.41.2-.647-.11-.24-.384-.334-.608-.215l-1.315.7c-.225.12-.315.41-.203.648zm7.26 18.91h-1.074V25.76c0-.266-.203-.48-.454-.48h-.728v-1.493c0-.266-.203-.48-.454-.48h-.766V21.81c0-.266-.203-.482-.454-.482h-.766v-1.492c0-.266-.203-.48-.454-.48h-.805v-1.493c0-.266-.203-.482-.455-.482h-.824V15.89c0-.265-.204-.48-.454-.48h-.806v-1.492c0-.266-.203-.482-.454-.482h-1.11V9.12c0-.265-.202-.48-.453-.48h-9.154c-.25 0-.454.216-.454.48v4.316H9.86c-.25 0-.454.216-.454.482v1.492H8.6c-.25 0-.454.216-.454.48v1.493H7.32c-.25 0-.453.216-.453.482v1.492h-.805c-.25 0-.455.216-.455.48v1.493H4.84c-.25 0-.453.216-.453.482v1.492H3.62c-.25 0-.453.216-.453.48v1.493H2.44c-.25 0-.454.216-.454.48v1.566H.912c-.502 0-.908.43-.908.963 0 .53.406.963.908.963h30.175c.5 0 .908-.432.908-.964s-.407-.963-.908-.963zM14.76 27.25V14.285h2.45V27.27h-2.45v-.02zm4.237-1.01h10.107v1.01H18.997v-1.01zm0-1.974h8.927v1.01h-8.927v-1.01zm0-1.973h7.707v1.01h-7.707v-1.01zm0-1.973h6.487v1.01h-6.487v-1.01zm0-1.973h5.227v1.01h-5.227v-1.01zm0-1.973h3.948v1.01h-3.948v-1.01zm2.69-1.973v1.012h-2.69v-.994h1.58l.112-.017h.996zm-9.81-4.795h8.246v3.833h-1.257c-.16-.278-.447-.465-.776-.465-.33 0-.617.187-.777.465h-.6v-1.373c0-.247-.318-.447-.712-.447-.393 0-.713.2-.713.447v1.373h-.6c-.16-.278-.446-.465-.776-.465-.328 0-.616.187-.775.465h-1.258V9.605zM10.314 14.4h.996l.112.018h1.58v.994h-2.688v-1.01zm-1.26 1.974h3.95v1.01h-3.95v-1.01zm-1.278 1.973h5.227v1.01H7.776v-1.01zm-1.26 1.973h6.488v1.01H6.517v-1.01zm-1.22 1.973h7.708v1.01H5.297v-1.01zm-1.22 1.973h8.928v1.01H4.077v-1.01zm-1.18 1.973h10.108v1.01H2.896v-1.01z" fill="#3A434E"/></g></svg>