<svg width="32" height="232" viewBox="0 0 32 232" xmlns="http://www.w3.org/2000/svg" xmlns:sketch="http://www.bohemiancoding.com/sketch/ns"><title>copper-canyon-mexico</title><desc>Created with Sketch.</desc><g sketch:type="MSShapeGroup" fill="none"><path d="M3.338 124.478h2.851l3.206 3.514c.107.117.252.179.401.179l.206-.042c.21-.088.348-.302.348-.539v-1.365c0-.109-.029-.216-.085-.308l-.86-1.439h3.192c.17 0 .33-.082.435-.221l2.124-2.816c.132-.175.157-.413.064-.614-.093-.2-.286-.328-.499-.328h-1.427c-.154 0-.3.067-.405.184l-.684.767h-8.86c-1.078 0-1.861.637-1.861 1.513 0 .873.78 1.51 1.854 1.514zm.007-1.865h9.101c.154 0 .3-.067.405-.184l.684-.767h.042l-1.247 1.654h-8.988c-.448-.002-.749-.183-.749-.351 0-.17.302-.351.752-.351zm4.378 1.865h.374l.71 1.189-1.085-1.189zm23.127-1.807h-2.475c-.486 0-.915.331-1.059.817l-.825 2.783-1.754 2.298c-.157.206-.243.462-.243.726v2.267l-1.153.592c-.114.059-.218.138-.307.233-.293.316-.525.588-.71.825l-.824-.634-1.257-1.007c-.168-.135-.395-.158-.585-.058l-3.379 1.771-2.613 1.085-1.976-.565c-.141-.04-.291-.021-.419.055l-1.422.842-.154-.772c-.04-.201-.179-.365-.365-.432l-.658-.233-.283-.593v-.87c0-.177-.077-.343-.208-.454l-.531-.446v-.96c0-.321-.248-.581-.554-.581h-2.636v-1.511c0-.316-.24-.573-.541-.581-.123-.003-3.017-.078-3.34-.078-.306 0-.554.26-.554.581 0 .321.248.581.554.581.21 0 1.692.036 2.772.064v2.609c0 .167.068.326.188.436l1.66 1.531v1.984c0 .352.32 1.168.951 2.425.075.149.208.257.365.295l1.036.254.268.786.043.097.993 1.785h-1.736c-.975 0-1.767.831-1.767 1.852 0 .985.738 1.794 1.666 1.849l.091.008c.363 0 .658.31.658.69 0 .381-.295.69-.658.69h-5.297c-.306 0-.554.26-.554.581 0 .321.248.581.554.581h5.331c.959-.019 1.733-.843 1.733-1.852 0-.985-.738-1.794-1.666-1.849l-.091-.008c-.363 0-.658-.309-.658-.69 0-.38.295-.69.654-.69h11.904l-1.219.467c-.371.142-.642.481-.711.889l-.004.026h-3.549c-1.198 0-2.172 1.021-2.172 2.276 0 1.215.913 2.211 2.058 2.274l.1.009c.604 0 1.383.54 1.383 1.114 0 .152-.029.298-.082.43h-10.365c-.612 0-1.109.52-1.109 1.162 0 .642.496 1.162 1.109 1.162h11.48c.294 0 .576-.122.784-.34l1.774-1.86c.208-.218.325-.513.325-.822v-2.339l.343-2.03 3.939-1.51c.437-.168.728-.604.728-1.091v-6.624c.128-.191.396-.524.665-.825l1.596-.819c.38-.195.621-.6.621-1.044v-2.585l1.642-2.152c.086-.113.152-.243.193-.381l.645-2.175h1.659c.612 0 1.109-.521 1.109-1.162 0-.642-.497-1.162-1.109-1.162zm-14.232 23.256l-.017.203v1.959l-.594.622c-.039-.566-.34-1.117-.841-1.529-.447-.369-1-.59-1.532-.618l-.099-.009c-.586 0-1.063-.5-1.063-1.114 0-.614.477-1.114 1.057-1.114h3.359l-.27 1.601zm-5-10.938l1.935.553c.116.033.239.026.35-.02l2.808-1.166.044-.02 3.091-1.62.991.794.882.679c-.107.266-.107.431-.107.552v1.492l-2.081.324c-.194.031-.359.166-.432.356l-.522 1.349-2.996-.065-1.468-1.199c-.205-.167-.492-.163-.692.009l-1.48 1.273v-.824c0-.279-.189-.518-.451-.571l-1.261-.252-.142-.738 1.533-.907zm-1.479 5.631l-1.292-2.324-.352-1.034c-.063-.186-.213-.326-.396-.37l-1.082-.265c-.333-.683-.669-1.451-.707-1.669v-2.226c0-.167-.069-.326-.188-.436l-1.66-1.531v-.241h2.082v.658c0 .176.077.343.208.454l.531.445v.728c0 .09.02.179.059.26l.444.93c.065.137.18.241.318.29l.574.203.244 1.221.296 1.534c.045.231.218.412.44.456l1.176.235v1.224c0 .141.049.276.137.382l.897 1.076h-1.725zm3.198 0l-.99-1.187 1.433-1.232 1.264 1.032c.094.077.21.12.329.123l3.562.077h.012c.225 0 .429-.143.514-.363l.546-1.412 1.605-.25v3.212h-8.274zm1.678-17.162c-.306 0-.554.26-.554.581 0 .321.248.581.554.581h4.895c.306 0 .554-.26.554-.581 0-.321-.248-.581-.554-.581h-4.895m1.941-.407h8.27c.306 0 .554-.26.554-.581 0-.321-.248-.581-.554-.581h-8.27c-.306 0-.554.26-.554.581 0 .321.248.581.554.581" fill="#206FAC"/><path d="M3.338 84.478h2.851l3.206 3.514c.107.117.252.179.401.179l.206-.042c.21-.088.348-.302.348-.539v-1.365c0-.109-.029-.216-.085-.308l-.86-1.439h3.192c.17 0 .33-.082.435-.221l2.124-2.816c.132-.175.157-.413.064-.614-.093-.2-.286-.328-.499-.328h-1.427c-.154 0-.3.067-.405.184l-.684.767h-8.86c-1.078 0-1.861.637-1.861 1.513 0 .873.78 1.51 1.854 1.514zm.007-1.865h9.101c.154 0 .3-.067.405-.184l.684-.767h.042l-1.247 1.654h-8.988c-.448-.002-.749-.183-.749-.351 0-.17.302-.351.752-.351zm4.378 1.865h.374l.71 1.189-1.085-1.189zm23.127-1.807h-2.475c-.486 0-.915.331-1.059.817l-.825 2.783-1.754 2.298c-.157.206-.243.462-.243.726v2.267l-1.153.592c-.114.059-.218.138-.307.233-.293.316-.525.588-.71.825l-.824-.634-1.257-1.007c-.168-.135-.395-.158-.585-.058l-3.379 1.771-2.613 1.085-1.976-.565c-.141-.04-.291-.021-.419.055l-1.422.842-.154-.772c-.04-.201-.179-.365-.365-.432l-.658-.233-.283-.593v-.87c0-.177-.077-.343-.208-.454l-.531-.446v-.96c0-.321-.248-.581-.554-.581h-2.636v-1.511c0-.316-.24-.573-.541-.581-.123-.003-3.017-.078-3.34-.078-.306 0-.554.26-.554.581 0 .321.248.581.554.581.21 0 1.692.036 2.772.064v2.609c0 .167.068.326.188.436l1.66 1.531v1.984c0 .352.32 1.168.951 2.425.075.149.208.257.365.295l1.036.254.268.786.043.097.993 1.785h-1.736c-.975 0-1.767.831-1.767 1.852 0 .985.738 1.794 1.666 1.849l.091.008c.363 0 .658.31.658.69 0 .381-.295.69-.658.69h-5.297c-.306 0-.554.26-.554.581 0 .321.248.581.554.581h5.331c.959-.019 1.733-.843 1.733-1.852 0-.985-.738-1.794-1.666-1.849l-.091-.008c-.363 0-.658-.309-.658-.69 0-.38.295-.69.654-.69h11.904l-1.219.467c-.371.142-.642.481-.711.889l-.004.026h-3.549c-1.198 0-2.172 1.021-2.172 2.276 0 1.215.913 2.211 2.058 2.274l.1.009c.604 0 1.383.54 1.383 1.114 0 .152-.029.298-.082.43h-10.365c-.612 0-1.109.52-1.109 1.162 0 .642.496 1.162 1.109 1.162h11.48c.294 0 .576-.122.784-.34l1.774-1.86c.208-.218.325-.513.325-.822v-2.339l.343-2.03 3.939-1.51c.437-.168.728-.604.728-1.091v-6.624c.128-.191.396-.524.665-.825l1.596-.819c.38-.195.621-.6.621-1.044v-2.585l1.642-2.152c.086-.113.152-.243.193-.381l.645-2.175h1.659c.612 0 1.109-.521 1.109-1.162 0-.642-.497-1.162-1.109-1.162zm-14.232 23.256l-.017.203v1.959l-.594.622c-.039-.566-.34-1.117-.841-1.529-.447-.369-1-.59-1.532-.618l-.099-.009c-.586 0-1.063-.5-1.063-1.114 0-.614.477-1.114 1.057-1.114h3.359l-.27 1.601zm-5-10.938l1.935.553c.116.033.239.026.35-.02l2.808-1.166.044-.02 3.091-1.62.991.794.882.679c-.107.266-.107.431-.107.552v1.492l-2.081.324c-.194.031-.359.166-.432.356l-.522 1.349-2.996-.065-1.468-1.199c-.205-.167-.492-.163-.692.009l-1.48 1.273v-.824c0-.279-.189-.518-.451-.571l-1.261-.252-.142-.738 1.533-.907zm-1.479 5.631l-1.292-2.324-.352-1.034c-.063-.186-.213-.326-.396-.37l-1.082-.265c-.333-.683-.669-1.451-.707-1.669v-2.226c0-.167-.069-.326-.188-.436l-1.66-1.531v-.241h2.082v.658c0 .176.077.343.208.454l.531.445v.728c0 .09.02.179.059.26l.444.93c.065.137.18.241.318.29l.574.203.244 1.221.296 1.534c.045.231.218.412.44.456l1.176.235v1.224c0 .141.049.276.137.382l.897 1.076h-1.725zm3.198 0l-.99-1.187 1.433-1.232 1.264 1.032c.094.077.21.12.329.123l3.562.077h.012c.225 0 .429-.143.514-.363l.546-1.412 1.605-.25v3.212h-8.274zm1.678-17.162c-.306 0-.554.26-.554.581 0 .321.248.581.554.581h4.895c.306 0 .554-.26.554-.581 0-.321-.248-.581-.554-.581h-4.895m1.941-.407h8.27c.306 0 .554-.26.554-.581 0-.321-.248-.581-.554-.581h-8.27c-.306 0-.554.26-.554.581 0 .321.248.581.554.581" fill="#fff"/><path d="M3.338 44.478h2.851l3.206 3.514c.107.117.252.179.401.179l.206-.042c.21-.088.348-.302.348-.539v-1.365c0-.109-.029-.216-.085-.308l-.86-1.439h3.192c.17 0 .33-.082.435-.221l2.124-2.816c.132-.175.157-.413.064-.614-.093-.2-.286-.328-.499-.328h-1.427c-.154 0-.3.067-.405.184l-.684.767h-8.86c-1.078 0-1.861.637-1.861 1.513 0 .873.78 1.51 1.854 1.514zm.007-1.865h9.101c.154 0 .3-.067.405-.184l.684-.767h.042l-1.247 1.654h-8.988c-.448-.002-.749-.183-.749-.351 0-.17.302-.351.752-.351zm4.378 1.865h.374l.71 1.189-1.085-1.189zm23.127-1.807h-2.475c-.486 0-.915.331-1.059.817l-.825 2.783-1.754 2.298c-.157.206-.243.462-.243.726v2.267l-1.153.592c-.114.059-.218.138-.307.233-.293.316-.525.588-.71.825l-.824-.634-1.257-1.007c-.168-.135-.395-.158-.585-.058l-3.379 1.771-2.613 1.085-1.976-.565c-.141-.04-.291-.021-.419.055l-1.422.842-.154-.772c-.04-.201-.179-.365-.365-.432l-.658-.233-.283-.593v-.87c0-.177-.077-.343-.208-.454l-.531-.446v-.96c0-.321-.248-.581-.554-.581h-2.636v-1.511c0-.316-.24-.573-.541-.581-.123-.003-3.017-.078-3.34-.078-.306 0-.554.26-.554.581 0 .321.248.581.554.581.21 0 1.692.036 2.772.064v2.609c0 .167.068.326.188.436l1.66 1.531v1.984c0 .352.32 1.168.951 2.425.075.149.208.257.365.295l1.036.254.268.786.043.097.993 1.785h-1.736c-.975 0-1.767.831-1.767 1.852 0 .985.738 1.794 1.666 1.849l.091.008c.363 0 .658.31.658.69 0 .381-.295.69-.658.69h-5.297c-.306 0-.554.26-.554.581 0 .321.248.581.554.581h5.331c.959-.019 1.733-.843 1.733-1.852 0-.985-.738-1.794-1.666-1.849l-.091-.008c-.363 0-.658-.309-.658-.69 0-.38.295-.69.654-.69h11.904l-1.219.467c-.371.142-.642.481-.711.889l-.004.026h-3.549c-1.198 0-2.172 1.021-2.172 2.276 0 1.215.913 2.211 2.058 2.274l.1.009c.604 0 1.383.54 1.383 1.114 0 .152-.029.298-.082.43h-10.365c-.612 0-1.109.52-1.109 1.162 0 .642.496 1.162 1.109 1.162h11.48c.294 0 .576-.122.784-.34l1.774-1.86c.208-.218.325-.513.325-.822v-2.339l.343-2.03 3.939-1.51c.437-.168.728-.604.728-1.091v-6.624c.128-.191.396-.524.665-.825l1.596-.819c.38-.195.621-.6.621-1.044v-2.585l1.642-2.152c.086-.113.152-.243.193-.381l.645-2.175h1.659c.612 0 1.109-.521 1.109-1.162 0-.642-.497-1.162-1.109-1.162zm-14.232 23.256l-.017.203v1.959l-.594.622c-.039-.566-.34-1.117-.841-1.529-.447-.369-1-.59-1.532-.618l-.099-.009c-.586 0-1.063-.5-1.063-1.114 0-.614.477-1.114 1.057-1.114h3.359l-.27 1.601zm-5-10.938l1.935.553c.116.033.239.026.35-.02l2.808-1.166.044-.02 3.091-1.62.991.794.882.679c-.107.266-.107.431-.107.552v1.492l-2.081.324c-.194.031-.359.166-.432.356l-.522 1.349-2.996-.065-1.468-1.199c-.205-.167-.492-.163-.692.009l-1.48 1.273v-.824c0-.279-.189-.518-.451-.571l-1.261-.252-.142-.738 1.533-.907zm-1.479 5.631l-1.292-2.324-.352-1.034c-.063-.186-.213-.326-.396-.37l-1.082-.265c-.333-.683-.669-1.451-.707-1.669v-2.226c0-.167-.069-.326-.188-.436l-1.66-1.531v-.241h2.082v.658c0 .176.077.343.208.454l.531.445v.728c0 .09.02.179.059.26l.444.93c.065.137.18.241.318.29l.574.203.244 1.221.296 1.534c.045.231.218.412.44.456l1.176.235v1.224c0 .141.049.276.137.382l.897 1.076h-1.725zm3.198 0l-.99-1.187 1.433-1.232 1.264 1.032c.094.077.21.12.329.123l3.562.077h.012c.225 0 .429-.143.514-.363l.546-1.412 1.605-.25v3.212h-8.274zm1.678-17.162c-.306 0-.554.26-.554.581 0 .321.248.581.554.581h4.895c.306 0 .554-.26.554-.581 0-.321-.248-.581-.554-.581h-4.895m1.941-.407h8.27c.306 0 .554-.26.554-.581 0-.321-.248-.581-.554-.581h-8.27c-.306 0-.554.26-.554.581 0 .321.248.581.554.581" fill="#67737B"/><path d="M3.338 4.478h2.851l3.206 3.514c.107.117.252.179.401.179l.206-.042c.21-.088.348-.302.348-.539v-1.365c0-.109-.029-.216-.085-.308l-.86-1.439h3.192c.17 0 .33-.082.435-.221l2.124-2.816c.132-.175.157-.413.064-.614-.093-.2-.286-.328-.499-.328h-1.427c-.154 0-.3.067-.405.184l-.684.767h-8.86c-1.078 0-1.861.637-1.861 1.513 0 .873.78 1.51 1.854 1.514zm.007-1.865h9.101c.154 0 .3-.067.405-.184l.684-.767h.042l-1.247 1.654h-8.988c-.448-.002-.749-.183-.749-.351 0-.17.302-.351.752-.351zm4.378 1.865h.374l.71 1.189-1.085-1.189zm23.127-1.807h-2.475c-.486 0-.915.331-1.059.817l-.825 2.783-1.754 2.298c-.157.206-.243.462-.243.726v2.267l-1.153.592c-.114.059-.218.138-.307.233-.293.316-.525.588-.71.825l-.824-.634-1.257-1.007c-.168-.135-.395-.158-.585-.058l-3.379 1.771-2.613 1.085-1.976-.565c-.141-.04-.291-.021-.419.055l-1.422.842-.154-.772c-.04-.201-.179-.365-.365-.432l-.658-.233-.283-.593v-.87c0-.177-.077-.343-.208-.454l-.531-.446v-.96c0-.321-.248-.581-.554-.581h-2.636v-1.511c0-.316-.24-.573-.541-.581-.123-.003-3.017-.078-3.34-.078-.306 0-.554.26-.554.581 0 .321.248.581.554.581.21 0 1.692.036 2.772.064v2.609c0 .167.068.326.188.436l1.66 1.531v1.984c0 .352.32 1.168.951 2.425.075.149.208.257.365.295l1.036.254.268.786.043.097.993 1.785h-1.736c-.975 0-1.767.831-1.767 1.852 0 .985.738 1.794 1.666 1.849l.091.008c.363 0 .658.31.658.69 0 .381-.295.69-.658.69h-5.297c-.306 0-.554.26-.554.581 0 .321.248.581.554.581h5.331c.959-.019 1.733-.843 1.733-1.852 0-.985-.738-1.794-1.666-1.849l-.091-.008c-.363 0-.658-.309-.658-.69 0-.38.295-.69.654-.69h11.904l-1.219.467c-.371.142-.642.481-.711.889l-.004.026h-3.549c-1.198 0-2.172 1.021-2.172 2.276 0 1.215.913 2.211 2.058 2.274l.1.009c.604 0 1.383.54 1.383 1.114 0 .152-.029.298-.082.43h-10.365c-.612 0-1.109.52-1.109 1.162 0 .642.496 1.162 1.109 1.162h11.48c.294 0 .576-.122.784-.34l1.774-1.86c.208-.218.325-.513.325-.822v-2.339l.343-2.03 3.939-1.51c.437-.168.728-.604.728-1.091v-6.624c.128-.191.396-.524.665-.825l1.596-.819c.38-.195.621-.6.621-1.044v-2.585l1.642-2.152c.086-.113.152-.243.193-.381l.645-2.175h1.659c.612 0 1.109-.521 1.109-1.162 0-.642-.497-1.162-1.109-1.162zm-14.232 23.256l-.017.203v1.959l-.594.622c-.039-.566-.34-1.117-.841-1.529-.447-.369-1-.59-1.532-.618l-.099-.009c-.586 0-1.063-.5-1.063-1.114 0-.614.477-1.114 1.057-1.114h3.359l-.27 1.601zm-5-10.938l1.935.553c.116.033.239.026.35-.02l2.808-1.166.044-.02 3.091-1.62.991.794.882.679c-.107.266-.107.431-.107.552v1.492l-2.081.324c-.194.031-.359.166-.432.356l-.522 1.349-2.996-.065-1.468-1.199c-.205-.167-.492-.163-.692.009l-1.48 1.273v-.824c0-.279-.189-.518-.451-.571l-1.261-.252-.142-.738 1.533-.907zm-1.479 5.631l-1.292-2.324-.352-1.034c-.063-.186-.213-.326-.396-.37l-1.082-.265c-.333-.683-.669-1.451-.707-1.669v-2.226c0-.167-.069-.326-.188-.436l-1.66-1.531v-.241h2.082v.658c0 .176.077.343.208.454l.531.445v.728c0 .09.02.179.059.26l.444.93c.065.137.18.241.318.29l.574.203.244 1.221.296 1.534c.045.231.218.412.44.456l1.176.235v1.224c0 .141.049.276.137.382l.897 1.076h-1.725zm3.198 0l-.99-1.187 1.433-1.232 1.264 1.032c.094.077.21.12.329.123l3.562.077h.012c.225 0 .429-.143.514-.363l.546-1.412 1.605-.25v3.212h-8.274zm1.678-17.162c-.306 0-.554.26-.554.581 0 .321.248.581.554.581h4.895c.306 0 .554-.26.554-.581 0-.321-.248-.581-.554-.581h-4.895m1.941-.407h8.27c.306 0 .554-.26.554-.581 0-.321-.248-.581-.554-.581h-8.27c-.306 0-.554.26-.554.581 0 .321.248.581.554.581" fill="#3A434E"/></g></svg>