<svg width="32" height="232" viewBox="0 0 32 232" xmlns="http://www.w3.org/2000/svg"><desc>Created with Sketch.</desc><g fill="none"><path d="M18.307 128.722c-.066.264.086.534.34.603l1.792.486.12.02c.21 0 .4-.147.455-.37.066-.264-.086-.534-.34-.603l-1.792-.486c-.254-.07-.513.09-.58.354zm-2.414-3.828l.116.017c.2 0 .39-.15.44-.38l.452-1.93c.064-.27-.083-.55-.33-.62-.245-.07-.496.09-.56.367l-.45 1.928c-.065.273.082.552.328.624zm-3.458.248c.083.168.232.26.384.26.072 0 .15-.022.22-.07.213-.148.284-.472.16-.723l-.94-1.9c-.122-.25-.395-.335-.607-.187-.212.148-.283.47-.16.722l.94 1.895zm5.467 1.5c.09.15.255.236.423.236.084 0 .17-.02.248-.066l1.76-1.01c.235-.133.313-.426.176-.654-.14-.228-.44-.305-.675-.17l-1.76 1.008c-.235.134-.313.427-.176.655zm2.115.73l-1.296.147c-.27.03-.46.24-.42.47.032.21.245.36.49.36l.065-.005 1.296-.146c.27-.03.46-.24.425-.47-.036-.23-.283-.39-.556-.36zm-5.7-2.924c.027.268.194.462.386.462l.052-.005c.213-.04.363-.306.334-.598l-.14-1.394c-.028-.29-.224-.498-.437-.457-.213.04-.363.307-.334.598l.136 1.394zm2.803.855c.092.067.2.1.308.1.153 0 .303-.066.403-.19l.818-1.006c.17-.21.128-.51-.095-.673-.22-.16-.54-.12-.71.09l-.814 1.007c-.17.21-.13.515.094.676zm13.935 23.642H14.722l-.195-.247-.486-4.534v-.007l-.483-4.09-.042-.147c.096-.18.182-.363.256-.55l.208.092c.508.227 1.276.57 2.155.57 2.638 0 3.455-2.8 3.804-3.994l.026-.09c.456.114 1.006.047 1.322-.01l.1.017c.59.108 1.253.192 1.68-.192.145-.13.318-.37.318-.766 0-.232-.04-.432-.108-.607h3.802l.833 10.236h-5.596c-.262 0-.474.227-.474.506s.21.506.474.506h9.013c.262 0 .474-.227.474-.506 0-.28-.21-.506-.47-.506H29.8l-1.337-10.236h2.863c.262 0 .474-.227.474-.506 0-.28-.212-.506-.474-.506H28.33l-.935-7.157c.334.298.596.67.763 1.1.26.67.258 1.4-.004 2.06-.102.26.01.557.25.666l.186.04c.185 0 .36-.116.437-.31.362-.91.364-1.92.007-2.84-.247-.636-.643-1.18-1.15-1.59 1.1-.298 2.32.138 2.994 1.17.092.14.24.216.39.216.093 0 .187-.03.27-.09.215-.16.267-.477.118-.706-.897-1.373-2.517-1.96-3.982-1.576.184-.298.425-.558.714-.768.59-.43 1.313-.59 2.034-.46.258.05.503-.137.547-.412.04-.276-.13-.538-.39-.585-.964-.177-1.93.042-2.726.616-.273.197-.514.43-.72.69-.114-.32-.268-.623-.464-.907-.57-.824-1.413-1.375-2.375-1.55-.257-.05-.503.137-.547.412-.045.275.13.537.386.584.72.13 1.35.54 1.774 1.153.21.3.355.632.435.978-1.26-.882-2.97-.906-4.246.07-.215.163-.264.48-.11.706.152.227.45.28.66.117.957-.732 2.244-.71 3.187-.037-.606.207-1.15.578-1.58 1.09-.626.74-.94 1.693-.882 2.68.016.268.224.475.473.475h.03c.26-.017.46-.257.443-.536-.04-.715.187-1.404.64-1.942.375-.445.868-.745 1.42-.874l.612 7.52H22.2l-.085.008c-.2-.08-.396-.142-.572-.197-.23-.075-.516-.166-.61-.24l-.18-.156c-.342-.295-.752-.646-1.252-.777v-.257c0-.28-.21-.505-.472-.505s-.475.227-.475.506v.48c-.214.25-.377.655-.55 1.154l-.12-.02H16.87v-3.59c0-.28-.212-.506-.474-.506H15v-1.89c0-.28-.213-.506-.475-.506H9.927c-.262 0-.474.228-.474.507v.136H8.04c-.262 0-.474.227-.474.506v1.38H7.21v-.71c0-.28-.212-.505-.474-.505h-1.62v-1.74c0-.28-.21-.507-.473-.507H1.898c-.262 0-.474.227-.474.506 0 .28.212.506.474.506h2.27v1.74c0 .28.213.507.475.507h1.62v.71c0 .28.21.505.473.505H8.04c.262 0 .474-.227.474-.506v-1.38h1.413c.262 0 .474-.23.474-.508v-.137h3.65v1.89c0 .28.216.506.478.506h1.397v3.084H12.23l-.047.005c-.094-.11-.176-.244-.273-.4-.38-.62-.896-1.466-2.787-1.466-1.57 0-2.25 1.02-2.792 1.86H1.498c-.262 0-.474.226-.474.505s.213.505.475.505h4.018c-.147.11-.31.208-.477.31-.648.393-1.443.875-1.54 2.27l-.06.16c0 .01-.182 1.03-.47 2.08-.49 1.77-.85 2.072-.907 2.11-.252.013-.45.235-.45.505 0 .28.21.506.473.506.623 0 1.126-.69 1.61-2.224.026.242.043.483.043.753 0 .566-.21 1.09-.38 1.514-.138.34-.246.61-.246.88 0 .212.033.382.065.562.046.258.103.578.103 1.226 0 .62-.164 1.555-.295 2.307-.115.663-.18 1.05-.18 1.304l.016.287H.96c-.524 0-.95.452-.95 1.01 0 .56.426 1.013.95 1.013h30.096c.524 0 .948-.452.948-1.01 0-.56-.424-1.01-.948-1.01zm-18.622-7.318l-.083-.345.053-.146.03.492zm4.944-7.375c-.376 1.185-.886 2.458-1.702 2.458-.275 0-.545-.598-.807-1.176-.192-.426-.407-.9-.69-1.283h3.2zm-11.816.95c.3-.176.64-.374.93-.67.187-.19.346-.404.496-.623l.075-.11.078-.12c.502-.75.936-1.396 2.027-1.396 1.37 0 1.654.445 1.982.96.322.507.723 1.137 1.96 1.137.467 0 .766.504 1.167 1.27.38.726.81 1.548 1.655 1.548 1.655 0 2.334-1.957 2.83-3.386.135-.387.313-.903.437-1.09.317.048.64.313.95.57l.194.157c.234.186.566.286.918.392.795.24 1.15.413 1.15.8v.002c-.07.032-.276.068-.885-.04-.17-.03-.26-.047-.363-.028-.436.082-.96.084-1.09.006-.13-.127-.308-.177-.478-.134-.324.08-.413.372-.573.9-.334 1.097-.955 3.14-2.884 3.14-.685 0-1.318-.274-1.78-.47l-.318-.133.02-.32c0-.99-.284-1.413-.34-1.488l-.745.593-.013-.018c.002.003.155.257.155.91 0 .173-.027.347-.074.522l-.073.228c-.25.674-.768 1.356-1.24 1.978-.324.424-.637.835-.864 1.238l.08-1.825c.006-.163-.07-.318-.198-.413-.13-.095-.3-.117-.448-.06-.003.002-.355.138-.972.168-.496.026-1.26-.014-2.207-.314.2-.68.325-1.44.325-2.307 0-.27-.21-.486-.47-.486s-.472.218-.472.485c0 .937-.166 1.73-.416 2.44v.002c-.287.812-.684 1.517-1.074 2.21l-.4.723c-.144.27-.278.595-.403.95l-.037-.21-.046-.352c.005-.072.1-.3.168-.463.192-.46.454-1.09.454-1.83 0-.48-.05-.87-.105-1.28-.07-.538-.146-1.146-.146-2.156 0-.988.422-1.235 1.063-1.61zm.927 13.543l-.353-.223-.18-2.803.396-3.72-.008-.15c.194-.38.38-.78.55-1.208 1.417.478 2.52.436 3.175.324L9.734 149h-3.05c-.037-.104-.104-.196-.2-.257zm-2.36.258v-.095c0-.434.33-3.042.83-4.822l-.128 1.374-.003.098.185 3.292.028.153h-.912zm6.397.492c.237-1.892.538-5.06.582-6.045.015-.347.276-.824.6-1.33l1.072 2.44.49 4.935H10.52z" fill="#206FAC"/><path d="M18.307 88.722c-.066.264.086.534.34.603l1.792.486.12.02c.21 0 .4-.147.455-.37.066-.264-.086-.534-.34-.603l-1.792-.486c-.254-.07-.513.09-.58.354zm-2.414-3.828l.116.017c.2 0 .39-.15.44-.38l.452-1.93c.064-.27-.083-.55-.33-.62-.245-.07-.496.09-.56.367l-.45 1.928c-.065.273.082.552.328.624zm-3.458.248c.083.168.232.26.384.26.072 0 .15-.022.22-.07.213-.148.284-.472.16-.723l-.94-1.9c-.122-.25-.395-.335-.607-.187-.212.148-.283.47-.16.722l.94 1.895zm5.467 1.5c.09.15.255.236.423.236.084 0 .17-.02.248-.066l1.76-1.01c.235-.133.313-.426.176-.654-.14-.228-.44-.305-.675-.17l-1.76 1.008c-.235.134-.313.427-.176.655zm2.115.73l-1.296.147c-.27.03-.46.24-.42.47.032.21.245.36.49.36l.065-.005 1.296-.146c.27-.03.46-.24.425-.47-.036-.23-.283-.39-.556-.36zm-5.7-2.924c.027.268.194.462.386.462l.052-.005c.213-.04.363-.306.334-.598l-.14-1.394c-.028-.29-.224-.498-.437-.457-.213.04-.363.307-.334.598l.136 1.394zm2.803.855c.092.067.2.1.308.1.153 0 .303-.066.403-.19l.818-1.006c.17-.21.128-.51-.095-.673-.22-.16-.54-.12-.71.09l-.814 1.007c-.17.21-.13.515.094.676zm13.935 23.642H14.722l-.195-.247-.486-4.534v-.007l-.483-4.09-.042-.147c.096-.18.182-.363.256-.55l.208.092c.508.227 1.276.57 2.155.57 2.638 0 3.455-2.8 3.804-3.994l.026-.09c.456.114 1.006.047 1.322-.01l.1.017c.59.108 1.253.192 1.68-.192.145-.13.318-.37.318-.766 0-.232-.04-.432-.108-.607h3.802l.833 10.236h-5.596c-.262 0-.474.227-.474.506s.21.506.474.506h9.013c.262 0 .474-.227.474-.506 0-.28-.21-.506-.47-.506H29.8L28.463 94.39h2.863c.262 0 .474-.227.474-.506 0-.28-.212-.506-.474-.506H28.33l-.935-7.157c.334.298.596.67.763 1.1.26.67.258 1.4-.004 2.06-.102.26.01.557.25.666l.186.04c.185 0 .36-.116.437-.31.362-.91.364-1.92.007-2.84-.247-.636-.643-1.18-1.15-1.59 1.1-.298 2.32.138 2.994 1.17.092.14.24.216.39.216.093 0 .187-.03.27-.09.215-.16.267-.477.118-.706-.897-1.373-2.517-1.96-3.982-1.576.184-.298.425-.558.714-.768.59-.43 1.313-.59 2.034-.46.258.05.503-.137.547-.412.04-.276-.13-.538-.39-.585-.964-.177-1.93.042-2.726.616-.273.197-.514.43-.72.69-.114-.32-.268-.623-.464-.907-.57-.824-1.413-1.375-2.375-1.55-.257-.05-.503.137-.547.412-.045.275.13.537.386.584.72.13 1.35.54 1.774 1.153.21.3.355.632.435.978-1.26-.882-2.97-.906-4.246.07-.215.163-.264.48-.11.706.152.227.45.28.66.117.957-.732 2.244-.71 3.187-.037-.606.207-1.15.578-1.58 1.09-.626.74-.94 1.693-.882 2.68.016.268.224.475.473.475h.03c.26-.017.46-.257.443-.536-.04-.715.187-1.404.64-1.942.375-.445.868-.745 1.42-.874l.612 7.52H22.2l-.085.008c-.2-.08-.396-.142-.572-.197-.23-.075-.516-.166-.61-.24l-.18-.156c-.342-.295-.752-.646-1.252-.777v-.257c0-.28-.21-.505-.472-.505s-.475.227-.475.506v.48c-.214.25-.377.655-.55 1.154l-.12-.02H16.87v-3.59c0-.28-.212-.506-.474-.506H15v-1.89c0-.28-.213-.506-.475-.506H9.927c-.262 0-.474.228-.474.507v.136H8.04c-.262 0-.474.227-.474.506v1.38H7.21v-.71c0-.28-.212-.505-.474-.505h-1.62v-1.74c0-.28-.21-.507-.473-.507H1.898c-.262 0-.474.227-.474.506 0 .28.212.506.474.506h2.27v1.74c0 .28.213.507.475.507h1.62v.71c0 .28.21.505.473.505H8.04c.262 0 .474-.227.474-.506v-1.38h1.413c.262 0 .474-.23.474-.508v-.137h3.65v1.89c0 .28.216.506.478.506h1.397v3.084H12.23l-.047.005c-.094-.11-.176-.244-.273-.4-.38-.62-.896-1.466-2.787-1.466-1.57 0-2.25 1.02-2.792 1.86H1.498c-.262 0-.474.226-.474.505s.213.505.475.505h4.018c-.147.11-.31.208-.477.31-.648.393-1.443.875-1.54 2.27l-.06.16c0 .01-.182 1.03-.47 2.08-.49 1.77-.85 2.072-.907 2.11-.252.013-.45.235-.45.505 0 .28.21.506.473.506.623 0 1.126-.69 1.61-2.224.026.242.043.483.043.753 0 .566-.21 1.09-.38 1.514-.138.34-.246.61-.246.88 0 .212.033.382.065.562.046.258.103.578.103 1.226 0 .62-.164 1.555-.295 2.307-.115.663-.18 1.05-.18 1.304l.016.287H.96c-.524 0-.95.452-.95 1.01 0 .56.426 1.013.95 1.013h30.096c.524 0 .948-.452.948-1.01 0-.56-.424-1.01-.948-1.01zm-18.622-7.318l-.083-.345.053-.146.03.492zm4.944-7.375c-.376 1.185-.886 2.458-1.702 2.458-.275 0-.545-.598-.807-1.176-.192-.426-.407-.9-.69-1.283h3.2zm-11.816.95c.3-.176.64-.374.93-.67.187-.19.346-.404.496-.623l.075-.11.078-.12c.502-.75.936-1.396 2.027-1.396 1.37 0 1.654.445 1.982.96.322.507.723 1.137 1.96 1.137.467 0 .766.504 1.167 1.27.38.726.81 1.548 1.655 1.548 1.655 0 2.334-1.957 2.83-3.386.135-.387.313-.903.437-1.09.317.048.64.313.95.57l.194.157c.234.186.566.286.918.392.795.24 1.15.413 1.15.8v.002c-.07.032-.276.068-.885-.04-.17-.03-.26-.047-.363-.028-.436.082-.96.084-1.09.006-.13-.127-.308-.177-.478-.134-.324.08-.413.372-.573.9-.334 1.097-.955 3.14-2.884 3.14-.685 0-1.318-.274-1.78-.47l-.318-.133.02-.32c0-.99-.284-1.413-.34-1.488l-.745.593-.013-.018c.002.003.155.257.155.91 0 .173-.027.347-.074.522l-.073.228c-.25.674-.768 1.356-1.24 1.978-.324.424-.637.835-.864 1.238l.08-1.825c.006-.163-.07-.318-.198-.413-.13-.095-.3-.117-.448-.06-.003.002-.355.138-.972.168-.496.026-1.26-.014-2.207-.314.2-.68.325-1.44.325-2.307 0-.27-.21-.486-.47-.486s-.472.218-.472.485c0 .937-.166 1.73-.416 2.44v.002c-.287.812-.684 1.517-1.074 2.21l-.4.723c-.144.27-.278.595-.403.95l-.037-.21-.046-.352c.005-.072.1-.3.168-.463.192-.46.454-1.09.454-1.83 0-.48-.05-.87-.105-1.28-.07-.538-.146-1.146-.146-2.156 0-.988.422-1.235 1.063-1.61zm.927 13.543l-.353-.223-.18-2.803.396-3.72-.008-.15c.194-.38.38-.78.55-1.208 1.417.478 2.52.436 3.175.324L9.734 109h-3.05c-.037-.104-.104-.196-.2-.257zm-2.36.258v-.095c0-.434.33-3.042.83-4.822l-.128 1.374-.003.098.185 3.292.028.153h-.912zm6.397.492c.237-1.892.538-5.06.582-6.045.015-.347.276-.824.6-1.33l1.072 2.44.49 4.935H10.52z" fill="#fff"/><path d="M18.307 48.722c-.066.264.086.534.34.603l1.792.486.12.02c.21 0 .4-.147.455-.37.066-.264-.086-.534-.34-.603l-1.792-.486c-.254-.07-.513.09-.58.354zm-2.414-3.828l.116.017c.2 0 .39-.15.44-.38l.452-1.93c.064-.27-.083-.55-.33-.62-.245-.07-.496.09-.56.367l-.45 1.928c-.065.273.082.552.328.624zm-3.458.248c.083.168.232.26.384.26.072 0 .15-.022.22-.07.213-.148.284-.472.16-.723l-.94-1.9c-.122-.25-.395-.335-.607-.187-.212.148-.283.47-.16.722l.94 1.895zm5.467 1.5c.09.15.255.236.423.236.084 0 .17-.02.248-.066l1.76-1.01c.235-.133.313-.426.176-.654-.14-.228-.44-.305-.675-.17l-1.76 1.008c-.235.134-.313.427-.176.655zm2.115.73l-1.296.147c-.27.03-.46.24-.42.47.032.21.245.36.49.36l.065-.005 1.296-.146c.27-.03.46-.24.425-.47-.036-.23-.283-.39-.556-.36zm-5.7-2.924c.027.268.194.462.386.462l.052-.005c.213-.04.363-.306.334-.598l-.14-1.394c-.028-.29-.224-.498-.437-.457-.213.04-.363.307-.334.598l.136 1.394zm2.803.855c.092.067.2.1.308.1.153 0 .303-.066.403-.19l.818-1.006c.17-.21.128-.51-.095-.673-.22-.16-.54-.12-.71.09l-.814 1.007c-.17.21-.13.515.094.676zm13.935 23.642H14.722l-.195-.247-.486-4.534v-.007l-.483-4.09-.042-.147c.096-.18.182-.363.256-.55l.208.092c.508.227 1.276.57 2.155.57 2.638 0 3.455-2.8 3.804-3.994l.026-.09c.456.114 1.006.047 1.322-.01l.1.017c.59.108 1.253.192 1.68-.192.145-.13.318-.37.318-.766 0-.232-.04-.432-.108-.607h3.802l.833 10.236h-5.596c-.262 0-.474.227-.474.506s.21.506.474.506h9.013c.262 0 .474-.227.474-.506 0-.28-.21-.506-.47-.506H29.8L28.463 54.39h2.863c.262 0 .474-.227.474-.506 0-.28-.212-.506-.474-.506H28.33l-.935-7.157c.334.298.596.67.763 1.1.26.67.258 1.4-.004 2.06-.102.26.01.557.25.666l.186.04c.185 0 .36-.116.437-.31.362-.91.364-1.92.007-2.84-.247-.636-.643-1.18-1.15-1.59 1.1-.298 2.32.138 2.994 1.17.092.14.24.216.39.216.093 0 .187-.03.27-.09.215-.16.267-.477.118-.706-.897-1.373-2.517-1.96-3.982-1.576.184-.298.425-.558.714-.768.59-.43 1.313-.59 2.034-.46.258.05.503-.137.547-.412.04-.276-.13-.538-.39-.585-.964-.177-1.93.042-2.726.616-.273.197-.514.43-.72.69-.114-.32-.268-.623-.464-.907-.57-.824-1.413-1.375-2.375-1.55-.257-.05-.503.137-.547.412-.045.275.13.537.386.584.72.13 1.35.54 1.774 1.153.21.3.355.632.435.978-1.26-.882-2.97-.906-4.246.07-.215.163-.264.48-.11.706.152.227.45.28.66.117.957-.732 2.244-.71 3.187-.037-.606.207-1.15.578-1.58 1.09-.626.74-.94 1.693-.882 2.68.016.268.224.475.473.475h.03c.26-.017.46-.257.443-.536-.04-.715.187-1.404.64-1.942.375-.445.868-.745 1.42-.874l.612 7.52H22.2l-.085.008c-.2-.08-.396-.142-.572-.197-.23-.075-.516-.166-.61-.24l-.18-.156c-.342-.295-.752-.646-1.252-.777v-.257c0-.28-.21-.505-.472-.505s-.475.227-.475.506v.48c-.214.25-.377.655-.55 1.154l-.12-.02H16.87v-3.59c0-.28-.212-.506-.474-.506H15v-1.89c0-.28-.213-.506-.475-.506H9.927c-.262 0-.474.228-.474.507v.136H8.04c-.262 0-.474.227-.474.506v1.38H7.21v-.71c0-.28-.212-.505-.474-.505h-1.62v-1.74c0-.28-.21-.507-.473-.507H1.898c-.262 0-.474.227-.474.506 0 .28.212.506.474.506h2.27v1.74c0 .28.213.507.475.507h1.62v.71c0 .28.21.505.473.505H8.04c.262 0 .474-.227.474-.506v-1.38h1.413c.262 0 .474-.23.474-.508v-.137h3.65v1.89c0 .28.216.506.478.506h1.397v3.084H12.23l-.047.005c-.094-.11-.176-.244-.273-.4-.38-.62-.896-1.466-2.787-1.466-1.57 0-2.25 1.02-2.792 1.86H1.498c-.262 0-.474.226-.474.505s.213.505.475.505h4.018c-.147.11-.31.208-.477.31-.648.393-1.443.875-1.54 2.27l-.06.16c0 .01-.182 1.03-.47 2.08-.49 1.77-.85 2.072-.907 2.11-.252.013-.45.235-.45.505 0 .28.21.506.473.506.623 0 1.126-.69 1.61-2.224.026.242.043.483.043.753 0 .566-.21 1.09-.38 1.514-.138.34-.246.61-.246.88 0 .212.033.382.065.562.046.258.103.578.103 1.226 0 .62-.164 1.555-.295 2.307-.115.663-.18 1.05-.18 1.304l.016.287H.96c-.524 0-.95.452-.95 1.01 0 .56.426 1.013.95 1.013h30.096c.524 0 .948-.452.948-1.01 0-.56-.424-1.01-.948-1.01zm-18.622-7.318l-.083-.345.053-.146.03.492zm4.944-7.375c-.376 1.185-.886 2.458-1.702 2.458-.275 0-.545-.598-.807-1.176-.192-.426-.407-.9-.69-1.283h3.2zm-11.816.95c.3-.176.64-.374.93-.67.187-.19.346-.404.496-.623l.075-.11.078-.12c.502-.75.936-1.396 2.027-1.396 1.37 0 1.654.445 1.982.96.322.507.723 1.137 1.96 1.137.467 0 .766.504 1.167 1.27.38.726.81 1.548 1.655 1.548 1.655 0 2.334-1.957 2.83-3.386.135-.387.313-.903.437-1.09.317.048.64.313.95.57l.194.157c.234.186.566.286.918.392.795.24 1.15.413 1.15.8v.002c-.07.032-.276.068-.885-.04-.17-.03-.26-.047-.363-.028-.436.082-.96.084-1.09.006-.13-.127-.308-.177-.478-.134-.324.08-.413.372-.573.9-.334 1.097-.955 3.14-2.884 3.14-.685 0-1.318-.274-1.78-.47l-.318-.133.02-.32c0-.99-.284-1.413-.34-1.488l-.745.593-.013-.018c.002.003.155.257.155.91 0 .173-.027.347-.074.522l-.073.228c-.25.674-.768 1.356-1.24 1.978-.324.424-.637.835-.864 1.238l.08-1.825c.006-.163-.07-.318-.198-.413-.13-.095-.3-.117-.448-.06-.003.002-.355.138-.972.168-.496.026-1.26-.014-2.207-.314.2-.68.325-1.44.325-2.307 0-.27-.21-.486-.47-.486s-.472.218-.472.485c0 .937-.166 1.73-.416 2.44v.002c-.287.812-.684 1.517-1.074 2.21l-.4.723c-.144.27-.278.595-.403.95l-.037-.21-.046-.352c.005-.072.1-.3.168-.463.192-.46.454-1.09.454-1.83 0-.48-.05-.87-.105-1.28-.07-.538-.146-1.146-.146-2.156 0-.988.422-1.235 1.063-1.61zm.927 13.543l-.353-.223-.18-2.803L6.35 62l-.008-.15c.194-.38.38-.78.55-1.207 1.417.478 2.52.436 3.175.324L9.734 69h-3.05c-.037-.104-.104-.196-.2-.257zm-2.36.258v-.095c0-.434.33-3.042.83-4.822L4.83 65.46l-.003.098.185 3.292.028.153h-.912zm6.397.492c.237-1.892.538-5.06.582-6.045.015-.347.276-.824.6-1.33l1.072 2.44.49 4.935H10.52z" fill="#67737B"/><path d="M18.307 8.722c-.066.264.086.534.34.603l1.792.486.12.02c.21 0 .4-.147.455-.37.066-.264-.086-.534-.34-.603l-1.792-.486c-.254-.07-.513.09-.58.354zm-2.414-3.828l.116.017c.2 0 .39-.15.44-.38L16.9 2.6c.064-.27-.083-.55-.33-.62-.245-.07-.496.09-.56.367l-.45 1.928c-.065.273.082.552.328.624zm-3.458.248c.083.168.232.26.384.26.072 0 .15-.022.22-.07.213-.148.284-.472.16-.723l-.94-1.9c-.122-.25-.395-.335-.607-.187-.212.148-.283.47-.16.722l.94 1.895zm5.467 1.5c.09.15.255.236.423.236.084 0 .17-.02.248-.066l1.76-1.01c.235-.133.313-.426.176-.654-.14-.228-.44-.305-.675-.17l-1.76 1.008c-.235.134-.313.427-.176.655zm2.115.73l-1.296.147c-.27.03-.46.24-.42.47.032.21.245.36.49.36l.065-.005L20.15 8.2c.27-.03.46-.24.424-.47-.036-.23-.283-.39-.556-.36zm-5.7-2.924c.027.268.194.462.386.462l.052-.005c.213-.04.363-.306.334-.598l-.14-1.394c-.028-.29-.224-.498-.437-.457-.213.04-.363.307-.334.598l.136 1.394zm2.803.855c.092.067.2.1.308.1.153 0 .303-.066.403-.19l.818-1.006c.17-.21.128-.51-.095-.673-.22-.16-.54-.12-.71.09L17.03 4.63c-.17.21-.13.515.094.676zm13.935 23.642H14.722l-.195-.247-.486-4.534v-.007l-.483-4.09-.042-.147c.096-.18.182-.363.256-.55l.208.092c.508.227 1.276.57 2.155.57 2.638 0 3.455-2.8 3.804-3.994l.026-.09c.456.114 1.006.047 1.322-.01l.1.017c.59.108 1.253.192 1.68-.192.145-.13.318-.37.318-.766 0-.232-.04-.432-.108-.607h3.802l.833 10.236h-5.596c-.262 0-.474.227-.474.506s.21.506.474.506h9.013c.262 0 .474-.227.474-.506 0-.28-.21-.506-.47-.506H29.8L28.463 14.39h2.863c.262 0 .474-.227.474-.506 0-.28-.212-.506-.474-.506H28.33l-.935-7.157c.334.298.596.67.763 1.1.26.67.258 1.4-.004 2.06-.102.26.01.557.25.666l.186.04c.185 0 .36-.116.437-.31.362-.91.364-1.92.007-2.84-.247-.636-.643-1.18-1.15-1.59 1.1-.298 2.32.138 2.994 1.17.092.14.24.216.39.216.093 0 .187-.03.27-.09.215-.16.267-.477.118-.706-.897-1.373-2.517-1.96-3.982-1.576.184-.298.425-.558.714-.768.59-.43 1.313-.59 2.034-.46.258.05.503-.137.547-.412.04-.276-.13-.538-.39-.585-.964-.177-1.93.042-2.726.616-.273.197-.514.43-.72.69-.114-.32-.268-.623-.464-.907-.57-.824-1.413-1.375-2.375-1.55-.257-.05-.503.137-.547.412-.045.275.13.537.386.584.72.13 1.35.54 1.774 1.153.21.3.355.632.435.978-1.26-.882-2.97-.906-4.246.07-.215.163-.264.48-.11.706.152.227.45.28.66.117.957-.732 2.244-.71 3.187-.037-.606.207-1.15.578-1.58 1.09-.626.74-.94 1.693-.882 2.68.016.268.224.475.473.475h.03c.26-.017.46-.257.443-.536-.04-.715.187-1.404.64-1.942.375-.445.868-.745 1.42-.874l.612 7.52H22.2l-.085.008c-.2-.08-.396-.142-.572-.197-.23-.075-.516-.166-.61-.24l-.18-.156c-.342-.295-.752-.646-1.252-.777v-.257c0-.28-.21-.505-.472-.505s-.475.227-.475.506v.48c-.214.25-.377.655-.55 1.154l-.12-.02H16.87v-3.59c0-.28-.212-.506-.474-.506H15V7.39c0-.28-.213-.506-.475-.506H9.927c-.262 0-.474.227-.474.506v.137H8.04c-.262 0-.474.227-.474.506v1.38H7.21v-.71c0-.28-.212-.506-.474-.506h-1.62v-1.74c0-.28-.21-.507-.473-.507H1.898c-.262 0-.474.227-.474.506 0 .28.212.506.474.506h2.27v1.74c0 .28.213.507.475.507h1.62v.71c0 .28.21.503.473.503H8.04c.262 0 .474-.227.474-.506V8.54h1.413c.262 0 .474-.228.474-.507v-.137h3.65v1.89c0 .28.216.506.478.506h1.397v3.085H12.23l-.047.005c-.094-.11-.176-.242-.273-.4-.38-.618-.896-1.464-2.787-1.464-1.57 0-2.25 1.02-2.792 1.86H1.498c-.262 0-.474.226-.474.505s.213.506.475.506h4.018c-.147.11-.31.205-.477.31-.648.39-1.443.872-1.54 2.27l-.06.16c0 .01-.182 1.03-.47 2.08-.49 1.77-.85 2.07-.907 2.11-.252.01-.45.232-.45.502 0 .28.21.506.473.506.623 0 1.126-.69 1.61-2.225.026.242.043.483.043.753 0 .565-.21 1.09-.38 1.513-.138.342-.246.612-.246.882 0 .212.033.382.065.562.046.258.103.578.103 1.226 0 .62-.164 1.557-.295 2.31-.115.663-.18 1.05-.18 1.304l.016.287H.96c-.524 0-.95.455-.95 1.014 0 .56.426 1.012.95 1.012h30.096c.524 0 .948-.453.948-1.012 0-.56-.424-1.012-.948-1.012zm-18.622-7.318l-.083-.345.053-.146.03.492zm4.944-7.375c-.376 1.185-.886 2.458-1.702 2.458-.275 0-.545-.598-.807-1.176-.192-.426-.407-.9-.69-1.283h3.2zm-11.816.95c.3-.176.64-.374.93-.67.187-.19.346-.404.496-.623l.075-.11.078-.12c.502-.75.936-1.396 2.027-1.396 1.37 0 1.654.445 1.982.96.322.507.723 1.137 1.96 1.137.467 0 .766.504 1.167 1.27.38.726.81 1.548 1.655 1.548 1.655 0 2.334-1.957 2.83-3.386.135-.387.313-.903.437-1.09.317.048.64.313.95.57l.194.157c.234.186.566.286.918.392.795.24 1.15.413 1.15.8v.002c-.07.032-.276.068-.885-.04-.17-.03-.26-.047-.363-.028-.436.082-.96.084-1.09.006-.13-.127-.308-.177-.478-.134-.324.08-.413.372-.573.9-.334 1.097-.955 3.14-2.884 3.14-.685 0-1.318-.274-1.78-.47l-.318-.133.02-.32c0-.99-.284-1.413-.34-1.488l-.745.593-.013-.018c.002.003.155.257.155.91 0 .173-.027.347-.074.522l-.073.228c-.25.674-.768 1.356-1.24 1.978-.324.424-.637.835-.864 1.238l.08-1.825c.006-.163-.07-.318-.198-.413-.13-.095-.3-.117-.448-.06-.003.002-.355.138-.972.168-.496.026-1.26-.014-2.207-.314.2-.68.325-1.44.325-2.307 0-.27-.21-.486-.47-.486s-.472.218-.472.485c0 .937-.166 1.73-.416 2.44v.002c-.287.812-.684 1.517-1.074 2.21l-.4.723c-.144.27-.278.595-.403.95l-.037-.21-.046-.352c.005-.072.1-.3.168-.463.192-.46.454-1.09.454-1.83 0-.48-.05-.87-.105-1.28-.07-.538-.146-1.146-.146-2.156 0-.988.422-1.235 1.063-1.61zm.927 13.543l-.353-.223-.18-2.803L6.35 22l-.008-.15c.194-.38.38-.78.55-1.207 1.417.478 2.52.436 3.175.324L9.734 29h-3.05c-.037-.104-.104-.196-.2-.257zm-2.36.258v-.095c0-.434.33-3.042.83-4.822L4.83 25.46l-.003.098.185 3.292.028.153h-.912zm6.397.492c.237-1.892.538-5.06.582-6.045.015-.347.276-.824.6-1.33l1.072 2.44.49 4.935H10.52z" fill="#3A434E"/></g></svg>