<svg width="32" height="232" viewBox="0 0 32 232" xmlns="http://www.w3.org/2000/svg" xmlns:sketch="http://www.bohemiancoding.com/sketch/ns"><title>mumbai</title><desc>Created with Sketch.</desc><g sketch:type="MSPage" fill="none"><g sketch:type="MSShapeGroup"><path d="M31.519 148.694c-.229 0-.351-.035-.479-.085.141-.257.176-.571.088-.859l-.767-2.546v-8.209h.058c.261 0 .471-.232.471-.518 0-.286-.211-.518-.471-.518h-.058v-4.273c0-.383-.189-.716-.471-.895v-1.08c0-.286-.211-.518-.471-.518h-6.55v-1.303c.09-.094.147-.227.147-.374v-1.437c0-.285-.099-.55-.248-.788h6.651c.26 0 .471-.232.471-.518 0-.286-.211-.518-.471-.518h-7.757l-.018-.011v-.962c0-.286-.211-.518-.471-.518s-.471.232-.471.518v.962l-.018.011h-4.004c-.26 0-.471.231-.471.518 0 .286.211.518.471.518h2.899c-.15.238-.249.503-.249.788v1.437c0 .147.057.28.147.374v.475h-6.887v-.472c.092-.094.15-.228.15-.377v-1.437c0-.855-.885-1.528-1.372-1.834v-.962c0-.286-.211-.518-.471-.518s-.471.232-.471.518v.962c-.487.306-1.372.98-1.372 1.834v1.437c0 .146.055.278.144.372v1.305h-6.604c-.261 0-.471.232-.471.518v1.08c-.282.179-.471.512-.471.895v4.273h-.02c-.261 0-.471.232-.471.518 0 .286.211.518.471.518h.02v8.209l-.767 2.546c-.065.217-.061.449.005.659-.113-.019-.242-.032-.395-.032-.26 0-.471.232-.471.518 0 .285.211.518.471.518.281 0 .401.051.567.123.201.086.452.193.91.193s.709-.107.91-.194c.166-.072.287-.123.567-.123.281 0 .401.051.567.123.201.086.452.193.91.193s.709-.107.91-.193c.166-.072.287-.123.567-.123.281 0 .401.051.567.123.201.086.452.193.911.193.458 0 .709-.107.91-.193.166-.072.287-.123.567-.123.281 0 .401.051.567.123.201.086.452.193.91.193s.709-.107.91-.193c.167-.072.287-.123.567-.123.281 0 .401.051.567.123.201.086.452.193.91.193.459 0 .709-.107.91-.194.167-.072.287-.123.567-.123.281 0 .401.051.567.123.201.086.453.193.91.193.459 0 .709-.107.911-.193.166-.072.287-.123.567-.123.28 0 .401.051.567.123.201.086.452.193.911.193.458 0 .709-.107.91-.193.166-.072.287-.123.567-.123.281 0 .401.051.567.123.201.086.452.193.91.193s.709-.107.91-.193c.167-.072.287-.123.567-.123.281 0 .401.051.567.123.201.086.452.193.91.193.459 0 .709-.107.911-.193.166-.072.287-.123.567-.123.281 0 .401.051.567.123.201.086.452.193.91.193.459 0 .709-.107.911-.193.166-.072.287-.123.568-.123.281 0 .401.051.567.123.201.086.453.193.911.193.261 0 .472-.231.472-.518 0-.285-.211-.518-.472-.518zm-13.351-12.136l.083.035.13.021c.125 0 .245-.054.333-.151l.008-.011c.137-.157.17-.393.081-.588l-.081-.125-.007-.01c-.12-.131-.303-.179-.464-.13l-.08.033c-.113.062-.198.17-.238.301-.039.131-.03.275.027.397.045.098.118.178.207.228zm5.183 1.884c.088.099.21.154.336.154.125 0 .245-.054.333-.15.089-.097.139-.229.139-.367 0-.137-.05-.268-.137-.365-.14-.155-.367-.196-.545-.099-.113.062-.198.17-.238.3-.039.131-.03.275.027.398l.085.13zm3.989.099c.066.037.139.055.214.055.125 0 .244-.054.333-.15.144-.157.181-.399.089-.599l-.088-.135c-.139-.154-.366-.194-.544-.098-.113.062-.198.17-.238.3-.04.131-.03.275.027.398.045.098.118.178.207.228zm-22.448-.462c0-.083-.018-.164-.052-.236l-.064-.104v-.001l-.023-.027c-.087-.095-.206-.15-.333-.15-.073 0-.145.019-.21.054-.137.074-.232.217-.256.381-.024.163.025.33.13.447.088.099.21.154.336.154.125 0 .244-.054.333-.15.089-.097.139-.229.139-.367zm2.999.364c.088.099.21.154.336.154.125 0 .244-.054.333-.15.089-.097.139-.229.139-.367 0-.137-.05-.268-.137-.365-.14-.155-.367-.196-.545-.099-.113.062-.198.17-.238.3-.039.131-.03.275.027.398l.085.13zm5.525-1.884c.066.037.139.056.213.056.125 0 .244-.054.333-.151.145-.158.181-.4.089-.6-.08-.175-.243-.285-.421-.285-.073 0-.145.018-.21.054-.136.075-.232.216-.256.381-.025.165.025.332.133.45l.119.095zm-10.353-6.33h6.132v.424h-6.132v-.424zm7.832-5.088c.21.131.394.275.541.414h-1.082c.147-.139.332-.283.541-.414zm-.901 1.449h1.801v.41h-1.801v-.41zm.144 2.812v-1.315h1.507v3.447h-1.507v-2.132zm10.811-4.11h.442l.32.263h-1.08l.318-.263zm-.678 1.298h1.801v.41h-1.801v-.41zm.147 1.777v-.28h1.507v3.447h-1.507v-3.167zm8.509 18.674h-25.846l.191-.634h25.465l.19.634zm-23.469-2.704v-3.781c0-.194.373-.61.9-.939.453.287.901.71.901.939v4.298h-1.801v-.518zm7.129-13.415h6.887v.611h-6.887v-.611zm10.28 1.284h6.079v1.25h-6.079v-1.25zm-10.14.363v.606c0 .286.211.518.471.518s.471-.232.471-.518v-.606h.193v.606c0 .286.211.518.471.518.261 0 .471-.232.471-.518v-.606h.193v.606c0 .286.212.518.472.518s.471-.232.471-.518v-.606h.193v.606c0 .286.211.518.471.518.261 0 .471-.232.471-.518v-.606h.193v.606c0 .286.211.518.471.518s.471-.232.471-.518v-.606h.193v.606c0 .225.132.415.314.486l.157.032c.122 0 .231-.052.314-.135.096-.095.157-.23.157-.383v-.606h.125v1.395h-6.887v-1.395h.14zm-2.59.155v-.155h1.507v1.395h-1.507v-1.24zm2.45 2.429v-.154h6.887v9.856h-.623v-5.908c0-.201-.044-.4-.131-.596-.099-.224-.257-.446-.471-.667-.214-.219-.484-.438-.814-.657-.621-.412-1.234-.678-1.26-.689-.111-.047-.233-.047-.344 0-.026.011-.639.277-1.26.689-.953.632-1.415 1.26-1.415 1.92v5.908h-.569v-9.702zm1.512 9.184v-5.39c0-.337.773-1.045 1.905-1.568 1.131.522 1.905 1.23 1.905 1.568v5.908h-3.809v-.518zm6.318-11.768h1.507v1.395h-1.507v-1.395zm1.507 2.584v9.702h-1.507v-9.856h1.507v.154zm-12.73-2.429v.733h-6.132v-1.25h6.132v.518zm.943 11.613v-9.338h1.507v9.856h-1.507v-.518zm14.59 0v-3.781c0-.194.373-.61.899-.939.453.287.901.71.901.939v4.298h-1.801v-.518zm-5.253-14.625v.175h-6.887v-.486h6.887v.31zm9 14.625h-1.004v-3.781c0-1.061-1.364-1.843-1.637-1.989-.131-.07-.283-.07-.413 0-.273.146-1.637.929-1.637 1.989v3.781h-.917v-7.341h5.607v7.341zm0-8.376h-5.607v-1.47h.057v.678c0 .286.211.518.471.518s.471-.232.471-.518v-.678h.193v.678c0 .286.211.518.471.518.261 0 .471-.232.471-.518v-.678h.193v.678c0 .286.211.518.471.518s.471-.232.471-.518v-.678h.193v.678c0 .286.211.518.471.518.261 0 .471-.232.471-.518v-.678h.193v.678c0 .286.211.518.471.518s.471-.232.471-.518v-.678h.063v1.47zm-5.607-5.732h6.079v.424h-6.079v-.424zm-19.334 4.924v-.661h.082v.678c0 .286.211.518.471.518s.471-.232.471-.518v-.678h.193v.678c0 .286.211.518.471.518s.471-.232.471-.518v-.678h.193v.678c0 .286.211.518.471.518s.471-.232.471-.518v-.678h.193v.678c0 .286.211.518.471.518s.471-.232.471-.518v-.678h.193v.678c0 .286.211.518.471.518s.471-.232.471-.518v-.678h.092v1.47h-5.661v-.808zm0 1.844h5.661v7.341h-.992v-3.781c0-1.061-1.364-1.843-1.637-1.989-.13-.07-.283-.07-.413 0-.273.146-1.636.929-1.636 1.989v3.781h-.982v-7.341zm-.943-10.754h2.633c.261 0 .472-.232.472-.518 0-.286-.211-.518-.472-.518h-2.633c-.261 0-.471.232-.471.518 0 .286.211.518.471.518m1.044-1.398h4.448c.26 0 .471-.232.471-.518 0-.286-.211-.518-.471-.518h-4.448c-.26 0-.471.231-.471.518 0 .286.211.518.471.518m21.457.81c-.26 0-.471.232-.471.518 0 .285.211.517.471.517h2.633c.26 0 .471-.232.471-.517 0-.286-.211-.518-.471-.518h-2.633m-9.801-2.514h2.633c.26 0 .471-.231.471-.518 0-.286-.211-.517-.471-.517h-2.633c-.261 0-.471.231-.471.517 0 .286.211.518.471.518" fill="#206FAC"/><path d="M31.519 108.694c-.229 0-.351-.035-.479-.085.141-.257.176-.571.088-.859l-.767-2.546v-8.209h.058c.261 0 .471-.232.471-.518 0-.286-.211-.518-.471-.518h-.058v-4.273c0-.383-.189-.716-.471-.895v-1.08c0-.286-.211-.518-.471-.518h-6.55v-1.303c.09-.094.147-.227.147-.374v-1.437c0-.285-.099-.55-.248-.788h6.651c.26 0 .471-.232.471-.518 0-.286-.211-.518-.471-.518h-7.757l-.018-.011v-.962c0-.286-.211-.518-.471-.518s-.471.232-.471.518v.962l-.018.011h-4.004c-.26 0-.471.231-.471.518 0 .286.211.518.471.518h2.899c-.15.238-.249.503-.249.788v1.437c0 .147.057.28.147.374v.475h-6.887v-.472c.092-.094.15-.228.15-.377v-1.437c0-.855-.885-1.528-1.372-1.834v-.962c0-.286-.211-.518-.471-.518s-.471.232-.471.518v.962c-.487.306-1.372.98-1.372 1.834v1.437c0 .146.055.278.144.372v1.305h-6.604c-.261 0-.471.232-.471.518v1.08c-.282.179-.471.512-.471.895v4.273h-.02c-.261 0-.471.232-.471.518 0 .286.211.518.471.518h.02v8.209l-.767 2.546c-.065.217-.061.449.005.659-.113-.019-.242-.032-.395-.032-.26 0-.471.232-.471.518 0 .285.211.518.471.518.281 0 .401.051.567.123.201.086.452.193.91.193s.709-.107.91-.194c.166-.072.287-.123.567-.123.281 0 .401.051.567.123.201.086.452.193.91.193s.709-.107.91-.193c.166-.072.287-.123.567-.123.281 0 .401.051.567.123.201.086.452.193.911.193.458 0 .709-.107.91-.193.166-.072.287-.123.567-.123.281 0 .401.051.567.123.201.086.452.193.91.193s.709-.107.91-.193c.167-.072.287-.123.567-.123.281 0 .401.051.567.123.201.086.452.193.91.193.459 0 .709-.107.91-.194.167-.072.287-.123.567-.123.281 0 .401.051.567.123.201.086.453.193.91.193.459 0 .709-.107.911-.193.166-.072.287-.123.567-.123.28 0 .401.051.567.123.201.086.452.193.911.193.458 0 .709-.107.91-.193.166-.072.287-.123.567-.123.281 0 .401.051.567.123.201.086.452.193.91.193s.709-.107.91-.193c.167-.072.287-.123.567-.123.281 0 .401.051.567.123.201.086.452.193.91.193.459 0 .709-.107.911-.193.166-.072.287-.123.567-.123.281 0 .401.051.567.123.201.086.452.193.91.193.459 0 .709-.107.911-.193.166-.072.287-.123.568-.123.281 0 .401.051.567.123.201.086.453.193.911.193.261 0 .472-.231.472-.518 0-.285-.211-.518-.472-.518zm-13.351-12.136l.083.035.13.021c.125 0 .245-.054.333-.151l.008-.011c.137-.157.17-.393.081-.588l-.081-.125-.007-.01c-.12-.131-.303-.179-.464-.13l-.08.033c-.113.062-.198.17-.238.301-.039.131-.03.275.027.397.045.098.118.178.207.228zm5.183 1.884c.088.099.21.154.336.154.125 0 .245-.054.333-.15.089-.097.139-.229.139-.367 0-.137-.05-.268-.137-.365-.14-.155-.367-.196-.545-.099-.113.062-.198.17-.238.3-.039.131-.03.275.027.398l.085.13zm3.989.099c.066.037.139.055.214.055.125 0 .244-.054.333-.15.144-.157.181-.399.089-.599l-.088-.135c-.139-.154-.366-.194-.544-.098-.113.062-.198.17-.238.3-.04.131-.03.275.027.398.045.098.118.178.207.228zm-22.448-.462c0-.083-.018-.164-.052-.236l-.064-.104v-.001l-.023-.027c-.087-.095-.206-.15-.333-.15-.073 0-.145.019-.21.054-.137.074-.232.217-.256.381-.024.163.025.33.13.447.088.099.21.154.336.154.125 0 .244-.054.333-.15.089-.097.139-.229.139-.367zm2.999.364c.088.099.21.154.336.154.125 0 .244-.054.333-.15.089-.097.139-.229.139-.367 0-.137-.05-.268-.137-.365-.14-.155-.367-.196-.545-.099-.113.062-.198.17-.238.3-.039.131-.03.275.027.398l.085.13zm5.525-1.884c.066.037.139.056.213.056.125 0 .244-.054.333-.151.145-.158.181-.4.089-.6-.08-.175-.243-.285-.421-.285-.073 0-.145.018-.21.054-.136.075-.232.216-.256.381-.025.165.025.332.133.45l.119.095zm-10.353-6.33h6.132v.424h-6.132v-.424zm7.832-5.088c.21.131.394.275.541.414h-1.082c.147-.139.332-.283.541-.414zm-.901 1.449h1.801v.41h-1.801v-.41zm.144 2.812v-1.315h1.507v3.447h-1.507v-2.132zm10.811-4.11h.442l.32.263h-1.08l.318-.263zm-.678 1.298h1.801v.41h-1.801v-.41zm.147 1.777v-.28h1.507v3.447h-1.507v-3.167zm8.509 18.674h-25.846l.191-.634h25.465l.19.634zm-23.469-2.704v-3.781c0-.194.373-.61.9-.939.453.287.901.71.901.939v4.298h-1.801v-.518zm7.129-13.415h6.887v.611h-6.887v-.611zm10.28 1.284h6.079v1.25h-6.079v-1.25zm-10.14.363v.606c0 .286.211.518.471.518s.471-.232.471-.518v-.606h.193v.606c0 .286.211.518.471.518.261 0 .471-.232.471-.518v-.606h.193v.606c0 .286.212.518.472.518s.471-.232.471-.518v-.606h.193v.606c0 .286.211.518.471.518.261 0 .471-.232.471-.518v-.606h.193v.606c0 .286.211.518.471.518s.471-.232.471-.518v-.606h.193v.606c0 .225.132.415.314.486l.157.032c.122 0 .231-.052.314-.135.096-.095.157-.23.157-.383v-.606h.125v1.395h-6.887v-1.395h.14zm-2.59.155v-.155h1.507v1.395h-1.507v-1.24zm2.45 2.429v-.154h6.887v9.856h-.623v-5.908c0-.201-.044-.4-.131-.596-.099-.224-.257-.446-.471-.667-.214-.219-.484-.438-.814-.657-.621-.412-1.234-.678-1.26-.689-.111-.047-.233-.047-.344 0-.026.011-.639.277-1.26.689-.953.632-1.415 1.26-1.415 1.92v5.908h-.569v-9.702zm1.512 9.184v-5.39c0-.337.773-1.045 1.905-1.568 1.131.522 1.905 1.23 1.905 1.568v5.908h-3.809v-.518zm6.318-11.768h1.507v1.395h-1.507v-1.395zm1.507 2.584v9.702h-1.507v-9.856h1.507v.154zm-12.73-2.429v.733h-6.132v-1.25h6.132v.518zm.943 11.613v-9.338h1.507v9.856h-1.507v-.518zm14.59 0v-3.781c0-.194.373-.61.899-.939.453.287.901.71.901.939v4.298h-1.801v-.518zm-5.253-14.625v.175h-6.887v-.486h6.887v.31zm9 14.625h-1.004v-3.781c0-1.061-1.364-1.843-1.637-1.989-.131-.07-.283-.07-.413 0-.273.146-1.637.929-1.637 1.989v3.781h-.917v-7.341h5.607v7.341zm0-8.376h-5.607v-1.47h.057v.678c0 .286.211.518.471.518s.471-.232.471-.518v-.678h.193v.678c0 .286.211.518.471.518.261 0 .471-.232.471-.518v-.678h.193v.678c0 .286.211.518.471.518s.471-.232.471-.518v-.678h.193v.678c0 .286.211.518.471.518.261 0 .471-.232.471-.518v-.678h.193v.678c0 .286.211.518.471.518s.471-.232.471-.518v-.678h.063v1.47zm-5.607-5.732h6.079v.424h-6.079v-.424zm-19.334 4.924v-.661h.082v.678c0 .286.211.518.471.518s.471-.232.471-.518v-.678h.193v.678c0 .286.211.518.471.518s.471-.232.471-.518v-.678h.193v.678c0 .286.211.518.471.518s.471-.232.471-.518v-.678h.193v.678c0 .286.211.518.471.518s.471-.232.471-.518v-.678h.193v.678c0 .286.211.518.471.518s.471-.232.471-.518v-.678h.092v1.47h-5.661v-.808zm0 1.844h5.661v7.341h-.992v-3.781c0-1.061-1.364-1.843-1.637-1.989-.13-.07-.283-.07-.413 0-.273.146-1.636.929-1.636 1.989v3.781h-.982v-7.341zm-.943-10.754h2.633c.261 0 .472-.232.472-.518 0-.286-.211-.518-.472-.518h-2.633c-.261 0-.471.232-.471.518 0 .286.211.518.471.518m1.044-1.398h4.448c.26 0 .471-.232.471-.518 0-.286-.211-.518-.471-.518h-4.448c-.26 0-.471.231-.471.518 0 .286.211.518.471.518m21.457.81c-.26 0-.471.232-.471.518 0 .285.211.517.471.517h2.633c.26 0 .471-.232.471-.517 0-.286-.211-.518-.471-.518h-2.633m-9.801-2.514h2.633c.26 0 .471-.231.471-.518 0-.286-.211-.517-.471-.517h-2.633c-.261 0-.471.231-.471.517 0 .286.211.518.471.518" fill="#fff"/><path d="M31.519 68.694c-.229 0-.351-.035-.479-.085.141-.257.176-.571.088-.859l-.767-2.546v-8.209h.058c.261 0 .471-.232.471-.518 0-.286-.211-.518-.471-.518h-.058v-4.273c0-.383-.189-.716-.471-.895v-1.08c0-.286-.211-.518-.471-.518h-6.55v-1.303c.09-.094.147-.227.147-.374v-1.437c0-.285-.099-.55-.248-.788h6.651c.26 0 .471-.232.471-.518 0-.286-.211-.518-.471-.518h-7.757l-.018-.011v-.962c0-.286-.211-.518-.471-.518s-.471.232-.471.518v.962l-.018.011h-4.004c-.26 0-.471.231-.471.518 0 .286.211.518.471.518h2.899c-.15.238-.249.503-.249.788v1.437c0 .147.057.28.147.374v.475h-6.887v-.472c.092-.094.15-.228.15-.377v-1.437c0-.855-.885-1.528-1.372-1.834v-.962c0-.286-.211-.518-.471-.518s-.471.232-.471.518v.962c-.487.306-1.372.98-1.372 1.834v1.437c0 .146.055.278.144.372v1.305h-6.604c-.261 0-.471.232-.471.518v1.08c-.282.179-.471.512-.471.895v4.273h-.02c-.261 0-.471.232-.471.518 0 .286.211.518.471.518h.02v8.209l-.767 2.546c-.065.217-.061.449.005.659-.113-.019-.242-.032-.395-.032-.26 0-.471.232-.471.518 0 .285.211.518.471.518.281 0 .401.051.567.123.201.086.452.193.91.193s.709-.107.91-.194c.166-.072.287-.123.567-.123.281 0 .401.051.567.123.201.086.452.193.91.193s.709-.107.91-.193c.166-.072.287-.123.567-.123.281 0 .401.051.567.123.201.086.452.193.911.193.458 0 .709-.107.91-.193.166-.072.287-.123.567-.123.281 0 .401.051.567.123.201.086.452.193.91.193s.709-.107.91-.193c.167-.072.287-.123.567-.123.281 0 .401.051.567.123.201.086.452.193.91.193.459 0 .709-.107.91-.194.167-.072.287-.123.567-.123.281 0 .401.051.567.123.201.086.453.193.91.193.459 0 .709-.107.911-.193.166-.072.287-.123.567-.123.28 0 .401.051.567.123.201.086.452.193.911.193.458 0 .709-.107.91-.193.166-.072.287-.123.567-.123.281 0 .401.051.567.123.201.086.452.193.91.193s.709-.107.91-.193c.167-.072.287-.123.567-.123.281 0 .401.051.567.123.201.086.452.193.91.193.459 0 .709-.107.911-.193.166-.072.287-.123.567-.123.281 0 .401.051.567.123.201.086.452.193.91.193.459 0 .709-.107.911-.193.166-.072.287-.123.568-.123.281 0 .401.051.567.123.201.086.453.193.911.193.261 0 .472-.231.472-.518 0-.285-.211-.518-.472-.518zm-13.351-12.136l.083.035.13.021c.125 0 .245-.054.333-.151l.008-.011c.137-.157.17-.393.081-.588l-.081-.125-.007-.01c-.12-.131-.303-.179-.464-.13l-.08.033c-.113.062-.198.17-.238.301-.039.131-.03.275.027.397.045.098.118.178.207.228zm5.183 1.884c.088.099.21.154.336.154.125 0 .245-.054.333-.15.089-.097.139-.229.139-.367 0-.137-.05-.268-.137-.365-.14-.155-.367-.196-.545-.099-.113.062-.198.17-.238.3-.039.131-.03.275.027.398l.085.13zm3.989.099c.066.037.139.055.214.055.125 0 .244-.054.333-.15.144-.157.181-.399.089-.599l-.088-.135c-.139-.154-.366-.194-.544-.098-.113.062-.198.17-.238.3-.04.131-.03.275.027.398.045.098.118.178.207.228zm-22.448-.462c0-.083-.018-.164-.052-.236l-.064-.104v-.001l-.023-.027c-.087-.095-.206-.15-.333-.15-.073 0-.145.019-.21.054-.137.074-.232.217-.256.381-.024.163.025.33.13.447.088.099.21.154.336.154.125 0 .244-.054.333-.15.089-.097.139-.229.139-.367zm2.999.364c.088.099.21.154.336.154.125 0 .244-.054.333-.15.089-.097.139-.229.139-.367 0-.137-.05-.268-.137-.365-.14-.155-.367-.196-.545-.099-.113.062-.198.17-.238.3-.039.131-.03.275.027.398l.085.13zm5.525-1.884c.066.037.139.056.213.056.125 0 .244-.054.333-.151.145-.158.181-.4.089-.6-.08-.175-.243-.285-.421-.285-.073 0-.145.018-.21.054-.136.075-.232.216-.256.381-.025.165.025.332.133.45l.119.095zm-10.353-6.33h6.132v.424h-6.132v-.424zm7.832-5.088c.21.131.394.275.541.414h-1.082c.147-.139.332-.283.541-.414zm-.901 1.449h1.801v.41h-1.801v-.41zm.144 2.812v-1.315h1.507v3.447h-1.507v-2.132zm10.811-4.11h.442l.32.263h-1.08l.318-.263zm-.678 1.298h1.801v.41h-1.801v-.41zm.147 1.777v-.28h1.507v3.447h-1.507v-3.167zm8.509 18.674h-25.846l.191-.634h25.465l.19.634zm-23.469-2.704v-3.781c0-.194.373-.61.9-.939.453.287.901.71.901.939v4.298h-1.801v-.518zm7.129-13.415h6.887v.611h-6.887v-.611zm10.28 1.284h6.079v1.25h-6.079v-1.25zm-10.14.363v.606c0 .286.211.518.471.518s.471-.232.471-.518v-.606h.193v.606c0 .286.211.518.471.518.261 0 .471-.232.471-.518v-.606h.193v.606c0 .286.212.518.472.518s.471-.232.471-.518v-.606h.193v.606c0 .286.211.518.471.518.261 0 .471-.232.471-.518v-.606h.193v.606c0 .286.211.518.471.518s.471-.232.471-.518v-.606h.193v.606c0 .225.132.415.314.486l.157.032c.122 0 .231-.052.314-.135.096-.095.157-.23.157-.383v-.606h.125v1.395h-6.887v-1.395h.14zm-2.59.155v-.155h1.507v1.395h-1.507v-1.24zm2.45 2.429v-.154h6.887v9.856h-.623v-5.908c0-.201-.044-.4-.131-.596-.099-.224-.257-.446-.471-.667-.214-.219-.484-.438-.814-.657-.621-.412-1.234-.678-1.26-.689-.111-.047-.233-.047-.344 0-.026.011-.639.277-1.26.689-.953.632-1.415 1.26-1.415 1.92v5.908h-.569v-9.702zm1.512 9.184v-5.39c0-.337.773-1.045 1.905-1.568 1.131.522 1.905 1.23 1.905 1.568v5.908h-3.809v-.518zm6.318-11.768h1.507v1.395h-1.507v-1.395zm1.507 2.584v9.702h-1.507v-9.856h1.507v.154zm-12.73-2.429v.733h-6.132v-1.25h6.132v.518zm.943 11.613v-9.338h1.507v9.856h-1.507v-.518zm14.59 0v-3.781c0-.194.373-.61.899-.939.453.287.901.71.901.939v4.298h-1.801v-.518zm-5.253-14.625v.175h-6.887v-.486h6.887v.31zm9 14.625h-1.004v-3.781c0-1.061-1.364-1.843-1.637-1.989-.131-.07-.283-.07-.413 0-.273.146-1.637.929-1.637 1.989v3.781h-.917v-7.341h5.607v7.341zm0-8.376h-5.607v-1.47h.057v.678c0 .286.211.518.471.518s.471-.232.471-.518v-.678h.193v.678c0 .286.211.518.471.518.261 0 .471-.232.471-.518v-.678h.193v.678c0 .286.211.518.471.518s.471-.232.471-.518v-.678h.193v.678c0 .286.211.518.471.518.261 0 .471-.232.471-.518v-.678h.193v.678c0 .286.211.518.471.518s.471-.232.471-.518v-.678h.063v1.47zm-5.607-5.732h6.079v.424h-6.079v-.424zm-19.334 4.924v-.661h.082v.678c0 .286.211.518.471.518s.471-.232.471-.518v-.678h.193v.678c0 .286.211.518.471.518s.471-.232.471-.518v-.678h.193v.678c0 .286.211.518.471.518s.471-.232.471-.518v-.678h.193v.678c0 .286.211.518.471.518s.471-.232.471-.518v-.678h.193v.678c0 .286.211.518.471.518s.471-.232.471-.518v-.678h.092v1.47h-5.661v-.808zm0 1.844h5.661v7.341h-.992v-3.781c0-1.061-1.364-1.843-1.637-1.989-.13-.07-.283-.07-.413 0-.273.146-1.636.929-1.636 1.989v3.781h-.982v-7.341zm-.943-10.754h2.633c.261 0 .472-.232.472-.518 0-.286-.211-.518-.472-.518h-2.633c-.261 0-.471.232-.471.518 0 .286.211.518.471.518m1.044-1.398h4.448c.26 0 .471-.232.471-.518 0-.286-.211-.518-.471-.518h-4.448c-.26 0-.471.231-.471.518 0 .286.211.518.471.518m21.457.81c-.26 0-.471.232-.471.518 0 .285.211.517.471.517h2.633c.26 0 .471-.232.471-.517 0-.286-.211-.518-.471-.518h-2.633m-9.801-2.514h2.633c.26 0 .471-.231.471-.518 0-.286-.211-.517-.471-.517h-2.633c-.261 0-.471.231-.471.517 0 .286.211.518.471.518" fill="#67737B"/><path d="M31.519 28.694c-.229 0-.351-.035-.479-.085.141-.257.176-.571.088-.859l-.767-2.546v-8.209h.058c.261 0 .471-.232.471-.518 0-.286-.211-.518-.471-.518h-.058v-4.273c0-.383-.189-.716-.471-.895v-1.08c0-.286-.211-.518-.471-.518h-6.55v-1.303c.09-.094.147-.227.147-.374v-1.437c0-.285-.099-.55-.248-.788h6.651c.26 0 .471-.232.471-.518 0-.286-.211-.518-.471-.518h-7.757l-.018-.011v-.962c0-.286-.211-.518-.471-.518s-.471.232-.471.518v.962l-.018.011h-4.004c-.26 0-.471.231-.471.518 0 .286.211.518.471.518h2.899c-.15.238-.249.503-.249.788v1.437c0 .147.057.28.147.374v.475h-6.887v-.472c.092-.094.15-.228.15-.377v-1.437c0-.855-.885-1.528-1.372-1.834v-.962c0-.286-.211-.518-.471-.518s-.471.232-.471.518v.962c-.487.306-1.372.98-1.372 1.834v1.437c0 .146.055.278.144.372v1.305h-6.604c-.261 0-.471.232-.471.518v1.08c-.282.179-.471.512-.471.895v4.273h-.02c-.261 0-.471.232-.471.518 0 .286.211.518.471.518h.02v8.209l-.767 2.546c-.065.217-.061.449.005.659-.113-.019-.242-.032-.395-.032-.26 0-.471.232-.471.518 0 .285.211.518.471.518.281 0 .401.051.567.123.201.086.452.193.91.193s.709-.107.91-.194c.166-.072.287-.123.567-.123.281 0 .401.051.567.123.201.086.452.193.91.193s.709-.107.91-.193c.166-.072.287-.123.567-.123.281 0 .401.051.567.123.201.086.452.193.911.193.458 0 .709-.107.91-.193.166-.072.287-.123.567-.123.281 0 .401.051.567.123.201.086.452.193.91.193s.709-.107.91-.193c.167-.072.287-.123.567-.123.281 0 .401.051.567.123.201.086.452.193.91.193.459 0 .709-.107.91-.194.167-.072.287-.123.567-.123.281 0 .401.051.567.123.201.086.453.193.91.193.459 0 .709-.107.911-.193.166-.072.287-.123.567-.123.28 0 .401.051.567.123.201.086.452.193.911.193.458 0 .709-.107.91-.193.166-.072.287-.123.567-.123.281 0 .401.051.567.123.201.086.452.193.91.193s.709-.107.91-.193c.167-.072.287-.123.567-.123.281 0 .401.051.567.123.201.086.452.193.91.193.459 0 .709-.107.911-.193.166-.072.287-.123.567-.123.281 0 .401.051.567.123.201.086.452.193.91.193.459 0 .709-.107.911-.193.166-.072.287-.123.568-.123.281 0 .401.051.567.123.201.086.453.193.911.193.261 0 .472-.231.472-.518 0-.285-.211-.518-.472-.518zm-13.351-12.136l.083.035.13.021c.125 0 .245-.054.333-.151l.008-.011c.137-.157.17-.393.081-.588l-.081-.125-.007-.01c-.12-.131-.303-.179-.464-.13l-.08.033c-.113.062-.198.17-.238.301-.039.131-.03.275.027.397.045.098.118.178.207.228zm5.183 1.884c.088.099.21.154.336.154.125 0 .245-.054.333-.15.089-.097.139-.229.139-.367 0-.137-.05-.268-.137-.365-.14-.155-.367-.196-.545-.099-.113.062-.198.17-.238.3-.039.131-.03.275.027.398l.085.13zm3.989.099c.066.037.139.055.214.055.125 0 .244-.054.333-.15.144-.157.181-.399.089-.599l-.088-.135c-.139-.154-.366-.194-.544-.098-.113.062-.198.17-.238.3-.04.131-.03.275.027.398.045.098.118.178.207.228zm-22.448-.462c0-.083-.018-.164-.052-.236l-.064-.104v-.001l-.023-.027c-.087-.095-.206-.15-.333-.15-.073 0-.145.019-.21.054-.137.074-.232.217-.256.381-.024.163.025.33.13.447.088.099.21.154.336.154.125 0 .244-.054.333-.15.089-.097.139-.229.139-.367zm2.999.364c.088.099.21.154.336.154.125 0 .244-.054.333-.15.089-.097.139-.229.139-.367 0-.137-.05-.268-.137-.365-.14-.155-.367-.196-.545-.099-.113.062-.198.17-.238.3-.039.131-.03.275.027.398l.085.13zm5.525-1.884c.066.037.139.056.213.056.125 0 .244-.054.333-.151.145-.158.181-.4.089-.6-.08-.175-.243-.285-.421-.285-.073 0-.145.018-.21.054-.136.075-.232.216-.256.381-.025.165.025.332.133.45l.119.095zm-10.353-6.33h6.132v.424h-6.132v-.424zm7.832-5.088c.21.131.394.275.541.414h-1.082c.147-.139.332-.283.541-.414zm-.901 1.449h1.801v.41h-1.801v-.41zm.144 2.812v-1.315h1.507v3.447h-1.507v-2.132zm10.811-4.11h.442l.32.263h-1.08l.318-.263zm-.678 1.298h1.801v.41h-1.801v-.41zm.147 1.777v-.28h1.507v3.447h-1.507v-3.167zm8.509 18.674h-25.846l.191-.634h25.465l.19.634zm-23.469-2.704v-3.781c0-.194.373-.61.9-.939.453.287.901.71.901.939v4.298h-1.801v-.518zm7.129-13.415h6.887v.611h-6.887v-.611zm10.28 1.284h6.079v1.25h-6.079v-1.25zm-10.14.363v.606c0 .286.211.518.471.518s.471-.232.471-.518v-.606h.193v.606c0 .286.211.518.471.518.261 0 .471-.232.471-.518v-.606h.193v.606c0 .286.212.518.472.518s.471-.232.471-.518v-.606h.193v.606c0 .286.211.518.471.518.261 0 .471-.232.471-.518v-.606h.193v.606c0 .286.211.518.471.518s.471-.232.471-.518v-.606h.193v.606c0 .225.132.415.314.486l.157.032c.122 0 .231-.052.314-.135.096-.095.157-.23.157-.383v-.606h.125v1.395h-6.887v-1.395h.14zm-2.59.155v-.155h1.507v1.395h-1.507v-1.24zm2.45 2.429v-.154h6.887v9.856h-.623v-5.908c0-.201-.044-.4-.131-.596-.099-.224-.257-.446-.471-.667-.214-.219-.484-.438-.814-.657-.621-.412-1.234-.678-1.26-.689-.111-.047-.233-.047-.344 0-.026.011-.639.277-1.26.689-.953.632-1.415 1.26-1.415 1.92v5.908h-.569v-9.702zm1.512 9.184v-5.39c0-.337.773-1.045 1.905-1.568 1.131.522 1.905 1.23 1.905 1.568v5.908h-3.809v-.518zm6.318-11.768h1.507v1.395h-1.507v-1.395zm1.507 2.584v9.702h-1.507v-9.856h1.507v.154zm-12.73-2.429v.733h-6.132v-1.25h6.132v.518zm.943 11.613v-9.338h1.507v9.856h-1.507v-.518zm14.59 0v-3.781c0-.194.373-.61.899-.939.453.287.901.71.901.939v4.298h-1.801v-.518zm-5.253-14.625v.175h-6.887v-.486h6.887v.31zm9 14.625h-1.004v-3.781c0-1.061-1.364-1.843-1.637-1.989-.131-.07-.283-.07-.413 0-.273.146-1.637.929-1.637 1.989v3.781h-.917v-7.341h5.607v7.341zm0-8.376h-5.607v-1.47h.057v.678c0 .286.211.518.471.518s.471-.232.471-.518v-.678h.193v.678c0 .286.211.518.471.518.261 0 .471-.232.471-.518v-.678h.193v.678c0 .286.211.518.471.518s.471-.232.471-.518v-.678h.193v.678c0 .286.211.518.471.518.261 0 .471-.232.471-.518v-.678h.193v.678c0 .286.211.518.471.518s.471-.232.471-.518v-.678h.063v1.47zm-5.607-5.732h6.079v.424h-6.079v-.424zm-19.334 4.924v-.661h.082v.678c0 .286.211.518.471.518s.471-.232.471-.518v-.678h.193v.678c0 .286.211.518.471.518s.471-.232.471-.518v-.678h.193v.678c0 .286.211.518.471.518s.471-.232.471-.518v-.678h.193v.678c0 .286.211.518.471.518s.471-.232.471-.518v-.678h.193v.678c0 .286.211.518.471.518s.471-.232.471-.518v-.678h.092v1.47h-5.661v-.808zm0 1.844h5.661v7.341h-.992v-3.781c0-1.061-1.364-1.843-1.637-1.989-.13-.07-.283-.07-.413 0-.273.146-1.636.929-1.636 1.989v3.781h-.982v-7.341zm-.943-10.754h2.633c.261 0 .472-.232.472-.518 0-.286-.211-.518-.472-.518h-2.633c-.261 0-.471.232-.471.518 0 .286.211.518.471.518m1.044-1.398h4.448c.26 0 .471-.232.471-.518 0-.286-.211-.518-.471-.518h-4.448c-.26 0-.471.231-.471.518 0 .286.211.518.471.518m21.457.81c-.26 0-.471.232-.471.518 0 .285.211.517.471.517h2.633c.26 0 .471-.232.471-.517 0-.286-.211-.518-.471-.518h-2.633m-9.801-2.514h2.633c.26 0 .471-.231.471-.518 0-.286-.211-.517-.471-.517h-2.633c-.261 0-.471.231-.471.517 0 .286.211.518.471.518" fill="#3A434E"/></g></g></svg>