<svg width="32" height="232" viewBox="0 0 32 232" xmlns="http://www.w3.org/2000/svg" xmlns:sketch="http://www.bohemiancoding.com/sketch/ns"><title>khumbu-nepal</title><desc>Created with Sketch.</desc><g sketch:type="MSPage" fill="none"><g sketch:type="MSShapeGroup"><path d="M31.01 138.453h-10.911000000000001c-.888 0-1.694.382-2.279.999h-.547c.004-.139-.018-.28-.069-.417l-.892-2.431-.051-.116 1.579-2.697.034-.069 1.166-2.854.04-.176.285-4.437.936.656.424.297 2.086 1.461 1.157 1.384.135.114 1.403.817.109 1.661.043.181.949 2.256c.048.115.133.208.24.263l3.454 1.78c.251.129.553.018.674-.248.122-.266.017-.586-.233-.715l-3.288-1.695-.838-1.992-.122-1.858c-.012-.182-.11-.344-.26-.432l-1.568-.913-1.143-1.367-.1-.092-2.12-1.485.837-2.935 1.507 1.299.076.054 2.7 1.568 1.865 3.471c.056.105.145.187.251.232l2.666 1.134c.259.11.553-.023.656-.298.104-.274-.022-.586-.281-.696l-2.503-1.065-1.849-3.44c-.046-.086-.114-.157-.196-.204l-2.785-1.617-2.055-1.772c-.131-.113-.306-.148-.466-.096-.161.052-.286.186-.335.357l-.968 3.393-1.226-.858c-.15-.105-.341-.117-.502-.033-.161.085-.267.253-.279.443l-.174 2.705h-1.488c-.219 0-.414.15-.481.372l-.696 2.299-2.275 1.75-1.287-2.656c-.159-.327-.464-.545-.809-.577-.345-.033-.682.125-.892.418l-1.786 2.487c-.106.148-.174.322-.197.506-.037.296-.085.609-.132.869l-1.003.013c-.338.006-.65.191-.832.493l-.749 1.239-1.458 1.342c-.129.119-.228.271-.286.441l-.663 1.925c-.064.187-.076.38-.044.562h-1.024c-.279 0-.505.239-.505.535 0 .296.226.535.505.535h14.989c-.171.417-.266.877-.266 1.361 0 1.825 1.351 3.322 3.048 3.424l.166.015c.67 0 1.215.578 1.215 1.289s-.545 1.289-1.215 1.289h-19.069c-.557 0-1.009.479-1.009 1.071 0 .591.452 1.071 1.009 1.071h19.097l.035-.001c1.754-.036 3.171-1.56 3.171-3.429 0-1.825-1.351-3.322-3.048-3.424l-.166-.015c-.67 0-1.215-.578-1.215-1.289s.545-1.289 1.212-1.289h10.915c.128 0 .25-.026.363-.073.242-.002.444-.185.491-.428.098-.165.156-.36.156-.57 0-.591-.452-1.071-1.009-1.071zm-17.226-5.11l2.523-1.94c.087-.067.151-.161.184-.27l.634-2.094h1.051l-.095 1.486-1.117 2.733-1.403 2.396-.923-1.018-.803-1.152-.064-.132.013-.01zm-8.618 6.108l.514-1.493 1.371-1.262c.073-.067.136-.145.188-.231l.534-.884c.473-.006.912-.006 1.034.001.267.032.532-.045.75-.219.275-.221.507-.532.74-2.229l.656-.914 1.124 2.319.086.147.89 1.277.084.105 1.367 1.509.687 1.872h-10.026zm-1.193 4.039c.49 0 .759-.111.974-.201.178-.074.307-.127.607-.127s.429.053.607.127c.216.089.484.201.974.201s.759-.111.974-.201c.178-.074.307-.127.607-.127s.429.053.607.127c.216.089.484.201.974.201s.759-.111.974-.201c.178-.074.307-.127.607-.127s.429.053.607.127c.216.089.484.201.974.201s.759-.111.974-.201c.178-.074.307-.127.607-.127.279 0 .505-.24.505-.535 0-.296-.226-.535-.505-.535-.49 0-.759.111-.974.201-.178.074-.307.127-.607.127s-.429-.053-.607-.127c-.215-.089-.484-.201-.974-.201s-.759.111-.974.201c-.178.074-.307.127-.607.127s-.429-.053-.607-.127c-.215-.089-.484-.201-.974-.201s-.759.111-.974.201c-.178.074-.307.127-.607.127s-.429-.053-.607-.127c-.216-.089-.484-.201-.974-.201s-.759.111-.974.201c-.178.074-.307.127-.607.127-.279 0-.505.24-.505.535 0 .296.226.535.505.535m-2.963 2.449c.49 0 .759-.111.974-.201.178-.074.307-.127.607-.127s.429.053.607.127c.216.089.484.201.975.201.49 0 .759-.111.974-.201.178-.074.307-.127.607-.127s.429.053.607.127c.216.089.484.201.974.201s.759-.111.974-.201c.178-.074.307-.127.607-.127s.429.053.607.127c.216.089.484.201.974.201s.759-.111.974-.201c.178-.074.307-.127.607-.127.279 0 .505-.24.505-.535 0-.296-.226-.535-.505-.535-.49 0-.759.111-.974.201-.178.074-.307.127-.607.127s-.429-.053-.607-.127c-.216-.089-.484-.201-.974-.201-.491 0-.759.111-.974.201-.178.074-.307.127-.607.127s-.429-.053-.607-.127c-.216-.089-.484-.201-.974-.201-.491 0-.759.111-.975.201-.178.074-.307.127-.607.127s-.429-.053-.607-.127c-.216-.089-.484-.201-.974-.201-.491 0-.759.111-.974.201-.178.074-.307.127-.607.127-.279 0-.505.24-.505.535 0 .296.226.535.505.535m1.822-16.901h3.689c.269 0 .528-.104.73-.293.239-.223.375-.543.375-.879l-.005-.102h1.753c.309 0 .607-.12.84-.338.274-.256.431-.625.431-1.011 0-.386-.157-.755-.431-1.011-.233-.218-.531-.338-.84-.338h-5.192c-.701 0-1.271.605-1.271 1.348l.027.278h-.106c-.61 0-1.105.526-1.105 1.172 0 .646.496 1.172 1.105 1.172zm0-1.274h1.352c.279 0 .505-.24.505-.535h-.002c0-.296-.226-.535-.505-.535-.145 0-.262-.125-.262-.278 0-.153.117-.278.262-.278h5.192c.081 0 .138.038.173.07.034.031.09.1.09.208 0 .108-.056.177-.089.208-.034.032-.092.07-.173.07h-2.855c-.279 0-.505.24-.505.535 0 .296.226.535.505.535h.002l.063.026.033.076-.033.076-.063.026h-3.689c-.053 0-.096-.046-.096-.102 0-.056.043-.102.096-.102zm10.236-4.347h5.353c.279 0 .505-.24.505-.535 0-.296-.226-.535-.505-.535h-5.353c-.279 0-.505.24-.505.535 0 .296.226.535.505.535zm-1.422 1.783h5.353c.279 0 .505-.24.505-.535 0-.296-.226-.535-.505-.535h-5.353c-.279 0-.505.24-.505.535 0 .296.226.535.505.535z" fill="#206FAC"/><path d="M31.01 98.453h-10.911000000000001c-.888 0-1.694.382-2.279.999h-.547c.004-.139-.018-.28-.069-.417l-.892-2.431-.051-.116 1.579-2.697.034-.069 1.166-2.854.04-.176.285-4.437.936.656.424.297 2.086 1.461 1.157 1.384.135.114 1.403.817.109 1.661.043.181.949 2.256c.048.115.133.208.24.263l3.454 1.78c.251.129.553.018.674-.248.122-.266.017-.586-.233-.715l-3.288-1.695-.838-1.992-.122-1.858c-.012-.182-.11-.344-.26-.432l-1.568-.913-1.143-1.367-.1-.092-2.12-1.485.837-2.935 1.507 1.299.076.054 2.7 1.568 1.865 3.471c.056.105.145.187.251.232l2.666 1.134c.259.11.553-.023.656-.298.104-.274-.022-.586-.281-.696l-2.503-1.065-1.849-3.44c-.046-.086-.114-.157-.196-.204l-2.785-1.617-2.055-1.772c-.131-.113-.306-.148-.466-.096-.161.052-.286.186-.335.357l-.968 3.393-1.226-.858c-.15-.105-.341-.117-.502-.033-.161.085-.267.253-.279.443l-.174 2.705h-1.488c-.219 0-.414.15-.481.372l-.696 2.299-2.275 1.75-1.287-2.656c-.159-.327-.464-.545-.809-.577-.345-.033-.682.125-.892.418l-1.786 2.487c-.106.148-.174.322-.197.506-.037.296-.085.609-.132.869l-1.003.013c-.338.006-.65.191-.832.493l-.749 1.239-1.458 1.342c-.129.119-.228.271-.286.441l-.663 1.925c-.064.187-.076.38-.044.562h-1.024c-.279 0-.505.239-.505.535 0 .296.226.535.505.535h14.989c-.171.417-.266.877-.266 1.361 0 1.825 1.351 3.322 3.048 3.424l.166.015c.67 0 1.215.578 1.215 1.289s-.545 1.289-1.215 1.289h-19.069c-.557 0-1.009.479-1.009 1.071 0 .591.452 1.071 1.009 1.071h19.097l.035-.001c1.754-.036 3.171-1.56 3.171-3.429 0-1.825-1.351-3.322-3.048-3.424l-.166-.015c-.67 0-1.215-.578-1.215-1.289s.545-1.289 1.212-1.289h10.915c.128 0 .25-.026.363-.073.242-.002.444-.185.491-.428.098-.165.156-.36.156-.57 0-.591-.452-1.071-1.009-1.071zm-17.226-5.11l2.523-1.94c.087-.067.151-.161.184-.27l.634-2.094h1.051l-.095 1.486-1.117 2.733-1.403 2.396-.923-1.018-.803-1.152-.064-.132.013-.01zm-8.618 6.108l.514-1.493 1.371-1.262c.073-.067.136-.145.188-.231l.534-.884c.473-.006.912-.006 1.034.001.267.032.532-.045.75-.219.275-.221.507-.532.74-2.229l.656-.914 1.124 2.319.086.147.89 1.277.084.105 1.367 1.509.687 1.872h-10.026zm-1.193 4.039c.49 0 .759-.111.974-.201.178-.074.307-.127.607-.127s.429.053.607.127c.216.089.484.201.974.201s.759-.111.974-.201c.178-.074.307-.127.607-.127s.429.053.607.127c.216.089.484.201.974.201s.759-.111.974-.201c.178-.074.307-.127.607-.127s.429.053.607.127c.216.089.484.201.974.201s.759-.111.974-.201c.178-.074.307-.127.607-.127.279 0 .505-.24.505-.535 0-.296-.226-.535-.505-.535-.49 0-.759.111-.974.201-.178.074-.307.127-.607.127s-.429-.053-.607-.127c-.215-.089-.484-.201-.974-.201s-.759.111-.974.201c-.178.074-.307.127-.607.127s-.429-.053-.607-.127c-.215-.089-.484-.201-.974-.201s-.759.111-.974.201c-.178.074-.307.127-.607.127s-.429-.053-.607-.127c-.216-.089-.484-.201-.974-.201s-.759.111-.974.201c-.178.074-.307.127-.607.127-.279 0-.505.24-.505.535 0 .296.226.535.505.535m-2.963 2.449c.49 0 .759-.111.974-.201.178-.074.307-.127.607-.127s.429.053.607.127c.216.089.484.201.975.201.49 0 .759-.111.974-.201.178-.074.307-.127.607-.127s.429.053.607.127c.216.089.484.201.974.201s.759-.111.974-.201c.178-.074.307-.127.607-.127s.429.053.607.127c.216.089.484.201.974.201s.759-.111.974-.201c.178-.074.307-.127.607-.127.279 0 .505-.24.505-.535 0-.296-.226-.535-.505-.535-.49 0-.759.111-.974.201-.178.074-.307.127-.607.127s-.429-.053-.607-.127c-.216-.089-.484-.201-.974-.201-.491 0-.759.111-.974.201-.178.074-.307.127-.607.127s-.429-.053-.607-.127c-.216-.089-.484-.201-.974-.201-.491 0-.759.111-.975.201-.178.074-.307.127-.607.127s-.429-.053-.607-.127c-.216-.089-.484-.201-.974-.201-.491 0-.759.111-.974.201-.178.074-.307.127-.607.127-.279 0-.505.24-.505.535 0 .296.226.535.505.535m1.822-16.901h3.689c.269 0 .528-.104.73-.293.239-.223.375-.543.375-.879l-.005-.102h1.753c.309 0 .607-.12.84-.338.274-.256.431-.625.431-1.011 0-.386-.157-.755-.431-1.011-.233-.218-.531-.338-.84-.338h-5.192c-.701 0-1.271.605-1.271 1.348l.027.278h-.106c-.61 0-1.105.526-1.105 1.172 0 .646.496 1.172 1.105 1.172zm0-1.274h1.352c.279 0 .505-.24.505-.535h-.002c0-.296-.226-.535-.505-.535-.145 0-.262-.125-.262-.278 0-.153.117-.278.262-.278h5.192c.081 0 .138.038.173.07.034.031.09.1.09.208 0 .108-.056.177-.089.208-.034.032-.092.07-.173.07h-2.855c-.279 0-.505.24-.505.535 0 .296.226.535.505.535h.002l.063.026.033.076-.033.076-.063.026h-3.689c-.053 0-.096-.046-.096-.102 0-.056.043-.102.096-.102zm10.236-4.347h5.353c.279 0 .505-.24.505-.535 0-.296-.226-.535-.505-.535h-5.353c-.279 0-.505.24-.505.535 0 .296.226.535.505.535zm-1.422 1.783h5.353c.279 0 .505-.24.505-.535 0-.296-.226-.535-.505-.535h-5.353c-.279 0-.505.24-.505.535 0 .296.226.535.505.535z" fill="#fff"/><path d="M31.01 58.453h-10.911000000000001c-.888 0-1.694.382-2.279.999h-.547c.004-.139-.018-.28-.069-.417l-.892-2.431-.051-.116 1.579-2.697.034-.069 1.166-2.854.04-.176.285-4.437.936.656.424.297 2.086 1.461 1.157 1.384.135.114 1.403.817.109 1.661.043.181.949 2.256c.048.115.133.208.24.263l3.454 1.78c.251.129.553.018.674-.248.122-.266.017-.586-.233-.715l-3.288-1.695-.838-1.992-.122-1.858c-.012-.182-.11-.344-.26-.432l-1.568-.913-1.143-1.367-.1-.092-2.12-1.485.837-2.935 1.507 1.299.076.054 2.7 1.568 1.865 3.471c.056.105.145.187.251.232l2.666 1.134c.259.11.553-.023.656-.298.104-.274-.022-.586-.281-.696l-2.503-1.065-1.849-3.44c-.046-.086-.114-.157-.196-.204l-2.785-1.617-2.055-1.772c-.131-.113-.306-.148-.466-.096-.161.052-.286.186-.335.357l-.968 3.393-1.226-.858c-.15-.105-.341-.117-.502-.033-.161.085-.267.253-.279.443l-.174 2.705h-1.488c-.219 0-.414.15-.481.372l-.696 2.299-2.275 1.75-1.287-2.656c-.159-.327-.464-.545-.809-.577-.345-.033-.682.125-.892.418l-1.786 2.487c-.106.148-.174.322-.197.506-.037.296-.085.609-.132.869l-1.003.013c-.338.006-.65.191-.832.493l-.749 1.239-1.458 1.342c-.129.119-.228.271-.286.441l-.663 1.925c-.064.187-.076.38-.044.562h-1.024c-.279 0-.505.239-.505.535 0 .296.226.535.505.535h14.989c-.171.417-.266.877-.266 1.361 0 1.825 1.351 3.322 3.048 3.424l.166.015c.67 0 1.215.578 1.215 1.289s-.545 1.289-1.215 1.289h-19.069c-.557 0-1.009.479-1.009 1.071 0 .591.452 1.071 1.009 1.071h19.097l.035-.001c1.754-.036 3.171-1.56 3.171-3.429 0-1.825-1.351-3.322-3.048-3.424l-.166-.015c-.67 0-1.215-.578-1.215-1.289s.545-1.289 1.212-1.289h10.915c.128 0 .25-.026.363-.073.242-.002.444-.185.491-.428.098-.165.156-.36.156-.57 0-.591-.452-1.071-1.009-1.071zm-17.226-5.11l2.523-1.94c.087-.067.151-.161.184-.27l.634-2.094h1.051l-.095 1.486-1.117 2.733-1.403 2.396-.923-1.018-.803-1.152-.064-.132.013-.01zm-8.618 6.108l.514-1.493 1.371-1.262c.073-.067.136-.145.188-.231l.534-.884c.473-.006.912-.006 1.034.001.267.032.532-.045.75-.219.275-.221.507-.532.74-2.229l.656-.914 1.124 2.319.086.147.89 1.277.084.105 1.367 1.509.687 1.872h-10.026zm-1.193 4.039c.49 0 .759-.111.974-.201.178-.074.307-.127.607-.127s.429.053.607.127c.216.089.484.201.974.201s.759-.111.974-.201c.178-.074.307-.127.607-.127s.429.053.607.127c.216.089.484.201.974.201s.759-.111.974-.201c.178-.074.307-.127.607-.127s.429.053.607.127c.216.089.484.201.974.201s.759-.111.974-.201c.178-.074.307-.127.607-.127.279 0 .505-.24.505-.535 0-.296-.226-.535-.505-.535-.49 0-.759.111-.974.201-.178.074-.307.127-.607.127s-.429-.053-.607-.127c-.215-.089-.484-.201-.974-.201s-.759.111-.974.201c-.178.074-.307.127-.607.127s-.429-.053-.607-.127c-.215-.089-.484-.201-.974-.201s-.759.111-.974.201c-.178.074-.307.127-.607.127s-.429-.053-.607-.127c-.216-.089-.484-.201-.974-.201s-.759.111-.974.201c-.178.074-.307.127-.607.127-.279 0-.505.24-.505.535 0 .296.226.535.505.535m-2.963 2.449c.49 0 .759-.111.974-.201.178-.074.307-.127.607-.127s.429.053.607.127c.216.089.484.201.975.201.49 0 .759-.111.974-.201.178-.074.307-.127.607-.127s.429.053.607.127c.216.089.484.201.974.201s.759-.111.974-.201c.178-.074.307-.127.607-.127s.429.053.607.127c.216.089.484.201.974.201s.759-.111.974-.201c.178-.074.307-.127.607-.127.279 0 .505-.24.505-.535 0-.296-.226-.535-.505-.535-.49 0-.759.111-.974.201-.178.074-.307.127-.607.127s-.429-.053-.607-.127c-.216-.089-.484-.201-.974-.201-.491 0-.759.111-.974.201-.178.074-.307.127-.607.127s-.429-.053-.607-.127c-.216-.089-.484-.201-.974-.201-.491 0-.759.111-.975.201-.178.074-.307.127-.607.127s-.429-.053-.607-.127c-.216-.089-.484-.201-.974-.201-.491 0-.759.111-.974.201-.178.074-.307.127-.607.127-.279 0-.505.24-.505.535 0 .296.226.535.505.535m1.822-16.901h3.689c.269 0 .528-.104.73-.293.239-.223.375-.543.375-.879l-.005-.102h1.753c.309 0 .607-.12.84-.338.274-.256.431-.625.431-1.011 0-.386-.157-.755-.431-1.011-.233-.218-.531-.338-.84-.338h-5.192c-.701 0-1.271.605-1.271 1.348l.027.278h-.106c-.61 0-1.105.526-1.105 1.172 0 .646.496 1.172 1.105 1.172zm0-1.274h1.352c.279 0 .505-.24.505-.535h-.002c0-.296-.226-.535-.505-.535-.145 0-.262-.125-.262-.278 0-.153.117-.278.262-.278h5.192c.081 0 .138.038.173.07.034.031.09.1.09.208 0 .108-.056.177-.089.208-.034.032-.092.07-.173.07h-2.855c-.279 0-.505.24-.505.535 0 .296.226.535.505.535h.002l.063.026.033.076-.033.076-.063.026h-3.689c-.053 0-.096-.046-.096-.102 0-.056.043-.102.096-.102zm10.236-4.347h5.353c.279 0 .505-.24.505-.535 0-.296-.226-.535-.505-.535h-5.353c-.279 0-.505.24-.505.535 0 .296.226.535.505.535zm-1.422 1.783h5.353c.279 0 .505-.24.505-.535 0-.296-.226-.535-.505-.535h-5.353c-.279 0-.505.24-.505.535 0 .296.226.535.505.535z" fill="#67737B"/><path d="M31.01 18.453h-10.911000000000001c-.888 0-1.694.382-2.279.999h-.547c.004-.139-.018-.28-.069-.417l-.892-2.431-.051-.116 1.579-2.697.034-.069 1.166-2.854.04-.176.285-4.437.936.656.424.297 2.086 1.461 1.157 1.384.135.114 1.403.817.109 1.661.043.181.949 2.256c.048.115.133.208.24.263l3.454 1.78c.251.129.553.018.674-.248.122-.266.017-.586-.233-.715l-3.288-1.695-.838-1.992-.122-1.858c-.012-.182-.11-.344-.26-.432l-1.568-.913-1.143-1.367-.1-.092-2.12-1.485.837-2.935 1.507 1.299.076.054 2.7 1.568 1.865 3.471c.056.105.145.187.251.232l2.666 1.134c.259.11.553-.023.656-.298.104-.274-.022-.586-.281-.696l-2.503-1.065-1.849-3.44c-.046-.086-.114-.157-.196-.204l-2.785-1.617-2.055-1.772c-.131-.113-.306-.148-.466-.096-.161.052-.286.186-.335.357l-.968 3.393-1.226-.858c-.15-.105-.341-.117-.502-.033-.161.085-.267.253-.279.443l-.174 2.705h-1.488c-.219 0-.414.15-.481.372l-.696 2.299-2.275 1.75-1.287-2.656c-.159-.327-.464-.545-.809-.577-.345-.033-.682.125-.892.418l-1.786 2.487c-.106.148-.174.322-.197.506-.037.296-.085.609-.132.869l-1.003.013c-.338.006-.65.191-.832.493l-.749 1.239-1.458 1.342c-.129.119-.228.271-.286.441l-.663 1.925c-.064.187-.076.38-.044.562h-1.024c-.279 0-.505.239-.505.535 0 .296.226.535.505.535h14.989c-.171.417-.266.877-.266 1.361 0 1.825 1.351 3.322 3.048 3.424l.166.015c.67 0 1.215.578 1.215 1.289s-.545 1.289-1.215 1.289h-19.069c-.557 0-1.009.479-1.009 1.071 0 .591.452 1.071 1.009 1.071h19.097l.035-.001c1.754-.036 3.171-1.56 3.171-3.429 0-1.825-1.351-3.322-3.048-3.424l-.166-.015c-.67 0-1.215-.578-1.215-1.289s.545-1.289 1.212-1.289h10.915c.128 0 .25-.026.363-.073.242-.002.444-.185.491-.428.098-.165.156-.36.156-.57 0-.591-.452-1.071-1.009-1.071zm-17.226-5.11l2.523-1.94c.087-.067.151-.161.184-.27l.634-2.094h1.051l-.095 1.486-1.117 2.733-1.403 2.396-.923-1.018-.803-1.152-.064-.132.013-.01zm-8.618 6.108l.514-1.493 1.371-1.262c.073-.067.136-.145.188-.231l.534-.884c.473-.006.912-.006 1.034.001.267.032.532-.045.75-.219.275-.221.507-.532.74-2.229l.656-.914 1.124 2.319.086.147.89 1.277.084.105 1.367 1.509.687 1.872h-10.026zm-1.193 4.039c.49 0 .759-.111.974-.201.178-.074.307-.127.607-.127s.429.053.607.127c.216.089.484.201.974.201s.759-.111.974-.201c.178-.074.307-.127.607-.127s.429.053.607.127c.216.089.484.201.974.201s.759-.111.974-.201c.178-.074.307-.127.607-.127s.429.053.607.127c.216.089.484.201.974.201s.759-.111.974-.201c.178-.074.307-.127.607-.127.279 0 .505-.24.505-.535 0-.296-.226-.535-.505-.535-.49 0-.759.111-.974.201-.178.074-.307.127-.607.127s-.429-.053-.607-.127c-.215-.089-.484-.201-.974-.201s-.759.111-.974.201c-.178.074-.307.127-.607.127s-.429-.053-.607-.127c-.215-.089-.484-.201-.974-.201s-.759.111-.974.201c-.178.074-.307.127-.607.127s-.429-.053-.607-.127c-.216-.089-.484-.201-.974-.201s-.759.111-.974.201c-.178.074-.307.127-.607.127-.279 0-.505.24-.505.535 0 .296.226.535.505.535m-2.963 2.449c.49 0 .759-.111.974-.201.178-.074.307-.127.607-.127s.429.053.607.127c.216.089.484.201.975.201.49 0 .759-.111.974-.201.178-.074.307-.127.607-.127s.429.053.607.127c.216.089.484.201.974.201s.759-.111.974-.201c.178-.074.307-.127.607-.127s.429.053.607.127c.216.089.484.201.974.201s.759-.111.974-.201c.178-.074.307-.127.607-.127.279 0 .505-.24.505-.535 0-.296-.226-.535-.505-.535-.49 0-.759.111-.974.201-.178.074-.307.127-.607.127s-.429-.053-.607-.127c-.216-.089-.484-.201-.974-.201-.491 0-.759.111-.974.201-.178.074-.307.127-.607.127s-.429-.053-.607-.127c-.216-.089-.484-.201-.974-.201-.491 0-.759.111-.975.201-.178.074-.307.127-.607.127s-.429-.053-.607-.127c-.216-.089-.484-.201-.974-.201-.491 0-.759.111-.974.201-.178.074-.307.127-.607.127-.279 0-.505.24-.505.535 0 .296.226.535.505.535m1.822-16.901h3.689c.269 0 .528-.104.73-.293.239-.223.375-.543.375-.879l-.005-.102h1.753c.309 0 .607-.12.84-.338.274-.256.431-.625.431-1.011 0-.386-.157-.755-.431-1.011-.233-.218-.531-.338-.84-.338h-5.192c-.701 0-1.271.605-1.271 1.348l.027.278h-.106c-.61 0-1.105.526-1.105 1.172 0 .646.496 1.172 1.105 1.172zm0-1.274h1.352c.279 0 .505-.24.505-.535h-.002c0-.296-.226-.535-.505-.535-.145 0-.262-.125-.262-.278 0-.153.117-.278.262-.278h5.192c.081 0 .138.038.173.07.034.031.09.1.09.208 0 .108-.056.177-.089.208-.034.032-.092.07-.173.07h-2.855c-.279 0-.505.24-.505.535 0 .296.226.535.505.535h.002l.063.026.033.076-.033.076-.063.026h-3.689c-.053 0-.096-.046-.096-.102 0-.056.043-.102.096-.102zm10.236-4.347h5.353c.279 0 .505-.24.505-.535 0-.296-.226-.535-.505-.535h-5.353c-.279 0-.505.24-.505.535 0 .296.226.535.505.535zm-1.422 1.783h5.353c.279 0 .505-.24.505-.535 0-.296-.226-.535-.505-.535h-5.353c-.279 0-.505.24-.505.535 0 .296.226.535.505.535z" fill="#3A434E"/></g></g></svg>