<svg width="32" height="232" viewBox="0 0 32 232" xmlns="http://www.w3.org/2000/svg"><desc>Created with Sketch.</desc><g fill="none"><path d="M23.114 126.03l-.024.247c0 .717.566 1.3 1.26 1.3h4.448c.306 0 .602-.115.832-.325.272-.247.427-.603.427-.975 0-.373-.155-.728-.427-.974-.23-.21-.526-.326-.832-.326h-1.07l.006-.08c0-.324-.136-.634-.372-.848-.2-.187-.458-.288-.725-.288H23.03c-.604 0-1.096.508-1.096 1.133s.492 1.133 1.097 1.133h.087zm-.083-1.21h3.61l.05.02.027.058-.028.06-.05.02c-.284 0-.51.236-.51.527 0 .29.226.527.51.527h2.16c.073 0 .124.034.156.063.03.028.082.088.082.184s-.052.153-.082.18l-.157.063h-4.45c-.13 0-.24-.11-.24-.247s.106-.247.24-.247c.28 0 .51-.236.51-.527 0-.29-.23-.527-.51-.527h-1.32l-.076-.08.077-.08zm8.035 19.526l-2.772-.826-.214-.016-1.348.2-1.34-.61-.207-.044H23.58l-.51-.263 1.383-1.39h3.7c.416 0 .79-.26.946-.657.155-.397.063-.853-.235-1.152l-3.53-3.543c-.19-.19-.446-.298-.713-.298h-2.56l.225-.227h2.43c.562 0 1.02-.472 1.02-1.054 0-.317-.135-.6-.35-.793l-3.492-3.506c-.19-.19-.446-.298-.71-.298h-1.23l.225-.23h1.277c.565 0 1.02-.47 1.02-1.055 0-.317-.134-.6-.348-.793l-3.494-3.506c-.19-.192-.446-.3-.712-.3h-.548l-.707-2.903c.062-.104.1-.226.1-.358 0-.378-.303-.685-.676-.685-.373 0-.676.308-.676.685 0 .13.038.253.1.357l-.706 2.903h-.548c-.266 0-.52.107-.712.298l-3.53 3.544c-.298.3-.39.754-.235 1.152.157.395.53.655.946.655h1.278l.227.23h-1.23c-.266 0-.52.106-.71.297L6.76 133.71c-.297.3-.39.756-.234 1.153s.53.657.946.657h2.426l.226.227H7.567c-.267 0-.52.107-.712.298l-3.53 3.543c-.3.3-.39.755-.235 1.152.156.397.53.657.946.657h3.7l.99.995-1.366.715c-.096.05-.174.13-.224.228l-.005.01-.424.855-1.07-.395-.743-.275-.093-.025-2.783-.45c-.202-.03-.403.063-.51.242l-1.02 1.675c-.15.246-.08.57.16.726.083.055.177.08.27.08.17 0 .336-.086.432-.246l.84-1.382 1.52.245.883.142 2.19.81c.24.088.507-.02.625-.255l.56-1.124 1.486-.777v3.545H7.158c-.282 0-.51.237-.51.527v1.274H5.525c-.282 0-.51.236-.51.527v.85H3.09c-.563 0-1.02.47-1.02 1.053 0 .582.456 1.054 1.02 1.054h26.003c.563 0 1.02-.472 1.02-1.054 0-.582-.456-1.054-1.02-1.054h-1.926v-.85c0-.29-.23-.526-.51-.526h-1.122v-1.274c0-.29-.228-.53-.51-.53H22.73v-2.94l.498.256c.07.036.15.056.228.056h1.62l1.376.625c.087.04.184.052.278.04l1.382-.206 2.666.794.142.02c.222 0 .426-.15.49-.38.08-.28-.078-.572-.348-.653zm-25.03 5.244h20.11v.32H6.035v-.32zm1.634-1.8h16.844v.746H7.668v-.747zm8.192-23.798l.23-.943.23.94.04.15h-.534l.038-.15zM5.29 139.818l2.48-2.49h16.64l2.48 2.49H5.29zm3.436-5.878l2.48-2.49h9.768l2.48 2.49H8.727zm3.26-5.877l2.48-2.49h3.248l2.48 2.49h-8.207zm2.42 1.053h4.1l-1.277 1.28h-2.28l-1.278-1.28h.732zm-2.107 5.878h8.31l-1.275 1.28H12.84l-1.275-1.28h.732zm7.73 11.106v-1.334c-.02-.413-.35-.742-.754-.742s-.735.33-.754.742v1.858H16.84v-1.858c-.02-.413-.347-.742-.752-.742s-.734.33-.753.742v1.858h-1.683v-1.858c-.02-.413-.348-.742-.753-.742s-.735.33-.754.742v1.858h-1.164v-3.42h10.214v3.42h-1.163v-.527zm2.01-5.23l-1.048 1.052-.133.164h-9.545l-.133-.164-1.048-1.052h11.908z" fill="#206FAC"/><path d="M23.114 86.03l-.024.247c0 .717.566 1.3 1.26 1.3h4.448c.306 0 .602-.115.832-.325.272-.247.427-.603.427-.975 0-.373-.155-.728-.427-.974-.23-.21-.526-.326-.832-.326h-1.07l.006-.08c0-.324-.136-.634-.372-.848-.2-.187-.458-.288-.725-.288H23.03c-.604 0-1.096.508-1.096 1.133s.492 1.133 1.097 1.133h.087zm-.083-1.21h3.61l.05.02.027.058-.028.06-.05.02c-.284 0-.51.236-.51.527 0 .29.226.527.51.527h2.16c.073 0 .124.034.156.063.03.028.082.088.082.184s-.052.153-.082.18l-.157.063h-4.45c-.13 0-.24-.11-.24-.247s.106-.247.24-.247c.28 0 .51-.236.51-.527 0-.29-.23-.527-.51-.527h-1.32l-.076-.08.077-.08zm8.035 19.526l-2.772-.826-.214-.016-1.348.2-1.34-.61-.207-.044H23.58l-.51-.263 1.383-1.39h3.7c.416 0 .79-.26.946-.657.155-.397.063-.853-.235-1.152l-3.53-3.543c-.19-.19-.446-.298-.713-.298h-2.56l.225-.227h2.43c.562 0 1.02-.472 1.02-1.054 0-.317-.135-.6-.35-.793l-3.492-3.506c-.19-.19-.446-.298-.71-.298h-1.23l.225-.23h1.277c.565 0 1.02-.47 1.02-1.055 0-.317-.134-.6-.348-.793l-3.494-3.506c-.19-.192-.446-.3-.712-.3h-.548l-.707-2.903c.062-.104.1-.226.1-.358 0-.378-.303-.685-.676-.685-.373 0-.676.308-.676.685 0 .13.038.253.1.357l-.706 2.903h-.548c-.266 0-.52.107-.712.298l-3.53 3.544c-.298.3-.39.754-.235 1.152.157.395.53.655.946.655h1.278l.227.23h-1.23c-.266 0-.52.106-.71.297L6.76 93.71c-.297.3-.39.756-.234 1.153s.53.657.946.657h2.426l.226.227H7.567c-.267 0-.52.107-.712.298l-3.53 3.543c-.3.3-.39.755-.235 1.152.156.397.53.657.946.657h3.7l.99.995-1.366.715c-.096.05-.174.13-.224.228l-.005.01-.424.855-1.07-.395-.743-.275-.093-.025-2.783-.45c-.202-.03-.403.063-.51.242l-1.02 1.675c-.15.246-.08.57.16.726.083.055.177.08.27.08.17 0 .336-.086.432-.246l.84-1.382 1.52.245.883.142 2.19.81c.24.088.507-.02.625-.255l.56-1.124 1.486-.777v3.545H7.158c-.282 0-.51.237-.51.527v1.274H5.525c-.282 0-.51.236-.51.527v.85H3.09c-.563 0-1.02.47-1.02 1.053 0 .582.456 1.054 1.02 1.054h26.003c.563 0 1.02-.472 1.02-1.054 0-.582-.456-1.054-1.02-1.054h-1.926v-.85c0-.29-.23-.526-.51-.526h-1.122v-1.274c0-.29-.228-.53-.51-.53H22.73v-2.94l.498.256c.07.036.15.056.228.056h1.62l1.376.625c.087.04.184.052.278.04l1.382-.206 2.666.794.142.02c.222 0 .426-.15.49-.38.08-.28-.078-.572-.348-.653zm-25.03 5.244h20.11v.32H6.035v-.32zm1.634-1.8h16.844v.746H7.668v-.747zm8.19-23.8l.23-.943.23.942.04.15h-.535l.038-.15zM5.29 99.818l2.48-2.49h16.64l2.48 2.49H5.29zm3.436-5.878l2.48-2.49h9.768l2.48 2.49H8.727zm3.26-5.877l2.48-2.49h3.248l2.48 2.49h-8.207zm2.42 1.053h4.1l-1.277 1.28h-2.28l-1.278-1.28h.732zM12.3 94.994h8.314l-1.276 1.28h-6.495l-1.276-1.28h.732zm7.734 11.105v-1.335c-.02-.413-.35-.742-.754-.742s-.734.33-.753.742v1.858h-1.683v-1.858c-.02-.413-.348-.742-.753-.742s-.73.33-.75.742v1.858h-1.683v-1.858c-.02-.413-.348-.742-.753-.742s-.734.33-.753.742v1.858h-1.164v-3.42H21.2v3.42h-1.164v-.527zm2.01-5.23l-1.048 1.05-.133.165h-9.545l-.133-.164-1.048-1.05h11.908z" fill="#fff"/><path d="M23.114 46.03l-.024.247c0 .717.566 1.3 1.26 1.3h4.448c.306 0 .602-.115.832-.325.272-.247.427-.603.427-.975 0-.373-.155-.728-.427-.974-.23-.21-.526-.326-.832-.326h-1.07l.006-.08c0-.324-.136-.634-.372-.848-.2-.187-.458-.288-.725-.288H23.03c-.604 0-1.096.508-1.096 1.133s.492 1.133 1.097 1.133h.087zm-.083-1.21h3.61l.05.02.027.058-.028.06-.05.02c-.284 0-.51.236-.51.527 0 .29.226.527.51.527h2.16c.073 0 .124.034.156.063.03.028.082.088.082.184s-.052.153-.082.18l-.157.063h-4.45c-.13 0-.24-.11-.24-.247s.106-.247.24-.247c.28 0 .51-.236.51-.527 0-.29-.23-.527-.51-.527h-1.32l-.076-.08.077-.08zm8.035 19.526l-2.772-.826-.214-.016-1.348.2-1.34-.61-.207-.044H23.58l-.51-.263 1.383-1.39h3.7c.416 0 .79-.26.946-.657.155-.397.063-.853-.235-1.152l-3.53-3.543c-.19-.19-.446-.298-.713-.298h-2.56l.225-.227h2.43c.562 0 1.02-.472 1.02-1.054 0-.317-.135-.6-.35-.793l-3.492-3.506c-.19-.19-.446-.298-.71-.298h-1.23l.225-.23h1.277c.565 0 1.02-.47 1.02-1.055 0-.317-.134-.6-.348-.793l-3.494-3.506c-.19-.192-.446-.3-.712-.3h-.548l-.707-2.903c.062-.104.1-.226.1-.358 0-.378-.303-.685-.676-.685-.373 0-.676.308-.676.685 0 .13.038.253.1.357l-.706 2.903h-.548c-.266 0-.52.107-.712.298l-3.53 3.544c-.298.3-.39.754-.235 1.152.157.395.53.655.946.655h1.278l.227.23h-1.23c-.266 0-.52.106-.71.297L6.76 53.71c-.297.3-.39.756-.234 1.153s.53.657.946.657h2.426l.226.227H7.567c-.267 0-.52.107-.712.298l-3.53 3.543c-.3.3-.39.755-.235 1.152.156.397.53.657.946.657h3.7l.99.995-1.366.715c-.096.05-.174.13-.224.228l-.005.01-.424.855-1.07-.395-.743-.275-.093-.025-2.783-.45c-.202-.03-.403.063-.51.242l-1.02 1.675c-.15.246-.08.57.16.726.083.055.177.08.27.08.17 0 .336-.086.432-.246l.84-1.382 1.52.245.883.142 2.19.81c.24.088.507-.02.625-.255l.56-1.124 1.486-.777v3.545H7.158c-.282 0-.51.236-.51.527v1.274H5.525c-.282 0-.51.236-.51.527v.85H3.09c-.563 0-1.02.47-1.02 1.053 0 .582.456 1.054 1.02 1.054h26.003c.563 0 1.02-.472 1.02-1.054 0-.582-.456-1.054-1.02-1.054h-1.926v-.85c0-.29-.23-.526-.51-.526h-1.122V67.26c0-.29-.228-.528-.51-.528H22.73V63.79l.498.257c.07.036.15.056.228.056h1.62l1.376.625c.087.04.184.053.278.04l1.382-.205 2.666.794.142.02c.222 0 .426-.15.49-.38.08-.28-.078-.572-.348-.653zM6.035 69.59h20.11v.32H6.034v-.32zm1.633-1.8h16.845v.746H7.668v-.747zm8.192-23.8l.23-.943.23.942.038.15h-.534l.038-.15zM5.29 59.818l2.48-2.49h16.64l2.48 2.49H5.29zm3.436-5.878l2.48-2.49h9.768l2.48 2.49H8.727zm3.26-5.877l2.48-2.49h3.248l2.48 2.49h-8.207zm2.42 1.053h4.1l-1.277 1.28h-2.28l-1.278-1.28h.732zM12.3 54.994h8.314l-1.276 1.28h-6.495l-1.276-1.28h.732zM20.033 66.1v-1.332c-.02-.413-.35-.742-.754-.742s-.737.33-.756.742v1.858H16.84v-1.858c-.02-.413-.347-.742-.752-.742s-.735.33-.754.742v1.858H13.65v-1.858c-.02-.413-.347-.742-.752-.742s-.733.33-.752.742v1.858h-1.164v-3.42h10.214v3.42h-1.163V66.1zm2.01-5.228l-1.048 1.052-.133.164h-9.545l-.133-.164-1.048-1.052h11.908z" fill="#67737B"/><path d="M23.114 6.03l-.024.247c0 .717.566 1.3 1.26 1.3h4.448c.306 0 .602-.115.832-.325.272-.247.427-.603.427-.975 0-.373-.155-.728-.427-.974-.23-.21-.526-.326-.832-.326h-1.07l.006-.08c0-.324-.136-.634-.372-.848-.2-.187-.458-.288-.725-.288H23.03c-.604 0-1.096.508-1.096 1.133s.492 1.133 1.097 1.133h.087zm-.083-1.21h3.61l.05.02.027.058-.028.06-.05.02c-.284 0-.51.236-.51.527 0 .29.226.527.51.527h2.16c.073 0 .124.034.156.063.03.028.082.088.082.184s-.052.153-.082.18l-.157.063h-4.45c-.13 0-.24-.11-.24-.247s.106-.247.24-.247c.28 0 .51-.236.51-.527 0-.29-.23-.527-.51-.527h-1.32l-.076-.08.077-.08zm8.035 19.526l-2.772-.826-.214-.016-1.348.2-1.34-.61-.207-.044H23.58l-.51-.263 1.383-1.39h3.7c.416 0 .79-.26.946-.657.155-.397.063-.853-.235-1.152l-3.53-3.543c-.19-.19-.446-.298-.713-.298h-2.56l.225-.227h2.43c.562 0 1.02-.472 1.02-1.054 0-.317-.135-.6-.35-.793l-3.492-3.506c-.19-.19-.446-.298-.71-.298h-1.23l.225-.23h1.277c.565 0 1.02-.47 1.02-1.055 0-.317-.134-.6-.348-.793L18.633 4.29c-.19-.192-.446-.3-.712-.3h-.548l-.707-2.903c.063-.104.1-.226.1-.358 0-.38-.302-.688-.675-.688-.373 0-.676.307-.676.684 0 .13.038.253.1.357L14.81 3.99h-.548c-.266 0-.52.107-.712.298l-3.53 3.544c-.298.3-.39.754-.235 1.152.157.397.53.657.946.657h1.28l.225.23h-1.23c-.266 0-.52.11-.71.3L6.76 13.71c-.297.3-.39.756-.234 1.153s.53.657.946.657h2.426l.226.227H7.567c-.267 0-.52.107-.712.298l-3.53 3.543c-.3.3-.39.755-.235 1.152.156.397.53.657.946.657h3.7l.99.995-1.366.715c-.096.05-.174.13-.224.228l-.005.01-.424.855-1.07-.395-.743-.275-.093-.025-2.783-.45c-.202-.03-.403.063-.51.242l-1.02 1.675c-.15.246-.08.57.16.726.083.055.177.08.27.08.17 0 .336-.086.432-.246l.84-1.382 1.52.245.883.142 2.19.81c.24.088.507-.02.625-.255l.56-1.124 1.486-.777v3.545H7.158c-.282 0-.51.236-.51.527v1.274H5.525c-.282 0-.51.236-.51.527v.85H3.09c-.563 0-1.02.47-1.02 1.053 0 .582.456 1.054 1.02 1.054h26.003c.563 0 1.02-.472 1.02-1.054 0-.582-.456-1.054-1.02-1.054h-1.926v-.85c0-.29-.23-.526-.51-.526h-1.122V27.26c0-.29-.228-.528-.51-.528H22.73V23.79l.498.257c.07.036.15.056.228.056h1.62l1.376.625c.087.04.184.053.278.04l1.382-.205 2.666.794.142.02c.222 0 .426-.15.49-.38.08-.28-.078-.572-.348-.653zM6.035 29.59h20.11v.32H6.034v-.32zm1.633-1.8h16.845v.746H7.668v-.747zm8.192-23.8l.23-.943.23.942.038.15h-.534l.038-.15zM5.29 19.818l2.48-2.49h16.64l2.48 2.49H5.29zm3.436-5.878l2.48-2.49h9.768l2.48 2.49H8.727zm3.26-5.877l2.48-2.49h3.248l2.48 2.49h-8.207zm2.42 1.053h4.1l-1.277 1.28h-2.28l-1.278-1.28h.732zM12.3 14.994h8.314l-1.276 1.28h-6.495l-1.276-1.28h.732zM20.033 26.1v-1.332c-.02-.413-.35-.742-.754-.742s-.737.33-.756.742v1.858H16.84v-1.858c-.02-.413-.347-.742-.752-.742s-.735.33-.754.742v1.858H13.65v-1.858c-.02-.413-.347-.742-.752-.742s-.733.33-.752.742v1.858h-1.164v-3.42h10.214v3.42h-1.163V26.1zm2.01-5.228l-1.048 1.052-.133.164h-9.545l-.133-.164-1.048-1.052h11.908z" fill="#3A434E"/></g></svg>