<svg width="32" height="232" viewBox="0 0 32 232" xmlns="http://www.w3.org/2000/svg" xmlns:sketch="http://www.bohemiancoding.com/sketch/ns"><title>kathmandu</title><desc>Created with Sketch.</desc><g sketch:type="MSPage" fill="none"><g sketch:type="MSShapeGroup"><path d="M23.114 126.031l-.024.246c0 .717.566 1.3 1.26 1.3h4.448c.306 0 .602-.115.832-.325.272-.247.427-.603.427-.975 0-.373-.155-.728-.427-.974-.231-.21-.526-.326-.832-.326h-1.069l.005-.079c0-.325-.136-.635-.372-.849-.201-.183-.458-.284-.725-.284h-3.606c-.605 0-1.097.508-1.097 1.133s.492 1.133 1.097 1.133h.083zm-.083-1.212h3.606l.05.021.027.058-.028.06-.049.02h-.002c-.282 0-.51.236-.51.527 0 .291.228.527.51.527h2.164c.074 0 .125.034.157.063.031.028.082.088.082.184s-.052.157-.082.185l-.157.062h-4.448c-.132 0-.239-.111-.239-.247s.107-.246.239-.246c.282 0 .51-.236.51-.527h.003c0-.291-.229-.527-.511-.527h-1.322l-.077-.079.077-.079zm8.031 19.527l-2.772-.826-.215-.016-1.347.2-1.341-.609-.206-.045h-1.607l-.511-.263 1.385-1.39h3.699c.416 0 .79-.26.946-.657.156-.397.064-.853-.234-1.152l-3.531-3.543c-.191-.191-.445-.298-.712-.298h-2.557l.226-.227h2.4290000000000003c.563 0 1.021-.472 1.021-1.054 0-.317-.135-.6-.349-.793l-3.493-3.506c-.191-.191-.446-.298-.711-.298h-1.23l.226-.228h1.277c.565 0 1.021-.471 1.021-1.053 0-.317-.135-.601-.349-.793l-3.493-3.506c-.191-.191-.446-.298-.712-.298h-.548l-.707-2.904c.063-.104.101-.226.101-.358 0-.377-.303-.684-.676-.684-.373 0-.676.307-.676.684 0 .131.038.254.101.358l-.707 2.903h-.548c-.266 0-.521.107-.712.298l-3.53 3.544c-.298.299-.391.754-.235 1.152.157.397.531.657.946.657h1.275l.226.228h-1.23c-.266 0-.521.107-.711.298l-3.531 3.544c-.297.299-.391.755-.234 1.152.156.397.53.657.946.657h2.426l.226.227h-2.557c-.267 0-.521.107-.712.298l-3.531 3.543c-.298.299-.39.755-.234 1.152.156.397.53.657.946.657h3.699l.992.995-1.367.715c-.096.05-.174.13-.224.228l-.005.011-.428.854-1.069-.395-.744-.275-.094-.025-2.782-.449c-.202-.032-.403.062-.511.241l-1.02 1.675c-.15.246-.078.571.16.726.084.055.178.081.271.081.169 0 .336-.087.432-.247l.841-1.382 1.52.245.884.142 2.188.809c.241.089.508-.02.626-.254l.562-1.124 1.486-.777v3.541h-2.295c-.282 0-.51.237-.51.527v1.274h-1.123c-.282 0-.51.236-.51.527v.848h-1.925c-.563 0-1.021.472-1.021 1.054 0 .582.457 1.054 1.021 1.054h26.003c.563 0 1.021-.472 1.021-1.054 0-.582-.457-1.054-1.021-1.054h-1.926v-.848c0-.291-.229-.527-.51-.527h-1.122v-1.274c0-.29-.228-.527-.51-.527h-2.295v-2.942l.498.257c.071.036.149.056.228.056h1.62l1.376.625c.087.04.184.053.278.04l1.382-.205 2.666.794.142.021c.222 0 .426-.151.49-.381.079-.279-.078-.572-.348-.653zm-25.027 5.243h20.111v.321h-20.111v-.321zm1.633-1.8h16.845v.747h-16.845v-.747zm8.193-23.797l.23-.943.23.943.037.152h-.534l.038-.152zm-10.571 15.826l2.481-2.49h16.638l2.481 2.49h-21.6zm3.436-5.878l2.481-2.489h9.767l2.481 2.489h-14.729zm3.26-5.877l2.481-2.491h3.247l2.481 2.491h-8.208zm2.421 1.053h4.098l-1.276 1.281h-2.278l-1.276-1.281h.732zm-2.108 5.878h8.315l-1.276 1.281h-6.495l-1.276-1.281h.732zm7.735 11.105v-1.331c-.019-.413-.349-.742-.754-.742s-.734.329-.753.742v1.858h-1.683v-1.858c-.019-.413-.348-.742-.753-.742s-.735.329-.754.742v1.858h-1.683v-1.858c-.019-.413-.348-.742-.753-.742s-.735.329-.754.742v1.858h-1.164v-3.42h10.214v3.42h-1.163v-.527zm2.01-5.227l-1.048 1.052-.133.164h-9.545l-.133-.164-1.048-1.052h11.908z" fill="#206FAC"/><path d="M23.114 86.031l-.024.246c0 .717.566 1.3 1.26 1.3h4.448c.306 0 .602-.115.832-.325.272-.247.427-.603.427-.975 0-.373-.155-.728-.427-.974-.231-.21-.526-.326-.832-.326h-1.069l.005-.079c0-.325-.136-.635-.372-.849-.201-.183-.458-.284-.725-.284h-3.606c-.605 0-1.097.508-1.097 1.133s.492 1.133 1.097 1.133h.083zm-.083-1.212h3.606l.05.021.027.058-.028.06-.049.02h-.002c-.282 0-.51.236-.51.527 0 .291.228.527.51.527h2.164c.074 0 .125.034.157.063.031.028.082.088.082.184s-.052.157-.082.185l-.157.062h-4.448c-.132 0-.239-.111-.239-.247s.107-.246.239-.246c.282 0 .51-.236.51-.527h.003c0-.291-.229-.527-.511-.527h-1.322l-.077-.079.077-.079zm8.031 19.527l-2.772-.826-.215-.016-1.347.2-1.341-.609-.206-.045h-1.607l-.511-.263 1.385-1.39h3.699c.416 0 .79-.26.946-.657.156-.397.064-.853-.234-1.152l-3.531-3.543c-.191-.191-.445-.298-.712-.298h-2.557l.226-.227h2.4290000000000003c.563 0 1.021-.472 1.021-1.054 0-.317-.135-.6-.349-.793l-3.493-3.506c-.191-.191-.446-.298-.711-.298h-1.23l.226-.228h1.277c.565 0 1.021-.471 1.021-1.053 0-.317-.135-.601-.349-.793l-3.493-3.506c-.191-.191-.446-.298-.712-.298h-.548l-.707-2.904c.063-.104.101-.226.101-.358 0-.377-.303-.684-.676-.684-.373 0-.676.307-.676.684 0 .131.038.254.101.358l-.707 2.903h-.548c-.266 0-.521.107-.712.298l-3.53 3.544c-.298.299-.391.754-.235 1.152.157.397.531.657.946.657h1.275l.226.228h-1.23c-.266 0-.521.107-.711.298l-3.531 3.544c-.297.299-.391.755-.234 1.152.156.397.53.657.946.657h2.426l.226.227h-2.557c-.267 0-.521.107-.712.298l-3.531 3.543c-.298.299-.39.755-.234 1.152.156.397.53.657.946.657h3.699l.992.995-1.367.715c-.096.05-.174.13-.224.228l-.005.011-.428.854-1.069-.395-.744-.275-.094-.025-2.782-.449c-.202-.032-.403.062-.511.241l-1.02 1.675c-.15.246-.078.571.16.726.084.055.178.081.271.081.169 0 .336-.087.432-.247l.841-1.382 1.52.245.884.142 2.188.809c.241.089.508-.02.626-.254l.562-1.124 1.486-.777v3.541h-2.295c-.282 0-.51.237-.51.527v1.274h-1.123c-.282 0-.51.236-.51.527v.848h-1.925c-.563 0-1.021.472-1.021 1.054 0 .582.457 1.054 1.021 1.054h26.003c.563 0 1.021-.472 1.021-1.054 0-.582-.457-1.054-1.021-1.054h-1.926v-.848c0-.291-.229-.527-.51-.527h-1.122v-1.274c0-.29-.228-.527-.51-.527h-2.295v-2.942l.498.257c.071.036.149.056.228.056h1.62l1.376.625c.087.04.184.053.278.04l1.382-.205 2.666.794.142.021c.222 0 .426-.151.49-.381.079-.279-.078-.572-.348-.653zm-25.027 5.243h20.111v.321h-20.111v-.321zm1.633-1.8h16.845v.747h-16.845v-.747zm8.193-23.797l.23-.943.23.943.037.152h-.534l.038-.152zm-10.571 15.826l2.481-2.49h16.638l2.481 2.49h-21.6zm3.436-5.878l2.481-2.489h9.767l2.481 2.489h-14.729zm3.26-5.877l2.481-2.491h3.247l2.481 2.491h-8.208zm2.421 1.053h4.098l-1.276 1.281h-2.278l-1.276-1.281h.732zm-2.108 5.878h8.315l-1.276 1.281h-6.495l-1.276-1.281h.732zm7.735 11.105v-1.331c-.019-.413-.349-.742-.754-.742s-.734.329-.753.742v1.858h-1.683v-1.858c-.019-.413-.348-.742-.753-.742s-.735.329-.754.742v1.858h-1.683v-1.858c-.019-.413-.348-.742-.753-.742s-.735.329-.754.742v1.858h-1.164v-3.42h10.214v3.42h-1.163v-.527zm2.01-5.227l-1.048 1.052-.133.164h-9.545l-.133-.164-1.048-1.052h11.908z" fill="#fff"/><path d="M23.114 46.031l-.024.246c0 .717.566 1.3 1.26 1.3h4.448c.306 0 .602-.115.832-.325.272-.247.427-.603.427-.975 0-.373-.155-.728-.427-.974-.231-.21-.526-.326-.832-.326h-1.069l.005-.079c0-.325-.136-.635-.372-.849-.201-.183-.458-.284-.725-.284h-3.606c-.605 0-1.097.508-1.097 1.133s.492 1.133 1.097 1.133h.083zm-.083-1.212h3.606l.05.021.027.058-.028.06-.049.02h-.002c-.282 0-.51.236-.51.527 0 .291.228.527.51.527h2.164c.074 0 .125.034.157.063.031.028.082.088.082.184s-.052.157-.082.185l-.157.062h-4.448c-.132 0-.239-.111-.239-.247s.107-.246.239-.246c.282 0 .51-.236.51-.527h.003c0-.291-.229-.527-.511-.527h-1.322l-.077-.079.077-.079zm8.031 19.527l-2.772-.826-.215-.016-1.347.2-1.341-.609-.206-.045h-1.607l-.511-.263 1.385-1.39h3.699c.416 0 .79-.26.946-.657.156-.397.064-.853-.234-1.152l-3.531-3.543c-.191-.191-.445-.298-.712-.298h-2.557l.226-.227h2.4290000000000003c.563 0 1.021-.472 1.021-1.054 0-.317-.135-.6-.349-.793l-3.493-3.506c-.191-.191-.446-.298-.711-.298h-1.23l.226-.228h1.277c.565 0 1.021-.471 1.021-1.053 0-.317-.135-.601-.349-.793l-3.493-3.506c-.191-.191-.446-.298-.712-.298h-.548l-.707-2.904c.063-.104.101-.226.101-.358 0-.377-.303-.684-.676-.684-.373 0-.676.307-.676.684 0 .131.038.254.101.358l-.707 2.903h-.548c-.266 0-.521.107-.712.298l-3.53 3.544c-.298.299-.391.754-.235 1.152.157.397.531.657.946.657h1.275l.226.228h-1.23c-.266 0-.521.107-.711.298l-3.531 3.544c-.297.299-.391.755-.234 1.152.156.397.53.657.946.657h2.426l.226.227h-2.557c-.267 0-.521.107-.712.298l-3.531 3.543c-.298.299-.39.755-.234 1.152.156.397.53.657.946.657h3.699l.992.995-1.367.715c-.096.05-.174.13-.224.228l-.005.011-.428.854-1.069-.395-.744-.275-.094-.025-2.782-.449c-.202-.032-.403.062-.511.241l-1.02 1.675c-.15.246-.078.571.16.726.084.055.178.081.271.081.169 0 .336-.087.432-.247l.841-1.382 1.52.245.884.142 2.188.809c.241.089.508-.02.626-.254l.562-1.124 1.486-.777v3.541h-2.295c-.282 0-.51.236-.51.527v1.274h-1.123c-.282 0-.51.236-.51.527v.848h-1.925c-.563 0-1.021.472-1.021 1.054 0 .582.457 1.054 1.021 1.054h26.003c.563 0 1.021-.472 1.021-1.054 0-.582-.457-1.054-1.021-1.054h-1.926v-.848c0-.291-.229-.527-.51-.527h-1.122v-1.274c0-.29-.228-.527-.51-.527h-2.295v-2.942l.498.257c.071.036.149.056.228.056h1.62l1.376.625c.087.04.184.053.278.04l1.382-.205 2.666.794.142.021c.222 0 .426-.151.49-.381.079-.279-.078-.572-.348-.653zm-25.027 5.243h20.111v.321h-20.111v-.321zm1.633-1.8h16.845v.747h-16.845v-.747zm8.193-23.797l.23-.943.23.943.037.152h-.534l.038-.152zm-10.571 15.826l2.481-2.49h16.638l2.481 2.49h-21.6zm3.436-5.878l2.481-2.489h9.767l2.481 2.489h-14.729zm3.26-5.877l2.481-2.491h3.247l2.481 2.491h-8.208zm2.421 1.053h4.098l-1.276 1.281h-2.278l-1.276-1.281h.732zm-2.108 5.878h8.315l-1.276 1.281h-6.495l-1.276-1.281h.732zm7.735 11.105v-1.331c-.019-.413-.349-.742-.754-.742s-.734.329-.753.742v1.858h-1.683v-1.858c-.019-.413-.348-.742-.753-.742s-.735.329-.754.742v1.858h-1.683v-1.858c-.019-.413-.348-.742-.753-.742s-.735.329-.754.742v1.858h-1.164v-3.42h10.214v3.42h-1.163v-.527zm2.01-5.227l-1.048 1.052-.133.164h-9.545l-.133-.164-1.048-1.052h11.908z" fill="#67737B"/><path d="M23.114 6.031l-.024.246c0 .717.566 1.3 1.26 1.3h4.448c.306 0 .602-.115.832-.325.272-.247.427-.603.427-.975 0-.373-.155-.728-.427-.974-.231-.21-.526-.326-.832-.326h-1.069l.005-.079c0-.325-.136-.635-.372-.849-.201-.183-.458-.284-.725-.284h-3.606c-.605 0-1.097.508-1.097 1.133s.492 1.133 1.097 1.133h.083zm-.083-1.212h3.606l.05.021.027.058-.028.06-.049.02h-.002c-.282 0-.51.236-.51.527 0 .291.228.527.51.527h2.164c.074 0 .125.034.157.063.031.028.082.088.082.184s-.052.157-.082.185l-.157.062h-4.448c-.132 0-.239-.111-.239-.247s.107-.246.239-.246c.282 0 .51-.236.51-.527h.003c0-.291-.229-.527-.511-.527h-1.322l-.077-.079.077-.079zm8.031 19.527l-2.772-.826-.215-.016-1.347.2-1.341-.609-.206-.045h-1.607l-.511-.263 1.385-1.39h3.699c.416 0 .79-.26.946-.657.156-.397.064-.853-.234-1.152l-3.531-3.543c-.191-.191-.445-.298-.712-.298h-2.557l.226-.227h2.4290000000000003c.563 0 1.021-.472 1.021-1.054 0-.317-.135-.6-.349-.793l-3.493-3.506c-.191-.191-.446-.298-.711-.298h-1.23l.226-.228h1.277c.565 0 1.021-.471 1.021-1.053 0-.317-.135-.601-.349-.793l-3.493-3.506c-.191-.191-.446-.298-.712-.298h-.548l-.707-2.904c.063-.104.101-.226.101-.358 0-.377-.303-.684-.676-.684-.373 0-.676.307-.676.684 0 .131.038.254.101.358l-.707 2.903h-.548c-.266 0-.521.107-.712.298l-3.53 3.544c-.298.299-.391.754-.235 1.152.157.397.531.657.946.657h1.275l.226.228h-1.23c-.266 0-.521.107-.711.298l-3.531 3.544c-.297.299-.391.755-.234 1.152.156.397.53.657.946.657h2.426l.226.227h-2.557c-.267 0-.521.107-.712.298l-3.531 3.543c-.298.299-.39.755-.234 1.152.156.397.53.657.946.657h3.699l.992.995-1.367.715c-.096.05-.174.13-.224.228l-.005.011-.428.854-1.069-.395-.744-.275-.094-.025-2.782-.449c-.202-.032-.403.062-.511.241l-1.02 1.675c-.15.246-.078.571.16.726.084.055.178.081.271.081.169 0 .336-.087.432-.247l.841-1.382 1.52.245.884.142 2.188.809c.241.089.508-.02.626-.254l.562-1.124 1.486-.777v3.541h-2.295c-.282 0-.51.236-.51.527v1.274h-1.123c-.282 0-.51.236-.51.527v.848h-1.925c-.563 0-1.021.472-1.021 1.054 0 .582.457 1.054 1.021 1.054h26.003c.563 0 1.021-.472 1.021-1.054 0-.582-.457-1.054-1.021-1.054h-1.926v-.848c0-.291-.229-.527-.51-.527h-1.122v-1.274c0-.29-.228-.527-.51-.527h-2.295v-2.942l.498.257c.071.036.149.056.228.056h1.62l1.376.625c.087.04.184.053.278.04l1.382-.205 2.666.794.142.021c.222 0 .426-.151.49-.381.079-.279-.078-.572-.348-.653zm-25.027 5.243h20.111v.321h-20.111v-.321zm1.633-1.8h16.845v.747h-16.845v-.747zm8.193-23.797l.23-.943.23.943.037.152h-.534l.038-.152zm-10.571 15.826l2.481-2.49h16.638l2.481 2.49h-21.6zm3.436-5.878l2.481-2.489h9.767l2.481 2.489h-14.729zm3.26-5.877l2.481-2.491h3.247l2.481 2.491h-8.208zm2.421 1.053h4.098l-1.276 1.281h-2.278l-1.276-1.281h.732zm-2.108 5.878h8.315l-1.276 1.281h-6.495l-1.276-1.281h.732zm7.735 11.105v-1.331c-.019-.413-.349-.742-.754-.742s-.734.329-.753.742v1.858h-1.683v-1.858c-.019-.413-.348-.742-.753-.742s-.735.329-.754.742v1.858h-1.683v-1.858c-.019-.413-.348-.742-.753-.742s-.735.329-.754.742v1.858h-1.164v-3.42h10.214v3.42h-1.163v-.527zm2.01-5.227l-1.048 1.052-.133.164h-9.545l-.133-.164-1.048-1.052h11.908z" fill="#3A434E"/></g></g></svg>