<svg width="32" height="232" viewBox="0 0 32 232" xmlns="http://www.w3.org/2000/svg"><title>new-zealand</title><desc>Created with Sketch.</desc><g fill="none"><path d="M20.427 123.444h.09l-.026.286c0 .83.613 1.505 1.365 1.505h4.814c.33 0 .65-.134.9-.376.294-.287.463-.698.463-1.13 0-.43-.17-.843-.462-1.128-.248-.243-.568-.377-.9-.377h-1.156l.005-.092c0-.376-.148-.735-.404-.982-.217-.21-.496-.328-.786-.328h-3.902c-.655 0-1.188.588-1.188 1.31s.533 1.31 1.188 1.31zm0-1.402h3.902l.054.024.03.068-.03.07-.054.022h-.002c-.305 0-.552.273-.552.61 0 .337.247.61.552.61h2.342c.08 0 .136.04.17.072.034.032.09.102.09.213s-.056.183-.09.215c-.033.033-.09.07-.17.07h-4.813c-.143 0-.26-.127-.26-.285 0-.157.117-.286.26-.286.305 0 .552-.272.552-.61 0-.336-.246-.61-.55-.61h-1.43c-.047 0-.084-.04-.084-.09 0-.05.037-.093.083-.093zM.237 130.68c.098.08.215.124.335.124.12 0 .235-.043.33-.12.215-.178.284-.5.164-.763-.04-.083-.094-.157-.162-.214-.19-.158-.472-.16-.663 0-.214.176-.283.5-.162.764.038.083.092.155.16.21zm4.377-.73c.102.17.276.273.46.273.12 0 .236-.043.33-.12.13-.108.21-.27.222-.447.01-.177-.048-.35-.162-.476l-.056-.054c-.19-.16-.473-.16-.664-.002-.215.177-.284.5-.163.765l.033.06zm-1.166-7.104l.027.032c.103.113.242.177.39.177.12 0 .235-.042.33-.12.13-.106.21-.27.22-.447.01-.135-.023-.27-.09-.38l-.044-.065-.027-.032c-.102-.112-.242-.176-.39-.176-.12 0-.235.042-.33.12-.13.106-.21.27-.22.447-.01.136.023.27.09.38l.043.065zm2.945 2.703l.46.276.25.507c.097.196.283.317.485.317.2 0 .387-.12.485-.317l.25-.507.46-.276c.178-.107.29-.313.29-.535 0-.223-.11-.428-.29-.535l-.46-.277-.25-.507c-.097-.195-.283-.317-.485-.317s-.388.12-.485.316l-.25.507-.46.277c-.177.107-.288.312-.288.535 0 .223.11.428.288.534zm-4.654 2.264l.458.277.25.508c.098.196.284.317.486.317s.387-.122.485-.317l.25-.507.46-.276c.177-.107.287-.313.287-.535 0-.224-.11-.43-.287-.536l-.46-.277-.25-.507c-.098-.196-.284-.317-.486-.317s-.388.122-.485.317l-.252.507-.46.277c-.176.107-.287.312-.287.535 0 .222.11.427.29.534zm28.41 12.58c-.45 0-.694.106-.89.192-.15.064-.25.107-.492.107-.24 0-.34-.043-.49-.107-.197-.086-.442-.19-.892-.19s-.695.104-.892.19c-.15.064-.25.107-.49.107-.242 0-.34-.043-.49-.107-.198-.086-.443-.19-.893-.19-.448 0-.694.104-.89.19-.15.064-.25.107-.49.107s-.342-.043-.492-.107c-.197-.086-.442-.19-.892-.19s-.695.104-.892.19c-.15.064-.25.107-.49.107-.305 0-.552.273-.552.61 0 .337.247.61.552.61.45 0 .695-.105.892-.19.15-.065.25-.107.49-.107.242 0 .34.043.49.107.198.085.443.19.893.19.448 0 .694-.105.89-.19.15-.065.25-.107.49-.107.243 0 .342.043.492.107.197.085.442.19.892.19s.695-.105.892-.19c.15-.065.25-.107.49-.107.242 0 .34.043.49.107.198.085.443.19.892.19.45 0 .695-.105.892-.19.15-.065.25-.107.49-.107.306 0 .553-.273.553-.61 0-.337-.247-.61-.552-.61zm1.307-1.996c-.24 0-.34-.043-.49-.108-.15-.063-.326-.14-.596-.173l-2.376-1.546-.98-.73-.7-1.796-.57-1.423-.182-.778h4.373c.305 0 .552-.273.552-.61 0-.337-.247-.61-.552-.61H25.28l-.02-.08c-.03-.126-.093-.237-.183-.32l-1.27-1.16c-.137-.125-.32-.17-.493-.12-.173.05-.313.19-.375.374l-.45 1.306h-.36v-1.577c0-.22-.106-.42-.278-.53l-1.066-.672-1.102-2.197c-.1-.198-.29-.32-.494-.314-.205.005-.39.135-.483.337l-1.004 2.21-1.542 1.22-.13.147-.882 1.395h-1.475c-.305 0-.552.273-.552.61 0 .337.248.61.553.61h1.615l.132-.02.027.002h6.504l-.628 1.065-.643 1.038-.03.05-.637 1.273-1.01 1.09-1.097.47-.05.025-2.248 1.264-.16.137-.085.036c-.15.065-.25.108-.49.108s-.34-.042-.49-.107c-.16-.07-.354-.15-.66-.18V138.056l-.127-2.194h1.714c.305 0 .552-.272.552-.61 0-.336-.247-.608-.552-.608h-1.285l-3.246-7.644c-.092-.214-.287-.35-.5-.35-.215 0-.41.136-.5.35l-3.247 7.644H5.346c-.305 0-.553.272-.553.61 0 .336.247.61.553.61h1.58l-.127 2.193-.002.038c0 .596.13 1.185.37 1.713-.285.56-.448 1.196-.454 1.863l-2.494 1.124-1.085-6.232.265-.936.823-.764c.155-.143.226-.368.186-.587-.04-.22-.185-.396-.378-.462l-1.027-.353-.692-.91c-.13-.17-.334-.25-.532-.204-.197.044-.357.204-.417.416l-.32 1.134-.824.764c-.155.143-.227.368-.187.587.04.22.184.396.377.462l1.027.352.63.827 1.11 6.375-2.093.943c-.565.255-.835.967-.604 1.59.175.473.588.76 1.023.76.14 0 .28-.03.417-.092l1.682-.76.525 3.013c.05.29.282.493.542.493l.104-.01c.3-.064.496-.384.438-.715l-.566-3.253 2.303-1.038c.486 2.065 2.19 3.55 4.156 3.55l.343-.016c.753-.065 1.48-.35 2.1-.825.158-.12.248-.322.24-.532-.01-.21-.12-.4-.287-.504-.36-.218-.595-.618-.627-1.07-.014-.195.01-.385.07-.566.09-.12.175-.244.253-.374l7.85 2.416-2.958 3.017c-.448.457-.476 1.228-.06 1.723.217.26.513.392.81.392.27 0 .538-.107.75-.324l4.412-4.5c.294-.3.418-.752.324-1.18-.094-.43-.392-.77-.778-.89l-9.77-3.007-.005-.103c-.04-.56-.188-1.095-.43-1.576.076-.163.142-.332.195-.505.207.005.304.046.443.106.197.084.442.19.892.19s.695-.106.892-.19c.15-.066.25-.108.49-.108s.34.043.49.107c.197.084.44.19.89.19s.696-.106.893-.19c.15-.066.25-.108.49-.108.242 0 .34.043.49.107.198.084.443.19.893.19s.695-.106.892-.19c.15-.066.25-.108.49-.108.242 0 .34.043.49.107.198.084.443.19.893.19s.695-.106.892-.19c.15-.066.25-.108.49-.108.242 0 .34.043.49.107.198.084.443.19.893.19s.695-.106.892-.19c.15-.066.25-.108.49-.108.242 0 .34.043.49.107.198.084.443.19.893.19s.695-.106.893-.19c.15-.066.25-.108.492-.108.24 0 .34.043.49.107.198.084.443.19.893.19.305 0 .552-.274.552-.61 0-.338-.247-.61-.552-.61zm-21.134 1.396c-.353-.008-.683.142-.93.415-.216.237-.216.623 0 .86.215.24.565.24.78 0l.134-.057c.034 0 .098.01.156.075.108.12.25.18.39.18.142 0 .284-.06.392-.18.215-.238.215-.624 0-.862-.247-.273-.575-.426-.922-.432zm.81-2.244h.498c.306 0 .554-.273.554-.61 0-.337-.248-.61-.553-.61h-.498c-.305 0-.552.273-.552.61 0 .337.247.61.552.61zm9.893-6.927h-4.52l.375-.592 1.578-1.246c.073-.057.13-.134.17-.222l.597-1.312.67 1.334c.047.098.12.178.208.234l.922.583v1.225zm-19.3 4.258l-.025-.008.028-.025.147-.137c.08-.075.14-.174.172-.285l.068-.24.07.093.077.1c.068.09.157.154.258.19l.217.073-.174.163c-.08.075-.14.174-.172.286l-.066.24-.147-.193c-.068-.09-.157-.155-.258-.19l-.193-.066zm17.97 2.437l1.148-1.237.098-.14.664-1.33.32-.517.035.095c.085.236.29.386.514.386l.097-.01 1.03-.2c.14-.027.265-.114.35-.24l.473-.718.433.014.445 1.113.765 1.953c.042.107.11.198.198.263l1.126.842.03.022 1.204.783c-.193-.008-.287-.047-.422-.106-.197-.084-.442-.19-.892-.19s-.695.106-.892.19c-.15.066-.25.11-.49.11-.242 0-.34-.044-.49-.11-.198-.084-.443-.19-.893-.19s-.695.106-.892.19c-.15.066-.25.11-.49.11-.242 0-.34-.044-.49-.11-.198-.084-.443-.19-.893-.19s-.695.106-.892.19c-.15.066-.248.11-.49.11s-.34-.044-.49-.11c-.197-.084-.442-.19-.892-.19s-.695.106-.892.19c-.15.066-.25.11-.49.11l-.09-.004.785-.44 1.176-.505.187-.13zm3.013-4.524l.494-.84.05-.11.003-.005.417-1.215.026-.076.084.076.453.413.268 1.15-.338-.01c-.184-.005-.356.088-.463.25l-.248.375-.267.405-.366.07-.15-.42-.022-.063h.06zm-14.8 1.476l2.368-5.58 2.37 5.58.157.37H7.752l.157-.37zm4.58 1.588l.128 2.25c-.002.22-.028.44-.08.65-.218-.138-.502-.097-.68.117-.063.075-.102.162-.125.253-.052.213 0 .45.158.61.456.46.732 1.084.78 1.76l.01.193c.002.453-.1.897-.296 1.297l-.05.093c-.08.148-.173.29-.28.42l-.094.162c-.154.386-.22.812-.19 1.234.038.516.214.997.496 1.388-.29.125-.595.202-.908.23l-.255.01c-1.512 0-2.817-1.18-3.124-2.8-.028-.146-.05-.294-.06-.445l-.097-1.357c-.01-.145-.008-.288.003-.43.07-.93.575-1.753 1.317-2.172.097.176.27.293.47.293h1.105c.305 0 .552-.273.552-.61v-.013c-.008-.33-.252-.596-.552-.596h-.554v-1.452c0-.337-.247-.61-.552-.61h-.938c-.305 0-.552.273-.552.61 0 .337.247.61.552.61h.386v.483c-.404.16-.77.396-1.088.692-.046-.2-.07-.408-.072-.616l.13-2.25h4.457z" fill="#206FAC"/><path d="M20.427 83.444h.09l-.026.286c0 .83.613 1.505 1.365 1.505h4.814c.33 0 .65-.134.9-.376.294-.287.463-.698.463-1.13 0-.43-.17-.843-.462-1.128-.248-.243-.568-.377-.9-.377h-1.156l.005-.092c0-.376-.148-.735-.404-.982-.217-.21-.496-.328-.786-.328h-3.902c-.655 0-1.188.588-1.188 1.31s.533 1.31 1.188 1.31zm0-1.402h3.902l.054.024.03.068-.03.07-.054.022h-.002c-.305 0-.552.273-.552.61 0 .337.247.61.552.61h2.342c.08 0 .136.04.17.072.034.032.09.102.09.213s-.056.183-.09.215c-.033.033-.09.07-.17.07h-4.813c-.143 0-.26-.127-.26-.285 0-.157.117-.286.26-.286.305 0 .552-.272.552-.61 0-.336-.246-.61-.55-.61h-1.43c-.047 0-.084-.04-.084-.09 0-.05.037-.093.083-.093zM.237 90.68c.098.08.215.124.335.124.12 0 .235-.043.33-.12.215-.178.284-.5.164-.763-.04-.083-.094-.157-.162-.214-.19-.158-.472-.16-.663 0-.214.176-.283.5-.162.764.038.083.092.155.16.21zm4.377-.73c.102.17.276.273.46.273.12 0 .236-.043.33-.12.13-.108.21-.27.222-.447.01-.177-.048-.35-.162-.476l-.056-.054c-.19-.16-.473-.16-.664-.002-.215.177-.284.5-.163.765l.033.06zm-1.166-7.104l.027.032c.103.113.242.177.39.177.12 0 .235-.042.33-.12.13-.106.21-.27.22-.447.01-.135-.023-.27-.09-.38l-.044-.065-.027-.032c-.102-.112-.242-.176-.39-.176-.12 0-.235.042-.33.12-.13.106-.21.27-.22.447-.01.136.023.27.09.38l.043.065zm2.945 2.703l.46.276.25.507c.097.196.283.317.485.317.2 0 .387-.12.485-.317l.25-.507.46-.276c.178-.107.29-.313.29-.535 0-.223-.11-.428-.29-.535l-.46-.277-.25-.507c-.097-.195-.283-.317-.485-.317s-.388.12-.485.316l-.25.507-.46.277c-.177.107-.288.312-.288.535 0 .223.11.428.288.534zM1.74 87.813l.458.277.25.508c.098.196.284.317.486.317s.387-.122.485-.317l.25-.507.46-.276c.177-.107.287-.313.287-.535 0-.224-.11-.43-.287-.536l-.46-.277-.25-.507c-.098-.196-.284-.317-.486-.317s-.388.122-.485.317l-.252.507-.46.277c-.176.107-.287.312-.287.535 0 .222.11.427.29.534zm28.41 12.58c-.45 0-.694.106-.89.192-.15.064-.25.107-.492.107-.24 0-.34-.043-.49-.107-.197-.086-.442-.19-.892-.19s-.695.104-.892.19c-.15.064-.25.107-.49.107-.242 0-.34-.043-.49-.107-.198-.086-.443-.19-.893-.19-.448 0-.694.104-.89.19-.15.064-.25.107-.49.107s-.342-.043-.492-.107c-.197-.086-.442-.19-.892-.19s-.695.104-.892.19c-.15.064-.25.107-.49.107-.305 0-.552.273-.552.61 0 .337.247.61.552.61.45 0 .695-.105.892-.19.15-.065.25-.107.49-.107.242 0 .34.043.49.107.198.085.443.19.893.19.448 0 .694-.105.89-.19.15-.065.25-.107.49-.107.243 0 .342.043.492.107.197.085.442.19.892.19s.695-.105.892-.19c.15-.065.25-.107.49-.107.242 0 .34.043.49.107.198.085.443.19.892.19.45 0 .695-.105.892-.19.15-.065.25-.107.49-.107.306 0 .553-.273.553-.61 0-.337-.247-.61-.552-.61zm1.307-1.996c-.24 0-.34-.043-.49-.108-.15-.063-.326-.14-.596-.173l-2.376-1.546-.98-.73-.7-1.796-.57-1.423-.182-.778h4.373c.305 0 .552-.273.552-.61 0-.337-.247-.61-.552-.61H25.28l-.02-.08c-.03-.126-.093-.237-.183-.32l-1.27-1.16c-.137-.125-.32-.17-.493-.12-.173.05-.313.19-.375.374l-.45 1.306h-.36v-1.577c0-.22-.106-.42-.278-.53l-1.066-.672-1.102-2.197c-.1-.198-.29-.32-.494-.314-.205.005-.39.135-.483.337l-1.004 2.21-1.542 1.22-.13.147-.882 1.395h-1.475c-.305 0-.552.273-.552.61 0 .337.248.61.553.61h1.615l.132-.02.027.002h6.504l-.628 1.065-.643 1.038-.03.05-.637 1.273-1.01 1.09-1.097.47-.05.025-2.248 1.264-.16.137-.085.036c-.15.065-.25.108-.49.108s-.34-.042-.49-.107c-.16-.07-.354-.15-.66-.18V98.056l-.127-2.194h1.714c.305 0 .552-.272.552-.61 0-.336-.247-.608-.552-.608h-1.285l-3.246-7.644c-.092-.214-.287-.35-.5-.35-.215 0-.41.136-.5.35l-3.247 7.644H5.346c-.305 0-.553.272-.553.61 0 .336.247.61.553.61h1.58l-.127 2.193-.002.038c0 .596.13 1.185.37 1.713-.285.56-.448 1.196-.454 1.863l-2.494 1.124-1.085-6.232.265-.936.823-.764c.155-.143.226-.368.186-.587-.04-.22-.185-.396-.378-.462l-1.027-.353-.692-.91c-.13-.17-.334-.25-.532-.204-.197.044-.357.204-.417.416l-.32 1.134-.824.764c-.155.143-.227.368-.187.587.04.22.184.396.377.462l1.027.352.63.827 1.11 6.375-2.093.943c-.565.255-.835.967-.604 1.59.175.473.588.76 1.023.76.14 0 .28-.03.417-.092l1.682-.76.525 3.013c.05.29.282.493.542.493l.104-.01c.3-.064.496-.384.438-.715l-.566-3.253 2.303-1.038c.486 2.065 2.19 3.55 4.156 3.55l.343-.016c.753-.065 1.48-.35 2.1-.825.158-.12.248-.322.24-.532-.01-.21-.12-.4-.287-.504-.36-.218-.595-.618-.627-1.07-.014-.195.01-.385.07-.566.09-.12.175-.244.253-.374l7.85 2.416-2.958 3.017c-.448.457-.476 1.228-.06 1.723.217.26.513.392.81.392.27 0 .538-.107.75-.324l4.412-4.5c.294-.3.418-.752.324-1.18-.094-.43-.392-.77-.778-.89l-9.77-3.007-.005-.103c-.04-.56-.188-1.095-.43-1.576.076-.163.142-.332.195-.505.207.005.304.046.443.106.197.084.442.19.892.19s.695-.106.892-.19c.15-.066.25-.108.49-.108s.34.043.49.107c.197.084.44.19.89.19s.696-.106.893-.19c.15-.066.25-.108.49-.108.242 0 .34.043.49.107.198.084.443.19.893.19s.695-.106.892-.19c.15-.066.25-.108.49-.108.242 0 .34.043.49.107.198.084.443.19.893.19s.695-.106.892-.19c.15-.066.25-.108.49-.108.242 0 .34.043.49.107.198.084.443.19.893.19s.695-.106.892-.19c.15-.066.25-.108.49-.108.242 0 .34.043.49.107.198.084.443.19.893.19s.695-.106.893-.19c.15-.066.25-.108.492-.108.24 0 .34.043.49.107.198.084.443.19.893.19.305 0 .552-.274.552-.61 0-.338-.247-.61-.552-.61zm-21.134 1.396c-.353-.008-.683.142-.93.415-.216.237-.216.623 0 .86.215.24.565.24.78 0l.134-.057c.034 0 .098.01.156.075.108.12.25.18.39.18.142 0 .284-.06.392-.18.215-.238.215-.624 0-.862-.247-.273-.575-.426-.922-.432zm.81-2.244h.498c.306 0 .554-.273.554-.61 0-.337-.248-.61-.553-.61h-.498c-.305 0-.552.273-.552.61 0 .337.247.61.552.61zm9.893-6.927h-4.52l.375-.592 1.578-1.246c.073-.057.13-.134.17-.222l.597-1.312.67 1.334c.047.098.12.178.208.234l.922.583v1.225zm-19.3 4.258l-.025-.008.028-.025.147-.137c.08-.075.14-.174.172-.285l.068-.24.07.093.077.1c.068.09.157.154.258.19l.217.073-.174.163c-.08.075-.14.174-.172.286l-.066.24-.147-.193c-.068-.09-.157-.155-.258-.19l-.193-.066zm17.97 2.437l1.148-1.237.098-.14.664-1.33.32-.517.035.095c.085.236.29.386.514.386l.097-.01 1.03-.2c.14-.027.265-.114.35-.24l.473-.718.433.014.445 1.113.765 1.953c.042.107.11.198.198.263l1.126.842.03.022 1.204.783c-.193-.008-.287-.047-.422-.106-.197-.084-.442-.19-.892-.19s-.695.106-.892.19c-.15.066-.25.11-.49.11-.242 0-.34-.044-.49-.11-.198-.084-.443-.19-.893-.19s-.695.106-.892.19c-.15.066-.25.11-.49.11-.242 0-.34-.044-.49-.11-.198-.084-.443-.19-.893-.19s-.695.106-.892.19c-.15.066-.248.11-.49.11s-.34-.044-.49-.11c-.197-.084-.442-.19-.892-.19s-.695.106-.892.19c-.15.066-.25.11-.49.11l-.09-.004.785-.44 1.176-.505.187-.13zm3.013-4.524l.494-.84.05-.11.003-.005.417-1.215.026-.076.084.076.453.413.268 1.15-.338-.01c-.184-.005-.356.088-.463.25l-.248.375-.267.405-.366.07-.15-.42-.022-.063h.06zM7.91 94.27l2.368-5.58 2.37 5.58.157.37H7.752l.157-.37zm4.58 1.588l.128 2.25c-.002.22-.028.44-.08.65-.218-.138-.502-.097-.68.117-.063.075-.102.162-.125.253-.052.213 0 .45.158.61.456.46.732 1.084.78 1.76l.01.193c.002.453-.1.897-.296 1.297l-.05.093c-.08.148-.173.29-.28.42l-.094.162c-.154.386-.22.812-.19 1.234.038.516.214.997.496 1.388-.29.125-.595.202-.908.23l-.255.01c-1.512 0-2.817-1.18-3.124-2.8-.028-.146-.05-.294-.06-.445l-.097-1.357c-.01-.145-.008-.288.003-.43.07-.93.575-1.753 1.317-2.172.097.176.27.293.47.293h1.105c.305 0 .552-.273.552-.61v-.013c-.008-.33-.252-.596-.552-.596h-.554v-1.452c0-.337-.247-.61-.552-.61h-.938c-.305 0-.552.273-.552.61 0 .337.247.61.552.61h.386v.483c-.404.16-.77.396-1.088.692-.046-.2-.07-.408-.072-.616l.13-2.25h4.457z" fill="#fff"/><path d="M20.427 43.444h.09l-.026.286c0 .83.613 1.505 1.365 1.505h4.814c.33 0 .65-.134.9-.376.294-.287.463-.698.463-1.13 0-.43-.17-.843-.462-1.128-.248-.243-.568-.377-.9-.377h-1.156l.005-.092c0-.376-.148-.735-.404-.982-.217-.21-.496-.328-.786-.328h-3.902c-.655 0-1.188.588-1.188 1.31s.533 1.31 1.188 1.31zm0-1.402h3.902l.054.024.03.068-.03.07-.054.022h-.002c-.305 0-.552.273-.552.61 0 .337.247.61.552.61h2.342c.08 0 .136.04.17.072.034.032.09.102.09.213s-.056.183-.09.215c-.033.033-.09.07-.17.07h-4.813c-.143 0-.26-.127-.26-.285 0-.157.117-.286.26-.286.305 0 .552-.272.552-.61 0-.336-.246-.61-.55-.61h-1.43c-.047 0-.084-.04-.084-.09 0-.05.037-.093.083-.093zM.237 50.68c.098.08.215.124.335.124.12 0 .235-.043.33-.12.215-.178.284-.5.164-.763-.04-.083-.094-.157-.162-.214-.19-.158-.472-.16-.663 0-.214.176-.283.5-.162.764.038.083.092.155.16.21zm4.377-.73c.102.17.276.273.46.273.12 0 .236-.043.33-.12.13-.108.21-.27.222-.447.01-.177-.048-.35-.162-.476l-.056-.054c-.19-.16-.473-.16-.664-.002-.215.177-.284.5-.163.765l.033.06zm-1.166-7.104l.027.032c.103.113.242.177.39.177.12 0 .235-.042.33-.12.13-.106.21-.27.22-.447.01-.135-.023-.27-.09-.38l-.044-.065-.027-.032c-.102-.112-.242-.176-.39-.176-.12 0-.235.042-.33.12-.13.106-.21.27-.22.447-.01.136.023.27.09.38l.043.065zm2.945 2.703l.46.276.25.507c.097.196.283.317.485.317.2 0 .387-.12.485-.317l.25-.507.46-.276c.178-.107.29-.313.29-.535 0-.223-.11-.428-.29-.535l-.46-.277-.25-.507c-.097-.195-.283-.317-.485-.317s-.388.12-.485.316l-.25.507-.46.277c-.177.107-.288.312-.288.535 0 .223.11.428.288.534zM1.74 47.813l.458.277.25.508c.098.196.284.317.486.317s.387-.122.485-.317l.25-.507.46-.276c.177-.107.287-.313.287-.535 0-.224-.11-.43-.287-.536l-.46-.277-.25-.507c-.098-.196-.284-.317-.486-.317s-.388.122-.485.317l-.252.507-.46.277c-.176.107-.287.312-.287.535 0 .222.11.427.29.534zm28.41 12.58c-.45 0-.694.106-.89.192-.15.064-.25.107-.492.107-.24 0-.34-.043-.49-.107-.197-.086-.442-.19-.892-.19s-.695.104-.892.19c-.15.064-.25.107-.49.107-.242 0-.34-.043-.49-.107-.198-.086-.443-.19-.893-.19-.448 0-.694.104-.89.19-.15.064-.25.107-.49.107s-.342-.043-.492-.107c-.197-.086-.442-.19-.892-.19s-.695.104-.892.19c-.15.064-.25.107-.49.107-.305 0-.552.273-.552.61 0 .337.247.61.552.61.45 0 .695-.105.892-.19.15-.065.25-.107.49-.107.242 0 .34.043.49.107.198.085.443.19.893.19.448 0 .694-.105.89-.19.15-.065.25-.107.49-.107.243 0 .342.043.492.107.197.085.442.19.892.19s.695-.105.892-.19c.15-.065.25-.107.49-.107.242 0 .34.043.49.107.198.085.443.19.892.19.45 0 .695-.105.892-.19.15-.065.25-.107.49-.107.306 0 .553-.273.553-.61 0-.337-.247-.61-.552-.61zm1.307-1.996c-.24 0-.34-.043-.49-.108-.15-.063-.326-.14-.596-.173l-2.376-1.546-.98-.73-.7-1.796-.57-1.423-.182-.778h4.373c.305 0 .552-.273.552-.61 0-.337-.247-.61-.552-.61H25.28l-.02-.08c-.03-.126-.093-.237-.183-.32l-1.27-1.16c-.137-.125-.32-.17-.493-.12-.173.05-.313.19-.375.374l-.45 1.306h-.36v-1.577c0-.22-.106-.42-.278-.53l-1.066-.672-1.102-2.197c-.1-.198-.29-.32-.494-.314-.205.005-.39.135-.483.337l-1.004 2.21-1.542 1.22-.13.147-.882 1.395h-1.475c-.305 0-.552.273-.552.61 0 .337.248.61.553.61h1.615l.132-.02.027.002h6.504l-.628 1.065-.643 1.038-.03.05-.637 1.273-1.01 1.09-1.097.47-.05.025-2.248 1.264-.16.137-.085.036c-.15.065-.25.108-.49.108s-.34-.042-.49-.107c-.16-.07-.354-.15-.66-.18V58.056l-.127-2.194h1.714c.305 0 .552-.272.552-.61 0-.336-.247-.608-.552-.608h-1.285l-3.246-7.644c-.092-.214-.287-.35-.5-.35-.215 0-.41.136-.5.35l-3.247 7.644H5.346c-.305 0-.553.272-.553.61 0 .336.247.61.553.61h1.58l-.127 2.193-.002.038c0 .596.13 1.185.37 1.713-.285.56-.448 1.196-.454 1.863L4.22 62.793l-1.085-6.232.265-.936.823-.764c.155-.143.226-.368.186-.587-.04-.22-.185-.396-.378-.462l-1.027-.353-.692-.91c-.13-.17-.334-.25-.532-.204-.197.044-.357.204-.417.416l-.32 1.134-.824.764c-.155.143-.227.368-.187.587.04.22.184.396.377.462l1.027.352.63.827 1.11 6.375-2.093.943c-.565.255-.835.967-.604 1.59.175.473.588.76 1.023.76.14 0 .28-.03.417-.092l1.682-.76.525 3.013c.05.29.282.493.542.493l.104-.01c.3-.064.496-.384.438-.715l-.566-3.253 2.303-1.038c.486 2.065 2.19 3.55 4.156 3.55l.343-.016c.753-.065 1.48-.35 2.1-.825.158-.12.248-.322.24-.532-.01-.21-.12-.4-.287-.504-.36-.218-.595-.618-.627-1.07-.014-.195.01-.385.07-.566.09-.12.175-.244.253-.374l7.85 2.416-2.958 3.017c-.448.457-.476 1.228-.06 1.723.217.26.513.392.81.392.27 0 .538-.107.75-.324l4.412-4.5c.294-.3.418-.752.324-1.18-.094-.43-.392-.77-.778-.89l-9.77-3.007-.005-.103c-.04-.56-.188-1.095-.43-1.576.076-.163.142-.332.195-.505.207.005.304.046.443.106.197.084.442.19.892.19s.695-.106.892-.19c.15-.066.25-.108.49-.108s.34.043.49.107c.197.084.44.19.89.19s.696-.106.893-.19c.15-.066.25-.108.49-.108.242 0 .34.043.49.107.198.084.443.19.893.19s.695-.106.892-.19c.15-.066.25-.108.49-.108.242 0 .34.043.49.107.198.084.443.19.893.19s.695-.106.892-.19c.15-.066.25-.108.49-.108.242 0 .34.043.49.107.198.084.443.19.893.19s.695-.106.892-.19c.15-.066.25-.108.49-.108.242 0 .34.043.49.107.198.084.443.19.893.19s.695-.106.893-.19c.15-.066.25-.108.492-.108.24 0 .34.043.49.107.198.084.443.19.893.19.305 0 .552-.274.552-.61 0-.338-.247-.61-.552-.61zm-21.134 1.396c-.353-.008-.683.142-.93.415-.216.237-.216.623 0 .86.215.24.565.24.78 0l.134-.057c.034 0 .098.01.156.075.108.12.25.18.39.18.142 0 .284-.06.392-.18.215-.238.215-.624 0-.862-.247-.273-.575-.426-.922-.432zm.81-2.244h.498c.306 0 .554-.273.554-.61 0-.337-.248-.61-.553-.61h-.498c-.305 0-.552.273-.552.61 0 .337.247.61.552.61zm9.893-6.927h-4.52l.375-.592 1.578-1.246c.073-.057.13-.134.17-.222l.597-1.312.67 1.334c.047.098.12.178.208.234l.922.583v1.225zm-19.3 4.258l-.025-.008.028-.025.147-.137c.08-.075.14-.174.172-.285l.068-.24.07.093.077.1c.068.09.157.154.258.19l.217.073-.174.163c-.08.075-.14.174-.172.286l-.066.24-.147-.193c-.068-.09-.157-.155-.258-.19l-.193-.066zm17.97 2.437l1.148-1.237.098-.14.664-1.33.32-.517.035.095c.085.236.29.386.514.386l.097-.01 1.03-.2c.14-.027.265-.114.35-.24l.473-.718.433.014.445 1.113.765 1.953c.042.107.11.198.198.263l1.126.842.03.022 1.204.783c-.193-.008-.287-.047-.422-.106-.197-.084-.442-.19-.892-.19s-.695.106-.892.19c-.15.066-.25.11-.49.11-.242 0-.34-.044-.49-.11-.198-.084-.443-.19-.893-.19s-.695.106-.892.19c-.15.066-.25.11-.49.11-.242 0-.34-.044-.49-.11-.198-.084-.443-.19-.893-.19s-.695.106-.892.19c-.15.066-.248.11-.49.11s-.34-.044-.49-.11c-.197-.084-.442-.19-.892-.19s-.695.106-.892.19c-.15.066-.25.11-.49.11l-.09-.004.785-.44 1.176-.505.187-.13zm3.013-4.524l.494-.84.05-.11.003-.005.417-1.215.026-.076.084.076.453.413.268 1.15-.338-.01c-.184-.005-.356.088-.463.25l-.248.375-.267.405-.366.07-.15-.42-.022-.063h.06zM7.91 54.27l2.368-5.58 2.37 5.58.157.37H7.752l.157-.37zm4.58 1.588l.128 2.25c-.002.22-.028.44-.08.65-.218-.138-.502-.097-.68.117-.063.075-.102.162-.125.253-.052.213 0 .45.158.61.456.46.732 1.084.78 1.76l.01.193c.002.453-.1.897-.296 1.297l-.05.093c-.08.148-.173.29-.28.42l-.094.162c-.154.386-.22.812-.19 1.234.038.516.214.997.496 1.388-.29.125-.595.202-.908.23l-.255.01c-1.512 0-2.817-1.18-3.124-2.8-.028-.146-.05-.294-.06-.445l-.097-1.357c-.01-.145-.008-.288.003-.43.07-.93.575-1.753 1.317-2.172.097.176.27.293.47.293h1.105c.305 0 .552-.273.552-.61v-.013c-.008-.33-.252-.596-.552-.596h-.554v-1.452c0-.337-.247-.61-.552-.61h-.938c-.305 0-.552.273-.552.61 0 .337.247.61.552.61h.386v.483c-.404.16-.77.396-1.088.692-.046-.2-.07-.408-.072-.616l.13-2.25h4.457z" fill="#67737B"/><path d="M20.427 3.444h.09l-.026.286c0 .83.613 1.505 1.365 1.505h4.814c.33 0 .65-.134.9-.376.294-.287.463-.698.463-1.13 0-.43-.17-.843-.462-1.128-.248-.243-.568-.377-.9-.377h-1.156l.005-.092c0-.376-.148-.735-.404-.982C24.9.94 24.62.823 24.33.823h-3.902c-.655 0-1.188.588-1.188 1.31s.533 1.31 1.188 1.31zm0-1.402h3.902l.054.024.03.068-.03.07-.054.022h-.002c-.305 0-.552.273-.552.61 0 .337.247.61.552.61h2.342c.08 0 .136.04.17.072.034.032.09.102.09.213s-.056.183-.09.215c-.033.033-.09.07-.17.07h-4.813c-.143 0-.26-.127-.26-.285 0-.157.117-.286.26-.286.305 0 .552-.272.552-.61 0-.336-.246-.61-.55-.61h-1.43c-.047 0-.084-.04-.084-.09 0-.05.037-.093.083-.093zM.237 10.68c.098.08.215.124.335.124.12 0 .235-.043.33-.12.215-.178.284-.5.164-.763-.04-.083-.094-.157-.162-.214-.19-.158-.472-.16-.663 0-.214.176-.283.5-.162.764.038.083.092.155.16.21zm4.377-.73c.102.17.276.273.46.273.12 0 .236-.043.33-.12.13-.108.21-.27.222-.447.01-.177-.048-.35-.162-.476l-.056-.054c-.19-.16-.473-.16-.664-.002-.215.177-.284.5-.163.765l.033.06zM3.448 2.845l.027.032c.103.113.242.177.39.177.12 0 .235-.042.33-.12.13-.106.21-.27.22-.447.01-.135-.023-.27-.09-.38l-.044-.065-.027-.032c-.102-.112-.242-.176-.39-.176-.12 0-.235.042-.33.12-.13.106-.21.27-.22.447-.01.136.023.27.09.38l.043.065zM6.393 5.55l.46.276.25.507c.097.196.283.317.485.317.2 0 .387-.12.485-.317l.25-.507.46-.276c.178-.107.29-.313.29-.535 0-.223-.11-.428-.29-.535l-.46-.277-.25-.507c-.097-.195-.283-.317-.485-.317s-.388.12-.485.316l-.25.507-.46.277c-.177.107-.288.312-.288.535 0 .223.11.428.288.534zM1.74 7.813l.458.277.25.508c.098.196.284.317.486.317s.387-.122.485-.317l.25-.507.46-.276c.177-.107.287-.313.287-.535 0-.224-.11-.43-.287-.536l-.46-.277-.25-.507c-.098-.196-.284-.317-.486-.317s-.388.122-.485.317l-.252.507-.46.277c-.176.107-.287.312-.287.535 0 .222.11.427.29.534zm28.41 12.58c-.45 0-.694.106-.89.192-.15.064-.25.107-.492.107-.24 0-.34-.043-.49-.107-.197-.086-.442-.19-.892-.19s-.695.104-.892.19c-.15.064-.25.107-.49.107-.242 0-.34-.043-.49-.107-.198-.086-.443-.19-.893-.19-.448 0-.694.104-.89.19-.15.064-.25.107-.49.107s-.342-.043-.492-.107c-.197-.086-.442-.19-.892-.19s-.695.104-.892.19c-.15.064-.25.107-.49.107-.305 0-.552.273-.552.61 0 .337.247.61.552.61.45 0 .695-.105.892-.19.15-.065.25-.107.49-.107.242 0 .34.043.49.107.198.085.443.19.893.19.448 0 .694-.105.89-.19.15-.065.25-.107.49-.107.243 0 .342.043.492.107.197.085.442.19.892.19s.695-.105.892-.19c.15-.065.25-.107.49-.107.242 0 .34.043.49.107.198.085.443.19.892.19.45 0 .695-.105.892-.19.15-.065.25-.107.49-.107.306 0 .553-.273.553-.61 0-.337-.247-.61-.552-.61zm1.307-1.996c-.24 0-.34-.043-.49-.108-.15-.063-.326-.14-.596-.173l-2.376-1.546-.98-.73-.7-1.796-.57-1.423-.182-.778h4.373c.305 0 .552-.273.552-.61 0-.337-.247-.61-.552-.61H25.28l-.02-.08c-.03-.126-.093-.237-.183-.32l-1.27-1.16c-.137-.125-.32-.17-.493-.12-.173.05-.313.19-.375.374l-.45 1.306h-.36V9.045c0-.22-.106-.42-.278-.53l-1.066-.672-1.102-2.197c-.1-.198-.29-.32-.494-.314-.205.005-.39.135-.483.337l-1.004 2.21L16.16 9.1l-.13.147-.882 1.395h-1.475c-.305 0-.552.273-.552.61 0 .337.248.61.553.61h1.615l.132-.02.027.002h6.504l-.628 1.065-.643 1.038-.03.05-.637 1.273-1.01 1.09-1.097.47-.05.025-2.248 1.264-.16.137-.085.036c-.15.065-.25.108-.49.108s-.34-.042-.49-.107c-.16-.07-.354-.15-.66-.18V18.056l-.127-2.194h1.714c.305 0 .552-.272.552-.61 0-.336-.247-.608-.552-.608h-1.285L10.78 6.998c-.092-.214-.287-.35-.5-.35-.215 0-.41.136-.5.35l-3.247 7.644H5.346c-.305 0-.553.272-.553.61 0 .336.247.61.553.61h1.58l-.127 2.193-.002.038c0 .596.13 1.185.37 1.713-.285.56-.448 1.196-.454 1.863L4.22 22.793l-1.085-6.232.265-.936.823-.764c.155-.143.226-.368.186-.587-.04-.22-.185-.396-.378-.462l-1.027-.353-.692-.91c-.13-.17-.334-.25-.532-.204-.197.044-.357.204-.417.416l-.32 1.134-.824.764c-.155.143-.227.368-.187.587.04.22.184.396.377.462l1.027.352.63.827 1.11 6.375-2.093.943c-.565.255-.835.967-.604 1.59.175.473.588.76 1.023.76.14 0 .28-.03.417-.092l1.682-.76.525 3.013c.05.29.282.493.542.493l.104-.01c.3-.064.496-.384.438-.715l-.566-3.253 2.303-1.038c.486 2.065 2.19 3.55 4.156 3.55l.343-.016c.753-.065 1.48-.35 2.1-.825.158-.12.248-.322.24-.532-.01-.21-.12-.4-.287-.504-.36-.218-.595-.618-.627-1.07-.014-.195.01-.385.07-.566.09-.12.175-.244.253-.374l7.85 2.416-2.958 3.017c-.448.457-.476 1.228-.06 1.723.217.26.513.392.81.392.27 0 .538-.107.75-.324l4.412-4.5c.294-.3.418-.752.324-1.18-.094-.43-.392-.77-.778-.89l-9.77-3.007-.005-.103c-.04-.56-.188-1.095-.43-1.576.076-.163.142-.332.195-.505.207.005.304.046.443.106.197.084.442.19.892.19s.695-.106.892-.19c.15-.066.25-.108.49-.108s.34.043.49.107c.197.084.44.19.89.19s.696-.106.893-.19c.15-.066.25-.108.49-.108.242 0 .34.043.49.107.198.084.443.19.893.19s.695-.106.892-.19c.15-.066.25-.108.49-.108.242 0 .34.043.49.107.198.084.443.19.893.19s.695-.106.892-.19c.15-.066.25-.108.49-.108.242 0 .34.043.49.107.198.084.443.19.893.19s.695-.106.892-.19c.15-.066.25-.108.49-.108.242 0 .34.043.49.107.198.084.443.19.893.19s.695-.106.893-.19c.15-.066.25-.108.492-.108.24 0 .34.043.49.107.198.084.443.19.893.19.305 0 .552-.274.552-.61 0-.338-.247-.61-.552-.61zm-21.134 1.396c-.353-.008-.683.142-.93.415-.216.237-.216.623 0 .86.215.24.565.24.78 0l.134-.057c.034 0 .098.01.156.075.108.12.25.18.39.18.142 0 .284-.06.392-.18.215-.238.215-.624 0-.862-.247-.273-.575-.426-.922-.432zm.81-2.244h.498c.306 0 .554-.273.554-.61 0-.337-.248-.61-.553-.61h-.498c-.305 0-.552.273-.552.61 0 .337.247.61.552.61zm9.893-6.927h-4.52l.375-.592 1.578-1.246c.073-.057.13-.134.17-.222l.597-1.312.67 1.334c.047.098.12.178.208.234l.922.583v1.225zm-19.3 4.258l-.025-.008.028-.025.147-.137c.08-.075.14-.174.172-.285l.068-.24.07.093.077.1c.068.09.157.154.258.19l.217.073-.174.163c-.08.075-.14.174-.172.286l-.066.24-.147-.193c-.068-.09-.157-.155-.258-.19l-.193-.066zm17.97 2.437l1.148-1.237.098-.14.664-1.33.32-.517.035.095c.085.236.29.386.514.386l.097-.01 1.03-.2c.14-.027.265-.114.35-.24l.473-.718.433.014.445 1.113.765 1.953c.042.107.11.198.198.263l1.126.842.03.022 1.204.783c-.193-.008-.287-.047-.422-.106-.197-.084-.442-.19-.892-.19s-.695.106-.892.19c-.15.066-.25.11-.49.11-.242 0-.34-.044-.49-.11-.198-.084-.443-.19-.893-.19s-.695.106-.892.19c-.15.066-.25.11-.49.11-.242 0-.34-.044-.49-.11-.198-.084-.443-.19-.893-.19s-.695.106-.892.19c-.15.066-.248.11-.49.11s-.34-.044-.49-.11c-.197-.084-.442-.19-.892-.19s-.695.106-.892.19c-.15.066-.25.11-.49.11l-.09-.004.785-.44 1.176-.505.187-.13zm3.013-4.524l.494-.84.05-.11.003-.005.417-1.215.026-.076.084.076.453.413.268 1.15-.338-.01c-.184-.005-.356.088-.463.25l-.248.375-.267.405-.366.07-.15-.42-.022-.063h.06zM7.91 14.27l2.368-5.58 2.37 5.58.157.37H7.752l.157-.37zm4.58 1.588l.128 2.25c-.002.22-.028.44-.08.65-.218-.138-.502-.097-.68.117-.063.075-.102.162-.125.253-.052.213 0 .45.158.61.456.46.732 1.084.78 1.76l.01.193c.002.453-.1.897-.296 1.297l-.05.093c-.08.148-.173.29-.28.42l-.094.162c-.154.386-.22.812-.19 1.234.038.516.214.997.496 1.388-.29.125-.595.202-.908.23l-.255.01c-1.512 0-2.817-1.18-3.124-2.8-.028-.146-.05-.294-.06-.445l-.097-1.357c-.01-.145-.008-.288.003-.43.07-.93.575-1.753 1.317-2.172.097.176.27.293.47.293h1.105c.305 0 .552-.273.552-.61v-.013c-.008-.33-.252-.596-.552-.596h-.554v-1.452c0-.337-.247-.61-.552-.61h-.938c-.305 0-.552.273-.552.61 0 .337.247.61.552.61h.386v.483c-.404.16-.77.396-1.088.692-.046-.2-.07-.408-.072-.616l.13-2.25h4.457z" fill="#3A434E"/></g></svg>