<svg width="32" height="232" viewBox="0 0 32 232" xmlns="http://www.w3.org/2000/svg"><desc>Created with Sketch.</desc><g fill="none"><path d="M7.517 124.048c.267-.24.646-.244.917-.036l.006.015c.082.188.26.31.455.31h.057c.195 0 .372-.12.455-.31l.006-.015c.27-.208.65-.203.916.036.21.19.525.16.703-.066.178-.226.15-.563-.062-.753-.593-.536-1.425-.57-2.05-.158-.625-.415-1.457-.378-2.05.154-.21.19-.24.526-.06.752.176.225.492.255.705.065m2.892 2.382c.177.226.493.256.706.066.267-.24.646-.243.917-.035l.008.015c.08.188.26.308.454.308h.058c.196 0 .373-.12.456-.307l.006-.014c.27-.208.65-.203.916.036.212.19.53.16.707-.066.178-.226.15-.563-.062-.753-.593-.532-1.425-.57-2.05-.154-.625-.414-1.457-.377-2.05.155-.21.19-.24.527-.06.753m-8.778 6.3H5.3c.266 0 .524-.106.725-.295.237-.222.373-.542.373-.878l-.005-.102h1.742c.307 0 .604-.12.835-.337.272-.257.43-.625.43-1.01 0-.386-.157-.754-.43-1.01-.23-.216-.527-.336-.834-.336h-5.16c-.697 0-1.264.605-1.264 1.347l.027.276h-.11c-.607 0-1.1.525-1.1 1.17 0 .645.494 1.17 1.1 1.17zm0-1.274H2.98c.276 0 .5-.24.5-.534 0-.294-.225-.533-.502-.533-.144 0-.26-.126-.26-.28 0-.153.117-.277.26-.277h5.16c.08 0 .138.038.172.07.033.03.09.1.09.207 0 .107-.057.175-.09.207-.034.032-.09.07-.172.07h-2.84c-.277 0-.502.24-.502.534 0 .297.225.536.502.536H5.3l.063.026.033.077-.033.075-.063.026H1.634c-.053 0-.095-.046-.095-.102 0-.056.04-.102.09-.102zm29.27 16.442h-.316V137c0-.59-.45-1.07-1.005-1.07-.37 0-.694.216-.868.535H27.32v-4.177h.242c.277 0 .502-.24.502-.534 0-.295-.225-.534-.502-.534h-.297c-.19-2.57-2.112-4.63-4.52-4.853v-3.738c0-.298-.225-.537-.502-.537h-2.77c-.277 0-.502.24-.502.534v2.302c0 .294.23.533.506.533h2.27v.913c-2.344.286-4.195 2.316-4.382 4.837h-.422c-.276 0-.5.24-.5.535 0 .294.224.533.5.533h.346v.8l-1.116-.367c-.09-.03-.186-.032-.277-.006l-1.712.48-2.234.297c-.09.012-.178.05-.25.11l-1.515 1.276-2.047.42c-.128.028-.242.106-.317.22l-.762 1.168-1.753.55-.172.097-1.467 1.252c-.096.082-.154.196-.176.317H2.46c-.277 0-.502.24-.502.534 0 .296.225.535.502.535h11.56v1.537c-.223.04-.38.105-.517.16-.178.075-.306.128-.604.128-.3 0-.427-.053-.604-.127-.214-.087-.48-.2-.968-.2s-.754.113-.968.2c-.177.076-.305.13-.603.13s-.426-.053-.603-.127c-.21-.088-.48-.2-.965-.2s-.755.112-.97.2c-.176.075-.304.128-.602.128s-.426-.052-.603-.126c-.214-.088-.48-.2-.97-.2-.486 0-.752.112-.966.2-.178.075-.306.128-.604.128-.276 0-.5.24-.5.534 0 .295.225.534.5.534.488 0 .755-.11.97-.2.176-.073.304-.126.602-.126s.428.052.605.126c.214.09.48.2.968.2s.755-.11.97-.2c.177-.074.305-.127.603-.127s.426.052.603.126c.214.09.48.2.968.2s.754-.11.968-.2c.177-.076.305-.13.603-.13s.425.053.602.127c.213.09.48.2.967.2s.753-.11.967-.2l.15-.06v1.99l-.15-.06c-.213-.087-.48-.2-.967-.2s-.755.113-.97.2c-.177.076-.305.13-.604.13-.3 0-.427-.054-.604-.128-.213-.09-.48-.2-.967-.2s-.755.11-.97.2c-.176.073-.304.126-.602.126-.3 0-.427-.054-.604-.128-.213-.09-.48-.2-.967-.2s-.754.11-.97.2c-.176.073-.304.126-.603.126-.3 0-.427-.054-.604-.128-.214-.09-.48-.2-.968-.2s-.754.11-.968.2c-.177.074-.305.127-.603.127-.276 0-.5.24-.5.533 0 .295.224.534.5.534.488 0 .755-.11.97-.2.176-.074.304-.127.602-.127s.426.053.603.127c.215.09.48.2.97.2s.753-.11.967-.2c.177-.074.305-.127.604-.127.298 0 .426.053.603.127.213.09.48.2.97.2.485 0 .752-.11.966-.2.175-.074.303-.127.6-.127.3 0 .428.053.605.127.215.09.48.2.97.2s.753-.11.97-.2c.175-.074.303-.127.602-.127.298 0 .426.053.603.127.134.057.292.122.514.162v2.2H1.033c-.55 0-1 .48-1 1.07s.45 1.067 1.003 1.067h29.867c.554 0 1.003-.478 1.003-1.07 0-.59-.45-1.068-1.003-1.068zm-4.116-.21h-.507v-2.193c0-2.332-1.78-4.23-3.97-4.23-2.186 0-3.967 1.898-3.967 4.23v2.192h-.505v-2.193c0-2.628 2.007-4.767 4.474-4.767s4.475 2.138 4.475 4.767v2.192zm-1.51 0h-5.93v-2.193c0-1.742 1.33-3.16 2.966-3.16 1.636 0 2.967 1.418 2.967 3.16v2.192zm3.3 0h-.79v-2.193c0-3.218-2.457-5.836-5.478-5.836-3.02 0-5.477 2.62-5.477 5.836v2.192h-.814V137.53h1.216v1.268h1.003v-1.266h.87v1.267h1.002v-1.267h.87v1.267h1.005v-1.266h.87v1.267h1.004v-1.265h.87v1.267h1.005v-1.266h.87v1.267h1.004v-1.266h.97v10.153zm-23.13-9.262l.224-.192 1.358-.426.47-.148.183-.108.087-.1.748-1.144 1.97-.404c.08-.016.152-.052.215-.105l1.502-1.265 2.13-.284.065-.012 1.606-.45.714.235.563.187v2.256h-1.397c-.174-.32-.497-.534-.868-.534-.554 0-1.003.48-1.003 1.07v1.902H4.89l.56-.478zm16.525-9.922l.338-.02.34.02c.21.53.42 1.433.46 2.716h-1.596c.04-1.283.25-2.187.46-2.717zm4.34 7.962h-.795v-2.21c-.02-.43-.352-.775-.762-.775-.41 0-.745.344-.764.776v2.208h-.9v-2.21c-.02-.43-.353-.775-.763-.775-.41 0-.743.342-.762.774v2.208h-.902v-2.21c-.02-.43-.352-.775-.762-.775-.41 0-.746.344-.765.776v2.208h-.85v-4.175h8.03v4.176zm-1.066-5.246h-1.14c-.025-.8-.118-1.6-.284-2.29.758.482 1.296 1.316 1.418 2.29zm-5.277-8.057h1.768v1.235h-1.765v-1.234zm.82 5.766c-.164.693-.257 1.493-.28 2.29h-1.137c.122-.972.66-1.806 1.418-2.29z" fill="#206FAC"/><path d="M7.517 84.048c.267-.24.646-.244.917-.036l.006.015c.082.188.26.31.455.31h.057c.195 0 .372-.12.455-.31l.006-.015c.27-.208.65-.203.916.036.21.19.525.16.703-.066.178-.226.15-.563-.062-.753-.593-.536-1.425-.57-2.05-.158-.625-.415-1.457-.378-2.05.154-.21.19-.24.526-.06.752.176.225.492.255.705.065m2.892 2.382c.177.226.493.256.706.066.267-.24.646-.243.917-.035l.008.015c.08.188.26.308.454.308h.058c.196 0 .373-.12.456-.307l.006-.014c.27-.208.65-.203.916.036.212.19.53.16.707-.066.178-.226.15-.563-.062-.753-.593-.532-1.425-.57-2.05-.154-.625-.414-1.457-.377-2.05.155-.21.19-.24.527-.06.753m-8.778 6.3H5.3c.266 0 .524-.106.725-.295.237-.222.373-.542.373-.878l-.005-.102h1.742c.307 0 .604-.12.835-.337.272-.257.43-.625.43-1.01 0-.386-.157-.754-.43-1.01-.23-.216-.527-.336-.834-.336h-5.16c-.697 0-1.264.605-1.264 1.347l.027.276h-.11c-.607 0-1.1.525-1.1 1.17 0 .645.494 1.17 1.1 1.17zm0-1.274H2.98c.276 0 .5-.24.5-.534 0-.294-.225-.533-.502-.533-.144 0-.26-.126-.26-.28 0-.153.117-.277.26-.277h5.16c.08 0 .138.038.172.07.033.03.09.1.09.207 0 .107-.057.175-.09.207-.034.032-.09.07-.172.07h-2.84c-.277 0-.502.24-.502.534 0 .297.225.536.502.536H5.3l.063.026.033.077-.033.075-.063.026H1.634c-.053 0-.095-.046-.095-.102 0-.056.04-.102.09-.102zm29.27 16.442h-.316V97c0-.59-.45-1.07-1.005-1.07-.37 0-.694.216-.868.535H27.32V92.29h.242c.277 0 .502-.24.502-.534 0-.295-.225-.534-.502-.534h-.297c-.19-2.57-2.112-4.63-4.52-4.853v-3.74c0-.297-.225-.536-.502-.536h-2.77c-.277 0-.502.24-.502.534v2.302c0 .295.23.534.506.534h2.27v.913c-2.344.286-4.195 2.316-4.382 4.837h-.422c-.276 0-.5.24-.5.535 0 .294.224.533.5.533h.346v.8l-1.116-.368c-.09-.03-.186-.033-.277-.007l-1.712.48-2.234.3c-.09.012-.178.05-.25.11l-1.515 1.276-2.047.42c-.128.028-.242.106-.317.22l-.762 1.168-1.753.55-.172.096-1.467 1.253c-.096.084-.154.198-.176.32H2.46c-.277 0-.502.24-.502.535 0 .295.225.534.502.534h11.56v1.535c-.223.04-.38.105-.517.16-.178.075-.306.128-.604.128-.3 0-.427-.053-.604-.127-.214-.088-.48-.2-.968-.2s-.754.112-.968.2c-.177.075-.305.128-.603.128s-.426-.053-.603-.127c-.21-.088-.48-.2-.965-.2s-.755.112-.97.2c-.176.075-.304.128-.602.128s-.426-.053-.603-.127c-.214-.09-.48-.2-.97-.2-.486 0-.752.11-.966.2-.178.073-.306.126-.604.126-.276 0-.5.24-.5.534 0 .296.225.535.5.535.488 0 .755-.11.97-.2.176-.074.304-.127.602-.127s.428.052.605.126c.214.09.48.2.968.2s.755-.11.97-.2c.177-.074.305-.127.603-.127s.426.052.603.126c.214.09.48.2.968.2s.754-.11.968-.2c.177-.073.305-.126.603-.126s.425.052.602.126c.213.09.48.2.967.2s.753-.11.967-.2l.15-.06v1.99l-.15-.06c-.213-.088-.48-.2-.967-.2s-.755.112-.97.2c-.177.075-.305.128-.604.128-.3 0-.427-.053-.604-.127-.213-.09-.48-.2-.967-.2s-.755.11-.97.2c-.176.075-.304.128-.602.128-.3 0-.427-.053-.604-.127-.213-.09-.48-.2-.967-.2s-.754.11-.97.2c-.176.075-.304.128-.603.128-.3 0-.427-.053-.604-.127-.214-.09-.48-.2-.968-.2s-.754.11-.968.2c-.177.075-.305.128-.603.128-.276 0-.5.24-.5.534 0 .295.224.534.5.534.488 0 .755-.11.97-.2.176-.074.304-.127.602-.127s.426.054.603.13c.215.09.48.2.97.2s.753-.11.967-.2c.177-.076.305-.13.604-.13.298 0 .426.055.603.13.213.09.48.2.97.2.485 0 .752-.11.966-.2.175-.075.303-.128.6-.128.3 0 .428.054.605.128.215.09.48.2.97.2s.753-.11.97-.2c.175-.073.303-.126.602-.126.298 0 .426.054.603.128.134.057.292.122.514.162v2.2H1.033c-.55 0-1 .48-1 1.07s.45 1.068 1.003 1.068h29.867c.554 0 1.003-.478 1.003-1.07 0-.59-.45-1.068-1.003-1.068zm-4.116-.21h-.507v-2.193c0-2.332-1.78-4.23-3.97-4.23-2.186 0-3.967 1.898-3.967 4.23v2.192h-.505v-2.193c0-2.628 2.007-4.767 4.474-4.767s4.475 2.138 4.475 4.767v2.192zm-1.51 0h-5.93v-2.193c0-1.742 1.33-3.16 2.966-3.16 1.636 0 2.967 1.418 2.967 3.16v2.192zm3.3 0h-.79v-2.193c0-3.218-2.457-5.836-5.478-5.836-3.02 0-5.477 2.62-5.477 5.836v2.192h-.814v-10.15h1.216v1.267h1.003v-1.267h.87v1.267h1.002v-1.267h.87v1.267h1.005v-1.267h.87v1.267h1.004v-1.267h.87v1.267h1.005v-1.267h.87v1.267h1.004v-1.267h.97v10.153zm-23.13-9.26l.223-.193 1.358-.426.47-.15.184-.107.087-.1.75-1.144 1.967-.405c.08-.015.153-.05.216-.104l1.502-1.262 2.13-.284.065-.013 1.61-.45.713.238.563.186v2.257H15.89c-.175-.32-.498-.535-.87-.535-.553 0-1.002.48-1.002 1.07v1.903H4.89l.56-.478zm16.524-9.923l.338-.02.338.02c.21.53.424 1.433.46 2.716h-1.593c.04-1.28.25-2.185.46-2.715zm4.34 7.962h-.795v-2.21c-.02-.43-.354-.775-.764-.775-.41 0-.745.344-.764.776v2.208h-.902v-2.21c-.016-.43-.35-.775-.76-.775-.41 0-.745.345-.764.777v2.208h-.902v-2.21c-.02-.43-.353-.775-.763-.775-.41 0-.744.345-.763.777v2.208h-.85V92.29h8.032v4.175zM25.25 91.22h-1.14c-.024-.797-.117-1.597-.283-2.29.757.484 1.295 1.318 1.417 2.29zm-5.277-8.055h1.767V84.4h-1.766v-1.234zm.82 5.765c-.165.693-.258 1.493-.282 2.29h-1.133c.122-.972.66-1.806 1.418-2.29z" fill="#fff"/><path d="M7.517 44.048c.267-.24.646-.244.917-.036l.006.015c.082.188.26.31.455.31h.057c.195 0 .372-.12.455-.31l.006-.015c.27-.208.65-.203.916.036.21.19.525.16.703-.066.178-.226.15-.563-.062-.753-.593-.536-1.425-.57-2.05-.158-.625-.415-1.457-.378-2.05.154-.21.19-.24.526-.06.752.176.225.492.255.705.065m2.892 2.382c.177.226.493.256.706.066.267-.24.646-.243.917-.035l.008.015c.08.188.26.308.454.308h.058c.196 0 .373-.12.456-.307l.006-.014c.27-.208.65-.203.916.036.212.19.53.16.707-.066.178-.226.15-.563-.062-.753-.593-.532-1.425-.57-2.05-.154-.625-.414-1.457-.377-2.05.155-.21.19-.24.527-.06.753m-8.778 6.3H5.3c.266 0 .524-.106.725-.295.237-.222.373-.542.373-.878l-.005-.102h1.742c.307 0 .604-.12.835-.337.272-.257.43-.625.43-1.01 0-.386-.157-.754-.43-1.01-.23-.216-.527-.336-.834-.336h-5.16c-.697 0-1.264.605-1.264 1.347l.027.276h-.11c-.607 0-1.1.525-1.1 1.17 0 .645.494 1.17 1.1 1.17zm0-1.274H2.98c.276 0 .5-.24.5-.534 0-.294-.225-.533-.502-.533-.144 0-.26-.126-.26-.28 0-.153.117-.277.26-.277h5.16c.08 0 .138.038.172.07.033.03.09.1.09.207 0 .107-.057.175-.09.207-.034.032-.09.07-.172.07h-2.84c-.277 0-.502.24-.502.534 0 .297.225.536.502.536H5.3l.063.026.033.077-.033.075-.063.026H1.634c-.053 0-.095-.046-.095-.102 0-.056.04-.102.09-.102zM30.902 67.9h-.315V57c0-.59-.45-1.07-1.003-1.07-.37 0-.694.216-.868.535H27.32V52.29h.242c.277 0 .502-.24.502-.534 0-.295-.225-.534-.502-.534h-.297c-.19-2.57-2.112-4.63-4.52-4.853v-3.74c0-.297-.225-.536-.502-.536h-2.77c-.277 0-.502.24-.502.534v2.302c0 .295.23.534.506.534h2.27v.913c-2.344.286-4.195 2.316-4.382 4.837h-.422c-.276 0-.5.24-.5.535 0 .294.224.533.5.533h.346v.8l-1.116-.368c-.09-.03-.186-.033-.277-.007l-1.712.48-2.234.3c-.09.012-.178.05-.25.11l-1.515 1.276-2.047.42c-.128.028-.242.106-.317.22l-.762 1.168-1.753.55-.172.096-1.467 1.253c-.096.084-.154.198-.176.32H2.46c-.277 0-.502.24-.502.535 0 .295.225.534.502.534h11.56v1.535c-.223.04-.38.105-.517.16-.178.075-.306.128-.604.128-.3 0-.427-.053-.604-.127-.214-.088-.48-.2-.968-.2s-.754.112-.968.2c-.177.075-.305.128-.603.128s-.426-.053-.603-.127c-.21-.088-.48-.2-.965-.2s-.755.112-.97.2c-.176.075-.304.128-.602.128s-.426-.053-.603-.127c-.214-.09-.48-.2-.97-.2-.486 0-.752.11-.966.2-.178.073-.306.126-.604.126-.276 0-.5.24-.5.534 0 .296.225.535.5.535.488 0 .755-.11.97-.2.176-.074.304-.127.602-.127s.428.052.605.126c.214.09.48.2.968.2s.755-.11.97-.2c.177-.074.305-.127.603-.127s.426.052.603.126c.214.09.48.2.968.2s.754-.11.968-.2c.177-.073.305-.126.603-.126s.425.052.602.126c.213.09.48.2.967.2s.753-.11.967-.2l.15-.06v1.99l-.15-.06c-.213-.088-.48-.2-.967-.2s-.755.112-.97.2c-.177.075-.305.128-.604.128-.3 0-.427-.053-.604-.127-.213-.09-.48-.2-.967-.2s-.755.11-.97.2c-.176.075-.304.128-.602.128-.3 0-.427-.053-.604-.127-.213-.09-.48-.2-.967-.2s-.754.11-.97.2c-.176.075-.304.128-.603.128-.3 0-.427-.053-.604-.127-.214-.09-.48-.2-.968-.2s-.754.11-.968.2c-.177.075-.305.128-.603.128-.276 0-.5.24-.5.534 0 .295.224.534.5.534.488 0 .755-.11.97-.2.176-.074.304-.127.602-.127s.426.054.603.13c.215.09.48.2.97.2s.753-.11.967-.2c.177-.076.305-.13.604-.13.298 0 .426.055.603.13.213.09.48.2.97.2.485 0 .752-.11.966-.2.175-.075.303-.128.6-.128.3 0 .428.054.605.128.215.09.48.2.97.2s.753-.11.97-.2c.175-.073.303-.126.602-.126.298 0 .426.054.603.128.134.057.292.122.514.162v2.2H1.033c-.55 0-1 .48-1 1.07s.45 1.068 1.003 1.068h29.867c.554 0 1.003-.478 1.003-1.07 0-.59-.45-1.068-1.003-1.068zm-4.115-.21h-.505v-2.193c0-2.332-1.78-4.23-3.97-4.23-2.187 0-3.968 1.898-3.968 4.23v2.192h-.505v-2.196c0-2.628 2.003-4.767 4.47-4.767s4.474 2.137 4.474 4.766v2.192zm-1.508 0h-5.936v-2.193c0-1.742 1.33-3.16 2.966-3.16 1.636 0 2.967 1.418 2.967 3.16v2.192zm3.3 0h-.79v-2.193c0-3.218-2.46-5.836-5.48-5.836-3.02 0-5.478 2.62-5.478 5.84v2.19h-.814V57.537h1.215v1.267h1.003v-1.267h.87v1.267h1.002v-1.267h.87v1.267h1.004v-1.267h.87v1.267h1.004v-1.267h.872v1.267h1.003v-1.267h.87v1.267h1.005v-1.267h.97V67.69zM5.45 58.427l.224-.192 1.358-.426.47-.15.183-.108.087-.1.748-1.144 1.968-.405c.08-.016.153-.052.216-.105l1.502-1.262 2.13-.284.065-.013 1.61-.45.714.237.563.186v2.256H15.89c-.175-.32-.498-.536-.87-.536-.553 0-1.002.48-1.002 1.07v1.903H4.89l.56-.478zm16.525-9.922l.338-.02.338.02c.21.53.425 1.433.46 2.716H21.52c.04-1.28.25-2.183.46-2.713zm4.34 7.962h-.795v-2.21c-.02-.43-.353-.775-.763-.775-.41 0-.745.344-.764.776v2.208h-.902v-2.21c-.015-.43-.35-.775-.76-.775-.41 0-.744.347-.763.78v2.207h-.902v-2.21c-.02-.43-.353-.775-.763-.775-.41 0-.745.345-.764.777v2.207h-.85V52.29h8.032v4.175zM25.25 51.22h-1.14c-.024-.797-.117-1.597-.283-2.29.757.484 1.295 1.318 1.417 2.29zm-5.277-8.055h1.767V44.4h-1.766v-1.234zm.82 5.765c-.165.693-.258 1.493-.282 2.29h-1.133c.122-.972.66-1.806 1.418-2.29z" fill="#67737B"/><path d="M7.517 4.048c.267-.24.646-.244.917-.036l.006.015c.082.188.26.31.455.31h.057c.195 0 .372-.12.455-.31l.006-.015c.27-.208.65-.203.916.036.21.19.525.16.703-.066.178-.226.15-.563-.062-.753-.593-.536-1.425-.57-2.05-.158-.625-.415-1.457-.378-2.05.154-.21.19-.24.526-.06.752.176.225.492.255.705.065M10.41 6.43c.177.226.493.256.706.066.267-.24.646-.244.917-.036l.006.015c.08.188.26.308.45.308h.058c.195 0 .372-.12.455-.308l.006-.015c.27-.208.65-.203.916.036.212.19.53.16.707-.066.178-.226.15-.563-.062-.753-.593-.532-1.425-.57-2.05-.154-.625-.415-1.457-.378-2.05.154-.21.19-.24.527-.06.753m-8.777 6.3H5.3c.266 0 .524-.105.725-.294.237-.222.373-.542.373-.878l-.005-.102h1.742c.307 0 .604-.12.835-.337.272-.26.43-.628.43-1.01 0-.39-.157-.757-.43-1.01-.23-.22-.527-.34-.834-.34h-5.16c-.697 0-1.264.605-1.264 1.347l.027.276h-.11c-.607 0-1.1.525-1.1 1.17 0 .645.494 1.17 1.1 1.17zm0-1.273h1.344c.277 0 .502-.24.502-.534h-.004c0-.295-.225-.534-.502-.534-.144 0-.26-.128-.26-.28 0-.154.117-.278.26-.278h5.16c.08 0 .138.038.172.07.033.03.09.1.09.207 0 .11-.057.176-.09.21-.034.03-.09.07-.172.07H5.298c-.277 0-.502.24-.502.532 0 .295.225.534.502.534H5.3l.063.026.033.076-.033.074-.063.026H1.634c-.053 0-.095-.045-.095-.1 0-.057.04-.103.09-.103zM30.903 27.9h-.316V17c0-.59-.45-1.07-1.003-1.07-.37 0-.694.216-.868.535H27.32V12.29h.242c.277 0 .502-.24.502-.534 0-.295-.225-.534-.502-.534h-.297c-.19-2.57-2.112-4.63-4.52-4.853V2.63c0-.295-.225-.534-.502-.534h-2.77c-.277 0-.502.24-.502.534v2.303c0 .295.23.534.506.534h2.27v.913c-2.344.287-4.195 2.317-4.382 4.838h-.422c-.276 0-.5.24-.5.535 0 .295.224.534.5.534h.346v.8l-1.116-.368c-.09-.03-.186-.035-.277-.01l-1.712.48-2.234.3c-.09.012-.178.05-.25.11l-1.515 1.276-2.047.42c-.128.028-.242.106-.317.22l-.762 1.168-1.753.55-.172.096-1.467 1.254c-.096.083-.154.197-.176.318H2.46c-.277 0-.502.24-.502.535 0 .295.225.534.502.534h11.56v1.538c-.223.04-.38.105-.517.16-.178.075-.306.128-.604.128-.3 0-.427-.053-.604-.127-.214-.09-.48-.2-.968-.2s-.754.11-.968.2c-.177.074-.305.127-.603.127s-.426-.053-.603-.127c-.21-.09-.48-.2-.965-.2s-.755.11-.97.2c-.176.074-.304.127-.602.127s-.426-.053-.603-.127c-.214-.09-.48-.2-.97-.2-.486 0-.752.11-.966.2-.178.074-.306.127-.604.127-.276 0-.5.24-.5.534 0 .298.225.537.5.537.488 0 .755-.11.97-.2.176-.074.304-.127.602-.127s.428.05.605.125c.214.09.48.2.968.2s.755-.11.97-.2c.177-.074.305-.127.603-.127s.426.052.603.126c.214.09.48.2.968.2s.754-.11.968-.2c.177-.074.305-.127.603-.127s.425.052.602.126c.213.09.48.2.967.2s.753-.11.967-.2l.15-.06v1.99l-.15-.06c-.213-.088-.48-.2-.967-.2s-.755.112-.97.2c-.177.075-.305.128-.604.128-.3 0-.427-.05-.604-.125-.213-.09-.48-.2-.967-.2s-.755.11-.97.2c-.176.074-.304.127-.602.127-.3 0-.427-.052-.604-.126-.213-.09-.48-.2-.967-.2s-.754.11-.97.2c-.176.074-.304.127-.603.127-.3 0-.427-.052-.604-.126-.214-.09-.48-.2-.968-.2s-.754.11-.968.2c-.177.074-.305.127-.603.127-.276 0-.5.24-.5.535 0 .294.224.533.5.533.488 0 .755-.11.97-.2.176-.075.304-.128.602-.128s.426.054.603.128c.215.09.48.2.97.2s.753-.11.967-.2c.177-.074.305-.127.604-.127.298 0 .426.054.603.128.213.09.48.2.97.2.485 0 .752-.11.966-.2.175-.073.303-.126.6-.126.3 0 .428.054.605.128.215.09.48.2.97.2s.753-.11.97-.2c.175-.074.303-.127.602-.127.298 0 .426.053.603.127.134.057.292.122.514.162v2.2H1.033c-.55 0-1 .48-1 1.07s.45 1.067 1.003 1.067h29.867c.554 0 1.003-.478 1.003-1.07 0-.59-.45-1.068-1.003-1.068zm-4.116-.21h-.505v-2.193c0-2.332-1.78-4.23-3.97-4.23-2.187 0-3.968 1.898-3.968 4.23v2.192h-.505v-2.196c0-2.628 2.003-4.767 4.47-4.767s4.474 2.137 4.474 4.766v2.192zm-1.508 0h-5.936v-2.193c0-1.742 1.33-3.16 2.966-3.16 1.636 0 2.967 1.418 2.967 3.16v2.192zm3.3 0h-.79v-2.193c0-3.218-2.46-5.836-5.48-5.836-3.02 0-5.478 2.62-5.478 5.84v2.19h-.814V17.537h1.215v1.267h1.003v-1.267h.87v1.267h1.002v-1.267h.87v1.267h1.004v-1.267h.87v1.267h1.004v-1.267h.872v1.267h1.003v-1.267h.87v1.267h1.005v-1.267h.97V27.69zM5.45 18.427l.224-.192 1.358-.426.47-.15.183-.108.087-.1.748-1.144 1.968-.405c.08-.016.153-.052.216-.105l1.502-1.262 2.13-.284.065-.013 1.61-.45.714.237.563.186v2.256H15.89c-.175-.32-.498-.536-.87-.536-.553 0-1.002.48-1.002 1.07v1.903H4.89l.56-.478zm16.525-9.922l.338-.02.338.02c.21.53.425 1.433.46 2.716H21.52c.04-1.28.25-2.183.46-2.713zm4.34 7.962h-.795v-2.21c-.02-.43-.353-.775-.763-.775-.41 0-.745.344-.764.776v2.208h-.902v-2.21c-.015-.43-.35-.775-.76-.775-.41 0-.744.347-.763.78v2.207h-.902v-2.21c-.02-.43-.353-.775-.763-.775-.41 0-.745.345-.764.777v2.207h-.85V12.29h8.032v4.175zM25.25 11.22h-1.14c-.024-.797-.117-1.597-.283-2.29.757.484 1.295 1.318 1.417 2.29zm-5.277-8.055h1.767V4.4h-1.766V3.166zm.82 5.765c-.165.693-.258 1.493-.282 2.29h-1.133c.122-.972.66-1.806 1.418-2.29z" fill="#3A434E"/></g></svg>