<svg width="32" height="232" viewBox="0 0 32 232" xmlns="http://www.w3.org/2000/svg" xmlns:sketch="http://www.bohemiancoding.com/sketch/ns"><title>nicaragua</title><desc>Created with Sketch.</desc><g sketch:type="MSPage" fill="none"><g sketch:type="MSShapeGroup"><path d="M7.517 124.048c.267-.239.646-.244.917-.036l.006.015c.082.188.26.309.455.309h.057c.195 0 .372-.12.455-.309l.006-.015c.27-.208.65-.203.916.036.212.19.529.16.707-.066.178-.226.151-.563-.062-.753-.594-.532-1.426-.569-2.051-.154-.625-.415-1.457-.378-2.051.154-.212.19-.24.527-.062.753.178.226.494.256.707.066m2.892 2.382c.178.226.494.256.707.066.267-.239.646-.244.917-.036l.006.015c.082.188.26.308.455.308h.057c.195 0 .372-.12.455-.308l.006-.015c.27-.208.65-.203.916.036.212.19.529.16.707-.066.178-.226.151-.563-.062-.753-.594-.532-1.426-.569-2.051-.154-.625-.415-1.457-.378-2.051.154-.212.19-.24.527-.062.753m-8.776 6.299h3.666c.267 0 .525-.104.726-.293.237-.222.373-.542.373-.878l-.005-.102h1.742c.307 0 .604-.12.835-.337.272-.256.429-.624.429-1.009 0-.386-.156-.754-.428-1.009-.231-.217-.528-.337-.835-.337h-5.16c-.697 0-1.264.604-1.264 1.346l.027.277h-.106c-.606 0-1.098.525-1.098 1.17 0 .645.493 1.17 1.098 1.17zm0-1.272h1.344c.277 0 .502-.239.502-.534h-.002c0-.295-.225-.534-.502-.534-.144 0-.26-.124-.26-.277 0-.153.117-.277.26-.277h5.16c.08 0 .138.038.172.07.033.031.089.099.089.207 0 .108-.056.176-.089.208-.034.032-.091.07-.172.07h-2.837c-.277 0-.502.239-.502.534 0 .295.225.534.502.534h.002l.063.026.033.076-.033.076-.063.026h-3.666c-.053 0-.095-.046-.095-.102 0-.056.043-.102.095-.102zm29.27 16.442h-.316v-10.897c0-.59-.449-1.069-1.003-1.069-.371 0-.694.215-.868.534h-1.397v-4.177h.243c.277 0 .502-.239.502-.534 0-.295-.225-.534-.502-.534h-.297c-.19-2.571-2.112-4.631-4.52-4.853v-3.737c0-.295-.225-.534-.502-.534h-2.77c-.277 0-.502.239-.502.534v2.303c0 .295.225.534.502.534h2.269v.914c-2.343.287-4.194 2.317-4.381 4.838h-.423c-.277 0-.502.239-.502.534 0 .295.225.534.502.534h.345v.802l-1.116-.369c-.09-.03-.185-.032-.276-.006l-1.713.48-2.236.298c-.091.012-.177.05-.248.111l-1.516 1.275-2.048.421c-.128.027-.242.105-.317.219l-.763 1.168-1.753.55-.172.096-1.467 1.252c-.097.083-.155.197-.177.318h-1.025c-.277 0-.502.239-.502.534 0 .295.225.534.502.534h11.559v1.537c-.222.04-.38.106-.516.162-.177.074-.305.127-.603.127-.299 0-.426-.053-.603-.127-.214-.089-.481-.2-.968-.2s-.754.111-.968.2c-.177.074-.305.127-.603.127s-.426-.053-.603-.127c-.214-.089-.481-.2-.968-.2s-.754.111-.968.2c-.177.074-.305.127-.603.127s-.426-.053-.603-.127c-.214-.089-.481-.2-.968-.2-.488 0-.754.111-.968.2-.177.074-.305.127-.603.127-.277 0-.501.239-.501.534 0 .295.225.534.501.534.487 0 .754-.111.968-.2.177-.074.305-.127.603-.127s.426.053.603.127c.214.089.481.2.968.2s.754-.111.968-.2c.177-.074.305-.127.603-.127s.426.053.603.127c.214.089.481.2.968.2.488 0 .754-.111.968-.2.177-.074.305-.127.603-.127s.426.053.603.127c.214.089.481.2.968.2s.754-.111.968-.2l.151-.059v1.989l-.151-.059c-.214-.089-.481-.2-.968-.2s-.754.111-.968.2c-.177.074-.305.127-.604.127-.298 0-.426-.053-.603-.127-.214-.089-.481-.2-.968-.2s-.754.111-.968.2c-.177.074-.305.127-.603.127-.299 0-.427-.053-.604-.127-.214-.089-.481-.2-.968-.2-.488 0-.754.111-.969.2-.177.074-.305.127-.604.127-.298 0-.426-.053-.603-.127-.214-.089-.481-.2-.968-.2s-.754.111-.968.2c-.177.074-.305.127-.603.127-.277 0-.502.239-.502.534 0 .295.225.534.502.534.487 0 .754-.111.968-.2.177-.074.305-.127.603-.127s.426.053.603.127c.214.089.481.2.968.2s.754-.111.968-.2c.177-.074.305-.127.604-.127.298 0 .426.053.603.127.214.089.481.2.969.2.487 0 .754-.111.968-.2.177-.074.305-.127.603-.127.299 0 .427.053.604.127.214.089.481.2.968.2.488 0 .754-.111.969-.2.177-.074.305-.127.604-.127.298 0 .426.053.603.127.136.057.294.122.516.162v2.2h-12.979c-.554 0-1.003.479-1.003 1.069s.449 1.069 1.003 1.069h29.867c.554 0 1.003-.478 1.003-1.069 0-.59-.449-1.069-1.003-1.069zm-4.116-.21h-.505v-2.192c0-2.332-1.78-4.229-3.969-4.229-2.188 0-3.969 1.897-3.969 4.229v2.192h-.505v-2.192c0-2.628 2.007-4.767 4.474-4.767s4.474 2.138 4.474 4.767v2.192zm-1.508 0h-5.932v-2.192c0-1.742 1.33-3.16 2.966-3.16 1.635 0 2.966 1.418 2.966 3.16v2.192zm3.302 0h-.791v-2.192c0-3.218-2.457-5.836-5.478-5.836-3.02 0-5.477 2.618-5.477 5.836v2.192h-.814v-10.153h1.215v1.267h1.003v-1.267h.871v1.267h1.003v-1.267h.871v1.267h1.003v-1.267h.871v1.267h1.003v-1.267h.871v1.267h1.003v-1.267h.871v1.267h1.003v-1.267h.972v10.153zm-23.132-9.261l.225-.192 1.358-.426.47-.148.183-.107.087-.1.748-1.144 1.968-.405c.079-.016.153-.052.216-.105l1.502-1.264 2.13-.284.065-.013 1.606-.45.714.236.562.186v2.256h-1.397c-.174-.319-.497-.534-.868-.534-.554 0-1.003.479-1.003 1.069v1.904h-9.125l.56-.478zm16.526-9.922l.338-.021.338.021c.209.53.421 1.433.459 2.716h-1.595c.039-1.282.25-2.186.46-2.716zm4.341 7.962h-.796v-2.209c-.019-.432-.353-.776-.763-.776-.41 0-.745.344-.764.776v2.209h-.902v-2.209c-.019-.432-.353-.776-.763-.776-.41 0-.745.344-.764.776v2.209h-.902v-2.209c-.019-.432-.353-.776-.763-.776-.41 0-.745.344-.764.776v2.209h-.849v-4.176h8.031v4.176zm-1.067-5.246h-1.136c-.024-.798-.117-1.598-.283-2.29.758.483 1.296 1.317 1.418 2.29zm-5.275-8.056h1.767v1.234h-1.767v-1.234zm.821 5.765c-.166.692-.259 1.492-.283 2.29h-1.136c.122-.973.661-1.807 1.418-2.29z" fill="#206FAC"/><path d="M7.517 84.048c.267-.239.646-.244.917-.036l.006.015c.082.188.26.309.455.309h.057c.195 0 .372-.12.455-.309l.006-.015c.27-.208.65-.203.916.036.212.19.529.16.707-.066.178-.226.151-.563-.062-.753-.594-.532-1.426-.569-2.051-.154-.625-.415-1.457-.378-2.051.154-.212.19-.24.527-.062.753.178.226.494.256.707.066m2.892 2.382c.178.226.494.256.707.066.267-.239.646-.244.917-.036l.006.015c.082.188.26.308.455.308h.057c.195 0 .372-.12.455-.308l.006-.015c.27-.208.65-.203.916.036.212.19.529.16.707-.066.178-.226.151-.563-.062-.753-.594-.532-1.426-.569-2.051-.154-.625-.415-1.457-.378-2.051.154-.212.19-.24.527-.062.753m-8.776 6.299h3.666c.267 0 .525-.104.726-.293.237-.222.373-.542.373-.878l-.005-.102h1.742c.307 0 .604-.12.835-.337.272-.256.429-.624.429-1.009 0-.386-.156-.754-.428-1.009-.231-.217-.528-.337-.835-.337h-5.16c-.697 0-1.264.604-1.264 1.346l.027.277h-.106c-.606 0-1.098.525-1.098 1.17 0 .645.493 1.17 1.098 1.17zm0-1.272h1.344c.277 0 .502-.239.502-.534h-.002c0-.295-.225-.534-.502-.534-.144 0-.26-.124-.26-.277 0-.153.117-.277.26-.277h5.16c.08 0 .138.038.172.07.033.031.089.099.089.207 0 .108-.056.176-.089.208-.034.032-.091.07-.172.07h-2.837c-.277 0-.502.239-.502.534 0 .295.225.534.502.534h.002l.063.026.033.076-.033.076-.063.026h-3.666c-.053 0-.095-.046-.095-.102 0-.056.043-.102.095-.102zm29.27 16.442h-.316v-10.897c0-.59-.449-1.069-1.003-1.069-.371 0-.694.215-.868.534h-1.397v-4.177h.243c.277 0 .502-.239.502-.534 0-.295-.225-.534-.502-.534h-.297c-.19-2.571-2.112-4.631-4.52-4.853v-3.737c0-.295-.225-.534-.502-.534h-2.77c-.277 0-.502.239-.502.534v2.303c0 .295.225.534.502.534h2.269v.914c-2.343.287-4.194 2.317-4.381 4.838h-.423c-.277 0-.502.239-.502.534 0 .295.225.534.502.534h.345v.802l-1.116-.369c-.09-.03-.185-.032-.276-.006l-1.713.48-2.236.298c-.091.012-.177.05-.248.111l-1.516 1.275-2.048.421c-.128.027-.242.105-.317.219l-.763 1.168-1.753.55-.172.096-1.467 1.252c-.097.083-.155.197-.177.318h-1.025c-.277 0-.502.239-.502.534 0 .295.225.534.502.534h11.559v1.537c-.222.04-.38.106-.516.162-.177.074-.305.127-.603.127-.299 0-.426-.053-.603-.127-.214-.089-.481-.2-.968-.2s-.754.111-.968.2c-.177.074-.305.127-.603.127s-.426-.053-.603-.127c-.214-.089-.481-.2-.968-.2s-.754.111-.968.2c-.177.074-.305.127-.603.127s-.426-.053-.603-.127c-.214-.089-.481-.2-.968-.2-.488 0-.754.111-.968.2-.177.074-.305.127-.603.127-.277 0-.501.239-.501.534 0 .295.225.534.501.534.487 0 .754-.111.968-.2.177-.074.305-.127.603-.127s.426.053.603.127c.214.089.481.2.968.2s.754-.111.968-.2c.177-.074.305-.127.603-.127s.426.053.603.127c.214.089.481.2.968.2.488 0 .754-.111.968-.2.177-.074.305-.127.603-.127s.426.053.603.127c.214.089.481.2.968.2s.754-.111.968-.2l.151-.059v1.989l-.151-.059c-.214-.089-.481-.2-.968-.2s-.754.111-.968.2c-.177.074-.305.127-.604.127-.298 0-.426-.053-.603-.127-.214-.089-.481-.2-.968-.2s-.754.111-.968.2c-.177.074-.305.127-.603.127-.299 0-.427-.053-.604-.127-.214-.089-.481-.2-.968-.2-.488 0-.754.111-.969.2-.177.074-.305.127-.604.127-.298 0-.426-.053-.603-.127-.214-.089-.481-.2-.968-.2s-.754.111-.968.2c-.177.074-.305.127-.603.127-.277 0-.502.239-.502.534 0 .295.225.534.502.534.487 0 .754-.111.968-.2.177-.074.305-.127.603-.127s.426.053.603.127c.214.089.481.2.968.2s.754-.111.968-.2c.177-.074.305-.127.604-.127.298 0 .426.053.603.127.214.089.481.2.969.2.487 0 .754-.111.968-.2.177-.074.305-.127.603-.127.299 0 .427.053.604.127.214.089.481.2.968.2.488 0 .754-.111.969-.2.177-.074.305-.127.604-.127.298 0 .426.053.603.127.136.057.294.122.516.162v2.2h-12.979c-.554 0-1.003.479-1.003 1.069s.449 1.069 1.003 1.069h29.867c.554 0 1.003-.478 1.003-1.069 0-.59-.449-1.069-1.003-1.069zm-4.116-.21h-.505v-2.192c0-2.332-1.78-4.229-3.969-4.229-2.188 0-3.969 1.897-3.969 4.229v2.192h-.505v-2.192c0-2.628 2.007-4.767 4.474-4.767s4.474 2.138 4.474 4.767v2.192zm-1.508 0h-5.932v-2.192c0-1.742 1.33-3.16 2.966-3.16 1.635 0 2.966 1.418 2.966 3.16v2.192zm3.302 0h-.791v-2.192c0-3.218-2.457-5.836-5.478-5.836-3.02 0-5.477 2.618-5.477 5.836v2.192h-.814v-10.153h1.215v1.267h1.003v-1.267h.871v1.267h1.003v-1.267h.871v1.267h1.003v-1.267h.871v1.267h1.003v-1.267h.871v1.267h1.003v-1.267h.871v1.267h1.003v-1.267h.972v10.153zm-23.132-9.261l.225-.192 1.358-.426.47-.148.183-.107.087-.1.748-1.144 1.968-.405c.079-.016.153-.052.216-.105l1.502-1.264 2.13-.284.065-.013 1.606-.45.714.236.562.186v2.256h-1.397c-.174-.319-.497-.534-.868-.534-.554 0-1.003.479-1.003 1.069v1.904h-9.125l.56-.478zm16.526-9.922l.338-.021.338.021c.209.53.421 1.433.459 2.716h-1.595c.039-1.282.25-2.186.46-2.716zm4.341 7.962h-.796v-2.209c-.019-.432-.353-.776-.763-.776-.41 0-.745.344-.764.776v2.209h-.902v-2.209c-.019-.432-.353-.776-.763-.776-.41 0-.745.344-.764.776v2.209h-.902v-2.209c-.019-.432-.353-.776-.763-.776-.41 0-.745.344-.764.776v2.209h-.849v-4.176h8.031v4.176zm-1.067-5.246h-1.136c-.024-.798-.117-1.598-.283-2.29.758.483 1.296 1.317 1.418 2.29zm-5.275-8.056h1.767v1.234h-1.767v-1.234zm.821 5.765c-.166.692-.259 1.492-.283 2.29h-1.136c.122-.973.661-1.807 1.418-2.29z" fill="#fff"/><path d="M7.517 44.048c.267-.239.646-.244.917-.036l.006.015c.082.188.26.309.455.309h.057c.195 0 .372-.12.455-.309l.006-.015c.27-.208.65-.203.916.036.212.19.529.16.707-.066.178-.226.151-.563-.062-.753-.594-.532-1.426-.569-2.051-.154-.625-.415-1.457-.378-2.051.154-.212.19-.24.527-.062.753.178.226.494.256.707.066m2.892 2.382c.178.226.494.256.707.066.267-.239.646-.244.917-.036l.006.015c.082.188.26.308.455.308h.057c.195 0 .372-.12.455-.308l.006-.015c.27-.208.65-.203.916.036.212.19.529.16.707-.066.178-.226.151-.563-.062-.753-.594-.532-1.426-.569-2.051-.154-.625-.415-1.457-.378-2.051.154-.212.19-.24.527-.062.753m-8.776 6.299h3.666c.267 0 .525-.104.726-.293.237-.222.373-.542.373-.878l-.005-.102h1.742c.307 0 .604-.12.835-.337.272-.256.429-.624.429-1.009 0-.386-.156-.754-.428-1.009-.231-.217-.528-.337-.835-.337h-5.16c-.697 0-1.264.604-1.264 1.346l.027.277h-.106c-.606 0-1.098.525-1.098 1.17 0 .645.493 1.17 1.098 1.17zm0-1.272h1.344c.277 0 .502-.239.502-.534h-.002c0-.295-.225-.534-.502-.534-.144 0-.26-.124-.26-.277 0-.153.117-.277.26-.277h5.16c.08 0 .138.038.172.07.033.031.089.099.089.207 0 .108-.056.176-.089.208-.034.032-.091.07-.172.07h-2.837c-.277 0-.502.239-.502.534 0 .295.225.534.502.534h.002l.063.026.033.076-.033.076-.063.026h-3.666c-.053 0-.095-.046-.095-.102 0-.056.043-.102.095-.102zm29.27 16.442h-.316v-10.897c0-.59-.449-1.069-1.003-1.069-.371 0-.694.215-.868.534h-1.397v-4.177h.243c.277 0 .502-.239.502-.534 0-.295-.225-.534-.502-.534h-.297c-.19-2.571-2.112-4.631-4.52-4.853v-3.737c0-.295-.225-.534-.502-.534h-2.77c-.277 0-.502.239-.502.534v2.303c0 .295.225.534.502.534h2.269v.914c-2.343.287-4.194 2.317-4.381 4.838h-.423c-.277 0-.502.239-.502.534 0 .295.225.534.502.534h.345v.802l-1.116-.369c-.09-.03-.185-.032-.276-.006l-1.713.48-2.236.298c-.091.012-.177.05-.248.111l-1.516 1.275-2.048.421c-.128.027-.242.105-.317.219l-.763 1.168-1.753.55-.172.096-1.467 1.252c-.097.083-.155.197-.177.318h-1.025c-.277 0-.502.239-.502.534 0 .295.225.534.502.534h11.559v1.537c-.222.04-.38.106-.516.162-.177.074-.305.127-.603.127-.299 0-.426-.053-.603-.127-.214-.089-.481-.2-.968-.2s-.754.111-.968.2c-.177.074-.305.127-.603.127s-.426-.053-.603-.127c-.214-.089-.481-.2-.968-.2s-.754.111-.968.2c-.177.074-.305.127-.603.127s-.426-.053-.603-.127c-.214-.089-.481-.2-.968-.2-.488 0-.754.111-.968.2-.177.074-.305.127-.603.127-.277 0-.501.239-.501.534 0 .295.225.534.501.534.487 0 .754-.111.968-.2.177-.074.305-.127.603-.127s.426.053.603.127c.214.089.481.2.968.2s.754-.111.968-.2c.177-.074.305-.127.603-.127s.426.053.603.127c.214.089.481.2.968.2.488 0 .754-.111.968-.2.177-.074.305-.127.603-.127s.426.053.603.127c.214.089.481.2.968.2s.754-.111.968-.2l.151-.059v1.989l-.151-.059c-.214-.089-.481-.2-.968-.2s-.754.111-.968.2c-.177.074-.305.127-.604.127-.298 0-.426-.053-.603-.127-.214-.089-.481-.2-.968-.2s-.754.111-.968.2c-.177.074-.305.127-.603.127-.299 0-.427-.053-.604-.127-.214-.089-.481-.2-.968-.2-.488 0-.754.111-.969.2-.177.074-.305.127-.604.127-.298 0-.426-.053-.603-.127-.214-.089-.481-.2-.968-.2s-.754.111-.968.2c-.177.074-.305.127-.603.127-.277 0-.502.239-.502.534 0 .295.225.534.502.534.487 0 .754-.111.968-.2.177-.074.305-.127.603-.127s.426.053.603.127c.214.089.481.2.968.2s.754-.111.968-.2c.177-.074.305-.127.604-.127.298 0 .426.053.603.127.214.089.481.2.969.2.487 0 .754-.111.968-.2.177-.074.305-.127.603-.127.299 0 .427.053.604.127.214.089.481.2.968.2.488 0 .754-.111.969-.2.177-.074.305-.127.604-.127.298 0 .426.053.603.127.136.057.294.122.516.162v2.2h-12.979c-.554 0-1.003.479-1.003 1.069s.449 1.069 1.003 1.069h29.867c.554 0 1.003-.478 1.003-1.069 0-.59-.449-1.069-1.003-1.069zm-4.116-.21h-.505v-2.192c0-2.332-1.78-4.229-3.969-4.229-2.188 0-3.969 1.897-3.969 4.229v2.192h-.505v-2.192c0-2.628 2.007-4.767 4.474-4.767s4.474 2.138 4.474 4.767v2.192zm-1.508 0h-5.932v-2.192c0-1.742 1.33-3.16 2.966-3.16 1.635 0 2.966 1.418 2.966 3.16v2.192zm3.302 0h-.791v-2.192c0-3.218-2.457-5.836-5.478-5.836-3.02 0-5.477 2.618-5.477 5.836v2.192h-.814v-10.153h1.215v1.267h1.003v-1.267h.871v1.267h1.003v-1.267h.871v1.267h1.003v-1.267h.871v1.267h1.003v-1.267h.871v1.267h1.003v-1.267h.871v1.267h1.003v-1.267h.972v10.153zm-23.132-9.261l.225-.192 1.358-.426.47-.148.183-.107.087-.1.748-1.144 1.968-.405c.079-.016.153-.052.216-.105l1.502-1.264 2.13-.284.065-.013 1.606-.45.714.236.562.186v2.256h-1.397c-.174-.319-.497-.534-.868-.534-.554 0-1.003.479-1.003 1.069v1.904h-9.125l.56-.478zm16.526-9.922l.338-.021.338.021c.209.53.421 1.433.459 2.716h-1.595c.039-1.282.25-2.186.46-2.716zm4.341 7.962h-.796v-2.209c-.019-.432-.353-.776-.763-.776-.41 0-.745.344-.764.776v2.209h-.902v-2.209c-.019-.432-.353-.776-.763-.776-.41 0-.745.344-.764.776v2.209h-.902v-2.209c-.019-.432-.353-.776-.763-.776-.41 0-.745.344-.764.776v2.209h-.849v-4.176h8.031v4.176zm-1.067-5.246h-1.136c-.024-.798-.117-1.598-.283-2.29.758.483 1.296 1.317 1.418 2.29zm-5.275-8.056h1.767v1.234h-1.767v-1.234zm.821 5.765c-.166.692-.259 1.492-.283 2.29h-1.136c.122-.973.661-1.807 1.418-2.29z" fill="#67737B"/><path d="M7.517 4.048c.267-.239.646-.244.917-.036l.006.015c.082.188.26.309.455.309h.057c.195 0 .372-.12.455-.309l.006-.015c.27-.208.65-.203.916.036.212.19.529.16.707-.066.178-.226.151-.563-.062-.753-.594-.532-1.426-.569-2.051-.154-.625-.415-1.457-.378-2.051.154-.212.19-.24.527-.062.753.178.226.494.256.707.066m2.892 2.382c.178.226.494.256.707.066.267-.239.646-.244.917-.036l.006.015c.082.188.26.308.455.308h.057c.195 0 .372-.12.455-.308l.006-.015c.27-.208.65-.203.916.036.212.19.529.16.707-.066.178-.226.151-.563-.062-.753-.594-.532-1.426-.569-2.051-.154-.625-.415-1.457-.378-2.051.154-.212.19-.24.527-.062.753m-8.776 6.299h3.666c.267 0 .525-.104.726-.293.237-.222.373-.542.373-.878l-.005-.102h1.742c.307 0 .604-.12.835-.337.272-.256.429-.624.429-1.009 0-.386-.156-.754-.428-1.009-.231-.217-.528-.337-.835-.337h-5.16c-.697 0-1.264.604-1.264 1.346l.027.277h-.106c-.606 0-1.098.525-1.098 1.17 0 .645.493 1.17 1.098 1.17zm0-1.272h1.344c.277 0 .502-.239.502-.534h-.002c0-.295-.225-.534-.502-.534-.144 0-.26-.124-.26-.277 0-.153.117-.277.26-.277h5.16c.08 0 .138.038.172.07.033.031.089.099.089.207 0 .108-.056.176-.089.208-.034.032-.091.07-.172.07h-2.837c-.277 0-.502.239-.502.534 0 .295.225.534.502.534h.002l.063.026.033.076-.033.076-.063.026h-3.666c-.053 0-.095-.046-.095-.102 0-.056.043-.102.095-.102zm29.27 16.442h-.316v-10.897c0-.59-.449-1.069-1.003-1.069-.371 0-.694.215-.868.534h-1.397v-4.177h.243c.277 0 .502-.239.502-.534 0-.295-.225-.534-.502-.534h-.297c-.19-2.571-2.112-4.631-4.52-4.853v-3.737c0-.295-.225-.534-.502-.534h-2.77c-.277 0-.502.239-.502.534v2.303c0 .295.225.534.502.534h2.269v.914c-2.343.287-4.194 2.317-4.381 4.838h-.423c-.277 0-.502.239-.502.534 0 .295.225.534.502.534h.345v.802l-1.116-.369c-.09-.03-.185-.032-.276-.006l-1.713.48-2.236.298c-.091.012-.177.05-.248.111l-1.516 1.275-2.048.421c-.128.027-.242.105-.317.219l-.763 1.168-1.753.55-.172.096-1.467 1.252c-.097.083-.155.197-.177.318h-1.025c-.277 0-.502.239-.502.534 0 .295.225.534.502.534h11.559v1.537c-.222.04-.38.106-.516.162-.177.074-.305.127-.603.127-.299 0-.426-.053-.603-.127-.214-.089-.481-.2-.968-.2s-.754.111-.968.2c-.177.074-.305.127-.603.127s-.426-.053-.603-.127c-.214-.089-.481-.2-.968-.2s-.754.111-.968.2c-.177.074-.305.127-.603.127s-.426-.053-.603-.127c-.214-.089-.481-.2-.968-.2-.488 0-.754.111-.968.2-.177.074-.305.127-.603.127-.277 0-.501.239-.501.534 0 .295.225.534.501.534.487 0 .754-.111.968-.2.177-.074.305-.127.603-.127s.426.053.603.127c.214.089.481.2.968.2s.754-.111.968-.2c.177-.074.305-.127.603-.127s.426.053.603.127c.214.089.481.2.968.2.488 0 .754-.111.968-.2.177-.074.305-.127.603-.127s.426.053.603.127c.214.089.481.2.968.2s.754-.111.968-.2l.151-.059v1.989l-.151-.059c-.214-.089-.481-.2-.968-.2s-.754.111-.968.2c-.177.074-.305.127-.604.127-.298 0-.426-.053-.603-.127-.214-.089-.481-.2-.968-.2s-.754.111-.968.2c-.177.074-.305.127-.603.127-.299 0-.427-.053-.604-.127-.214-.089-.481-.2-.968-.2-.488 0-.754.111-.969.2-.177.074-.305.127-.604.127-.298 0-.426-.053-.603-.127-.214-.089-.481-.2-.968-.2s-.754.111-.968.2c-.177.074-.305.127-.603.127-.277 0-.502.239-.502.534 0 .295.225.534.502.534.487 0 .754-.111.968-.2.177-.074.305-.127.603-.127s.426.053.603.127c.214.089.481.2.968.2s.754-.111.968-.2c.177-.074.305-.127.604-.127.298 0 .426.053.603.127.214.089.481.2.969.2.487 0 .754-.111.968-.2.177-.074.305-.127.603-.127.299 0 .427.053.604.127.214.089.481.2.968.2.488 0 .754-.111.969-.2.177-.074.305-.127.604-.127.298 0 .426.053.603.127.136.057.294.122.516.162v2.2h-12.979c-.554 0-1.003.479-1.003 1.069s.449 1.069 1.003 1.069h29.867c.554 0 1.003-.478 1.003-1.069 0-.59-.449-1.069-1.003-1.069zm-4.116-.21h-.505v-2.192c0-2.332-1.78-4.229-3.969-4.229-2.188 0-3.969 1.897-3.969 4.229v2.192h-.505v-2.192c0-2.628 2.007-4.767 4.474-4.767s4.474 2.138 4.474 4.767v2.192zm-1.508 0h-5.932v-2.192c0-1.742 1.33-3.16 2.966-3.16 1.635 0 2.966 1.418 2.966 3.16v2.192zm3.302 0h-.791v-2.192c0-3.218-2.457-5.836-5.478-5.836-3.02 0-5.477 2.618-5.477 5.836v2.192h-.814v-10.153h1.215v1.267h1.003v-1.267h.871v1.267h1.003v-1.267h.871v1.267h1.003v-1.267h.871v1.267h1.003v-1.267h.871v1.267h1.003v-1.267h.871v1.267h1.003v-1.267h.972v10.153zm-23.132-9.261l.225-.192 1.358-.426.47-.148.183-.107.087-.1.748-1.144 1.968-.405c.079-.016.153-.052.216-.105l1.502-1.264 2.13-.284.065-.013 1.606-.45.714.236.562.186v2.256h-1.397c-.174-.319-.497-.534-.868-.534-.554 0-1.003.479-1.003 1.069v1.904h-9.125l.56-.478zm16.526-9.922l.338-.021.338.021c.209.53.421 1.433.459 2.716h-1.595c.039-1.282.25-2.186.46-2.716zm4.341 7.962h-.796v-2.209c-.019-.432-.353-.776-.763-.776-.41 0-.745.344-.764.776v2.209h-.902v-2.209c-.019-.432-.353-.776-.763-.776-.41 0-.745.344-.764.776v2.209h-.902v-2.209c-.019-.432-.353-.776-.763-.776-.41 0-.745.344-.764.776v2.209h-.849v-4.176h8.031v4.176zm-1.067-5.246h-1.136c-.024-.798-.117-1.598-.283-2.29.758.483 1.296 1.317 1.418 2.29zm-5.275-8.056h1.767v1.234h-1.767v-1.234zm.821 5.765c-.166.692-.259 1.492-.283 2.29h-1.136c.122-.973.661-1.807 1.418-2.29z" fill="#3A434E"/></g></g></svg>
