<svg width="32" height="232" viewBox="0 0 32 232" xmlns="http://www.w3.org/2000/svg"><title>nicaragua</title><desc>Created with Sketch.</desc><g fill="none"><path d="M7.517 124.048c.267-.24.646-.244.917-.036l.006.015c.082.188.26.31.455.31h.057c.195 0 .372-.12.455-.31l.006-.015c.27-.208.65-.203.916.036.21.19.528.16.706-.066.178-.226.15-.563-.062-.753-.594-.533-1.426-.57-2.05-.155-.626-.415-1.458-.378-2.052.154-.212.19-.24.526-.062.752.178.226.494.256.707.066m2.892 2.382c.177.226.493.256.706.066.267-.24.646-.244.917-.036l.006.015c.08.188.26.308.454.308h.057c.196 0 .373-.12.456-.308l.006-.015c.27-.208.65-.203.916.036.212.19.53.16.707-.066.178-.226.15-.563-.062-.753-.594-.532-1.426-.57-2.05-.154-.626-.415-1.458-.378-2.052.154-.21.19-.24.527-.06.753m-8.777 6.3H5.3c.266 0 .524-.105.725-.294.237-.222.373-.542.373-.878l-.005-.102h1.742c.307 0 .604-.12.835-.337.272-.257.43-.625.43-1.01 0-.386-.157-.754-.43-1.01-.23-.216-.527-.336-.834-.336h-5.16c-.697 0-1.264.604-1.264 1.346l.027.277h-.107c-.606 0-1.098.525-1.098 1.17 0 .645.493 1.17 1.098 1.17zm0-1.273h1.344c.277 0 .502-.24.502-.534h-.003c0-.295-.225-.534-.502-.534-.144 0-.26-.125-.26-.278 0-.153.117-.277.26-.277h5.16c.08 0 .138.038.172.07.033.03.09.1.09.207 0 .108-.057.176-.09.208-.034.032-.09.07-.172.07H5.298c-.277 0-.502.24-.502.534 0 .295.225.534.502.534H5.3l.063.026.033.076-.033.076-.063.026H1.634c-.053 0-.095-.046-.095-.102 0-.056.042-.102.094-.102zm29.27 16.442h-.316V137c0-.59-.45-1.07-1.003-1.07-.37 0-.694.216-.868.535H27.32v-4.177h.242c.277 0 .502-.24.502-.534 0-.295-.225-.534-.502-.534h-.297c-.19-2.57-2.112-4.63-4.52-4.853v-3.738c0-.295-.225-.534-.502-.534h-2.77c-.277 0-.502.24-.502.534v2.303c0 .295.226.534.503.534h2.27v.913c-2.344.287-4.195 2.317-4.382 4.838h-.422c-.277 0-.502.24-.502.535 0 .295.225.534.502.534h.345v.8l-1.116-.368c-.09-.03-.185-.032-.276-.006l-1.712.48-2.236.298c-.09.012-.177.05-.248.11l-1.516 1.276-2.048.42c-.128.028-.242.106-.317.22l-.763 1.168-1.753.55-.172.096-1.467 1.252c-.097.083-.155.197-.177.318H2.457c-.277 0-.502.24-.502.534 0 .295.225.534.502.534h11.56v1.537c-.223.04-.38.105-.517.16-.178.075-.306.128-.604.128-.3 0-.426-.053-.603-.127-.214-.088-.48-.2-.968-.2s-.754.112-.968.2c-.177.075-.305.128-.603.128s-.426-.053-.603-.127c-.213-.088-.48-.2-.967-.2s-.754.112-.968.2c-.177.075-.305.128-.603.128s-.426-.053-.603-.127c-.215-.088-.482-.2-.97-.2-.487 0-.753.112-.967.2-.177.075-.305.128-.603.128-.277 0-.5.24-.5.534 0 .295.224.534.5.534.487 0 .754-.11.968-.2.177-.074.305-.127.603-.127s.427.052.604.126c.214.09.48.2.968.2s.754-.11.968-.2c.177-.074.305-.127.603-.127s.426.052.603.126c.214.09.48.2.968.2s.754-.11.968-.2c.177-.074.305-.127.603-.127s.426.052.603.126c.214.09.48.2.968.2s.754-.11.968-.2l.15-.06v1.99l-.15-.06c-.214-.088-.48-.2-.968-.2s-.754.112-.968.2c-.177.075-.305.128-.604.128-.298 0-.426-.053-.603-.127-.213-.09-.48-.2-.967-.2s-.754.11-.968.2c-.177.074-.305.127-.603.127-.3 0-.427-.053-.604-.127-.214-.09-.48-.2-.968-.2s-.754.11-.97.2c-.176.074-.304.127-.603.127-.298 0-.426-.053-.603-.127-.214-.09-.48-.2-.968-.2s-.754.11-.968.2c-.177.074-.305.127-.603.127-.277 0-.502.24-.502.534 0 .295.225.534.502.534.487 0 .754-.11.968-.2.177-.074.305-.127.603-.127s.426.053.603.127c.213.09.48.2.967.2s.754-.11.968-.2c.177-.074.305-.127.604-.127.297 0 .425.053.602.127.214.09.48.2.97.2.486 0 .753-.11.967-.2.176-.074.304-.127.602-.127.3 0 .427.053.604.127.214.09.48.2.968.2s.754-.11.97-.2c.176-.074.304-.127.603-.127.298 0 .426.053.603.127.136.057.294.122.516.162v2.2H1.036c-.553 0-1.002.48-1.002 1.07s.45 1.068 1.003 1.068h29.867c.554 0 1.003-.478 1.003-1.07 0-.59-.45-1.068-1.003-1.068zm-4.116-.21h-.505v-2.193c0-2.332-1.78-4.23-3.97-4.23-2.187 0-3.968 1.898-3.968 4.23v2.192h-.505v-2.193c0-2.628 2.006-4.767 4.473-4.767s4.474 2.138 4.474 4.767v2.192zm-1.508 0h-5.933v-2.193c0-1.742 1.33-3.16 2.966-3.16 1.635 0 2.966 1.418 2.966 3.16v2.192zm3.3 0h-.79v-2.193c0-3.218-2.457-5.836-5.478-5.836-3.02 0-5.477 2.62-5.477 5.837v2.192h-.814v-10.154h1.216v1.267h1.003v-1.267h.87v1.267h1.003v-1.267h.87v1.267h1.004v-1.267h.87v1.267h1.004v-1.267h.872v1.267h1.003v-1.267h.87v1.267h1.004v-1.267h.97v10.153zm-23.13-9.262l.224-.192 1.358-.426.47-.148.183-.107.087-.1.748-1.144 1.968-.404c.08-.016.153-.052.216-.105l1.502-1.263 2.13-.284.065-.013 1.607-.45.714.236.563.186v2.256h-1.397c-.174-.32-.497-.534-.868-.534-.554 0-1.003.48-1.003 1.07v1.903H4.89l.56-.478zm16.525-9.922l.338-.02.338.02c.21.53.422 1.433.46 2.716h-1.595c.04-1.282.25-2.186.46-2.716zm4.34 7.962h-.795v-2.21c-.02-.43-.353-.775-.763-.775-.41 0-.745.344-.764.776v2.208h-.902v-2.21c-.018-.43-.352-.775-.762-.775-.41 0-.745.344-.764.776v2.208h-.902v-2.21c-.02-.43-.353-.775-.763-.775-.41 0-.746.344-.765.776v2.208h-.85v-4.176h8.032v4.176zm-1.066-5.246h-1.137c-.024-.798-.117-1.598-.283-2.29.758.483 1.296 1.317 1.418 2.29zm-5.276-8.056h1.767v1.234h-1.766v-1.234zm.82 5.765c-.165.693-.258 1.493-.282 2.29h-1.136c.122-.972.66-1.806 1.418-2.29z" fill="#206FAC"/><path d="M7.517 84.048c.267-.24.646-.244.917-.036l.006.015c.082.188.26.31.455.31h.057c.195 0 .372-.12.455-.31l.006-.015c.27-.208.65-.203.916.036.21.19.528.16.706-.066.178-.226.15-.563-.062-.753-.594-.533-1.426-.57-2.05-.155-.626-.415-1.458-.378-2.052.154-.212.19-.24.526-.062.752.178.226.494.256.707.066m2.892 2.382c.177.226.493.256.706.066.267-.24.646-.244.917-.036l.006.015c.08.188.26.308.454.308h.057c.196 0 .373-.12.456-.308l.006-.015c.27-.208.65-.203.916.036.212.19.53.16.707-.066.178-.226.15-.563-.062-.753-.594-.532-1.426-.57-2.05-.154-.626-.415-1.458-.378-2.052.154-.21.19-.24.527-.06.753m-8.777 6.3H5.3c.266 0 .524-.105.725-.294.237-.222.373-.542.373-.878l-.005-.102h1.742c.307 0 .604-.12.835-.337.272-.257.43-.625.43-1.01 0-.386-.157-.754-.43-1.01-.23-.216-.527-.336-.834-.336h-5.16c-.697 0-1.264.604-1.264 1.346l.027.277h-.107c-.606 0-1.098.525-1.098 1.17 0 .645.493 1.17 1.098 1.17zm0-1.273h1.344c.277 0 .502-.24.502-.534h-.003c0-.295-.225-.534-.502-.534-.144 0-.26-.125-.26-.278 0-.153.117-.277.26-.277h5.16c.08 0 .138.038.172.07.033.03.09.1.09.207 0 .108-.057.176-.09.208-.034.032-.09.07-.172.07H5.298c-.277 0-.502.24-.502.534 0 .295.225.534.502.534H5.3l.063.026.033.076-.033.076-.063.026H1.634c-.053 0-.095-.046-.095-.102 0-.056.042-.102.094-.102zm29.27 16.442h-.316V97c0-.59-.45-1.07-1.003-1.07-.37 0-.694.216-.868.535H27.32V92.29h.242c.277 0 .502-.24.502-.534 0-.295-.225-.534-.502-.534h-.297c-.19-2.57-2.112-4.63-4.52-4.853V82.63c0-.295-.225-.534-.502-.534h-2.77c-.277 0-.502.24-.502.534v2.303c0 .295.226.534.503.534h2.27v.913c-2.344.287-4.195 2.317-4.382 4.838h-.422c-.277 0-.502.24-.502.535 0 .295.225.534.502.534h.345v.8l-1.116-.368c-.09-.03-.185-.032-.276-.006l-1.712.48-2.236.298c-.09.012-.177.05-.248.11l-1.516 1.276-2.048.42c-.128.028-.242.106-.317.22l-.763 1.168-1.753.55-.172.096-1.467 1.252c-.097.083-.155.197-.177.318H2.457c-.277 0-.502.24-.502.534 0 .295.225.534.502.534h11.56v1.537c-.223.04-.38.105-.517.16-.178.075-.306.128-.604.128-.3 0-.426-.053-.603-.127-.214-.088-.48-.2-.968-.2s-.754.112-.968.2c-.177.075-.305.128-.603.128s-.426-.053-.603-.127c-.213-.088-.48-.2-.967-.2s-.754.112-.968.2c-.177.075-.305.128-.603.128s-.426-.053-.603-.127c-.215-.088-.482-.2-.97-.2-.487 0-.753.112-.967.2-.177.075-.305.128-.603.128-.277 0-.5.24-.5.534 0 .295.224.534.5.534.487 0 .754-.11.968-.2.177-.074.305-.127.603-.127s.427.052.604.126c.214.09.48.2.968.2s.754-.11.968-.2c.177-.074.305-.127.603-.127s.426.052.603.126c.214.09.48.2.968.2s.754-.11.968-.2c.177-.074.305-.127.603-.127s.426.052.603.126c.214.09.48.2.968.2s.754-.11.968-.2l.15-.06v1.99l-.15-.06c-.214-.088-.48-.2-.968-.2s-.754.112-.968.2c-.177.075-.305.128-.604.128-.298 0-.426-.053-.603-.127-.213-.09-.48-.2-.967-.2s-.754.11-.968.2c-.177.074-.305.127-.603.127-.3 0-.427-.053-.604-.127-.214-.09-.48-.2-.968-.2s-.754.11-.97.2c-.176.074-.304.127-.603.127-.298 0-.426-.053-.603-.127-.214-.09-.48-.2-.968-.2s-.754.11-.968.2c-.177.074-.305.127-.603.127-.277 0-.502.24-.502.534 0 .295.225.534.502.534.487 0 .754-.11.968-.2.177-.074.305-.127.603-.127s.426.053.603.127c.213.09.48.2.967.2s.754-.11.968-.2c.177-.074.305-.127.604-.127.297 0 .425.053.602.127.214.09.48.2.97.2.486 0 .753-.11.967-.2.176-.074.304-.127.602-.127.3 0 .427.053.604.127.214.09.48.2.968.2s.754-.11.97-.2c.176-.074.304-.127.603-.127.298 0 .426.053.603.127.136.057.294.122.516.162v2.2H1.036c-.553 0-1.002.48-1.002 1.07s.45 1.068 1.003 1.068h29.867c.554 0 1.003-.478 1.003-1.07 0-.59-.45-1.068-1.003-1.068zm-4.116-.21h-.505v-2.193c0-2.332-1.78-4.23-3.97-4.23-2.187 0-3.968 1.898-3.968 4.23v2.192h-.505v-2.193c0-2.628 2.006-4.767 4.473-4.767s4.474 2.138 4.474 4.767v2.192zm-1.508 0h-5.933v-2.193c0-1.742 1.33-3.16 2.966-3.16 1.635 0 2.966 1.418 2.966 3.16v2.192zm3.3 0h-.79v-2.193c0-3.218-2.457-5.836-5.478-5.836-3.02 0-5.477 2.62-5.477 5.837v2.192h-.814V97.535h1.216v1.267h1.003v-1.267h.87v1.267h1.003v-1.267h.87v1.267h1.004v-1.267h.87v1.267h1.004v-1.267h.872v1.267h1.003v-1.267h.87v1.267h1.004v-1.267h.97v10.153zM5.45 98.427l.224-.192 1.358-.426.47-.148.183-.107.087-.1.748-1.144 1.968-.404c.08-.016.153-.052.216-.105l1.502-1.263 2.13-.284.065-.013 1.607-.45.714.236.563.186v2.256h-1.397c-.174-.32-.497-.534-.868-.534-.554 0-1.003.48-1.003 1.07v1.903H4.89l.56-.478zm16.525-9.922l.338-.02.338.02c.21.53.422 1.433.46 2.716h-1.595c.04-1.282.25-2.186.46-2.716zm4.34 7.962h-.795v-2.21c-.02-.43-.353-.775-.763-.775-.41 0-.745.344-.764.776v2.208h-.902v-2.21c-.018-.43-.352-.775-.762-.775-.41 0-.745.344-.764.776v2.208h-.902v-2.21c-.02-.43-.353-.775-.763-.775-.41 0-.746.344-.765.776v2.208h-.85v-4.176h8.032v4.176zm-1.066-5.246h-1.137c-.024-.798-.117-1.598-.283-2.29.758.483 1.296 1.317 1.418 2.29zm-5.276-8.056h1.767V84.4h-1.766v-1.234zm.82 5.765c-.165.693-.258 1.493-.282 2.29h-1.136c.122-.972.66-1.806 1.418-2.29z" fill="#fff"/><path d="M7.517 44.048c.267-.24.646-.244.917-.036l.006.015c.082.188.26.31.455.31h.057c.195 0 .372-.12.455-.31l.006-.015c.27-.208.65-.203.916.036.21.19.528.16.706-.066.178-.226.15-.563-.062-.753-.594-.533-1.426-.57-2.05-.155-.626-.415-1.458-.378-2.052.154-.212.19-.24.526-.062.752.178.226.494.256.707.066m2.892 2.382c.177.226.493.256.706.066.267-.24.646-.244.917-.036l.006.015c.08.188.26.308.454.308h.057c.196 0 .373-.12.456-.308l.006-.015c.27-.208.65-.203.916.036.212.19.53.16.707-.066.178-.226.15-.563-.062-.753-.594-.532-1.426-.57-2.05-.154-.626-.415-1.458-.378-2.052.154-.21.19-.24.527-.06.753m-8.777 6.3H5.3c.266 0 .524-.105.725-.294.237-.222.373-.542.373-.878l-.005-.102h1.742c.307 0 .604-.12.835-.337.272-.257.43-.625.43-1.01 0-.386-.157-.754-.43-1.01-.23-.216-.527-.336-.834-.336h-5.16c-.697 0-1.264.604-1.264 1.346l.027.277h-.107c-.606 0-1.098.525-1.098 1.17 0 .645.493 1.17 1.098 1.17zm0-1.273h1.344c.277 0 .502-.24.502-.534h-.003c0-.295-.225-.534-.502-.534-.144 0-.26-.125-.26-.278 0-.153.117-.277.26-.277h5.16c.08 0 .138.038.172.07.033.03.09.1.09.207 0 .108-.057.176-.09.208-.034.032-.09.07-.172.07H5.298c-.277 0-.502.24-.502.534 0 .295.225.534.502.534H5.3l.063.026.033.076-.033.076-.063.026H1.634c-.053 0-.095-.046-.095-.102 0-.056.042-.102.094-.102zM30.903 67.9h-.316V57c0-.59-.45-1.07-1.003-1.07-.37 0-.694.216-.868.535H27.32V52.29h.242c.277 0 .502-.24.502-.534 0-.295-.225-.534-.502-.534h-.297c-.19-2.57-2.112-4.63-4.52-4.853V42.63c0-.295-.225-.534-.502-.534h-2.77c-.277 0-.502.24-.502.534v2.303c0 .295.226.534.503.534h2.27v.913c-2.344.287-4.195 2.317-4.382 4.838h-.422c-.277 0-.502.24-.502.535 0 .295.225.534.502.534h.345v.8l-1.116-.368c-.09-.03-.185-.032-.276-.006l-1.712.48-2.236.298c-.09.012-.177.05-.248.11l-1.516 1.276-2.048.42c-.128.028-.242.106-.317.22l-.763 1.168-1.753.55-.172.096-1.467 1.252c-.097.083-.155.197-.177.318H2.457c-.277 0-.502.24-.502.534 0 .295.225.534.502.534h11.56v1.537c-.223.04-.38.105-.517.16-.178.075-.306.128-.604.128-.3 0-.426-.053-.603-.127-.214-.088-.48-.2-.968-.2s-.754.112-.968.2c-.177.075-.305.128-.603.128s-.426-.053-.603-.127c-.213-.088-.48-.2-.967-.2s-.754.112-.968.2c-.177.075-.305.128-.603.128s-.426-.053-.603-.127c-.215-.088-.482-.2-.97-.2-.487 0-.753.112-.967.2-.177.075-.305.128-.603.128-.277 0-.5.24-.5.534 0 .295.224.534.5.534.487 0 .754-.11.968-.2.177-.074.305-.127.603-.127s.427.052.604.126c.214.09.48.2.968.2s.754-.11.968-.2c.177-.074.305-.127.603-.127s.426.052.603.126c.214.09.48.2.968.2s.754-.11.968-.2c.177-.074.305-.127.603-.127s.426.052.603.126c.214.09.48.2.968.2s.754-.11.968-.2l.15-.06v1.99l-.15-.06c-.214-.088-.48-.2-.968-.2s-.754.112-.968.2c-.177.075-.305.128-.604.128-.298 0-.426-.053-.603-.127-.213-.09-.48-.2-.967-.2s-.754.11-.968.2c-.177.074-.305.127-.603.127-.3 0-.427-.053-.604-.127-.214-.09-.48-.2-.968-.2s-.754.11-.97.2c-.176.074-.304.127-.603.127-.298 0-.426-.053-.603-.127-.214-.09-.48-.2-.968-.2s-.754.11-.968.2c-.177.074-.305.127-.603.127-.277 0-.502.24-.502.534 0 .295.225.534.502.534.487 0 .754-.11.968-.2.177-.074.305-.127.603-.127s.426.053.603.127c.213.09.48.2.967.2s.754-.11.968-.2c.177-.074.305-.127.604-.127.297 0 .425.053.602.127.214.09.48.2.97.2.486 0 .753-.11.967-.2.176-.074.304-.127.602-.127.3 0 .427.053.604.127.214.09.48.2.968.2s.754-.11.97-.2c.176-.074.304-.127.603-.127.298 0 .426.053.603.127.136.057.294.122.516.162v2.2H1.036c-.553 0-1.002.48-1.002 1.07s.45 1.068 1.003 1.068h29.867c.554 0 1.003-.478 1.003-1.07 0-.59-.45-1.068-1.003-1.068zm-4.116-.21h-.505v-2.193c0-2.332-1.78-4.23-3.97-4.23-2.187 0-3.968 1.898-3.968 4.23v2.192h-.505v-2.193c0-2.628 2.006-4.767 4.473-4.767s4.474 2.138 4.474 4.767v2.192zm-1.508 0h-5.933v-2.193c0-1.742 1.33-3.16 2.966-3.16 1.635 0 2.966 1.418 2.966 3.16v2.192zm3.3 0h-.79v-2.193c0-3.218-2.457-5.836-5.478-5.836-3.02 0-5.477 2.62-5.477 5.837v2.192h-.814V57.535h1.216v1.267h1.003v-1.267h.87v1.267h1.003v-1.267h.87v1.267h1.004v-1.267h.87v1.267h1.004v-1.267h.872v1.267h1.003v-1.267h.87v1.267h1.004v-1.267h.97V67.69zM5.45 58.427l.224-.192 1.358-.426.47-.148.183-.107.087-.1.748-1.144 1.968-.404c.08-.016.153-.052.216-.105l1.502-1.263 2.13-.284.065-.013 1.607-.45.714.236.563.186v2.256h-1.397c-.174-.32-.497-.534-.868-.534-.554 0-1.003.48-1.003 1.07v1.903H4.89l.56-.478zm16.525-9.922l.338-.02.338.02c.21.53.422 1.433.46 2.716h-1.595c.04-1.282.25-2.186.46-2.716zm4.34 7.962h-.795v-2.21c-.02-.43-.353-.775-.763-.775-.41 0-.745.344-.764.776v2.208h-.902v-2.21c-.018-.43-.352-.775-.762-.775-.41 0-.745.344-.764.776v2.208h-.902v-2.21c-.02-.43-.353-.775-.763-.775-.41 0-.746.344-.765.776v2.208h-.85v-4.176h8.032v4.176zm-1.066-5.246h-1.137c-.024-.798-.117-1.598-.283-2.29.758.483 1.296 1.317 1.418 2.29zm-5.276-8.056h1.767V44.4h-1.766v-1.234zm.82 5.765c-.165.693-.258 1.493-.282 2.29h-1.136c.122-.972.66-1.806 1.418-2.29z" fill="#67737B"/><path d="M7.517 4.048c.267-.24.646-.244.917-.036l.006.015c.082.188.26.31.455.31h.057c.195 0 .372-.12.455-.31l.006-.015c.27-.208.65-.203.916.036.21.19.528.16.706-.066.178-.226.15-.563-.062-.753-.594-.533-1.426-.57-2.05-.155-.626-.415-1.458-.378-2.052.154-.212.19-.24.526-.062.752.178.226.494.256.707.066M10.41 6.43c.177.226.493.256.706.066.267-.24.646-.244.917-.036l.006.015c.08.188.26.308.454.308h.057c.196 0 .373-.12.456-.308l.006-.015c.27-.208.65-.203.916.036.212.19.53.16.707-.066.178-.226.15-.563-.062-.753-.594-.532-1.426-.57-2.05-.154-.626-.415-1.458-.378-2.052.154-.21.19-.24.527-.06.753m-8.777 6.3H5.3c.266 0 .524-.105.725-.294.237-.222.373-.542.373-.878l-.005-.102h1.742c.307 0 .604-.12.835-.337.272-.257.43-.625.43-1.01 0-.386-.157-.754-.43-1.01-.23-.216-.527-.336-.834-.336h-5.16c-.697 0-1.264.604-1.264 1.346l.027.277h-.107c-.606 0-1.098.525-1.098 1.17 0 .645.493 1.17 1.098 1.17zm0-1.273h1.344c.277 0 .502-.24.502-.534h-.003c0-.295-.225-.534-.502-.534-.144 0-.26-.125-.26-.278 0-.153.117-.277.26-.277h5.16c.08 0 .138.038.172.07.033.03.09.1.09.207 0 .108-.057.176-.09.208-.034.032-.09.07-.172.07H5.298c-.277 0-.502.24-.502.534 0 .295.225.534.502.534H5.3l.063.026.033.076-.033.076-.063.026H1.634c-.053 0-.095-.046-.095-.102 0-.056.042-.102.094-.102zM30.903 27.9h-.316V17c0-.59-.45-1.07-1.003-1.07-.37 0-.694.216-.868.535H27.32V12.29h.242c.277 0 .502-.24.502-.534 0-.295-.225-.534-.502-.534h-.297c-.19-2.57-2.112-4.63-4.52-4.853V2.63c0-.295-.225-.534-.502-.534h-2.77c-.277 0-.502.24-.502.534v2.303c0 .295.226.534.503.534h2.27v.913c-2.344.287-4.195 2.317-4.382 4.838h-.422c-.277 0-.502.24-.502.535 0 .295.225.534.502.534h.345v.8l-1.116-.368c-.09-.03-.185-.032-.276-.006l-1.712.48-2.236.298c-.09.012-.177.05-.248.11l-1.516 1.276-2.048.42c-.128.028-.242.106-.317.22l-.763 1.168-1.753.55-.172.096-1.467 1.252c-.097.083-.155.197-.177.318H2.457c-.277 0-.502.24-.502.534 0 .295.225.534.502.534h11.56v1.537c-.223.04-.38.105-.517.16-.178.075-.306.128-.604.128-.3 0-.426-.053-.603-.127-.214-.088-.48-.2-.968-.2s-.754.112-.968.2c-.177.075-.305.128-.603.128s-.426-.053-.603-.127c-.213-.088-.48-.2-.967-.2s-.754.112-.968.2c-.177.075-.305.128-.603.128s-.426-.053-.603-.127c-.215-.088-.482-.2-.97-.2-.487 0-.753.112-.967.2-.177.075-.305.128-.603.128-.277 0-.5.24-.5.534 0 .295.224.534.5.534.487 0 .754-.11.968-.2.177-.074.305-.127.603-.127s.427.052.604.126c.214.09.48.2.968.2s.754-.11.968-.2c.177-.074.305-.127.603-.127s.426.052.603.126c.214.09.48.2.968.2s.754-.11.968-.2c.177-.074.305-.127.603-.127s.426.052.603.126c.214.09.48.2.968.2s.754-.11.968-.2l.15-.06v1.99l-.15-.06c-.214-.088-.48-.2-.968-.2s-.754.112-.968.2c-.177.075-.305.128-.604.128-.298 0-.426-.053-.603-.127-.213-.09-.48-.2-.967-.2s-.754.11-.968.2c-.177.074-.305.127-.603.127-.3 0-.427-.053-.604-.127-.214-.09-.48-.2-.968-.2s-.754.11-.97.2c-.176.074-.304.127-.603.127-.298 0-.426-.053-.603-.127-.214-.09-.48-.2-.968-.2s-.754.11-.968.2c-.177.074-.305.127-.603.127-.277 0-.502.24-.502.534 0 .295.225.534.502.534.487 0 .754-.11.968-.2.177-.074.305-.127.603-.127s.426.053.603.127c.213.09.48.2.967.2s.754-.11.968-.2c.177-.074.305-.127.604-.127.297 0 .425.053.602.127.214.09.48.2.97.2.486 0 .753-.11.967-.2.176-.074.304-.127.602-.127.3 0 .427.053.604.127.214.09.48.2.968.2s.754-.11.97-.2c.176-.074.304-.127.603-.127.298 0 .426.053.603.127.136.057.294.122.516.162v2.2H1.036c-.553 0-1.002.48-1.002 1.07s.45 1.068 1.003 1.068h29.867c.554 0 1.003-.478 1.003-1.07 0-.59-.45-1.068-1.003-1.068zm-4.116-.21h-.505v-2.193c0-2.332-1.78-4.23-3.97-4.23-2.187 0-3.968 1.898-3.968 4.23v2.192h-.505v-2.193c0-2.628 2.006-4.767 4.473-4.767s4.474 2.138 4.474 4.767v2.192zm-1.508 0h-5.933v-2.193c0-1.742 1.33-3.16 2.966-3.16 1.635 0 2.966 1.418 2.966 3.16v2.192zm3.3 0h-.79v-2.193c0-3.218-2.457-5.836-5.478-5.836-3.02 0-5.477 2.62-5.477 5.837v2.192h-.814V17.535h1.216v1.267h1.003v-1.267h.87v1.267h1.003v-1.267h.87v1.267h1.004v-1.267h.87v1.267h1.004v-1.267h.872v1.267h1.003v-1.267h.87v1.267h1.004v-1.267h.97V27.69zM5.45 18.427l.224-.192 1.358-.426.47-.148.183-.107.087-.1.748-1.144 1.968-.404c.08-.016.153-.052.216-.105l1.502-1.263 2.13-.284.065-.013 1.607-.45.714.236.563.186v2.256h-1.397c-.174-.32-.497-.534-.868-.534-.554 0-1.003.48-1.003 1.07v1.903H4.89l.56-.478zm16.525-9.922l.338-.02.338.02c.21.53.422 1.433.46 2.716h-1.595c.04-1.282.25-2.186.46-2.716zm4.34 7.962h-.795v-2.21c-.02-.43-.353-.775-.763-.775-.41 0-.745.344-.764.776v2.208h-.902v-2.21c-.018-.43-.352-.775-.762-.775-.41 0-.745.344-.764.776v2.208h-.902v-2.21c-.02-.43-.353-.775-.763-.775-.41 0-.746.344-.765.776v2.208h-.85v-4.176h8.032v4.176zm-1.066-5.246h-1.137c-.024-.798-.117-1.598-.283-2.29.758.483 1.296 1.317 1.418 2.29zm-5.276-8.056h1.767V4.4h-1.766V3.166zm.82 5.765c-.165.693-.258 1.493-.282 2.29h-1.136c.122-.972.66-1.806 1.418-2.29z" fill="#3A434E"/></g></svg>