<svg width="32" height="232" viewBox="0 0 32 232" xmlns="http://www.w3.org/2000/svg" xmlns:sketch="http://www.bohemiancoding.com/sketch/ns"><title>norway-arctic</title><desc>Created with Sketch.</desc><g sketch:type="MSPage" fill="none"><g sketch:type="MSShapeGroup"><path d="M21.744 126.377h3.45c.251 0 .493-.103.683-.29.223-.221.351-.538.351-.871l-.005-.101h1.639c.289 0 .568-.119.785-.334.256-.254.404-.619.404-1.002s-.147-.748-.403-1.002c-.217-.216-.497-.335-.786-.335h-4.855c-.656 0-1.189.599-1.189 1.336l.026.275h-.099c-.57 0-1.034.521-1.034 1.162 0 .641.464 1.162 1.034 1.162zm0-1.263h1.264c.261 0 .472-.237.472-.53h-.002c0-.293-.211-.53-.472-.53-.135 0-.245-.123-.245-.275 0-.152.11-.275.245-.275h4.855c.076 0 .129.037.162.07.031.031.084.098.084.206 0 .107-.052.175-.084.206-.032.032-.086.069-.161.069h-2.67c-.261 0-.472.238-.472.53 0 .293.211.53.472.53h.002l.059.026.031.075-.031.075-.059.026h-3.45c-.05 0-.09-.045-.09-.101 0-.056.04-.101.09-.101zm9.562 19.239l-4.334-1.323-.247-.037h-6.68c-.141 0-.281.036-.408.104l-3.269 1.76-.066.039-1.279.834c-.185-.286-.436-1.187-.436-2.229 0-.559.333-1.646.709-2.616.402-.013.635-.113.823-.196.167-.073.287-.126.568-.126.281 0 .401.053.568.126.202.089.453.199.911.199.459 0 .71-.11.911-.199.167-.073.287-.126.568-.126.281 0 .401.053.568.126.202.089.453.199.911.199.459 0 .71-.11.911-.199.167-.073.287-.126.568-.126.281 0 .401.053.568.126.202.089.453.199.911.199.459 0 .71-.11.911-.199.167-.073.287-.126.568-.126.261 0 .472-.238.472-.53 0-.293-.211-.53-.472-.53-.459 0-.71.11-.912.199-.166.073-.287.126-.568.126-.281 0-.401-.053-.568-.126-.202-.088-.452-.199-.911-.199s-.709.11-.911.199c-.166.073-.287.126-.568.126-.281 0-.401-.053-.568-.126-.202-.088-.452-.199-.911-.199s-.709.11-.911.199c-.166.073-.287.126-.568.126-.281 0-.401-.053-.568-.126-.202-.088-.452-.199-.911-.199-.282 0-.485.042-.647.094.856-1.021 2.344-2.277 2.753-2.287.443 0 .853-.238 1.179-.563h10.383c.261 0 .472-.238.472-.531 0-.293-.211-.53-.472-.53h-3.879l-3.743-2.843-.145-.074-1.417-.417-.02-.164-.925-3.296-.102-.198-2.739-3.368-.018-.021-2.082-2.295c-.172-.189-.442-.203-.628-.033l-2.169 1.98-2.525.198c-.081.006-.158.036-.226.085l-2.194 1.614-2.401-1.542c-.164-.105-.368-.09-.519.038l-3.243 2.759c-.208.177-.249.509-.091.743.157.233.453.279.661.103l2.994-2.548 3.202 2.056 2.633 4.721c.07.126.183.212.313.24l1.798.38c.077.016.156.011.23-.016l4.158-1.484 4.993 1.469 2.519 1.913h-4.156c.042-.134.065-.259.065-.367 0-.521-.493-.802-.922-.988l-.434-.167c-.189-.32-.661-.624-1.773-.624-1.164 0-1.822.482-2.402.906-.562.411-1.047.766-2.01.766-.782 0-1.102.139-1.441.286-.14.061-.291.126-.505.187h-10.4c-.261 0-.472.238-.472.53 0 .293.211.531.472.531h5.107c-.702.523-1.32 1.294-1.833 2.3-.811 1.591-1.296 3.699-1.296 5.638 0 .571-.352 1.084-.662 1.537-.253.369-.493.72-.543 1.109h-.663c-.521 0-.944.475-.944 1.061s.423 1.061.944 1.061h10.999c.122 0 .242-.027.355-.078l3.001-1.37.119-.066 1.822-1.188 3.042-1.638h6.34l4.212 1.286c.503.154 1.022-.18 1.159-.745.137-.566-.16-1.148-.664-1.302zm-13.919-13.114c-.086-.026-.177-.023-.262.008l-4.175 1.49-1.478-.312-2.586-4.637c-.041-.074-.098-.136-.166-.179l-.254-.163 1.688-1.242 1.662-.13-.999 1.931c-.131.253-.055.578.17.725.075.049.156.072.237.072.163 0 .321-.095.408-.264l1.404-2.712 1.891-1.726 1.772 1.953 2.661 3.271.764 2.72-2.736-.804zm-14.511 15.63c.362-.528.858-1.252.858-2.184 0-3.1 1.458-7.688 4.586-7.688 2.562 0 3.213-.282 3.736-.509.298-.129.495-.215 1.102-.215 1.244 0 1.924-.498 2.525-.938.539-.394 1.004-.735 1.887-.735.527 0 .846.089.965.15.046.175.171.316.335.364.309.09.647.228.831.335-.143.301-.526.799-.908.799-1.064 0-3.702 2.615-4.166 3.723-.231.551-.984 2.436-.984 3.529 0 .024.009 1.735.54 2.714l-.667.304c-.652-.564-1.064-1.838-1.198-3.722l-.01-.357-.001-.02-.042-1.443c-.008-.293-.226-.523-.487-.513-.261.01-.465.255-.456.547l.032 1.109c-1.266.642-2.359.535-3.33.439-.335-.033-.653-.064-.962-.064-.728 0-1.426.718-2.073 2.135-.42.919-.775 2.081-.775 2.537l.011.164h-1.644c.074-.139.201-.324.295-.462zm4.758.462c-.12-.303-.309-1.195-.221-3.761l.529.046c.273.027.563.055.869.069-.224.758-.449 1.825-.185 2.465.113.273.302.463.547.549.31.109.517.422.591.632h-2.129zm-2.206 0l-.097-.064-.172-.12c.02-.232.257-1.136.68-2.054.22-.479.43-.826.617-1.069-.038 1.68.048 2.684.191 3.307h-1.219zm6.308 0h-1.01c-.068-.684-.597-1.395-1.249-1.636-.087-.203.008-1.037.344-2.035.496-.052 1.025-.172 1.586-.414.157 1.69.544 2.93 1.152 3.71l-.823.376z" fill="#206FAC"/><path d="M21.744 86.377h3.45c.251 0 .493-.103.683-.29.223-.221.351-.538.351-.871l-.005-.101h1.639c.289 0 .568-.119.785-.334.256-.254.404-.619.404-1.002s-.147-.748-.403-1.002c-.217-.216-.497-.335-.786-.335h-4.855c-.656 0-1.189.599-1.189 1.336l.026.275h-.099c-.57 0-1.034.521-1.034 1.162 0 .641.464 1.162 1.034 1.162zm0-1.263h1.264c.261 0 .472-.237.472-.53h-.002c0-.293-.211-.53-.472-.53-.135 0-.245-.123-.245-.275 0-.152.11-.275.245-.275h4.855c.076 0 .129.037.162.07.031.031.084.098.084.206 0 .107-.052.175-.084.206-.032.032-.086.069-.161.069h-2.67c-.261 0-.472.238-.472.53 0 .293.211.53.472.53h.002l.059.026.031.075-.031.075-.059.026h-3.45c-.05 0-.09-.045-.09-.101 0-.056.04-.101.09-.101zm9.562 19.239l-4.334-1.323-.247-.037h-6.68c-.141 0-.281.036-.408.104l-3.269 1.76-.066.039-1.279.834c-.185-.286-.436-1.187-.436-2.229 0-.559.333-1.646.709-2.616.402-.013.635-.113.823-.196.167-.073.287-.126.568-.126.281 0 .401.053.568.126.202.089.453.199.911.199.459 0 .71-.11.911-.199.167-.073.287-.126.568-.126.281 0 .401.053.568.126.202.089.453.199.911.199.459 0 .71-.11.911-.199.167-.073.287-.126.568-.126.281 0 .401.053.568.126.202.089.453.199.911.199.459 0 .71-.11.911-.199.167-.073.287-.126.568-.126.261 0 .472-.238.472-.53 0-.293-.211-.53-.472-.53-.459 0-.71.11-.912.199-.166.073-.287.126-.568.126-.281 0-.401-.053-.568-.126-.202-.088-.452-.199-.911-.199s-.709.11-.911.199c-.166.073-.287.126-.568.126-.281 0-.401-.053-.568-.126-.202-.088-.452-.199-.911-.199s-.709.11-.911.199c-.166.073-.287.126-.568.126-.281 0-.401-.053-.568-.126-.202-.088-.452-.199-.911-.199-.282 0-.485.042-.647.094.856-1.021 2.344-2.277 2.753-2.287.443 0 .853-.238 1.179-.563h10.383c.261 0 .472-.238.472-.531 0-.293-.211-.53-.472-.53h-3.879l-3.743-2.843-.145-.074-1.417-.417-.02-.164-.925-3.296-.102-.198-2.739-3.368-.018-.021-2.082-2.295c-.172-.189-.442-.203-.628-.033l-2.169 1.98-2.525.198c-.081.006-.158.036-.226.085l-2.194 1.614-2.401-1.542c-.164-.105-.368-.09-.519.038l-3.243 2.759c-.208.177-.249.509-.091.743.157.233.453.279.661.103l2.994-2.548 3.202 2.056 2.633 4.721c.07.126.183.212.313.24l1.798.38c.077.016.156.011.23-.016l4.158-1.484 4.993 1.469 2.519 1.913h-4.156c.042-.134.065-.259.065-.367 0-.521-.493-.802-.922-.988l-.434-.167c-.189-.32-.661-.624-1.773-.624-1.164 0-1.822.482-2.402.906-.562.411-1.047.766-2.01.766-.782 0-1.102.139-1.441.286-.14.061-.291.126-.505.187h-10.4c-.261 0-.472.238-.472.53 0 .293.211.531.472.531h5.107c-.702.523-1.32 1.294-1.833 2.3-.811 1.591-1.296 3.699-1.296 5.638 0 .571-.352 1.084-.662 1.537-.253.369-.493.72-.543 1.109h-.663c-.521 0-.944.475-.944 1.061s.423 1.061.944 1.061h10.999c.122 0 .242-.027.355-.078l3.001-1.37.119-.066 1.822-1.188 3.042-1.638h6.34l4.212 1.286c.503.154 1.022-.18 1.159-.745.137-.566-.16-1.148-.664-1.302zm-13.919-13.114c-.086-.026-.177-.023-.262.008l-4.175 1.49-1.478-.312-2.586-4.637c-.041-.074-.098-.136-.166-.179l-.254-.163 1.688-1.242 1.662-.13-.999 1.931c-.131.253-.055.578.17.725.075.049.156.072.237.072.163 0 .321-.095.408-.264l1.404-2.712 1.891-1.726 1.772 1.953 2.661 3.271.764 2.72-2.736-.804zm-14.511 15.63c.362-.528.858-1.252.858-2.184 0-3.1 1.458-7.688 4.586-7.688 2.562 0 3.213-.282 3.736-.509.298-.129.495-.215 1.102-.215 1.244 0 1.924-.498 2.525-.938.539-.394 1.004-.735 1.887-.735.527 0 .846.089.965.15.046.175.171.316.335.364.309.09.647.228.831.335-.143.301-.526.799-.908.799-1.064 0-3.702 2.615-4.166 3.723-.231.551-.984 2.436-.984 3.529 0 .024.009 1.735.54 2.714l-.667.304c-.652-.564-1.064-1.838-1.198-3.722l-.01-.357-.001-.02-.042-1.443c-.008-.293-.226-.523-.487-.513-.261.01-.465.255-.456.547l.032 1.109c-1.266.642-2.359.535-3.33.439-.335-.033-.653-.064-.962-.064-.728 0-1.426.718-2.073 2.135-.42.919-.775 2.081-.775 2.537l.011.164h-1.644c.074-.139.201-.324.295-.462zm4.758.462c-.12-.303-.309-1.195-.221-3.761l.529.046c.273.027.563.055.869.069-.224.758-.449 1.825-.185 2.465.113.273.302.463.547.549.31.109.517.422.591.632h-2.129zm-2.206 0l-.097-.064-.172-.12c.02-.232.257-1.136.68-2.054.22-.479.43-.826.617-1.069-.038 1.68.048 2.684.191 3.307h-1.219zm6.308 0h-1.01c-.068-.684-.597-1.395-1.249-1.636-.087-.203.008-1.037.344-2.035.496-.052 1.025-.172 1.586-.414.157 1.69.544 2.93 1.152 3.71l-.823.376z" fill="#fff"/><path d="M21.744 46.377h3.45c.251 0 .493-.103.683-.29.223-.221.351-.538.351-.871l-.005-.101h1.639c.289 0 .568-.119.785-.334.256-.254.404-.619.404-1.002s-.147-.748-.403-1.002c-.217-.216-.497-.335-.786-.335h-4.855c-.656 0-1.189.599-1.189 1.336l.026.275h-.099c-.57 0-1.034.521-1.034 1.162 0 .641.464 1.162 1.034 1.162zm0-1.263h1.264c.261 0 .472-.237.472-.53h-.002c0-.293-.211-.53-.472-.53-.135 0-.245-.123-.245-.275 0-.152.11-.275.245-.275h4.855c.076 0 .129.037.162.07.031.031.084.098.084.206 0 .107-.052.175-.084.206-.032.032-.086.069-.161.069h-2.67c-.261 0-.472.238-.472.53 0 .293.211.53.472.53h.002l.059.026.031.075-.031.075-.059.026h-3.45c-.05 0-.09-.045-.09-.101 0-.056.04-.101.09-.101zm9.562 19.239l-4.334-1.323-.247-.037h-6.68c-.141 0-.281.036-.408.104l-3.269 1.76-.066.039-1.279.834c-.185-.286-.436-1.187-.436-2.229 0-.559.333-1.646.709-2.616.402-.013.635-.113.823-.196.167-.073.287-.126.568-.126.281 0 .401.053.568.126.202.089.453.199.911.199.459 0 .71-.11.911-.199.167-.073.287-.126.568-.126.281 0 .401.053.568.126.202.089.453.199.911.199.459 0 .71-.11.911-.199.167-.073.287-.126.568-.126.281 0 .401.053.568.126.202.089.453.199.911.199.459 0 .71-.11.911-.199.167-.073.287-.126.568-.126.261 0 .472-.238.472-.53 0-.293-.211-.53-.472-.53-.459 0-.71.11-.912.199-.166.073-.287.126-.568.126-.281 0-.401-.053-.568-.126-.202-.088-.452-.199-.911-.199s-.709.11-.911.199c-.166.073-.287.126-.568.126-.281 0-.401-.053-.568-.126-.202-.088-.452-.199-.911-.199s-.709.11-.911.199c-.166.073-.287.126-.568.126-.281 0-.401-.053-.568-.126-.202-.088-.452-.199-.911-.199-.282 0-.485.042-.647.094.856-1.021 2.344-2.277 2.753-2.287.443 0 .853-.238 1.179-.563h10.383c.261 0 .472-.238.472-.531 0-.293-.211-.53-.472-.53h-3.879l-3.743-2.843-.145-.074-1.417-.417-.02-.164-.925-3.296-.102-.198-2.739-3.368-.018-.021-2.082-2.295c-.172-.189-.442-.203-.628-.033l-2.169 1.98-2.525.198c-.081.006-.158.036-.226.085l-2.194 1.614-2.401-1.542c-.164-.105-.368-.09-.519.038l-3.243 2.759c-.208.177-.249.509-.091.743.157.233.453.279.661.103l2.994-2.548 3.202 2.056 2.633 4.721c.07.126.183.212.313.24l1.798.38c.077.016.156.011.23-.016l4.158-1.484 4.993 1.469 2.519 1.913h-4.156c.042-.134.065-.259.065-.367 0-.521-.493-.802-.922-.988l-.434-.167c-.189-.32-.661-.624-1.773-.624-1.164 0-1.822.482-2.402.906-.562.411-1.047.766-2.01.766-.782 0-1.102.139-1.441.286-.14.061-.291.126-.505.187h-10.4c-.261 0-.472.238-.472.53 0 .293.211.531.472.531h5.107c-.702.523-1.32 1.294-1.833 2.3-.811 1.591-1.296 3.699-1.296 5.638 0 .571-.352 1.084-.662 1.537-.253.369-.493.72-.543 1.109h-.663c-.521 0-.944.475-.944 1.061s.423 1.061.944 1.061h10.999c.122 0 .242-.027.355-.078l3.001-1.37.119-.066 1.822-1.188 3.042-1.638h6.34l4.212 1.286c.503.154 1.022-.18 1.159-.745.137-.566-.16-1.148-.664-1.302zm-13.919-13.114c-.086-.026-.177-.023-.262.008l-4.175 1.49-1.478-.312-2.586-4.637c-.041-.074-.098-.136-.166-.179l-.254-.163 1.688-1.242 1.662-.13-.999 1.931c-.131.253-.055.578.17.725.075.049.156.072.237.072.163 0 .321-.095.408-.264l1.404-2.712 1.891-1.726 1.772 1.953 2.661 3.271.764 2.72-2.736-.804zm-14.511 15.63c.362-.528.858-1.252.858-2.184 0-3.1 1.458-7.688 4.586-7.688 2.562 0 3.213-.282 3.736-.509.298-.129.495-.215 1.102-.215 1.244 0 1.924-.498 2.525-.938.539-.394 1.004-.735 1.887-.735.527 0 .846.089.965.15.046.175.171.316.335.364.309.09.647.228.831.335-.143.301-.526.799-.908.799-1.064 0-3.702 2.615-4.166 3.723-.231.551-.984 2.436-.984 3.529 0 .024.009 1.735.54 2.714l-.667.304c-.652-.564-1.064-1.838-1.198-3.722l-.01-.357-.001-.02-.042-1.443c-.008-.293-.226-.523-.487-.513-.261.01-.465.255-.456.547l.032 1.109c-1.266.642-2.359.535-3.33.439-.335-.033-.653-.064-.962-.064-.728 0-1.426.718-2.073 2.135-.42.919-.775 2.081-.775 2.537l.011.164h-1.644c.074-.139.201-.324.295-.462zm4.758.462c-.12-.303-.309-1.195-.221-3.761l.529.046c.273.027.563.055.869.069-.224.758-.449 1.825-.185 2.465.113.273.302.463.547.549.31.109.517.422.591.632h-2.129zm-2.206 0l-.097-.064-.172-.12c.02-.232.257-1.136.68-2.054.22-.479.43-.826.617-1.069-.038 1.68.048 2.684.191 3.307h-1.219zm6.308 0h-1.01c-.068-.684-.597-1.395-1.249-1.636-.087-.203.008-1.037.344-2.035.496-.052 1.025-.172 1.586-.414.157 1.69.544 2.93 1.152 3.71l-.823.376z" fill="#67737B"/><path d="M21.744 6.377h3.45c.251 0 .493-.103.683-.29.223-.221.351-.538.351-.871l-.005-.101h1.639c.289 0 .568-.119.785-.334.256-.254.404-.619.404-1.002s-.147-.748-.403-1.002c-.217-.216-.497-.335-.786-.335h-4.855c-.656 0-1.189.599-1.189 1.336l.026.275h-.099c-.57 0-1.034.521-1.034 1.162 0 .641.464 1.162 1.034 1.162zm0-1.263h1.264c.261 0 .472-.237.472-.53h-.002c0-.293-.211-.53-.472-.53-.135 0-.245-.123-.245-.275 0-.152.11-.275.245-.275h4.855c.076 0 .129.037.162.07.031.031.084.098.084.206 0 .107-.052.175-.084.206-.032.032-.086.069-.161.069h-2.67c-.261 0-.472.238-.472.53 0 .293.211.53.472.53h.002l.059.026.031.075-.031.075-.059.026h-3.45c-.05 0-.09-.045-.09-.101 0-.056.04-.101.09-.101zm9.562 19.239l-4.334-1.323-.247-.037h-6.68c-.141 0-.281.036-.408.104l-3.269 1.76-.066.039-1.279.834c-.185-.286-.436-1.187-.436-2.229 0-.559.333-1.646.709-2.616.402-.013.635-.113.823-.196.167-.073.287-.126.568-.126.281 0 .401.053.568.126.202.089.453.199.911.199.459 0 .71-.11.911-.199.167-.073.287-.126.568-.126.281 0 .401.053.568.126.202.089.453.199.911.199.459 0 .71-.11.911-.199.167-.073.287-.126.568-.126.281 0 .401.053.568.126.202.089.453.199.911.199.459 0 .71-.11.911-.199.167-.073.287-.126.568-.126.261 0 .472-.238.472-.53 0-.293-.211-.53-.472-.53-.459 0-.71.11-.912.199-.166.073-.287.126-.568.126-.281 0-.401-.053-.568-.126-.202-.088-.452-.199-.911-.199s-.709.11-.911.199c-.166.073-.287.126-.568.126-.281 0-.401-.053-.568-.126-.202-.088-.452-.199-.911-.199s-.709.11-.911.199c-.166.073-.287.126-.568.126-.281 0-.401-.053-.568-.126-.202-.088-.452-.199-.911-.199-.282 0-.485.042-.647.094.856-1.021 2.344-2.277 2.753-2.287.443 0 .853-.238 1.179-.563h10.383c.261 0 .472-.238.472-.531 0-.293-.211-.53-.472-.53h-3.879l-3.743-2.843-.145-.074-1.417-.417-.02-.164-.925-3.296-.102-.198-2.739-3.368-.018-.021-2.082-2.295c-.172-.189-.442-.203-.628-.033l-2.169 1.98-2.525.198c-.081.006-.158.036-.226.085l-2.194 1.614-2.401-1.542c-.164-.105-.368-.09-.519.038l-3.243 2.759c-.208.177-.249.509-.091.743.157.233.453.279.661.103l2.994-2.548 3.202 2.056 2.633 4.721c.07.126.183.212.313.24l1.798.38c.077.016.156.011.23-.016l4.158-1.484 4.993 1.469 2.519 1.913h-4.156c.042-.134.065-.259.065-.367 0-.521-.493-.802-.922-.988l-.434-.167c-.189-.32-.661-.624-1.773-.624-1.164 0-1.822.482-2.402.906-.562.411-1.047.766-2.01.766-.782 0-1.102.139-1.441.286-.14.061-.291.126-.505.187h-10.4c-.261 0-.472.238-.472.53 0 .293.211.531.472.531h5.107c-.702.523-1.32 1.294-1.833 2.3-.811 1.591-1.296 3.699-1.296 5.638 0 .571-.352 1.084-.662 1.537-.253.369-.493.72-.543 1.109h-.663c-.521 0-.944.475-.944 1.061s.423 1.061.944 1.061h10.999c.122 0 .242-.027.355-.078l3.001-1.37.119-.066 1.822-1.188 3.042-1.638h6.34l4.212 1.286c.503.154 1.022-.18 1.159-.745.137-.566-.16-1.148-.664-1.302zm-13.919-13.114c-.086-.026-.177-.023-.262.008l-4.175 1.49-1.478-.312-2.586-4.637c-.041-.074-.098-.136-.166-.179l-.254-.163 1.688-1.242 1.662-.13-.999 1.931c-.131.253-.055.578.17.725.075.049.156.072.237.072.163 0 .321-.095.408-.264l1.404-2.712 1.891-1.726 1.772 1.953 2.661 3.271.764 2.72-2.736-.804zm-14.511 15.63c.362-.528.858-1.252.858-2.184 0-3.1 1.458-7.688 4.586-7.688 2.562 0 3.213-.282 3.736-.509.298-.129.495-.215 1.102-.215 1.244 0 1.924-.498 2.525-.938.539-.394 1.004-.735 1.887-.735.527 0 .846.089.965.15.046.175.171.316.335.364.309.09.647.228.831.335-.143.301-.526.799-.908.799-1.064 0-3.702 2.615-4.166 3.723-.231.551-.984 2.436-.984 3.529 0 .024.009 1.735.54 2.714l-.667.304c-.652-.564-1.064-1.838-1.198-3.722l-.01-.357-.001-.02-.042-1.443c-.008-.293-.226-.523-.487-.513-.261.01-.465.255-.456.547l.032 1.109c-1.266.642-2.359.535-3.33.439-.335-.033-.653-.064-.962-.064-.728 0-1.426.718-2.073 2.135-.42.919-.775 2.081-.775 2.537l.011.164h-1.644c.074-.139.201-.324.295-.462zm4.758.462c-.12-.303-.309-1.195-.221-3.761l.529.046c.273.027.563.055.869.069-.224.758-.449 1.825-.185 2.465.113.273.302.463.547.549.31.109.517.422.591.632h-2.129zm-2.206 0l-.097-.064-.172-.12c.02-.232.257-1.136.68-2.054.22-.479.43-.826.617-1.069-.038 1.68.048 2.684.191 3.307h-1.219zm6.308 0h-1.01c-.068-.684-.597-1.395-1.249-1.636-.087-.203.008-1.037.344-2.035.496-.052 1.025-.172 1.586-.414.157 1.69.544 2.93 1.152 3.71l-.823.376z" fill="#3A434E"/></g></g></svg>