<svg width="32" height="232" viewBox="0 0 32 232" xmlns="http://www.w3.org/2000/svg"><desc>Created with Sketch.</desc><g fill="none"><path d="M12.35 128.337c.093.093.21.14.327.14.128 0 .255-.055.35-.164l1.43-1.647c.18-.208.17-.535-.023-.73-.193-.196-.496-.186-.677.022l-1.43 1.648c-.18.208-.17.536.023.73zm-6.138.215c.093.093.21.14.327.14.124 0 .252-.055.35-.163.18-.21.17-.54-.026-.735l-1.525-1.543c-.193-.195-.496-.184-.677.023-.18.21-.17.536.022.732l1.525 1.542zm-3.076 3.576h.016l2.232-.08c.264-.008.472-.247.463-.532-.008-.286-.23-.506-.494-.5l-2.232.08c-.26.008-.47.247-.46.533.01.275.22.5.48.5zm6.43-4.916h.017c.264-.01.47-.248.463-.534l-.072-2.41c-.008-.286-.23-.508-.494-.5-.264.01-.472.248-.463.534l.072 2.41c.004.28.22.5.475.5zm1.523.273l.17.034c.19 0 .372-.13.444-.337l.506-1.428c.095-.267-.03-.566-.275-.67-.247-.1-.524.033-.62.3l-.505 1.43c-.094.266.03.565.277.667zm-6.93 2.156l1.32.55.17.035c.192 0 .374-.127.45-.333.092-.266-.03-.565-.28-.67l-1.322-.545c-.247-.102-.524.03-.618.298-.095.267.03.565.276.668zm3.34-2.33c.08.195.253.31.44.31l.19-.046c.24-.115.35-.42.243-.682l-.578-1.396c-.107-.26-.39-.377-.632-.26-.242.116-.35.423-.242.683l.578 1.396zm13.59.59h6.11c.262 0 .48-.23.48-.514 0-.084-.02-.164-.055-.234-.234-.604-.79-1.006-1.4-1.006h-.007c-.308-.993-1.17-1.69-2.18-1.69-.696 0-1.345.337-1.78.912-.928.125-1.65.983-1.65 2.018 0 .286.215.518.48.518zm1.394-1.514h.028c.162 0 .313-.088.4-.234.25-.414.67-.66 1.126-.66.692 0 1.265.56 1.334 1.3l.013.08h-3.683c.16-.29.45-.48.782-.486zm8.572 20.113H28.91v-.227l-.016-.19-.313-1.817v-1.506l-.005-.136-.198-1.622v-1.17c0-.155-.032-.31-.095-.45L27.664 138c-.044-.1-.102-.19-.172-.27l-1.48-1.67c-.156-.173-.363-.284-.585-.31l-1.69-.21-.108-.006h-.706l-.54-.522-1.102-1.42-.215-1.525.622.338.09.037 1.235.366.128.02h1.21l1.006 1.406c.09.126.23.2.38.2h1.03l.825 1.034c.095.12.23.18.362.18.11 0 .223-.042.313-.127.2-.185.223-.512.05-.73l-.972-1.212c-.09-.114-.223-.18-.362-.18H25.97l-1.006-1.406c-.09-.126-.23-.2-.38-.2H23.2l-1.13-.334-1.253-.684-.44-1.47c-.03-.093-.07-.182-.123-.265l-.54-.847-.34-.736c-.11-.237-.3-.42-.532-.51l-1.073-.418c-.21-.08-.438-.083-.646-.004l-1.1.42c-.254.096-.458.303-.564.57l-.617 1.567-.05.167-.696.226-.043.017-1.916.84c-.123.053-.22.16-.268.296l-.827 2.365-1.228 1.376h-1.02l-.37-.706c-.1-.19-.3-.292-.496-.256l-3.066.56-.08.022-1.7.654c-.25.095-.38.39-.29.66.07.21.253.343.45.343l.16-.03 1.66-.64 2.693-.49.34.655c.085.163.244.264.417.264h1.506c.13 0 .256-.057.346-.158l1.437-1.613.103-.174.788-2.253 1.7-.744.19-.06-.06.273c-.085.198-.206.64-.517 2.167l-.015.084-.27 2.18-.12.305c-1.667.392-2.055 1.5-2.193 2.036-.81.22-1.49 1.17-1.726 1.84-.056.16-.036.337.054.477.09.14.236.224.393.224h2.258l-.006.04-.586.993-.563.22h-.78c-.347 0-.666.2-.835.526l-.588 1.123c-.065-.248-.188-.656-.422-1.374v-.89c0-.12-.02-.24-.057-.35l-.37-1.114-.103-.224-.413-.667c-.084-.136-.197-.25-.33-.33l-.658-.397c-.348-.21-.777-.17-1.08.104l-.744.665c-.12.11-.216.25-.276.406l-.533 1.424-.007.02-.62 1.734-.02.066-.536 1.87-.022.09-.29 1.47-.21 1.104H.978c-.53 0-.958.463-.958 1.034 0 .57.43 1.034.958 1.034h30.077c.53 0 .958-.463.958-1.035 0-.57-.43-1.035-.958-1.035zM15.89 133.24c.136-.66.307-1.445.376-1.687.08-.177.18-.54.387-1.77l.41-1.04.38-.145.392.152.2.43.067.124.498.78.468 1.558.36 2.545c.025.187.1.363.212.51l1.318 1.697.096.106.68.658.584 1.796.466 2.446c.094.49.492.826.937.826l.198-.02c.518-.116.852-.663.745-1.222l-.48-2.514-.032-.134-.224-.694.942.116 1.14 1.282.456 1.024v1l.01.136.197 1.623v1.534l.017.19.313 1.818v.13h-9.56c-.04-.096-.09-.19-.157-.274l-1.305-1.65-.41-1.855c-.04-.178-.122-.34-.24-.474l-1.19-1.35c.05-.1.085-.203.103-.314l.1-.594h5.116c.264 0 .48-.23.48-.515 0-1.48-1.057-2.698-2.398-2.822-.477-.67-1.153-1.127-1.908-1.3l.26-2.102zm-4.893 5.706c.242-.292.532-.517.757-.517.41 0 .513-.428.557-.61.078-.304.2-.81.81-1.154.384-.217.96-.372 1.837-.372.126 0 .25.012.37.034.634.11 1.2.503 1.558 1.1.095.157.26.245.44.232.747.006 1.38.546 1.584 1.282H11zm-6.696 7.55l.13-.68.28-1.42.516-1.79.603-1.694.44-1.174.004-.004.15.243.275.824v.89c0 .118.017.235.054.346.18.553.393 1.233.447 1.443.02.16.087.47.326 1.282.087.294.292.53.557.647.266.114.566.094.816-.054l1.276-.756c.157-.092.287-.23.375-.4l.468-.895h.387c.11 0 .22-.02.325-.06l1.03-.4c.105-.043.205-.106.29-.185l.714.808.404 1.83c.034.158.104.306.202.43l.61.772H4.3z" fill="#206FAC"/><path d="M12.35 88.337c.093.093.21.14.327.14.128 0 .255-.055.35-.164l1.43-1.647c.18-.208.17-.535-.023-.73-.193-.196-.496-.186-.677.022l-1.43 1.648c-.18.208-.17.536.023.73zm-6.138.215c.093.093.21.14.327.14.124 0 .252-.055.35-.163.18-.21.17-.54-.026-.735l-1.524-1.54c-.192-.196-.495-.185-.676.022-.18.21-.17.536.022.732l1.524 1.54zm-3.076 3.576h.016l2.232-.08c.264-.008.472-.247.463-.532-.008-.286-.23-.506-.494-.5l-2.232.08c-.26.008-.47.247-.46.533.01.275.22.5.48.5zm6.43-4.916h.017c.264-.01.47-.248.463-.534l-.072-2.41c-.008-.286-.23-.508-.494-.5-.264.01-.472.248-.463.534l.072 2.41c.004.28.22.5.475.5zm1.523.273l.17.034c.19 0 .372-.13.444-.337l.506-1.428c.095-.267-.03-.566-.275-.67-.247-.1-.524.033-.62.3l-.505 1.43c-.094.266.03.565.277.667zM4.16 89.64l1.322.548.17.034c.193 0 .375-.127.448-.333.095-.27-.03-.57-.276-.67L4.5 88.672c-.246-.102-.523.03-.617.298-.095.268.03.566.276.67zm3.34-2.33c.08.192.256.306.44.306l.194-.045c.24-.112.35-.42.242-.68l-.578-1.396c-.107-.26-.39-.377-.632-.26-.242.116-.35.423-.242.683L7.5 87.31zm13.592.59H27.2c.264 0 .48-.23.48-.517 0-.084-.02-.164-.053-.234-.234-.608-.79-1.01-1.4-1.01h-.007c-.307-.993-1.17-1.69-2.18-1.69-.695 0-1.344.337-1.78.912-.927.125-1.65.983-1.65 2.018 0 .287.216.52.48.52zm1.395-1.517h.028c.162 0 .313-.088.4-.234.25-.418.67-.665 1.126-.665.696 0 1.27.56 1.338 1.3l.013.08h-3.683c.16-.288.45-.48.782-.485zm8.572 20.113h-2.15v-.226l-.018-.19-.313-1.818v-1.506l-.008-.135-.198-1.62v-1.17c0-.154-.032-.31-.095-.45L27.66 98c-.043-.1-.1-.19-.17-.268l-1.483-1.67c-.155-.174-.362-.285-.584-.31l-1.69-.21-.108-.007h-.705l-.54-.522-1.1-1.42-.216-1.524.622.338.09.037 1.236.366.128.02h1.21l1.005 1.406c.09.128.23.2.38.2h1.03l.826 1.036c.097.12.23.18.364.18.11 0 .223-.042.313-.127.2-.186.223-.513.05-.73l-.972-1.213c-.09-.114-.223-.18-.362-.18H25.97l-1.01-1.406c-.09-.127-.23-.2-.38-.2H23.2l-1.13-.335-1.253-.684-.44-1.47c-.03-.093-.07-.182-.123-.265l-.54-.846-.34-.737c-.11-.237-.3-.42-.532-.51l-1.073-.418c-.21-.08-.438-.082-.646-.003l-1.1.42c-.254.098-.458.305-.564.57l-.617 1.57-.05.167-.696.225-.043.017-1.916.84c-.123.052-.22.16-.268.295l-.827 2.366-1.228 1.378h-1.02l-.37-.706c-.1-.19-.3-.293-.496-.257l-3.066.56-.08.022-1.7.653c-.25.095-.38.39-.29.66.07.21.253.343.45.343l.16-.03 1.66-.64 2.693-.49.34.655c.085.164.244.265.417.265h1.506c.13 0 .256-.056.346-.157l1.437-1.613.103-.176.788-2.255 1.7-.745.19-.06-.06.273c-.085.198-.206.642-.517 2.167l-.015.084-.27 2.178-.12.306c-1.667.392-2.055 1.5-2.193 2.036-.81.22-1.49 1.17-1.726 1.84-.056.157-.036.335.054.475.09.14.236.223.393.223h2.258l-.006.036-.586.994-.563.22h-.78c-.347 0-.666.2-.835.527l-.588 1.126c-.065-.248-.188-.656-.422-1.374v-.89c0-.12-.02-.24-.057-.35l-.37-1.114-.103-.224-.413-.667c-.084-.136-.197-.25-.33-.33l-.658-.397c-.348-.21-.777-.168-1.08.106l-.744.665c-.12.11-.216.25-.276.407l-.533 1.424-.007.02-.62 1.734-.02.065-.536 1.87-.022.09-.29 1.472-.21 1.104H.978c-.53 0-.958.463-.958 1.034 0 .572.43 1.035.958 1.035h30.077c.53 0 .958-.462.958-1.034 0-.57-.43-1.033-.958-1.033zM15.89 93.24c.136-.66.307-1.445.376-1.687.08-.177.18-.54.387-1.77l.41-1.04.38-.145.392.152.2.43.067.124.498.78.468 1.558.36 2.545c.025.187.1.363.212.51l1.318 1.697.096.106.68.658.584 1.796.466 2.446c.094.49.492.826.937.826l.198-.02c.518-.116.852-.663.745-1.222l-.48-2.514-.032-.134-.224-.694.942.116 1.14 1.282.456 1.024v1l.01.136.197 1.623v1.534l.017.19.313 1.818v.13h-9.56c-.04-.096-.09-.19-.157-.274l-1.305-1.65-.41-1.855c-.04-.178-.122-.34-.24-.474l-1.19-1.35c.05-.1.085-.203.103-.314l.1-.594h5.116c.264 0 .48-.23.48-.515 0-1.48-1.057-2.698-2.398-2.822-.477-.67-1.153-1.127-1.908-1.3l.26-2.102zm-4.893 5.706c.242-.292.532-.517.757-.517.41 0 .513-.428.557-.61.078-.304.2-.81.81-1.154.384-.217.96-.372 1.837-.372.126 0 .25.012.37.034.634.11 1.2.503 1.558 1.1.095.157.26.245.44.232.747.006 1.38.546 1.584 1.282H11zm-6.696 7.55l.13-.68.28-1.42.516-1.79.603-1.694.44-1.174.004-.004.15.243.275.824v.89c0 .118.017.235.054.346.18.553.393 1.233.447 1.443.02.16.087.47.326 1.282.087.294.292.53.557.647.266.114.566.094.816-.054l1.276-.756c.157-.092.287-.23.375-.4l.468-.895h.387c.11 0 .22-.02.325-.06l1.03-.4c.105-.043.205-.106.29-.185l.714.808.404 1.83c.034.158.104.306.202.43l.61.772H4.3z" fill="#fff"/><path d="M12.35 48.337c.093.093.21.14.327.14.128 0 .255-.055.35-.164l1.43-1.647c.18-.208.17-.535-.023-.73-.193-.196-.496-.186-.677.022l-1.43 1.648c-.18.208-.17.536.023.73zm-6.138.215c.093.093.21.14.327.14.124 0 .252-.055.35-.163.18-.21.17-.54-.026-.735l-1.524-1.54c-.192-.196-.495-.185-.676.022-.18.21-.17.536.022.732l1.524 1.54zm-3.076 3.576h.016l2.232-.08c.264-.008.472-.247.463-.532-.008-.286-.23-.506-.494-.5l-2.232.08c-.26.008-.47.247-.46.533.01.275.22.5.48.5zm6.43-4.916h.017c.264-.01.47-.248.463-.534l-.072-2.41c-.008-.286-.23-.508-.494-.5-.264.01-.472.248-.463.534l.072 2.41c.004.28.22.5.475.5zm1.523.273l.17.034c.19 0 .372-.13.444-.337l.506-1.428c.095-.267-.03-.566-.275-.67-.247-.1-.524.033-.62.3l-.505 1.43c-.094.266.03.565.277.667zM4.16 49.64l1.322.548.17.034c.193 0 .375-.127.448-.333.095-.27-.03-.57-.276-.67L4.5 48.672c-.246-.102-.523.03-.617.298-.095.268.03.566.276.67zm3.34-2.33c.08.192.256.306.44.306l.194-.045c.24-.112.35-.42.242-.68l-.578-1.396c-.107-.26-.39-.377-.632-.26-.242.116-.35.423-.242.683L7.5 47.31zm13.592.59H27.2c.264 0 .48-.23.48-.517 0-.084-.02-.164-.053-.234-.234-.608-.79-1.01-1.4-1.01h-.007c-.307-.993-1.17-1.69-2.18-1.69-.695 0-1.344.337-1.78.912-.927.125-1.65.983-1.65 2.018 0 .287.216.52.48.52zm1.395-1.517h.028c.162 0 .313-.088.4-.234.25-.418.67-.665 1.126-.665.696 0 1.27.56 1.338 1.3l.013.08h-3.683c.16-.288.45-.48.782-.485zm8.572 20.113h-2.15v-.226l-.018-.19-.313-1.818v-1.506l-.008-.135-.196-1.62v-1.17c0-.153-.032-.31-.095-.45L27.665 58c-.044-.1-.102-.19-.172-.268l-1.482-1.67c-.155-.174-.362-.285-.584-.31l-1.69-.21-.108-.007h-.705l-.54-.522-1.103-1.42-.215-1.524.622.337.09.037 1.236.367.127.02h1.21l1.005 1.407c.09.126.23.2.38.2h1.03l.826 1.034c.1.12.23.18.366.18.11 0 .223-.04.313-.126.2-.187.222-.514.05-.73l-.973-1.214c-.09-.114-.223-.18-.362-.18H25.97l-1.007-1.406c-.09-.127-.23-.2-.38-.2h-1.38l-1.13-.335-1.254-.685-.44-1.47c-.03-.092-.07-.18-.126-.264l-.54-.845-.34-.737c-.11-.237-.3-.42-.532-.51l-1.073-.418c-.208-.08-.435-.082-.643-.003l-1.1.42c-.254.096-.458.303-.564.57l-.618 1.567-.05.166-.696.226-.044.017-1.916.84c-.12.052-.22.16-.265.295l-.827 2.366L9.82 54.37H8.795l-.368-.706c-.1-.19-.3-.293-.497-.257l-3.064.56-.08.022-1.7.653c-.25.094-.38.39-.29.66.07.21.253.342.45.342l.16-.03 1.66-.64 2.693-.49.34.655c.083.163.242.264.415.264h1.506c.13 0 .256-.056.346-.157l1.437-1.613.103-.175.788-2.255 1.7-.743.19-.06-.06.273c-.085.197-.206.64-.517 2.166l-.015.085-.27 2.178-.12.306c-1.667.39-2.055 1.5-2.193 2.035-.81.22-1.49 1.17-1.725 1.84-.056.158-.036.336.054.476.09.14.236.225.393.225h2.257l-.005.038-.586.995-.565.22h-.78c-.347 0-.666.2-.835.526l-.587 1.123c-.065-.248-.188-.656-.422-1.374v-.89c0-.12-.02-.24-.055-.35l-.37-1.114-.104-.225-.41-.667c-.085-.136-.198-.25-.33-.33l-.66-.397c-.346-.21-.775-.17-1.08.106l-.742.665c-.12.11-.216.25-.276.408L4.05 60.14l-.007.02-.62 1.733-.02.065-.535 1.87-.022.09-.29 1.472-.21 1.103H.978c-.53 0-.958.463-.958 1.034 0 .57.43 1.034.958 1.034h30.077c.53 0 .958-.46.958-1.033 0-.57-.43-1.035-.958-1.035zM15.89 53.24c.136-.66.307-1.445.376-1.687.08-.177.18-.54.387-1.77l.41-1.04.38-.145.392.152.2.43.067.124.498.78.468 1.558.36 2.545c.025.187.1.363.212.51l1.318 1.697.096.106.68.658.584 1.796.466 2.446c.094.49.492.826.937.826l.198-.02c.518-.116.852-.663.745-1.222l-.48-2.514-.032-.134-.224-.694.942.116 1.14 1.282.456 1.024v1l.01.136.197 1.623v1.534l.017.19.313 1.818v.13h-9.56c-.04-.096-.09-.19-.157-.274l-1.305-1.65-.41-1.855c-.04-.178-.122-.34-.24-.474l-1.19-1.35c.05-.1.085-.203.103-.314l.1-.594h5.116c.264 0 .48-.23.48-.515 0-1.48-1.057-2.698-2.398-2.822-.477-.67-1.153-1.127-1.908-1.3l.26-2.102zm-4.893 5.706c.242-.292.532-.517.757-.517.41 0 .513-.428.557-.61.078-.304.2-.81.81-1.154.384-.217.96-.372 1.837-.372.126 0 .25.012.37.034.634.11 1.2.503 1.558 1.1.095.157.26.245.44.232.747.006 1.38.546 1.584 1.282H11zM4.3 66.496l.13-.68.28-1.42.513-1.79.603-1.694.442-1.174.004-.004.15.243.275.824v.89c0 .118.018.235.055.346.18.553.393 1.233.447 1.443.015.16.083.47.322 1.282.087.294.292.53.557.647.266.114.566.094.816-.054l1.277-.756c.157-.092.287-.23.375-.4l.465-.895h.387c.11 0 .22-.02.325-.06l1.03-.4c.107-.043.207-.106.293-.185l.714.808.404 1.83c.035.158.105.306.203.43l.61.772H4.3z" fill="#67737B"/><path d="M12.35 8.337c.093.093.21.14.327.14.128 0 .255-.055.35-.164l1.43-1.647c.18-.208.17-.535-.023-.73-.193-.196-.496-.186-.677.022l-1.43 1.648c-.18.208-.17.536.023.73zm-6.138.215c.093.093.21.14.327.14.124 0 .252-.055.35-.163.18-.21.17-.54-.026-.735L5.34 6.255c-.192-.196-.495-.185-.676.022-.18.21-.17.536.022.732L6.21 8.55zm-3.076 3.576h.016l2.232-.08c.264-.008.472-.247.463-.532-.008-.286-.23-.506-.494-.5l-2.232.08c-.26.008-.47.247-.46.533.01.275.22.5.48.5zm6.43-4.916h.017c.264-.01.47-.248.463-.534l-.072-2.41c-.008-.286-.23-.508-.494-.5-.264.01-.472.248-.463.534l.072 2.41c.004.28.22.5.475.5zm1.523.273l.17.034c.19 0 .372-.13.444-.337l.506-1.428c.095-.267-.03-.566-.275-.67-.247-.1-.524.033-.62.3l-.505 1.43c-.094.266.03.565.277.667zM4.16 9.64l1.322.548.17.034c.193 0 .375-.127.448-.333.095-.27-.03-.57-.276-.67L4.5 8.672c-.246-.102-.523.03-.617.298-.095.268.03.566.276.67zM7.5 7.31c.08.192.256.306.44.306l.194-.045c.24-.112.35-.42.242-.68l-.578-1.4c-.107-.26-.39-.375-.632-.26-.242.118-.35.425-.242.685L7.5 7.31zm13.592.59H27.2c.264 0 .48-.23.48-.517 0-.084-.02-.164-.053-.234-.234-.608-.79-1.01-1.4-1.01h-.007c-.307-.993-1.17-1.69-2.18-1.69-.695 0-1.344.337-1.78.912-.927.125-1.65.983-1.65 2.018 0 .287.216.52.48.52zm1.395-1.517h.028c.162 0 .313-.088.4-.234.25-.418.67-.665 1.126-.665.696 0 1.27.56 1.338 1.3l.013.08h-3.683c.16-.288.45-.48.782-.485zm8.572 20.113h-2.15v-.226l-.018-.19-.313-1.818v-1.506l-.008-.135-.196-1.62v-1.17c0-.153-.032-.31-.095-.45L27.665 18c-.044-.1-.102-.19-.172-.268l-1.482-1.67c-.155-.174-.362-.285-.584-.31l-1.69-.21-.108-.007h-.705l-.54-.522-1.103-1.42-.215-1.524.622.337.09.037 1.236.367.127.02h1.21l1.005 1.407c.09.126.23.2.38.2h1.03l.826 1.034c.1.12.23.18.366.18.11 0 .223-.04.313-.126.2-.187.222-.514.05-.73l-.973-1.214c-.09-.114-.223-.18-.362-.18H25.97l-1.007-1.406c-.09-.127-.23-.2-.38-.2h-1.38l-1.13-.335-1.254-.685-.44-1.47c-.03-.092-.07-.18-.126-.264l-.54-.845-.34-.737c-.11-.237-.3-.42-.532-.51L17.77 6.53c-.208-.08-.435-.082-.643-.003l-1.1.42c-.254.096-.458.303-.564.57l-.618 1.567-.05.166-.696.226-.044.017-1.916.84c-.12.052-.22.16-.265.295l-.827 2.366L9.82 14.37H8.795l-.368-.706c-.1-.19-.3-.293-.497-.257l-3.064.56-.08.022-1.7.653c-.25.094-.38.39-.29.66.07.21.253.342.45.342l.16-.03 1.66-.64 2.693-.49.34.655c.083.163.242.264.415.264h1.506c.13 0 .256-.056.346-.157l1.437-1.613.103-.175.788-2.255 1.7-.743.19-.06-.06.273c-.085.197-.206.64-.517 2.166l-.015.085-.27 2.178-.12.306c-1.667.39-2.055 1.5-2.193 2.035-.81.22-1.49 1.17-1.725 1.84-.056.158-.036.336.054.476.09.14.236.225.393.225h2.257l-.005.038-.586.995-.565.22h-.78c-.347 0-.666.2-.835.526l-.587 1.123c-.065-.248-.188-.656-.422-1.374v-.89c0-.12-.02-.24-.055-.35l-.37-1.114-.104-.225-.41-.667c-.085-.136-.198-.25-.33-.33l-.66-.397c-.346-.21-.775-.17-1.08.106l-.742.665c-.12.11-.216.25-.276.408L4.05 20.14l-.007.02-.62 1.733-.02.065-.535 1.87-.022.09-.29 1.472-.21 1.103H.978c-.53 0-.958.463-.958 1.034 0 .57.43 1.034.958 1.034h30.077c.53 0 .958-.46.958-1.033 0-.57-.43-1.035-.958-1.035zM15.89 13.24c.136-.66.307-1.445.376-1.687.08-.177.18-.54.387-1.77l.41-1.04.38-.145.392.152.2.43.067.124.498.78.468 1.558.36 2.545c.025.187.1.363.212.51l1.318 1.697.096.106.68.658.584 1.796.466 2.446c.094.49.492.826.937.826l.198-.02c.518-.116.852-.663.745-1.222l-.48-2.514-.032-.134-.224-.694.942.116 1.14 1.282.456 1.024v1l.01.136.197 1.623v1.534l.017.19.313 1.818v.13h-9.56c-.04-.096-.09-.19-.157-.274l-1.305-1.65-.41-1.855c-.04-.178-.122-.34-.24-.474l-1.19-1.35c.05-.1.085-.203.103-.314l.1-.594h5.116c.264 0 .48-.23.48-.515 0-1.48-1.057-2.698-2.398-2.822-.477-.67-1.153-1.127-1.908-1.3l.26-2.102zm-4.893 5.706c.242-.292.532-.517.757-.517.41 0 .513-.428.557-.61.078-.304.2-.81.81-1.154.384-.217.96-.372 1.837-.372.126 0 .25.012.37.034.634.11 1.2.503 1.558 1.1.095.157.26.245.44.232.747.006 1.38.546 1.584 1.282H11zM4.3 26.496l.13-.68.28-1.42.513-1.79.603-1.694.442-1.174.004-.004.15.243.275.824v.89c0 .118.018.235.055.346.18.553.393 1.233.447 1.443.015.16.083.47.322 1.282.087.294.292.53.557.647.266.114.566.094.816-.054l1.277-.756c.157-.092.287-.23.375-.4l.465-.895h.387c.11 0 .22-.02.325-.06l1.03-.4c.107-.043.207-.106.293-.185l.714.808.404 1.83c.035.158.105.306.203.43l.61.772H4.3z" fill="#3A434E"/></g></svg>