<svg width="32" height="232" viewBox="0 0 32 232" xmlns="http://www.w3.org/2000/svg"><desc>Created with Sketch.</desc><g fill="none"><path d="M15.002 123.338c.204-.18.46-.267.726-.242.192.018.37.092.52.213l.015.04c.083.185.26.31.457.31h.07c.195 0 .374-.125.457-.31l.016-.04c.362-.298.882-.298 1.245.03.214.19.532.16.71-.07.18-.226.152-.563-.06-.753-.41-.365-.93-.54-1.464-.49-.342.032-.663.152-.94.35-.277-.198-.598-.318-.94-.35-.532-.05-1.052.124-1.462.49-.214.19-.24.526-.062.752.18.225.498.255.71.065zm-1.488 2.48c.158-.14.38-.15.544-.04.086.178.26.29.45.29h.043c.19 0 .366-.112.45-.29.168-.11.39-.1.547.04.214.19.532.16.71-.066.18-.226.152-.563-.06-.753-.48-.43-1.146-.476-1.664-.17-.517-.307-1.182-.26-1.663.166-.215.19-.24.526-.063.752.18.225.497.254.71.065zm17.484 21.997h-6.3l.27-1.48c.54-.008.837-.16 1.077-.285.198-.102.34-.177.67-.177s.474.074.672.177c.246.127.55.285 1.114.285.567 0 .87-.158 1.118-.285.198-.102.34-.177.67-.177.28 0 .506-.24.506-.534 0-.3-.225-.538-.504-.538-.564 0-.87.158-1.115.285-.198.1-.34.176-.67.176s-.474-.074-.672-.177c-.246-.128-.55-.286-1.114-.286-.565 0-.87.16-1.116.286-.144.073-.26.132-.437.16l.442-2.42c.082.027.17.032.26.01l.36-.09.31.21c.114.077.253.102.386.07l.36-.09.312.21c.113.076.252.1.385.07l.36-.09.313.21c.114.076.253.1.386.067l.36-.09.313.21c.08.056.175.084.27.084l.116-.013.493-.122.058.004c.1 0 .2-.03.288-.097.23-.17.285-.5.126-.746l-4.46-6.795c-.078-.12-.197-.2-.33-.223-.135-.024-.27.01-.38.095l-6.325 4.862c-.226.174-.276.508-.11.746.072.11.18.176.29.205l.43.29c.116.077.255.102.39.07l.36-.09.31.21c.115.076.255.1.387.068l.36-.09.313.21c.116.077.255.102.388.07l.36-.09.312.21c.115.076.254.1.387.068l.36-.09.31.21.19.078-.435 2.387c-.232-.117-.53-.24-1.028-.24-.563 0-.868.157-1.114.284-.198.1-.34.176-.67.176s-.473-.073-.67-.176c-.247-.128-.552-.286-1.115-.286s-.868.157-1.114.284c-.196.102-.34.177-.67.177s-.47-.073-.67-.176c-.245-.13-.55-.287-1.113-.287s-.87.157-1.115.284c-.197.102-.34.177-.67.177s-.47-.073-.67-.176c-.245-.128-.55-.286-1.113-.286s-.868.157-1.114.284c-.198.102-.34.177-.67.177s-.472-.073-.67-.176c-.246-.128-.55-.286-1.114-.286-.42 0-.696.088-.912.185.26-.895.67-1.805 1.317-2.557 1.025-1.19 2.494-1.796 4.367-1.796 2.307 0 4.434-.955 5.99-2.69 1.305-1.456 2.114-3.353 2.33-5.43.446.46.737 1.048.832 1.695.11.754-.063 1.504-.49 2.11-.165.237-.12.572.104.75.09.07.195.104.3.104.154 0 .306-.073.405-.214.59-.84.83-1.874.677-2.914-.105-.718-.388-1.38-.816-1.937 1.208-.014 2.368.76 2.822 1.997.078.21.268.34.47.34l.184-.035c.26-.107.39-.417.288-.692-.604-1.647-2.14-2.68-3.746-2.678.798-.784 2.025-1.03 3.13-.524.256.117.553-.007.664-.278.11-.27-.007-.586-.263-.703-1.333-.61-2.804-.398-3.874.424-.164-1.39-1.023-2.67-2.357-3.28-.256-.118-.553.006-.664.277-.11.27.005.585.26.703 1.106.506 1.777 1.623 1.783 2.775-1.097-1.24-2.86-1.72-4.408-1.06-.26.11-.384.425-.28.7.105.273.4.405.658.295 1.163-.498 2.49-.13 3.307.81-.678.05-1.327.287-1.893.697-.822.595-1.37 1.49-1.544 2.517-.05.29.133.566.408.62l.09.01c.24 0 .455-.185.498-.44.126-.747.524-1.394 1.12-1.825.404-.292.866-.464 1.35-.508-.365 3.954-3.218 6.55-7.33 6.55-3.225 0-5.706 1.76-7.174 5.085-.155.352-.29.702-.41 1.046-.19-.07-.43-.123-.755-.123h-.08l.282-4.666c.46-.15.975-.225 1.54-.225 3.277 0 5.238-4.38 5.96-6.373.646.082 1.22.408 1.625.925.396.507.58 1.142.517 1.79-.03.293.173.556.45.586l.052.004c.255 0 .475-.205.502-.48.09-.934-.173-1.85-.743-2.58-.366-.47-.83-.825-1.354-1.052.88-.506 2.003-.45 2.823.227.22.18.537.14.708-.093.174-.234.135-.57-.085-.75-1.14-.943-2.7-1.023-3.92-.325.09-.256.218-.498.386-.72.41-.54 1.005-.89 1.67-.98.278-.038.474-.306.438-.598-.035-.293-.288-.5-.565-.46-.926.125-1.753.612-2.33 1.368-.176.233-.322.482-.437.743-.174-.223-.375-.425-.602-.6-.738-.58-1.655-.827-2.58-.7-.277.04-.473.306-.437.6.036.29.288.5.565.46.67-.09 1.327.085 1.855.497.216.17.4.37.545.593-1.348-.347-2.84.15-3.714 1.368-.17.236-.126.57.096.75.092.074.2.11.306.11.152 0 .303-.074.402-.21.674-.938 1.854-1.28 2.872-.92-.67 1.61-2.385 4.98-4.996 4.98-.5 0-.975.057-1.424.164l.59-9.676c.512.244.942.634 1.242 1.138.385.646.507 1.407.344 2.143-.064.287.104.575.375.643l.117.013c.23 0 .436-.165.49-.41.227-1.017.06-2.068-.47-2.958-.367-.614-.875-1.103-1.477-1.435 1.104-.52 2.458-.3 3.34.646.1.105.23.158.36.158.127 0 .255-.05.354-.153.197-.207.2-.546.004-.756-1.174-1.256-2.972-1.56-4.444-.88.438-1.055 1.472-1.8 2.676-1.8.28 0 .505-.24.505-.533 0-.295-.227-.534-.506-.534-1.453 0-2.723.814-3.396 2.02-.674-1.206-1.943-2.02-3.396-2.02-.28 0-.504.24-.504.534 0 .295.226.534.505.534 1.205 0 2.24.744 2.677 1.8-1.472-.68-3.27-.377-4.443.88-.196.21-.194.55.005.757.097.103.225.154.353.154.13 0 .26-.052.36-.16.88-.943 2.235-1.164 3.338-.644-.6.33-1.11.82-1.474 1.435-.53.89-.7 1.94-.474 2.96.055.246.262.41.49.41l.117-.012c.27-.068.44-.355.376-.643-.165-.737-.043-1.498.343-2.144.287-.482.696-.86 1.182-1.105l-1.14 10.31c-.43.273-.824.61-1.18 1.014-1.14 1.29-1.88 3.2-2.202 5.685-.12.936-.157 1.77-.163 2.37-.292.187-.488.526-.488.914 0 .59.45 1.07 1.006 1.07H31c.56 0 1.01-.48 1.01-1.07s-.452-1.07-1.01-1.07zm-24.4-1.102c-.043.41-.064.783-.072 1.102H6.38c.05-.32.122-.693.22-1.102zm22.782-4.484l-.36.09-.312-.21c-.115-.08-.255-.107-.387-.07l-.36.09-.31-.21c-.113-.08-.253-.105-.385-.07l-.36.09-.312-.21c-.114-.08-.253-.105-.386-.07l-.36.09-.312-.21c-.114-.08-.253-.1-.386-.07l-.36.09-.313-.21c-.115-.077-.255-.1-.387-.07l-.36.09-.313-.21c-.115-.076-.254-.1-.387-.07l-.36.09-.312-.21c-.115-.076-.255-.1-.387-.067l-.36.09-.31-.21-.17-.07 4.947-3.805 3.49 5.315-.182.008zm-21.177 3.82c.198-.105.34-.18.67-.18s.472.074.67.177c.246.126.55.284 1.114.284.563 0 .868-.157 1.114-.284.2-.103.345-.178.67-.178s.476.073.675.176c.245.126.55.284 1.114.284.562 0 .867-.158 1.113-.285.2-.103.34-.178.67-.178s.473.074.67.177c.247.126.55.284 1.115.284.563 0 .87-.158 1.114-.285.198-.102.34-.177.67-.177s.47.074.67.177c.247.126.55.284 1.115.284s.868-.158 1.114-.285c.198-.103.34-.178.67-.178s.473.074.67.177l.16.08-.31 1.684H7.54c.013-.43.05-.966.142-1.552.22-.058.38-.14.522-.214zm-2.898-.18c.197 0 .327.027.442.07-.196.72-.318 1.37-.394 1.872h-.31l.12-1.936.142-.007zm-2.62 1.942c-.052-.454-.1-1.037-.11-1.682.167.08.37.155.653.187l-.165 1.495h-.377zm1.063-6.438l.03-.037-.433 3.915c-.212-.022-.337-.085-.495-.167l-.243-.12c.093-1.272.396-2.615 1.14-3.593zm-2.232 6.438c.006-.335.023-.737.058-1.18.02.438.053.838.09 1.18h-.148z" fill="#206FAC"/><path d="M15.002 83.338c.204-.18.46-.267.726-.242.192.018.37.092.52.213l.015.04c.083.185.26.31.457.31h.07c.195 0 .374-.125.457-.31l.016-.04c.362-.298.882-.298 1.245.03.214.19.532.16.71-.07.18-.226.152-.563-.06-.753-.41-.365-.93-.54-1.464-.49-.342.032-.663.152-.94.35-.277-.198-.598-.318-.94-.35-.532-.05-1.052.124-1.462.49-.214.19-.24.526-.062.752.18.225.498.255.71.065zm-1.488 2.48c.158-.14.38-.15.544-.04.086.178.26.29.45.29h.043c.19 0 .366-.112.45-.29.168-.11.39-.1.547.04.214.19.532.16.71-.066.18-.226.152-.563-.06-.753-.48-.43-1.146-.476-1.664-.17-.517-.307-1.182-.26-1.663.166-.215.19-.24.526-.063.752.18.225.497.254.71.065zm17.484 21.997h-6.3l.27-1.48c.54-.008.837-.16 1.077-.285.198-.102.34-.177.67-.177s.474.074.672.177c.246.127.55.285 1.114.285.567 0 .87-.158 1.118-.285.198-.102.34-.177.67-.177.28 0 .506-.24.506-.534 0-.3-.225-.538-.504-.538-.564 0-.87.158-1.115.285-.198.1-.34.176-.67.176s-.474-.074-.672-.177c-.246-.128-.55-.286-1.114-.286-.565 0-.87.16-1.116.286-.144.073-.26.132-.437.16l.442-2.42c.082.027.17.032.26.01l.36-.09.31.21c.114.077.253.102.386.07l.36-.09.312.21c.113.076.252.1.385.07l.36-.09.313.21c.114.076.253.1.386.067l.36-.09.313.21c.08.056.175.084.27.084l.116-.013.493-.122.058.004c.1 0 .2-.03.288-.097.23-.17.285-.5.126-.746l-4.46-6.795c-.078-.12-.197-.2-.33-.223-.135-.024-.27.01-.38.095l-6.325 4.862c-.226.174-.276.508-.11.746.072.11.18.176.29.205l.43.29c.116.077.255.102.39.07l.36-.09.31.21c.115.076.255.1.387.068l.36-.09.313.21c.116.077.255.102.388.07l.36-.09.312.21c.115.076.254.1.387.068l.36-.09.31.21.19.078-.435 2.387c-.232-.117-.53-.24-1.028-.24-.563 0-.868.157-1.114.284-.198.1-.34.176-.67.176s-.473-.073-.67-.176c-.247-.128-.552-.286-1.115-.286s-.868.157-1.114.284c-.196.102-.34.177-.67.177s-.47-.073-.67-.176c-.245-.13-.55-.287-1.113-.287s-.87.157-1.115.284c-.197.102-.34.177-.67.177s-.47-.073-.67-.176c-.245-.128-.55-.286-1.113-.286s-.868.157-1.114.284c-.198.102-.34.177-.67.177s-.472-.073-.67-.176c-.246-.128-.55-.286-1.114-.286-.42 0-.696.088-.912.185.26-.895.67-1.805 1.317-2.557 1.025-1.19 2.494-1.796 4.367-1.796 2.307 0 4.434-.955 5.99-2.69 1.305-1.456 2.114-3.353 2.33-5.43.446.46.737 1.048.832 1.695.11.754-.063 1.504-.49 2.11-.165.237-.12.572.104.75.09.07.195.104.3.104.154 0 .306-.073.405-.214.59-.84.83-1.874.677-2.914-.105-.718-.388-1.38-.816-1.937 1.208-.014 2.368.76 2.822 1.997.078.21.268.34.47.34l.184-.035c.26-.107.39-.417.288-.692-.604-1.647-2.14-2.68-3.746-2.678.798-.784 2.025-1.03 3.13-.524.256.117.553-.007.664-.278.11-.27-.007-.586-.263-.703-1.333-.61-2.804-.398-3.874.424-.164-1.39-1.023-2.67-2.357-3.28-.256-.118-.553.006-.664.277-.11.27.005.585.26.703 1.106.506 1.777 1.623 1.783 2.775-1.097-1.24-2.86-1.72-4.408-1.06-.26.11-.384.425-.28.7.105.273.4.405.658.295 1.163-.498 2.49-.13 3.307.81-.678.05-1.327.287-1.893.697-.822.595-1.37 1.49-1.544 2.517-.05.29.133.566.408.62l.09.01c.24 0 .455-.185.498-.44.126-.747.524-1.394 1.12-1.825.404-.292.866-.464 1.35-.508-.365 3.954-3.218 6.55-7.33 6.55-3.225 0-5.706 1.76-7.174 5.085-.155.352-.29.702-.41 1.046-.19-.07-.43-.123-.755-.123h-.08l.282-4.666c.46-.15.975-.225 1.54-.225 3.277 0 5.238-4.38 5.96-6.373.646.082 1.22.408 1.625.925.396.507.58 1.142.517 1.79-.03.293.173.556.45.586l.052.004c.255 0 .475-.205.502-.48.09-.934-.173-1.85-.743-2.58-.366-.47-.83-.825-1.354-1.052.88-.506 2.003-.45 2.823.227.22.18.537.14.708-.093.174-.234.135-.57-.085-.75-1.14-.943-2.7-1.023-3.92-.325.09-.256.218-.498.386-.72.41-.54 1.005-.89 1.67-.98.278-.038.474-.306.438-.598-.035-.293-.288-.5-.565-.46-.926.125-1.753.612-2.33 1.368-.176.233-.322.482-.437.743-.174-.223-.375-.425-.602-.6-.738-.58-1.655-.827-2.58-.7-.277.04-.473.306-.437.6.036.29.288.5.565.46.67-.09 1.327.085 1.855.497.216.17.4.37.545.593-1.348-.347-2.84.15-3.714 1.368-.17.236-.126.57.096.75.092.074.2.11.306.11.152 0 .303-.074.402-.21.674-.938 1.854-1.28 2.872-.92-.67 1.61-2.385 4.98-4.996 4.98-.5 0-.975.057-1.424.164l.59-9.676c.512.244.942.634 1.242 1.138.385.646.507 1.407.344 2.143-.064.287.104.575.375.643l.117.013c.23 0 .436-.165.49-.41.227-1.017.06-2.068-.47-2.958-.367-.614-.875-1.103-1.477-1.435 1.104-.52 2.458-.3 3.34.646.1.105.23.158.36.158.127 0 .255-.05.354-.153.197-.207.2-.546.004-.756-1.174-1.256-2.972-1.56-4.444-.88.438-1.055 1.472-1.8 2.676-1.8.28 0 .505-.24.505-.533 0-.295-.227-.534-.506-.534-1.453 0-2.723.814-3.396 2.02-.674-1.206-1.943-2.02-3.396-2.02-.28 0-.504.24-.504.534 0 .295.226.534.505.534 1.205 0 2.24.744 2.677 1.8-1.472-.68-3.27-.377-4.443.88-.196.21-.194.55.005.757.097.103.225.154.353.154.13 0 .26-.052.36-.16.88-.943 2.235-1.164 3.338-.644-.6.33-1.11.82-1.474 1.435-.53.89-.7 1.94-.474 2.96.055.246.262.41.49.41l.117-.012c.27-.068.44-.355.376-.643-.165-.737-.043-1.498.343-2.144.287-.482.696-.86 1.182-1.105L4.052 98.9c-.43.273-.824.61-1.18 1.014-1.14 1.29-1.88 3.202-2.202 5.686-.12.936-.157 1.77-.163 2.37-.292.187-.488.526-.488.914 0 .59.45 1.07 1.005 1.07H31c.56 0 1.01-.48 1.01-1.07s-.452-1.07-1.01-1.07zm-24.4-1.102c-.043.41-.064.783-.072 1.102H6.38c.05-.32.122-.693.22-1.102zm22.782-4.484l-.36.09-.312-.21c-.115-.08-.255-.107-.387-.07l-.36.09-.31-.21c-.113-.08-.253-.105-.385-.07l-.36.09-.312-.21c-.114-.08-.253-.105-.386-.07l-.36.09-.312-.21c-.114-.08-.253-.1-.386-.07l-.36.09-.313-.21c-.115-.077-.255-.1-.387-.07l-.36.09-.313-.21c-.115-.076-.254-.1-.387-.07l-.36.09-.312-.21c-.115-.076-.255-.1-.387-.067l-.36.09-.31-.21-.17-.07 4.947-3.805 3.49 5.315-.182.008zm-21.177 3.82c.198-.105.34-.18.67-.18s.472.074.67.177c.246.126.55.284 1.114.284.563 0 .868-.157 1.114-.284.2-.103.345-.178.67-.178s.476.073.675.176c.245.126.55.284 1.114.284.562 0 .867-.158 1.113-.285.2-.103.34-.178.67-.178s.473.074.67.177c.247.126.55.284 1.115.284.563 0 .87-.158 1.114-.285.198-.102.34-.177.67-.177s.47.074.67.177c.247.126.55.284 1.115.284s.868-.158 1.114-.285c.198-.103.34-.178.67-.178s.473.074.67.177l.16.08-.31 1.684H7.54c.013-.43.05-.966.142-1.552.22-.058.38-.14.522-.214zm-2.898-.18c.197 0 .327.027.442.07-.196.72-.318 1.37-.394 1.872h-.31l.12-1.936.142-.007zm-2.62 1.942c-.052-.454-.1-1.037-.11-1.682.167.08.37.155.653.187l-.165 1.495h-.377zm1.063-6.438l.03-.037-.433 3.915c-.212-.022-.337-.085-.495-.167l-.243-.12c.093-1.272.396-2.615 1.14-3.593zm-2.232 6.438c.006-.335.023-.737.058-1.18.02.438.053.838.09 1.18h-.148z" fill="#fff"/><path d="M15.002 43.338c.204-.18.46-.267.726-.242.192.018.37.092.52.213l.015.04c.083.185.26.31.457.31h.07c.195 0 .374-.125.457-.31l.016-.04c.362-.298.882-.298 1.245.03.214.19.532.16.71-.07.18-.226.152-.563-.06-.753-.41-.365-.93-.54-1.464-.49-.342.032-.663.152-.94.35-.277-.198-.598-.318-.94-.35-.532-.05-1.052.124-1.462.49-.214.19-.24.526-.062.752.18.225.498.255.71.065zm-1.488 2.48c.158-.14.38-.15.544-.04.086.178.26.29.45.29h.043c.19 0 .366-.112.45-.29.168-.11.39-.1.547.04.214.19.532.16.71-.066.18-.226.152-.563-.06-.753-.48-.43-1.146-.476-1.664-.17-.517-.307-1.182-.26-1.663.166-.215.19-.24.526-.063.752.18.225.497.254.71.065zm17.484 21.997h-6.3l.27-1.48c.54-.008.837-.16 1.077-.285.198-.102.34-.177.67-.177s.474.074.672.177c.246.127.55.285 1.114.285.567 0 .87-.158 1.118-.285.198-.102.34-.177.67-.177.28 0 .506-.24.506-.534 0-.3-.225-.538-.504-.538-.564 0-.87.158-1.115.285-.198.1-.34.176-.67.176s-.474-.074-.672-.177c-.246-.128-.55-.286-1.114-.286-.565 0-.87.16-1.116.286-.144.073-.26.132-.437.16l.442-2.42c.082.027.17.032.26.01l.36-.09.31.21c.114.077.253.102.386.07l.36-.09.312.21c.113.076.252.1.385.07l.36-.09.313.21c.114.076.253.1.386.067l.36-.09.313.21c.08.056.175.084.27.084l.116-.013.493-.122.058.004c.1 0 .2-.03.288-.097.23-.17.285-.5.126-.746l-4.46-6.795c-.078-.12-.197-.2-.33-.223-.135-.024-.27.01-.38.095l-6.325 4.862c-.226.174-.276.508-.11.746.072.11.18.176.29.205l.43.29c.116.077.255.102.39.07l.36-.09.31.21c.115.076.255.1.387.068l.36-.09.313.21c.116.077.255.102.388.07l.36-.09.312.21c.115.076.254.1.387.068l.36-.09.31.21.19.078-.435 2.387c-.232-.117-.53-.24-1.028-.24-.563 0-.868.157-1.114.284-.198.1-.34.176-.67.176s-.473-.073-.67-.176c-.247-.128-.552-.286-1.115-.286s-.868.157-1.114.284c-.196.102-.34.177-.67.177s-.47-.073-.67-.176c-.245-.13-.55-.287-1.113-.287s-.87.157-1.115.284c-.197.102-.34.177-.67.177s-.47-.073-.67-.176c-.245-.128-.55-.286-1.113-.286s-.868.157-1.114.284c-.198.102-.34.177-.67.177s-.472-.073-.67-.176c-.246-.128-.55-.286-1.114-.286-.42 0-.696.088-.912.185.26-.895.67-1.805 1.317-2.557 1.025-1.19 2.494-1.796 4.367-1.796 2.307 0 4.434-.955 5.99-2.69 1.305-1.456 2.114-3.353 2.33-5.43.446.46.737 1.048.832 1.695.11.754-.063 1.504-.49 2.11-.165.237-.12.572.104.75.09.07.195.104.3.104.154 0 .306-.073.405-.214.59-.84.83-1.874.677-2.914-.105-.718-.388-1.38-.816-1.937 1.208-.014 2.368.76 2.822 1.997.078.21.268.34.47.34l.184-.035c.26-.107.39-.417.288-.692-.604-1.647-2.14-2.68-3.746-2.678.798-.784 2.025-1.03 3.13-.524.256.117.553-.007.664-.278.11-.27-.007-.586-.263-.703-1.333-.61-2.804-.398-3.874.424-.164-1.39-1.023-2.67-2.357-3.28-.256-.118-.553.006-.664.277-.11.27.005.585.26.703 1.106.506 1.777 1.623 1.783 2.775-1.097-1.24-2.86-1.72-4.408-1.06-.26.11-.384.425-.28.7.105.273.4.405.658.295 1.163-.498 2.49-.13 3.307.81-.678.05-1.327.287-1.893.697-.822.595-1.37 1.49-1.544 2.517-.05.29.133.566.408.62l.09.01c.24 0 .455-.185.498-.44.126-.747.524-1.394 1.12-1.825.404-.292.866-.464 1.35-.508-.365 3.954-3.218 6.55-7.33 6.55-3.225 0-5.706 1.76-7.174 5.085-.155.352-.29.702-.41 1.046-.19-.07-.43-.123-.755-.123h-.08l.282-4.666c.46-.15.975-.225 1.54-.225 3.277 0 5.238-4.38 5.96-6.373.646.082 1.22.408 1.625.925.396.507.58 1.142.517 1.79-.03.293.173.556.45.586l.052.004c.255 0 .475-.205.502-.48.09-.934-.173-1.85-.743-2.58-.366-.47-.83-.825-1.354-1.052.88-.506 2.003-.45 2.823.227.22.18.537.14.708-.093.174-.234.135-.57-.085-.75-1.14-.943-2.7-1.023-3.92-.325.09-.256.218-.498.386-.72.41-.54 1.005-.89 1.67-.98.278-.038.474-.306.438-.598-.035-.293-.288-.5-.565-.46-.926.125-1.753.612-2.33 1.368-.176.233-.322.482-.437.743-.174-.223-.375-.425-.602-.6-.738-.58-1.655-.827-2.58-.7-.277.04-.473.306-.437.6.036.29.288.5.565.46.67-.09 1.327.085 1.855.497.216.17.4.37.545.593-1.348-.347-2.84.15-3.714 1.368-.17.236-.126.57.096.75.092.074.2.11.306.11.152 0 .303-.074.402-.21.674-.938 1.854-1.28 2.872-.92-.67 1.61-2.385 4.98-4.996 4.98-.5 0-.975.057-1.424.164l.59-9.676c.512.244.942.634 1.242 1.138.385.646.507 1.407.344 2.143-.064.287.104.575.375.643l.117.013c.23 0 .436-.165.49-.41.227-1.017.06-2.068-.47-2.958-.367-.614-.875-1.103-1.477-1.435 1.104-.52 2.458-.3 3.34.646.1.105.23.158.36.158.127 0 .255-.05.354-.153.197-.207.2-.546.004-.756-1.174-1.256-2.972-1.56-4.444-.88.438-1.055 1.472-1.8 2.676-1.8.28 0 .505-.24.505-.533 0-.295-.227-.534-.506-.534-1.453 0-2.723.814-3.396 2.02-.674-1.206-1.943-2.02-3.396-2.02-.28 0-.504.24-.504.534 0 .295.226.534.505.534 1.205 0 2.24.744 2.677 1.8-1.472-.68-3.27-.377-4.443.88-.196.21-.194.55.005.757.097.103.225.154.353.154.13 0 .26-.052.36-.16.88-.943 2.235-1.164 3.338-.644-.6.33-1.11.82-1.474 1.435-.53.89-.7 1.94-.474 2.96.055.246.262.41.49.41l.117-.012c.27-.068.44-.355.376-.643-.165-.737-.043-1.498.343-2.144.287-.482.696-.86 1.182-1.105L4.052 58.9c-.43.273-.824.61-1.18 1.014C1.73 61.204.99 63.116.67 65.6c-.12.936-.157 1.77-.163 2.37-.292.187-.488.526-.488.914 0 .59.45 1.07 1.005 1.07H31c.56 0 1.01-.48 1.01-1.07s-.452-1.07-1.01-1.07zm-24.4-1.102c-.043.41-.064.783-.072 1.102H6.38c.05-.32.122-.693.22-1.102zM29.38 62.23l-.36.09-.312-.21c-.115-.08-.255-.104-.387-.07l-.36.09-.31-.21c-.113-.077-.253-.102-.385-.07l-.36.09-.312-.21c-.114-.076-.253-.102-.386-.068l-.36.09-.312-.21c-.114-.078-.253-.102-.386-.07l-.36.09-.313-.21c-.115-.076-.255-.1-.387-.068l-.36.09-.313-.21c-.115-.077-.254-.102-.387-.07l-.36.09-.312-.21c-.115-.077-.255-.102-.387-.068l-.36.09-.31-.21-.17-.07 4.947-3.805 3.49 5.32-.182.007zM8.203 66.05c.198-.102.34-.177.67-.177s.472.074.67.177c.246.127.55.285 1.114.285.563 0 .868-.158 1.114-.285.2-.102.345-.177.67-.177s.476.074.675.177c.245.127.55.285 1.114.285.562 0 .867-.158 1.113-.285.2-.102.34-.177.67-.177s.473.074.67.177c.247.127.55.285 1.115.285.563 0 .87-.158 1.114-.285.198-.102.34-.177.67-.177s.47.074.67.177c.247.127.55.285 1.115.285s.868-.158 1.114-.285c.198-.102.34-.177.67-.177s.473.074.67.177l.16.08-.31 1.686H7.54c.013-.43.05-.966.142-1.552.22-.058.38-.14.522-.214zm-2.898-.177c.197 0 .327.027.442.07-.196.72-.318 1.37-.394 1.872h-.31l.12-1.936.142-.01zm-2.62 1.942c-.052-.454-.1-1.037-.11-1.682.167.08.37.154.653.186l-.165 1.492h-.377zm1.063-6.438l.03-.037-.433 3.916c-.212-.022-.337-.085-.495-.167l-.243-.12c.093-1.275.396-2.618 1.14-3.596zm-2.232 6.438c.006-.335.023-.737.058-1.18.02.438.053.838.09 1.18h-.148z" fill="#67737B"/><path d="M15.002 3.338c.204-.18.46-.267.726-.242.192.018.37.092.52.213l.015.04c.083.185.26.31.457.31h.07c.195 0 .374-.125.457-.31l.016-.04c.362-.298.882-.298 1.245.03.214.19.532.16.71-.07.18-.226.152-.563-.06-.753-.41-.365-.93-.54-1.464-.49-.342.032-.663.152-.94.35-.277-.198-.598-.318-.94-.35-.532-.05-1.052.124-1.462.49-.214.19-.24.526-.062.752.18.225.498.255.71.065zm-1.488 2.48c.158-.14.38-.15.544-.04.086.178.26.29.45.29h.043c.19 0 .366-.112.45-.29.168-.11.39-.1.547.04.214.19.532.16.71-.066.18-.226.152-.563-.06-.753-.48-.43-1.146-.476-1.664-.17-.517-.307-1.182-.26-1.663.166-.215.19-.24.526-.063.752.18.225.497.254.71.065zm17.484 21.997h-6.3l.27-1.48c.54-.008.837-.16 1.077-.285.198-.102.34-.177.67-.177s.474.074.672.177c.246.127.55.285 1.114.285.567 0 .87-.158 1.118-.285.198-.102.34-.177.67-.177.28 0 .506-.24.506-.534 0-.3-.225-.538-.504-.538-.564 0-.87.158-1.115.285-.198.1-.34.176-.67.176s-.474-.074-.672-.177c-.246-.128-.55-.286-1.114-.286-.565 0-.87.16-1.116.286-.144.073-.26.132-.437.16l.442-2.42c.082.027.17.032.26.01l.36-.09.31.21c.114.077.253.102.386.07l.36-.09.312.21c.113.076.252.1.385.07l.36-.09.313.21c.114.076.253.1.386.067l.36-.09.313.21c.08.056.175.084.27.084l.116-.013.493-.122.058.004c.1 0 .2-.03.288-.097.23-.17.285-.5.126-.746l-4.46-6.795c-.078-.12-.197-.2-.33-.223-.135-.024-.27.01-.38.095l-6.325 4.862c-.226.174-.276.508-.11.746.072.11.18.176.29.205l.43.29c.116.077.255.102.39.07l.36-.09.31.21c.115.076.255.1.387.068l.36-.09.313.21c.116.077.255.102.388.07l.36-.09.312.21c.115.076.254.1.387.068l.36-.09.31.21.19.078-.435 2.387c-.232-.117-.53-.24-1.028-.24-.563 0-.868.157-1.114.284-.198.1-.34.176-.67.176s-.473-.073-.67-.176c-.247-.128-.552-.286-1.115-.286s-.868.157-1.114.284c-.196.102-.34.177-.67.177s-.47-.073-.67-.176c-.245-.13-.55-.287-1.113-.287s-.87.157-1.115.284c-.197.102-.34.177-.67.177s-.47-.073-.67-.176c-.245-.128-.55-.286-1.113-.286s-.868.157-1.114.284c-.198.102-.34.177-.67.177s-.472-.073-.67-.176c-.246-.128-.55-.286-1.114-.286-.42 0-.696.088-.912.185.26-.895.67-1.805 1.317-2.557 1.025-1.19 2.494-1.796 4.367-1.796 2.307 0 4.434-.955 5.99-2.69 1.305-1.456 2.114-3.353 2.33-5.43.446.46.737 1.048.832 1.695.11.754-.063 1.504-.49 2.11-.165.237-.12.572.104.75.09.07.195.104.3.104.154 0 .306-.073.405-.214.59-.84.83-1.874.677-2.914-.105-.718-.388-1.38-.816-1.937 1.208-.014 2.368.76 2.822 1.997.078.21.268.34.47.34l.184-.035c.26-.107.39-.417.288-.692-.604-1.647-2.14-2.68-3.746-2.678.798-.784 2.025-1.03 3.13-.524.256.117.553-.007.664-.278.11-.27-.007-.586-.263-.703-1.333-.61-2.804-.398-3.874.424-.164-1.39-1.023-2.67-2.357-3.28-.256-.118-.553.006-.664.277-.11.27.005.585.26.703 1.106.506 1.777 1.623 1.783 2.775-1.097-1.24-2.86-1.72-4.408-1.06-.26.11-.384.425-.28.7.105.273.4.405.658.295 1.163-.498 2.49-.13 3.307.81-.678.05-1.327.287-1.893.697-.822.595-1.37 1.49-1.544 2.517-.05.29.133.566.408.62l.09.01c.24 0 .455-.185.498-.44.126-.747.524-1.394 1.12-1.825.404-.292.866-.464 1.35-.508-.365 3.954-3.218 6.55-7.33 6.55-3.225 0-5.706 1.76-7.174 5.085-.155.352-.29.702-.41 1.046-.19-.07-.43-.123-.755-.123h-.08l.282-4.666c.46-.15.975-.225 1.54-.225 3.277 0 5.238-4.38 5.96-6.373.646.082 1.22.408 1.625.925.396.507.58 1.142.517 1.79-.03.293.173.556.45.586l.052.004c.255 0 .475-.205.502-.48.09-.934-.173-1.85-.743-2.58-.366-.47-.83-.825-1.354-1.052.88-.506 2.003-.45 2.823.227.22.18.537.14.708-.093.174-.234.135-.57-.085-.75-1.14-.943-2.7-1.023-3.92-.325.09-.256.218-.498.386-.72.41-.54 1.005-.89 1.67-.98.278-.038.474-.306.438-.598-.035-.293-.288-.5-.565-.46-.926.125-1.753.612-2.33 1.368-.176.233-.322.482-.437.743-.174-.223-.375-.425-.602-.6-.738-.58-1.655-.827-2.58-.7-.277.04-.473.306-.437.6.036.29.288.5.565.46.67-.09 1.327.085 1.855.497.216.17.4.37.545.593-1.348-.347-2.84.15-3.714 1.368-.17.236-.126.57.096.75.092.074.2.11.306.11.152 0 .303-.074.402-.21.674-.938 1.854-1.28 2.872-.92-.67 1.61-2.385 4.98-4.996 4.98-.5 0-.975.057-1.424.164l.59-9.676c.512.244.942.634 1.242 1.138.385.646.507 1.407.344 2.143-.064.287.104.575.375.643l.117.013c.23 0 .436-.165.49-.41.227-1.017.06-2.068-.47-2.958-.367-.614-.875-1.103-1.477-1.435 1.104-.52 2.458-.3 3.34.646.1.105.23.158.36.158.127 0 .255-.05.354-.153.197-.207.2-.546.004-.756C9.73 6.325 7.932 6.02 6.46 6.7c.438-1.055 1.472-1.8 2.676-1.8.28 0 .505-.24.505-.533 0-.295-.227-.534-.506-.534-1.453 0-2.723.814-3.396 2.02-.674-1.206-1.943-2.02-3.396-2.02-.28 0-.504.24-.504.534 0 .295.226.534.505.534 1.205 0 2.24.744 2.677 1.8-1.472-.68-3.27-.377-4.443.88-.196.21-.194.55.005.757.097.103.225.154.353.154.13 0 .26-.052.36-.16.88-.943 2.235-1.164 3.338-.644-.6.33-1.11.82-1.474 1.435-.53.89-.7 1.94-.474 2.96.055.246.262.41.49.41l.117-.012c.27-.068.44-.355.376-.643-.165-.737-.043-1.498.343-2.144.287-.482.696-.86 1.182-1.105L4.052 18.9c-.43.273-.824.61-1.18 1.014C1.73 21.204.99 23.116.67 25.6c-.12.936-.157 1.77-.163 2.37-.292.187-.488.526-.488.914 0 .59.45 1.07 1.005 1.07H31c.56 0 1.01-.48 1.01-1.07s-.452-1.07-1.01-1.07zm-24.4-1.102c-.043.41-.064.783-.072 1.102H6.38c.05-.32.122-.693.22-1.102zM29.38 22.23l-.36.09-.312-.21c-.115-.08-.255-.104-.387-.07l-.36.09-.31-.21c-.113-.077-.253-.102-.385-.07l-.36.09-.312-.21c-.114-.076-.253-.102-.386-.068l-.36.09-.312-.21c-.114-.078-.253-.102-.386-.07l-.36.09-.313-.21c-.115-.076-.255-.1-.387-.068l-.36.09-.313-.21c-.115-.077-.254-.102-.387-.07l-.36.09-.312-.21c-.115-.077-.255-.102-.387-.068l-.36.09-.31-.21-.17-.07 4.947-3.805 3.49 5.32-.182.007zM8.203 26.05c.198-.102.34-.177.67-.177s.472.074.67.177c.246.127.55.285 1.114.285.563 0 .868-.158 1.114-.285.2-.102.345-.177.67-.177s.476.074.675.177c.245.127.55.285 1.114.285.562 0 .867-.158 1.113-.285.2-.102.34-.177.67-.177s.473.074.67.177c.247.127.55.285 1.115.285.563 0 .87-.158 1.114-.285.198-.102.34-.177.67-.177s.47.074.67.177c.247.127.55.285 1.115.285s.868-.158 1.114-.285c.198-.102.34-.177.67-.177s.473.074.67.177l.16.08-.31 1.686H7.54c.013-.43.05-.966.142-1.552.22-.058.38-.14.522-.214zm-2.898-.177c.197 0 .327.027.442.07-.196.72-.318 1.37-.394 1.872h-.31l.12-1.936.142-.01zm-2.62 1.942c-.052-.454-.1-1.037-.11-1.682.167.08.37.154.653.186l-.165 1.492h-.377zm1.063-6.438l.03-.037-.433 3.916c-.212-.022-.337-.085-.495-.167l-.243-.12c.093-1.275.396-2.618 1.14-3.596zm-2.232 6.438c.006-.335.023-.737.058-1.18.02.438.053.838.09 1.18h-.148z" fill="#3A434E"/></g></svg>