<svg width="32" height="232" viewBox="0 0 32 232" xmlns="http://www.w3.org/2000/svg"><title>the-philippines</title><desc>Created with Sketch.</desc><g fill="none"><path d="M15.002 123.338c.204-.18.46-.267.726-.242.192.018.37.092.52.213l.015.04c.083.188.26.31.457.31h.07c.195 0 .374-.122.457-.31l.016-.04c.362-.295.882-.295 1.245.03.214.19.532.16.71-.067.18-.226.152-.563-.06-.753-.41-.364-.93-.54-1.464-.49-.342.033-.663.153-.94.35-.277-.197-.598-.317-.94-.35-.532-.048-1.052.125-1.462.49-.214.19-.24.527-.062.753.18.226.498.256.71.066zm-1.488 2.48c.158-.14.38-.15.544-.04.086.178.26.29.45.29h.043c.19 0 .363-.112.45-.29.165-.11.386-.1.544.04.214.19.532.16.71-.066.18-.226.152-.563-.06-.753-.48-.428-1.146-.473-1.664-.168-.518-.306-1.183-.26-1.664.167-.214.19-.24.526-.062.752.18.226.497.255.71.066zm17.484 21.997h-6.3l.27-1.48c.54-.008.837-.16 1.077-.285.198-.102.34-.177.67-.177s.474.074.672.177c.246.127.55.285 1.114.285.564 0 .87-.158 1.115-.285.198-.102.34-.177.67-.177.28 0 .506-.24.506-.534 0-.296-.225-.535-.504-.535-.563 0-.87.158-1.114.285-.198.102-.34.177-.67.177s-.474-.074-.672-.177c-.246-.127-.55-.285-1.114-.285-.563 0-.868.158-1.114.285-.144.074-.26.133-.437.16l.442-2.42c.084.028.173.033.26.01l.36-.09.312.21c.114.078.253.103.386.07l.36-.09.312.21c.115.077.254.102.387.07l.36-.09.313.21c.115.077.254.1.387.068l.36-.09.313.21c.082.056.176.084.27.084l.117-.014.492-.122.058.004c.1 0 .2-.03.287-.096.23-.168.285-.5.126-.744l-4.46-6.794c-.077-.118-.196-.198-.33-.222-.134-.024-.27.01-.38.095l-6.324 4.862c-.226.174-.276.508-.112.746.074.108.18.175.292.204l.43.29c.116.077.255.102.388.07l.36-.09.312.21c.115.076.255.1.387.068l.36-.09.313.21c.115.077.254.102.387.07l.36-.09.312.21c.115.076.254.1.387.068l.36-.09.31.21.19.076-.436 2.387c-.232-.116-.53-.24-1.028-.24-.563 0-.868.158-1.114.285-.198.102-.34.177-.67.177s-.473-.074-.67-.177c-.247-.127-.552-.285-1.115-.285s-.868.158-1.114.285c-.198.102-.34.177-.67.177s-.473-.074-.67-.177c-.247-.127-.552-.285-1.115-.285s-.868.158-1.114.285c-.198.102-.34.177-.67.177s-.472-.074-.67-.177c-.246-.127-.55-.285-1.114-.285-.563 0-.868.158-1.114.285-.198.102-.34.177-.67.177s-.472-.074-.67-.177c-.246-.127-.55-.285-1.114-.285-.42 0-.696.088-.912.185.26-.895.67-1.805 1.316-2.557 1.025-1.192 2.494-1.797 4.367-1.797 2.307 0 4.434-.955 5.99-2.69 1.305-1.456 2.114-3.353 2.33-5.43.446.46.737 1.048.832 1.695.11.755-.063 1.505-.49 2.11-.165.238-.12.573.104.75.09.07.195.105.3.105.154 0 .306-.074.405-.215.59-.838.83-1.873.677-2.913-.105-.718-.388-1.38-.816-1.937 1.208-.013 2.368.76 2.822 1.998.078.21.268.34.47.34l.184-.035c.26-.107.39-.417.288-.692-.604-1.647-2.14-2.68-3.746-2.678.798-.784 2.025-1.03 3.13-.524.256.117.553-.007.664-.278.11-.27-.007-.586-.263-.703-1.333-.61-2.804-.398-3.874.424-.165-1.39-1.024-2.67-2.358-3.282-.256-.117-.553.007-.664.278-.11.27.007.585.263.703 1.105.506 1.776 1.623 1.782 2.775-1.097-1.24-2.86-1.72-4.408-1.06-.26.11-.384.423-.28.697.105.274.4.406.658.296 1.163-.497 2.49-.13 3.307.812-.678.05-1.327.286-1.893.696-.822.595-1.37 1.49-1.544 2.517-.05.29.133.568.408.62l.09.01c.24 0 .453-.183.496-.44.126-.745.524-1.392 1.12-1.823.404-.292.866-.464 1.35-.508-.365 3.954-3.218 6.55-7.33 6.55-3.225 0-5.706 1.76-7.174 5.085-.155.352-.29.702-.41 1.046-.19-.07-.43-.122-.755-.122H5.23l.283-4.666c.46-.15.974-.225 1.54-.225 3.276 0 5.237-4.38 5.96-6.373.645.082 1.22.408 1.624.925.396.507.58 1.142.517 1.79-.03.293.173.556.45.586l.052.004c.255 0 .475-.205.502-.48.09-.934-.173-1.85-.743-2.58-.366-.47-.83-.825-1.354-1.052.878-.506 2.002-.45 2.822.227.22.18.537.14.708-.093.172-.233.133-.568-.087-.75-1.14-.942-2.7-1.022-3.92-.324.09-.256.218-.498.386-.72.41-.54 1.004-.89 1.67-.98.277-.038.473-.306.437-.598-.035-.293-.288-.5-.565-.46-.926.125-1.753.612-2.33 1.368-.176.233-.322.482-.437.743-.174-.222-.375-.424-.602-.6-.738-.578-1.655-.826-2.58-.7-.277.04-.473.307-.437.6.036.292.288.5.565.46.668-.09 1.325.086 1.853.498.216.17.4.37.545.593-1.347-.347-2.838.15-3.713 1.368-.17.235-.126.57.096.75.092.073.2.108.306.108.152 0 .303-.073.402-.21.674-.937 1.854-1.28 2.872-.918-.67 1.61-2.385 4.98-4.996 4.98-.5 0-.975.056-1.424.163l.59-9.677c.512.244.942.634 1.242 1.138.385.646.507 1.407.344 2.143-.064.288.104.576.375.644l.117.014c.23 0 .436-.166.49-.412.227-1.017.06-2.068-.47-2.958-.367-.614-.875-1.103-1.477-1.435 1.104-.52 2.458-.3 3.34.646.1.105.23.158.36.158.127 0 .255-.05.354-.154.198-.207.2-.546.005-.756-1.174-1.257-2.972-1.56-4.444-.882.438-1.054 1.472-1.798 2.676-1.798.28 0 .505-.24.505-.534 0-.295-.226-.534-.505-.534-1.453 0-2.723.814-3.396 2.02-.674-1.206-1.943-2.02-3.396-2.02-.28 0-.505.24-.505.534 0 .295.226.534.505.534 1.204 0 2.238.743 2.676 1.798-1.472-.678-3.27-.376-4.443.882-.196.21-.194.548.005.756.098.103.226.154.354.154.13 0 .26-.053.36-.16.88-.944 2.235-1.165 3.338-.645-.6.33-1.11.82-1.475 1.434-.53.89-.7 1.94-.473 2.958.055.246.262.412.49.412l.117-.014c.27-.068.438-.355.375-.643-.164-.736-.042-1.497.344-2.143.287-.484.696-.862 1.182-1.107l-1.14 10.31c-.43.273-.824.61-1.18 1.014-1.14 1.29-1.88 3.202-2.202 5.686-.12.936-.157 1.77-.163 2.37-.292.187-.488.526-.488.914 0 .59.45 1.07 1.008 1.07H31c.56 0 1.01-.48 1.01-1.07s-.452-1.07-1.01-1.07zm-24.4-1.102c-.043.41-.064.783-.072 1.102H6.38c.05-.32.122-.693.22-1.102zm22.782-4.484l-.36.09-.312-.21c-.115-.08-.255-.104-.387-.07l-.36.09-.31-.21c-.116-.077-.256-.102-.388-.07l-.36.09-.312-.21c-.115-.076-.254-.102-.387-.068l-.36.09-.312-.21c-.114-.078-.253-.102-.386-.07l-.36.09-.312-.21c-.115-.076-.255-.1-.387-.068l-.36.09-.312-.21c-.115-.077-.254-.102-.387-.07l-.36.09-.312-.21c-.115-.077-.255-.102-.387-.068l-.36.09-.312-.21-.168-.07 4.947-3.805 3.49 5.316-.182.008zm-21.177 3.82c.198-.102.34-.177.67-.177s.472.074.67.177c.246.127.55.285 1.114.285.563 0 .868-.158 1.114-.285.2-.102.342-.177.67-.177s.473.074.672.177c.245.127.55.285 1.114.285.563 0 .868-.158 1.114-.285.198-.102.34-.177.67-.177s.472.074.67.177c.246.127.55.285 1.114.285.563 0 .87-.158 1.114-.285.198-.102.34-.177.67-.177s.472.074.67.177c.247.127.552.285 1.115.285s.868-.158 1.114-.285c.198-.102.34-.177.67-.177s.473.074.67.177l.16.08-.308 1.686H7.54c.013-.43.05-.966.142-1.552.22-.058.38-.14.522-.214zm-2.898-.177c.197 0 .327.027.442.07-.196.72-.318 1.37-.394 1.872h-.31l.12-1.936.142-.007zm-2.62 1.942c-.052-.454-.1-1.037-.11-1.682.167.08.37.154.653.186l-.165 1.495h-.377zm1.063-6.438l.03-.037-.433 3.916c-.212-.022-.337-.085-.495-.167l-.243-.12c.093-1.272.396-2.615 1.14-3.593zm-2.232 6.438c.006-.335.023-.737.058-1.18.02.438.053.838.09 1.18h-.148z" fill="#206FAC"/><path d="M15.002 83.338c.204-.18.46-.267.726-.242.192.018.37.092.52.213l.015.04c.083.188.26.31.457.31h.07c.195 0 .374-.122.457-.31l.016-.04c.362-.295.882-.295 1.245.03.214.19.532.16.71-.067.18-.226.152-.563-.06-.753-.41-.364-.93-.54-1.464-.49-.342.033-.663.153-.94.35-.277-.197-.598-.317-.94-.35-.532-.048-1.052.125-1.462.49-.214.19-.24.527-.062.753.18.226.498.256.71.066zm-1.488 2.48c.158-.14.38-.15.544-.04.086.178.26.29.45.29h.043c.19 0 .363-.112.45-.29.165-.11.386-.1.544.04.214.19.532.16.71-.066.18-.226.152-.563-.06-.753-.48-.428-1.146-.473-1.664-.168-.518-.306-1.183-.26-1.664.167-.214.19-.24.526-.062.752.18.226.497.255.71.066zm17.484 21.997h-6.3l.27-1.48c.54-.008.837-.16 1.077-.285.198-.102.34-.177.67-.177s.474.074.672.177c.246.127.55.285 1.114.285.564 0 .87-.158 1.115-.285.198-.102.34-.177.67-.177.28 0 .506-.24.506-.534 0-.296-.225-.535-.504-.535-.563 0-.87.158-1.114.285-.198.102-.34.177-.67.177s-.474-.074-.672-.177c-.246-.127-.55-.285-1.114-.285-.563 0-.868.158-1.114.285-.144.074-.26.133-.437.16l.442-2.42c.084.028.173.033.26.01l.36-.09.312.21c.114.078.253.103.386.07l.36-.09.312.21c.115.077.254.102.387.07l.36-.09.313.21c.115.077.254.1.387.068l.36-.09.313.21c.082.056.176.084.27.084l.117-.014.492-.122.058.004c.1 0 .2-.03.287-.096.23-.168.285-.5.126-.744l-4.46-6.794c-.077-.118-.196-.198-.33-.222-.134-.024-.27.01-.38.095l-6.324 4.862c-.226.174-.276.508-.112.746.074.108.18.175.292.204l.43.29c.116.077.255.102.388.07l.36-.09.312.21c.115.076.255.1.387.068l.36-.09.313.21c.115.077.254.102.387.07l.36-.09.312.21c.115.076.254.1.387.068l.36-.09.31.21.19.076-.436 2.387c-.232-.116-.53-.24-1.028-.24-.563 0-.868.158-1.114.285-.198.102-.34.177-.67.177s-.473-.074-.67-.177c-.247-.127-.552-.285-1.115-.285s-.868.158-1.114.285c-.198.102-.34.177-.67.177s-.473-.074-.67-.177c-.247-.127-.552-.285-1.115-.285s-.868.158-1.114.285c-.198.102-.34.177-.67.177s-.472-.074-.67-.177c-.246-.127-.55-.285-1.114-.285-.563 0-.868.158-1.114.285-.198.102-.34.177-.67.177s-.472-.074-.67-.177c-.246-.127-.55-.285-1.114-.285-.42 0-.696.088-.912.185.26-.895.67-1.805 1.316-2.557 1.025-1.192 2.494-1.797 4.367-1.797 2.307 0 4.434-.955 5.99-2.69 1.305-1.456 2.114-3.353 2.33-5.43.446.46.737 1.048.832 1.695.11.755-.063 1.505-.49 2.11-.165.238-.12.573.104.75.09.07.195.105.3.105.154 0 .306-.074.405-.215.59-.838.83-1.873.677-2.913-.105-.718-.388-1.38-.816-1.937 1.208-.013 2.368.76 2.822 1.998.078.21.268.34.47.34l.184-.035c.26-.107.39-.417.288-.692-.604-1.647-2.14-2.68-3.746-2.678.798-.784 2.025-1.03 3.13-.524.256.117.553-.007.664-.278.11-.27-.007-.586-.263-.703-1.333-.61-2.804-.398-3.874.424-.165-1.39-1.024-2.67-2.358-3.282-.256-.117-.553.007-.664.278-.11.27.007.585.263.703 1.105.506 1.776 1.623 1.782 2.775-1.097-1.24-2.86-1.72-4.408-1.06-.26.11-.384.423-.28.697.105.274.4.406.658.296 1.163-.497 2.49-.13 3.307.812-.678.05-1.327.286-1.893.696-.822.595-1.37 1.49-1.544 2.517-.05.29.133.568.408.62l.09.01c.24 0 .453-.183.496-.44.126-.745.524-1.392 1.12-1.823.404-.292.866-.464 1.35-.508-.365 3.954-3.218 6.55-7.33 6.55-3.225 0-5.706 1.76-7.174 5.085-.155.352-.29.702-.41 1.046-.19-.07-.43-.122-.755-.122H5.23l.283-4.666c.46-.15.974-.225 1.54-.225 3.276 0 5.237-4.38 5.96-6.373.645.082 1.22.408 1.624.925.396.507.58 1.142.517 1.79-.03.293.173.556.45.586l.052.004c.255 0 .475-.205.502-.48.09-.934-.173-1.85-.743-2.58-.366-.47-.83-.825-1.354-1.052.878-.506 2.002-.45 2.822.227.22.18.537.14.708-.093.172-.233.133-.568-.087-.75-1.14-.942-2.7-1.022-3.92-.324.09-.256.218-.498.386-.72.41-.54 1.004-.89 1.67-.98.277-.038.473-.306.437-.598-.035-.293-.288-.5-.565-.46-.926.125-1.753.612-2.33 1.368-.176.233-.322.482-.437.743-.174-.222-.375-.424-.602-.6-.738-.578-1.655-.826-2.58-.7-.277.04-.473.307-.437.6.036.292.288.5.565.46.668-.09 1.325.086 1.853.498.216.17.4.37.545.593-1.347-.347-2.838.15-3.713 1.368-.17.235-.126.57.096.75.092.073.2.108.306.108.152 0 .303-.073.402-.21.674-.937 1.854-1.28 2.872-.918-.67 1.61-2.385 4.98-4.996 4.98-.5 0-.975.056-1.424.163l.59-9.677c.512.244.942.634 1.242 1.138.385.646.507 1.407.344 2.143-.064.288.104.576.375.644l.117.014c.23 0 .436-.166.49-.412.227-1.017.06-2.068-.47-2.958-.367-.614-.875-1.103-1.477-1.435 1.104-.52 2.458-.3 3.34.646.1.105.23.158.36.158.127 0 .255-.05.354-.154.198-.207.2-.546.005-.756-1.174-1.257-2.972-1.56-4.444-.882.438-1.054 1.472-1.798 2.676-1.798.28 0 .505-.24.505-.534 0-.295-.226-.534-.505-.534-1.453 0-2.723.814-3.396 2.02-.674-1.206-1.943-2.02-3.396-2.02-.28 0-.505.24-.505.534 0 .295.226.534.505.534 1.204 0 2.238.743 2.676 1.798-1.472-.678-3.27-.376-4.443.882-.196.21-.194.548.005.756.098.103.226.154.354.154.13 0 .26-.053.36-.16.88-.944 2.235-1.165 3.338-.645-.6.33-1.11.82-1.475 1.434-.53.89-.7 1.94-.473 2.958.055.246.262.412.49.412l.117-.014c.27-.068.438-.355.375-.643-.164-.736-.042-1.497.344-2.143.287-.484.696-.862 1.182-1.107L4.052 98.9c-.43.273-.824.61-1.18 1.014-1.14 1.29-1.88 3.202-2.202 5.686-.12.936-.157 1.77-.163 2.37-.292.187-.488.526-.488.914 0 .59.45 1.07 1.008 1.07H31c.56 0 1.01-.48 1.01-1.07s-.452-1.07-1.01-1.07zm-24.4-1.102c-.043.41-.064.783-.072 1.102H6.38c.05-.32.122-.693.22-1.102zm22.782-4.484l-.36.09-.312-.21c-.115-.08-.255-.104-.387-.07l-.36.09-.31-.21c-.116-.077-.256-.102-.388-.07l-.36.09-.312-.21c-.115-.076-.254-.102-.387-.068l-.36.09-.312-.21c-.114-.078-.253-.102-.386-.07l-.36.09-.312-.21c-.115-.076-.255-.1-.387-.068l-.36.09-.312-.21c-.115-.077-.254-.102-.387-.07l-.36.09-.312-.21c-.115-.077-.255-.102-.387-.068l-.36.09-.312-.21-.168-.07 4.947-3.805 3.49 5.316-.182.008zm-21.177 3.82c.198-.102.34-.177.67-.177s.472.074.67.177c.246.127.55.285 1.114.285.563 0 .868-.158 1.114-.285.2-.102.342-.177.67-.177s.473.074.672.177c.245.127.55.285 1.114.285.563 0 .868-.158 1.114-.285.198-.102.34-.177.67-.177s.472.074.67.177c.246.127.55.285 1.114.285.563 0 .87-.158 1.114-.285.198-.102.34-.177.67-.177s.472.074.67.177c.247.127.552.285 1.115.285s.868-.158 1.114-.285c.198-.102.34-.177.67-.177s.473.074.67.177l.16.08-.308 1.686H7.54c.013-.43.05-.966.142-1.552.22-.058.38-.14.522-.214zm-2.898-.177c.197 0 .327.027.442.07-.196.72-.318 1.37-.394 1.872h-.31l.12-1.936.142-.007zm-2.62 1.942c-.052-.454-.1-1.037-.11-1.682.167.08.37.154.653.186l-.165 1.495h-.377zm1.063-6.438l.03-.037-.433 3.916c-.212-.022-.337-.085-.495-.167l-.243-.12c.093-1.272.396-2.615 1.14-3.593zm-2.232 6.438c.006-.335.023-.737.058-1.18.02.438.053.838.09 1.18h-.148z" fill="#fff"/><path d="M15.002 43.338c.204-.18.46-.267.726-.242.192.018.37.092.52.213l.015.04c.083.188.26.31.457.31h.07c.195 0 .374-.122.457-.31l.016-.04c.362-.295.882-.295 1.245.03.214.19.532.16.71-.067.18-.226.152-.563-.06-.753-.41-.364-.93-.54-1.464-.49-.342.033-.663.153-.94.35-.277-.197-.598-.317-.94-.35-.532-.048-1.052.125-1.462.49-.214.19-.24.527-.062.753.18.226.498.256.71.066zm-1.488 2.48c.158-.14.38-.15.544-.04.086.178.26.29.45.29h.043c.19 0 .363-.112.45-.29.165-.11.386-.1.544.04.214.19.532.16.71-.066.18-.226.152-.563-.06-.753-.48-.428-1.146-.473-1.664-.168-.518-.306-1.183-.26-1.664.167-.214.19-.24.526-.062.752.18.226.497.255.71.066zm17.484 21.997h-6.3l.27-1.48c.54-.008.837-.16 1.077-.285.198-.102.34-.177.67-.177s.474.074.672.177c.246.127.55.285 1.114.285.564 0 .87-.158 1.115-.285.198-.102.34-.177.67-.177.28 0 .506-.24.506-.534 0-.296-.225-.535-.504-.535-.563 0-.87.158-1.114.285-.198.102-.34.177-.67.177s-.474-.074-.672-.177c-.246-.127-.55-.285-1.114-.285-.563 0-.868.158-1.114.285-.144.074-.26.133-.437.16l.442-2.42c.084.028.173.033.26.01l.36-.09.312.21c.114.078.253.103.386.07l.36-.09.312.21c.115.077.254.102.387.07l.36-.09.313.21c.115.077.254.1.387.068l.36-.09.313.21c.082.056.176.084.27.084l.117-.014.492-.122.058.004c.1 0 .2-.03.287-.096.23-.168.285-.5.126-.744l-4.46-6.794c-.077-.118-.196-.198-.33-.222-.134-.024-.27.01-.38.095l-6.324 4.862c-.226.174-.276.508-.112.746.074.108.18.175.292.204l.43.29c.116.077.255.102.388.07l.36-.09.312.21c.115.076.255.1.387.068l.36-.09.313.21c.115.077.254.102.387.07l.36-.09.312.21c.115.076.254.1.387.068l.36-.09.31.21.19.076-.436 2.387c-.232-.116-.53-.24-1.028-.24-.563 0-.868.158-1.114.285-.198.102-.34.177-.67.177s-.473-.074-.67-.177c-.247-.127-.552-.285-1.115-.285s-.868.158-1.114.285c-.198.102-.34.177-.67.177s-.473-.074-.67-.177c-.247-.127-.552-.285-1.115-.285s-.868.158-1.114.285c-.198.102-.34.177-.67.177s-.472-.074-.67-.177c-.246-.127-.55-.285-1.114-.285-.563 0-.868.158-1.114.285-.198.102-.34.177-.67.177s-.472-.074-.67-.177c-.246-.127-.55-.285-1.114-.285-.42 0-.696.088-.912.185.26-.895.67-1.805 1.316-2.557 1.025-1.192 2.494-1.797 4.367-1.797 2.307 0 4.434-.955 5.99-2.69 1.305-1.456 2.114-3.353 2.33-5.43.446.46.737 1.048.832 1.695.11.755-.063 1.505-.49 2.11-.165.238-.12.573.104.75.09.07.195.105.3.105.154 0 .306-.074.405-.215.59-.838.83-1.873.677-2.913-.105-.718-.388-1.38-.816-1.937 1.208-.013 2.368.76 2.822 1.998.078.21.268.34.47.34l.184-.035c.26-.107.39-.417.288-.692-.604-1.647-2.14-2.68-3.746-2.678.798-.784 2.025-1.03 3.13-.524.256.117.553-.007.664-.278.11-.27-.007-.586-.263-.703-1.333-.61-2.804-.398-3.874.424-.165-1.39-1.024-2.67-2.358-3.282-.256-.117-.553.007-.664.278-.11.27.007.585.263.703 1.105.506 1.776 1.623 1.782 2.775-1.097-1.24-2.86-1.72-4.408-1.06-.26.11-.384.423-.28.697.105.274.4.406.658.296 1.163-.497 2.49-.13 3.307.812-.678.05-1.327.286-1.893.696-.822.595-1.37 1.49-1.544 2.517-.05.29.133.568.408.62l.09.01c.24 0 .453-.183.496-.44.126-.745.524-1.392 1.12-1.823.404-.292.866-.464 1.35-.508-.365 3.954-3.218 6.55-7.33 6.55-3.225 0-5.706 1.76-7.174 5.085-.155.352-.29.702-.41 1.046-.19-.07-.43-.122-.755-.122H5.23l.283-4.666c.46-.15.974-.225 1.54-.225 3.276 0 5.237-4.38 5.96-6.373.645.082 1.22.408 1.624.925.396.507.58 1.142.517 1.79-.03.293.173.556.45.586l.052.004c.255 0 .475-.205.502-.48.09-.934-.173-1.85-.743-2.58-.366-.47-.83-.825-1.354-1.052.878-.506 2.002-.45 2.822.227.22.18.537.14.708-.093.172-.233.133-.568-.087-.75-1.14-.942-2.7-1.022-3.92-.324.09-.256.218-.498.386-.72.41-.54 1.004-.89 1.67-.98.277-.038.473-.306.437-.598-.035-.293-.288-.5-.565-.46-.926.125-1.753.612-2.33 1.368-.176.233-.322.482-.437.743-.174-.222-.375-.424-.602-.6-.738-.578-1.655-.826-2.58-.7-.277.04-.473.307-.437.6.036.292.288.5.565.46.668-.09 1.325.086 1.853.498.216.17.4.37.545.593-1.347-.347-2.838.15-3.713 1.368-.17.235-.126.57.096.75.092.073.2.108.306.108.152 0 .303-.073.402-.21.674-.937 1.854-1.28 2.872-.918-.67 1.61-2.385 4.98-4.996 4.98-.5 0-.975.056-1.424.163l.59-9.677c.512.244.942.634 1.242 1.138.385.646.507 1.407.344 2.143-.064.288.104.576.375.644l.117.014c.23 0 .436-.166.49-.412.227-1.017.06-2.068-.47-2.958-.367-.614-.875-1.103-1.477-1.435 1.104-.52 2.458-.3 3.34.646.1.105.23.158.36.158.127 0 .255-.05.354-.154.198-.207.2-.546.005-.756-1.174-1.257-2.972-1.56-4.444-.882.438-1.054 1.472-1.798 2.676-1.798.28 0 .505-.24.505-.534 0-.295-.226-.534-.505-.534-1.453 0-2.723.814-3.396 2.02-.674-1.206-1.943-2.02-3.396-2.02-.28 0-.505.24-.505.534 0 .295.226.534.505.534 1.204 0 2.238.743 2.676 1.798-1.472-.678-3.27-.376-4.443.882-.196.21-.194.548.005.756.098.103.226.154.354.154.13 0 .26-.053.36-.16.88-.944 2.235-1.165 3.338-.645-.6.33-1.11.82-1.475 1.434-.53.89-.7 1.94-.473 2.958.055.246.262.412.49.412l.117-.014c.27-.068.438-.355.375-.643-.164-.736-.042-1.497.344-2.143.287-.484.696-.862 1.182-1.107L4.052 58.9c-.43.273-.824.61-1.18 1.014C1.73 61.204.99 63.116.67 65.6c-.12.936-.157 1.77-.163 2.37-.292.187-.488.526-.488.914 0 .59.45 1.07 1.008 1.07H31c.56 0 1.01-.48 1.01-1.07s-.452-1.07-1.01-1.07zm-24.4-1.102c-.043.41-.064.783-.072 1.102H6.38c.05-.32.122-.693.22-1.102zM29.38 62.23l-.36.09-.312-.21c-.115-.08-.255-.104-.387-.07l-.36.09-.31-.21c-.116-.077-.256-.102-.388-.07l-.36.09-.312-.21c-.115-.076-.254-.102-.387-.068l-.36.09-.312-.21c-.114-.078-.253-.102-.386-.07l-.36.09-.312-.21c-.115-.076-.255-.1-.387-.068l-.36.09-.312-.21c-.115-.077-.254-.102-.387-.07l-.36.09-.312-.21c-.115-.077-.255-.102-.387-.068l-.36.09-.312-.21-.168-.07 4.947-3.805 3.49 5.316-.182.008zM8.203 66.05c.198-.102.34-.177.67-.177s.472.074.67.177c.246.127.55.285 1.114.285.563 0 .868-.158 1.114-.285.2-.102.342-.177.67-.177s.473.074.672.177c.245.127.55.285 1.114.285.563 0 .868-.158 1.114-.285.198-.102.34-.177.67-.177s.472.074.67.177c.246.127.55.285 1.114.285.563 0 .87-.158 1.114-.285.198-.102.34-.177.67-.177s.472.074.67.177c.247.127.552.285 1.115.285s.868-.158 1.114-.285c.198-.102.34-.177.67-.177s.473.074.67.177l.16.08-.308 1.686H7.54c.013-.43.05-.966.142-1.552.22-.058.38-.14.522-.214zm-2.898-.177c.197 0 .327.027.442.07-.196.72-.318 1.37-.394 1.872h-.31l.12-1.936.142-.007zm-2.62 1.942c-.052-.454-.1-1.037-.11-1.682.167.08.37.154.653.186l-.165 1.495h-.377zm1.063-6.438l.03-.037-.433 3.916c-.212-.022-.337-.085-.495-.167l-.243-.12c.093-1.272.396-2.615 1.14-3.593zm-2.232 6.438c.006-.335.023-.737.058-1.18.02.438.053.838.09 1.18h-.148z" fill="#67737B"/><path d="M15.002 3.338c.204-.18.46-.267.726-.242.192.018.37.092.52.213l.015.04c.083.188.26.31.457.31h.07c.195 0 .374-.122.457-.31l.016-.04c.362-.295.882-.295 1.245.03.214.19.532.16.71-.067.18-.226.152-.563-.06-.753-.41-.364-.93-.54-1.464-.49-.342.033-.663.153-.94.35-.277-.197-.598-.317-.94-.35-.532-.048-1.052.125-1.462.49-.214.19-.24.527-.062.753.18.226.498.256.71.066zm-1.488 2.48c.158-.14.38-.15.544-.04.086.178.26.29.45.29h.043c.19 0 .363-.112.45-.29.165-.11.386-.1.544.04.214.19.532.16.71-.066.18-.226.152-.563-.06-.753-.48-.428-1.146-.473-1.664-.168-.518-.306-1.183-.26-1.664.167-.214.19-.24.526-.062.752.18.226.497.255.71.066zm17.484 21.997h-6.3l.27-1.48c.54-.008.837-.16 1.077-.285.198-.102.34-.177.67-.177s.474.074.672.177c.246.127.55.285 1.114.285.564 0 .87-.158 1.115-.285.198-.102.34-.177.67-.177.28 0 .506-.24.506-.534 0-.296-.225-.535-.504-.535-.563 0-.87.158-1.114.285-.198.102-.34.177-.67.177s-.474-.074-.672-.177c-.246-.127-.55-.285-1.114-.285-.563 0-.868.158-1.114.285-.144.074-.26.133-.437.16l.442-2.42c.084.028.173.033.26.01l.36-.09.312.21c.114.078.253.103.386.07l.36-.09.312.21c.115.077.254.102.387.07l.36-.09.313.21c.115.077.254.1.387.068l.36-.09.313.21c.082.056.176.084.27.084l.117-.014.492-.122.058.004c.1 0 .2-.03.287-.096.23-.168.285-.5.126-.744l-4.46-6.794c-.077-.118-.196-.198-.33-.222-.134-.024-.27.01-.38.095l-6.324 4.862c-.226.174-.276.508-.112.746.074.108.18.175.292.204l.43.29c.116.077.255.102.388.07l.36-.09.312.21c.115.076.255.1.387.068l.36-.09.313.21c.115.077.254.102.387.07l.36-.09.312.21c.115.076.254.1.387.068l.36-.09.31.21.19.076-.436 2.387c-.232-.116-.53-.24-1.028-.24-.563 0-.868.158-1.114.285-.198.102-.34.177-.67.177s-.473-.074-.67-.177c-.247-.127-.552-.285-1.115-.285s-.868.158-1.114.285c-.198.102-.34.177-.67.177s-.473-.074-.67-.177c-.247-.127-.552-.285-1.115-.285s-.868.158-1.114.285c-.198.102-.34.177-.67.177s-.472-.074-.67-.177c-.246-.127-.55-.285-1.114-.285-.563 0-.868.158-1.114.285-.198.102-.34.177-.67.177s-.472-.074-.67-.177c-.246-.127-.55-.285-1.114-.285-.42 0-.696.088-.912.185.26-.895.67-1.805 1.316-2.557 1.025-1.192 2.494-1.797 4.367-1.797 2.307 0 4.434-.955 5.99-2.69 1.305-1.456 2.114-3.353 2.33-5.43.446.46.737 1.048.832 1.695.11.755-.063 1.505-.49 2.11-.165.238-.12.573.104.75.09.07.195.105.3.105.154 0 .306-.074.405-.215.59-.838.83-1.873.677-2.913-.105-.718-.388-1.38-.816-1.937 1.208-.013 2.368.76 2.822 1.998.078.21.268.34.47.34l.184-.035c.26-.107.39-.417.288-.692-.604-1.647-2.14-2.68-3.746-2.678.798-.784 2.025-1.03 3.13-.524.256.117.553-.007.664-.278.11-.27-.007-.586-.263-.703-1.333-.61-2.804-.398-3.874.424-.165-1.39-1.024-2.67-2.358-3.282-.256-.117-.553.007-.664.278-.11.27.007.585.263.703 1.105.506 1.776 1.623 1.782 2.775-1.097-1.24-2.86-1.72-4.408-1.06-.26.11-.384.423-.28.697.105.274.4.406.658.296 1.163-.497 2.49-.13 3.307.812-.678.05-1.327.286-1.893.696-.822.595-1.37 1.49-1.544 2.517-.05.29.133.568.408.62l.09.01c.24 0 .453-.183.496-.44.126-.745.524-1.392 1.12-1.823.404-.292.866-.464 1.35-.508-.365 3.954-3.218 6.55-7.33 6.55-3.225 0-5.706 1.76-7.174 5.085-.155.352-.29.702-.41 1.046-.19-.07-.43-.122-.755-.122H5.23l.283-4.666c.46-.15.974-.225 1.54-.225 3.276 0 5.237-4.38 5.96-6.373.645.082 1.22.408 1.624.925.396.507.58 1.142.517 1.79-.03.293.173.556.45.586l.052.004c.255 0 .475-.205.502-.48.09-.934-.173-1.85-.743-2.58-.366-.47-.83-.825-1.354-1.052.878-.506 2.002-.45 2.822.227.22.18.537.14.708-.093.172-.233.133-.568-.087-.75-1.14-.942-2.7-1.022-3.92-.324.09-.256.218-.498.386-.72.41-.54 1.004-.89 1.67-.98.277-.038.473-.306.437-.598-.035-.293-.288-.5-.565-.46-.926.125-1.753.612-2.33 1.368-.176.233-.322.482-.437.743-.174-.222-.375-.424-.602-.6-.738-.578-1.655-.826-2.58-.7-.277.04-.473.307-.437.6.036.292.288.5.565.46.668-.09 1.325.086 1.853.498.216.17.4.37.545.593-1.347-.347-2.838.15-3.713 1.368-.17.235-.126.57.096.75.092.073.2.108.306.108.152 0 .303-.073.402-.21.674-.937 1.854-1.28 2.872-.918-.67 1.61-2.385 4.98-4.996 4.98-.5 0-.975.056-1.424.163l.59-9.677c.512.244.942.634 1.242 1.138.385.646.507 1.407.344 2.143-.064.288.104.576.375.644l.117.014c.23 0 .436-.166.49-.412.227-1.017.06-2.068-.47-2.958-.367-.614-.875-1.103-1.477-1.435 1.104-.52 2.458-.3 3.34.646.1.105.23.158.36.158.127 0 .255-.05.354-.154.198-.207.2-.546.005-.756-1.174-1.257-2.972-1.56-4.444-.882.438-1.054 1.472-1.798 2.676-1.798.28 0 .505-.24.505-.534 0-.295-.226-.534-.505-.534-1.453 0-2.723.814-3.396 2.02-.674-1.206-1.943-2.02-3.396-2.02-.28 0-.505.24-.505.534 0 .295.226.534.505.534 1.204 0 2.238.743 2.676 1.798-1.472-.678-3.27-.376-4.443.882-.196.21-.194.548.005.756.098.103.226.154.354.154.13 0 .26-.053.36-.16.88-.944 2.235-1.165 3.338-.645-.6.33-1.11.82-1.475 1.434-.53.89-.7 1.94-.473 2.958.055.246.262.412.49.412l.117-.014c.27-.068.438-.355.375-.643-.164-.736-.042-1.497.344-2.143.287-.484.696-.862 1.182-1.107L4.052 18.9c-.43.273-.824.61-1.18 1.014C1.73 21.204.99 23.116.67 25.6c-.12.936-.157 1.77-.163 2.37-.292.187-.488.526-.488.914 0 .59.45 1.07 1.008 1.07H31c.56 0 1.01-.48 1.01-1.07s-.452-1.07-1.01-1.07zm-24.4-1.102c-.043.41-.064.783-.072 1.102H6.38c.05-.32.122-.693.22-1.102zM29.38 22.23l-.36.09-.312-.21c-.115-.08-.255-.104-.387-.07l-.36.09-.31-.21c-.116-.077-.256-.102-.388-.07l-.36.09-.312-.21c-.115-.076-.254-.102-.387-.068l-.36.09-.312-.21c-.114-.078-.253-.102-.386-.07l-.36.09-.312-.21c-.115-.076-.255-.1-.387-.068l-.36.09-.312-.21c-.115-.077-.254-.102-.387-.07l-.36.09-.312-.21c-.115-.077-.255-.102-.387-.068l-.36.09-.312-.21-.168-.07 4.947-3.805 3.49 5.316-.182.008zM8.203 26.05c.198-.102.34-.177.67-.177s.472.074.67.177c.246.127.55.285 1.114.285.563 0 .868-.158 1.114-.285.2-.102.342-.177.67-.177s.473.074.672.177c.245.127.55.285 1.114.285.563 0 .868-.158 1.114-.285.198-.102.34-.177.67-.177s.472.074.67.177c.246.127.55.285 1.114.285.563 0 .87-.158 1.114-.285.198-.102.34-.177.67-.177s.472.074.67.177c.247.127.552.285 1.115.285s.868-.158 1.114-.285c.198-.102.34-.177.67-.177s.473.074.67.177l.16.08-.308 1.686H7.54c.013-.43.05-.966.142-1.552.22-.058.38-.14.522-.214zm-2.898-.177c.197 0 .327.027.442.07-.196.72-.318 1.37-.394 1.872h-.31l.12-1.936.142-.007zm-2.62 1.942c-.052-.454-.1-1.037-.11-1.682.167.08.37.154.653.186l-.165 1.495h-.377zm1.063-6.438l.03-.037-.433 3.916c-.212-.022-.337-.085-.495-.167l-.243-.12c.093-1.272.396-2.615 1.14-3.593zm-2.232 6.438c.006-.335.023-.737.058-1.18.02.438.053.838.09 1.18h-.148z" fill="#3A434E"/></g></svg>