<svg width="32" height="232" viewBox="0 0 32 232" xmlns="http://www.w3.org/2000/svg" xmlns:sketch="http://www.bohemiancoding.com/sketch/ns"><title>plovdiv-bulgaria</title><desc>Created with Sketch.</desc><g sketch:type="MSPage" fill="none"><g sketch:type="MSShapeGroup"><path d="M18.238 121.369c.095.095.226.148.361.148.135 0 .264-.053.359-.147.155-.153.193-.387.095-.58-.075-.148-.217-.248-.379-.272-.157-.023-.32.029-.434.14-.156.153-.195.389-.095.583l.093.127zm-4.843 1.603l.422.228.231.417c.089.161.26.261.445.261s.356-.1.445-.261l.231-.417.422-.228c.163-.088.264-.257.264-.44s-.101-.352-.264-.44l-.422-.228-.231-.417c-.089-.161-.26-.261-.445-.261-.186 0-.356.1-.445.261l-.231.417-.422.228c-.163.088-.264.257-.264.44s.101.352.264.44zm17.59 26.392h-.297v-5.575h.004c.28 0 .508-.225.508-.501 0-.277-.227-.502-.508-.502h-.004v-4.347h.004c.28 0 .508-.224.508-.501s-.227-.501-.508-.501h-.004v-1.256c0-.277-.227-.501-.508-.501h-5.759v-1.035h.15c.28 0 .508-.224.508-.501s-.227-.501-.508-.501h-.286c-.141-.241-.381-.419-.665-.479l-.364-1.115c-.068-.207-.263-.348-.483-.348h-5.121c-.204-.655-.822-1.132-1.551-1.132s-1.347.478-1.551 1.132h-4.88c-.22 0-.416.14-.483.348l-.364 1.115c-.284.06-.524.238-.665.479h-.286c-.28 0-.508.225-.508.501 0 .277.227.501.508.501h.149v1.035h-2.597v-4.135h.2c.28 0 .508-.224.508-.501s-.227-.501-.508-.501h-.194l-.183-.957h25.14c.28 0 .508-.224.508-.501s-.227-.501-.508-.501h-.172l-.11-.126-1.46-1.165-.728-1.629-.021-.042c-.224-.396-.554-.902-.851-1.063-.157-.096-1.025-.818-1.773-1.461-.121-.104-.285-.145-.442-.112l-1.496.324-.191.085-1.241.894-1.263-.329c-.2-.052-.412.021-.536.185l-1.21 1.601-.941.669h-.794c-.091 0-.18.024-.258.07l-.838.489h-2.369l-.809-.42-.288-.648c-.106-.239-.38-.357-.629-.273l-2.267.766-1.363-.258-1.404-.72c-.151-.077-.33-.075-.479.006l-1.813.986-1.071-5.6c-.045-.237-.255-.408-.499-.408s-.454.171-.499.408l-1.466 7.668-.313.103h-.15c-.28 0-.508.224-.508.501s.227.501.508.501h.252l-.183.957h-.194c-.28 0-.508.224-.508.501s.227.501.508.501h.199v6.811h-.199c-.28 0-.508.224-.508.501s.227.501.508.501h.199v10.325c-.17.179-.274.419-.274.684 0 .554.455 1.003 1.015 1.003h29.528c.561 0 1.015-.449 1.015-1.003 0-.554-.455-1.003-1.015-1.003zm-27.916-12.782h.773v-2.722c-.019-.405-.358-.728-.773-.728-.415 0-.754.323-.773.728v2.722h.773zm-1.143-6.998l.065-.341.031-.161.002-.01.094-.491.004-.02.947-4.955 1.042 5.449.005.027.279 1.459h-2.652l.183-.957zm2.973-2.186l.112-.045 1.692-.921 1.228.63.139.048 1.568.296c.087.017.176.01.26-.018l1.952-.659.172.386c.046.104.127.19.229.242l1.077.559c.073.038.154.057.236.057h2.633c.091 0 .18-.024.258-.07l.838-.489h.819c.107 0 .21-.033.297-.095l1.137-.809.11-.107 1.052-1.392 1.165.303c.148.038.305.009.429-.08l1.35-.973 1.143-.247c.613.524 1.484 1.257 1.734 1.405.087.074.303.383.465.666l.768 1.719c.032.073.082.137.145.188l.736.587h-23.591l-.223-1.165.068-.018zm-3.168 4.146h2.677v6.811h-2.677v-6.811zm8.32 4.135v-.533h3.31v5.208h-3.31v-4.674zm-.155-2.539l.143-.437h4.439v.939h-4.745l.164-.501zm5.597-.969c0-.191.091-.36.232-.471.103-.081.234-.129.376-.129s.272.049.376.129c.141.11.232.28.232.471l.003.031.032.153v1.552h-1.251v-1.736zm7.216 1.471h-4.95v-.939h4.644l.306.939zm6.963 15.722h-.738v-4.773h-1.349v4.773h-1.013v-4.773h-1.349v4.773h-.802v-5.589h3.749l.116.014h1.386v5.575zm-8.8-2.916c-.415 0-.754.323-.773.728v2.188h-1.019v-2.085l.013-.109c0-1.011.833-1.834 1.857-1.834.58 0 1.099.264 1.44.677v3.351h-.745v-2.188c-.019-.405-.358-.728-.773-.728zm-14.885-1.857v4.773h-.565v-5.589h2.597v5.589h-.683v-4.773h-1.349zm-.565-5.232h.2c.28 0 .508-.224.508-.501 0-.185-.102-.344-.253-.431h2.142v4.347h-.683v-2.979h-1.349v2.979h-.565v-3.414zm8.953-.933v-3.28h3.689v5.208h-3.689v-1.928zm1.845 8.022c-.415 0-.754.323-.773.728v2.188h-1.072v-2.404c.106-.913.892-1.625 1.844-1.625.953 0 1.739.712 1.845 1.626v2.403h-1.071v-2.188c-.019-.405-.358-.728-.773-.728zm-4.652 0c-.415 0-.754.323-.773.728v2.188h-.745v-3.334c.341-.422.865-.694 1.453-.694.97 0 1.767.738 1.849 1.675l-.005.159.013.11v2.085h-1.019v-2.188c-.019-.405-.358-.728-.773-.728zm-1.518-2.275c.125-.155.275-.29.444-.398.291-.186.637-.296 1.009-.296.372 0 .718.11 1.008.296.42.27.723.701.817 1.205-.497-.405-1.133-.648-1.825-.648-.53 0-1.026.143-1.453.391v-.55zm5.162-.398c.291-.186.637-.296 1.008-.296.372 0 .718.11 1.008.296.42.27.723.701.817 1.205-.497-.405-1.133-.648-1.825-.648-.693 0-1.329.243-1.825.648.094-.504.397-.936.817-1.205zm4.73 0c.291-.186.637-.296 1.008-.296.372 0 .718.11 1.008.296.163.105.309.233.431.381v.56c-.424-.243-.915-.383-1.44-.383-.693 0-1.329.243-1.825.648.094-.504.397-.936.817-1.205zm2.448-1.003v.087l-.164-.087c-.385-.189-.818-.296-1.276-.296-.458 0-.891.107-1.276.296-.215.106-.414.237-.595.39v-1.806h3.31v1.416zm-4.325-1.416v1.784c-.174-.144-.364-.268-.569-.368-.385-.189-.818-.296-1.276-.296-.458 0-.891.107-1.276.296-.205.1-.395.224-.569.368v-1.784h3.689zm-4.704 1.416v.379c-.177-.149-.372-.276-.582-.379-.385-.189-.818-.296-1.276-.296-.458 0-.891.107-1.276.296l-.177.095v-1.511h3.31v1.416zm16.312 0h-.738v-2.979h-1.349v2.979h-1.013v-2.979h-1.349v2.979h-.802v-4.347h3.749l.116.014h1.386v4.332zm-5.251-6.09h5.251v.741h-5.251v-.741zm-2.031-1.003v4.674h-3.31v-5.208h3.31v.533zm-16.968 1.003h2.597v.741h-2.597v-.741zm-2.861 2.676h1.846v10.006h-.565v-2.188c-.01-.215-.111-.407-.265-.539-.136-.117-.313-.189-.508-.189s-.372.072-.508.189c-.154.133-.255.324-.265.539v2.188h-.565v-10.006h.831zm13.961-2.676c-.096-.027-.197-.042-.302-.042-.105 0-.206.015-.302.042-.363.102-.648.383-.753.741-.028.096-.044.197-.044.302l.019.199c.036.189.12.361.241.502.202.235.502.384.838.384.336 0 .637-.15.838-.384.121-.141.206-.313.241-.502l.019-.199c0-.105-.016-.206-.044-.302-.105-.358-.391-.638-.753-.741zm-4.078 1.744v-2.245h-1.546v3.138h1.546v-.893zm9.012 0v-2.245h-1.546v3.138h1.546v-.893" fill="#206FAC"/><path d="M18.238 81.369c.095.095.226.148.361.148.135 0 .264-.053.359-.147.155-.153.193-.387.095-.58-.075-.148-.217-.248-.379-.272-.157-.023-.32.029-.434.14-.156.153-.195.389-.095.583l.093.127zm-4.843 1.603l.422.228.231.417c.089.161.26.261.445.261s.356-.1.445-.261l.231-.417.422-.228c.163-.088.264-.257.264-.44s-.101-.352-.264-.44l-.422-.228-.231-.417c-.089-.161-.26-.261-.445-.261-.186 0-.356.1-.445.261l-.231.417-.422.228c-.163.088-.264.257-.264.44s.101.352.264.44zm17.59 26.392h-.297v-5.575h.004c.28 0 .508-.225.508-.501 0-.277-.227-.502-.508-.502h-.004v-4.347h.004c.28 0 .508-.224.508-.501s-.227-.501-.508-.501h-.004v-1.256c0-.277-.227-.501-.508-.501h-5.759v-1.035h.15c.28 0 .508-.224.508-.501s-.227-.501-.508-.501h-.286c-.141-.241-.381-.419-.665-.479l-.364-1.115c-.068-.207-.263-.348-.483-.348h-5.121c-.204-.655-.822-1.132-1.551-1.132s-1.347.478-1.551 1.132h-4.88c-.22 0-.416.14-.483.348l-.364 1.115c-.284.06-.524.238-.665.479h-.286c-.28 0-.508.225-.508.501 0 .277.227.501.508.501h.149v1.035h-2.597v-4.135h.2c.28 0 .508-.224.508-.501s-.227-.501-.508-.501h-.194l-.183-.957h25.14c.28 0 .508-.224.508-.501s-.227-.501-.508-.501h-.172l-.11-.126-1.46-1.165-.728-1.629-.021-.042c-.224-.396-.554-.902-.851-1.063-.157-.096-1.025-.818-1.773-1.461-.121-.104-.285-.145-.442-.112l-1.496.324-.191.085-1.241.894-1.263-.329c-.2-.052-.412.021-.536.185l-1.21 1.601-.941.669h-.794c-.091 0-.18.024-.258.07l-.838.489h-2.369l-.809-.42-.288-.648c-.106-.239-.38-.357-.629-.273l-2.267.766-1.363-.258-1.404-.72c-.151-.077-.33-.075-.479.006l-1.813.986-1.071-5.6c-.045-.237-.255-.408-.499-.408s-.454.171-.499.408l-1.466 7.668-.313.103h-.15c-.28 0-.508.224-.508.501s.227.501.508.501h.252l-.183.957h-.194c-.28 0-.508.224-.508.501s.227.501.508.501h.199v6.811h-.199c-.28 0-.508.224-.508.501s.227.501.508.501h.199v10.325c-.17.179-.274.419-.274.684 0 .554.455 1.003 1.015 1.003h29.528c.561 0 1.015-.449 1.015-1.003 0-.554-.455-1.003-1.015-1.003zm-27.916-12.782h.773v-2.722c-.019-.405-.358-.728-.773-.728-.415 0-.754.323-.773.728v2.722h.773zm-1.143-6.998l.065-.341.031-.161.002-.01.094-.491.004-.02.947-4.955 1.042 5.449.005.027.279 1.459h-2.652l.183-.957zm2.973-2.186l.112-.045 1.692-.921 1.228.63.139.048 1.568.296c.087.017.176.01.26-.018l1.952-.659.172.386c.046.104.127.19.229.242l1.077.559c.073.038.154.057.236.057h2.633c.091 0 .18-.024.258-.07l.838-.489h.819c.107 0 .21-.033.297-.095l1.137-.809.11-.107 1.052-1.392 1.165.303c.148.038.305.009.429-.08l1.35-.973 1.143-.247c.613.524 1.484 1.257 1.734 1.405.087.074.303.383.465.666l.768 1.719c.032.073.082.137.145.188l.736.587h-23.591l-.223-1.165.068-.018zm-3.168 4.146h2.677v6.811h-2.677v-6.811zm8.32 4.135v-.533h3.31v5.208h-3.31v-4.674zm-.155-2.539l.143-.437h4.439v.939h-4.745l.164-.501zm5.597-.969c0-.191.091-.36.232-.471.103-.081.234-.129.376-.129s.272.049.376.129c.141.11.232.28.232.471l.003.031.032.153v1.552h-1.251v-1.736zm7.216 1.471h-4.95v-.939h4.644l.306.939zm6.963 15.722h-.738v-4.773h-1.349v4.773h-1.013v-4.773h-1.349v4.773h-.802v-5.589h3.749l.116.014h1.386v5.575zm-8.8-2.916c-.415 0-.754.323-.773.728v2.188h-1.019v-2.085l.013-.109c0-1.011.833-1.834 1.857-1.834.58 0 1.099.264 1.44.677v3.351h-.745v-2.188c-.019-.405-.358-.728-.773-.728zm-14.885-1.857v4.773h-.565v-5.589h2.597v5.589h-.683v-4.773h-1.349zm-.565-5.232h.2c.28 0 .508-.224.508-.501 0-.185-.102-.344-.253-.431h2.142v4.347h-.683v-2.979h-1.349v2.979h-.565v-3.414zm8.953-.933v-3.28h3.689v5.208h-3.689v-1.928zm1.845 8.022c-.415 0-.754.323-.773.728v2.188h-1.072v-2.404c.106-.913.892-1.625 1.844-1.625.953 0 1.739.712 1.845 1.626v2.403h-1.071v-2.188c-.019-.405-.358-.728-.773-.728zm-4.652 0c-.415 0-.754.323-.773.728v2.188h-.745v-3.334c.341-.422.865-.694 1.453-.694.97 0 1.767.738 1.849 1.675l-.005.159.013.11v2.085h-1.019v-2.188c-.019-.405-.358-.728-.773-.728zm-1.518-2.275c.125-.155.275-.29.444-.398.291-.186.637-.296 1.009-.296.372 0 .718.11 1.008.296.42.27.723.701.817 1.205-.497-.405-1.133-.648-1.825-.648-.53 0-1.026.143-1.453.391v-.55zm5.162-.398c.291-.186.637-.296 1.008-.296.372 0 .718.11 1.008.296.42.27.723.701.817 1.205-.497-.405-1.133-.648-1.825-.648-.693 0-1.329.243-1.825.648.094-.504.397-.936.817-1.205zm4.73 0c.291-.186.637-.296 1.008-.296.372 0 .718.11 1.008.296.163.105.309.233.431.381v.56c-.424-.243-.915-.383-1.44-.383-.693 0-1.329.243-1.825.648.094-.504.397-.936.817-1.205zm2.448-1.003v.087l-.164-.087c-.385-.189-.818-.296-1.276-.296-.458 0-.891.107-1.276.296-.215.106-.414.237-.595.39v-1.806h3.31v1.416zm-4.325-1.416v1.784c-.174-.144-.364-.268-.569-.368-.385-.189-.818-.296-1.276-.296-.458 0-.891.107-1.276.296-.205.1-.395.224-.569.368v-1.784h3.689zm-4.704 1.416v.379c-.177-.149-.372-.276-.582-.379-.385-.189-.818-.296-1.276-.296-.458 0-.891.107-1.276.296l-.177.095v-1.511h3.31v1.416zm16.312 0h-.738v-2.979h-1.349v2.979h-1.013v-2.979h-1.349v2.979h-.802v-4.347h3.749l.116.014h1.386v4.332zm-5.251-6.09h5.251v.741h-5.251v-.741zm-2.031-1.003v4.674h-3.31v-5.208h3.31v.533zm-16.968 1.003h2.597v.741h-2.597v-.741zm-2.861 2.676h1.846v10.006h-.565v-2.188c-.01-.215-.111-.407-.265-.539-.136-.117-.313-.189-.508-.189s-.372.072-.508.189c-.154.133-.255.324-.265.539v2.188h-.565v-10.006h.831zm13.961-2.676c-.096-.027-.197-.042-.302-.042-.105 0-.206.015-.302.042-.363.102-.648.383-.753.741-.028.096-.044.197-.044.302l.019.199c.036.189.12.361.241.502.202.235.502.384.838.384.336 0 .637-.15.838-.384.121-.141.206-.313.241-.502l.019-.199c0-.105-.016-.206-.044-.302-.105-.358-.391-.638-.753-.741zm-4.078 1.744v-2.245h-1.546v3.138h1.546v-.893zm9.012 0v-2.245h-1.546v3.138h1.546v-.893" fill="#fff"/><path d="M18.238 41.369c.095.095.226.148.361.148.135 0 .264-.053.359-.147.155-.153.193-.387.095-.58-.075-.148-.217-.248-.379-.272-.157-.023-.32.029-.434.14-.156.153-.195.389-.095.583l.093.127zm-4.843 1.603l.422.228.231.417c.089.161.26.261.445.261s.356-.1.445-.261l.231-.417.422-.228c.163-.088.264-.257.264-.44s-.101-.352-.264-.44l-.422-.228-.231-.417c-.089-.161-.26-.261-.445-.261-.186 0-.356.1-.445.261l-.231.417-.422.228c-.163.088-.264.257-.264.44s.101.352.264.44zm17.59 26.392h-.297v-5.575h.004c.28 0 .508-.225.508-.501 0-.277-.227-.502-.508-.502h-.004v-4.347h.004c.28 0 .508-.224.508-.501s-.227-.501-.508-.501h-.004v-1.256c0-.277-.227-.501-.508-.501h-5.759v-1.035h.15c.28 0 .508-.224.508-.501s-.227-.501-.508-.501h-.286c-.141-.241-.381-.419-.665-.479l-.364-1.115c-.068-.207-.263-.348-.483-.348h-5.121c-.204-.655-.822-1.132-1.551-1.132s-1.347.478-1.551 1.132h-4.88c-.22 0-.416.14-.483.348l-.364 1.115c-.284.06-.524.238-.665.479h-.286c-.28 0-.508.225-.508.501 0 .277.227.501.508.501h.149v1.035h-2.597v-4.135h.2c.28 0 .508-.224.508-.501s-.227-.501-.508-.501h-.194l-.183-.957h25.14c.28 0 .508-.224.508-.501s-.227-.501-.508-.501h-.172l-.11-.126-1.46-1.165-.728-1.629-.021-.042c-.224-.396-.554-.902-.851-1.063-.157-.096-1.025-.818-1.773-1.461-.121-.104-.285-.145-.442-.112l-1.496.324-.191.085-1.241.894-1.263-.329c-.2-.052-.412.021-.536.185l-1.21 1.601-.941.669h-.794c-.091 0-.18.024-.258.07l-.838.489h-2.369l-.809-.42-.288-.648c-.106-.239-.38-.357-.629-.273l-2.267.766-1.363-.258-1.404-.72c-.151-.077-.33-.075-.479.006l-1.813.986-1.071-5.6c-.045-.237-.255-.408-.499-.408s-.454.171-.499.408l-1.466 7.668-.313.103h-.15c-.28 0-.508.224-.508.501s.227.501.508.501h.252l-.183.957h-.194c-.28 0-.508.224-.508.501s.227.501.508.501h.199v6.811h-.199c-.28 0-.508.224-.508.501s.227.501.508.501h.199v10.325c-.17.179-.274.419-.274.684 0 .554.455 1.003 1.015 1.003h29.528c.561 0 1.015-.449 1.015-1.003 0-.554-.455-1.003-1.015-1.003zm-27.916-12.782h.773v-2.722c-.019-.405-.358-.728-.773-.728-.415 0-.754.323-.773.728v2.722h.773zm-1.143-6.998l.065-.341.031-.161.002-.01.094-.491.004-.02.947-4.955 1.042 5.449.005.027.279 1.459h-2.652l.183-.957zm2.973-2.186l.112-.045 1.692-.921 1.228.63.139.048 1.568.296c.087.017.176.01.26-.018l1.952-.659.172.386c.046.104.127.19.229.242l1.077.559c.073.038.154.057.236.057h2.633c.091 0 .18-.024.258-.07l.838-.489h.819c.107 0 .21-.033.297-.095l1.137-.809.11-.107 1.052-1.392 1.165.303c.148.038.305.009.429-.08l1.35-.973 1.143-.247c.613.524 1.484 1.257 1.734 1.405.087.074.303.383.465.666l.768 1.719c.032.073.082.137.145.188l.736.587h-23.591l-.223-1.165.068-.018zm-3.168 4.146h2.677v6.811h-2.677v-6.811zm8.32 4.135v-.533h3.31v5.208h-3.31v-4.674zm-.155-2.539l.143-.437h4.439v.939h-4.745l.164-.501zm5.597-.969c0-.191.091-.36.232-.471.103-.081.234-.129.376-.129s.272.049.376.129c.141.11.232.28.232.471l.003.031.032.153v1.552h-1.251v-1.736zm7.216 1.471h-4.95v-.939h4.644l.306.939zm6.963 15.722h-.738v-4.773h-1.349v4.773h-1.013v-4.773h-1.349v4.773h-.802v-5.589h3.749l.116.014h1.386v5.575zm-8.8-2.916c-.415 0-.754.323-.773.728v2.188h-1.019v-2.085l.013-.109c0-1.011.833-1.834 1.857-1.834.58 0 1.099.264 1.44.677v3.351h-.745v-2.188c-.019-.405-.358-.728-.773-.728zm-14.885-1.857v4.773h-.565v-5.589h2.597v5.589h-.683v-4.773h-1.349zm-.565-5.232h.2c.28 0 .508-.224.508-.501 0-.185-.102-.344-.253-.431h2.142v4.347h-.683v-2.979h-1.349v2.979h-.565v-3.414zm8.953-.933v-3.28h3.689v5.208h-3.689v-1.928zm1.845 8.022c-.415 0-.754.323-.773.728v2.188h-1.072v-2.404c.106-.913.892-1.625 1.844-1.625.953 0 1.739.712 1.845 1.626v2.403h-1.071v-2.188c-.019-.405-.358-.728-.773-.728zm-4.652 0c-.415 0-.754.323-.773.728v2.188h-.745v-3.334c.341-.422.865-.694 1.453-.694.97 0 1.767.738 1.849 1.675l-.005.159.013.11v2.085h-1.019v-2.188c-.019-.405-.358-.728-.773-.728zm-1.518-2.275c.125-.155.275-.29.444-.398.291-.186.637-.296 1.009-.296.372 0 .718.11 1.008.296.42.27.723.701.817 1.205-.497-.405-1.133-.648-1.825-.648-.53 0-1.026.143-1.453.391v-.55zm5.162-.398c.291-.186.637-.296 1.008-.296.372 0 .718.11 1.008.296.42.27.723.701.817 1.205-.497-.405-1.133-.648-1.825-.648-.693 0-1.329.243-1.825.648.094-.504.397-.936.817-1.205zm4.73 0c.291-.186.637-.296 1.008-.296.372 0 .718.11 1.008.296.163.105.309.233.431.381v.56c-.424-.243-.915-.383-1.44-.383-.693 0-1.329.243-1.825.648.094-.504.397-.936.817-1.205zm2.448-1.003v.087l-.164-.087c-.385-.189-.818-.296-1.276-.296-.458 0-.891.107-1.276.296-.215.106-.414.237-.595.39v-1.806h3.31v1.416zm-4.325-1.416v1.784c-.174-.144-.364-.268-.569-.368-.385-.189-.818-.296-1.276-.296-.458 0-.891.107-1.276.296-.205.1-.395.224-.569.368v-1.784h3.689zm-4.704 1.416v.379c-.177-.149-.372-.276-.582-.379-.385-.189-.818-.296-1.276-.296-.458 0-.891.107-1.276.296l-.177.095v-1.511h3.31v1.416zm16.312 0h-.738v-2.979h-1.349v2.979h-1.013v-2.979h-1.349v2.979h-.802v-4.347h3.749l.116.014h1.386v4.332zm-5.251-6.09h5.251v.741h-5.251v-.741zm-2.031-1.003v4.674h-3.31v-5.208h3.31v.533zm-16.968 1.003h2.597v.741h-2.597v-.741zm-2.861 2.676h1.846v10.006h-.565v-2.188c-.01-.215-.111-.407-.265-.539-.136-.117-.313-.189-.508-.189s-.372.072-.508.189c-.154.133-.255.324-.265.539v2.188h-.565v-10.006h.831zm13.961-2.676c-.096-.027-.197-.042-.302-.042-.105 0-.206.015-.302.042-.363.102-.648.383-.753.741-.028.096-.044.197-.044.302l.019.199c.036.189.12.361.241.502.202.235.502.384.838.384.336 0 .637-.15.838-.384.121-.141.206-.313.241-.502l.019-.199c0-.105-.016-.206-.044-.302-.105-.358-.391-.638-.753-.741zm-4.078 1.744v-2.245h-1.546v3.138h1.546v-.893zm9.012 0v-2.245h-1.546v3.138h1.546v-.893" fill="#67737B"/><path d="M18.238 1.369c.095.095.226.148.361.148.135 0 .264-.053.359-.147.155-.153.193-.387.095-.58-.075-.148-.217-.248-.379-.272-.157-.023-.32.029-.434.14-.156.153-.195.389-.095.583l.093.127zm-4.843 1.603l.422.228.231.417c.089.161.26.261.445.261s.356-.1.445-.261l.231-.417.422-.228c.163-.088.264-.257.264-.44s-.101-.352-.264-.44l-.422-.228-.231-.417c-.089-.161-.26-.261-.445-.261-.186 0-.356.1-.445.261l-.231.417-.422.228c-.163.088-.264.257-.264.44s.101.352.264.44zm17.59 26.392h-.297v-5.575h.004c.28 0 .508-.225.508-.501 0-.277-.227-.502-.508-.502h-.004v-4.347h.004c.28 0 .508-.224.508-.501s-.227-.501-.508-.501h-.004v-1.256c0-.277-.227-.501-.508-.501h-5.759v-1.035h.15c.28 0 .508-.224.508-.501s-.227-.501-.508-.501h-.286c-.141-.241-.381-.419-.665-.479l-.364-1.115c-.068-.207-.263-.348-.483-.348h-5.121c-.204-.655-.822-1.132-1.551-1.132s-1.347.478-1.551 1.132h-4.88c-.22 0-.416.14-.483.348l-.364 1.115c-.284.06-.524.238-.665.479h-.286c-.28 0-.508.225-.508.501 0 .277.227.501.508.501h.149v1.035h-2.597v-4.135h.2c.28 0 .508-.224.508-.501s-.227-.501-.508-.501h-.194l-.183-.957h25.14c.28 0 .508-.224.508-.501s-.227-.501-.508-.501h-.172l-.11-.126-1.46-1.165-.728-1.629-.021-.042c-.224-.396-.554-.902-.851-1.063-.157-.096-1.025-.818-1.773-1.461-.121-.104-.285-.145-.442-.112l-1.496.324-.191.085-1.241.894-1.263-.329c-.2-.052-.412.021-.536.185l-1.21 1.601-.941.669h-.794c-.091 0-.18.024-.258.07l-.838.489h-2.369l-.809-.42-.288-.648c-.106-.239-.38-.357-.629-.273l-2.267.766-1.363-.258-1.404-.72c-.151-.077-.33-.075-.479.006l-1.813.986-1.071-5.6c-.045-.237-.255-.408-.499-.408s-.454.171-.499.408l-1.466 7.668-.313.103h-.15c-.28 0-.508.224-.508.501s.227.501.508.501h.252l-.183.957h-.194c-.28 0-.508.224-.508.501s.227.501.508.501h.199v6.811h-.199c-.28 0-.508.224-.508.501s.227.501.508.501h.199v10.325c-.17.179-.274.419-.274.684 0 .554.455 1.003 1.015 1.003h29.528c.561 0 1.015-.449 1.015-1.003 0-.554-.455-1.003-1.015-1.003zm-27.916-12.782h.773v-2.722c-.019-.405-.358-.728-.773-.728-.415 0-.754.323-.773.728v2.722h.773zm-1.143-6.998l.065-.341.031-.161.002-.01.094-.491.004-.02.947-4.955 1.042 5.449.005.027.279 1.459h-2.652l.183-.957zm2.973-2.186l.112-.045 1.692-.921 1.228.63.139.048 1.568.296c.087.017.176.01.26-.018l1.952-.659.172.386c.046.104.127.19.229.242l1.077.559c.073.038.154.057.236.057h2.633c.091 0 .18-.024.258-.07l.838-.489h.819c.107 0 .21-.033.297-.095l1.137-.809.11-.107 1.052-1.392 1.165.303c.148.038.305.009.429-.08l1.35-.973 1.143-.247c.613.524 1.484 1.257 1.734 1.405.087.074.303.383.465.666l.768 1.719c.032.073.082.137.145.188l.736.587h-23.591l-.223-1.165.068-.018zm-3.168 4.146h2.677v6.811h-2.677v-6.811zm8.32 4.135v-.533h3.31v5.208h-3.31v-4.674zm-.155-2.539l.143-.437h4.439v.939h-4.745l.164-.501zm5.597-.969c0-.191.091-.36.232-.471.103-.081.234-.129.376-.129s.272.049.376.129c.141.11.232.28.232.471l.003.031.032.153v1.552h-1.251v-1.736zm7.216 1.471h-4.95v-.939h4.644l.306.939zm6.963 15.722h-.738v-4.773h-1.349v4.773h-1.013v-4.773h-1.349v4.773h-.802v-5.589h3.749l.116.014h1.386v5.575zm-8.8-2.916c-.415 0-.754.323-.773.728v2.188h-1.019v-2.085l.013-.109c0-1.011.833-1.834 1.857-1.834.58 0 1.099.264 1.44.677v3.351h-.745v-2.188c-.019-.405-.358-.728-.773-.728zm-14.885-1.857v4.773h-.565v-5.589h2.597v5.589h-.683v-4.773h-1.349zm-.565-5.232h.2c.28 0 .508-.224.508-.501 0-.185-.102-.344-.253-.431h2.142v4.347h-.683v-2.979h-1.349v2.979h-.565v-3.414zm8.953-.933v-3.28h3.689v5.208h-3.689v-1.928zm1.845 8.022c-.415 0-.754.323-.773.728v2.188h-1.072v-2.404c.106-.913.892-1.625 1.844-1.625.953 0 1.739.712 1.845 1.626v2.403h-1.071v-2.188c-.019-.405-.358-.728-.773-.728zm-4.652 0c-.415 0-.754.323-.773.728v2.188h-.745v-3.334c.341-.422.865-.694 1.453-.694.97 0 1.767.738 1.849 1.675l-.005.159.013.11v2.085h-1.019v-2.188c-.019-.405-.358-.728-.773-.728zm-1.518-2.275c.125-.155.275-.29.444-.398.291-.186.637-.296 1.009-.296.372 0 .718.11 1.008.296.42.27.723.701.817 1.205-.497-.405-1.133-.648-1.825-.648-.53 0-1.026.143-1.453.391v-.55zm5.162-.398c.291-.186.637-.296 1.008-.296.372 0 .718.11 1.008.296.42.27.723.701.817 1.205-.497-.405-1.133-.648-1.825-.648-.693 0-1.329.243-1.825.648.094-.504.397-.936.817-1.205zm4.73 0c.291-.186.637-.296 1.008-.296.372 0 .718.11 1.008.296.163.105.309.233.431.381v.56c-.424-.243-.915-.383-1.44-.383-.693 0-1.329.243-1.825.648.094-.504.397-.936.817-1.205zm2.448-1.003v.087l-.164-.087c-.385-.189-.818-.296-1.276-.296-.458 0-.891.107-1.276.296-.215.106-.414.237-.595.39v-1.806h3.31v1.416zm-4.325-1.416v1.784c-.174-.144-.364-.268-.569-.368-.385-.189-.818-.296-1.276-.296-.458 0-.891.107-1.276.296-.205.1-.395.224-.569.368v-1.784h3.689zm-4.704 1.416v.379c-.177-.149-.372-.276-.582-.379-.385-.189-.818-.296-1.276-.296-.458 0-.891.107-1.276.296l-.177.095v-1.511h3.31v1.416zm16.312 0h-.738v-2.979h-1.349v2.979h-1.013v-2.979h-1.349v2.979h-.802v-4.347h3.749l.116.014h1.386v4.332zm-5.251-6.09h5.251v.741h-5.251v-.741zm-2.031-1.003v4.674h-3.31v-5.208h3.31v.533zm-16.968 1.003h2.597v.741h-2.597v-.741zm-2.861 2.676h1.846v10.006h-.565v-2.188c-.01-.215-.111-.407-.265-.539-.136-.117-.313-.189-.508-.189s-.372.072-.508.189c-.154.133-.255.324-.265.539v2.188h-.565v-10.006h.831zm13.961-2.676c-.096-.027-.197-.042-.302-.042-.105 0-.206.015-.302.042-.363.102-.648.383-.753.741-.028.096-.044.197-.044.302l.019.199c.036.189.12.361.241.502.202.235.502.384.838.384.336 0 .637-.15.838-.384.121-.141.206-.313.241-.502l.019-.199c0-.105-.016-.206-.044-.302-.105-.358-.391-.638-.753-.741zm-4.078 1.744v-2.245h-1.546v3.138h1.546v-.893zm9.012 0v-2.245h-1.546v3.138h1.546v-.893" fill="#3A434E"/></g></g></svg>