<svg width="32" height="232" viewBox="0 0 32 232" xmlns="http://www.w3.org/2000/svg"><desc>Created with Sketch.</desc><g fill="none"><path d="M17.01 128.37c.198.197.45.306.712.306h2.672c0 .31.117.602.32.807.174.173.397.27.627.27h2.91c.52 0 .948-.483.948-1.076 0-.59-.422-1.07-.942-1.074l.01-.15c0-.674-.484-1.223-1.078-1.223h-5.462c-.262 0-.514.11-.712.306-.23.232-.364.567-.364.918 0 .35.132.684.364.917zm.626-1.03l.086-.037h5.462c.073 0 .13.067.13.15 0 .08-.058.148-.13.148-.26 0-.473.24-.473.54 0 .298.21.538.476.538h1.065-2.907.003c.26 0 .473-.24.473-.537 0-.297-.213-.537-.474-.537h-3.62l-.087-.037-.046-.11.046-.112zm13.455 20.94h-2.964l-.528-1.732v-2.297c.134-.09.224-.26.224-.453v-1.804l-.01-.085v-1.36c0-.898-.9-1.606-1.392-1.926v-1.016c0-.296-.212-.537-.473-.537-.262 0-.473.24-.473.536v1.016c-.492.32-1.392 1.027-1.392 1.924v.91H22.9c-.262 0-.474.24-.474.536v.504H22.1v-.505c0-.3-.212-.54-.474-.54h-1.588c-.262 0-.474.24-.474.538v.504h-.325v-.504c0-.298-.214-.538-.476-.538h-1.588c-.26 0-.473.24-.473.536v.504h-.327v-.505c0-.205-.1-.38-.25-.47v-1.35h7.036c.26 0 .473-.24.473-.536 0-.3-.212-.54-.473-.54h-7.036v-.577h4.33c.26 0 .472-.24.472-.537 0-.297-.213-.538-.474-.538h-4.33v-.783h14.382c.26 0 .473-.24.473-.537 0-.297-.21-.537-.473-.537h-2.183v-1.305c0-.186-.084-.35-.21-.447-.117-.175-.32-.26-.515-.192-.548.188-1.174.288-1.81.288-.687 0-1.355-.114-1.93-.33-.16-.06-.327-.02-.448.092-.51.156-1.076.24-1.654.24-.687 0-1.355-.116-1.93-.333-.16-.06-.327-.02-.45.092-.507.156-1.075.24-1.652.24-.56 0-1.11-.08-1.607-.226l-.006-.05v-1.175c.258-.004.466-.242.466-.536v-1.783c0-.296-.21-.537-.472-.537H15.08v-4.4c0-.886-.888-1.586-1.377-1.904v-.997c0-.3-.212-.54-.473-.54s-.473.24-.473.54v.996c-.49.32-1.377 1.02-1.377 1.906v.955h-.32v-.25c0-.297-.21-.538-.472-.538s-.473.24-.473.537v.25H9.91v-.25c0-.296-.212-.537-.473-.537s-.473.24-.473.54v.25H8.76v-.25c0-.296-.21-.537-.472-.537s-.473.24-.473.538v.25h-.33v-.952c0-.887-.886-1.587-1.375-1.905v-.997c0-.298-.21-.538-.473-.538-.26 0-.472.24-.472.538v.998c-.488.32-1.377 1.02-1.377 1.906v4.4H2.69c-.26 0-.473.24-.473.535v1.782c0 .297.212.537.474.537h.05v1.173l-.01.147v2.933c-.363.26-.85.72-.85 1.317v4.218c0 .6.487 1.057.85 1.317v2.904l-.545 1.788H.99c-.522 0-.946.48-.946 1.075 0 .592.424 1.074.946 1.074h30.1c.52 0 .945-.48.945-1.074s-.424-1.076-.946-1.076zM5.636 124.252c.193.126.385.278.542.43H5.09c.147-.144.332-.294.542-.43zm5.748 3.004v2.38c-.217.046-.383.263-.383.526v.492h-.31v-.492c0-.296-.213-.537-.474-.537h-1.57c-.26 0-.472.24-.472.537v.492h-.31v-.492c0-.26-.16-.475-.376-.526v-2.38h3.897zm1.85-3.005c.21.14.396.29.544.43H12.69c.147-.14.333-.29.543-.43zm-.903 1.93v-.42h1.806v3.902l-.008.003c-.178.077-.305.272-.305.5v.492h-.31v-.492c0-.296-.21-.537-.472-.537h-.71v-3.444zm-5.79.54v2.908h-.72c-.26 0-.473.24-.473.537v.492h-.31v-.492c0-.23-.127-.423-.305-.5v-3.906h1.806v.962zm-2.28 4.88l.02.02c.08.07.176.11.284.11H5.82c.108 0 .206-.042.286-.11.113-.1.187-.25.187-.426v-.492h.624v.493c0 .12.036.232.096.322.086.13.222.215.376.215h1.254c.26 0 .473-.243.473-.54v-.49h.62v.49c0 .298.213.538.474.538h1.26c.16 0 .3-.09.384-.227.055-.086.088-.193.088-.31v-.49h.623v.49c0 .298.21.538.473.538h1.26c.117 0 .222-.05.305-.13l.008-.01c.1-.096.16-.24.16-.4v-.49h.87v.707c-.26.004-.466.243-.466.537v.534l-.058-.003H3.688v-.53c0-.296-.21-.536-.474-.536h-.047v-.708h.922v.49c0 .165.062.31.164.408zm13.39 11.435v-.505h.64v.504c0 .297.21.537.473.537h1.274c.26 0 .473-.24.473-.536v-.505h.642v.504c0 .297.21.537.473.537h1.273c.262 0 .473-.24.473-.54v-.503h.645v.505c0 .1.026.198.07.28.083.154.232.26.403.26h1.273c.19 0 .355-.13.43-.317l.044-.222v-.504h.642v.81c-.133.093-.223.26-.224.453v2.847l.028.175.447 1.466H16.67l-.545-1.787v-2.923h1.048c.262 0 .473-.24.473-.538zm8.295-3.484c.202.13.402.29.565.45h-1.13c.152-.15.345-.31.565-.45zm-23.12 1.15h.85v1.557c-.03.098-.215.28-.424.43l-.033-.027c-.194-.147-.36-.31-.39-.405v-1.558zm1.8-6.075h9.607v11.512H4.624v-11.512zm-.11 12.587h9.826l.01.035.32 1.037H4.19l.325-1.07zm-.84-9.143v1.56h-.85v-1.56c.03-.093.195-.26.39-.403l.035-.027c.21.15.392.33.423.43zm23.19 3.007v.38h-1.108c-.26 0-.473.24-.473.537v.506h-.262v-1.422h1.844zm.512-6.255v.77h-3.12v-.76c.487.116 1.006.177 1.532.177.542 0 1.082-.066 1.585-.19zm-4.068.007v.762h-3.12v-.77c.494.122 1.025.186 1.57.186.53 0 1.055-.062 1.55-.18zm-4.07.01v.752h-3.117v-.777c.508.127 1.05.194 1.603.194.518 0 1.032-.06 1.515-.173zm-9.41 1.06h.947v2.313H9.83V135.9zm-1.38 8.3h1.95c.262 0 .473-.24.473-.537v-2.922c0-.85-.95-1.44-1.242-1.603-.13-.072-.283-.072-.414 0-1.155.638-1.244 1.39-1.244 1.606v2.923c0 .297.21.537.473.537zm.976-3.967c.257.18.482.404.503.51v2.383H8.92v-2.374c.022-.113.247-.338.504-.52zm7.28 5.395l.015.135-.014.134v.51h1.44v-.51l-.016-.135.015-.135v-.51h-1.44v.51m3.898.27l-.016-.135.016-.135v-.51h-1.44v.51l.015.135-.018.134v.51h1.44v-.51m2.46 0l-.017-.135.016-.132v-.51h-1.44v.51l.014.135-.016.135v.51h1.44v-.51m2.46 0l-.017-.135.017-.135v-.51h-1.44v.51l.015.135-.016.134v.51h1.44v-.51m-17.403-10h.946v2.314h-.947v-2.31z" fill="#206FAC"/><path d="M17.01 88.37c.198.197.45.306.712.306h2.672c0 .31.117.602.32.807.174.173.397.27.627.27h2.91c.52 0 .948-.483.948-1.076 0-.59-.422-1.07-.942-1.074l.01-.15c0-.674-.484-1.223-1.078-1.223h-5.462c-.262 0-.514.11-.712.306-.23.232-.364.567-.364.918 0 .35.132.684.364.917zm.626-1.03l.086-.037h5.462c.073 0 .13.067.13.15 0 .08-.058.148-.13.148-.26 0-.473.24-.473.54 0 .298.21.538.476.538h1.065-2.907.003c.26 0 .473-.24.473-.537 0-.297-.213-.537-.474-.537h-3.62l-.087-.037-.046-.11.046-.112zm13.455 20.94h-2.964l-.528-1.732v-2.297c.134-.09.224-.26.224-.453v-1.804l-.01-.085v-1.36c0-.898-.9-1.606-1.392-1.926v-1.016c0-.296-.212-.537-.473-.537-.262 0-.473.24-.473.536v1.016c-.492.32-1.392 1.027-1.392 1.924v.91H22.9c-.262 0-.474.24-.474.536v.504H22.1v-.505c0-.3-.212-.54-.474-.54h-1.588c-.262 0-.474.24-.474.538v.504h-.325v-.504c0-.298-.214-.538-.476-.538h-1.588c-.26 0-.473.24-.473.536v.504h-.327v-.505c0-.205-.1-.38-.25-.47v-1.35h7.036c.26 0 .473-.24.473-.536 0-.3-.212-.54-.473-.54h-7.036v-.577h4.33c.26 0 .472-.24.472-.537 0-.297-.213-.538-.474-.538h-4.33v-.783h14.382c.26 0 .473-.24.473-.537 0-.297-.21-.537-.473-.537h-2.183v-1.305c0-.186-.084-.35-.21-.447-.117-.175-.32-.26-.515-.192-.548.188-1.174.288-1.81.288-.687 0-1.355-.114-1.93-.33-.16-.06-.327-.02-.448.092-.51.156-1.076.24-1.654.24-.687 0-1.355-.116-1.93-.333-.16-.06-.327-.02-.45.092-.507.156-1.075.24-1.652.24-.56 0-1.11-.08-1.607-.226l-.006-.05v-1.17c.258-.005.466-.243.466-.537V90.16c0-.296-.21-.537-.472-.537H15.08v-4.4c0-.886-.888-1.586-1.377-1.904v-.998c0-.298-.212-.538-.473-.538s-.473.24-.473.538v.998c-.49.32-1.377 1.02-1.377 1.907v.955h-.32v-.25c0-.296-.21-.537-.472-.537s-.473.24-.473.538v.25H9.91v-.25c0-.296-.212-.537-.473-.537s-.473.24-.473.538v.25H8.76v-.25c0-.296-.21-.537-.472-.537s-.473.24-.473.538v.25h-.33v-.954c0-.885-.886-1.585-1.375-1.903v-.997c0-.3-.21-.54-.473-.54-.26 0-.472.24-.472.54v.997c-.488.32-1.377 1.02-1.377 1.906v4.4H2.69c-.26 0-.473.24-.473.536v1.78c0 .297.212.537.474.537h.05v1.172l-.01.146v2.932c-.363.26-.85.72-.85 1.316v4.217c0 .6.487 1.058.85 1.318v2.906l-.545 1.788H.99c-.522 0-.946.48-.946 1.075 0 .592.424 1.074.946 1.074h30.1c.52 0 .945-.48.945-1.074s-.424-1.076-.946-1.076zM5.636 84.252c.193.126.385.278.542.43H5.09c.147-.144.332-.294.542-.43zm5.748 3.004v2.38c-.217.046-.383.263-.383.526v.492h-.31v-.492c0-.296-.213-.537-.474-.537h-1.57c-.26 0-.472.24-.472.537v.492h-.31v-.492c0-.26-.16-.475-.376-.526v-2.38h3.897zm1.85-3.005c.21.14.396.29.544.43H12.69c.147-.14.333-.29.543-.43zm-.903 1.93v-.42h1.806v3.902l-.008.003c-.178.077-.305.272-.305.5v.492h-.31v-.492c0-.296-.21-.537-.472-.537h-.71V86.18zm-5.79.54v2.908h-.72c-.26 0-.473.24-.473.537v.492h-.31v-.492c0-.23-.127-.423-.305-.5V85.76h1.806v.962zM4.26 91.6l.02.02c.08.07.176.11.284.11H5.82c.108 0 .206-.043.286-.112.113-.098.187-.25.187-.425V90.7h.624v.492c0 .12.036.232.096.322.086.13.222.215.376.215h1.254c.26 0 .473-.245.473-.54v-.49h.62v.49c0 .297.213.537.474.537h1.26c.16 0 .3-.09.384-.228.055-.09.088-.196.088-.31v-.49h.623v.49c0 .298.21.538.473.538h1.26c.117 0 .222-.05.305-.13l.008-.01c.1-.1.16-.24.16-.4v-.49h.87v.704c-.26.004-.466.243-.466.537v.533l-.058-.003H3.688v-.53c0-.296-.21-.536-.474-.536h-.047V90.7h.922v.49c0 .165.062.31.164.408zm13.39 11.434v-.505h.64v.503c0 .297.21.537.473.537h1.274c.26 0 .473-.24.473-.537v-.505h.642v.505c0 .297.21.537.473.537h1.273c.262 0 .473-.24.473-.54v-.504h.645v.505c0 .1.026.2.07.28.083.155.232.26.403.26h1.273c.19 0 .355-.13.43-.316l.044-.222v-.504h.642v.81c-.133.094-.223.262-.224.454v2.847l.028.174.447 1.466H16.67l-.545-1.788v-2.923h1.048c.262 0 .473-.24.473-.54zm8.295-3.484c.202.13.402.29.565.45h-1.13c.152-.15.345-.31.565-.45zm-23.12 1.15h.85v1.556c-.03.098-.215.28-.424.43l-.033-.027c-.194-.148-.36-.31-.39-.406v-1.558zm1.8-6.076h9.607v11.512H4.624V94.623zm-.11 12.587h9.826l.01.036.32 1.037H4.19l.325-1.07zm-.84-9.142v1.56h-.85v-1.56c.03-.092.195-.258.39-.402l.035-.027c.21.15.392.33.423.43zm23.19 3.008v.38h-1.108c-.26 0-.473.24-.473.537v.506h-.262v-1.423h1.844zm.512-6.255v.77h-3.12v-.76c.487.117 1.006.178 1.532.178.542 0 1.082-.065 1.585-.19zm-4.068.008v.763h-3.12v-.77c.494.123 1.025.187 1.57.187.53 0 1.055-.062 1.55-.18zm-4.07.01v.753h-3.117v-.776c.508.127 1.05.194 1.603.194.518 0 1.032-.06 1.515-.172zM9.832 95.9h.946v2.313h-.95V95.9zm-1.382 8.3h1.954c.262 0 .473-.24.473-.537v-2.922c0-.85-.95-1.44-1.242-1.603-.13-.072-.284-.072-.415 0-1.156.638-1.245 1.39-1.245 1.606v2.923c0 .297.21.537.473.537zm.978-3.967c.257.18.482.404.503.51v2.383H8.924v-2.374c.022-.113.247-.338.504-.52zm7.28 5.395l.015.135-.016.134v.51h1.44v-.51l-.016-.135.017-.135v-.51h-1.44v.51m3.898.27l-.016-.135.015-.135v-.51h-1.44v.51l.015.135-.02.134v.51h1.44v-.51m2.46 0l-.016-.135.016-.132v-.51h-1.44v.51l.016.135-.016.135v.51h1.442v-.51m2.458 0l-.016-.135.016-.135v-.51h-1.44v.51l.016.135-.016.134v.51h1.44v-.51m-17.402-10h.946v2.314h-.946V95.9z" fill="#fff"/><path d="M17.01 48.37c.198.197.45.306.712.306h2.672c0 .31.117.602.32.807.174.173.397.27.627.27h2.91c.52 0 .948-.483.948-1.076 0-.59-.422-1.07-.942-1.074l.01-.15c0-.674-.484-1.223-1.078-1.223h-5.462c-.262 0-.514.11-.712.306-.23.232-.364.567-.364.918 0 .35.132.684.364.917zm.626-1.03l.086-.037h5.462c.073 0 .13.067.13.15 0 .08-.058.148-.13.148-.26 0-.473.24-.473.54 0 .298.21.538.476.538h1.065-2.907.003c.26 0 .473-.24.473-.537 0-.297-.213-.537-.474-.537h-3.62l-.087-.037-.046-.11.046-.112zM31.09 68.28h-2.967l-.528-1.732V64.25c.134-.094.224-.263.224-.456V61.99l-.01-.086v-1.36c0-.898-.9-1.606-1.396-1.926v-1.016c0-.296-.212-.537-.473-.537-.26 0-.472.24-.472.537v1.016c-.494.32-1.394 1.028-1.394 1.925v.91h-1.18c-.262 0-.474.24-.474.536v.5h-.326v-.504c0-.298-.212-.538-.474-.538h-1.588c-.262 0-.474.24-.474.536v.504h-.324v-.504c0-.298-.212-.538-.474-.538h-1.588c-.26 0-.473.24-.473.537v.504h-.326v-.507c0-.205-.1-.38-.25-.47v-1.35h7.036c.26 0 .473-.24.473-.536 0-.297-.212-.537-.473-.537h-7.037v-.576h4.33c.26 0 .472-.24.472-.536 0-.297-.212-.538-.473-.538h-4.33v-.785h14.382c.26 0 .473-.24.473-.536 0-.298-.212-.538-.473-.538H28.32V54.27c0-.186-.083-.35-.21-.447-.116-.176-.32-.26-.514-.193-.547.188-1.173.288-1.81.288-.686 0-1.354-.114-1.93-.33-.16-.06-.326-.02-.447.092-.51.156-1.08.24-1.657.24-.686 0-1.354-.116-1.93-.333-.16-.06-.326-.02-.448.093-.508.156-1.076.24-1.653.24-.56 0-1.11-.08-1.607-.226l-.006-.052V52.48c.26-.004.466-.242.466-.536v-1.782c0-.296-.212-.537-.473-.537h-1.028v-4.4c0-.886-.888-1.586-1.377-1.904v-.994c0-.298-.214-.538-.475-.538s-.473.24-.473.538v.998c-.49.32-1.377 1.02-1.377 1.906v.954h-.32v-.25c0-.296-.21-.537-.472-.537s-.472.24-.472.538v.25h-.204v-.25c0-.296-.212-.537-.473-.537s-.472.24-.472.538v.25h-.204v-.25c0-.296-.212-.537-.473-.537s-.472.24-.472.536v.25h-.33v-.954c0-.887-.887-1.587-1.376-1.905v-.997c0-.297-.21-.537-.473-.537-.26 0-.47.24-.47.538v1c-.49.32-1.378 1.02-1.378 1.906v4.4H2.69c-.26 0-.473.24-.473.536v1.783c0 .297.212.537.474.537h.05v1.172l-.01.147v2.93c-.363.26-.85.72-.85 1.32v4.216c0 .6.487 1.057.85 1.317V66.5l-.545 1.788H.99c-.522 0-.946.48-.946 1.075 0 .593.424 1.075.946 1.075h30.1c.52 0 .945-.482.945-1.075s-.424-1.075-.946-1.075zM5.633 44.252c.193.126.385.278.542.43H5.09c.147-.144.332-.294.542-.43zm5.748 3.004v2.38c-.215.046-.38.263-.38.526v.492h-.31v-.492c0-.296-.213-.537-.474-.537h-1.57c-.26 0-.472.24-.472.537v.492h-.31v-.492c0-.26-.16-.475-.376-.526v-2.38h3.897zm1.85-3.005c.21.14.398.29.546.43H12.69c.146-.14.332-.29.542-.43zm-.9 1.93v-.42h1.806v3.902l-.008.003c-.178.077-.305.272-.305.5v.492h-.31v-.492c0-.296-.21-.537-.472-.537h-.71V46.18zm-5.79.54v2.908h-.72c-.26 0-.473.24-.473.537v.492h-.31v-.492c0-.23-.127-.423-.305-.5V45.76H6.54v.962zM4.26 51.6l.02.02c.08.07.176.11.284.11H5.82c.108 0 .206-.042.286-.11.113-.1.187-.25.187-.426V50.7h.624v.492c0 .12.036.232.096.322.086.13.222.215.376.215h1.254c.26 0 .473-.245.473-.54v-.49h.62v.49c0 .297.213.537.474.537h1.26c.16 0 .3-.09.384-.228.055-.09.088-.196.088-.31v-.49h.623v.49c0 .298.21.538.473.538h1.26c.117 0 .222-.05.305-.13l.008-.01c.1-.1.16-.24.16-.4v-.49h.87v.704c-.26.004-.466.243-.466.537v.533l-.058-.003H3.688v-.53c0-.296-.21-.536-.474-.536h-.047V50.7h.922v.49c0 .165.062.31.164.408zm13.39 11.435v-.505h.64v.504c0 .297.21.537.473.537h1.274c.26 0 .473-.24.473-.536v-.505h.64v.504c0 .297.21.537.474.537h1.273c.262 0 .473-.24.473-.54v-.503h.643v.505c0 .1.026.198.07.28.083.154.232.26.403.26h1.273c.19 0 .352-.13.43-.317l.04-.222v-.504h.643v.81c-.133.093-.223.26-.224.453v2.847l.026.175.447 1.466H16.67l-.545-1.787v-2.92h1.048c.262 0 .473-.24.473-.538zm8.295-3.484c.202.13.402.29.565.45h-1.13c.15-.15.344-.31.564-.45zM2.825 60.7h.85v1.556c-.03.098-.215.28-.424.43l-.033-.027c-.194-.148-.36-.31-.39-.406v-1.558zm1.8-6.076h9.607v11.512H4.624V54.623zm-.11 12.587h9.826l.01.036.32 1.037H4.19l.325-1.07zm-.84-9.142v1.56h-.85v-1.56c.03-.092.195-.258.39-.402l.035-.027c.21.15.392.33.423.43zm23.19 3.008v.38h-1.108c-.26 0-.473.24-.473.537v.506h-.262v-1.423h1.844zm.512-6.255v.77h-3.12v-.76c.487.117 1.006.178 1.532.178.542 0 1.082-.065 1.585-.19zm-4.068.008v.763h-3.12v-.77c.494.123 1.025.187 1.57.187.53 0 1.055-.062 1.55-.18zm-4.07.01v.753h-3.117v-.776c.508.127 1.05.194 1.603.194.518 0 1.032-.06 1.515-.172zM9.832 55.9h.946v2.313h-.95V55.9zM8.45 64.2h1.953c.262 0 .473-.24.473-.537V60.74c0-.85-.95-1.443-1.242-1.605-.13-.072-.284-.072-.415 0-1.157.638-1.246 1.39-1.246 1.606v2.925c0 .297.21.537.473.537zm.977-3.967c.257.18.482.404.503.51v2.383H8.923v-2.374c.022-.113.247-.338.504-.52zm7.28 5.395l.015.135-.016.134v.51h1.44v-.51l-.016-.135.016-.135v-.51h-1.44v.51m3.898.27l-.016-.135.016-.135v-.51h-1.44v.51l.015.135-.02.134v.51h1.44v-.51m2.46 0l-.017-.135.016-.132v-.51h-1.44v.51l.015.135-.016.135v.51h1.44v-.51m2.46 0l-.017-.135.016-.135v-.51h-1.44v.51l.015.135-.016.134v.51h1.44v-.51m-17.403-10h.946v2.314h-.946V55.9z" fill="#67737B"/><path d="M17.01 8.37c.198.197.45.306.712.306h2.672c0 .31.117.602.32.807.174.173.397.27.627.27h2.91c.52 0 .948-.483.948-1.076 0-.59-.422-1.07-.942-1.074l.01-.15c0-.674-.484-1.223-1.078-1.223h-5.462c-.262 0-.514.11-.712.306-.23.232-.364.567-.364.918 0 .35.132.684.364.917zm.626-1.03l.086-.037h5.462c.073 0 .13.067.13.15 0 .08-.058.148-.13.148-.26 0-.473.24-.473.54 0 .298.21.538.476.538h1.065-2.907.003c.26 0 .473-.24.473-.537 0-.297-.213-.537-.474-.537h-3.62l-.087-.037-.046-.11.046-.112zM31.09 28.28h-2.967l-.528-1.732V24.25c.134-.094.224-.263.224-.456V21.99l-.01-.086v-1.36c0-.898-.9-1.606-1.396-1.926v-1.016c0-.296-.212-.537-.473-.537-.26 0-.472.24-.472.537v1.016c-.494.32-1.394 1.028-1.394 1.925v.91h-1.18c-.262 0-.474.24-.474.536v.5h-.326v-.504c0-.298-.212-.538-.474-.538h-1.588c-.262 0-.474.24-.474.536v.504h-.324v-.504c0-.298-.212-.538-.474-.538h-1.588c-.26 0-.473.24-.473.537v.504h-.326v-.507c0-.205-.1-.38-.25-.47v-1.35h7.036c.26 0 .473-.24.473-.536 0-.297-.212-.537-.473-.537h-7.037v-.576h4.33c.26 0 .472-.24.472-.536 0-.297-.212-.538-.473-.538h-4.33v-.785h14.382c.26 0 .473-.24.473-.536 0-.298-.212-.538-.473-.538H28.32V14.27c0-.186-.083-.35-.21-.447-.116-.176-.32-.26-.514-.193-.547.188-1.173.288-1.81.288-.686 0-1.354-.114-1.93-.33-.16-.06-.326-.02-.447.092-.51.156-1.08.24-1.657.24-.686 0-1.354-.116-1.93-.333-.16-.06-.326-.02-.448.093-.508.156-1.076.24-1.653.24-.56 0-1.11-.08-1.607-.226l-.006-.052V12.48c.26-.004.466-.242.466-.536v-1.782c0-.296-.212-.537-.473-.537h-1.028v-4.4c0-.886-.888-1.586-1.377-1.904v-.994c0-.298-.214-.538-.475-.538s-.473.24-.473.538v.998c-.49.32-1.377 1.02-1.377 1.906v.954h-.32v-.25c0-.296-.21-.537-.472-.537s-.472.24-.472.538v.25h-.204v-.25c0-.296-.212-.537-.473-.537s-.472.24-.472.538v.25h-.204v-.25c0-.296-.212-.537-.473-.537s-.472.24-.472.536v.25h-.33v-.954c0-.887-.887-1.587-1.376-1.905V2.33c0-.298-.21-.538-.473-.538-.26 0-.47.24-.47.538v.998c-.49.312-1.38 1.012-1.38 1.9v4.4H2.69c-.26 0-.473.24-.473.535v1.782c0 .297.212.537.474.537h.05v1.173l-.01.147v2.933c-.363.26-.85.72-.85 1.317v4.218c0 .6.487 1.057.85 1.317v2.906l-.545 1.788H.99c-.522 0-.946.48-.946 1.078 0 .593.424 1.075.946 1.075h30.1c.52 0 .945-.48.945-1.074s-.424-1.076-.946-1.076zM5.633 4.252c.193.126.385.278.542.43H5.09c.147-.144.332-.294.542-.43zm5.748 3.004v2.38c-.215.046-.38.263-.38.526v.492h-.31v-.492c0-.296-.213-.537-.474-.537h-1.57c-.26 0-.472.24-.472.537v.492h-.31v-.492c0-.26-.16-.475-.376-.526v-2.38h3.897zm1.85-3.005c.21.14.398.29.546.43H12.69c.146-.14.332-.29.542-.43zm-.9 1.93v-.42h1.806v3.9l-.008.002c-.178.077-.305.272-.305.5v.492h-.31v-.492c0-.296-.21-.537-.472-.537h-.71V6.18zm-5.79.54V9.63h-.72c-.26 0-.473.24-.473.537v.492h-.31v-.492c0-.23-.127-.423-.305-.5v-3.91H6.54v.964zM4.26 11.6l.02.02c.08.07.176.11.284.11H5.82c.108 0 .206-.042.286-.11.113-.1.187-.25.187-.426V10.7h.624v.492c0 .12.036.232.096.322.086.13.222.215.376.215h1.254c.26 0 .473-.245.473-.54v-.49h.62v.49c0 .297.213.537.474.537h1.26c.16 0 .3-.09.384-.228.055-.09.088-.196.088-.31v-.49h.623v.49c0 .298.21.538.473.538h1.26c.117 0 .222-.05.305-.13l.008-.01c.1-.1.16-.24.16-.4v-.49h.87v.704c-.26.004-.466.243-.466.537v.533l-.058-.003H3.688v-.53c0-.296-.21-.536-.474-.536h-.047V10.7h.922v.49c0 .165.062.31.164.408zm13.39 11.435v-.505h.64v.504c0 .297.21.537.473.537h1.274c.26 0 .473-.24.473-.536v-.505h.64v.504c0 .297.21.537.474.537h1.273c.262 0 .473-.24.473-.54v-.503h.643v.505c0 .1.026.198.07.28.083.154.232.26.403.26h1.273c.19 0 .352-.13.43-.317l.04-.222v-.504h.643v.81c-.133.093-.223.26-.224.453v2.847l.026.175.447 1.466H16.67l-.545-1.787v-2.92h1.048c.262 0 .473-.24.473-.538zm8.295-3.484c.202.13.402.29.565.45h-1.13c.15-.15.344-.31.564-.45zM2.825 20.7h.85v1.556c-.03.098-.215.28-.424.43l-.033-.027c-.194-.148-.36-.31-.39-.406v-1.558zm1.8-6.076h9.607v11.512H4.624V14.623zm-.11 12.587h9.826l.01.036.32 1.037H4.19l.325-1.07zm-.84-9.142v1.56h-.85v-1.56c.03-.092.195-.258.39-.402l.035-.027c.21.15.392.33.423.43zm23.19 3.008v.38h-1.108c-.26 0-.473.24-.473.537v.506h-.262v-1.423h1.844zm.512-6.255v.77h-3.12v-.76c.487.117 1.006.178 1.532.178.542 0 1.082-.065 1.585-.19zm-4.068.008v.763h-3.12v-.77c.494.123 1.025.187 1.57.187.53 0 1.055-.062 1.55-.18zm-4.07.01v.753h-3.117v-.776c.508.127 1.05.194 1.603.194.518 0 1.032-.06 1.515-.172zM9.832 15.9h.946v2.313h-.95V15.9zM8.45 24.2h1.953c.262 0 .473-.24.473-.537V20.74c0-.85-.95-1.443-1.242-1.605-.13-.072-.284-.072-.415 0-1.157.638-1.246 1.39-1.246 1.606v2.925c0 .297.21.537.473.537zm.977-3.967c.257.18.482.404.503.51v2.383H8.923v-2.374c.022-.113.247-.338.504-.52zm7.28 5.395l.015.135-.016.134v.51h1.44v-.51l-.016-.135.016-.135v-.51h-1.44v.51m3.898.27l-.016-.135.016-.135v-.51h-1.44v.51l.015.135-.02.134v.51h1.44v-.51m2.46 0l-.017-.135.016-.132v-.51h-1.44v.51l.015.135-.016.135v.51h1.44v-.51m2.46 0l-.017-.135.016-.135v-.51h-1.44v.51l.015.135-.016.134v.51h1.44v-.51m-17.403-10h.946v2.314h-.946V15.9z" fill="#3A434E"/></g></svg>