<svg width="32" height="232" viewBox="0 0 32 232" xmlns="http://www.w3.org/2000/svg" xmlns:sketch="http://www.bohemiancoding.com/sketch/ns"><title>lisbon</title><desc>Created with Sketch.</desc><g sketch:type="MSPage" fill="none"><g sketch:type="MSShapeGroup"><path d="M17.01 128.37c.198.197.45.306.712.306h2.672c0 .309.117.602.321.807.173.173.396.269.626.269h2.907c.522 0 .947-.482.947-1.075 0-.59-.422-1.071-.942-1.074l.009-.149c0-.675-.483-1.224-1.077-1.224h-5.462c-.262 0-.514.109-.712.306-.232.232-.365.567-.365.918 0 .35.133.684.365.917zm.626-1.029l.086-.038h5.462c.073 0 .131.067.131.149 0 .082-.059.149-.131.149-.261 0-.473.24-.473.537h-.002c0 .297.212.537.474.537l1.065.001-2.907-.001h.002c.261 0 .473-.24.473-.537 0-.297-.212-.537-.473-.537h-3.621l-.086-.038-.045-.111.045-.111zm13.455 20.939h-2.968l-.528-1.732v-2.297c.134-.095.224-.264.224-.457v-1.804l-.008-.086v-1.361c0-.897-.901-1.605-1.394-1.925v-1.016c0-.296-.212-.537-.473-.537-.262 0-.473.241-.473.537v1.016c-.494.32-1.394 1.028-1.394 1.925v.909h-1.181c-.261 0-.473.241-.473.537v.505h-.326v-.505c0-.297-.212-.537-.474-.537h-1.588c-.262 0-.474.241-.474.537v.505h-.326v-.505c0-.297-.212-.537-.474-.537h-1.589c-.261 0-.473.241-.473.537v.505h-.326v-.505c0-.204-.101-.378-.249-.47v-1.348h7.035c.261 0 .473-.241.473-.537 0-.297-.212-.537-.473-.537h-7.035v-.577h4.329c.261 0 .473-.24.473-.537 0-.297-.212-.538-.473-.538h-4.329v-.783h14.381c.261 0 .473-.24.473-.537 0-.297-.212-.537-.473-.537h-2.183v-1.306c0-.186-.084-.35-.211-.447-.116-.175-.319-.26-.514-.192-.547.188-1.173.288-1.81.288-.686 0-1.354-.115-1.931-.332-.159-.06-.325-.018-.446.093-.509.156-1.076.239-1.654.239-.686 0-1.354-.115-1.931-.332-.159-.06-.325-.018-.447.093-.508.156-1.076.239-1.653.239-.561 0-1.11-.079-1.607-.225l-.006-.052v-1.173c.258-.005.466-.243.466-.537v-1.782c0-.296-.212-.537-.473-.537h-1.028v-4.399c0-.887-.888-1.587-1.377-1.905v-.998c0-.298-.212-.538-.473-.538s-.473.24-.473.538v.998c-.489.318-1.377 1.018-1.377 1.905v.955h-.319v-.25c0-.297-.212-.538-.473-.538s-.473.241-.473.538v.25h-.205v-.25c0-.297-.212-.538-.473-.538s-.473.241-.473.538v.25h-.205v-.25c0-.297-.212-.538-.473-.538s-.473.241-.473.538v.25h-.329v-.955c0-.887-.888-1.587-1.377-1.905v-.998c0-.298-.211-.538-.473-.538-.261 0-.473.24-.473.538v.998c-.488.318-1.377 1.018-1.377 1.905v4.399h-1.09c-.261 0-.474.241-.474.537v1.782c0 .297.212.537.474.537h.047v1.172l-.01.147v2.933c-.364.26-.852.719-.852 1.317v4.218c0 .599.488 1.057.852 1.317v2.906l-.545 1.787h-1.193c-.522 0-.946.481-.946 1.075 0 .593.424 1.075.946 1.075h30.099c.522 0 .946-.482.946-1.075s-.424-1.075-.946-1.075zm-25.459-24.028c.193.126.385.278.542.43h-1.084c.147-.144.332-.294.542-.43zm5.748 3.004v2.379c-.218.047-.384.264-.384.527v.492h-.31v-.492c0-.296-.212-.537-.473-.537h-1.569c-.261 0-.473.241-.473.537v.492h-.31v-.492c0-.259-.162-.475-.377-.526v-2.38h3.897zm1.85-3.005c.21.136.395.286.543.43h-1.086c.147-.144.333-.295.543-.43zm-.904 1.93v-.425h1.807v3.903l-.008.003c-.178.077-.305.272-.305.5v.492h-.31v-.492c0-.296-.211-.537-.473-.537h-.711v-3.444zm-5.79.538v2.906h-.719c-.261 0-.473.241-.473.537v.492h-.31v-.492c0-.229-.127-.423-.305-.5v-3.906h1.807v.963zm-2.28 4.88l.019.018c.08.069.178.112.286.112h1.257c.108 0 .206-.043.286-.112.113-.098.187-.251.187-.425v-.492h.623v.492c0 .121.036.232.096.322.086.13.222.215.376.215h1.257c.261 0 .473-.241.473-.537v-.492h.622v.492c0 .297.212.537.473.537h1.257c.159 0 .299-.09.385-.226.055-.088.088-.195.088-.311v-.492h.622v.492c0 .297.211.537.473.537h1.257c.117 0 .222-.05.305-.13l.008-.008c.098-.098.16-.24.16-.4v-.492h.868v.707c-.258.004-.466.243-.466.537v.533l-.058-.003h-11.423v-.53c0-.297-.211-.537-.473-.537h-.047v-.707h.922v.492c0 .164.066.309.168.407zm13.389 11.433v-.505h.643v.505c0 .297.211.537.473.537h1.273c.261 0 .473-.24.473-.537v-.505h.643v.505c0 .297.211.537.473.537h1.273c.262 0 .473-.24.473-.537v-.505h.643v.505c0 .101.026.196.07.277.083.156.232.26.403.26h1.273c.191 0 .355-.129.43-.315l.044-.222v-.505h.642v.81c-.133.094-.223.262-.224.454v2.847l.026.175.447 1.466h-10.453l-.545-1.787v-2.923h1.048c.262 0 .473-.24.473-.537zm8.297-3.484c.202.131.402.291.565.449h-1.13c.152-.15.345-.308.565-.449zm-23.117 1.149h.849v1.558c-.031.098-.215.279-.424.43l-.036-.027c-.194-.145-.359-.31-.389-.403v-1.558zm1.798-6.074h9.608v11.512h-9.608v-11.512zm-.109 12.587h9.826l.01.033.317 1.037h-10.478l.326-1.069zm-.841-9.145v1.559h-.849v-1.559c.03-.092.195-.258.389-.402l.036-.027c.21.151.393.331.424.429zm23.191 3.008v.38h-1.108c-.261 0-.473.241-.473.537v.505h-.262v-1.422h1.843zm.512-6.255v.771h-3.121v-.76c.488.116 1.007.177 1.533.177.545 0 1.085-.065 1.588-.189zm-4.068.008v.763h-3.121v-.769c.498.122 1.029.186 1.57.186.532 0 1.059-.062 1.551-.181zm-4.067.009v.754h-3.118v-.776c.508.127 1.051.194 1.603.194.518 0 1.032-.06 1.515-.172zm-9.411 1.064h.946v2.314h-.946v-2.314zm-1.379 8.303h1.952c.262 0 .473-.24.473-.537v-2.922c0-.852-.95-1.444-1.242-1.606-.131-.072-.284-.072-.415 0-1.153.638-1.242 1.39-1.242 1.606v2.922c0 .297.211.537.473.537zm.976-3.967c.257.181.482.404.503.509v2.384h-1.007v-2.374c.022-.113.247-.338.504-.519zm7.279 5.395l.016.135-.016.134v.512h1.44v-.512l-.016-.134.016-.135v-.511h-1.44v.511m3.898.269l-.016-.134.016-.135v-.511h-1.441v.511l.016.135-.016.134v.512h1.441v-.512m2.458 0l-.016-.134.016-.135v-.511h-1.441v.511l.016.135-.016.134v.512h1.441v-.512m2.458 0l-.016-.134.016-.135v-.511h-1.44v.511l.016.135-.016.134v.512h1.44v-.512m-17.402-9.999h.946v2.314h-.946v-2.314z" fill="#206FAC"/><path d="M17.01 88.37c.198.197.45.306.712.306h2.672c0 .309.117.602.321.807.173.173.396.269.626.269h2.907c.522 0 .947-.482.947-1.075 0-.59-.422-1.071-.942-1.074l.009-.149c0-.675-.483-1.224-1.077-1.224h-5.462c-.262 0-.514.109-.712.306-.232.232-.365.567-.365.918 0 .35.133.684.365.917zm.626-1.029l.086-.038h5.462c.073 0 .131.067.131.149 0 .082-.059.149-.131.149-.261 0-.473.24-.473.537h-.002c0 .297.212.537.474.537l1.065.001-2.907-.001h.002c.261 0 .473-.24.473-.537 0-.297-.212-.537-.473-.537h-3.621l-.086-.038-.045-.111.045-.111zm13.455 20.939h-2.968l-.528-1.732v-2.297c.134-.095.224-.264.224-.457v-1.804l-.008-.086v-1.361c0-.897-.901-1.605-1.394-1.925v-1.016c0-.296-.212-.537-.473-.537-.262 0-.473.241-.473.537v1.016c-.494.32-1.394 1.028-1.394 1.925v.909h-1.181c-.261 0-.473.241-.473.537v.505h-.326v-.505c0-.297-.212-.537-.474-.537h-1.588c-.262 0-.474.241-.474.537v.505h-.326v-.505c0-.297-.212-.537-.474-.537h-1.589c-.261 0-.473.241-.473.537v.505h-.326v-.505c0-.204-.101-.378-.249-.47v-1.348h7.035c.261 0 .473-.241.473-.537 0-.297-.212-.537-.473-.537h-7.035v-.577h4.329c.261 0 .473-.24.473-.537 0-.297-.212-.538-.473-.538h-4.329v-.783h14.381c.261 0 .473-.24.473-.537 0-.297-.212-.537-.473-.537h-2.183v-1.306c0-.186-.084-.35-.211-.447-.116-.175-.319-.26-.514-.192-.547.188-1.173.288-1.81.288-.686 0-1.354-.115-1.931-.332-.159-.06-.325-.018-.446.093-.509.156-1.076.239-1.654.239-.686 0-1.354-.115-1.931-.332-.159-.06-.325-.018-.447.093-.508.156-1.076.239-1.653.239-.561 0-1.11-.079-1.607-.225l-.006-.052v-1.173c.258-.005.466-.243.466-.537v-1.782c0-.296-.212-.537-.473-.537h-1.028v-4.399c0-.887-.888-1.587-1.377-1.905v-.998c0-.298-.212-.538-.473-.538s-.473.24-.473.538v.998c-.489.318-1.377 1.018-1.377 1.905v.955h-.319v-.25c0-.297-.212-.538-.473-.538s-.473.241-.473.538v.25h-.205v-.25c0-.297-.212-.538-.473-.538s-.473.241-.473.538v.25h-.205v-.25c0-.297-.212-.538-.473-.538s-.473.241-.473.538v.25h-.329v-.955c0-.887-.888-1.587-1.377-1.905v-.998c0-.298-.211-.538-.473-.538-.261 0-.473.24-.473.538v.998c-.488.318-1.377 1.018-1.377 1.905v4.399h-1.09c-.261 0-.474.241-.474.537v1.782c0 .297.212.537.474.537h.047v1.172l-.01.147v2.933c-.364.26-.852.719-.852 1.317v4.218c0 .599.488 1.057.852 1.317v2.906l-.545 1.787h-1.193c-.522 0-.946.481-.946 1.075 0 .593.424 1.075.946 1.075h30.099c.522 0 .946-.482.946-1.075s-.424-1.075-.946-1.075zm-25.459-24.028c.193.126.385.278.542.43h-1.084c.147-.144.332-.294.542-.43zm5.748 3.004v2.379c-.218.047-.384.264-.384.527v.492h-.31v-.492c0-.296-.212-.537-.473-.537h-1.569c-.261 0-.473.241-.473.537v.492h-.31v-.492c0-.259-.162-.475-.377-.526v-2.38h3.897zm1.85-3.005c.21.136.395.286.543.43h-1.086c.147-.144.333-.295.543-.43zm-.904 1.93v-.425h1.807v3.903l-.008.003c-.178.077-.305.272-.305.5v.492h-.31v-.492c0-.296-.211-.537-.473-.537h-.711v-3.444zm-5.79.538v2.906h-.719c-.261 0-.473.241-.473.537v.492h-.31v-.492c0-.229-.127-.423-.305-.5v-3.906h1.807v.963zm-2.28 4.88l.019.018c.08.069.178.112.286.112h1.257c.108 0 .206-.043.286-.112.113-.098.187-.251.187-.425v-.492h.623v.492c0 .121.036.232.096.322.086.13.222.215.376.215h1.257c.261 0 .473-.241.473-.537v-.492h.622v.492c0 .297.212.537.473.537h1.257c.159 0 .299-.09.385-.226.055-.088.088-.195.088-.311v-.492h.622v.492c0 .297.211.537.473.537h1.257c.117 0 .222-.05.305-.13l.008-.008c.098-.098.16-.24.16-.4v-.492h.868v.707c-.258.004-.466.243-.466.537v.533l-.058-.003h-11.423v-.53c0-.297-.211-.537-.473-.537h-.047v-.707h.922v.492c0 .164.066.309.168.407zm13.389 11.433v-.505h.643v.505c0 .297.211.537.473.537h1.273c.261 0 .473-.24.473-.537v-.505h.643v.505c0 .297.211.537.473.537h1.273c.262 0 .473-.24.473-.537v-.505h.643v.505c0 .101.026.196.07.277.083.156.232.26.403.26h1.273c.191 0 .355-.129.43-.315l.044-.222v-.505h.642v.81c-.133.094-.223.262-.224.454v2.847l.026.175.447 1.466h-10.453l-.545-1.787v-2.923h1.048c.262 0 .473-.24.473-.537zm8.297-3.484c.202.131.402.291.565.449h-1.13c.152-.15.345-.308.565-.449zm-23.117 1.149h.849v1.558c-.031.098-.215.279-.424.43l-.036-.027c-.194-.145-.359-.31-.389-.403v-1.558zm1.798-6.074h9.608v11.512h-9.608v-11.512zm-.109 12.587h9.826l.01.033.317 1.037h-10.478l.326-1.069zm-.841-9.145v1.559h-.849v-1.559c.03-.092.195-.258.389-.402l.036-.027c.21.151.393.331.424.429zm23.191 3.008v.38h-1.108c-.261 0-.473.241-.473.537v.505h-.262v-1.422h1.843zm.512-6.255v.771h-3.121v-.76c.488.116 1.007.177 1.533.177.545 0 1.085-.065 1.588-.189zm-4.068.008v.763h-3.121v-.769c.498.122 1.029.186 1.57.186.532 0 1.059-.062 1.551-.181zm-4.067.009v.754h-3.118v-.776c.508.127 1.051.194 1.603.194.518 0 1.032-.06 1.515-.172zm-9.411 1.064h.946v2.314h-.946v-2.314zm-1.379 8.303h1.952c.262 0 .473-.24.473-.537v-2.922c0-.852-.95-1.444-1.242-1.606-.131-.072-.284-.072-.415 0-1.153.638-1.242 1.39-1.242 1.606v2.922c0 .297.211.537.473.537zm.976-3.967c.257.181.482.404.503.509v2.384h-1.007v-2.374c.022-.113.247-.338.504-.519zm7.279 5.395l.016.135-.016.134v.512h1.44v-.512l-.016-.134.016-.135v-.511h-1.44v.511m3.898.269l-.016-.134.016-.135v-.511h-1.441v.511l.016.135-.016.134v.512h1.441v-.512m2.458 0l-.016-.134.016-.135v-.511h-1.441v.511l.016.135-.016.134v.512h1.441v-.512m2.458 0l-.016-.134.016-.135v-.511h-1.44v.511l.016.135-.016.134v.512h1.44v-.512m-17.402-9.999h.946v2.314h-.946v-2.314z" fill="#fff"/><path d="M17.01 48.37c.198.197.45.306.712.306h2.672c0 .309.117.602.321.807.173.173.396.269.626.269h2.907c.522 0 .947-.482.947-1.075 0-.59-.422-1.071-.942-1.074l.009-.149c0-.675-.483-1.224-1.077-1.224h-5.462c-.262 0-.514.109-.712.306-.232.232-.365.567-.365.918 0 .35.133.684.365.917zm.626-1.029l.086-.038h5.462c.073 0 .131.067.131.149 0 .082-.059.149-.131.149-.261 0-.473.24-.473.537h-.002c0 .297.212.537.474.537l1.065.001-2.907-.001h.002c.261 0 .473-.24.473-.537 0-.297-.212-.537-.473-.537h-3.621l-.086-.038-.045-.111.045-.111zm13.455 20.939h-2.968l-.528-1.732v-2.297c.134-.095.224-.264.224-.457v-1.804l-.008-.086v-1.361c0-.897-.901-1.605-1.394-1.925v-1.016c0-.296-.212-.537-.473-.537-.262 0-.473.241-.473.537v1.016c-.494.32-1.394 1.028-1.394 1.925v.909h-1.181c-.261 0-.473.241-.473.537v.505h-.326v-.505c0-.297-.212-.537-.474-.537h-1.588c-.262 0-.474.241-.474.537v.505h-.326v-.505c0-.297-.212-.537-.474-.537h-1.589c-.261 0-.473.241-.473.537v.505h-.326v-.505c0-.204-.101-.378-.249-.47v-1.348h7.035c.261 0 .473-.241.473-.537 0-.297-.212-.537-.473-.537h-7.035v-.577h4.329c.261 0 .473-.24.473-.537 0-.297-.212-.538-.473-.538h-4.329v-.783h14.381c.261 0 .473-.24.473-.537 0-.297-.212-.537-.473-.537h-2.183v-1.306c0-.186-.084-.35-.211-.447-.116-.175-.319-.26-.514-.192-.547.188-1.173.288-1.81.288-.686 0-1.354-.115-1.931-.332-.159-.06-.325-.018-.446.093-.509.156-1.076.239-1.654.239-.686 0-1.354-.115-1.931-.332-.159-.06-.325-.018-.447.093-.508.156-1.076.239-1.653.239-.561 0-1.11-.079-1.607-.225l-.006-.052v-1.173c.258-.005.466-.243.466-.537v-1.782c0-.296-.212-.537-.473-.537h-1.028v-4.399c0-.887-.888-1.587-1.377-1.905v-.998c0-.298-.212-.538-.473-.538s-.473.24-.473.538v.998c-.489.318-1.377 1.018-1.377 1.905v.955h-.319v-.25c0-.297-.212-.538-.473-.538s-.473.241-.473.538v.25h-.205v-.25c0-.297-.212-.538-.473-.538s-.473.241-.473.538v.25h-.205v-.25c0-.297-.212-.538-.473-.538s-.473.241-.473.538v.25h-.329v-.955c0-.887-.888-1.587-1.377-1.905v-.998c0-.298-.211-.538-.473-.538-.261 0-.473.24-.473.538v.998c-.488.318-1.377 1.018-1.377 1.905v4.399h-1.09c-.261 0-.474.241-.474.537v1.782c0 .297.212.537.474.537h.047v1.172l-.01.147v2.933c-.364.26-.852.719-.852 1.317v4.218c0 .599.488 1.057.852 1.317v2.906l-.545 1.787h-1.193c-.522 0-.946.481-.946 1.075 0 .593.424 1.075.946 1.075h30.099c.522 0 .946-.482.946-1.075s-.424-1.075-.946-1.075zm-25.459-24.028c.193.126.385.278.542.43h-1.084c.147-.144.332-.294.542-.43zm5.748 3.004v2.379c-.218.047-.384.264-.384.527v.492h-.31v-.492c0-.296-.212-.537-.473-.537h-1.569c-.261 0-.473.241-.473.537v.492h-.31v-.492c0-.259-.162-.475-.377-.526v-2.38h3.897zm1.85-3.005c.21.136.395.286.543.43h-1.086c.147-.144.333-.295.543-.43zm-.904 1.93v-.425h1.807v3.903l-.008.003c-.178.077-.305.272-.305.5v.492h-.31v-.492c0-.296-.211-.537-.473-.537h-.711v-3.444zm-5.79.538v2.906h-.719c-.261 0-.473.241-.473.537v.492h-.31v-.492c0-.229-.127-.423-.305-.5v-3.906h1.807v.963zm-2.28 4.88l.019.018c.08.069.178.112.286.112h1.257c.108 0 .206-.043.286-.112.113-.098.187-.251.187-.425v-.492h.623v.492c0 .121.036.232.096.322.086.13.222.215.376.215h1.257c.261 0 .473-.241.473-.537v-.492h.622v.492c0 .297.212.537.473.537h1.257c.159 0 .299-.09.385-.226.055-.088.088-.195.088-.311v-.492h.622v.492c0 .297.211.537.473.537h1.257c.117 0 .222-.05.305-.13l.008-.008c.098-.098.16-.24.16-.4v-.492h.868v.707c-.258.004-.466.243-.466.537v.533l-.058-.003h-11.423v-.53c0-.297-.211-.537-.473-.537h-.047v-.707h.922v.492c0 .164.066.309.168.407zm13.389 11.433v-.505h.643v.505c0 .297.211.537.473.537h1.273c.261 0 .473-.24.473-.537v-.505h.643v.505c0 .297.211.537.473.537h1.273c.262 0 .473-.24.473-.537v-.505h.643v.505c0 .101.026.196.07.277.083.156.232.26.403.26h1.273c.191 0 .355-.129.43-.315l.044-.222v-.505h.642v.81c-.133.094-.223.262-.224.454v2.847l.026.175.447 1.466h-10.453l-.545-1.787v-2.923h1.048c.262 0 .473-.24.473-.537zm8.297-3.484c.202.131.402.291.565.449h-1.13c.152-.15.345-.308.565-.449zm-23.117 1.149h.849v1.558c-.031.098-.215.279-.424.43l-.036-.027c-.194-.145-.359-.31-.389-.403v-1.558zm1.798-6.074h9.608v11.512h-9.608v-11.512zm-.109 12.587h9.826l.01.033.317 1.037h-10.478l.326-1.069zm-.841-9.145v1.559h-.849v-1.559c.03-.092.195-.258.389-.402l.036-.027c.21.151.393.331.424.429zm23.191 3.008v.38h-1.108c-.261 0-.473.241-.473.537v.505h-.262v-1.422h1.843zm.512-6.255v.771h-3.121v-.76c.488.116 1.007.177 1.533.177.545 0 1.085-.065 1.588-.189zm-4.068.008v.763h-3.121v-.769c.498.122 1.029.186 1.57.186.532 0 1.059-.062 1.551-.181zm-4.067.009v.754h-3.118v-.776c.508.127 1.051.194 1.603.194.518 0 1.032-.06 1.515-.172zm-9.411 1.064h.946v2.314h-.946v-2.314zm-1.379 8.303h1.952c.262 0 .473-.24.473-.537v-2.922c0-.852-.95-1.444-1.242-1.606-.131-.072-.284-.072-.415 0-1.153.638-1.242 1.39-1.242 1.606v2.922c0 .297.211.537.473.537zm.976-3.967c.257.181.482.404.503.509v2.384h-1.007v-2.374c.022-.113.247-.338.504-.519zm7.279 5.395l.016.135-.016.134v.512h1.44v-.512l-.016-.134.016-.135v-.511h-1.44v.511m3.898.269l-.016-.134.016-.135v-.511h-1.441v.511l.016.135-.016.134v.512h1.441v-.512m2.458 0l-.016-.134.016-.135v-.511h-1.441v.511l.016.135-.016.134v.512h1.441v-.512m2.458 0l-.016-.134.016-.135v-.511h-1.44v.511l.016.135-.016.134v.512h1.44v-.512m-17.402-9.999h.946v2.314h-.946v-2.314z" fill="#67737B"/><path d="M17.01 8.37c.198.197.45.306.712.306h2.672c0 .309.117.602.321.807.173.173.396.269.626.269h2.907c.522 0 .947-.482.947-1.075 0-.59-.422-1.071-.942-1.074l.009-.149c0-.675-.483-1.224-1.077-1.224h-5.462c-.262 0-.514.109-.712.306-.232.232-.365.567-.365.918 0 .35.133.684.365.917zm.626-1.029l.086-.038h5.462c.073 0 .131.067.131.149 0 .082-.059.149-.131.149-.261 0-.473.24-.473.537h-.002c0 .297.212.537.474.537l1.065.001-2.907-.001h.002c.261 0 .473-.24.473-.537 0-.297-.212-.537-.473-.537h-3.621l-.086-.038-.045-.111.045-.111zm13.455 20.939h-2.968l-.528-1.732v-2.297c.134-.095.224-.264.224-.457v-1.804l-.008-.086v-1.361c0-.897-.901-1.605-1.394-1.925v-1.016c0-.296-.212-.537-.473-.537-.262 0-.473.241-.473.537v1.016c-.494.32-1.394 1.028-1.394 1.925v.909h-1.181c-.261 0-.473.241-.473.537v.505h-.326v-.505c0-.297-.212-.537-.474-.537h-1.588c-.262 0-.474.241-.474.537v.505h-.326v-.505c0-.297-.212-.537-.474-.537h-1.589c-.261 0-.473.241-.473.537v.505h-.326v-.505c0-.204-.101-.378-.249-.47v-1.348h7.035c.261 0 .473-.241.473-.537 0-.297-.212-.537-.473-.537h-7.035v-.577h4.329c.261 0 .473-.24.473-.537 0-.297-.212-.538-.473-.538h-4.329v-.783h14.381c.261 0 .473-.24.473-.537 0-.297-.212-.537-.473-.537h-2.183v-1.306c0-.186-.084-.35-.211-.447-.116-.175-.319-.26-.514-.192-.547.188-1.173.288-1.81.288-.686 0-1.354-.115-1.931-.332-.159-.06-.325-.018-.446.093-.509.156-1.076.239-1.654.239-.686 0-1.354-.115-1.931-.332-.159-.06-.325-.018-.447.093-.508.156-1.076.239-1.653.239-.561 0-1.11-.079-1.607-.225l-.006-.052v-1.173c.258-.005.466-.243.466-.537v-1.782c0-.296-.212-.537-.473-.537h-1.028v-4.399c0-.887-.888-1.587-1.377-1.905v-.998c0-.298-.212-.538-.473-.538s-.473.24-.473.538v.998c-.489.318-1.377 1.018-1.377 1.905v.955h-.319v-.25c0-.297-.212-.538-.473-.538s-.473.241-.473.538v.25h-.205v-.25c0-.297-.212-.538-.473-.538s-.473.241-.473.538v.25h-.205v-.25c0-.297-.212-.538-.473-.538s-.473.241-.473.538v.25h-.329v-.955c0-.887-.888-1.587-1.377-1.905v-.998c0-.298-.211-.538-.473-.538-.261 0-.473.24-.473.538v.998c-.488.318-1.377 1.018-1.377 1.905v4.399h-1.09c-.261 0-.474.241-.474.537v1.782c0 .297.212.537.474.537h.047v1.172l-.01.147v2.933c-.364.26-.852.719-.852 1.317v4.218c0 .599.488 1.057.852 1.317v2.906l-.545 1.787h-1.193c-.522 0-.946.481-.946 1.075 0 .593.424 1.075.946 1.075h30.099c.522 0 .946-.482.946-1.075s-.424-1.075-.946-1.075zm-25.459-24.028c.193.126.385.278.542.43h-1.084c.147-.144.332-.294.542-.43zm5.748 3.004v2.379c-.218.047-.384.264-.384.527v.492h-.31v-.492c0-.296-.212-.537-.473-.537h-1.569c-.261 0-.473.241-.473.537v.492h-.31v-.492c0-.259-.162-.475-.377-.526v-2.38h3.897zm1.85-3.005c.21.136.395.286.543.43h-1.086c.147-.144.333-.295.543-.43zm-.904 1.93v-.425h1.807v3.903l-.008.003c-.178.077-.305.272-.305.5v.492h-.31v-.492c0-.296-.211-.537-.473-.537h-.711v-3.444zm-5.79.538v2.906h-.719c-.261 0-.473.241-.473.537v.492h-.31v-.492c0-.229-.127-.423-.305-.5v-3.906h1.807v.963zm-2.28 4.88l.019.018c.08.069.178.112.286.112h1.257c.108 0 .206-.043.286-.112.113-.098.187-.251.187-.425v-.492h.623v.492c0 .121.036.232.096.322.086.13.222.215.376.215h1.257c.261 0 .473-.241.473-.537v-.492h.622v.492c0 .297.212.537.473.537h1.257c.159 0 .299-.09.385-.226.055-.088.088-.195.088-.311v-.492h.622v.492c0 .297.211.537.473.537h1.257c.117 0 .222-.05.305-.13l.008-.008c.098-.098.16-.24.16-.4v-.492h.868v.707c-.258.004-.466.243-.466.537v.533l-.058-.003h-11.423v-.53c0-.297-.211-.537-.473-.537h-.047v-.707h.922v.492c0 .164.066.309.168.407zm13.389 11.433v-.505h.643v.505c0 .297.211.537.473.537h1.273c.261 0 .473-.24.473-.537v-.505h.643v.505c0 .297.211.537.473.537h1.273c.262 0 .473-.24.473-.537v-.505h.643v.505c0 .101.026.196.07.277.083.156.232.26.403.26h1.273c.191 0 .355-.129.43-.315l.044-.222v-.505h.642v.81c-.133.094-.223.262-.224.454v2.847l.026.175.447 1.466h-10.453l-.545-1.787v-2.923h1.048c.262 0 .473-.24.473-.537zm8.297-3.484c.202.131.402.291.565.449h-1.13c.152-.15.345-.308.565-.449zm-23.117 1.149h.849v1.558c-.031.098-.215.279-.424.43l-.036-.027c-.194-.145-.359-.31-.389-.403v-1.558zm1.798-6.074h9.608v11.512h-9.608v-11.512zm-.109 12.587h9.826l.01.033.317 1.037h-10.478l.326-1.069zm-.841-9.145v1.559h-.849v-1.559c.03-.092.195-.258.389-.402l.036-.027c.21.151.393.331.424.429zm23.191 3.008v.38h-1.108c-.261 0-.473.241-.473.537v.505h-.262v-1.422h1.843zm.512-6.255v.771h-3.121v-.76c.488.116 1.007.177 1.533.177.545 0 1.085-.065 1.588-.189zm-4.068.008v.763h-3.121v-.769c.498.122 1.029.186 1.57.186.532 0 1.059-.062 1.551-.181zm-4.067.009v.754h-3.118v-.776c.508.127 1.051.194 1.603.194.518 0 1.032-.06 1.515-.172zm-9.411 1.064h.946v2.314h-.946v-2.314zm-1.379 8.303h1.952c.262 0 .473-.24.473-.537v-2.922c0-.852-.95-1.444-1.242-1.606-.131-.072-.284-.072-.415 0-1.153.638-1.242 1.39-1.242 1.606v2.922c0 .297.211.537.473.537zm.976-3.967c.257.181.482.404.503.509v2.384h-1.007v-2.374c.022-.113.247-.338.504-.519zm7.279 5.395l.016.135-.016.134v.512h1.44v-.512l-.016-.134.016-.135v-.511h-1.44v.511m3.898.269l-.016-.134.016-.135v-.511h-1.441v.511l.016.135-.016.134v.512h1.441v-.512m2.458 0l-.016-.134.016-.135v-.511h-1.441v.511l.016.135-.016.134v.512h1.441v-.512m2.458 0l-.016-.134.016-.135v-.511h-1.44v.511l.016.135-.016.134v.512h1.44v-.512m-17.402-9.999h.946v2.314h-.946v-2.314z" fill="#3A434E"/></g></g></svg>