<svg width="32" height="232" viewBox="0 0 32 232" xmlns="http://www.w3.org/2000/svg" xmlns:sketch="http://www.bohemiancoding.com/sketch/ns"><title>prague</title><desc>Created with Sketch.</desc><g sketch:type="MSPage" fill="none"><g sketch:type="MSShapeGroup"><path d="M29.097 149.955h-.938v-11.336h.332c.277 0 .502-.224.502-.5 0-.21-.13-.39-.315-.464l-1.889-.9-1.684-10.116v-2.098c0-.277-.224-.501-.502-.501-.277 0-.501.224-.501.501v2.046l-1.601 10.169-1.914.912c-.212.101-.324.334-.273.561.052.228.255.39.49.39h.329v11.336h-1.173v-10.606c0-.37-.203-.692-.502-.865v-6.261h.197c.278 0 .502-.224.502-.5 0-.277-.224-.501-.502-.501h-.197v-2.833c0-.26-.199-.476-.458-.498-.257-.022-.493.155-.539.409l-.16.889-.669-7.6v-1.085c0-.276-.225-.5-.502-.5s-.502.224-.502.5v1.085l-.669 7.601-.161-.89c-.046-.254-.281-.431-.539-.409-.258.023-.457.238-.457.498v2.833h-.197c-.278 0-.502.224-.502.501 0 .276.225.5.502.5h.197v5.843l-2.47-5.167v-.742h.104c.277 0 .502-.224.502-.501 0-.276-.225-.5-.502-.5h-.104v-.103c0-.277-.225-.501-.501-.501-.278 0-.502.224-.502.501v.103h-.104c-.277 0-.501.224-.501.5 0 .277.225.501.501.501h.104v.742l-2.469 5.167v-5.843h.198c.277 0 .501-.224.501-.5 0-.277-.224-.501-.501-.501h-.198v-2.833c0-.26-.198-.476-.457-.498-.258-.022-.493.155-.539.409l-.161.889-.669-7.6v-1.085c0-.276-.224-.5-.501-.5-.278 0-.502.224-.502.5v1.085l-.668 7.601-.161-.89c-.046-.254-.282-.431-.539-.409-.259.023-.457.238-.457.498v2.833h-.197c-.277 0-.502.224-.502.501 0 .276.225.5.502.5h.197v6.261c-.3.172-.502.495-.502.865v10.606h-.756c-.554 0-1.004.448-1.004 1s.45 1 1.004 1h1.57l.19.019h14.247l.19-.019h9.951c.555 0 1.004-.448 1.004-1 0-.553-.449-1-1.004-1zm-17.266-13.181c-.342 0-.62.277-.62.617 0 .341.278.617.62.617.342 0 .619-.277.619-.617 0-.34-.278-.617-.619-.617zm6.063-2.24c-.019-.404-.354-.727-.765-.727-.41 0-.746.322-.764.727v2.714h1.529v-2.714zm6.751 5.395c-.41 0-.746.322-.764.726v2.714h1.529v-2.714c-.019-.404-.354-.726-.764-.726zm0 5.221c-.41 0-.746.321-.764.726v2.714h1.529v-2.714c-.019-.405-.354-.726-.764-.726zm-17.348-10.616c-.019-.404-.354-.727-.764-.727-.41 0-.745.322-.764.727v2.714h1.529v-2.714zm9.832 5.956c-.41 0-.746.322-.764.726v1.85h1.529v-1.85c-.019-.404-.354-.726-.765-.726zm-10.596 0c-.41 0-.745.322-.764.726v1.85h1.529v-1.85c-.019-.404-.354-.726-.764-.726zm10.596 3.189c-.41 0-.746.321-.764.726v1.849h1.529v-1.849c-.019-.405-.354-.726-.765-.726zm-10.596 0c-.41 0-.745.321-.764.726v1.849h1.529v-1.849c-.019-.405-.354-.726-.764-.726zm3.303-5.329l1.994-4.173 1.994 4.173.16.335h-4.308l.16-.335zm1.036 11.605v-6.272c0-.188.397-.588.958-.907.482.277.96.686.96.907v6.272h-1.917zm1.178-8.195c-.139-.068-.301-.068-.439 0-.291.141-1.743.898-1.743 1.922v6.272h-1.008v-9.605h5.943v9.605h-1.009v-6.272c0-1.024-1.451-1.781-1.743-1.922zm-6.338 8.195h-.502v-10.004h2.646v10.004h-2.144zm12.239 0h-2.145v-10.004h2.647v10.004h-.502zm-.48-18.731h-.682l.341-3.882.342 3.882zm-1.665 1.001h2.647v6.726h-2.647v-6.726zm-8.932-1.001h-.683l.342-3.882.341 3.882zm-1.665 1.001h2.646v6.726h-2.646v-6.726zm17.962 5.321c.149-.071.254-.211.28-.374l1.161-7.378 1.229 7.382c.027.161.131.299.279.369l.155.074h-3.258l.155-.074zm-.032 1.074h3.011v11.336h-3.011v-11.336z" fill="#206FAC"/><path d="M29.097 109.955h-.938v-11.336h.332c.277 0 .502-.224.502-.5 0-.21-.13-.39-.315-.464l-1.889-.9-1.684-10.116v-2.098c0-.277-.224-.501-.502-.501-.277 0-.501.224-.501.501v2.046l-1.601 10.169-1.914.912c-.212.101-.324.334-.273.561.052.228.255.39.49.39h.329v11.336h-1.173v-10.606c0-.37-.203-.692-.502-.865v-6.261h.197c.278 0 .502-.224.502-.5 0-.277-.224-.501-.502-.501h-.197v-2.833c0-.26-.199-.476-.458-.498-.257-.022-.493.155-.539.409l-.16.889-.669-7.6v-1.085c0-.276-.225-.5-.502-.5s-.502.224-.502.5v1.085l-.669 7.601-.161-.89c-.046-.254-.281-.431-.539-.409-.258.023-.457.238-.457.498v2.833h-.197c-.278 0-.502.224-.502.501 0 .276.225.5.502.5h.197v5.843l-2.47-5.167v-.742h.104c.277 0 .502-.224.502-.501 0-.276-.225-.5-.502-.5h-.104v-.103c0-.277-.225-.501-.501-.501-.278 0-.502.224-.502.501v.103h-.104c-.277 0-.501.224-.501.5 0 .277.225.501.501.501h.104v.742l-2.469 5.167v-5.843h.198c.277 0 .501-.224.501-.5 0-.277-.224-.501-.501-.501h-.198v-2.833c0-.26-.198-.476-.457-.498-.258-.022-.493.155-.539.409l-.161.889-.669-7.6v-1.085c0-.276-.224-.5-.501-.5-.278 0-.502.224-.502.5v1.085l-.668 7.601-.161-.89c-.046-.254-.282-.431-.539-.409-.259.023-.457.238-.457.498v2.833h-.197c-.277 0-.502.224-.502.501 0 .276.225.5.502.5h.197v6.261c-.3.172-.502.495-.502.865v10.606h-.756c-.554 0-1.004.448-1.004 1s.45 1 1.004 1h1.57l.19.019h14.247l.19-.019h9.951c.555 0 1.004-.448 1.004-1 0-.553-.449-1-1.004-1zm-17.266-13.181c-.342 0-.62.277-.62.617 0 .341.278.617.62.617.342 0 .619-.277.619-.617 0-.34-.278-.617-.619-.617zm6.063-2.24c-.019-.404-.354-.727-.765-.727-.41 0-.746.322-.764.727v2.714h1.529v-2.714zm6.751 5.395c-.41 0-.746.322-.764.726v2.714h1.529v-2.714c-.019-.404-.354-.726-.764-.726zm0 5.221c-.41 0-.746.321-.764.726v2.714h1.529v-2.714c-.019-.405-.354-.726-.764-.726zm-17.348-10.616c-.019-.404-.354-.727-.764-.727-.41 0-.745.322-.764.727v2.714h1.529v-2.714zm9.832 5.956c-.41 0-.746.322-.764.726v1.85h1.529v-1.85c-.019-.404-.354-.726-.765-.726zm-10.596 0c-.41 0-.745.322-.764.726v1.85h1.529v-1.85c-.019-.404-.354-.726-.764-.726zm10.596 3.189c-.41 0-.746.321-.764.726v1.849h1.529v-1.849c-.019-.405-.354-.726-.765-.726zm-10.596 0c-.41 0-.745.321-.764.726v1.849h1.529v-1.849c-.019-.405-.354-.726-.764-.726zm3.303-5.329l1.994-4.173 1.994 4.173.16.335h-4.308l.16-.335zm1.036 11.605v-6.272c0-.188.397-.588.958-.907.482.277.96.686.96.907v6.272h-1.917zm1.178-8.195c-.139-.068-.301-.068-.439 0-.291.141-1.743.898-1.743 1.922v6.272h-1.008v-9.605h5.943v9.605h-1.009v-6.272c0-1.024-1.451-1.781-1.743-1.922zm-6.338 8.195h-.502v-10.004h2.646v10.004h-2.144zm12.239 0h-2.145v-10.004h2.647v10.004h-.502zm-.48-18.731h-.682l.341-3.882.342 3.882zm-1.665 1.001h2.647v6.726h-2.647v-6.726zm-8.932-1.001h-.683l.342-3.882.341 3.882zm-1.665 1.001h2.646v6.726h-2.646v-6.726zm17.962 5.321c.149-.071.254-.211.28-.374l1.161-7.378 1.229 7.382c.027.161.131.299.279.369l.155.074h-3.258l.155-.074zm-.032 1.074h3.011v11.336h-3.011v-11.336z" fill="#fff"/><path d="M29.097 69.955h-.938v-11.336h.332c.277 0 .502-.224.502-.5 0-.21-.13-.39-.315-.464l-1.889-.9-1.684-10.116v-2.098c0-.277-.224-.501-.502-.501-.277 0-.501.224-.501.501v2.046l-1.601 10.169-1.914.912c-.212.101-.324.334-.273.561.052.228.255.39.49.39h.329v11.336h-1.173v-10.606c0-.37-.203-.692-.502-.865v-6.261h.197c.278 0 .502-.224.502-.5 0-.277-.224-.501-.502-.501h-.197v-2.833c0-.26-.199-.476-.458-.498-.257-.022-.493.155-.539.409l-.16.889-.669-7.6v-1.085c0-.276-.225-.5-.502-.5s-.502.224-.502.5v1.085l-.669 7.601-.161-.89c-.046-.254-.281-.431-.539-.409-.258.023-.457.238-.457.498v2.833h-.197c-.278 0-.502.224-.502.501 0 .276.225.5.502.5h.197v5.843l-2.47-5.167v-.742h.104c.277 0 .502-.224.502-.501 0-.276-.225-.5-.502-.5h-.104v-.103c0-.277-.225-.501-.501-.501-.278 0-.502.224-.502.501v.103h-.104c-.277 0-.501.224-.501.5 0 .277.225.501.501.501h.104v.742l-2.469 5.167v-5.843h.198c.277 0 .501-.224.501-.5 0-.277-.224-.501-.501-.501h-.198v-2.833c0-.26-.198-.476-.457-.498-.258-.022-.493.155-.539.409l-.161.889-.669-7.6v-1.085c0-.276-.224-.5-.501-.5-.278 0-.502.224-.502.5v1.085l-.668 7.601-.161-.89c-.046-.254-.282-.431-.539-.409-.259.023-.457.238-.457.498v2.833h-.197c-.277 0-.502.224-.502.501 0 .276.225.5.502.5h.197v6.261c-.3.172-.502.495-.502.865v10.606h-.756c-.554 0-1.004.448-1.004 1s.45 1 1.004 1h1.57l.19.019h14.247l.19-.019h9.951c.555 0 1.004-.448 1.004-1 0-.553-.449-1-1.004-1zm-17.266-13.181c-.342 0-.62.277-.62.617 0 .341.278.617.62.617.342 0 .619-.277.619-.617 0-.34-.278-.617-.619-.617zm6.063-2.24c-.019-.404-.354-.727-.765-.727-.41 0-.746.322-.764.727v2.714h1.529v-2.714zm6.751 5.395c-.41 0-.746.322-.764.726v2.714h1.529v-2.714c-.019-.404-.354-.726-.764-.726zm0 5.221c-.41 0-.746.321-.764.726v2.714h1.529v-2.714c-.019-.405-.354-.726-.764-.726zm-17.348-10.616c-.019-.404-.354-.727-.764-.727-.41 0-.745.322-.764.727v2.714h1.529v-2.714zm9.832 5.956c-.41 0-.746.322-.764.726v1.85h1.529v-1.85c-.019-.404-.354-.726-.765-.726zm-10.596 0c-.41 0-.745.322-.764.726v1.85h1.529v-1.85c-.019-.404-.354-.726-.764-.726zm10.596 3.189c-.41 0-.746.321-.764.726v1.849h1.529v-1.849c-.019-.405-.354-.726-.765-.726zm-10.596 0c-.41 0-.745.321-.764.726v1.849h1.529v-1.849c-.019-.405-.354-.726-.764-.726zm3.303-5.329l1.994-4.173 1.994 4.173.16.335h-4.308l.16-.335zm1.036 11.605v-6.272c0-.188.397-.588.958-.907.482.277.96.686.96.907v6.272h-1.917zm1.178-8.195c-.139-.068-.301-.068-.439 0-.291.141-1.743.898-1.743 1.922v6.272h-1.008v-9.605h5.943v9.605h-1.009v-6.272c0-1.024-1.451-1.781-1.743-1.922zm-6.338 8.195h-.502v-10.004h2.646v10.004h-2.144zm12.239 0h-2.145v-10.004h2.647v10.004h-.502zm-.48-18.731h-.682l.341-3.882.342 3.882zm-1.665 1.001h2.647v6.726h-2.647v-6.726zm-8.932-1.001h-.683l.342-3.882.341 3.882zm-1.665 1.001h2.646v6.726h-2.646v-6.726zm17.962 5.321c.149-.071.254-.211.28-.374l1.161-7.378 1.229 7.382c.027.161.131.299.279.369l.155.074h-3.258l.155-.074zm-.032 1.074h3.011v11.336h-3.011v-11.336z" fill="#67737B"/><path d="M29.097 29.955h-.938v-11.336h.332c.277 0 .502-.224.502-.5 0-.21-.13-.39-.315-.464l-1.889-.9-1.684-10.116v-2.098c0-.277-.224-.501-.502-.501-.277 0-.501.224-.501.501v2.046l-1.601 10.169-1.914.912c-.212.101-.324.334-.273.561.052.228.255.39.49.39h.329v11.336h-1.173v-10.606c0-.37-.203-.692-.502-.865v-6.261h.197c.278 0 .502-.224.502-.5 0-.277-.224-.501-.502-.501h-.197v-2.833c0-.26-.199-.476-.458-.498-.257-.022-.493.155-.539.409l-.16.889-.669-7.6v-1.085c0-.276-.225-.5-.502-.5s-.502.224-.502.5v1.085l-.669 7.601-.161-.89c-.046-.254-.281-.431-.539-.409-.258.023-.457.238-.457.498v2.833h-.197c-.278 0-.502.224-.502.501 0 .276.225.5.502.5h.197v5.843l-2.47-5.167v-.742h.104c.277 0 .502-.224.502-.501 0-.276-.225-.5-.502-.5h-.104v-.103c0-.277-.225-.501-.501-.501-.278 0-.502.224-.502.501v.103h-.104c-.277 0-.501.224-.501.5 0 .277.225.501.501.501h.104v.742l-2.469 5.167v-5.843h.198c.277 0 .501-.224.501-.5 0-.277-.224-.501-.501-.501h-.198v-2.833c0-.26-.198-.476-.457-.498-.258-.022-.493.155-.539.409l-.161.889-.669-7.6v-1.085c0-.276-.224-.5-.501-.5-.278 0-.502.224-.502.5v1.085l-.668 7.601-.161-.89c-.046-.254-.282-.431-.539-.409-.259.023-.457.238-.457.498v2.833h-.197c-.277 0-.502.224-.502.501 0 .276.225.5.502.5h.197v6.261c-.3.172-.502.495-.502.865v10.606h-.756c-.554 0-1.004.448-1.004 1s.45 1 1.004 1h1.57l.19.019h14.247l.19-.019h9.951c.555 0 1.004-.448 1.004-1 0-.553-.449-1-1.004-1zm-17.266-13.181c-.342 0-.62.277-.62.617 0 .341.278.617.62.617.342 0 .619-.277.619-.617 0-.34-.278-.617-.619-.617zm6.063-2.24c-.019-.404-.354-.727-.765-.727-.41 0-.746.322-.764.727v2.714h1.529v-2.714zm6.751 5.395c-.41 0-.746.322-.764.726v2.714h1.529v-2.714c-.019-.404-.354-.726-.764-.726zm0 5.221c-.41 0-.746.321-.764.726v2.714h1.529v-2.714c-.019-.405-.354-.726-.764-.726zm-17.348-10.616c-.019-.404-.354-.727-.764-.727-.41 0-.745.322-.764.727v2.714h1.529v-2.714zm9.832 5.956c-.41 0-.746.322-.764.726v1.85h1.529v-1.85c-.019-.404-.354-.726-.765-.726zm-10.596 0c-.41 0-.745.322-.764.726v1.85h1.529v-1.85c-.019-.404-.354-.726-.764-.726zm10.596 3.189c-.41 0-.746.321-.764.726v1.849h1.529v-1.849c-.019-.405-.354-.726-.765-.726zm-10.596 0c-.41 0-.745.321-.764.726v1.849h1.529v-1.849c-.019-.405-.354-.726-.764-.726zm3.303-5.329l1.994-4.173 1.994 4.173.16.335h-4.308l.16-.335zm1.036 11.605v-6.272c0-.188.397-.588.958-.907.482.277.96.686.96.907v6.272h-1.917zm1.178-8.195c-.139-.068-.301-.068-.439 0-.291.141-1.743.898-1.743 1.922v6.272h-1.008v-9.605h5.943v9.605h-1.009v-6.272c0-1.024-1.451-1.781-1.743-1.922zm-6.338 8.195h-.502v-10.004h2.646v10.004h-2.144zm12.239 0h-2.145v-10.004h2.647v10.004h-.502zm-.48-18.731h-.682l.341-3.882.342 3.882zm-1.665 1.001h2.647v6.726h-2.647v-6.726zm-8.932-1.001h-.683l.342-3.882.341 3.882zm-1.665 1.001h2.646v6.726h-2.646v-6.726zm17.962 5.321c.149-.071.254-.211.28-.374l1.161-7.378 1.229 7.382c.027.161.131.299.279.369l.155.074h-3.258l.155-.074zm-.032 1.074h3.011v11.336h-3.011v-11.336z" fill="#3A434E"/></g></g></svg>