<svg width="32" height="232" viewBox="0 0 32 232" xmlns="http://www.w3.org/2000/svg" xmlns:sketch="http://www.bohemiancoding.com/sketch/ns"><title>rocky-mountain-national-park</title><desc>Created with Sketch.</desc><g sketch:type="MSPage" fill="none"><g sketch:type="MSShapeGroup"><path d="M13.489 141.389c-.489 0-.756.11-.971.199-.177.073-.306.126-.605.126s-.428-.053-.605-.126c-.215-.089-.482-.199-.971-.199s-.756.11-.971.199c-.177.073-.306.126-.605.126s-.428-.053-.605-.126c-.215-.089-.482-.199-.971-.199s-.756.11-.971.199c-.177.073-.306.126-.605.126s-.428-.053-.605-.126c-.215-.089-.482-.199-.971-.199s-.756.11-.971.199c-.177.073-.306.126-.605.126-.278 0-.503.237-.503.53 0 .293.225.53.503.53.489 0 .756-.11.971-.199.178-.073.306-.126.605-.126s.428.053.605.126c.215.088.482.199.971.199s.756-.11.971-.199c.178-.073.306-.126.605-.126s.428.053.605.126c.215.088.482.199.971.199s.756-.11.971-.199c.178-.073.306-.126.605-.126s.427.053.605.126c.215.088.482.199.971.199s.756-.11.971-.199c.178-.073.306-.126.605-.126.278 0 .503-.237.503-.53 0-.293-.225-.53-.503-.53m-.619 2.68c-.177.073-.306.126-.605.126s-.428-.053-.605-.126c-.215-.088-.482-.199-.971-.199s-.756.11-.971.199c-.177.073-.306.126-.605.126s-.428-.053-.605-.126c-.215-.088-.482-.199-.971-.199s-.756.11-.971.199c-.177.073-.306.126-.605.126-.278 0-.503.237-.503.53 0 .293.225.53.503.53.489 0 .756-.11.971-.199.178-.073.306-.126.605-.126s.428.053.605.126c.215.089.482.199.971.199s.756-.11.971-.199c.178-.073.306-.126.605-.126s.428.053.605.126c.215.089.482.199.971.199s.756-.11.971-.199c.178-.073.306-.126.605-.126s.427.053.605.126c.215.088.482.199.971.199s.756-.11.971-.199c.178-.073.306-.126.605-.126.278 0 .503-.237.503-.53 0-.293-.225-.53-.503-.53-.489 0-.756.11-.971.199-.177.073-.306.126-.605.126s-.428-.053-.605-.126c-.215-.088-.482-.199-.971-.199s-.756.11-.971.199m-11.242-15.009h3.677c.268 0 .526-.103.728-.29.238-.221.374-.538.374-.871l-.005-.101h1.747c.308 0 .606-.119.837-.334.273-.254.43-.619.43-1.001 0-.383-.157-.748-.43-1.001-.232-.216-.529-.334-.838-.334h-5.176c-.699 0-1.267.599-1.267 1.336l.027.275h-.106c-.608 0-1.102.521-1.102 1.161s.494 1.161 1.102 1.161zm0-1.262h1.348c.278 0 .503-.237.503-.53h-.002c0-.293-.225-.53-.503-.53-.144 0-.261-.123-.261-.275 0-.152.117-.275.261-.275h5.176c.081 0 .138.037.172.069.033.031.089.099.089.206 0 .107-.056.175-.089.206-.034.032-.091.069-.172.069h-2.846c-.278 0-.503.237-.503.53 0 .293.225.53.503.53h.002l.063.026.033.075-.033.075-.063.026h-3.677c-.053 0-.096-.045-.096-.101 0-.055.043-.101.096-.101zm10.204-4.306h5.337c.278 0 .503-.237.503-.53 0-.293-.225-.53-.503-.53h-5.337c-.278 0-.503.237-.503.53 0 .293.225.53.503.53zm-1.417 1.766h5.337c.278 0 .503-.237.503-.53 0-.293-.225-.53-.503-.53h-5.337c-.278 0-.503.237-.503.53 0 .293.225.53.503.53zm20.573 22.621h-5.466v-1.271h3.412c.18 0 .346-.101.436-.265.09-.164.09-.366 0-.53l-1.674-3.057h3.741c.18 0 .346-.101.436-.265.09-.164.09-.366 0-.53l-1.378-2.516h.404c.279 0 .504-.238.504-.531 0-.112-.033-.217-.09-.303l-1.282-2.34h.48c.278 0 .504-.237.504-.53 0-.113-.033-.217-.09-.303l-2.48-4.526-.199-.363-.133-.158.995.421.807.341c.258.11.551-.023.654-.295.103-.272-.022-.58-.28-.69l-2.494-1.055-1.843-3.408c-.046-.085-.114-.156-.196-.203l-2.776-1.602-2.049-1.755c-.13-.112-.305-.147-.465-.096-.16.052-.286.184-.334.354l-1.027 3.577-2.07 1.214-1.738.855c-.127.062-.223.178-.266.318l-.693 2.278-2.268 1.734-1.283-2.631c-.158-.324-.462-.54-.806-.572-.345-.032-.68.125-.889.414l-1.78 2.464c-.106.146-.174.319-.197.501-.037.293-.085.603-.131.861l-1 .013c-.337.006-.648.189-.83.488l-.746 1.228-1.453 1.33c-.129.118-.227.268-.285.437l-.661 1.907c-.064.185-.075.376-.043.557h-1.021c-.278 0-.503.237-.503.53 0 .293.225.53.503.53h19.326l-.569 1.038c-.09.164-.09.366 0 .53.09.164.256.265.436.265h.798l-1.941 3.543c-.09.164-.09.366 0 .53.09.164.256.265.436.265h3.697v1.271h-22.095c-.556 0-1.006.475-1.006 1.061s.45 1.061 1.006 1.061h29.959c.556 0 1.006-.475 1.006-1.061s-.451-1.061-1.006-1.061zm-6.858 0v-1.219h.385v1.912h-.385v-.693zm-1.891-5.875c.09-.164.09-.366 0-.53-.09-.164-.256-.265-.436-.265h-.798l1.842-3.363c.09-.164.09-.366 0-.53-.09-.164-.256-.265-.436-.265h-.897l2.665-4.866 1.836 3.351.112.205.165.301.334.611.218.398h-.897c-.087 0-.171.024-.245.068-.078.046-.145.113-.191.198-.046.085-.068.179-.067.273.001.089.023.178.067.257l.187.341.108.198.529.965.014.025 1.004 1.834h-.798c-.18 0-.346.101-.436.265-.038.069-.059.145-.065.222-.008.106.013.213.065.309l1.941 3.543h-7.764l1.941-3.543zm6.918-6.793c-.18 0-.346.101-.436.265-.04.072-.061.153-.065.234-.006.102.015.205.065.297l1.303 2.378h-.403c-.18 0-.346.101-.436.265-.09.164-.09.366 0 .53l1.378 2.516h-1.836c-.007-.096-.038-.185-.087-.259l-1.822-3.325h.899c.278 0 .503-.237.503-.53 0-.113-.033-.217-.09-.303l-.357-.651-.144-.263-1.141-2.083 1.318-2.406 1.828 3.337h-.478zm-1.35-4.927c-.18 0-.346.101-.436.265l-1.463 2.671-.593-1.083-.1-1.514c-.012-.18-.11-.341-.26-.428l-1.463-.847-.346-1.157c-.036-.12-.11-.222-.211-.289l-1.102-.735c-.202-.134-.465-.101-.631.08l-3.205 3.505-2.195 2.362-.068.091-1.418 2.407-.92-1.008-.8-1.141-.064-.131.013-.01 2.515-1.922c.087-.066.151-.16.184-.267l.676-2.222 1.555-.765.032-.017 2.264-1.327c.114-.067.199-.178.237-.31l.869-3.026 1.502 1.287.076.054 2.692 1.553 1.859 3.438c.056.104.144.185.25.23l.612.259-.059-.004zm-23.854 9.092l.512-1.478 1.366-1.25c.073-.066.136-.143.187-.229l.533-.876c.472-.005.91-.006 1.031.001.267.032.531-.044.748-.217.275-.219.506-.527.738-2.208l.654-.906 1.12 2.297.086.146.887 1.265.084.105 1.363 1.494.684 1.855h-9.994zm12.069 0c.004-.137-.018-.277-.068-.413l-.889-2.409-.051-.115 1.545-2.623 2.159-2.324 2.924-3.197.6.4.351 1.175c.039.13.124.239.238.305l.992.574-.079.109-3.537 6.456c-.09.164-.09.366 0 .53.09.164.256.265.436.265h.897l-.693 1.264h-4.824z" fill="#206FAC"/><path d="M13.489 101.389c-.489 0-.756.11-.971.199-.177.073-.306.126-.605.126s-.428-.053-.605-.126c-.215-.089-.482-.199-.971-.199s-.756.11-.971.199c-.177.073-.306.126-.605.126s-.428-.053-.605-.126c-.215-.089-.482-.199-.971-.199s-.756.11-.971.199c-.177.073-.306.126-.605.126s-.428-.053-.605-.126c-.215-.089-.482-.199-.971-.199s-.756.11-.971.199c-.177.073-.306.126-.605.126-.278 0-.503.237-.503.53 0 .293.225.53.503.53.489 0 .756-.11.971-.199.178-.073.306-.126.605-.126s.428.053.605.126c.215.088.482.199.971.199s.756-.11.971-.199c.178-.073.306-.126.605-.126s.428.053.605.126c.215.088.482.199.971.199s.756-.11.971-.199c.178-.073.306-.126.605-.126s.427.053.605.126c.215.088.482.199.971.199s.756-.11.971-.199c.178-.073.306-.126.605-.126.278 0 .503-.237.503-.53 0-.293-.225-.53-.503-.53m-.619 2.68c-.177.073-.306.126-.605.126s-.428-.053-.605-.126c-.215-.088-.482-.199-.971-.199s-.756.11-.971.199c-.177.073-.306.126-.605.126s-.428-.053-.605-.126c-.215-.088-.482-.199-.971-.199s-.756.11-.971.199c-.177.073-.306.126-.605.126-.278 0-.503.237-.503.53 0 .293.225.53.503.53.489 0 .756-.11.971-.199.178-.073.306-.126.605-.126s.428.053.605.126c.215.089.482.199.971.199s.756-.11.971-.199c.178-.073.306-.126.605-.126s.428.053.605.126c.215.089.482.199.971.199s.756-.11.971-.199c.178-.073.306-.126.605-.126s.427.053.605.126c.215.088.482.199.971.199s.756-.11.971-.199c.178-.073.306-.126.605-.126.278 0 .503-.237.503-.53 0-.293-.225-.53-.503-.53-.489 0-.756.11-.971.199-.177.073-.306.126-.605.126s-.428-.053-.605-.126c-.215-.088-.482-.199-.971-.199s-.756.11-.971.199m-11.242-15.009h3.677c.268 0 .526-.103.728-.29.238-.221.374-.538.374-.871l-.005-.101h1.747c.308 0 .606-.119.837-.334.273-.254.43-.619.43-1.001 0-.383-.157-.748-.43-1.001-.232-.216-.529-.334-.838-.334h-5.176c-.699 0-1.267.599-1.267 1.336l.027.275h-.106c-.608 0-1.102.521-1.102 1.161s.494 1.161 1.102 1.161zm0-1.262h1.348c.278 0 .503-.237.503-.53h-.002c0-.293-.225-.53-.503-.53-.144 0-.261-.123-.261-.275 0-.152.117-.275.261-.275h5.176c.081 0 .138.037.172.069.033.031.089.099.089.206 0 .107-.056.175-.089.206-.034.032-.091.069-.172.069h-2.846c-.278 0-.503.237-.503.53 0 .293.225.53.503.53h.002l.063.026.033.075-.033.075-.063.026h-3.677c-.053 0-.096-.045-.096-.101 0-.055.043-.101.096-.101zm10.204-4.306h5.337c.278 0 .503-.237.503-.53 0-.293-.225-.53-.503-.53h-5.337c-.278 0-.503.237-.503.53 0 .293.225.53.503.53zm-1.417 1.766h5.337c.278 0 .503-.237.503-.53 0-.293-.225-.53-.503-.53h-5.337c-.278 0-.503.237-.503.53 0 .293.225.53.503.53zm20.573 22.621h-5.466v-1.271h3.412c.18 0 .346-.101.436-.265.09-.164.09-.366 0-.53l-1.674-3.057h3.741c.18 0 .346-.101.436-.265.09-.164.09-.366 0-.53l-1.378-2.516h.404c.279 0 .504-.238.504-.531 0-.112-.033-.217-.09-.303l-1.282-2.34h.48c.278 0 .504-.237.504-.53 0-.113-.033-.217-.09-.303l-2.48-4.526-.199-.363-.133-.158.995.421.807.341c.258.11.551-.023.654-.295.103-.272-.022-.58-.28-.69l-2.494-1.055-1.843-3.408c-.046-.085-.114-.156-.196-.203l-2.776-1.602-2.049-1.755c-.13-.112-.305-.147-.465-.096-.16.052-.286.184-.334.354l-1.027 3.577-2.07 1.214-1.738.855c-.127.062-.223.178-.266.318l-.693 2.278-2.268 1.734-1.283-2.631c-.158-.324-.462-.54-.806-.572-.345-.032-.68.125-.889.414l-1.78 2.464c-.106.146-.174.319-.197.501-.037.293-.085.603-.131.861l-1 .013c-.337.006-.648.189-.83.488l-.746 1.228-1.453 1.33c-.129.118-.227.268-.285.437l-.661 1.907c-.064.185-.075.376-.043.557h-1.021c-.278 0-.503.237-.503.53 0 .293.225.53.503.53h19.326l-.569 1.038c-.09.164-.09.366 0 .53.09.164.256.265.436.265h.798l-1.941 3.543c-.09.164-.09.366 0 .53.09.164.256.265.436.265h3.697v1.271h-22.095c-.556 0-1.006.475-1.006 1.061s.45 1.061 1.006 1.061h29.959c.556 0 1.006-.475 1.006-1.061s-.451-1.061-1.006-1.061zm-6.858 0v-1.219h.385v1.912h-.385v-.693zm-1.891-5.875c.09-.164.09-.366 0-.53-.09-.164-.256-.265-.436-.265h-.798l1.842-3.363c.09-.164.09-.366 0-.53-.09-.164-.256-.265-.436-.265h-.897l2.665-4.866 1.836 3.351.112.205.165.301.334.611.218.398h-.897c-.087 0-.171.024-.245.068-.078.046-.145.113-.191.198-.046.085-.068.179-.067.273.001.089.023.178.067.257l.187.341.108.198.529.965.014.025 1.004 1.834h-.798c-.18 0-.346.101-.436.265-.038.069-.059.145-.065.222-.008.106.013.213.065.309l1.941 3.543h-7.764l1.941-3.543zm6.918-6.793c-.18 0-.346.101-.436.265-.04.072-.061.153-.065.234-.006.102.015.205.065.297l1.303 2.378h-.403c-.18 0-.346.101-.436.265-.09.164-.09.366 0 .53l1.378 2.516h-1.836c-.007-.096-.038-.185-.087-.259l-1.822-3.325h.899c.278 0 .503-.237.503-.53 0-.113-.033-.217-.09-.303l-.357-.651-.144-.263-1.141-2.083 1.318-2.406 1.828 3.337h-.478zm-1.35-4.927c-.18 0-.346.101-.436.265l-1.463 2.671-.593-1.083-.1-1.514c-.012-.18-.11-.341-.26-.428l-1.463-.847-.346-1.157c-.036-.12-.11-.222-.211-.289l-1.102-.735c-.202-.134-.465-.101-.631.08l-3.205 3.505-2.195 2.362-.068.091-1.418 2.407-.92-1.008-.8-1.141-.064-.131.013-.01 2.515-1.922c.087-.066.151-.16.184-.267l.676-2.222 1.555-.765.032-.017 2.264-1.327c.114-.067.199-.178.237-.31l.869-3.026 1.502 1.287.076.054 2.692 1.553 1.859 3.438c.056.104.144.185.25.23l.612.259-.059-.004zm-23.854 9.092l.512-1.478 1.366-1.25c.073-.066.136-.143.187-.229l.533-.876c.472-.005.91-.006 1.031.001.267.032.531-.044.748-.217.275-.219.506-.527.738-2.208l.654-.906 1.12 2.297.086.146.887 1.265.084.105 1.363 1.494.684 1.855h-9.994zm12.069 0c.004-.137-.018-.277-.068-.413l-.889-2.409-.051-.115 1.545-2.623 2.159-2.324 2.924-3.197.6.4.351 1.175c.039.13.124.239.238.305l.992.574-.079.109-3.537 6.456c-.09.164-.09.366 0 .53.09.164.256.265.436.265h.897l-.693 1.264h-4.824z" fill="#fff"/><path d="M13.489 61.389c-.489 0-.756.11-.971.199-.177.073-.306.126-.605.126s-.428-.053-.605-.126c-.215-.089-.482-.199-.971-.199s-.756.11-.971.199c-.177.073-.306.126-.605.126s-.428-.053-.605-.126c-.215-.089-.482-.199-.971-.199s-.756.11-.971.199c-.177.073-.306.126-.605.126s-.428-.053-.605-.126c-.215-.089-.482-.199-.971-.199s-.756.11-.971.199c-.177.073-.306.126-.605.126-.278 0-.503.237-.503.53 0 .293.225.53.503.53.489 0 .756-.11.971-.199.178-.073.306-.126.605-.126s.428.053.605.126c.215.088.482.199.971.199s.756-.11.971-.199c.178-.073.306-.126.605-.126s.428.053.605.126c.215.088.482.199.971.199s.756-.11.971-.199c.178-.073.306-.126.605-.126s.427.053.605.126c.215.088.482.199.971.199s.756-.11.971-.199c.178-.073.306-.126.605-.126.278 0 .503-.237.503-.53 0-.293-.225-.53-.503-.53m-.619 2.68c-.177.073-.306.126-.605.126s-.428-.053-.605-.126c-.215-.088-.482-.199-.971-.199s-.756.11-.971.199c-.177.073-.306.126-.605.126s-.428-.053-.605-.126c-.215-.088-.482-.199-.971-.199s-.756.11-.971.199c-.177.073-.306.126-.605.126-.278 0-.503.237-.503.53 0 .293.225.53.503.53.489 0 .756-.11.971-.199.178-.073.306-.126.605-.126s.428.053.605.126c.215.089.482.199.971.199s.756-.11.971-.199c.178-.073.306-.126.605-.126s.428.053.605.126c.215.089.482.199.971.199s.756-.11.971-.199c.178-.073.306-.126.605-.126s.427.053.605.126c.215.088.482.199.971.199s.756-.11.971-.199c.178-.073.306-.126.605-.126.278 0 .503-.237.503-.53 0-.293-.225-.53-.503-.53-.489 0-.756.11-.971.199-.177.073-.306.126-.605.126s-.428-.053-.605-.126c-.215-.088-.482-.199-.971-.199s-.756.11-.971.199m-11.242-15.009h3.677c.268 0 .526-.103.728-.29.238-.221.374-.538.374-.871l-.005-.101h1.747c.308 0 .606-.119.837-.334.273-.254.43-.619.43-1.001 0-.383-.157-.748-.43-1.001-.232-.216-.529-.334-.838-.334h-5.176c-.699 0-1.267.599-1.267 1.336l.027.275h-.106c-.608 0-1.102.521-1.102 1.161s.494 1.161 1.102 1.161zm0-1.262h1.348c.278 0 .503-.237.503-.53h-.002c0-.293-.225-.53-.503-.53-.144 0-.261-.123-.261-.275 0-.152.117-.275.261-.275h5.176c.081 0 .138.037.172.069.033.031.089.099.089.206 0 .107-.056.175-.089.206-.034.032-.091.069-.172.069h-2.846c-.278 0-.503.237-.503.53 0 .293.225.53.503.53h.002l.063.026.033.075-.033.075-.063.026h-3.677c-.053 0-.096-.045-.096-.101 0-.055.043-.101.096-.101zm10.204-4.306h5.337c.278 0 .503-.237.503-.53 0-.293-.225-.53-.503-.53h-5.337c-.278 0-.503.237-.503.53 0 .293.225.53.503.53zm-1.417 1.766h5.337c.278 0 .503-.237.503-.53 0-.293-.225-.53-.503-.53h-5.337c-.278 0-.503.237-.503.53 0 .293.225.53.503.53zm20.573 22.621h-5.466v-1.271h3.412c.18 0 .346-.101.436-.265.09-.164.09-.366 0-.53l-1.674-3.057h3.741c.18 0 .346-.101.436-.265.09-.164.09-.366 0-.53l-1.378-2.516h.404c.279 0 .504-.238.504-.531 0-.112-.033-.217-.09-.303l-1.282-2.34h.48c.278 0 .504-.237.504-.53 0-.113-.033-.217-.09-.303l-2.48-4.526-.199-.363-.133-.158.995.421.807.341c.258.11.551-.023.654-.295.103-.272-.022-.58-.28-.69l-2.494-1.055-1.843-3.408c-.046-.085-.114-.156-.196-.203l-2.776-1.602-2.049-1.755c-.13-.112-.305-.147-.465-.096-.16.052-.286.184-.334.354l-1.027 3.577-2.07 1.214-1.738.855c-.127.062-.223.178-.266.318l-.693 2.278-2.268 1.734-1.283-2.631c-.158-.324-.462-.54-.806-.572-.345-.032-.68.125-.889.414l-1.78 2.464c-.106.146-.174.319-.197.501-.037.293-.085.603-.131.861l-1 .013c-.337.006-.648.189-.83.488l-.746 1.228-1.453 1.33c-.129.118-.227.268-.285.437l-.661 1.907c-.064.185-.075.376-.043.557h-1.021c-.278 0-.503.237-.503.53 0 .293.225.53.503.53h19.326l-.569 1.038c-.09.164-.09.366 0 .53.09.164.256.265.436.265h.798l-1.941 3.543c-.09.164-.09.366 0 .53.09.164.256.265.436.265h3.697v1.271h-22.095c-.556 0-1.006.475-1.006 1.061s.45 1.061 1.006 1.061h29.959c.556 0 1.006-.475 1.006-1.061s-.451-1.061-1.006-1.061zm-6.858 0v-1.219h.385v1.912h-.385v-.693zm-1.891-5.875c.09-.164.09-.366 0-.53-.09-.164-.256-.265-.436-.265h-.798l1.842-3.363c.09-.164.09-.366 0-.53-.09-.164-.256-.265-.436-.265h-.897l2.665-4.866 1.836 3.351.112.205.165.301.334.611.218.398h-.897c-.087 0-.171.024-.245.068-.078.046-.145.113-.191.198-.046.085-.068.179-.067.273.001.089.023.178.067.257l.187.341.108.198.529.965.014.025 1.004 1.834h-.798c-.18 0-.346.101-.436.265-.038.069-.059.145-.065.222-.008.106.013.213.065.309l1.941 3.543h-7.764l1.941-3.543zm6.918-6.793c-.18 0-.346.101-.436.265-.04.072-.061.153-.065.234-.006.102.015.205.065.297l1.303 2.378h-.403c-.18 0-.346.101-.436.265-.09.164-.09.366 0 .53l1.378 2.516h-1.836c-.007-.096-.038-.185-.087-.259l-1.822-3.325h.899c.278 0 .503-.237.503-.53 0-.113-.033-.217-.09-.303l-.357-.651-.144-.263-1.141-2.083 1.318-2.406 1.828 3.337h-.478zm-1.35-4.927c-.18 0-.346.101-.436.265l-1.463 2.671-.593-1.083-.1-1.514c-.012-.18-.11-.341-.26-.428l-1.463-.847-.346-1.157c-.036-.12-.11-.222-.211-.289l-1.102-.735c-.202-.134-.465-.101-.631.08l-3.205 3.505-2.195 2.362-.068.091-1.418 2.407-.92-1.008-.8-1.141-.064-.131.013-.01 2.515-1.922c.087-.066.151-.16.184-.267l.676-2.222 1.555-.765.032-.017 2.264-1.327c.114-.067.199-.178.237-.31l.869-3.026 1.502 1.287.076.054 2.692 1.553 1.859 3.438c.056.104.144.185.25.23l.612.259-.059-.004zm-23.854 9.092l.512-1.478 1.366-1.25c.073-.066.136-.143.187-.229l.533-.876c.472-.005.91-.006 1.031.001.267.032.531-.044.748-.217.275-.219.506-.527.738-2.208l.654-.906 1.12 2.297.086.146.887 1.265.084.105 1.363 1.494.684 1.855h-9.994zm12.069 0c.004-.137-.018-.277-.068-.413l-.889-2.409-.051-.115 1.545-2.623 2.159-2.324 2.924-3.197.6.4.351 1.175c.039.13.124.239.238.305l.992.574-.079.109-3.537 6.456c-.09.164-.09.366 0 .53.09.164.256.265.436.265h.897l-.693 1.264h-4.824z" fill="#67737B"/><path d="M13.489 21.389c-.489 0-.756.11-.971.199-.177.073-.306.126-.605.126s-.428-.053-.605-.126c-.215-.089-.482-.199-.971-.199s-.756.11-.971.199c-.177.073-.306.126-.605.126s-.428-.053-.605-.126c-.215-.089-.482-.199-.971-.199s-.756.11-.971.199c-.177.073-.306.126-.605.126s-.428-.053-.605-.126c-.215-.089-.482-.199-.971-.199s-.756.11-.971.199c-.177.073-.306.126-.605.126-.278 0-.503.237-.503.53 0 .293.225.53.503.53.489 0 .756-.11.971-.199.178-.073.306-.126.605-.126s.428.053.605.126c.215.088.482.199.971.199s.756-.11.971-.199c.178-.073.306-.126.605-.126s.428.053.605.126c.215.088.482.199.971.199s.756-.11.971-.199c.178-.073.306-.126.605-.126s.427.053.605.126c.215.088.482.199.971.199s.756-.11.971-.199c.178-.073.306-.126.605-.126.278 0 .503-.237.503-.53 0-.293-.225-.53-.503-.53m-.619 2.68c-.177.073-.306.126-.605.126s-.428-.053-.605-.126c-.215-.088-.482-.199-.971-.199s-.756.11-.971.199c-.177.073-.306.126-.605.126s-.428-.053-.605-.126c-.215-.088-.482-.199-.971-.199s-.756.11-.971.199c-.177.073-.306.126-.605.126-.278 0-.503.237-.503.53 0 .293.225.53.503.53.489 0 .756-.11.971-.199.178-.073.306-.126.605-.126s.428.053.605.126c.215.089.482.199.971.199s.756-.11.971-.199c.178-.073.306-.126.605-.126s.428.053.605.126c.215.089.482.199.971.199s.756-.11.971-.199c.178-.073.306-.126.605-.126s.427.053.605.126c.215.088.482.199.971.199s.756-.11.971-.199c.178-.073.306-.126.605-.126.278 0 .503-.237.503-.53 0-.293-.225-.53-.503-.53-.489 0-.756.11-.971.199-.177.073-.306.126-.605.126s-.428-.053-.605-.126c-.215-.088-.482-.199-.971-.199s-.756.11-.971.199m-11.242-15.009h3.677c.268 0 .526-.103.728-.29.238-.221.374-.538.374-.871l-.005-.101h1.747c.308 0 .606-.119.837-.334.273-.254.43-.619.43-1.001 0-.383-.157-.748-.43-1.001-.232-.216-.529-.334-.838-.334h-5.176c-.699 0-1.267.599-1.267 1.336l.027.275h-.106c-.608 0-1.102.521-1.102 1.161s.494 1.161 1.102 1.161zm0-1.262h1.348c.278 0 .503-.237.503-.53h-.002c0-.293-.225-.53-.503-.53-.144 0-.261-.123-.261-.275 0-.152.117-.275.261-.275h5.176c.081 0 .138.037.172.069.033.031.089.099.089.206 0 .107-.056.175-.089.206-.034.032-.091.069-.172.069h-2.846c-.278 0-.503.237-.503.53 0 .293.225.53.503.53h.002l.063.026.033.075-.033.075-.063.026h-3.677c-.053 0-.096-.045-.096-.101 0-.055.043-.101.096-.101zm10.204-4.306h5.337c.278 0 .503-.237.503-.53 0-.293-.225-.53-.503-.53h-5.337c-.278 0-.503.237-.503.53 0 .293.225.53.503.53zm-1.417 1.766h5.337c.278 0 .503-.237.503-.53 0-.293-.225-.53-.503-.53h-5.337c-.278 0-.503.237-.503.53 0 .293.225.53.503.53zm20.573 22.621h-5.466v-1.271h3.412c.18 0 .346-.101.436-.265.09-.164.09-.366 0-.53l-1.674-3.057h3.741c.18 0 .346-.101.436-.265.09-.164.09-.366 0-.53l-1.378-2.516h.404c.279 0 .504-.238.504-.531 0-.112-.033-.217-.09-.303l-1.282-2.34h.48c.278 0 .504-.237.504-.53 0-.113-.033-.217-.09-.303l-2.48-4.526-.199-.363-.133-.158.995.421.807.341c.258.11.551-.023.654-.295.103-.272-.022-.58-.28-.69l-2.494-1.055-1.843-3.408c-.046-.085-.114-.156-.196-.203l-2.776-1.602-2.049-1.755c-.13-.112-.305-.147-.465-.096-.16.052-.286.184-.334.354l-1.027 3.577-2.07 1.214-1.738.855c-.127.062-.223.178-.266.318l-.693 2.278-2.268 1.734-1.283-2.631c-.158-.324-.462-.54-.806-.572-.345-.032-.68.125-.889.414l-1.78 2.464c-.106.146-.174.319-.197.501-.037.293-.085.603-.131.861l-1 .013c-.337.006-.648.189-.83.488l-.746 1.228-1.453 1.33c-.129.118-.227.268-.285.437l-.661 1.907c-.064.185-.075.376-.043.557h-1.021c-.278 0-.503.237-.503.53 0 .293.225.53.503.53h19.326l-.569 1.038c-.09.164-.09.366 0 .53.09.164.256.265.436.265h.798l-1.941 3.543c-.09.164-.09.366 0 .53.09.164.256.265.436.265h3.697v1.271h-22.095c-.556 0-1.006.475-1.006 1.061s.45 1.061 1.006 1.061h29.959c.556 0 1.006-.475 1.006-1.061s-.451-1.061-1.006-1.061zm-6.858 0v-1.219h.385v1.912h-.385v-.693zm-1.891-5.875c.09-.164.09-.366 0-.53-.09-.164-.256-.265-.436-.265h-.798l1.842-3.363c.09-.164.09-.366 0-.53-.09-.164-.256-.265-.436-.265h-.897l2.665-4.866 1.836 3.351.112.205.165.301.334.611.218.398h-.897c-.087 0-.171.024-.245.068-.078.046-.145.113-.191.198-.046.085-.068.179-.067.273.001.089.023.178.067.257l.187.341.108.198.529.965.014.025 1.004 1.834h-.798c-.18 0-.346.101-.436.265-.038.069-.059.145-.065.222-.008.106.013.213.065.309l1.941 3.543h-7.764l1.941-3.543zm6.918-6.793c-.18 0-.346.101-.436.265-.04.072-.061.153-.065.234-.006.102.015.205.065.297l1.303 2.378h-.403c-.18 0-.346.101-.436.265-.09.164-.09.366 0 .53l1.378 2.516h-1.836c-.007-.096-.038-.185-.087-.259l-1.822-3.325h.899c.278 0 .503-.237.503-.53 0-.113-.033-.217-.09-.303l-.357-.651-.144-.263-1.141-2.083 1.318-2.406 1.828 3.337h-.478zm-1.35-4.927c-.18 0-.346.101-.436.265l-1.463 2.671-.593-1.083-.1-1.514c-.012-.18-.11-.341-.26-.428l-1.463-.847-.346-1.157c-.036-.12-.11-.222-.211-.289l-1.102-.735c-.202-.134-.465-.101-.631.08l-3.205 3.505-2.195 2.362-.068.091-1.418 2.407-.92-1.008-.8-1.141-.064-.131.013-.01 2.515-1.922c.087-.066.151-.16.184-.267l.676-2.222 1.555-.765.032-.017 2.264-1.327c.114-.067.199-.178.237-.31l.869-3.026 1.502 1.287.076.054 2.692 1.553 1.859 3.438c.056.104.144.185.25.23l.612.259-.059-.004zm-23.854 9.092l.512-1.478 1.366-1.25c.073-.066.136-.143.187-.229l.533-.876c.472-.005.91-.006 1.031.001.267.032.531-.044.748-.217.275-.219.506-.527.738-2.208l.654-.906 1.12 2.297.086.146.887 1.265.084.105 1.363 1.494.684 1.855h-9.994zm12.069 0c.004-.137-.018-.277-.068-.413l-.889-2.409-.051-.115 1.545-2.623 2.159-2.324 2.924-3.197.6.4.351 1.175c.039.13.124.239.238.305l.992.574-.079.109-3.537 6.456c-.09.164-.09.366 0 .53.09.164.256.265.436.265h.897l-.693 1.264h-4.824z" fill="#3A434E"/></g></g></svg>