<svg width="32" height="232" viewBox="0 0 32 232" xmlns="http://www.w3.org/2000/svg" xmlns:sketch="http://www.bohemiancoding.com/sketch/ns"><title>rome</title><desc>Created with Sketch.</desc><g sketch:type="MSPage" fill="none"><g sketch:type="MSShapeGroup"><path d="M4.919 124.821h.077l-.021.236c0 .686.522 1.246 1.163 1.246h5.333c.283 0 .556-.111.77-.312.251-.236.395-.576.395-.934 0-.357-.144-.697-.395-.933-.213-.201-.486-.312-.77-.312h-2.21l.004-.076c0-.311-.126-.608-.343-.813-.185-.175-.424-.273-.67-.273h-3.332c-.559 0-1.014.487-1.014 1.085s.455 1.085 1.014 1.085zm0-1.161h3.332l.046.02.025.057-.025.057-.045.019h-.002c-.261 0-.472.226-.472.505s.211.505.472.505h3.222l.145.059c.029.027.076.085.076.176 0 .092-.048.15-.076.177l-.145.059h-5.333c-.121 0-.221-.106-.221-.236s.099-.236.221-.236c.261 0 .472-.226.472-.505h.002c0-.279-.211-.505-.472-.505h-1.221l-.071-.076.071-.076zm-.517 19.576h1.788c.26 0 .471-.226.471-.504v-3.131c0-.805-.613-1.461-1.365-1.461-.753 0-1.365.655-1.365 1.461v3.131c0 .279.211.504.471.504zm.472-3.635c0-.249.189-.452.422-.452.233 0 .423.203.423.452v2.627h-.845v-2.627zm3.396 3.635h1.788c.26 0 .472-.226.472-.504v-3.131c0-.805-.613-1.461-1.365-1.461-.753 0-1.366.655-1.366 1.461v3.131c0 .279.211.504.472.504zm.472-3.635c0-.249.189-.452.422-.452.232 0 .422.203.422.452v2.627h-.844v-2.627zm3.396 3.635h1.787c.261 0 .472-.226.472-.504v-3.131c0-.805-.613-1.461-1.365-1.461-.753 0-1.365.655-1.365 1.461v3.131c0 .279.211.504.472.504zm.472-3.635c0-.249.189-.452.422-.452.233 0 .422.203.422.452v2.627h-.844v-2.627zm14.506-.201c-.601 0-1.091.523-1.091 1.166v2.166c0 .279.211.505.472.505h1.237c.26 0 .472-.226.472-.505v-2.166c0-.643-.489-1.166-1.09-1.166zm.146 2.828h-.294v-1.662c0-.087.066-.157.147-.157.081 0 .146.07.146.157v1.662zm-22.86-4.867h1.788c.26 0 .471-.226.471-.505v-3.131c0-.805-.613-1.461-1.365-1.461-.753 0-1.365.655-1.365 1.461v3.131c0 .279.211.505.471.505zm.472-3.636c0-.249.189-.452.422-.452.233 0 .423.202.423.452v2.627h-.845v-2.627zm3.396 3.636h1.788c.26 0 .472-.226.472-.505v-3.131c0-.805-.613-1.461-1.365-1.461-.753 0-1.366.655-1.366 1.461v3.131c0 .279.211.505.472.505zm.472-3.636c0-.249.189-.452.422-.452.232 0 .422.202.422.452v2.627h-.844v-2.627zm6.115-.832c.26 0 .471-.226.471-.504v-2.058h3.927v1.613h-1.485c-.261 0-.472.226-.472.504v2.22c0 .279.211.505.472.505.26 0 .471-.226.471-.505v-1.715h3.187c.176 0 .327-.104.408-.256.062-.086.101-.192.101-.308v-2.885h5.497v5.441c0 .279.211.505.472.505h2.334c.26 0 .472-.226.472-.505s-.211-.505-.472-.505h-1.863v-5.44c0-2.636-2.456-4.759-3.204-5.345v-.462l.094-.055c.152-.089.246-.258.246-.443 0-.184-.094-.354-.246-.442l-.098-.058-.054-.105c-.082-.162-.241-.262-.413-.262s-.331.101-.414.262l-.054.105-.098.058c-.151.088-.245.258-.245.442 0 .185.094.354.246.443l.094.055v.462c-.73.571-3.078 2.603-3.197 5.145l-.038.2v2.944h-.796v-2.117c0-1.994-1.794-3.602-2.423-4.103v-.215l.011-.006c.152-.089.246-.258.246-.442 0-.185-.094-.354-.245-.443l-.045-.026-.024-.048c-.082-.163-.241-.263-.414-.263-.172 0-.331.1-.414.263l-.024.047-.045.026c-.151.089-.245.259-.245.444 0 .184.094.353.246.442l.011.007v.214c-.611.488-2.319 2.018-2.417 3.933l-.03.17v2.562c0 .279.211.504.472.504zm8.84-4.398c.101-1.509.629-2.824 1.005-3.587.376.762.903 2.075 1.004 3.587h-2.009zm3.697 0h-.742c-.053-.919-.246-1.769-.479-2.492.562.694 1.078 1.558 1.221 2.492zm-4.167-2.486c-.232.722-.423 1.569-.477 2.486h-.743c.144-.93.658-1.792 1.219-2.486zm-6.558 3.313c.084-.935.381-1.76.634-2.317.253.556.55 1.382.634 2.317h-1.269zm2.531 0h-.315c-.031-.409-.096-.798-.182-1.159.226.356.41.747.497 1.159zm-3.297-1.16c-.086.362-.151.751-.182 1.16h-.316c.087-.412.272-.803.497-1.16zm9.174 3.168v4.337h1.436v-4.337c-.018-.407-.333-.733-.719-.733-.385 0-.7.325-.718.733zm5.976 16.755h-.95v-7.704l.266-1.837c.021-.146-.019-.294-.107-.406-.09-.112-.221-.176-.359-.176h-12.358l-.297-1.73c-.082-.477-.47-.824-.923-.827l-2.216-.012-.867-5.113c-.081-.481-.471-.83-.928-.83h-10.532c-.275 0-.537.129-.716.352-.18.224-.259.52-.216.811l.261 1.8v15.67h-.163c-.52 0-.943.452-.943 1.009 0 .558.423 1.009.943 1.009h30.105c.521 0 .943-.451.943-1.009 0-.557-.422-1.009-.943-1.009zm-19.526-16.616l.866 5.109c.081.478.469.826.923.829l2.219.012.865 5.032c.082.479.472.827.928.827h5.768v4.806h-.964v-2.607c0-.805-.612-1.461-1.365-1.461s-1.366.656-1.366 1.461v2.607h-1.136v-2.607c0-.805-.613-1.461-1.366-1.461-.752 0-1.365.656-1.365 1.461v2.607h-1.137v-2.607c0-.805-.613-1.461-1.365-1.461-.753 0-1.365.656-1.365 1.461v2.607h-1.137v-2.607c0-.805-.613-1.461-1.365-1.461-.753 0-1.366.656-1.366 1.461v2.607h-1.137v-2.607c0-.805-.613-1.461-1.365-1.461-.753 0-1.365.656-1.365 1.461v2.607h-.932v-15.748l-.012-.154-.103-.713h8.643zm12.407 9.791h-.293v-.694c0-.087.065-.157.146-.157.081 0 .146.07.146.157v.694zm-3.327 0h-.294v-.694c0-.087.066-.157.147-.157.081 0 .147.07.147.157v.694zm.581 6.824h-.845v-2.607c0-.249.189-.452.423-.452.233 0 .422.202.422.452v2.607zm-3.868 0h-.844v-2.607c0-.249.189-.452.422-.452.233 0 .422.202.422.452v2.607zm-3.867 0h-.844v-2.607c0-.249.189-.452.422-.452.233 0 .422.202.422.452v2.607zm-3.867 0h-.844v-2.607c0-.249.189-.452.422-.452.232 0 .422.202.422.452v2.607zm-3.867 0h-.845v-2.607c0-.249.189-.452.422-.452.233 0 .423.202.423.452v2.607zm21.249-1.462v-.621c0-.087.066-.158.147-.158.081 0 .146.071.146.158v1.661h-.294v-1.04zm1.237 1.462v-2.083c0-.643-.489-1.166-1.09-1.166-.563 0-1.028.458-1.084 1.045l-.006.121v2.083h-1.042v-5.815c0-.166-.038-.322-.104-.46v-1.244c0-.643-.49-1.166-1.091-1.166s-1.09.523-1.09 1.166v.694h-1.147v-.694c0-.643-.49-1.166-1.091-1.166-.6 0-1.09.523-1.09 1.166v.694h-1.257l-.329-1.914-.064-.376h11.633l-.188 1.294-.005.078v7.742h-.955zm-5.339-16.755v4.337h1.436v-4.337c-.018-.407-.332-.733-.718-.733-.385 0-.701.325-.718.733" fill="#206FAC"/><path d="M4.919 84.821h.077l-.021.236c0 .686.522 1.246 1.163 1.246h5.333c.283 0 .556-.111.77-.312.251-.236.395-.576.395-.934 0-.357-.144-.697-.395-.933-.213-.201-.486-.312-.77-.312h-2.21l.004-.076c0-.311-.126-.608-.343-.813-.185-.175-.424-.273-.67-.273h-3.332c-.559 0-1.014.487-1.014 1.085s.455 1.085 1.014 1.085zm0-1.161h3.332l.046.02.025.057-.025.057-.045.019h-.002c-.261 0-.472.226-.472.505s.211.505.472.505h3.222l.145.059c.029.027.076.085.076.176 0 .092-.048.15-.076.177l-.145.059h-5.333c-.121 0-.221-.106-.221-.236s.099-.236.221-.236c.261 0 .472-.226.472-.505h.002c0-.279-.211-.505-.472-.505h-1.221l-.071-.076.071-.076zm-.517 19.576h1.788c.26 0 .471-.226.471-.504v-3.131c0-.805-.613-1.461-1.365-1.461-.753 0-1.365.655-1.365 1.461v3.131c0 .279.211.504.471.504zm.472-3.635c0-.249.189-.452.422-.452.233 0 .423.203.423.452v2.627h-.845v-2.627zm3.396 3.635h1.788c.26 0 .472-.226.472-.504v-3.131c0-.805-.613-1.461-1.365-1.461-.753 0-1.366.655-1.366 1.461v3.131c0 .279.211.504.472.504zm.472-3.635c0-.249.189-.452.422-.452.232 0 .422.203.422.452v2.627h-.844v-2.627zm3.396 3.635h1.787c.261 0 .472-.226.472-.504v-3.131c0-.805-.613-1.461-1.365-1.461-.753 0-1.365.655-1.365 1.461v3.131c0 .279.211.504.472.504zm.472-3.635c0-.249.189-.452.422-.452.233 0 .422.203.422.452v2.627h-.844v-2.627zm14.506-.201c-.601 0-1.091.523-1.091 1.166v2.166c0 .279.211.505.472.505h1.237c.26 0 .472-.226.472-.505v-2.166c0-.643-.489-1.166-1.09-1.166zm.146 2.828h-.294v-1.662c0-.087.066-.157.147-.157.081 0 .146.07.146.157v1.662zm-22.86-4.867h1.788c.26 0 .471-.226.471-.505v-3.131c0-.805-.613-1.461-1.365-1.461-.753 0-1.365.655-1.365 1.461v3.131c0 .279.211.505.471.505zm.472-3.636c0-.249.189-.452.422-.452.233 0 .423.202.423.452v2.627h-.845v-2.627zm3.396 3.636h1.788c.26 0 .472-.226.472-.505v-3.131c0-.805-.613-1.461-1.365-1.461-.753 0-1.366.655-1.366 1.461v3.131c0 .279.211.505.472.505zm.472-3.636c0-.249.189-.452.422-.452.232 0 .422.202.422.452v2.627h-.844v-2.627zm6.115-.832c.26 0 .471-.226.471-.504v-2.058h3.927v1.613h-1.485c-.261 0-.472.226-.472.504v2.22c0 .279.211.505.472.505.26 0 .471-.226.471-.505v-1.715h3.187c.176 0 .327-.104.408-.256.062-.086.101-.192.101-.308v-2.885h5.497v5.441c0 .279.211.505.472.505h2.334c.26 0 .472-.226.472-.505s-.211-.505-.472-.505h-1.863v-5.44c0-2.636-2.456-4.759-3.204-5.345v-.462l.094-.055c.152-.089.246-.258.246-.443 0-.184-.094-.354-.246-.442l-.098-.058-.054-.105c-.082-.162-.241-.262-.413-.262s-.331.101-.414.262l-.054.105-.098.058c-.151.088-.245.258-.245.442 0 .185.094.354.246.443l.094.055v.462c-.73.571-3.078 2.603-3.197 5.145l-.038.2v2.944h-.796v-2.117c0-1.994-1.794-3.602-2.423-4.103v-.215l.011-.006c.152-.089.246-.258.246-.442 0-.185-.094-.354-.245-.443l-.045-.026-.024-.048c-.082-.163-.241-.263-.414-.263-.172 0-.331.1-.414.263l-.024.047-.045.026c-.151.089-.245.259-.245.444 0 .184.094.353.246.442l.011.007v.214c-.611.488-2.319 2.018-2.417 3.933l-.03.17v2.562c0 .279.211.504.472.504zm8.84-4.398c.101-1.509.629-2.824 1.005-3.587.376.762.903 2.075 1.004 3.587h-2.009zm3.697 0h-.742c-.053-.919-.246-1.769-.479-2.492.562.694 1.078 1.558 1.221 2.492zm-4.167-2.486c-.232.722-.423 1.569-.477 2.486h-.743c.144-.93.658-1.792 1.219-2.486zm-6.558 3.313c.084-.935.381-1.76.634-2.317.253.556.55 1.382.634 2.317h-1.269zm2.531 0h-.315c-.031-.409-.096-.798-.182-1.159.226.356.41.747.497 1.159zm-3.297-1.16c-.086.362-.151.751-.182 1.16h-.316c.087-.412.272-.803.497-1.16zm9.174 3.168v4.337h1.436v-4.337c-.018-.407-.333-.733-.719-.733-.385 0-.7.325-.718.733zm5.976 16.755h-.95v-7.704l.266-1.837c.021-.146-.019-.294-.107-.406-.09-.112-.221-.176-.359-.176h-12.358l-.297-1.73c-.082-.477-.47-.824-.923-.827l-2.216-.012-.867-5.113c-.081-.481-.471-.83-.928-.83h-10.532c-.275 0-.537.129-.716.352-.18.224-.259.52-.216.811l.261 1.8v15.67h-.163c-.52 0-.943.452-.943 1.009 0 .558.423 1.009.943 1.009h30.105c.521 0 .943-.451.943-1.009 0-.557-.422-1.009-.943-1.009zm-19.526-16.616l.866 5.109c.081.478.469.826.923.829l2.219.012.865 5.032c.082.479.472.827.928.827h5.768v4.806h-.964v-2.607c0-.805-.612-1.461-1.365-1.461s-1.366.656-1.366 1.461v2.607h-1.136v-2.607c0-.805-.613-1.461-1.366-1.461-.752 0-1.365.656-1.365 1.461v2.607h-1.137v-2.607c0-.805-.613-1.461-1.365-1.461-.753 0-1.365.656-1.365 1.461v2.607h-1.137v-2.607c0-.805-.613-1.461-1.365-1.461-.753 0-1.366.656-1.366 1.461v2.607h-1.137v-2.607c0-.805-.613-1.461-1.365-1.461-.753 0-1.365.656-1.365 1.461v2.607h-.932v-15.748l-.012-.154-.103-.713h8.643zm12.407 9.791h-.293v-.694c0-.087.065-.157.146-.157.081 0 .146.07.146.157v.694zm-3.327 0h-.294v-.694c0-.087.066-.157.147-.157.081 0 .147.07.147.157v.694zm.581 6.824h-.845v-2.607c0-.249.189-.452.423-.452.233 0 .422.202.422.452v2.607zm-3.868 0h-.844v-2.607c0-.249.189-.452.422-.452.233 0 .422.202.422.452v2.607zm-3.867 0h-.844v-2.607c0-.249.189-.452.422-.452.233 0 .422.202.422.452v2.607zm-3.867 0h-.844v-2.607c0-.249.189-.452.422-.452.232 0 .422.202.422.452v2.607zm-3.867 0h-.845v-2.607c0-.249.189-.452.422-.452.233 0 .423.202.423.452v2.607zm21.249-1.462v-.621c0-.087.066-.158.147-.158.081 0 .146.071.146.158v1.661h-.294v-1.04zm1.237 1.462v-2.083c0-.643-.489-1.166-1.09-1.166-.563 0-1.028.458-1.084 1.045l-.006.121v2.083h-1.042v-5.815c0-.166-.038-.322-.104-.46v-1.244c0-.643-.49-1.166-1.091-1.166s-1.09.523-1.09 1.166v.694h-1.147v-.694c0-.643-.49-1.166-1.091-1.166-.6 0-1.09.523-1.09 1.166v.694h-1.257l-.329-1.914-.064-.376h11.633l-.188 1.294-.005.078v7.742h-.955zm-5.339-16.755v4.337h1.436v-4.337c-.018-.407-.332-.733-.718-.733-.385 0-.701.325-.718.733" fill="#fff"/><path d="M4.919 44.821h.077l-.021.236c0 .686.522 1.246 1.163 1.246h5.333c.283 0 .556-.111.77-.312.251-.236.395-.576.395-.934 0-.357-.144-.697-.395-.933-.213-.201-.486-.312-.77-.312h-2.21l.004-.076c0-.311-.126-.608-.343-.813-.185-.175-.424-.273-.67-.273h-3.332c-.559 0-1.014.487-1.014 1.085s.455 1.085 1.014 1.085zm0-1.161h3.332l.046.02.025.057-.025.057-.045.019h-.002c-.261 0-.472.226-.472.505s.211.505.472.505h3.222l.145.059c.029.027.076.085.076.176 0 .092-.048.15-.076.177l-.145.059h-5.333c-.121 0-.221-.106-.221-.236s.099-.236.221-.236c.261 0 .472-.226.472-.505h.002c0-.279-.211-.505-.472-.505h-1.221l-.071-.076.071-.076zm-.517 19.576h1.788c.26 0 .471-.226.471-.504v-3.131c0-.805-.613-1.461-1.365-1.461-.753 0-1.365.655-1.365 1.461v3.131c0 .279.211.504.471.504zm.472-3.635c0-.249.189-.452.422-.452.233 0 .423.203.423.452v2.627h-.845v-2.627zm3.396 3.635h1.788c.26 0 .472-.226.472-.504v-3.131c0-.805-.613-1.461-1.365-1.461-.753 0-1.366.655-1.366 1.461v3.131c0 .279.211.504.472.504zm.472-3.635c0-.249.189-.452.422-.452.232 0 .422.203.422.452v2.627h-.844v-2.627zm3.396 3.635h1.787c.261 0 .472-.226.472-.504v-3.131c0-.805-.613-1.461-1.365-1.461-.753 0-1.365.655-1.365 1.461v3.131c0 .279.211.504.472.504zm.472-3.635c0-.249.189-.452.422-.452.233 0 .422.203.422.452v2.627h-.844v-2.627zm14.506-.201c-.601 0-1.091.523-1.091 1.166v2.166c0 .279.211.505.472.505h1.237c.26 0 .472-.226.472-.505v-2.166c0-.643-.489-1.166-1.09-1.166zm.146 2.828h-.294v-1.662c0-.087.066-.157.147-.157.081 0 .146.07.146.157v1.662zm-22.86-4.867h1.788c.26 0 .471-.226.471-.505v-3.131c0-.805-.613-1.461-1.365-1.461-.753 0-1.365.655-1.365 1.461v3.131c0 .279.211.505.471.505zm.472-3.636c0-.249.189-.452.422-.452.233 0 .423.202.423.452v2.627h-.845v-2.627zm3.396 3.636h1.788c.26 0 .472-.226.472-.505v-3.131c0-.805-.613-1.461-1.365-1.461-.753 0-1.366.655-1.366 1.461v3.131c0 .279.211.505.472.505zm.472-3.636c0-.249.189-.452.422-.452.232 0 .422.202.422.452v2.627h-.844v-2.627zm6.115-.832c.26 0 .471-.226.471-.504v-2.058h3.927v1.613h-1.485c-.261 0-.472.226-.472.504v2.22c0 .279.211.505.472.505.26 0 .471-.226.471-.505v-1.715h3.187c.176 0 .327-.104.408-.256.062-.086.101-.192.101-.308v-2.885h5.497v5.441c0 .279.211.505.472.505h2.334c.26 0 .472-.226.472-.505s-.211-.505-.472-.505h-1.863v-5.44c0-2.636-2.456-4.759-3.204-5.345v-.462l.094-.055c.152-.089.246-.258.246-.443 0-.184-.094-.354-.246-.442l-.098-.058-.054-.105c-.082-.162-.241-.262-.413-.262s-.331.101-.414.262l-.054.105-.098.058c-.151.088-.245.258-.245.442 0 .185.094.354.246.443l.094.055v.462c-.73.571-3.078 2.603-3.197 5.145l-.038.2v2.944h-.796v-2.117c0-1.994-1.794-3.602-2.423-4.103v-.215l.011-.006c.152-.089.246-.258.246-.442 0-.185-.094-.354-.245-.443l-.045-.026-.024-.048c-.082-.163-.241-.263-.414-.263-.172 0-.331.1-.414.263l-.024.047-.045.026c-.151.089-.245.259-.245.444 0 .184.094.353.246.442l.011.007v.214c-.611.488-2.319 2.018-2.417 3.933l-.03.17v2.562c0 .279.211.504.472.504zm8.84-4.398c.101-1.509.629-2.824 1.005-3.587.376.762.903 2.075 1.004 3.587h-2.009zm3.697 0h-.742c-.053-.919-.246-1.769-.479-2.492.562.694 1.078 1.558 1.221 2.492zm-4.167-2.486c-.232.722-.423 1.569-.477 2.486h-.743c.144-.93.658-1.792 1.219-2.486zm-6.558 3.313c.084-.935.381-1.76.634-2.317.253.556.55 1.382.634 2.317h-1.269zm2.531 0h-.315c-.031-.409-.096-.798-.182-1.159.226.356.41.747.497 1.159zm-3.297-1.16c-.086.362-.151.751-.182 1.16h-.316c.087-.412.272-.803.497-1.16zm9.174 3.168v4.337h1.436v-4.337c-.018-.407-.333-.733-.719-.733-.385 0-.7.325-.718.733zm5.976 16.755h-.95v-7.704l.266-1.837c.021-.146-.019-.294-.107-.406-.09-.112-.221-.176-.359-.176h-12.358l-.297-1.73c-.082-.477-.47-.824-.923-.827l-2.216-.012-.867-5.113c-.081-.481-.471-.83-.928-.83h-10.532c-.275 0-.537.129-.716.352-.18.224-.259.52-.216.811l.261 1.8v15.67h-.163c-.52 0-.943.452-.943 1.009 0 .558.423 1.009.943 1.009h30.105c.521 0 .943-.451.943-1.009 0-.557-.422-1.009-.943-1.009zm-19.526-16.616l.866 5.109c.081.478.469.826.923.829l2.219.012.865 5.032c.082.479.472.827.928.827h5.768v4.806h-.964v-2.607c0-.805-.612-1.461-1.365-1.461s-1.366.656-1.366 1.461v2.607h-1.136v-2.607c0-.805-.613-1.461-1.366-1.461-.752 0-1.365.656-1.365 1.461v2.607h-1.137v-2.607c0-.805-.613-1.461-1.365-1.461-.753 0-1.365.656-1.365 1.461v2.607h-1.137v-2.607c0-.805-.613-1.461-1.365-1.461-.753 0-1.366.656-1.366 1.461v2.607h-1.137v-2.607c0-.805-.613-1.461-1.365-1.461-.753 0-1.365.656-1.365 1.461v2.607h-.932v-15.748l-.012-.154-.103-.713h8.643zm12.407 9.791h-.293v-.694c0-.087.065-.157.146-.157.081 0 .146.07.146.157v.694zm-3.327 0h-.294v-.694c0-.087.066-.157.147-.157.081 0 .147.07.147.157v.694zm.581 6.824h-.845v-2.607c0-.249.189-.452.423-.452.233 0 .422.202.422.452v2.607zm-3.868 0h-.844v-2.607c0-.249.189-.452.422-.452.233 0 .422.202.422.452v2.607zm-3.867 0h-.844v-2.607c0-.249.189-.452.422-.452.233 0 .422.202.422.452v2.607zm-3.867 0h-.844v-2.607c0-.249.189-.452.422-.452.232 0 .422.202.422.452v2.607zm-3.867 0h-.845v-2.607c0-.249.189-.452.422-.452.233 0 .423.202.423.452v2.607zm21.249-1.462v-.621c0-.087.066-.158.147-.158.081 0 .146.071.146.158v1.661h-.294v-1.04zm1.237 1.462v-2.083c0-.643-.489-1.166-1.09-1.166-.563 0-1.028.458-1.084 1.045l-.006.121v2.083h-1.042v-5.815c0-.166-.038-.322-.104-.46v-1.244c0-.643-.49-1.166-1.091-1.166s-1.09.523-1.09 1.166v.694h-1.147v-.694c0-.643-.49-1.166-1.091-1.166-.6 0-1.09.523-1.09 1.166v.694h-1.257l-.329-1.914-.064-.376h11.633l-.188 1.294-.005.078v7.742h-.955zm-5.339-16.755v4.337h1.436v-4.337c-.018-.407-.332-.733-.718-.733-.385 0-.701.325-.718.733" fill="#67737B"/><path d="M4.919 4.821h.077l-.021.236c0 .686.522 1.246 1.163 1.246h5.333c.283 0 .556-.111.77-.312.251-.236.395-.576.395-.934 0-.357-.144-.697-.395-.933-.213-.201-.486-.312-.77-.312h-2.21l.004-.076c0-.311-.126-.608-.343-.813-.185-.175-.424-.273-.67-.273h-3.332c-.559 0-1.014.487-1.014 1.085s.455 1.085 1.014 1.085zm0-1.161h3.332l.046.02.025.057-.025.057-.045.019h-.002c-.261 0-.472.226-.472.505s.211.505.472.505h3.222l.145.059c.029.027.076.085.076.176 0 .092-.048.15-.076.177l-.145.059h-5.333c-.121 0-.221-.106-.221-.236s.099-.236.221-.236c.261 0 .472-.226.472-.505h.002c0-.279-.211-.505-.472-.505h-1.221l-.071-.076.071-.076zm-.517 19.576h1.788c.26 0 .471-.226.471-.504v-3.131c0-.805-.613-1.461-1.365-1.461-.753 0-1.365.655-1.365 1.461v3.131c0 .279.211.504.471.504zm.472-3.635c0-.249.189-.452.422-.452.233 0 .423.203.423.452v2.627h-.845v-2.627zm3.396 3.635h1.788c.26 0 .472-.226.472-.504v-3.131c0-.805-.613-1.461-1.365-1.461-.753 0-1.366.655-1.366 1.461v3.131c0 .279.211.504.472.504zm.472-3.635c0-.249.189-.452.422-.452.232 0 .422.203.422.452v2.627h-.844v-2.627zm3.396 3.635h1.787c.261 0 .472-.226.472-.504v-3.131c0-.805-.613-1.461-1.365-1.461-.753 0-1.365.655-1.365 1.461v3.131c0 .279.211.504.472.504zm.472-3.635c0-.249.189-.452.422-.452.233 0 .422.203.422.452v2.627h-.844v-2.627zm14.506-.201c-.601 0-1.091.523-1.091 1.166v2.166c0 .279.211.505.472.505h1.237c.26 0 .472-.226.472-.505v-2.166c0-.643-.489-1.166-1.09-1.166zm.146 2.828h-.294v-1.662c0-.087.066-.157.147-.157.081 0 .146.07.146.157v1.662zm-22.86-4.867h1.788c.26 0 .471-.226.471-.505v-3.131c0-.805-.613-1.461-1.365-1.461-.753 0-1.365.655-1.365 1.461v3.131c0 .279.211.505.471.505zm.472-3.636c0-.249.189-.452.422-.452.233 0 .423.202.423.452v2.627h-.845v-2.627zm3.396 3.636h1.788c.26 0 .472-.226.472-.505v-3.131c0-.805-.613-1.461-1.365-1.461-.753 0-1.366.655-1.366 1.461v3.131c0 .279.211.505.472.505zm.472-3.636c0-.249.189-.452.422-.452.232 0 .422.202.422.452v2.627h-.844v-2.627zm6.115-.832c.26 0 .471-.226.471-.504v-2.058h3.927v1.613h-1.485c-.261 0-.472.226-.472.504v2.22c0 .279.211.505.472.505.26 0 .471-.226.471-.505v-1.715h3.187c.176 0 .327-.104.408-.256.062-.086.101-.192.101-.308v-2.885h5.497v5.441c0 .279.211.505.472.505h2.334c.26 0 .472-.226.472-.505s-.211-.505-.472-.505h-1.863v-5.44c0-2.636-2.456-4.759-3.204-5.345v-.462l.094-.055c.152-.089.246-.258.246-.443 0-.184-.094-.354-.246-.442l-.098-.058-.054-.105c-.082-.162-.241-.262-.413-.262s-.331.101-.414.262l-.054.105-.098.058c-.151.088-.245.258-.245.442 0 .185.094.354.246.443l.094.055v.462c-.73.571-3.078 2.603-3.197 5.145l-.038.2v2.944h-.796v-2.117c0-1.994-1.794-3.602-2.423-4.103v-.215l.011-.006c.152-.089.246-.258.246-.442 0-.185-.094-.354-.245-.443l-.045-.026-.024-.048c-.082-.163-.241-.263-.414-.263-.172 0-.331.1-.414.263l-.024.047-.045.026c-.151.089-.245.259-.245.444 0 .184.094.353.246.442l.011.007v.214c-.611.488-2.319 2.018-2.417 3.933l-.03.17v2.562c0 .279.211.504.472.504zm8.84-4.398c.101-1.509.629-2.824 1.005-3.587.376.762.903 2.075 1.004 3.587h-2.009zm3.697 0h-.742c-.053-.919-.246-1.769-.479-2.492.562.694 1.078 1.558 1.221 2.492zm-4.167-2.486c-.232.722-.423 1.569-.477 2.486h-.743c.144-.93.658-1.792 1.219-2.486zm-6.558 3.313c.084-.935.381-1.76.634-2.317.253.556.55 1.382.634 2.317h-1.269zm2.531 0h-.315c-.031-.409-.096-.798-.182-1.159.226.356.41.747.497 1.159zm-3.297-1.16c-.086.362-.151.751-.182 1.16h-.316c.087-.412.272-.803.497-1.16zm9.174 3.168v4.337h1.436v-4.337c-.018-.407-.333-.733-.719-.733-.385 0-.7.325-.718.733zm5.976 16.755h-.95v-7.704l.266-1.837c.021-.146-.019-.294-.107-.406-.09-.112-.221-.176-.359-.176h-12.358l-.297-1.73c-.082-.477-.47-.824-.923-.827l-2.216-.012-.867-5.113c-.081-.481-.471-.83-.928-.83h-10.532c-.275 0-.537.129-.716.352-.18.224-.259.52-.216.811l.261 1.8v15.67h-.163c-.52 0-.943.452-.943 1.009 0 .558.423 1.009.943 1.009h30.105c.521 0 .943-.451.943-1.009 0-.557-.422-1.009-.943-1.009zm-19.526-16.616l.866 5.109c.081.478.469.826.923.829l2.219.012.865 5.032c.082.479.472.827.928.827h5.768v4.806h-.964v-2.607c0-.805-.612-1.461-1.365-1.461s-1.366.656-1.366 1.461v2.607h-1.136v-2.607c0-.805-.613-1.461-1.366-1.461-.752 0-1.365.656-1.365 1.461v2.607h-1.137v-2.607c0-.805-.613-1.461-1.365-1.461-.753 0-1.365.656-1.365 1.461v2.607h-1.137v-2.607c0-.805-.613-1.461-1.365-1.461-.753 0-1.366.656-1.366 1.461v2.607h-1.137v-2.607c0-.805-.613-1.461-1.365-1.461-.753 0-1.365.656-1.365 1.461v2.607h-.932v-15.748l-.012-.154-.103-.713h8.643zm12.407 9.791h-.293v-.694c0-.087.065-.157.146-.157.081 0 .146.07.146.157v.694zm-3.327 0h-.294v-.694c0-.087.066-.157.147-.157.081 0 .147.07.147.157v.694zm.581 6.824h-.845v-2.607c0-.249.189-.452.423-.452.233 0 .422.202.422.452v2.607zm-3.868 0h-.844v-2.607c0-.249.189-.452.422-.452.233 0 .422.202.422.452v2.607zm-3.867 0h-.844v-2.607c0-.249.189-.452.422-.452.233 0 .422.202.422.452v2.607zm-3.867 0h-.844v-2.607c0-.249.189-.452.422-.452.232 0 .422.202.422.452v2.607zm-3.867 0h-.845v-2.607c0-.249.189-.452.422-.452.233 0 .423.202.423.452v2.607zm21.249-1.462v-.621c0-.087.066-.158.147-.158.081 0 .146.071.146.158v1.661h-.294v-1.04zm1.237 1.462v-2.083c0-.643-.489-1.166-1.09-1.166-.563 0-1.028.458-1.084 1.045l-.006.121v2.083h-1.042v-5.815c0-.166-.038-.322-.104-.46v-1.244c0-.643-.49-1.166-1.091-1.166s-1.09.523-1.09 1.166v.694h-1.147v-.694c0-.643-.49-1.166-1.091-1.166-.6 0-1.09.523-1.09 1.166v.694h-1.257l-.329-1.914-.064-.376h11.633l-.188 1.294-.005.078v7.742h-.955zm-5.339-16.755v4.337h1.436v-4.337c-.018-.407-.332-.733-.718-.733-.385 0-.701.325-.718.733" fill="#3A434E"/></g></g></svg>