<svg width="32" height="232" viewBox="0 0 32 232" xmlns="http://www.w3.org/2000/svg" xmlns:sketch="http://www.bohemiancoding.com/sketch/ns"><title>salisbury-uk</title><desc>Created with Sketch.</desc><g sketch:type="MSPage" fill="none"><g sketch:type="MSShapeGroup"><path d="M31.053 122.071h-1.162c-.086-.125-.226-.207-.386-.207h-1.51c-.159 0-.3.082-.386.207h-1.032c-.086-.125-.226-.207-.386-.207h-1.51c-.16 0-.3.082-.386.207h-1.032c-.086-.125-.226-.207-.386-.207h-1.51c-.159 0-.3.082-.386.207h-1.032c-.086-.125-.226-.207-.386-.207h-1.51c-.16 0-.3.082-.386.207h-3.839l-.028.001-.135-.023c-.845 0-1.6-.582-2.07-1.048-.229-.595-.584-1.005-1.076-1.005-.961 0-1.399 1.564-1.399 3.017 0 1.453.438 3.017 1.399 3.017.451 0 .788-.345 1.017-.861.464-.475 1.248-1.108 2.129-1.108l.137-.023.026.001h3.75v4.63c-1.22-.136-2.295-.887-2.865-2.028l-.005-.01-.022-.046c-.114-.236-.314-.414-.555-.496-.241-.082-.505-.059-.731.062l-11.486 6.165c-.225.121-.394.329-.47.58-.076.251-.052.522.066.754l.026.049.002.004c.839 1.68.349 3.769-1.138 4.859-.418.306-.527.9-.246 1.344 2.733 4.324 5.858 7.581 9.288 9.68 3.405 2.083 6.066 2.394 7.35 2.394.725 0 1.35-.099 1.813-.287l.173-.075.041-.023.038-.019.165-.107c1.355-.928 3.536-4.437 3.689-10.208l.754.678c.089.08.2.12.311.12.111 0 .222-.04.311-.12l5.725-5.149c.104-.093.164-.229.164-.372v-12.378h1.073c.524 0 .95-.441.95-.985s-.425-.985-.95-.985zm-20.626-.931l.094-.136c.072.075.172.258.259.545.104.342.191.832.191 1.464 0 .717-.111 1.252-.234 1.595-.076.212-.156.351-.216.414l-.065-.087c-.162-.257-.384-.908-.384-1.922 0-.957.198-1.588.356-1.873zm1.466 2.494c.018-.206.027-.415.027-.621l-.02-.532c.298.186.631.344.989.444l-.009.13.009.131c-.362.1-.697.261-.997.448zm17.137.406v12.154l-5.25 4.722-3.083-2.773-.433-.39-1.734-1.559v-13.346h.56v2.682c0 .272.213.492.475.492h1.803c.262 0 .475-.22.475-.492v-2.682h.56v2.682c0 .272.213.492.475.492h1.803c.262 0 .475-.22.475-.492v-2.682h.56v2.682c0 .272.213.492.475.492h1.803c.262 0 .475-.22.475-.492v-2.682h.56v1.192zm-9.817 19.915c-.54 2.979-1.607 4.327-1.891 4.641-.108.017-.281.033-.513.033-.702 0-2.184-.145-4.226-1.116-3.839-1.824-6.813-5.24-8.688-7.894 1.046-1.52 1.478-3.393 1.209-5.24l8.084-4.339c1.186 1.18 2.753 1.887 4.393 1.988v4.39c0 .143.06.278.164.372l1.621 1.457c.194 1.849.194 3.797-.152 5.707zm7.454-19.915h.854v.998h-.854v-.998zm-3.313 0h.854v.998h-.854v-.998zm-3.313 0h.854v.998h-.854v-.998zm.482 20.17c-.614 3.388-1.984 5.251-2.551 5.622l-.021.014-.023.01c-.086.037-.42.156-1.132.156-.877 0-3.255-.207-6.384-2.121-2.987-1.828-5.742-4.631-8.198-8.341 1.482-1.534 2.013-3.836 1.359-5.903l9.922-5.325c.963 1.355 2.449 2.207 4.087 2.326v.394c-1.499-.107-2.922-.8-3.955-1.942-.145-.16-.376-.202-.565-.1l-8.704 4.671c-.189.101-.289.32-.247.536.355 1.802-.074 3.661-1.177 5.1-.132.172-.138.414-.014.593 1.926 2.787 5.098 6.526 9.268 8.508 2.206 1.049 3.843 1.205 4.622 1.205.352 0 .668-.032.869-.089l.177-.095c.25-.214.669-.74 1.095-1.576.539-1.057.941-2.308 1.196-3.717.301-1.659.354-3.34.249-4.962l.408.367c.073 1.539.001 3.112-.282 4.668zm7.683 5.955c-.147-.023-.3.029-.405.138-.146.15-.182.382-.089.572l.087.125c.089.093.211.145.337.145.126 0 .247-.052.336-.144.145-.15.18-.379.089-.569-.07-.145-.203-.243-.355-.267zm-20.515-23.204c.126 0 .247-.052.336-.144.089-.092.139-.218.139-.349 0-.131-.051-.256-.14-.349-.089-.091-.21-.143-.335-.143-.125 0-.246.052-.335.143-.09.093-.14.219-.14.35 0 .131.05.256.139.348.089.092.211.144.336.144zm-1.84-3.198c.126 0 .247-.052.336-.144.089-.092.139-.218.139-.349 0-.257-.19-.468-.432-.49-.14-.014-.279.039-.378.141-.09.092-.14.218-.14.35 0 .13.05.255.138.347.089.093.211.145.337.145zm22.858 17.146c-.14-.013-.279.039-.378.141-.09.092-.14.218-.14.35 0 .13.05.255.138.347.089.093.211.145.337.145.126 0 .247-.052.336-.144.089-.092.139-.218.139-.349 0-.257-.19-.468-.432-.49zm-2.016 4.5l-.395-.224-.216-.409c-.083-.158-.243-.256-.417-.256s-.333.098-.416.256l-.216.409-.395.224c-.152.086-.247.252-.247.432s.095.346.247.432l.395.224.216.409c.083.158.243.256.416.256s.333-.098.417-.256l.216-.409.395-.224c.152-.086.247-.252.247-.432s-.095-.346-.247-.432zm-23.868-17.02l.395.224.216.409c.083.158.243.256.416.256.174 0 .333-.098.417-.256l.216-.409.395-.224c.152-.086.247-.252.247-.432s-.095-.346-.247-.432l-.395-.224-.216-.409c-.083-.158-.243-.256-.417-.256s-.333.098-.416.256l-.216.409-.395.224c-.152.086-.247.252-.247.432s.095.346.247.432zm13.578 15.461l-.915-1.553-2.022-4.051 2.073-1.112.894-.17c.172-.033.312-.16.366-.332.054-.172.012-.361-.108-.491l-.609-.663-.16-.875c-.033-.178-.157-.323-.324-.378-.167-.055-.349-.009-.474.118l-.651.659-2.073 1.112-.882-1.767-.164-.927c-.032-.178-.155-.323-.32-.379-.166-.055-.348-.013-.474.112l-.639.631-.844.166c-.172.034-.312.163-.364.336-.052.173-.009.362.113.492l.635.674.882 1.767-2.073 1.113-.894.17c-.171.033-.312.16-.366.332-.054.172-.012.361.108.491l.609.663.16.875c.033.178.157.323.324.378.167.055.349.009.474-.118l.651-.659 2.073-1.112 2.022 4.051.694 1.671.231 1.362c.031.182.158.331.328.385l.139.022c.126 0 .25-.052.341-.149l.799-.854 1.112-.172c.177-.028.324-.156.38-.332.056-.176.013-.37-.113-.502l-.939-.982zm-1.01 1.183l-.264.282-.08-.469-.032-.11-.723-1.74-.014-.032-2.248-4.504c-.084-.169-.25-.266-.422-.266-.074 0-.148.018-.218.055l-2.558 1.372-.113.085-.068.069-.021-.116c-.017-.093-.06-.179-.123-.248l-.1-.109.1-.019.132-.047 2.557-1.372c.233-.125.324-.422.204-.663l-1.133-2.27-.082-.118-.066-.07.112-.022c.09-.017.173-.062.239-.127l.105-.104.018.104.045.137 1.133 2.27c.058.116.158.203.278.243.12.04.25.028.362-.032l2.557-1.372.113-.085.068-.069.021.116c.017.093.06.179.123.248l.1.109-.1.019-.132.047-2.557 1.372c-.112.06-.196.164-.234.288-.038.124-.027.259.031.375l2.248 4.504.017.03.953 1.617.068.09.318.333-.344.053c-.103.016-.198.067-.27.144zm12.332-17.854h-7.888c-.262 0-.475.22-.475.492v7.501c0 .143.06.278.164.372l3.944 3.547c.089.08.2.12.311.12.111 0 .222-.04.311-.12l3.944-3.547c.104-.094.164-.229.164-.372v-7.501c0-.272-.213-.492-.475-.492zm-.475 7.769l-3.469 3.12-3.469-3.12v-6.784h6.939v6.784z" fill="#206FAC"/><path d="M31.053 82.071h-1.162c-.086-.125-.226-.207-.386-.207h-1.51c-.159 0-.3.082-.386.207h-1.032c-.086-.125-.226-.207-.386-.207h-1.51c-.16 0-.3.082-.386.207h-1.032c-.086-.125-.226-.207-.386-.207h-1.51c-.159 0-.3.082-.386.207h-1.032c-.086-.125-.226-.207-.386-.207h-1.51c-.16 0-.3.082-.386.207h-3.839l-.028.001-.135-.023c-.845 0-1.6-.582-2.07-1.048-.229-.595-.584-1.005-1.076-1.005-.961 0-1.399 1.564-1.399 3.017 0 1.453.438 3.017 1.399 3.017.451 0 .788-.345 1.017-.861.464-.475 1.248-1.108 2.129-1.108l.137-.023.026.001h3.75v4.63c-1.22-.136-2.295-.887-2.865-2.028l-.005-.01-.022-.046c-.114-.236-.314-.414-.555-.496-.241-.082-.505-.059-.731.062l-11.486 6.165c-.225.121-.394.329-.47.58-.076.251-.052.522.066.754l.026.049.002.004c.839 1.68.349 3.769-1.138 4.859-.418.306-.527.9-.246 1.344 2.733 4.324 5.858 7.581 9.288 9.68 3.405 2.083 6.066 2.394 7.35 2.394.725 0 1.35-.099 1.813-.287l.173-.075.041-.023.038-.019.165-.107c1.355-.928 3.536-4.437 3.689-10.208l.754.678c.089.08.2.12.311.12.111 0 .222-.04.311-.12l5.725-5.149c.104-.093.164-.229.164-.372v-12.378h1.073c.524 0 .95-.441.95-.985s-.425-.985-.95-.985zm-20.626-.931l.094-.136c.072.075.172.258.259.545.104.342.191.832.191 1.464 0 .717-.111 1.252-.234 1.595-.076.212-.156.351-.216.414l-.065-.087c-.162-.257-.384-.908-.384-1.922 0-.957.198-1.588.356-1.873zm1.466 2.494c.018-.206.027-.415.027-.621l-.02-.532c.298.186.631.344.989.444l-.009.13.009.131c-.362.1-.697.261-.997.448zm17.137.406v12.154l-5.25 4.722-3.083-2.773-.433-.39-1.734-1.559v-13.346h.56v2.682c0 .272.213.492.475.492h1.803c.262 0 .475-.22.475-.492v-2.682h.56v2.682c0 .272.213.492.475.492h1.803c.262 0 .475-.22.475-.492v-2.682h.56v2.682c0 .272.213.492.475.492h1.803c.262 0 .475-.22.475-.492v-2.682h.56v1.192zm-9.817 19.915c-.54 2.979-1.607 4.327-1.891 4.641-.108.017-.281.033-.513.033-.702 0-2.184-.145-4.226-1.116-3.839-1.824-6.813-5.24-8.688-7.894 1.046-1.52 1.478-3.393 1.209-5.24l8.084-4.339c1.186 1.18 2.753 1.887 4.393 1.988v4.39c0 .143.06.278.164.372l1.621 1.457c.194 1.849.194 3.797-.152 5.707zm7.454-19.915h.854v.998h-.854v-.998zm-3.313 0h.854v.998h-.854v-.998zm-3.313 0h.854v.998h-.854v-.998zm.482 20.17c-.614 3.388-1.984 5.251-2.551 5.622l-.021.014-.023.01c-.086.037-.42.156-1.132.156-.877 0-3.255-.207-6.384-2.121-2.987-1.828-5.742-4.631-8.198-8.341 1.482-1.534 2.013-3.836 1.359-5.903l9.922-5.325c.963 1.355 2.449 2.207 4.087 2.326v.394c-1.499-.107-2.922-.8-3.955-1.942-.145-.16-.376-.202-.565-.1l-8.704 4.671c-.189.101-.289.32-.247.536.355 1.802-.074 3.661-1.177 5.1-.132.172-.138.414-.014.593 1.926 2.787 5.098 6.526 9.268 8.508 2.206 1.049 3.843 1.205 4.622 1.205.352 0 .668-.032.869-.089l.177-.095c.25-.214.669-.74 1.095-1.576.539-1.057.941-2.308 1.196-3.717.301-1.659.354-3.34.249-4.962l.408.367c.073 1.539.001 3.112-.282 4.668zm7.683 5.955c-.147-.023-.3.029-.405.138-.146.15-.182.382-.089.572l.087.125c.089.093.211.145.337.145.126 0 .247-.052.336-.144.145-.15.18-.379.089-.569-.07-.145-.203-.243-.355-.267zm-20.515-23.204c.126 0 .247-.052.336-.144.089-.092.139-.218.139-.349 0-.131-.051-.256-.14-.349-.089-.091-.21-.143-.335-.143-.125 0-.246.052-.335.143-.09.093-.14.219-.14.35 0 .131.05.256.139.348.089.092.211.144.336.144zm-1.84-3.198c.126 0 .247-.052.336-.144.089-.092.139-.218.139-.349 0-.257-.19-.468-.432-.49-.14-.014-.279.039-.378.141-.09.092-.14.218-.14.35 0 .13.05.255.138.347.089.093.211.145.337.145zm22.858 17.146c-.14-.013-.279.039-.378.141-.09.092-.14.218-.14.35 0 .13.05.255.138.347.089.093.211.145.337.145.126 0 .247-.052.336-.144.089-.092.139-.218.139-.349 0-.257-.19-.468-.432-.49zm-2.016 4.5l-.395-.224-.216-.409c-.083-.158-.243-.256-.417-.256s-.333.098-.416.256l-.216.409-.395.224c-.152.086-.247.252-.247.432s.095.346.247.432l.395.224.216.409c.083.158.243.256.416.256s.333-.098.417-.256l.216-.409.395-.224c.152-.086.247-.252.247-.432s-.095-.346-.247-.432zm-23.868-17.02l.395.224.216.409c.083.158.243.256.416.256.174 0 .333-.098.417-.256l.216-.409.395-.224c.152-.086.247-.252.247-.432s-.095-.346-.247-.432l-.395-.224-.216-.409c-.083-.158-.243-.256-.417-.256s-.333.098-.416.256l-.216.409-.395.224c-.152.086-.247.252-.247.432s.095.346.247.432zm13.578 15.461l-.915-1.553-2.022-4.051 2.073-1.112.894-.17c.172-.033.312-.16.366-.332.054-.172.012-.361-.108-.491l-.609-.663-.16-.875c-.033-.178-.157-.323-.324-.378-.167-.055-.349-.009-.474.118l-.651.659-2.073 1.112-.882-1.767-.164-.927c-.032-.178-.155-.323-.32-.379-.166-.055-.348-.013-.474.112l-.639.631-.844.166c-.172.034-.312.163-.364.336-.052.173-.009.362.113.492l.635.674.882 1.767-2.073 1.113-.894.17c-.171.033-.312.16-.366.332-.054.172-.012.361.108.491l.609.663.16.875c.033.178.157.323.324.378.167.055.349.009.474-.118l.651-.659 2.073-1.112 2.022 4.051.694 1.671.231 1.362c.031.182.158.331.328.385l.139.022c.126 0 .25-.052.341-.149l.799-.854 1.112-.172c.177-.028.324-.156.38-.332.056-.176.013-.37-.113-.502l-.939-.982zm-1.01 1.183l-.264.282-.08-.469-.032-.11-.723-1.74-.014-.032-2.248-4.504c-.084-.169-.25-.266-.422-.266-.074 0-.148.018-.218.055l-2.558 1.372-.113.085-.068.069-.021-.116c-.017-.093-.06-.179-.123-.248l-.1-.109.1-.019.132-.047 2.557-1.372c.233-.125.324-.422.204-.663l-1.133-2.27-.082-.118-.066-.07.112-.022c.09-.017.173-.062.239-.127l.105-.104.018.104.045.137 1.133 2.27c.058.116.158.203.278.243.12.04.25.028.362-.032l2.557-1.372.113-.085.068-.069.021.116c.017.093.06.179.123.248l.1.109-.1.019-.132.047-2.557 1.372c-.112.06-.196.164-.234.288-.038.124-.027.259.031.375l2.248 4.504.017.03.953 1.617.068.09.318.333-.344.053c-.103.016-.198.067-.27.144zm12.332-17.854h-7.888c-.262 0-.475.22-.475.492v7.501c0 .143.06.278.164.372l3.944 3.547c.089.08.2.12.311.12.111 0 .222-.04.311-.12l3.944-3.547c.104-.094.164-.229.164-.372v-7.501c0-.272-.213-.492-.475-.492zm-.475 7.769l-3.469 3.12-3.469-3.12v-6.784h6.939v6.784z" fill="#fff"/><path d="M31.053 42.071h-1.162c-.086-.125-.226-.207-.386-.207h-1.51c-.159 0-.3.082-.386.207h-1.032c-.086-.125-.226-.207-.386-.207h-1.51c-.16 0-.3.082-.386.207h-1.032c-.086-.125-.226-.207-.386-.207h-1.51c-.159 0-.3.082-.386.207h-1.032c-.086-.125-.226-.207-.386-.207h-1.51c-.16 0-.3.082-.386.207h-3.839l-.028.001-.135-.023c-.845 0-1.6-.582-2.07-1.048-.229-.595-.584-1.005-1.076-1.005-.961 0-1.399 1.564-1.399 3.017 0 1.453.438 3.017 1.399 3.017.451 0 .788-.345 1.017-.861.464-.475 1.248-1.108 2.129-1.108l.137-.023.026.001h3.75v4.63c-1.22-.136-2.295-.887-2.865-2.028l-.005-.01-.022-.046c-.114-.236-.314-.414-.555-.496-.241-.082-.505-.059-.731.062l-11.486 6.165c-.225.121-.394.329-.47.58-.076.251-.052.522.066.754l.026.049.002.004c.839 1.68.349 3.769-1.138 4.859-.418.306-.527.9-.246 1.344 2.733 4.324 5.858 7.581 9.288 9.68 3.405 2.083 6.066 2.394 7.35 2.394.725 0 1.35-.099 1.813-.287l.173-.075.041-.023.038-.019.165-.107c1.355-.928 3.536-4.437 3.689-10.208l.754.678c.089.08.2.12.311.12.111 0 .222-.04.311-.12l5.725-5.149c.104-.093.164-.229.164-.372v-12.378h1.073c.524 0 .95-.441.95-.985s-.425-.985-.95-.985zm-20.626-.931l.094-.136c.072.075.172.258.259.545.104.342.191.832.191 1.464 0 .717-.111 1.252-.234 1.595-.076.212-.156.351-.216.414l-.065-.087c-.162-.257-.384-.908-.384-1.922 0-.957.198-1.588.356-1.873zm1.466 2.494c.018-.206.027-.415.027-.621l-.02-.532c.298.186.631.344.989.444l-.009.13.009.131c-.362.1-.697.261-.997.448zm17.137.406v12.154l-5.25 4.722-3.083-2.773-.433-.39-1.734-1.559v-13.346h.56v2.682c0 .272.213.492.475.492h1.803c.262 0 .475-.22.475-.492v-2.682h.56v2.682c0 .272.213.492.475.492h1.803c.262 0 .475-.22.475-.492v-2.682h.56v2.682c0 .272.213.492.475.492h1.803c.262 0 .475-.22.475-.492v-2.682h.56v1.192zm-9.817 19.915c-.54 2.979-1.607 4.327-1.891 4.641-.108.017-.281.033-.513.033-.702 0-2.184-.145-4.226-1.116-3.839-1.824-6.813-5.24-8.688-7.894 1.046-1.52 1.478-3.393 1.209-5.24l8.084-4.339c1.186 1.18 2.753 1.887 4.393 1.988v4.39c0 .143.06.278.164.372l1.621 1.457c.194 1.849.194 3.797-.152 5.707zm7.454-19.915h.854v.998h-.854v-.998zm-3.313 0h.854v.998h-.854v-.998zm-3.313 0h.854v.998h-.854v-.998zm.482 20.17c-.614 3.388-1.984 5.251-2.551 5.622l-.021.014-.023.01c-.086.037-.42.156-1.132.156-.877 0-3.255-.207-6.384-2.121-2.987-1.828-5.742-4.631-8.198-8.341 1.482-1.534 2.013-3.836 1.359-5.903l9.922-5.325c.963 1.355 2.449 2.207 4.087 2.326v.394c-1.499-.107-2.922-.8-3.955-1.942-.145-.16-.376-.202-.565-.1l-8.704 4.671c-.189.101-.289.32-.247.536.355 1.802-.074 3.661-1.177 5.1-.132.172-.138.414-.014.593 1.926 2.787 5.098 6.526 9.268 8.508 2.206 1.049 3.843 1.205 4.622 1.205.352 0 .668-.032.869-.089l.177-.095c.25-.214.669-.74 1.095-1.576.539-1.057.941-2.308 1.196-3.717.301-1.659.354-3.34.249-4.962l.408.367c.073 1.539.001 3.112-.282 4.668zm7.683 5.955c-.147-.023-.3.029-.405.138-.146.15-.182.382-.089.572l.087.125c.089.093.211.145.337.145.126 0 .247-.052.336-.144.145-.15.18-.379.089-.569-.07-.145-.203-.243-.355-.267zm-20.515-23.204c.126 0 .247-.052.336-.144.089-.092.139-.218.139-.349 0-.131-.051-.256-.14-.349-.089-.091-.21-.143-.335-.143-.125 0-.246.052-.335.143-.09.093-.14.219-.14.35 0 .131.05.256.139.348.089.092.211.144.336.144zm-1.84-3.198c.126 0 .247-.052.336-.144.089-.092.139-.218.139-.349 0-.257-.19-.468-.432-.49-.14-.014-.279.039-.378.141-.09.092-.14.218-.14.35 0 .13.05.255.138.347.089.093.211.145.337.145zm22.858 17.146c-.14-.013-.279.039-.378.141-.09.092-.14.218-.14.35 0 .13.05.255.138.347.089.093.211.145.337.145.126 0 .247-.052.336-.144.089-.092.139-.218.139-.349 0-.257-.19-.468-.432-.49zm-2.016 4.5l-.395-.224-.216-.409c-.083-.158-.243-.256-.417-.256s-.333.098-.416.256l-.216.409-.395.224c-.152.086-.247.252-.247.432s.095.346.247.432l.395.224.216.409c.083.158.243.256.416.256s.333-.098.417-.256l.216-.409.395-.224c.152-.086.247-.252.247-.432s-.095-.346-.247-.432zm-23.868-17.02l.395.224.216.409c.083.158.243.256.416.256.174 0 .333-.098.417-.256l.216-.409.395-.224c.152-.086.247-.252.247-.432s-.095-.346-.247-.432l-.395-.224-.216-.409c-.083-.158-.243-.256-.417-.256s-.333.098-.416.256l-.216.409-.395.224c-.152.086-.247.252-.247.432s.095.346.247.432zm13.578 15.461l-.915-1.553-2.022-4.051 2.073-1.112.894-.17c.172-.033.312-.16.366-.332.054-.172.012-.361-.108-.491l-.609-.663-.16-.875c-.033-.178-.157-.323-.324-.378-.167-.055-.349-.009-.474.118l-.651.659-2.073 1.112-.882-1.767-.164-.927c-.032-.178-.155-.323-.32-.379-.166-.055-.348-.013-.474.112l-.639.631-.844.166c-.172.034-.312.163-.364.336-.052.173-.009.362.113.492l.635.674.882 1.767-2.073 1.113-.894.17c-.171.033-.312.16-.366.332-.054.172-.012.361.108.491l.609.663.16.875c.033.178.157.323.324.378.167.055.349.009.474-.118l.651-.659 2.073-1.112 2.022 4.051.694 1.671.231 1.362c.031.182.158.331.328.385l.139.022c.126 0 .25-.052.341-.149l.799-.854 1.112-.172c.177-.028.324-.156.38-.332.056-.176.013-.37-.113-.502l-.939-.982zm-1.01 1.183l-.264.282-.08-.469-.032-.11-.723-1.74-.014-.032-2.248-4.504c-.084-.169-.25-.266-.422-.266-.074 0-.148.018-.218.055l-2.558 1.372-.113.085-.068.069-.021-.116c-.017-.093-.06-.179-.123-.248l-.1-.109.1-.019.132-.047 2.557-1.372c.233-.125.324-.422.204-.663l-1.133-2.27-.082-.118-.066-.07.112-.022c.09-.017.173-.062.239-.127l.105-.104.018.104.045.137 1.133 2.27c.058.116.158.203.278.243.12.04.25.028.362-.032l2.557-1.372.113-.085.068-.069.021.116c.017.093.06.179.123.248l.1.109-.1.019-.132.047-2.557 1.372c-.112.06-.196.164-.234.288-.038.124-.027.259.031.375l2.248 4.504.017.03.953 1.617.068.09.318.333-.344.053c-.103.016-.198.067-.27.144zm12.332-17.854h-7.888c-.262 0-.475.22-.475.492v7.501c0 .143.06.278.164.372l3.944 3.547c.089.08.2.12.311.12.111 0 .222-.04.311-.12l3.944-3.547c.104-.094.164-.229.164-.372v-7.501c0-.272-.213-.492-.475-.492zm-.475 7.769l-3.469 3.12-3.469-3.12v-6.784h6.939v6.784z" fill="#67737B"/><path d="M31.053 2.071h-1.162c-.086-.125-.226-.207-.386-.207h-1.51c-.159 0-.3.082-.386.207h-1.032c-.086-.125-.226-.207-.386-.207h-1.51c-.16 0-.3.082-.386.207h-1.032c-.086-.125-.226-.207-.386-.207h-1.51c-.159 0-.3.082-.386.207h-1.032c-.086-.125-.226-.207-.386-.207h-1.51c-.16 0-.3.082-.386.207h-3.839l-.028.001-.135-.023c-.845 0-1.6-.582-2.07-1.048-.229-.595-.584-1.005-1.076-1.005-.961 0-1.399 1.564-1.399 3.017 0 1.453.438 3.017 1.399 3.017.451 0 .788-.345 1.017-.861.464-.475 1.248-1.108 2.129-1.108l.137-.023.026.001h3.75v4.63c-1.22-.136-2.295-.887-2.865-2.028l-.005-.01-.022-.046c-.114-.236-.314-.414-.555-.496-.241-.082-.505-.059-.731.062l-11.486 6.165c-.225.121-.394.329-.47.58-.076.251-.052.522.066.754l.026.049.002.004c.839 1.68.349 3.769-1.138 4.859-.418.306-.527.9-.246 1.344 2.733 4.324 5.858 7.581 9.288 9.68 3.405 2.083 6.066 2.394 7.35 2.394.725 0 1.35-.099 1.813-.287l.173-.075.041-.023.038-.019.165-.107c1.355-.928 3.536-4.437 3.689-10.208l.754.678c.089.08.2.12.311.12.111 0 .222-.04.311-.12l5.725-5.149c.104-.093.164-.229.164-.372v-12.378h1.073c.524 0 .95-.441.95-.985s-.425-.985-.95-.985zm-20.626-.931l.094-.136c.072.075.172.258.259.545.104.342.191.832.191 1.464 0 .717-.111 1.252-.234 1.595-.076.212-.156.351-.216.414l-.065-.087c-.162-.257-.384-.908-.384-1.922 0-.957.198-1.588.356-1.873zm1.466 2.494c.018-.206.027-.415.027-.621l-.02-.532c.298.186.631.344.989.444l-.009.13.009.131c-.362.1-.697.261-.997.448zm17.137.406v12.154l-5.25 4.722-3.083-2.773-.433-.39-1.734-1.559v-13.346h.56v2.682c0 .272.213.492.475.492h1.803c.262 0 .475-.22.475-.492v-2.682h.56v2.682c0 .272.213.492.475.492h1.803c.262 0 .475-.22.475-.492v-2.682h.56v2.682c0 .272.213.492.475.492h1.803c.262 0 .475-.22.475-.492v-2.682h.56v1.192zm-9.817 19.915c-.54 2.979-1.607 4.327-1.891 4.641-.108.017-.281.033-.513.033-.702 0-2.184-.145-4.226-1.116-3.839-1.824-6.813-5.24-8.688-7.894 1.046-1.52 1.478-3.393 1.209-5.24l8.084-4.339c1.186 1.18 2.753 1.887 4.393 1.988v4.39c0 .143.06.278.164.372l1.621 1.457c.194 1.849.194 3.797-.152 5.707zm7.454-19.915h.854v.998h-.854v-.998zm-3.313 0h.854v.998h-.854v-.998zm-3.313 0h.854v.998h-.854v-.998zm.482 20.17c-.614 3.388-1.984 5.251-2.551 5.622l-.021.014-.023.01c-.086.037-.42.156-1.132.156-.877 0-3.255-.207-6.384-2.121-2.987-1.828-5.742-4.631-8.198-8.341 1.482-1.534 2.013-3.836 1.359-5.903l9.922-5.325c.963 1.355 2.449 2.207 4.087 2.326v.394c-1.499-.107-2.922-.8-3.955-1.942-.145-.16-.376-.202-.565-.1l-8.704 4.671c-.189.101-.289.32-.247.536.355 1.802-.074 3.661-1.177 5.1-.132.172-.138.414-.014.593 1.926 2.787 5.098 6.526 9.268 8.508 2.206 1.049 3.843 1.205 4.622 1.205.352 0 .668-.032.869-.089l.177-.095c.25-.214.669-.74 1.095-1.576.539-1.057.941-2.308 1.196-3.717.301-1.659.354-3.34.249-4.962l.408.367c.073 1.539.001 3.112-.282 4.668zm7.683 5.955c-.147-.023-.3.029-.405.138-.146.15-.182.382-.089.572l.087.125c.089.093.211.145.337.145.126 0 .247-.052.336-.144.145-.15.18-.379.089-.569-.07-.145-.203-.243-.355-.267zm-20.515-23.204c.126 0 .247-.052.336-.144.089-.092.139-.218.139-.349 0-.131-.051-.256-.14-.349-.089-.091-.21-.143-.335-.143-.125 0-.246.052-.335.143-.09.093-.14.219-.14.35 0 .131.05.256.139.348.089.092.211.144.336.144zm-1.84-3.198c.126 0 .247-.052.336-.144.089-.092.139-.218.139-.349 0-.257-.19-.468-.432-.49-.14-.014-.279.039-.378.141-.09.092-.14.218-.14.35 0 .13.05.255.138.347.089.093.211.145.337.145zm22.858 17.146c-.14-.013-.279.039-.378.141-.09.092-.14.218-.14.35 0 .13.05.255.138.347.089.093.211.145.337.145.126 0 .247-.052.336-.144.089-.092.139-.218.139-.349 0-.257-.19-.468-.432-.49zm-2.016 4.5l-.395-.224-.216-.409c-.083-.158-.243-.256-.417-.256s-.333.098-.416.256l-.216.409-.395.224c-.152.086-.247.252-.247.432s.095.346.247.432l.395.224.216.409c.083.158.243.256.416.256s.333-.098.417-.256l.216-.409.395-.224c.152-.086.247-.252.247-.432s-.095-.346-.247-.432zm-23.868-17.02l.395.224.216.409c.083.158.243.256.416.256.174 0 .333-.098.417-.256l.216-.409.395-.224c.152-.086.247-.252.247-.432s-.095-.346-.247-.432l-.395-.224-.216-.409c-.083-.158-.243-.256-.417-.256s-.333.098-.416.256l-.216.409-.395.224c-.152.086-.247.252-.247.432s.095.346.247.432zm13.578 15.461l-.915-1.553-2.022-4.051 2.073-1.112.894-.17c.172-.033.312-.16.366-.332.054-.172.012-.361-.108-.491l-.609-.663-.16-.875c-.033-.178-.157-.323-.324-.378-.167-.055-.349-.009-.474.118l-.651.659-2.073 1.112-.882-1.767-.164-.927c-.032-.178-.155-.323-.32-.379-.166-.055-.348-.013-.474.112l-.639.631-.844.166c-.172.034-.312.163-.364.336-.052.173-.009.362.113.492l.635.674.882 1.767-2.073 1.113-.894.17c-.171.033-.312.16-.366.332-.054.172-.012.361.108.491l.609.663.16.875c.033.178.157.323.324.378.167.055.349.009.474-.118l.651-.659 2.073-1.112 2.022 4.051.694 1.671.231 1.362c.031.182.158.331.328.385l.139.022c.126 0 .25-.052.341-.149l.799-.854 1.112-.172c.177-.028.324-.156.38-.332.056-.176.013-.37-.113-.502l-.939-.982zm-1.01 1.183l-.264.282-.08-.469-.032-.11-.723-1.74-.014-.032-2.248-4.504c-.084-.169-.25-.266-.422-.266-.074 0-.148.018-.218.055l-2.558 1.372-.113.085-.068.069-.021-.116c-.017-.093-.06-.179-.123-.248l-.1-.109.1-.019.132-.047 2.557-1.372c.233-.125.324-.422.204-.663l-1.133-2.27-.082-.118-.066-.07.112-.022c.09-.017.173-.062.239-.127l.105-.104.018.104.045.137 1.133 2.27c.058.116.158.203.278.243.12.04.25.028.362-.032l2.557-1.372.113-.085.068-.069.021.116c.017.093.06.179.123.248l.1.109-.1.019-.132.047-2.557 1.372c-.112.06-.196.164-.234.288-.038.124-.027.259.031.375l2.248 4.504.017.03.953 1.617.068.09.318.333-.344.053c-.103.016-.198.067-.27.144zm12.332-17.854h-7.888c-.262 0-.475.22-.475.492v7.501c0 .143.06.278.164.372l3.944 3.547c.089.08.2.12.311.12.111 0 .222-.04.311-.12l3.944-3.547c.104-.094.164-.229.164-.372v-7.501c0-.272-.213-.492-.475-.492zm-.475 7.769l-3.469 3.12-3.469-3.12v-6.784h6.939v6.784z" fill="#3A434E"/></g></g></svg>