<svg width="32" height="232" viewBox="0 0 32 232" xmlns="http://www.w3.org/2000/svg" xmlns:sketch="http://www.bohemiancoding.com/sketch/ns"><title>san-francisco</title><desc>Created with Sketch.</desc><g sketch:type="MSPage" fill="none"><g sketch:type="MSShapeGroup"><path d="M31.154 144.877c.558-.141.899-.723.762-1.298-.137-.576-.701-.928-1.257-.787l-2.753.7v-3.896h3.0679999999999996c.287 0 .52-.241.52-.537 0-.125-.042-.242-.113-.333l-.717-1.111.74-1.146c.107-.165.117-.377.027-.552-.09-.175-.266-.284-.458-.284h-3.586c-.287 0-.519.24-.519.537v7.586l-.909.23v-8.94c.165-.033.325-.106.464-.224.345-.293.46-.768.322-1.18v-1.446c0-.297-.233-.537-.52-.537-.287 0-.52.24-.52.537v.032l-3.859-4.854c-.08-.1-.177-.183-.283-.247v-.868c0-.297-.233-.537-.52-.537-.287 0-.52.24-.52.537v.868c-.107.064-.204.147-.283.247l-2.379 2.992-.268.086-.278-5.011c-.016-.284-.243-.506-.519-.506h-.844l-.023-.002-.107.012c-.232.044-.412.246-.426.496l-.045.81c-.183 1.236-.789 2.243-1.548 2.592v-.669c0-.296-.233-.537-.52-.537-.287 0-.519.24-.519.537v.719c-.975-.348-1.729-1.774-1.729-3.424 0-.296-.233-.536-.52-.536l-.023.002h-.868l-.023-.002c-.287 0-.519.24-.519.536 0 1.9-1.002 3.505-2.188 3.505-1.06 0-1.972-1.282-2.153-2.911l-.035-.623-.005-.036-.009-.058-.01-.033-.023-.067-.008-.015c-.086-.176-.26-.297-.463-.297l-.023.002h-.859c-.276 0-.503.222-.519.506l-.27 4.867-.307-.017c-.505 0-.782.111-1.004.201-.183.074-.316.127-.625.127-.286 0-.519.24-.519.537 0 .296.233.537.519.537.505 0 .782-.111 1.004-.201.183-.074.316-.128.625-.128s.442.054.625.128c.222.09.498.201 1.003.201.505 0 .781-.111 1.004-.201.184-.074.316-.128.625-.128s.442.054.625.128c.222.09.498.201 1.003.201.505 0 .782-.111 1.004-.201.183-.074.316-.128.625-.128s.442.054.625.128c.222.09.498.201 1.004.201l.227-.009-1.943 2.443v-.017c0-.296-.233-.537-.52-.537-.287 0-.52.24-.52.537v1.409l-.01.029-.016.046-.015.057-.01.044-.01.068-.005.037-.005.096v.009999999999999998l.005.107.007.051.008.052.014.06.011.042.018.054.015.045.021.045.023.051.02.035.033.055.02.028.04.056.024.027.044.05.075.071.001.001.02.015.062.048.035.022.053.033.041.02.052.025.043.016.052.019.047.012.052.014.053.008.049.007.069.004.032.002h.324v.419l-.124-.008h-3.24v-.929c0-.296-.232-.536-.52-.536-.287 0-.519.24-.519.536v.929h-.598c-.574 0-1.039.48-1.039 1.074v11.386l-.098.025c-.558.141-.898.723-.761 1.299.117.49.541.817 1.008.817l.249-.031 23.623-5.996v1.884l-4.543 1.153c-.278.071-.449.361-.38.649.058.245.27.409.504.409l.124-.016 8.459-2.147c.278-.071.449-.362.38-.65-.068-.287-.35-.463-.629-.393l-2.876.73v-1.884l3.249-.825zm-3.249-8.171h2.094l-.394.611c-.116.18-.116.415 0 .595l.394.611h-2.094v-1.816zm-7.054 8.576v-2.821c-.019-.434-.367-.779-.791-.779-.425 0-.771.345-.791.779v3.222h.007l-1.592.404v-9.103h.317l.098-.005.031-.004.064-.01.036-.008.058-.015.037-.012.056-.021.034-.014.057-.028.029-.015.063-.04.02-.013.076-.059.001-.001.076-.071.044-.05.024-.027.04-.056.02-.028.032-.055.02-.035.024-.051.02-.045.016-.045.018-.054.011-.042.014-.06.008-.052.007-.051.005-.107v-.001l-.001-.009-.005-.096-.005-.037-.01-.068-.01-.044-.014-.057-.016-.046-.018-.052-.022-.047-.022-.048-.029-.051-.023-.04-.045-.062-.015-.022-.816-1.027h5.891v10.312l-3.027.768zm-10.928-9.395l3.348-4.21.02.002 2.012 2.53.499.628.115.145.727.915.011.014h-6.75l.018-.023zm6.476-3.684l-.575-.723.034.014c.213.086.479.191.947.199l-.405.51zm4.642-2.456l2.689 3.382h-5.377l2.688-3.382zm-4.878.597l.19-3.437.19 3.437h-.381zm-.972-1.253l-.067 1.205-.23.016-.472-.594c.277-.159.536-.371.769-.627zm-3.091.674l-.432.544c-.152.015-.278.042-.387.073l-.074-1.336c.266.303.567.547.893.718zm-2.243.578l.19-3.437.19 3.437h-.381zm-6.115-3.437l.19 3.437h-.381l.19-3.437zm3.973 3.587c-.184.074-.316.127-.625.127s-.441-.053-.624-.127c-.223-.09-.499-.201-1.004-.201-.193 0-.353.017-.488.042l-.07-1.259c.548.61 1.238.974 1.987.974.754 0 1.447-.369 1.997-.985l-.068 1.232-.101-.003c-.505 0-.782.111-1.003.201zm-2.792 9.046h3.837l.124-.008v8.788l-3.961 1.006v-9.785zm8.269 4.394c-.425 0-.771.346-.791.78v2.712l-2.478.63v-11.073h6.721v9.366l-2.661.676v-2.311c-.019-.433-.366-.78-.791-.78zm6.199-5.319h1.039v2.311h-1.039v-2.311zm2.107 0h1.04v2.311h-1.04v-2.311zm-2.107-2.719h1.039v2.311h-1.039v-2.311zm2.107 0h1.04v2.311h-1.04v-2.311zm-8.589 3.35c-.019-.433-.367-.779-.791-.779-.425 0-.772.346-.791.779v1.95h1.583v-1.95zm2.104 0c-.019-.433-.367-.779-.791-.779-.425 0-.772.346-.791.779v1.95h1.582v-1.95zm-3.673 2.602h3.702v1.074h-3.702v-1.074zm-5.969.687h1.039v2.311h-1.039v-2.311zm1.359 0h1.039v2.311h-1.039v-2.311zm-1.359 2.628h1.039v2.311h-1.039v-2.311zm1.359 0h1.039v2.311h-1.039v-2.311zm.526-3.967c0-.406-.318-.734-.711-.734-.393 0-.711.328-.711.734 0 .405.318.734.711.734.393 0 .711-.329.711-.734zm10.059-18.885h.085l-.023.251c0 .731.575 1.325 1.282 1.325h5.877c.311 0 .613-.118.847-.331.276-.252.435-.614.435-.994s-.159-.741-.435-.993c-.234-.214-.536-.332-.847-.332h-2.436l.004-.08c0-.331-.138-.646-.378-.865-.204-.187-.467-.289-.739-.289h-3.672c-.616 0-1.118.518-1.118 1.154 0 .636.501 1.154 1.118 1.154zm0-1.235h3.672l.051.021.027.06-.028.061-.05.02h-.003c-.287 0-.52.241-.52.537 0 .297.233.537.52.537h3.551c.075 0 .128.034.16.064.031.027.083.09.083.187 0 .098-.052.16-.083.189-.032.028-.085.063-.16.063h-5.877c-.134 0-.243-.113-.243-.252s.109-.251.243-.251c.287 0 .52-.24.52-.537h.002c0-.296-.233-.537-.52-.537h-1.346c-.043 0-.079-.036-.079-.08 0-.044.036-.081.079-.081zm6.782 5.743c-.221.191-.249.529-.064.757.184.227.513.256.732.066.159-.137.359-.203.565-.184.141.013.273.064.385.148l.007.015c.086.189.27.311.471.311h.059c.203 0 .386-.121.471-.311l.007-.015c.112-.084.244-.135.386-.148.205-.018.406.047.564.184.22.19.548.161.733-.066.184-.227.156-.566-.064-.757-.371-.322-.842-.474-1.323-.431-.289.026-.564.121-.803.276-.239-.154-.513-.249-.803-.276-.482-.043-.952.11-1.322.431" fill="#206FAC"/><path d="M31.154 104.877c.558-.141.899-.723.762-1.298-.137-.576-.701-.928-1.257-.787l-2.753.7v-3.896h3.0679999999999996c.287 0 .52-.241.52-.537 0-.125-.042-.242-.113-.333l-.717-1.111.74-1.146c.107-.165.117-.377.027-.552-.09-.175-.266-.284-.458-.284h-3.586c-.287 0-.519.24-.519.537v7.586l-.909.23v-8.94c.165-.033.325-.106.464-.224.345-.293.46-.768.322-1.18v-1.446c0-.297-.233-.537-.52-.537-.287 0-.52.24-.52.537v.032l-3.859-4.854c-.08-.1-.177-.183-.283-.247v-.868c0-.297-.233-.537-.52-.537-.287 0-.52.24-.52.537v.868c-.107.064-.204.147-.283.247l-2.379 2.992-.268.086-.278-5.011c-.016-.284-.243-.506-.519-.506h-.844l-.023-.002-.107.012c-.232.044-.412.246-.426.496l-.045.81c-.183 1.236-.789 2.243-1.548 2.592v-.669c0-.296-.233-.537-.52-.537-.287 0-.519.24-.519.537v.719c-.975-.348-1.729-1.774-1.729-3.424 0-.296-.233-.536-.52-.536l-.023.002h-.868l-.023-.002c-.287 0-.519.24-.519.536 0 1.9-1.002 3.505-2.188 3.505-1.06 0-1.972-1.282-2.153-2.911l-.035-.623-.005-.036-.009-.058-.01-.033-.023-.067-.008-.015c-.086-.176-.26-.297-.463-.297l-.023.002h-.859c-.276 0-.503.222-.519.506l-.27 4.867-.307-.017c-.505 0-.782.111-1.004.201-.183.074-.316.127-.625.127-.286 0-.519.24-.519.537 0 .296.233.537.519.537.505 0 .782-.111 1.004-.201.183-.074.316-.128.625-.128s.442.054.625.128c.222.09.498.201 1.003.201.505 0 .781-.111 1.004-.201.184-.074.316-.128.625-.128s.442.054.625.128c.222.09.498.201 1.003.201.505 0 .782-.111 1.004-.201.183-.074.316-.128.625-.128s.442.054.625.128c.222.09.498.201 1.004.201l.227-.009-1.943 2.443v-.017c0-.296-.233-.537-.52-.537-.287 0-.52.24-.52.537v1.409l-.01.029-.016.046-.015.057-.01.044-.01.068-.005.037-.005.096v.009999999999999998l.005.107.007.051.008.052.014.06.011.042.018.054.015.045.021.045.023.051.02.035.033.055.02.028.04.056.024.027.044.05.075.071.001.001.02.015.062.048.035.022.053.033.041.02.052.025.043.016.052.019.047.012.052.014.053.008.049.007.069.004.032.002h.324v.419l-.124-.008h-3.24v-.929c0-.296-.232-.536-.52-.536-.287 0-.519.24-.519.536v.929h-.598c-.574 0-1.039.48-1.039 1.074v11.386l-.098.025c-.558.141-.898.723-.761 1.299.117.49.541.817 1.008.817l.249-.031 23.623-5.996v1.884l-4.543 1.153c-.278.071-.449.361-.38.649.058.245.27.409.504.409l.124-.016 8.459-2.147c.278-.071.449-.362.38-.65-.068-.287-.35-.463-.629-.393l-2.876.73v-1.884l3.249-.825zm-3.249-8.171h2.094l-.394.611c-.116.18-.116.415 0 .595l.394.611h-2.094v-1.816zm-7.054 8.576v-2.821c-.019-.434-.367-.779-.791-.779-.425 0-.771.345-.791.779v3.222h.007l-1.592.404v-9.103h.317l.098-.005.031-.004.064-.01.036-.008.058-.015.037-.012.056-.021.034-.014.057-.028.029-.015.063-.04.02-.013.076-.059.001-.001.076-.071.044-.05.024-.027.04-.056.02-.028.032-.055.02-.035.024-.051.02-.045.016-.045.018-.054.011-.042.014-.06.008-.052.007-.051.005-.107v-.001l-.001-.009-.005-.096-.005-.037-.01-.068-.01-.044-.014-.057-.016-.046-.018-.052-.022-.047-.022-.048-.029-.051-.023-.04-.045-.062-.015-.022-.816-1.027h5.891v10.312l-3.027.768zm-10.928-9.395l3.348-4.21.02.002 2.012 2.53.499.628.115.145.727.915.011.014h-6.75l.018-.023zm6.476-3.684l-.575-.723.034.014c.213.086.479.191.947.199l-.405.51zm4.642-2.456l2.689 3.382h-5.377l2.688-3.382zm-4.878.597l.19-3.437.19 3.437h-.381zm-.972-1.253l-.067 1.205-.23.016-.472-.594c.277-.159.536-.371.769-.627zm-3.091.674l-.432.544c-.152.015-.278.042-.387.073l-.074-1.336c.266.303.567.547.893.718zm-2.243.578l.19-3.437.19 3.437h-.381zm-6.115-3.437l.19 3.437h-.381l.19-3.437zm3.973 3.587c-.184.074-.316.127-.625.127s-.441-.053-.624-.127c-.223-.09-.499-.201-1.004-.201-.193 0-.353.017-.488.042l-.07-1.259c.548.61 1.238.974 1.987.974.754 0 1.447-.369 1.997-.985l-.068 1.232-.101-.003c-.505 0-.782.111-1.003.201zm-2.792 9.046h3.837l.124-.008v8.788l-3.961 1.006v-9.785zm8.269 4.394c-.425 0-.771.346-.791.78v2.712l-2.478.63v-11.073h6.721v9.366l-2.661.676v-2.311c-.019-.433-.366-.78-.791-.78zm6.199-5.319h1.039v2.311h-1.039v-2.311zm2.107 0h1.04v2.311h-1.04v-2.311zm-2.107-2.719h1.039v2.311h-1.039v-2.311zm2.107 0h1.04v2.311h-1.04v-2.311zm-8.589 3.35c-.019-.433-.367-.779-.791-.779-.425 0-.772.346-.791.779v1.95h1.583v-1.95zm2.104 0c-.019-.433-.367-.779-.791-.779-.425 0-.772.346-.791.779v1.95h1.582v-1.95zm-3.673 2.602h3.702v1.074h-3.702v-1.074zm-5.969.687h1.039v2.311h-1.039v-2.311zm1.359 0h1.039v2.311h-1.039v-2.311zm-1.359 2.628h1.039v2.311h-1.039v-2.311zm1.359 0h1.039v2.311h-1.039v-2.311zm.526-3.967c0-.406-.318-.734-.711-.734-.393 0-.711.328-.711.734 0 .405.318.734.711.734.393 0 .711-.329.711-.734zm10.059-18.885h.085l-.023.251c0 .731.575 1.325 1.282 1.325h5.877c.311 0 .613-.118.847-.331.276-.252.435-.614.435-.994s-.159-.741-.435-.993c-.234-.214-.536-.332-.847-.332h-2.436l.004-.08c0-.331-.138-.646-.378-.865-.204-.187-.467-.289-.739-.289h-3.672c-.616 0-1.118.518-1.118 1.154 0 .636.501 1.154 1.118 1.154zm0-1.235h3.672l.051.021.027.06-.028.061-.05.02h-.003c-.287 0-.52.241-.52.537 0 .297.233.537.52.537h3.551c.075 0 .128.034.16.064.031.027.083.09.083.187 0 .098-.052.16-.083.189-.032.028-.085.063-.16.063h-5.877c-.134 0-.243-.113-.243-.252s.109-.251.243-.251c.287 0 .52-.24.52-.537h.002c0-.296-.233-.537-.52-.537h-1.346c-.043 0-.079-.036-.079-.08 0-.044.036-.081.079-.081zm6.782 5.743c-.221.191-.249.529-.064.757.184.227.513.256.732.066.159-.137.359-.203.565-.184.141.013.273.064.385.148l.007.015c.086.189.27.311.471.311h.059c.203 0 .386-.121.471-.311l.007-.015c.112-.084.244-.135.386-.148.205-.018.406.047.564.184.22.19.548.161.733-.066.184-.227.156-.566-.064-.757-.371-.322-.842-.474-1.323-.431-.289.026-.564.121-.803.276-.239-.154-.513-.249-.803-.276-.482-.043-.952.11-1.322.431" fill="#fff"/><path d="M31.154 64.877c.558-.141.899-.723.762-1.298-.137-.576-.701-.928-1.257-.787l-2.753.7v-3.896h3.0679999999999996c.287 0 .52-.241.52-.537 0-.125-.042-.242-.113-.333l-.717-1.111.74-1.146c.107-.165.117-.377.027-.552-.09-.175-.266-.284-.458-.284h-3.586c-.287 0-.519.24-.519.537v7.586l-.909.23v-8.94c.165-.033.325-.106.464-.224.345-.293.46-.768.322-1.18v-1.446c0-.297-.233-.537-.52-.537-.287 0-.52.24-.52.537v.032l-3.859-4.854c-.08-.1-.177-.183-.283-.247v-.868c0-.297-.233-.537-.52-.537-.287 0-.52.24-.52.537v.868c-.107.064-.204.147-.283.247l-2.379 2.992-.268.086-.278-5.011c-.016-.284-.243-.506-.519-.506h-.844l-.023-.002-.107.012c-.232.044-.412.246-.426.496l-.045.81c-.183 1.236-.789 2.243-1.548 2.592v-.669c0-.296-.233-.537-.52-.537-.287 0-.519.24-.519.537v.719c-.975-.348-1.729-1.774-1.729-3.424 0-.296-.233-.536-.52-.536l-.023.002h-.868l-.023-.002c-.287 0-.519.24-.519.536 0 1.9-1.002 3.505-2.188 3.505-1.06 0-1.972-1.282-2.153-2.911l-.035-.623-.005-.036-.009-.058-.01-.033-.023-.067-.008-.015c-.086-.176-.26-.297-.463-.297l-.023.002h-.859c-.276 0-.503.222-.519.506l-.27 4.867-.307-.017c-.505 0-.782.111-1.004.201-.183.074-.316.127-.625.127-.286 0-.519.24-.519.537 0 .296.233.537.519.537.505 0 .782-.111 1.004-.201.183-.074.316-.128.625-.128s.442.054.625.128c.222.09.498.201 1.003.201.505 0 .781-.111 1.004-.201.184-.074.316-.128.625-.128s.442.054.625.128c.222.09.498.201 1.003.201.505 0 .782-.111 1.004-.201.183-.074.316-.128.625-.128s.442.054.625.128c.222.09.498.201 1.004.201l.227-.009-1.943 2.443v-.017c0-.296-.233-.537-.52-.537-.287 0-.52.24-.52.537v1.409l-.01.029-.016.046-.015.057-.01.044-.01.068-.005.037-.005.096v.009999999999999998l.005.107.007.051.008.052.014.06.011.042.018.054.015.045.021.045.023.051.02.035.033.055.02.028.04.056.024.027.044.05.075.071.001.001.02.015.062.048.035.022.053.033.041.02.052.025.043.016.052.019.047.012.052.014.053.008.049.007.069.004.032.002h.324v.419l-.124-.008h-3.24v-.929c0-.296-.232-.536-.52-.536-.287 0-.519.24-.519.536v.929h-.598c-.574 0-1.039.48-1.039 1.074v11.386l-.098.025c-.558.141-.898.723-.761 1.299.117.49.541.817 1.008.817l.249-.031 23.623-5.996v1.884l-4.543 1.153c-.278.071-.449.361-.38.649.058.245.27.409.504.409l.124-.016 8.459-2.147c.278-.071.449-.362.38-.65-.068-.287-.35-.463-.629-.393l-2.876.73v-1.884l3.249-.825zm-3.249-8.171h2.094l-.394.611c-.116.18-.116.415 0 .595l.394.611h-2.094v-1.816zm-7.054 8.576v-2.821c-.019-.434-.367-.779-.791-.779-.425 0-.771.345-.791.779v3.222h.007l-1.592.404v-9.103h.317l.098-.005.031-.004.064-.01.036-.008.058-.015.037-.012.056-.021.034-.014.057-.028.029-.015.063-.04.02-.013.076-.059.001-.001.076-.071.044-.05.024-.027.04-.056.02-.028.032-.055.02-.035.024-.051.02-.045.016-.045.018-.054.011-.042.014-.06.008-.052.007-.051.005-.107v-.001l-.001-.009-.005-.096-.005-.037-.01-.068-.01-.044-.014-.057-.016-.046-.018-.052-.022-.047-.022-.048-.029-.051-.023-.04-.045-.062-.015-.022-.816-1.027h5.891v10.312l-3.027.768zm-10.928-9.395l3.348-4.21.02.002 2.012 2.53.499.628.115.145.727.915.011.014h-6.75l.018-.023zm6.476-3.684l-.575-.723.034.014c.213.086.479.191.947.199l-.405.51zm4.642-2.456l2.689 3.382h-5.377l2.688-3.382zm-4.878.597l.19-3.437.19 3.437h-.381zm-.972-1.253l-.067 1.205-.23.016-.472-.594c.277-.159.536-.371.769-.627zm-3.091.674l-.432.544c-.152.015-.278.042-.387.073l-.074-1.336c.266.303.567.547.893.718zm-2.243.578l.19-3.437.19 3.437h-.381zm-6.115-3.437l.19 3.437h-.381l.19-3.437zm3.973 3.587c-.184.074-.316.127-.625.127s-.441-.053-.624-.127c-.223-.09-.499-.201-1.004-.201-.193 0-.353.017-.488.042l-.07-1.259c.548.61 1.238.974 1.987.974.754 0 1.447-.369 1.997-.985l-.068 1.232-.101-.003c-.505 0-.782.111-1.003.201zm-2.792 9.046h3.837l.124-.008v8.788l-3.961 1.006v-9.785zm8.269 4.394c-.425 0-.771.346-.791.78v2.712l-2.478.63v-11.073h6.721v9.366l-2.661.676v-2.311c-.019-.433-.366-.78-.791-.78zm6.199-5.319h1.039v2.311h-1.039v-2.311zm2.107 0h1.04v2.311h-1.04v-2.311zm-2.107-2.719h1.039v2.311h-1.039v-2.311zm2.107 0h1.04v2.311h-1.04v-2.311zm-8.589 3.35c-.019-.433-.367-.779-.791-.779-.425 0-.772.346-.791.779v1.95h1.583v-1.95zm2.104 0c-.019-.433-.367-.779-.791-.779-.425 0-.772.346-.791.779v1.95h1.582v-1.95zm-3.673 2.602h3.702v1.074h-3.702v-1.074zm-5.969.687h1.039v2.311h-1.039v-2.311zm1.359 0h1.039v2.311h-1.039v-2.311zm-1.359 2.628h1.039v2.311h-1.039v-2.311zm1.359 0h1.039v2.311h-1.039v-2.311zm.526-3.967c0-.406-.318-.734-.711-.734-.393 0-.711.328-.711.734 0 .405.318.734.711.734.393 0 .711-.329.711-.734zm10.059-18.885h.085l-.023.251c0 .731.575 1.325 1.282 1.325h5.877c.311 0 .613-.118.847-.331.276-.252.435-.614.435-.994s-.159-.741-.435-.993c-.234-.214-.536-.332-.847-.332h-2.436l.004-.08c0-.331-.138-.646-.378-.865-.204-.187-.467-.289-.739-.289h-3.672c-.616 0-1.118.518-1.118 1.154 0 .636.501 1.154 1.118 1.154zm0-1.235h3.672l.051.021.027.06-.028.061-.05.02h-.003c-.287 0-.52.241-.52.537 0 .297.233.537.52.537h3.551c.075 0 .128.034.16.064.031.027.083.09.083.187 0 .098-.052.16-.083.189-.032.028-.085.063-.16.063h-5.877c-.134 0-.243-.113-.243-.252s.109-.251.243-.251c.287 0 .52-.24.52-.537h.002c0-.296-.233-.537-.52-.537h-1.346c-.043 0-.079-.036-.079-.08 0-.044.036-.081.079-.081zm6.782 5.743c-.221.191-.249.529-.064.757.184.227.513.256.732.066.159-.137.359-.203.565-.184.141.013.273.064.385.148l.007.015c.086.189.27.311.471.311h.059c.203 0 .386-.121.471-.311l.007-.015c.112-.084.244-.135.386-.148.205-.018.406.047.564.184.22.19.548.161.733-.066.184-.227.156-.566-.064-.757-.371-.322-.842-.474-1.323-.431-.289.026-.564.121-.803.276-.239-.154-.513-.249-.803-.276-.482-.043-.952.11-1.322.431" fill="#67737B"/><path d="M31.154 24.877c.558-.141.899-.723.762-1.298-.137-.576-.701-.928-1.257-.787l-2.753.7v-3.896h3.0679999999999996c.287 0 .52-.241.52-.537 0-.125-.042-.242-.113-.333l-.717-1.111.74-1.146c.107-.165.117-.377.027-.552-.09-.175-.266-.284-.458-.284h-3.586c-.287 0-.519.24-.519.537v7.586l-.909.23v-8.94c.165-.033.325-.106.464-.224.345-.293.46-.768.322-1.18v-1.446c0-.297-.233-.537-.52-.537-.287 0-.52.24-.52.537v.032l-3.859-4.854c-.08-.1-.177-.183-.283-.247v-.868c0-.297-.233-.537-.52-.537-.287 0-.52.24-.52.537v.868c-.107.064-.204.147-.283.247l-2.379 2.992-.268.086-.278-5.011c-.016-.284-.243-.506-.519-.506h-.844l-.023-.002-.107.012c-.232.044-.412.246-.426.496l-.045.81c-.183 1.236-.789 2.243-1.548 2.592v-.669c0-.296-.233-.537-.52-.537-.287 0-.519.24-.519.537v.719c-.975-.348-1.729-1.774-1.729-3.424 0-.296-.233-.536-.52-.536l-.023.002h-.868l-.023-.002c-.287 0-.519.24-.519.536 0 1.9-1.002 3.505-2.188 3.505-1.06 0-1.972-1.282-2.153-2.911l-.035-.623-.005-.036-.009-.058-.01-.033-.023-.067-.008-.015c-.086-.176-.26-.297-.463-.297l-.023.002h-.859c-.276 0-.503.222-.519.506l-.27 4.867-.307-.017c-.505 0-.782.111-1.004.201-.183.074-.316.127-.625.127-.286 0-.519.24-.519.537 0 .296.233.537.519.537.505 0 .782-.111 1.004-.201.183-.074.316-.128.625-.128s.442.054.625.128c.222.09.498.201 1.003.201.505 0 .781-.111 1.004-.201.184-.074.316-.128.625-.128s.442.054.625.128c.222.09.498.201 1.003.201.505 0 .782-.111 1.004-.201.183-.074.316-.128.625-.128s.442.054.625.128c.222.09.498.201 1.004.201l.227-.009-1.943 2.443v-.017c0-.296-.233-.537-.52-.537-.287 0-.52.24-.52.537v1.409l-.01.029-.016.046-.015.057-.01.044-.01.068-.005.037-.005.096v.009999999999999998l.005.107.007.051.008.052.014.06.011.042.018.054.015.045.021.045.023.051.02.035.033.055.02.028.04.056.024.027.044.05.075.071.001.001.02.015.062.048.035.022.053.033.041.02.052.025.043.016.052.019.047.012.052.014.053.008.049.007.069.004.032.002h.324v.419l-.124-.008h-3.24v-.929c0-.296-.232-.536-.52-.536-.287 0-.519.24-.519.536v.929h-.598c-.574 0-1.039.48-1.039 1.074v11.386l-.098.025c-.558.141-.898.723-.761 1.299.117.49.541.817 1.008.817l.249-.031 23.623-5.996v1.884l-4.543 1.153c-.278.071-.449.361-.38.649.058.245.27.409.504.409l.124-.016 8.459-2.147c.278-.071.449-.362.38-.65-.068-.287-.35-.463-.629-.393l-2.876.73v-1.884l3.249-.825zm-3.249-8.171h2.094l-.394.611c-.116.18-.116.415 0 .595l.394.611h-2.094v-1.816zm-7.054 8.576v-2.821c-.019-.434-.367-.779-.791-.779-.425 0-.771.345-.791.779v3.222h.007l-1.592.404v-9.103h.317l.098-.005.031-.004.064-.01.036-.008.058-.015.037-.012.056-.021.034-.014.057-.028.029-.015.063-.04.02-.013.076-.059.001-.001.076-.071.044-.05.024-.027.04-.056.02-.028.032-.055.02-.035.024-.051.02-.045.016-.045.018-.054.011-.042.014-.06.008-.052.007-.051.005-.107v-.001l-.001-.009-.005-.096-.005-.037-.01-.068-.01-.044-.014-.057-.016-.046-.018-.052-.022-.047-.022-.048-.029-.051-.023-.04-.045-.062-.015-.022-.816-1.027h5.891v10.312l-3.027.768zm-10.928-9.395l3.348-4.21.02.002 2.012 2.53.499.628.115.145.727.915.011.014h-6.75l.018-.023zm6.476-3.684l-.575-.723.034.014c.213.086.479.191.947.199l-.405.51zm4.642-2.456l2.689 3.382h-5.377l2.688-3.382zm-4.878.597l.19-3.437.19 3.437h-.381zm-.972-1.253l-.067 1.205-.23.016-.472-.594c.277-.159.536-.371.769-.627zm-3.091.674l-.432.544c-.152.015-.278.042-.387.073l-.074-1.336c.266.303.567.547.893.718zm-2.243.578l.19-3.437.19 3.437h-.381zm-6.115-3.437l.19 3.437h-.381l.19-3.437zm3.973 3.587c-.184.074-.316.127-.625.127s-.441-.053-.624-.127c-.223-.09-.499-.201-1.004-.201-.193 0-.353.017-.488.042l-.07-1.259c.548.61 1.238.974 1.987.974.754 0 1.447-.369 1.997-.985l-.068 1.232-.101-.003c-.505 0-.782.111-1.003.201zm-2.792 9.046h3.837l.124-.008v8.788l-3.961 1.006v-9.785zm8.269 4.394c-.425 0-.771.346-.791.78v2.712l-2.478.63v-11.073h6.721v9.366l-2.661.676v-2.311c-.019-.433-.366-.78-.791-.78zm6.199-5.319h1.039v2.311h-1.039v-2.311zm2.107 0h1.04v2.311h-1.04v-2.311zm-2.107-2.719h1.039v2.311h-1.039v-2.311zm2.107 0h1.04v2.311h-1.04v-2.311zm-8.589 3.35c-.019-.433-.367-.779-.791-.779-.425 0-.772.346-.791.779v1.95h1.583v-1.95zm2.104 0c-.019-.433-.367-.779-.791-.779-.425 0-.772.346-.791.779v1.95h1.582v-1.95zm-3.673 2.602h3.702v1.074h-3.702v-1.074zm-5.969.687h1.039v2.311h-1.039v-2.311zm1.359 0h1.039v2.311h-1.039v-2.311zm-1.359 2.628h1.039v2.311h-1.039v-2.311zm1.359 0h1.039v2.311h-1.039v-2.311zm.526-3.967c0-.406-.318-.734-.711-.734-.393 0-.711.328-.711.734 0 .405.318.734.711.734.393 0 .711-.329.711-.734zm10.059-18.885h.085l-.023.251c0 .731.575 1.325 1.282 1.325h5.877c.311 0 .613-.118.847-.331.276-.252.435-.614.435-.994s-.159-.741-.435-.993c-.234-.214-.536-.332-.847-.332h-2.436l.004-.08c0-.331-.138-.646-.378-.865-.204-.187-.467-.289-.739-.289h-3.672c-.616 0-1.118.518-1.118 1.154 0 .636.501 1.154 1.118 1.154zm0-1.235h3.672l.051.021.027.06-.028.061-.05.02h-.003c-.287 0-.52.241-.52.537 0 .297.233.537.52.537h3.551c.075 0 .128.034.16.064.031.027.083.09.083.187 0 .098-.052.16-.083.189-.032.028-.085.063-.16.063h-5.877c-.134 0-.243-.113-.243-.252s.109-.251.243-.251c.287 0 .52-.24.52-.537h.002c0-.296-.233-.537-.52-.537h-1.346c-.043 0-.079-.036-.079-.08 0-.044.036-.081.079-.081zm6.782 5.743c-.221.191-.249.529-.064.757.184.227.513.256.732.066.159-.137.359-.203.565-.184.141.013.273.064.385.148l.007.015c.086.189.27.311.471.311h.059c.203 0 .386-.121.471-.311l.007-.015c.112-.084.244-.135.386-.148.205-.018.406.047.564.184.22.19.548.161.733-.066.184-.227.156-.566-.064-.757-.371-.322-.842-.474-1.323-.431-.289.026-.564.121-.803.276-.239-.154-.513-.249-.803-.276-.482-.043-.952.11-1.322.431" fill="#3A434E"/></g></g></svg>