<svg width="32" height="232" viewBox="0 0 32 232" xmlns="http://www.w3.org/2000/svg"><title>serbia</title><desc>Created with Sketch.</desc><g fill="none"><path d="M30.99 147.977h-1.815v-9.434l.026-.156v-3.182c0-.168-.08-.317-.2-.406l.015-.12c0-1.427-1.12-2.62-2.603-2.883l-.13-.086v-1.546c0-.142-.058-.27-.15-.36l.005-.044c0-1.31-1.162-2.378-2.59-2.378-.8 0-1.514.334-1.99.857-.51-2.072-2.586-3.66-5.124-3.836v-.765h.08c.26 0 .47-.223.47-.497s-.21-.496-.47-.496h-.08v-.15c0-.274-.21-.496-.47-.496s-.468.223-.468.497v.15h-.08c-.258 0-.468.222-.468.496s.21.496.47.496h.078v.764c-2.577.18-4.674 1.813-5.145 3.93-.473-.577-1.225-.952-2.07-.952-1.43 0-2.59 1.067-2.59 2.378l.025.154c-.04.073-.066.158-.066.25v1.547l-.092.056c-1.583.185-2.81 1.42-2.81 2.914l.05.22c-.064.084-.103.19-.103.305v12.771H.94c-.518 0-.938.445-.938.993s.42.992.938.992h30.053c.518 0 .938-.445.938-.993s-.42-.994-.937-.994zM3.685 134.68c0-.82.6-1.524 1.448-1.81v1.84h-1.45l.002-.03zm2.948-5.012c.057-.72.773-1.292 1.646-1.292.874 0 1.59.572 1.647 1.292l.006.092H6.628l.006-.092zm16.915-1.292c.874 0 1.59.572 1.647 1.292l.006.092h-3.304l.006-.092c.057-.72.773-1.292 1.646-1.292zm4.53 6.305l.002.03h-1.284v-1.775c.757.317 1.28.98 1.28 1.747zm-21.492-2.883v-1.136h3.51v1.46h-1.49v-.728c-.012-.257-.212-.46-.458-.46-.245 0-.445.203-.457.46v.727H6.584v-.323zm20.21 3.905h1.467v2.055h-1.466v-2.055zm-13.03 12.275v-1.804c.012-.197.167-.35.355-.35.09 0 .174.036.237.096v2.44h-.593v-.382zm4.398 0v.382h-.593v-2.442c.063-.06.146-.096.237-.096.188 0 .343.153.356.35v1.804zm-1.53-2.355v2.737h-1.337v-3.21c.02-.372.313-.664.668-.664.355 0 .647.29.668.665v.472zm-4.18-6.372h3.073l-3.072 1.573v-1.573zm7.022 0v1.584l-3.204-1.584h3.205zm0-1.493v.5h-7.02v-1.868h7.02v1.367zm-8.125.537H9.236c.036-.09.094-.176.17-.252.128-.128.305-.23.51-.285.118-.033.245-.052.377-.052s.26.02.377.052c.325.09.582.29.68.537zm-2.187.993h2.352v8.69H9.163v-8.69zm11.25 2.328v-2.328h2.352v8.69h-2.352v-6.363zm2.075-3.56c.07.07.124.153.158.24h-2.113c.098-.247.355-.448.68-.538.118-.033.245-.052.377-.052s.26.02.377.052c.21.058.393.163.522.296zm-9.9-2.66v-.02c0-.685.323-1.31.853-1.785.215-.192.462-.36.736-.496.52-.26 1.132-.41 1.788-.41.657 0 1.27.15 1.788.41.274.137.52.304.735.496.53.476.852 1.1.852 1.785v.02h-6.754zm12.755-3.624v.35h-1.34v-.728c-.01-.257-.21-.46-.456-.46-.245 0-.445.203-.457.46v.727h-1.258v-1.46h3.51v1.11zm-21.71 3.932h1.5v2.055h-1.5v-2.055zm3.376 3.182v-5.294h5.183c-.345.53-.542 1.138-.542 1.785l.024.148c-.097.09-.16.222-.16.37v1.18c-.34-.227-.763-.36-1.22-.36-.32 0-.62.064-.888.178-.17.074-.33.168-.47.28-.192.15-.352.335-.468.54l-.025.047-.064.134c-.066.157-.107.324-.12.497l-.005.123.008.085-.034.155-.005.04v9.187H7.01v-9.093zm12.465 9.59h-.373v-2.339c-.033-.732-.6-1.306-1.295-1.306l-.27.03c-.146-.784-.796-1.366-1.574-1.366s-1.428.583-1.575 1.366l-.268-.03c-.693 0-1.262.574-1.294 1.306V148.472h-.373v-6.548l3.445-1.764 3.576 1.77v6.542zm4.23-.497v-9.187l-.005-.04c-.007-.085-.03-.164-.073-.23v-.01l-.004-.122c-.013-.173-.054-.34-.12-.496l-.063-.134-.013-.026c-.115-.21-.275-.398-.47-.553-.14-.113-.297-.208-.468-.282-.272-.118-.577-.185-.9-.185-.437 0-.843.123-1.175.33v-1.15c0-.147-.062-.28-.16-.37l.024-.147c0-.647-.198-1.256-.543-1.785h5.183v14.388h-1.216zM11.05 129.73h9.83v1.874h-9.83v-1.873zm15.747 9.154h1.44v9.093h-1.44v-9.093zM15.965 125.38c2.425 0 4.433 1.467 4.736 3.358h-9.47c.303-1.892 2.31-3.358 4.735-3.358zM3.633 138.884h1.5v9.093h-1.5v-9.093zm17.957 1.34c-.24 0-.437.2-.448.453v1.463h.895v-1.463c-.01-.252-.207-.452-.448-.452zm-11.27 0c-.24 0-.437.2-.448.453v1.463h.895v-1.463c-.01-.252-.207-.452-.448-.452zm6.152 1.67l-.06-.07c-.123-.117-.29-.184-.457-.184-.13 0-.258.04-.366.115l-.04.03c-.1.086-.167.2-.202.325-.057.204-.025.436.104.618l.038.047c.123.135.298.213.478.213.142 0 .28-.05.39-.14.127-.1.212-.244.24-.412.017-.11.008-.22-.024-.326l-.104-.216zm-.798.375l.07-.16.05-.053c.052-.04.113-.06.176-.06.094 0 .16.048.197.09l-.024.024-.19.196-.104-.135.09.147-.218.172c-.043-.062-.06-.14-.046-.22zm.107.29l.18-.21.146.235c-.1.07-.234.062-.325-.026zm.372-.012l-.076-.095.045.072-.146-.19.048-.056.182-.145c.103.145.05.32-.052.414z" fill="#206FAC"/><path d="M30.99 107.977h-1.815v-9.434l.026-.156v-3.182c0-.168-.08-.317-.2-.406l.015-.12c0-1.427-1.12-2.62-2.603-2.883l-.13-.086v-1.546c0-.142-.058-.27-.15-.36l.005-.044c0-1.31-1.162-2.378-2.59-2.378-.8 0-1.514.334-1.99.857-.51-2.072-2.586-3.66-5.124-3.836v-.765h.08c.26 0 .47-.223.47-.497s-.21-.496-.47-.496h-.08v-.15c0-.274-.21-.496-.47-.496s-.468.223-.468.497v.15h-.08c-.258 0-.468.222-.468.496s.21.496.47.496h.078v.764c-2.577.18-4.674 1.813-5.145 3.93-.473-.577-1.225-.952-2.07-.952-1.43 0-2.59 1.067-2.59 2.378l.025.154c-.04.073-.066.158-.066.25v1.547l-.092.056c-1.583.185-2.81 1.42-2.81 2.914l.05.22c-.064.084-.103.19-.103.305v12.771H.94c-.518 0-.938.445-.938.993s.42.992.938.992h30.053c.518 0 .938-.445.938-.993s-.42-.994-.937-.994zM3.685 94.68c0-.82.6-1.524 1.448-1.81v1.84h-1.45l.002-.03zm2.948-5.012c.057-.72.773-1.292 1.646-1.292.874 0 1.59.572 1.647 1.292l.006.092H6.628l.006-.092zm16.915-1.292c.874 0 1.59.572 1.647 1.292l.006.092h-3.304l.006-.092c.057-.72.773-1.292 1.646-1.292zm4.53 6.305l.002.03h-1.284v-1.775c.757.317 1.28.98 1.28 1.747zM6.584 91.798V90.66h3.51v1.46h-1.49v-.728c-.012-.257-.212-.46-.458-.46-.245 0-.445.203-.457.46v.727H6.584v-.323zm20.21 3.905h1.467v2.055h-1.466v-2.055zm-13.03 12.275v-1.804c.012-.197.167-.35.355-.35.09 0 .174.036.237.096v2.44h-.593v-.382zm4.398 0v.382h-.593v-2.442c.063-.06.146-.096.237-.096.188 0 .343.153.356.35v1.804zm-1.53-2.355v2.737h-1.337v-3.21c.02-.372.313-.664.668-.664.355 0 .647.29.668.665v.472zm-4.18-6.372h3.073l-3.072 1.573V99.25zm7.022 0v1.584L16.27 99.25h3.205zm0-1.493v.5h-7.02V96.39h7.02v1.367zm-8.125.537H9.236c.036-.09.094-.176.17-.252.128-.128.305-.23.51-.285.118-.033.245-.052.377-.052s.26.02.377.052c.325.09.582.29.68.537zm-2.187.993h2.352v8.69H9.163v-8.69zm11.25 2.328v-2.328h2.352v8.69h-2.352v-6.363zm2.075-3.56c.07.07.124.153.158.24h-2.113c.098-.247.355-.448.68-.538.118-.033.245-.052.377-.052s.26.02.377.052c.21.058.393.163.522.296zm-9.9-2.66v-.02c0-.685.323-1.31.853-1.785.215-.192.462-.36.736-.496.52-.26 1.132-.41 1.788-.41.657 0 1.27.15 1.788.41.274.137.52.304.735.496.53.476.852 1.1.852 1.785v.02h-6.754zm12.755-3.624v.35h-1.34v-.728c-.01-.257-.21-.46-.456-.46-.245 0-.445.203-.457.46v.727h-1.258v-1.46h3.51v1.11zm-21.71 3.932h1.5v2.055h-1.5v-2.055zm3.376 3.182V93.59h5.183c-.345.53-.542 1.138-.542 1.785l.024.148c-.097.09-.16.222-.16.37v1.18c-.34-.227-.763-.36-1.22-.36-.32 0-.62.064-.888.178-.17.074-.33.168-.47.28-.192.15-.352.335-.468.54l-.025.047-.064.134c-.066.157-.107.324-.12.497l-.005.123.008.085-.034.155-.005.04v9.187H7.01v-9.093zm12.465 9.59h-.373v-2.339c-.033-.732-.6-1.306-1.295-1.306l-.27.03c-.146-.784-.796-1.366-1.574-1.366s-1.428.583-1.575 1.366l-.268-.03c-.693 0-1.262.574-1.294 1.306V108.472h-.373v-6.548l3.445-1.764 3.576 1.77v6.542zm4.23-.497V98.79l-.005-.04c-.007-.085-.03-.164-.073-.23v-.01l-.004-.122c-.013-.173-.054-.34-.12-.496l-.063-.134-.013-.026c-.115-.21-.275-.398-.47-.553-.14-.113-.297-.208-.468-.282-.272-.118-.577-.185-.9-.185-.437 0-.843.123-1.175.33v-1.15c0-.147-.062-.28-.16-.37l.024-.147c0-.647-.198-1.256-.543-1.785h5.183v14.388h-1.216zM11.05 89.73h9.83v1.874h-9.83V89.73zm15.747 9.154h1.44v9.093h-1.44v-9.093zM15.965 85.38c2.425 0 4.433 1.467 4.736 3.358h-9.47c.303-1.892 2.31-3.358 4.735-3.358zM3.633 98.884h1.5v9.093h-1.5v-9.093zm17.957 1.34c-.24 0-.437.2-.448.453v1.463h.895v-1.463c-.01-.252-.207-.452-.448-.452zm-11.27 0c-.24 0-.437.2-.448.453v1.463h.895v-1.463c-.01-.252-.207-.452-.448-.452zm6.152 1.67l-.06-.07c-.123-.117-.29-.184-.457-.184-.13 0-.258.04-.366.115l-.04.03c-.1.086-.167.2-.202.325-.057.204-.025.436.104.618l.038.047c.123.135.298.213.478.213.142 0 .28-.05.39-.14.127-.1.212-.244.24-.412.017-.11.008-.22-.024-.326l-.104-.216zm-.798.375l.07-.16.05-.053c.052-.04.113-.06.176-.06.094 0 .16.048.197.09l-.024.024-.19.196-.104-.135.09.147-.218.172c-.043-.062-.06-.14-.046-.22zm.107.29l.18-.21.146.235c-.1.07-.234.062-.325-.026zm.372-.012l-.076-.095.045.072-.146-.19.048-.056.182-.145c.103.145.05.32-.052.414z" fill="#fff"/><path d="M30.99 67.977h-1.815v-9.434l.026-.156v-3.182c0-.168-.08-.317-.2-.406l.015-.12c0-1.427-1.12-2.62-2.603-2.883l-.13-.086v-1.546c0-.142-.058-.27-.15-.36l.005-.044c0-1.31-1.162-2.378-2.59-2.378-.8 0-1.514.334-1.99.857-.51-2.072-2.586-3.66-5.124-3.836v-.765h.08c.26 0 .47-.223.47-.497s-.21-.496-.47-.496h-.08v-.15c0-.274-.21-.496-.47-.496s-.468.223-.468.497v.15h-.08c-.258 0-.468.222-.468.496s.21.496.47.496h.078v.764c-2.577.18-4.674 1.813-5.145 3.93-.473-.577-1.225-.952-2.07-.952-1.43 0-2.59 1.067-2.59 2.378l.025.154c-.04.073-.066.158-.066.25v1.547l-.092.056c-1.583.185-2.81 1.42-2.81 2.914l.05.22c-.064.084-.103.19-.103.305v12.771H.94c-.518 0-.938.445-.938.993s.42.992.938.992h30.053c.518 0 .938-.445.938-.993s-.42-.994-.937-.994zM3.685 54.68c0-.82.6-1.524 1.448-1.81v1.84h-1.45l.002-.03zm2.948-5.012c.057-.72.773-1.292 1.646-1.292.874 0 1.59.572 1.647 1.292l.006.092H6.628l.006-.092zm16.915-1.292c.874 0 1.59.572 1.647 1.292l.006.092h-3.304l.006-.092c.057-.72.773-1.292 1.646-1.292zm4.53 6.305l.002.03h-1.284v-1.775c.757.317 1.28.98 1.28 1.747zM6.584 51.798V50.66h3.51v1.46h-1.49v-.728c-.012-.257-.212-.46-.458-.46-.245 0-.445.203-.457.46v.727H6.584v-.323zm20.21 3.905h1.467v2.055h-1.466v-2.055zm-13.03 12.275v-1.804c.012-.197.167-.35.355-.35.09 0 .174.036.237.096v2.44h-.593v-.382zm4.398 0v.382h-.593v-2.442c.063-.06.146-.096.237-.096.188 0 .343.153.356.35v1.804zm-1.53-2.355v2.737h-1.337v-3.21c.02-.372.313-.664.668-.664.355 0 .647.29.668.665v.472zm-4.18-6.372h3.073l-3.072 1.573V59.25zm7.022 0v1.584L16.27 59.25h3.205zm0-1.493v.5h-7.02V56.39h7.02v1.367zm-8.125.537H9.236c.036-.09.094-.176.17-.252.128-.128.305-.23.51-.285.118-.033.245-.052.377-.052s.26.02.377.052c.325.09.582.29.68.537zm-2.187.993h2.352v8.69H9.163v-8.69zm11.25 2.328v-2.328h2.352v8.69h-2.352v-6.363zm2.075-3.56c.07.07.124.153.158.24h-2.113c.098-.247.355-.448.68-.538.118-.033.245-.052.377-.052s.26.02.377.052c.21.058.393.163.522.296zm-9.9-2.66v-.02c0-.685.323-1.31.853-1.785.215-.192.462-.36.736-.496.52-.26 1.132-.41 1.788-.41.657 0 1.27.15 1.788.41.274.137.52.304.735.496.53.476.852 1.1.852 1.785v.02h-6.754zm12.755-3.624v.35h-1.34v-.728c-.01-.257-.21-.46-.456-.46-.245 0-.445.203-.457.46v.727h-1.258v-1.46h3.51v1.11zm-21.71 3.932h1.5v2.055h-1.5v-2.055zm3.376 3.182V53.59h5.183c-.345.53-.542 1.138-.542 1.785l.024.148c-.097.09-.16.222-.16.37v1.18c-.34-.227-.763-.36-1.22-.36-.32 0-.62.064-.888.178-.17.074-.33.168-.47.28-.192.15-.352.335-.468.54l-.025.047-.064.134c-.066.157-.107.324-.12.497l-.005.123.008.085-.034.155-.005.04v9.187H7.01v-9.093zm12.465 9.59h-.373v-2.339c-.033-.732-.6-1.306-1.295-1.306l-.27.03c-.146-.784-.796-1.366-1.574-1.366s-1.428.583-1.575 1.366l-.268-.03c-.693 0-1.262.574-1.294 1.306V68.472h-.373v-6.548l3.445-1.764 3.576 1.77v6.542zm4.23-.497V58.79l-.005-.04c-.007-.085-.03-.164-.073-.23v-.01l-.004-.122c-.013-.173-.054-.34-.12-.496l-.063-.134-.013-.026c-.115-.21-.275-.398-.47-.553-.14-.113-.297-.208-.468-.282-.272-.118-.577-.185-.9-.185-.437 0-.843.123-1.175.33v-1.15c0-.147-.062-.28-.16-.37l.024-.147c0-.647-.198-1.256-.543-1.785h5.183V67.98h-1.216zM11.05 49.73h9.83v1.874h-9.83V49.73zm15.747 9.154h1.44v9.093h-1.44v-9.093zM15.965 45.38c2.425 0 4.433 1.467 4.736 3.358h-9.47c.303-1.892 2.31-3.358 4.735-3.358zM3.633 58.884h1.5v9.093h-1.5v-9.093zm17.957 1.34c-.24 0-.437.2-.448.453v1.463h.895v-1.463c-.01-.252-.207-.452-.448-.452zm-11.27 0c-.24 0-.437.2-.448.453v1.463h.895v-1.463c-.01-.252-.207-.452-.448-.452zm6.152 1.67l-.06-.07c-.123-.117-.29-.184-.457-.184-.13 0-.258.04-.366.115l-.04.03c-.1.086-.167.2-.202.325-.057.204-.025.436.104.618l.038.047c.123.135.298.213.478.213.142 0 .28-.05.39-.14.127-.1.212-.244.24-.412.017-.11.008-.22-.024-.326l-.104-.216zm-.798.375l.07-.16.05-.053c.052-.04.113-.06.176-.06.094 0 .16.048.197.09l-.024.024-.19.196-.104-.135.09.147-.218.172c-.043-.062-.06-.14-.046-.22zm.107.29l.18-.21.146.235c-.1.07-.234.062-.325-.026zm.372-.012l-.076-.095.045.072-.146-.19.048-.056.182-.145c.103.145.05.32-.052.414z" fill="#67737B"/><path d="M30.99 27.977h-1.815v-9.434l.026-.156v-3.182c0-.168-.08-.317-.2-.406l.015-.12c0-1.427-1.12-2.62-2.603-2.883l-.13-.086v-1.546c0-.142-.058-.27-.15-.36l.005-.044c0-1.31-1.162-2.378-2.59-2.378-.8 0-1.514.334-1.99.857-.51-2.072-2.586-3.66-5.124-3.836V3.64h.08c.26 0 .47-.223.47-.497s-.21-.496-.47-.496h-.08v-.15c0-.274-.21-.496-.47-.496s-.468.223-.468.497v.15h-.08c-.258 0-.468.222-.468.496s.21.496.47.496h.078v.764c-2.577.18-4.674 1.813-5.145 3.93-.473-.577-1.225-.952-2.07-.952-1.43 0-2.59 1.067-2.59 2.378l.025.154c-.04.073-.066.158-.066.25v1.547l-.092.056c-1.583.185-2.81 1.42-2.81 2.914l.05.22c-.064.084-.103.19-.103.305v12.771H.94c-.518 0-.938.445-.938.993s.42.992.938.992h30.053c.518 0 .938-.445.938-.993s-.42-.994-.937-.994zM3.685 14.68c0-.82.6-1.524 1.448-1.81v1.84h-1.45l.002-.03zM6.632 9.67c.057-.72.773-1.292 1.646-1.292.874 0 1.59.572 1.647 1.292l.006.092H6.628l.006-.092zm16.915-1.292c.874 0 1.59.572 1.647 1.292l.006.092h-3.304l.006-.092c.057-.72.773-1.292 1.646-1.292zm4.53 6.305l.002.03h-1.284v-1.775c.757.317 1.28.98 1.28 1.747zM6.584 11.798V10.66h3.51v1.46h-1.49v-.728c-.012-.257-.212-.46-.458-.46-.245 0-.445.203-.457.46v.727H6.584v-.323zm20.21 3.905h1.467v2.055h-1.466v-2.055zm-13.03 12.275v-1.804c.012-.197.167-.35.355-.35.09 0 .174.036.237.096v2.44h-.593v-.382zm4.398 0v.382h-.593v-2.442c.063-.06.146-.096.237-.096.188 0 .343.153.356.35v1.804zm-1.53-2.355v2.737h-1.337v-3.21c.02-.372.313-.664.668-.664.355 0 .647.29.668.665v.472zm-4.18-6.372h3.073l-3.072 1.573V19.25zm7.022 0v1.584L16.27 19.25h3.205zm0-1.493v.5h-7.02V16.39h7.02v1.367zm-8.125.537H9.236c.036-.09.094-.176.17-.252.128-.128.305-.23.51-.285.118-.033.245-.052.377-.052s.26.02.377.052c.325.09.582.29.68.537zm-2.187.993h2.352v8.69H9.163v-8.69zm11.25 2.328v-2.328h2.352v8.69h-2.352v-6.363zm2.075-3.56c.07.07.124.153.158.24h-2.113c.098-.247.355-.448.68-.538.118-.033.245-.052.377-.052s.26.02.377.052c.21.058.393.163.522.296zm-9.9-2.66v-.02c0-.685.323-1.31.853-1.785.215-.192.462-.36.736-.496.52-.26 1.132-.41 1.788-.41.657 0 1.27.15 1.788.41.274.137.52.304.735.496.53.476.852 1.1.852 1.785v.02h-6.754zm12.755-3.624v.35h-1.34v-.728c-.01-.257-.21-.46-.456-.46-.245 0-.445.203-.457.46v.727h-1.258v-1.46h3.51v1.11zm-21.71 3.932h1.5v2.055h-1.5v-2.055zm3.376 3.182V13.59h5.183c-.345.53-.542 1.138-.542 1.785l.024.148c-.097.09-.16.222-.16.37v1.18c-.34-.227-.763-.36-1.22-.36-.32 0-.62.064-.888.178-.17.074-.33.168-.47.28-.192.15-.352.335-.468.54l-.025.047-.064.134c-.066.157-.107.324-.12.497l-.005.123.008.085-.034.155-.005.04v9.187H7.01v-9.093zm12.465 9.59h-.373v-2.339c-.033-.732-.6-1.306-1.295-1.306l-.27.03c-.146-.784-.796-1.366-1.574-1.366s-1.428.583-1.575 1.366l-.268-.03c-.693 0-1.262.574-1.294 1.306V28.472h-.373v-6.548l3.445-1.764 3.576 1.77v6.542zm4.23-.497V18.79l-.005-.04c-.007-.085-.03-.164-.073-.23v-.01l-.004-.122c-.013-.173-.054-.34-.12-.496l-.063-.134-.013-.026c-.115-.21-.275-.398-.47-.553-.14-.113-.297-.208-.468-.282-.272-.118-.577-.185-.9-.185-.437 0-.843.123-1.175.33v-1.15c0-.147-.062-.28-.16-.37l.024-.147c0-.647-.198-1.256-.543-1.785h5.183V27.98h-1.216zM11.05 9.73h9.83v1.874h-9.83V9.73zm15.747 9.154h1.44v9.093h-1.44v-9.093zM15.965 5.38c2.425 0 4.433 1.467 4.736 3.358h-9.47c.303-1.892 2.31-3.358 4.735-3.358zM3.633 18.884h1.5v9.093h-1.5v-9.093zm17.957 1.34c-.24 0-.437.2-.448.453v1.463h.895v-1.463c-.01-.252-.207-.452-.448-.452zm-11.27 0c-.24 0-.437.2-.448.453v1.463h.895v-1.463c-.01-.252-.207-.452-.448-.452zm6.152 1.67l-.06-.07c-.123-.117-.29-.184-.457-.184-.13 0-.258.04-.366.115l-.04.03c-.1.086-.167.2-.202.325-.057.204-.025.436.104.618l.038.047c.123.135.298.213.478.213.142 0 .28-.05.39-.14.127-.1.212-.244.24-.412.017-.11.008-.22-.024-.326l-.104-.216zm-.798.375l.07-.16.05-.053c.052-.04.113-.06.176-.06.094 0 .16.048.197.09l-.024.024-.19.196-.104-.135.09.147-.218.172c-.043-.062-.06-.14-.046-.22zm.107.29l.18-.21.146.235c-.1.07-.234.062-.325-.026zm.372-.012l-.076-.095.045.072-.146-.19.048-.056.182-.145c.103.145.05.32-.052.414z" fill="#3A434E"/></g></svg>