<svg width="32" height="232" viewBox="0 0 32 232" xmlns="http://www.w3.org/2000/svg"><desc>Created with Sketch.</desc><g fill="none"><path d="M30.99 147.977h-1.815v-9.434l.026-.156v-3.182c0-.168-.08-.317-.2-.406l.018-.12c0-1.43-1.12-2.62-2.603-2.886l-.13-.086v-1.547c0-.14-.058-.27-.15-.36l.005-.043c0-1.31-1.163-2.38-2.59-2.38-.8 0-1.515.335-1.99.858-.51-2.073-2.587-3.66-5.125-3.837v-.764h.08c.26 0 .47-.223.47-.497s-.21-.496-.47-.496h-.08v-.15c0-.273-.21-.495-.47-.495s-.468.222-.468.496v.15h-.08c-.258 0-.468.223-.468.497s.21.496.47.496h.076v.764c-2.577.18-4.674 1.813-5.145 3.93-.47-.577-1.223-.952-2.07-.952-1.43 0-2.59 1.067-2.59 2.378l.027.154c-.04.073-.066.158-.066.25v1.547l-.09.055c-1.584.184-2.81 1.42-2.81 2.913l.05.22c-.065.083-.104.19-.104.304v12.77H.94c-.518 0-.938.446-.938.994s.42.993.938.993h30.053c.518 0 .938-.445.938-.993s-.42-.994-.934-.994zM3.685 134.68c0-.82.6-1.524 1.448-1.81v1.84h-1.45l.002-.03zm2.948-5.012c.057-.72.773-1.292 1.646-1.292.87 0 1.59.572 1.644 1.292l.006.092h-3.3l.006-.092zm16.915-1.292c.874 0 1.59.572 1.647 1.292l.006.092h-3.3l.006-.092c.057-.72.773-1.292 1.646-1.292zm4.53 6.305l.002.03h-1.284v-1.772c.757.317 1.28.98 1.28 1.747zM6.586 131.8v-1.136h3.51v1.46h-1.49v-.728c-.012-.257-.212-.46-.458-.46-.245 0-.445.203-.457.46v.727H6.587v-.322zm20.21 3.905h1.467v2.055h-1.466v-2.055zm-13.03 12.275v-1.804c.012-.197.167-.35.355-.35.09 0 .177.036.24.096v2.44h-.593v-.382zm4.398 0v.382h-.593v-2.442c.066-.06.15-.096.24-.096.188 0 .343.153.356.35v1.804zm-1.53-2.355v2.737h-1.337v-3.21c.02-.372.313-.664.668-.664.355 0 .647.29.668.665v.473zm-4.18-6.372h3.073l-3.072 1.574v-1.573zm7.022 0v1.585l-3.204-1.584h3.205zm0-1.492v.5h-7.02v-1.866h7.02v1.367zm-8.125.54H9.24c.036-.09.094-.177.17-.253.128-.128.305-.23.51-.285.118-.032.245-.05.377-.05s.26.02.377.05c.326.09.583.29.68.538zm-2.184.992h2.352v8.69H9.163v-8.69zm11.25 2.33v-2.33h2.352v8.69h-2.352v-6.362zm2.075-3.56c.07.07.124.152.158.24h-2.113c.098-.248.355-.45.68-.54.118-.032.245-.05.377-.05s.26.02.38.05c.21.06.392.164.52.297zm-9.9-2.66v-.02c0-.686.323-1.31.853-1.786.215-.19.462-.36.736-.495.52-.26 1.13-.41 1.787-.41s1.27.15 1.788.41c.274.137.52.304.735.496.53.477.85 1.1.85 1.786v.02h-6.754zm12.755-3.625v.35h-1.34v-.728c-.01-.258-.21-.46-.456-.46-.246 0-.446.202-.458.46v.726h-1.256v-1.46h3.51v1.11zm-21.71 3.932h1.5v2.054h-1.5v-2.056zm3.376 3.18v-5.294h5.184c-.345.53-.542 1.138-.542 1.785l.026.15c-.097.09-.16.22-.16.37v1.18c-.34-.228-.763-.36-1.22-.36-.32 0-.62.063-.888.177-.17.074-.33.168-.47.28-.192.15-.352.335-.468.54l-.026.047-.064.134c-.066.157-.107.324-.12.497l-.005.124.008.084-.034.154-.006.04v9.187H7.01v-9.092zm12.466 9.59h-.373v-2.34c-.033-.73-.6-1.305-1.295-1.305l-.27.03c-.146-.783-.796-1.365-1.574-1.365s-1.428.582-1.575 1.365l-.27-.03c-.692 0-1.26.575-1.293 1.307v2.335h-.373v-6.548l3.445-1.766 3.575 1.77v6.542zm4.23-.497v-9.188l-.005-.04c-.006-.085-.03-.164-.072-.23v-.01l-.004-.122c-.013-.173-.054-.34-.12-.496l-.063-.134-.012-.026c-.115-.21-.275-.398-.47-.553-.14-.112-.297-.207-.468-.28-.274-.12-.58-.186-.9-.186-.44 0-.845.123-1.177.33v-1.15c0-.147-.062-.28-.16-.37l.024-.147c0-.646-.198-1.255-.543-1.784h5.183v14.388H23.7zM11.05 129.73h9.83v1.874h-9.83v-1.873zm15.747 9.154h1.44v9.093h-1.44v-9.093zM15.965 125.38c2.425 0 4.433 1.467 4.736 3.358h-9.47c.306-1.892 2.31-3.358 4.738-3.358zM3.633 138.884h1.5v9.093h-1.5v-9.093zm17.957 1.34c-.24 0-.437.2-.448.453v1.463h.895v-1.463c-.01-.252-.207-.452-.448-.452zm-11.27 0c-.24 0-.437.2-.448.453v1.463h.895v-1.463c-.01-.252-.207-.452-.448-.452zm6.152 1.67l-.06-.07c-.123-.117-.29-.184-.457-.184-.13 0-.258.04-.366.115l-.04.03c-.1.086-.17.2-.205.325-.057.204-.025.436.104.618l.04.047c.12.135.296.213.476.213.142 0 .28-.05.39-.14.127-.1.212-.244.24-.412.017-.11.008-.22-.024-.326l-.104-.216zm-.798.375l.07-.16.05-.056c.052-.04.113-.06.176-.06.094 0 .16.048.197.09l-.024.024-.19.195-.104-.135.09.148-.22.172c-.044-.062-.06-.14-.047-.22zm.107.29l.18-.21.15.232c-.1.07-.235.062-.326-.026zm.375-.015l-.076-.095.044.073-.146-.19.048-.056.182-.145c.103.145.05.32-.052.414z" fill="#206FAC"/><path d="M30.99 107.977h-1.815v-9.434l.026-.156v-3.182c0-.168-.08-.317-.2-.406l.018-.12c0-1.43-1.12-2.62-2.603-2.886l-.13-.086V90.16c0-.14-.058-.27-.15-.36l.005-.043c0-1.31-1.163-2.38-2.59-2.38-.8 0-1.515.335-1.99.858-.51-2.073-2.587-3.66-5.125-3.837v-.764h.08c.26 0 .47-.223.47-.497s-.21-.496-.47-.496h-.08v-.15c0-.273-.21-.495-.47-.495s-.468.222-.468.496v.15h-.08c-.258 0-.468.223-.468.497s.21.496.47.496h.076v.764c-2.577.18-4.674 1.813-5.145 3.93-.47-.577-1.223-.952-2.07-.952-1.43 0-2.59 1.067-2.59 2.378l.027.154c-.04.073-.066.158-.066.25v1.547l-.09.055c-1.584.184-2.81 1.42-2.81 2.913l.05.22c-.065.083-.104.19-.104.304v12.77H.94c-.518 0-.938.446-.938.994s.42.993.938.993h30.053c.518 0 .938-.445.938-.993s-.42-.994-.934-.994zM3.685 94.68c0-.82.6-1.524 1.448-1.81v1.84h-1.45l.002-.03zm2.948-5.012c.057-.72.773-1.292 1.646-1.292.87 0 1.59.572 1.644 1.292l.006.092h-3.3l.006-.092zm16.915-1.292c.874 0 1.59.572 1.647 1.292l.006.092h-3.3l.006-.092c.057-.72.773-1.292 1.646-1.292zm4.53 6.305l.002.03h-1.284V92.94c.757.317 1.28.98 1.28 1.747zM6.584 91.8v-1.14h3.51v1.46h-1.49v-.728c-.012-.257-.212-.46-.458-.46-.245 0-.445.203-.457.46v.727H6.58v-.326zm20.21 3.905h1.467v2.055h-1.463v-2.055zm-13.03 12.275v-1.804c.012-.197.167-.35.355-.35.09 0 .17.036.234.096v2.44h-.593v-.382zm4.398 0v.382h-.593v-2.442c.06-.06.143-.096.234-.096.188 0 .343.153.356.35v1.804zm-1.53-2.355v2.737h-1.337v-3.21c.02-.372.313-.664.668-.664.355 0 .647.29.668.665v.473zm-4.18-6.372h3.073l-3.072 1.574V99.25zm7.022 0v1.585L16.27 99.25h3.205zm0-1.492v.5h-7.02v-1.87h7.02v1.368zm-8.125.54H9.233c.036-.09.094-.177.17-.253.128-.128.305-.23.51-.285.118-.032.245-.05.377-.05s.26.02.378.05c.324.09.58.29.68.538zm-2.19.992h2.352v8.69h-2.35v-8.69zm11.25 2.33v-2.33h2.352v8.69H20.41v-6.362zm2.075-3.56c.07.07.124.152.158.24H20.53c.1-.248.356-.45.68-.54.12-.032.246-.05.378-.05s.26.02.376.05c.21.06.393.164.522.297zm-9.9-2.66v-.02c0-.686.323-1.31.853-1.786.214-.19.46-.36.735-.495.52-.26 1.132-.41 1.788-.41.658 0 1.27.15 1.79.41.274.137.52.304.735.496.53.477.852 1.1.852 1.786v.02h-6.755zm12.755-3.625v.35H24V91.4c-.01-.258-.21-.46-.455-.46-.245 0-.445.202-.457.46v.726h-1.26v-1.46h3.51v1.11zm-21.71 3.93h1.5v2.055h-1.5v-2.056zm3.377 3.182v-5.3h5.183c-.344.53-.54 1.137-.54 1.784l.023.148c-.097.09-.16.222-.16.37v1.18c-.34-.227-.763-.36-1.22-.36-.32 0-.62.064-.888.178-.17.076-.33.17-.47.28-.192.15-.352.337-.468.54l-.025.05-.064.133c-.066.157-.107.324-.12.497l-.005.122.008.085-.03.155-.006.04v9.187H7.01v-9.096zm12.465 9.59H19.1v-2.34c-.033-.73-.6-1.307-1.295-1.307l-.27.03c-.146-.783-.796-1.365-1.574-1.365s-1.425.582-1.572 1.365l-.268-.03c-.694 0-1.263.575-1.295 1.307v2.335h-.373v-6.548l3.446-1.765 3.576 1.77v6.542zm4.23-.5v-9.19l-.005-.04c-.007-.084-.03-.163-.073-.23v-.01l-.004-.12c-.012-.174-.053-.34-.12-.497l-.062-.134-.013-.027c-.115-.21-.275-.398-.47-.553-.14-.113-.297-.21-.468-.282-.272-.118-.577-.185-.9-.185-.437 0-.843.123-1.175.33v-1.15c0-.147-.062-.28-.16-.37l.024-.147c0-.647-.198-1.256-.543-1.785h5.183v14.39H23.7zM11.05 89.73h9.83v1.874h-9.83V89.73zm15.747 9.154h1.44v9.093h-1.44v-9.093zM15.965 85.38c2.425 0 4.433 1.467 4.736 3.358h-9.47c.306-1.892 2.31-3.358 4.738-3.358zM3.633 98.884h1.5v9.093h-1.5v-9.093zm17.957 1.34c-.24 0-.437.2-.448.453v1.463h.895v-1.463c-.01-.252-.207-.452-.448-.452zm-11.27 0c-.24 0-.437.2-.448.453v1.463h.895v-1.463c-.01-.252-.207-.452-.448-.452zm6.152 1.67l-.06-.07c-.123-.117-.29-.184-.457-.184-.13 0-.258.04-.366.115l-.04.03c-.1.086-.17.2-.205.325-.057.204-.025.436.104.618l.04.047c.12.135.296.213.476.213.142 0 .28-.05.39-.14.127-.1.212-.244.24-.412.017-.11.008-.22-.024-.326l-.104-.216zm-.798.375l.07-.16.05-.056c.052-.04.113-.06.176-.06.094 0 .16.048.197.09l-.024.024-.19.195-.104-.135.09.148-.22.172c-.044-.062-.06-.14-.047-.22zm.107.29l.18-.21.15.232c-.1.07-.235.062-.326-.026zm.375-.015l-.076-.095.044.073-.146-.19.048-.056.182-.145c.103.145.05.32-.052.414z" fill="#fff"/><path d="M30.99 67.977h-1.815v-9.434l.026-.156v-3.182c0-.168-.08-.317-.2-.406l.018-.12c0-1.43-1.12-2.62-2.603-2.886l-.13-.086V50.16c0-.14-.058-.27-.15-.36l.005-.043c0-1.31-1.163-2.38-2.59-2.38-.8 0-1.515.335-1.99.858-.51-2.073-2.587-3.66-5.125-3.837v-.764h.08c.26 0 .47-.223.47-.497s-.21-.496-.47-.496h-.08v-.15c0-.273-.21-.495-.47-.495s-.468.222-.468.496v.15h-.08c-.258 0-.468.223-.468.497s.21.496.47.496h.076v.764c-2.577.18-4.674 1.813-5.145 3.93-.47-.577-1.223-.952-2.07-.952-1.43 0-2.59 1.067-2.59 2.378l.027.154c-.04.073-.066.158-.066.25v1.547l-.09.055c-1.584.184-2.81 1.42-2.81 2.913l.05.22c-.065.083-.104.19-.104.304v12.77H.94c-.518 0-.938.446-.938.994s.42.993.938.993h30.053c.518 0 .938-.445.938-.993s-.42-.994-.934-.994zM3.685 54.68c0-.82.6-1.524 1.448-1.81v1.84h-1.45l.002-.03zm2.948-5.012c.057-.72.773-1.292 1.646-1.292.87 0 1.59.572 1.644 1.292l.006.092h-3.3l.006-.092zm16.915-1.292c.874 0 1.59.572 1.647 1.292l.006.092h-3.3l.006-.092c.057-.72.773-1.292 1.646-1.292zm4.53 6.305l.002.03h-1.284V52.94c.757.317 1.28.98 1.28 1.747zM6.584 51.8v-1.14h3.51v1.46h-1.49v-.728c-.012-.257-.212-.46-.458-.46-.245 0-.445.203-.457.46v.727H6.58v-.326zm20.21 3.905h1.467v2.055h-1.463v-2.055zM13.764 67.98v-1.804c.012-.197.167-.35.355-.35.09 0 .17.036.234.096v2.44h-.593v-.382zm4.398 0v.382h-.593V65.92c.06-.06.143-.096.234-.096.188 0 .343.153.356.35v1.804zm-1.53-2.355v2.737h-1.337v-3.21c.02-.372.313-.664.668-.664.355 0 .647.29.668.665v.473zm-4.18-6.372h3.073l-3.072 1.574V59.25zm7.022 0v1.585L16.27 59.25h3.205zm0-1.492v.5h-7.02v-1.87h7.02v1.368zm-8.125.54H9.233c.036-.09.094-.177.17-.253.128-.128.305-.23.51-.285.118-.032.245-.05.377-.05s.26.02.378.05c.324.09.58.29.68.538zm-2.19.992h2.352v8.69h-2.35v-8.69zm11.25 2.33v-2.33h2.352v8.69H20.41V61.62zm2.075-3.56c.07.07.124.152.158.24H20.53c.1-.248.356-.45.68-.54.12-.032.246-.05.378-.05s.26.02.376.05c.21.06.393.164.522.297zm-9.9-2.66v-.02c0-.686.323-1.31.853-1.786.214-.19.46-.36.735-.495.52-.26 1.132-.41 1.788-.41.658 0 1.27.15 1.79.41.274.137.52.304.735.496.53.477.852 1.1.852 1.786v.02h-6.755zm12.755-3.625v.35H24V51.4c-.01-.258-.21-.46-.455-.46-.245 0-.445.202-.457.46v.726h-1.26v-1.46h3.51v1.11zm-21.71 3.93h1.5v2.055h-1.5v-2.056zm3.377 3.182v-5.3h5.183c-.344.53-.54 1.137-.54 1.784l.023.148c-.097.09-.16.222-.16.37v1.18c-.34-.227-.763-.36-1.22-.36-.32 0-.62.064-.888.178-.17.076-.33.17-.47.28-.192.15-.352.337-.468.54l-.025.05-.064.133c-.066.157-.107.324-.12.497l-.005.122.008.085-.03.155-.006.04v9.187H7.01v-9.096zm12.465 9.59H19.1v-2.34c-.033-.73-.6-1.307-1.295-1.307l-.27.03c-.146-.783-.796-1.365-1.574-1.365s-1.425.582-1.572 1.365l-.268-.03c-.694 0-1.263.575-1.295 1.307v2.335h-.373V61.93l3.446-1.765 3.576 1.77v6.542zm4.23-.5v-9.19l-.005-.04c-.007-.084-.03-.163-.073-.23v-.01l-.004-.12c-.012-.174-.053-.34-.12-.497l-.062-.134-.013-.027c-.115-.21-.275-.398-.47-.553-.14-.113-.297-.21-.468-.282-.272-.118-.577-.185-.9-.185-.437 0-.843.123-1.175.33v-1.15c0-.147-.062-.28-.16-.37l.024-.147c0-.647-.198-1.256-.543-1.785h5.183v14.39H23.7zM11.05 49.73h9.83v1.874h-9.83V49.73zm15.747 9.154h1.44v9.093h-1.44v-9.093zM15.965 45.38c2.425 0 4.433 1.467 4.736 3.358h-9.47c.306-1.892 2.31-3.358 4.738-3.358zM3.633 58.884h1.5v9.093h-1.5v-9.093zm17.957 1.34c-.24 0-.437.2-.448.453v1.463h.895v-1.463c-.01-.252-.207-.452-.448-.452zm-11.27 0c-.24 0-.437.2-.448.453v1.463h.895v-1.463c-.01-.252-.207-.452-.448-.452zm6.152 1.67l-.06-.07c-.123-.117-.29-.184-.457-.184-.13 0-.258.04-.366.115l-.04.03c-.1.086-.17.2-.205.325-.057.204-.025.436.104.618l.04.047c.12.135.296.213.476.213.142 0 .28-.05.39-.14.127-.1.212-.244.24-.412.017-.11.008-.22-.024-.326l-.104-.216zm-.798.375l.07-.16.05-.056c.052-.04.113-.06.176-.06.094 0 .16.048.197.09l-.024.024-.19.195-.104-.135.09.148-.22.172c-.044-.062-.06-.14-.047-.22zm.107.29l.18-.21.15.232c-.1.07-.235.062-.326-.026zm.375-.015l-.076-.095.044.073-.146-.19.048-.056.182-.145c.103.145.05.32-.052.414z" fill="#67737B"/><path d="M30.99 27.977h-1.815v-9.434l.026-.156v-3.182c0-.168-.08-.317-.2-.406l.018-.12c0-1.43-1.12-2.62-2.603-2.886l-.13-.086V10.16c0-.14-.058-.27-.15-.36l.005-.043c0-1.31-1.163-2.38-2.59-2.38-.8 0-1.515.335-1.99.858-.51-2.073-2.587-3.66-5.125-3.837v-.76h.08c.26 0 .47-.223.47-.497s-.21-.495-.47-.495h-.08v-.15c0-.274-.21-.496-.47-.496s-.468.224-.468.5v.15h-.08c-.258 0-.468.22-.468.494s.21.496.47.496h.076v.765c-2.577.18-4.674 1.813-5.145 3.93-.47-.577-1.223-.952-2.07-.952-1.43 0-2.59 1.067-2.59 2.378l.027.156c-.04.073-.066.158-.066.25v1.547l-.09.057c-1.584.184-2.81 1.42-2.81 2.913l.05.22c-.065.085-.104.19-.104.306v12.77H.94c-.518 0-.938.444-.938.992s.42.992.938.992h30.053c.518 0 .938-.445.938-.993s-.42-.994-.934-.994zM3.685 14.68c0-.82.6-1.524 1.448-1.81v1.84h-1.45l.002-.03zm2.947-5.01c.057-.72.773-1.292 1.646-1.292.874 0 1.59.572 1.647 1.292l.006.092h-3.3l.007-.092zm16.915-1.292c.874 0 1.59.572 1.647 1.292l.006.092h-3.304l.006-.092c.057-.72.773-1.292 1.646-1.292zm4.53 6.305l.002.03h-1.287v-1.775c.757.317 1.28.98 1.28 1.747zM6.584 11.798V10.66h3.51v1.46h-1.49v-.728c-.012-.257-.212-.46-.458-.46-.245 0-.445.203-.457.46v.727H6.58v-.326zm20.21 3.905h1.467v2.055h-1.463v-2.055zm-13.03 12.275v-1.804c.012-.197.167-.35.355-.35.09 0 .17.036.234.096v2.44h-.593v-.382zm4.398 0v.382h-.593v-2.442c.06-.06.143-.096.234-.096.188 0 .343.153.356.35v1.804zm-1.53-2.355v2.737h-1.337v-3.21c.02-.372.313-.664.668-.664.355 0 .647.29.668.665v.475zm-4.18-6.372h3.073l-3.072 1.576V19.25zm7.022 0v1.587L16.27 19.25h3.205zm0-1.49v.5h-7.02v-1.87h7.02v1.368zm-8.125.537H9.233c.036-.09.094-.176.17-.252.128-.128.305-.23.51-.285.118-.034.245-.053.377-.053s.26.02.378.052c.324.09.58.29.68.535zm-2.19.993h2.352v8.69h-2.35v-8.69zm11.25 2.327V19.29h2.352v8.69H20.41v-6.364zm2.075-3.56c.07.07.124.153.158.24H20.53c.1-.247.356-.448.68-.538.12-.035.246-.054.378-.054s.26.02.376.052c.21.057.393.162.522.295zm-9.9-2.66v-.02c0-.685.323-1.31.853-1.785.214-.19.46-.36.735-.495.52-.26 1.132-.41 1.788-.41.658 0 1.27.15 1.79.41.274.137.52.304.735.496.53.477.852 1.1.852 1.786v.02h-6.755zm12.755-3.624v.35H24v-.728c-.01-.257-.21-.46-.455-.46-.245 0-.445.203-.457.46v.727h-1.26v-1.46h3.51v1.11zM3.63 15.705h1.5v2.055h-1.5v-2.056zm3.377 3.182V13.59h5.183c-.344.53-.54 1.138-.54 1.785l.023.148c-.097.09-.16.222-.16.37v1.18c-.34-.227-.763-.36-1.22-.36-.32 0-.62.064-.888.178-.17.077-.33.17-.47.28-.192.15-.352.338-.468.54l-.025.05-.064.134c-.066.157-.107.324-.12.497l-.005.123.008.085-.03.155-.006.04v9.187H7.01v-9.095zm12.465 9.59H19.1v-2.34c-.033-.73-.6-1.305-1.295-1.305l-.27.03c-.146-.783-.796-1.365-1.574-1.365s-1.425.583-1.572 1.366l-.268-.03c-.694 0-1.263.575-1.295 1.307v2.335h-.373v-6.548l3.446-1.764 3.576 1.77v6.542zm4.23-.497v-9.19l-.005-.04c-.007-.085-.03-.164-.073-.23v-.01l-.004-.122c-.012-.173-.053-.34-.12-.496l-.062-.134-.013-.026c-.115-.21-.275-.398-.47-.553-.14-.116-.297-.21-.468-.285-.272-.118-.577-.185-.9-.185-.437 0-.843.124-1.175.33v-1.15c0-.146-.062-.28-.16-.37l.024-.146c0-.647-.198-1.256-.543-1.785h5.183v14.39H23.7zM11.05 9.73h9.83v1.874h-9.83V9.73zm15.747 9.154h1.44v9.093h-1.44v-9.093zM15.965 5.38c2.425 0 4.433 1.467 4.736 3.358h-9.47c.306-1.892 2.31-3.358 4.738-3.358zM3.633 18.884h1.5v9.093h-1.5v-9.093zm17.957 1.34c-.24 0-.437.2-.448.453v1.463h.895v-1.463c-.01-.252-.207-.452-.448-.452zm-11.27 0c-.24 0-.437.2-.448.453v1.463h.895v-1.463c-.01-.252-.207-.452-.448-.452zm6.152 1.67l-.06-.07c-.123-.117-.29-.184-.457-.184-.13 0-.258.04-.366.115l-.04.03c-.1.086-.17.2-.205.325-.057.204-.025.436.104.618l.04.047c.12.135.296.213.476.213.142 0 .28-.05.39-.14.127-.1.212-.244.24-.412.017-.11.008-.22-.024-.326l-.104-.216zm-.798.375l.07-.16.05-.056c.052-.04.113-.06.176-.06.094 0 .16.048.197.09l-.024.024-.19.195-.104-.135.09.148-.22.172c-.044-.062-.06-.14-.047-.22zm.107.29l.18-.21.15.232c-.1.07-.235.062-.326-.026zm.375-.015l-.076-.095.044.073-.146-.19.048-.056.182-.145c.103.145.05.32-.052.414z" fill="#3A434E"/></g></svg>