<svg width="32" height="232" viewBox="0 0 32 232" xmlns="http://www.w3.org/2000/svg" xmlns:sketch="http://www.bohemiancoding.com/sketch/ns"><title>seville</title><desc>Created with Sketch.</desc><g sketch:type="MSPage" fill="none"><g sketch:type="MSShapeGroup"><path d="M17.091 121.006l.153.026c.128 0 .251-.053.342-.147.091-.093.142-.221.142-.354 0-.216-.134-.407-.331-.474l-.207-.023-.196.071-.091.072c-.091.094-.143.222-.143.356 0 .215.134.406.331.474zm-3.944 5.982c.067.035.142.053.217.053.075 0 .149-.018.216-.053l.128-.095c.162-.169.187-.433.059-.63-.047-.073-.112-.132-.187-.17-.114-.058-.25-.068-.371-.026l-.113.057c-.121.083-.199.218-.214.367-.015.149.037.298.139.403l.126.094zm-3.135-4.99l.466.263.255.481c.085.161.248.26.425.26s.339-.099.425-.26l.255-.481.466-.263c.155-.088.251-.256.251-.438 0-.183-.097-.351-.251-.439l-.466-.263-.255-.481c-.085-.161-.248-.26-.425-.26s-.339.1-.425.26l-.255.482-.466.263c-.155.088-.252.256-.252.439 0 .182.097.351.252.438zm16.695 28.021l-1.794-3.015c.183.029.384.046.611.046h.002c.267 0 .483-.223.483-.5 0-.112-.036-.216-.097-.3l-2.19-3.605c.24-.03.425-.238.425-.493 0-.112-.036-.216-.097-.3l-2.21-3.638c.067-.129.107-.275.113-.431l.231-6.665 3.305-3.877c.322-.378.322-.944 0-1.321l-3.993-4.683c-.353-.414-.965-.454-1.366-.089-.401.365-.44.996-.087 1.411l3.429 4.023-2.61 3.061h-.365v-.849c.355-.348.578-.838.578-1.382 0-1.052-.829-1.908-1.847-1.908-.827 0-1.528.564-1.763 1.34l-.139-.009c-.645 0-1.17.542-1.17 1.208 0 .666.525 1.208 1.17 1.208.202 0 .392-.054.559-.147v.54h-.701c-.134 0-.256.057-.344.148-.144.077-.266.191-.356.328l-6.115 6.633c-.369.4-.354 1.033.033 1.414.188.184.428.276.667.276.256 0 .511-.104.701-.31l4.631-5.023.162 4.677.001.019-4.762 3.211c-.179.121-.261.35-.199.561.061.212.25.358.463.358.144 0 .261.013.364.035l-4.573 3.083c-.179.121-.261.349-.199.561.061.212.25.357.463.357.417 0 .709.07.958.176l-3.562 2.451-.042-.001c-.441 0-.813.306-.929.724-.092.151-.1.347-.01.51.102.438.484.766.94.766.765 0 1.104.221 1.573.526.57.371 1.281.831 2.604.831 1.323 0 2.033-.461 2.603-.831.469-.305.808-.526 1.573-.526.765 0 1.104.221 1.573.526.57.371 1.28.831 2.603.831 1.323 0 2.034-.461 2.604-.831.34-.221.613-.398 1.029-.478l.029-.006c.15-.026.319-.042.515-.042.35 0 .61.047.835.126l.031.012c.252.093.463.229.707.388.57.371 1.28.831 2.604.831.535 0 .968-.447.968-.999 0-.427-.26-.791-.625-.934zm-8.698-.066c-.765 0-1.103-.219-1.573-.525-.57-.37-1.281-.832-2.604-.832-1.323 0-2.033.463-2.604.832-.353.229-.632.411-1.074.487l-.035.005c-.137.021-.289.033-.464.033-.329 0-.579-.04-.795-.111l-.032-.01c-.27-.095-.489-.236-.746-.403-.314-.204-.671-.435-1.149-.602l3.107-2.139c.378.199.849.363 1.563.363 1.004 0 1.527-.325 1.989-.611.405-.252.754-.469 1.49-.469.735 0 1.085.217 1.49.469.462.286.985.611 1.989.611s1.527-.325 1.989-.611l.299-.178c.305-.168.639-.291 1.192-.291.645 0 .993.167 1.342.377l.127.079-.084-.005 2.007 3.373c-.226-.093-.421-.219-.646-.365-.57-.37-1.281-.832-2.604-.832-1.323 0-2.033.463-2.604.832-.469.305-.808.525-1.574.525zm-.14-16.508l-.052-1.504.482.504.02.021.546.572c.186.195.49.199.68.009l.103-.103.502-.5.052-.053.502-.498-.185 5.354h-2.519l-.132-3.804zm2.147-2.802h.249l-.011.313-1.035 1.03-.951-.995-.005-.146.012-.202h.096c.267 0 .484-.224.484-.5v-.864c.121.027.247.04.375.04l.301-.027v.852c0 .276.217.5.484.5zm-2.919 7.997l.581-.392h3.041l.302.499 1.51 2.486-.334-.156c-.18-.067-.393-.119-.654-.137l-.2-.006c-.714 0-1.1.239-1.409.432-.27.167-.465.288-.91.288s-.641-.121-.91-.288c-.309-.192-.695-.432-1.409-.432-.714 0-1.099.239-1.409.432-.165.103-.303.188-.488.238l-.097.022-.325.028c-.209 0-.362-.027-.494-.072l-.103-.041-.312-.175-.078-.048-.145-.086 3.842-2.591zm-3.646 3.836c.193.082.426.146.72.168l.217.009c.714 0 1.099-.24 1.409-.432.119-.075.224-.14.343-.189.149-.062.319-.1.567-.1.248 0 .418.037.566.1.119.049.224.114.343.189.17.106.362.224.619.311.212.071.467.121.79.121.322 0 .578-.05.79-.121.257-.086.449-.205.619-.311.119-.075.225-.14.343-.189l.145-.05c.116-.031.251-.05.422-.05.265 0 .441.043.598.113l.312.176.109.066 2.171 3.574c-.159-.071-.301-.157-.448-.247l-.053-.033c-.227-.141-.47-.291-.777-.408-.193-.073-.412-.132-.668-.167-.164-.023-.344-.037-.543-.037-1.004 0-1.527.326-1.989.612-.405.252-.755.469-1.49.469-.736 0-1.085-.218-1.49-.469-.462-.286-.985-.612-1.989-.612s-1.527.326-1.989.612l-.299.179c-.304.168-.639.291-1.192.291-.217 0-.4-.019-.561-.053-.223-.046-.404-.118-.572-.207l-.336-.196-.021-.013-.112-.068c-.178-.109-.367-.219-.594-.311l4.042-2.726z" fill="#206FAC"/><path d="M17.091 81.006l.153.026c.128 0 .251-.053.342-.147.091-.093.142-.221.142-.354 0-.216-.134-.407-.331-.474l-.207-.023-.196.071-.091.072c-.091.094-.143.222-.143.356 0 .215.134.406.331.474zm-3.944 5.982c.067.035.142.053.217.053.075 0 .149-.018.216-.053l.128-.095c.162-.169.187-.433.059-.63-.047-.073-.112-.132-.187-.17-.114-.058-.25-.068-.371-.026l-.113.057c-.121.083-.199.218-.214.367-.015.149.037.298.139.403l.126.094zm-3.135-4.99l.466.263.255.481c.085.161.248.26.425.26s.339-.099.425-.26l.255-.481.466-.263c.155-.088.251-.256.251-.438 0-.183-.097-.351-.251-.439l-.466-.263-.255-.481c-.085-.161-.248-.26-.425-.26s-.339.1-.425.26l-.255.482-.466.263c-.155.088-.252.256-.252.439 0 .182.097.351.252.438zm16.695 28.021l-1.794-3.015c.183.029.384.046.611.046h.002c.267 0 .483-.223.483-.5 0-.112-.036-.216-.097-.3l-2.19-3.605c.24-.03.425-.238.425-.493 0-.112-.036-.216-.097-.3l-2.21-3.638c.067-.129.107-.275.113-.431l.231-6.665 3.305-3.877c.322-.378.322-.944 0-1.321l-3.993-4.683c-.353-.414-.965-.454-1.366-.089-.401.365-.44.996-.087 1.411l3.429 4.023-2.61 3.061h-.365v-.849c.355-.348.578-.838.578-1.382 0-1.052-.829-1.908-1.847-1.908-.827 0-1.528.564-1.763 1.34l-.139-.009c-.645 0-1.17.542-1.17 1.208 0 .666.525 1.208 1.17 1.208.202 0 .392-.054.559-.147v.54h-.701c-.134 0-.256.057-.344.148-.144.077-.266.191-.356.328l-6.115 6.633c-.369.4-.354 1.033.033 1.414.188.184.428.276.667.276.256 0 .511-.104.701-.31l4.631-5.023.162 4.677.001.019-4.762 3.211c-.179.121-.261.35-.199.561.061.212.25.358.463.358.144 0 .261.013.364.035l-4.573 3.083c-.179.121-.261.349-.199.561.061.212.25.357.463.357.417 0 .709.07.958.176l-3.562 2.451-.042-.001c-.441 0-.813.306-.929.724-.092.151-.1.347-.01.51.102.438.484.766.94.766.765 0 1.104.221 1.573.526.57.371 1.281.831 2.604.831 1.323 0 2.033-.461 2.603-.831.469-.305.808-.526 1.573-.526.765 0 1.104.221 1.573.526.57.371 1.28.831 2.603.831 1.323 0 2.034-.461 2.604-.831.34-.221.613-.398 1.029-.478l.029-.006c.15-.026.319-.042.515-.042.35 0 .61.047.835.126l.031.012c.252.093.463.229.707.388.57.371 1.28.831 2.604.831.535 0 .968-.447.968-.999 0-.427-.26-.791-.625-.934zm-8.698-.066c-.765 0-1.103-.219-1.573-.525-.57-.37-1.281-.832-2.604-.832-1.323 0-2.033.463-2.604.832-.353.229-.632.411-1.074.487l-.035.005c-.137.021-.289.033-.464.033-.329 0-.579-.04-.795-.111l-.032-.01c-.27-.095-.489-.236-.746-.403-.314-.204-.671-.435-1.149-.602l3.107-2.139c.378.199.849.363 1.563.363 1.004 0 1.527-.325 1.989-.611.405-.252.754-.469 1.49-.469.735 0 1.085.217 1.49.469.462.286.985.611 1.989.611s1.527-.325 1.989-.611l.299-.178c.305-.168.639-.291 1.192-.291.645 0 .993.167 1.342.377l.127.079-.084-.005 2.007 3.373c-.226-.093-.421-.219-.646-.365-.57-.37-1.281-.832-2.604-.832-1.323 0-2.033.463-2.604.832-.469.305-.808.525-1.574.525zm-.14-16.508l-.052-1.504.482.504.02.021.546.572c.186.195.49.199.68.009l.103-.103.502-.5.052-.053.502-.498-.185 5.354h-2.519l-.132-3.804zm2.147-2.802h.249l-.011.313-1.035 1.03-.951-.995-.005-.146.012-.202h.096c.267 0 .484-.224.484-.5v-.864c.121.027.247.04.375.04l.301-.027v.852c0 .276.217.5.484.5zm-2.919 7.997l.581-.392h3.041l.302.499 1.51 2.486-.334-.156c-.18-.067-.393-.119-.654-.137l-.2-.006c-.714 0-1.1.239-1.409.432-.27.167-.465.288-.91.288s-.641-.121-.91-.288c-.309-.192-.695-.432-1.409-.432-.714 0-1.099.239-1.409.432-.165.103-.303.188-.488.238l-.097.022-.325.028c-.209 0-.362-.027-.494-.072l-.103-.041-.312-.175-.078-.048-.145-.086 3.842-2.591zm-3.646 3.836c.193.082.426.146.72.168l.217.009c.714 0 1.099-.24 1.409-.432.119-.075.224-.14.343-.189.149-.062.319-.1.567-.1.248 0 .418.037.566.1.119.049.224.114.343.189.17.106.362.224.619.311.212.071.467.121.79.121.322 0 .578-.05.79-.121.257-.086.449-.205.619-.311.119-.075.225-.14.343-.189l.145-.05c.116-.031.251-.05.422-.05.265 0 .441.043.598.113l.312.176.109.066 2.171 3.574c-.159-.071-.301-.157-.448-.247l-.053-.033c-.227-.141-.47-.291-.777-.408-.193-.073-.412-.132-.668-.167-.164-.023-.344-.037-.543-.037-1.004 0-1.527.326-1.989.612-.405.252-.755.469-1.49.469-.736 0-1.085-.218-1.49-.469-.462-.286-.985-.612-1.989-.612s-1.527.326-1.989.612l-.299.179c-.304.168-.639.291-1.192.291-.217 0-.4-.019-.561-.053-.223-.046-.404-.118-.572-.207l-.336-.196-.021-.013-.112-.068c-.178-.109-.367-.219-.594-.311l4.042-2.726z" fill="#fff"/><path d="M17.091 41.006l.153.026c.128 0 .251-.053.342-.147.091-.093.142-.221.142-.354 0-.216-.134-.407-.331-.474l-.207-.023-.196.071-.091.072c-.091.094-.143.222-.143.356 0 .215.134.406.331.474zm-3.944 5.982c.067.035.142.053.217.053.075 0 .149-.018.216-.053l.128-.095c.162-.169.187-.433.059-.63-.047-.073-.112-.132-.187-.17-.114-.058-.25-.068-.371-.026l-.113.057c-.121.083-.199.218-.214.367-.015.149.037.298.139.403l.126.094zm-3.135-4.99l.466.263.255.481c.085.161.248.26.425.26s.339-.099.425-.26l.255-.481.466-.263c.155-.088.251-.256.251-.438 0-.183-.097-.351-.251-.439l-.466-.263-.255-.481c-.085-.161-.248-.26-.425-.26s-.339.1-.425.26l-.255.482-.466.263c-.155.088-.252.256-.252.439 0 .182.097.351.252.438zm16.695 28.021l-1.794-3.015c.183.029.384.046.611.046h.002c.267 0 .483-.223.483-.5 0-.112-.036-.216-.097-.3l-2.19-3.605c.24-.03.425-.238.425-.493 0-.112-.036-.216-.097-.3l-2.21-3.638c.067-.129.107-.275.113-.431l.231-6.665 3.305-3.877c.322-.378.322-.944 0-1.321l-3.993-4.683c-.353-.414-.965-.454-1.366-.089-.401.365-.44.996-.087 1.411l3.429 4.023-2.61 3.061h-.365v-.849c.355-.348.578-.838.578-1.382 0-1.052-.829-1.908-1.847-1.908-.827 0-1.528.564-1.763 1.34l-.139-.009c-.645 0-1.17.542-1.17 1.208 0 .666.525 1.208 1.17 1.208.202 0 .392-.054.559-.147v.54h-.701c-.134 0-.256.057-.344.148-.144.077-.266.191-.356.328l-6.115 6.633c-.369.4-.354 1.033.033 1.414.188.184.428.276.667.276.256 0 .511-.104.701-.31l4.631-5.023.162 4.677.001.019-4.762 3.211c-.179.121-.261.35-.199.561.061.212.25.358.463.358.144 0 .261.013.364.035l-4.573 3.083c-.179.121-.261.349-.199.561.061.212.25.357.463.357.417 0 .709.07.958.176l-3.562 2.451-.042-.001c-.441 0-.813.306-.929.724-.092.151-.1.347-.01.51.102.438.484.766.94.766.765 0 1.104.221 1.573.526.57.371 1.281.831 2.604.831 1.323 0 2.033-.461 2.603-.831.469-.305.808-.526 1.573-.526.765 0 1.104.221 1.573.526.57.371 1.28.831 2.603.831 1.323 0 2.034-.461 2.604-.831.34-.221.613-.398 1.029-.478l.029-.006c.15-.026.319-.042.515-.042.35 0 .61.047.835.126l.031.012c.252.093.463.229.707.388.57.371 1.28.831 2.604.831.535 0 .968-.447.968-.999 0-.427-.26-.791-.625-.934zm-8.698-.066c-.765 0-1.103-.219-1.573-.525-.57-.37-1.281-.832-2.604-.832-1.323 0-2.033.463-2.604.832-.353.229-.632.411-1.074.487l-.035.005c-.137.021-.289.033-.464.033-.329 0-.579-.04-.795-.111l-.032-.01c-.27-.095-.489-.236-.746-.403-.314-.204-.671-.435-1.149-.602l3.107-2.139c.378.199.849.363 1.563.363 1.004 0 1.527-.325 1.989-.611.405-.252.754-.469 1.49-.469.735 0 1.085.217 1.49.469.462.286.985.611 1.989.611s1.527-.325 1.989-.611l.299-.178c.305-.168.639-.291 1.192-.291.645 0 .993.167 1.342.377l.127.079-.084-.005 2.007 3.373c-.226-.093-.421-.219-.646-.365-.57-.37-1.281-.832-2.604-.832-1.323 0-2.033.463-2.604.832-.469.305-.808.525-1.574.525zm-.14-16.508l-.052-1.504.482.504.02.021.546.572c.186.195.49.199.68.009l.103-.103.502-.5.052-.053.502-.498-.185 5.354h-2.519l-.132-3.804zm2.147-2.802h.249l-.011.313-1.035 1.03-.951-.995-.005-.146.012-.202h.096c.267 0 .484-.224.484-.5v-.864c.121.027.247.04.375.04l.301-.027v.852c0 .276.217.5.484.5zm-2.919 7.997l.581-.392h3.041l.302.499 1.51 2.486-.334-.156c-.18-.067-.393-.119-.654-.137l-.2-.006c-.714 0-1.1.239-1.409.432-.27.167-.465.288-.91.288s-.641-.121-.91-.288c-.309-.192-.695-.432-1.409-.432-.714 0-1.099.239-1.409.432-.165.103-.303.188-.488.238l-.097.022-.325.028c-.209 0-.362-.027-.494-.072l-.103-.041-.312-.175-.078-.048-.145-.086 3.842-2.591zm-3.646 3.836c.193.082.426.146.72.168l.217.009c.714 0 1.099-.24 1.409-.432.119-.075.224-.14.343-.189.149-.062.319-.1.567-.1.248 0 .418.037.566.1.119.049.224.114.343.189.17.106.362.224.619.311.212.071.467.121.79.121.322 0 .578-.05.79-.121.257-.086.449-.205.619-.311.119-.075.225-.14.343-.189l.145-.05c.116-.031.251-.05.422-.05.265 0 .441.043.598.113l.312.176.109.066 2.171 3.574c-.159-.071-.301-.157-.448-.247l-.053-.033c-.227-.141-.47-.291-.777-.408-.193-.073-.412-.132-.668-.167-.164-.023-.344-.037-.543-.037-1.004 0-1.527.326-1.989.612-.405.252-.755.469-1.49.469-.736 0-1.085-.218-1.49-.469-.462-.286-.985-.612-1.989-.612s-1.527.326-1.989.612l-.299.179c-.304.168-.639.291-1.192.291-.217 0-.4-.019-.561-.053-.223-.046-.404-.118-.572-.207l-.336-.196-.021-.013-.112-.068c-.178-.109-.367-.219-.594-.311l4.042-2.726z" fill="#67737B"/><path d="M17.091 1.006l.153.026c.128 0 .251-.053.342-.147.091-.093.142-.221.142-.354 0-.216-.134-.407-.331-.474l-.207-.023-.196.071-.091.072c-.091.094-.143.222-.143.356 0 .215.134.406.331.474zm-3.944 5.982c.067.035.142.053.217.053.075 0 .149-.018.216-.053l.128-.095c.162-.169.187-.433.059-.63-.047-.073-.112-.132-.187-.17-.114-.058-.25-.068-.371-.026l-.113.057c-.121.083-.199.218-.214.367-.015.149.037.298.139.403l.126.094zm-3.135-4.99l.466.263.255.481c.085.161.248.26.425.26s.339-.099.425-.26l.255-.481.466-.263c.155-.088.251-.256.251-.438 0-.183-.097-.351-.251-.439l-.466-.263-.255-.481c-.085-.161-.248-.26-.425-.26s-.339.1-.425.26l-.255.482-.466.263c-.155.088-.252.256-.252.439 0 .182.097.351.252.438zm16.695 28.021l-1.794-3.015c.183.029.384.046.611.046h.002c.267 0 .483-.223.483-.5 0-.112-.036-.216-.097-.3l-2.19-3.605c.24-.03.425-.238.425-.493 0-.112-.036-.216-.097-.3l-2.21-3.638c.067-.129.107-.275.113-.431l.231-6.665 3.305-3.877c.322-.378.322-.944 0-1.321l-3.993-4.683c-.353-.414-.965-.454-1.366-.089-.401.365-.44.996-.087 1.411l3.429 4.023-2.61 3.061h-.365v-.849c.355-.348.578-.838.578-1.382 0-1.052-.829-1.908-1.847-1.908-.827 0-1.528.564-1.763 1.34l-.139-.009c-.645 0-1.17.542-1.17 1.208 0 .666.525 1.208 1.17 1.208.202 0 .392-.054.559-.147v.54h-.701c-.134 0-.256.057-.344.148-.144.077-.266.191-.356.328l-6.115 6.633c-.369.4-.354 1.033.033 1.414.188.184.428.276.667.276.256 0 .511-.104.701-.31l4.631-5.023.162 4.677.001.019-4.762 3.211c-.179.121-.261.35-.199.561.061.212.25.358.463.358.144 0 .261.013.364.035l-4.573 3.083c-.179.121-.261.349-.199.561.061.212.25.357.463.357.417 0 .709.07.958.176l-3.562 2.451-.042-.001c-.441 0-.813.306-.929.724-.092.151-.1.347-.01.51.102.438.484.766.94.766.765 0 1.104.221 1.573.526.57.371 1.281.831 2.604.831 1.323 0 2.033-.461 2.603-.831.469-.305.808-.526 1.573-.526.765 0 1.104.221 1.573.526.57.371 1.28.831 2.603.831 1.323 0 2.034-.461 2.604-.831.34-.221.613-.398 1.029-.478l.029-.006c.15-.026.319-.042.515-.042.35 0 .61.047.835.126l.031.012c.252.093.463.229.707.388.57.371 1.28.831 2.604.831.535 0 .968-.447.968-.999 0-.427-.26-.791-.625-.934zm-8.698-.066c-.765 0-1.103-.219-1.573-.525-.57-.37-1.281-.832-2.604-.832-1.323 0-2.033.463-2.604.832-.353.229-.632.411-1.074.487l-.035.005c-.137.021-.289.033-.464.033-.329 0-.579-.04-.795-.111l-.032-.01c-.27-.095-.489-.236-.746-.403-.314-.204-.671-.435-1.149-.602l3.107-2.139c.378.199.849.363 1.563.363 1.004 0 1.527-.325 1.989-.611.405-.252.754-.469 1.49-.469.735 0 1.085.217 1.49.469.462.286.985.611 1.989.611s1.527-.325 1.989-.611l.299-.178c.305-.168.639-.291 1.192-.291.645 0 .993.167 1.342.377l.127.079-.084-.005 2.007 3.373c-.226-.093-.421-.219-.646-.365-.57-.37-1.281-.832-2.604-.832-1.323 0-2.033.463-2.604.832-.469.305-.808.525-1.574.525zm-.14-16.508l-.052-1.504.482.504.02.021.546.572c.186.195.49.199.68.009l.103-.103.502-.5.052-.053.502-.498-.185 5.354h-2.519l-.132-3.804zm2.147-2.802h.249l-.011.313-1.035 1.03-.951-.995-.005-.146.012-.202h.096c.267 0 .484-.224.484-.5v-.864c.121.027.247.04.375.04l.301-.027v.852c0 .276.217.5.484.5zm-2.919 7.997l.581-.392h3.041l.302.499 1.51 2.486-.334-.156c-.18-.067-.393-.119-.654-.137l-.2-.006c-.714 0-1.1.239-1.409.432-.27.167-.465.288-.91.288s-.641-.121-.91-.288c-.309-.192-.695-.432-1.409-.432-.714 0-1.099.239-1.409.432-.165.103-.303.188-.488.238l-.097.022-.325.028c-.209 0-.362-.027-.494-.072l-.103-.041-.312-.175-.078-.048-.145-.086 3.842-2.591zm-3.646 3.836c.193.082.426.146.72.168l.217.009c.714 0 1.099-.24 1.409-.432.119-.075.224-.14.343-.189.149-.062.319-.1.567-.1.248 0 .418.037.566.1.119.049.224.114.343.189.17.106.362.224.619.311.212.071.467.121.79.121.322 0 .578-.05.79-.121.257-.086.449-.205.619-.311.119-.075.225-.14.343-.189l.145-.05c.116-.031.251-.05.422-.05.265 0 .441.043.598.113l.312.176.109.066 2.171 3.574c-.159-.071-.301-.157-.448-.247l-.053-.033c-.227-.141-.47-.291-.777-.408-.193-.073-.412-.132-.668-.167-.164-.023-.344-.037-.543-.037-1.004 0-1.527.326-1.989.612-.405.252-.755.469-1.49.469-.736 0-1.085-.218-1.49-.469-.462-.286-.985-.612-1.989-.612s-1.527.326-1.989.612l-.299.179c-.304.168-.639.291-1.192.291-.217 0-.4-.019-.561-.053-.223-.046-.404-.118-.572-.207l-.336-.196-.021-.013-.112-.068c-.178-.109-.367-.219-.594-.311l4.042-2.726z" fill="#3A434E"/></g></g></svg>