<svg width="32" height="232" viewBox="0 0 32 232" xmlns="http://www.w3.org/2000/svg"><desc>Created with Sketch.</desc><g fill="none"><path d="M1.722 123.46c.26.235.592.366.936.366h4.204l-.017.2c0 .362.15.707.415.947.223.204.51.316.807.316h4.345c.674 0 1.222-.57 1.222-1.27s-.548-1.263-1.222-1.263h-.228c.035-.13.056-.264.056-.403 0-.81-.637-1.467-1.418-1.467H2.657c-.344 0-.677.13-.936.368-.302.28-.48.68-.48 1.1 0 .42.178.82.48 1.1zm.68-1.402c.05-.047.136-.1.256-.1h8.165c.214 0 .388.18.388.4 0 .223-.17.403-.384.403-.284 0-.515.24-.515.536h-.003c0 .295.23.533.515.533h1.595c.107 0 .193.09.193.2 0 .11-.086.2-.193.2h-4.35l-.126-.05c-.02-.024-.062-.074-.062-.15 0-.08.04-.13.067-.15l.126-.05h.003c.285 0 .516-.24.516-.535 0-.294-.23-.532-.516-.532H2.66c-.12 0-.207-.054-.257-.1-.085-.08-.132-.185-.132-.3 0-.118.05-.224.136-.3zm20 21.07c.087.057.184.085.28.085.168 0 .334-.087.433-.245.153-.248.083-.578-.156-.735-.156-.1-.306-.213-.45-.333-.22-.184-.547-.147-.725.083-.177.23-.142.564.08.75.173.142.353.276.535.397zm-2.446-2.803c.104.195.215.387.33.57.1.157.265.243.433.243.092 0 .19-.028.28-.086.234-.16.3-.49.15-.737-.105-.162-.2-.33-.29-.504-.14-.253-.45-.35-.7-.21-.25.146-.34.47-.206.727zm.48-10.394c.085.06.183.09.28.09.167 0 .333-.086.43-.243l.18-.274.147-.204c.173-.234.13-.57-.096-.747-.225-.18-.55-.135-.72.098l-.167.235-.206.312c-.155.246-.086.576.152.737zm10.347 9.1l.164.03c.215 0 .416-.14.488-.362.067-.207.128-.42.184-.632.07-.284-.09-.576-.368-.652-.275-.075-.557.094-.63.377l-.166.57c-.09.28.054.58.324.673zm-.51 1.12c-.24-.16-.558-.09-.712.158l-.18.28-.142.198c-.173.234-.13.568.096.747.095.074.204.11.313.11.155 0 .307-.073.41-.21l.162-.227.21-.318c.152-.246.084-.576-.154-.737zm-10.323-2.93c-.057-.285-.33-.47-.607-.41-.28.06-.458.34-.4.63.043.212.092.43.147.64.062.235.27.392.496.392l.134-.017c.275-.077.436-.37.362-.652l-.132-.58zm9.893-6.95c.094.175.27.275.45.275.085 0 .17-.02.25-.066.248-.143.34-.467.2-.724-.103-.195-.214-.387-.33-.57-.155-.247-.474-.317-.712-.156s-.3.49-.15.736c.106.162.2.33.295.504zm-6.867-3.646c-.196.1-.39.213-.578.338-.24.16-.308.49-.155.736.098.16.264.245.433.245.096 0 .192-.027.278-.084.155-.104.315-.198.476-.28.255-.13.36-.45.235-.71-.125-.266-.434-.375-.69-.245zm-3.053 4.426c-.27-.095-.56.055-.652.334-.063.207-.125.42-.18.63-.074.285.09.577.363.654l.135.018c.228 0 .435-.157.497-.394l.167-.57c.09-.276-.055-.58-.324-.672zm11.557 3.456c-.284 0-.514.243-.514.537l-.007.378.003-.376c0-4.23-2.354-7.696-5.308-7.92l.23.02.064.006c.256 0 .477-.198.51-.468.035-.29-.165-.556-.447-.592-.218-.03-.44-.043-.662-.043h-.005c-.285 0-.512.24-.512.533 0 .294.234.532.518.532l.287.01-.287-.01c-2.99 0-5.44 3.32-5.602 7.486l.005-.148c.015-.294-.203-.545-.487-.56-.284-.016-.526.21-.54.503l-.018.653v.016c.007.29.235.52.515.52.285 0 .515-.24.515-.533v-.01l.007-.376-.007.38c0 3.648 1.752 6.727 4.13 7.65l-.1 2.48h-4.03v-3.36c0-.294-.23-.533-.515-.533H17.73l.192-3.694v-5.932l.06-.06 1.355-1.655c.13-.16.16-.38.074-.57-.08-.187-.262-.31-.463-.31h-1.94v-4.053c0-.294-.23-.533-.516-.533-.284 0-.514.24-.514.533v4.055h-.39v-2.33c0-.294-.232-.532-.516-.532-.286 0-.517.24-.517.534v2.33h-9.64v-2.33c0-.294-.23-.532-.514-.532-.287 0-.517.24-.517.533v2.33H.533c-.16 0-.316.084-.413.22-.097.14-.124.317-.073.48l.518 1.654c.07.22.267.366.49.366h1.59v5.71l-.4 7.682h-.82c-.567 0-1.028.476-1.028 1.064 0 .59.46 1.064 1.03 1.064h29.307c.568 0 1.03-.476 1.03-1.065s-.462-1.065-1.03-1.065h-3.53l-.127-1.9c.097.154.26.24.43.24.075 0 .154-.017.227-.054.196-.1.39-.213.577-.337.24-.16.31-.49.158-.736-.153-.248-.472-.32-.71-.16-.155.102-.315.196-.476.28-.11.053-.19.144-.236.25l-.01-.144c2.18-.967 3.792-3.77 3.924-7.122l-.006.144c-.013.294.205.544.49.56h.026c.272 0 .5-.22.514-.503l.016-.644v-.01c0-.295-.23-.528-.515-.528zm-13.65-4.376l-.482.59H1.428l-.184-.59H17.83zm-14.176 7.76l.02-.357v-.04h2.15v.05l-.017.347H3.655zm.02-3.32h2.15v.396h-2.15v-.398zm0 1.46h2.15v.398h-2.15v-.398zm1.98 4.785H3.5l.02-.397h2.152l-.02.396zm-2.207 1.065h2.15l-.02.398h-2.15l.02-.397zm-.076 1.463h2.15l-.02.397H3.35l.02-.397zm.306-11.55h2.15v.25h-2.15v-.25zm0 1.314h2.15v.397h-2.15v-.397zm2.057 6.246H3.58l.02-.397h2.15l-.02.373v.02zm1.124-1.766v-5.804H8.18v5.708l-.07 1.31H6.79l.063-1.21zm7.887-1.556h2.15v.4h-2.15v-.396zm1.904 6.25h-2.15l.02-.397h2.15l-.02.398zm-1.903-7.71h2.15v.4h-2.15v-.4zm0 2.967v-.04h2.15v.05l-.016.347h-2.16l.02-.356zm-.074 1.422h2.15l-.02.396h-2.15l.02-.397zm1.67 1.462h.406l-.02.397h-2.15l.02-.398h1.744zm-1.595-7.312h2.15v.397h-2.15v-.397zm0-1.315h2.15v.25h-2.15v-.25zm-.324 11.948l.02-.396h2.15l-.02.397h-2.15zm-3.06-10.234H9.21v-.4h2.15v.4zm0 1.46H9.21v-.4h2.15v.4zm0 1.463l-.004-.003H9.208v-.397h2.152v.398zm-.246 5.847H8.96l.02-.397h2.15l-.02.398zm.074-1.462h-2.15l.02-.397h2.15l-.02.397zm.076-1.463H9.11l.02-.397h2.152l-.02.397zm-2.055-7.562h2.15v.25H9.21v-.25zm-.324 11.95l.02-.398h2.15l-.02.397h-2.15zm2.474-6.197l-.02.347H9.19l.017-.357v-.04h2.146l.006-.002v.054zm-2.55 7.63l.02-.37h2.15l-.02.37H8.81zm3.577-13.39h1.324v5.164H12.39v-5.165zm1.956 13.39l.02-.37h2.15l-.01.148-.01.225h-2.15zm-11.048-.37h2.15l-.02.37h-2.15l.02-.37zm14.375-2.458h1.038v2.828H17.52l.147-2.828zM6.694 140.56l.036-.7h1.32l-.275 5.314H6.452l.24-4.615zm5.407 2.42l.26-4.967h1.32l-.37 7.16h-1.32l.114-2.192zm13.08-7.405h.355l.415 6.275c-.197.04-.397.06-.6.06-.14 0-.283-.01-.42-.03l.25-6.305zm-.13 7.39l-.163-.017v-.002l.165.018zm1.12 2.21h-1.373l.046-1.162c.17.017.34.03.51.03h.01c.286 0 .516-.24.516-.535 0-.293-.23-.533-.516-.533h-.01l-.288-.01.288.01c.227 0 .45-.02.67-.058l.15 2.257zm.787-3.7l-.43-6.468c-.017-.28-.242-.496-.512-.496H24.98l-.146.028-.125-.024c-.286-.013-.525.217-.537.51l-.26 6.543c-1.826-.907-3.146-3.485-3.146-6.52 0-3.786 2.057-6.867 4.585-6.867s4.585 3.08 4.585 6.867c0 2.94-1.24 5.456-2.98 6.432zm.782-13.624c.15.1.302.216.447.336.095.08.208.117.32.117.152 0 .302-.07.403-.2.176-.23.14-.564-.08-.75-.175-.142-.356-.275-.538-.396-.24-.16-.557-.086-.71.162-.153.247-.083.577.157.734zm2.88 4.43c.05.19.093.387.13.58.05.25.264.426.504.426l.105-.01c.277-.06.456-.343.4-.63-.045-.216-.095-.43-.15-.64-.074-.285-.356-.453-.63-.376-.276.076-.438.37-.364.652m-.73 16.338c-.287 0-.407-.066-.59-.167-.235-.13-.528-.29-1.073-.29-.543 0-.837.16-1.073.29-.18.1-.3.168-.59.168-.287 0-.407-.064-.588-.165-.236-.13-.53-.29-1.074-.29s-.84.16-1.075.29c-.18.1-.3.168-.587.168s-.406-.066-.587-.167c-.237-.13-.53-.29-1.075-.29s-.838.16-1.073.29c-.182.1-.3.168-.588.168-.286 0-.406-.066-.587-.167-.237-.13-.53-.29-1.075-.29s-.838.16-1.073.29c-.18.1-.3.168-.587.168s-.406-.066-.587-.167c-.237-.13-.53-.29-1.074-.29s-.838.16-1.074.29c-.18.1-.3.168-.588.168s-.406-.066-.587-.167c-.236-.13-.53-.29-1.074-.29s-.838.16-1.073.29c-.18.1-.3.167-.587.167s-.404-.066-.586-.167c-.236-.13-.53-.29-1.073-.29-.542 0-.836.16-1.072.29-.18.1-.3.167-.588.167s-.406-.066-.587-.167c-.236-.13-.53-.29-1.073-.29-.543 0-.837.16-1.073.29-.18.1-.3.168-.587.168s-.406-.066-.587-.167c-.236-.13-.53-.29-1.073-.29-.285 0-.515.24-.515.53 0 .297.23.536.515.536.286 0 .405.066.587.167.236.13.53.294 1.074.294.547 0 .84-.163 1.076-.293.182-.1.3-.166.588-.166.286 0 .406.066.587.167.236.13.53.294 1.073.294s.838-.164 1.073-.294c.18-.1.302-.166.588-.166s.405.065.587.166c.237.13.53.294 1.074.294s.838-.163 1.073-.293c.18-.1.3-.166.586-.166s.406.068.588.17c.238.13.53.293 1.075.293s.838-.163 1.073-.293c.18-.1.3-.167.59-.167.285 0 .405.066.586.167.236.13.53.294 1.074.294s.838-.163 1.073-.293c.18-.1.3-.164.587-.164s.405.066.587.167c.236.13.53.294 1.073.294.544 0 .838-.163 1.074-.293.183-.1.303-.166.59-.166s.405.066.586.167c.235.13.53.294 1.073.294.542 0 .836-.164 1.07-.294.18-.1.303-.166.59-.166s.405.065.587.166c.237.13.53.294 1.074.294.546 0 .84-.163 1.076-.293.18-.1.3-.166.587-.166s.406.068.588.17c.238.13.53.293 1.075.293.283 0 .514-.238.514-.533 0-.294-.233-.533-.517-.533m-3.73 1.704c-.247 0-.346-.05-.508-.14-.204-.106-.483-.256-.98-.256-.498 0-.778.15-.982.26-.163.086-.26.14-.508.14-.246 0-.344-.054-.507-.14-.205-.11-.484-.26-.982-.26-.496 0-.776.15-.98.26-.163.086-.26.14-.507.14s-.346-.054-.508-.14c-.203-.11-.482-.26-.98-.26-.497 0-.777.15-.98.26-.16.086-.26.14-.508.14-.284 0-.514.238-.514.532 0 .295.23.533.513.533.5 0 .778-.15.98-.26.164-.088.26-.14.51-.14s.345.052.51.14c.202.11.48.26.98.26.496 0 .776-.15.98-.26.162-.088.26-.14.507-.14s.345.052.507.14c.203.11.483.26.98.26.5 0 .78-.15.98-.26.164-.088.26-.14.51-.14.245 0 .344.052.506.14.204.11.483.26.98.26.286 0 .516-.24.516-.535 0-.294-.23-.533-.516-.533m-7.46-25.976h2.874c.284 0 .515-.238.515-.533 0-.293-.23-.532-.516-.532h-2.88c-.283 0-.514.24-.514.534 0 .296.23.534.515.534m1.14-1.438h4.857c.285 0 .515-.24.515-.533 0-.294-.23-.533-.514-.533H19.83c-.284 0-.514.238-.514.532 0 .294.23.533.515.533" fill="#206FAC"/><path d="M1.722 83.46c.26.235.592.366.936.366h4.204l-.017.2c0 .362.15.707.415.947.223.204.51.316.807.316h4.345c.674 0 1.222-.57 1.222-1.27s-.548-1.263-1.222-1.263h-.228c.035-.13.056-.264.056-.403 0-.81-.637-1.467-1.418-1.467H2.657c-.344 0-.677.13-.936.368-.302.28-.48.68-.48 1.1 0 .42.178.82.48 1.1zm.68-1.402c.05-.047.136-.1.256-.1h8.165c.214 0 .388.18.388.4 0 .223-.17.403-.384.403-.284 0-.515.24-.515.536h-.003c0 .295.23.533.515.533h1.595c.107 0 .193.09.193.2 0 .11-.086.2-.193.2h-4.35l-.126-.05c-.02-.024-.062-.074-.062-.15 0-.08.04-.13.067-.15l.126-.05h.003c.285 0 .516-.24.516-.535 0-.294-.23-.532-.516-.532H2.66c-.12 0-.207-.054-.257-.1-.085-.08-.132-.185-.132-.3 0-.118.05-.224.136-.3zm20 21.07c.087.057.184.085.28.085.168 0 .334-.087.433-.245.153-.248.083-.578-.156-.735-.156-.1-.306-.213-.45-.333-.22-.184-.547-.147-.725.083-.177.23-.142.564.08.75.173.142.353.276.535.397zm-2.446-2.803c.104.195.215.387.33.57.1.157.265.243.433.243.092 0 .19-.028.28-.086.234-.16.3-.49.15-.737-.105-.162-.2-.33-.29-.504-.14-.253-.45-.35-.7-.21-.25.146-.34.47-.206.727zm.48-10.394c.085.06.183.09.28.09.167 0 .333-.086.43-.243l.18-.274.147-.204c.173-.234.13-.57-.096-.747-.225-.18-.55-.135-.72.098l-.167.235-.206.312c-.155.246-.086.576.152.737zm10.347 9.1l.164.03c.215 0 .416-.14.488-.362.067-.207.128-.42.184-.632.07-.284-.09-.576-.368-.652-.275-.075-.557.094-.63.377l-.166.57c-.09.28.054.58.324.673zm-.51 1.12c-.24-.16-.558-.09-.712.158l-.18.28-.142.198c-.173.234-.13.568.096.747.095.074.204.11.313.11.155 0 .307-.073.41-.21l.162-.227.21-.318c.152-.246.084-.576-.154-.737zM19.95 97.22c-.057-.287-.33-.472-.607-.413-.28.06-.458.34-.4.63.043.213.092.43.147.64.062.236.27.393.496.393l.134-.018c.275-.077.436-.37.362-.652l-.132-.58zm9.893-6.952c.094.175.27.275.45.275.085 0 .17-.02.25-.066.248-.142.34-.466.2-.723-.103-.195-.214-.387-.33-.57-.155-.247-.474-.317-.712-.156s-.3.49-.15.737c.106.162.2.33.295.504zm-6.867-3.646c-.196.1-.39.213-.578.338-.24.16-.308.488-.155.735.098.16.264.245.433.245.096 0 .192-.028.278-.085.155-.103.315-.197.476-.28.255-.13.36-.448.235-.71-.125-.265-.434-.374-.69-.244zm-3.053 4.426c-.27-.094-.56.056-.652.335-.063.207-.125.42-.18.63-.074.285.09.577.363.654l.135.018c.228 0 .435-.157.497-.394l.167-.57c.09-.274-.055-.58-.324-.67zm11.557 3.457c-.284 0-.514.243-.514.537l-.007.378.003-.378c0-4.23-2.354-7.696-5.308-7.92l.23.02.064.006c.256 0 .477-.197.51-.467.035-.29-.165-.554-.447-.59-.218-.03-.44-.043-.662-.043h-.005c-.285 0-.512.24-.512.533 0 .293.234.53.518.53l.287.01-.287-.01c-2.99 0-5.44 3.32-5.602 7.487l.005-.148c.015-.296-.203-.547-.487-.56-.284-.018-.526.21-.54.5l-.018.654v.016c.007.29.235.52.515.52.285 0 .515-.24.515-.532v-.01l.007-.374-.007.38c0 3.648 1.752 6.727 4.13 7.65l-.1 2.48h-4.03v-3.36c0-.294-.23-.533-.515-.533H17.73l.192-3.693v-5.932l.06-.06 1.355-1.655c.13-.16.16-.38.074-.57-.08-.187-.262-.31-.463-.31h-1.94v-4.053c0-.294-.23-.533-.516-.533-.284 0-.514.24-.514.533v4.055h-.39v-2.33c0-.294-.232-.532-.516-.532-.286 0-.517.24-.517.533v2.33h-9.64v-2.33c0-.294-.23-.532-.514-.532-.287 0-.517.24-.517.535v2.33H.533c-.16 0-.316.084-.413.22-.097.14-.124.317-.073.48l.518 1.654c.07.22.267.367.49.367h1.59v5.71l-.4 7.682h-.82c-.567 0-1.028.476-1.028 1.064 0 .59.46 1.064 1.03 1.064h29.307c.568 0 1.03-.476 1.03-1.065s-.462-1.066-1.03-1.066h-3.53l-.127-1.9c.097.154.26.24.43.24.075 0 .154-.017.227-.054.196-.1.39-.214.577-.338.24-.16.31-.49.158-.736-.153-.248-.472-.32-.71-.16-.155.102-.315.196-.476.28-.11.053-.19.144-.236.25l-.01-.144c2.18-.967 3.792-3.77 3.924-7.122l-.006.143c-.013.294.205.544.49.56h.026c.272 0 .5-.22.514-.503L32 95.05v-.01c0-.295-.23-.528-.515-.528zM17.83 90.13l-.482.59H1.428l-.184-.59H17.83zM3.655 97.89l.02-.356v-.04h2.15v.05l-.017.347H3.655zm.02-3.32h2.15v.397h-2.15v-.398zm0 1.462h2.15v.397h-2.15v-.4zm1.98 4.784H3.5l.02-.397h2.152l-.02.393zm-2.207 1.065h2.15l-.02.4h-2.15l.02-.396zm-.076 1.466h2.15l-.02.397H3.35l.02-.396zm.303-11.55h2.15v.25h-2.15v-.25zm0 1.314h2.15v.396h-2.15v-.397zm2.057 6.245H3.578l.02-.397H5.75l-.02.373v.025zm1.123-1.766v-5.806H8.18v5.708L8.11 98.8H6.79l.063-1.21zm7.887-1.558h2.15v.398h-2.15v-.396zm1.903 6.247h-2.15l.02-.4h2.15l-.02.398zm-1.903-7.71h2.15v.4h-2.15v-.4zm0 2.965v-.04h2.15v.05l-.017.347H14.72l.02-.356zm-.075 1.422h2.15l-.02.397h-2.15l.02-.397zm1.67 1.463h.405l-.02.398H14.57l.02-.397h1.745zm-1.597-7.31h2.15v.397h-2.15v-.397zm0-1.315h2.15v.25h-2.15v-.25zm-.323 11.948l.02-.396h2.15l-.02.397h-2.15zm-3.06-10.234h-2.15v-.4h2.15v.4zm0 1.46h-2.15v-.4h2.15v.4zm0 1.462l-.005-.002H9.207v-.396h2.152v.4zm-.247 5.848H8.96l.02-.396h2.15l-.02.4zm.075-1.46h-2.15l.02-.398h2.15l-.02.395zm.076-1.464H9.11l.02-.397h2.152l-.02.395zM9.21 91.79h2.15v.25h-2.15v-.25zm-.323 11.95l.02-.398h2.15l-.02.397h-2.15zm2.474-6.197l-.02.347H9.19l.017-.357v-.04h2.146l.007-.002v.055zm-2.55 7.63l.02-.37h2.15l-.02.37H8.81zm3.577-13.39h1.324v5.164h-1.324v-5.165zm1.956 13.39l.02-.37h2.15l-.01.148-.01.226h-2.15zm-11.047-.37h2.15l-.02.37h-2.15l.02-.37zm14.375-2.458h1.04v2.828h-1.19l.147-2.828zM6.695 100.56l.036-.7h1.32l-.275 5.314H6.452l.24-4.615zm5.407 2.42l.26-4.967h1.32l-.37 7.16h-1.32l.114-2.192zm13.08-7.405h.355l.415 6.275c-.197.04-.397.06-.6.06-.14 0-.283-.01-.42-.03l.25-6.305zm-.13 7.39l-.163-.017v-.002l.165.018zm1.12 2.21h-1.373l.046-1.162c.17.017.34.03.51.03h.01c.286 0 .516-.24.516-.535 0-.293-.23-.533-.516-.533h-.01l-.288-.01.288.01c.227 0 .45-.02.67-.058l.15 2.257zm.787-3.7l-.43-6.468c-.017-.28-.242-.496-.512-.496H24.98l-.146.028-.125-.024c-.286-.013-.525.217-.537.51l-.26 6.543c-1.826-.907-3.146-3.485-3.146-6.52 0-3.786 2.057-6.867 4.585-6.867s4.585 3.08 4.585 6.867c0 2.94-1.24 5.456-2.98 6.432zm.782-13.624c.15.1.302.216.447.336.095.08.208.117.32.117.152 0 .302-.07.403-.2.176-.23.14-.564-.08-.75-.175-.142-.356-.275-.538-.396-.24-.16-.557-.086-.71.162-.153.247-.083.577.157.734zm2.88 4.43c.05.19.093.387.13.58.05.25.264.426.504.426l.105-.01c.277-.06.456-.343.4-.63-.045-.216-.095-.43-.15-.64-.074-.285-.356-.453-.63-.376-.276.076-.438.37-.364.652m-.73 16.338c-.287 0-.407-.066-.59-.167-.235-.13-.528-.29-1.073-.29-.543 0-.837.16-1.073.29-.18.1-.3.168-.59.168-.287 0-.407-.064-.588-.165-.236-.13-.53-.29-1.074-.29s-.84.16-1.075.29c-.18.1-.3.168-.587.168s-.406-.066-.587-.167c-.237-.13-.53-.29-1.075-.29s-.838.16-1.073.29c-.182.1-.3.168-.588.168-.286 0-.406-.066-.587-.167-.237-.13-.53-.29-1.075-.29s-.838.16-1.073.29c-.18.1-.3.168-.587.168s-.406-.066-.587-.167c-.237-.13-.53-.29-1.074-.29s-.838.16-1.074.29c-.18.1-.3.168-.588.168s-.406-.066-.587-.167c-.236-.13-.53-.29-1.074-.29s-.838.16-1.073.29c-.18.1-.3.167-.587.167s-.404-.066-.586-.167c-.236-.13-.53-.29-1.073-.29-.542 0-.836.16-1.072.29-.18.1-.3.167-.588.167s-.406-.066-.587-.167c-.236-.13-.53-.29-1.073-.29-.543 0-.837.16-1.073.29-.18.1-.3.168-.587.168s-.406-.066-.587-.167c-.236-.13-.53-.29-1.073-.29-.285 0-.515.24-.515.53 0 .297.23.536.515.536.286 0 .405.066.587.167.236.13.53.294 1.074.294.547 0 .84-.163 1.076-.293.182-.1.3-.166.588-.166.286 0 .406.066.587.167.236.13.53.294 1.073.294s.838-.164 1.073-.294c.18-.1.302-.166.588-.166s.405.065.587.166c.237.13.53.294 1.074.294s.838-.163 1.073-.293c.18-.1.3-.166.586-.166s.406.068.588.17c.238.13.53.293 1.075.293s.838-.163 1.073-.293c.18-.1.3-.167.59-.167.285 0 .405.066.586.167.236.13.53.294 1.074.294s.838-.163 1.073-.293c.18-.1.3-.164.587-.164s.405.066.587.167c.236.13.53.294 1.073.294.544 0 .838-.163 1.074-.293.183-.1.303-.166.59-.166s.405.066.586.167c.235.13.53.294 1.073.294.542 0 .836-.164 1.07-.294.18-.1.303-.166.59-.166s.405.065.587.166c.237.13.53.294 1.074.294.546 0 .84-.163 1.076-.293.18-.1.3-.166.587-.166s.406.068.588.17c.238.13.53.293 1.075.293.283 0 .514-.238.514-.533 0-.294-.233-.533-.517-.533m-3.73 1.704c-.247 0-.346-.05-.508-.14-.204-.106-.483-.256-.98-.256-.498 0-.778.15-.982.26-.163.086-.26.14-.508.14-.246 0-.344-.054-.507-.14-.205-.11-.484-.26-.982-.26-.496 0-.776.15-.98.26-.163.086-.26.14-.507.14s-.346-.054-.508-.14c-.203-.11-.482-.26-.98-.26-.497 0-.777.15-.98.26-.16.086-.26.14-.508.14-.284 0-.514.238-.514.532 0 .295.23.533.513.533.5 0 .778-.15.98-.26.164-.088.26-.14.51-.14s.345.052.51.14c.202.11.48.26.98.26.496 0 .776-.15.98-.26.162-.088.26-.14.507-.14s.345.052.507.14c.203.11.483.26.98.26.5 0 .78-.15.98-.26.164-.088.26-.14.51-.14.245 0 .344.052.506.14.204.11.483.26.98.26.286 0 .516-.24.516-.535 0-.294-.23-.533-.516-.533m-7.466-25.98h2.875c.283 0 .514-.236.514-.53 0-.294-.23-.533-.515-.533h-2.87c-.283 0-.514.24-.514.532 0 .296.23.534.515.534m1.14-1.438h4.858c.286 0 .516-.24.516-.533 0-.294-.23-.533-.514-.533h-4.86c-.284 0-.514.238-.514.532 0 .294.23.533.515.533" fill="#fff"/><path d="M1.722 43.46c.26.235.592.366.936.366h4.204l-.017.2c0 .362.15.707.415.947.223.204.51.316.807.316h4.345c.674 0 1.222-.57 1.222-1.27s-.548-1.263-1.222-1.263h-.228c.035-.13.056-.264.056-.403 0-.81-.637-1.467-1.418-1.467H2.657c-.344 0-.677.13-.936.368-.302.28-.48.68-.48 1.1 0 .42.178.82.48 1.1zm.68-1.402c.05-.047.136-.1.256-.1h8.165c.214 0 .388.18.388.4 0 .223-.17.403-.384.403-.284 0-.515.24-.515.536h-.003c0 .295.23.533.515.533h1.595c.107 0 .193.09.193.2 0 .11-.086.2-.193.2h-4.35l-.126-.05c-.02-.024-.062-.074-.062-.15 0-.08.04-.13.067-.15l.126-.05h.003c.285 0 .516-.24.516-.535 0-.294-.23-.532-.516-.532H2.66c-.12 0-.207-.054-.257-.1-.085-.08-.132-.185-.132-.3 0-.118.05-.224.136-.3zm20 21.07c.087.057.184.085.28.085.168 0 .334-.087.433-.245.153-.248.083-.578-.156-.735-.156-.1-.306-.213-.45-.333-.22-.184-.547-.147-.725.083-.177.23-.142.564.08.75.173.142.353.276.535.397zm-2.446-2.803c.104.195.215.387.33.57.1.157.265.243.433.243.092 0 .19-.028.28-.086.234-.16.3-.49.15-.737-.105-.162-.2-.33-.29-.504-.14-.253-.45-.35-.7-.21-.25.146-.34.47-.206.727zm.48-10.394c.085.06.183.09.28.09.167 0 .333-.086.43-.243l.18-.274.147-.204c.173-.234.13-.57-.096-.747-.225-.18-.55-.135-.72.098l-.167.235-.206.312c-.155.246-.086.576.152.737zm10.347 9.1l.164.03c.215 0 .416-.14.488-.362.067-.207.128-.42.184-.632.07-.284-.09-.576-.368-.652-.275-.075-.557.094-.63.377l-.166.57c-.09.28.054.58.324.673zm-.51 1.12c-.24-.16-.558-.09-.712.158l-.18.28-.142.198c-.173.234-.13.568.096.747.095.074.204.11.313.11.155 0 .307-.073.41-.21l.162-.227.21-.318c.152-.246.084-.576-.154-.737zM19.95 57.22c-.057-.287-.33-.472-.607-.413-.28.06-.458.34-.4.63.043.213.092.43.147.64.062.236.27.393.496.393l.134-.018c.275-.077.436-.37.362-.652l-.132-.58zm9.893-6.952c.094.175.27.275.45.275.085 0 .17-.02.25-.066.248-.142.34-.466.2-.723-.103-.195-.214-.387-.33-.57-.155-.247-.474-.317-.712-.156s-.3.49-.15.737c.106.162.2.33.295.504zm-6.867-3.646c-.196.1-.39.213-.578.338-.24.16-.308.488-.155.735.098.16.264.245.433.245.096 0 .192-.028.278-.085.155-.103.315-.197.476-.28.255-.13.36-.448.235-.71-.125-.265-.434-.374-.69-.244zm-3.053 4.426c-.27-.094-.56.056-.652.335-.063.207-.125.42-.18.63-.074.285.09.577.363.654l.135.018c.228 0 .435-.157.497-.394l.167-.57c.09-.274-.055-.58-.324-.67zm11.557 3.457c-.284 0-.514.243-.514.537l-.007.378.003-.378c0-4.23-2.354-7.696-5.308-7.92l.23.02.064.006c.256 0 .477-.197.51-.467.035-.29-.165-.554-.447-.59-.218-.03-.44-.043-.662-.043h-.005c-.285 0-.512.24-.512.533 0 .293.234.53.518.53l.287.01-.287-.01c-2.99 0-5.44 3.32-5.602 7.487l.005-.148c.015-.296-.203-.547-.487-.56-.284-.018-.526.21-.54.5l-.018.654v.016c.007.29.235.52.515.52.285 0 .515-.24.515-.532v-.01l.007-.374-.007.38c0 3.648 1.752 6.727 4.13 7.65l-.1 2.48h-4.03v-3.36c0-.294-.23-.533-.515-.533H17.73l.192-3.693v-5.932l.06-.06 1.355-1.655c.13-.16.16-.38.074-.57-.08-.187-.262-.31-.463-.31h-1.94v-4.053c0-.294-.23-.533-.516-.533-.284 0-.514.24-.514.533v4.055h-.39v-2.33c0-.294-.232-.532-.516-.532-.286 0-.517.24-.517.533v2.33h-9.64v-2.33c0-.294-.23-.532-.514-.532-.287 0-.517.24-.517.535v2.33H.533c-.16 0-.316.084-.413.22-.097.14-.124.317-.073.48l.518 1.654c.07.22.267.367.49.367h1.59v5.71l-.4 7.682h-.82c-.567 0-1.028.476-1.028 1.064 0 .59.46 1.064 1.03 1.064h29.307c.568 0 1.03-.476 1.03-1.065s-.462-1.066-1.03-1.066h-3.53l-.127-1.9c.097.154.26.24.43.24.075 0 .154-.017.227-.054.196-.1.39-.214.577-.338.24-.16.31-.49.158-.736-.153-.248-.472-.32-.71-.16-.155.102-.315.196-.476.28-.11.053-.19.144-.236.25l-.01-.144c2.18-.967 3.792-3.77 3.924-7.122l-.006.143c-.013.294.205.544.49.56h.026c.272 0 .5-.22.514-.503L32 55.05v-.01c0-.295-.23-.528-.515-.528zM17.83 50.13l-.482.59H1.428l-.184-.59H17.83zM3.655 57.89l.02-.356v-.04h2.15v.05l-.017.347H3.655zm.02-3.32h2.15v.397h-2.15v-.398zm0 1.462h2.15v.397h-2.15v-.4zm1.98 4.784H3.5l.02-.397h2.152l-.02.393zm-2.21 1.064h2.15l-.02.398h-2.15l.02-.397zm-.075 1.463h2.15l-.02.397H3.35l.02-.397zm.303-11.55h2.15v.25h-2.15v-.25zm0 1.314h2.15v.397h-2.15v-.397zm2.057 6.246H3.578l.02-.397H5.75l-.02.373v.02zm1.123-1.766v-5.804H8.18v5.708l-.07 1.31H6.79l.063-1.21zm7.887-1.556h2.15v.4h-2.15v-.396zm1.903 6.25h-2.15l.02-.397h2.15l-.02.398zm-1.903-7.71h2.15v.4h-2.15v-.4zm0 2.967v-.04h2.15v.05l-.017.347H14.72l.02-.356zm-.075 1.422h2.15l-.02.396h-2.15l.02-.397zm1.67 1.462h.405l-.02.397h-2.152l.02-.398h1.745zM14.74 53.11h2.15v.397h-2.15v-.397zm0-1.315h2.15v.25h-2.15v-.25zm-.326 11.948l.02-.396h2.15l-.02.397h-2.15zm-3.06-10.234H9.208v-.4h2.15v.4zm0 1.46H9.208v-.4h2.15v.4zm0 1.463l-.005-.003H9.205v-.397h2.152v.398zm-.247 5.847H8.96l.02-.397h2.15l-.02.398zm.075-1.462h-2.15l.02-.397h2.15l-.02.397zm.076-1.463H9.11l.02-.397h2.152l-.02.397zM9.205 51.79h2.15v.25h-2.15v-.25zm-.323 11.95l.02-.398h2.15l-.02.397h-2.15zm2.474-6.197l-.02.347h-2.15l.018-.357v-.04h2.146l.007-.002v.055zm-2.55 7.63l.02-.37h2.15l-.02.37h-2.15zm3.578-13.39h1.324v5.164h-1.325v-5.165zm1.956 13.39l.02-.37h2.15l-.01.148-.01.226h-2.15zm-11.047-.37h2.15l-.02.37h-2.15l.02-.37zm14.375-2.458h1.038v2.828H17.52l.147-2.828zM6.694 60.56l.036-.7h1.32l-.275 5.314H6.452l.24-4.615zm5.407 2.42l.26-4.967h1.32l-.37 7.16h-1.32l.114-2.192zm13.08-7.405h.355l.415 6.275c-.197.04-.397.06-.6.06-.14 0-.283-.01-.42-.03l.25-6.305zm-.13 7.39l-.163-.017v-.002l.165.018zm1.12 2.21h-1.373l.046-1.162c.17.017.34.03.51.03h.01c.286 0 .516-.24.516-.535 0-.293-.23-.533-.516-.533h-.01l-.288-.01.288.01c.227 0 .45-.02.67-.058l.15 2.257zm.787-3.7l-.43-6.468c-.017-.28-.242-.496-.512-.496H24.98l-.146.028-.125-.024c-.286-.013-.525.217-.537.51l-.26 6.543c-1.826-.907-3.146-3.485-3.146-6.52 0-3.786 2.057-6.867 4.585-6.867s4.585 3.08 4.585 6.867c0 2.94-1.24 5.456-2.98 6.432zm.782-13.624c.15.1.302.216.447.336.095.08.208.117.32.117.152 0 .302-.07.403-.2.176-.23.14-.564-.08-.75-.175-.142-.356-.275-.538-.396-.24-.16-.557-.086-.71.162-.153.247-.083.577.157.734zm2.88 4.43c.05.19.093.387.13.58.05.25.264.426.504.426l.105-.01c.277-.06.456-.343.4-.63-.045-.216-.095-.43-.15-.64-.074-.285-.356-.453-.63-.376-.276.076-.438.37-.364.652m-.73 16.338c-.287 0-.407-.066-.59-.167-.235-.13-.528-.29-1.073-.29-.543 0-.837.16-1.073.29-.18.1-.3.168-.59.168-.287 0-.407-.064-.588-.165-.236-.13-.53-.29-1.074-.29s-.84.16-1.075.29c-.18.1-.3.168-.587.168s-.406-.066-.587-.167c-.237-.13-.53-.29-1.075-.29s-.838.16-1.073.29c-.182.1-.3.168-.588.168-.286 0-.406-.066-.587-.167-.237-.13-.53-.29-1.075-.29s-.838.16-1.073.29c-.18.1-.3.168-.587.168s-.406-.066-.587-.167c-.237-.13-.53-.29-1.074-.29s-.838.16-1.074.29c-.18.1-.3.168-.588.168s-.406-.066-.587-.167c-.236-.13-.53-.29-1.074-.29s-.838.16-1.073.29c-.18.1-.3.167-.587.167s-.404-.066-.586-.167c-.236-.13-.53-.29-1.073-.29-.542 0-.836.16-1.072.29-.18.1-.3.167-.588.167s-.406-.066-.587-.167c-.236-.13-.53-.29-1.073-.29-.543 0-.837.16-1.073.29-.18.1-.3.168-.587.168s-.406-.066-.587-.167c-.236-.13-.53-.29-1.073-.29-.285 0-.515.24-.515.53 0 .297.23.536.515.536.286 0 .405.066.587.167.236.13.53.294 1.074.294.547 0 .84-.163 1.076-.293.182-.1.3-.166.588-.166.286 0 .406.066.587.167.236.13.53.294 1.073.294s.838-.164 1.073-.294c.18-.1.302-.166.588-.166s.405.065.587.166c.237.13.53.294 1.074.294s.838-.163 1.073-.293c.18-.1.3-.166.586-.166s.406.068.588.17c.238.13.53.293 1.075.293s.838-.163 1.073-.293c.18-.1.3-.167.59-.167.285 0 .405.066.586.167.236.13.53.294 1.074.294s.838-.163 1.073-.293c.18-.1.3-.164.587-.164s.405.066.587.167c.236.13.53.294 1.073.294.544 0 .838-.163 1.074-.293.183-.1.303-.166.59-.166s.405.066.586.167c.235.13.53.294 1.073.294.542 0 .836-.164 1.07-.294.18-.1.303-.166.59-.166s.405.065.587.166c.237.13.53.294 1.074.294.546 0 .84-.163 1.076-.293.18-.1.3-.166.587-.166s.406.068.588.17c.238.13.53.293 1.075.293.283 0 .514-.238.514-.533 0-.294-.233-.533-.517-.533m-3.73 1.704c-.247 0-.346-.05-.508-.14-.204-.106-.483-.256-.98-.256-.498 0-.778.15-.982.26-.163.086-.26.14-.508.14-.246 0-.344-.054-.507-.14-.205-.11-.484-.26-.982-.26-.496 0-.776.15-.98.26-.163.086-.26.14-.507.14s-.346-.054-.508-.14c-.203-.11-.482-.26-.98-.26-.497 0-.777.15-.98.26-.16.086-.26.14-.508.14-.284 0-.514.238-.514.532 0 .295.23.533.513.533.5 0 .778-.15.98-.26.164-.088.26-.14.51-.14s.345.052.51.14c.202.11.48.26.98.26.496 0 .776-.15.98-.26.162-.088.26-.14.507-.14s.345.052.507.14c.203.11.483.26.98.26.5 0 .78-.15.98-.26.164-.088.26-.14.51-.14.245 0 .344.052.506.14.204.11.483.26.98.26.286 0 .516-.24.516-.535 0-.294-.23-.533-.516-.533m-7.466-25.98h2.875c.283 0 .514-.236.514-.53 0-.294-.23-.533-.515-.533h-2.87c-.283 0-.514.24-.514.532 0 .296.23.534.515.534m1.14-1.438h4.858c.286 0 .516-.24.516-.533 0-.294-.23-.533-.514-.533h-4.86c-.284 0-.514.238-.514.532 0 .294.23.533.515.533" fill="#67737B"/><path d="M1.722 3.46c.26.235.592.366.936.366h4.204l-.017.2c0 .362.15.707.415.947.223.204.51.316.807.316h4.345c.674 0 1.222-.57 1.222-1.27s-.548-1.263-1.222-1.263h-.228c.035-.13.056-.264.056-.403 0-.81-.637-1.467-1.418-1.467H2.657c-.344 0-.677.13-.936.368-.302.28-.48.68-.48 1.1 0 .42.178.82.48 1.1zm.68-1.402c.05-.047.136-.1.256-.1h8.165c.214 0 .388.18.388.4 0 .223-.17.403-.384.403-.284 0-.515.24-.515.536h-.003c0 .295.23.533.515.533h1.595c.107 0 .193.09.193.2 0 .11-.086.2-.193.2h-4.35l-.126-.05c-.02-.024-.062-.074-.062-.15 0-.08.04-.13.067-.15l.126-.05h.003c.285 0 .516-.24.516-.535 0-.294-.23-.532-.516-.532H2.66c-.12 0-.207-.054-.257-.1-.085-.08-.132-.185-.132-.3 0-.118.05-.224.136-.3zm20 21.07c.087.057.184.085.28.085.168 0 .334-.087.433-.245.153-.248.083-.578-.156-.735-.156-.1-.306-.213-.45-.333-.22-.184-.547-.147-.725.083-.177.23-.142.564.08.75.173.142.353.276.535.397zm-2.446-2.803c.104.195.215.387.33.57.1.157.265.243.433.243.092 0 .19-.028.28-.086.234-.16.3-.49.15-.737-.105-.162-.2-.33-.29-.504-.14-.253-.45-.35-.7-.21-.25.146-.34.47-.206.727zm.48-10.394c.085.06.183.09.28.09.167 0 .333-.086.43-.243l.18-.274.147-.204c.173-.234.13-.57-.096-.747-.225-.18-.55-.135-.72.098l-.167.235-.206.312c-.155.246-.086.576.152.737zm10.347 9.1l.164.03c.215 0 .416-.14.488-.362.067-.207.128-.42.184-.632.07-.284-.09-.576-.368-.652-.275-.075-.557.094-.63.377l-.166.57c-.09.28.054.58.324.673zm-.51 1.12c-.24-.16-.558-.09-.712.158l-.18.28-.142.198c-.173.234-.13.568.096.747.095.074.204.11.313.11.155 0 .307-.073.41-.21l.162-.227.21-.318c.152-.246.084-.576-.154-.737zM19.95 17.22c-.057-.287-.33-.472-.607-.413-.28.06-.458.34-.4.63.043.213.092.43.147.64.062.236.27.393.496.393l.134-.018c.275-.077.436-.37.362-.652l-.132-.58zm9.893-6.952c.094.175.27.275.45.275.085 0 .17-.02.25-.066.248-.142.34-.466.2-.723-.103-.195-.214-.387-.33-.57-.155-.247-.474-.317-.712-.156s-.3.49-.15.737c.106.162.2.33.295.504zm-6.867-3.646c-.196.1-.39.213-.578.338-.24.16-.308.488-.155.735.098.16.264.245.433.245.096 0 .192-.028.278-.085.155-.103.315-.197.476-.28.255-.13.36-.448.235-.71-.125-.265-.434-.374-.69-.244zm-3.053 4.426c-.27-.094-.56.056-.652.335-.063.207-.125.42-.18.63-.074.285.09.577.363.654l.135.018c.228 0 .435-.157.497-.394l.167-.57c.09-.274-.055-.58-.324-.67zm11.557 3.457c-.284 0-.514.243-.514.537l-.007.378.003-.378c0-4.23-2.354-7.696-5.308-7.92l.23.02.064.006c.256 0 .477-.197.51-.467.035-.29-.165-.554-.447-.59-.218-.03-.44-.043-.662-.043h-.005c-.285 0-.512.24-.512.533 0 .293.234.53.518.53l.287.01-.287-.01c-2.99 0-5.44 3.32-5.602 7.487l.005-.148c.015-.296-.203-.547-.487-.56-.284-.018-.526.21-.54.5l-.018.654v.016c.007.29.235.52.515.52.285 0 .515-.24.515-.532v-.01l.007-.374-.007.38c0 3.648 1.752 6.727 4.13 7.65l-.1 2.48h-4.03v-3.36c0-.294-.23-.533-.515-.533H17.73l.192-3.693v-5.932l.06-.06 1.355-1.655c.13-.16.16-.38.074-.57-.08-.187-.262-.31-.463-.31h-1.94V5.008c0-.294-.23-.533-.516-.533-.284 0-.514.24-.514.533V9.06h-.39V6.73c0-.295-.232-.533-.516-.533-.286 0-.517.24-.517.533v2.33h-9.64V6.73c0-.295-.23-.533-.514-.533-.287 0-.517.24-.517.533v2.33H.533c-.16 0-.316.083-.413.22-.097.138-.124.316-.073.478l.518 1.655c.07.22.267.368.49.368h1.59v5.71l-.4 7.685h-.82c-.567 0-1.028.477-1.028 1.065 0 .59.46 1.064 1.03 1.064h29.307c.568 0 1.03-.476 1.03-1.065s-.462-1.067-1.03-1.067h-3.53l-.127-1.9c.097.154.26.24.43.24.075 0 .154-.017.227-.054.196-.1.39-.216.577-.34.24-.16.31-.49.158-.736-.153-.247-.472-.32-.71-.16-.155.103-.315.197-.476.28-.11.054-.19.145-.236.25l-.01-.143c2.18-.966 3.792-3.77 3.924-7.12l-.006.14c-.013.295.205.545.49.56h.026c.272 0 .5-.22.514-.502L32 15.04v-.01c0-.293-.23-.526-.515-.526zM17.83 10.13l-.482.59H1.428l-.184-.59H17.83zM3.655 17.89l.02-.356v-.04h2.15v.05l-.017.347H3.655zm.02-3.32h2.15v.397h-2.15v-.398zm0 1.462h2.15v.397h-2.15v-.4zm1.98 4.784H3.5l.02-.397h2.152l-.02.393zm-2.21 1.064h2.15l-.02.398h-2.15l.02-.397zm-.075 1.463h2.15l-.02.397H3.35l.02-.397zm.303-11.55h2.15v.25h-2.15v-.25zm0 1.314h2.15v.397h-2.15v-.397zm2.057 6.246H3.578l.02-.397H5.75l-.02.373v.02zm1.123-1.766v-5.804H8.18v5.708l-.07 1.31H6.79l.063-1.21zm7.887-1.556h2.15v.4h-2.15v-.396zm1.903 6.25h-2.15l.02-.397h2.15l-.02.398zm-1.903-7.71h2.15v.4h-2.15v-.4zm0 2.967v-.04h2.15v.05l-.017.347H14.72l.02-.356zm-.075 1.422h2.15l-.02.396h-2.15l.02-.397zm1.67 1.462h.405l-.02.397h-2.152l.02-.398h1.745zM14.74 13.11h2.15v.397h-2.15v-.397zm0-1.315h2.15v.25h-2.15v-.25zm-.326 11.948l.02-.396h2.15l-.02.397h-2.15zm-3.06-10.234H9.208v-.4h2.15v.4zm0 1.46H9.208v-.4h2.15v.4zm0 1.463l-.005-.003H9.205v-.397h2.152v.398zm-.247 5.847H8.96l.02-.397h2.15l-.02.398zm.075-1.462h-2.15l.02-.397h2.15l-.02.397zm.076-1.463H9.11l.02-.397h2.152l-.02.397zM9.205 11.79h2.15v.25h-2.15v-.25zm-.323 11.95l.02-.398h2.15l-.02.397h-2.15zm2.474-6.197l-.02.347h-2.15l.018-.357v-.04h2.146l.007-.002v.055zm-2.55 7.63l.02-.37h2.15l-.02.37h-2.15zm3.578-13.39h1.324v5.164h-1.325v-5.165zm1.956 13.39l.02-.37h2.15l-.01.148-.01.226h-2.15zm-11.047-.37h2.15l-.02.37h-2.15l.02-.37zm14.375-2.458h1.038v2.828H17.52l.147-2.828zM6.694 20.56l.036-.7h1.32l-.275 5.314H6.452l.24-4.615zm5.407 2.42l.26-4.967h1.32l-.37 7.16h-1.32l.114-2.192zm13.08-7.405h.355l.415 6.275c-.197.04-.397.06-.6.06-.14 0-.283-.01-.42-.03l.25-6.305zm-.13 7.39l-.163-.017v-.002l.165.018zm1.12 2.21h-1.373l.046-1.162c.17.017.34.03.51.03h.01c.286 0 .516-.24.516-.535 0-.293-.23-.533-.516-.533h-.01l-.288-.01.288.01c.227 0 .45-.02.67-.058l.15 2.257zm.787-3.7l-.43-6.468c-.017-.28-.242-.496-.512-.496H24.98l-.146.028-.125-.024c-.286-.013-.525.217-.537.51l-.26 6.543c-1.826-.907-3.146-3.485-3.146-6.52 0-3.786 2.057-6.867 4.585-6.867s4.585 3.08 4.585 6.867c0 2.94-1.24 5.456-2.98 6.432zM27.74 7.85c.15.1.302.216.447.336.095.08.208.117.32.117.152 0 .302-.07.403-.2.176-.23.14-.564-.08-.75-.175-.142-.356-.275-.538-.396-.24-.16-.557-.086-.71.162-.153.247-.083.577.157.734zm2.88 4.43c.05.19.093.387.13.58.05.25.264.426.504.426l.105-.01c.277-.06.456-.343.4-.63-.045-.216-.095-.43-.15-.64-.074-.285-.356-.453-.63-.376-.276.076-.438.37-.364.652m-.73 16.338c-.287 0-.407-.066-.59-.167-.235-.13-.528-.29-1.073-.29-.543 0-.837.16-1.073.29-.18.1-.3.168-.59.168-.287 0-.407-.064-.588-.165-.236-.13-.53-.29-1.074-.29s-.84.16-1.075.29c-.18.1-.3.168-.587.168s-.406-.066-.587-.167c-.237-.13-.53-.29-1.075-.29s-.838.16-1.073.29c-.182.1-.3.168-.588.168-.286 0-.406-.066-.587-.167-.237-.13-.53-.29-1.075-.29s-.838.16-1.073.29c-.18.1-.3.168-.587.168s-.406-.066-.587-.167c-.237-.13-.53-.29-1.074-.29s-.838.16-1.074.29c-.18.1-.3.168-.588.168s-.406-.066-.587-.167c-.236-.13-.53-.29-1.074-.29s-.838.16-1.073.29c-.18.1-.3.167-.587.167s-.404-.066-.586-.167c-.236-.13-.53-.29-1.073-.29-.542 0-.836.16-1.072.29-.18.1-.3.167-.588.167s-.406-.066-.587-.167c-.236-.13-.53-.29-1.073-.29-.543 0-.837.16-1.073.29-.18.1-.3.168-.587.168s-.406-.066-.587-.167c-.236-.13-.53-.29-1.073-.29-.285 0-.515.24-.515.53 0 .297.23.536.515.536.286 0 .405.066.587.167.236.13.53.294 1.074.294.547 0 .84-.163 1.076-.293.182-.1.3-.166.588-.166.286 0 .406.066.587.167.236.13.53.294 1.073.294s.838-.164 1.073-.294c.18-.1.302-.166.588-.166s.405.065.587.166c.237.13.53.294 1.074.294s.838-.163 1.073-.293c.18-.1.3-.166.586-.166s.406.068.588.17c.238.13.53.293 1.075.293s.838-.163 1.073-.293c.18-.1.3-.167.59-.167.285 0 .405.066.586.167.236.13.53.294 1.074.294s.838-.163 1.073-.293c.18-.1.3-.164.587-.164s.405.066.587.167c.236.13.53.294 1.073.294.544 0 .838-.163 1.074-.293.183-.1.303-.166.59-.166s.405.066.586.167c.235.13.53.294 1.073.294.542 0 .836-.164 1.07-.294.18-.1.303-.166.59-.166s.405.065.587.166c.237.13.53.294 1.074.294.546 0 .84-.163 1.076-.293.18-.1.3-.166.587-.166s.406.068.588.17c.238.13.53.293 1.075.293.283 0 .514-.238.514-.533 0-.294-.233-.533-.517-.533m-3.73 1.704c-.247 0-.346-.05-.508-.14-.204-.106-.483-.256-.98-.256-.498 0-.778.15-.982.26-.163.086-.26.14-.508.14-.246 0-.344-.054-.507-.14-.205-.11-.484-.26-.982-.26-.496 0-.776.15-.98.26-.163.086-.26.14-.507.14s-.346-.054-.508-.14c-.203-.11-.482-.26-.98-.26-.497 0-.777.15-.98.26-.16.086-.26.14-.508.14-.284 0-.514.238-.514.532 0 .295.23.533.513.533.5 0 .778-.15.98-.26.164-.088.26-.14.51-.14s.345.052.51.14c.202.11.48.26.98.26.496 0 .776-.15.98-.26.162-.088.26-.14.507-.14s.345.052.507.14c.203.11.483.26.98.26.5 0 .78-.15.98-.26.164-.088.26-.14.51-.14.245 0 .344.052.506.14.204.11.483.26.98.26.286 0 .516-.24.516-.535 0-.294-.23-.533-.516-.533M18.69 4.344h2.875c.284 0 .515-.237.515-.532 0-.292-.23-.53-.515-.53H18.69c-.283 0-.514.24-.514.532 0 .296.23.534.515.534m1.14-1.438h4.86c.284 0 .514-.24.514-.533 0-.294-.23-.533-.514-.533h-4.86c-.284 0-.514.238-.514.532 0 .294.23.533.515.533" fill="#3A434E"/></g></svg>