<svg width="32" height="232" viewBox="0 0 32 232" xmlns="http://www.w3.org/2000/svg"><desc>Created with Sketch.</desc><g fill="none"><path d="M1.722 123.46c.26.235.592.366.936.366h4.204l-.017.2c0 .362.15.707.415.947.223.204.51.316.807.316h4.345c.674 0 1.222-.57 1.222-1.27s-.548-1.27-1.222-1.27h-.228c.035-.13.056-.27.056-.41 0-.81-.637-1.47-1.418-1.47H2.657c-.344 0-.677.13-.936.37-.3.28-.48.68-.48 1.1 0 .42.18.82.48 1.1zm.68-1.402c.05-.047.136-.1.256-.1h8.165c.214 0 .388.18.388.4 0 .223-.17.403-.38.403-.28 0-.51.24-.51.54 0 .3.23.54.52.54h1.6c.11 0 .19.09.19.2 0 .11-.08.2-.19.2H8.07l-.127-.05c-.02-.02-.062-.07-.062-.15 0-.08.04-.13.07-.15l.13-.05h.01c.29 0 .52-.24.52-.53 0-.29-.23-.53-.51-.53H2.66c-.12 0-.207-.05-.257-.1-.085-.08-.132-.18-.132-.3 0-.11.05-.22.14-.3zm20 21.07c.087.057.184.085.28.085.168 0 .334-.087.433-.245.153-.248.083-.578-.156-.735-.16-.1-.31-.213-.45-.333-.22-.184-.55-.147-.73.083-.18.23-.14.564.08.75.17.142.35.276.53.397zm-2.446-2.803c.104.195.215.387.33.57.1.157.265.243.433.243.09 0 .19-.028.28-.086.23-.16.3-.49.15-.737-.11-.162-.2-.33-.29-.504-.14-.25-.45-.35-.7-.21-.25.15-.34.47-.21.73zm.48-10.394c.085.06.183.09.28.09.167 0 .333-.08.43-.24l.18-.27.147-.2c.173-.23.13-.57-.096-.74-.225-.18-.55-.13-.72.1l-.167.24-.206.32c-.155.25-.086.58.152.74zm10.347 9.1l.164.03c.215 0 .416-.14.488-.36.067-.2.128-.42.184-.63.07-.28-.09-.57-.37-.65-.28-.07-.56.1-.63.38l-.17.57c-.09.28.05.58.32.68zm-.51 1.12c-.24-.16-.558-.09-.712.16l-.18.28-.14.2c-.17.24-.13.57.1.75.1.08.21.11.32.11.16 0 .31-.07.41-.21l.16-.22.21-.32c.16-.24.09-.57-.15-.73zm-10.323-2.93c-.057-.28-.33-.47-.607-.41-.28.06-.458.34-.4.63.043.22.092.43.147.64.062.24.27.4.496.4l.134-.01c.275-.07.436-.37.362-.65l-.132-.58zm9.893-6.95c.094.18.27.28.45.28.085 0 .17-.02.25-.06.248-.14.34-.46.2-.72-.103-.19-.214-.38-.33-.57-.155-.24-.474-.31-.712-.15s-.3.49-.15.74c.11.17.2.33.3.51zm-6.867-3.64c-.196.1-.39.22-.578.34-.24.16-.308.49-.155.74.098.16.264.25.433.25.096 0 .192-.02.278-.08.155-.1.315-.19.476-.28.255-.13.36-.45.235-.71-.125-.26-.434-.37-.69-.24zm-3.053 4.43c-.27-.09-.56.06-.652.34l-.18.63c-.07.29.09.58.37.66l.14.02c.23 0 .44-.15.5-.39l.17-.57c.09-.27-.05-.58-.32-.67zm11.557 3.46c-.284 0-.514.25-.514.54l-.007.38v-.37c0-4.23-2.36-7.69-5.31-7.92l.23.02.06.01c.25 0 .47-.2.51-.47.03-.29-.17-.55-.45-.59-.22-.03-.44-.04-.66-.04h-.01c-.29 0-.51.24-.51.54 0 .3.23.53.52.53l.28.01-.29-.01c-2.99 0-5.44 3.32-5.61 7.49v-.142c.01-.293-.208-.544-.49-.56-.29-.015-.53.21-.54.5l-.02.66v.016c.002.29.23.52.51.52.284 0 .514-.24.514-.53v-.01l.007-.376-.005.38c0 3.65 1.75 6.73 4.13 7.65l-.1 2.48H19.7v-3.36c0-.29-.23-.53-.513-.53H17.7l.19-3.696v-5.93l.06-.06 1.356-1.657c.13-.16.16-.38.077-.57-.08-.19-.26-.31-.46-.31H17v-4.057c0-.29-.23-.53-.513-.53-.282 0-.512.24-.512.53v4.06h-.39v-2.33c0-.296-.233-.534-.517-.534-.284 0-.515.24-.515.534v2.33H4.92v-2.33c0-.29-.23-.53-.515-.53-.286 0-.516.24-.516.534v2.33H.53c-.16 0-.317.08-.414.22-.098.14-.125.314-.074.48l.518 1.65c.07.22.267.36.49.36h1.59v5.71l-.4 7.685h-.82c-.567 0-1.028.478-1.028 1.066 0 .59.46 1.064 1.03 1.064H30.73c.57 0 1.03-.473 1.03-1.062s-.46-1.06-1.03-1.06H27.2l-.126-1.9c.097.16.26.24.43.24.075 0 .154-.013.227-.05.2-.1.39-.21.58-.336.24-.16.31-.49.16-.738-.15-.25-.47-.32-.71-.16-.15.1-.31.19-.47.28-.11.05-.19.14-.23.25l-.01-.15c2.18-.97 3.79-3.77 3.93-7.124v.143c-.01.3.2.55.49.56h.03c.28 0 .5-.22.52-.5l.015-.64v-.01c0-.3-.23-.53-.515-.53zm-13.65-4.37l-.482.59H1.428l-.184-.59H17.83zM3.654 137.9l.02-.357v-.04h2.15v.05l-.017.348H3.655zm.02-3.32h2.15v.396h-2.15v-.397zm0 1.46h2.15v.4h-2.15v-.4zm1.98 4.785H3.5l.02-.4h2.152l-.02.396zm-2.207 1.063h2.15l-.02.4h-2.15l.02-.398zm-.076 1.464h2.15l-.02.397H3.35l.02-.4zm.31-11.55h2.15v.25H3.68v-.25zm0 1.314h2.15v.4H3.68v-.4zm2.06 6.248H3.58l.02-.395h2.15l-.02.37v.02zm1.13-1.764v-5.803h1.32v5.707l-.07 1.31H6.79l.063-1.21zm7.89-1.555h2.15v.4h-2.15v-.395zm1.91 6.25H14.5l.02-.396h2.15l-.02.39zm-1.9-7.71h2.15v.4h-2.15v-.4zm0 2.968v-.04h2.15v.05l-.01.347h-2.16l.02-.357zm-.07 1.42h2.15l-.02.398h-2.15l.02-.39zm1.67 1.464h.41l-.02.398H14.6l.02-.398h1.742zm-1.59-7.31h2.15v.397h-2.15v-.395zm0-1.315h2.15v.25h-2.15v-.25zm-.32 11.947l.02-.4h2.15l-.02.4h-2.15zm-3.06-10.24H9.21v-.4h2.15v.4zm0 1.46H9.21v-.4h2.15v.4zm0 1.46H9.21v-.4h2.152v.4zm-.25 5.85H8.96l.02-.4h2.15l-.02.4zm.08-1.46H9.04l.02-.4h2.15l-.02.4zm.08-1.46h-2.2l.02-.4h2.157l-.02.4zm-2.06-7.57h2.15v.25H9.21v-.25zm-.33 11.95l.02-.4h2.15l-.02.39H8.89zm2.47-6.2l-.02.34H9.19l.017-.36v-.04h2.146l.006-.01v.052zm-2.55 7.63l.02-.37H11l-.02.37H8.81zm3.58-13.39h1.33v5.16H12.4v-5.17zm1.96 13.39l.02-.37h2.15l-.01.15-.01.22h-2.15zm-11.06-.37h2.15l-.02.37H3.28l.02-.37zm14.38-2.46h1.037v2.83h-1.19l.148-2.83zm-11-1.79l.036-.7h1.32l-.275 5.314H6.45l.24-4.615zm5.407 2.42l.26-4.967h1.32l-.37 7.16h-1.32l.117-2.192zm13.08-7.405h.358l.42 6.275c-.19.04-.39.06-.6.06-.14 0-.28-.01-.42-.03l.25-6.304zm-.13 7.39l-.16-.017v-.003l.165.018zm1.12 2.21H24.8l.046-1.162c.17.017.34.03.51.03h.01c.286 0 .516-.24.516-.535 0-.294-.23-.534-.516-.534h-.01l-.288-.01.288.01c.227 0 .45-.02.67-.058l.15 2.25zm.79-3.7l-.43-6.468c-.017-.28-.242-.5-.512-.5h-1.04l-.14.03-.12-.03c-.29-.017-.53.213-.54.51l-.26 6.54c-1.824-.91-3.144-3.488-3.144-6.52 0-3.79 2.06-6.87 4.59-6.87s4.59 3.08 4.59 6.87c0 2.94-1.24 5.454-2.98 6.43zm.78-13.624c.15.1.304.22.45.34.094.08.207.12.32.12.15 0 .3-.07.402-.2.17-.23.14-.57-.08-.75-.18-.15-.36-.28-.54-.4-.24-.16-.56-.09-.71.16-.16.25-.09.58.15.73zm2.88 4.43c.05.19.095.39.13.58.05.25.266.43.506.43l.1-.01c.27-.06.45-.34.4-.63l-.15-.64c-.08-.28-.36-.45-.63-.37-.28.08-.44.37-.37.66m-.73 16.33c-.29 0-.41-.07-.59-.17-.24-.13-.53-.29-1.076-.29-.543 0-.837.16-1.073.29-.18.1-.3.17-.59.17s-.41-.07-.59-.17c-.234-.13-.53-.29-1.072-.29s-.84.16-1.076.29c-.18.1-.3.17-.58.17s-.408-.06-.59-.16c-.24-.13-.53-.29-1.076-.29s-.84.16-1.074.29c-.18.1-.3.17-.59.17-.284 0-.404-.065-.585-.17-.23-.13-.53-.29-1.07-.29s-.84.16-1.07.29c-.18.1-.3.17-.59.17s-.4-.064-.59-.165c-.23-.13-.53-.29-1.07-.29s-.84.16-1.07.29c-.18.1-.3.17-.58.17s-.402-.066-.583-.167c-.235-.13-.53-.29-1.073-.29s-.83.16-1.07.29c-.18.1-.3.165-.582.165s-.4-.06-.583-.162c-.24-.13-.53-.29-1.077-.29s-.834.16-1.07.29c-.18.1-.3.17-.59.17s-.404-.07-.585-.17c-.233-.13-.53-.29-1.07-.29s-.836.16-1.072.29c-.18.1-.3.17-.586.17s-.407-.065-.59-.17c-.234-.13-.53-.29-1.07-.29-.284 0-.514.24-.514.53 0 .3.23.54.51.54.287 0 .406.064.588.165.24.13.53.29 1.08.29.547 0 .84-.163 1.076-.293.183-.1.3-.165.59-.165.285 0 .405.06.586.16.237.13.53.3 1.074.3s.835-.166 1.07-.296c.18-.1.3-.167.587-.167s.41.064.59.165c.24.13.53.295 1.078.295s.84-.163 1.076-.293c.18-.1.3-.164.585-.164s.407.07.59.17c.24.13.53.29 1.077.29s.84-.16 1.07-.29c.18-.1.3-.17.59-.17.288 0 .408.07.59.17.237.13.53.29 1.075.29s.84-.165 1.07-.295c.18-.1.3-.164.585-.164s.403.07.585.17c.24.13.53.297 1.073.297.54 0 .837-.16 1.07-.29.186-.1.306-.17.59-.17s.41.067.59.17c.234.13.53.29 1.072.29s.833-.163 1.07-.293c.18-.1.3-.17.59-.17s.402.06.584.16c.233.13.53.3 1.07.3.545 0 .84-.16 1.075-.29.18-.1.3-.168.59-.168s.405.065.59.17c.24.13.53.29 1.073.29.28 0 .514-.24.514-.533 0-.29-.23-.53-.514-.53m-3.73 1.703c-.247 0-.346-.05-.51-.14-.205-.107-.484-.257-.98-.257-.5 0-.78.15-.983.26-.16.083-.26.14-.5.14s-.344-.057-.507-.14c-.207-.11-.486-.26-.98-.26s-.78.15-.98.26c-.167.083-.26.14-.51.14s-.35-.057-.51-.14c-.2-.11-.48-.26-.98-.26s-.78.15-.98.26c-.16.083-.26.14-.51.14-.282 0-.512.235-.512.53 0 .294.23.532.51.532.5 0 .78-.15.98-.26.165-.09.26-.14.51-.14s.346.05.51.14c.2.11.48.26.98.26.497 0 .777-.15.98-.26.16-.09.26-.14.51-.14s.34.05.504.14c.2.11.48.26.98.26s.78-.15.98-.26c.16-.09.26-.14.51-.14.242 0 .34.05.503.14.202.11.48.26.98.26.284 0 .514-.24.514-.538 0-.296-.23-.535-.515-.535m-7.47-25.98h2.872c.284 0 .515-.24.515-.535 0-.29-.23-.53-.52-.53H18.7c-.283 0-.514.24-.514.54 0 .29.23.53.514.53m1.14-1.44h4.854c.28 0 .51-.24.51-.537 0-.29-.23-.53-.51-.53h-4.85c-.283 0-.513.24-.513.53 0 .297.23.536.52.536" fill="#206FAC"/><path d="M1.722 83.46c.26.235.592.366.936.366h4.204l-.017.2c0 .362.15.707.415.947.223.204.51.316.807.316h4.345c.674 0 1.222-.57 1.222-1.27s-.548-1.27-1.222-1.27h-.228c.035-.13.056-.27.056-.41 0-.81-.637-1.47-1.418-1.47H2.657c-.344 0-.677.13-.936.37-.3.28-.48.68-.48 1.1 0 .42.18.82.48 1.1zm.68-1.402c.05-.047.136-.1.256-.1h8.165c.214 0 .388.18.388.4 0 .223-.17.403-.38.403-.28 0-.51.24-.51.54 0 .3.23.54.52.54h1.6c.11 0 .19.09.19.2 0 .11-.08.2-.19.2H8.07l-.127-.05c-.02-.02-.062-.07-.062-.15 0-.08.04-.13.07-.15l.13-.05h.01c.29 0 .52-.24.52-.53 0-.29-.23-.53-.51-.53H2.66c-.12 0-.207-.05-.257-.1-.085-.08-.132-.18-.132-.3 0-.11.05-.22.14-.3zm20 21.07c.087.057.184.085.28.085.168 0 .334-.087.433-.245.153-.248.083-.578-.156-.735-.16-.1-.31-.213-.45-.333-.22-.184-.55-.147-.73.083-.18.23-.14.564.08.75.17.142.35.276.53.397zm-2.446-2.803c.104.195.215.387.33.57.1.157.265.243.433.243.09 0 .19-.028.28-.086.23-.16.3-.49.15-.737-.11-.162-.2-.33-.29-.504-.14-.25-.45-.35-.7-.21-.25.15-.34.47-.21.73zm.48-10.394c.085.06.183.09.28.09.167 0 .333-.08.43-.24l.18-.27.147-.2c.173-.23.13-.57-.096-.74-.225-.18-.55-.13-.72.1l-.167.24-.206.32c-.155.25-.086.58.152.74zm10.347 9.1l.164.03c.215 0 .416-.14.488-.36.067-.2.128-.42.184-.63.07-.28-.09-.57-.37-.65-.28-.07-.56.1-.63.38l-.17.57c-.09.28.05.58.32.68zm-.51 1.12c-.24-.16-.558-.09-.712.16l-.18.28-.14.2c-.17.24-.13.57.1.75.1.08.21.11.32.11.16 0 .31-.07.41-.21l.16-.22.21-.32c.16-.24.09-.57-.15-.73zM19.95 97.22c-.057-.287-.33-.472-.607-.413-.28.06-.458.34-.4.63.043.213.092.43.147.64.062.236.27.393.496.393l.134-.018c.275-.077.436-.37.362-.652l-.132-.58zm9.893-6.952c.094.175.27.275.45.275.085 0 .17-.02.25-.066.248-.142.34-.466.2-.723-.103-.195-.214-.387-.33-.57-.155-.247-.474-.317-.712-.156s-.3.49-.15.737c.11.162.2.33.3.504zm-6.867-3.646c-.196.1-.39.213-.578.338-.24.16-.308.488-.155.735.098.16.264.245.433.245.096 0 .192-.028.278-.085.155-.103.315-.197.476-.28.255-.13.36-.448.235-.71-.125-.265-.434-.374-.69-.244zm-3.053 4.426c-.27-.094-.56.056-.652.335l-.18.63c-.07.285.09.577.37.654l.14.018c.23 0 .44-.157.5-.394l.17-.57c.09-.27-.05-.58-.32-.67zm11.557 3.457c-.284 0-.514.243-.514.537l-.007.378v-.378c0-4.23-2.36-7.696-5.31-7.92l.23.02.06.006c.25 0 .47-.197.51-.467.03-.29-.17-.55-.45-.59-.22-.03-.44-.04-.66-.04h-.01c-.29 0-.51.24-.51.54 0 .3.23.53.52.53l.28.01-.29-.01c-2.99 0-5.44 3.32-5.61 7.49v-.14c.01-.29-.208-.54-.49-.56-.29-.02-.53.21-.54.5l-.02.66v.02c.002.29.23.52.51.52.284 0 .514-.24.514-.53v-.01l.007-.37-.005.38c0 3.65 1.75 6.73 4.13 7.65l-.1 2.48H19.7v-3.36c0-.29-.23-.53-.513-.53H17.7l.19-3.69V91.7l.06-.06 1.356-1.655c.13-.16.16-.38.077-.57-.08-.19-.26-.31-.46-.31H17v-4.06c0-.296-.23-.535-.513-.535-.282 0-.512.24-.512.535v4.05h-.39v-2.33c0-.293-.233-.53-.517-.53-.284 0-.515.24-.515.534v2.33H4.92v-2.33c0-.3-.23-.54-.515-.54-.286 0-.516.24-.516.533v2.33H.53c-.16 0-.317.085-.414.22-.098.14-.125.32-.074.48l.518 1.65c.07.22.267.37.49.37h1.59v5.71l-.4 7.683h-.82c-.567 0-1.028.475-1.028 1.063 0 .59.46 1.062 1.03 1.062H30.73c.57 0 1.03-.476 1.03-1.065s-.46-1.062-1.03-1.062H27.2l-.126-1.9c.097.16.26.24.43.24.075 0 .154-.013.227-.05.2-.1.39-.214.58-.34.24-.16.31-.49.16-.735-.15-.25-.47-.32-.71-.16-.15.1-.31.197-.47.28-.11.05-.19.145-.23.25l-.01-.143c2.18-.97 3.79-3.77 3.93-7.12v.146c-.01.29.2.54.49.56h.03c.28 0 .5-.22.52-.508l.01-.646v-.01c0-.3-.23-.53-.515-.53zM17.83 90.13l-.482.59H1.428l-.184-.59H17.83zM3.655 97.89l.02-.356v-.04h2.15v.05l-.017.347H3.655zm.02-3.32h2.15v.397h-2.15v-.398zm0 1.462h2.15v.397h-2.15v-.4zm1.98 4.784H3.5l.02-.397h2.152l-.02.39zm-2.207 1.065h2.15l-.02.4h-2.15l.02-.39zm-.076 1.47h2.15l-.02.4H3.35l.02-.39zm.303-11.55h2.15v.25h-2.15v-.25zm0 1.32h2.15v.4h-2.15v-.39zm2.057 6.25H3.578l.02-.39H5.75l-.02.38v.03zm1.123-1.77v-5.81H8.18v5.71l-.07 1.3H6.79l.063-1.21zm7.887-1.56h2.15v.4h-2.15v-.39zm1.903 6.25h-2.15l.02-.4h2.15l-.02.4zm-1.903-7.71h2.15v.4h-2.15v-.4zm0 2.97v-.04h2.15v.05l-.017.35H14.72l.02-.35zm-.075 1.43h2.15l-.02.4h-2.15l.02-.39zm1.67 1.46h.405l-.02.4H14.57l.02-.39h1.745zm-1.597-7.31h2.15v.4h-2.15v-.39zm0-1.31h2.15v.25h-2.15v-.25zm-.323 11.95l.02-.39h2.15l-.02.4h-2.15zm-3.06-10.23h-2.15v-.4h2.15v.4zm0 1.46h-2.15v-.4h2.15v.4zm0 1.46h-2.15v-.39h2.152v.4zm-.247 5.85H8.96l.02-.39h2.15l-.02.4zm.075-1.46h-2.15l.02-.4h2.15l-.02.4zm.076-1.46H9.11l.02-.394h2.152l-.02.395zM9.21 91.8h2.15v.25H9.21v-.25zm-.32 11.95l.02-.398h2.15l-.02.398H8.89zm2.48-6.197l-.02.346H9.19l.017-.36v-.04h2.153v.06zm-2.55 7.63l.02-.37h2.15l-.02.37H8.81zm3.58-13.39h1.33v5.163H12.4V91.79zm1.96 13.39l.02-.37h2.15l-.01.147-.01.23h-2.15zm-11.045-.37h2.15l-.02.37H3.28l.02-.37zm14.375-2.46h1.04v2.828h-1.19l.145-2.82zM6.7 100.56l.036-.7h1.32l-.27 5.314H6.45l.24-4.615zm5.407 2.42l.26-4.967h1.32l-.37 7.16h-1.32l.114-2.192zm13.08-7.405h.355l.416 6.275c-.197.04-.397.06-.6.06-.14 0-.283-.01-.42-.03l.25-6.305zm-.13 7.39l-.163-.017v-.002l.16.018zm1.12 2.21H24.8l.045-1.162c.17.017.34.03.51.03h.01c.286 0 .516-.24.516-.535 0-.293-.23-.533-.51-.533h-.01l-.29-.01.29.01c.23 0 .45-.02.67-.058l.15 2.257zm.787-3.7l-.43-6.468c-.02-.28-.246-.496-.516-.496H24.98l-.146.03-.125-.02c-.29-.01-.53.22-.54.51l-.26 6.55c-1.83-.9-3.15-3.48-3.15-6.52 0-3.78 2.05-6.86 4.58-6.86s4.58 3.08 4.58 6.87c0 2.94-1.24 5.46-2.98 6.44zm.78-13.624c.15.1.3.22.445.34.09.08.2.12.32.12.15 0 .3-.07.4-.2.17-.23.14-.56-.08-.75-.18-.14-.36-.27-.54-.39-.24-.16-.56-.08-.71.16-.16.25-.09.58.15.74zm2.88 4.43c.05.19.09.39.13.58.05.25.262.43.502.43l.105-.01c.28-.06.46-.34.4-.63-.04-.21-.09-.43-.15-.64-.07-.28-.35-.45-.63-.37-.27.08-.44.37-.36.66m-.73 16.34c-.28 0-.4-.06-.59-.16-.23-.13-.53-.29-1.07-.29s-.84.16-1.07.29c-.18.1-.3.17-.59.17s-.41-.06-.59-.16c-.23-.13-.53-.29-1.07-.29s-.84.16-1.07.29c-.18.1-.3.17-.59.17s-.4-.06-.58-.17c-.24-.13-.53-.29-1.08-.29s-.84.16-1.07.29c-.18.1-.3.17-.59.17-.28 0-.4-.06-.58-.16-.234-.13-.53-.29-1.072-.29s-.835.16-1.07.29c-.18.1-.3.17-.585.17s-.4-.06-.582-.162c-.24-.13-.53-.29-1.075-.29s-.834.16-1.07.29c-.18.1-.3.17-.585.17s-.41-.065-.59-.166c-.235-.13-.53-.29-1.073-.29s-.84.16-1.07.29c-.18.1-.3.166-.588.166s-.41-.064-.59-.165c-.236-.13-.53-.29-1.07-.29s-.836.16-1.07.29c-.18.1-.3.17-.59.17s-.406-.06-.587-.162c-.236-.13-.53-.29-1.073-.29s-.837.16-1.073.29c-.18.1-.3.17-.59.17s-.406-.062-.587-.163c-.238-.13-.53-.29-1.075-.29-.284 0-.514.24-.514.53 0 .3.23.536.52.536.285 0 .4.063.586.164.24.13.53.295 1.077.295.54 0 .84-.166 1.07-.296.18-.1.3-.164.587-.164s.405.068.586.17c.236.13.53.297 1.073.297s.84-.164 1.073-.294c.18-.1.306-.166.59-.166s.407.064.59.165c.24.13.53.295 1.076.295s.84-.164 1.073-.294c.18-.1.3-.165.584-.165s.408.066.59.17c.237.13.53.29 1.074.29s.84-.163 1.078-.293c.18-.1.3-.166.59-.166.284 0 .404.07.585.17.24.13.53.293 1.08.293s.84-.165 1.07-.295c.18-.1.3-.167.59-.167s.405.06.587.164c.24.13.53.29 1.078.29.544 0 .84-.168 1.074-.298.18-.1.3-.17.59-.17s.4.066.58.167c.234.13.53.293 1.072.293.545 0 .84-.164 1.07-.294.18-.1.306-.16.59-.16s.408.062.59.163c.237.13.53.298 1.074.298s.84-.166 1.07-.296c.18-.1.3-.165.584-.165s.407.064.59.17c.24.13.53.29 1.076.29.285 0 .516-.24.516-.536 0-.29-.23-.53-.513-.53m-3.73 1.704c-.25 0-.346-.05-.51-.14-.203-.11-.482-.26-.98-.26-.5 0-.78.15-.98.26-.16.084-.26.14-.51.14s-.343-.056-.51-.14c-.2-.11-.48-.26-.98-.26-.49 0-.77.15-.98.26-.16.084-.26.14-.5.14s-.344-.056-.506-.14c-.2-.11-.48-.26-.98-.26-.495 0-.775.15-.98.26-.16.084-.26.14-.51.14-.28 0-.51.236-.51.53 0 .295.23.53.513.53.5 0 .775-.15.98-.26.16-.09.26-.14.51-.14s.342.05.51.14c.2.11.48.26.98.26.493 0 .773-.15.98-.26.16-.09.26-.14.504-.14s.34.05.5.14c.208.11.488.26.98.26.5 0 .78-.15.98-.26.17-.09.26-.14.51-.14s.35.05.51.14c.2.11.48.26.98.26.28 0 .51-.24.51-.53 0-.297-.23-.536-.513-.536m-7.487-26h2.872c.284 0 .515-.236.515-.53 0-.294-.23-.533-.515-.533H18.7c-.283 0-.514.24-.514.537 0 .298.23.536.515.536m1.14-1.44h4.86c.29 0 .52-.24.52-.53 0-.295-.23-.534-.51-.534h-4.86c-.282 0-.512.24-.512.53 0 .295.23.534.51.534" fill="#fff"/><path d="M1.722 43.46c.26.235.592.366.936.366h4.204l-.017.2c0 .362.15.707.415.947.223.204.51.316.807.316h4.345c.674 0 1.222-.57 1.222-1.27s-.548-1.27-1.222-1.27h-.228c.035-.13.056-.27.056-.41 0-.81-.637-1.47-1.418-1.47H2.657c-.344 0-.677.13-.936.37-.3.28-.48.68-.48 1.1 0 .42.18.82.48 1.1zm.68-1.402c.05-.047.136-.1.256-.1h8.165c.214 0 .388.18.388.4 0 .223-.17.403-.38.403-.28 0-.51.24-.51.54 0 .3.23.54.52.54h1.6c.11 0 .19.09.19.2 0 .11-.08.2-.19.2H8.07l-.127-.05c-.02-.02-.062-.07-.062-.15 0-.08.04-.13.07-.15l.13-.05h.01c.29 0 .52-.24.52-.53 0-.29-.23-.53-.51-.53H2.66c-.12 0-.207-.05-.257-.1-.085-.08-.132-.18-.132-.3 0-.11.05-.22.14-.3zm20 21.07c.087.057.184.085.28.085.168 0 .334-.087.433-.245.153-.248.083-.578-.156-.735-.16-.1-.31-.213-.45-.333-.22-.184-.55-.147-.73.083-.18.23-.14.564.08.75.17.142.35.276.53.397zm-2.446-2.803c.104.195.215.387.33.57.1.157.265.243.433.243.09 0 .19-.028.28-.086.23-.16.3-.49.15-.737-.11-.162-.2-.33-.29-.504-.14-.25-.45-.35-.7-.21-.25.15-.34.47-.21.73zm.48-10.394c.085.06.183.09.28.09.167 0 .333-.08.43-.24l.18-.27.147-.2c.173-.23.13-.57-.096-.74-.225-.18-.55-.13-.72.1l-.167.24-.206.32c-.155.25-.086.58.152.74zm10.347 9.1l.164.03c.215 0 .416-.14.488-.36.067-.2.128-.42.184-.63.07-.28-.09-.57-.37-.65-.28-.07-.56.1-.63.38l-.17.57c-.09.28.05.58.32.68zm-.51 1.12c-.24-.16-.558-.09-.712.16l-.18.28-.14.2c-.17.24-.13.57.1.75.1.08.21.11.32.11.16 0 .31-.07.41-.21l.16-.22.21-.32c.16-.24.09-.57-.15-.73zM19.95 57.22c-.057-.287-.33-.472-.607-.413-.28.06-.458.34-.4.63.043.213.092.43.147.64.062.236.27.393.496.393l.134-.018c.275-.077.436-.37.362-.652l-.132-.58zm9.893-6.952c.094.175.27.275.45.275.085 0 .17-.02.25-.066.248-.142.34-.466.2-.723-.103-.195-.214-.387-.33-.57-.155-.247-.474-.317-.712-.156s-.3.49-.15.737c.11.162.2.33.3.504zm-6.867-3.646c-.196.1-.39.213-.578.338-.24.16-.308.488-.155.735.098.16.264.245.433.245.096 0 .192-.028.278-.085.155-.103.315-.197.476-.28.255-.13.36-.448.235-.71-.125-.265-.434-.374-.69-.244zm-3.053 4.426c-.27-.094-.56.056-.652.335l-.18.63c-.07.285.09.577.37.654l.14.018c.23 0 .44-.157.5-.394l.17-.57c.09-.27-.05-.58-.32-.67zm11.557 3.457c-.284 0-.514.243-.514.537l-.007.378v-.378c0-4.23-2.36-7.696-5.31-7.92l.23.02.06.006c.25 0 .47-.197.51-.467.03-.29-.17-.55-.45-.59-.22-.03-.44-.04-.66-.04h-.01c-.29 0-.51.24-.51.54 0 .3.23.53.52.53l.28.01-.29-.01c-2.99 0-5.44 3.32-5.61 7.49v-.14c.01-.29-.208-.54-.49-.56-.29-.02-.53.21-.54.5l-.02.66v.02c.002.29.23.52.51.52.284 0 .514-.24.514-.53v-.01l.007-.37-.005.38c0 3.65 1.75 6.73 4.13 7.65l-.1 2.48H19.7v-3.36c0-.29-.23-.53-.513-.53H17.7l.19-3.69V51.7l.06-.06 1.356-1.655c.13-.16.16-.38.077-.57-.08-.19-.26-.31-.46-.31H17v-4.06c0-.296-.23-.535-.513-.535-.282 0-.512.24-.512.535v4.05h-.39v-2.33c0-.293-.233-.53-.517-.53-.284 0-.515.24-.515.534v2.33H4.92v-2.33c0-.3-.23-.54-.515-.54-.286 0-.516.24-.516.533v2.33H.53c-.16 0-.317.085-.414.22-.098.14-.125.32-.074.48l.518 1.65c.07.22.267.37.49.37h1.59v5.71l-.4 7.683h-.82c-.567 0-1.028.475-1.028 1.063 0 .59.46 1.062 1.03 1.062H30.73c.57 0 1.03-.476 1.03-1.065s-.46-1.07-1.03-1.07H27.2l-.126-1.9c.097.16.26.24.43.24.075 0 .154-.01.227-.05.2-.1.39-.21.58-.34.24-.16.31-.49.16-.73-.15-.25-.47-.32-.71-.16-.15.1-.31.195-.47.28-.11.05-.19.143-.23.25l-.01-.145c2.18-.97 3.79-3.77 3.93-7.12v.146c-.01.29.2.54.49.56h.03c.28 0 .5-.22.52-.507l.01-.644v-.01c0-.3-.23-.53-.515-.53zM17.83 50.13l-.482.59H1.428l-.184-.59H17.83zM3.655 57.89l.02-.356v-.04h2.15v.05l-.017.347H3.655zm.02-3.32h2.15v.397h-2.15v-.398zm0 1.462h2.15v.397h-2.15v-.4zm1.98 4.784H3.5l.02-.397h2.152l-.02.39zm-2.21 1.064h2.15l-.02.398h-2.15l.02-.397zm-.075 1.463h2.15l-.02.397H3.35l.02-.397zm.303-11.55h2.15v.25h-2.15v-.25zm0 1.314h2.15v.397h-2.15v-.397zm2.057 6.246H3.578l.02-.397H5.75l-.02.373v.02zm1.123-1.766v-5.804H8.18v5.708l-.07 1.31H6.79l.063-1.21zm7.887-1.556h2.15v.4h-2.15v-.39zm1.903 6.25h-2.15l.02-.39h2.15l-.02.4zm-1.903-7.71h2.15v.4h-2.15v-.4zm0 2.97v-.04h2.15v.05l-.017.35H14.72l.02-.35zm-.075 1.42h2.15l-.02.4h-2.15l.02-.39zm1.67 1.47h.405l-.02.4h-2.152l.02-.4h1.745zm-1.595-7.32h2.15v.4h-2.15v-.39zm0-1.31h2.15v.25h-2.15v-.25zm-.326 11.95l.02-.39h2.15l-.02.4h-2.15zm-3.06-10.23H9.208v-.4h2.15v.4zm0 1.46H9.208v-.4h2.15v.4zm0 1.46H9.2v-.4h2.152v.4zm-.247 5.85H8.96l.02-.4h2.15l-.02.4zm.075-1.46h-2.15l.02-.4h2.15l-.02.4zm.076-1.46H9.11l.02-.39h2.152l-.02.4zM9.205 51.8h2.15v.25h-2.15v-.25zm-.323 11.95l.02-.4h2.15l-.02.397h-2.15zm2.474-6.2l-.02.347h-2.15l.018-.357v-.04h2.146l.007-.007v.06zm-2.55 7.63l.02-.37h2.15l-.02.37h-2.15zm3.578-13.39h1.324v5.164h-1.325v-5.16zm1.956 13.39l.02-.37h2.15l-.01.15-.01.23h-2.15zM3.293 64.8h2.15l-.02.37h-2.15l.02-.37zm14.375-2.458h1.038v2.828H17.52l.147-2.828zM6.694 60.56l.036-.7h1.32l-.275 5.314H6.452l.24-4.615zm5.407 2.42l.26-4.967h1.32l-.37 7.16h-1.32l.12-2.192zm13.08-7.405h.36l.42 6.275c-.19.04-.39.06-.6.06-.14 0-.28-.01-.42-.03l.25-6.305zm-.13 7.39l-.16-.017v-.002l.17.018zm1.12 2.21H24.8l.046-1.162c.17.017.34.03.51.03h.01c.286 0 .516-.24.516-.535 0-.293-.23-.533-.516-.533h-.01l-.288-.01.288.01c.227 0 .45-.02.67-.058l.15 2.257zm.79-3.7l-.43-6.468c-.01-.28-.24-.496-.51-.496h-1.04l-.14.03-.12-.02c-.29-.01-.53.22-.54.51l-.26 6.55c-1.82-.9-3.14-3.48-3.14-6.52 0-3.78 2.06-6.86 4.59-6.86s4.59 3.08 4.59 6.87c0 2.94-1.24 5.46-2.98 6.44zm.78-13.624c.15.1.31.22.45.34.1.08.21.12.32.12.15 0 .3-.07.41-.2.18-.23.14-.56-.08-.75-.17-.14-.35-.27-.53-.39-.24-.16-.55-.08-.71.16-.15.25-.08.58.16.74zm2.88 4.43c.05.19.1.39.13.58.05.25.27.43.51.43l.11-.01c.28-.06.46-.34.4-.63-.04-.21-.09-.43-.15-.64-.07-.28-.35-.45-.63-.37-.27.08-.44.37-.36.66m-.73 16.34c-.28 0-.4-.06-.59-.16-.23-.13-.53-.29-1.07-.29s-.83.16-1.07.29c-.18.1-.3.17-.59.17s-.41-.06-.59-.16c-.23-.13-.53-.29-1.07-.29s-.84.16-1.07.29c-.18.1-.3.17-.58.17s-.404-.06-.585-.17c-.234-.13-.53-.29-1.072-.29s-.84.16-1.073.29c-.187.1-.3.17-.59.17s-.41-.06-.59-.16c-.24-.13-.53-.29-1.077-.29s-.84.16-1.074.29c-.18.1-.3.17-.59.17s-.407-.06-.59-.16c-.235-.13-.53-.29-1.07-.29s-.84.16-1.078.29c-.18.1-.3.17-.588.17s-.41-.066-.59-.167c-.237-.13-.53-.29-1.075-.29s-.84.16-1.074.29c-.18.1-.3.166-.587.166s-.406-.065-.59-.166c-.24-.13-.53-.29-1.076-.29-.54 0-.834.16-1.07.29-.18.1-.3.17-.59.17s-.403-.06-.584-.162c-.24-.13-.53-.29-1.075-.29-.54 0-.835.16-1.07.29-.18.1-.3.17-.586.17s-.407-.062-.588-.163c-.24-.13-.53-.29-1.077-.29-.28 0-.51.24-.51.53 0 .295.23.534.516.534.29 0 .41.062.59.163.24.13.53.293 1.073.293s.84-.16 1.074-.29c.184-.1.3-.165.59-.165.286 0 .406.067.59.168.233.13.53.296 1.07.296s.84-.166 1.072-.296c.18-.1.3-.17.59-.17s.41.07.59.17c.236.13.53.294 1.07.294s.84-.163 1.08-.293c.18-.1.3-.17.583-.17s.406.067.59.17c.24.13.53.29 1.075.29s.834-.16 1.07-.29c.18-.1.3-.17.59-.17.282 0 .402.064.583.165.24.13.53.295 1.077.295s.84-.165 1.07-.295c.18-.1.3-.166.59-.166s.4.064.583.165c.24.13.53.3 1.073.3s.84-.167 1.074-.297c.18-.1.3-.166.59-.166s.407.062.588.163c.233.13.53.297 1.07.297s.834-.164 1.07-.294c.18-.1.3-.17.59-.17s.403.064.585.165c.234.13.53.294 1.07.294.546 0 .84-.166 1.076-.296.18-.1.3-.167.59-.167s.404.066.59.17c.24.13.53.29 1.07.29.28 0 .513-.24.513-.536 0-.29-.234-.53-.52-.53M26.17 70.4c-.245 0-.344-.05-.506-.14-.207-.11-.486-.26-.98-.26-.5 0-.78.15-.985.26-.16.084-.26.14-.504.14s-.34-.056-.502-.14c-.2-.11-.48-.26-.98-.26s-.77.15-.98.26c-.16.084-.26.14-.502.14s-.35-.056-.51-.14c-.2-.11-.48-.26-.98-.26s-.78.15-.98.26c-.16.084-.26.14-.51.14-.283 0-.513.24-.513.53 0 .295.23.53.514.53.5 0 .78-.15.98-.26.164-.09.26-.14.51-.14s.345.05.51.14c.2.11.48.26.98.26.496 0 .776-.15.98-.26.16-.09.26-.14.51-.14s.343.05.505.14c.2.11.48.26.98.26s.78-.15.98-.26c.162-.09.26-.14.51-.14.243 0 .342.05.504.14.2.11.48.26.98.26.28 0 .51-.24.51-.53 0-.297-.23-.536-.515-.536m-7.485-26h2.874c.285 0 .516-.23.516-.53 0-.29-.23-.53-.514-.53H18.7c-.285 0-.516.24-.516.53 0 .3.23.537.51.537m1.14-1.44h4.86c.28 0 .51-.24.51-.53 0-.293-.23-.532-.52-.532h-4.86c-.287 0-.517.24-.517.535 0 .29.23.53.517.53" fill="#67737B"/><path d="M1.722 3.46c.26.235.592.366.936.366h4.204l-.017.2c0 .362.15.707.415.947.223.204.51.316.807.316h4.345c.674 0 1.222-.57 1.222-1.27s-.548-1.27-1.222-1.27h-.228c.035-.13.056-.27.056-.41 0-.81-.637-1.47-1.418-1.47H2.657c-.344 0-.677.13-.936.37-.3.28-.48.68-.48 1.1 0 .42.18.82.48 1.1zm.68-1.402c.05-.047.136-.1.256-.1h8.165c.214 0 .388.18.388.4 0 .223-.17.403-.38.403-.28 0-.51.24-.51.54 0 .3.23.54.52.54h1.6c.11 0 .19.09.19.2 0 .11-.08.2-.19.2H8.07l-.127-.05c-.02-.02-.062-.07-.062-.15 0-.08.04-.13.07-.15l.13-.05h.01c.29 0 .52-.24.52-.53 0-.29-.23-.53-.51-.53H2.66c-.12 0-.207-.05-.257-.1-.085-.08-.132-.18-.132-.3 0-.11.05-.22.14-.3zm20 21.07c.087.057.184.085.28.085.168 0 .334-.087.433-.245.153-.248.083-.578-.156-.735-.16-.1-.31-.213-.45-.333-.22-.184-.55-.147-.73.083-.18.23-.14.564.08.75.17.142.35.276.53.397zm-2.446-2.803c.104.195.215.387.33.57.1.157.265.243.433.243.09 0 .19-.028.28-.086.23-.16.3-.49.15-.737-.11-.162-.2-.33-.29-.504-.14-.25-.45-.35-.7-.21-.25.15-.34.47-.21.73zm.48-10.394c.085.06.183.09.28.09.167 0 .333-.08.43-.24l.18-.27.147-.2c.173-.23.13-.57-.096-.74-.225-.18-.55-.13-.72.1l-.167.24-.206.32c-.155.25-.086.58.152.74zm10.347 9.1l.164.03c.215 0 .416-.14.488-.36.067-.2.128-.42.184-.63.07-.28-.09-.57-.37-.65-.28-.07-.56.1-.63.38l-.17.57c-.09.28.05.58.32.68zm-.51 1.12c-.24-.16-.558-.09-.712.16l-.18.28-.14.2c-.17.24-.13.57.1.75.1.08.21.11.32.11.16 0 .31-.07.41-.21l.16-.22.21-.32c.16-.24.09-.57-.15-.73zM19.95 17.22c-.057-.287-.33-.472-.607-.413-.28.06-.458.34-.4.63.043.213.092.43.147.64.062.236.27.393.496.393l.134-.018c.275-.077.436-.37.362-.652l-.132-.58zm9.893-6.952c.094.175.27.275.45.275.085 0 .17-.02.25-.066.248-.142.34-.466.2-.723-.103-.195-.214-.387-.33-.57-.155-.247-.474-.317-.712-.156s-.3.49-.15.737c.11.162.2.33.3.504zm-6.867-3.646c-.196.1-.39.213-.578.338-.24.16-.308.488-.155.735.098.16.264.245.433.245.096 0 .192-.028.278-.085.155-.103.315-.197.476-.28.255-.13.36-.448.235-.71-.125-.265-.434-.374-.69-.244zm-3.053 4.426c-.27-.094-.56.056-.652.335l-.18.63c-.07.285.09.577.37.654l.14.018c.23 0 .44-.157.5-.394l.17-.57c.09-.27-.05-.58-.32-.67zm11.557 3.457c-.284 0-.514.243-.514.537l-.007.378v-.378c0-4.23-2.36-7.696-5.31-7.92l.23.02.06.006c.25 0 .47-.197.51-.467.03-.29-.17-.55-.45-.59-.22-.03-.44-.04-.66-.04h-.01c-.29 0-.51.24-.51.54 0 .3.23.53.52.53l.28.01-.29-.01c-2.99 0-5.44 3.32-5.61 7.49v-.14c.01-.29-.208-.54-.49-.56-.29-.02-.53.21-.54.5l-.02.66v.02c.002.29.23.52.51.52.284 0 .514-.24.514-.53v-.01l.007-.37-.005.38c0 3.65 1.75 6.73 4.13 7.65l-.1 2.48H19.7v-3.36c0-.29-.23-.53-.513-.53H17.7l.19-3.69V11.7l.06-.06 1.36-1.657c.13-.16.16-.38.078-.57-.08-.19-.26-.31-.46-.31H17V5.01c0-.294-.23-.533-.513-.533-.282 0-.512.24-.512.533v4.05h-.39V6.73c0-.295-.233-.533-.517-.533-.284 0-.515.24-.515.533v2.33H4.92V6.73c0-.295-.23-.533-.515-.533-.286 0-.516.24-.516.533v2.33H.53c-.16 0-.317.083-.414.22-.098.138-.125.316-.074.478l.518 1.655c.07.22.267.368.49.368h1.59v5.71l-.4 7.69h-.82c-.567 0-1.028.48-1.028 1.07 0 .59.46 1.07 1.03 1.07H30.73c.57 0 1.03-.47 1.03-1.06s-.46-1.06-1.03-1.06H27.2l-.126-1.9c.097.16.26.24.43.24.075 0 .154-.01.227-.05.2-.1.39-.22.58-.34.24-.16.31-.49.16-.74s-.47-.32-.71-.16c-.15.11-.31.2-.47.28-.11.06-.19.15-.23.25l-.01-.14c2.18-.96 3.79-3.77 3.93-7.12v.14c-.01.3.2.55.49.56h.03c.28 0 .5-.22.52-.5l.01-.65v-.01c0-.29-.23-.52-.514-.52zM17.83 10.13l-.482.59H1.428l-.184-.59H17.83zM3.655 17.89l.02-.356v-.04h2.15v.05l-.017.347H3.655zm.02-3.32h2.15v.397h-2.15v-.398zm0 1.462h2.15v.397h-2.15v-.4zm1.98 4.784H3.5l.02-.397h2.152l-.02.39zm-2.21 1.064h2.15l-.02.398h-2.15l.02-.397zm-.075 1.463h2.15l-.02.397H3.35l.02-.397zm.303-11.55h2.15v.25h-2.15v-.25zm0 1.314h2.15v.397h-2.15v-.397zm2.057 6.246H3.578l.02-.397H5.75l-.02.373v.02zm1.123-1.766v-5.804H8.18v5.708l-.07 1.31H6.79l.063-1.21zm7.887-1.556h2.15v.4h-2.15v-.39zm1.903 6.25h-2.15l.02-.39h2.15l-.02.4zm-1.903-7.71h2.15v.4h-2.15v-.4zm0 2.97v-.04h2.15v.05l-.017.35H14.72l.02-.35zm-.075 1.42h2.15l-.02.4h-2.15l.02-.39zm1.67 1.47h.405l-.02.4h-2.152l.02-.4h1.745zm-1.595-7.32h2.15v.4h-2.15v-.39zm0-1.31h2.15v.25h-2.15v-.25zm-.326 11.95l.02-.39h2.15l-.02.4h-2.15zm-3.06-10.23H9.208v-.4h2.15v.4zm0 1.46H9.208v-.4h2.15v.4zm0 1.46H9.2v-.4h2.152v.4zm-.247 5.85H8.96l.02-.4h2.15l-.02.4zm.075-1.46h-2.15l.02-.4h2.15l-.02.4zm.076-1.46H9.11l.02-.39h2.152l-.02.4zM9.205 11.8h2.15v.25h-2.15v-.25zm-.323 11.95l.02-.4h2.15l-.02.397h-2.15zm2.474-6.2l-.02.347h-2.15l.018-.357v-.04h2.146l.007-.007v.06zm-2.55 7.63l.02-.37h2.15l-.02.37h-2.15zm3.578-13.39h1.324v5.164h-1.325v-5.16zm1.956 13.39l.02-.37h2.15l-.01.15-.01.23h-2.15zM3.293 24.8h2.15l-.02.37h-2.15l.02-.37zm14.375-2.458h1.038v2.828H17.52l.147-2.828zM6.694 20.56l.036-.7h1.32l-.275 5.314H6.452l.24-4.615zm5.407 2.42l.26-4.967h1.32l-.37 7.16h-1.32l.12-2.192zm13.08-7.405h.36l.42 6.275c-.19.04-.39.06-.6.06-.14 0-.28-.01-.42-.03l.25-6.305zm-.13 7.39l-.16-.017v-.002l.17.018zm1.12 2.21H24.8l.046-1.162c.17.017.34.03.51.03h.01c.286 0 .516-.24.516-.535 0-.293-.23-.533-.516-.533h-.01l-.288-.01.288.01c.227 0 .45-.02.67-.058l.15 2.257zm.79-3.7l-.43-6.468c-.01-.28-.24-.496-.51-.496h-1.04l-.14.03-.12-.02c-.29-.01-.53.22-.54.51l-.26 6.55c-1.82-.9-3.14-3.48-3.14-6.52 0-3.78 2.06-6.86 4.59-6.86s4.59 3.08 4.59 6.87c0 2.94-1.24 5.46-2.98 6.44zm.78-13.625c.15.1.31.216.45.336.1.08.21.117.32.117.15 0 .3-.07.41-.2.18-.23.14-.564-.08-.75-.17-.142-.35-.275-.53-.396-.24-.16-.55-.086-.71.162-.15.24-.08.57.16.73zm2.88 4.43c.05.19.1.387.13.58.05.25.27.426.51.426l.11-.01c.28-.06.46-.343.4-.63-.04-.216-.09-.43-.15-.64-.07-.285-.35-.453-.63-.376-.27.076-.44.37-.36.652M29.9 28.62c-.288 0-.408-.066-.59-.167-.236-.13-.53-.29-1.074-.29-.54 0-.835.16-1.07.29-.18.1-.3.168-.59.168s-.41-.06-.59-.16c-.236-.13-.53-.29-1.074-.29s-.84.16-1.074.29c-.18.1-.3.17-.585.17s-.407-.06-.59-.16c-.236-.13-.53-.29-1.074-.29s-.84.16-1.08.29c-.18.1-.3.17-.59.17s-.41-.06-.59-.16c-.24-.13-.53-.29-1.07-.29s-.84.16-1.07.29c-.18.1-.3.17-.59.17s-.41-.06-.59-.16c-.24-.13-.53-.29-1.08-.29s-.84.16-1.08.29c-.18.1-.3.17-.588.17s-.41-.06-.59-.17c-.24-.13-.53-.29-1.078-.29s-.84.16-1.07.29c-.18.1-.3.17-.588.17s-.407-.06-.59-.17c-.234-.13-.53-.29-1.07-.29s-.83.16-1.07.29c-.18.1-.3.17-.59.17s-.4-.06-.583-.16c-.237-.13-.53-.29-1.074-.29-.54 0-.836.16-1.07.29-.18.1-.3.17-.588.17s-.405-.06-.586-.17c-.23-.13-.53-.29-1.07-.29-.284 0-.514.24-.514.53 0 .3.23.54.513.54.29 0 .41.07.59.17.24.13.53.29 1.076.29s.84-.16 1.076-.29c.185-.1.3-.17.59-.17.287 0 .407.07.588.17.24.13.53.3 1.074.3s.835-.16 1.07-.29c.18-.1.303-.165.59-.165s.404.065.586.166c.24.13.53.293 1.076.293s.84-.16 1.074-.29c.18-.1.3-.17.583-.17s.41.07.59.17c.24.13.53.297 1.076.297s.84-.16 1.072-.29c.18-.1.3-.167.59-.167.282 0 .402.065.583.166.24.13.53.296 1.075.296s.833-.16 1.07-.29c.18-.1.3-.162.585-.162s.402.07.584.17c.24.13.53.296 1.075.296.54 0 .84-.166 1.07-.296.187-.1.307-.165.59-.165s.41.063.59.164c.234.13.53.293 1.07.293s.835-.16 1.07-.29c.18-.1.3-.167.59-.167s.404.07.586.17c.24.13.53.297 1.076.297.547 0 .84-.164 1.077-.294.18-.1.3-.166.586-.166s.404.07.586.17c.24.13.53.293 1.08.293.28 0 .51-.24.51-.533 0-.297-.235-.536-.52-.536m-3.73 1.7c-.247 0-.346-.05-.51-.14-.2-.103-.48-.253-.98-.253-.496 0-.776.15-.98.26-.16.083-.26.14-.507.14s-.342-.057-.505-.14c-.21-.11-.49-.26-.98-.26s-.78.15-.98.26c-.17.083-.26.14-.51.14s-.35-.057-.51-.14c-.204-.11-.48-.26-.98-.26s-.78.15-.98.26c-.16.083-.26.14-.51.14-.283 0-.513.24-.513.53 0 .29.23.53.51.53.5 0 .78-.15.98-.26.16-.09.26-.14.51-.14s.34.05.51.14c.2.11.48.26.98.26.49 0 .77-.15.98-.26.16-.09.26-.14.5-.14s.344.05.506.14c.2.11.48.26.98.26s.78-.15.98-.26c.16-.09.26-.14.51-.14.245 0 .34.05.506.14.2.11.48.26.98.26.28 0 .51-.24.51-.536 0-.29-.23-.53-.514-.53m-7.45-26.07h2.874c.283 0 .514-.236.514-.53 0-.29-.23-.53-.515-.53H18.69c-.283 0-.514.24-.514.54 0 .3.23.537.515.537m1.14-1.44h4.86c.29 0 .52-.24.52-.536 0-.29-.23-.53-.51-.53h-4.86c-.28 0-.51.24-.51.54 0 .295.23.534.52.534" fill="#3A434E"/></g></svg>