<svg width="32" height="232" viewBox="0 0 32 232" xmlns="http://www.w3.org/2000/svg"><title>seoul</title><desc>Created with Sketch.</desc><g fill="none"><path d="M31.04 147.158h-1.375v-9.322c0-.4-.194-.746-.48-.933v-1.07c0-.3-.216-.54-.482-.54h-.218v-2.41c.94-.504 1.84-1.146 2.686-1.92l.07-.07.023-.028.04-.048.024-.035.03-.045.023-.04.023-.044.02-.046.018-.042.02-.05.012-.04.015-.052.01-.04.01-.056.004-.03.012-.125-.002-.125v-.002l-.01-.082v-.014l-.016-.08-.003-.014-.02-.08-.005-.013-.028-.078-.006-.013-.034-.075-.002-.005-.005-.01-.04-.068-.013-.02-.03-.047-.01-.013-.01-.014-.056-.064-.117-.11-.003-.003-.066-.047-.01-.006-.06-.037-.016-.007-.06-.028-.02-.008-.06-.02-.027-.008-.055-.014-.034-.005-.05-.007-.04-.003-.048-.002-.05.003-.08.01-.043.005-.05.013-.038.01-.05.018-.03.01c-.026.013-1.775.735-3.56.673 1.64-.685 3.193-1.863 4.596-3.502l.06-.078.02-.03.033-.052.022-.04.025-.047.018-.042.018-.048.016-.044.013-.05.012-.044.01-.053.008-.044.007-.062.003-.034.002-.098v-.022l-.006-.076-.006-.037-.01-.06-.008-.04-.013-.054-.014-.045-.016-.047-.018-.047-.018-.04-.023-.05-.02-.038-.028-.047-.005-.008-.023-.032-.028-.038-.06-.07-.002-.004-.07-.068-.025-.02-.048-.04-.035-.023-.04-.025-.042-.023-.038-.02-.044-.018-.04-.016-.044-.015-.046-.012-.04-.01-.075-.01h-.01l-.088-.004-.022.002-.066.005-.03.005-.056.01-.035.01-.048.015-.042.015-.04.016-.045.023-.017.008c-.042.024-4.186 2.23-6.164-.6l-.008-.01-.054-.068-.015-.018-.075-.076-.02-.017-.063-.05-.028-.02-.062-.037-.03-.016-.043-.022v-.614c0-.297-.216-.537-.48-.537-.267 0-.482.24-.482.538v.535H9.385v-.534c0-.297-.216-.537-.48-.537-.267 0-.482.24-.482.538v.615l-.043.022-.03.016-.06.038-.03.02-.06.05-.022.018-.076.076-.014.018-.054.07-.007.007c-1.967 2.812-6.124.623-6.164.6l-.017-.007-.044-.02-.042-.02-.04-.013-.05-.015-.034-.008-.06-.012-.027-.004-.074-.005H1.46l-.175.013-.033.008-.052.013-.04.013-.043.015-.042.02-.04.018-.04.022-.042.026-.035.023-.047.037-.025.02-.07.068-.006.008-.057.066-.027.04-.022.03-.006.01-.027.046-.02.04-.023.046-.018.043-.02.048-.014.047-.014.045-.013.053-.01.04-.01.06-.004.038-.005.077v.022l.002.097.003.034.007.063.008.043.01.053.012.044.014.05.016.043.018.048.02.043.023.048.02.04.034.05.02.03.06.08c1.404 1.638 2.957 2.816 4.596 3.502-1.784.062-3.533-.66-3.56-.67l-.026-.01-.053-.02-.03-.008-.057-.015-.036-.005-.082-.01-.054-.003-.038.002-.05.003-.04.006-.046.006-.044.01-.04.012-.047.016-.037.015-.046.02-.035.017-.044.026-.035.023-.04.028-.043.035-.028.023-.067.068-.012.015-.05.063-.006.006-.014.022-.035.054-.023.04-.015.027-.01.018-.02.048-.02.043-.017.05-.014.045-.014.05-.01.05-.01.046-.007.06-.005.037-.003.078v.022l.005.098.003.03.01.067.007.04.012.055.01.043.017.05.016.044.02.046.02.043.023.043.023.04.028.046.025.034.04.048.022.028.07.07c.846.774 1.747 1.416 2.685 1.92v2.41h-.218c-.266 0-.48.24-.48.54v1.07c-.288.187-.482.534-.482.933v9.322H.966c-.532 0-.963.483-.963 1.078 0 .594.43 1.077.963 1.077h30.076c.532 0 .963-.483.963-1.077 0-.596-.43-1.078-.963-1.078zm-13.222-16.662v.33h-3.634v-.87h3.634v.54zm-4.116 1.408H18.3c.265 0 .48-.24.48-.54v-.868h4.064c.77.727 1.677 1.122 2.598 1.31l-.39.088-.086.017-.386.07-.062.01-.19.022-.17.022-.062.007-.392.03-.085.005-.403.01H8.782l-.402-.01-.086-.004-.39-.03-.067-.006-.17-.02-.186-.024-.064-.01-.384-.068-.086-.017-.39-.09c.922-.185 1.828-.58 2.598-1.308h4.064v.87c0 .297.216.538.48.538zm-9.222 1.444c1.378.588 2.826.89 4.303.89h14.435c1.476 0 2.924-.302 4.302-.89v1.945H4.48v-1.945zm.936 3.41v-.388h.74v.926h-.74v-.538zm21.17 0v.538h-.74v-.926h.74v.388zm-19.468 0v-.388h.74v.926h-.74v-.538zm1.703 0v-.388h.74v.926h-.74v-.538zm1.703 0v-.388h.74v.926h-.74v-.538zm1.703 0v-.388h.74v.926h-.74v-.538zm1.702 0v-.388h.74v.926h-.74v-.538zm1.703 0v-.388h.74v.926h-.74v-.538zm1.703 0v-.388h.74v.926h-.74v-.538zm1.703 0v-.388h.74v.926h-.74v-.538zm1.702 0v-.388h.74v.926h-.74v-.538zm1.703 0v-.388h.74v.926h-.74v-.538zm1.703 0v-.388h.74v.926h-.74v-.538zm3.405-.388h.673v.926h-.672v-.926zm-23.767.388v-.388h.674v.926H3.78v-.538zm5.445-11.044h13.552c.937 1.118 2.19 1.74 3.685 1.84l-.195.093-.052.023-.156.07-.078.032-.13.054-.084.032-.124.047-.088.03-.12.042-.09.03-.12.036-.09.027-.12.033-.092.024-.12.03-.092.02-.12.025-.093.018-.122.022-.092.015-.122.017-.09.013-.126.014-.088.01-.13.01-.085.007-.143.007-.07.003-.214.003H8.783l-.215-.003-.07-.003-.143-.007-.085-.006-.13-.01-.09-.01-.124-.013-.09-.013-.123-.017-.092-.015-.12-.022-.093-.018-.12-.025-.092-.02-.12-.03-.09-.024-.12-.033-.092-.027-.12-.037-.09-.03-.12-.04-.088-.03-.123-.048-.085-.032-.13-.054-.078-.032-.158-.07-.05-.023-.196-.094c1.496-.098 2.748-.72 3.686-1.84zm.206 18.103c-.306-.155-.667-.245-1.06-.245-.39 0-.752.09-1.06.245v-.033c.033-.63.496-1.12 1.06-1.12.566 0 1.03.49 1.06 1.12v.033zm-2.118 3.342v-1.915c.03-.283.483-.596 1.06-.596.576 0 1.03.31 1.06.595v2.454h-2.12v-.54zm9.887-4.007c-.342-.187-.753-.293-1.2-.293-.445 0-.856.106-1.197.293v-.277c.035-.71.56-1.268 1.198-1.268.64 0 1.164.556 1.2 1.268v.277zm-2.396 4.006v-2.528c.034-.332.526-.695 1.198-.695.67 0 1.164.363 1.198.695v3.067h-2.395v-.54zm9.886-3.343c-.306-.155-.668-.245-1.06-.245-.39 0-.753.09-1.06.245v-.033c.032-.63.496-1.12 1.06-1.12.565 0 1.028.49 1.06 1.12v.033zm-2.12 3.342v-1.915c.032-.283.484-.596 1.06-.596.577 0 1.03.31 1.06.595v2.454h-2.12v-.54zm3.082 0v-3.416c-.05-1.21-.938-2.16-2.022-2.16-1.083 0-1.97.95-2.02 2.16v3.415h-3.447v-4.32c-.054-1.295-1.002-2.31-2.16-2.31-1.157 0-2.106 1.015-2.16 2.31v4.319h-3.446v-3.416c-.05-1.21-.938-2.16-2.022-2.16-1.083 0-1.97.95-2.02 2.16v3.415h-2.09v-8.246h23.48v8.245h-2.09z" fill="#206FAC"/><path d="M31.04 107.158h-1.375v-9.322c0-.4-.194-.746-.48-.933v-1.07c0-.3-.216-.54-.482-.54h-.218v-2.41c.94-.504 1.84-1.146 2.686-1.92l.07-.07.023-.028.04-.048.024-.035.03-.045.023-.04.023-.044.02-.046.018-.042.02-.05.012-.04.015-.052.01-.04.01-.056.004-.03.012-.125-.002-.125v-.002l-.01-.082v-.014l-.016-.08-.003-.014-.02-.08-.005-.013-.028-.078-.006-.013-.034-.075-.002-.005-.005-.01-.04-.068-.013-.02-.03-.047-.01-.013-.01-.014-.056-.064-.117-.11-.003-.003-.066-.047-.01-.006-.06-.037-.016-.007-.06-.028-.02-.008-.06-.02-.027-.008-.055-.014-.034-.005-.05-.007-.04-.003-.048-.002-.05.003-.08.01-.043.005-.05.013-.038.01-.05.018-.03.01c-.026.013-1.775.735-3.56.673 1.64-.685 3.193-1.863 4.596-3.502l.06-.078.02-.03.033-.052.022-.04.025-.047.018-.042.018-.048.016-.044.013-.05.012-.044.01-.053.008-.044.007-.062.003-.034.002-.098V85.5l-.006-.076-.006-.037-.01-.06-.008-.04-.013-.054-.014-.045-.016-.047-.018-.047-.018-.04-.023-.05-.02-.038-.028-.047-.005-.008-.023-.032-.028-.038-.06-.07-.002-.004-.07-.068-.025-.02-.048-.04-.035-.023-.04-.025-.042-.023-.038-.02-.044-.018-.04-.016-.044-.015-.046-.012-.04-.01-.075-.01h-.01l-.088-.004-.022.002-.066.005-.03.005-.056.01-.035.01-.048.015-.042.015-.04.016-.045.023-.017.008c-.042.024-4.186 2.23-6.164-.6l-.008-.01-.054-.068-.015-.018-.075-.076-.02-.017-.063-.05-.028-.02-.062-.037-.03-.016-.043-.022v-.614c0-.297-.216-.537-.48-.537-.267 0-.482.24-.482.538v.535H9.385v-.534c0-.297-.216-.537-.48-.537-.267 0-.482.24-.482.538v.615l-.043.022-.03.016-.06.038-.03.02-.06.05-.022.018-.076.076-.014.018-.054.07-.007.007c-1.967 2.812-6.124.623-6.164.6l-.017-.007-.044-.02-.042-.02-.04-.013-.05-.015-.034-.008-.06-.012-.027-.004-.074-.005H1.46l-.175.013-.033.008-.052.013-.04.013-.043.015-.042.02-.04.018-.04.022-.042.026-.035.023-.047.037-.025.02-.07.068-.006.008-.057.066-.027.04-.022.03-.006.01-.027.046-.02.04-.023.046-.018.043-.02.048-.014.047-.014.045-.013.053-.01.04-.01.06-.004.038-.005.077v.022l.002.097.003.034.007.063.008.043.01.053.012.044.014.05.016.043.018.048.02.043.023.048.02.04.034.05.02.03.06.08c1.404 1.638 2.957 2.816 4.596 3.502-1.784.062-3.533-.66-3.56-.67l-.026-.01-.053-.02-.03-.008-.057-.015-.036-.005-.082-.01-.054-.003-.038.002-.05.003-.04.006-.046.006-.044.01-.04.012-.047.016-.037.015-.046.02-.035.017-.044.026-.035.023-.04.028-.043.035-.028.023-.067.068-.012.015-.05.063-.006.006-.014.022-.035.054-.023.04-.015.027-.01.018-.02.048-.02.043-.017.05-.014.045-.014.05-.01.05-.01.046-.007.06-.005.037-.003.078v.022l.005.098.003.03.01.067.007.04.012.055.01.043.017.05.016.044.02.046.02.043.023.043.023.04.028.046.025.034.04.048.022.028.07.07c.846.774 1.747 1.416 2.685 1.92v2.41h-.218c-.266 0-.48.24-.48.54v1.07c-.288.187-.482.534-.482.933v9.322H.966c-.532 0-.963.483-.963 1.078 0 .594.43 1.077.963 1.077h30.076c.532 0 .963-.483.963-1.077 0-.596-.43-1.078-.963-1.078zM17.817 90.496v.33h-3.634v-.87h3.634v.54zm-4.116 1.408H18.3c.265 0 .48-.24.48-.54v-.868h4.064c.77.727 1.677 1.122 2.598 1.31l-.39.088-.086.017-.386.07-.062.01-.19.022-.17.022-.062.007-.392.03-.085.005-.403.01H8.782l-.402-.01-.086-.004-.39-.03-.067-.006-.17-.02-.186-.024-.064-.01-.384-.068-.086-.017-.39-.09c.922-.185 1.828-.58 2.598-1.308h4.064v.87c0 .297.216.538.48.538zM4.48 93.348c1.378.588 2.826.89 4.303.89h14.435c1.476 0 2.924-.302 4.302-.89v1.945H4.48v-1.945zm.936 3.41v-.388h.74v.926h-.74v-.538zm21.17 0v.538h-.74v-.926h.74v.388zm-19.468 0v-.388h.74v.926h-.74v-.538zm1.703 0v-.388h.74v.926h-.74v-.538zm1.703 0v-.388h.74v.926h-.74v-.538zm1.703 0v-.388h.74v.926h-.74v-.538zm1.702 0v-.388h.74v.926h-.74v-.538zm1.703 0v-.388h.74v.926h-.74v-.538zm1.703 0v-.388h.74v.926h-.74v-.538zm1.703 0v-.388h.74v.926h-.74v-.538zm1.702 0v-.388h.74v.926h-.74v-.538zm1.703 0v-.388h.74v.926h-.74v-.538zm1.703 0v-.388h.74v.926h-.74v-.538zm3.405-.388h.673v.926h-.672v-.926zm-23.767.388v-.388h.674v.926H3.78v-.538zm5.445-11.044h13.552c.937 1.118 2.19 1.74 3.685 1.84l-.195.093-.052.023-.156.07-.078.032-.13.054-.084.032-.124.047-.088.03-.12.042-.09.03-.12.036-.09.027-.12.033-.092.024-.12.03-.092.02-.12.025-.093.018-.122.022-.092.015-.122.017-.09.013-.126.014-.088.01-.13.01-.085.007-.143.007-.07.003-.214.003H8.783l-.215-.003-.07-.003-.143-.007-.085-.006-.13-.01-.09-.01-.124-.013-.09-.013-.123-.017-.092-.015-.12-.022-.093-.018-.12-.025-.092-.02-.12-.03-.09-.024-.12-.033-.092-.027-.12-.037-.09-.03-.12-.04-.088-.03-.123-.048-.085-.032-.13-.054-.078-.032-.158-.07-.05-.023-.196-.094c1.496-.098 2.748-.72 3.686-1.84zm.206 18.103c-.306-.155-.667-.245-1.06-.245-.39 0-.752.09-1.06.245v-.033c.033-.63.496-1.12 1.06-1.12.566 0 1.03.49 1.06 1.12v.033zm-2.118 3.342v-1.915c.03-.283.483-.596 1.06-.596.576 0 1.03.31 1.06.595v2.454h-2.12v-.54zm9.887-4.007c-.342-.187-.753-.293-1.2-.293-.445 0-.856.106-1.197.293v-.277c.035-.71.56-1.268 1.198-1.268.64 0 1.164.556 1.2 1.268v.277zm-2.396 4.006v-2.528c.034-.332.526-.695 1.198-.695.67 0 1.164.363 1.198.695v3.067h-2.395v-.54zm9.886-3.343c-.306-.155-.668-.245-1.06-.245-.39 0-.753.09-1.06.245v-.033c.032-.63.496-1.12 1.06-1.12.565 0 1.028.49 1.06 1.12v.033zm-2.12 3.342v-1.915c.032-.283.484-.596 1.06-.596.577 0 1.03.31 1.06.595v2.454h-2.12v-.54zm3.082 0v-3.416c-.05-1.21-.938-2.16-2.022-2.16-1.083 0-1.97.95-2.02 2.16v3.415h-3.447v-4.32c-.054-1.295-1.002-2.31-2.16-2.31-1.157 0-2.106 1.015-2.16 2.31v4.319h-3.446v-3.416c-.05-1.21-.938-2.16-2.022-2.16-1.083 0-1.97.95-2.02 2.16v3.415h-2.09v-8.246h23.48v8.245h-2.09z" fill="#fff"/><path d="M31.04 67.158h-1.375v-9.322c0-.4-.194-.746-.48-.933v-1.07c0-.3-.216-.54-.482-.54h-.218v-2.41c.94-.504 1.84-1.146 2.686-1.92l.07-.07.023-.028.04-.048.024-.035.03-.045.023-.04.023-.044.02-.046.018-.042.02-.05.012-.04.015-.052.01-.04.01-.056.004-.03.012-.125-.002-.125v-.002l-.01-.082v-.014l-.016-.08-.003-.014-.02-.08-.005-.013-.028-.078-.006-.013-.034-.075-.002-.005-.005-.01-.04-.068-.013-.02-.03-.047-.01-.013-.01-.014-.056-.064-.117-.11-.003-.003-.066-.047-.01-.006-.06-.037-.016-.007-.06-.028-.02-.008-.06-.02-.027-.008-.055-.014-.034-.005-.05-.007-.04-.003-.048-.002-.05.003-.08.01-.043.005-.05.013-.038.01-.05.018-.03.01c-.026.013-1.775.735-3.56.673 1.64-.685 3.193-1.863 4.596-3.502l.06-.078.02-.03.033-.052.022-.04.025-.047.018-.042.018-.048.016-.044.013-.05.012-.044.01-.053.008-.044.007-.062.003-.034.002-.098V45.5l-.006-.076-.006-.037-.01-.06-.008-.04-.013-.054-.014-.045-.016-.047-.018-.047-.018-.04-.023-.05-.02-.038-.028-.047-.005-.008-.023-.032-.028-.038-.06-.07-.002-.004-.07-.068-.025-.02-.048-.04-.035-.023-.04-.025-.042-.023-.038-.02-.044-.018-.04-.016-.044-.015-.046-.012-.04-.01-.075-.01h-.01l-.088-.004-.022.002-.066.005-.03.005-.056.01-.035.01-.048.015-.042.015-.04.016-.045.023-.017.008c-.042.024-4.186 2.23-6.164-.6l-.008-.01-.054-.068-.015-.018-.075-.076-.02-.017-.063-.05-.028-.02-.062-.037-.03-.016-.043-.022v-.614c0-.297-.216-.537-.48-.537-.267 0-.482.24-.482.538v.535H9.385v-.534c0-.297-.216-.537-.48-.537-.267 0-.482.24-.482.538v.615l-.043.022-.03.016-.06.038-.03.02-.06.05-.022.018-.076.076-.014.018-.054.07-.007.007c-1.967 2.812-6.124.623-6.164.6l-.017-.007-.044-.02-.042-.02-.04-.013-.05-.015-.034-.008-.06-.012-.027-.004-.074-.005H1.46l-.175.013-.033.008-.052.013-.04.013-.043.015-.042.02-.04.018-.04.022-.042.026-.035.023-.047.037-.025.02-.07.068-.006.008-.057.066-.027.04-.022.03-.006.01-.027.046-.02.04-.023.046-.018.043-.02.048-.014.047-.014.045-.013.053-.01.04-.01.06-.004.038-.005.077v.022l.002.097.003.034.007.063.008.043.01.053.012.044.014.05.016.043.018.048.02.043.023.048.02.04.034.05.02.03.06.08c1.404 1.638 2.957 2.816 4.596 3.502-1.784.062-3.533-.66-3.56-.67l-.026-.01-.053-.02-.03-.008-.057-.015-.036-.005-.082-.01-.054-.003-.038.002-.05.003-.04.006-.046.006-.044.01-.04.012-.047.016-.037.015-.046.02-.035.017-.044.026-.035.023-.04.028-.043.035-.028.023-.067.068-.012.015-.05.063-.006.006-.014.022-.035.054-.023.04-.015.027-.01.018-.02.048-.02.043-.017.05-.014.045-.014.05-.01.05-.01.046-.007.06-.005.037-.003.078v.022l.005.098.003.03.01.067.007.04.012.055.01.043.017.05.016.044.02.046.02.043.023.043.023.04.028.046.025.034.04.048.022.028.07.07c.846.774 1.747 1.416 2.685 1.92v2.41h-.218c-.266 0-.48.24-.48.54v1.07c-.288.187-.482.534-.482.933v9.322H.966c-.532 0-.963.483-.963 1.078 0 .594.43 1.077.963 1.077h30.076c.532 0 .963-.483.963-1.077 0-.596-.43-1.078-.963-1.078zM17.817 50.496v.33h-3.634v-.87h3.634v.54zm-4.116 1.408H18.3c.265 0 .48-.24.48-.54v-.868h4.064c.77.727 1.677 1.122 2.598 1.31l-.39.088-.086.017-.386.07-.062.01-.19.022-.17.022-.062.007-.392.03-.085.005-.403.01H8.782l-.402-.01-.086-.004-.39-.03-.067-.006-.17-.02-.186-.024-.064-.01-.384-.068-.086-.017-.39-.09c.922-.185 1.828-.58 2.598-1.308h4.064v.87c0 .297.216.538.48.538zM4.48 53.348c1.378.588 2.826.89 4.303.89h14.435c1.476 0 2.924-.302 4.302-.89v1.945H4.48v-1.945zm.936 3.41v-.388h.74v.926h-.74v-.538zm21.17 0v.538h-.74v-.926h.74v.388zm-19.468 0v-.388h.74v.926h-.74v-.538zm1.703 0v-.388h.74v.926h-.74v-.538zm1.703 0v-.388h.74v.926h-.74v-.538zm1.703 0v-.388h.74v.926h-.74v-.538zm1.702 0v-.388h.74v.926h-.74v-.538zm1.703 0v-.388h.74v.926h-.74v-.538zm1.703 0v-.388h.74v.926h-.74v-.538zm1.703 0v-.388h.74v.926h-.74v-.538zm1.702 0v-.388h.74v.926h-.74v-.538zm1.703 0v-.388h.74v.926h-.74v-.538zm1.703 0v-.388h.74v.926h-.74v-.538zm3.405-.388h.673v.926h-.672v-.926zm-23.767.388v-.388h.674v.926H3.78v-.538zm5.445-11.044h13.552c.937 1.118 2.19 1.74 3.685 1.84l-.195.093-.052.023-.156.07-.078.032-.13.054-.084.032-.124.047-.088.03-.12.042-.09.03-.12.036-.09.027-.12.033-.092.024-.12.03-.092.02-.12.025-.093.018-.122.022-.092.015-.122.017-.09.013-.126.014-.088.01-.13.01-.085.007-.143.007-.07.003-.214.003H8.783l-.215-.003-.07-.003-.143-.007-.085-.006-.13-.01-.09-.01-.124-.013-.09-.013-.123-.017-.092-.015-.12-.022-.093-.018-.12-.025-.092-.02-.12-.03-.09-.024-.12-.033-.092-.027-.12-.037-.09-.03-.12-.04-.088-.03-.123-.048-.085-.032-.13-.054-.078-.032-.158-.07-.05-.023-.196-.094c1.496-.098 2.748-.72 3.686-1.84zm.206 18.103c-.306-.155-.667-.245-1.06-.245-.39 0-.752.09-1.06.245v-.033c.033-.63.496-1.12 1.06-1.12.566 0 1.03.49 1.06 1.12v.033zM7.313 67.16v-1.915c.03-.283.483-.596 1.06-.596.576 0 1.03.31 1.06.595V67.7h-2.12v-.54zm9.887-4.007c-.342-.187-.753-.293-1.2-.293-.445 0-.856.106-1.197.293v-.277c.035-.71.56-1.268 1.198-1.268.64 0 1.164.556 1.2 1.268v.277zm-2.396 4.006V64.63c.034-.332.526-.695 1.198-.695.67 0 1.164.363 1.198.695V67.7h-2.395v-.54zm9.886-3.343c-.306-.155-.668-.245-1.06-.245-.39 0-.753.09-1.06.245v-.033c.032-.63.496-1.12 1.06-1.12.565 0 1.028.49 1.06 1.12v.033zm-2.12 3.342v-1.915c.032-.283.484-.596 1.06-.596.577 0 1.03.31 1.06.595V67.7h-2.12v-.54zm3.082 0v-3.416c-.05-1.21-.938-2.16-2.022-2.16-1.083 0-1.97.95-2.02 2.16v3.415h-3.447v-4.32c-.054-1.295-1.002-2.31-2.16-2.31-1.157 0-2.106 1.015-2.16 2.31v4.319h-3.446v-3.416c-.05-1.21-.938-2.16-2.022-2.16-1.083 0-1.97.95-2.02 2.16v3.415h-2.09v-8.246h23.48v8.245h-2.09z" fill="#67737B"/><path d="M31.04 27.158h-1.375v-9.322c0-.4-.194-.746-.48-.933v-1.07c0-.3-.216-.54-.482-.54h-.218v-2.41c.94-.504 1.84-1.146 2.686-1.92l.07-.07.023-.028.04-.048.024-.035.03-.045.023-.04.023-.044.02-.046.018-.042.02-.05.012-.04.015-.052.01-.04.01-.056.004-.03.012-.125-.002-.125v-.002l-.01-.082V9.95l-.016-.08-.003-.014-.02-.08-.005-.013-.028-.078-.006-.013-.034-.075-.002-.005-.005-.01-.04-.068-.013-.02-.03-.047-.01-.013-.01-.014-.056-.064-.117-.11-.003-.003-.066-.047-.01-.006-.06-.037-.016-.007-.06-.028-.02-.008-.06-.02-.027-.008-.055-.014-.034-.005-.05-.007-.04-.003-.048-.002-.05.003-.08.01-.043.005-.05.013-.038.01-.05.018-.03.01c-.026.013-1.775.735-3.56.673 1.64-.685 3.193-1.863 4.596-3.502l.06-.078.02-.03.033-.052.022-.04.025-.047.018-.042.018-.048.016-.044.013-.05.012-.044.01-.053.008-.044.007-.062.003-.034.002-.098V5.5l-.006-.076-.006-.037-.01-.06-.008-.04-.013-.054-.014-.045-.016-.047-.018-.047-.018-.04-.023-.05-.02-.038-.028-.047-.005-.008-.023-.032-.028-.038-.06-.07-.002-.004-.07-.068-.025-.02-.048-.04-.035-.023-.04-.025-.042-.023-.038-.02-.044-.018-.04-.016-.044-.015-.046-.012-.04-.01-.075-.01h-.01l-.088-.004-.022.002-.066.005-.03.005-.056.01-.035.01-.048.015-.042.015-.04.016-.045.023-.017.008c-.042.024-4.186 2.23-6.164-.6l-.008-.01-.054-.068-.015-.018-.075-.076-.02-.017-.063-.05-.028-.02-.062-.037-.03-.016-.043-.022V3.02c0-.297-.216-.537-.48-.537-.267 0-.482.24-.482.538v.535H9.385V3.02c0-.297-.216-.537-.48-.537-.267 0-.482.24-.482.538v.615l-.043.022-.03.016-.06.038-.03.02-.06.05-.022.018-.076.076-.014.018-.054.07-.007.007c-1.967 2.812-6.124.623-6.164.6l-.017-.007-.044-.02-.042-.02-.04-.013-.05-.015-.034-.008-.06-.012-.027-.004-.074-.005H1.46l-.175.013-.033.008L1.2 4.5l-.04.013-.043.015-.042.02-.04.018-.04.022-.042.026-.035.023-.047.037-.025.02-.07.068-.006.008-.057.066-.027.04-.022.03-.006.01-.027.046-.02.04-.023.046-.018.043-.02.048-.014.047-.014.045-.013.053-.01.04-.01.06-.004.038-.005.077v.022l.002.097.003.034.007.063.008.043.01.053.012.044.014.05.016.043.018.048.02.043.023.048.02.04.034.05.02.03.06.08C2.152 7.923 3.705 9.1 5.344 9.787c-1.784.062-3.533-.66-3.56-.67l-.026-.01-.053-.02-.03-.008-.057-.015-.036-.005-.082-.01-.054-.003-.038.002-.05.003-.04.006-.046.006-.044.01-.04.012-.047.016-.037.015-.046.02-.035.017-.044.026-.035.023-.04.028-.043.035-.028.023-.067.068-.012.015-.05.063-.006.006-.014.022-.035.054-.023.04-.015.027-.01.018-.02.048-.02.043-.017.05-.014.045-.014.05-.01.05-.01.046-.007.06-.005.037-.003.078v.022l.005.098.003.03.01.067.007.04.012.055.01.043.017.05.016.044.02.046.02.043.023.043.023.04.028.046.025.034.04.048.022.028.07.07c.846.774 1.747 1.416 2.685 1.92v2.41h-.218c-.266 0-.48.24-.48.54v1.07c-.288.187-.482.534-.482.933v9.322H.966c-.532 0-.963.483-.963 1.078 0 .594.43 1.077.963 1.077h30.076c.532 0 .963-.483.963-1.077 0-.596-.43-1.078-.963-1.078zM17.817 10.496v.33h-3.634v-.87h3.634v.54zm-4.116 1.408H18.3c.265 0 .48-.24.48-.54v-.868h4.064c.77.727 1.677 1.122 2.598 1.31l-.39.088-.086.017-.386.07-.062.01-.19.022-.17.022-.062.007-.392.03-.085.005-.403.01H8.782l-.402-.01-.086-.004-.39-.03-.067-.006-.17-.02-.186-.024-.064-.01-.384-.068-.086-.017-.39-.09c.922-.185 1.828-.58 2.598-1.308h4.064v.87c0 .297.216.538.48.538zM4.48 13.348c1.378.588 2.826.89 4.303.89h14.435c1.476 0 2.924-.302 4.302-.89v1.945H4.48v-1.945zm.936 3.41v-.388h.74v.926h-.74v-.538zm21.17 0v.538h-.74v-.926h.74v.388zm-19.468 0v-.388h.74v.926h-.74v-.538zm1.703 0v-.388h.74v.926h-.74v-.538zm1.703 0v-.388h.74v.926h-.74v-.538zm1.703 0v-.388h.74v.926h-.74v-.538zm1.702 0v-.388h.74v.926h-.74v-.538zm1.703 0v-.388h.74v.926h-.74v-.538zm1.703 0v-.388h.74v.926h-.74v-.538zm1.703 0v-.388h.74v.926h-.74v-.538zm1.702 0v-.388h.74v.926h-.74v-.538zm1.703 0v-.388h.74v.926h-.74v-.538zm1.703 0v-.388h.74v.926h-.74v-.538zm3.405-.388h.673v.926h-.672v-.926zm-23.767.388v-.388h.674v.926H3.78v-.538zM9.226 5.714h13.552c.937 1.118 2.19 1.74 3.685 1.84l-.195.093-.052.023-.156.07-.078.032-.13.054-.084.032-.124.047-.088.03-.12.042-.09.03-.12.036-.09.027-.12.033-.092.024-.12.03-.092.02-.12.025-.093.018-.122.022-.092.015-.122.017-.09.013-.126.014-.088.01-.13.01-.085.007-.143.007-.07.003-.214.003H8.783l-.215-.003-.07-.003-.143-.007-.085-.006-.13-.01-.09-.01-.124-.013-.09-.013-.123-.017-.092-.015-.12-.022-.093-.018-.12-.025-.092-.02-.12-.03-.09-.024-.12-.033-.092-.027-.12-.037-.09-.03-.12-.04-.088-.03-.123-.048-.085-.032-.13-.054-.078-.032-.158-.07-.05-.023-.196-.094c1.496-.098 2.748-.72 3.686-1.84zm.206 18.103c-.306-.155-.667-.245-1.06-.245-.39 0-.752.09-1.06.245v-.033c.033-.63.496-1.12 1.06-1.12.566 0 1.03.49 1.06 1.12v.033zM7.313 27.16v-1.915c.03-.283.483-.596 1.06-.596.576 0 1.03.31 1.06.595V27.7h-2.12v-.54zm9.887-4.007c-.342-.187-.753-.293-1.2-.293-.445 0-.856.106-1.197.293v-.277c.035-.71.56-1.268 1.198-1.268.64 0 1.164.556 1.2 1.268v.277zm-2.396 4.006V24.63c.034-.332.526-.695 1.198-.695.67 0 1.164.363 1.198.695V27.7h-2.395v-.54zm9.886-3.343c-.306-.155-.668-.245-1.06-.245-.39 0-.753.09-1.06.245v-.033c.032-.63.496-1.12 1.06-1.12.565 0 1.028.49 1.06 1.12v.033zm-2.12 3.342v-1.915c.032-.283.484-.596 1.06-.596.577 0 1.03.31 1.06.595V27.7h-2.12v-.54zm3.082 0v-3.416c-.05-1.21-.938-2.16-2.022-2.16-1.083 0-1.97.95-2.02 2.16v3.415h-3.447v-4.32c-.054-1.295-1.002-2.31-2.16-2.31-1.157 0-2.106 1.015-2.16 2.31v4.319h-3.446v-3.416c-.05-1.21-.938-2.16-2.022-2.16-1.083 0-1.97.95-2.02 2.16v3.415h-2.09v-8.246h23.48v8.245h-2.09z" fill="#3A434E"/></g></svg>