<svg width="32" height="232" viewBox="0 0 32 232" xmlns="http://www.w3.org/2000/svg" xmlns:sketch="http://www.bohemiancoding.com/sketch/ns"><title>madrid</title><desc>Created with Sketch.</desc><g sketch:type="MSPage" fill="none"><g sketch:type="MSShapeGroup"><path d="M30.95 149.186h-1.173v-14.008l.578-1.996c.048-.168.019-.349-.08-.489s-.255-.224-.421-.224h-.601v-1.169l-.002-.027.606-.636c.205-.216.206-.564.001-.781-.191-.201-.494-.212-.699-.036v-.282c0-.304-.235-.551-.525-.551-.289 0-.524.246-.524.551v.282c-.206-.176-.508-.165-.7.036-.204.216-.204.565.001.781l.107.112h-2.129l.107-.112c.204-.216.205-.564.001-.781-.191-.201-.494-.212-.7-.036v-.282c0-.304-.234-.551-.524-.551-.289 0-.524.246-.524.551v.282c-.206-.176-.508-.165-.7.036-.205.216-.204.565.001.781l.107.112h-1.573v-1.956l.066-.096c.093-.174.089-.387-.011-.557-.875-1.5-2.216-2.563-3.764-3.039.199-.216.198-.559-.005-.772-.204-.216-.536-.216-.741-.001l-.5.524-.098-.008v-1.363c0-.305-.235-.552-.524-.552-.29 0-.524.247-.524.552v1.363l-.098.008-.5-.524c-.205-.214-.537-.214-.741.001-.202.213-.203.557-.005.772-1.548.476-2.888 1.539-3.764 3.039-.099.171-.104.383-.011.557l.066.096v1.956h-1.573l.107-.112c.205-.216.205-.564.001-.781-.191-.201-.494-.212-.7-.036v-.282c0-.304-.234-.551-.524-.551-.289 0-.524.246-.524.551v.282c-.206-.176-.508-.165-.7.036-.204.216-.204.565.001.781l.107.112h-2.129l.107-.112c.205-.216.205-.564.001-.781-.191-.201-.494-.212-.7-.036v-.282c0-.304-.234-.551-.524-.551-.29 0-.525.246-.525.551v.282c-.205-.176-.508-.165-.699.036-.205.216-.204.565.001.781l.606.636-.003.027v1.169h-.6c-.166 0-.322.083-.421.224-.099.14-.129.321-.08.489l.578 1.995-.001.011v13.998h-1.172c-.579 0-1.049.494-1.049 1.103s.469 1.102 1.049 1.102h29.883c.579 0 1.048-.493 1.048-1.102 0-.609-.469-1.103-1.048-1.103zm-27.139-17.334h6.621v.618h-6.621v-.618zm11.203-5.833l.552.578c.102.108.236.161.37.161l.074-.007.073.007c.133 0 .268-.053.37-.161l.552-.578c1.148.217 2.192.804 3 1.687l.152.171h-8.294l.152-.171c.807-.883 1.852-1.471 3-1.687zm6.571 5.833h6.621v.618h-6.621v-.618zm-17.25 4.439h5.445c.037.267.253.473.516.473.173 0 .325-.089.421-.226.05-.071.083-.155.095-.247h4.679c.036.267.252.473.517.473.264 0 .48-.206.516-.473h4.679c.012.092.045.176.095.248.096.136.248.225.421.225.264 0 .48-.206.516-.473h5.446v1.346h-23.347v-1.346zm17.25-2.718h6.621v.512h-6.621v-.512zm-9.057 0h6.961v.512h-6.961v-.512zm-8.178 15.613v-6.243h1.522v6.794h-1.522v-.551zm4.673 0v-7.246c.036-.68.569-1.212 1.219-1.212.65 0 1.183.532 1.219 1.212v7.798h-2.438v-.551zm5.711 0v-7.246c.036-.68.569-1.212 1.219-1.212.65 0 1.183.532 1.219 1.212v7.798h-2.438v-.551zm5.712 0v-7.246c.036-.68.57-1.212 1.219-1.212.65 0 1.183.532 1.219 1.212v7.798h-2.438v-.551zm5.699 0v-6.243h1.523v6.794h-1.523v-.551zm1.537-7.345h-2.061c-.29 0-.525.246-.525.551v5.056h-1.164v-5.523l-.001-.025c-.056-1.277-1.052-2.276-2.267-2.276-1.214 0-2.21.999-2.266 2.276l-.001.025v5.523h-1.177v-5.523l-.001-.025c-.056-1.277-1.052-2.276-2.266-2.276-1.215 0-2.21.999-2.267 2.276l-.001.025v5.523h-1.177v-5.523l-.001-.025c-.056-1.277-1.052-2.276-2.266-2.276-1.215 0-2.21.999-2.266 2.276l-.001.025v5.523h-1.055v-5.056c0-.305-.235-.551-.524-.551h-2.061v-3.101h23.347v3.101zm-8.193-10.541v1.169h-6.961v-3.49h6.961v2.321zm-15.678 2.273h6.621v.512h-6.621v-.512zm3.109 14.979h1.055v.634h-1.055v-.634zm5.589 0h1.177v.634h-1.177v-.634zm5.712 0h1.177v.634h-1.177v-.634zm5.712 0h1.165v.634h-1.165v-.634zm-10.422-16.439h4.996c.289 0 .524-.247.524-.551v-1.773c0-.304-.234-.551-.524-.551h-4.996c-.289 0-.524.246-.524.551v1.773c0 .304.234.551.524.551zm.524-1.772h3.948v.669h-3.948v-.669zm-11.659-7.483c.233.217.53.335.839.335h3.367l-.004.064c0 .334.137.653.376.875.203.188.464.292.733.292h3.593c.612 0 1.109-.524 1.109-1.167 0-.644-.497-1.167-1.109-1.167h-.065l.021-.234c0-.738-.57-1.338-1.27-1.338h-6.75c-.308 0-.606.119-.84.335-.273.255-.43.62-.43 1.003 0 .383.157.749.431 1.002zm.693-1.177l.146-.059h6.75c.123 0 .222.105.222.235 0 .129-.099.234-.222.234-.29 0-.525.246-.525.551h-.002c0 .304.235.551.525.551h1.317l.061.064-.061.064h-3.593l-.039-.016-.022-.048.022-.048.039-.016h.002c.29 0 .524-.247.524-.551 0-.305-.234-.551-.524-.551h-4.474l-.146-.059c-.028-.027-.076-.084-.076-.175 0-.092.048-.149.076-.175zm16.646 2.099h2.926c.289 0 .524-.246.524-.551 0-.305-.235-.551-.524-.551h-2.926c-.289 0-.524.246-.524.551 0 .304.234.551.524.551zm1.16-1.489h4.944c.289 0 .524-.247.524-.551 0-.305-.234-.552-.524-.552h-4.944c-.289 0-.524.247-.524.552 0 .304.234.551.524.551z" fill="#206FAC"/><path d="M30.95 109.186h-1.173v-14.008l.578-1.996c.048-.168.019-.349-.08-.489s-.255-.224-.421-.224h-.601v-1.169l-.002-.027.606-.636c.205-.216.206-.564.001-.781-.191-.201-.494-.212-.699-.036v-.282c0-.304-.235-.551-.525-.551-.289 0-.524.246-.524.551v.282c-.206-.176-.508-.165-.7.036-.204.216-.204.565.001.781l.107.112h-2.129l.107-.112c.204-.216.205-.564.001-.781-.191-.201-.494-.212-.7-.036v-.282c0-.304-.234-.551-.524-.551-.289 0-.524.246-.524.551v.282c-.206-.176-.508-.165-.7.036-.205.216-.204.565.001.781l.107.112h-1.573v-1.956l.066-.096c.093-.174.089-.387-.011-.557-.875-1.5-2.216-2.563-3.764-3.039.199-.216.198-.559-.005-.772-.204-.216-.536-.216-.741-.001l-.5.524-.098-.008v-1.363c0-.305-.235-.552-.524-.552-.29 0-.524.247-.524.552v1.363l-.098.008-.5-.524c-.205-.214-.537-.214-.741.001-.202.213-.203.557-.005.772-1.548.476-2.888 1.539-3.764 3.039-.099.171-.104.383-.011.557l.066.096v1.956h-1.573l.107-.112c.205-.216.205-.564.001-.781-.191-.201-.494-.212-.7-.036v-.282c0-.304-.234-.551-.524-.551-.289 0-.524.246-.524.551v.282c-.206-.176-.508-.165-.7.036-.204.216-.204.565.001.781l.107.112h-2.129l.107-.112c.205-.216.205-.564.001-.781-.191-.201-.494-.212-.7-.036v-.282c0-.304-.234-.551-.524-.551-.29 0-.525.246-.525.551v.282c-.205-.176-.508-.165-.699.036-.205.216-.204.565.001.781l.606.636-.003.027v1.169h-.6c-.166 0-.322.083-.421.224-.099.14-.129.321-.08.489l.578 1.995-.001.011v13.998h-1.172c-.579 0-1.049.494-1.049 1.103s.469 1.102 1.049 1.102h29.883c.579 0 1.048-.493 1.048-1.102 0-.609-.469-1.103-1.048-1.103zm-27.139-17.334h6.621v.618h-6.621v-.618zm11.203-5.833l.552.578c.102.108.236.161.37.161l.074-.007.073.007c.133 0 .268-.053.37-.161l.552-.578c1.148.217 2.192.804 3 1.687l.152.171h-8.294l.152-.171c.807-.883 1.852-1.471 3-1.687zm6.571 5.833h6.621v.618h-6.621v-.618zm-17.25 4.439h5.445c.037.267.253.473.516.473.173 0 .325-.089.421-.226.05-.071.083-.155.095-.247h4.679c.036.267.252.473.517.473.264 0 .48-.206.516-.473h4.679c.012.092.045.176.095.248.096.136.248.225.421.225.264 0 .48-.206.516-.473h5.446v1.346h-23.347v-1.346zm17.25-2.718h6.621v.512h-6.621v-.512zm-9.057 0h6.961v.512h-6.961v-.512zm-8.178 15.613v-6.243h1.522v6.794h-1.522v-.551zm4.673 0v-7.246c.036-.68.569-1.212 1.219-1.212.65 0 1.183.532 1.219 1.212v7.798h-2.438v-.551zm5.711 0v-7.246c.036-.68.569-1.212 1.219-1.212.65 0 1.183.532 1.219 1.212v7.798h-2.438v-.551zm5.712 0v-7.246c.036-.68.57-1.212 1.219-1.212.65 0 1.183.532 1.219 1.212v7.798h-2.438v-.551zm5.699 0v-6.243h1.523v6.794h-1.523v-.551zm1.537-7.345h-2.061c-.29 0-.525.246-.525.551v5.056h-1.164v-5.523l-.001-.025c-.056-1.277-1.052-2.276-2.267-2.276-1.214 0-2.21.999-2.266 2.276l-.001.025v5.523h-1.177v-5.523l-.001-.025c-.056-1.277-1.052-2.276-2.266-2.276-1.215 0-2.21.999-2.267 2.276l-.001.025v5.523h-1.177v-5.523l-.001-.025c-.056-1.277-1.052-2.276-2.266-2.276-1.215 0-2.21.999-2.266 2.276l-.001.025v5.523h-1.055v-5.056c0-.305-.235-.551-.524-.551h-2.061v-3.101h23.347v3.101zm-8.193-10.541v1.169h-6.961v-3.49h6.961v2.321zm-15.678 2.273h6.621v.512h-6.621v-.512zm3.109 14.979h1.055v.634h-1.055v-.634zm5.589 0h1.177v.634h-1.177v-.634zm5.712 0h1.177v.634h-1.177v-.634zm5.712 0h1.165v.634h-1.165v-.634zm-10.422-16.439h4.996c.289 0 .524-.247.524-.551v-1.773c0-.304-.234-.551-.524-.551h-4.996c-.289 0-.524.246-.524.551v1.773c0 .304.234.551.524.551zm.524-1.772h3.948v.669h-3.948v-.669zm-11.659-7.483c.233.217.53.335.839.335h3.367l-.004.064c0 .334.137.653.376.875.203.188.464.292.733.292h3.593c.612 0 1.109-.524 1.109-1.167 0-.644-.497-1.167-1.109-1.167h-.065l.021-.234c0-.738-.57-1.338-1.27-1.338h-6.75c-.308 0-.606.119-.84.335-.273.255-.43.62-.43 1.003 0 .383.157.749.431 1.002zm.693-1.177l.146-.059h6.75c.123 0 .222.105.222.235 0 .129-.099.234-.222.234-.29 0-.525.246-.525.551h-.002c0 .304.235.551.525.551h1.317l.061.064-.061.064h-3.593l-.039-.016-.022-.048.022-.048.039-.016h.002c.29 0 .524-.247.524-.551 0-.305-.234-.551-.524-.551h-4.474l-.146-.059c-.028-.027-.076-.084-.076-.175 0-.092.048-.149.076-.175zm16.646 2.099h2.926c.289 0 .524-.246.524-.551 0-.305-.235-.551-.524-.551h-2.926c-.289 0-.524.246-.524.551 0 .304.234.551.524.551zm1.16-1.489h4.944c.289 0 .524-.247.524-.551 0-.305-.234-.552-.524-.552h-4.944c-.289 0-.524.247-.524.552 0 .304.234.551.524.551z" fill="#fff"/><path d="M30.95 69.186h-1.173v-14.008l.578-1.996c.048-.168.019-.349-.08-.489s-.255-.224-.421-.224h-.601v-1.169l-.002-.027.606-.636c.205-.216.206-.564.001-.781-.191-.201-.494-.212-.699-.036v-.282c0-.304-.235-.551-.525-.551-.289 0-.524.246-.524.551v.282c-.206-.176-.508-.165-.7.036-.204.216-.204.565.001.781l.107.112h-2.129l.107-.112c.204-.216.205-.564.001-.781-.191-.201-.494-.212-.7-.036v-.282c0-.304-.234-.551-.524-.551-.289 0-.524.246-.524.551v.282c-.206-.176-.508-.165-.7.036-.205.216-.204.565.001.781l.107.112h-1.573v-1.956l.066-.096c.093-.174.089-.387-.011-.557-.875-1.5-2.216-2.563-3.764-3.039.199-.216.198-.559-.005-.772-.204-.216-.536-.216-.741-.001l-.5.524-.098-.008v-1.363c0-.305-.235-.552-.524-.552-.29 0-.524.247-.524.552v1.363l-.098.008-.5-.524c-.205-.214-.537-.214-.741.001-.202.213-.203.557-.005.772-1.548.476-2.888 1.539-3.764 3.039-.099.171-.104.383-.011.557l.066.096v1.956h-1.573l.107-.112c.205-.216.205-.564.001-.781-.191-.201-.494-.212-.7-.036v-.282c0-.304-.234-.551-.524-.551-.289 0-.524.246-.524.551v.282c-.206-.176-.508-.165-.7.036-.204.216-.204.565.001.781l.107.112h-2.129l.107-.112c.205-.216.205-.564.001-.781-.191-.201-.494-.212-.7-.036v-.282c0-.304-.234-.551-.524-.551-.29 0-.525.246-.525.551v.282c-.205-.176-.508-.165-.699.036-.205.216-.204.565.001.781l.606.636-.003.027v1.169h-.6c-.166 0-.322.083-.421.224-.099.14-.129.321-.08.489l.578 1.995-.001.011v13.998h-1.172c-.579 0-1.049.494-1.049 1.103s.469 1.102 1.049 1.102h29.883c.579 0 1.048-.493 1.048-1.102 0-.609-.469-1.103-1.048-1.103zm-27.139-17.334h6.621v.618h-6.621v-.618zm11.203-5.833l.552.578c.102.108.236.161.37.161l.074-.007.073.007c.133 0 .268-.053.37-.161l.552-.578c1.148.217 2.192.804 3 1.687l.152.171h-8.294l.152-.171c.807-.883 1.852-1.471 3-1.687zm6.571 5.833h6.621v.618h-6.621v-.618zm-17.25 4.439h5.445c.037.267.253.473.516.473.173 0 .325-.089.421-.226.05-.071.083-.155.095-.247h4.679c.036.267.252.473.517.473.264 0 .48-.206.516-.473h4.679c.012.092.045.176.095.248.096.136.248.225.421.225.264 0 .48-.206.516-.473h5.446v1.346h-23.347v-1.346zm17.25-2.718h6.621v.512h-6.621v-.512zm-9.057 0h6.961v.512h-6.961v-.512zm-8.178 15.613v-6.243h1.522v6.794h-1.522v-.551zm4.673 0v-7.246c.036-.68.569-1.212 1.219-1.212.65 0 1.183.532 1.219 1.212v7.798h-2.438v-.551zm5.711 0v-7.246c.036-.68.569-1.212 1.219-1.212.65 0 1.183.532 1.219 1.212v7.798h-2.438v-.551zm5.712 0v-7.246c.036-.68.57-1.212 1.219-1.212.65 0 1.183.532 1.219 1.212v7.798h-2.438v-.551zm5.699 0v-6.243h1.523v6.794h-1.523v-.551zm1.537-7.345h-2.061c-.29 0-.525.246-.525.551v5.056h-1.164v-5.523l-.001-.025c-.056-1.277-1.052-2.276-2.267-2.276-1.214 0-2.21.999-2.266 2.276l-.001.025v5.523h-1.177v-5.523l-.001-.025c-.056-1.277-1.052-2.276-2.266-2.276-1.215 0-2.21.999-2.267 2.276l-.001.025v5.523h-1.177v-5.523l-.001-.025c-.056-1.277-1.052-2.276-2.266-2.276-1.215 0-2.21.999-2.266 2.276l-.001.025v5.523h-1.055v-5.056c0-.305-.235-.551-.524-.551h-2.061v-3.101h23.347v3.101zm-8.193-10.541v1.169h-6.961v-3.49h6.961v2.321zm-15.678 2.273h6.621v.512h-6.621v-.512zm3.109 14.979h1.055v.634h-1.055v-.634zm5.589 0h1.177v.634h-1.177v-.634zm5.712 0h1.177v.634h-1.177v-.634zm5.712 0h1.165v.634h-1.165v-.634zm-10.422-16.439h4.996c.289 0 .524-.247.524-.551v-1.773c0-.304-.234-.551-.524-.551h-4.996c-.289 0-.524.246-.524.551v1.773c0 .304.234.551.524.551zm.524-1.772h3.948v.669h-3.948v-.669zm-11.659-7.483c.233.217.53.335.839.335h3.367l-.004.064c0 .334.137.653.376.875.203.188.464.292.733.292h3.593c.612 0 1.109-.524 1.109-1.167 0-.644-.497-1.167-1.109-1.167h-.065l.021-.234c0-.738-.57-1.338-1.27-1.338h-6.75c-.308 0-.606.119-.84.335-.273.255-.43.62-.43 1.003 0 .383.157.749.431 1.002zm.693-1.177l.146-.059h6.75c.123 0 .222.105.222.235 0 .129-.099.234-.222.234-.29 0-.525.246-.525.551h-.002c0 .304.235.551.525.551h1.317l.061.064-.061.064h-3.593l-.039-.016-.022-.048.022-.048.039-.016h.002c.29 0 .524-.247.524-.551 0-.305-.234-.551-.524-.551h-4.474l-.146-.059c-.028-.027-.076-.084-.076-.175 0-.092.048-.149.076-.175zm16.646 2.099h2.926c.289 0 .524-.246.524-.551 0-.305-.235-.551-.524-.551h-2.926c-.289 0-.524.246-.524.551 0 .304.234.551.524.551zm1.16-1.489h4.944c.289 0 .524-.247.524-.551 0-.305-.234-.552-.524-.552h-4.944c-.289 0-.524.247-.524.552 0 .304.234.551.524.551z" fill="#67737B"/><path d="M30.95 29.186h-1.173v-14.008l.578-1.996c.048-.168.019-.349-.08-.489s-.255-.224-.421-.224h-.601v-1.169l-.002-.027.606-.636c.205-.216.206-.564.001-.781-.191-.201-.494-.212-.699-.036v-.282c0-.304-.235-.551-.525-.551-.289 0-.524.246-.524.551v.282c-.206-.176-.508-.165-.7.036-.204.216-.204.565.001.781l.107.112h-2.129l.107-.112c.204-.216.205-.564.001-.781-.191-.201-.494-.212-.7-.036v-.282c0-.304-.234-.551-.524-.551-.289 0-.524.246-.524.551v.282c-.206-.176-.508-.165-.7.036-.205.216-.204.565.001.781l.107.112h-1.573v-1.956l.066-.096c.093-.174.089-.387-.011-.557-.875-1.5-2.216-2.563-3.764-3.039.199-.216.198-.559-.005-.772-.204-.216-.536-.216-.741-.001l-.5.524-.098-.008v-1.363c0-.305-.235-.552-.524-.552-.29 0-.524.247-.524.552v1.363l-.098.008-.5-.524c-.205-.214-.537-.214-.741.001-.202.213-.203.557-.005.772-1.548.476-2.888 1.539-3.764 3.039-.099.171-.104.383-.011.557l.066.096v1.956h-1.573l.107-.112c.205-.216.205-.564.001-.781-.191-.201-.494-.212-.7-.036v-.282c0-.304-.234-.551-.524-.551-.289 0-.524.246-.524.551v.282c-.206-.176-.508-.165-.7.036-.204.216-.204.565.001.781l.107.112h-2.129l.107-.112c.205-.216.205-.564.001-.781-.191-.201-.494-.212-.7-.036v-.282c0-.304-.234-.551-.524-.551-.29 0-.525.246-.525.551v.282c-.205-.176-.508-.165-.699.036-.205.216-.204.565.001.781l.606.636-.003.027v1.169h-.6c-.166 0-.322.083-.421.224-.099.14-.129.321-.08.489l.578 1.995-.001.011v13.998h-1.172c-.579 0-1.049.494-1.049 1.103s.469 1.102 1.049 1.102h29.883c.579 0 1.048-.493 1.048-1.102 0-.609-.469-1.103-1.048-1.103zm-27.139-17.334h6.621v.618h-6.621v-.618zm11.203-5.833l.552.578c.102.108.236.161.37.161l.074-.007.073.007c.133 0 .268-.053.37-.161l.552-.578c1.148.217 2.192.804 3 1.687l.152.171h-8.294l.152-.171c.807-.883 1.852-1.471 3-1.687zm6.571 5.833h6.621v.618h-6.621v-.618zm-17.25 4.439h5.445c.037.267.253.473.516.473.173 0 .325-.089.421-.226.05-.071.083-.155.095-.247h4.679c.036.267.252.473.517.473.264 0 .48-.206.516-.473h4.679c.012.092.045.176.095.248.096.136.248.225.421.225.264 0 .48-.206.516-.473h5.446v1.346h-23.347v-1.346zm17.25-2.718h6.621v.512h-6.621v-.512zm-9.057 0h6.961v.512h-6.961v-.512zm-8.178 15.613v-6.243h1.522v6.794h-1.522v-.551zm4.673 0v-7.246c.036-.68.569-1.212 1.219-1.212.65 0 1.183.532 1.219 1.212v7.798h-2.438v-.551zm5.711 0v-7.246c.036-.68.569-1.212 1.219-1.212.65 0 1.183.532 1.219 1.212v7.798h-2.438v-.551zm5.712 0v-7.246c.036-.68.57-1.212 1.219-1.212.65 0 1.183.532 1.219 1.212v7.798h-2.438v-.551zm5.699 0v-6.243h1.523v6.794h-1.523v-.551zm1.537-7.345h-2.061c-.29 0-.525.246-.525.551v5.056h-1.164v-5.523l-.001-.025c-.056-1.277-1.052-2.276-2.267-2.276-1.214 0-2.21.999-2.266 2.276l-.001.025v5.523h-1.177v-5.523l-.001-.025c-.056-1.277-1.052-2.276-2.266-2.276-1.215 0-2.21.999-2.267 2.276l-.001.025v5.523h-1.177v-5.523l-.001-.025c-.056-1.277-1.052-2.276-2.266-2.276-1.215 0-2.21.999-2.266 2.276l-.001.025v5.523h-1.055v-5.056c0-.305-.235-.551-.524-.551h-2.061v-3.101h23.347v3.101zm-8.193-10.541v1.169h-6.961v-3.49h6.961v2.321zm-15.678 2.273h6.621v.512h-6.621v-.512zm3.109 14.979h1.055v.634h-1.055v-.634zm5.589 0h1.177v.634h-1.177v-.634zm5.712 0h1.177v.634h-1.177v-.634zm5.712 0h1.165v.634h-1.165v-.634zm-10.422-16.439h4.996c.289 0 .524-.247.524-.551v-1.773c0-.304-.234-.551-.524-.551h-4.996c-.289 0-.524.246-.524.551v1.773c0 .304.234.551.524.551zm.524-1.772h3.948v.669h-3.948v-.669zm-11.659-7.483c.233.217.53.335.839.335h3.367l-.004.064c0 .334.137.653.376.875.203.188.464.292.733.292h3.593c.612 0 1.109-.524 1.109-1.167 0-.644-.497-1.167-1.109-1.167h-.065l.021-.234c0-.738-.57-1.338-1.27-1.338h-6.75c-.308 0-.606.119-.84.335-.273.255-.43.62-.43 1.003 0 .383.157.749.431 1.002zm.693-1.177l.146-.059h6.75c.123 0 .222.105.222.235 0 .129-.099.234-.222.234-.29 0-.525.246-.525.551h-.002c0 .304.235.551.525.551h1.317l.061.064-.061.064h-3.593l-.039-.016-.022-.048.022-.048.039-.016h.002c.29 0 .524-.247.524-.551 0-.305-.234-.551-.524-.551h-4.474l-.146-.059c-.028-.027-.076-.084-.076-.175 0-.092.048-.149.076-.175zm16.646 2.099h2.926c.289 0 .524-.246.524-.551 0-.305-.235-.551-.524-.551h-2.926c-.289 0-.524.246-.524.551 0 .304.234.551.524.551zm1.16-1.489h4.944c.289 0 .524-.247.524-.551 0-.305-.234-.552-.524-.552h-4.944c-.289 0-.524.247-.524.552 0 .304.234.551.524.551z" fill="#3A434E"/></g></g></svg>