<svg width="32" height="232" viewBox="0 0 32 232" xmlns="http://www.w3.org/2000/svg"><desc>Created with Sketch.</desc><g fill="none"><path d="M26.373 149.968v-4.866c0-.257-.098-.497-.262-.68-.02-.774-.045-1.588-.08-2.42v-.187l-.01-.115c-.02-.616-.045-1.24-.073-1.862-.137-3.102-.306-5.577-.5-7.356-.222-2.01-.45-3.08-.82-3.566v-1.8l.1-.212.29-.183c.188-.114.302-.323.302-.55 0-.224-.115-.433-.3-.55l-.293-.185-.165-.347c-.106-.224-.33-.365-.57-.365-.243 0-.465.143-.57.366l-.166.346-.29.184c-.188.117-.302.326-.302.552 0 .224.116.433.303.55l.29.184.102.213v1.744c-.397.458-.63 1.53-.857 3.62-.1.926-.192 2.04-.276 3.332-.145-2.74-.313-4.985-.503-6.69-.267-2.403-.544-3.66-.985-4.195v-1.847l.205-.434.484-.305c.187-.12.3-.328.3-.553 0-.223-.113-.432-.3-.55l-.484-.304-.27-.57c-.104-.223-.326-.365-.57-.365-.24 0-.463.143-.57.367l-.27.567-.482.303c-.187.118-.3.327-.3.55 0 .228.113.436.3.555l.483.304.207.432v1.79c-.47.498-.757 1.757-1.03 4.255-.224 2.05-.415 4.88-.57 8.416l-.306-.144c-.1-2.02-.22-3.664-.354-4.89-.17-1.535-.347-2.502-.72-2.937.15-.135.245-.323.267-.535.024-.24-.046-.476-.193-.653-.2-.2-.424-.293-.65-.293-.19 0-.37.065-.52.188-.165.124-.27.308-.303.523-.034.24.036.49.19.68l.066.068c-.388.427-.566 1.4-.735 2.964-.134 1.23-.25 2.88-.347 4.914l-.283.134c-.155-3.542-.347-6.38-.57-8.432-.27-2.47-.553-3.73-1.014-4.24v-1.806l.207-.434.483-.304c.187-.118.3-.328.3-.553 0-.224-.113-.433-.3-.55l-.484-.304-.27-.568c-.106-.225-.328-.367-.57-.367-.243 0-.465.143-.57.367l-.27.567-.484.303c-.187.12-.3.328-.3.553 0 .227.113.436.3.554l.483.305.205.434v1.826c-.45.524-.73 1.78-1.002 4.215-.19 1.705-.358 3.95-.503 6.69-.085-1.29-.178-2.406-.277-3.33-.223-2.067-.456-3.14-.843-3.607v-1.388l.1-.214.293-.183c.187-.118.3-.327.3-.552 0-.226-.113-.434-.3-.553l-.29-.183-.165-.348c-.107-.224-.328-.366-.57-.366-.243 0-.465.143-.57.366l-.167.346-.29.183c-.185.12-.3.328-.3.554 0 .224.115.433.3.55l.294.184.1.213v1.41c-.377.477-.61 1.548-.833 3.583-.195 1.78-.364 4.253-.502 7.355l-.076 1.86-.01.116v.19c-.03.83-.056 1.645-.08 2.42-.164.18-.26.42-.26.68v4.864H3.474c-.54 0-.975.446-.975.998 0 .55.435.998.974.998h24.89c.54 0 .977-.447.977-.998 0-.552-.434-.998-.973-.998h-1.993zm-12.178-11.083l1.295-.608.452-.213.39.184 1.297.612.18.085-.056 1.428-.07-.03-.176-.068-1.115-.526-.043-.025c-.26-.123-.558-.123-.816 0l-.106.05-.706.332c-.195.044-.39.1-.577.17l-.062.024-.05-1.343.162-.075zm10.227 10.972H23.02l-.007-.045c.012-.91.04-2.63.092-4.694l1.316.622v4.116zm-2.6.56h-2.505l-.005-.1-.023-.35-.01-.11c-.07-.963-.196-2.397-.415-3.87l-.036-.24c-.183-1.165-.393-2.145-.635-2.948-.1-.338-.207-.64-.32-.91.378.24.735.552 1.07.94.14.16.275.33.407.513.514.718.975 1.622 1.38 2.712.264.715.474 1.432.64 2.095.166.67.286 1.28.37 1.774l.008.042.06.35.013.1zm-4.298 0H13.79l.006-.1.02-.35c.048-.735.127-1.76.256-2.858.046-.385.096-.775.155-1.165l.013-.088c.293-1.93.647-3.106.965-3.78l.162-.31c.204-.343.383-.48.506-.486h.03c.137.016.337.18.565.596l.072.136c.335.672.72 1.88 1.04 3.927l.02.13c.054.36.103.722.147 1.075.134 1.08.22 2.09.272 2.817l.02.35.006.1h-.524zm-7.42 0h-.1l.015-.1.05-.35.023-.17c.084-.528.206-1.18.378-1.886.144-.584.32-1.21.543-1.84.366-1.035.787-1.91 1.26-2.61.196-.29.4-.554.615-.79.327-.353.675-.64 1.044-.86-.128.307-.25.655-.36 1.04-.232.796-.43 1.76-.602 2.906l-.002.02c-.227 1.547-.352 3.074-.416 4.084l-.007.11-.02.35-.006.1h-2.416zm-1.278-.722l-.024.162H7.42v-4.115l1.316-.62c.05 1.977.078 3.638.09 4.573zm15.938-5.99l-1.596-.756.048-1.45 1.548.73v1.47zm-16.09-.75l-1.597.75v-1.473l1.547-.728.05 1.45zm12.488-2.426l.05 1.493-2.21-1.044.053-1.448 2.107.995zm-8.325.464l-2.21 1.04.05-1.5 2.108-.99.05 1.45zM23.97 131c.22 1.348.51 4.08.74 9.624l.002.152-1.444-.684c.215-5.187.483-7.788.7-9.092zm-3.897-4.327c.286 1.31.696 4.462 1.015 12.02l.015.377-1.995-.94c.3-7.15.69-10.176.967-11.455zm-4.025 2.27l-.068.125-.074.02-.064-.022.192-.205.01.08zm-.196-.132l.076-.03.093.054.008.01-.214.186-.034-.097.073-.123zm.05 3.47c.115.948.24 2.37.355 4.5l-.053-.023c-.168-.08-.362-.08-.53 0l-.12.055c.112-2.15.235-3.58.347-4.533zm-5.154 6.414c.32-7.56.73-10.71 1.015-12.02.277 1.28.666 4.307.966 11.468l-1.995.938.016-.385zm-3.617 1.93c.23-5.543.515-8.277.74-9.624.215 1.305.485 3.908.7 9.098l-1.444.68.007-.154z" fill="#206FAC"/><path d="M26.373 109.968v-4.866c0-.257-.098-.497-.262-.68-.02-.774-.045-1.588-.08-2.42v-.187l-.01-.115c-.02-.616-.045-1.24-.073-1.862-.137-3.102-.306-5.577-.5-7.356-.222-2.01-.45-3.08-.82-3.566v-1.8l.1-.212.29-.183c.188-.114.302-.323.302-.55 0-.224-.115-.433-.3-.55l-.293-.185-.165-.347c-.106-.224-.33-.365-.57-.365-.243 0-.465.143-.57.366l-.166.346-.29.184c-.188.117-.302.326-.302.552 0 .224.116.433.303.55l.29.184.102.213v1.744c-.397.458-.63 1.53-.857 3.62-.1.926-.192 2.04-.276 3.332-.145-2.74-.313-4.985-.503-6.69-.267-2.403-.544-3.66-.985-4.195v-1.847l.205-.434.484-.305c.187-.12.3-.328.3-.553 0-.223-.113-.432-.3-.55l-.484-.304-.27-.57c-.104-.223-.326-.365-.57-.365-.24 0-.463.143-.57.367l-.27.567-.482.303c-.187.118-.3.327-.3.55 0 .228.113.436.3.555l.483.304.207.432v1.79c-.47.498-.757 1.757-1.03 4.255-.224 2.05-.415 4.88-.57 8.416l-.306-.144c-.1-2.02-.22-3.664-.354-4.89-.17-1.535-.347-2.502-.72-2.937.15-.135.245-.323.267-.535.024-.24-.046-.476-.193-.653-.2-.2-.424-.293-.65-.293-.19 0-.37.065-.52.188-.165.124-.27.308-.303.523-.034.24.036.49.19.68l.066.068c-.388.427-.566 1.4-.735 2.964-.134 1.23-.25 2.88-.347 4.914l-.283.134c-.155-3.542-.347-6.38-.57-8.432-.27-2.47-.553-3.73-1.014-4.24v-1.806l.207-.434.483-.304c.187-.118.3-.328.3-.553 0-.224-.113-.433-.3-.55l-.484-.304-.27-.568c-.106-.225-.328-.367-.57-.367-.243 0-.465.143-.57.367l-.27.567-.484.303c-.187.12-.3.328-.3.553 0 .227.113.436.3.554l.483.305.205.434v1.826c-.45.524-.73 1.78-1.002 4.215-.19 1.705-.358 3.95-.503 6.69-.085-1.29-.178-2.406-.277-3.33-.223-2.067-.456-3.14-.843-3.607V87.49l.1-.213.293-.184c.187-.118.3-.327.3-.552 0-.223-.113-.43-.3-.55l-.29-.183-.165-.347c-.107-.225-.328-.367-.57-.367-.243 0-.465.142-.57.365l-.167.346-.29.184c-.185.118-.3.327-.3.553 0 .227.115.436.3.554l.294.183.1.213v1.41c-.377.475-.61 1.546-.833 3.58-.195 1.78-.364 4.255-.502 7.357l-.076 1.86-.01.116v.19c-.03.83-.056 1.644-.08 2.418-.164.18-.26.424-.26.68v4.867H3.474c-.54 0-.975.446-.975.998 0 .55.435.998.974.998h24.89c.54 0 .977-.446.977-.997 0-.552-.434-.998-.973-.998h-1.993zM14.195 98.885l1.295-.608.452-.213.39.184 1.297.612.18.085-.056 1.428-.07-.03-.176-.068-1.115-.526-.043-.025c-.26-.123-.558-.123-.816 0l-.106.05-.706.332c-.195.044-.39.1-.577.17l-.062.024-.05-1.343.162-.075zm10.227 10.972H23.02l-.007-.045c.012-.91.04-2.63.092-4.694l1.316.622v4.116zm-2.6.56h-2.505l-.005-.1-.023-.35-.01-.11c-.07-.963-.196-2.397-.415-3.87l-.036-.24c-.183-1.165-.393-2.145-.635-2.948-.1-.338-.207-.64-.32-.91.378.24.735.552 1.07.94.14.16.275.33.407.513.514.718.975 1.622 1.38 2.712.264.715.474 1.432.64 2.095.166.67.286 1.28.37 1.774l.008.042.06.35.013.1zm-4.298 0H13.79l.006-.1.02-.35c.048-.735.127-1.76.256-2.858.046-.385.096-.775.155-1.165l.013-.088c.293-1.93.647-3.106.965-3.78l.162-.31c.204-.343.383-.48.506-.486h.03c.137.016.337.18.565.596l.072.136c.335.672.72 1.88 1.04 3.927l.02.13c.054.36.103.722.147 1.075.134 1.08.22 2.09.272 2.817l.02.35.006.1h-.524zm-7.42 0h-.1l.015-.1.05-.35.023-.17c.084-.528.206-1.18.378-1.886.144-.584.32-1.21.543-1.84.366-1.035.787-1.91 1.26-2.61.196-.29.4-.554.615-.79.327-.353.675-.64 1.044-.86-.128.307-.25.655-.36 1.04-.232.796-.43 1.76-.602 2.906l-.002.02c-.227 1.547-.352 3.074-.416 4.084l-.007.11-.02.35-.006.1h-2.416zm-1.278-.722l-.024.162H7.42v-4.115l1.316-.62c.05 1.977.078 3.638.09 4.573zm15.938-5.99l-1.596-.756.048-1.45 1.548.73v1.47zm-16.09-.75l-1.597.75v-1.473l1.547-.728.05 1.45zm12.488-2.426l.05 1.493-2.21-1.044.053-1.448 2.107.995zm-8.325.464l-2.21 1.04.05-1.5 2.108-.99.05 1.45zM23.97 91c.22 1.348.51 4.08.74 9.624l.002.152-1.444-.684c.215-5.187.483-7.788.7-9.092zm-3.897-4.327c.286 1.31.696 4.462 1.015 12.02l.015.377-1.995-.94c.3-7.15.69-10.176.967-11.455zm-4.025 2.27l-.068.125-.074.02-.064-.022.192-.205.01.08zm-.196-.132l.076-.03.093.054.008.01-.214.186-.034-.097.073-.123zm.05 3.47c.115.948.24 2.37.355 4.5l-.053-.023c-.168-.08-.362-.08-.53 0l-.12.055c.112-2.15.235-3.58.347-4.533zm-5.154 6.414c.32-7.56.73-10.71 1.015-12.02.277 1.28.666 4.307.966 11.468l-1.995.938.016-.385zm-3.617 1.93c.23-5.543.515-8.277.74-9.624.215 1.305.485 3.908.7 9.098l-1.444.68.007-.154z" fill="#fff"/><path d="M26.373 69.968v-4.866c0-.257-.098-.497-.262-.68-.02-.774-.045-1.588-.08-2.42v-.187l-.01-.115c-.02-.616-.045-1.24-.073-1.862-.137-3.102-.306-5.577-.5-7.356-.222-2.01-.45-3.08-.82-3.566v-1.8l.1-.212.29-.183c.188-.114.302-.323.302-.55 0-.224-.115-.433-.3-.55l-.293-.185-.165-.347c-.106-.224-.33-.365-.57-.365-.243 0-.465.143-.57.366l-.166.346-.29.184c-.188.117-.302.326-.302.552 0 .224.116.433.303.55l.29.184.102.213v1.744c-.397.458-.63 1.53-.857 3.62-.1.926-.192 2.04-.276 3.332-.145-2.74-.313-4.985-.503-6.69-.267-2.403-.544-3.66-.985-4.195v-1.847l.205-.434.484-.305c.187-.12.3-.328.3-.553 0-.223-.113-.432-.3-.55l-.484-.304-.27-.57c-.104-.223-.326-.365-.57-.365-.24 0-.463.143-.57.367l-.27.567-.482.303c-.187.118-.3.327-.3.55 0 .228.113.436.3.555l.483.304.207.432v1.79c-.47.498-.757 1.757-1.03 4.255-.224 2.05-.415 4.88-.57 8.416l-.306-.144c-.1-2.02-.22-3.664-.354-4.89-.17-1.535-.347-2.502-.72-2.937.15-.135.245-.323.267-.535.024-.24-.046-.476-.193-.653-.2-.2-.424-.293-.65-.293-.19 0-.37.065-.52.188-.165.124-.27.308-.303.523-.034.24.036.49.19.68l.066.068c-.388.427-.566 1.4-.735 2.964-.134 1.23-.25 2.88-.347 4.914l-.283.134c-.155-3.542-.347-6.38-.57-8.432-.27-2.47-.553-3.73-1.014-4.24v-1.806l.207-.434.483-.304c.187-.118.3-.328.3-.553 0-.224-.113-.433-.3-.55l-.484-.304-.27-.568c-.106-.225-.328-.367-.57-.367-.243 0-.465.143-.57.367l-.27.567-.484.303c-.187.12-.3.328-.3.553 0 .227.113.436.3.554l.483.305.205.434v1.826c-.45.524-.73 1.78-1.002 4.215-.19 1.705-.358 3.95-.503 6.69-.085-1.29-.178-2.406-.277-3.33-.223-2.067-.456-3.14-.843-3.607V47.49l.1-.213.293-.184c.187-.118.3-.327.3-.552 0-.223-.113-.43-.3-.55l-.29-.183-.165-.347c-.107-.225-.328-.367-.57-.367-.243 0-.465.142-.57.365l-.167.346-.29.184c-.185.118-.3.327-.3.553 0 .227.115.436.3.554l.294.183.1.213v1.41c-.377.475-.61 1.546-.833 3.58-.195 1.78-.364 4.255-.502 7.357l-.076 1.86-.01.116v.19c-.03.83-.056 1.644-.08 2.418-.164.18-.26.424-.26.68v4.867H3.474c-.54 0-.975.446-.975.998 0 .55.435.998.974.998h24.89c.54 0 .977-.446.977-.997 0-.552-.434-.998-.973-.998h-1.993zM14.195 58.885l1.295-.608.452-.213.39.184 1.297.612.18.085-.056 1.428-.07-.03-.176-.068-1.115-.526-.043-.025c-.26-.123-.558-.123-.816 0l-.106.05-.706.332c-.195.044-.39.1-.577.17l-.062.024-.05-1.343.162-.075zm10.227 10.972H23.02l-.007-.045c.012-.91.04-2.63.092-4.694l1.316.622v4.116zm-2.6.56h-2.505l-.005-.1-.023-.35-.01-.11c-.07-.963-.196-2.397-.415-3.87l-.036-.24c-.183-1.165-.393-2.145-.635-2.948-.1-.338-.207-.64-.32-.91.378.24.735.552 1.07.94.14.16.275.33.407.513.514.718.975 1.622 1.38 2.712.264.715.474 1.432.64 2.095.166.67.286 1.28.37 1.774l.008.042.06.35.013.1zm-4.298 0H13.79l.006-.1.02-.35c.048-.735.127-1.76.256-2.858.046-.385.096-.775.155-1.165l.013-.088c.293-1.93.647-3.106.965-3.78l.162-.31c.204-.343.383-.48.506-.486h.03c.137.016.337.18.565.596l.072.136c.335.672.72 1.88 1.04 3.927l.02.13c.054.36.103.722.147 1.075.134 1.08.22 2.09.272 2.817l.02.35.006.1h-.524zm-7.42 0h-.1l.015-.1.05-.35.023-.17c.084-.528.206-1.18.378-1.886.144-.584.32-1.21.543-1.84.366-1.035.787-1.91 1.26-2.61.196-.29.4-.554.615-.79.327-.353.675-.64 1.044-.86-.128.307-.25.655-.36 1.04-.232.796-.43 1.76-.602 2.906l-.002.02c-.227 1.547-.352 3.074-.416 4.084l-.007.11-.02.35-.006.1h-2.416zm-1.278-.722l-.024.162H7.42v-4.115l1.316-.62c.05 1.977.078 3.638.09 4.573zm15.938-5.99l-1.596-.756.048-1.45 1.548.73v1.47zm-16.09-.75l-1.597.75v-1.473l1.547-.728.05 1.45zm12.488-2.426l.05 1.493-2.21-1.044.053-1.448 2.107.995zm-8.325.464l-2.21 1.04.05-1.5 2.108-.99.05 1.45zM23.97 51c.22 1.348.51 4.08.74 9.624l.002.152-1.444-.684c.215-5.187.483-7.788.7-9.092zm-3.897-4.327c.286 1.31.696 4.462 1.015 12.02l.015.377-1.995-.94c.3-7.15.69-10.176.967-11.455zm-4.025 2.27l-.068.125-.074.02-.064-.022.192-.205.01.08zm-.196-.132l.076-.03.093.054.008.01-.214.186-.034-.097.073-.123zm.05 3.47c.115.948.24 2.37.355 4.5l-.053-.023c-.168-.08-.362-.08-.53 0l-.12.055c.112-2.15.235-3.58.347-4.533zm-5.154 6.414c.32-7.56.73-10.71 1.015-12.02.277 1.28.666 4.307.966 11.468l-1.995.938.016-.385zm-3.617 1.93c.23-5.543.515-8.277.74-9.624.215 1.305.485 3.908.7 9.098l-1.444.68.007-.154z" fill="#67737B"/><path d="M26.373 29.968v-4.866c0-.257-.098-.497-.262-.68-.02-.774-.045-1.588-.08-2.42v-.187l-.01-.115c-.02-.616-.045-1.24-.073-1.862-.137-3.102-.306-5.577-.5-7.356-.222-2.01-.45-3.08-.82-3.566v-1.8l.1-.212.29-.183c.188-.114.302-.323.302-.55 0-.224-.115-.433-.3-.55l-.293-.185-.165-.347c-.106-.224-.33-.365-.57-.365-.243 0-.465.143-.57.366l-.166.346-.29.184c-.188.117-.302.326-.302.552 0 .224.116.433.303.55l.29.184.102.213v1.744c-.397.458-.63 1.53-.857 3.62-.1.926-.192 2.04-.276 3.332-.145-2.74-.313-4.985-.503-6.69-.267-2.403-.544-3.66-.985-4.195V3.08l.205-.433.484-.304c.187-.12.3-.328.3-.553 0-.222-.113-.43-.3-.55l-.49-.304-.27-.568C20.566.143 20.344 0 20.1 0c-.242 0-.464.143-.57.367l-.27.568-.483.304c-.187.114-.3.323-.3.55 0 .224.113.432.3.55l.483.305.206.434v1.79c-.47.5-.757 1.757-1.03 4.255-.224 2.05-.415 4.88-.57 8.416l-.306-.143c-.1-2.02-.22-3.663-.355-4.888-.17-1.537-.347-2.504-.72-2.94.15-.134.245-.322.267-.534.023-.238-.047-.476-.194-.653-.198-.2-.423-.293-.65-.293-.19 0-.37.067-.52.19-.164.123-.27.307-.302.52-.034.24.036.49.19.68l.066.07c-.388.425-.566 1.4-.735 2.96-.134 1.23-.25 2.88-.347 4.916l-.284.134c-.155-3.544-.347-6.38-.57-8.434-.27-2.47-.553-3.73-1.014-4.24V3.084l.206-.434.484-.304c.187-.118.3-.328.3-.553 0-.225-.113-.434-.3-.552l-.484-.3-.27-.567c-.105-.225-.327-.367-.57-.367-.242 0-.464.142-.57.366l-.27.567-.483.303c-.187.12-.3.33-.3.554 0 .226.113.435.3.553l.483.304.206.435v1.827c-.45.524-.73 1.78-1.002 4.215-.19 1.704-.358 3.95-.503 6.69-.087-1.292-.18-2.407-.28-3.332-.222-2.066-.455-3.14-.842-3.606V7.49l.1-.213.292-.184c.187-.118.3-.327.3-.552 0-.223-.113-.43-.3-.55l-.29-.183-.165-.347c-.107-.225-.328-.367-.57-.367-.243 0-.465.142-.57.365l-.167.346-.29.184c-.186.118-.3.327-.3.553 0 .227.114.436.3.554l.293.183.1.213V8.9c-.376.476-.61 1.547-.832 3.582-.196 1.78-.365 4.254-.503 7.356l-.076 1.86-.01.116v.19c-.03.83-.055 1.644-.08 2.418-.163.18-.26.422-.26.68v4.865H3.475c-.54 0-.975.446-.975.998 0 .55.436.998.975.998h24.89c.54 0 .977-.447.977-.998 0-.552-.435-.998-.974-.998h-1.993zM14.195 18.885l1.295-.608.452-.213.39.184 1.297.612.18.085-.056 1.428-.07-.03-.176-.068-1.115-.526-.043-.025c-.26-.123-.558-.123-.816 0l-.106.05-.706.332c-.195.044-.39.1-.577.17l-.062.024-.05-1.343.162-.075zm10.227 10.972H23.02l-.007-.045c.012-.91.04-2.63.092-4.694l1.316.622v4.116zm-2.6.56h-2.505l-.005-.1-.023-.35-.01-.11c-.07-.963-.196-2.397-.415-3.87l-.036-.24c-.183-1.165-.393-2.145-.635-2.948-.1-.338-.207-.64-.32-.91.378.24.735.552 1.07.94.14.16.275.33.407.513.514.718.975 1.622 1.38 2.712.264.715.474 1.432.64 2.095.166.67.286 1.28.37 1.774l.008.042.06.35.013.1zm-4.298 0H13.79l.006-.1.02-.35c.048-.735.127-1.76.256-2.858.046-.385.096-.775.155-1.165l.013-.088c.293-1.93.647-3.106.965-3.78l.162-.31c.204-.343.383-.48.506-.486h.03c.137.016.337.18.565.596l.072.136c.335.672.72 1.88 1.04 3.927l.02.13c.054.36.103.722.147 1.075.134 1.08.22 2.09.272 2.817l.02.35.006.1h-.524zm-7.42 0h-.1l.015-.1.05-.35.023-.17c.084-.528.206-1.18.378-1.886.144-.584.32-1.21.543-1.84.366-1.035.787-1.91 1.26-2.61.196-.29.4-.554.615-.79.327-.353.675-.64 1.044-.86-.128.307-.25.655-.36 1.04-.232.796-.43 1.76-.602 2.906l-.002.02c-.227 1.547-.352 3.074-.416 4.084l-.007.11-.02.35-.006.1h-2.416zm-1.278-.722l-.024.162H7.42v-4.115l1.316-.62c.05 1.977.078 3.638.09 4.573zm15.938-5.99l-1.596-.756.048-1.45 1.548.73v1.47zm-16.09-.75l-1.597.75v-1.473l1.547-.728.05 1.45zm12.488-2.426l.05 1.493-2.21-1.044.053-1.448 2.107.995zm-8.325.464l-2.21 1.04.05-1.5 2.108-.99.05 1.45zM23.97 11c.22 1.348.51 4.08.74 9.624l.002.152-1.444-.684c.215-5.187.483-7.788.7-9.092zm-3.897-4.327c.286 1.31.696 4.462 1.015 12.02l.015.377-1.995-.94c.3-7.15.69-10.176.967-11.455zm-4.025 2.27l-.068.125-.074.02-.064-.022.192-.205.01.08zm-.196-.132l.076-.03.093.054.008.01-.214.186-.034-.097.073-.123zm.05 3.47c.115.948.24 2.37.355 4.5l-.053-.023c-.168-.08-.362-.08-.53 0l-.12.055c.112-2.15.235-3.58.347-4.533zm-5.154 6.414c.32-7.56.73-10.71 1.015-12.02.277 1.28.666 4.307.966 11.468l-1.995.938.016-.385zm-3.617 1.93c.23-5.543.515-8.277.74-9.624.215 1.305.485 3.908.7 9.098l-1.444.68.007-.154z" fill="#373D43"/></g></svg>