<svg width="32" height="232" viewBox="0 0 32 232" xmlns="http://www.w3.org/2000/svg"><title>madrid</title><desc>Created with Sketch.</desc><g fill="none"><path d="M30.95 149.186h-1.173v-14.008l.578-1.996c.048-.168.02-.35-.08-.49s-.255-.223-.42-.223h-.602v-1.17l-.002-.027.607-.636c.205-.216.206-.564 0-.78-.19-.202-.493-.213-.698-.037v-.282c0-.304-.236-.55-.526-.55-.29 0-.524.245-.524.55v.282c-.206-.176-.508-.165-.7.036-.204.216-.204.565 0 .78l.108.113h-2.13l.108-.113c.204-.216.205-.564 0-.78-.19-.202-.493-.213-.7-.037v-.282c0-.304-.233-.55-.523-.55-.29 0-.524.245-.524.55v.282c-.207-.176-.51-.165-.7.036-.206.216-.205.565 0 .78l.107.113h-1.573v-1.957l.066-.096c.093-.174.09-.387-.01-.557-.876-1.5-2.217-2.563-3.765-3.04.2-.215.198-.558-.005-.77-.204-.217-.536-.217-.74-.002l-.5.524-.1-.008v-1.363c0-.304-.234-.55-.523-.55-.29 0-.524.246-.524.55v1.364l-.098.008-.5-.524c-.205-.214-.537-.214-.74 0-.203.214-.204.558-.006.773-1.55.477-2.89 1.54-3.765 3.04-.1.17-.104.383-.01.557l.065.096v1.956H8.857l.107-.113c.205-.216.205-.564 0-.78-.19-.202-.493-.213-.7-.037v-.282c0-.304-.233-.55-.523-.55-.288 0-.523.245-.523.55v.282c-.206-.176-.508-.165-.7.036-.204.216-.204.565 0 .78l.108.113h-2.13l.108-.113c.205-.216.205-.564 0-.78-.19-.202-.493-.213-.7-.037v-.282c0-.304-.233-.55-.523-.55-.29 0-.525.245-.525.55v.282c-.205-.176-.508-.165-.7.036-.204.216-.203.565.002.78l.606.637-.003.027v1.17h-.6c-.166 0-.322.082-.42.223-.1.14-.13.32-.08.49l.577 1.994v14.01H1.063c-.58 0-1.05.493-1.05 1.102s.47 1.1 1.05 1.1h29.883c.58 0 1.048-.492 1.048-1.1 0-.61-.47-1.104-1.048-1.104zM3.81 131.852h6.622v.618h-6.62v-.618zm11.204-5.833l.552.577c.102.108.236.16.37.16l.074-.006.073.008c.133 0 .268-.053.37-.16l.552-.58c1.148.218 2.192.805 3 1.688l.152.17h-8.294l.152-.17c.807-.883 1.852-1.47 3-1.687zm6.57 5.832h6.622v.618h-6.62v-.618zm-17.25 4.44H9.78c.037.266.253.472.516.472.173 0 .325-.09.42-.226.05-.07.084-.155.096-.247h4.68c.035.268.25.474.516.474.264 0 .48-.206.516-.473h4.68c.01.093.044.177.094.25.096.135.248.224.42.224.265 0 .48-.206.517-.473h5.446v1.347H4.335v-1.346zm17.25-2.72h6.622v.513h-6.62v-.512zm-9.056 0h6.96v.513h-6.96v-.512zM4.35 149.187v-6.243h1.522v6.794H4.35v-.55zm4.673 0v-7.246c.036-.68.57-1.212 1.22-1.212s1.182.532 1.218 1.212v7.798H9.024v-.55zm5.71 0v-7.246c.037-.68.57-1.212 1.22-1.212s1.183.532 1.22 1.212v7.798h-2.44v-.55zm5.713 0v-7.246c.036-.68.57-1.212 1.22-1.212s1.182.532 1.218 1.212v7.798h-2.438v-.55zm5.7 0v-6.243h1.522v6.794h-1.523v-.55zm1.536-7.345h-2.06c-.29 0-.526.247-.526.552v5.056h-1.164V141.9c-.057-1.277-1.053-2.276-2.268-2.276-1.214 0-2.21 1-2.266 2.276v5.548H18.22V141.9c-.057-1.277-1.053-2.276-2.267-2.276-1.215 0-2.21 1-2.267 2.276v5.548h-1.178V141.9c-.057-1.277-1.053-2.276-2.267-2.276s-2.21 1-2.265 2.276v5.548H6.918v-5.056c0-.305-.236-.55-.525-.55h-2.06v-3.102H27.68v3.1zM19.49 131.3v1.17h-6.962v-3.49h6.96v2.32zm-15.68 2.273h6.622v.512h-6.62v-.512zm3.11 14.98h1.055v.633H6.92v-.634zm5.59 0h1.176v.633H12.51v-.634zm5.71 0H19.4v.633H18.22v-.634zm5.713 0h1.165v.633h-1.165v-.634zm-10.422-16.44h4.997c.29 0 .524-.247.524-.55v-1.774c0-.305-.233-.552-.523-.552H13.51c-.288 0-.523.246-.523.55v1.774c0 .304.234.55.524.55zm.525-1.772h3.948v.67h-3.948v-.67zm-11.66-7.482c.234.217.53.335.84.335h3.367l-.004.064c0 .334.137.653.376.875.203.188.464.292.733.292h3.593c.612 0 1.11-.524 1.11-1.167 0-.644-.498-1.167-1.11-1.167h-.065l.02-.234c0-.738-.57-1.338-1.27-1.338h-6.75c-.307 0-.605.12-.84.335-.272.255-.43.62-.43 1.003 0 .383.158.75.432 1.002zm.694-1.177l.145-.058h6.75c.123 0 .222.105.222.235s-.1.234-.222.234c-.29 0-.525.247-.525.552h-.002c0 .304.235.55.525.55h1.317l.06.065-.06.064H7.687l-.04-.015-.02-.048.02-.048.04-.017h.002c.29 0 .523-.247.523-.55 0-.306-.234-.552-.524-.552H3.214l-.146-.058c-.03-.027-.077-.084-.077-.175 0-.092.048-.15.076-.175zm16.645 2.1h2.926c.29 0 .525-.246.525-.55 0-.306-.235-.552-.524-.552h-2.925c-.29 0-.524.246-.524.55 0 .305.235.552.525.552zm1.16-1.49h4.944c.288 0 .523-.246.523-.55 0-.305-.234-.552-.524-.552h-4.945c-.29 0-.524.247-.524.552 0 .304.235.55.525.55z" fill="#206FAC"/><path d="M30.95 109.186h-1.173V95.178l.578-1.996c.048-.168.02-.35-.08-.49s-.255-.223-.42-.223h-.602V91.3l-.002-.027.607-.636c.205-.216.206-.564 0-.78-.19-.202-.493-.213-.698-.037v-.282c0-.304-.236-.55-.526-.55-.29 0-.524.245-.524.55v.282c-.206-.176-.508-.165-.7.036-.204.216-.204.565 0 .78l.108.113h-2.13l.108-.113c.204-.216.205-.564 0-.78-.19-.202-.493-.213-.7-.037v-.282c0-.304-.233-.55-.523-.55-.29 0-.524.245-.524.55v.282c-.207-.176-.51-.165-.7.036-.206.216-.205.565 0 .78l.107.113h-1.573v-1.957l.066-.096c.093-.174.09-.387-.01-.557-.876-1.5-2.217-2.563-3.765-3.04.2-.215.198-.558-.005-.77-.204-.217-.536-.217-.74-.002l-.5.524-.1-.008V83.48c0-.304-.234-.55-.523-.55-.29 0-.524.246-.524.55v1.364l-.098.008-.5-.524c-.205-.214-.537-.214-.74 0-.203.214-.204.558-.006.773-1.55.477-2.89 1.54-3.765 3.04-.1.17-.104.383-.01.557l.065.096v1.956H8.857l.107-.113c.205-.216.205-.564 0-.78-.19-.202-.493-.213-.7-.037v-.282c0-.304-.233-.55-.523-.55-.288 0-.523.245-.523.55v.282c-.206-.176-.508-.165-.7.036-.204.216-.204.565 0 .78l.108.113h-2.13l.108-.113c.205-.216.205-.564 0-.78-.19-.202-.493-.213-.7-.037v-.282c0-.304-.233-.55-.523-.55-.29 0-.525.245-.525.55v.282c-.205-.176-.508-.165-.7.036-.204.216-.203.565.002.78l.606.637-.003.027v1.17h-.6c-.166 0-.322.082-.42.223-.1.14-.13.32-.08.49l.577 1.994v14.01H1.063c-.58 0-1.05.493-1.05 1.102s.47 1.1 1.05 1.1h29.883c.58 0 1.048-.492 1.048-1.1 0-.61-.47-1.104-1.048-1.104zM3.81 91.852h6.622v.618h-6.62v-.618zm11.204-5.833l.552.577c.102.108.236.16.37.16l.074-.006.073.008c.133 0 .268-.053.37-.16l.552-.58c1.148.218 2.192.805 3 1.688l.152.17h-8.294l.152-.17c.807-.883 1.852-1.47 3-1.687zm6.57 5.832h6.622v.618h-6.62v-.618zm-17.25 4.44H9.78c.037.266.253.472.516.472.173 0 .325-.09.42-.226.05-.07.084-.155.096-.247h4.68c.035.268.25.474.516.474.264 0 .48-.206.516-.473h4.68c.01.093.044.177.094.25.096.135.248.224.42.224.265 0 .48-.206.517-.473h5.446v1.347H4.335V96.29zm17.25-2.72h6.622v.513h-6.62v-.512zm-9.056 0h6.96v.513h-6.96v-.512zM4.35 109.187v-6.243h1.522v6.794H4.35v-.55zm4.673 0v-7.246c.036-.68.57-1.212 1.22-1.212s1.182.532 1.218 1.212v7.798H9.024v-.55zm5.71 0v-7.246c.037-.68.57-1.212 1.22-1.212s1.183.532 1.22 1.212v7.798h-2.44v-.55zm5.713 0v-7.246c.036-.68.57-1.212 1.22-1.212s1.182.532 1.218 1.212v7.798h-2.438v-.55zm5.7 0v-6.243h1.522v6.794h-1.523v-.55zm1.536-7.345h-2.06c-.29 0-.526.247-.526.552v5.056h-1.164V101.9c-.057-1.277-1.053-2.276-2.268-2.276-1.214 0-2.21 1-2.266 2.276v5.548H18.22V101.9c-.057-1.277-1.053-2.276-2.267-2.276-1.215 0-2.21 1-2.267 2.276v5.548h-1.178V101.9c-.057-1.277-1.053-2.276-2.267-2.276s-2.21 1-2.265 2.276v5.548H6.918v-5.056c0-.305-.236-.55-.525-.55h-2.06V98.74H27.68v3.1zM19.49 91.3v1.17h-6.962v-3.49h6.96v2.32zM3.81 93.573h6.622v.512h-6.62v-.512zm3.11 14.98h1.055v.633H6.92v-.634zm5.59 0h1.176v.633H12.51v-.634zm5.71 0H19.4v.633H18.22v-.634zm5.713 0h1.165v.633h-1.165v-.634zM13.51 92.112h4.997c.29 0 .524-.247.524-.55v-1.774c0-.305-.233-.552-.523-.552H13.51c-.288 0-.523.246-.523.55v1.774c0 .304.234.55.524.55zm.525-1.772h3.948v.67h-3.948v-.67zM2.375 82.86c.234.217.53.335.84.335h3.367l-.004.064c0 .334.137.653.376.875.203.188.464.292.733.292h3.593c.612 0 1.11-.524 1.11-1.167 0-.644-.498-1.167-1.11-1.167h-.065l.02-.234c0-.738-.57-1.338-1.27-1.338h-6.75c-.307 0-.605.12-.84.335-.272.255-.43.62-.43 1.003 0 .383.158.75.432 1.002zm.694-1.177l.145-.058h6.75c.123 0 .222.105.222.235s-.1.234-.222.234c-.29 0-.525.247-.525.552h-.002c0 .304.235.55.525.55h1.317l.06.065-.06.064H7.687l-.04-.015-.02-.048.02-.048.04-.017h.002c.29 0 .523-.247.523-.55 0-.306-.234-.552-.524-.552H3.214l-.146-.058c-.03-.027-.077-.084-.077-.175 0-.092.048-.15.076-.175zm16.645 2.1h2.926c.29 0 .525-.246.525-.55 0-.306-.235-.552-.524-.552h-2.925c-.29 0-.524.246-.524.55 0 .305.235.552.525.552zm1.16-1.49h4.944c.288 0 .523-.246.523-.55 0-.305-.234-.552-.524-.552h-4.945c-.29 0-.524.247-.524.552 0 .304.235.55.525.55z" fill="#fff"/><path d="M30.95 69.186h-1.173V55.178l.578-1.996c.048-.168.02-.35-.08-.49s-.255-.223-.42-.223h-.602V51.3l-.002-.027.607-.636c.205-.216.206-.564 0-.78-.19-.202-.493-.213-.698-.037v-.282c0-.304-.236-.55-.526-.55-.29 0-.524.245-.524.55v.282c-.206-.176-.508-.165-.7.036-.204.216-.204.565 0 .78l.108.113h-2.13l.108-.113c.204-.216.205-.564 0-.78-.19-.202-.493-.213-.7-.037v-.282c0-.304-.233-.55-.523-.55-.29 0-.524.245-.524.55v.282c-.207-.176-.51-.165-.7.036-.206.216-.205.565 0 .78l.107.113h-1.573v-1.957l.066-.096c.093-.174.09-.387-.01-.557-.876-1.5-2.217-2.563-3.765-3.04.2-.215.198-.558-.005-.77-.204-.217-.536-.217-.74-.002l-.5.524-.1-.008V43.48c0-.304-.234-.55-.523-.55-.29 0-.524.246-.524.55v1.364l-.098.008-.5-.524c-.205-.214-.537-.214-.74 0-.203.214-.204.558-.006.773-1.55.477-2.89 1.54-3.765 3.04-.1.17-.104.383-.01.557l.065.096v1.956H8.857l.107-.113c.205-.216.205-.564 0-.78-.19-.202-.493-.213-.7-.037v-.282c0-.304-.233-.55-.523-.55-.288 0-.523.245-.523.55v.282c-.206-.176-.508-.165-.7.036-.204.216-.204.565 0 .78l.108.113h-2.13l.108-.113c.205-.216.205-.564 0-.78-.19-.202-.493-.213-.7-.037v-.282c0-.304-.233-.55-.523-.55-.29 0-.525.245-.525.55v.282c-.205-.176-.508-.165-.7.036-.204.216-.203.565.002.78l.606.637-.003.027v1.17h-.6c-.166 0-.322.082-.42.223-.1.14-.13.32-.08.49l.577 1.994v14.01H1.063c-.58 0-1.05.493-1.05 1.102s.47 1.1 1.05 1.1h29.883c.58 0 1.048-.492 1.048-1.1 0-.61-.47-1.104-1.048-1.104zM3.81 51.852h6.622v.618h-6.62v-.618zm11.204-5.833l.552.577c.102.108.236.16.37.16l.074-.006.073.008c.133 0 .268-.053.37-.16l.552-.58c1.148.218 2.192.805 3 1.688l.152.17h-8.294l.152-.17c.807-.883 1.852-1.47 3-1.687zm6.57 5.832h6.622v.618h-6.62v-.618zm-17.25 4.44H9.78c.037.266.253.472.516.472.173 0 .325-.09.42-.226.05-.07.084-.155.096-.247h4.68c.035.268.25.474.516.474.264 0 .48-.206.516-.473h4.68c.01.093.044.177.094.25.096.135.248.224.42.224.265 0 .48-.206.517-.473h5.446v1.347H4.335V56.29zm17.25-2.72h6.622v.513h-6.62v-.512zm-9.056 0h6.96v.513h-6.96v-.512zM4.35 69.187v-6.243h1.522v6.794H4.35v-.55zm4.673 0V61.94c.036-.68.57-1.212 1.22-1.212s1.182.532 1.218 1.212v7.798H9.024v-.55zm5.71 0V61.94c.037-.68.57-1.212 1.22-1.212s1.183.532 1.22 1.212v7.798h-2.44v-.55zm5.713 0V61.94c.036-.68.57-1.212 1.22-1.212s1.182.532 1.218 1.212v7.798h-2.438v-.55zm5.7 0v-6.243h1.522v6.794h-1.523v-.55zm1.536-7.345h-2.06c-.29 0-.526.247-.526.552v5.056h-1.164V61.9c-.057-1.277-1.053-2.276-2.268-2.276-1.214 0-2.21 1-2.266 2.276v5.548H18.22V61.9c-.057-1.277-1.053-2.276-2.267-2.276-1.215 0-2.21 1-2.267 2.276v5.548h-1.178V61.9c-.057-1.277-1.053-2.276-2.267-2.276s-2.21 1-2.265 2.276v5.548H6.918v-5.056c0-.305-.236-.55-.525-.55h-2.06V58.74H27.68v3.1zM19.49 51.3v1.17h-6.962v-3.49h6.96v2.32zM3.81 53.573h6.622v.512h-6.62v-.512zm3.11 14.98h1.055v.633H6.92v-.634zm5.59 0h1.176v.633H12.51v-.634zm5.71 0H19.4v.633H18.22v-.634zm5.713 0h1.165v.633h-1.165v-.634zM13.51 52.112h4.997c.29 0 .524-.247.524-.55v-1.774c0-.305-.233-.552-.523-.552H13.51c-.288 0-.523.246-.523.55v1.774c0 .304.234.55.524.55zm.525-1.772h3.948v.67h-3.948v-.67zM2.375 42.86c.234.217.53.335.84.335h3.367l-.004.064c0 .334.137.653.376.875.203.188.464.292.733.292h3.593c.612 0 1.11-.524 1.11-1.167 0-.644-.498-1.167-1.11-1.167h-.065l.02-.234c0-.738-.57-1.338-1.27-1.338h-6.75c-.307 0-.605.12-.84.335-.272.255-.43.62-.43 1.003 0 .383.158.75.432 1.002zm.694-1.177l.145-.058h6.75c.123 0 .222.105.222.235s-.1.234-.222.234c-.29 0-.525.247-.525.552h-.002c0 .304.235.55.525.55h1.317l.06.065-.06.064H7.687l-.04-.015-.02-.048.02-.048.04-.017h.002c.29 0 .523-.247.523-.55 0-.306-.234-.552-.524-.552H3.214l-.146-.058c-.03-.027-.077-.084-.077-.175 0-.092.048-.15.076-.175zm16.645 2.1h2.926c.29 0 .525-.246.525-.55 0-.306-.235-.552-.524-.552h-2.925c-.29 0-.524.246-.524.55 0 .305.235.552.525.552zm1.16-1.49h4.944c.288 0 .523-.246.523-.55 0-.305-.234-.552-.524-.552h-4.945c-.29 0-.524.247-.524.552 0 .304.235.55.525.55z" fill="#67737B"/><path d="M30.95 29.186h-1.173V15.178l.578-1.996c.048-.168.02-.35-.08-.49s-.255-.223-.42-.223h-.602V11.3l-.002-.027.607-.636c.205-.216.206-.564 0-.78-.19-.202-.493-.213-.698-.037v-.282c0-.304-.236-.55-.526-.55-.29 0-.524.245-.524.55v.282c-.206-.176-.508-.165-.7.036-.204.216-.204.565 0 .78l.108.113h-2.13l.108-.113c.204-.216.205-.564 0-.78-.19-.202-.493-.213-.7-.037v-.282c0-.304-.233-.55-.523-.55-.29 0-.524.245-.524.55v.282c-.207-.176-.51-.165-.7.036-.206.216-.205.565 0 .78l.107.113h-1.573V8.792l.066-.096c.093-.174.09-.387-.01-.557-.876-1.5-2.217-2.563-3.765-3.04.2-.215.198-.558-.005-.77-.204-.217-.536-.217-.74-.002l-.5.524-.1-.008V3.48c0-.304-.234-.55-.523-.55-.29 0-.524.246-.524.55v1.364l-.098.008-.5-.524c-.205-.214-.537-.214-.74 0-.203.214-.204.558-.006.773-1.55.477-2.89 1.54-3.765 3.04-.1.17-.104.383-.01.557l.065.096v1.956H8.857l.107-.113c.205-.216.205-.564 0-.78-.19-.202-.493-.213-.7-.037v-.282c0-.304-.233-.55-.523-.55-.288 0-.523.245-.523.55v.282c-.206-.176-.508-.165-.7.036-.204.216-.204.565 0 .78l.108.113h-2.13l.108-.113c.205-.216.205-.564 0-.78-.19-.202-.493-.213-.7-.037v-.282c0-.304-.233-.55-.523-.55-.29 0-.525.245-.525.55v.282c-.205-.176-.508-.165-.7.036-.204.216-.203.565.002.78l.606.637-.003.027v1.17h-.6c-.166 0-.322.082-.42.223-.1.14-.13.32-.08.49l.577 1.994v14.01H1.063c-.58 0-1.05.493-1.05 1.102s.47 1.1 1.05 1.1h29.883c.58 0 1.048-.492 1.048-1.1 0-.61-.47-1.104-1.048-1.104zM3.81 11.852h6.622v.618h-6.62v-.618zM15.015 6.02l.552.577c.102.108.236.16.37.16l.074-.006.073.008c.133 0 .268-.053.37-.16l.552-.58c1.148.218 2.192.805 3 1.688l.152.17h-8.294l.152-.17c.807-.883 1.852-1.47 3-1.687zm6.57 5.832h6.622v.618h-6.62v-.618zm-17.25 4.44H9.78c.037.266.253.472.516.472.173 0 .325-.09.42-.226.05-.07.084-.155.096-.247h4.68c.035.268.25.474.516.474.264 0 .48-.206.516-.473h4.68c.01.093.044.177.094.25.096.135.248.224.42.224.265 0 .48-.206.517-.473h5.446v1.347H4.335V16.29zm17.25-2.72h6.622v.513h-6.62v-.512zm-9.056 0h6.96v.513h-6.96v-.512zM4.35 29.187v-6.243h1.522v6.794H4.35v-.55zm4.673 0V21.94c.036-.68.57-1.212 1.22-1.212s1.182.532 1.218 1.212v7.798H9.024v-.55zm5.71 0V21.94c.037-.68.57-1.212 1.22-1.212s1.183.532 1.22 1.212v7.798h-2.44v-.55zm5.713 0V21.94c.036-.68.57-1.212 1.22-1.212s1.182.532 1.218 1.212v7.798h-2.438v-.55zm5.7 0v-6.243h1.522v6.794h-1.523v-.55zm1.536-7.345h-2.06c-.29 0-.526.247-.526.552v5.056h-1.164V21.9c-.057-1.277-1.053-2.276-2.268-2.276-1.214 0-2.21 1-2.266 2.276v5.548H18.22V21.9c-.057-1.277-1.053-2.276-2.267-2.276-1.215 0-2.21 1-2.267 2.276v5.548h-1.178V21.9c-.057-1.277-1.053-2.276-2.267-2.276s-2.21 1-2.265 2.276v5.548H6.918v-5.056c0-.305-.236-.55-.525-.55h-2.06V18.74H27.68v3.1zM19.49 11.3v1.17h-6.962V8.98h6.96v2.32zM3.81 13.573h6.622v.512h-6.62v-.512zm3.11 14.98h1.055v.633H6.92v-.634zm5.59 0h1.176v.633H12.51v-.634zm5.71 0H19.4v.633H18.22v-.634zm5.713 0h1.165v.633h-1.165v-.634zM13.51 12.112h4.997c.29 0 .524-.247.524-.55V9.788c0-.305-.233-.552-.523-.552H13.51c-.288 0-.523.246-.523.55v1.774c0 .304.234.55.524.55zm.525-1.772h3.948v.67h-3.948v-.67zM2.375 2.86c.234.217.53.335.84.335h3.367l-.004.064c0 .334.137.653.376.875.203.188.464.292.733.292h3.593c.612 0 1.11-.524 1.11-1.167 0-.644-.498-1.167-1.11-1.167h-.065l.02-.234c0-.738-.57-1.338-1.27-1.338h-6.75c-.307 0-.605.12-.84.335-.272.255-.43.62-.43 1.003 0 .383.158.75.432 1.002zM3.07 1.68l.145-.058h6.75c.123 0 .222.105.222.235s-.1.234-.222.234c-.29 0-.525.247-.525.552h-.002c0 .304.235.55.525.55h1.317l.06.065-.06.064H7.687l-.04-.015-.02-.048.02-.048.04-.017h.002c.29 0 .523-.247.523-.55 0-.306-.234-.552-.524-.552H3.214l-.146-.058c-.03-.027-.077-.084-.077-.175 0-.092.048-.15.076-.175zm16.645 2.1h2.926c.29 0 .525-.246.525-.55 0-.306-.235-.552-.524-.552h-2.925c-.29 0-.524.246-.524.55 0 .305.235.552.525.552zm1.16-1.49h4.944c.288 0 .523-.246.523-.55 0-.305-.234-.552-.524-.552h-4.945c-.29 0-.524.247-.524.552 0 .304.235.55.525.55z" fill="#3A434E"/></g></svg>