<svg width="32" height="232" viewBox="0 0 32 232" xmlns="http://www.w3.org/2000/svg"><title>seville</title><desc>Created with Sketch.</desc><g fill="none"><path d="M17.09 121.006l.154.026c.128 0 .25-.053.342-.147.09-.093.142-.22.142-.354 0-.215-.134-.406-.33-.473l-.208-.023-.196.07-.09.073c-.092.094-.144.222-.144.356 0 .215.134.406.33.474zm-3.943 5.982c.067.035.142.053.217.053.075 0 .15-.017.216-.052l.128-.095c.162-.17.187-.433.06-.63-.048-.073-.113-.132-.188-.17-.114-.058-.25-.068-.37-.026l-.114.057c-.12.083-.2.218-.214.367-.015.15.037.3.14.404l.125.094zm-3.135-4.99l.466.263.255.482c.085.16.248.26.425.26s.34-.1.425-.26l.255-.48.466-.264c.155-.088.25-.256.25-.438 0-.183-.096-.35-.25-.44l-.466-.262-.255-.48c-.085-.162-.248-.26-.425-.26s-.34.1-.425.26l-.255.48-.466.264c-.155.088-.252.256-.252.44 0 .18.097.35.252.437zm16.695 28.02l-1.794-3.014c.183.03.384.046.61.046h.003c.267 0 .483-.223.483-.5 0-.112-.037-.216-.098-.3l-2.19-3.605c.24-.03.425-.238.425-.493 0-.112-.036-.216-.097-.3l-2.21-3.638c.067-.13.107-.275.113-.43l.23-6.666 3.306-3.877c.32-.377.32-.943 0-1.32l-3.994-4.683c-.353-.414-.965-.454-1.366-.09-.4.366-.44.997-.087 1.412l3.43 4.022-2.61 3.06h-.366v-.848c.355-.348.578-.838.578-1.382 0-1.052-.83-1.908-1.847-1.908-.827 0-1.528.564-1.763 1.34l-.14-.01c-.644 0-1.17.543-1.17 1.21 0 .665.526 1.207 1.17 1.207.203 0 .393-.053.56-.146v.54h-.7c-.135 0-.257.057-.345.148-.144.077-.266.19-.356.328l-6.115 6.633c-.37.4-.355 1.033.032 1.414.188.184.428.276.667.276.255 0 .51-.104.7-.31l4.63-5.023.163 4.677v.02l-4.76 3.21c-.18.12-.262.35-.2.56.06.213.25.36.463.36.144 0 .26.012.364.034l-4.573 3.084c-.18.12-.26.35-.2.56.062.213.25.358.464.358.418 0 .71.07.96.176l-3.563 2.45h-.042c-.44 0-.813.306-.93.724-.09.15-.1.347-.01.51.103.438.485.766.94.766.766 0 1.105.22 1.574.526.57.37 1.28.83 2.603.83 1.323 0 2.033-.46 2.603-.83.47-.305.808-.526 1.573-.526.764 0 1.103.22 1.572.526.57.37 1.28.83 2.603.83 1.323 0 2.034-.46 2.604-.83.34-.22.612-.398 1.028-.478l.03-.006c.15-.026.318-.042.514-.042.35 0 .61.047.835.126l.03.012c.253.093.464.23.708.388.57.37 1.28.83 2.604.83.534 0 .967-.446.967-.998 0-.427-.26-.79-.625-.934zm-8.698-.065c-.766 0-1.104-.22-1.574-.525-.57-.37-1.28-.832-2.604-.832-1.323 0-2.033.463-2.604.832-.353.23-.632.41-1.074.487l-.035.005c-.138.02-.29.033-.465.033-.33 0-.58-.04-.795-.11l-.032-.01c-.27-.096-.49-.237-.746-.404-.314-.205-.67-.436-1.15-.603l3.108-2.14c.378.2.85.364 1.563.364 1.004 0 1.527-.324 1.99-.61.404-.252.753-.47 1.49-.47.734 0 1.084.218 1.49.47.46.286.984.61 1.988.61s1.528-.324 1.99-.61l.3-.178c.304-.168.638-.29 1.19-.29.646 0 .994.166 1.343.376l.127.08-.084-.006 2.007 3.373c-.226-.093-.42-.22-.646-.365-.57-.37-1.28-.832-2.604-.832-1.323 0-2.033.463-2.604.832-.47.305-.81.525-1.575.525zm-.14-16.508l-.053-1.504.482.505.02.02.545.573c.186.195.49.2.68.01l.103-.104.502-.5.052-.053.502-.497-.185 5.354H18l-.132-3.804zm2.146-2.802h.25l-.012.313-1.035 1.03-.952-.995-.005-.145.012-.202h.096c.268 0 .485-.224.485-.5v-.864c.12.026.247.04.375.04l.3-.028v.852c0 .276.218.5.485.5zm-2.92 7.997l.582-.392h3.04l.303.5 1.51 2.485-.333-.156c-.18-.067-.393-.12-.654-.137l-.2-.006c-.714 0-1.1.24-1.41.432-.27.167-.464.288-.91.288s-.64-.12-.91-.288c-.308-.192-.694-.432-1.408-.432s-1.1.24-1.41.432c-.164.103-.302.188-.487.238l-.097.022-.324.028c-.21 0-.362-.027-.494-.072l-.103-.04-.313-.176-.078-.048-.146-.086 3.842-2.59zm-3.645 3.836c.194.082.427.146.72.168l.218.01c.714 0 1.1-.24 1.41-.433.118-.074.223-.14.342-.188.15-.062.32-.1.567-.1.248 0 .418.037.566.1.12.05.224.114.343.19.17.105.362.223.62.31.21.07.466.12.79.12.32 0 .577-.05.79-.12.256-.086.448-.205.618-.31.12-.076.225-.14.343-.19l.145-.05c.116-.03.25-.05.422-.05.265 0 .44.043.598.113l.312.176.11.067 2.17 3.574c-.16-.07-.3-.156-.448-.246l-.053-.033c-.227-.14-.47-.29-.777-.407-.193-.073-.412-.132-.668-.167-.164-.023-.344-.037-.543-.037-1.004 0-1.527.325-1.99.61-.404.253-.754.47-1.49.47-.735 0-1.084-.218-1.49-.47-.46-.285-.984-.61-1.988-.61s-1.527.325-1.99.61l-.298.18c-.305.168-.64.29-1.193.29-.217 0-.4-.018-.56-.052-.224-.046-.405-.118-.573-.207l-.336-.195-.02-.013-.113-.068c-.178-.11-.367-.22-.594-.31l4.043-2.727z" fill="#206FAC"/><path d="M17.09 81.006l.154.026c.128 0 .25-.053.342-.147.09-.093.142-.22.142-.354 0-.215-.134-.406-.33-.473l-.208-.023-.196.07-.09.073c-.092.094-.144.222-.144.356 0 .215.134.406.33.474zm-3.943 5.982c.067.035.142.053.217.053.075 0 .15-.017.216-.052l.128-.095c.162-.17.187-.433.06-.63-.048-.073-.113-.132-.188-.17-.114-.058-.25-.068-.37-.026l-.114.057c-.12.083-.2.218-.214.367-.015.15.037.3.14.404l.125.094zm-3.135-4.99l.466.263.255.482c.085.16.248.26.425.26s.34-.1.425-.26l.255-.48.466-.264c.155-.088.25-.256.25-.438 0-.183-.096-.35-.25-.44l-.466-.262-.255-.48c-.085-.162-.248-.26-.425-.26s-.34.1-.425.26l-.255.48-.466.264c-.155.088-.252.256-.252.44 0 .18.097.35.252.437zm16.695 28.02l-1.794-3.014c.183.03.384.046.61.046h.003c.267 0 .483-.223.483-.5 0-.112-.037-.216-.098-.3l-2.19-3.605c.24-.03.425-.238.425-.493 0-.112-.036-.216-.097-.3l-2.21-3.638c.067-.13.107-.275.113-.43l.23-6.666 3.306-3.877c.32-.377.32-.943 0-1.32l-3.994-4.683c-.353-.414-.965-.454-1.366-.09-.4.366-.44.997-.087 1.412l3.43 4.022-2.61 3.06h-.366v-.848c.355-.348.578-.838.578-1.382 0-1.052-.83-1.908-1.847-1.908-.827 0-1.528.564-1.763 1.34l-.14-.01c-.644 0-1.17.543-1.17 1.21 0 .665.526 1.207 1.17 1.207.203 0 .393-.053.56-.146v.54h-.7c-.135 0-.257.057-.345.148-.144.077-.266.19-.356.328l-6.115 6.633c-.37.4-.355 1.033.032 1.414.188.184.428.276.667.276.255 0 .51-.104.7-.31l4.63-5.023.163 4.677v.02l-4.76 3.21c-.18.12-.262.35-.2.56.06.213.25.36.463.36.144 0 .26.012.364.034l-4.573 3.084c-.18.12-.26.35-.2.56.062.213.25.358.464.358.418 0 .71.07.96.176l-3.563 2.45h-.042c-.44 0-.813.306-.93.724-.09.15-.1.347-.01.51.103.438.485.766.94.766.766 0 1.105.22 1.574.526.57.37 1.28.83 2.603.83 1.323 0 2.033-.46 2.603-.83.47-.305.808-.526 1.573-.526.764 0 1.103.22 1.572.526.57.37 1.28.83 2.603.83 1.323 0 2.034-.46 2.604-.83.34-.22.612-.398 1.028-.478l.03-.006c.15-.026.318-.042.514-.042.35 0 .61.047.835.126l.03.012c.253.093.464.23.708.388.57.37 1.28.83 2.604.83.534 0 .967-.446.967-.998 0-.427-.26-.79-.625-.934zm-8.698-.065c-.766 0-1.104-.22-1.574-.525-.57-.37-1.28-.832-2.604-.832-1.323 0-2.033.463-2.604.832-.353.23-.632.41-1.074.487l-.035.005c-.138.02-.29.033-.465.033-.33 0-.58-.04-.795-.11l-.032-.01c-.27-.096-.49-.237-.746-.404-.314-.205-.67-.436-1.15-.603l3.108-2.14c.378.2.85.364 1.563.364 1.004 0 1.527-.324 1.99-.61.404-.252.753-.47 1.49-.47.734 0 1.084.218 1.49.47.46.286.984.61 1.988.61s1.528-.324 1.99-.61l.3-.178c.304-.168.638-.29 1.19-.29.646 0 .994.166 1.343.376l.127.08-.084-.006 2.007 3.373c-.226-.093-.42-.22-.646-.365-.57-.37-1.28-.832-2.604-.832-1.323 0-2.033.463-2.604.832-.47.305-.81.525-1.575.525zm-.14-16.508l-.053-1.504.482.505.02.02.545.573c.186.195.49.2.68.01l.103-.104.502-.5.052-.053.502-.497-.185 5.354H18l-.132-3.804zm2.146-2.802h.25l-.012.313-1.035 1.03-.952-.995-.005-.145.012-.202h.096c.268 0 .485-.224.485-.5v-.864c.12.026.247.04.375.04l.3-.028v.852c0 .276.218.5.485.5zm-2.92 7.997l.582-.392h3.04l.303.5 1.51 2.485-.333-.156c-.18-.067-.393-.12-.654-.137l-.2-.006c-.714 0-1.1.24-1.41.432-.27.167-.464.288-.91.288s-.64-.12-.91-.288c-.308-.192-.694-.432-1.408-.432s-1.1.24-1.41.432c-.164.103-.302.188-.487.238l-.097.022-.324.028c-.21 0-.362-.027-.494-.072l-.103-.04-.313-.176-.078-.048-.146-.086 3.842-2.59zm-3.645 3.836c.194.082.427.146.72.168l.218.01c.714 0 1.1-.24 1.41-.433.118-.074.223-.14.342-.188.15-.062.32-.1.567-.1.248 0 .418.037.566.1.12.05.224.114.343.19.17.105.362.223.62.31.21.07.466.12.79.12.32 0 .577-.05.79-.12.256-.086.448-.205.618-.31.12-.076.225-.14.343-.19l.145-.05c.116-.03.25-.05.422-.05.265 0 .44.043.598.113l.312.176.11.067 2.17 3.574c-.16-.07-.3-.156-.448-.246l-.053-.033c-.227-.14-.47-.29-.777-.407-.193-.073-.412-.132-.668-.167-.164-.023-.344-.037-.543-.037-1.004 0-1.527.325-1.99.61-.404.253-.754.47-1.49.47-.735 0-1.084-.218-1.49-.47-.46-.285-.984-.61-1.988-.61s-1.527.325-1.99.61l-.298.18c-.305.168-.64.29-1.193.29-.217 0-.4-.018-.56-.052-.224-.046-.405-.118-.573-.207l-.336-.195-.02-.013-.113-.068c-.178-.11-.367-.22-.594-.31l4.043-2.727z" fill="#fff"/><path d="M17.09 41.006l.154.026c.128 0 .25-.053.342-.147.09-.093.142-.22.142-.354 0-.215-.134-.406-.33-.473l-.208-.023-.196.07-.09.073c-.092.094-.144.222-.144.356 0 .215.134.406.33.474zm-3.943 5.982c.067.035.142.053.217.053.075 0 .15-.017.216-.052l.128-.095c.162-.17.187-.433.06-.63-.048-.073-.113-.132-.188-.17-.114-.058-.25-.068-.37-.026l-.114.057c-.12.083-.2.218-.214.367-.015.15.037.3.14.404l.125.094zm-3.135-4.99l.466.263.255.482c.085.16.248.26.425.26s.34-.1.425-.26l.255-.48.466-.264c.155-.088.25-.256.25-.438 0-.183-.096-.35-.25-.44l-.466-.262-.255-.48c-.085-.162-.248-.26-.425-.26s-.34.1-.425.26l-.255.48-.466.264c-.155.088-.252.256-.252.44 0 .18.097.35.252.437zm16.695 28.02l-1.794-3.014c.183.03.384.046.61.046h.003c.267 0 .483-.223.483-.5 0-.112-.037-.216-.098-.3l-2.19-3.605c.24-.03.425-.238.425-.493 0-.112-.036-.216-.097-.3l-2.21-3.638c.067-.13.107-.275.113-.43l.23-6.666 3.306-3.877c.32-.377.32-.943 0-1.32l-3.994-4.683c-.353-.414-.965-.454-1.366-.09-.4.366-.44.997-.087 1.412l3.43 4.022-2.61 3.06h-.366v-.848c.355-.348.578-.838.578-1.382 0-1.052-.83-1.908-1.847-1.908-.827 0-1.528.564-1.763 1.34l-.14-.01c-.644 0-1.17.543-1.17 1.21 0 .665.526 1.207 1.17 1.207.203 0 .393-.053.56-.146v.54h-.7c-.135 0-.257.057-.345.148-.144.077-.266.19-.356.328l-6.115 6.633c-.37.4-.355 1.033.032 1.414.188.184.428.276.667.276.255 0 .51-.104.7-.31l4.63-5.023.163 4.677v.02l-4.76 3.21c-.18.12-.262.35-.2.56.06.213.25.36.463.36.144 0 .26.012.364.034l-4.573 3.084c-.18.12-.26.35-.2.56.062.213.25.358.464.358.418 0 .71.07.96.176l-3.563 2.45h-.042c-.44 0-.813.306-.93.724-.09.15-.1.347-.01.51.103.438.485.766.94.766.766 0 1.105.22 1.574.526.57.37 1.28.83 2.603.83 1.323 0 2.033-.46 2.603-.83.47-.305.808-.526 1.573-.526.764 0 1.103.22 1.572.526.57.37 1.28.83 2.603.83 1.323 0 2.034-.46 2.604-.83.34-.22.612-.398 1.028-.478l.03-.006c.15-.026.318-.042.514-.042.35 0 .61.047.835.126l.03.012c.253.093.464.23.708.388.57.37 1.28.83 2.604.83.534 0 .967-.446.967-.998 0-.427-.26-.79-.625-.934zm-8.698-.065c-.766 0-1.104-.22-1.574-.525-.57-.37-1.28-.832-2.604-.832-1.323 0-2.033.463-2.604.832-.353.23-.632.41-1.074.487l-.035.005c-.138.02-.29.033-.465.033-.33 0-.58-.04-.795-.11l-.032-.01c-.27-.096-.49-.237-.746-.404-.314-.205-.67-.436-1.15-.603l3.108-2.14c.378.2.85.364 1.563.364 1.004 0 1.527-.324 1.99-.61.404-.252.753-.47 1.49-.47.734 0 1.084.218 1.49.47.46.286.984.61 1.988.61s1.528-.324 1.99-.61l.3-.178c.304-.168.638-.29 1.19-.29.646 0 .994.166 1.343.376l.127.08-.084-.006 2.007 3.373c-.226-.093-.42-.22-.646-.365-.57-.37-1.28-.832-2.604-.832-1.323 0-2.033.463-2.604.832-.47.305-.81.525-1.575.525zm-.14-16.508l-.053-1.504.482.505.02.02.545.573c.186.195.49.2.68.01l.103-.104.502-.5.052-.053.502-.497-.185 5.354H18l-.132-3.804zm2.146-2.802h.25l-.012.313-1.035 1.03-.952-.995-.005-.145.012-.202h.096c.268 0 .485-.224.485-.5v-.864c.12.026.247.04.375.04l.3-.028v.852c0 .276.218.5.485.5zm-2.92 7.997l.582-.392h3.04l.303.5 1.51 2.485-.333-.156c-.18-.067-.393-.12-.654-.137l-.2-.006c-.714 0-1.1.24-1.41.432-.27.167-.464.288-.91.288s-.64-.12-.91-.288c-.308-.192-.694-.432-1.408-.432s-1.1.24-1.41.432c-.164.103-.302.188-.487.238l-.097.022-.324.028c-.21 0-.362-.027-.494-.072l-.103-.04-.313-.176-.078-.048-.146-.086 3.842-2.59zm-3.645 3.836c.194.082.427.146.72.168l.218.01c.714 0 1.1-.24 1.41-.433.118-.074.223-.14.342-.188.15-.062.32-.1.567-.1.248 0 .418.037.566.1.12.05.224.114.343.19.17.105.362.223.62.31.21.07.466.12.79.12.32 0 .577-.05.79-.12.256-.086.448-.205.618-.31.12-.076.225-.14.343-.19l.145-.05c.116-.03.25-.05.422-.05.265 0 .44.043.598.113l.312.176.11.067 2.17 3.574c-.16-.07-.3-.156-.448-.246l-.053-.033c-.227-.14-.47-.29-.777-.407-.193-.073-.412-.132-.668-.167-.164-.023-.344-.037-.543-.037-1.004 0-1.527.325-1.99.61-.404.253-.754.47-1.49.47-.735 0-1.084-.218-1.49-.47-.46-.285-.984-.61-1.988-.61s-1.527.325-1.99.61l-.298.18c-.305.168-.64.29-1.193.29-.217 0-.4-.018-.56-.052-.224-.046-.405-.118-.573-.207l-.336-.195-.02-.013-.113-.068c-.178-.11-.367-.22-.594-.31l4.043-2.727z" fill="#67737B"/><path d="M17.09 1.006l.154.026c.128 0 .25-.053.342-.147.09-.093.142-.22.142-.354 0-.215-.134-.406-.33-.473L17.19.034l-.196.07-.09.073C16.81.27 16.76.4 16.76.533c0 .215.134.406.33.474zm-3.943 5.982c.067.035.142.053.217.053.075 0 .15-.017.216-.052l.128-.095c.162-.17.187-.433.06-.63-.048-.073-.113-.132-.188-.17-.114-.058-.25-.068-.37-.026l-.114.057c-.12.083-.2.218-.214.367-.015.15.037.3.14.404l.125.094zm-3.135-4.99l.466.263.255.482c.085.16.248.26.425.26s.34-.1.425-.26l.255-.48.466-.264c.155-.088.25-.256.25-.438 0-.183-.096-.35-.25-.44L11.838.86l-.255-.48c-.085-.162-.248-.26-.425-.26s-.34.1-.425.26l-.255.48-.466.264c-.155.088-.252.256-.252.44 0 .18.097.35.252.437zm16.695 28.02l-1.794-3.014c.183.03.384.046.61.046h.003c.267 0 .483-.223.483-.5 0-.112-.037-.216-.098-.3l-2.19-3.605c.24-.03.425-.238.425-.493 0-.112-.036-.216-.097-.3l-2.21-3.638c.067-.13.107-.275.113-.43l.23-6.666L25.49 7.24c.32-.377.32-.943 0-1.32l-3.994-4.683c-.353-.414-.965-.454-1.366-.09-.4.366-.44.997-.087 1.412l3.43 4.022-2.61 3.06h-.366v-.848c.355-.348.578-.838.578-1.382 0-1.052-.83-1.908-1.847-1.908-.827 0-1.528.564-1.763 1.34l-.14-.01c-.644 0-1.17.543-1.17 1.21 0 .665.526 1.207 1.17 1.207.203 0 .393-.053.56-.146v.54h-.7c-.135 0-.257.057-.345.148-.144.077-.266.19-.356.328l-6.115 6.633c-.37.4-.355 1.033.032 1.414.188.184.428.276.667.276.255 0 .51-.104.7-.31l4.63-5.023.163 4.677v.02l-4.76 3.21c-.18.12-.262.35-.2.56.06.213.25.36.463.36.144 0 .26.012.364.034l-4.573 3.084c-.18.12-.26.35-.2.56.062.213.25.358.464.358.418 0 .71.07.96.176l-3.563 2.45h-.042c-.44 0-.813.306-.93.724-.09.15-.1.347-.01.51.103.438.485.766.94.766.766 0 1.105.22 1.574.526.57.37 1.28.83 2.603.83 1.323 0 2.033-.46 2.603-.83.47-.305.808-.526 1.573-.526.764 0 1.103.22 1.572.526.57.37 1.28.83 2.603.83 1.323 0 2.034-.46 2.604-.83.34-.22.612-.398 1.028-.478l.03-.006c.15-.026.318-.042.514-.042.35 0 .61.047.835.126l.03.012c.253.093.464.23.708.388.57.37 1.28.83 2.604.83.534 0 .967-.446.967-.998 0-.427-.26-.79-.625-.934zm-8.698-.065c-.766 0-1.104-.22-1.574-.525-.57-.37-1.28-.832-2.604-.832-1.323 0-2.033.463-2.604.832-.353.23-.632.41-1.074.487l-.035.005c-.138.02-.29.033-.465.033-.33 0-.58-.04-.795-.11l-.032-.01c-.27-.096-.49-.237-.746-.404-.314-.205-.67-.436-1.15-.603l3.108-2.14c.378.2.85.364 1.563.364 1.004 0 1.527-.324 1.99-.61.404-.252.753-.47 1.49-.47.734 0 1.084.218 1.49.47.46.286.984.61 1.988.61s1.528-.324 1.99-.61l.3-.178c.304-.168.638-.29 1.19-.29.646 0 .994.166 1.343.376l.127.08-.084-.006 2.007 3.373c-.226-.093-.42-.22-.646-.365-.57-.37-1.28-.832-2.604-.832-1.323 0-2.033.463-2.604.832-.47.305-.81.525-1.575.525zm-.14-16.508l-.053-1.504.482.505.02.02.545.573c.186.195.49.2.68.01l.103-.104.502-.5.052-.053.502-.497-.185 5.354H18l-.132-3.804zm2.146-2.802h.25l-.012.313-1.035 1.03-.952-.995-.005-.145.012-.202h.096c.268 0 .485-.224.485-.5V9.28c.12.026.247.04.375.04l.3-.028v.852c0 .276.218.5.485.5zm-2.92 7.997l.582-.392h3.04l.303.5 1.51 2.485-.333-.156c-.18-.067-.393-.12-.654-.137l-.2-.006c-.714 0-1.1.24-1.41.432-.27.167-.464.288-.91.288s-.64-.12-.91-.288c-.308-.192-.694-.432-1.408-.432s-1.1.24-1.41.432c-.164.103-.302.188-.487.238l-.097.022-.324.028c-.21 0-.362-.027-.494-.072l-.103-.04-.313-.176-.078-.048-.146-.086 3.842-2.59zm-3.645 3.836c.194.082.427.146.72.168l.218.01c.714 0 1.1-.24 1.41-.433.118-.074.223-.14.342-.188.15-.062.32-.1.567-.1.248 0 .418.037.566.1.12.05.224.114.343.19.17.105.362.223.62.31.21.07.466.12.79.12.32 0 .577-.05.79-.12.256-.086.448-.205.618-.31.12-.076.225-.14.343-.19l.145-.05c.116-.03.25-.05.422-.05.265 0 .44.043.598.113l.312.176.11.067 2.17 3.574c-.16-.07-.3-.156-.448-.246l-.053-.033c-.227-.14-.47-.29-.777-.407-.193-.073-.412-.132-.668-.167-.164-.023-.344-.037-.543-.037-1.004 0-1.527.325-1.99.61-.404.253-.754.47-1.49.47-.735 0-1.084-.218-1.49-.47-.46-.285-.984-.61-1.988-.61s-1.527.325-1.99.61l-.298.18c-.305.168-.64.29-1.193.29-.217 0-.4-.018-.56-.052-.224-.046-.405-.118-.573-.207l-.336-.195-.02-.013-.113-.068c-.178-.11-.367-.22-.594-.31l4.043-2.727z" fill="#3A434E"/></g></svg>