<svg width="32" height="232" viewBox="0 0 32 232" xmlns="http://www.w3.org/2000/svg"><desc>Created with Sketch.</desc><g fill="none"><path d="M30.95 149.186h-1.173v-14.008l.578-1.996c.048-.168.02-.35-.08-.49s-.255-.223-.42-.223h-.602v-1.17l-.002-.03.61-.636c.205-.216.206-.564 0-.78-.19-.202-.493-.213-.7-.037v-.283c0-.304-.234-.55-.524-.55-.29 0-.524.245-.524.55v.282c-.205-.177-.507-.166-.7.035-.203.217-.203.566 0 .78l.11.114h-2.13l.107-.113c.203-.215.204-.563 0-.78-.19-.2-.494-.212-.7-.036v-.282c0-.304-.234-.55-.524-.55-.29 0-.524.245-.524.55v.282c-.208-.176-.51-.165-.7.036-.207.217-.206.566 0 .78l.106.114h-1.573v-1.957l.066-.096c.09-.172.09-.385-.01-.555-.877-1.5-2.22-2.563-3.766-3.04.2-.215.198-.558-.005-.77-.206-.217-.538-.217-.74-.002l-.5.524-.1-.01v-1.362c0-.304-.236-.55-.525-.55-.29 0-.524.246-.524.55v1.364l-.097.007-.5-.524c-.205-.214-.537-.214-.74 0-.203.214-.204.558-.006.773-1.55.476-2.89 1.54-3.765 3.04-.1.17-.103.382-.01.556l.066.097v1.955h-1.57l.106-.113c.205-.216.205-.564 0-.78-.19-.202-.493-.213-.7-.037v-.282c0-.303-.233-.55-.523-.55-.287 0-.522.246-.522.55v.283c-.206-.176-.508-.165-.7.036-.204.215-.204.564 0 .78l.108.112h-2.13l.108-.113c.205-.216.205-.564 0-.78-.19-.202-.493-.213-.7-.037v-.282c0-.303-.233-.55-.523-.55-.29 0-.523.246-.523.55v.283c-.205-.176-.508-.165-.7.036-.204.215-.203.564.002.78l.605.636-.003.027v1.17h-.6c-.164 0-.32.082-.42.223-.1.14-.13.32-.08.49l.58 1.994v14.01h-1.18c-.58 0-1.05.492-1.05 1.1s.47 1.1 1.05 1.1h29.883c.58 0 1.048-.49 1.048-1.1 0-.61-.47-1.103-1.048-1.103zM3.81 131.852h6.622v.618h-6.62v-.618zm11.204-5.833l.552.574c.102.108.236.16.37.16l.074-.006.073.007c.133 0 .268-.053.37-.16l.552-.58c1.148.218 2.192.805 3 1.688l.152.17h-8.294l.152-.17c.807-.883 1.852-1.47 3-1.687zm6.57 5.83h6.622v.62h-6.62v-.62zm-17.25 4.44H9.78c.037.265.253.47.516.47.173 0 .325-.09.42-.225.05-.07.084-.155.096-.247h4.68c.035.267.25.473.516.473.264 0 .48-.205.516-.472h4.68c.01.094.044.178.094.25.096.136.248.225.42.225.265 0 .48-.206.517-.473h5.446v1.347H4.338v-1.348zm17.25-2.72h6.622v.512h-6.62v-.512zm-9.056 0h6.96v.512h-6.96v-.512zM4.35 149.186v-6.243h1.522v6.794H4.35v-.55zm4.673 0v-7.246c.036-.68.57-1.21 1.22-1.21s1.182.53 1.218 1.21v7.8H9.027v-.55zm5.71 0v-7.246c.037-.68.57-1.21 1.22-1.21s1.183.53 1.22 1.21v7.8h-2.44v-.55zm5.713 0v-7.246c.036-.68.57-1.21 1.22-1.21s1.182.53 1.218 1.21v7.8h-2.438v-.55zm5.7 0v-6.243h1.522v6.794h-1.523v-.55zm1.536-7.345h-2.06c-.29 0-.526.247-.526.552v5.056h-1.164v-5.55c-.057-1.276-1.053-2.275-2.268-2.275-1.214 0-2.21 1-2.266 2.276v5.55H18.22v-5.55c-.057-1.276-1.053-2.275-2.267-2.275-1.215 0-2.21 1-2.267 2.276v5.55h-1.178v-5.55c-.057-1.277-1.053-2.276-2.267-2.276s-2.21 1-2.262 2.276v5.548h-1.06v-5.056c0-.305-.235-.55-.524-.55h-2.06v-3.102H27.68v3.1zM19.49 131.3v1.17h-6.962v-3.49h6.96v2.32zm-15.68 2.273h6.622v.512h-6.62v-.512zm3.11 14.98h1.055v.633H6.92v-.634zm5.59 0h1.176v.633H12.51v-.634zm5.71 0h1.18v.633h-1.18v-.634zm5.713 0h1.165v.633h-1.165v-.634zm-10.422-16.44h5c.29 0 .524-.247.524-.55v-1.774c0-.308-.233-.555-.523-.555h-5c-.287 0-.522.246-.522.55v1.774c0 .304.234.55.524.55zm.528-1.772h3.948v.67h-3.948v-.67zm-11.66-7.48c.234.218.53.336.84.336h3.367l-.004.064c0 .333.137.652.376.874.203.188.464.292.733.292h3.592c.614 0 1.11-.524 1.11-1.167 0-.646-.496-1.17-1.11-1.17h-.063l.02-.232c0-.74-.57-1.34-1.27-1.34H3.22c-.308 0-.606.12-.84.335-.273.255-.43.62-.43 1.003 0 .383.157.75.43 1.002zm.694-1.176l.146-.058h6.75c.123 0 .222.105.222.235s-.1.234-.222.234c-.29 0-.525.247-.525.552 0 .304.234.55.524.55h1.317l.06.065-.06.065H7.688l-.04-.015-.02-.05.02-.048.04-.017h.002c.29 0 .52-.247.52-.55 0-.306-.233-.552-.523-.552H3.214l-.146-.058c-.03-.027-.077-.084-.077-.175 0-.09.05-.15.08-.174zm16.646 2.1h2.926c.29 0 .526-.246.526-.55 0-.306-.235-.552-.524-.552H19.72c-.29 0-.525.247-.525.55 0 .306.235.553.525.553zm1.16-1.49h4.944c.287 0 .522-.246.522-.55 0-.305-.234-.552-.524-.552h-4.945c-.29 0-.524.248-.524.553 0 .304.234.55.524.55z" fill="#206FAC"/><path d="M30.95 109.186h-1.173V95.178l.578-1.996c.048-.168.02-.35-.08-.49s-.255-.223-.42-.223h-.602V91.3l-.002-.027.61-.636c.205-.216.206-.564 0-.78-.19-.202-.493-.213-.7-.037v-.282c0-.304-.234-.55-.524-.55-.29 0-.524.245-.524.55v.282c-.205-.176-.507-.165-.7.036-.203.216-.203.565 0 .78l.11.113h-2.13l.107-.116c.203-.216.204-.564 0-.78-.19-.202-.494-.213-.7-.037v-.283c0-.304-.234-.55-.524-.55-.29 0-.524.245-.524.55v.282c-.208-.177-.51-.166-.7.035-.207.217-.206.566 0 .78l.106.114h-1.573V88.79l.066-.095c.09-.174.09-.387-.01-.557-.877-1.5-2.22-2.563-3.766-3.04.2-.215.198-.558-.005-.77-.206-.217-.538-.217-.74-.002l-.5.524-.1-.008V83.48c0-.304-.236-.55-.525-.55-.29 0-.524.246-.524.55v1.364l-.097.008-.5-.524c-.205-.214-.537-.214-.74 0-.203.214-.204.558-.006.773-1.55.48-2.89 1.54-3.765 3.04-.1.17-.103.386-.01.56l.066.096v1.956h-1.57l.106-.112c.205-.216.205-.564 0-.78-.19-.202-.493-.213-.7-.037v-.28c0-.305-.233-.55-.523-.55-.287 0-.522.244-.522.55v.28c-.206-.175-.508-.164-.7.037-.204.216-.204.565 0 .78l.108.113h-2.13l.108-.114c.205-.217.205-.565 0-.78-.19-.203-.493-.214-.7-.038v-.284c0-.304-.233-.55-.523-.55-.29 0-.523.245-.523.55v.282c-.205-.177-.508-.166-.7.035-.204.216-.203.565.002.78l.605.637-.003.027v1.17h-.6c-.164 0-.32.08-.42.22-.1.14-.13.32-.08.49l.58 1.994v14.01h-1.18c-.58 0-1.05.493-1.05 1.102s.47 1.1 1.05 1.1h29.883c.58 0 1.048-.492 1.048-1.1 0-.61-.47-1.104-1.048-1.104zM3.81 91.852h6.622v.618h-6.62v-.618zm11.204-5.833l.552.574c.102.108.236.16.37.16l.074-.006.073.007c.133 0 .268-.053.37-.16l.552-.58c1.148.218 2.192.805 3 1.688l.152.17h-8.294l.152-.17c.807-.883 1.852-1.47 3-1.687zm6.57 5.83h6.622v.62h-6.62v-.62zm-17.25 4.44H9.78c.037.265.253.47.516.47.173 0 .325-.09.42-.225.05-.07.084-.155.096-.247h4.68c.035.267.25.473.516.473.264 0 .48-.205.516-.472h4.68c.01.094.044.178.094.25.096.136.248.225.42.225.265 0 .48-.206.517-.473h5.446v1.347H4.338v-1.35zm17.25-2.72h6.622v.512h-6.62v-.512zm-9.056 0h6.96v.512h-6.96v-.512zM4.35 109.186v-6.243h1.522v6.794H4.35v-.55zm4.673 0v-7.246c.036-.68.57-1.21 1.22-1.21s1.182.53 1.218 1.21v7.8H9.027v-.55zm5.71 0v-7.246c.037-.68.57-1.21 1.22-1.21s1.183.53 1.22 1.21v7.8h-2.44v-.55zm5.713 0v-7.246c.036-.68.57-1.21 1.22-1.21s1.182.53 1.218 1.21v7.8h-2.438v-.55zm5.7 0v-6.243h1.522v6.794h-1.523v-.55zm1.536-7.345h-2.06c-.29 0-.526.247-.526.552v5.056h-1.164v-5.55c-.057-1.276-1.053-2.275-2.268-2.275-1.214 0-2.21 1-2.266 2.276v5.55H18.22v-5.55c-.057-1.276-1.053-2.275-2.267-2.275-1.215 0-2.21 1-2.267 2.276v5.55h-1.178v-5.55c-.057-1.277-1.053-2.276-2.267-2.276s-2.21 1-2.262 2.276v5.548h-1.06v-5.056c0-.305-.235-.55-.524-.55h-2.06V98.74H27.68v3.1zM19.49 91.3v1.17h-6.962v-3.49h6.96v2.32zM3.81 93.573h6.622v.512h-6.62v-.512zm3.11 14.98h1.055v.633H6.92v-.634zm5.59 0h1.176v.633H12.51v-.634zm5.71 0h1.18v.633h-1.18v-.634zm5.713 0h1.165v.633h-1.165v-.634zM13.51 92.113h4.997c.29 0 .524-.248.524-.55v-1.775c0-.305-.23-.552-.52-.552h-5c-.287 0-.522.246-.522.55v1.774c0 .304.234.55.524.55zm.525-1.773h3.948v.67h-3.948v-.67zm-11.66-7.48c.234.217.53.335.84.335h3.367l-.004.064c0 .33.137.65.376.872.203.188.464.292.733.292h3.593c.612 0 1.11-.524 1.11-1.167 0-.645-.498-1.168-1.11-1.168h-.065l.02-.235c0-.738-.57-1.338-1.27-1.338h-6.75c-.307 0-.605.12-.84.335-.272.255-.43.62-.43 1.003 0 .383.158.75.432 1.002zm.694-1.177l.142-.058h6.75c.123 0 .222.105.222.235s-.1.234-.222.234c-.29 0-.525.247-.525.552h-.003c0 .304.235.55.525.55h1.316l.06.065-.06.067h-3.59l-.04-.015-.02-.047.02-.048.04-.017c.29 0 .523-.247.523-.55 0-.306-.235-.552-.525-.552h-4.47l-.147-.058c-.03-.027-.077-.084-.077-.175 0-.092.05-.15.08-.175zm16.642 2.1h2.926c.29 0 .524-.246.524-.55 0-.306-.235-.552-.524-.552h-2.924c-.29 0-.524.25-.524.55 0 .308.235.555.525.555zm1.16-1.49h4.944c.288 0 .523-.246.523-.55 0-.305-.234-.552-.524-.552H20.87c-.29 0-.523.25-.523.555 0 .304.235.55.525.55z" fill="#fff"/><path d="M30.95 69.186h-1.173V55.178l.578-1.996c.048-.168.02-.35-.08-.49s-.255-.223-.42-.223h-.602V51.3l-.002-.027.61-.636c.205-.216.206-.564 0-.78-.19-.202-.493-.213-.7-.037v-.282c0-.304-.234-.55-.524-.55-.29 0-.524.245-.524.55v.282c-.205-.176-.507-.165-.7.036-.203.216-.203.565 0 .78l.11.113h-2.13l.107-.116c.203-.216.204-.564 0-.78-.19-.202-.494-.213-.7-.037v-.283c0-.304-.234-.55-.524-.55-.29 0-.524.245-.524.55v.282c-.208-.177-.51-.166-.7.035-.207.217-.206.566 0 .78l.106.114h-1.573V48.79l.066-.095c.09-.174.09-.387-.01-.557-.877-1.5-2.22-2.563-3.766-3.04.2-.215.198-.558-.005-.77-.206-.217-.538-.217-.74-.002l-.5.524-.1-.008V43.48c0-.304-.236-.55-.525-.55-.29 0-.524.246-.524.55v1.364l-.097.008-.5-.524c-.205-.214-.537-.214-.74 0-.203.214-.204.558-.006.773-1.55.48-2.89 1.54-3.765 3.04-.1.17-.103.386-.01.56l.066.096v1.956h-1.57l.106-.112c.205-.216.205-.564 0-.78-.19-.202-.493-.213-.7-.037v-.28c0-.305-.233-.55-.523-.55-.287 0-.522.244-.522.55v.28c-.206-.175-.508-.164-.7.037-.204.216-.204.565 0 .78l.108.113h-2.13l.108-.114c.205-.217.205-.565 0-.78-.19-.203-.493-.214-.7-.038v-.284c0-.304-.233-.55-.523-.55-.29 0-.523.245-.523.55v.282c-.205-.177-.508-.166-.7.035-.204.216-.203.565.002.78l.605.637-.003.027v1.17h-.6c-.164 0-.32.08-.42.22-.1.14-.13.32-.08.49l.58 1.994v14.01h-1.18c-.58 0-1.05.493-1.05 1.102s.47 1.1 1.05 1.1h29.883c.58 0 1.048-.492 1.048-1.1 0-.61-.47-1.104-1.048-1.104zM3.81 51.852h6.622v.618h-6.62v-.618zm11.204-5.833l.552.574c.102.108.236.16.37.16l.074-.006.073.007c.133 0 .268-.053.37-.16l.552-.58c1.148.218 2.192.805 3 1.688l.152.17h-8.294l.152-.17c.807-.883 1.852-1.47 3-1.687zm6.57 5.83h6.622v.62h-6.62v-.62zm-17.25 4.44H9.78c.037.265.253.47.516.47.173 0 .325-.09.42-.225.05-.07.084-.155.096-.247h4.68c.035.267.25.473.516.473.264 0 .48-.205.516-.472h4.68c.01.094.044.178.094.25.096.136.248.225.42.225.265 0 .48-.206.517-.473h5.446v1.347H4.338v-1.35zm17.25-2.72h6.622v.512h-6.62v-.512zm-9.056 0h6.96v.512h-6.96v-.512zM4.35 69.186v-6.243h1.522v6.794H4.35v-.55zm4.673 0V61.94c.036-.68.57-1.212 1.22-1.212s1.182.532 1.218 1.212v7.798H9.027v-.55zm5.71 0V61.94c.037-.68.57-1.212 1.22-1.212s1.183.532 1.22 1.212v7.798h-2.44v-.55zm5.713 0V61.94c.036-.68.57-1.212 1.22-1.212s1.182.532 1.218 1.212v7.798h-2.438v-.55zm5.7 0v-6.243h1.522v6.794h-1.523v-.55zm1.536-7.345h-2.06c-.29 0-.526.247-.526.552v5.056h-1.164V61.9c-.057-1.277-1.053-2.276-2.268-2.276-1.214 0-2.21 1-2.266 2.276v5.548H18.22V61.9c-.057-1.277-1.053-2.276-2.267-2.276-1.215 0-2.21 1-2.267 2.276v5.548h-1.178V61.9c-.057-1.277-1.053-2.276-2.267-2.276s-2.21 1-2.262 2.276v5.548h-1.06v-5.056c0-.305-.235-.55-.524-.55h-2.06V58.74H27.68v3.1zM19.49 51.3v1.17h-6.962v-3.49h6.96v2.32zM3.81 53.573h6.622v.512h-6.62v-.512zm3.11 14.98h1.055v.633H6.92v-.634zm5.59 0h1.176v.633H12.51v-.634zm5.71 0h1.18v.633h-1.18v-.634zm5.713 0h1.165v.633h-1.165v-.634zM13.51 52.113h4.997c.29 0 .524-.248.524-.55v-1.775c0-.305-.23-.552-.52-.552h-5c-.287 0-.522.246-.522.55v1.774c0 .304.234.55.524.55zm.525-1.773h3.948v.67h-3.948v-.67zm-11.66-7.48c.234.217.53.335.84.335h3.367l-.004.064c0 .33.137.65.376.872.203.188.464.292.733.292h3.593c.612 0 1.11-.524 1.11-1.167 0-.645-.498-1.168-1.11-1.168h-.065l.02-.235c0-.738-.57-1.338-1.27-1.338h-6.75c-.307 0-.605.12-.84.335-.272.255-.43.62-.43 1.003 0 .383.158.75.432 1.002zm.694-1.177l.142-.058h6.75c.123 0 .222.105.222.235s-.1.234-.222.234c-.29 0-.525.247-.525.552h-.003c0 .304.235.55.525.55h1.316l.06.065-.06.067h-3.59l-.04-.015-.02-.047.02-.048.04-.017c.29 0 .523-.247.523-.55 0-.306-.235-.552-.525-.552h-4.47l-.147-.058c-.03-.027-.077-.084-.077-.175 0-.092.05-.15.08-.175zm16.642 2.1h2.926c.29 0 .524-.246.524-.55 0-.306-.235-.552-.524-.552h-2.924c-.29 0-.524.25-.524.55 0 .308.235.555.525.555zm1.16-1.49h4.944c.288 0 .523-.246.523-.55 0-.305-.234-.552-.524-.552H20.87c-.29 0-.523.25-.523.555 0 .304.235.55.525.55z" fill="#67737B"/><path d="M30.95 29.186h-1.173V15.178l.578-1.996c.048-.168.02-.35-.08-.49s-.255-.223-.42-.223h-.602V11.3l-.002-.027.61-.636c.205-.216.206-.564 0-.78-.19-.202-.493-.213-.7-.037v-.282c0-.304-.234-.55-.524-.55-.29 0-.524.245-.524.55v.282c-.205-.176-.507-.165-.7.036-.203.216-.203.565 0 .78l.11.113h-2.13l.107-.116c.203-.216.204-.564 0-.78-.19-.202-.494-.213-.7-.037v-.283c0-.304-.234-.55-.524-.55-.29 0-.524.245-.524.55v.282c-.208-.177-.51-.166-.7.035-.207.217-.206.566 0 .78l.106.114h-1.573V8.792l.066-.096c.09-.174.09-.387-.01-.557-.877-1.5-2.22-2.566-3.766-3.04.2-.218.198-.56-.005-.77-.206-.22-.538-.22-.74-.005l-.5.524-.1-.008V3.48c0-.304-.236-.55-.525-.55-.29 0-.524.246-.524.55v1.364l-.097.008-.5-.524c-.205-.214-.537-.214-.74 0-.203.214-.204.558-.006.773-1.55.48-2.89 1.54-3.765 3.04-.1.17-.103.386-.01.56l.066.096v1.956h-1.57l.106-.112c.205-.216.205-.564 0-.78-.19-.202-.493-.213-.7-.037v-.28c0-.305-.233-.55-.523-.55-.287 0-.522.244-.522.55v.28c-.206-.175-.508-.164-.7.037-.204.216-.204.565 0 .78l.108.113h-2.13l.108-.114c.205-.217.205-.565 0-.78-.19-.203-.493-.214-.7-.038v-.284c0-.304-.233-.55-.523-.55-.29 0-.523.245-.523.55v.282c-.205-.177-.508-.166-.7.035-.204.216-.203.565.002.78l.605.637-.003.027v1.17h-.6c-.164 0-.32.08-.42.22-.1.14-.13.32-.08.49l.58 1.994v14.01h-1.18c-.58 0-1.05.493-1.05 1.102s.47 1.1 1.05 1.1h29.883c.58 0 1.048-.492 1.048-1.1 0-.61-.47-1.104-1.048-1.104zM3.81 11.852h6.622v.618h-6.62v-.618zM15.015 6.02l.552.577c.102.108.236.16.37.16l.074-.006.076.01c.133 0 .268-.052.37-.16l.552-.58c1.148.22 2.192.806 3 1.69l.152.17h-8.295l.152-.17c.807-.884 1.852-1.47 3-1.688zm6.57 5.832h6.622v.618h-6.62v-.618zm-17.25 4.44H9.78c.037.266.253.472.516.472.173 0 .325-.09.42-.226.05-.07.084-.155.096-.247h4.68c.035.27.25.477.516.477.264 0 .48-.206.516-.473h4.68c.01.093.044.177.094.25.096.135.248.224.42.224.265 0 .48-.206.517-.473h5.446v1.347H4.338v-1.35zm17.25-2.72h6.622v.513h-6.62v-.512zm-9.056 0h6.96v.513h-6.96v-.512zM4.35 29.187v-6.243h1.522v6.794H4.35v-.55zm4.673 0V21.94c.036-.68.57-1.212 1.22-1.212s1.182.532 1.218 1.212v7.798H9.027v-.55zm5.71 0V21.94c.037-.68.57-1.212 1.22-1.212s1.183.532 1.22 1.212v7.798h-2.44v-.55zm5.713 0V21.94c.036-.68.57-1.212 1.22-1.212s1.182.532 1.218 1.212v7.798h-2.438v-.55zm5.7 0v-6.243h1.522v6.794h-1.523v-.55zm1.536-7.345h-2.06c-.29 0-.526.247-.526.552v5.056h-1.164V21.9c-.057-1.277-1.053-2.276-2.268-2.276-1.214 0-2.21 1-2.266 2.276v5.548H18.22V21.9c-.057-1.277-1.053-2.276-2.267-2.276-1.215 0-2.21 1-2.267 2.276v5.548h-1.178V21.9c-.057-1.277-1.053-2.276-2.267-2.276s-2.21 1-2.262 2.276v5.548h-1.06v-5.056c0-.305-.235-.55-.524-.55h-2.06V18.74H27.68v3.1zM19.49 11.3v1.17h-6.962V8.98h6.96v2.32zM3.81 13.573h6.622v.512h-6.62v-.512zm3.11 14.98h1.055v.633H6.92v-.634zm5.59 0h1.176v.633H12.51v-.634zm5.71 0h1.18v.633h-1.18v-.634zm5.713 0h1.165v.633h-1.165v-.634zM13.51 12.113h4.997c.29 0 .524-.248.524-.55V9.787c0-.305-.23-.552-.52-.552h-5c-.287 0-.522.246-.522.55v1.774c0 .302.234.55.524.55zm.525-1.773h3.948v.67h-3.948v-.67zM2.375 2.86c.234.217.53.335.84.335h3.367l-.004.064c0 .33.137.65.376.872.203.188.464.292.733.292h3.593c.612 0 1.11-.524 1.11-1.167 0-.645-.498-1.168-1.11-1.168h-.065l.02-.235c0-.738-.57-1.338-1.27-1.338h-6.75c-.307 0-.605.12-.84.335-.272.255-.43.62-.43 1.003 0 .383.158.75.432 1.002zm.695-1.18l.145-.058h6.75c.123 0 .222.105.222.235s-.1.234-.222.234c-.29 0-.525.25-.525.555h-.002c0 .304.235.55.525.55h1.317l.06.065-.06.063H7.687l-.04-.015-.02-.048.02-.05.04-.016h.002c.29 0 .52-.247.52-.55 0-.306-.234-.552-.524-.552H3.214l-.146-.058c-.03-.027-.077-.084-.077-.175 0-.095.05-.15.08-.178zm16.645 2.1h2.926c.29 0 .528-.246.528-.55 0-.306-.235-.552-.524-.552H19.72c-.29 0-.525.246-.525.55 0 .305.235.552.525.552zm1.16-1.49h4.944c.285 0 .52-.246.52-.55 0-.305-.234-.552-.524-.552H20.87c-.29 0-.523.247-.523.552 0 .304.234.55.524.55z" fill="#3A434E"/></g></svg>