<svg width="32" height="232" viewBox="0 0 32 232" xmlns="http://www.w3.org/2000/svg"><desc>Created with Sketch.</desc><g fill="none"><path d="M30.985 147.702h-18.81c-.66 0-1.198-.59-1.198-1.313s.538-1.317 1.198-1.317l.164-.015c1.67-.105 3.003-1.63 3.003-3.49 0-.616-.147-1.196-.405-1.7h14.93c.274 0 .497-.244.497-.545 0-.3-.223-.545-.498-.545h-1.01c.03-.184.02-.38-.044-.57l-.654-1.96c-.058-.176-.155-.33-.283-.45l-1.437-1.37-.74-1.26c-.18-.308-.487-.497-.82-.503l-.99-.013c-.045-.265-.092-.584-.13-.885-.022-.19-.09-.367-.194-.518l-1.76-2.535c-.21-.3-.54-.46-.88-.427-.344.034-.645.256-.8.59l-1.794 3.822-.792 1.173-1.442 1.643c-.09.103-.163.225-.21.36l-.88 2.476c-.05.14-.07.283-.068.424h-.872c-.534-.442-1.2-.704-1.92-.704h-5.68L5.012 126.6c.328.176.61.433.828.76.335.505.467 1.117.373 1.725-.046.297.137.578.408.63l.087.007c.238 0 .45-.188.49-.455.14-.9-.056-1.805-.548-2.548-.305-.46-.698-.825-1.153-1.078.82-.39 1.817-.255 2.514.425.205.2.52.18.703-.043.184-.225.166-.57-.04-.77-.99-.966-2.406-1.16-3.572-.61.09-.206.21-.4.36-.577.406-.484.97-.775 1.584-.818.275-.02.483-.28.466-.58-.02-.3-.257-.528-.53-.51-.873.06-1.673.478-2.254 1.17-.17.2-.312.42-.43.65-.64-.932-1.704-1.51-2.873-1.43-.273.02-.48.28-.464.58.016.3.25.527.53.51.87-.062 1.656.394 2.086 1.114-1.22-.383-2.6.007-3.47 1.103-.18.227-.16.572.048.77.094.09.21.133.326.133.14 0 .278-.063.377-.187.61-.77 1.584-1.044 2.443-.772-.42.316-.77.73-1.016 1.23-.4.807-.49 1.73-.246 2.6.065.238.263.39.476.39l.146-.02c.262-.087.41-.39.33-.68-.164-.59-.104-1.214.17-1.762.193-.39.48-.71.83-.935l.907 11.46H1.39c-.55 0-.996.488-.996 1.09 0 .603.446 1.092.996 1.092h3.676l.222 2.798H2.192c-.275 0-.498.244-.498.545 0 .3.223.545.498.545h6.173c.275 0 .498-.244.498-.545 0-.3-.223-.545-.498-.545h-1.26l-.356-2.798h5.4c.66 0 1.2.59 1.2 1.313s-.54 1.313-1.2 1.313l-.165.016c-1.674.105-3.007 1.63-3.007 3.49 0 1.903 1.397 3.456 3.13 3.493h18.87c.55 0 .996-.488.996-1.09 0-.603-.446-1.09-.996-1.09zm-13.31-10.828l1.348-1.537.083-.108.878-1.305.085-.15 1.105-2.363.647.93c.23 1.73.46 2.047.73 2.272.214.177.476.256.74.223.12-.01.553-.008 1.02 0l.527.9c.05.087.114.166.185.234l1.352 1.287.506 1.52h-9.89l.678-1.907zm3.187 6.447c.213.095.477.208.96.208s.75-.113.962-.204c.176-.074.303-.128.6-.128s.422.054.598.13c.213.09.477.203.96.203s.75-.114.962-.205c.176-.074.303-.128.6-.128s.422.054.598.13c.213.09.477.203.96.203.276 0 .5-.245.5-.546 0-.3-.224-.545-.5-.545-.295 0-.422-.056-.598-.13-.213-.09-.477-.205-.96-.205s-.75.113-.962.204c-.176.073-.303.13-.6.13s-.422-.057-.598-.13c-.213-.09-.477-.206-.96-.206s-.75.113-.962.204c-.176.073-.303.13-.6.13s-.422-.057-.598-.13c-.213-.09-.477-.206-.96-.206s-.75.113-.962.204c-.176.074-.303.13-.6.13s-.422-.056-.598-.13c-.213-.09-.477-.205-.96-.205-.276 0-.5.245-.5.546 0 .3.224.545.5.545.295 0 .422.055.598.13.213.09.477.204.96.204s.75-.113.962-.204c.176-.074.303-.128.6-.128s.422.054.598.13zm7.603 1.48c-.176.078-.303.13-.6.13s-.422-.052-.598-.13c-.213-.09-.477-.2-.96-.2s-.75.112-.962.203c-.176.076-.303.13-.6.13s-.422-.054-.598-.13c-.212-.09-.477-.203-.96-.203s-.75.112-.962.203c-.176.076-.303.13-.6.13s-.422-.054-.598-.13c-.213-.09-.477-.203-.96-.203-.276 0-.5.244-.5.545 0 .302.224.546.5.546.295 0 .422.056.598.13.212.09.477.205.96.205s.75-.113.962-.204c.176-.074.303-.13.6-.13s.422.056.598.13c.213.09.477.205.96.205s.75-.114.962-.205c.176-.076.303-.13.6-.13s.422.054.598.13c.213.09.477.203.96.203s.75-.115.962-.206c.176-.075.303-.13.6-.13s.422.055.598.13c.213.09.477.204.96.204.276 0 .5-.243.5-.544 0-.3-.224-.545-.5-.545-.295 0-.422-.054-.598-.13-.213-.09-.477-.203-.96-.203s-.75.113-.962.204zm-7.113-21.553c.293-.27.71-.274 1.007-.034l.005.024c.082.192.258.315.45.315h.06c.194 0 .37-.123.452-.315l.01-.023c.294-.24.712-.235 1.005.035.21.193.525.163.7-.068.178-.23.15-.575-.06-.768-.62-.57-1.49-.607-2.138-.153-.648-.453-1.518-.42-2.137.15-.21.194-.237.538-.06.768.177.23.49.26.7.067zm-4.995 1.716c.293-.27.71-.272 1.007-.033l.01.022c.08.19.257.314.45.314h.06c.194 0 .37-.123.45-.315l.01-.023c.296-.24.713-.235 1.007.034.21.194.528.164.705-.067.177-.23.15-.575-.06-.768-.62-.57-1.49-.606-2.14-.152-.647-.453-1.517-.418-2.136.152-.21.194-.24.538-.06.768.175.23.49.26.7.067zm-6.088 4.465c.23.222.52.344.825.344h1.73l-.006.104c0 .342.135.67.37.896.2.192.455.3.72.3h3.64c.6 0 1.09-.538 1.09-1.196 0-.66-.49-1.194-1.09-1.194h-.106l.027-.284c0-.757-.562-1.374-1.253-1.374h-5.122c-.305 0-.6.122-.83.344-.27.26-.425.637-.425 1.03s.157.77.428 1.03zm.655-1.242c.033-.033.09-.07.17-.07h5.12c.143 0 .26.126.26.282 0 .156-.117.283-.26.283-.274 0-.497.245-.497.546 0 .3.22.545.496.545h1.334c.054 0 .096.048.096.105 0 .058-.042.105-.094.105h-3.638l-.062-.027-.032-.077.033-.078.064-.026h.002c.275 0 .498-.245.498-.546 0-.3-.223-.545-.498-.545H11.1c-.08 0-.138-.04-.17-.07-.034-.032-.09-.102-.09-.212s.056-.18.09-.212z" fill="#206FAC"/><path d="M30.985 107.702h-18.81c-.66 0-1.198-.59-1.198-1.313s.538-1.317 1.198-1.317l.164-.015c1.67-.105 3.003-1.63 3.003-3.49 0-.616-.147-1.196-.405-1.7h14.93c.274 0 .497-.244.497-.545 0-.3-.223-.545-.498-.545h-1.01c.03-.184.02-.38-.044-.57l-.654-1.96c-.058-.176-.155-.33-.283-.45l-1.44-1.37-.74-1.262c-.18-.307-.487-.496-.82-.502l-.99-.013c-.045-.264-.092-.583-.13-.884-.022-.187-.09-.365-.194-.516l-1.76-2.534c-.208-.298-.54-.46-.88-.426-.342.033-.643.255-.8.588L18.33 92.7l-.79 1.173-1.443 1.643c-.09.104-.163.226-.21.36l-.88 2.477c-.05.14-.07.283-.068.424h-.873c-.534-.444-1.2-.706-1.92-.706H6.474L5.014 86.6c.327.177.61.434.827.76.337.506.47 1.118.375 1.726-.046.297.137.578.408.63l.085.007c.238 0 .45-.188.49-.455.14-.9-.056-1.804-.548-2.547-.305-.46-.698-.82-1.153-1.073.82-.39 1.817-.255 2.514.425.206.2.52.18.704-.043.184-.226.166-.57-.04-.77-.99-.967-2.406-1.16-3.572-.61.09-.207.21-.4.36-.578.406-.485.97-.776 1.584-.82.275-.02.483-.28.466-.58-.02-.3-.256-.526-.53-.507-.872.06-1.672.477-2.253 1.17-.17.2-.313.42-.43.65-.64-.933-1.705-1.51-2.874-1.43-.273.02-.48.278-.464.58.018.3.253.526.53.51.87-.063 1.658.393 2.088 1.113-1.22-.383-2.6.007-3.47 1.103-.18.226-.16.57.048.77.094.09.21.13.326.13.14 0 .277-.062.376-.186.61-.77 1.584-1.044 2.443-.772-.42.315-.77.73-1.015 1.23-.4.806-.49 1.73-.246 2.6.064.237.262.39.475.39l.145-.024c.262-.088.41-.392.33-.68-.164-.59-.104-1.215.17-1.763.193-.39.48-.71.83-.935L4.9 98.08H1.39c-.55 0-.996.487-.996 1.09 0 .602.446 1.09.996 1.09h3.676l.222 2.8H2.192c-.275 0-.498.243-.498.544 0 .3.223.545.498.545h6.173c.275 0 .498-.246.498-.547 0-.3-.223-.544-.498-.544h-1.26l-.356-2.8h5.4c.66 0 1.2.59 1.2 1.313s-.54 1.313-1.2 1.313l-.165.015c-1.674.106-3.007 1.63-3.007 3.49 0 1.904 1.397 3.457 3.13 3.494h18.87c.55 0 .996-.486.996-1.09 0-.6-.446-1.09-.996-1.09zm-13.31-10.828l1.348-1.537.083-.108.878-1.305.085-.15 1.105-2.363.647.93c.23 1.73.46 2.047.73 2.272.214.177.476.256.74.223.12-.01.553-.008 1.02 0l.527.9c.05.087.114.166.185.234l1.352 1.287.506 1.52h-9.89l.678-1.907zm3.187 6.447c.213.095.477.208.96.208s.75-.113.962-.204c.176-.074.303-.128.6-.128s.422.054.598.13c.213.09.477.203.96.203s.75-.114.962-.205c.176-.074.303-.128.6-.128s.422.054.598.13c.213.09.477.203.96.203.276 0 .5-.245.5-.546 0-.3-.224-.545-.5-.545-.295 0-.422-.056-.598-.13-.213-.09-.477-.205-.96-.205s-.75.113-.962.204c-.176.073-.303.13-.6.13s-.422-.057-.598-.13c-.213-.09-.477-.206-.96-.206s-.75.113-.962.204c-.176.073-.303.13-.6.13s-.422-.057-.598-.13c-.213-.09-.477-.206-.96-.206s-.75.113-.962.204c-.176.074-.303.13-.6.13s-.422-.056-.598-.13c-.213-.09-.477-.205-.96-.205-.276 0-.5.245-.5.546 0 .3.224.545.5.545.295 0 .422.055.598.13.213.09.477.204.96.204s.75-.113.962-.204c.176-.074.303-.128.6-.128s.422.054.598.13zm7.603 1.48c-.176.078-.303.13-.6.13s-.422-.052-.598-.13c-.213-.09-.477-.2-.96-.2s-.75.112-.962.203c-.176.076-.303.13-.6.13s-.422-.054-.598-.13c-.212-.09-.477-.203-.96-.203s-.75.112-.962.203c-.176.076-.303.13-.6.13s-.422-.054-.598-.13c-.213-.09-.477-.203-.96-.203-.276 0-.5.244-.5.545 0 .302.224.546.5.546.295 0 .422.056.598.13.212.09.477.205.96.205s.75-.113.962-.204c.176-.074.303-.13.6-.13s.422.056.598.13c.213.09.477.205.96.205s.75-.114.962-.205c.176-.076.303-.13.6-.13s.422.054.598.13c.213.09.477.203.96.203s.75-.115.962-.206c.176-.075.303-.13.6-.13s.422.055.598.13c.213.09.477.204.96.204.276 0 .5-.243.5-.544 0-.3-.224-.545-.5-.545-.295 0-.422-.054-.598-.13-.213-.09-.477-.203-.96-.203s-.75.113-.962.204zm-7.113-21.553c.293-.27.71-.274 1.007-.034l.005.024c.082.192.258.315.45.315h.06c.194 0 .37-.123.452-.315l.01-.023c.294-.24.712-.235 1.005.035.21.193.525.163.7-.068.178-.23.15-.575-.06-.768-.62-.57-1.49-.607-2.138-.153-.648-.453-1.518-.42-2.137.15-.21.194-.237.538-.06.768.177.23.49.26.7.067zm-4.995 1.716c.293-.27.71-.272 1.007-.033l.01.022c.08.19.257.314.45.314h.06c.194 0 .37-.123.45-.315l.01-.023c.296-.24.713-.235 1.007.034.21.194.528.164.705-.067.177-.23.15-.575-.06-.768-.62-.57-1.49-.606-2.14-.152-.647-.453-1.517-.418-2.136.152-.21.194-.24.538-.06.768.175.23.49.26.7.067zm-6.088 4.465c.23.222.52.344.825.344h1.73l-.006.104c0 .342.135.67.37.896.2.192.455.3.72.3h3.64c.6 0 1.09-.538 1.09-1.196 0-.66-.49-1.194-1.09-1.194h-.106l.027-.284c0-.757-.562-1.374-1.253-1.374h-5.122c-.305 0-.6.122-.83.344-.27.26-.425.637-.425 1.03s.157.77.428 1.03zm.655-1.242c.033-.033.09-.07.17-.07h5.12c.143 0 .26.126.26.282 0 .156-.117.283-.26.283-.274 0-.497.245-.497.546 0 .3.22.545.496.545h1.334c.054 0 .096.048.096.105 0 .058-.042.105-.094.105h-3.638l-.062-.027-.032-.077.033-.078.064-.026h.002c.275 0 .498-.245.498-.546 0-.3-.223-.545-.498-.545H11.1c-.08 0-.138-.04-.17-.07-.034-.032-.09-.102-.09-.212s.056-.18.09-.212z" fill="#fff"/><path d="M30.985 67.702h-18.81c-.66 0-1.198-.59-1.198-1.313s.538-1.317 1.198-1.317l.164-.015c1.67-.105 3.003-1.63 3.003-3.49 0-.616-.147-1.196-.405-1.7h14.93c.274 0 .497-.244.497-.545 0-.3-.223-.545-.498-.545h-1.01c.03-.184.02-.38-.044-.57l-.654-1.96c-.058-.176-.155-.33-.283-.45l-1.44-1.37-.74-1.262c-.18-.307-.487-.496-.82-.502l-.99-.013c-.045-.264-.092-.583-.13-.884-.022-.187-.09-.365-.194-.516l-1.76-2.534c-.208-.298-.54-.46-.88-.426-.342.033-.643.255-.8.588L18.33 52.7l-.79 1.173-1.443 1.643c-.09.104-.163.226-.21.36l-.88 2.477c-.05.14-.07.283-.068.424h-.873c-.534-.444-1.2-.706-1.92-.706H6.474L5.014 46.6c.327.177.61.434.827.76.337.506.47 1.118.375 1.726-.046.297.137.578.408.63l.085.007c.238 0 .45-.188.49-.455.14-.9-.056-1.804-.548-2.547-.305-.46-.698-.82-1.153-1.073.82-.39 1.817-.255 2.514.425.206.2.52.18.704-.043.184-.226.166-.57-.04-.77-.99-.967-2.406-1.16-3.572-.61.09-.207.21-.4.36-.578.406-.485.97-.776 1.584-.82.275-.02.483-.28.466-.58-.02-.3-.256-.526-.53-.507-.872.06-1.672.477-2.253 1.17-.17.2-.313.42-.43.65-.64-.933-1.705-1.51-2.874-1.43-.273.02-.48.278-.464.58.018.3.253.526.53.51.87-.063 1.658.393 2.088 1.113-1.22-.383-2.6.007-3.47 1.103-.18.226-.16.57.048.77.094.09.21.13.326.13.14 0 .277-.062.376-.186.61-.77 1.584-1.044 2.443-.772-.42.315-.77.73-1.015 1.23-.4.806-.49 1.73-.246 2.6.064.237.262.39.475.39l.145-.024c.262-.088.41-.392.33-.68-.164-.59-.104-1.215.17-1.763.193-.39.48-.71.83-.935L4.9 58.08H1.39c-.55 0-.996.487-.996 1.09 0 .602.446 1.09.996 1.09h3.676l.222 2.8H2.192c-.275 0-.498.243-.498.544 0 .3.223.545.498.545h6.173c.275 0 .498-.246.498-.547 0-.3-.223-.544-.498-.544h-1.26l-.356-2.8h5.4c.66 0 1.2.59 1.2 1.313s-.54 1.313-1.2 1.313l-.165.015c-1.674.106-3.007 1.63-3.007 3.49 0 1.904 1.397 3.457 3.13 3.494h18.87c.55 0 .996-.486.996-1.09 0-.6-.446-1.09-.996-1.09zm-13.31-10.828l1.348-1.537.083-.108.878-1.305.085-.15 1.105-2.363.647.93c.23 1.73.46 2.047.73 2.272.214.177.476.256.74.223.12-.01.553-.008 1.02 0l.527.9c.05.087.114.166.185.234l1.352 1.287.506 1.52h-9.89l.678-1.907zm3.187 6.447c.213.095.477.208.96.208s.75-.113.962-.204c.176-.074.303-.128.6-.128s.422.054.598.13c.213.09.477.203.96.203s.75-.114.962-.205c.176-.074.303-.128.6-.128s.422.054.598.13c.213.09.477.203.96.203.276 0 .5-.245.5-.546 0-.3-.224-.545-.5-.545-.295 0-.422-.056-.598-.13-.213-.09-.477-.205-.96-.205s-.75.113-.962.204c-.176.073-.303.13-.6.13s-.422-.057-.598-.13c-.213-.09-.477-.206-.96-.206s-.75.113-.962.204c-.176.073-.303.13-.6.13s-.422-.057-.598-.13c-.213-.09-.477-.206-.96-.206s-.75.113-.962.204c-.176.074-.303.13-.6.13s-.422-.056-.598-.13c-.213-.09-.477-.205-.96-.205-.276 0-.5.245-.5.546 0 .3.224.545.5.545.295 0 .422.055.598.13.213.09.477.204.96.204s.75-.113.962-.204c.176-.074.303-.128.6-.128s.422.054.598.13zm7.603 1.48c-.176.078-.303.13-.6.13s-.422-.052-.598-.13c-.213-.09-.477-.2-.96-.2s-.75.112-.962.203c-.176.076-.303.13-.6.13s-.422-.054-.598-.13c-.212-.09-.477-.203-.96-.203s-.75.112-.962.203c-.176.076-.303.13-.6.13s-.422-.054-.598-.13c-.213-.09-.477-.203-.96-.203-.276 0-.5.244-.5.545 0 .302.224.546.5.546.295 0 .422.056.598.13.212.09.477.205.96.205s.75-.113.962-.204c.176-.074.303-.13.6-.13s.422.056.598.13c.213.09.477.205.96.205s.75-.114.962-.205c.176-.076.303-.13.6-.13s.422.054.598.13c.213.09.477.203.96.203s.75-.115.962-.206c.176-.075.303-.13.6-.13s.422.055.598.13c.213.09.477.204.96.204.276 0 .5-.243.5-.544 0-.3-.224-.545-.5-.545-.295 0-.422-.054-.598-.13-.213-.09-.477-.203-.96-.203s-.75.113-.962.204zm-7.113-21.553c.293-.27.71-.274 1.007-.034l.005.024c.082.192.258.315.45.315h.06c.194 0 .37-.123.452-.315l.01-.023c.294-.24.712-.235 1.005.035.21.193.525.163.7-.068.178-.23.15-.575-.06-.768-.62-.57-1.49-.607-2.138-.153-.648-.453-1.518-.42-2.137.15-.21.194-.237.538-.06.768.177.23.49.26.7.067zm-4.995 1.716c.293-.27.71-.272 1.007-.033l.01.022c.08.19.257.314.45.314h.06c.194 0 .37-.123.45-.315l.01-.023c.296-.24.713-.235 1.007.034.21.194.528.164.705-.067.177-.23.15-.575-.06-.768-.62-.57-1.49-.606-2.14-.152-.647-.453-1.517-.418-2.136.152-.21.194-.24.538-.06.768.175.23.49.26.7.067zm-6.088 4.465c.23.222.52.344.825.344h1.73l-.006.104c0 .342.135.67.37.896.2.192.455.3.72.3h3.64c.6 0 1.09-.538 1.09-1.196 0-.66-.49-1.194-1.09-1.194h-.106l.027-.284c0-.757-.562-1.374-1.253-1.374h-5.122c-.305 0-.6.122-.83.344-.27.26-.425.637-.425 1.03s.157.77.428 1.03zm.655-1.242c.033-.033.09-.07.17-.07h5.12c.143 0 .26.126.26.282 0 .156-.117.283-.26.283-.274 0-.497.245-.497.546 0 .3.22.545.496.545h1.334c.054 0 .096.048.096.105 0 .058-.042.105-.094.105h-3.638l-.062-.027-.032-.077.033-.078.064-.026h.002c.275 0 .498-.245.498-.546 0-.3-.223-.545-.498-.545H11.1c-.08 0-.138-.04-.17-.07-.034-.032-.09-.102-.09-.212s.056-.18.09-.212z" fill="#67737B"/><path d="M30.985 27.702h-18.81c-.66 0-1.198-.59-1.198-1.313s.538-1.317 1.198-1.317l.164-.015c1.67-.105 3.003-1.63 3.003-3.49 0-.616-.147-1.196-.405-1.7h14.93c.274 0 .497-.244.497-.545 0-.3-.223-.545-.498-.545h-1.01c.03-.184.02-.38-.044-.57l-.654-1.96c-.058-.176-.155-.33-.283-.45l-1.44-1.37-.74-1.262c-.18-.307-.487-.496-.82-.502l-.99-.013c-.045-.264-.092-.583-.13-.884-.022-.187-.09-.365-.194-.516l-1.76-2.534c-.208-.298-.54-.46-.88-.426-.342.033-.643.255-.8.588L18.33 12.7l-.79 1.173-1.443 1.643c-.09.104-.163.226-.21.36l-.88 2.477c-.05.14-.07.283-.068.424h-.873c-.534-.444-1.2-.706-1.92-.706H6.474L5.014 6.603c.326.176.61.433.826.76.334.505.466 1.117.372 1.725-.046.297.137.578.408.63l.084.007c.238 0 .45-.188.49-.455.14-.9-.056-1.807-.548-2.55-.304-.46-.697-.823-1.152-1.076.82-.39 1.817-.255 2.514.425.205.2.52.18.703-.044.187-.225.17-.57-.04-.77-.99-.966-2.403-1.16-3.57-.61.09-.206.21-.4.36-.577.406-.485.97-.776 1.584-.82.275-.02.483-.28.466-.58-.02-.3-.256-.526-.53-.507-.872.06-1.672.477-2.253 1.17-.17.2-.312.42-.43.65-.64-.933-1.704-1.51-2.873-1.43-.273.02-.48.278-.464.58.017.3.252.526.53.51.87-.063 1.657.393 2.087 1.113-1.22-.383-2.6.007-3.47 1.103-.18.226-.16.57.048.77.094.09.21.132.326.132.14 0 .28-.064.38-.188.61-.77 1.583-1.044 2.442-.772-.42.314-.77.73-1.016 1.23-.4.805-.49 1.73-.246 2.6.065.236.263.388.476.388L2.66 10c.263-.088.41-.392.33-.68-.163-.59-.103-1.215.17-1.763.194-.39.48-.71.83-.935l.908 11.46H1.39c-.55 0-.996.488-.996 1.09 0 .603.446 1.092.996 1.092h3.676l.222 2.798H2.192c-.275 0-.498.244-.498.545 0 .3.223.545.498.545h6.173c.275 0 .498-.244.498-.545 0-.3-.223-.545-.498-.545h-1.26l-.356-2.798h5.4c.66 0 1.2.59 1.2 1.313s-.54 1.313-1.2 1.313l-.165.015c-1.674.105-3.007 1.63-3.007 3.49 0 1.903 1.397 3.456 3.13 3.493h18.87c.55 0 .996-.487.996-1.09 0-.602-.446-1.09-.996-1.09zm-13.31-10.828l1.348-1.537.083-.108.878-1.305.085-.15 1.105-2.363.647.93c.23 1.73.46 2.047.73 2.272.214.177.476.256.74.223.12-.01.553-.008 1.02 0l.527.9c.05.087.114.166.185.234l1.352 1.287.506 1.52h-9.89l.678-1.907zm3.187 6.447c.213.095.477.208.96.208s.75-.113.962-.204c.176-.074.303-.128.6-.128s.422.054.598.13c.213.09.477.203.96.203s.75-.114.962-.205c.176-.074.303-.128.6-.128s.422.054.598.13c.213.09.477.203.96.203.276 0 .5-.245.5-.546 0-.3-.224-.545-.5-.545-.295 0-.422-.056-.598-.13-.213-.09-.477-.205-.96-.205s-.75.113-.962.204c-.176.073-.303.13-.6.13s-.422-.057-.598-.13c-.213-.09-.477-.206-.96-.206s-.75.113-.962.204c-.176.073-.303.13-.6.13s-.422-.057-.598-.13c-.213-.09-.477-.206-.96-.206s-.75.113-.962.204c-.176.074-.303.13-.6.13s-.422-.056-.598-.13c-.213-.09-.477-.205-.96-.205-.276 0-.5.245-.5.546 0 .3.224.545.5.545.295 0 .422.055.598.13.213.09.477.204.96.204s.75-.113.962-.204c.176-.074.303-.128.6-.128s.422.054.598.13zm7.603 1.48c-.176.078-.303.13-.6.13s-.422-.052-.598-.13c-.213-.09-.477-.2-.96-.2s-.75.112-.962.203c-.176.076-.303.13-.6.13s-.422-.054-.598-.13c-.212-.09-.477-.203-.96-.203s-.75.112-.962.203c-.176.076-.303.13-.6.13s-.422-.054-.598-.13c-.213-.09-.477-.203-.96-.203-.276 0-.5.244-.5.545 0 .302.224.546.5.546.295 0 .422.056.598.13.212.09.477.205.96.205s.75-.113.962-.204c.176-.074.303-.13.6-.13s.422.056.598.13c.213.09.477.205.96.205s.75-.114.962-.205c.176-.076.303-.13.6-.13s.422.054.598.13c.213.09.477.203.96.203s.75-.115.962-.206c.176-.075.303-.13.6-.13s.422.055.598.13c.213.09.477.204.96.204.276 0 .5-.243.5-.544 0-.3-.224-.545-.5-.545-.295 0-.422-.054-.598-.13-.213-.09-.477-.203-.96-.203s-.75.113-.962.204zM21.352 3.247c.293-.27.71-.274 1.007-.034l.005.024c.082.192.258.315.45.315h.06c.194 0 .37-.123.452-.315l.01-.023c.294-.24.712-.235 1.005.035.21.194.525.164.7-.067.178-.23.15-.575-.06-.768-.62-.57-1.49-.608-2.138-.154-.648-.453-1.518-.418-2.137.152-.21.193-.237.537-.06.767.177.23.49.26.7.067zM16.357 4.96c.293-.27.71-.273 1.007-.034l.01.023c.08.19.257.31.45.31h.06c.194 0 .37-.122.45-.314l.01-.024c.296-.24.713-.235 1.007.034.21.194.528.164.705-.067.177-.23.15-.575-.06-.768-.62-.57-1.49-.606-2.14-.152-.647-.45-1.517-.416-2.136.154-.21.194-.24.538-.06.768.175.23.49.26.7.068zM10.27 9.424c.23.222.523.344.828.344h1.73l-.006.104c0 .342.135.67.37.896.2.193.455.3.72.3h3.64c.6 0 1.09-.537 1.09-1.195 0-.66-.49-1.194-1.09-1.194h-.106l.027-.287c0-.757-.563-1.374-1.254-1.374h-5.125c-.305 0-.6.122-.83.344-.27.26-.425.637-.425 1.03s.156.77.427 1.03zm.658-1.242c.033-.033.09-.07.17-.07h5.12c.143 0 .26.126.26.282 0 .156-.117.283-.26.283-.274 0-.497.244-.497.545 0 .3.225.545.5.545h1.334c.053 0 .095.047.095.104 0 .06-.043.108-.095.108h-3.638l-.062-.026-.032-.077.034-.078.063-.026c.275 0 .498-.244.498-.545 0-.3-.223-.545-.498-.545H11.1c-.08 0-.138-.04-.17-.07-.034-.034-.09-.104-.09-.214s.056-.18.09-.212z" fill="#3A434E"/></g></svg>