<svg width="32" height="232" viewBox="0 0 32 232" xmlns="http://www.w3.org/2000/svg"><title>st-lucia</title><desc>Created with Sketch.</desc><g fill="none"><path d="M30.985 147.702h-18.81c-.66 0-1.198-.59-1.198-1.313s.538-1.314 1.198-1.314l.164-.015c1.673-.104 3.006-1.628 3.006-3.488 0-.617-.147-1.197-.405-1.7H29.87c.275 0 .498-.245.498-.546 0-.3-.223-.545-.498-.545h-1.01c.03-.185.02-.38-.043-.572l-.654-1.96c-.057-.175-.154-.33-.282-.45l-1.438-1.368-.74-1.262c-.18-.307-.487-.496-.82-.502l-.99-.013c-.045-.265-.092-.584-.13-.885-.022-.187-.09-.365-.194-.516l-1.76-2.534c-.208-.298-.54-.46-.88-.426-.342.033-.643.255-.8.588l-1.792 3.822-.792 1.173-1.442 1.643c-.09.104-.163.226-.21.36l-.88 2.477c-.05.14-.07.283-.068.424h-.872c-.534-.442-1.2-.704-1.92-.704H6.474l-1.46-11.474c.327.176.61.433.827.76.334.505.466 1.117.372 1.725-.046.297.137.578.408.63l.084.007c.238 0 .45-.188.49-.455.14-.9-.056-1.804-.548-2.547-.304-.46-.697-.823-1.152-1.076.82-.39 1.817-.255 2.514.425.205.2.52.18.703-.044.184-.225.166-.57-.04-.77-.99-.966-2.406-1.16-3.572-.61.09-.206.21-.4.36-.577.405-.484.968-.775 1.583-.818.275-.02.483-.28.466-.58-.018-.3-.255-.527-.528-.508-.873.06-1.673.477-2.254 1.17-.17.2-.312.42-.43.65-.64-.933-1.704-1.51-2.873-1.43-.273.02-.48.278-.464.58.018.3.253.526.53.51.87-.063 1.658.393 2.088 1.113-1.22-.383-2.6.007-3.47 1.103-.18.227-.16.572.048.77.094.09.21.133.326.133.14 0 .277-.064.376-.188.61-.77 1.584-1.044 2.443-.772-.42.314-.77.73-1.017 1.23-.4.805-.49 1.73-.246 2.6.065.236.263.388.476.388l.145-.023c.263-.088.41-.392.33-.68-.163-.59-.103-1.215.17-1.763.194-.39.48-.71.83-.935l.908 11.46H1.39c-.55 0-.996.488-.996 1.09 0 .603.446 1.092.996 1.092h3.676l.222 2.798H2.192c-.275 0-.498.244-.498.545 0 .3.223.545.498.545h6.173c.275 0 .498-.244.498-.545 0-.3-.223-.545-.498-.545h-1.26l-.356-2.798h5.402c.66 0 1.198.59 1.198 1.313s-.538 1.313-1.198 1.313l-.164.015c-1.674.105-3.007 1.63-3.007 3.49 0 1.903 1.398 3.456 3.13 3.493H30.98c.55 0 .997-.487.997-1.09 0-.602-.446-1.09-.996-1.09zm-13.31-10.828l1.348-1.537.083-.108.878-1.302.085-.15 1.108-2.363.647.93c.23 1.73.46 2.047.73 2.272.214.177.476.256.74.223.12-.008.553-.007 1.02 0l.527.9c.05.088.114.167.185.235l1.352 1.286.506 1.52h-9.89l.678-1.907zm3.187 6.447c.213.092.477.205.96.205s.75-.113.962-.204c.176-.074.303-.128.6-.128s.422.054.598.13c.213.09.477.203.96.203s.75-.113.962-.204c.176-.074.303-.128.6-.128s.422.054.598.13c.213.09.477.203.96.203.276 0 .5-.244.5-.545 0-.3-.224-.545-.5-.545-.295 0-.422-.054-.598-.13-.213-.09-.477-.203-.96-.203s-.75.113-.962.204c-.176.075-.303.13-.6.13s-.422-.055-.598-.13c-.213-.09-.477-.204-.96-.204s-.75.113-.962.204c-.176.075-.303.13-.6.13s-.422-.055-.598-.13c-.213-.09-.477-.204-.96-.204s-.75.113-.962.204c-.176.075-.303.13-.6.13s-.422-.055-.598-.13c-.213-.09-.477-.204-.96-.204-.276 0-.5.244-.5.545 0 .3.224.545.5.545.295 0 .422.054.598.13.213.09.477.203.96.203s.75-.113.962-.204c.176-.074.303-.128.6-.128s.422.054.598.13zm7.603 1.48c-.176.075-.303.13-.6.13s-.422-.055-.598-.13c-.213-.09-.477-.204-.96-.204s-.75.113-.962.204c-.176.075-.303.13-.6.13s-.422-.055-.598-.13c-.212-.09-.477-.204-.96-.204s-.75.113-.962.204c-.176.075-.303.13-.6.13s-.422-.055-.598-.13c-.213-.09-.477-.204-.96-.204-.276 0-.5.244-.5.545 0 .302.224.546.5.546.295 0 .422.054.598.13.212.09.477.203.96.203s.75-.114.962-.205c.176-.075.303-.13.6-.13s.422.055.598.13c.213.09.477.204.96.204s.75-.114.962-.205c.176-.075.303-.13.6-.13s.422.055.598.13c.213.09.477.204.96.204s.75-.114.962-.205c.176-.075.303-.13.6-.13s.422.055.598.13c.213.09.477.204.96.204.276 0 .5-.245.5-.546 0-.3-.224-.545-.5-.545-.295 0-.422-.055-.598-.13-.213-.09-.477-.204-.96-.204s-.75.113-.962.204zm-7.113-21.556c.293-.27.71-.274 1.007-.034l.008.023c.082.192.258.315.45.315h.06c.194 0 .37-.123.452-.315l.01-.023c.295-.24.713-.236 1.006.034.21.194.525.164.7-.067.178-.23.15-.575-.06-.768-.62-.57-1.49-.607-2.138-.153-.648-.453-1.518-.418-2.137.152-.21.193-.237.537-.06.767.177.23.49.26.7.067zm-4.995 1.716c.293-.27.71-.273 1.007-.034l.01.023c.08.19.257.314.45.314h.06c.194 0 .37-.123.45-.315l.01-.024c.296-.24.713-.235 1.007.034.21.194.525.164.702-.067.177-.23.15-.575-.06-.768-.62-.57-1.49-.606-2.14-.152-.647-.453-1.517-.418-2.136.152-.21.194-.238.538-.06.768.176.23.49.26.7.067zm-6.088 4.464c.23.222.523.344.828.344h1.73l-.006.104c0 .342.135.67.37.896.2.193.455.3.72.3h3.64c.6 0 1.09-.537 1.09-1.195 0-.66-.49-1.194-1.09-1.194h-.106l.027-.284c0-.757-.563-1.374-1.254-1.374h-5.122c-.305 0-.6.122-.83.344-.27.26-.425.637-.425 1.03s.155.77.426 1.03zm.658-1.242c.033-.033.09-.07.17-.07h5.12c.143 0 .26.126.26.282 0 .156-.117.283-.26.283-.274 0-.497.244-.497.545 0 .3.222.545.497.545h1.334c.053 0 .095.047.095.104 0 .058-.042.105-.094.105h-3.638l-.062-.026-.032-.078.033-.078.063-.026h.002c.275 0 .498-.244.498-.545 0-.3-.223-.545-.498-.545H11.1c-.08 0-.138-.04-.17-.07-.034-.033-.09-.103-.09-.213s.056-.18.09-.212z" fill="#206FAC"/><path d="M30.985 107.702h-18.81c-.66 0-1.198-.59-1.198-1.313s.538-1.314 1.198-1.314l.164-.015c1.673-.104 3.006-1.628 3.006-3.488 0-.617-.147-1.197-.405-1.7H29.87c.275 0 .498-.245.498-.546 0-.3-.223-.545-.498-.545h-1.01c.03-.185.02-.38-.043-.572l-.654-1.96c-.057-.175-.154-.33-.282-.45L26.44 94.43l-.74-1.262c-.18-.307-.487-.496-.82-.502l-.99-.013c-.045-.265-.092-.584-.13-.885-.022-.187-.09-.365-.194-.516l-1.76-2.534c-.208-.298-.54-.46-.88-.426-.342.033-.643.255-.8.588l-1.792 3.822-.792 1.173-1.442 1.643c-.09.104-.163.226-.21.36l-.88 2.477c-.05.14-.07.283-.068.424h-.872c-.534-.442-1.2-.704-1.92-.704H6.474l-1.46-11.474c.327.176.61.433.827.76.334.505.466 1.117.372 1.725-.046.297.137.578.408.63l.084.007c.238 0 .45-.188.49-.455.14-.9-.056-1.804-.548-2.547-.304-.46-.697-.823-1.152-1.076.82-.39 1.817-.255 2.514.425.205.2.52.18.703-.044.184-.225.166-.57-.04-.77-.99-.966-2.406-1.16-3.572-.61.09-.206.21-.4.36-.577.405-.484.968-.775 1.583-.818.275-.02.483-.28.466-.58-.018-.3-.255-.527-.528-.508-.873.06-1.673.477-2.254 1.17-.17.2-.312.42-.43.65-.64-.933-1.704-1.51-2.873-1.43-.273.02-.48.278-.464.58.018.3.253.526.53.51.87-.063 1.658.393 2.088 1.113-1.22-.383-2.6.007-3.47 1.103-.18.227-.16.572.048.77.094.09.21.133.326.133.14 0 .277-.064.376-.188.61-.77 1.584-1.044 2.443-.772-.42.314-.77.73-1.017 1.23-.4.805-.49 1.73-.246 2.6.065.236.263.388.476.388l.145-.023c.263-.088.41-.392.33-.68-.163-.59-.103-1.215.17-1.763.194-.39.48-.71.83-.935l.908 11.46H1.39c-.55 0-.996.488-.996 1.09 0 .603.446 1.092.996 1.092h3.676l.222 2.798H2.192c-.275 0-.498.244-.498.545 0 .3.223.545.498.545h6.173c.275 0 .498-.244.498-.545 0-.3-.223-.545-.498-.545h-1.26l-.356-2.798h5.402c.66 0 1.198.59 1.198 1.313s-.538 1.313-1.198 1.313l-.164.015c-1.674.105-3.007 1.63-3.007 3.49 0 1.903 1.398 3.456 3.13 3.493H30.98c.55 0 .997-.487.997-1.09 0-.602-.446-1.09-.996-1.09zm-13.31-10.828l1.348-1.537.083-.108.878-1.302.085-.15 1.108-2.363.647.93c.23 1.73.46 2.047.73 2.272.214.177.476.256.74.223.12-.008.553-.007 1.02 0l.527.9c.05.088.114.167.185.235l1.352 1.286.506 1.52h-9.89l.678-1.907zm3.187 6.447c.213.092.477.205.96.205s.75-.113.962-.204c.176-.074.303-.128.6-.128s.422.054.598.13c.213.09.477.203.96.203s.75-.113.962-.204c.176-.074.303-.128.6-.128s.422.054.598.13c.213.09.477.203.96.203.276 0 .5-.244.5-.545 0-.3-.224-.545-.5-.545-.295 0-.422-.054-.598-.13-.213-.09-.477-.203-.96-.203s-.75.113-.962.204c-.176.075-.303.13-.6.13s-.422-.055-.598-.13c-.213-.09-.477-.204-.96-.204s-.75.113-.962.204c-.176.075-.303.13-.6.13s-.422-.055-.598-.13c-.213-.09-.477-.204-.96-.204s-.75.113-.962.204c-.176.075-.303.13-.6.13s-.422-.055-.598-.13c-.213-.09-.477-.204-.96-.204-.276 0-.5.244-.5.545 0 .3.224.545.5.545.295 0 .422.054.598.13.213.09.477.203.96.203s.75-.113.962-.204c.176-.074.303-.128.6-.128s.422.054.598.13zm7.603 1.48c-.176.075-.303.13-.6.13s-.422-.055-.598-.13c-.213-.09-.477-.204-.96-.204s-.75.113-.962.204c-.176.075-.303.13-.6.13s-.422-.055-.598-.13c-.212-.09-.477-.204-.96-.204s-.75.113-.962.204c-.176.075-.303.13-.6.13s-.422-.055-.598-.13c-.213-.09-.477-.204-.96-.204-.276 0-.5.244-.5.545 0 .302.224.546.5.546.295 0 .422.054.598.13.212.09.477.203.96.203s.75-.114.962-.205c.176-.075.303-.13.6-.13s.422.055.598.13c.213.09.477.204.96.204s.75-.114.962-.205c.176-.075.303-.13.6-.13s.422.055.598.13c.213.09.477.204.96.204s.75-.114.962-.205c.176-.075.303-.13.6-.13s.422.055.598.13c.213.09.477.204.96.204.276 0 .5-.245.5-.546 0-.3-.224-.545-.5-.545-.295 0-.422-.055-.598-.13-.213-.09-.477-.204-.96-.204s-.75.113-.962.204zm-7.113-21.556c.293-.27.71-.274 1.007-.034l.008.023c.082.192.258.315.45.315h.06c.194 0 .37-.123.452-.315l.01-.023c.295-.24.713-.236 1.006.034.21.194.525.164.7-.067.178-.23.15-.575-.06-.768-.62-.57-1.49-.607-2.138-.153-.648-.453-1.518-.418-2.137.152-.21.193-.237.537-.06.767.177.23.49.26.7.067zm-4.995 1.716c.293-.27.71-.273 1.007-.034l.01.023c.08.19.257.314.45.314h.06c.194 0 .37-.123.45-.315l.01-.024c.296-.24.713-.235 1.007.034.21.194.525.164.702-.067.177-.23.15-.575-.06-.768-.62-.57-1.49-.606-2.14-.152-.647-.453-1.517-.418-2.136.152-.21.194-.238.538-.06.768.176.23.49.26.7.067zm-6.088 4.464c.23.222.523.344.828.344h1.73l-.006.104c0 .342.135.67.37.896.2.193.455.3.72.3h3.64c.6 0 1.09-.537 1.09-1.195 0-.66-.49-1.194-1.09-1.194h-.106l.027-.284c0-.757-.563-1.374-1.254-1.374h-5.122c-.305 0-.6.122-.83.344-.27.26-.425.637-.425 1.03s.155.77.426 1.03zm.658-1.242c.033-.033.09-.07.17-.07h5.12c.143 0 .26.126.26.282 0 .156-.117.283-.26.283-.274 0-.497.244-.497.545 0 .3.222.545.497.545h1.334c.053 0 .095.047.095.104 0 .058-.042.105-.094.105h-3.638l-.062-.026-.032-.078.033-.078.063-.026h.002c.275 0 .498-.244.498-.545 0-.3-.223-.545-.498-.545H11.1c-.08 0-.138-.04-.17-.07-.034-.033-.09-.103-.09-.213s.056-.18.09-.212z" fill="#fff"/><path d="M30.985 67.702h-18.81c-.66 0-1.198-.59-1.198-1.313s.538-1.314 1.198-1.314l.164-.015c1.673-.104 3.006-1.628 3.006-3.488 0-.617-.147-1.197-.405-1.7H29.87c.275 0 .498-.245.498-.546 0-.3-.223-.545-.498-.545h-1.01c.03-.185.02-.38-.043-.572l-.654-1.96c-.057-.175-.154-.33-.282-.45L26.44 54.43l-.74-1.262c-.18-.307-.487-.496-.82-.502l-.99-.013c-.045-.265-.092-.584-.13-.885-.022-.187-.09-.365-.194-.516l-1.76-2.534c-.208-.298-.54-.46-.88-.426-.342.033-.643.255-.8.588l-1.792 3.822-.792 1.173-1.442 1.643c-.09.104-.163.226-.21.36l-.88 2.477c-.05.14-.07.283-.068.424h-.872c-.534-.442-1.2-.704-1.92-.704H6.474l-1.46-11.474c.327.176.61.433.827.76.334.505.466 1.117.372 1.725-.046.297.137.578.408.63l.084.007c.238 0 .45-.188.49-.455.14-.9-.056-1.804-.548-2.547-.304-.46-.697-.823-1.152-1.076.82-.39 1.817-.255 2.514.425.205.2.52.18.703-.044.184-.225.166-.57-.04-.77-.99-.966-2.406-1.16-3.572-.61.09-.206.21-.4.36-.577.405-.484.968-.775 1.583-.818.275-.02.483-.28.466-.58-.018-.3-.255-.527-.528-.508-.873.06-1.673.477-2.254 1.17-.17.2-.312.42-.43.65-.64-.933-1.704-1.51-2.873-1.43-.273.02-.48.278-.464.58.018.3.253.526.53.51.87-.063 1.658.393 2.088 1.113-1.22-.383-2.6.007-3.47 1.103-.18.227-.16.572.048.77.094.09.21.133.326.133.14 0 .277-.064.376-.188.61-.77 1.584-1.044 2.443-.772-.42.314-.77.73-1.017 1.23-.4.805-.49 1.73-.246 2.6.065.236.263.388.476.388l.145-.023c.263-.088.41-.392.33-.68-.163-.59-.103-1.215.17-1.763.194-.39.48-.71.83-.935l.908 11.46H1.39c-.55 0-.996.488-.996 1.09 0 .603.446 1.092.996 1.092h3.676l.222 2.798H2.192c-.275 0-.498.244-.498.545 0 .3.223.545.498.545h6.173c.275 0 .498-.244.498-.545 0-.3-.223-.545-.498-.545h-1.26l-.356-2.798h5.402c.66 0 1.198.59 1.198 1.313s-.538 1.313-1.198 1.313l-.164.015c-1.674.105-3.007 1.63-3.007 3.49 0 1.903 1.398 3.456 3.13 3.493H30.98c.55 0 .997-.487.997-1.09 0-.602-.446-1.09-.996-1.09zm-13.31-10.828l1.348-1.537.083-.108.878-1.302.085-.15 1.108-2.363.647.93c.23 1.73.46 2.047.73 2.272.214.177.476.256.74.223.12-.008.553-.007 1.02 0l.527.9c.05.088.114.167.185.235l1.352 1.286.506 1.52h-9.89l.678-1.907zm3.187 6.447c.213.092.477.205.96.205s.75-.113.962-.204c.176-.074.303-.128.6-.128s.422.054.598.13c.213.09.477.203.96.203s.75-.113.962-.204c.176-.074.303-.128.6-.128s.422.054.598.13c.213.09.477.203.96.203.276 0 .5-.244.5-.545 0-.3-.224-.545-.5-.545-.295 0-.422-.054-.598-.13-.213-.09-.477-.203-.96-.203s-.75.113-.962.204c-.176.075-.303.13-.6.13s-.422-.055-.598-.13c-.213-.09-.477-.204-.96-.204s-.75.113-.962.204c-.176.075-.303.13-.6.13s-.422-.055-.598-.13c-.213-.09-.477-.204-.96-.204s-.75.113-.962.204c-.176.075-.303.13-.6.13s-.422-.055-.598-.13c-.213-.09-.477-.204-.96-.204-.276 0-.5.244-.5.545 0 .3.224.545.5.545.295 0 .422.054.598.13.213.09.477.203.96.203s.75-.113.962-.204c.176-.074.303-.128.6-.128s.422.054.598.13zm7.603 1.48c-.176.075-.303.13-.6.13s-.422-.055-.598-.13c-.213-.09-.477-.204-.96-.204s-.75.113-.962.204c-.176.075-.303.13-.6.13s-.422-.055-.598-.13c-.212-.09-.477-.204-.96-.204s-.75.113-.962.204c-.176.075-.303.13-.6.13s-.422-.055-.598-.13c-.213-.09-.477-.204-.96-.204-.276 0-.5.244-.5.545 0 .302.224.546.5.546.295 0 .422.054.598.13.212.09.477.203.96.203s.75-.114.962-.205c.176-.075.303-.13.6-.13s.422.055.598.13c.213.09.477.204.96.204s.75-.114.962-.205c.176-.075.303-.13.6-.13s.422.055.598.13c.213.09.477.204.96.204s.75-.114.962-.205c.176-.075.303-.13.6-.13s.422.055.598.13c.213.09.477.204.96.204.276 0 .5-.245.5-.546 0-.3-.224-.545-.5-.545-.295 0-.422-.055-.598-.13-.213-.09-.477-.204-.96-.204s-.75.113-.962.204zm-7.113-21.556c.293-.27.71-.274 1.007-.034l.008.023c.082.192.258.315.45.315h.06c.194 0 .37-.123.452-.315l.01-.023c.295-.24.713-.236 1.006.034.21.194.525.164.7-.067.178-.23.15-.575-.06-.768-.62-.57-1.49-.607-2.138-.153-.648-.453-1.518-.418-2.137.152-.21.193-.237.537-.06.767.177.23.49.26.7.067zm-4.995 1.716c.293-.27.71-.273 1.007-.034l.01.023c.08.19.257.314.45.314h.06c.194 0 .37-.123.45-.315l.01-.024c.296-.24.713-.235 1.007.034.21.194.525.164.702-.067.177-.23.15-.575-.06-.768-.62-.57-1.49-.606-2.14-.152-.647-.453-1.517-.418-2.136.152-.21.194-.238.538-.06.768.176.23.49.26.7.067zm-6.088 4.464c.23.222.523.344.828.344h1.73l-.006.104c0 .342.135.67.37.896.2.193.455.3.72.3h3.64c.6 0 1.09-.537 1.09-1.195 0-.66-.49-1.194-1.09-1.194h-.106l.027-.284c0-.757-.563-1.374-1.254-1.374h-5.122c-.305 0-.6.122-.83.344-.27.26-.425.637-.425 1.03s.155.77.426 1.03zm.658-1.242c.033-.033.09-.07.17-.07h5.12c.143 0 .26.126.26.282 0 .156-.117.283-.26.283-.274 0-.497.244-.497.545 0 .3.222.545.497.545h1.334c.053 0 .095.047.095.104 0 .058-.042.105-.094.105h-3.638l-.062-.026-.032-.078.033-.078.063-.026h.002c.275 0 .498-.244.498-.545 0-.3-.223-.545-.498-.545H11.1c-.08 0-.138-.04-.17-.07-.034-.033-.09-.103-.09-.213s.056-.18.09-.212z" fill="#67737B"/><path d="M30.985 27.702h-18.81c-.66 0-1.198-.59-1.198-1.313s.538-1.314 1.198-1.314l.164-.015c1.673-.104 3.006-1.628 3.006-3.488 0-.617-.147-1.197-.405-1.7H29.87c.275 0 .498-.245.498-.546 0-.3-.223-.545-.498-.545h-1.01c.03-.185.02-.38-.043-.572l-.654-1.96c-.057-.175-.154-.33-.282-.45L26.44 14.43l-.74-1.262c-.18-.307-.487-.496-.82-.502l-.99-.013c-.045-.265-.092-.584-.13-.885-.022-.187-.09-.365-.194-.516l-1.76-2.534c-.208-.298-.54-.46-.88-.426-.342.033-.643.255-.8.588l-1.792 3.822-.792 1.173-1.442 1.643c-.09.104-.163.226-.21.36l-.88 2.477c-.05.14-.07.283-.068.424h-.872c-.534-.442-1.2-.704-1.92-.704H6.474L5.013 6.602c.327.176.61.433.827.76.334.505.466 1.117.372 1.725-.046.297.137.578.408.63l.084.007c.238 0 .45-.188.49-.455.14-.9-.056-1.804-.548-2.547-.304-.46-.697-.823-1.152-1.076.82-.39 1.817-.255 2.514.425.205.2.52.18.703-.044.184-.225.166-.57-.04-.77-.99-.966-2.406-1.16-3.572-.61.09-.206.21-.4.36-.577.405-.484.968-.775 1.583-.818.275-.02.483-.28.466-.58-.018-.3-.255-.527-.528-.508-.873.06-1.673.477-2.254 1.17-.17.2-.312.42-.43.65-.64-.933-1.704-1.51-2.873-1.43-.273.02-.48.278-.464.58.018.3.253.526.53.51.87-.063 1.658.393 2.088 1.113-1.22-.383-2.6.007-3.47 1.103-.18.227-.16.572.048.77.094.09.21.133.326.133.14 0 .277-.064.376-.188.61-.77 1.584-1.044 2.443-.772-.42.314-.77.73-1.017 1.23-.4.805-.49 1.73-.246 2.6.065.236.263.388.476.388l.145-.023c.263-.088.41-.392.33-.68-.163-.59-.103-1.215.17-1.763.194-.39.48-.71.83-.935l.908 11.46H1.39c-.55 0-.996.488-.996 1.09 0 .603.446 1.092.996 1.092h3.676l.222 2.798H2.192c-.275 0-.498.244-.498.545 0 .3.223.545.498.545h6.173c.275 0 .498-.244.498-.545 0-.3-.223-.545-.498-.545h-1.26l-.356-2.798h5.402c.66 0 1.198.59 1.198 1.313s-.538 1.313-1.198 1.313l-.164.015c-1.674.105-3.007 1.63-3.007 3.49 0 1.903 1.398 3.456 3.13 3.493H30.98c.55 0 .997-.487.997-1.09 0-.602-.446-1.09-.996-1.09zm-13.31-10.828l1.348-1.537.083-.108.878-1.302.085-.15 1.108-2.363.647.93c.23 1.73.46 2.047.73 2.272.214.177.476.256.74.223.12-.008.553-.007 1.02 0l.527.9c.05.088.114.167.185.235l1.352 1.286.506 1.52h-9.89l.678-1.907zm3.187 6.447c.213.092.477.205.96.205s.75-.113.962-.204c.176-.074.303-.128.6-.128s.422.054.598.13c.213.09.477.203.96.203s.75-.113.962-.204c.176-.074.303-.128.6-.128s.422.054.598.13c.213.09.477.203.96.203.276 0 .5-.244.5-.545 0-.3-.224-.545-.5-.545-.295 0-.422-.054-.598-.13-.213-.09-.477-.203-.96-.203s-.75.113-.962.204c-.176.075-.303.13-.6.13s-.422-.055-.598-.13c-.213-.09-.477-.204-.96-.204s-.75.113-.962.204c-.176.075-.303.13-.6.13s-.422-.055-.598-.13c-.213-.09-.477-.204-.96-.204s-.75.113-.962.204c-.176.075-.303.13-.6.13s-.422-.055-.598-.13c-.213-.09-.477-.204-.96-.204-.276 0-.5.244-.5.545 0 .3.224.545.5.545.295 0 .422.054.598.13.213.09.477.203.96.203s.75-.113.962-.204c.176-.074.303-.128.6-.128s.422.054.598.13zm7.603 1.48c-.176.075-.303.13-.6.13s-.422-.055-.598-.13c-.213-.09-.477-.204-.96-.204s-.75.113-.962.204c-.176.075-.303.13-.6.13s-.422-.055-.598-.13c-.212-.09-.477-.204-.96-.204s-.75.113-.962.204c-.176.075-.303.13-.6.13s-.422-.055-.598-.13c-.213-.09-.477-.204-.96-.204-.276 0-.5.244-.5.545 0 .302.224.546.5.546.295 0 .422.054.598.13.212.09.477.203.96.203s.75-.114.962-.205c.176-.075.303-.13.6-.13s.422.055.598.13c.213.09.477.204.96.204s.75-.114.962-.205c.176-.075.303-.13.6-.13s.422.055.598.13c.213.09.477.204.96.204s.75-.114.962-.205c.176-.075.303-.13.6-.13s.422.055.598.13c.213.09.477.204.96.204.276 0 .5-.245.5-.546 0-.3-.224-.545-.5-.545-.295 0-.422-.055-.598-.13-.213-.09-.477-.204-.96-.204s-.75.113-.962.204zM21.352 3.244c.293-.27.71-.274 1.007-.034l.008.023c.082.192.258.315.45.315h.06c.194 0 .37-.123.452-.315l.01-.023c.295-.24.713-.236 1.006.034.21.194.525.164.7-.067.178-.23.15-.575-.06-.768-.62-.57-1.49-.607-2.138-.153-.648-.453-1.518-.418-2.137.152-.21.193-.237.537-.06.767.177.23.49.26.7.067zM16.357 4.96c.293-.27.71-.273 1.007-.034l.01.023c.08.19.257.314.45.314h.06c.194 0 .37-.123.45-.315l.01-.024c.296-.24.713-.235 1.007.034.21.194.525.164.702-.067.177-.23.15-.575-.06-.768-.62-.57-1.49-.606-2.14-.152-.647-.453-1.517-.418-2.136.152-.21.194-.238.538-.06.768.176.23.49.26.7.067zM10.27 9.424c.23.222.523.344.828.344h1.73l-.006.104c0 .342.135.67.37.896.2.193.455.3.72.3h3.64c.6 0 1.09-.537 1.09-1.195 0-.66-.49-1.194-1.09-1.194h-.106l.027-.284c0-.757-.563-1.374-1.254-1.374h-5.122c-.305 0-.6.122-.83.344-.27.26-.425.637-.425 1.03s.155.77.426 1.03zm.658-1.242c.033-.033.09-.07.17-.07h5.12c.143 0 .26.126.26.282 0 .156-.117.283-.26.283-.274 0-.497.244-.497.545 0 .3.222.545.497.545h1.334c.053 0 .095.047.095.104 0 .058-.042.105-.094.105h-3.638l-.062-.026-.032-.078.033-.078.063-.026h.002c.275 0 .498-.244.498-.545 0-.3-.223-.545-.498-.545H11.1c-.08 0-.138-.04-.17-.07-.034-.033-.09-.103-.09-.213s.056-.18.09-.212z" fill="#3A434E"/></g></svg>