<svg width="32" height="232" viewBox="0 0 32 232" xmlns="http://www.w3.org/2000/svg" xmlns:sketch="http://www.bohemiancoding.com/sketch/ns"><title>tazmania</title><desc>Created with Sketch.</desc><g sketch:type="MSPage" fill="none"><g sketch:type="MSShapeGroup"><path d="M30.982 147.949h-19.059c-.67 0-1.214-.592-1.214-1.319s.545-1.319 1.214-1.319l.166-.015c1.696-.105 3.046-1.637 3.046-3.505 0-.685-.182-1.325-.497-1.866h15.211c.279 0 .504-.245.504-.548 0-.303-.226-.548-.504-.548h-1.671c.049-.288-.007-.597-.18-.852l-1.344-1.97c-.106-.156-.249-.279-.413-.355l-3.059-1.423-1.575-1.317c-.174-.146-.387-.225-.607-.227-.734-.007-3.158-.027-3.535.003-.143.011-.54.042-1.442.705l-1.812-.652c-.102-.037-.21-.056-.317-.056h-3.442l-.254.035-2.932.828-.207.086-3.054 1.702c-.129.072-.242.173-.332.296l-1.807 2.488-.095.159h-.774c-.557 0-1.009.491-1.009 1.096 0 .605.452 1.096 1.009 1.096h10.905c.67 0 1.215.592 1.215 1.319s-.545 1.319-1.215 1.319l-.166.015c-1.696.105-3.046 1.637-3.046 3.505 0 1.913 1.416 3.473 3.169 3.51l.035.001h19.087c.557 0 1.009-.49 1.009-1.096 0-.605-.452-1.096-1.009-1.096zm-25.86-10.771l2.76-1.538 2.699-.762h3.151l2.145.772c.314.113.66.051.924-.165.312-.255.709-.529.882-.613.364-.011 1.685-.008 2.963.003l1.408 1.177.218.139 2.925 1.36.872 1.279h-12.435c-.501-.347-1.096-.548-1.734-.548h-7.579l.801-1.103zm15.602 6.37c.215.091.484.205.974.205s.758-.114.974-.205c.178-.075.307-.13.607-.13s.429.055.607.13c.215.091.484.205.974.205s.758-.114.974-.205c.178-.075.307-.13.607-.13s.429.055.607.13c.215.091.484.205.974.205.279 0 .504-.245.504-.548 0-.303-.226-.548-.504-.548-.3 0-.429-.055-.607-.13-.215-.091-.484-.205-.974-.205s-.758.114-.974.205c-.178.075-.307.13-.607.13s-.429-.055-.607-.13c-.215-.091-.484-.205-.974-.205s-.758.114-.974.205c-.178.075-.307.13-.607.13s-.429-.055-.607-.13c-.215-.091-.484-.205-.974-.205s-.758.114-.974.205c-.178.075-.307.13-.607.13s-.429-.055-.607-.13c-.215-.091-.484-.205-.974-.205-.279 0-.504.245-.504.548 0 .303.226.548.504.548.3 0 .429.055.607.13.215.091.484.205.974.205s.758-.114.974-.205c.178-.075.307-.13.607-.13s.429.055.607.13zm7.703 1.486c-.178.075-.307.13-.607.13s-.429-.055-.607-.13c-.215-.091-.484-.205-.974-.205s-.758.114-.974.205c-.178.075-.307.13-.607.13s-.429-.055-.607-.13c-.215-.091-.484-.205-.974-.205s-.758.114-.974.205c-.178.075-.307.13-.607.13s-.429-.055-.607-.13c-.215-.091-.484-.205-.974-.205-.279 0-.504.245-.504.548 0 .303.226.548.504.548.3 0 .429.055.607.13.215.092.484.205.974.205s.758-.114.974-.205c.178-.075.307-.13.607-.13s.429.055.607.13c.215.092.484.205.974.205s.758-.114.974-.205c.178-.075.307-.13.607-.13s.429.055.607.13c.215.092.484.205.974.205s.758-.114.974-.205c.178-.075.307-.13.607-.13s.429.055.607.13c.215.092.484.205.974.205.279 0 .504-.245.504-.548 0-.303-.226-.548-.504-.548-.3 0-.429-.055-.607-.13-.215-.091-.484-.205-.974-.205s-.759.114-.974.205zm-16.747-13.524c.099.148.253.226.409.226.103 0 .206-.034.296-.105l1.538-1.213c.225-.178.276-.52.112-.765-.164-.245-.479-.299-.705-.122l-1.538 1.213c-.225.178-.275.52-.112.765zm-5.515-.95c.099.148.253.226.409.226.103 0 .206-.034.296-.105.225-.178.276-.52.112-.765l-1.117-1.67c-.164-.245-.479-.299-.704-.122-.225.178-.276.52-.112.765l1.117 1.67zm-3.256 2.671l2.006.346.08.007c.244 0 .458-.192.498-.462.044-.299-.144-.58-.419-.627l-2.006-.346c-.274-.047-.533.157-.577.455-.044.299.144.58.419.627zm6.524-3.218l.08.007c.244 0 .458-.192.498-.462l.318-2.178c.044-.299-.144-.58-.419-.627-.275-.047-.533.156-.577.455l-.318 2.178c-.044.299.144.58.419.627zm1.276.516c.083.056.175.082.265.082.169 0 .334-.092.429-.259l.679-1.189c.147-.257.074-.595-.163-.754-.237-.159-.548-.08-.695.177l-.679 1.189c-.147.257-.074.595.163.754zm-6.532.646l1.095.738c.083.056.175.082.265.082.169 0 .334-.092.429-.259.147-.257.074-.595-.163-.754l-1.095-.738c-.237-.159-.548-.08-.695.177-.147.257-.074.595.163.754zm3.324-1.518c.054.253.262.423.491.423l.116-.015c.271-.069.44-.364.376-.658l-.294-1.362c-.064-.295-.335-.478-.606-.408-.271.069-.44.364-.376.658l.294 1.362zm13.717-6.279c.297-.271.72-.275 1.02-.035l.01.024c.083.193.261.316.457.316h.061c.196 0 .374-.123.457-.316l.009-.024c.299-.24.723-.236 1.02.035.213.195.531.164.711-.067.179-.232.151-.577-.062-.772-.628-.573-1.508-.609-2.166-.153-.657-.456-1.538-.42-2.166.153-.213.194-.241.54-.062.772.179.232.497.262.711.067zm-5.061 1.723c.297-.271.721-.275 1.02-.035l.009.024c.083.193.261.316.457.316h.061c.196 0 .374-.123.457-.316l.009-.024c.299-.24.723-.236 1.02.035.213.195.532.164.711-.067.179-.232.151-.577-.062-.772-.628-.572-1.509-.609-2.166-.153-.657-.456-1.538-.419-2.166.153-.213.195-.241.54-.062.772.179.232.497.262.711.067zm3.577 2.07c-.309 0-.607.123-.839.345-.274.262-.431.639-.431 1.035 0 .395.157.772.431 1.035.233.223.531.345.839.345h1.752l-.005.104c0 .344.137.672.375.9.202.193.461.3.73.3h3.687c.609 0 1.105-.538 1.105-1.2 0-.662-.496-1.2-1.105-1.2h-.106l.027-.284c0-.761-.57-1.38-1.271-1.38h-5.189zm5.189 1.665c-.279 0-.504.245-.504.548h-.002c0 .303.226.548.504.548h1.352c.053 0 .096.047.096.104 0 .057-.043.104-.096.104h-3.687l-.063-.027-.033-.077.033-.078.062-.026h.002c.279 0 .504-.245.504-.548 0-.303-.226-.548-.504-.548h-2.854c-.081 0-.138-.039-.172-.072-.033-.032-.09-.102-.09-.213s.056-.181.089-.213c.034-.033.092-.072.172-.072h5.189c.144 0 .262.128.262.285 0 .157-.117.284-.262.284z" fill="#206FAC"/><path d="M30.982 107.949h-19.059c-.67 0-1.214-.592-1.214-1.319s.545-1.319 1.214-1.319l.166-.015c1.696-.105 3.046-1.637 3.046-3.505 0-.685-.182-1.325-.497-1.866h15.211c.279 0 .504-.245.504-.548 0-.303-.226-.548-.504-.548h-1.671c.049-.288-.007-.597-.18-.852l-1.344-1.97c-.106-.156-.249-.279-.413-.355l-3.059-1.423-1.575-1.317c-.174-.146-.387-.225-.607-.227-.734-.007-3.158-.027-3.535.003-.143.011-.54.042-1.442.705l-1.812-.652c-.102-.037-.21-.056-.317-.056h-3.442l-.254.035-2.932.828-.207.086-3.054 1.702c-.129.072-.242.173-.332.296l-1.807 2.488-.095.159h-.774c-.557 0-1.009.491-1.009 1.096 0 .605.452 1.096 1.009 1.096h10.905c.67 0 1.215.592 1.215 1.319s-.545 1.319-1.215 1.319l-.166.015c-1.696.105-3.046 1.637-3.046 3.505 0 1.913 1.416 3.473 3.169 3.51l.035.001h19.087c.557 0 1.009-.49 1.009-1.096 0-.605-.452-1.096-1.009-1.096zm-25.86-10.771l2.76-1.538 2.699-.762h3.151l2.145.772c.314.113.66.051.924-.165.312-.255.709-.529.882-.613.364-.011 1.685-.008 2.963.003l1.408 1.177.218.139 2.925 1.36.872 1.279h-12.435c-.501-.347-1.096-.548-1.734-.548h-7.579l.801-1.103zm15.602 6.37c.215.091.484.205.974.205s.758-.114.974-.205c.178-.075.307-.13.607-.13s.429.055.607.13c.215.091.484.205.974.205s.758-.114.974-.205c.178-.075.307-.13.607-.13s.429.055.607.13c.215.091.484.205.974.205.279 0 .504-.245.504-.548 0-.303-.226-.548-.504-.548-.3 0-.429-.055-.607-.13-.215-.091-.484-.205-.974-.205s-.758.114-.974.205c-.178.075-.307.13-.607.13s-.429-.055-.607-.13c-.215-.091-.484-.205-.974-.205s-.758.114-.974.205c-.178.075-.307.13-.607.13s-.429-.055-.607-.13c-.215-.091-.484-.205-.974-.205s-.758.114-.974.205c-.178.075-.307.13-.607.13s-.429-.055-.607-.13c-.215-.091-.484-.205-.974-.205-.279 0-.504.245-.504.548 0 .303.226.548.504.548.3 0 .429.055.607.13.215.091.484.205.974.205s.758-.114.974-.205c.178-.075.307-.13.607-.13s.429.055.607.13zm7.703 1.486c-.178.075-.307.13-.607.13s-.429-.055-.607-.13c-.215-.091-.484-.205-.974-.205s-.758.114-.974.205c-.178.075-.307.13-.607.13s-.429-.055-.607-.13c-.215-.091-.484-.205-.974-.205s-.758.114-.974.205c-.178.075-.307.13-.607.13s-.429-.055-.607-.13c-.215-.091-.484-.205-.974-.205-.279 0-.504.245-.504.548 0 .303.226.548.504.548.3 0 .429.055.607.13.215.092.484.205.974.205s.758-.114.974-.205c.178-.075.307-.13.607-.13s.429.055.607.13c.215.092.484.205.974.205s.758-.114.974-.205c.178-.075.307-.13.607-.13s.429.055.607.13c.215.092.484.205.974.205s.758-.114.974-.205c.178-.075.307-.13.607-.13s.429.055.607.13c.215.092.484.205.974.205.279 0 .504-.245.504-.548 0-.303-.226-.548-.504-.548-.3 0-.429-.055-.607-.13-.215-.091-.484-.205-.974-.205s-.759.114-.974.205zm-16.747-13.524c.099.148.253.226.409.226.103 0 .206-.034.296-.105l1.538-1.213c.225-.178.276-.52.112-.765-.164-.245-.479-.299-.705-.122l-1.538 1.213c-.225.178-.275.52-.112.765zm-5.515-.95c.099.148.253.226.409.226.103 0 .206-.034.296-.105.225-.178.276-.52.112-.765l-1.117-1.67c-.164-.245-.479-.299-.704-.122-.225.178-.276.52-.112.765l1.117 1.67zm-3.256 2.671l2.006.346.08.007c.244 0 .458-.192.498-.462.044-.299-.144-.58-.419-.627l-2.006-.346c-.274-.047-.533.157-.577.455-.044.299.144.58.419.627zm6.524-3.218l.08.007c.244 0 .458-.192.498-.462l.318-2.178c.044-.299-.144-.58-.419-.627-.275-.047-.533.156-.577.455l-.318 2.178c-.044.299.144.58.419.627zm1.276.516c.083.056.175.082.265.082.169 0 .334-.092.429-.259l.679-1.189c.147-.257.074-.595-.163-.754-.237-.159-.548-.08-.695.177l-.679 1.189c-.147.257-.074.595.163.754zm-6.532.646l1.095.738c.083.056.175.082.265.082.169 0 .334-.092.429-.259.147-.257.074-.595-.163-.754l-1.095-.738c-.237-.159-.548-.08-.695.177-.147.257-.074.595.163.754zm3.324-1.518c.054.253.262.423.491.423l.116-.015c.271-.069.44-.364.376-.658l-.294-1.362c-.064-.295-.335-.478-.606-.408-.271.069-.44.364-.376.658l.294 1.362zm13.717-6.279c.297-.271.72-.275 1.02-.035l.01.024c.083.193.261.316.457.316h.061c.196 0 .374-.123.457-.316l.009-.024c.299-.24.723-.236 1.02.035.213.195.531.164.711-.067.179-.232.151-.577-.062-.772-.628-.573-1.508-.609-2.166-.153-.657-.456-1.538-.42-2.166.153-.213.194-.241.54-.062.772.179.232.497.262.711.067zm-5.061 1.723c.297-.271.721-.275 1.02-.035l.009.024c.083.193.261.316.457.316h.061c.196 0 .374-.123.457-.316l.009-.024c.299-.24.723-.236 1.02.035.213.195.532.164.711-.067.179-.232.151-.577-.062-.772-.628-.572-1.509-.609-2.166-.153-.657-.456-1.538-.419-2.166.153-.213.195-.241.54-.062.772.179.232.497.262.711.067zm3.577 2.07c-.309 0-.607.123-.839.345-.274.262-.431.639-.431 1.035 0 .395.157.772.431 1.035.233.223.531.345.839.345h1.752l-.005.104c0 .344.137.672.375.9.202.193.461.3.73.3h3.687c.609 0 1.105-.538 1.105-1.2 0-.662-.496-1.2-1.105-1.2h-.106l.027-.284c0-.761-.57-1.38-1.271-1.38h-5.189zm5.189 1.665c-.279 0-.504.245-.504.548h-.002c0 .303.226.548.504.548h1.352c.053 0 .096.047.096.104 0 .057-.043.104-.096.104h-3.687l-.063-.027-.033-.077.033-.078.062-.026h.002c.279 0 .504-.245.504-.548 0-.303-.226-.548-.504-.548h-2.854c-.081 0-.138-.039-.172-.072-.033-.032-.09-.102-.09-.213s.056-.181.089-.213c.034-.033.092-.072.172-.072h5.189c.144 0 .262.128.262.285 0 .157-.117.284-.262.284z" fill="#fff"/><path d="M30.982 67.949h-19.059c-.67 0-1.214-.592-1.214-1.319s.545-1.319 1.214-1.319l.166-.015c1.696-.105 3.046-1.637 3.046-3.505 0-.685-.182-1.325-.497-1.866h15.211c.279 0 .504-.245.504-.548 0-.303-.226-.548-.504-.548h-1.671c.049-.288-.007-.597-.18-.852l-1.344-1.97c-.106-.156-.249-.279-.413-.355l-3.059-1.423-1.575-1.317c-.174-.146-.387-.225-.607-.227-.734-.007-3.158-.027-3.535.003-.143.011-.54.042-1.442.705l-1.812-.652c-.102-.037-.21-.056-.317-.056h-3.442l-.254.035-2.932.828-.207.086-3.054 1.702c-.129.072-.242.173-.332.296l-1.807 2.488-.095.159h-.774c-.557 0-1.009.491-1.009 1.096 0 .605.452 1.096 1.009 1.096h10.905c.67 0 1.215.592 1.215 1.319s-.545 1.319-1.215 1.319l-.166.015c-1.696.105-3.046 1.637-3.046 3.505 0 1.913 1.416 3.473 3.169 3.51l.035.001h19.087c.557 0 1.009-.49 1.009-1.096 0-.605-.452-1.096-1.009-1.096zm-25.86-10.771l2.76-1.538 2.699-.762h3.151l2.145.772c.314.113.66.051.924-.165.312-.255.709-.529.882-.613.364-.011 1.685-.008 2.963.003l1.408 1.177.218.139 2.925 1.36.872 1.279h-12.435c-.501-.347-1.096-.548-1.734-.548h-7.579l.801-1.103zm15.602 6.37c.215.091.484.205.974.205s.758-.114.974-.205c.178-.075.307-.13.607-.13s.429.055.607.13c.215.091.484.205.974.205s.758-.114.974-.205c.178-.075.307-.13.607-.13s.429.055.607.13c.215.091.484.205.974.205.279 0 .504-.245.504-.548 0-.303-.226-.548-.504-.548-.3 0-.429-.055-.607-.13-.215-.091-.484-.205-.974-.205s-.758.114-.974.205c-.178.075-.307.13-.607.13s-.429-.055-.607-.13c-.215-.091-.484-.205-.974-.205s-.758.114-.974.205c-.178.075-.307.13-.607.13s-.429-.055-.607-.13c-.215-.091-.484-.205-.974-.205s-.758.114-.974.205c-.178.075-.307.13-.607.13s-.429-.055-.607-.13c-.215-.091-.484-.205-.974-.205-.279 0-.504.245-.504.548 0 .303.226.548.504.548.3 0 .429.055.607.13.215.091.484.205.974.205s.758-.114.974-.205c.178-.075.307-.13.607-.13s.429.055.607.13zm7.703 1.486c-.178.075-.307.13-.607.13s-.429-.055-.607-.13c-.215-.091-.484-.205-.974-.205s-.758.114-.974.205c-.178.075-.307.13-.607.13s-.429-.055-.607-.13c-.215-.091-.484-.205-.974-.205s-.758.114-.974.205c-.178.075-.307.13-.607.13s-.429-.055-.607-.13c-.215-.091-.484-.205-.974-.205-.279 0-.504.245-.504.548 0 .303.226.548.504.548.3 0 .429.055.607.13.215.092.484.205.974.205s.758-.114.974-.205c.178-.075.307-.13.607-.13s.429.055.607.13c.215.092.484.205.974.205s.758-.114.974-.205c.178-.075.307-.13.607-.13s.429.055.607.13c.215.092.484.205.974.205s.758-.114.974-.205c.178-.075.307-.13.607-.13s.429.055.607.13c.215.092.484.205.974.205.279 0 .504-.245.504-.548 0-.303-.226-.548-.504-.548-.3 0-.429-.055-.607-.13-.215-.091-.484-.205-.974-.205s-.759.114-.974.205zm-16.747-13.524c.099.148.253.226.409.226.103 0 .206-.034.296-.105l1.538-1.213c.225-.178.276-.52.112-.765-.164-.245-.479-.299-.705-.122l-1.538 1.213c-.225.178-.275.52-.112.765zm-5.515-.95c.099.148.253.226.409.226.103 0 .206-.034.296-.105.225-.178.276-.52.112-.765l-1.117-1.67c-.164-.245-.479-.299-.704-.122-.225.178-.276.52-.112.765l1.117 1.67zm-3.256 2.671l2.006.346.08.007c.244 0 .458-.192.498-.462.044-.299-.144-.58-.419-.627l-2.006-.346c-.274-.047-.533.157-.577.455-.044.299.144.58.419.627zm6.524-3.218l.08.007c.244 0 .458-.192.498-.462l.318-2.178c.044-.299-.144-.58-.419-.627-.275-.047-.533.156-.577.455l-.318 2.178c-.044.299.144.58.419.627zm1.276.516c.083.056.175.082.265.082.169 0 .334-.092.429-.259l.679-1.189c.147-.257.074-.595-.163-.754-.237-.159-.548-.08-.695.177l-.679 1.189c-.147.257-.074.595.163.754zm-6.532.646l1.095.738c.083.056.175.082.265.082.169 0 .334-.092.429-.259.147-.257.074-.595-.163-.754l-1.095-.738c-.237-.159-.548-.08-.695.177-.147.257-.074.595.163.754zm3.324-1.518c.054.253.262.423.491.423l.116-.015c.271-.069.44-.364.376-.658l-.294-1.362c-.064-.295-.335-.478-.606-.408-.271.069-.44.364-.376.658l.294 1.362zm13.717-6.279c.297-.271.72-.275 1.02-.035l.01.024c.083.193.261.316.457.316h.061c.196 0 .374-.123.457-.316l.009-.024c.299-.24.723-.236 1.02.035.213.195.531.164.711-.067.179-.232.151-.577-.062-.772-.628-.573-1.508-.609-2.166-.153-.657-.456-1.538-.42-2.166.153-.213.194-.241.54-.062.772.179.232.497.262.711.067zm-5.061 1.723c.297-.271.721-.275 1.02-.035l.009.024c.083.193.261.316.457.316h.061c.196 0 .374-.123.457-.316l.009-.024c.299-.24.723-.236 1.02.035.213.195.532.164.711-.067.179-.232.151-.577-.062-.772-.628-.572-1.509-.609-2.166-.153-.657-.456-1.538-.419-2.166.153-.213.195-.241.54-.062.772.179.232.497.262.711.067zm3.577 2.07c-.309 0-.607.123-.839.345-.274.262-.431.639-.431 1.035 0 .395.157.772.431 1.035.233.223.531.345.839.345h1.752l-.005.104c0 .344.137.672.375.9.202.193.461.3.73.3h3.687c.609 0 1.105-.538 1.105-1.2 0-.662-.496-1.2-1.105-1.2h-.106l.027-.284c0-.761-.57-1.38-1.271-1.38h-5.189zm5.189 1.665c-.279 0-.504.245-.504.548h-.002c0 .303.226.548.504.548h1.352c.053 0 .096.047.096.104 0 .057-.043.104-.096.104h-3.687l-.063-.027-.033-.077.033-.078.062-.026h.002c.279 0 .504-.245.504-.548 0-.303-.226-.548-.504-.548h-2.854c-.081 0-.138-.039-.172-.072-.033-.032-.09-.102-.09-.213s.056-.181.089-.213c.034-.033.092-.072.172-.072h5.189c.144 0 .262.128.262.285 0 .157-.117.284-.262.284z" fill="#67737B"/><path d="M30.982 27.949h-19.059c-.67 0-1.214-.592-1.214-1.319s.545-1.319 1.214-1.319l.166-.015c1.696-.105 3.046-1.637 3.046-3.505 0-.685-.182-1.325-.497-1.866h15.211c.279 0 .504-.245.504-.548 0-.303-.226-.548-.504-.548h-1.671c.049-.288-.007-.597-.18-.852l-1.344-1.97c-.106-.156-.249-.279-.413-.355l-3.059-1.423-1.575-1.317c-.174-.146-.387-.225-.607-.227-.734-.007-3.158-.027-3.535.003-.143.011-.54.042-1.442.705l-1.812-.652c-.102-.037-.21-.056-.317-.056h-3.442l-.254.035-2.932.828-.207.086-3.054 1.702c-.129.072-.242.173-.332.296l-1.807 2.488-.095.159h-.774c-.557 0-1.009.491-1.009 1.096 0 .605.452 1.096 1.009 1.096h10.905c.67 0 1.215.592 1.215 1.319s-.545 1.319-1.215 1.319l-.166.015c-1.696.105-3.046 1.637-3.046 3.505 0 1.913 1.416 3.473 3.169 3.51l.035.001h19.087c.557 0 1.009-.49 1.009-1.096 0-.605-.452-1.096-1.009-1.096zm-25.86-10.771l2.76-1.538 2.699-.762h3.151l2.145.772c.314.113.66.051.924-.165.312-.255.709-.529.882-.613.364-.011 1.685-.008 2.963.003l1.408 1.177.218.139 2.925 1.36.872 1.279h-12.435c-.501-.347-1.096-.548-1.734-.548h-7.579l.801-1.103zm15.602 6.37c.215.091.484.205.974.205s.758-.114.974-.205c.178-.075.307-.13.607-.13s.429.055.607.13c.215.091.484.205.974.205s.758-.114.974-.205c.178-.075.307-.13.607-.13s.429.055.607.13c.215.091.484.205.974.205.279 0 .504-.245.504-.548 0-.303-.226-.548-.504-.548-.3 0-.429-.055-.607-.13-.215-.091-.484-.205-.974-.205s-.758.114-.974.205c-.178.075-.307.13-.607.13s-.429-.055-.607-.13c-.215-.091-.484-.205-.974-.205s-.758.114-.974.205c-.178.075-.307.13-.607.13s-.429-.055-.607-.13c-.215-.091-.484-.205-.974-.205s-.758.114-.974.205c-.178.075-.307.13-.607.13s-.429-.055-.607-.13c-.215-.091-.484-.205-.974-.205-.279 0-.504.245-.504.548 0 .303.226.548.504.548.3 0 .429.055.607.13.215.091.484.205.974.205s.758-.114.974-.205c.178-.075.307-.13.607-.13s.429.055.607.13zm7.703 1.486c-.178.075-.307.13-.607.13s-.429-.055-.607-.13c-.215-.091-.484-.205-.974-.205s-.758.114-.974.205c-.178.075-.307.13-.607.13s-.429-.055-.607-.13c-.215-.091-.484-.205-.974-.205s-.758.114-.974.205c-.178.075-.307.13-.607.13s-.429-.055-.607-.13c-.215-.091-.484-.205-.974-.205-.279 0-.504.245-.504.548 0 .303.226.548.504.548.3 0 .429.055.607.13.215.092.484.205.974.205s.758-.114.974-.205c.178-.075.307-.13.607-.13s.429.055.607.13c.215.092.484.205.974.205s.758-.114.974-.205c.178-.075.307-.13.607-.13s.429.055.607.13c.215.092.484.205.974.205s.758-.114.974-.205c.178-.075.307-.13.607-.13s.429.055.607.13c.215.092.484.205.974.205.279 0 .504-.245.504-.548 0-.303-.226-.548-.504-.548-.3 0-.429-.055-.607-.13-.215-.091-.484-.205-.974-.205s-.759.114-.974.205zm-16.747-13.524c.099.148.253.226.409.226.103 0 .206-.034.296-.105l1.538-1.213c.225-.178.276-.52.112-.765-.164-.245-.479-.299-.705-.122l-1.538 1.213c-.225.178-.275.52-.112.765zm-5.515-.95c.099.148.253.226.409.226.103 0 .206-.034.296-.105.225-.178.276-.52.112-.765l-1.117-1.67c-.164-.245-.479-.299-.704-.122-.225.178-.276.52-.112.765l1.117 1.67zm-3.256 2.671l2.006.346.08.007c.244 0 .458-.192.498-.462.044-.299-.144-.58-.419-.627l-2.006-.346c-.274-.047-.533.157-.577.455-.044.299.144.58.419.627zm6.524-3.218l.08.007c.244 0 .458-.192.498-.462l.318-2.178c.044-.299-.144-.58-.419-.627-.275-.047-.533.156-.577.455l-.318 2.178c-.044.299.144.58.419.627zm1.276.516c.083.056.175.082.265.082.169 0 .334-.092.429-.259l.679-1.189c.147-.257.074-.595-.163-.754-.237-.159-.548-.08-.695.177l-.679 1.189c-.147.257-.074.595.163.754zm-6.532.646l1.095.738c.083.056.175.082.265.082.169 0 .334-.092.429-.259.147-.257.074-.595-.163-.754l-1.095-.738c-.237-.159-.548-.08-.695.177-.147.257-.074.595.163.754zm3.324-1.518c.054.253.262.423.491.423l.116-.015c.271-.069.44-.364.376-.658l-.294-1.362c-.064-.295-.335-.478-.606-.408-.271.069-.44.364-.376.658l.294 1.362zm13.717-6.279c.297-.271.72-.275 1.02-.035l.01.024c.083.193.261.316.457.316h.061c.196 0 .374-.123.457-.316l.009-.024c.299-.24.723-.236 1.02.035.213.195.531.164.711-.067.179-.232.151-.577-.062-.772-.628-.573-1.508-.609-2.166-.153-.657-.456-1.538-.42-2.166.153-.213.194-.241.54-.062.772.179.232.497.262.711.067zm-5.061 1.723c.297-.271.721-.275 1.02-.035l.009.024c.083.193.261.316.457.316h.061c.196 0 .374-.123.457-.316l.009-.024c.299-.24.723-.236 1.02.035.213.195.532.164.711-.067.179-.232.151-.577-.062-.772-.628-.572-1.509-.609-2.166-.153-.657-.456-1.538-.419-2.166.153-.213.195-.241.54-.062.772.179.232.497.262.711.067zm3.577 2.07c-.309 0-.607.123-.839.345-.274.262-.431.639-.431 1.035 0 .395.157.772.431 1.035.233.223.531.345.839.345h1.752l-.005.104c0 .344.137.672.375.9.202.193.461.3.73.3h3.687c.609 0 1.105-.538 1.105-1.2 0-.662-.496-1.2-1.105-1.2h-.106l.027-.284c0-.761-.57-1.38-1.271-1.38h-5.189zm5.189 1.665c-.279 0-.504.245-.504.548h-.002c0 .303.226.548.504.548h1.352c.053 0 .096.047.096.104 0 .057-.043.104-.096.104h-3.687l-.063-.027-.033-.077.033-.078.062-.026h.002c.279 0 .504-.245.504-.548 0-.303-.226-.548-.504-.548h-2.854c-.081 0-.138-.039-.172-.072-.033-.032-.09-.102-.09-.213s.056-.181.089-.213c.034-.033.092-.072.172-.072h5.189c.144 0 .262.128.262.285 0 .157-.117.284-.262.284z" fill="#3A434E"/></g></g></svg>