<svg width="32" height="232" viewBox="0 0 32 232" xmlns="http://www.w3.org/2000/svg" xmlns:sketch="http://www.bohemiancoding.com/sketch/ns"><title>bangkok</title><desc>Created with Sketch.</desc><g sketch:type="MSPage" fill="none"><g sketch:type="MSShapeGroup"><path d="M31.046 148.208h-1.18l-1.076-1.445c-.088-.118-.224-.187-.368-.187h-.041l-1.247-3.902c-.051-.16-.178-.276-.33-.315l-.364-3.774c-.011-.114-.06-.214-.133-.29v-1.686h1.961c.257 0 .465-.215.465-.481s-.208-.482-.465-.482h-2.088c-.1-.205-.254-.375-.443-.493v-.132c.169-.115.273-.31.273-.522 0-.229-.121-.439-.314-.549l-.021-.012-.012-.022c-.106-.201-.309-.326-.53-.326-.221 0-.423.124-.53.325l-.012.022-.021.013c-.194.109-.315.32-.315.549 0 .212.105.407.274.522v.132c-.326.203-.55.564-.569.985l-.001.022v1.623h-1.921c-.257 0-.465.216-.465.482v.549h-.557v-1.798c0-.266-.208-.481-.465-.481h-1.643l-.54-5.6c-.04-.411-.324-.738-.694-.836v-3.344c-.032-.713-.472-1.306-1.081-1.547v-.643l.008-.014.149-.085c.194-.109.315-.32.315-.549 0-.229-.121-.439-.315-.549l-.149-.085-.082-.155c-.106-.201-.31-.325-.53-.325-.221 0-.425.125-.53.326l-.082.154-.149.085c-.194.11-.315.32-.315.549 0 .228.121.439.315.549l.149.085.008.014v.644c-.608.241-1.048.835-1.081 1.547v3.344c-.37.098-.655.426-.694.836l-.599 6.212h-1.249c-.257 0-.465.215-.465.481v1.314h-.837v-.677c0-.266-.208-.482-.465-.482h-1.976v-1.645c-.019-.421-.243-.782-.569-.985v-.132c.169-.115.273-.31.273-.522 0-.229-.121-.439-.314-.549l-.021-.012-.012-.023c-.106-.201-.309-.325-.53-.325-.221 0-.424.124-.53.325l-.012.023-.021.012c-.194.109-.314.32-.314.549 0 .212.104.407.274.522v.132c-.189.118-.343.288-.443.493h-2.359c-.257 0-.465.216-.465.482s.208.481.465.481h2.232v1.686c-.073.076-.122.176-.133.29l-.364 3.774c-.153.039-.279.155-.33.315l-1.246 3.902h-.041c-.144 0-.28.069-.368.187l-1.076 1.445h-1.18c-.513 0-.93.431-.93.963s.417.963.93.963h30.116c.514 0 .93-.431.93-.963s-.416-.963-.93-.963zm-19.47 0l-1.034-1.388.241-.324h10.409l.242.324-1.034 1.388h-8.824zm-5.156-9.094h.847l.312 3.229h-1.47l.312-3.229zm.18-2.504v-.434c.01-.131.116-.232.244-.232.129 0 .234.101.244.232v1.921h-.488v-1.487zm8.633-9.819c.012-.204.099-.386.232-.518.137-.135.321-.218.524-.218s.387.083.523.218c.133.132.22.314.232.518v3.278h-1.511v-3.278zm9.585 21.418h-3.243l.447-.6.052-.07h6.12l.499.669h-3.875zm2.404-2.196l.169.529h-4.514l.169-.529.022.002h4.133l.022-.002zm-.307-.961h-3.563l.126-.395h3.31l.127.395zm-3.129-1.358l.123-.387h2.448l.123.387h-2.694zm.924-4.579h.847l.312 3.229h-1.47l.312-3.229zm.668-1.017h-.488v-1.921c.01-.131.116-.232.243-.232.128 0 .234.101.244.232v1.921zm-11.041 1.114h3.302l.525 1.713h-1.148l-.059-.037-.798-.416c-.138-.072-.301-.068-.436.009l-.721.416-.042.028h-1.15l.526-1.713zm-.162 5.359v-2.157h.588v2.639h-.588v-.481zm1.519-2.639v-.333l.267-.154.321.167v3.439h-.588v-3.12zm2.108.918v2.203h-.589v-2.639h.589v.436zm.93.009h.311l.819 1.713h-1.13v-1.713zm-5.797 0h.312v1.713h-1.13l.818-1.713zm-7.315.449h2.448l.123.387h-2.695l.123-.387zm2.879 1.35l.127.395h-3.563l.127-.395h3.31zm.296 1.358h.041l.095-.01.171.537h-4.514l.168-.527h4.039zm-5.01 1.525h6.12l.052.07.447.6h-7.118l.499-.669zm16.302-10.04v1.798c0 .266.208.481.465.481h1.488c.257 0 .465-.216.465-.481v-.55h1.307l-.348 3.611c-.153.039-.279.155-.33.315l-.731 2.29-.014-.019c-.11-.148-.258-.257-.424-.319l-1.509-3.158c-.065-.137-.161-.251-.274-.34l-.973-3.172c-.041-.133-.109-.252-.195-.352l-.01-.105h1.084zm-5.148-.963l.438-4.541h1.225l.438 4.541h-2.101zm-5.41 2.212v.677c0 .266.208.481.465.481h1.767c.257 0 .465-.216.465-.481v-1.313h.497l-.925 3.017c-.113.088-.209.203-.274.34l-1.509 3.158c-.166.062-.314.171-.424.319l-.014.019-.732-2.29c-.051-.16-.178-.276-.33-.315l-.348-3.611h1.362zm1.944-6.814c.081.063.18.097.281.097.1 0 .198-.033.278-.096.18-.139.239-.393.138-.602l-.029-.052c-.086-.133-.232-.213-.387-.213-.1 0-.198.033-.278.095-.108.084-.176.213-.186.352-.01.14.04.278.136.376l.047.043zm9.016-5.588c.081.063.18.098.281.098.1 0 .197-.034.278-.096.18-.14.238-.393.138-.602l-.137-.17c-.161-.125-.396-.125-.558-.001-.181.14-.239.395-.137.604l.135.167zm1.052 5.748c.081.063.18.097.281.097.1 0 .198-.033.278-.095.18-.14.238-.393.137-.602l-.136-.17c-.161-.125-.397-.125-.558-.001-.182.14-.239.395-.137.604l.135.166zm-15.2-2.684l.386.219.212.401c.081.154.238.25.408.25.17 0 .327-.096.407-.25l.212-.401.386-.219c.149-.085.242-.246.242-.422s-.093-.338-.242-.422l-.386-.219-.212-.401c-.081-.154-.238-.25-.407-.25-.17 0-.327.096-.408.25l-.212.401-.386.219c-.149.085-.242.246-.242.422s.093.338.243.422zm16.54-5.557l.386.219.211.401c.082.155.238.25.408.25.17 0 .327-.096.408-.25l.211-.401.387-.219c.149-.084.242-.246.242-.422s-.093-.338-.242-.422l-.387-.219-.211-.4c-.081-.155-.238-.25-.408-.25-.169 0-.326.096-.408.25l-.211.4-.386.219c-.149.084-.242.246-.242.422 0 .175.093.338.243.422zm.206 7.856c0 .266.208.481.465.481h2.833c.257 0 .465-.215.465-.481s-.208-.481-.465-.481h-2.833c-.256 0-.465.215-.465.481z" fill="#206FAC"/><path d="M31.046 108.208h-1.18l-1.076-1.445c-.088-.118-.224-.187-.368-.187h-.041l-1.247-3.902c-.051-.16-.178-.276-.33-.315l-.364-3.774c-.011-.114-.06-.214-.133-.29v-1.686h1.961c.257 0 .465-.215.465-.481s-.208-.482-.465-.482h-2.088c-.1-.205-.254-.375-.443-.493v-.132c.169-.115.273-.31.273-.522 0-.229-.121-.439-.314-.549l-.021-.012-.012-.022c-.106-.201-.309-.326-.53-.326-.221 0-.423.124-.53.325l-.012.022-.021.013c-.194.109-.315.32-.315.549 0 .212.105.407.274.522v.132c-.326.203-.55.564-.569.985l-.001.022v1.623h-1.921c-.257 0-.465.216-.465.482v.549h-.557v-1.798c0-.266-.208-.481-.465-.481h-1.643l-.54-5.6c-.04-.411-.324-.738-.694-.836v-3.344c-.032-.713-.472-1.306-1.081-1.547v-.643l.008-.014.149-.085c.194-.109.315-.32.315-.549 0-.229-.121-.439-.315-.549l-.149-.085-.082-.155c-.106-.201-.31-.325-.53-.325-.221 0-.425.125-.53.326l-.082.154-.149.085c-.194.11-.315.32-.315.549 0 .228.121.439.315.549l.149.085.008.014v.644c-.608.241-1.048.835-1.081 1.547v3.344c-.37.098-.655.426-.694.836l-.599 6.212h-1.249c-.257 0-.465.215-.465.481v1.314h-.837v-.677c0-.266-.208-.482-.465-.482h-1.976v-1.645c-.019-.421-.243-.782-.569-.985v-.132c.169-.115.273-.31.273-.522 0-.229-.121-.439-.314-.549l-.021-.012-.012-.023c-.106-.201-.309-.325-.53-.325-.221 0-.424.124-.53.325l-.012.023-.021.012c-.194.109-.314.32-.314.549 0 .212.104.407.274.522v.132c-.189.118-.343.288-.443.493h-2.359c-.257 0-.465.216-.465.482s.208.481.465.481h2.232v1.686c-.073.076-.122.176-.133.29l-.364 3.774c-.153.039-.279.155-.33.315l-1.246 3.902h-.041c-.144 0-.28.069-.368.187l-1.076 1.445h-1.18c-.513 0-.93.431-.93.963s.417.963.93.963h30.116c.514 0 .93-.431.93-.963s-.416-.963-.93-.963zm-19.47 0l-1.034-1.388.241-.324h10.409l.242.324-1.034 1.388h-8.824zm-5.156-9.094h.847l.312 3.229h-1.47l.312-3.229zm.18-2.504v-.434c.01-.131.116-.232.244-.232.129 0 .234.101.244.232v1.921h-.488v-1.487zm8.633-9.819c.012-.204.099-.386.232-.518.137-.135.321-.218.524-.218s.387.083.523.218c.133.132.22.314.232.518v3.278h-1.511v-3.278zm9.585 21.418h-3.243l.447-.6.052-.07h6.12l.499.669h-3.875zm2.404-2.196l.169.529h-4.514l.169-.529.022.002h4.133l.022-.002zm-.307-.961h-3.563l.126-.395h3.31l.127.395zm-3.129-1.358l.123-.387h2.448l.123.387h-2.694zm.924-4.579h.847l.312 3.229h-1.47l.312-3.229zm.668-1.017h-.488v-1.921c.01-.131.116-.232.243-.232.128 0 .234.101.244.232v1.921zm-11.041 1.114h3.302l.525 1.713h-1.148l-.059-.037-.798-.416c-.138-.072-.301-.068-.436.009l-.721.416-.042.028h-1.15l.526-1.713zm-.162 5.359v-2.157h.588v2.639h-.588v-.481zm1.519-2.639v-.333l.267-.154.321.167v3.439h-.588v-3.12zm2.108.918v2.203h-.589v-2.639h.589v.436zm.93.009h.311l.819 1.713h-1.13v-1.713zm-5.797 0h.312v1.713h-1.13l.818-1.713zm-7.315.449h2.448l.123.387h-2.695l.123-.387zm2.879 1.35l.127.395h-3.563l.127-.395h3.31zm.296 1.358h.041l.095-.01.171.537h-4.514l.168-.527h4.039zm-5.01 1.525h6.12l.052.07.447.6h-7.118l.499-.669zm16.302-10.04v1.798c0 .266.208.481.465.481h1.488c.257 0 .465-.216.465-.481v-.55h1.307l-.348 3.611c-.153.039-.279.155-.33.315l-.731 2.29-.014-.019c-.11-.148-.258-.257-.424-.319l-1.509-3.158c-.065-.137-.161-.251-.274-.34l-.973-3.172c-.041-.133-.109-.252-.195-.352l-.01-.105h1.084zm-5.148-.963l.438-4.541h1.225l.438 4.541h-2.101zm-5.41 2.212v.677c0 .266.208.481.465.481h1.767c.257 0 .465-.216.465-.481v-1.313h.497l-.925 3.017c-.113.088-.209.203-.274.34l-1.509 3.158c-.166.062-.314.171-.424.319l-.014.019-.732-2.29c-.051-.16-.178-.276-.33-.315l-.348-3.611h1.362zm1.944-6.814c.081.063.18.097.281.097.1 0 .198-.033.278-.096.18-.139.239-.393.138-.602l-.029-.052c-.086-.133-.232-.213-.387-.213-.1 0-.198.033-.278.095-.108.084-.176.213-.186.352-.01.14.04.278.136.376l.047.043zm9.016-5.588c.081.063.18.098.281.098.1 0 .197-.034.278-.096.18-.14.238-.393.138-.602l-.137-.17c-.161-.125-.396-.125-.558-.001-.181.14-.239.395-.137.604l.135.167zm1.052 5.748c.081.063.18.097.281.097.1 0 .198-.033.278-.095.18-.14.238-.393.137-.602l-.136-.17c-.161-.125-.397-.125-.558-.001-.182.14-.239.395-.137.604l.135.166zm-15.2-2.684l.386.219.212.401c.081.154.238.25.408.25.17 0 .327-.096.407-.25l.212-.401.386-.219c.149-.085.242-.246.242-.422s-.093-.338-.242-.422l-.386-.219-.212-.401c-.081-.154-.238-.25-.407-.25-.17 0-.327.096-.408.25l-.212.401-.386.219c-.149.085-.242.246-.242.422s.093.338.243.422zm16.54-5.557l.386.219.211.401c.082.155.238.25.408.25.17 0 .327-.096.408-.25l.211-.401.387-.219c.149-.084.242-.246.242-.422s-.093-.338-.242-.422l-.387-.219-.211-.4c-.081-.155-.238-.25-.408-.25-.169 0-.326.096-.408.25l-.211.4-.386.219c-.149.084-.242.246-.242.422 0 .175.093.338.243.422zm.206 7.856c0 .266.208.481.465.481h2.833c.257 0 .465-.215.465-.481s-.208-.481-.465-.481h-2.833c-.256 0-.465.215-.465.481z" fill="#fff"/><path d="M31.046 68.208h-1.18l-1.076-1.445c-.088-.118-.224-.187-.368-.187h-.041l-1.247-3.902c-.051-.16-.178-.276-.33-.315l-.364-3.774c-.011-.114-.06-.214-.133-.29v-1.686h1.961c.257 0 .465-.215.465-.481s-.208-.482-.465-.482h-2.088c-.1-.205-.254-.375-.443-.493v-.132c.169-.115.273-.31.273-.522 0-.229-.121-.439-.314-.549l-.021-.012-.012-.022c-.106-.201-.309-.326-.53-.326-.221 0-.423.124-.53.325l-.012.022-.021.013c-.194.109-.315.32-.315.549 0 .212.105.407.274.522v.132c-.326.203-.55.564-.569.985l-.001.022v1.623h-1.921c-.257 0-.465.216-.465.482v.549h-.557v-1.798c0-.266-.208-.481-.465-.481h-1.643l-.54-5.6c-.04-.411-.324-.738-.694-.836v-3.344c-.032-.713-.472-1.306-1.081-1.547v-.643l.008-.014.149-.085c.194-.109.315-.32.315-.549 0-.229-.121-.439-.315-.549l-.149-.085-.082-.155c-.106-.201-.31-.325-.53-.325-.221 0-.425.125-.53.326l-.082.154-.149.085c-.194.11-.315.32-.315.549 0 .228.121.439.315.549l.149.085.008.014v.644c-.608.241-1.048.835-1.081 1.547v3.344c-.37.098-.655.426-.694.836l-.599 6.212h-1.249c-.257 0-.465.215-.465.481v1.314h-.837v-.677c0-.266-.208-.482-.465-.482h-1.976v-1.645c-.019-.421-.243-.782-.569-.985v-.132c.169-.115.273-.31.273-.522 0-.229-.121-.439-.314-.549l-.021-.012-.012-.023c-.106-.201-.309-.325-.53-.325-.221 0-.424.124-.53.325l-.012.023-.021.012c-.194.109-.314.32-.314.549 0 .212.104.407.274.522v.132c-.189.118-.343.288-.443.493h-2.359c-.257 0-.465.216-.465.482s.208.481.465.481h2.232v1.686c-.073.076-.122.176-.133.29l-.364 3.774c-.153.039-.279.155-.33.315l-1.246 3.902h-.041c-.144 0-.28.069-.368.187l-1.076 1.445h-1.18c-.513 0-.93.431-.93.963s.417.963.93.963h30.116c.514 0 .93-.431.93-.963s-.416-.963-.93-.963zm-19.47 0l-1.034-1.388.241-.324h10.409l.242.324-1.034 1.388h-8.824zm-5.156-9.094h.847l.312 3.229h-1.47l.312-3.229zm.18-2.504v-.434c.01-.131.116-.232.244-.232.129 0 .234.101.244.232v1.921h-.488v-1.487zm8.633-9.819c.012-.204.099-.386.232-.518.137-.135.321-.218.524-.218s.387.083.523.218c.133.132.22.314.232.518v3.278h-1.511v-3.278zm9.585 21.418h-3.243l.447-.6.052-.07h6.12l.499.669h-3.875zm2.404-2.196l.169.529h-4.514l.169-.529.022.002h4.133l.022-.002zm-.307-.961h-3.563l.126-.395h3.31l.127.395zm-3.129-1.358l.123-.387h2.448l.123.387h-2.694zm.924-4.579h.847l.312 3.229h-1.47l.312-3.229zm.668-1.017h-.488v-1.921c.01-.131.116-.232.243-.232.128 0 .234.101.244.232v1.921zm-11.041 1.114h3.302l.525 1.713h-1.148l-.059-.037-.798-.416c-.138-.072-.301-.068-.436.009l-.721.416-.042.028h-1.15l.526-1.713zm-.162 5.359v-2.157h.588v2.639h-.588v-.481zm1.519-2.639v-.333l.267-.154.321.167v3.439h-.588v-3.12zm2.108.918v2.203h-.589v-2.639h.589v.436zm.93.009h.311l.819 1.713h-1.13v-1.713zm-5.797 0h.312v1.713h-1.13l.818-1.713zm-7.315.449h2.448l.123.387h-2.695l.123-.387zm2.879 1.35l.127.395h-3.563l.127-.395h3.31zm.296 1.358h.041l.095-.01.171.537h-4.514l.168-.527h4.039zm-5.01 1.525h6.12l.052.07.447.6h-7.118l.499-.669zm16.302-10.04v1.798c0 .266.208.481.465.481h1.488c.257 0 .465-.216.465-.481v-.55h1.307l-.348 3.611c-.153.039-.279.155-.33.315l-.731 2.29-.014-.019c-.11-.148-.258-.257-.424-.319l-1.509-3.158c-.065-.137-.161-.251-.274-.34l-.973-3.172c-.041-.133-.109-.252-.195-.352l-.01-.105h1.084zm-5.148-.963l.438-4.541h1.225l.438 4.541h-2.101zm-5.41 2.212v.677c0 .266.208.481.465.481h1.767c.257 0 .465-.216.465-.481v-1.313h.497l-.925 3.017c-.113.088-.209.203-.274.34l-1.509 3.158c-.166.062-.314.171-.424.319l-.014.019-.732-2.29c-.051-.16-.178-.276-.33-.315l-.348-3.611h1.362zm1.944-6.814c.081.063.18.097.281.097.1 0 .198-.033.278-.096.18-.139.239-.393.138-.602l-.029-.052c-.086-.133-.232-.213-.387-.213-.1 0-.198.033-.278.095-.108.084-.176.213-.186.352-.01.14.04.278.136.376l.047.043zm9.016-5.588c.081.063.18.098.281.098.1 0 .197-.034.278-.096.18-.14.238-.393.138-.602l-.137-.17c-.161-.125-.396-.125-.558-.001-.181.14-.239.395-.137.604l.135.167zm1.052 5.748c.081.063.18.097.281.097.1 0 .198-.033.278-.095.18-.14.238-.393.137-.602l-.136-.17c-.161-.125-.397-.125-.558-.001-.182.14-.239.395-.137.604l.135.166zm-15.2-2.684l.386.219.212.401c.081.154.238.25.408.25.17 0 .327-.096.407-.25l.212-.401.386-.219c.149-.085.242-.246.242-.422s-.093-.338-.242-.422l-.386-.219-.212-.401c-.081-.154-.238-.25-.407-.25-.17 0-.327.096-.408.25l-.212.401-.386.219c-.149.085-.242.246-.242.422s.093.338.243.422zm16.54-5.557l.386.219.211.401c.082.155.238.25.408.25.17 0 .327-.096.408-.25l.211-.401.387-.219c.149-.084.242-.246.242-.422s-.093-.338-.242-.422l-.387-.219-.211-.4c-.081-.155-.238-.25-.408-.25-.169 0-.326.096-.408.25l-.211.4-.386.219c-.149.084-.242.246-.242.422 0 .175.093.338.243.422zm.206 7.856c0 .266.208.481.465.481h2.833c.257 0 .465-.215.465-.481s-.208-.481-.465-.481h-2.833c-.256 0-.465.215-.465.481z" fill="#67737B"/><path d="M31.046 28.208h-1.18l-1.076-1.445c-.088-.118-.224-.187-.368-.187h-.041l-1.247-3.902c-.051-.16-.178-.276-.33-.315l-.364-3.774c-.011-.114-.06-.214-.133-.29v-1.686h1.961c.257 0 .465-.215.465-.481s-.208-.482-.465-.482h-2.088c-.1-.205-.254-.375-.443-.493v-.132c.169-.115.273-.31.273-.522 0-.229-.121-.439-.314-.549l-.021-.012-.012-.022c-.106-.201-.309-.326-.53-.326-.221 0-.423.124-.53.325l-.012.022-.021.013c-.194.109-.315.32-.315.549 0 .212.105.407.274.522v.132c-.326.203-.55.564-.569.985l-.001.022v1.623h-1.921c-.257 0-.465.216-.465.482v.549h-.557v-1.798c0-.266-.208-.481-.465-.481h-1.643l-.54-5.6c-.04-.411-.324-.738-.694-.836v-3.344c-.032-.713-.472-1.306-1.081-1.547v-.643l.008-.014.149-.085c.194-.109.315-.32.315-.549 0-.229-.121-.439-.315-.549l-.149-.085-.082-.155c-.106-.201-.31-.325-.53-.325-.221 0-.425.125-.53.326l-.082.154-.149.085c-.194.11-.315.32-.315.549 0 .228.121.439.315.549l.149.085.008.014v.644c-.608.241-1.048.835-1.081 1.547v3.344c-.37.098-.655.426-.694.836l-.599 6.212h-1.249c-.257 0-.465.215-.465.481v1.314h-.837v-.677c0-.266-.208-.482-.465-.482h-1.976v-1.645c-.019-.421-.243-.782-.569-.985v-.132c.169-.115.273-.31.273-.522 0-.229-.121-.439-.314-.549l-.021-.012-.012-.023c-.106-.201-.309-.325-.53-.325-.221 0-.424.124-.53.325l-.012.023-.021.012c-.194.109-.314.32-.314.549 0 .212.104.407.274.522v.132c-.189.118-.343.288-.443.493h-2.359c-.257 0-.465.216-.465.482s.208.481.465.481h2.232v1.686c-.073.076-.122.176-.133.29l-.364 3.774c-.153.039-.279.155-.33.315l-1.246 3.902h-.041c-.144 0-.28.069-.368.187l-1.076 1.445h-1.18c-.513 0-.93.431-.93.963s.417.963.93.963h30.116c.514 0 .93-.431.93-.963s-.416-.963-.93-.963zm-19.47 0l-1.034-1.388.241-.324h10.409l.242.324-1.034 1.388h-8.824zm-5.156-9.094h.847l.312 3.229h-1.47l.312-3.229zm.18-2.504v-.434c.01-.131.116-.232.244-.232.129 0 .234.101.244.232v1.921h-.488v-1.487zm8.633-9.819c.012-.204.099-.386.232-.518.137-.135.321-.218.524-.218s.387.083.523.218c.133.132.22.314.232.518v3.278h-1.511v-3.278zm9.585 21.418h-3.243l.447-.6.052-.07h6.12l.499.669h-3.875zm2.404-2.196l.169.529h-4.514l.169-.529.022.002h4.133l.022-.002zm-.307-.961h-3.563l.126-.395h3.31l.127.395zm-3.129-1.358l.123-.387h2.448l.123.387h-2.694zm.924-4.579h.847l.312 3.229h-1.47l.312-3.229zm.668-1.017h-.488v-1.921c.01-.131.116-.232.243-.232.128 0 .234.101.244.232v1.921zm-11.041 1.114h3.302l.525 1.713h-1.148l-.059-.037-.798-.416c-.138-.072-.301-.068-.436.009l-.721.416-.042.028h-1.15l.526-1.713zm-.162 5.359v-2.157h.588v2.639h-.588v-.481zm1.519-2.639v-.333l.267-.154.321.167v3.439h-.588v-3.12zm2.108.918v2.203h-.589v-2.639h.589v.436zm.93.009h.311l.819 1.713h-1.13v-1.713zm-5.797 0h.312v1.713h-1.13l.818-1.713zm-7.315.449h2.448l.123.387h-2.695l.123-.387zm2.879 1.35l.127.395h-3.563l.127-.395h3.31zm.296 1.358h.041l.095-.01.171.537h-4.514l.168-.527h4.039zm-5.01 1.525h6.12l.052.07.447.6h-7.118l.499-.669zm16.302-10.04v1.798c0 .266.208.481.465.481h1.488c.257 0 .465-.216.465-.481v-.55h1.307l-.348 3.611c-.153.039-.279.155-.33.315l-.731 2.29-.014-.019c-.11-.148-.258-.257-.424-.319l-1.509-3.158c-.065-.137-.161-.251-.274-.34l-.973-3.172c-.041-.133-.109-.252-.195-.352l-.01-.105h1.084zm-5.148-.963l.438-4.541h1.225l.438 4.541h-2.101zm-5.41 2.212v.677c0 .266.208.481.465.481h1.767c.257 0 .465-.216.465-.481v-1.313h.497l-.925 3.017c-.113.088-.209.203-.274.34l-1.509 3.158c-.166.062-.314.171-.424.319l-.014.019-.732-2.29c-.051-.16-.178-.276-.33-.315l-.348-3.611h1.362zm1.944-6.814c.081.063.18.097.281.097.1 0 .198-.033.278-.096.18-.139.239-.393.138-.602l-.029-.052c-.086-.133-.232-.213-.387-.213-.1 0-.198.033-.278.095-.108.084-.176.213-.186.352-.01.14.04.278.136.376l.047.043zm9.016-5.588c.081.063.18.098.281.098.1 0 .197-.034.278-.096.18-.14.238-.393.138-.602l-.137-.17c-.161-.125-.396-.125-.558-.001-.181.14-.239.395-.137.604l.135.167zm1.052 5.748c.081.063.18.097.281.097.1 0 .198-.033.278-.095.18-.14.238-.393.137-.602l-.136-.17c-.161-.125-.397-.125-.558-.001-.182.14-.239.395-.137.604l.135.166zm-15.2-2.684l.386.219.212.401c.081.154.238.25.408.25.17 0 .327-.096.407-.25l.212-.401.386-.219c.149-.085.242-.246.242-.422s-.093-.338-.242-.422l-.386-.219-.212-.401c-.081-.154-.238-.25-.407-.25-.17 0-.327.096-.408.25l-.212.401-.386.219c-.149.085-.242.246-.242.422s.093.338.243.422zm16.54-5.557l.386.219.211.401c.082.155.238.25.408.25.17 0 .327-.096.408-.25l.211-.401.387-.219c.149-.084.242-.246.242-.422s-.093-.338-.242-.422l-.387-.219-.211-.4c-.081-.155-.238-.25-.408-.25-.169 0-.326.096-.408.25l-.211.4-.386.219c-.149.084-.242.246-.242.422 0 .175.093.338.243.422zm.206 7.856c0 .266.208.481.465.481h2.833c.257 0 .465-.215.465-.481s-.208-.481-.465-.481h-2.833c-.256 0-.465.215-.465.481z" fill="#373D43"/></g></g></svg>