<svg width="32" height="232" viewBox="0 0 32 232" xmlns="http://www.w3.org/2000/svg"><title>bangkok</title><desc>Created with Sketch.</desc><g fill="none"><path d="M31.046 148.208h-1.18l-1.076-1.445c-.088-.118-.224-.187-.368-.187h-.04l-1.248-3.902c-.05-.16-.178-.276-.33-.315l-.364-3.775c-.01-.114-.06-.214-.133-.29v-1.686h1.96c.258 0 .466-.216.466-.482s-.208-.482-.465-.482H26.18c-.1-.205-.254-.375-.443-.493v-.132c.17-.114.273-.31.273-.52 0-.23-.12-.44-.314-.55l-.02-.012-.013-.022c-.106-.2-.31-.326-.53-.326-.22 0-.423.124-.53.325l-.012.022-.02.013c-.194.11-.315.32-.315.55 0 .21.105.406.274.52v.133c-.327.203-.55.564-.57.985v1.645h-1.922c-.257 0-.465.216-.465.482v.55h-.557v-1.8c0-.265-.208-.48-.465-.48H18.91l-.54-5.6c-.04-.41-.324-.738-.694-.836v-3.345c-.032-.713-.472-1.306-1.08-1.547v-.643l.007-.014.15-.084c.194-.11.315-.32.315-.55 0-.228-.12-.438-.315-.548l-.15-.085-.08-.155c-.107-.2-.31-.325-.53-.325-.222 0-.426.125-.53.326l-.083.153-.15.085c-.193.11-.314.32-.314.55 0 .227.12.438.315.548l.15.085.007.015v.644c-.608.24-1.048.834-1.08 1.546v3.344c-.37.098-.656.426-.695.836l-.6 6.212h-1.248c-.257 0-.465.215-.465.48v1.315h-.837v-.677c0-.266-.208-.482-.465-.482H8.02v-1.645c-.02-.422-.244-.783-.57-.986v-.132c.17-.115.273-.31.273-.522 0-.23-.12-.44-.314-.55l-.022-.01-.012-.024c-.106-.2-.31-.325-.53-.325-.22 0-.424.125-.53.326l-.012.023-.02.01c-.195.11-.315.32-.315.55 0 .212.103.407.273.522v.132c-.19.118-.343.288-.443.493H3.44c-.256 0-.464.216-.464.482s.208.48.465.48h2.233v1.686c-.073.076-.122.176-.133.29l-.364 3.774c-.153.04-.28.155-.33.315L3.6 146.577h-.04c-.145 0-.28.07-.37.187l-1.075 1.445H.935c-.513 0-.93.43-.93.962s.417.963.93.963H31.05c.515 0 .93-.43.93-.963s-.415-.963-.93-.963zm-19.47 0l-1.034-1.388.24-.324h10.41l.242.324-1.034 1.388h-8.824zm-5.156-9.094h.847l.312 3.23H6.11l.31-3.23zm.18-2.504v-.434c.01-.13.116-.232.244-.232.13 0 .234.1.244.232v1.92H6.6v-1.486zm8.633-9.82c.012-.203.1-.385.232-.517.137-.135.32-.218.524-.218s.386.083.522.218c.133.132.22.314.232.518v3.28h-1.51v-3.28zm9.585 21.42h-3.243l.447-.6.052-.07h6.12l.5.668h-3.876zm2.404-2.197l.17.53h-4.515l.17-.53.02.002h4.134l.023-.002zm-.307-.96h-3.563l.126-.396h3.31l.127.395zm-3.13-1.36l.124-.386h2.447l.123.387h-2.694zm.925-4.578h.847l.312 3.23H24.4l.31-3.23zm.668-1.017h-.488v-1.92c.01-.132.116-.233.243-.233.128 0 .234.1.244.232v1.92zm-11.04 1.114h3.3l.526 1.713h-1.148l-.06-.037-.797-.416c-.14-.072-.302-.068-.437.01l-.72.415-.043.028h-1.15l.526-1.713zm-.163 5.36v-2.158h.588v2.64h-.588v-.482zm1.52-2.64v-.333l.266-.155.322.167v3.44h-.588v-3.12zm2.107.918v2.203h-.59v-2.64h.59v.437zm.93.01h.31l.82 1.712h-1.13v-1.713zm-5.797 0h.312v1.712h-1.13l.818-1.713zm-7.315.448h2.448l.123.387H5.497l.123-.387zm2.88 1.35l.126.395H5.063l.127-.395H8.5zm.295 1.358h.04l.096-.01.172.537H4.588l.168-.527h4.04zm-5.01 1.525h6.12l.052.07.447.6H3.286l.5-.668zm16.302-10.04v1.8c0 .265.208.48.465.48h1.488c.257 0 .465-.216.465-.48v-.55h1.307l-.348 3.61c-.153.04-.28.155-.33.315l-.73 2.29-.015-.02c-.11-.147-.26-.256-.425-.318l-1.51-3.158c-.064-.138-.16-.252-.273-.34l-.973-3.173c-.042-.133-.11-.252-.196-.352l-.01-.105h1.084zm-5.148-.962l.437-4.54h1.225l.438 4.54h-2.1zm-5.41 2.212v.677c0 .266.207.48.464.48h1.767c.258 0 .466-.215.466-.48v-1.313h.497l-.925 3.017c-.113.09-.21.204-.274.34l-1.51 3.16c-.165.06-.313.17-.423.318l-.013.02-.732-2.29c-.05-.16-.178-.277-.33-.316l-.348-3.61H9.53zm1.943-6.814c.08.063.18.097.28.097.1 0 .2-.033.28-.096.18-.14.238-.393.137-.602l-.03-.052c-.085-.133-.23-.213-.386-.213-.1 0-.198.033-.278.095-.108.084-.176.213-.186.352-.01.14.04.278.136.376l.047.043zm9.016-5.588c.08.063.18.098.28.098.1 0 .197-.034.278-.096.18-.14.238-.393.138-.602l-.137-.17c-.162-.125-.397-.125-.56 0-.18.14-.238.394-.136.603l.135.168zm1.05 5.748c.082.063.18.097.282.097.1 0 .198-.033.278-.095.18-.14.238-.393.137-.602l-.136-.17c-.16-.125-.396-.125-.557 0-.182.14-.24.394-.137.603l.135.165zm-15.2-2.684l.387.22.212.4c.08.154.237.25.407.25.17 0 .327-.096.407-.25l.212-.4.386-.22c.15-.085.242-.246.242-.422s-.093-.338-.242-.422l-.386-.22-.212-.4c-.08-.154-.238-.25-.407-.25-.17 0-.327.096-.408.25l-.213.4-.386.22c-.148.085-.24.246-.24.422s.092.338.242.422zm16.54-5.557l.387.22.21.4c.083.155.24.25.41.25.17 0 .326-.096.407-.25l.21-.4.388-.22c.15-.084.242-.246.242-.422s-.093-.338-.242-.422l-.387-.218-.21-.4c-.082-.155-.24-.25-.41-.25-.168 0-.325.096-.407.25l-.21.4-.387.22c-.148.083-.24.245-.24.42 0 .176.092.34.242.423zm.207 7.856c0 .267.208.482.465.482h2.833c.257 0 .465-.215.465-.48s-.208-.482-.465-.482h-2.833c-.256 0-.465.215-.465.48z" fill="#206FAC"/><path d="M31.046 108.208h-1.18l-1.076-1.445c-.088-.118-.224-.187-.368-.187h-.04l-1.248-3.902c-.05-.16-.178-.276-.33-.315l-.364-3.775c-.01-.114-.06-.214-.133-.29V96.61h1.96c.258 0 .466-.216.466-.482s-.208-.482-.465-.482H26.18c-.1-.205-.254-.375-.443-.493v-.132c.17-.114.273-.31.273-.52 0-.23-.12-.44-.314-.55l-.02-.012-.013-.022c-.106-.2-.31-.326-.53-.326-.22 0-.423.124-.53.325l-.012.022-.02.013c-.194.11-.315.32-.315.55 0 .21.105.406.274.52v.133c-.327.203-.55.564-.57.985v1.645h-1.922c-.257 0-.465.216-.465.482v.55h-.557v-1.8c0-.265-.208-.48-.465-.48H18.91l-.54-5.6c-.04-.41-.324-.738-.694-.836v-3.345c-.032-.713-.472-1.306-1.08-1.547v-.643l.007-.014.15-.084c.194-.11.315-.32.315-.55 0-.228-.12-.438-.315-.548l-.15-.085-.08-.155c-.107-.2-.31-.325-.53-.325-.222 0-.426.125-.53.326l-.083.153-.15.085c-.193.11-.314.32-.314.55 0 .227.12.438.315.548l.15.085.007.015v.644c-.608.24-1.048.834-1.08 1.546V90.1c-.37.098-.656.426-.695.836l-.6 6.212h-1.248c-.257 0-.465.215-.465.48v1.315h-.837v-.677c0-.266-.208-.482-.465-.482H8.02V96.14c-.02-.422-.244-.783-.57-.986v-.132c.17-.115.273-.31.273-.522 0-.23-.12-.44-.314-.55l-.022-.01-.012-.024c-.106-.2-.31-.325-.53-.325-.22 0-.424.125-.53.326l-.012.023-.02.01c-.195.11-.315.32-.315.55 0 .212.103.407.273.522v.132c-.19.118-.343.288-.443.493H3.44c-.256 0-.464.216-.464.482s.208.48.465.48h2.233v1.686c-.073.076-.122.176-.133.29l-.364 3.774c-.153.04-.28.155-.33.315L3.6 106.577h-.04c-.145 0-.28.07-.37.187l-1.075 1.445H.935c-.513 0-.93.43-.93.962s.417.963.93.963H31.05c.515 0 .93-.43.93-.963s-.415-.963-.93-.963zm-19.47 0l-1.034-1.388.24-.324h10.41l.242.324-1.034 1.388h-8.824zM6.42 99.114h.847l.312 3.23H6.11l.31-3.23zm.18-2.504v-.434c.01-.13.116-.232.244-.232.13 0 .234.1.244.232v1.92H6.6V96.61zm8.633-9.82c.012-.203.1-.385.232-.517.137-.135.32-.218.524-.218s.386.083.522.218c.133.132.22.314.232.518v3.28h-1.51v-3.28zm9.585 21.42h-3.243l.447-.6.052-.07h6.12l.5.668h-3.876zm2.404-2.197l.17.53h-4.515l.17-.53.02.002h4.134l.023-.002zm-.307-.96h-3.563l.126-.396h3.31l.127.395zm-3.13-1.36l.124-.386h2.447l.123.387h-2.694zm.925-4.578h.847l.312 3.23H24.4l.31-3.23zm.668-1.017h-.488v-1.92c.01-.132.116-.233.243-.233.128 0 .234.1.244.232v1.92zm-11.04 1.114h3.3l.526 1.713h-1.148l-.06-.037-.797-.416c-.14-.072-.302-.068-.437.01l-.72.415-.043.028h-1.15l.526-1.713zm-.163 5.36v-2.158h.588v2.64h-.588v-.482zm1.52-2.64v-.333l.266-.155.322.167v3.44h-.588v-3.12zm2.107.918v2.203h-.59v-2.64h.59v.437zm.93.01h.31l.82 1.712h-1.13v-1.713zm-5.797 0h.312v1.712h-1.13l.818-1.713zm-7.315.448h2.448l.123.387H5.497l.123-.387zm2.88 1.35l.126.395H5.063l.127-.395H8.5zm.295 1.358h.04l.096-.01.172.537H4.588l.168-.527h4.04zm-5.01 1.525h6.12l.052.07.447.6H3.286l.5-.668zM20.087 97.5v1.8c0 .265.208.48.465.48h1.488c.257 0 .465-.216.465-.48v-.55h1.307l-.348 3.61c-.153.04-.28.155-.33.315l-.73 2.29-.015-.02c-.11-.147-.26-.256-.425-.318l-1.51-3.158c-.064-.138-.16-.252-.273-.34l-.973-3.173c-.042-.133-.11-.252-.196-.352l-.01-.105h1.084zm-5.148-.962l.437-4.54h1.225l.438 4.54h-2.1zM9.53 98.75v.677c0 .266.207.48.464.48h1.767c.258 0 .466-.215.466-.48v-1.313h.497l-.925 3.017c-.113.09-.21.204-.274.34l-1.51 3.16c-.165.06-.313.17-.423.318l-.013.02-.732-2.29c-.05-.16-.178-.277-.33-.316l-.348-3.61H9.53zm1.943-6.814c.08.063.18.097.28.097.1 0 .2-.033.28-.096.18-.14.238-.393.137-.602l-.03-.052c-.085-.133-.23-.213-.386-.213-.1 0-.198.033-.278.095-.108.084-.176.213-.186.352-.01.14.04.278.136.376l.047.043zm9.016-5.588c.08.063.18.098.28.098.1 0 .197-.034.278-.096.18-.14.238-.393.138-.602l-.137-.17c-.162-.125-.397-.125-.56 0-.18.14-.238.394-.136.603l.135.168zm1.05 5.748c.082.063.18.097.282.097.1 0 .198-.033.278-.095.18-.14.238-.393.137-.602l-.136-.17c-.16-.125-.396-.125-.557 0-.182.14-.24.394-.137.603l.135.165zm-15.2-2.684l.387.22.212.4c.08.154.237.25.407.25.17 0 .327-.096.407-.25l.212-.4.386-.22c.15-.085.242-.246.242-.422s-.093-.338-.242-.422l-.386-.22-.212-.4c-.08-.154-.238-.25-.407-.25-.17 0-.327.096-.408.25l-.213.4-.386.22c-.148.085-.24.246-.24.422s.092.338.242.422zm16.54-5.557l.387.22.21.4c.083.155.24.25.41.25.17 0 .326-.096.407-.25l.21-.4.388-.22c.15-.084.242-.246.242-.422s-.093-.338-.242-.422l-.387-.218-.21-.4c-.082-.155-.24-.25-.41-.25-.168 0-.325.096-.407.25l-.21.4-.387.22c-.148.083-.24.245-.24.42 0 .176.092.34.242.423zm.207 7.856c0 .267.208.482.465.482h2.833c.257 0 .465-.215.465-.48s-.208-.482-.465-.482h-2.833c-.256 0-.465.215-.465.48z" fill="#fff"/><path d="M31.046 68.208h-1.18l-1.076-1.445c-.088-.118-.224-.187-.368-.187h-.04l-1.248-3.902c-.05-.16-.178-.276-.33-.315l-.364-3.775c-.01-.114-.06-.214-.133-.29V56.61h1.96c.258 0 .466-.216.466-.482s-.208-.482-.465-.482H26.18c-.1-.205-.254-.375-.443-.493v-.132c.17-.114.273-.31.273-.52 0-.23-.12-.44-.314-.55l-.02-.012-.013-.022c-.106-.2-.31-.326-.53-.326-.22 0-.423.124-.53.325l-.012.022-.02.013c-.194.11-.315.32-.315.55 0 .21.105.406.274.52v.133c-.327.203-.55.564-.57.985v1.645h-1.922c-.257 0-.465.216-.465.482v.55h-.557v-1.8c0-.265-.208-.48-.465-.48H18.91l-.54-5.6c-.04-.41-.324-.738-.694-.836v-3.345c-.032-.713-.472-1.306-1.08-1.547v-.643l.007-.014.15-.084c.194-.11.315-.32.315-.55 0-.228-.12-.438-.315-.548l-.15-.085-.08-.155c-.107-.2-.31-.325-.53-.325-.222 0-.426.125-.53.326l-.083.153-.15.085c-.193.11-.314.32-.314.55 0 .227.12.438.315.548l.15.085.007.015v.644c-.608.24-1.048.834-1.08 1.546V50.1c-.37.098-.656.426-.695.836l-.6 6.212h-1.248c-.257 0-.465.215-.465.48v1.315h-.837v-.677c0-.266-.208-.482-.465-.482H8.02V56.14c-.02-.422-.244-.783-.57-.986v-.132c.17-.115.273-.31.273-.522 0-.23-.12-.44-.314-.55l-.022-.01-.012-.024c-.106-.2-.31-.325-.53-.325-.22 0-.424.125-.53.326l-.012.023-.02.01c-.195.11-.315.32-.315.55 0 .212.103.407.273.522v.132c-.19.118-.343.288-.443.493H3.44c-.256 0-.464.216-.464.482s.208.48.465.48h2.233v1.686c-.073.076-.122.176-.133.29l-.364 3.774c-.153.04-.28.155-.33.315L3.6 66.577h-.04c-.145 0-.28.07-.37.187L2.116 68.21H.935c-.513 0-.93.43-.93.962s.417.963.93.963H31.05c.515 0 .93-.43.93-.963s-.415-.963-.93-.963zm-19.47 0l-1.034-1.388.24-.324h10.41l.242.324-1.034 1.388h-8.824zM6.42 59.114h.847l.312 3.23H6.11l.31-3.23zm.18-2.504v-.434c.01-.13.116-.232.244-.232.13 0 .234.1.244.232v1.92H6.6V56.61zm8.633-9.82c.012-.203.1-.385.232-.517.137-.135.32-.218.524-.218s.386.083.522.218c.133.132.22.314.232.518v3.28h-1.51v-3.28zm9.585 21.42h-3.243l.447-.6.052-.07h6.12l.5.668h-3.876zm2.404-2.197l.17.53h-4.515l.17-.53.02.002h4.134l.023-.002zm-.307-.96h-3.563l.126-.396h3.31l.127.395zm-3.13-1.36l.124-.386h2.447l.123.387h-2.694zm.925-4.578h.847l.312 3.23H24.4l.31-3.23zm.668-1.017h-.488v-1.92c.01-.132.116-.233.243-.233.128 0 .234.1.244.232v1.92zm-11.04 1.114h3.3l.526 1.713h-1.148l-.06-.037-.797-.416c-.14-.072-.302-.068-.437.01l-.72.415-.043.028h-1.15l.526-1.713zm-.163 5.36v-2.158h.588v2.64h-.588v-.482zm1.52-2.64V61.6l.266-.155.322.167v3.44h-.588v-3.12zm2.107.918v2.203h-.59v-2.64h.59v.437zm.93.01h.31l.82 1.712h-1.13V62.86zm-5.797 0h.312v1.712h-1.13l.818-1.713zm-7.315.448h2.448l.123.387H5.497l.123-.387zm2.88 1.35l.126.395H5.063l.127-.395H8.5zm.295 1.358h.04l.096-.01.172.537H4.588l.168-.527h4.04zm-5.01 1.525h6.12l.052.07.447.6H3.286l.5-.668zM20.087 57.5v1.8c0 .265.208.48.465.48h1.488c.257 0 .465-.216.465-.48v-.55h1.307l-.348 3.61c-.153.04-.28.155-.33.315l-.73 2.29-.015-.02c-.11-.147-.26-.256-.425-.318l-1.51-3.158c-.064-.138-.16-.252-.273-.34l-.973-3.173c-.042-.133-.11-.252-.196-.352l-.01-.105h1.084zm-5.148-.962l.437-4.54h1.225l.438 4.54h-2.1zM9.53 58.75v.677c0 .266.207.48.464.48h1.767c.258 0 .466-.215.466-.48v-1.313h.497l-.925 3.017c-.113.09-.21.204-.274.34l-1.51 3.16c-.165.06-.313.17-.423.318l-.013.02-.732-2.29c-.05-.16-.178-.277-.33-.316l-.348-3.61H9.53zm1.943-6.814c.08.063.18.097.28.097.1 0 .2-.033.28-.096.18-.14.238-.393.137-.602l-.03-.052c-.085-.133-.23-.213-.386-.213-.1 0-.198.033-.278.095-.108.084-.176.213-.186.352-.01.14.04.278.136.376l.047.043zm9.016-5.588c.08.063.18.098.28.098.1 0 .197-.034.278-.096.18-.14.238-.393.138-.602l-.137-.17c-.162-.125-.397-.125-.56 0-.18.14-.238.394-.136.603l.135.168zm1.05 5.748c.082.063.18.097.282.097.1 0 .198-.033.278-.095.18-.14.238-.393.137-.602l-.136-.17c-.16-.125-.396-.125-.557 0-.182.14-.24.394-.137.603l.135.165zm-15.2-2.684l.387.22.212.4c.08.154.237.25.407.25.17 0 .327-.096.407-.25l.212-.4.386-.22c.15-.085.242-.246.242-.422s-.093-.338-.242-.422l-.386-.22-.212-.4c-.08-.154-.238-.25-.407-.25-.17 0-.327.096-.408.25l-.213.4-.386.22c-.148.085-.24.246-.24.422s.092.338.242.422zm16.54-5.557l.387.22.21.4c.083.155.24.25.41.25.17 0 .326-.096.407-.25l.21-.4.388-.22c.15-.084.242-.246.242-.422s-.093-.338-.242-.422l-.387-.218-.21-.4c-.082-.155-.24-.25-.41-.25-.168 0-.325.096-.407.25l-.21.4-.387.22c-.148.083-.24.245-.24.42 0 .176.092.34.242.423zm.207 7.856c0 .267.208.482.465.482h2.833c.257 0 .465-.215.465-.48s-.208-.482-.465-.482h-2.833c-.256 0-.465.215-.465.48z" fill="#67737B"/><path d="M31.046 28.208h-1.18l-1.076-1.445c-.088-.118-.224-.187-.368-.187h-.04l-1.248-3.902c-.05-.16-.178-.276-.33-.315l-.364-3.775c-.01-.114-.06-.214-.133-.29V16.61h1.96c.258 0 .466-.216.466-.482s-.208-.482-.465-.482H26.18c-.1-.205-.254-.375-.443-.493v-.132c.17-.114.273-.31.273-.52 0-.23-.12-.44-.314-.55l-.02-.012-.013-.022c-.106-.2-.31-.326-.53-.326-.22 0-.423.124-.53.325l-.012.022-.02.013c-.194.11-.315.32-.315.55 0 .21.105.406.274.52v.133c-.327.203-.55.564-.57.985v1.645h-1.922c-.257 0-.465.216-.465.482v.55h-.557v-1.8c0-.265-.208-.48-.465-.48H18.91l-.54-5.6c-.04-.41-.324-.738-.694-.836V6.754c-.032-.713-.472-1.306-1.08-1.547v-.643l.007-.014.15-.084c.194-.11.315-.32.315-.55 0-.228-.12-.438-.315-.548l-.15-.085-.08-.155c-.107-.2-.31-.325-.53-.325-.222 0-.426.125-.53.326l-.083.153-.15.085c-.193.11-.314.32-.314.55 0 .227.12.438.315.548l.15.085.007.015v.644c-.608.24-1.048.834-1.08 1.546V10.1c-.37.098-.656.426-.695.836l-.6 6.212h-1.248c-.257 0-.465.215-.465.48v1.315h-.837v-.677c0-.266-.208-.482-.465-.482H8.02V16.14c-.02-.422-.244-.783-.57-.986v-.132c.17-.115.273-.31.273-.522 0-.23-.12-.44-.314-.55l-.022-.01-.012-.024c-.106-.2-.31-.325-.53-.325-.22 0-.424.125-.53.326l-.012.023-.02.01c-.195.11-.315.32-.315.55 0 .212.103.407.273.522v.132c-.19.118-.343.288-.443.493H3.44c-.256 0-.464.216-.464.482s.208.48.465.48h2.233v1.686c-.073.076-.122.176-.133.29l-.364 3.774c-.153.04-.28.155-.33.315L3.6 26.577h-.04c-.145 0-.28.07-.37.187L2.116 28.21H.935c-.513 0-.93.43-.93.962s.417.963.93.963H31.05c.515 0 .93-.43.93-.963s-.415-.963-.93-.963zm-19.47 0l-1.034-1.388.24-.324h10.41l.242.324-1.034 1.388h-8.824zM6.42 19.114h.847l.312 3.23H6.11l.31-3.23zm.18-2.504v-.434c.01-.13.116-.232.244-.232.13 0 .234.1.244.232v1.92H6.6V16.61zm8.633-9.82c.012-.203.1-.385.232-.517.137-.135.32-.218.524-.218s.386.083.522.218c.133.132.22.314.232.518v3.28h-1.51V6.79zm9.585 21.42h-3.243l.447-.6.052-.07h6.12l.5.668h-3.876zm2.404-2.197l.17.53h-4.515l.17-.53.02.002h4.134l.023-.002zm-.307-.96h-3.563l.126-.396h3.31l.127.395zm-3.13-1.36l.124-.386h2.447l.123.387h-2.694zm.925-4.578h.847l.312 3.23H24.4l.31-3.23zm.668-1.017h-.488v-1.92c.01-.132.116-.233.243-.233.128 0 .234.1.244.232v1.92zm-11.04 1.114h3.3l.526 1.713h-1.148l-.06-.037-.797-.416c-.14-.072-.302-.068-.437.01l-.72.415-.043.028h-1.15l.526-1.713zm-.163 5.36v-2.158h.588v2.64h-.588v-.482zm1.52-2.64V21.6l.266-.155.322.167v3.44h-.588v-3.12zm2.107.918v2.203h-.59v-2.64h.59v.437zm.93.01h.31l.82 1.712h-1.13V22.86zm-5.797 0h.312v1.712h-1.13l.818-1.713zm-7.315.448h2.448l.123.387H5.497l.123-.387zm2.88 1.35l.126.395H5.063l.127-.395H8.5zm.295 1.358h.04l.096-.01.172.537H4.588l.168-.527h4.04zm-5.01 1.525h6.12l.052.07.447.6H3.286l.5-.668zM20.087 17.5v1.8c0 .265.208.48.465.48h1.488c.257 0 .465-.216.465-.48v-.55h1.307l-.348 3.61c-.153.04-.28.155-.33.315l-.73 2.29-.015-.02c-.11-.147-.26-.256-.425-.318l-1.51-3.158c-.064-.138-.16-.252-.273-.34l-.973-3.173c-.042-.133-.11-.252-.196-.352l-.01-.105h1.084zm-5.148-.962l.437-4.54h1.225l.438 4.54h-2.1zM9.53 18.75v.677c0 .266.207.48.464.48h1.767c.258 0 .466-.215.466-.48v-1.313h.497l-.925 3.017c-.113.09-.21.204-.274.34l-1.51 3.16c-.165.06-.313.17-.423.318l-.013.02-.732-2.29c-.05-.16-.178-.277-.33-.316l-.348-3.61H9.53zm1.943-6.814c.08.063.18.097.28.097.1 0 .2-.033.28-.096.18-.14.238-.393.137-.602l-.03-.052c-.085-.133-.23-.213-.386-.213-.1 0-.198.033-.278.095-.108.084-.176.213-.186.352-.01.14.04.278.136.376l.047.043zm9.016-5.588c.08.063.18.098.28.098.1 0 .197-.034.278-.096.18-.14.238-.393.138-.602l-.137-.17c-.162-.125-.397-.125-.56 0-.18.14-.238.394-.136.603l.135.168zm1.05 5.748c.082.063.18.097.282.097.1 0 .198-.033.278-.095.18-.14.238-.393.137-.602l-.136-.17c-.16-.125-.396-.125-.557 0-.182.14-.24.394-.137.603l.135.165zM6.34 9.412l.387.22.212.4c.08.154.237.25.407.25.17 0 .327-.096.407-.25l.212-.4.386-.22c.15-.085.242-.246.242-.422s-.093-.338-.242-.422l-.386-.22-.212-.4c-.08-.154-.238-.25-.407-.25-.17 0-.327.096-.408.25l-.213.4-.386.22c-.148.085-.24.246-.24.422s.092.338.242.422zm16.54-5.557l.387.22.21.4c.083.155.24.25.41.25.17 0 .326-.096.407-.25l.21-.4.388-.22c.15-.084.242-.246.242-.422s-.093-.338-.242-.422l-.387-.218-.21-.4c-.082-.155-.24-.25-.41-.25-.168 0-.325.096-.407.25l-.21.4-.387.22c-.148.083-.24.245-.24.42 0 .176.092.34.242.423zm.207 7.856c0 .267.208.482.465.482h2.833c.257 0 .465-.215.465-.48s-.208-.482-.465-.482h-2.833c-.256 0-.465.215-.465.48z" fill="#373D43"/></g></svg>