<svg width="32" height="232" viewBox="0 0 32 232" xmlns="http://www.w3.org/2000/svg"><title>chiang-mai</title><desc>Created with Sketch.</desc><g fill="none"><path d="M11.475 133.966c-.17-.128-.42-.128-.59 0-.193.142-.255.4-.146.614.033.067.08.125.14.17.087.065.19.1.3.1.105 0 .21-.034.294-.097.19-.142.253-.4.146-.613-.034-.068-.084-.127-.145-.172zm-8.513.47c-.17-.128-.422-.13-.593-.002-.126.092-.2.238-.2.394 0 .154.074.3.198.392.086.064.19.1.297.1.106 0 .21-.036.295-.1.115-.084.187-.215.197-.358.01-.142-.043-.282-.144-.382l-.05-.043zm-1.174 4.003c.086.063.19.098.298.098.106 0 .21-.034.295-.097.192-.14.254-.4.148-.612-.034-.068-.084-.127-.145-.173-.17-.127-.42-.128-.592 0-.19.142-.252.402-.144.615l.142.17zm24.362-16.122c.086.064.19.1.298.1.106 0 .21-.035.294-.098.19-.142.253-.4.147-.613-.035-.068-.085-.127-.146-.173-.17-.127-.42-.128-.59 0-.193.14-.255.402-.147.615l.142.17zm-19.052 1.396c.086.064.19.098.297.098.106 0 .21-.034.295-.097.115-.085.187-.216.198-.358.01-.143-.043-.283-.145-.383l-.05-.043c-.17-.127-.422-.128-.593 0-.125.09-.198.238-.198.393 0 .154.073.3.197.392zm15.518 19.965c1.583-.817 2.37-1.637 2.337-2.44-.038-.927-.933-1.175-1.456-1.175-1.088 0-4.142.88-5.044 1.146H13.77l.17-.123.012-.01c.25-.186 1.058-.873.925-1.804-.047-.332-.262-.94-1.167-1.282-.332-.125-.645-.244-3.424 1.146-1.006.504-2.82 1.472-3.662 2.307-1.426 1.387-5.532 8.314-5.996 9.1-.276.467-.12 1.068.35 1.342.157.092.33.135.498.135.338 0 .668-.173.85-.484 1.77-3 4.743-7.788 5.677-8.692l.01-.01c.398-.395 1.216-.908 2.106-1.397-.31.255-.434.674-.308 1.058.133.404.51.676.937.676h5.87c-1.474.155-2.963.37-4.224.618-2.78.543-3.203.964-3.406 1.167-1.586 1.578-2.216 5.497-2.282 5.94-.08.534.29 1.034.828 1.114.538.08 1.04-.29 1.12-.825.213-1.405.858-3.933 1.698-4.813.515-.306 3.508-1.024 7.618-1.356 2.114-.17 3.818-.912 4.645-1.337zm-7.35-6.002c.105.41.466.708.892.735l6.98.438.06.002c.403 0 .767-.244.917-.62l2.575-6.468c.04-.1.06-.203.066-.308l.01-.13c0-.106-.018-.21-.05-.305l-1.722-6.676c-.106-.41-.467-.708-.893-.735l-6.978-.44c-.427-.026-.82.224-.978.62l-2.575 6.468c-.044.11-.067.223-.07.336v.004c-.012.113-.003.228.026.34l1.738 6.74zm3.603-1.563c.023-.377.06-.56.088-.644.217-.01.614-.038.973-.515.11-.145.2-.295.272-.446.318.776.55 1.47.535 1.722-.012.184-.077.353-.18.492l-1.572-.1c-.086-.153-.127-.328-.116-.51zm3.676.733l-.926-.058c.054-.158.09-.323.1-.497.055-.868-1.044-3.174-1.265-3.628-.105-.215-.35-.322-.58-.256-.23.065-.38.288-.353.524 0 .008.083.816-.38 1.432-.087.116-.108.118-.245.125-.77.043-.948.582-1.01 1.563-.012.17.002.342.036.505l-.926-.058-1.223-4.742 8.585.538-1.813 4.552zm-4.833-11.675l5.55.348 1.223 4.743-8.585-.538 1.813-4.552zm2.97-2.275h.03c.258 0 .475-.2.492-.46l.12-1.9c.017-.27-.19-.503-.46-.52-.276-.018-.507.187-.524.458l-.12 1.9c-.017.27.19.503.46.52zm1.457.09c.116 0 .232-.04.326-.122l.99-.868c.203-.18.223-.488.043-.692-.18-.203-.492-.223-.697-.044l-.99.867c-.203.178-.223.488-.043.692.098.11.234.166.37.166zm-3.3-.35c.097.11.233.166.37.166.116 0 .232-.04.326-.123.204-.178.224-.487.044-.69l-.872-.986c-.18-.203-.49-.223-.695-.043-.204.18-.224.49-.044.693l.87.984zm-17.2 7.058l1.403 3.397c.076.184.257.304.456.304h.037l3.68-.28c.213-.016.39-.167.44-.374l.872-3.57.01-.172-.037-.17-1.404-3.395c-.082-.197-.282-.32-.494-.302l-3.68.28c-.213.015-.39.166-.44.372l-.87 3.57-.012.172.037.17zm5.145 2.47l-2.966.224-1.01-2.443 4.6-.35-.625 2.568zm-3.428-5.804l2.966-.224 1.01 2.443-4.603.35.626-2.567zm2.432 7.864l-1.22 1.997-.058.146-.002.006-.002.012-.013.155.195 2.328c.018.212.17.39.38.437l2.285.536.113.013c.17 0 .33-.087.422-.236l1.217-1.997.06-.147.02-.132-.008-.085-.192-2.285c-.018-.212-.17-.388-.378-.437l-2.286-.535c-.207-.05-.423.04-.534.223zm1.442 4.582l-1.59-.372-.108-1.3 2.378.556-.68 1.116zm.804-3.397l.108 1.302-2.378-.557.68-1.116 1.59.37zm1.603-11.556l.028.117.484 1.207c.075.187.257.31.457.31l.032-.002 1.302-.085c.213-.014.393-.163.445-.368l.32-1.26.014-.12-.002-.037-.004-.043-.03-.116-.483-1.206c-.08-.197-.276-.32-.49-.307l-1.302.085c-.213.014-.393.163-.445.368l-.32 1.26-.015.12.002.037.003.042zm1.196-.872l.587-.04.295.735-.196.766-.588.04-.294-.735.196-.766zm16.602 5.372c.034.21.2.373.41.406l1.63.25.077.006c.183 0 .354-.102.44-.27l.744-1.464.04-.118.005-.034.006-.04v-.125l-.265-1.62c-.034-.21-.2-.373-.41-.406l-1.63-.252c-.213-.032-.42.074-.517.263l-.744 1.466-.04.118-.006.035-.006.04.002.123.264 1.62zm1.247-2.643l.923.144.182 1.12-.514 1.014-.923-.142-.182-1.12.516-1.014zm-1.508 13.415l.333 1.018c.066.202.255.34.47.34h1.074c.213 0 .403-.138.47-.34l.332-1.018.02-.116v-.084l-.02-.116-.333-1.018c-.065-.202-.255-.34-.47-.34H27.98c-.214 0-.404.138-.47.34l-.333 1.018-.02.116-.002.042v.04l.022.117zm1.16-.69h.36l.173.533-.174.533h-.36l-.174-.532.174-.533zM9.39 129.523l.41.223.225.408c.087.158.252.255.432.255s.346-.1.432-.256l.223-.408.41-.223c.158-.086.256-.25.256-.43s-.1-.345-.257-.43l-.41-.224-.224-.41c-.087-.157-.253-.254-.433-.254s-.346.098-.432.255l-.224.41-.41.222c-.157.086-.255.25-.255.43s.098.344.256.43zm16.927 13.887c-.087-.157-.252-.255-.433-.255-.18 0-.346.098-.432.255l-.225.407-.41.223c-.158.086-.256.25-.256.43s.1.345.257.43l.41.224.224.408c.087.157.253.255.433.255s.346-.098.433-.255l.224-.407.41-.223c.158-.086.257-.25.257-.43s-.098-.344-.257-.43l-.41-.224-.224-.407zm3.873-10.757c-.087-.157-.252-.255-.432-.255s-.346.098-.432.255l-.225.408-.41.224c-.157.086-.255.25-.255.43s.098.344.256.43l.41.223.225.408c.086.158.252.255.432.255s.346-.098.432-.255l.223-.408.41-.223c.158-.086.257-.25.257-.43s-.098-.344-.257-.43l-.41-.223-.224-.407zm1.12 12.548h-3.127c-.273 0-.493.22-.493.49v1.238h-1.892c-.272 0-.492.22-.492.49v.445h-.5v-.96c0-.27-.22-.49-.492-.49h-1.657v-.004c0-.272-.22-.49-.493-.49h-5.237c-.273 0-.493.22-.493.49v1.35h-1.638c-.273 0-.493.22-.493.49v1.51c0 .27.22.49.493.49.272 0 .492-.22.492-.49v-1.018h1.64c.27 0 .492-.22.492-.49v-1.35h4.252v.003c0 .27.22.49.493.49h1.656v.96c0 .27.222.49.494.49H25.8c.27 0 .492-.22.492-.49v-.446h1.892c.272 0 .493-.22.493-.49v-1.238h2.634c.273 0 .494-.22.494-.49s-.22-.49-.493-.49z" fill="#206FAC"/><path d="M11.475 93.966c-.17-.128-.42-.128-.59 0-.193.142-.255.4-.146.614.033.067.08.125.14.17.087.065.19.1.3.1.105 0 .21-.034.294-.097.19-.142.253-.4.146-.613-.034-.068-.084-.127-.145-.172zm-8.513.47c-.17-.128-.422-.13-.593-.002-.126.092-.2.238-.2.394 0 .154.074.3.198.392.086.064.19.1.297.1.106 0 .21-.036.295-.1.115-.084.187-.215.197-.358.01-.142-.043-.282-.144-.382l-.05-.043zM1.788 98.44c.086.063.19.098.298.098.106 0 .21-.034.295-.097.192-.14.254-.4.148-.612-.034-.068-.084-.127-.145-.173-.17-.127-.42-.128-.592 0-.19.142-.252.402-.144.615l.142.17zM26.15 82.317c.086.064.19.1.298.1.106 0 .21-.035.294-.098.19-.142.253-.4.147-.613-.035-.068-.085-.127-.146-.173-.17-.127-.42-.128-.59 0-.193.14-.255.402-.147.615l.142.17zM7.098 83.714c.086.064.19.098.297.098.106 0 .21-.034.295-.097.115-.085.187-.216.198-.358.01-.143-.043-.283-.145-.383l-.05-.043c-.17-.127-.422-.128-.593 0-.125.09-.198.238-.198.393 0 .154.073.3.197.392zm15.518 19.965c1.583-.817 2.37-1.637 2.337-2.44-.038-.927-.933-1.175-1.456-1.175-1.088 0-4.142.88-5.044 1.146H13.77l.17-.123.012-.01c.25-.186 1.058-.873.925-1.804-.047-.332-.262-.94-1.167-1.282-.332-.125-.645-.244-3.424 1.146-1.006.504-2.82 1.472-3.662 2.307-1.426 1.387-5.532 8.314-5.996 9.1-.276.467-.12 1.068.35 1.342.157.092.33.135.498.135.338 0 .668-.173.85-.484 1.77-3 4.743-7.788 5.677-8.692l.01-.01c.398-.395 1.216-.908 2.106-1.397-.31.255-.434.674-.308 1.058.133.404.51.676.937.676h5.87c-1.474.155-2.963.37-4.224.618-2.78.543-3.203.964-3.406 1.167-1.586 1.578-2.216 5.497-2.282 5.94-.08.534.29 1.034.828 1.114.538.08 1.04-.29 1.12-.825.213-1.405.858-3.933 1.698-4.813.515-.306 3.508-1.024 7.618-1.356 2.114-.17 3.818-.912 4.645-1.337zm-7.35-6.002c.105.41.466.708.892.735l6.98.438.06.002c.403 0 .767-.244.917-.62l2.575-6.468c.04-.1.06-.203.066-.308l.01-.13c0-.106-.018-.21-.05-.305l-1.722-6.676c-.106-.41-.467-.708-.893-.735l-6.978-.44c-.427-.026-.82.224-.978.62l-2.575 6.468c-.044.11-.067.223-.07.336v.004c-.012.113-.003.228.026.34l1.738 6.74zm3.603-1.563c.023-.377.06-.56.088-.644.217-.01.614-.038.973-.515.11-.145.2-.295.272-.446.318.776.55 1.47.535 1.722-.012.184-.077.353-.18.492l-1.572-.1c-.086-.153-.127-.328-.116-.51zm3.676.733l-.926-.058c.054-.158.09-.323.1-.497.055-.868-1.044-3.174-1.265-3.628-.105-.215-.35-.322-.58-.256-.23.065-.38.288-.353.524 0 .008.083.816-.38 1.432-.087.116-.108.118-.245.125-.77.043-.948.582-1.01 1.563-.012.17.002.342.036.505l-.926-.058-1.223-4.742 8.585.538-1.813 4.552zm-4.833-11.675l5.55.348 1.223 4.743-8.585-.538 1.813-4.552zm2.97-2.275h.03c.258 0 .475-.2.492-.46l.12-1.9c.017-.27-.19-.503-.46-.52-.276-.018-.507.187-.524.458l-.12 1.9c-.017.27.19.503.46.52zm1.457.09c.116 0 .232-.04.326-.122l.99-.868c.203-.18.223-.488.043-.692-.18-.203-.492-.223-.697-.044l-.99.867c-.203.178-.223.488-.043.692.098.11.234.166.37.166zm-3.3-.35c.097.11.233.166.37.166.116 0 .232-.04.326-.123.204-.178.224-.487.044-.69l-.872-.986c-.18-.203-.49-.223-.695-.043-.204.18-.224.49-.044.693l.87.984zm-17.2 7.058l1.403 3.397c.076.184.257.304.456.304h.037l3.68-.28c.213-.016.39-.167.44-.374l.872-3.57.01-.172-.037-.17L7.1 85.436c-.082-.197-.282-.32-.494-.302l-3.68.28c-.213.015-.39.166-.44.372l-.87 3.57-.012.172.037.17zm5.145 2.47l-2.966.224-1.01-2.443 4.6-.35-.625 2.568zM3.357 86.36l2.966-.224 1.01 2.443-4.603.35.626-2.567zm2.432 7.864l-1.22 1.997-.058.146-.002.006-.002.012-.013.155.195 2.328c.018.212.17.39.38.437l2.285.536.113.013c.17 0 .33-.087.422-.236l1.217-1.997.06-.147.02-.132-.008-.085-.192-2.285c-.018-.212-.17-.388-.378-.437l-2.286-.535c-.207-.05-.423.04-.534.223zm1.442 4.582l-1.59-.372-.108-1.3 2.378.556-.68 1.116zm.804-3.397l.108 1.302-2.378-.557.68-1.116 1.59.37zM9.64 83.855l.028.117.484 1.207c.075.187.257.31.457.31l.032-.002 1.302-.085c.213-.014.393-.163.445-.368l.32-1.26.014-.12-.002-.037-.004-.043-.03-.116-.483-1.206c-.08-.197-.276-.32-.49-.307l-1.302.085c-.213.014-.393.163-.445.368l-.32 1.26-.015.12.002.037.003.042zm1.196-.872l.587-.04.295.735-.196.766-.588.04-.294-.735.196-.766zm16.602 5.372c.034.21.2.373.41.406l1.63.25.077.006c.183 0 .354-.102.44-.27l.744-1.464.04-.118.005-.034.006-.04v-.125l-.265-1.62c-.034-.21-.2-.373-.41-.406l-1.63-.252c-.213-.032-.42.074-.517.263l-.744 1.466-.04.118-.006.035-.006.04.002.123.264 1.62zm1.247-2.643l.923.144.182 1.12-.514 1.014-.923-.142-.182-1.12.516-1.014zm-1.508 13.415l.333 1.018c.066.202.255.34.47.34h1.074c.213 0 .403-.138.47-.34l.332-1.018.02-.116v-.084l-.02-.116-.333-1.018c-.065-.202-.255-.34-.47-.34H27.98c-.214 0-.404.138-.47.34l-.333 1.018-.02.116-.002.042v.04l.022.117zm1.16-.69h.36l.173.533-.174.533h-.36l-.174-.532.174-.533zM9.39 89.523l.41.223.225.408c.087.158.252.255.432.255s.346-.1.432-.256l.223-.408.41-.223c.158-.086.256-.25.256-.43s-.1-.345-.257-.43l-.41-.224-.224-.41c-.087-.157-.253-.254-.433-.254s-.346.098-.432.255l-.224.41-.41.222c-.157.086-.255.25-.255.43s.098.344.256.43zm16.927 13.887c-.087-.157-.252-.255-.433-.255-.18 0-.346.098-.432.255l-.225.407-.41.223c-.158.086-.256.25-.256.43s.1.345.257.43l.41.224.224.408c.087.157.253.255.433.255s.346-.098.433-.255l.224-.407.41-.223c.158-.086.257-.25.257-.43s-.098-.344-.257-.43l-.41-.224-.224-.407zm3.873-10.757c-.087-.157-.252-.255-.432-.255s-.346.098-.432.255l-.225.408-.41.224c-.157.086-.255.25-.255.43s.098.344.256.43l.41.223.225.408c.086.158.252.255.432.255s.346-.098.432-.255l.223-.408.41-.223c.158-.086.257-.25.257-.43s-.098-.344-.257-.43l-.41-.223-.224-.407zm1.12 12.548h-3.127c-.273 0-.493.22-.493.49v1.238h-1.892c-.272 0-.492.22-.492.49v.445h-.5v-.96c0-.27-.22-.49-.492-.49h-1.657v-.004c0-.272-.22-.49-.493-.49h-5.237c-.273 0-.493.22-.493.49v1.35h-1.638c-.273 0-.493.22-.493.49v1.51c0 .27.22.49.493.49.272 0 .492-.22.492-.49v-1.018h1.64c.27 0 .492-.22.492-.49v-1.35h4.252v.003c0 .27.22.49.493.49h1.656v.96c0 .27.222.49.494.49H25.8c.27 0 .492-.22.492-.49v-.446h1.892c.272 0 .493-.22.493-.49v-1.238h2.634c.273 0 .494-.22.494-.49s-.22-.49-.493-.49z" fill="#fff"/><path d="M11.475 53.966c-.17-.128-.42-.128-.59 0-.193.142-.255.4-.146.614.033.067.08.125.14.17.087.065.19.1.3.1.105 0 .21-.034.294-.097.19-.142.253-.4.146-.613-.034-.068-.084-.127-.145-.172zm-8.513.47c-.17-.128-.422-.13-.593-.002-.126.092-.2.238-.2.394 0 .154.074.3.198.392.086.064.19.1.297.1.106 0 .21-.036.295-.1.115-.084.187-.215.197-.358.01-.142-.043-.282-.144-.382l-.05-.043zM1.788 58.44c.086.063.19.098.298.098.106 0 .21-.034.295-.097.192-.14.254-.4.148-.612-.034-.068-.084-.127-.145-.173-.17-.127-.42-.128-.592 0-.19.142-.252.402-.144.615l.142.17zM26.15 42.317c.086.064.19.1.298.1.106 0 .21-.035.294-.098.19-.142.253-.4.147-.613-.035-.068-.085-.127-.146-.173-.17-.127-.42-.128-.59 0-.193.14-.255.402-.147.615l.142.17zM7.098 43.714c.086.064.19.098.297.098.106 0 .21-.034.295-.097.115-.085.187-.216.198-.358.01-.143-.043-.283-.145-.383l-.05-.043c-.17-.127-.422-.128-.593 0-.125.09-.198.238-.198.393 0 .154.073.3.197.392zM22.616 63.68c1.583-.817 2.37-1.637 2.337-2.44-.038-.927-.933-1.175-1.456-1.175-1.088 0-4.142.88-5.044 1.146H13.77l.17-.123.012-.01c.25-.186 1.058-.873.925-1.804-.047-.332-.262-.94-1.167-1.282-.332-.125-.645-.244-3.424 1.146-1.006.504-2.82 1.472-3.662 2.307-1.426 1.387-5.532 8.314-5.996 9.1-.276.467-.12 1.068.35 1.342.157.092.33.135.498.135.338 0 .668-.173.85-.484 1.77-3 4.743-7.788 5.677-8.692l.01-.01c.398-.395 1.216-.908 2.106-1.397-.31.255-.434.674-.308 1.058.133.404.51.676.937.676h5.87c-1.474.155-2.963.37-4.224.618-2.78.543-3.203.964-3.406 1.167-1.586 1.578-2.216 5.497-2.282 5.94-.08.534.29 1.034.828 1.114.538.08 1.04-.29 1.12-.825.213-1.405.858-3.933 1.698-4.813.515-.306 3.508-1.024 7.618-1.356 2.114-.17 3.818-.912 4.645-1.337zm-7.35-6.002c.105.41.466.708.892.735l6.98.438.06.002c.403 0 .767-.244.917-.62l2.575-6.468c.04-.1.06-.203.066-.308l.01-.13c0-.106-.018-.21-.05-.305l-1.722-6.676c-.106-.41-.467-.708-.893-.735l-6.978-.44c-.427-.026-.82.224-.978.62l-2.575 6.468c-.044.11-.067.223-.07.336v.004c-.012.113-.003.228.026.34l1.738 6.74zm3.603-1.563c.023-.377.06-.56.088-.644.217-.01.614-.038.973-.515.11-.145.2-.295.272-.446.318.776.55 1.47.535 1.722-.012.184-.077.353-.18.492l-1.572-.1c-.086-.153-.127-.328-.116-.51zm3.676.733l-.926-.058c.054-.158.09-.323.1-.497.055-.868-1.044-3.174-1.265-3.628-.105-.215-.35-.322-.58-.256-.23.065-.38.288-.353.524 0 .008.083.816-.38 1.432-.087.116-.108.118-.245.125-.77.043-.948.582-1.01 1.563-.012.17.002.342.036.505l-.926-.058-1.223-4.742 8.585.538-1.813 4.552zm-4.833-11.675l5.55.348 1.223 4.743-8.585-.538 1.813-4.552zm2.97-2.275h.03c.258 0 .475-.2.492-.46l.12-1.9c.017-.27-.19-.503-.46-.52-.276-.018-.507.187-.524.458l-.12 1.9c-.017.27.19.503.46.52zm1.457.09c.116 0 .232-.04.326-.122l.99-.868c.203-.18.223-.488.043-.692-.18-.203-.492-.223-.697-.044l-.99.867c-.203.178-.223.488-.043.692.098.11.234.166.37.166zm-3.3-.35c.097.11.233.166.37.166.116 0 .232-.04.326-.123.204-.178.224-.487.044-.69l-.872-.986c-.18-.203-.49-.223-.695-.043-.204.18-.224.49-.044.693l.87.984zm-17.2 7.058l1.403 3.397c.076.184.257.304.456.304h.037l3.68-.28c.213-.016.39-.167.44-.374l.872-3.57.01-.172-.037-.17L7.1 45.436c-.082-.197-.282-.32-.494-.302l-3.68.28c-.213.015-.39.166-.44.372l-.87 3.57-.012.172.037.17zm5.145 2.47l-2.966.224-1.01-2.443 4.6-.35-.625 2.568zM3.357 46.36l2.966-.224 1.01 2.443-4.603.35.626-2.567zm2.432 7.864l-1.22 1.997-.058.146-.002.006-.002.012-.013.155.195 2.328c.018.212.17.39.38.437l2.285.536.113.013c.17 0 .33-.087.422-.236l1.217-1.997.06-.147.02-.132-.008-.085-.192-2.285c-.018-.212-.17-.388-.378-.437l-2.286-.535c-.207-.05-.423.04-.534.223zm1.442 4.582l-1.59-.372-.108-1.3 2.378.556-.68 1.116zm.804-3.397l.108 1.302-2.378-.557.68-1.116 1.59.37zM9.64 43.855l.028.117.484 1.207c.075.187.257.31.457.31l.032-.002 1.302-.085c.213-.014.393-.163.445-.368l.32-1.26.014-.12-.002-.037-.004-.043-.03-.116-.483-1.206c-.08-.197-.276-.32-.49-.307l-1.302.085c-.213.014-.393.163-.445.368l-.32 1.26-.015.12.002.037.003.042zm1.196-.872l.587-.04.295.735-.196.766-.588.04-.294-.735.196-.766zm16.602 5.372c.034.21.2.373.41.406l1.63.25.077.006c.183 0 .354-.102.44-.27l.744-1.464.04-.118.005-.034.006-.04v-.125l-.265-1.62c-.034-.21-.2-.373-.41-.406l-1.63-.252c-.213-.032-.42.074-.517.263l-.744 1.466-.04.118-.006.035-.006.04.002.123.264 1.62zm1.247-2.643l.923.144.182 1.12-.514 1.014-.923-.142-.182-1.12.516-1.014zm-1.508 13.415l.333 1.018c.066.202.255.34.47.34h1.074c.213 0 .403-.138.47-.34l.332-1.018.02-.116v-.084l-.02-.116-.333-1.018c-.065-.202-.255-.34-.47-.34H27.98c-.214 0-.404.138-.47.34l-.333 1.018-.02.116-.002.042v.04l.022.117zm1.16-.69h.36l.173.533-.174.533h-.36l-.174-.532.174-.533zM9.39 49.523l.41.223.225.408c.087.158.252.255.432.255s.346-.1.432-.256l.223-.408.41-.223c.158-.086.256-.25.256-.43s-.1-.345-.257-.43l-.41-.224-.224-.41c-.087-.157-.253-.254-.433-.254s-.346.098-.432.255l-.224.41-.41.222c-.157.086-.255.25-.255.43s.098.344.256.43zM26.318 63.41c-.087-.157-.252-.255-.433-.255-.18 0-.346.098-.432.255l-.225.407-.41.223c-.158.086-.256.25-.256.43s.1.345.257.43l.41.224.224.408c.087.157.253.255.433.255s.346-.098.433-.255l.224-.407.41-.223c.158-.086.257-.25.257-.43s-.098-.344-.257-.43l-.41-.224-.224-.407zm3.873-10.757c-.087-.157-.252-.255-.432-.255s-.346.098-.432.255l-.225.408-.41.224c-.157.086-.255.25-.255.43s.098.344.256.43l.41.223.225.408c.086.158.252.255.432.255s.346-.098.432-.255l.223-.408.41-.223c.158-.086.257-.25.257-.43s-.098-.344-.257-.43l-.41-.223-.224-.407zM31.31 65.2h-3.127c-.273 0-.493.22-.493.49v1.238h-1.892c-.272 0-.492.22-.492.49v.445h-.5v-.96c0-.27-.22-.49-.492-.49h-1.657v-.004c0-.272-.22-.49-.493-.49h-5.237c-.273 0-.493.22-.493.49v1.35h-1.638c-.273 0-.493.22-.493.49v1.51c0 .27.22.49.493.49.272 0 .492-.22.492-.49v-1.018h1.64c.27 0 .492-.22.492-.49v-1.35h4.252v.003c0 .27.22.49.493.49h1.656v.96c0 .27.222.49.494.49H25.8c.27 0 .492-.22.492-.49v-.446h1.892c.272 0 .493-.22.493-.49V66.18h2.634c.273 0 .494-.22.494-.49s-.22-.49-.493-.49z" fill="#67737B"/><path d="M11.475 13.966c-.17-.128-.42-.128-.59 0-.193.142-.255.4-.146.614.033.067.08.125.14.17.087.065.19.1.3.1.105 0 .21-.034.294-.097.19-.142.253-.4.146-.613-.034-.068-.084-.127-.145-.172zm-8.513.47c-.17-.128-.422-.13-.593-.002-.126.092-.2.238-.2.394 0 .154.074.3.198.392.086.064.19.1.297.1.106 0 .21-.036.295-.1.115-.084.187-.215.197-.358.01-.142-.043-.282-.144-.382l-.05-.043zM1.788 18.44c.086.063.19.098.298.098.106 0 .21-.034.295-.097.192-.14.254-.4.148-.612-.034-.068-.084-.127-.145-.173-.17-.127-.42-.128-.592 0-.19.142-.252.402-.144.615l.142.17zM26.15 2.317c.086.064.19.1.298.1.106 0 .21-.035.294-.098.19-.142.253-.4.147-.613-.035-.068-.085-.127-.146-.173-.17-.127-.42-.128-.59 0-.193.14-.255.402-.147.615l.142.17zM7.098 3.714c.086.064.19.098.297.098.106 0 .21-.034.295-.097.115-.085.187-.216.198-.358.01-.143-.043-.283-.145-.383l-.05-.043c-.17-.127-.422-.128-.593 0-.125.09-.198.238-.198.393 0 .154.073.3.197.392zM22.616 23.68c1.583-.817 2.37-1.637 2.337-2.44-.038-.927-.933-1.175-1.456-1.175-1.088 0-4.142.88-5.044 1.146H13.77l.17-.123.012-.01c.25-.186 1.058-.873.925-1.804-.047-.332-.262-.94-1.167-1.282-.332-.125-.645-.244-3.424 1.146-1.006.504-2.82 1.472-3.662 2.307-1.426 1.387-5.532 8.314-5.996 9.1-.276.467-.12 1.068.35 1.342.157.092.33.135.498.135.338 0 .668-.173.85-.484 1.77-3 4.743-7.788 5.677-8.692l.01-.01c.398-.395 1.216-.908 2.106-1.397-.31.255-.434.674-.308 1.058.133.404.51.676.937.676h5.87c-1.474.155-2.963.37-4.224.618-2.78.543-3.203.964-3.406 1.167-1.586 1.578-2.216 5.497-2.282 5.94-.08.534.29 1.034.828 1.114.538.08 1.04-.29 1.12-.825.213-1.405.858-3.933 1.698-4.813.515-.306 3.508-1.024 7.618-1.356 2.114-.17 3.818-.912 4.645-1.337zm-7.35-6.002c.105.41.466.708.892.735l6.98.438.06.002c.403 0 .767-.244.917-.62l2.575-6.468c.04-.1.06-.203.066-.308l.01-.13c0-.106-.018-.21-.05-.305l-1.722-6.676c-.106-.41-.467-.708-.893-.735l-6.978-.44c-.427-.026-.82.224-.978.62l-2.575 6.468c-.044.11-.067.223-.07.336v.004c-.012.113-.003.228.026.34l1.738 6.74zm3.603-1.563c.023-.377.06-.56.088-.644.217-.01.614-.038.973-.515.11-.145.2-.295.272-.446.318.776.55 1.47.535 1.722-.012.184-.077.353-.18.492l-1.572-.1c-.086-.153-.127-.328-.116-.51zm3.676.733l-.926-.058c.054-.158.09-.323.1-.497.055-.868-1.044-3.174-1.265-3.628-.105-.215-.35-.322-.58-.256-.23.065-.38.288-.353.524 0 .008.083.816-.38 1.432-.087.116-.108.118-.245.125-.77.043-.948.582-1.01 1.563-.012.17.002.342.036.505l-.926-.058-1.223-4.742 8.585.538-1.813 4.552zM17.713 5.173l5.55.348 1.223 4.743-8.585-.538 1.813-4.552zm2.97-2.275h.03c.258 0 .475-.2.492-.46l.12-1.9c.017-.27-.19-.503-.46-.52-.276-.018-.507.187-.524.458l-.12 1.9c-.017.27.19.503.46.52zm1.457.09c.116 0 .232-.04.326-.122l.99-.868c.203-.18.223-.488.043-.692-.18-.203-.492-.223-.697-.044l-.99.867c-.203.178-.223.488-.043.692.098.11.234.166.37.166zm-3.3-.35c.097.11.233.166.37.166.116 0 .232-.04.326-.123.204-.178.224-.487.044-.69l-.872-.986c-.18-.203-.49-.223-.695-.043-.204.18-.224.49-.044.693l.87.984zM1.64 9.696l1.403 3.397c.076.184.257.304.456.304h.037l3.68-.28c.213-.016.39-.167.44-.374l.872-3.57.01-.172-.037-.17L7.1 5.436c-.082-.197-.282-.32-.494-.302l-3.68.28c-.213.015-.39.166-.44.372l-.87 3.57-.012.172.037.17zm5.145 2.47l-2.966.224-1.01-2.443 4.6-.35-.625 2.568zM3.357 6.36l2.966-.224 1.01 2.443-4.603.35.626-2.567zm2.432 7.864l-1.22 1.997-.058.146-.002.006-.002.012-.013.155.195 2.328c.018.212.17.39.38.437l2.285.536.113.013c.17 0 .33-.087.422-.236l1.217-1.997.06-.147.02-.132-.008-.085-.192-2.285c-.018-.212-.17-.388-.378-.437l-2.286-.535c-.207-.05-.423.04-.534.223zm1.442 4.582l-1.59-.372-.108-1.3 2.378.556-.68 1.116zm.804-3.397l.108 1.302-2.378-.557.68-1.116 1.59.37zM9.64 3.855l.028.117.484 1.207c.075.187.257.31.457.31l.032-.002 1.302-.085c.213-.014.393-.163.445-.368l.32-1.26.014-.12-.002-.037-.004-.043-.03-.116-.483-1.206c-.08-.197-.276-.32-.49-.307l-1.302.085c-.213.014-.393.163-.445.368l-.32 1.26-.015.12.002.037.003.042zm1.196-.872l.587-.04.295.735-.196.766-.588.04-.294-.735.196-.766zm16.602 5.372c.034.21.2.373.41.406l1.63.25.077.006c.183 0 .354-.102.44-.27l.744-1.464.04-.118.005-.034.006-.04v-.125l-.265-1.62c-.034-.21-.2-.373-.41-.406l-1.63-.252c-.213-.032-.42.074-.517.263l-.744 1.466-.04.118-.006.035-.006.04.002.123.264 1.62zm1.247-2.643l.923.144.182 1.12-.514 1.014-.923-.142-.182-1.12.516-1.014zm-1.508 13.415l.333 1.018c.066.202.255.34.47.34h1.074c.213 0 .403-.138.47-.34l.332-1.018.02-.116v-.084l-.02-.116-.333-1.018c-.065-.202-.255-.34-.47-.34H27.98c-.214 0-.404.138-.47.34l-.333 1.018-.02.116-.002.042v.04l.022.117zm1.16-.69h.36l.173.533-.174.533h-.36l-.174-.532.174-.533zM9.39 9.523l.41.223.225.408c.087.158.252.255.432.255s.346-.1.432-.256l.223-.408.41-.223c.158-.086.256-.25.256-.43s-.1-.345-.257-.43l-.41-.224-.224-.41c-.087-.157-.253-.254-.433-.254s-.346.098-.432.255l-.224.41-.41.222c-.157.086-.255.25-.255.43s.098.344.256.43zM26.318 23.41c-.087-.157-.252-.255-.433-.255-.18 0-.346.098-.432.255l-.225.407-.41.223c-.158.086-.256.25-.256.43s.1.345.257.43l.41.224.224.408c.087.157.253.255.433.255s.346-.098.433-.255l.224-.407.41-.223c.158-.086.257-.25.257-.43s-.098-.344-.257-.43l-.41-.224-.224-.407zm3.873-10.757c-.087-.157-.252-.255-.432-.255s-.346.098-.432.255l-.225.408-.41.224c-.157.086-.255.25-.255.43s.098.344.256.43l.41.223.225.408c.086.158.252.255.432.255s.346-.098.432-.255l.223-.408.41-.223c.158-.086.257-.25.257-.43s-.098-.344-.257-.43l-.41-.223-.224-.407zM31.31 25.2h-3.127c-.273 0-.493.22-.493.49v1.238h-1.892c-.272 0-.492.22-.492.49v.445h-.5v-.96c0-.27-.22-.49-.492-.49h-1.657v-.004c0-.272-.22-.49-.493-.49h-5.237c-.273 0-.493.22-.493.49v1.35h-1.638c-.273 0-.493.22-.493.49v1.51c0 .27.22.49.493.49.272 0 .492-.22.492-.49v-1.018h1.64c.27 0 .492-.22.492-.49v-1.35h4.252v.003c0 .27.22.49.493.49h1.656v.96c0 .27.222.49.494.49H25.8c.27 0 .492-.22.492-.49v-.446h1.892c.272 0 .493-.22.493-.49V26.18h2.634c.273 0 .494-.22.494-.49s-.22-.49-.493-.49z" fill="#3A434E"/></g></svg>