<svg width="32" height="232" viewBox="0 0 32 232" xmlns="http://www.w3.org/2000/svg" xmlns:sketch="http://www.bohemiancoding.com/sketch/ns"><title>chiang-mai</title><desc>Created with Sketch.</desc><g sketch:type="MSPage" fill="none"><g sketch:type="MSShapeGroup"><path d="M11.475 133.966c-.17-.128-.42-.128-.591-.001-.192.143-.254.402-.145.615.034.067.082.125.142.17.086.065.19.1.298.1.106 0 .21-.034.295-.097.191-.142.253-.4.146-.613-.034-.068-.084-.127-.145-.172zm-8.513.47c-.171-.128-.422-.129-.593-.002-.125.092-.198.238-.198.394 0 .154.073.299.197.392.086.064.19.099.297.099.106 0 .21-.035.295-.098.115-.085.187-.216.197-.359.01-.142-.043-.282-.144-.382l-.05-.043zm-1.174 4.003c.086.064.19.099.298.099.106 0 .21-.034.295-.097.191-.142.253-.401.147-.613-.034-.068-.084-.127-.145-.173-.17-.127-.421-.128-.592-.001-.192.143-.253.403-.145.616l.142.17zm24.362-16.121c.086.064.191.099.298.099.106 0 .209-.034.294-.097.191-.142.253-.401.147-.613-.034-.068-.084-.127-.145-.173-.17-.127-.421-.128-.591-.001-.192.142-.254.403-.146.616l.142.17zm-19.052 1.396c.086.064.19.098.297.098.106 0 .21-.034.295-.097.115-.085.187-.216.198-.358.01-.143-.043-.283-.145-.383l-.05-.043c-.171-.128-.422-.129-.593-.002-.125.092-.198.239-.198.394 0 .154.073.299.197.392zm15.518 19.965c1.583-.816 2.37-1.636 2.337-2.438-.038-.928-.933-1.176-1.456-1.176-1.088 0-4.142.879-5.044 1.146h-4.684l.17-.124.013-.009c.25-.187 1.058-.874.925-1.805-.047-.332-.262-.94-1.167-1.282-.332-.126-.645-.245-3.424 1.145-1.006.504-2.819 1.472-3.662 2.307-1.426 1.387-5.532 8.314-5.996 9.1-.276.467-.119 1.068.35 1.342.157.092.329.135.498.135.338 0 .668-.173.851-.484 1.77-2.999 4.742-7.788 5.676-8.692l.009-.009c.399-.396 1.217-.909 2.107-1.398-.309.255-.433.674-.307 1.058.133.404.511.676.937.676h5.87c-1.473.154-2.962.37-4.223.617-2.78.543-3.203.964-3.406 1.167-1.586 1.578-2.216 5.497-2.282 5.939-.081.535.29 1.035.828 1.115.538.08 1.04-.289 1.121-.824.212-1.405.857-3.933 1.697-4.813.515-.306 3.508-1.024 7.618-1.356 2.114-.171 3.818-.912 4.645-1.337zm-7.351-6.001c.106.411.467.708.893.735l6.979.438.062.001c.402 0 .766-.244.916-.619l2.575-6.469c.039-.1.061-.203.066-.308l.009-.129c0-.107-.017-.21-.049-.306l-1.722-6.677c-.106-.411-.467-.708-.893-.735l-6.979-.438c-.427-.027-.821.223-.978.618l-2.575 6.469c-.043.109-.066.223-.069.336v.004c-.012.113-.003.228.026.341l1.738 6.74zm3.604-1.563c.024-.377.062-.56.089-.644.217-.012.614-.039.973-.516.109-.145.198-.295.271-.446.318.777.55 1.471.535 1.723-.012.184-.077.353-.181.492l-1.571-.099c-.086-.154-.127-.329-.116-.51zm3.677.733l-.926-.058c.054-.158.09-.323.1-.497.055-.868-1.044-3.174-1.265-3.628-.105-.215-.349-.322-.58-.256-.23.066-.379.289-.353.525.001.008.083.816-.38 1.432-.087.116-.108.118-.245.125-.769.042-.948.581-1.011 1.562-.011.171.003.342.037.505l-.926-.058-1.223-4.742 8.585.538-1.812 4.552zm-4.833-11.675l5.55.348 1.223 4.742-8.585-.538 1.812-4.552zm2.969-2.275h.031c.258 0 .475-.199.492-.46l.12-1.9c.017-.271-.19-.503-.461-.521-.275-.017-.506.188-.523.459l-.121 1.9c-.017.27.189.503.461.521zm1.458.09c.116 0 .232-.04.326-.122l.989-.868c.204-.179.224-.488.044-.692-.18-.203-.491-.223-.696-.044l-.989.867c-.204.179-.224.489-.044.693.098.109.234.166.37.166zm-3.3-.35c.097.11.233.166.37.166.116 0 .232-.04.326-.123.204-.179.224-.488.044-.692l-.872-.985c-.18-.203-.491-.223-.695-.043-.204.179-.224.489-.044.692l.872.984zm-17.201 7.058l1.404 3.397c.076.184.257.304.456.304l.038-.001 3.68-.279c.213-.016.391-.167.441-.374l.871-3.569.011-.173-.037-.17-1.404-3.396c-.081-.197-.281-.319-.493-.302l-3.68.279c-.213.016-.391.167-.441.373l-.87 3.569-.011.173.037.169zm5.146 2.469l-2.966.225-1.01-2.443 4.602-.349-.626 2.567zm-3.428-5.803l2.966-.224 1.01 2.443-4.603.349.626-2.567zm2.432 7.864l-1.218 1.997-.059.146-.002.007-.002.012-.013.155.195 2.328c.018.211.17.388.379.436l2.286.536.113.013c.169 0 .331-.087.422-.236l1.217-1.997.059-.147.02-.132-.007-.085-.191-2.284c-.018-.212-.17-.388-.378-.437l-2.286-.535c-.207-.049-.423.041-.534.223zm1.443 4.582l-1.589-.372-.109-1.301 2.378.557-.681 1.116zm.804-3.397l.108 1.301-2.378-.557.68-1.116 1.589.372zm1.603-11.557l.029.117.484 1.206c.075.187.257.309.457.309l.033-.001 1.302-.085c.213-.014.393-.163.445-.368l.321-1.259.014-.12-.002-.038-.004-.043-.029-.116-.484-1.206c-.079-.197-.276-.321-.49-.307l-1.302.085c-.213.014-.393.163-.445.368l-.321 1.259-.014.12.002.038.003.042zm1.197-.872l.587-.039.295.734-.196.766-.588.039-.294-.734.196-.766zm16.602 5.372c.034.21.2.373.411.406l1.63.25.076.006c.183 0 .354-.102.44-.269l.744-1.465.04-.118.006-.034.006-.041-.002-.124-.264-1.62c-.034-.21-.2-.373-.411-.406l-1.63-.251c-.212-.032-.419.074-.516.263l-.744 1.465-.04.118-.006.035-.006.04.002.124.264 1.621zm1.247-2.643l.923.143.182 1.121-.514 1.013-.923-.142-.182-1.121.515-1.013zm-1.508 13.414l.333 1.018c.066.202.255.339.469.339h1.075c.213 0 .403-.137.469-.339l.333-1.018.021-.116v-.083l-.021-.116-.333-1.018c-.065-.202-.255-.339-.469-.339h-1.075c-.213 0-.403.137-.469.339l-.333 1.018-.021.116-.001.042.001.041.021.116zm1.159-.69h.36l.174.533-.174.533h-.36l-.174-.533.174-.533zm-18.945-8.912l.41.223.224.408c.087.158.252.255.432.255.181 0 .346-.098.432-.255l.224-.408.41-.223c.158-.086.256-.251.256-.431 0-.179-.098-.344-.256-.43l-.41-.223-.224-.408c-.086-.158-.252-.255-.432-.255s-.346.098-.432.255l-.224.408-.41.223c-.158.086-.256.251-.256.43s.098.344.256.431zm16.926 13.887c-.087-.157-.252-.255-.433-.255-.18 0-.346.098-.432.255l-.225.407-.41.223c-.158.086-.256.251-.256.431 0 .179.098.344.256.43l.41.223.224.408c.086.157.252.255.432.255.181 0 .346-.098.433-.255l.224-.407.41-.223c.158-.086.257-.251.257-.43s-.098-.344-.257-.431l-.41-.223-.224-.407zm3.873-10.757c-.087-.157-.252-.255-.432-.255s-.346.098-.432.255l-.225.408-.41.223c-.158.086-.256.251-.256.43s.098.344.256.43l.41.223.224.408c.086.158.252.255.432.255s.346-.098.432-.255l.224-.408.41-.223c.158-.086.257-.251.257-.43s-.098-.344-.257-.43l-.41-.223-.224-.408zm1.12 12.548h-3.127c-.273 0-.493.219-.493.49v1.237h-1.892c-.272 0-.492.22-.492.49v.445h-.5v-.959c0-.271-.221-.491-.492-.491h-1.657v-.004c0-.271-.221-.49-.493-.49h-5.237c-.273 0-.493.22-.493.49v1.352h-1.638c-.273 0-.493.219-.493.49v1.509c0 .271.22.49.493.49.272 0 .492-.219.492-.49v-1.018h1.639c.272 0 .493-.22.493-.49v-1.351h4.252v.004c0 .27.22.49.493.49h1.656v.96c0 .271.221.49.493.49h1.485c.272 0 .493-.22.493-.49v-.446h1.892c.272 0 .493-.219.493-.49v-1.237h2.634c.272 0 .493-.22.493-.49 0-.271-.221-.49-.493-.49z" fill="#206FAC"/><path d="M11.475 93.966c-.17-.128-.42-.128-.591-.001-.192.143-.254.402-.145.615.034.067.082.125.142.17.086.065.19.1.298.1.106 0 .21-.034.295-.097.191-.142.253-.4.146-.613-.034-.068-.084-.127-.145-.172zm-8.513.47c-.171-.128-.422-.129-.593-.002-.125.092-.198.238-.198.394 0 .154.073.299.197.392.086.064.19.099.297.099.106 0 .21-.035.295-.098.115-.085.187-.216.197-.359.01-.142-.043-.282-.144-.382l-.05-.043zm-1.174 4.003c.086.064.19.099.298.099.106 0 .21-.034.295-.097.191-.142.253-.401.147-.613-.034-.068-.084-.127-.145-.173-.17-.127-.421-.128-.592-.001-.192.143-.253.403-.145.616l.142.17zm24.362-16.121c.086.064.191.099.298.099.106 0 .209-.034.294-.097.191-.142.253-.401.147-.613-.034-.068-.084-.127-.145-.173-.17-.127-.421-.128-.591-.001-.192.142-.254.403-.146.616l.142.17zm-19.052 1.396c.086.064.19.098.297.098.106 0 .21-.034.295-.097.115-.085.187-.216.198-.358.01-.143-.043-.283-.145-.383l-.05-.043c-.171-.128-.422-.129-.593-.002-.125.092-.198.239-.198.394 0 .154.073.299.197.392zm15.518 19.965c1.583-.816 2.37-1.636 2.337-2.438-.038-.928-.933-1.176-1.456-1.176-1.088 0-4.142.879-5.044 1.146h-4.684l.17-.124.013-.009c.25-.187 1.058-.874.925-1.805-.047-.332-.262-.94-1.167-1.282-.332-.126-.645-.245-3.424 1.145-1.006.504-2.819 1.472-3.662 2.307-1.426 1.387-5.532 8.314-5.996 9.1-.276.467-.119 1.068.35 1.342.157.092.329.135.498.135.338 0 .668-.173.851-.484 1.77-2.999 4.742-7.788 5.676-8.692l.009-.009c.399-.396 1.217-.909 2.107-1.398-.309.255-.433.674-.307 1.058.133.404.511.676.937.676h5.87c-1.473.154-2.962.37-4.223.617-2.78.543-3.203.964-3.406 1.167-1.586 1.578-2.216 5.497-2.282 5.939-.081.535.29 1.035.828 1.115.538.08 1.04-.289 1.121-.824.212-1.405.857-3.933 1.697-4.813.515-.306 3.508-1.024 7.618-1.356 2.114-.171 3.818-.912 4.645-1.337zm-7.351-6.001c.106.411.467.708.893.735l6.979.438.062.001c.402 0 .766-.244.916-.619l2.575-6.469c.039-.1.061-.203.066-.308l.009-.129c0-.107-.017-.21-.049-.306l-1.722-6.677c-.106-.411-.467-.708-.893-.735l-6.979-.438c-.427-.027-.821.223-.978.618l-2.575 6.469c-.043.109-.066.223-.069.336v.004c-.012.113-.003.228.026.341l1.738 6.74zm3.604-1.563c.024-.377.062-.56.089-.644.217-.012.614-.039.973-.516.109-.145.198-.295.271-.446.318.777.55 1.471.535 1.723-.012.184-.077.353-.181.492l-1.571-.099c-.086-.154-.127-.329-.116-.51zm3.677.733l-.926-.058c.054-.158.09-.323.1-.497.055-.868-1.044-3.174-1.265-3.628-.105-.215-.349-.322-.58-.256-.23.066-.379.289-.353.525.001.008.083.816-.38 1.432-.087.116-.108.118-.245.125-.769.042-.948.581-1.011 1.562-.011.171.003.342.037.505l-.926-.058-1.223-4.742 8.585.538-1.812 4.552zm-4.833-11.675l5.55.348 1.223 4.742-8.585-.538 1.812-4.552zm2.969-2.275h.031c.258 0 .475-.199.492-.46l.12-1.9c.017-.271-.19-.503-.461-.521-.275-.017-.506.188-.523.459l-.121 1.9c-.017.27.189.503.461.521zm1.458.09c.116 0 .232-.04.326-.122l.989-.868c.204-.179.224-.488.044-.692-.18-.203-.491-.223-.696-.044l-.989.867c-.204.179-.224.489-.044.693.098.109.234.166.37.166zm-3.3-.35c.097.11.233.166.37.166.116 0 .232-.04.326-.123.204-.179.224-.488.044-.692l-.872-.985c-.18-.203-.491-.223-.695-.043-.204.179-.224.489-.044.692l.872.984zm-17.201 7.058l1.404 3.397c.076.184.257.304.456.304l.038-.001 3.68-.279c.213-.016.391-.167.441-.374l.871-3.569.011-.173-.037-.17-1.404-3.396c-.081-.197-.281-.319-.493-.302l-3.68.279c-.213.016-.391.167-.441.373l-.87 3.569-.011.173.037.169zm5.146 2.469l-2.966.225-1.01-2.443 4.602-.349-.626 2.567zm-3.428-5.803l2.966-.224 1.01 2.443-4.603.349.626-2.567zm2.432 7.864l-1.218 1.997-.059.146-.002.007-.002.012-.013.155.195 2.328c.018.211.17.388.379.436l2.286.536.113.013c.169 0 .331-.087.422-.236l1.217-1.997.059-.147.02-.132-.007-.085-.191-2.284c-.018-.212-.17-.388-.378-.437l-2.286-.535c-.207-.049-.423.041-.534.223zm1.443 4.582l-1.589-.372-.109-1.301 2.378.557-.681 1.116zm.804-3.397l.108 1.301-2.378-.557.68-1.116 1.589.372zm1.603-11.557l.029.117.484 1.206c.075.187.257.309.457.309l.033-.001 1.302-.085c.213-.014.393-.163.445-.368l.321-1.259.014-.12-.002-.038-.004-.043-.029-.116-.484-1.206c-.079-.197-.276-.321-.49-.307l-1.302.085c-.213.014-.393.163-.445.368l-.321 1.259-.014.12.002.038.003.042zm1.197-.872l.587-.039.295.734-.196.766-.588.039-.294-.734.196-.766zm16.602 5.372c.034.21.2.373.411.406l1.63.25.076.006c.183 0 .354-.102.44-.269l.744-1.465.04-.118.006-.034.006-.041-.002-.124-.264-1.62c-.034-.21-.2-.373-.411-.406l-1.63-.251c-.212-.032-.419.074-.516.263l-.744 1.465-.04.118-.006.035-.006.04.002.124.264 1.621zm1.247-2.643l.923.143.182 1.121-.514 1.013-.923-.142-.182-1.121.515-1.013zm-1.508 13.414l.333 1.018c.066.202.255.339.469.339h1.075c.213 0 .403-.137.469-.339l.333-1.018.021-.116v-.083l-.021-.116-.333-1.018c-.065-.202-.255-.339-.469-.339h-1.075c-.213 0-.403.137-.469.339l-.333 1.018-.021.116-.001.042.001.041.021.116zm1.159-.69h.36l.174.533-.174.533h-.36l-.174-.533.174-.533zm-18.945-8.912l.41.223.224.408c.087.158.252.255.432.255.181 0 .346-.098.432-.255l.224-.408.41-.223c.158-.086.256-.251.256-.431 0-.179-.098-.344-.256-.43l-.41-.223-.224-.408c-.086-.158-.252-.255-.432-.255s-.346.098-.432.255l-.224.408-.41.223c-.158.086-.256.251-.256.43s.098.344.256.431zm16.926 13.887c-.087-.157-.252-.255-.433-.255-.18 0-.346.098-.432.255l-.225.407-.41.223c-.158.086-.256.251-.256.431 0 .179.098.344.256.43l.41.223.224.408c.086.157.252.255.432.255.181 0 .346-.098.433-.255l.224-.407.41-.223c.158-.086.257-.251.257-.43s-.098-.344-.257-.431l-.41-.223-.224-.407zm3.873-10.757c-.087-.157-.252-.255-.432-.255s-.346.098-.432.255l-.225.408-.41.223c-.158.086-.256.251-.256.43s.098.344.256.43l.41.223.224.408c.086.158.252.255.432.255s.346-.098.432-.255l.224-.408.41-.223c.158-.086.257-.251.257-.43s-.098-.344-.257-.43l-.41-.223-.224-.408zm1.12 12.548h-3.127c-.273 0-.493.219-.493.49v1.237h-1.892c-.272 0-.492.22-.492.49v.445h-.5v-.959c0-.271-.221-.491-.492-.491h-1.657v-.004c0-.271-.221-.49-.493-.49h-5.237c-.273 0-.493.22-.493.49v1.352h-1.638c-.273 0-.493.219-.493.49v1.509c0 .271.22.49.493.49.272 0 .492-.219.492-.49v-1.018h1.639c.272 0 .493-.22.493-.49v-1.351h4.252v.004c0 .27.22.49.493.49h1.656v.96c0 .271.221.49.493.49h1.485c.272 0 .493-.22.493-.49v-.446h1.892c.272 0 .493-.219.493-.49v-1.237h2.634c.272 0 .493-.22.493-.49 0-.271-.221-.49-.493-.49z" fill="#fff"/><path d="M11.475 53.966c-.17-.128-.42-.128-.591-.001-.192.143-.254.402-.145.615.034.067.082.125.142.17.086.065.19.1.298.1.106 0 .21-.034.295-.097.191-.142.253-.4.146-.613-.034-.068-.084-.127-.145-.172zm-8.513.47c-.171-.128-.422-.129-.593-.002-.125.092-.198.238-.198.394 0 .154.073.299.197.392.086.064.19.099.297.099.106 0 .21-.035.295-.098.115-.085.187-.216.197-.359.01-.142-.043-.282-.144-.382l-.05-.043zm-1.174 4.003c.086.064.19.099.298.099.106 0 .21-.034.295-.097.191-.142.253-.401.147-.613-.034-.068-.084-.127-.145-.173-.17-.127-.421-.128-.592-.001-.192.143-.253.403-.145.616l.142.17zm24.362-16.121c.086.064.191.099.298.099.106 0 .209-.034.294-.097.191-.142.253-.401.147-.613-.034-.068-.084-.127-.145-.173-.17-.127-.421-.128-.591-.001-.192.142-.254.403-.146.616l.142.17zm-19.052 1.396c.086.064.19.098.297.098.106 0 .21-.034.295-.097.115-.085.187-.216.198-.358.01-.143-.043-.283-.145-.383l-.05-.043c-.171-.128-.422-.129-.593-.002-.125.092-.198.239-.198.394 0 .154.073.299.197.392zm15.518 19.965c1.583-.816 2.37-1.636 2.337-2.438-.038-.928-.933-1.176-1.456-1.176-1.088 0-4.142.879-5.044 1.146h-4.684l.17-.124.013-.009c.25-.187 1.058-.874.925-1.805-.047-.332-.262-.94-1.167-1.282-.332-.126-.645-.245-3.424 1.145-1.006.504-2.819 1.472-3.662 2.307-1.426 1.387-5.532 8.314-5.996 9.1-.276.467-.119 1.068.35 1.342.157.092.329.135.498.135.338 0 .668-.173.851-.484 1.77-2.999 4.742-7.788 5.676-8.692l.009-.009c.399-.396 1.217-.909 2.107-1.398-.309.255-.433.674-.307 1.058.133.404.511.676.937.676h5.87c-1.473.154-2.962.37-4.223.617-2.78.543-3.203.964-3.406 1.167-1.586 1.578-2.216 5.497-2.282 5.939-.081.535.29 1.035.828 1.115.538.08 1.04-.289 1.121-.824.212-1.405.857-3.933 1.697-4.813.515-.306 3.508-1.024 7.618-1.356 2.114-.171 3.818-.912 4.645-1.337zm-7.351-6.001c.106.411.467.708.893.735l6.979.438.062.001c.402 0 .766-.244.916-.619l2.575-6.469c.039-.1.061-.203.066-.308l.009-.129c0-.107-.017-.21-.049-.306l-1.722-6.677c-.106-.411-.467-.708-.893-.735l-6.979-.438c-.427-.027-.821.223-.978.618l-2.575 6.469c-.043.109-.066.223-.069.336v.004c-.012.113-.003.228.026.341l1.738 6.74zm3.604-1.563c.024-.377.062-.56.089-.644.217-.012.614-.039.973-.516.109-.145.198-.295.271-.446.318.777.55 1.471.535 1.723-.012.184-.077.353-.181.492l-1.571-.099c-.086-.154-.127-.329-.116-.51zm3.677.733l-.926-.058c.054-.158.09-.323.1-.497.055-.868-1.044-3.174-1.265-3.628-.105-.215-.349-.322-.58-.256-.23.066-.379.289-.353.525.001.008.083.816-.38 1.432-.087.116-.108.118-.245.125-.769.042-.948.581-1.011 1.562-.011.171.003.342.037.505l-.926-.058-1.223-4.742 8.585.538-1.812 4.552zm-4.833-11.675l5.55.348 1.223 4.742-8.585-.538 1.812-4.552zm2.969-2.275h.031c.258 0 .475-.199.492-.46l.12-1.9c.017-.271-.19-.503-.461-.521-.275-.017-.506.188-.523.459l-.121 1.9c-.017.27.189.503.461.521zm1.458.09c.116 0 .232-.04.326-.122l.989-.868c.204-.179.224-.488.044-.692-.18-.203-.491-.223-.696-.044l-.989.867c-.204.179-.224.489-.044.693.098.109.234.166.37.166zm-3.3-.35c.097.11.233.166.37.166.116 0 .232-.04.326-.123.204-.179.224-.488.044-.692l-.872-.985c-.18-.203-.491-.223-.695-.043-.204.179-.224.489-.044.692l.872.984zm-17.201 7.058l1.404 3.397c.076.184.257.304.456.304l.038-.001 3.68-.279c.213-.016.391-.167.441-.374l.871-3.569.011-.173-.037-.17-1.404-3.396c-.081-.197-.281-.319-.493-.302l-3.68.279c-.213.016-.391.167-.441.373l-.87 3.569-.011.173.037.169zm5.146 2.469l-2.966.225-1.01-2.443 4.602-.349-.626 2.567zm-3.428-5.803l2.966-.224 1.01 2.443-4.603.349.626-2.567zm2.432 7.864l-1.218 1.997-.059.146-.002.007-.002.012-.013.155.195 2.328c.018.211.17.388.379.436l2.286.536.113.013c.169 0 .331-.087.422-.236l1.217-1.997.059-.147.02-.132-.007-.085-.191-2.284c-.018-.212-.17-.388-.378-.437l-2.286-.535c-.207-.049-.423.041-.534.223zm1.443 4.582l-1.589-.372-.109-1.301 2.378.557-.681 1.116zm.804-3.397l.108 1.301-2.378-.557.68-1.116 1.589.372zm1.603-11.557l.029.117.484 1.206c.075.187.257.309.457.309l.033-.001 1.302-.085c.213-.014.393-.163.445-.368l.321-1.259.014-.12-.002-.038-.004-.043-.029-.116-.484-1.206c-.079-.197-.276-.321-.49-.307l-1.302.085c-.213.014-.393.163-.445.368l-.321 1.259-.014.12.002.038.003.042zm1.197-.872l.587-.039.295.734-.196.766-.588.039-.294-.734.196-.766zm16.602 5.372c.034.21.2.373.411.406l1.63.25.076.006c.183 0 .354-.102.44-.269l.744-1.465.04-.118.006-.034.006-.041-.002-.124-.264-1.62c-.034-.21-.2-.373-.411-.406l-1.63-.251c-.212-.032-.419.074-.516.263l-.744 1.465-.04.118-.006.035-.006.04.002.124.264 1.621zm1.247-2.643l.923.143.182 1.121-.514 1.013-.923-.142-.182-1.121.515-1.013zm-1.508 13.414l.333 1.018c.066.202.255.339.469.339h1.075c.213 0 .403-.137.469-.339l.333-1.018.021-.116v-.083l-.021-.116-.333-1.018c-.065-.202-.255-.339-.469-.339h-1.075c-.213 0-.403.137-.469.339l-.333 1.018-.021.116-.001.042.001.041.021.116zm1.159-.69h.36l.174.533-.174.533h-.36l-.174-.533.174-.533zm-18.945-8.912l.41.223.224.408c.087.158.252.255.432.255.181 0 .346-.098.432-.255l.224-.408.41-.223c.158-.086.256-.251.256-.431 0-.179-.098-.344-.256-.43l-.41-.223-.224-.408c-.086-.158-.252-.255-.432-.255s-.346.098-.432.255l-.224.408-.41.223c-.158.086-.256.251-.256.43s.098.344.256.431zm16.926 13.887c-.087-.157-.252-.255-.433-.255-.18 0-.346.098-.432.255l-.225.407-.41.223c-.158.086-.256.251-.256.431 0 .179.098.344.256.43l.41.223.224.408c.086.157.252.255.432.255.181 0 .346-.098.433-.255l.224-.407.41-.223c.158-.086.257-.251.257-.43s-.098-.344-.257-.431l-.41-.223-.224-.407zm3.873-10.757c-.087-.157-.252-.255-.432-.255s-.346.098-.432.255l-.225.408-.41.223c-.158.086-.256.251-.256.43s.098.344.256.43l.41.223.224.408c.086.158.252.255.432.255s.346-.098.432-.255l.224-.408.41-.223c.158-.086.257-.251.257-.43s-.098-.344-.257-.43l-.41-.223-.224-.408zm1.12 12.548h-3.127c-.273 0-.493.219-.493.49v1.237h-1.892c-.272 0-.492.22-.492.49v.445h-.5v-.959c0-.271-.221-.491-.492-.491h-1.657v-.004c0-.271-.221-.49-.493-.49h-5.237c-.273 0-.493.22-.493.49v1.352h-1.638c-.273 0-.493.219-.493.49v1.509c0 .271.22.49.493.49.272 0 .492-.219.492-.49v-1.018h1.639c.272 0 .493-.22.493-.49v-1.351h4.252v.004c0 .27.22.49.493.49h1.656v.96c0 .271.221.49.493.49h1.485c.272 0 .493-.22.493-.49v-.446h1.892c.272 0 .493-.219.493-.49v-1.237h2.634c.272 0 .493-.22.493-.49 0-.271-.221-.49-.493-.49z" fill="#67737B"/><path d="M11.475 13.966c-.17-.128-.42-.128-.591-.001-.192.143-.254.402-.145.615.034.067.082.125.142.17.086.065.19.1.298.1.106 0 .21-.034.295-.097.191-.142.253-.4.146-.613-.034-.068-.084-.127-.145-.172zm-8.513.47c-.171-.128-.422-.129-.593-.002-.125.092-.198.238-.198.394 0 .154.073.299.197.392.086.064.19.099.297.099.106 0 .21-.035.295-.098.115-.085.187-.216.197-.359.01-.142-.043-.282-.144-.382l-.05-.043zm-1.174 4.003c.086.064.19.099.298.099.106 0 .21-.034.295-.097.191-.142.253-.401.147-.613-.034-.068-.084-.127-.145-.173-.17-.127-.421-.128-.592-.001-.192.143-.253.403-.145.616l.142.17zm24.362-16.121c.086.064.191.099.298.099.106 0 .209-.034.294-.097.191-.142.253-.401.147-.613-.034-.068-.084-.127-.145-.173-.17-.127-.421-.128-.591-.001-.192.142-.254.403-.146.616l.142.17zm-19.052 1.396c.086.064.19.098.297.098.106 0 .21-.034.295-.097.115-.085.187-.216.198-.358.01-.143-.043-.283-.145-.383l-.05-.043c-.171-.128-.422-.129-.593-.002-.125.092-.198.239-.198.394 0 .154.073.299.197.392zm15.518 19.965c1.583-.816 2.37-1.636 2.337-2.438-.038-.928-.933-1.176-1.456-1.176-1.088 0-4.142.879-5.044 1.146h-4.684l.17-.124.013-.009c.25-.187 1.058-.874.925-1.805-.047-.332-.262-.94-1.167-1.282-.332-.126-.645-.245-3.424 1.145-1.006.504-2.819 1.472-3.662 2.307-1.426 1.387-5.532 8.314-5.996 9.1-.276.467-.119 1.068.35 1.342.157.092.329.135.498.135.338 0 .668-.173.851-.484 1.77-2.999 4.742-7.788 5.676-8.692l.009-.009c.399-.396 1.217-.909 2.107-1.398-.309.255-.433.674-.307 1.058.133.404.511.676.937.676h5.87c-1.473.154-2.962.37-4.223.617-2.78.543-3.203.964-3.406 1.167-1.586 1.578-2.216 5.497-2.282 5.939-.081.535.29 1.035.828 1.115.538.08 1.04-.289 1.121-.824.212-1.405.857-3.933 1.697-4.813.515-.306 3.508-1.024 7.618-1.356 2.114-.171 3.818-.912 4.645-1.337zm-7.351-6.001c.106.411.467.708.893.735l6.979.438.062.001c.402 0 .766-.244.916-.619l2.575-6.469c.039-.1.061-.203.066-.308l.009-.129c0-.107-.017-.21-.049-.306l-1.722-6.677c-.106-.411-.467-.708-.893-.735l-6.979-.438c-.427-.027-.821.223-.978.618l-2.575 6.469c-.043.109-.066.223-.069.336v.004c-.012.113-.003.228.026.341l1.738 6.74zm3.604-1.563c.024-.377.062-.56.089-.644.217-.012.614-.039.973-.516.109-.145.198-.295.271-.446.318.777.55 1.471.535 1.723-.012.184-.077.353-.181.492l-1.571-.099c-.086-.154-.127-.329-.116-.51zm3.677.733l-.926-.058c.054-.158.09-.323.1-.497.055-.868-1.044-3.174-1.265-3.628-.105-.215-.349-.322-.58-.256-.23.066-.379.289-.353.525.001.008.083.816-.38 1.432-.087.116-.108.118-.245.125-.769.042-.948.581-1.011 1.562-.011.171.003.342.037.505l-.926-.058-1.223-4.742 8.585.538-1.812 4.552zm-4.833-11.675l5.55.348 1.223 4.742-8.585-.538 1.812-4.552zm2.969-2.275h.031c.258 0 .475-.199.492-.46l.12-1.9c.017-.271-.19-.503-.461-.521-.275-.017-.506.188-.523.459l-.121 1.9c-.017.27.189.503.461.521zm1.458.09c.116 0 .232-.04.326-.122l.989-.868c.204-.179.224-.488.044-.692-.18-.203-.491-.223-.696-.044l-.989.867c-.204.179-.224.489-.044.693.098.109.234.166.37.166zm-3.3-.35c.097.11.233.166.37.166.116 0 .232-.04.326-.123.204-.179.224-.488.044-.692l-.872-.985c-.18-.203-.491-.223-.695-.043-.204.179-.224.489-.044.692l.872.984zm-17.201 7.058l1.404 3.397c.076.184.257.304.456.304l.038-.001 3.68-.279c.213-.016.391-.167.441-.374l.871-3.569.011-.173-.037-.17-1.404-3.396c-.081-.197-.281-.319-.493-.302l-3.68.279c-.213.016-.391.167-.441.373l-.87 3.569-.011.173.037.169zm5.146 2.469l-2.966.225-1.01-2.443 4.602-.349-.626 2.567zm-3.428-5.803l2.966-.224 1.01 2.443-4.603.349.626-2.567zm2.432 7.864l-1.218 1.997-.059.146-.002.007-.002.012-.013.155.195 2.328c.018.211.17.388.379.436l2.286.536.113.013c.169 0 .331-.087.422-.236l1.217-1.997.059-.147.02-.132-.007-.085-.191-2.284c-.018-.212-.17-.388-.378-.437l-2.286-.535c-.207-.049-.423.041-.534.223zm1.443 4.582l-1.589-.372-.109-1.301 2.378.557-.681 1.116zm.804-3.397l.108 1.301-2.378-.557.68-1.116 1.589.372zm1.603-11.557l.029.117.484 1.206c.075.187.257.309.457.309l.033-.001 1.302-.085c.213-.014.393-.163.445-.368l.321-1.259.014-.12-.002-.038-.004-.043-.029-.116-.484-1.206c-.079-.197-.276-.321-.49-.307l-1.302.085c-.213.014-.393.163-.445.368l-.321 1.259-.014.12.002.038.003.042zm1.197-.872l.587-.039.295.734-.196.766-.588.039-.294-.734.196-.766zm16.602 5.372c.034.21.2.373.411.406l1.63.25.076.006c.183 0 .354-.102.44-.269l.744-1.465.04-.118.006-.034.006-.041-.002-.124-.264-1.62c-.034-.21-.2-.373-.411-.406l-1.63-.251c-.212-.032-.419.074-.516.263l-.744 1.465-.04.118-.006.035-.006.04.002.124.264 1.621zm1.247-2.643l.923.143.182 1.121-.514 1.013-.923-.142-.182-1.121.515-1.013zm-1.508 13.414l.333 1.018c.066.202.255.339.469.339h1.075c.213 0 .403-.137.469-.339l.333-1.018.021-.116v-.083l-.021-.116-.333-1.018c-.065-.202-.255-.339-.469-.339h-1.075c-.213 0-.403.137-.469.339l-.333 1.018-.021.116-.001.042.001.041.021.116zm1.159-.69h.36l.174.533-.174.533h-.36l-.174-.533.174-.533zm-18.945-8.912l.41.223.224.408c.087.158.252.255.432.255.181 0 .346-.098.432-.255l.224-.408.41-.223c.158-.086.256-.251.256-.431 0-.179-.098-.344-.256-.43l-.41-.223-.224-.408c-.086-.158-.252-.255-.432-.255s-.346.098-.432.255l-.224.408-.41.223c-.158.086-.256.251-.256.43s.098.344.256.431zm16.926 13.887c-.087-.157-.252-.255-.433-.255-.18 0-.346.098-.432.255l-.225.407-.41.223c-.158.086-.256.251-.256.431 0 .179.098.344.256.43l.41.223.224.408c.086.157.252.255.432.255.181 0 .346-.098.433-.255l.224-.407.41-.223c.158-.086.257-.251.257-.43s-.098-.344-.257-.431l-.41-.223-.224-.407zm3.873-10.757c-.087-.157-.252-.255-.432-.255s-.346.098-.432.255l-.225.408-.41.223c-.158.086-.256.251-.256.43s.098.344.256.43l.41.223.224.408c.086.158.252.255.432.255s.346-.098.432-.255l.224-.408.41-.223c.158-.086.257-.251.257-.43s-.098-.344-.257-.43l-.41-.223-.224-.408zm1.12 12.548h-3.127c-.273 0-.493.219-.493.49v1.237h-1.892c-.272 0-.492.22-.492.49v.445h-.5v-.959c0-.271-.221-.491-.492-.491h-1.657v-.004c0-.271-.221-.49-.493-.49h-5.237c-.273 0-.493.22-.493.49v1.352h-1.638c-.273 0-.493.219-.493.49v1.509c0 .271.22.49.493.49.272 0 .492-.219.492-.49v-1.018h1.639c.272 0 .493-.22.493-.49v-1.351h4.252v.004c0 .27.22.49.493.49h1.656v.96c0 .271.221.49.493.49h1.485c.272 0 .493-.22.493-.49v-.446h1.892c.272 0 .493-.219.493-.49v-1.237h2.634c.272 0 .493-.22.493-.49 0-.271-.221-.49-.493-.49z" fill="#3A434E"/></g></g></svg>