<svg width="32" height="231" viewBox="0 0 32 231" xmlns="http://www.w3.org/2000/svg"><desc>Created with Sketch.</desc><g fill="none"><path d="M31.892 136.07c-.077-.262-.247-.48-.466-.616l-1.657-2.186v-1.034c0-.3-.23-.545-.517-.545-.283 0-.513.24-.513.54v1.067h-6.6v-1.067c0-.3-.23-.544-.512-.544-.284 0-.513.243-.513.544v1.066h-.905v-4.093l-.045-.222c-.092-1.983-1.414-3.63-3.17-4.094v-1.558c0-.3-.23-.545-.513-.546v-1.24c0-.3-.23-.545-.514-.545-.283 0-.513.245-.513.546v1.24c-.283.003-.512.246-.512.547v1.565c-1.807.493-3.147 2.238-3.147 4.31v4.093h-1.173v-1.066c0-.3-.23-.546-.513-.546-.283 0-.513.243-.513.544v1.067h-6.34l-.022-.032v-1.034c0-.3-.23-.544-.513-.544-.283 0-.514.243-.514.544v1.07l-1.61 2.125c-.256.14-.448.392-.52.694-.085.145-.097.33-.035.49v12.78c0 .602.46 1.09 1.027 1.09h29.847c.567 0 1.027-.488 1.027-1.09v-12.73c.04-.078.064-.165.064-.26 0-.126-.042-.243-.11-.335zm-29.887-.762l.727-.96.514.678.627.828.007.008H1.587l.42-.553zm13.976-9.46c1.57 0 2.877 1.22 3.12 2.814h-6.234c.246-1.593 1.55-2.813 3.118-2.813zm14.44 10.014h-2.294l.006-.008.413-.545.727-.96.512.674.213.282.42.552zm-6.78 6.318h6.25v3.707h-6.25v-3.707zm-1.03 6.126v.546h-.627v-.988c0-.3-.228-.545-.512-.545-.282 0-.512.24-.512.54v.99h-.83v-.988c0-.3-.23-.545-.514-.545-.283 0-.513.243-.513.544v.99h-.83v-.99c0-.3-.23-.544-.512-.544-.283 0-.513.243-.513.544v.99h-.83v-.99c0-.3-.23-.543-.513-.543-.282 0-.512.243-.512.544v.99h-.83v-.99c0-.3-.23-.543-.514-.543-.284 0-.514.243-.514.544v.988h-.83v-.988c0-.3-.23-.547-.514-.547-.283 0-.513.243-.513.544v.988h-.83v-.988c0-.3-.23-.545-.514-.545-.285 0-.515.243-.515.544v.988h-.42v-1.873H22.61v1.33zm-9.734-12.998l2.175-.918.95-.4.95.4 2.175.918 1.293.545H11.58l1.293-.545zm9.734 1.644v4.137H9.39v-4.15h13.22v.01zm1.025.537h6.25v3.6h-6.25v-3.6zm-21.543 0h6.272v3.6H2.092v-3.6zm0 4.69h6.272v3.704H2.092v-3.707zm7.3 0H22.61v3.704H9.39v-3.707zm3.427-12.43h6.36v3.55h-.87v-2.63c0-.3-.23-.544-.515-.544-.283 0-.513.244-.513.545v2.63h-.14l-.69-.29v-2.337c0-.3-.23-.545-.514-.545-.285 0-.515.242-.515.543v2.387l-.574.24h-.256v-2.628c0-.3-.23-.546-.513-.546-.283 0-.513.244-.513.545v2.627h-.753v-3.546zm15.096 4.64l-.695.92h-5.315l-2.175-.92h8.187zm-15.65 0l-2.176.92H4.777l-.695-.92h8.19zM2.09 146.98h6.272v1.327h-6.27v-1.328zm21.543 0h6.25v1.327h-6.25v-1.328zm-13.72-4.29h1.027v2.763H9.915v-2.763zm1.858 0h1.03v2.763h-1.025v-2.763zm1.86 0h1.027v2.763H13.63v-2.763zm1.857 0h1.026v2.763h-1.025v-2.763zm1.857 0h1.027v2.763h-1.026v-2.763zm1.857 0h1.027v2.763H19.2v-2.763zm1.858 0h1.026v2.763h-1.026v-2.763zm-11.143-5.066h1.027v2.763H9.917v-2.763zm1.858 0H12.8v2.763h-1.027v-2.763zm1.857 0h1.025v2.763H13.63v-2.763zm1.855 0h1.026v2.763h-1.024v-2.763zm1.857 0h1.027v2.763H17.34v-2.763zm1.857 0h1.025v2.763H19.2v-2.763zm1.856 0h1.026v2.763h-1.026v-2.763zM2.79 142.948h1.03v2.347H2.793v-2.347zm1.86 0h1.03v2.347H4.65v-2.347zm1.86 0h1.025v2.347H6.508v-2.347zm-3.717-4.752H3.82v2.348H2.793v-2.348zm1.858 0h1.03v2.348H4.65v-2.348zm1.86 0h1.026v2.348h-1.03v-2.348zm17.85 4.752h1.025v2.347H24.36v-2.347zm1.856 0h1.027v2.347h-1.027v-2.347zm1.857 0H29.1v2.347h-1.03v-2.347zm-3.714-4.752h1.026v2.348H24.36v-2.348zm1.857 0h1.027v2.348h-1.027v-2.348zm1.857 0H29.1v2.348h-1.027v-2.348zm-4.667-11.022h.084l-.023.255c0 .74.568 1.342 1.267 1.342h4.474c.306 0 .603-.12.835-.336.273-.257.43-.625.43-1.01s-.157-.755-.43-1.01c-.232-.218-.53-.337-.838-.337H28.13l.005-.08c0-.338-.136-.658-.374-.88-.2-.19-.46-.294-.73-.294H23.41c-.61 0-1.104.527-1.104 1.173s.496 1.173 1.105 1.173zm0-1.255h3.626l.05.02.027.06-.026.06-.05.02h-.002c-.282 0-.512.244-.512.545 0 .3.23.546.513.546h2.177c.074 0 .127.036.16.065.03.028.08.092.08.19 0 .1-.05.164-.08.192-.032.03-.085.063-.16.063h-4.473c-.133 0-.24-.114-.24-.255 0-.14.107-.255.24-.255.284 0 .514-.245.514-.546h.004c0-.3-.23-.545-.514-.545h-1.33c-.043 0-.078-.038-.078-.08 0-.05.033-.085.076-.085z" fill="#206FAC"/><path d="M31.892 96.07c-.077-.262-.247-.48-.466-.616l-1.657-2.186v-1.034c0-.3-.23-.545-.517-.545-.283 0-.513.24-.513.54v1.07h-6.6v-1.066c0-.3-.23-.545-.512-.545-.284 0-.513.24-.513.54v1.07h-.905v-4.093l-.045-.222c-.092-1.985-1.414-3.63-3.17-4.096v-1.56c0-.3-.23-.546-.513-.547v-1.24c0-.302-.23-.546-.514-.546-.283 0-.513.244-.513.545v1.24c-.283.002-.512.245-.512.546v1.565c-1.807.493-3.147 2.238-3.147 4.31V93.3h-1.173v-1.066c0-.3-.23-.545-.513-.545-.283 0-.513.24-.513.54v1.07h-6.34l-.022-.032v-1.034c0-.3-.23-.545-.513-.545-.283 0-.514.24-.514.54v1.07l-1.61 2.13c-.256.14-.448.392-.52.694-.085.147-.097.33-.035.49v12.78c0 .604.46 1.092 1.027 1.092h29.847c.567 0 1.027-.488 1.027-1.09V96.663c.04-.077.064-.164.064-.258 0-.127-.042-.244-.11-.336zm-29.887-.76l.727-.96.514.678.627.828.007.008H1.587l.42-.553zm13.976-9.46c1.57 0 2.877 1.22 3.12 2.814h-6.234c.246-1.593 1.55-2.813 3.118-2.813zm14.44 10.014h-2.293l.006-.008.413-.545.727-.96.512.68.213.28.42.554zm-6.78 6.318h6.25v3.707h-6.25v-3.71zm-1.028 6.126v.546h-.628v-.988c0-.3-.228-.545-.512-.545-.283 0-.513.246-.513.547v.988h-.83v-.988c0-.3-.23-.545-.515-.545-.283 0-.513.244-.513.545v.988h-.83v-.988c0-.3-.23-.545-.513-.545-.284 0-.514.242-.514.543v.988h-.83v-.986c0-.3-.23-.545-.513-.545-.282 0-.512.242-.512.543v.988h-.83v-.987c0-.3-.23-.545-.513-.545-.284 0-.514.244-.514.545v.99h-.83v-.99c0-.3-.23-.544-.514-.544-.284 0-.514.244-.514.545v.988h-.83v-.988c0-.3-.23-.545-.514-.545-.286 0-.516.243-.516.544v.988h-.42v-1.873H22.61v1.326zm-9.74-12.998l2.176-.92.95-.4.95.4 2.173.92 1.295.544H11.58l1.293-.545zm9.735 1.643v4.137H9.39v-4.145h13.22v.01zm1.027.537h6.25v3.6h-6.25v-3.6zm-21.543 0h6.274v3.6h-6.27v-3.6zm0 4.69h6.274v3.708h-6.27v-3.707zm7.3 0H22.61v3.708H9.39v-3.707zm3.43-12.426h6.36V93.3h-.87v-2.627c0-.3-.23-.545-.515-.545-.283 0-.513.244-.513.545V93.3h-.14l-.69-.29v-2.337c0-.3-.23-.545-.513-.545-.286 0-.516.244-.516.545v2.386l-.574.24h-.255v-2.63c0-.3-.23-.546-.513-.546-.284 0-.514.244-.514.545v2.63h-.752v-3.547zm15.096 4.638l-.695.918h-5.315l-2.175-.918h8.186zm-15.65 0l-2.176.918H4.776l-.695-.918h8.19zM2.09 106.98h6.272v1.328h-6.27v-1.328zm21.543 0h6.25v1.328h-6.25v-1.328zm-13.72-4.29h1.027v2.764H9.915v-2.763zm1.858 0h1.03v2.764h-1.025v-2.763zm1.86 0h1.027v2.764H13.63v-2.763zm1.857 0h1.026v2.764h-1.025v-2.763zm1.857 0h1.027v2.764h-1.026v-2.763zm1.857 0h1.027v2.764H19.2v-2.763zm1.858 0h1.026v2.764h-1.026v-2.763zM9.915 97.626h1.027v2.763H9.915v-2.766zm1.858 0H12.8v2.763h-1.027v-2.766zm1.857 0h1.027v2.763H13.63v-2.766zm1.857 0h1.026v2.763h-1.026v-2.766zm1.857 0h1.027v2.763h-1.023v-2.766zm1.857 0h1.03v2.763H19.2v-2.766zm1.86 0h1.027v2.763H21.06v-2.766zM2.794 102.95H3.82v2.346H2.793v-2.347zm1.858 0h1.03v2.346H4.65v-2.347zm1.86 0h1.027v2.346h-1.03v-2.347zm-3.715-4.753H3.82v2.348H2.793v-2.348zm1.858 0H5.68v2.348H4.65v-2.348zm1.858 0H7.54v2.348h-1.03v-2.348zm17.85 4.752h1.027v2.343H24.36v-2.347zm1.858 0h1.027v2.343h-1.027v-2.347zm1.857 0H29.1v2.343h-1.03v-2.347zm-3.714-4.756h1.028v2.348H24.36v-2.348zm1.86 0h1.026v2.348H26.22v-2.348zm1.856 0H29.1v2.348h-1.027v-2.348zM23.41 87.172h.083l-.024.255c0 .742.567 1.345 1.266 1.345h4.474c.306 0 .603-.12.835-.336.273-.257.43-.625.43-1.01s-.157-.755-.43-1.01c-.232-.218-.53-.337-.838-.337H28.13l.005-.083c0-.336-.136-.656-.374-.88-.2-.19-.46-.292-.73-.292H23.41c-.61 0-1.104.526-1.104 1.172s.496 1.173 1.105 1.173zm0-1.255h3.625l.05.02.027.06-.026.063-.05.02h-.002c-.282 0-.512.245-.512.546 0 .3.23.545.513.545h2.177c.074 0 .127.037.16.066.03.027.08.09.08.19s-.05.163-.08.19c-.032.03-.085.065-.16.065H24.74c-.134 0-.24-.114-.24-.255 0-.14.106-.256.24-.256.283 0 .513-.246.513-.547h.003c0-.3-.23-.545-.514-.545h-1.33c-.043 0-.078-.038-.078-.083 0-.045.033-.08.076-.08z" fill="#fff"/><path d="M31.892 56.07c-.077-.26-.247-.48-.466-.616l-1.657-2.186v-1.034c0-.3-.23-.545-.517-.545-.283 0-.513.24-.513.54v1.07h-6.6v-1.066c0-.3-.23-.545-.512-.545-.284 0-.513.24-.513.54v1.07h-.905v-4.093l-.045-.222c-.092-1.985-1.414-3.63-3.17-4.096v-1.56c0-.3-.23-.546-.513-.547v-1.24c0-.302-.23-.546-.514-.546-.283 0-.513.244-.513.545v1.24c-.283.002-.512.245-.512.546v1.565c-1.807.493-3.147 2.238-3.147 4.31V53.3h-1.173v-1.066c0-.3-.23-.545-.513-.545-.283 0-.513.24-.513.54v1.07h-6.34l-.022-.032v-1.034c0-.3-.23-.545-.513-.545-.283 0-.514.24-.514.54v1.07l-1.61 2.13c-.256.14-.448.392-.52.694-.085.147-.097.33-.035.49v12.78c0 .604.46 1.092 1.027 1.092h29.847c.567 0 1.027-.488 1.027-1.09V56.663c.04-.077.064-.164.064-.258 0-.128-.042-.244-.11-.336zm-29.887-.76l.727-.96.514.678.627.828.007.008H1.587l.42-.553zm13.976-9.46c1.57 0 2.877 1.22 3.12 2.814h-6.234c.246-1.593 1.55-2.813 3.118-2.813zm14.44 10.013h-2.293l.006-.007.413-.545.727-.96.512.68.213.28.42.556zm-6.78 6.32h6.25v3.706h-6.25v-3.71zm-1.028 6.125v.546h-.628v-.987c0-.3-.228-.545-.512-.545-.283 0-.513.244-.513.545v.988h-.83v-.987c0-.3-.23-.545-.515-.545-.283 0-.513.244-.513.545v.988h-.83v-.987c0-.3-.23-.548-.513-.548-.284 0-.514.244-.514.545v.987h-.83v-.987c0-.3-.23-.545-.513-.545-.282 0-.512.244-.512.545v.988h-.83v-.987c0-.3-.23-.545-.513-.545-.284 0-.514.244-.514.545v.99h-.83v-.988c0-.3-.23-.545-.514-.545-.284 0-.514.244-.514.545v.988h-.83v-.987c0-.3-.23-.544-.514-.544-.286 0-.516.244-.516.545v.99h-.42v-1.88H22.61v1.33zM12.874 55.31l2.175-.917.95-.4.95.4 2.172.918 1.293.548H11.58l1.293-.545zm9.734 1.645v4.137H9.39v-4.146h13.22v.01zm1.026.537h6.25v3.6h-6.25v-3.6zm-21.543 0h6.274v3.6h-6.27v-3.6zm0 4.69h6.274v3.707h-6.27v-3.71zm7.3 0h13.22v3.707H9.39v-3.71zm3.43-12.427h6.36V53.3h-.87v-2.628c0-.3-.23-.545-.514-.545-.283 0-.513.244-.513.545V53.3h-.14l-.69-.292v-2.336c0-.3-.23-.545-.514-.545-.285 0-.515.244-.515.545v2.386l-.574.242h-.255v-2.628c0-.3-.23-.545-.513-.545-.283 0-.513.244-.513.545V53.3h-.754v-3.547zm15.097 4.638l-.695.92h-5.315l-2.175-.92h8.186zm-15.65 0l-2.176.92H4.777l-.695-.92h8.19zM2.09 66.98h6.272v1.327h-6.27V66.98zm21.543 0h6.25v1.327h-6.25V66.98zm-13.72-4.29h1.027v2.763H9.915V62.69zm1.858 0h1.03v2.763h-1.025V62.69zm1.86 0h1.027v2.763H13.63V62.69zm1.857 0h1.026v2.763h-1.025V62.69zm1.857 0h1.027v2.763h-1.026V62.69zm1.857 0h1.027v2.763H19.2V62.69zm1.858 0h1.026v2.763h-1.026V62.69zM9.915 57.624h1.027v2.763H9.915v-2.763zm1.858 0H12.8v2.763h-1.027v-2.763zm1.857 0h1.027v2.763H13.63v-2.763zm1.857 0h1.026v2.763h-1.026v-2.763zm1.857 0h1.027v2.763h-1.023v-2.763zm1.857 0h1.03v2.763H19.2v-2.763zm1.86 0h1.027v2.763H21.06v-2.763zM2.794 62.948H3.82v2.348H2.793v-2.348zm1.858 0h1.03v2.348H4.65v-2.348zm1.86 0h1.027v2.348h-1.03v-2.348zm-3.715-4.752H3.82v2.348H2.793v-2.348zm1.858 0H5.68v2.348H4.65v-2.348zm1.858 0H7.54v2.348h-1.03v-2.348zm17.85 4.752h1.027v2.348H24.36v-2.348zm1.858 0h1.027v2.348h-1.027v-2.348zm1.857 0H29.1v2.348h-1.03v-2.348zm-3.714-4.752h1.028v2.348H24.36v-2.348zm1.86 0h1.026v2.348H26.22v-2.348zm1.856 0H29.1v2.348h-1.027v-2.348zM23.41 47.174h.083l-.024.255c0 .74.567 1.342 1.266 1.342h4.474c.306 0 .603-.12.835-.336.273-.257.43-.625.43-1.01s-.157-.755-.43-1.01c-.232-.218-.53-.337-.838-.337H28.13l.005-.08c0-.338-.136-.658-.374-.88-.2-.19-.46-.294-.73-.294H23.41c-.61 0-1.104.527-1.104 1.173s.496 1.173 1.105 1.173zm0-1.255h3.625l.05.02.027.06-.026.06-.05.02h-.002c-.282 0-.512.244-.512.545 0 .3.23.546.513.546h2.177c.074 0 .127.036.16.065.03.028.08.092.08.19 0 .1-.05.164-.08.192-.032.03-.085.063-.16.063H24.74c-.134 0-.24-.114-.24-.255 0-.14.106-.255.24-.255.283 0 .513-.245.513-.546h.003c0-.3-.23-.545-.514-.545h-1.33c-.043 0-.078-.038-.078-.08 0-.05.033-.086.076-.086z" fill="#67737B"/><path d="M31.892 16.07c-.077-.262-.247-.48-.466-.616l-1.657-2.186v-1.034c0-.3-.23-.545-.517-.545-.283 0-.513.24-.513.54v1.07h-6.6v-1.066c0-.3-.23-.545-.512-.545-.284 0-.513.24-.513.54v1.07h-.905V9.207l-.045-.222C20.073 7 18.75 5.355 16.995 4.89V3.33c0-.3-.23-.544-.513-.545v-1.24c0-.302-.23-.546-.514-.546-.283 0-.513.242-.513.543v1.24c-.283.002-.512.245-.512.546v1.565c-1.807.493-3.147 2.238-3.147 4.31V13.3h-1.173v-1.066c0-.3-.23-.545-.513-.545-.283 0-.513.24-.513.54v1.07h-6.34l-.022-.032v-1.034c0-.3-.23-.545-.513-.545-.283 0-.514.24-.514.54v1.07l-1.61 2.13c-.256.14-.448.392-.52.694-.085.147-.097.33-.035.49v12.78c0 .604.46 1.092 1.027 1.092h29.847c.567 0 1.027-.488 1.027-1.09V16.663c.04-.077.064-.164.064-.258 0-.128-.042-.244-.11-.336zm-29.887-.76l.727-.96.514.678.627.828.007.008H1.587l.42-.553zM15.98 5.85c1.57 0 2.875 1.22 3.12 2.814h-6.236c.246-1.593 1.55-2.813 3.118-2.813zm14.437 10.014h-2.293l.006-.008.412-.545.727-.96.51.68.213.28.42.554zm-6.78 6.318h6.25v3.707h-6.25v-3.71zm-1.028 6.126v.546h-.63v-.988c0-.3-.228-.545-.51-.545-.285 0-.515.246-.515.547v.988h-.83v-.988c0-.3-.23-.545-.514-.545-.282 0-.512.244-.512.545v.988h-.83v-.988c0-.3-.23-.545-.514-.545-.283 0-.513.242-.513.543v.988h-.83v-.986c0-.3-.23-.545-.512-.545-.283 0-.513.242-.513.543v.988h-.83v-.987c0-.3-.23-.545-.514-.545-.283 0-.513.244-.513.545v.99h-.83v-.99c0-.3-.23-.544-.515-.544-.283 0-.513.244-.513.545v.988h-.83v-.988c0-.3-.23-.545-.515-.545-.285 0-.515.243-.515.544v.988h-.42V26.98h13.22v1.327zM12.872 15.31l2.175-.918.95-.4.95.4 2.173.918 1.294.545H11.58l1.293-.545zm9.734 1.644v4.137H9.39v-4.143h13.22v.01zm1.026.537h6.25v3.6h-6.25v-3.6zm-21.543 0h6.273v3.6h-6.27v-3.6zm0 4.69h6.273v3.71h-6.27v-3.71zm7.3 0h13.22v3.71H9.39v-3.71zm3.43-12.424h6.36V13.3h-.87v-2.627c0-.3-.23-.545-.513-.545-.283 0-.513.244-.513.545V13.3h-.14l-.69-.292v-2.336c0-.3-.23-.545-.514-.545-.284 0-.514.244-.514.545v2.386l-.574.242h-.256v-2.628c0-.3-.23-.545-.513-.545-.284 0-.514.244-.514.545V13.3h-.755V9.752zm15.098 4.638l-.695.92h-5.316l-2.175-.92h8.186zm-15.65 0l-2.176.92H4.776l-.695-.92h8.19zM2.09 26.98h6.272v1.327h-6.27V26.98zm21.543 0h6.25v1.327h-6.25V26.98zm-13.72-4.29h1.027v2.763H9.915V22.69zm1.858 0h1.03v2.763h-1.025V22.69zm1.86 0h1.027v2.763H13.63V22.69zm1.857 0h1.026v2.763h-1.025V22.69zm1.857 0h1.027v2.763h-1.026V22.69zm1.857 0h1.027v2.763H19.2V22.69zm1.858 0h1.026v2.763h-1.026V22.69zM9.915 17.624h1.027v2.763H9.915v-2.763zm1.858 0H12.8v2.763h-1.027v-2.763zm1.857 0h1.027v2.763H13.63v-2.763zm1.857 0h1.026v2.763h-1.026v-2.763zm1.857 0h1.027v2.763h-1.023v-2.763zm1.857 0h1.03v2.763H19.2v-2.763zm1.86 0h1.027v2.763H21.06v-2.763zM2.794 22.948H3.82v2.348H2.793v-2.348zm1.858 0h1.03v2.348H4.65v-2.348zm1.86 0h1.027v2.348h-1.03v-2.348zm-3.715-4.752H3.82v2.348H2.793v-2.348zm1.858 0H5.68v2.348H4.65v-2.348zm1.858 0H7.54v2.348h-1.03v-2.348zm17.85 4.752h1.027v2.348H24.36v-2.348zm1.858 0h1.027v2.348h-1.027v-2.348zm1.857 0H29.1v2.348h-1.03v-2.348zm-3.714-4.752h1.028v2.348H24.36v-2.348zm1.86 0h1.026v2.348H26.22v-2.348zm1.856 0H29.1v2.348h-1.027v-2.348zm-4.67-11.022h.085l-.023.255c0 .74.568 1.342 1.267 1.342h4.474c.308 0 .605-.12.837-.336.273-.257.43-.625.43-1.01s-.157-.755-.43-1.01c-.232-.217-.53-.337-.838-.337H28.13l.006-.08c0-.337-.136-.657-.374-.88-.2-.19-.46-.293-.73-.293h-3.625c-.61 0-1.104.527-1.104 1.173s.496 1.176 1.105 1.176zm0-1.255h3.627l.05.02.027.06-.03.06-.05.02c-.285 0-.515.244-.515.545 0 .3.23.546.513.546h2.175c.074 0 .127.036.16.065.03.028.08.092.08.19 0 .1-.05.164-.08.192-.032.03-.085.063-.16.063H24.73c-.133 0-.24-.114-.24-.255 0-.14.107-.255.24-.255.284 0 .514-.245.514-.546h.002c0-.3-.23-.545-.514-.545h-1.33c-.042 0-.077-.038-.077-.08 0-.05.034-.086.077-.086z" fill="#373D43"/></g></svg>