<svg width="32" height="231" viewBox="0 0 32 231" xmlns="http://www.w3.org/2000/svg"><title>amsterdam</title><desc>Created with Sketch.</desc><g fill="none"><path d="M31.892 136.07c-.077-.262-.247-.48-.466-.616l-1.657-2.186v-1.034c0-.3-.23-.545-.514-.545-.283 0-.513.243-.513.544v1.066H22.14v-1.066c0-.3-.23-.545-.512-.545-.284 0-.513.243-.513.544v1.066h-.905v-4.093l-.045-.222c-.092-1.985-1.414-3.63-3.17-4.096v-1.558c0-.3-.23-.544-.513-.545v-1.24c0-.302-.23-.546-.514-.546-.283 0-.513.245-.513.546v1.24c-.283.002-.512.245-.512.546v1.565c-1.807.493-3.147 2.238-3.147 4.31v4.093h-1.173v-1.066c0-.3-.23-.545-.513-.545-.283 0-.513.243-.513.544v1.066h-6.34l-.022-.032v-1.034c0-.3-.23-.545-.513-.545-.283 0-.514.243-.514.544v1.07l-1.61 2.126c-.256.14-.448.392-.52.694-.085.147-.097.33-.035.49v12.78c0 .604.46 1.092 1.027 1.092h29.847c.567 0 1.027-.488 1.027-1.09v-12.732c.04-.077.064-.164.064-.258 0-.127-.042-.244-.11-.336zm-29.887-.762l.727-.96.514.678.627.828.007.008H1.587l.42-.553zm13.976-9.46c1.57 0 2.874 1.22 3.12 2.814h-6.237c.246-1.593 1.55-2.813 3.118-2.813zm14.436 10.014h-2.293l.006-.008.412-.545.727-.96.513.677.213.282.42.552zm-6.78 6.318h6.25v3.707h-6.25v-3.707zm-1.028 6.126v.546h-.627v-.988c0-.3-.228-.545-.512-.545-.283 0-.513.243-.513.544v.988h-.83v-.988c0-.3-.23-.545-.514-.545-.283 0-.513.243-.513.544v.988h-.83v-.988c0-.3-.23-.545-.513-.545-.283 0-.513.243-.513.544v.988h-.83v-.988c0-.3-.23-.545-.513-.545-.284 0-.514.243-.514.544v.988h-.83v-.988c0-.3-.23-.545-.514-.545-.284 0-.514.243-.514.544v.988h-.83v-.988c0-.3-.23-.545-.513-.545-.283 0-.513.243-.513.544v.988h-.83v-.988c0-.3-.23-.545-.514-.545-.284 0-.514.243-.514.544v.988h-.42v-1.873h13.216v1.327zm-9.734-12.998l2.175-.918.95-.4.95.4 2.174.918 1.293.545H11.58l1.293-.545zm9.734 1.644v4.137H9.39v-4.146H22.61v.01zm1.027.537h6.25v3.6h-6.25v-3.6zm-21.543 0h6.272v3.6H2.092v-3.6zm0 4.69h6.272v3.707H2.092v-3.707zm7.3 0h13.216v3.707H9.39v-3.707zm3.427-12.427h6.36v3.548h-.87v-2.627c0-.3-.23-.545-.513-.545-.283 0-.513.244-.513.545v2.628h-.14l-.69-.29v-2.337c0-.3-.23-.545-.514-.545-.284 0-.514.244-.514.545v2.386l-.574.24h-.256v-2.627c0-.3-.23-.545-.513-.545-.284 0-.514.244-.514.545v2.628h-.752v-3.547zm15.098 4.638l-.695.92h-5.316l-2.175-.92h8.186zm-15.65 0l-2.176.92H4.776l-.695-.92h8.187zM2.09 146.98h6.272v1.327H2.092v-1.328zm21.543 0h6.25v1.327h-6.25v-1.328zm-13.72-4.29h1.027v2.763H9.915v-2.763zm1.858 0H12.8v2.763h-1.027v-2.763zm1.857 0h1.027v2.763H13.63v-2.763zm1.857 0h1.026v2.763h-1.026v-2.763zm1.857 0h1.027v2.763h-1.026v-2.763zm1.857 0h1.027v2.763H19.2v-2.763zm1.858 0h1.026v2.763h-1.026v-2.763zm-11.143-5.066h1.027v2.763H9.915v-2.763zm1.858 0H12.8v2.763h-1.027v-2.763zm1.857 0h1.027v2.763H13.63v-2.763zm1.857 0h1.026v2.763h-1.026v-2.763zm1.857 0h1.027v2.763h-1.026v-2.763zm1.857 0h1.027v2.763H19.2v-2.763zm1.858 0h1.026v2.763h-1.026v-2.763zm-18.265 5.324H3.82v2.347H2.793v-2.347zm1.858 0H5.68v2.347H4.65v-2.347zm1.858 0h1.027v2.347H6.508v-2.347zm-3.715-4.752H3.82v2.348H2.793v-2.348zm1.858 0H5.68v2.348H4.65v-2.348zm1.858 0h1.027v2.348H6.508v-2.348zm17.85 4.752h1.026v2.347h-1.027v-2.347zm1.857 0h1.027v2.347h-1.027v-2.347zm1.857 0H29.1v2.347H28.07v-2.347zm-3.714-4.752h1.027v2.348h-1.027v-2.348zm1.858 0h1.027v2.348h-1.027v-2.348zm1.857 0H29.1v2.348h-1.027v-2.348zm-4.667-11.022h.084l-.024.255c0 .742.568 1.345 1.267 1.345h4.474c.308 0 .605-.12.837-.336.273-.257.43-.625.43-1.01s-.157-.755-.43-1.01c-.232-.218-.53-.337-.838-.337H28.13l.005-.082c0-.336-.136-.656-.374-.878-.2-.19-.46-.294-.73-.294h-3.625c-.61 0-1.104.527-1.104 1.173s.496 1.174 1.105 1.174zm0-1.255h3.626l.05.02.027.06-.028.063-.05.02h-.002c-.283 0-.513.244-.513.545 0 .3.23.546.513.546h2.176c.074 0 .127.035.16.064.03.028.08.092.08.19 0 .1-.05.164-.08.192-.032.03-.085.064-.16.064h-4.473c-.133 0-.24-.115-.24-.256 0-.14.107-.255.24-.255.284 0 .514-.245.514-.546h.002c0-.3-.23-.545-.514-.545h-1.33c-.042 0-.077-.037-.077-.082 0-.046.034-.082.077-.082z" fill="#206FAC"/><path d="M31.892 96.07c-.077-.262-.247-.48-.466-.616l-1.657-2.186v-1.034c0-.3-.23-.545-.514-.545-.283 0-.513.243-.513.544V93.3H22.14v-1.066c0-.3-.23-.545-.512-.545-.284 0-.513.243-.513.544V93.3h-.905v-4.093l-.045-.222c-.092-1.985-1.414-3.63-3.17-4.096V83.33c0-.3-.23-.544-.513-.545v-1.24c0-.302-.23-.546-.514-.546-.283 0-.513.245-.513.546v1.24c-.283.002-.512.245-.512.546v1.565c-1.807.493-3.147 2.238-3.147 4.31V93.3h-1.173v-1.066c0-.3-.23-.545-.513-.545-.283 0-.513.243-.513.544V93.3h-6.34l-.022-.032v-1.034c0-.3-.23-.545-.513-.545-.283 0-.514.243-.514.544v1.07L.598 95.43c-.256.14-.448.392-.52.694-.085.147-.097.33-.035.49v12.78c0 .604.46 1.092 1.027 1.092h29.847c.567 0 1.027-.488 1.027-1.09V96.663c.04-.077.064-.164.064-.258 0-.127-.042-.244-.11-.336zM2.005 95.31l.727-.96.514.678.627.828.007.008H1.587l.42-.553zm13.976-9.46c1.57 0 2.874 1.22 3.12 2.814h-6.237c.246-1.593 1.55-2.813 3.118-2.813zm14.436 10.014h-2.293l.006-.008.412-.545.727-.96.513.677.213.282.42.552zm-6.78 6.318h6.25v3.707h-6.25v-3.707zm-1.028 6.126v.546h-.627v-.988c0-.3-.228-.545-.512-.545-.283 0-.513.243-.513.544v.988h-.83v-.988c0-.3-.23-.545-.514-.545-.283 0-.513.243-.513.544v.988h-.83v-.988c0-.3-.23-.545-.513-.545-.283 0-.513.243-.513.544v.988h-.83v-.988c0-.3-.23-.545-.513-.545-.284 0-.514.243-.514.544v.988h-.83v-.988c0-.3-.23-.545-.514-.545-.284 0-.514.243-.514.544v.988h-.83v-.988c0-.3-.23-.545-.513-.545-.283 0-.513.243-.513.544v.988h-.83v-.988c0-.3-.23-.545-.514-.545-.284 0-.514.243-.514.544v.988h-.42v-1.873h13.216v1.327zM12.874 95.31l2.175-.92.95-.4.95.4 2.174.92 1.293.544H11.58l1.293-.545zm9.734 1.643v4.137H9.39v-4.145H22.61v.01zm1.027.537h6.25v3.6h-6.25v-3.6zm-21.543 0h6.272v3.6H2.092v-3.6zm0 4.69h6.272v3.708H2.092v-3.707zm7.3 0h13.216v3.708H9.39v-3.707zm3.427-12.426h6.36V93.3h-.87v-2.627c0-.3-.23-.545-.513-.545-.283 0-.513.244-.513.545V93.3h-.14l-.69-.29v-2.337c0-.3-.23-.545-.514-.545-.284 0-.514.244-.514.545v2.386l-.574.24h-.256v-2.627c0-.3-.23-.545-.513-.545-.284 0-.514.244-.514.545V93.3h-.752v-3.546zm15.098 4.638l-.695.918h-5.316l-2.175-.918h8.186zm-15.65 0l-2.176.918H4.776l-.695-.918h8.187zM2.09 106.98h6.272v1.328H2.092v-1.328zm21.543 0h6.25v1.328h-6.25v-1.328zm-13.72-4.29h1.027v2.764H9.915v-2.763zm1.858 0H12.8v2.764h-1.027v-2.763zm1.857 0h1.027v2.764H13.63v-2.763zm1.857 0h1.026v2.764h-1.026v-2.763zm1.857 0h1.027v2.764h-1.026v-2.763zm1.857 0h1.027v2.764H19.2v-2.763zm1.858 0h1.026v2.764h-1.026v-2.763zM9.915 97.626h1.027v2.763H9.915v-2.763zm1.858 0H12.8v2.763h-1.027v-2.763zm1.857 0h1.027v2.763H13.63v-2.763zm1.857 0h1.026v2.763h-1.026v-2.763zm1.857 0h1.027v2.763h-1.026v-2.763zm1.857 0h1.027v2.763H19.2v-2.763zm1.858 0h1.026v2.763h-1.026v-2.763zM2.793 102.95H3.82v2.346H2.793v-2.347zm1.858 0H5.68v2.346H4.65v-2.347zm1.858 0h1.027v2.346H6.508v-2.347zm-3.715-4.753H3.82v2.348H2.793v-2.348zm1.858 0H5.68v2.348H4.65v-2.348zm1.858 0h1.027v2.348H6.508v-2.348zm17.85 4.752h1.026v2.346h-1.027v-2.347zm1.857 0h1.027v2.346h-1.027v-2.347zm1.857 0H29.1v2.346H28.07v-2.347zm-3.714-4.753h1.027v2.348h-1.027v-2.348zm1.858 0h1.027v2.348h-1.027v-2.348zm1.857 0H29.1v2.348h-1.027v-2.348zm-4.667-11.022h.084l-.024.255c0 .743.568 1.346 1.267 1.346h4.474c.308 0 .605-.12.837-.336.273-.256.43-.624.43-1.01s-.157-.754-.43-1.01c-.232-.217-.53-.336-.838-.336H28.13l.005-.082c0-.337-.136-.657-.374-.88-.2-.19-.46-.293-.73-.293h-3.625c-.61 0-1.104.526-1.104 1.172s.496 1.173 1.105 1.173zm0-1.255h3.626l.05.02.027.062-.028.062-.05.02h-.002c-.283 0-.513.244-.513.545 0 .3.23.545.513.545h2.176c.074 0 .127.035.16.064.03.027.08.09.08.19s-.05.163-.08.19c-.032.03-.085.065-.16.065h-4.473c-.133 0-.24-.115-.24-.256 0-.14.107-.256.24-.256.284 0 .514-.245.514-.546h.002c0-.3-.23-.545-.514-.545h-1.33c-.042 0-.077-.037-.077-.082 0-.045.034-.08.077-.08z" fill="#fff"/><path d="M31.892 56.07c-.077-.26-.247-.48-.466-.616l-1.657-2.186v-1.034c0-.3-.23-.545-.514-.545-.283 0-.513.243-.513.544V53.3H22.14v-1.066c0-.3-.23-.545-.512-.545-.284 0-.513.243-.513.544V53.3h-.905v-4.093l-.045-.222c-.092-1.985-1.414-3.63-3.17-4.096V43.33c0-.3-.23-.544-.513-.545v-1.24c0-.302-.23-.546-.514-.546-.283 0-.513.245-.513.546v1.24c-.283.002-.512.245-.512.546v1.565c-1.807.493-3.147 2.238-3.147 4.31V53.3h-1.173v-1.066c0-.3-.23-.545-.513-.545-.283 0-.513.243-.513.544V53.3h-6.34l-.022-.032v-1.034c0-.3-.23-.545-.513-.545-.283 0-.514.243-.514.544v1.07L.598 55.43c-.256.14-.448.392-.52.694-.085.147-.097.33-.035.49v12.78c0 .604.46 1.092 1.027 1.092h29.847c.567 0 1.027-.488 1.027-1.09V56.663c.04-.077.064-.164.064-.258 0-.128-.042-.244-.11-.336zM2.005 55.31l.727-.96.514.678.627.828.007.008H1.587l.42-.553zm13.976-9.46c1.57 0 2.874 1.22 3.12 2.814h-6.237c.246-1.593 1.55-2.813 3.118-2.813zm14.436 10.013h-2.293l.006-.007.412-.545.727-.96.513.678.213.282.42.553zm-6.78 6.32h6.25v3.706h-6.25V62.18zm-1.028 6.125v.546h-.627v-.987c0-.3-.228-.545-.512-.545-.283 0-.513.244-.513.545v.988h-.83v-.987c0-.3-.23-.545-.514-.545-.283 0-.513.244-.513.545v.988h-.83v-.987c0-.3-.23-.545-.513-.545-.283 0-.513.244-.513.545v.988h-.83v-.987c0-.3-.23-.545-.513-.545-.284 0-.514.244-.514.545v.988h-.83v-.987c0-.3-.23-.545-.514-.545-.284 0-.514.244-.514.545v.988h-.83v-.987c0-.3-.23-.545-.513-.545-.283 0-.513.244-.513.545v.988h-.83v-.987c0-.3-.23-.545-.514-.545-.284 0-.514.244-.514.545v.988h-.42V66.98h13.216v1.328zm-9.734-12.997l2.175-.918.95-.4.95.4 2.174.918 1.293.545H11.58l1.293-.545zm9.734 1.644v4.137H9.39v-4.146H22.61v.01zm1.027.537h6.25v3.6h-6.25v-3.6zm-21.543 0h6.272v3.6H2.092v-3.6zm0 4.69h6.272v3.707H2.092V62.18zm7.3 0h13.216v3.707H9.39V62.18zm3.427-12.427h6.36V53.3h-.87v-2.628c0-.3-.23-.545-.513-.545-.283 0-.513.244-.513.545V53.3h-.14l-.69-.292v-2.336c0-.3-.23-.545-.514-.545-.284 0-.514.244-.514.545v2.386l-.574.242h-.256v-2.628c0-.3-.23-.545-.513-.545-.284 0-.514.244-.514.545V53.3h-.752v-3.547zm15.098 4.638l-.695.92h-5.316l-2.175-.92h8.186zm-15.65 0l-2.176.92H4.776l-.695-.92h8.187zM2.09 66.98h6.272v1.327H2.092V66.98zm21.543 0h6.25v1.327h-6.25V66.98zm-13.72-4.29h1.027v2.763H9.915V62.69zm1.858 0H12.8v2.763h-1.027V62.69zm1.857 0h1.027v2.763H13.63V62.69zm1.857 0h1.026v2.763h-1.026V62.69zm1.857 0h1.027v2.763h-1.026V62.69zm1.857 0h1.027v2.763H19.2V62.69zm1.858 0h1.026v2.763h-1.026V62.69zM9.915 57.624h1.027v2.763H9.915v-2.763zm1.858 0H12.8v2.763h-1.027v-2.763zm1.857 0h1.027v2.763H13.63v-2.763zm1.857 0h1.026v2.763h-1.026v-2.763zm1.857 0h1.027v2.763h-1.026v-2.763zm1.857 0h1.027v2.763H19.2v-2.763zm1.858 0h1.026v2.763h-1.026v-2.763zM2.793 62.948H3.82v2.348H2.793v-2.348zm1.858 0H5.68v2.348H4.65v-2.348zm1.858 0h1.027v2.348H6.508v-2.348zm-3.715-4.752H3.82v2.348H2.793v-2.348zm1.858 0H5.68v2.348H4.65v-2.348zm1.858 0h1.027v2.348H6.508v-2.348zm17.85 4.752h1.026v2.348h-1.027v-2.348zm1.857 0h1.027v2.348h-1.027v-2.348zm1.857 0H29.1v2.348H28.07v-2.348zm-3.714-4.752h1.027v2.348h-1.027v-2.348zm1.858 0h1.027v2.348h-1.027v-2.348zm1.857 0H29.1v2.348h-1.027v-2.348zm-4.667-11.022h.084l-.024.255c0 .74.568 1.345 1.267 1.345h4.474c.308 0 .605-.12.837-.336.273-.257.43-.625.43-1.01s-.157-.755-.43-1.01c-.232-.218-.53-.337-.838-.337H28.13l.005-.082c0-.336-.136-.656-.374-.878-.2-.19-.46-.294-.73-.294h-3.625c-.61 0-1.104.527-1.104 1.173s.496 1.174 1.105 1.174zm0-1.255h3.626l.05.02.027.06-.028.063-.05.02h-.002c-.283 0-.513.244-.513.545 0 .3.23.546.513.546h2.176c.074 0 .127.035.16.064.03.028.08.092.08.19 0 .1-.05.164-.08.192-.032.03-.085.064-.16.064h-4.473c-.133 0-.24-.115-.24-.256 0-.14.107-.255.24-.255.284 0 .514-.245.514-.546h.002c0-.3-.23-.545-.514-.545h-1.33c-.042 0-.077-.037-.077-.082 0-.046.034-.083.077-.083z" fill="#67737B"/><path d="M31.892 16.07c-.077-.262-.247-.48-.466-.616l-1.657-2.186v-1.034c0-.3-.23-.545-.514-.545-.283 0-.513.243-.513.544V13.3H22.14v-1.066c0-.3-.23-.545-.512-.545-.284 0-.513.243-.513.544V13.3h-.905V9.207l-.045-.222C20.073 7 18.75 5.355 16.995 4.89V3.33c0-.3-.23-.544-.513-.545v-1.24c0-.302-.23-.546-.514-.546-.283 0-.513.245-.513.546v1.24c-.283.002-.512.245-.512.546v1.565c-1.807.493-3.147 2.238-3.147 4.31V13.3h-1.173v-1.066c0-.3-.23-.545-.513-.545-.283 0-.513.243-.513.544V13.3h-6.34l-.022-.032v-1.034c0-.3-.23-.545-.513-.545-.283 0-.514.243-.514.544v1.07L.598 15.43c-.256.14-.448.392-.52.694-.085.147-.097.33-.035.49v12.78c0 .604.46 1.092 1.027 1.092h29.847c.567 0 1.027-.488 1.027-1.09V16.663c.04-.077.064-.164.064-.258 0-.128-.042-.244-.11-.336zM2.005 15.31l.727-.96.514.678.627.828.007.008H1.587l.42-.553zm13.976-9.46c1.57 0 2.874 1.22 3.12 2.814h-6.237c.246-1.593 1.55-2.813 3.118-2.813zm14.436 10.014h-2.293l.006-.008.412-.545.727-.96.513.677.213.282.42.552zm-6.78 6.318h6.25v3.707h-6.25V22.18zm-1.028 6.126v.546h-.627v-.988c0-.3-.228-.545-.512-.545-.283 0-.513.243-.513.544v.988h-.83v-.988c0-.3-.23-.545-.514-.545-.283 0-.513.243-.513.544v.988h-.83v-.988c0-.3-.23-.545-.513-.545-.283 0-.513.243-.513.544v.988h-.83v-.988c0-.3-.23-.545-.513-.545-.284 0-.514.243-.514.544v.988h-.83v-.988c0-.3-.23-.545-.514-.545-.284 0-.514.243-.514.544v.988h-.83v-.988c0-.3-.23-.545-.513-.545-.283 0-.513.243-.513.544v.988h-.83v-.988c0-.3-.23-.545-.514-.545-.284 0-.514.243-.514.544v.988h-.42V26.98h13.216v1.327zm-9.734-12.998l2.175-.918.95-.4.95.4 2.174.918 1.293.545H11.58l1.293-.545zm9.734 1.644v4.137H9.39v-4.146H22.61v.01zm1.027.537h6.25v3.6h-6.25v-3.6zm-21.543 0h6.272v3.6H2.092v-3.6zm0 4.69h6.272v3.707H2.092V22.18zm7.3 0h13.216v3.707H9.39V22.18zm3.427-12.427h6.36V13.3h-.87v-2.627c0-.3-.23-.545-.513-.545-.283 0-.513.244-.513.545V13.3h-.14l-.69-.292v-2.336c0-.3-.23-.545-.514-.545-.284 0-.514.244-.514.545v2.386l-.574.242h-.256v-2.628c0-.3-.23-.545-.513-.545-.284 0-.514.244-.514.545V13.3h-.752V9.752zm15.098 4.638l-.695.92h-5.316l-2.175-.92h8.186zm-15.65 0l-2.176.92H4.776l-.695-.92h8.187zM2.09 26.98h6.272v1.327H2.092V26.98zm21.543 0h6.25v1.327h-6.25V26.98zm-13.72-4.29h1.027v2.763H9.915V22.69zm1.858 0H12.8v2.763h-1.027V22.69zm1.857 0h1.027v2.763H13.63V22.69zm1.857 0h1.026v2.763h-1.026V22.69zm1.857 0h1.027v2.763h-1.026V22.69zm1.857 0h1.027v2.763H19.2V22.69zm1.858 0h1.026v2.763h-1.026V22.69zM9.915 17.624h1.027v2.763H9.915v-2.763zm1.858 0H12.8v2.763h-1.027v-2.763zm1.857 0h1.027v2.763H13.63v-2.763zm1.857 0h1.026v2.763h-1.026v-2.763zm1.857 0h1.027v2.763h-1.026v-2.763zm1.857 0h1.027v2.763H19.2v-2.763zm1.858 0h1.026v2.763h-1.026v-2.763zM2.793 22.948H3.82v2.348H2.793v-2.348zm1.858 0H5.68v2.348H4.65v-2.348zm1.858 0h1.027v2.348H6.508v-2.348zm-3.715-4.752H3.82v2.348H2.793v-2.348zm1.858 0H5.68v2.348H4.65v-2.348zm1.858 0h1.027v2.348H6.508v-2.348zm17.85 4.752h1.026v2.348h-1.027v-2.348zm1.857 0h1.027v2.348h-1.027v-2.348zm1.857 0H29.1v2.348H28.07v-2.348zm-3.714-4.752h1.027v2.348h-1.027v-2.348zm1.858 0h1.027v2.348h-1.027v-2.348zm1.857 0H29.1v2.348h-1.027v-2.348zM23.406 7.174h.084l-.024.255c0 .742.568 1.345 1.267 1.345h4.474c.308 0 .605-.12.837-.336.273-.257.43-.625.43-1.01s-.157-.755-.43-1.01c-.232-.217-.53-.337-.838-.337H28.13L28.136 6c0-.336-.136-.656-.374-.878-.2-.19-.46-.294-.73-.294h-3.625c-.61 0-1.104.527-1.104 1.173s.496 1.174 1.105 1.174zm0-1.255h3.626l.05.02.027.06-.028.063-.05.02h-.002c-.283 0-.513.244-.513.545 0 .3.23.546.513.546h2.176c.074 0 .127.035.16.064.03.028.08.092.08.19 0 .1-.05.164-.08.192-.032.03-.085.064-.16.064h-4.473c-.133 0-.24-.115-.24-.256 0-.14.107-.255.24-.255.284 0 .514-.245.514-.546h.002c0-.3-.23-.545-.514-.545h-1.33c-.042 0-.077-.037-.077-.082 0-.046.034-.083.077-.083z" fill="#373D43"/></g></svg>