<svg width="32" height="232" viewBox="0 0 32 232" xmlns="http://www.w3.org/2000/svg" xmlns:sketch="http://www.bohemiancoding.com/sketch/ns"><title>toronto-canada</title><desc>Created with Sketch.</desc><g sketch:type="MSPage" fill="none"><g sketch:type="MSShapeGroup"><path d="M22.451 150.574c-.273 0-.39-.046-.552-.109-.196-.077-.44-.172-.885-.172-.446 0-.689.095-.885.172-.162.063-.279.109-.552.109s-.39-.046-.552-.109c-.196-.077-.439-.172-.885-.172s-.689.095-.885.172c-.162.063-.279.109-.552.109s-.39-.046-.551-.109c-.196-.077-.44-.172-.885-.172s-.689.095-.885.172c-.162.063-.279.109-.552.109s-.39-.046-.552-.109c-.196-.077-.439-.172-.885-.172-.445 0-.689.095-.885.172-.162.063-.279.109-.552.109s-.389-.046-.551-.109c-.196-.077-.439-.172-.885-.172s-.689.095-.885.172c-.162.063-.279.109-.552.109s-.39-.046-.552-.109c-.196-.077-.44-.172-.885-.172-.446 0-.689.095-.885.172-.162.063-.279.109-.552.109s-.39-.046-.552-.109c-.196-.077-.439-.172-.885-.172-.253 0-.458.206-.458.46s.205.46.458.46c.273 0 .39.046.552.109.196.077.44.172.885.172s.689-.095.885-.172c.162-.063.279-.109.552-.109s.39.046.552.109c.196.077.439.172.885.172.445 0 .689-.095.885-.172.162-.063.279-.109.552-.109s.39.046.552.109c.196.077.439.172.885.172s.689-.095.885-.172c.162-.063.279-.109.552-.109s.39.046.551.109c.196.077.439.172.885.172.445 0 .689-.095.885-.172.162-.063.279-.109.551-.109.273 0 .39.046.552.109.196.077.439.172.885.172s.689-.095.885-.172c.162-.063.279-.109.552-.109s.39.046.551.109c.196.077.44.172.885.172s.689-.095.885-.172c.162-.063.279-.109.552-.109s.39.046.552.109c.196.077.439.172.885.172.253 0 .458-.206.458-.46s-.205-.46-.458-.46m9.539-2.552c0-.508-.411-.92-.917-.92h-1.929v-10.747c0-.254-.205-.46-.458-.46h-3.895c-.253 0-.458.206-.458.46v2.203c-.072-.158-.231-.269-.416-.269h-2.551c-.253 0-.459.206-.459.46v.758h-.214c-.253 0-.459.206-.459.46v3.87c-.237-.17-.48-.33-.728-.48v-6.703c0-.254-.205-.46-.458-.46h-.734v-2.415c0-.254-.205-.46-.458-.46s-.458.206-.458.46v2.415h-.407v-3.035c0-.173-.097-.332-.251-.41-.155-.078-.339-.063-.479.04l-3.362 2.479c-.117.087-.187.224-.187.37v4.26h-2.332c-.253 0-.458.206-.458.46v2.135l-.521.216v-1.137c0-.254-.205-.46-.459-.46h-1.843l-.31-9.321h.401c.234 0 .43-.177.456-.41l.201-1.832c.014-.13-.027-.26-.114-.357l-.095-.079v-.821c0-.254-.205-.46-.458-.46h-.813v-6.819c0-.254-.205-.46-.458-.46s-.458.206-.458.46v6.819h-.813c-.253 0-.458.206-.458.46v.821l-.095.079c-.087.097-.128.227-.114.357l.201 1.832c.025.233.222.41.456.41h.401l-.31 9.321h-2.028c-.253 0-.458.206-.458.46v5.53h-1.326c-.506 0-.917.412-.917.92 0 .404.259.746.62.87.08.069.183.112.297.112.273 0 .39.046.552.109.196.077.439.172.885.172s.689-.095.885-.172c.162-.063.279-.109.551-.109.273 0 .39.046.552.109.196.077.44.172.885.172.446 0 .689-.095.885-.172.162-.063.279-.109.552-.109s.39.046.552.109c.196.077.439.172.885.172.445 0 .689-.095.885-.172.162-.063.279-.109.552-.109s.39.046.552.109c.196.077.439.172.885.172s.689-.095.885-.172c.162-.063.279-.109.552-.109s.39.046.551.109c.196.077.439.172.885.172.445 0 .689-.095.885-.172.162-.063.279-.109.551-.109.273 0 .39.046.552.109.196.077.439.172.885.172s.689-.095.885-.172c.162-.063.279-.109.552-.109s.39.046.551.109c.196.077.44.172.885.172s.689-.095.885-.172c.162-.063.279-.109.552-.109s.39.046.552.109c.196.077.439.172.885.172s.689-.095.885-.172c.162-.063.279-.109.552-.109s.39.046.551.109c.196.077.439.172.885.172s.689-.095.885-.172c.162-.063.279-.109.552-.109s.39.046.552.109c.196.077.439.172.885.172s.689-.095.885-.172c.162-.063.279-.109.552-.109s.39.046.552.109c.196.077.44.172.886.172.253 0 .458-.206.458-.46l-.001-.007c.274-.159.459-.456.459-.796zm-26.358-6.91l.275-8.259.473 14.249.004.139.024.708h-1.003l.023-.708.001-.031.203-6.098zm-.538-12.36h1.626v.286h-1.626v-.286zm-.159 1.207h1.944l-.1.913h-1.744l-.1-.913zm12.188 7.155h1.467v5.746c-.474-.229-.964-.424-1.467-.583v-5.163zm-1.049 4.887c-.731-.154-1.481-.235-2.242-.235l-.204.003v-5.898l2.445-1.803v7.933zm-5.235-1.182h1.467v1.056c-.498.071-.987.176-1.467.313v-1.369zm0 3.297c.476-.166.966-.294 1.467-.379l.406-.06.052-.006.406-.039.052-.004.406-.019.204-.003c.764 0 1.516.098 2.242.283l.132.035.327.095.132.043.327.114.132.051c.51.198 1.001.441 1.467.725l.458.299.458.339c.253.2.496.414.728.64.158.154.311.315.459.482l.065.073h-1.12l-.132-.171c-.145-.182-.298-.357-.458-.523-.147-.152-.3-.298-.458-.436-.448-.39-.941-.722-1.467-.991l-.132-.067-.327-.149-.132-.055-.327-.123-.132-.044c-.715-.235-1.471-.361-2.242-.361l-.204.003-.406.024-.052.004-.406.05-.052.008-.406.077c-.507.11-.999.274-1.467.488l-.458.23-.458.272c-.179.115-.353.238-.521.368-.328.254-.635.536-.917.844-.161.176-.313.36-.458.552h-.739l-.013-.399c.374-.383.779-.731 1.21-1.041.294-.212.6-.406.917-.582l.521-.268.458-.203.458-.174zm-1.615 2.666l.177-.181c.166-.162.34-.315.521-.458.148-.116.301-.226.458-.329.149-.097.302-.188.458-.272.462-.249.955-.441 1.467-.57l.406-.088.052-.009.406-.056.052-.005.406-.027.204-.003c.776 0 1.534.145 2.242.415l.132.052.327.144.132.064.327.176.132.078c.483.295.927.654 1.319 1.069l.148.162.135.159h-9.785l.284-.321zm16.027-9.966h2.978v10.287h-2.978v-10.287zm-3.425 2.393h1.634v.299h-1.634v-.299zm-.672 1.218h2.979v6.675h-.356v-5.709c0-.254-.205-.46-.458-.46s-.458.206-.458.46v5.103l-.366-.496v-4.607c0-.254-.205-.46-.458-.46s-.458.206-.458.46v3.576l-.423-.396v-4.145zm-12.669 1.605v1.136c-.448.25-.879.531-1.288.842l-.066-1.978h1.354zm-5.338 0h1.539l-.163 4.891-.109.179h-1.267v-5.07zm18.603-10.223l.122.086.203.05.206-.049c.226-.114.317-.39.204-.617-.044-.089-.117-.162-.206-.206-.172-.086-.392-.05-.528.086-.141.14-.176.357-.086.534l.084.116zm-1.939-4.32l.207.05c.122 0 .238-.048.324-.135.14-.14.174-.354.086-.532-.044-.089-.117-.162-.206-.206-.079-.04-.169-.055-.257-.045l-.186.066-.085.065c-.141.14-.176.357-.086.535.044.087.115.158.202.202zm-5.179 1.097l.381.209.208.382c.08.147.235.239.402.239.167 0 .322-.092.402-.239l.209-.382.381-.209c.147-.081.239-.235.239-.404 0-.168-.092-.323-.239-.403l-.381-.209-.209-.382c-.08-.148-.235-.239-.402-.239-.168 0-.322.092-.402.239l-.209.382-.381.209c-.147.081-.238.235-.238.403 0 .168.091.323.238.404z" fill="#206FAC"/><path d="M22.451 110.574c-.273 0-.39-.046-.552-.109-.196-.077-.44-.172-.885-.172-.446 0-.689.095-.885.172-.162.063-.279.109-.552.109s-.39-.046-.552-.109c-.196-.077-.439-.172-.885-.172s-.689.095-.885.172c-.162.063-.279.109-.552.109s-.39-.046-.551-.109c-.196-.077-.44-.172-.885-.172s-.689.095-.885.172c-.162.063-.279.109-.552.109s-.39-.046-.552-.109c-.196-.077-.439-.172-.885-.172-.445 0-.689.095-.885.172-.162.063-.279.109-.552.109s-.389-.046-.551-.109c-.196-.077-.439-.172-.885-.172s-.689.095-.885.172c-.162.063-.279.109-.552.109s-.39-.046-.552-.109c-.196-.077-.44-.172-.885-.172-.446 0-.689.095-.885.172-.162.063-.279.109-.552.109s-.39-.046-.552-.109c-.196-.077-.439-.172-.885-.172-.253 0-.458.206-.458.46s.205.46.458.46c.273 0 .39.046.552.109.196.077.44.172.885.172s.689-.095.885-.172c.162-.063.279-.109.552-.109s.39.046.552.109c.196.077.439.172.885.172.445 0 .689-.095.885-.172.162-.063.279-.109.552-.109s.39.046.552.109c.196.077.439.172.885.172s.689-.095.885-.172c.162-.063.279-.109.552-.109s.39.046.551.109c.196.077.439.172.885.172.445 0 .689-.095.885-.172.162-.063.279-.109.551-.109.273 0 .39.046.552.109.196.077.439.172.885.172s.689-.095.885-.172c.162-.063.279-.109.552-.109s.39.046.551.109c.196.077.44.172.885.172s.689-.095.885-.172c.162-.063.279-.109.552-.109s.39.046.552.109c.196.077.439.172.885.172.253 0 .458-.206.458-.46s-.205-.46-.458-.46m9.539-2.552c0-.508-.411-.92-.917-.92h-1.929v-10.747c0-.254-.205-.46-.458-.46h-3.895c-.253 0-.458.206-.458.46v2.203c-.072-.158-.231-.269-.416-.269h-2.551c-.253 0-.459.206-.459.46v.758h-.214c-.253 0-.459.206-.459.46v3.87c-.237-.17-.48-.33-.728-.48v-6.703c0-.254-.205-.46-.458-.46h-.734v-2.415c0-.254-.205-.46-.458-.46s-.458.206-.458.46v2.415h-.407v-3.035c0-.173-.097-.332-.251-.41-.155-.078-.339-.063-.479.04l-3.362 2.479c-.117.087-.187.224-.187.37v4.26h-2.332c-.253 0-.458.206-.458.46v2.135l-.521.216v-1.137c0-.254-.205-.46-.459-.46h-1.843l-.31-9.321h.401c.234 0 .43-.177.456-.41l.201-1.832c.014-.13-.027-.26-.114-.357l-.095-.079v-.821c0-.254-.205-.46-.458-.46h-.813v-6.819c0-.254-.205-.46-.458-.46s-.458.206-.458.46v6.819h-.813c-.253 0-.458.206-.458.46v.821l-.095.079c-.087.097-.128.227-.114.357l.201 1.832c.025.233.222.41.456.41h.401l-.31 9.321h-2.028c-.253 0-.458.206-.458.46v5.53h-1.326c-.506 0-.917.412-.917.92 0 .404.259.746.62.87.08.069.183.112.297.112.273 0 .39.046.552.109.196.077.439.172.885.172s.689-.095.885-.172c.162-.063.279-.109.551-.109.273 0 .39.046.552.109.196.077.44.172.885.172.446 0 .689-.095.885-.172.162-.063.279-.109.552-.109s.39.046.552.109c.196.077.439.172.885.172.445 0 .689-.095.885-.172.162-.063.279-.109.552-.109s.39.046.552.109c.196.077.439.172.885.172s.689-.095.885-.172c.162-.063.279-.109.552-.109s.39.046.551.109c.196.077.439.172.885.172.445 0 .689-.095.885-.172.162-.063.279-.109.551-.109.273 0 .39.046.552.109.196.077.439.172.885.172s.689-.095.885-.172c.162-.063.279-.109.552-.109s.39.046.551.109c.196.077.44.172.885.172s.689-.095.885-.172c.162-.063.279-.109.552-.109s.39.046.552.109c.196.077.439.172.885.172s.689-.095.885-.172c.162-.063.279-.109.552-.109s.39.046.551.109c.196.077.439.172.885.172s.689-.095.885-.172c.162-.063.279-.109.552-.109s.39.046.552.109c.196.077.439.172.885.172s.689-.095.885-.172c.162-.063.279-.109.552-.109s.39.046.552.109c.196.077.44.172.886.172.253 0 .458-.206.458-.46l-.001-.007c.274-.159.459-.456.459-.796zm-26.358-6.91l.275-8.259.473 14.249.004.139.024.708h-1.003l.023-.708.001-.031.203-6.098zm-.538-12.36h1.626v.286h-1.626v-.286zm-.159 1.207h1.944l-.1.913h-1.744l-.1-.913zm12.188 7.155h1.467v5.746c-.474-.229-.964-.424-1.467-.583v-5.163zm-1.049 4.887c-.731-.154-1.481-.235-2.242-.235l-.204.003v-5.898l2.445-1.803v7.933zm-5.235-1.182h1.467v1.056c-.498.071-.987.176-1.467.313v-1.369zm0 3.297c.476-.166.966-.294 1.467-.379l.406-.06.052-.006.406-.039.052-.004.406-.019.204-.003c.764 0 1.516.098 2.242.283l.132.035.327.095.132.043.327.114.132.051c.51.198 1.001.441 1.467.725l.458.299.458.339c.253.2.496.414.728.64.158.154.311.315.459.482l.065.073h-1.12l-.132-.171c-.145-.182-.298-.357-.458-.523-.147-.152-.3-.298-.458-.436-.448-.39-.941-.722-1.467-.991l-.132-.067-.327-.149-.132-.055-.327-.123-.132-.044c-.715-.235-1.471-.361-2.242-.361l-.204.003-.406.024-.052.004-.406.05-.052.008-.406.077c-.507.11-.999.274-1.467.488l-.458.23-.458.272c-.179.115-.353.238-.521.368-.328.254-.635.536-.917.844-.161.176-.313.36-.458.552h-.739l-.013-.399c.374-.383.779-.731 1.21-1.041.294-.212.6-.406.917-.582l.521-.268.458-.203.458-.174zm-1.615 2.666l.177-.181c.166-.162.34-.315.521-.458.148-.116.301-.226.458-.329.149-.097.302-.188.458-.272.462-.249.955-.441 1.467-.57l.406-.088.052-.009.406-.056.052-.005.406-.027.204-.003c.776 0 1.534.145 2.242.415l.132.052.327.144.132.064.327.176.132.078c.483.295.927.654 1.319 1.069l.148.162.135.159h-9.785l.284-.321zm16.027-9.966h2.978v10.287h-2.978v-10.287zm-3.425 2.393h1.634v.299h-1.634v-.299zm-.672 1.218h2.979v6.675h-.356v-5.709c0-.254-.205-.46-.458-.46s-.458.206-.458.46v5.103l-.366-.496v-4.607c0-.254-.205-.46-.458-.46s-.458.206-.458.46v3.576l-.423-.396v-4.145zm-12.669 1.605v1.136c-.448.25-.879.531-1.288.842l-.066-1.978h1.354zm-5.338 0h1.539l-.163 4.891-.109.179h-1.267v-5.07zm18.603-10.223l.122.086.203.05.206-.049c.226-.114.317-.39.204-.617-.044-.089-.117-.162-.206-.206-.172-.086-.392-.05-.528.086-.141.14-.176.357-.086.534l.084.116zm-1.939-4.32l.207.05c.122 0 .238-.048.324-.135.14-.14.174-.354.086-.532-.044-.089-.117-.162-.206-.206-.079-.04-.169-.055-.257-.045l-.186.066-.085.065c-.141.14-.176.357-.086.535.044.087.115.158.202.202zm-5.179 1.097l.381.209.208.382c.08.147.235.239.402.239.167 0 .322-.092.402-.239l.209-.382.381-.209c.147-.081.239-.235.239-.404 0-.168-.092-.323-.239-.403l-.381-.209-.209-.382c-.08-.148-.235-.239-.402-.239-.168 0-.322.092-.402.239l-.209.382-.381.209c-.147.081-.238.235-.238.403 0 .168.091.323.238.404z" fill="#fff"/><path d="M22.451 70.574c-.273 0-.39-.046-.552-.109-.196-.077-.44-.172-.885-.172-.446 0-.689.095-.885.172-.162.063-.279.109-.552.109s-.39-.046-.552-.109c-.196-.077-.439-.172-.885-.172s-.689.095-.885.172c-.162.063-.279.109-.552.109s-.39-.046-.551-.109c-.196-.077-.44-.172-.885-.172s-.689.095-.885.172c-.162.063-.279.109-.552.109s-.39-.046-.552-.109c-.196-.077-.439-.172-.885-.172-.445 0-.689.095-.885.172-.162.063-.279.109-.552.109s-.389-.046-.551-.109c-.196-.077-.439-.172-.885-.172s-.689.095-.885.172c-.162.063-.279.109-.552.109s-.39-.046-.552-.109c-.196-.077-.44-.172-.885-.172-.446 0-.689.095-.885.172-.162.063-.279.109-.552.109s-.39-.046-.552-.109c-.196-.077-.439-.172-.885-.172-.253 0-.458.206-.458.46s.205.46.458.46c.273 0 .39.046.552.109.196.077.44.172.885.172s.689-.095.885-.172c.162-.063.279-.109.552-.109s.39.046.552.109c.196.077.439.172.885.172.445 0 .689-.095.885-.172.162-.063.279-.109.552-.109s.39.046.552.109c.196.077.439.172.885.172s.689-.095.885-.172c.162-.063.279-.109.552-.109s.39.046.551.109c.196.077.439.172.885.172.445 0 .689-.095.885-.172.162-.063.279-.109.551-.109.273 0 .39.046.552.109.196.077.439.172.885.172s.689-.095.885-.172c.162-.063.279-.109.552-.109s.39.046.551.109c.196.077.44.172.885.172s.689-.095.885-.172c.162-.063.279-.109.552-.109s.39.046.552.109c.196.077.439.172.885.172.253 0 .458-.206.458-.46s-.205-.46-.458-.46m9.539-2.552c0-.508-.411-.92-.917-.92h-1.929v-10.747c0-.254-.205-.46-.458-.46h-3.895c-.253 0-.458.206-.458.46v2.203c-.072-.158-.231-.269-.416-.269h-2.551c-.253 0-.459.206-.459.46v.758h-.214c-.253 0-.459.206-.459.46v3.87c-.237-.17-.48-.33-.728-.48v-6.703c0-.254-.205-.46-.458-.46h-.734v-2.415c0-.254-.205-.46-.458-.46s-.458.206-.458.46v2.415h-.407v-3.035c0-.173-.097-.332-.251-.41-.155-.078-.339-.063-.479.04l-3.362 2.479c-.117.087-.187.224-.187.37v4.26h-2.332c-.253 0-.458.206-.458.46v2.135l-.521.216v-1.137c0-.254-.205-.46-.459-.46h-1.843l-.31-9.321h.401c.234 0 .43-.177.456-.41l.201-1.832c.014-.13-.027-.26-.114-.357l-.095-.079v-.821c0-.254-.205-.46-.458-.46h-.813v-6.819c0-.254-.205-.46-.458-.46s-.458.206-.458.46v6.819h-.813c-.253 0-.458.206-.458.46v.821l-.095.079c-.087.097-.128.227-.114.357l.201 1.832c.025.233.222.41.456.41h.401l-.31 9.321h-2.028c-.253 0-.458.206-.458.46v5.53h-1.326c-.506 0-.917.412-.917.92 0 .404.259.746.62.87.08.069.183.112.297.112.273 0 .39.046.552.109.196.077.439.172.885.172s.689-.095.885-.172c.162-.063.279-.109.551-.109.273 0 .39.046.552.109.196.077.44.172.885.172.446 0 .689-.095.885-.172.162-.063.279-.109.552-.109s.39.046.552.109c.196.077.439.172.885.172.445 0 .689-.095.885-.172.162-.063.279-.109.552-.109s.39.046.552.109c.196.077.439.172.885.172s.689-.095.885-.172c.162-.063.279-.109.552-.109s.39.046.551.109c.196.077.439.172.885.172.445 0 .689-.095.885-.172.162-.063.279-.109.551-.109.273 0 .39.046.552.109.196.077.439.172.885.172s.689-.095.885-.172c.162-.063.279-.109.552-.109s.39.046.551.109c.196.077.44.172.885.172s.689-.095.885-.172c.162-.063.279-.109.552-.109s.39.046.552.109c.196.077.439.172.885.172s.689-.095.885-.172c.162-.063.279-.109.552-.109s.39.046.551.109c.196.077.439.172.885.172s.689-.095.885-.172c.162-.063.279-.109.552-.109s.39.046.552.109c.196.077.439.172.885.172s.689-.095.885-.172c.162-.063.279-.109.552-.109s.39.046.552.109c.196.077.44.172.886.172.253 0 .458-.206.458-.46l-.001-.007c.274-.159.459-.456.459-.796zm-26.358-6.91l.275-8.259.473 14.249.004.139.024.708h-1.003l.023-.708.001-.031.203-6.098zm-.538-12.36h1.626v.286h-1.626v-.286zm-.159 1.207h1.944l-.1.913h-1.744l-.1-.913zm12.188 7.155h1.467v5.746c-.474-.229-.964-.424-1.467-.583v-5.163zm-1.049 4.887c-.731-.154-1.481-.235-2.242-.235l-.204.003v-5.898l2.445-1.803v7.933zm-5.235-1.182h1.467v1.056c-.498.071-.987.176-1.467.313v-1.369zm0 3.297c.476-.166.966-.294 1.467-.379l.406-.06.052-.006.406-.039.052-.004.406-.019.204-.003c.764 0 1.516.098 2.242.283l.132.035.327.095.132.043.327.114.132.051c.51.198 1.001.441 1.467.725l.458.299.458.339c.253.2.496.414.728.64.158.154.311.315.459.482l.065.073h-1.12l-.132-.171c-.145-.182-.298-.357-.458-.523-.147-.152-.3-.298-.458-.436-.448-.39-.941-.722-1.467-.991l-.132-.067-.327-.149-.132-.055-.327-.123-.132-.044c-.715-.235-1.471-.361-2.242-.361l-.204.003-.406.024-.052.004-.406.05-.052.008-.406.077c-.507.11-.999.274-1.467.488l-.458.23-.458.272c-.179.115-.353.238-.521.368-.328.254-.635.536-.917.844-.161.176-.313.36-.458.552h-.739l-.013-.399c.374-.383.779-.731 1.21-1.041.294-.212.6-.406.917-.582l.521-.268.458-.203.458-.174zm-1.615 2.666l.177-.181c.166-.162.34-.315.521-.458.148-.116.301-.226.458-.329.149-.097.302-.188.458-.272.462-.249.955-.441 1.467-.57l.406-.088.052-.009.406-.056.052-.005.406-.027.204-.003c.776 0 1.534.145 2.242.415l.132.052.327.144.132.064.327.176.132.078c.483.295.927.654 1.319 1.069l.148.162.135.159h-9.785l.284-.321zm16.027-9.966h2.978v10.287h-2.978v-10.287zm-3.425 2.393h1.634v.299h-1.634v-.299zm-.672 1.218h2.979v6.675h-.356v-5.709c0-.254-.205-.46-.458-.46s-.458.206-.458.46v5.103l-.366-.496v-4.607c0-.254-.205-.46-.458-.46s-.458.206-.458.46v3.576l-.423-.396v-4.145zm-12.669 1.605v1.136c-.448.25-.879.531-1.288.842l-.066-1.978h1.354zm-5.338 0h1.539l-.163 4.891-.109.179h-1.267v-5.07zm18.603-10.223l.122.086.203.05.206-.049c.226-.114.317-.39.204-.617-.044-.089-.117-.162-.206-.206-.172-.086-.392-.05-.528.086-.141.14-.176.357-.086.534l.084.116zm-1.939-4.32l.207.05c.122 0 .238-.048.324-.135.14-.14.174-.354.086-.532-.044-.089-.117-.162-.206-.206-.079-.04-.169-.055-.257-.045l-.186.066-.085.065c-.141.14-.176.357-.086.535.044.087.115.158.202.202zm-5.179 1.097l.381.209.208.382c.08.147.235.239.402.239.167 0 .322-.092.402-.239l.209-.382.381-.209c.147-.081.239-.235.239-.404 0-.168-.092-.323-.239-.403l-.381-.209-.209-.382c-.08-.148-.235-.239-.402-.239-.168 0-.322.092-.402.239l-.209.382-.381.209c-.147.081-.238.235-.238.403 0 .168.091.323.238.404z" fill="#67737B"/><path d="M22.451 30.574c-.273 0-.39-.046-.552-.109-.196-.077-.44-.172-.885-.172-.446 0-.689.095-.885.172-.162.063-.279.109-.552.109s-.39-.046-.552-.109c-.196-.077-.439-.172-.885-.172s-.689.095-.885.172c-.162.063-.279.109-.552.109s-.39-.046-.551-.109c-.196-.077-.44-.172-.885-.172s-.689.095-.885.172c-.162.063-.279.109-.552.109s-.39-.046-.552-.109c-.196-.077-.439-.172-.885-.172-.445 0-.689.095-.885.172-.162.063-.279.109-.552.109s-.389-.046-.551-.109c-.196-.077-.439-.172-.885-.172s-.689.095-.885.172c-.162.063-.279.109-.552.109s-.39-.046-.552-.109c-.196-.077-.44-.172-.885-.172-.446 0-.689.095-.885.172-.162.063-.279.109-.552.109s-.39-.046-.552-.109c-.196-.077-.439-.172-.885-.172-.253 0-.458.206-.458.46s.205.46.458.46c.273 0 .39.046.552.109.196.077.44.172.885.172s.689-.095.885-.172c.162-.063.279-.109.552-.109s.39.046.552.109c.196.077.439.172.885.172.445 0 .689-.095.885-.172.162-.063.279-.109.552-.109s.39.046.552.109c.196.077.439.172.885.172s.689-.095.885-.172c.162-.063.279-.109.552-.109s.39.046.551.109c.196.077.439.172.885.172.445 0 .689-.095.885-.172.162-.063.279-.109.551-.109.273 0 .39.046.552.109.196.077.439.172.885.172s.689-.095.885-.172c.162-.063.279-.109.552-.109s.39.046.551.109c.196.077.44.172.885.172s.689-.095.885-.172c.162-.063.279-.109.552-.109s.39.046.552.109c.196.077.439.172.885.172.253 0 .458-.206.458-.46s-.205-.46-.458-.46m9.539-2.552c0-.508-.411-.92-.917-.92h-1.929v-10.747c0-.254-.205-.46-.458-.46h-3.895c-.253 0-.458.206-.458.46v2.203c-.072-.158-.231-.269-.416-.269h-2.551c-.253 0-.459.206-.459.46v.758h-.214c-.253 0-.459.206-.459.46v3.87c-.237-.17-.48-.33-.728-.48v-6.703c0-.254-.205-.46-.458-.46h-.734v-2.415c0-.254-.205-.46-.458-.46s-.458.206-.458.46v2.415h-.407v-3.035c0-.173-.097-.332-.251-.41-.155-.078-.339-.063-.479.04l-3.362 2.479c-.117.087-.187.224-.187.37v4.26h-2.332c-.253 0-.458.206-.458.46v2.135l-.521.216v-1.137c0-.254-.205-.46-.459-.46h-1.843l-.31-9.321h.401c.234 0 .43-.177.456-.41l.201-1.832c.014-.13-.027-.26-.114-.357l-.095-.079v-.821c0-.254-.205-.46-.458-.46h-.813v-6.819c0-.254-.205-.46-.458-.46s-.458.206-.458.46v6.819h-.813c-.253 0-.458.206-.458.46v.821l-.095.079c-.087.097-.128.227-.114.357l.201 1.832c.025.233.222.41.456.41h.401l-.31 9.321h-2.028c-.253 0-.458.206-.458.46v5.53h-1.326c-.506 0-.917.412-.917.92 0 .404.259.746.62.87.08.069.183.112.297.112.273 0 .39.046.552.109.196.077.439.172.885.172s.689-.095.885-.172c.162-.063.279-.109.551-.109.273 0 .39.046.552.109.196.077.44.172.885.172.446 0 .689-.095.885-.172.162-.063.279-.109.552-.109s.39.046.552.109c.196.077.439.172.885.172.445 0 .689-.095.885-.172.162-.063.279-.109.552-.109s.39.046.552.109c.196.077.439.172.885.172s.689-.095.885-.172c.162-.063.279-.109.552-.109s.39.046.551.109c.196.077.439.172.885.172.445 0 .689-.095.885-.172.162-.063.279-.109.551-.109.273 0 .39.046.552.109.196.077.439.172.885.172s.689-.095.885-.172c.162-.063.279-.109.552-.109s.39.046.551.109c.196.077.44.172.885.172s.689-.095.885-.172c.162-.063.279-.109.552-.109s.39.046.552.109c.196.077.439.172.885.172s.689-.095.885-.172c.162-.063.279-.109.552-.109s.39.046.551.109c.196.077.439.172.885.172s.689-.095.885-.172c.162-.063.279-.109.552-.109s.39.046.552.109c.196.077.439.172.885.172s.689-.095.885-.172c.162-.063.279-.109.552-.109s.39.046.552.109c.196.077.44.172.886.172.253 0 .458-.206.458-.46l-.001-.007c.274-.159.459-.456.459-.796zm-26.358-6.91l.275-8.259.473 14.249.004.139.024.708h-1.003l.023-.708.001-.031.203-6.098zm-.538-12.36h1.626v.286h-1.626v-.286zm-.159 1.207h1.944l-.1.913h-1.744l-.1-.913zm12.188 7.155h1.467v5.746c-.474-.229-.964-.424-1.467-.583v-5.163zm-1.049 4.887c-.731-.154-1.481-.235-2.242-.235l-.204.003v-5.898l2.445-1.803v7.933zm-5.235-1.182h1.467v1.056c-.498.071-.987.176-1.467.313v-1.369zm0 3.297c.476-.166.966-.294 1.467-.379l.406-.06.052-.006.406-.039.052-.004.406-.019.204-.003c.764 0 1.516.098 2.242.283l.132.035.327.095.132.043.327.114.132.051c.51.198 1.001.441 1.467.725l.458.299.458.339c.253.2.496.414.728.64.158.154.311.315.459.482l.065.073h-1.12l-.132-.171c-.145-.182-.298-.357-.458-.523-.147-.152-.3-.298-.458-.436-.448-.39-.941-.722-1.467-.991l-.132-.067-.327-.149-.132-.055-.327-.123-.132-.044c-.715-.235-1.471-.361-2.242-.361l-.204.003-.406.024-.052.004-.406.05-.052.008-.406.077c-.507.11-.999.274-1.467.488l-.458.23-.458.272c-.179.115-.353.238-.521.368-.328.254-.635.536-.917.844-.161.176-.313.36-.458.552h-.739l-.013-.399c.374-.383.779-.731 1.21-1.041.294-.212.6-.406.917-.582l.521-.268.458-.203.458-.174zm-1.615 2.666l.177-.181c.166-.162.34-.315.521-.458.148-.116.301-.226.458-.329.149-.097.302-.188.458-.272.462-.249.955-.441 1.467-.57l.406-.088.052-.009.406-.056.052-.005.406-.027.204-.003c.776 0 1.534.145 2.242.415l.132.052.327.144.132.064.327.176.132.078c.483.295.927.654 1.319 1.069l.148.162.135.159h-9.785l.284-.321zm16.027-9.966h2.978v10.287h-2.978v-10.287zm-3.425 2.393h1.634v.299h-1.634v-.299zm-.672 1.218h2.979v6.675h-.356v-5.709c0-.254-.205-.46-.458-.46s-.458.206-.458.46v5.103l-.366-.496v-4.607c0-.254-.205-.46-.458-.46s-.458.206-.458.46v3.576l-.423-.396v-4.145zm-12.669 1.605v1.136c-.448.25-.879.531-1.288.842l-.066-1.978h1.354zm-5.338 0h1.539l-.163 4.891-.109.179h-1.267v-5.07zm18.603-10.223l.122.086.203.05.206-.049c.226-.114.317-.39.204-.617-.044-.089-.117-.162-.206-.206-.172-.086-.392-.05-.528.086-.141.14-.176.357-.086.534l.084.116zm-1.939-4.32l.207.05c.122 0 .238-.048.324-.135.14-.14.174-.354.086-.532-.044-.089-.117-.162-.206-.206-.079-.04-.169-.055-.257-.045l-.186.066-.085.065c-.141.14-.176.357-.086.535.044.087.115.158.202.202zm-5.179 1.097l.381.209.208.382c.08.147.235.239.402.239.167 0 .322-.092.402-.239l.209-.382.381-.209c.147-.081.239-.235.239-.404 0-.168-.092-.323-.239-.403l-.381-.209-.209-.382c-.08-.148-.235-.239-.402-.239-.168 0-.322.092-.402.239l-.209.382-.381.209c-.147.081-.238.235-.238.403 0 .168.091.323.238.404z" fill="#3A434E"/></g></g></svg>