<svg width="32" height="232" viewBox="0 0 32 232" xmlns="http://www.w3.org/2000/svg"><title>galipolli-peninsula</title><desc>Created with Sketch.</desc><g fill="none"><path d="M20.456 126.71c.217.21.496.328.785.328h1.64l-.006.1c0 .325.128.637.35.853.19.185.433.286.684.286h3.448c.57 0 1.033-.51 1.033-1.14S27.925 126 27.355 126h-.1l.027-.27c0-.723-.533-1.31-1.19-1.31h-4.852c-.288 0-.567.116-.784.328-.256.25-.403.606-.403.982 0 .375.147.733.403.982zm.624-1.184c.032-.03.085-.068.16-.068h4.854c.135 0 .245.12.245.27 0 .15-.11.27-.246.27-.26 0-.472.233-.472.52h-.002c0 .287.21.52.472.52h1.264c.05 0 .09.044.09.1 0 .053-.04.098-.09.098h-3.448l-.06-.025-.03-.073.03-.074.06-.025h.002c.26 0 .472-.233.472-.52 0-.287-.21-.52-.472-.52h-2.67c-.075 0-.128-.037-.16-.068-.03-.03-.084-.097-.084-.202 0-.105.052-.172.084-.202zm10.43 21.195c-.28 0-.4-.05-.567-.122-.202-.087-.453-.195-.91-.195l-.342.023v-2.375c0-.286-.21-.52-.47-.52h-.635v-1.628c0-.287-.21-.52-.472-.52h-3.42v-3.764c0-.258-.173-.477-.405-.514l-3.49-.56h-.007l-.02-.002-.032-.002h-.024l-.03.002-.024.003-.03.006-.022.007-.03.01-.016.006-1.33.56c-.183.076-.303.27-.303.485v3.764h-1.407v-9.54c.777-.062 1.432-.1 1.91-.1 2.883 0 4.803.305 6.497.573l.23.036c1.24.196 2.34.36 3.622.36.26 0 .472-.234.472-.52 0-.288-.21-.52-.472-.52-1.293 0-2.417-.18-3.718-.385-1.725-.273-3.68-.582-6.63-.582-.486 0-1.14.035-1.91.097v-5.576c0-.486-.307-.908-.738-1.014l-9.017-2.232-.06-.01-.04-.008-.112-.007-.027.002-.086.007-.044.008-.07.016-.045.015-.066.026-.044.02-.068.037-.026.015-3.434 2.232c-.288.187-.464.527-.464.895v7.394c-1.283.19-2.14.32-2.28.34-.257.04-.437.303-.4.588.032.26.234.448.466.448l.066-.005c.034-.004.86-.13 2.15-.32v7.712h-.46c-.262 0-.473.233-.473.52v1.63h-.585c-.26 0-.472.232-.472.52v2.472c-.175-.065-.398-.122-.733-.122-.26 0-.472.233-.472.52 0 .287.212.52.473.52.28 0 .4.052.568.123.203.087.453.195.912.195.458 0 .71-.108.91-.195.168-.072.288-.123.568-.123.28 0 .4.052.568.123.202.087.452.195.91.195.46 0 .71-.108.912-.195.167-.072.287-.123.568-.123.28 0 .4.052.568.123.202.087.452.195.91.195.46 0 .71-.108.912-.195.167-.072.287-.123.568-.123.28 0 .4.052.568.123.202.087.452.195.91.195.46 0 .71-.108.912-.195.167-.072.287-.123.568-.123.28 0 .4.052.567.123.203.087.453.195.912.195.458 0 .71-.108.91-.195.167-.072.288-.123.568-.123.28 0 .4.052.568.123.202.087.452.195.91.195s.71-.108.912-.195c.167-.072.287-.123.568-.123.28 0 .4.052.567.123.202.087.452.195.91.195.46 0 .71-.108.912-.195.166-.072.287-.123.568-.123.28 0 .4.052.568.123.202.087.452.195.91.195s.71-.108.912-.195c.167-.072.287-.123.568-.123.28 0 .4.052.567.123.2.087.452.195.91.195.46 0 .71-.108.912-.195.167-.072.287-.123.568-.123.28 0 .4.052.568.123.202.087.452.195.91.195s.71-.108.912-.195c.167-.072.287-.123.568-.123.28 0 .402.052.568.123.202.087.453.195.91.195.262 0 .473-.233.473-.52 0-.287-.212-.52-.473-.52zM5.073 133.396v-7.574l1.547-1.004v16.13H5.07v-7.55zm3.434-9.1l7.13 1.764v14.885H14.05v-13.133c0-.247-.157-.46-.376-.51l-3.017-.68c-.14-.03-.283.01-.393.108-.11.1-.174.247-.174.403v13.814H8.506v-16.65zm2.528 16.65v-13.177l2.074.468v13.147h-2.074v-.438zm-4.326 1.478h20.935v.966H3.197v-.967h3.51zm13.165-4.445l.386-.162v3.482h-.387v-3.32zm3.877 3.32h-2.548v-3.637l2.548.41v3.227zm-21.61 3.274h26.61v1.52H2.14v-1.52zm26.414 4.298c-.28 0-.4-.052-.568-.124-.202-.087-.452-.195-.91-.195s-.71.11-.912.196c-.167.072-.287.124-.568.124-.28 0-.4-.052-.568-.124-.202-.087-.452-.195-.91-.195-.46 0-.71.11-.912.196-.167.072-.287.124-.568.124-.28 0-.4-.052-.568-.124-.202-.087-.452-.195-.91-.195-.46 0-.71.11-.912.196-.167.072-.287.124-.568.124-.28 0-.4-.052-.568-.124-.202-.087-.452-.195-.91-.195-.46 0-.71.11-.912.196-.167.072-.287.124-.568.124-.28 0-.4-.052-.567-.124-.202-.087-.452-.195-.91-.195-.46 0-.71.11-.912.196-.167.072-.287.124-.568.124-.28 0-.4-.052-.568-.124-.202-.087-.452-.195-.91-.195-.262 0-.473.234-.473.52 0 .288.21.52.472.52.28 0 .4.053.567.124.202.087.452.195.91.195.46 0 .71-.11.912-.196.166-.07.287-.123.567-.123.28 0 .4.053.568.124.202.087.452.195.91.195s.71-.11.912-.196c.167-.072.287-.123.568-.123.28 0 .4.053.567.124.202.087.452.195.91.195.46 0 .71-.11.912-.196.165-.07.286-.123.567-.123.28 0 .4.053.568.124.202.087.452.195.91.195s.71-.11.912-.196c.167-.072.287-.123.568-.123.28 0 .4.053.567.124.2.087.452.195.91.195.46 0 .71-.11.912-.196.167-.072.287-.123.568-.123.28 0 .4.053.568.124.202.087.452.195.91.195.262 0 .473-.234.473-.52 0-.288-.21-.52-.472-.52" fill="#206FAC"/><path d="M20.456 86.71c.217.21.496.328.785.328h1.64l-.006.1c0 .325.128.637.35.853.19.185.433.286.684.286h3.448c.57 0 1.033-.51 1.033-1.14S27.925 86 27.355 86h-.1l.027-.27c0-.723-.533-1.31-1.19-1.31h-4.852c-.288 0-.567.116-.784.328-.256.25-.403.606-.403.982 0 .375.147.733.403.982zm.624-1.184c.032-.03.085-.068.16-.068h4.854c.135 0 .245.12.245.27 0 .15-.11.27-.246.27-.26 0-.472.233-.472.52h-.002c0 .287.21.52.472.52h1.264c.05 0 .09.044.09.1 0 .053-.04.098-.09.098h-3.448l-.06-.025-.03-.073.03-.074.06-.025h.002c.26 0 .472-.233.472-.52 0-.287-.21-.52-.472-.52h-2.67c-.075 0-.128-.037-.16-.068-.03-.03-.084-.097-.084-.202 0-.105.052-.172.084-.202zm10.43 21.195c-.28 0-.4-.05-.567-.122-.202-.087-.453-.195-.91-.195l-.342.023v-2.375c0-.286-.21-.52-.47-.52h-.635v-1.628c0-.287-.21-.52-.472-.52h-3.42v-3.764c0-.258-.173-.477-.405-.514l-3.49-.56h-.007l-.02-.002-.032-.002h-.024l-.03.002-.024.003-.03.006-.022.007-.03.01-.016.006-1.33.56c-.183.076-.303.27-.303.485v3.764h-1.407v-9.54c.777-.062 1.432-.1 1.91-.1 2.883 0 4.803.305 6.497.573l.23.036c1.24.196 2.34.36 3.622.36.26 0 .472-.234.472-.52 0-.288-.21-.52-.472-.52-1.293 0-2.417-.18-3.718-.385-1.725-.273-3.68-.582-6.63-.582-.486 0-1.14.035-1.91.097v-5.576c0-.486-.307-.908-.738-1.014L7.77 81.978l-.06-.01-.04-.008-.112-.007-.027.002-.086.007-.044.008-.07.016-.045.015-.066.026-.044.02-.068.037-.026.015-3.434 2.232c-.288.187-.464.527-.464.895v7.394c-1.283.19-2.14.32-2.28.34-.257.04-.437.303-.4.588.032.26.234.448.466.448l.066-.005c.034-.004.86-.13 2.15-.32v7.712h-.46c-.262 0-.473.233-.473.52v1.63h-.585c-.26 0-.472.232-.472.52v2.472c-.175-.065-.398-.122-.733-.122-.26 0-.472.233-.472.52 0 .287.212.52.473.52.28 0 .4.052.568.123.203.087.453.195.912.195.458 0 .71-.108.91-.195.168-.072.288-.123.568-.123.28 0 .4.052.568.123.202.087.452.195.91.195.46 0 .71-.108.912-.195.167-.072.287-.123.568-.123.28 0 .4.052.568.123.202.087.452.195.91.195.46 0 .71-.108.912-.195.167-.072.287-.123.568-.123.28 0 .4.052.568.123.202.087.452.195.91.195.46 0 .71-.108.912-.195.167-.072.287-.123.568-.123.28 0 .4.052.567.123.203.087.453.195.912.195.458 0 .71-.108.91-.195.167-.072.288-.123.568-.123.28 0 .4.052.568.123.202.087.452.195.91.195s.71-.108.912-.195c.167-.072.287-.123.568-.123.28 0 .4.052.567.123.202.087.452.195.91.195.46 0 .71-.108.912-.195.166-.072.287-.123.568-.123.28 0 .4.052.568.123.202.087.452.195.91.195s.71-.108.912-.195c.167-.072.287-.123.568-.123.28 0 .4.052.567.123.2.087.452.195.91.195.46 0 .71-.108.912-.195.167-.072.287-.123.568-.123.28 0 .4.052.568.123.202.087.452.195.91.195s.71-.108.912-.195c.167-.072.287-.123.568-.123.28 0 .402.052.568.123.202.087.453.195.91.195.262 0 .473-.233.473-.52 0-.287-.212-.52-.473-.52zM5.073 93.396V85.82l1.547-1.004v16.13H5.07v-7.55zm3.434-9.1l7.13 1.764v14.885H14.05V87.812c0-.247-.157-.46-.376-.51l-3.017-.68c-.14-.03-.283.01-.393.108-.11.1-.174.247-.174.403v13.814H8.506v-16.65zm2.528 16.65V87.768l2.074.468v13.147h-2.074v-.438zm-4.326 1.478h20.935v.966H3.197v-.967h3.51zm13.165-4.445l.386-.162v3.482h-.387v-3.32zm3.877 3.32h-2.548V97.66l2.548.41v3.227zm-21.61 3.274h26.61v1.52H2.14v-1.52zm26.414 4.298c-.28 0-.4-.052-.568-.124-.202-.087-.452-.195-.91-.195s-.71.11-.912.196c-.167.072-.287.124-.568.124-.28 0-.4-.052-.568-.124-.202-.087-.452-.195-.91-.195-.46 0-.71.11-.912.196-.167.072-.287.124-.568.124-.28 0-.4-.052-.568-.124-.202-.087-.452-.195-.91-.195-.46 0-.71.11-.912.196-.167.072-.287.124-.568.124-.28 0-.4-.052-.568-.124-.202-.087-.452-.195-.91-.195-.46 0-.71.11-.912.196-.167.072-.287.124-.568.124-.28 0-.4-.052-.567-.124-.202-.087-.452-.195-.91-.195-.46 0-.71.11-.912.196-.167.072-.287.124-.568.124-.28 0-.4-.052-.568-.124-.202-.087-.452-.195-.91-.195-.262 0-.473.234-.473.52 0 .288.21.52.472.52.28 0 .4.053.567.124.202.087.452.195.91.195.46 0 .71-.11.912-.196.166-.07.287-.123.567-.123.28 0 .4.053.568.124.202.087.452.195.91.195s.71-.11.912-.196c.167-.072.287-.123.568-.123.28 0 .4.053.567.124.202.087.452.195.91.195.46 0 .71-.11.912-.196.165-.07.286-.123.567-.123.28 0 .4.053.568.124.202.087.452.195.91.195s.71-.11.912-.196c.167-.072.287-.123.568-.123.28 0 .4.053.567.124.2.087.452.195.91.195.46 0 .71-.11.912-.196.167-.072.287-.123.568-.123.28 0 .4.053.568.124.202.087.452.195.91.195.262 0 .473-.234.473-.52 0-.288-.21-.52-.472-.52" fill="#fff"/><path d="M20.456 46.71c.217.21.496.328.785.328h1.64l-.006.1c0 .325.128.637.35.853.19.185.433.286.684.286h3.448c.57 0 1.033-.51 1.033-1.14S27.925 46 27.355 46h-.1l.027-.27c0-.723-.533-1.31-1.19-1.31h-4.852c-.288 0-.567.116-.784.328-.256.25-.403.606-.403.982 0 .375.147.733.403.982zm.624-1.184c.032-.03.085-.068.16-.068h4.854c.135 0 .245.12.245.27 0 .15-.11.27-.246.27-.26 0-.472.233-.472.52h-.002c0 .287.21.52.472.52h1.264c.05 0 .09.044.09.1 0 .053-.04.098-.09.098h-3.448l-.06-.025-.03-.073.03-.074.06-.025h.002c.26 0 .472-.233.472-.52 0-.287-.21-.52-.472-.52h-2.67c-.075 0-.128-.037-.16-.068-.03-.03-.084-.097-.084-.202 0-.105.052-.172.084-.202zM31.51 66.72c-.28 0-.4-.05-.567-.122-.202-.087-.453-.195-.91-.195l-.342.023V64.05c0-.286-.21-.52-.47-.52h-.635v-1.628c0-.287-.21-.52-.472-.52h-3.42v-3.764c0-.258-.173-.477-.405-.514l-3.49-.56h-.007l-.02-.002-.032-.002h-.024l-.03.002-.024.003-.03.006-.022.007-.03.01-.016.006-1.33.56c-.183.076-.303.27-.303.485v3.764h-1.407v-9.54c.777-.062 1.432-.1 1.91-.1 2.883 0 4.803.305 6.497.573l.23.036c1.24.196 2.34.36 3.622.36.26 0 .472-.234.472-.52 0-.288-.21-.52-.472-.52-1.293 0-2.417-.18-3.718-.385-1.725-.273-3.68-.582-6.63-.582-.486 0-1.14.035-1.91.097v-5.576c0-.486-.307-.908-.738-1.014L7.77 41.978l-.06-.01-.04-.008-.112-.007-.027.002-.086.007-.044.008-.07.016-.045.015-.066.026-.044.02-.068.037-.026.015-3.434 2.232c-.288.187-.464.527-.464.895v7.394c-1.283.19-2.14.32-2.28.34-.257.04-.437.303-.4.588.032.26.234.448.466.448l.066-.005c.034-.004.86-.13 2.15-.32v7.712h-.46c-.262 0-.473.233-.473.52v1.63h-.585c-.26 0-.472.232-.472.52v2.472c-.175-.065-.398-.122-.733-.122-.26 0-.472.233-.472.52 0 .287.212.52.473.52.28 0 .4.052.568.123.203.087.453.195.912.195.458 0 .71-.108.91-.195.168-.072.288-.123.568-.123.28 0 .4.052.568.123.202.087.452.195.91.195.46 0 .71-.108.912-.195.167-.072.287-.123.568-.123.28 0 .4.052.568.123.202.087.452.195.91.195.46 0 .71-.108.912-.195.167-.072.287-.123.568-.123.28 0 .4.052.568.123.202.087.452.195.91.195.46 0 .71-.108.912-.195.167-.072.287-.123.568-.123.28 0 .4.052.567.123.203.087.453.195.912.195.458 0 .71-.108.91-.195.167-.072.288-.123.568-.123.28 0 .4.052.568.123.202.087.452.195.91.195s.71-.108.912-.195c.167-.072.287-.123.568-.123.28 0 .4.052.567.123.202.087.452.195.91.195.46 0 .71-.108.912-.195.166-.072.287-.123.568-.123.28 0 .4.052.568.123.202.087.452.195.91.195s.71-.108.912-.195c.167-.072.287-.123.568-.123.28 0 .4.052.567.123.2.087.452.195.91.195.46 0 .71-.108.912-.195.167-.072.287-.123.568-.123.28 0 .4.052.568.123.202.087.452.195.91.195s.71-.108.912-.195c.167-.072.287-.123.568-.123.28 0 .402.052.568.123.202.087.453.195.91.195.262 0 .473-.233.473-.52 0-.287-.212-.52-.473-.52zM5.073 53.396V45.82l1.547-1.004v16.13H5.07v-7.55zm3.434-9.1l7.13 1.764v14.885H14.05V47.812c0-.247-.157-.46-.376-.51l-3.017-.68c-.14-.03-.283.01-.393.108-.11.1-.174.247-.174.403v13.814H8.506v-16.65zm2.528 16.65V47.768l2.074.468v13.147h-2.074v-.438zm-4.326 1.478h20.935v.966H3.197v-.967h3.51zm13.165-4.445l.386-.162v3.482h-.387v-3.32zm3.877 3.32h-2.548V57.66l2.548.41v3.227zM2.14 64.572h26.61v1.52H2.14v-1.52zm26.414 4.298c-.28 0-.4-.052-.568-.124-.202-.087-.452-.195-.91-.195s-.71.11-.912.196c-.167.072-.287.124-.568.124-.28 0-.4-.052-.568-.124-.202-.087-.452-.195-.91-.195-.46 0-.71.11-.912.196-.167.072-.287.124-.568.124-.28 0-.4-.052-.568-.124-.202-.087-.452-.195-.91-.195-.46 0-.71.11-.912.196-.167.072-.287.124-.568.124-.28 0-.4-.052-.568-.124-.202-.087-.452-.195-.91-.195-.46 0-.71.11-.912.196-.167.072-.287.124-.568.124-.28 0-.4-.052-.567-.124-.202-.087-.452-.195-.91-.195-.46 0-.71.11-.912.196-.167.072-.287.124-.568.124-.28 0-.4-.052-.568-.124-.202-.087-.452-.195-.91-.195-.262 0-.473.234-.473.52 0 .288.21.52.472.52.28 0 .4.053.567.124.202.087.452.195.91.195.46 0 .71-.11.912-.196.166-.07.287-.123.567-.123.28 0 .4.053.568.124.202.087.452.195.91.195s.71-.11.912-.196c.167-.072.287-.123.568-.123.28 0 .4.053.567.124.202.087.452.195.91.195.46 0 .71-.11.912-.196.165-.07.286-.123.567-.123.28 0 .4.053.568.124.202.087.452.195.91.195s.71-.11.912-.196c.167-.072.287-.123.568-.123.28 0 .4.053.567.124.2.087.452.195.91.195.46 0 .71-.11.912-.196.167-.072.287-.123.568-.123.28 0 .4.053.568.124.202.087.452.195.91.195.262 0 .473-.234.473-.52 0-.288-.21-.52-.472-.52" fill="#67737B"/><path d="M20.456 6.71c.217.21.496.328.785.328h1.64l-.006.1c0 .325.128.637.35.853.19.185.433.286.684.286h3.448c.57 0 1.033-.51 1.033-1.14S27.925 6 27.355 6h-.1l.027-.27c0-.723-.533-1.31-1.19-1.31h-4.852c-.288 0-.567.116-.784.328-.256.25-.403.606-.403.982 0 .375.147.733.403.982zm.624-1.184c.032-.03.085-.068.16-.068h4.854c.135 0 .245.12.245.27 0 .15-.11.27-.246.27-.26 0-.472.233-.472.52h-.002c0 .287.21.52.472.52h1.264c.05 0 .09.044.09.1 0 .053-.04.098-.09.098h-3.448l-.06-.025-.03-.073.03-.074.06-.025h.002c.26 0 .472-.233.472-.52 0-.287-.21-.52-.472-.52h-2.67c-.075 0-.128-.037-.16-.068-.03-.03-.084-.097-.084-.202 0-.105.052-.172.084-.202zM31.51 26.72c-.28 0-.4-.05-.567-.122-.202-.087-.453-.195-.91-.195l-.342.023V24.05c0-.286-.21-.52-.47-.52h-.635v-1.628c0-.287-.21-.52-.472-.52h-3.42v-3.764c0-.258-.173-.477-.405-.514l-3.49-.56h-.007l-.02-.002-.032-.002h-.024l-.03.002-.024.003-.03.006-.022.007-.03.01-.016.006-1.33.56c-.183.076-.303.27-.303.485v3.764h-1.407v-9.54c.777-.062 1.432-.1 1.91-.1 2.883 0 4.803.305 6.497.573l.23.036c1.24.196 2.34.36 3.622.36.26 0 .472-.234.472-.52 0-.288-.21-.52-.472-.52-1.293 0-2.417-.18-3.718-.385-1.725-.273-3.68-.582-6.63-.582-.486 0-1.14.035-1.91.097V5.224c0-.486-.307-.908-.738-1.014L7.77 1.978l-.06-.01-.04-.008-.112-.007-.027.002-.086.007-.044.008-.07.016L7.286 2l-.066.026-.044.02-.068.037-.026.015L3.648 4.33c-.288.187-.464.527-.464.895v7.394c-1.283.19-2.14.32-2.28.34-.257.04-.437.303-.4.588.032.26.234.448.466.448l.066-.005c.034-.004.86-.13 2.15-.32v7.712h-.46c-.262 0-.473.233-.473.52v1.63h-.585c-.26 0-.472.232-.472.52v2.472c-.175-.065-.398-.122-.733-.122-.26 0-.472.233-.472.52 0 .287.212.52.473.52.28 0 .4.052.568.123.203.087.453.195.912.195.458 0 .71-.108.91-.195.168-.072.288-.123.568-.123.28 0 .4.052.568.123.202.087.452.195.91.195.46 0 .71-.108.912-.195.167-.072.287-.123.568-.123.28 0 .4.052.568.123.202.087.452.195.91.195.46 0 .71-.108.912-.195.167-.072.287-.123.568-.123.28 0 .4.052.568.123.202.087.452.195.91.195.46 0 .71-.108.912-.195.167-.072.287-.123.568-.123.28 0 .4.052.567.123.203.087.453.195.912.195.458 0 .71-.108.91-.195.167-.072.288-.123.568-.123.28 0 .4.052.568.123.202.087.452.195.91.195s.71-.108.912-.195c.167-.072.287-.123.568-.123.28 0 .4.052.567.123.202.087.452.195.91.195.46 0 .71-.108.912-.195.166-.072.287-.123.568-.123.28 0 .4.052.568.123.202.087.452.195.91.195s.71-.108.912-.195c.167-.072.287-.123.568-.123.28 0 .4.052.567.123.2.087.452.195.91.195.46 0 .71-.108.912-.195.167-.072.287-.123.568-.123.28 0 .4.052.568.123.202.087.452.195.91.195s.71-.108.912-.195c.167-.072.287-.123.568-.123.28 0 .402.052.568.123.202.087.453.195.91.195.262 0 .473-.233.473-.52 0-.287-.212-.52-.473-.52zM5.073 13.396V5.82L6.62 4.817v16.13H5.07v-7.55zm3.434-9.1l7.13 1.764v14.885H14.05V7.812c0-.247-.157-.46-.376-.51l-3.017-.68c-.14-.03-.283.01-.393.108-.11.1-.174.247-.174.403v13.814H8.506V4.297zm2.528 16.65V7.768l2.074.468v13.147h-2.074v-.438zm-4.326 1.478h20.935v.966H3.197v-.967h3.51zm13.165-4.445l.386-.162v3.482h-.387v-3.32zm3.877 3.32h-2.548V17.66l2.548.41v3.227zM2.14 24.572h26.61v1.52H2.14v-1.52zm26.414 4.298c-.28 0-.4-.052-.568-.124-.202-.087-.452-.195-.91-.195s-.71.11-.912.196c-.167.072-.287.124-.568.124-.28 0-.4-.052-.568-.124-.202-.087-.452-.195-.91-.195-.46 0-.71.11-.912.196-.167.072-.287.124-.568.124-.28 0-.4-.052-.568-.124-.202-.087-.452-.195-.91-.195-.46 0-.71.11-.912.196-.167.072-.287.124-.568.124-.28 0-.4-.052-.568-.124-.202-.087-.452-.195-.91-.195-.46 0-.71.11-.912.196-.167.072-.287.124-.568.124-.28 0-.4-.052-.567-.124-.202-.087-.452-.195-.91-.195-.46 0-.71.11-.912.196-.167.072-.287.124-.568.124-.28 0-.4-.052-.568-.124-.202-.087-.452-.195-.91-.195-.262 0-.473.234-.473.52 0 .288.21.52.472.52.28 0 .4.053.567.124.202.087.452.195.91.195.46 0 .71-.11.912-.196.166-.07.287-.123.567-.123.28 0 .4.053.568.124.202.087.452.195.91.195s.71-.11.912-.196c.167-.072.287-.123.568-.123.28 0 .4.053.567.124.202.087.452.195.91.195.46 0 .71-.11.912-.196.165-.07.286-.123.567-.123.28 0 .4.053.568.124.202.087.452.195.91.195s.71-.11.912-.196c.167-.072.287-.123.568-.123.28 0 .4.053.567.124.2.087.452.195.91.195.46 0 .71-.11.912-.196.167-.072.287-.123.568-.123.28 0 .4.053.568.124.202.087.452.195.91.195.262 0 .473-.234.473-.52 0-.288-.21-.52-.472-.52" fill="#3A434E"/></g></svg>