<svg width="32" height="232" viewBox="0 0 32 232" xmlns="http://www.w3.org/2000/svg" xmlns:sketch="http://www.bohemiancoding.com/sketch/ns"><title>galipolli-peninsula</title><desc>Created with Sketch.</desc><g sketch:type="MSPage" fill="none"><g sketch:type="MSShapeGroup"><path d="M20.456 126.71c.217.211.496.328.785.328h1.638l-.005.099c0 .326.128.638.351.854.189.184.432.285.683.285h3.448c.57 0 1.033-.511 1.033-1.139s-.463-1.138-1.033-1.138h-.099l.026-.27c0-.722-.533-1.309-1.189-1.309h-4.853c-.289 0-.568.116-.785.328-.256.249-.403.606-.403.982 0 .375.147.733.403.982zm.624-1.184c.032-.031.085-.068.161-.068h4.853c.135 0 .245.121.245.27 0 .149-.11.27-.245.27-.261 0-.472.233-.472.52h-.002c0 .287.211.52.472.52h1.264c.05 0 .09.044.09.099 0 .054-.04.099-.09.099h-3.448l-.059-.025-.031-.074.031-.074.059-.025h.002c.261 0 .472-.233.472-.52 0-.287-.211-.52-.472-.52h-2.669c-.076 0-.129-.037-.161-.068-.031-.03-.084-.097-.084-.202 0-.105.052-.172.084-.202zm10.431 21.195c-.281 0-.402-.052-.568-.123-.202-.087-.453-.195-.911-.195l-.341.023v-2.375c0-.287-.211-.52-.472-.52h-.634v-1.629c0-.287-.211-.52-.472-.52h-3.421v-3.764c0-.258-.172-.477-.404-.514l-3.491-.559-.006-.001-.022-.002-.031-.002h-.024l-.029.002-.025.003-.029.006-.023.006-.031.011-.015.005-1.33.559c-.183.077-.303.27-.303.486v3.764h-1.406v-9.539c.777-.063 1.432-.1 1.911-.1 2.882 0 4.802.304 6.496.572l.23.036c1.241.195 2.341.358 3.622.358.261 0 .472-.233.472-.52 0-.287-.211-.52-.472-.52-1.293 0-2.417-.178-3.718-.384-1.725-.273-3.681-.582-6.63-.582-.486 0-1.14.035-1.911.097v-5.576c0-.486-.306-.908-.737-1.014l-9.017-2.232-.059-.011-.04-.007-.112-.007-.027.002-.087.007-.044.008-.069.016-.046.015-.066.025-.043.019-.068.038-.026.015-3.434 2.232c-.288.187-.464.527-.464.895v7.394c-1.283.19-2.141.321-2.279.342-.258.04-.438.302-.402.587.033.26.235.448.467.448l.066-.005c.034-.005.859-.132 2.149-.322v7.713h-.46c-.261 0-.472.233-.472.52v1.629h-.585c-.261 0-.472.233-.472.52v2.473c-.175-.065-.398-.122-.733-.122-.261 0-.472.233-.472.52 0 .287.211.52.472.52.281 0 .401.052.568.123.202.087.452.195.911.195.458 0 .709-.108.911-.195.167-.072.287-.123.567-.123.281 0 .401.052.568.123.202.087.452.195.911.195.458 0 .709-.108.911-.195.167-.072.287-.123.568-.123.281 0 .401.052.568.123.202.087.452.195.911.195.458 0 .709-.108.911-.195.167-.072.287-.123.568-.123.281 0 .401.052.568.123.202.087.452.195.911.195.458 0 .709-.108.911-.195.167-.072.287-.123.568-.123.281 0 .401.052.567.123.202.087.452.195.911.195.458 0 .709-.108.911-.195.166-.072.287-.123.567-.123.281 0 .401.052.568.123.202.087.452.195.911.195s.709-.108.911-.195c.167-.072.287-.123.568-.123.281 0 .401.052.567.123.202.087.452.195.911.195.458 0 .709-.108.911-.195.166-.072.287-.123.568-.123.281 0 .401.052.568.123.202.087.452.195.911.195s.709-.108.911-.195c.167-.072.287-.123.568-.123.281 0 .401.052.567.123.201.087.452.195.911.195.458 0 .709-.108.911-.195.167-.072.287-.123.568-.123.281 0 .401.052.568.123.202.087.452.195.911.195s.71-.108.911-.195c.167-.072.287-.123.568-.123.281 0 .402.052.568.123.202.087.453.195.911.195.261 0 .472-.233.472-.52 0-.287-.211-.52-.472-.52zm-26.439-13.326v-7.574l1.547-1.005v16.13h-1.547v-7.55zm3.434-9.101l7.129 1.765v14.886h-1.584v-13.133c0-.247-.158-.46-.377-.509l-3.017-.68c-.139-.031-.283.008-.393.107-.11.099-.174.247-.174.403v13.814h-1.584v-16.651zm2.528 16.651v-13.177l2.074.468v13.147h-2.074v-.438zm-4.326 1.478h20.935v.966h-24.446v-.966h3.511zm13.165-4.445l.386-.162v3.482h-.386v-3.32zm3.877 3.32h-2.548v-3.637l2.548.408v3.228zm-21.609 3.274h26.608v1.521h-26.608v-1.521zm26.413 4.298c-.281 0-.401-.052-.568-.124-.202-.087-.452-.195-.911-.195s-.709.108-.911.195c-.167.072-.287.124-.568.124-.281 0-.401-.052-.568-.124-.202-.087-.452-.195-.911-.195-.458 0-.709.108-.911.195-.167.072-.287.124-.568.124-.281 0-.401-.052-.568-.124-.202-.087-.452-.195-.911-.195-.458 0-.709.108-.911.195-.167.072-.287.124-.568.124-.281 0-.401-.052-.568-.124-.202-.087-.452-.195-.911-.195-.458 0-.709.108-.911.195-.167.072-.287.124-.568.124-.281 0-.401-.052-.567-.124-.202-.087-.452-.195-.911-.195-.458 0-.709.108-.911.195-.167.072-.287.124-.568.124-.281 0-.401-.052-.568-.124-.202-.087-.452-.195-.911-.195-.261 0-.472.233-.472.52 0 .287.211.52.472.52.281 0 .401.052.567.123.202.087.452.195.911.195.458 0 .709-.108.911-.195.166-.071.287-.123.567-.123.281 0 .401.052.568.123.202.087.452.195.911.195s.709-.108.911-.195c.167-.072.287-.123.568-.123.281 0 .401.052.567.123.202.087.452.195.911.195.458 0 .709-.108.911-.195.166-.071.287-.123.568-.123.281 0 .401.052.568.123.202.087.452.195.911.195s.709-.108.911-.195c.167-.072.287-.123.568-.123.281 0 .401.052.567.123.201.087.452.195.911.195.458 0 .709-.108.911-.195.167-.072.287-.123.568-.123.281 0 .401.052.568.123.202.087.452.195.911.195.261 0 .472-.233.472-.52 0-.287-.211-.52-.472-.52" fill="#206FAC"/><path d="M20.456 86.71c.217.211.496.328.785.328h1.638l-.005.099c0 .326.128.638.351.854.189.184.432.285.683.285h3.448c.57 0 1.033-.511 1.033-1.139s-.463-1.138-1.033-1.138h-.099l.026-.27c0-.722-.533-1.309-1.189-1.309h-4.853c-.289 0-.568.116-.785.328-.256.249-.403.606-.403.982 0 .375.147.733.403.982zm.624-1.184c.032-.031.085-.068.161-.068h4.853c.135 0 .245.121.245.27 0 .149-.11.27-.245.27-.261 0-.472.233-.472.52h-.002c0 .287.211.52.472.52h1.264c.05 0 .09.044.09.099 0 .054-.04.099-.09.099h-3.448l-.059-.025-.031-.074.031-.074.059-.025h.002c.261 0 .472-.233.472-.52 0-.287-.211-.52-.472-.52h-2.669c-.076 0-.129-.037-.161-.068-.031-.03-.084-.097-.084-.202 0-.105.052-.172.084-.202zm10.431 21.195c-.281 0-.402-.052-.568-.123-.202-.087-.453-.195-.911-.195l-.341.023v-2.375c0-.287-.211-.52-.472-.52h-.634v-1.629c0-.287-.211-.52-.472-.52h-3.421v-3.764c0-.258-.172-.477-.404-.514l-3.491-.559-.006-.001-.022-.002-.031-.002h-.024l-.029.002-.025.003-.029.006-.023.006-.031.011-.015.005-1.33.559c-.183.077-.303.27-.303.486v3.764h-1.406v-9.539c.777-.063 1.432-.1 1.911-.1 2.882 0 4.802.304 6.496.572l.23.036c1.241.195 2.341.358 3.622.358.261 0 .472-.233.472-.52 0-.287-.211-.52-.472-.52-1.293 0-2.417-.178-3.718-.384-1.725-.273-3.681-.582-6.63-.582-.486 0-1.14.035-1.911.097v-5.576c0-.486-.306-.908-.737-1.014l-9.017-2.232-.059-.011-.04-.007-.112-.007-.027.002-.087.007-.044.008-.069.016-.046.015-.066.025-.043.019-.068.038-.026.015-3.434 2.232c-.288.187-.464.527-.464.895v7.394c-1.283.19-2.141.321-2.279.342-.258.04-.438.302-.402.587.033.26.235.448.467.448l.066-.005c.034-.005.859-.132 2.149-.322v7.713h-.46c-.261 0-.472.233-.472.52v1.629h-.585c-.261 0-.472.233-.472.52v2.473c-.175-.065-.398-.122-.733-.122-.261 0-.472.233-.472.52 0 .287.211.52.472.52.281 0 .401.052.568.123.202.087.452.195.911.195.458 0 .709-.108.911-.195.167-.072.287-.123.567-.123.281 0 .401.052.568.123.202.087.452.195.911.195.458 0 .709-.108.911-.195.167-.072.287-.123.568-.123.281 0 .401.052.568.123.202.087.452.195.911.195.458 0 .709-.108.911-.195.167-.072.287-.123.568-.123.281 0 .401.052.568.123.202.087.452.195.911.195.458 0 .709-.108.911-.195.167-.072.287-.123.568-.123.281 0 .401.052.567.123.202.087.452.195.911.195.458 0 .709-.108.911-.195.166-.072.287-.123.567-.123.281 0 .401.052.568.123.202.087.452.195.911.195s.709-.108.911-.195c.167-.072.287-.123.568-.123.281 0 .401.052.567.123.202.087.452.195.911.195.458 0 .709-.108.911-.195.166-.072.287-.123.568-.123.281 0 .401.052.568.123.202.087.452.195.911.195s.709-.108.911-.195c.167-.072.287-.123.568-.123.281 0 .401.052.567.123.201.087.452.195.911.195.458 0 .709-.108.911-.195.167-.072.287-.123.568-.123.281 0 .401.052.568.123.202.087.452.195.911.195s.71-.108.911-.195c.167-.072.287-.123.568-.123.281 0 .402.052.568.123.202.087.453.195.911.195.261 0 .472-.233.472-.52 0-.287-.211-.52-.472-.52zm-26.439-13.326v-7.574l1.547-1.005v16.13h-1.547v-7.55zm3.434-9.101l7.129 1.765v14.886h-1.584v-13.133c0-.247-.158-.46-.377-.509l-3.017-.68c-.139-.031-.283.008-.393.107-.11.099-.174.247-.174.403v13.814h-1.584v-16.651zm2.528 16.651v-13.177l2.074.468v13.147h-2.074v-.438zm-4.326 1.478h20.935v.966h-24.446v-.966h3.511zm13.165-4.445l.386-.162v3.482h-.386v-3.32zm3.877 3.32h-2.548v-3.637l2.548.408v3.228zm-21.609 3.274h26.608v1.521h-26.608v-1.521zm26.413 4.298c-.281 0-.401-.052-.568-.124-.202-.087-.452-.195-.911-.195s-.709.108-.911.195c-.167.072-.287.124-.568.124-.281 0-.401-.052-.568-.124-.202-.087-.452-.195-.911-.195-.458 0-.709.108-.911.195-.167.072-.287.124-.568.124-.281 0-.401-.052-.568-.124-.202-.087-.452-.195-.911-.195-.458 0-.709.108-.911.195-.167.072-.287.124-.568.124-.281 0-.401-.052-.568-.124-.202-.087-.452-.195-.911-.195-.458 0-.709.108-.911.195-.167.072-.287.124-.568.124-.281 0-.401-.052-.567-.124-.202-.087-.452-.195-.911-.195-.458 0-.709.108-.911.195-.167.072-.287.124-.568.124-.281 0-.401-.052-.568-.124-.202-.087-.452-.195-.911-.195-.261 0-.472.233-.472.52 0 .287.211.52.472.52.281 0 .401.052.567.123.202.087.452.195.911.195.458 0 .709-.108.911-.195.166-.071.287-.123.567-.123.281 0 .401.052.568.123.202.087.452.195.911.195s.709-.108.911-.195c.167-.072.287-.123.568-.123.281 0 .401.052.567.123.202.087.452.195.911.195.458 0 .709-.108.911-.195.166-.071.287-.123.568-.123.281 0 .401.052.568.123.202.087.452.195.911.195s.709-.108.911-.195c.167-.072.287-.123.568-.123.281 0 .401.052.567.123.201.087.452.195.911.195.458 0 .709-.108.911-.195.167-.072.287-.123.568-.123.281 0 .401.052.568.123.202.087.452.195.911.195.261 0 .472-.233.472-.52 0-.287-.211-.52-.472-.52" fill="#fff"/><path d="M20.456 46.71c.217.211.496.328.785.328h1.638l-.005.099c0 .326.128.638.351.854.189.184.432.285.683.285h3.448c.57 0 1.033-.511 1.033-1.139s-.463-1.138-1.033-1.138h-.099l.026-.27c0-.722-.533-1.309-1.189-1.309h-4.853c-.289 0-.568.116-.785.328-.256.249-.403.606-.403.982 0 .375.147.733.403.982zm.624-1.184c.032-.031.085-.068.161-.068h4.853c.135 0 .245.121.245.27 0 .149-.11.27-.245.27-.261 0-.472.233-.472.52h-.002c0 .287.211.52.472.52h1.264c.05 0 .09.044.09.099 0 .054-.04.099-.09.099h-3.448l-.059-.025-.031-.074.031-.074.059-.025h.002c.261 0 .472-.233.472-.52 0-.287-.211-.52-.472-.52h-2.669c-.076 0-.129-.037-.161-.068-.031-.03-.084-.097-.084-.202 0-.105.052-.172.084-.202zm10.431 21.195c-.281 0-.402-.052-.568-.123-.202-.087-.453-.195-.911-.195l-.341.023v-2.375c0-.287-.211-.52-.472-.52h-.634v-1.629c0-.287-.211-.52-.472-.52h-3.421v-3.764c0-.258-.172-.477-.404-.514l-3.491-.559-.006-.001-.022-.002-.031-.002h-.024l-.029.002-.025.003-.029.006-.023.006-.031.011-.015.005-1.33.559c-.183.077-.303.27-.303.486v3.764h-1.406v-9.539c.777-.063 1.432-.1 1.911-.1 2.882 0 4.802.304 6.496.572l.23.036c1.241.195 2.341.358 3.622.358.261 0 .472-.233.472-.52 0-.287-.211-.52-.472-.52-1.293 0-2.417-.178-3.718-.384-1.725-.273-3.681-.582-6.63-.582-.486 0-1.14.035-1.911.097v-5.576c0-.486-.306-.908-.737-1.014l-9.017-2.232-.059-.011-.04-.007-.112-.007-.027.002-.087.007-.044.008-.069.016-.046.015-.066.025-.043.019-.068.038-.026.015-3.434 2.232c-.288.187-.464.527-.464.895v7.394c-1.283.19-2.141.321-2.279.342-.258.04-.438.302-.402.587.033.26.235.448.467.448l.066-.005c.034-.005.859-.132 2.149-.322v7.713h-.46c-.261 0-.472.233-.472.52v1.629h-.585c-.261 0-.472.233-.472.52v2.473c-.175-.065-.398-.122-.733-.122-.261 0-.472.233-.472.52 0 .287.211.52.472.52.281 0 .401.052.568.123.202.087.452.195.911.195.458 0 .709-.108.911-.195.167-.072.287-.123.567-.123.281 0 .401.052.568.123.202.087.452.195.911.195.458 0 .709-.108.911-.195.167-.072.287-.123.568-.123.281 0 .401.052.568.123.202.087.452.195.911.195.458 0 .709-.108.911-.195.167-.072.287-.123.568-.123.281 0 .401.052.568.123.202.087.452.195.911.195.458 0 .709-.108.911-.195.167-.072.287-.123.568-.123.281 0 .401.052.567.123.202.087.452.195.911.195.458 0 .709-.108.911-.195.166-.072.287-.123.567-.123.281 0 .401.052.568.123.202.087.452.195.911.195s.709-.108.911-.195c.167-.072.287-.123.568-.123.281 0 .401.052.567.123.202.087.452.195.911.195.458 0 .709-.108.911-.195.166-.072.287-.123.568-.123.281 0 .401.052.568.123.202.087.452.195.911.195s.709-.108.911-.195c.167-.072.287-.123.568-.123.281 0 .401.052.567.123.201.087.452.195.911.195.458 0 .709-.108.911-.195.167-.072.287-.123.568-.123.281 0 .401.052.568.123.202.087.452.195.911.195s.71-.108.911-.195c.167-.072.287-.123.568-.123.281 0 .402.052.568.123.202.087.453.195.911.195.261 0 .472-.233.472-.52 0-.287-.211-.52-.472-.52zm-26.439-13.326v-7.574l1.547-1.005v16.13h-1.547v-7.55zm3.434-9.101l7.129 1.765v14.886h-1.584v-13.133c0-.247-.158-.46-.377-.509l-3.017-.68c-.139-.031-.283.008-.393.107-.11.099-.174.247-.174.403v13.814h-1.584v-16.651zm2.528 16.651v-13.177l2.074.468v13.147h-2.074v-.438zm-4.326 1.478h20.935v.966h-24.446v-.966h3.511zm13.165-4.445l.386-.162v3.482h-.386v-3.32zm3.877 3.32h-2.548v-3.637l2.548.408v3.228zm-21.609 3.274h26.608v1.521h-26.608v-1.521zm26.413 4.298c-.281 0-.401-.052-.568-.124-.202-.087-.452-.195-.911-.195s-.709.108-.911.195c-.167.072-.287.124-.568.124-.281 0-.401-.052-.568-.124-.202-.087-.452-.195-.911-.195-.458 0-.709.108-.911.195-.167.072-.287.124-.568.124-.281 0-.401-.052-.568-.124-.202-.087-.452-.195-.911-.195-.458 0-.709.108-.911.195-.167.072-.287.124-.568.124-.281 0-.401-.052-.568-.124-.202-.087-.452-.195-.911-.195-.458 0-.709.108-.911.195-.167.072-.287.124-.568.124-.281 0-.401-.052-.567-.124-.202-.087-.452-.195-.911-.195-.458 0-.709.108-.911.195-.167.072-.287.124-.568.124-.281 0-.401-.052-.568-.124-.202-.087-.452-.195-.911-.195-.261 0-.472.233-.472.52 0 .287.211.52.472.52.281 0 .401.052.567.123.202.087.452.195.911.195.458 0 .709-.108.911-.195.166-.071.287-.123.567-.123.281 0 .401.052.568.123.202.087.452.195.911.195s.709-.108.911-.195c.167-.072.287-.123.568-.123.281 0 .401.052.567.123.202.087.452.195.911.195.458 0 .709-.108.911-.195.166-.071.287-.123.568-.123.281 0 .401.052.568.123.202.087.452.195.911.195s.709-.108.911-.195c.167-.072.287-.123.568-.123.281 0 .401.052.567.123.201.087.452.195.911.195.458 0 .709-.108.911-.195.167-.072.287-.123.568-.123.281 0 .401.052.568.123.202.087.452.195.911.195.261 0 .472-.233.472-.52 0-.287-.211-.52-.472-.52" fill="#67737B"/><path d="M20.456 6.71c.217.211.496.328.785.328h1.638l-.005.099c0 .326.128.638.351.854.189.184.432.285.683.285h3.448c.57 0 1.033-.511 1.033-1.139s-.463-1.138-1.033-1.138h-.099l.026-.27c0-.722-.533-1.309-1.189-1.309h-4.853c-.289 0-.568.116-.785.328-.256.249-.403.606-.403.982 0 .375.147.733.403.982zm.624-1.184c.032-.031.085-.068.161-.068h4.853c.135 0 .245.121.245.27 0 .149-.11.27-.245.27-.261 0-.472.233-.472.52h-.002c0 .287.211.52.472.52h1.264c.05 0 .09.044.09.099 0 .054-.04.099-.09.099h-3.448l-.059-.025-.031-.074.031-.074.059-.025h.002c.261 0 .472-.233.472-.52 0-.287-.211-.52-.472-.52h-2.669c-.076 0-.129-.037-.161-.068-.031-.03-.084-.097-.084-.202 0-.105.052-.172.084-.202zm10.431 21.195c-.281 0-.402-.052-.568-.123-.202-.087-.453-.195-.911-.195l-.341.023v-2.375c0-.287-.211-.52-.472-.52h-.634v-1.629c0-.287-.211-.52-.472-.52h-3.421v-3.764c0-.258-.172-.477-.404-.514l-3.491-.559-.006-.001-.022-.002-.031-.002h-.024l-.029.002-.025.003-.029.006-.023.006-.031.011-.015.005-1.33.559c-.183.077-.303.27-.303.486v3.764h-1.406v-9.539c.777-.063 1.432-.1 1.911-.1 2.882 0 4.802.304 6.496.572l.23.036c1.241.195 2.341.358 3.622.358.261 0 .472-.233.472-.52 0-.287-.211-.52-.472-.52-1.293 0-2.417-.178-3.718-.384-1.725-.273-3.681-.582-6.63-.582-.486 0-1.14.035-1.911.097v-5.576c0-.486-.306-.908-.737-1.014l-9.017-2.232-.059-.011-.04-.007-.112-.007-.027.002-.087.007-.044.008-.069.016-.046.015-.066.025-.043.019-.068.038-.026.015-3.434 2.232c-.288.187-.464.527-.464.895v7.394c-1.283.19-2.141.321-2.279.342-.258.04-.438.302-.402.587.033.26.235.448.467.448l.066-.005c.034-.005.859-.132 2.149-.322v7.713h-.46c-.261 0-.472.233-.472.52v1.629h-.585c-.261 0-.472.233-.472.52v2.473c-.175-.065-.398-.122-.733-.122-.261 0-.472.233-.472.52 0 .287.211.52.472.52.281 0 .401.052.568.123.202.087.452.195.911.195.458 0 .709-.108.911-.195.167-.072.287-.123.567-.123.281 0 .401.052.568.123.202.087.452.195.911.195.458 0 .709-.108.911-.195.167-.072.287-.123.568-.123.281 0 .401.052.568.123.202.087.452.195.911.195.458 0 .709-.108.911-.195.167-.072.287-.123.568-.123.281 0 .401.052.568.123.202.087.452.195.911.195.458 0 .709-.108.911-.195.167-.072.287-.123.568-.123.281 0 .401.052.567.123.202.087.452.195.911.195.458 0 .709-.108.911-.195.166-.072.287-.123.567-.123.281 0 .401.052.568.123.202.087.452.195.911.195s.709-.108.911-.195c.167-.072.287-.123.568-.123.281 0 .401.052.567.123.202.087.452.195.911.195.458 0 .709-.108.911-.195.166-.072.287-.123.568-.123.281 0 .401.052.568.123.202.087.452.195.911.195s.709-.108.911-.195c.167-.072.287-.123.568-.123.281 0 .401.052.567.123.201.087.452.195.911.195.458 0 .709-.108.911-.195.167-.072.287-.123.568-.123.281 0 .401.052.568.123.202.087.452.195.911.195s.71-.108.911-.195c.167-.072.287-.123.568-.123.281 0 .402.052.568.123.202.087.453.195.911.195.261 0 .472-.233.472-.52 0-.287-.211-.52-.472-.52zm-26.439-13.326v-7.574l1.547-1.005v16.13h-1.547v-7.55zm3.434-9.101l7.129 1.765v14.886h-1.584v-13.133c0-.247-.158-.46-.377-.509l-3.017-.68c-.139-.031-.283.008-.393.107-.11.099-.174.247-.174.403v13.814h-1.584v-16.651zm2.528 16.651v-13.177l2.074.468v13.147h-2.074v-.438zm-4.326 1.478h20.935v.966h-24.446v-.966h3.511zm13.165-4.445l.386-.162v3.482h-.386v-3.32zm3.877 3.32h-2.548v-3.637l2.548.408v3.228zm-21.609 3.274h26.608v1.521h-26.608v-1.521zm26.413 4.298c-.281 0-.401-.052-.568-.124-.202-.087-.452-.195-.911-.195s-.709.108-.911.195c-.167.072-.287.124-.568.124-.281 0-.401-.052-.568-.124-.202-.087-.452-.195-.911-.195-.458 0-.709.108-.911.195-.167.072-.287.124-.568.124-.281 0-.401-.052-.568-.124-.202-.087-.452-.195-.911-.195-.458 0-.709.108-.911.195-.167.072-.287.124-.568.124-.281 0-.401-.052-.568-.124-.202-.087-.452-.195-.911-.195-.458 0-.709.108-.911.195-.167.072-.287.124-.568.124-.281 0-.401-.052-.567-.124-.202-.087-.452-.195-.911-.195-.458 0-.709.108-.911.195-.167.072-.287.124-.568.124-.281 0-.401-.052-.568-.124-.202-.087-.452-.195-.911-.195-.261 0-.472.233-.472.52 0 .287.211.52.472.52.281 0 .401.052.567.123.202.087.452.195.911.195.458 0 .709-.108.911-.195.166-.071.287-.123.567-.123.281 0 .401.052.568.123.202.087.452.195.911.195s.709-.108.911-.195c.167-.072.287-.123.568-.123.281 0 .401.052.567.123.202.087.452.195.911.195.458 0 .709-.108.911-.195.166-.071.287-.123.568-.123.281 0 .401.052.568.123.202.087.452.195.911.195s.709-.108.911-.195c.167-.072.287-.123.568-.123.281 0 .401.052.567.123.201.087.452.195.911.195.458 0 .709-.108.911-.195.167-.072.287-.123.568-.123.281 0 .401.052.568.123.202.087.452.195.911.195.261 0 .472-.233.472-.52 0-.287-.211-.52-.472-.52" fill="#3A434E"/></g></g></svg>