<svg width="32" height="232" viewBox="0 0 32 232" xmlns="http://www.w3.org/2000/svg" xmlns:sketch="http://www.bohemiancoding.com/sketch/ns"><title>istanbul</title><desc>Created with Sketch.</desc><g sketch:type="MSPage" fill="none"><g sketch:type="MSShapeGroup"><path d="M31.541 148.974c-.282 0-.403-.05-.569-.119-.202-.083-.453-.187-.911-.187l-.109.003v-4.335h.056c.261 0 .472-.224.472-.499 0-.276-.211-.499-.472-.499h-.056v-4.178h.056c.261 0 .472-.224.472-.499 0-.276-.211-.499-.472-.499h-.056v-3.711l-.001-.003-.004-.063-1.183-9.344v-2.542c0-.276-.211-.499-.472-.499s-.472.223-.472.499v2.543l-1.147 9.344-.004.061v3.714h-.057c-.261 0-.472.224-.472.499 0 .276.211.499.472.499h.057v4.178h-.057c-.261 0-.472.223-.472.499s.211.499.472.499h.057v4.368c-.206.038-.353.098-.48.151l-.11.044c.169-.18.273-.428.273-.702v-2.976c0-.508-.359-.927-.824-.99-.16-.185-.335-.353-.521-.506v-2.833c.198-.06.342-.25.342-.478 0-.228-.145-.418-.342-.477v-2.394c.198-.06.342-.25.342-.478 0-.228-.145-.418-.342-.478v-2.25l-.004-.062-.765-6.035v-1.632c0-.276-.211-.499-.472-.499-.26 0-.472.224-.472.499v1.634l-.741 6.035-.004.061v2.25c-.198.06-.342.25-.342.478 0 .228.145.417.342.478v2.394c-.198.059-.342.25-.342.477 0 .228.145.418.342.478v1.866l-.228-.008-.227.008v-2.382c.06-.259.02-.537-.118-.768-1.275-2.14-3.426-3.47-5.823-3.626v-.864c.266-.234.336-.648.159-.989l-.127-.155c-.276-.222-.669-.247-.935-.053l-.022.017c-.302.248-.331.683-.204.986.036.087.095.161.17.213l.016.01v.836c-2.4.153-4.557 1.484-5.832 3.626-.138.231-.178.51-.119.768v2.382l-.226-.008-.24.008v-1.867c.197-.06.341-.25.341-.478 0-.228-.145-.417-.341-.477v-2.394c.197-.06.341-.25.341-.478 0-.228-.145-.418-.341-.478v-2.246l-.001-.004-.004-.062-.764-6.035v-1.632c0-.276-.212-.499-.472-.499-.261 0-.473.224-.473.499v1.634l-.741 6.035-.004.061v2.25c-.198.06-.342.25-.342.478 0 .228.145.417.342.478v2.394c-.198.059-.342.25-.342.477 0 .228.145.418.342.478v2.843c-.211.176-.408.373-.587.591-.311.164-.525.502-.525.894v2.976c0 .255.092.487.24.664-.16.066-.281.113-.554.113l-.057-.001.04-.2v-4.436h.057c.26 0 .472-.224.472-.499 0-.276-.212-.499-.472-.499h-.057v-4.178h.057c.26 0 .472-.224.472-.499 0-.276-.212-.499-.472-.499h-.057v-3.714l-.004-.063-1.184-9.344v-2.542c0-.276-.211-.499-.472-.499-.26 0-.472.223-.472.499v2.543l-1.148 9.344-.003.061v3.714h-.058c-.26 0-.472.224-.472.499 0 .276.212.499.472.499h.058v4.178h-.058c-.26 0-.472.223-.472.499s.212.499.472.499h.058v4.436l.031.172-.258-.089c-.201-.083-.452-.187-.911-.187-.261 0-.472.224-.472.499 0 .276.211.499.472.499.281 0 .402.05.568.119.202.083.453.187.911.187.459 0 .71-.103.912-.187.166-.069.286-.119.567-.119.282 0 .402.05.568.119.202.083.453.187.912.187.458 0 .709-.103.911-.187.166-.069.286-.119.568-.119.281 0 .401.05.568.119.201.083.453.187.911.187s.709-.103.911-.187c.167-.069.288-.119.568-.119.281 0 .401.05.568.119.202.083.453.187.911.187.459 0 .71-.103.911-.187.167-.069.288-.119.568-.119.281 0 .401.05.568.119.202.083.453.187.911.187.46 0 .71-.103.912-.187.166-.069.286-.119.567-.119.282 0 .401.05.568.119.202.083.453.187.911.187.46 0 .71-.103.912-.187.167-.069.287-.119.568-.119.281 0 .401.05.568.119.202.083.453.187.911.187.459 0 .71-.103.911-.187.166-.069.287-.119.568-.119.282 0 .402.05.569.119.201.083.452.187.911.187.458 0 .71-.103.911-.187.166-.069.287-.119.568-.119.281 0 .402.05.568.119.202.083.453.187.911.187.459 0 .71-.103.912-.187.166-.069.287-.119.568-.119.281 0 .402.05.568.119.202.083.453.187.911.187.459 0 .71-.103.912-.187.166-.069.287-.119.569-.119.281 0 .401.05.568.119.202.083.453.187.912.187.261 0 .472-.224.472-.499 0-.276-.211-.499-.472-.499zm-28.3-20.081l.64 5.059h-1.261l.621-5.059zm-.686 6.058h1.395v3.211h-1.395v-3.211zm0 4.21h1.395v4.178h-1.395v-4.178zm0 5.176h1.395v3.937h-1.395v-3.937zm5.006-12.243l.222 1.749h-.436l.215-1.749zm-.28 5.472h.569v2.351h-.569v-2.351zm0-2.724h.569v1.726h-.569v-1.726zm0 6.074h.569v2.009c-.195.057-.384.129-.569.214v-2.223zm16.494-8.821l.222 1.748h-.436l.215-1.748zm-.28 5.471h.569v2.351h-.569v-2.351zm0-2.724h.569v1.726h-.569v-1.726zm0 6.074h.569v2.217c-.184-.084-.373-.155-.569-.212v-2.005zm-11.524 3.036c1.025-.901 2.324-1.408 3.707-1.408 1.384 0 2.682.508 3.708 1.408l.292.272h-7.999l.292-.272zm-3.649 3.248h-1.208v-.979h17.351v.979h-16.143zm15.173-3.232c.182.07.358.155.525.256h-3.065l-.098-.126c.384-.192.802-.307 1.239-.338l.227-.008.228.009c.16.011.318.033.472.067.161.035.319.082.472.141zm-13.094.256h-3.064c.164-.099.335-.182.513-.251.153-.059.31-.107.472-.143.155-.034.313-.058.473-.07l.24-.009.226.008c.437.03.856.146 1.239.337l-.099.127zm5.277-6.258c1.244 0 2.415.419 3.36 1.17h-6.721c.946-.751 2.117-1.17 3.36-1.17zm-4.529 3.174h9.058v2.186l-.035.021c-1.219-1.152-2.802-1.803-4.494-1.803-1.692 0-3.274.652-4.493 1.803l-.036-.021v-2.186zm17.15-12.246l.64 5.059h-1.262l.621-5.059zm-.686 6.057h1.394v3.211h-1.394v-3.211zm0 4.21h1.394v4.178h-1.394v-4.178zm0 5.176h1.394v3.937h-1.394v-3.937zm-8.899-12.63c.083.066.183.101.285.101.102 0 .201-.035.283-.099.183-.145.243-.408.141-.624-.033-.069-.081-.129-.139-.176-.163-.129-.403-.13-.567-.001-.184.146-.243.41-.139.627l.136.173m5.509-9.097c.082.066.182.101.284.101.102 0 .201-.035.283-.099.184-.145.243-.408.141-.624-.033-.069-.08-.129-.139-.176-.163-.13-.403-.13-.566-.002-.185.145-.243.41-.14.627l.137.173m-7.627 4.314c.083.066.182.101.285.101.102 0 .2-.035.282-.099.184-.145.243-.408.14-.624-.032-.069-.08-.129-.138-.176-.163-.129-.403-.13-.566-.001-.184.145-.243.41-.14.626l.137.173m-5.262 1.238l.392.227.215.415c.083.16.242.26.414.26.173 0 .332-.1.415-.26l.215-.415.392-.227c.151-.087.245-.256.245-.438s-.094-.351-.245-.438l-.392-.228-.215-.415c-.083-.16-.242-.259-.415-.259-.172 0-.33.1-.414.259l-.215.415-.392.228c-.151.087-.245.256-.245.438s.094.351.245.438" fill="#206FAC"/><path d="M31.541 108.974c-.282 0-.403-.05-.569-.119-.202-.083-.453-.187-.911-.187l-.109.003v-4.335h.056c.261 0 .472-.224.472-.499 0-.276-.211-.499-.472-.499h-.056v-4.178h.056c.261 0 .472-.224.472-.499 0-.276-.211-.499-.472-.499h-.056v-3.711l-.001-.003-.004-.063-1.183-9.344v-2.542c0-.276-.211-.499-.472-.499s-.472.223-.472.499v2.543l-1.147 9.344-.004.061v3.714h-.057c-.261 0-.472.224-.472.499 0 .276.211.499.472.499h.057v4.178h-.057c-.261 0-.472.223-.472.499s.211.499.472.499h.057v4.368c-.206.038-.353.098-.48.151l-.11.044c.169-.18.273-.428.273-.702v-2.976c0-.508-.359-.927-.824-.99-.16-.185-.335-.353-.521-.506v-2.833c.198-.06.342-.25.342-.478 0-.228-.145-.418-.342-.477v-2.394c.198-.06.342-.25.342-.478 0-.228-.145-.418-.342-.478v-2.25l-.004-.062-.765-6.035v-1.632c0-.276-.211-.499-.472-.499-.26 0-.472.224-.472.499v1.634l-.741 6.035-.004.061v2.25c-.198.06-.342.25-.342.478 0 .228.145.417.342.478v2.394c-.198.059-.342.25-.342.477 0 .228.145.418.342.478v1.866l-.228-.008-.227.008v-2.382c.06-.259.02-.537-.118-.768-1.275-2.14-3.426-3.47-5.823-3.626v-.864c.266-.234.336-.648.159-.989l-.127-.155c-.276-.222-.669-.247-.935-.053l-.022.017c-.302.248-.331.683-.204.986.036.087.095.161.17.213l.016.01v.836c-2.4.153-4.557 1.484-5.832 3.626-.138.231-.178.51-.119.768v2.382l-.226-.008-.24.008v-1.867c.197-.06.341-.25.341-.478 0-.228-.145-.417-.341-.477v-2.394c.197-.06.341-.25.341-.478 0-.228-.145-.418-.341-.478v-2.246l-.001-.004-.004-.062-.764-6.035v-1.632c0-.276-.212-.499-.472-.499-.261 0-.473.224-.473.499v1.634l-.741 6.035-.004.061v2.25c-.198.06-.342.25-.342.478 0 .228.145.417.342.478v2.394c-.198.059-.342.25-.342.477 0 .228.145.418.342.478v2.843c-.211.176-.408.373-.587.591-.311.164-.525.502-.525.894v2.976c0 .255.092.487.24.664-.16.066-.281.113-.554.113l-.057-.001.04-.2v-4.436h.057c.26 0 .472-.224.472-.499 0-.276-.212-.499-.472-.499h-.057v-4.178h.057c.26 0 .472-.224.472-.499 0-.276-.212-.499-.472-.499h-.057v-3.714l-.004-.063-1.184-9.344v-2.542c0-.276-.211-.499-.472-.499-.26 0-.472.223-.472.499v2.543l-1.148 9.344-.003.061v3.714h-.058c-.26 0-.472.224-.472.499 0 .276.212.499.472.499h.058v4.178h-.058c-.26 0-.472.223-.472.499s.212.499.472.499h.058v4.436l.031.172-.258-.089c-.201-.083-.452-.187-.911-.187-.261 0-.472.224-.472.499 0 .276.211.499.472.499.281 0 .402.05.568.119.202.083.453.187.911.187.459 0 .71-.103.912-.187.166-.069.286-.119.567-.119.282 0 .402.05.568.119.202.083.453.187.912.187.458 0 .709-.103.911-.187.166-.069.286-.119.568-.119.281 0 .401.05.568.119.201.083.453.187.911.187s.709-.103.911-.187c.167-.069.288-.119.568-.119.281 0 .401.05.568.119.202.083.453.187.911.187.459 0 .71-.103.911-.187.167-.069.288-.119.568-.119.281 0 .401.05.568.119.202.083.453.187.911.187.46 0 .71-.103.912-.187.166-.069.286-.119.567-.119.282 0 .401.05.568.119.202.083.453.187.911.187.46 0 .71-.103.912-.187.167-.069.287-.119.568-.119.281 0 .401.05.568.119.202.083.453.187.911.187.459 0 .71-.103.911-.187.166-.069.287-.119.568-.119.282 0 .402.05.569.119.201.083.452.187.911.187.458 0 .71-.103.911-.187.166-.069.287-.119.568-.119.281 0 .402.05.568.119.202.083.453.187.911.187.459 0 .71-.103.912-.187.166-.069.287-.119.568-.119.281 0 .402.05.568.119.202.083.453.187.911.187.459 0 .71-.103.912-.187.166-.069.287-.119.569-.119.281 0 .401.05.568.119.202.083.453.187.912.187.261 0 .472-.224.472-.499 0-.276-.211-.499-.472-.499zm-28.3-20.081l.64 5.059h-1.261l.621-5.059zm-.686 6.058h1.395v3.211h-1.395v-3.211zm0 4.21h1.395v4.178h-1.395v-4.178zm0 5.176h1.395v3.937h-1.395v-3.937zm5.006-12.243l.222 1.749h-.436l.215-1.749zm-.28 5.472h.569v2.351h-.569v-2.351zm0-2.724h.569v1.726h-.569v-1.726zm0 6.074h.569v2.009c-.195.057-.384.129-.569.214v-2.223zm16.494-8.821l.222 1.748h-.436l.215-1.748zm-.28 5.471h.569v2.351h-.569v-2.351zm0-2.724h.569v1.726h-.569v-1.726zm0 6.074h.569v2.217c-.184-.084-.373-.155-.569-.212v-2.005zm-11.524 3.036c1.025-.901 2.324-1.408 3.707-1.408 1.384 0 2.682.508 3.708 1.408l.292.272h-7.999l.292-.272zm-3.649 3.248h-1.208v-.979h17.351v.979h-16.143zm15.173-3.232c.182.07.358.155.525.256h-3.065l-.098-.126c.384-.192.802-.307 1.239-.338l.227-.008.228.009c.16.011.318.033.472.067.161.035.319.082.472.141zm-13.094.256h-3.064c.164-.099.335-.182.513-.251.153-.059.31-.107.472-.143.155-.034.313-.058.473-.07l.24-.009.226.008c.437.03.856.146 1.239.337l-.099.127zm5.277-6.258c1.244 0 2.415.419 3.36 1.17h-6.721c.946-.751 2.117-1.17 3.36-1.17zm-4.529 3.174h9.058v2.186l-.035.021c-1.219-1.152-2.802-1.803-4.494-1.803-1.692 0-3.274.652-4.493 1.803l-.036-.021v-2.186zm17.15-12.246l.64 5.059h-1.262l.621-5.059zm-.686 6.057h1.394v3.211h-1.394v-3.211zm0 4.21h1.394v4.178h-1.394v-4.178zm0 5.176h1.394v3.937h-1.394v-3.937zm-8.899-12.63c.083.066.183.101.285.101.102 0 .201-.035.283-.099.183-.145.243-.408.141-.624-.033-.069-.081-.129-.139-.176-.163-.129-.403-.13-.567-.001-.184.146-.243.41-.139.627l.136.173m5.509-9.097c.082.066.182.101.284.101.102 0 .201-.035.283-.099.184-.145.243-.408.141-.624-.033-.069-.08-.129-.139-.176-.163-.13-.403-.13-.566-.002-.185.145-.243.41-.14.627l.137.173m-7.627 4.314c.083.066.182.101.285.101.102 0 .2-.035.282-.099.184-.145.243-.408.14-.624-.032-.069-.08-.129-.138-.176-.163-.129-.403-.13-.566-.001-.184.145-.243.41-.14.626l.137.173m-5.262 1.238l.392.227.215.415c.083.16.242.26.414.26.173 0 .332-.1.415-.26l.215-.415.392-.227c.151-.087.245-.256.245-.438s-.094-.351-.245-.438l-.392-.228-.215-.415c-.083-.16-.242-.259-.415-.259-.172 0-.33.1-.414.259l-.215.415-.392.228c-.151.087-.245.256-.245.438s.094.351.245.438" fill="#fff"/><path d="M31.541 68.974c-.282 0-.403-.05-.569-.119-.202-.083-.453-.187-.911-.187l-.109.003v-4.335h.056c.261 0 .472-.224.472-.499 0-.276-.211-.499-.472-.499h-.056v-4.178h.056c.261 0 .472-.224.472-.499 0-.276-.211-.499-.472-.499h-.056v-3.711l-.001-.003-.004-.063-1.183-9.344v-2.542c0-.276-.211-.499-.472-.499s-.472.223-.472.499v2.543l-1.147 9.344-.004.061v3.714h-.057c-.261 0-.472.224-.472.499 0 .276.211.499.472.499h.057v4.178h-.057c-.261 0-.472.223-.472.499s.211.499.472.499h.057v4.368c-.206.038-.353.098-.48.151l-.11.044c.169-.18.273-.428.273-.702v-2.976c0-.508-.359-.927-.824-.99-.16-.185-.335-.353-.521-.506v-2.833c.198-.06.342-.25.342-.478 0-.228-.145-.418-.342-.477v-2.394c.198-.06.342-.25.342-.478 0-.228-.145-.418-.342-.478v-2.25l-.004-.062-.765-6.035v-1.632c0-.276-.211-.499-.472-.499-.26 0-.472.224-.472.499v1.634l-.741 6.035-.004.061v2.25c-.198.06-.342.25-.342.478 0 .228.145.417.342.478v2.394c-.198.059-.342.25-.342.477 0 .228.145.418.342.478v1.866l-.228-.008-.227.008v-2.382c.06-.259.02-.537-.118-.768-1.275-2.14-3.426-3.47-5.823-3.626v-.864c.266-.234.336-.648.159-.989l-.127-.155c-.276-.222-.669-.247-.935-.053l-.022.017c-.302.248-.331.683-.204.986.036.087.095.161.17.213l.016.01v.836c-2.4.153-4.557 1.484-5.832 3.626-.138.231-.178.51-.119.768v2.382l-.226-.008-.24.008v-1.867c.197-.06.341-.25.341-.478 0-.228-.145-.417-.341-.477v-2.394c.197-.06.341-.25.341-.478 0-.228-.145-.418-.341-.478v-2.246l-.001-.004-.004-.062-.764-6.035v-1.632c0-.276-.212-.499-.472-.499-.261 0-.473.224-.473.499v1.634l-.741 6.035-.004.061v2.25c-.198.06-.342.25-.342.478 0 .228.145.417.342.478v2.394c-.198.059-.342.25-.342.477 0 .228.145.418.342.478v2.843c-.211.176-.408.373-.587.591-.311.164-.525.502-.525.894v2.976c0 .255.092.487.24.664-.16.066-.281.113-.554.113l-.057-.001.04-.2v-4.436h.057c.26 0 .472-.224.472-.499 0-.276-.212-.499-.472-.499h-.057v-4.178h.057c.26 0 .472-.224.472-.499 0-.276-.212-.499-.472-.499h-.057v-3.714l-.004-.063-1.184-9.344v-2.542c0-.276-.211-.499-.472-.499-.26 0-.472.223-.472.499v2.543l-1.148 9.344-.003.061v3.714h-.058c-.26 0-.472.224-.472.499 0 .276.212.499.472.499h.058v4.178h-.058c-.26 0-.472.223-.472.499s.212.499.472.499h.058v4.436l.031.172-.258-.089c-.201-.083-.452-.187-.911-.187-.261 0-.472.224-.472.499 0 .276.211.499.472.499.281 0 .402.05.568.119.202.083.453.187.911.187.459 0 .71-.103.912-.187.166-.069.286-.119.567-.119.282 0 .402.05.568.119.202.083.453.187.912.187.458 0 .709-.103.911-.187.166-.069.286-.119.568-.119.281 0 .401.05.568.119.201.083.453.187.911.187s.709-.103.911-.187c.167-.069.288-.119.568-.119.281 0 .401.05.568.119.202.083.453.187.911.187.459 0 .71-.103.911-.187.167-.069.288-.119.568-.119.281 0 .401.05.568.119.202.083.453.187.911.187.46 0 .71-.103.912-.187.166-.069.286-.119.567-.119.282 0 .401.05.568.119.202.083.453.187.911.187.46 0 .71-.103.912-.187.167-.069.287-.119.568-.119.281 0 .401.05.568.119.202.083.453.187.911.187.459 0 .71-.103.911-.187.166-.069.287-.119.568-.119.282 0 .402.05.569.119.201.083.452.187.911.187.458 0 .71-.103.911-.187.166-.069.287-.119.568-.119.281 0 .402.05.568.119.202.083.453.187.911.187.459 0 .71-.103.912-.187.166-.069.287-.119.568-.119.281 0 .402.05.568.119.202.083.453.187.911.187.459 0 .71-.103.912-.187.166-.069.287-.119.569-.119.281 0 .401.05.568.119.202.083.453.187.912.187.261 0 .472-.224.472-.499 0-.276-.211-.499-.472-.499zm-28.3-20.081l.64 5.059h-1.261l.621-5.059zm-.686 6.058h1.395v3.211h-1.395v-3.211zm0 4.21h1.395v4.178h-1.395v-4.178zm0 5.176h1.395v3.937h-1.395v-3.937zm5.006-12.243l.222 1.749h-.436l.215-1.749zm-.28 5.472h.569v2.351h-.569v-2.351zm0-2.724h.569v1.726h-.569v-1.726zm0 6.074h.569v2.009c-.195.057-.384.129-.569.214v-2.223zm16.494-8.821l.222 1.748h-.436l.215-1.748zm-.28 5.471h.569v2.351h-.569v-2.351zm0-2.724h.569v1.726h-.569v-1.726zm0 6.074h.569v2.217c-.184-.084-.373-.155-.569-.212v-2.005zm-11.524 3.036c1.025-.901 2.324-1.408 3.707-1.408 1.384 0 2.682.508 3.708 1.408l.292.272h-7.999l.292-.272zm-3.649 3.248h-1.208v-.979h17.351v.979h-16.143zm15.173-3.232c.182.07.358.155.525.256h-3.065l-.098-.126c.384-.192.802-.307 1.239-.338l.227-.008.228.009c.16.011.318.033.472.067.161.035.319.082.472.141zm-13.094.256h-3.064c.164-.099.335-.182.513-.251.153-.059.31-.107.472-.143.155-.034.313-.058.473-.07l.24-.009.226.008c.437.03.856.146 1.239.337l-.099.127zm5.277-6.258c1.244 0 2.415.419 3.36 1.17h-6.721c.946-.751 2.117-1.17 3.36-1.17zm-4.529 3.174h9.058v2.186l-.035.021c-1.219-1.152-2.802-1.803-4.494-1.803-1.692 0-3.274.652-4.493 1.803l-.036-.021v-2.186zm17.15-12.246l.64 5.059h-1.262l.621-5.059zm-.686 6.057h1.394v3.211h-1.394v-3.211zm0 4.21h1.394v4.178h-1.394v-4.178zm0 5.176h1.394v3.937h-1.394v-3.937zm-8.899-12.63c.083.066.183.101.285.101.102 0 .201-.035.283-.099.183-.145.243-.408.141-.624-.033-.069-.081-.129-.139-.176-.163-.129-.403-.13-.567-.001-.184.146-.243.41-.139.627l.136.173m5.509-9.097c.082.066.182.101.284.101.102 0 .201-.035.283-.099.184-.145.243-.408.141-.624-.033-.069-.08-.129-.139-.176-.163-.13-.403-.13-.566-.002-.185.145-.243.41-.14.627l.137.173m-7.627 4.314c.083.066.182.101.285.101.102 0 .2-.035.282-.099.184-.145.243-.408.14-.624-.032-.069-.08-.129-.138-.176-.163-.129-.403-.13-.566-.001-.184.145-.243.41-.14.626l.137.173m-5.262 1.238l.392.227.215.415c.083.16.242.26.414.26.173 0 .332-.1.415-.26l.215-.415.392-.227c.151-.087.245-.256.245-.438s-.094-.351-.245-.438l-.392-.228-.215-.415c-.083-.16-.242-.259-.415-.259-.172 0-.33.1-.414.259l-.215.415-.392.228c-.151.087-.245.256-.245.438s.094.351.245.438" fill="#67737B"/><path d="M31.541 28.974c-.282 0-.403-.05-.569-.119-.202-.083-.453-.187-.911-.187l-.109.003v-4.335h.056c.261 0 .472-.224.472-.499 0-.276-.211-.499-.472-.499h-.056v-4.178h.056c.261 0 .472-.224.472-.499 0-.276-.211-.499-.472-.499h-.056v-3.711l-.001-.003-.004-.063-1.183-9.344v-2.542c0-.276-.211-.499-.472-.499s-.472.223-.472.499v2.543l-1.147 9.344-.004.061v3.714h-.057c-.261 0-.472.224-.472.499 0 .276.211.499.472.499h.057v4.178h-.057c-.261 0-.472.223-.472.499s.211.499.472.499h.057v4.368c-.206.038-.353.098-.48.151l-.11.044c.169-.18.273-.428.273-.702v-2.976c0-.508-.359-.927-.824-.99-.16-.185-.335-.353-.521-.506v-2.833c.198-.06.342-.25.342-.478 0-.228-.145-.418-.342-.477v-2.394c.198-.06.342-.25.342-.478 0-.228-.145-.418-.342-.478v-2.25l-.004-.062-.765-6.035v-1.632c0-.276-.211-.499-.472-.499-.26 0-.472.224-.472.499v1.634l-.741 6.035-.004.061v2.25c-.198.06-.342.25-.342.478 0 .228.145.417.342.478v2.394c-.198.059-.342.25-.342.477 0 .228.145.418.342.478v1.866l-.228-.008-.227.008v-2.382c.06-.259.02-.537-.118-.768-1.275-2.14-3.426-3.47-5.823-3.626v-.864c.266-.234.336-.648.159-.989l-.127-.155c-.276-.222-.669-.247-.935-.053l-.022.017c-.302.248-.331.683-.204.986.036.087.095.161.17.213l.016.01v.836c-2.4.153-4.557 1.484-5.832 3.626-.138.231-.178.51-.119.768v2.382l-.226-.008-.24.008v-1.867c.197-.06.341-.25.341-.478 0-.228-.145-.417-.341-.477v-2.394c.197-.06.341-.25.341-.478 0-.228-.145-.418-.341-.478v-2.246l-.001-.004-.004-.062-.764-6.035v-1.632c0-.276-.212-.499-.472-.499-.261 0-.473.224-.473.499v1.634l-.741 6.035-.004.061v2.25c-.198.06-.342.25-.342.478 0 .228.145.417.342.478v2.394c-.198.059-.342.25-.342.477 0 .228.145.418.342.478v2.843c-.211.176-.408.373-.587.591-.311.164-.525.502-.525.894v2.976c0 .255.092.487.24.664-.16.066-.281.113-.554.113l-.057-.001.04-.2v-4.436h.057c.26 0 .472-.224.472-.499 0-.276-.212-.499-.472-.499h-.057v-4.178h.057c.26 0 .472-.224.472-.499 0-.276-.212-.499-.472-.499h-.057v-3.714l-.004-.063-1.184-9.344v-2.542c0-.276-.211-.499-.472-.499-.26 0-.472.223-.472.499v2.543l-1.148 9.344-.003.061v3.714h-.058c-.26 0-.472.224-.472.499 0 .276.212.499.472.499h.058v4.178h-.058c-.26 0-.472.223-.472.499s.212.499.472.499h.058v4.436l.031.172-.258-.089c-.201-.083-.452-.187-.911-.187-.261 0-.472.224-.472.499 0 .276.211.499.472.499.281 0 .402.05.568.119.202.083.453.187.911.187.459 0 .71-.103.912-.187.166-.069.286-.119.567-.119.282 0 .402.05.568.119.202.083.453.187.912.187.458 0 .709-.103.911-.187.166-.069.286-.119.568-.119.281 0 .401.05.568.119.201.083.453.187.911.187s.709-.103.911-.187c.167-.069.288-.119.568-.119.281 0 .401.05.568.119.202.083.453.187.911.187.459 0 .71-.103.911-.187.167-.069.288-.119.568-.119.281 0 .401.05.568.119.202.083.453.187.911.187.46 0 .71-.103.912-.187.166-.069.286-.119.567-.119.282 0 .401.05.568.119.202.083.453.187.911.187.46 0 .71-.103.912-.187.167-.069.287-.119.568-.119.281 0 .401.05.568.119.202.083.453.187.911.187.459 0 .71-.103.911-.187.166-.069.287-.119.568-.119.282 0 .402.05.569.119.201.083.452.187.911.187.458 0 .71-.103.911-.187.166-.069.287-.119.568-.119.281 0 .402.05.568.119.202.083.453.187.911.187.459 0 .71-.103.912-.187.166-.069.287-.119.568-.119.281 0 .402.05.568.119.202.083.453.187.911.187.459 0 .71-.103.912-.187.166-.069.287-.119.569-.119.281 0 .401.05.568.119.202.083.453.187.912.187.261 0 .472-.224.472-.499 0-.276-.211-.499-.472-.499zm-28.3-20.081l.64 5.059h-1.261l.621-5.059zm-.686 6.058h1.395v3.211h-1.395v-3.211zm0 4.21h1.395v4.178h-1.395v-4.178zm0 5.176h1.395v3.937h-1.395v-3.937zm5.006-12.243l.222 1.749h-.436l.215-1.749zm-.28 5.472h.569v2.351h-.569v-2.351zm0-2.724h.569v1.726h-.569v-1.726zm0 6.074h.569v2.009c-.195.057-.384.129-.569.214v-2.223zm16.494-8.821l.222 1.748h-.436l.215-1.748zm-.28 5.471h.569v2.351h-.569v-2.351zm0-2.724h.569v1.726h-.569v-1.726zm0 6.074h.569v2.217c-.184-.084-.373-.155-.569-.212v-2.005zm-11.524 3.036c1.025-.901 2.324-1.408 3.707-1.408 1.384 0 2.682.508 3.708 1.408l.292.272h-7.999l.292-.272zm-3.649 3.248h-1.208v-.979h17.351v.979h-16.143zm15.173-3.232c.182.07.358.155.525.256h-3.065l-.098-.126c.384-.192.802-.307 1.239-.338l.227-.008.228.009c.16.011.318.033.472.067.161.035.319.082.472.141zm-13.094.256h-3.064c.164-.099.335-.182.513-.251.153-.059.31-.107.472-.143.155-.034.313-.058.473-.07l.24-.009.226.008c.437.03.856.146 1.239.337l-.099.127zm5.277-6.258c1.244 0 2.415.419 3.36 1.17h-6.721c.946-.751 2.117-1.17 3.36-1.17zm-4.529 3.174h9.058v2.186l-.035.021c-1.219-1.152-2.802-1.803-4.494-1.803-1.692 0-3.274.652-4.493 1.803l-.036-.021v-2.186zm17.15-12.246l.64 5.059h-1.262l.621-5.059zm-.686 6.057h1.394v3.211h-1.394v-3.211zm0 4.21h1.394v4.178h-1.394v-4.178zm0 5.176h1.394v3.937h-1.394v-3.937zm-8.899-12.63c.083.066.183.101.285.101.102 0 .201-.035.283-.099.183-.145.243-.408.141-.624-.033-.069-.081-.129-.139-.176-.163-.129-.403-.13-.567-.001-.184.146-.243.41-.139.627l.136.173m5.509-9.097c.082.066.182.101.284.101.102 0 .201-.035.283-.099.184-.145.243-.408.141-.624-.033-.069-.08-.129-.139-.176-.163-.13-.403-.13-.566-.002-.185.145-.243.41-.14.627l.137.173m-7.627 4.314c.083.066.182.101.285.101.102 0 .2-.035.282-.099.184-.145.243-.408.14-.624-.032-.069-.08-.129-.138-.176-.163-.129-.403-.13-.566-.001-.184.145-.243.41-.14.626l.137.173m-5.262 1.238l.392.227.215.415c.083.16.242.26.414.26.173 0 .332-.1.415-.26l.215-.415.392-.227c.151-.087.245-.256.245-.438s-.094-.351-.245-.438l-.392-.228-.215-.415c-.083-.16-.242-.259-.415-.259-.172 0-.33.1-.414.259l-.215.415-.392.228c-.151.087-.245.256-.245.438s.094.351.245.438" fill="#3A434E"/></g></g></svg>