<svg width="32" height="232" viewBox="0 0 32 232" xmlns="http://www.w3.org/2000/svg"><desc>Created with Sketch.</desc><g fill="none"><path d="M10.173 125.54h.08l-.023.237c0 .69.535 1.25 1.192 1.25h4.21c.29 0 .57-.11.788-.312.257-.238.405-.58.405-.938s-.148-.7-.404-.937c-.214-.202-.494-.313-.784-.313h-1.01l.003-.076c0-.31-.13-.61-.353-.812-.19-.177-.434-.274-.688-.274h-3.414c-.572 0-1.04.49-1.04 1.09s.468 1.09 1.04 1.09zm0-1.166h3.413l.048.02.025.057-.03.06-.047.02c-.268 0-.484.226-.484.506s.216.506.483.506h2.048l.15.06c.03.027.077.085.077.177 0 .092-.05.15-.078.177l-.15.06h-4.21c-.125 0-.226-.106-.226-.237 0-.13.102-.237.226-.237.27 0 .485-.226.485-.505h.002c0-.28-.216-.506-.483-.506h-1.25l-.074-.077.073-.077zm9.47 6.65c.256-.227.62-.232.882-.035l.006.01c.08.18.25.293.44.293h.057c.188 0 .36-.114.438-.293l.006-.013c.26-.198.626-.193.883.033.205.18.51.153.682-.06.17-.214.145-.534-.06-.714-.57-.504-1.373-.54-1.974-.145-.602-.39-1.402-.355-1.975.148-.204.18-.23.5-.06.714.172.216.477.244.682.064zm9.264 11.474c.17-.07.294-.12.58-.12.29 0 .412.05.583.12.206.085.463.19.934.19.267 0 .483-.226.483-.506s-.216-.506-.483-.506c-.29 0-.41-.05-.582-.12-.207-.085-.464-.19-.934-.19-.47 0-.726.105-.932.19-.123.05-.222.09-.374.108v-2.5l-.006-.064.005-.095-.274-7.527-.004-.035.003-.098-.417-7.527c-.014-.24-.186-.432-.406-.47v-2.822c0-.28-.218-.506-.485-.506s-.483.227-.483.506v2.823c-.22.033-.392.224-.405.465l-.42 7.527.003.098-.004.036-.28 7.527.005.095-.006.062v2.474l-.228-.082c-.205-.085-.462-.19-.932-.19-.47 0-.727.105-.933.19-.17.07-.294.12-.58.12s-.412-.05-.582-.12c-.206-.085-.463-.19-.932-.19-.147 0-.272.01-.382.028l-.124-3.29-.007-.056c.326.183.6.447.8.778.29.48.382 1.048.26 1.595-.063.272.1.544.36.61l.11.01c.22 0 .416-.156.47-.39.18-.814.046-1.655-.383-2.367-.262-.436-.615-.792-1.03-1.053.8-.294 1.735-.106 2.357.554.095.1.22.15.344.15.123 0 .246-.046.34-.143.19-.2.192-.52.004-.718-.89-.945-2.224-1.215-3.367-.794.373-.676 1.093-1.134 1.92-1.134.27 0 .485-.225.485-.505s-.216-.505-.484-.505c-1.12 0-2.103.594-2.663 1.488-.56-.893-1.545-1.488-2.665-1.488-.266 0-.483.227-.483.506 0 .28.215.508.483.508.827 0 1.547.458 1.92 1.133-1.144-.42-2.48-.15-3.368.793-.188.2-.186.52.004.717.093.097.216.145.34.145.123 0 .25-.05.342-.15.622-.66 1.556-.85 2.355-.554-.413.26-.766.62-1.03 1.055-.427.713-.563 1.554-.38 2.368.053.234.25.392.47.392l.11-.013c.26-.065.42-.338.36-.61-.122-.547-.03-1.114.26-1.595.2-.334.48-.6.812-.784l-.01.063-.135 3.57c-.222-.01-.336-.056-.486-.117-.206-.086-.463-.19-.933-.19-.47 0-.727.104-.933.19-.17.07-.294.12-.58.12-.29 0-.412-.05-.582-.12-.206-.086-.463-.19-.932-.19-.47 0-.726.104-.933.19l-.04.015c-.99-12.556-6.446-16.202-6.7-16.365l-.164-.083v-1.382c0-.28-.216-.506-.483-.506s-.483.226-.483.505v1.554c-.077.067-.146.15-.202.244-.253.434-.16.985.202 1.3v3.14c-.29.174-.484.5-.484.875v10.517c-.343.025-.555.11-.73.182-.17.07-.292.12-.58.12-.287 0-.41-.05-.58-.12-.207-.086-.463-.19-.933-.19-.47 0-.726.104-.933.19-.17.07-.292.12-.58.12-.267 0-.483.225-.483.505s.218.507.485.507c.47 0 .725-.105.932-.19.17-.07.294-.12.58-.12.288 0 .41.05.58.12.207.085.464.19.934.19.47 0 .727-.105.933-.19.122-.05.222-.09.376-.11v2.207H2.004c-.533 0-.966.453-.966 1.012 0 .56.433 1.012.966 1.012h13.544c.172 0 .312.147.312.327 0 .18-.14.33-.312.33l-.137.01c-1.165.08-2.093 1.102-2.093 2.347 0 1.28.982 2.327 2.2 2.353H30.29c.534 0 .967-.453.967-1.013 0-.56-.432-1.012-.966-1.012h-2.11v-7.282c.34-.027.555-.11.73-.183zm-2.31-17.258l.31 5.626h-.624l.312-5.626zm-.6 13.276l.24-6.514h.72l.24 6.514h-1.2zm-5.175 3.86c.287 0 .41.05.58.12.207.086.465.19.934.19.47 0 .727-.104.933-.19.17-.07.29-.12.58-.12s.41.05.58.12c.15.06.32.132.58.168v7.298H20.76l-.286-7.55c.09-.02.194-.035.343-.035zm-13.41 2.218v-.824h3.38c.266 0 .482-.226.482-.506s-.216-.506-.483-.506H7.416v-.938h3.38c.266 0 .482-.227.482-.507s-.216-.506-.483-.506h-3.38v-.938h3.24c.268 0 .484-.23.484-.51s-.216-.506-.483-.506h-3.24v-.94h2.928c.268 0 .484-.225.484-.505s-.216-.506-.483-.506h-2.93v-.94h2.402c.267 0 .484-.225.484-.505s-.217-.506-.485-.506H7.412v-.938h1.704c.267 0 .484-.226.484-.506s-.216-.504-.484-.504H7.412v-.938h1.07c.268 0 .484-.226.484-.506s-.216-.506-.483-.506h-1.07v-.198c0-.375-.196-.7-.484-.876v-2.284c.56.59 1.33 1.555 2.095 3.008 2.277 4.313 2.895 9.76 2.977 13.892h-4.59zm7.836 5.04c0-.182.14-.33.313-.33l.14-.01c1.17-.08 2.098-1.102 2.098-2.348 0-1.297-1.008-2.353-2.248-2.353h-1.61c-.014-.683-.038-1.345-.075-1.983l.32-.114c.172-.07.294-.12.582-.12s.41.05.58.12c.207.085.464.19.934.19.47 0 .727-.105.934-.19.17-.07.294-.12.58-.12s.412.05.582.12c.186.076.414.168.8.186l-.277 7.278h-3.34c-.172 0-.312-.147-.312-.328zm10.73-9.967h1.238v10.294h-1.24v-10.29zm-16.306 10.8H4.557c-.267 0-.483.228-.483.507 0 .28.216.507.483.507h5.115c.267 0 .483-.223.483-.503s-.216-.506-.483-.506zm2.082-2.262H3.232c-.267 0-.483.227-.483.506 0 .28.212.51.48.51h8.52c.268 0 .484-.227.484-.506 0-.28-.216-.505-.483-.505z" fill="#206FAC"/><path d="M10.173 85.54h.08l-.023.237c0 .69.535 1.25 1.192 1.25h4.21c.29 0 .57-.11.788-.312.257-.238.405-.58.405-.938s-.148-.7-.404-.937c-.214-.202-.494-.313-.784-.313h-1.01l.003-.076c0-.31-.13-.61-.353-.812-.19-.177-.434-.274-.688-.274h-3.414c-.572 0-1.04.49-1.04 1.09s.468 1.09 1.04 1.09zm0-1.166h3.413l.048.02.025.057-.03.06-.047.02c-.268 0-.484.226-.484.506s.216.506.483.506h2.048l.15.06c.03.027.077.085.077.177 0 .092-.05.15-.078.177l-.15.06h-4.21c-.125 0-.226-.106-.226-.237 0-.13.102-.237.226-.237.27 0 .485-.226.485-.505h.002c0-.28-.216-.506-.483-.506h-1.25l-.074-.077.073-.077zm9.47 6.65c.256-.227.62-.232.882-.035l.006.01c.08.18.25.293.44.293h.057c.188 0 .36-.114.438-.293l.006-.013c.26-.198.626-.193.883.033.205.18.51.153.682-.06.17-.214.145-.534-.06-.714-.57-.504-1.373-.54-1.974-.145-.602-.39-1.402-.355-1.975.148-.204.18-.23.5-.06.714.172.216.477.244.682.064zm9.264 11.474c.17-.07.294-.12.58-.12.29 0 .412.05.583.12.206.085.463.19.934.19.267 0 .483-.226.483-.506s-.216-.506-.483-.506c-.29 0-.41-.05-.582-.12-.207-.085-.464-.19-.934-.19-.47 0-.726.105-.932.19-.123.05-.222.09-.374.108v-2.5l-.006-.064.005-.095-.274-7.527-.004-.035.003-.098-.417-7.527c-.014-.24-.186-.432-.406-.47v-2.822c0-.28-.218-.506-.485-.506s-.483.227-.483.506v2.823c-.22.033-.392.224-.405.465l-.42 7.527.003.098-.004.036-.28 7.527.005.095-.006.062v2.474l-.228-.082c-.205-.085-.462-.19-.932-.19-.47 0-.727.105-.933.19-.17.07-.294.12-.58.12s-.412-.05-.582-.12c-.206-.085-.463-.19-.932-.19-.147 0-.272.01-.382.028l-.124-3.29-.007-.056c.326.183.6.447.8.778.29.48.382 1.048.26 1.595-.063.272.1.544.36.61l.11.01c.22 0 .416-.156.47-.39.18-.814.046-1.655-.383-2.367-.262-.436-.615-.792-1.03-1.053.8-.294 1.735-.106 2.357.554.095.1.22.15.344.15.123 0 .246-.046.34-.143.19-.2.192-.52.004-.718-.89-.945-2.224-1.215-3.367-.794.373-.676 1.093-1.134 1.92-1.134.27 0 .485-.225.485-.505s-.216-.505-.484-.505c-1.12 0-2.103.594-2.663 1.488-.56-.893-1.545-1.488-2.665-1.488-.266 0-.483.227-.483.506 0 .28.215.508.483.508.827 0 1.547.458 1.92 1.133-1.144-.42-2.48-.15-3.368.793-.188.2-.186.52.004.717.093.097.216.145.34.145.123 0 .25-.05.342-.15.622-.66 1.556-.85 2.355-.554-.413.26-.766.62-1.03 1.055-.427.713-.563 1.554-.38 2.368.053.234.25.392.47.392l.11-.013c.26-.065.42-.338.36-.61-.122-.547-.03-1.114.26-1.595.2-.334.48-.6.812-.784l-.01.063-.135 3.57c-.222-.01-.336-.056-.486-.117-.206-.086-.463-.19-.933-.19-.47 0-.727.104-.933.19-.17.07-.294.12-.58.12-.29 0-.412-.05-.582-.12-.206-.086-.463-.19-.932-.19-.47 0-.726.104-.933.19l-.04.015c-.99-12.556-6.446-16.202-6.7-16.365l-.164-.083V83.74c0-.28-.216-.506-.483-.506s-.483.227-.483.506v1.554c-.077.068-.146.15-.202.245-.253.43-.16.98.202 1.3v3.135c-.29.175-.484.5-.484.876v10.52c-.343.025-.555.11-.73.182-.17.07-.292.12-.58.12-.287 0-.41-.05-.58-.12-.207-.085-.463-.19-.933-.19-.47 0-.726.105-.933.19-.17.07-.292.12-.58.12-.267 0-.483.226-.483.506s.218.504.485.504c.47 0 .725-.105.932-.19.17-.07.294-.12.58-.12.288 0 .41.05.58.12.207.085.464.19.934.19.47 0 .727-.105.933-.19.122-.05.222-.09.376-.11v2.207H2.004c-.533 0-.966.454-.966 1.013 0 .56.433 1.012.966 1.012h13.544c.172 0 .312.148.312.328 0 .18-.14.328-.312.328l-.137.01c-1.165.08-2.093 1.104-2.093 2.35 0 1.28.982 2.327 2.2 2.353H30.29c.534 0 .967-.453.967-1.013 0-.56-.432-1.01-.966-1.01h-2.11v-7.283c.34-.026.555-.11.73-.182zm-2.31-17.258l.31 5.626h-.624l.312-5.626zm-.6 13.276l.24-6.514h.72l.24 6.514h-1.2zm-5.175 3.86c.287 0 .41.05.58.12.207.086.465.19.934.19.47 0 .727-.104.933-.19.17-.07.29-.12.58-.12s.41.05.58.12c.15.06.32.132.58.168v7.298H20.76l-.286-7.55c.09-.02.194-.035.343-.035zm-13.41 2.218v-.824h3.38c.266 0 .482-.226.482-.506s-.216-.506-.483-.506H7.416v-.938h3.38c.266 0 .482-.227.482-.507s-.216-.506-.483-.506h-3.38v-.938h3.24c.268 0 .484-.23.484-.51s-.216-.506-.483-.506h-3.24v-.94h2.928c.268 0 .484-.225.484-.505s-.216-.506-.483-.506h-2.93v-.94h2.402c.267 0 .484-.225.484-.505s-.217-.506-.485-.506H7.412v-.938h1.704c.267 0 .484-.226.484-.506s-.216-.504-.484-.504H7.412v-.938h1.07c.268 0 .484-.226.484-.506s-.216-.506-.483-.506h-1.07v-.198c0-.375-.196-.7-.484-.876v-2.284c.56.59 1.33 1.555 2.095 3.008 2.277 4.313 2.895 9.76 2.977 13.892h-4.59zm7.836 5.04c0-.182.14-.33.313-.33l.14-.01c1.17-.08 2.098-1.102 2.098-2.348 0-1.297-1.008-2.353-2.248-2.353h-1.61c-.014-.683-.038-1.345-.075-1.983l.32-.114c.172-.07.294-.12.582-.12s.41.05.58.12c.207.085.464.19.934.19.47 0 .727-.105.934-.19.17-.07.294-.12.58-.12s.412.05.582.12c.186.076.414.168.8.186l-.277 7.278h-3.34c-.172 0-.312-.147-.312-.328zm10.73-9.967h1.238v10.294h-1.24V99.67zm-16.306 10.8H4.557c-.267 0-.483.228-.483.507 0 .28.216.507.483.507h5.115c.267 0 .483-.223.483-.503s-.216-.506-.483-.506zm2.082-2.262H3.232c-.267 0-.483.227-.483.506 0 .28.212.51.48.51h8.52c.268 0 .484-.227.484-.506 0-.28-.216-.505-.483-.505z" fill="#fff"/><path d="M10.173 45.54h.08l-.023.237c0 .69.535 1.25 1.192 1.25h4.21c.29 0 .57-.11.788-.312.257-.238.405-.58.405-.938s-.148-.7-.404-.937c-.214-.202-.494-.313-.784-.313h-1.01l.003-.076c0-.31-.13-.61-.353-.812-.19-.177-.434-.274-.688-.274h-3.414c-.572 0-1.04.49-1.04 1.09s.468 1.09 1.04 1.09zm0-1.166h3.413l.048.02.025.057-.03.06-.047.02c-.268 0-.484.226-.484.506s.216.506.483.506h2.048l.15.06c.03.027.077.085.077.177 0 .092-.05.15-.078.177l-.15.06h-4.21c-.125 0-.226-.106-.226-.237 0-.13.102-.237.226-.237.27 0 .485-.226.485-.505h.002c0-.28-.216-.506-.483-.506h-1.25l-.074-.077.073-.077zm9.47 6.65c.256-.227.62-.232.882-.035l.006.01c.08.18.25.293.44.293h.057c.188 0 .36-.114.438-.293l.006-.013c.26-.198.626-.193.883.033.205.18.51.153.682-.06.17-.214.145-.534-.06-.714-.57-.504-1.373-.54-1.974-.145-.602-.39-1.402-.355-1.975.148-.204.18-.23.5-.06.714.172.216.477.244.682.064zm9.264 11.474c.17-.07.294-.12.58-.12.29 0 .412.05.583.12.206.085.463.19.934.19.267 0 .483-.226.483-.506s-.216-.506-.483-.506c-.29 0-.41-.05-.582-.12-.207-.085-.464-.19-.934-.19-.47 0-.726.105-.932.19-.123.05-.222.09-.374.108v-2.5l-.006-.064.005-.095-.274-7.527-.004-.035.003-.098-.417-7.527c-.014-.24-.186-.432-.406-.47v-2.822c0-.28-.218-.506-.485-.506s-.483.227-.483.506v2.823c-.22.033-.392.224-.405.465l-.42 7.527.003.098-.004.036-.28 7.527.005.095-.006.062v2.474l-.228-.082c-.205-.085-.462-.19-.932-.19-.47 0-.727.105-.933.19-.17.07-.294.12-.58.12s-.412-.05-.582-.12c-.206-.085-.463-.19-.932-.19-.147 0-.272.01-.382.028l-.124-3.29-.007-.056c.326.183.6.447.8.778.29.48.382 1.048.26 1.595-.063.272.1.544.36.61l.11.01c.22 0 .416-.156.47-.39.18-.814.046-1.655-.383-2.367-.262-.436-.615-.792-1.03-1.053.8-.294 1.735-.106 2.357.554.095.1.22.15.344.15.123 0 .246-.046.34-.143.19-.2.192-.52.004-.718-.89-.945-2.224-1.215-3.367-.794.373-.676 1.093-1.134 1.92-1.134.27 0 .485-.225.485-.505s-.216-.505-.484-.505c-1.12 0-2.103.594-2.663 1.488-.56-.893-1.545-1.488-2.665-1.488-.266 0-.483.227-.483.506 0 .28.215.508.483.508.827 0 1.547.458 1.92 1.133-1.144-.42-2.48-.15-3.368.793-.188.2-.186.52.004.717.093.097.216.145.34.145.123 0 .25-.05.342-.15.622-.66 1.556-.85 2.355-.554-.413.26-.766.62-1.03 1.055-.427.713-.563 1.554-.38 2.368.053.234.25.392.47.392l.11-.013c.26-.065.42-.338.36-.61-.122-.547-.03-1.114.26-1.595.2-.334.48-.6.812-.784l-.01.063-.135 3.57c-.222-.01-.336-.056-.486-.117-.206-.086-.463-.19-.933-.19-.47 0-.727.104-.933.19-.17.07-.294.12-.58.12-.29 0-.412-.05-.582-.12-.206-.086-.463-.19-.932-.19-.47 0-.726.104-.933.19l-.04.015c-.99-12.556-6.446-16.202-6.7-16.365l-.164-.083V43.74c0-.28-.216-.506-.483-.506s-.483.227-.483.506v1.554c-.077.068-.146.15-.202.245-.253.43-.16.98.202 1.3v3.135c-.29.175-.484.5-.484.876v10.52c-.343.026-.555.11-.73.183-.17.07-.292.12-.58.12-.287 0-.41-.05-.58-.12-.207-.085-.463-.19-.933-.19-.47 0-.726.105-.933.19-.17.07-.292.12-.58.12-.267 0-.483.226-.483.506s.218.503.485.503c.47 0 .725-.105.932-.19.17-.07.294-.12.58-.12.288 0 .41.05.58.12.207.085.464.19.934.19.47 0 .727-.105.933-.19.122-.05.222-.09.376-.11v2.207H2.004c-.533 0-.966.455-.966 1.014 0 .56.433 1.012.966 1.012h13.544c.172 0 .312.148.312.328 0 .18-.14.328-.312.328l-.137.01c-1.165.08-2.093 1.103-2.093 2.348 0 1.28.982 2.328 2.2 2.354H30.29c.534 0 .967-.453.967-1.013 0-.56-.432-1.01-.966-1.01h-2.11V62.68c.34-.026.555-.11.73-.182zm-2.31-17.258l.31 5.626h-.624l.312-5.626zm-.6 13.276l.24-6.514h.72l.24 6.514h-1.2zm-5.175 3.86c.287 0 .41.05.58.12.207.086.465.19.934.19.47 0 .727-.104.933-.19.17-.07.29-.12.58-.12s.41.05.58.12c.15.06.32.132.58.168v7.298H20.76l-.286-7.55c.09-.02.194-.035.343-.035zm-13.41 2.218v-.824h3.38c.266 0 .482-.226.482-.506s-.216-.506-.483-.506H7.416v-.938h3.38c.266 0 .482-.227.482-.507s-.216-.506-.483-.506h-3.38v-.938h3.24c.268 0 .484-.23.484-.51s-.216-.506-.483-.506h-3.24v-.94h2.928c.268 0 .484-.225.484-.505s-.216-.506-.483-.506h-2.93v-.94h2.402c.267 0 .484-.225.484-.505s-.217-.506-.485-.506H7.412v-.938h1.704c.267 0 .484-.226.484-.506s-.216-.504-.484-.504H7.412v-.938h1.07c.268 0 .484-.226.484-.506s-.216-.506-.483-.506h-1.07v-.198c0-.375-.196-.7-.484-.876v-2.284c.56.59 1.33 1.555 2.095 3.008 2.277 4.313 2.895 9.76 2.977 13.892h-4.59zm7.836 5.04c0-.182.14-.33.313-.33l.14-.01c1.17-.08 2.098-1.102 2.098-2.348 0-1.297-1.008-2.353-2.248-2.353h-1.61c-.014-.683-.038-1.345-.075-1.983l.32-.114c.172-.07.294-.12.582-.12s.41.05.58.12c.207.085.464.19.934.19.47 0 .727-.105.934-.19.17-.07.294-.12.58-.12s.412.05.582.12c.186.076.414.168.8.186L18.9 69.96h-3.34c-.172 0-.312-.147-.312-.328zm10.73-9.967h1.238V69.96h-1.24V59.668zM9.67 70.467H4.557c-.267 0-.483.228-.483.507 0 .28.216.507.483.507h5.115c.267 0 .483-.223.483-.503s-.216-.506-.483-.506zm2.082-2.262h-8.52c-.267 0-.483.227-.483.506 0 .28.212.51.48.51h8.52c.268 0 .484-.227.484-.506 0-.28-.216-.505-.483-.505z" fill="#67737B"/><path d="M10.173 5.54h.08l-.023.237c0 .69.535 1.25 1.192 1.25h4.21c.29 0 .57-.11.788-.312.257-.238.405-.58.405-.938s-.148-.7-.404-.937c-.214-.202-.494-.313-.784-.313h-1.01l.003-.076c0-.31-.13-.61-.353-.812-.19-.177-.434-.274-.688-.274h-3.414c-.572 0-1.04.49-1.04 1.09s.468 1.09 1.04 1.09zm0-1.166h3.413l.048.02.025.057-.03.06-.047.02c-.268 0-.484.226-.484.506s.216.506.483.506h2.048l.15.06c.03.027.077.085.077.177 0 .092-.05.15-.078.177l-.15.06h-4.21c-.125 0-.226-.106-.226-.237 0-.13.102-.237.226-.237.27 0 .485-.226.485-.505h.002c0-.28-.216-.506-.483-.506h-1.25l-.074-.077.073-.077zm9.47 6.65c.256-.227.62-.232.882-.035l.006.01c.08.18.25.293.44.293h.057c.188 0 .36-.114.438-.293l.006-.013c.26-.198.626-.193.883.033.205.18.51.153.682-.06.17-.214.145-.534-.06-.714-.57-.504-1.373-.54-1.974-.145-.602-.39-1.402-.355-1.975.148-.204.18-.23.5-.06.714.172.216.477.244.682.064zm9.264 11.474c.17-.07.294-.12.58-.12.29 0 .412.05.583.12.206.085.463.19.934.19.267 0 .483-.226.483-.506s-.216-.506-.483-.506c-.29 0-.41-.05-.582-.12-.207-.085-.464-.19-.934-.19-.47 0-.726.105-.932.19-.123.05-.222.09-.374.108v-2.5l-.006-.064.005-.095-.274-7.527-.004-.035.003-.098-.417-7.527c-.014-.24-.186-.432-.406-.47V.528c0-.28-.218-.507-.485-.507s-.483.23-.483.51v2.82c-.22.036-.392.227-.405.468l-.42 7.527.003.098-.004.035-.28 7.527.005.095-.006.063v2.474l-.228-.082c-.205-.085-.462-.19-.932-.19-.47 0-.727.105-.933.19-.17.07-.294.12-.58.12s-.412-.05-.582-.12c-.206-.085-.463-.19-.932-.19-.147 0-.272.01-.382.028l-.124-3.29-.007-.056c.326.183.6.447.8.778.29.48.382 1.048.26 1.595-.063.273.1.545.36.61l.11.012c.22 0 .416-.157.47-.39.18-.815.046-1.656-.383-2.368-.262-.436-.615-.792-1.03-1.053.8-.29 1.735-.103 2.357.557.095.1.22.15.344.15.123 0 .246-.048.34-.145.19-.197.192-.517.004-.716-.89-.944-2.224-1.214-3.367-.793.373-.674 1.093-1.132 1.92-1.132.27 0 .485-.225.485-.505s-.216-.504-.484-.504c-1.12 0-2.103.595-2.663 1.49-.56-.894-1.545-1.49-2.665-1.49-.266 0-.483.228-.483.507 0 .28.215.507.483.507.827 0 1.547.458 1.92 1.133-1.144-.42-2.48-.15-3.368.793-.188.2-.186.52.004.716.093.098.216.146.34.146.123 0 .25-.05.342-.15.622-.66 1.556-.85 2.355-.554-.413.26-.766.617-1.03 1.053-.427.714-.563 1.555-.38 2.37.053.233.25.39.47.39l.11-.012c.26-.065.42-.338.36-.61-.122-.547-.03-1.114.26-1.595.2-.335.48-.6.812-.785l-.01.062-.135 3.57c-.222-.01-.336-.056-.486-.117-.206-.085-.463-.19-.933-.19-.47 0-.727.105-.933.19-.17.07-.294.12-.58.12-.29 0-.412-.05-.582-.12-.206-.085-.463-.19-.932-.19-.47 0-.726.105-.933.19l-.04.016C12.805 9.017 7.35 5.37 7.095 5.21l-.164-.084V3.74c0-.28-.213-.506-.48-.506s-.483.227-.483.506v1.554c-.077.068-.146.15-.202.245-.253.43-.16.98.202 1.3v3.135c-.29.175-.484.5-.484.876v10.52c-.343.026-.555.11-.73.183-.17.07-.292.12-.58.12-.287 0-.41-.05-.58-.12-.207-.085-.463-.19-.933-.19-.47 0-.727.105-.934.19-.17.07-.292.12-.58.12-.267 0-.483.226-.483.506s.217.503.484.503c.47 0 .726-.105.933-.19.17-.07.294-.12.58-.12.288 0 .41.05.58.12.207.085.464.19.934.19.47 0 .727-.105.933-.19.123-.05.223-.09.377-.11v2.207h-3.48c-.533 0-.966.455-.966 1.014 0 .56.433 1.012.966 1.012h13.544c.172 0 .312.148.312.328 0 .18-.14.328-.312.328l-.137.01c-1.165.08-2.093 1.103-2.093 2.348 0 1.28.982 2.328 2.2 2.354H30.29c.534 0 .967-.453.967-1.013 0-.56-.432-1.01-.966-1.01h-2.11V22.68c.34-.026.555-.11.73-.182zM26.597 5.24l.31 5.626h-.624l.312-5.626zm-.6 13.276l.24-6.514h.72l.24 6.514h-1.2zm-5.175 3.86c.287 0 .41.05.58.12.207.086.465.19.934.19.47 0 .727-.104.933-.19.17-.07.29-.12.58-.12s.41.05.58.12c.15.06.32.132.58.168v7.298H20.76l-.286-7.55c.09-.02.194-.035.343-.035zm-13.41 2.218v-.824h3.38c.266 0 .482-.226.482-.506s-.216-.506-.483-.506H7.416v-.938h3.38c.266 0 .482-.227.482-.507s-.216-.506-.483-.506h-3.38v-.938h3.24c.268 0 .484-.23.484-.51s-.216-.506-.483-.506h-3.24v-.94h2.928c.268 0 .484-.225.484-.505s-.216-.506-.483-.506h-2.93v-.94h2.402c.267 0 .484-.225.484-.505s-.217-.506-.485-.506H7.412v-.938h1.704c.267 0 .484-.226.484-.506s-.216-.504-.484-.504H7.412v-.938h1.07c.268 0 .484-.226.484-.506s-.216-.506-.483-.506h-1.07v-.198c0-.375-.196-.7-.484-.876V7.695c.56.59 1.33 1.555 2.095 3.008 2.277 4.313 2.895 9.76 2.977 13.892h-4.59zm7.836 5.04c0-.182.14-.33.313-.33l.14-.01c1.17-.08 2.098-1.102 2.098-2.348 0-1.297-1.008-2.353-2.248-2.353h-1.61c-.014-.683-.038-1.345-.075-1.983l.32-.114c.172-.07.294-.12.582-.12s.41.05.58.12c.207.085.464.19.934.19.47 0 .727-.105.934-.19.17-.07.294-.12.58-.12s.412.05.582.12c.186.076.414.168.8.186L18.9 29.96h-3.34c-.172 0-.312-.147-.312-.328zm10.73-9.967h1.238V29.96h-1.24V19.668zM9.67 30.467H4.557c-.267 0-.483.228-.483.507 0 .28.216.507.483.507h5.115c.267 0 .483-.223.483-.503s-.216-.506-.483-.506zm2.082-2.262h-8.52c-.267 0-.483.227-.483.506 0 .28.212.51.48.51h8.52c.268 0 .484-.227.484-.506 0-.28-.216-.505-.483-.505z" fill="#3A434E"/></g></svg>