<svg width="32" height="232" viewBox="0 0 32 232" xmlns="http://www.w3.org/2000/svg"><desc>Created with Sketch.</desc><g fill="none"><path d="M10.173 125.54h.08l-.023.237c0 .69.535 1.25 1.192 1.25h4.21c.29 0 .57-.11.788-.312.257-.238.405-.58.405-.938s-.148-.7-.404-.937c-.21-.202-.49-.313-.78-.313h-1.01l.01-.076c0-.31-.13-.61-.35-.81-.19-.17-.43-.27-.68-.27h-3.42c-.57 0-1.04.49-1.04 1.09s.47 1.09 1.04 1.09zm0-1.166h3.413l.048.02.025.057-.03.06-.05.02c-.27 0-.49.23-.49.51s.21.51.48.51h2.05l.15.06c.03.03.07.09.07.18 0 .1-.05.15-.08.18l-.15.06H11.4c-.125 0-.226-.1-.226-.23s.102-.23.226-.23c.27 0 .485-.22.485-.5h.004c0-.28-.22-.51-.49-.51h-1.25l-.08-.07.07-.08zm9.47 6.65c.256-.227.62-.232.882-.035l.006.01c.08.18.25.29.44.29h.06c.19 0 .36-.12.44-.3l.01-.02c.26-.2.63-.2.89.03.21.18.51.15.68-.06.17-.22.15-.54-.06-.72-.57-.51-1.37-.54-1.97-.15-.6-.39-1.4-.36-1.97.14-.2.18-.23.5-.06.71.17.215.48.243.68.063zm9.264 11.474c.17-.07.294-.12.58-.12.29 0 .412.05.583.12.206.085.463.19.934.19.267 0 .483-.226.483-.506s-.216-.506-.483-.506c-.29 0-.41-.05-.582-.12-.207-.085-.464-.19-.934-.19-.47 0-.726.105-.932.19-.123.05-.222.09-.374.108v-2.5l-.006-.064.005-.095-.27-7.527v-.035l.01-.098-.41-7.527c-.01-.24-.18-.432-.4-.47v-2.822c0-.28-.22-.506-.48-.506s-.48.227-.48.506v2.823c-.22.03-.39.22-.4.46l-.42 7.52.008.1-.005.03-.28 7.52.005.09-.01.06v2.47l-.23-.09c-.21-.086-.466-.19-.936-.19-.47 0-.73.104-.934.19-.17.07-.29.12-.58.12s-.41-.05-.58-.12c-.202-.086-.46-.19-.93-.19-.144 0-.27.01-.38.03l-.123-3.29-.003-.06c.33.188.6.45.8.78.29.48.38 1.05.26 1.6-.06.273.1.545.36.61l.11.01c.22 0 .42-.155.47-.39.18-.813.05-1.654-.38-2.366-.26-.44-.616-.793-1.03-1.054.8-.293 1.734-.105 2.356.555.095.1.22.15.344.15.12 0 .244-.05.34-.143.19-.2.19-.52 0-.72-.89-.95-2.223-1.22-3.366-.798.37-.677 1.09-1.135 1.92-1.135.27 0 .484-.227.484-.507s-.21-.506-.48-.506c-1.12 0-2.103.593-2.663 1.49-.56-.896-1.543-1.49-2.663-1.49-.265 0-.482.23-.482.505 0 .28.218.508.486.508.825 0 1.545.46 1.92 1.133-1.146-.42-2.48-.15-3.37.795-.19.2-.19.52 0 .72.094.1.217.146.34.146.124 0 .25-.05.34-.15.625-.66 1.56-.85 2.358-.554-.414.26-.77.62-1.03 1.054-.43.713-.564 1.554-.38 2.37.05.233.25.39.47.39l.11-.01c.26-.06.42-.33.36-.61-.123-.54-.03-1.11.26-1.59.2-.332.48-.6.81-.782l-.01.06-.134 3.57c-.22-.01-.338-.058-.488-.12-.21-.087-.467-.19-.937-.19-.47 0-.73.103-.94.19-.17.07-.294.12-.58.12-.29 0-.41-.05-.58-.12-.208-.087-.465-.19-.93-.19-.47 0-.73.103-.937.19l-.04.014c-.99-12.556-6.446-16.2-6.7-16.365l-.164-.08v-1.38c0-.28-.217-.51-.484-.51s-.486.223-.486.502v1.56c-.08.07-.15.15-.207.246-.255.434-.16.985.2 1.3v3.14c-.29.174-.485.5-.485.875v10.517c-.34.022-.553.11-.73.18-.17.07-.29.12-.58.12-.285 0-.41-.05-.58-.12-.205-.09-.46-.19-.93-.19-.47 0-.73.1-.94.19-.17.07-.292.12-.58.12-.27 0-.483.22-.483.5s.22.51.486.51c.47 0 .725-.106.93-.19.17-.07.296-.12.58-.12.29 0 .41.05.58.12.21.084.466.19.936.19.47 0 .726-.106.932-.19.12-.05.22-.09.37-.11v2.21H2c-.532 0-.965.45-.965 1.01s.433 1.01.966 1.01h13.55c.18 0 .32.146.32.326 0 .18-.14.33-.31.33l-.13.01c-1.16.08-2.09 1.1-2.09 2.347 0 1.28.98 2.33 2.2 2.355H30.3c.532 0 .965-.454.965-1.014s-.432-1.01-.966-1.01h-2.11v-7.283c.34-.03.56-.11.73-.18zm-2.31-17.258l.31 5.626h-.624l.312-5.626zm-.6 13.276l.24-6.514h.72l.24 6.514h-1.2zm-5.175 3.86c.287 0 .41.05.58.12.207.086.465.19.934.19.47 0 .727-.104.933-.19.17-.07.29-.12.58-.12s.41.05.58.12c.15.06.32.132.58.168v7.298h-4.25l-.29-7.55c.09-.02.19-.035.34-.035zm-13.41 2.218v-.824h3.38c.266 0 .482-.226.482-.506s-.216-.506-.483-.506H7.42v-.938h3.38c.266 0 .482-.227.482-.507s-.217-.506-.484-.506h-3.38v-.938h3.24c.268 0 .484-.23.484-.51s-.217-.51-.484-.51h-3.24v-.94h2.928c.268 0 .484-.23.484-.51s-.216-.51-.483-.51h-2.93v-.94H9.82c.266 0 .483-.23.483-.51s-.214-.51-.482-.51h-2.4V134h1.7c.27 0 .49-.227.49-.507s-.21-.5-.48-.5H7.41v-.94h1.07c.268 0 .484-.226.484-.506s-.216-.51-.483-.51H7.41v-.197c0-.374-.195-.7-.483-.875v-2.288c.56.59 1.33 1.555 2.09 3.008 2.275 4.315 2.893 9.76 2.975 13.894H7.41zm7.836 5.04c0-.182.14-.33.313-.33l.14-.01c1.17-.08 2.1-1.102 2.1-2.348 0-1.297-1.01-2.353-2.25-2.353h-1.61c-.01-.683-.03-1.345-.07-1.983l.32-.114c.17-.07.3-.12.58-.12s.41.05.58.12c.21.085.47.19.94.19s.73-.105.94-.19c.17-.07.3-.12.58-.12s.41.05.58.12c.19.076.42.168.8.186l-.28 7.278h-3.34c-.17 0-.31-.147-.31-.328zm10.73-9.967h1.238v10.294h-1.24v-10.29zm-16.306 10.8H4.557c-.267 0-.483.228-.483.507 0 .28.216.507.483.507h5.115c.267 0 .483-.22.483-.5s-.216-.5-.483-.5zm2.082-2.262H3.232c-.267 0-.483.227-.483.506 0 .28.21.51.48.51h8.52c.26 0 .48-.22.48-.5s-.22-.5-.49-.5z" fill="#206FAC"/><path d="M10.173 85.54h.08l-.023.237c0 .69.535 1.25 1.192 1.25h4.21c.29 0 .57-.11.788-.312.257-.238.405-.58.405-.938s-.148-.7-.404-.937c-.21-.202-.49-.313-.78-.313h-1.01l.01-.076c0-.31-.13-.61-.35-.81-.19-.17-.43-.27-.68-.27h-3.42c-.57 0-1.04.49-1.04 1.09s.47 1.09 1.04 1.09zm0-1.166h3.413l.048.02.025.057-.03.06-.05.02c-.27 0-.49.23-.49.51s.21.51.48.51h2.05l.15.06c.03.03.07.09.07.18 0 .1-.05.15-.08.18l-.15.06H11.4c-.125 0-.226-.1-.226-.23s.102-.23.226-.23c.27 0 .485-.22.485-.5h.004c0-.28-.22-.51-.49-.51h-1.25l-.08-.07.07-.08zm9.47 6.65c.256-.227.62-.232.882-.035l.006.01c.08.18.25.29.44.29h.06c.19 0 .36-.12.44-.3l.01-.02c.26-.2.63-.2.89.03.21.18.51.15.68-.06.17-.22.15-.54-.06-.72-.57-.51-1.37-.54-1.97-.15-.6-.39-1.4-.36-1.97.14-.2.18-.23.5-.06.71.17.215.48.243.68.063zm9.264 11.474c.17-.07.294-.12.58-.12.29 0 .412.05.583.12.206.085.463.19.934.19.267 0 .483-.226.483-.506s-.216-.506-.483-.506c-.29 0-.41-.05-.582-.12-.207-.085-.464-.19-.934-.19-.47 0-.726.105-.932.19-.123.05-.222.09-.374.108v-2.5l-.006-.064.005-.095-.27-7.527v-.035l.01-.098-.41-7.527c-.01-.24-.18-.432-.4-.47v-2.822c0-.28-.22-.506-.48-.506s-.48.227-.48.506v2.823c-.22.03-.39.22-.4.46l-.42 7.52.008.1-.005.03-.3 7.54.006.09-.006.06v2.47l-.23-.09c-.21-.09-.47-.19-.94-.19s-.73.1-.94.19c-.17.07-.29.12-.58.12s-.41-.05-.58-.12c-.204-.09-.46-.19-.93-.19-.15 0-.27.01-.38.03l-.125-3.29-.01-.06c.32.19.6.45.8.78.29.48.38 1.05.26 1.6-.068.27.1.55.36.61l.11.01c.22 0 .41-.15.47-.39.18-.81.04-1.65-.388-2.36-.26-.44-.612-.79-1.03-1.05.8-.3 1.738-.11 2.36.55.095.1.22.15.344.15.126 0 .25-.05.34-.147.19-.2.195-.52.007-.72-.89-.946-2.23-1.216-3.37-.795.37-.678 1.09-1.136 1.92-1.136.27 0 .484-.22.484-.5s-.22-.503-.488-.503c-1.12 0-2.107.594-2.667 1.49-.56-.895-1.545-1.49-2.665-1.49-.264 0-.48.23-.48.506 0 .28.213.51.48.51.83 0 1.55.454 1.92 1.13-1.14-.42-2.48-.15-3.363.79-.19.2-.19.52 0 .72.093.094.216.142.34.142.123 0 .25-.05.34-.15.624-.66 1.56-.85 2.357-.555-.417.26-.77.62-1.03 1.055-.43.71-.567 1.554-.38 2.37.05.23.25.39.47.39l.11-.013c.26-.06.42-.33.36-.61-.126-.54-.03-1.11.26-1.59.2-.33.48-.6.81-.78l-.01.065-.137 3.57c-.22-.01-.33-.056-.48-.12-.206-.085-.463-.19-.933-.19-.47 0-.727.105-.93.19-.17.07-.298.12-.58.12-.29 0-.416-.05-.586-.12-.206-.085-.463-.19-.93-.19-.47 0-.73.105-.935.19l-.04.016c-.99-12.555-6.445-16.2-6.7-16.364l-.16-.085v-1.39c0-.28-.22-.5-.486-.5s-.484.22-.484.5v1.56c-.08.07-.15.15-.206.245-.25.43-.16.98.204 1.3v3.13c-.29.172-.487.5-.487.873v10.52c-.34.023-.552.11-.73.18-.17.07-.29.12-.58.12s-.41-.05-.58-.12c-.21-.085-.46-.19-.93-.19-.47 0-.73.105-.936.19-.17.07-.29.12-.58.12-.27 0-.48.226-.48.506s.215.51.48.51c.47 0 .724-.106.93-.19.17-.07.295-.12.58-.12.29 0 .41.05.58.12.21.084.465.19.935.19.47 0 .723-.106.93-.19.12-.05.22-.09.373-.11v2.206H2c-.532 0-.965.456-.965 1.015 0 .56.433 1.01.966 1.01h13.55c.18 0 .32.15.32.33 0 .18-.14.328-.31.328l-.13.01c-1.16.08-2.09 1.1-2.09 2.35 0 1.28.98 2.32 2.2 2.35H30.3c.532 0 .965-.45.965-1.01s-.432-1.01-.966-1.01h-2.11v-7.29c.34-.022.56-.11.73-.18zm-2.31-17.258l.31 5.626h-.624l.312-5.626zm-.6 13.276l.24-6.514h.72l.24 6.514h-1.2zm-5.175 3.86c.287 0 .41.05.58.12.207.086.465.19.934.19.47 0 .727-.104.933-.19.17-.07.29-.12.58-.12s.41.05.58.12c.15.06.32.132.58.168v7.298h-4.25l-.29-7.55c.09-.02.19-.035.34-.035zm-13.41 2.218v-.824h3.38c.266 0 .482-.226.482-.506s-.216-.506-.483-.506H7.42v-.938h3.38c.266 0 .482-.227.482-.507s-.217-.506-.484-.506h-3.38v-.938h3.24c.268 0 .484-.23.484-.51s-.217-.51-.484-.51h-3.24v-.94h2.928c.268 0 .484-.23.484-.51s-.216-.51-.483-.51h-2.93v-.94H9.82c.266 0 .483-.23.483-.51s-.214-.51-.482-.51h-2.4V94h1.7c.27 0 .49-.227.49-.507s-.21-.5-.48-.5H7.41v-.94h1.07c.268 0 .484-.226.484-.506s-.216-.51-.483-.51H7.41v-.197c0-.374-.195-.7-.483-.875v-2.28c.56.59 1.33 1.553 2.09 3.006 2.275 4.32 2.893 9.76 2.975 13.9H7.41zm7.836 5.04c0-.182.14-.33.313-.33l.14-.01c1.17-.08 2.1-1.102 2.1-2.348 0-1.297-1.01-2.353-2.25-2.353h-1.61c-.01-.683-.03-1.345-.07-1.983l.32-.114c.17-.07.3-.12.58-.12s.41.05.58.12c.21.085.47.19.94.19s.73-.105.94-.19c.17-.07.3-.12.58-.12s.41.05.58.12c.19.076.42.168.8.186l-.28 7.278h-3.34c-.17 0-.31-.147-.31-.328zm10.73-9.967h1.238v10.294h-1.24V99.67zm-16.306 10.8H4.557c-.267 0-.483.228-.483.507 0 .28.216.507.483.507h5.115c.267 0 .483-.22.483-.5s-.216-.5-.483-.5zm2.082-2.262H3.232c-.267 0-.483.227-.483.506 0 .28.21.51.48.51h8.52c.26 0 .48-.22.48-.5s-.22-.5-.49-.5z" fill="#fff"/><path d="M10.173 45.54h.08l-.023.237c0 .69.535 1.25 1.192 1.25h4.21c.29 0 .57-.11.788-.312.257-.238.405-.58.405-.938s-.148-.7-.404-.937c-.21-.202-.49-.313-.78-.313h-1.01l.01-.076c0-.31-.13-.61-.35-.81-.19-.17-.43-.27-.68-.27h-3.42c-.57 0-1.04.49-1.04 1.09s.47 1.09 1.04 1.09zm0-1.166h3.413l.048.02.025.057-.03.06-.05.02c-.27 0-.49.23-.49.51s.21.51.48.51h2.05l.15.06c.03.03.07.09.07.18 0 .1-.05.15-.08.18l-.15.06H11.4c-.125 0-.226-.1-.226-.23s.102-.23.226-.23c.27 0 .485-.22.485-.5h.004c0-.28-.22-.51-.49-.51h-1.25l-.08-.07.07-.08zm9.47 6.65c.256-.227.62-.232.882-.035l.006.01c.08.18.25.29.44.29h.06c.19 0 .36-.12.44-.3l.01-.02c.26-.2.63-.2.89.03.21.18.51.15.68-.06.17-.22.15-.54-.06-.72-.57-.51-1.37-.54-1.97-.15-.6-.39-1.4-.36-1.97.14-.2.18-.23.5-.06.71.17.215.48.243.68.063zm9.264 11.474c.17-.07.294-.12.58-.12.29 0 .412.05.583.12.206.085.463.19.934.19.267 0 .483-.226.483-.506s-.216-.506-.483-.506c-.29 0-.41-.05-.582-.12-.207-.085-.464-.19-.934-.19-.47 0-.726.105-.932.19-.123.05-.222.09-.374.108v-2.5l-.006-.064.005-.095-.27-7.527v-.035l.01-.098-.41-7.527c-.01-.24-.18-.432-.4-.47v-2.822c0-.28-.22-.506-.48-.506s-.48.227-.48.506v2.823c-.22.03-.39.22-.4.46l-.42 7.52.008.1-.005.03-.3 7.54.006.09-.006.06v2.47l-.23-.09c-.21-.09-.47-.19-.94-.19s-.73.1-.94.19c-.17.07-.29.12-.58.12s-.41-.05-.58-.12c-.204-.09-.46-.19-.93-.19-.15 0-.27.01-.38.03l-.125-3.29-.01-.06c.32.19.6.45.8.78.29.48.38 1.05.26 1.6-.068.27.1.55.36.61l.11.01c.22 0 .41-.15.47-.39.18-.81.04-1.65-.388-2.36-.26-.44-.612-.79-1.03-1.05.8-.3 1.738-.11 2.36.55.095.1.22.15.344.15.126 0 .25-.05.34-.147.19-.2.195-.52.007-.72-.89-.946-2.23-1.216-3.37-.795.37-.678 1.09-1.136 1.92-1.136.27 0 .484-.22.484-.5s-.22-.503-.488-.503c-1.12 0-2.107.594-2.667 1.49-.56-.895-1.545-1.49-2.665-1.49-.264 0-.48.23-.48.506 0 .28.213.51.48.51.83 0 1.55.454 1.92 1.13-1.14-.42-2.48-.15-3.363.79-.19.2-.19.52 0 .72.093.094.216.142.34.142.123 0 .25-.05.34-.15.624-.66 1.56-.85 2.357-.555-.417.26-.77.62-1.03 1.055-.43.71-.567 1.554-.38 2.37.05.23.25.39.47.39l.11-.013c.26-.06.42-.33.36-.61-.126-.54-.03-1.11.26-1.59.2-.33.48-.6.81-.78l-.01.065-.137 3.57c-.22-.01-.33-.056-.48-.12-.206-.085-.463-.19-.933-.19-.47 0-.727.105-.93.19-.17.07-.298.12-.58.12-.29 0-.416-.05-.586-.12-.206-.085-.463-.19-.93-.19-.47 0-.73.105-.935.19l-.04.016c-.99-12.555-6.445-16.2-6.7-16.364l-.16-.085v-1.39c0-.28-.22-.5-.486-.5s-.484.22-.484.5v1.56c-.08.07-.15.15-.206.245-.25.43-.16.98.204 1.3v3.13c-.29.172-.487.5-.487.873v10.52c-.34.024-.552.11-.73.18-.17.07-.29.12-.58.12s-.41-.05-.58-.12c-.21-.085-.46-.19-.93-.19-.47 0-.73.105-.936.19-.17.07-.29.12-.58.12-.27 0-.48.226-.48.506s.215.508.48.508c.47 0 .724-.1.93-.19.17-.07.295-.12.58-.12.29 0 .41.05.58.12.21.09.465.19.935.19.47 0 .723-.1.93-.19.12-.05.22-.09.373-.11v2.21H2c-.532 0-.965.46-.965 1.02s.433 1.01.966 1.01h13.55c.18 0 .32.15.32.33 0 .18-.14.33-.31.33l-.13.01c-1.16.08-2.09 1.11-2.09 2.35 0 1.28.98 2.33 2.2 2.36H30.3c.532 0 .965-.45.965-1.01s-.432-1.01-.966-1.01h-2.11V62.7c.34-.026.56-.11.73-.18zm-2.31-17.258l.31 5.626h-.624l.312-5.626zm-.6 13.276l.24-6.514h.72l.24 6.514h-1.2zm-5.175 3.86c.287 0 .41.05.58.12.207.086.465.19.934.19.47 0 .727-.104.933-.19.17-.07.29-.12.58-.12s.41.05.58.12c.15.06.32.132.58.168v7.298h-4.25l-.29-7.55c.09-.02.19-.035.34-.035zm-13.41 2.218v-.824h3.38c.266 0 .482-.226.482-.506s-.216-.506-.483-.506H7.42v-.938h3.38c.266 0 .482-.227.482-.507s-.217-.506-.484-.506h-3.38v-.938h3.24c.268 0 .484-.23.484-.51s-.217-.51-.484-.51h-3.24v-.94h2.928c.268 0 .484-.23.484-.51s-.216-.51-.483-.51h-2.93v-.94H9.82c.266 0 .483-.23.483-.51s-.214-.51-.482-.51h-2.4V54h1.7c.27 0 .49-.227.49-.507s-.21-.5-.48-.5H7.41v-.94h1.07c.268 0 .484-.226.484-.506s-.216-.51-.483-.51H7.41v-.197c0-.374-.195-.7-.483-.875v-2.28c.56.59 1.33 1.553 2.09 3.006 2.28 4.32 2.9 9.77 2.98 13.9H7.41zm7.836 5.04c0-.182.14-.33.313-.33l.14-.01c1.17-.08 2.1-1.102 2.1-2.348 0-1.297-1.01-2.353-2.25-2.353h-1.61c-.01-.683-.03-1.345-.07-1.983l.32-.114c.17-.07.3-.12.58-.12s.41.05.58.12c.21.085.47.19.94.19s.73-.105.94-.19c.17-.07.3-.12.58-.12s.41.05.58.12c.19.076.42.168.8.186l-.28 7.278h-3.34c-.17 0-.31-.147-.31-.328zm10.73-9.967h1.238V69.96h-1.24V59.668zM9.67 70.467H4.557c-.267 0-.483.228-.483.507 0 .28.216.507.483.507h5.115c.267 0 .483-.22.483-.5s-.216-.5-.483-.5zm2.082-2.262h-8.52c-.267 0-.483.227-.483.506 0 .28.21.51.48.51h8.52c.26 0 .48-.22.48-.5s-.22-.5-.49-.5z" fill="#67737B"/><path d="M10.173 5.54h.08l-.023.237c0 .69.535 1.25 1.192 1.25h4.21c.29 0 .57-.11.788-.312.257-.238.405-.58.405-.938s-.148-.7-.404-.937c-.21-.202-.49-.313-.78-.313h-1.01l.01-.076c0-.31-.13-.61-.35-.81-.19-.17-.43-.27-.68-.27h-3.42c-.57 0-1.04.49-1.04 1.09s.47 1.09 1.04 1.09zm0-1.166h3.413l.048.02.025.057-.03.06-.05.02c-.27 0-.49.23-.49.51s.21.51.48.51h2.05l.15.06c.03.03.07.09.07.18 0 .1-.05.15-.08.18l-.15.06H11.4c-.125 0-.226-.1-.226-.23s.102-.23.226-.23c.27 0 .485-.22.485-.5h.004c0-.28-.22-.51-.49-.51h-1.25l-.08-.07.07-.08zm9.47 6.65c.256-.227.62-.232.882-.035l.006.01c.08.18.25.29.44.29h.06c.19 0 .36-.12.44-.3l.01-.02c.26-.2.63-.2.89.03.21.18.51.15.68-.06.17-.22.15-.54-.06-.72-.57-.51-1.37-.54-1.97-.15-.6-.39-1.4-.36-1.97.14-.2.18-.23.5-.06.71.17.215.48.243.68.063zm9.264 11.474c.17-.07.294-.12.58-.12.29 0 .412.05.583.12.206.085.463.19.934.19.267 0 .483-.226.483-.506s-.216-.506-.483-.506c-.29 0-.41-.05-.582-.12-.207-.085-.464-.19-.934-.19-.47 0-.726.105-.932.19-.123.05-.222.09-.374.108v-2.5l-.006-.064.005-.095-.27-7.527v-.035l.01-.098-.41-7.527c-.01-.24-.18-.432-.4-.47V.528c0-.28-.22-.507-.48-.507s-.48.23-.48.51v2.82c-.22.04-.39.23-.4.47l-.42 7.53.008.1-.005.04-.28 7.53.005.1-.01.07v2.47l-.23-.08c-.21-.08-.466-.19-.936-.19-.47 0-.73.11-.934.19-.17.07-.29.12-.58.12s-.41-.05-.58-.12c-.202-.08-.46-.19-.93-.19-.144 0-.27.01-.38.03l-.123-3.29-.003-.06c.33.19.6.45.8.78.29.48.38 1.05.26 1.6-.06.27.1.55.36.61l.11.01c.22 0 .42-.15.47-.39.18-.81.05-1.65-.38-2.36-.26-.432-.616-.79-1.03-1.05.8-.29 1.734-.1 2.356.56.095.1.22.15.344.15.12 0 .244-.05.34-.14.19-.197.19-.517 0-.716-.89-.942-2.223-1.212-3.366-.79.37-.675 1.09-1.133 1.92-1.133.27 0 .484-.224.484-.504s-.21-.502-.48-.502c-1.12 0-2.103.593-2.663 1.49-.56-.896-1.543-1.49-2.663-1.49-.265 0-.482.226-.482.505 0 .28.218.51.486.51.825 0 1.545.46 1.92 1.136-1.146-.42-2.48-.15-3.37.79-.19.2-.19.52 0 .72.094.098.217.146.34.146.124 0 .25-.05.34-.15.625-.66 1.56-.85 2.358-.554-.414.26-.77.613-1.03 1.05-.43.713-.564 1.554-.38 2.37.05.232.25.39.47.39l.11-.01c.26-.068.42-.34.36-.61-.123-.55-.03-1.117.26-1.598.2-.33.48-.6.81-.78l-.01.06-.134 3.57c-.22-.01-.338-.06-.488-.12-.21-.084-.467-.19-.937-.19-.47 0-.73.106-.94.19-.17.07-.294.12-.58.12-.29 0-.41-.05-.58-.12-.208-.084-.465-.19-.93-.19-.47 0-.73.106-.937.19l-.04.017C12.8 9.015 7.343 5.37 7.09 5.21l-.164-.084V3.74c0-.28-.21-.506-.48-.506s-.48.227-.48.506v1.554c-.076.068-.145.15-.2.245-.254.43-.16.98.2 1.3v3.13c-.29.17-.484.5-.484.87v10.52c-.343.02-.555.11-.73.18-.17.07-.292.12-.58.12-.287 0-.41-.05-.58-.12-.207-.09-.463-.19-.933-.19-.47 0-.73.1-.94.19-.17.07-.3.12-.58.12-.27 0-.49.22-.49.5s.21.5.48.5c.47 0 .72-.11.93-.19.17-.07.29-.12.58-.12s.41.05.58.12c.21.08.46.19.93.19.47 0 .73-.11.93-.19.12-.05.22-.09.37-.11v2.2H2c-.532 0-.965.45-.965 1.01s.433 1.01.966 1.01h13.55c.17 0 .31.15.31.33 0 .18-.14.32-.31.32l-.13.01c-1.16.08-2.09 1.103-2.09 2.35 0 1.28.98 2.33 2.2 2.352H30.3c.53 0 .963-.45.963-1.01s-.432-1.01-.966-1.01h-2.11v-7.28c.34-.027.556-.11.73-.18zM26.597 5.24l.31 5.626h-.624l.312-5.626zm-.6 13.276l.24-6.514h.72l.24 6.514h-1.2zm-5.175 3.86c.287 0 .41.05.58.12.207.086.465.19.934.19.47 0 .727-.104.933-.19.17-.07.29-.12.58-.12s.41.05.58.12c.15.06.32.132.58.168v7.298h-4.25l-.29-7.55c.09-.02.19-.035.34-.035zm-13.41 2.218v-.824h3.38c.266 0 .482-.226.482-.506s-.216-.506-.483-.506H7.42v-.938h3.38c.266 0 .482-.227.482-.507s-.217-.506-.484-.506h-3.38v-.938h3.24c.268 0 .484-.23.484-.51s-.217-.51-.484-.51h-3.24v-.94h2.928c.268 0 .484-.23.484-.51s-.216-.51-.483-.51h-2.93v-.94H9.82c.266 0 .483-.23.483-.51s-.214-.51-.482-.51h-2.4V14h1.7c.27 0 .49-.227.49-.507s-.21-.5-.48-.5H7.41v-.94h1.07c.268 0 .484-.226.484-.506s-.216-.51-.483-.51H7.41v-.197c0-.374-.195-.7-.483-.875V7.69c.56.59 1.33 1.553 2.09 3.006 2.28 4.313 2.9 9.76 2.98 13.892H7.41zm7.836 5.04c0-.182.14-.33.313-.33l.14-.01c1.17-.08 2.1-1.102 2.1-2.348 0-1.297-1.01-2.353-2.25-2.353h-1.61c-.01-.683-.03-1.345-.07-1.983l.32-.114c.17-.07.3-.12.58-.12s.41.05.58.12c.21.085.47.19.94.19s.73-.105.94-.19c.17-.07.3-.12.58-.12s.41.05.58.12c.19.076.42.168.8.186l-.28 7.278h-3.34c-.17 0-.31-.147-.31-.328zm10.73-9.967h1.238V29.96h-1.24V19.668zM9.67 30.467H4.557c-.267 0-.483.228-.483.507 0 .28.216.507.483.507h5.115c.267 0 .483-.22.483-.5s-.216-.5-.483-.5zm2.082-2.262h-8.52c-.267 0-.483.227-.483.506 0 .28.21.51.48.51h8.52c.26 0 .48-.22.48-.5s-.22-.5-.49-.5z" fill="#3A434E"/></g></svg>