<svg width="32" height="232" viewBox="0 0 32 232" xmlns="http://www.w3.org/2000/svg"><desc>Created with Sketch.</desc><g fill="none"><path d="M2.47 130.033c-.284 0-.516.24-.516.534v2.894c0 .298.232.537.517.537.29 0 .52-.24.52-.533v-.913h.405v.914c0 .295.23.534.516.534.285 0 .516-.24.516-.533v-2.893c0-.293-.23-.532-.516-.532-.288 0-.518.24-.518.534v.915h-.405v-.914c0-.295-.23-.534-.516-.534zm5.242-.46c-.285 0-.516.237-.516.532V133c0 .294.23.532.516.532l.033-.004.034.004h.585c.285 0 .517-.238.517-.533 0-.298-.232-.537-.517-.537h-.14v-2.36c0-.296-.23-.534-.516-.534zm1.79.153c-.284 0-.515.24-.515.534v2.893c0 .295.23.534.516.534l.033-.004.033.004h.585c.285 0 .516-.24.516-.534 0-.294-.23-.534-.515-.534h-.14v-2.36c0-.298-.23-.537-.516-.537zm-3.668 4.022c.644 0 1.17-.54 1.17-1.207v-1.604c0-.666-.526-1.207-1.17-1.207s-1.17.54-1.17 1.206v1.608c0 .666.525 1.208 1.17 1.208zm-.136-2.815c0-.078.06-.14.136-.14.075 0 .136.062.136.14v1.608c0 .08-.06.14-.136.14-.075 0-.136-.06-.136-.14v-1.604zM17 134.516c.645 0 1.17-.542 1.17-1.207v-1.61c0-.668-.524-1.21-1.17-1.21s-1.168.54-1.168 1.208v1.61c0 .663.524 1.205 1.17 1.205zm-.135-2.815c0-.073.06-.14.136-.14.08 0 .14.067.14.14v1.61c0 .08-.06.14-.136.14-.074 0-.135-.06-.135-.14v-1.61zm-5.48 2.297c.286 0 .517-.24.517-.533v-1.102l.602-1.596c.103-.274-.028-.583-.294-.69-.265-.107-.565.03-.668.303l-.156.412-.156-.414c-.103-.275-.403-.41-.67-.303-.265.106-.396.416-.293.69l.602 1.598v1.105c0 .295.23.534.512.534zm2.087.212l.06.003c.21 0 .402-.132.48-.34l.138-.364.14.365c.077.207.27.34.48.34l.058-.004c.233-.027.418-.213.452-.453l.413-2.956c.04-.29-.155-.56-.437-.603-.284-.042-.544.16-.585.452l-.14 1.035-.01-.01-.02-.018-.053-.042-.024-.017-.082-.043-.022-.008-.05-.016-.044-.006-.032-.005h-.076l-.05.007-.025.004-.072.024h-.003l-.084.044-.022.016-.052.043-.02.02-.01.008-.143-1.034c-.04-.29-.302-.493-.584-.45-.284.04-.48.31-.44.603l.414 2.956c.033.24.22.424.452.453zm-9.812 3.92c.183.225.51.254.727.064.158-.136.357-.2.56-.182.14.014.272.065.383.148l.007.015c.084.188.267.308.468.308h.06c.2 0 .38-.12.467-.307l.007-.015c.11-.08.24-.132.38-.144.203-.017.403.047.56.183.22.19.543.16.73-.066.18-.225.152-.562-.067-.75-.368-.32-.834-.473-1.314-.43-.288.026-.56.12-.797.275-.238-.155-.51-.25-.797-.276-.48-.043-.946.11-1.314.43-.22.19-.247.526-.063.75zm27.31-.486h-4.413v-1.596c0-.35-.162-.658-.413-.852v-3.372l1.5.254 1.292 2.282c.066.115.173.202.3.24l1.158.355.147.02c.227 0 .43-.15.5-.38.08-.283-.076-.58-.35-.664l-.963-.29-1.31-2.315c-.077-.138-.21-.232-.36-.257l-1.91-.324v-4.884c0-.59-.462-1.068-1.032-1.068h-.768v-3.016c0-.295-.23-.533-.516-.533-.286 0-.516.24-.516.534v3.016h-.772v-3.017c0-.295-.23-.533-.514-.533-.285 0-.516.238-.516.533v3.016h-.73c-.573 0-1.035.476-1.035 1.065v2.69l-3.135-1.436-1.09-2.99c-.083-.23-.308-.37-.545-.342l-3.48.435-.17.053-1.963 1.014-1.673-.424c-.123-.03-.25-.015-.36.043l-2.947 1.556-.06.037-2.293 1.642c-.234.167-.293.5-.13.742.162.242.484.302.72.135l2.264-1.62 2.746-1.45 1.673.42c.12.03.244.016.354-.04l2.054-1.06 2.99-.374 1.02 2.807c.05.134.15.242.277.3l3.75 1.72v.945l-.157-.013c-.646 0-1.17.54-1.17 1.206v1.608c0 .666.524 1.208 1.17 1.208l.157-.013v.537c-.25.194-.414.503-.414.852v1.596h-3.116v-.663c0-.59-.463-1.068-1.033-1.068H11.54c-.57 0-1.033.48-1.033 1.067v4.103H8.52c-.286 0-.516.24-.516.535v2.13h-.85v-3.223c0-.294-.23-.532-.516-.532h-3.21c-.286 0-.516.238-.516.533v1.13h-.437c-.285 0-.517.238-.517.533 0 .293.232.532.517.532h.954c.28 0 .512-.24.512-.534v-1.13H6.12v3.223c0 .295.233.533.518.533h1.88c.286 0 .518-.24.518-.534v-2.13h1.467v4.653l-.194.01c-.31 0-.44-.055-.62-.13-.22-.09-.5-.2-1-.2s-.776.11-.997.2c-.182.075-.313.128-.62.128-.308 0-.44-.053-.62-.127-.222-.09-.497-.2-.998-.2-.502 0-.776.11-.997.2-.18.075-.314.128-.62.128s-.44-.054-.62-.128c-.22-.09-.497-.2-.998-.2-.502 0-.776.11-.997.2-.182.074-.313.127-.62.127-.286 0-.517.238-.517.53 0 .297.23.535.515.535.5 0 .777-.11.997-.2.183-.074.314-.127.62-.127s.44.053.622.127c.22.09.494.2.995.2.5 0 .776-.11.996-.2.184-.074.315-.127.62-.127s.44.053.623.127c.22.09.494.2.995.2.504 0 .778-.11.998-.2.183-.074.313-.127.62-.127.308 0 .44.053.622.127.22.09.496.2.997.2l.194-.007v1.696l.002.024H.542c-.285 0-.515.24-.515.534 0 .296.23.535.516.535h30.432l.206-.046c.475-.1.83-.53.83-1.046v-10.855c0-.59-.462-1.067-1.032-1.067zm-11.25-4.18c0 .077-.06.14-.136.14-.075 0-.136-.063-.136-.14v-1.608c0-.077.06-.14.136-.14.075 0 .136.063.136.14v1.608zm-3.467 6.313h3.1v8.724h-3.1v-8.72zm5.554-5.336v-7.514h2.273v8.056h-2.273v-.54zm2.685 2.676V148.5h-3.075v-9.79l-.023-.225v-1.372h3.098zm2.065 2.663h3.38v8.722h-3.38v-8.723zm-13.99-1.73h1.578v10.45h-1.578v-10.455z" fill="#206FAC"/><path d="M2.47 90.033c-.284 0-.516.24-.516.534v2.894c0 .298.232.537.517.537.29 0 .52-.24.52-.533v-.913h.405v.914c0 .295.23.534.516.534.285 0 .516-.24.516-.533V90.57c0-.294-.23-.533-.516-.533-.288 0-.518.24-.518.534v.917h-.405v-.913c0-.295-.23-.534-.516-.534zm5.242-.46c-.285 0-.516.237-.516.532V93c0 .294.23.532.516.532l.033-.004.034.004h.585c.285 0 .517-.238.517-.533 0-.298-.232-.537-.517-.537h-.14v-2.36c0-.296-.23-.534-.516-.534zm1.79.153c-.284 0-.515.24-.515.534v2.893c0 .295.23.534.516.534l.033-.004.033.004h.585c.285 0 .516-.24.516-.534 0-.294-.23-.534-.515-.534h-.14v-2.36c0-.298-.23-.537-.516-.537zm-3.668 4.022c.644 0 1.17-.54 1.17-1.207v-1.604c0-.666-.526-1.207-1.17-1.207s-1.17.54-1.17 1.206v1.608c0 .666.525 1.208 1.17 1.208zm-.136-2.815c0-.078.06-.14.136-.14.075 0 .136.062.136.14v1.608c0 .08-.06.14-.136.14-.075 0-.136-.06-.136-.14v-1.604zM17 94.516c.645 0 1.17-.542 1.17-1.207V91.7c0-.665-.524-1.206-1.17-1.206s-1.168.54-1.168 1.207v1.61c0 .667.524 1.21 1.17 1.21zm-.135-2.815c0-.073.06-.14.136-.14.08 0 .14.067.14.14v1.61c0 .08-.06.14-.136.14-.074 0-.135-.06-.135-.14V91.7zm-5.48 2.297c.286 0 .517-.24.517-.533V92.36l.602-1.597c.103-.274-.028-.583-.294-.69-.265-.107-.565.03-.668.303l-.156.413-.156-.416c-.103-.275-.403-.41-.67-.303-.265.107-.396.417-.293.69l.602 1.6v1.103c0 .295.23.534.512.534zm2.087.212l.06.003c.21 0 .402-.132.48-.34l.138-.364.14.365c.077.207.27.34.48.34l.058-.004c.233-.027.418-.213.452-.453l.413-2.956c.04-.29-.155-.56-.437-.603-.284-.042-.544.16-.585.452l-.14 1.035-.01-.01-.02-.018-.053-.042-.024-.017-.082-.043-.022-.008-.05-.016-.044-.006-.032-.005h-.076l-.05.007-.025.004-.072.024h-.003l-.084.044-.022.016-.052.043-.02.02-.01.008-.143-1.034c-.04-.29-.302-.493-.584-.45-.284.04-.48.31-.44.603l.414 2.956c.033.24.22.424.452.453zM3.66 98.13c.183.226.51.255.727.065.158-.136.357-.2.56-.182.14.015.272.066.383.15l.007.014c.084.188.267.308.468.308h.06c.2 0 .38-.12.467-.307l.007-.015c.11-.083.24-.135.38-.147.203-.017.403.047.56.183.22.19.543.16.73-.066.18-.224.152-.56-.067-.75-.368-.32-.834-.472-1.314-.43-.288.027-.56.12-.797.276-.238-.155-.51-.25-.797-.276-.48-.042-.946.11-1.314.43-.22.19-.247.527-.063.75zm27.31-.485h-4.413V96.05c0-.35-.162-.66-.413-.853v-3.372l1.5.254 1.292 2.28c.066.115.173.2.3.24l1.158.355.147.02c.227 0 .43-.15.5-.38.08-.283-.076-.58-.35-.664l-.963-.29-1.31-2.317c-.077-.138-.21-.232-.36-.257l-1.91-.324V85.86c0-.59-.462-1.067-1.032-1.067h-.768v-3.016c0-.295-.23-.533-.516-.533-.286 0-.516.24-.516.534v3.016h-.772v-3.02c0-.295-.23-.533-.514-.533-.285 0-.516.238-.516.533v3.015h-.73c-.573 0-1.035.477-1.035 1.066v2.69l-3.135-1.43-1.09-2.99c-.083-.23-.308-.372-.545-.343l-3.48.436-.17.052-1.963 1.014-1.673-.423c-.123-.03-.25-.016-.36.042l-2.95 1.554-.06.037-2.293 1.642c-.234.167-.293.5-.13.742.162.242.484.302.72.135L4.88 87.39l2.747-1.45 1.673.422c.12.03.244.015.354-.04l2.054-1.06 2.99-.375 1.02 2.808c.05.134.15.242.276.3l3.75 1.72v.945l-.157-.012c-.646 0-1.17.54-1.17 1.207v1.608c0 .665.524 1.207 1.17 1.207l.157-.013v.537c-.25.194-.414.503-.414.852v1.596h-3.116v-.664c0-.59-.463-1.067-1.033-1.067h-3.64c-.57 0-1.033.48-1.033 1.07v4.104H8.52c-.286 0-.516.24-.516.534v2.13h-.85v-3.223c0-.294-.23-.532-.516-.532h-3.21c-.286 0-.516.24-.516.534v1.13h-.437c-.285 0-.517.238-.517.533 0 .293.232.532.517.532h.954c.28 0 .512-.24.512-.533v-1.13H6.12v3.22c0 .296.233.534.518.534h1.88c.286 0 .518-.24.518-.534v-2.13h1.467v4.654l-.194.01c-.31 0-.44-.054-.62-.128-.22-.09-.5-.2-1-.2s-.776.11-.997.2c-.182.074-.313.127-.62.127-.308 0-.44-.054-.62-.128-.222-.09-.497-.2-.998-.2-.502 0-.776.11-.997.2-.18.074-.314.127-.62.127s-.44-.053-.62-.127c-.22-.09-.497-.2-.998-.2-.502 0-.776.11-.997.2-.182.074-.313.127-.62.127-.286 0-.517.238-.517.532 0 .295.23.533.515.533.5 0 .777-.11.997-.2.183-.074.314-.127.62-.127s.44.053.622.127c.22.09.494.2.995.2.5 0 .776-.11.996-.2.184-.074.315-.127.62-.127s.44.053.623.127c.22.09.494.2.995.2.504 0 .778-.11.998-.2.183-.074.313-.127.62-.127.308 0 .44.053.622.127.22.09.496.2.997.2l.194-.007v1.696l.002.023H.542c-.285 0-.515.24-.515.532 0 .296.23.535.516.535h30.432l.206-.046c.475-.1.83-.53.83-1.045v-10.86c0-.59-.462-1.066-1.032-1.066zm-11.25-4.18c0 .077-.06.14-.136.14-.075 0-.136-.063-.136-.14v-1.608c0-.077.06-.14.136-.14.075 0 .136.063.136.14v1.608zm-3.467 6.313h3.1v8.724h-3.1V99.78zm5.554-5.336v-7.516h2.273v8.056h-2.273v-.54zm2.685 2.674V108.5h-3.075v-9.79l-.023-.225v-1.372h3.098zm2.065 2.663h3.38v8.722h-3.38v-8.725zm-13.99-1.73h1.578v10.45h-1.578V98.043z" fill="#fff"/><path d="M2.47 50.033c-.284 0-.516.24-.516.534v2.894c0 .298.232.537.517.537.29 0 .52-.24.52-.533v-.913h.405v.914c0 .295.23.534.516.534.285 0 .516-.24.516-.533V50.57c0-.294-.23-.533-.516-.533-.288 0-.518.24-.518.534v.917h-.405v-.913c0-.295-.23-.534-.516-.534zm5.242-.46c-.285 0-.516.237-.516.532V53c0 .294.23.532.516.532l.033-.004.034.004h.585c.285 0 .517-.238.517-.533 0-.298-.232-.537-.517-.537h-.14v-2.36c0-.296-.23-.534-.516-.534zm1.79.153c-.284 0-.515.24-.515.534v2.893c0 .295.23.534.516.534l.033-.004.033.004h.585c.285 0 .516-.24.516-.534 0-.294-.23-.534-.515-.534h-.14v-2.36c0-.298-.23-.537-.516-.537zm-3.668 4.022c.644 0 1.17-.54 1.17-1.207v-1.604c0-.666-.526-1.207-1.17-1.207s-1.17.54-1.17 1.206v1.608c0 .666.525 1.208 1.17 1.208zm-.136-2.815c0-.078.06-.14.136-.14.075 0 .136.062.136.14v1.608c0 .08-.06.14-.136.14-.075 0-.136-.06-.136-.14v-1.604zM17 54.516c.645 0 1.17-.542 1.17-1.207V51.7c0-.665-.524-1.206-1.17-1.206s-1.168.54-1.168 1.207v1.61c0 .667.524 1.21 1.17 1.21zm-.135-2.815c0-.073.06-.14.136-.14.08 0 .14.067.14.14v1.61c0 .08-.06.14-.136.14-.074 0-.135-.06-.135-.14V51.7zm-5.48 2.297c.286 0 .517-.24.517-.533V52.36l.602-1.597c.103-.274-.028-.583-.294-.69-.265-.107-.565.03-.668.303l-.156.413-.156-.416c-.103-.275-.403-.41-.67-.303-.265.107-.396.417-.293.69l.602 1.6v1.103c0 .295.23.534.512.534zm2.087.212l.06.003c.21 0 .402-.132.48-.34l.138-.364.14.365c.077.207.27.34.48.34l.058-.004c.233-.027.418-.213.452-.453l.413-2.956c.04-.29-.155-.56-.437-.603-.284-.042-.544.16-.585.452l-.14 1.035-.01-.01-.02-.018-.053-.042-.024-.017-.082-.043-.022-.008-.05-.016-.044-.006-.032-.005h-.076l-.05.007-.025.004-.072.024h-.003l-.084.044-.022.016-.052.043-.02.02-.01.008-.143-1.034c-.04-.29-.302-.493-.584-.45-.284.04-.48.31-.44.603l.414 2.956c.033.24.22.424.452.453zM3.66 58.13c.183.226.51.255.727.065.158-.136.357-.2.56-.182.14.015.272.066.383.15l.007.014c.084.188.267.308.468.308h.06c.2 0 .38-.12.467-.307l.007-.015c.11-.083.24-.135.38-.147.203-.017.403.047.56.183.22.19.543.16.73-.066.18-.224.152-.56-.067-.75-.368-.32-.834-.472-1.314-.43-.288.027-.56.12-.797.276-.238-.155-.51-.25-.797-.276-.48-.042-.946.11-1.314.43-.22.19-.247.527-.063.75zm27.31-.485h-4.413V56.05c0-.35-.162-.66-.413-.853v-3.372l1.5.254 1.292 2.28c.066.115.173.2.3.24l1.158.355.147.02c.227 0 .43-.15.5-.38.08-.283-.076-.58-.35-.664l-.963-.29-1.31-2.317c-.077-.138-.21-.232-.36-.257l-1.91-.324V45.86c0-.59-.462-1.067-1.032-1.067h-.768v-3.016c0-.295-.23-.533-.516-.533-.286 0-.516.24-.516.534v3.016h-.772v-3.02c0-.295-.23-.533-.514-.533-.285 0-.516.238-.516.533v3.015h-.73c-.573 0-1.035.477-1.035 1.066v2.69l-3.135-1.43-1.09-2.99c-.083-.23-.308-.372-.545-.343l-3.48.436-.17.052-1.963 1.014-1.673-.423c-.123-.03-.25-.016-.36.042l-2.95 1.554-.06.037-2.293 1.642c-.234.167-.293.5-.13.742.162.242.484.302.72.135L4.88 47.39l2.747-1.45 1.673.422c.12.03.244.015.354-.04l2.054-1.06 2.99-.375 1.02 2.808c.05.134.15.242.276.3l3.75 1.72v.945l-.157-.012c-.646 0-1.17.54-1.17 1.207v1.608c0 .665.524 1.207 1.17 1.207l.157-.013v.537c-.25.194-.414.503-.414.852v1.596h-3.116v-.664c0-.59-.463-1.067-1.033-1.067h-3.64c-.57 0-1.033.48-1.033 1.07v4.104H8.52c-.286 0-.516.24-.516.534v2.13h-.85V60.52c0-.294-.23-.532-.516-.532h-3.21c-.286 0-.516.238-.516.533v1.13h-.437c-.285 0-.517.24-.517.536 0 .294.232.533.517.533h.954c.28 0 .512-.24.512-.534v-1.13H6.12v3.223c0 .294.233.532.518.532h1.88c.286 0 .518-.24.518-.533v-2.13h1.467v4.65l-.194.01c-.31 0-.44-.054-.62-.128-.22-.09-.5-.2-1-.2s-.776.11-.997.2c-.182.074-.313.127-.62.127-.308 0-.44-.057-.62-.13-.222-.09-.497-.2-.998-.2-.502 0-.776.11-.997.2-.18.073-.314.126-.62.126s-.44-.054-.62-.128c-.22-.09-.497-.2-.998-.2-.502 0-.776.11-.997.2-.182.073-.313.126-.62.126-.286 0-.517.238-.517.532 0 .294.23.532.515.532.5 0 .777-.11.997-.2.183-.074.314-.127.62-.127s.44.054.622.128c.22.09.494.2.995.2.5 0 .776-.11.996-.2.184-.074.315-.127.62-.127s.44.054.623.128c.22.09.494.2.995.2.504 0 .778-.11.998-.2.183-.074.313-.127.62-.127.308 0 .44.054.622.128.22.09.496.2.997.2l.194-.007v1.697l.002.023H.542c-.285 0-.515.24-.515.534 0 .295.23.534.516.534h30.432l.206-.045c.475-.1.83-.53.83-1.045v-10.85c0-.59-.462-1.067-1.032-1.067zm-11.25-4.18c0 .077-.06.14-.136.14-.075 0-.136-.063-.136-.14v-1.608c0-.077.06-.14.136-.14.075 0 .136.063.136.14v1.608zm-3.467 6.313h3.1V68.5h-3.1v-8.724zm5.554-5.336v-7.516h2.273v8.056h-2.273v-.54zm2.685 2.674V68.5h-3.075v-9.79l-.023-.225v-1.372h3.098zm2.065 2.663h3.38v8.72h-3.38v-8.724zm-13.99-1.73h1.578V68.5h-1.578V58.043z" fill="#67737B"/><path d="M2.47 10.033c-.284 0-.516.24-.516.534v2.894c0 .298.232.537.517.537.29 0 .52-.24.52-.533v-.913h.405v.914c0 .295.23.534.516.534.285 0 .516-.24.516-.533V10.57c0-.294-.23-.533-.516-.533-.288 0-.518.24-.518.534v.917h-.405v-.913c0-.295-.23-.534-.516-.534zm5.242-.46c-.285 0-.516.237-.516.532V13c0 .294.23.532.516.532l.033-.004.034.004h.585c.285 0 .517-.238.517-.533 0-.298-.232-.537-.517-.537h-.14v-2.36c0-.296-.23-.534-.516-.534zm1.79.153c-.284 0-.515.24-.515.534v2.893c0 .295.23.534.516.534l.033-.004.033.004h.585c.285 0 .516-.24.516-.534 0-.294-.23-.534-.515-.534h-.14v-2.36c0-.298-.23-.537-.516-.537zm-3.668 4.022c.644 0 1.17-.54 1.17-1.207v-1.604c0-.666-.526-1.207-1.17-1.207s-1.17.54-1.17 1.206v1.608c0 .666.525 1.208 1.17 1.208zm-.136-2.815c0-.078.06-.14.136-.14.075 0 .136.062.136.14v1.608c0 .08-.06.14-.136.14-.075 0-.136-.06-.136-.14v-1.604zM17 14.516c.645 0 1.17-.542 1.17-1.207V11.7c0-.665-.524-1.206-1.17-1.206s-1.168.54-1.168 1.207v1.61c0 .667.524 1.21 1.17 1.21zm-.135-2.815c0-.073.06-.14.136-.14.08 0 .14.067.14.14v1.61c0 .08-.06.14-.136.14-.074 0-.135-.06-.135-.14V11.7zm-5.48 2.297c.286 0 .517-.24.517-.533V12.36l.602-1.597c.103-.274-.028-.583-.294-.69-.265-.107-.565.03-.668.303l-.156.413-.156-.416c-.103-.275-.403-.41-.67-.303-.265.107-.396.417-.293.69l.602 1.6v1.103c0 .295.23.534.512.534zm2.087.212l.06.003c.21 0 .402-.132.48-.34l.138-.364.14.365c.077.207.27.34.48.34l.058-.004c.233-.027.418-.213.452-.453l.413-2.956c.04-.29-.155-.56-.437-.603-.284-.042-.544.16-.585.452l-.14 1.035-.01-.01-.02-.018-.053-.042-.024-.017-.082-.043-.022-.008-.05-.016-.044-.006-.032-.005h-.076l-.05.007-.025.004-.072.024h-.003l-.084.044-.022.016-.052.043-.02.02-.01.008-.143-1.034c-.04-.29-.302-.493-.584-.45-.284.04-.48.31-.44.603l.414 2.956c.033.24.22.424.452.453zM3.66 18.13c.183.226.51.255.727.065.158-.136.357-.2.56-.182.14.015.272.066.383.15l.007.014c.084.188.267.308.468.308h.06c.2 0 .38-.12.467-.307l.007-.015c.11-.083.24-.135.38-.147.203-.017.403.047.56.183.22.19.543.16.73-.066.18-.224.152-.56-.067-.75-.368-.32-.834-.472-1.314-.43-.288.027-.56.12-.797.276-.238-.155-.51-.25-.797-.276-.48-.042-.946.11-1.314.43-.22.19-.247.527-.063.75zm27.31-.485h-4.413V16.05c0-.35-.162-.66-.413-.853v-3.372l1.5.254 1.292 2.28c.066.115.173.2.3.24l1.158.355.147.02c.227 0 .43-.15.5-.38.08-.283-.076-.58-.35-.664l-.963-.29-1.31-2.317c-.077-.138-.21-.232-.36-.257l-1.91-.324V5.86c0-.59-.462-1.067-1.032-1.067h-.768v-3.02c0-.295-.23-.533-.516-.533-.286 0-.516.236-.516.53v3.02h-.772V1.772c0-.295-.23-.533-.514-.533-.285 0-.516.235-.516.53v3.02h-.73c-.573 0-1.035.476-1.035 1.065v2.69L16.61 7.11l-1.09-2.99c-.083-.23-.308-.372-.545-.343l-3.48.435-.17.052-1.963 1.014-1.673-.423c-.125-.03-.25-.015-.36.043L4.382 6.456l-.06.037L2.03 8.135c-.232.167-.29.5-.13.742.164.242.486.302.72.135L4.885 7.39 7.63 5.94l1.672.422c.12.03.244.015.354-.04l2.054-1.06 2.99-.375 1.02 2.808c.05.134.148.242.274.3l3.75 1.72v.945l-.157-.012c-.645 0-1.17.54-1.17 1.207v1.608c0 .665.525 1.207 1.17 1.207l.158-.013v.537c-.25.194-.414.503-.414.852v1.596h-3.113v-.664c0-.59-.463-1.067-1.033-1.067H11.54c-.57 0-1.034.48-1.034 1.07v4.104H8.52c-.286 0-.516.24-.516.534v2.13h-.85V20.52c0-.294-.23-.532-.516-.532h-3.21c-.286 0-.516.238-.516.533v1.13h-.437c-.285 0-.517.24-.517.536 0 .294.232.533.517.533h.954c.28 0 .512-.24.512-.534v-1.13H6.12v3.223c0 .294.233.532.518.532h1.88c.286 0 .518-.24.518-.533v-2.13h1.467v4.65l-.194.01c-.31 0-.44-.054-.62-.128-.22-.09-.5-.2-1-.2s-.776.11-.997.2c-.182.074-.313.127-.62.127-.308 0-.44-.057-.62-.13-.222-.09-.497-.2-.998-.2-.502 0-.776.11-.997.2-.18.073-.314.126-.62.126s-.44-.054-.62-.128c-.22-.09-.497-.2-.998-.2-.502 0-.776.11-.997.2-.182.073-.313.126-.62.126-.286 0-.517.238-.517.532 0 .294.23.532.515.532.5 0 .777-.11.997-.2.183-.074.314-.127.62-.127s.44.054.622.128c.22.09.494.2.995.2.5 0 .776-.11.996-.2.184-.074.315-.127.62-.127s.44.054.623.128c.22.09.494.2.995.2.504 0 .778-.11.998-.2.183-.074.313-.127.62-.127.308 0 .44.054.622.128.22.09.496.2.997.2l.194-.007v1.697l.002.023H.542c-.285 0-.515.24-.515.534 0 .295.23.534.516.534h30.432l.206-.045c.475-.1.83-.53.83-1.045v-10.85c0-.59-.462-1.067-1.032-1.067zm-11.25-4.18c0 .077-.06.14-.136.14-.075 0-.136-.063-.136-.14v-1.608c0-.077.06-.14.136-.14.075 0 .136.063.136.14v1.608zm-3.467 6.313h3.1V28.5h-3.1v-8.724zm5.554-5.336V6.924h2.273v8.056h-2.273v-.54zm2.685 2.674V28.5h-3.075v-9.79l-.023-.225v-1.372h3.098zm2.065 2.663h3.38v8.72h-3.38v-8.724zm-13.99-1.73h1.578V28.5h-1.578V18.043z" fill="#3A434E"/></g></svg>