<svg width="32" height="232" viewBox="0 0 32 232" xmlns="http://www.w3.org/2000/svg" xmlns:sketch="http://www.bohemiancoding.com/sketch/ns"><title>new-york-city</title><desc>Created with Sketch.</desc><g sketch:type="MSPage" fill="none"><g sketch:type="MSShapeGroup"><path d="M5.159 131.364h4.165c.258 0 .468-.219.468-.491 0-.271-.21-.491-.468-.491h-4.165c-.259 0-.469.22-.469.491s.21.491.469.491zm2.943-1.325h4.164c.259 0 .468-.22.468-.491 0-.27-.209-.49-.468-.49h-4.164c-.259 0-.468.22-.468.49 0 .271.21.491.468.491zm22.869 18.218h-1.569c-.259 0-.468.22-.468.491v.339h-.843v-.795c0-.27-.209-.49-.468-.49h-2.111c-.024-.247-.224-.439-.465-.439h-.992v-4.22c0-.542-.419-.981-.936-.981h-.269v-2.449c0-.542-.42-.981-.937-.981h-.725l-.084-1.728c-.012-.261-.218-.466-.467-.466h-1.103v-3.859c0-.271-.21-.491-.468-.491h-.761v-.637c0-.271-.209-.491-.468-.491h-.671l-.409-1.605-.016-.272h2.039l-.028.269c0 .359.147.7.405.938.218.202.498.313.789.313h4.456c.658 0 1.194-.561 1.194-1.251 0-.689-.536-1.251-1.194-1.251h-.315c.05-.15.079-.311.079-.479 0-.806-.626-1.461-1.395-1.461h-6.201l-.106-1.82c-.012-.205-.144-.373-.321-.434v-3.509c0-.271-.21-.491-.468-.491-.259 0-.468.22-.468.491v3.509c-.178.061-.309.229-.321.434l-.106 1.82h-.38c-.339 0-.666.13-.921.366-.3.278-.473.677-.473 1.095 0 .418.173.818.473 1.095.255.236.583.366.921.366h.209l-.016.272-.409 1.605h-.671c-.259 0-.468.22-.468.491v.637h-.761c-.259 0-.468.219-.468.491v3.859h-1.104c-.249 0-.455.205-.467.466l-.084 1.728h-.724c-.518 0-.937.44-.937.981v2.449h-.269c-.518 0-.937.44-.937.981v4.319h-3.814c-.259 0-.468.22-.468.491v1.142h-2.085c-.259 0-.468.22-.468.491v1.337c0 .271.21.491.468.491.259 0 .468-.22.468-.491v-.847h2.086c.259 0 .468-.219.468-.49v-1.142h3.346v2.552c0 .542.419.981.937.981h14.889c.517 0 .936-.439.936-.981v-2.651h.526c.025.246.224.438.466.438h2.108v.794c0 .271.21.491.468.491h1.78c.259 0 .469-.22.469-.491v-.338h.631v1.618c0 .27.21.49.469.49s.468-.22.468-.49v-2.109c0-.271-.209-.491-.468-.491zm-19.815-10.739h9.035l.058 1.212h-9.152l.058-1.212zm1.595-4.351h5.846v3.369h-1.052v-2.412c0-.155-.07-.292-.177-.381-.081-.067-.18-.109-.292-.109-.259 0-.468.219-.468.491v2.412h-.466v-2.412c0-.271-.21-.491-.468-.491-.259 0-.468.219-.468.491v2.412h-.466v-2.412c0-.271-.21-.491-.468-.491-.111 0-.211.042-.291.109-.108.09-.177.226-.177.381v2.412h-1.052v-3.369zm1.229-1.128h3.387v.147h-3.387v-.147zm-.04-4.32c0-.139.055-.266.156-.36.06-.054.16-.12.302-.12h.323l-.056.959h-.266c-.142 0-.242-.065-.301-.12-.101-.093-.156-.221-.156-.359zm8.829-.48c.252 0 .457.215.457.48 0 .264-.205.479-.457.479-.259 0-.468.22-.468.491h-.002c0 .271.21.491.468.491h1.633c.142 0 .257.121.257.269 0 .149-.115.269-.257.269h-4.456c-.08 0-.136-.036-.169-.067-.033-.03-.088-.097-.088-.202 0-.105.055-.171.088-.202.034-.03.09-.067.169-.067h.002c.259 0 .468-.22.468-.491s-.21-.491-.468-.491h-3.265l-.056-.959h6.143zm-7.195 1.45l.099-1.696.071 1.205.028.491.015.248.004.063h-.234l.003-.063.015-.248zm-.149 1.292h.495l.274 1.076h-1.042l.273-1.076zm-5.055 10.711h10.604v1.467h-2.308c-.518 0-.937.44-.937.981v6.871h-.636v-8.051c0-.271-.209-.49-.468-.49s-.468.219-.468.49v8.051h-.97v-8.051c0-.271-.21-.49-.469-.49s-.468.219-.468.49v8.051h-.636v-6.871c0-.542-.419-.981-.936-.981h-2.308v-1.467zm-.936 9.32h-.269v-5.889h2.576v5.889h-.855v-5.104l-.012-.108c-.047-.217-.23-.379-.451-.382l-.006-.001c-.209 0-.384.144-.444.342l-.024.149v5.104h-.515zm12.746 0h-.842v-5.104c0-.199-.112-.368-.273-.445l-.195-.046c-.259 0-.468.219-.468.491v5.104h-.798v-5.889h2.577v5.889z" fill="#206FAC"/><path d="M5.159 91.364h4.165c.258 0 .468-.219.468-.491 0-.271-.21-.491-.468-.491h-4.165c-.259 0-.469.22-.469.491s.21.491.469.491zm2.943-1.325h4.164c.259 0 .468-.22.468-.491 0-.27-.209-.49-.468-.49h-4.164c-.259 0-.468.22-.468.49 0 .271.21.491.468.491zm22.869 18.218h-1.569c-.259 0-.468.22-.468.491v.339h-.843v-.795c0-.27-.209-.49-.468-.49h-2.111c-.024-.247-.224-.439-.465-.439h-.992v-4.22c0-.542-.419-.981-.936-.981h-.269v-2.449c0-.542-.42-.981-.937-.981h-.725l-.084-1.728c-.012-.261-.218-.466-.467-.466h-1.103v-3.859c0-.271-.21-.491-.468-.491h-.761v-.637c0-.271-.209-.491-.468-.491h-.671l-.409-1.605-.016-.272h2.039l-.028.269c0 .359.147.7.405.938.218.202.498.313.789.313h4.456c.658 0 1.194-.561 1.194-1.251 0-.689-.536-1.251-1.194-1.251h-.315c.05-.15.079-.311.079-.479 0-.806-.626-1.461-1.395-1.461h-6.201l-.106-1.82c-.012-.205-.144-.373-.321-.434v-3.509c0-.271-.21-.491-.468-.491-.259 0-.468.22-.468.491v3.509c-.178.061-.309.229-.321.434l-.106 1.82h-.38c-.339 0-.666.13-.921.366-.3.278-.473.677-.473 1.095 0 .418.173.818.473 1.095.255.236.583.366.921.366h.209l-.016.272-.409 1.605h-.671c-.259 0-.468.22-.468.491v.637h-.761c-.259 0-.468.219-.468.491v3.859h-1.104c-.249 0-.455.205-.467.466l-.084 1.728h-.724c-.518 0-.937.44-.937.981v2.449h-.269c-.518 0-.937.44-.937.981v4.319h-3.814c-.259 0-.468.22-.468.491v1.142h-2.085c-.259 0-.468.22-.468.491v1.337c0 .271.21.491.468.491.259 0 .468-.22.468-.491v-.847h2.086c.259 0 .468-.219.468-.49v-1.142h3.346v2.552c0 .542.419.981.937.981h14.889c.517 0 .936-.439.936-.981v-2.651h.526c.025.246.224.438.466.438h2.108v.794c0 .271.21.491.468.491h1.78c.259 0 .469-.22.469-.491v-.338h.631v1.618c0 .27.21.49.469.49s.468-.22.468-.49v-2.109c0-.271-.209-.491-.468-.491zm-19.815-10.739h9.035l.058 1.212h-9.152l.058-1.212zm1.595-4.351h5.846v3.369h-1.052v-2.412c0-.155-.07-.292-.177-.381-.081-.067-.18-.109-.292-.109-.259 0-.468.219-.468.491v2.412h-.466v-2.412c0-.271-.21-.491-.468-.491-.259 0-.468.219-.468.491v2.412h-.466v-2.412c0-.271-.21-.491-.468-.491-.111 0-.211.042-.291.109-.108.09-.177.226-.177.381v2.412h-1.052v-3.369zm1.229-1.128h3.387v.147h-3.387v-.147zm-.04-4.32c0-.139.055-.266.156-.36.06-.054.16-.12.302-.12h.323l-.056.959h-.266c-.142 0-.242-.065-.301-.12-.101-.093-.156-.221-.156-.359zm8.829-.48c.252 0 .457.215.457.48 0 .264-.205.479-.457.479-.259 0-.468.22-.468.491h-.002c0 .271.21.491.468.491h1.633c.142 0 .257.121.257.269 0 .149-.115.269-.257.269h-4.456c-.08 0-.136-.036-.169-.067-.033-.03-.088-.097-.088-.202 0-.105.055-.171.088-.202.034-.03.09-.067.169-.067h.002c.259 0 .468-.22.468-.491s-.21-.491-.468-.491h-3.265l-.056-.959h6.143zm-7.195 1.45l.099-1.696.071 1.205.028.491.015.248.004.063h-.234l.003-.063.015-.248zm-.149 1.292h.495l.274 1.076h-1.042l.273-1.076zm-5.055 10.711h10.604v1.467h-2.308c-.518 0-.937.44-.937.981v6.871h-.636v-8.051c0-.271-.209-.49-.468-.49s-.468.219-.468.49v8.051h-.97v-8.051c0-.271-.21-.49-.469-.49s-.468.219-.468.49v8.051h-.636v-6.871c0-.542-.419-.981-.936-.981h-2.308v-1.467zm-.936 9.32h-.269v-5.889h2.576v5.889h-.855v-5.104l-.012-.108c-.047-.217-.23-.379-.451-.382l-.006-.001c-.209 0-.384.144-.444.342l-.024.149v5.104h-.515zm12.746 0h-.842v-5.104c0-.199-.112-.368-.273-.445l-.195-.046c-.259 0-.468.219-.468.491v5.104h-.798v-5.889h2.577v5.889z" fill="#fff"/><path d="M5.159 51.364h4.165c.258 0 .468-.219.468-.491 0-.271-.21-.491-.468-.491h-4.165c-.259 0-.469.22-.469.491s.21.491.469.491zm2.943-1.325h4.164c.259 0 .468-.22.468-.491 0-.27-.209-.49-.468-.49h-4.164c-.259 0-.468.22-.468.49 0 .271.21.491.468.491zm22.869 18.218h-1.569c-.259 0-.468.22-.468.491v.339h-.843v-.795c0-.27-.209-.49-.468-.49h-2.111c-.024-.247-.224-.439-.465-.439h-.992v-4.22c0-.542-.419-.981-.936-.981h-.269v-2.449c0-.542-.42-.981-.937-.981h-.725l-.084-1.728c-.012-.261-.218-.466-.467-.466h-1.103v-3.859c0-.271-.21-.491-.468-.491h-.761v-.637c0-.271-.209-.491-.468-.491h-.671l-.409-1.605-.016-.272h2.039l-.028.269c0 .359.147.7.405.938.218.202.498.313.789.313h4.456c.658 0 1.194-.561 1.194-1.251 0-.689-.536-1.251-1.194-1.251h-.315c.05-.15.079-.311.079-.479 0-.806-.626-1.461-1.395-1.461h-6.201l-.106-1.82c-.012-.205-.144-.373-.321-.434v-3.509c0-.271-.21-.491-.468-.491-.259 0-.468.22-.468.491v3.509c-.178.061-.309.229-.321.434l-.106 1.82h-.38c-.339 0-.666.13-.921.366-.3.278-.473.677-.473 1.095 0 .418.173.818.473 1.095.255.236.583.366.921.366h.209l-.016.272-.409 1.605h-.671c-.259 0-.468.22-.468.491v.637h-.761c-.259 0-.468.219-.468.491v3.859h-1.104c-.249 0-.455.205-.467.466l-.084 1.728h-.724c-.518 0-.937.44-.937.981v2.449h-.269c-.518 0-.937.44-.937.981v4.319h-3.814c-.259 0-.468.22-.468.491v1.142h-2.085c-.259 0-.468.22-.468.491v1.337c0 .271.21.491.468.491.259 0 .468-.22.468-.491v-.847h2.086c.259 0 .468-.219.468-.49v-1.142h3.346v2.552c0 .542.419.981.937.981h14.889c.517 0 .936-.439.936-.981v-2.651h.526c.025.246.224.438.466.438h2.108v.794c0 .271.21.491.468.491h1.78c.259 0 .469-.22.469-.491v-.338h.631v1.618c0 .27.21.49.469.49s.468-.22.468-.49v-2.109c0-.271-.209-.491-.468-.491zm-19.815-10.739h9.035l.058 1.212h-9.152l.058-1.212zm1.595-4.351h5.846v3.369h-1.052v-2.412c0-.155-.07-.292-.177-.381-.081-.067-.18-.109-.292-.109-.259 0-.468.219-.468.491v2.412h-.466v-2.412c0-.271-.21-.491-.468-.491-.259 0-.468.219-.468.491v2.412h-.466v-2.412c0-.271-.21-.491-.468-.491-.111 0-.211.042-.291.109-.108.09-.177.226-.177.381v2.412h-1.052v-3.369zm1.229-1.128h3.387v.147h-3.387v-.147zm-.04-4.32c0-.139.055-.266.156-.36.06-.054.16-.12.302-.12h.323l-.056.959h-.266c-.142 0-.242-.065-.301-.12-.101-.093-.156-.221-.156-.359zm8.829-.48c.252 0 .457.215.457.48 0 .264-.205.479-.457.479-.259 0-.468.22-.468.491h-.002c0 .271.21.491.468.491h1.633c.142 0 .257.121.257.269 0 .149-.115.269-.257.269h-4.456c-.08 0-.136-.036-.169-.067-.033-.03-.088-.097-.088-.202 0-.105.055-.171.088-.202.034-.03.09-.067.169-.067h.002c.259 0 .468-.22.468-.491s-.21-.491-.468-.491h-3.265l-.056-.959h6.143zm-7.195 1.45l.099-1.696.071 1.205.028.491.015.248.004.063h-.234l.003-.063.015-.248zm-.149 1.292h.495l.274 1.076h-1.042l.273-1.076zm-5.055 10.711h10.604v1.467h-2.308c-.518 0-.937.44-.937.981v6.871h-.636v-8.051c0-.271-.209-.49-.468-.49s-.468.219-.468.49v8.051h-.97v-8.051c0-.271-.21-.49-.469-.49s-.468.219-.468.49v8.051h-.636v-6.871c0-.542-.419-.981-.936-.981h-2.308v-1.467zm-.936 9.32h-.269v-5.889h2.576v5.889h-.855v-5.104l-.012-.108c-.047-.217-.23-.379-.451-.382l-.006-.001c-.209 0-.384.144-.444.342l-.024.149v5.104h-.515zm12.746 0h-.842v-5.104c0-.199-.112-.368-.273-.445l-.195-.046c-.259 0-.468.219-.468.491v5.104h-.798v-5.889h2.577v5.889z" fill="#67737B"/><path d="M5.159 11.364h4.165c.258 0 .468-.219.468-.491 0-.271-.21-.491-.468-.491h-4.165c-.259 0-.469.22-.469.491s.21.491.469.491zm2.943-1.325h4.164c.259 0 .468-.22.468-.491 0-.27-.209-.49-.468-.49h-4.164c-.259 0-.468.22-.468.49 0 .271.21.491.468.491zm22.869 18.218h-1.569c-.259 0-.468.22-.468.491v.339h-.843v-.795c0-.27-.209-.49-.468-.49h-2.111c-.024-.247-.224-.439-.465-.439h-.992v-4.22c0-.542-.419-.981-.936-.981h-.269v-2.449c0-.542-.42-.981-.937-.981h-.725l-.084-1.728c-.012-.261-.218-.466-.467-.466h-1.103v-3.859c0-.271-.21-.491-.468-.491h-.761v-.637c0-.271-.209-.491-.468-.491h-.671l-.409-1.605-.016-.272h2.039l-.028.269c0 .359.147.7.405.938.218.202.498.313.789.313h4.456c.658 0 1.194-.561 1.194-1.251 0-.689-.536-1.251-1.194-1.251h-.315c.05-.15.079-.311.079-.479 0-.806-.626-1.461-1.395-1.461h-6.201l-.106-1.82c-.012-.205-.144-.373-.321-.434v-3.509c0-.271-.21-.491-.468-.491-.259 0-.468.22-.468.491v3.509c-.178.061-.309.229-.321.434l-.106 1.82h-.38c-.339 0-.666.13-.921.366-.3.278-.473.677-.473 1.095 0 .418.173.818.473 1.095.255.236.583.366.921.366h.209l-.016.272-.409 1.605h-.671c-.259 0-.468.22-.468.491v.637h-.761c-.259 0-.468.219-.468.491v3.859h-1.104c-.249 0-.455.205-.467.466l-.084 1.728h-.724c-.518 0-.937.44-.937.981v2.449h-.269c-.518 0-.937.44-.937.981v4.319h-3.814c-.259 0-.468.22-.468.491v1.142h-2.085c-.259 0-.468.22-.468.491v1.337c0 .271.21.491.468.491.259 0 .468-.22.468-.491v-.847h2.086c.259 0 .468-.219.468-.49v-1.142h3.346v2.552c0 .542.419.981.937.981h14.889c.517 0 .936-.439.936-.981v-2.651h.526c.025.246.224.438.466.438h2.108v.794c0 .271.21.491.468.491h1.78c.259 0 .469-.22.469-.491v-.338h.631v1.618c0 .27.21.49.469.49s.468-.22.468-.49v-2.109c0-.271-.209-.491-.468-.491zm-19.815-10.739h9.035l.058 1.212h-9.152l.058-1.212zm1.595-4.351h5.846v3.369h-1.052v-2.412c0-.155-.07-.292-.177-.381-.081-.067-.18-.109-.292-.109-.259 0-.468.219-.468.491v2.412h-.466v-2.412c0-.271-.21-.491-.468-.491-.259 0-.468.219-.468.491v2.412h-.466v-2.412c0-.271-.21-.491-.468-.491-.111 0-.211.042-.291.109-.108.09-.177.226-.177.381v2.412h-1.052v-3.369zm1.229-1.128h3.387v.147h-3.387v-.147zm-.04-4.32c0-.139.055-.266.156-.36.06-.054.16-.12.302-.12h.323l-.056.959h-.266c-.142 0-.242-.065-.301-.12-.101-.093-.156-.221-.156-.359zm8.829-.48c.252 0 .457.215.457.48 0 .264-.205.479-.457.479-.259 0-.468.22-.468.491h-.002c0 .271.21.491.468.491h1.633c.142 0 .257.121.257.269 0 .149-.115.269-.257.269h-4.456c-.08 0-.136-.036-.169-.067-.033-.03-.088-.097-.088-.202 0-.105.055-.171.088-.202.034-.03.09-.067.169-.067h.002c.259 0 .468-.22.468-.491s-.21-.491-.468-.491h-3.265l-.056-.959h6.143zm-7.195 1.45l.099-1.696.071 1.205.028.491.015.248.004.063h-.234l.003-.063.015-.248zm-.149 1.292h.495l.274 1.076h-1.042l.273-1.076zm-5.055 10.711h10.604v1.467h-2.308c-.518 0-.937.44-.937.981v6.871h-.636v-8.051c0-.271-.209-.49-.468-.49s-.468.219-.468.49v8.051h-.97v-8.051c0-.271-.21-.49-.469-.49s-.468.219-.468.49v8.051h-.636v-6.871c0-.542-.419-.981-.936-.981h-2.308v-1.467zm-.936 9.32h-.269v-5.889h2.576v5.889h-.855v-5.104l-.012-.108c-.047-.217-.23-.379-.451-.382l-.006-.001c-.209 0-.384.144-.444.342l-.024.149v5.104h-.515zm12.746 0h-.842v-5.104c0-.199-.112-.368-.273-.445l-.195-.046c-.259 0-.468.219-.468.491v5.104h-.798v-5.889h2.577v5.889z" fill="#3A434E"/></g></g></svg>