<svg width="32" height="232" viewBox="0 0 32 232" xmlns="http://www.w3.org/2000/svg"><title>new-york-city</title><desc>Created with Sketch.</desc><g fill="none"><path d="M5.16 131.364h4.164c.258 0 .468-.22.468-.49 0-.272-.21-.492-.468-.492H5.16c-.26 0-.47.22-.47.49s.21.492.47.492zM8.1 130.04h4.164c.26 0 .468-.22.468-.492 0-.27-.21-.49-.468-.49H8.102c-.26 0-.468.22-.468.49s.21.49.468.49zm22.87 18.217H29.4c-.26 0-.468.22-.468.49v.34h-.843v-.795c0-.27-.208-.49-.467-.49h-2.11c-.025-.247-.225-.44-.466-.44h-.992v-4.22c0-.54-.42-.98-.936-.98h-.27v-2.45c0-.54-.42-.98-.937-.98h-.725l-.084-1.728c-.012-.26-.218-.466-.467-.466h-1.103v-3.86c0-.27-.21-.49-.468-.49h-.76v-.637c0-.27-.21-.49-.47-.49h-.67l-.41-1.605-.015-.272h2.04l-.028.27c0 .358.147.7.405.937.218.202.498.313.79.313H24.4c.658 0 1.194-.56 1.194-1.25s-.536-1.252-1.194-1.252h-.315c.05-.15.08-.31.08-.478 0-.806-.627-1.46-1.396-1.46h-6.2l-.106-1.82c-.012-.206-.144-.374-.32-.435v-3.51c0-.27-.21-.49-.47-.49-.258 0-.467.22-.467.49v3.51c-.178.06-.31.23-.32.434l-.107 1.82h-.38c-.34 0-.666.13-.92.367-.3.278-.474.677-.474 1.095 0 .418.173.818.473 1.095.254.236.582.366.92.366h.21l-.017.272-.41 1.605h-.67c-.26 0-.468.22-.468.49v.638h-.76c-.26 0-.47.22-.47.49v3.86h-1.103c-.25 0-.455.205-.467.466l-.084 1.728h-.723c-.518 0-.937.44-.937.98v2.45h-.27c-.517 0-.936.44-.936.98v4.32H3.48c-.26 0-.468.22-.468.49v1.143H.927c-.26 0-.468.22-.468.49v1.338c0 .27.21.49.467.49.26 0 .468-.22.468-.49v-.847H3.48c.26 0 .47-.22.47-.49v-1.142h3.345v2.552c0 .542.42.98.937.98h14.89c.516 0 .935-.438.935-.98v-2.65h.526c.025.245.224.437.466.437h2.107v.794c0 .27.21.49.468.49h1.78c.26 0 .47-.22.47-.49v-.338h.63v1.617c0 .27.21.49.47.49s.467-.22.467-.49v-2.11c0-.27-.21-.49-.468-.49zm-19.816-10.74h9.035l.06 1.213h-9.153l.058-1.212zm1.595-4.35h5.847v3.37h-1.052v-2.413c0-.155-.07-.292-.177-.38-.08-.068-.18-.11-.292-.11-.26 0-.468.22-.468.49v2.413h-.466v-2.412c0-.27-.21-.49-.468-.49-.26 0-.468.218-.468.49v2.412h-.466v-2.412c0-.27-.21-.49-.468-.49-.11 0-.21.04-.29.108-.11.09-.178.226-.178.38v2.413h-1.052v-3.37zm1.23-1.128h3.387v.146H13.98v-.147zm-.04-4.32c0-.14.055-.267.156-.36.06-.055.16-.12.302-.12h.323l-.055.958H14.4c-.143 0-.243-.065-.302-.12-.1-.093-.156-.22-.156-.36zm8.83-.48c.25 0 .456.214.456.48 0 .263-.205.478-.457.478-.26 0-.47.22-.47.49 0 .272.21.492.467.492H24.4c.142 0 .257.12.257.27 0 .148-.115.268-.257.268h-4.456c-.08 0-.136-.036-.17-.067-.032-.03-.087-.096-.087-.2 0-.106.055-.172.088-.203.034-.03.09-.067.17-.067.26 0 .47-.22.47-.49s-.21-.492-.47-.492h-3.264l-.055-.96h6.143zm-7.196 1.45l.1-1.697.07 1.205.028.49.015.25.004.062h-.233l.003-.063.015-.248zm-.15 1.29h.496l.274 1.077h-1.042l.273-1.076zm-5.054 10.712h10.604v1.467h-2.308c-.518 0-.937.44-.937.98v6.87h-.637v-8.05c0-.27-.21-.49-.468-.49s-.468.22-.468.49v8.05h-.97v-8.05c0-.27-.21-.49-.47-.49s-.467.22-.467.49v8.05h-.636v-6.87c0-.542-.42-.98-.936-.98H10.37v-1.468zm-.936 9.32h-.27v-5.89h2.577v5.89h-.854v-5.104l-.012-.108c-.047-.217-.23-.38-.45-.382h-.007c-.21 0-.384.143-.444.34l-.024.15v5.104h-.516zm12.746 0h-.842v-5.104c0-.2-.112-.368-.273-.445l-.195-.046c-.26 0-.468.22-.468.49v5.105h-.798v-5.89h2.577v5.89z" fill="#206FAC"/><path d="M5.16 91.364h4.164c.258 0 .468-.22.468-.49 0-.272-.21-.492-.468-.492H5.16c-.26 0-.47.22-.47.49s.21.492.47.492zM8.1 90.04h4.164c.26 0 .468-.22.468-.492 0-.27-.21-.49-.468-.49H8.102c-.26 0-.468.22-.468.49s.21.49.468.49zm22.87 18.217H29.4c-.26 0-.468.22-.468.49v.34h-.843v-.795c0-.27-.208-.49-.467-.49h-2.11c-.025-.247-.225-.44-.466-.44h-.992v-4.22c0-.54-.42-.98-.936-.98h-.27v-2.45c0-.54-.42-.98-.937-.98h-.725l-.084-1.728c-.012-.26-.218-.466-.467-.466h-1.103v-3.86c0-.27-.21-.49-.468-.49h-.76v-.637c0-.27-.21-.49-.47-.49h-.67l-.41-1.605-.015-.272h2.04l-.028.27c0 .358.147.7.405.937.218.202.498.313.79.313H24.4c.658 0 1.194-.56 1.194-1.25S25.06 88.2 24.402 88.2h-.315c.05-.15.08-.31.08-.478 0-.806-.627-1.46-1.396-1.46h-6.2l-.106-1.82c-.012-.206-.144-.374-.32-.435v-3.51c0-.27-.21-.49-.47-.49-.258 0-.467.22-.467.49v3.51c-.178.06-.31.23-.32.434l-.107 1.82h-.38c-.34 0-.666.13-.92.367-.3.278-.474.677-.474 1.095 0 .418.173.818.473 1.095.254.236.582.366.92.366h.21l-.017.272-.41 1.605h-.67c-.26 0-.468.22-.468.49v.638h-.76c-.26 0-.47.22-.47.49v3.86h-1.103c-.25 0-.455.205-.467.466l-.084 1.728h-.723c-.518 0-.937.44-.937.98v2.45h-.27c-.517 0-.936.44-.936.98v4.32H3.48c-.26 0-.468.22-.468.49v1.143H.927c-.26 0-.468.22-.468.49v1.338c0 .27.21.49.467.49.26 0 .468-.22.468-.49v-.847H3.48c.26 0 .47-.22.47-.49v-1.142h3.345v2.552c0 .542.42.98.937.98h14.89c.516 0 .935-.438.935-.98v-2.65h.526c.025.245.224.437.466.437h2.107v.794c0 .27.21.49.468.49h1.78c.26 0 .47-.22.47-.49v-.338h.63v1.617c0 .27.21.49.47.49s.467-.22.467-.49v-2.11c0-.27-.21-.49-.468-.49zm-19.816-10.74h9.035l.06 1.213h-9.153l.058-1.212zm1.595-4.35h5.847v3.37h-1.052v-2.413c0-.155-.07-.292-.177-.38-.08-.068-.18-.11-.292-.11-.26 0-.468.22-.468.49v2.413h-.466v-2.412c0-.27-.21-.49-.468-.49-.26 0-.468.218-.468.49v2.412h-.466v-2.412c0-.27-.21-.49-.468-.49-.11 0-.21.04-.29.108-.11.09-.178.226-.178.38v2.413h-1.052v-3.37zm1.23-1.128h3.387v.146H13.98v-.147zm-.04-4.32c0-.14.055-.267.156-.36.06-.055.16-.12.302-.12h.323l-.055.958H14.4c-.143 0-.243-.065-.302-.12-.1-.093-.156-.22-.156-.36zm8.83-.48c.25 0 .456.214.456.48 0 .263-.205.478-.457.478-.26 0-.47.22-.47.49 0 .272.21.492.467.492H24.4c.142 0 .257.12.257.27 0 .148-.115.268-.257.268h-4.456c-.08 0-.136-.036-.17-.067-.032-.03-.087-.096-.087-.2 0-.106.055-.172.088-.203.034-.03.09-.067.17-.067.26 0 .47-.22.47-.49s-.21-.492-.47-.492h-3.264l-.055-.96h6.143zm-7.196 1.45l.1-1.697.07 1.205.028.49.015.25.004.062h-.233l.003-.063.015-.248zm-.15 1.29h.496l.274 1.077h-1.042l.273-1.076zm-5.054 10.712h10.604v1.467h-2.308c-.518 0-.937.44-.937.98v6.87h-.637v-8.05c0-.27-.21-.49-.468-.49s-.468.22-.468.49v8.05h-.97v-8.05c0-.27-.21-.49-.47-.49s-.467.22-.467.49v8.05h-.636v-6.87c0-.542-.42-.98-.936-.98H10.37v-1.468zm-.936 9.32h-.27v-5.89h2.577v5.89h-.854v-5.104l-.012-.108c-.047-.217-.23-.38-.45-.382h-.007c-.21 0-.384.143-.444.34l-.024.15v5.104h-.516zm12.746 0h-.842v-5.104c0-.2-.112-.368-.273-.445l-.195-.046c-.26 0-.468.22-.468.49v5.105h-.798v-5.89h2.577v5.89z" fill="#fff"/><path d="M5.16 51.364h4.164c.258 0 .468-.22.468-.49 0-.272-.21-.492-.468-.492H5.16c-.26 0-.47.22-.47.49s.21.492.47.492zM8.1 50.04h4.164c.26 0 .468-.22.468-.492 0-.27-.21-.49-.468-.49H8.102c-.26 0-.468.22-.468.49s.21.49.468.49zm22.87 18.217H29.4c-.26 0-.468.22-.468.49v.34h-.843v-.795c0-.27-.208-.49-.467-.49h-2.11c-.025-.247-.225-.44-.466-.44h-.992v-4.22c0-.54-.42-.98-.936-.98h-.27v-2.45c0-.54-.42-.98-.937-.98h-.725l-.084-1.728c-.012-.26-.218-.466-.467-.466h-1.103v-3.86c0-.27-.21-.49-.468-.49h-.76v-.637c0-.27-.21-.49-.47-.49h-.67l-.41-1.605-.015-.272h2.04l-.028.27c0 .358.147.7.405.937.218.202.498.313.79.313H24.4c.658 0 1.194-.56 1.194-1.25S25.06 48.2 24.402 48.2h-.315c.05-.15.08-.31.08-.478 0-.806-.627-1.46-1.396-1.46h-6.2l-.106-1.82c-.012-.206-.144-.374-.32-.435v-3.51c0-.27-.21-.49-.47-.49-.258 0-.467.22-.467.49v3.51c-.178.06-.31.23-.32.434l-.107 1.82h-.38c-.34 0-.666.13-.92.367-.3.278-.474.677-.474 1.095 0 .418.173.818.473 1.095.254.236.582.366.92.366h.21l-.017.272-.41 1.605h-.67c-.26 0-.468.22-.468.49v.638h-.76c-.26 0-.47.22-.47.49v3.86h-1.103c-.25 0-.455.205-.467.466l-.084 1.728h-.723c-.518 0-.937.44-.937.98v2.45h-.27c-.517 0-.936.44-.936.98v4.32H3.48c-.26 0-.468.22-.468.49v1.143H.927c-.26 0-.468.22-.468.49v1.338c0 .27.21.49.467.49.26 0 .468-.22.468-.49v-.847H3.48c.26 0 .47-.22.47-.49v-1.142h3.345v2.552c0 .542.42.98.937.98h14.89c.516 0 .935-.438.935-.98v-2.65h.526c.025.245.224.437.466.437h2.107v.794c0 .27.21.49.468.49h1.78c.26 0 .47-.22.47-.49v-.338h.63v1.617c0 .27.21.49.47.49s.467-.22.467-.49v-2.11c0-.27-.21-.49-.468-.49zm-19.816-10.74h9.035l.06 1.213h-9.153l.058-1.212zm1.595-4.35h5.847v3.37h-1.052v-2.413c0-.155-.07-.292-.177-.38-.08-.068-.18-.11-.292-.11-.26 0-.468.22-.468.49v2.413h-.466v-2.412c0-.27-.21-.49-.468-.49-.26 0-.468.218-.468.49v2.412h-.466v-2.412c0-.27-.21-.49-.468-.49-.11 0-.21.04-.29.108-.11.09-.178.226-.178.38v2.413h-1.052v-3.37zm1.23-1.128h3.387v.146H13.98v-.147zm-.04-4.32c0-.14.055-.267.156-.36.06-.055.16-.12.302-.12h.323l-.055.958H14.4c-.143 0-.243-.065-.302-.12-.1-.093-.156-.22-.156-.36zm8.83-.48c.25 0 .456.214.456.48 0 .263-.205.478-.457.478-.26 0-.47.22-.47.49 0 .272.21.492.467.492H24.4c.142 0 .257.12.257.27 0 .148-.115.268-.257.268h-4.456c-.08 0-.136-.036-.17-.067-.032-.03-.087-.096-.087-.2 0-.106.055-.172.088-.203.034-.03.09-.067.17-.067.26 0 .47-.22.47-.49s-.21-.492-.47-.492h-3.264l-.055-.96h6.143zm-7.196 1.45l.1-1.697.07 1.205.028.49.015.25.004.062h-.233l.003-.063.015-.248zm-.15 1.29h.496l.274 1.077h-1.042l.273-1.076zM10.37 60.693h10.604v1.467h-2.308c-.518 0-.937.44-.937.98v6.87h-.637v-8.05c0-.27-.21-.49-.468-.49s-.468.22-.468.49v8.05h-.97v-8.05c0-.27-.21-.49-.47-.49s-.467.22-.467.49v8.05h-.636v-6.87c0-.542-.42-.98-.936-.98H10.37V60.69zm-.936 9.32h-.27v-5.89h2.577v5.89h-.854v-5.104l-.012-.108c-.047-.217-.23-.38-.45-.382h-.007c-.21 0-.384.143-.444.34l-.024.15v5.104h-.516zm12.746 0h-.842v-5.104c0-.2-.112-.368-.273-.445l-.195-.046c-.26 0-.468.22-.468.49v5.105h-.798v-5.89h2.577v5.89z" fill="#67737B"/><path d="M5.16 11.364h4.164c.258 0 .468-.22.468-.49 0-.272-.21-.492-.468-.492H5.16c-.26 0-.47.22-.47.49s.21.492.47.492zM8.1 10.04h4.164c.26 0 .468-.22.468-.492 0-.27-.21-.49-.468-.49H8.102c-.26 0-.468.22-.468.49s.21.49.468.49zm22.87 18.217H29.4c-.26 0-.468.22-.468.49v.34h-.843v-.795c0-.27-.208-.49-.467-.49h-2.11c-.025-.247-.225-.44-.466-.44h-.992v-4.22c0-.54-.42-.98-.936-.98h-.27v-2.45c0-.54-.42-.98-.937-.98h-.725l-.084-1.728c-.012-.26-.218-.466-.467-.466h-1.103v-3.86c0-.27-.21-.49-.468-.49h-.76v-.637c0-.27-.21-.49-.47-.49h-.67l-.41-1.605-.015-.272h2.04l-.028.27c0 .358.147.7.405.937.218.202.498.313.79.313H24.4c.658 0 1.194-.56 1.194-1.25S25.06 8.2 24.402 8.2h-.315c.05-.15.08-.31.08-.478 0-.806-.627-1.46-1.396-1.46h-6.2l-.106-1.82c-.012-.206-.144-.374-.32-.435V.497c0-.27-.21-.49-.47-.49-.258 0-.467.22-.467.49v3.51c-.178.06-.31.23-.32.434l-.107 1.82h-.38c-.34 0-.666.13-.92.367-.3.278-.474.677-.474 1.095 0 .418.173.818.473 1.095.254.236.582.366.92.366h.21l-.017.272-.41 1.605h-.67c-.26 0-.468.22-.468.49v.638h-.76c-.26 0-.47.22-.47.49v3.86h-1.103c-.25 0-.455.205-.467.466l-.084 1.728h-.723c-.518 0-.937.44-.937.98v2.45h-.27c-.517 0-.936.44-.936.98v4.32H3.48c-.26 0-.468.22-.468.49v1.143H.927c-.26 0-.468.22-.468.49v1.338c0 .27.21.49.467.49.26 0 .468-.22.468-.49v-.847H3.48c.26 0 .47-.22.47-.49v-1.142h3.345v2.552c0 .542.42.98.937.98h14.89c.516 0 .935-.438.935-.98v-2.65h.526c.025.245.224.437.466.437h2.107v.794c0 .27.21.49.468.49h1.78c.26 0 .47-.22.47-.49v-.338h.63v1.617c0 .27.21.49.47.49s.467-.22.467-.49v-2.11c0-.27-.21-.49-.468-.49zm-19.816-10.74h9.035l.06 1.213h-9.153l.058-1.212zm1.595-4.35h5.847v3.37h-1.052v-2.413c0-.155-.07-.292-.177-.38-.08-.068-.18-.11-.292-.11-.26 0-.468.22-.468.49v2.413h-.466v-2.412c0-.27-.21-.49-.468-.49-.26 0-.468.218-.468.49v2.412h-.466v-2.412c0-.27-.21-.49-.468-.49-.11 0-.21.04-.29.108-.11.09-.178.226-.178.38v2.413h-1.052v-3.37zm1.23-1.128h3.387v.146H13.98v-.147zm-.04-4.32c0-.14.055-.267.156-.36.06-.055.16-.12.302-.12h.323l-.055.958H14.4c-.143 0-.243-.065-.302-.12-.1-.093-.156-.22-.156-.36zm8.83-.48c.25 0 .456.214.456.48 0 .263-.205.478-.457.478-.26 0-.47.22-.47.49 0 .272.21.492.467.492H24.4c.142 0 .257.12.257.27 0 .148-.115.268-.257.268h-4.456c-.08 0-.136-.036-.17-.067-.032-.03-.087-.096-.087-.2 0-.106.055-.172.088-.203.034-.03.09-.067.17-.067.26 0 .47-.22.47-.49s-.21-.492-.47-.492h-3.264l-.055-.96h6.143zm-7.196 1.45l.1-1.697.07 1.205.028.49.015.25.004.062h-.233l.003-.063.015-.248zm-.15 1.29h.496l.274 1.077h-1.042l.273-1.076zM10.37 20.693h10.604v1.467h-2.308c-.518 0-.937.44-.937.98v6.87h-.637v-8.05c0-.27-.21-.49-.468-.49s-.468.22-.468.49v8.05h-.97v-8.05c0-.27-.21-.49-.47-.49s-.467.22-.467.49v8.05h-.636v-6.87c0-.542-.42-.98-.936-.98H10.37V20.69zm-.936 9.32h-.27v-5.89h2.577v5.89h-.854v-5.104l-.012-.108c-.047-.217-.23-.38-.45-.382h-.007c-.21 0-.384.143-.444.34l-.024.15v5.104h-.516zm12.746 0h-.842v-5.104c0-.2-.112-.368-.273-.445l-.195-.046c-.26 0-.468.22-.468.49v5.105h-.798v-5.89h2.577v5.89z" fill="#3A434E"/></g></svg>