<svg width="32" height="232" viewBox="0 0 32 232" xmlns="http://www.w3.org/2000/svg"><desc>Created with Sketch.</desc><g fill="none"><path d="M30.948 149.374h-1.64V143.5h1.155c.29 0 .526-.24.526-.535 0-.295-.24-.534-.53-.534h-1.156v-4.05c0-.29-.235-.53-.526-.53h-3.62c-.196 0-.374.11-.465.28-.09.175-.08.385.026.55l.75 1.14-.75 1.142c-.108.165-.117.376-.026.55.09.173.27.28.463.28h3.096v.64H25.29c-.29 0-.525.24-.525.536v.794h-.683l-.874-16.306c-.03-.567-.49-1.01-1.05-1.01h-.194v-3.31c0-.296-.235-.535-.526-.535-.29 0-.525.24-.525.533v3.31h-1.69v-3.31c0-.295-.234-.534-.524-.534-.29 0-.53.24-.53.532v3.31h-.194c-.56 0-1.02.445-1.05 1.01l-.652 12.147h-.894v-1.765c0-.464-.292-.86-.7-1.006v-5.296c0-.4-.215-.747-.534-.93v-5.372c0-.556-.417-1.01-.95-1.063v-3.14c0-.295-.235-.535-.525-.535-.29 0-.523.24-.523.535v3.132h-.32v-1.134c0-.293-.234-.532-.524-.532-.29 0-.525.24-.525.534v1.135h-.318v-3.133c0-.295-.236-.535-.526-.535-.29 0-.525.24-.525.534v3.14c-.535.05-.95.507-.95 1.063v5.372c-.32.183-.537.53-.537.93v2.35H3.98c-.29 0-.526.24-.526.534 0 .294.235.533.525.533h3.944v1.878c-.407.15-.7.543-.7 1.008v4.592h-2.63c-.29 0-.527.24-.527.533v6.41h-.625l-.12-9.103 1.316 1.167c.096.088.22.13.342.13.146 0 .292-.06.396-.182.19-.222.167-.56-.05-.753l-1.82-1.61 1.58-1.852c.19-.222.17-.56-.05-.753-.22-.194-.55-.17-.74.052l-1.585 1.85-1.82-1.61c-.217-.197-.55-.174-.74.05-.19.222-.166.56.053.753l1.82 1.61-1.583 1.852c-.19.22-.167.56.052.752.1.088.222.13.345.13.146 0 .292-.06.396-.183l.988-1.156-.116 8.85H1.052c-.58 0-1.05.477-1.05 1.067s.47 1.07 1.05 1.07H30.95c.58 0 1.05-.48 1.05-1.07 0-.59-.47-1.068-1.05-1.068zm-6.565 0l-.014-.265c.43-.485.692-1.125.692-1.827 0-.71-.27-1.38-.758-1.89l-.014-.014-.044-.045-.086-.082-.022-.428h1.15c.29 0 .525-.24.525-.535v-.792h2.442v5.875H24.38zm-14.357-16.77h2.558v4.167h-2.558v-4.162zm11.48 16.04l-.045-.028c-.8-.44-1.71-.675-2.63-.675-.3 0-.6.03-.895.08-.607.1-1.197.3-1.738.6l-.045.027-.18.105-.184.08c-.13.047-.264.076-.4.088l-.137.008c-.89 0-1.61-.734-1.61-1.637 0-.43.16-.832.455-1.14l.04-.04.088-.08.016-.014c.316-.28.704-.524 1.15-.727.19-.088.39-.168.6-.24.64-.22 1.363-.363 2.127-.42.234-.015.473-.024.714-.024 1.19 0 2.313.21 3.23.59.533.22.997.495 1.36.818l.005.002.012.01.09.084.035.032c.297.308.46.715.46 1.144 0 .903-.723 1.637-1.61 1.637l-.15-.01c-.2-.018-.39-.072-.57-.165l-.18-.106zm-2.593-18.934l.413.42-.46.47.047-.89zm2.347 5.824l-1.19 1.21-1.192-1.21 1.19-1.212 1.192 1.212zm.1 4.035l-1.29 1.31-1.292-1.314 1.29-1.314 1.292 1.313zm.19 4.33c-.804-.23-1.69-.355-2.608-.36l1.126-1.15 1.482 1.51zm.375-1.13l-1.114-1.136 1-1.017.118 2.15zm-.235-4.378l-.88-.894.79-.8.09 1.695zm-.223-4.16l-.657-.67.588-.598.068 1.267zm-.195-3.635l-.462-.47.414-.42.048.89zm-.258 1.247l-.946.963-.946-.962.946-.963.946.963zm-1.69 1.718l-.655.668.064-1.266.588.6zm0 3.934l-.878.893.09-1.698.79.802zm0 4.136l-1.113 1.134.12-2.15 1 1.018zm-3.278 2.278c-.228.067-.45.14-.663.22v-3.466h.838l-.17 3.247zm10.093-3.193l.395-.605c.118-.18.118-.413 0-.593l-.4-.61h2.118v1.807H26.14zm-5.296-12.14l-.78.795-.78-.794h1.56zM10.558 126.3h1.486v4.165H10.56V126.3zm-5.443 17.2h2.11v5.873h-2.11V143.5zm4.21 5.874v-10.468h3.956v6.557c-.45.5-.695 1.144-.695 1.823 0 .702.265 1.342.697 1.824v.264H9.326zm8.53 0l.014-.26c.31-.068.63-.105.953-.105.604 0 1.204.123 1.758.362h-2.726zM2.33 133.354h4.744c.29 0 .525-.24.525-.534 0-.295-.24-.535-.53-.535H2.33c-.184 0-.333-.152-.333-.338 0-.186.15-.338.332-.338.29 0 .52-.24.52-.538 0-.295-.234-.534-.524-.534-.763 0-1.383.63-1.383 1.406s.62 1.406 1.382 1.406zm22.47 1.868h3.28c.29 0 .526-.24.526-.534 0-.295-.235-.535-.525-.535H24.8c-.29 0-.526.24-.526.535 0 .295.235.534.525.534zm1.64-1.478h1.845c.29 0 .525-.24.525-.534 0-.295-.235-.535-.525-.535H26.44c-.29 0-.525.24-.525.535 0 .295.235.534.525.534zm-8.063 11.78l-.316.02c-.74.053-1.46.182-2.12.382-.19.057-.375.12-.554.187l-.374.154c-.265.12-.387.434-.27.704.086.2.28.32.48.32l.164-.03.047-.01.448-.178c.646-.233 1.367-.387 2.128-.452l.415-.026c.29-.01.513-.26.5-.553-.01-.295-.256-.523-.545-.513zm1.59.016h-.14c-.29 0-.524.24-.524.534 0 .295.235.534.525.534h.14c.29 0 .526-.24.526-.534 0-.295-.235-.534-.526-.534z" fill="#206FAC"/><path d="M30.948 109.374h-1.64V103.5h1.155c.29 0 .526-.24.526-.535 0-.295-.24-.534-.53-.534h-1.156v-4.05c0-.29-.235-.53-.526-.53h-3.62c-.196 0-.374.11-.465.28-.09.175-.08.385.026.55l.75 1.14-.75 1.142c-.108.165-.117.376-.026.55.09.173.27.28.463.28h3.096v.64H25.29c-.29 0-.525.24-.525.536v.794h-.683l-.874-16.306c-.03-.567-.49-1.01-1.05-1.01h-.194v-3.31c0-.296-.235-.535-.526-.535-.29 0-.525.24-.525.533v3.31h-1.69v-3.31c0-.295-.234-.534-.524-.534-.29 0-.53.24-.53.532v3.31h-.194c-.56 0-1.02.445-1.05 1.01l-.65 12.148h-.894v-1.763c0-.464-.293-.86-.7-1.006v-5.294c0-.4-.216-.747-.535-.93v-5.372c0-.556-.418-1.01-.95-1.063v-3.136c0-.295-.236-.535-.526-.535-.29 0-.524.24-.524.534v3.133h-.32V83.03c0-.294-.235-.533-.525-.533-.29 0-.524.24-.524.534v1.138h-.318v-3.133c0-.295-.236-.535-.526-.535-.29 0-.525.24-.525.534v3.138c-.534.05-.95.508-.95 1.064v5.372c-.32.183-.536.53-.536.93v2.35H3.98c-.29 0-.526.24-.526.534 0 .294.235.533.525.533h3.944v1.878c-.407.15-.7.543-.7 1.008v4.595h-2.63c-.29 0-.527.24-.527.535v6.41h-.625l-.12-9.104 1.316 1.167c.096.087.22.13.342.13.146 0 .292-.06.396-.183.19-.222.167-.56-.05-.753l-1.82-1.61 1.58-1.854c.19-.222.168-.56-.052-.753-.22-.194-.55-.17-.74.052l-1.584 1.85-1.82-1.61c-.218-.196-.55-.173-.74.05-.19.223-.167.56.052.754l1.82 1.61-1.583 1.852c-.19.222-.167.56.052.753.1.09.222.13.345.13.146 0 .292-.06.396-.182l.988-1.155-.116 8.85H1.052c-.58 0-1.05.48-1.05 1.07 0 .59.47 1.07 1.05 1.07H30.95c.58 0 1.05-.48 1.05-1.07 0-.59-.47-1.07-1.05-1.07zm-6.565 0l-.014-.265c.43-.485.692-1.125.692-1.827 0-.71-.27-1.38-.758-1.89l-.014-.014-.044-.045-.086-.082-.022-.428h1.15c.29 0 .525-.24.525-.535v-.792h2.442v5.875H24.38zm-14.357-16.77h2.558v4.167h-2.558V92.61zm11.48 16.04l-.045-.028c-.8-.44-1.71-.675-2.63-.675-.3 0-.6.03-.895.08-.607.1-1.197.3-1.738.6l-.045.027-.18.105-.184.08c-.13.047-.264.076-.4.088l-.137.008c-.89 0-1.61-.734-1.61-1.637 0-.43.16-.832.455-1.14l.04-.04.088-.08.016-.014c.316-.28.704-.524 1.15-.727.19-.088.39-.168.6-.24.64-.22 1.363-.363 2.127-.42.234-.015.473-.024.714-.024 1.19 0 2.313.21 3.23.59.533.22.997.495 1.36.818l.005.002.012.01.09.084.035.032c.297.308.46.715.46 1.144 0 .903-.723 1.637-1.61 1.637l-.15-.01c-.2-.018-.39-.072-.57-.165l-.18-.106zM18.913 89.71l.413.42-.46.47.047-.89zm2.347 5.824l-1.19 1.21-1.192-1.21 1.19-1.212 1.192 1.212zm.1 4.035l-1.29 1.31-1.292-1.314 1.29-1.314 1.292 1.313zm.19 4.33c-.804-.23-1.69-.355-2.608-.36l1.126-1.15 1.482 1.51zm.375-1.13l-1.114-1.136 1-1.017.118 2.15zm-.235-4.378l-.88-.894.79-.8.09 1.695zm-.223-4.16l-.657-.67.588-.598.068 1.267zm-.195-3.635l-.462-.47.414-.42.048.89zm-.258 1.247l-.946.963-.946-.962.946-.963.946.963zm-1.69 1.718l-.655.668.064-1.266.588.6zm0 3.934l-.878.893.09-1.698.79.802zm0 4.136l-1.113 1.134.12-2.15 1 1.018zm-3.278 2.278c-.228.067-.45.14-.663.22v-3.466h.838l-.17 3.247zm10.093-3.193l.395-.605c.118-.18.118-.413 0-.593l-.4-.61h2.118v1.807H26.14zm-5.296-12.14l-.78.795-.78-.794h1.56zM10.56 86.304h1.487v4.165H10.56V86.3zM5.116 103.5h2.11v5.873h-2.11V103.5zm4.21 5.874V98.906h3.956v6.557c-.45.5-.697 1.144-.697 1.823 0 .702.265 1.342.697 1.824v.264H9.325zm8.53 0l.014-.26c.313-.068.633-.105.955-.105.604 0 1.204.123 1.758.362h-2.727zM2.33 93.354h4.744c.29 0 .525-.24.525-.534 0-.295-.24-.535-.53-.535H2.33c-.184 0-.333-.152-.333-.338 0-.186.15-.338.332-.338.29 0 .52-.24.52-.538 0-.295-.234-.534-.524-.534-.763 0-1.383.63-1.383 1.406s.62 1.406 1.382 1.406zm22.47 1.868h3.28c.29 0 .526-.24.526-.534 0-.295-.235-.535-.525-.535H24.8c-.29 0-.526.24-.526.535 0 .295.235.534.525.534zm1.64-1.478h1.845c.29 0 .525-.24.525-.534 0-.295-.235-.535-.525-.535H26.44c-.29 0-.525.24-.525.535 0 .295.235.534.525.534zm-8.063 11.78l-.316.02c-.74.053-1.46.182-2.12.382-.19.057-.375.12-.554.187l-.374.154c-.265.12-.387.434-.27.704.086.2.28.32.48.32l.164-.03.047-.01.448-.178c.646-.233 1.367-.387 2.128-.452l.415-.026c.29-.01.513-.26.5-.553-.01-.295-.256-.523-.545-.513zm1.59.016h-.14c-.29 0-.524.24-.524.534 0 .295.235.534.525.534h.14c.29 0 .526-.24.526-.534 0-.295-.235-.534-.526-.534z" fill="#fff"/><path d="M30.948 69.374h-1.64V63.5h1.155c.29 0 .526-.24.526-.535 0-.295-.24-.534-.53-.534h-1.156v-4.05c0-.29-.235-.53-.526-.53h-3.62c-.196 0-.374.11-.465.28-.09.175-.08.385.026.55l.75 1.14-.75 1.142c-.108.165-.117.376-.026.55.09.173.27.28.463.28h3.096v.64H25.29c-.29 0-.525.24-.525.536v.794h-.683l-.874-16.306c-.03-.567-.49-1.01-1.05-1.01h-.194v-3.31c0-.296-.235-.535-.526-.535-.29 0-.525.24-.525.533v3.31h-1.69v-3.31c0-.295-.234-.534-.524-.534-.29 0-.53.24-.53.532v3.31h-.194c-.56 0-1.02.445-1.05 1.01l-.65 12.148h-.894v-1.763c0-.464-.293-.86-.7-1.006v-5.294c0-.4-.216-.747-.535-.93v-5.372c0-.556-.418-1.01-.95-1.063v-3.136c0-.295-.236-.535-.526-.535-.29 0-.524.24-.524.534v3.133h-.32V43.03c0-.294-.235-.533-.525-.533-.29 0-.524.24-.524.534v1.138h-.318v-3.133c0-.295-.236-.535-.526-.535-.29 0-.525.24-.525.534v3.138c-.534.05-.95.508-.95 1.064v5.372c-.32.183-.536.53-.536.93v2.35H3.98c-.29 0-.526.24-.526.534 0 .294.235.533.525.533h3.944v1.878c-.407.15-.7.543-.7 1.008v4.595h-2.63c-.29 0-.527.24-.527.535v6.41h-.625l-.12-9.104L4.64 61.44c.097.087.22.13.343.13.146 0 .292-.06.396-.183.19-.222.165-.56-.05-.753l-1.82-1.61 1.58-1.854c.19-.222.166-.56-.054-.753-.22-.194-.55-.17-.74.052l-1.584 1.85-1.82-1.61c-.218-.198-.55-.175-.74.05-.19.22-.167.56.052.752l1.82 1.61L.44 60.974c-.19.222-.166.56.053.753.1.087.222.13.345.13.145 0 .29-.06.395-.184l.988-1.155-.116 8.85H1.052c-.58 0-1.05.48-1.05 1.07 0 .59.47 1.07 1.05 1.07H30.95c.58 0 1.05-.48 1.05-1.07 0-.59-.47-1.07-1.05-1.07zm-6.565 0l-.014-.265c.43-.485.692-1.125.692-1.827 0-.71-.27-1.38-.758-1.89l-.014-.014-.044-.045-.086-.082-.022-.428h1.15c.29 0 .525-.24.525-.535v-.79h2.442v5.875H24.38zm-14.357-16.77h2.558v4.167h-2.558V52.61zm11.48 16.04l-.045-.028c-.8-.44-1.71-.675-2.63-.675-.3 0-.6.03-.895.08-.607.1-1.197.3-1.738.6l-.045.027-.18.105-.184.08c-.13.047-.264.076-.4.088l-.137.008c-.89 0-1.61-.734-1.61-1.637 0-.43.16-.832.455-1.14l.04-.04.088-.08.016-.014c.316-.28.704-.524 1.15-.727.19-.088.39-.168.6-.24.64-.22 1.363-.363 2.127-.42.234-.015.473-.024.714-.024 1.19 0 2.313.21 3.23.59.533.22.997.495 1.36.818l.005.002.012.01.09.084.035.032c.297.308.46.715.46 1.144 0 .903-.723 1.637-1.61 1.637l-.15-.01c-.2-.018-.39-.072-.57-.165l-.18-.106zM18.913 49.71l.413.42-.46.47.047-.89zm2.347 5.824l-1.19 1.21-1.192-1.21 1.19-1.212 1.192 1.212zm.1 4.035l-1.29 1.31-1.292-1.314 1.29-1.314 1.292 1.313zm.19 4.33c-.804-.23-1.69-.355-2.608-.36l1.126-1.15 1.482 1.51zm.375-1.13l-1.114-1.136 1-1.017.118 2.15zm-.235-4.378l-.88-.894.79-.8.09 1.695zm-.223-4.16l-.657-.67.588-.598.068 1.267zm-.195-3.635l-.462-.47.414-.42.048.89zm-.258 1.247l-.946.963-.946-.962.946-.963.946.963zm-1.69 1.718l-.655.668.064-1.266.588.6zm0 3.934l-.878.893.09-1.698.79.802zm0 4.136L18.21 62.77l.118-2.15 1 1.018zm-3.278 2.278c-.228.067-.45.14-.663.22v-3.46h.838l-.17 3.247zm10.094-3.19l.398-.605c.118-.18.118-.413 0-.593l-.4-.607h2.118v1.806H26.14zm-5.293-12.14l-.78.795-.78-.794h1.56zM10.56 46.304h1.487v4.165H10.56V46.3zM5.116 63.5h2.11v5.873h-2.11V63.5zm4.21 5.874V58.906h3.956v6.557c-.45.5-.697 1.144-.697 1.823 0 .702.265 1.342.697 1.824v.264H9.325zm8.53 0l.014-.26c.313-.068.633-.105.955-.105.604 0 1.204.123 1.758.362h-2.727zM2.33 53.354h4.744c.29 0 .525-.24.525-.534 0-.295-.24-.535-.53-.535H2.33c-.184 0-.333-.152-.333-.338 0-.186.15-.338.332-.338.29 0 .52-.24.52-.538 0-.295-.234-.534-.524-.534-.763 0-1.383.63-1.383 1.406s.62 1.406 1.382 1.406zm22.47 1.868h3.28c.29 0 .526-.24.526-.534 0-.295-.235-.535-.525-.535H24.8c-.29 0-.526.24-.526.535 0 .295.235.534.525.534zm1.64-1.478h1.845c.29 0 .525-.24.525-.534 0-.295-.235-.535-.525-.535H26.44c-.29 0-.525.24-.525.535 0 .295.235.534.525.534zm-8.063 11.78l-.316.02c-.74.053-1.46.182-2.12.382-.19.057-.375.12-.554.187l-.374.154c-.265.12-.387.434-.27.704.086.2.28.32.48.32l.164-.03.047-.01.448-.178c.646-.233 1.367-.387 2.128-.452l.415-.026c.29-.01.513-.26.5-.553-.01-.295-.256-.523-.545-.513zm1.59.016h-.14c-.29 0-.524.24-.524.534 0 .295.235.534.525.534h.14c.29 0 .526-.24.526-.534 0-.295-.235-.534-.526-.534z" fill="#67737B"/><path d="M30.948 29.374h-1.64V23.5h1.155c.29 0 .526-.24.526-.535 0-.295-.24-.534-.53-.534h-1.156v-4.05c0-.29-.235-.53-.526-.53h-3.62c-.196 0-.374.11-.465.28-.09.175-.08.385.026.55l.75 1.14-.75 1.142c-.108.165-.117.376-.026.55.09.173.27.28.463.28h3.096v.64H25.29c-.29 0-.525.24-.525.536v.794h-.683l-.874-16.306c-.03-.567-.49-1.01-1.05-1.01h-.194v-3.31c0-.296-.235-.535-.526-.535-.29 0-.525.24-.525.533v3.31h-1.69v-3.31c0-.295-.234-.534-.524-.534-.29 0-.53.24-.53.532v3.31h-.194c-.56 0-1.02.445-1.05 1.01l-.65 12.148h-.894v-1.763c0-.464-.293-.86-.7-1.006v-5.294c0-.4-.216-.747-.535-.93V5.232c0-.556-.418-1.01-.95-1.063V1.03c0-.295-.236-.535-.526-.535-.29 0-.524.24-.524.535v3.133h-.32V3.03c0-.294-.235-.533-.525-.533-.29 0-.524.24-.524.534V4.17h-.318V1.032c0-.295-.236-.535-.526-.535-.29 0-.525.24-.525.535V4.17c-.534.05-.95.507-.95 1.063v5.372c-.32.183-.536.53-.536.93v2.35H3.98c-.29 0-.526.24-.526.534 0 .29.235.53.525.53h3.944v1.88c-.407.146-.7.54-.7 1.005v4.593h-2.63c-.29 0-.527.24-.527.533v6.41h-.625l-.12-9.102 1.317 1.17c.096.088.22.13.342.13.146 0 .292-.06.396-.182.19-.222.166-.56-.05-.753l-1.82-1.61 1.58-1.853c.19-.222.167-.56-.053-.753-.22-.195-.55-.17-.74.05l-1.584 1.85-1.82-1.61c-.217-.195-.55-.172-.74.05-.19.224-.166.56.053.755l1.82 1.61L.44 20.974c-.19.222-.167.56.052.753.1.087.222.13.345.13.145 0 .29-.06.395-.184l.988-1.155-.117 8.85h-1.05c-.58 0-1.05.48-1.05 1.07 0 .59.47 1.07 1.05 1.07H30.95c.58 0 1.05-.48 1.05-1.07 0-.59-.47-1.07-1.05-1.07zm-6.565 0l-.014-.265c.43-.485.692-1.125.692-1.827 0-.71-.27-1.38-.758-1.89l-.014-.014-.044-.045-.086-.082-.022-.428h1.15c.29 0 .525-.24.525-.535v-.79h2.442v5.875H24.38zm-14.357-16.77h2.558v4.167h-2.558V12.61zm11.48 16.04l-.045-.028c-.8-.44-1.71-.675-2.63-.675-.3 0-.6.03-.895.08-.607.1-1.197.3-1.738.6l-.045.027-.18.105-.184.08c-.13.047-.264.076-.4.088l-.137.008c-.89 0-1.61-.734-1.61-1.637 0-.43.16-.832.455-1.14l.04-.04.088-.08.016-.014c.316-.28.704-.524 1.15-.727.19-.088.39-.168.6-.24.64-.22 1.363-.363 2.127-.42.234-.015.473-.024.714-.024 1.19 0 2.313.21 3.23.59.533.22.997.495 1.36.818l.005.002.012.01.09.084.035.032c.297.308.46.715.46 1.144 0 .903-.723 1.637-1.61 1.637l-.15-.01c-.2-.018-.39-.072-.57-.165l-.18-.106zM18.913 9.71l.413.42-.46.47.047-.89zm2.347 5.824l-1.19 1.21-1.192-1.21 1.19-1.212 1.192 1.212zm.1 4.035l-1.29 1.31-1.292-1.314 1.29-1.314 1.292 1.313zm.19 4.33c-.804-.23-1.69-.355-2.608-.36l1.126-1.15 1.482 1.51zm.375-1.13l-1.114-1.136 1-1.017.118 2.15zm-.235-4.378l-.88-.894.79-.8.09 1.695zm-.223-4.16l-.657-.67.588-.598.068 1.267zm-.195-3.635l-.462-.47.414-.42.048.89zm-.258 1.247l-.946.963-.946-.962.946-.963.946.963zm-1.69 1.718l-.655.668.064-1.266.588.6zm0 3.934l-.878.893.09-1.698.79.802zm0 4.136L18.21 22.77l.118-2.15 1 1.018zm-3.278 2.278c-.228.067-.45.14-.663.22v-3.46h.838l-.17 3.247zm10.094-3.19l.398-.605c.118-.18.118-.413 0-.593l-.4-.607h2.118v1.806H26.14zM20.846 8.58l-.78.795-.78-.794h1.56zM10.56 6.304h1.487v4.165H10.56V6.3zM5.116 23.5h2.11v5.873h-2.11V23.5zm4.21 5.874V18.906h3.956v6.557c-.45.5-.697 1.144-.697 1.823 0 .702.265 1.342.697 1.824v.264H9.325zm8.53 0l.014-.26c.313-.068.633-.105.955-.105.604 0 1.204.123 1.758.362h-2.727zM2.33 13.354h4.744c.29 0 .525-.24.525-.534 0-.295-.24-.535-.53-.535H2.33c-.184 0-.333-.152-.333-.338 0-.186.15-.338.332-.338.29 0 .52-.24.52-.538 0-.295-.234-.534-.524-.534-.763 0-1.383.63-1.383 1.406s.62 1.406 1.382 1.406zm22.47 1.868h3.28c.29 0 .526-.24.526-.534 0-.295-.235-.535-.525-.535H24.8c-.29 0-.526.24-.526.535 0 .295.235.534.525.534zm1.64-1.478h1.845c.29 0 .525-.24.525-.534 0-.295-.235-.535-.525-.535H26.44c-.29 0-.525.24-.525.535 0 .295.235.534.525.534zm-8.063 11.78l-.316.02c-.74.053-1.46.182-2.12.382-.19.057-.375.12-.554.187l-.374.154c-.265.12-.387.434-.27.704.086.2.28.32.48.32l.164-.03.047-.01.448-.178c.646-.233 1.367-.387 2.128-.452l.415-.026c.29-.01.513-.26.5-.553-.01-.295-.256-.523-.545-.513zm1.59.016h-.14c-.29 0-.524.24-.524.534 0 .295.235.534.525.534h.14c.29 0 .526-.24.526-.534 0-.295-.235-.534-.526-.534z" fill="#3A434E"/></g></svg>