<svg width="32" height="232" viewBox="0 0 32 232" xmlns="http://www.w3.org/2000/svg"><desc>Created with Sketch.</desc><g fill="none"><path d="M13.49 141.39c-.49 0-.757.11-.972.198-.177.073-.306.126-.605.126s-.428-.053-.605-.126c-.215-.09-.482-.2-.97-.2s-.757.11-.972.2c-.177.073-.306.126-.605.126s-.424-.053-.6-.126c-.216-.09-.483-.2-.97-.2s-.758.11-.973.2c-.177.073-.306.126-.605.126s-.43-.053-.605-.126c-.215-.09-.482-.2-.97-.2s-.757.11-.972.2c-.177.073-.306.126-.605.126-.278 0-.503.237-.503.53 0 .293.225.53.503.53.49 0 .756-.11.97-.2.18-.072.307-.125.606-.125s.428.05.605.122c.215.088.48.2.97.2s.757-.11.97-.2c.18-.073.308-.126.607-.126s.428.052.605.125c.216.09.483.2.97.2s.758-.11.973-.2c.178-.072.306-.125.605-.125s.427.052.605.125c.215.09.482.2.97.2s.757-.11.972-.2c.178-.072.306-.125.605-.125.276 0 .5-.238.5-.53 0-.294-.224-.53-.502-.53m-.62 2.68c-.177.072-.306.125-.605.125s-.428-.052-.605-.125c-.215-.09-.482-.2-.97-.2s-.757.11-.972.2c-.177.072-.306.125-.605.125s-.426-.053-.603-.126c-.215-.09-.482-.2-.97-.2s-.757.11-.972.2c-.177.072-.306.125-.605.125-.278 0-.503.234-.503.53 0 .29.225.53.503.53.49 0 .757-.11.972-.2.178-.075.306-.128.605-.128s.428.053.605.126c.215.09.482.2.97.2s.757-.11.972-.2c.178-.074.306-.127.605-.127s.425.054.602.127c.215.09.482.2.97.2s.757-.11.972-.2c.178-.074.306-.127.605-.127s.428.053.606.126c.215.087.482.2.97.2s.757-.11.972-.2c.178-.074.306-.127.605-.127.278 0 .503-.238.503-.53 0-.294-.225-.53-.503-.53-.49 0-.756.11-.97.2-.178.07-.307.124-.606.124s-.428-.054-.605-.127c-.214-.09-.48-.2-.97-.2s-.756.11-.97.2m-11.242-15h3.677c.268 0 .526-.103.728-.29.238-.22.374-.538.374-.87l-.006-.102H8.15c.307 0 .605-.12.836-.334.273-.253.43-.62.43-1 0-.383-.157-.75-.43-1-.232-.217-.53-.335-.838-.335H2.972c-.7 0-1.267.6-1.267 1.336l.027.276h-.106c-.608 0-1.102.52-1.102 1.16s.494 1.16 1.102 1.16zm0-1.262h1.348c.278 0 .503-.237.503-.53h-.004c0-.293-.225-.53-.503-.53-.144 0-.26-.123-.26-.275 0-.152.116-.275.26-.275H8.15c.08 0 .138.037.172.07.033.03.09.098.09.205 0 .107-.057.175-.09.206-.034.03-.09.066-.172.066H5.304c-.278 0-.503.237-.503.53 0 .293.23.53.507.53h.002l.062.026.033.075-.033.074-.065.027H1.63c-.054 0-.097-.045-.097-.1 0-.056.043-.102.096-.102zm10.204-4.306h5.337c.276 0 .5-.238.5-.53 0-.294-.224-.53-.502-.53H11.83c-.278 0-.503.236-.503.53 0 .292.224.53.502.53zm-1.417 1.765h5.337c.278 0 .503-.237.503-.53 0-.293-.225-.53-.503-.53h-5.337c-.278 0-.503.237-.503.53 0 .293.225.53.503.53zm20.573 22.62h-5.466v-1.27h3.412c.18 0 .346-.1.436-.265.09-.164.09-.366 0-.53l-1.674-3.057h3.74c.18 0 .347-.1.437-.265.09-.16.09-.363 0-.53l-1.378-2.513h.404c.277 0 .5-.238.5-.53 0-.113-.03-.218-.09-.304l-1.28-2.34h.48c.28 0 .505-.235.505-.53 0-.11-.033-.215-.09-.3l-2.48-4.526-.2-.363-.132-.16.995.424.807.34c.258.11.55-.022.654-.294.1-.272-.025-.58-.28-.69l-2.497-1.055-1.843-3.408c-.046-.085-.114-.156-.196-.203L22.98 123.9l-2.05-1.755c-.13-.112-.304-.147-.464-.096-.16.05-.286.18-.334.35l-1.027 3.577-2.07 1.213-1.738.856c-.127.06-.223.177-.266.317l-.69 2.278-2.27 1.736-1.28-2.632c-.16-.324-.462-.54-.806-.572-.344-.03-.68.126-.888.415l-1.78 2.464c-.106.147-.174.32-.197.5-.038.295-.086.605-.13.863l-1 .013c-.34.005-.65.188-.83.487l-.748 1.228-1.452 1.33c-.13.12-.227.27-.285.44l-.66 1.906c-.065.184-.076.375-.044.556H.946c-.28 0-.504.24-.504.53 0 .295.226.53.504.53H20.27l-.568 1.04c-.09.164-.09.366 0 .53.09.164.256.265.436.265h.798l-1.94 3.542c-.09.163-.09.365 0 .53.09.163.255.264.435.264h3.7v1.27H1.034c-.556 0-1.006.477-1.006 1.063S.477 150 1.033 150h29.96c.555 0 1.005-.475 1.005-1.06s-.45-1.062-1.006-1.062zm-6.858 0v-1.218h.385v1.912h-.385v-.694zM22.242 142c.09-.163.09-.365 0-.53-.09-.163-.257-.264-.437-.264h-.798l1.842-3.366c.09-.164.09-.366 0-.53-.09-.164-.257-.265-.437-.265h-.894l2.664-4.866 1.836 3.35.112.205.165.303.334.61.22.4h-.898c-.087 0-.17.023-.245.067-.078.045-.145.112-.19.197-.047.085-.07.18-.068.273 0 .09.022.178.066.257l.19.34.107.2.53.964.012.028 1.003 1.834h-.798c-.18 0-.346.1-.436.266-.04.07-.06.145-.066.222-.008.106.013.213.065.31l1.94 3.542h-7.765l1.94-3.544zm6.917-6.792c-.18 0-.347.104-.437.268-.04.072-.06.153-.062.234-.005.103.016.206.066.298l1.304 2.378h-.403c-.18 0-.345.1-.435.265-.09.166-.09.368 0 .53l1.377 2.518h-1.84c-.007-.096-.038-.185-.087-.26l-1.822-3.324h.9c.28 0 .505-.237.505-.53 0-.113-.033-.217-.09-.303l-.357-.65-.144-.263-1.142-2.083 1.32-2.406 1.827 3.336h-.48zm-1.35-4.924c-.18 0-.347.1-.437.265l-1.46 2.67-.593-1.083-.1-1.514c-.012-.18-.11-.34-.26-.428l-1.463-.847-.346-1.158c-.035-.12-.11-.22-.21-.287l-1.102-.735c-.202-.134-.465-.1-.63.08L18 130.755l-2.196 2.362-.068.09-1.418 2.408-.92-1.008-.8-1.14-.064-.132.013-.01 2.515-1.922c.088-.065.15-.16.185-.266l.676-2.222 1.556-.764.03-.015 2.264-1.327c.115-.067.2-.178.238-.31l.87-3.026 1.5 1.288.077.054 2.69 1.553 1.86 3.44c.055.103.143.184.25.23l.61.26-.06-.006zm-23.855 9.092l.512-1.478 1.366-1.25c.076-.067.14-.144.19-.23l.533-.876c.473-.005.91-.006 1.032 0 .267.033.53-.043.748-.216.275-.22.506-.527.738-2.208l.655-.907 1.12 2.298.085.146.888 1.265.084.107 1.363 1.494.684 1.857H3.95zm12.07 0c.003-.137-.02-.277-.07-.413l-.888-2.41-.05-.114 1.544-2.624 2.157-2.324 2.924-3.197.6.4.35 1.175c.04.13.127.24.24.306l.99.574-.076.107-3.537 6.456c-.09.164-.09.366 0 .53.09.164.256.265.436.265h.897l-.695 1.263H16.02z" fill="#206FAC"/><path d="M13.49 101.39c-.49 0-.757.11-.972.198-.177.073-.306.126-.605.126s-.428-.053-.605-.126c-.215-.09-.482-.2-.97-.2s-.757.11-.972.2c-.177.073-.306.126-.605.126s-.424-.053-.6-.126c-.216-.09-.483-.2-.97-.2s-.758.11-.973.2c-.177.073-.306.126-.605.126s-.43-.053-.605-.126c-.215-.09-.482-.2-.97-.2s-.757.11-.972.2c-.177.073-.306.126-.605.126-.278 0-.503.237-.503.53 0 .293.225.53.503.53.49 0 .756-.11.97-.2.18-.072.307-.125.606-.125s.428.05.605.122c.215.088.48.2.97.2s.757-.11.97-.2c.18-.073.308-.126.607-.126s.428.052.605.125c.216.09.483.2.97.2s.758-.11.973-.2c.178-.072.306-.125.605-.125s.427.052.605.125c.215.09.482.2.97.2s.757-.11.972-.2c.178-.072.306-.125.605-.125.276 0 .5-.238.5-.53 0-.294-.224-.53-.502-.53m-.62 2.68c-.177.072-.306.125-.605.125s-.428-.052-.605-.125c-.215-.09-.482-.2-.97-.2s-.757.11-.972.2c-.177.072-.306.125-.605.125s-.426-.053-.603-.126c-.215-.09-.482-.2-.97-.2s-.757.11-.972.2c-.177.072-.306.125-.605.125-.278 0-.503.234-.503.53 0 .29.225.53.503.53.49 0 .757-.11.972-.2.178-.075.306-.128.605-.128s.428.053.605.126c.215.09.482.2.97.2s.757-.11.972-.2c.178-.074.306-.127.605-.127s.425.054.602.127c.215.09.482.2.97.2s.757-.11.972-.2c.178-.074.306-.127.605-.127s.428.053.606.126c.215.087.482.2.97.2s.757-.11.972-.2c.178-.074.306-.127.605-.127.278 0 .503-.238.503-.53 0-.294-.225-.53-.503-.53-.49 0-.756.11-.97.2-.178.07-.307.124-.606.124s-.428-.054-.605-.127c-.214-.09-.48-.2-.97-.2s-.756.11-.97.2m-11.242-15h3.677c.268 0 .526-.103.728-.29.238-.22.374-.538.374-.87l-.006-.102H8.15c.307 0 .605-.12.836-.334.273-.253.43-.62.43-1 0-.383-.157-.75-.43-1-.232-.217-.53-.335-.838-.335H2.972c-.7 0-1.267.6-1.267 1.336l.027.276h-.106c-.608 0-1.102.52-1.102 1.16s.494 1.16 1.102 1.16zm0-1.262h1.348c.278 0 .503-.237.503-.53h-.004c0-.293-.225-.53-.503-.53-.144 0-.26-.123-.26-.275 0-.152.116-.275.26-.275H8.15c.08 0 .138.037.172.07.033.03.09.098.09.205 0 .107-.057.175-.09.206-.034.03-.09.066-.172.066H5.304c-.278 0-.503.237-.503.53 0 .293.23.53.507.53h.002l.062.026.033.075-.033.074-.065.027H1.63c-.054 0-.097-.045-.097-.1 0-.056.043-.102.096-.102zm10.204-4.306h5.337c.276 0 .5-.238.5-.53 0-.294-.224-.53-.502-.53H11.83c-.278 0-.503.236-.503.53 0 .292.224.53.502.53zm-1.417 1.765h5.337c.278 0 .503-.237.503-.53 0-.293-.225-.53-.503-.53h-5.337c-.278 0-.503.237-.503.53 0 .293.225.53.503.53zm20.573 22.62h-5.466v-1.27h3.412c.18 0 .346-.1.436-.265.09-.164.09-.366 0-.53l-1.674-3.057h3.74c.18 0 .347-.1.437-.265.09-.16.09-.363 0-.53l-1.378-2.513h.404c.277 0 .5-.238.5-.53 0-.113-.03-.218-.09-.304l-1.28-2.34h.48c.28 0 .505-.235.505-.53 0-.11-.033-.215-.09-.3l-2.48-4.526-.2-.363-.132-.16.995.424.807.34c.258.11.55-.022.654-.294.1-.272-.025-.58-.28-.69l-2.497-1.055-1.843-3.408c-.046-.085-.114-.156-.196-.203L22.98 83.9l-2.05-1.755c-.13-.112-.304-.147-.464-.096-.16.05-.286.18-.334.35l-1.027 3.577-2.07 1.213-1.738.856c-.127.06-.223.177-.266.317l-.69 2.278-2.27 1.736-1.28-2.632c-.16-.324-.462-.54-.806-.572-.344-.03-.68.126-.888.415l-1.78 2.464c-.106.147-.174.32-.197.5-.038.295-.086.605-.13.863l-1 .013c-.34.005-.65.188-.83.487l-.75 1.227-1.453 1.33c-.13.12-.227.27-.285.438l-.66 1.907c-.065.184-.076.375-.044.556H.946c-.28 0-.504.24-.504.53 0 .296.225.53.503.53H20.27l-.568 1.04c-.09.165-.09.367 0 .53.09.165.256.266.436.266h.798l-1.94 3.542c-.09.164-.09.366 0 .53.09.164.255.265.435.265h3.7v1.27H1.034c-.556 0-1.006.477-1.006 1.063S.477 110 1.033 110h29.96c.555 0 1.005-.475 1.005-1.06s-.45-1.062-1.006-1.062zm-6.858 0v-1.218h.385v1.912h-.385v-.694zM22.242 102c.09-.163.09-.365 0-.53-.09-.163-.257-.264-.437-.264h-.798l1.842-3.366c.09-.164.09-.366 0-.53-.09-.164-.257-.265-.437-.265h-.894l2.664-4.866 1.836 3.35.112.205.165.303.334.61.22.4h-.898c-.087 0-.17.023-.245.067-.078.045-.145.112-.19.197-.047.085-.07.18-.068.273 0 .09.022.178.066.257l.19.34.107.2.53.964.012.028 1.003 1.834h-.798c-.18 0-.346.1-.436.266-.04.07-.06.145-.066.222-.008.106.013.213.065.31l1.94 3.542h-7.765l1.94-3.544zm6.917-6.792c-.18 0-.347.104-.437.268-.04.072-.06.153-.062.234-.005.103.016.206.066.298l1.304 2.378h-.403c-.18 0-.345.1-.435.265-.09.166-.09.368 0 .53l1.377 2.518h-1.84c-.007-.096-.038-.185-.087-.26l-1.822-3.324h.9c.28 0 .505-.237.505-.53 0-.113-.033-.217-.09-.303l-.357-.65-.144-.263-1.142-2.083 1.32-2.406 1.827 3.336h-.48zm-1.35-4.924c-.18 0-.347.1-.437.265l-1.46 2.67-.593-1.083-.1-1.514c-.012-.18-.11-.34-.26-.428l-1.463-.847-.346-1.158c-.035-.12-.11-.22-.21-.287l-1.102-.735c-.202-.134-.465-.1-.63.08L18 90.755l-2.196 2.362-.068.09-1.418 2.408-.92-1.008-.8-1.14-.064-.132.013-.01L15.06 91.4c.087-.066.15-.16.184-.267l.676-2.222 1.555-.76.032-.018 2.263-1.33c.115-.066.2-.177.238-.31l.87-3.025 1.5 1.287.077.055 2.692 1.552 1.86 3.438c.055.104.143.185.25.23l.61.26-.058-.005zm-23.855 9.09l.512-1.477 1.366-1.25c.076-.067.14-.144.19-.23l.533-.876c.473-.004.91-.005 1.032 0 .267.034.53-.042.748-.215.275-.22.506-.527.738-2.208l.655-.908 1.12 2.296.085.144.888 1.265.084.105 1.363 1.494.684 1.854H3.95zm12.07 0c.003-.136-.02-.276-.07-.412l-.888-2.41-.05-.114 1.544-2.625 2.157-2.324 2.924-3.196.6.4.35 1.175c.04.13.127.24.24.303l.99.574-.076.108-3.537 6.456c-.09.165-.09.367 0 .53.09.165.256.266.436.266h.897l-.695 1.263H16.02z" fill="#fff"/><path d="M13.49 61.39c-.49 0-.757.11-.972.198-.177.073-.306.126-.605.126s-.428-.053-.605-.126c-.215-.09-.482-.2-.97-.2s-.757.11-.972.2c-.177.073-.306.126-.605.126s-.424-.053-.6-.126c-.216-.09-.483-.2-.97-.2s-.758.11-.973.2c-.177.073-.306.126-.605.126s-.43-.053-.605-.126c-.215-.09-.482-.2-.97-.2s-.757.11-.972.2c-.177.073-.306.126-.605.126-.278 0-.503.237-.503.53 0 .293.225.53.503.53.49 0 .756-.11.97-.2.18-.072.307-.125.606-.125s.428.05.605.122c.215.088.48.2.97.2s.757-.11.97-.2c.18-.073.308-.126.607-.126s.428.052.605.125c.216.09.483.2.97.2s.758-.11.973-.2c.178-.072.306-.125.605-.125s.427.052.605.125c.215.09.482.2.97.2s.757-.11.972-.2c.178-.072.306-.125.605-.125.276 0 .5-.238.5-.53 0-.294-.224-.53-.502-.53m-.62 2.68c-.177.072-.306.125-.605.125s-.428-.052-.605-.125c-.215-.09-.482-.2-.97-.2s-.757.11-.972.2c-.177.072-.306.125-.605.125s-.426-.053-.603-.126c-.215-.09-.482-.2-.97-.2s-.757.11-.972.2c-.177.072-.306.125-.605.125-.278 0-.503.234-.503.53 0 .29.225.53.503.53.49 0 .757-.11.972-.2.178-.075.306-.128.605-.128s.428.053.605.126c.215.09.482.2.97.2s.757-.11.972-.2c.178-.074.306-.127.605-.127s.425.054.602.127c.215.09.482.2.97.2s.757-.11.972-.2c.178-.074.306-.127.605-.127s.428.053.606.126c.215.087.482.2.97.2s.757-.11.972-.2c.178-.074.306-.127.605-.127.278 0 .503-.238.503-.53 0-.294-.225-.53-.503-.53-.49 0-.756.11-.97.2-.178.07-.307.124-.606.124s-.428-.054-.605-.127c-.214-.09-.48-.2-.97-.2s-.756.11-.97.2m-11.242-15h3.677c.268 0 .526-.103.728-.29.238-.22.374-.538.374-.87l-.006-.102H8.15c.307 0 .605-.12.836-.334.273-.253.43-.62.43-1 0-.383-.157-.75-.43-1-.232-.217-.53-.335-.838-.335H2.972c-.7 0-1.267.6-1.267 1.336l.027.276h-.106c-.608 0-1.102.52-1.102 1.16s.494 1.16 1.102 1.16zm0-1.262h1.348c.278 0 .503-.237.503-.53h-.004c0-.293-.225-.53-.503-.53-.144 0-.26-.123-.26-.275 0-.152.116-.275.26-.275H8.15c.08 0 .138.037.172.07.033.03.09.098.09.205 0 .107-.057.175-.09.206-.034.03-.09.066-.172.066H5.304c-.278 0-.503.237-.503.53 0 .293.23.53.507.53h.002l.062.026.033.075-.033.074-.065.027H1.63c-.054 0-.097-.045-.097-.1 0-.056.043-.102.096-.102zm10.204-4.306h5.337c.276 0 .5-.238.5-.53 0-.294-.224-.53-.502-.53H11.83c-.278 0-.503.236-.503.53 0 .292.224.53.502.53zm-1.417 1.765h5.337c.278 0 .503-.237.503-.53 0-.293-.225-.53-.503-.53h-5.337c-.278 0-.503.237-.503.53 0 .293.225.53.503.53zm20.573 22.62h-5.466v-1.27h3.412c.18 0 .346-.1.436-.265.09-.164.09-.366 0-.53l-1.674-3.057h3.74c.18 0 .347-.1.437-.265.09-.16.09-.363 0-.53l-1.378-2.513h.404c.277 0 .5-.238.5-.53 0-.113-.03-.218-.09-.304l-1.28-2.34h.48c.28 0 .505-.235.505-.53 0-.11-.033-.215-.09-.3l-2.48-4.526-.2-.363-.132-.16.995.424.807.34c.258.11.55-.022.654-.294.1-.272-.025-.58-.28-.69l-2.497-1.055-1.843-3.408c-.046-.085-.114-.156-.196-.203L22.98 43.9l-2.05-1.755c-.13-.112-.304-.147-.464-.096-.16.05-.286.18-.334.35l-1.027 3.577-2.07 1.213-1.738.856c-.127.06-.223.177-.266.317l-.69 2.278-2.27 1.736-1.28-2.632c-.16-.324-.462-.54-.806-.572-.344-.03-.68.126-.888.415l-1.78 2.464c-.106.147-.174.32-.197.5-.038.295-.086.605-.13.863l-1 .013c-.34.005-.65.188-.83.487l-.75 1.227-1.453 1.33c-.13.12-.227.27-.285.438l-.66 1.907c-.065.184-.076.375-.044.556H.946c-.28 0-.504.24-.504.53 0 .296.225.53.503.53H20.27l-.568 1.04c-.09.165-.09.367 0 .53.09.165.256.266.436.266h.798l-1.94 3.542c-.09.164-.09.366 0 .53.09.164.255.265.435.265h3.7v1.27H1.034c-.556 0-1.006.477-1.006 1.063S.477 70 1.033 70h29.96c.555 0 1.005-.475 1.005-1.06s-.45-1.062-1.006-1.062zm-6.858 0V66.66h.385v1.912h-.385v-.693zM22.242 62c.09-.163.09-.365 0-.53-.09-.163-.257-.264-.437-.264h-.798l1.842-3.366c.09-.164.09-.366 0-.53-.09-.164-.257-.265-.437-.265h-.894l2.664-4.866 1.836 3.35.112.205.165.303.334.61.22.4h-.898c-.087 0-.17.023-.245.067-.078.045-.145.112-.19.197-.047.085-.07.18-.068.273 0 .09.022.178.066.257l.19.34.107.2.53.964.012.028 1.003 1.834h-.798c-.18 0-.346.1-.436.266-.04.07-.06.145-.066.222-.008.106.013.213.065.31l1.94 3.542h-7.765l1.94-3.544zm6.917-6.792c-.18 0-.347.104-.437.268-.04.072-.06.153-.062.234-.005.103.016.206.066.298l1.304 2.378h-.403c-.18 0-.345.1-.435.265-.09.166-.09.368 0 .53L30.57 61.7h-1.84c-.007-.096-.038-.185-.087-.26l-1.822-3.324h.9c.28 0 .505-.237.505-.53 0-.113-.033-.217-.09-.303l-.357-.65-.144-.263-1.142-2.083 1.32-2.406 1.827 3.336h-.48zm-1.35-4.924c-.18 0-.347.1-.437.265l-1.46 2.67-.593-1.083-.1-1.514c-.012-.18-.11-.34-.26-.428l-1.463-.847-.346-1.158c-.035-.12-.11-.22-.21-.287l-1.102-.735c-.202-.134-.465-.1-.63.08L18 50.755l-2.196 2.362-.068.09-1.418 2.408-.92-1.008-.8-1.14-.064-.132.013-.01L15.06 51.4c.087-.066.15-.16.184-.267l.676-2.222 1.555-.76.032-.018 2.263-1.33c.115-.066.2-.177.238-.31l.87-3.025 1.5 1.287.077.055 2.692 1.552 1.86 3.438c.055.104.143.185.25.23l.61.26-.058-.005zm-23.855 9.09l.512-1.477 1.366-1.25c.076-.067.14-.144.19-.23l.533-.876c.473-.004.91-.005 1.032 0 .267.034.53-.042.748-.215.275-.22.506-.527.738-2.208l.655-.908 1.12 2.296.085.144.888 1.265.084.105 1.363 1.494.684 1.854H3.95zm12.07 0c.003-.136-.02-.276-.07-.412l-.888-2.41-.05-.114 1.544-2.625 2.157-2.324 2.924-3.196.6.4.35 1.175c.04.13.127.24.24.303l.99.574-.076.108-3.537 6.456c-.09.165-.09.367 0 .53.09.165.256.266.436.266h.897l-.695 1.263H16.02z" fill="#67737B"/><path d="M13.49 21.39c-.49 0-.757.11-.972.198-.177.073-.306.126-.605.126s-.428-.053-.605-.126c-.215-.09-.482-.2-.97-.2s-.757.11-.972.2c-.177.073-.306.126-.605.126s-.424-.053-.6-.126c-.216-.09-.483-.2-.97-.2s-.758.11-.973.2c-.177.073-.306.126-.605.126s-.43-.053-.605-.126c-.215-.09-.482-.2-.97-.2s-.757.11-.972.2c-.177.073-.306.126-.605.126-.278 0-.503.237-.503.53 0 .293.225.53.503.53.49 0 .756-.11.97-.2.18-.072.307-.125.606-.125s.428.05.605.122c.215.088.48.2.97.2s.757-.11.97-.2c.18-.073.308-.126.607-.126s.428.052.605.125c.216.09.483.2.97.2s.758-.11.973-.2c.178-.072.306-.125.605-.125s.427.052.605.125c.215.09.482.2.97.2s.757-.11.972-.2c.178-.072.306-.125.605-.125.276 0 .5-.238.5-.53 0-.294-.224-.53-.502-.53m-.62 2.68c-.177.072-.306.125-.605.125s-.428-.052-.605-.125c-.215-.09-.482-.2-.97-.2s-.757.11-.972.2c-.177.072-.306.125-.605.125s-.426-.053-.603-.126c-.215-.09-.482-.2-.97-.2s-.757.11-.972.2c-.177.072-.306.125-.605.125-.278 0-.503.234-.503.53 0 .29.225.53.503.53.49 0 .757-.11.972-.2.178-.075.306-.128.605-.128s.428.053.605.126c.215.09.482.2.97.2s.757-.11.972-.2c.178-.074.306-.127.605-.127s.425.054.602.127c.215.09.482.2.97.2s.757-.11.972-.2c.178-.074.306-.127.605-.127s.428.053.606.126c.215.087.482.2.97.2s.757-.11.972-.2c.178-.074.306-.127.605-.127.278 0 .503-.238.503-.53 0-.294-.225-.53-.503-.53-.49 0-.756.11-.97.2-.178.07-.307.124-.606.124s-.428-.054-.605-.127c-.214-.09-.48-.2-.97-.2s-.756.11-.97.2m-11.242-15h3.677c.268 0 .526-.103.728-.29.238-.22.374-.538.374-.87l-.006-.102H8.15c.307 0 .605-.12.836-.334.273-.253.43-.62.43-1 0-.383-.157-.75-.43-1-.232-.217-.53-.335-.838-.335H2.972c-.7 0-1.267.6-1.267 1.336l.027.276h-.106c-.608 0-1.102.52-1.102 1.16s.494 1.16 1.102 1.16zm0-1.262h1.348c.278 0 .503-.237.503-.53h-.004c0-.293-.225-.53-.503-.53-.144 0-.26-.123-.26-.275 0-.152.116-.275.26-.275H8.15c.08 0 .138.037.172.07.033.03.09.098.09.205 0 .107-.057.175-.09.206-.034.03-.09.066-.172.066H5.304c-.278 0-.503.237-.503.53 0 .293.23.53.507.53h.002l.062.026.033.075-.033.074-.066.03H1.63c-.054 0-.097-.045-.097-.1 0-.056.043-.102.096-.102zM11.834 3.49h5.337c.276 0 .5-.238.5-.53 0-.294-.224-.53-.502-.53H11.83c-.278 0-.503.236-.503.53 0 .292.224.53.502.53zm-1.417 1.765h5.337c.278 0 .503-.237.503-.53 0-.293-.225-.53-.503-.53h-5.337c-.278 0-.503.237-.503.53 0 .293.225.53.503.53zm20.573 22.62h-5.466v-1.27h3.412c.18 0 .346-.1.436-.265.09-.164.09-.366 0-.53l-1.674-3.057h3.74c.18 0 .347-.1.437-.265.09-.16.09-.363 0-.53l-1.378-2.513h.404c.277 0 .5-.238.5-.53 0-.113-.03-.218-.09-.304l-1.28-2.34h.48c.28 0 .505-.235.505-.53 0-.11-.033-.215-.09-.3l-2.48-4.526-.2-.363-.132-.16.995.424.807.34c.258.11.55-.022.654-.294.1-.272-.025-.58-.28-.69l-2.497-1.055-1.843-3.408c-.046-.085-.114-.156-.196-.203L22.98 3.9l-2.05-1.755c-.13-.112-.304-.147-.464-.096-.16.05-.286.18-.334.35l-1.027 3.58-2.07 1.213-1.738.855c-.127.06-.223.175-.266.315l-.69 2.278-2.27 1.735-1.28-2.632c-.16-.324-.462-.54-.806-.572-.344-.03-.68.126-.888.415l-1.78 2.464c-.106.146-.174.32-.197.5-.038.294-.086.604-.13.862l-1 .013c-.34.005-.65.188-.83.487l-.75 1.228-1.45 1.33c-.13.12-.227.27-.285.438l-.66 1.906c-.065.184-.076.375-.044.556H.946c-.28 0-.504.237-.504.53 0 .293.226.53.504.53H20.27l-.568 1.038c-.09.164-.09.366 0 .53.09.164.256.265.436.265h.798l-1.94 3.542c-.09.164-.09.366 0 .53.09.164.255.265.435.265h3.7v1.27H1.034c-.556 0-1.006.476-1.006 1.062S.477 30 1.033 30h29.96c.555 0 1.005-.475 1.005-1.06s-.45-1.062-1.006-1.062zm-6.858 0V26.66h.385v1.912h-.385v-.693zM22.242 22c.09-.163.09-.365 0-.53-.09-.163-.257-.264-.437-.264h-.798l1.842-3.366c.09-.164.09-.366 0-.53-.09-.164-.257-.265-.437-.265h-.894l2.664-4.866 1.836 3.35.112.205.165.303.334.61.22.4h-.898c-.087 0-.17.023-.245.067-.078.045-.145.112-.19.197-.047.085-.07.18-.068.273 0 .09.022.178.066.257l.19.34.107.2.53.964.012.028 1.003 1.834h-.798c-.18 0-.346.1-.436.266-.04.07-.06.145-.066.222-.008.106.013.213.065.31l1.94 3.542h-7.765l1.94-3.544zm6.917-6.792c-.18 0-.347.104-.437.268-.04.072-.06.153-.062.234-.005.103.016.206.066.298l1.304 2.378h-.403c-.18 0-.345.1-.435.265-.09.166-.09.368 0 .53L30.57 21.7h-1.84c-.007-.096-.038-.185-.087-.26l-1.822-3.324h.9c.28 0 .505-.237.505-.53 0-.113-.033-.217-.09-.303l-.357-.65-.144-.263-1.142-2.083 1.32-2.406 1.827 3.336h-.48zm-1.35-4.924c-.18 0-.347.1-.437.265l-1.46 2.67-.593-1.083-.1-1.514c-.012-.18-.11-.34-.26-.428l-1.463-.847-.346-1.158c-.035-.12-.11-.22-.21-.287l-1.102-.735c-.202-.134-.465-.1-.63.08L18 10.755l-2.196 2.362-.068.09-1.418 2.408-.92-1.008-.8-1.14-.064-.132.013-.01L15.06 11.4c.087-.066.15-.16.184-.267l.676-2.222 1.555-.76.032-.018L19.77 6.8c.115-.067.2-.178.238-.31l.87-3.026 1.5 1.287.077.057 2.692 1.553 1.86 3.437c.055.104.143.185.25.23l.61.26-.058-.005zm-23.855 9.09l.512-1.477 1.366-1.25c.076-.067.14-.144.19-.23l.533-.876c.473-.004.91-.005 1.032 0 .267.034.53-.042.748-.215.275-.22.506-.527.738-2.208l.655-.908 1.12 2.296.085.144.888 1.265.084.105 1.363 1.494.684 1.854H3.95zm12.07 0c.003-.136-.02-.276-.07-.412l-.888-2.41-.05-.114 1.544-2.625 2.157-2.324 2.924-3.196.6.4.35 1.175c.04.13.127.24.24.303l.99.574-.076.108-3.537 6.456c-.09.165-.09.367 0 .53.09.165.256.266.436.266h.897l-.695 1.263H16.02z" fill="#3A434E"/></g></svg>