<svg width="32" height="232" viewBox="0 0 32 232" xmlns="http://www.w3.org/2000/svg"><desc>Created with Sketch.</desc><g fill="none"><path d="M31.154 144.877c.558-.14.9-.723.762-1.298-.137-.58-.7-.93-1.257-.79l-2.757.7v-3.897h3.068c.288 0 .52-.24.52-.537 0-.126-.04-.243-.112-.334l-.717-1.11.74-1.147c.108-.166.118-.378.028-.553-.09-.175-.264-.284-.456-.284h-3.586c-.287 0-.52.24-.52.536v7.586l-.908.23v-8.94c.164-.033.324-.106.463-.224.346-.294.46-.77.323-1.18v-1.447c0-.297-.233-.537-.52-.537-.287 0-.52.24-.52.536v.03l-3.86-4.853c-.08-.1-.176-.183-.282-.247v-.867c0-.298-.232-.538-.52-.538-.286 0-.52.24-.52.537v.867c-.106.063-.203.146-.282.246l-2.38 2.992-.267.085-.277-5.01c-.016-.285-.243-.507-.52-.507h-.843l-.023-.003-.11.012c-.23.043-.41.245-.426.495l-.044.81c-.183 1.237-.79 2.244-1.548 2.593v-.67c0-.295-.233-.536-.52-.536-.287 0-.52.24-.52.536v.72c-.974-.35-1.728-1.776-1.728-3.426 0-.297-.233-.537-.52-.537l-.023.002H9.62l-.023-.003c-.285 0-.517.24-.517.535 0 1.9-1.002 3.504-2.188 3.504-1.06 0-1.972-1.283-2.153-2.91l-.035-.625-.005-.036-.008-.06-.01-.033-.023-.067-.01-.016c-.086-.175-.26-.296-.463-.296l-.023.003h-.86c-.275 0-.502.223-.518.507l-.27 4.866-.31-.018c-.504 0-.78.11-1.003.2-.183.075-.316.128-.625.128-.285 0-.518.24-.518.537 0 .296.233.537.52.537.504 0 .78-.11 1.003-.2.183-.075.316-.13.625-.13s.442.055.625.13c.222.09.498.2 1.003.2.506 0 .78-.11 1.005-.2.185-.075.317-.13.626-.13s.442.055.625.13c.223.09.5.2 1.004.2.505 0 .782-.11 1.004-.2.182-.075.315-.13.624-.13s.442.055.625.13c.22.09.5.2 1.005.2l.227-.01-1.943 2.444v-.015c0-.295-.233-.536-.52-.536-.287 0-.52.24-.52.536v1.41l-.01.03-.016.044-.013.057-.01.045-.01.07-.005.036-.004.098v.01l.005.107.008.05.01.053.014.06.01.042.02.053.014.046.02.045.023.05.02.037.034.053.02.028.04.057.025.027.044.05.074.07.02.016.062.048.036.022.053.033.04.02.052.025.043.016.053.02.046.01.052.016.053.01.05.006.07.005h.354v.42l-.125-.01H5.53v-.927c0-.297-.233-.537-.52-.537-.288 0-.52.24-.52.536v.93h-.6c-.574 0-1.04.48-1.04 1.07v11.387l-.097.025c-.557.14-.897.723-.76 1.3.117.49.54.816 1.008.816l.25-.03 23.625-5.997v1.885L22.33 149c-.278.07-.45.36-.38.65.058.244.27.408.504.408l.125-.016 8.46-2.147c.274-.072.445-.363.38-.65-.07-.288-.35-.464-.63-.394l-2.88.73v-1.88l3.25-.825zm-3.25-8.17H30l-.395.61c-.116.18-.116.415 0 .595l.394.61H27.9v-1.815zm-7.053 8.575v-2.82c-.015-.435-.363-.78-.79-.78-.422 0-.77.345-.79.78v3.22h.01l-1.593.405v-9.103H18l.1-.005.03-.008.064-.01.036-.008.058-.015.037-.01.056-.02.038-.017.057-.028.03-.015.062-.04.02-.01.076-.06.078-.073.045-.05.025-.027.04-.056.02-.028.03-.055.02-.032.024-.05.02-.046.017-.043.02-.055.01-.042.015-.06.008-.05.008-.05.006-.11v-.01l-.006-.095-.006-.037-.01-.067-.01-.046L19 135.6l-.018-.046-.02-.05-.02-.047-.022-.048-.03-.05-.02-.04-.046-.064-.014-.02-.816-1.028h5.89v10.312l-3.027.768zm-10.924-9.395l3.348-4.21.02.002 2.013 2.53.5.624.114.145.727.915.01.014h-6.75l.02-.023zm6.476-3.684l-.575-.723.034.014c.213.086.48.19.947.2l-.405.51zm4.64-2.456l2.69 3.382h-5.376l2.688-3.386zm-4.876.597l.19-3.437.19 3.437h-.38zm-.972-1.253l-.065 1.21-.23.015-.473-.594c.277-.16.536-.37.77-.627zm-3.09.678l-.43.544c-.153.015-.28.04-.388.073l-.073-1.336c.266.302.567.546.893.717zm-2.242.578l.19-3.437.19 3.436h-.38zm-6.115-3.437l.19 3.436h-.38l.19-3.437zm3.973 3.586c-.184.074-.316.127-.625.127s-.44-.052-.623-.126c-.223-.09-.5-.2-1.004-.2-.193 0-.353.016-.488.04l-.07-1.258c.548.61 1.238.973 1.987.973.755 0 1.448-.37 1.998-.986l-.068 1.232-.1-.004c-.506 0-.783.11-1.004.2zm-2.792 9.046H8.76l.124-.01v8.79l-3.96 1.006v-9.785zm8.27 4.394c-.426 0-.772.346-.792.78v2.712l-2.477.63v-11.073h6.72v9.366l-2.66.676v-2.31c-.02-.434-.367-.78-.79-.78zm6.198-5.32h1.04v2.312h-1.04v-2.31zm2.108 0h1.04v2.312H21.5v-2.31zm-2.107-2.718h1.04v2.31h-1.04v-2.31zm2.108 0h1.04v2.31H21.5v-2.31zm-8.59 3.35c-.017-.433-.365-.78-.79-.78-.424 0-.77.347-.79.78v1.95h1.583v-1.95zm2.106 0c-.02-.433-.367-.78-.79-.78-.426 0-.773.347-.792.78v1.95h1.583v-1.95zm-3.673 2.602h3.702v1.074h-3.71v-1.072zm-5.97.687h1.04v2.31H5.37v-2.31zm1.36 0h1.04v2.31H6.73v-2.31zm-1.36 2.628h1.04v2.31H5.37v-2.31zm1.36 0h1.04v2.31H6.73v-2.31zm.526-3.967c0-.406-.32-.734-.71-.734-.395 0-.713.33-.713.736 0 .405.317.734.71.734.393 0 .71-.33.71-.735zm10.06-18.885h.083l-.023.25c0 .733.575 1.327 1.282 1.327h5.876c.31 0 .614-.118.848-.33.276-.253.435-.615.435-.995s-.16-.74-.435-.99c-.234-.215-.536-.333-.847-.333H22.1l.004-.08c0-.33-.138-.647-.378-.866-.204-.186-.467-.288-.74-.288h-3.67c-.617 0-1.12.518-1.12 1.154 0 .636.502 1.154 1.12 1.154zm0-1.234h3.67l.05.02.028.06-.027.06-.05.02h-.003c-.288 0-.52.24-.52.538 0 .297.232.537.52.537h3.55c.075 0 .13.036.16.066.03.028.083.09.083.188s-.05.16-.082.19c-.03.027-.083.062-.16.062h-5.88c-.132 0-.24-.113-.24-.252s.11-.25.242-.25c.29 0 .52-.24.52-.538h.004c0-.296-.233-.537-.52-.537H17.32c-.043 0-.08-.036-.08-.08 0-.044.037-.08.08-.08zm6.78 5.742c-.22.19-.25.53-.064.756.183.227.512.256.73.066.16-.135.36-.2.566-.182.14.013.273.064.385.148l.008.015c.086.19.27.31.47.31h.06c.203 0 .386-.12.47-.31l.008-.014c.112-.084.244-.135.386-.15.205-.016.406.05.564.186.22.19.548.162.733-.065.183-.226.155-.565-.065-.756-.372-.322-.843-.474-1.324-.43-.29.025-.564.12-.803.275-.24-.155-.513-.25-.803-.277-.482-.044-.952.11-1.322.43" fill="#206FAC"/><path d="M31.154 104.877c.558-.14.9-.723.762-1.298-.137-.58-.7-.93-1.257-.79l-2.757.7v-3.897h3.068c.288 0 .52-.24.52-.537 0-.126-.04-.243-.112-.334l-.717-1.11.74-1.147c.108-.166.118-.378.028-.553-.09-.175-.264-.284-.456-.284h-3.586c-.287 0-.52.24-.52.536v7.586l-.908.23v-8.94c.164-.033.324-.106.463-.224.346-.294.46-.77.323-1.18V92.19c0-.296-.233-.536-.52-.536-.287 0-.52.24-.52.536v.032l-3.86-4.854c-.08-.1-.176-.183-.282-.247v-.866c0-.298-.232-.538-.52-.538-.286 0-.52.24-.52.537v.867c-.106.064-.203.147-.282.247l-2.38 2.992-.267.084-.277-5.01c-.016-.285-.243-.507-.52-.507h-.843l-.023-.003-.11.012c-.23.043-.41.245-.426.495l-.044.81c-.183 1.238-.79 2.245-1.548 2.594v-.67c0-.295-.233-.536-.52-.536-.287 0-.52.24-.52.536v.72c-.974-.35-1.728-1.776-1.728-3.426 0-.297-.233-.537-.52-.537l-.023.003H9.62l-.023-.003c-.285 0-.517.24-.517.536 0 1.9-1.002 3.504-2.188 3.504-1.06 0-1.972-1.282-2.153-2.91l-.035-.624-.005-.036-.008-.058-.01-.034-.023-.067-.01-.015c-.086-.175-.26-.296-.463-.296l-.023.002h-.86c-.275 0-.502.222-.518.506l-.27 4.866-.31-.018c-.504 0-.78.11-1.003.2-.183.075-.316.128-.625.128-.285 0-.518.24-.518.537 0 .297.233.538.52.538.504 0 .78-.11 1.003-.2.183-.075.316-.13.625-.13s.442.055.625.13c.222.09.498.2 1.003.2.506 0 .78-.11 1.005-.2.185-.075.317-.13.626-.13s.442.055.625.13c.223.09.5.2 1.004.2.505 0 .782-.11 1.004-.2.182-.075.315-.13.624-.13s.442.055.625.13c.22.09.5.2 1.005.2l.227-.01-1.943 2.45v-.016c0-.295-.233-.536-.52-.536-.287 0-.52.24-.52.537v1.41l-.01.03-.016.045-.013.057-.01.044-.01.07-.005.036-.004.097v.01l.005.107.008.05.01.054.014.06.01.042.02.053.014.043.02.045.023.05.02.035.034.054.02.027.04.056.025.027.044.05.074.07.02.016.062.048.036.023.053.033.04.02.052.023.043.015.053.02.046.01.052.014.053.01.05.005.07.005.03.002h.324v.42l-.125-.01H5.53v-.928c0-.298-.233-.538-.52-.538-.288 0-.52.24-.52.536v.93h-.6c-.574 0-1.04.48-1.04 1.072v11.386l-.097.025c-.557.14-.897.724-.76 1.3.117.49.54.817 1.008.817l.25-.03 23.625-5.998v1.883L22.33 109c-.278.07-.45.36-.38.65.058.244.27.408.504.408l.125-.016 8.46-2.147c.274-.072.445-.363.38-.65-.07-.288-.35-.464-.63-.394l-2.88.73v-1.88l3.25-.825zm-3.25-8.17H30l-.395.61c-.116.18-.116.415 0 .595l.394.61H27.9v-1.815zm-7.053 8.575v-2.82c-.015-.435-.363-.78-.79-.78-.422 0-.77.345-.79.78v3.22h.01l-1.593.405v-9.103H18l.1-.005.03-.008.064-.01.036-.008.058-.015.037-.01.056-.02.038-.017.057-.028.03-.015.062-.04.02-.01.076-.06.078-.073.045-.05.025-.027.04-.056.02-.028.03-.055.02-.032.024-.05.02-.046.017-.043.02-.055.01-.042.015-.06.008-.05.008-.05.006-.11v-.01l-.006-.095-.006-.037-.01-.067-.01-.046L19 95.6l-.018-.046-.02-.05-.02-.047-.022-.048-.03-.05-.02-.04-.046-.064-.014-.02-.816-1.028h5.89v10.312l-3.027.768zM9.927 95.887l3.348-4.21.02.002 2.013 2.53.5.624.114.145.727.915.01.014h-6.75l.02-.023zm6.476-3.684l-.575-.723.034.014c.213.086.48.19.947.2l-.405.51zm4.64-2.456l2.69 3.382h-5.376l2.688-3.386zm-4.876.597l.19-3.437.19 3.437h-.38zm-.972-1.253l-.065 1.21-.23.015-.473-.594c.277-.16.536-.37.77-.627zm-3.09.678l-.43.544c-.153.015-.28.04-.388.073l-.073-1.336c.266.302.567.546.893.717zm-2.242.578l.19-3.437.19 3.436h-.38zM3.747 86.91l.19 3.436h-.38l.19-3.437zm3.973 3.586c-.184.074-.316.127-.625.127s-.44-.052-.623-.126c-.223-.09-.5-.2-1.004-.2-.193 0-.353.016-.488.04l-.07-1.258c.548.61 1.238.973 1.987.973.755 0 1.448-.37 1.998-.986L8.827 90.3l-.1-.004c-.506 0-.783.11-1.004.2zM4.923 99.54H8.76l.124-.01v8.79l-3.96 1.005V99.54zm8.27 4.393c-.426 0-.772.346-.792.78v2.712l-2.474.63V96.982h6.72v9.366l-2.66.676v-2.31c-.02-.434-.366-.78-.79-.78zm6.198-5.32h1.04v2.312h-1.04v-2.31zm2.11 0h1.04v2.312H21.5v-2.31zm-2.106-2.718h1.04v2.31h-1.04v-2.31zm2.108 0h1.04v2.31H21.5v-2.31zm-8.59 3.35c-.017-.433-.365-.78-.79-.78-.424 0-.77.347-.79.78v1.95h1.583v-1.95zm2.106 0c-.02-.433-.367-.78-.79-.78-.426 0-.773.347-.792.78v1.95h1.583v-1.95zm-3.673 2.602h3.702v1.074H11.34v-1.07zm-5.97.687h1.04v2.31H5.37v-2.31zm1.36 0h1.04v2.31H6.73v-2.31zm-1.36 2.628h1.04v2.31H5.37v-2.31zm1.36 0h1.04v2.31H6.73v-2.31zm.526-3.967c0-.406-.32-.734-.71-.734-.394 0-.712.33-.712.738 0 .405.318.734.71.734.394 0 .712-.33.712-.734zM17.32 82.31h.083l-.023.25c0 .732.574 1.326 1.28 1.326h5.877c.31 0 .613-.118.847-.33.276-.253.435-.615.435-.995s-.16-.74-.438-.99c-.234-.213-.536-.33-.847-.33H22.1l.004-.08c0-.33-.138-.647-.378-.866-.204-.186-.467-.288-.74-.288h-3.67c-.617 0-1.12.518-1.12 1.154 0 .635.502 1.153 1.12 1.153zm0-1.235h3.67l.05.02.028.06-.028.062-.05.02h-.004c-.287 0-.52.24-.52.537 0 .297.233.537.52.537h3.55c.076 0 .13.038.16.068.032.027.084.09.084.187 0 .098-.052.16-.083.19-.032.027-.085.062-.16.062H18.66c-.134 0-.243-.113-.243-.252s.11-.25.243-.25c.287 0 .52-.24.52-.538h.002c0-.296-.233-.537-.52-.537h-1.346c-.043 0-.08-.037-.08-.08 0-.045.037-.08.08-.08zm6.78 5.743c-.22.19-.25.53-.064.757.184.227.513.256.732.066.16-.133.36-.2.565-.18.14.013.273.064.385.148l.007.015c.086.19.27.31.47.31h.06c.203 0 .386-.12.47-.31l.008-.014c.112-.085.244-.136.386-.15.203-.017.404.048.562.185.22.19.548.162.733-.065.184-.228.156-.567-.064-.758-.37-.322-.84-.474-1.322-.43-.29.025-.565.12-.804.275-.24-.154-.513-.25-.803-.276-.48-.042-.95.11-1.32.43" fill="#fff"/><path d="M31.154 64.877c.558-.14.9-.723.762-1.298-.137-.58-.7-.93-1.257-.79l-2.757.7v-3.897h3.068c.288 0 .52-.24.52-.537 0-.126-.04-.243-.112-.334l-.717-1.11.74-1.147c.108-.166.118-.378.028-.553-.09-.175-.264-.284-.456-.284h-3.586c-.287 0-.52.24-.52.536v7.586l-.908.23v-8.94c.164-.033.324-.106.463-.224.346-.294.46-.77.323-1.18V52.19c0-.296-.233-.536-.52-.536-.287 0-.52.24-.52.536v.032l-3.86-4.854c-.08-.1-.176-.183-.282-.247v-.866c0-.298-.232-.538-.52-.538-.286 0-.52.24-.52.537v.867c-.106.064-.203.147-.282.247l-2.38 2.992-.267.084-.277-5.01c-.016-.285-.243-.507-.52-.507h-.843l-.023-.003-.11.012c-.23.043-.41.245-.426.495l-.044.81c-.183 1.238-.79 2.245-1.548 2.594v-.67c0-.295-.233-.536-.52-.536-.287 0-.52.24-.52.536v.72c-.974-.35-1.728-1.776-1.728-3.426 0-.297-.233-.537-.52-.537l-.023.003H9.62l-.023-.003c-.285 0-.517.24-.517.536 0 1.9-1.002 3.504-2.188 3.504-1.06 0-1.972-1.282-2.153-2.91l-.035-.624-.005-.036-.008-.058-.01-.034-.023-.067-.01-.015c-.086-.175-.26-.296-.463-.296l-.023.002h-.86c-.275 0-.502.222-.518.506l-.27 4.866-.31-.018c-.504 0-.78.11-1.003.2-.183.075-.316.128-.625.128-.285 0-.518.24-.518.537 0 .297.233.538.52.538.504 0 .78-.11 1.003-.2.183-.075.316-.13.625-.13s.442.055.625.13c.222.09.498.2 1.003.2.506 0 .78-.11 1.005-.2.185-.075.317-.13.626-.13s.442.055.625.13c.223.09.5.2 1.004.2.505 0 .782-.11 1.004-.2.182-.075.315-.13.624-.13s.442.055.625.13c.22.09.5.2 1.005.2l.227-.01-1.943 2.45v-.016c0-.295-.233-.536-.52-.536-.287 0-.52.24-.52.537v1.41l-.01.03-.016.045-.013.057-.01.044-.01.07-.005.036-.004.097v.01l.005.107.008.05.01.054.014.06.01.042.02.053.014.043.02.045.023.05.02.035.034.054.02.027.04.056.025.027.044.05.074.07.02.016.062.048.036.023.053.033.04.02.052.023.043.015.053.02.046.01.052.014.053.01.05.005.07.005.03.002h.324v.42l-.125-.01H5.53v-.928c0-.298-.233-.538-.52-.538-.288 0-.52.24-.52.536v.93h-.6c-.574 0-1.04.48-1.04 1.072V69.84l-.097.025c-.557.14-.897.724-.76 1.3.117.49.54.817 1.008.817l.25-.03 23.625-5.998v1.883L22.33 69c-.278.07-.45.36-.38.65.058.244.27.408.504.408l.125-.016 8.46-2.147c.274-.072.445-.363.38-.65-.07-.288-.35-.464-.63-.394l-2.88.73V65.7l3.25-.825zm-3.25-8.17H30l-.395.61c-.116.18-.116.415 0 .595l.394.61H27.9v-1.815zm-7.053 8.575v-2.82c-.015-.435-.363-.78-.79-.78-.422 0-.77.345-.79.78v3.22h.01l-1.593.405v-9.103H18l.1-.005.03-.008.064-.01.036-.008.058-.015.037-.01.056-.02.038-.017.057-.028.03-.015.062-.04.02-.01.076-.06.078-.073.045-.05.025-.027.04-.056.02-.028.03-.055.02-.032.024-.05.02-.046.017-.043.02-.055.01-.042.015-.06.008-.05.008-.05.006-.11v-.01l-.006-.095-.006-.037-.01-.067-.01-.046L19 55.6l-.018-.046-.02-.05-.02-.047-.022-.048-.03-.05-.02-.04-.046-.064-.014-.02-.816-1.028h5.89V64.52l-3.027.768zM9.927 55.887l3.348-4.21.02.002 2.013 2.53.5.624.114.145.727.915.01.014h-6.75l.02-.023zm6.476-3.684l-.575-.723.034.014c.213.086.48.19.947.2l-.405.51zm4.64-2.456l2.69 3.382h-5.376l2.688-3.386zm-4.876.597l.19-3.437.19 3.437h-.38zm-.972-1.253l-.065 1.21-.23.015-.473-.594c.277-.16.536-.37.77-.627zm-3.09.678l-.43.544c-.153.015-.28.04-.388.073l-.073-1.336c.266.302.567.546.893.717zm-2.242.578l.19-3.437.19 3.436h-.38zM3.747 46.91l.19 3.436h-.38l.19-3.437zm3.973 3.586c-.184.074-.316.127-.625.127s-.44-.052-.623-.126c-.223-.09-.5-.2-1.004-.2-.193 0-.353.016-.488.04l-.07-1.258c.548.61 1.238.973 1.987.973.755 0 1.448-.37 1.998-.986L8.827 50.3l-.1-.004c-.506 0-.783.11-1.004.2zM4.923 59.54H8.76l.124-.01v8.79l-3.96 1.005V59.54zm8.27 4.393c-.426 0-.772.346-.792.78v2.712l-2.474.63V56.982h6.72v9.366l-2.66.676v-2.31c-.02-.434-.366-.78-.79-.78zm6.198-5.32h1.04v2.312h-1.04v-2.31zm2.11 0h1.04v2.312H21.5v-2.31zm-2.106-2.718h1.04v2.31h-1.04v-2.31zm2.108 0h1.04v2.31H21.5v-2.31zm-8.59 3.35c-.017-.433-.365-.78-.79-.78-.424 0-.77.347-.79.78v1.95h1.583v-1.95zm2.106 0c-.02-.433-.367-.78-.79-.78-.426 0-.773.347-.792.78v1.95h1.583v-1.95zm-3.673 2.602h3.702v1.074H11.34v-1.07zm-5.97.687h1.04v2.31H5.37v-2.31zm1.36 0h1.04v2.31H6.73v-2.31zm-1.36 2.628h1.04v2.31H5.37v-2.31zm1.36 0h1.04v2.31H6.73v-2.31zm.526-3.967c0-.406-.32-.734-.71-.734-.394 0-.712.33-.712.738 0 .405.318.734.71.734.394 0 .712-.33.712-.734zM17.32 42.31h.083l-.023.25c0 .732.574 1.326 1.28 1.326h5.877c.31 0 .613-.118.847-.33.276-.253.435-.615.435-.995s-.16-.74-.438-.99c-.234-.213-.536-.33-.847-.33H22.1l.004-.08c0-.33-.138-.647-.378-.866-.204-.186-.467-.288-.74-.288h-3.67c-.617 0-1.12.518-1.12 1.154 0 .635.502 1.153 1.12 1.153zm0-1.235h3.67l.05.02.028.06-.028.062-.05.02h-.004c-.287 0-.52.24-.52.537 0 .297.233.537.52.537h3.55c.076 0 .13.038.16.068.032.027.084.09.084.187 0 .098-.052.16-.083.19-.032.027-.085.062-.16.062H18.66c-.134 0-.243-.113-.243-.252s.11-.25.243-.25c.287 0 .52-.24.52-.538h.002c0-.296-.233-.537-.52-.537h-1.346c-.043 0-.08-.037-.08-.08 0-.045.037-.08.08-.08zm6.78 5.743c-.22.19-.25.53-.064.757.184.227.513.256.732.066.16-.133.36-.2.565-.18.14.013.273.064.385.148l.007.015c.086.19.27.31.47.31h.06c.203 0 .386-.12.47-.31l.008-.014c.112-.085.244-.136.386-.15.203-.017.404.048.562.185.22.19.548.162.733-.065.184-.228.156-.567-.064-.758-.37-.322-.84-.474-1.322-.43-.29.025-.565.12-.804.275-.24-.154-.513-.25-.803-.276-.48-.042-.95.11-1.32.43" fill="#67737B"/><path d="M31.154 24.877c.558-.14.9-.723.762-1.298-.137-.58-.7-.93-1.257-.79l-2.757.7v-3.897h3.068c.288 0 .52-.24.52-.537 0-.126-.04-.243-.112-.334l-.717-1.11.74-1.147c.108-.166.118-.378.028-.553-.09-.175-.264-.284-.456-.284h-3.586c-.287 0-.52.24-.52.536v7.586l-.908.23v-8.94c.164-.033.324-.106.463-.224.346-.294.46-.77.323-1.18V12.19c0-.296-.233-.536-.52-.536-.287 0-.52.24-.52.536v.032l-3.86-4.854c-.08-.1-.176-.183-.282-.247v-.86c0-.297-.232-.537-.52-.537-.286 0-.52.24-.52.537v.865c-.106.064-.203.147-.282.247l-2.38 2.992-.267.086-.277-5.01c-.016-.284-.243-.506-.52-.506h-.843l-.023-.002-.11.012c-.23.044-.41.246-.426.496l-.044.81c-.183 1.237-.79 2.244-1.548 2.593v-.67c0-.295-.233-.536-.52-.536-.287 0-.52.24-.52.537v.72c-.974-.35-1.728-1.775-1.728-3.425 0-.3-.233-.54-.52-.54l-.023.002H9.6c-.286 0-.518.24-.518.535 0 1.9-1.002 3.503-2.188 3.503-1.06 0-1.972-1.28-2.153-2.91l-.03-.623-.006-.037-.008-.058-.01-.033-.023-.07-.01-.014c-.084-.175-.26-.296-.46-.296l-.024.003h-.86c-.276 0-.503.222-.52.506l-.27 4.865-.306-.02c-.504 0-.78.11-1.003.2-.182.076-.315.13-.624.13-.285 0-.518.24-.518.536 0 .297.233.538.52.538.504 0 .78-.11 1.003-.2.184-.076.317-.13.626-.13s.442.054.625.13c.223.09.5.2 1.004.2.505 0 .78-.11 1.004-.2.184-.076.316-.13.625-.13s.44.054.624.13c.222.09.498.2 1.003.2.504 0 .78-.11 1.003-.2.183-.076.316-.13.625-.13s.442.054.625.13c.22.09.497.2 1.003.2l.227-.01L8.64 14.12v-.016c0-.295-.233-.536-.52-.536-.287 0-.52.24-.52.537v1.41l-.01.03-.016.046-.013.058-.01.044-.01.068-.003.037-.004.096v.01l.005.106.008.05.01.052.013.06.01.04.02.054.013.044.02.044.024.05.02.036.034.054.02.028.04.056.026.027.043.05.073.07.02.016.063.05.035.02.054.034.04.02.053.024.044.016.054.02.047.01.053.015.053.01.05.006.067.004.032.003h.323v.42l-.125-.01h-3.24v-.93c0-.295-.232-.535-.52-.535-.287 0-.52.24-.52.535v.93H3.89c-.574 0-1.04.48-1.04 1.073V29.85l-.097.024c-.557.14-.897.722-.76 1.3.117.49.54.815 1.008.815l.25-.03 23.625-6v1.885L22.33 29c-.277.07-.45.36-.38.65.06.244.27.408.505.408l.125-.016 8.46-2.147c.276-.07.447-.362.38-.65-.07-.287-.35-.463-.63-.393l-2.877.73v-1.884l3.248-.825zm-3.25-8.17H30l-.395.61c-.116.18-.116.415 0 .595l.394.61H27.9v-1.815zm-7.053 8.575v-2.82c-.015-.435-.363-.78-.79-.78-.422 0-.77.345-.79.78v3.22h.01l-1.593.405v-9.103H18l.1-.005.03-.008.064-.01.036-.008.058-.015.037-.01.056-.02.038-.017.057-.028.03-.015.062-.04.02-.01.076-.06.078-.073.045-.05.025-.027.04-.056.02-.028.03-.055.02-.032.024-.05.02-.046.017-.043.02-.055.01-.042.015-.06.008-.05.008-.05.006-.11v-.01l-.006-.095-.006-.037-.01-.067-.01-.046L19 15.6l-.018-.046-.02-.05-.02-.047-.022-.048-.03-.05-.02-.04-.046-.064-.014-.02-.816-1.028h5.89V24.52l-3.027.768zM9.927 15.887l3.348-4.21.02.002 2.013 2.53.5.624.114.145.727.915.01.014h-6.75l.02-.023zm6.476-3.684l-.575-.723.034.014c.213.086.48.19.947.2l-.405.51zm4.64-2.456l2.69 3.382h-5.376l2.688-3.386zm-4.876.597l.19-3.437.19 3.437h-.38zM15.19 9.09l-.066 1.206-.23.016-.472-.594c.277-.16.536-.37.77-.627zm-3.09.675l-.432.544c-.152.01-.278.04-.387.07l-.07-1.337c.266.303.567.547.893.718zm-2.243.578l.19-3.437.19 3.437h-.38zM3.742 6.906l.19 3.437h-.38l.19-3.437zm3.973 3.587c-.184.074-.316.127-.625.127s-.44-.053-.624-.127c-.223-.09-.5-.2-1.004-.2-.193 0-.353.016-.488.04l-.07-1.258c.548.61 1.238.974 1.987.974.758 0 1.45-.37 2-.99l-.07 1.233-.1-.003c-.503 0-.78.11-1 .2zM4.923 19.54H8.76l.124-.01v8.79l-3.96 1.005V19.54zm8.27 4.393c-.426 0-.772.346-.792.78v2.712l-2.474.63V16.982h6.72v9.366l-2.66.676v-2.31c-.02-.434-.366-.78-.79-.78zm6.198-5.32h1.04v2.312h-1.04v-2.31zm2.11 0h1.04v2.312H21.5v-2.31zm-2.106-2.718h1.04v2.31h-1.04v-2.31zm2.108 0h1.04v2.31H21.5v-2.31zm-8.59 3.35c-.017-.433-.365-.78-.79-.78-.424 0-.77.347-.79.78v1.95h1.583v-1.95zm2.106 0c-.02-.433-.367-.78-.79-.78-.426 0-.773.347-.792.78v1.95h1.583v-1.95zm-3.673 2.602h3.702v1.074H11.34v-1.07zm-5.97.687h1.04v2.31H5.37v-2.31zm1.36 0h1.04v2.31H6.73v-2.31zm-1.36 2.628h1.04v2.31H5.37v-2.31zm1.36 0h1.04v2.31H6.73v-2.31zm.526-3.967c0-.406-.32-.734-.71-.734-.394 0-.712.33-.712.738 0 .405.318.734.71.734.394 0 .712-.33.712-.734zM17.316 2.31h.084l-.024.25c0 .732.575 1.326 1.282 1.326h5.874c.31 0 .613-.118.847-.33.276-.253.435-.615.435-.995s-.16-.74-.435-.99c-.233-.213-.535-.33-.846-.33H22.1l.004-.08c0-.33-.138-.647-.378-.866-.204-.186-.467-.288-.74-.288h-3.67c-.617 0-1.12.518-1.12 1.154 0 .635.502 1.153 1.12 1.153zm0-1.235h3.67l.052.02.027.06-.028.062-.05.02h-.003c-.287 0-.52.24-.52.537 0 .297.233.537.52.537h3.55c.076 0 .13.038.16.068.032.027.084.09.084.187 0 .098-.052.16-.083.19-.032.027-.085.062-.16.062h-5.877c-.134 0-.243-.113-.243-.252s.11-.25.243-.25c.287 0 .52-.24.52-.538h.002c0-.296-.234-.537-.52-.537h-1.347c-.043 0-.08-.037-.08-.08 0-.045.037-.08.08-.08zm6.78 5.743c-.22.19-.248.53-.063.757.184.227.513.256.732.066.16-.133.36-.2.565-.18.14.013.272.064.384.148l.007.015c.087.19.27.31.47.31h.06c.204 0 .387-.12.47-.31l.01-.014c.11-.085.243-.136.385-.15.205-.017.406.048.564.185.22.19.547.162.732-.065.184-.228.156-.567-.064-.758-.374-.322-.845-.474-1.326-.43-.29.025-.564.12-.803.275-.24-.154-.513-.25-.803-.276-.483-.042-.953.11-1.323.43" fill="#3A434E"/></g></svg>