<svg width="32" height="232" viewBox="0 0 32 232" xmlns="http://www.w3.org/2000/svg"><title>chicago</title><desc>Created with Sketch.</desc><g fill="none"><path d="M30.948 149.374h-1.64V143.5h1.155c.29 0 .526-.24.526-.535 0-.295-.236-.534-.527-.534h-1.156v-4.05c0-.294-.235-.533-.526-.533h-3.62c-.195 0-.373.11-.464.282-.09.173-.08.383.026.547l.748 1.14-.748 1.143c-.108.164-.117.375-.026.548.09.174.27.282.463.282h3.097v.64H25.29c-.29 0-.525.24-.525.535v.794h-.683l-.874-16.305c-.03-.567-.49-1.01-1.05-1.01h-.194v-3.31c0-.296-.235-.535-.526-.535-.29 0-.525.24-.525.534v3.31h-1.69v-3.31c0-.295-.234-.534-.524-.534-.29 0-.526.24-.526.534v3.31h-.195c-.56 0-1.02.444-1.05 1.01l-.652 12.146h-.894v-1.763c0-.464-.293-.86-.7-1.006v-5.295c0-.4-.216-.747-.535-.93v-5.372c0-.556-.417-1.01-.95-1.063v-3.138c0-.295-.235-.535-.525-.535-.29 0-.525.24-.525.535v3.133h-.32v-1.134c0-.294-.234-.533-.524-.533-.29 0-.525.24-.525.534v1.135h-.318v-3.133c0-.295-.235-.535-.525-.535-.29 0-.525.24-.525.535v3.138c-.533.05-.95.507-.95 1.063v5.372c-.32.183-.535.53-.535.93v2.35H3.98c-.29 0-.526.24-.526.534 0 .294.235.533.525.533h3.947v1.878c-.407.148-.7.542-.7 1.007v4.593H4.594c-.29 0-.526.24-.526.534v6.41h-.625l-.12-9.103 1.316 1.167c.098.088.22.13.344.13.146 0 .292-.06.396-.182.19-.222.168-.56-.05-.753l-1.82-1.61 1.582-1.852c.19-.222.168-.56-.052-.753-.22-.194-.55-.17-.74.052l-1.584 1.85-1.82-1.61c-.218-.195-.55-.172-.74.05-.19.224-.167.56.052.755l1.82 1.61-1.583 1.852c-.19.222-.167.56.052.753.1.088.222.13.345.13.146 0 .292-.06.396-.183l.988-1.155-.117 8.85H1.052c-.58 0-1.05.478-1.05 1.068 0 .59.47 1.07 1.05 1.07H30.95c.58 0 1.05-.48 1.05-1.07 0-.59-.47-1.068-1.05-1.068zm-6.565 0l-.014-.265c.432-.482.695-1.122.695-1.824 0-.71-.27-1.38-.758-1.89l-.014-.014-.045-.045-.086-.082-.023-.428h1.15c.29 0 .525-.24.525-.535v-.794h2.442v5.875h-3.874zm-14.357-16.77h2.558v4.167h-2.558v-4.165zm11.48 16.04l-.045-.028c-.803-.44-1.714-.675-2.632-.675-.3 0-.6.028-.896.078-.607.1-1.197.3-1.738.598l-.045.028-.182.105-.183.08c-.13.046-.264.075-.4.087l-.137.008c-.888 0-1.61-.734-1.61-1.637 0-.428.162-.832.455-1.14l.04-.04.088-.08.015-.014c.317-.28.705-.524 1.15-.727.19-.087.392-.167.602-.238.64-.22 1.362-.363 2.126-.418.234-.017.473-.026.714-.026 1.19 0 2.312.21 3.23.59.532.22.996.495 1.36.818l.004.002.012.01.09.084.035.034c.297.308.46.715.46 1.144 0 .903-.723 1.637-1.61 1.637l-.15-.01c-.198-.018-.388-.072-.57-.165l-.18-.105zm-2.593-18.934l.413.42-.46.47.047-.89zm2.347 5.824l-1.19 1.21-1.192-1.21 1.19-1.212 1.192 1.212zm.1 4.035l-1.29 1.312-1.292-1.313 1.29-1.314 1.292 1.313zm.19 4.33c-.804-.227-1.69-.352-2.608-.36l1.126-1.147 1.482 1.508zm.375-1.13l-1.114-1.133 1-1.017.115 2.15zm-.235-4.375l-.88-.894.79-.8.09 1.696zm-.223-4.16l-.657-.67.588-.598.068 1.267zm-.195-3.635l-.462-.47.414-.42.048.89zm-.258 1.248l-.946.963-.946-.962.946-.963.946.963zm-1.69 1.718l-.655.668.067-1.267.588.6zm0 3.934l-.878.894.09-1.697.79.802zm0 4.137l-1.113 1.134.117-2.15 1 1.018zm-3.278 2.278c-.228.066-.45.14-.663.22v-3.467h.838l-.173 3.247zm10.093-3.194l.398-.605c.118-.18.118-.413 0-.593l-.4-.607h2.118v1.806H26.14zm-5.293-12.14l-.78.795-.78-.794h1.56zm-10.287-2.277h1.487v4.165H10.56v-4.165zM5.116 143.5h2.11v5.873h-2.11V143.5zm4.21 5.874v-10.468h3.956v6.557c-.45.5-.697 1.144-.697 1.823 0 .702.265 1.342.697 1.824v.264H9.325zm8.53 0l.014-.26c.313-.068.633-.105.955-.105.604 0 1.204.126 1.758.365h-2.727zM2.33 133.354h4.744c.29 0 .525-.24.525-.534 0-.295-.236-.535-.526-.535H2.33c-.184 0-.333-.152-.333-.338 0-.186.15-.338.332-.338.29 0 .524-.24.524-.535 0-.295-.235-.534-.525-.534-.763 0-1.383.632-1.383 1.407s.62 1.406 1.382 1.406zm22.47 1.868h3.28c.29 0 .526-.24.526-.534 0-.295-.235-.535-.525-.535H24.8c-.29 0-.526.24-.526.535 0 .295.235.534.525.534zm1.64-1.478h1.845c.29 0 .525-.24.525-.534 0-.295-.235-.535-.525-.535H26.44c-.29 0-.525.24-.525.535 0 .295.235.534.525.534zm-8.063 11.78l-.316.02c-.743.053-1.46.182-2.122.382-.19.057-.376.12-.555.187l-.374.154c-.266.12-.388.434-.27.704.085.2.278.32.48.32l.163-.03.047-.014.447-.177c.645-.234 1.366-.388 2.127-.453l.415-.026c.29-.01.514-.26.502-.554-.01-.295-.257-.523-.546-.513zm1.59.016h-.14c-.29 0-.524.24-.524.534 0 .295.235.534.525.534h.14c.29 0 .526-.24.526-.534 0-.295-.235-.534-.526-.534z" fill="#206FAC"/><path d="M30.948 109.374h-1.64V103.5h1.155c.29 0 .526-.24.526-.535 0-.295-.236-.534-.527-.534h-1.156v-4.05c0-.294-.235-.533-.526-.533h-3.62c-.195 0-.373.11-.464.282-.09.173-.08.383.026.547l.748 1.14-.748 1.143c-.108.164-.117.375-.026.548.09.174.27.282.463.282h3.097v.64H25.29c-.29 0-.525.24-.525.535v.794h-.683l-.874-16.305c-.03-.567-.49-1.01-1.05-1.01h-.194v-3.31c0-.296-.235-.535-.526-.535-.29 0-.525.24-.525.534v3.31h-1.69v-3.31c0-.295-.234-.534-.524-.534-.29 0-.526.24-.526.534v3.31h-.195c-.56 0-1.02.444-1.05 1.01L16.278 99.6h-.894v-1.763c0-.464-.293-.86-.7-1.006v-5.295c0-.4-.216-.747-.535-.93v-5.372c0-.556-.417-1.01-.95-1.063v-3.138c0-.295-.235-.535-.525-.535-.29 0-.525.24-.525.535v3.133h-.32V83.03c0-.294-.234-.533-.524-.533-.29 0-.525.24-.525.534v1.135h-.318v-3.133c0-.295-.235-.535-.525-.535-.29 0-.525.24-.525.535v3.138c-.533.05-.95.507-.95 1.063v5.372c-.32.183-.535.53-.535.93v2.35H3.98c-.29 0-.526.24-.526.534 0 .294.235.533.525.533h3.947v1.878c-.407.148-.7.542-.7 1.007v4.593H4.594c-.29 0-.526.24-.526.534v6.41h-.625l-.12-9.103 1.316 1.167c.098.088.22.13.344.13.146 0 .292-.06.396-.182.19-.222.168-.56-.05-.753l-1.82-1.61L5.09 97.17c.19-.222.168-.56-.052-.753-.22-.194-.55-.17-.74.052l-1.584 1.85-1.82-1.61c-.218-.195-.55-.172-.74.05-.19.224-.167.56.052.755l1.82 1.61-1.583 1.852c-.19.222-.167.56.052.753.1.088.222.13.345.13.146 0 .292-.06.396-.183l.988-1.155-.117 8.85H1.052c-.58 0-1.05.478-1.05 1.068 0 .59.47 1.07 1.05 1.07H30.95c.58 0 1.05-.48 1.05-1.07 0-.59-.47-1.068-1.05-1.068zm-6.565 0l-.014-.265c.432-.482.695-1.122.695-1.824 0-.71-.27-1.38-.758-1.89l-.014-.014-.045-.045-.086-.082-.023-.428h1.15c.29 0 .525-.24.525-.535v-.794h2.442v5.875h-3.874zm-14.357-16.77h2.558v4.167h-2.558v-4.165zm11.48 16.04l-.045-.028c-.803-.44-1.714-.675-2.632-.675-.3 0-.6.028-.896.078-.607.1-1.197.3-1.738.598l-.045.028-.182.105-.183.08c-.13.046-.264.075-.4.087l-.137.008c-.888 0-1.61-.734-1.61-1.637 0-.428.162-.832.455-1.14l.04-.04.088-.08.015-.014c.317-.28.705-.524 1.15-.727.19-.087.392-.167.602-.238.64-.22 1.362-.363 2.126-.418.234-.017.473-.026.714-.026 1.19 0 2.312.21 3.23.59.532.22.996.495 1.36.818l.004.002.012.01.09.084.035.034c.297.308.46.715.46 1.144 0 .903-.723 1.637-1.61 1.637l-.15-.01c-.198-.018-.388-.072-.57-.165l-.18-.105zM18.913 89.71l.413.42-.46.47.047-.89zm2.347 5.824l-1.19 1.21-1.192-1.21 1.19-1.212 1.192 1.212zm.1 4.035l-1.29 1.312-1.292-1.313 1.29-1.314 1.292 1.313zm.19 4.33c-.804-.227-1.69-.352-2.608-.36l1.126-1.147 1.482 1.508zm.375-1.13l-1.114-1.133 1-1.017.115 2.15zm-.235-4.375l-.88-.894.79-.8.09 1.696zm-.223-4.16l-.657-.67.588-.598.068 1.267zm-.195-3.635l-.462-.47.414-.42.048.89zm-.258 1.248l-.946.963-.946-.962.946-.963.946.963zm-1.69 1.718l-.655.668.067-1.267.588.6zm0 3.934l-.878.894.09-1.697.79.802zm0 4.137l-1.113 1.134.117-2.15 1 1.018zm-3.278 2.278c-.228.066-.45.14-.663.22v-3.467h.838l-.173 3.247zm10.093-3.194l.398-.605c.118-.18.118-.413 0-.593l-.4-.607h2.118v1.806H26.14zm-5.293-12.14l-.78.795-.78-.794h1.56zM10.56 86.304h1.487v4.165H10.56v-4.165zM5.116 103.5h2.11v5.873h-2.11V103.5zm4.21 5.874V98.906h3.956v6.557c-.45.5-.697 1.144-.697 1.823 0 .702.265 1.342.697 1.824v.264H9.325zm8.53 0l.014-.26c.313-.068.633-.105.955-.105.604 0 1.204.126 1.758.365h-2.727zM2.33 93.354h4.744c.29 0 .525-.24.525-.534 0-.295-.236-.535-.526-.535H2.33c-.184 0-.333-.152-.333-.338 0-.186.15-.338.332-.338.29 0 .524-.24.524-.535 0-.295-.235-.534-.525-.534-.763 0-1.383.632-1.383 1.407s.62 1.406 1.382 1.406zm22.47 1.868h3.28c.29 0 .526-.24.526-.534 0-.295-.235-.535-.525-.535H24.8c-.29 0-.526.24-.526.535 0 .295.235.534.525.534zm1.64-1.478h1.845c.29 0 .525-.24.525-.534 0-.295-.235-.535-.525-.535H26.44c-.29 0-.525.24-.525.535 0 .295.235.534.525.534zm-8.063 11.78l-.316.02c-.743.053-1.46.182-2.122.382-.19.057-.376.12-.555.187l-.374.154c-.266.12-.388.434-.27.704.085.2.278.32.48.32l.163-.03.047-.014.447-.177c.645-.234 1.366-.388 2.127-.453l.415-.026c.29-.01.514-.26.502-.554-.01-.295-.257-.523-.546-.513zm1.59.016h-.14c-.29 0-.524.24-.524.534 0 .295.235.534.525.534h.14c.29 0 .526-.24.526-.534 0-.295-.235-.534-.526-.534z" fill="#fff"/><path d="M30.948 69.374h-1.64V63.5h1.155c.29 0 .526-.24.526-.535 0-.295-.236-.534-.527-.534h-1.156v-4.05c0-.294-.235-.533-.526-.533h-3.62c-.195 0-.373.11-.464.282-.09.173-.08.383.026.547l.748 1.14-.748 1.143c-.108.164-.117.375-.026.548.09.174.27.282.463.282h3.097v.64H25.29c-.29 0-.525.24-.525.535v.794h-.683l-.874-16.305c-.03-.567-.49-1.01-1.05-1.01h-.194v-3.31c0-.296-.235-.535-.526-.535-.29 0-.525.24-.525.534v3.31h-1.69v-3.31c0-.295-.234-.534-.524-.534-.29 0-.526.24-.526.534v3.31h-.195c-.56 0-1.02.444-1.05 1.01L16.278 59.6h-.894v-1.763c0-.464-.293-.86-.7-1.006v-5.295c0-.4-.216-.747-.535-.93v-5.372c0-.556-.417-1.01-.95-1.063v-3.138c0-.295-.235-.535-.525-.535-.29 0-.525.24-.525.535v3.133h-.32V43.03c0-.294-.234-.533-.524-.533-.29 0-.525.24-.525.534v1.135h-.318v-3.133c0-.295-.235-.535-.525-.535-.29 0-.525.24-.525.535v3.138c-.533.05-.95.507-.95 1.063v5.372c-.32.183-.535.53-.535.93v2.35H3.98c-.29 0-.526.24-.526.534 0 .294.235.533.525.533h3.947v1.878c-.407.148-.7.542-.7 1.007v4.593H4.594c-.29 0-.526.24-.526.534v6.41h-.625l-.12-9.103 1.316 1.167c.098.088.22.13.344.13.146 0 .292-.06.396-.182.19-.222.168-.56-.05-.753l-1.82-1.61L5.09 57.17c.19-.222.168-.56-.052-.753-.22-.194-.55-.17-.74.052l-1.584 1.85-1.82-1.61c-.218-.195-.55-.172-.74.05-.19.224-.167.56.052.755l1.82 1.61-1.583 1.852c-.19.222-.167.56.052.753.1.088.222.13.345.13.146 0 .292-.06.396-.183l.988-1.155-.117 8.85H1.052c-.58 0-1.05.478-1.05 1.068 0 .59.47 1.07 1.05 1.07H30.95c.58 0 1.05-.48 1.05-1.07 0-.59-.47-1.068-1.05-1.068zm-6.565 0l-.014-.265c.432-.482.695-1.122.695-1.824 0-.71-.27-1.38-.758-1.89l-.014-.014-.045-.045-.086-.082-.023-.428h1.15c.29 0 .525-.24.525-.535v-.794h2.442v5.875h-3.874zm-14.357-16.77h2.558v4.167h-2.558v-4.165zm11.48 16.04l-.045-.028c-.803-.44-1.714-.675-2.632-.675-.3 0-.6.028-.896.078-.607.1-1.197.3-1.738.598l-.045.028-.182.105-.183.08c-.13.046-.264.075-.4.087l-.137.008c-.888 0-1.61-.734-1.61-1.637 0-.428.162-.832.455-1.14l.04-.04.088-.08.015-.014c.317-.28.705-.524 1.15-.727.19-.087.392-.167.602-.238.64-.22 1.362-.363 2.126-.418.234-.017.473-.026.714-.026 1.19 0 2.312.21 3.23.59.532.22.996.495 1.36.818l.004.002.012.01.09.084.035.034c.297.308.46.715.46 1.144 0 .903-.723 1.637-1.61 1.637l-.15-.01c-.198-.018-.388-.072-.57-.165l-.18-.105zM18.913 49.71l.413.42-.46.47.047-.89zm2.347 5.824l-1.19 1.21-1.192-1.21 1.19-1.212 1.192 1.212zm.1 4.035l-1.29 1.312-1.292-1.313 1.29-1.314 1.292 1.313zm.19 4.33c-.804-.227-1.69-.352-2.608-.36l1.126-1.147L21.55 63.9zm.375-1.13l-1.114-1.133 1-1.017.115 2.15zm-.235-4.375l-.88-.894.79-.8.09 1.696zm-.223-4.16l-.657-.67.588-.598.068 1.267zm-.195-3.635l-.462-.47.414-.42.048.89zm-.258 1.248l-.946.963-.946-.962.946-.963.946.963zm-1.69 1.718l-.655.668.067-1.267.588.6zm0 3.934l-.878.894.09-1.697.79.802zm0 4.137l-1.113 1.134.117-2.15 1 1.018zm-3.278 2.278c-.228.066-.45.14-.663.22V60.67h.838l-.173 3.247zM26.14 60.72l.398-.605c.118-.18.118-.413 0-.593l-.4-.607h2.118v1.806H26.14zm-5.293-12.14l-.78.795-.78-.794h1.56zM10.56 46.304h1.487v4.165H10.56v-4.165zM5.116 63.5h2.11v5.873h-2.11V63.5zm4.21 5.874V58.906h3.956v6.557c-.45.5-.697 1.144-.697 1.823 0 .702.265 1.342.697 1.824v.264H9.325zm8.53 0l.014-.26c.313-.068.633-.105.955-.105.604 0 1.204.126 1.758.365h-2.727zM2.33 53.354h4.744c.29 0 .525-.24.525-.534 0-.295-.236-.535-.526-.535H2.33c-.184 0-.333-.152-.333-.338 0-.186.15-.338.332-.338.29 0 .524-.24.524-.535 0-.295-.235-.534-.525-.534-.763 0-1.383.632-1.383 1.407s.62 1.406 1.382 1.406zm22.47 1.868h3.28c.29 0 .526-.24.526-.534 0-.295-.235-.535-.525-.535H24.8c-.29 0-.526.24-.526.535 0 .295.235.534.525.534zm1.64-1.478h1.845c.29 0 .525-.24.525-.534 0-.295-.235-.535-.525-.535H26.44c-.29 0-.525.24-.525.535 0 .295.235.534.525.534zm-8.063 11.78l-.316.02c-.743.053-1.46.182-2.122.382-.19.057-.376.12-.555.187l-.374.154c-.266.12-.388.434-.27.704.085.2.278.32.48.32l.163-.03.047-.014.447-.177c.645-.234 1.366-.388 2.127-.453l.415-.026c.29-.01.514-.26.502-.554-.01-.295-.257-.523-.546-.513zm1.59.016h-.14c-.29 0-.524.24-.524.534 0 .295.235.534.525.534h.14c.29 0 .526-.24.526-.534 0-.295-.235-.534-.526-.534z" fill="#67737B"/><path d="M30.948 29.374h-1.64V23.5h1.155c.29 0 .526-.24.526-.535 0-.295-.236-.534-.527-.534h-1.156v-4.05c0-.294-.235-.533-.526-.533h-3.62c-.195 0-.373.11-.464.282-.09.173-.08.383.026.547l.748 1.14-.748 1.143c-.108.164-.117.375-.026.548.09.174.27.282.463.282h3.097v.64H25.29c-.29 0-.525.24-.525.535v.794h-.683l-.874-16.305c-.03-.567-.49-1.01-1.05-1.01h-.194v-3.31c0-.296-.235-.535-.526-.535-.29 0-.525.24-.525.534v3.31h-1.69v-3.31c0-.295-.234-.534-.524-.534-.29 0-.526.24-.526.534v3.31h-.195c-.56 0-1.02.444-1.05 1.01L16.278 19.6h-.894v-1.763c0-.464-.293-.86-.7-1.006v-5.295c0-.4-.216-.747-.535-.93V5.232c0-.556-.417-1.01-.95-1.063V1.032c0-.295-.235-.535-.525-.535-.29 0-.525.24-.525.535v3.133h-.32V3.03c0-.294-.234-.533-.524-.533-.29 0-.525.24-.525.534v1.135h-.318V1.032c0-.295-.235-.535-.525-.535-.29 0-.525.24-.525.535V4.17c-.533.05-.95.507-.95 1.063v5.372c-.32.183-.535.53-.535.93v2.35H3.98c-.29 0-.526.24-.526.534 0 .294.235.533.525.533h3.947v1.878c-.407.148-.7.542-.7 1.007v4.593H4.594c-.29 0-.526.24-.526.534v6.41h-.625l-.12-9.103 1.316 1.167c.098.088.22.13.344.13.146 0 .292-.06.396-.182.19-.222.168-.56-.05-.753l-1.82-1.61L5.09 17.17c.19-.222.168-.56-.052-.753-.22-.194-.55-.17-.74.052l-1.584 1.85-1.82-1.61c-.218-.195-.55-.172-.74.05-.19.224-.167.56.052.755l1.82 1.61-1.583 1.852c-.19.222-.167.56.052.753.1.088.222.13.345.13.146 0 .292-.06.396-.183l.988-1.155-.117 8.85H1.052c-.58 0-1.05.478-1.05 1.068 0 .59.47 1.07 1.05 1.07H30.95c.58 0 1.05-.48 1.05-1.07 0-.59-.47-1.068-1.05-1.068zm-6.565 0l-.014-.265c.432-.482.695-1.122.695-1.824 0-.71-.27-1.38-.758-1.89l-.014-.014-.045-.045-.086-.082-.023-.428h1.15c.29 0 .525-.24.525-.535v-.794h2.442v5.875h-3.874zm-14.357-16.77h2.558v4.167h-2.558v-4.165zm11.48 16.04l-.045-.028c-.803-.44-1.714-.675-2.632-.675-.3 0-.6.028-.896.078-.607.1-1.197.3-1.738.598l-.045.028-.182.105-.183.08c-.13.046-.264.075-.4.087l-.137.008c-.888 0-1.61-.734-1.61-1.637 0-.428.162-.832.455-1.14l.04-.04.088-.08.015-.014c.317-.28.705-.524 1.15-.727.19-.087.392-.167.602-.238.64-.22 1.362-.363 2.126-.418.234-.017.473-.026.714-.026 1.19 0 2.312.21 3.23.59.532.22.996.495 1.36.818l.004.002.012.01.09.084.035.034c.297.308.46.715.46 1.144 0 .903-.723 1.637-1.61 1.637l-.15-.01c-.198-.018-.388-.072-.57-.165l-.18-.105zM18.913 9.71l.413.42-.46.47.047-.89zm2.347 5.824l-1.19 1.21-1.192-1.21 1.19-1.212 1.192 1.212zm.1 4.035l-1.29 1.312-1.292-1.313 1.29-1.314 1.292 1.313zm.19 4.33c-.804-.227-1.69-.352-2.608-.36l1.126-1.147L21.55 23.9zm.375-1.13l-1.114-1.133 1-1.017.115 2.15zm-.235-4.375l-.88-.894.79-.8.09 1.696zm-.223-4.16l-.657-.67.588-.598.068 1.267zm-.195-3.635l-.462-.47.414-.42.048.89zm-.258 1.248l-.946.963-.946-.962.946-.963.946.963zm-1.69 1.718l-.655.668.067-1.267.588.6zm0 3.934l-.878.894.09-1.697.79.802zm0 4.137l-1.113 1.134.117-2.15 1 1.018zm-3.278 2.278c-.228.066-.45.14-.663.22V20.67h.838l-.173 3.247zM26.14 20.72l.398-.605c.118-.18.118-.413 0-.593l-.4-.607h2.118v1.806H26.14zM20.846 8.58l-.78.795-.78-.794h1.56zM10.56 6.304h1.487v4.165H10.56V6.303zM5.116 23.5h2.11v5.873h-2.11V23.5zm4.21 5.874V18.906h3.956v6.557c-.45.5-.697 1.144-.697 1.823 0 .702.265 1.342.697 1.824v.264H9.325zm8.53 0l.014-.26c.313-.068.633-.105.955-.105.604 0 1.204.126 1.758.365h-2.727zM2.33 13.354h4.744c.29 0 .525-.24.525-.534 0-.295-.236-.535-.526-.535H2.33c-.184 0-.333-.152-.333-.338 0-.186.15-.338.332-.338.29 0 .524-.24.524-.535 0-.295-.235-.534-.525-.534-.763 0-1.383.632-1.383 1.407s.62 1.406 1.382 1.406zm22.47 1.868h3.28c.29 0 .526-.24.526-.534 0-.295-.235-.535-.525-.535H24.8c-.29 0-.526.24-.526.535 0 .295.235.534.525.534zm1.64-1.478h1.845c.29 0 .525-.24.525-.534 0-.295-.235-.535-.525-.535H26.44c-.29 0-.525.24-.525.535 0 .295.235.534.525.534zm-8.063 11.78l-.316.02c-.743.053-1.46.182-2.122.382-.19.057-.376.12-.555.187l-.374.154c-.266.12-.388.434-.27.704.085.2.278.32.48.32l.163-.03.047-.014.447-.177c.645-.234 1.366-.388 2.127-.453l.415-.026c.29-.01.514-.26.502-.554-.01-.295-.257-.523-.546-.513zm1.59.016h-.14c-.29 0-.524.24-.524.534 0 .295.235.534.525.534h.14c.29 0 .526-.24.526-.534 0-.295-.235-.534-.526-.534z" fill="#3A434E"/></g></svg>