<svg width="32" height="232" viewBox="0 0 32 232" xmlns="http://www.w3.org/2000/svg"><desc>Created with Sketch.</desc><g fill="none"><path d="M31.06 147.836h-2.9v-5.546c0-.285-.212-.516-.472-.516H24.37v-5.636c.21.04.43.058.663.058.56 0 1.106-.11 1.634-.218.51-.103.99-.2 1.463-.2.36 0 .676.057.97.176.146.06.307.036.433-.06s.202-.256.202-.425v-3.63c0-.217-.123-.41-.307-.485-.4-.162-.825-.242-1.297-.242-.555 0-1.102.11-1.63.218-.51.104-.99.2-1.463.2-.36 0-.676-.056-.97-.175l-.064-.02-.015-.003-.08-.01H23.9l-.085.01-.017.003-.075.026-.015.01-.063.04-.01.004-.003.002-.056.053-.013.014-.05.067-.003.008-.035.07-.007.02-.023.08-.003.02-.01.09v9.93h-.752v-.84c0-.285-.21-.516-.47-.516h-2.535v-2.167c.21-.053.365-.257.365-.502 0-.285-.21-.516-.47-.516h-.38v-1.343c.135-.09.225-.252.225-.44 0-.192-.098-.358-.24-.447-.163-1.33-1.008-2.43-2.136-2.852v-1.473c0-.267-.188-.483-.42-.51v-.803c0-.285-.215-.516-.475-.516h-.287c-.26 0-.47.23-.47.516 0 .215.116.398.285.476v.32h-.238c-.26 0-.47.23-.47.515v1.474c-1.13.424-1.975 1.52-2.138 2.853-.144.09-.24.256-.24.45 0 .186.09.35.224.44v1.34h-.38c-.26 0-.47.232-.47.517 0 .245.157.45.366.502v2.166H9.793c-.26 0-.47.23-.47.516v.843h-1.46l-.748-15.64c-.008-.158-.048-.31-.118-.45l-1.645-3.237c-.166-.327-.48-.53-.822-.53h-.01c-.345.005-.66.217-.82.552l-1.55 3.237c-.065.132-.1.277-.11.426L1 147.833H.94c-.52 0-.94.463-.94 1.034 0 .57.42 1.033.94 1.033h30.12c.52 0 .94-.462.94-1.033 0-.57-.42-1.033-.94-1.033zM5.246 126.48l.73 15.294H4.334c-.26 0-.47.23-.47.516v5.546h-.977l1.022-21.37.643-1.35.693 1.364zm4.075 16.327v4.414l-.212.62H4.804v-5.03h4.518zm.91 4.694l.03-.18v-5.87h11.475v5.87l.024.156.006.028.117.337.18.516h-2.21v-3.937h.105c.26 0 .47-.23.47-.517v-1.55c0-.285-.21-.516-.47-.516H12.04c-.26 0-.472.23-.472.516v1.55c0 .285.21.516.47.516h.105v3.936h-2.21l.297-.852zm5.675-16.31h.188v.77h-.187v-.77zm.094 1.8c1.077 0 1.98.837 2.205 1.946H13.79c.225-1.11 1.13-1.942 2.207-1.942zm-2.247 2.98h4.49v1.263h-4.49v-1.263zm1.025 2.305h.75v2.143h-.75v-2.143zm1.692 0h.75v2.143h-.75v-2.143zm1.69 0h.568v2.143h-.568v-2.143zm-4.893 0h.568v2.143h-.568v-2.143zm9.43 4.535h4.52v5.03H22.89l-.193-.548v-4.482zm-4.537 1.61h.75v3.935h-.75v-3.937zm-1.693 0h.75v3.935h-.75v-3.937zm-1.692 0h.75v3.935h-.75v-3.937zm-1.692 0h.75v3.935h-.75v-3.937zm-.575-1.55h6.974v.516H12.51v-.518zm14.155-10.516c.51-.103.99-.2 1.463-.2.237 0 .457.024.663.076v2.574c-.21-.04-.43-.058-.665-.058-.56 0-1.106.11-1.634.218-.51.103-.99.2-1.462.2-.237 0-.457-.024-.663-.076v-.913h1.543c.26 0 .473-.23.473-.516v-1.25l.285-.06zm-1.225.79h-1.072v-.63c.21.04.43.06.663.06l.41-.02v.59zm-9.24-6.028c.216.21.494.325.782.325h1.635l-.005.1c0 .323.128.632.35.847.19.182.43.283.68.283h3.44c.57 0 1.032-.508 1.032-1.13 0-.625-.463-1.133-1.03-1.133h-.1l.026-.268c0-.72-.532-1.3-1.185-1.3H16.98c-.287 0-.566.113-.782.322-.256.247-.402.602-.402.975 0 .372.147.728.402.975zm.62-1.176c.033-.03.086-.068.162-.068h4.842c.135 0 .244.12.244.27 0 .147-.11.267-.244.267-.26 0-.47.23-.47.513h-.003c0 .285.21.516.47.516h1.26c.05 0 .09.043.09.097 0 .054-.04.098-.09.098h-3.44l-.06-.025-.03-.07.03-.074.06-.025h.002c.26 0 .47-.23.47-.515 0-.285-.21-.516-.47-.516H16.98c-.074 0-.128-.038-.16-.068-.03-.03-.083-.095-.083-.2 0-.104.052-.17.084-.2zm-7.952 19.89v-1.42c-.01-.243-.194-.437-.42-.437-.224 0-.408.194-.418.438v1.42h.838zm-3.19-1.857c-.224 0-.408.194-.418.438v1.42h.837v-1.42c-.01-.24-.194-.434-.42-.434zm.967.438v1.42h.838v-1.42c-.01-.24-.19-.434-.42-.434l-.033.004c-.207.02-.372.203-.38.433zm20.106 0c-.01-.24-.197-.434-.42-.434-.227 0-.41.194-.42.438v1.42h.84v-1.42zm-2.85 1.42h.08v-1.42c-.007-.09-.037-.175-.08-.25-.08-.11-.2-.184-.34-.184l-.135.026c-.16.06-.278.22-.286.41v1.42h.756zm1.462-1.42c-.01-.24-.194-.434-.42-.434-.224 0-.408.194-.418.438v1.42h.838v-1.42z" fill="#206FAC"/><path d="M31.06 107.836h-2.9v-5.546c0-.285-.212-.516-.472-.516H24.37v-5.636c.21.04.43.058.663.058.56 0 1.106-.11 1.634-.218.51-.103.99-.2 1.463-.2.36 0 .676.057.97.176.146.06.307.036.433-.06s.202-.256.202-.425v-3.63c0-.218-.123-.41-.307-.486-.4-.162-.825-.242-1.297-.242-.555 0-1.102.11-1.63.218-.51.104-.99.2-1.463.2-.36 0-.676-.056-.97-.175l-.064-.02-.015-.003-.08-.01H23.9l-.085.01-.017.003-.075.026-.015.01-.063.038-.01.006-.003.002-.056.053-.013.013-.05.067-.003.007-.035.07-.007.02-.023.08-.003.02-.01.093v9.93h-.752v-.84c0-.285-.21-.516-.47-.516h-2.535v-2.167c.21-.053.365-.257.365-.502 0-.285-.21-.516-.47-.516h-.38v-1.345c.135-.09.225-.252.225-.44 0-.192-.098-.358-.24-.447-.163-1.33-1.008-2.43-2.136-2.854V90.67c0-.266-.188-.482-.42-.51v-.802c0-.283-.215-.514-.475-.514h-.287c-.26 0-.47.23-.47.516 0 .215.116.398.285.476v.32h-.238c-.26 0-.47.232-.47.517v1.473c-1.13.425-1.975 1.522-2.138 2.854-.144.09-.24.255-.24.448 0 .186.09.348.224.44v1.34h-.38c-.26 0-.47.232-.47.517 0 .245.157.45.366.502v2.165H9.793c-.26 0-.47.23-.47.516v.844h-1.46L7.116 86.13c-.008-.157-.048-.31-.118-.448l-1.645-3.238c-.166-.327-.48-.53-.822-.53h-.01c-.344.005-.66.217-.82.552l-1.55 3.238c-.064.132-.1.277-.11.426L1 107.834H.94c-.52 0-.94.462-.94 1.033 0 .57.42 1.033.94 1.033h30.12c.52 0 .94-.462.94-1.033 0-.57-.42-1.033-.94-1.033zM5.246 86.48l.73 15.294H4.334c-.26 0-.47.23-.47.516v5.546h-.977l1.022-21.37.643-1.35.693 1.364zm4.075 16.327v4.414l-.212.62H4.804v-5.03h4.518zm.91 4.694l.03-.18v-5.87h11.475v5.87l.024.156.006.028.117.337.18.516h-2.21v-3.937h.105c.26 0 .47-.23.47-.517v-1.55c0-.285-.21-.516-.47-.516H12.04c-.26 0-.472.23-.472.516v1.55c0 .285.21.516.47.516h.105v3.936h-2.21l.297-.852zm5.675-16.31h.188v.77h-.187v-.77zm.094 1.8c1.077 0 1.98.837 2.205 1.946H13.79c.225-1.11 1.13-1.942 2.207-1.942zm-2.247 2.98h4.49v1.263h-4.49V95.97zm1.025 2.305h.75v2.143h-.75v-2.143zm1.692 0h.75v2.143h-.75v-2.143zm1.69 0h.568v2.143h-.568v-2.143zm-4.893 0h.568v2.143h-.568v-2.143zm9.43 4.535h4.52v5.03H22.89l-.193-.548v-4.482zm-4.537 1.61h.75v3.935h-.75v-3.937zm-1.693 0h.75v3.935h-.75v-3.937zm-1.692 0h.75v3.935h-.75v-3.937zm-1.692 0h.75v3.935h-.75v-3.937zm-.575-1.55h6.974v.516H12.51v-.518zm14.156-10.52c.51-.103.99-.2 1.463-.2.237 0 .457.024.663.076V94.8c-.21-.04-.43-.057-.662-.057-.56 0-1.106.11-1.634.218-.51.106-.99.2-1.463.2-.233 0-.453-.02-.66-.073v-.913h1.544c.26 0 .472-.23.472-.516v-1.25l.284-.056zm-1.225.79h-1.075v-.63c.21.04.43.06.663.06l.41-.02v.59zm-9.24-6.028c.213.21.49.325.78.325h1.634l-.005.097c0 .324.13.633.35.848.19.182.43.283.68.283h3.44c.57 0 1.032-.507 1.032-1.13 0-.624-.463-1.132-1.03-1.132h-.1l.026-.268c0-.717-.534-1.3-1.187-1.3h-4.84c-.287 0-.566.115-.782.324-.257.244-.403.6-.403.972s.147.728.402.975zm.62-1.176c.03-.03.083-.067.16-.067h4.84c.136 0 .245.12.245.27 0 .144-.11.264-.244.264-.26 0-.47.23-.47.516h-.002c0 .286.21.517.47.517h1.26c.05 0 .09.043.09.097 0 .054-.04.098-.09.098h-3.44l-.057-.025-.03-.073.03-.073.06-.023h.002c.26 0 .47-.232.47-.517 0-.286-.21-.517-.47-.517H16.98c-.074 0-.128-.037-.16-.067-.03-.03-.083-.096-.083-.2 0-.105.052-.17.084-.202zM8.863 105.83v-1.42c-.01-.243-.194-.437-.42-.437-.224 0-.408.194-.418.438v1.42h.838zm-3.19-1.857c-.224 0-.408.194-.418.438v1.42h.837v-1.42c-.01-.24-.194-.434-.42-.434zm.967.438v1.42h.84v-1.42c-.01-.24-.194-.434-.42-.434l-.036.004c-.207.02-.372.203-.38.433zm20.107 0c-.01-.24-.195-.434-.42-.434-.225 0-.41.194-.42.438v1.42h.84v-1.42zm-2.85 1.42h.08v-1.42c-.005-.09-.035-.175-.08-.25-.078-.11-.2-.184-.34-.184l-.133.026c-.16.06-.278.22-.286.41v1.42h.756zm1.464-1.42c-.01-.24-.193-.434-.42-.434-.223 0-.407.194-.417.438v1.42h.838v-1.42z" fill="#fff"/><path d="M31.06 67.836h-2.9V62.29c0-.285-.212-.516-.472-.516H24.37v-5.636c.21.04.43.058.663.058.56 0 1.106-.11 1.634-.218.51-.103.99-.2 1.463-.2.36 0 .676.057.97.176.146.06.307.036.433-.06s.202-.256.202-.425v-3.63c0-.218-.123-.41-.307-.486-.4-.162-.825-.242-1.297-.242-.555 0-1.102.11-1.63.218-.51.104-.99.2-1.463.2-.36 0-.676-.056-.97-.175l-.064-.02-.015-.003-.08-.01H23.9l-.085.01-.017.003-.075.026-.015.01-.063.038-.01.006-.003.002-.056.053-.013.013-.05.067-.003.007-.035.07-.007.02-.023.08-.003.02-.01.093v9.93h-.752v-.84c0-.285-.21-.516-.47-.516h-2.535v-2.167c.21-.053.365-.257.365-.502 0-.285-.21-.516-.47-.516h-.38v-1.345c.135-.09.225-.252.225-.44 0-.192-.098-.358-.24-.447-.163-1.33-1.008-2.43-2.136-2.854V50.67c0-.266-.188-.482-.42-.51v-.802c0-.283-.215-.514-.475-.514h-.287c-.26 0-.47.23-.47.516 0 .215.116.398.285.476v.32h-.238c-.26 0-.47.232-.47.517v1.473c-1.13.425-1.975 1.522-2.138 2.854-.144.09-.24.255-.24.448 0 .186.09.348.224.44v1.34h-.38c-.26 0-.47.232-.47.517 0 .245.157.45.366.502v2.165H9.793c-.26 0-.47.23-.47.516v.844h-1.46L7.116 46.13c-.008-.157-.048-.31-.118-.448l-1.645-3.238c-.166-.327-.48-.53-.822-.53h-.01c-.344.005-.66.217-.82.552l-1.55 3.238c-.064.132-.1.277-.11.426L1 67.834H.94c-.52 0-.94.462-.94 1.033 0 .57.42 1.033.94 1.033h30.12c.52 0 .94-.462.94-1.033 0-.57-.42-1.033-.94-1.033zM5.246 46.48l.73 15.294H4.334c-.26 0-.47.23-.47.516v5.546h-.977l1.022-21.37.643-1.35.693 1.364zM9.32 62.807v4.414l-.214.62H4.804v-5.03h4.518zm.91 4.694l.03-.18v-5.87h11.473v5.87l.024.156.007.028.117.337.18.516h-2.21V64.42h.107c.26 0 .47-.23.47-.517v-1.55c0-.285-.21-.516-.47-.516H12.04c-.26 0-.472.23-.472.516v1.55c0 .285.21.516.47.516h.105v3.936h-2.21l.297-.852zm5.673-16.31h.188v.77h-.185v-.77zm.094 1.8c1.078 0 1.982.837 2.206 1.946H13.79c.225-1.11 1.13-1.942 2.207-1.942zm-2.247 2.98h4.49v1.264h-4.49V55.97zm1.026 2.306h.75v2.143h-.75v-2.144zm1.692 0h.75v2.143h-.75v-2.144zm1.692 0h.567v2.143h-.568v-2.144zm-4.894 0h.568v2.143h-.568v-2.144zm9.43 4.535h4.52v5.03h-4.328l-.192-.547V62.81zm-4.537 1.61h.75v3.936h-.75V64.42zm-1.695 0h.75v3.936h-.75V64.42zm-1.692 0h.75v3.936h-.75V64.42zm-1.692 0h.75v3.936h-.75V64.42zm-.574-1.55h6.974v.517h-6.97v-.518zm14.157-10.52c.51-.102.99-.2 1.463-.2.237 0 .457.025.663.077V54.8c-.21-.04-.43-.057-.663-.057-.56 0-1.106.11-1.634.218-.51.106-.99.2-1.463.2-.234 0-.454-.02-.66-.073v-.913h1.543c.26 0 .472-.23.472-.516v-1.25l.284-.056zm-1.225.79h-1.074v-.63c.21.04.43.06.663.06l.41-.02v.59zm-9.24-6.027c.214.21.492.325.78.325h1.635l-.005.097c0 .324.13.633.35.848.19.182.43.283.68.283h3.44c.57 0 1.033-.507 1.033-1.13 0-.624-.462-1.132-1.03-1.132h-.1l.027-.268c0-.717-.534-1.3-1.187-1.3h-4.84c-.287 0-.566.115-.782.324-.257.245-.403.6-.403.973 0 .372.147.728.402.975zm.62-1.176c.03-.03.084-.067.16-.067h4.842c.135 0 .244.12.244.27 0 .145-.11.265-.244.265-.26 0-.47.23-.47.516h-.003c0 .287.21.518.47.518h1.26c.05 0 .09.043.09.097 0 .054-.04.098-.09.098h-3.44l-.057-.025-.03-.073.03-.073.058-.024h.003c.26 0 .47-.232.47-.517 0-.285-.21-.516-.47-.516h-2.66c-.074 0-.128-.037-.16-.067-.03-.03-.083-.096-.083-.2 0-.105.052-.17.084-.202zM8.864 65.83v-1.42c-.01-.243-.194-.437-.42-.437-.224 0-.408.194-.418.438v1.42h.838zm-3.19-1.857c-.224 0-.408.194-.418.438v1.42h.837v-1.42c-.01-.24-.194-.434-.42-.434zm.967.438v1.42h.84v-1.42c-.01-.24-.194-.434-.42-.434l-.036.004c-.207.02-.372.203-.38.433zm20.107 0c-.01-.24-.195-.434-.42-.434-.225 0-.41.194-.42.438v1.42h.84v-1.42zm-2.85 1.42h.08v-1.42c-.005-.09-.035-.175-.08-.25-.078-.11-.2-.184-.34-.184l-.133.026c-.16.06-.278.22-.286.41v1.42h.756zm1.464-1.42c-.01-.24-.193-.434-.42-.434-.223 0-.407.194-.417.438v1.42h.838v-1.42z" fill="#67737B"/><path d="M31.06 27.836h-2.9V22.29c0-.285-.212-.516-.472-.516H24.37v-5.636c.21.04.43.058.663.058.56 0 1.106-.11 1.634-.218.51-.103.99-.2 1.463-.2.36 0 .676.057.97.176.146.06.307.036.433-.06s.202-.256.202-.425v-3.63c0-.218-.123-.41-.307-.486-.4-.162-.825-.242-1.297-.242-.555 0-1.102.11-1.63.218-.51.104-.99.2-1.463.2-.36 0-.676-.056-.97-.175l-.064-.02-.015-.003-.08-.01H23.9l-.085.01-.017.003-.075.026-.015.01-.063.038-.01.006-.003.002-.056.053-.013.013-.05.067-.003.007-.035.07-.007.02-.023.08-.003.02-.01.093v9.93h-.752v-.84c0-.285-.21-.516-.47-.516h-2.535v-2.167c.21-.053.365-.257.365-.502 0-.285-.21-.516-.47-.516h-.38v-1.345c.135-.09.225-.252.225-.44 0-.192-.098-.358-.24-.447-.163-1.33-1.008-2.43-2.136-2.854V10.67c0-.266-.188-.482-.42-.51v-.8c0-.284-.215-.515-.475-.515h-.287c-.26 0-.47.23-.47.516 0 .218.116.4.285.48v.32h-.238c-.26 0-.47.23-.47.516v1.473c-1.13.424-1.975 1.52-2.138 2.853-.144.09-.24.256-.24.45 0 .185.09.347.224.44v1.34h-.38c-.26 0-.47.23-.47.516 0 .244.157.45.366.5v2.168H9.793c-.26 0-.47.23-.47.516v.844h-1.46L7.116 6.13c-.008-.157-.048-.31-.118-.448L5.353 2.444c-.166-.327-.48-.53-.822-.53h-.01c-.344.005-.66.217-.82.552L2.15 5.704c-.065.132-.1.277-.11.426L1 27.834H.94c-.52 0-.94.462-.94 1.033 0 .57.42 1.033.94 1.033h30.12c.52 0 .94-.462.94-1.033 0-.57-.42-1.033-.94-1.033zM5.246 6.48l.73 15.294H4.334c-.26 0-.47.23-.47.516v5.546h-.977L3.91 6.466l.645-1.35.693 1.364zM9.32 22.807v4.414l-.214.62H4.804v-5.03h4.518zm.91 4.694l.03-.18v-5.87h11.473v5.87l.024.156.007.028.117.337.18.516h-2.21V24.42h.107c.26 0 .47-.23.47-.517v-1.55c0-.285-.21-.516-.47-.516H12.04c-.26 0-.472.23-.472.516v1.55c0 .285.21.516.47.516h.105v3.936h-2.21l.297-.852zm5.673-16.31h.188v.77h-.185v-.77zm.094 1.8c1.078 0 1.982.837 2.206 1.946H13.79c.225-1.11 1.13-1.942 2.207-1.942zm-2.247 2.98h4.49v1.264h-4.49V15.97zm1.026 2.306h.75v2.143h-.75v-2.144zm1.692 0h.75v2.143h-.75v-2.144zm1.692 0h.567v2.143h-.568v-2.144zm-4.894 0h.568v2.143h-.568v-2.144zm9.43 4.535h4.52v5.03h-4.328l-.192-.547V22.81zm-4.537 1.61h.75v3.936h-.75V24.42zm-1.695 0h.75v3.936h-.75V24.42zm-1.692 0h.75v3.936h-.75V24.42zm-1.692 0h.75v3.936h-.75V24.42zm-.574-1.55h6.974v.517h-6.97v-.518zm14.157-10.52c.51-.102.99-.2 1.463-.2.237 0 .457.025.663.077V14.8c-.21-.04-.43-.057-.663-.057-.56 0-1.106.11-1.634.218-.51.106-.99.2-1.463.2-.234 0-.454-.02-.66-.073v-.913h1.543c.26 0 .472-.23.472-.516v-1.25l.284-.056zm-1.225.79h-1.074v-.63c.21.04.43.06.663.06l.41-.02v.59zM16.2 7.115c.216.21.494.325.782.325h1.635l-.005.094c0 .324.128.633.35.848.19.182.43.283.68.283h3.44c.57 0 1.032-.507 1.032-1.13 0-.624-.463-1.132-1.03-1.132h-.1l.026-.268c0-.717-.532-1.3-1.185-1.3h-4.842c-.288 0-.567.115-.783.324-.256.247-.402.602-.402.975 0 .372.147.728.402.975zm.62-1.176c.033-.03.086-.067.162-.067h4.842c.135 0 .244.12.244.27 0 .15-.11.27-.244.27-.26 0-.47.23-.47.516h-.003c0 .285.215.516.475.516h1.26c.05 0 .09.044.09.098 0 .054-.04.098-.09.098h-3.44l-.058-.025-.03-.072.03-.072.058-.025h.002c.26 0 .47-.233.47-.518 0-.285-.21-.516-.47-.516H16.98c-.074 0-.128-.038-.16-.068-.03-.03-.083-.098-.083-.2 0-.107.052-.17.084-.204zM8.866 25.83v-1.42c-.01-.243-.194-.437-.42-.437-.224 0-.408.194-.418.438v1.42h.838zm-3.19-1.857c-.224 0-.408.194-.418.438v1.42h.837v-1.42c-.01-.24-.194-.434-.42-.434zm.967.438v1.42h.838v-1.42c-.01-.24-.19-.434-.42-.434l-.033.004c-.207.02-.372.203-.38.433zm20.106 0c-.01-.24-.197-.434-.42-.434-.227 0-.41.194-.42.438v1.42h.84v-1.42zm-2.85 1.42h.08v-1.42c-.007-.09-.037-.175-.08-.25-.08-.11-.2-.184-.34-.184l-.135.026c-.16.06-.278.22-.286.41v1.42h.756zm1.462-1.42c-.01-.24-.194-.434-.42-.434-.224 0-.408.194-.418.438v1.42h.838v-1.42z" fill="#3A434E"/></g></svg>