<svg width="32" height="232" viewBox="0 0 32 232" xmlns="http://www.w3.org/2000/svg"><desc>Created with Sketch.</desc><g fill="none"><path d="M9.44 127.264c.08.06.174.09.272.09.097 0 .19-.03.268-.088.175-.13.23-.37.134-.563l-.132-.16c-.155-.116-.383-.116-.538 0-.175.13-.23.37-.132.565l.13.156m13.622.773c.077.06.172.09.27.09.097 0 .19-.03.268-.09.105-.077.17-.198.18-.328.01-.135-.04-.26-.132-.356l-.046-.04c-.155-.117-.383-.118-.54 0-.113.084-.18.218-.18.36 0 .143.066.276.18.36M19.52 125.3l.373.206.204.375c.08.148.23.238.394.238s.32-.09.397-.234l.204-.374.373-.206c.145-.078.235-.23.235-.394 0-.166-.09-.317-.234-.396l-.372-.204-.202-.374c-.078-.145-.23-.235-.393-.235s-.314.09-.393.238l-.203.374-.373.206c-.144.08-.234.23-.234.396s.09.317.234.396M5.93 143.05c.063.103.165.18.284.207l.1.012h2.02c.247 0 .448-.206.448-.45v-2.508c-.036-.783-.677-1.397-1.458-1.397-.238 0-.462.057-.66.158-.173.087-.325.208-.45.353-.127.15-.224.324-.283.517v.01c-.033.113-.056.233-.062.357v2.505c0 .083.023.16.062.227l.002.004zm.832-2.703c.02-.298.264-.53.562-.53.297 0 .543.232.56.53v2.02h-1.12v-2.02zm18.945-.485c-.072-.19-.182-.36-.32-.503-.127-.135-.28-.24-.448-.318-.186-.08-.387-.128-.6-.128-.78 0-1.42.613-1.458 1.397v2.505c0 .25.2.45.45.45h2.02l.033-.004c.13-.01.245-.074.32-.172.06-.076.095-.17.095-.274v-2.504c-.006-.16-.04-.31-.093-.452zm5.404 7.694h-.21V136.23c0-.25-.2-.45-.45-.45H27.5v-1.548l-.024-.208-.646-2.738c-.074-.316-.31-.56-.606-.652v-.29c0-.25-.2-.45-.45-.45s-.448.2-.448.45v.25h-2.02v-.25c0-.25-.2-.45-.447-.45-.25 0-.45.2-.45.45v.307c-.276.107-.49.34-.56.64l-.48 2.043h-.51v-.03c0-.25-.2-.45-.45-.45s-.45.2-.45.45v.03h-.787v-.03c0-.25-.2-.45-.45-.45s-.448.2-.448.45v.03h-.2v-6.452c0-.497-.403-.9-.898-.9h-.92v-2.77c0-.25-.2-.45-.45-.45h-2.17c-.166 0-.318.09-.396.237-.077.146-.07.324.023.462l.4.6-.4.6c-.092.14-.1.316-.022.462.08.146.23.238.397.238h1.724v.62h-.943c-.496 0-.897.403-.897.9v6.453h-.167v-.032c0-.247-.2-.45-.448-.45s-.45.203-.45.45v.033h-.787v-.034c0-.25-.2-.45-.45-.45s-.448.2-.448.45v.03h-.51l-.482-2.044c-.07-.296-.28-.527-.55-.632v-.31c0-.25-.2-.45-.45-.45s-.448.2-.448.45v.25H6.31v-.25c0-.25-.2-.45-.448-.45s-.448.2-.448.45v.29c-.3.093-.54.337-.614.655l-.646 2.737-.024.208v1.64H1.528c-.248 0-.448.2-.448.45v11.235H.868c-.495 0-.897.403-.897.9s.406.9.9.9h30.24c.498 0 .9-.403.9-.9s-.402-.9-.9-.9zm-6.203-5.188h-1.122v-2.02c.018-.3.262-.53.56-.53.3 0 .544.23.562.53v2.02zM14.48 124.456l.1-.15c.1-.15.1-.35 0-.5l-.1-.15h.885v.8h-.885zM1.98 136.77h2.155v10.786H3.54v-7.163c0-.25-.2-.45-.45-.45s-.448.202-.448.45v7.163H1.98V136.77zm7.007-2.88H5.6l.433-1.836h2.52l.434 1.837zm3.398.9l-.69.342-.67.332c-.188.092-.287.303-.24.506.048.204.23.348.437.348h.106v.563h-1.325v-2.09h2.382zm2.485-2.736h1.862v1.475l-.45-.228-.245-.122c-.126-.06-.273-.06-.398 0l-.326.16-.448.222v-1.51zm6.764 2.737v2.095H20.31v-.563h.104c.208 0 .39-.144.437-.347.05-.204-.05-.413-.234-.506l-.666-.334-.685-.34h2.37zm1.015-.9l.43-1.833h2.52l.435 1.837H22.65zm-10.97 3.896l.094.01h8.083l.09-.01h1.683v4.585h-.314v-2.054c-.038-.783-.678-1.397-1.46-1.397-.39 0-.748.153-1.01.405-.264-.252-.62-.406-1.012-.406-.39 0-.747.153-1.01.405-.263-.252-.62-.406-1.01-.406-.392 0-.75.153-1.012.405-.262-.252-.62-.406-1.01-.406-.392 0-.748.153-1.01.405-.263-.252-.62-.406-1.01-.406-.782 0-1.423.612-1.46 1.396v2.054H10v-4.587h1.68zm.54-.9v-.563h7.188v.574h-7.186v-.01zm11.56 10.408v-1.403c.02-.297.262-.53.56-.53.3 0 .544.233.562.53v1.67H23.78v-.265zm-10.547-6.943c.018-.3.264-.53.56-.53.3 0 .545.23.563.53v2.02h-1.123v-2.02zm2.02 0c.02-.3.265-.53.562-.53.298 0 .544.23.562.53v2.02h-1.124v-2.02zm2.022 0c.018-.3.263-.53.56-.53.3 0 .545.23.563.53v2.02h-1.125v-2.02zm2.02 0c.02-.3.264-.53.562-.53.297 0 .542.23.56.53v2.02H19.3v-2.02zm-6.96 2.02h-1.122v-2.02c.018-.3.264-.53.56-.53.3 0 .544.23.562.53v2.02zM10 147.295v-4.02h11.63v4.286h-.313v-1.76c-.038-.785-.678-1.4-1.46-1.4-.39 0-.748.154-1.01.407-.264-.253-.62-.407-1.012-.407-.39 0-.747.154-1.01.407-.263-.253-.62-.407-1.01-.407-.392 0-.75.153-1.012.406-.262-.253-.62-.407-1.01-.407-.392 0-.748.15-1.01.403-.263-.253-.62-.407-1.01-.407-.782 0-1.423.613-1.46 1.396v1.76H10v-.265zm1.213 0v-1.46c.018-.297.264-.53.56-.53.3 0 .544.232.562.53v1.727h-1.123v-.264zm2.02 0v-1.46c.018-.297.264-.53.56-.53.3 0 .545.232.563.53v1.727h-1.123v-.264zm2.02 0v-1.46c.02-.297.265-.53.562-.53.298 0 .544.232.562.53v1.727h-1.124v-.264zm2.022 0v-1.46c.018-.297.263-.53.56-.53.3 0 .545.232.563.53v1.727h-1.125v-.264zm2.02 0v-1.46c.02-.297.264-.53.562-.53.297 0 .542.232.56.53v1.727H19.3v-.264zm-11.41 0v.266H6.762v-1.67c.02-.3.264-.53.562-.53.297 0 .543.23.56.53v1.402zm18.164.266h-.25v-1.705c-.006-.16-.04-.31-.093-.452-.072-.19-.182-.36-.32-.502-.127-.13-.28-.236-.448-.312-.183-.08-.384-.128-.597-.128-.78 0-1.422.612-1.458 1.396v1.703h-.354v-9.01h3.626v9.007h-.105zm-.344-10.02h-2.532c.374-.264.823-.408 1.298-.408.16 0 .315.018.467.05.154.03.304.08.447.142l.32.173.063.04h-.06zm-11.29-2.747l.91-.45.167-.082.136-.065.205-.1.205.1.13.065.174.085.602.3.3.15.684.342.216.108.356.177H13.15l.36-.177.217-.108.69-.34zm-7.754 2.745h-.73l.282-.167c.142-.07.293-.126.45-.166.182-.047.372-.072.567-.072.476 0 .924.145 1.3.406H6.663zm-1.183 1.01h3.624v9.006H8.78v-1.703c-.035-.782-.676-1.395-1.457-1.395-.238 0-.462.058-.66.16-.173.087-.325.207-.45.353-.127.147-.224.323-.283.516v.008c-.034.116-.057.235-.063.36v1.702H5.48v-9.007zm20.675-2.606v.767l-.105-.06-.212-.117-.13-.057-.32-.114c-.145-.044-.295-.078-.447-.1-.152-.023-.31-.035-.466-.035-.72 0-1.395.24-1.942.664v-2.1h3.626v1.15zm-11.286-8.507h1.86v3.716h-1.86v-3.714zm-9.39 8.432v-1.08h3.624v2.05c-.534-.393-1.185-.612-1.874-.612-.19 0-.38.017-.565.05-.153.03-.303.066-.45.116l-.282.114H5.93l-.162.08-.284.166H5.48v-.885zM30 147.55h-.82v-7.16c0-.25-.202-.45-.45-.45-.247 0-.448.202-.448.45v7.163H27.5V136.68h2.503v10.875z" fill="#206FAC"/><path d="M9.44 87.264c.08.06.174.09.272.09.097 0 .19-.03.268-.088.175-.13.23-.37.134-.563l-.132-.16c-.155-.116-.383-.116-.538 0-.175.13-.23.37-.132.565l.13.156m13.622.773c.077.06.172.09.27.09.097 0 .19-.03.268-.09.105-.077.17-.198.18-.328.01-.135-.04-.26-.132-.356l-.046-.04c-.155-.117-.383-.118-.54 0-.113.084-.18.218-.18.36 0 .143.066.276.18.36M19.52 85.3l.373.206.204.375c.08.148.23.238.394.238s.32-.09.397-.234l.204-.374.373-.206c.145-.078.235-.23.235-.394 0-.166-.09-.317-.234-.396l-.372-.204-.202-.374c-.078-.145-.23-.235-.393-.235s-.314.09-.393.238l-.203.374-.373.206c-.144.08-.234.23-.234.396s.09.317.234.396M5.93 103.05c.063.103.165.18.284.207l.1.012h2.02c.247 0 .448-.206.448-.45v-2.508c-.036-.783-.677-1.397-1.458-1.397-.238 0-.462.057-.66.158-.173.087-.325.208-.45.353-.127.15-.224.324-.283.517v.01c-.033.113-.056.233-.062.357v2.505c0 .083.023.16.062.227l.002.004zm.832-2.703c.02-.298.264-.53.562-.53.297 0 .543.232.56.53v2.02h-1.12v-2.02zm18.945-.485c-.072-.19-.182-.36-.32-.503-.127-.135-.28-.24-.448-.318-.186-.08-.387-.128-.6-.128-.78 0-1.42.613-1.458 1.397v2.505c0 .25.2.45.45.45h2.02l.033-.004c.13-.01.245-.074.32-.172.06-.076.095-.17.095-.274v-2.504c-.006-.16-.04-.31-.093-.452zm5.404 7.694h-.21V96.23c0-.25-.2-.45-.45-.45H27.5v-1.548l-.024-.208-.646-2.738c-.074-.316-.31-.56-.606-.652v-.29c0-.25-.2-.45-.45-.45s-.448.2-.448.45v.25h-2.02v-.25c0-.25-.2-.45-.447-.45-.25 0-.45.2-.45.45v.307c-.276.107-.49.34-.56.64l-.48 2.043h-.51v-.03c0-.25-.2-.45-.45-.45s-.45.2-.45.45v.03h-.787v-.03c0-.25-.2-.45-.45-.45s-.448.2-.448.45v.03h-.2V86.88c0-.498-.403-.9-.898-.9h-.92v-2.772c0-.25-.2-.45-.45-.45h-2.17c-.166 0-.318.092-.396.238-.077.146-.07.324.023.462l.4.6-.4.6c-.092.14-.1.317-.022.463.08.147.23.24.397.24h1.724v.62h-.943c-.496 0-.897.402-.897.9v6.452h-.167V93.3c0-.248-.2-.45-.448-.45s-.45.202-.45.45v.032h-.787v-.034c0-.248-.2-.45-.45-.45s-.448.202-.448.45v.032h-.51l-.482-2.045c-.07-.296-.28-.527-.55-.632v-.31c0-.25-.2-.45-.45-.45s-.448.2-.448.45v.25H6.31v-.25c0-.25-.2-.45-.448-.45s-.448.2-.448.45v.29c-.3.093-.54.337-.614.655l-.646 2.738-.024.208v1.64H1.528c-.248 0-.448.2-.448.45v11.235H.868c-.495 0-.897.402-.897.9s.406.9.9.9h30.24c.498 0 .9-.404.9-.9s-.402-.9-.9-.9zm-6.203-5.188h-1.122v-2.02c.018-.3.262-.53.56-.53.3 0 .544.23.562.53v2.02zM14.48 84.456l.1-.15c.1-.15.1-.35 0-.5l-.1-.15h.885v.8h-.885zM1.98 96.77h2.155v10.786H3.54v-7.163c0-.25-.2-.45-.45-.45s-.448.202-.448.45v7.163H1.98V96.77zm7.007-2.88H5.6l.433-1.836h2.52l.434 1.837zm3.398.9l-.69.342-.67.332c-.188.092-.287.303-.24.506.048.204.23.348.437.348h.106v.563h-1.325v-2.09h2.382zm2.485-2.736h1.862v1.475l-.45-.228-.245-.122c-.126-.06-.273-.06-.398 0l-.326.16-.448.222v-1.51zm6.764 2.737v2.095H20.31v-.563h.104c.208 0 .39-.144.437-.347.05-.204-.05-.413-.234-.506l-.666-.334-.685-.34h2.37zm1.015-.9l.43-1.833h2.52l.435 1.837H22.65zm-10.97 3.896l.093.01h8.083l.09-.01h1.683v4.585h-.315v-2.054c-.038-.783-.678-1.397-1.46-1.397-.39 0-.748.153-1.01.405-.264-.252-.62-.406-1.012-.406-.39 0-.747.153-1.01.405-.263-.252-.62-.406-1.01-.406-.392 0-.75.153-1.012.405-.26-.252-.62-.406-1.01-.406s-.747.153-1.01.405c-.262-.252-.62-.406-1.01-.406-.78 0-1.422.612-1.46 1.396v2.054H10v-4.587h1.68zm.54-.9v-.563h7.187v.574H12.22v-.01zm11.558 10.408v-1.403c.02-.297.263-.53.56-.53.3 0 .545.233.563.53v1.67h-1.12v-.265zm-10.546-6.943c.018-.3.264-.53.56-.53.3 0 .545.23.563.53v2.02h-1.123v-2.02zm2.02 0c.02-.3.265-.53.562-.53.298 0 .544.23.562.53v2.02h-1.124v-2.02zm2.022 0c.018-.3.263-.53.56-.53.3 0 .545.23.563.53v2.02h-1.125v-2.02zm2.02 0c.02-.3.264-.53.562-.53.297 0 .542.23.56.53v2.02H19.3v-2.02zm-6.96 2.02h-1.122v-2.02c.018-.3.264-.53.56-.53.3 0 .544.23.562.53v2.02zM10 107.295v-4.02h11.63v4.286h-.314v-1.76c-.038-.785-.678-1.4-1.46-1.4-.39 0-.748.154-1.01.407-.264-.253-.62-.407-1.012-.407-.39 0-.747.154-1.01.407-.263-.253-.62-.407-1.01-.407-.392 0-.75.153-1.012.406-.262-.253-.62-.407-1.01-.407-.392 0-.748.15-1.01.403-.263-.253-.62-.407-1.01-.407-.782 0-1.423.613-1.46 1.396v1.76H10v-.265zm1.212 0v-1.46c.018-.297.264-.53.56-.53.3 0 .544.232.562.53v1.727H11.21v-.264zm2.02 0v-1.46c.018-.297.264-.53.56-.53.3 0 .545.232.563.53v1.727h-1.123v-.264zm2.02 0v-1.46c.02-.297.265-.53.562-.53.298 0 .544.232.562.53v1.727h-1.124v-.264zm2.022 0v-1.46c.018-.297.263-.53.56-.53.3 0 .545.232.563.53v1.727h-1.125v-.264zm2.02 0v-1.46c.02-.297.264-.53.562-.53.297 0 .542.232.56.53v1.727H19.3v-.264zm-11.41 0v.266H6.762v-1.67c.02-.3.264-.53.562-.53.297 0 .543.23.56.53v1.402zm18.164.266H25.8v-1.705c-.007-.16-.04-.31-.094-.452-.072-.19-.182-.36-.32-.502-.127-.13-.28-.236-.448-.312-.182-.08-.383-.128-.596-.128-.78 0-1.422.612-1.458 1.396v1.703h-.354v-9.01h3.625v9.004h-.105zm-.343-10.02h-2.532c.374-.264.823-.408 1.298-.408.16 0 .316.018.468.05.155.03.305.08.448.142l.32.173.063.04h-.06zm-11.29-2.747l.91-.45.167-.082.136-.065.206-.1.205.1.13.065.173.085.602.3.3.15.684.342.215.108.356.177h-5.35l.36-.177.217-.108.69-.34zM6.663 97.54h-.73l.282-.167c.142-.073.293-.128.45-.168.182-.047.372-.072.567-.072.475 0 .923.144 1.298.405H6.664zM5.48 98.55h3.625v9.006h-.323v-1.703c-.036-.784-.677-1.397-1.458-1.397-.238 0-.462.058-.66.16-.173.087-.325.207-.45.353-.127.145-.224.32-.283.514v.008c-.033.115-.056.234-.062.358v1.704H5.48V98.55zm20.676-2.606v.767l-.105-.06-.21-.113-.13-.057-.32-.115c-.146-.044-.296-.078-.448-.1-.153-.023-.31-.035-.467-.035-.72 0-1.395.24-1.942.664v-2.1h3.626v1.15zM14.87 87.437h1.862v3.716H14.87v-3.716zM5.48 95.87v-1.08h3.625v2.05c-.534-.394-1.185-.613-1.874-.613-.19 0-.38.017-.564.05-.153.03-.303.066-.45.116l-.282.112H5.93l-.162.08-.284.166-.003.005v-.886zm24.523 11.685h-.82v-7.163c0-.25-.202-.45-.45-.45-.247 0-.448.202-.448.45v7.163H27.5V96.68h2.503v10.875z" fill="#fff"/><path d="M9.44 47.264c.08.06.174.09.272.09.097 0 .19-.03.268-.088.175-.13.23-.37.134-.563l-.132-.16c-.155-.116-.383-.116-.538 0-.175.13-.23.37-.132.565l.13.156m13.622.773c.077.06.172.09.27.09.097 0 .19-.03.268-.09.105-.077.17-.198.18-.328.01-.135-.04-.26-.132-.356l-.046-.04c-.155-.117-.383-.118-.54 0-.113.084-.18.218-.18.36 0 .143.066.276.18.36M19.52 45.3l.373.206.204.375c.08.148.23.238.394.238s.32-.09.397-.234l.204-.374.373-.206c.145-.078.235-.23.235-.394 0-.166-.09-.317-.234-.396l-.372-.204-.202-.374c-.078-.145-.23-.235-.393-.235s-.314.09-.393.238l-.203.374-.373.206c-.144.08-.234.23-.234.396s.09.317.234.396M5.93 63.05c.063.103.165.18.284.207l.1.012h2.02c.247 0 .448-.206.448-.45V60.31c-.036-.783-.677-1.397-1.458-1.397-.238 0-.462.057-.66.158-.173.087-.325.208-.45.353-.127.15-.224.324-.283.517v.01c-.033.113-.056.233-.062.357v2.505c0 .083.023.16.062.227l.002.004zm.832-2.703c.02-.298.264-.53.562-.53.297 0 .543.232.56.53v2.02h-1.12v-2.02zm18.945-.485c-.072-.19-.182-.36-.32-.503-.127-.135-.28-.24-.448-.318-.186-.08-.387-.128-.6-.128-.78 0-1.42.613-1.458 1.397v2.505c0 .25.2.45.45.45h2.02l.033-.004c.13-.01.245-.074.32-.172.06-.076.095-.17.095-.274V60.31c-.006-.16-.04-.31-.093-.452zm5.404 7.694h-.21V56.23c0-.25-.2-.45-.45-.45H27.5v-1.548l-.024-.208-.646-2.738c-.074-.316-.31-.56-.606-.652v-.29c0-.25-.2-.45-.45-.45s-.448.2-.448.45v.25h-2.02v-.25c0-.25-.2-.45-.447-.45-.25 0-.45.2-.45.45v.307c-.276.107-.49.34-.56.64l-.48 2.043h-.51v-.03c0-.25-.2-.45-.45-.45s-.45.2-.45.45v.03h-.787v-.03c0-.25-.2-.45-.45-.45s-.448.2-.448.45v.03h-.2V46.88c0-.498-.403-.9-.898-.9h-.92v-2.772c0-.25-.2-.45-.45-.45h-2.17c-.166 0-.318.092-.396.238-.077.146-.07.324.023.462l.4.6-.4.6c-.092.14-.1.317-.022.463.08.147.23.24.397.24h1.724v.62h-.943c-.496 0-.897.402-.897.9v6.452h-.167V53.3c0-.248-.2-.45-.448-.45s-.45.202-.45.45v.032h-.787v-.034c0-.248-.2-.45-.45-.45s-.448.202-.448.45v.032h-.51l-.482-2.045c-.07-.296-.28-.527-.55-.632v-.31c0-.25-.2-.45-.45-.45s-.448.2-.448.45v.25H6.31v-.25c0-.25-.2-.45-.448-.45s-.448.2-.448.45v.29c-.3.093-.54.337-.614.655l-.646 2.738-.024.208v1.64H1.528c-.248 0-.448.2-.448.45V67.56H.868c-.495 0-.897.402-.897.9s.406.9.9.9h30.24c.498 0 .9-.404.9-.9s-.402-.9-.9-.9zm-6.203-5.188h-1.122v-2.02c.018-.3.262-.53.56-.53.3 0 .544.23.562.53v2.02zM14.48 44.456l.1-.15c.1-.15.1-.35 0-.5l-.1-.15h.885v.8h-.885zM1.98 56.77h2.155v10.786H3.54v-7.163c0-.25-.2-.45-.45-.45s-.448.202-.448.45v7.163H1.98V56.77zm7.007-2.88H5.6l.433-1.836h2.52l.434 1.837zm3.398.9l-.69.342-.67.332c-.188.092-.287.303-.24.506.048.204.23.348.437.348h.106v.563h-1.325v-2.09h2.382zm2.485-2.736h1.862v1.475l-.45-.228-.245-.122c-.126-.06-.273-.06-.398 0l-.326.16-.448.222v-1.51zm6.764 2.737v2.095H20.31v-.563h.104c.208 0 .39-.144.437-.347.05-.204-.05-.413-.234-.506l-.666-.334-.685-.34h2.37zm1.015-.9l.43-1.833h2.52l.435 1.837H22.65zm-10.97 3.896l.093.01h8.083l.09-.01h1.683v4.585h-.315v-2.054c-.038-.783-.678-1.397-1.46-1.397-.39 0-.748.153-1.01.405-.264-.252-.62-.406-1.012-.406-.39 0-.747.153-1.01.405-.263-.252-.62-.406-1.01-.406-.392 0-.75.153-1.012.405-.26-.252-.62-.406-1.01-.406s-.747.153-1.01.405c-.262-.252-.62-.406-1.01-.406-.78 0-1.422.612-1.46 1.396v2.054H10v-4.587h1.68zm.54-.9v-.563h7.187v.574H12.22v-.01zm11.56 10.406V65.89c.018-.297.262-.53.56-.53.3 0 .544.233.562.53v1.67H23.78v-.265zM13.235 60.35c.018-.298.264-.53.56-.53.3 0 .545.232.563.53v2.02h-1.124v-2.02zm2.02 0c.02-.298.265-.53.562-.53.298 0 .544.232.562.53v2.02h-1.126v-2.02zm2.022 0c.018-.298.263-.53.56-.53.3 0 .545.232.563.53v2.02h-1.12v-2.02zm2.02 0c.02-.298.264-.53.562-.53.295 0 .54.232.56.53v2.02H19.3v-2.02zm-6.96 2.02h-1.122v-2.02c.018-.298.264-.53.56-.53.3 0 .544.232.562.53v2.02zm-2.334 4.924v-4.02h11.63v4.287h-.314V65.8c-.04-.784-.68-1.398-1.46-1.398-.39 0-.75.153-1.01.406-.266-.253-.62-.407-1.014-.407-.39 0-.747.154-1.01.407-.263-.253-.62-.407-1.01-.407-.392 0-.75.152-1.012.405-.262-.253-.62-.407-1.01-.407-.392 0-.748.153-1.01.406-.263-.253-.62-.407-1.01-.407-.782 0-1.423.613-1.46 1.396v1.76H10v-.265zm1.212 0v-1.46c.018-.296.264-.53.56-.53.3 0 .544.233.562.53v1.728h-1.123v-.265zm2.02 0v-1.46c.018-.296.264-.53.56-.53.3 0 .545.233.563.53v1.728h-1.124v-.265zm2.02 0v-1.46c.02-.296.265-.53.562-.53.298 0 .544.233.562.53v1.728h-1.126v-.265zm2.022 0v-1.46c.018-.296.263-.53.56-.53.3 0 .545.233.563.53v1.728h-1.12v-.265zm2.02 0v-1.46c.02-.296.264-.53.562-.53.295 0 .54.233.56.53v1.728H19.3v-.265zm-11.41 0v.267H6.762v-1.67c.02-.297.264-.53.562-.53.297 0 .543.233.56.53v1.404zm18.164.267h-.246v-1.703c-.007-.16-.04-.31-.094-.452-.073-.19-.183-.36-.32-.502-.128-.132-.28-.238-.45-.314-.18-.08-.382-.13-.595-.13-.78 0-1.422.614-1.458 1.398v1.703h-.354v-9.01h3.625v9.007h-.106zm-.34-10.02h-2.534c.374-.262.823-.406 1.298-.406.16 0 .315.02.467.05.156.03.306.08.45.143l.32.173.062.04h-.06zm-11.29-2.745l.91-.45.165-.082.136-.067.207-.1.205.1.13.065.173.087.602.3.3.15.684.342.218.107.356.177H13.15l.36-.176.22-.108.69-.34zM6.662 57.54h-.73l.282-.167c.142-.072.293-.127.45-.167.182-.047.372-.072.567-.072.475 0 .923.145 1.298.406H6.664zM5.48 58.55h3.625v9.006h-.323v-1.703c-.036-.784-.677-1.397-1.458-1.397-.238 0-.462.058-.66.16-.173.087-.325.207-.45.353-.127.145-.224.32-.283.514v.008c-.033.115-.056.234-.062.358v1.704H5.48V58.55zm20.676-2.606v.767l-.105-.06-.21-.113-.13-.057-.32-.115c-.146-.044-.296-.078-.448-.1-.153-.023-.31-.035-.467-.035-.72 0-1.395.24-1.942.664v-2.1h3.626v1.15zM14.87 47.437h1.862v3.716H14.87v-3.716zM5.48 55.87v-1.08h3.625v2.05c-.534-.394-1.185-.613-1.874-.613-.19 0-.38.017-.564.05-.153.03-.303.066-.45.116l-.282.112H5.93l-.162.08-.284.166-.003.005v-.886zm24.523 11.685h-.82v-7.163c0-.25-.202-.45-.45-.45-.247 0-.448.202-.448.45v7.163H27.5V56.68h2.503v10.875z" fill="#67737B"/><path d="M9.44 7.264c.08.06.174.09.272.09.097 0 .19-.03.268-.088.175-.13.23-.37.134-.563l-.132-.16c-.155-.116-.383-.116-.538 0-.175.13-.23.37-.132.565l.13.156m13.622.773c.077.06.172.09.27.09.097 0 .19-.03.268-.09.105-.077.17-.198.18-.328.01-.135-.04-.26-.132-.356l-.046-.04c-.155-.117-.383-.118-.54 0-.113.084-.18.218-.18.36 0 .143.066.276.18.36M19.52 5.302l.373.206.204.375c.08.145.23.235.394.235s.32-.09.397-.234l.204-.374.373-.205c.145-.078.235-.23.235-.394s-.09-.313-.234-.392l-.372-.204-.202-.374c-.078-.146-.23-.236-.393-.236s-.314.09-.393.235l-.203.372-.373.205c-.144.08-.234.23-.234.396s.09.316.234.395M5.93 23.05c.063.103.165.18.284.207l.1.012h2.02c.247 0 .448-.206.448-.45V20.31c-.036-.783-.677-1.397-1.458-1.397-.238 0-.462.057-.66.158-.173.087-.325.208-.45.353-.127.15-.224.324-.283.517v.01c-.033.113-.056.233-.062.357v2.505c0 .083.023.16.062.227l.002.004zm.832-2.703c.02-.298.264-.53.562-.53.297 0 .543.232.56.53v2.02h-1.12v-2.02zm18.945-.485c-.072-.19-.182-.36-.32-.503-.127-.135-.28-.24-.448-.318-.186-.08-.387-.128-.6-.128-.78 0-1.42.613-1.458 1.397v2.505c0 .25.2.45.45.45h2.02l.033-.004c.13-.01.245-.074.32-.172.06-.076.095-.17.095-.274V20.31c-.006-.16-.04-.31-.093-.452zm5.404 7.694h-.21V16.23c0-.25-.2-.45-.45-.45H27.5v-1.548l-.024-.208-.646-2.738c-.074-.316-.31-.56-.606-.652v-.29c0-.25-.2-.45-.45-.45s-.448.2-.448.45v.25h-2.02v-.25c0-.25-.2-.45-.447-.45-.25 0-.45.2-.45.45v.307c-.276.107-.49.34-.56.64l-.48 2.043h-.51v-.03c0-.25-.2-.45-.45-.45s-.45.2-.45.45v.03h-.787v-.03c0-.25-.2-.45-.45-.45s-.448.2-.448.45v.03h-.2V6.878c0-.498-.403-.9-.898-.9h-.92V3.204c0-.25-.2-.45-.45-.45h-2.17c-.166 0-.318.092-.396.238-.077.146-.07.324.023.462l.4.6-.4.6c-.092.14-.1.317-.022.463.08.146.23.238.397.238h1.724v.62h-.943c-.496 0-.897.403-.897.9v6.453h-.167v-.033c0-.248-.2-.45-.448-.45s-.45.202-.45.45v.032h-.787v-.033c0-.248-.2-.45-.45-.45s-.448.202-.448.45v.032h-.51l-.48-2.046c-.07-.295-.28-.526-.55-.63v-.31c0-.25-.2-.45-.45-.45s-.448.2-.448.45v.25h-2.02v-.25c0-.25-.2-.45-.448-.45s-.448.2-.448.45v.287c-.3.093-.54.337-.614.655l-.646 2.738-.024.208v1.638H1.528c-.248 0-.448.2-.448.45v11.236H.868c-.495 0-.897.403-.897.9s.406.9.9.9h30.24c.498 0 .9-.403.9-.9s-.402-.9-.9-.9zm-6.203-5.188h-1.122v-2.02c.018-.3.262-.53.56-.53.3 0 .544.23.562.53v2.02zM14.48 4.456l.1-.15c.1-.15.1-.35 0-.5l-.1-.15h.885v.8h-.885zM1.98 16.77h2.155v10.786H3.54v-7.163c0-.25-.2-.45-.45-.45s-.448.202-.448.45v7.163H1.98V16.77zm7.007-2.88H5.6l.433-1.836h2.52l.434 1.837zm3.398.9l-.69.342-.67.332c-.188.092-.287.303-.24.506.048.204.23.348.437.348h.106v.563h-1.325v-2.09h2.382zm2.485-2.736h1.862v1.475l-.45-.228-.245-.122c-.126-.06-.273-.06-.398 0l-.326.16-.448.222v-1.51zm6.764 2.737v2.095H20.31v-.563h.104c.208 0 .39-.144.437-.347.05-.204-.05-.413-.234-.506l-.666-.334-.685-.34h2.37zm1.015-.9l.43-1.833h2.52l.435 1.837H22.65zm-10.97 3.896l.093.01h8.083l.09-.01h1.683v4.585h-.315v-2.054c-.038-.783-.678-1.397-1.46-1.397-.39 0-.748.153-1.01.405-.264-.252-.62-.406-1.012-.406-.39 0-.747.153-1.01.405-.263-.252-.62-.406-1.01-.406-.392 0-.75.153-1.012.405-.26-.252-.62-.406-1.01-.406s-.747.153-1.01.405c-.262-.252-.62-.406-1.01-.406-.78 0-1.422.612-1.46 1.396v2.054H10v-4.587h1.68zm.54-.9v-.563h7.187v.574H12.22v-.01zm11.56 10.406V25.89c.018-.297.262-.53.56-.53.3 0 .544.233.562.53v1.67H23.78v-.265zM13.235 20.35c.018-.298.264-.53.56-.53.3 0 .545.232.563.53v2.02h-1.124v-2.02zm2.02 0c.02-.298.265-.53.562-.53.298 0 .544.232.562.53v2.02h-1.126v-2.02zm2.022 0c.018-.298.263-.53.56-.53.3 0 .545.232.563.53v2.02h-1.12v-2.02zm2.02 0c.02-.298.264-.53.562-.53.295 0 .54.232.56.53v2.02H19.3v-2.02zm-6.96 2.02h-1.122v-2.02c.018-.298.264-.53.56-.53.3 0 .544.232.562.53v2.02zm-2.334 4.924v-4.02h11.63v4.287h-.314V25.8c-.04-.784-.68-1.398-1.46-1.398-.39 0-.75.153-1.01.406-.266-.253-.62-.407-1.014-.407-.39 0-.747.154-1.01.407-.263-.253-.62-.407-1.01-.407-.392 0-.75.152-1.012.405-.262-.253-.62-.407-1.01-.407-.392 0-.748.153-1.01.406-.263-.253-.62-.407-1.01-.407-.782 0-1.423.613-1.46 1.396v1.76H10v-.265zm1.212 0v-1.46c.018-.296.264-.53.56-.53.3 0 .544.233.562.53v1.728h-1.123v-.265zm2.02 0v-1.46c.018-.296.264-.53.56-.53.3 0 .545.233.563.53v1.728h-1.124v-.265zm2.02 0v-1.46c.02-.296.265-.53.562-.53.298 0 .544.233.562.53v1.728h-1.126v-.265zm2.022 0v-1.46c.018-.296.263-.53.56-.53.3 0 .545.233.563.53v1.728h-1.12v-.265zm2.02 0v-1.46c.02-.296.264-.53.562-.53.295 0 .54.233.56.53v1.728H19.3v-.265zm-11.41 0v.267H6.762v-1.67c.02-.297.264-.53.562-.53.297 0 .543.233.56.53v1.404zm18.164.267h-.246v-1.703c-.007-.16-.04-.31-.094-.452-.073-.19-.183-.36-.32-.502-.128-.132-.28-.238-.45-.314-.18-.08-.382-.13-.595-.13-.78 0-1.422.614-1.458 1.398v1.703h-.354v-9.01h3.625v9.007h-.106zm-.34-10.02h-2.534c.374-.262.823-.406 1.298-.406.16 0 .315.02.467.05.156.03.306.08.45.143l.32.173.062.04h-.06zm-11.29-2.745l.91-.45.165-.082.136-.067.207-.1.205.1.13.065.173.087.602.3.3.15.684.342.218.107.356.177H13.15l.36-.176.22-.108.69-.34zM6.662 17.54h-.73l.282-.167c.142-.072.293-.127.45-.167.182-.047.372-.072.567-.072.475 0 .923.145 1.298.406H6.664zM5.48 18.55h3.625v9.006h-.323v-1.703c-.036-.784-.677-1.397-1.458-1.397-.238 0-.462.058-.66.16-.173.087-.325.207-.45.353-.127.145-.224.32-.283.514v.008c-.033.115-.056.234-.062.358v1.704H5.48V18.55zm20.676-2.606v.767l-.105-.06-.21-.113-.13-.057-.32-.115c-.146-.044-.296-.078-.448-.1-.153-.023-.31-.035-.467-.035-.72 0-1.395.24-1.942.664v-2.1h3.626v1.15zM14.87 7.437h1.862v3.716H14.87V7.437zM5.48 15.87v-1.08h3.625v2.05c-.534-.394-1.185-.613-1.874-.613-.19 0-.38.017-.564.05-.153.03-.303.066-.45.116l-.282.112H5.93l-.162.08-.284.166-.003.005v-.886zm24.523 11.685h-.82v-7.163c0-.25-.202-.45-.45-.45-.247 0-.448.202-.448.45v7.163H27.5V16.68h2.503v10.875z" fill="#3A434E"/></g></svg>