<svg width="32" height="232" viewBox="0 0 32 232" xmlns="http://www.w3.org/2000/svg" xmlns:sketch="http://www.bohemiancoding.com/sketch/ns"><title>ho-chi-minh-city</title><desc>Created with Sketch.</desc><g sketch:type="MSPage" fill="none"><g sketch:type="MSShapeGroup"><path d="M9.441 127.264c.078.059.173.091.271.091.097 0 .191-.031.268-.089.175-.131.231-.369.134-.563l-.132-.159c-.155-.117-.383-.117-.538-.001-.175.131-.231.37-.132.565l.13.156m13.622.773c.077.059.172.091.27.091.097 0 .191-.031.268-.09.105-.078.171-.199.18-.329.009-.131-.039-.259-.132-.352l-.046-.039c-.155-.118-.383-.119-.539-.002-.114.085-.181.219-.181.362 0 .142.066.275.179.36m-3.543-2.737l.373.205.204.375c.079.144.23.234.394.234s.315-.09.393-.234l.204-.375.373-.205c.144-.079.234-.231.234-.395 0-.165-.089-.316-.234-.395l-.373-.205-.204-.374c-.078-.145-.229-.235-.393-.235s-.315.09-.394.235l-.204.374-.373.205c-.144.079-.234.23-.234.395s.09.316.234.395m-13.589 17.749c.062.103.164.179.283.207l.1.012h2.02c.247 0 .448-.202.448-.45v-2.504c-.036-.783-.677-1.397-1.458-1.397-.238 0-.462.057-.661.158-.172.087-.324.208-.449.353-.127.15-.224.325-.283.518l-.003.009c-.034.114-.057.234-.063.358l-.001.021v2.483c0 .083.024.161.063.227l.003.004zm.831-2.703c.019-.298.264-.529.562-.529.297 0 .543.231.561.529v2.021h-1.123v-2.021zm18.945-.485c-.072-.19-.182-.36-.32-.503-.127-.131-.28-.238-.448-.314-.182-.081-.383-.128-.596-.128-.781 0-1.422.613-1.458 1.397v2.504c0 .249.201.45.449.45h2.02l.034-.004c.13-.01.245-.075.32-.173.059-.076.095-.17.095-.274v-2.504c-.007-.159-.041-.311-.094-.452zm5.404 7.694h-.211v-11.326c0-.249-.201-.45-.449-.45h-2.951v-1.548l-.024-.208-.646-2.738c-.074-.316-.31-.559-.606-.652v-.291c0-.249-.201-.45-.449-.45s-.449.201-.449.45v.25h-2.019v-.25c0-.249-.201-.45-.448-.45-.248 0-.449.201-.449.45v.308c-.273.103-.487.337-.557.635l-.482 2.044h-.51v-.032c0-.248-.201-.45-.449-.45s-.449.202-.449.45v.032h-.788v-.032c0-.248-.201-.45-.449-.45s-.449.202-.449.45v.032h-.201v-6.453c0-.498-.402-.901-.897-.901h-.918v-2.771c0-.249-.201-.45-.449-.45h-2.172c-.166 0-.318.092-.396.238-.078.146-.07.324.022.462l.399.6-.399.601c-.092.139-.1.316-.022.462.078.146.23.238.396.238h1.724v.619h-.944c-.496 0-.897.404-.897.901v6.453h-.168v-.032c0-.248-.201-.45-.448-.45-.248 0-.449.202-.449.45v.032h-.788v-.032c0-.248-.201-.45-.449-.45s-.449.202-.449.45v.032h-.509l-.483-2.044c-.07-.296-.28-.527-.55-.632v-.311c0-.249-.201-.45-.449-.45s-.449.201-.449.45v.25h-2.019v-.25c0-.249-.201-.45-.449-.45s-.448.201-.448.45v.289c-.3.092-.539.336-.614.654l-.646 2.738-.024.208v1.637h-2.604c-.248 0-.448.201-.448.45v11.236h-.212c-.495 0-.897.403-.897.9s.402.901.897.901h30.241c.496 0 .898-.404.898-.901s-.402-.9-.898-.9zm-6.207-5.188h-1.122v-2.021c.018-.298.262-.529.561-.529.298 0 .543.231.561.529v2.021zm-10.424-17.912l.1-.15c.1-.151.1-.349 0-.5l-.1-.15h.885v.8h-.885zm-12.501 12.315h2.156v10.785h-.595v-7.163c0-.249-.201-.45-.449-.45s-.449.202-.449.45v7.163h-.663v-10.785zm7.008-2.88h-3.387l.433-1.837h2.521l.433 1.837zm3.398.9l-.689.341-.672.332c-.187.092-.286.303-.239.506.048.204.229.348.437.348h.106v.563h-1.325v-2.091h2.382zm2.485-2.737h1.862v1.475l-.449-.224-.246-.122c-.126-.062-.273-.062-.398-.001l-.322.159-.448.222v-1.509zm6.764 2.737v2.091h-1.325v-.563h.105c.208 0 .389-.144.437-.347.048-.204-.051-.413-.238-.506l-.666-.333-.684-.341h2.37zm1.015-.9l.434-1.837h2.521l.434 1.837h-3.388zm-10.965 3.892l.093.01h8.083l.092-.01h1.682v4.585h-.315v-2.054c-.037-.783-.677-1.397-1.459-1.397-.391 0-.748.154-1.011.406-.263-.252-.619-.406-1.011-.406-.391 0-.747.154-1.011.406-.262-.252-.618-.406-1.01-.406-.391 0-.748.154-1.011.406-.262-.252-.619-.406-1.011-.406-.391 0-.747.154-1.01.406-.262-.252-.618-.406-1.01-.406-.781 0-1.422.613-1.458 1.397v2.054h-.315v-4.585h1.681zm.541-.9v-.563h7.186v.573h-7.186v-.01zm11.557 10.408v-1.404c.018-.297.262-.529.561-.529.298 0 .543.232.561.529v1.67h-1.122v-.265zm-10.547-6.944c.018-.298.264-.529.561-.529.298 0 .544.231.562.529v2.021h-1.123v-2.021zm2.021 0c.019-.298.264-.529.561-.529.298 0 .544.231.562.529v2.021h-1.123v-2.021zm2.021 0c.018-.298.263-.529.561-.529.298 0 .544.231.562.529v2.021h-1.123v-2.021zm2.021 0c.018-.298.263-.529.561-.529.298 0 .543.231.562.529v2.021h-1.123v-2.021zm-6.96 2.021h-1.123v-2.021c.018-.298.264-.529.561-.529.298 0 .543.231.561.529v2.021zm-2.335 4.923v-4.022h11.631v4.287h-.315v-1.76c-.037-.783-.677-1.397-1.459-1.397-.391 0-.748.154-1.011.407-.263-.253-.619-.407-1.011-.407-.391 0-.747.154-1.011.407-.262-.253-.618-.407-1.01-.407-.391 0-.748.154-1.011.407-.262-.253-.619-.407-1.011-.407-.391 0-.747.154-1.01.407-.262-.253-.618-.407-1.01-.407-.781 0-1.422.614-1.458 1.397v1.76h-.315v-.265zm1.212 0v-1.461c.018-.297.264-.529.561-.529.298 0 .543.231.561.529v1.727h-1.123v-.265zm2.02 0v-1.461c.018-.297.264-.529.561-.529.298 0 .544.231.562.529v1.727h-1.123v-.265zm2.021 0v-1.461c.019-.297.264-.529.561-.529.298 0 .544.231.562.529v1.727h-1.123v-.265zm2.021 0v-1.461c.018-.297.263-.529.561-.529.298 0 .544.231.562.529v1.727h-1.123v-.265zm2.021 0v-1.461c.018-.297.263-.529.561-.529.298 0 .543.231.562.529v1.727h-1.123v-.265zm-11.412 0v.265h-1.123v-1.67c.019-.297.264-.529.562-.529.297 0 .543.232.561.529v1.404zm18.165.265h-.249v-1.7029999999999998c-.007-.159-.041-.311-.094-.452-.072-.19-.182-.36-.32-.503-.127-.132-.28-.238-.448-.314-.182-.081-.383-.128-.596-.128-.781 0-1.422.613-1.458 1.397v1.7029999999999998h-.354v-9.007h3.625v9.007h-.105zm-.344-10.021h-2.532c.374-.261.823-.405 1.298-.405.159 0 .315.018.467.049.155.032.305.081.448.143l.32.173.063.04h-.063zm-11.291-2.744l.911-.45.167-.083.136-.067.206-.102.205.102.128.064.173.086.602.3.301.15.683.341.217.108.356.177h-5.354l.359-.177.219-.108.691-.341zm-7.753 2.744h-.729l.281-.166c.142-.072.293-.127.449-.167.183-.047.373-.072.568-.072.475 0 .923.144 1.298.405h-1.866zm-1.183 1.014h3.625v9.007h-.323v-1.7029999999999998c-.036-.784-.677-1.397-1.458-1.397-.238 0-.462.058-.661.159-.172.088-.324.208-.449.354-.127.149-.224.325-.283.518l-.003.008c-.034.115-.057.234-.063.358l-.001.021v1.682h-.385v-9.007zm20.676-2.605v.767l-.105-.063-.215-.114-.129-.057-.32-.114c-.146-.044-.296-.078-.448-.1-.153-.023-.309-.035-.467-.035-.719 0-1.395.239-1.942.665v-2.101h3.625v1.152zm-11.286-8.507h1.862v3.716h-1.862v-3.716zm-9.39 8.432v-1.077h3.625v2.049c-.534-.393-1.185-.612-1.874-.612-.193 0-.383.018-.568.052-.153.028-.303.065-.449.115l-.283.112-.003.001-.162.079-.284.166-.003.002v-.886zm24.523 11.686h-.821v-7.163c0-.249-.201-.45-.448-.45-.248 0-.449.202-.449.45v7.163h-.784v-10.875h2.502v10.875z" fill="#206FAC"/><path d="M9.441 87.264c.078.059.173.091.271.091.097 0 .191-.031.268-.089.175-.131.231-.369.134-.563l-.132-.159c-.155-.117-.383-.117-.538-.001-.175.131-.231.37-.132.565l.13.156m13.622.773c.077.059.172.091.27.091.097 0 .191-.031.268-.09.105-.078.171-.199.18-.329.009-.131-.039-.259-.132-.352l-.046-.039c-.155-.118-.383-.119-.539-.002-.114.085-.181.219-.181.362 0 .142.066.275.179.36m-3.543-2.737l.373.205.204.375c.079.144.23.234.394.234s.315-.09.393-.234l.204-.375.373-.205c.144-.079.234-.231.234-.395 0-.165-.089-.316-.234-.395l-.373-.205-.204-.374c-.078-.145-.229-.235-.393-.235s-.315.09-.394.235l-.204.374-.373.205c-.144.079-.234.23-.234.395s.09.316.234.395m-13.589 17.749c.062.103.164.179.283.207l.1.012h2.02c.247 0 .448-.202.448-.45v-2.504c-.036-.783-.677-1.397-1.458-1.397-.238 0-.462.057-.661.158-.172.087-.324.208-.449.353-.127.15-.224.325-.283.518l-.003.009c-.034.114-.057.234-.063.358l-.001.021v2.483c0 .083.024.161.063.227l.003.004zm.831-2.703c.019-.298.264-.529.562-.529.297 0 .543.231.561.529v2.021h-1.123v-2.021zm18.945-.485c-.072-.19-.182-.36-.32-.503-.127-.131-.28-.238-.448-.314-.182-.081-.383-.128-.596-.128-.781 0-1.422.613-1.458 1.397v2.504c0 .249.201.45.449.45h2.02l.034-.004c.13-.01.245-.075.32-.173.059-.076.095-.17.095-.274v-2.504c-.007-.159-.041-.311-.094-.452zm5.404 7.694h-.211v-11.326c0-.249-.201-.45-.449-.45h-2.951v-1.548l-.024-.208-.646-2.738c-.074-.316-.31-.559-.606-.652v-.291c0-.249-.201-.45-.449-.45s-.449.201-.449.45v.25h-2.019v-.25c0-.249-.201-.45-.448-.45-.248 0-.449.201-.449.45v.308c-.273.103-.487.337-.557.635l-.482 2.044h-.51v-.032c0-.248-.201-.45-.449-.45s-.449.202-.449.45v.032h-.788v-.032c0-.248-.201-.45-.449-.45s-.449.202-.449.45v.032h-.201v-6.453c0-.498-.402-.901-.897-.901h-.918v-2.771c0-.249-.201-.45-.449-.45h-2.172c-.166 0-.318.092-.396.238-.078.146-.07.324.022.462l.399.6-.399.601c-.092.139-.1.316-.022.462.078.146.23.238.396.238h1.724v.619h-.944c-.496 0-.897.404-.897.901v6.453h-.168v-.032c0-.248-.201-.45-.448-.45-.248 0-.449.202-.449.45v.032h-.788v-.032c0-.248-.201-.45-.449-.45s-.449.202-.449.45v.032h-.509l-.483-2.044c-.07-.296-.28-.527-.55-.632v-.311c0-.249-.201-.45-.449-.45s-.449.201-.449.45v.25h-2.019v-.25c0-.249-.201-.45-.449-.45s-.448.201-.448.45v.289c-.3.092-.539.336-.614.654l-.646 2.738-.024.208v1.637h-2.604c-.248 0-.448.201-.448.45v11.236h-.212c-.495 0-.897.403-.897.9s.402.901.897.901h30.241c.496 0 .898-.404.898-.901s-.402-.9-.898-.9zm-6.207-5.188h-1.122v-2.021c.018-.298.262-.529.561-.529.298 0 .543.231.561.529v2.021zm-10.424-17.912l.1-.15c.1-.151.1-.349 0-.5l-.1-.15h.885v.8h-.885zm-12.501 12.315h2.156v10.785h-.595v-7.163c0-.249-.201-.45-.449-.45s-.449.202-.449.45v7.163h-.663v-10.785zm7.008-2.88h-3.387l.433-1.837h2.521l.433 1.837zm3.398.9l-.689.341-.672.332c-.187.092-.286.303-.239.506.048.204.229.348.437.348h.106v.563h-1.325v-2.091h2.382zm2.485-2.737h1.862v1.475l-.449-.224-.246-.122c-.126-.062-.273-.062-.398-.001l-.322.159-.448.222v-1.509zm6.764 2.737v2.091h-1.325v-.563h.105c.208 0 .389-.144.437-.347.048-.204-.051-.413-.238-.506l-.666-.333-.684-.341h2.37zm1.015-.9l.434-1.837h2.521l.434 1.837h-3.388zm-10.965 3.892l.093.01h8.083l.092-.01h1.682v4.585h-.315v-2.054c-.037-.783-.677-1.397-1.459-1.397-.391 0-.748.154-1.011.406-.263-.252-.619-.406-1.011-.406-.391 0-.747.154-1.011.406-.262-.252-.618-.406-1.01-.406-.391 0-.748.154-1.011.406-.262-.252-.619-.406-1.011-.406-.391 0-.747.154-1.01.406-.262-.252-.618-.406-1.01-.406-.781 0-1.422.613-1.458 1.397v2.054h-.315v-4.585h1.681zm.541-.9v-.563h7.186v.573h-7.186v-.01zm11.557 10.408v-1.404c.018-.297.262-.529.561-.529.298 0 .543.232.561.529v1.67h-1.122v-.265zm-10.547-6.944c.018-.298.264-.529.561-.529.298 0 .544.231.562.529v2.021h-1.123v-2.021zm2.021 0c.019-.298.264-.529.561-.529.298 0 .544.231.562.529v2.021h-1.123v-2.021zm2.021 0c.018-.298.263-.529.561-.529.298 0 .544.231.562.529v2.021h-1.123v-2.021zm2.021 0c.018-.298.263-.529.561-.529.298 0 .543.231.562.529v2.021h-1.123v-2.021zm-6.96 2.021h-1.123v-2.021c.018-.298.264-.529.561-.529.298 0 .543.231.561.529v2.021zm-2.335 4.923v-4.022h11.631v4.287h-.315v-1.76c-.037-.783-.677-1.397-1.459-1.397-.391 0-.748.154-1.011.407-.263-.253-.619-.407-1.011-.407-.391 0-.747.154-1.011.407-.262-.253-.618-.407-1.01-.407-.391 0-.748.154-1.011.407-.262-.253-.619-.407-1.011-.407-.391 0-.747.154-1.01.407-.262-.253-.618-.407-1.01-.407-.781 0-1.422.614-1.458 1.397v1.76h-.315v-.265zm1.212 0v-1.461c.018-.297.264-.529.561-.529.298 0 .543.231.561.529v1.727h-1.123v-.265zm2.02 0v-1.461c.018-.297.264-.529.561-.529.298 0 .544.231.562.529v1.727h-1.123v-.265zm2.021 0v-1.461c.019-.297.264-.529.561-.529.298 0 .544.231.562.529v1.727h-1.123v-.265zm2.021 0v-1.461c.018-.297.263-.529.561-.529.298 0 .544.231.562.529v1.727h-1.123v-.265zm2.021 0v-1.461c.018-.297.263-.529.561-.529.298 0 .543.231.562.529v1.727h-1.123v-.265zm-11.412 0v.265h-1.123v-1.67c.019-.297.264-.529.562-.529.297 0 .543.232.561.529v1.404zm18.165.265h-.249v-1.7029999999999998c-.007-.159-.041-.311-.094-.452-.072-.19-.182-.36-.32-.503-.127-.132-.28-.238-.448-.314-.182-.081-.383-.128-.596-.128-.781 0-1.422.613-1.458 1.397v1.7029999999999998h-.354v-9.007h3.625v9.007h-.105zm-.344-10.021h-2.532c.374-.261.823-.405 1.298-.405.159 0 .315.018.467.049.155.032.305.081.448.143l.32.173.063.04h-.063zm-11.291-2.744l.911-.45.167-.083.136-.067.206-.102.205.102.128.064.173.086.602.3.301.15.683.341.217.108.356.177h-5.354l.359-.177.219-.108.691-.341zm-7.753 2.744h-.729l.281-.166c.142-.072.293-.127.449-.167.183-.047.373-.072.568-.072.475 0 .923.144 1.298.405h-1.866zm-1.183 1.014h3.625v9.007h-.323v-1.7029999999999998c-.036-.784-.677-1.397-1.458-1.397-.238 0-.462.058-.661.159-.172.088-.324.208-.449.354-.127.149-.224.325-.283.518l-.003.008c-.034.115-.057.234-.063.358l-.001.021v1.682h-.385v-9.007zm20.676-2.605v.767l-.105-.063-.215-.114-.129-.057-.32-.114c-.146-.044-.296-.078-.448-.1-.153-.023-.309-.035-.467-.035-.719 0-1.395.239-1.942.665v-2.101h3.625v1.152zm-11.286-8.507h1.862v3.716h-1.862v-3.716zm-9.39 8.432v-1.077h3.625v2.049c-.534-.393-1.185-.612-1.874-.612-.193 0-.383.018-.568.052-.153.028-.303.065-.449.115l-.283.112-.003.001-.162.079-.284.166-.003.002v-.886zm24.523 11.686h-.821v-7.163c0-.249-.201-.45-.448-.45-.248 0-.449.202-.449.45v7.163h-.784v-10.875h2.502v10.875z" fill="#fff"/><path d="M9.441 47.264c.078.059.173.091.271.091.097 0 .191-.031.268-.089.175-.131.231-.369.134-.563l-.132-.159c-.155-.117-.383-.117-.538-.001-.175.131-.231.37-.132.565l.13.156m13.622.773c.077.059.172.091.27.091.097 0 .191-.031.268-.09.105-.078.171-.199.18-.329.009-.131-.039-.259-.132-.352l-.046-.039c-.155-.118-.383-.119-.539-.002-.114.085-.181.219-.181.362 0 .142.066.275.179.36m-3.543-2.737l.373.205.204.375c.079.144.23.234.394.234s.315-.09.393-.234l.204-.375.373-.205c.144-.079.234-.231.234-.395 0-.165-.089-.316-.234-.395l-.373-.205-.204-.374c-.078-.145-.229-.235-.393-.235s-.315.09-.394.235l-.204.374-.373.205c-.144.079-.234.23-.234.395s.09.316.234.395m-13.589 17.749c.062.103.164.179.283.207l.1.012h2.02c.247 0 .448-.202.448-.45v-2.504c-.036-.783-.677-1.397-1.458-1.397-.238 0-.462.057-.661.158-.172.087-.324.208-.449.353-.127.15-.224.325-.283.518l-.003.009c-.034.114-.057.234-.063.358l-.001.021v2.483c0 .083.024.161.063.227l.003.004zm.831-2.703c.019-.298.264-.529.562-.529.297 0 .543.231.561.529v2.021h-1.123v-2.021zm18.945-.485c-.072-.19-.182-.36-.32-.503-.127-.131-.28-.238-.448-.314-.182-.081-.383-.128-.596-.128-.781 0-1.422.613-1.458 1.397v2.504c0 .249.201.45.449.45h2.02l.034-.004c.13-.01.245-.075.32-.173.059-.076.095-.17.095-.274v-2.504c-.007-.159-.041-.311-.094-.452zm5.404 7.694h-.211v-11.326c0-.249-.201-.45-.449-.45h-2.951v-1.548l-.024-.208-.646-2.738c-.074-.316-.31-.559-.606-.652v-.291c0-.249-.201-.45-.449-.45s-.449.201-.449.45v.25h-2.019v-.25c0-.249-.201-.45-.448-.45-.248 0-.449.201-.449.45v.308c-.273.103-.487.337-.557.635l-.482 2.044h-.51v-.032c0-.248-.201-.45-.449-.45s-.449.202-.449.45v.032h-.788v-.032c0-.248-.201-.45-.449-.45s-.449.202-.449.45v.032h-.201v-6.453c0-.498-.402-.901-.897-.901h-.918v-2.771c0-.249-.201-.45-.449-.45h-2.172c-.166 0-.318.092-.396.238-.078.146-.07.324.022.462l.399.6-.399.601c-.092.139-.1.316-.022.462.078.146.23.238.396.238h1.724v.619h-.944c-.496 0-.897.404-.897.901v6.453h-.168v-.032c0-.248-.201-.45-.448-.45-.248 0-.449.202-.449.45v.032h-.788v-.032c0-.248-.201-.45-.449-.45s-.449.202-.449.45v.032h-.509l-.483-2.044c-.07-.296-.28-.527-.55-.632v-.311c0-.249-.201-.45-.449-.45s-.449.201-.449.45v.25h-2.019v-.25c0-.249-.201-.45-.449-.45s-.448.201-.448.45v.289c-.3.092-.539.336-.614.654l-.646 2.738-.024.208v1.637h-2.604c-.248 0-.448.201-.448.45v11.236h-.212c-.495 0-.897.403-.897.9s.402.901.897.901h30.241c.496 0 .898-.404.898-.901s-.402-.9-.898-.9zm-6.207-5.188h-1.122v-2.021c.018-.298.262-.529.561-.529.298 0 .543.231.561.529v2.021zm-10.424-17.912l.1-.15c.1-.151.1-.349 0-.5l-.1-.15h.885v.8h-.885zm-12.501 12.315h2.156v10.785h-.595v-7.163c0-.249-.201-.45-.449-.45s-.449.202-.449.45v7.163h-.663v-10.785zm7.008-2.88h-3.387l.433-1.837h2.521l.433 1.837zm3.398.9l-.689.341-.672.332c-.187.092-.286.303-.239.506.048.204.229.348.437.348h.106v.563h-1.325v-2.091h2.382zm2.485-2.737h1.862v1.475l-.449-.224-.246-.122c-.126-.062-.273-.062-.398-.001l-.322.159-.448.222v-1.509zm6.764 2.737v2.091h-1.325v-.563h.105c.208 0 .389-.144.437-.347.048-.204-.051-.413-.238-.506l-.666-.333-.684-.341h2.37zm1.015-.9l.434-1.837h2.521l.434 1.837h-3.388zm-10.965 3.892l.093.01h8.083l.092-.01h1.682v4.585h-.315v-2.054c-.037-.783-.677-1.397-1.459-1.397-.391 0-.748.154-1.011.406-.263-.252-.619-.406-1.011-.406-.391 0-.747.154-1.011.406-.262-.252-.618-.406-1.01-.406-.391 0-.748.154-1.011.406-.262-.252-.619-.406-1.011-.406-.391 0-.747.154-1.01.406-.262-.252-.618-.406-1.01-.406-.781 0-1.422.613-1.458 1.397v2.054h-.315v-4.585h1.681zm.541-.9v-.563h7.186v.573h-7.186v-.01zm11.557 10.408v-1.404c.018-.297.262-.529.561-.529.298 0 .543.232.561.529v1.67h-1.122v-.265zm-10.547-6.944c.018-.298.264-.529.561-.529.298 0 .544.231.562.529v2.021h-1.123v-2.021zm2.021 0c.019-.298.264-.529.561-.529.298 0 .544.231.562.529v2.021h-1.123v-2.021zm2.021 0c.018-.298.263-.529.561-.529.298 0 .544.231.562.529v2.021h-1.123v-2.021zm2.021 0c.018-.298.263-.529.561-.529.298 0 .543.231.562.529v2.021h-1.123v-2.021zm-6.96 2.021h-1.123v-2.021c.018-.298.264-.529.561-.529.298 0 .543.231.561.529v2.021zm-2.335 4.923v-4.022h11.631v4.287h-.315v-1.76c-.037-.783-.677-1.397-1.459-1.397-.391 0-.748.154-1.011.407-.263-.253-.619-.407-1.011-.407-.391 0-.747.154-1.011.407-.262-.253-.618-.407-1.01-.407-.391 0-.748.154-1.011.407-.262-.253-.619-.407-1.011-.407-.391 0-.747.154-1.01.407-.262-.253-.618-.407-1.01-.407-.781 0-1.422.614-1.458 1.397v1.76h-.315v-.265zm1.212 0v-1.461c.018-.297.264-.529.561-.529.298 0 .543.231.561.529v1.727h-1.123v-.265zm2.02 0v-1.461c.018-.297.264-.529.561-.529.298 0 .544.231.562.529v1.727h-1.123v-.265zm2.021 0v-1.461c.019-.297.264-.529.561-.529.298 0 .544.231.562.529v1.727h-1.123v-.265zm2.021 0v-1.461c.018-.297.263-.529.561-.529.298 0 .544.231.562.529v1.727h-1.123v-.265zm2.021 0v-1.461c.018-.297.263-.529.561-.529.298 0 .543.231.562.529v1.727h-1.123v-.265zm-11.412 0v.265h-1.123v-1.67c.019-.297.264-.529.562-.529.297 0 .543.232.561.529v1.404zm18.165.265h-.249v-1.7029999999999998c-.007-.159-.041-.311-.094-.452-.072-.19-.182-.36-.32-.503-.127-.132-.28-.238-.448-.314-.182-.081-.383-.128-.596-.128-.781 0-1.422.613-1.458 1.397v1.7029999999999998h-.354v-9.007h3.625v9.007h-.105zm-.344-10.021h-2.532c.374-.261.823-.405 1.298-.405.159 0 .315.018.467.049.155.032.305.081.448.143l.32.173.063.04h-.063zm-11.291-2.744l.911-.45.167-.083.136-.067.206-.102.205.102.128.064.173.086.602.3.301.15.683.341.217.108.356.177h-5.354l.359-.177.219-.108.691-.341zm-7.753 2.744h-.729l.281-.166c.142-.072.293-.127.449-.167.183-.047.373-.072.568-.072.475 0 .923.144 1.298.405h-1.866zm-1.183 1.014h3.625v9.007h-.323v-1.7029999999999998c-.036-.784-.677-1.397-1.458-1.397-.238 0-.462.058-.661.159-.172.088-.324.208-.449.354-.127.149-.224.325-.283.518l-.003.008c-.034.115-.057.234-.063.358l-.001.021v1.682h-.385v-9.007zm20.676-2.605v.767l-.105-.063-.215-.114-.129-.057-.32-.114c-.146-.044-.296-.078-.448-.1-.153-.023-.309-.035-.467-.035-.719 0-1.395.239-1.942.665v-2.101h3.625v1.152zm-11.286-8.507h1.862v3.716h-1.862v-3.716zm-9.39 8.432v-1.077h3.625v2.049c-.534-.393-1.185-.612-1.874-.612-.193 0-.383.018-.568.052-.153.028-.303.065-.449.115l-.283.112-.003.001-.162.079-.284.166-.003.002v-.886zm24.523 11.686h-.821v-7.163c0-.249-.201-.45-.448-.45-.248 0-.449.202-.449.45v7.163h-.784v-10.875h2.502v10.875z" fill="#67737B"/><path d="M9.441 7.264c.078.059.173.091.271.091.097 0 .191-.031.268-.089.175-.131.231-.369.134-.563l-.132-.159c-.155-.117-.383-.117-.538-.001-.175.131-.231.37-.132.565l.13.156m13.622.773c.077.059.172.091.27.091.097 0 .191-.031.268-.09.105-.078.171-.199.18-.329.009-.131-.039-.259-.132-.352l-.046-.039c-.155-.118-.383-.119-.539-.002-.114.085-.181.219-.181.362 0 .142.066.275.179.36m-3.543-2.737l.373.205.204.375c.079.144.23.234.394.234s.315-.09.393-.234l.204-.375.373-.205c.144-.079.234-.231.234-.395 0-.165-.089-.316-.234-.395l-.373-.205-.204-.374c-.078-.145-.229-.235-.393-.235s-.315.09-.394.235l-.204.374-.373.205c-.144.079-.234.23-.234.395s.09.316.234.395m-13.589 17.749c.062.103.164.179.283.207l.1.012h2.02c.247 0 .448-.202.448-.45v-2.504c-.036-.783-.677-1.397-1.458-1.397-.238 0-.462.057-.661.158-.172.087-.324.208-.449.353-.127.15-.224.325-.283.518l-.003.009c-.034.114-.057.234-.063.358l-.001.021v2.483c0 .083.024.161.063.227l.003.004zm.831-2.703c.019-.298.264-.529.562-.529.297 0 .543.231.561.529v2.021h-1.123v-2.021zm18.945-.485c-.072-.19-.182-.36-.32-.503-.127-.131-.28-.238-.448-.314-.182-.081-.383-.128-.596-.128-.781 0-1.422.613-1.458 1.397v2.504c0 .249.201.45.449.45h2.02l.034-.004c.13-.01.245-.075.32-.173.059-.076.095-.17.095-.274v-2.504c-.007-.159-.041-.311-.094-.452zm5.404 7.694h-.211v-11.326c0-.249-.201-.45-.449-.45h-2.951v-1.548l-.024-.208-.646-2.738c-.074-.316-.31-.559-.606-.652v-.291c0-.249-.201-.45-.449-.45s-.449.201-.449.45v.25h-2.019v-.25c0-.249-.201-.45-.448-.45-.248 0-.449.201-.449.45v.308c-.273.103-.487.337-.557.635l-.482 2.044h-.51v-.032c0-.248-.201-.45-.449-.45s-.449.202-.449.45v.032h-.788v-.032c0-.248-.201-.45-.449-.45s-.449.202-.449.45v.032h-.201v-6.453c0-.498-.402-.901-.897-.901h-.918v-2.771c0-.249-.201-.45-.449-.45h-2.172c-.166 0-.318.092-.396.238-.078.146-.07.324.022.462l.399.6-.399.601c-.092.139-.1.316-.022.462.078.146.23.238.396.238h1.724v.619h-.944c-.496 0-.897.404-.897.901v6.453h-.168v-.032c0-.248-.201-.45-.448-.45-.248 0-.449.202-.449.45v.032h-.788v-.032c0-.248-.201-.45-.449-.45s-.449.202-.449.45v.032h-.509l-.483-2.044c-.07-.296-.28-.527-.55-.632v-.311c0-.249-.201-.45-.449-.45s-.449.201-.449.45v.25h-2.019v-.25c0-.249-.201-.45-.449-.45s-.448.201-.448.45v.289c-.3.092-.539.336-.614.654l-.646 2.738-.024.208v1.637h-2.604c-.248 0-.448.201-.448.45v11.236h-.212c-.495 0-.897.403-.897.9s.402.901.897.901h30.241c.496 0 .898-.404.898-.901s-.402-.9-.898-.9zm-6.207-5.188h-1.122v-2.021c.018-.298.262-.529.561-.529.298 0 .543.231.561.529v2.021zm-10.424-17.912l.1-.15c.1-.151.1-.349 0-.5l-.1-.15h.885v.8h-.885zm-12.501 12.315h2.156v10.785h-.595v-7.163c0-.249-.201-.45-.449-.45s-.449.202-.449.45v7.163h-.663v-10.785zm7.008-2.88h-3.387l.433-1.837h2.521l.433 1.837zm3.398.9l-.689.341-.672.332c-.187.092-.286.303-.239.506.048.204.229.348.437.348h.106v.563h-1.325v-2.091h2.382zm2.485-2.737h1.862v1.475l-.449-.224-.246-.122c-.126-.062-.273-.062-.398-.001l-.322.159-.448.222v-1.509zm6.764 2.737v2.091h-1.325v-.563h.105c.208 0 .389-.144.437-.347.048-.204-.051-.413-.238-.506l-.666-.333-.684-.341h2.37zm1.015-.9l.434-1.837h2.521l.434 1.837h-3.388zm-10.965 3.892l.093.01h8.083l.092-.01h1.682v4.585h-.315v-2.054c-.037-.783-.677-1.397-1.459-1.397-.391 0-.748.154-1.011.406-.263-.252-.619-.406-1.011-.406-.391 0-.747.154-1.011.406-.262-.252-.618-.406-1.01-.406-.391 0-.748.154-1.011.406-.262-.252-.619-.406-1.011-.406-.391 0-.747.154-1.01.406-.262-.252-.618-.406-1.01-.406-.781 0-1.422.613-1.458 1.397v2.054h-.315v-4.585h1.681zm.541-.9v-.563h7.186v.573h-7.186v-.01zm11.557 10.408v-1.404c.018-.297.262-.529.561-.529.298 0 .543.232.561.529v1.67h-1.122v-.265zm-10.547-6.944c.018-.298.264-.529.561-.529.298 0 .544.231.562.529v2.021h-1.123v-2.021zm2.021 0c.019-.298.264-.529.561-.529.298 0 .544.231.562.529v2.021h-1.123v-2.021zm2.021 0c.018-.298.263-.529.561-.529.298 0 .544.231.562.529v2.021h-1.123v-2.021zm2.021 0c.018-.298.263-.529.561-.529.298 0 .543.231.562.529v2.021h-1.123v-2.021zm-6.96 2.021h-1.123v-2.021c.018-.298.264-.529.561-.529.298 0 .543.231.561.529v2.021zm-2.335 4.923v-4.022h11.631v4.287h-.315v-1.76c-.037-.783-.677-1.397-1.459-1.397-.391 0-.748.154-1.011.407-.263-.253-.619-.407-1.011-.407-.391 0-.747.154-1.011.407-.262-.253-.618-.407-1.01-.407-.391 0-.748.154-1.011.407-.262-.253-.619-.407-1.011-.407-.391 0-.747.154-1.01.407-.262-.253-.618-.407-1.01-.407-.781 0-1.422.614-1.458 1.397v1.76h-.315v-.265zm1.212 0v-1.461c.018-.297.264-.529.561-.529.298 0 .543.231.561.529v1.727h-1.123v-.265zm2.02 0v-1.461c.018-.297.264-.529.561-.529.298 0 .544.231.562.529v1.727h-1.123v-.265zm2.021 0v-1.461c.019-.297.264-.529.561-.529.298 0 .544.231.562.529v1.727h-1.123v-.265zm2.021 0v-1.461c.018-.297.263-.529.561-.529.298 0 .544.231.562.529v1.727h-1.123v-.265zm2.021 0v-1.461c.018-.297.263-.529.561-.529.298 0 .543.231.562.529v1.727h-1.123v-.265zm-11.412 0v.265h-1.123v-1.67c.019-.297.264-.529.562-.529.297 0 .543.232.561.529v1.404zm18.165.265h-.249v-1.7029999999999998c-.007-.159-.041-.311-.094-.452-.072-.19-.182-.36-.32-.503-.127-.132-.28-.238-.448-.314-.182-.081-.383-.128-.596-.128-.781 0-1.422.613-1.458 1.397v1.7029999999999998h-.354v-9.007h3.625v9.007h-.105zm-.344-10.021h-2.532c.374-.261.823-.405 1.298-.405.159 0 .315.018.467.049.155.032.305.081.448.143l.32.173.063.04h-.063zm-11.291-2.744l.911-.45.167-.083.136-.067.206-.102.205.102.128.064.173.086.602.3.301.15.683.341.217.108.356.177h-5.354l.359-.177.219-.108.691-.341zm-7.753 2.744h-.729l.281-.166c.142-.072.293-.127.449-.167.183-.047.373-.072.568-.072.475 0 .923.144 1.298.405h-1.866zm-1.183 1.014h3.625v9.007h-.323v-1.7029999999999998c-.036-.784-.677-1.397-1.458-1.397-.238 0-.462.058-.661.159-.172.088-.324.208-.449.354-.127.149-.224.325-.283.518l-.003.008c-.034.115-.057.234-.063.358l-.001.021v1.682h-.385v-9.007zm20.676-2.605v.767l-.105-.063-.215-.114-.129-.057-.32-.114c-.146-.044-.296-.078-.448-.1-.153-.023-.309-.035-.467-.035-.719 0-1.395.239-1.942.665v-2.101h3.625v1.152zm-11.286-8.507h1.862v3.716h-1.862v-3.716zm-9.39 8.432v-1.077h3.625v2.049c-.534-.393-1.185-.612-1.874-.612-.193 0-.383.018-.568.052-.153.028-.303.065-.449.115l-.283.112-.003.001-.162.079-.284.166-.003.002v-.886zm24.523 11.686h-.821v-7.163c0-.249-.201-.45-.448-.45-.248 0-.449.202-.449.45v7.163h-.784v-10.875h2.502v10.875z" fill="#3A434E"/></g></g></svg>