<svg width="32" height="232" viewBox="0 0 32 232" xmlns="http://www.w3.org/2000/svg" xmlns:sketch="http://www.bohemiancoding.com/sketch/ns"><title>zermatt-switzerland</title><desc>Created with Sketch.</desc><g sketch:type="MSPage" fill="none"><g sketch:type="MSShapeGroup"><path d="M28.38 146.832c-.257 0-.362-.044-.521-.11-.199-.083-.446-.186-.899-.186s-.701.103-.899.186c-.159.066-.264.11-.521.11s-.362-.044-.521-.11c-.199-.083-.446-.186-.899-.186s-.701.103-.899.186c-.159.066-.264.11-.521.11s-.362-.044-.521-.11c-.199-.083-.446-.186-.9-.186-.453 0-.7.103-.899.186-.159.066-.264.11-.521.11s-.362-.044-.521-.11c-.199-.083-.446-.186-.899-.186s-.701.103-.899.186c-.159.066-.264.11-.521.11s-.362-.044-.521-.11c-.199-.083-.446-.186-.899-.186s-.7.103-.899.186c-.159.066-.264.11-.521.11s-.362-.044-.52-.11c-.199-.083-.446-.186-.899-.186s-.7.103-.899.186c-.159.066-.263.11-.52.11s-.362-.044-.521-.11c-.199-.083-.446-.186-.899-.186s-.701.103-.899.186c-.159.066-.264.11-.521.11-.288 0-.521.249-.521.555 0 .307.233.555.521.555.453 0 .7-.103.899-.186.159-.066.264-.11.521-.11s.362.044.521.11c.199.083.446.186.899.186s.7-.103.899-.186c.159-.066.263-.11.52-.11s.362.044.52.11c.199.083.446.186.899.186s.701-.103.9-.186c.159-.066.263-.11.52-.11s.362.044.521.11c.199.083.446.186.899.186s.701-.103.899-.186c.159-.066.264-.11.521-.11s.362.044.521.11c.199.083.446.186.899.186s.701-.103.899-.186c.159-.066.264-.11.521-.11s.362.044.521.11c.199.083.446.186.899.186s.701-.103.9-.186c.159-.066.264-.11.521-.11s.362.044.52.11c.199.083.446.186.899.186s.701-.103.9-.186c.159-.066.264-.11.521-.11s.362.044.521.11c.199.083.446.186.899.186.288 0 .521-.249.521-.555 0-.307-.233-.555-.521-.555m3.401-9.403l-1.088-.838c-.197-.151-.464-.138-.647.032l-1.641 1.525-.123.114-.448-.064-.982-.14-.734-.615c-.13-.109-.3-.145-.46-.099l-1.542.452-.855-1.139-.077-.092-3.528-3.757-1.827-2.236-1.837-4.726c-.082-.211-.223-.389-.403-.512l-1.833-1.244c-.321-.218-.727-.231-1.06-.036-.333.195-.54.568-.54.973v1.004l-.909 1.107c-.111.135-.19.297-.229.472l-.067.297c-.247-.462-.713-.774-1.246-.774h-8.261c-.349 0-.685.136-.948.383-.309.291-.487.709-.487 1.147 0 .438.177.856.487 1.147.263.247.599.383.948.383h4.254l-.017.208c0 .378.153.738.419.988.226.213.517.33.817.33h3.177l-.385 1.712-1.615 1.005c-.32.199-.517.564-.517.959v2.088h-.292c-.3 0-.586.138-.784.379l-.144.175-1.669-.35c-.078-.016-.159-.013-.236.009l-1.041.3-1.194-.618c-.259-.134-.57-.019-.696.257s-.018.608.241.742l1.369.709c.113.059.242.072.363.036l1.111-.321.958.201-.23.28-.152.244-1.954 4.264c-.101.221-.126.46-.088.684-.084.023-.18.037-.323.037-.257 0-.362-.044-.521-.11-.199-.083-.446-.186-.899-.186-.288 0-.521.249-.521.555 0 .307.233.555.521.555.257 0 .362.044.52.11.199.083.446.186.899.186s.701-.103.899-.186l.213-.077.233.029c.1 0 .2-.016.295-.047.115.018.196.052.3.095.199.083.446.186.899.186s.7-.103.899-.186c.159-.066.264-.11.521-.11s.362.044.521.11c.199.083.446.186.899.186s.7-.103.899-.186c.159-.066.264-.11.521-.11s.362.044.521.11c.199.083.446.186.899.186s.7-.103.899-.186c.159-.066.264-.11.521-.11s.362.044.52.11c.199.083.446.186.899.186s.701-.103.899-.186c.159-.066.263-.11.52-.11s.362.044.521.11c.199.083.446.186.899.186s.701-.103.899-.186c.159-.066.264-.11.521-.11s.362.044.521.11c.199.083.446.186.899.186s.701-.103.899-.186c.159-.066.264-.11.521-.11s.362.044.521.11c.199.083.446.186.899.186s.701-.103.9-.186c.159-.066.264-.11.521-.11s.362.044.521.11c.199.083.446.186.899.186s.701-.103.899-.186c.159-.066.264-.11.521-.11s.362.044.521.11c.199.083.446.186.899.186s.701-.103.9-.186c.159-.066.264-.11.521-.11s.362.044.521.11c.199.083.447.186.9.186.288 0 .521-.249.521-.555 0-.307-.233-.555-.521-.555-.257 0-.362-.044-.522-.11-.199-.083-.446-.186-.9-.186l-.313.019c-.007-.207-.068-.414-.188-.596l-.833-1.263-.09-.118-1.999-2.29-.103-.103-1.331-1.162.739-.216.639.536c.073.061.16.1.253.114l1.805.258.069.005c.125 0 .247-.048.342-.137l1.63-1.514.752.579c.233.179.559.124.727-.125.168-.249.116-.596-.117-.775zm-25.058-7.028c0-.081.042-.132.067-.156l.128-.052h.002c.288 0 .521-.248.521-.555 0-.307-.233-.555-.521-.555h-5.476c-.121 0-.208-.057-.259-.105-.05-.047-.134-.15-.134-.314s.084-.267.134-.314c.051-.048.138-.105.259-.105h8.261c.217 0 .393.188.393.419 0 .231-.176.419-.393.419-.288 0-.521.249-.521.555h-.002c0 .307.233.555.521.555h.735l-.094.416h-3.426l-.129-.053c-.025-.024-.067-.075-.067-.156zm20.08 13.315l.334.507-.178-.006c-.453 0-.701.103-.899.186-.159.066-.264.11-.521.11s-.362-.044-.521-.11c-.199-.083-.446-.186-.899-.186s-.701.103-.899.186c-.159.066-.264.11-.521.11s-.362-.044-.521-.11c-.199-.083-.446-.186-.9-.186-.453 0-.7.103-.899.186-.159.066-.264.11-.521.11s-.362-.044-.521-.11c-.199-.083-.446-.186-.899-.186s-.701.103-.899.186c-.159.066-.264.11-.521.11s-.362-.044-.521-.11c-.199-.083-.446-.186-.899-.186s-.7.103-.899.186c-.159.066-.264.11-.521.11s-.362-.044-.521-.11c-.199-.083-.446-.186-.899-.186s-.7.103-.899.186c-.159.066-.264.11-.521.11s-.362-.044-.521-.11c-.199-.083-.446-.186-.899-.186s-.701.103-.899.186c-.159.066-.264.11-.521.11s-.362-.044-.521-.11c-.199-.083-.446-.186-.899-.186s-.701.103-.899.186c-.159.066-.264.11-.521.11-.194 0-.302-.025-.411-.066l1.747-3.812.764-.931h.861c.575 0 1.041-.497 1.041-1.11v-2.56l1.483-.922c.245-.153.422-.406.488-.7l.753-3.351c.106-.194.167-.419.167-.659l-.003-.069.435-1.937.525-.64.3 1.859.055.169.226.448-.226.447c-.087.172-.082.379.011.546l.542.974v2.338l-.214.526-.043.221v.819l-.515.633c-.082.101-.127.23-.127.364v.868c0 .156.062.306.171.411l.825.797.355.773.042.076.592.896c.098.148.256.236.426.236h.8l.681.504c.091.067.194.099.297.099.165 0 .327-.083.428-.238.164-.252.106-.598-.13-.773l-.815-.604c-.087-.065-.191-.099-.297-.099h-.693l-.413-.625-.381-.829-.118-.167-.728-.703v-.415l.515-.633c.082-.101.127-.23.127-.364v-.912l.214-.526.043-.221v-2.606c0-.1-.025-.198-.073-.283l-.465-.836.065-.128.154-.306c.083-.164.083-.362 0-.526l-.318-.631-.195-1.204 1.344 3.457c.043.111.103.214.177.304l1.963 2.402.049.056 3.512 3.741 1.297 1.728.154.166 1.778 1.551 1.903 2.179zm-8.81-13.973h4.597c.288 0 .521-.249.521-.555 0-.307-.233-.555-.521-.555h-4.597c-.288 0-.521.249-.521.555 0 .307.233.555.521.555zm1.823-1.499h7.767c.288 0 .521-.249.521-.555 0-.307-.233-.555-.521-.555h-7.767c-.288 0-.521.249-.521.555 0 .307.233.555.521.555z" fill="#206FAC"/><path d="M28.38 106.832c-.257 0-.362-.044-.521-.11-.199-.083-.446-.186-.899-.186s-.701.103-.899.186c-.159.066-.264.11-.521.11s-.362-.044-.521-.11c-.199-.083-.446-.186-.899-.186s-.701.103-.899.186c-.159.066-.264.11-.521.11s-.362-.044-.521-.11c-.199-.083-.446-.186-.9-.186-.453 0-.7.103-.899.186-.159.066-.264.11-.521.11s-.362-.044-.521-.11c-.199-.083-.446-.186-.899-.186s-.701.103-.899.186c-.159.066-.264.11-.521.11s-.362-.044-.521-.11c-.199-.083-.446-.186-.899-.186s-.7.103-.899.186c-.159.066-.264.11-.521.11s-.362-.044-.52-.11c-.199-.083-.446-.186-.899-.186s-.7.103-.899.186c-.159.066-.263.11-.52.11s-.362-.044-.521-.11c-.199-.083-.446-.186-.899-.186s-.701.103-.899.186c-.159.066-.264.11-.521.11-.288 0-.521.249-.521.555 0 .307.233.555.521.555.453 0 .7-.103.899-.186.159-.066.264-.11.521-.11s.362.044.521.11c.199.083.446.186.899.186s.7-.103.899-.186c.159-.066.263-.11.52-.11s.362.044.52.11c.199.083.446.186.899.186s.701-.103.9-.186c.159-.066.263-.11.52-.11s.362.044.521.11c.199.083.446.186.899.186s.701-.103.899-.186c.159-.066.264-.11.521-.11s.362.044.521.11c.199.083.446.186.899.186s.701-.103.899-.186c.159-.066.264-.11.521-.11s.362.044.521.11c.199.083.446.186.899.186s.701-.103.9-.186c.159-.066.264-.11.521-.11s.362.044.52.11c.199.083.446.186.899.186s.701-.103.9-.186c.159-.066.264-.11.521-.11s.362.044.521.11c.199.083.446.186.899.186.288 0 .521-.249.521-.555 0-.307-.233-.555-.521-.555m3.401-9.403l-1.088-.838c-.197-.151-.464-.138-.647.032l-1.641 1.525-.123.114-.448-.064-.982-.14-.734-.615c-.13-.109-.3-.145-.46-.099l-1.542.452-.855-1.139-.077-.092-3.528-3.757-1.827-2.236-1.837-4.726c-.082-.211-.223-.389-.403-.512l-1.833-1.244c-.321-.218-.727-.231-1.06-.036-.333.195-.54.568-.54.973v1.004l-.909 1.107c-.111.135-.19.297-.229.472l-.067.297c-.247-.462-.713-.774-1.246-.774h-8.261c-.349 0-.685.136-.948.383-.309.291-.487.709-.487 1.147 0 .438.177.856.487 1.147.263.247.599.383.948.383h4.254l-.017.208c0 .378.153.738.419.988.226.213.517.33.817.33h3.177l-.385 1.712-1.615 1.005c-.32.199-.517.564-.517.959v2.088h-.292c-.3 0-.586.138-.784.379l-.144.175-1.669-.35c-.078-.016-.159-.013-.236.009l-1.041.3-1.194-.618c-.259-.134-.57-.019-.696.257s-.018.608.241.742l1.369.709c.113.059.242.072.363.036l1.111-.321.958.201-.23.28-.152.244-1.954 4.264c-.101.221-.126.46-.088.684-.084.023-.18.037-.323.037-.257 0-.362-.044-.521-.11-.199-.083-.446-.186-.899-.186-.288 0-.521.249-.521.555 0 .307.233.555.521.555.257 0 .362.044.52.11.199.083.446.186.899.186s.701-.103.899-.186l.213-.077.233.029c.1 0 .2-.016.295-.047.115.018.196.052.3.095.199.083.446.186.899.186s.7-.103.899-.186c.159-.066.264-.11.521-.11s.362.044.521.11c.199.083.446.186.899.186s.7-.103.899-.186c.159-.066.264-.11.521-.11s.362.044.521.11c.199.083.446.186.899.186s.7-.103.899-.186c.159-.066.264-.11.521-.11s.362.044.52.11c.199.083.446.186.899.186s.701-.103.899-.186c.159-.066.263-.11.52-.11s.362.044.521.11c.199.083.446.186.899.186s.701-.103.899-.186c.159-.066.264-.11.521-.11s.362.044.521.11c.199.083.446.186.899.186s.701-.103.899-.186c.159-.066.264-.11.521-.11s.362.044.521.11c.199.083.446.186.899.186s.701-.103.9-.186c.159-.066.264-.11.521-.11s.362.044.521.11c.199.083.446.186.899.186s.701-.103.899-.186c.159-.066.264-.11.521-.11s.362.044.521.11c.199.083.446.186.899.186s.701-.103.9-.186c.159-.066.264-.11.521-.11s.362.044.521.11c.199.083.447.186.9.186.288 0 .521-.249.521-.555 0-.307-.233-.555-.521-.555-.257 0-.362-.044-.522-.11-.199-.083-.446-.186-.9-.186l-.313.019c-.007-.207-.068-.414-.188-.596l-.833-1.263-.09-.118-1.999-2.29-.103-.103-1.331-1.162.739-.216.639.536c.073.061.16.1.253.114l1.805.258.069.005c.125 0 .247-.048.342-.137l1.63-1.514.752.579c.233.179.559.124.727-.125.168-.249.116-.596-.117-.775zm-25.058-7.028c0-.081.042-.132.067-.156l.128-.052h.002c.288 0 .521-.248.521-.555 0-.307-.233-.555-.521-.555h-5.476c-.121 0-.208-.057-.259-.105-.05-.047-.134-.15-.134-.314s.084-.267.134-.314c.051-.048.138-.105.259-.105h8.261c.217 0 .393.188.393.419 0 .231-.176.419-.393.419-.288 0-.521.249-.521.555h-.002c0 .307.233.555.521.555h.735l-.094.416h-3.426l-.129-.053c-.025-.024-.067-.075-.067-.156zm20.08 13.315l.334.507-.178-.006c-.453 0-.701.103-.899.186-.159.066-.264.11-.521.11s-.362-.044-.521-.11c-.199-.083-.446-.186-.899-.186s-.701.103-.899.186c-.159.066-.264.11-.521.11s-.362-.044-.521-.11c-.199-.083-.446-.186-.9-.186-.453 0-.7.103-.899.186-.159.066-.264.11-.521.11s-.362-.044-.521-.11c-.199-.083-.446-.186-.899-.186s-.701.103-.899.186c-.159.066-.264.11-.521.11s-.362-.044-.521-.11c-.199-.083-.446-.186-.899-.186s-.7.103-.899.186c-.159.066-.264.11-.521.11s-.362-.044-.521-.11c-.199-.083-.446-.186-.899-.186s-.7.103-.899.186c-.159.066-.264.11-.521.11s-.362-.044-.521-.11c-.199-.083-.446-.186-.899-.186s-.701.103-.899.186c-.159.066-.264.11-.521.11s-.362-.044-.521-.11c-.199-.083-.446-.186-.899-.186s-.701.103-.899.186c-.159.066-.264.11-.521.11-.194 0-.302-.025-.411-.066l1.747-3.812.764-.931h.861c.575 0 1.041-.497 1.041-1.11v-2.56l1.483-.922c.245-.153.422-.406.488-.7l.753-3.351c.106-.194.167-.419.167-.659l-.003-.069.435-1.937.525-.64.3 1.859.055.169.226.448-.226.447c-.087.172-.082.379.011.546l.542.974v2.338l-.214.526-.043.221v.819l-.515.633c-.082.101-.127.23-.127.364v.868c0 .156.062.306.171.411l.825.797.355.773.042.076.592.896c.098.148.256.236.426.236h.8l.681.504c.091.067.194.099.297.099.165 0 .327-.083.428-.238.164-.252.106-.598-.13-.773l-.815-.604c-.087-.065-.191-.099-.297-.099h-.693l-.413-.625-.381-.829-.118-.167-.728-.703v-.415l.515-.633c.082-.101.127-.23.127-.364v-.912l.214-.526.043-.221v-2.606c0-.1-.025-.198-.073-.283l-.465-.836.065-.128.154-.306c.083-.164.083-.362 0-.526l-.318-.631-.195-1.204 1.344 3.457c.043.111.103.214.177.304l1.963 2.402.049.056 3.512 3.741 1.297 1.728.154.166 1.778 1.551 1.903 2.179zm-8.81-13.973h4.597c.288 0 .521-.249.521-.555 0-.307-.233-.555-.521-.555h-4.597c-.288 0-.521.249-.521.555 0 .307.233.555.521.555zm1.823-1.499h7.767c.288 0 .521-.249.521-.555 0-.307-.233-.555-.521-.555h-7.767c-.288 0-.521.249-.521.555 0 .307.233.555.521.555z" fill="#fff"/><path d="M28.38 66.832c-.257 0-.362-.044-.521-.11-.199-.083-.446-.186-.899-.186s-.701.103-.899.186c-.159.066-.264.11-.521.11s-.362-.044-.521-.11c-.199-.083-.446-.186-.899-.186s-.701.103-.899.186c-.159.066-.264.11-.521.11s-.362-.044-.521-.11c-.199-.083-.446-.186-.9-.186-.453 0-.7.103-.899.186-.159.066-.264.11-.521.11s-.362-.044-.521-.11c-.199-.083-.446-.186-.899-.186s-.701.103-.899.186c-.159.066-.264.11-.521.11s-.362-.044-.521-.11c-.199-.083-.446-.186-.899-.186s-.7.103-.899.186c-.159.066-.264.11-.521.11s-.362-.044-.52-.11c-.199-.083-.446-.186-.899-.186s-.7.103-.899.186c-.159.066-.263.11-.52.11s-.362-.044-.521-.11c-.199-.083-.446-.186-.899-.186s-.701.103-.899.186c-.159.066-.264.11-.521.11-.288 0-.521.249-.521.555 0 .307.233.555.521.555.453 0 .7-.103.899-.186.159-.066.264-.11.521-.11s.362.044.521.11c.199.083.446.186.899.186s.7-.103.899-.186c.159-.066.263-.11.52-.11s.362.044.52.11c.199.083.446.186.899.186s.701-.103.9-.186c.159-.066.263-.11.52-.11s.362.044.521.11c.199.083.446.186.899.186s.701-.103.899-.186c.159-.066.264-.11.521-.11s.362.044.521.11c.199.083.446.186.899.186s.701-.103.899-.186c.159-.066.264-.11.521-.11s.362.044.521.11c.199.083.446.186.899.186s.701-.103.9-.186c.159-.066.264-.11.521-.11s.362.044.52.11c.199.083.446.186.899.186s.701-.103.9-.186c.159-.066.264-.11.521-.11s.362.044.521.11c.199.083.446.186.899.186.288 0 .521-.249.521-.555 0-.307-.233-.555-.521-.555m3.401-9.403l-1.088-.838c-.197-.151-.464-.138-.647.032l-1.641 1.525-.123.114-.448-.064-.982-.14-.734-.615c-.13-.109-.3-.145-.46-.099l-1.542.452-.855-1.139-.077-.092-3.528-3.757-1.827-2.236-1.837-4.726c-.082-.211-.223-.389-.403-.512l-1.833-1.244c-.321-.218-.727-.231-1.06-.036-.333.195-.54.568-.54.973v1.004l-.909 1.107c-.111.135-.19.297-.229.472l-.067.297c-.247-.462-.713-.774-1.246-.774h-8.261c-.349 0-.685.136-.948.383-.309.291-.487.709-.487 1.147 0 .438.177.856.487 1.147.263.247.599.383.948.383h4.254l-.017.208c0 .378.153.738.419.988.226.213.517.33.817.33h3.177l-.385 1.712-1.615 1.005c-.32.199-.517.564-.517.959v2.088h-.292c-.3 0-.586.138-.784.379l-.144.175-1.669-.35c-.078-.016-.159-.013-.236.009l-1.041.3-1.194-.618c-.259-.134-.57-.019-.696.257s-.018.608.241.742l1.369.709c.113.059.242.072.363.036l1.111-.321.958.201-.23.28-.152.244-1.954 4.264c-.101.221-.126.46-.088.684-.084.023-.18.037-.323.037-.257 0-.362-.044-.521-.11-.199-.083-.446-.186-.899-.186-.288 0-.521.249-.521.555 0 .307.233.555.521.555.257 0 .362.044.52.11.199.083.446.186.899.186s.701-.103.899-.186l.213-.077.233.029c.1 0 .2-.016.295-.047.115.018.196.052.3.095.199.083.446.186.899.186s.7-.103.899-.186c.159-.066.264-.11.521-.11s.362.044.521.11c.199.083.446.186.899.186s.7-.103.899-.186c.159-.066.264-.11.521-.11s.362.044.521.11c.199.083.446.186.899.186s.7-.103.899-.186c.159-.066.264-.11.521-.11s.362.044.52.11c.199.083.446.186.899.186s.701-.103.899-.186c.159-.066.263-.11.52-.11s.362.044.521.11c.199.083.446.186.899.186s.701-.103.899-.186c.159-.066.264-.11.521-.11s.362.044.521.11c.199.083.446.186.899.186s.701-.103.899-.186c.159-.066.264-.11.521-.11s.362.044.521.11c.199.083.446.186.899.186s.701-.103.9-.186c.159-.066.264-.11.521-.11s.362.044.521.11c.199.083.446.186.899.186s.701-.103.899-.186c.159-.066.264-.11.521-.11s.362.044.521.11c.199.083.446.186.899.186s.701-.103.9-.186c.159-.066.264-.11.521-.11s.362.044.521.11c.199.083.447.186.9.186.288 0 .521-.249.521-.555 0-.307-.233-.555-.521-.555-.257 0-.362-.044-.522-.11-.199-.083-.446-.186-.9-.186l-.313.019c-.007-.207-.068-.414-.188-.596l-.833-1.263-.09-.118-1.999-2.29-.103-.103-1.331-1.162.739-.216.639.536c.073.061.16.1.253.114l1.805.258.069.005c.125 0 .247-.048.342-.137l1.63-1.514.752.579c.233.179.559.124.727-.125.168-.249.116-.596-.117-.775zm-25.058-7.028c0-.081.042-.132.067-.156l.128-.052h.002c.288 0 .521-.248.521-.555 0-.307-.233-.555-.521-.555h-5.476c-.121 0-.208-.057-.259-.105-.05-.047-.134-.15-.134-.314s.084-.267.134-.314c.051-.048.138-.105.259-.105h8.261c.217 0 .393.188.393.419 0 .231-.176.419-.393.419-.288 0-.521.249-.521.555h-.002c0 .307.233.555.521.555h.735l-.094.416h-3.426l-.129-.053c-.025-.024-.067-.075-.067-.156zm20.08 13.315l.334.507-.178-.006c-.453 0-.701.103-.899.186-.159.066-.264.11-.521.11s-.362-.044-.521-.11c-.199-.083-.446-.186-.899-.186s-.701.103-.899.186c-.159.066-.264.11-.521.11s-.362-.044-.521-.11c-.199-.083-.446-.186-.9-.186-.453 0-.7.103-.899.186-.159.066-.264.11-.521.11s-.362-.044-.521-.11c-.199-.083-.446-.186-.899-.186s-.701.103-.899.186c-.159.066-.264.11-.521.11s-.362-.044-.521-.11c-.199-.083-.446-.186-.899-.186s-.7.103-.899.186c-.159.066-.264.11-.521.11s-.362-.044-.521-.11c-.199-.083-.446-.186-.899-.186s-.7.103-.899.186c-.159.066-.264.11-.521.11s-.362-.044-.521-.11c-.199-.083-.446-.186-.899-.186s-.701.103-.899.186c-.159.066-.264.11-.521.11s-.362-.044-.521-.11c-.199-.083-.446-.186-.899-.186s-.701.103-.899.186c-.159.066-.264.11-.521.11-.194 0-.302-.025-.411-.066l1.747-3.812.764-.931h.861c.575 0 1.041-.497 1.041-1.11v-2.56l1.483-.922c.245-.153.422-.406.488-.7l.753-3.351c.106-.194.167-.419.167-.659l-.003-.069.435-1.937.525-.64.3 1.859.055.169.226.448-.226.447c-.087.172-.082.379.011.546l.542.974v2.338l-.214.526-.043.221v.819l-.515.633c-.082.101-.127.23-.127.364v.868c0 .156.062.306.171.411l.825.797.355.773.042.076.592.896c.098.148.256.236.426.236h.8l.681.504c.091.067.194.099.297.099.165 0 .327-.083.428-.238.164-.252.106-.598-.13-.773l-.815-.604c-.087-.065-.191-.099-.297-.099h-.693l-.413-.625-.381-.829-.118-.167-.728-.703v-.415l.515-.633c.082-.101.127-.23.127-.364v-.912l.214-.526.043-.221v-2.606c0-.1-.025-.198-.073-.283l-.465-.836.065-.128.154-.306c.083-.164.083-.362 0-.526l-.318-.631-.195-1.204 1.344 3.457c.043.111.103.214.177.304l1.963 2.402.049.056 3.512 3.741 1.297 1.728.154.166 1.778 1.551 1.903 2.179zm-8.81-13.973h4.597c.288 0 .521-.249.521-.555 0-.307-.233-.555-.521-.555h-4.597c-.288 0-.521.249-.521.555 0 .307.233.555.521.555zm1.823-1.499h7.767c.288 0 .521-.249.521-.555 0-.307-.233-.555-.521-.555h-7.767c-.288 0-.521.249-.521.555 0 .307.233.555.521.555z" fill="#67737B"/><path d="M28.38 26.832c-.257 0-.362-.044-.521-.11-.199-.083-.446-.186-.899-.186s-.701.103-.899.186c-.159.066-.264.11-.521.11s-.362-.044-.521-.11c-.199-.083-.446-.186-.899-.186s-.701.103-.899.186c-.159.066-.264.11-.521.11s-.362-.044-.521-.11c-.199-.083-.446-.186-.9-.186-.453 0-.7.103-.899.186-.159.066-.264.11-.521.11s-.362-.044-.521-.11c-.199-.083-.446-.186-.899-.186s-.701.103-.899.186c-.159.066-.264.11-.521.11s-.362-.044-.521-.11c-.199-.083-.446-.186-.899-.186s-.7.103-.899.186c-.159.066-.264.11-.521.11s-.362-.044-.52-.11c-.199-.083-.446-.186-.899-.186s-.7.103-.899.186c-.159.066-.263.11-.52.11s-.362-.044-.521-.11c-.199-.083-.446-.186-.899-.186s-.701.103-.899.186c-.159.066-.264.11-.521.11-.288 0-.521.249-.521.555 0 .307.233.555.521.555.453 0 .7-.103.899-.186.159-.066.264-.11.521-.11s.362.044.521.11c.199.083.446.186.899.186s.7-.103.899-.186c.159-.066.263-.11.52-.11s.362.044.52.11c.199.083.446.186.899.186s.701-.103.9-.186c.159-.066.263-.11.52-.11s.362.044.521.11c.199.083.446.186.899.186s.701-.103.899-.186c.159-.066.264-.11.521-.11s.362.044.521.11c.199.083.446.186.899.186s.701-.103.899-.186c.159-.066.264-.11.521-.11s.362.044.521.11c.199.083.446.186.899.186s.701-.103.9-.186c.159-.066.264-.11.521-.11s.362.044.52.11c.199.083.446.186.899.186s.701-.103.9-.186c.159-.066.264-.11.521-.11s.362.044.521.11c.199.083.446.186.899.186.288 0 .521-.249.521-.555 0-.307-.233-.555-.521-.555m3.401-9.403l-1.088-.838c-.197-.151-.464-.138-.647.032l-1.641 1.525-.123.114-.448-.064-.982-.14-.734-.615c-.13-.109-.3-.145-.46-.099l-1.542.452-.855-1.139-.077-.092-3.528-3.757-1.827-2.236-1.837-4.726c-.082-.211-.223-.389-.403-.512l-1.833-1.244c-.321-.218-.727-.231-1.06-.036-.333.195-.54.568-.54.973v1.004l-.909 1.107c-.111.135-.19.297-.229.472l-.067.297c-.247-.462-.713-.774-1.246-.774h-8.261c-.349 0-.685.136-.948.383-.309.291-.487.709-.487 1.147 0 .438.177.856.487 1.147.263.247.599.383.948.383h4.254l-.017.208c0 .378.153.738.419.988.226.213.517.33.817.33h3.177l-.385 1.712-1.615 1.005c-.32.199-.517.564-.517.959v2.088h-.292c-.3 0-.586.138-.784.379l-.144.175-1.669-.35c-.078-.016-.159-.013-.236.009l-1.041.3-1.194-.618c-.259-.134-.57-.019-.696.257s-.018.608.241.742l1.369.709c.113.059.242.072.363.036l1.111-.321.958.201-.23.28-.152.244-1.954 4.264c-.101.221-.126.46-.088.684-.084.023-.18.037-.323.037-.257 0-.362-.044-.521-.11-.199-.083-.446-.186-.899-.186-.288 0-.521.249-.521.555 0 .307.233.555.521.555.257 0 .362.044.52.11.199.083.446.186.899.186s.701-.103.899-.186l.213-.077.233.029c.1 0 .2-.016.295-.047.115.018.196.052.3.095.199.083.446.186.899.186s.7-.103.899-.186c.159-.066.264-.11.521-.11s.362.044.521.11c.199.083.446.186.899.186s.7-.103.899-.186c.159-.066.264-.11.521-.11s.362.044.521.11c.199.083.446.186.899.186s.7-.103.899-.186c.159-.066.264-.11.521-.11s.362.044.52.11c.199.083.446.186.899.186s.701-.103.899-.186c.159-.066.263-.11.52-.11s.362.044.521.11c.199.083.446.186.899.186s.701-.103.899-.186c.159-.066.264-.11.521-.11s.362.044.521.11c.199.083.446.186.899.186s.701-.103.899-.186c.159-.066.264-.11.521-.11s.362.044.521.11c.199.083.446.186.899.186s.701-.103.9-.186c.159-.066.264-.11.521-.11s.362.044.521.11c.199.083.446.186.899.186s.701-.103.899-.186c.159-.066.264-.11.521-.11s.362.044.521.11c.199.083.446.186.899.186s.701-.103.9-.186c.159-.066.264-.11.521-.11s.362.044.521.11c.199.083.447.186.9.186.288 0 .521-.249.521-.555 0-.307-.233-.555-.521-.555-.257 0-.362-.044-.522-.11-.199-.083-.446-.186-.9-.186l-.313.019c-.007-.207-.068-.414-.188-.596l-.833-1.263-.09-.118-1.999-2.29-.103-.103-1.331-1.162.739-.216.639.536c.073.061.16.1.253.114l1.805.258.069.005c.125 0 .247-.048.342-.137l1.63-1.514.752.579c.233.179.559.124.727-.125.168-.249.116-.596-.117-.775zm-25.058-7.028c0-.081.042-.132.067-.156l.128-.052h.002c.288 0 .521-.248.521-.555 0-.307-.233-.555-.521-.555h-5.476c-.121 0-.208-.057-.259-.105-.05-.047-.134-.15-.134-.314s.084-.267.134-.314c.051-.048.138-.105.259-.105h8.261c.217 0 .393.188.393.419 0 .231-.176.419-.393.419-.288 0-.521.249-.521.555h-.002c0 .307.233.555.521.555h.735l-.094.416h-3.426l-.129-.053c-.025-.024-.067-.075-.067-.156zm20.08 13.315l.334.507-.178-.006c-.453 0-.701.103-.899.186-.159.066-.264.11-.521.11s-.362-.044-.521-.11c-.199-.083-.446-.186-.899-.186s-.701.103-.899.186c-.159.066-.264.11-.521.11s-.362-.044-.521-.11c-.199-.083-.446-.186-.9-.186-.453 0-.7.103-.899.186-.159.066-.264.11-.521.11s-.362-.044-.521-.11c-.199-.083-.446-.186-.899-.186s-.701.103-.899.186c-.159.066-.264.11-.521.11s-.362-.044-.521-.11c-.199-.083-.446-.186-.899-.186s-.7.103-.899.186c-.159.066-.264.11-.521.11s-.362-.044-.521-.11c-.199-.083-.446-.186-.899-.186s-.7.103-.899.186c-.159.066-.264.11-.521.11s-.362-.044-.521-.11c-.199-.083-.446-.186-.899-.186s-.701.103-.899.186c-.159.066-.264.11-.521.11s-.362-.044-.521-.11c-.199-.083-.446-.186-.899-.186s-.701.103-.899.186c-.159.066-.264.11-.521.11-.194 0-.302-.025-.411-.066l1.747-3.812.764-.931h.861c.575 0 1.041-.497 1.041-1.11v-2.56l1.483-.922c.245-.153.422-.406.488-.7l.753-3.351c.106-.194.167-.419.167-.659l-.003-.069.435-1.937.525-.64.3 1.859.055.169.226.448-.226.447c-.087.172-.082.379.011.546l.542.974v2.338l-.214.526-.043.221v.819l-.515.633c-.082.101-.127.23-.127.364v.868c0 .156.062.306.171.411l.825.797.355.773.042.076.592.896c.098.148.256.236.426.236h.8l.681.504c.091.067.194.099.297.099.165 0 .327-.083.428-.238.164-.252.106-.598-.13-.773l-.815-.604c-.087-.065-.191-.099-.297-.099h-.693l-.413-.625-.381-.829-.118-.167-.728-.703v-.415l.515-.633c.082-.101.127-.23.127-.364v-.912l.214-.526.043-.221v-2.606c0-.1-.025-.198-.073-.283l-.465-.836.065-.128.154-.306c.083-.164.083-.362 0-.526l-.318-.631-.195-1.204 1.344 3.457c.043.111.103.214.177.304l1.963 2.402.049.056 3.512 3.741 1.297 1.728.154.166 1.778 1.551 1.903 2.179zm-8.81-13.973h4.597c.288 0 .521-.249.521-.555 0-.307-.233-.555-.521-.555h-4.597c-.288 0-.521.249-.521.555 0 .307.233.555.521.555zm1.823-1.499h7.767c.288 0 .521-.249.521-.555 0-.307-.233-.555-.521-.555h-7.767c-.288 0-.521.249-.521.555 0 .307.233.555.521.555z" fill="#3A434E"/></g></g></svg>