<svg width="32" height="232" viewBox="0 0 32 232" xmlns="http://www.w3.org/2000/svg"><title>accommodation</title><desc>Created with Sketch.</desc><g fill="none"><g fill="#3A434E"><path d="M19.512 25.78h-.427v-15.856c0-3.886-2.73-6.087-7.706-6.235v-.26c.57-.22.974-.775.974-1.42 0-.706-.806-1.525-1.153-1.845-.21-.194-.535-.194-.745 0-.347.32-1.153 1.14-1.153 1.843 0 .646.406 1.2.976 1.42v.26c-4.976.151-7.708 2.353-7.708 6.238v15.855h-.426c-.303 0-.55.245-.55.55v1.77c0 .305.247.55.55.55h2.026c-.185.284-.293.62-.293.984 0 .996.81 1.806 1.807 1.806.996 0 1.806-.81 1.806-1.806 0-.363-.107-.7-.292-.983h7.42c-.184.285-.293.62-.293.985 0 .996.81 1.806 1.807 1.806.996 0 1.808-.81 1.808-1.805 0-.363-.11-.7-.293-.983h1.865c.303 0 .55-.245.55-.55v-1.77c0-.305-.247-.55-.55-.55zm-17.43 4.36c-.39 0-.706-.317-.706-.706 0-.39.318-.707.707-.707.39 0 .707.317.707.707 0 .39-.317.707-.706.707zm10.45 0c-.39 0-.708-.317-.708-.706 0-.39.317-.707.707-.707.39 0 .707.317.707.707 0 .39-.316.707-.706.707zm-3.502-28.877c.233.27.412.535.425.647 0 .234-.19.425-.426.425s-.428-.19-.428-.42c.013-.116.192-.38.426-.653zm-7.16 8.562c0-1.817.656-3.118 2.004-3.98 1.108-.707 2.656-1.093 4.606-1.155v2.09h-3.12l-.034-.063c-.144-.267-.478-.367-.745-.225-.266.145-.366.478-.222.746l.19.352c.094.178.28.29.484.29h5.533v1.11l-3.206 1.82c-.218.123-.324.376-.26.618.063.242.283.41.532.41h6.968c.304 0 .55-.246.55-.55 0-.218-.127-.407-.31-.496l-3.178-1.802v-1.11h1.364c.216 0 .413-.128.5-.325l.16-.35c.125-.278 0-.604-.275-.73-.277-.124-.602 0-.727.276l-.012.03h-1.046c-.08-.205-.28-.352-.512-.352-.233 0-.432.147-.512.352h-1.022v-2.091c1.948.062 3.495.448 4.602 1.155 1.348.862 2.003 2.163 2.003 3.98v15.855h-2.567v-.808h.358c.304 0 .55-.247.55-.55 0-.304-.246-.55-.55-.55h-.358v-1.358c0-.303-.245-.55-.55-.55h-9.896c-.303 0-.55.247-.55.55v3.265h-.748v-15.856zm9.24.116l1.403.8h-2.803l1.403-.798zm-7.39 13.025h8.796v2.714h-8.796v-2.715zm13.44 4.487h-16.264v-.67h16.264v.67z" id="Fill-1"/><path d="M24.354 20.16h2.872v1.1h-2.872v-1.1z" id="Fill-2"/><path d="M29.604 18.412h-1.8v-1.096c0-.303-.246-.55-.55-.55h-2.928c-.304 0-.55.247-.55.55v1.096h-1.8c-.304 0-.55.246-.55.55v11.928c0 .304.246.55.55.55h.968c.006.3.25.542.55.542h.44c.3 0 .544-.242.55-.54h2.862c.004.298.248.54.55.54h.44c.3 0 .542-.242.548-.54h.72c.304 0 .55-.248.55-.552v-11.928c0-.304-.246-.55-.55-.55zm-6.528-.645h1.828v.513h-1.828v-.513zm4.178 12.474h-1.256v-7.563c0-.303-.247-.55-.55-.55-.305 0-.55.247-.55.55v7.565h-1.815v-7.564c0-.303-.247-.55-.55-.55-.305 0-.55.247-.55.55v7.565h-1.257v-10.83h6.528v10.83z" id="Fill-3"/></g><g fill="#67737B"><path d="M19.512 65.78h-.427v-15.856c0-3.886-2.73-6.087-7.706-6.235v-.26c.57-.22.974-.775.974-1.42 0-.706-.806-1.525-1.153-1.845-.21-.194-.535-.194-.745 0-.347.32-1.153 1.14-1.153 1.843 0 .646.406 1.2.976 1.42v.26c-4.977.148-7.708 2.35-7.708 6.235v15.858h-.426c-.303 0-.55.245-.55.55v1.77c0 .305.247.55.55.55h2.026c-.185.284-.293.62-.293.984 0 .996.81 1.806 1.807 1.806.996 0 1.806-.81 1.806-1.806 0-.363-.107-.7-.292-.983h7.42c-.184.285-.293.62-.293.985 0 .996.81 1.806 1.807 1.806.996 0 1.808-.81 1.808-1.805 0-.363-.11-.7-.293-.983h1.865c.303 0 .55-.245.55-.55v-1.77c0-.305-.247-.55-.55-.55zm-17.43-75.64c-.39 0-.706-.317-.706-.706 0-.39.318-.707.707-.707.39 0 .707.317.707.707 0 .39-.317.707-.706.707zm10.45 0c-.39 0-.708-.317-.708-.706 0-.39.317-.707.707-.707.39 0 .707.317.707.707 0 .39-.316.707-.706.707zm-3.502 11.123c.233.27.412.535.425.647 0 .234-.19.425-.426.425s-.428-.19-.428-.42c.013-.116.192-.38.426-.653zm-7.16 8.562c0-1.817.656-3.118 2.004-3.98 1.108-.707 2.656-1.093 4.606-1.155v2.09h-3.12l-.034-.063c-.144-.267-.478-.367-.745-.225-.266.145-.366.478-.222.746l.19.352c.094.178.28.29.484.29h5.533v1.11l-3.206 1.82c-.218.123-.324.376-.26.618.063.242.283.41.532.41h6.968c.304 0 .55-.246.55-.55 0-.218-.127-.407-.31-.496l-3.178-1.802v-1.11h1.364c.216 0 .413-.128.5-.325l.16-.35c.125-.278 0-.604-.275-.73-.277-.124-.602 0-.727.276l-.012.03h-1.046c-.08-.205-.28-.352-.512-.352-.233 0-.432.147-.512.352h-1.022v-2.091c1.948.062 3.495.448 4.602 1.155 1.348.862 2.003 2.163 2.003 3.98v15.855h-2.567v-.808h.358c.304 0 .55-.247.55-.55 0-.304-.246-.55-.55-.55h-.358v-1.358c0-.303-.245-.55-.55-.55h-9.896c-.303 0-.55.247-.55.55v3.265h-.748v-15.856zm9.24.116l1.403.8h-2.803l1.403-.798zm-7.39 13.025h8.796v2.714h-8.796v-2.715zm13.44 4.487h-16.264v-.67h16.264v.67z"/><path d="M24.354 60.16h2.872v1.1h-2.872v-1.1z"/><path d="M29.604 58.412h-1.8v-1.096c0-.303-.246-.55-.55-.55h-2.928c-.304 0-.55.247-.55.55v1.096h-1.8c-.304 0-.55.246-.55.55v11.928c0 .304.246.55.55.55h.968c.006.3.25.542.55.542h.44c.3 0 .544-.242.55-.54h2.862c.004.298.248.54.55.54h.44c.3 0 .542-.242.548-.54h.72c.304 0 .55-.248.55-.552v-11.928c0-.304-.246-.55-.55-.55zm-6.528-40.645h1.828v.513h-1.828v-.513zm4.178 12.474h-1.256v-7.563c0-.303-.247-.55-.55-.55-.305 0-.55.247-.55.55v7.565h-1.815v-7.564c0-.303-.247-.55-.55-.55-.305 0-.55.247-.55.55v7.565h-1.257v-10.83h6.528v10.83z"/></g><g fill="#fff"><path d="M19.512 105.78h-.427v-15.856c0-3.886-2.73-6.087-7.706-6.235v-.26c.57-.22.974-.775.974-1.42 0-.706-.806-1.525-1.153-1.845-.21-.194-.535-.194-.745 0-.347.32-1.153 1.14-1.153 1.843 0 .646.406 1.2.976 1.42v.26c-4.977.148-7.708 2.35-7.708 6.235v15.854h-.426c-.303 0-.55.245-.55.55v1.77c0 .305.247.55.55.55h2.026c-.185.284-.293.62-.293.984 0 .997.81 1.807 1.807 1.807.996 0 1.806-.81 1.806-1.806 0-.362-.107-.7-.292-.982h7.42c-.184.284-.293.62-.293.984 0 .996.81 1.806 1.807 1.806.996 0 1.808-.81 1.808-1.806 0-.363-.11-.7-.293-.983h1.865c.303 0 .55-.246.55-.55v-1.77c0-.306-.247-.55-.55-.55zm-17.43-155.64c-.39 0-.706-.317-.706-.706 0-.39.318-.707.707-.707.39 0 .707.317.707.707 0 .39-.317.707-.706.707zm10.45 0c-.39 0-.708-.317-.708-.706 0-.39.317-.707.707-.707.39 0 .707.317.707.707 0 .39-.316.707-.706.707zm-3.502 51.123c.233.27.412.535.425.647 0 .234-.19.425-.426.425s-.428-.19-.428-.42c.013-.116.192-.38.426-.653zm-7.16 8.562c0-1.817.656-3.118 2.004-3.98 1.108-.707 2.656-1.093 4.606-1.155v2.09h-3.12l-.034-.063c-.144-.267-.478-.367-.745-.225-.266.145-.366.478-.222.746l.19.352c.094.178.28.29.484.29h5.533v1.11l-3.206 1.82c-.218.123-.324.376-.26.618.063.242.283.41.532.41h6.968c.304 0 .55-.246.55-.55 0-.218-.127-.407-.31-.496l-3.178-1.802v-1.11h1.364c.216 0 .413-.128.5-.325l.16-.35c.125-.278 0-.604-.275-.73-.277-.124-.602 0-.727.276l-.012.03h-1.046c-.08-.205-.28-.352-.512-.352-.233 0-.432.147-.512.352h-1.022v-2.091c1.948.062 3.495.448 4.602 1.155 1.348.862 2.003 2.163 2.003 3.98v15.855h-2.567v-.808h.358c.304 0 .55-.247.55-.55 0-.304-.246-.55-.55-.55h-.358v-1.358c0-.303-.245-.55-.55-.55h-9.896c-.303 0-.55.247-.55.55v3.265h-.748v-15.856zm9.24.116l1.403.8h-2.803l1.403-.798zm-7.39 13.025h8.796v2.714h-8.796v-2.715zm13.44 4.487h-16.264v-.67h16.264v.67zM24.354 100.16h2.872v1.1h-2.872v-1.1zM29.604 98.412h-1.8v-1.096c0-.303-.246-.55-.55-.55h-2.928c-.304 0-.55.247-.55.55v1.096h-1.8c-.304 0-.55.246-.55.55v11.928c0 .304.246.55.55.55h.968c.006.3.25.542.55.542h.44c.3 0 .544-.242.55-.54h2.862c.004.298.248.54.55.54h.44c.3 0 .542-.242.548-.54h.72c.304 0 .55-.248.55-.552v-11.928c0-.304-.246-.55-.55-.55zm-6.528-80.645h1.828v.513h-1.828v-.513zm4.178 12.474h-1.256v-7.563c0-.303-.247-.55-.55-.55-.305 0-.55.247-.55.55v7.565h-1.815v-7.564c0-.303-.247-.55-.55-.55-.305 0-.55.247-.55.55v7.565h-1.257v-10.83h6.528v10.83z"/></g><path d="M19.512 145.78h-.427v-15.855c0-3.886-2.73-6.087-7.706-6.235v-.26c.57-.22.974-.774.974-1.42 0-.705-.806-1.524-1.153-1.844-.21-.194-.535-.194-.745 0-.347.32-1.153 1.14-1.153 1.843 0 .645.406 1.2.976 1.42v.26c-4.977.147-7.708 2.35-7.708 6.234v15.854h-.426c-.303 0-.55.245-.55.55v1.77c0 .305.247.55.55.55h2.026c-.185.284-.293.62-.293.984 0 .996.81 1.806 1.807 1.806.996 0 1.806-.81 1.806-1.806 0-.363-.107-.7-.292-.983h7.42c-.184.283-.293.62-.293.983 0 .996.81 1.806 1.807 1.806.996 0 1.808-.81 1.808-1.807 0-.363-.11-.7-.293-.983h1.865c.303 0 .55-.245.55-.55v-1.77c0-.305-.247-.55-.55-.55zm-17.43-235.64c-.39 0-.706-.317-.706-.706 0-.39.318-.707.707-.707.39 0 .707.317.707.707 0 .39-.317.707-.706.707zm10.45 0c-.39 0-.708-.317-.708-.706 0-.39.317-.707.707-.707.39 0 .707.317.707.707 0 .39-.316.707-.706.707zm-3.502 91.123c.233.27.412.535.425.647 0 .234-.19.425-.426.425s-.428-.19-.428-.42c.013-.116.192-.38.426-.653zm-7.16 8.562c0-1.817.656-3.118 2.004-3.98 1.108-.707 2.656-1.093 4.606-1.155v2.09h-3.12l-.034-.063c-.144-.267-.478-.367-.745-.225-.266.145-.366.478-.222.746l.19.352c.094.178.28.29.484.29h5.533v1.11l-3.206 1.82c-.218.123-.324.376-.26.618.063.242.283.41.532.41h6.968c.304 0 .55-.246.55-.55 0-.218-.127-.407-.31-.496l-3.178-1.802v-1.11h1.364c.216 0 .413-.128.5-.325l.16-.35c.125-.278 0-.604-.275-.73-.277-.124-.602 0-.727.276l-.012.03h-1.046c-.08-.205-.28-.352-.512-.352-.233 0-.432.147-.512.352h-1.022v-2.091c1.948.062 3.495.448 4.602 1.155 1.348.862 2.003 2.163 2.003 3.98v15.855h-2.567v-.808h.358c.304 0 .55-.247.55-.55 0-.304-.246-.55-.55-.55h-.358v-1.358c0-.303-.245-.55-.55-.55h-9.896c-.303 0-.55.247-.55.55v3.265h-.748v-15.856zm9.24.116l1.403.8h-2.803l1.403-.798zm-7.39 13.025h8.796v2.714h-8.796v-2.715zm13.44 4.487h-16.264v-.67h16.264v.67zm7.194 112.707h2.872v1.1h-2.872v-1.1zm5.25-1.748h-1.8v-1.096c0-.303-.246-.55-.55-.55h-2.928c-.304 0-.55.247-.55.55v1.096h-1.8c-.304 0-.55.246-.55.55v11.928c0 .304.246.55.55.55h.968c.006.3.25.542.55.542h.44c.3 0 .544-.242.55-.54h2.862c.004.298.248.54.55.54h.44c.3 0 .542-.242.548-.54h.72c.304 0 .55-.248.55-.552v-11.928c0-.304-.246-.55-.55-.55zm-6.528-120.645h1.828v.513h-1.828v-.513zm4.178 12.474h-1.256v-7.563c0-.303-.247-.55-.55-.55-.305 0-.55.247-.55.55v7.565h-1.815v-7.564c0-.303-.247-.55-.55-.55-.305 0-.55.247-.55.55v7.565h-1.257v-10.83h6.528v10.83z" fill="#206FAC"/></g></svg>