<svg width="32" height="232" viewBox="0 0 32 232" xmlns="http://www.w3.org/2000/svg"><desc>Created with Sketch.</desc><g fill="none"><g fill="#3A434E"><path d="M19.512 25.78h-.426V9.924c0-3.886-2.73-6.087-7.706-6.235v-.26c.57-.22.976-.776.976-1.42 0-.708-.807-1.527-1.154-1.847-.21-.194-.536-.194-.746 0-.347.32-1.154 1.14-1.154 1.843 0 .646.406 1.2.976 1.42v.26C5.302 3.84 2.57 6.04 2.57 9.926V25.78h-.424c-.304 0-.55.245-.55.55v1.77c0 .305.247.55.55.55H4.17c-.185.284-.293.62-.293.983 0 .996.81 1.806 1.807 1.806.996 0 1.806-.81 1.806-1.81 0-.363-.107-.7-.292-.983h7.42c-.184.283-.293.62-.293.982 0 .995.81 1.805 1.807 1.805.996 0 1.808-.81 1.808-1.807 0-.363-.11-.7-.293-.983h1.865c.304 0 .55-.246.55-.55v-1.77c0-.305-.247-.55-.55-.55zM5.685 30.34c-.39 0-.707-.316-.707-.706 0-.39.317-.707.707-.707.39 0 .707.317.707.707 0 .39-.317.707-.707.707zm10.448 0c-.39 0-.707-.316-.707-.706 0-.39.317-.707.707-.707.39 0 .707.317.707.707 0 .39-.317.707-.707.707zM10.83 1.363c.234.27.413.536.426.647 0 .234-.19.425-.426.425-.234 0-.426-.19-.426-.42.013-.116.192-.38.426-.653zM3.673 9.925c0-1.817.656-3.118 2.003-3.98C6.783 5.238 8.33 4.852 10.28 4.79v2.09H7.16l-.033-.063c-.144-.267-.48-.367-.745-.224-.268.145-.368.478-.224.746l.19.35c.095.18.28.29.484.29h5.533v1.11L9.16 10.91c-.217.124-.324.378-.26.62.064.24.284.41.533.41H16.4c.304 0 .55-.247.55-.55 0-.218-.126-.407-.31-.496L13.465 9.09V7.98h1.365c.216 0 .412-.126.5-.323l.16-.35c.125-.278.002-.604-.275-.73s-.603 0-.727.276l-.012.028H13.43c-.08-.2-.28-.35-.513-.35-.233 0-.432.15-.512.35h-1.022V4.796c1.95.062 3.496.448 4.602 1.155 1.348.86 2.003 2.162 2.003 3.98v15.85H15.42v-.806h.36c.303 0 .55-.247.55-.55 0-.304-.247-.55-.55-.55h-.36v-1.358c0-.303-.245-.55-.548-.55H4.974c-.304 0-.55.247-.55.55v3.265h-.75V9.93zm9.24.116l1.402.8H11.51l1.403-.796zm-7.39 13.027h8.796v2.714h-8.8v-2.714zM18.96 27.55H2.7v-.672h16.26v.673zM24.354 20.16h2.873v1.1h-2.873v-1.1zM29.604 18.412h-1.8v-1.096c0-.303-.246-.55-.55-.55h-2.928c-.304 0-.55.247-.55.55v1.096h-1.8c-.304 0-.55.247-.55.55V30.89c0 .304.247.55.55.55h.97c.004.3.248.542.548.542h.44c.3 0 .544-.242.55-.54h2.862c.005.298.248.54.55.54h.44c.3 0 .542-.242.548-.54h.72c.304 0 .55-.248.55-.552V18.962c0-.304-.247-.55-.55-.55zm-4.728-.545h1.828v.513h-1.828v-.513zm4.178 12.474h-1.256v-7.56c0-.303-.247-.55-.55-.55-.304 0-.55.248-.55.55v7.565h-1.815V22.78c0-.305-.247-.55-.55-.55-.304 0-.55.246-.55.55v7.563h-1.257v-10.83h6.528v10.83z"/></g><path d="M19.512 65.78h-.426V49.924c0-3.886-2.73-6.087-7.706-6.235v-.26c.57-.22.976-.776.976-1.42 0-.708-.807-1.527-1.154-1.847-.21-.194-.536-.194-.746 0-.347.32-1.154 1.14-1.154 1.843 0 .646.406 1.2.976 1.42v.26c-4.976.15-7.707 2.35-7.707 6.235v15.86h-.42c-.304 0-.55.245-.55.55v1.77c0 .305.247.55.55.55h2.02c-.185.284-.293.62-.293.983 0 .996.81 1.806 1.807 1.806.996 0 1.806-.81 1.806-1.81 0-.363-.107-.7-.292-.983h7.42c-.184.283-.293.62-.293.982 0 .995.81 1.805 1.807 1.805.996 0 1.808-.81 1.808-1.807 0-.363-.11-.7-.293-.983h1.865c.304 0 .55-.246.55-.55v-1.77c0-.305-.247-.55-.55-.55zM5.685 70.34c-.39 0-.707-.316-.707-.706 0-.39.317-.707.707-.707.39 0 .707.317.707.707 0 .39-.317.707-.707.707zm10.448 0c-.39 0-.707-.316-.707-.706 0-.39.317-.707.707-.707.39 0 .707.317.707.707 0 .39-.317.707-.707.707zM10.83 41.363c.234.27.413.536.426.647 0 .234-.19.425-.426.425-.234 0-.426-.19-.426-.42.013-.116.192-.38.426-.653zm-7.157 8.563c0-1.817.656-3.118 2.003-3.98 1.107-.707 2.654-1.093 4.603-1.155v2.09H7.16l-.033-.06c-.144-.267-.48-.367-.745-.224-.268.145-.368.478-.224.746l.19.35c.095.18.28.29.484.29h5.533v1.11L9.16 50.91c-.217.124-.324.378-.26.62.064.24.284.41.533.41H16.4c.304 0 .55-.247.55-.55 0-.218-.126-.407-.31-.496l-3.175-1.803v-1.11h1.365c.216 0 .412-.123.5-.32l.16-.35c.125-.28.002-.604-.275-.73s-.603 0-.727.276l-.012.028H13.43c-.08-.204-.28-.35-.513-.35-.233 0-.432.146-.512.35h-1.022v-2.088c1.95.062 3.496.448 4.602 1.155 1.348.86 2.003 2.163 2.003 3.98v15.85H15.42v-.805h.36c.303 0 .55-.247.55-.55 0-.304-.247-.55-.55-.55h-.36v-1.358c0-.303-.245-.55-.548-.55H4.974c-.304 0-.55.247-.55.55v3.265h-.75V49.93zm9.24.116l1.402.798H11.51l1.403-.797zm-7.39 13.024h8.796v2.714h-8.8v-2.714zM18.96 67.55H2.7v-.672h16.26v.673zm5.394-7.39h2.873v1.1h-2.873v-1.1zm5.25-1.748h-1.8v-1.096c0-.303-.246-.55-.55-.55h-2.928c-.304 0-.55.247-.55.55v1.096h-1.8c-.304 0-.55.247-.55.55V70.89c0 .304.247.55.55.55h.97c.004.3.248.542.548.542h.44c.3 0 .544-.242.55-.54h2.862c.005.298.248.54.55.54h.44c.3 0 .542-.242.548-.54h.72c.304 0 .55-.248.55-.552V58.962c0-.304-.247-.55-.55-.55zm-4.728-.545h1.828v.513h-1.828v-.513zm4.178 12.474h-1.256v-7.56c0-.303-.247-.55-.55-.55-.304 0-.55.248-.55.55v7.565h-1.815V62.78c0-.305-.247-.55-.55-.55-.304 0-.55.246-.55.55v7.563h-1.257v-10.83h6.528v10.83z" fill="#67737B"/><path d="M19.512 105.78h-.426V89.924c0-3.886-2.73-6.087-7.706-6.235v-.26c.57-.22.976-.776.976-1.42 0-.708-.807-1.527-1.154-1.847-.21-.194-.536-.194-.746 0-.347.32-1.154 1.14-1.154 1.843 0 .646.406 1.2.976 1.42v.26c-4.976.15-7.707 2.35-7.707 6.235v15.855h-.42c-.304 0-.55.245-.55.55v1.77c0 .305.247.55.55.55h2.02c-.185.284-.293.62-.293.983 0 .995.81 1.805 1.807 1.805.996 0 1.806-.81 1.806-1.807 0-.364-.107-.7-.292-.984h7.42c-.184.284-.293.62-.293.983 0 .995.81 1.805 1.807 1.805.996 0 1.808-.81 1.808-1.807 0-.363-.11-.7-.293-.983h1.865c.304 0 .55-.246.55-.55v-1.77c0-.305-.247-.55-.55-.55zm-13.827 4.56c-.39 0-.707-.316-.707-.706 0-.39.317-.707.707-.707.39 0 .707.317.707.707 0 .39-.317.707-.707.707zm10.448 0c-.39 0-.707-.316-.707-.706 0-.39.317-.707.707-.707.39 0 .707.317.707.707 0 .39-.317.707-.707.707zM10.83 81.363c.234.27.413.536.426.647 0 .234-.19.425-.426.425-.234 0-.426-.19-.426-.42.013-.116.192-.38.426-.653zm-7.157 8.563c0-1.817.656-3.118 2.003-3.98 1.107-.707 2.654-1.093 4.603-1.155v2.09H7.16l-.033-.06c-.144-.267-.48-.367-.745-.224-.268.145-.368.478-.224.746l.19.35c.095.18.28.29.484.29h5.533v1.11L9.16 90.91c-.217.124-.324.378-.26.62.064.24.284.41.533.41H16.4c.304 0 .55-.247.55-.55 0-.218-.126-.407-.31-.496l-3.175-1.803v-1.11h1.365c.216 0 .412-.123.5-.32l.16-.35c.125-.28.002-.604-.275-.73s-.603 0-.727.276l-.012.028H13.43c-.08-.204-.28-.35-.513-.35-.233 0-.432.146-.512.35h-1.022v-2.088c1.95.062 3.496.448 4.602 1.155 1.348.86 2.003 2.163 2.003 3.98v15.854H15.42v-.806h.36c.303 0 .55-.247.55-.55 0-.304-.247-.55-.55-.55h-.36v-1.358c0-.305-.245-.55-.548-.55H4.974c-.304 0-.55.245-.55.55v3.263h-.75V89.928zm9.24.116l1.402.798H11.51l1.403-.797zm-7.39 13.024h8.796v2.714h-8.8v-2.714zm13.438 4.487H2.7v-.672h16.26v.676zm5.395-7.393h2.873v1.1h-2.873v-1.1zm5.25-1.748h-1.8v-1.096c0-.303-.246-.55-.55-.55h-2.928c-.304 0-.55.247-.55.55v1.096h-1.8c-.304 0-.55.247-.55.55v11.928c0 .304.247.55.55.55h.97c.004.3.248.542.548.542h.44c.3 0 .544-.242.55-.54h2.862c.005.298.248.54.55.54h.44c.3 0 .542-.242.548-.54h.72c.304 0 .55-.248.55-.552V98.962c0-.304-.247-.55-.55-.55zm-4.728-.545h1.828v.513h-1.828v-.513zm4.178 12.474H27.8v-7.56c0-.304-.248-.55-.55-.55-.305 0-.55.247-.55.55v7.564h-1.816v-7.563c0-.304-.247-.55-.55-.55-.304 0-.55.247-.55.55v7.564h-1.257v-10.83h6.528v10.83z" fill="#fff"/><path d="M19.512 145.78h-.426v-15.855c0-3.886-2.73-6.087-7.706-6.235v-.26c.57-.22.976-.773.976-1.42 0-.705-.807-1.524-1.154-1.844-.21-.194-.536-.194-.746 0-.347.32-1.154 1.14-1.154 1.843 0 .643.406 1.2.976 1.42v.26c-4.976.15-7.707 2.35-7.707 6.232v15.854h-.42c-.304 0-.55.245-.55.55v1.77c0 .305.247.55.55.55h2.02c-.185.284-.293.62-.293.983 0 .996.81 1.806 1.807 1.806.996 0 1.806-.81 1.806-1.807 0-.364-.107-.7-.292-.984h7.42c-.184.284-.293.62-.293.983 0 .995.81 1.805 1.807 1.805.996 0 1.808-.81 1.808-1.807 0-.365-.11-.7-.293-.985h1.865c.304 0 .55-.246.55-.55v-1.77c0-.305-.247-.55-.55-.55zm-13.827 4.56c-.39 0-.707-.316-.707-.706 0-.39.317-.707.707-.707.39 0 .707.317.707.707 0 .39-.317.707-.707.707zm10.448 0c-.39 0-.707-.316-.707-.706 0-.39.317-.707.707-.707.39 0 .707.317.707.707 0 .39-.317.707-.707.707zm-5.303-28.978c.234.27.413.536.426.647 0 .23-.19.422-.426.422-.234 0-.426-.19-.426-.42.013-.116.192-.38.426-.653zm-7.157 8.563c0-1.817.656-3.118 2.003-3.98 1.107-.707 2.654-1.093 4.603-1.155v2.09H7.16l-.033-.063c-.144-.267-.48-.367-.745-.224-.268.145-.368.478-.224.746l.19.35c.095.18.28.29.484.29h5.533v1.11l-3.205 1.82c-.217.12-.324.375-.26.62.064.24.284.41.533.41H16.4c.304 0 .55-.25.55-.55 0-.22-.126-.41-.31-.5l-3.175-1.802v-1.11h1.365c.216 0 .412-.127.5-.324l.16-.35c.125-.278.002-.604-.275-.73s-.603 0-.727.276l-.012.028H13.43c-.08-.203-.28-.35-.513-.35-.233 0-.432.147-.512.35h-1.022v-2.087c1.95.063 3.496.45 4.602 1.156 1.348.862 2.003 2.163 2.003 3.98v15.854H15.42v-.806h.36c.303 0 .55-.247.55-.55 0-.304-.247-.55-.55-.55h-.36v-1.358c0-.303-.245-.55-.548-.55H4.974c-.304 0-.55.247-.55.55v3.265h-.75v-15.85zm9.24.116l1.402.8H11.51l1.403-.796zm-7.39 13.027h8.796v2.714h-8.8v-2.714zm13.438 4.487H2.7v-.672h16.26v.674zm5.396-7.392h2.873v1.1h-2.874v-1.1zm5.25-1.747h-1.8v-1.096c0-.304-.246-.55-.55-.55h-2.928c-.304 0-.55.246-.55.55v1.095h-1.8c-.304 0-.55.247-.55.55v11.928c0 .305.247.55.55.55h.97c.004.3.248.543.548.543h.44c.3 0 .544-.242.55-.54h2.862c.005.298.248.54.55.54h.44c.3 0 .542-.242.548-.54h.72c.304 0 .55-.248.55-.552v-11.927c0-.304-.247-.55-.55-.55zm-4.728-.545h1.828v.513h-1.828v-.512zm4.178 12.474H27.8v-7.562c0-.304-.248-.55-.55-.55-.305 0-.55.247-.55.55v7.564h-1.816v-7.563c0-.304-.247-.55-.55-.55-.304 0-.55.247-.55.55v7.564h-1.257V139.52h6.528v10.83z" fill="#206FAC"/></g></svg>