<svg width="32" height="232" viewBox="0 0 32 232" xmlns="http://www.w3.org/2000/svg"><g fill="none"><path d="M21.606 167.045c1.544 0 2.796-1.265 2.796-2.82 0-1.56-1.252-2.826-2.796-2.826-1.54 0-2.794 1.263-2.794 2.82s1.253 2.82 2.794 2.82zm4.516 5.535l-.288-.037-.135-.004-2.475-.01-.85-2.654c-.24-.744-.865-1.312-1.58-1.47l-2.246-.92c-.247-.097-.5-.148-.767-.153l-4.96-.098c-.383 0-.756.097-1.09.284l-.054-.037L7.855 171c-.93.853-.99 2.316-.14 3.26.44.487 1.06.76 1.703.76.563 0 1.105-.205 1.524-.587l2.77-2.55.718.002-1.634 3.994-1.71 3.38-3.227-.6-.283-.036-.896-.166c-1.25-.227-2.422.632-2.65 1.874-.223 1.253.597 2.46 1.83 2.692L12 184.15c1.13.21 2.2-.462 2.56-1.54l.96-1.574.723 2.126v4.93c0 1.268 1.03 2.298 2.297 2.298 1.26 0 2.29-1.03 2.3-2.3v-5.11l-.018-.25c-.01-.246-.05-.46-.117-.654l-1.33-3.912.74-1.78c.408.36.934.567 1.488.57l4.124.007c1.397 0 2.264-.85 2.264-2.21 0-1.215-.712-2.03-1.877-2.177zm0 0" fill="#FFC841"/><path d="M21.606 126.647c1.544 0 2.796-1.265 2.796-2.82 0-1.56-1.252-2.826-2.796-2.826-1.54 0-2.794 1.27-2.794 2.83 0 1.555 1.253 2.82 2.794 2.82zm4.516 5.535l-.288-.037-.135-.004-2.475-.002-.85-2.654c-.24-.742-.865-1.31-1.58-1.468l-2.246-.92c-.247-.097-.5-.148-.767-.153l-4.96-.1c-.383 0-.756.1-1.09.287l-.054-.038-3.825 3.516c-.93.852-.99 2.315-.14 3.26.44.486 1.06.76 1.703.76.564 0 1.106-.206 1.525-.588l2.77-2.55.718.002-1.633 3.994-1.71 3.382-3.227-.602-.284-.033-.896-.163c-1.25-.226-2.423.633-2.65 1.875-.224 1.255.596 2.46 1.83 2.694l6.14 1.125c1.13.212 2.2-.46 2.56-1.54l.96-1.573.722 2.127v4.93c0 1.267 1.03 2.297 2.297 2.297 1.26 0 2.29-1.03 2.3-2.3v-5.11l-.02-.25c-.01-.246-.05-.46-.116-.654l-1.33-3.91.74-1.78c.408.36.934.566 1.488.57l4.124.006c1.397 0 2.264-.85 2.264-2.213 0-1.214-.713-2.027-1.878-2.176zm0 0" fill="#206FAC"/><path d="M21.606 86.647c1.544 0 2.796-1.265 2.796-2.82 0-1.56-1.252-2.826-2.796-2.826-1.54 0-2.794 1.27-2.794 2.83 0 1.555 1.253 2.82 2.794 2.82zm4.516 5.535l-.288-.037-.135-.004-2.475-.002-.85-2.654c-.24-.742-.865-1.31-1.58-1.468l-2.246-.92c-.247-.097-.5-.148-.767-.153l-4.96-.1c-.383 0-.756.1-1.09.287l-.054-.038-3.825 3.516c-.93.852-.99 2.315-.14 3.26.44.486 1.06.76 1.703.76.564 0 1.106-.206 1.525-.588l2.77-2.55.718.002-1.633 3.994-1.71 3.382-3.227-.602-.284-.033-.896-.163c-1.25-.226-2.423.633-2.65 1.875-.224 1.255.596 2.46 1.83 2.694l6.14 1.125c1.13.212 2.2-.46 2.56-1.54l.96-1.573.722 2.127v4.93c0 1.267 1.03 2.297 2.297 2.297 1.26 0 2.29-1.03 2.3-2.3v-5.11l-.02-.25c-.01-.246-.05-.46-.116-.654l-1.33-3.91.74-1.78c.408.36.934.566 1.488.57l4.124.006c1.397 0 2.264-.85 2.264-2.213 0-1.214-.713-2.027-1.878-2.176zm0 0" fill="#fff"/><path d="M21.606 46.647c1.544 0 2.796-1.265 2.796-2.82 0-1.56-1.252-2.826-2.796-2.826-1.54 0-2.794 1.27-2.794 2.83 0 1.555 1.253 2.82 2.794 2.82zm4.516 5.535l-.288-.037-.135-.004-2.475-.002-.85-2.654c-.24-.742-.865-1.31-1.58-1.468l-2.246-.92c-.247-.097-.5-.148-.767-.153l-4.96-.1c-.383 0-.756.1-1.09.287l-.054-.038-3.825 3.516c-.93.852-.99 2.315-.14 3.26.44.486 1.06.76 1.703.76.564 0 1.106-.206 1.525-.588l2.77-2.55.718.002-1.633 3.994-1.71 3.382-3.227-.602-.284-.033-.896-.163c-1.25-.226-2.423.633-2.65 1.875-.224 1.255.596 2.46 1.83 2.694L12 63.764c1.13.212 2.2-.46 2.56-1.54l.96-1.573.722 2.127v4.93c0 1.267 1.03 2.297 2.297 2.297 1.26 0 2.29-1.03 2.3-2.3v-5.11l-.02-.25c-.01-.246-.05-.46-.116-.654l-1.33-3.91.74-1.78c.408.36.934.566 1.488.57l4.124.006c1.397 0 2.264-.85 2.264-2.213 0-1.214-.713-2.027-1.878-2.176zm0 0" fill="#67747C"/><path d="M21.606 7.045c1.544 0 2.796-1.265 2.796-2.82 0-1.56-1.252-2.826-2.796-2.826-1.54 0-2.794 1.263-2.794 2.82s1.253 2.82 2.794 2.82zm4.516 5.535l-.288-.037-.135-.004-2.475-.01-.85-2.654c-.24-.744-.865-1.312-1.58-1.47l-2.246-.92c-.247-.097-.5-.148-.767-.153l-4.96-.098c-.383 0-.756.097-1.09.284l-.054-.037L7.855 11c-.93.853-.99 2.316-.14 3.26.44.487 1.06.76 1.703.76.563 0 1.105-.205 1.524-.587l2.77-2.55.718.002L12.8 15.88l-1.71 3.38-3.226-.6-.284-.034-.895-.166c-1.25-.226-2.423.633-2.65 1.875-.224 1.253.596 2.46 1.83 2.692l6.14 1.127c1.13.21 2.2-.463 2.56-1.54l.96-1.575.722 2.124v4.93c0 1.268 1.03 2.298 2.297 2.298 1.26 0 2.29-1.03 2.3-2.3v-5.11l-.018-.25c-.01-.246-.05-.46-.117-.654l-1.33-3.913.74-1.78c.406.36.932.567 1.486.57l4.124.007c1.398 0 2.265-.85 2.265-2.21 0-1.216-.713-2.03-1.878-2.178zm0 0" fill="#3B444F"/></g></svg>