<svg width="32" height="232" viewBox="0 0 32 232" xmlns="http://www.w3.org/2000/svg"><title>activity--line</title><g fill="none"><path d="M25.59 131.607l-.315-.038-.17-.006-1.785-.005-.635-2c-.25-.783-.845-1.406-1.567-1.72l.145.013c1.852 0 3.36-1.537 3.36-3.426 0-1.89-1.508-3.43-3.36-3.43-1.85 0-3.357 1.54-3.357 3.43 0 1.023.45 1.932 1.15 2.56l-.4-.163c-.315-.123-.64-.188-.964-.192l-4.674-.093c-.478 0-.955.124-1.46.413l-.518.395-3.182 2.954c-1.17 1.086-1.25 2.947-.18 4.153 1.037 1.157 2.946 1.25 4.07.21l1.262-1.17-.664 1.648-1.36 2.71-2.497-.474-.31-.04-.793-.145c-1.593-.29-3.06.804-3.34 2.382-.282 1.592.753 3.127 2.31 3.424l5.76 1.068c1.386.262 2.72-.553 3.202-1.87l.044-.075.135.398v4.552c0 1.613 1.296 2.928 2.89 2.928 1.588 0 2.885-1.313 2.89-2.928v-4.85l-.017-.305c-.015-.282-.064-.55-.146-.795l-1.155-3.436.262-.632c.33.132.683.202 1.043.204l3.875.007c1.71 0 2.86-1.145 2.86-2.848 0-1.52-.944-2.62-2.41-2.81zm-4.328-9.107c1.043 0 1.89.865 1.89 1.93 0 1.06-.847 1.927-1.89 1.927-1.04 0-1.887-.866-1.887-1.928 0-1.065.847-1.93 1.887-1.93zm3.877 13.265l-3.87-.007c-.338-.002-.66-.126-.914-.352l-.766-.687-1.2 2.912 1.335 3.977c.04.12.064.257.08.507l.006.107v4.846c-.003.79-.64 1.43-1.422 1.43-.784 0-1.423-.64-1.423-1.427v-4.676l-1.22-3.764-1.72 2.846-.07.152c-.222.675-.867 1.1-1.577.963l-5.758-1.068c-.76-.144-1.266-.9-1.128-1.683.14-.775.873-1.313 1.63-1.172l.84.155.106.012.16.015 3.565.678 1.883-3.76 1.95-4.82-2.052-.007-2.816 2.612c-.547.504-1.486.456-1.995-.112-.525-.59-.49-1.504.08-2.035l3.124-2.9.38-.294c.207-.117.432-.176.654-.176l4.663.09c.157.004.315.036.453.09l2.11.875.12.038c.42.092.798.452.938.89l.964 3.033 2.892.006.266.033c.734.096 1.123.552 1.123 1.322 0 1.114-.758 1.348-1.394 1.348zm0 0" fill="#206FAC"/><path d="M25.59 91.607l-.315-.038-.17-.006-1.785-.005-.635-2c-.25-.783-.845-1.406-1.567-1.72l.145.013c1.852 0 3.36-1.537 3.36-3.426 0-1.89-1.508-3.43-3.36-3.43-1.85 0-3.357 1.54-3.357 3.43 0 1.023.45 1.932 1.15 2.56l-.4-.163c-.315-.123-.64-.188-.964-.192l-4.674-.093c-.478 0-.955.124-1.46.413l-.518.395-3.182 2.954c-1.17 1.086-1.25 2.947-.18 4.153 1.037 1.157 2.946 1.25 4.07.21l1.262-1.17-.664 1.648-1.36 2.71-2.497-.474-.31-.04-.793-.145c-1.593-.29-3.06.804-3.34 2.382-.282 1.592.753 3.127 2.31 3.424l5.76 1.068c1.386.262 2.72-.553 3.202-1.87l.044-.075.135.398v4.552c0 1.613 1.296 2.928 2.89 2.928 1.588 0 2.885-1.313 2.89-2.928v-4.85l-.017-.305c-.015-.282-.064-.55-.146-.795l-1.155-3.436.262-.632c.33.132.683.202 1.043.204l3.875.007c1.71 0 2.86-1.145 2.86-2.848 0-1.52-.944-2.62-2.41-2.81zM21.262 82.5c1.043 0 1.89.865 1.89 1.93 0 1.06-.847 1.927-1.89 1.927-1.04 0-1.887-.866-1.887-1.928 0-1.065.847-1.93 1.887-1.93zm3.877 13.265l-3.87-.007c-.338-.002-.66-.126-.914-.352l-.766-.687-1.2 2.912 1.335 3.977c.04.12.064.257.08.507l.006.107v4.846c-.003.79-.64 1.43-1.422 1.43-.784 0-1.423-.64-1.423-1.427v-4.676l-1.22-3.764-1.72 2.846-.07.152c-.222.675-.867 1.1-1.577.963l-5.758-1.068c-.76-.144-1.266-.9-1.128-1.683.14-.775.873-1.313 1.63-1.172l.84.155.106.012.16.015 3.565.678 1.883-3.76 1.95-4.82-2.052-.007-2.816 2.612c-.547.504-1.486.456-1.995-.112-.525-.59-.49-1.504.08-2.035l3.124-2.9.38-.294c.207-.117.432-.176.654-.176l4.663.09c.157.004.315.036.453.09l2.11.875.12.038c.42.092.798.452.938.89l.964 3.033 2.892.006.266.033c.734.096 1.123.552 1.123 1.322 0 1.114-.758 1.348-1.394 1.348zm0 0" fill="#fff"/><path d="M25.59 51.607l-.315-.038-.17-.006-1.785-.005-.635-2c-.25-.783-.845-1.406-1.567-1.72l.145.013c1.852 0 3.36-1.537 3.36-3.426 0-1.89-1.508-3.43-3.36-3.43-1.85 0-3.357 1.54-3.357 3.43 0 1.023.45 1.932 1.15 2.56l-.4-.163c-.315-.123-.64-.188-.964-.192l-4.674-.093c-.478 0-.955.124-1.46.413l-.518.395-3.182 2.954c-1.17 1.086-1.25 2.947-.18 4.153 1.037 1.157 2.946 1.25 4.07.21l1.262-1.17-.664 1.648-1.36 2.71-2.497-.474-.31-.04-.793-.145c-1.593-.29-3.06.804-3.34 2.382-.282 1.592.753 3.127 2.31 3.424l5.76 1.068c1.386.262 2.72-.553 3.202-1.87l.044-.075.135.398v4.552c0 1.613 1.296 2.928 2.89 2.928 1.588 0 2.885-1.313 2.89-2.928v-4.85l-.017-.305c-.015-.282-.064-.55-.146-.795l-1.155-3.436.262-.632c.33.132.683.202 1.043.204l3.875.007c1.71 0 2.86-1.145 2.86-2.848 0-1.52-.944-2.62-2.41-2.81zM21.262 42.5c1.043 0 1.89.865 1.89 1.93 0 1.06-.847 1.927-1.89 1.927-1.04 0-1.887-.866-1.887-1.928 0-1.065.847-1.93 1.887-1.93zm3.877 13.265l-3.87-.007c-.338-.002-.66-.126-.914-.352l-.766-.687-1.2 2.912 1.335 3.977c.04.12.064.257.08.507l.006.107v4.846c-.003.79-.64 1.43-1.422 1.43-.784 0-1.423-.64-1.423-1.427v-4.676l-1.22-3.764-1.72 2.846-.07.152c-.222.675-.867 1.1-1.577.963L6.62 61.527c-.76-.144-1.266-.9-1.128-1.683.14-.775.873-1.313 1.63-1.172l.84.155.106.012.16.015 3.565.678 1.883-3.76 1.95-4.82-2.052-.007-2.816 2.612c-.547.504-1.486.456-1.995-.112-.525-.59-.49-1.504.08-2.035l3.124-2.9.38-.294c.207-.117.432-.176.654-.176l4.663.09c.157.004.315.036.453.09l2.11.875.12.038c.42.092.798.452.938.89l.964 3.033 2.892.006.266.033c.734.096 1.123.552 1.123 1.322 0 1.114-.758 1.348-1.394 1.348zm0 0" fill="#67747C"/><path d="M25.59 11.607l-.315-.038-.17-.006-1.785-.005-.635-2c-.25-.783-.845-1.406-1.567-1.72l.145.013c1.852 0 3.36-1.537 3.36-3.426 0-1.89-1.508-3.43-3.36-3.43-1.85 0-3.357 1.54-3.357 3.43 0 1.023.45 1.932 1.15 2.56l-.4-.163c-.315-.123-.64-.188-.964-.192l-4.674-.093c-.478 0-.955.124-1.46.413l-.518.395-3.182 2.954c-1.17 1.086-1.25 2.947-.18 4.153 1.037 1.157 2.946 1.25 4.07.21l1.262-1.17-.664 1.648-1.36 2.71-2.497-.474-.31-.04-.793-.145c-1.593-.29-3.06.804-3.34 2.382-.282 1.592.753 3.127 2.31 3.424l5.76 1.068c1.386.262 2.72-.553 3.202-1.87l.044-.075.135.398v4.552c0 1.613 1.296 2.928 2.89 2.928 1.588 0 2.885-1.313 2.89-2.928v-4.85l-.017-.305c-.015-.282-.064-.55-.146-.795l-1.155-3.436.262-.632c.33.132.683.202 1.043.204l3.875.007c1.71 0 2.86-1.145 2.86-2.848 0-1.52-.944-2.62-2.41-2.81zM21.262 2.5c1.043 0 1.89.865 1.89 1.93 0 1.06-.847 1.927-1.89 1.927-1.04 0-1.887-.866-1.887-1.928 0-1.065.847-1.93 1.887-1.93zm3.877 13.265l-3.87-.007c-.338-.002-.66-.126-.914-.352l-.766-.687-1.2 2.912 1.335 3.977c.04.12.064.257.08.507l.006.107v4.846c-.003.79-.64 1.43-1.422 1.43-.784 0-1.423-.64-1.423-1.427v-4.676l-1.22-3.764-1.72 2.846-.07.152c-.222.675-.867 1.1-1.577.963L6.62 21.527c-.76-.144-1.266-.9-1.128-1.683.14-.775.873-1.313 1.63-1.172l.84.155.106.012.16.015 3.565.678 1.883-3.76 1.95-4.82-2.052-.007-2.816 2.612c-.547.504-1.486.456-1.995-.112-.525-.59-.49-1.504.08-2.035l3.124-2.9.38-.294c.207-.117.432-.176.654-.176l4.663.09c.157.004.315.036.453.09l2.11.875.12.038c.42.092.798.452.938.89l.964 3.033 2.892.006.266.033c.734.096 1.123.552 1.123 1.322 0 1.114-.758 1.348-1.394 1.348zm0 0" fill="#3B444F"/><path d="M25.59 171.607l-.315-.038-.17-.006-1.785-.005-.635-2c-.25-.783-.845-1.406-1.567-1.72l.145.013c1.852 0 3.36-1.537 3.36-3.426 0-1.89-1.508-3.43-3.36-3.43-1.85 0-3.357 1.54-3.357 3.43 0 1.023.45 1.932 1.15 2.56l-.4-.163c-.315-.123-.64-.188-.964-.192l-4.674-.093c-.478 0-.955.124-1.46.413l-.518.395-3.182 2.954c-1.17 1.086-1.25 2.947-.18 4.153 1.037 1.157 2.946 1.25 4.07.21l1.262-1.17-.664 1.648-1.36 2.71-2.497-.474-.31-.04-.793-.145c-1.593-.29-3.06.804-3.34 2.382-.282 1.592.753 3.127 2.31 3.424l5.76 1.068c1.386.262 2.72-.553 3.202-1.87l.044-.075.135.398v4.552c0 1.613 1.296 2.928 2.89 2.928 1.588 0 2.885-1.313 2.89-2.928v-4.85l-.017-.305c-.015-.282-.064-.55-.146-.795l-1.155-3.436.262-.632c.33.132.683.202 1.043.204l3.875.007c1.71 0 2.86-1.145 2.86-2.848 0-1.52-.944-2.62-2.41-2.81zm-4.328-9.107c1.043 0 1.89.865 1.89 1.93 0 1.06-.847 1.927-1.89 1.927-1.04 0-1.887-.866-1.887-1.928 0-1.065.847-1.93 1.887-1.93zm3.877 13.265l-3.87-.007c-.338-.002-.66-.126-.914-.352l-.766-.687-1.2 2.912 1.335 3.977c.04.12.064.257.08.507l.006.107v4.846c-.003.79-.64 1.43-1.422 1.43-.784 0-1.423-.64-1.423-1.427v-4.676l-1.22-3.764-1.72 2.846-.07.152c-.222.675-.867 1.1-1.577.963l-5.758-1.068c-.76-.144-1.266-.9-1.128-1.683.14-.775.873-1.313 1.63-1.172l.84.155.106.012.16.015 3.565.678 1.883-3.76 1.95-4.82-2.052-.007-2.816 2.612c-.547.504-1.486.456-1.995-.112-.525-.59-.49-1.504.08-2.035l3.124-2.9.38-.294c.207-.117.432-.176.654-.176l4.663.09c.157.004.315.036.453.09l2.11.875.12.038c.42.092.798.452.938.89l.964 3.033 2.892.006.266.033c.734.096 1.123.552 1.123 1.322 0 1.114-.758 1.348-1.394 1.348zm0 0" fill="#FFF06D"/></g></svg>