<svg width="22" height="32" viewBox="0 0 22 32" xmlns="http://www.w3.org/2000/svg"><g fill="none"><path d="M15.5 29.984c0 1.105-2.017 2-4.5 2-2.487 0-4.5-.895-4.5-2 0-1.104 2.013-2 4.5-2 2.483 0 4.5.896 4.5 2" fill-opacity=".2" fill="#1D508D"/><path d="M10.998-.016c6.076 0 11 4.363 11 10.92 0 6.406-5.55 9.16-8.506 13.257-2.417 3.35-2.494 5.827-2.494 5.827s-.02-2.49-2.493-5.823C5.465 20.064 0 17.5 0 10.904 0 4.343 4.923-.017 10.997-.017" fill="#FFC83F"/><path d="M13.81 6.756c.776 0 1.402-.63 1.402-1.404 0-.773-.626-1.4-1.4-1.4-.774 0-1.403.627-1.403 1.4 0 .775.625 1.404 1.4 1.404M16.072 9.5l-.146-.016h-.065l-1.24-.003-.428-1.315c-.12-.368-.433-.65-.79-.727l-1.124-.46c-.127-.047-.257-.073-.39-.077L9.4 6.858c-.19 0-.38.043-.546.137l-.028-.018L6.91 8.722c-.464.424-.493 1.148-.067 1.62.22.24.53.378.854.378.28 0 .553-.104.762-.293L9.85 9.16h.36l-.818 1.984-.863 1.678-1.618-.3-.144-.014-.448-.08c-.627-.116-1.213.313-1.326.928-.112.62.3 1.222.917 1.334l3.078.56c.57.11 1.11-.227 1.287-.76l.483-.785.363 1.056v2.457c0 .624.516 1.137 1.154 1.137.628 0 1.148-.51 1.148-1.136v-2.542l-.005-.122c-.01-.126-.027-.23-.064-.326l-.664-1.942.372-.884c.204.18.468.28.746.28l2.07.004c.703 0 1.136-.42 1.136-1.096 0-.605-.358-1.01-.944-1.083" fill="#fff"/></g></svg>