<svg width="22" height="32" viewBox="0 0 22 32" xmlns="http://www.w3.org/2000/svg"><title>activity--pin</title><g fill="none"><path d="M15.5 29.984c0 1.105-2.017 2-4.5 2-2.487 0-4.5-.895-4.5-2 0-1.104 2.013-2 4.5-2 2.483 0 4.5.896 4.5 2" fill-opacity=".2" fill="#1D508D"/><path d="M10.998-.016c6.076 0 11 4.363 11 10.92 0 6.406-5.55 9.16-8.506 13.257-2.417 3.346-2.494 5.824-2.494 5.824s-.02-2.49-2.493-5.823C5.465 20.064 0 17.5 0 10.904 0 4.345 4.923-.017 10.997-.017" fill="#FFC83F"/><path d="M13.81 6.756c.776 0 1.402-.63 1.402-1.404 0-.773-.626-1.4-1.4-1.4-.774 0-1.403.627-1.403 1.4 0 .775.628 1.404 1.4 1.404M16.075 9.5l-.146-.016h-.064l-1.24-.003-.428-1.318c-.12-.368-.433-.65-.79-.727l-1.124-.46c-.128-.047-.258-.073-.39-.077l-2.49-.042c-.19 0-.38.043-.547.137l-.028-.018L6.91 8.722c-.464.424-.493 1.148-.067 1.62.22.24.53.378.854.378.28 0 .553-.104.762-.293L9.852 9.16h.36l-.818 1.984-.863 1.678-1.617-.3-.144-.014-.447-.08c-.627-.116-1.213.313-1.326.928-.112.62.3 1.222.917 1.334l3.077.56c.568.11 1.108-.227 1.286-.76l.483-.785.363 1.056v2.454c0 .624.515 1.137 1.153 1.137.628 0 1.148-.51 1.148-1.136v-2.542l-.005-.122c-.01-.126-.025-.23-.062-.326l-.664-1.942.373-.884c.204.18.468.28.746.28l2.07.003c.702 0 1.135-.42 1.135-1.096 0-.605-.358-1.01-.944-1.083" fill="#fff"/></g></svg>