<svg width="32" height="232" viewBox="0 0 32 232" xmlns="http://www.w3.org/2000/svg"><title>activity</title><g fill="none"><path d="M21.606 167.045c1.544 0 2.796-1.265 2.796-2.82 0-1.56-1.252-2.826-2.796-2.826-1.54 0-2.794 1.266-2.794 2.824 0 1.556 1.253 2.82 2.794 2.82zm4.516 5.535l-.288-.037-.135-.004-2.472-.007-.85-2.654c-.24-.744-.865-1.312-1.58-1.47l-2.246-.92c-.247-.097-.5-.148-.767-.153l-4.96-.098c-.383 0-.756.097-1.09.284l-.054-.037-3.824 3.517c-.93.852-.99 2.315-.14 3.26.44.486 1.06.76 1.703.76.566 0 1.108-.206 1.527-.588l2.77-2.55.718.002-1.634 3.994-1.71 3.382-3.226-.602-.284-.033-.895-.166c-1.25-.226-2.423.633-2.65 1.875-.224 1.253.596 2.46 1.83 2.692l6.14 1.127c1.13.21 2.2-.463 2.56-1.54l.96-1.575.722 2.127v4.93c0 1.268 1.03 2.298 2.297 2.298 1.26 0 2.29-1.03 2.3-2.3v-5.11l-.018-.25c-.01-.246-.05-.46-.117-.654l-1.328-3.912.74-1.78c.407.36.933.567 1.487.57l4.124.007c1.397 0 2.264-.85 2.264-2.21 0-1.216-.713-2.03-1.878-2.178zm0 0" fill="#FFC841"/><path d="M21.606 126.647c1.544 0 2.796-1.265 2.796-2.82 0-1.56-1.252-2.826-2.796-2.826-1.54 0-2.794 1.268-2.794 2.826 0 1.556 1.253 2.82 2.794 2.82zm4.516 5.535l-.288-.037-.135-.004-2.472-.005-.85-2.654c-.24-.742-.865-1.31-1.58-1.468l-2.246-.92c-.247-.097-.5-.148-.767-.153l-4.96-.1c-.383 0-.756.1-1.09.286l-.054-.037-3.824 3.516c-.93.852-.99 2.315-.14 3.26.44.486 1.06.76 1.703.76.566 0 1.108-.206 1.527-.588l2.77-2.55.718.002-1.634 3.994-1.71 3.382-3.226-.602-.284-.033-.895-.164c-1.25-.226-2.423.633-2.65 1.875-.224 1.255.596 2.46 1.83 2.694l6.14 1.127c1.13.212 2.2-.46 2.56-1.54l.96-1.573.722 2.127v4.93c0 1.268 1.03 2.298 2.297 2.298 1.26 0 2.29-1.03 2.3-2.3v-5.11l-.018-.25c-.01-.246-.05-.46-.117-.654l-1.328-3.912.74-1.78c.407.36.933.567 1.487.57l4.124.007c1.397 0 2.264-.85 2.264-2.212 0-1.214-.713-2.027-1.878-2.176zm0 0" fill="#206FAC"/><path d="M21.606 86.647c1.544 0 2.796-1.265 2.796-2.82 0-1.56-1.252-2.826-2.796-2.826-1.54 0-2.794 1.268-2.794 2.826 0 1.556 1.253 2.82 2.794 2.82zm4.516 5.535l-.288-.037-.135-.004-2.472-.005-.85-2.654c-.24-.742-.865-1.31-1.58-1.468l-2.246-.92c-.247-.097-.5-.148-.767-.153l-4.96-.1c-.383 0-.756.1-1.09.286l-.054-.037-3.824 3.516c-.93.852-.99 2.315-.14 3.26.44.486 1.06.76 1.703.76.566 0 1.108-.206 1.527-.588l2.77-2.55.718.002-1.634 3.994-1.71 3.382-3.226-.602-.284-.033-.895-.164c-1.25-.226-2.423.633-2.65 1.875-.224 1.255.596 2.46 1.83 2.694l6.14 1.127c1.13.212 2.2-.46 2.56-1.54l.96-1.573.722 2.127v4.93c0 1.268 1.03 2.298 2.297 2.298 1.26 0 2.29-1.03 2.3-2.3v-5.11l-.018-.25c-.01-.246-.05-.46-.117-.654l-1.328-3.912.74-1.78c.407.36.933.567 1.487.57l4.124.007c1.397 0 2.264-.85 2.264-2.212 0-1.214-.713-2.027-1.878-2.176zm0 0" fill="#fff"/><path d="M21.606 46.647c1.544 0 2.796-1.265 2.796-2.82 0-1.56-1.252-2.826-2.796-2.826-1.54 0-2.794 1.268-2.794 2.826 0 1.556 1.253 2.82 2.794 2.82zm4.516 5.535l-.288-.037-.135-.004-2.472-.005-.85-2.654c-.24-.742-.865-1.31-1.58-1.468l-2.246-.92c-.247-.097-.5-.148-.767-.153l-4.96-.1c-.383 0-.756.1-1.09.286l-.054-.037-3.824 3.516c-.93.852-.99 2.315-.14 3.26.44.486 1.06.76 1.703.76.566 0 1.108-.206 1.527-.588l2.77-2.55.718.002-1.634 3.994-1.71 3.382-3.226-.602-.284-.033-.895-.164c-1.25-.226-2.423.633-2.65 1.875-.224 1.255.596 2.46 1.83 2.694l6.14 1.127c1.13.212 2.2-.46 2.56-1.54l.96-1.573.722 2.127v4.93c0 1.268 1.03 2.298 2.297 2.298 1.26 0 2.29-1.03 2.3-2.3v-5.11l-.018-.25c-.01-.246-.05-.46-.117-.654l-1.328-3.912.74-1.78c.407.36.933.567 1.487.57l4.124.007c1.397 0 2.264-.85 2.264-2.212 0-1.214-.713-2.027-1.878-2.176zm0 0" fill="#67747C"/><path d="M21.606 7.045c1.544 0 2.796-1.265 2.796-2.82 0-1.56-1.252-2.826-2.796-2.826-1.54 0-2.794 1.266-2.794 2.824 0 1.556 1.253 2.82 2.794 2.82zm4.516 5.535l-.288-.037-.135-.004-2.472-.007-.85-2.654c-.24-.744-.865-1.312-1.58-1.47l-2.246-.92c-.247-.097-.5-.148-.767-.153l-4.96-.098c-.383 0-.756.097-1.09.284l-.054-.037-3.824 3.517c-.93.852-.99 2.315-.14 3.26.44.486 1.06.76 1.703.76.566 0 1.108-.206 1.527-.588l2.77-2.55.718.002-1.634 3.994-1.71 3.382-3.226-.602-.284-.033-.895-.166c-1.25-.226-2.423.633-2.65 1.875-.224 1.253.596 2.46 1.83 2.692l6.14 1.127c1.13.21 2.2-.463 2.56-1.54l.96-1.575.722 2.127v4.93c0 1.268 1.03 2.298 2.297 2.298 1.26 0 2.29-1.03 2.3-2.3v-5.11l-.018-.25c-.01-.246-.05-.46-.117-.654l-1.328-3.912.74-1.78c.407.36.933.567 1.487.57l4.124.007c1.397 0 2.264-.85 2.264-2.21 0-1.216-.713-2.03-1.878-2.178zm0 0" fill="#3B444F"/></g></svg>