<svg width="32" height="232" viewBox="0 0 32 232" xmlns="http://www.w3.org/2000/svg"><g fill="none"><path d="M25.854 140.717c-.637-.363-.627-.965.022-1.34.65-.37.64-.984-.02-1.36l-.074-.042c-.662-.38-1.725-.385-2.367-.016-.637.37-1.564.44-2.057.16-.492-.29-.893-1.02-.89-1.64.005-.61.017-1.13.03-1.14l.885-.53c.477-.28 1.393-.21 2.033.15.645.36 1.706.34 2.364-.04l.076-.04c.656-.39.662-1 .01-1.36-.65-.36-.662-.96-.028-1.33.634-.38 1.15-1 1.15-1.39 0-.39-.282-.87-.624-1.07-.342-.21-1.14-.07-1.775.3-.64.37-1.16.06-1.15-.69 0-.75-.54-1.05-1.19-.67l-.08.05c-.66.38-1.19 1.3-1.19 2.03 0 .74-.4 1.58-.88 1.86-.49.28-.89.51-.9.51l-.99-.576-.97-.58v-1c0-.55.51-1.3 1.14-1.677.63-.375 1.15-1.3 1.15-2.058v-.09c0-.76-.53-1.08-1.17-.7-.64.38-1.16.09-1.16-.65s-.28-1.5-.61-1.7c-.34-.2-.9-.2-1.24 0-.35.2-.64.96-.64 1.69 0 .733-.53 1.025-1.18.645-.65-.38-1.18-.07-1.18.693v.09c0 .76.52 1.68 1.16 2.06.65.37 1.17 1.123 1.17 1.67v1.02s-.43.26-.96.57c-.53.316-.974.567-.983.57-.01.007-.41-.216-.89-.5-.47-.274-.86-1.11-.86-1.85s-.53-1.655-1.19-2.04l-.076-.044c-.656-.385-1.19-.09-1.19.66s-.517 1.06-1.15.687c-.634-.37-1.433-.51-1.775-.31-.34.2-.62.68-.627 1.07 0 .385.52 1.01 1.15 1.384.64.364.624.965-.026 1.326-.65.367-.645.98.01 1.36l.08.05c.66.38 1.72.4 2.362.032.64-.367 1.552-.44 2.03-.157l.89.525c.012.014.03.53.03 1.14.002.615-.39 1.346-.89 1.635-.49.275-1.42.21-2.06-.166-.64-.37-1.703-.37-2.36.01l-.077.04c-.66.375-.67.99-.02 1.36.65.374.66.976.02 1.34-.64.36-1.16.99-1.157 1.384 0 .39.28.88.613 1.07.334.193 1.13.054 1.77-.31.64-.366 1.15-.05 1.14.69-.01.743.52 1.044 1.18.67l.08-.046c.66-.38 1.2-1.293 1.21-2.03 0-.73.4-1.56.87-1.835l.89-.51c.01 0 .46.25.997.566.54.32.98.586.98.6v1.1c0 .55-.53 1.304-1.16 1.677-.64.372-1.16 1.293-1.16 2.058v.083c0 .76.52 1.07 1.16.7.632-.39 1.16-.1 1.16.64 0 .73.27 1.49.61 1.69.334.19.89.19 1.24 0 .35-.2.63-.96.63-1.69 0-.74.53-1.03 1.17-.65.65.37 1.173.06 1.173-.7v-.08c0-.77-.52-1.69-1.16-2.06-.64-.38-1.163-1.13-1.163-1.68v-1.04c0-.02.45-.29 1-.6.546-.32 1-.57 1.01-.57.01 0 .41.23.89.5.476.27.87 1.1.876 1.84.01.73.55 1.65 1.21 2.03l.073.04c.66.37 1.19.07 1.18-.67-.01-.74.51-1.06 1.14-.69.64.36 1.44.5 1.77.31.34-.2.61-.68.617-1.08.008-.4-.51-1.02-1.15-1.39m-8.98-2.73c-.462.27-.86.49-.87.49-.012 0-.413-.22-.885-.488-.477-.26-.87-.94-.87-1.5-.007-.553.38-1.237.86-1.516l.875-.51.88.51c.47.28.86.96.86 1.515-.01.56-.39 1.236-.85 1.5" fill="#206FAC"/><path d="M25.854 100.717c-.637-.363-.627-.965.022-1.34.65-.37.64-.984-.02-1.36l-.074-.042c-.662-.38-1.725-.385-2.367-.016-.637.37-1.564.44-2.057.16-.492-.29-.893-1.02-.89-1.64.005-.61.017-1.13.03-1.14l.885-.53c.477-.28 1.393-.21 2.033.15.645.36 1.706.34 2.364-.04l.076-.04c.656-.39.662-1 .01-1.36-.65-.36-.662-.96-.028-1.33.634-.38 1.15-1 1.15-1.39 0-.39-.282-.87-.624-1.07-.342-.21-1.14-.07-1.775.3-.64.37-1.16.06-1.15-.69 0-.75-.54-1.05-1.19-.67l-.08.05c-.66.38-1.19 1.3-1.19 2.03 0 .74-.4 1.58-.88 1.86-.49.28-.89.51-.9.51l-.99-.576-.97-.58v-1c0-.55.51-1.3 1.14-1.677.63-.375 1.15-1.3 1.15-2.058v-.09c0-.76-.53-1.08-1.17-.7-.64.38-1.16.09-1.16-.65s-.28-1.5-.61-1.7c-.34-.2-.9-.2-1.24 0-.35.2-.64.96-.64 1.69 0 .733-.53 1.025-1.18.645-.65-.38-1.18-.07-1.18.693v.09c0 .76.52 1.68 1.16 2.06.65.37 1.17 1.123 1.17 1.67v1.02s-.43.26-.96.57c-.53.316-.974.567-.983.57-.01.007-.41-.216-.89-.5-.47-.274-.86-1.11-.86-1.85s-.53-1.655-1.19-2.04l-.076-.044c-.656-.385-1.19-.09-1.19.66s-.517 1.06-1.15.687c-.634-.37-1.433-.51-1.775-.31-.34.2-.62.68-.627 1.07 0 .385.52 1.01 1.15 1.384.64.364.624.965-.026 1.326-.65.367-.645.98.01 1.36l.08.05c.66.38 1.72.4 2.362.032.64-.367 1.552-.44 2.03-.157l.89.525c.012.014.03.53.03 1.14.002.615-.39 1.346-.89 1.635-.49.275-1.42.21-2.06-.166-.64-.37-1.703-.37-2.36.01l-.077.04c-.66.375-.67.99-.02 1.36.65.374.66.976.02 1.34-.64.36-1.16.99-1.157 1.384 0 .39.28.88.613 1.07.334.193 1.13.054 1.77-.31.64-.366 1.15-.05 1.14.69-.01.743.52 1.044 1.18.67l.08-.046c.66-.38 1.2-1.293 1.21-2.03 0-.73.4-1.56.87-1.835l.89-.51c.01 0 .46.25.997.566.54.32.98.586.98.6v1.1c0 .55-.53 1.304-1.16 1.677-.64.372-1.16 1.293-1.16 2.058v.083c0 .76.52 1.07 1.16.7.632-.39 1.16-.1 1.16.64 0 .73.27 1.49.61 1.69.334.19.89.19 1.24 0 .35-.2.63-.96.63-1.69 0-.74.53-1.03 1.17-.65.65.37 1.173.06 1.173-.7v-.08c0-.77-.52-1.69-1.16-2.06-.64-.38-1.163-1.13-1.163-1.68v-1.04c0-.02.45-.29 1-.6.546-.32 1-.57 1.01-.57.01 0 .41.23.89.5.476.27.87 1.1.876 1.84.01.73.55 1.65 1.21 2.03l.073.04c.66.37 1.19.07 1.18-.67-.01-.74.51-1.06 1.14-.69.64.36 1.44.5 1.77.31.34-.2.61-.68.617-1.08.008-.4-.51-1.02-1.15-1.39m-8.98-2.73c-.462.27-.86.49-.87.49-.012 0-.413-.22-.885-.488-.477-.26-.87-.94-.87-1.5-.007-.553.38-1.237.86-1.516l.875-.51.88.51c.47.28.86.96.86 1.515-.01.56-.39 1.236-.85 1.5" fill="#fff"/><path d="M25.854 60.717c-.637-.363-.627-.965.022-1.34.65-.37.64-.984-.02-1.36l-.074-.042c-.662-.38-1.725-.385-2.367-.016-.637.37-1.564.44-2.057.16-.492-.29-.893-1.02-.89-1.64.005-.61.017-1.13.03-1.14l.885-.53c.477-.28 1.393-.21 2.033.15.645.36 1.706.34 2.364-.04l.076-.04c.656-.39.662-1 .01-1.36-.65-.36-.662-.96-.028-1.33.634-.38 1.15-1 1.15-1.39 0-.39-.282-.87-.624-1.07-.342-.21-1.14-.07-1.775.3-.64.37-1.16.06-1.15-.69 0-.75-.54-1.05-1.19-.67l-.08.05c-.66.38-1.19 1.3-1.19 2.03 0 .74-.4 1.58-.88 1.86-.49.28-.89.51-.9.51l-.99-.576-.97-.58v-1c0-.55.51-1.3 1.14-1.677.63-.375 1.15-1.3 1.15-2.058v-.09c0-.76-.53-1.08-1.17-.7-.64.38-1.16.09-1.16-.65s-.28-1.5-.61-1.7c-.34-.2-.9-.2-1.24 0-.35.2-.64.96-.64 1.69 0 .733-.53 1.025-1.18.645-.65-.38-1.18-.07-1.18.693v.09c0 .76.52 1.68 1.16 2.06.65.37 1.17 1.123 1.17 1.67v1.02s-.43.26-.96.57c-.53.316-.974.567-.983.57-.01.007-.41-.216-.89-.5-.47-.274-.86-1.11-.86-1.85s-.53-1.655-1.19-2.04l-.076-.044c-.656-.385-1.19-.09-1.19.66s-.517 1.06-1.15.687c-.634-.37-1.433-.51-1.775-.31-.34.2-.62.68-.627 1.07 0 .385.52 1.01 1.15 1.384.64.364.624.965-.026 1.326-.65.367-.645.98.01 1.36l.08.05c.66.38 1.72.4 2.362.032.64-.367 1.552-.44 2.03-.157l.89.525c.012.014.03.53.03 1.14.002.615-.39 1.346-.89 1.635-.49.275-1.42.21-2.06-.166-.64-.37-1.703-.37-2.36.01l-.077.04c-.66.375-.67.99-.02 1.36.65.374.66.976.02 1.34-.645.364-1.16.99-1.16 1.384.002.39.28.88.614 1.07.336.193 1.133.054 1.77-.31.64-.366 1.15-.05 1.14.69-.01.743.52 1.044 1.18.67l.08-.046c.66-.38 1.2-1.293 1.21-2.03.004-.73.4-1.56.875-1.835l.89-.51c.01 0 .46.25.99.566.54.32.98.59.98.6V62c0 .55-.524 1.305-1.16 1.678-.637.372-1.16 1.293-1.16 2.058v.083c0 .76.523 1.07 1.166.7.64-.39 1.168-.1 1.168.64 0 .73.277 1.49.61 1.69.34.19.896.19 1.24 0 .35-.2.63-.96.63-1.69 0-.74.53-1.03 1.175-.65.65.37 1.178.06 1.178-.7v-.08c0-.77-.52-1.69-1.16-2.06-.64-.38-1.165-1.13-1.165-1.68v-1.03c0-.02.45-.29 1-.6.543-.32 1-.57 1.01-.57.01 0 .41.23.89.5.48.27.87 1.1.88 1.84.01.73.55 1.65 1.21 2.03l.073.04c.66.37 1.19.07 1.18-.67-.01-.74.504-1.06 1.14-.69.64.36 1.434.5 1.77.31.334-.2.61-.69.613-1.08 0-.4-.517-1.02-1.154-1.39m-8.98-2.73c-.463.27-.86.49-.87.49-.013 0-.414-.22-.886-.49-.47-.26-.866-.94-.87-1.5 0-.55.385-1.24.865-1.52l.88-.51.88.51c.47.28.86.96.86 1.52-.01.56-.39 1.23-.85 1.492" fill="#67737B"/><path d="M25.854 20.717c-.637-.363-.627-.965.022-1.34.65-.37.64-.984-.02-1.36l-.074-.042c-.662-.38-1.725-.385-2.367-.016-.637.37-1.564.44-2.057.16-.492-.29-.893-1.02-.89-1.64.005-.61.017-1.13.03-1.14l.885-.53c.477-.28 1.393-.21 2.033.15.645.36 1.706.34 2.364-.04l.076-.04c.656-.39.662-1 .01-1.36-.65-.36-.662-.96-.028-1.33.634-.38 1.15-1 1.15-1.39 0-.39-.282-.87-.624-1.07-.342-.21-1.14-.07-1.775.3-.64.37-1.16.06-1.15-.69 0-.75-.54-1.05-1.19-.67l-.08.05c-.66.38-1.19 1.3-1.19 2.03 0 .74-.4 1.58-.88 1.86-.49.28-.89.51-.9.51l-.99-.576-.97-.58v-1c0-.55.51-1.3 1.14-1.677.63-.375 1.15-1.3 1.15-2.058v-.09c0-.77-.53-1.08-1.17-.7-.64.38-1.16.09-1.16-.65s-.28-1.5-.61-1.7c-.34-.2-.9-.2-1.24 0-.35.2-.64.96-.64 1.69s-.53 1.022-1.18.642-1.18-.068-1.18.694V7.2c0 .76.52 1.68 1.16 2.054.65.37 1.17 1.12 1.17 1.67V12s-.43.268-.96.576c-.53.312-.974.563-.983.57-.01.003-.41-.22-.89-.505-.47-.27-.86-1.11-.86-1.85 0-.73-.53-1.65-1.19-2.03l-.07-.04c-.657-.38-1.19-.08-1.19.67s-.52 1.06-1.15.69c-.635-.37-1.434-.51-1.776-.3-.342.2-.623.68-.625 1.07 0 .39.52 1.01 1.15 1.39.64.36.63.96-.02 1.32-.65.37-.648.98.01 1.36l.08.05c.652.38 1.72.4 2.36.03.64-.37 1.554-.44 2.03-.16l.89.53c.01.02.023.53.03 1.14 0 .62-.398 1.35-.89 1.64-.49.28-1.42.21-2.06-.16-.64-.37-1.7-.37-2.36.01l-.078.047c-.66.37-.67.99-.02 1.36.65.37.66.97.02 1.34-.64.36-1.16.99-1.16 1.38 0 .39.28.88.613 1.078.334.197 1.13.058 1.77-.31.636-.362 1.15-.05 1.14.69-.01.747.52 1.048 1.18.67l.076-.042c.66-.38 1.2-1.3 1.21-2.03.003-.74.4-1.57.874-1.84l.89-.51c.01 0 .46.25.994.56.54.316.98.58.98.6V22c0 .55-.527 1.306-1.16 1.68-.64.37-1.16 1.292-1.16 2.057v.083c0 .763.52 1.075 1.163.7.64-.38 1.16-.092 1.16.643 0 .734.276 1.495.61 1.69.34.193.895.193 1.24 0 .35-.195.63-.956.63-1.69 0-.735.53-1.024 1.17-.643.65.375 1.174.063 1.174-.7v-.082c0-.765-.52-1.686-1.16-2.058-.64-.373-1.16-1.127-1.16-1.678V20.97c0-.016.45-.284 1-.597.547-.315 1-.566 1.01-.566.014.004.415.23.89.507.48.273.874 1.103.88 1.84.007.732.55 1.65 1.21 2.028l.075.045c.66.375 1.19.074 1.18-.67-.01-.74.503-1.055 1.14-.69.64.365 1.433.504 1.77.31.33-.195.61-.683.61-1.075 0-.394-.52-1.022-1.156-1.385m-8.98-2.73c-.46.27-.86.485-.87.485-.01 0-.41-.216-.884-.485-.47-.263-.868-.936-.87-1.496 0-.55.383-1.23.863-1.51l.873-.51.874.51c.48.28.868.97.866 1.52-.01.56-.39 1.24-.857 1.5" fill="#3A434E"/></g></svg>