<svg width="32" height="232" viewBox="0 0 32 232" xmlns="http://www.w3.org/2000/svg"><g fill="none" fill-rule="evenodd"><path d="M25.87 24.864c-.676.64-2.14.816-3.987.495l3.396 5.72c.15.252.06.575-.202.72-.26.148-.596.06-.748-.192l-3.91-6.588c-.91-.26-1.878-.624-2.868-1.098-2.413-1.156-4.72-2.892-7.39-5.554-3.373-3.363-5.28-6.558-6.294-9.256C2.69 5.98 2.76 3.538 3.778 2.576c1.643-1.554 4.628-4.432 7.48-.87 2.903 3.632 2.514 5.007.82 6.613-1.183 1.118-.265 2.55 2.237 5.077 2.504 2.526 4.52 4.504 5.7 3.384 1.694-1.603 3.37-2.295 6.995.65 3.628 2.944.5 5.88-1.14 7.434zm.302-6.81c-3.395-2.728-4.382-1.43-5.97.056-1.104 1.037-3.83-1.207-6.174-3.547-2.344-2.34-4.578-5.043-3.47-6.08 1.587-1.487 2.963-2.395.25-5.766-2.71-3.37-4.597-.844-6.135.595-1.774 1.66-.226 7.977 6.103 14.294 6.33 6.316 12.81 8.017 14.585 6.355 1.538-1.438 4.21-3.18.812-5.906zM8.247 30.27c.453 0 .82.354.82.792 0 .44-.367.794-.82.794-.454 0-.82-.355-.82-.794 0-.438.366-.793.82-.793zm1.505-2.59c.262-.147.597-.06.748.192l1.915 3.207c.15.252.062.575-.2.72-.262.148-.597.06-.748-.192L9.552 28.4c-.152-.252-.062-.575.2-.72zm3.284 0c.262-.147.597-.06.748.192L15.7 31.08c.15.252.06.575-.2.72-.263.148-.597.06-.748-.192L12.836 28.4c-.15-.252-.062-.575.2-.72zm3.01 0c.263-.147.597-.06.748.192l1.916 3.207c.15.252.062.575-.2.72-.262.148-.597.06-.748-.192L15.846 28.4c-.15-.252-.06-.575.2-.72zm3.285 0c.263-.147.597-.06.75.192l1.914 3.207c.15.252.062.575-.2.72-.262.148-.597.06-.748-.192L19.13 28.4c-.15-.252-.06-.575.2-.72z" id="Imported-Layers" fill="#3B444F"/><path d="M25.87 64.864c-.676.64-2.14.816-3.987.495l3.396 5.72c.15.252.06.575-.202.72-.26.148-.596.06-.748-.192l-3.91-6.588c-.91-.26-1.878-.624-2.868-1.098-2.413-1.156-4.72-2.892-7.39-5.554-3.373-3.363-5.28-6.558-6.294-9.256-1.177-3.132-1.107-5.574-.09-6.536 1.643-1.554 4.628-4.432 7.48-.87 2.903 3.632 2.514 5.007.82 6.613-1.183 1.118-.265 2.55 2.237 5.077 2.504 2.526 4.52 4.504 5.7 3.384 1.694-1.603 3.37-2.295 6.995.65 3.628 2.944.5 5.88-1.14 7.434zm.302-6.81c-3.395-2.728-4.382-1.43-5.97.056-1.104 1.037-3.83-1.207-6.174-3.547-2.344-2.34-4.578-5.043-3.47-6.08 1.587-1.487 2.963-2.395.25-5.766-2.71-3.37-4.597-.844-6.135.595-1.774 1.66-.226 7.977 6.103 14.294 6.33 6.316 12.81 8.017 14.585 6.355 1.538-1.438 4.21-3.18.812-5.906zM8.247 70.27c.453 0 .82.354.82.792 0 .44-.367.794-.82.794-.454 0-.82-.355-.82-.794 0-.438.366-.793.82-.793zm1.505-2.59c.262-.147.597-.06.748.192l1.915 3.207c.15.252.062.575-.2.72-.262.148-.597.06-.748-.192L9.552 68.4c-.152-.252-.062-.575.2-.72zm3.284 0c.262-.147.597-.06.748.192L15.7 71.08c.15.252.06.575-.2.72-.263.148-.597.06-.748-.192L12.836 68.4c-.15-.252-.062-.575.2-.72zm3.01 0c.263-.147.597-.06.748.192l1.916 3.207c.15.252.062.575-.2.72-.262.148-.597.06-.748-.192L15.846 68.4c-.15-.252-.06-.575.2-.72zm3.285 0c.263-.147.597-.06.75.192l1.914 3.207c.15.252.062.575-.2.72-.262.148-.597.06-.748-.192L19.13 68.4c-.15-.252-.06-.575.2-.72z" id="Imported-Layers" fill="#67737B"/><path d="M25.87 104.864c-.676.64-2.14.816-3.987.495l3.396 5.72c.15.252.06.575-.202.72-.26.148-.596.06-.748-.192l-3.91-6.588c-.91-.26-1.878-.624-2.868-1.098-2.413-1.156-4.72-2.892-7.39-5.554-3.373-3.363-5.28-6.558-6.294-9.256-1.177-3.132-1.107-5.574-.09-6.536 1.643-1.554 4.628-4.432 7.48-.87 2.903 3.632 2.514 5.007.82 6.613-1.183 1.118-.265 2.55 2.237 5.077 2.504 2.526 4.52 4.504 5.7 3.384 1.694-1.603 3.37-2.295 6.995.65 3.628 2.944.5 5.88-1.14 7.434zm.302-6.81c-3.395-2.728-4.382-1.43-5.97.056-1.104 1.037-3.83-1.207-6.174-3.547-2.344-2.34-4.578-5.043-3.47-6.08 1.587-1.487 2.963-2.395.25-5.766-2.71-3.37-4.597-.844-6.135.595-1.774 1.66-.226 7.977 6.103 14.294 6.33 6.316 12.81 8.017 14.585 6.355 1.538-1.438 4.21-3.18.812-5.906zM8.247 110.27c.453 0 .82.354.82.792 0 .44-.367.794-.82.794-.454 0-.82-.355-.82-.794 0-.438.366-.793.82-.793zm1.505-2.59c.262-.147.597-.06.748.192l1.915 3.207c.15.252.062.575-.2.72-.262.148-.597.06-.748-.192L9.552 108.4c-.152-.252-.062-.575.2-.72zm3.284 0c.262-.147.597-.06.748.192l1.916 3.207c.15.252.06.575-.2.72-.263.148-.597.06-.748-.192l-1.916-3.207c-.15-.252-.062-.575.2-.72zm3.01 0c.263-.147.597-.06.748.192l1.916 3.207c.15.252.062.575-.2.72-.262.148-.597.06-.748-.192l-1.916-3.207c-.15-.252-.06-.575.2-.72zm3.285 0c.263-.147.597-.06.75.192l1.914 3.207c.15.252.062.575-.2.72-.262.148-.597.06-.748-.192L19.13 108.4c-.15-.252-.06-.575.2-.72z" id="Imported-Layers" fill="#fff"/><path d="M25.87 144.864c-.676.64-2.14.816-3.987.495l3.396 5.72c.15.252.06.575-.202.72-.26.148-.596.06-.748-.192l-3.91-6.588c-.91-.26-1.878-.624-2.868-1.098-2.413-1.156-4.72-2.892-7.39-5.554-3.373-3.363-5.28-6.558-6.294-9.256-1.177-3.132-1.107-5.574-.09-6.536 1.643-1.554 4.628-4.432 7.48-.87 2.903 3.632 2.514 5.007.82 6.613-1.183 1.118-.265 2.55 2.237 5.077 2.504 2.526 4.52 4.504 5.7 3.384 1.694-1.603 3.37-2.295 6.995.65 3.628 2.944.5 5.88-1.14 7.434zm.302-6.81c-3.395-2.728-4.382-1.43-5.97.056-1.104 1.037-3.83-1.207-6.174-3.547-2.344-2.34-4.578-5.043-3.47-6.08 1.587-1.487 2.963-2.395.25-5.766-2.71-3.37-4.597-.844-6.135.595-1.774 1.66-.226 7.977 6.103 14.294 6.33 6.316 12.81 8.017 14.585 6.355 1.538-1.438 4.21-3.18.812-5.906zM8.247 150.27c.453 0 .82.354.82.792 0 .44-.367.794-.82.794-.454 0-.82-.355-.82-.794 0-.438.366-.793.82-.793zm1.505-2.59c.262-.147.597-.06.748.192l1.915 3.207c.15.252.062.575-.2.72-.262.148-.597.06-.748-.192L9.552 148.4c-.152-.252-.062-.575.2-.72zm3.284 0c.262-.147.597-.06.748.192l1.916 3.207c.15.252.06.575-.2.72-.263.148-.597.06-.748-.192l-1.916-3.207c-.15-.252-.062-.575.2-.72zm3.01 0c.263-.147.597-.06.748.192l1.916 3.207c.15.252.062.575-.2.72-.262.148-.597.06-.748-.192l-1.916-3.207c-.15-.252-.06-.575.2-.72zm3.285 0c.263-.147.597-.06.75.192l1.914 3.207c.15.252.062.575-.2.72-.262.148-.597.06-.748-.192L19.13 148.4c-.15-.252-.06-.575.2-.72z" fill="#206FAC"/></g></svg>