<svg width="32" height="232" viewBox="0 0 32 232" xmlns="http://www.w3.org/2000/svg"><title>art-culture</title><desc>Created with Sketch.</desc><g fill="none"><g fill="#3A434E"><path d="M16.97 11.145c-.002 0-.136.055-.4.055-.284 0-.46-.07-.702-.166-.296-.118-.663-.263-1.246-.263-.222 0-.425.09-.587.265-.522.552-.55 2.094-.516 2.994l-.187.093.454.89.47-.24c.178-.09.284-.276.274-.474-.063-1.065.03-2.21.195-2.527.326.015.533.098.77.192.28.11.596.236 1.072.236.5 0 .78-.127.832-.153l-.448-.892.014-.007M13.75 15.545l-.57-.11-.192.98.645.125.096.01.052-.004 1.115-.125-.113-.99-1.038.117"/><path d="M5.372 29.246H26.43V2.78H5.37v26.466zm-1.5-1.104l.068-.098c1.052-2.036 2.136-3.612 3.046-4.485-.074.22-.116.444-.116.67 0 .985.73 1.704 2.173 2.155.086.058.183.086.28.086h.014c.977.265 2.24.42 3.792.465-.41.465-.76.912-1.05 1.31H3.87v-.105zm8.973-22.148l.292-.01c2.412 0 3.944 1.117 4.822 3.516.78 2.14.873 4.954.946 7.216.054 1.603.1 2.986.36 3.905.216.765.603 1.568.9 2.124-1.17.126-2.25.51-3.226 1.04v-6.13c0-1.71 0-4.29-.573-6.49-.734-2.81-2.214-4.233-4.4-4.233-.564 0-1.05.063-1.467.165.55-.617 1.3-1.027 2.315-1.098l.03-.002zm1.215 19.96c-1.443-.004-2.68-.1-3.66-.275l.183-.1c.25-.117.358-.415.24-.664-.116-.25-.413-.357-.664-.24-.436.203-.767.485-.98.7-.847-.29-1.312-.68-1.312-1.148 0-1.215 2.356-3.02 3.842-3.874.17-.097.267-.284.25-.478l-.104-1.113.243.01c1.237 0 2.197-.61 3.052-1.266.22-.168.26-.48.09-.7-.168-.218-.482-.26-.7-.09-.826.635-1.557 1.06-2.442 1.06-1.457 0-3.01-1.92-3.01-5.474l.003-.212c.135-.037.31-.073.484-.073.282 0 .493.168.494.168l.655-.755c-.05-.043-.494-.41-1.148-.41-.153 0-.302.015-.438.04.07-.884.227-1.766.522-2.54.424-.293 1.144-.595 2.305-.595 1.694 0 2.816 1.14 3.43 3.485.543 2.076.543 4.58.543 6.238v6.746c-.695.476-1.325 1.01-1.883 1.558zm-5.82-11.82c.163.967.453 1.853.856 2.583.46.836 1.055 1.435 1.732 1.765l.11 1.175c-.477.29-1.408.894-2.26 1.653-.207-1.41-.552-4.288-.437-7.177zm5.096 14.113c1.534-1.93 4.247-4.554 7.664-4.554.788 0 1.45.388 1.867.713l.062.038v3.803h-9.596zM22.93 3.78v19.464c-.445-.257-1-.48-1.636-.535-.254-.44-.806-1.457-1.064-2.36-.227-.805-.27-2.13-.322-3.668-.076-2.333-.172-5.236-1.01-7.526-1.012-2.77-2.95-4.172-5.76-4.172l-.297.007-.046.004-.246.02h-.01c-1.282.135-2.354.71-3.19 1.714-.425.51-.77 1.113-1.05 1.78l-.047.08-.047.15c-1.7 4.364-.76 11.234-.448 13.15-.923.294-2.218 1.35-3.882 4.2V3.78H22.93zM29.17 10.928c0-1.36-.245-2.05-.483-2.718-.22-.615-.426-1.194-.426-2.384s.21-1.77.43-2.383c.237-.668.482-1.357.482-2.72 0-.23-.16-.423-.372-.48-.068-.034-.144-.056-.226-.056-1.654 0-2.492.22-3.304.432-.786.203-1.528.4-3.053.4s-2.27-.197-3.055-.4c-.81-.215-1.65-.434-3.306-.434-1.653 0-2.493.22-3.304.432-.787.204-1.53.4-3.053.4-1.526 0-2.268-.196-3.053-.4C5.633.404 4.793.185 3.14.185c-.25 0-.454.18-.493.42L2.63.722c0 1.362.248 2.05.487 2.72.218.613.426 1.194.426 2.383 0 1.19-.207 1.77-.425 2.385-.24.668-.484 1.358-.484 2.72 0 1.36.246 2.05.485 2.72.217.61.425 1.19.425 2.382 0 1.19-.207 1.77-.425 2.383-.24.667-.485 1.357-.485 2.72 0 1.36.246 2.05.485 2.717.218.615.426 1.194.426 2.384s-.207 1.77-.425 2.384c-.24.668-.482 1.358-.482 2.72 0 .274.225.498.502.498l.03-.003c1.638-.002 2.474-.22 3.28-.43.787-.208 1.53-.4 3.054-.4s2.267.192 3.053.4c.812.21 1.652.43 3.305.43 1.655 0 2.495-.22 3.306-.43.787-.208 1.528-.4 3.053-.4 1.528 0 2.27.192 3.055.4.812.21 1.65.43 3.305.43l.034-.003.064.006c.276 0 .5-.224.5-.5 0-1.36-.245-2.05-.483-2.717-.22-.612-.426-1.192-.426-2.382s.206-1.77.425-2.385c.238-.665.483-1.355.483-2.717 0-1.36-.246-2.05-.484-2.718-.22-.615-.426-1.195-.426-2.384 0-1.19.208-1.77.427-2.383.238-.666.483-1.356.483-2.72zm-9.457 19.077c-1.654 0-2.493.22-3.305.432-.786.206-1.528.4-3.053.4-1.524 0-2.266-.194-3.052-.4-.812-.212-1.652-.432-3.306-.432-1.654 0-2.494.22-3.306.432-.69.182-1.35.354-2.542.392.05-.86.226-1.357.412-1.876.235-.667.482-1.357.482-2.72 0-1.36-.246-2.05-.482-2.717-.22-.616-.427-1.195-.427-2.385 0-1.19.208-1.77.428-2.385.238-.667.485-1.356.485-2.717 0-1.36-.246-2.05-.482-2.72-.22-.612-.427-1.193-.427-2.382 0-1.19.208-1.77.428-2.384.236-.667.483-1.357.483-2.72 0-1.36-.246-2.05-.482-2.718-.19-.527-.368-1.03-.414-1.915 1.194.04 1.855.21 2.548.394.813.212 1.653.432 3.307.432s2.494-.22 3.305-.432c.785-.206 1.526-.4 3.05-.4 1.527 0 2.27.194 3.054.4.812.212 1.652.432 3.306.432 1.654 0 2.494-.22 3.306-.432.71-.186 1.387-.362 2.637-.394-.046.885-.225 1.39-.413 1.916-.238.668-.483 1.357-.483 2.72 0 1.36.246 2.05.484 2.718.22.613.428 1.194.428 2.383 0 1.19-.207 1.77-.426 2.385-.237.666-.482 1.356-.482 2.718 0 1.363.246 2.052.484 2.72.22.613.426 1.193.426 2.383s-.207 1.77-.426 2.385c-.238.666-.483 1.357-.483 2.718 0 1.362.246 2.052.484 2.72.186.52.36 1.015.41 1.875-1.248-.03-1.925-.205-2.635-.39-.814-.213-1.654-.433-3.308-.433z"/></g><g fill="#67737B"><path d="M16.97 51.145c-.002 0-.136.055-.4.055-.284 0-.46-.07-.702-.166-.296-.118-.663-.263-1.246-.263-.222 0-.425.09-.587.265-.522.552-.55 2.094-.516 2.994l-.187.093.454.89.47-.24c.178-.09.284-.276.274-.474-.063-1.065.03-2.21.195-2.527.326.015.533.098.77.192.28.11.596.236 1.072.236.5 0 .78-.127.832-.153l-.448-.892.014-.007m-3.216 4.397l-.57-.11-.192.98.645.125.096.01.052-.004 1.115-.125-.113-.99-1.038.117"/><path d="M5.372 69.246H26.43V42.78H5.37v26.466zm-1.5-41.104l.068-.098c1.052-2.036 2.136-3.612 3.046-4.485-.074.22-.116.444-.116.67 0 .985.73 1.704 2.173 2.155.086.058.183.086.28.086h.014c.977.265 2.24.42 3.792.465-.41.465-.76.912-1.05 1.31H3.87v-.105zm8.973-22.148l.292-.01c2.412 0 3.944 1.117 4.822 3.516.78 2.14.873 4.954.946 7.216.054 1.603.1 2.986.36 3.905.216.765.603 1.568.9 2.124-1.17.126-2.25.51-3.226 1.04v-6.13c0-1.71 0-4.29-.573-6.49-.734-2.81-2.214-4.233-4.4-4.233-.564 0-1.05.063-1.467.165.55-.617 1.3-1.027 2.315-1.098l.03-.002zm1.215 19.96c-1.443-.004-2.68-.1-3.66-.275l.183-.1c.25-.117.358-.415.24-.664-.116-.25-.413-.357-.664-.24-.436.203-.767.485-.98.7-.847-.29-1.312-.68-1.312-1.148 0-1.215 2.356-3.02 3.842-3.874.17-.097.267-.284.25-.478l-.104-1.113.243.01c1.237 0 2.197-.61 3.052-1.266.22-.168.26-.48.09-.7-.168-.218-.482-.26-.7-.09-.826.635-1.557 1.06-2.442 1.06-1.457 0-3.01-1.92-3.01-5.474l.003-.212c.135-.037.31-.073.484-.073.282 0 .493.168.494.168l.655-.755c-.05-.043-.494-.41-1.148-.41-.153 0-.302.015-.438.04.07-.884.227-1.766.522-2.54.424-.293 1.144-.595 2.305-.595 1.694 0 2.816 1.14 3.43 3.485.543 2.076.543 4.58.543 6.238v6.746c-.695.476-1.325 1.01-1.883 1.558zm-5.82-11.82c.163.967.453 1.853.856 2.583.46.836 1.055 1.435 1.732 1.765l.11 1.175c-.477.29-1.408.894-2.26 1.653-.207-1.41-.552-4.288-.437-7.177zm5.096 14.113c1.534-1.93 4.247-4.554 7.664-4.554.788 0 1.45.388 1.867.713l.062.038v3.803h-9.596zM22.93 3.78v19.464c-.445-.257-1-.48-1.636-.535-.254-.44-.806-1.457-1.064-2.36-.227-.805-.27-2.13-.322-3.668-.076-2.333-.172-5.236-1.01-7.526-1.012-2.77-2.95-4.172-5.76-4.172l-.297.007-.046.004-.246.02h-.01c-1.282.135-2.354.71-3.19 1.714-.425.51-.77 1.113-1.05 1.78l-.047.08-.047.15c-1.7 4.364-.76 11.234-.448 13.15-.923.294-2.218 1.35-3.882 4.2V3.78H22.93zm6.24 47.148c0-1.36-.245-2.05-.483-2.718-.22-.615-.426-1.194-.426-2.384s.21-1.77.43-2.383c.237-.668.482-1.357.482-2.72 0-.23-.16-.423-.372-.48-.068-.034-.144-.056-.226-.056-1.654 0-2.492.22-3.304.432-.786.203-1.528.4-3.053.4s-2.267-.197-3.052-.4c-.81-.216-1.65-.435-3.306-.435-1.654 0-2.494.22-3.305.432-.787.205-1.53.4-3.053.4-1.525 0-2.267-.195-3.052-.4-.812-.214-1.652-.433-3.306-.433-.25 0-.454.18-.493.42l-.016.117c0 1.363.246 2.05.485 2.72.217.614.425 1.195.425 2.384 0 1.19-.207 1.77-.425 2.385-.24.666-.485 1.356-.485 2.717 0 1.36.246 2.05.485 2.72.218.612.426 1.192.426 2.383 0 1.19-.207 1.77-.425 2.384-.24.667-.482 1.357-.482 2.72 0 1.36.246 2.05.485 2.717.218.617.426 1.196.426 2.386s-.208 1.77-.426 2.384c-.24.667-.484 1.357-.484 2.72 0 .273.224.497.5.497l.033-.003c1.637-.002 2.473-.22 3.28-.43.786-.208 1.528-.4 3.053-.4s2.267.192 3.053.4c.81.21 1.65.43 3.303.43 1.655 0 2.495-.22 3.306-.43.786-.208 1.527-.4 3.052-.4 1.526 0 2.268.192 3.053.4.812.21 1.65.43 3.305.43l.036-.003.064.008c.276 0 .5-.224.5-.5 0-1.36-.245-2.05-.483-2.717-.22-.613-.426-1.193-.426-2.383s.21-1.77.43-2.385c.237-.664.482-1.354.482-2.716 0-1.36-.244-2.05-.482-2.718-.22-.615-.426-1.195-.426-2.384 0-1.19.208-1.77.427-2.383.238-.667.483-1.357.483-2.72zM17.213-9.995c-1.654 0-2.493.22-3.305.432-.786.206-1.528.4-3.053.4-1.524 0-2.266-.194-3.052-.4-.812-.212-1.652-.432-3.306-.432-1.654 0-2.494.22-3.306.432-.69.182-1.35.354-2.542.392.05-.86.226-1.357.412-1.876.235-.667.482-1.357.482-2.72 0-1.36-.246-2.05-.482-2.717-.22-.616-.427-1.195-.427-2.385 0-1.19.208-1.77.428-2.385.238-.667.485-1.356.485-2.717 0-1.36-.246-2.05-.482-2.72-.22-.612-.427-1.193-.427-2.382 0-1.19.208-1.77.428-2.384.236-.667.483-1.357.483-2.72 0-1.36-.246-2.05-.482-2.718-.19-.527-.368-1.03-.414-1.915 1.194.04 1.855.21 2.548.394.813.212 1.653.432 3.307.432s2.494-.22 3.305-.432c.785-.206 1.526-.4 3.05-.4 1.527 0 2.27.194 3.054.4.812.212 1.652.432 3.306.432 1.654 0 2.494-.22 3.306-.432.71-.186 1.387-.362 2.637-.394-.046.885-.225 1.39-.413 1.916-.238.668-.483 1.357-.483 2.72 0 1.36.246 2.05.484 2.718.22.613.428 1.194.428 2.383 0 1.19-.207 1.77-.426 2.385-.237.666-.482 1.356-.482 2.718 0 1.363.246 2.052.484 2.72.22.613.426 1.193.426 2.383s-.207 1.77-.426 2.385c-.238.666-.483 1.357-.483 2.718 0 1.362.246 2.052.484 2.72.186.52.36 1.015.41 1.875-1.248-.03-1.925-.205-2.635-.39-.814-.213-1.654-.433-3.308-.433z"/></g><g fill="#fff"><path d="M16.97 91.145c-.002 0-.136.055-.4.055-.284 0-.46-.07-.702-.166-.296-.118-.663-.263-1.246-.263-.222 0-.425.09-.587.265-.522.552-.55 2.094-.516 2.994l-.187.093.454.89.47-.24c.178-.09.284-.276.274-.474-.063-1.065.03-2.21.195-2.527.326.015.533.098.77.192.28.11.596.236 1.072.236.5 0 .78-.127.832-.153l-.448-.892.014-.007m-3.216 4.397l-.57-.11-.192.98.645.125.096.01.052-.004 1.115-.125-.113-.99-1.038.117"/><path d="M5.372 109.246H26.43V82.78H5.37v26.466zm-1.5-81.104l.068-.098c1.052-2.036 2.136-3.612 3.046-4.485-.074.22-.116.444-.116.67 0 .985.73 1.704 2.173 2.155.086.058.183.086.28.086h.014c.977.265 2.24.42 3.792.465-.41.465-.76.912-1.05 1.31H3.87v-.105zm8.973-22.148l.292-.01c2.412 0 3.944 1.117 4.822 3.516.78 2.14.873 4.954.946 7.216.054 1.603.1 2.986.36 3.905.216.765.603 1.568.9 2.124-1.17.126-2.25.51-3.226 1.04v-6.13c0-1.71 0-4.29-.573-6.49-.734-2.81-2.214-4.233-4.4-4.233-.564 0-1.05.063-1.467.165.55-.617 1.3-1.027 2.315-1.098l.03-.002zm1.215 19.96c-1.443-.004-2.68-.1-3.66-.275l.183-.1c.25-.117.358-.415.24-.664-.116-.25-.413-.357-.664-.24-.436.203-.767.485-.98.7-.847-.29-1.312-.68-1.312-1.148 0-1.215 2.356-3.02 3.842-3.874.17-.097.267-.284.25-.478l-.104-1.113.243.01c1.237 0 2.197-.61 3.052-1.266.22-.168.26-.48.09-.7-.168-.218-.482-.26-.7-.09-.826.635-1.557 1.06-2.442 1.06-1.457 0-3.01-1.92-3.01-5.474l.003-.212c.135-.037.31-.073.484-.073.282 0 .493.168.494.168l.655-.755c-.05-.043-.494-.41-1.148-.41-.153 0-.302.015-.438.04.07-.884.227-1.766.522-2.54.424-.293 1.144-.595 2.305-.595 1.694 0 2.816 1.14 3.43 3.485.543 2.076.543 4.58.543 6.238v6.746c-.695.476-1.325 1.01-1.883 1.558zm-5.82-11.82c.163.967.453 1.853.856 2.583.46.836 1.055 1.435 1.732 1.765l.11 1.175c-.477.29-1.408.894-2.26 1.653-.207-1.41-.552-4.288-.437-7.177zm5.096 14.113c1.534-1.93 4.247-4.554 7.664-4.554.788 0 1.45.388 1.867.713l.062.038v3.803h-9.596zM22.93 3.78v19.464c-.445-.257-1-.48-1.636-.535-.254-.44-.806-1.457-1.064-2.36-.227-.805-.27-2.13-.322-3.668-.076-2.333-.172-5.236-1.01-7.526-1.012-2.77-2.95-4.172-5.76-4.172l-.297.007-.046.004-.246.02h-.01c-1.282.135-2.354.71-3.19 1.714-.425.51-.77 1.113-1.05 1.78l-.047.08-.047.15c-1.7 4.364-.76 11.234-.448 13.15-.923.294-2.218 1.35-3.882 4.2V3.78H22.93zm6.24 87.148c0-1.36-.245-2.05-.483-2.718-.22-.615-.426-1.194-.426-2.384s.21-1.77.43-2.383c.237-.668.482-1.357.482-2.72 0-.23-.16-.423-.372-.48-.068-.034-.144-.056-.226-.056-1.654 0-2.492.22-3.304.432-.786.203-1.528.4-3.053.4s-2.267-.197-3.052-.4c-.81-.216-1.65-.435-3.306-.435-1.654 0-2.494.22-3.305.432-.787.205-1.53.4-3.053.4-1.525 0-2.267-.195-3.052-.4-.812-.214-1.652-.433-3.306-.433-.25 0-.454.18-.493.42l-.016.117c0 1.363.246 2.05.485 2.72.217.614.425 1.195.425 2.384 0 1.19-.207 1.77-.425 2.385-.24.666-.485 1.356-.485 2.717 0 1.36.246 2.05.485 2.72.218.612.426 1.192.426 2.383 0 1.19-.207 1.77-.425 2.384-.24.667-.482 1.357-.482 2.72 0 1.36.246 2.05.485 2.717.218.617.426 1.196.426 2.386s-.208 1.77-.426 2.384c-.24.667-.484 1.357-.484 2.72 0 .273.224.497.5.497l.033-.003c1.637-.002 2.473-.22 3.28-.43.786-.208 1.528-.4 3.053-.4s2.267.192 3.053.4c.81.21 1.65.43 3.303.43 1.655 0 2.495-.22 3.306-.43.786-.208 1.527-.4 3.052-.4 1.526 0 2.268.192 3.053.4.812.21 1.65.43 3.305.43l.036-.003.064.008c.276 0 .5-.224.5-.5 0-1.36-.245-2.05-.483-2.717-.22-.613-.426-1.193-.426-2.383s.21-1.77.43-2.385c.237-.664.482-1.354.482-2.716 0-1.36-.244-2.05-.482-2.718-.22-.615-.426-1.195-.426-2.384 0-1.19.208-1.77.427-2.383.238-.667.483-1.357.483-2.72zm-9.457-60.923c-1.654 0-2.493.22-3.305.432-.786.206-1.528.4-3.053.4-1.524 0-2.266-.194-3.052-.4-.812-.212-1.652-.432-3.306-.432-1.654 0-2.494.22-3.306.432-.69.182-1.35.354-2.542.392.05-.86.226-1.357.412-1.876.235-.667.482-1.357.482-2.72 0-1.36-.246-2.05-.482-2.717-.22-.616-.427-1.195-.427-2.385 0-1.19.208-1.77.428-2.385.238-.667.485-1.356.485-2.717 0-1.36-.246-2.05-.482-2.72-.22-.612-.427-1.193-.427-2.382 0-1.19.208-1.77.428-2.384.236-.667.483-1.357.483-2.72 0-1.36-.246-2.05-.482-2.718-.19-.527-.368-1.03-.414-1.915 1.194.04 1.855.21 2.548.394.813.212 1.653.432 3.307.432s2.494-.22 3.305-.432c.785-.206 1.526-.4 3.05-.4 1.527 0 2.27.194 3.054.4.812.212 1.652.432 3.306.432 1.654 0 2.494-.22 3.306-.432.71-.186 1.387-.362 2.637-.394-.046.885-.225 1.39-.413 1.916-.238.668-.483 1.357-.483 2.72 0 1.36.246 2.05.484 2.718.22.613.428 1.194.428 2.383 0 1.19-.207 1.77-.426 2.385-.237.666-.482 1.356-.482 2.718 0 1.363.246 2.052.484 2.72.22.613.426 1.193.426 2.383s-.207 1.77-.426 2.385c-.238.666-.483 1.357-.483 2.718 0 1.362.246 2.052.484 2.72.186.52.36 1.015.41 1.875-1.248-.03-1.925-.205-2.635-.39-.814-.213-1.654-.433-3.308-.433z"/></g><g fill="#206FAC"><path d="M16.97 131.145c-.002 0-.136.055-.4.055-.284 0-.46-.07-.702-.166-.296-.118-.663-.263-1.246-.263-.222 0-.425.09-.587.265-.522.552-.55 2.094-.516 2.994l-.187.093.454.89.47-.24c.178-.09.284-.276.274-.474-.063-1.065.03-2.21.195-2.527.326.015.533.098.77.192.28.11.596.236 1.072.236.5 0 .78-.127.832-.153l-.448-.892.014-.007m-3.216 4.397l-.57-.11-.192.98.645.125.096.01.052-.004 1.115-.125-.113-.99-1.038.117"/><path d="M5.372 149.246H26.43V122.78H5.37v26.466zm-1.5-121.104l.068-.098c1.052-2.036 2.136-3.612 3.046-4.485-.074.22-.116.444-.116.67 0 .985.73 1.704 2.173 2.155.086.058.183.086.28.086h.014c.977.265 2.24.42 3.792.465-.41.465-.76.912-1.05 1.31H3.87v-.105zm8.973-22.148l.292-.01c2.412 0 3.944 1.117 4.822 3.516.78 2.14.873 4.954.946 7.216.054 1.603.1 2.986.36 3.905.216.765.603 1.568.9 2.124-1.17.126-2.25.51-3.226 1.04v-6.13c0-1.71 0-4.29-.573-6.49-.734-2.81-2.214-4.233-4.4-4.233-.564 0-1.05.063-1.467.165.55-.617 1.3-1.027 2.315-1.098l.03-.002zm1.215 19.96c-1.443-.004-2.68-.1-3.66-.275l.183-.1c.25-.117.358-.415.24-.664-.116-.25-.413-.357-.664-.24-.436.203-.767.485-.98.7-.847-.29-1.312-.68-1.312-1.148 0-1.215 2.356-3.02 3.842-3.874.17-.097.267-.284.25-.478l-.104-1.113.243.01c1.237 0 2.197-.61 3.052-1.266.22-.168.26-.48.09-.7-.168-.218-.482-.26-.7-.09-.826.635-1.557 1.06-2.442 1.06-1.457 0-3.01-1.92-3.01-5.474l.003-.212c.135-.037.31-.073.484-.073.282 0 .493.168.494.168l.655-.755c-.05-.043-.494-.41-1.148-.41-.153 0-.302.015-.438.04.07-.884.227-1.766.522-2.54.424-.293 1.144-.595 2.305-.595 1.694 0 2.816 1.14 3.43 3.485.543 2.076.543 4.58.543 6.238v6.746c-.695.476-1.325 1.01-1.883 1.558zm-5.82-11.82c.163.967.453 1.853.856 2.583.46.836 1.055 1.435 1.732 1.765l.11 1.175c-.477.29-1.408.894-2.26 1.653-.207-1.41-.552-4.288-.437-7.177zm5.096 14.113c1.534-1.93 4.247-4.554 7.664-4.554.788 0 1.45.388 1.867.713l.062.038v3.803h-9.596zM22.93 3.78v19.464c-.445-.257-1-.48-1.636-.535-.254-.44-.806-1.457-1.064-2.36-.227-.805-.27-2.13-.322-3.668-.076-2.333-.172-5.236-1.01-7.526-1.012-2.77-2.95-4.172-5.76-4.172l-.297.007-.046.004-.246.02h-.01c-1.282.135-2.354.71-3.19 1.714-.425.51-.77 1.113-1.05 1.78l-.047.08-.047.15c-1.7 4.364-.76 11.234-.448 13.15-.923.294-2.218 1.35-3.882 4.2V3.78H22.93zm6.24 127.148c0-1.36-.245-2.05-.483-2.718-.22-.615-.426-1.194-.426-2.384s.21-1.77.43-2.383c.237-.668.482-1.357.482-2.72 0-.23-.16-.423-.372-.48-.068-.034-.144-.056-.226-.056-1.654 0-2.492.22-3.304.432-.786.203-1.528.4-3.053.4s-2.267-.197-3.052-.4c-.81-.216-1.65-.435-3.306-.435-1.654 0-2.494.22-3.305.432-.787.205-1.53.4-3.053.4-1.525 0-2.267-.195-3.052-.4-.812-.214-1.652-.433-3.306-.433-.25 0-.454.18-.493.42l-.016.117c0 1.363.246 2.05.485 2.72.217.614.425 1.195.425 2.384 0 1.19-.207 1.77-.425 2.385-.24.666-.485 1.356-.485 2.717 0 1.36.246 2.05.485 2.72.218.612.426 1.192.426 2.383 0 1.19-.207 1.77-.425 2.384-.24.667-.482 1.357-.482 2.72 0 1.36.246 2.05.485 2.717.218.617.426 1.196.426 2.386s-.208 1.77-.426 2.384c-.24.667-.484 1.357-.484 2.72 0 .273.224.497.5.497l.033-.003c1.637-.002 2.473-.22 3.28-.43.786-.208 1.528-.4 3.053-.4s2.267.192 3.053.4c.81.21 1.65.43 3.303.43 1.655 0 2.495-.22 3.306-.43.786-.208 1.527-.4 3.052-.4 1.526 0 2.268.192 3.053.4.812.21 1.65.43 3.305.43l.036-.003.064.008c.276 0 .5-.224.5-.5 0-1.36-.245-2.05-.483-2.717-.22-.613-.426-1.193-.426-2.383s.21-1.77.43-2.385c.237-.664.482-1.354.482-2.716 0-1.36-.244-2.05-.482-2.718-.22-.615-.426-1.195-.426-2.384 0-1.19.208-1.77.427-2.383.238-.667.483-1.357.483-2.72zM17.213-89.995c-1.654 0-2.493.22-3.305.432-.786.206-1.528.4-3.053.4-1.524 0-2.266-.194-3.052-.4-.812-.212-1.652-.432-3.306-.432-1.654 0-2.494.22-3.306.432-.69.182-1.35.354-2.542.392.05-.86.226-1.357.412-1.876.235-.667.482-1.357.482-2.72 0-1.36-.246-2.05-.482-2.717-.22-.616-.427-1.195-.427-2.385 0-1.19.208-1.77.428-2.385.238-.667.485-1.356.485-2.717 0-1.36-.246-2.05-.482-2.72-.22-.612-.427-1.193-.427-2.382 0-1.19.208-1.77.428-2.384.236-.667.483-1.357.483-2.72 0-1.36-.246-2.05-.482-2.718-.19-.527-.368-1.03-.414-1.915 1.194.04 1.855.21 2.548.394.813.212 1.653.432 3.307.432s2.494-.22 3.305-.432c.785-.206 1.526-.4 3.05-.4 1.527 0 2.27.194 3.054.4.812.212 1.652.432 3.306.432 1.654 0 2.494-.22 3.306-.432.71-.186 1.387-.362 2.637-.394-.046.885-.225 1.39-.413 1.916-.238.668-.483 1.357-.483 2.72 0 1.36.246 2.05.484 2.718.22.613.428 1.194.428 2.383 0 1.19-.207 1.77-.426 2.385-.237.666-.482 1.356-.482 2.718 0 1.363.246 2.052.484 2.72.22.613.426 1.193.426 2.383s-.207 1.77-.426 2.385c-.238.666-.483 1.357-.483 2.718 0 1.362.246 2.052.484 2.72.186.52.36 1.015.41 1.875-1.248-.03-1.925-.205-2.635-.39-.814-.213-1.654-.433-3.308-.433z"/></g></g></svg>