<svg width="32" height="232" viewBox="0 0 32 232" xmlns="http://www.w3.org/2000/svg"><desc>Created with Sketch.</desc><g fill="none"><path d="M15.917 11.617c1.413 0 2.56-1.146 2.56-2.56 0-1.412-1.147-2.557-2.56-2.557-1.414 0-2.56 1.145-2.56 2.558 0 1.413 1.146 2.56 2.56 2.56zm-.628 11.956c-.457-.42-.908-.845-1.346-1.282-.456-.453-.46-.763-.053-1.25.09-.107.183-.21.258-.323.3-.455.197-.96-.254-1.26-.343-.228-.705-.25-1.044-.013-.56.39-1.018.883-1.33 1.495-.166.32-.178.665-.036 1 .086.2.183.404.315.575.65.84 1.35 1.636 2.194 2.288.162.125.338.244.526.32.625.255 1.115-.08 1.12-.8.02-.276-.113-.53-.35-.75zm3.744-4.11c-.42-.328-.906-.29-1.275.065-.366.35-.393.82-.067 1.27.096.133.214.25.313.383.253.34.252.607-.013.937-.112.14-.243.262-.372.387-.364.354-.73.71-1.102 1.057-.227.21-.34.463-.34.75-.074.66.578 1.002 1.126.784.225-.09.442-.234.618-.4.58-.548 1.16-1.1 1.7-1.685.26-.28.453-.623.64-.957.204-.358.197-.742.003-1.108-.306-.58-.716-1.08-1.232-1.482zm3.146-3.322c-.09-.133-.202-.26-.323-.37-.89-.82-1.768-1.656-2.682-2.45-.76-.66-1.633-1.068-2.678-.99-.233.016-.468 0-.702 0v.003c-.248 0-.497.014-.744-.003-1.03-.07-1.896.346-2.63 1.003-.87.78-1.682 1.626-2.504 2.457-.16.16-.292.374-.37.588-.172.48.16.947.668.938.21-.004.438-.074.624-.176.225-.124.413-.315.62-.475.315-.244.614-.513.95-.723.483-.3.782-.153.886.397.01.052.014.107.024.16.126.72.448 1 1.17 1.02.138.004.276 0 .414-.004.496-.013.992-.035 1.487-.035.315 0 .63.05.947.048.638-.004.998-.32 1.105-.945.023-.135.034-.274.066-.407.093-.392.34-.514.71-.347.125.056.245.13.35.216.332.268.645.56.985.816.24.18.497.35.773.458.327.127.69-.023.88-.288.178-.25.177-.597-.022-.89z" fill="#3A434E"/><path d="M15.917 51.617c1.413 0 2.56-1.146 2.56-2.56 0-1.412-1.147-2.557-2.56-2.557-1.414 0-2.56 1.145-2.56 2.558 0 1.413 1.146 2.56 2.56 2.56zm-.628 11.956c-.457-.42-.908-.845-1.346-1.282-.456-.453-.46-.763-.053-1.25.09-.107.183-.21.258-.323.3-.455.197-.96-.254-1.26-.343-.228-.705-.25-1.044-.013-.56.39-1.018.883-1.33 1.495-.166.32-.178.665-.036 1 .086.2.183.404.315.575.65.84 1.35 1.636 2.194 2.288.162.125.338.244.526.32.625.255 1.115-.08 1.12-.8.02-.276-.113-.53-.35-.75zm3.744-4.11c-.42-.328-.906-.29-1.275.065-.366.35-.393.82-.067 1.27.096.133.214.25.313.383.253.34.252.607-.013.937-.112.14-.243.262-.372.387-.364.354-.73.71-1.102 1.057-.227.21-.34.463-.34.75-.074.66.578 1.002 1.126.784.225-.09.442-.234.618-.4.58-.548 1.16-1.1 1.7-1.685.26-.28.453-.623.64-.957.204-.358.197-.742.003-1.108-.306-.58-.716-1.08-1.232-1.482zm3.146-3.322c-.09-.133-.202-.26-.323-.37-.89-.82-1.768-1.656-2.682-2.45-.76-.66-1.633-1.068-2.678-.99-.233.016-.468 0-.702 0v.003c-.248 0-.497.014-.744-.003-1.03-.07-1.896.346-2.63 1.003-.87.78-1.682 1.626-2.504 2.457-.16.16-.292.374-.37.588-.172.48.16.947.668.938.21-.004.438-.074.624-.176.225-.124.413-.315.62-.475.315-.244.614-.513.95-.723.483-.3.782-.153.886.397.01.052.014.107.024.16.126.72.448 1 1.17 1.02.138.004.276 0 .414-.004.496-.013.992-.035 1.487-.035.315 0 .63.05.947.048.638-.004.998-.32 1.105-.945.023-.135.034-.274.066-.407.093-.392.34-.514.71-.347.125.056.245.13.35.216.332.268.645.56.985.816.24.18.497.35.773.458.327.127.69-.023.88-.288.178-.25.177-.597-.022-.89z" fill="#67737B"/><path d="M15.917 91.617c1.413 0 2.56-1.146 2.56-2.56 0-1.412-1.147-2.557-2.56-2.557-1.414 0-2.56 1.145-2.56 2.558 0 1.413 1.146 2.56 2.56 2.56zm-.628 11.956c-.457-.42-.908-.845-1.346-1.282-.456-.453-.46-.763-.053-1.25.09-.107.183-.21.258-.323.3-.455.197-.96-.254-1.26-.343-.228-.705-.25-1.044-.013-.56.39-1.018.883-1.33 1.495-.166.32-.178.665-.036 1 .086.2.183.404.315.575.65.84 1.35 1.636 2.194 2.288.162.125.338.244.526.32.625.255 1.115-.08 1.12-.8.02-.276-.113-.53-.35-.75zm3.744-4.11c-.42-.328-.906-.29-1.275.065-.366.35-.393.82-.067 1.27.096.133.214.25.313.383.253.34.252.607-.013.937-.112.14-.243.262-.372.387-.364.354-.73.71-1.102 1.057-.227.21-.34.463-.34.75-.074.66.578 1.002 1.126.784.225-.09.442-.234.618-.4.58-.548 1.16-1.1 1.7-1.685.26-.28.453-.623.64-.957.204-.358.197-.742.003-1.108-.306-.58-.716-1.08-1.232-1.482zm3.146-3.322c-.09-.133-.202-.26-.323-.37-.89-.82-1.768-1.656-2.682-2.45-.76-.66-1.633-1.068-2.678-.99-.233.016-.468 0-.702 0v.003c-.248 0-.497.014-.744-.003-1.03-.07-1.896.346-2.63 1.003-.87.78-1.682 1.626-2.504 2.457-.16.16-.292.374-.37.588-.172.48.16.947.668.938.21-.004.438-.074.624-.176.225-.124.413-.315.62-.475.315-.244.614-.513.95-.723.483-.3.782-.153.886.397.01.052.014.107.024.16.126.72.448 1 1.17 1.02.138.004.276 0 .414-.004.496-.013.992-.035 1.487-.035.315 0 .63.05.947.048.638-.004.998-.32 1.105-.945.023-.135.034-.274.066-.407.093-.392.34-.514.71-.347.125.056.245.13.35.216.332.268.645.56.985.816.24.18.497.35.773.458.327.127.69-.023.88-.288.178-.25.177-.597-.022-.89z" fill="#fff"/><path d="M15.917 131.617c1.413 0 2.56-1.146 2.56-2.56 0-1.412-1.147-2.557-2.56-2.557-1.414 0-2.56 1.145-2.56 2.558 0 1.413 1.146 2.56 2.56 2.56zm-.628 11.956c-.457-.42-.908-.845-1.346-1.282-.456-.453-.46-.763-.053-1.25.09-.107.183-.21.258-.323.3-.455.197-.96-.254-1.26-.343-.228-.705-.25-1.044-.013-.56.39-1.018.883-1.33 1.495-.166.32-.178.665-.036 1 .086.2.183.404.315.575.65.84 1.35 1.636 2.194 2.288.162.125.338.244.526.32.625.255 1.115-.08 1.12-.8.02-.276-.113-.53-.35-.75zm3.744-4.11c-.42-.328-.906-.29-1.275.065-.366.35-.393.82-.067 1.27.096.133.214.25.313.383.253.34.252.607-.013.937-.112.14-.243.262-.372.387-.364.354-.73.71-1.102 1.057-.227.21-.34.463-.34.75-.074.66.578 1.002 1.126.784.225-.09.442-.234.618-.4.58-.548 1.16-1.1 1.7-1.685.26-.28.453-.623.64-.957.204-.358.197-.742.003-1.108-.306-.58-.716-1.08-1.232-1.482zm3.146-3.322c-.09-.133-.202-.26-.323-.37-.89-.82-1.768-1.656-2.682-2.45-.76-.66-1.633-1.068-2.678-.99-.233.016-.468 0-.702 0v.003c-.248 0-.497.014-.744-.003-1.03-.07-1.896.346-2.63 1.003-.87.78-1.682 1.626-2.504 2.457-.16.16-.292.374-.37.588-.172.48.16.947.668.938.21-.004.438-.074.624-.176.225-.124.413-.315.62-.475.315-.244.614-.513.95-.723.483-.3.782-.153.886.397.01.052.014.107.024.16.126.72.448 1 1.17 1.02.138.004.276 0 .414-.004.496-.013.992-.035 1.487-.035.315 0 .63.05.947.048.638-.004.998-.32 1.105-.945.023-.135.034-.274.066-.407.093-.392.34-.514.71-.347.125.056.245.13.35.216.332.268.645.56.985.816.24.18.497.35.773.458.327.127.69-.023.88-.288.178-.25.177-.597-.022-.89z" fill="#206FAC"/></g></svg>