<svg width="32" height="232" viewBox="0 0 32 232" xmlns="http://www.w3.org/2000/svg"><desc>Created with Sketch.</desc><g fill="none"><path d="M15.917 11.617c1.413 0 2.56-1.146 2.56-2.56 0-1.412-1.147-2.557-2.56-2.557-1.414 0-2.56 1.145-2.56 2.558 0 1.413 1.146 2.56 2.56 2.56zm-.628 11.956c-.456-.42-.907-.845-1.345-1.282-.456-.454-.46-.764-.053-1.252.088-.106.182-.208.257-.322.3-.455.197-.96-.254-1.26-.343-.228-.705-.25-1.044-.013-.56.39-1.018.883-1.33 1.495-.166.322-.178.666-.036 1 .086.2.183.405.315.576.65.84 1.35 1.636 2.195 2.288.162.125.338.244.526.32.625.255 1.115-.08 1.12-.8.02-.276-.113-.53-.35-.75zm3.745-4.11c-.42-.328-.906-.29-1.275.065-.365.35-.392.82-.066 1.27.096.133.214.25.313.383.253.338.252.606-.013.936-.112.14-.243.262-.372.387-.365.354-.73.71-1.103 1.057-.227.21-.34.462-.34.748-.074.66.578 1.003 1.126.785.225-.09.442-.234.618-.4.58-.548 1.16-1.1 1.7-1.685.26-.278.453-.622.64-.956.204-.358.197-.742.003-1.108-.306-.58-.716-1.08-1.232-1.482zm3.146-3.322c-.09-.134-.202-.26-.323-.372-.89-.82-1.768-1.655-2.682-2.45-.76-.66-1.633-1.067-2.678-.99-.233.017-.468.002-.702.002v.002c-.248 0-.497.014-.744-.003-1.03-.07-1.897.346-2.63 1.003-.87.78-1.683 1.626-2.505 2.457-.16.16-.292.374-.37.588-.172.48.16.947.668.938.21-.004.438-.074.624-.176.225-.124.413-.315.62-.475.315-.244.614-.513.95-.723.483-.3.782-.153.886.397.01.053.014.108.024.162.126.718.448 1 1.17 1.02.138.003.276-.002.414-.005.496-.013.992-.035 1.487-.035.316 0 .632.048.948.047.638-.004.998-.32 1.105-.945.023-.135.034-.274.066-.407.093-.392.34-.514.71-.347.125.057.245.13.35.217.332.268.645.56.985.816.24.18.497.35.773.458.327.127.69-.023.88-.288.178-.25.177-.597-.022-.89z" fill="#3A434E"/><path d="M15.917 51.617c1.413 0 2.56-1.146 2.56-2.56 0-1.412-1.147-2.557-2.56-2.557-1.414 0-2.56 1.145-2.56 2.558 0 1.413 1.146 2.56 2.56 2.56zm-.628 11.956c-.456-.42-.907-.845-1.345-1.282-.456-.454-.46-.764-.053-1.252.088-.106.182-.208.257-.322.3-.455.197-.96-.254-1.26-.343-.228-.705-.25-1.044-.013-.56.39-1.018.883-1.33 1.495-.166.322-.178.666-.036 1 .086.2.183.405.315.576.65.84 1.35 1.636 2.195 2.288.162.125.338.244.526.32.625.255 1.115-.08 1.12-.8.02-.276-.113-.53-.35-.75zm3.745-4.11c-.42-.328-.906-.29-1.275.065-.365.35-.392.82-.066 1.27.096.133.214.25.313.383.253.338.252.606-.013.936-.112.14-.243.262-.372.387-.365.354-.73.71-1.103 1.057-.227.21-.34.462-.34.748-.074.66.578 1.003 1.126.785.225-.09.442-.234.618-.4.58-.548 1.16-1.1 1.7-1.685.26-.278.453-.622.64-.956.204-.358.197-.742.003-1.108-.306-.58-.716-1.08-1.232-1.482zm3.146-3.322c-.09-.134-.202-.26-.323-.372-.89-.82-1.768-1.655-2.682-2.45-.76-.66-1.633-1.067-2.678-.99-.233.017-.468.002-.702.002v.002c-.248 0-.497.014-.744-.003-1.03-.07-1.897.346-2.63 1.003-.87.78-1.683 1.626-2.505 2.457-.16.16-.292.374-.37.588-.172.48.16.947.668.938.21-.004.438-.074.624-.176.225-.124.413-.315.62-.475.315-.244.614-.513.95-.723.483-.3.782-.153.886.397.01.053.014.108.024.162.126.718.448 1 1.17 1.02.138.003.276-.002.414-.005.496-.013.992-.035 1.487-.035.316 0 .632.048.948.047.638-.004.998-.32 1.105-.945.023-.135.034-.274.066-.407.093-.392.34-.514.71-.347.125.057.245.13.35.217.332.268.645.56.985.816.24.18.497.35.773.458.327.127.69-.023.88-.288.178-.25.177-.597-.022-.89z" fill="#67737B"/><path d="M15.917 91.617c1.413 0 2.56-1.146 2.56-2.56 0-1.412-1.147-2.557-2.56-2.557-1.414 0-2.56 1.145-2.56 2.558 0 1.413 1.146 2.56 2.56 2.56zm-.628 11.956c-.456-.42-.907-.845-1.345-1.282-.456-.454-.46-.764-.053-1.252.088-.106.182-.208.257-.322.3-.455.197-.96-.254-1.26-.343-.228-.705-.25-1.044-.013-.56.39-1.018.883-1.33 1.495-.166.322-.178.666-.036 1 .086.2.183.405.315.576.65.84 1.35 1.636 2.195 2.288.162.125.338.244.526.32.625.255 1.115-.08 1.12-.8.02-.276-.113-.53-.35-.75zm3.745-4.11c-.42-.328-.906-.29-1.275.065-.365.35-.392.82-.066 1.27.096.133.214.25.313.383.253.338.252.606-.013.936-.112.14-.243.262-.372.387-.365.354-.73.71-1.103 1.057-.227.21-.34.462-.34.748-.074.66.578 1.003 1.126.785.225-.09.442-.234.618-.4.58-.548 1.16-1.1 1.7-1.685.26-.278.453-.622.64-.956.204-.358.197-.742.003-1.108-.306-.58-.716-1.08-1.232-1.482zm3.146-3.322c-.09-.134-.202-.26-.323-.372-.89-.82-1.768-1.655-2.682-2.45-.76-.66-1.633-1.067-2.678-.99-.233.017-.468.002-.702.002v.002c-.248 0-.497.014-.744-.003-1.03-.07-1.897.346-2.63 1.003-.87.78-1.683 1.626-2.505 2.457-.16.16-.292.374-.37.588-.172.48.16.947.668.938.21-.004.438-.074.624-.176.225-.124.413-.315.62-.475.315-.244.614-.513.95-.723.483-.3.782-.153.886.397.01.053.014.108.024.162.126.718.448 1 1.17 1.02.138.003.276-.002.414-.005.496-.013.992-.035 1.487-.035.316 0 .632.048.948.047.638-.004.998-.32 1.105-.945.023-.135.034-.274.066-.407.093-.392.34-.514.71-.347.125.057.245.13.35.217.332.268.645.56.985.816.24.18.497.35.773.458.327.127.69-.023.88-.288.178-.25.177-.597-.022-.89z" fill="#fff"/><path d="M15.917 131.617c1.413 0 2.56-1.146 2.56-2.56 0-1.412-1.147-2.557-2.56-2.557-1.414 0-2.56 1.145-2.56 2.558 0 1.413 1.146 2.56 2.56 2.56zm-.628 11.956c-.456-.42-.907-.845-1.345-1.282-.456-.454-.46-.764-.053-1.252.088-.106.182-.208.257-.322.3-.455.197-.96-.254-1.26-.343-.228-.705-.25-1.044-.013-.56.39-1.018.883-1.33 1.495-.166.322-.178.666-.036 1 .086.2.183.405.315.576.65.84 1.35 1.636 2.195 2.288.162.125.338.244.526.32.625.255 1.115-.08 1.12-.8.02-.276-.113-.53-.35-.75zm3.745-4.11c-.42-.328-.906-.29-1.275.065-.365.35-.392.82-.066 1.27.096.133.214.25.313.383.253.338.252.606-.013.936-.112.14-.243.262-.372.387-.365.354-.73.71-1.103 1.057-.227.21-.34.462-.34.748-.074.66.578 1.003 1.126.785.225-.09.442-.234.618-.4.58-.548 1.16-1.1 1.7-1.685.26-.278.453-.622.64-.956.204-.358.197-.742.003-1.108-.306-.58-.716-1.08-1.232-1.482zm3.146-3.322c-.09-.134-.202-.26-.323-.372-.89-.82-1.768-1.655-2.682-2.45-.76-.66-1.633-1.067-2.678-.99-.233.017-.468.002-.702.002v.002c-.248 0-.497.014-.744-.003-1.03-.07-1.897.346-2.63 1.003-.87.78-1.683 1.626-2.505 2.457-.16.16-.292.374-.37.588-.172.48.16.947.668.938.21-.004.438-.074.624-.176.225-.124.413-.315.62-.475.315-.244.614-.513.95-.723.483-.3.782-.153.886.397.01.053.014.108.024.162.126.718.448 1 1.17 1.02.138.003.276-.002.414-.005.496-.013.992-.035 1.487-.035.316 0 .632.048.948.047.638-.004.998-.32 1.105-.945.023-.135.034-.274.066-.407.093-.392.34-.514.71-.347.125.057.245.13.35.217.332.268.645.56.985.816.24.18.497.35.773.458.327.127.69-.023.88-.288.178-.25.177-.597-.022-.89z" fill="#206FAC"/></g></svg>