<svg width="22" height="32" viewBox="0 0 22 32" xmlns="http://www.w3.org/2000/svg"><g fill="none"><path d="M15.497 29.984c0 1.105-2.016 2-4.5 2-2.486 0-4.5-.895-4.5-2 0-1.104 2.014-2 4.5-2 2.484 0 4.5.896 4.5 2" fill-opacity=".2" fill="#1D508D"/><path d="M10.996.016c6.076 0 11 4.362 11 10.92 0 6.407-5.55 9.16-8.505 13.256-2.414 3.346-2.49 5.824-2.49 5.824s-.018-2.49-2.494-5.824C5.464 20.095 0 17.532 0 10.935 0 4.375 4.923.015 11 .015" fill="#841E1B"/><path d="M13.352 16.505c-.243-.06-.91-.252-1.126-.432-.232-.19-.414-.995-.465-1.454l-.03-.206-.01-.082v-.14l-.044-.124-.126-.045-.175.016c-.185.02-.367.045-.572.035l-.25-.015-.112-.01c-.05-.025-.1-.023-.15.01-.045.026-.075.075-.075.13l-.03.516c-.044.47-.206 1.28-.457 1.464-.367.264-1.038.334-1.05.336-.318.033-.58.323-.58.64v.042c0 .33.265.596.6.596h4.61c.33 0 .593-.266.593-.596v-.043c0-.303-.234-.57-.544-.64m.72-11.922h-5.97c-2.426 2.523-2.923 8.423 2.922 8.423 5.843 0 5.163-5.47 3.048-8.423m-6.05 2.715c.16-.462.385-.954.688-1.476l.03-.096h4.533l.032.097c.303.523.52 1.015.677 1.477h-5.96" fill="#fff"/></g></svg>