<svg width="32" height="232" viewBox="0 0 32 232" xmlns="http://www.w3.org/2000/svg"><title>bar</title><g fill="none"><path d="M21.232 187.387c-.495-.116-1.862-.514-2.297-.88-.477-.393-.847-2.038-.955-2.98l-.07-.41-.018-.168v-.288c.002-.094-.032-.187-.092-.25-.074-.074-.154-.097-.258-.096l-.353.034c-.382.04-.753.09-1.175.072l-.512-.03-.23-.02c-.1-.056-.21-.05-.31.015-.09.054-.153.154-.153.27 0 .1-.032.577-.065 1.052-.086.958-.422 2.62-.935 2.995-.748.534-2.122.68-2.147.682-.648.068-1.184.662-1.184 1.312v.08c0 .676.542 1.22 1.23 1.22h9.424c.672 0 1.215-.544 1.215-1.22v-.08c0-.624-.482-1.173-1.118-1.313M22.708 163H10.496c-4.962 5.16-5.98 17.23 5.98 17.23 11.95 0 10.56-11.186 6.232-17.23m-12.37 5.553c.323-.944.785-1.952 1.4-3.02l.062-.196h9.275l.07.196c.616 1.068 1.064 2.076 1.38 3.02H10.338" fill="#831D1B"/><path d="M21.232 147.387c-.495-.116-1.862-.514-2.297-.88-.477-.393-.847-2.038-.955-2.98l-.07-.41-.018-.168v-.288c.002-.094-.032-.187-.092-.25-.074-.074-.154-.097-.258-.096l-.353.034c-.382.04-.753.09-1.175.072l-.512-.03-.23-.02c-.1-.056-.21-.05-.31.015-.09.054-.153.154-.153.27 0 .1-.032.577-.065 1.052-.086.958-.422 2.62-.935 2.995-.748.534-2.122.68-2.147.682-.648.068-1.184.662-1.184 1.312v.08c0 .676.542 1.22 1.23 1.22h9.424c.672 0 1.215-.544 1.215-1.22v-.08c0-.624-.482-1.173-1.118-1.313M22.708 123H10.496c-4.962 5.16-5.98 17.23 5.98 17.23 11.95 0 10.56-11.186 6.232-17.23m-12.37 5.553c.323-.944.785-1.952 1.4-3.02l.062-.196h9.275l.07.196c.616 1.068 1.064 2.076 1.38 3.02H10.338" fill="#206FAC"/><path d="M21.232 107.387c-.495-.116-1.862-.514-2.297-.88-.477-.393-.847-2.038-.955-2.98l-.07-.41-.018-.168v-.288c.002-.094-.032-.187-.092-.25-.074-.074-.154-.097-.258-.096l-.353.034c-.382.04-.753.09-1.175.072l-.512-.03-.23-.02c-.1-.056-.21-.05-.31.015-.09.054-.153.154-.153.27 0 .1-.032.577-.065 1.052-.086.958-.422 2.62-.935 2.995-.748.534-2.122.68-2.147.682-.648.068-1.184.662-1.184 1.312v.08c0 .676.542 1.22 1.23 1.22h9.424c.672 0 1.215-.544 1.215-1.22v-.08c0-.624-.482-1.173-1.118-1.313M22.708 83H10.496c-4.962 5.16-5.98 17.23 5.98 17.23 11.95 0 10.56-11.186 6.232-17.23m-12.37 5.553c.323-.944.785-1.952 1.4-3.02l.062-.196h9.275l.07.196c.616 1.068 1.064 2.076 1.38 3.02H10.338" fill="#fff"/><path d="M21.232 67.387c-.495-.116-1.862-.514-2.297-.88-.477-.393-.847-2.038-.955-2.98l-.07-.41-.018-.168v-.288c.002-.094-.032-.187-.092-.25-.074-.074-.154-.097-.258-.096l-.353.034c-.382.04-.753.09-1.175.072l-.512-.03-.23-.02c-.1-.056-.21-.05-.31.015-.09.054-.153.154-.153.27 0 .1-.032.577-.065 1.052-.086.958-.422 2.62-.935 2.995-.748.534-2.122.68-2.147.682-.648.068-1.184.662-1.184 1.312v.08c0 .676.542 1.22 1.23 1.22h9.424c.672 0 1.215-.544 1.215-1.22v-.08c0-.624-.482-1.173-1.118-1.313M22.708 43H10.496c-4.962 5.16-5.98 17.23 5.98 17.23 11.95 0 10.56-11.186 6.232-17.23m-12.37 5.553c.323-.944.785-1.952 1.4-3.02l.062-.196h9.275l.07.196c.616 1.068 1.064 2.076 1.38 3.02H10.338" fill="#67747C"/><path d="M21.232 27.387c-.495-.116-1.862-.514-2.297-.88-.477-.393-.847-2.038-.955-2.98l-.07-.41-.018-.168v-.288c.002-.094-.032-.187-.092-.25-.074-.074-.154-.097-.258-.096l-.353.034c-.382.04-.753.09-1.175.072l-.512-.03-.23-.02c-.1-.056-.21-.05-.31.015-.09.054-.153.154-.153.27 0 .1-.032.577-.065 1.052-.086.958-.422 2.62-.935 2.995-.748.534-2.122.68-2.147.682-.648.068-1.184.662-1.184 1.312v.08c0 .676.542 1.22 1.23 1.22h9.424c.672 0 1.215-.544 1.215-1.22v-.08c0-.624-.482-1.173-1.118-1.313M22.708 3H10.496c-4.962 5.16-5.98 17.23 5.98 17.23 11.95 0 10.56-11.186 6.232-17.23m-12.37 5.553c.323-.944.785-1.952 1.4-3.02l.062-.196h9.275l.07.196c.616 1.068 1.064 2.076 1.38 3.02H10.338" fill="#3B444F"/></g></svg>