<svg width="32" height="232" viewBox="0 0 32 232" xmlns="http://www.w3.org/2000/svg"><g fill="none"><g fill="#3A434E"><path d="M28.543 5.6l-.81 2.392.178-.007-.045 11.674-.656-.006-.02 4.188.656.003-.002.663h.2l-.006 1.64.85.002.005-1.64.2.002.07-16.577.183-.007-.802-2.33" id="Fill-1"/><path d="M23.358-.013H3.125c-.345 0-.625.278-.625.62v30.537c0 .343.28.62.625.62h15.7v-.023c.054.017.108.026.162.026.163 0 .323-.063.442-.18l4.37-4.337c.16-.16.216-.39.16-.6h.02V.607c0-.343-.28-.62-.624-.62zm-6.245 29.66v-2.22h2.236l-2.24 2.22zm-.625-3.46c-.346 0-.625.278-.625.62v3.717H1.25V1.228h18.983v24.96h-3.745z" id="Fill-2"/><path d="M7.138 9.228l-.517-.513-.88.878.96.95c.12.122.28.182.44.182.16 0 .32-.06.442-.18L9.235 8.9l-.884-.877-1.21 1.203" id="Fill-3"/><path d="M11.19 8.883h9.274v1.24H11.19v-1.24z" id="Fill-4"/><path d="M7.138 4.908l-.517-.513-.88.877.96.95c.12.122.28.183.44.183.16 0 .32-.06.442-.182l1.655-1.64-.884-.878-1.21 1.203" id="Fill-5"/><path d="M11.19 4.563h9.274v1.24H11.19v-1.24z" id="Fill-6"/><path d="M7.138 13.55l-.517-.514-.88.877.96.95c.115.117.274.183.44.183.166 0 .325-.066.442-.182l1.655-1.64-.884-.878-1.21 1.203" id="Fill-7"/><path d="M11.19 13.204h9.274v1.24H11.19v-1.24z" id="Fill-8"/><path d="M7.138 17.87l-.517-.513-.88.877.96.95c.12.122.28.182.44.182.16 0 .32-.06.442-.18l1.655-1.643-.884-.877-1.21 1.203" id="Fill-9"/><path d="M11.19 17.525h9.274v1.24H11.19v-1.24z" id="Fill-10"/><path d="M11.19 21.89h9.274v1.24H11.19v-1.24z" id="Fill-11"/><path d="M7.138 22.19l-.517-.513-.88.877.96.95c.115.118.274.183.44.183.166 0 .325-.065.442-.182l1.655-1.64-.884-.878-1.21 1.203" id="Fill-12"/><path d="M11.19 26.166h5.262v1.24H11.19v-1.24z" id="Fill-13"/></g><g fill="#67737B"><path d="M28.543 45.6l-.81 2.392.178-.007-.045 11.674-.656-.006-.02 4.188.656.003-.002.663h.2l-.006 1.64.85.002.005-1.64.2.002.07-16.577.183-.007-.802-2.33"/><path d="M23.358 39.987H3.125c-.345 0-.625.278-.625.62v30.537c0 .343.28.62.625.62h15.7v-.023c.054.017.108.026.162.026.163 0 .323-.063.442-.18l4.37-4.337c.16-.16.216-.39.16-.6h.02V40.61c0-.343-.28-.62-.624-.62zm-6.245-10.34v-2.22h2.236l-2.24 2.22zm-.625-3.46c-.346 0-.625.278-.625.62v3.717H1.25V1.228h18.983v24.96h-3.745z"/><path d="M7.138 49.228l-.517-.513-.88.878.96.95c.12.122.28.182.44.182.16 0 .32-.06.442-.18L9.235 48.9l-.884-.877-1.21 1.203"/><path d="M11.19 48.883h9.274v1.24H11.19v-1.24z"/><path d="M7.138 44.908l-.517-.513-.88.877.96.95c.12.122.28.183.44.183.16 0 .32-.06.442-.182l1.655-1.64-.884-.878-1.21 1.203"/><path d="M11.19 44.563h9.274v1.24H11.19v-1.24z"/><path d="M7.138 53.55l-.517-.514-.88.877.96.95c.115.117.274.183.44.183.166 0 .325-.066.442-.182l1.655-1.64-.884-.878-1.21 1.203"/><path d="M11.19 53.204h9.274v1.24H11.19v-1.24z"/><path d="M7.138 57.87l-.517-.513-.88.877.96.95c.12.122.28.182.44.182.16 0 .32-.06.442-.18l1.655-1.643-.884-.877-1.21 1.203"/><path d="M11.19 57.525h9.274v1.24H11.19v-1.24z"/><path d="M11.19 61.89h9.274v1.24H11.19v-1.24z"/><path d="M7.138 62.19l-.517-.513-.88.877.96.95c.115.118.274.183.44.183.166 0 .325-.065.442-.182l1.655-1.64-.884-.878-1.21 1.203"/><path d="M11.19 66.166h5.262v1.24H11.19v-1.24z"/></g><g fill="#fff"><path d="M28.543 85.6l-.81 2.392.178-.007-.045 11.674-.656-.006-.02 4.188.656.003-.002.663h.2l-.006 1.64.85.002.005-1.64.2.002.07-16.577.183-.007-.802-2.33"/><path d="M23.358 79.987H3.125c-.345 0-.625.278-.625.62v30.537c0 .343.28.62.625.62h15.7v-.023c.054.017.108.026.162.026.163 0 .323-.063.442-.18l4.37-4.337c.16-.16.216-.39.16-.6h.02V80.61c0-.343-.28-.62-.624-.62zm-6.245-50.34v-2.22h2.236l-2.24 2.22zm-.625-3.46c-.346 0-.625.278-.625.62v3.717H1.25V1.228h18.983v24.96h-3.745zM7.138 89.228l-.517-.513-.88.878.96.95c.12.122.28.182.44.182.16 0 .32-.06.442-.18L9.235 88.9l-.884-.877-1.21 1.203"/><path d="M11.19 88.883h9.274v1.24H11.19v-1.24zM7.138 84.908l-.517-.513-.88.877.96.95c.12.122.28.183.44.183.16 0 .32-.06.442-.182l1.655-1.64-.884-.878-1.21 1.203"/><path d="M11.19 84.563h9.274v1.24H11.19v-1.24zM7.138 93.55l-.517-.514-.88.877.96.95c.115.117.274.183.44.183.166 0 .325-.066.442-.182l1.655-1.64-.884-.878-1.21 1.203"/><path d="M11.19 93.204h9.274v1.24H11.19v-1.24zM7.138 97.87l-.517-.513-.88.877.96.95c.12.122.28.182.44.182.16 0 .32-.06.442-.18l1.655-1.643-.884-.877-1.21 1.203"/><path d="M11.19 97.525h9.274v1.24H11.19v-1.24zM11.19 101.89h9.274v1.24H11.19v-1.24zM7.138 102.19l-.517-.513-.88.877.96.95c.115.118.274.183.44.183.166 0 .325-.065.442-.182l1.655-1.64-.884-.878-1.21 1.203"/><path d="M11.19 106.166h5.262v1.24H11.19v-1.24z"/></g><g fill="#206FAC"><path d="M28.543 125.6l-.81 2.392.178-.007-.045 11.674-.656-.006-.02 4.188.656.003-.002.663h.2l-.006 1.64.85.002.005-1.64.2.002.07-16.577.183-.007-.802-2.33M23.358 119.987H3.125c-.345 0-.625.278-.625.62v30.537c0 .343.28.62.625.62h15.7v-.023c.054.017.108.026.162.026.163 0 .323-.063.442-.18l4.37-4.337c.16-.16.216-.39.16-.6h.02v-26.04c0-.343-.28-.62-.624-.62zm-6.245-90.34v-2.22h2.236l-2.24 2.22zm-.625-3.46c-.346 0-.625.278-.625.62v3.717H1.25V1.228h18.983v24.96h-3.745zm-9.35 103.04l-.517-.512-.88.878.96.95c.12.122.28.182.44.182.16 0 .32-.06.442-.18l1.655-1.643-.884-.877-1.21 1.203M11.19 128.883h9.274v1.24H11.19v-1.24zm-4.052-3.975l-.517-.513-.88.877.96.95c.12.122.28.183.44.183.16 0 .32-.06.442-.182l1.655-1.64-.884-.878-1.21 1.203M11.19 124.563h9.274v1.24H11.19v-1.24zm-4.052 8.987l-.517-.514-.88.877.96.95c.115.117.274.183.44.183.166 0 .325-.066.442-.182l1.655-1.64-.884-.878-1.21 1.203M11.19 133.204h9.274v1.24H11.19v-1.24zm-4.052 4.666l-.517-.513-.88.877.96.95c.12.122.28.182.44.182.16 0 .32-.06.442-.18l1.655-1.643-.884-.877-1.21 1.203M11.19 137.525h9.274v1.24H11.19v-1.24zm0 4.365h9.274v1.24H11.19v-1.24zm-4.052.3l-.517-.513-.88.877.96.95c.115.118.274.183.44.183.166 0 .325-.065.442-.182l1.655-1.64-.884-.878-1.21 1.203"/><path d="M11.19 146.166h5.262v1.24H11.19v-1.24z"/></g></g></svg>