<svg width="32" height="232" viewBox="0 0 32 232" xmlns="http://www.w3.org/2000/svg"><g fill="none"><path d="M18.69 136.65c.15.062.314.095.477.095h2.557c.684 0 1.237-.548 1.237-1.237 0-.682-.55-1.253-1.233-1.253h-2.052l-2.82-2.84-.007-.012c-.24-.245-.556-.366-.874-.365-.317 0-.635.12-.88.365l-.012.02-3.175 3.2c-.244.24-.366.56-.366.88 0 .32.12.638.366.88l2.83 2.848v4.78c0 .688.555 1.25 1.234 1.25.69 0 1.242-.562 1.242-1.25v-5.26c.007-.33-.11-.66-.364-.912l-2.32-2.333 1.443-1.454 2.32 2.334.004.003c.114.112.25.202.4.264zm.57-4.66c1.097 0 1.987-.89 1.987-2 0-1.1-.89-1.99-1.988-1.99-1.09 0-1.986.89-1.986 1.99 0 1.11.893 2 1.982 2zm4.137 5.758c-2.817 0-5.102 2.3-5.102 5.132 0 2.823 2.285 5.12 5.102 5.12 2.814 0 5.103-2.297 5.103-5.12 0-2.83-2.29-5.132-5.103-5.132zm0 8.27c-1.724 0-3.127-1.41-3.127-3.138 0-1.73 1.403-3.14 3.127-3.14 1.722 0 3.12 1.41 3.12 3.14 0 1.73-1.398 3.137-3.12 3.137zm-14.794-8.27c-2.818 0-5.103 2.3-5.103 5.132 0 2.823 2.285 5.12 5.103 5.12 2.817 0 5.106-2.297 5.106-5.12 0-2.83-2.29-5.132-5.11-5.132zm0 8.27c-1.723 0-3.124-1.41-3.124-3.138 0-1.73 1.4-3.14 3.12-3.14 1.72 0 3.122 1.41 3.122 3.14 0 1.73-1.4 3.137-3.122 3.137zm0 0" fill="#206FAC"/><path d="M18.69 96.65c.15.062.314.095.477.095h2.557c.684 0 1.237-.548 1.237-1.237 0-.682-.55-1.253-1.233-1.253h-2.052l-2.82-2.84-.007-.012c-.24-.245-.556-.366-.874-.365-.317 0-.635.12-.88.365l-.012.02-3.175 3.2c-.244.24-.366.56-.366.88 0 .32.12.638.366.88l2.83 2.848v4.78c0 .688.555 1.25 1.234 1.25.69 0 1.242-.562 1.242-1.25v-5.26c.007-.33-.11-.66-.364-.912l-2.32-2.333 1.443-1.454 2.32 2.334.004.003c.114.112.25.202.4.264zm.57-4.66c1.097 0 1.987-.89 1.987-2 0-1.1-.89-1.99-1.988-1.99-1.09 0-1.986.89-1.986 1.99 0 1.11.893 2 1.982 2zm4.137 5.758c-2.817 0-5.102 2.3-5.102 5.132 0 2.823 2.285 5.12 5.102 5.12 2.814 0 5.103-2.297 5.103-5.12 0-2.83-2.29-5.132-5.103-5.132zm0 8.27c-1.724 0-3.127-1.41-3.127-3.138 0-1.73 1.403-3.14 3.127-3.14 1.722 0 3.12 1.41 3.12 3.14 0 1.73-1.398 3.137-3.12 3.137zm-14.794-8.27c-2.818 0-5.103 2.3-5.103 5.132 0 2.823 2.285 5.12 5.103 5.12 2.817 0 5.106-2.297 5.106-5.12 0-2.83-2.29-5.132-5.11-5.132zm0 8.27c-1.723 0-3.124-1.41-3.124-3.138 0-1.73 1.4-3.14 3.12-3.14 1.72 0 3.122 1.41 3.122 3.14 0 1.73-1.4 3.137-3.122 3.137zm0 0" fill="#fff"/><path d="M18.69 56.65c.15.062.314.095.477.095h2.557c.684 0 1.237-.548 1.237-1.237 0-.682-.55-1.253-1.233-1.253h-2.052l-2.82-2.84-.007-.012c-.24-.245-.556-.366-.874-.365-.317 0-.635.12-.88.365l-.012.02-3.175 3.2c-.244.24-.366.56-.366.88 0 .32.12.638.366.88l2.83 2.848v4.78c0 .688.555 1.25 1.234 1.25.69 0 1.242-.562 1.242-1.25v-5.26c.007-.33-.11-.66-.364-.912l-2.32-2.333 1.443-1.454 2.32 2.334.004.003c.114.112.25.202.4.264zm.57-4.66c1.097 0 1.987-.89 1.987-2 0-1.1-.89-1.99-1.988-1.99-1.09 0-1.986.89-1.986 1.99 0 1.11.893 2 1.982 2zm4.137 5.758c-2.817 0-5.102 2.3-5.102 5.132 0 2.823 2.285 5.12 5.102 5.12 2.814 0 5.103-2.297 5.103-5.12 0-2.83-2.29-5.132-5.103-5.132zm0 8.27c-1.724 0-3.127-1.41-3.127-3.138 0-1.73 1.403-3.14 3.127-3.14 1.722 0 3.12 1.41 3.12 3.14 0 1.73-1.398 3.137-3.12 3.137zm-14.794-8.27c-2.818 0-5.103 2.3-5.103 5.132C3.5 65.703 5.785 68 8.603 68c2.817 0 5.106-2.297 5.106-5.12 0-2.83-2.29-5.132-5.11-5.132zm0 8.27c-1.723 0-3.124-1.41-3.124-3.138 0-1.73 1.4-3.14 3.12-3.14 1.72 0 3.122 1.41 3.122 3.14 0 1.73-1.4 3.137-3.122 3.137zm0 0" fill="#67737B"/><path d="M18.69 16.65c.15.062.314.095.477.095h2.557c.684 0 1.237-.548 1.237-1.237 0-.682-.55-1.253-1.233-1.253h-2.052l-2.82-2.84-.007-.012c-.24-.245-.556-.366-.874-.365-.317 0-.635.12-.88.365l-.012.02-3.175 3.2c-.244.24-.366.56-.366.88 0 .32.12.638.366.88l2.83 2.848v4.78c0 .688.555 1.25 1.234 1.25.69 0 1.242-.562 1.242-1.25v-5.26c.007-.33-.11-.66-.364-.912l-2.32-2.333 1.443-1.454 2.32 2.334.004.003c.114.112.25.202.4.264zm.57-4.66c1.097 0 1.987-.89 1.987-2 0-1.1-.89-1.99-1.988-1.99-1.09 0-1.986.89-1.986 1.99 0 1.11.893 2 1.982 2zm4.137 5.758c-2.817 0-5.102 2.3-5.102 5.132 0 2.823 2.285 5.12 5.102 5.12 2.814 0 5.103-2.297 5.103-5.12 0-2.83-2.29-5.132-5.103-5.132zm0 8.27c-1.724 0-3.127-1.41-3.127-3.138 0-1.73 1.403-3.14 3.127-3.14 1.722 0 3.12 1.41 3.12 3.14 0 1.73-1.398 3.137-3.12 3.137zm-14.794-8.27c-2.818 0-5.103 2.3-5.103 5.132C3.5 25.703 5.785 28 8.603 28c2.817 0 5.106-2.297 5.106-5.12 0-2.83-2.29-5.132-5.11-5.132zm0 8.27c-1.723 0-3.124-1.41-3.124-3.138 0-1.73 1.4-3.14 3.12-3.14 1.72 0 3.122 1.41 3.122 3.14 0 1.73-1.4 3.137-3.122 3.137zm0 0" fill="#3A434E"/></g></svg>