<svg width="32" height="232" viewBox="0 0 32 232" xmlns="http://www.w3.org/2000/svg"><title>book</title><g fill="none"><path d="M28.21 9.577c.66-.816.557-1.423.426-1.722-.146-.32-.57-.855-1.8-.855H16.063c-1.62 0-3.736.93-4.817 2.12l-6.76 7.42-.262.327c-.76.865-1.24 1.98-1.24 3.21 0 2.718 2.24 4.924 4.993 4.924h8.532c1.564 0 3.963-.114 5.05-1.304l6.754-7.42c.704-.767.858-1.564.445-2.088-.017-.02-1.31-2.618-.548-4.61zM6.265 19.282H16.51c1.614 0 3.727-.93 4.812-2.12l5.23-5.725c-.227.492-.148 1.072-.14 1.072.163.823.506 2.062.688 2.4l-.133.162-6.756 7.42c-.747.824-2.64.716-3.7.716H7.975c-1.75 0-3.173-1.404-3.173-3.136l.004-.218.08-.575h1.377zm0 0" fill="#3B444F"/><path d="M28.21 49.57c.66-.815.557-1.422.426-1.72-.146-.32-.57-.856-1.8-.856H16.063c-1.62 0-3.736.93-4.817 2.12l-6.76 7.42-.262.327c-.76.867-1.24 1.98-1.24 3.21 0 2.72 2.24 4.926 4.993 4.926h8.532c1.564 0 3.963-.116 5.05-1.306l6.754-7.42c.704-.768.858-1.565.445-2.09-.017-.02-1.31-2.617-.548-4.608zM6.265 59.277H16.51c1.614 0 3.727-.93 4.812-2.12l5.23-5.725c-.227.493-.148 1.073-.14 1.073.163.825.506 2.064.688 2.4l-.133.164-6.756 7.42c-.747.823-2.64.715-3.7.715H7.975c-1.75 0-3.173-1.403-3.173-3.135l.004-.218.08-.575h1.377zm0 0" fill="#67737B"/><path d="M28.21 89.57c.66-.815.557-1.422.426-1.72-.146-.32-.57-.856-1.8-.856H16.063c-1.62 0-3.736.93-4.817 2.12l-6.76 7.42-.262.327c-.76.867-1.24 1.98-1.24 3.21 0 2.72 2.24 4.926 4.993 4.926h8.532c1.564 0 3.963-.116 5.05-1.306l6.754-7.42c.704-.768.858-1.565.445-2.09-.017-.02-1.31-2.617-.548-4.608zM6.265 99.277H16.51c1.614 0 3.727-.93 4.812-2.12l5.23-5.725c-.227.493-.148 1.073-.14 1.073.163.825.506 2.064.688 2.4l-.133.164-6.756 7.42c-.747.823-2.64.715-3.7.715H7.975c-1.75 0-3.173-1.403-3.173-3.135l.004-.218.08-.575h1.377zm0 0" fill="#fff"/><path d="M28.21 129.57c.66-.815.557-1.422.426-1.72-.146-.32-.57-.856-1.8-.856H16.063c-1.62 0-3.736.93-4.817 2.12l-6.76 7.42-.262.327c-.76.867-1.24 1.98-1.24 3.21 0 2.72 2.24 4.926 4.993 4.926h8.532c1.564 0 3.963-.116 5.05-1.306l6.754-7.42c.704-.768.858-1.565.445-2.09-.017-.02-1.31-2.617-.548-4.608zm-21.946 9.706h10.244c1.615 0 3.728-.93 4.813-2.12l5.23-5.725c-.226.494-.147 1.074-.14 1.074.164.825.507 2.064.69 2.4l-.134.164-6.756 7.42c-.748.824-2.64.716-3.702.716H7.976c-1.75 0-3.173-1.403-3.173-3.135l.004-.22.08-.574h1.377zm0 0" fill="#206FAC"/></g></svg>