<svg width="33" height="232" viewBox="0 0 33 232" xmlns="http://www.w3.org/2000/svg"><title>1111 Bookings Icon</title><desc>Created with Sketch.</desc><g fill="none"><g fill="#373D43"><path d="M21.662 11.84c.89 0 1.612-.718 1.612-1.605v-4.53c0-.887-.722-1.605-1.612-1.605-.892 0-1.614.718-1.614 1.604v4.53c0 .888.722 1.606 1.614 1.606M27.827 9.314l-.212-.21c-.82-.763-1.92-1.23-3.132-1.23h-.323v2.36c0 1.37-1.122 2.486-2.497 2.486-1.38 0-2.5-1.114-2.5-2.485V7.873h-5.966v2.362c0 1.37-1.12 2.485-2.495 2.485-1.376 0-2.496-1.114-2.496-2.485v-2.36C5.72 7.93 3.713 9.96 3.713 12.447v12.448c0 2.52 2.062 4.573 4.597 4.573h16.173c2.534 0 4.596-2.05 4.596-4.573V12.447c0-1.212-.477-2.313-1.252-3.133zM16.344 23.08L15.15 24.27l-1.194-1.193-3.283-3.285 1.194-1.194 3.283 3.284 6.12-6.12 1.193 1.194-6.12 6.12zM10.7 11.84c.892 0 1.614-.718 1.614-1.605v-4.53c0-.887-.722-1.605-1.613-1.605-.89 0-1.61.718-1.61 1.604v4.53c0 .888.72 1.606 1.61 1.606"/></g><path d="M21.663 51.84c.89 0 1.612-.718 1.612-1.605v-4.53c0-.887-.722-1.605-1.612-1.605-.892 0-1.614.718-1.614 1.604v4.53c0 .888.72 1.606 1.613 1.606m6.165-2.526l-.212-.21c-.82-.763-1.92-1.23-3.132-1.23h-.323v2.36c0 1.37-1.12 2.486-2.496 2.486-1.38 0-2.5-1.114-2.5-2.485v-2.362H13.2v2.362c0 1.37-1.12 2.485-2.495 2.485-1.376 0-2.496-1.114-2.496-2.485v-2.36c-2.486.054-4.493 2.084-4.493 4.572v12.448c0 2.52 2.062 4.573 4.597 4.573h16.174c2.534 0 4.596-2.05 4.596-4.573V52.447c0-1.212-.476-2.313-1.25-3.133zM16.345 63.08L15.15 64.27l-1.193-1.193-3.283-3.285 1.194-1.194 3.283 3.284 6.12-6.12 1.194 1.194-6.12 6.12zm-5.643-11.24c.89 0 1.613-.718 1.613-1.605v-4.53c0-.887-.722-1.605-1.613-1.605-.89 0-1.612.718-1.612 1.604v4.53c0 .888.722 1.606 1.612 1.606" fill="#67737B"/><path d="M21.663 90.84c.89 0 1.612-.718 1.612-1.605v-4.53c0-.887-.722-1.605-1.612-1.605-.892 0-1.614.718-1.614 1.604v4.53c0 .888.72 1.606 1.613 1.606m6.165-2.526l-.212-.21c-.82-.763-1.92-1.23-3.132-1.23h-.323v2.36c0 1.37-1.12 2.486-2.496 2.486-1.38 0-2.5-1.114-2.5-2.485v-2.362H13.2v2.362c0 1.37-1.12 2.485-2.495 2.485-1.376 0-2.496-1.114-2.496-2.485v-2.36c-2.486.054-4.493 2.084-4.493 4.572v12.448c0 2.52 2.062 4.573 4.597 4.573h16.174c2.534 0 4.596-2.05 4.596-4.573V91.447c0-1.212-.476-2.313-1.25-3.133zM16.345 102.08l-1.194 1.192-1.193-1.193-3.283-3.285 1.194-1.194 3.283 3.284 6.12-6.12 1.194 1.194-6.12 6.12zm-5.643-11.24c.89 0 1.613-.718 1.613-1.605v-4.53c0-.887-.722-1.605-1.613-1.605-.89 0-1.612.718-1.612 1.604v4.53c0 .888.722 1.606 1.612 1.606" fill="#fff"/><path d="M21.663 130.84c.89 0 1.612-.718 1.612-1.605v-4.53c0-.887-.722-1.605-1.612-1.605-.892 0-1.614.718-1.614 1.604v4.53c0 .888.72 1.606 1.613 1.606m6.165-2.526l-.212-.21c-.82-.763-1.92-1.23-3.132-1.23h-.323v2.36c0 1.37-1.12 2.486-2.496 2.486-1.38 0-2.5-1.114-2.5-2.485v-2.362H13.2v2.362c0 1.37-1.12 2.485-2.495 2.485-1.376 0-2.496-1.114-2.496-2.485v-2.36c-2.486.054-4.493 2.084-4.493 4.572v12.448c0 2.52 2.062 4.573 4.597 4.573h16.174c2.534 0 4.596-2.05 4.596-4.573v-12.448c0-1.212-.476-2.313-1.25-3.133zM16.345 142.08l-1.194 1.192-1.193-1.193-3.283-3.285 1.194-1.194 3.283 3.284 6.12-6.12 1.194 1.194-6.12 6.12zm-5.643-11.24c.89 0 1.613-.718 1.613-1.605v-4.53c0-.887-.722-1.605-1.613-1.605-.89 0-1.612.718-1.612 1.604v4.53c0 .888.722 1.606 1.612 1.606" fill="#206FAC"/></g></svg>