<svg width="32" height="232" viewBox="0 0 32 232" xmlns="http://www.w3.org/2000/svg"><title>bundle</title><g fill="none"><path d="M22.258 20.217l-.54.52v1.805l4.18-4.038V16.7l-.53.513v-2.18l.452-.433-1.336-1.467-.83 2.506-.828-.9-1.336 4.028.768-.738v2.187zm1.443-3.582l.214-.205v2.188l-.213.205v-2.188zM27.89 6.31L14.924 3.05 14.62 3c-.31-.01-.613.073-.88.243L3.66 9.71c-.43.275-.683.757-.658 1.26L3.578 22.6c.03.588.418 1.092.99 1.283l14.22 4.77c.145.05.302.075.474.077h.008c.393 0 .764-.154 1.047-.43l8.202-8.03c.272-.266.423-.618.425-.99L29 7.703c.002-.656-.453-1.23-1.11-1.395zM14.733 5.187l1.616.408 1.037.264-6.764 5.387-.31-.096-3.305-.993 7.726-4.97zM5.732 21.946L5.24 12l4.262 1.284v3.818l1.118-.01.658.432 1-.11 1.68.99-.057-3.8 4 1.2.12 10.257L5.73 21.947zm13.088-8.238c-1.263-.375-2.503-.747-3.742-1.12L21.84 6.98l3.854.972-6.874 5.756zm7.967 5.195l-6.44 6.303-.116-9.684 6.598-5.524-.04 8.905zm0 0" fill="#3B444F"/><path d="M22.258 60.216l-.54.52v1.805l4.18-4.037V56.7l-.53.512v-2.18l.452-.433-1.336-1.468-.83 2.506-.828-.898-1.336 4.027.768-.738v2.186zm1.443-3.582l.214-.205v2.187l-.213.205v-2.188zm4.19-10.326l-12.965-3.26L14.62 43c-.31-.01-.613.074-.88.244L3.66 49.71c-.43.274-.683.756-.658 1.26l.576 11.627c.03.588.418 1.092.99 1.283l14.22 4.77c.145.05.302.074.474.076h.008c.393 0 .764-.154 1.047-.43l8.202-8.03c.272-.266.423-.618.425-.99L29 47.702c.002-.656-.453-1.23-1.11-1.395zm-13.156-1.12l1.616.407 1.037.264-6.764 5.386-.31-.096c-1.098-.332-2.195-.662-3.305-.994l7.726-4.97zM5.732 61.944L5.24 52l4.262 1.283V57.1l1.118-.01.658.433 1-.11 1.68.99-.057-3.8 4 1.2.12 10.257L5.73 61.945zm13.088-8.238c-1.263-.375-2.503-.747-3.742-1.12l6.762-5.607 3.854.97-6.874 5.757zm7.967 5.195l-6.44 6.303-.116-9.684 6.598-5.523-.04 8.905zm0 0" fill="#67737B"/><path d="M22.258 100.214l-.54.52v1.805l4.18-4.04V96.7l-.53.512v-2.18l.452-.433-1.336-1.467-.83 2.506-.828-.898-1.336 4.027.768-.738v2.187zm1.443-3.582l.214-.205v2.188l-.213.205v-2.188zm4.19-10.326l-12.965-3.26L14.62 83c-.31-.012-.613.072-.88.242L3.66 89.707c-.43.275-.683.757-.658 1.26l.576 11.628c.03.588.418 1.092.99 1.283l14.22 4.77c.145.05.302.074.474.076h.008c.393 0 .764-.154 1.047-.43l8.202-8.03c.272-.266.423-.618.425-.99L29 87.7c.002-.655-.453-1.228-1.11-1.394zm-13.156-1.12l1.616.407 1.037.264-6.764 5.387-.31-.096c-1.098-.332-2.195-.662-3.305-.994l7.726-4.97zm-9.002 16.757l-.492-9.946 4.262 1.284v3.82l1.118-.012.658.433 1-.11 1.68.992-.057-3.8 4 1.198.12 10.258-12.288-4.115zm13.088-8.238c-1.263-.375-2.503-.747-3.742-1.12l6.762-5.607 3.854.97-6.874 5.757zm7.967 5.195l-6.44 6.303-.116-9.684 6.598-5.525-.04 8.905zm0 0" fill="#fff"/><path d="M22.258 140.216l-.54.52v1.805l4.18-4.037V136.7l-.53.512v-2.18l.452-.433-1.336-1.468-.83 2.506-.828-.898-1.336 4.027.768-.738v2.186zm1.443-3.582l.214-.205v2.187l-.213.205v-2.188zm4.19-10.326l-12.965-3.26-.305-.047c-.31-.01-.613.074-.88.244L3.66 129.71c-.43.274-.683.756-.658 1.26l.576 11.627c.03.588.418 1.092.99 1.283l14.22 4.77c.145.05.302.074.474.076h.008c.393 0 .764-.154 1.047-.43l8.202-8.03c.272-.266.423-.618.425-.99L29 127.702c.002-.656-.453-1.23-1.11-1.395zm-13.156-1.12l1.616.407 1.037.264-6.764 5.386-.31-.096c-1.098-.332-2.195-.662-3.305-.994l7.726-4.97zm-9.002 16.757L5.24 132l4.262 1.283v3.818l1.118-.01.658.433 1-.11 1.68.99-.057-3.8 4 1.2.12 10.257-12.288-4.115zm13.088-8.238c-1.263-.375-2.503-.747-3.742-1.12l6.762-5.607 3.854.97-6.874 5.757zm7.967 5.195l-6.44 6.303-.116-9.684 6.598-5.523-.04 8.905zm0 0" fill="#206FAC"/></g></svg>