<svg width="32" height="232" viewBox="0 0 32 232" xmlns="http://www.w3.org/2000/svg"><desc>Created with Sketch.</desc><g fill="none"><path d="M24.634 189H7.4c-2.703 0-4.9-2.186-4.9-4.873V170.86c0-2.65 2.14-4.813 4.788-4.87v2.515c0 1.46 1.193 2.647 2.66 2.647 1.466 0 2.66-1.188 2.66-2.647v-2.518h6.358v2.518c0 1.46 1.194 2.647 2.663 2.647 1.462 0 2.66-1.188 2.66-2.647v-2.518h.342c1.29 0 2.463.5 3.338 1.312l.228.22c.825.873 1.332 2.046 1.332 3.34v13.264c0 2.687-2.198 4.873-4.898 4.873zm-19.5-11.942h4.72v-3.842h-4.72v3.842zm0 4.69h4.72v-3.75h-4.72v3.75zm4.72.936h-4.72v1.444c0 1.242 1.014 2.25 2.264 2.25h2.457v-3.694zm.943-5.625h4.71v-3.846h-4.71v3.842zm0 4.685h4.71v-3.75h-4.71v3.75zm0 4.63h4.71v-3.692h-4.71v3.692zm5.652-9.318h4.705v-3.843h-4.71v3.842zm0 4.69h4.705V178h-4.71v3.75zm0 4.63h4.705v-3.694h-4.71v3.692zm5.65-9.32h4.79v-3.84H22.1v3.84zm0 4.69h4.79V178H22.1v3.75zm4.79.936H22.1v3.693h2.533c1.248 0 2.26-1.008 2.26-2.25v-1.444zm-5.266-12.468c-.95 0-1.72-.767-1.72-1.71v-4.83c0-.945.77-1.71 1.72-1.71s1.718.765 1.718 1.71v4.83c0 .943-.77 1.71-1.718 1.71zm-11.68 0c-.95 0-1.72-.767-1.72-1.71v-4.83c0-.945.77-1.71 1.72-1.71.948 0 1.718.765 1.718 1.71v4.83c0 .943-.77 1.71-1.718 1.71z" fill="#99A9B3"/><path d="M24.634 149H7.4c-2.703 0-4.9-2.186-4.9-4.873V130.86c0-2.65 2.14-4.813 4.788-4.87v2.515c0 1.46 1.193 2.647 2.66 2.647 1.466 0 2.66-1.188 2.66-2.647v-2.518h6.358v2.518c0 1.46 1.194 2.647 2.663 2.647 1.462 0 2.66-1.188 2.66-2.647v-2.518h.342c1.29 0 2.463.5 3.338 1.312l.228.22c.825.873 1.332 2.046 1.332 3.34v13.264c0 2.687-2.198 4.873-4.898 4.873zm-19.5-11.942h4.72v-3.842h-4.72v3.842zm0 4.69h4.72v-3.75h-4.72v3.75zm4.72.936h-4.72v1.444c0 1.242 1.014 2.25 2.264 2.25h2.457v-3.694zm.943-5.625h4.71v-3.846h-4.71v3.842zm0 4.685h4.71v-3.75h-4.71v3.75zm0 4.63h4.71v-3.692h-4.71v3.692zm5.652-9.318h4.705v-3.843h-4.71v3.842zm0 4.69h4.705V138h-4.71v3.75zm0 4.63h4.705v-3.694h-4.71v3.692zm5.65-9.32h4.79v-3.84H22.1v3.84zm0 4.69h4.79V138H22.1v3.75zm4.79.936H22.1v3.693h2.533c1.248 0 2.26-1.008 2.26-2.25v-1.444zm-5.266-12.468c-.95 0-1.72-.767-1.72-1.71v-4.83c0-.945.77-1.71 1.72-1.71s1.718.765 1.718 1.71v4.83c0 .943-.77 1.71-1.718 1.71zm-11.68 0c-.95 0-1.72-.767-1.72-1.71v-4.83c0-.945.77-1.71 1.72-1.71.948 0 1.718.765 1.718 1.71v4.83c0 .943-.77 1.71-1.718 1.71z" fill="#206FAC"/><path d="M24.634 109H7.4c-2.703 0-4.9-2.186-4.9-4.873V90.86c0-2.65 2.14-4.813 4.788-4.87v2.515c0 1.46 1.193 2.647 2.66 2.647 1.466 0 2.66-1.188 2.66-2.647v-2.518h6.358v2.518c0 1.46 1.194 2.647 2.663 2.647 1.462 0 2.66-1.188 2.66-2.647v-2.518h.342c1.29 0 2.463.5 3.338 1.312l.228.22c.825.873 1.332 2.046 1.332 3.34v13.264c0 2.687-2.198 4.873-4.898 4.873zm-19.5-11.942h4.72v-3.842h-4.72v3.842zm0 4.69h4.72v-3.75h-4.72v3.75zm4.72.936h-4.72v1.444c0 1.242 1.014 2.25 2.264 2.25h2.457v-3.694zm.943-5.625h4.71v-3.846h-4.71v3.842zm0 4.685h4.71v-3.75h-4.71v3.75zm0 4.63h4.71v-3.692h-4.71v3.692zm5.652-9.318h4.705v-3.843h-4.71v3.842zm0 4.69h4.705V98h-4.71v3.75zm0 4.63h4.705v-3.694h-4.71v3.692zm5.65-9.32h4.79v-3.84H22.1v3.84zm0 4.69h4.79V98H22.1v3.75zm4.79.936H22.1v3.693h2.533c1.248 0 2.26-1.008 2.26-2.25v-1.444zM21.628 90.22c-.95 0-1.72-.767-1.72-1.71v-4.83c0-.945.77-1.71 1.72-1.71s1.718.765 1.718 1.71v4.83c0 .943-.77 1.71-1.718 1.71zm-11.68 0c-.95 0-1.72-.767-1.72-1.71v-4.83c0-.945.77-1.71 1.72-1.71.948 0 1.718.765 1.718 1.71v4.83c0 .943-.77 1.71-1.718 1.71z" fill="#fff"/><path d="M24.634 69H7.4c-2.703 0-4.9-2.186-4.9-4.873V50.86c0-2.65 2.14-4.813 4.788-4.87v2.515c0 1.46 1.193 2.647 2.66 2.647 1.466 0 2.66-1.188 2.66-2.647v-2.518h6.358v2.518c0 1.46 1.194 2.647 2.663 2.647 1.462 0 2.66-1.188 2.66-2.647v-2.518h.342c1.29 0 2.463.5 3.338 1.312l.228.22c.825.873 1.332 2.046 1.332 3.34v13.264c0 2.687-2.198 4.873-4.898 4.873zm-19.5-11.942h4.72v-3.842h-4.72v3.842zm0 4.69h4.72v-3.75h-4.72v3.75zm4.72.936h-4.72v1.444c0 1.242 1.014 2.25 2.264 2.25h2.457v-3.694zm.943-5.625h4.71v-3.846h-4.71v3.842zm0 4.685h4.71v-3.75h-4.71v3.75zm0 4.63h4.71v-3.692h-4.71v3.692zm5.652-9.318h4.705v-3.843h-4.71v3.842zm0 4.69h4.705V58h-4.71v3.75zm0 4.63h4.705v-3.694h-4.71v3.692zm5.65-9.32h4.79v-3.84H22.1v3.84zm0 4.69h4.79V58H22.1v3.75zm4.79.936H22.1v3.693h2.533c1.248 0 2.26-1.008 2.26-2.25v-1.444zM21.628 50.22c-.95 0-1.72-.767-1.72-1.71v-4.83c0-.945.77-1.71 1.72-1.71s1.718.765 1.718 1.71v4.83c0 .943-.77 1.71-1.718 1.71zm-11.68 0c-.95 0-1.72-.767-1.72-1.71v-4.83c0-.945.77-1.71 1.72-1.71.948 0 1.718.765 1.718 1.71v4.83c0 .943-.77 1.71-1.718 1.71z" fill="#67737B"/><path d="M24.634 29H7.4c-2.703 0-4.9-2.186-4.9-4.873V10.86c0-2.65 2.14-4.813 4.788-4.87v2.515c0 1.46 1.193 2.647 2.66 2.647 1.466 0 2.66-1.188 2.66-2.647V5.987h6.358v2.518c0 1.46 1.194 2.647 2.663 2.647 1.462 0 2.66-1.188 2.66-2.647V5.987h.342c1.29 0 2.463.5 3.338 1.312l.228.22c.825.873 1.332 2.046 1.332 3.34v13.264c0 2.687-2.198 4.873-4.898 4.873zm-19.5-11.942h4.72v-3.842h-4.72v3.842zm0 4.69h4.72v-3.75h-4.72v3.75zm4.72.936h-4.72v1.444c0 1.242 1.014 2.25 2.264 2.25h2.457v-3.694zm.943-5.625h4.71v-3.846h-4.71v3.842zm0 4.685h4.71v-3.75h-4.71v3.75zm0 4.63h4.71v-3.692h-4.71v3.692zm5.652-9.318h4.705v-3.843h-4.71v3.842zm0 4.69h4.705V18h-4.71v3.75zm0 4.63h4.705v-3.694h-4.71v3.692zm5.65-9.32h4.79v-3.84H22.1v3.84zm0 4.69h4.79V18H22.1v3.75zm4.79.936H22.1v3.693h2.533c1.248 0 2.26-1.008 2.26-2.25v-1.444zM21.628 10.22c-.95 0-1.72-.767-1.72-1.71V3.68c0-.945.77-1.71 1.72-1.71s1.718.765 1.718 1.71v4.83c0 .943-.77 1.71-1.718 1.71zm-11.68 0c-.95 0-1.72-.767-1.72-1.71V3.68c0-.945.77-1.71 1.72-1.71.948 0 1.718.765 1.718 1.71v4.83c0 .943-.77 1.71-1.718 1.71z" fill="#3A434E"/></g></svg>