<svg width="32" height="232" viewBox="0 0 32 232" xmlns="http://www.w3.org/2000/svg"><title>camping</title><g fill="none"><path d="M28.76 149H3.237C2.004 149 1 148.098 1 146.996c0-.845.574-1.56 1.393-1.867l-.545-1.188c-.17-.364-.185-.78-.042-1.16.13-.368.4-.668.748-.83.713-.333 1.624.016 1.952.74l.322.716 9.93-12.8c.652-.827 1.83-.805 2.452.03l9.582 12.747.326-.693c.323-.722 1.222-1.073 1.938-.74.35.166.62.462.756.834.137.384.12.792-.04 1.156l-.505 1.09c.988.208 1.732 1.003 1.732 1.964 0 1.102-1.005 2.004-2.24 2.004m-12.775-4.15h6.925l-6.925-9.54v9.54" fill="#206FAC"/><path d="M28.76 109H3.237C2.004 109 1 108.098 1 106.996c0-.845.574-1.56 1.393-1.867l-.545-1.188c-.17-.364-.185-.78-.042-1.16.13-.368.4-.668.748-.83.713-.333 1.624.016 1.952.74l.322.716 9.93-12.8c.652-.827 1.83-.805 2.452.03l9.582 12.747.326-.693c.323-.722 1.222-1.073 1.938-.74.35.166.62.462.756.834.137.384.12.792-.04 1.156l-.505 1.09c.988.208 1.732 1.003 1.732 1.964 0 1.102-1.005 2.004-2.24 2.004m-12.775-4.15h6.925l-6.925-9.54v9.54" fill="#fff"/><path d="M28.76 69H3.237C2.004 69 1 68.098 1 66.996c0-.845.574-1.56 1.393-1.867l-.545-1.188c-.17-.364-.185-.78-.042-1.16.13-.368.4-.668.748-.83.713-.333 1.624.016 1.952.74l.322.716 9.93-12.8c.652-.827 1.83-.805 2.452.03l9.582 12.747.326-.693c.323-.722 1.222-1.073 1.938-.74.35.166.62.462.756.834.137.384.12.792-.04 1.156l-.505 1.09c.988.208 1.732 1.003 1.732 1.964C31 68.098 29.994 69 28.76 69m-12.775-4.15h6.925l-6.925-9.54v9.54" fill="#67737B"/><path d="M28.76 29H3.237C2.004 29 1 28.098 1 26.996c0-.845.574-1.56 1.393-1.867l-.545-1.188c-.17-.364-.185-.78-.042-1.16.13-.368.4-.668.748-.83.713-.333 1.624.016 1.952.74l.322.716 9.93-12.8c.652-.827 1.83-.805 2.452.03l9.582 12.747.326-.693c.323-.722 1.222-1.073 1.938-.74.35.166.62.462.756.834.137.384.12.792-.04 1.156l-.505 1.09c.988.208 1.732 1.003 1.732 1.964C31 28.098 29.994 29 28.76 29m-12.775-4.15h6.925l-6.925-9.54v9.54" fill="#3A434E"/></g></svg>