<svg width="32" height="232" viewBox="0 0 32 232" xmlns="http://www.w3.org/2000/svg"><title>cc</title><g fill="none"><path d="M15.986 8c2.24 0 4.144.78 5.714 2.343.753.752 1.323 1.612 1.715 2.58.39.966.585 1.993.585 3.077 0 1.096-.194 2.12-.58 3.08-.383.956-.955 1.802-1.707 2.533-.78.773-1.666 1.364-2.657 1.774-.99.41-2.014.613-3.07.613-1.057 0-2.07-.202-3.037-.608-.97-.404-1.835-.99-2.6-1.756-.768-.768-1.35-1.63-1.75-2.592C8.197 18.08 8 17.066 8 16c0-1.056.2-2.074.606-3.05.404-.975.994-1.85 1.764-2.62C11.895 8.775 13.765 8 15.984 8zm.028 1.444c-1.828 0-3.366.638-4.615 1.914-.628.637-1.11 1.353-1.45 2.15-.34.794-.506 1.627-.506 2.492 0 .858.168 1.683.505 2.48.34.794.822 1.505 1.45 2.128.627.624 1.34 1.1 2.127 1.428.79.327 1.62.492 2.486.492.858 0 1.688-.166 2.495-.5.802-.332 1.53-.815 2.176-1.442 1.247-1.22 1.87-2.748 1.87-4.587 0-.888-.16-1.725-.485-2.516-.324-.79-.796-1.495-1.414-2.114-1.287-1.285-2.834-1.927-4.643-1.927zm-.1 5.228l-1.07.557c-.115-.24-.257-.405-.422-.5-.166-.097-.32-.145-.463-.145-.718 0-1.075.47-1.075 1.414 0 .427.09.77.273 1.03.18.256.445.385.8.385.464 0 .793-.23.985-.686l.986.5c-.21.39-.5.694-.873.92-.37.223-.78.334-1.227.334-.712 0-1.29-.22-1.726-.656-.44-.44-.658-1.048-.658-1.83 0-.76.22-1.366.664-1.815.443-.447 1.002-.67 1.68-.67.988 0 1.7.385 2.126 1.157zm4.614 0l-1.056.557c-.115-.24-.255-.405-.42-.5-.167-.097-.327-.145-.48-.145-.715 0-1.07.47-1.07 1.414 0 .427.09.77.272 1.03.18.256.446.385.798.385.467 0 .795-.23.985-.686l1 .5c-.22.39-.514.694-.886.92-.37.223-.772.334-1.21.334-.726 0-1.304-.22-1.737-.656-.433-.44-.65-1.048-.65-1.83 0-.76.22-1.366.664-1.815.444-.447 1.003-.67 1.68-.67.99 0 1.694.385 2.113 1.157zm0 0" fill="#3B444F"/><path d="M15.986 48c2.24 0 4.144.78 5.714 2.343.753.752 1.323 1.612 1.715 2.58.39.966.585 1.993.585 3.077 0 1.096-.194 2.12-.58 3.08-.383.956-.955 1.802-1.707 2.534-.78.773-1.666 1.364-2.657 1.773-.99.408-2.014.613-3.07.613-1.057 0-2.07-.202-3.037-.608-.97-.404-1.835-.99-2.6-1.756-.768-.767-1.35-1.63-1.75-2.592C8.197 58.08 8 57.066 8 56c0-1.056.2-2.074.606-3.048.404-.977.994-1.85 1.764-2.623 1.525-1.555 3.395-2.33 5.614-2.33zm.028 1.444c-1.828 0-3.366.638-4.615 1.914-.628.637-1.11 1.354-1.45 2.15-.34.794-.506 1.627-.506 2.492 0 .858.168 1.684.505 2.48.34.794.822 1.505 1.45 2.128.627.624 1.34 1.1 2.127 1.428.79.327 1.62.492 2.486.492.858 0 1.688-.166 2.495-.5.802-.333 1.53-.815 2.176-1.442 1.247-1.22 1.87-2.748 1.87-4.587 0-.888-.16-1.726-.485-2.516-.324-.79-.796-1.495-1.414-2.114-1.287-1.284-2.834-1.927-4.643-1.927zm-.1 5.228l-1.07.558c-.115-.24-.257-.404-.422-.5-.166-.095-.32-.143-.463-.143-.718 0-1.075.47-1.075 1.413 0 .428.09.77.273 1.03.18.257.445.386.8.386.464 0 .793-.23.985-.685l.986.5c-.21.39-.5.698-.873.92-.37.226-.78.338-1.227.338-.712 0-1.29-.22-1.726-.657-.44-.437-.658-1.046-.658-1.83 0-.76.22-1.363.664-1.813.443-.447 1.002-.67 1.68-.67.988 0 1.7.386 2.126 1.157zm4.614 0l-1.056.558c-.115-.24-.255-.404-.42-.5-.167-.095-.327-.143-.48-.143-.715 0-1.07.47-1.07 1.413 0 .428.09.77.272 1.03.18.257.446.386.798.386.467 0 .795-.23.985-.685l1 .5c-.22.39-.514.698-.886.92-.37.226-.772.338-1.21.338-.726 0-1.304-.22-1.737-.657-.433-.437-.65-1.046-.65-1.83 0-.76.22-1.363.664-1.813.444-.447 1.003-.67 1.68-.67.99 0 1.694.386 2.113 1.157zm0 0" fill="#67737B"/><path d="M15.986 88c2.24 0 4.144.78 5.714 2.343.753.752 1.323 1.612 1.715 2.58.39.966.585 1.993.585 3.077 0 1.096-.194 2.12-.58 3.08-.383.957-.955 1.802-1.707 2.534-.78.773-1.666 1.364-2.657 1.773-.99.41-2.014.613-3.07.613-1.057 0-2.07-.202-3.037-.608-.97-.404-1.835-.99-2.6-1.756-.768-.767-1.35-1.63-1.75-2.592C8.197 98.08 8 97.066 8 96c0-1.056.2-2.074.606-3.05.404-.976.994-1.85 1.764-2.622 1.525-1.552 3.395-2.33 5.614-2.33zm.028 1.444c-1.828 0-3.366.638-4.615 1.914-.628.637-1.11 1.353-1.45 2.15-.34.794-.506 1.627-.506 2.492 0 .858.168 1.683.505 2.48.34.794.822 1.504 1.45 2.13.627.623 1.34 1.098 2.127 1.427.79.327 1.62.492 2.486.492.858 0 1.688-.168 2.495-.5.802-.334 1.53-.816 2.176-1.444 1.247-1.22 1.87-2.75 1.87-4.587 0-.886-.16-1.725-.485-2.514-.324-.79-.796-1.496-1.414-2.115-1.287-1.284-2.834-1.927-4.643-1.927zm-.1 5.228l-1.07.558c-.115-.24-.257-.404-.422-.5-.166-.095-.32-.143-.463-.143-.718 0-1.075.47-1.075 1.413 0 .428.09.77.273 1.028.18.258.445.388.8.388.464 0 .793-.23.985-.685l.986.5c-.21.39-.5.697-.873.92-.37.225-.78.337-1.227.337-.712 0-1.29-.22-1.726-.657-.44-.44-.658-1.048-.658-1.83 0-.76.22-1.365.664-1.814.443-.447 1.002-.67 1.68-.67.988 0 1.7.384 2.126 1.156zm4.614 0l-1.056.558c-.115-.24-.255-.404-.42-.5-.167-.095-.327-.143-.48-.143-.715 0-1.07.47-1.07 1.413 0 .428.09.77.272 1.028.18.258.446.388.798.388.467 0 .795-.23.985-.685l1 .5c-.22.39-.514.697-.886.92-.37.225-.772.337-1.21.337-.726 0-1.304-.22-1.737-.657-.433-.44-.65-1.048-.65-1.83 0-.76.22-1.365.664-1.814.444-.447 1.003-.67 1.68-.67.99 0 1.694.384 2.113 1.156zm0 0" fill="#fff"/><path d="M15.986 128c2.24 0 4.144.78 5.714 2.343.753.752 1.323 1.612 1.715 2.58.39.966.585 1.993.585 3.077 0 1.095-.194 2.12-.58 3.08-.383.956-.955 1.802-1.707 2.533-.78.773-1.666 1.364-2.657 1.774-.99.41-2.014.613-3.07.613-1.057 0-2.07-.202-3.037-.607-.97-.404-1.835-.99-2.6-1.756-.768-.768-1.35-1.63-1.75-2.592-.403-.964-.6-1.978-.6-3.044 0-1.054.2-2.072.605-3.046.404-.977.994-1.85 1.764-2.623 1.524-1.552 3.394-2.33 5.613-2.33zm.028 1.444c-1.828 0-3.366.638-4.615 1.914-.628.637-1.11 1.353-1.45 2.15-.34.794-.506 1.627-.506 2.492 0 .858.168 1.684.505 2.48.34.794.822 1.505 1.45 2.13.627.623 1.34 1.098 2.127 1.427.79.327 1.62.492 2.486.492.858 0 1.688-.168 2.495-.5.802-.335 1.53-.817 2.176-1.444 1.247-1.22 1.87-2.75 1.87-4.587 0-.887-.16-1.725-.485-2.514-.324-.79-.796-1.495-1.414-2.114-1.287-1.286-2.834-1.928-4.643-1.928zm-.1 5.228l-1.07.558c-.115-.238-.257-.404-.422-.5-.166-.095-.32-.143-.463-.143-.718 0-1.075.47-1.075 1.413 0 .428.09.77.273 1.03.18.257.445.386.8.386.464 0 .793-.23.985-.685l.986.5c-.21.39-.5.697-.873.92-.37.225-.78.337-1.227.337-.712 0-1.29-.22-1.726-.656-.44-.437-.658-1.047-.658-1.83 0-.76.22-1.363.664-1.813.443-.447 1.002-.67 1.68-.67.988 0 1.7.385 2.126 1.156zm4.614 0l-1.056.558c-.115-.238-.255-.404-.42-.5-.167-.095-.327-.143-.48-.143-.715 0-1.07.47-1.07 1.413 0 .428.09.77.272 1.03.18.257.446.386.798.386.467 0 .795-.23.985-.685l1 .5c-.22.39-.514.697-.886.92-.37.225-.772.337-1.21.337-.726 0-1.304-.22-1.737-.656-.433-.437-.65-1.047-.65-1.83 0-.76.22-1.363.664-1.813.444-.447 1.003-.67 1.68-.67.99 0 1.694.385 2.113 1.156zm0 0" fill="#206FAC"/></g></svg>