<svg width="32" height="232" viewBox="0 0 32 232" xmlns="http://www.w3.org/2000/svg"><g fill="none"><path d="M28.9 130.33c1.297 0 2.35-1.064 2.35-2.37 0-1.303-1.053-2.362-2.35-2.362-1.293 0-2.345 1.058-2.345 2.362 0 1.306 1.052 2.37 2.346 2.37m-5.81 2.834s-.42.82-.543 1.09c-.36.79-1.04 2.363-1.212 3.338-.15.843-.262 4.866-.262 4.866l-3.006 2.155c-.966.662-1.52 1.357-1.036 2.12.474.753 1.24.488 2.04.103l2.92-1.97c.74-.46 1.102-.658 1.484-1.538.39-.894.518-3.614.518-3.614l3.228 3.302.004 4.19c0 1.058.34 1.816 1.26 1.795.87-.014 1.132-.68 1.14-1.74 0 0 .297-4.178.03-4.694-.668-1.277-3.555-4.676-3.555-4.676l1.324-3.04c.376.64 2.538 3.847 2.538 3.847.41.602 1.09.97 1.643.58.64-.455.49-1.397-.26-2.42l-2.82-4.506c-.377-.606-.807-.775-1.442-1.153l-1.15-.56c-1.164-.447-2.837 2.53-2.837 2.53zm-7.926-5.068c1.4 0 2.532-1.14 2.532-2.547 0-1.41-1.132-2.55-2.53-2.55-1.396 0-2.53 1.14-2.53 2.55s1.134 2.543 2.53 2.543zm.407 2.398c-.403-.653-.87-.834-1.553-1.24l-1.617-.757c-.67-.28-1.454-.177-2.14.187-.355.186-6.26 4.312-6.26 4.312-.84.77-.99 1.28-.587 1.85.342.484 1.376.445 1.757.1l5.22-3.57-.656 1.092s-1.51 2.59-1.94 3.537c-.38.84-1.536 4.027-1.536 4.027l-4.154-.164c-1.21-.077-1.975.247-2.084 1.065-.133 1 .51 1.327 1.53 1.44l4.508.26c.902.043 1.616 0 2.303-.772l1.336-3.17 2.342 3.906v4.45c0 1.14.22 1.957 1.21 1.936.938-.023 1.22-.736 1.225-1.88v-4.615l-.014-.22c-.01-.23-.048-.422-.105-.596l-2.07-4.32 2.113-4.267c.403.693 2.725 4.256 2.725 4.256.443.65 1.18 1.04 1.772.62.686-.486.525-1.505-.284-2.602l-3.037-4.86zm0 0" fill="#206FAC"/><path d="M28.9 90.33c1.297 0 2.35-1.064 2.35-2.37 0-1.303-1.053-2.362-2.35-2.362-1.293 0-2.345 1.058-2.345 2.362 0 1.306 1.052 2.37 2.346 2.37m-5.81 2.834s-.42.82-.543 1.09c-.36.79-1.04 2.363-1.212 3.338-.15.843-.262 4.866-.262 4.866l-3.006 2.155c-.966.662-1.52 1.357-1.036 2.12.474.753 1.24.488 2.04.103l2.92-1.97c.74-.46 1.102-.658 1.484-1.538.39-.894.518-3.614.518-3.614l3.228 3.302.004 4.19c0 1.058.34 1.816 1.26 1.795.87-.014 1.132-.68 1.14-1.74 0 0 .297-4.178.03-4.694-.668-1.277-3.555-4.676-3.555-4.676l1.324-3.04c.376.64 2.538 3.847 2.538 3.847.41.602 1.09.97 1.643.58.64-.455.49-1.397-.26-2.42l-2.82-4.506c-.377-.606-.807-.775-1.442-1.153l-1.15-.56c-1.164-.447-2.837 2.53-2.837 2.53zm-7.926-5.068c1.4 0 2.532-1.14 2.532-2.547 0-1.41-1.132-2.55-2.53-2.55-1.396 0-2.53 1.14-2.53 2.55s1.134 2.543 2.53 2.543zm.407 2.398c-.403-.653-.87-.834-1.553-1.24l-1.617-.757c-.67-.28-1.454-.177-2.14.187C9.904 88.87 4 92.996 4 92.996c-.84.77-.99 1.28-.586 1.85.342.484 1.376.445 1.757.1l5.22-3.57-.654 1.092s-1.51 2.59-1.94 3.537c-.38.84-1.536 4.027-1.536 4.027l-4.155-.164c-1.21-.077-1.975.247-2.084 1.065-.13 1 .51 1.327 1.53 1.44l4.51.26c.9.043 1.616 0 2.303-.772l1.334-3.17 2.342 3.906v4.45c0 1.14.22 1.957 1.21 1.936.937-.023 1.22-.736 1.224-1.88v-4.615l-.014-.22c-.01-.23-.048-.422-.105-.596l-2.07-4.32 2.113-4.267c.403.693 2.725 4.256 2.725 4.256.443.65 1.18 1.04 1.772.62.686-.486.525-1.505-.284-2.602l-3.036-4.86zm0 0" fill="#fff"/><path d="M28.9 50.33c1.297 0 2.35-1.064 2.35-2.37 0-1.303-1.053-2.362-2.35-2.362-1.293 0-2.345 1.058-2.345 2.362 0 1.306 1.052 2.37 2.346 2.37m-5.81 2.834s-.42.82-.543 1.09c-.36.79-1.04 2.363-1.212 3.338-.15.843-.262 4.866-.262 4.866l-3.006 2.155c-.966.662-1.52 1.357-1.036 2.12.474.753 1.24.488 2.04.103l2.92-1.97c.74-.46 1.102-.658 1.484-1.538.39-.894.518-3.614.518-3.614l3.228 3.302.004 4.19c0 1.058.34 1.816 1.26 1.795.87-.014 1.132-.68 1.14-1.74 0 0 .297-4.178.03-4.694-.668-1.277-3.555-4.676-3.555-4.676l1.324-3.04c.376.64 2.538 3.847 2.538 3.847.41.602 1.09.97 1.643.58.64-.455.49-1.397-.26-2.42l-2.82-4.506c-.377-.606-.807-.775-1.442-1.153l-1.15-.56c-1.164-.447-2.837 2.53-2.837 2.53zm-7.926-5.068c1.4 0 2.532-1.14 2.532-2.547 0-1.41-1.132-2.55-2.53-2.55-1.396 0-2.53 1.14-2.53 2.55s1.134 2.543 2.53 2.543zm.407 2.398c-.403-.653-.87-.834-1.553-1.24l-1.617-.757c-.67-.28-1.454-.177-2.14.187C9.904 48.87 4 52.996 4 52.996c-.84.77-.99 1.28-.586 1.85.342.484 1.376.445 1.757.1l5.22-3.57-.654 1.092s-1.51 2.59-1.94 3.537c-.38.84-1.536 4.027-1.536 4.027l-4.155-.164C.895 59.79.128 60.115.02 60.933c-.133 1 .51 1.327 1.53 1.44l4.508.26c.902.043 1.616 0 2.303-.772l1.336-3.17 2.342 3.906v4.45c0 1.14.22 1.957 1.21 1.936.938-.023 1.22-.736 1.225-1.88v-4.615l-.014-.22c-.01-.23-.048-.422-.105-.596l-2.07-4.32 2.113-4.267c.403.693 2.725 4.256 2.725 4.256.443.65 1.18 1.04 1.772.62.686-.486.525-1.505-.284-2.602l-3.037-4.86zm0 0" fill="#67737B"/><path d="M28.9 10.33c1.297 0 2.35-1.064 2.35-2.37 0-1.303-1.053-2.362-2.35-2.362-1.293 0-2.345 1.058-2.345 2.362 0 1.306 1.052 2.37 2.346 2.37m-5.81 2.834s-.42.82-.543 1.09c-.36.79-1.04 2.363-1.212 3.338-.15.843-.262 4.866-.262 4.866l-3.006 2.155c-.966.662-1.52 1.357-1.036 2.12.474.753 1.24.488 2.04.103l2.92-1.97c.74-.46 1.102-.658 1.484-1.538.39-.894.518-3.614.518-3.614l3.228 3.302.004 4.19c0 1.058.34 1.816 1.26 1.795.87-.014 1.132-.68 1.14-1.74 0 0 .297-4.178.03-4.694-.668-1.277-3.555-4.676-3.555-4.676l1.324-3.04c.376.64 2.538 3.847 2.538 3.847.41.602 1.09.97 1.643.58.64-.455.49-1.397-.26-2.42l-2.82-4.506c-.377-.606-.807-.775-1.442-1.153l-1.15-.56c-1.164-.447-2.837 2.53-2.837 2.53zm-7.93-5.068c1.4 0 2.534-1.14 2.534-2.547 0-1.41-1.132-2.55-2.53-2.55-1.396 0-2.53 1.14-2.53 2.55s1.134 2.543 2.53 2.543zm.41 2.398c-.404-.653-.87-.834-1.554-1.24L12.4 8.497c-.668-.28-1.453-.177-2.14.187C9.905 8.87 4 12.996 4 12.996c-.84.77-.99 1.28-.586 1.85.342.484 1.376.445 1.757.1l5.218-3.57-.655 1.092s-1.51 2.59-1.94 3.537c-.38.84-1.536 4.027-1.536 4.027l-4.154-.164C.893 19.79.128 20.115.02 20.933c-.133 1 .51 1.327 1.53 1.44l4.508.26c.902.043 1.616 0 2.303-.772l1.336-3.17 2.342 3.906v4.45c0 1.14.22 1.957 1.21 1.936.938-.023 1.22-.736 1.225-1.88v-4.615l-.014-.22c-.01-.23-.048-.422-.105-.596l-2.07-4.32 2.113-4.267c.403.693 2.725 4.256 2.725 4.256.443.65 1.18 1.04 1.772.62.686-.486.525-1.505-.284-2.602l-3.037-4.86zm0 0" fill="#3A434E"/></g></svg>