<svg width="32" height="232" viewBox="0 0 32 232" xmlns="http://www.w3.org/2000/svg"><title>children-activities</title><g fill="none"><path d="M28.9 130.33c1.297 0 2.35-1.064 2.35-2.37 0-1.303-1.053-2.362-2.35-2.362-1.293 0-2.345 1.058-2.345 2.362 0 1.306 1.052 2.37 2.346 2.37m-5.812 2.834s-.42.82-.544 1.09c-.36.79-1.04 2.363-1.212 3.338-.15.843-.262 4.866-.262 4.866l-3.007 2.155c-.966.662-1.52 1.357-1.036 2.12.473.753 1.24.488 2.04.103l2.918-1.97c.74-.46 1.103-.658 1.485-1.538.39-.894.517-3.614.517-3.614l3.227 3.302.004 4.19c0 1.058.342 1.816 1.26 1.795.87-.017 1.133-.68 1.14-1.744 0 0 .298-4.177.03-4.693-.667-1.277-3.554-4.676-3.554-4.676l1.325-3.04c.376.64 2.538 3.848 2.538 3.848.41.602 1.09.97 1.643.58.64-.455.488-1.397-.26-2.42l-2.82-4.506c-.378-.608-.808-.777-1.443-1.155l-1.15-.56c-1.165-.447-2.838 2.53-2.838 2.53zm-7.927-5.068c1.4 0 2.532-1.14 2.532-2.547 0-1.407-1.132-2.55-2.53-2.55-1.396 0-2.53 1.143-2.53 2.55s1.134 2.546 2.53 2.546zm.407 2.398c-.403-.653-.868-.834-1.553-1.24l-1.617-.757c-.667-.28-1.452-.177-2.14.187-.353.186-6.26 4.312-6.26 4.312-.84.77-.99 1.28-.585 1.85.342.484 1.376.445 1.757.1l5.218-3.57-.655 1.092s-1.51 2.59-1.94 3.537c-.38.84-1.536 4.027-1.536 4.027l-4.154-.164c-1.21-.077-1.975.247-2.084 1.065-.133 1 .51 1.327 1.53 1.44l4.508.26c.902.043 1.616 0 2.303-.772l1.333-3.17 2.342 3.903v4.45c0 1.14.22 1.957 1.21 1.936.938-.024 1.22-.737 1.225-1.882v-4.614l-.015-.22c-.008-.23-.047-.422-.104-.596l-2.07-4.32 2.113-4.267c.403.692 2.725 4.255 2.725 4.255.443.65 1.18 1.042 1.772.622.686-.487.525-1.506-.284-2.603l-3.038-4.86zm0 0" fill="#206FAC"/><path d="M28.9 90.33c1.297 0 2.35-1.064 2.35-2.37 0-1.303-1.053-2.362-2.35-2.362-1.293 0-2.345 1.058-2.345 2.362 0 1.306 1.052 2.37 2.346 2.37m-5.812 2.834s-.42.82-.544 1.09c-.36.79-1.04 2.363-1.212 3.338-.15.843-.262 4.866-.262 4.866l-3.007 2.155c-.966.662-1.52 1.357-1.036 2.12.473.753 1.24.488 2.04.103l2.918-1.97c.74-.46 1.103-.658 1.485-1.538.39-.894.517-3.614.517-3.614l3.227 3.302.004 4.19c0 1.058.342 1.816 1.26 1.795.87-.017 1.133-.68 1.14-1.744 0 0 .298-4.177.03-4.693-.667-1.277-3.554-4.676-3.554-4.676l1.325-3.04c.376.64 2.538 3.848 2.538 3.848.41.602 1.09.97 1.643.58.64-.455.488-1.397-.26-2.42l-2.82-4.506c-.378-.608-.808-.777-1.443-1.155l-1.15-.56c-1.165-.447-2.838 2.53-2.838 2.53zm-7.927-5.068c1.4 0 2.532-1.14 2.532-2.547 0-1.407-1.132-2.55-2.53-2.55-1.396 0-2.53 1.143-2.53 2.55s1.134 2.546 2.53 2.546zm.407 2.398c-.403-.653-.868-.834-1.553-1.24l-1.617-.757c-.667-.28-1.452-.177-2.14.187-.353.186-6.26 4.312-6.26 4.312-.84.77-.99 1.28-.585 1.85.342.484 1.376.445 1.757.1l5.218-3.57-.655 1.092s-1.51 2.59-1.94 3.537c-.38.84-1.536 4.027-1.536 4.027l-4.154-.164c-1.21-.077-1.975.247-2.084 1.065-.133 1 .51 1.327 1.53 1.44l4.508.26c.902.043 1.616 0 2.303-.772l1.333-3.17 2.342 3.903v4.45c0 1.14.22 1.957 1.21 1.936.938-.024 1.22-.737 1.225-1.882v-4.614l-.015-.22c-.008-.23-.047-.422-.104-.596l-2.07-4.32 2.113-4.267c.403.692 2.725 4.255 2.725 4.255.443.65 1.18 1.042 1.772.622.686-.487.525-1.506-.284-2.603l-3.038-4.86zm0 0" fill="#fff"/><path d="M28.9 50.33c1.297 0 2.35-1.064 2.35-2.37 0-1.303-1.053-2.362-2.35-2.362-1.293 0-2.345 1.058-2.345 2.362 0 1.306 1.052 2.37 2.346 2.37m-5.812 2.834s-.42.82-.544 1.09c-.36.79-1.04 2.363-1.212 3.338-.15.843-.262 4.866-.262 4.866l-3.007 2.155c-.966.662-1.52 1.357-1.036 2.12.473.753 1.24.488 2.04.103l2.918-1.97c.74-.46 1.103-.658 1.485-1.538.39-.894.517-3.614.517-3.614l3.227 3.302.004 4.19c0 1.058.342 1.816 1.26 1.795.87-.017 1.133-.68 1.14-1.744 0 0 .298-4.177.03-4.693-.667-1.277-3.554-4.676-3.554-4.676l1.325-3.04c.376.64 2.538 3.848 2.538 3.848.41.602 1.09.97 1.643.58.64-.455.488-1.397-.26-2.42l-2.82-4.506c-.378-.608-.808-.777-1.443-1.155l-1.15-.56c-1.165-.447-2.838 2.53-2.838 2.53zm-7.927-5.068c1.4 0 2.532-1.14 2.532-2.547 0-1.407-1.132-2.55-2.53-2.55-1.396 0-2.53 1.143-2.53 2.55s1.134 2.546 2.53 2.546zm.407 2.398c-.403-.653-.868-.834-1.553-1.24l-1.617-.757c-.667-.28-1.452-.177-2.14.187-.353.186-6.26 4.312-6.26 4.312-.84.77-.99 1.28-.585 1.85.342.484 1.376.445 1.757.1l5.218-3.57-.655 1.092s-1.51 2.59-1.94 3.537c-.38.84-1.536 4.027-1.536 4.027l-4.154-.164C.893 59.79.128 60.115.02 60.933c-.133 1 .51 1.327 1.53 1.44l4.508.26c.902.043 1.616 0 2.303-.772l1.333-3.17 2.342 3.903v4.45c0 1.14.22 1.957 1.21 1.936.938-.024 1.22-.737 1.225-1.882v-4.614l-.015-.22c-.008-.23-.047-.422-.104-.596l-2.07-4.32 2.113-4.267c.403.692 2.725 4.255 2.725 4.255.443.65 1.18 1.042 1.772.622.686-.487.525-1.506-.284-2.603l-3.038-4.86zm0 0" fill="#67737B"/><path d="M28.9 10.33c1.297 0 2.35-1.064 2.35-2.37 0-1.303-1.053-2.362-2.35-2.362-1.293 0-2.345 1.058-2.345 2.362 0 1.306 1.052 2.37 2.346 2.37m-5.812 2.834s-.42.82-.544 1.09c-.36.79-1.04 2.363-1.212 3.338-.15.843-.262 4.866-.262 4.866l-3.007 2.155c-.966.662-1.52 1.357-1.036 2.12.473.753 1.24.488 2.04.103l2.918-1.97c.74-.46 1.103-.658 1.485-1.538.39-.894.517-3.614.517-3.614l3.227 3.302.004 4.19c0 1.058.342 1.816 1.26 1.795.87-.017 1.133-.68 1.14-1.744 0 0 .298-4.177.03-4.693-.667-1.277-3.554-4.676-3.554-4.676l1.325-3.04c.376.64 2.538 3.848 2.538 3.848.41.602 1.09.97 1.643.58.64-.455.488-1.397-.26-2.42l-2.82-4.506c-.378-.608-.808-.777-1.443-1.155l-1.15-.56c-1.165-.447-2.838 2.53-2.838 2.53zM15.16 8.096c1.4 0 2.532-1.14 2.532-2.547 0-1.407-1.132-2.55-2.53-2.55-1.396 0-2.53 1.143-2.53 2.55s1.134 2.546 2.53 2.546zm.407 2.398c-.403-.653-.868-.834-1.553-1.24l-1.617-.757c-.667-.28-1.452-.177-2.14.187-.353.186-6.26 4.312-6.26 4.312-.84.77-.99 1.28-.585 1.85.342.484 1.376.445 1.757.1l5.218-3.57-.655 1.092s-1.51 2.59-1.94 3.537c-.38.84-1.536 4.027-1.536 4.027l-4.154-.164C.893 19.79.128 20.115.02 20.933c-.133 1 .51 1.327 1.53 1.44l4.508.26c.902.043 1.616 0 2.303-.772l1.333-3.17 2.342 3.903v4.45c0 1.14.22 1.957 1.21 1.936.938-.024 1.22-.737 1.225-1.882v-4.614l-.015-.22c-.008-.23-.047-.422-.104-.596l-2.07-4.32 2.113-4.267c.403.692 2.725 4.255 2.725 4.255.443.65 1.18 1.042 1.772.622.686-.487.525-1.506-.284-2.603l-3.038-4.86zm0 0" fill="#3A434E"/></g></svg>