<svg width="32" height="232" viewBox="0 0 32 232" xmlns="http://www.w3.org/2000/svg"><g fill="none"><path d="M23.232 142.623c-1.768 1.098-3.978 1.797-6.393 1.938l-4.7 4.455v-4.945c-4.446-1.216-7.64-4.448-7.64-8.277 0-4.858 5.143-8.79 11.49-8.79s11.507 3.932 11.507 8.79c0 2.732-1.637 5.18-4.203 6.792l-.067.04zm0 0" fill="#206FAC"/><path d="M23.232 102.623c-1.768 1.098-3.978 1.797-6.393 1.938l-4.7 4.455v-4.945c-4.446-1.218-7.64-4.45-7.64-8.28C4.5 90.933 9.645 87 15.993 87 22.34 87 27.5 90.932 27.5 95.79c0 2.732-1.636 5.18-4.202 6.792l-.067.04zm0 0" fill="#fff"/><path d="M23.232 62.623c-1.768 1.098-3.978 1.797-6.393 1.938l-4.7 4.455V64.07c-4.446-1.22-7.64-4.45-7.64-8.28C4.5 50.933 9.646 47 15.994 47 22.34 47 27.5 50.932 27.5 55.79c0 2.732-1.636 5.18-4.202 6.792l-.067.04zm0 0" fill="#67737B"/><path d="M23.232 22.623c-1.768 1.098-3.978 1.797-6.393 1.938l-4.7 4.455V24.07c-4.446-1.22-7.64-4.45-7.64-8.28C4.5 10.933 9.646 7 15.994 7 22.34 7 27.5 10.932 27.5 15.79c0 2.732-1.636 5.18-4.202 6.792l-.067.04zm0 0" fill="#3A434E"/></g></svg>