<svg width="32" height="232" viewBox="0 0 32 232" xmlns="http://www.w3.org/2000/svg"><g fill="none"><path d="M26.795 124H9.285c-1.77 0-3.2 1.428-3.2 3.186v.582h.893c2.153 0 3.895 1.734 3.895 3.87s-1.74 3.87-3.895 3.87h-.893v1.31h.893c2.153 0 3.895 1.733 3.895 3.866 0 2.14-1.74 3.875-3.895 3.875h-.893v1.25c0 1.76 1.43 3.187 3.2 3.187h17.51c1.77 0 3.205-1.43 3.205-3.188V127.18c0-1.758-1.435-3.186-3.205-3.186zm-13.173 18.195s-.015-1.7.5-2.363c.302-.285 1.773-1.26 3.365-1.494 1.585-.234 1.05-1.98 1.1-1.957.056.03-.007-.37-.007-.37s-.88-1.1-.87-2.1c.017-.997 0-1.647 0-1.647s-.026-2.366 1.595-2.366l1 .437c1.46 0 1.56 1.93 1.56 1.93v1.79s.004 1.363-.912 1.88c0 0-.063.4-.01.372.05-.024-.16 1.804 1.427 2.038 1.59.234 2.77 1.21 3.07 1.494.3.284.502 2.363.502 2.363H13.62zm-9.153-8.103h2.504c1.368 0 2.47-1.096 2.47-2.453 0-1.36-1.102-2.46-2.47-2.46H4.47c-1.366 0-2.47 1.1-2.47 2.456s1.104 2.452 2.47 2.452zm4.974 6.592c0-1.355-1.1-2.453-2.47-2.453H4.47c-1.365 0-2.47 1.1-2.47 2.457 0 1.36 1.105 2.46 2.47 2.46h2.508c1.368 0 2.47-1.1 2.47-2.46zm0 0" fill="#206FAC"/><path d="M26.795 84H9.285c-1.77 0-3.2 1.428-3.2 3.186v.582h.893c2.153 0 3.895 1.734 3.895 3.87s-1.74 3.87-3.895 3.87h-.893v1.31h.893c2.153 0 3.895 1.733 3.895 3.866 0 2.14-1.74 3.875-3.895 3.875h-.893v1.25c0 1.76 1.43 3.187 3.2 3.187h17.51c1.77 0 3.205-1.43 3.205-3.188V87.185C30 85.428 28.565 84 26.795 84zm-13.173 18.195s-.015-1.7.5-2.363c.302-.285 1.773-1.26 3.365-1.494 1.585-.234 1.05-1.98 1.1-1.957.056.03-.007-.37-.007-.37s-.88-1.1-.87-2.1c.017-.997 0-1.647 0-1.647s-.026-2.366 1.595-2.366l1 .437c1.46 0 1.56 1.93 1.56 1.93v1.79s.004 1.363-.912 1.88c0 0-.063.4-.01.372.05-.024-.16 1.804 1.427 2.038 1.59.234 2.77 1.21 3.07 1.494.3.284.502 2.363.502 2.363H13.62zM4.47 94.092h2.507c1.368 0 2.47-1.096 2.47-2.453 0-1.36-1.102-2.46-2.47-2.46H4.47C3.103 89.18 2 90.28 2 91.64s1.104 2.45 2.47 2.45zm4.977 6.592c0-1.355-1.1-2.453-2.47-2.453H4.47c-1.365 0-2.47 1.1-2.47 2.457 0 1.36 1.105 2.46 2.47 2.46h2.508c1.368 0 2.47-1.1 2.47-2.46zm0 0" fill="#fff"/><path d="M26.795 44H9.285c-1.77 0-3.2 1.428-3.2 3.186v.582h.893c2.153 0 3.895 1.734 3.895 3.87s-1.74 3.87-3.895 3.87h-.893v1.31h.893c2.153 0 3.895 1.733 3.895 3.866 0 2.14-1.74 3.875-3.895 3.875h-.893v1.25c0 1.76 1.43 3.187 3.2 3.187h17.51C28.565 69 30 67.57 30 65.812V47.186C30 45.428 28.565 44 26.795 44zM13.622 62.195s-.015-1.7.5-2.363c.302-.285 1.773-1.26 3.365-1.494 1.585-.234 1.05-1.98 1.1-1.957.056.03-.007-.37-.007-.37s-.88-1.1-.87-2.1c.017-.997 0-1.647 0-1.647s-.026-2.366 1.595-2.366l1 .437c1.46 0 1.56 1.93 1.56 1.93v1.79s.004 1.363-.912 1.88c0 0-.063.4-.01.372.05-.024-.16 1.804 1.427 2.038 1.59.234 2.77 1.21 3.07 1.494.3.284.502 2.363.502 2.363H13.62zM4.47 54.092h2.507c1.368 0 2.47-1.096 2.47-2.453 0-1.36-1.102-2.46-2.47-2.46H4.47C3.103 49.18 2 50.28 2 51.64s1.104 2.45 2.47 2.45zm4.977 6.592c0-1.355-1.1-2.453-2.47-2.453H4.47c-1.365 0-2.47 1.1-2.47 2.457 0 1.36 1.105 2.46 2.47 2.46h2.508c1.368 0 2.47-1.1 2.47-2.46zm0 0" fill="#67737B"/><path d="M26.795 4H9.285c-1.77 0-3.2 1.428-3.2 3.186v.582h.893c2.153 0 3.895 1.734 3.895 3.87s-1.74 3.87-3.895 3.87h-.893v1.31h.893c2.153 0 3.895 1.733 3.895 3.866 0 2.14-1.74 3.875-3.895 3.875h-.893v1.25c0 1.76 1.43 3.187 3.2 3.187h17.51C28.565 29 30 27.57 30 25.812V7.186C30 5.428 28.565 4 26.795 4zM13.622 22.195s-.015-1.7.5-2.363c.302-.285 1.773-1.26 3.365-1.494 1.585-.234 1.05-1.98 1.1-1.957.056.03-.007-.37-.007-.37s-.88-1.1-.87-2.1c.017-.997 0-1.647 0-1.647s-.026-2.366 1.595-2.366l1 .437c1.46 0 1.56 1.93 1.56 1.93v1.79s.004 1.363-.912 1.88c0 0-.063.4-.01.372.05-.024-.16 1.804 1.427 2.038 1.59.234 2.77 1.21 3.07 1.494.3.284.502 2.363.502 2.363H13.62zM4.47 14.092h2.507c1.368 0 2.47-1.096 2.47-2.453 0-1.36-1.102-2.46-2.47-2.46H4.47C3.103 9.18 2 10.28 2 11.64s1.104 2.45 2.47 2.45zm4.977 6.592c0-1.355-1.1-2.453-2.47-2.453H4.47c-1.365 0-2.47 1.1-2.47 2.457 0 1.36 1.105 2.46 2.47 2.46h2.508c1.368 0 2.47-1.1 2.47-2.46zm0 0" fill="#3A434E"/></g></svg>