<svg width="32" height="32" viewBox="0 0 32 32" xmlns="http://www.w3.org/2000/svg"><title>destination--disk</title><desc>Created with Sketch.</desc><g fill="none"><circle fill="#0FDDCF" cx="16" cy="16" r="14"/><path d="M16 8c3.036 0 5.5 2.182 5.5 5.46 0 3.203-2.776 4.58-4.253 6.63C16.037 21.76 16 23 16 23s-.01-1.245-1.247-2.91c-1.52-2.05-4.254-3.33-4.254-6.63C10.5 10.18 12.96 8 15.997 8zm0 3.046c-1.292 0-2.338 1.045-2.338 2.337 0 1.29 1.046 2.336 2.337 2.336 1.29 0 2.337-1.048 2.337-2.337 0-1.292-1.048-2.337-2.338-2.337z" fill="#fff"/></g></svg>