<svg width="32" height="232" viewBox="0 0 32 232" xmlns="http://www.w3.org/2000/svg"><g fill="none"><path d="M14.418 142.336l.03.298.053.597.17.25-.034.008c-.254.04-.493.065-.692.074.122-.132.188-.264.188-.264l.006-.223-.005-.472-.01-.273.3.01zm1.11-.06l.024.27.052.604-.084.15.5-.134c.724-.204 1.443-.47 1.443-.47l.82-.266c.522-.177 1.2-.415 1.942-.72.37-.15.758-.32 1.135-.51.187-.096.373-.197.538-.304l.212-.16.128-.15c.086-.134.165-.315.23-.507.062-.198.116-.407.16-.62.092-.422.15-.862.195-1.294.093-.864.13-1.7.15-2.418.017-.51.02-.945.02-1.255l-.005-.282-.236-.113v-.03c.015-.08.062-.21.147-.363.08-.154.204-.332.36-.512l.03-.032.045.026-.063-.21-.072-.27-.04-.164v-.005.004l-.167.13c-.095.064-.19.13-.35.173l-.147.012-.043-.003-.053-.006-.185-.04c-.238-.07-.428-.19-.58-.317-.15-.127-.265-.26-.347-.377-.207-.292-.24-.547-.24-.547l-.004-.18.05-.214.07-.117.077-.09c.115-.117.248-.22.39-.31.144-.095.294-.174.43-.237.18-.083.317-.125.41-.15l-.05-.022-.035-.016-.236-.112c-.144-.06-.35-.136-.596-.16-.255-.023-.516.023-.765.14-.254.116-.49.292-.74.49-.13.102-.26.21-.418.31l-.27.144-.22.05.13.118.175.184.196.223.12.143.066.08.032.042.107.14c.363.483.72 1.053.98 1.722.103.01.213.047.315.1.113.06.222.132.33.22l.16.135.076.076.037.04.045.05.133.23.068.21c.034.134.05.26.06.365.02.217-.006.37-.006.37-.002 0-.02.1-.1.237l-.036.06-.052.062-.134.097c-.097.048-.21.046-.295.013l-.094-.045-.053-.044-.056-.076.015-.087.106-.024.066-.004.045-.017.024-.02.02-.053-.002-.017.004-.03v-.067l-.004-.074v-.26l-.05-.272-.046-.137-.027-.056-.023-.03c-.092-.103-.205-.2-.308-.276.07.274.12.56.145.853.023.22.027.447.02.674-.01.223-.03.458-.066.688-.147.92-.518 1.836-1.074 2.676-.557.837-1.303 1.617-2.27 2.186-.24.142-.495.272-.77.377-.265.106-.54.19-.817.256-.267.063-.536.112-.807.146zm2.828-11.826c-.01-.102.004-.203.03-.292.034-.118.092-.22.156-.31l.202-.23.222-.195c.155-.117.32-.22.49-.306.345-.175.71-.295 1.078-.37.736-.153 1.497-.12 2.164.09.336.103.645.246.92.418.137.085.267.176.384.272.128.098.24.215.326.336.18.242.29.496.373.735l.11.35.036.165.016.068.07.45.025.488c.008.277-.004.626-.037.912l-.042.33.215.05c.195.038.3.114.33.216.036.1-.003.22-.08.324l-.04.053c.046.21.13.63.224 1.165.09.5.176 1.057.255 1.65.077.594.15 1.223.19 1.872.04.65.05 1.318-.02 1.99-.034.335-.093.67-.185 1-.097.327-.226.648-.4.94-.17.292-.385.552-.616.773-.23.22-.476.398-.715.548-.24.15-.477.275-.703.378l-.323.14-.155.06-.09.035c-.415.156-.674.228-.674.228 0 .003-.31.086-.735.177-.422.093-.954.195-1.393.283-.5.1-.76.163-.85.187.166-.002.36.04.57.146l.044.038c.002.018-.004.29.037.71.038.424.125.985.238 1.545.227 1.12.55 2.228.547 2.228 0 0 .095.75.093 1.3.043.924-.3.656-.593.154-.004.03-.153-.275-.298-.592l-.287-.646s-.326-1.116-.557-2.27c-.117-.58-.208-1.167-.25-1.628-.044-.457-.04-.782-.04-.8l.027-.035c.08-.06.22-.126.4-.142l.066-.002c.113-.033.45-.15.85-.305-.047.014.475-.18.996-.404.524-.22 1.037-.47 1.035-.472l.164-.074.194-.088.118-.057.148-.075c.34-.17.735-.385 1.118-.675.38-.29.736-.657.974-1.126.24-.47.372-1.036.44-1.634.066-.597.078-1.23.078-1.85-.002-.624-.018-1.24-.027-1.826-.01-.585-.016-1.14-.016-1.642 0-.47.008-.854.014-1.088l-.052.043-.26.18-.32.07c-.195.036-.47.06-.747.03-.214-.02-.424-.072-.597-.13l.044.164c.084.306.184.737.27 1.255.12.72.21 1.56.21 2.466.003.452-.018.92-.083 1.4-.03.24-.077.482-.14.73-.07.245-.156.495-.297.752-.072.13-.163.26-.285.386l-.05.047-.043.04-.084.07-.17.13c-.22.152-.434.27-.65.38-.43.22-.847.39-1.25.54-.806.3-1.54.503-2.127.646-.63.148-1.024.215-1.024.215s-.427.06-1.01.108c-.438.035-.964.057-1.453.054H15l-.386-.012c-.3-.01-.537-.032-.718-.054l-.09.076c-.158.152-.305.106-.385.048l-.114-.093-.098-.087-.09-.15-.087-.17c.003 0 .01-.294-.003-.613l-.017-.42c-.6-.102-1.19-.26-1.763-.475-.27-.102-.54-.216-.802-.344l-.39-.203-.385-.235c-.5-.332-.948-.74-1.324-1.202-.372-.464-.67-.984-.883-1.528-.214-.544-.344-1.112-.4-1.68-.053-.57-.044-1.137.042-1.696l.06-.375-.113.046c-.057.035-.124.09-.185.17-.064.08-.12.176-.167.282-.093.21-.135.45-.14.62l.02.27.008.152c.01.082.03.163.097.22l.17.078.062.068-.083.092c-.05.03-.133.055-.233.048l-.132-.028c-.083-.03-.186-.11-.253-.196-.14-.176-.183-.368-.184-.368 0 0-.033-.158-.022-.383.01-.225.065-.516.187-.795.06-.137.14-.273.234-.394.096-.12.21-.223.333-.294.12-.07.242-.11.33-.12l.145-.016.022.013.003.004c.05-.227.105-.454.167-.68.146-.52.325-1.027.55-1.52.228-.487.5-.96.845-1.39.17-.217.36-.42.57-.607l.336-.275.33-.22c.44-.276.887-.51 1.337-.718.452-.208.91-.384 1.373-.524.466-.14.94-.24 1.426-.28.3-.024.59-.02.85.015.26.03.492.09.683.16.383.145.584.313.603.32l.057.08c.076.157.098.38-.012.527-.052.076-.13.132-.24.17-.107.04-.24.062-.4.083l-.073-.002c-.014-.005-.11-.09-.33-.173-.218-.084-.58-.147-1.045-.11-.77.062-1.618.337-2.446.717-.413.19-.828.41-1.217.66l-.142.094-.067.047-.062.048-.12.095-.12.11c-.16.146-.31.312-.448.49-.554.72-.935 1.634-1.19 2.595-.13.483-.228.98-.295 1.484l-.034.36-.01.37c0 .245.012.49.044.734.122.974.514 1.918 1.17 2.656.325.37.712.69 1.142.95l.33.18.352.17c.235.106.477.2.724.282.986.333 2.035.488 3.04.433.5-.03.993-.11 1.452-.253l.338-.117.316-.138c.21-.105.413-.224.604-.356.77-.528 1.39-1.244 1.828-2.006.44-.76.7-1.577.744-2.347.053-.78-.116-1.51-.402-2.15-.142-.32-.313-.62-.497-.893l-.29-.4-.093-.118c-.334-.41-.573-.64-.572-.64 0 0-.25-.304-.63-.69-.374-.387-.888-.848-1.327-1.227-.38-.31-.63-.518-.76-.657-.132-.137-.15-.21-.076-.23.144-.04.645.125 1.21.415-.048-.044.62.315 1.257.767l.316.23zm5.083 2.79v-.014l.02-.26.012-.28.003-.173-.005-.422-.007-.193-.004-.053v-.042h-.007l-.055.04-.374.266-.112.08-.03.02-.015.01-.03.015-.113.067-.11.05-.076.02h-.005l.002.01v.042h-.002l.01-.053h-.014l-.018-.006-.01-.002-.023-.005-.103-.03c-.14-.052-.278-.143-.385-.233-.11-.095-.196-.192-.257-.27-.138-.18-.17-.297-.17-.297l-.052-.152-.004-.06.02-.067.122-.207c.103-.14.224-.273.318-.364l.15-.132c.113-.097.23-.174.327-.224l.06-.03.072.02-.03-.038.09-.03-.088.017h-.01l-.07-.075-.025-.027-.216-.167c-.132-.092-.335-.22-.62-.29-.29-.08-.64-.07-.954.038-.322.1-.615.28-.886.46l-.396.258-.183.09-.02.007-.01.005-.024.003h-.05c-.063-.012-.125-.06-.14-.116-.022-.052-.01-.143.055-.246l.05-.08.07-.083.16-.158c.117-.105.244-.2.38-.284.275-.17.58-.303.897-.39.637-.177 1.315-.185 1.92-.047.302.067.588.175.848.304l.37.218.168.118.142.125c.18.18.307.4.404.608.097.21.167.42.222.612l.03.12.02.083.03.134.026.113.042.226.064.5c.036.362.02.72.024.69l-.02.344-.098-.02-.158-.03s-.346.108-.664.07c-.16-.016-.32-.06-.434-.107l-.055-.023zm-3.758-1.826l-.008-.004-.033-.016.034-.01.01-.005.17-.07.35-.16c.248-.11.505-.2.505-.2l.31-.08.117-.06-.09.104-.112.117-.13.12-.153.09c-.097.05-.228.11-.367.15-.142.04-.29.06-.405.055l-.14-.017-.056-.02zm-1.387-2.548l-.018.005-.08.03.046-.06.014-.02.094-.1c.06-.06.148-.136.263-.21l.067-.04.238-.118.25-.063c.15-.03.335-.04.49-.033l.257.016.045.003c-.027 0-.155.02-.3.07l-.333.12-.34.144-.198.076-.07.025-.3.113-.13.044zm-2.49-7.153l-.053.028c-.12.036-.303.08-.484.04-.09-.02-.18-.064-.253-.152-.072-.09-.132-.223-.133-.43l.02-.106.12-.15c.07-.08.18-.2.337-.327.157-.128.365-.264.62-.37.127-.055.263-.102.41-.14l.11-.025.095-.02.247-.043c.12-.014.28-.02.435-.007.152.01.3.04.397.066.21.054.396.14.548.238.15.098.27.206.353.3.17.19.225.32.227.32-.002 0 .074.13.13.36.025.113.045.255.047.395.003.144-.005.32-.05.502-.047.184-.134.375-.257.54-.122.168-.275.305-.434.414-.317.216-.647.337-.935.43-.242.086-.44.145-.6.19l-.376.104c-.188.045-.26.032-.246-.04.013-.073.12-.203.3-.344.178-.144.426-.296.68-.455l.322-.212c.203-.137.453-.343.54-.558.05-.107.065-.215.06-.33-.003-.11-.032-.245-.06-.325-.065-.17-.143-.234-.14-.237l-.08-.09c-.057-.055-.158-.126-.32-.17l-.19-.03-.223.005-.138.024-.094.02-.07.016-.245.082c-.15.063-.266.14-.354.212-.18.146-.26.272-.267.28zm-.43 3.204c.035-.26.475-.433.68-.336.202.1.418.65.258.91-.155.238-.654.268-.8.02-.108-.18-.157-.405-.14-.59zm-4.886 24.148l.014-.01c.078-.03.28-.075.52 0l.022.01-.002 1.318s-.057.21-.143.36c-.12.253-.24.15-.304-.005-.014.016-.107-.372-.107-.372v-1.3zm4.033-14.966c-.027-.26.405-.52.647-.47.24.05.61.54.505.825-.11.26-.64.394-.853.185-.16-.154-.27-.362-.296-.543zm-2.742.162c-.63.263-.114 1.09.44.91.557-.182.903-.827-.354-.99l-.084.08zm3.095 13.87l.002-.045.04.004.052-.006.064-.015.03-.01-.016.006-.03.012-.07.033-.17.058-.106-.003-.063-.04-.014-.024-.012-.043.004-.076.024-.06.045-.063.07-.054.06-.026.05-.014.08-.007.044.004.09.033.09.05.177.137.213.17.112.08.047.03.013.007h.002l-.004.01-.005.01-.02.05-.017.047-.01.04.038-.168.05.022c.235.096.56.108.79.065.237-.04.382-.115.382-.115l.18-.043c.106-.03.233-.083.346-.14.172-.11.258-.16.308-.11.05.048.047.188-.027.338.016-.01-.082.165-.23.305-.147.143-.332.247-.332.247s-.212.102-.534.153c-.32.053-.75.048-1.136-.11l.047.018-.16-.065-.1-.06-.15-.107-.224-.18-.132-.1-.01-.007.02-.04.045-.08.054-.12zm.225-1.893l-.015.01-.24.04c-.11.01-.245.01-.38-.1l-.024-.03.04-.166c.03-.097.095-.234.206-.358.113-.126.264-.232.428-.31.165-.08.344-.132.52-.164.356-.07.708-.058.97-.02.26.036.433.096.433.096l.243.14c.133.09.29.24.36.402.07.133.065.234.05.287l-.086.07-.25-.135-.246-.105-.3-.06s-.123-.04-.326-.065c-.196-.026-.475-.03-.732.02-.128.026-.25.065-.348.112-.097.047-.17.103-.213.153-.086.095-.08.175-.086.18zm-.68 1.39l-.02-.006-.2-.137c-.084-.067-.183-.162-.18-.34l.013-.04.155-.09c.092-.05.217-.098.363-.14.294-.086.668-.145 1.035-.18.734-.07 1.45-.07 1.45-.07s.47.06.793.16c.55.14.33.28-.014.356.035.012-.81.12-.808.126 0 0-.696 0-1.373.067-.337.033-.67.09-.893.156l-.245.092-.076.045zm-1.784-4.323l.082-.006c.154.017.353.09.46.236.108.147.117.365-.036.677l-.054.07-.445.21c-.263.137-.626.35-1.06.635-.316.205-.736.495-1.165.77-.215.135-.43.266-.628.38l-.145.08-.07.04-.016.01-.005.002H9.55l-.075-.16-.003.003v.014l.01.05.05.04.024.025.012.01.002.004-.006.006-.03.04-.12.267-.08.257-.052.238s-.11.36-.222.887c-.112.525-.227 1.206-.336 1.768-.082.513-.15.837-.217 1.008l-.007-.034-.002.014-.032.028-.008.01v.002l-.004-.005-.008-.014-.01-.013-.005-.006h.007l.013-.005.062-.015.07.024.004.064-.01.048-.02.03-.02.014-.034.017-.054.007-.054-.015-.034-.02-.017-.014-.012-.013-.006-.01-.024-.027-.017-.068c-.072-.21-.132-.61-.16-1.068-.015.062-.044-.663-.022-1.414.01-.373.037-.753.07-1.05.03-.29.07-.494.07-.494l.063-.243.094-.293c.045-.12.1-.256.205-.424l.11-.15.08-.087.05-.048.03-.02.037-.03.042-.03.02-.015.016-.01.035-.02.06-.034.135-.07.58-.356c.405-.26.83-.555 1.164-.773.45-.296.855-.535 1.16-.69.302-.158.497-.24.516-.247zm2.53-4.438l.008.015c.015.084.025.293-.162.475l-.022.018-.314-.106c-.177-.057-.4-.12-.624-.14-.24-.026-.477-.03-.64-.013l-.26.046-.164.016-.336.074c-.185.06-.27.057-.287.004-.018-.05.03-.15.116-.25-.012.006.097-.105.24-.2.14-.097.31-.164.31-.164s.14-.04.353-.06c.21-.02.483-.01.74.017.283.027.548.106.734.167l.31.102zm0 0" fill="#fff"/><path d="M14.418 62.336l.03.298.053.597.17.25-.034.008c-.254.04-.493.065-.692.074.122-.132.188-.264.188-.264l.006-.223-.005-.472-.01-.273.3.01zm1.11-.06l.024.27.052.604-.084.15.5-.134c.724-.204 1.443-.47 1.443-.47l.82-.266c.522-.177 1.2-.415 1.942-.72.37-.15.758-.32 1.135-.51.187-.096.373-.197.538-.304l.212-.16.128-.15c.086-.134.165-.315.23-.507.062-.198.116-.407.16-.62.092-.422.15-.862.195-1.294.093-.864.13-1.7.15-2.418.017-.51.02-.945.02-1.255l-.005-.282-.236-.113v-.03c.015-.08.062-.21.147-.363.08-.154.204-.332.36-.512l.03-.032.045.026-.063-.21-.072-.27-.04-.164v-.005.004l-.167.13c-.095.064-.19.13-.35.173l-.147.012-.043-.003-.053-.006-.185-.04c-.238-.07-.428-.19-.58-.317-.15-.127-.265-.26-.347-.377-.207-.292-.24-.547-.24-.547l-.004-.18.05-.214.07-.117.077-.09c.115-.117.248-.22.39-.31.144-.095.294-.174.43-.237.18-.083.317-.125.41-.15l-.05-.022-.035-.016-.236-.112c-.144-.06-.35-.136-.596-.16-.255-.023-.516.023-.765.14-.254.116-.49.292-.74.49-.13.102-.26.21-.418.31l-.27.144-.22.05.13.118.175.184.196.223.12.143.066.08.032.042.107.14c.363.483.72 1.053.98 1.722.103.01.213.047.315.1.113.06.222.132.33.22l.16.135.076.076.037.04.045.05.133.23.068.21c.034.134.05.26.06.365.02.217-.006.37-.006.37-.002 0-.02.1-.1.237l-.036.06-.052.062-.134.097c-.097.048-.21.046-.295.013l-.094-.045-.053-.044-.056-.076.015-.087.106-.024.066-.004.045-.017.024-.02.02-.053-.002-.017.004-.03v-.067l-.004-.074v-.26l-.05-.272-.046-.137-.027-.056-.023-.03c-.092-.103-.205-.2-.308-.276.07.274.12.56.145.853.023.22.027.447.02.674-.01.223-.03.458-.066.688-.147.92-.518 1.836-1.074 2.676-.557.837-1.303 1.617-2.27 2.186-.24.142-.495.272-.77.377-.265.106-.54.19-.817.256-.267.063-.536.112-.807.146zm2.828-11.826c-.01-.102.004-.203.03-.292.034-.118.092-.22.156-.31l.202-.23.222-.195c.155-.117.32-.22.49-.306.345-.175.71-.295 1.078-.37.736-.153 1.497-.12 2.164.09.336.103.645.246.92.418.137.085.267.176.384.272.128.098.24.215.326.336.18.242.29.496.373.735l.11.35.036.165.016.068.07.45.025.488c.008.277-.004.626-.037.912l-.042.33.215.05c.195.038.3.114.33.216.036.1-.003.22-.08.324l-.04.053c.046.21.13.63.224 1.165.09.5.176 1.057.255 1.65.077.594.15 1.223.19 1.872.04.65.05 1.318-.02 1.99-.034.335-.093.67-.185 1-.097.327-.226.648-.4.94-.17.292-.385.552-.616.773-.23.22-.476.398-.715.548-.24.15-.477.275-.703.378l-.323.14-.155.06-.09.035c-.415.156-.674.228-.674.228 0 .003-.31.086-.735.177-.422.093-.954.195-1.393.283-.5.1-.76.163-.85.187.166-.002.36.04.57.146l.044.038c.002.018-.004.29.037.71.038.424.125.985.238 1.545.227 1.12.55 2.228.547 2.228 0 0 .095.75.093 1.3.043.924-.3.656-.593.154-.004.03-.153-.275-.298-.592l-.287-.646s-.326-1.116-.557-2.27c-.117-.58-.208-1.167-.25-1.628-.044-.457-.04-.782-.04-.8l.027-.035c.08-.06.22-.126.4-.142l.066-.002c.113-.033.45-.15.85-.305-.047.014.475-.18.996-.404.524-.22 1.037-.47 1.035-.472l.164-.074.194-.088.118-.057.148-.075c.34-.17.735-.385 1.118-.675.38-.29.736-.657.974-1.126.24-.47.372-1.036.44-1.634.066-.597.078-1.23.078-1.85-.002-.624-.018-1.24-.027-1.826-.01-.585-.016-1.14-.016-1.642 0-.47.008-.854.014-1.088l-.052.043-.26.18-.32.07c-.195.036-.47.06-.747.03-.214-.02-.424-.072-.597-.13l.044.164c.084.306.184.737.27 1.255.12.72.21 1.56.21 2.466.003.452-.018.92-.083 1.4-.03.24-.077.482-.14.73-.07.245-.156.495-.297.752-.072.13-.163.26-.285.386l-.05.047-.043.04-.084.07-.17.13c-.22.152-.434.27-.65.38-.43.22-.847.39-1.25.54-.806.3-1.54.503-2.127.646-.63.148-1.024.215-1.024.215s-.427.06-1.01.108c-.438.035-.964.057-1.453.054H15l-.386-.012c-.3-.01-.537-.032-.718-.054l-.09.076c-.158.152-.305.106-.385.048l-.114-.093-.098-.087-.09-.15-.087-.17c.003 0 .01-.294-.003-.613l-.017-.42c-.6-.102-1.19-.26-1.763-.475-.27-.102-.54-.216-.802-.344l-.39-.203-.385-.235c-.5-.332-.948-.74-1.324-1.202-.372-.464-.67-.984-.883-1.528-.214-.544-.344-1.112-.4-1.68-.053-.57-.044-1.137.042-1.696l.06-.375-.113.046c-.057.035-.124.09-.185.17-.064.08-.12.176-.167.282-.093.21-.135.45-.14.62l.02.27.008.152c.01.082.03.163.097.22l.17.078.062.068-.083.092c-.05.03-.133.055-.233.048l-.132-.028c-.083-.03-.186-.11-.253-.196-.14-.176-.183-.368-.184-.368 0 0-.033-.158-.022-.383.01-.225.065-.516.187-.795.06-.137.14-.273.234-.394.096-.12.21-.223.333-.294.12-.07.242-.11.33-.12l.145-.016.022.013.003.004c.05-.227.105-.454.167-.68.146-.52.325-1.027.55-1.52.228-.487.5-.96.845-1.39.17-.217.36-.42.57-.607l.336-.275.33-.22c.44-.276.887-.51 1.337-.718.452-.208.91-.384 1.373-.524.466-.14.94-.24 1.426-.28.3-.024.59-.02.85.015.26.03.492.09.683.16.383.145.584.313.603.32l.057.08c.076.157.098.38-.012.527-.052.076-.13.132-.24.17-.107.04-.24.062-.4.083l-.073-.002c-.014-.005-.11-.09-.33-.173-.218-.084-.58-.147-1.045-.11-.77.062-1.618.337-2.446.717-.413.19-.828.41-1.217.66l-.142.094-.067.047-.062.048-.12.095-.12.11c-.16.146-.31.312-.448.49-.554.72-.935 1.634-1.19 2.595-.13.483-.228.98-.295 1.484l-.034.36-.01.37c0 .245.012.49.044.734.122.974.514 1.918 1.17 2.656.325.37.712.69 1.142.95l.33.18.352.17c.235.106.477.2.724.282.986.333 2.035.488 3.04.433.5-.03.993-.11 1.452-.253l.338-.117.316-.138c.21-.105.413-.224.604-.356.77-.528 1.39-1.244 1.828-2.006.44-.76.7-1.577.744-2.347.053-.78-.116-1.51-.402-2.15-.142-.32-.313-.62-.497-.893l-.29-.4-.093-.118c-.334-.41-.573-.64-.572-.64 0 0-.25-.304-.63-.69-.374-.387-.888-.848-1.327-1.227-.38-.31-.63-.518-.76-.657-.132-.137-.15-.21-.076-.23.144-.04.645.125 1.21.415-.048-.044.62.315 1.257.767l.316.23zm5.083 2.79v-.014l.02-.26.012-.28.003-.173-.005-.422-.007-.193-.004-.053V51.8h-.007l-.055.04-.374.265-.112.08-.03.02-.015.01-.03.015-.113.066-.11.05-.076.02h-.005l.002.01v.042l-.002.002.01-.054h-.014l-.018-.005h-.01l-.023-.005-.103-.03c-.14-.052-.278-.143-.385-.233-.11-.094-.196-.19-.257-.27-.138-.18-.17-.296-.17-.296l-.052-.152-.004-.06.02-.067.122-.207c.103-.14.224-.273.318-.364l.15-.132c.113-.097.23-.174.327-.224l.06-.03.072.02-.03-.037.09-.03-.088.018-.01.004-.07-.075-.025-.028-.216-.166c-.132-.093-.335-.22-.62-.29-.29-.08-.64-.07-.954.037-.322.1-.615.28-.886.46l-.396.257-.183.09-.02.007-.01.005-.024.002h-.05c-.063-.013-.125-.062-.14-.117-.022-.052-.01-.143.055-.246l.05-.08.07-.083.16-.158c.117-.105.244-.2.38-.284.275-.17.58-.303.897-.39.637-.177 1.315-.185 1.92-.047.302.067.588.175.848.304l.37.218.168.12.142.124c.18.18.307.398.404.607.097.21.167.42.222.613l.03.12.02.083.03.133.026.112.042.226.064.5c.036.364.02.72.024.69l-.02.346-.098-.02-.158-.03s-.346.108-.664.07c-.16-.016-.32-.06-.434-.107l-.055-.024zm-3.758-1.826l-.008-.004-.033-.016.034-.01.01-.005.17-.07.35-.16c.248-.11.505-.2.505-.2l.31-.08.117-.06-.09.104-.112.117-.13.12-.153.09c-.097.05-.228.11-.367.15-.142.04-.29.06-.405.055l-.14-.017-.056-.02zm-1.387-2.548l-.018.005-.08.03.046-.06.014-.02.094-.1c.06-.06.148-.136.263-.21l.067-.04.238-.118.25-.063c.15-.03.335-.04.49-.033l.257.016.045.003c-.027 0-.155.02-.3.07l-.333.12-.34.144-.198.076-.07.025-.3.113-.13.044zm-2.49-7.153l-.053.028c-.12.036-.303.08-.484.04-.09-.02-.18-.064-.253-.152-.072-.09-.132-.223-.133-.43l.02-.106.12-.15c.07-.08.18-.2.337-.327.157-.128.365-.264.62-.37.127-.055.263-.102.41-.14l.11-.025.095-.02.247-.043c.12-.014.28-.02.435-.007.152.01.3.04.397.066.21.054.396.14.548.238.15.098.27.206.353.3.17.19.225.32.227.32-.002 0 .074.13.13.36.025.113.045.255.047.395.003.144-.005.32-.05.502-.047.184-.134.375-.257.54-.122.168-.275.305-.434.414-.317.216-.647.337-.935.43-.242.086-.44.145-.6.19l-.376.104c-.188.045-.26.032-.246-.04.013-.073.12-.203.3-.344.178-.144.426-.296.68-.455l.322-.212c.203-.137.453-.343.54-.558.05-.107.065-.215.06-.33-.003-.11-.032-.245-.06-.325-.065-.17-.143-.234-.14-.237l-.08-.09c-.057-.055-.158-.126-.32-.17l-.19-.03-.223.005-.138.024-.094.02-.07.016-.245.082c-.15.063-.266.14-.354.212-.18.146-.26.272-.267.28zm-.43 3.204c.035-.26.475-.433.68-.336.202.1.418.65.258.91-.155.238-.654.268-.8.02-.108-.18-.157-.405-.14-.59zM10.49 69.065l.015-.01c.078-.03.28-.075.52 0l.022.01-.002 1.318s-.057.21-.143.36c-.12.253-.24.15-.305-.005-.014.016-.107-.372-.107-.372v-1.3zM14.526 54.1c-.027-.26.405-.52.647-.47.24.053.61.543.503.828-.11.26-.64.394-.853.185-.16-.155-.27-.363-.297-.544zm-2.742.165c-.63.263-.115 1.09.44.91.556-.182.902-.827-.355-.99l-.086.08zm3.094 13.87l.002-.045.04.005.05-.007.066-.015.03-.01-.016.007-.03.013-.07.034-.168.057-.106-.003-.063-.04-.014-.02-.015-.045.004-.075.025-.06.045-.065.07-.054.06-.023.05-.014.084-.006.043.005.09.033.09.05.176.136.212.17.112.08.047.03.014.007h.002l-.005.01-.006.01-.02.05-.02.046-.01.04.036-.167.05.023c.235.095.56.107.79.064.237-.04.382-.114.382-.114l.18-.044c.106-.03.233-.082.346-.14.172-.11.258-.158.308-.108.05.047.047.187-.027.337.016-.01-.082.164-.23.304-.147.14-.332.245-.332.245s-.212.102-.534.153c-.32.052-.75.047-1.137-.11l.047.017-.162-.066-.1-.06-.15-.108-.224-.178-.132-.1-.01-.008.02-.04.045-.08.054-.12zm.225-1.893l-.017.008-.24.043c-.11.01-.245.01-.38-.1l-.024-.03.04-.167c.03-.097.094-.234.205-.358.113-.126.264-.232.428-.31.165-.08.344-.132.52-.164.356-.07.708-.058.97-.02.26.036.433.096.433.096l.243.14c.135.09.29.242.36.404.07.133.067.234.05.287l-.084.07-.25-.13-.246-.106-.3-.06s-.124-.042-.327-.066c-.197-.026-.476-.03-.733.02-.13.026-.25.065-.35.112-.096.046-.17.102-.212.152-.084.096-.08.176-.084.18zm-.683 1.39l-.02-.006-.2-.137c-.084-.07-.183-.165-.18-.34l.013-.04.155-.09c.092-.05.217-.1.363-.14.295-.09.67-.148 1.036-.18.734-.07 1.45-.07 1.45-.07s.47.06.793.16c.55.14.33.28-.015.353.035.012-.81.12-.808.126 0 0-.696 0-1.373.07-.338.03-.67.09-.894.154l-.245.092-.076.045zm-1.784-4.323l.082-.01c.154.017.353.09.46.236.108.147.117.365-.036.677l-.055.07-.445.21c-.264.137-.627.35-1.06.635-.317.206-.737.496-1.166.77-.215.136-.43.267-.628.38l-.145.08-.07.04-.016.01-.003.003H9.55l-.074-.16-.003.004v.014l.01.05.05.04.024.027.012.01v.004l-.007.01-.03.04-.12.265-.08.258-.052.237s-.11.36-.22.89c-.11.524-.227 1.205-.336 1.767-.082.513-.15.837-.217 1.008L8.5 70.84v.013l-.033.028-.008.01v.005l-.007-.005-.008-.015-.01-.013-.005-.005h.005l.013-.006.062-.014.068.023.005.063-.01.05-.02.03-.02.013-.034.017-.055.008-.054-.014-.033-.018-.018-.014-.014-.012-.01-.01-.023-.026-.016-.067c-.07-.21-.13-.61-.16-1.068-.014.062-.043-.663-.02-1.414.01-.374.034-.754.067-1.05.03-.292.07-.495.07-.495l.063-.242.095-.292c.045-.12.1-.255.205-.423l.112-.15.08-.087.05-.047.027-.02.037-.03.043-.03.022-.013.014-.01.035-.02.06-.035.132-.073.58-.355c.405-.26.83-.556 1.164-.774.45-.297.855-.536 1.16-.692.302-.157.497-.238.516-.246zm2.53-4.44l.008.015c.015.084.025.293-.162.475l-.023.017-.317-.106c-.177-.056-.4-.12-.624-.14-.24-.025-.477-.03-.64-.012l-.26.048-.164.016-.336.074c-.183.06-.27.057-.285.004-.018-.053.03-.15.116-.25-.01.004.098-.107.24-.2.14-.1.31-.166.31-.166s.14-.04.354-.06c.21-.02.482-.01.74.017.282.028.547.107.733.168l.31.102zm0 0" fill="#67737B"/><path d="M14.418 22.336l.03.298.053.597.17.25-.034.008c-.254.04-.493.065-.692.074.122-.132.188-.264.188-.264l.006-.223-.005-.472-.01-.273.3.01zm1.11-.06l.024.27.052.604-.084.15.5-.134c.724-.204 1.443-.47 1.443-.47l.82-.266c.522-.177 1.2-.415 1.942-.72.37-.15.758-.32 1.135-.51.187-.096.373-.197.538-.304l.212-.16.128-.15c.086-.134.165-.315.23-.507.062-.198.116-.407.16-.62.092-.422.15-.862.195-1.294.093-.864.13-1.7.15-2.418.017-.51.02-.945.02-1.255l-.005-.282-.236-.113v-.03c.015-.08.062-.21.147-.363.08-.154.204-.332.36-.512l.03-.032.045.026-.063-.21-.072-.27-.04-.164v-.005.004l-.167.13c-.095.064-.19.13-.35.173l-.147.012-.043-.003-.053-.006-.185-.04c-.238-.07-.428-.19-.58-.317-.15-.127-.265-.26-.347-.377-.207-.292-.24-.547-.24-.547l-.004-.18.05-.214.07-.117.077-.09c.115-.117.248-.22.39-.31.144-.095.294-.174.43-.237.18-.083.317-.125.41-.15l-.05-.022-.035-.016-.236-.112c-.144-.06-.35-.136-.596-.16-.255-.023-.516.023-.765.14-.254.116-.49.292-.74.49-.13.102-.26.21-.418.31l-.27.144-.22.05.13.118.175.184.196.223.12.143.066.08.032.042.107.14c.363.483.72 1.053.98 1.722.103.01.213.047.315.1.113.06.222.132.33.22l.16.135.076.076.037.04.045.05.133.23.068.21c.034.134.05.26.06.365.02.217-.006.37-.006.37-.002 0-.02.1-.1.237l-.036.06-.052.062-.134.097c-.097.048-.21.046-.295.013l-.094-.045-.053-.044-.056-.076.015-.087.106-.024.066-.004.045-.017.024-.02.02-.053-.002-.017.004-.03v-.067l-.004-.074v-.26l-.05-.272-.046-.137-.027-.056-.023-.03c-.092-.103-.205-.2-.308-.276.07.274.12.56.145.853.023.22.027.447.02.674-.01.223-.03.458-.066.688-.147.92-.518 1.836-1.074 2.676-.557.837-1.303 1.617-2.27 2.186-.24.142-.495.272-.77.377-.265.106-.54.19-.817.256-.267.063-.536.112-.807.146zm2.828-11.826c-.01-.102.004-.203.03-.292.034-.118.092-.22.156-.31l.202-.23.222-.195c.155-.117.32-.22.49-.306.345-.175.71-.295 1.078-.37.736-.153 1.497-.12 2.164.09.336.103.645.246.92.418.137.085.267.176.384.272.128.098.24.215.326.336.18.242.29.496.373.735l.11.35.036.165.016.068.07.45.025.488c.008.277-.004.626-.037.912l-.042.33.215.05c.195.038.3.114.33.216.036.1-.003.22-.08.324l-.04.053c.046.21.13.63.224 1.165.09.5.176 1.057.255 1.65.077.594.15 1.223.19 1.872.04.65.05 1.318-.02 1.99-.034.335-.093.67-.185 1-.097.327-.226.648-.4.94-.17.292-.385.552-.616.773-.23.22-.476.398-.715.548-.24.15-.477.275-.703.378l-.323.14-.155.06-.09.035c-.415.156-.674.228-.674.228 0 .003-.31.086-.735.177-.422.093-.954.195-1.393.283-.5.1-.76.163-.85.187.166-.002.36.04.57.146l.044.038c.002.018-.004.29.037.71.038.424.125.985.238 1.545.227 1.12.55 2.228.547 2.228 0 0 .095.75.093 1.3.043.924-.3.656-.593.154-.004.03-.153-.275-.298-.592l-.287-.646s-.326-1.116-.557-2.27c-.117-.58-.208-1.167-.25-1.628-.044-.457-.04-.782-.04-.8l.027-.035c.08-.06.22-.126.4-.142l.066-.002c.113-.033.45-.15.85-.305-.047.014.475-.18.996-.404.524-.22 1.037-.47 1.035-.472l.164-.074.194-.088.118-.057.148-.075c.34-.17.735-.385 1.118-.675.38-.29.736-.657.974-1.126.24-.47.372-1.036.44-1.634.066-.597.078-1.23.078-1.85-.002-.624-.018-1.24-.027-1.826-.01-.585-.016-1.14-.016-1.642 0-.47.008-.854.014-1.088l-.052.043-.26.18-.32.07c-.195.036-.47.06-.747.03-.214-.02-.424-.072-.597-.13l.044.164c.084.306.184.737.27 1.255.12.72.21 1.56.21 2.466.003.452-.018.92-.083 1.4-.03.24-.077.482-.14.73-.07.245-.156.495-.297.752-.072.13-.163.26-.285.386l-.05.047-.043.04-.084.07-.17.13c-.22.152-.434.27-.65.38-.43.22-.847.39-1.25.54-.806.3-1.54.503-2.127.646-.63.148-1.024.215-1.024.215s-.427.06-1.01.108c-.438.035-.964.057-1.453.054H15l-.386-.012c-.3-.01-.537-.032-.718-.054l-.09.076c-.158.152-.305.106-.385.048l-.114-.093-.098-.087-.09-.15-.087-.17c.003 0 .01-.294-.003-.613l-.017-.42c-.6-.102-1.19-.26-1.763-.475-.27-.102-.54-.216-.802-.344l-.39-.203-.385-.235c-.5-.332-.948-.74-1.324-1.202-.372-.464-.67-.984-.883-1.528-.214-.544-.344-1.112-.4-1.68-.053-.57-.044-1.137.042-1.696l.06-.375-.113.046c-.057.035-.124.09-.185.17-.064.08-.12.176-.167.282-.093.21-.135.45-.14.62l.02.27.008.152c.01.082.03.163.097.22l.17.078.062.068-.083.092c-.05.03-.133.055-.233.048l-.132-.028c-.083-.03-.186-.11-.253-.196-.14-.176-.183-.368-.184-.368 0 0-.033-.158-.022-.383.01-.225.065-.516.187-.795.06-.137.14-.273.234-.394.096-.12.21-.223.333-.294.12-.07.242-.11.33-.12l.145-.016.022.013.003.004c.05-.227.105-.454.167-.68.146-.52.325-1.027.55-1.52.228-.487.5-.96.845-1.39.17-.217.36-.42.57-.607l.336-.275.33-.22c.44-.276.887-.51 1.337-.718.452-.208.91-.384 1.373-.524.466-.14.94-.24 1.426-.28.3-.024.59-.02.85.015.26.03.492.09.683.16.383.145.584.313.603.32l.057.08c.076.157.098.38-.012.527-.052.076-.13.132-.24.17-.107.04-.24.062-.4.083l-.073-.002c-.014-.005-.11-.09-.33-.173-.218-.084-.58-.147-1.045-.11-.77.062-1.618.337-2.446.717-.413.19-.828.41-1.217.66l-.142.094-.067.047-.062.048-.12.095-.12.11c-.16.146-.31.312-.448.49-.554.72-.935 1.634-1.19 2.595-.13.483-.228.98-.295 1.484l-.034.36-.01.37c0 .245.012.49.044.734.122.974.514 1.918 1.17 2.656.325.37.712.69 1.142.95l.33.18.352.17c.235.106.477.2.724.282.986.333 2.035.488 3.04.433.5-.03.993-.11 1.452-.253l.338-.117.316-.138c.21-.105.413-.224.604-.356.77-.528 1.39-1.244 1.828-2.006.44-.76.7-1.577.744-2.347.053-.78-.116-1.51-.402-2.15-.142-.32-.313-.62-.497-.893l-.29-.4-.093-.118c-.334-.41-.573-.64-.572-.64 0 0-.25-.304-.63-.69-.374-.387-.888-.848-1.327-1.227-.38-.31-.63-.518-.76-.657-.132-.137-.15-.21-.076-.23.144-.04.645.125 1.21.415-.048-.044.62.315 1.257.767l.316.23zm5.083 2.79v-.014l.02-.26.012-.28.003-.173-.005-.422-.007-.193-.004-.053V11.8h-.007l-.055.04-.374.265-.112.08-.03.02-.015.01-.03.015-.113.066-.11.05-.076.02h-.005l.002.01v.042l-.002.002.01-.054h-.014l-.018-.005h-.01l-.023-.005-.103-.03c-.14-.052-.278-.143-.385-.233-.11-.094-.196-.19-.257-.27-.138-.18-.17-.296-.17-.296l-.052-.152-.004-.06.02-.067.122-.207c.103-.14.224-.273.318-.364l.15-.132c.113-.097.23-.174.327-.224l.06-.03.072.02-.03-.037.09-.03-.088.018-.01.004-.07-.075-.025-.028-.216-.166c-.132-.093-.335-.22-.62-.29-.29-.08-.64-.07-.954.037-.322.1-.615.28-.886.46l-.396.257-.183.09-.02.007-.01.005-.024.002h-.05c-.063-.013-.125-.062-.14-.117-.022-.052-.01-.143.055-.246l.05-.08.07-.083.16-.158c.117-.105.244-.2.38-.284.275-.17.58-.303.897-.39.637-.177 1.315-.185 1.92-.047.302.067.588.175.848.304l.37.218.168.12.142.124c.18.18.307.398.404.607.097.21.167.42.222.613l.03.12.02.083.03.133.026.112.042.226.064.5c.036.364.02.72.024.69l-.02.346-.098-.02-.158-.03s-.346.108-.664.07c-.16-.016-.32-.06-.434-.107l-.055-.024zm-3.758-1.826l-.008-.004-.033-.016.034-.01.01-.005.17-.07.35-.16c.248-.11.505-.2.505-.2l.31-.08.117-.06-.09.104-.112.117-.13.12-.153.09c-.097.05-.228.11-.367.15-.142.04-.29.06-.405.055l-.14-.017-.056-.02zm-1.387-2.548l-.018.005-.08.03.046-.06.014-.02.094-.1c.06-.06.148-.136.263-.21l.067-.04.238-.118.25-.063c.15-.03.335-.04.49-.033l.257.016.045.003c-.027 0-.155.02-.3.07l-.333.12-.34.144-.198.076-.07.025-.3.113-.13.044zm-2.49-7.153l-.053.028c-.12.036-.303.08-.484.04-.09-.02-.18-.064-.253-.152-.072-.09-.132-.223-.133-.43l.02-.106.12-.15c.07-.08.18-.2.337-.327.157-.128.365-.264.62-.37.127-.055.263-.102.41-.14L16.5.08l.095-.02.247-.043c.12-.014.28-.02.435-.007.152.01.3.04.397.066.21.054.396.14.548.238.15.098.27.206.353.3.17.19.225.32.227.32-.002 0 .074.13.13.36.025.113.045.255.047.395.003.144-.005.32-.05.502-.047.184-.134.375-.257.54-.122.168-.275.305-.434.414-.317.216-.647.337-.935.43-.242.086-.44.145-.6.19l-.376.104c-.188.045-.26.032-.246-.04.013-.073.12-.203.3-.344.178-.144.426-.296.68-.455l.322-.212c.203-.137.453-.343.54-.558.05-.107.065-.215.06-.33-.003-.11-.032-.245-.06-.325-.065-.17-.143-.234-.14-.237l-.08-.09c-.057-.055-.158-.126-.32-.17l-.19-.03-.223.005-.138.024-.094.02-.07.016-.245.082c-.15.063-.266.14-.354.212-.18.146-.26.272-.267.28zm-.43 3.204c.035-.26.475-.433.68-.336.202.1.418.65.258.91-.155.238-.654.268-.8.02-.108-.18-.157-.405-.14-.59zM10.49 29.065l.015-.01c.078-.03.28-.075.52 0l.022.01-.002 1.318s-.057.21-.143.36c-.12.253-.24.15-.305-.005-.014.016-.107-.372-.107-.372v-1.3zM14.526 14.1c-.027-.26.405-.52.647-.47.24.053.61.543.503.828-.11.26-.64.394-.853.185-.16-.155-.27-.363-.297-.544zm-2.742.165c-.63.263-.115 1.09.44.91.556-.182.902-.827-.355-.99l-.086.08zm3.094 13.87l.002-.045.04.005.05-.007.066-.015.03-.01-.016.007-.03.013-.07.034-.168.057-.106-.003-.063-.04-.014-.02-.015-.045.004-.075.025-.06.045-.065.07-.054.06-.023.05-.014.084-.006.043.005.09.033.09.05.176.136.212.17.112.08.047.03.014.007h.002l-.005.01-.006.01-.02.05-.02.046-.01.04.036-.167.05.023c.235.095.56.107.79.064.237-.04.382-.114.382-.114l.18-.044c.106-.03.233-.082.346-.14.172-.11.258-.158.308-.108.05.047.047.187-.027.337.016-.01-.082.164-.23.304-.147.14-.332.245-.332.245s-.212.102-.534.153c-.32.052-.75.047-1.137-.11l.047.017-.162-.066-.1-.06-.15-.108-.224-.178-.132-.1-.01-.008.02-.04.045-.08.054-.12zm.225-1.893l-.017.008-.24.043c-.11.01-.245.01-.38-.1l-.024-.03.04-.167c.03-.097.094-.234.205-.358.113-.126.264-.232.428-.31.165-.08.344-.132.52-.164.356-.07.708-.058.97-.02.26.036.433.096.433.096l.243.14c.135.09.29.242.36.404.07.133.067.234.05.287l-.084.07-.25-.13-.246-.106-.3-.06s-.124-.042-.327-.066c-.197-.026-.476-.03-.733.02-.13.026-.25.065-.35.112-.096.046-.17.102-.212.152-.084.096-.08.176-.084.18zm-.683 1.39l-.02-.006-.2-.137c-.084-.07-.183-.165-.18-.34l.013-.04.155-.09c.092-.05.217-.1.363-.14.295-.09.67-.148 1.036-.18.734-.07 1.45-.07 1.45-.07s.47.06.793.16c.55.14.33.28-.015.353.035.012-.81.12-.808.126 0 0-.696 0-1.373.07-.338.03-.67.09-.894.154l-.245.092-.076.045zm-1.784-4.323l.082-.01c.154.017.353.09.46.236.108.147.117.365-.036.677l-.055.07-.445.21c-.264.137-.627.35-1.06.635-.317.206-.737.496-1.166.77-.215.136-.43.267-.628.38l-.145.08-.07.04-.016.01-.003.003H9.55l-.074-.16-.003.004v.014l.01.05.05.04.024.027.012.01v.004l-.007.01-.03.04-.12.265-.08.258-.052.237s-.11.36-.22.89c-.11.524-.227 1.205-.336 1.767-.082.513-.15.837-.217 1.008L8.5 30.84v.013l-.033.028-.008.01v.005l-.007-.005-.008-.015-.01-.013-.005-.005h.005l.013-.006.062-.014.068.023.005.063-.01.05-.02.03-.02.013-.034.017-.055.008-.054-.014-.033-.018-.018-.014-.014-.012-.01-.01-.023-.026-.016-.067c-.07-.21-.13-.61-.16-1.068-.014.062-.043-.663-.02-1.414.01-.374.034-.754.067-1.05.03-.292.07-.495.07-.495l.063-.242.095-.292c.045-.12.1-.255.205-.423l.112-.15.08-.087.05-.047.027-.02.037-.03.043-.03.022-.013.014-.01.035-.02.06-.035.132-.073.58-.355c.405-.26.83-.556 1.164-.774.45-.297.855-.536 1.16-.692.302-.157.497-.238.516-.246zm2.53-4.44l.008.015c.015.084.025.293-.162.475l-.023.017-.317-.106c-.177-.056-.4-.12-.624-.14-.24-.025-.477-.03-.64-.012l-.26.048-.164.016-.336.074c-.183.06-.27.057-.285.004-.018-.053.03-.15.116-.25-.01.004.098-.107.24-.2.14-.1.31-.166.31-.166s.14-.04.354-.06c.21-.02.482-.01.74.017.282.028.547.107.733.168l.31.102zm0 0" fill="#3A434E"/></g></svg>