<svg width="32" height="232" viewBox="0 0 32 232" xmlns="http://www.w3.org/2000/svg"><title>dude</title><g fill="none"><path d="M8.823 133.675l-.003-.003-.024-.014-.153.015c-.092.016-.22.055-.346.13-.127.078-.25.188-.352.317-.1.13-.182.274-.246.423-.13.3-.187.61-.197.85-.012.24.023.412.023.412.002-.002.046.204.193.394.07.093.177.174.267.208l.14.03c.105.01.19-.02.243-.05l.085-.097-.06-.074-.184-.083c-.068-.06-.086-.146-.1-.236l-.008-.163c.002 0-.026-.106-.02-.29.006-.183.05-.437.147-.665.046-.113.106-.22.172-.303.065-.084.134-.144.194-.18l.116-.052-.063.402c-.09.596-.1 1.206-.043 1.816.06.61.196 1.218.42 1.8.224.585.535 1.14.93 1.638.393.5.865.936 1.39 1.29l.405.254.41.22c.277.136.558.26.844.368.602.228 1.222.398 1.85.507l.018.448c.014.345.006.658.004.655l.09.185.097.16.102.095.12.1c.084.058.24.11.407-.053.22-.17.344-.422.346-.422l.006-.24-.006-.505-.01-.295.314.01.03.32.058.64s.235.377.258.357c.157.144.423.21.642-.065.16-.164.26-.38.26-.38l-.058-.646-.025-.29c.284-.035.566-.087.845-.155.292-.073.58-.164.86-.276.288-.113.553-.252.806-.403 1.016-.61 1.8-1.445 2.387-2.342.586-.898.975-1.88 1.13-2.867.038-.245.06-.495.068-.735.01-.244.002-.487-.018-.723-.028-.315-.08-.62-.155-.915.11.08.228.186.325.297l.022.034.028.062.05.148.052.29v.28l.003.076v.074l-.005.03.004.02-.022.056-.027.022-.048.017-.07.005-.11.023-.015.096.058.083.058.047.097.048c.087.036.21.04.314-.014l.14-.103.053-.068.04-.062c.082-.15.103-.255.105-.255 0 0 .025-.167.006-.397-.007-.116-.027-.247-.063-.39l-.07-.223c-.033-.078-.066-.157-.14-.25l-.046-.054-.04-.044-.08-.08-.167-.15c-.113-.09-.228-.17-.346-.23-.11-.06-.226-.098-.332-.11-.273-.716-.646-1.327-1.032-1.845l-.112-.148-.035-.045-.067-.085-.125-.153-.21-.24-.18-.197-.394-.358c-.24-.208-.568-.47-.903-.71-.67-.484-1.372-.868-1.32-.82-.595-.31-1.12-.488-1.272-.444-.077.022-.06.098.08.247.138.15.4.37.798.703.463.404 1 .9 1.397 1.316.398.413.66.737.66.736-.003.002.25.246.6.686l.1.127.3.427c.195.296.374.618.525.958.3.687.475 1.468.42 2.3-.047.826-.32 1.702-.78 2.518-.462.815-1.112 1.583-1.92 2.15-.202.14-.415.27-.636.38l-.333.15-.356.125c-.48.152-.996.24-1.525.27-1.057.06-2.157-.106-3.194-.464-.258-.09-.513-.19-.76-.305l-.37-.18-.347-.193c-.453-.278-.86-.62-1.2-1.017-.69-.793-1.102-1.803-1.23-2.847-.033-.26-.05-.524-.05-.787l.013-.393.036-.386c.07-.54.173-1.072.308-1.59.272-1.027.67-2.01 1.253-2.777.145-.194.302-.37.47-.53l.126-.115.124-.103.065-.045.073-.054.15-.102c.41-.266.845-.502 1.28-.707.87-.406 1.76-.7 2.567-.768.492-.042.87.026 1.1.116.23.088.333.182.346.186l.08.004c.163-.026.305-.047.42-.09.112-.04.195-.102.253-.18.112-.156.09-.398.008-.567l-.06-.083c-.02-.01-.23-.19-.635-.343-.2-.076-.446-.14-.72-.174-.272-.034-.574-.04-.887-.014-.51.042-1.008.152-1.498.3-.488.15-.968.34-1.443.56-.475.222-.942.474-1.405.77l-.348.236c-.132.097-.244.193-.353.293-.22.2-.418.42-.6.65-.36.465-.647.97-.885 1.494-.24.524-.427 1.07-.58 1.626-.065.24-.124.484-.176.73zm3.42 16.202l-.008.003-.014.01v1.392s.098.418.11.4c.07.167.2.276.323.005.088-.16.15-.386.15-.386l.002-1.41-.024-.012-.175-.037.006-.01.09-.214-.07-.334-.035-.232-.01-.095-.023-.003-.337-.01-.21.03-.013.01.013.137.04.258.08.368.108.13zm8.698-1.037l.014.003.085.008.124-.002.156.015c.055.015.115.052.16.12l.015.037-.064.14-.05.09-.014.035.008.09.013.093.008.12.008.392.032 1.066c.002 0-.048.35-.133.597-.12.416-.252.248-.323-.004-.01.027-.124-.606-.124-.606l-.035-1.054-.008-.39v-.032l-.004-.03-.012-.084-.008-.24.077-.22.054-.1.02-.044zm-4.115.05l.004-.045.043.004.055-.007.068-.017.03-.01-.017.007-.033.014-.073.037-.177.06-.11-.003-.067-.043-.015-.025-.012-.047.006-.08.022-.065.05-.068.073-.058.062-.028.054-.013.086-.008.047.005.096.035.093.056.185.143.222.184.12.086.05.03.013.01-.004.005-.007.013-.02.055-.017.052-.012.042.04-.18.052.022c.246.105.59.116.83.072.25-.04.402-.124.402-.124l.19-.046c.11-.033.245-.088.36-.15.185-.117.275-.168.33-.115.048.05.047.198-.032.358.018-.008-.085.176-.244.327-.155.153-.348.266-.348.266s-.223.11-.562.164c-.336.056-.788.05-1.193-.117l.048.017-.17-.07-.104-.065-.157-.116-.235-.19-.14-.11-.01-.007H16.7l.025-.043.046-.083.057-.13zm.238-2.027l-.017.008-.254.047c-.112.01-.254.01-.398-.106l-.023-.032.04-.178c.03-.104.098-.252.216-.385.117-.132.278-.25.45-.332.174-.083.362-.14.547-.175.373-.072.743-.062 1.017-.022.276.038.457.104.457.104l.256.15c.14.097.306.258.38.434.07.14.07.25.05.306l-.09.073-.263-.143-.26-.11c-.146-.05-.315-.068-.315-.068s-.13-.043-.34-.07c-.21-.03-.5-.033-.77.022-.136.027-.263.068-.366.12-.105.05-.18.11-.226.163-.087.104-.085.19-.09.196zm-.717 1.49l-.02-.007-.21-.146c-.087-.07-.19-.172-.187-.364l.01-.043.164-.098c.097-.05.23-.102.383-.148.307-.092.7-.154 1.084-.193.774-.076 1.525-.073 1.527-.076 0 0 .493.066.833.173.576.15.345.3-.014.383.036.01-.852.128-.85.132.002.002-.73.003-1.442.076-.356.036-.703.095-.94.168l-.258.1-.08.045zm1.512-3.843l-.056-.037c-.09-.095-.21-.244-.256-.43-.024-.093-.026-.197.025-.307.053-.11.162-.23.36-.33l.116-.03c.022.006.264.04.626.15.36.11.834.302 1.357.574.45.233 1.014.57 1.533.932.523.36.995.738 1.303 1.032l.14.14.207.234.077.287.038.144.058.228.05.192c-.002 0 .08.435.157 1.03.077.597.147 1.35.14 1.98.01.533-.035.88-.09 1.08-.057.197-.118.246-.174.192-.112-.11-.224-.614-.382-1.228-.002.066-.16-.673-.37-1.422-.203-.75-.45-1.505-.45-1.505l-.11-.43-.002-.002-.1-.098c-.23-.22-.665-.575-1.15-.91-.482-.335-1.013-.652-1.422-.863-.47-.244-.876-.405-1.162-.49-.287-.09-.45-.11-.465-.114zm-3.384-.79l.086-.006c.16.02.37.095.483.254.113.158.124.39-.038.726l-.058.075c-.016.007-.187.078-.465.224-.278.146-.66.374-1.114.68-.334.22-.776.534-1.226.826-.225.145-.45.286-.658.407l-.154.088-.073.04-.017.01-.006.005h-.002l-.08-.17v.017l.012.055.052.043.024.026.01.014.003.002-.006.008-.03.04c-.045.073-.093.185-.126.286l-.082.277-.058.253s-.115.39-.23.953c-.12.564-.242 1.29-.354 1.896-.09.547-.16.892-.23 1.077l-.008-.036-.002.012-.036.03-.008.012v.002l-.002-.006-.01-.013-.01-.014-.005-.008v.003l.017-.007.066-.015.07.023.005.07-.01.05-.02.032-.02.015-.037.018-.058.007-.06-.015-.034-.02-.017-.015-.014-.015-.008-.008-.025-.03-.018-.074c-.075-.225-.136-.65-.17-1.143-.012.07-.043-.71-.02-1.513.012-.403.038-.813.07-1.126.035-.313.075-.53.075-.53l.067-.26.102-.316c.047-.127.103-.272.214-.452l.118-.16.085-.095.05-.048.032-.025.04-.03.046-.032.022-.014.016-.01.038-.023.065-.036.138-.08c.19-.11.398-.238.61-.377.425-.276.872-.592 1.225-.827.47-.318.9-.575 1.218-.743.32-.168.526-.254.545-.263zm-.344-4.19l-.005-.02.054-.21c.04-.084.11-.176.24-.242l.03-.008.325.214c.183.118.408.25.645.284.276.054.525.05.68-.002.156-.047.243-.123.243-.123l.167-.088.336-.24c.18-.145.27-.174.302-.124.036.05.014.177-.044.317.014-.01-.06.15-.175.31-.106.164-.273.313-.275.31l-.108.068c-.07.04-.177.09-.31.127-.134.04-.295.06-.456.057-.16 0-.327-.022-.48-.05-.175-.027-.347-.093-.488-.162l-.36-.206-.322-.212zm2.52-5.99c-.028-.268.408-.536.652-.484.245.055.618.56.51.854-.11.268-.646.406-.863.19-.164-.16-.274-.373-.3-.56zm-2.774.17c-.636.272-.115 1.126.446.94.562-.19.91-.854-.36-1.02l-.085.08zm0 0" fill="#fff"/><path d="M8.823 53.675l-.003-.003-.024-.014-.153.015c-.092.016-.22.055-.346.13-.127.078-.25.188-.352.317-.1.13-.182.274-.246.423-.13.3-.187.61-.197.85-.012.24.023.412.023.412.002-.002.046.204.193.394.07.093.177.174.267.208l.14.03c.105.01.19-.02.243-.05l.085-.097-.06-.074-.184-.083c-.068-.06-.086-.146-.1-.236l-.008-.163c.002 0-.026-.106-.02-.29.006-.183.05-.437.147-.665.046-.113.106-.22.172-.303.065-.084.134-.144.194-.18l.116-.052-.063.402c-.09.596-.1 1.206-.043 1.816.06.61.196 1.218.42 1.8.224.585.535 1.14.93 1.638.393.5.865.936 1.39 1.29l.405.254.41.22c.277.136.558.26.844.368.602.228 1.222.398 1.85.507l.018.448c.014.345.006.658.004.655l.09.185.097.16.102.095.12.1c.084.058.24.11.407-.053.22-.17.344-.422.346-.422l.006-.24-.006-.505-.01-.295.314.01.03.32.058.64s.235.377.258.357c.157.144.423.21.642-.065.16-.164.26-.38.26-.38l-.058-.646-.025-.29c.284-.035.566-.087.845-.155.292-.073.58-.164.86-.276.288-.113.553-.252.806-.403 1.016-.61 1.8-1.445 2.387-2.342.586-.898.975-1.88 1.13-2.867.038-.245.06-.495.068-.735.01-.244.002-.487-.018-.723-.028-.315-.08-.62-.155-.915.11.08.228.186.325.297l.022.034.028.062.05.148.052.29v.28l.003.076v.074l-.005.03.004.02-.022.056-.027.022-.048.017-.07.005-.11.023-.015.096.058.083.058.047.097.048c.087.036.21.04.314-.014l.14-.103.053-.068.04-.062c.082-.15.103-.255.105-.255 0 0 .025-.167.006-.397-.007-.116-.027-.247-.063-.39l-.07-.223c-.033-.078-.066-.157-.14-.25l-.046-.054-.04-.044-.08-.08-.167-.15c-.113-.09-.228-.17-.346-.23-.11-.06-.226-.098-.332-.11-.273-.716-.646-1.327-1.032-1.845l-.112-.148-.035-.045-.067-.085-.125-.153-.21-.24-.18-.197-.394-.358c-.24-.208-.568-.47-.903-.71-.67-.484-1.372-.868-1.32-.82-.595-.31-1.12-.488-1.272-.444-.077.022-.06.098.08.247.138.15.4.37.798.703.463.404 1 .9 1.397 1.316.398.413.66.737.66.736-.003.002.25.246.6.686l.1.127.3.427c.195.296.374.618.525.958.3.687.475 1.468.42 2.3-.047.826-.32 1.702-.78 2.518-.462.815-1.112 1.583-1.92 2.15-.202.14-.415.27-.636.38l-.333.15-.356.125c-.48.152-.996.24-1.525.27-1.057.06-2.157-.106-3.194-.464-.258-.09-.513-.19-.76-.305l-.37-.18-.347-.193c-.453-.278-.86-.62-1.2-1.017-.69-.793-1.102-1.803-1.23-2.847-.033-.26-.05-.524-.05-.787l.013-.393.036-.386c.07-.54.173-1.072.308-1.59.272-1.027.67-2.01 1.253-2.777.145-.194.302-.37.47-.53l.126-.115.124-.103.065-.045.073-.054.15-.102c.41-.266.845-.502 1.28-.707.87-.406 1.76-.7 2.567-.768.492-.042.87.026 1.1.116.23.088.333.182.346.186l.08.004c.163-.026.305-.047.42-.09.112-.04.195-.102.253-.18.112-.156.09-.398.008-.567l-.06-.083c-.02-.01-.23-.19-.635-.343-.2-.076-.446-.14-.72-.174-.272-.034-.574-.04-.887-.014-.51.042-1.008.152-1.498.3-.488.15-.968.34-1.443.56-.475.222-.942.474-1.405.77l-.348.236c-.132.097-.244.193-.353.293-.22.2-.418.42-.6.65-.36.465-.647.97-.885 1.494-.24.524-.427 1.07-.58 1.626-.065.24-.124.484-.176.73zm3.42 16.202l-.008.003-.014.01v1.392s.098.418.11.4c.07.167.2.276.323.005.088-.16.15-.386.15-.386l.002-1.41-.024-.012-.175-.037.006-.01.09-.214-.07-.334-.035-.232-.01-.095-.023-.003-.337-.01-.21.03-.013.01.013.137.04.258.08.368.108.13zm8.698-1.037l.014.003.085.008.124-.002.156.015c.055.015.115.052.16.12l.015.037-.064.14-.05.09-.014.035.008.09.013.093.008.12.008.392.032 1.066c.002 0-.048.35-.133.597-.12.416-.252.248-.323-.004-.01.027-.124-.606-.124-.606l-.035-1.054-.008-.39v-.032l-.004-.03-.012-.084-.008-.24.077-.22.054-.1.02-.044zm-4.115.05l.004-.045.043.004.055-.007.068-.017.03-.01-.017.007-.033.014-.073.037-.177.06-.11-.003-.067-.043-.015-.025-.012-.047.006-.08.022-.065.05-.068.073-.058.062-.028.054-.013.086-.008.047.005.096.035.093.056.185.143.222.184.12.086.05.03.013.01-.004.005-.007.013-.02.055-.017.052-.012.042.04-.18.052.022c.246.105.59.116.83.072.25-.04.402-.124.402-.124l.19-.046c.11-.033.245-.088.36-.15.185-.117.275-.168.33-.115.048.05.047.198-.032.358.018-.008-.085.176-.244.327-.155.153-.348.266-.348.266s-.223.11-.562.164c-.336.056-.788.05-1.193-.117l.048.017-.17-.07-.104-.065-.157-.116-.235-.19-.14-.11-.01-.007H16.7l.025-.043.046-.083.057-.13zm.238-2.027l-.017.008-.254.047c-.112.01-.254.01-.398-.106l-.023-.032.04-.178c.03-.104.098-.252.216-.385.117-.132.278-.25.45-.332.174-.083.362-.14.547-.175.373-.072.743-.062 1.017-.022.276.038.457.104.457.104l.256.15c.14.097.306.258.38.434.07.14.07.25.05.306l-.09.073-.263-.143-.26-.11c-.146-.05-.315-.068-.315-.068s-.13-.043-.34-.07c-.21-.03-.5-.033-.77.022-.136.027-.263.068-.366.12-.105.05-.18.11-.226.163-.087.104-.085.19-.09.196zm-.717 1.49l-.02-.007-.21-.146c-.087-.07-.19-.172-.187-.364l.01-.043.164-.098c.097-.05.23-.102.383-.148.307-.092.7-.154 1.084-.193.774-.076 1.525-.073 1.527-.076 0 0 .493.066.833.173.576.15.345.3-.014.383.036.01-.852.128-.85.132.002.002-.73.003-1.442.076-.356.036-.703.095-.94.168l-.258.1-.08.045zm1.512-3.843l-.056-.037c-.09-.095-.21-.244-.256-.43-.024-.093-.026-.197.025-.307.053-.11.162-.23.36-.33l.116-.03c.022.006.264.04.626.15.36.11.834.302 1.357.574.45.233 1.014.57 1.533.932.523.36.995.738 1.303 1.032l.14.14.207.234.077.287.038.144.058.228.05.192c-.002 0 .08.435.157 1.03.077.597.147 1.35.14 1.98.01.533-.035.88-.09 1.08-.057.197-.118.246-.174.192-.112-.11-.224-.614-.382-1.228-.002.066-.16-.673-.37-1.422-.203-.75-.45-1.505-.45-1.505l-.11-.43-.002-.002-.1-.098c-.23-.22-.665-.575-1.15-.91-.482-.335-1.013-.652-1.422-.863-.47-.244-.876-.405-1.162-.49-.287-.09-.45-.11-.465-.114zm-3.384-.79l.086-.006c.16.02.37.095.483.254.113.158.124.39-.038.726l-.058.075c-.016.007-.187.078-.465.224-.278.146-.66.374-1.114.68-.334.22-.776.534-1.226.826-.225.145-.45.286-.658.407l-.154.088-.073.04-.017.01-.006.005h-.002l-.08-.17v.017l.012.055.052.043.024.026.01.014.003.002-.006.008-.03.04c-.045.073-.093.185-.126.286l-.082.277-.058.253s-.115.39-.23.953c-.12.564-.242 1.29-.354 1.896-.09.547-.16.892-.23 1.077l-.008-.036-.002.012-.036.03-.008.012v.002l-.002-.006-.01-.013-.01-.014-.005-.008v.003l.017-.007.066-.015.07.023.005.07-.01.05-.02.032-.02.015-.037.018-.058.007-.06-.015-.034-.02-.017-.015-.014-.015-.008-.008-.025-.03-.018-.074c-.075-.225-.136-.65-.17-1.143-.012.07-.043-.71-.02-1.513.012-.403.038-.813.07-1.126.035-.313.075-.53.075-.53l.067-.26.102-.316c.047-.127.103-.272.214-.452l.118-.16.085-.095.05-.048.032-.025.04-.03.046-.032.022-.014.016-.01.038-.023.065-.036.138-.08c.19-.11.398-.238.61-.377.425-.276.872-.592 1.225-.827.47-.318.9-.575 1.218-.743.32-.168.526-.254.545-.263zm-.344-4.19l-.005-.02.054-.21c.04-.084.11-.176.24-.242l.03-.008.325.214c.183.118.408.25.645.284.276.054.525.05.68-.002.156-.047.243-.123.243-.123l.167-.088.336-.24c.18-.145.27-.174.302-.124.036.05.014.177-.044.317.014-.01-.06.15-.175.31-.106.164-.273.313-.275.31l-.108.068c-.07.04-.177.09-.31.127-.134.04-.295.06-.456.057-.16 0-.327-.022-.48-.05-.175-.027-.347-.093-.488-.162l-.36-.206-.322-.212zm2.52-5.99c-.028-.268.408-.536.652-.484.245.055.618.56.51.854-.11.268-.646.406-.863.19-.164-.16-.274-.373-.3-.56zm-2.774.17c-.636.272-.115 1.126.446.94.562-.19.91-.854-.36-1.02l-.085.08zm0 0" fill="#67737B"/><path d="M8.823 13.675l-.003-.003-.024-.014-.153.015c-.092.016-.22.055-.346.13-.127.078-.25.188-.352.317-.1.13-.182.274-.246.423-.13.3-.187.61-.197.85-.012.24.023.412.023.412.002-.002.046.204.193.394.07.093.177.174.267.208l.14.03c.105.01.19-.02.243-.05l.085-.097-.06-.074-.184-.083c-.068-.06-.086-.146-.1-.236l-.008-.163c.002 0-.026-.106-.02-.29.006-.183.05-.437.147-.665.046-.113.106-.22.172-.303.065-.084.134-.144.194-.18l.116-.052-.063.402c-.09.596-.1 1.206-.043 1.816.06.61.196 1.218.42 1.8.224.585.535 1.14.93 1.638.393.5.865.936 1.39 1.29l.405.254.41.22c.277.136.558.26.844.368.602.228 1.222.398 1.85.507l.018.448c.014.345.006.658.004.655l.09.185.097.16.102.095.12.1c.084.058.24.11.407-.053.22-.17.344-.422.346-.422l.006-.24-.006-.505-.01-.295.314.01.03.32.058.64s.235.377.258.357c.157.144.423.21.642-.065.16-.164.26-.38.26-.38l-.058-.646-.025-.29c.284-.035.566-.087.845-.155.292-.073.58-.164.86-.276.288-.113.553-.252.806-.403 1.016-.61 1.8-1.445 2.387-2.342.586-.898.975-1.88 1.13-2.867.038-.245.06-.495.068-.735.01-.244.002-.487-.018-.723-.028-.315-.08-.62-.155-.915.11.08.228.186.325.297l.022.034.028.062.05.148.052.29v.28l.003.076v.074l-.005.03.004.02-.022.056-.027.022-.048.017-.07.005-.11.023-.015.096.058.083.058.047.097.048c.087.036.21.04.314-.014l.14-.103.053-.068.04-.062c.082-.15.103-.255.105-.255 0 0 .025-.167.006-.397-.007-.116-.027-.247-.063-.39l-.07-.223c-.033-.078-.066-.157-.14-.25l-.046-.054-.04-.044-.08-.08-.167-.15c-.113-.09-.228-.17-.346-.23-.11-.06-.226-.098-.332-.11-.273-.716-.646-1.327-1.032-1.845l-.112-.148-.035-.045-.067-.085-.125-.153-.21-.24-.18-.197-.394-.358c-.24-.208-.568-.47-.903-.71-.67-.484-1.372-.868-1.32-.82-.595-.31-1.12-.488-1.272-.444-.077.022-.06.098.08.247.138.15.4.37.798.703.463.404 1 .9 1.397 1.316.398.413.66.737.66.736-.003.002.25.246.6.686l.1.127.3.427c.195.296.374.618.525.958.3.687.475 1.468.42 2.3-.047.826-.32 1.702-.78 2.518-.462.815-1.112 1.583-1.92 2.15-.202.14-.415.27-.636.38l-.333.15-.356.125c-.48.152-.996.24-1.525.27-1.057.06-2.157-.106-3.194-.464-.258-.09-.513-.19-.76-.305l-.37-.18-.347-.193c-.453-.278-.86-.62-1.2-1.017-.69-.793-1.102-1.803-1.23-2.847-.033-.26-.05-.524-.05-.787l.013-.393.036-.386c.07-.54.173-1.072.308-1.59.272-1.027.67-2.01 1.253-2.777.145-.194.302-.37.47-.53l.126-.115.124-.103.065-.045.073-.054.15-.102c.41-.266.845-.502 1.28-.707.87-.406 1.76-.7 2.567-.768.492-.042.87.026 1.1.116.23.088.333.182.346.186l.08.004c.163-.026.305-.047.42-.09.112-.04.195-.102.253-.18.112-.156.09-.398.008-.567l-.06-.083c-.02-.01-.23-.19-.635-.343-.2-.076-.446-.14-.72-.174-.272-.034-.574-.04-.887-.014-.51.042-1.008.152-1.498.3-.488.15-.968.34-1.443.56-.475.222-.942.474-1.405.77l-.348.236c-.132.097-.244.193-.353.293-.22.2-.418.42-.6.65-.36.465-.647.97-.885 1.494-.24.524-.427 1.07-.58 1.626-.065.24-.124.484-.176.73zm3.42 16.202l-.008.003-.014.01v1.392s.098.418.11.4c.07.167.2.276.323.005.088-.16.15-.386.15-.386l.002-1.41-.024-.012-.175-.037.006-.01.09-.214-.07-.334-.035-.232-.01-.095-.023-.003-.337-.01-.21.03-.013.01.013.137.04.258.08.368.108.13zm8.698-1.037l.014.003.085.008.124-.002.156.015c.055.015.115.052.16.12l.015.037-.064.14-.05.09-.014.035.008.09.013.093.008.12.008.392.032 1.066c.002 0-.048.35-.133.597-.12.416-.252.248-.323-.004-.01.027-.124-.606-.124-.606l-.035-1.054-.008-.39v-.032l-.004-.03-.012-.084-.008-.24.077-.22.054-.1.02-.044zm-4.115.05l.004-.045.043.004.055-.007.068-.017.03-.01-.017.007-.033.014-.073.037-.177.06-.11-.003-.067-.043-.015-.025-.012-.047.006-.08.022-.065.05-.068.073-.058.062-.028.054-.013.086-.008.047.005.096.035.093.056.185.143.222.184.12.086.05.03.013.01-.004.005-.007.013-.02.055-.017.052-.012.042.04-.18.052.022c.246.105.59.116.83.072.25-.04.402-.124.402-.124l.19-.046c.11-.033.245-.088.36-.15.185-.117.275-.168.33-.115.048.05.047.198-.032.358.018-.008-.085.176-.244.327-.155.153-.348.266-.348.266s-.223.11-.562.164c-.336.056-.788.05-1.193-.117l.048.017-.17-.07-.104-.065-.157-.116-.235-.19-.14-.11-.01-.007H16.7l.025-.043.046-.083.057-.13zm.238-2.027l-.017.008-.254.047c-.112.01-.254.01-.398-.106l-.023-.032.04-.178c.03-.104.098-.252.216-.385.117-.132.278-.25.45-.332.174-.083.362-.14.547-.175.373-.072.743-.062 1.017-.022.276.038.457.104.457.104l.256.15c.14.097.306.258.38.434.07.14.07.25.05.306l-.09.073-.263-.143-.26-.11c-.146-.05-.315-.068-.315-.068s-.13-.043-.34-.07c-.21-.03-.5-.033-.77.022-.136.027-.263.068-.366.12-.105.05-.18.11-.226.163-.087.104-.085.19-.09.196zm-.717 1.49l-.02-.007-.21-.146c-.087-.07-.19-.172-.187-.364l.01-.043.164-.098c.097-.05.23-.102.383-.148.307-.092.7-.154 1.084-.193.774-.076 1.525-.073 1.527-.076 0 0 .493.066.833.173.576.15.345.3-.014.383.036.01-.852.128-.85.132.002.002-.73.003-1.442.076-.356.036-.703.095-.94.168l-.258.1-.08.045zm1.512-3.843l-.056-.037c-.09-.095-.21-.244-.256-.43-.024-.093-.026-.197.025-.307.053-.11.162-.23.36-.33l.116-.03c.022.006.264.04.626.15.36.11.834.302 1.357.574.45.233 1.014.57 1.533.932.523.36.995.738 1.303 1.032l.14.14.207.234.077.287.038.144.058.228.05.192c-.002 0 .08.435.157 1.03.077.597.147 1.35.14 1.98.01.533-.035.88-.09 1.08-.057.197-.118.246-.174.192-.112-.11-.224-.614-.382-1.228-.002.066-.16-.673-.37-1.422-.203-.75-.45-1.505-.45-1.505l-.11-.43-.002-.002-.1-.098c-.23-.22-.665-.575-1.15-.91-.482-.335-1.013-.652-1.422-.863-.47-.244-.876-.405-1.162-.49-.287-.09-.45-.11-.465-.114zm-3.384-.79l.086-.006c.16.02.37.095.483.254.113.158.124.39-.038.726l-.058.075c-.016.007-.187.078-.465.224-.278.146-.66.374-1.114.68-.334.22-.776.534-1.226.826-.225.145-.45.286-.658.407l-.154.088-.073.04-.017.01-.006.005h-.002l-.08-.17v.017l.012.055.052.043.024.026.01.014.003.002-.006.008-.03.04c-.045.073-.093.185-.126.286l-.082.277-.058.253s-.115.39-.23.953c-.12.564-.242 1.29-.354 1.896-.09.547-.16.892-.23 1.077l-.008-.036-.002.012-.036.03-.008.012v.002l-.002-.006-.01-.013-.01-.014-.005-.008v.003l.017-.007.066-.015.07.023.005.07-.01.05-.02.032-.02.015-.037.018-.058.007-.06-.015-.034-.02-.017-.015-.014-.015-.008-.008-.025-.03-.018-.074c-.075-.225-.136-.65-.17-1.143-.012.07-.043-.71-.02-1.513.012-.403.038-.813.07-1.126.035-.313.075-.53.075-.53l.067-.26.102-.316c.047-.127.103-.272.214-.452l.118-.16.085-.095.05-.048.032-.025.04-.03.046-.032.022-.014.016-.01.038-.023.065-.036.138-.08c.19-.11.398-.238.61-.377.425-.276.872-.592 1.225-.827.47-.318.9-.575 1.218-.743.32-.168.526-.254.545-.263zm-.344-4.19l-.005-.02.054-.21c.04-.084.11-.176.24-.242l.03-.008.325.214c.183.118.408.25.645.284.276.054.525.05.68-.002.156-.047.243-.123.243-.123l.167-.088.336-.24c.18-.145.27-.174.302-.124.036.05.014.177-.044.317.014-.01-.06.15-.175.31-.106.164-.273.313-.275.31l-.108.068c-.07.04-.177.09-.31.127-.134.04-.295.06-.456.057-.16 0-.327-.022-.48-.05-.175-.027-.347-.093-.488-.162l-.36-.206-.322-.212zm2.52-5.99c-.028-.268.408-.536.652-.484.245.055.618.56.51.854-.11.268-.646.406-.863.19-.164-.16-.274-.373-.3-.56zm-2.774.17c-.636.272-.115 1.126.446.94.562-.19.91-.854-.36-1.02l-.085.08zm0 0" fill="#3A434E"/></g></svg>