<svg width="32" height="232" viewBox="0 0 32 232" xmlns="http://www.w3.org/2000/svg"><g fill="none"><path d="M8.823 133.675l-.003-.003-.024-.014-.153.015c-.092.016-.22.055-.346.13-.127.078-.25.188-.352.317-.1.13-.182.274-.246.423-.13.3-.19.61-.2.85-.01.24.023.412.023.412.002-.002.046.204.193.394.07.09.177.17.267.205l.14.03c.105.01.19-.02.243-.05l.085-.097-.06-.075-.183-.083c-.07-.06-.087-.146-.1-.236l-.01-.163c.003 0-.025-.105-.02-.29.007-.182.05-.436.148-.664.046-.114.106-.22.172-.304.065-.084.134-.144.194-.18l.117-.052-.063.402c-.09.596-.1 1.206-.043 1.816.06.61.197 1.218.42 1.8.225.585.536 1.14.93 1.638.394.5.866.936 1.39 1.29l.406.254.41.22c.276.136.557.26.843.368.6.228 1.22.398 1.85.507l.017.447c.015.345.007.658.005.655l.09.184.097.16.1.096.12.1c.085.057.24.11.408-.054.22-.17.344-.423.346-.423l.006-.24-.006-.506-.01-.295.314.01.03.32.06.64s.234.376.257.356c.157.144.423.21.642-.065.16-.164.26-.38.26-.38l-.06-.646-.025-.29c.284-.035.566-.087.845-.155.293-.074.58-.165.86-.277.29-.113.554-.252.807-.403 1.016-.61 1.8-1.446 2.387-2.343s.976-1.88 1.13-2.866c.04-.244.06-.494.07-.734.01-.245 0-.488-.02-.724-.027-.315-.08-.62-.154-.915.11.08.226.187.323.298l.02.034.03.06.05.15.05.29v.28l.004.075v.074l-.006.03.004.02-.022.055-.027.022-.05.017-.07.005-.11.022-.014.097.057.082.06.047.096.047c.086.036.21.04.313-.014l.14-.102.052-.067.04-.062c.082-.15.103-.254.105-.254 0 0 .026-.168.007-.398-.007-.116-.027-.247-.063-.39l-.07-.223c-.032-.08-.065-.158-.14-.25l-.045-.055-.04-.045-.08-.08-.167-.15c-.112-.09-.227-.17-.345-.23-.11-.06-.226-.098-.332-.11-.272-.716-.645-1.327-1.03-1.845l-.11-.148-.037-.045-.066-.085-.125-.153-.21-.24-.18-.2-.394-.357c-.24-.208-.568-.47-.903-.71-.67-.484-1.372-.868-1.32-.82-.595-.31-1.12-.488-1.272-.444-.076.02-.06.097.08.246.14.15.4.37.8.704.463.404 1 .9 1.397 1.316.398.413.66.737.66.736-.003.002.25.246.6.686l.1.127.3.426c.195.297.374.62.525.96.3.686.475 1.467.42 2.3-.047.825-.32 1.7-.78 2.517-.462.815-1.112 1.583-1.92 2.15-.202.14-.415.27-.636.38l-.333.15-.356.125c-.48.152-.996.24-1.525.27-1.057.06-2.157-.106-3.194-.464-.26-.09-.515-.19-.76-.306l-.37-.18-.35-.193c-.452-.278-.86-.62-1.2-1.017-.69-.793-1.1-1.803-1.23-2.847-.032-.26-.05-.523-.05-.786l.014-.393.036-.385c.07-.54.174-1.07.31-1.59.27-1.026.67-2.01 1.252-2.776.145-.195.302-.37.47-.53l.126-.116.124-.104.065-.045.073-.052.15-.102c.41-.266.845-.502 1.28-.707.87-.407 1.76-.7 2.567-.77.492-.04.87.027 1.1.117.23.09.333.183.346.187l.08.004c.164-.025.306-.046.42-.09.113-.04.196-.1.254-.18.112-.155.09-.397.008-.566l-.06-.084c-.02-.01-.23-.19-.635-.343-.2-.076-.448-.14-.72-.174-.274-.034-.576-.04-.89-.014-.51.042-1.007.152-1.497.3-.488.15-.968.34-1.443.56-.474.222-.94.474-1.404.77l-.348.236c-.132.098-.244.194-.353.294-.22.2-.418.42-.6.65-.36.465-.647.97-.885 1.494-.24.524-.427 1.07-.58 1.626-.065.24-.124.484-.176.73zm3.42 16.202l-.008.003-.014.01v1.392s.1.418.11.4c.07.167.2.276.326.005.088-.16.15-.386.15-.386l.002-1.41-.024-.01-.175-.036.005-.01.09-.214-.07-.335-.035-.232-.01-.095-.024-.003-.337-.01-.21.03-.015.01.013.137.04.26.08.367.107.13zm8.698-1.037l.017.003.085.008h.125l.156.016c.056.015.116.052.16.12l.016.037-.065.14-.05.09-.013.036.007.09.012.092.008.12.008.39.032 1.068c.002 0-.048.35-.133.597-.12.416-.252.248-.323-.004-.01.028-.124-.605-.124-.605l-.035-1.054-.007-.39v-.03l-.004-.03-.013-.085-.01-.24.078-.22.054-.1.02-.045zm-4.112.05l.004-.045.044.004.055-.01.068-.017.03-.01-.017.007-.033.015-.073.037-.177.06-.11-.003-.067-.045-.017-.025-.012-.046.008-.08.022-.065.05-.07.072-.058.062-.028.054-.013.085-.007.047.005.096.034.093.056.184.144.222.184.12.086.05.03.013.01-.004.005-.007.01-.02.056-.018.052-.012.04.04-.18.054.023c.246.106.59.117.83.073.25-.04.402-.123.402-.123l.19-.046c.11-.032.245-.087.36-.15.185-.116.275-.167.33-.114.048.05.047.197-.032.357.018-.008-.085.176-.244.327-.156.153-.35.266-.35.266s-.222.11-.56.165c-.337.057-.79.05-1.194-.116l.048.017-.17-.07-.104-.064-.157-.116-.235-.19-.14-.11-.01-.007h.002l.025-.043.046-.083.06-.13zm.238-2.027l-.017.008-.255.05c-.112.01-.254.01-.398-.106l-.023-.032.04-.177c.03-.104.098-.252.216-.385.116-.132.277-.25.45-.332.173-.083.36-.14.546-.175.373-.07.743-.06 1.017-.02.276.037.457.103.457.103l.255.15c.14.097.306.258.38.434.07.14.07.25.05.306l-.09.073-.263-.144-.26-.11c-.146-.05-.315-.068-.315-.068s-.13-.043-.34-.07c-.21-.03-.5-.033-.77.022-.136.027-.263.068-.366.12-.102.05-.18.11-.223.163-.087.103-.085.19-.09.195zm-.717 1.49l-.02-.007-.21-.146c-.088-.07-.19-.172-.188-.364l.01-.043.165-.098c.097-.05.23-.102.383-.148.307-.092.7-.154 1.084-.193.775-.076 1.526-.073 1.528-.076 0 0 .493.066.833.173.577.15.346.3-.013.386.036.01-.852.128-.85.132.002.002-.73.003-1.442.076-.356.036-.703.095-.94.168l-.258.1-.08.046zm1.51-3.843l-.056-.037c-.09-.095-.21-.244-.256-.43-.024-.093-.026-.197.025-.307.053-.11.162-.23.36-.33l.116-.03c.02.006.263.04.625.15.36.11.834.302 1.357.574.45.233 1.016.57 1.535.932.523.36.995.738 1.303 1.032l.14.14.207.234.077.287.04.144.057.225.05.192c-.002 0 .08.434.157 1.03.077.596.147 1.35.14 1.98.01.532-.035.88-.09 1.08-.057.196-.118.245-.174.19-.112-.11-.224-.613-.382-1.227 0 .067-.16-.672-.37-1.42-.202-.75-.45-1.505-.45-1.505l-.11-.43v-.002l-.1-.098c-.23-.22-.666-.575-1.15-.91-.483-.335-1.014-.652-1.423-.863-.47-.244-.876-.405-1.162-.49-.287-.09-.45-.11-.465-.114zm-3.384-.79l.086-.006c.16.02.37.095.485.254.113.158.124.39-.038.726l-.06.075c-.016.004-.187.075-.465.22-.278.147-.66.375-1.114.68-.334.22-.776.535-1.226.827-.225.144-.45.285-.658.406l-.154.088-.07.04-.018.01-.005.006h-.003l-.08-.17v.016l.012.055.05.044.024.027.01.014.004.003-.006.008-.03.04c-.044.074-.092.186-.125.287l-.082.277-.058.253s-.115.39-.23.953c-.12.565-.242 1.29-.354 1.897-.09.546-.16.89-.23 1.076l-.007-.036-.002.012-.035.03-.01.01v.002-.006l-.01-.013-.01-.014-.006-.01v.004l.017-.007.067-.014.07.023.005.07-.01.05-.02.03-.02.016-.037.018-.057.008-.06-.014-.034-.02-.018-.015-.015-.016-.007-.008-.026-.03-.018-.074c-.076-.225-.137-.65-.17-1.143-.013.07-.044-.71-.02-1.513.01-.403.037-.813.07-1.126.034-.312.074-.53.074-.53l.067-.26.103-.315c.046-.127.102-.272.213-.452l.118-.16.086-.095.05-.05.032-.025.04-.03.046-.032.022-.013.016-.01.04-.024.064-.036.138-.08c.19-.11.398-.237.61-.376.425-.275.872-.59 1.225-.826.47-.318.9-.575 1.217-.743.32-.167.526-.253.545-.262zm-.344-4.19l-.003-.02.053-.21c.04-.084.11-.176.24-.242l.03-.008.326.214c.182.118.407.25.644.284.277.054.526.05.68-.002.157-.047.244-.123.244-.123l.167-.088.337-.24c.18-.145.27-.174.302-.124.035.05.013.18-.045.32.013-.01-.06.15-.176.31-.107.164-.274.313-.276.31l-.108.068c-.07.04-.177.09-.31.127-.134.04-.295.06-.456.057-.16 0-.327-.02-.48-.05-.175-.026-.347-.092-.488-.16l-.36-.207-.322-.212zm2.52-5.99c-.026-.268.41-.536.654-.484.245.055.618.56.51.854-.11.268-.646.406-.863.19-.163-.16-.273-.373-.3-.56zm-2.772.17c-.636.272-.115 1.126.446.94.562-.19.91-.854-.36-1.02l-.085.08zm0 0" fill="#fff"/><path d="M8.823 53.675l-.003-.003-.024-.014-.153.015c-.092.016-.22.055-.346.13-.127.078-.25.188-.352.317-.1.13-.182.274-.246.423-.13.3-.19.61-.2.85-.01.24.023.412.023.412.002-.002.046.204.193.394.07.09.177.17.267.205l.14.03c.105.01.19-.02.243-.05l.085-.097-.06-.075-.183-.083c-.07-.06-.087-.146-.1-.236l-.01-.163c.003 0-.025-.105-.02-.29.007-.182.05-.436.148-.664.046-.114.106-.22.172-.304.065-.084.134-.144.194-.18l.117-.052-.063.402c-.09.596-.1 1.206-.043 1.816.06.61.197 1.218.42 1.8.225.585.536 1.14.93 1.638.394.5.866.936 1.39 1.29l.406.254.41.22c.276.136.557.26.843.368.6.228 1.22.398 1.85.507l.017.447c.015.345.007.658.005.655l.09.184.097.16.1.096.12.1c.085.057.24.11.408-.054.22-.17.344-.423.346-.423l.006-.24-.006-.506-.01-.295.314.01.03.32.06.64s.234.376.257.356c.157.144.423.21.642-.065.16-.164.26-.38.26-.38l-.06-.646-.025-.29c.284-.035.566-.087.845-.155.293-.074.58-.165.86-.277.29-.113.554-.252.807-.403 1.016-.61 1.8-1.446 2.387-2.343s.976-1.88 1.13-2.866c.04-.244.06-.494.07-.734.01-.245 0-.488-.02-.724-.027-.315-.08-.62-.154-.915.11.08.226.187.323.298l.02.034.03.06.05.15.05.29v.28l.004.075v.074l-.006.03.004.02-.022.055-.027.022-.05.017-.07.005-.11.022-.014.097.057.082.06.047.096.047c.086.036.21.04.313-.014l.14-.102.052-.067.04-.062c.082-.15.103-.254.105-.254 0 0 .026-.168.007-.398-.007-.116-.027-.247-.063-.39l-.07-.223c-.032-.08-.065-.158-.14-.25l-.045-.055-.04-.045-.08-.08-.167-.15c-.112-.09-.227-.17-.345-.23-.11-.06-.226-.098-.332-.11-.272-.716-.645-1.327-1.03-1.845l-.11-.148-.037-.045-.066-.085-.125-.153-.21-.24-.18-.2-.394-.357c-.24-.208-.568-.47-.903-.71-.67-.484-1.372-.868-1.32-.82-.595-.31-1.12-.488-1.272-.444-.076.02-.06.097.08.246.14.15.4.37.8.704.463.404 1 .9 1.397 1.316.398.413.66.737.66.736-.003.002.25.246.6.686l.1.127.3.426c.195.297.374.62.525.96.3.686.475 1.467.42 2.3-.047.825-.32 1.7-.78 2.517-.462.815-1.112 1.583-1.92 2.15-.202.14-.415.27-.636.38l-.333.15-.356.125c-.48.152-.996.24-1.525.27-1.057.06-2.157-.106-3.194-.464-.26-.09-.515-.19-.76-.306l-.37-.18-.35-.193c-.452-.278-.86-.62-1.2-1.017-.69-.793-1.1-1.803-1.23-2.847-.032-.26-.05-.523-.05-.786l.014-.393.036-.385c.07-.54.174-1.07.31-1.59.27-1.026.67-2.01 1.252-2.776.145-.195.302-.37.47-.53l.126-.116.124-.104.065-.045.073-.052.15-.102c.41-.266.845-.502 1.28-.707.87-.407 1.76-.7 2.567-.77.492-.04.87.027 1.1.117.23.09.333.183.346.187l.08.004c.164-.025.306-.046.42-.09.113-.04.196-.1.254-.18.112-.155.09-.397.008-.566l-.06-.084c-.02-.01-.23-.19-.635-.343-.2-.076-.448-.14-.72-.174-.274-.034-.576-.04-.89-.014-.51.042-1.007.152-1.497.3-.488.15-.968.34-1.443.56-.474.222-.94.474-1.404.77l-.348.236c-.132.098-.244.194-.353.294-.22.2-.418.42-.6.65-.36.465-.647.97-.885 1.494-.24.524-.427 1.07-.58 1.626-.065.24-.124.484-.176.73zm3.42 16.202l-.008.003-.014.01v1.392s.1.418.11.4c.07.167.2.276.326.005.088-.16.15-.386.15-.386l.002-1.41-.024-.01-.175-.036.005-.01.09-.214-.07-.335-.035-.232-.01-.095-.024-.003-.337-.01-.21.03-.015.01.013.137.04.26.08.367.107.13zm8.698-1.037l.017.003.085.008h.125l.156.016c.056.015.116.052.16.12l.016.037-.065.14-.05.09-.013.036.007.09.012.092.008.12.008.39.032 1.068c.002 0-.048.35-.133.597-.12.416-.252.248-.323-.004-.01.028-.124-.605-.124-.605l-.035-1.054-.007-.39v-.03l-.004-.03-.013-.085-.01-.24.078-.22.054-.1.02-.045zm-4.112.05l.004-.045.044.004.055-.01.068-.017.03-.01-.017.007-.033.015-.073.037-.177.06-.11-.003-.067-.045-.017-.025-.012-.046.008-.08.022-.065.05-.07.072-.058.062-.028.054-.013.085-.007.047.005.096.034.093.056.184.144.222.184.12.086.05.03.013.01-.004.005-.007.01-.02.056-.018.052-.012.04.04-.18.054.023c.246.106.59.117.83.073.25-.04.402-.123.402-.123l.19-.046c.11-.032.245-.087.36-.15.185-.116.275-.167.33-.114.048.05.047.197-.032.357.018-.008-.085.176-.244.327-.156.153-.35.266-.35.266s-.222.11-.56.165c-.337.057-.79.05-1.194-.116l.048.017-.17-.07-.104-.064-.157-.116-.235-.19-.14-.11-.01-.007h.002l.025-.043.046-.083.06-.13zm.238-2.027l-.017.008-.255.05c-.112.01-.254.01-.398-.106l-.023-.032.04-.177c.03-.104.098-.252.216-.385.116-.132.277-.25.45-.332.173-.083.36-.14.546-.175.373-.07.743-.06 1.017-.02.276.037.457.103.457.103l.255.15c.14.097.306.258.38.434.07.14.07.25.05.306l-.09.073-.263-.144-.26-.11c-.146-.05-.315-.068-.315-.068s-.13-.043-.34-.07c-.21-.03-.5-.033-.77.022-.136.027-.263.068-.366.12-.102.05-.18.11-.223.163-.087.103-.085.19-.09.195zm-.717 1.49l-.02-.007-.21-.146c-.088-.07-.19-.172-.188-.364l.01-.043.165-.098c.097-.05.23-.102.383-.148.307-.092.7-.154 1.084-.193.775-.076 1.526-.073 1.528-.076 0 0 .493.066.833.173.577.15.346.3-.013.386.036.01-.852.128-.85.132.002.002-.73.003-1.442.076-.356.036-.703.095-.94.168l-.258.1-.08.046zm1.51-3.843l-.056-.037c-.09-.095-.21-.244-.256-.43-.024-.093-.026-.197.025-.307.053-.11.162-.23.36-.33l.116-.03c.02.006.263.04.625.15.36.11.834.302 1.357.574.45.233 1.016.57 1.535.932.523.36.995.738 1.303 1.032l.14.14.207.234.077.287.04.144.057.225.05.192c-.002 0 .08.434.157 1.03.077.596.147 1.35.14 1.98.01.532-.035.88-.09 1.08-.057.196-.118.245-.174.19-.112-.11-.224-.613-.382-1.227 0 .067-.16-.672-.37-1.42-.202-.75-.45-1.505-.45-1.505l-.11-.43v-.002l-.1-.098c-.23-.22-.666-.575-1.15-.91-.483-.335-1.014-.652-1.423-.863-.47-.244-.876-.405-1.162-.49-.287-.09-.45-.11-.465-.114zm-3.384-.79l.086-.006c.16.02.37.095.485.254.113.158.124.39-.038.726l-.06.075c-.016.004-.187.075-.465.22-.278.147-.66.375-1.114.68-.334.22-.776.535-1.226.827-.225.144-.45.285-.658.406l-.154.088-.07.04-.018.01-.005.006h-.003l-.08-.17v.016l.012.055.05.044.024.027.01.014.004.003-.006.008-.03.04c-.044.074-.092.186-.125.287l-.082.277-.058.253s-.115.39-.23.953c-.12.565-.242 1.29-.354 1.897-.09.546-.16.89-.23 1.076l-.007-.036-.002.012-.035.03-.01.01v.002-.006l-.01-.013-.01-.014-.006-.01v.004l.017-.007.067-.014.07.023.005.07-.01.05-.02.03-.02.016-.037.018-.057.008-.06-.014-.034-.02-.018-.015-.015-.016-.007-.008-.026-.03-.018-.074c-.076-.225-.137-.65-.17-1.143-.013.07-.044-.71-.02-1.513.01-.403.037-.813.07-1.126.034-.312.074-.53.074-.53l.067-.26.103-.315c.046-.127.102-.272.213-.452l.118-.16.086-.095.05-.05.032-.025.04-.03.046-.032.022-.013.016-.01.04-.024.064-.036.138-.08c.19-.11.398-.237.61-.376.425-.275.872-.59 1.225-.826.47-.318.9-.575 1.217-.743.32-.167.526-.253.545-.262zm-.344-4.19l-.003-.02.053-.21c.04-.084.11-.176.24-.242l.03-.008.326.214c.182.118.407.25.644.284.277.054.526.05.68-.002.157-.047.244-.123.244-.123l.167-.088.337-.24c.18-.145.27-.174.302-.124.035.05.013.18-.045.32.013-.01-.06.15-.176.31-.107.164-.274.313-.276.31l-.108.068c-.07.04-.177.09-.31.127-.134.04-.295.06-.456.057-.16 0-.327-.02-.48-.05-.175-.026-.347-.092-.488-.16l-.36-.207-.322-.212zm2.52-5.99c-.026-.268.41-.536.654-.484.245.055.618.56.51.854-.11.268-.646.406-.863.19-.163-.16-.273-.373-.3-.56zm-2.772.17c-.636.272-.115 1.126.446.94.562-.19.91-.854-.36-1.02l-.085.08zm0 0" fill="#67737B"/><path d="M8.823 13.675l-.003-.003-.024-.014-.153.015c-.092.016-.22.055-.346.13-.127.078-.25.188-.352.317-.1.13-.182.274-.246.423-.13.3-.19.61-.2.85-.01.24.023.412.023.412.002-.002.046.204.193.394.07.09.177.17.267.205l.14.03c.105.01.19-.02.243-.05l.085-.097-.06-.075-.183-.083c-.07-.06-.087-.146-.1-.236l-.01-.163c.003 0-.025-.105-.02-.29.007-.182.05-.436.148-.664.046-.114.106-.22.172-.304.065-.084.134-.144.194-.18l.117-.052-.063.402c-.09.596-.1 1.206-.043 1.816.06.61.197 1.218.42 1.8.225.585.536 1.14.93 1.638.394.5.866.936 1.39 1.29l.406.254.41.22c.276.136.557.26.843.368.6.228 1.22.398 1.85.507l.017.447c.015.345.007.658.005.655l.09.184.097.16.1.096.12.1c.085.057.24.11.408-.054.22-.17.344-.423.346-.423l.006-.24-.006-.506-.01-.295.314.01.03.32.06.64s.234.376.257.356c.157.144.423.21.642-.065.16-.164.26-.38.26-.38l-.06-.646-.025-.29c.284-.035.566-.087.845-.155.293-.074.58-.165.86-.277.29-.113.554-.252.807-.403 1.016-.61 1.8-1.446 2.387-2.343s.976-1.88 1.13-2.866c.04-.244.06-.494.07-.734.01-.245 0-.488-.02-.724-.027-.315-.08-.62-.154-.915.11.08.226.187.323.298l.02.034.03.06.05.15.05.29v.28l.004.075v.074l-.006.03.004.02-.022.055-.027.022-.05.017-.07.005-.11.022-.014.097.057.082.06.047.096.047c.086.036.21.04.313-.014l.14-.102.052-.067.04-.062c.082-.15.103-.254.105-.254 0 0 .026-.168.007-.398-.007-.116-.027-.247-.063-.39l-.07-.223c-.032-.08-.065-.158-.14-.25l-.045-.055-.04-.045-.08-.08-.167-.15c-.112-.09-.227-.17-.345-.23-.11-.06-.226-.098-.332-.11-.272-.716-.645-1.327-1.03-1.845l-.11-.148-.037-.045-.066-.085-.125-.153-.21-.24-.18-.2-.394-.357c-.24-.208-.568-.47-.903-.71-.67-.484-1.372-.868-1.32-.82-.595-.31-1.12-.488-1.272-.444-.076.02-.06.097.08.246.14.15.4.37.8.704.463.404 1 .9 1.397 1.316.398.413.66.737.66.736-.003.002.25.246.6.686l.1.127.3.426c.195.297.374.62.525.96.3.686.475 1.467.42 2.3-.047.825-.32 1.7-.78 2.517-.462.815-1.112 1.583-1.92 2.15-.202.14-.415.27-.636.38l-.333.15-.356.125c-.48.152-.996.24-1.525.27-1.057.06-2.157-.106-3.194-.464-.26-.09-.515-.19-.76-.306l-.37-.18-.35-.193c-.452-.278-.86-.62-1.2-1.017-.69-.793-1.1-1.803-1.23-2.847-.032-.26-.05-.523-.05-.786l.014-.393.036-.385c.07-.54.174-1.07.31-1.59.27-1.026.67-2.01 1.252-2.776.145-.195.302-.37.47-.53l.126-.116.124-.104.065-.045.073-.052.15-.102c.41-.266.845-.502 1.28-.707.87-.407 1.76-.7 2.567-.77.492-.04.87.027 1.1.117.23.09.333.183.346.187l.08.004c.164-.025.306-.046.42-.09.113-.04.196-.1.254-.18.112-.155.09-.397.008-.566l-.06-.084c-.02-.01-.23-.19-.635-.343-.2-.076-.448-.14-.72-.174-.274-.034-.576-.04-.89-.014-.51.042-1.007.152-1.497.3-.488.15-.968.34-1.443.56-.474.222-.94.474-1.404.77l-.348.236c-.132.098-.244.194-.353.294-.22.2-.418.42-.6.65-.36.465-.647.97-.885 1.494-.24.524-.427 1.07-.58 1.626-.065.24-.124.484-.176.73zm3.42 16.202l-.008.003-.014.01v1.392s.1.418.11.4c.07.167.2.276.326.005.088-.16.15-.386.15-.386l.002-1.41-.024-.01-.175-.036.005-.01.09-.214-.07-.335-.035-.232-.01-.095-.024-.003-.337-.01-.21.03-.015.01.013.137.04.26.08.367.107.13zm8.698-1.037l.017.003.085.008h.125l.156.016c.056.015.116.052.16.12l.016.037-.065.14-.05.09-.013.036.007.09.012.092.008.12.008.39.032 1.068c.002 0-.048.35-.133.597-.12.416-.252.248-.323-.004-.01.028-.124-.605-.124-.605l-.035-1.054-.007-.39v-.03l-.004-.03-.013-.085-.01-.24.078-.22.054-.1.02-.045zm-4.112.05l.004-.045.044.004.055-.01.068-.017.03-.01-.017.007-.033.015-.073.037-.177.06-.11-.003-.067-.045-.017-.025-.012-.046.008-.08.022-.065.05-.07.072-.058.062-.028.054-.013.085-.007.047.005.096.034.093.056.184.144.222.184.12.086.05.03.013.01-.004.005-.007.01-.02.056-.018.052-.012.04.04-.18.054.023c.246.106.59.117.83.073.25-.04.402-.123.402-.123l.19-.046c.11-.032.245-.087.36-.15.185-.116.275-.167.33-.114.048.05.047.197-.032.357.018-.008-.085.176-.244.327-.156.153-.35.266-.35.266s-.222.11-.56.165c-.337.057-.79.05-1.194-.116l.048.017-.17-.07-.104-.064-.157-.116-.235-.19-.14-.11-.01-.007h.002l.025-.043.046-.083.06-.13zm.238-2.027l-.017.008-.255.05c-.112.01-.254.01-.398-.106l-.023-.032.04-.177c.03-.104.098-.252.216-.385.116-.132.277-.25.45-.332.173-.083.36-.14.546-.175.373-.07.743-.06 1.017-.02.276.037.457.103.457.103l.255.15c.14.097.306.258.38.434.07.14.07.25.05.306l-.09.073-.263-.144-.26-.11c-.146-.05-.315-.068-.315-.068s-.13-.043-.34-.07c-.21-.03-.5-.033-.77.022-.136.027-.263.068-.366.12-.102.05-.18.11-.223.163-.087.103-.085.19-.09.195zm-.717 1.49l-.02-.007-.21-.146c-.088-.07-.19-.172-.188-.364l.01-.043.165-.098c.097-.05.23-.102.383-.148.307-.092.7-.154 1.084-.193.775-.076 1.526-.073 1.528-.076 0 0 .493.066.833.173.577.15.346.3-.013.386.036.01-.852.128-.85.132.002.002-.73.003-1.442.076-.356.036-.703.095-.94.168l-.258.1-.08.046zm1.51-3.843l-.056-.037c-.09-.095-.21-.244-.256-.43-.024-.093-.026-.197.025-.307.053-.11.162-.23.36-.33l.116-.03c.02.006.263.04.625.15.36.11.834.302 1.357.574.45.233 1.016.57 1.535.932.523.36.995.738 1.303 1.032l.14.14.207.234.077.287.04.144.057.225.05.192c-.002 0 .08.434.157 1.03.077.596.147 1.35.14 1.98.01.532-.035.88-.09 1.08-.057.196-.118.245-.174.19-.112-.11-.224-.613-.382-1.227 0 .067-.16-.672-.37-1.42-.202-.75-.45-1.505-.45-1.505l-.11-.43v-.002l-.1-.098c-.23-.22-.666-.575-1.15-.91-.483-.335-1.014-.652-1.423-.863-.47-.244-.876-.405-1.162-.49-.287-.09-.45-.11-.465-.114zm-3.384-.79l.086-.006c.16.02.37.095.485.254.113.158.124.39-.038.726l-.06.075c-.016.004-.187.075-.465.22-.278.147-.66.375-1.114.68-.334.22-.776.535-1.226.827-.225.144-.45.285-.658.406l-.154.088-.07.04-.018.01-.005.006h-.003l-.08-.17v.016l.012.055.05.044.024.027.01.014.004.003-.006.008-.03.04c-.044.074-.092.186-.125.287l-.082.277-.058.253s-.115.39-.23.953c-.12.565-.242 1.29-.354 1.897-.09.546-.16.89-.23 1.076l-.007-.036-.002.012-.035.03-.01.01v.002-.006l-.01-.013-.01-.014-.006-.01v.004l.017-.007.067-.014.07.023.005.07-.01.05-.02.03-.02.016-.037.018-.057.008-.06-.014-.034-.02-.018-.015-.015-.016-.007-.008-.026-.03-.018-.074c-.076-.225-.137-.65-.17-1.143-.013.07-.044-.71-.02-1.513.01-.403.037-.813.07-1.126.034-.312.074-.53.074-.53l.067-.26.103-.315c.046-.127.102-.272.213-.452l.118-.16.086-.095.05-.05.032-.025.04-.03.046-.032.022-.013.016-.01.04-.024.064-.036.138-.08c.19-.11.398-.237.61-.376.425-.275.872-.59 1.225-.826.47-.318.9-.575 1.217-.743.32-.167.526-.253.545-.262zm-.344-4.19l-.003-.02.053-.21c.04-.084.11-.176.24-.242l.03-.008.326.214c.182.118.407.25.644.284.277.054.526.05.68-.002.157-.047.244-.123.244-.123l.167-.088.337-.24c.18-.145.27-.174.302-.124.035.05.013.18-.045.32.013-.01-.06.15-.176.31-.107.164-.274.313-.276.31l-.108.068c-.07.04-.177.09-.31.127-.134.04-.295.06-.456.057-.16 0-.327-.02-.48-.05-.175-.026-.347-.092-.488-.16l-.36-.207-.322-.212zm2.52-5.99c-.026-.268.41-.536.654-.484.245.055.618.56.51.854-.11.268-.646.406-.863.19-.163-.16-.273-.373-.3-.56zm-2.772.17c-.636.272-.115 1.126.446.94.562-.19.91-.854-.36-1.02l-.085.08zm0 0" fill="#3A434E"/></g></svg>