<svg width="32" height="232" viewBox="0 0 32 232" xmlns="http://www.w3.org/2000/svg"><title>dude-confused</title><g fill="none"><path d="M14.418 142.336l.03.298.053.597.167.247-.034.008c-.254.04-.493.065-.692.074.122-.133.188-.265.188-.265l.005-.223-.005-.472-.01-.274.3.01zm1.11-.06l.024.27.052.604-.084.15.5-.134c.724-.204 1.443-.47 1.443-.47l.82-.266c.522-.177 1.2-.415 1.942-.72.37-.15.758-.32 1.135-.51.187-.096.373-.197.538-.304l.212-.16.128-.15c.086-.134.165-.315.23-.507.062-.195.116-.404.16-.616.092-.423.15-.863.195-1.295.093-.864.13-1.7.15-2.418.017-.51.02-.944.02-1.254l-.005-.282-.236-.114v-.03c.015-.078.062-.208.147-.362.083-.154.207-.332.36-.512l.032-.032.046.026-.063-.208-.072-.272-.04-.163v-.005.003l-.168.13c-.095.063-.19.13-.35.172l-.147.012-.043-.002-.053-.006-.186-.04c-.238-.07-.428-.192-.58-.317-.15-.126-.265-.26-.347-.376-.207-.292-.24-.547-.24-.547l-.004-.18.05-.215.07-.117.077-.09c.112-.115.245-.218.388-.31.143-.093.293-.172.43-.235.18-.083.316-.125.412-.15l-.05-.022-.038-.017-.236-.112c-.143-.06-.35-.136-.595-.16-.255-.023-.516.023-.765.14-.253.116-.49.292-.74.49-.13.102-.26.21-.417.31l-.27.144-.22.05.13.118.174.184.196.224.12.142.065.08.033.042.108.14c.364.483.72 1.053.98 1.722.104.01.214.048.316.1.113.06.222.133.33.22l.16.136.076.077.037.04.045.05.132.232.068.208c.033.135.05.26.06.366.018.216-.007.37-.007.37-.002 0-.02.1-.1.236l-.036.058-.053.063-.134.098c-.098.048-.21.046-.296.013l-.093-.045-.054-.045-.055-.077.015-.086.107-.024.066-.003.045-.016.025-.02.02-.053-.002-.017.004-.03v-.067l-.004-.073v-.26l-.05-.272-.046-.137-.027-.057-.022-.032c-.092-.102-.205-.2-.308-.275.07.273.12.558.146.852.022.22.026.448.018.675-.008.223-.028.458-.065.688-.146.92-.517 1.836-1.073 2.676-.558.836-1.304 1.616-2.27 2.185-.242.143-.496.273-.77.378-.266.105-.54.188-.818.255-.266.064-.535.113-.806.147zm2.828-11.826c-.01-.102.004-.203.03-.292.034-.118.092-.22.156-.31l.202-.23.222-.195c.155-.117.32-.22.49-.306.345-.175.71-.295 1.078-.37.736-.153 1.497-.12 2.164.09.336.103.645.246.92.418.137.085.267.176.384.272.128.098.24.215.326.336.18.242.29.496.373.735l.106.35.037.165.016.068.07.45.024.485c.008.277-.004.626-.037.912l-.042.33.215.052c.194.037.3.113.33.215.035.1-.004.22-.08.324l-.04.054c.045.21.13.63.223 1.165.09.5.176 1.057.255 1.65.078.594.15 1.223.19 1.872.04.65.05 1.318-.018 1.99-.035.335-.094.67-.186 1-.097.327-.226.648-.4.94-.17.292-.385.552-.616.773-.23.22-.476.398-.715.548-.24.15-.477.272-.703.375l-.324.14-.154.06-.09.035c-.415.155-.674.227-.674.227.002.002-.31.085-.735.176-.422.093-.954.195-1.393.283-.5.1-.76.164-.852.188.167-.002.36.04.572.146l.043.037c.002.016-.004.29.037.71.037.422.124.983.237 1.543.226 1.12.548 2.227.546 2.227 0 0 .095.75.093 1.3.043.924-.3.656-.593.154-.004.03-.153-.275-.298-.592l-.286-.646s-.325-1.115-.556-2.27c-.117-.578-.208-1.166-.25-1.627-.044-.458-.04-.783-.04-.8l.027-.036c.08-.06.22-.127.4-.143l.066-.002c.114-.034.452-.15.85-.306-.046.014.476-.18.997-.404.524-.22 1.037-.472 1.035-.473l.163-.074.192-.087.118-.057.147-.074c.34-.172.735-.386 1.118-.676.38-.29.736-.657.974-1.126.24-.468.372-1.035.44-1.633.066-.597.078-1.23.078-1.85-.002-.624-.018-1.24-.027-1.826-.01-.585-.017-1.14-.017-1.642 0-.47.007-.854.013-1.088l-.052.043-.26.18-.32.07c-.195.036-.47.06-.747.03-.215-.02-.425-.072-.598-.13l.044.164c.084.305.184.736.27 1.254.12.718.21 1.56.21 2.466.003.452-.018.92-.083 1.4-.032.24-.077.482-.142.73-.07.245-.154.495-.295.752-.072.13-.163.26-.285.387l-.05.047-.042.04-.084.07-.17.128c-.22.152-.435.27-.65.38-.43.218-.848.39-1.25.54-.807.3-1.54.503-2.128.646-.63.148-1.024.215-1.024.215s-.427.06-1.01.107c-.438.036-.964.058-1.453.055h-.078l-.385-.012c-.3-.01-.536-.032-.717-.054l-.09.076c-.158.152-.305.106-.385.048l-.115-.093-.098-.086-.09-.15-.087-.17c.002 0 .01-.294-.004-.613l-.016-.42c-.6-.102-1.19-.26-1.763-.475-.27-.102-.54-.216-.802-.344l-.39-.204-.386-.236c-.5-.333-.948-.74-1.324-1.203-.373-.464-.67-.984-.884-1.528-.214-.544-.344-1.112-.4-1.68-.053-.57-.044-1.137.042-1.696l.06-.374-.112.047c-.057.035-.124.09-.185.17-.063.08-.12.176-.166.282-.093.21-.135.45-.14.62l.02.27.008.153c.01.082.03.163.096.22l.17.078.062.068-.082.092c-.05.03-.132.055-.232.048l-.133-.028c-.083-.03-.186-.11-.253-.196-.14-.176-.183-.368-.184-.368 0 0-.034-.158-.023-.383.01-.226.065-.517.187-.796.06-.138.14-.274.235-.395.097-.12.212-.224.334-.295.12-.07.242-.11.33-.122l.145-.015.022.013.003.004c.05-.228.105-.455.167-.68.146-.52.325-1.028.55-1.52.228-.488.5-.96.845-1.392.17-.216.36-.42.57-.606l.336-.274.33-.22c.44-.276.886-.51 1.336-.718.452-.208.91-.384 1.373-.524.466-.14.94-.24 1.426-.28.3-.024.587-.02.847.015.26.03.493.09.684.16.384.144.585.312.604.32l.057.08c.076.156.098.38-.012.526-.053.076-.132.132-.24.17-.108.04-.242.062-.4.083l-.074-.002c-.013-.005-.11-.09-.33-.173-.217-.084-.578-.147-1.044-.11-.77.062-1.618.337-2.446.717-.412.19-.827.41-1.216.66l-.143.095-.068.047-.062.046-.122.095-.12.11c-.16.146-.31.312-.447.49-.553.72-.934 1.634-1.19 2.595-.13.483-.227.98-.294 1.484l-.034.36-.01.368c0 .246.012.492.044.735.122.974.514 1.918 1.17 2.656.325.37.712.69 1.142.95l.33.18.352.17c.236.106.478.2.725.282.986.333 2.035.488 3.04.433.5-.028.993-.11 1.452-.252l.338-.117.316-.138c.21-.104.413-.223.604-.355.77-.528 1.39-1.244 1.828-2.006.44-.762.7-1.578.744-2.348.053-.778-.116-1.508-.402-2.148-.142-.32-.313-.62-.497-.895l-.29-.4-.092-.117c-.334-.41-.573-.64-.572-.64 0 0-.25-.302-.63-.688-.374-.387-.888-.848-1.327-1.227-.38-.31-.63-.518-.76-.657-.132-.136-.15-.208-.076-.228.144-.04.645.125 1.21.415-.048-.045.62.314 1.257.766l.317.23zm5.083 2.79v-.014l.02-.26.015-.28.003-.173-.005-.422-.008-.196-.004-.053V131.8h-.005l-.055.04-.373.265-.112.08-.03.02-.015.01-.03.015-.112.066-.11.05-.076.02h-.006l.002.01v.042l-.002.002.01-.054h-.014l-.018-.005-.01-.003-.023-.005-.103-.03c-.14-.052-.278-.143-.385-.233-.11-.095-.196-.192-.257-.27-.138-.18-.17-.297-.17-.297l-.052-.152-.004-.062.02-.066.123-.207c.103-.14.224-.273.318-.364l.147-.132c.114-.097.23-.174.328-.224l.06-.03.072.02-.028-.037.09-.03-.088.018-.01.003-.07-.076-.025-.027-.216-.166c-.134-.094-.337-.22-.62-.292-.293-.078-.64-.068-.956.038-.322.1-.615.28-.886.46l-.396.258-.183.09-.023.007-.01.005-.023.003h-.05c-.063-.013-.125-.062-.14-.117-.022-.052-.01-.143.055-.246l.05-.08.07-.083.16-.158c.117-.104.244-.2.38-.283.275-.17.58-.303.897-.39.637-.177 1.315-.185 1.92-.047.302.068.588.176.848.305l.37.217.168.118.142.125c.18.18.307.397.404.606.098.21.168.42.223.612l.03.12.02.084.03.134.024.112.042.227.064.5c.035.363.02.72.023.69l-.02.345-.098-.02-.158-.03s-.346.107-.664.07c-.16-.017-.32-.06-.434-.108l-.055-.023zm-3.755-1.826l-.008-.004-.033-.016.033-.01.01-.005.17-.07.35-.16c.248-.11.505-.2.505-.2l.31-.078.117-.06-.09.105-.112.117-.13.12-.153.09c-.097.05-.228.11-.367.148-.142.04-.29.058-.405.055l-.14-.017-.058-.018zm-1.387-2.548l-.018.005-.078.026.045-.06.014-.02.094-.1c.058-.06.147-.135.262-.21l.067-.04.237-.117.25-.064c.15-.028.335-.04.49-.032l.257.016.045.002c-.027 0-.155.02-.3.07l-.333.12-.34.144-.197.076-.068.025-.3.112-.13.045zm-2.49-7.153l-.053.028c-.12.033-.303.077-.484.037-.09-.02-.18-.064-.252-.152-.072-.09-.132-.223-.133-.43l.02-.106.12-.15c.07-.08.18-.202.337-.328.157-.128.365-.264.62-.37.127-.055.263-.102.408-.14l.112-.025.095-.02.247-.043c.12-.014.28-.02.435-.007.153.01.302.04.398.066.21.054.396.14.548.238.15.097.27.205.353.3.17.19.225.32.227.32-.002 0 .074.13.13.36.025.112.045.254.047.394.004.145-.004.32-.05.503-.046.184-.133.375-.256.54-.122.168-.275.305-.434.414-.316.216-.646.337-.934.43-.242.086-.44.145-.6.19l-.376.104c-.187.045-.26.032-.245-.04.013-.073.12-.203.3-.344.178-.144.426-.296.68-.455l.322-.212c.204-.137.454-.343.542-.558.05-.106.064-.214.06-.33-.004-.108-.033-.244-.062-.324-.064-.17-.142-.234-.14-.237l-.08-.09c-.056-.055-.157-.126-.32-.17l-.19-.03-.222.005-.138.023-.093.02-.07.016-.246.082c-.15.063-.266.14-.354.212-.18.146-.26.272-.268.28zm-.43 3.204c.035-.26.475-.433.68-.336.202.1.418.65.258.91-.155.235-.654.265-.8.02-.108-.184-.157-.408-.14-.593zm-4.886 24.148l.014-.01c.078-.03.28-.075.52 0l.022.01-.002 1.318s-.057.21-.143.36c-.12.253-.24.15-.305-.005-.014.016-.107-.372-.107-.372v-1.3zm4.033-14.966c-.027-.26.405-.52.647-.47.24.053.61.543.503.828-.11.26-.64.394-.853.185-.16-.155-.27-.363-.297-.544zm-2.742.165c-.63.263-.115 1.09.44.91.556-.182.902-.827-.355-.99l-.084.08zm3.094 13.87l.002-.045.04.005.052-.007.065-.015.03-.01-.016.007-.03.013-.07.034-.168.057-.106-.003-.063-.04-.014-.024-.012-.044.004-.075.025-.06.045-.064.07-.054.06-.025.05-.014.082-.007.043.005.09.033.09.05.176.136.212.17.112.08.047.03.014.007h.002l-.004.01-.006.01-.02.05-.017.046-.012.04.038-.168.05.023c.235.096.56.108.79.065.237-.04.382-.115.382-.115l.18-.043c.107-.03.234-.082.347-.14.172-.11.258-.158.308-.108.05.047.047.187-.027.337.016-.01-.082.164-.23.304-.147.143-.332.247-.332.247s-.212.102-.534.153c-.32.053-.752.048-1.137-.11l.047.018-.163-.066-.098-.06-.15-.108-.225-.178-.132-.1-.01-.008.02-.04.045-.08.055-.12zm.225-1.893l-.017.008-.24.043c-.11.01-.245.01-.38-.1l-.024-.03.038-.167c.03-.097.095-.234.206-.358.113-.126.264-.232.428-.31.165-.08.344-.132.52-.164.356-.07.708-.058.97-.02.26.036.433.096.433.096l.243.14c.134.09.292.242.362.404.068.133.064.234.05.287l-.087.07-.25-.134-.246-.105-.3-.06s-.123-.042-.326-.066c-.197-.026-.476-.03-.733.02-.128.026-.25.065-.348.112-.097.047-.17.103-.213.153-.084.095-.08.175-.084.18zm-.683 1.39l-.02-.006-.2-.137c-.083-.067-.182-.162-.178-.34l.012-.04.155-.09c.092-.05.217-.098.363-.14.292-.086.666-.145 1.033-.18.734-.07 1.45-.07 1.45-.07s.47.06.793.16c.55.14.33.28-.014.356.035.012-.81.12-.808.126 0 0-.696 0-1.373.068-.338.033-.67.09-.894.156l-.244.092-.076.045zm-1.783-4.323l.082-.006c.154.016.353.09.46.235.108.147.117.365-.036.677l-.055.07-.445.21c-.264.137-.627.35-1.06.635-.317.207-.737.497-1.166.77-.215.137-.43.268-.628.38l-.145.082-.07.04-.016.01-.003.002h-.004l-.074-.16-.003.003v.014l.01.05.05.04.024.026.012.01.002.004-.006.007-.03.04-.12.267-.08.258-.052.237s-.11.36-.222.888c-.112.525-.227 1.206-.336 1.768-.082.513-.15.837-.217 1.008l-.007-.035-.002.014-.032.028-.008.01v.002l-.004-.005-.008-.014-.01-.013-.005-.006h.004l.013-.006.063-.015.068.023.005.064-.01.048-.02.03-.02.014-.034.017-.054.008-.054-.015-.034-.018-.017-.014-.013-.013-.008-.01-.024-.027-.016-.068c-.072-.21-.132-.608-.16-1.067-.015.062-.044-.663-.022-1.414.01-.374.035-.754.068-1.05.03-.292.07-.495.07-.495l.063-.243.095-.293c.045-.12.1-.256.205-.424l.112-.15.08-.087.05-.047.028-.02.037-.03.043-.03.022-.014.015-.01.035-.02.06-.034.133-.072.58-.354c.405-.26.83-.555 1.164-.773.45-.297.856-.536 1.16-.692.303-.157.498-.238.517-.246zm2.53-4.438l.008.016c.015.084.025.293-.162.475l-.023.016-.314-.106c-.177-.058-.4-.122-.624-.142-.24-.025-.477-.03-.64-.012l-.26.048-.164.016-.336.073c-.185.06-.27.057-.287.004-.018-.052.03-.15.116-.25-.013.005.096-.106.238-.2.14-.098.31-.165.31-.165s.142-.04.354-.06c.21-.02.482-.01.74.017.282.027.547.106.733.167l.31.102zm0 0" fill="#fff"/><path d="M14.418 62.336l.03.298.053.597.167.247-.034.008c-.254.04-.493.065-.692.074.122-.133.188-.265.188-.265l.005-.223-.005-.472-.01-.274.3.01zm1.11-.06l.024.27.052.604-.084.15.5-.134c.724-.204 1.443-.47 1.443-.47l.82-.266c.522-.177 1.2-.415 1.942-.72.37-.15.758-.32 1.135-.51.187-.096.373-.197.538-.304l.212-.16.128-.15c.086-.134.165-.315.23-.507.062-.195.116-.404.16-.616.092-.423.15-.863.195-1.295.093-.864.13-1.7.15-2.418.017-.51.02-.944.02-1.254l-.005-.282-.236-.114v-.03c.015-.078.062-.208.147-.362.083-.154.207-.332.36-.512l.032-.032.046.026-.063-.208-.072-.272-.04-.163v-.005.003l-.168.13c-.095.063-.19.13-.35.172l-.147.012-.043-.002-.053-.006-.186-.04c-.238-.07-.428-.192-.58-.317-.15-.126-.265-.26-.347-.376-.207-.292-.24-.547-.24-.547l-.004-.18.05-.215.07-.117.077-.09c.112-.115.245-.218.388-.31.143-.093.293-.172.43-.235.18-.083.316-.125.412-.15l-.05-.022-.038-.017-.236-.112c-.143-.06-.35-.136-.595-.16-.255-.023-.516.023-.765.14-.253.116-.49.292-.74.49-.13.102-.26.21-.417.31l-.27.144-.22.05.13.118.174.184.196.224.12.142.065.08.033.042.108.14c.364.483.72 1.053.98 1.722.104.01.214.048.316.1.113.06.222.133.33.22l.16.136.076.077.037.04.045.05.132.232.068.208c.033.135.05.26.06.366.018.216-.007.37-.007.37-.002 0-.02.1-.1.236l-.036.058-.053.063-.134.098c-.098.048-.21.046-.296.013l-.093-.045-.054-.045-.055-.077.015-.086.107-.024.066-.003.045-.016.025-.02.02-.053-.002-.017.004-.03v-.067l-.004-.073v-.26l-.05-.272-.046-.137-.027-.057-.022-.032c-.092-.102-.205-.2-.308-.275.07.273.12.558.146.852.022.22.026.448.018.675-.008.223-.028.458-.065.688-.146.92-.517 1.836-1.073 2.676-.558.836-1.304 1.616-2.27 2.185-.242.143-.496.273-.77.378-.266.105-.54.188-.818.255-.266.064-.535.113-.806.147zm2.828-11.826c-.01-.102.004-.203.03-.292.034-.118.092-.22.156-.31l.202-.23.222-.195c.155-.117.32-.22.49-.306.345-.175.71-.295 1.078-.37.736-.153 1.497-.12 2.164.09.336.103.645.246.92.418.137.085.267.176.384.272.128.098.24.215.326.336.18.242.29.496.373.735l.106.35.037.165.016.068.07.45.024.485c.008.277-.004.626-.037.912l-.042.33.215.052c.194.037.3.113.33.215.035.1-.004.22-.08.324l-.04.054c.045.21.13.63.223 1.165.09.5.176 1.057.255 1.65.078.594.15 1.223.19 1.872.04.65.05 1.318-.018 1.99-.035.335-.094.67-.186 1-.097.327-.226.648-.4.94-.17.292-.385.552-.616.773-.23.22-.476.398-.715.548-.24.15-.477.272-.703.375l-.324.14-.154.06-.09.035c-.415.155-.674.227-.674.227.002.002-.31.085-.735.176-.422.093-.954.195-1.393.283-.5.1-.76.164-.852.188.167-.002.36.04.572.146l.043.037c.002.016-.004.29.037.71.037.422.124.983.237 1.543.226 1.12.548 2.227.546 2.227 0 0 .095.75.093 1.3.043.924-.3.656-.593.154-.004.03-.153-.275-.298-.592l-.286-.646s-.325-1.115-.556-2.27c-.117-.578-.208-1.166-.25-1.627-.044-.458-.04-.783-.04-.8l.027-.036c.08-.06.22-.127.4-.143l.066-.002c.114-.034.452-.15.85-.306-.046.014.476-.18.997-.404.524-.22 1.037-.472 1.035-.473l.163-.074.192-.087.118-.057.147-.074c.34-.172.735-.386 1.118-.676.38-.29.736-.657.974-1.126.24-.468.372-1.035.44-1.633.066-.597.078-1.23.078-1.85-.002-.624-.018-1.24-.027-1.826-.01-.585-.017-1.14-.017-1.642 0-.47.007-.854.013-1.088l-.052.043-.26.18-.32.07c-.195.036-.47.06-.747.03-.215-.02-.425-.072-.598-.13l.044.164c.084.305.184.736.27 1.254.12.718.21 1.56.21 2.466.003.452-.018.92-.083 1.4-.032.24-.077.482-.142.73-.07.245-.154.495-.295.752-.072.13-.163.26-.285.387l-.05.047-.042.04-.084.07-.17.128c-.22.152-.435.27-.65.38-.43.218-.848.39-1.25.54-.807.3-1.54.503-2.128.646-.63.148-1.024.215-1.024.215s-.427.06-1.01.107c-.438.036-.964.058-1.453.055h-.078l-.385-.012c-.3-.01-.536-.032-.717-.054l-.09.076c-.158.152-.305.106-.385.048l-.115-.093-.098-.086-.09-.15-.087-.17c.002 0 .01-.294-.004-.613l-.016-.42c-.6-.102-1.19-.26-1.763-.475-.27-.102-.54-.216-.802-.344l-.39-.204-.386-.236c-.5-.333-.948-.74-1.324-1.203-.373-.464-.67-.984-.884-1.528-.214-.544-.344-1.112-.4-1.68-.053-.57-.044-1.137.042-1.696l.06-.374-.112.047c-.057.035-.124.09-.185.17-.063.08-.12.176-.166.282-.093.21-.135.45-.14.62l.02.27.008.153c.01.082.03.163.096.22l.17.078.062.068-.082.092c-.05.03-.132.055-.232.048l-.133-.028c-.083-.03-.186-.11-.253-.196-.14-.176-.183-.368-.184-.368 0 0-.034-.158-.023-.383.01-.226.065-.517.187-.796.06-.138.14-.274.235-.395.097-.12.212-.224.334-.295.12-.07.242-.11.33-.122l.145-.015.022.013.003.004c.05-.228.105-.455.167-.68.146-.52.325-1.028.55-1.52.228-.488.5-.96.845-1.392.17-.216.36-.42.57-.606l.336-.274.33-.22c.44-.276.886-.51 1.336-.718.452-.208.91-.384 1.373-.524.466-.14.94-.24 1.426-.28.3-.024.587-.02.847.015.26.03.493.09.684.16.384.144.585.312.604.32l.057.08c.076.156.098.38-.012.526-.053.076-.132.132-.24.17-.108.04-.242.062-.4.083l-.074-.002c-.013-.005-.11-.09-.33-.173-.217-.084-.578-.147-1.044-.11-.77.062-1.618.337-2.446.717-.412.19-.827.41-1.216.66l-.143.095-.068.047-.062.046-.122.095-.12.11c-.16.146-.31.312-.447.49-.553.72-.934 1.634-1.19 2.595-.13.483-.227.98-.294 1.484l-.034.36-.01.368c0 .246.012.492.044.735.122.974.514 1.918 1.17 2.656.325.37.712.69 1.142.95l.33.18.352.17c.236.106.478.2.725.282.986.333 2.035.488 3.04.433.5-.028.993-.11 1.452-.252l.338-.117.316-.138c.21-.104.413-.223.604-.355.77-.528 1.39-1.244 1.828-2.006.44-.762.7-1.578.744-2.348.053-.778-.116-1.508-.402-2.148-.142-.32-.313-.62-.497-.895l-.29-.4-.092-.117c-.334-.41-.573-.64-.572-.64 0 0-.25-.302-.63-.688-.374-.387-.888-.848-1.327-1.227-.38-.31-.63-.518-.76-.657-.132-.136-.15-.208-.076-.228.144-.04.645.125 1.21.415-.048-.045.62.314 1.257.766l.317.23zm5.083 2.79v-.014l.02-.26.015-.28.003-.173-.005-.422-.008-.196-.004-.053V51.8h-.005l-.055.04-.373.265-.112.08-.03.02-.015.01-.03.015-.112.066-.11.05-.076.02h-.006l.002.01v.042l-.002.002.01-.054h-.014l-.018-.005-.01-.003-.023-.005-.103-.03c-.14-.052-.278-.143-.385-.233-.11-.095-.196-.192-.257-.27-.138-.18-.17-.297-.17-.297l-.052-.152-.004-.062.02-.066.123-.207c.103-.14.224-.273.318-.364l.147-.132c.114-.097.23-.174.328-.224l.06-.03.072.02-.028-.037.09-.03-.088.018-.01.003-.07-.076-.025-.027-.216-.166c-.134-.094-.337-.22-.62-.292-.293-.078-.64-.068-.956.038-.322.1-.615.28-.886.46l-.396.258-.183.09-.023.007-.01.005-.023.003h-.05c-.063-.013-.125-.062-.14-.117-.022-.052-.01-.143.055-.246l.05-.08.07-.083.16-.158c.117-.104.244-.2.38-.283.275-.17.58-.303.897-.39.637-.177 1.315-.185 1.92-.047.302.068.588.176.848.305l.37.217.168.118.142.125c.18.18.307.397.404.606.098.21.168.42.223.612l.03.12.02.084.03.134.024.112.042.227.064.5c.035.363.02.72.023.69l-.02.345-.098-.02-.158-.03s-.346.107-.664.07c-.16-.017-.32-.06-.434-.108l-.055-.023zm-3.755-1.826l-.008-.004-.033-.016.033-.01.01-.005.17-.07.35-.16c.248-.11.505-.2.505-.2l.31-.078.117-.06-.09.105-.112.117-.13.12-.153.09c-.097.05-.228.11-.367.148-.142.04-.29.058-.405.055l-.14-.017-.058-.018zm-1.387-2.548l-.018.005-.078.026.045-.06.014-.02.094-.1c.058-.06.147-.135.262-.21l.067-.04.237-.117.25-.064c.15-.028.335-.04.49-.032l.257.016.045.002c-.027 0-.155.02-.3.07l-.333.12-.34.144-.197.076-.068.025-.3.112-.13.045zm-2.49-7.153l-.053.028c-.12.033-.303.077-.484.037-.09-.02-.18-.064-.252-.152-.072-.09-.132-.223-.133-.43l.02-.106.12-.15c.07-.08.18-.202.337-.328.157-.128.365-.264.62-.37.127-.055.263-.102.408-.14l.112-.025.095-.02.247-.043c.12-.014.28-.02.435-.007.153.01.302.04.398.066.21.054.396.14.548.238.15.097.27.205.353.3.17.19.225.32.227.32-.002 0 .074.13.13.36.025.112.045.254.047.394.004.145-.004.32-.05.503-.046.184-.133.375-.256.54-.122.168-.275.305-.434.414-.316.216-.646.337-.934.43-.242.086-.44.145-.6.19l-.376.104c-.187.045-.26.032-.245-.04.013-.073.12-.203.3-.344.178-.144.426-.296.68-.455l.322-.212c.204-.137.454-.343.542-.558.05-.106.064-.214.06-.33-.004-.108-.033-.244-.062-.324-.064-.17-.142-.234-.14-.237l-.08-.09c-.056-.055-.157-.126-.32-.17l-.19-.03-.222.005-.138.023-.093.02-.07.016-.246.082c-.15.063-.266.14-.354.212-.18.146-.26.272-.268.28zm-.43 3.204c.035-.26.475-.433.68-.336.202.1.418.65.258.91-.155.235-.654.265-.8.02-.108-.184-.157-.408-.14-.593zm-4.886 24.148l.014-.01c.078-.03.28-.075.52 0l.022.01-.002 1.318s-.057.21-.143.36c-.12.253-.24.15-.305-.005-.014.016-.107-.372-.107-.372v-1.3zM14.525 54.1c-.027-.26.405-.52.647-.47.24.053.61.543.503.828-.11.26-.64.394-.853.185-.16-.155-.27-.363-.297-.544zm-2.742.165c-.63.263-.115 1.09.44.91.556-.182.902-.827-.355-.99l-.084.08zm3.094 13.87l.002-.045.04.005.052-.007.065-.015.03-.01-.016.007-.03.013-.07.034-.168.057-.106-.003-.063-.04-.014-.024-.012-.044.004-.075.025-.06.045-.064.07-.054.06-.025.05-.014.082-.007.043.005.09.033.09.05.176.136.212.17.112.08.047.03.014.007h.002l-.004.01-.006.01-.02.05-.017.046-.012.04.038-.168.05.023c.235.096.56.108.79.065.237-.04.382-.115.382-.115l.18-.043c.107-.03.234-.082.347-.14.172-.11.258-.158.308-.108.05.047.047.187-.027.337.016-.01-.082.164-.23.304-.147.143-.332.247-.332.247s-.212.102-.534.153c-.32.053-.752.048-1.137-.11l.047.018-.163-.066-.098-.06-.15-.108-.225-.178-.132-.1-.01-.008.02-.04.045-.08.055-.12zm.225-1.893l-.017.008-.24.043c-.11.01-.245.01-.38-.1l-.024-.03.038-.167c.03-.097.095-.234.206-.358.113-.126.264-.232.428-.31.165-.08.344-.132.52-.164.356-.07.708-.058.97-.02.26.036.433.096.433.096l.243.14c.134.09.292.242.362.404.068.133.064.234.05.287l-.087.07-.25-.134-.246-.105-.3-.06s-.123-.042-.326-.066c-.197-.026-.476-.03-.733.02-.128.026-.25.065-.348.112-.097.047-.17.103-.213.153-.084.095-.08.175-.084.18zm-.683 1.39l-.02-.006-.2-.137c-.083-.067-.182-.162-.178-.34l.012-.04.155-.09c.092-.05.217-.098.363-.14.292-.086.666-.145 1.033-.18.734-.07 1.45-.07 1.45-.07s.47.06.793.16c.55.14.33.28-.014.356.035.012-.81.12-.808.126 0 0-.696 0-1.373.068-.338.033-.67.09-.894.156l-.244.092-.076.045zm-1.783-4.323l.082-.006c.154.016.353.09.46.235.108.147.117.365-.036.677l-.055.07-.445.21c-.264.137-.627.35-1.06.635-.317.207-.737.497-1.166.77-.215.137-.43.268-.628.38l-.145.082-.07.04-.016.01-.003.002h-.004l-.074-.16-.003.003v.014l.01.05.05.04.024.026.012.01.002.004-.006.007-.03.04-.12.267-.08.258-.052.237s-.11.36-.222.888c-.112.525-.227 1.206-.336 1.768-.082.513-.15.837-.217 1.008l-.007-.035-.002.014-.032.028-.008.01v.002l-.004-.005-.008-.014-.01-.013-.005-.006h.004l.013-.006.063-.015.068.023.005.064-.01.048-.02.03-.02.014-.034.017-.054.008-.054-.015-.034-.018-.017-.014-.013-.013-.008-.01-.024-.027-.016-.068c-.072-.21-.132-.608-.16-1.067-.015.062-.044-.663-.022-1.414.01-.374.035-.754.068-1.05.03-.292.07-.495.07-.495l.063-.243.095-.293c.045-.12.1-.256.205-.424l.112-.15.08-.087.05-.047.028-.02.037-.03.043-.03.022-.014.015-.01.035-.02.06-.034.133-.072.58-.354c.405-.26.83-.555 1.164-.773.45-.297.856-.536 1.16-.692.303-.157.498-.238.517-.246zm2.53-4.438l.008.016c.015.084.025.293-.162.475l-.023.016-.314-.106c-.177-.058-.4-.122-.624-.142-.24-.025-.477-.03-.64-.012l-.26.048-.164.016-.336.073c-.185.06-.27.057-.287.004-.018-.052.03-.15.116-.25-.013.005.096-.106.238-.2.14-.098.31-.165.31-.165s.142-.04.354-.06c.21-.02.482-.01.74.017.282.027.547.106.733.167l.31.102zm0 0" fill="#67737B"/><path d="M14.418 22.336l.03.298.053.597.167.247-.034.008c-.254.04-.493.065-.692.074.122-.133.188-.265.188-.265l.005-.223-.005-.472-.01-.274.3.01zm1.11-.06l.024.27.052.604-.084.15.5-.134c.724-.204 1.443-.47 1.443-.47l.82-.266c.522-.177 1.2-.415 1.942-.72.37-.15.758-.32 1.135-.51.187-.096.373-.197.538-.304l.212-.16.128-.15c.086-.134.165-.315.23-.507.062-.195.116-.404.16-.616.092-.423.15-.863.195-1.295.093-.864.13-1.7.15-2.418.017-.51.02-.944.02-1.254l-.005-.282-.236-.114v-.03c.015-.078.062-.208.147-.362.083-.154.207-.332.36-.512l.032-.032.046.026-.063-.208-.072-.272-.04-.163v-.005.003l-.168.13c-.095.063-.19.13-.35.172l-.147.012-.043-.002-.053-.006-.186-.04c-.238-.07-.428-.192-.58-.317-.15-.126-.265-.26-.347-.376-.207-.292-.24-.547-.24-.547l-.004-.18.05-.215.07-.117.077-.09c.112-.115.245-.218.388-.31.143-.093.293-.172.43-.235.18-.083.316-.125.412-.15l-.05-.022-.038-.017-.236-.112c-.143-.06-.35-.136-.595-.16-.255-.023-.516.023-.765.14-.253.116-.49.292-.74.49-.13.102-.26.21-.417.31l-.27.144-.22.05.13.118.174.184.196.224.12.142.065.08.033.042.108.14c.364.483.72 1.053.98 1.722.104.01.214.048.316.1.113.06.222.133.33.22l.16.136.076.077.037.04.045.05.132.232.068.208c.033.135.05.26.06.366.018.216-.007.37-.007.37-.002 0-.02.1-.1.236l-.036.058-.053.063-.134.098c-.098.048-.21.046-.296.013l-.093-.045-.054-.045-.055-.077.015-.086.107-.024.066-.003.045-.016.025-.02.02-.053-.002-.017.004-.03v-.067l-.004-.073v-.26l-.05-.272-.046-.137-.027-.057-.022-.032c-.092-.102-.205-.2-.308-.275.07.273.12.558.146.852.022.22.026.448.018.675-.008.223-.028.458-.065.688-.146.92-.517 1.836-1.073 2.676-.558.836-1.304 1.616-2.27 2.185-.242.143-.496.273-.77.378-.266.105-.54.188-.818.255-.266.064-.535.113-.806.147zm2.828-11.826c-.01-.102.004-.203.03-.292.034-.118.092-.22.156-.31l.202-.23.222-.195c.155-.117.32-.22.49-.306.345-.175.71-.295 1.078-.37.736-.153 1.497-.12 2.164.09.336.103.645.246.92.418.137.085.267.176.384.272.128.098.24.215.326.336.18.242.29.496.373.735l.106.35.037.165.016.068.07.45.024.485c.008.277-.004.626-.037.912l-.042.33.215.052c.194.037.3.113.33.215.035.1-.004.22-.08.324l-.04.054c.045.21.13.63.223 1.165.09.5.176 1.057.255 1.65.078.594.15 1.223.19 1.872.04.65.05 1.318-.018 1.99-.035.335-.094.67-.186 1-.097.327-.226.648-.4.94-.17.292-.385.552-.616.773-.23.22-.476.398-.715.548-.24.15-.477.272-.703.375l-.324.14-.154.06-.09.035c-.415.155-.674.227-.674.227.002.002-.31.085-.735.176-.422.093-.954.195-1.393.283-.5.1-.76.164-.852.188.167-.002.36.04.572.146l.043.037c.002.016-.004.29.037.71.037.422.124.983.237 1.543.226 1.12.548 2.227.546 2.227 0 0 .095.75.093 1.3.043.924-.3.656-.593.154-.004.03-.153-.275-.298-.592l-.286-.646s-.325-1.115-.556-2.27c-.117-.578-.208-1.166-.25-1.627-.044-.458-.04-.783-.04-.8l.027-.036c.08-.06.22-.127.4-.143l.066-.002c.114-.034.452-.15.85-.306-.046.014.476-.18.997-.404.524-.22 1.037-.472 1.035-.473l.163-.074.192-.087.118-.057.147-.074c.34-.172.735-.386 1.118-.676.38-.29.736-.657.974-1.126.24-.468.372-1.035.44-1.633.066-.597.078-1.23.078-1.85-.002-.624-.018-1.24-.027-1.826-.01-.585-.017-1.14-.017-1.642 0-.47.007-.854.013-1.088l-.052.043-.26.18-.32.07c-.195.036-.47.06-.747.03-.215-.02-.425-.072-.598-.13l.044.164c.084.305.184.736.27 1.254.12.718.21 1.56.21 2.466.003.452-.018.92-.083 1.4-.032.24-.077.482-.142.73-.07.245-.154.495-.295.752-.072.13-.163.26-.285.387l-.05.047-.042.04-.084.07-.17.128c-.22.152-.435.27-.65.38-.43.218-.848.39-1.25.54-.807.3-1.54.503-2.128.646-.63.148-1.024.215-1.024.215s-.427.06-1.01.107c-.438.036-.964.058-1.453.055h-.078l-.385-.012c-.3-.01-.536-.032-.717-.054l-.09.076c-.158.152-.305.106-.385.048l-.115-.093-.098-.086-.09-.15-.087-.17c.002 0 .01-.294-.004-.613l-.016-.42c-.6-.102-1.19-.26-1.763-.475-.27-.102-.54-.216-.802-.344l-.39-.204-.386-.236c-.5-.333-.948-.74-1.324-1.203-.373-.464-.67-.984-.884-1.528-.214-.544-.344-1.112-.4-1.68-.053-.57-.044-1.137.042-1.696l.06-.374-.112.047c-.057.035-.124.09-.185.17-.063.08-.12.176-.166.282-.093.21-.135.45-.14.62l.02.27.008.153c.01.082.03.163.096.22l.17.078.062.068-.082.092c-.05.03-.132.055-.232.048l-.133-.028c-.083-.03-.186-.11-.253-.196-.14-.176-.183-.368-.184-.368 0 0-.034-.158-.023-.383.01-.226.065-.517.187-.796.06-.138.14-.274.235-.395.097-.12.212-.224.334-.295.12-.07.242-.11.33-.122l.145-.015.022.013.003.004c.05-.228.105-.455.167-.68.146-.52.325-1.028.55-1.52.228-.488.5-.96.845-1.392.17-.216.36-.42.57-.606l.336-.274.33-.22c.44-.276.886-.51 1.336-.718.452-.208.91-.384 1.373-.524.466-.14.94-.24 1.426-.28.3-.024.587-.02.847.015.26.03.493.09.684.16.384.144.585.312.604.32l.057.08c.076.156.098.38-.012.526-.053.076-.132.132-.24.17-.108.04-.242.062-.4.083l-.074-.002c-.013-.005-.11-.09-.33-.173-.217-.084-.578-.147-1.044-.11-.77.062-1.618.337-2.446.717-.412.19-.827.41-1.216.66l-.143.095-.068.047-.062.046-.122.095-.12.11c-.16.146-.31.312-.447.49-.553.72-.934 1.634-1.19 2.595-.13.483-.227.98-.294 1.484l-.034.36-.01.368c0 .246.012.492.044.735.122.974.514 1.918 1.17 2.656.325.37.712.69 1.142.95l.33.18.352.17c.236.106.478.2.725.282.986.333 2.035.488 3.04.433.5-.028.993-.11 1.452-.252l.338-.117.316-.138c.21-.104.413-.223.604-.355.77-.528 1.39-1.244 1.828-2.006.44-.762.7-1.578.744-2.348.053-.778-.116-1.508-.402-2.148-.142-.32-.313-.62-.497-.895l-.29-.4-.092-.117c-.334-.41-.573-.64-.572-.64 0 0-.25-.302-.63-.688-.374-.387-.888-.848-1.327-1.227-.38-.31-.63-.518-.76-.657-.132-.136-.15-.208-.076-.228.144-.04.645.125 1.21.415-.048-.045.62.314 1.257.766l.317.23zm5.083 2.79v-.014l.02-.26.015-.28.003-.173-.005-.422-.008-.196-.004-.053V11.8h-.005l-.055.04-.373.265-.112.08-.03.02-.015.01-.03.015-.112.066-.11.05-.076.02h-.006l.002.01v.042l-.002.002.01-.054h-.014l-.018-.005-.01-.003-.023-.005-.103-.03c-.14-.052-.278-.143-.385-.233-.11-.095-.196-.192-.257-.27-.138-.18-.17-.297-.17-.297l-.052-.152-.004-.062.02-.066.123-.207c.103-.14.224-.273.318-.364l.147-.132c.114-.097.23-.174.328-.224l.06-.03.072.02-.028-.037.09-.03-.088.018-.01.003-.07-.076-.025-.027-.216-.166c-.134-.094-.337-.22-.62-.292-.293-.078-.64-.068-.956.038-.322.1-.615.28-.886.46l-.396.258-.183.09-.023.007-.01.005-.023.003h-.05c-.063-.013-.125-.062-.14-.117-.022-.052-.01-.143.055-.246l.05-.08.07-.083.16-.158c.117-.104.244-.2.38-.283.275-.17.58-.303.897-.39.637-.177 1.315-.185 1.92-.047.302.068.588.176.848.305l.37.217.168.118.142.125c.18.18.307.397.404.606.098.21.168.42.223.612l.03.12.02.084.03.134.024.112.042.227.064.5c.035.363.02.72.023.69l-.02.345-.098-.02-.158-.03s-.346.107-.664.07c-.16-.017-.32-.06-.434-.108l-.055-.023zm-3.755-1.826l-.008-.004-.033-.016.033-.01.01-.005.17-.07.35-.16c.248-.11.505-.2.505-.2l.31-.078.117-.06-.09.105-.112.117-.13.12-.153.09c-.097.05-.228.11-.367.148-.142.04-.29.058-.405.055l-.14-.017-.058-.018zm-1.387-2.548l-.018.005-.078.026.045-.06.014-.02.094-.1c.058-.06.147-.135.262-.21l.067-.04.237-.117.25-.064c.15-.028.335-.04.49-.032l.257.016.045.002c-.027 0-.155.02-.3.07l-.333.12-.34.144-.197.076-.068.025-.3.112-.13.045zm-2.49-7.153l-.053.028c-.12.033-.303.077-.484.037-.09-.02-.18-.064-.252-.152-.072-.09-.132-.223-.133-.43l.02-.106.12-.15c.07-.08.18-.202.337-.328.157-.128.365-.264.62-.37.127-.055.263-.102.408-.14l.112-.025.095-.02.247-.043c.12-.014.28-.02.435-.007.153.01.302.04.398.066.21.054.396.14.548.238.15.097.27.205.353.3.17.19.225.32.227.32-.002 0 .074.13.13.36.025.112.045.254.047.394.004.145-.004.32-.05.503-.046.184-.133.375-.256.54-.122.168-.275.305-.434.414-.316.216-.646.337-.934.43-.242.086-.44.145-.6.19l-.376.104c-.187.045-.26.032-.245-.04.013-.073.12-.203.3-.344.178-.144.426-.296.68-.455l.322-.212c.204-.137.454-.343.542-.558.05-.106.064-.214.06-.33-.004-.108-.033-.244-.062-.324-.064-.17-.142-.234-.14-.237l-.08-.09c-.056-.055-.157-.126-.32-.17l-.19-.03-.222.005-.138.023-.093.02-.07.016-.246.082c-.15.063-.266.14-.354.212-.18.146-.26.272-.268.28zm-.43 3.204c.035-.26.475-.433.68-.336.202.1.418.65.258.91-.155.235-.654.265-.8.02-.108-.184-.157-.408-.14-.593zm-4.886 24.148l.014-.01c.078-.03.28-.075.52 0l.022.01-.002 1.318s-.057.21-.143.36c-.12.253-.24.15-.305-.005-.014.016-.107-.372-.107-.372v-1.3zM14.525 14.1c-.027-.26.405-.52.647-.47.24.053.61.543.503.828-.11.26-.64.394-.853.185-.16-.155-.27-.363-.297-.544zm-2.742.165c-.63.263-.115 1.09.44.91.556-.182.902-.827-.355-.99l-.084.08zm3.094 13.87l.002-.045.04.005.052-.007.065-.015.03-.01-.016.007-.03.013-.07.034-.168.057-.106-.003-.063-.04-.014-.024-.012-.044.004-.075.025-.06.045-.064.07-.054.06-.025.05-.014.082-.007.043.005.09.033.09.05.176.136.212.17.112.08.047.03.014.007h.002l-.004.01-.006.01-.02.05-.017.046-.012.04.038-.168.05.023c.235.096.56.108.79.065.237-.04.382-.115.382-.115l.18-.043c.107-.03.234-.082.347-.14.172-.11.258-.158.308-.108.05.047.047.187-.027.337.016-.01-.082.164-.23.304-.147.143-.332.247-.332.247s-.212.102-.534.153c-.32.053-.752.048-1.137-.11l.047.018-.163-.066-.098-.06-.15-.108-.225-.178-.132-.1-.01-.008.02-.04.045-.08.055-.12zm.225-1.893l-.017.008-.24.043c-.11.01-.245.01-.38-.1l-.024-.03.038-.167c.03-.097.095-.234.206-.358.113-.126.264-.232.428-.31.165-.08.344-.132.52-.164.356-.07.708-.058.97-.02.26.036.433.096.433.096l.243.14c.134.09.292.242.362.404.068.133.064.234.05.287l-.087.07-.25-.134-.246-.105-.3-.06s-.123-.042-.326-.066c-.197-.026-.476-.03-.733.02-.128.026-.25.065-.348.112-.097.047-.17.103-.213.153-.084.095-.08.175-.084.18zm-.683 1.39l-.02-.006-.2-.137c-.083-.067-.182-.162-.178-.34l.012-.04.155-.09c.092-.05.217-.098.363-.14.292-.086.666-.145 1.033-.18.734-.07 1.45-.07 1.45-.07s.47.06.793.16c.55.14.33.28-.014.356.035.012-.81.12-.808.126 0 0-.696 0-1.373.068-.338.033-.67.09-.894.156l-.244.092-.076.045zm-1.783-4.323l.082-.006c.154.016.353.09.46.235.108.147.117.365-.036.677l-.055.07-.445.21c-.264.137-.627.35-1.06.635-.317.207-.737.497-1.166.77-.215.137-.43.268-.628.38l-.145.082-.07.04-.016.01-.003.002h-.004l-.074-.16-.003.003v.014l.01.05.05.04.024.026.012.01.002.004-.006.007-.03.04-.12.267-.08.258-.052.237s-.11.36-.222.888c-.112.525-.227 1.206-.336 1.768-.082.513-.15.837-.217 1.008l-.007-.035-.002.014-.032.028-.008.01v.002l-.004-.005-.008-.014-.01-.013-.005-.006h.004l.013-.006.063-.015.068.023.005.064-.01.048-.02.03-.02.014-.034.017-.054.008-.054-.015-.034-.018-.017-.014-.013-.013-.008-.01-.024-.027-.016-.068c-.072-.21-.132-.608-.16-1.067-.015.062-.044-.663-.022-1.414.01-.374.035-.754.068-1.05.03-.292.07-.495.07-.495l.063-.243.095-.293c.045-.12.1-.256.205-.424l.112-.15.08-.087.05-.047.028-.02.037-.03.043-.03.022-.014.015-.01.035-.02.06-.034.133-.072.58-.354c.405-.26.83-.555 1.164-.773.45-.297.856-.536 1.16-.692.303-.157.498-.238.517-.246zm2.53-4.438l.008.016c.015.084.025.293-.162.475l-.023.016-.314-.106c-.177-.058-.4-.122-.624-.142-.24-.025-.477-.03-.64-.012l-.26.048-.164.016-.336.073c-.185.06-.27.057-.287.004-.018-.052.03-.15.116-.25-.013.005.096-.106.238-.2.14-.098.31-.165.31-.165s.142-.04.354-.06c.21-.02.482-.01.74.017.282.027.547.106.733.167l.31.102zm0 0" fill="#3A434E"/></g></svg>