<svg width="32" height="232" viewBox="0 0 32 232" xmlns="http://www.w3.org/2000/svg"><g fill="none"><path d="M25.33 126.806c-2.002-1.785-4.81-2.81-8.067-2.806-4.306-.012-7.744 1.248-10.332 3.84-2.25 2.28-3.43 5.34-3.43 8.78 0 3.27 1.15 6.243 3.27 8.335 2.45 2.457 5.68 3.767 9.26 3.767h.016c2.01 0 4.007-.298 5.93-.892.392-.117.765-.25 1.105-.393l.02-.015.126-.07c.504-.272.826-.8.826-1.38 0-.87-.7-1.587-1.572-1.587-.13 0-.256.027-.375.052l-.048.016-.03.008-.165.06c-.34.12-.663.22-1.03.334l-.285.087c-1.268.385-2.772.604-4.198.604-5.42-.032-9.08-3.68-9.104-9.085.02-5.46 3.947-9.185 9.797-9.22 1.944 0 3.694.43 4.89 1.15.51.313.954.7 1.347 1.135h-1.91c-.463.003-.877.107-1.223.278-.256.13-.486.274-.65.524-.695-.994-1.682-1.43-3.06-1.385-3.895.04-6.93 4.086-6.934 8.74 0 1.58.41 2.93 1.23 3.887.812.964 2.027 1.497 3.423 1.494 1.453.02 2.625-.49 3.615-1.55.05.255.113.423.216.584.51.79 1.48 1.158 2.524 1.162 1.92-.002 3.84-.86 5.31-2.324 1.738-1.737 2.684-4.17 2.684-6.807.004-2.96-1.166-5.52-3.17-7.315m-8.13 11.04c-.756 1.482-1.692 2.138-2.572 2.13-.295 0-.647-.062-.91-.306-.258-.244-.536-.72-.54-1.777-.004-1.2.434-2.856 1.094-4.083.707-1.312 1.613-1.908 2.574-1.91.846.012 1.416.602 1.45 1.748.002 1.21-.432 2.912-1.092 4.2m5.655 1.527c-.556.447-1.218.693-1.65.687-.456-.05-.515-.12-.56-.53v-.24c.055-.297.29-1.25.514-2.067l1.25-4.632c.113-.49.457-1.68.662-2.354l.206-.72c1.115 1.233 1.756 2.902 1.756 4.737.005 2.095-.906 4.138-2.18 5.117" fill="#206FAC"/><path d="M25.33 86.806c-2.002-1.785-4.81-2.81-8.067-2.806-4.306-.012-7.744 1.248-10.332 3.84-2.25 2.28-3.43 5.34-3.43 8.78 0 3.27 1.15 6.243 3.27 8.335 2.45 2.457 5.68 3.767 9.26 3.767h.016c2.01 0 4.007-.298 5.93-.892.392-.117.765-.25 1.105-.393l.02-.015.126-.07c.504-.272.826-.8.826-1.38 0-.87-.7-1.587-1.572-1.587-.13 0-.256.027-.375.052l-.048.016-.03.008-.165.06c-.34.12-.663.22-1.03.334l-.285.087c-1.268.385-2.772.604-4.198.604-5.42-.032-9.08-3.68-9.104-9.085.02-5.46 3.947-9.185 9.797-9.22 1.944 0 3.694.43 4.89 1.15.51.313.954.7 1.347 1.135h-1.91c-.463.003-.877.107-1.223.278-.256.13-.486.274-.65.524-.695-.994-1.682-1.43-3.06-1.385-3.895.04-6.93 4.086-6.934 8.74 0 1.58.41 2.93 1.23 3.887.812.964 2.027 1.497 3.423 1.494 1.453.02 2.625-.49 3.615-1.55.05.255.113.423.216.584.51.79 1.48 1.158 2.524 1.162 1.92-.002 3.84-.86 5.31-2.324 1.738-1.737 2.684-4.17 2.684-6.807.004-2.96-1.166-5.52-3.17-7.315M17.2 97.85c-.757 1.482-1.693 2.138-2.573 2.13-.295 0-.647-.062-.91-.306-.258-.243-.536-.72-.54-1.776-.004-1.2.434-2.857 1.094-4.084.71-1.312 1.615-1.908 2.576-1.91.846.012 1.416.602 1.45 1.748.002 1.21-.432 2.912-1.092 4.2m5.655 1.527c-.556.445-1.218.69-1.65.685-.456-.05-.515-.12-.56-.53v-.24c.055-.296.29-1.25.514-2.066l1.25-4.633c.113-.49.457-1.682.662-2.355l.207-.72c1.115 1.234 1.756 2.903 1.756 4.738.005 2.096-.906 4.14-2.18 5.118" fill="#fff"/><path d="M25.33 46.806c-2.002-1.785-4.81-2.81-8.067-2.806-4.306-.012-7.744 1.248-10.332 3.84-2.25 2.28-3.43 5.34-3.43 8.78 0 3.27 1.15 6.243 3.27 8.335 2.45 2.457 5.68 3.767 9.26 3.767h.016c2.01 0 4.007-.298 5.93-.892.392-.117.765-.25 1.105-.393l.02-.015.126-.07c.504-.272.826-.8.826-1.38 0-.87-.7-1.587-1.572-1.587-.13 0-.256.027-.375.052l-.048.016-.03.008-.165.06c-.34.12-.663.22-1.03.334l-.285.087c-1.268.385-2.772.604-4.198.604-5.42-.032-9.08-3.68-9.104-9.085.02-5.46 3.947-9.185 9.797-9.22 1.944 0 3.694.43 4.89 1.15.51.313.954.7 1.347 1.135h-1.91c-.463.003-.877.107-1.223.278-.256.13-.486.274-.65.524-.695-.994-1.682-1.43-3.06-1.385-3.895.04-6.93 4.086-6.934 8.74 0 1.58.41 2.93 1.23 3.887.812.964 2.027 1.497 3.423 1.494 1.453.02 2.625-.49 3.615-1.55.05.255.113.423.216.584.51.79 1.48 1.158 2.524 1.162 1.92-.002 3.84-.86 5.31-2.324 1.738-1.737 2.684-4.17 2.684-6.807.004-2.96-1.166-5.52-3.17-7.315M17.2 57.85c-.757 1.482-1.693 2.138-2.573 2.13-.295 0-.647-.062-.91-.306-.258-.243-.536-.72-.54-1.776-.004-1.2.434-2.857 1.094-4.084.71-1.312 1.615-1.908 2.576-1.91.846.012 1.416.602 1.45 1.748.002 1.21-.432 2.912-1.092 4.2m5.655 1.527c-.556.445-1.218.69-1.65.685-.456-.05-.515-.12-.56-.53v-.24c.055-.296.29-1.25.514-2.066l1.25-4.633c.113-.49.457-1.682.662-2.355l.207-.72c1.115 1.234 1.756 2.903 1.756 4.738.005 2.096-.906 4.14-2.18 5.118" fill="#67737B"/><path d="M25.33 6.806C23.328 5.02 20.52 3.996 17.263 4 12.957 3.988 9.52 5.248 6.93 7.84c-2.25 2.28-3.434 5.34-3.43 8.78-.002 3.27 1.148 6.243 3.27 8.335 2.45 2.457 5.68 3.767 9.257 3.767h.016c2.01 0 4.007-.298 5.93-.892.392-.117.765-.25 1.105-.393l.02-.015.126-.07c.504-.272.826-.8.826-1.38 0-.87-.7-1.587-1.574-1.587-.13 0-.256.027-.375.052l-.045.016-.03.008-.165.06c-.34.12-.663.22-1.03.334l-.285.087c-1.268.385-2.772.604-4.198.604-5.42-.032-9.08-3.68-9.103-9.085.02-5.46 3.947-9.185 9.797-9.22 1.944 0 3.694.43 4.89 1.15.51.313.954.7 1.347 1.135h-1.91c-.463.003-.877.107-1.223.278-.256.13-.486.274-.65.524-.695-.994-1.682-1.43-3.06-1.385-3.895.04-6.93 4.086-6.934 8.74 0 1.58.41 2.93 1.23 3.887.812.964 2.027 1.497 3.423 1.494 1.453.02 2.625-.49 3.615-1.55.05.255.112.423.215.584.51.79 1.48 1.158 2.524 1.162 1.92-.002 3.84-.86 5.31-2.324 1.738-1.737 2.684-4.17 2.684-6.807.004-2.96-1.166-5.52-3.17-7.315M17.2 17.85c-.757 1.482-1.693 2.138-2.573 2.13-.295 0-.647-.062-.91-.306-.258-.243-.536-.72-.54-1.776-.004-1.2.434-2.857 1.094-4.084.71-1.312 1.615-1.908 2.576-1.91.846.012 1.416.602 1.45 1.748.002 1.21-.432 2.912-1.092 4.2m5.655 1.527c-.556.445-1.218.69-1.65.685-.456-.05-.515-.12-.56-.53v-.24c.055-.296.29-1.25.514-2.066l1.25-4.633c.113-.49.457-1.682.662-2.355l.207-.72c1.115 1.234 1.756 2.903 1.756 4.738.005 2.096-.906 4.14-2.18 5.118" fill="#3A434E"/></g></svg>