<svg width="32" height="232" viewBox="0 0 32 232" xmlns="http://www.w3.org/2000/svg"><title>envelope</title><g fill="none"><path d="M23.625 127H8.377c-2.688 0-4.877 2.187-4.877 4.875v10.09c0 2.687 2.19 4.874 4.877 4.874h15.248c2.69 0 4.877-2.188 4.877-4.876v-10.09c0-2.687-2.188-4.874-4.877-4.874zm-15.248 2.87h15.248c.97 0 1.777.685 1.967 1.598l-9.49 5.59-9.69-5.596c.192-.91.998-1.593 1.965-1.593zm15.248 14.1H8.377c-1.11 0-2.008-.898-2.008-2.006v-7.656l9.115 5.265.01.004.02.01.128.062h.004c.15.06.306.09.46.09.16 0 .315-.03.463-.09l.008-.002.13-.063.02-.01.01-.007 8.895-5.24v7.636c0 1.108-.9 2.007-2.008 2.007zm0 0" fill="#206FAC"/><path d="M23.625 87H8.377C5.69 87 3.5 89.187 3.5 91.875v10.09c0 2.687 2.19 4.874 4.877 4.874h15.248c2.69 0 4.877-2.188 4.877-4.876v-10.09c0-2.687-2.188-4.874-4.877-4.874zM8.377 89.87h15.248c.97 0 1.777.685 1.967 1.598l-9.49 5.59-9.69-5.596c.192-.91.998-1.593 1.965-1.593zm15.248 14.1H8.377c-1.11 0-2.008-.898-2.008-2.006v-7.656l9.115 5.265.01.004.02.01.128.062h.004c.15.06.306.09.46.09.16 0 .315-.03.463-.09l.008-.002.13-.063.02-.01.01-.007 8.895-5.24v7.636c0 1.108-.9 2.007-2.008 2.007zm0 0" fill="#fff"/><path d="M23.625 47H8.377C5.69 47 3.5 49.187 3.5 51.875v10.09c0 2.687 2.19 4.874 4.877 4.874h15.248c2.69 0 4.877-2.188 4.877-4.876v-10.09c0-2.687-2.188-4.874-4.877-4.874zM8.377 49.87h15.248c.97 0 1.777.685 1.967 1.598l-9.49 5.59-9.69-5.596c.192-.91.998-1.593 1.965-1.593zm15.248 14.1H8.377c-1.11 0-2.008-.898-2.008-2.006v-7.656l9.115 5.265.01.004.02.01.128.062h.004c.15.06.306.09.46.09.16 0 .315-.03.463-.09l.008-.002.13-.063.02-.01.01-.007 8.895-5.24v7.636c0 1.108-.9 2.007-2.008 2.007zm0 0" fill="#67737B"/><path d="M23.625 7H8.377C5.69 7 3.5 9.187 3.5 11.875v10.09c0 2.687 2.19 4.874 4.877 4.874h15.248c2.69 0 4.877-2.188 4.877-4.876v-10.09C28.502 9.188 26.314 7 23.625 7zM8.377 9.87h15.248c.97 0 1.777.685 1.967 1.598l-9.49 5.59-9.69-5.596c.192-.91.998-1.593 1.965-1.593zm15.248 14.1H8.377c-1.11 0-2.008-.898-2.008-2.006v-7.656l9.115 5.265.01.004.02.01.128.062h.004c.15.06.306.09.46.09.16 0 .315-.03.463-.09l.008-.002.13-.063.02-.01.01-.007 8.895-5.24v7.636c0 1.108-.9 2.007-2.008 2.007zm0 0" fill="#3A434E"/></g></svg>