<svg width="22" height="32" viewBox="0 0 22 32" xmlns="http://www.w3.org/2000/svg"><title>event--pin</title><g fill="none"><path d="M15.497 29.984c0 1.105-2.016 2-4.5 2-2.486 0-4.5-.895-4.5-2 0-1.104 2.014-2 4.5-2 2.484 0 4.5.896 4.5 2" fill-opacity=".2" fill="#1D508D"/><path d="M10.997.016c6.075 0 11 4.362 11 10.92 0 6.407-5.55 9.16-8.506 13.256-2.417 3.346-2.493 5.824-2.493 5.824s-.018-2.49-2.495-5.824c-3.04-4.097-8.505-6.66-8.505-13.257 0-6.56 4.926-10.92 11-10.92" fill="#684E79"/><path d="M6.967 5.716l-.018-.11.097-.066 1.53.01.476-1.45.09-.075.105.052.756 1.335 1.5-.314.105.04.005.118-.777 1.325 1.023 1.14.023.11-.1.067-1.537-.02-.473 1.463-.09.073h-.01l-.095-.055-.754-1.335-1.502.314-.107-.042-.006-.117.778-1.318-1.02-1.144m4.747 2.843l.097-.063 1.432-.012.424-1.37.088-.076.103.05.726 1.233 1.392-.318.108.043.01.114-.707 1.244.97 1.052.023.11-.098.068-1.432.01-.416 1.367-.09.072h-.01l-.097-.053-.728-1.23-1.39.32-.11-.044-.006-.112.705-1.245-.972-1.047-.023-.114m-1.106 6.445l-.01.115-.112.037-2.195-.554-1.197 1.927-.09.05h-.014l-.088-.078-.613-2.183-2.265-.072-.1-.067.025-.11 1.582-1.626-1.07-1.995.01-.118.11-.036 2.195.552 1.198-1.922.107-.05.086.08.617 2.175 2.264.077.094.065-.02.115L9.54 13.01l1.07 1.995m5.896-3.34c.042.113.972 2.815-.162 5.106l-.063.056-.048.012-.088-.045c-.013-.024-1.712-2.353-4.91-2.583l-.086-.064-.396-.822.025-.125.84-.775.114-.02c.03.014 3.17 1.29 4.463 3.984.084-.695.13-2.437-1.086-4.048l-.013-.106.287-.682.112-.064.928.108.086.067" fill="#fff"/></g></svg>