<svg width="22" height="32" viewBox="0 0 22 32" xmlns="http://www.w3.org/2000/svg"><g fill="none"><path d="M15.497 29.984c0 1.105-2.016 2-4.5 2-2.486 0-4.5-.895-4.5-2 0-1.104 2.014-2 4.5-2 2.484 0 4.5.896 4.5 2" fill-opacity=".2" fill="#1D508D"/><path d="M10.997.016c6.075 0 11 4.362 11 10.92 0 6.407-5.55 9.16-8.506 13.256-2.414 3.346-2.49 5.824-2.49 5.824s-.017-2.49-2.494-5.824C5.466 20.095 0 17.532 0 10.935 0 4.375 4.926.015 11 .015" fill="#684E79"/><path d="M6.967 5.716l-.018-.11.094-.066 1.53.01.476-1.45.09-.075.106.052.756 1.335 1.5-.314.105.04.005.118-.777 1.325 1.023 1.14.022.11-.1.07-1.537-.02-.473 1.46-.09.074h-.01l-.095-.055-.754-1.336-1.5.314-.106-.043-.006-.117.778-1.32-1.02-1.143m4.747 2.843l.097-.063 1.43-.012.425-1.37.088-.076.103.05.726 1.23L15.974 8l.108.043.01.114-.707 1.245.97 1.052.023.11-.1.068-1.43.01-.417 1.367-.09.07h-.01l-.095-.052-.728-1.23-1.39.32-.11-.042-.006-.112.706-1.245-.972-1.047-.023-.114m-1.105 6.443l-.01.115-.112.035-2.195-.554-1.197 1.93-.09.05h-.013L6.9 16.5l-.613-2.182-2.265-.072-.1-.067.025-.11 1.583-1.63-1.07-1.995.01-.118.11-.037 2.193.552 1.197-1.92.108-.05.085.08.617 2.176 2.264.076.094.065-.02.114-1.58 1.624 1.07 1.994m5.896-3.34c.042.113.972 2.815-.162 5.106l-.063.057-.05.012-.087-.047c-.013-.024-1.712-2.353-4.91-2.583l-.086-.063-.397-.822.026-.125.84-.775.114-.02c.03.014 3.17 1.29 4.463 3.984.084-.697.13-2.44-1.086-4.05l-.014-.106.287-.682.112-.064.928.107.086.068" fill="#fff"/></g></svg>