<svg width="32" height="232" viewBox="0 0 32 232" xmlns="http://www.w3.org/2000/svg"><g fill="none"><path d="M10.787 168.756l-1.49 2.674c-.04.074-.03.168.01.236.046.076.13.104.206.084l2.87-.637 1.446 2.71c.033.07.1.113.18.113h.01c.08-.013.15-.07.177-.15l.904-2.97 2.94.04h.003c.08 0 .15-.053.188-.13.026-.076.025-.177-.036-.228l-1.96-2.31 1.487-2.69c.04-.076.04-.168-.01-.237-.046-.06-.122-.102-.202-.08l-2.87.64-1.446-2.71c-.044-.068-.112-.12-.2-.105-.077.01-.14.066-.17.146l-.917 2.95-2.927-.02c-.103-.005-.152.047-.184.128-.035.077-.02.167.032.228l1.955 2.322zm7.134 3.445c-.03.078-.015.17.04.23l1.87 2.13-1.354 2.53c-.04.074-.037.17.014.23.05.076.133.1.206.087l2.66-.653 1.398 2.498c.046.067.11.11.18.11h.02c.078-.017.147-.07.174-.15l.796-2.773 2.74-.02c.08 0 .152-.054.187-.137.028-.08.02-.16-.04-.224l-1.862-2.13 1.352-2.53c.037-.08.037-.166-.018-.234-.044-.072-.125-.105-.206-.086l-2.666.647-1.39-2.508c-.04-.07-.12-.11-.198-.1-.074.01-.147.07-.168.15l-.81 2.78-2.737.024c-.078 0-.148.044-.185.128zm-4.16 9.037l3.026-3.295c.058-.06.07-.154.044-.235-.03-.073-.107-.13-.186-.13l-4.33-.156-1.18-4.414c-.02-.084-.087-.152-.166-.162-.083-.01-.155.025-.204.103l-2.292 3.902-4.2-1.12c-.076-.025-.16.004-.21.07-.046.067-.053.153-.016.236l2.047 4.048-3.026 3.3c-.06.06-.078.15-.047.226.033.085.1.132.19.134l4.335.143 1.175 4.43c.025.087.086.135.167.157h.027c.07 0 .14-.04.17-.1l2.294-3.912 4.2 1.127c.076.02.164-.007.21-.08.05-.07.058-.155.02-.23l-2.045-4.05zm13.327-2.728c-.027-.08-.09-.138-.165-.14l-1.776-.217c-.092 0-.18.05-.212.13l-.55 1.383c-.025.07-.015.152.027.217 2.33 3.268 2.24 6.802 2.078 8.21-2.472-5.467-8.483-8.057-8.538-8.084-.077-.03-.163-.018-.22.04l-1.607 1.57c-.063.07-.084.16-.044.253l.755 1.667c.03.072.1.12.164.13 6.115.467 9.365 5.193 9.394 5.243.042.06.107.09.17.09l.09-.02c.054-.014.097-.05.122-.112 2.17-4.65.388-10.13.31-10.36zm0 0" fill="#674D79"/><path d="M10.787 128.756l-1.49 2.674c-.04.074-.03.168.01.236.046.076.13.104.206.084l2.87-.637 1.446 2.71c.033.07.1.113.18.113h.01c.08-.013.15-.07.177-.15l.904-2.97 2.94.04h.003c.08 0 .15-.053.188-.13.026-.076.025-.177-.036-.228l-1.96-2.31 1.487-2.69c.04-.076.04-.168-.01-.237-.046-.06-.122-.102-.202-.08l-2.87.64-1.446-2.71c-.044-.068-.112-.12-.2-.105-.077.01-.14.066-.17.146l-.917 2.95-2.927-.02c-.103-.005-.152.047-.184.128-.035.077-.02.167.032.228l1.955 2.322zm7.134 3.445c-.03.078-.015.17.04.23l1.87 2.13-1.354 2.53c-.04.074-.037.17.014.23.05.076.133.1.206.087l2.66-.653 1.398 2.498c.046.067.11.11.18.11h.02c.078-.017.147-.07.174-.15l.796-2.773 2.74-.02c.08 0 .152-.054.187-.137.028-.08.02-.16-.04-.224l-1.862-2.13 1.352-2.53c.037-.08.037-.166-.018-.234-.044-.072-.125-.105-.206-.086l-2.666.647-1.39-2.508c-.04-.07-.12-.11-.198-.1-.074.01-.147.07-.168.15l-.81 2.78-2.737.024c-.078 0-.148.044-.185.128zm-4.16 9.037l3.026-3.295c.058-.06.07-.154.044-.235-.03-.073-.107-.13-.186-.13l-4.33-.156-1.18-4.414c-.02-.084-.087-.152-.166-.162-.083-.01-.155.025-.204.103l-2.292 3.902-4.2-1.12c-.076-.025-.16.004-.21.07-.046.067-.053.153-.016.236l2.047 4.048-3.026 3.3c-.06.06-.078.15-.047.226.033.085.1.132.19.134l4.335.143 1.175 4.43c.025.087.086.135.167.157h.027c.07 0 .14-.04.17-.1l2.294-3.912 4.2 1.127c.076.02.164-.007.21-.08.05-.07.058-.155.02-.23l-2.045-4.05zm13.327-2.728c-.027-.08-.09-.138-.165-.14l-1.776-.217c-.092 0-.18.05-.212.13l-.55 1.383c-.025.07-.015.152.027.217 2.33 3.268 2.24 6.802 2.078 8.21-2.472-5.467-8.483-8.057-8.538-8.084-.077-.03-.163-.018-.22.04l-1.607 1.57c-.063.07-.084.16-.044.253l.755 1.667c.03.072.1.12.164.13 6.115.467 9.365 5.193 9.394 5.243.042.06.107.09.17.09l.09-.02c.054-.014.097-.05.122-.112 2.17-4.65.388-10.13.31-10.36zm0 0" fill="#206FAC"/><path d="M10.787 88.756l-1.49 2.674c-.04.074-.03.168.01.236.046.076.13.104.206.084l2.87-.637 1.446 2.71c.033.07.1.113.18.113h.01c.08-.013.15-.07.177-.15l.904-2.97 2.94.04h.003c.08 0 .15-.053.188-.13.026-.076.025-.177-.036-.228l-1.96-2.31 1.487-2.69c.04-.076.04-.168-.01-.237-.046-.06-.122-.102-.202-.08l-2.87.64-1.446-2.71c-.044-.068-.112-.12-.2-.105-.077.01-.14.066-.17.146l-.917 2.95-2.927-.02c-.103-.005-.152.047-.184.128-.035.077-.02.167.032.228l1.955 2.322zM17.92 92.2c-.03.075-.018.17.04.23l1.867 2.128-1.354 2.528c-.04.075-.037.17.014.23.05.077.134.102.207.088l2.66-.653 1.398 2.5c.046.067.11.11.18.11h.02c.078-.02.147-.07.174-.15l.796-2.773 2.74-.02c.08 0 .152-.053.187-.136.023-.08.015-.16-.045-.225l-1.862-2.13 1.354-2.526c.036-.08.036-.166-.02-.234-.043-.072-.124-.105-.205-.086l-2.666.645-1.39-2.508c-.04-.07-.12-.106-.2-.1-.073.01-.146.07-.167.15l-.81 2.784-2.738.025c-.078 0-.148.044-.185.128zm-4.163 9.034l3.026-3.295c.058-.06.07-.158.044-.24-.03-.072-.106-.13-.185-.13l-4.33-.155L11.132 93c-.02-.083-.087-.15-.166-.16-.083-.01-.155.025-.204.103L8.47 96.847l-4.2-1.12c-.077-.024-.16.005-.21.072-.047.064-.054.15-.017.233l2.047 4.048-3.027 3.3c-.06.06-.078.15-.047.227.033.086.1.133.19.135l4.335.143 1.178 4.43c.025.087.086.135.167.157h.027c.07 0 .14-.04.17-.1l2.294-3.912 4.2 1.128c.076.02.164-.005.21-.077.05-.07.058-.154.02-.23l-2.045-4.05zm13.327-2.728c-.027-.078-.09-.137-.165-.14l-1.78-.216c-.09-.002-.18.05-.21.13l-.55 1.382c-.028.07-.018.152.024.217 2.33 3.265 2.24 6.8 2.078 8.21-2.472-5.47-8.483-8.06-8.538-8.087-.076-.03-.162-.017-.218.04l-1.607 1.572c-.063.07-.084.16-.044.252l.757 1.666c.03.073.1.12.164.13 6.117.468 9.367 5.194 9.396 5.244.042.06.107.09.17.09l.09-.02c.054-.015.097-.052.122-.113 2.17-4.65.388-10.132.31-10.36zm0 0" fill="#fff"/><path d="M10.787 48.756l-1.49 2.674c-.04.074-.03.168.01.236.046.076.13.104.206.084l2.87-.637 1.446 2.71c.033.07.1.113.18.113h.01c.08-.013.15-.07.177-.15l.904-2.97 2.94.04h.003c.08 0 .15-.053.188-.13.026-.076.025-.177-.036-.228l-1.96-2.31 1.487-2.69c.04-.076.04-.168-.01-.237-.046-.06-.122-.102-.202-.08l-2.87.64-1.446-2.71c-.044-.068-.112-.12-.2-.105-.077.01-.14.066-.17.146l-.917 2.95-2.927-.02c-.103-.005-.152.047-.184.128-.035.077-.02.167.032.228l1.955 2.322zM17.92 52.2c-.03.075-.018.17.04.23l1.867 2.128-1.354 2.528c-.04.075-.037.17.014.23.05.077.134.102.207.088l2.66-.653 1.398 2.5c.046.067.11.11.18.11h.02c.078-.02.147-.07.174-.15l.796-2.773 2.74-.02c.08 0 .152-.053.187-.136.023-.08.015-.16-.045-.225l-1.862-2.13 1.354-2.526c.036-.08.036-.166-.02-.234-.043-.072-.124-.105-.205-.086l-2.666.645-1.39-2.508c-.04-.07-.12-.106-.2-.1-.073.01-.146.07-.167.15l-.81 2.784-2.738.025c-.078 0-.148.044-.185.128zm-4.163 9.034l3.026-3.295c.058-.06.07-.158.044-.24-.03-.072-.106-.13-.185-.13l-4.33-.155L11.132 53c-.02-.083-.087-.15-.166-.16-.083-.01-.155.025-.204.103L8.47 56.847l-4.2-1.12c-.077-.024-.16.005-.21.072-.047.064-.054.15-.017.233L6.09 60.08l-3.027 3.3c-.06.06-.078.15-.047.227.033.086.1.133.19.135l4.335.143 1.178 4.43c.025.087.086.135.167.157h.027c.07 0 .14-.04.17-.1l2.294-3.912 4.2 1.128c.076.02.164-.005.21-.077.05-.07.058-.154.02-.23l-2.045-4.05zm13.327-2.728c-.027-.078-.09-.137-.165-.14l-1.78-.216c-.09-.002-.18.05-.21.13l-.55 1.382c-.028.07-.018.152.024.217 2.33 3.265 2.24 6.8 2.078 8.21-2.472-5.47-8.483-8.06-8.538-8.087-.076-.03-.162-.017-.218.04l-1.607 1.572c-.063.07-.084.16-.044.252l.757 1.666c.03.073.1.12.164.13 6.117.468 9.367 5.194 9.396 5.244.042.06.107.09.17.09l.09-.02c.054-.015.097-.052.122-.113 2.17-4.65.388-10.132.31-10.36zm0 0" fill="#67747C"/><path d="M10.787 8.756l-1.49 2.674c-.04.074-.03.168.01.236.046.076.13.104.206.084l2.87-.637 1.446 2.71c.033.07.1.113.18.113h.01c.08-.013.15-.07.177-.15l.904-2.97 2.94.04h.003c.08 0 .15-.053.188-.13.026-.076.025-.177-.036-.228l-1.96-2.31 1.487-2.69c.04-.076.04-.168-.01-.237-.046-.06-.122-.102-.202-.08l-2.87.64-1.446-2.71c-.044-.068-.112-.12-.2-.105-.077.01-.14.066-.17.146l-.917 2.95-2.927-.02c-.103-.005-.152.047-.184.128-.035.077-.02.167.032.228l1.955 2.322zM17.92 12.2c-.03.075-.018.17.04.23l1.867 2.128-1.354 2.528c-.04.075-.037.17.014.23.05.077.134.102.207.088l2.66-.653 1.398 2.5c.046.067.11.11.18.11h.02c.078-.02.147-.07.174-.15l.796-2.773 2.74-.02c.08 0 .152-.053.187-.136.023-.08.015-.16-.045-.225l-1.862-2.13 1.354-2.526c.036-.08.036-.166-.02-.234-.043-.072-.124-.105-.205-.086l-2.666.645-1.39-2.508c-.04-.07-.12-.106-.2-.1-.073.01-.146.07-.167.15l-.81 2.784-2.738.025c-.078 0-.148.044-.185.128zm-4.163 9.034l3.026-3.295c.058-.06.07-.158.044-.24-.03-.072-.106-.13-.185-.13l-4.33-.155L11.132 13c-.02-.083-.087-.15-.166-.16-.083-.01-.155.025-.204.103L8.47 16.847l-4.2-1.12c-.077-.024-.16.005-.21.072-.047.064-.054.15-.017.233L6.09 20.08l-3.027 3.3c-.06.06-.078.15-.047.227.033.086.1.133.19.135l4.335.143 1.178 4.43c.025.087.086.135.167.157h.027c.07 0 .14-.04.17-.1l2.294-3.912 4.2 1.128c.076.02.164-.005.21-.077.05-.07.058-.154.02-.23l-2.045-4.05zm13.327-2.728c-.027-.078-.09-.137-.165-.14l-1.78-.216c-.09-.002-.18.05-.21.13l-.55 1.382c-.028.07-.018.152.024.217 2.33 3.265 2.24 6.8 2.078 8.21-2.472-5.47-8.483-8.06-8.538-8.087-.076-.03-.162-.017-.218.04l-1.607 1.572c-.063.07-.084.16-.044.252l.757 1.666c.03.073.1.12.164.13 6.117.468 9.367 5.194 9.396 5.244.042.06.107.09.17.09l.09-.02c.054-.015.097-.052.122-.113 2.17-4.65.388-10.132.31-10.36zm0 0" fill="#3B444F"/></g></svg>