<svg width="32" height="232" viewBox="0 0 32 232" xmlns="http://www.w3.org/2000/svg"><g fill="none"><path d="M10.073 126.862c0-.478.455-.825 1.076-.825h2.23v-.96c0-.597.482-1.077 1.075-1.077h1.648c.594 0 1.077.48 1.077 1.076v.96h2.227c.624 0 1.073.343 1.073.813v1.925c0 .598-.452 1.08-1.013 1.08-.518 0-1.272-.42-1.272-1.08v-.495l-5.922.04.062.456c0 .66-.74 1.08-1.245 1.08-.563 0-1.02-.482-1.02-1.08v-1.916zm-4.478 5.608c.138-.25.427-.395.802-.395l7.16-1.237c.676-.008 1.092.346 1.173.806h.012v2c.006.007.096.073.245.073h.59c.148 0 .25-.068.26-.098l-.005-.965.016-1.014c.077-.46.542-.81 1.102-.81l7.267 1.247h.022c.334 0 .64.132.773.37.103.176.106.394.004.58l-.14.248-.377.645-.436.8-4.883 8.583-.36-.282c-.675-.524-1.6-1.24-2.952-1.3l-.14-.004h-.025c-1.277 0-2.278.32-3.103.956-.185.13-.335.26-.47.38l-.327.305-.29-.342c-.71-.86-1.26-1.907-1.698-2.745-.16-.305-.304-.572-.426-.778-.464-.775-.83-1.394-1.167-1.978-.597-1.017-1.115-1.9-1.948-3.257-.32-.515-.657-1.09-.657-1.09-.14-.227-.157-.48-.03-.7zm21.348 14.733c-.19 0-.35-.05-.456-.08-.444-.143-.875-.19-1.093-.205l-.175-.004c-.45 0-.84.11-1.6.708l-.095.076c-.703.553-1.668 1.3-2.99 1.3-.19 0-.395 0-.607-.046-1.093-.17-1.913-.8-2.573-1.312-.592-.464-.992-.76-1.39-.777l-.19-.006c-.496 0-.886.118-1.22.367l-.397.315c-.456.4-1.116.96-2.06 1.19-.375.087-.688.127-.98.127-1.01 0-1.775-.48-2.758-1.307-.55-.463-2.047-.737-2.824-.49-.12.035-.284.074-.48.074-.856 0-1.556-.705-1.556-1.575 0-.67.415-1.257 1.05-1.48l.08-.034c1.86-.56 3.765-.216 5.122.92.645.543 1.206.79 1.634.69.206-.046.487-.284.786-.535l.15-.12.39-.3c.86-.665 1.902-.996 3.154-.996l.224.002c1.427.07 2.38.815 3.145 1.413.443.344.86.67 1.226.732h.016c.318 0 .667-.267 1.142-.644 1.023-.804 2.21-1.557 3.995-1.427.347.026 1.02.11 1.79.335.667.228 1.098.828 1.098 1.5 0 .872-.694 1.585-1.556 1.585zm0 0" fill="#206FAC"/><path d="M10.073 86.862c0-.478.455-.825 1.076-.825h2.23v-.96c0-.597.482-1.077 1.075-1.077h1.648c.594 0 1.077.48 1.077 1.076v.96h2.227c.624 0 1.073.343 1.073.813v1.925c0 .598-.452 1.08-1.013 1.08-.518 0-1.272-.42-1.272-1.08v-.495l-5.922.04.062.456c0 .66-.74 1.08-1.245 1.08-.563 0-1.02-.482-1.02-1.08V86.86zM5.595 92.47c.138-.25.427-.395.802-.395l7.16-1.237c.676-.008 1.092.346 1.173.806h.012v2c.006.007.096.073.245.073h.59c.148 0 .25-.068.26-.098l-.005-.965.016-1.014c.077-.46.542-.81 1.102-.81l7.267 1.247h.022c.334 0 .64.132.773.37.103.176.106.394.004.58l-.14.248-.377.645-.436.8-4.883 8.583-.36-.282c-.675-.524-1.6-1.24-2.952-1.3l-.14-.004h-.025c-1.277 0-2.278.32-3.103.956-.185.13-.335.26-.47.38l-.327.305-.29-.342c-.71-.86-1.26-1.907-1.698-2.745-.16-.305-.304-.572-.426-.778-.464-.775-.83-1.394-1.167-1.978-.597-1.017-1.115-1.9-1.948-3.257-.32-.515-.657-1.09-.657-1.09-.14-.227-.157-.48-.03-.7zm21.348 14.733c-.19 0-.35-.05-.456-.08-.444-.143-.875-.19-1.093-.205l-.175-.004c-.45 0-.84.11-1.6.708l-.095.076c-.703.553-1.668 1.3-2.99 1.3-.19 0-.395 0-.607-.046-1.093-.17-1.913-.8-2.573-1.312-.592-.464-.992-.76-1.39-.777l-.19-.006c-.496 0-.886.118-1.22.367l-.397.315c-.456.4-1.116.96-2.06 1.19-.375.087-.688.127-.98.127-1.01 0-1.775-.48-2.758-1.307-.55-.463-2.047-.737-2.824-.49-.12.035-.284.074-.48.074-.856 0-1.556-.705-1.556-1.575 0-.67.415-1.257 1.05-1.48l.08-.034c1.86-.56 3.765-.216 5.122.92.645.543 1.206.79 1.634.69.206-.046.487-.284.786-.535l.15-.12.39-.3c.86-.665 1.902-.996 3.154-.996l.224.002c1.427.07 2.38.815 3.145 1.413.443.344.86.67 1.226.732h.016c.318 0 .667-.267 1.142-.644 1.023-.804 2.21-1.557 3.995-1.427.347.026 1.02.11 1.79.335.667.228 1.098.828 1.098 1.5 0 .872-.694 1.585-1.556 1.585zm0 0" fill="#fff"/><path d="M10.073 46.862c0-.478.455-.825 1.076-.825h2.23v-.96c0-.597.482-1.077 1.075-1.077h1.648c.594 0 1.077.48 1.077 1.076v.96h2.227c.624 0 1.073.343 1.073.813v1.925c0 .598-.452 1.08-1.013 1.08-.518 0-1.272-.42-1.272-1.08v-.495l-5.922.04.062.456c0 .66-.74 1.08-1.245 1.08-.563 0-1.02-.482-1.02-1.08V46.86zM5.595 52.47c.138-.25.427-.395.802-.395l7.16-1.237c.676-.008 1.092.346 1.173.806h.012v2c.006.007.096.073.245.073h.59c.148 0 .25-.068.26-.098l-.005-.965.016-1.014c.077-.46.542-.81 1.102-.81l7.267 1.247h.022c.334 0 .64.132.773.37.103.176.106.394.004.58l-.14.248-.377.645-.436.8-4.883 8.583-.36-.282c-.675-.524-1.6-1.24-2.952-1.3l-.14-.004h-.025c-1.277 0-2.278.32-3.103.956-.185.13-.335.26-.47.38l-.327.305-.29-.342c-.71-.86-1.26-1.907-1.698-2.745-.16-.305-.304-.572-.426-.778-.464-.775-.83-1.394-1.167-1.978-.597-1.017-1.115-1.9-1.948-3.257-.32-.515-.657-1.09-.657-1.09-.14-.227-.157-.48-.03-.7zm21.348 14.733c-.19 0-.35-.05-.456-.08-.444-.143-.875-.19-1.093-.205l-.175-.004c-.45 0-.84.11-1.6.708l-.095.076c-.703.553-1.668 1.3-2.99 1.3-.19 0-.395 0-.607-.046-1.093-.17-1.913-.8-2.573-1.312-.592-.464-.992-.76-1.39-.777l-.19-.006c-.496 0-.886.118-1.22.367l-.397.315c-.456.4-1.116.96-2.06 1.19-.375.087-.688.127-.98.127-1.01 0-1.775-.48-2.758-1.307-.55-.463-2.047-.737-2.824-.49-.12.035-.284.074-.48.074-.856 0-1.556-.705-1.556-1.575 0-.67.415-1.257 1.05-1.48l.08-.034c1.86-.56 3.765-.216 5.122.92.645.543 1.206.79 1.634.69.206-.046.487-.284.786-.535l.15-.12.39-.3c.86-.665 1.902-.996 3.154-.996l.224.002c1.427.07 2.38.815 3.145 1.413.443.344.86.67 1.226.732h.016c.318 0 .667-.267 1.142-.644 1.023-.804 2.21-1.557 3.995-1.427.347.026 1.02.11 1.79.335.667.228 1.098.828 1.098 1.5 0 .872-.694 1.585-1.556 1.585zm0 0" fill="#67737B"/><path d="M10.073 6.862c0-.478.455-.825 1.076-.825h2.23v-.96c0-.597.484-1.077 1.08-1.077h1.646c.594 0 1.077.48 1.077 1.076v.96h2.226c.624 0 1.073.343 1.073.813v1.925c0 .598-.453 1.08-1.014 1.08-.52 0-1.273-.42-1.273-1.08V8.28l-5.922.04.062.456c0 .66-.74 1.08-1.245 1.08-.563 0-1.02-.482-1.02-1.08V6.862zM5.595 12.47c.138-.25.427-.395.802-.395l7.16-1.237c.676-.008 1.092.346 1.173.806h.012v2c.006.007.096.073.245.073h.59c.148 0 .25-.068.26-.098l-.005-.965.016-1.014c.077-.46.542-.81 1.102-.81l7.267 1.247h.022c.334 0 .64.132.773.37.103.176.106.394.004.58l-.14.248-.377.645-.436.8-4.883 8.583-.36-.282c-.675-.524-1.6-1.24-2.952-1.3l-.14-.004h-.025c-1.277 0-2.278.32-3.103.956-.185.13-.335.26-.47.38l-.327.305-.29-.342c-.71-.86-1.26-1.907-1.698-2.745-.16-.305-.304-.572-.426-.778-.464-.775-.83-1.394-1.167-1.978-.597-1.017-1.115-1.9-1.948-3.257-.32-.515-.657-1.09-.657-1.09-.14-.227-.157-.48-.03-.7zm21.348 14.733c-.19 0-.35-.05-.456-.08-.444-.143-.875-.19-1.093-.205l-.175-.004c-.45 0-.84.11-1.6.708l-.095.076c-.703.553-1.668 1.3-2.99 1.3-.19 0-.395 0-.607-.046-1.093-.17-1.913-.8-2.573-1.312-.592-.464-.992-.76-1.39-.777l-.19-.006c-.496 0-.886.118-1.22.367l-.397.315c-.456.4-1.116.96-2.06 1.19-.375.087-.688.127-.98.127-1.01 0-1.775-.48-2.758-1.307-.55-.463-2.047-.737-2.824-.49-.12.035-.284.074-.48.074-.856 0-1.556-.705-1.556-1.575 0-.67.415-1.257 1.05-1.48l.08-.034c1.86-.56 3.765-.216 5.122.92.645.543 1.206.79 1.634.69.206-.046.487-.284.786-.535l.15-.12.39-.3c.86-.665 1.902-.996 3.154-.996l.224.002c1.427.07 2.38.815 3.145 1.413.443.344.86.67 1.226.732h.016c.318 0 .667-.267 1.142-.644 1.023-.804 2.21-1.557 3.995-1.427.347.026 1.02.11 1.79.335.667.228 1.098.828 1.098 1.5 0 .872-.694 1.585-1.556 1.585zm0 0" fill="#3A434E"/></g></svg>