<svg width="32" height="232" viewBox="0 0 32 232" xmlns="http://www.w3.org/2000/svg"><g fill="none"><path d="M25.88 133.905h-3.995l-8.606-10.317c-.82-.783-2.12-.783-2.91-.002-.8.793-.66 1.675-.06 3.004l3.99 7.315H8.58c-.408 0-.784.12-1.11.313l-2.887-3.107c-.348-.35-.933-.35-1.295 0-.35.36-.35.93 0 1.28l2.21 3.62-2.274 3.55c-.33.5-.285 1 .064 1.35.362.35.947.35 1.297 0l2.903-3.12c.32.19.69.3 1.092.3h5.728l-3.998 7.34c-.598 1.33-.74 2.21.058 3 .8.79 2.1.79 2.91 0l8.622-10.34h3.98c1.167 0 2.115-.93 2.12-2.08 0-1.15-.954-2.09-2.12-2.09zm0 0" fill="#206FAC"/><path d="M25.88 93.905h-3.995L13.28 83.588c-.813-.783-2.112-.783-2.91-.002-.8.793-.658 1.675-.06 3.004l3.99 7.315H8.58c-.408 0-.784.12-1.11.313L4.584 91.11c-.348-.352-.933-.352-1.295 0-.35.36-.35.927 0 1.28l2.21 3.613-2.28 3.547c-.33.5-.29.998.06 1.35.36.356.94.356 1.29 0l2.9-3.12c.32.187.69.3 1.09.3h5.73l-4 7.33c-.6 1.33-.74 2.215.06 3 .8.79 2.1.79 2.91 0l8.63-10.33h3.98c1.16 0 2.11-.933 2.12-2.084-.01-1.153-.96-2.09-2.12-2.09zm0 0" fill="#fff"/><path d="M25.88 53.905h-3.995L13.28 43.588c-.813-.783-2.112-.783-2.91-.002-.8.793-.658 1.675-.06 3.004l3.99 7.315H8.58c-.408 0-.784.12-1.11.313L4.584 51.11c-.348-.352-.933-.352-1.295 0-.35.36-.35.927 0 1.28l2.21 3.613-2.28 3.547c-.33.5-.29.998.06 1.35.36.356.94.356 1.29 0l2.9-3.12c.32.187.69.3 1.09.3h5.73l-4 7.33c-.6 1.33-.74 2.214.05 3 .8.79 2.1.79 2.91 0l8.63-10.33h3.98c1.16 0 2.11-.932 2.12-2.083 0-1.153-.96-2.09-2.12-2.09zm0 0" fill="#67737B"/><path d="M26.38 13.905h-3.995L13.78 3.588c-.813-.783-2.112-.783-2.91-.002-.8.793-.658 1.675-.06 3.004l3.99 7.315H9.08c-.408 0-.784.12-1.11.313L5.084 11.11c-.348-.352-.933-.352-1.295 0-.35.36-.35.927 0 1.28L6 16.003 3.724 19.55c-.33.5-.285.995.064 1.35.36.353.946.353 1.296 0l2.903-3.123c.32.187.69.302 1.09.302h5.73l-4 7.33c-.598 1.33-.74 2.21.058 3 .8.78 2.1.78 2.91 0L22.4 18.07h3.98c1.167 0 2.115-.932 2.12-2.083 0-1.153-.954-2.09-2.12-2.09zm0 0" fill="#3A434E"/></g></svg>