<svg width="32" height="232" viewBox="0 0 32 232" xmlns="http://www.w3.org/2000/svg"><title>flights-left</title><g fill="none"><path d="M5.118 138.095h3.995l8.606 10.317c.81.783 2.11.783 2.91.002.797-.793.656-1.675.06-3.004l-3.993-7.315h5.72c.41 0 .785-.12 1.11-.313l2.888 3.107c.348.352.933.352 1.295 0 .35-.36.35-.927 0-1.28l-2.21-3.613 2.274-3.548c.33-.498.285-.994-.064-1.35-.362-.352-.947-.352-1.297 0l-2.903 3.124c-.32-.187-.69-.302-1.092-.302H16.69l3.998-7.332c.598-1.33.74-2.212-.058-3-.8-.788-2.1-.788-2.91 0l-8.623 10.332h-3.98c-1.165 0-2.113.932-2.12 2.083.003 1.153.956 2.09 2.12 2.09zm0 0" fill="#206FAC"/><path d="M5.118 98.095h3.995l8.606 10.317c.81.783 2.11.783 2.91.002.797-.793.656-1.675.06-3.004l-3.993-7.315h5.72c.41 0 .785-.12 1.11-.313l2.888 3.107c.348.352.933.352 1.295 0 .35-.36.35-.927 0-1.28l-2.21-3.613 2.274-3.548c.33-.498.285-.994-.064-1.35-.362-.352-.947-.352-1.297 0l-2.903 3.124c-.32-.187-.69-.302-1.092-.302H16.69l3.998-7.332c.598-1.33.74-2.212-.058-3-.8-.788-2.1-.788-2.91 0L9.096 93.922h-3.98c-1.165 0-2.113.932-2.12 2.083.003 1.153.956 2.09 2.12 2.09zm0 0" fill="#fff"/><path d="M5.118 58.095h3.995l8.606 10.317c.81.783 2.11.783 2.91.002.797-.793.656-1.675.06-3.004l-3.993-7.315h5.72c.41 0 .785-.12 1.11-.313l2.888 3.107c.348.352.933.352 1.295 0 .35-.36.35-.927 0-1.28l-2.21-3.613 2.274-3.548c.33-.498.285-.994-.064-1.35-.362-.352-.947-.352-1.297 0l-2.903 3.124c-.32-.187-.69-.302-1.092-.302H16.69l3.998-7.332c.598-1.33.74-2.212-.058-3-.8-.788-2.1-.788-2.91 0L9.096 53.922h-3.98c-1.165 0-2.113.932-2.12 2.083.003 1.153.956 2.09 2.12 2.09zm0 0" fill="#67737B"/><path d="M5.62 18.095h3.995l8.606 10.317c.813.783 2.112.783 2.91.002.8-.793.658-1.675.06-3.004l-3.99-7.315h5.72c.408 0 .784-.12 1.11-.313l2.887 3.107c.348.352.933.352 1.295 0 .35-.36.35-.927 0-1.28l-2.21-3.613 2.274-3.548c.33-.498.285-.994-.064-1.35-.362-.352-.947-.352-1.297 0l-2.903 3.124c-.32-.187-.69-.302-1.092-.302h-5.728L21.19 6.59c.598-1.33.74-2.212-.058-3-.8-.788-2.1-.788-2.91 0L9.598 13.922H5.62c-1.166 0-2.114.932-2.12 2.083.002 1.153.955 2.09 2.12 2.09zm0 0" fill="#3A434E"/></g></svg>