<svg width="32" height="232" viewBox="0 0 32 232" xmlns="http://www.w3.org/2000/svg"><title>flights-line</title><g fill="none"><path d="M23.202 149h-.004c-1.82-.006-2.59-1.35-3.154-2.806l-2.153-7.16-3.212 3.214c-.22.223-.474.408-.756.553l.17 3.888c.012 1.054-.82 1.898-1.855 1.914-.992-.014-1.752-.678-1.963-1.692l-.865-3.83-3.763-.927c-.96-.073-1.71-.862-1.736-1.844.012-1.06.848-1.894 1.864-1.894l3.904.172c.147-.285.334-.547.56-.775l3.212-3.21-7.076-2.124c-1.52-.583-2.866-1.353-2.874-3.18.006-1.683 1.385-3.06 3.07-3.073l13.91 1.346 2.685-2.684c1.195-1.187 3.26-1.185 4.44 0 1.22 1.225 1.216 3.214-.007 4.432l-2.672 2.672 1.344 13.846c-.008 1.785-1.387 3.16-3.068 3.16zm-4.453-13.37l2.997 9.98c.572 1.47.95 1.59 1.457 1.59.695 0 1.265-.575 1.27-1.28l-1.42-14.597 3.27-3.274c.522-.52.524-1.368.005-1.89-.503-.506-1.386-.498-1.894.004l-3.283 3.28-14.664-1.42c-.61.01-1.185.582-1.19 1.277.003.505.12.884 1.656 1.478l9.898 2.968-5.338 5.338c-.174.174-.293.39-.35.64l-.173.723-5.254-.232-.03.082.08.06.205.026 4.925 1.217 1.114 4.93c.078.376.26.296.258.206l-.23-5.246.724-.17c.242-.06.45-.175.615-.34l5.35-5.35zm0 0" fill="#206FAC"/><path d="M23.202 109h-.004c-1.82-.006-2.59-1.35-3.154-2.806l-2.153-7.16-3.212 3.214c-.22.223-.474.408-.756.553l.17 3.888c.012 1.054-.82 1.898-1.855 1.914-.992-.014-1.752-.678-1.963-1.692l-.865-3.83-3.763-.927c-.96-.073-1.71-.862-1.736-1.844.012-1.06.848-1.894 1.864-1.894l3.904.172c.147-.285.334-.547.56-.775l3.212-3.21-7.076-2.124c-1.52-.583-2.866-1.353-2.874-3.18.006-1.683 1.385-3.06 3.07-3.073l13.91 1.346 2.685-2.684c1.195-1.187 3.26-1.185 4.44 0 1.22 1.225 1.216 3.214-.007 4.432l-2.672 2.672 1.344 13.846c-.008 1.785-1.387 3.16-3.068 3.16zM18.75 95.63l2.997 9.98c.572 1.47.95 1.59 1.457 1.59.695 0 1.265-.575 1.27-1.28l-1.42-14.597 3.27-3.274c.522-.52.524-1.368.005-1.89-.503-.506-1.386-.498-1.894.004l-3.283 3.28-14.664-1.42c-.61.01-1.185.582-1.19 1.277.003.505.12.884 1.656 1.478l9.898 2.968-5.338 5.338c-.174.174-.293.39-.35.64l-.173.723-5.254-.232-.03.082.08.06.205.026 4.925 1.217 1.114 4.93c.078.376.26.296.258.206l-.23-5.246.724-.17c.242-.06.45-.175.615-.34l5.35-5.35zm0 0" fill="#fff"/><path d="M23.202 69h-.004c-1.82-.006-2.59-1.35-3.154-2.806l-2.153-7.16-3.212 3.214c-.22.223-.474.408-.756.553l.17 3.888c.012 1.054-.82 1.898-1.855 1.914-.992-.014-1.752-.678-1.963-1.692l-.865-3.83-3.763-.927c-.96-.073-1.71-.862-1.736-1.844.012-1.06.848-1.894 1.864-1.894l3.904.172c.147-.285.334-.547.56-.775l3.212-3.21-7.076-2.124c-1.52-.583-2.866-1.353-2.874-3.18.006-1.683 1.385-3.06 3.07-3.073l13.91 1.346 2.685-2.684c1.195-1.187 3.26-1.185 4.44 0 1.22 1.225 1.216 3.214-.007 4.432l-2.672 2.672L26.27 65.84c-.008 1.785-1.387 3.16-3.068 3.16zM18.75 55.63l2.997 9.98c.572 1.47.95 1.59 1.457 1.59.695 0 1.265-.575 1.27-1.28l-1.42-14.597 3.27-3.274c.522-.52.524-1.368.005-1.89-.503-.506-1.386-.498-1.894.004l-3.283 3.28-14.664-1.42c-.61.01-1.185.582-1.19 1.277.003.505.12.884 1.656 1.478l9.898 2.968-5.338 5.338c-.174.174-.293.39-.35.64l-.173.723-5.254-.232-.03.082.08.06.205.026L10.92 61.6l1.114 4.93c.078.376.26.296.258.206l-.23-5.246.724-.17c.242-.06.45-.175.615-.34l5.35-5.35zm0 0" fill="#67737B"/><path d="M23.202 29h-.004c-1.82-.006-2.59-1.35-3.154-2.806l-2.153-7.16-3.212 3.214c-.22.223-.474.408-.756.553l.17 3.888c.012 1.054-.82 1.898-1.855 1.914-.992-.014-1.752-.678-1.963-1.692l-.865-3.83-3.763-.927c-.96-.073-1.71-.862-1.736-1.844.012-1.06.848-1.894 1.864-1.894l3.904.172c.147-.285.334-.547.56-.775l3.212-3.21-7.076-2.124c-1.52-.583-2.866-1.353-2.874-3.18.006-1.683 1.385-3.06 3.07-3.073l13.91 1.346 2.685-2.684c1.195-1.187 3.26-1.185 4.44 0 1.22 1.225 1.216 3.214-.007 4.432l-2.672 2.672L26.27 25.84c-.008 1.785-1.387 3.16-3.068 3.16zM18.75 15.63l2.997 9.98c.572 1.47.95 1.59 1.457 1.59.695 0 1.265-.575 1.27-1.28l-1.42-14.597 3.27-3.274c.522-.52.524-1.368.005-1.89-.503-.506-1.386-.498-1.894.004l-3.283 3.28L6.49 8.025c-.61.01-1.185.582-1.19 1.277.003.505.12.884 1.656 1.478l9.898 2.968-5.338 5.338c-.174.174-.293.39-.35.64l-.173.723-5.254-.232-.03.082.08.06.205.026L10.92 21.6l1.114 4.93c.078.376.26.296.258.206l-.23-5.246.724-.17c.242-.06.45-.175.615-.34l5.35-5.35zm0 0" fill="#3A434E"/></g></svg>