<svg width="32" height="232" viewBox="0 0 32 232" xmlns="http://www.w3.org/2000/svg"><g fill="none"><path d="M31.7 131.302c-.402-.403-1.057-.403-1.46 0l-1.374 1.375-6.564-.637c-.553.004-1 .452-1 1 0 .55.356.81 1.026 1.07l3.926 1.178-1.97 1.97c-.138.14-.228.31-.27.49l-2.08-.092c-.243-.002-.443.2-.445.447 0 .246.2.445.442.447l2.023.5.455 2.02c.06.288.247.448.493.45.247 0 .45-.203.447-.447l-.09-2.09c.175-.043.343-.13.482-.27l1.97-1.97 1.183 3.934c.26.67.517 1.025 1.068 1.027.55 0 .997-.45 1.002-1l-.638-6.575 1.37-1.375c.402-.402.403-1.052.002-1.456zm-8.532 8.366l-.27.292c-.174.19-.423.476-.772.813-.685.683-1.695 1.643-3.09 2.583-.686.484-1.49.928-2.37 1.34-.89.38-1.855.764-2.908.96-.52.136-1.064.17-1.608.257-.55.022-1.108.093-1.668.047l-.845-.035-.843-.1c-.567-.047-1.115-.202-1.675-.3l-.108-.022-.027-.006-.057-.016-.05-.012-.196-.062-.393-.123c-.266-.092-.517-.14-.79-.27-.54-.246-1.1-.462-1.57-.79-.998-.575-1.823-1.406-2.453-2.3-.663-.89-1.03-1.91-1.26-2.87l-.14-.72c-.03-.237-.044-.474-.06-.705-.053-.46.004-.91.012-1.334.033-.423.11-.824.163-1.206l.278-1.06.335-.894c.106-.277.244-.513.345-.73.2-.447.437-.754.568-.975l.214-.335-.158.365c-.098.24-.27.575-.41 1.034-.072.227-.175.47-.242.75l-.22.896-.155 1.033c-.01.365-.06.747-.053 1.146.03.396.007.813.095 1.233l.095.64.17.645c.26.853.64 1.726 1.242 2.48l.213.295.255.263c.173.17.33.36.52.52.394.3.77.63 1.223.87.424.29.895.457 1.35.667.22.11.514.167.768.254l.395.117.2.06.048.015.014.002-.02-.007.025.006.097.02c.522.096 1.037.25 1.563.298l.784.106.785.042c.518.045 1.034-.007 1.545-.004.504-.06 1.013-.072 1.497-.183.985-.15 1.908-.446 2.773-.754.85-.347 1.652-.702 2.354-1.11 1.417-.794 2.522-1.61 3.285-2.19.763-.584 1.19-.935 1.19-.935zm0 0" fill="#206FAC"/><path d="M31.7 91.302c-.402-.403-1.057-.403-1.46 0l-1.374 1.375-6.564-.637c-.553.004-1 .452-1 1 0 .55.356.81 1.026 1.07l3.926 1.178-1.97 1.97c-.138.14-.228.31-.27.49l-2.08-.092c-.243-.002-.443.2-.445.447 0 .246.2.445.442.447l2.023.5.455 2.02c.06.288.247.448.493.45.247 0 .45-.203.447-.447l-.09-2.09c.175-.043.343-.13.482-.27l1.97-1.97 1.183 3.934c.26.67.517 1.025 1.068 1.027.55 0 .997-.45 1.002-1l-.638-6.575 1.37-1.375c.402-.402.403-1.052.002-1.456zm-8.532 8.366l-.27.292c-.174.19-.423.476-.772.813-.685.683-1.695 1.643-3.09 2.583-.686.484-1.49.928-2.37 1.34-.89.38-1.855.764-2.908.96-.52.136-1.064.17-1.608.257-.55.022-1.108.093-1.668.047l-.845-.035-.843-.1c-.567-.047-1.115-.202-1.675-.3l-.108-.022-.027-.006-.057-.016-.05-.012-.196-.062-.393-.123c-.266-.092-.517-.14-.79-.27-.54-.246-1.1-.462-1.57-.79-.998-.575-1.823-1.406-2.453-2.3-.663-.89-1.03-1.91-1.26-2.87l-.14-.72c-.03-.237-.044-.474-.06-.705-.053-.46.004-.91.012-1.334.033-.423.11-.824.163-1.206l.278-1.06.335-.894c.106-.277.244-.513.345-.73.2-.447.437-.754.568-.975l.214-.335-.158.365c-.098.24-.27.575-.41 1.034-.072.227-.175.47-.242.75l-.22.896-.152 1.03c-.01.366-.058.748-.052 1.147.03.398.007.815.095 1.235l.097.64.17.644c.26.854.642 1.727 1.243 2.482l.213.294.254.262c.174.17.33.36.52.52.395.3.772.63 1.224.87.424.29.895.457 1.35.667.22.11.514.17.768.257l.394.118.198.06.048.015.013.002-.02-.006.024.006.094.02c.522.096 1.037.25 1.563.298l.783.105.786.042c.518.045 1.034-.007 1.545-.004.507-.06 1.016-.07 1.5-.182.986-.15 1.91-.444 2.774-.752.85-.347 1.652-.702 2.354-1.11 1.417-.794 2.522-1.61 3.285-2.19.765-.584 1.193-.935 1.193-.935zm0 0" fill="#fff"/><path d="M31.7 51.302c-.402-.403-1.057-.403-1.46 0l-1.374 1.375-6.564-.637c-.553.004-1 .452-1 1 0 .55.356.81 1.026 1.07l3.926 1.178-1.97 1.97c-.138.14-.228.31-.27.49l-2.08-.092c-.243-.002-.443.2-.445.447 0 .246.2.445.442.447l2.023.5.455 2.02c.06.288.247.448.493.45.247 0 .45-.203.447-.447l-.09-2.09c.175-.043.343-.13.482-.27l1.97-1.97 1.183 3.934c.26.67.517 1.025 1.068 1.027.55 0 .997-.45 1.002-1l-.638-6.575 1.37-1.375c.402-.402.403-1.052.002-1.456zm-8.532 8.366l-.27.292c-.174.19-.423.476-.772.813-.685.683-1.695 1.643-3.09 2.583-.686.484-1.49.928-2.37 1.34-.89.38-1.855.764-2.908.96-.52.136-1.064.17-1.608.257-.55.022-1.108.093-1.668.047l-.845-.035-.843-.1c-.567-.047-1.115-.202-1.675-.3l-.108-.022-.027-.006-.057-.016-.05-.012-.196-.062-.393-.123c-.266-.092-.517-.14-.79-.27-.54-.246-1.1-.462-1.57-.79-.998-.575-1.823-1.406-2.453-2.3-.663-.89-1.03-1.91-1.26-2.87l-.14-.72c-.03-.237-.044-.474-.06-.705-.053-.46.004-.91.012-1.334.033-.423.11-.824.163-1.206l.278-1.06.335-.894c.106-.277.244-.513.345-.73.2-.447.437-.754.568-.975l.214-.335-.158.365c-.098.24-.27.575-.41 1.034-.072.227-.175.47-.242.75l-.22.896-.152 1.03c-.01.366-.058.748-.052 1.147.03.398.007.815.095 1.235l.097.64.17.644c.26.854.642 1.727 1.243 2.482l.213.294.254.262c.174.17.33.36.52.52.395.3.772.63 1.224.87.424.29.895.457 1.35.667.22.11.514.17.768.257l.394.118.198.06.048.015.013.002-.02-.006.024.006.094.02c.522.096 1.037.25 1.563.298l.783.105.786.042c.518.045 1.034-.007 1.545-.004.507-.06 1.016-.07 1.5-.182.986-.15 1.91-.444 2.774-.752.85-.347 1.652-.702 2.354-1.11 1.417-.794 2.522-1.61 3.285-2.19.765-.584 1.193-.935 1.193-.935zm0 0" fill="#67737B"/><path d="M31.7 11.302c-.402-.403-1.057-.403-1.46 0l-1.374 1.375-6.564-.637c-.553.004-1 .452-1 1 0 .55.356.81 1.026 1.07l3.926 1.178-1.97 1.97c-.138.14-.228.31-.27.49l-2.08-.092c-.243-.002-.443.2-.445.447 0 .246.2.445.442.447l2.023.5.455 2.02c.06.288.247.448.493.45.247 0 .45-.203.447-.447l-.09-2.09c.175-.043.343-.13.482-.27l1.97-1.97 1.183 3.934c.26.67.517 1.025 1.068 1.027.55 0 .997-.45 1.002-1l-.638-6.575 1.37-1.375c.402-.402.403-1.052.002-1.456zm-8.532 8.366l-.27.292c-.174.19-.423.476-.772.813-.685.683-1.695 1.643-3.09 2.583-.686.484-1.49.928-2.37 1.34-.89.38-1.855.764-2.908.96-.52.136-1.064.17-1.608.257-.55.022-1.108.093-1.668.047l-.845-.035-.843-.1c-.567-.047-1.115-.202-1.675-.3l-.108-.022-.027-.006-.057-.016-.05-.012-.196-.062-.393-.123c-.266-.092-.517-.14-.79-.27-.54-.246-1.1-.462-1.57-.79-.998-.575-1.823-1.406-2.453-2.3-.663-.89-1.03-1.91-1.26-2.87l-.14-.72c-.03-.237-.044-.474-.06-.705-.053-.46.004-.91.012-1.334.033-.423.11-.824.163-1.206l.278-1.06.335-.894c.106-.277.244-.513.345-.73.2-.447.437-.754.568-.975l.214-.335-.158.365c-.098.24-.27.575-.41 1.034-.072.227-.175.47-.242.75l-.22.896-.152 1.03c-.01.366-.058.748-.052 1.147.03.398.007.815.095 1.235l.097.64.17.644c.26.854.642 1.727 1.243 2.482l.213.294.254.262c.174.17.33.36.52.52.395.3.772.63 1.224.87.424.29.895.457 1.35.667.22.11.514.17.768.257l.394.118.198.06.048.015.013.002-.02-.006.024.006.094.02c.522.096 1.037.25 1.563.298l.783.105.786.042c.518.045 1.034-.007 1.545-.004.507-.06 1.016-.07 1.5-.182.986-.15 1.91-.444 2.774-.752.85-.347 1.652-.702 2.354-1.11 1.417-.794 2.522-1.61 3.285-2.19.765-.584 1.193-.935 1.193-.935zm0 0" fill="#3A434E"/></g></svg>