<svg width="32" height="232" viewBox="0 0 32 232" xmlns="http://www.w3.org/2000/svg"><g fill="none" fill-rule="evenodd"><path d="M25.88 133.905h-3.995l-8.606-10.317c-.813-.783-2.112-.783-2.91-.002-.8.793-.658 1.674-.06 3.004l3.99 7.315H8.58c-.408 0-.784.12-1.11.313l-2.887-3.107c-.348-.353-.933-.353-1.295 0-.35.358-.35.926 0 1.28l2.21 3.613-2.274 3.548c-.33.498-.285.993.064 1.35.362.35.947.35 1.297 0l2.903-3.125c.32.188.69.302 1.092.302h5.728l-3.998 7.333c-.598 1.33-.74 2.212.058 3 .8.787 2.1.787 2.91 0l8.623-10.333h3.98c1.166 0 2.114-.93 2.12-2.083-.002-1.153-.955-2.09-2.12-2.09z" id="flights-right--white" fill="#206FAC"/><path d="M25.88 173.905h-3.995l-8.606-10.317c-.813-.784-2.112-.784-2.91-.002-.8.792-.658 1.674-.06 3.003l3.99 7.315H8.58c-.408 0-.784.12-1.11.313l-2.887-3.107c-.348-.353-.933-.353-1.295 0-.35.358-.35.926 0 1.28l2.21 3.613-2.274 3.548c-.33.498-.285.993.064 1.35.362.35.947.35 1.297 0l2.903-3.125c.32.188.69.302 1.092.302h5.728l-3.998 7.333c-.598 1.33-.74 2.212.058 3 .8.787 2.1.787 2.91 0l8.623-10.333h3.98c1.166 0 2.114-.93 2.12-2.083-.002-1.153-.955-2.09-2.12-2.09z" fill="#C7E6AA"/><path d="M25.88 93.905h-3.995L13.28 83.588c-.813-.783-2.112-.783-2.91-.002-.8.793-.658 1.675-.06 3.004l3.99 7.315H8.58c-.408 0-.784.12-1.11.313L4.584 91.11c-.348-.352-.933-.352-1.295 0-.35.36-.35.927 0 1.28l2.21 3.613-2.274 3.548c-.33.498-.285.993.064 1.35.362.35.947.35 1.297 0l2.903-3.124c.32.187.69.302 1.092.302h5.728l-3.998 7.33c-.598 1.332-.74 2.213.058 3.002.8.788 2.1.788 2.91 0l8.623-10.332h3.98c1.166 0 2.114-.932 2.12-2.083-.002-1.153-.955-2.09-2.12-2.09z" fill="#fff"/><path d="M25.88 53.905h-3.995L13.28 43.588c-.813-.783-2.112-.783-2.91-.002-.8.793-.658 1.675-.06 3.004l3.99 7.315H8.58c-.408 0-.784.12-1.11.313L4.584 51.11c-.348-.352-.933-.352-1.295 0-.35.36-.35.927 0 1.28l2.21 3.613-2.274 3.548c-.33.498-.285.994.064 1.35.362.352.947.352 1.297 0l2.903-3.124c.32.187.69.302 1.092.302h5.728L10.31 65.41c-.598 1.33-.74 2.212.058 3 .8.788 2.1.788 2.91 0l8.623-10.332h3.98c1.166 0 2.114-.932 2.12-2.083-.002-1.153-.955-2.09-2.12-2.09z" fill="#67737B"/><path d="M26.38 13.905h-3.995L13.78 3.588c-.813-.783-2.112-.783-2.91-.002-.8.793-.658 1.675-.06 3.004l3.99 7.315H9.08c-.408 0-.784.12-1.11.313L5.084 11.11c-.348-.352-.933-.352-1.295 0-.35.36-.35.927 0 1.28l2.21 3.613-2.274 3.548c-.33.498-.285.994.064 1.35.362.352.947.352 1.297 0l2.903-3.124c.32.187.69.302 1.092.302h5.728L10.81 25.41c-.598 1.33-.74 2.212.058 3 .8.788 2.1.788 2.91 0l8.623-10.332h3.98c1.166 0 2.114-.932 2.12-2.083-.002-1.153-.955-2.09-2.12-2.09z" fill="#3A434E"/></g></svg>