<svg width="32" height="232" viewBox="0 0 32 232" xmlns="http://www.w3.org/2000/svg"><title>google-plus</title><g fill="none"><path d="M23.274 11.258v3.808h-.93v-3.808H18.62v-.95h3.722V6.5h.93v3.807H27v.95h-3.726zm-7.55-3.81h-1.827c1.21.48 1.856 1.922 1.856 3.402 0 1.243-.674 2.31-1.627 3.073-.928.742-1.105 1.053-1.105 1.683 0 .538.998 1.454 1.52 1.833 1.52 1.095 2.01 2.12 2.01 3.82 0 2.127-2.01 4.24-5.657 4.24C7.697 25.5 5 24.17 5 22.045c0-2.16 2.462-4.24 5.657-4.24l.998-.01c-.44-.434-.784-.97-.784-1.626 0-.39.124-.765.293-1.098l-.533.015c-2.626 0-4.386-1.908-4.386-4.273 0-2.317 2.43-4.313 5.01-4.313h5.754l-1.286.95zm-4.457 10.905c-2.212-.024-4.19 1.377-4.19 3.06 0 1.72 1.596 3.148 3.806 3.148 3.106 0 4.188-1.34 4.188-3.06 0-.205-.023-.41-.07-.605-.24-.97-1.102-1.453-2.3-2.308-.437-.142-.917-.23-1.432-.234zm2.42-7.387c-.258-1.992-1.668-3.59-3.152-3.634-1.48-.046-2.477 1.478-2.218 3.47.254 1.992 1.664 3.642 3.148 3.687h.062c1.447 0 2.41-1.56 2.16-3.525z" fill="#3A434E"/><path d="M23.274 51.258v3.808h-.93v-3.808H18.62v-.95h3.722V46.5h.93v3.807H27v.95h-3.726zm-7.55-3.81h-1.827c1.21.48 1.856 1.922 1.856 3.402 0 1.243-.674 2.31-1.627 3.073-.928.742-1.105 1.053-1.105 1.683 0 .538.998 1.454 1.52 1.833 1.52 1.095 2.01 2.12 2.01 3.82 0 2.127-2.01 4.24-5.657 4.24C7.697 65.5 5 64.17 5 62.045c0-2.16 2.462-4.24 5.657-4.24l.998-.01c-.44-.434-.784-.97-.784-1.626 0-.39.124-.765.293-1.098l-.533.015c-2.626 0-4.386-1.908-4.386-4.273 0-2.317 2.43-4.313 5.01-4.313h5.754l-1.286.95zm-4.457 10.905c-2.212-.024-4.19 1.377-4.19 3.06 0 1.72 1.596 3.148 3.806 3.148 3.106 0 4.188-1.34 4.188-3.06 0-.205-.023-.41-.07-.605-.24-.97-1.102-1.453-2.3-2.308-.437-.142-.917-.23-1.432-.234zm2.42-7.387c-.258-1.992-1.668-3.59-3.152-3.634-1.48-.046-2.477 1.478-2.218 3.47.254 1.992 1.664 3.642 3.148 3.687h.062c1.447 0 2.41-1.56 2.16-3.525z" fill="#67737B"/><path d="M23.274 91.258v3.808h-.93v-3.808H18.62v-.95h3.722V86.5h.93v3.807H27v.95h-3.726zm-7.55-3.81h-1.827c1.21.48 1.856 1.922 1.856 3.402 0 1.243-.674 2.31-1.627 3.073-.928.742-1.105 1.053-1.105 1.683 0 .538.998 1.454 1.52 1.833 1.52 1.095 2.01 2.12 2.01 3.82 0 2.127-2.01 4.24-5.657 4.24-3.196 0-5.894-1.33-5.894-3.454 0-2.16 2.462-4.24 5.657-4.24l.998-.01c-.44-.434-.784-.97-.784-1.626 0-.39.124-.765.293-1.098l-.533.015c-2.626 0-4.386-1.908-4.386-4.273 0-2.317 2.43-4.313 5.01-4.313h5.754l-1.286.95zm-4.457 10.905c-2.212-.024-4.19 1.377-4.19 3.06 0 1.72 1.596 3.148 3.806 3.148 3.106 0 4.188-1.34 4.188-3.06 0-.205-.023-.41-.07-.605-.24-.97-1.102-1.453-2.3-2.308-.437-.142-.917-.23-1.432-.234zm2.42-7.387c-.258-1.992-1.668-3.59-3.152-3.634-1.48-.046-2.477 1.478-2.218 3.47.254 1.992 1.664 3.642 3.148 3.687h.062c1.447 0 2.41-1.56 2.16-3.525z" fill="#fff"/><path d="M23.274 131.258v3.808h-.93v-3.808H18.62v-.95h3.722V126.5h.93v3.807H27v.95h-3.726zm-7.55-3.81h-1.827c1.21.48 1.856 1.922 1.856 3.402 0 1.243-.674 2.31-1.627 3.073-.928.742-1.105 1.053-1.105 1.683 0 .538.998 1.454 1.52 1.833 1.52 1.095 2.01 2.12 2.01 3.82 0 2.127-2.01 4.24-5.657 4.24-3.196 0-5.894-1.33-5.894-3.454 0-2.16 2.462-4.24 5.657-4.24l.998-.01c-.44-.434-.784-.97-.784-1.626 0-.39.124-.765.293-1.098l-.533.015c-2.626 0-4.386-1.908-4.386-4.273 0-2.317 2.43-4.313 5.01-4.313h5.754l-1.286.95zm-4.457 10.905c-2.212-.024-4.19 1.377-4.19 3.06 0 1.72 1.596 3.148 3.806 3.148 3.106 0 4.188-1.34 4.188-3.06 0-.205-.023-.41-.07-.605-.24-.97-1.102-1.453-2.3-2.308-.437-.142-.917-.23-1.432-.234zm2.42-7.387c-.258-1.992-1.668-3.59-3.152-3.634-1.48-.046-2.477 1.478-2.218 3.47.254 1.992 1.664 3.642 3.148 3.687h.062c1.447 0 2.41-1.56 2.16-3.525z" fill="#206FAC"/><path d="M23.274 171.258v3.808h-.93v-3.808H18.62v-.95h3.722V166.5h.93v3.807H27v.95h-3.726zm-7.55-3.81h-1.827c1.21.48 1.856 1.922 1.856 3.402 0 1.243-.674 2.31-1.627 3.073-.928.742-1.105 1.053-1.105 1.683 0 .538.998 1.454 1.52 1.833 1.52 1.095 2.01 2.12 2.01 3.82 0 2.127-2.01 4.24-5.657 4.24-3.196 0-5.894-1.33-5.894-3.454 0-2.16 2.462-4.24 5.657-4.24l.998-.01c-.44-.434-.784-.97-.784-1.626 0-.39.124-.765.293-1.098l-.533.015c-2.626 0-4.386-1.908-4.386-4.273 0-2.317 2.43-4.313 5.01-4.313h5.754l-1.286.95zm-4.457 10.905c-2.212-.024-4.19 1.377-4.19 3.06 0 1.72 1.596 3.148 3.806 3.148 3.106 0 4.188-1.34 4.188-3.06 0-.205-.023-.41-.07-.605-.24-.97-1.102-1.453-2.3-2.308-.437-.142-.917-.23-1.432-.234zm2.42-7.387c-.258-1.992-1.668-3.59-3.152-3.634-1.48-.046-2.477 1.478-2.218 3.47.254 1.992 1.664 3.642 3.148 3.687h.062c1.447 0 2.41-1.56 2.16-3.525z" fill="#DD4B39"/></g></svg>