<svg width="32" height="232" viewBox="0 0 32 232" xmlns="http://www.w3.org/2000/svg"><title>hand-point--line</title><g fill="none"><path d="M12.82 132.506c1.796 0 2.365 1.392 1.513 1.392 1.054 0-.446.098-.446.098s1.83-.018 3.508-.018l.11-.013h7.3c.946 0 1.71.77 1.71 1.713 0 .944-.764 1.71-1.71 1.71h-4.98c-.263.252-.586.4-.918.4h-.034c.345.168.657.725.657.725s1.246 2.123-1.06 2.71c.033.105 1.266.69 1.023 1.543-.242.852-1.764 1.368-1.764 1.368s.987.62.59 1.36c-.365.68-1.66 1.12-1.66 1.12l-8.95.014c-.222 0-.61-.546-1.083-.546-.128 0-.26.04-.4.142l-.652-10.654.314.008.128-.003c1.9-.09 3.72-3.044 3.72-3.044s2.712-.024 3.08-.024m0-1.477c-.37 0-3.094.024-3.094.024l-.816.008-.428.695c-.673 1.08-1.88 2.31-2.533 2.342H5.89l-.23-.006-1.66-.096.1 1.66.82 13.37 1.736-1.283c.248.172.597.36 1.055.36l8.953-.012h.242l.23-.08c.434-.147 1.893-.713 2.488-1.822.275-.512.325-1.038.215-1.525.47-.37.896-.86 1.076-1.496.168-.587.112-1.146-.165-1.677.17-.217.29-.437.373-.637.297-.714.255-1.425.118-1.99h3.565c1.76 0 3.19-1.43 3.19-3.188 0-1.76-1.43-3.19-3.19-3.19h-7.3l-.213.012-1.42.005c-.508-.82-1.584-1.476-3.053-1.476" fill="#206FAC"/><path d="M12.82 92.506c1.796 0 2.365 1.392 1.513 1.392 1.054 0-.446.098-.446.098s1.83-.018 3.508-.018l.11-.013h7.3c.946 0 1.71.77 1.71 1.713 0 .944-.764 1.71-1.71 1.71h-4.98c-.263.252-.586.4-.918.4h-.034c.345.168.657.725.657.725s1.246 2.123-1.06 2.71c.033.105 1.266.69 1.023 1.543-.242.852-1.764 1.368-1.764 1.368s.987.62.59 1.36c-.365.68-1.66 1.12-1.66 1.12l-8.95.014c-.222 0-.61-.546-1.083-.546-.128 0-.26.04-.4.142L5.576 95.57l.314.008.128-.003c1.9-.09 3.72-3.044 3.72-3.044s2.712-.024 3.08-.024m0-1.477c-.37 0-3.094.024-3.094.024l-.816.008-.428.695c-.673 1.08-1.88 2.31-2.533 2.342H5.89l-.23-.006L4 93.998l.1 1.66.82 13.37 1.736-1.283c.248.172.597.36 1.055.36l8.953-.012h.242l.23-.08c.434-.147 1.893-.713 2.488-1.822.275-.512.325-1.038.215-1.525.47-.37.896-.86 1.076-1.496.168-.587.112-1.146-.165-1.677.17-.217.29-.437.373-.637.297-.714.255-1.425.118-1.99h3.565c1.76 0 3.19-1.43 3.19-3.188 0-1.76-1.43-3.19-3.19-3.19h-7.3l-.213.012-1.42.005c-.508-.82-1.584-1.476-3.053-1.476" fill="#fff"/><path d="M12.82 52.506c1.796 0 2.365 1.392 1.513 1.392 1.054 0-.446.098-.446.098s1.83-.018 3.508-.018l.11-.013h7.3c.946 0 1.71.77 1.71 1.713 0 .944-.764 1.71-1.71 1.71h-4.98c-.263.252-.586.4-.918.4h-.034c.345.168.657.725.657.725s1.246 2.123-1.06 2.71c.033.105 1.266.69 1.023 1.543-.242.852-1.764 1.368-1.764 1.368s.987.62.59 1.36c-.365.68-1.66 1.12-1.66 1.12l-8.95.014c-.222 0-.61-.546-1.083-.546-.128 0-.26.04-.4.142L5.576 55.57l.314.008.128-.003c1.9-.09 3.72-3.044 3.72-3.044s2.712-.024 3.08-.024m0-1.477c-.37 0-3.094.024-3.094.024l-.816.008-.428.695c-.673 1.08-1.88 2.31-2.533 2.342H5.89l-.23-.006L4 53.998l.1 1.66.82 13.37 1.736-1.283c.248.172.597.36 1.055.36l8.953-.012h.242l.23-.08c.434-.147 1.893-.713 2.488-1.822.275-.512.325-1.038.215-1.525.47-.37.896-.86 1.076-1.496.168-.587.112-1.146-.165-1.677.17-.217.29-.437.373-.637.297-.714.255-1.425.118-1.99h3.565c1.76 0 3.19-1.43 3.19-3.188 0-1.76-1.43-3.19-3.19-3.19h-7.3l-.213.012-1.42.005c-.508-.82-1.584-1.476-3.053-1.476" fill="#67737B"/><path d="M12.82 12.506c1.796 0 2.365 1.392 1.513 1.392 1.054 0-.446.098-.446.098s1.83-.018 3.508-.018l.11-.013h7.3c.946 0 1.71.77 1.71 1.713 0 .944-.764 1.71-1.71 1.71h-4.98c-.263.252-.586.4-.918.4h-.034c.345.168.657.725.657.725s1.246 2.123-1.06 2.71c.033.105 1.266.69 1.023 1.543-.242.852-1.764 1.368-1.764 1.368s.987.62.59 1.36c-.365.68-1.66 1.12-1.66 1.12l-8.95.014c-.222 0-.61-.546-1.083-.546-.128 0-.26.04-.4.142L5.576 15.57l.314.008.128-.003c1.9-.09 3.72-3.044 3.72-3.044s2.712-.024 3.08-.024m0-1.477c-.37 0-3.094.024-3.094.024l-.816.008-.428.695c-.673 1.08-1.88 2.31-2.533 2.342H5.89l-.23-.006L4 13.998l.1 1.66.82 13.37 1.736-1.283c.248.172.597.36 1.055.36l8.953-.012h.242l.23-.08c.434-.147 1.893-.713 2.488-1.822.275-.512.325-1.038.215-1.525.47-.37.896-.86 1.076-1.496.168-.587.112-1.146-.165-1.677.17-.217.29-.437.373-.637.297-.714.255-1.425.118-1.99h3.565c1.76 0 3.19-1.43 3.19-3.188 0-1.76-1.43-3.19-3.19-3.19h-7.3l-.213.012-1.42.005c-.508-.82-1.584-1.476-3.053-1.476" fill="#3A434E"/></g></svg>