<svg width="32" height="232" viewBox="0 0 32 232" xmlns="http://www.w3.org/2000/svg"><g fill="none"><path d="M12.82 132.506c1.796 0 2.365 1.392 1.513 1.392 1.054 0-.446.098-.446.098s1.83-.018 3.508-.018l.11-.013h7.3c.946 0 1.71.77 1.71 1.713 0 .944-.764 1.71-1.71 1.71h-4.98c-.263.252-.586.4-.918.4h-.034c.345.168.657.725.657.725s1.246 2.123-1.06 2.71c.033.105 1.266.69 1.023 1.543-.242.852-1.764 1.368-1.764 1.368s.984.62.59 1.36c-.368.68-1.66 1.12-1.66 1.12l-8.95.014c-.225 0-.61-.546-1.086-.546-.128 0-.26.04-.4.142l-.652-10.654.314.008.128-.003c1.9-.09 3.72-3.044 3.72-3.044s2.712-.02 3.08-.02m0-1.478c-.37 0-3.094.025-3.094.025l-.815.008-.428.695c-.673 1.08-1.88 2.31-2.533 2.342H5.89l-.23-.007L4 134l.1 1.66.82 13.37 1.736-1.284c.248.172.597.36 1.055.36l8.956-.012h.242l.23-.08c.434-.147 1.893-.713 2.488-1.822.275-.512.325-1.038.215-1.525.47-.37.896-.86 1.076-1.496.168-.59.112-1.147-.165-1.68.17-.215.29-.435.374-.635.297-.714.255-1.425.118-1.99h3.567c1.76 0 3.19-1.43 3.19-3.188 0-1.76-1.43-3.19-3.19-3.19h-7.3l-.214.012-1.42.003c-.508-.82-1.584-1.476-3.053-1.476" fill="#206FAC"/><path d="M12.82 92.506c1.796 0 2.365 1.392 1.513 1.392 1.054 0-.446.098-.446.098s1.83-.018 3.508-.018l.11-.013h7.3c.946 0 1.71.77 1.71 1.713 0 .944-.764 1.71-1.71 1.71h-4.98c-.263.252-.586.4-.918.4h-.034c.345.168.657.725.657.725s1.246 2.123-1.06 2.71c.033.105 1.266.69 1.023 1.543-.242.852-1.764 1.368-1.764 1.368s.984.62.59 1.36c-.368.68-1.66 1.12-1.66 1.12l-8.95.014c-.225 0-.61-.546-1.086-.546-.128 0-.26.04-.4.142l-.65-10.654.314.008.127-.003c1.9-.09 3.72-3.044 3.72-3.044s2.712-.02 3.08-.02m0-1.478c-.37 0-3.094.025-3.094.025l-.815.008-.428.695c-.674 1.08-1.88 2.31-2.534 2.342H5.89l-.23-.007L4 93.998l.1 1.66.82 13.37 1.736-1.283c.248.172.597.36 1.055.36l8.956-.012h.242l.23-.08c.434-.147 1.893-.713 2.488-1.822.275-.51.325-1.035.215-1.522.47-.37.896-.86 1.076-1.496.168-.586.112-1.145-.165-1.676.17-.217.29-.437.374-.637.297-.715.255-1.426.118-1.99h3.567c1.76 0 3.19-1.43 3.19-3.19s-1.43-3.19-3.19-3.19h-7.3l-.214.01-1.42.007c-.508-.82-1.584-1.476-3.053-1.476" fill="#fff"/><path d="M12.82 52.506c1.796 0 2.365 1.392 1.513 1.392 1.054 0-.446.098-.446.098s1.83-.018 3.508-.018l.11-.013h7.3c.946 0 1.71.77 1.71 1.713 0 .944-.764 1.71-1.71 1.71h-4.98c-.263.252-.586.4-.918.4h-.034c.345.168.657.725.657.725s1.246 2.123-1.06 2.71c.033.105 1.266.69 1.023 1.543-.242.852-1.764 1.368-1.764 1.368s.984.62.59 1.36c-.368.68-1.66 1.12-1.66 1.12l-8.95.014c-.225 0-.61-.546-1.086-.546-.128 0-.26.04-.4.142l-.65-10.654.314.008.127-.003c1.9-.09 3.72-3.044 3.72-3.044s2.712-.02 3.08-.02m0-1.478c-.37 0-3.094.025-3.094.025l-.815.008-.428.695c-.674 1.08-1.88 2.31-2.534 2.342H5.89l-.23-.007L4 53.998l.1 1.66.82 13.37 1.736-1.283c.248.172.597.36 1.055.36l8.956-.012h.242l.23-.08c.434-.147 1.893-.713 2.488-1.822.275-.51.325-1.035.215-1.522.47-.37.896-.86 1.076-1.496.168-.586.112-1.145-.165-1.676.17-.217.29-.437.374-.637.297-.715.255-1.426.118-1.99h3.567c1.76 0 3.19-1.43 3.19-3.19s-1.43-3.19-3.19-3.19h-7.3l-.214.01-1.42.007c-.508-.82-1.584-1.476-3.053-1.476" fill="#67737B"/><path d="M12.82 12.506c1.796 0 2.365 1.392 1.513 1.392 1.054 0-.446.098-.446.098s1.83-.018 3.508-.018l.11-.013h7.3c.946 0 1.71.77 1.71 1.713 0 .944-.764 1.71-1.71 1.71h-4.98c-.263.252-.586.4-.918.4h-.034c.345.168.657.725.657.725s1.246 2.123-1.06 2.71c.033.105 1.266.69 1.023 1.543-.242.852-1.764 1.368-1.764 1.368s.984.62.59 1.36c-.368.68-1.66 1.12-1.66 1.12l-8.95.014c-.225 0-.61-.546-1.086-.546-.128 0-.26.04-.4.142l-.65-10.654.314.008.127-.003c1.9-.09 3.72-3.044 3.72-3.044s2.712-.02 3.08-.02m0-1.478c-.37 0-3.094.025-3.094.025l-.815.008-.428.695c-.674 1.08-1.88 2.31-2.534 2.342H5.89l-.23-.007L4 13.998l.1 1.66.82 13.37 1.736-1.283c.248.172.597.36 1.055.36l8.956-.012h.242l.23-.08c.434-.147 1.893-.713 2.488-1.822.275-.51.325-1.035.215-1.522.47-.37.896-.86 1.076-1.496.168-.586.112-1.145-.165-1.676.17-.217.29-.437.374-.637.297-.715.255-1.426.118-1.99h3.567c1.76 0 3.19-1.43 3.19-3.19s-1.43-3.19-3.19-3.19h-7.3l-.214.01-1.42.007c-.508-.82-1.584-1.476-3.053-1.476" fill="#3A434E"/></g></svg>