<svg width="32" height="232" viewBox="0 0 32 232" xmlns="http://www.w3.org/2000/svg"><title>home</title><g fill="none"><path d="M29.36 176.588c-.23.3-.664.36-.968.135L16 167.45l-12.394 9.273c-.303.226-.736.166-.966-.135-.23-.3-.17-.73.13-.958l12.468-9.325c.228-.17.513-.315.733-.315.226.004.562.144.79.315l5.107 3.82v-.632c0-.496.378-.9.842-.9h1.907c.464 0 .84.404.84.9v3.318l3.77 2.82c.303.228.36.658.133.958zM23.734 188h-4.997v-6.843c0-.758-.62-1.374-1.384-1.374h-2.756c-.764 0-1.385.616-1.385 1.374V188H8.266c-1.068 0-1.933-.857-1.933-2.02v-8.83l8.778-6.602s.55-.454.89-.454c.328 0 .885.454.885.454l8.783 6.602v8.934c0 1.06-.866 1.916-1.935 1.916zm0 0" fill="#15C98D"/><path d="M29.36 136.588c-.23.3-.664.36-.968.135L16 127.45l-12.394 9.273c-.303.226-.736.166-.966-.135-.23-.3-.17-.73.13-.958l12.468-9.325c.228-.17.513-.315.733-.315.226.004.562.144.79.315l5.107 3.82v-.632c0-.496.378-.9.842-.9h1.907c.464 0 .84.404.84.9v3.318l3.77 2.82c.303.228.36.658.133.958zM23.734 148h-4.997v-6.843c0-.758-.62-1.374-1.384-1.374h-2.756c-.764 0-1.385.616-1.385 1.374V148H8.266c-1.068 0-1.933-.857-1.933-2.02v-8.83l8.778-6.602s.55-.454.89-.454c.328 0 .885.454.885.454l8.783 6.602v8.934c0 1.06-.866 1.916-1.935 1.916zm0 0" fill="#206FAC"/><path d="M29.36 96.588c-.23.3-.664.36-.968.135L16 87.45 3.605 96.724c-.303.226-.736.166-.966-.135-.23-.3-.17-.73.13-.958l12.468-9.325c.228-.17.513-.315.733-.315.226.004.562.144.79.315l5.107 3.82v-.632c0-.496.378-.9.842-.9h1.907c.464 0 .84.404.84.9v3.318l3.77 2.82c.303.228.36.658.133.958zM23.734 108h-4.997v-6.843c0-.758-.62-1.374-1.384-1.374h-2.756c-.764 0-1.385.616-1.385 1.374V108H8.266c-1.068 0-1.933-.857-1.933-2.02v-8.83l8.778-6.602s.55-.454.89-.454c.328 0 .885.454.885.454l8.783 6.602v8.934c0 1.06-.866 1.916-1.935 1.916zm0 0" fill="#fff"/><path d="M29.36 56.588c-.23.3-.664.36-.968.135L16 47.45 3.605 56.724c-.303.226-.736.166-.966-.135-.23-.3-.17-.73.13-.958l12.468-9.325c.228-.17.513-.315.733-.315.226.004.562.144.79.315l5.107 3.82v-.632c0-.496.378-.9.842-.9h1.907c.464 0 .84.404.84.9v3.318l3.77 2.82c.303.228.36.658.133.958zM23.734 68h-4.997v-6.843c0-.758-.62-1.374-1.384-1.374h-2.756c-.764 0-1.385.616-1.385 1.374V68H8.266c-1.068 0-1.933-.857-1.933-2.02v-8.83l8.778-6.602s.55-.454.89-.454c.328 0 .885.454.885.454l8.783 6.602v8.934c0 1.06-.866 1.916-1.935 1.916zm0 0" fill="#67737B"/><path d="M29.36 16.588c-.23.3-.664.36-.968.135L16 7.45 3.605 16.724c-.303.226-.736.166-.966-.135-.23-.3-.17-.73.13-.958L15.24 6.305c.228-.17.513-.315.733-.315.226.004.562.144.79.315l5.107 3.82v-.632c0-.496.378-.9.842-.9h1.907c.464 0 .84.404.84.9v3.318l3.77 2.82c.303.228.36.658.133.958zM23.734 28h-4.997v-6.843c0-.758-.62-1.374-1.384-1.374h-2.756c-.764 0-1.385.616-1.385 1.374V28H8.266c-1.068 0-1.933-.857-1.933-2.02v-8.83l8.778-6.602s.55-.454.89-.454c.328 0 .885.454.885.454l8.783 6.602v8.934c0 1.06-.866 1.916-1.935 1.916zm0 0" fill="#3A434E"/></g></svg>