<svg width="32" height="232" viewBox="0 0 32 232" xmlns="http://www.w3.org/2000/svg"><g fill="none"><path d="M29.36 176.588c-.23.3-.664.36-.968.135L16 167.45l-12.394 9.273c-.303.226-.736.166-.966-.135-.23-.3-.17-.73.13-.958l12.468-9.325c.228-.17.513-.315.733-.315.23.004.565.144.79.315l5.11 3.82v-.632c0-.496.378-.9.84-.9h1.91c.463 0 .84.404.84.9v3.318l3.77 2.82c.302.23.36.66.132.96zM23.734 188h-4.997v-6.843c0-.758-.62-1.374-1.384-1.374h-2.756c-.764 0-1.385.616-1.385 1.374V188H8.266c-1.068 0-1.933-.857-1.933-2.02v-8.83l8.778-6.602s.55-.454.89-.454c.33 0 .888.454.888.454l8.783 6.602v8.934c0 1.06-.866 1.916-1.935 1.916zm0 0" fill="#15C98D"/><path d="M29.36 136.588c-.23.3-.664.36-.968.135L16 127.45l-12.394 9.273c-.303.226-.736.166-.966-.135-.23-.3-.17-.73.13-.958l12.468-9.325c.228-.17.513-.315.733-.315.23.004.565.144.79.315l5.11 3.82v-.632c0-.496.378-.9.84-.9h1.91c.463 0 .84.404.84.9v3.318l3.77 2.82c.302.23.36.66.132.96zM23.734 148h-4.997v-6.843c0-.758-.62-1.374-1.384-1.374h-2.756c-.764 0-1.385.616-1.385 1.374V148H8.266c-1.068 0-1.933-.857-1.933-2.02v-8.83l8.778-6.602s.55-.454.89-.454c.33 0 .888.454.888.454l8.783 6.602v8.934c0 1.06-.866 1.916-1.935 1.916zm0 0" fill="#206FAC"/><path d="M29.36 96.588c-.23.3-.664.36-.968.135L16 87.45 3.605 96.724c-.303.226-.736.166-.966-.135-.23-.3-.17-.73.13-.96l12.465-9.326c.228-.17.513-.315.733-.315.225.004.56.144.79.315l5.106 3.82v-.632c0-.496.378-.9.842-.9h1.906c.464 0 .84.404.84.9v3.318l3.77 2.82c.303.23.36.66.133.96zM23.734 108h-4.997v-6.843c0-.758-.62-1.374-1.384-1.374h-2.756c-.764 0-1.385.616-1.385 1.374V108H8.266c-1.068 0-1.933-.857-1.933-2.02v-8.83l8.778-6.602s.55-.454.89-.454c.33 0 .888.454.888.454l8.783 6.602v8.934c0 1.06-.866 1.916-1.935 1.916zm0 0" fill="#fff"/><path d="M29.36 56.588c-.23.3-.664.36-.968.135L16 47.45 3.605 56.724c-.303.226-.736.166-.966-.135-.23-.3-.17-.73.13-.96l12.465-9.326c.228-.17.513-.315.733-.315.225.004.56.144.79.315l5.106 3.82v-.632c0-.496.378-.9.842-.9h1.906c.464 0 .84.404.84.9v3.318l3.77 2.82c.303.23.36.66.133.96zM23.734 68h-4.997v-6.843c0-.758-.62-1.374-1.384-1.374h-2.756c-.764 0-1.385.616-1.385 1.374V68H8.266c-1.068 0-1.933-.857-1.933-2.02v-8.83l8.778-6.602s.55-.454.89-.454c.33 0 .888.454.888.454l8.783 6.602v8.934c0 1.06-.866 1.916-1.935 1.916zm0 0" fill="#67737B"/><path d="M29.36 16.588c-.23.3-.664.36-.968.135L16 7.45 3.605 16.724c-.303.226-.736.166-.966-.135-.23-.3-.17-.73.13-.96l12.47-9.327c.226-.17.51-.315.73-.315.227.003.563.143.79.314l5.108 3.82V9.49c0-.496.377-.9.84-.9h1.908c.463 0 .84.404.84.9v3.318l3.77 2.82c.302.23.36.66.132.96zM23.734 28h-4.997v-6.843c0-.758-.62-1.374-1.384-1.374h-2.756c-.764 0-1.385.616-1.385 1.374V28H8.266c-1.068 0-1.933-.857-1.933-2.02v-8.83l8.778-6.602s.55-.454.89-.454c.33 0 .888.454.888.454l8.783 6.602v8.934c0 1.06-.866 1.916-1.935 1.916zm0 0" fill="#3A434E"/></g></svg>