<svg width="22" height="32" viewBox="0 0 22 32" xmlns="http://www.w3.org/2000/svg"><g fill="none"><path d="M15.484 29.984c0 1.105-2.015 2-4.5 2-2.486 0-4.5-.895-4.5-2 0-1.104 2.014-2 4.5-2 2.485 0 4.5.896 4.5 2" fill-opacity=".2" fill="#1D508D"/><path d="M10.983.016c6.076 0 11 4.362 11 10.92 0 6.407-5.55 9.16-8.505 13.256-2.418 3.346-2.495 5.824-2.495 5.824s-.018-2.49-2.494-5.824c-3.04-4.097-8.51-6.66-8.51-13.257 0-6.56 4.925-10.92 11-10.92" fill="#BF538D"/><path d="M16.985 11.952c-.112-.13-.268-.195-.46-.195H6.673V6.854c0-.594-.437-1.08-.978-1.08-.54 0-.974.486-.974 1.08v7.442c0 .592.44 1.078.978 1.078.54 0 .978-.486.978-1.078V13.6h8.54v.665c0 .597.435 1.078.977 1.078.54 0 .98-.48.98-1.078v-1.612c.003-.044.042-.45-.184-.7m-9.338-1.9c0 .452.375.798.816.798h8.46c1.08-1.91-.852-3.34-1.37-3.34H12.23c-.095-.34-.41-.588-.785-.588-.443 0-.815.35-.82.8v1.536h-2.16c-.443 0-.815.347-.815.8M8.79 8.82c.722 0 1.308-.59 1.308-1.315 0-.718-.586-1.306-1.308-1.306-.726 0-1.312.586-1.312 1.304 0 .726.586 1.313 1.312 1.313" fill="#fff"/></g></svg>