<svg width="32" height="232" viewBox="0 0 32 232" xmlns="http://www.w3.org/2000/svg"><g fill="none"><path d="M28.772 135.327c-.946-1.688-2.625-2.82-3.596-2.82H16.42c-.463-.755-1.266-1.228-2.17-1.228-.605 0-1.163.24-1.614.63-.654-.77-1.6-1.27-2.662-1.27-.608 0-1.172.17-1.675.46v-.86c0-1.787-1.307-3.24-2.907-3.24-1.597 0-2.896 1.452-2.896 3.24v15.53c0 1.78 1.3 3.23 2.896 3.23 1.6 0 2.903-1.45 2.903-3.23v-.46h15.246v.41c0 1.776 1.302 3.226 2.905 3.226 1.603 0 2.906-1.45 2.906-3.23v-3.366c.035-.75-.113-1.365-.41-1.84.79-1.732.74-3.556-.174-5.183zm-18.8-2.724c.93 0 1.69.792 1.69 1.766 0 .96-.76 1.75-1.69 1.75-.928 0-1.684-.79-1.684-1.75 0-.978.756-1.77 1.685-1.77zm17.5 13.116c0 .695-.46 1.263-1.02 1.263-.564 0-1.022-.567-1.022-1.267v-2.37H6.413v2.42c0 .7-.458 1.267-1.018 1.267-.557 0-1.01-.567-1.01-1.266v-15.53c0-.694.46-1.28 1.01-1.28s1.018.586 1.018 1.28v4.023l-.01.106.01.105v4.225l-.01.105.01.106v2.54h20.714c.1 0 .165.022.22.085.034.045.15.22.124.817v3.37zm-.134-6.246H8.978c-.414 0-.69-.27-.69-.674 0-.383.308-.695.715-.695l.86-.026v-.01l.11.01c1.97 0 3.572-1.665 3.572-3.71l-.03-.33h.01c.005-.403.363-.8.724-.8.31 0 .58.205.662.515l.194.713 10.035-.003c.3.047 1.51.773 2.14 2.117.44.932.456 1.903.056 2.892zm0 0" fill="#206FAC"/><path d="M28.772 95.327c-.946-1.688-2.625-2.82-3.596-2.82H16.42c-.463-.755-1.266-1.228-2.17-1.228-.605 0-1.163.24-1.614.63-.654-.77-1.6-1.27-2.662-1.27-.608 0-1.172.17-1.675.46v-.86C8.3 88.455 6.992 87 5.392 87 3.8 87 2.5 88.455 2.5 90.242v15.53C2.5 107.55 3.8 109 5.396 109c1.6 0 2.903-1.45 2.903-3.23v-.46h15.244v.41c0 1.778 1.302 3.228 2.905 3.228 1.602 0 2.905-1.45 2.905-3.23v-3.366c.035-.75-.113-1.366-.41-1.84.79-1.733.74-3.557-.174-5.184zm-18.8-2.724c.93 0 1.69.792 1.69 1.766 0 .96-.76 1.75-1.69 1.75-.928 0-1.684-.79-1.684-1.75 0-.978.756-1.77 1.685-1.77zm17.5 13.116c0 .695-.46 1.263-1.02 1.263-.564 0-1.022-.567-1.022-1.267v-2.37H6.413v2.42c0 .7-.458 1.267-1.018 1.267-.557 0-1.01-.567-1.01-1.266V90.242c0-.695.46-1.28 1.01-1.28s1.018.585 1.018 1.28v4.022l-.01.105.01.103v4.223l-.01.105.01.107v2.54h20.714c.1 0 .165.02.22.084.034.044.15.218.124.816v3.37zm-.134-6.246H8.978c-.414 0-.69-.27-.69-.674 0-.383.308-.695.715-.695l.86-.026v-.01l.11.01c1.97 0 3.572-1.665 3.572-3.71l-.03-.33h.01c.005-.403.363-.8.724-.8.31 0 .58.205.662.515l.194.713 10.035-.003c.3.047 1.51.773 2.14 2.117.44.932.456 1.903.056 2.892zm0 0" fill="#fff"/><path d="M28.772 55.327c-.946-1.688-2.625-2.82-3.596-2.82H16.42c-.463-.755-1.266-1.228-2.17-1.228-.605 0-1.163.24-1.614.63-.654-.77-1.6-1.27-2.662-1.27-.608 0-1.172.17-1.675.46v-.86C8.3 48.455 6.992 47 5.392 47 3.8 47 2.5 48.455 2.5 50.242v15.53C2.5 67.55 3.8 69 5.396 69c1.6 0 2.903-1.45 2.903-3.23v-.46h15.244v.41c0 1.778 1.302 3.228 2.905 3.228 1.602 0 2.905-1.45 2.905-3.23v-3.366c.035-.75-.113-1.366-.41-1.84.79-1.733.74-3.557-.174-5.184zm-18.8-2.724c.93 0 1.69.792 1.69 1.766 0 .96-.76 1.75-1.69 1.75-.928 0-1.684-.79-1.684-1.75 0-.978.756-1.77 1.685-1.77zm17.5 13.116c0 .695-.46 1.263-1.02 1.263-.564 0-1.022-.567-1.022-1.267v-2.37H6.413v2.42c0 .7-.458 1.267-1.018 1.267-.557 0-1.01-.567-1.01-1.266V50.242c0-.695.46-1.28 1.01-1.28s1.018.585 1.018 1.28v4.022l-.01.105.01.103v4.223l-.01.105.01.107v2.54h20.714c.1 0 .165.02.22.084.034.044.15.218.124.816v3.37zm-.134-6.246H8.978c-.414 0-.69-.27-.69-.674 0-.383.308-.695.715-.695l.86-.026v-.01l.11.01c1.97 0 3.572-1.665 3.572-3.71l-.03-.33h.01c.005-.403.363-.8.724-.8.31 0 .58.205.662.515l.194.713 10.035-.003c.3.047 1.51.773 2.14 2.117.44.932.456 1.903.056 2.892zm0 0" fill="#67747C"/><path d="M28.772 15.327c-.946-1.688-2.625-2.82-3.596-2.82H16.42c-.463-.755-1.266-1.228-2.17-1.228-.605 0-1.163.24-1.614.63-.654-.77-1.6-1.27-2.662-1.27-.608 0-1.172.17-1.675.46v-.86C8.3 8.455 6.992 7 5.392 7 3.8 7 2.5 8.455 2.5 10.242v15.53C2.5 27.55 3.8 29 5.396 29c1.6 0 2.903-1.45 2.903-3.23v-.46h15.244v.41c0 1.778 1.302 3.228 2.905 3.228 1.602 0 2.905-1.45 2.905-3.23v-3.366c.035-.75-.113-1.366-.41-1.84.79-1.733.74-3.557-.174-5.184zm-18.8-2.724c.93 0 1.69.792 1.69 1.766 0 .96-.76 1.75-1.69 1.75-.928 0-1.684-.79-1.684-1.75 0-.978.756-1.77 1.685-1.77zm17.5 13.116c0 .695-.46 1.263-1.02 1.263-.564 0-1.022-.567-1.022-1.267v-2.37H6.413v2.42c0 .7-.458 1.267-1.018 1.267-.557 0-1.01-.567-1.01-1.266V10.242c0-.695.46-1.28 1.01-1.28s1.018.585 1.018 1.28v4.022l-.01.105.01.103v4.223l-.01.105.01.107v2.54h20.714c.1 0 .165.02.22.084.034.044.15.218.124.816v3.37zm-.134-6.246H8.978c-.414 0-.69-.27-.69-.674 0-.383.308-.695.715-.695l.86-.026v-.01l.11.01c1.97 0 3.572-1.665 3.572-3.71l-.03-.33h.01c.005-.403.363-.8.724-.8.31 0 .58.205.662.515l.194.713 10.035-.003c.3.047 1.51.773 2.14 2.117.44.932.456 1.903.056 2.892zm0 0" fill="#3B444F"/><path d="M28.772 175.327c-.946-1.688-2.625-2.82-3.596-2.82H16.42c-.463-.755-1.266-1.228-2.17-1.228-.605 0-1.163.24-1.614.63-.654-.77-1.6-1.27-2.662-1.27-.608 0-1.172.17-1.675.46v-.86c0-1.787-1.307-3.24-2.907-3.24-1.597 0-2.896 1.452-2.896 3.24v15.53c0 1.78 1.3 3.23 2.896 3.23 1.6 0 2.903-1.45 2.903-3.23v-.46h15.246v.41c0 1.776 1.302 3.226 2.905 3.226 1.603 0 2.906-1.45 2.906-3.23v-3.366c.035-.75-.113-1.365-.41-1.84.79-1.732.74-3.556-.174-5.183zm-18.8-2.724c.93 0 1.69.792 1.69 1.766 0 .96-.76 1.75-1.69 1.75-.928 0-1.684-.79-1.684-1.75 0-.978.756-1.77 1.685-1.77zm17.5 13.116c0 .695-.46 1.263-1.02 1.263-.564 0-1.022-.567-1.022-1.267v-2.37H6.413v2.42c0 .7-.458 1.267-1.018 1.267-.557 0-1.01-.567-1.01-1.266v-15.53c0-.694.46-1.28 1.01-1.28s1.018.586 1.018 1.28v4.023l-.01.106.01.105v4.225l-.01.105.01.106v2.54h20.714c.1 0 .165.022.22.085.034.045.15.22.124.817v3.37zm-.134-6.246H8.978c-.414 0-.69-.27-.69-.674 0-.383.308-.695.715-.695l.86-.026v-.01l.11.01c1.97 0 3.572-1.665 3.572-3.71l-.03-.33h.01c.005-.403.363-.8.724-.8.31 0 .58.205.662.515l.194.713 10.035-.003c.3.047 1.51.773 2.14 2.117.44.932.456 1.903.056 2.892zm0 0" fill="#BF538D"/></g></svg>