<svg width="32" height="232" viewBox="0 0 32 232" xmlns="http://www.w3.org/2000/svg"><title>housekeeping</title><g fill="none"><path d="M28.947 146.424l-.568-4.744c-.275-2.09-.743-2.893-2.692-2.918l-.002-.004H16.6c-.79 0-1.53.537-1.896 1.44l-1.39 3.4-4.695-4.048c-.304-.31-1.215-.77-1.585-.89v-6.665l3.092-4.42c.103-.258.203-.534.006-.73 0 0-.275-.236-.53-.416l-.52-.286c-.262-.113-.532-.242-.856-.35-.097-.035-.394-.113-.435-.12-.29-.065-.472-.105-.877-.113l-.622.014c-.392.006-.54.04-.852.107l-.394.094c-.275.095-.632.25-.834.366-.033.02-.38.24-.49.332-.35.28-.496.518-.496.518-.21.18-.287.54-.175.792l3.134 4.238-.035 6.877-.45.423c-.998.982-.465 2.146.666 3.283l6.47 5.684c.39.42 1.367.713 1.983.713h11.96c1.87-.002 2.402-1.12 2.166-2.576zm-14.298-9.636h2.86c1.018.72 2.234 1.142 3.547 1.142 1.312 0 2.532-.422 3.55-1.142h3.043c.52 0 .813-.432.648-.962l-.8-4.66.005-.15h.002c0-2.388-1.107-4.34-2.79-5.764-1.487-1.648-5.267-1.695-7.24.014-1.728 1.242-2.866 3.354-2.868 5.75l.012.213-.616 4.596c-.167.528.126.962.646.962zm2.117-6.563h8.575c.045.26.075.52.08.793-.01 2.582-1.958 4.672-4.367 4.676-2.412-.004-4.363-2.094-4.365-4.676 0-.273.035-.534.075-.793zm0 0" fill="#206FAC"/><path d="M28.947 106.424l-.568-4.744c-.275-2.09-.743-2.893-2.692-2.918l-.002-.004H16.6c-.79 0-1.53.537-1.896 1.44l-1.39 3.4L8.62 99.55c-.304-.31-1.215-.77-1.585-.89v-6.665l3.092-4.42c.103-.258.203-.534.006-.73 0 0-.275-.236-.53-.416l-.52-.286c-.262-.113-.532-.242-.856-.35-.097-.035-.394-.113-.435-.12-.29-.065-.472-.105-.877-.113l-.622.014c-.392.006-.54.04-.852.107l-.394.094c-.275.095-.632.25-.834.366-.033.02-.38.24-.49.332-.35.28-.496.518-.496.518-.21.18-.287.54-.175.792l3.134 4.238-.035 6.877-.45.423c-.998.982-.465 2.146.666 3.283l6.47 5.684c.39.42 1.367.713 1.983.713h11.96c1.87-.002 2.402-1.12 2.166-2.576zM14.65 96.788h2.86c1.018.72 2.234 1.142 3.547 1.142 1.312 0 2.532-.422 3.55-1.142h3.043c.52 0 .813-.432.648-.962l-.8-4.66.005-.15h.002c0-2.388-1.107-4.34-2.79-5.764-1.487-1.648-5.267-1.695-7.24.014-1.728 1.242-2.866 3.354-2.868 5.75l.012.213-.616 4.596c-.167.528.126.962.646.962zm2.117-6.563h8.575c.045.26.075.52.08.793-.01 2.582-1.958 4.672-4.367 4.676-2.412-.004-4.363-2.094-4.365-4.676 0-.273.035-.534.075-.793zm0 0" fill="#fff"/><path d="M28.947 66.424l-.568-4.744c-.275-2.09-.743-2.893-2.692-2.918l-.002-.004H16.6c-.79 0-1.53.537-1.896 1.44l-1.39 3.4L8.62 59.55c-.304-.31-1.215-.77-1.585-.89v-6.665l3.092-4.42c.103-.258.203-.534.006-.73 0 0-.275-.236-.53-.416l-.52-.286c-.262-.113-.532-.242-.856-.35-.097-.035-.394-.113-.435-.12-.29-.065-.472-.105-.877-.113l-.622.014c-.392.006-.54.04-.852.107l-.394.094c-.275.095-.632.25-.834.366-.033.02-.38.24-.49.332-.35.28-.496.518-.496.518-.21.18-.287.54-.175.792l3.134 4.238-.035 6.877-.45.423c-.998.982-.465 2.146.666 3.283l6.47 5.684c.39.42 1.367.713 1.983.713h11.96c1.87-.002 2.402-1.12 2.166-2.576zM14.65 56.788h2.86c1.018.72 2.234 1.142 3.547 1.142 1.312 0 2.532-.422 3.55-1.142h3.043c.52 0 .813-.432.648-.962l-.8-4.66.005-.15h.002c0-2.388-1.107-4.34-2.79-5.764-1.487-1.648-5.267-1.695-7.24.014-1.728 1.242-2.866 3.354-2.868 5.75l.012.213-.616 4.596c-.167.528.126.962.646.962zm2.117-6.563h8.575c.045.26.075.52.08.793-.01 2.582-1.958 4.672-4.367 4.676-2.412-.004-4.363-2.094-4.365-4.676 0-.273.035-.534.075-.793zm0 0" fill="#67737B"/><path d="M28.947 26.424l-.568-4.744c-.275-2.09-.743-2.893-2.692-2.918l-.002-.004H16.6c-.79 0-1.53.537-1.896 1.44l-1.39 3.4L8.62 19.55c-.304-.31-1.215-.77-1.585-.89v-6.665l3.092-4.42c.103-.258.203-.534.006-.73 0 0-.275-.236-.53-.416l-.52-.286c-.262-.113-.532-.242-.856-.35-.097-.035-.394-.113-.435-.12-.29-.065-.472-.105-.877-.113l-.622.014c-.392.006-.54.04-.852.107l-.394.094c-.275.095-.632.25-.834.366-.033.02-.38.24-.49.332-.35.28-.496.518-.496.518-.21.18-.287.54-.175.792l3.134 4.238-.035 6.877-.45.423c-.998.982-.465 2.146.666 3.283l6.47 5.684c.39.42 1.367.713 1.983.713h11.96c1.87-.002 2.402-1.12 2.166-2.576zM14.65 16.788h2.86c1.018.72 2.234 1.142 3.547 1.142 1.312 0 2.532-.422 3.55-1.142h3.043c.52 0 .813-.432.648-.962l-.8-4.66.005-.15h.002c0-2.388-1.107-4.34-2.79-5.764-1.487-1.648-5.267-1.695-7.24.014-1.728 1.242-2.866 3.354-2.868 5.75l.012.213-.616 4.596c-.167.528.126.962.646.962zm2.117-6.563h8.575c.045.26.075.52.08.793-.01 2.582-1.958 4.672-4.367 4.676-2.412-.004-4.363-2.094-4.365-4.676 0-.273.035-.534.075-.793zm0 0" fill="#3A434E"/></g></svg>