<svg width="32" height="232" viewBox="0 0 32 232" xmlns="http://www.w3.org/2000/svg"><g fill="none"><path d="M16.287 125.57l.277.028c3.195.31 5.873 1.492 7.964 3.516.84.81 1.792 1.968 2.513 3.512l-.475-.018c-1.284 0-2.506.422-3.45 1.197l-.102.09c-.98-.79-2.324-1.26-3.7-1.26-1.31 0-2.475.434-3.337 1.217-.898-.785-2.163-1.18-3.066-1.26-.17-.016-.338-.022-.5-.022-1.308 0-2.554.474-3.524 1.316-.942-.817-2.206-1.268-3.557-1.268l-.415.014.085-.173c2.035-4.08 5.51-6.37 10.337-6.806l.95-.086M15.99 122c-.618 0-1.11.738-.82 1.792-5.86.53-9.697 3.546-11.833 7.828-.716 1.435-1.41 3.107-1.353 4.99.46-.46.58-.957 1.072-1.36.618-.507 1.443-.76 2.27-.76.862 0 1.723.274 2.35.82.348.303.68 1.305 1.227 1.305l.067-.004c.328-.04.554-.693.733-.9.587-.7 1.52-1.265 2.704-1.265l.336.015c.905.08 2.23.66 2.426 1.417.185.748 0 1.864 0 2.78v5.56c0 .905.14 1.973-.06 2.723-.25.944-1.114 1.412-1.97 1.412-.81 0-1.62-.414-1.92-1.24-.264-.737-.074-1.413-.73-1.533l-.288-.03c-1.522 0-.12 2.86.173 3.2.563.66 1.596 1.25 2.736 1.25h.023c2.05-.01 3.444-1.566 3.606-3.345.31-3.328-.23-7.15 0-10.836.562-.93 1.553-1.313 2.57-1.313 1.15 0 2.333.495 2.95 1.254.306.373.324.85.763.85h.028c.485-.016.873-1.055 1.24-1.36.634-.52 1.453-.77 2.27-.77.864 0 1.723.28 2.35.83.473.41.56.92 1.07 1.3-.317-3.768-1.985-6.74-4.165-8.848-2.207-2.135-5.213-3.654-9.073-4.028-.022-.467.06-1.04-.053-1.417-.23-.218-.474-.318-.7-.318" fill="#206FAC"/><path d="M16.287 85.57l.277.028c3.195.31 5.873 1.492 7.964 3.516.84.81 1.792 1.968 2.513 3.512l-.475-.018c-1.284 0-2.506.422-3.45 1.197l-.102.09c-.98-.79-2.324-1.26-3.7-1.26-1.31 0-2.475.434-3.337 1.217-.898-.785-2.163-1.18-3.066-1.26-.17-.016-.338-.022-.5-.022-1.308 0-2.554.474-3.524 1.316-.942-.817-2.206-1.268-3.557-1.268l-.415.014L5 92.46c2.034-4.08 5.51-6.368 10.336-6.804l.95-.086M15.99 82c-.618 0-1.11.738-.82 1.792-5.86.53-9.697 3.546-11.833 7.828-.716 1.435-1.41 3.107-1.353 4.99.46-.46.58-.957 1.072-1.36.618-.507 1.443-.76 2.27-.76.862 0 1.723.274 2.35.82.348.303.68 1.305 1.227 1.305l.067-.004c.328-.04.554-.693.733-.9.587-.7 1.52-1.265 2.704-1.265l.336.015c.905.08 2.23.66 2.426 1.417.185.748 0 1.864 0 2.78v5.56c0 .905.14 1.973-.06 2.723-.25.944-1.114 1.412-1.97 1.412-.81 0-1.62-.414-1.92-1.24-.264-.737-.074-1.413-.73-1.533l-.288-.03c-1.522 0-.12 2.86.173 3.2.563.66 1.596 1.25 2.736 1.25h.023c2.05-.01 3.444-1.566 3.606-3.345.31-3.328-.23-7.15 0-10.836.562-.93 1.553-1.313 2.57-1.313 1.15 0 2.333.495 2.95 1.254.306.373.324.85.763.85h.028c.485-.016.873-1.055 1.24-1.36.634-.52 1.453-.77 2.27-.77.864 0 1.723.28 2.35.83.473.41.56.92 1.07 1.3-.317-3.768-1.985-6.74-4.165-8.848-2.207-2.135-5.213-3.654-9.073-4.028-.022-.467.06-1.04-.053-1.417-.23-.218-.474-.318-.7-.318" fill="#fff"/><path d="M16.287 45.57l.277.028c3.195.31 5.873 1.492 7.964 3.516.84.81 1.792 1.968 2.513 3.512l-.475-.018c-1.284 0-2.506.422-3.45 1.197l-.102.09c-.98-.79-2.324-1.26-3.7-1.26-1.31 0-2.475.434-3.337 1.217-.898-.785-2.163-1.18-3.066-1.26-.17-.016-.338-.022-.5-.022-1.308 0-2.554.474-3.524 1.316-.942-.817-2.206-1.268-3.557-1.268l-.415.014L5 52.46c2.034-4.08 5.51-6.368 10.336-6.804l.95-.086M15.99 42c-.618 0-1.11.738-.82 1.792-5.86.53-9.697 3.546-11.833 7.828-.716 1.435-1.41 3.107-1.353 4.99.46-.46.58-.957 1.072-1.36.618-.507 1.443-.76 2.27-.76.862 0 1.723.274 2.35.82.348.303.68 1.305 1.227 1.305l.067-.004c.328-.04.554-.693.733-.9.587-.7 1.52-1.265 2.704-1.265l.336.015c.905.08 2.23.66 2.426 1.417.185.748 0 1.864 0 2.78v5.56c0 .905.14 1.973-.06 2.723-.25.944-1.114 1.412-1.97 1.412-.81 0-1.62-.414-1.92-1.24-.264-.737-.074-1.413-.73-1.533l-.288-.03c-1.522 0-.12 2.86.173 3.2.563.66 1.596 1.25 2.736 1.25h.023c2.05-.01 3.444-1.566 3.606-3.345.31-3.328-.23-7.15 0-10.836.562-.93 1.553-1.313 2.57-1.313 1.15 0 2.333.495 2.95 1.254.306.373.324.85.763.85h.028c.485-.016.873-1.055 1.24-1.36.634-.52 1.453-.77 2.27-.77.864 0 1.723.28 2.35.83.473.41.56.92 1.07 1.3-.317-3.768-1.985-6.74-4.165-8.848-2.207-2.135-5.213-3.654-9.073-4.028-.022-.467.06-1.04-.053-1.417-.23-.218-.474-.318-.7-.318" fill="#67737B"/><path d="M16.287 5.57l.277.028c3.195.31 5.873 1.492 7.964 3.516.84.81 1.792 1.968 2.513 3.512l-.475-.018c-1.284 0-2.506.422-3.45 1.197l-.102.09c-.98-.79-2.324-1.26-3.7-1.26-1.31 0-2.475.434-3.337 1.217-.898-.785-2.163-1.18-3.066-1.26-.17-.016-.338-.022-.5-.022-1.308 0-2.554.474-3.524 1.316-.942-.817-2.206-1.268-3.557-1.268l-.415.014L5 12.46c2.034-4.08 5.51-6.368 10.336-6.804l.95-.086M15.99 2c-.618 0-1.11.738-.82 1.792-5.86.53-9.697 3.546-11.833 7.828-.716 1.435-1.41 3.107-1.353 4.99.46-.46.58-.957 1.072-1.36.618-.507 1.443-.76 2.27-.76.862 0 1.723.274 2.35.82.348.303.68 1.305 1.227 1.305l.067-.004c.328-.04.554-.693.733-.9.587-.7 1.52-1.265 2.704-1.265l.336.015c.905.08 2.23.66 2.426 1.417.185.748 0 1.864 0 2.78v5.56c0 .905.14 1.973-.06 2.723-.25.944-1.114 1.412-1.97 1.412-.81 0-1.62-.414-1.92-1.24-.264-.737-.074-1.413-.73-1.533l-.288-.03c-1.522 0-.12 2.86.173 3.2.563.66 1.596 1.25 2.736 1.25h.023c2.05-.01 3.444-1.566 3.606-3.345.31-3.328-.23-7.15 0-10.836.562-.93 1.553-1.313 2.57-1.313 1.15 0 2.333.495 2.95 1.254.306.373.324.85.763.85h.028c.485-.016.873-1.055 1.24-1.36.634-.52 1.453-.77 2.27-.77.864 0 1.723.28 2.35.83.473.41.56.92 1.07 1.3-.317-3.768-1.985-6.74-4.165-8.848-2.207-2.135-5.213-3.654-9.073-4.028-.022-.467.06-1.04-.053-1.417-.23-.218-.474-.318-.7-.318" fill="#3A434E"/></g></svg>