<svg width="32" height="232" viewBox="0 0 32 232" xmlns="http://www.w3.org/2000/svg"><title>insurance-line</title><g fill="none"><path d="M16.287 125.57l.277.028c3.195.31 5.873 1.492 7.964 3.516.84.81 1.792 1.968 2.513 3.512l-.478-.018c-1.284 0-2.506.422-3.45 1.197l-.102.09c-.982-.79-2.325-1.26-3.7-1.26-1.31 0-2.476.434-3.338 1.217-.898-.785-2.163-1.18-3.066-1.26-.17-.016-.337-.022-.5-.022-1.307 0-2.553.474-3.523 1.316-.942-.817-2.206-1.268-3.557-1.268l-.413.014.085-.173c2.035-4.08 5.512-6.367 10.337-6.803l.95-.086M15.99 122c-.618 0-1.11.738-.82 1.792-5.86.53-9.697 3.546-11.833 7.828-.716 1.435-1.41 3.107-1.353 4.99.46-.46.58-.957 1.072-1.36.618-.507 1.443-.76 2.27-.76.862 0 1.723.274 2.35.82.348.303.68 1.305 1.227 1.305l.067-.004c.328-.043.554-.696.733-.903.587-.698 1.52-1.265 2.704-1.265l.336.015c.905.08 2.23.66 2.426 1.418.188.748 0 1.864 0 2.78v5.56c0 .905.143 1.973-.058 2.723-.252.945-1.113 1.413-1.972 1.413-.81 0-1.62-.414-1.918-1.24-.263-.737-.073-1.413-.73-1.533l-.287-.028c-1.522 0-.12 2.862.173 3.202.563.658 1.596 1.248 2.736 1.248h.022c2.05-.01 3.444-1.566 3.606-3.345.31-3.328-.23-7.15 0-10.836.562-.928 1.553-1.312 2.568-1.312 1.152 0 2.335.495 2.952 1.254.306.372.324.85.763.85h.028c.484-.017.872-1.056 1.24-1.362.633-.518 1.452-.77 2.268-.77.865 0 1.724.282 2.352.83.472.41.56.92 1.07 1.3-.318-3.767-1.986-6.74-4.166-8.847-2.207-2.135-5.213-3.654-9.073-4.028-.022-.467.06-1.04-.053-1.417-.228-.218-.473-.318-.7-.318" fill="#206FAC"/><path d="M16.287 85.57l.277.028c3.195.31 5.873 1.492 7.964 3.516.84.81 1.792 1.968 2.513 3.512l-.478-.018c-1.284 0-2.506.422-3.45 1.197l-.102.09c-.982-.79-2.325-1.26-3.7-1.26-1.31 0-2.476.434-3.338 1.217-.898-.785-2.163-1.18-3.066-1.26-.17-.016-.337-.022-.5-.022-1.307 0-2.553.474-3.523 1.316-.942-.817-2.206-1.268-3.557-1.268l-.413.014.085-.173c2.035-4.08 5.512-6.367 10.337-6.803l.95-.086M15.99 82c-.618 0-1.11.738-.82 1.792-5.86.53-9.697 3.546-11.833 7.828-.716 1.435-1.41 3.107-1.353 4.99.46-.46.58-.957 1.072-1.36.618-.507 1.443-.76 2.27-.76.862 0 1.723.274 2.35.82.348.303.68 1.305 1.227 1.305l.067-.004c.328-.043.554-.696.733-.903.587-.698 1.52-1.265 2.704-1.265l.336.015c.905.08 2.23.66 2.426 1.418.188.748 0 1.864 0 2.78v5.56c0 .905.143 1.973-.058 2.723-.252.945-1.113 1.413-1.972 1.413-.81 0-1.62-.414-1.918-1.24-.263-.737-.073-1.413-.73-1.533l-.287-.028c-1.522 0-.12 2.862.173 3.202.563.658 1.596 1.248 2.736 1.248h.022c2.05-.01 3.444-1.566 3.606-3.345.31-3.328-.23-7.15 0-10.836.562-.928 1.553-1.312 2.568-1.312 1.152 0 2.335.495 2.952 1.254.306.372.324.85.763.85h.028c.484-.017.872-1.056 1.24-1.362.633-.518 1.452-.77 2.268-.77.865 0 1.724.282 2.352.83.472.41.56.92 1.07 1.3-.318-3.767-1.986-6.74-4.166-8.847-2.207-2.135-5.213-3.654-9.073-4.028-.022-.467.06-1.04-.053-1.417-.228-.218-.473-.318-.7-.318" fill="#fff"/><path d="M16.287 45.57l.277.028c3.195.31 5.873 1.492 7.964 3.516.84.81 1.792 1.968 2.513 3.512l-.478-.018c-1.284 0-2.506.422-3.45 1.197l-.102.09c-.982-.79-2.325-1.26-3.7-1.26-1.31 0-2.476.434-3.338 1.217-.898-.785-2.163-1.18-3.066-1.26-.17-.016-.337-.022-.5-.022-1.307 0-2.553.474-3.523 1.316-.942-.817-2.206-1.268-3.557-1.268l-.413.014.085-.173c2.035-4.08 5.512-6.367 10.337-6.803l.95-.086M15.99 42c-.618 0-1.11.738-.82 1.792-5.86.53-9.697 3.546-11.833 7.828-.716 1.435-1.41 3.107-1.353 4.99.46-.46.58-.957 1.072-1.36.618-.507 1.443-.76 2.27-.76.862 0 1.723.274 2.35.82.348.303.68 1.305 1.227 1.305l.067-.004c.328-.043.554-.696.733-.903.587-.698 1.52-1.265 2.704-1.265l.336.015c.905.08 2.23.66 2.426 1.418.188.748 0 1.864 0 2.78v5.56c0 .905.143 1.973-.058 2.723-.252.945-1.113 1.413-1.972 1.413-.81 0-1.62-.414-1.918-1.24-.263-.737-.073-1.413-.73-1.533l-.287-.028c-1.522 0-.12 2.862.173 3.202.563.658 1.596 1.248 2.736 1.248h.022c2.05-.01 3.444-1.566 3.606-3.345.31-3.328-.23-7.15 0-10.836.562-.928 1.553-1.312 2.568-1.312 1.152 0 2.335.495 2.952 1.254.306.372.324.85.763.85h.028c.484-.017.872-1.056 1.24-1.362.633-.518 1.452-.77 2.268-.77.865 0 1.724.282 2.352.83.472.41.56.92 1.07 1.3-.318-3.767-1.986-6.74-4.166-8.847-2.207-2.135-5.213-3.654-9.073-4.028-.022-.467.06-1.04-.053-1.417-.228-.218-.473-.318-.7-.318" fill="#67737B"/><path d="M16.287 5.57l.277.028c3.195.31 5.873 1.492 7.964 3.516.84.81 1.792 1.968 2.513 3.512l-.478-.018c-1.284 0-2.506.422-3.45 1.197l-.102.09c-.982-.79-2.325-1.26-3.7-1.26-1.31 0-2.476.434-3.338 1.217-.898-.785-2.163-1.18-3.066-1.26-.17-.016-.337-.022-.5-.022-1.307 0-2.553.474-3.523 1.316-.942-.817-2.206-1.268-3.557-1.268l-.413.014.085-.173c2.035-4.08 5.512-6.367 10.337-6.803l.95-.086M15.99 2c-.618 0-1.11.738-.82 1.792-5.86.53-9.697 3.546-11.833 7.828-.716 1.435-1.41 3.107-1.353 4.99.46-.46.58-.957 1.072-1.36.618-.507 1.443-.76 2.27-.76.862 0 1.723.274 2.35.82.348.303.68 1.305 1.227 1.305l.067-.004c.328-.043.554-.696.733-.903.587-.698 1.52-1.265 2.704-1.265l.336.015c.905.08 2.23.66 2.426 1.418.188.748 0 1.864 0 2.78v5.56c0 .905.143 1.973-.058 2.723-.252.945-1.113 1.413-1.972 1.413-.81 0-1.62-.414-1.918-1.24-.263-.737-.073-1.413-.73-1.533l-.287-.028c-1.522 0-.12 2.862.173 3.202.563.658 1.596 1.248 2.736 1.248h.022c2.05-.01 3.444-1.566 3.606-3.345.31-3.328-.23-7.15 0-10.836.562-.928 1.553-1.312 2.568-1.312 1.152 0 2.335.495 2.952 1.254.306.372.324.85.763.85h.028c.484-.017.872-1.056 1.24-1.362.633-.518 1.452-.77 2.268-.77.865 0 1.724.282 2.352.83.472.41.56.92 1.07 1.3-.318-3.767-1.986-6.74-4.166-8.847-2.207-2.135-5.213-3.654-9.073-4.028-.022-.467.06-1.04-.053-1.417-.228-.218-.473-.318-.7-.318" fill="#3A434E"/></g></svg>