<svg width="32" height="232" viewBox="0 0 32 232" xmlns="http://www.w3.org/2000/svg"><g fill="none"><path d="M24.323 122H7.606c-1.46 0-2.647 1.183-2.647 2.646v22.008c0 1.46 1.18 2.647 2.64 2.647h16.72c1.46 0 2.643-1.18 2.643-2.64v-22.01c0-1.462-1.184-2.645-2.644-2.645zm-8.36 25.994c-1.125 0-2.035-.91-2.035-2.037 0-1.125.91-2.037 2.035-2.037s2.037.912 2.037 2.037c0 1.127-.912 2.037-2.037 2.037zm7.662-5.773c0 .22-.178.4-.394.4H8.7c-.217 0-.395-.174-.395-.392V126.02c0-.22.178-.395.395-.395h14.53c.217 0 .395.177.395.395v16.205zm0 0" fill="#206FAC"/><path d="M24.323 82H7.606c-1.46 0-2.647 1.183-2.647 2.646v22.008c0 1.46 1.18 2.647 2.64 2.647h16.72c1.46 0 2.643-1.18 2.643-2.64V84.65c0-1.463-1.184-2.646-2.644-2.646zm-8.36 25.994c-1.125 0-2.035-.91-2.035-2.037 0-1.125.91-2.037 2.035-2.037s2.037.912 2.037 2.037c0 1.127-.912 2.037-2.037 2.037zm7.662-5.773c0 .22-.178.4-.394.4H8.7c-.217 0-.395-.174-.395-.392v-16.21c0-.217.178-.393.395-.393h14.53c.217 0 .395.177.395.395v16.205zm0 0" fill="#fff"/><path d="M24.323 42H7.606c-1.46 0-2.647 1.183-2.647 2.646v22.008c0 1.46 1.18 2.647 2.64 2.647h16.72c1.46 0 2.643-1.18 2.643-2.64V44.65c0-1.463-1.184-2.646-2.644-2.646zm-8.36 25.994c-1.125 0-2.035-.91-2.035-2.037 0-1.125.91-2.037 2.035-2.037S18 64.832 18 65.957c0 1.127-.912 2.037-2.037 2.037zm7.662-5.773c0 .22-.178.4-.394.4H8.7c-.217 0-.395-.174-.395-.392v-16.21c0-.217.178-.393.395-.393h14.53c.217 0 .395.177.395.395v16.2zm0 0" fill="#67737B"/><path d="M24.323 2H7.606C6.146 2 4.96 3.183 4.96 4.646v22.008c0 1.46 1.185 2.647 2.646 2.647h16.717c1.46 0 2.644-1.18 2.644-2.64V4.65C26.967 3.18 25.783 2 24.323 2zm-8.36 25.994c-1.125 0-2.035-.91-2.035-2.037 0-1.125.91-2.037 2.035-2.037S18 24.832 18 25.957c0 1.127-.912 2.037-2.037 2.037zm7.662-5.773c0 .22-.178.4-.394.4H8.7c-.217 0-.395-.174-.395-.392V6.018c0-.22.178-.396.395-.396h14.53c.217 0 .395.177.395.395V22.22zm0 0" fill="#3A434E"/></g></svg>