<svg width="32" height="232" viewBox="0 0 32 232" xmlns="http://www.w3.org/2000/svg"><title>journey</title><g fill="none"><path d="M31.572 142.14l.428-1.434-1.84-.542.545-1.828-1.444-.422-.542 1.828-1.84-.54-.425 1.435 1.836.538-.542 1.83 1.44.422.544-1.828 1.84.54zM2.957 127.796l-.81-.485-.626 1.024-1.028-.622-.492.805 1.03.62-.626 1.025.808.487.625-1.026 1.032.624.49-.804-1.03-.622.627-1.027zm7.09 14.69c-.14-.257-.253-.526-.336-.803-.056-.186-.253-.293-.443-.237-.187.055-.295.253-.238.44.095.323.227.64.39.94l.046.08c.096.167.31.227.48.135l.005-.002c.173-.098.233-.314.136-.485l-.04-.068zm4.013 2.49c-.34-.044-.664-.11-.97-.192-.188-.053-.385.06-.438.247-.05.19.06.385.25.438.334.09.69.16 1.06.21.08.01.155-.004.22-.04.095-.052.165-.146.18-.264.028-.194-.11-.373-.302-.398zm12.174-3.115l-.922.45c-.178.085-.254.296-.168.473.084.176.297.25.473.167.31-.146.627-.3.937-.46l.01-.003c.17-.093.236-.302.148-.472-.087-.174-.302-.245-.478-.157zm-14.488 2.374c-.282-.16-.543-.352-.774-.562-.144-.132-.37-.12-.504.024-.132.145-.123.37.024.5.267.244.568.46.894.652.112.064.244.06.35.002l.14-.13c.094-.17.04-.387-.13-.485zm4.818.77c-.346.033-.686.05-1.01.056-.195.002-.35.163-.35.36.005.193.165.35.362.347.342-.007.697-.027 1.062-.058l.137-.043c.12-.067.197-.2.186-.345-.02-.194-.193-.338-.386-.318zm7.344-2.058c-.317.136-.637.266-.948.39-.183.075-.273.28-.2.46.072.182.28.272.464.2.317-.127.643-.26.965-.4l.028-.014c.162-.09.23-.283.157-.452-.077-.178-.286-.262-.467-.184zm-4.842 1.637c-.338.08-.674.15-.996.21-.193.037-.322.22-.285.414.035.192.22.318.414.283.335-.063.682-.136 1.03-.217l.088-.035c.137-.075.215-.234.176-.39-.043-.192-.237-.31-.428-.266zm2.453-.712c-.33.112-.657.217-.975.312-.188.058-.295.257-.237.443.055.187.254.293.443.236.328-.1.664-.206 1-.323l.054-.022c.15-.082.225-.26.166-.426-.062-.187-.265-.283-.45-.22zM10.204 127l-.672.005-.395.018c-.195.013-.345.18-.332.374.012.196.182.344.38.332l.362-.02h.645l.174-.044c.11-.06.185-.175.187-.304.002-.2-.154-.357-.35-.362zm1.812 7.834c-.222.234-.443.454-.654.664l-.067.07c-.14.138-.138.362.002.5.114.112.288.13.42.06l.084-.064.067-.067.663-.673c.135-.142.13-.365-.01-.5-.143-.135-.37-.13-.506.01zm-7.02-7.085l-.533.13-.474.113c-.19.045-.31.236-.266.426.045.19.237.308.43.266l.482-.118.528-.128.088-.033c.136-.077.212-.238.173-.397-.045-.188-.238-.307-.427-.26zm9.338 3.866c-.07.183.022.387.206.457.102.037.21.028.298-.02.072-.04.132-.102.162-.186.14-.363.232-.726.275-1.078.023-.195-.115-.37-.31-.395-.196-.024-.374.116-.397.31-.037.293-.115.6-.233.91zm-1.248 2.586c.118.094.274.102.4.037l.102-.09c.244-.294.453-.574.642-.85.11-.16.066-.382-.096-.49-.162-.11-.384-.066-.494.094-.178.26-.373.52-.603.8-.126.15-.103.374.047.498zm-3.332 3.924c.11.06.24.057.342.002.06-.03.108-.08.14-.14.143-.254.31-.51.495-.76l.043-.058c.12-.155.092-.38-.066-.497-.156-.118-.38-.09-.5.064l-.052.073c-.203.274-.385.555-.54.836-.1.17-.036.386.137.48zm-.066 1.208c.048-.19-.067-.384-.257-.433-.19-.047-.385.068-.433.256-.094.362-.15.728-.17 1.088-.008.194.142.36.34.37l.187-.042c.103-.06.18-.167.186-.295.013-.31.064-.63.146-.943zm3.173-11.975c-.32-.098-.678-.176-1.063-.236-.193-.03-.375.104-.406.298-.03.193.104.37.3.403.35.052.67.124.958.21.096.03.193.02.275-.026.08-.044.14-.115.17-.207.06-.188-.047-.387-.234-.445zm1.472 1.868l.073.145c.078.18.29.262.47.183l.026-.014c.162-.088.23-.283.156-.453l-.1-.2c-.15-.28-.353-.53-.603-.745-.148-.13-.373-.114-.502.033-.13.146-.115.37.033.5.186.16.336.347.447.55zm-6.777-2.015c-.322.053-.67.12-1.03.193-.194.04-.32.227-.278.42.037.19.226.312.42.274.353-.072.69-.134 1.005-.187l.114-.04c.128-.07.204-.214.178-.368-.03-.192-.216-.324-.41-.29zm0 0" fill="#206FAC"/><path d="M31.572 102.14l.428-1.434-1.84-.542.545-1.828-1.444-.422-.542 1.828-1.84-.54-.425 1.435 1.836.538-.542 1.83 1.44.422.544-1.828 1.84.54zM2.957 87.796l-.81-.485-.626 1.024-1.028-.622L0 88.52l1.03.62-.626 1.025.808.487.625-1.026 1.032.624.49-.804-1.03-.622.627-1.027zm7.09 14.69c-.14-.257-.253-.526-.336-.803-.056-.186-.253-.293-.443-.237-.187.055-.295.253-.238.44.095.323.227.64.39.94l.046.08c.096.167.31.227.48.135l.005-.002c.173-.098.233-.314.136-.485l-.04-.068zm4.013 2.49c-.34-.044-.664-.11-.97-.192-.188-.053-.385.06-.438.247-.05.19.06.385.25.438.334.09.69.16 1.06.21.08.01.155-.004.22-.04.095-.052.165-.146.18-.264.028-.194-.11-.373-.302-.398zm12.174-3.115l-.922.45c-.178.085-.254.296-.168.473.084.176.297.25.473.167.31-.146.627-.3.937-.46l.01-.003c.17-.093.236-.302.148-.472-.087-.174-.302-.245-.478-.157zm-14.488 2.374c-.282-.16-.543-.352-.774-.562-.144-.132-.37-.12-.504.024-.132.145-.123.37.024.5.267.244.568.46.894.652.112.064.244.06.35.002l.14-.13c.094-.17.04-.387-.13-.485zm4.818.77c-.346.033-.686.05-1.01.056-.195.002-.35.163-.35.36.005.193.165.35.362.347.342-.007.697-.027 1.062-.058l.137-.043c.12-.067.197-.2.186-.345-.02-.194-.193-.338-.386-.318zm7.344-2.058c-.317.136-.637.266-.948.39-.183.075-.273.28-.2.46.072.182.28.272.464.2.317-.127.643-.26.965-.4l.028-.014c.162-.09.23-.283.157-.452-.077-.178-.286-.262-.467-.184zm-4.842 1.637c-.338.08-.674.15-.996.21-.193.037-.322.22-.285.414.035.192.22.318.414.283.335-.063.682-.136 1.03-.217l.088-.035c.137-.075.215-.234.176-.39-.043-.192-.237-.31-.428-.266zm2.453-.712c-.33.112-.657.217-.975.312-.188.058-.295.257-.237.443.055.187.254.293.443.236.328-.1.664-.206 1-.323l.054-.022c.15-.082.225-.26.166-.426-.062-.187-.265-.283-.45-.22zM10.204 87l-.672.005-.395.018c-.195.013-.345.18-.332.374.012.196.182.344.38.332l.362-.02h.645l.174-.044c.11-.06.185-.175.187-.304.002-.2-.154-.357-.35-.362zm1.812 7.834c-.222.234-.443.454-.654.664l-.067.07c-.14.138-.138.362.002.5.114.112.288.13.42.06l.084-.064.067-.067.663-.673c.135-.142.13-.365-.01-.5-.143-.135-.37-.13-.506.01zm-7.02-7.085l-.533.13-.474.113c-.19.045-.31.236-.266.426.045.19.237.308.43.266l.482-.118.528-.128.088-.033c.136-.077.212-.238.173-.397-.045-.188-.238-.307-.427-.26zm9.338 3.866c-.07.183.022.387.206.457.102.037.21.028.298-.02.072-.04.132-.102.162-.186.14-.363.232-.726.275-1.078.023-.195-.115-.37-.31-.395-.196-.024-.374.116-.397.31-.037.293-.115.6-.233.91zm-1.248 2.586c.118.094.274.102.4.037l.102-.09c.244-.294.453-.574.642-.85.11-.16.066-.382-.096-.49-.162-.11-.384-.066-.494.094-.178.26-.373.52-.603.8-.126.15-.103.374.047.498zm-3.332 3.924c.11.06.24.057.342.002.06-.03.108-.08.14-.14.143-.254.31-.51.495-.76l.043-.058c.12-.155.092-.38-.066-.497-.156-.118-.38-.09-.5.064l-.052.073c-.203.274-.385.555-.54.836-.1.17-.036.386.137.48zm-.066 1.208c.048-.19-.067-.384-.257-.433-.19-.047-.385.068-.433.256-.094.362-.15.728-.17 1.088-.008.194.142.36.34.37l.187-.042c.103-.06.18-.167.186-.295.013-.31.064-.63.146-.943zm3.173-11.975c-.32-.098-.678-.176-1.063-.236-.193-.03-.375.104-.406.298-.03.193.104.37.3.403.35.052.67.124.958.21.096.03.193.02.275-.026.08-.044.14-.115.17-.207.06-.188-.047-.387-.234-.445zm1.472 1.868l.073.145c.078.18.29.262.47.183l.026-.014c.162-.088.23-.283.156-.453l-.1-.2c-.15-.28-.353-.53-.603-.745-.148-.13-.373-.114-.502.033-.13.146-.115.37.033.5.186.16.336.347.447.55zm-6.777-2.015c-.322.053-.67.12-1.03.193-.194.04-.32.227-.278.42.037.19.226.312.42.274.353-.072.69-.134 1.005-.187l.114-.04c.128-.07.204-.214.178-.368-.03-.192-.216-.324-.41-.29zm0 0" fill="#fff"/><path d="M31.572 62.14L32 60.705l-1.84-.542.545-1.828-1.444-.422-.542 1.828-1.84-.54-.425 1.435 1.836.538-.542 1.83 1.44.422.544-1.828 1.84.54zM2.957 47.796l-.81-.485-.626 1.024-1.028-.622L0 48.52l1.03.62-.626 1.025.808.487.625-1.026 1.032.624.49-.804-1.03-.622.627-1.027zm7.09 14.69c-.14-.257-.253-.526-.336-.803-.056-.186-.253-.293-.443-.237-.187.055-.295.253-.238.44.095.323.227.64.39.94l.046.08c.096.167.31.227.48.135l.005-.002c.173-.098.233-.314.136-.485l-.04-.068zm4.013 2.49c-.34-.044-.664-.11-.97-.192-.188-.053-.385.06-.438.247-.05.19.06.385.25.438.334.09.69.16 1.06.21.08.01.155-.004.22-.04.095-.052.165-.146.18-.264.028-.194-.11-.373-.302-.398zm12.174-3.115l-.922.45c-.178.085-.254.296-.168.473.084.176.297.25.473.167.31-.146.627-.3.937-.46l.01-.003c.17-.093.236-.302.148-.472-.087-.174-.302-.245-.478-.157zm-14.488 2.374c-.282-.16-.543-.352-.774-.562-.144-.132-.37-.12-.504.024-.132.145-.123.37.024.5.267.244.568.46.894.652.112.064.244.06.35.002l.14-.13c.094-.17.04-.387-.13-.485zm4.818.77c-.346.033-.686.05-1.01.056-.195.002-.35.163-.35.36.005.193.165.35.362.347.342-.007.697-.027 1.062-.058l.137-.043c.12-.067.197-.2.186-.345-.02-.194-.193-.338-.386-.318zm7.344-2.058c-.317.136-.637.266-.948.39-.183.075-.273.28-.2.46.072.182.28.272.464.2.317-.127.643-.26.965-.4l.028-.014c.162-.09.23-.283.157-.452-.077-.178-.286-.262-.467-.184zm-4.842 1.637c-.338.08-.674.15-.996.21-.193.037-.322.22-.285.414.035.192.22.318.414.283.335-.063.682-.136 1.03-.217l.088-.035c.137-.075.215-.234.176-.39-.043-.192-.237-.31-.428-.266zm2.453-.712c-.33.112-.657.217-.975.312-.188.058-.295.257-.237.443.055.187.254.293.443.236.328-.1.664-.206 1-.323l.054-.022c.15-.082.225-.26.166-.426-.062-.187-.265-.283-.45-.22zM10.204 47l-.672.005-.395.018c-.195.013-.345.18-.332.374.012.196.182.344.38.332l.362-.02h.645l.174-.044c.11-.06.185-.175.187-.304.002-.2-.154-.357-.35-.362zm1.812 7.834c-.222.234-.443.454-.654.664l-.067.07c-.14.138-.138.362.002.5.114.112.288.13.42.06l.084-.064.067-.067.663-.673c.135-.142.13-.365-.01-.5-.143-.135-.37-.13-.506.01zm-7.02-7.085l-.533.13-.474.113c-.19.045-.31.236-.266.426.045.19.237.308.43.266l.482-.118.528-.128.088-.033c.136-.077.212-.238.173-.397-.045-.188-.238-.307-.427-.26zm9.338 3.866c-.07.183.022.387.206.457.102.037.21.028.298-.02.072-.04.132-.102.162-.186.14-.363.232-.726.275-1.078.023-.195-.115-.37-.31-.395-.196-.024-.374.116-.397.31-.037.293-.115.6-.233.91zm-1.248 2.586c.118.094.274.102.4.037l.102-.09c.244-.294.453-.574.642-.85.11-.16.066-.382-.096-.49-.162-.11-.384-.066-.494.094-.178.26-.373.52-.603.8-.126.15-.103.374.047.498zm-3.332 3.924c.11.06.24.057.342.002.06-.03.108-.08.14-.14.143-.254.31-.51.495-.76l.043-.058c.12-.155.092-.38-.066-.497-.156-.118-.38-.09-.5.064l-.052.073c-.203.274-.385.555-.54.836-.1.17-.036.386.137.48zm-.066 1.208c.048-.19-.067-.384-.257-.433-.19-.047-.385.068-.433.256-.094.362-.15.728-.17 1.088-.008.194.142.36.34.37l.187-.042c.103-.06.18-.167.186-.295.013-.31.064-.63.146-.943zm3.173-11.975c-.32-.098-.678-.176-1.063-.236-.193-.03-.375.104-.406.298-.03.193.104.37.3.403.35.052.67.124.958.21.096.03.193.02.275-.026.08-.044.14-.115.17-.207.06-.188-.047-.387-.234-.445zm1.472 1.868l.073.145c.078.18.29.262.47.183l.026-.014c.162-.088.23-.283.156-.453l-.1-.2c-.15-.28-.353-.53-.603-.745-.148-.13-.373-.114-.502.033-.13.146-.115.37.033.5.186.16.336.347.447.55zm-6.777-2.015c-.322.053-.67.12-1.03.193-.194.04-.32.227-.278.42.037.19.226.312.42.274.353-.072.69-.134 1.005-.187l.114-.04c.128-.07.204-.214.178-.368-.03-.192-.216-.324-.41-.29zm0 0" fill="#67737B"/><path d="M31.572 22.14L32 20.705l-1.84-.542.545-1.828-1.444-.422-.542 1.828-1.84-.54-.425 1.435 1.836.538-.542 1.83 1.44.422.544-1.828 1.84.54zM2.957 7.796l-.81-.485-.626 1.024-1.028-.622L0 8.52l1.03.62-.626 1.025.808.487.625-1.026 1.032.624.49-.804-1.03-.622.627-1.027zm7.09 14.69c-.14-.257-.253-.526-.336-.803-.056-.186-.253-.293-.443-.237-.187.055-.295.253-.238.44.095.323.227.64.39.94l.046.08c.096.167.31.227.48.135l.005-.002c.173-.098.233-.314.136-.485l-.04-.068zm4.013 2.49c-.34-.044-.664-.11-.97-.192-.188-.053-.385.06-.438.247-.05.19.06.385.25.438.334.09.69.16 1.06.21.08.01.155-.004.22-.04.095-.052.165-.146.18-.264.028-.194-.11-.373-.302-.398zm12.174-3.115l-.922.45c-.178.085-.254.296-.168.473.084.176.297.25.473.167.31-.146.627-.3.937-.46l.01-.003c.17-.093.236-.302.148-.472-.087-.174-.302-.245-.478-.157zm-14.488 2.374c-.282-.16-.543-.352-.774-.562-.144-.132-.37-.12-.504.024-.132.145-.123.37.024.5.267.244.568.46.894.652.112.064.244.06.35.002l.14-.13c.094-.17.04-.387-.13-.485zm4.818.77c-.346.033-.686.05-1.01.056-.195.002-.35.163-.35.36.005.193.165.35.362.347.342-.007.697-.027 1.062-.058l.137-.043c.12-.067.197-.2.186-.345-.02-.194-.193-.338-.386-.318zm7.344-2.058c-.317.136-.637.266-.948.39-.183.075-.273.28-.2.46.072.182.28.272.464.2.317-.127.643-.26.965-.4l.028-.014c.162-.09.23-.283.157-.452-.077-.178-.286-.262-.467-.184zm-4.842 1.637c-.338.08-.674.15-.996.21-.193.037-.322.22-.285.414.035.192.22.318.414.283.335-.063.682-.136 1.03-.217l.088-.035c.137-.075.215-.234.176-.39-.043-.192-.237-.31-.428-.266zm2.453-.712c-.33.112-.657.217-.975.312-.188.058-.295.257-.237.443.055.187.254.293.443.236.328-.1.664-.206 1-.323l.054-.022c.15-.082.225-.26.166-.426-.062-.187-.265-.283-.45-.22zM10.204 7l-.672.005-.395.018c-.195.013-.345.18-.332.374.012.196.182.344.38.332l.362-.02h.645l.174-.044c.11-.06.185-.175.187-.304.002-.2-.154-.357-.35-.362zm1.812 7.834c-.222.234-.443.454-.654.664l-.067.07c-.14.138-.138.362.002.5.114.112.288.13.42.06l.084-.064.067-.067.663-.673c.135-.142.13-.365-.01-.5-.143-.135-.37-.13-.506.01zM4.997 7.75l-.533.13-.474.113c-.19.045-.31.236-.266.426.045.19.237.308.43.266l.482-.118.528-.128.088-.033c.136-.077.212-.238.173-.397-.045-.188-.238-.307-.427-.26zm9.338 3.866c-.07.183.022.387.206.457.102.037.21.028.298-.02.072-.04.132-.102.162-.186.14-.363.232-.726.275-1.078.023-.195-.115-.37-.31-.395-.196-.024-.374.116-.397.31-.037.293-.115.6-.233.91zm-1.248 2.586c.118.094.274.102.4.037l.102-.09c.244-.294.453-.574.642-.85.11-.16.066-.382-.096-.49-.162-.11-.384-.066-.494.094-.178.26-.373.52-.603.8-.126.15-.103.374.047.498zm-3.332 3.924c.11.06.24.057.342.002.06-.03.108-.08.14-.14.143-.254.31-.51.495-.76l.043-.058c.12-.155.092-.38-.066-.497-.156-.118-.38-.09-.5.064l-.052.073c-.203.274-.385.555-.54.836-.1.17-.036.386.137.48zm-.066 1.208c.048-.19-.067-.384-.257-.433-.19-.047-.385.068-.433.256-.094.362-.15.728-.17 1.088-.008.194.142.36.34.37l.187-.042c.103-.06.18-.167.186-.295.013-.31.064-.63.146-.943zM12.862 7.36c-.32-.098-.678-.176-1.063-.236-.193-.03-.375.104-.406.298-.03.193.104.37.3.403.35.052.67.124.958.21.096.03.193.02.275-.026.08-.044.14-.115.17-.207.06-.188-.047-.387-.234-.445zm1.472 1.868l.073.145c.078.18.29.262.47.183l.026-.014c.162-.088.23-.283.156-.453l-.1-.2c-.15-.28-.353-.53-.603-.745-.148-.13-.373-.114-.502.033-.13.146-.115.37.033.5.186.16.336.347.447.55zM7.558 7.213c-.322.053-.67.12-1.03.193-.194.04-.32.227-.278.42.037.19.226.312.42.274.353-.072.69-.134 1.005-.187l.114-.04c.128-.07.204-.214.178-.368-.03-.192-.216-.324-.41-.29zm0 0" fill="#3A434E"/></g></svg>