<svg width="32" height="232" viewBox="0 0 32 232" xmlns="http://www.w3.org/2000/svg"><title>lightbulb</title><g fill="none"><path d="M21.662 138.846h.007s-.818.942-1.33 2.392c-.424 1.195-.468 2.844-.468 2.844h-.006c0 2.163-1.73 3.918-3.865 3.918-2.134 0-3.865-1.755-3.865-3.918 0 0-.086-1.632-.468-2.844-.446-1.42-1.328-2.392-1.328-2.392-1.446-1.468-2.34-3.494-2.34-5.733 0-4.48 3.58-8.112 8.002-8.112 4.42 0 8 3.634 8 8.113 0 2.24-.895 4.265-2.34 5.733zm-7.05 6.975h2.774c.272 0 .494-.22.494-.498 0-.274-.222-.496-.494-.496h-2.773c-.27 0-.492.223-.492.496 0 .278.223.5.493.5zm-.56-2.374h3.894c.272 0 .494-.225.494-.5 0-.273-.222-.495-.494-.495h-3.893c-.272 0-.492.224-.492.496 0 .276.22.5.493.5zm4.09-7.567c-.237.19-.915.533-1.42.533l-.167-.014c.396-.448.95-1.063.87-1.983-.086-.793-.734-1.296-1.6-1.296-.726 0-1.533.485-1.58 1.34-.04.793.337 1.254.59 1.568l.224.288h-.08c-.6 0-1.194-.27-1.2-.272l-.903-.424 1.27 4.814h.017l-.01.043c0 .263.21.478.47.478.265 0 .476-.214.476-.478l-.01-.043h.016l-.877-3.328c.56.12 1.074.11 1.503-.027.098.07.197.148.315.18.498.125 1.09.166 1.763-.142l-.6 3.316h.005l-.004.026c0 .263.212.48.472.48.262 0 .475-.216.475-.48l-.006-.016.007-.01.967-5.355-.98.797zm-2.343.03c-.325-.258-.593-.59-.683-1.018-.06-.277.016-.544.215-.74.093-.09.328-.175.547-.168.47.015.708.368.687.708-.015.377-.395.923-.77 1.216zm0 0" fill="#206FAC"/><path d="M21.662 98.846h.007s-.818.942-1.33 2.392c-.424 1.195-.468 2.844-.468 2.844h-.006c0 2.163-1.73 3.918-3.865 3.918-2.134 0-3.865-1.755-3.865-3.918 0 0-.086-1.632-.468-2.844-.446-1.42-1.328-2.392-1.328-2.392C8.893 97.378 8 95.352 8 93.113 8 88.633 11.58 85 16.003 85c4.42 0 8 3.634 8 8.113 0 2.24-.895 4.265-2.34 5.733zm-7.05 6.975h2.774c.272 0 .494-.22.494-.498 0-.274-.222-.496-.494-.496h-2.773c-.27 0-.492.223-.492.496 0 .278.223.5.493.5zm-.56-2.374h3.894c.272 0 .494-.225.494-.5 0-.274-.222-.496-.494-.496h-3.893c-.272 0-.492.223-.492.495 0 .276.22.5.493.5zm4.09-7.567c-.237.19-.915.533-1.42.533l-.167-.014c.396-.448.95-1.063.87-1.983-.086-.793-.734-1.296-1.6-1.296-.726 0-1.533.485-1.58 1.34-.04.793.337 1.254.59 1.568l.224.288h-.08c-.6 0-1.194-.27-1.2-.272l-.903-.424 1.27 4.814h.017l-.01.043c0 .263.21.478.47.478.265 0 .476-.214.476-.478l-.01-.043h.016l-.877-3.328c.56.12 1.074.11 1.503-.027.098.07.197.148.315.18.498.125 1.09.166 1.763-.142l-.6 3.316h.005l-.004.026c0 .263.212.48.472.48.262 0 .475-.216.475-.48l-.006-.016.007-.01.967-5.355-.98.797zm-2.343.03c-.325-.258-.593-.59-.683-1.018-.06-.277.016-.544.215-.74.093-.09.328-.175.547-.168.47.015.708.368.687.708-.015.377-.395.923-.77 1.216zm0 0" fill="#fff"/><path d="M21.662 58.846h.007s-.818.942-1.33 2.392c-.424 1.195-.468 2.844-.468 2.844h-.006C19.866 66.245 18.136 68 16 68c-2.134 0-3.865-1.755-3.865-3.918 0 0-.086-1.632-.468-2.844-.446-1.42-1.328-2.392-1.328-2.392C8.893 57.378 8 55.352 8 53.113 8 48.633 11.58 45 16.003 45c4.42 0 8 3.634 8 8.113 0 2.24-.895 4.265-2.34 5.733zm-7.05 6.975h2.774c.272 0 .494-.22.494-.498 0-.274-.222-.496-.494-.496h-2.773c-.27 0-.492.223-.492.496 0 .278.223.5.493.5zm-.56-2.374h3.894c.272 0 .494-.225.494-.5 0-.273-.222-.495-.494-.495h-3.893c-.272 0-.492.224-.492.496 0 .276.22.5.493.5zm4.09-7.567c-.237.19-.915.533-1.42.533l-.167-.014c.396-.448.95-1.063.87-1.983-.086-.793-.734-1.296-1.6-1.296-.726 0-1.533.485-1.58 1.34-.04.793.337 1.254.59 1.568l.224.288h-.08c-.6 0-1.194-.27-1.2-.272l-.903-.424 1.27 4.814h.017l-.01.043c0 .263.21.478.47.478.265 0 .476-.214.476-.478l-.01-.043h.016l-.877-3.328c.56.12 1.074.11 1.503-.027.098.07.197.148.315.18.498.125 1.09.166 1.763-.142l-.6 3.316h.005l-.004.026c0 .263.212.48.472.48.262 0 .475-.216.475-.48l-.006-.016.007-.01.967-5.355-.98.797zm-2.343.03c-.325-.258-.593-.59-.683-1.018-.06-.277.016-.544.215-.74.093-.09.328-.175.547-.168.47.015.708.368.687.708-.015.377-.395.923-.77 1.216zm0 0" fill="#67737B"/><path d="M21.662 18.846h.007s-.818.942-1.33 2.392c-.424 1.195-.468 2.844-.468 2.844h-.006C19.866 26.245 18.136 28 16 28c-2.134 0-3.865-1.755-3.865-3.918 0 0-.086-1.632-.468-2.844-.446-1.42-1.328-2.392-1.328-2.392C8.893 17.378 8 15.352 8 13.113 8 8.633 11.58 5 16.003 5c4.42 0 8 3.634 8 8.113 0 2.24-.895 4.265-2.34 5.733zm-7.05 6.975h2.774c.272 0 .494-.22.494-.498 0-.274-.222-.496-.494-.496h-2.773c-.27 0-.492.223-.492.496 0 .278.223.5.493.5zm-.56-2.374h3.894c.272 0 .494-.225.494-.5 0-.273-.222-.495-.494-.495h-3.893c-.272 0-.492.224-.492.496 0 .276.22.5.493.5zm4.09-7.567c-.237.19-.915.533-1.42.533l-.167-.014c.396-.448.95-1.063.87-1.983-.086-.793-.734-1.296-1.6-1.296-.726 0-1.533.485-1.58 1.34-.04.793.337 1.254.59 1.568l.224.288h-.08c-.6 0-1.194-.27-1.2-.272l-.903-.424 1.27 4.814h.017l-.01.043c0 .263.21.478.47.478.265 0 .476-.214.476-.478l-.01-.043h.016l-.877-3.328c.56.12 1.074.11 1.503-.027.098.07.197.148.315.18.498.125 1.09.166 1.763-.142l-.6 3.316h.005l-.004.026c0 .263.212.48.472.48.262 0 .475-.216.475-.48l-.006-.016.007-.01.967-5.355-.98.797zm-2.343.03c-.325-.258-.593-.59-.683-1.018-.06-.277.016-.544.215-.74.093-.09.328-.175.547-.168.47.015.708.368.687.708-.015.377-.395.923-.77 1.216zm0 0" fill="#3A434E"/></g></svg>