<svg width="32" height="232" viewBox="0 0 32 232" xmlns="http://www.w3.org/2000/svg"><title>lightbulb--line</title><g fill="none"><path d="M16 124.03c-4.972 0-9 3.95-9 8.818 0 2.434 1.007 4.637 2.632 6.23 0 0 .99 1.06 1.495 2.6.43 1.317.527 3.093.527 3.093 0 2.35 1.944 4.257 4.345 4.26 2.4-.003 4.344-1.91 4.344-4.26 0 0 .096-1.775.527-3.09.505-1.542 1.496-2.6 1.496-2.6C23.99 137.484 25 135.28 25 132.847c0-4.87-4.03-8.817-9-8.82zm1.56 22.63h-3.12c-.305 0-.554-.24-.554-.54 0-.3.25-.54.554-.54h3.12c.303 0 .552.24.552.54 0 .3-.25.54-.552.54zm.63-2.582h-4.383c-.302 0-.55-.243-.55-.543 0-.296.248-.54.55-.54h4.384c.303 0 .552.244.552.54 0 .3-.25.543-.55.543zm-4.4-6.89c.63.13 1.21.12 1.693-.03.11.077.22.164.355.198.56.136 1.226.18 1.982-.155l-.674 3.608h-2.37l-.986-3.62zm1.003-2.405c-.067-.303.016-.594.24-.806.103-.098.37-.19.62-.182.527.016.793.4.774.77-.022.41-.447 1.002-.868 1.322-.365-.28-.667-.643-.767-1.104zm6.758 3.5c-.07.076-.976 1.06-1.577 2.525H18.21l1.09-5.823-1.105.866c-.266.21-1.03.583-1.6.583l-.19-.015c.45-.486 1.072-1.153.98-2.152-.093-.864-.82-1.41-1.794-1.41-.82 0-1.73.525-1.78 1.454-.046.865.377 1.366.662 1.707l.253.31-.092.002c-.672 0-1.342-.293-1.342-.293l-1.02-.463 1.425 5.234h-1.67c-.6-1.465-1.504-2.45-1.575-2.526-1.482-1.453-2.297-3.382-2.297-5.434 0-4.238 3.52-7.688 7.846-7.69 4.328.002 7.847 3.452 7.847 7.69 0 2.052-.815 3.98-2.297 5.434zm0 0" fill="#206FAC"/><path d="M16 84.03c-4.972 0-9 3.95-9 8.818 0 2.434 1.007 4.637 2.632 6.23 0 0 .99 1.06 1.495 2.6.43 1.317.527 3.093.527 3.093 0 2.35 1.944 4.257 4.345 4.26 2.4-.003 4.344-1.91 4.344-4.26 0 0 .096-1.775.527-3.09.505-1.542 1.496-2.6 1.496-2.6C23.99 97.484 25 95.28 25 92.847c0-4.87-4.03-8.817-9-8.82zm1.56 22.63h-3.12c-.305 0-.554-.24-.554-.54 0-.3.25-.54.554-.54h3.12c.303 0 .552.24.552.54 0 .3-.25.54-.552.54zm.63-2.582h-4.383c-.302 0-.55-.243-.55-.543 0-.296.248-.54.55-.54h4.384c.303 0 .552.244.552.54 0 .3-.25.543-.55.543zm-4.4-6.89c.63.13 1.21.12 1.693-.03.11.077.22.164.355.198.56.136 1.226.18 1.982-.155l-.674 3.608h-2.37l-.986-3.62zm1.003-2.405c-.067-.303.016-.594.24-.806.103-.098.37-.19.62-.182.527.016.793.4.774.77-.022.41-.447 1.002-.868 1.322-.365-.28-.667-.643-.767-1.104zm6.758 3.5c-.07.076-.976 1.06-1.577 2.525H18.21l1.09-5.823-1.105.866c-.266.21-1.03.583-1.6.583l-.19-.015c.45-.486 1.072-1.153.98-2.152-.093-.864-.82-1.41-1.794-1.41-.82 0-1.73.525-1.78 1.454-.046.865.377 1.366.662 1.707l.253.31-.092.002c-.672 0-1.342-.293-1.342-.293l-1.02-.463 1.425 5.234h-1.67c-.6-1.465-1.504-2.45-1.575-2.526-1.482-1.453-2.297-3.382-2.297-5.434 0-4.238 3.52-7.688 7.846-7.69 4.328.002 7.847 3.452 7.847 7.69 0 2.052-.815 3.98-2.297 5.434zm0 0" fill="#fff"/><path d="M16 44.03c-4.972 0-9 3.95-9 8.818 0 2.434 1.007 4.637 2.632 6.23 0 0 .99 1.06 1.495 2.6.43 1.317.527 3.093.527 3.093 0 2.35 1.944 4.257 4.345 4.26 2.4-.003 4.344-1.91 4.344-4.26 0 0 .096-1.775.527-3.09.505-1.542 1.496-2.6 1.496-2.6C23.99 57.484 25 55.28 25 52.847c0-4.87-4.03-8.817-9-8.82zm1.56 22.63h-3.12c-.305 0-.554-.24-.554-.54 0-.3.25-.54.554-.54h3.12c.303 0 .552.24.552.54 0 .3-.25.54-.552.54zm.63-2.582h-4.383c-.302 0-.55-.243-.55-.543 0-.296.248-.54.55-.54h4.384c.303 0 .552.244.552.54 0 .3-.25.543-.55.543zm-4.4-6.89c.63.13 1.21.12 1.693-.03.11.077.22.164.355.198.56.136 1.226.18 1.982-.155l-.674 3.608h-2.37l-.986-3.62zm1.003-2.405c-.067-.303.016-.594.24-.806.103-.098.37-.19.62-.182.527.016.793.4.774.77-.022.41-.447 1.002-.868 1.322-.365-.28-.667-.643-.767-1.104zm6.758 3.5c-.07.076-.976 1.06-1.577 2.525H18.21l1.09-5.823-1.105.866c-.266.21-1.03.583-1.6.583l-.19-.015c.45-.486 1.072-1.153.98-2.152-.093-.864-.82-1.41-1.794-1.41-.82 0-1.73.525-1.78 1.454-.046.865.377 1.366.662 1.707l.253.31-.092.002c-.672 0-1.342-.293-1.342-.293l-1.02-.463 1.425 5.234h-1.67c-.6-1.465-1.504-2.45-1.575-2.526-1.482-1.453-2.297-3.382-2.297-5.434 0-4.238 3.52-7.688 7.846-7.69 4.328.002 7.847 3.452 7.847 7.69 0 2.052-.815 3.98-2.297 5.434zm0 0" fill="#67737B"/><path d="M16 4.03c-4.972 0-9 3.95-9 8.818 0 2.434 1.007 4.637 2.632 6.23 0 0 .99 1.06 1.495 2.6.43 1.317.527 3.093.527 3.093 0 2.35 1.944 4.257 4.345 4.26 2.4-.003 4.344-1.91 4.344-4.26 0 0 .096-1.775.527-3.09.505-1.542 1.496-2.6 1.496-2.6C23.99 17.484 25 15.28 25 12.847c0-4.87-4.03-8.817-9-8.82zm1.56 22.63h-3.12c-.305 0-.554-.24-.554-.54 0-.3.25-.54.554-.54h3.12c.303 0 .552.24.552.54 0 .3-.25.54-.552.54zm.63-2.582h-4.383c-.302 0-.55-.243-.55-.543 0-.296.248-.54.55-.54h4.384c.303 0 .552.244.552.54 0 .3-.25.543-.55.543zm-4.4-6.89c.63.13 1.21.12 1.693-.03.11.077.22.164.355.198.56.136 1.226.18 1.982-.155l-.674 3.608h-2.37l-.986-3.62zm1.003-2.405c-.067-.303.016-.594.24-.806.103-.098.37-.19.62-.182.527.016.793.4.774.77-.022.41-.447 1.002-.868 1.322-.365-.28-.667-.643-.767-1.104zm6.758 3.5c-.07.076-.976 1.06-1.577 2.525H18.21l1.09-5.823-1.105.866c-.266.21-1.03.583-1.6.583l-.19-.015c.45-.486 1.072-1.153.98-2.152-.093-.864-.82-1.41-1.794-1.41-.82 0-1.73.525-1.78 1.454-.046.865.377 1.366.662 1.707l.253.31-.092.002c-.672 0-1.342-.293-1.342-.293l-1.02-.463 1.425 5.234h-1.67c-.6-1.465-1.504-2.45-1.575-2.526-1.482-1.453-2.297-3.382-2.297-5.434 0-4.238 3.52-7.688 7.846-7.69 4.328.002 7.847 3.452 7.847 7.69 0 2.052-.815 3.98-2.297 5.434zm0 0" fill="#3A434E"/></g></svg>