<svg width="32" height="232" viewBox="0 0 32 232" xmlns="http://www.w3.org/2000/svg"><g fill="none"><path d="M17.384 6.936c-.163-.235-.432-.375-.714-.38h-.03c-.277 0-.54.133-.71.358L5.842 20.364c-.287-.315-.805-.392-1.178-.137l-2.277 1.625c-.196.132-.33.33-.372.563-.043.23.006.463.14.66l2.83 4.043c.134.192.34.328.574.367l.16.015c.18 0 .354-.052.51-.16l2.275-1.623c.196-.132.328-.334.37-.564.038-.195.007-.394-.083-.565l2.704-.74.633 2.248c.11.372.46.636.856.636l.247-.035 6.742-1.884c.472-.132.747-.62.613-1.084l-.62-2.208 5.18-1.417c.28-.077.503-.28.6-.548.1-.27.06-.565-.104-.8L17.386 6.94zm-11.44 18.45L4.126 22.79l.825-.61 1.82 2.597-.823.612zm7.664-.625l-.39-1.383 5.032-1.383.383 1.372-5.025 1.4zm-6.104-1.64l-.73-1.04 9.85-13.128 6.85 9.793-15.97 4.374zM20.828 8.88c.164 0 .328-.075.438-.213l2.606-3.29c.186-.238.14-.578-.1-.762-.242-.18-.59-.137-.774.1L20.39 8c-.185.24-.14.578.104.762.098.077.218.114.334.114zm9.15 4.86c-.086-.29-.394-.455-.684-.37l-4.074 1.14c-.292.084-.46.388-.376.677.035.12.11.22.203.287.134.096.31.13.482.08l4.07-1.144c.292-.087.46-.387.374-.674zm-7.122-1.91c.073.098.175.17.286.204.156.05.335.03.48-.066l3.513-2.338c.25-.17.313-.507.143-.757-.172-.244-.518-.307-.768-.14L23 11.067c-.252.17-.314.51-.144.76zm0 0" fill="#3A434E"/><path d="M17.386 46.936c-.163-.235-.432-.375-.714-.38h-.03c-.277 0-.54.133-.71.358L5.844 60.364c-.287-.315-.805-.392-1.178-.137L2.39 61.852c-.197.132-.33.33-.373.563-.043.23.006.463.14.66l2.83 4.043c.134.192.34.328.574.367l.165.015c.18 0 .357-.052.51-.16l2.278-1.623c.197-.132.33-.334.37-.564.04-.195.008-.394-.082-.565l2.705-.74.635 2.248c.11.372.46.636.855.636l.25-.035 6.74-1.884c.474-.132.75-.62.615-1.084l-.62-2.208 5.18-1.417c.28-.077.505-.28.6-.548.1-.27.06-.565-.102-.8l-8.268-11.82zm-11.44 18.45L4.128 62.79l.825-.61 1.817 2.597-.824.612zm7.664-.625l-.39-1.383 5.032-1.383.383 1.372-5.025 1.4zm-6.104-1.64l-.73-1.04 9.85-13.128 6.85 9.793-15.97 4.374zM20.83 48.88c.164 0 .328-.075.438-.213l2.606-3.29c.186-.238.14-.578-.1-.762-.242-.18-.59-.137-.774.1L20.393 48c-.186.24-.14.578.103.762.098.077.218.114.334.114zm9.15 4.86c-.086-.29-.394-.455-.684-.37l-4.076 1.14c-.29.084-.458.388-.374.677.035.12.11.22.203.287.13.096.31.13.48.08l4.073-1.144c.292-.087.46-.387.374-.674zm-7.122-1.91c.073.098.175.17.286.204.156.05.335.03.48-.066l3.513-2.338c.25-.17.313-.507.143-.757-.172-.244-.518-.307-.768-.14l-3.51 2.338c-.252.17-.314.51-.144.76zm0 0" fill="#67737B"/><path d="M17.386 86.936c-.163-.235-.432-.375-.714-.38h-.03c-.277 0-.54.133-.71.358l-10.088 13.45c-.287-.315-.805-.392-1.178-.137l-2.277 1.625c-.2.132-.33.33-.376.563-.043.23.006.463.14.66l2.83 4.043c.134.192.34.328.574.367l.16.015c.18 0 .358-.052.51-.16l2.28-1.623c.195-.132.327-.334.37-.564.037-.195.006-.394-.084-.565l2.704-.74.636 2.248c.11.372.46.636.856.636l.25-.035 6.74-1.884c.474-.132.75-.62.615-1.084l-.62-2.208 5.18-1.417c.28-.077.505-.28.6-.548.1-.27.06-.565-.102-.8l-8.267-11.823zm-11.44 18.45l-1.818-2.598.825-.61 1.817 2.597-.824.612zm7.664-.625l-.39-1.383 5.032-1.383.383 1.372-5.025 1.4zm-6.104-1.64l-.73-1.04 9.85-13.13 6.85 9.794-15.97 4.374zM20.83 88.88c.164 0 .328-.076.438-.214l2.606-3.29c.186-.238.14-.578-.1-.762-.242-.18-.59-.137-.774.1L20.393 88c-.186.24-.14.578.103.762.098.077.218.114.334.114zm9.15 4.86c-.086-.29-.394-.456-.684-.37l-4.076 1.14c-.29.084-.458.388-.374.677.035.12.11.22.203.287.13.096.31.13.48.08l4.073-1.144c.292-.087.46-.387.374-.674zm-7.122-1.91c.073.097.175.17.286.203.156.05.335.03.48-.066l3.513-2.338c.25-.17.313-.508.143-.758-.172-.244-.518-.307-.768-.14l-3.51 2.338c-.252.17-.314.51-.144.76zm0 0" fill="#fff"/><path d="M17.386 126.936c-.163-.235-.432-.375-.714-.38h-.03c-.277 0-.54.133-.71.358l-10.088 13.45c-.287-.315-.805-.392-1.178-.137l-2.277 1.625c-.2.132-.33.33-.376.563-.043.23.006.463.14.66l2.83 4.043c.134.192.34.328.574.367l.16.015c.18 0 .358-.052.51-.16l2.28-1.623c.195-.132.327-.334.37-.564.037-.195.006-.394-.084-.565l2.704-.74.636 2.248c.11.372.46.636.856.636l.25-.035 6.74-1.884c.474-.132.75-.62.615-1.084l-.62-2.208 5.18-1.417c.28-.077.505-.28.6-.548.1-.27.06-.565-.102-.8l-8.267-11.823zm-11.44 18.45l-1.818-2.598.825-.61 1.817 2.597-.824.612zm7.664-.625l-.39-1.383 5.032-1.383.383 1.372-5.025 1.4zm-6.104-1.64l-.73-1.04 9.85-13.13 6.85 9.794-15.97 4.374zm13.324-14.24c.164 0 .328-.076.438-.214l2.606-3.29c.186-.238.14-.578-.1-.762-.242-.18-.59-.137-.774.1L20.393 128c-.186.24-.14.578.103.762.098.077.218.114.334.114zm9.15 4.86c-.086-.29-.394-.456-.684-.37l-4.075 1.144c-.29.084-.455.388-.37.677.034.12.11.22.202.287.134.096.31.13.48.08l4.077-1.144c.29-.087.46-.387.373-.674zm-7.122-1.91c.073.097.175.17.286.203.156.05.335.03.48-.066l3.513-2.338c.25-.17.313-.508.143-.758-.172-.244-.518-.307-.768-.14l-3.51 2.338c-.252.17-.314.51-.144.76zm0 0" fill="#206FAC"/></g></svg>