<svg width="82" height="289" viewBox="0 0 82 289" xmlns="http://www.w3.org/2000/svg"><g fill="none"><path d="M79.61 27.58v-1.535h.45l.545 1.087.11.228.124-.248.55-1.068h.395v1.535h-.294v-1.29l-.67 1.28h-.27l-.65-1.3v1.305h-.29zm-1.366 0v-1.353h-.754v-.182h1.815v.182h-.754v1.353h-.3zM40.792 38.7c-7.804 0-14.422-4.913-16.883-11.89l-1.03.352-1.02.354C24.55 35.414 32 41 40.79 41c8.746 0 16.21-5.645 18.94-13.45l-2.036-.77C55.22 33.71 48.57 38.7 40.79 38.7zM26.878 22.562l-2.456-.45c-1.244.952-2.662.54-3.112-.88h6.137v3.907h2.815v-1.85c.353 2 2.926 2.67 4.315 1.18 0 .44-.05.953-.184 1.373-.445 1.08-1.935 1.08-2.706.355l-1.75 2.283c1.116.89 2.247 1.32 3.69 1.18 1.188-.12 2-.33 2.908-1.154.69-.778 1.116-1.587 1.116-2.63v-9.62h-3.16v5.325c0 1.065-1.405 1.065-1.405 0v-5.32H30.27v-3.555h-2.82v6.314c-1.055-2.07-2.84-3.13-5.105-2.81-1.624.365-2.82 1.272-3.445 2.802-.565-1.815-1.91-2.778-3.763-2.876-1.96 0-3.432.97-4.024 2.875-.99-2.2-2.996-3.262-5.356-2.72-1.417.45-2.237 1.2-2.942 2.53V12.7H0v12.44h2.814v-2.692c1.056 1.706 2.354 2.647 4.24 2.686 2.008-.12 3.15-1.082 4.206-2.878v2.883h2.817v-5.33c0-1.07 1.76-1.07 1.76 0v5.33H19v-2.71c.353 1.47 1.623 2.36 3.18 2.76 3.404.326 4.68-2.04 4.697-2.634zm-20-.05C5.84 22.512 5 21.657 5 20.61c0-1.042.84-1.896 1.88-1.896 1.036 0 1.878.854 1.878 1.897 0 1.05-.84 1.91-1.878 1.91zm18.016-2.343h-3.65c.565-1.78 3.062-1.78 3.65 0zm56.996 1.56l-.133.11c-.528.434-1.31.237-1.584-.36-.283-.853-.136-1.676-.136-2.742h1.954v-2.48h-2.11v-1.78h-2.81v4.54c-.35-1.257-1.242-1.98-2.47-2.55-2.46-.88-4.784.157-5.866 2.548-.428-1.26-1.06-2.03-2.257-2.6-2.376-.84-4.66.157-5.485 2.594-.654-1.53-1.58-2.335-3.204-2.787-2.19-.366-3.94.597-4.996 2.594V12.7h-3.17v6.122c-.35-.75-.727-1.284-1.37-1.815-3.043-2.228-7.077-.008-7.077 3.74v7.94h3.04c0-.71-.092-3.907-.092-3.907l.248.138c2.215.57 4.55-.56 5.255-2.31v2.528h3.168V22.61c.703 1.833 2.472 2.887 4.495 2.74.935.06 1.71-2.367 1.713-1.673l-.004 1.815h1.986l2.72-.19V19.8c0-1.144 1.943-1.327 2.04-.155.023 1.8.1 3.718.1 5.494h2.787v-2.71c.703 1.23 1.32 1.94 2.51 2.53 2.353.77 4.84.39 5.76-2.5l-2.468-.49c-.57.864-2.59 1.033-3.236-.744h5.984c0 1.42.027 2.576 1.3 3.51 1.272.937 3.557.076 3.53-.53l-.11-2.48zm-36.052.83c-1.035 0-1.88-.86-1.88-1.9s.845-1.9 1.88-1.9 1.88.86 1.88 1.9-.845 1.9-1.88 1.9zm10.967 0c-1.036 0-1.878-.86-1.878-1.9s.84-1.9 1.878-1.9c1.035 0 1.88.86 1.88 1.9s-.845 1.9-1.88 1.9zm14.36-2.397c.49-1.78 3.03-1.78 3.598 0h-3.598zm-30.36-17.82c7.802 0 14.424 5 16.885 12.107l1.027-.357 1.02-.362C57.05 5.69 49.595 0 40.8 0c-8.745 0-16.212 5.75-18.94 13.7l2.038.783c2.477-7.06 9.128-12.138 16.907-12.138zm0 0" fill="#3A434E"/><path d="M79.61 76.58v-1.535h.45l.545 1.087.11.228.124-.248.55-1.068h.395v1.535h-.294v-1.29l-.67 1.28h-.27l-.65-1.3v1.305h-.29zm-1.366 0v-1.353h-.754v-.182h1.815v.182h-.754v1.353h-.3zM40.792 87.7c-7.804 0-14.422-4.913-16.883-11.89l-1.03.352-1.02.354C24.55 84.414 32 90 40.79 90c8.746 0 16.21-5.645 18.94-13.45l-2.036-.77C55.22 82.71 48.57 87.7 40.79 87.7zM26.878 71.562l-2.456-.45c-1.244.952-2.662.54-3.112-.88h6.137v3.907h2.815v-1.85c.353 2 2.926 2.67 4.315 1.18 0 .44-.05.953-.184 1.373-.445 1.08-1.935 1.08-2.706.355l-1.75 2.283c1.116.89 2.247 1.32 3.69 1.18 1.188-.12 2-.33 2.908-1.154.69-.778 1.116-1.587 1.116-2.63v-9.62h-3.16v5.325c0 1.065-1.405 1.065-1.405 0v-5.32H30.27v-3.555h-2.82v6.314c-1.055-2.07-2.84-3.13-5.105-2.81-1.624.365-2.82 1.272-3.445 2.802-.565-1.815-1.91-2.778-3.763-2.876-1.96 0-3.432.97-4.024 2.875-.99-2.2-2.996-3.262-5.356-2.72-1.417.45-2.237 1.2-2.942 2.53V61.7H0v12.44h2.814v-2.692c1.056 1.706 2.354 2.647 4.24 2.686 2.008-.12 3.15-1.082 4.206-2.878v2.883h2.817v-5.33c0-1.07 1.76-1.07 1.76 0v5.33H19v-2.71c.353 1.47 1.623 2.36 3.18 2.76 3.404.326 4.68-2.04 4.697-2.634zm-20-.05C5.84 71.512 5 70.657 5 69.61c0-1.042.84-1.896 1.88-1.896 1.036 0 1.878.854 1.878 1.897 0 1.05-.84 1.91-1.878 1.91zm18.016-2.343h-3.65c.565-1.78 3.062-1.78 3.65 0zm56.996 1.56l-.133.11c-.528.434-1.31.237-1.584-.36-.283-.853-.136-1.676-.136-2.742h1.954v-2.48h-2.11v-1.78h-2.81v4.54c-.35-1.257-1.242-1.98-2.47-2.55-2.46-.88-4.784.157-5.866 2.548-.428-1.26-1.06-2.03-2.257-2.6-2.376-.84-4.66.157-5.485 2.594-.654-1.53-1.58-2.335-3.204-2.787-2.19-.366-3.94.597-4.996 2.594V61.7h-3.17v6.122c-.35-.75-.727-1.284-1.37-1.815-3.043-2.228-7.077-.008-7.077 3.74v7.94h3.04c0-.71-.092-3.907-.092-3.907l.248.138c2.215.57 4.55-.56 5.255-2.31v2.528h3.168V71.61c.703 1.833 2.472 2.887 4.495 2.74.935.06 1.71-2.367 1.713-1.673l-.004 1.815h1.986l2.72-.19V68.8c0-1.144 1.943-1.327 2.04-.155.023 1.8.1 3.718.1 5.494h2.787v-2.71c.703 1.23 1.32 1.94 2.51 2.53 2.353.77 4.84.39 5.76-2.5l-2.468-.49c-.57.864-2.59 1.033-3.236-.744h5.984c0 1.42.027 2.576 1.3 3.51 1.272.937 3.557.076 3.53-.53l-.11-2.48zm-36.052.83c-1.035 0-1.88-.86-1.88-1.9s.845-1.9 1.88-1.9 1.88.86 1.88 1.9-.845 1.9-1.88 1.9zm10.967 0c-1.036 0-1.878-.86-1.878-1.9s.84-1.9 1.878-1.9c1.035 0 1.88.86 1.88 1.9s-.845 1.9-1.88 1.9zm14.36-2.397c.49-1.78 3.03-1.78 3.598 0h-3.598zM40.805 51.34c7.802 0 14.424 5 16.885 12.11l1.027-.36 1.02-.36C57.05 54.69 49.595 49 40.8 49c-8.745 0-16.212 5.75-18.94 13.7l2.038.783c2.477-7.06 9.128-12.138 16.907-12.138zm0 0" fill="#67737B"/><path d="M79.61 125.58v-1.535h.45l.545 1.087.11.228.124-.248.55-1.068h.395v1.535h-.294v-1.29l-.67 1.282h-.27l-.656-1.305v1.304h-.29zm-1.366 0v-1.353h-.754v-.182h1.815v.182h-.754v1.353h-.3zM40.792 136.7c-7.804 0-14.422-4.913-16.883-11.89l-1.03.352-1.02.354C24.55 133.414 32 139 40.79 139c8.746 0 16.21-5.645 18.94-13.45l-2.036-.77c-2.478 6.93-9.128 11.92-16.908 11.92zm-13.914-16.137l-2.456-.45c-1.244.952-2.662.54-3.112-.88h6.137v3.907h2.815v-1.848c.353 1.998 2.926 2.676 4.315 1.184 0 .438-.05.954-.184 1.374-.445 1.08-1.935 1.08-2.706.356l-1.75 2.283c1.116.89 2.247 1.32 3.69 1.18 1.188-.12 2-.33 2.908-1.16.69-.78 1.116-1.588 1.116-2.63v-9.628h-3.16v5.327c0 1.064-1.405 1.064-1.405 0v-5.328H30.27V110.7h-2.82v6.315c-1.055-2.062-2.84-3.125-5.105-2.805-1.624.368-2.82 1.275-3.445 2.805-.565-1.815-1.91-2.778-3.763-2.876-1.96 0-3.432.97-4.024 2.87-.99-2.2-2.996-3.265-5.356-2.72-1.417.45-2.237 1.2-2.942 2.53v-6.12H0v12.43h2.814v-2.69c1.056 1.71 2.354 2.65 4.24 2.69 2.008-.12 3.15-1.086 4.206-2.88v2.88h2.817v-5.33c0-1.065 1.76-1.065 1.76 0v5.33H19v-2.71c.353 1.474 1.623 2.365 3.18 2.77 3.404.325 4.68-2.04 4.697-2.635zm-20-.05c-1.037 0-1.877-.855-1.877-1.902 0-1.04.84-1.89 1.88-1.89s1.88.855 1.88 1.898c0 1.047-.84 1.902-1.88 1.902zm18.016-2.343h-3.65c.565-1.778 3.062-1.778 3.65 0zm56.996 1.56l-.133.118c-.528.433-1.31.236-1.584-.36-.283-.854-.136-1.677-.136-2.743h1.954v-2.486h-2.11v-1.78h-2.81v4.54c-.35-1.26-1.242-1.98-2.47-2.55-2.46-.88-4.784.15-5.866 2.542-.428-1.256-1.06-2.025-2.257-2.595-2.376-.84-4.66.157-5.485 2.594-.654-1.53-1.58-2.334-3.204-2.786-2.19-.367-3.94.596-4.996 2.593v-6.12h-3.17v6.124c-.35-.75-.727-1.283-1.37-1.814-3.043-2.23-7.077-.01-7.077 3.74v7.94h3.04c0-.71-.092-3.91-.092-3.91l.248.14c2.215.57 4.55-.56 5.255-2.31v2.53h3.168v-2.526c.703 1.833 2.472 2.887 4.495 2.74.935.06 1.71-2.367 1.713-1.673l-.004 1.815h1.986l2.72-.19V117.8c0-1.144 1.943-1.327 2.04-.155.023 1.8.1 3.718.1 5.494h2.787v-2.71c.703 1.23 1.32 1.94 2.51 2.53 2.353.77 4.84.39 5.76-2.5l-2.468-.49c-.57.863-2.59 1.032-3.236-.745h5.984c0 1.42.027 2.576 1.3 3.51 1.272.937 3.557.076 3.53-.53l-.11-2.48zm-36.052.833c-1.035 0-1.88-.856-1.88-1.9 0-1.04.845-1.898 1.88-1.898s1.88.858 1.88 1.9c0 1.042-.845 1.898-1.88 1.898zm10.967 0c-1.036 0-1.878-.856-1.878-1.9 0-1.04.84-1.898 1.878-1.898 1.035 0 1.88.858 1.88 1.9 0 1.042-.845 1.898-1.88 1.898zm14.36-2.393c.49-1.778 3.03-1.778 3.598 0h-3.598zm-30.36-17.825c7.802 0 14.424 5 16.885 12.108l1.027-.358 1.02-.362C57.05 103.69 49.595 98 40.8 98c-8.745 0-16.212 5.75-18.94 13.7l2.038.783c2.477-7.06 9.128-12.138 16.907-12.138zm0 0" fill="#fff"/><path d="M79.61 174.58v-1.535h.45l.545 1.087.11.228.124-.248.55-1.068h.395v1.535h-.294v-1.29l-.67 1.282h-.27l-.656-1.305v1.304h-.29zm-1.366 0v-1.353h-.754v-.182h1.815v.182h-.754v1.353h-.3zM40.792 185.7c-7.804 0-14.422-4.913-16.883-11.89l-1.03.352-1.02.354C24.55 182.414 32 188 40.79 188c8.746 0 16.21-5.645 18.94-13.45l-2.036-.77c-2.478 6.93-9.128 11.92-16.908 11.92zm-13.914-16.137l-2.456-.45c-1.244.952-2.662.54-3.112-.88h6.137v3.907h2.815v-1.848c.353 1.998 2.926 2.676 4.315 1.184 0 .438-.05.954-.184 1.374-.445 1.08-1.935 1.08-2.706.356l-1.75 2.283c1.116.89 2.247 1.32 3.69 1.18 1.188-.12 2-.33 2.908-1.16.69-.78 1.116-1.588 1.116-2.63v-9.628h-3.16v5.327c0 1.064-1.405 1.064-1.405 0v-5.328H30.27V159.7h-2.82v6.315c-1.055-2.062-2.84-3.125-5.105-2.805-1.624.368-2.82 1.275-3.445 2.805-.565-1.815-1.91-2.778-3.763-2.876-1.96 0-3.432.97-4.024 2.87-.99-2.2-2.996-3.265-5.356-2.72-1.417.45-2.237 1.2-2.942 2.53v-6.12H0v12.43h2.814v-2.69c1.056 1.71 2.354 2.65 4.24 2.69 2.008-.12 3.15-1.086 4.206-2.88v2.88h2.817v-5.33c0-1.065 1.76-1.065 1.76 0v5.33H19v-2.71c.353 1.474 1.623 2.365 3.18 2.77 3.404.325 4.68-2.04 4.697-2.635zm-20-.05c-1.037 0-1.877-.855-1.877-1.902 0-1.04.84-1.89 1.88-1.89s1.88.855 1.88 1.898c0 1.047-.84 1.902-1.88 1.902zm18.016-2.343h-3.65c.565-1.778 3.062-1.778 3.65 0zm56.996 1.56l-.133.118c-.528.433-1.31.236-1.584-.36-.283-.854-.136-1.677-.136-2.743h1.954v-2.486h-2.11v-1.78h-2.81v4.54c-.35-1.26-1.242-1.98-2.47-2.55-2.46-.88-4.784.15-5.866 2.542-.428-1.256-1.06-2.025-2.257-2.595-2.376-.84-4.66.157-5.485 2.594-.654-1.53-1.58-2.334-3.204-2.786-2.19-.367-3.94.596-4.996 2.593v-6.12h-3.17v6.124c-.35-.75-.727-1.283-1.37-1.814-3.043-2.23-7.077-.01-7.077 3.74v7.94h3.04c0-.71-.092-3.91-.092-3.91l.248.14c2.215.57 4.55-.56 5.255-2.31v2.53h3.168v-2.526c.703 1.833 2.472 2.887 4.495 2.74.935.06 1.71-2.367 1.713-1.673l-.004 1.815h1.986l2.72-.19V166.8c0-1.144 1.943-1.327 2.04-.155.023 1.8.1 3.718.1 5.494h2.787v-2.71c.703 1.23 1.32 1.94 2.51 2.53 2.353.77 4.84.39 5.76-2.5l-2.468-.49c-.57.863-2.59 1.032-3.236-.745h5.984c0 1.42.027 2.576 1.3 3.51 1.272.937 3.557.076 3.53-.53l-.11-2.48zm-36.052.833c-1.035 0-1.88-.856-1.88-1.9 0-1.04.845-1.898 1.88-1.898s1.88.858 1.88 1.9c0 1.042-.845 1.898-1.88 1.898zm10.967 0c-1.036 0-1.878-.856-1.878-1.9 0-1.04.84-1.898 1.878-1.898 1.035 0 1.88.858 1.88 1.9 0 1.042-.845 1.898-1.88 1.898zm14.36-2.393c.49-1.778 3.03-1.778 3.598 0h-3.598zm-30.36-17.825c7.802 0 14.424 5 16.885 12.108l1.027-.358 1.02-.362C57.05 152.69 49.595 147 40.8 147c-8.745 0-16.212 5.75-18.94 13.7l2.038.783c2.477-7.06 9.128-12.138 16.907-12.138zm0 0" fill="#206FAC"/></g></svg>