<svg width="82" height="289" viewBox="0 0 82 289" xmlns="http://www.w3.org/2000/svg"><title>lp-logo</title><g fill="none"><path d="M79.61 27.58v-1.535h.45l.545 1.087.11.228.124-.248.555-1.068h.396v1.535h-.293V26.29l-.67 1.286h-.27l-.657-1.305v1.304h-.29zm-1.366 0v-1.353h-.754v-.182h1.815v.182h-.754v1.353h-.305zM40.792 38.7c-7.804 0-14.422-4.913-16.883-11.89l-1.03.352-1.02.354C24.55 35.414 32.006 41 40.797 41c8.746 0 16.21-5.645 18.94-13.45l-2.036-.77c-2.478 6.93-9.128 11.92-16.908 11.92zM26.878 22.562l-2.456-.45c-1.244.952-2.662.54-3.112-.88h6.137v3.907h2.815v-1.85c.353 2 2.926 2.677 4.315 1.185 0 .438-.05.954-.184 1.374-.445 1.08-1.935 1.08-2.706.355l-1.75 2.283c1.116.89 2.247 1.32 3.69 1.18 1.188-.12 2-.33 2.908-1.155.69-.777 1.116-1.586 1.116-2.63V16.26h-3.164v5.327c0 1.064-1.408 1.064-1.408 0V16.26h-2.815v-3.555h-2.815v6.314c-1.054-2.063-2.84-3.126-5.104-2.806-1.624.367-2.82 1.274-3.445 2.804-.565-1.815-1.91-2.778-3.763-2.876-1.96 0-3.432.97-4.024 2.875-.99-2.2-2.996-3.263-5.356-2.722-1.417.448-2.237 1.2-2.942 2.53v-6.123H0V25.14h2.814v-2.692c1.056 1.706 2.354 2.647 4.24 2.686 2.008-.12 3.15-1.082 4.206-2.878v2.883h2.817v-5.33c0-1.066 1.76-1.066 1.76 0v5.33H19v-2.71c.353 1.473 1.623 2.364 3.18 2.767 3.404.325 4.68-2.04 4.697-2.635zm-20-.05C5.84 22.512 5 21.657 5 20.61c0-1.042.84-1.896 1.88-1.896 1.036 0 1.878.854 1.878 1.897 0 1.048-.84 1.903-1.878 1.903zm18.016-2.343h-3.65c.565-1.78 3.062-1.78 3.65 0zm56.996 1.56l-.133.117c-.528.433-1.31.236-1.584-.36-.283-.854-.136-1.677-.136-2.743h1.954V16.26h-2.11v-1.78h-2.815v4.54c-.35-1.256-1.244-1.98-2.472-2.548-2.458-.88-4.784.156-5.866 2.547-.427-1.257-1.058-2.026-2.256-2.596-2.376-.84-4.66.157-5.485 2.594-.655-1.53-1.58-2.335-3.205-2.787-2.19-.365-3.94.598-4.996 2.595v-6.122h-3.168v6.122c-.35-.75-.726-1.284-1.368-1.815-3.044-2.227-7.078-.007-7.078 3.74v7.942h3.04c0-.71-.092-3.908-.092-3.908l.244.138c2.214.57 4.55-.56 5.254-2.31v2.527h3.168v-2.526c.703 1.832 2.472 2.886 4.495 2.74.934.06 1.71-2.368 1.712-1.674l-.005 1.816h1.985l2.72-.19v-5.504c0-1.145 1.944-1.328 2.04-.156.024 1.8.102 3.718.102 5.494h2.786v-2.71c.703 1.23 1.32 1.943 2.51 2.53 2.353.776 4.84.397 5.758-2.5l-2.466-.483c-.57.863-2.59 1.032-3.236-.745h5.983c0 1.42.027 2.576 1.3 3.51 1.272.937 3.557.076 3.53-.53l-.11-2.48zm-36.052.832c-1.035 0-1.88-.856-1.88-1.9 0-1.04.845-1.898 1.88-1.898s1.88.858 1.88 1.9c0 1.042-.845 1.898-1.88 1.898zm10.967 0c-1.036 0-1.878-.856-1.878-1.9 0-1.04.84-1.898 1.878-1.898 1.035 0 1.88.858 1.88 1.9 0 1.042-.845 1.898-1.88 1.898zm14.36-2.393c.49-1.78 3.03-1.78 3.598 0h-3.598zM40.805 2.344c7.802 0 14.424 5 16.885 12.108l1.027-.358 1.02-.362C57.05 5.69 49.595 0 40.8 0c-8.745 0-16.212 5.75-18.94 13.7l2.038.783c2.477-7.06 9.128-12.138 16.907-12.138zm0 0" fill="#3A434E"/><path d="M79.61 76.58v-1.535h.45l.545 1.087.11.228.124-.248.555-1.068h.396v1.535h-.293V75.29l-.67 1.286h-.27l-.657-1.305v1.304h-.29zm-1.366 0v-1.353h-.754v-.182h1.815v.182h-.754v1.353h-.305zM40.792 87.7c-7.804 0-14.422-4.913-16.883-11.89l-1.03.352-1.02.354C24.55 84.414 32.006 90 40.797 90c8.746 0 16.21-5.645 18.94-13.45l-2.036-.77c-2.478 6.93-9.128 11.92-16.908 11.92zM26.878 71.562l-2.456-.45c-1.244.952-2.662.54-3.112-.88h6.137v3.907h2.815v-1.85c.353 2 2.926 2.677 4.315 1.185 0 .438-.05.954-.184 1.374-.445 1.08-1.935 1.08-2.706.355l-1.75 2.283c1.116.89 2.247 1.32 3.69 1.18 1.188-.12 2-.33 2.908-1.155.69-.777 1.116-1.586 1.116-2.63V65.26h-3.164v5.327c0 1.064-1.408 1.064-1.408 0V65.26h-2.815v-3.555h-2.815v6.314c-1.054-2.063-2.84-3.126-5.104-2.806-1.624.367-2.82 1.274-3.445 2.804-.565-1.815-1.91-2.778-3.763-2.876-1.96 0-3.432.97-4.024 2.875-.99-2.2-2.996-3.263-5.356-2.722-1.417.448-2.237 1.2-2.942 2.53v-6.123H0V74.14h2.814v-2.692c1.056 1.706 2.354 2.647 4.24 2.686 2.008-.12 3.15-1.082 4.206-2.878v2.883h2.817v-5.33c0-1.066 1.76-1.066 1.76 0v5.33H19v-2.71c.353 1.473 1.623 2.364 3.18 2.767 3.404.325 4.68-2.04 4.697-2.635zm-20-.05C5.84 71.512 5 70.657 5 69.61c0-1.042.84-1.896 1.88-1.896 1.036 0 1.878.854 1.878 1.897 0 1.048-.84 1.903-1.878 1.903zm18.016-2.343h-3.65c.565-1.78 3.062-1.78 3.65 0zm56.996 1.56l-.133.117c-.528.433-1.31.236-1.584-.36-.283-.854-.136-1.677-.136-2.743h1.954V65.26h-2.11v-1.78h-2.815v4.54c-.35-1.256-1.244-1.98-2.472-2.548-2.458-.88-4.784.156-5.866 2.547-.427-1.257-1.058-2.026-2.256-2.596-2.376-.84-4.66.157-5.485 2.594-.655-1.53-1.58-2.335-3.205-2.787-2.19-.365-3.94.598-4.996 2.595v-6.122h-3.168v6.122c-.35-.75-.726-1.284-1.368-1.815-3.044-2.227-7.078-.007-7.078 3.74v7.942h3.04c0-.71-.092-3.908-.092-3.908l.244.138c2.214.57 4.55-.56 5.254-2.31v2.527h3.168v-2.526c.703 1.832 2.472 2.886 4.495 2.74.934.06 1.71-2.368 1.712-1.674l-.005 1.816h1.985l2.72-.19v-5.504c0-1.145 1.944-1.328 2.04-.156.024 1.8.102 3.718.102 5.494h2.786v-2.71c.703 1.23 1.32 1.943 2.51 2.53 2.353.776 4.84.397 5.758-2.5l-2.466-.483c-.57.863-2.59 1.032-3.236-.745h5.983c0 1.42.027 2.576 1.3 3.51 1.272.937 3.557.076 3.53-.53l-.11-2.48zm-36.052.832c-1.035 0-1.88-.856-1.88-1.9 0-1.04.845-1.898 1.88-1.898s1.88.858 1.88 1.9c0 1.042-.845 1.898-1.88 1.898zm10.967 0c-1.036 0-1.878-.856-1.878-1.9 0-1.04.84-1.898 1.878-1.898 1.035 0 1.88.858 1.88 1.9 0 1.042-.845 1.898-1.88 1.898zm14.36-2.393c.49-1.78 3.03-1.78 3.598 0h-3.598zm-30.36-17.826c7.802 0 14.424 5 16.885 12.108l1.027-.358 1.02-.362C57.05 54.69 49.595 49 40.8 49c-8.745 0-16.212 5.75-18.94 13.7l2.038.783c2.477-7.06 9.128-12.138 16.907-12.138zm0 0" fill="#67737B"/><path d="M79.61 125.58v-1.535h.45l.545 1.087.11.228.124-.248.555-1.068h.396v1.535h-.293v-1.288l-.67 1.286h-.27l-.657-1.305v1.304h-.29zm-1.366 0v-1.353h-.754v-.182h1.815v.182h-.754v1.353h-.305zM40.792 136.7c-7.804 0-14.422-4.913-16.883-11.89l-1.03.352-1.02.354C24.55 133.414 32.006 139 40.797 139c8.746 0 16.21-5.645 18.94-13.45l-2.036-.77c-2.478 6.93-9.128 11.92-16.908 11.92zm-13.914-16.137l-2.456-.45c-1.244.952-2.662.54-3.112-.88h6.137v3.907h2.815v-1.848c.353 1.998 2.926 2.676 4.315 1.184 0 .438-.05.954-.184 1.374-.445 1.08-1.935 1.08-2.706.356l-1.75 2.283c1.116.89 2.247 1.32 3.69 1.18 1.188-.12 2-.33 2.908-1.156.69-.777 1.116-1.586 1.116-2.63v-9.626h-3.164v5.327c0 1.064-1.408 1.064-1.408 0v-5.328h-2.815v-3.555h-2.815v6.314c-1.054-2.062-2.84-3.125-5.104-2.805-1.624.368-2.82 1.275-3.445 2.805-.565-1.815-1.91-2.778-3.763-2.876-1.96 0-3.432.97-4.024 2.874-.99-2.2-2.996-3.263-5.356-2.722-1.417.448-2.237 1.2-2.942 2.53V110.7H0v12.433h2.814v-2.692c1.056 1.707 2.354 2.648 4.24 2.687 2.008-.12 3.15-1.082 4.206-2.878v2.882h2.817v-5.33c0-1.065 1.76-1.065 1.76 0v5.33H19v-2.71c.353 1.474 1.623 2.365 3.18 2.768 3.404.325 4.68-2.04 4.697-2.635zm-20-.05c-1.037 0-1.877-.855-1.877-1.902 0-1.04.84-1.895 1.88-1.895 1.036 0 1.878.854 1.878 1.897 0 1.047-.84 1.902-1.878 1.902zm18.016-2.343h-3.65c.565-1.778 3.062-1.778 3.65 0zm56.996 1.56l-.133.118c-.528.433-1.31.236-1.584-.36-.283-.854-.136-1.677-.136-2.743h1.954v-2.486h-2.11v-1.78h-2.815v4.54c-.35-1.257-1.244-1.98-2.472-2.55-2.458-.88-4.784.157-5.866 2.548-.427-1.256-1.058-2.025-2.256-2.595-2.376-.84-4.66.157-5.485 2.594-.655-1.53-1.58-2.335-3.205-2.787-2.19-.366-3.94.597-4.996 2.594v-6.122h-3.168v6.122c-.35-.75-.726-1.284-1.368-1.815-3.044-2.228-7.078-.008-7.078 3.74v7.94h3.04c0-.71-.092-3.907-.092-3.907l.244.138c2.214.57 4.55-.56 5.254-2.31v2.528h3.168v-2.525c.703 1.832 2.472 2.886 4.495 2.74.934.06 1.71-2.368 1.712-1.674l-.005 1.815h1.985l2.72-.19V117.8c0-1.144 1.944-1.327 2.04-.155.024 1.8.102 3.718.102 5.494h2.786v-2.71c.703 1.23 1.32 1.942 2.51 2.53 2.353.775 4.84.396 5.758-2.5l-2.466-.484c-.57.863-2.59 1.032-3.236-.745h5.983c0 1.42.027 2.577 1.3 3.51 1.272.938 3.557.077 3.53-.53l-.11-2.48zm-36.052.833c-1.035 0-1.88-.856-1.88-1.9 0-1.04.845-1.898 1.88-1.898s1.88.858 1.88 1.9c0 1.042-.845 1.898-1.88 1.898zm10.967 0c-1.036 0-1.878-.856-1.878-1.9 0-1.04.84-1.898 1.878-1.898 1.035 0 1.88.858 1.88 1.9 0 1.042-.845 1.898-1.88 1.898zm14.36-2.393c.49-1.778 3.03-1.778 3.598 0h-3.598zm-30.36-17.825c7.802 0 14.424 5 16.885 12.108l1.027-.358 1.02-.362C57.05 103.69 49.595 98 40.8 98c-8.745 0-16.212 5.75-18.94 13.7l2.038.783c2.477-7.06 9.128-12.138 16.907-12.138zm0 0" fill="#fff"/><path d="M79.61 174.58v-1.535h.45l.545 1.087.11.228.124-.248.555-1.068h.396v1.535h-.293v-1.288l-.67 1.286h-.27l-.657-1.305v1.304h-.29zm-1.366 0v-1.353h-.754v-.182h1.815v.182h-.754v1.353h-.305zM40.792 185.7c-7.804 0-14.422-4.913-16.883-11.89l-1.03.352-1.02.354C24.55 182.414 32.006 188 40.797 188c8.746 0 16.21-5.645 18.94-13.45l-2.036-.77c-2.478 6.93-9.128 11.92-16.908 11.92zm-13.914-16.137l-2.456-.45c-1.244.952-2.662.54-3.112-.88h6.137v3.907h2.815v-1.848c.353 1.998 2.926 2.676 4.315 1.184 0 .438-.05.954-.184 1.374-.445 1.08-1.935 1.08-2.706.356l-1.75 2.283c1.116.89 2.247 1.32 3.69 1.18 1.188-.12 2-.33 2.908-1.156.69-.777 1.116-1.586 1.116-2.63v-9.626h-3.164v5.327c0 1.064-1.408 1.064-1.408 0v-5.328h-2.815v-3.555h-2.815v6.314c-1.054-2.062-2.84-3.125-5.104-2.805-1.624.368-2.82 1.275-3.445 2.805-.565-1.815-1.91-2.778-3.763-2.876-1.96 0-3.432.97-4.024 2.874-.99-2.2-2.996-3.263-5.356-2.722-1.417.448-2.237 1.2-2.942 2.53V159.7H0v12.433h2.814v-2.692c1.056 1.707 2.354 2.648 4.24 2.687 2.008-.12 3.15-1.082 4.206-2.878v2.882h2.817v-5.33c0-1.065 1.76-1.065 1.76 0v5.33H19v-2.71c.353 1.474 1.623 2.365 3.18 2.768 3.404.325 4.68-2.04 4.697-2.635zm-20-.05c-1.037 0-1.877-.855-1.877-1.902 0-1.04.84-1.895 1.88-1.895 1.036 0 1.878.854 1.878 1.897 0 1.047-.84 1.902-1.878 1.902zm18.016-2.343h-3.65c.565-1.778 3.062-1.778 3.65 0zm56.996 1.56l-.133.118c-.528.433-1.31.236-1.584-.36-.283-.854-.136-1.677-.136-2.743h1.954v-2.486h-2.11v-1.78h-2.815v4.54c-.35-1.257-1.244-1.98-2.472-2.55-2.458-.88-4.784.157-5.866 2.548-.427-1.256-1.058-2.025-2.256-2.595-2.376-.84-4.66.157-5.485 2.594-.655-1.53-1.58-2.335-3.205-2.787-2.19-.366-3.94.597-4.996 2.594v-6.122h-3.168v6.122c-.35-.75-.726-1.284-1.368-1.815-3.044-2.228-7.078-.008-7.078 3.74v7.94h3.04c0-.71-.092-3.907-.092-3.907l.244.138c2.214.57 4.55-.56 5.254-2.31v2.528h3.168v-2.525c.703 1.832 2.472 2.886 4.495 2.74.934.06 1.71-2.368 1.712-1.674l-.005 1.815h1.985l2.72-.19V166.8c0-1.144 1.944-1.327 2.04-.155.024 1.8.102 3.718.102 5.494h2.786v-2.71c.703 1.23 1.32 1.942 2.51 2.53 2.353.775 4.84.396 5.758-2.5l-2.466-.484c-.57.863-2.59 1.032-3.236-.745h5.983c0 1.42.027 2.577 1.3 3.51 1.272.938 3.557.077 3.53-.53l-.11-2.48zm-36.052.833c-1.035 0-1.88-.856-1.88-1.9 0-1.04.845-1.898 1.88-1.898s1.88.858 1.88 1.9c0 1.042-.845 1.898-1.88 1.898zm10.967 0c-1.036 0-1.878-.856-1.878-1.9 0-1.04.84-1.898 1.878-1.898 1.035 0 1.88.858 1.88 1.9 0 1.042-.845 1.898-1.88 1.898zm14.36-2.393c.49-1.778 3.03-1.778 3.598 0h-3.598zm-30.36-17.825c7.802 0 14.424 5 16.885 12.108l1.027-.358 1.02-.362C57.05 152.69 49.595 147 40.8 147c-8.745 0-16.212 5.75-18.94 13.7l2.038.783c2.477-7.06 9.128-12.138 16.907-12.138zm0 0" fill="#206FAC"/></g></svg>