<svg width="32" height="232" viewBox="0 0 32 232" xmlns="http://www.w3.org/2000/svg"><g fill="none"><path d="M11.603 29.93c-.166 0-.33-.057-.462-.166L2.3 22.42c-.164-.138-.26-.34-.26-.556V2.734c0-.28.163-.536.416-.655.256-.12.554-.08.77.094l8.84 7.344c.165.14.26.342.26.557v19.13c0 .28-.162.535-.415.655-.095.046-.2.068-.304.068zm-8.116-8.405l7.393 6.142v-17.25L3.487 4.275v17.25zm8.116 8.406c-.104 0-.21-.02-.307-.064-.254-.12-.416-.375-.416-.656V10.08c0-.215.096-.42.26-.557l8.84-7.343c.216-.18.514-.22.77-.1.253.12.415.374.415.655v19.13c0 .215-.095.418-.26.556l-8.84 7.347c-.132.11-.296.167-.462.167zm.723-19.51v17.25l7.393-6.142V4.278l-7.397 6.14zm16.99 19.514c-.165 0-.328-.057-.46-.166l-8.84-7.344c-.166-.138-.26-.34-.26-.556V2.734c0-.28.16-.536.414-.655.256-.12.555-.08.77.094l8.84 7.344c.165.14.26.342.26.557v19.13c0 .28-.162.535-.415.655-.1.046-.203.068-.308.068zM21.2 21.527l7.395 6.142V10.42L21.2 4.274v17.25zm3.7-5.79c.414 0 .75.34.75.755 0 .414-.336.75-.75.75-.417 0-.754-.336-.754-.75 0-.416.337-.754.753-.754zM6.787 18.91c.79 0 1.43.642 1.43 1.427 0 .786-.64 1.426-1.43 1.426-.786 0-1.425-.64-1.425-1.426 0-.785.64-1.427 1.426-1.427zm.2-.91l-.086-.005c-.415-.047-.714-.423-.67-.84.05-.413.124-.822.22-1.217.106-.407.517-.654.924-.55.407.102.653.515.55.92-.082.33-.144.672-.184 1.018-.044.388-.373.674-.753.674zm15.162 1.156c-.304 0-.59-.182-.708-.48-.153-.39.038-.83.428-.985.41-.16.69-.325.855-.44.347-.234.818-.15 1.055.198.24.346.15.818-.194 1.055-.33.227-.73.436-1.157.604-.09.036-.188.053-.28.053zm-3.12.366l-.125-.01c-.893-.144-1.73-.483-2.483-1.008-.345-.24-.43-.712-.19-1.055.238-.35.71-.43 1.055-.195.565.394 1.19.65 1.86.756.412.068.692.458.626.87-.06.374-.383.64-.748.64zm-4.214-3.25c-.26 0-.516-.134-.657-.377l-.318-.564c-.282-.502-.548-.98-.847-1.35-.264-.325-.214-.802.112-1.07.326-.26.803-.21 1.067.115.38.47.68 1.005.994 1.57l.304.542c.21.36.087.826-.276 1.037-.12.07-.25.103-.38.103zM8.67 14.147c-.203 0-.406-.082-.556-.242-.284-.308-.266-.788.04-1.073.706-.653 1.563-1.04 2.55-1.15.42-.044.79.253.838.67.046.415-.254.79-.67.837-.666.07-1.217.32-1.685.753-.146.136-.33.203-.516.203zm16.228-4.07c-1.072 0-1.94.87-1.94 1.94 0 1.073 1.94 2.718 1.94 2.718s1.94-1.645 1.94-2.718c0-1.07-.867-1.94-1.94-1.94zm0 2.516c-.342 0-.618-.277-.618-.618 0-.342.28-.62.62-.618.342 0 .618.277.617.62 0 .342-.28.617-.62.616z" fill="#3A434E"/><path d="M11.603 69.93c-.166 0-.33-.057-.462-.166L2.3 62.42c-.164-.138-.26-.34-.26-.556v-19.13c0-.28.163-.536.416-.655.256-.12.554-.08.77.094l8.84 7.344c.165.14.26.342.26.557v19.13c0 .28-.162.535-.415.655-.095.046-.2.068-.304.068zm-8.116-8.405l7.393 6.142v-17.25l-7.393-6.142v17.25zm8.116 8.406c-.104 0-.21-.02-.307-.064-.254-.12-.416-.375-.416-.656V50.08c0-.215.096-.42.26-.557l8.84-7.343c.216-.18.514-.22.77-.1.253.12.415.374.415.655v19.13c0 .215-.095.418-.26.556l-8.84 7.347c-.132.11-.296.167-.462.167zm.723-19.51v17.25l7.393-6.142v-17.25l-7.397 6.142zm16.99 19.514c-.165 0-.328-.057-.46-.166l-8.84-7.344c-.166-.138-.26-.34-.26-.556v-19.13c0-.28.16-.536.414-.655.256-.12.555-.08.77.098l8.84 7.345c.165.14.26.343.26.558v19.13c0 .28-.162.535-.415.655-.1.046-.203.068-.308.068zM21.2 61.527l7.395 6.142V50.42L21.2 44.274v17.25zm3.7-5.79c.414 0 .75.34.75.755 0 .414-.336.75-.75.75-.417 0-.754-.336-.754-.75 0-.416.337-.754.753-.754zM6.787 58.91c.79 0 1.43.642 1.43 1.427 0 .786-.64 1.426-1.43 1.426-.786 0-1.425-.64-1.425-1.426 0-.785.64-1.427 1.426-1.427zm.2-.91l-.086-.005c-.415-.047-.714-.423-.67-.84.05-.413.124-.822.22-1.217.106-.407.517-.654.924-.55.407.102.653.515.55.92-.082.33-.144.672-.184 1.018-.044.388-.373.674-.753.674zm15.162 1.156c-.304 0-.59-.182-.708-.48-.153-.39.038-.83.428-.985.41-.16.69-.325.855-.44.347-.234.818-.15 1.055.198.24.346.15.818-.194 1.055-.33.227-.73.436-1.157.604-.09.036-.188.053-.28.053zm-3.12.366l-.125-.01c-.893-.144-1.73-.483-2.483-1.008-.345-.24-.43-.712-.19-1.055.238-.35.71-.43 1.055-.195.565.394 1.19.65 1.86.756.412.068.692.458.626.87-.06.374-.383.64-.748.64zm-4.214-3.25c-.26 0-.516-.134-.657-.377l-.318-.564c-.282-.502-.548-.98-.847-1.35-.264-.325-.214-.802.112-1.07.326-.26.803-.21 1.067.115.38.47.68 1.005.994 1.57l.304.542c.21.36.087.826-.276 1.037-.12.07-.25.103-.38.103zM8.67 54.147c-.203 0-.406-.082-.556-.242-.284-.308-.266-.788.04-1.073.706-.653 1.563-1.04 2.55-1.15.42-.044.79.253.838.67.046.415-.254.79-.67.837-.666.07-1.217.32-1.685.753-.146.136-.33.203-.516.203zm16.228-4.07c-1.072 0-1.94.87-1.94 1.94 0 1.073 1.94 2.718 1.94 2.718s1.94-1.645 1.94-2.718c0-1.07-.867-1.94-1.94-1.94zm0 2.516c-.342 0-.618-.277-.618-.618 0-.342.28-.62.62-.618.342 0 .618.277.617.62 0 .342-.28.617-.62.616z" fill="#67737B"/><path d="M11.603 109.93c-.166 0-.33-.057-.462-.166L2.3 102.42c-.164-.138-.26-.34-.26-.556v-19.13c0-.28.163-.536.416-.655.256-.12.554-.08.77.094l8.84 7.344c.165.14.26.342.26.557v19.13c0 .28-.162.535-.415.655-.095.046-.2.068-.304.068zm-8.116-8.405l7.393 6.142v-17.25l-7.393-6.142v17.25zm8.116 8.406c-.104 0-.21-.02-.307-.064-.254-.12-.416-.375-.416-.656V90.08c0-.215.096-.42.26-.557l8.84-7.343c.216-.18.514-.22.77-.1.253.12.415.374.415.655v19.13c0 .215-.095.418-.26.556l-8.84 7.347c-.132.11-.296.167-.462.167zm.723-19.51v17.25l7.393-6.142v-17.25l-7.397 6.142zm16.99 19.514c-.165 0-.328-.057-.46-.166l-8.84-7.344c-.166-.138-.26-.34-.26-.556v-19.13c0-.28.16-.536.414-.655.256-.12.555-.08.77.098l8.84 7.345c.165.14.26.343.26.558v19.13c0 .28-.162.535-.415.655-.1.046-.203.068-.308.068zM21.2 101.53l7.397 6.14V90.42L21.2 84.274v17.25zm3.7-5.79c.416 0 .75.34.75.754s-.334.75-.75.75c-.415 0-.752-.336-.752-.75 0-.416.337-.754.753-.754zM6.79 98.91c.79 0 1.43.642 1.43 1.427 0 .786-.64 1.426-1.43 1.426-.786 0-1.425-.64-1.425-1.426 0-.785.64-1.427 1.426-1.427zm.2-.91l-.086-.005c-.416-.047-.715-.423-.67-.84.05-.413.123-.822.22-1.217.105-.407.516-.654.923-.55.407.102.653.515.55.92-.082.33-.144.672-.184 1.018-.043.388-.372.674-.752.674zm15.162 1.156c-.303 0-.59-.182-.707-.48-.153-.39.038-.83.428-.985.41-.16.69-.325.856-.44.347-.234.818-.15 1.055.198.24.346.15.818-.193 1.055-.33.227-.73.436-1.157.604-.09.036-.187.053-.28.053zm-3.12.366l-.124-.01c-.893-.144-1.73-.483-2.483-1.008-.345-.24-.43-.712-.19-1.055.238-.35.71-.43 1.055-.195.565.394 1.19.65 1.86.756.412.068.692.458.626.87-.06.374-.383.64-.748.64zm-4.213-3.25c-.26 0-.516-.134-.657-.377l-.317-.564c-.282-.502-.548-.98-.847-1.35-.264-.325-.214-.802.112-1.07.326-.26.803-.21 1.067.115.38.47.68 1.005.994 1.57l.303.542c.21.36.087.826-.276 1.037-.12.07-.25.103-.38.103zM8.67 94.147c-.203 0-.406-.082-.556-.242-.284-.308-.266-.788.04-1.073.706-.653 1.563-1.04 2.55-1.15.42-.044.79.253.838.67.046.415-.254.79-.67.837-.666.07-1.217.32-1.685.753-.146.136-.33.203-.516.203zm16.228-4.07c-1.072 0-1.94.87-1.94 1.94 0 1.073 1.94 2.718 1.94 2.718s1.94-1.645 1.94-2.718c0-1.07-.867-1.94-1.94-1.94zm0 2.516c-.342 0-.618-.277-.618-.618 0-.342.28-.62.62-.618.342 0 .618.277.617.62 0 .342-.28.617-.62.616z" fill="#fff"/><path d="M11.603 149.93c-.166 0-.33-.057-.462-.166L2.3 142.42c-.164-.138-.26-.34-.26-.556v-19.13c0-.28.163-.536.416-.655.256-.12.554-.08.77.094l8.84 7.344c.165.14.26.342.26.557v19.13c0 .28-.162.535-.415.655-.095.046-.2.068-.304.068zm-8.116-8.405l7.393 6.142v-17.25l-7.393-6.142v17.25zm8.116 8.406c-.104 0-.21-.02-.307-.064-.254-.12-.416-.375-.416-.656v-19.13c0-.215.096-.42.26-.557l8.84-7.343c.216-.18.514-.22.77-.1.253.12.415.374.415.655v19.13c0 .215-.095.418-.26.556l-8.84 7.347c-.132.11-.296.167-.462.167zm.723-19.51v17.25l7.393-6.142v-17.25l-7.397 6.142zm16.99 19.514c-.165 0-.328-.057-.46-.166l-8.84-7.344c-.166-.138-.26-.34-.26-.556v-19.13c0-.28.16-.536.414-.655.256-.12.555-.08.77.098l8.84 7.345c.165.14.26.343.26.558v19.13c0 .28-.162.535-.415.655-.1.046-.203.068-.308.068zM21.2 141.53l7.397 6.14v-17.25l-7.393-6.142v17.25zm3.7-5.79c.416 0 .75.34.75.754s-.334.75-.75.75c-.415 0-.752-.336-.752-.75 0-.416.337-.754.753-.754zm-18.11 3.174c.79 0 1.43.642 1.43 1.427s-.64 1.426-1.43 1.426c-.785 0-1.424-.64-1.424-1.426 0-.787.64-1.43 1.426-1.43zm.2-.91L6.906 138c-.417-.048-.716-.424-.67-.84.048-.414.122-.823.22-1.218.104-.406.515-.653.922-.55.407.103.653.516.55.92-.082.33-.144.673-.184 1.02-.042.387-.37.673-.75.673zm15.16 1.156c-.3 0-.585-.183-.703-.48-.153-.39.038-.83.428-.986.408-.16.69-.328.854-.44.346-.237.817-.15 1.054.195.238.344.15.816-.195 1.053-.33.226-.73.435-1.158.603-.09.036-.184.053-.277.053zm-3.12.365l-.12-.01c-.893-.144-1.73-.483-2.483-1.008-.345-.24-.43-.712-.19-1.055.238-.346.71-.43 1.055-.19.567.393 1.193.65 1.86.755.414.067.694.457.628.87-.06.373-.383.638-.748.638zm-4.21-3.25c-.26 0-.515-.134-.656-.377l-.318-.564c-.282-.505-.548-.983-.847-1.35-.265-.328-.215-.805.11-1.07.326-.262.803-.212 1.067.112.38.47.68 1.005.994 1.57l.307.542c.21.36.087.826-.276 1.037-.12.07-.25.103-.38.103zm-6.146-2.126c-.203 0-.406-.084-.556-.244-.284-.308-.266-.788.04-1.073.706-.653 1.563-1.04 2.55-1.15.42-.044.79.253.838.67.046.415-.254.79-.67.837-.666.075-1.217.323-1.685.757-.146.136-.33.203-.516.203zm16.228-4.07c-1.07 0-1.94.87-1.94 1.94 0 1.07 1.94 2.716 1.94 2.716s1.94-1.645 1.94-2.718c0-1.07-.866-1.94-1.94-1.94zm0 2.514c-.34 0-.617-.277-.617-.618 0-.342.28-.62.62-.618.342 0 .618.276.617.62 0 .34-.28.616-.62.615z" fill="#206FAC"/></g></svg>