<svg width="32" height="232" viewBox="0 0 32 232" xmlns="http://www.w3.org/2000/svg"><g fill="none"><path d="M22.578 127.4c-2.42 0-2.96 1.335-4.187 4.974l-2.36 6.958-2.42-6.958c-1.226-3.64-1.765-4.974-4.185-4.974-1.226 0-2.752.484-3.2 2.898l-1.915 10.4c-.39 2.1-.808 4.4-.808 5.085 0 1.02.84 2.187 2.273 2.187 2.185 0 2.574-1.476 2.813-3.04l1.433-8.978 3.32 9.944c.48 1.477 1.197 2.074 2.66 2.074 1.47 0 2.187-.597 2.666-2.074l3.26-9.944 1.493 8.98c.237 1.562.626 3.038 2.81 3.038 1.435 0 2.27-1.166 2.27-2.187 0-.684-.42-2.985-.81-5.086l-1.91-10.4c-.446-2.413-1.973-2.897-3.2-2.897zm0 0" fill="#206FAC"/><path d="M22.578 87.4c-2.42 0-2.96 1.335-4.187 4.974l-2.36 6.958-2.42-6.958c-1.226-3.64-1.765-4.974-4.185-4.974-1.226 0-2.752.484-3.2 2.898l-1.915 10.4c-.39 2.1-.808 4.4-.808 5.085 0 1.02.84 2.187 2.273 2.187 2.185 0 2.574-1.476 2.813-3.04l1.433-8.978 3.32 9.944c.48 1.477 1.197 2.074 2.66 2.074 1.47 0 2.187-.597 2.666-2.074l3.26-9.944 1.493 8.98c.237 1.562.626 3.038 2.81 3.038 1.435 0 2.27-1.166 2.27-2.187 0-.684-.42-2.985-.81-5.086l-1.91-10.4c-.446-2.413-1.973-2.897-3.2-2.897zm0 0" fill="#fff"/><path d="M22.578 47.4c-2.42 0-2.96 1.335-4.187 4.974l-2.36 6.958-2.42-6.958c-1.226-3.64-1.765-4.974-4.185-4.974-1.226 0-2.752.484-3.2 2.898l-1.915 10.4c-.39 2.1-.808 4.4-.808 5.085 0 1.02.84 2.187 2.273 2.187 2.185 0 2.574-1.476 2.813-3.04l1.433-8.978 3.32 9.944c.48 1.477 1.197 2.074 2.66 2.074 1.47 0 2.187-.597 2.666-2.074l3.26-9.944 1.493 8.98c.237 1.562.626 3.038 2.81 3.038 1.435 0 2.27-1.166 2.27-2.187 0-.684-.42-2.985-.81-5.086l-1.91-10.4c-.446-2.413-1.973-2.897-3.2-2.897zm0 0" fill="#67737B"/><path d="M22.578 7.4c-2.42 0-2.96 1.335-4.187 4.974l-2.36 6.958-2.42-6.958C12.38 8.734 11.84 7.4 9.42 7.4c-1.226 0-2.752.484-3.2 2.898l-1.915 10.4c-.39 2.1-.807 4.4-.807 5.085 0 1.02.838 2.187 2.272 2.187 2.185 0 2.574-1.476 2.813-3.04l1.433-8.978 3.32 9.944c.48 1.477 1.196 2.074 2.66 2.074 1.468 0 2.186-.597 2.665-2.074l3.26-9.944 1.494 8.98c.238 1.562.627 3.038 2.812 3.038 1.435 0 2.272-1.166 2.272-2.187 0-.684-.42-2.985-.81-5.086l-1.91-10.4c-.447-2.412-1.974-2.897-3.2-2.897zm0 0" fill="#3A434E"/></g></svg>