<svg width="32" height="232" viewBox="0 0 32 232" xmlns="http://www.w3.org/2000/svg"><title>mouse</title><g fill="none"><path d="M25.527 139.59l-1.36 1.352L19.4 136.2c-.678-.678-.038-1.3-.038-1.3l-.002-.013c1.275 1.27 2.764-.04 2.764-.04l1.36-1.356c1.277-1.267.043-2.666.043-2.666l1.363-1.353.637.636c2.63 2.617 2.63 6.863 0 9.483zm-5.447-9.568l-1.444 1.437c-1.28 1.274-.055 2.647.018 2.726-.167.13-.76.515-1.337-.06l-4.72-4.698 1.36-1.356c2.63-2.617 6.896-2.617 9.526.003l.64.634-1.34 1.333c-1.19-1.186-2.703-.02-2.703-.02zm-1.424 4.167l-.002-.004.044-.04-.042.043zm-.617 12.85c-2.63 2.615-6.895 2.615-9.527 0l-2.043-2.034c-2.63-2.62-2.63-6.863 0-9.484l5.402-5.373 11.61 11.47-5.445 5.42zm4.763-14.225l-1.36 1.355c-.376.373-.987.373-1.363 0l-.68-.678c-.375-.375-.375-.982 0-1.355l1.362-1.353c.376-.377.963-.354 1.34.02l.68.677c.375.376.396.96.02 1.335zm3.253-7.26c1.552 1.8-1.21 3.832-1.21 3.832l-.682-.678s2.275-1.716 1.213-2.858c-1.51-2.01.128-3.852.128-3.852l.66.654s-.98 1.44-.11 2.9zm0 0" fill="#206FAC"/><path d="M25.527 99.588l-1.36 1.353L19.4 96.2c-.678-.677-.038-1.3-.038-1.3l-.002-.012c1.275 1.27 2.764-.04 2.764-.04l1.36-1.356c1.277-1.268.043-2.667.043-2.667l1.363-1.353.637.635c2.63 2.617 2.63 6.863 0 9.483zM20.08 90.02l-1.444 1.438c-1.28 1.275-.055 2.648.018 2.727-.167.13-.76.515-1.337-.06l-4.72-4.698 1.36-1.356c2.63-2.616 6.896-2.616 9.526.004l.64.634-1.34 1.334c-1.19-1.186-2.703-.02-2.703-.02zm-1.424 4.168l-.002-.003.044-.04-.042.043zm-.617 12.85c-2.63 2.616-6.895 2.616-9.527 0l-2.043-2.033c-2.63-2.62-2.63-6.863 0-9.484l5.402-5.372 11.61 11.47-5.445 5.42zm4.763-14.224l-1.36 1.355c-.376.372-.987.372-1.363 0l-.68-.68c-.375-.374-.375-.98 0-1.354l1.362-1.353c.376-.377.963-.354 1.34.02l.68.677c.375.375.396.96.02 1.334zm3.253-7.26c1.552 1.8-1.21 3.832-1.21 3.832l-.682-.678s2.275-1.715 1.213-2.857c-1.51-2.01.128-3.85.128-3.85l.66.653s-.98 1.44-.11 2.9zm0 0" fill="#fff"/><path d="M25.527 59.59l-1.36 1.352L19.4 56.2c-.678-.678-.038-1.3-.038-1.3l-.002-.013c1.275 1.27 2.764-.04 2.764-.04l1.36-1.356c1.277-1.267.043-2.666.043-2.666l1.363-1.353.637.636c2.63 2.617 2.63 6.863 0 9.483zM20.08 50.02l-1.444 1.437c-1.28 1.274-.055 2.647.018 2.726-.167.13-.76.515-1.337-.06l-4.72-4.698 1.36-1.356c2.63-2.617 6.896-2.617 9.526.003l.64.634-1.34 1.333c-1.19-1.186-2.703-.02-2.703-.02zm-1.424 4.167l-.002-.004.044-.04-.042.043zm-.617 12.85c-2.63 2.615-6.895 2.615-9.527 0L6.47 65.005c-2.63-2.62-2.63-6.863 0-9.484l5.402-5.373 11.61 11.47-5.445 5.42zm4.763-14.225l-1.36 1.355c-.376.373-.987.373-1.363 0l-.68-.678c-.375-.375-.375-.982 0-1.355l1.362-1.353c.376-.377.963-.354 1.34.02l.68.677c.375.376.396.96.02 1.335zm3.253-7.26c1.552 1.8-1.21 3.832-1.21 3.832l-.682-.678s2.275-1.716 1.213-2.858c-1.51-2.01.128-3.852.128-3.852l.66.654s-.98 1.44-.11 2.9zm0 0" fill="#67737B"/><path d="M25.527 19.588l-1.36 1.353L19.4 16.2c-.678-.677-.038-1.3-.038-1.3l-.002-.012c1.275 1.27 2.764-.04 2.764-.04l1.36-1.356c1.277-1.268.043-2.667.043-2.667L24.89 9.47l.637.635c2.63 2.617 2.63 6.863 0 9.483zM20.08 10.02l-1.444 1.438c-1.28 1.275-.055 2.648.018 2.727-.167.13-.76.515-1.337-.06l-4.72-4.698 1.36-1.356c2.63-2.616 6.896-2.616 9.526.004l.64.634-1.34 1.334c-1.19-1.186-2.703-.02-2.703-.02zm-1.424 4.168l-.002-.003.044-.04-.042.043zm-.617 12.85c-2.63 2.616-6.895 2.616-9.527 0L6.47 25.005c-2.63-2.62-2.63-6.863 0-9.484l5.402-5.372 11.61 11.47-5.445 5.42zm4.763-14.224l-1.36 1.355c-.376.372-.987.372-1.363 0l-.68-.68c-.375-.374-.375-.98 0-1.354l1.362-1.353c.376-.377.963-.354 1.34.02l.68.677c.375.375.396.96.02 1.334zm3.253-7.26c1.552 1.8-1.21 3.832-1.21 3.832l-.682-.678s2.275-1.715 1.213-2.857c-1.51-2.01.128-3.85.128-3.85l.66.653s-.98 1.44-.11 2.9zm0 0" fill="#3A434E"/></g></svg>