<svg width="32" height="232" viewBox="0 0 32 232" xmlns="http://www.w3.org/2000/svg"><g fill="none"><path d="M24.84 127.662C22.475 125.302 19.34 124 16 124c-3.338 0-6.477 1.3-8.838 3.662C4.8 130.022 3.5 133.16 3.5 136.5c0 3.338 1.3 6.477 3.662 8.838 2.36 2.36 5.5 3.662 8.838 3.662 3.34 0 6.476-1.3 8.84-3.662 2.36-2.36 3.66-5.5 3.66-8.838 0-3.34-1.3-6.477-3.66-8.838zm-1.684 8.64c.008.116.088.247.215.217.19-.05.336-.39.408-.53.268-.54.506-1.237.418-1.84-.047-.325-.195-.665-.443-.89l-.11-.09c-.313-.218-.72-.33-.938-.657-.247-.37-.37-.83-.378-1.27-.006-.425-.277-.113-.4.056-.41.556-.872 1.165-.948 1.864-.063.583.206 1.098.646 1.48.302.257.66.442.983.672.355.254.517.555.552.985zm2.555.198c0 2.135-.69 4.114-1.862 5.72l-13.562-13.566c1.603-1.172 3.58-1.867 5.717-1.867 5.356 0 9.71 4.358 9.71 9.713zm-19.42 0c0-2.173.718-4.18 1.927-5.8L21.8 144.285c-1.62 1.21-3.628 1.928-5.8 1.928-5.356 0-9.71-4.357-9.71-9.713zm1.736.64v2.236h8.7l-2.24-2.237h-6.46zm14.244 2.236v-2.237h-3.333l2.238 2.233h1.094zm.39-2.27h1.7v2.26h-1.7v-2.26zm0 0" fill="#206FAC"/><path d="M24.84 87.662C22.475 85.302 19.34 84 16 84c-3.338 0-6.477 1.3-8.838 3.662C4.8 90.022 3.5 93.16 3.5 96.5c0 3.338 1.3 6.477 3.662 8.838 2.36 2.36 5.5 3.662 8.838 3.662 3.34 0 6.476-1.3 8.84-3.662 2.36-2.36 3.66-5.5 3.66-8.838 0-3.34-1.3-6.477-3.66-8.838zm-1.684 8.64c.008.116.088.247.215.217.19-.05.336-.39.408-.53.268-.54.506-1.237.418-1.84-.047-.325-.195-.665-.443-.89l-.11-.09c-.313-.218-.72-.33-.938-.657-.247-.37-.37-.83-.378-1.27-.006-.425-.277-.113-.4.056-.41.556-.872 1.165-.948 1.864-.063.583.206 1.098.646 1.48.302.257.66.442.983.672.355.254.517.555.552.985zm2.555.198c0 2.135-.69 4.114-1.862 5.72L10.283 88.653c1.603-1.172 3.58-1.867 5.717-1.867 5.355 0 9.71 4.358 9.71 9.713zm-19.42 0c0-2.173.718-4.18 1.927-5.8L21.8 104.285c-1.62 1.21-3.628 1.928-5.8 1.928-5.356 0-9.71-4.357-9.71-9.713zm1.736.64v2.236h8.7l-2.24-2.237h-6.46zm14.244 2.236V97.14h-3.333l2.238 2.236h1.094zm.39-2.27h1.7v2.26h-1.7v-2.26zm0 0" fill="#fff"/><path d="M24.84 47.662C22.475 45.302 19.34 44 16 44c-3.338 0-6.477 1.3-8.838 3.662C4.8 50.022 3.5 53.16 3.5 56.5c0 3.338 1.3 6.477 3.662 8.838C9.522 67.698 12.662 69 16 69c3.34 0 6.476-1.3 8.84-3.662 2.36-2.36 3.66-5.5 3.66-8.838 0-3.34-1.3-6.477-3.66-8.838zm-1.684 8.64c.008.116.088.247.215.217.19-.05.336-.39.408-.53.268-.54.506-1.237.418-1.84-.047-.325-.195-.665-.443-.89l-.11-.09c-.313-.218-.72-.33-.938-.657-.247-.37-.37-.83-.378-1.27-.006-.425-.277-.113-.4.056-.41.556-.872 1.165-.948 1.864-.063.583.206 1.098.646 1.48.302.257.66.442.983.672.355.254.517.555.552.985zm2.555.198c0 2.135-.69 4.114-1.862 5.72L10.283 48.653c1.603-1.172 3.58-1.867 5.717-1.867 5.355 0 9.71 4.358 9.71 9.713zm-19.42 0c0-2.173.718-4.18 1.927-5.8L21.8 64.285c-1.62 1.21-3.628 1.928-5.8 1.928-5.356 0-9.71-4.357-9.71-9.713zm1.736.64v2.236h8.7l-2.24-2.237h-6.46zm14.244 2.236V57.14h-3.333l2.238 2.236h1.094zm.39-2.27h1.7v2.26h-1.7v-2.26zm0 0" fill="#67737B"/><path d="M24.84 7.662C22.475 5.302 19.34 4 16 4c-3.338 0-6.477 1.3-8.838 3.662C4.8 10.022 3.5 13.16 3.5 16.5c0 3.338 1.3 6.477 3.662 8.838C9.522 27.698 12.662 29 16 29c3.34 0 6.476-1.3 8.84-3.662 2.36-2.36 3.66-5.5 3.66-8.838 0-3.34-1.3-6.477-3.66-8.838zm-1.684 8.64c.008.116.088.247.215.217.19-.05.336-.39.408-.53.268-.54.506-1.237.418-1.84-.047-.325-.195-.665-.443-.89l-.11-.09c-.313-.218-.72-.33-.938-.657-.247-.37-.37-.83-.378-1.27-.006-.425-.277-.113-.4.056-.41.556-.872 1.165-.948 1.864-.063.583.206 1.098.646 1.48.302.257.66.442.983.672.355.254.517.555.552.985zm2.555.198c0 2.135-.69 4.114-1.862 5.72L10.283 8.653C11.886 7.48 13.863 6.786 16 6.786c5.355 0 9.71 4.358 9.71 9.713zm-19.42 0c0-2.173.718-4.18 1.927-5.8L21.8 24.285c-1.62 1.21-3.628 1.928-5.8 1.928-5.356 0-9.71-4.357-9.71-9.713zm1.736.64v2.236h8.7l-2.24-2.237h-6.46zm14.244 2.236V17.14h-3.333l2.238 2.236h1.094zm.39-2.27h1.7v2.26h-1.7v-2.26zm0 0" fill="#3A434E"/></g></svg>