<svg width="32" height="232" viewBox="0 0 32 232" xmlns="http://www.w3.org/2000/svg"><g fill="none"><path d="M28.595 135.845h-3.84c-.766.005-1.39.643-1.39 1.423 0 .748.557 1.356 1.3 1.424l.202.006h.06v.91h-3.703l-1.67-6.068h3.02l.097-.01c.92-.056 1.646-.825 1.646-1.764 0-.97-.783-1.766-1.78-1.766H9.276c-.96 0-1.746.795-1.746 1.766 0 .927.715 1.695 1.615 1.76l.112.014h3.254l-1.7 6.068H7.08v-.91h.075l.088.007c.78 0 1.413-.642 1.413-1.437 0-.784-.632-1.423-1.413-1.423H3.41c-.774 0-1.41.64-1.41 1.423 0 .795.635 1.437 1.413 1.437l.088-.007h.086v2.153c0 1.53.636 2.308 1.88 2.308H9.56l-1.294 3.696c-.285.827.146 1.75.96 2.05.803.297 1.75-.15 2.048-.968l.018-.06 1.663-4.717h6.093l1.716 4.78c.23.636.832 1.064 1.498 1.064.186 0 .377-.03.55-.1.805-.296 1.23-1.19.97-2.015l-.02-.07-1.314-3.66h4.102c1.16 0 1.882-.644 1.882-1.687v-2.77h.068l.187-.003c.732-.048 1.315-.67 1.315-1.43 0-.78-.63-1.42-1.405-1.423zm-14.437 3.763l1.677-6.068h.32l1.627 6.068H14.16zm0 0" fill="#206FAC"/><path d="M28.595 95.845h-3.84c-.766.005-1.39.643-1.39 1.423 0 .748.557 1.356 1.3 1.424l.202.006h.06v.91h-3.703l-1.67-6.068h3.02l.097-.01c.92-.056 1.646-.825 1.646-1.764 0-.97-.783-1.766-1.78-1.766H9.276c-.96 0-1.746.795-1.746 1.766 0 .927.715 1.695 1.615 1.76l.112.014h3.254l-1.7 6.068H7.08v-.91h.075l.088.007c.78 0 1.413-.642 1.413-1.437 0-.784-.632-1.423-1.413-1.423H3.41c-.774 0-1.41.64-1.41 1.423 0 .795.635 1.437 1.413 1.437l.088-.007h.086v2.153c0 1.53.636 2.308 1.88 2.308H9.56l-1.294 3.696c-.285.827.146 1.75.96 2.05.803.297 1.75-.15 2.048-.968l.018-.06 1.663-4.717h6.093l1.716 4.78c.23.636.832 1.064 1.498 1.064.186 0 .377-.03.55-.1.805-.296 1.23-1.19.97-2.015l-.02-.07-1.314-3.66h4.102c1.16 0 1.882-.644 1.882-1.687V98.7h.068l.187-.003c.732-.047 1.315-.67 1.315-1.428 0-.78-.63-1.42-1.405-1.426zm-14.437 3.763l1.677-6.068h.32l1.627 6.068H14.16zm0 0" fill="#fff"/><path d="M28.595 55.845h-3.84c-.766.005-1.39.643-1.39 1.423 0 .748.557 1.356 1.3 1.424l.202.006h.06v.91h-3.703l-1.67-6.068h3.02l.097-.01c.92-.056 1.646-.825 1.646-1.764 0-.97-.783-1.766-1.78-1.766H9.276c-.96 0-1.746.795-1.746 1.766 0 .927.715 1.695 1.615 1.76l.112.014h3.254l-1.7 6.068H7.08v-.91h.075l.088.007c.78 0 1.413-.642 1.413-1.437 0-.784-.632-1.423-1.413-1.423H3.41c-.774 0-1.41.64-1.41 1.423 0 .795.635 1.437 1.413 1.437l.088-.007h.086v2.153c0 1.53.636 2.308 1.88 2.308H9.56L8.264 66.85c-.285.827.146 1.75.96 2.05.803.297 1.75-.15 2.048-.968l.018-.06 1.663-4.717h6.093l1.716 4.78c.23.637.832 1.065 1.498 1.065.186 0 .377-.03.55-.1.805-.296 1.23-1.19.97-2.015l-.02-.07-1.314-3.66h4.102c1.16 0 1.882-.643 1.882-1.686v-2.775h.068l.187-.002c.732-.047 1.315-.67 1.315-1.428 0-.78-.63-1.418-1.405-1.423zm-14.437 3.763l1.677-6.068h.32l1.627 6.068H14.16zm0 0" fill="#67737B"/><path d="M28.595 15.845h-3.84c-.766.005-1.39.643-1.39 1.423 0 .748.557 1.356 1.3 1.424l.202.006h.06v.91h-3.703l-1.67-6.068h3.02l.097-.01c.92-.056 1.646-.825 1.646-1.764 0-.97-.783-1.766-1.78-1.766H9.276c-.96 0-1.746.795-1.746 1.766 0 .927.715 1.695 1.615 1.76l.112.014h3.254l-1.7 6.068H7.08v-.91h.075l.088.007c.78 0 1.413-.642 1.413-1.437 0-.784-.632-1.423-1.413-1.423H3.41c-.774 0-1.41.64-1.41 1.423 0 .795.635 1.437 1.413 1.437l.088-.007h.086v2.153c0 1.53.636 2.308 1.88 2.308H9.56L8.264 26.85c-.285.827.146 1.75.96 2.05.803.297 1.75-.15 2.048-.968l.018-.06 1.663-4.717h6.093l1.716 4.78c.23.637.832 1.065 1.498 1.065.186 0 .377-.03.55-.1.805-.296 1.23-1.19.97-2.015l-.02-.07-1.314-3.66h4.102c1.16 0 1.882-.643 1.882-1.686v-2.775h.068l.187-.002c.732-.047 1.315-.67 1.315-1.428 0-.78-.63-1.418-1.405-1.423zm-14.437 3.763l1.677-6.068h.32l1.627 6.068H14.16zm0 0" fill="#3A434E"/></g></svg>