<svg width="32" height="232" viewBox="0 0 32 232" xmlns="http://www.w3.org/2000/svg"><g fill="none"><path d="M27.632 5H4.37C3.062 5 2 6.06 2 7.37v16.982c0 .31.25.56.562.56H5.61v2.24c0 .31.25.56.558.56H29.44c.31 0 .56-.25.56-.56V7.37C30 6.06 28.94 5 27.633 5zM5.61 23.917H3.035V7.407c0-.712.577-1.287 1.287-1.287s1.286.575 1.286 1.286v16.51zm2.352-7c.227-.253.465-.476.708-.565.31-.11.594-.28.997-.383 1.162-.3.85-1 .85-1s-.287-.17-.298-1h-.04c-.08-.01-.23-.08-.29-.55 0 0-.24-.43-.12-.59l.1-.03.07.03s-.18-1-.11-1.62l.11-.37h.27l.04-.24.26.05c.27-.15.71-.34 1.18-.29.17.02.35.07.53.17 0 0 .54.12.82.74 0 0 .1.15.18.21 0 0-.05.05-.22.04 0 0 .1.44-.16 1.22 0 0 .21.02.19.2l-.12.5c0 .145.02.42-.28.514 0 0 .01.74-.32 1.015 0 0-.31.68 1.016 1.02l.03.004c1.36.344 1.24.49 1.625.855 0 0 .37 1.116.56 2.11H7.4c.103-1.06.44-1.9.54-2.08zm19.66 6.85l-.968.97-.17.105-.066.012-.123.014-.024.003-.08-.02-.05-.01-.13-.09H26l-.64-.63-.635.64-.17.11-.062.02-.124.02h-.03l-.09-.026-.05-.013-.15-.1-.64-.64-.64.637-.17.104-.07.02-.13.016h-.03l-.087-.02-.05-.02-.14-.09-.005-.004-.64-.634-.637.64-.17.1-.07.01-.13.01h-.022l-.082-.022-.05-.02-.14-.09-.01-.003-.635-.64-.636.638-.17.107-.068.015-.12.01h-.02l-.085-.026-.05-.015-.135-.094-.01-.006-.636-.64-.634.636-.17.104-.06.012-.13.015h-.02l-.085-.02-.05-.017-.15-.096-.632-.64-.638.64-.01.007-.16.1-.06.01-.13.02h-.028l-.086-.023-.05-.015-.14-.1-.006-.002-.64-.633-.633.633-.17.1-.067.01-.12.02h-.02l-.084-.02-.05-.014-.15-.097-.64-.64-.635.635-.17.11-.062.01-.127.015-.023.002-.085-.028-.05-.02-.14-.09-.005-.01-.64-.64-.637.64-.178.11h.007l-.2.024c-.11-.01-.21-.054-.29-.133l-.97-.97c-.182-.19-.182-.486 0-.67.185-.18.48-.18.666 0l.64.64.63-.634c.182-.19.48-.19.663 0l.634.63.64-.64c.09-.085.21-.14.33-.14.124.006.242.056.33.14l.64.64.637-.64c.187-.18.48-.18.668 0l.64.64.638-.633c.09-.084.21-.14.34-.134.127-.01.246.05.334.13l.64.64.634-.63c.09-.086.21-.136.33-.136.13 0 .245.05.334.14l.64.64.64-.64c.18-.18.48-.186.664 0l.64.64.64-.64c.186-.18.48-.18.666 0l.64.64.64-.64c.09-.09.21-.14.336-.14.124 0 .244.05.33.14l.64.64.64-.64c.184-.18.482-.18.665 0l.64.64.634-.64c.18-.18.48-.183.662 0 .18.185.18.48 0 .667zm-.42-3.933h-7.84c-.31 0-.56-.227-.56-.504 0-.28.25-.505.56-.505h7.84c.31 0 .56.226.56.505 0 .277-.25.504-.56.504zm0-3.063h-7.84c-.31 0-.56-.22-.56-.5s.25-.5.56-.5h7.84c.31 0 .56.23.56.51s-.25.51-.56.51zm0-3.06h-7.84c-.31 0-.56-.22-.56-.5 0-.27.25-.5.56-.5h7.84c.31 0 .56.23.56.51s-.25.51-.56.51zm0-3.06h-7.84c-.31 0-.56-.22-.56-.5s.25-.5.56-.5h7.84c.31 0 .56.23.56.51s-.25.51-.56.51z" fill="#3A434E"/><path d="M27.63 44H4.37C3.06 44 2 45.06 2 46.37v16.982c0 .31.25.56.56.56h3.05v2.24c0 .31.25.56.56.56h23.27c.31 0 .56-.25.56-.56V46.37c0-1.31-1.06-2.37-2.37-2.37zM5.61 62.917H3.035v-16.51c0-.712.577-1.287 1.287-1.287s1.286.575 1.286 1.286v16.51zm2.353-7c.228-.253.466-.476.71-.565.31-.11.593-.28.996-.383 1.16-.3.85-1 .85-1s-.29-.17-.3-1h-.04c-.08-.01-.23-.08-.28-.55 0 0-.24-.43-.12-.59l.09-.03.07.03s-.18-1-.11-1.62l.11-.37h.27l.04-.24.26.05c.27-.15.71-.34 1.18-.29.17.02.35.07.53.17 0 0 .54.12.82.74 0 0 .1.15.18.21 0 0-.05.05-.22.04 0 0 .1.44-.16 1.22 0 0 .21.02.19.2l-.12.5c0 .145.02.42-.28.514 0 0 .01.74-.32 1.015 0 0-.31.68 1.015 1.02l.03.004c1.36.344 1.24.49 1.624.855 0 0 .37 1.116.56 2.11H7.38c.107-1.06.44-1.9.54-2.08zm19.66 6.85l-.967.97-.17.105-.066.012-.123.014-.024.003-.087-.02-.05-.01-.137-.09h-.01l-.64-.63-.64.64-.17.11-.06.02-.13.02h-.03l-.09-.026-.05-.013-.15-.1-.64-.64-.64.637-.17.104-.07.02-.12.016h-.03l-.09-.02-.05-.02-.14-.09-.008-.004-.64-.634-.634.64-.17.1-.07.01-.12.01h-.02l-.09-.022-.05-.02-.136-.09-.01-.003-.634-.64-.633.638-.17.107-.07.015-.12.01h-.025l-.09-.026-.05-.015-.14-.094-.01-.006-.64-.64-.64.636-.17.104-.06.012-.13.015h-.02l-.08-.02-.05-.017-.15-.096-.64-.64-.633.64-.01.007-.16.1-.06.01-.125.02H14.6l-.082-.023-.05-.015-.14-.1-.01-.002-.634-.633-.638.633-.17.1-.065.01-.12.02h-.023l-.084-.02-.05-.014-.145-.097-.64-.64-.64.635-.17.11-.06.01-.128.015-.025.002-.083-.028-.05-.02-.14-.09-.006-.01-.64-.64-.64.64-.176.11-.205.024c-.104-.01-.204-.054-.284-.133l-.97-.97c-.18-.19-.18-.486 0-.67.186-.18.48-.18.667 0l.64.64.63-.634c.18-.19.48-.19.66 0l.64.63.63-.64c.09-.085.21-.14.336-.14.127.006.245.056.33.14l.64.64.637-.64c.19-.18.48-.18.67 0l.64.64.636-.633c.09-.084.21-.14.334-.134.13-.01.25.05.335.13l.638.64.638-.63c.09-.086.21-.136.337-.136.13 0 .24.05.33.14l.64.64.64-.64c.18-.18.48-.186.663 0l.64.64.64-.64c.186-.18.48-.18.666 0l.64.64.64-.64c.087-.09.207-.14.33-.14.13 0 .25.05.335.14l.63.64.64-.64c.187-.18.485-.18.668 0l.64.64.64-.64c.18-.18.48-.183.66 0 .186.185.186.48 0 .667zm-.42-3.933h-7.84c-.31 0-.56-.227-.56-.504 0-.28.25-.505.56-.505h7.84c.31 0 .56.226.56.505 0 .277-.25.504-.56.504zm0-3.063h-7.84c-.31 0-.56-.22-.56-.5s.25-.5.56-.5h7.84c.31 0 .56.23.56.51s-.25.51-.56.51zm0-3.06h-7.84c-.31 0-.56-.22-.56-.5 0-.27.25-.5.56-.5h7.84c.31 0 .56.23.56.51s-.25.51-.56.51zm0-3.06h-7.84c-.31 0-.56-.22-.56-.5s.25-.5.56-.5h7.84c.31 0 .56.23.56.51s-.25.51-.56.51z" fill="#67737B"/><path d="M27.63 84H4.37C3.06 84 2 85.06 2 86.37v16.982c0 .31.25.56.56.56h3.05v2.24c0 .31.25.56.56.56h23.27c.31 0 .56-.25.56-.56V86.37c0-1.31-1.06-2.37-2.37-2.37zM5.61 102.917H3.035v-16.51c0-.712.577-1.287 1.287-1.287s1.286.575 1.286 1.286v16.51zm2.353-7c.228-.253.466-.476.71-.565.31-.11.593-.28.996-.383 1.16-.3.85-1 .85-1s-.29-.17-.3-1h-.04c-.08-.01-.23-.08-.28-.55 0 0-.24-.43-.12-.59l.09-.03.07.03s-.18-1-.11-1.62l.11-.37h.27l.04-.24.26.05c.27-.15.71-.34 1.18-.29.17.02.35.07.53.17 0 0 .54.12.82.74 0 0 .1.15.18.21 0 0-.05.05-.22.04 0 0 .1.44-.16 1.22 0 0 .21.02.19.2l-.12.5c0 .145.02.42-.28.514 0 0 .01.74-.32 1.015 0 0-.31.68 1.015 1.02l.03.004c1.36.344 1.24.49 1.624.855 0 0 .37 1.116.56 2.11H7.38c.107-1.06.44-1.9.54-2.08zm19.66 6.85l-.967.97-.17.105-.066.012-.123.014-.024.003-.087-.02-.05-.01-.137-.09h-.01l-.64-.63-.64.64-.17.11-.06.02-.13.02h-.03l-.09-.026-.05-.013-.15-.1-.64-.64-.64.637-.17.104-.07.02-.12.016h-.03l-.09-.02-.05-.02-.14-.09-.008-.004-.64-.634-.634.64-.17.1-.07.01-.12.01h-.02l-.09-.022-.05-.02-.136-.09-.01-.003-.634-.64-.633.638-.17.107-.07.015-.12.01h-.025l-.09-.026-.05-.015-.14-.094-.01-.006-.64-.64-.64.636-.17.104-.06.012-.13.015h-.02l-.08-.02-.05-.017-.15-.096-.64-.64-.633.64-.01.007-.16.1-.06.01-.125.02H14.6l-.082-.023-.05-.015-.14-.1-.01-.002-.634-.633-.638.633-.17.1-.065.01-.12.02h-.023l-.084-.02-.05-.014-.145-.097-.64-.64-.64.635-.17.11-.06.01-.128.015-.025.002-.083-.028-.05-.02-.14-.09-.006-.01-.64-.64-.64.64-.176.11-.205.024c-.104-.01-.204-.054-.284-.133l-.97-.97c-.18-.19-.18-.486 0-.67.186-.18.48-.18.667 0l.64.64.63-.634c.18-.19.48-.19.66 0l.64.63.63-.64c.09-.085.21-.14.336-.14.127.006.245.056.33.14l.64.64.637-.64c.19-.18.48-.18.67 0l.64.64.636-.633c.09-.084.21-.14.334-.134.13-.01.25.05.335.13l.638.64.638-.63c.09-.086.21-.136.337-.136.13 0 .24.05.33.14l.64.64.64-.64c.18-.18.48-.186.663 0l.64.64.64-.64c.186-.18.48-.18.666 0l.64.64.64-.64c.087-.09.207-.14.33-.14.13 0 .25.05.335.14l.63.64.64-.64c.187-.18.485-.18.668 0l.64.64.64-.64c.18-.18.48-.183.66 0 .186.185.186.48 0 .667zm-.42-3.933h-7.84c-.31 0-.56-.227-.56-.504 0-.28.25-.505.56-.505h7.84c.31 0 .56.226.56.505 0 .277-.25.504-.56.504zm0-3.063h-7.84c-.31 0-.56-.22-.56-.5s.25-.5.56-.5h7.84c.31 0 .56.23.56.51s-.25.51-.56.51zm0-3.06h-7.84c-.31 0-.56-.22-.56-.5 0-.27.25-.5.56-.5h7.84c.31 0 .56.23.56.51s-.25.51-.56.51zm0-3.06h-7.84c-.31 0-.56-.22-.56-.5s.25-.5.56-.5h7.84c.31 0 .56.23.56.51s-.25.51-.56.51z" fill="#fff"/><path d="M27.63 124H4.37C3.06 124 2 125.06 2 126.37v16.982c0 .31.25.56.56.56h3.05v2.24c0 .31.25.56.56.56h23.27c.31 0 .56-.25.56-.56V126.37c0-1.31-1.06-2.37-2.37-2.37zM5.61 142.917H3.035v-16.51c0-.712.577-1.287 1.287-1.287s1.286.575 1.286 1.286v16.51zm2.353-7c.228-.253.466-.476.71-.565.31-.11.593-.28.996-.383 1.16-.3.85-1 .85-1s-.29-.17-.3-1h-.04c-.08-.01-.23-.08-.28-.55 0 0-.24-.43-.12-.59l.09-.03.07.03s-.18-1-.11-1.62l.11-.37h.27l.04-.24.26.05c.27-.15.71-.34 1.18-.29.17.02.35.07.53.17 0 0 .54.12.82.74 0 0 .1.15.18.21 0 0-.05.05-.22.04 0 0 .1.44-.16 1.22 0 0 .21.02.19.2l-.12.5c0 .145.02.42-.28.514 0 0 .01.74-.32 1.015 0 0-.31.68 1.015 1.02l.03.004c1.36.344 1.24.49 1.624.855 0 0 .37 1.116.56 2.11H7.38c.107-1.06.44-1.9.54-2.08zm19.66 6.85l-.967.97-.17.105-.066.012-.123.014-.024.003-.087-.02-.05-.01-.137-.09h-.01l-.64-.63-.64.64-.17.11-.06.02-.13.02h-.03l-.09-.026-.05-.013-.15-.1-.64-.64-.64.637-.17.104-.07.02-.12.016h-.03l-.09-.02-.05-.02-.14-.09-.008-.004-.64-.634-.634.64-.17.1-.07.01-.12.01h-.02l-.09-.022-.05-.02-.136-.09-.01-.003-.634-.64-.633.638-.17.107-.07.015-.12.01h-.025l-.09-.026-.05-.015-.14-.094-.01-.006-.64-.64-.64.636-.17.104-.06.012-.13.015h-.02l-.08-.02-.05-.017-.15-.096-.64-.64-.633.64-.01.007-.16.1-.06.01-.125.02H14.6l-.082-.023-.05-.015-.14-.1-.01-.002-.634-.633-.638.633-.17.1-.065.01-.12.02h-.023l-.084-.02-.05-.014-.145-.097-.64-.64-.64.635-.17.11-.06.01-.128.015-.025.002-.083-.028-.05-.02-.14-.09-.006-.01-.64-.64-.64.64-.176.11-.205.024c-.104-.01-.204-.054-.284-.133l-.97-.97c-.18-.19-.18-.486 0-.67.186-.18.48-.18.667 0l.64.64.63-.634c.18-.19.48-.19.66 0l.64.63.63-.64c.09-.085.21-.14.336-.14.127.006.245.056.33.14l.64.64.637-.64c.19-.18.48-.18.67 0l.64.64.636-.633c.09-.084.21-.14.334-.134.13-.01.25.05.335.13l.638.64.638-.63c.09-.086.21-.136.337-.136.13 0 .24.05.33.14l.64.64.64-.64c.18-.18.48-.186.663 0l.64.64.64-.64c.186-.18.48-.18.666 0l.64.64.64-.64c.087-.09.207-.14.33-.14.13 0 .25.05.335.14l.63.64.64-.64c.187-.18.485-.18.668 0l.64.64.64-.64c.18-.18.48-.183.66 0 .186.185.186.48 0 .667zm-.42-3.933h-7.84c-.31 0-.56-.227-.56-.504 0-.28.25-.505.56-.505h7.84c.31 0 .56.226.56.505 0 .277-.25.504-.56.504zm0-3.063h-7.84c-.31 0-.56-.22-.56-.5s.25-.5.56-.5h7.84c.31 0 .56.23.56.51s-.25.51-.56.51zm0-3.06h-7.84c-.31 0-.56-.22-.56-.5 0-.27.25-.5.56-.5h7.84c.31 0 .56.23.56.51s-.25.51-.56.51zm0-3.06h-7.84c-.31 0-.56-.22-.56-.5s.25-.5.56-.5h7.84c.31 0 .56.23.56.51s-.25.51-.56.51z" fill="#206FAC"/></g></svg>