<svg width="32" height="232" viewBox="0 0 32 232" xmlns="http://www.w3.org/2000/svg"><g fill="none"><path d="M27.632 5H4.37C3.062 5 2 6.06 2 7.37v16.982c0 .31.25.56.562.56H5.61v2.24c0 .31.25.56.558.56H29.44c.31 0 .56-.25.56-.56V7.37C30 6.06 28.94 5 27.633 5zM5.61 23.917H3.035V7.407c0-.712.577-1.287 1.287-1.287s1.286.575 1.286 1.286v16.51zm2.352-7c.227-.253.465-.476.708-.565.31-.11.594-.28.997-.383 1.162-.3.85-1 .85-1s-.287-.17-.298-1h-.04c-.077-.006-.23-.08-.285-.55 0 0-.235-.426-.12-.588l.098-.027.07.028s-.182-.997-.104-1.616l.115-.37h.27l.043-.236.26.05c.274-.15.71-.332 1.18-.284.176.02.355.07.532.17 0 0 .542.126.826.746 0 0 .1.154.182.214 0 0-.047.055-.215.038 0 0 .106.445-.16 1.218 0 0 .214.022.19.206l-.115.504c0 .144.015.42-.284.513 0 0 .007.74-.315 1.016 0 0-.31.68 1.016 1.024l.033.006c1.36.345 1.24.49 1.623.856 0 0 .372 1.112.56 2.107l-8.17-.004c.105-1.06.44-1.903.544-2.08zm19.66 6.85l-.968.97-.17.105-.066.012-.123.014-.024.003-.083-.02-.05-.015-.137-.09-.01-.006-.64-.638-.636.637-.17.105-.062.013-.125.013-.024.004-.084-.024-.05-.015-.15-.098-.64-.638-.635.636-.168.105-.068.017-.124.013h-.024l-.085-.02-.05-.016-.138-.09-.008-.006-.64-.637-.637.638-.168.105-.068.015-.124.015h-.023l-.086-.024-.05-.015-.136-.092-.01-.004-.635-.638-.637.636-.17.105-.066.016-.123.012-.025.002-.087-.022-.05-.013-.137-.094-.01-.004-.637-.637-.637.637-.17.106-.06.012-.13.014-.022.002-.083-.022-.05-.016-.147-.096-.637-.638-.637.638-.008.003-.163.1-.064.013-.125.016h-.024l-.086-.023-.05-.014-.14-.092-.006-.003-.638-.636-.637.636-.17.104-.065.014-.126.015h-.025l-.084-.02-.05-.017-.147-.096-.638-.638-.636.637-.17.104-.065.01-.126.015-.024.003-.084-.023-.05-.015-.14-.09-.008-.006-.64-.64-.635.64-.177.11H9.02l-.203.022c-.103-.01-.203-.055-.283-.134l-.97-.97c-.183-.186-.183-.484 0-.666.184-.183.48-.183.665 0l.64.638.632-.637c.184-.184.483-.183.665 0l.637.637.638-.638c.09-.088.208-.14.333-.14.127.003.245.053.333.14l.64.638.636-.637c.184-.183.48-.184.665 0l.64.638.636-.636c.09-.087.208-.14.334-.137.126-.003.245.05.333.136l.636.638.635-.635c.09-.087.21-.137.334-.137.13 0 .244.05.333.138l.638.64.64-.64c.18-.182.48-.183.665 0l.636.64.64-.64c.184-.182.48-.182.664 0l.638.64.638-.64c.09-.087.21-.137.336-.136.124 0 .244.05.33.137l.638.64.638-.64c.185-.183.483-.183.666 0l.638.64.638-.64c.184-.183.48-.184.665 0 .182.184.182.48 0 .666zm-.42-3.933h-7.84c-.31 0-.56-.227-.56-.504 0-.28.25-.505.56-.505h7.84c.31 0 .56.226.56.505 0 .277-.25.504-.56.504zm0-3.063h-7.84c-.31 0-.56-.222-.56-.5 0-.28.25-.504.56-.504h7.84c.31 0 .56.225.56.504 0 .277-.25.503-.56.503zm0-3.06h-7.84c-.31 0-.56-.226-.56-.504 0-.277.25-.504.56-.504h7.84c.31 0 .56.227.56.504 0 .278-.25.505-.56.505zm0-3.063h-7.84c-.31 0-.56-.226-.56-.503s.25-.503.56-.503h7.84c.31 0 .56.226.56.504s-.25.504-.56.504z" fill="#3A434E"/><path d="M27.63 44H4.37C3.06 44 2 45.06 2 46.37v16.982c0 .31.25.56.56.56h3.05v2.24c0 .31.25.56.56.56h23.27c.31 0 .56-.25.56-.56V46.37c0-1.31-1.06-2.37-2.37-2.37zM5.61 62.917H3.035v-16.51c0-.712.577-1.287 1.287-1.287s1.286.575 1.286 1.286v16.51zm2.353-7c.228-.253.466-.476.71-.565.31-.11.593-.28.996-.383 1.16-.3.85-1 .85-1s-.29-.17-.3-1h-.04c-.074-.006-.23-.08-.28-.55 0 0-.237-.426-.12-.588l.096-.027.07.028s-.182-.997-.104-1.616l.116-.37h.27l.042-.236.26.05c.275-.15.712-.332 1.18-.284.177.02.356.07.533.17 0 0 .542.126.826.746 0 0 .1.154.182.214 0 0-.047.055-.215.038 0 0 .105.445-.16 1.218 0 0 .213.022.19.206l-.116.504c0 .144.016.42-.283.513 0 0 .008.74-.314 1.016 0 0-.31.68 1.016 1.024l.032.006c1.36.345 1.242.49 1.624.856 0 0 .37 1.112.56 2.107l-8.17-.004c.104-1.06.44-1.903.543-2.08zm19.66 6.85l-.967.97-.17.105-.066.012-.123.014-.024.003-.087-.02-.05-.015-.137-.09-.01-.006-.64-.638-.637.637-.17.105-.062.013-.126.013-.024.004-.085-.024-.05-.015-.147-.098-.64-.638-.637.636-.166.105-.068.017-.123.013h-.024l-.088-.02-.05-.016-.137-.09-.007-.006-.64-.637-.636.638-.168.105-.068.015-.123.015h-.022l-.087-.024-.05-.015-.136-.092-.01-.004-.636-.638-.637.636-.168.105-.067.016-.123.012-.025.002-.09-.022-.05-.013-.135-.094-.01-.004-.637-.637-.638.637-.17.106-.06.012-.13.014-.022.002-.084-.022-.05-.016-.148-.096-.638-.638-.638.638-.008.003-.162.1-.063.013-.126.016h-.022l-.087-.023-.05-.014-.137-.092-.01-.003-.637-.636-.638.636-.17.104-.063.014-.127.015h-.023l-.085-.02-.052-.017-.146-.096-.64-.638-.636.637-.17.104-.064.01-.127.015-.023.003-.085-.023-.05-.015-.14-.09-.008-.006-.64-.64-.636.64-.176.11H9l-.202.022c-.104-.01-.204-.055-.284-.134l-.97-.97c-.183-.186-.183-.484 0-.666.184-.183.48-.183.665 0l.64.638.634-.637c.183-.184.482-.183.664 0l.64.637.636-.638c.09-.088.21-.14.334-.14.126.003.244.053.332.14l.638.638.637-.637c.185-.183.48-.184.666 0l.64.638.637-.636c.09-.087.21-.14.335-.137.126-.003.245.05.333.136l.636.638.637-.635c.09-.087.21-.137.334-.137.128 0 .244.05.333.138l.638.64.64-.64c.18-.182.48-.183.664 0l.636.64.638-.64c.185-.182.48-.182.665 0l.638.64.64-.64c.087-.087.207-.137.333-.136.125 0 .245.05.332.137l.637.64.638-.64c.184-.183.482-.183.665 0l.638.64.638-.64c.185-.183.48-.184.666 0 .184.184.184.48 0 .666zm-.42-3.933h-7.84c-.31 0-.56-.227-.56-.504 0-.28.25-.505.56-.505h7.84c.31 0 .56.226.56.505 0 .277-.25.504-.56.504zm0-3.063h-7.84c-.31 0-.56-.222-.56-.5 0-.28.25-.504.56-.504h7.84c.31 0 .56.225.56.504 0 .277-.25.503-.56.503zm0-3.06h-7.84c-.31 0-.56-.226-.56-.504 0-.277.25-.504.56-.504h7.84c.31 0 .56.227.56.504 0 .278-.25.505-.56.505zm0-3.063h-7.84c-.31 0-.56-.226-.56-.503s.25-.503.56-.503h7.84c.31 0 .56.226.56.504s-.25.504-.56.504z" fill="#67737B"/><path d="M27.63 84H4.37C3.06 84 2 85.06 2 86.37v16.982c0 .31.25.56.56.56h3.05v2.24c0 .31.25.56.56.56h23.27c.31 0 .56-.25.56-.56V86.37c0-1.31-1.06-2.37-2.37-2.37zM5.61 102.917H3.035v-16.51c0-.712.577-1.287 1.287-1.287s1.286.575 1.286 1.286v16.51zm2.353-7c.228-.253.466-.476.71-.565.31-.11.593-.28.996-.383 1.16-.3.85-1 .85-1s-.29-.17-.3-1h-.04c-.074-.006-.23-.08-.28-.55 0 0-.237-.426-.12-.588l.096-.027.07.028s-.182-.997-.104-1.616l.116-.37h.27l.042-.236.26.05c.275-.15.712-.332 1.18-.284.177.02.356.07.533.17 0 0 .542.126.826.746 0 0 .1.154.182.214 0 0-.047.055-.215.038 0 0 .105.445-.16 1.218 0 0 .213.022.19.206l-.116.504c0 .144.016.42-.283.513 0 0 .008.74-.314 1.016 0 0-.31.68 1.016 1.024l.032.006c1.36.345 1.242.49 1.624.856 0 0 .37 1.112.56 2.107l-8.17-.004c.104-1.06.44-1.903.543-2.08zm19.66 6.85l-.967.97-.17.105-.066.012-.123.014-.024.003-.087-.02-.05-.015-.137-.09-.01-.006-.64-.638-.637.637-.17.105-.062.013-.126.013-.024.004-.085-.024-.05-.015-.147-.098-.64-.638-.637.636-.166.105-.068.017-.123.013h-.024l-.088-.02-.05-.016-.137-.09-.007-.006-.64-.637-.636.638-.168.105-.068.015-.123.015h-.022l-.087-.024-.05-.015-.136-.092-.01-.004-.636-.638-.637.636-.168.105-.067.016-.123.012-.025.002-.09-.022-.05-.013-.135-.094-.01-.004-.637-.637-.638.637-.17.106-.06.012-.13.014-.022.002-.084-.022-.05-.016-.148-.096-.638-.638-.638.638-.008.003-.162.1-.063.013-.126.016h-.022l-.087-.023-.05-.014-.137-.092-.01-.003-.637-.636-.638.636-.17.104-.063.014-.127.015h-.023l-.085-.02-.052-.017-.146-.096-.64-.638-.636.637-.17.104-.064.01-.127.015-.023.003-.085-.023-.05-.015-.14-.09-.008-.006-.64-.64-.636.64-.176.11H9l-.202.022c-.104-.01-.204-.055-.284-.134l-.97-.97c-.183-.186-.183-.484 0-.666.184-.183.48-.183.665 0l.64.638.634-.637c.183-.184.482-.183.664 0l.64.637.636-.638c.09-.088.21-.14.334-.14.126.003.244.053.332.14l.638.638.637-.637c.185-.183.48-.184.666 0l.64.638.637-.636c.09-.087.21-.14.335-.137.126-.003.245.05.333.136l.636.638.637-.635c.09-.087.21-.137.334-.137.128 0 .244.05.333.138l.638.64.64-.64c.18-.182.48-.183.664 0l.636.64.638-.64c.185-.182.48-.182.665 0l.638.64.64-.64c.087-.087.207-.137.333-.136.125 0 .245.05.332.137l.637.64.638-.64c.184-.183.482-.183.665 0l.638.64.638-.64c.185-.183.48-.184.666 0 .184.184.184.48 0 .666zm-.42-3.933h-7.84c-.31 0-.56-.227-.56-.504 0-.28.25-.505.56-.505h7.84c.31 0 .56.226.56.505 0 .277-.25.504-.56.504zm0-3.063h-7.84c-.31 0-.56-.222-.56-.5 0-.28.25-.504.56-.504h7.84c.31 0 .56.225.56.504 0 .277-.25.503-.56.503zm0-3.06h-7.84c-.31 0-.56-.226-.56-.504 0-.277.25-.504.56-.504h7.84c.31 0 .56.227.56.504 0 .278-.25.505-.56.505zm0-3.063h-7.84c-.31 0-.56-.226-.56-.503s.25-.503.56-.503h7.84c.31 0 .56.226.56.504s-.25.504-.56.504z" fill="#fff"/><path d="M27.63 124H4.37C3.06 124 2 125.06 2 126.37v16.982c0 .31.25.56.56.56h3.05v2.24c0 .31.25.56.56.56h23.27c.31 0 .56-.25.56-.56V126.37c0-1.31-1.06-2.37-2.37-2.37zM5.61 142.917H3.035v-16.51c0-.712.577-1.287 1.287-1.287s1.286.575 1.286 1.286v16.51zm2.353-7c.228-.253.466-.476.71-.565.31-.11.593-.28.996-.383 1.16-.3.85-1 .85-1s-.29-.17-.3-1h-.04c-.074-.006-.23-.08-.28-.55 0 0-.237-.426-.12-.588l.096-.027.07.028s-.182-.997-.104-1.616l.116-.37h.27l.042-.236.26.05c.275-.15.712-.332 1.18-.284.177.02.356.07.533.17 0 0 .542.126.826.746 0 0 .1.154.182.214 0 0-.047.055-.215.038 0 0 .105.445-.16 1.218 0 0 .213.022.19.206l-.116.504c0 .144.016.42-.283.513 0 0 .008.74-.314 1.016 0 0-.31.68 1.016 1.024l.032.006c1.36.345 1.242.49 1.624.856 0 0 .37 1.112.56 2.107l-8.17-.004c.104-1.06.44-1.903.543-2.08zm19.66 6.85l-.967.97-.17.105-.066.012-.123.014-.024.003-.087-.02-.05-.015-.137-.09-.01-.006-.64-.638-.637.637-.17.105-.062.013-.126.013-.024.004-.085-.024-.05-.015-.147-.098-.64-.638-.637.636-.166.105-.068.017-.123.013h-.024l-.088-.02-.05-.016-.137-.09-.007-.006-.64-.637-.636.638-.168.105-.068.015-.123.015h-.022l-.087-.024-.05-.015-.136-.092-.01-.004-.636-.638-.637.636-.168.105-.067.016-.123.012-.025.002-.09-.022-.05-.013-.135-.094-.01-.004-.637-.637-.638.637-.17.106-.06.012-.13.014-.022.002-.084-.022-.05-.016-.148-.096-.638-.638-.638.638-.008.003-.162.1-.063.013-.126.016h-.022l-.087-.023-.05-.014-.137-.092-.01-.003-.637-.636-.638.636-.17.104-.063.014-.127.015h-.023l-.085-.02-.052-.017-.146-.096-.64-.638-.636.637-.17.104-.064.01-.127.015-.023.003-.085-.023-.05-.015-.14-.09-.008-.006-.64-.64-.636.64-.176.11H9l-.202.022c-.104-.01-.204-.055-.284-.134l-.97-.97c-.183-.186-.183-.484 0-.666.184-.183.48-.183.665 0l.64.638.634-.637c.183-.184.482-.183.664 0l.64.637.636-.638c.09-.088.21-.14.334-.14.126.003.244.053.332.14l.638.638.637-.637c.185-.183.48-.184.666 0l.64.638.637-.636c.09-.087.21-.14.335-.137.126-.003.245.05.333.136l.636.638.637-.635c.09-.087.21-.137.334-.137.128 0 .244.05.333.138l.638.64.64-.64c.18-.182.48-.183.664 0l.636.64.638-.64c.185-.182.48-.182.665 0l.638.64.64-.64c.087-.087.207-.137.333-.136.125 0 .245.05.332.137l.637.64.638-.64c.184-.183.482-.183.665 0l.638.64.638-.64c.185-.183.48-.184.666 0 .184.184.184.48 0 .666zm-.42-3.933h-7.84c-.31 0-.56-.227-.56-.504 0-.28.25-.505.56-.505h7.84c.31 0 .56.226.56.505 0 .277-.25.504-.56.504zm0-3.063h-7.84c-.31 0-.56-.222-.56-.5 0-.28.25-.504.56-.504h7.84c.31 0 .56.225.56.504 0 .277-.25.503-.56.503zm0-3.06h-7.84c-.31 0-.56-.226-.56-.504 0-.277.25-.504.56-.504h7.84c.31 0 .56.227.56.504 0 .278-.25.505-.56.505zm0-3.063h-7.84c-.31 0-.56-.226-.56-.503s.25-.503.56-.503h7.84c.31 0 .56.226.56.504s-.25.504-.56.504z" fill="#206FAC"/></g></svg>