<svg width="32" height="232" viewBox="0 0 32 232" xmlns="http://www.w3.org/2000/svg"><g fill="none"><path d="M14.78 131.696c1.92 2.098 3.985 4.05 6 6.055 1.606-1.07 3.36-2.455 5.108-3.77.482-.365 1.233-1.14 1.834-1.114.457.02.768.413.777.78.02.667-1.18 1.37-1.726 1.777l-3.944 2.944c-.52.386-1.492 1.343-2.11 1.332-.785-.01-1-.968-1.554-1.22-1.026 1.617-2.044 3.377-3.166 5.164-.263.418-.715 1.357-1.11 1.61-.565.363-2.028.604-2.78.836-2.227.69-4.37 1.32-6.607 2.384-.407.196-.938.574-1.222.56-.27-.014-.74-.32-.78-.72-.033-.376.34-.834.56-1.28 1.238-2.546 1.93-5.263 2.775-8.055.14-.457.274-1.074.447-1.334.29-.45 1.24-.85 1.667-1.113 1.742-1.08 3.36-2.13 5.055-3.112-.132-.7-1.11-.72-1.17-1.553-.038-.554.84-1.52 1.278-2.11.88-1.185 2.06-2.653 2.945-3.835.406-.54 1.074-1.846 1.723-1.89.51-.033.85.41.888.665.102.71-.746 1.406-1.112 1.89-1.312 1.745-2.518 3.414-3.775 5.11zm.444 2.835c-2.157 1.4-4.38 2.73-6.555 4.11-.58 2.017-1.23 3.957-1.89 5.89 1.522-1.345 3.14-3.08 4.662-4.61-.067-2.16 3.072-1.486 2.5.335-.144.462-.663.896-1.332.832-1.356 1.277-2.812 2.813-4.11 4.11-.17.172-.48.305-.444.558 1.887-.688 3.834-1.315 5.83-1.89 1.367-2.206 2.75-4.398 4.114-6.61l-2.777-2.72zm0 0" fill="#206FAC"/><path d="M14.78 91.696c1.92 2.098 3.985 4.05 6 6.055 1.606-1.07 3.36-2.455 5.108-3.77.482-.365 1.233-1.14 1.834-1.114.457.02.768.413.777.78.02.667-1.18 1.37-1.726 1.777l-3.944 2.944c-.52.386-1.492 1.343-2.11 1.332-.785-.01-1-.968-1.554-1.22-1.026 1.617-2.044 3.377-3.166 5.164-.263.418-.715 1.357-1.11 1.61-.565.363-2.028.604-2.78.836-2.227.69-4.37 1.32-6.607 2.384-.407.196-.938.574-1.222.56-.27-.014-.74-.32-.78-.72-.033-.376.34-.834.56-1.28 1.238-2.546 1.93-5.263 2.775-8.055.14-.457.274-1.074.447-1.334.29-.45 1.24-.85 1.667-1.113 1.742-1.08 3.36-2.13 5.055-3.112-.132-.7-1.11-.72-1.17-1.553-.038-.554.84-1.52 1.278-2.11.88-1.185 2.06-2.653 2.945-3.835.406-.54 1.074-1.846 1.723-1.89.51-.033.85.41.888.665.102.71-.746 1.406-1.112 1.89-1.312 1.745-2.518 3.414-3.775 5.11zm.444 2.835c-2.157 1.4-4.38 2.73-6.555 4.11-.58 2.017-1.23 3.957-1.89 5.89 1.522-1.345 3.14-3.08 4.662-4.61-.067-2.16 3.072-1.486 2.5.335-.144.462-.663.896-1.332.832-1.356 1.277-2.812 2.813-4.11 4.11-.17.172-.48.305-.444.558 1.887-.688 3.834-1.315 5.83-1.89 1.367-2.206 2.75-4.398 4.114-6.61l-2.777-2.72zm0 0" fill="#fff"/><path d="M14.78 51.696c1.92 2.098 3.985 4.05 6 6.055 1.606-1.07 3.36-2.455 5.108-3.77.482-.365 1.233-1.14 1.834-1.114.457.02.768.413.777.78.02.667-1.18 1.37-1.726 1.777l-3.944 2.944c-.52.386-1.492 1.343-2.11 1.332-.785-.01-1-.968-1.554-1.22-1.026 1.617-2.044 3.377-3.166 5.164-.263.418-.715 1.357-1.11 1.61-.565.363-2.028.604-2.78.836-2.227.69-4.37 1.32-6.607 2.384-.407.196-.938.574-1.222.56-.27-.014-.74-.32-.78-.72-.033-.376.34-.834.56-1.28C5.3 64.488 5.99 61.77 6.836 58.98c.14-.457.274-1.074.447-1.334.29-.45 1.24-.85 1.667-1.113 1.742-1.08 3.36-2.13 5.055-3.112-.132-.7-1.11-.72-1.17-1.553-.038-.554.84-1.52 1.278-2.11.88-1.185 2.06-2.653 2.945-3.835.406-.54 1.074-1.846 1.723-1.89.51-.033.85.41.888.665.102.71-.746 1.406-1.112 1.89-1.312 1.745-2.518 3.414-3.775 5.11zm.444 2.835c-2.157 1.4-4.38 2.73-6.555 4.11-.58 2.017-1.23 3.957-1.89 5.89 1.522-1.345 3.14-3.08 4.662-4.61-.067-2.16 3.072-1.486 2.5.335-.144.462-.663.896-1.332.832-1.356 1.277-2.812 2.813-4.11 4.11-.17.172-.48.305-.444.558 1.887-.688 3.834-1.315 5.83-1.89 1.367-2.206 2.75-4.398 4.114-6.61l-2.777-2.72zm0 0" fill="#67737B"/><path d="M14.78 11.696c1.92 2.098 3.985 4.05 6 6.055 1.606-1.07 3.36-2.455 5.108-3.77.482-.365 1.233-1.14 1.834-1.114.457.02.768.413.777.78.02.667-1.18 1.37-1.726 1.777l-3.944 2.944c-.52.386-1.492 1.343-2.11 1.332-.785-.01-1-.968-1.554-1.22-1.026 1.617-2.044 3.377-3.166 5.164-.263.418-.715 1.357-1.11 1.61-.565.363-2.028.604-2.78.836-2.227.69-4.37 1.32-6.607 2.384-.407.196-.938.574-1.222.56-.27-.014-.74-.32-.78-.72-.033-.376.34-.834.56-1.28C5.3 24.488 5.99 21.77 6.836 18.98c.14-.457.274-1.074.447-1.334.29-.45 1.24-.85 1.667-1.113 1.742-1.08 3.36-2.13 5.055-3.112-.132-.7-1.11-.72-1.17-1.553-.038-.554.84-1.52 1.278-2.11.88-1.185 2.06-2.653 2.945-3.835.406-.54 1.074-1.846 1.723-1.89.51-.033.85.41.888.665.102.71-.746 1.406-1.112 1.89-1.312 1.745-2.518 3.414-3.775 5.11zm.444 2.835c-2.157 1.4-4.38 2.73-6.555 4.11-.58 2.017-1.23 3.957-1.89 5.89 1.522-1.345 3.14-3.08 4.662-4.61-.067-2.16 3.072-1.486 2.5.335-.144.462-.663.896-1.332.832-1.356 1.277-2.812 2.813-4.11 4.11-.17.172-.48.305-.444.558 1.887-.688 3.834-1.315 5.83-1.89 1.367-2.206 2.75-4.398 4.114-6.61l-2.777-2.72zm0 0" fill="#3A434E"/></g></svg>