<svg width="32" height="232" viewBox="0 0 32 232" xmlns="http://www.w3.org/2000/svg"><title>pen</title><g fill="none"><path d="M18.157 18.557c-.02.03-1.87 3.007-2.88 4.572l-.198.33c-.25.43-.564.962-.883 1.162-.377.236-1.086.4-1.77.56-.305.07-.59.137-.808.205l-.458.134c-1.878.565-3.653 1.098-5.516 1.964l-.35.182c-.31.17-.604.333-.87.333-.335-.02-.874-.36-.924-.84-.03-.305.158-.616.338-.916l.192-.333c.915-1.83 1.494-3.743 2.105-5.77l.403-1.323.098-.333c.104-.364.2-.706.335-.902.227-.343.773-.624 1.21-.852l.375-.202c1.584-.953 4.594-2.752 4.6-2.754.383-.214 1.308-.716 1.638-.716.112 0 .18.045.217.082.4.387 1.15 1.132 1.893 1.867.72.714 1.428 1.416 1.795 1.772.255.246.07.845-.542 1.775zm-4.94 1.456c-.13.41-.6.794-1.21.738-1.233 1.13-2.555 2.49-3.734 3.637-.155.153-.436.27-.404.494 1.712-.61 3.48-1.162 5.295-1.67 1.242-1.953 2.497-3.89 3.74-5.848l-2.527-2.41c-1.96 1.238-3.98 2.416-5.956 3.638-.524 1.782-1.118 3.5-1.716 5.21 1.385-1.19 2.854-2.724 4.24-4.08-.064-1.91 2.79-1.315 2.27.296zM21.28 4.246c-.352-.346-.906-.323-1.23.047l-.334.418c-1.432 1.856-4.466 5.62-4.466 5.62-.31.383-.275.98.075 1.33l5.256 5.185c.36.34.975.37 1.37.07 0 0 3.86-2.953 5.766-4.35l.47-.352c.392-.3.424-.83.07-1.172L21.28 4.248zm0 0" fill="#3A434E"/><path d="M18.157 58.557c-.02.03-1.87 3.007-2.88 4.572l-.198.33c-.25.43-.564.962-.883 1.162-.377.236-1.086.4-1.77.56-.305.07-.59.137-.808.205l-.458.134c-1.878.565-3.653 1.098-5.516 1.964l-.35.182c-.31.17-.604.333-.87.333-.335-.02-.874-.36-.924-.84-.03-.305.158-.616.338-.916l.192-.333c.915-1.83 1.494-3.743 2.105-5.77l.403-1.323.098-.333c.104-.364.2-.706.335-.902.227-.343.773-.624 1.21-.852l.375-.202c1.584-.953 4.594-2.752 4.6-2.754.383-.214 1.308-.716 1.638-.716.112 0 .18.045.217.082.4.387 1.15 1.132 1.893 1.867.72.714 1.428 1.416 1.795 1.772.255.246.07.845-.542 1.775zm-4.94 1.456c-.13.41-.6.794-1.21.738-1.233 1.13-2.555 2.49-3.734 3.637-.155.153-.436.27-.404.494 1.712-.61 3.48-1.162 5.295-1.67 1.242-1.953 2.497-3.89 3.74-5.848l-2.527-2.41c-1.96 1.238-3.98 2.416-5.956 3.638-.524 1.782-1.118 3.5-1.716 5.21 1.385-1.19 2.854-2.724 4.24-4.08-.064-1.91 2.79-1.315 2.27.296zm8.064-15.767c-.352-.346-.906-.323-1.23.047l-.334.418c-1.432 1.856-4.466 5.62-4.466 5.62-.31.383-.275.98.075 1.33l5.256 5.185c.36.34.975.37 1.37.07 0 0 3.86-2.953 5.766-4.35l.47-.352c.392-.3.424-.83.07-1.172l-6.974-6.792zm0 0" fill="#67737B"/><path d="M18.157 98.557c-.02.03-1.87 3.007-2.88 4.572l-.198.33c-.25.43-.564.962-.883 1.162-.377.236-1.086.4-1.77.56-.305.07-.59.137-.808.205l-.458.134c-1.878.565-3.653 1.098-5.516 1.964l-.35.182c-.31.17-.604.333-.87.333-.335-.02-.874-.36-.924-.84-.03-.305.158-.616.338-.916l.192-.333c.915-1.83 1.494-3.743 2.105-5.77l.403-1.323.098-.333c.104-.364.2-.706.335-.902.227-.343.773-.624 1.21-.852l.375-.202c1.584-.953 4.594-2.752 4.6-2.754.383-.214 1.308-.716 1.638-.716.112 0 .18.045.217.082.4.387 1.15 1.132 1.893 1.867.72.714 1.428 1.416 1.795 1.772.255.246.07.845-.542 1.775zm-4.94 1.456c-.13.41-.6.794-1.21.738-1.233 1.13-2.555 2.49-3.734 3.637-.155.153-.436.27-.404.494 1.712-.61 3.48-1.162 5.295-1.67 1.242-1.953 2.497-3.89 3.74-5.848l-2.527-2.41c-1.96 1.238-3.98 2.416-5.956 3.638-.524 1.782-1.118 3.5-1.716 5.21 1.385-1.19 2.854-2.724 4.24-4.08-.064-1.91 2.79-1.315 2.27.296zm8.064-15.767c-.352-.346-.906-.323-1.23.047l-.334.418c-1.432 1.856-4.466 5.62-4.466 5.62-.31.383-.275.98.075 1.33l5.256 5.185c.36.34.975.37 1.37.07 0 0 3.86-2.953 5.766-4.35l.47-.352c.392-.3.424-.83.07-1.172l-6.974-6.792zm0 0" fill="#fff"/><path d="M18.157 138.557c-.02.03-1.87 3.007-2.88 4.572l-.198.33c-.25.43-.564.962-.883 1.162-.377.236-1.086.4-1.77.56-.305.07-.59.137-.808.205l-.458.134c-1.878.565-3.653 1.098-5.516 1.964l-.35.182c-.31.17-.604.333-.87.333-.335-.02-.874-.36-.924-.84-.03-.305.158-.616.338-.916l.192-.333c.915-1.83 1.494-3.743 2.105-5.77l.403-1.323.098-.333c.104-.364.2-.706.335-.902.227-.343.773-.624 1.21-.852l.375-.202c1.584-.953 4.594-2.752 4.6-2.754.383-.214 1.308-.716 1.638-.716.112 0 .18.045.217.082.4.387 1.15 1.132 1.893 1.867.72.714 1.428 1.416 1.795 1.772.255.246.07.845-.542 1.775zm-4.94 1.456c-.13.41-.6.794-1.21.738-1.233 1.13-2.555 2.49-3.734 3.637-.155.153-.436.27-.404.494 1.712-.61 3.48-1.162 5.295-1.67 1.242-1.953 2.497-3.89 3.74-5.848l-2.527-2.41c-1.96 1.238-3.98 2.416-5.956 3.638-.524 1.782-1.118 3.5-1.716 5.21 1.385-1.19 2.854-2.724 4.24-4.08-.064-1.91 2.79-1.315 2.27.296zm8.064-15.767c-.352-.346-.906-.323-1.23.047l-.334.418c-1.432 1.856-4.466 5.62-4.466 5.62-.31.383-.275.98.075 1.33l5.256 5.185c.36.34.975.37 1.37.07 0 0 3.86-2.953 5.766-4.35l.47-.352c.392-.3.424-.83.07-1.172l-6.974-6.792zm0 0" fill="#206FAC"/></g></svg>