<svg width="32" height="232" viewBox="0 0 32 232" xmlns="http://www.w3.org/2000/svg"><g fill="none"><path d="M21.065 138.196c-.405-3.04-4.5-3.393-5.052-3.426-.553.033-4.645.385-5.05 3.426 0 4.374-3.296 1.97-3.557 6.005 0 2.635 3.845 4.77 8.607 4.8 4.76-.03 8.606-2.165 8.606-4.8-.26-4.03-3.558-1.63-3.558-6m6.382-5.898c-1.212-.892-2.982-.563-3.95.73-.97 1.294-1.04 3.538.18 4.424 1.21.892 3.238.088 4.207-1.205.97-1.295.775-3.063-.436-3.95m-18.88.95c-.906-1.34-2.658-1.75-3.908-.92-1.255.83-1.536 2.59-.627 3.927.904 1.337 3.02 2.15 4.272 1.317 1.25-.828 1.17-2.988.262-4.324m9.638-.27c1.567.797 3.75-.5 4.625-2.174.87-1.674.31-3.678-1.256-4.477-1.57-.8-3.546-.09-4.42 1.58-.867 1.67-.515 4.27 1.05 5.07m-5.35.38c1.727-.34 2.615-2.71 2.24-4.554-.374-1.84-2.08-3.06-3.81-2.714-1.73.345-2.822 2.116-2.447 3.96.373 1.848 2.287 3.658 4.017 3.31" fill="#206FAC"/><path d="M21.065 98.196c-.405-3.04-4.5-3.393-5.052-3.426-.553.033-4.645.385-5.05 3.426 0 4.374-3.296 1.97-3.557 6.005 0 2.635 3.845 4.77 8.607 4.8 4.76-.03 8.606-2.165 8.606-4.8-.26-4.03-3.558-1.63-3.558-6m6.382-5.898c-1.212-.892-2.982-.563-3.95.73-.97 1.294-1.04 3.538.18 4.424 1.21.892 3.238.088 4.207-1.205.97-1.295.775-3.063-.436-3.95m-18.88.95c-.906-1.34-2.658-1.75-3.908-.92-1.255.83-1.536 2.59-.627 3.927.904 1.337 3.02 2.15 4.272 1.317 1.25-.828 1.17-2.988.262-4.324m9.638-.27c1.567.797 3.75-.5 4.625-2.174.87-1.674.31-3.678-1.256-4.477-1.57-.8-3.546-.09-4.42 1.58-.867 1.67-.515 4.27 1.05 5.07m-5.35.38c1.727-.34 2.615-2.71 2.24-4.554-.374-1.84-2.08-3.06-3.81-2.714-1.73.345-2.822 2.116-2.447 3.96.373 1.848 2.287 3.658 4.017 3.31" fill="#fff"/><path d="M21.065 58.196c-.405-3.04-4.5-3.393-5.052-3.426-.553.033-4.645.385-5.05 3.426 0 4.374-3.296 1.97-3.557 6.005 0 2.635 3.845 4.77 8.607 4.8 4.76-.03 8.606-2.165 8.606-4.8-.26-4.03-3.558-1.63-3.558-6m6.382-5.898c-1.212-.892-2.982-.563-3.95.73-.97 1.294-1.04 3.538.18 4.424 1.21.892 3.238.088 4.207-1.205.97-1.295.775-3.063-.436-3.95m-18.88.95c-.906-1.34-2.658-1.75-3.908-.92-1.255.83-1.536 2.59-.627 3.927.904 1.337 3.02 2.15 4.272 1.317 1.25-.828 1.17-2.988.262-4.324m9.638-.27c1.567.797 3.75-.5 4.625-2.174.87-1.674.31-3.678-1.256-4.477-1.57-.8-3.546-.09-4.42 1.58-.867 1.67-.515 4.27 1.05 5.07m-5.35.38c1.727-.34 2.615-2.71 2.24-4.554-.374-1.84-2.08-3.06-3.81-2.714-1.73.345-2.822 2.116-2.447 3.96.373 1.848 2.287 3.658 4.017 3.31" fill="#67737B"/><path d="M21.065 18.196c-.405-3.04-4.5-3.393-5.052-3.426-.553.033-4.645.385-5.05 3.426 0 4.374-3.296 1.97-3.557 6.005 0 2.635 3.845 4.77 8.607 4.8 4.76-.03 8.606-2.165 8.606-4.8-.26-4.03-3.558-1.63-3.558-6m6.382-5.898c-1.212-.892-2.982-.563-3.95.73-.97 1.294-1.04 3.538.18 4.424 1.21.892 3.238.088 4.207-1.205.97-1.295.775-3.063-.436-3.95m-18.88.95c-.906-1.34-2.658-1.75-3.908-.92-1.255.83-1.536 2.59-.627 3.927.904 1.337 3.02 2.15 4.272 1.317 1.25-.828 1.17-2.988.262-4.324m9.638-.27c1.567.797 3.75-.5 4.625-2.174.87-1.674.31-3.678-1.256-4.477-1.57-.8-3.546-.09-4.42 1.58-.867 1.67-.515 4.27 1.05 5.07m-5.35.38c1.727-.34 2.615-2.71 2.24-4.554-.374-1.84-2.08-3.06-3.81-2.714-1.73.345-2.822 2.116-2.447 3.96.373 1.848 2.287 3.658 4.017 3.31" fill="#3A434E"/></g></svg>