<svg width="32" height="232" viewBox="0 0 32 232" xmlns="http://www.w3.org/2000/svg"><title>plane</title><g fill="none"><path d="M17.997 136.748v5.43c0 .182-.03.354-.076.518l3.15 2.88c.273.27.42.616.425.99 0 .378-.147.73-.41 1.003-.293.28-.645.43-1.026.43-.313 0-.64-.1-.934-.298l-3.12-1.987-3.154 1.908c-.256.225-.59.352-.94.352-.364 0-.716-.14-.978-.397-.277-.28-.422-.634-.42-1.013.004-.373.15-.72.416-.975l3.135-2.875c-.05-.17-.08-.35-.08-.537v-5.422l-7.03 3.78c-1.28.57-2.13.704-2.892-.053-.75-.762-.75-1.992 0-2.762l9.922-8.163v-3.787c0-1.105.9-2.008 2.012-2.008 1.103.006 2 .903 2 2.008v3.777l9.935 8.174c.758.77.758 2 0 2.763-.758.757-1.61.623-2.888.054l-7.047-3.79zm0 0" fill="#206FAC"/><path d="M17.997 96.748v5.43c0 .182-.03.354-.076.518l3.15 2.88c.273.27.42.616.425.99 0 .378-.147.73-.41 1.003-.293.28-.645.43-1.026.43-.313 0-.64-.1-.934-.298l-3.12-1.987-3.154 1.908c-.256.225-.59.352-.94.352-.364 0-.716-.14-.978-.397-.277-.28-.422-.634-.42-1.013.004-.373.15-.72.416-.975l3.135-2.875c-.05-.17-.08-.35-.08-.537v-5.422l-7.03 3.78c-1.28.57-2.13.704-2.892-.053-.75-.762-.75-1.992 0-2.762l9.922-8.163V85.77c0-1.105.9-2.008 2.012-2.008 1.103.006 2 .903 2 2.008v3.777l9.935 8.174c.758.77.758 2 0 2.763-.758.757-1.61.623-2.888.054l-7.047-3.79zm0 0" fill="#fff"/><path d="M17.997 56.748v5.43c0 .182-.03.354-.076.518l3.15 2.88c.273.27.42.616.425.99 0 .378-.147.73-.41 1.003-.293.28-.645.43-1.026.43-.313 0-.64-.1-.934-.298l-3.12-1.987-3.154 1.908c-.256.225-.59.352-.94.352-.364 0-.716-.14-.978-.397-.277-.28-.422-.634-.42-1.013.004-.373.15-.72.416-.975l3.135-2.875c-.05-.17-.08-.35-.08-.537v-5.422l-7.03 3.78c-1.28.57-2.13.704-2.892-.053-.75-.762-.75-1.992 0-2.762l9.922-8.163V45.77c0-1.105.9-2.008 2.012-2.008 1.103.006 2 .903 2 2.008v3.777l9.935 8.174c.758.77.758 2 0 2.763-.758.757-1.61.623-2.888.054l-7.047-3.79zm0 0" fill="#67737B"/><path d="M17.997 16.748v5.43c0 .182-.03.354-.076.518l3.15 2.88c.273.27.42.616.425.99 0 .378-.147.73-.41 1.003-.293.28-.645.43-1.026.43-.313 0-.64-.1-.934-.298l-3.12-1.987-3.154 1.908c-.256.225-.59.352-.94.352-.364 0-.716-.14-.978-.397-.277-.28-.422-.634-.42-1.013.004-.373.15-.72.416-.975l3.135-2.875c-.05-.17-.08-.35-.08-.537v-5.422l-7.03 3.78c-1.28.57-2.13.704-2.892-.053-.75-.762-.75-1.992 0-2.762l9.922-8.163V5.77c0-1.105.9-2.008 2.012-2.008 1.103.006 2 .903 2 2.008v3.777l9.935 8.174c.758.77.758 2 0 2.763-.758.757-1.61.623-2.888.054l-7.047-3.79zm0 0" fill="#3A434E"/></g></svg>