<svg width="32" height="232" viewBox="0 0 32 232" xmlns="http://www.w3.org/2000/svg"><title>recreation</title><g fill="none"><path d="M19.445 128.063c1.397 0 2.533-1.135 2.533-2.53 0-1.398-1.136-2.533-2.533-2.533-1.396 0-2.53 1.135-2.53 2.532 0 1.396 1.134 2.53 2.53 2.53m4.09 4.962l-.262-.032-.123-.004-2.234-.007-.772-2.376c-.216-.668-.783-1.176-1.43-1.317l-2.035-.826c-.225-.085-.458-.133-.696-.136l-4.496-.087c-.344 0-.682.088-.984.257l-.05-.037-3.466 3.153c-.84.763-.894 2.078-.123 2.924.396.437.955.685 1.54.685.513 0 1.003-.19 1.382-.532l2.513-2.285.65.002-1.48 3.58-1.548 3.033-2.922-.54-.26-.03-.81-.147c-1.133-.206-2.196.567-2.397 1.68-.203 1.126.54 2.207 1.656 2.414l5.56 1.008c1.023.19 1.99-.414 2.318-1.378l.867-1.414.657 1.91v4.42c0 1.134.933 2.06 2.082 2.06 1.14 0 2.074-.924 2.078-2.06v-4.584l-.012-.22c-.01-.226-.047-.418-.107-.593l-1.202-3.5.675-1.6c.367.324.844.506 1.344.508l3.735.01c1.264 0 2.05-.763 2.05-1.983 0-1.09-.645-1.822-1.7-1.953zm4.978 13.54c0 1.343-1.087 2.436-2.433 2.436-1.344 0-2.436-1.093-2.436-2.435 0-1.346 1.092-2.437 2.436-2.437 1.346 0 2.433 1.09 2.433 2.437zm0 0" fill="#206FAC"/><path d="M19.445 88.063c1.397 0 2.533-1.135 2.533-2.53 0-1.398-1.136-2.533-2.533-2.533-1.396 0-2.53 1.135-2.53 2.532 0 1.396 1.134 2.53 2.53 2.53m4.09 4.962l-.262-.032-.123-.004-2.234-.007-.772-2.376c-.216-.668-.783-1.176-1.43-1.317l-2.035-.826c-.225-.085-.458-.133-.696-.136l-4.496-.087c-.344 0-.682.088-.984.257l-.05-.037-3.466 3.153c-.84.763-.894 2.078-.123 2.924.396.437.955.685 1.54.685.513 0 1.003-.19 1.382-.532l2.513-2.285.65.002-1.48 3.58-1.548 3.033L7 98.478l-.26-.03-.81-.147c-1.133-.206-2.196.567-2.397 1.68-.203 1.126.54 2.207 1.656 2.414l5.56 1.008c1.023.19 1.99-.414 2.318-1.378l.867-1.414.657 1.91v4.42c0 1.134.933 2.06 2.082 2.06 1.14 0 2.074-.924 2.078-2.06v-4.584l-.012-.22c-.01-.226-.047-.418-.107-.593l-1.202-3.5.675-1.6c.367.324.844.506 1.344.508l3.735.01c1.264 0 2.05-.763 2.05-1.983 0-1.09-.645-1.822-1.7-1.953zm4.978 13.54c0 1.343-1.087 2.436-2.433 2.436-1.344 0-2.436-1.093-2.436-2.435 0-1.346 1.092-2.437 2.436-2.437 1.346 0 2.433 1.09 2.433 2.437zm0 0" fill="#fff"/><path d="M19.445 48.063c1.397 0 2.533-1.135 2.533-2.53 0-1.398-1.136-2.533-2.533-2.533-1.396 0-2.53 1.135-2.53 2.532 0 1.396 1.134 2.53 2.53 2.53m4.09 4.962l-.262-.032-.123-.004-2.234-.007-.772-2.376c-.216-.668-.783-1.176-1.43-1.317l-2.035-.826c-.225-.085-.458-.133-.696-.136l-4.496-.087c-.344 0-.682.088-.984.257l-.05-.037-3.466 3.153c-.84.763-.894 2.078-.123 2.924.396.437.955.685 1.54.685.513 0 1.003-.19 1.382-.532l2.513-2.285.65.002-1.48 3.58-1.548 3.033L7 58.478l-.26-.03-.81-.147c-1.133-.206-2.196.567-2.397 1.68-.203 1.126.54 2.207 1.656 2.414l5.56 1.008c1.023.19 1.99-.414 2.318-1.378l.867-1.414.657 1.91v4.42c0 1.134.933 2.06 2.082 2.06 1.14 0 2.074-.924 2.078-2.06v-4.584l-.012-.22c-.01-.226-.047-.418-.107-.593l-1.202-3.5.675-1.6c.367.324.844.506 1.344.508l3.735.01c1.264 0 2.05-.763 2.05-1.983 0-1.09-.645-1.822-1.7-1.953zm4.978 13.54c0 1.343-1.087 2.436-2.433 2.436-1.344 0-2.436-1.093-2.436-2.435 0-1.346 1.092-2.437 2.436-2.437 1.346 0 2.433 1.09 2.433 2.437zm0 0" fill="#67737B"/><path d="M19.445 8.063c1.397 0 2.533-1.135 2.533-2.53C21.978 4.134 20.842 3 19.445 3c-1.396 0-2.53 1.135-2.53 2.532 0 1.396 1.134 2.53 2.53 2.53m4.09 4.962l-.262-.032-.123-.004-2.234-.007-.772-2.376c-.216-.668-.783-1.176-1.43-1.317l-2.035-.826c-.225-.085-.458-.133-.696-.136l-4.496-.087c-.344 0-.682.088-.984.257l-.05-.037-3.466 3.153c-.84.763-.894 2.078-.123 2.924.396.437.955.685 1.54.685.513 0 1.003-.19 1.382-.532l2.513-2.285.65.002-1.48 3.58-1.548 3.033L7 18.478l-.26-.03-.81-.147c-1.133-.206-2.196.567-2.397 1.68-.203 1.126.54 2.207 1.656 2.414l5.56 1.008c1.023.19 1.99-.414 2.318-1.378l.867-1.414.657 1.91v4.42c0 1.134.933 2.06 2.082 2.06 1.14 0 2.074-.924 2.078-2.06v-4.584l-.012-.22c-.01-.226-.047-.418-.107-.593l-1.202-3.5.675-1.6c.367.324.844.506 1.344.508l3.735.01c1.264 0 2.05-.763 2.05-1.983 0-1.09-.645-1.822-1.7-1.953zm4.978 13.54c0 1.343-1.087 2.436-2.433 2.436-1.344 0-2.436-1.093-2.436-2.435 0-1.346 1.092-2.437 2.436-2.437 1.346 0 2.433 1.09 2.433 2.437zm0 0" fill="#3A434E"/></g></svg>