<svg width="32" height="232" viewBox="0 0 32 232" xmlns="http://www.w3.org/2000/svg"><title>restaurant</title><g fill="none"><path d="M11.305 179.247c-.05.042-4.853 4.532-6.595 6.268-.68.677-.888 1.56-.553 2.358.294.716.95 1.176 1.668 1.176.517 0 1.016-.24 1.455-.675l6.846-6.61-2.665-2.665-.155.147zm16.526 6.283l-6.126-6.127L8.077 165.57l-.126.04c-.072.024-1.79.57-2.287 2.154-.385 1.23.084 2.707 1.414 4.41l8.704 8.912.06.058 2.526.203.67.72c.04.047 4.203 4.3 5.942 6.037.583.585 1.186.706 1.588.706.794 0 1.523-.47 1.81-1.175.292-.697.093-1.465-.545-2.105zm-10.438-12.94l3.096 3.1c.47.468 1.06.735 1.62.735.327 0 .622-.095.853-.27l.01.01 4.867-4.87c.197-.198.308-.46.308-.74 0-.28-.11-.544-.308-.743-.395-.395-1.087-.395-1.487 0l-4.202 4.21-.776-.776 4.008-4.01c.41-.407.41-1.077 0-1.482-.398-.4-1.086-.4-1.483 0l-4.01 4.007-.82-.825 4.153-4.154c.41-.41.41-1.074 0-1.483-.395-.396-1.087-.396-1.482 0l-4.705 4.7c-.3.302-.43.747-.36 1.246.076.48.33.96.72 1.347zm0 0" fill="#47A899"/><path d="M11.305 139.247c-.05.042-4.853 4.532-6.595 6.268-.68.677-.888 1.56-.553 2.358.294.716.95 1.176 1.668 1.176.517 0 1.016-.24 1.455-.675l6.846-6.61-2.665-2.665-.155.147zm16.526 6.283l-6.126-6.127L8.077 125.57l-.126.04c-.072.024-1.79.57-2.287 2.154-.385 1.23.084 2.707 1.414 4.41l8.704 8.912.06.058 2.526.203.67.72c.04.047 4.203 4.3 5.942 6.037.583.585 1.186.706 1.588.706.794 0 1.523-.47 1.81-1.175.292-.697.093-1.465-.545-2.105zm-10.438-12.94l3.096 3.1c.47.468 1.06.735 1.62.735.327 0 .622-.095.853-.27l.01.01 4.867-4.87c.197-.198.308-.46.308-.74 0-.28-.11-.544-.308-.743-.395-.395-1.087-.395-1.487 0l-4.202 4.21-.776-.776 4.008-4.01c.41-.407.41-1.077 0-1.482-.398-.4-1.086-.4-1.483 0l-4.01 4.007-.82-.825 4.153-4.154c.41-.41.41-1.074 0-1.483-.395-.396-1.087-.396-1.482 0l-4.705 4.7c-.3.302-.43.747-.36 1.246.076.48.33.96.72 1.347zm0 0" fill="#206FAC"/><path d="M11.305 99.247c-.05.042-4.853 4.532-6.595 6.268-.68.677-.888 1.56-.553 2.358.294.716.95 1.176 1.668 1.176.517 0 1.016-.24 1.455-.675l6.846-6.61L11.46 99.1l-.155.147zm16.526 6.283l-6.126-6.127L8.077 85.57l-.126.04c-.072.024-1.79.57-2.287 2.154-.385 1.23.084 2.707 1.414 4.41l8.704 8.912.06.058 2.526.203.67.72c.04.047 4.203 4.3 5.942 6.037.583.585 1.186.706 1.588.706.794 0 1.523-.47 1.81-1.175.292-.697.093-1.465-.545-2.105zM17.393 92.59l3.096 3.1c.47.468 1.06.735 1.62.735.327 0 .622-.095.853-.27l.01.01 4.867-4.87c.197-.198.308-.46.308-.74 0-.28-.11-.544-.308-.743-.395-.395-1.087-.395-1.487 0l-4.202 4.21-.776-.776 4.008-4.01c.41-.407.41-1.077 0-1.482-.398-.4-1.086-.4-1.483 0l-4.01 4.007-.82-.825 4.153-4.154c.41-.41.41-1.074 0-1.483-.395-.396-1.087-.396-1.482 0l-4.705 4.7c-.3.302-.43.747-.36 1.246.076.48.33.96.72 1.347zm0 0" fill="#fff"/><path d="M11.305 59.247c-.05.042-4.853 4.532-6.595 6.268-.68.677-.888 1.56-.553 2.358.294.716.95 1.176 1.668 1.176.517 0 1.016-.24 1.455-.675l6.846-6.61L11.46 59.1l-.155.147zM27.83 65.53l-6.126-6.127L8.077 45.57l-.126.04c-.072.024-1.79.57-2.287 2.154-.385 1.23.084 2.707 1.414 4.41l8.704 8.912.06.058 2.526.203.67.72c.04.047 4.203 4.3 5.942 6.037.583.585 1.186.706 1.588.706.794 0 1.523-.47 1.81-1.175.292-.697.093-1.465-.545-2.105zM17.393 52.59l3.096 3.1c.47.468 1.06.735 1.62.735.327 0 .622-.095.853-.27l.01.01 4.867-4.87c.197-.198.308-.46.308-.74 0-.28-.11-.544-.308-.743-.395-.395-1.087-.395-1.487 0l-4.202 4.21-.776-.776 4.008-4.01c.41-.407.41-1.077 0-1.482-.398-.4-1.086-.4-1.483 0l-4.01 4.007-.82-.825 4.153-4.154c.41-.41.41-1.074 0-1.483-.395-.396-1.087-.396-1.482 0l-4.705 4.7c-.3.302-.43.747-.36 1.246.076.48.33.96.72 1.347zm0 0" fill="#67747C"/><path d="M11.305 19.247c-.05.042-4.853 4.532-6.595 6.268-.68.677-.888 1.56-.553 2.358.294.716.95 1.176 1.668 1.176.517 0 1.016-.24 1.455-.675l6.846-6.61L11.46 19.1l-.155.147zM27.83 25.53l-6.126-6.127L8.077 5.57l-.126.04c-.072.024-1.79.57-2.287 2.154-.385 1.23.084 2.707 1.414 4.41l8.704 8.912.06.058 2.526.203.67.72c.04.047 4.203 4.3 5.942 6.037.583.585 1.186.706 1.588.706.794 0 1.523-.47 1.81-1.175.292-.697.093-1.465-.545-2.105zM17.393 12.59l3.096 3.1c.47.468 1.06.735 1.62.735.327 0 .622-.095.853-.27l.01.01 4.867-4.87c.197-.198.308-.46.308-.74 0-.28-.11-.544-.308-.743-.395-.395-1.087-.395-1.487 0l-4.202 4.21-.776-.776 4.008-4.01c.41-.407.41-1.077 0-1.482-.398-.4-1.086-.4-1.483 0l-4.01 4.007-.82-.825L23.22 6.78c.41-.41.41-1.074 0-1.483-.395-.396-1.087-.396-1.482 0l-4.705 4.7c-.3.302-.43.747-.36 1.246.076.48.33.96.72 1.347zm0 0" fill="#3B444F"/></g></svg>