<svg width="22" height="32" viewBox="0 0 22 32" xmlns="http://www.w3.org/2000/svg"><title>restaurant--pin</title><g fill="none"><path d="M15.497 29.984c0 1.105-2.016 2-4.5 2-2.486 0-4.5-.895-4.5-2 0-1.104 2.014-2 4.5-2 2.484 0 4.5.896 4.5 2" fill-opacity=".2" fill="#1D508D"/><path d="M10.997.016c6.075 0 11 4.362 11 10.92 0 6.407-5.55 9.16-8.506 13.256-2.417 3.346-2.493 5.824-2.493 5.824s-.018-2.49-2.495-5.824c-3.04-4.097-8.505-6.66-8.505-13.257 0-6.56 4.926-10.92 11-10.92" fill="#47A899"/><path d="M8.528 11.69c-.023.024-2.422 2.26-3.29 3.13-.342.338-.444.78-.278 1.177.146.357.475.586.832.586.255 0 .51-.117.73-.337l3.413-3.296-1.33-1.33-.077.07zm8.248 3.14l-3.06-3.06-6.8-6.9-.06.02c-.037.006-.896.285-1.146 1.066-.19.62.045 1.356.71 2.21l4.345 4.442.028.028 1.26.105.335.357c.017.027 2.093 2.148 2.963 3.016.294.288.594.353.796.353.393 0 .76-.235.902-.587.144-.35.045-.732-.272-1.05zm-5.21-6.458l1.548 1.543c.235.234.525.37.805.37.165 0 .31-.05.425-.137l.008.004 2.427-2.425c.094-.107.153-.232.153-.372 0-.142-.06-.272-.153-.372-.2-.197-.545-.197-.742 0l-2.1 2.1-.386-.383 2-2.002c.206-.205.206-.54 0-.742-.198-.195-.54-.195-.742 0l-2.002 2-.408-.412 2.072-2.074c.205-.2.205-.535 0-.74-.197-.196-.537-.196-.74 0L11.39 7.07c-.15.154-.217.375-.18.622.037.244.162.48.357.678zm0 0" fill="#fff"/></g></svg>