<svg width="32" height="232" viewBox="0 0 32 232" xmlns="http://www.w3.org/2000/svg"><title>restaurant--line</title><g fill="none"><path d="M27.282 129.24c-.364-.372-.828-.614-1.32-.7-.124-.346-.32-.66-.585-.924-.272-.275-.605-.478-.97-.595-.085-.475-.307-.927-.667-1.294-.455-.464-1.088-.726-1.74-.726s-1.283.263-1.734.724l-2.972 3.008c-.6.61-.87 1.484-.74 2.393.108.732.467 1.434 1.008 1.985l2.37 2.406c.673.68 1.547 1.063 2.406 1.063.614 0 1.186-.193 1.653-.556l.082-.064.076-.073.788-.788 2.327-2.358c.47-.487.72-1.11.72-1.762 0-.65-.248-1.268-.7-1.74zm-1.186 2.316l-2.32 2.348-.787.788c-.177.137-.402.21-.652.21-.427 0-.88-.208-1.237-.568l-2.366-2.405c-.296-.302-.49-.672-.546-1.045-.056-.388.042-.732.273-.966l2.975-3.014c.15-.152.36-.23.566-.23.21 0 .416.078.57.23.31.316.31.833 0 1.15l-3.175 3.22.628.64 3.062-3.107c.152-.154.358-.23.566-.23.208 0 .416.076.567.23.314.313.314.833 0 1.152l-3.06 3.105.592.6 3.21-3.26c.152-.155.36-.232.57-.232.21 0 .415.077.566.23.148.154.235.357.235.575 0 .218-.086.422-.234.576zm-.693 17.225c-.52 0-1.3-.155-2.032-.894-1.606-1.633-5.416-5.585-5.432-5.602l-.4-.435-2.296-.188-.217-.23-7.985-8.293c-1.446-1.872-1.925-3.502-1.485-4.92.584-1.892 2.553-2.516 2.636-2.54l.586-.192 12.78 13.165 5.583 5.663c.817.83 1.072 1.9.678 2.863-.39.955-1.36 1.6-2.415 1.6zm-9.41-8.737l2.318.19.83.903c.08.083 3.83 3.97 5.398 5.563.607.61 1.51.44 1.752-.16.172-.418-.08-.795-.317-1.036l-5.588-5.67L8.34 127.426c-.39.196-.996.603-1.21 1.298-.267.86.12 1.974 1.15 3.315l7.714 8.003zM6.49 149c-.993 0-1.89-.63-2.284-1.606-.43-1.04-.17-2.226.684-3.09 1.58-1.602 5.184-4.962 5.336-5.103l.584-.545 3.587 3.64-6.006 5.847c-.555.56-1.214.858-1.902.858zm4.273-8.022c-1.108 1.04-3.522 3.314-4.705 4.512-.38.384-.498.843-.326 1.262.142.35.44.572.758.572.306 0 .575-.205.748-.38l4.797-4.674-1.272-1.292zm0 0" fill="#206FAC"/><path d="M27.282 89.24c-.364-.372-.828-.614-1.32-.7-.124-.346-.32-.66-.585-.924-.272-.275-.605-.478-.97-.595-.085-.475-.307-.927-.667-1.294C23.285 85.262 22.652 85 22 85s-1.283.263-1.734.724l-2.972 3.008c-.6.61-.87 1.484-.74 2.393.108.732.467 1.434 1.008 1.985l2.37 2.406c.673.68 1.547 1.063 2.406 1.063.614 0 1.186-.193 1.653-.556l.082-.064.076-.073.788-.788 2.327-2.358c.47-.487.72-1.11.72-1.762 0-.65-.248-1.268-.7-1.74zm-1.186 2.316l-2.32 2.348-.787.788c-.177.137-.402.21-.652.21-.427 0-.88-.208-1.237-.568l-2.366-2.405c-.296-.302-.49-.672-.546-1.045-.056-.388.042-.732.273-.966l2.975-3.014c.15-.152.36-.23.566-.23.21 0 .416.078.57.23.31.316.31.833 0 1.15l-3.175 3.22.628.64 3.062-3.107c.152-.154.358-.23.566-.23.208 0 .416.076.567.23.314.313.314.833 0 1.152l-3.06 3.105.592.6 3.21-3.26c.152-.155.36-.232.57-.232.21 0 .415.077.566.23.148.154.235.357.235.575 0 .218-.086.422-.234.576zm-.693 17.225c-.52 0-1.3-.155-2.032-.894-1.606-1.633-5.416-5.585-5.432-5.602l-.4-.435-2.296-.188-.217-.23-7.985-8.293c-1.446-1.872-1.925-3.502-1.485-4.92.584-1.892 2.553-2.516 2.636-2.54l.586-.192 12.78 13.165 5.583 5.663c.817.83 1.072 1.9.678 2.863-.39.955-1.36 1.6-2.415 1.6zm-9.41-8.737l2.318.19.83.903c.08.083 3.83 3.97 5.398 5.563.607.61 1.51.44 1.752-.16.172-.418-.08-.795-.317-1.036l-5.588-5.67L8.34 87.426c-.39.196-.996.603-1.21 1.298-.267.86.12 1.974 1.15 3.315l7.714 8.003zM6.49 109c-.993 0-1.89-.63-2.284-1.606-.43-1.04-.17-2.226.684-3.09 1.58-1.602 5.184-4.962 5.336-5.103l.584-.545 3.587 3.64-6.006 5.847c-.555.56-1.214.858-1.902.858zm4.273-8.022c-1.108 1.04-3.522 3.314-4.705 4.512-.38.384-.498.843-.326 1.262.142.35.44.572.758.572.306 0 .575-.205.748-.38l4.797-4.674-1.272-1.292zm0 0" fill="#fff"/><path d="M27.282 49.24c-.364-.372-.828-.614-1.32-.7-.124-.346-.32-.66-.585-.924-.272-.275-.605-.478-.97-.595-.085-.475-.307-.927-.667-1.294C23.285 45.262 22.652 45 22 45s-1.283.263-1.734.724l-2.972 3.008c-.6.61-.87 1.484-.74 2.393.108.732.467 1.434 1.008 1.985l2.37 2.406c.673.68 1.547 1.063 2.406 1.063.614 0 1.186-.193 1.653-.556l.082-.064.076-.073.788-.788 2.327-2.358c.47-.487.72-1.11.72-1.762 0-.65-.248-1.268-.7-1.74zm-1.186 2.316l-2.32 2.348-.787.788c-.177.137-.402.21-.652.21-.427 0-.88-.208-1.237-.568l-2.366-2.405c-.296-.302-.49-.672-.546-1.045-.056-.388.042-.732.273-.966l2.975-3.014c.15-.152.36-.23.566-.23.21 0 .416.078.57.23.31.316.31.833 0 1.15l-3.175 3.22.628.64 3.062-3.107c.152-.154.358-.23.566-.23.208 0 .416.076.567.23.314.313.314.833 0 1.152l-3.06 3.105.592.6 3.21-3.26c.152-.155.36-.232.57-.232.21 0 .415.077.566.23.148.154.235.357.235.575 0 .218-.086.422-.234.576zm-.693 17.225c-.52 0-1.3-.155-2.032-.894-1.606-1.633-5.416-5.585-5.432-5.602l-.4-.435-2.296-.188-.217-.23-7.985-8.293c-1.446-1.872-1.925-3.502-1.485-4.92.584-1.892 2.553-2.516 2.636-2.54l.586-.192 12.78 13.165 5.583 5.663c.817.83 1.072 1.9.678 2.863-.39.955-1.36 1.6-2.415 1.6zm-9.41-8.737l2.318.19.83.903c.08.083 3.83 3.97 5.398 5.563.607.61 1.51.44 1.752-.16.172-.418-.08-.795-.317-1.036l-5.588-5.67L8.34 47.426c-.39.196-.996.603-1.21 1.298-.267.86.12 1.974 1.15 3.315l7.714 8.003zM6.49 69c-.993 0-1.89-.63-2.284-1.606-.43-1.04-.17-2.226.684-3.09 1.58-1.602 5.184-4.962 5.336-5.103l.584-.545 3.587 3.64-6.006 5.847c-.555.56-1.214.858-1.902.858zm4.273-8.022c-1.108 1.04-3.522 3.314-4.705 4.512-.38.384-.498.843-.326 1.262.142.35.44.572.758.572.306 0 .575-.205.748-.38l4.797-4.674-1.272-1.292zm0 0" fill="#67747C"/><path d="M27.282 9.24c-.364-.372-.828-.614-1.32-.7-.124-.346-.32-.66-.585-.924-.272-.275-.605-.478-.97-.595-.085-.475-.307-.927-.667-1.294C23.285 5.262 22.652 5 22 5s-1.283.263-1.734.724l-2.972 3.008c-.6.61-.87 1.484-.74 2.393.108.732.467 1.434 1.008 1.985l2.37 2.406c.673.68 1.547 1.063 2.406 1.063.614 0 1.186-.193 1.653-.556l.082-.064.076-.073.788-.788 2.327-2.358c.47-.487.72-1.11.72-1.762 0-.65-.248-1.268-.7-1.74zm-1.186 2.316l-2.32 2.348-.787.788c-.177.137-.402.21-.652.21-.427 0-.88-.208-1.237-.568l-2.366-2.405c-.296-.302-.49-.672-.546-1.045-.056-.388.042-.732.273-.966l2.975-3.014c.15-.152.36-.23.566-.23.21 0 .416.078.57.23.31.316.31.833 0 1.15l-3.175 3.22.628.64 3.062-3.107c.152-.154.358-.23.566-.23.208 0 .416.076.567.23.314.313.314.833 0 1.152l-3.06 3.105.592.6 3.21-3.26c.152-.155.36-.232.57-.232.21 0 .415.077.566.23.148.154.235.357.235.575 0 .218-.086.422-.234.576zm-.693 17.225c-.52 0-1.3-.155-2.032-.894-1.606-1.633-5.416-5.585-5.432-5.602l-.4-.435-2.296-.188-.217-.23-7.985-8.293c-1.446-1.872-1.925-3.502-1.485-4.92.584-1.892 2.553-2.516 2.636-2.54l.586-.192 12.78 13.165 5.583 5.663c.817.83 1.072 1.9.678 2.863-.39.955-1.36 1.6-2.415 1.6zm-9.41-8.737l2.318.19.83.903c.08.083 3.83 3.97 5.398 5.563.607.61 1.51.44 1.752-.16.172-.418-.08-.795-.317-1.036l-5.588-5.67L8.34 7.426c-.39.196-.996.603-1.21 1.298-.267.86.12 1.974 1.15 3.315l7.714 8.003zM6.49 29c-.993 0-1.89-.63-2.284-1.606-.43-1.04-.17-2.226.684-3.09 1.58-1.602 5.184-4.962 5.336-5.103l.584-.545 3.587 3.64-6.006 5.847c-.555.56-1.214.858-1.902.858zm4.273-8.022c-1.108 1.04-3.522 3.314-4.705 4.512-.38.384-.498.843-.326 1.262.142.35.44.572.758.572.306 0 .575-.205.748-.38l4.797-4.674-1.272-1.292zm0 0" fill="#3B444F"/><path d="M27.282 169.24c-.364-.372-.828-.614-1.32-.7-.124-.346-.32-.66-.585-.924-.272-.275-.605-.478-.97-.595-.085-.475-.307-.927-.667-1.294-.455-.464-1.088-.726-1.74-.726s-1.283.263-1.734.724l-2.972 3.008c-.6.61-.87 1.484-.74 2.393.108.732.467 1.434 1.008 1.985l2.37 2.406c.673.68 1.547 1.063 2.406 1.063.614 0 1.186-.193 1.653-.556l.082-.064.076-.073.788-.788 2.327-2.358c.47-.487.72-1.11.72-1.762 0-.65-.248-1.268-.7-1.74zm-1.186 2.316l-2.32 2.348-.787.788c-.177.137-.402.21-.652.21-.427 0-.88-.208-1.237-.568l-2.366-2.405c-.296-.302-.49-.672-.546-1.045-.056-.388.042-.732.273-.966l2.975-3.014c.15-.152.36-.23.566-.23.21 0 .416.078.57.23.31.316.31.833 0 1.15l-3.175 3.22.628.64 3.062-3.107c.152-.154.358-.23.566-.23.208 0 .416.076.567.23.314.313.314.833 0 1.152l-3.06 3.105.592.6 3.21-3.26c.152-.155.36-.232.57-.232.21 0 .415.077.566.23.148.154.235.357.235.575 0 .218-.086.422-.234.576zm-.693 17.225c-.52 0-1.3-.155-2.032-.894-1.606-1.633-5.416-5.585-5.432-5.602l-.4-.435-2.296-.188-.217-.23-7.985-8.293c-1.446-1.872-1.925-3.502-1.485-4.92.584-1.892 2.553-2.516 2.636-2.54l.586-.192 12.78 13.165 5.583 5.663c.817.83 1.072 1.9.678 2.863-.39.955-1.36 1.6-2.415 1.6zm-9.41-8.737l2.318.19.83.903c.08.083 3.83 3.97 5.398 5.563.607.61 1.51.44 1.752-.16.172-.418-.08-.795-.317-1.036l-5.588-5.67L8.34 167.426c-.39.196-.996.603-1.21 1.298-.267.86.12 1.974 1.15 3.315l7.714 8.003zM6.49 189c-.993 0-1.89-.63-2.284-1.606-.43-1.04-.17-2.226.684-3.09 1.58-1.602 5.184-4.962 5.336-5.103l.584-.545 3.587 3.64-6.006 5.847c-.555.56-1.214.858-1.902.858zm4.273-8.022c-1.108 1.04-3.522 3.314-4.705 4.512-.38.384-.498.843-.326 1.262.142.35.44.572.758.572.306 0 .575-.205.748-.38l4.797-4.674-1.272-1.292zm0 0" fill="#47A899"/></g></svg>