<svg width="32" height="232" viewBox="0 0 32 232" xmlns="http://www.w3.org/2000/svg"><g fill="none"><path d="M15.986 8c2.238 0 4.133.777 5.685 2.33C23.23 11.87 24 13.762 24 16s-.762 4.114-2.286 5.628c-1.61 1.58-3.52 2.372-5.728 2.372-2.162 0-4.038-.785-5.628-2.357C8.788 20.07 8 18.19 8 16c0-2.18.787-4.072 2.358-5.67C11.91 8.776 13.786 8 15.986 8zm.028 1.443c-1.82 0-3.357.643-4.614 1.928-1.304 1.33-1.956 2.87-1.956 4.63 0 1.78.647 3.32 1.942 4.6 1.295 1.3 2.838 1.948 4.628 1.948 1.78 0 3.333-.652 4.657-1.957 1.26-1.22 1.89-2.75 1.89-4.586 0-1.83-.64-3.37-1.91-4.63-1.266-1.285-2.81-1.927-4.63-1.927zm-3.57 5.428c.15-.98.547-1.74 1.185-2.27.63-.54 1.41-.81 2.32-.81 1.257 0 2.257.406 3 1.215.742.81 1.113 1.848 1.113 3.114 0 1.227-.387 2.25-1.157 3.063-.77.816-1.77 1.22-3 1.22-.905 0-1.686-.27-2.343-.81-.655-.544-1.05-1.315-1.184-2.315h2.02c.047.97.632 1.458 1.756 1.458.56 0 1.014-.24 1.357-.73.342-.483.513-1.132.513-1.94 0-.848-.156-1.493-.47-1.936-.315-.443-.767-.664-1.358-.664-1.07 0-1.67.473-1.8 1.415h.58l-1.58 1.58-1.588-1.586h.628zm0 0" fill="#3B444F"/><path d="M15.986 48c2.238 0 4.133.776 5.685 2.328C23.23 51.87 24 53.762 24 56c0 2.24-.762 4.114-2.286 5.63-1.61 1.58-3.52 2.37-5.728 2.37-2.162 0-4.038-.785-5.628-2.357C8.788 60.07 8 58.19 8 56c0-2.18.787-4.072 2.358-5.672C11.91 48.776 13.786 48 15.986 48zm.028 1.443c-1.82 0-3.357.643-4.614 1.928-1.304 1.33-1.956 2.87-1.956 4.63 0 1.78.647 3.32 1.942 4.6 1.295 1.3 2.838 1.948 4.628 1.948 1.78 0 3.333-.65 4.657-1.956 1.26-1.22 1.89-2.75 1.89-4.587 0-1.827-.64-3.37-1.91-4.63-1.266-1.284-2.81-1.926-4.63-1.926zm-3.57 5.428c.15-.98.547-1.74 1.185-2.27.63-.54 1.41-.81 2.32-.81 1.257 0 2.257.407 3 1.216.742.81 1.113 1.85 1.113 3.115 0 1.227-.387 2.25-1.157 3.064-.77.813-1.77 1.22-3 1.22-.905 0-1.686-.27-2.343-.814-.655-.546-1.05-1.318-1.184-2.317h2.02c.047.97.632 1.457 1.756 1.457.56 0 1.014-.242 1.357-.73.342-.484.513-1.13.513-1.94 0-.85-.156-1.493-.47-1.937-.315-.442-.767-.663-1.358-.663-1.07 0-1.67.47-1.8 1.415h.58L13.4 56.46l-1.586-1.586h.628zm0 0" fill="#67737B"/><path d="M15.986 88c2.238 0 4.133.776 5.685 2.33C23.23 91.87 24 93.76 24 96c0 2.24-.762 4.114-2.286 5.63-1.61 1.58-3.52 2.37-5.728 2.37-2.162 0-4.038-.785-5.628-2.357C8.788 100.07 8 98.19 8 96c0-2.18.787-4.072 2.358-5.67C11.91 88.776 13.786 88 15.986 88zm.028 1.443c-1.82 0-3.357.642-4.614 1.928-1.304 1.33-1.956 2.87-1.956 4.63 0 1.78.647 3.32 1.942 4.6 1.295 1.3 2.838 1.95 4.628 1.95 1.78 0 3.333-.65 4.657-1.958 1.26-1.22 1.89-2.75 1.89-4.587 0-1.83-.64-3.37-1.91-4.63-1.266-1.284-2.81-1.926-4.63-1.926zm-3.57 5.428c.15-.98.547-1.74 1.185-2.27.63-.54 1.41-.81 2.32-.81 1.257 0 2.257.407 3 1.216.742.81 1.113 1.85 1.113 3.116 0 1.228-.387 2.25-1.157 3.064-.77.813-1.77 1.22-3 1.22-.905 0-1.686-.272-2.343-.815-.655-.542-1.05-1.314-1.184-2.314h2.02c.047.973.632 1.46 1.756 1.46.56 0 1.014-.243 1.357-.73.342-.485.513-1.132.513-1.942 0-.846-.156-1.492-.47-1.935-.315-.443-.767-.665-1.358-.665-1.07 0-1.67.473-1.8 1.416h.58l-1.58 1.58-1.59-1.585h.63zm0 0" fill="#fff"/><path d="M15.986 128c2.238 0 4.133.776 5.685 2.328C23.23 131.87 24 133.762 24 136c0 2.238-.762 4.114-2.286 5.63-1.61 1.58-3.52 2.37-5.728 2.37-2.162 0-4.038-.786-5.628-2.357C8.788 140.07 8 138.19 8 136c0-2.18.787-4.07 2.358-5.672 1.552-1.552 3.428-2.328 5.628-2.328zm.028 1.443c-1.82 0-3.357.642-4.614 1.928-1.304 1.33-1.956 2.87-1.956 4.63 0 1.78.647 3.32 1.942 4.6 1.295 1.3 2.838 1.95 4.628 1.95 1.78 0 3.333-.65 4.657-1.957 1.26-1.22 1.89-2.75 1.89-4.586 0-1.827-.64-3.37-1.91-4.63-1.266-1.284-2.81-1.926-4.63-1.926zm-3.57 5.428c.15-.98.547-1.74 1.185-2.27.63-.54 1.41-.81 2.32-.81 1.257 0 2.257.406 3 1.215.742.81 1.113 1.848 1.113 3.114 0 1.227-.387 2.25-1.157 3.064-.77.814-1.77 1.22-3 1.22-.905 0-1.686-.27-2.343-.814-.655-.543-1.05-1.316-1.184-2.315h2.02c.047.97.632 1.458 1.756 1.458.56 0 1.014-.243 1.357-.728.342-.488.513-1.135.513-1.945 0-.85-.156-1.494-.47-1.937-.315-.442-.767-.664-1.358-.664-1.07 0-1.67.47-1.8 1.412h.58l-1.587 1.588-1.585-1.583h.63zm0 0" fill="#206FAC"/></g></svg>