<svg width="32" height="232" viewBox="0 0 32 232" xmlns="http://www.w3.org/2000/svg"><g fill="none"><path d="M24.505 149.877H7.09c-.552 0-1.075-.22-1.475-.62-.397-.403-.615-.94-.615-1.514l1.08-18.462 2.93-.01c.43-2.526 2.22-6.267 6.788-6.267 4.598 0 6.462 3.754 6.936 6.273l2.704-.01.176 2.062.985 16.37c0 .622-.22 1.16-.62 1.56-.39.4-.915.624-1.477.624zM7.62 130.937l-.986 16.856c.002.04.023.172.13.283.062.062.173.136.326.136h17.415c.123 0 .236-.047.323-.133.093-.098.137-.21.137-.34l-1.025-16.81-2.665.01-.065-.76c-.02-.226-.555-5.518-5.413-5.518-4.8 0-5.236 5.273-5.254 5.498l-.054.78-1.427-.01-1.446.008zm12.87 14.645h-9.715c-.403 0-.785-.16-1.075-.448-.296-.303-.457-.693-.457-1.108l.622-10.63 11.475-.06.128 1.492.55 9.148c.007.456-.154.852-.45 1.153-.277.284-.66.45-1.077.45zm-9.084-10.527l-.52 8.887 9.492-.024-.534-8.907-8.44.048zm7.667-4.092h-6.348l.065-.673c.107-1.14.882-3.29 3.034-3.29 2.125 0 2.99 2.136 3.15 3.263l.1.7zm-4.943-1.227h3.464c-.236-.648-.745-1.507-1.77-1.507-1.038 0-1.496.862-1.694 1.503zm0 0" fill="#206FAC"/><path d="M24.505 109.877H7.09c-.552 0-1.075-.22-1.475-.62-.397-.403-.615-.94-.615-1.514L6.08 89.28l2.93-.014C9.44 86.74 11.23 83 15.797 83c4.598 0 6.462 3.753 6.936 6.272l2.704-.01.176 2.062.985 16.37c0 .622-.218 1.16-.617 1.56-.39.4-.912.624-1.474.624zM7.62 90.937l-.986 16.856c.002.04.023.172.13.283.062.062.173.136.326.136h17.415c.123 0 .236-.047.323-.133.093-.098.137-.21.137-.34L23.94 90.93l-2.665.01-.065-.76c-.02-.225-.555-5.517-5.413-5.517-4.8 0-5.236 5.273-5.254 5.498l-.054.78-1.427-.01-1.446.01zm12.87 14.645h-9.715c-.403 0-.785-.16-1.075-.448-.296-.303-.457-.693-.457-1.108l.622-10.63 11.475-.06.128 1.492.55 9.148c.007.456-.154.852-.45 1.153-.277.284-.66.45-1.077.45zm-9.084-10.527l-.52 8.887 9.492-.024-.534-8.907-8.44.048zm7.667-4.092h-6.348l.065-.673c.107-1.14.882-3.29 3.034-3.29 2.125 0 2.99 2.136 3.15 3.263l.1.7zm-4.943-1.227h3.464c-.236-.648-.745-1.507-1.77-1.507-1.038 0-1.496.862-1.694 1.503zm0 0" fill="#fff"/><path d="M24.505 69.877H7.09c-.552 0-1.075-.22-1.475-.62-.397-.403-.615-.94-.615-1.514L6.08 49.28l2.93-.014C9.44 46.74 11.23 43 15.797 43c4.598 0 6.462 3.753 6.936 6.272l2.704-.01.176 2.062.985 16.37c0 .622-.218 1.16-.617 1.56-.39.4-.912.624-1.474.624zM7.62 50.937l-.986 16.856c.002.04.023.172.13.283.062.062.173.136.326.136h17.415c.123 0 .236-.047.323-.133.093-.098.137-.21.137-.34L23.94 50.93l-2.665.01-.065-.76c-.02-.225-.555-5.517-5.413-5.517-4.8 0-5.236 5.273-5.254 5.498l-.054.78-1.427-.01-1.446.01zM20.49 65.58h-9.715c-.403 0-.785-.16-1.075-.448-.296-.303-.457-.693-.457-1.108l.622-10.63 11.475-.06.128 1.492.55 9.148c.007.456-.154.852-.45 1.153-.277.287-.66.453-1.077.453zm-9.084-10.527l-.52 8.887 9.492-.024-.534-8.907-8.44.042zm7.667-4.092h-6.348l.065-.67c.107-1.14.882-3.29 3.034-3.29 2.125 0 2.99 2.136 3.15 3.263l.1.7zm-4.943-1.224h3.464c-.236-.648-.745-1.507-1.77-1.507-1.038 0-1.496.864-1.694 1.505zm0 0" fill="#67747C"/><path d="M24.505 29.877H7.09c-.552 0-1.075-.22-1.475-.62-.397-.403-.615-.94-.615-1.514L6.08 9.28l2.93-.014C9.44 6.74 11.23 3 15.797 3c4.598 0 6.462 3.753 6.936 6.272l2.704-.01.176 2.062.985 16.37c0 .622-.218 1.16-.617 1.56-.39.4-.912.624-1.474.624zM7.62 10.937l-.986 16.856c.002.04.023.172.13.283.062.062.173.136.326.136h17.415c.123 0 .236-.047.323-.133.093-.098.137-.21.137-.34L23.94 10.93l-2.665.01-.065-.76c-.02-.225-.555-5.517-5.413-5.517-4.8 0-5.236 5.273-5.254 5.498l-.054.78-1.427-.01-1.446.01zM20.49 25.58h-9.715c-.403 0-.785-.16-1.075-.448-.296-.303-.457-.693-.457-1.108l.622-10.63 11.475-.06.128 1.492.55 9.148c.007.456-.154.852-.45 1.153-.277.287-.66.453-1.077.453zm-9.084-10.527l-.52 8.887 9.492-.024-.534-8.907-8.44.042zm7.667-4.092h-6.348l.065-.67c.107-1.14.882-3.29 3.034-3.29 2.125 0 2.99 2.136 3.15 3.263l.1.7zM14.13 9.74h3.464c-.236-.648-.745-1.507-1.77-1.507-1.038 0-1.496.865-1.694 1.506zm0 0" fill="#3B444F"/><path d="M24.505 189.877H7.09c-.552 0-1.075-.22-1.475-.62-.397-.403-.615-.94-.615-1.514l1.08-18.462 2.93-.01c.43-2.526 2.22-6.267 6.788-6.267 4.598 0 6.462 3.754 6.936 6.273l2.704-.01.176 2.062.985 16.37c0 .622-.22 1.16-.62 1.56-.39.4-.915.624-1.477.624zM7.62 170.937l-.986 16.856c.002.04.023.172.13.283.062.062.173.136.326.136h17.415c.123 0 .236-.047.323-.133.093-.098.137-.21.137-.34l-1.025-16.81-2.665.01-.065-.76c-.02-.226-.555-5.518-5.413-5.518-4.8 0-5.236 5.273-5.254 5.498l-.054.78-1.427-.01-1.446.008zm12.87 14.645h-9.715c-.403 0-.785-.16-1.075-.448-.296-.303-.457-.693-.457-1.108l.622-10.63 11.475-.06.128 1.492.55 9.148c.007.456-.154.852-.45 1.153-.277.284-.66.45-1.077.45zm-9.084-10.527l-.52 8.887 9.492-.024-.534-8.907-8.44.048zm7.667-4.092h-6.348l.065-.673c.107-1.14.882-3.29 3.034-3.29 2.125 0 2.99 2.136 3.15 3.263l.1.7zm-4.943-1.227h3.464c-.236-.648-.745-1.507-1.77-1.507-1.038 0-1.496.862-1.694 1.503zm0 0" fill="#FF708E"/></g></svg>