<svg width="32" height="232" viewBox="0 0 32 232" xmlns="http://www.w3.org/2000/svg"><title>shop-basket-line</title><g fill="none"><path d="M18.89 125.708c.42 0 .833.183 1.108.53l5.925 7.48h2.933c.767 0 1.393.606 1.393 1.356 0 .75-.627 1.36-1.394 1.36h-.45l-2.057 9.97c-.1.488-.602.888-1.113.888H6.857c-.512 0-1.012-.4-1.115-.887l-2.055-9.97h-.543c-.767 0-1.394-.61-1.394-1.36 0-.75.627-1.357 1.394-1.357h3.134l5.928-7.48c.274-.348.687-.53 1.104-.53.296 0 .595.092.85.283.606.46.72 1.312.25 1.908l-4.613 5.82H22.4l-4.61-5.82c-.47-.596-.357-1.45.25-1.907.253-.19.552-.282.85-.282zm3.56 13.984h.744c.513 0 .93-.408.93-.907v-.813c0-.5-.417-.903-.93-.903h-.745c-.512 0-.926.402-.926.902v.813c0 .5.414.907.925.907zm-4.454 0h.745c.514 0 .928-.408.928-.907v-.813c0-.5-.414-.903-.927-.903h-.744c-.512 0-.925.402-.925.902v.813c0 .5.414.907.926.907zm-4.548 0h.743c.513 0 .93-.408.93-.907v-.813c0-.5-.417-.903-.93-.903h-.742c-.513 0-.925.402-.925.902v.813c0 .5.412.907.925.907zm-4.453 0h.744c.51 0 .926-.408.926-.907v-.813c0-.5-.415-.903-.927-.903h-.745c-.515 0-.927.402-.927.902v.813c0 .5.412.907.927.907zm13.455 4.612h.745c.513 0 .93-.403.93-.904v-.813c0-.5-.417-.906-.93-.906h-.745c-.51 0-.925.408-.925.907v.813c0 .5.414.904.925.904zm-4.453 0h.745c.513 0 .927-.403.927-.904v-.813c0-.5-.415-.906-.928-.906h-.745c-.512 0-.925.408-.925.907v.813c0 .5.413.904.925.904zm-4.548 0h.742c.512 0 .93-.403.93-.904v-.813c0-.5-.418-.906-.93-.906h-.743c-.514 0-.926.408-.926.907v.813c0 .5.412.904.925.904zm-4.454 0h.744c.512 0 .927-.403.927-.904v-.813c0-.5-.415-.906-.927-.906h-.744c-.515 0-.927.408-.927.907v.813c0 .5.41.904.926.904zM18.893 124c-.69 0-1.37.227-1.92.638-.374.283-.665.633-.87 1.02-.203-.386-.495-.735-.87-1.018-.55-.413-1.23-.64-1.92-.64-.982 0-1.89.435-2.49 1.192l-5.402 6.82H3.148c-1.734 0-3.145 1.372-3.145 3.062 0 1.38.938 2.55 2.226 2.934l1.8 8.733c.27 1.29 1.487 2.26 2.83 2.26H25.24c1.35 0 2.565-.97 2.83-2.26l1.808-8.764c1.235-.414 2.124-1.558 2.124-2.902 0-1.69-1.41-3.063-3.144-3.063h-2.073l-5.4-6.818c-.602-.757-1.51-1.192-2.492-1.192zm-5.525 8.01l2.433-3.07c.118-.148.22-.304.305-.464.085.16.186.314.303.462l2.433 3.073h-5.47zm0 0" fill="#206FAC"/><path d="M18.89 85.708c.42 0 .833.183 1.108.53l5.925 7.48h2.933c.767 0 1.393.606 1.393 1.356 0 .75-.627 1.36-1.394 1.36h-.45l-2.057 9.97c-.1.488-.602.888-1.113.888H6.857c-.512 0-1.012-.4-1.115-.887l-2.055-9.97h-.543c-.767 0-1.394-.61-1.394-1.36 0-.75.627-1.357 1.394-1.357h3.134l5.928-7.48c.274-.348.687-.53 1.104-.53.296 0 .595.092.85.283.606.46.72 1.312.25 1.908l-4.613 5.82H22.4l-4.61-5.82c-.47-.596-.357-1.45.25-1.907.253-.19.552-.282.85-.282zm3.56 13.984h.744c.513 0 .93-.408.93-.907v-.813c0-.5-.417-.903-.93-.903h-.745c-.512 0-.926.402-.926.902v.813c0 .5.414.907.925.907zm-4.454 0h.745c.514 0 .928-.408.928-.907v-.813c0-.5-.414-.903-.927-.903h-.744c-.512 0-.925.402-.925.902v.813c0 .5.414.907.926.907zm-4.548 0h.743c.513 0 .93-.408.93-.907v-.813c0-.5-.417-.903-.93-.903h-.742c-.513 0-.925.402-.925.902v.813c0 .5.412.907.925.907zm-4.453 0h.744c.51 0 .926-.408.926-.907v-.813c0-.5-.415-.903-.927-.903h-.745c-.515 0-.927.402-.927.902v.813c0 .5.412.907.927.907zm13.455 4.612h.745c.513 0 .93-.403.93-.904v-.813c0-.5-.417-.906-.93-.906h-.745c-.51 0-.925.408-.925.907v.813c0 .5.414.904.925.904zm-4.453 0h.745c.513 0 .927-.403.927-.904v-.813c0-.5-.415-.906-.928-.906h-.745c-.512 0-.925.408-.925.907v.813c0 .5.413.904.925.904zm-4.548 0h.742c.512 0 .93-.403.93-.904v-.813c0-.5-.418-.906-.93-.906h-.743c-.514 0-.926.408-.926.907v.813c0 .5.412.904.925.904zm-4.454 0h.744c.512 0 .927-.403.927-.904v-.813c0-.5-.415-.906-.927-.906h-.744c-.515 0-.927.408-.927.907v.813c0 .5.41.904.926.904zM18.893 84c-.69 0-1.37.227-1.92.638-.374.283-.665.633-.87 1.02-.203-.386-.495-.735-.87-1.018-.55-.413-1.23-.64-1.92-.64-.982 0-1.89.435-2.49 1.192l-5.402 6.82H3.148c-1.734 0-3.145 1.372-3.145 3.062 0 1.38.938 2.55 2.226 2.934l1.8 8.733c.27 1.29 1.487 2.26 2.83 2.26H25.24c1.35 0 2.565-.97 2.83-2.26l1.808-8.764c1.235-.414 2.124-1.558 2.124-2.902 0-1.69-1.41-3.063-3.144-3.063h-2.073l-5.4-6.818c-.602-.757-1.51-1.192-2.492-1.192zm-5.525 8.01l2.433-3.07c.118-.148.22-.304.305-.464.085.16.186.314.303.462l2.433 3.073h-5.47zm0 0" fill="#fff"/><path d="M18.89 45.708c.42 0 .833.183 1.108.53l5.925 7.48h2.933c.767 0 1.393.606 1.393 1.356 0 .75-.627 1.36-1.394 1.36h-.45l-2.057 9.97c-.1.488-.602.888-1.113.888H6.857c-.512 0-1.012-.4-1.115-.887l-2.055-9.97h-.543c-.767 0-1.394-.61-1.394-1.36 0-.75.627-1.357 1.394-1.357h3.134l5.928-7.48c.274-.348.687-.53 1.104-.53.296 0 .595.092.85.283.606.46.72 1.312.25 1.908l-4.613 5.82H22.4l-4.61-5.82c-.47-.596-.357-1.45.25-1.907.253-.19.552-.282.85-.282zm3.56 13.984h.744c.513 0 .93-.408.93-.907v-.813c0-.5-.417-.903-.93-.903h-.745c-.512 0-.926.402-.926.902v.813c0 .5.414.907.925.907zm-4.454 0h.745c.514 0 .928-.408.928-.907v-.813c0-.5-.414-.903-.927-.903h-.744c-.512 0-.925.402-.925.902v.813c0 .5.414.907.926.907zm-4.548 0h.743c.513 0 .93-.408.93-.907v-.813c0-.5-.417-.903-.93-.903h-.742c-.513 0-.925.402-.925.902v.813c0 .5.412.907.925.907zm-4.453 0h.744c.51 0 .926-.408.926-.907v-.813c0-.5-.415-.903-.927-.903h-.745c-.515 0-.927.402-.927.902v.813c0 .5.412.907.927.907zm13.455 4.612h.745c.513 0 .93-.403.93-.904v-.813c0-.5-.417-.906-.93-.906h-.745c-.51 0-.925.408-.925.907v.813c0 .5.414.904.925.904zm-4.453 0h.745c.513 0 .927-.403.927-.904v-.813c0-.5-.415-.906-.928-.906h-.745c-.512 0-.925.408-.925.907v.813c0 .5.413.904.925.904zm-4.548 0h.742c.512 0 .93-.403.93-.904v-.813c0-.5-.418-.906-.93-.906h-.743c-.514 0-.926.408-.926.907v.813c0 .5.412.904.925.904zm-4.454 0h.744c.512 0 .927-.403.927-.904v-.813c0-.5-.415-.906-.927-.906h-.744c-.515 0-.927.408-.927.907v.813c0 .5.41.904.926.904zM18.893 44c-.69 0-1.37.227-1.92.638-.374.283-.665.633-.87 1.02-.203-.386-.495-.735-.87-1.018-.55-.413-1.23-.64-1.92-.64-.982 0-1.89.435-2.49 1.192l-5.402 6.82H3.148c-1.734 0-3.145 1.372-3.145 3.062 0 1.38.938 2.55 2.226 2.934l1.8 8.733c.27 1.29 1.487 2.26 2.83 2.26H25.24c1.35 0 2.565-.97 2.83-2.26l1.808-8.764c1.235-.414 2.124-1.558 2.124-2.902 0-1.69-1.41-3.063-3.144-3.063h-2.073l-5.4-6.818c-.602-.757-1.51-1.192-2.492-1.192zm-5.525 8.01l2.433-3.07c.118-.148.22-.304.305-.464.085.16.186.314.303.462l2.433 3.073h-5.47zm0 0" fill="#67737B"/><path d="M18.89 5.708c.42 0 .833.183 1.108.53l5.925 7.48h2.933c.767 0 1.393.606 1.393 1.356 0 .75-.627 1.36-1.394 1.36h-.45l-2.057 9.97c-.1.488-.602.888-1.113.888H6.857c-.512 0-1.012-.4-1.115-.887l-2.055-9.97h-.543c-.767 0-1.394-.61-1.394-1.36 0-.75.627-1.357 1.394-1.357h3.134l5.928-7.48c.274-.348.687-.53 1.104-.53.296 0 .595.092.85.283.606.46.72 1.312.25 1.908l-4.613 5.82H22.4l-4.61-5.82c-.47-.596-.357-1.45.25-1.907.253-.19.552-.282.85-.282zm3.56 13.984h.744c.513 0 .93-.408.93-.907v-.813c0-.5-.417-.903-.93-.903h-.745c-.512 0-.926.402-.926.902v.813c0 .5.414.907.925.907zm-4.454 0h.745c.514 0 .928-.408.928-.907v-.813c0-.5-.414-.903-.927-.903h-.744c-.512 0-.925.402-.925.902v.813c0 .5.414.907.926.907zm-4.548 0h.743c.513 0 .93-.408.93-.907v-.813c0-.5-.417-.903-.93-.903h-.742c-.513 0-.925.402-.925.902v.813c0 .5.412.907.925.907zm-4.453 0h.744c.51 0 .926-.408.926-.907v-.813c0-.5-.415-.903-.927-.903h-.745c-.515 0-.927.402-.927.902v.813c0 .5.412.907.927.907zm13.455 4.612h.745c.513 0 .93-.403.93-.904v-.813c0-.5-.417-.906-.93-.906h-.745c-.51 0-.925.408-.925.907v.813c0 .5.414.904.925.904zm-4.453 0h.745c.513 0 .927-.403.927-.904v-.813c0-.5-.415-.906-.928-.906h-.745c-.512 0-.925.408-.925.907v.813c0 .5.413.904.925.904zm-4.548 0h.742c.512 0 .93-.403.93-.904v-.813c0-.5-.418-.906-.93-.906h-.743c-.514 0-.926.408-.926.907v.813c0 .5.412.904.925.904zm-4.454 0h.744c.512 0 .927-.403.927-.904v-.813c0-.5-.415-.906-.927-.906h-.744c-.515 0-.927.408-.927.907v.813c0 .5.41.904.926.904zM18.893 4c-.69 0-1.37.227-1.92.638-.374.283-.665.633-.87 1.02-.203-.386-.495-.735-.87-1.018-.55-.413-1.23-.64-1.92-.64-.982 0-1.89.435-2.49 1.192l-5.402 6.82H3.148c-1.734 0-3.145 1.372-3.145 3.062 0 1.38.938 2.55 2.226 2.934l1.8 8.733c.27 1.29 1.487 2.26 2.83 2.26H25.24c1.35 0 2.565-.97 2.83-2.26l1.808-8.764c1.235-.414 2.124-1.558 2.124-2.902 0-1.69-1.41-3.063-3.144-3.063h-2.073l-5.4-6.818C20.784 4.435 19.876 4 18.894 4zm-5.525 8.01L15.8 8.94c.118-.148.22-.304.305-.464.085.16.186.314.303.462l2.433 3.073h-5.47zm0 0" fill="#3A434E"/></g></svg>