<svg width="32" height="232" viewBox="0 0 32 232" xmlns="http://www.w3.org/2000/svg"><g fill="none"><path d="M25.915 170.4l-.12-1.444-2.668.012-.433.006.015-.14-.02-.162c-.11-3.704-3.066-6.67-6.697-6.67-3.71 0-6.706 3.083-6.708 6.887H9.3l.02.15-.733.002-2.448.014L5 188.553c0 .386.14.753.413 1.024.27.27.617.424.99.424h19.19c.373 0 .73-.15.993-.42.266-.27.415-.64.415-1.025L25.92 170.4zm-13.828-1.512l.002-.023v-.042c.04-2.182 1.77-3.94 3.903-3.946 2.155.005 3.9 1.796 3.904 4.01h.01l.01.097-7.85.04.017-.136zm9.633 16.106c-.143.154-.34.237-.553.237H10.46c-.212 0-.403-.08-.554-.233-.148-.152-.23-.355-.23-.57l.633-10.88 1.37-.005 1.393-.01 5.33-.03 1.39-.004 1.485-.014.072.815.604 10.13c0 .214-.083.417-.235.57zm0 0" fill="#FF708E"/><path d="M25.915 130.4l-.12-1.444-2.668.012-.433.006.015-.14-.02-.162c-.11-3.704-3.066-6.67-6.697-6.67-3.71 0-6.706 3.083-6.708 6.887H9.3l.02.15-.733.002-2.448.014L5 148.553c0 .386.14.753.413 1.024.27.27.617.424.99.424h19.19c.373 0 .73-.15.993-.42.266-.27.415-.64.415-1.025L25.92 130.4zm-13.828-1.512l.002-.023v-.042c.04-2.182 1.77-3.94 3.903-3.946 2.155.005 3.9 1.796 3.904 4.01h.01l.01.097-7.85.04.017-.136zm9.633 16.106c-.143.154-.34.237-.553.237H10.46c-.212 0-.403-.08-.554-.233-.148-.152-.23-.355-.23-.57l.633-10.88 1.37-.005 1.393-.01 5.33-.03 1.39-.004 1.485-.014.072.815.604 10.13c0 .214-.083.417-.235.57zm0 0" fill="#206FAC"/><path d="M25.915 90.4l-.12-1.444-2.668.012-.433.006.015-.14-.02-.162c-.11-3.704-3.066-6.67-6.697-6.67-3.71 0-6.706 3.083-6.708 6.887H9.3l.02.15-.733.002-2.448.014L5 108.553c0 .386.14.753.413 1.024.27.27.617.424.99.424h19.19c.373 0 .73-.15.993-.42.266-.27.415-.64.415-1.025L25.92 90.4zm-13.828-1.512l.002-.023v-.042c.04-2.182 1.77-3.94 3.903-3.946 2.155.005 3.9 1.796 3.904 4.01h.01l.01.097-7.85.04.017-.136zm9.633 16.106c-.143.154-.34.237-.553.237H10.46c-.212 0-.403-.08-.554-.233-.148-.152-.23-.355-.23-.57l.633-10.88 1.37-.005 1.393-.01 5.33-.03 1.39-.004 1.485-.014.072.815.604 10.13c0 .214-.083.417-.235.57zm0 0" fill="#fff"/><path d="M25.915 50.4l-.12-1.444-2.668.012-.433.006.015-.14-.02-.162c-.11-3.704-3.066-6.67-6.697-6.67-3.71 0-6.706 3.083-6.708 6.887H9.3l.02.15-.733.002-2.448.014L5 68.553c0 .386.14.753.413 1.024.27.27.617.424.99.424h19.19c.373 0 .73-.15.993-.42.266-.27.415-.64.415-1.025L25.92 50.4zm-13.828-1.512l.002-.023v-.042c.04-2.182 1.77-3.94 3.903-3.946 2.155.005 3.9 1.796 3.904 4.01h.01l.01.097-7.85.04.017-.136zm9.633 16.106c-.143.154-.34.237-.553.237H10.46c-.212 0-.403-.08-.554-.233-.148-.152-.23-.355-.23-.57l.633-10.88 1.37-.005 1.393-.01 5.33-.03 1.39-.004 1.485-.014.072.815.604 10.13c0 .214-.083.417-.235.57zm0 0" fill="#67747C"/><path d="M25.915 10.4l-.12-1.444-2.668.012-.433.006.015-.14-.02-.162c-.11-3.704-3.066-6.67-6.697-6.67-3.71 0-6.706 3.083-6.708 6.887H9.3l.02.15-.733.002-2.448.014L5 28.553c0 .386.14.753.413 1.024.27.27.617.424.99.424h19.19c.373 0 .73-.15.993-.42.266-.27.415-.64.415-1.025L25.92 10.4zM12.087 8.887l.002-.023v-.04c.04-2.183 1.77-3.94 3.903-3.947 2.155.005 3.9 1.796 3.904 4.01h.01l.01.097-7.85.04.017-.136zm9.633 16.106c-.143.154-.34.237-.553.237H10.46c-.212 0-.403-.083-.554-.236-.148-.152-.23-.355-.23-.57l.633-10.88 1.37-.005 1.393-.01 5.33-.03 1.39-.008 1.485-.014.072.813.604 10.13c0 .216-.083.42-.235.57zm0 0" fill="#3B444F"/></g></svg>