<svg width="22" height="32" viewBox="0 0 22 32" xmlns="http://www.w3.org/2000/svg"><title>shopping--pin</title><g fill="none"><path d="M15.484 29.984c0 1.105-2.015 2-4.5 2-2.486 0-4.5-.895-4.5-2 0-1.104 2.014-2 4.5-2 2.485 0 4.5.896 4.5 2" fill-opacity=".2" fill="#1D508D"/><path d="M10.983.016c6.077 0 11 4.362 11 10.92 0 6.407-5.55 9.16-8.504 13.256-2.42 3.346-2.497 5.824-2.497 5.824s-.018-2.49-2.494-5.824c-3.04-4.097-8.506-6.66-8.506-13.257 0-6.56 4.925-10.92 11-10.92" fill="#FF708E"/><path d="M15.783 7.913l-.06-.678-1.288.003h-.21l.01-.06-.01-.08c-.055-1.745-1.48-3.142-3.24-3.144C9.19 3.956 7.74 5.404 7.74 7.2h.004l.008.072-.354.002-1.18.007-.555 9.19c0 .18.07.355.2.482.127.13.298.2.48.2h9.282c.182 0 .35-.07.482-.2.126-.127.2-.3.196-.48l-.523-8.56zM9.095 7.2v-.03c.02-1.03.856-1.858 1.89-1.86 1.04.002 1.887.845 1.888 1.89h.004l.008.045-3.8.02.01-.065zm4.66 7.596c-.072.07-.167.107-.268.107h-5.18c-.1 0-.196-.037-.266-.107-.075-.076-.114-.175-.114-.273l.31-5.13.658-.002.676-.003 2.58-.01.67-.003.72-.004.035.376.293 4.777c0 .098-.04.197-.114.273zm0 0" fill="#fff"/></g></svg>