<svg width="32" height="232" viewBox="0 0 32 232" xmlns="http://www.w3.org/2000/svg"><title>spell-check</title><g fill="none"><path d="M20.135 132.43c.913 0 1.786-.19 2.317-.516l-.313-1.588c-.492.3-1.037.477-1.676.477-.98 0-1.623-.625-1.623-1.75 0-1.02.56-1.725 1.57-1.725.558 0 1.17.204 1.674.488l.41-1.573c-.572-.326-1.418-.53-2.303-.53-2.125 0-3.488 1.316-3.488 3.406 0 2.142 1.336 3.31 3.434 3.31zm-7.426-.014c1.715 0 3.174-1.33 3.174-3.418 0-2.01-1.132-3.286-2.698-3.286-.804 0-1.39.45-1.786.857V123l-2.1.258v9.172l1.976-.27c.41.15 1.008.256 1.432.256zm-1.31-4.6c.286-.258.6-.433 1.064-.433.857 0 1.322.637 1.322 1.723 0 1.045-.517 1.75-1.418 1.75-.396 0-.722-.096-.967-.258v-2.782zM2 130.68c0 .977.845 1.75 1.933 1.75.873 0 1.377-.434 1.826-.963h.04c.286.692.967 1.057 2.344.88l.204-1.49c-.435-.042-.517-.082-.517-.517l.016-1.873c.026-1.763-.698-2.755-2.89-2.755-1.2 0-2.25.396-2.917.747l.436 1.533c.736-.366 1.5-.637 2.154-.637.774 0 1.116.297 1.116.963v.12C2.898 128.524 2 129.487 2 130.68zm3.745-.055c-.217.245-.558.42-.98.42-.463 0-.79-.27-.79-.676 0-.56.476-.803 1.77-.954v1.21zM27.182 130l-14.45 14.387-7.753-7.72-2.82 2.807L12.732 150 30 132.805 27.18 130zm0 0" fill="#206FAC"/><path d="M20.135 92.43c.913 0 1.786-.19 2.317-.516l-.313-1.588c-.492.3-1.037.477-1.676.477-.98 0-1.623-.625-1.623-1.75 0-1.02.56-1.725 1.57-1.725.558 0 1.17.204 1.674.488l.41-1.573c-.572-.326-1.418-.53-2.303-.53-2.125 0-3.488 1.316-3.488 3.406 0 2.142 1.336 3.31 3.434 3.31zm-7.426-.014c1.715 0 3.174-1.33 3.174-3.418 0-2.01-1.132-3.286-2.698-3.286-.804 0-1.39.45-1.786.857V83l-2.1.258v9.172l1.976-.27c.41.15 1.008.256 1.432.256zm-1.31-4.6c.286-.258.6-.433 1.064-.433.857 0 1.322.637 1.322 1.723 0 1.045-.517 1.75-1.418 1.75-.396 0-.722-.096-.967-.258v-2.782zM2 90.68c0 .977.845 1.75 1.933 1.75.873 0 1.377-.434 1.826-.963h.04c.286.692.967 1.057 2.344.88l.204-1.49c-.435-.042-.517-.082-.517-.517l.016-1.873c.026-1.763-.698-2.755-2.89-2.755-1.2 0-2.25.396-2.917.747l.436 1.533c.736-.366 1.5-.637 2.154-.637.774 0 1.116.297 1.116.963v.12C2.898 88.524 2 89.487 2 90.68zm3.745-.055c-.217.245-.558.42-.98.42-.463 0-.79-.27-.79-.676 0-.56.476-.803 1.77-.954v1.21zM27.182 90l-14.45 14.387-7.753-7.72-2.82 2.807L12.732 110 30 92.805 27.18 90zm0 0" fill="#fff"/><path d="M20.135 52.43c.913 0 1.786-.19 2.317-.516l-.313-1.588c-.492.3-1.037.477-1.676.477-.98 0-1.623-.625-1.623-1.75 0-1.02.56-1.725 1.57-1.725.558 0 1.17.204 1.674.488l.41-1.573c-.572-.326-1.418-.53-2.303-.53-2.125 0-3.488 1.316-3.488 3.406 0 2.142 1.336 3.31 3.434 3.31zm-7.426-.014c1.715 0 3.174-1.33 3.174-3.418 0-2.01-1.132-3.286-2.698-3.286-.804 0-1.39.45-1.786.857V43l-2.1.258v9.172l1.976-.27c.41.15 1.008.256 1.432.256zm-1.31-4.6c.286-.258.6-.433 1.064-.433.857 0 1.322.637 1.322 1.723 0 1.045-.517 1.75-1.418 1.75-.396 0-.722-.096-.967-.258v-2.782zM2 50.68c0 .977.845 1.75 1.933 1.75.873 0 1.377-.434 1.826-.963h.04c.286.692.967 1.057 2.344.88l.204-1.49c-.435-.042-.517-.082-.517-.517l.016-1.873c.026-1.763-.698-2.755-2.89-2.755-1.2 0-2.25.396-2.917.747l.436 1.533c.736-.366 1.5-.637 2.154-.637.774 0 1.116.297 1.116.963v.12C2.898 48.524 2 49.487 2 50.68zm3.745-.055c-.217.245-.558.42-.98.42-.463 0-.79-.27-.79-.676 0-.56.476-.803 1.77-.954v1.21zM27.182 50l-14.45 14.387-7.753-7.72-2.82 2.807L12.732 70 30 52.805 27.18 50zm0 0" fill="#67737B"/><path d="M20.135 12.43c.913 0 1.786-.19 2.317-.516l-.313-1.588c-.492.3-1.037.477-1.676.477-.98 0-1.623-.625-1.623-1.75 0-1.02.56-1.725 1.57-1.725.558 0 1.17.204 1.674.488l.41-1.573c-.572-.326-1.418-.53-2.303-.53-2.125 0-3.488 1.316-3.488 3.406 0 2.142 1.336 3.31 3.434 3.31zm-7.426-.014c1.715 0 3.174-1.33 3.174-3.418 0-2.01-1.132-3.286-2.698-3.286-.804 0-1.39.45-1.786.857V3l-2.1.258v9.172l1.976-.27c.41.15 1.008.256 1.432.256zm-1.31-4.6c.286-.258.6-.433 1.064-.433.857 0 1.322.637 1.322 1.723 0 1.045-.517 1.75-1.418 1.75-.396 0-.722-.096-.967-.258V7.816zM2 10.68c0 .977.845 1.75 1.933 1.75.873 0 1.377-.434 1.826-.963h.04c.286.692.967 1.057 2.344.88l.204-1.49c-.435-.042-.517-.082-.517-.517l.016-1.873c.026-1.763-.698-2.755-2.89-2.755-1.2 0-2.25.396-2.917.747l.436 1.533c.736-.366 1.5-.637 2.154-.637.774 0 1.116.297 1.116.963v.12C2.898 8.524 2 9.487 2 10.68zm3.745-.055c-.217.245-.558.42-.98.42-.463 0-.79-.27-.79-.676 0-.56.476-.803 1.77-.954v1.21zM27.182 10l-14.45 14.387-7.753-7.72-2.82 2.807L12.732 30 30 12.805 27.18 10zm0 0" fill="#3A434E"/></g></svg>