<svg width="32" height="232" viewBox="0 0 32 232" xmlns="http://www.w3.org/2000/svg"><title>subway</title><g fill="none"><path d="M13.552 131.188c0-1.176 1.058-1.945 2.604-1.945 2.433 0 3.035.908 4.865.908 1.518 0 2.54-1.076 2.54-2.548 0-2.088-2.54-3.602-7.12-3.602-4.757 0-9.015 2.452-9.015 7.662 0 4.338 3.062 5.543 6.023 6.452 3.243 1.01 5.423 1.378 5.423 3.19 0 1.183-.807 2.253-3.026 2.253-2.925 0-4.758-1.375-6.166-1.375-1.727 0-2.677 1.408-2.677 2.893C7 147.76 12.074 149 15.42 149c5.322 0 9.583-2.484 9.583-7.998 0-4.533-2.993-6.047-6.092-7.02-3.947-1.245-5.356-1.408-5.356-2.794zm0 0" fill="#206FAC"/><path d="M13.552 91.188c0-1.176 1.058-1.945 2.604-1.945 2.433 0 3.035.908 4.865.908 1.518 0 2.54-1.076 2.54-2.548 0-2.088-2.54-3.602-7.12-3.602-4.757 0-9.015 2.452-9.015 7.662 0 4.338 3.062 5.543 6.023 6.452 3.243 1.01 5.423 1.378 5.423 3.19 0 1.183-.807 2.253-3.026 2.253-2.925 0-4.758-1.375-6.166-1.375-1.727 0-2.677 1.408-2.677 2.893C7 107.76 12.074 109 15.42 109c5.322 0 9.583-2.484 9.583-7.998 0-4.533-2.993-6.047-6.092-7.02-3.947-1.245-5.356-1.408-5.356-2.794zm0 0" fill="#fff"/><path d="M13.552 51.188c0-1.176 1.058-1.945 2.604-1.945 2.433 0 3.035.908 4.865.908 1.518 0 2.54-1.076 2.54-2.548 0-2.088-2.54-3.602-7.12-3.602-4.757 0-9.015 2.452-9.015 7.662 0 4.338 3.062 5.543 6.023 6.452 3.243 1.01 5.423 1.378 5.423 3.19 0 1.183-.807 2.253-3.026 2.253-2.925 0-4.758-1.375-6.166-1.375C7.95 62.182 7 63.59 7 65.075 7 67.76 12.074 69 15.42 69 20.74 69 25 66.516 25 61.002c0-4.533-2.993-6.047-6.092-7.02-3.947-1.245-5.356-1.408-5.356-2.794zm0 0" fill="#67737B"/><path d="M13.552 11.188c0-1.176 1.058-1.945 2.604-1.945 2.433 0 3.035.908 4.865.908 1.518 0 2.54-1.076 2.54-2.548C23.56 5.514 21.02 4 16.44 4c-4.757 0-9.015 2.452-9.015 7.662 0 4.338 3.062 5.543 6.023 6.452 3.243 1.01 5.423 1.378 5.423 3.19 0 1.183-.807 2.253-3.026 2.253-2.925 0-4.758-1.375-6.166-1.375C7.95 22.182 7 23.59 7 25.075 7 27.76 12.074 29 15.42 29 20.74 29 25 26.516 25 21.002c0-4.533-2.993-6.047-6.092-7.02-3.947-1.245-5.356-1.408-5.356-2.794zm0 0" fill="#3A434E"/></g></svg>