<svg width="32" height="232" viewBox="0 0 32 232" xmlns="http://www.w3.org/2000/svg"><g fill="none"><path d="M6.14 136.755c.15-.09.38-.247.79-.52l4.092-2.77c.18-.12.525-.09.68.053l.983.918c.038.026.073.078.07.135l-.083.136-4.482 3.37c-.36.276-.568.667-.564 1.08.004.414.22.805.59 1.07l2.292 1.645c.223.16.533.16.756.004 1.095-.774 2.408-1.163 3.908-1.163 2.61 0 4.91 1.188 4.93 1.193.266.147.588.215.92.215.526 0 1.033-.177 1.384-.492L24 140.202c.323-.286.508-.692.5-1.107 0-.42-.194-.815-.528-1.102l-10.58-9.033c-.603-.515-1.656-.576-2.317-.143l-6.936 4.61c-.17.073-.326.176-.49.32-.79.728-.86 1.962-.153 2.755.646.73 1.84.84 2.637.253zM23.416 127c-2.107 0-3.822 1.717-3.822 3.853s1.715 3.86 3.822 3.86c2.12 0 3.836-1.724 3.836-3.86S25.537 127 23.417 127zM4.17 146.836l.06-.014c.913-.275 2.592.028 3.208.55 1.403 1.208 2.337 1.763 4.168 1.32 1.06-.25 1.794-.875 2.34-1.337l.42-.344c.383-.28.83-.41 1.398-.41l.21.003c.44.01.93.39 1.532.848.74.576 1.658 1.29 3.004 1.515l.158.013.43.027c1.46 0 2.532-.824 3.394-1.493l.053-.052c.844-.663 1.278-.79 1.788-.79l.245.008c.14.007.64.038 1.22.223.114.026.28.07.48.07.954 0 1.722-.765 1.722-1.712 0-.71-.45-1.35-1.115-1.59l-.067-.024c-.773-.257-1.523-.355-2.02-.388-1.97-.15-3.335.69-4.382 1.51l-.1.084c-.515.407-.928.725-1.3.725h-.008c-.415-.068-.868-.42-1.393-.83-.868-.674-1.955-1.516-3.514-1.572l-.28-.003c-1.374 0-2.53.36-3.52 1.11l-.415.33-.164.133c-.324.278-.652.563-.897.624-.47.117-1.12-.165-1.85-.782-1.52-1.286-3.635-1.672-5.734-1.04l-.09.034c-.69.244-1.146.88-1.146 1.61 0 1.1.98 2.01 2.17 1.645zm0 0" fill="#206FAC"/><path d="M6.14 96.755c.15-.09.38-.247.79-.52l4.092-2.77c.18-.12.525-.09.68.053l.983.918c.038.026.073.078.07.135l-.083.136-4.482 3.37c-.36.276-.568.667-.564 1.08.004.414.22.805.59 1.07l2.292 1.645c.223.16.533.16.756.004 1.095-.774 2.408-1.163 3.908-1.163 2.61 0 4.91 1.188 4.93 1.193.266.147.588.215.92.215.526 0 1.033-.177 1.384-.492L24 100.202c.323-.286.508-.692.5-1.107 0-.42-.194-.815-.528-1.102l-10.58-9.033c-.603-.515-1.656-.576-2.317-.143l-6.936 4.61c-.17.073-.326.176-.49.32-.79.728-.86 1.962-.153 2.755.646.73 1.84.84 2.637.253zM23.416 87c-2.107 0-3.822 1.717-3.822 3.853s1.715 3.86 3.822 3.86c2.12 0 3.836-1.724 3.836-3.86S25.537 87 23.417 87zM4.17 106.836l.06-.014c.913-.275 2.592.028 3.208.55 1.403 1.208 2.337 1.763 4.168 1.32 1.06-.25 1.794-.875 2.34-1.337l.42-.344c.383-.28.83-.41 1.398-.41l.21.003c.44.01.93.39 1.532.848.74.576 1.658 1.29 3.004 1.515l.158.013.43.027c1.46 0 2.532-.824 3.394-1.493l.053-.052c.844-.663 1.278-.79 1.788-.79l.245.008c.14.007.64.038 1.22.223.114.026.28.07.48.07.954 0 1.722-.765 1.722-1.712 0-.71-.45-1.35-1.115-1.59l-.067-.024c-.773-.257-1.523-.355-2.02-.388-1.97-.15-3.335.69-4.382 1.51l-.1.084c-.515.407-.928.725-1.3.725h-.008c-.415-.068-.868-.42-1.393-.83-.868-.674-1.955-1.516-3.514-1.572l-.28-.003c-1.374 0-2.53.36-3.52 1.11l-.415.33-.164.133c-.324.278-.652.563-.897.624-.47.117-1.12-.165-1.85-.782-1.52-1.286-3.635-1.672-5.734-1.04l-.09.034c-.69.244-1.146.88-1.146 1.61 0 1.1.98 2.01 2.17 1.645zm0 0" fill="#fff"/><path d="M6.14 56.755c.15-.09.38-.247.79-.52l4.092-2.77c.18-.12.525-.09.68.053l.983.918c.038.026.073.078.07.135l-.083.136-4.482 3.37c-.36.276-.568.667-.564 1.08.004.414.22.805.59 1.07l2.292 1.645c.223.16.533.16.756.004 1.095-.774 2.408-1.163 3.908-1.163 2.61 0 4.91 1.188 4.93 1.193.266.147.588.215.92.215.526 0 1.033-.177 1.384-.492L24 60.202c.323-.286.508-.692.5-1.107 0-.42-.194-.815-.528-1.102l-10.58-9.033c-.603-.515-1.656-.576-2.317-.143l-6.936 4.61c-.17.073-.326.176-.49.32-.79.728-.86 1.962-.153 2.755.646.73 1.84.84 2.637.253zM23.416 47c-2.107 0-3.822 1.717-3.822 3.853s1.715 3.86 3.822 3.86c2.12 0 3.836-1.724 3.836-3.86S25.537 47 23.417 47zM4.17 66.836l.06-.014c.913-.275 2.592.028 3.208.55 1.403 1.208 2.337 1.763 4.168 1.32 1.06-.25 1.794-.875 2.34-1.337l.42-.344c.383-.28.83-.41 1.398-.41l.21.003c.44.01.93.39 1.532.848.74.576 1.658 1.29 3.004 1.515l.158.013.43.027c1.46 0 2.532-.824 3.394-1.493l.053-.052c.844-.663 1.278-.79 1.788-.79l.245.008c.14.007.64.038 1.22.223.114.026.28.07.48.07.954 0 1.722-.765 1.722-1.712 0-.71-.45-1.35-1.115-1.59l-.067-.024c-.773-.257-1.523-.355-2.02-.388-1.97-.15-3.335.69-4.382 1.51l-.1.084c-.515.407-.928.725-1.3.725h-.008c-.415-.068-.868-.42-1.393-.83-.868-.674-1.955-1.516-3.514-1.572l-.28-.003c-1.374 0-2.53.36-3.52 1.11l-.415.33-.164.133c-.324.278-.652.563-.897.624-.47.117-1.12-.165-1.85-.782-1.52-1.286-3.635-1.672-5.734-1.04l-.09.034c-.693.243-1.15.88-1.15 1.606 0 1.1.98 2.012 2.17 1.648zm0 0" fill="#67737B"/><path d="M6.14 16.755c.15-.09.38-.247.79-.52l4.092-2.77c.18-.12.525-.09.68.053l.983.918c.038.026.073.078.07.135l-.083.136-4.482 3.37c-.36.276-.568.667-.564 1.08.004.414.22.805.59 1.07l2.292 1.645c.223.16.533.16.756.004 1.095-.774 2.408-1.163 3.908-1.163 2.61 0 4.91 1.188 4.93 1.193.266.147.588.215.92.215.526 0 1.033-.177 1.384-.492L24 20.202c.323-.286.508-.692.5-1.107 0-.42-.194-.815-.528-1.102L13.392 8.96c-.603-.515-1.656-.576-2.317-.143l-6.936 4.61c-.17.073-.326.176-.49.32-.79.728-.86 1.962-.153 2.755.646.73 1.84.84 2.637.253zM23.416 7c-2.107 0-3.822 1.717-3.822 3.853s1.715 3.86 3.822 3.86c2.12 0 3.836-1.724 3.836-3.86S25.537 7 23.417 7zM4.17 26.836l.06-.014c.913-.275 2.592.028 3.208.55 1.403 1.208 2.337 1.763 4.168 1.32 1.06-.25 1.794-.875 2.34-1.337l.42-.344c.383-.28.83-.41 1.398-.41l.21.003c.44.01.93.39 1.532.848.74.576 1.658 1.29 3.004 1.515l.158.013.43.027c1.46 0 2.532-.824 3.394-1.493l.053-.052c.844-.663 1.278-.79 1.788-.79l.245.008c.14.007.64.038 1.22.223.114.026.28.07.48.07.954 0 1.722-.765 1.722-1.712 0-.71-.45-1.35-1.115-1.59l-.067-.024c-.773-.257-1.523-.355-2.02-.388-1.97-.15-3.335.69-4.382 1.51l-.1.084c-.515.407-.928.725-1.3.725h-.008c-.415-.068-.868-.42-1.393-.83-.868-.674-1.955-1.516-3.514-1.572l-.28-.003c-1.374 0-2.53.36-3.52 1.11l-.415.33-.164.133c-.324.278-.652.563-.897.624-.47.117-1.12-.165-1.85-.782-1.52-1.286-3.635-1.672-5.734-1.04l-.09.034c-.693.243-1.15.88-1.15 1.606 0 1.1.98 2.012 2.17 1.648zm0 0" fill="#3A434E"/></g></svg>