<svg width="32" height="232" viewBox="0 0 32 232" xmlns="http://www.w3.org/2000/svg"><g fill="none"><path d="M28.456 135.13c.028-.153.045-.31.045-.47v-8.063c0-1.427-1.17-2.597-2.593-2.597H17.84c-.16 0-.315.016-.468.045-.683-.015-1.373.237-1.89.755L4.257 136.026c-1.01 1.008-1.01 2.66 0 3.67l8.547 8.547c1.01 1.01 2.662 1.01 3.672 0L27.7 137.02c.518-.52.77-1.207.756-1.89zm-7.964-3.12c-1.098-1.097-1.098-2.875 0-3.972 1.095-1.098 2.875-1.098 3.97 0 1.098 1.097 1.098 2.875 0 3.972-1.095 1.098-2.875 1.098-3.97 0zm0 0" fill="#206FAC"/><path d="M28.456 95.13c.028-.153.045-.31.045-.47v-8.063C28.5 85.17 27.33 84 25.908 84H17.84c-.16 0-.315.016-.468.045-.683-.015-1.373.237-1.89.755L4.257 96.026c-1.01 1.008-1.01 2.66 0 3.67l8.547 8.547c1.01 1.01 2.662 1.01 3.672 0L27.7 97.02c.518-.52.77-1.207.756-1.89zm-7.964-3.12c-1.098-1.097-1.098-2.875 0-3.972 1.095-1.098 2.875-1.098 3.97 0 1.098 1.097 1.098 2.875 0 3.972-1.095 1.098-2.875 1.098-3.97 0zm0 0" fill="#fff"/><path d="M28.456 55.13c.028-.153.045-.31.045-.47v-8.063C28.5 45.17 27.33 44 25.908 44H17.84c-.16 0-.315.016-.468.045-.683-.015-1.373.237-1.89.755L4.257 56.026c-1.01 1.008-1.01 2.66 0 3.67l8.547 8.547c1.01 1.01 2.662 1.01 3.672 0L27.7 57.02c.518-.52.77-1.207.756-1.89zm-7.964-3.12c-1.098-1.097-1.098-2.875 0-3.972 1.095-1.098 2.875-1.098 3.97 0 1.098 1.097 1.098 2.875 0 3.972-1.095 1.098-2.875 1.098-3.97 0zm0 0" fill="#67737B"/><path d="M28.456 15.13c.028-.153.045-.31.045-.47V6.597C28.5 5.17 27.33 4 25.908 4H17.84c-.16 0-.315.016-.468.045-.683-.015-1.373.237-1.89.755L4.257 16.026c-1.01 1.008-1.01 2.66 0 3.67l8.547 8.547c1.01 1.01 2.662 1.01 3.672 0L27.7 17.02c.518-.52.77-1.207.756-1.89zm-7.964-3.12c-1.098-1.097-1.098-2.875 0-3.972 1.095-1.098 2.875-1.098 3.97 0 1.098 1.097 1.098 2.875 0 3.972-1.095 1.098-2.875 1.098-3.97 0zm0 0" fill="#3A434E"/></g></svg>