<svg width="32" height="232" viewBox="0 0 32 232" xmlns="http://www.w3.org/2000/svg"><g fill="none"><path d="M28.5 145.074v-6.9c0-.614-.207-1.125-.615-1.542-.412-.41-.91-.617-1.496-.617h-.496l-2.004-5.626c-.187-.5-.427-.92-.72-1.278-.293-.354-.686-.532-1.18-.532h-2.67v-1.98c0-.162-.053-.306-.16-.426-.103-.114-.24-.175-.402-.175h-5.523c-.162 0-.297.06-.402.174-.108.12-.158.264-.158.427v1.98h-2.81c-.494 0-.887.187-1.18.554-.292.364-.533.782-.72 1.254l-2.002 5.625h-.316c-.612 0-1.122.206-1.532.617-.41.417-.615.928-.615 1.54v6.902h1.83c-.023.284-.023.55 0 .792.023.25.033.433.033.553v.14c0 .685.246 1.263.74 1.733.493.47 1.077.708 1.756.708.68 0 1.262-.236 1.76-.707.49-.47.734-1.047.734-1.733v-.14l.016-.41c.013-.153.02-.334.02-.547v-.39h11.04c.023.33.035.624.035.883v.602c0 .684.24 1.262.72 1.732s1.06.708 1.74.708c.704 0 1.298-.236 1.776-.707.48-.47.72-1.047.72-1.733v-.14c0-.12.016-.304.04-.555.024-.243.034-.508.034-.792H28.5zM7.894 138.74c.54 0 1.008.19 1.41.585.397.387.594.865.594 1.432 0 .54-.197 1.013-.595 1.414-.4.405-.868.6-1.41.6-.56 0-1.034-.195-1.422-.6-.383-.4-.58-.87-.58-1.41 0-.57.197-1.045.58-1.432.39-.394.867-.585 1.427-.585zm15.19-3.01H9.092l1.51-4.67h10.97l1.512 4.67zm.738 3.01c.54 0 1.01.19 1.408.585.397.387.596.865.596 1.432 0 .54-.2 1.013-.596 1.414-.398.405-.87.6-1.408.6-.562 0-1.037-.195-1.424-.6-.386-.4-.58-.87-.58-1.41 0-.57.194-1.045.58-1.432.387-.394.862-.585 1.424-.585zm0 0" fill="#206FAC"/><path d="M28.5 105.074v-6.9c0-.614-.207-1.125-.615-1.542-.412-.41-.91-.617-1.496-.617h-.496L23.89 90.39c-.187-.5-.427-.92-.72-1.277-.293-.354-.686-.532-1.18-.532h-2.67V86.6c0-.162-.053-.306-.16-.426-.103-.114-.24-.175-.402-.175h-5.523c-.162 0-.297.06-.402.174-.108.12-.158.264-.158.427v1.98h-2.81c-.494 0-.887.187-1.18.554-.292.364-.533.782-.72 1.254l-2.002 5.625h-.316c-.612 0-1.122.206-1.532.617-.41.417-.615.928-.615 1.54v6.902h1.83c-.023.284-.023.55 0 .792.023.25.033.433.033.553v.14c0 .685.246 1.263.74 1.733.493.47 1.077.708 1.756.708.68 0 1.262-.236 1.76-.707.49-.47.734-1.047.734-1.733v-.14l.016-.41c.013-.153.02-.334.02-.547v-.39h11.04c.023.33.035.624.035.883v.602c0 .684.24 1.262.72 1.732s1.06.708 1.74.708c.704 0 1.298-.236 1.776-.707.48-.47.72-1.047.72-1.733v-.14c0-.12.016-.304.04-.555.024-.243.034-.508.034-.792H28.5zM7.894 98.74c.54 0 1.008.19 1.41.585.397.387.594.865.594 1.432 0 .54-.197 1.013-.595 1.414-.4.405-.868.6-1.41.6-.56 0-1.034-.195-1.422-.6-.383-.4-.58-.87-.58-1.41 0-.57.197-1.045.58-1.432.39-.394.867-.585 1.427-.585zm15.19-3.01H9.092l1.51-4.67h10.97l1.512 4.67zm.738 3.01c.54 0 1.01.19 1.408.585.397.387.596.865.596 1.432 0 .54-.2 1.013-.596 1.414-.398.405-.87.6-1.408.6-.562 0-1.037-.195-1.424-.6-.386-.4-.58-.87-.58-1.41 0-.57.194-1.045.58-1.432.387-.394.862-.585 1.424-.585zm0 0" fill="#fff"/><path d="M28.5 65.074v-6.9c0-.614-.207-1.125-.615-1.542-.412-.41-.91-.617-1.496-.617h-.496L23.89 50.39c-.187-.5-.427-.92-.72-1.277-.293-.354-.686-.532-1.18-.532h-2.67V46.6c0-.162-.053-.306-.16-.426-.103-.114-.24-.175-.402-.175h-5.523c-.162 0-.297.06-.402.174-.108.12-.158.264-.158.427v1.98h-2.81c-.494 0-.887.187-1.18.554-.292.364-.533.782-.72 1.254l-2.002 5.625h-.316c-.612 0-1.122.206-1.532.617-.41.417-.615.928-.615 1.54v6.902h1.83c-.023.284-.023.55 0 .792.023.25.033.433.033.553v.14c0 .685.246 1.263.74 1.733.493.47 1.077.708 1.756.708.68 0 1.262-.236 1.76-.707.49-.47.734-1.047.734-1.733v-.14l.016-.41c.013-.153.02-.334.02-.547v-.39h11.04c.023.33.035.624.035.883v.602c0 .684.24 1.262.72 1.732s1.06.708 1.74.708c.704 0 1.298-.236 1.776-.707.48-.47.72-1.047.72-1.733v-.14c0-.12.016-.304.04-.555.024-.243.034-.508.034-.792H28.5zM7.894 58.74c.54 0 1.008.19 1.41.585.397.387.594.865.594 1.432 0 .54-.197 1.013-.595 1.414-.4.405-.868.6-1.41.6-.56 0-1.034-.195-1.422-.6-.383-.4-.58-.87-.58-1.41 0-.57.197-1.045.58-1.432.39-.394.867-.585 1.427-.585zm15.19-3.01H9.092l1.51-4.67h10.97l1.512 4.67zm.738 3.01c.54 0 1.01.19 1.408.585.397.387.596.865.596 1.432 0 .54-.2 1.013-.596 1.414-.398.405-.87.6-1.408.6-.562 0-1.037-.195-1.424-.6-.386-.4-.58-.87-.58-1.41 0-.57.194-1.045.58-1.432.387-.394.862-.585 1.424-.585zm0 0" fill="#67737B"/><path d="M28.5 25.074v-6.9c0-.614-.207-1.125-.615-1.542-.412-.41-.91-.617-1.496-.617h-.496L23.89 10.39c-.187-.5-.427-.92-.72-1.277-.293-.354-.686-.532-1.18-.532h-2.67V6.6c0-.162-.053-.306-.16-.426-.102-.114-.24-.174-.4-.174h-5.523c-.162 0-.297.06-.402.175-.108.12-.158.264-.158.427v1.98h-2.81c-.494 0-.887.186-1.18.553-.292.364-.533.782-.72 1.254l-2.002 5.624H5.65c-.613 0-1.123.206-1.533.617-.41.418-.615.93-.615 1.54v6.903h1.83c-.023.284-.023.55 0 .792.023.25.033.433.033.553v.14c0 .685.246 1.263.74 1.733.493.47 1.077.71 1.756.71.68 0 1.264-.237 1.76-.708.49-.47.736-1.048.736-1.734v-.14l.016-.41c.013-.153.02-.334.02-.547v-.39h11.04c.023.33.035.625.035.884v.602c0 .684.24 1.262.72 1.732s1.06.708 1.74.708c.704 0 1.298-.236 1.776-.707.48-.47.72-1.048.72-1.734v-.14c0-.12.015-.304.04-.555.023-.242.033-.507.033-.79H28.5zM7.894 18.74c.54 0 1.008.19 1.41.585.397.387.594.865.594 1.432 0 .54-.197 1.013-.595 1.414-.4.405-.868.6-1.41.6-.56 0-1.034-.195-1.422-.6-.383-.4-.58-.87-.58-1.41 0-.57.197-1.045.58-1.432.39-.394.867-.585 1.427-.585zm15.19-3.01H9.092l1.51-4.67h10.97l1.512 4.67zm.738 3.01c.54 0 1.01.19 1.408.585.397.387.596.865.596 1.432 0 .54-.2 1.013-.596 1.414-.398.405-.87.6-1.408.6-.562 0-1.037-.195-1.424-.6-.386-.4-.58-.87-.58-1.41 0-.57.194-1.045.58-1.432.387-.394.862-.585 1.424-.585zm0 0" fill="#3A434E"/></g></svg>