<svg width="32" height="232" viewBox="0 0 32 232" xmlns="http://www.w3.org/2000/svg"><title>thumb--tack</title><g fill="none"><path d="M21.47 138.222c-.036-.973 1.564-2.478 1.564-2.478s1.4-1.474 2.433-1.474l2.16.542c.174 0 .33-.028.49-.092.165-.066.282-.148.4-.246l.09-.06.062-.095c.456-.543.444-1.34-.062-1.847l-6.082-6.08c-.508-.507-1.305-.52-1.846-.064l-.058.028-.096.127c-.098.116-.18.233-.232.35-.08.208-.108.363-.108.52.006.74.545 1.46.545 2.176 0 1.037-1.474 2.437-1.474 2.437s-1.507 1.6-2.478 1.564c-1.96-.073-2.113-.586-3.715-.477-1.133.08-2.117 1.257-2.117 1.257l3.7 4.874-3.43 3.433L8 146.877l.126.122 4.26-3.215 3.43-3.43 4.874 3.7s1.178-.986 1.256-2.12c.11-1.598-.404-1.755-.477-3.713zm0 0" fill="#206FAC"/><path d="M18.968 98.222c-.035-.973 1.565-2.478 1.565-2.478s1.4-1.474 2.433-1.474l2.16.542c.174 0 .33-.028.49-.092.165-.066.282-.148.4-.246l.09-.06.062-.095c.457-.543.445-1.34-.06-1.847l-6.083-6.08c-.508-.507-1.305-.52-1.846-.064l-.06.028-.095.127c-.098.116-.18.233-.232.35-.08.208-.108.363-.108.52.006.74.545 1.46.545 2.176 0 1.037-1.475 2.437-1.475 2.437s-1.507 1.6-2.478 1.564c-1.96-.073-2.113-.586-3.715-.477-1.133.08-2.117 1.257-2.117 1.257l3.7 4.874-3.43 3.433-3.215 4.26.125.122 4.26-3.215 3.43-3.43 4.874 3.7s1.177-.986 1.255-2.12c.11-1.598-.404-1.755-.477-3.713zm0 0" fill="#fff"/><path d="M18.968 58.222c-.035-.973 1.565-2.478 1.565-2.478s1.4-1.474 2.433-1.474l2.16.542c.174 0 .33-.028.49-.092.165-.066.282-.148.4-.246l.09-.06.062-.095c.457-.543.445-1.34-.06-1.847l-6.083-6.08c-.508-.507-1.305-.52-1.846-.064l-.06.028-.095.127c-.098.116-.18.233-.232.35-.08.208-.108.363-.108.52.006.74.545 1.46.545 2.176 0 1.037-1.475 2.437-1.475 2.437s-1.507 1.6-2.478 1.564c-1.96-.073-2.113-.586-3.715-.477-1.133.08-2.117 1.257-2.117 1.257l3.7 4.874-3.43 3.433-3.215 4.26.125.122 4.26-3.215 3.43-3.43 4.874 3.7s1.177-.986 1.255-2.12c.11-1.598-.404-1.755-.477-3.713zm0 0" fill="#67737B"/><path d="M18.968 18.222c-.035-.973 1.565-2.478 1.565-2.478s1.4-1.474 2.433-1.474l2.16.542c.174 0 .33-.028.49-.092.165-.066.282-.148.4-.246l.09-.06.062-.095c.457-.543.445-1.34-.06-1.847l-6.083-6.08c-.508-.507-1.305-.52-1.846-.064l-.06.028-.095.127c-.098.116-.18.233-.232.35-.08.208-.108.363-.108.52.006.74.545 1.46.545 2.176 0 1.037-1.475 2.437-1.475 2.437s-1.507 1.6-2.478 1.564c-1.96-.073-2.113-.586-3.715-.477-1.133.08-2.117 1.257-2.117 1.257l3.7 4.874-3.43 3.433-3.215 4.26.125.122 4.26-3.215 3.43-3.43 4.874 3.7s1.177-.986 1.255-2.12c.11-1.598-.404-1.755-.477-3.713zm0 0" fill="#3A434E"/></g></svg>