<svg width="32" height="232" viewBox="0 0 32 232" xmlns="http://www.w3.org/2000/svg"><title>top-choice</title><g fill="none"><path d="M7.256 9.465h1.42c.84 0 1.31-.446 1.31-1.114 0-.696-.47-1.113-1.31-1.113H3.31C2.47 7.237 2 7.653 2 8.35c0 .67.468 1.115 1.31 1.115h1.42v7.164c0 .845.53 1.276 1.263 1.276.733 0 1.263-.43 1.263-1.278V9.464zM15.396 7c-3.288 0-5.458 2.167-5.458 5.527 0 3.358 2.17 5.528 5.458 5.528 3.293 0 5.46-2.17 5.46-5.528 0-3.36-2.167-5.527-5.46-5.527zm0 8.826c-1.948 0-2.742-1.62-2.742-3.3s.794-3.294 2.742-3.294c1.95 0 2.745 1.615 2.745 3.295s-.792 3.3-2.743 3.3zm14.57-4.992c0-2.393-1.857-3.598-3.805-3.598h-3.104c-.657 0-1.263.432-1.263 1.205v8.19c0 .848.528 1.28 1.263 1.28.734 0 1.262-.43 1.262-1.28v-2.213h1.92c2.402 0 3.728-1.517 3.728-3.58zm-4.29 1.44h-1.358V9.378h1.357c.998 0 1.67.505 1.67 1.456 0 .74-.594 1.44-1.67 1.44zM6.26 24.326c-.357 0-.49.282-1.348.282-.94 0-1.43-.833-1.43-1.803 0-.945.44-1.856 1.55-1.856.53 0 .87.293 1.193.293.355 0 .592-.327.592-.663 0-.728-.99-.97-1.82-.97-1.813 0-2.99 1.34-2.99 3.194C2.01 24.556 3.077 26 4.974 26c.756 0 1.897-.264 1.897-1.032 0-.178-.065-.643-.607-.643zm5.535-4.63c-.398 0-.685.25-.685.738v1.65H8.554v-1.65c0-.49-.287-.737-.686-.737-.398 0-.683.248-.683.737v4.743c0 .488.285.735.683.735.4 0 .686-.248.686-.735v-1.805h2.558v1.805c0 .488.287.735.685.735.397 0 .686-.248.686-.735v-4.743c0-.49-.29-.737-.686-.737zm4.157-.085c-1.785 0-2.963 1.255-2.963 3.195S14.17 26 15.954 26c1.787 0 2.963-1.256 2.963-3.196s-1.176-3.193-2.963-3.193zm0 5.1c-1.058 0-1.49-.936-1.49-1.905 0-.97.432-1.907 1.49-1.907 1.06 0 1.492.938 1.492 1.907 0 .97-.433 1.906-1.492 1.906zm4.157-5.013c-.397 0-.684.248-.684.737v4.743c0 .488.287.735.684.735.4 0 .686-.247.686-.734v-4.743c0-.49-.285-.737-.685-.737zm5.446 4.63c-.357 0-.493.28-1.346.28-.94 0-1.43-.832-1.43-1.802 0-.945.44-1.856 1.55-1.856.533 0 .87.294 1.19.294.357 0 .594-.327.594-.663 0-.73-.988-.97-1.82-.97-1.813 0-2.987 1.34-2.987 3.194 0 1.752 1.066 3.195 2.96 3.195.754 0 1.9-.264 1.9-1.03 0-.18-.07-.645-.61-.645zm3.76.25H27.85V23.43h1.297c.433 0 .685-.248.685-.643 0-.396-.253-.645-.685-.645H27.85v-1.108h1.415c.43 0 .683-.242.683-.645 0-.39-.253-.648-.683-.648h-2.1c-.355 0-.687.252-.687.698v4.722c0 .447.332.696.687.696h2.153c.43 0 .683-.255.683-.642 0-.404-.25-.644-.68-.644zm0 0" fill="#3A434E"/><path d="M7.256 49.465h1.42c.84 0 1.31-.446 1.31-1.114 0-.696-.47-1.113-1.31-1.113H3.31c-.84 0-1.31.417-1.31 1.115 0 .67.468 1.115 1.31 1.115h1.42v7.164c0 .847.53 1.278 1.263 1.278.733 0 1.263-.43 1.263-1.278v-7.165zM15.396 47c-3.288 0-5.458 2.167-5.458 5.527 0 3.358 2.17 5.528 5.458 5.528 3.293 0 5.46-2.17 5.46-5.528 0-3.36-2.167-5.527-5.46-5.527zm0 8.826c-1.948 0-2.742-1.62-2.742-3.3s.794-3.294 2.742-3.294c1.95 0 2.745 1.615 2.745 3.295s-.792 3.3-2.743 3.3zm14.57-4.992c0-2.393-1.857-3.598-3.805-3.598h-3.104c-.657 0-1.263.432-1.263 1.205v8.19c0 .848.528 1.28 1.263 1.28.734 0 1.262-.43 1.262-1.28v-2.213h1.92c2.402 0 3.728-1.517 3.728-3.58zm-4.29 1.44h-1.358v-2.896h1.357c.998 0 1.67.505 1.67 1.456 0 .74-.594 1.44-1.67 1.44zM6.26 64.326c-.357 0-.49.282-1.348.282-.94 0-1.43-.833-1.43-1.803 0-.945.44-1.856 1.55-1.856.53 0 .87.293 1.193.293.355 0 .592-.327.592-.663 0-.728-.99-.97-1.82-.97-1.813 0-2.99 1.34-2.99 3.194C2.01 64.556 3.077 66 4.974 66c.756 0 1.897-.264 1.897-1.032 0-.178-.065-.643-.607-.643zm5.535-4.63c-.398 0-.685.25-.685.738v1.65H8.554v-1.65c0-.49-.287-.737-.686-.737-.398 0-.683.248-.683.737v4.743c0 .488.285.735.683.735.4 0 .686-.248.686-.735v-1.805h2.558v1.805c0 .488.287.735.685.735.397 0 .686-.248.686-.735v-4.743c0-.49-.29-.737-.686-.737zm4.157-.085c-1.785 0-2.963 1.255-2.963 3.195S14.17 66 15.954 66c1.787 0 2.963-1.256 2.963-3.196s-1.176-3.193-2.963-3.193zm0 5.1c-1.058 0-1.49-.936-1.49-1.905 0-.97.432-1.907 1.49-1.907 1.06 0 1.492.938 1.492 1.907 0 .97-.433 1.906-1.492 1.906zm4.157-5.013c-.397 0-.684.248-.684.737v4.743c0 .488.287.735.684.735.4 0 .686-.247.686-.734v-4.743c0-.49-.285-.737-.685-.737zm5.446 4.63c-.357 0-.493.28-1.346.28-.94 0-1.43-.832-1.43-1.802 0-.945.44-1.856 1.55-1.856.533 0 .87.294 1.19.294.357 0 .594-.327.594-.663 0-.73-.988-.97-1.82-.97-1.813 0-2.987 1.34-2.987 3.194 0 1.752 1.066 3.195 2.96 3.195.754 0 1.9-.264 1.9-1.03 0-.18-.07-.645-.61-.645zm3.76.25H27.85V63.43h1.297c.433 0 .685-.248.685-.643 0-.396-.253-.645-.685-.645H27.85v-1.108h1.415c.43 0 .683-.242.683-.645 0-.39-.253-.648-.683-.648h-2.1c-.355 0-.687.252-.687.698v4.722c0 .447.332.696.687.696h2.153c.43 0 .683-.255.683-.642 0-.404-.25-.644-.68-.644zm0 0" fill="#67737B"/><path d="M7.256 89.465h1.42c.84 0 1.31-.446 1.31-1.114 0-.696-.47-1.113-1.31-1.113H3.31c-.84 0-1.31.417-1.31 1.115 0 .67.468 1.115 1.31 1.115h1.42v7.164c0 .847.53 1.278 1.263 1.278.733 0 1.263-.43 1.263-1.278v-7.165zM15.396 87c-3.288 0-5.458 2.167-5.458 5.527 0 3.358 2.17 5.528 5.458 5.528 3.293 0 5.46-2.17 5.46-5.528 0-3.36-2.167-5.527-5.46-5.527zm0 8.826c-1.948 0-2.742-1.62-2.742-3.3s.794-3.294 2.742-3.294c1.95 0 2.745 1.615 2.745 3.295s-.792 3.3-2.743 3.3zm14.57-4.992c0-2.393-1.857-3.598-3.805-3.598h-3.104c-.657 0-1.263.432-1.263 1.205v8.19c0 .848.528 1.28 1.263 1.28.734 0 1.262-.43 1.262-1.28v-2.213h1.92c2.402 0 3.728-1.517 3.728-3.58zm-4.29 1.44h-1.358v-2.896h1.357c.998 0 1.67.505 1.67 1.456 0 .74-.594 1.44-1.67 1.44zM6.26 104.326c-.357 0-.49.282-1.348.282-.94 0-1.43-.833-1.43-1.803 0-.945.44-1.856 1.55-1.856.53 0 .87.293 1.193.293.355 0 .592-.327.592-.663 0-.728-.99-.97-1.82-.97-1.813 0-2.99 1.34-2.99 3.194 0 1.752 1.067 3.195 2.963 3.195.756 0 1.897-.265 1.897-1.033 0-.178-.066-.643-.608-.643zm5.535-4.63c-.398 0-.685.25-.685.738v1.65H8.554v-1.65c0-.49-.287-.737-.686-.737-.398 0-.683.248-.683.737v4.743c0 .488.285.735.683.735.4 0 .686-.248.686-.735v-1.805h2.558v1.805c0 .488.287.735.685.735.397 0 .686-.248.686-.735v-4.743c0-.49-.29-.737-.686-.737zm4.157-.085c-1.785 0-2.963 1.255-2.963 3.195S14.17 106 15.954 106c1.787 0 2.963-1.256 2.963-3.196s-1.176-3.193-2.963-3.193zm0 5.1c-1.058 0-1.49-.936-1.49-1.905 0-.97.432-1.907 1.49-1.907 1.06 0 1.492.938 1.492 1.907 0 .97-.433 1.906-1.492 1.906zm4.157-5.013c-.397 0-.684.248-.684.737v4.743c0 .488.287.735.684.735.4 0 .686-.247.686-.734v-4.743c0-.49-.285-.737-.685-.737zm5.446 4.63c-.357 0-.493.28-1.346.28-.94 0-1.43-.832-1.43-1.802 0-.945.44-1.856 1.55-1.856.533 0 .87.294 1.19.294.357 0 .594-.327.594-.663 0-.73-.988-.97-1.82-.97-1.813 0-2.987 1.34-2.987 3.194 0 1.752 1.066 3.195 2.96 3.195.754 0 1.9-.264 1.9-1.03 0-.18-.07-.645-.61-.645zm3.76.25H27.85v-1.145h1.297c.433 0 .685-.248.685-.643 0-.397-.253-.646-.685-.646H27.85v-1.108h1.415c.43 0 .683-.242.683-.645 0-.387-.253-.646-.683-.646h-2.1c-.355 0-.687.252-.687.698v4.722c0 .447.332.696.687.696h2.153c.43 0 .683-.255.683-.642 0-.404-.25-.644-.68-.644zm0 0" fill="#fff"/><path d="M7.256 129.465h1.42c.84 0 1.31-.446 1.31-1.114 0-.696-.47-1.113-1.31-1.113H3.31c-.84 0-1.31.417-1.31 1.115 0 .67.468 1.115 1.31 1.115h1.42v7.164c0 .847.53 1.278 1.263 1.278.733 0 1.263-.43 1.263-1.278v-7.165zm8.14-2.465c-3.288 0-5.458 2.167-5.458 5.527 0 3.358 2.17 5.528 5.458 5.528 3.293 0 5.46-2.17 5.46-5.528 0-3.36-2.167-5.527-5.46-5.527zm0 8.826c-1.948 0-2.742-1.62-2.742-3.3s.794-3.294 2.742-3.294c1.95 0 2.745 1.615 2.745 3.295s-.792 3.3-2.743 3.3zm14.57-4.992c0-2.393-1.857-3.598-3.805-3.598h-3.104c-.657 0-1.263.432-1.263 1.205v8.19c0 .848.528 1.28 1.263 1.28.734 0 1.262-.43 1.262-1.28v-2.213h1.92c2.402 0 3.728-1.517 3.728-3.58zm-4.29 1.44h-1.358v-2.896h1.357c.998 0 1.67.505 1.67 1.456 0 .74-.594 1.44-1.67 1.44zM6.26 144.326c-.357 0-.49.282-1.348.282-.94 0-1.43-.833-1.43-1.803 0-.945.44-1.856 1.55-1.856.53 0 .87.293 1.193.293.355 0 .592-.327.592-.663 0-.728-.99-.97-1.82-.97-1.813 0-2.99 1.34-2.99 3.194 0 1.752 1.067 3.195 2.963 3.195.756 0 1.897-.265 1.897-1.033 0-.178-.066-.643-.608-.643zm5.535-4.63c-.398 0-.685.25-.685.738v1.65H8.554v-1.65c0-.49-.287-.737-.686-.737-.398 0-.683.248-.683.737v4.743c0 .488.285.735.683.735.4 0 .686-.248.686-.735v-1.805h2.558v1.805c0 .488.287.735.685.735.397 0 .686-.248.686-.735v-4.743c0-.49-.29-.737-.686-.737zm4.157-.085c-1.785 0-2.963 1.255-2.963 3.195S14.17 146 15.954 146c1.787 0 2.963-1.256 2.963-3.196s-1.176-3.193-2.963-3.193zm0 5.1c-1.058 0-1.49-.936-1.49-1.905 0-.97.432-1.907 1.49-1.907 1.06 0 1.492.938 1.492 1.907 0 .97-.433 1.906-1.492 1.906zm4.157-5.013c-.397 0-.684.248-.684.737v4.743c0 .488.287.735.684.735.4 0 .686-.247.686-.734v-4.743c0-.49-.285-.737-.685-.737zm5.446 4.63c-.357 0-.493.28-1.346.28-.94 0-1.43-.832-1.43-1.802 0-.945.44-1.856 1.55-1.856.533 0 .87.294 1.19.294.357 0 .594-.327.594-.663 0-.73-.988-.97-1.82-.97-1.813 0-2.987 1.34-2.987 3.194 0 1.752 1.066 3.195 2.96 3.195.754 0 1.9-.264 1.9-1.03 0-.18-.07-.645-.61-.645zm3.76.25H27.85v-1.145h1.297c.433 0 .685-.248.685-.643 0-.397-.253-.646-.685-.646H27.85v-1.108h1.415c.43 0 .683-.242.683-.645 0-.387-.253-.646-.683-.646h-2.1c-.355 0-.687.252-.687.698v4.722c0 .447.332.696.687.696h2.153c.43 0 .683-.255.683-.642 0-.404-.25-.644-.68-.644zm0 0" fill="#206FAC"/></g></svg>