<svg width="59" height="19" viewBox="0 0 59 19" xmlns="http://www.w3.org/2000/svg" xmlns:sketch="http://www.bohemiancoding.com/sketch/ns"><g sketch:type="MSPage" fill="none"><path d="M0 0l5.588 9.305-5.588 9.695h59.034v-19h-59.034z" fill="#288AD6" sketch:type="MSShapeGroup"/><path d="M15.16 7.302v-1.177h-5.929v1.177h2.299v5.698h1.331v-5.698h2.299zm7.755 2.233c0-2.255-1.496-3.575-3.52-3.575-2.035 0-3.542 1.496-3.542 3.619 0 2.255 1.496 3.586 3.531 3.586s3.531-1.507 3.531-3.63zm-1.342.044c0 1.463-.858 2.464-2.167 2.464-1.342 0-2.2-1.001-2.2-2.508 0-1.463.847-2.453 2.156-2.453 1.342 0 2.211.99 2.211 2.497zm7.656-1.155c0-1.342-.935-2.299-2.838-2.299h-2.222v6.875h1.342v-2.134l.781-.011c1.848-.011 2.937-.847 2.937-2.431zm-1.342.044c0 .803-.517 1.243-1.54 1.265l-.858.022v-2.508h.814c1.056 0 1.584.418 1.584 1.221zm10.076-.044c0-1.342-.935-2.299-2.838-2.299h-2.222v6.875h1.342v-2.134l.781-.011c1.848-.011 2.937-.847 2.937-2.431zm-1.342.044c0 .803-.517 1.243-1.54 1.265l-.858.022v-2.508h.814c1.056 0 1.584.418 1.584 1.221zm3.861 4.532v-6.875h-1.331v6.875h1.331zm7.084-6.501c-.594-.33-1.419-.539-2.222-.539-2.145 0-3.586 1.419-3.586 3.619 0 2.255 1.441 3.586 3.553 3.586.781 0 1.639-.209 2.189-.539l-.253-1.232c-.506.352-1.177.616-1.881.616-1.386 0-2.255-.957-2.255-2.475 0-1.496.891-2.42 2.233-2.42.66 0 1.254.187 1.804.55l.418-1.166zm2.541 2.783v-3.157h-1.342v6.875h1.342v-3.146h.011l2.596 3.146h1.639l-2.992-3.498 2.948-3.377h-1.595l-2.596 3.157h-.011z" fill="#fff" sketch:type="MSShapeGroup"/></g></svg>