<svg width="32" height="232" viewBox="0 0 32 232" xmlns="http://www.w3.org/2000/svg"><title>tour--line</title><g fill="none"><path d="M16 123c-7.168 0-13 5.834-13 13s5.832 13 13 13c7.166 0 13-5.832 13-13 0-7.166-5.834-13-13-13zm0 24.016c-6.076 0-11.018-4.943-11.018-11.015 0-6.076 4.942-11.016 11.018-11.016 6.074 0 11.015 4.94 11.015 11.017 0 6.073-4.94 11.016-11.015 11.016zm0-20.078c-4.998 0-9.06 4.066-9.06 9.063 0 4.998 4.062 9.062 9.06 9.062 4.994 0 9.062-4.064 9.062-9.06s-4.068-9.064-9.062-9.064zm-2.965 12.025l3.93-2.133 1.998-3.796-3.793 2-2.135 3.93zM16 143.678c-4.237 0-7.678-3.446-7.678-7.677 0-4.234 3.44-7.678 7.678-7.678 4.232 0 7.68 3.444 7.68 7.68 0 4.23-3.448 7.676-7.68 7.676zm0 0" fill="#206FAC"/><path d="M16 83C8.832 83 3 88.834 3 96s5.832 13 13 13c7.166 0 13-5.832 13-13 0-7.166-5.834-13-13-13zm0 24.016c-6.076 0-11.018-4.943-11.018-11.015 0-6.076 4.942-11.016 11.018-11.016 6.074 0 11.015 4.94 11.015 11.017 0 6.073-4.94 11.016-11.015 11.016zm0-20.078c-4.998 0-9.06 4.066-9.06 9.063 0 4.998 4.062 9.062 9.06 9.062 4.994 0 9.062-4.064 9.062-9.06S20.994 86.937 16 86.937zm-2.965 12.025l3.93-2.133 1.998-3.796-3.793 2-2.135 3.93zM16 103.678c-4.237 0-7.678-3.446-7.678-7.677 0-4.234 3.44-7.678 7.678-7.678 4.232 0 7.68 3.444 7.68 7.68 0 4.23-3.448 7.676-7.68 7.676zm0 0" fill="#fff"/><path d="M16 43C8.832 43 3 48.834 3 56s5.832 13 13 13c7.166 0 13-5.832 13-13 0-7.166-5.834-13-13-13zm0 24.016C9.924 67.016 4.982 62.073 4.982 56c0-6.076 4.942-11.016 11.018-11.016 6.074 0 11.015 4.94 11.015 11.017 0 6.073-4.94 11.016-11.015 11.016zm0-20.078c-4.998 0-9.06 4.066-9.06 9.063C6.94 61 11 65.063 16 65.063c4.994 0 9.062-4.064 9.062-9.06S20.994 46.937 16 46.937zm-2.965 12.025l3.93-2.133 1.998-3.796-3.793 2-2.135 3.93zM16 63.678c-4.237 0-7.678-3.446-7.678-7.677 0-4.234 3.44-7.678 7.678-7.678 4.232 0 7.68 3.444 7.68 7.68 0 4.23-3.448 7.676-7.68 7.676zm0 0" fill="#67747C"/><path d="M16 3C8.832 3 3 8.834 3 16s5.832 13 13 13c7.166 0 13-5.832 13-13 0-7.166-5.834-13-13-13zm0 24.016C9.924 27.016 4.982 22.073 4.982 16 4.982 9.925 9.924 4.985 16 4.985c6.074 0 11.015 4.94 11.015 11.017 0 6.073-4.94 11.016-11.015 11.016zm0-20.078c-4.998 0-9.06 4.066-9.06 9.063C6.94 21 11 25.063 16 25.063c4.994 0 9.062-4.064 9.062-9.06S20.994 6.937 16 6.937zm-2.965 12.025l3.93-2.133 1.998-3.796-3.793 2-2.135 3.93zM16 23.678c-4.237 0-7.678-3.446-7.678-7.677 0-4.234 3.44-7.678 7.678-7.678 4.232 0 7.68 3.444 7.68 7.68 0 4.23-3.448 7.676-7.68 7.676zm0 0" fill="#3B444F"/><path d="M16 163c-7.168 0-13 5.834-13 13s5.832 13 13 13c7.166 0 13-5.832 13-13 0-7.166-5.834-13-13-13zm0 24.016c-6.076 0-11.018-4.943-11.018-11.015 0-6.076 4.942-11.016 11.018-11.016 6.074 0 11.015 4.94 11.015 11.017 0 6.073-4.94 11.016-11.015 11.016zm0-20.078c-4.998 0-9.06 4.066-9.06 9.063 0 4.998 4.062 9.062 9.06 9.062 4.994 0 9.062-4.064 9.062-9.06s-4.068-9.064-9.062-9.064zm-2.965 12.025l3.93-2.133 1.998-3.796-3.793 2-2.135 3.93zM16 183.678c-4.237 0-7.678-3.446-7.678-7.677 0-4.234 3.44-7.678 7.678-7.678 4.232 0 7.68 3.444 7.68 7.68 0 4.23-3.448 7.676-7.68 7.676zm0 0" fill="#16C98D"/></g></svg>