<svg width="32" height="232" viewBox="0 0 32 232" xmlns="http://www.w3.org/2000/svg"><g fill="none"><path d="M23.756 126.68H17.73l.817-2.488h2.764c.605 0 1.095-.494 1.095-1.095 0-.603-.49-1.097-1.09-1.097H10.69c-.603 0-1.094.494-1.094 1.097 0 .6.49 1.095 1.094 1.095h3.263l-.816 2.487H8.244c-1.51 0-2.745 1.002-2.745 2.23v13.93c0 1.192 1.173 2.17 2.63 2.22l-.99 1.595c-.18.254-.277.55-.277.86 0 .814.656 1.482 1.464 1.482.5 0 .963-.256 1.236-.69l2.01-3.24h8.847l2.01 3.24c.276.434.737.69 1.237.69.81 0 1.464-.67 1.464-1.48 0-.313-.093-.61-.274-.863l-.99-1.594c1.455-.05 2.63-1.03 2.63-2.223v-13.93c0-1.227-1.234-2.233-2.744-2.233m-7.76 17.01c-1.157 0-2.1-.902-2.1-2.007 0-1.11.943-2.01 2.1-2.01 1.163 0 2.107.9 2.107 2.01 0 1.106-.945 2.008-2.106 2.008m8.11-6.342c0 .61-.617 1.117-1.37 1.117H9.264c-.755 0-1.37-.506-1.37-1.117v-7.353c0-.61.615-1.115 1.37-1.115h13.47c.755 0 1.37.504 1.37 1.115v7.353" fill="#206FAC"/><path d="M23.756 86.68H17.73l.817-2.488h2.764c.605 0 1.095-.494 1.095-1.095 0-.603-.49-1.097-1.09-1.097H10.69c-.603 0-1.094.494-1.094 1.097 0 .6.49 1.095 1.094 1.095h3.263l-.816 2.487H8.244c-1.51 0-2.745 1.002-2.745 2.23v13.93c0 1.192 1.173 2.17 2.63 2.22l-.99 1.595c-.18.254-.277.55-.277.86 0 .814.656 1.482 1.464 1.482.5 0 .963-.256 1.236-.69l2.01-3.24h8.847l2.01 3.24c.276.434.737.69 1.237.69.81 0 1.464-.67 1.464-1.48 0-.313-.093-.61-.274-.863l-.99-1.594c1.455-.05 2.63-1.03 2.63-2.223V88.91c0-1.226-1.234-2.232-2.744-2.232m-7.76 17.01c-1.157 0-2.1-.902-2.1-2.007 0-1.11.943-2.01 2.1-2.01 1.163 0 2.107.9 2.107 2.01 0 1.11-.945 2.01-2.106 2.01m8.11-6.34c0 .61-.617 1.116-1.37 1.116H9.264c-.755 0-1.37-.506-1.37-1.117v-7.354c0-.61.615-1.115 1.37-1.115h13.47c.755 0 1.37.504 1.37 1.115v7.353" fill="#fff"/><path d="M23.756 46.68H17.73l.817-2.488h2.764c.605 0 1.095-.494 1.095-1.095 0-.603-.49-1.097-1.09-1.097H10.69c-.603 0-1.094.494-1.094 1.097 0 .6.49 1.095 1.094 1.095h3.263l-.816 2.487H8.244c-1.51 0-2.745 1.002-2.745 2.23v13.93c0 1.192 1.173 2.17 2.63 2.22l-.99 1.595c-.18.254-.277.55-.277.86C6.863 68.33 7.52 69 8.33 69c.5 0 .963-.256 1.236-.69l2.01-3.24h8.847l2.01 3.24c.275.434.736.69 1.236.69.81 0 1.462-.67 1.462-1.48 0-.313-.095-.61-.276-.863l-.99-1.594c1.455-.052 2.63-1.03 2.63-2.224V48.91c0-1.226-1.234-2.232-2.744-2.232m-7.76 17.01c-1.158 0-2.1-.902-2.1-2.007 0-1.11.942-2.01 2.1-2.01 1.162 0 2.106.9 2.106 2.01 0 1.11-.945 2.01-2.106 2.01m8.11-6.34c0 .61-.617 1.116-1.37 1.116H9.264c-.755 0-1.37-.506-1.37-1.117v-7.354c0-.61.615-1.115 1.37-1.115h13.47c.755 0 1.37.504 1.37 1.115v7.353" fill="#67737B"/><path d="M23.756 6.68H17.73l.817-2.488h2.764c.605 0 1.095-.494 1.095-1.095 0-.603-.49-1.097-1.09-1.097H10.69c-.603 0-1.094.494-1.094 1.097 0 .6.49 1.095 1.094 1.095h3.263L13.14 6.68H8.244C6.734 6.68 5.5 7.684 5.5 8.91v13.93c0 1.195 1.176 2.173 2.63 2.22l-.99 1.598c-.18.254-.274.55-.274.86 0 .814.656 1.482 1.464 1.482.5 0 .964-.255 1.237-.69l2.01-3.238h8.847l2.01 3.238c.275.435.736.69 1.236.69.81 0 1.465-.668 1.465-1.48 0-.312-.095-.608-.276-.862l-.99-1.594c1.452-.052 2.63-1.03 2.63-2.224V8.91c0-1.226-1.237-2.232-2.747-2.232m-7.76 17.01c-1.158 0-2.1-.902-2.1-2.007 0-1.11.942-2.01 2.1-2.01 1.162 0 2.106.9 2.106 2.01 0 1.11-.944 2.01-2.105 2.01m8.11-6.34c0 .61-.617 1.116-1.37 1.116H9.265c-.756 0-1.372-.506-1.372-1.117V9.992c0-.61.616-1.115 1.372-1.115h13.47c.754 0 1.37.504 1.37 1.115v7.353" fill="#3A434E"/></g></svg>