<svg width="22" height="32" viewBox="0 0 22 32" xmlns="http://www.w3.org/2000/svg"><title>transport--pin</title><g fill="none"><path d="M15.497 29.716c0 1.104-2.016 2-4.5 2-2.486 0-4.5-.896-4.5-2 0-1.105 2.014-2 4.5-2 2.484 0 4.5.895 4.5 2" fill-opacity=".2" fill="#1D508D"/><path d="M10.996.02c6.076 0 11 4.362 11 10.918 0 6.41-5.55 9.16-8.505 13.258-2.417 3.346-2.494 5.823-2.494 5.823s-.017-2.49-2.495-5.824c-3.04-4.098-8.503-6.66-8.503-13.258 0-6.558 4.925-10.92 11-10.92" fill="#3B444F"/><path d="M16.168 6.565c0-.697-.502-1.38-1.36-1.38l-7.623.003c-.858 0-1.36.68-1.36 1.38 0 .674.402 1.374 1.36 1.374L9.6 7.94v7.69c0 1.002.637 1.556 1.496 1.556.856 0 1.498-.556 1.498-1.556V7.94l2.214.004c.957 0 1.36-.702 1.36-1.38" fill="#fff"/></g></svg>