<svg width="32" height="232" viewBox="0 0 32 232" xmlns="http://www.w3.org/2000/svg"><title>video</title><g fill="none"><path d="M30.5 129.752v-1.227c0-1.4-1.15-2.536-2.57-2.536H4.07c-1.42 0-2.57 1.135-2.57 2.535v1.227h3.273v2.64H1.5v3.25h3.273v2.707H1.5v3.262h3.273v2.64H1.5v1.214c0 1.4 1.15 2.535 2.57 2.535h23.86c1.42 0 2.57-1.134 2.57-2.534v-1.214h-3.325v-2.64H30.5v-3.263h-3.325v-2.707H30.5v-3.25h-3.325v-2.64H30.5zm-17.334 11.68v-9.397l7.936 4.7-7.936 4.698zm0 0" fill="#206FAC"/><path d="M30.5 89.752v-1.227c0-1.4-1.15-2.536-2.57-2.536H4.07c-1.42 0-2.57 1.135-2.57 2.535v1.227h3.273v2.64H1.5v3.25h3.273v2.707H1.5v3.262h3.273v2.64H1.5v1.214c0 1.4 1.15 2.535 2.57 2.535h23.86c1.42 0 2.57-1.134 2.57-2.534v-1.214h-3.325v-2.64H30.5V98.35h-3.325v-2.707H30.5v-3.25h-3.325v-2.64H30.5zm-17.334 11.68v-9.397l7.936 4.7-7.936 4.698zm0 0" fill="#fff"/><path d="M30.5 49.752v-1.227c0-1.4-1.15-2.536-2.57-2.536H4.07c-1.42 0-2.57 1.135-2.57 2.535v1.227h3.273v2.64H1.5v3.25h3.273v2.707H1.5v3.262h3.273v2.64H1.5v1.214C1.5 66.866 2.65 68 4.07 68h23.86c1.42 0 2.57-1.134 2.57-2.534v-1.214h-3.325v-2.64H30.5V58.35h-3.325v-2.707H30.5v-3.25h-3.325v-2.64H30.5zm-17.334 11.68v-9.397l7.936 4.7-7.936 4.698zm0 0" fill="#67737B"/><path d="M30.5 9.752V8.525c0-1.4-1.15-2.536-2.57-2.536H4.07c-1.42 0-2.57 1.135-2.57 2.535v1.227h3.273v2.64H1.5v3.25h3.273v2.707H1.5v3.262h3.273v2.64H1.5v1.214C1.5 26.866 2.65 28 4.07 28h23.86c1.42 0 2.57-1.134 2.57-2.534v-1.214h-3.325v-2.64H30.5V18.35h-3.325v-2.707H30.5v-3.25h-3.325v-2.64H30.5zm-17.334 11.68v-9.397l7.936 4.7-7.936 4.698zm0 0" fill="#3A434E"/></g></svg>