<svg width="32" height="232" viewBox="0 0 32 232" xmlns="http://www.w3.org/2000/svg"><desc>Created with Sketch.</desc><g fill="none"><path d="M29.89 15.355h-1.72l1.192-1.2c.21-.212.21-.553 0-.765-.21-.21-.55-.21-.757 0l-1.95 1.965H25.05l1.697-1.71c.21-.212.21-.553 0-.764-.21-.21-.55-.21-.758 0l-2.46 2.48H20.49l4.152-3.9c.184-.174.223-.45.096-.67-.127-.218-.387-.317-.627-.24l-5.154 1.68 1.57-2.435 3.396-.732c.29-.06.473-.348.41-.64-.06-.29-.344-.477-.635-.415l-2.35.505.873-1.354 2.7-.58c.29-.064.473-.35.412-.64-.063-.294-.348-.48-.637-.418l-1.65.36.935-1.454c.16-.25.09-.584-.16-.746-.248-.163-.58-.09-.74.16l-.936 1.45-.353-1.66c-.063-.292-.347-.478-.638-.416-.29.062-.474.35-.41.64l.575 2.717-.872 1.36-.502-2.366c-.06-.29-.343-.476-.633-.414-.29.06-.474.35-.412.64l.727 3.42-1.72 2.67-1.424-5.78c-.06-.24-.274-.41-.52-.41-.247 0-.462.17-.52.41l-1.428 5.78L12.3 9.21l.725-3.42c.062-.29-.123-.58-.412-.64-.29-.063-.575.123-.636.414l-.503 2.366-.873-1.36.58-2.715c.06-.292-.122-.58-.41-.64-.29-.063-.575.123-.637.414L9.78 5.29l-.936-1.455c-.16-.25-.49-.322-.74-.16s-.32.496-.16.746l.938 1.457-1.65-.356c-.29-.06-.575.125-.637.417-.06.29.124.578.414.64l2.696.58.873 1.356-2.35-.506c-.29-.062-.575.124-.637.415-.063.294.12.58.41.64l3.4.734 1.57 2.437-5.16-1.68c-.237-.078-.5.02-.626.24-.127.216-.088.494.096.667l4.15 3.9h-3.04l-2.456-2.48c-.21-.21-.55-.21-.76 0-.208.212-.208.553 0 .764l1.7 1.71H5.275l-1.95-1.964c-.21-.21-.55-.21-.76 0-.21.21-.21.553 0 .763l1.193 1.202h-1.72c-.297 0-.537.24-.537.54 0 .297.24.54.54.54h1.72l-1.192 1.2c-.21.21-.21.55 0 .762.104.106.242.16.38.16.137 0 .273-.054.38-.16l1.95-1.963H6.88l-1.7 1.71c-.21.21-.21.552 0 .763.104.105.242.158.38.158s.273-.053.38-.158l2.455-2.473h3.036l-4.15 3.9c-.18.172-.22.45-.093.667.127.22.39.32.627.24l5.158-1.68L11.402 22l-3.397.73c-.29.063-.475.35-.413.642.06.29.345.476.635.414l2.35-.505-.875 1.35-2.697.58c-.29.06-.474.35-.413.64.062.29.347.477.637.415l1.65-.355-.937 1.458c-.16.25-.09.584.16.746.09.06.19.088.29.088.18 0 .35-.086.45-.245l.94-1.455.354 1.66c.055.254.277.427.524.427l.114-.014c.29-.062.475-.35.413-.64L10.6 25.22l.873-1.356.503 2.365c.054.25.276.423.523.423l.11-.012c.29-.06.474-.35.412-.64l-.726-3.42 1.717-2.67 1.427 5.78c.06.24.275.41.52.41.248 0 .46-.17.52-.41l1.428-5.78 1.72 2.67L18.9 26c-.06.29.124.58.414.64l.112.013c.248 0 .47-.174.524-.427l.503-2.366.873 1.356-.577 2.715c-.064.29.12.58.41.64l.113.014c.247 0 .47-.173.524-.427l.35-1.66.936 1.454c.102.16.274.248.45.248.1 0 .2-.028.29-.087.25-.16.32-.495.16-.744l-.936-1.454 1.65.358c.29.062.575-.123.638-.416.06-.29-.124-.577-.413-.64l-2.7-.58-.87-1.354 2.35.505c.29.064.574-.122.635-.413.06-.29-.123-.58-.412-.64l-3.4-.73-1.568-2.438 5.156 1.683c.24.08.5-.02.628-.24.128-.217.09-.494-.095-.667l-4.152-3.9h3.037l2.458 2.473c.104.105.24.158.38.158.136 0 .274-.05.378-.156.21-.21.21-.552 0-.762l-1.7-1.71h1.606l1.95 1.964c.105.106.242.16.38.16.136 0 .274-.054.378-.16.21-.21.21-.552 0-.763l-1.193-1.2h1.72c.295 0 .535-.243.535-.54 0-.3-.24-.54-.537-.54zm-7.738-3.03l-3.227 3.03h-1.227c-.072-.235-.19-.45-.342-.632l.68-1.055 4.116-1.344zm-6.19 4.317l-.17-.02c-.13-.032-.248-.097-.343-.188-.11-.106-.19-.244-.22-.4l-.015-.14.013-.14c.03-.156.11-.295.216-.4.094-.09.212-.157.343-.188l.17-.02.17.02c.13.03.25.097.343.19.11.103.187.242.216.396l.013.142-.015.14c-.03.156-.108.294-.217.4-.094.09-.212.156-.343.187l-.17.026zm0-8.178l1.15 4.653-.657 1.02c-.156-.045-.32-.07-.492-.07-.17 0-.335.025-.492.07l-.65-1.02 1.147-4.653zm-6.186 3.86l4.116 1.344.68 1.055c-.154.183-.27.397-.344.632h-1.226l-3.226-3.03zm0 7.14l3.226-3.03h1.226c.073.234.19.447.343.63l-.674 1.056-4.116 1.344zm6.187 3.86l-1.148-4.653.656-1.02c.16.05.326.07.497.07.17 0 .336-.02.492-.07l.656 1.02-1.15 4.657zm6.188-3.86l-4.11-1.344-.68-1.055c.153-.184.27-.397.343-.63h1.227l3.226 3.03z" fill="#3A434E"/><path d="M29.89 55.355h-1.72l1.192-1.2c.21-.212.21-.553 0-.765-.21-.21-.55-.21-.757 0l-1.95 1.965H25.05l1.697-1.71c.21-.212.21-.553 0-.764-.21-.21-.55-.21-.758 0l-2.46 2.48H20.49l4.152-3.9c.184-.174.223-.45.096-.67-.127-.218-.387-.317-.627-.24l-5.154 1.68 1.57-2.435 3.396-.732c.29-.06.473-.348.41-.64-.06-.29-.344-.477-.635-.415l-2.35.505.873-1.354 2.7-.58c.29-.064.473-.35.412-.64-.063-.294-.348-.48-.637-.418l-1.65.36.935-1.454c.16-.25.09-.584-.16-.746-.248-.163-.58-.09-.74.16l-.936 1.452-.353-1.66c-.063-.29-.347-.477-.638-.415-.29.06-.474.35-.41.64l.575 2.716-.872 1.356-.502-2.365c-.06-.29-.343-.476-.633-.414-.29.06-.474.35-.412.64l.727 3.42-1.72 2.67-1.424-5.78c-.06-.24-.274-.41-.52-.41-.247 0-.462.17-.52.41l-1.428 5.78-1.718-2.67.725-3.42c.062-.29-.123-.58-.412-.64-.29-.06-.575.125-.636.416l-.503 2.365-.87-1.354.58-2.714c.06-.29-.125-.58-.414-.64-.29-.062-.576.124-.638.415l-.352 1.66-.935-1.452c-.16-.25-.49-.32-.74-.16-.25.163-.32.497-.16.747l.938 1.453-1.65-.355c-.29-.06-.576.125-.638.417-.06.29.123.578.413.64l2.698.58.874 1.356-2.35-.505c-.29-.06-.574.125-.636.416-.062.292.122.58.412.64l3.398.732 1.57 2.436-5.158-1.682c-.238-.077-.5.02-.627.24-.127.217-.088.495.096.668l4.15 3.9H8.394l-2.457-2.48c-.21-.21-.55-.21-.76 0-.208.212-.208.553 0 .764l1.7 1.71H5.275L3.325 53.4c-.21-.21-.55-.21-.76 0-.21.21-.21.553 0 .763l1.193 1.2h-1.72c-.297 0-.537.24-.537.54 0 .298.24.54.54.54h1.72l-1.192 1.2c-.21.21-.21.55 0 .763.104.106.242.16.38.16.137 0 .273-.054.38-.16l1.95-1.963H6.88l-1.7 1.71c-.21.21-.21.552 0 .763.104.105.242.158.38.158s.273-.052.38-.157l2.455-2.473h3.036l-4.15 3.9c-.18.172-.22.45-.093.667.127.22.39.32.627.24l5.158-1.68L11.4 62l-3.398.73c-.29.062-.475.35-.413.64.06.29.343.478.633.416l2.35-.505-.875 1.35L7 65.21c-.29.063-.474.35-.413.64.06.293.346.48.636.417l1.65-.355-.936 1.457c-.16.25-.09.582.16.744.09.06.19.088.29.088.178 0 .35-.086.45-.245l.94-1.455.353 1.66c.055.254.277.427.524.427l.113-.013c.29-.062.474-.35.412-.64l-.58-2.717.873-1.356.503 2.365c.054.25.276.423.523.423l.11-.012c.29-.06.474-.35.412-.64l-.726-3.42 1.717-2.67 1.427 5.78c.06.24.275.41.52.41.248 0 .46-.17.52-.41l1.428-5.78 1.72 2.67L18.9 66c-.06.29.124.58.414.64l.112.013c.248 0 .47-.174.524-.427l.503-2.366.873 1.356-.577 2.715c-.064.29.12.58.41.64l.113.014c.247 0 .47-.173.524-.427l.35-1.66.936 1.454c.102.16.274.248.45.248.1 0 .2-.028.29-.087.25-.16.32-.495.16-.744l-.936-1.454 1.65.358c.29.062.575-.123.638-.416.06-.29-.124-.577-.413-.64l-2.7-.58-.87-1.354 2.35.505c.29.064.574-.122.635-.413.06-.29-.123-.58-.412-.64l-3.4-.73-1.568-2.438 5.156 1.683c.24.08.5-.02.628-.24.128-.217.09-.494-.095-.667l-4.152-3.9h3.037l2.458 2.473c.104.105.24.158.38.158.136 0 .274-.05.378-.156.21-.21.21-.552 0-.762l-1.7-1.71h1.606l1.95 1.964c.105.106.242.16.38.16.136 0 .274-.054.378-.16.21-.21.21-.552 0-.763l-1.193-1.2h1.72c.295 0 .535-.243.535-.54 0-.3-.24-.54-.537-.54zm-7.738-3.03l-3.227 3.03h-1.227c-.072-.235-.19-.45-.342-.632l.68-1.055 4.116-1.344zm-6.19 4.317l-.17-.02c-.13-.032-.248-.097-.343-.188-.11-.106-.19-.244-.22-.4l-.015-.14.013-.14c.03-.156.11-.295.216-.4.094-.09.212-.157.343-.188l.17-.02.17.02c.13.03.25.097.343.19.11.103.187.242.216.396l.013.142-.015.14c-.03.156-.108.294-.217.4-.094.09-.212.156-.343.187l-.17.026zm0-8.178l1.15 4.653-.657 1.02c-.156-.045-.32-.07-.492-.07-.17 0-.335.025-.492.07l-.65-1.02 1.147-4.653zm-6.186 3.86l4.116 1.344.68 1.055c-.154.183-.27.397-.344.632h-1.226l-3.226-3.03zm0 7.14l3.226-3.03h1.226c.073.234.19.447.343.63l-.674 1.056-4.116 1.344zm6.187 3.86l-1.148-4.653.656-1.02c.16.05.326.07.497.07.17 0 .336-.02.492-.07l.656 1.02-1.15 4.657zm6.188-3.86l-4.11-1.344-.68-1.055c.153-.184.27-.397.343-.63h1.227l3.226 3.03z" fill="#67737B"/><path d="M29.89 95.355h-1.72l1.192-1.2c.21-.212.21-.553 0-.765-.21-.21-.55-.21-.757 0l-1.95 1.965H25.05l1.697-1.71c.21-.212.21-.553 0-.764-.21-.21-.55-.21-.758 0l-2.46 2.48H20.49l4.152-3.9c.184-.174.223-.45.096-.67-.127-.218-.387-.317-.627-.24l-5.154 1.68 1.57-2.435 3.396-.732c.29-.06.473-.348.41-.64-.06-.29-.344-.477-.635-.415l-2.35.505.873-1.354 2.7-.58c.29-.064.473-.35.412-.64-.063-.294-.348-.48-.637-.418l-1.65.36.935-1.454c.16-.25.09-.584-.16-.746-.248-.163-.58-.09-.74.16l-.936 1.452-.353-1.66c-.063-.29-.347-.477-.638-.415-.29.06-.474.35-.41.64l.575 2.716-.872 1.356-.502-2.365c-.06-.29-.343-.476-.633-.414-.29.06-.474.35-.412.64l.727 3.42-1.72 2.67-1.424-5.78c-.06-.24-.274-.41-.52-.41-.247 0-.462.17-.52.41l-1.428 5.78-1.718-2.67.725-3.42c.062-.29-.123-.58-.412-.64-.29-.06-.575.125-.636.416l-.503 2.365-.87-1.354.58-2.714c.06-.29-.125-.58-.414-.64-.29-.062-.576.124-.638.415l-.352 1.66-.935-1.452c-.16-.25-.49-.32-.74-.16-.25.163-.32.497-.16.747l.938 1.453-1.65-.355c-.29-.06-.576.125-.638.417-.06.29.123.578.413.64l2.698.58.874 1.356-2.35-.505c-.29-.06-.574.125-.636.416-.062.292.122.58.412.64l3.398.732 1.57 2.436-5.158-1.682c-.238-.077-.5.02-.627.24-.127.217-.088.495.096.668l4.15 3.9H8.394l-2.457-2.48c-.21-.21-.55-.21-.76 0-.208.212-.208.553 0 .764l1.7 1.71H5.275L3.325 93.4c-.21-.21-.55-.21-.76 0-.21.21-.21.553 0 .763l1.193 1.2h-1.72c-.297 0-.537.24-.537.54 0 .298.24.54.54.54h1.72l-1.192 1.2c-.21.21-.21.55 0 .763.104.106.242.16.38.16.137 0 .273-.054.38-.16l1.95-1.963H6.88l-1.7 1.71c-.21.21-.21.552 0 .763.104.105.242.158.38.158s.273-.052.38-.157l2.455-2.473h3.036l-4.15 3.9c-.18.172-.22.45-.093.667.127.22.39.32.627.24l5.158-1.68L11.4 102l-3.398.73c-.29.062-.475.35-.413.64.06.29.343.478.633.416l2.35-.505-.872 1.358-2.695.58c-.29.062-.474.35-.413.64.063.292.348.478.638.416l1.65-.355-.935 1.454c-.16.25-.09.584.16.746.09.06.19.087.29.087.176 0 .348-.087.45-.246l.937-1.452.352 1.66c.054.254.276.427.523.427l.113-.013c.29-.06.475-.35.413-.64l-.577-2.715.873-1.354.5 2.366c.053.253.275.427.522.427l.112-.012c.29-.06.474-.35.412-.64l-.726-3.42 1.72-2.67 1.426 5.78c.06.24.274.41.52.41.247 0 .46-.17.52-.41l1.427-5.78 1.72 2.67-.727 3.42c-.062.29.122.58.412.64l.11.013c.248 0 .47-.174.524-.427l.503-2.363.873 1.355-.578 2.716c-.063.29.122.578.41.64l.114.012c.247 0 .47-.174.524-.428l.352-1.66.936 1.454c.102.16.274.246.45.246.1 0 .2-.028.29-.087.25-.16.32-.495.16-.744l-.936-1.454 1.65.356c.29.063.574-.122.637-.415.06-.29-.126-.578-.415-.64l-2.7-.58-.87-1.355 2.35.507c.29.062.574-.124.635-.415.06-.292-.122-.58-.41-.64l-3.4-.732-1.57-2.435 5.157 1.684c.24.08.5-.02.628-.24.127-.218.088-.495-.096-.668l-4.154-3.9h3.037l2.455 2.474c.105.105.24.158.38.158.137 0 .275-.053.38-.158.21-.21.21-.553 0-.763l-1.7-1.71h1.605l1.95 1.965c.106.105.243.158.38.158s.275-.053.38-.158c.21-.21.21-.553 0-.764l-1.194-1.2h1.72c.297 0 .537-.24.537-.54 0-.3-.24-.54-.537-.54zm-7.738-3.03l-3.227 3.03h-1.227c-.072-.235-.19-.45-.342-.632l.68-1.055 4.116-1.344zm-6.19 4.317l-.17-.02c-.13-.032-.248-.097-.343-.188-.11-.106-.19-.244-.22-.4l-.015-.14.013-.14c.03-.156.11-.295.216-.4.094-.09.212-.157.343-.188l.17-.02.17.02c.13.03.25.097.343.19.11.103.187.242.216.396l.013.142-.015.14c-.03.156-.108.294-.217.4-.094.09-.212.156-.343.187l-.17.026zm0-8.178l1.15 4.653-.657 1.02c-.156-.045-.32-.07-.492-.07-.17 0-.335.025-.492.07l-.65-1.02 1.147-4.653zm-6.186 3.86l4.116 1.344.68 1.055c-.154.183-.27.397-.344.632h-1.226l-3.226-3.03zm0 7.14l3.226-3.03h1.226c.073.234.19.447.343.63l-.674 1.056-4.116 1.344zm6.187 3.86l-1.148-4.653.656-1.02c.16.05.326.07.497.07.17 0 .336-.02.492-.07l.656 1.02-1.15 4.657zm6.188-3.86l-4.11-1.344-.68-1.055c.153-.184.27-.397.343-.63h1.227l3.226 3.03z" fill="#fff"/><path d="M29.89 135.355h-1.72l1.192-1.2c.21-.212.21-.553 0-.765-.21-.21-.55-.21-.757 0l-1.95 1.965H25.05l1.697-1.71c.21-.212.21-.553 0-.764-.21-.21-.55-.21-.758 0l-2.46 2.48H20.49l4.152-3.9c.184-.174.223-.45.096-.67-.127-.218-.387-.317-.627-.24l-5.156 1.684 1.57-2.436 3.397-.732c.29-.06.473-.348.41-.64-.06-.29-.344-.477-.635-.415l-2.35.505.87-1.354 2.7-.58c.29-.062.473-.35.412-.64-.063-.292-.348-.48-.637-.416l-1.65.357.935-1.453c.16-.25.09-.584-.16-.746-.247-.16-.58-.09-.74.16l-.935 1.454-.353-1.66c-.063-.292-.347-.478-.638-.416-.29.062-.474.35-.41.64l.575 2.717-.875 1.356-.502-2.364c-.06-.29-.345-.476-.635-.414-.29.065-.475.35-.413.64l.726 3.42-1.72 2.67-1.426-5.78c-.06-.24-.274-.41-.52-.41-.247 0-.462.17-.52.41l-1.428 5.78-1.72-2.67.727-3.42c.062-.29-.123-.575-.412-.64-.29-.06-.573.127-.634.418l-.503 2.366-.872-1.355.58-2.715c.062-.292-.123-.58-.41-.64-.29-.063-.575.123-.637.414l-.353 1.66-.935-1.454c-.16-.25-.49-.322-.74-.16s-.32.496-.16.746l.938 1.454-1.65-.356c-.29-.06-.575.125-.637.417-.06.29.124.578.414.64l2.7.58.872 1.356-2.35-.505c-.29-.062-.574.124-.636.415-.063.29.12.58.41.64l3.4.73 1.57 2.437-5.16-1.683c-.237-.077-.5.02-.626.24-.127.217-.088.495.096.668l4.15 3.9H8.394l-2.457-2.474c-.21-.21-.55-.21-.76 0-.208.21-.208.553 0 .764l1.7 1.71H5.275l-1.95-1.962c-.21-.21-.55-.21-.76 0-.21.21-.21.552 0 .762l1.193 1.2h-1.72c-.297 0-.537.24-.537.54 0 .298.24.54.54.54h1.72l-1.192 1.2c-.21.21-.21.55 0 .763.104.106.242.16.38.16.137 0 .273-.054.38-.16l1.95-1.963H6.88l-1.7 1.71c-.21.21-.21.552 0 .763.104.105.242.158.38.158s.273-.05.38-.156l2.455-2.474h3.036l-4.15 3.9c-.18.173-.22.45-.093.668.127.22.39.32.627.24l5.158-1.683L11.4 142l-3.398.73c-.29.064-.475.35-.413.643.06.29.343.477.633.415l2.35-.504-.872 1.355-2.695.58c-.29.06-.474.35-.413.64.063.29.348.48.638.414l1.65-.355-.935 1.455c-.16.25-.09.584.16.746.09.06.19.09.29.09.176 0 .348-.087.45-.246l.937-1.454.352 1.66c.054.257.276.43.523.43l.113-.012c.29-.062.475-.35.413-.64l-.577-2.716.873-1.354.5 2.365c.053.254.275.428.522.428l.112-.01c.29-.062.474-.35.412-.64l-.726-3.42 1.72-2.67 1.426 5.78c.06.24.274.41.52.41.247 0 .46-.17.52-.41l1.427-5.78 1.72 2.67-.727 3.42c-.062.29.122.578.412.64l.11.01c.248 0 .47-.172.524-.425l.503-2.364.873 1.356-.578 2.717c-.063.29.122.578.41.64l.114.012c.247 0 .47-.174.524-.428l.352-1.66.936 1.455c.102.16.274.247.45.247.1 0 .2-.028.29-.087.25-.16.32-.495.16-.744l-.936-1.456 1.65.357c.29.064.574-.12.637-.414.06-.29-.126-.578-.415-.64l-2.7-.58-.87-1.355 2.35.507c.29.062.574-.124.635-.415.06-.292-.122-.58-.41-.64l-3.4-.732-1.57-2.437 5.157 1.683c.24.08.5-.02.628-.24.127-.217.088-.494-.096-.667l-4.154-3.9h3.037l2.455 2.473c.105.105.24.158.38.158.137 0 .275-.052.38-.157.21-.21.21-.553 0-.763l-1.7-1.71h1.605l1.95 1.965c.106.104.243.157.38.157s.275-.054.38-.16c.21-.21.21-.553 0-.764l-1.194-1.2h1.72c.297 0 .537-.24.537-.54 0-.3-.24-.54-.537-.54zm-7.738-3.03l-3.227 3.03h-1.227c-.072-.235-.19-.45-.342-.632l.68-1.055 4.116-1.344zm-6.19 4.317l-.17-.02c-.13-.032-.248-.097-.343-.188-.11-.106-.19-.244-.22-.4l-.015-.14.013-.14c.03-.156.11-.295.216-.4.094-.09.212-.157.343-.188l.17-.02.17.02c.13.03.25.097.343.19.11.103.187.242.216.396l.013.142-.015.14c-.03.156-.108.294-.217.4-.094.09-.212.156-.343.187l-.17.026zm0-8.178l1.15 4.653-.657 1.02c-.156-.045-.32-.07-.492-.07-.17 0-.335.025-.492.07l-.65-1.02 1.147-4.653zm-6.186 3.86l4.116 1.344.68 1.055c-.154.183-.27.397-.344.632h-1.226l-3.226-3.03zm0 7.14l3.226-3.03h1.226c.073.234.19.447.343.63l-.674 1.056-4.116 1.344zm6.187 3.86l-1.148-4.653.656-1.02c.16.05.326.07.497.07.17 0 .336-.02.492-.07l.656 1.02-1.15 4.657zm6.188-3.86l-4.11-1.344-.68-1.055c.152-.184.27-.397.342-.63h1.227l3.225 3.03z" fill="#206FAC"/></g></svg>