<svg width="32" height="232" viewBox="0 0 32 232" xmlns="http://www.w3.org/2000/svg"><title>air</title><desc>Created with Sketch.</desc><g fill="none"><path d="M18.108 22.45c.14 0 .282-.054.39-.162l2.858-2.858c.216-.216.216-.565 0-.78-.215-.216-.564-.216-.78 0l-2.858 2.858c-.215.215-.215.565 0 .78.108.108.25.162.39.162zm-.302 4.67c.14 0 .282-.054.39-.16l4.842-4.843c.215-.216.215-.565 0-.78-.216-.216-.565-.216-.78 0l-4.842 4.842c-.216.214-.216.563 0 .78.108.106.25.16.39.16zm-.167 3.203l-.702.702c-.215.215-.215.564 0 .78.108.108.25.16.39.16s.282-.052.39-.16l.702-.702c.215-.215.215-.564 0-.78-.216-.215-.565-.215-.78 0zm7.245-6.465c-.216-.216-.565-.216-.78 0l-5.107 5.107c-.216.215-.216.565 0 .78.107.108.25.162.39.162s.282-.054.39-.162l5.107-5.107c.215-.216.215-.565 0-.78zM12.47 10.543L9.61 13.4c-.214.217-.214.566 0 .78.11.11.25.163.39.163.143 0 .284-.054.392-.162l2.858-2.857c.215-.215.215-.564 0-.78-.216-.215-.565-.215-.78 0zm-1.907-1.68c-.216-.217-.565-.217-.78 0l-4.842 4.84c-.215.216-.215.565 0 .78.108.108.25.162.39.162.142 0 .283-.054.39-.16l4.843-4.843c.215-.216.215-.565 0-.78zM.848 13.427l-.754.753c-.215.217-.215.566 0 .78.108.11.25.163.39.163.142 0 .283-.054.39-.162l.754-.752c.215-.215.215-.565 0-.78-.215-.216-.565-.216-.78 0zm7.194-6.414c-.216-.215-.565-.215-.78 0l-5.16 5.16c-.215.215-.215.564 0 .78.108.107.25.16.39.16s.283-.053.39-.16l5.16-5.16c.215-.215.215-.564 0-.78zm22.114-1.456c.026-.036.642-.892 1.14-1.89.767-1.546.84-2.597.225-3.213-.276-.277-.657-.417-1.13-.417-1.524 0-3.794 1.51-4.048 1.683l-.08.067-4.812 4.81-2.688-1.125.304-.303c.224-.226.348-.524.348-.84 0-.318-.124-.616-.348-.84l-.947-.947c-.226-.225-.524-.348-.84-.348-.318 0-.616.123-.84.348l-1.38 1.38-5.65-2.368c-.206-.086-.445-.04-.603.12L6.943 3.537c-.118.118-.176.284-.158.45.02.167.112.316.253.406l10.17 6.446-7.28 7.28-3.388-.682c-.18-.037-.368.02-.5.15l-.792.794c-.118.118-.177.284-.158.45.018.167.11.316.253.406L9.34 21.77l-1.673 1.673c-.215.215-.215.565 0 .78.108.108.25.162.39.162.142 0 .283-.054.39-.162l1.67-1.67 2.53 3.99c.09.142.24.235.406.253l.06.003c.147 0 .287-.058.39-.162l.794-.793c.13-.13.188-.318.15-.5l-.68-3.388 7.28-7.282 6.458 10.186c.09.142.24.236.406.254l.06.003c.147 0 .287-.057.39-.16l1.865-1.865c.158-.158.205-.397.12-.603l-2.368-5.65 1.38-1.38c.224-.225.347-.523.347-.84 0-.317-.123-.615-.347-.84l-.948-.947c-.225-.224-.523-.347-.84-.347-.317 0-.615.123-.84.347l-.303.304-1.134-2.707L30.1 5.624l.056-.066zM27.3 3.06c-.304 0-.55.248-.55.553 0 .305.246.552.55.552.117 0 .226.045.307.127.082.082.128.19.128.307 0 .303.247.55.55.55.306 0 .553-.247.553-.55 0-.412-.16-.798-.45-1.088-.29-.29-.677-.45-1.087-.45zm-10.08.263l.06-.025.058.025.948.947.024.06-.024.06-.624.622-1.502-.63 1.06-1.06zm-9.01.508l1.115-1.114 11.28 4.724-2.6 2.6L8.21 3.83zm19.3 9.783l.06-.024.06.023.947.948.024.06-.023.06-1.06 1.06-.63-1.503.624-.624zm1.673 8.96l-1.115 1.116-6.208-9.795 2.6-2.6 4.723 11.28zm-16.406-1.187c-.13.13-.188.318-.15.5l.68 3.388-.096.097-2.292-3.617 1.49-1.49c.215-.215.215-.565 0-.78-.216-.215-.565-.215-.78 0l-1.49 1.49-3.623-2.298.097-.097L10 19.26c.182.037.37-.02.5-.15L27.003 2.604c.65-.434 2.4-1.464 3.385-1.464.116 0 .273.017.35.095.32.32-.234 1.94-1.453 3.64l-16.51 16.51z" fill="#3A434E"/><path d="M18.108 62.45c.14 0 .282-.054.39-.162l2.858-2.858c.216-.216.216-.565 0-.78-.215-.216-.564-.216-.78 0l-2.858 2.858c-.215.215-.215.565 0 .78.108.108.25.162.39.162zm-.302 4.67c.14 0 .282-.054.39-.16l4.842-4.843c.215-.216.215-.565 0-.78-.216-.216-.565-.216-.78 0l-4.842 4.842c-.216.214-.216.563 0 .78.108.106.25.16.39.16zm-.167 3.203l-.702.702c-.215.215-.215.564 0 .78.108.108.25.16.39.16s.282-.052.39-.16l.702-.702c.215-.215.215-.564 0-.78-.216-.215-.565-.215-.78 0zm7.245-6.465c-.216-.216-.565-.216-.78 0l-5.107 5.107c-.216.215-.216.565 0 .78.107.108.25.162.39.162s.282-.054.39-.162l5.107-5.107c.215-.216.215-.565 0-.78zM12.47 50.543L9.61 53.4c-.214.217-.214.566 0 .78.11.11.25.163.39.163.143 0 .284-.054.392-.162l2.858-2.857c.215-.215.215-.564 0-.78-.216-.215-.565-.215-.78 0zm-1.907-1.68c-.216-.217-.565-.217-.78 0l-4.842 4.84c-.215.216-.215.565 0 .78.108.108.25.162.39.162.142 0 .283-.054.39-.16l4.843-4.843c.215-.216.215-.565 0-.78zM.848 53.427l-.754.753c-.215.217-.215.566 0 .78.108.11.25.163.39.163.142 0 .283-.054.39-.162l.754-.752c.215-.215.215-.565 0-.78-.215-.216-.565-.216-.78 0zm7.194-6.414c-.216-.215-.565-.215-.78 0l-5.16 5.16c-.215.215-.215.564 0 .78.108.107.25.16.39.16s.283-.053.39-.16l5.16-5.16c.215-.215.215-.564 0-.78zm22.114-1.456c.026-.036.642-.892 1.14-1.89.767-1.546.84-2.597.225-3.213-.276-.277-.657-.417-1.13-.417-1.524 0-3.794 1.51-4.048 1.683l-.08.067-4.812 4.81-2.688-1.125.304-.303c.224-.226.348-.524.348-.84 0-.318-.124-.616-.348-.84l-.947-.947c-.226-.225-.524-.348-.84-.348-.318 0-.616.123-.84.348l-1.38 1.38-5.65-2.368c-.206-.086-.445-.04-.603.12l-1.864 1.863c-.118.118-.176.284-.158.45.02.167.112.316.253.406l10.17 6.446-7.28 7.28-3.388-.682c-.18-.037-.368.02-.5.15l-.792.794c-.118.118-.177.284-.158.45.018.167.11.316.253.406L9.34 61.77l-1.673 1.673c-.215.215-.215.565 0 .78.108.108.25.162.39.162.142 0 .283-.054.39-.162l1.67-1.67 2.53 3.99c.09.142.24.235.406.253l.06.003c.147 0 .287-.058.39-.162l.794-.793c.13-.13.188-.318.15-.5l-.68-3.388 7.28-7.282 6.458 10.186c.09.142.24.236.406.254l.06.003c.147 0 .287-.057.39-.16l1.865-1.865c.158-.158.205-.397.12-.603l-2.368-5.65 1.38-1.38c.224-.225.347-.523.347-.84 0-.317-.123-.615-.347-.84l-.948-.947c-.225-.224-.523-.347-.84-.347-.317 0-.615.123-.84.347l-.303.304-1.134-2.707 4.806-4.806.056-.066zM27.3 43.06c-.304 0-.55.248-.55.553 0 .305.246.552.55.552.117 0 .226.045.307.127.082.082.128.19.128.307 0 .303.247.55.55.55.306 0 .553-.247.553-.55 0-.412-.16-.798-.45-1.088-.29-.29-.677-.45-1.087-.45zm-10.08.263l.06-.025.058.025.948.947.024.06-.024.06-.624.622-1.502-.63 1.06-1.06zm-9.01.508l1.115-1.114 11.28 4.724-2.6 2.6-9.794-6.21zm19.3 9.783l.06-.024.06.023.947.948.024.06-.023.06-1.06 1.06-.63-1.503.624-.624zm1.673 8.96l-1.115 1.116-6.208-9.795 2.6-2.6 4.723 11.28zm-16.406-1.187c-.13.13-.188.318-.15.5l.68 3.388-.096.097-2.292-3.617 1.49-1.49c.215-.215.215-.565 0-.78-.216-.215-.565-.215-.78 0l-1.49 1.49-3.623-2.298.097-.097L10 59.26c.182.037.37-.02.5-.15l16.504-16.505c.65-.434 2.4-1.464 3.385-1.464.116 0 .273.017.35.095.32.32-.234 1.94-1.453 3.64l-16.51 16.51z" fill="#67737B"/><path d="M18.108 102.45c.14 0 .282-.054.39-.162l2.858-2.858c.216-.216.216-.565 0-.78-.215-.216-.564-.216-.78 0l-2.858 2.858c-.215.215-.215.565 0 .78.108.108.25.162.39.162zm-.302 4.67c.14 0 .282-.054.39-.16l4.842-4.843c.215-.216.215-.565 0-.78-.216-.216-.565-.216-.78 0l-4.842 4.842c-.216.214-.216.563 0 .78.108.106.25.16.39.16zm-.167 3.203l-.702.702c-.215.215-.215.564 0 .78.108.108.25.16.39.16s.282-.052.39-.16l.702-.702c.215-.215.215-.564 0-.78-.216-.215-.565-.215-.78 0zm7.245-6.465c-.216-.216-.565-.216-.78 0l-5.107 5.107c-.216.215-.216.565 0 .78.107.108.25.162.39.162s.282-.054.39-.162l5.107-5.107c.215-.216.215-.565 0-.78zM12.47 90.543L9.61 93.4c-.214.217-.214.566 0 .78.11.11.25.163.39.163.143 0 .284-.054.392-.162l2.858-2.857c.215-.215.215-.564 0-.78-.216-.215-.565-.215-.78 0zm-1.907-1.68c-.216-.217-.565-.217-.78 0l-4.842 4.84c-.215.216-.215.565 0 .78.108.108.25.162.39.162.142 0 .283-.054.39-.16l4.843-4.843c.215-.216.215-.565 0-.78zM.848 93.427l-.754.753c-.215.217-.215.566 0 .78.108.11.25.163.39.163.142 0 .283-.054.39-.162l.754-.752c.215-.215.215-.565 0-.78-.215-.216-.565-.216-.78 0zm7.194-6.414c-.216-.215-.565-.215-.78 0l-5.16 5.16c-.215.215-.215.564 0 .78.108.107.25.16.39.16s.283-.053.39-.16l5.16-5.16c.215-.215.215-.564 0-.78zm22.114-1.456c.026-.036.642-.892 1.14-1.89.767-1.546.84-2.597.225-3.213-.276-.277-.657-.417-1.13-.417-1.524 0-3.794 1.51-4.048 1.683l-.08.067-4.812 4.81-2.688-1.125.304-.303c.224-.226.348-.524.348-.84 0-.318-.124-.616-.348-.84l-.947-.947c-.226-.225-.524-.348-.84-.348-.318 0-.616.123-.84.348l-1.38 1.38-5.65-2.368c-.206-.086-.445-.04-.603.12l-1.864 1.863c-.118.118-.176.284-.158.45.02.167.112.316.253.406l10.17 6.446-7.28 7.28-3.388-.682c-.18-.037-.368.02-.5.15l-.792.794c-.118.118-.177.284-.158.45.018.167.11.316.253.406l3.996 2.533-1.673 1.673c-.215.215-.215.565 0 .78.108.108.25.162.39.162.142 0 .283-.054.39-.162l1.67-1.67 2.53 3.99c.09.142.24.235.406.253l.06.003c.147 0 .287-.058.39-.162l.794-.793c.13-.13.188-.318.15-.5l-.68-3.388 7.28-7.282 6.458 10.186c.09.142.24.236.406.254l.06.003c.147 0 .287-.057.39-.16l1.865-1.865c.158-.158.205-.397.12-.603l-2.368-5.65 1.38-1.38c.224-.225.347-.523.347-.84 0-.317-.123-.615-.347-.84l-.948-.947c-.225-.224-.523-.347-.84-.347-.317 0-.615.123-.84.347l-.303.304-1.134-2.707 4.806-4.806.056-.066zM27.3 83.06c-.304 0-.55.248-.55.553 0 .305.246.552.55.552.117 0 .226.045.307.127.082.082.128.19.128.307 0 .303.247.55.55.55.306 0 .553-.247.553-.55 0-.412-.16-.798-.45-1.088-.29-.29-.677-.45-1.087-.45zm-10.08.263l.06-.025.058.025.948.947.024.06-.024.06-.624.622-1.502-.63 1.06-1.06zm-9.01.508l1.115-1.114 11.28 4.724-2.6 2.6-9.794-6.21zm19.3 9.783l.06-.024.06.023.947.948.024.06-.023.06-1.06 1.06-.63-1.503.624-.624zm1.673 8.96l-1.115 1.116-6.208-9.795 2.6-2.6 4.723 11.28zm-16.406-1.187c-.13.13-.188.318-.15.5l.68 3.388-.096.097-2.292-3.617 1.49-1.49c.215-.215.215-.565 0-.78-.216-.215-.565-.215-.78 0l-1.49 1.49-3.623-2.298.097-.097L10 99.26c.182.037.37-.02.5-.15l16.504-16.505c.65-.434 2.4-1.464 3.385-1.464.116 0 .273.017.35.095.32.32-.234 1.94-1.453 3.64l-16.51 16.51z" fill="#fff"/><path d="M18.108 142.45c.14 0 .282-.054.39-.162l2.858-2.858c.216-.216.216-.565 0-.78-.215-.216-.564-.216-.78 0l-2.858 2.858c-.215.215-.215.565 0 .78.108.108.25.162.39.162zm-.302 4.67c.14 0 .282-.054.39-.16l4.842-4.843c.215-.216.215-.565 0-.78-.216-.216-.565-.216-.78 0l-4.842 4.842c-.216.214-.216.563 0 .78.108.106.25.16.39.16zm-.167 3.203l-.702.702c-.215.215-.215.564 0 .78.108.108.25.16.39.16s.282-.052.39-.16l.702-.702c.215-.215.215-.564 0-.78-.216-.215-.565-.215-.78 0zm7.245-6.465c-.216-.216-.565-.216-.78 0l-5.107 5.107c-.216.215-.216.565 0 .78.107.108.25.162.39.162s.282-.054.39-.162l5.107-5.107c.215-.216.215-.565 0-.78zM12.47 130.543L9.61 133.4c-.214.217-.214.566 0 .78.11.11.25.163.39.163.143 0 .284-.054.392-.162l2.858-2.857c.215-.215.215-.564 0-.78-.216-.215-.565-.215-.78 0zm-1.907-1.68c-.216-.217-.565-.217-.78 0l-4.842 4.84c-.215.216-.215.565 0 .78.108.108.25.162.39.162.142 0 .283-.054.39-.16l4.843-4.843c.215-.216.215-.565 0-.78zm-9.715 4.565l-.754.753c-.215.217-.215.566 0 .78.108.11.25.163.39.163.142 0 .283-.054.39-.162l.754-.752c.215-.215.215-.565 0-.78-.215-.216-.565-.216-.78 0zm7.194-6.414c-.216-.215-.565-.215-.78 0l-5.16 5.16c-.215.215-.215.564 0 .78.108.107.25.16.39.16s.283-.053.39-.16l5.16-5.16c.215-.215.215-.564 0-.78zm22.114-1.456c.026-.036.642-.892 1.14-1.89.767-1.546.84-2.597.225-3.213-.276-.277-.657-.417-1.13-.417-1.524 0-3.794 1.51-4.048 1.683l-.08.067-4.812 4.81-2.688-1.125.304-.303c.224-.226.348-.524.348-.84 0-.318-.124-.616-.348-.84l-.947-.947c-.226-.225-.524-.348-.84-.348-.318 0-.616.123-.84.348l-1.38 1.38-5.65-2.368c-.206-.086-.445-.04-.603.12l-1.864 1.863c-.118.118-.176.284-.158.45.02.167.112.316.253.406l10.17 6.446-7.28 7.28-3.388-.682c-.18-.037-.368.02-.5.15l-.792.794c-.118.118-.177.284-.158.45.018.167.11.316.253.406l3.996 2.533-1.673 1.673c-.215.215-.215.565 0 .78.108.108.25.162.39.162.142 0 .283-.054.39-.162l1.67-1.67 2.53 3.99c.09.142.24.235.406.253l.06.003c.147 0 .287-.058.39-.162l.794-.793c.13-.13.188-.318.15-.5l-.68-3.388 7.28-7.282 6.458 10.186c.09.142.24.236.406.254l.06.003c.147 0 .287-.057.39-.16l1.865-1.865c.158-.158.205-.397.12-.603l-2.368-5.65 1.38-1.38c.224-.225.347-.523.347-.84 0-.317-.123-.615-.347-.84l-.948-.947c-.225-.224-.523-.347-.84-.347-.317 0-.615.123-.84.347l-.303.304-1.134-2.707 4.806-4.806.056-.066zM27.3 123.06c-.304 0-.55.248-.55.553 0 .305.246.552.55.552.117 0 .226.045.307.127.082.082.128.19.128.307 0 .303.247.55.55.55.306 0 .553-.247.553-.55 0-.412-.16-.798-.45-1.088-.29-.29-.677-.45-1.087-.45zm-10.08.263l.06-.025.058.025.948.947.024.06-.024.06-.624.622-1.502-.63 1.06-1.06zm-9.01.508l1.115-1.114 11.28 4.724-2.6 2.6-9.794-6.21zm19.3 9.783l.06-.024.06.023.947.948.024.06-.023.06-1.06 1.06-.63-1.503.624-.624zm1.673 8.96l-1.115 1.116-6.208-9.795 2.6-2.6 4.723 11.28zm-16.406-1.187c-.13.13-.188.318-.15.5l.68 3.388-.096.097-2.292-3.617 1.49-1.49c.215-.215.215-.565 0-.78-.216-.215-.565-.215-.78 0l-1.49 1.49-3.623-2.298.097-.097 3.388.682c.182.037.37-.02.5-.15l16.504-16.505c.65-.434 2.4-1.464 3.385-1.464.116 0 .273.017.35.095.32.32-.234 1.94-1.453 3.64l-16.51 16.51z" fill="#206FAC"/></g></svg>