<svg width="32" height="232" viewBox="0 0 32 232" xmlns="http://www.w3.org/2000/svg"><desc>Created with Sketch.</desc><g fill="none"><path d="M18.108 22.45c.14 0 .282-.054.39-.162l2.858-2.858c.216-.216.216-.565 0-.78-.215-.216-.564-.216-.78 0l-2.858 2.858c-.215.215-.215.565 0 .78.108.108.25.162.39.162zm-.302 4.67c.14 0 .282-.054.39-.16l4.842-4.843c.215-.216.215-.565 0-.78-.216-.216-.565-.216-.78 0l-4.842 4.842c-.216.21-.216.56 0 .78.108.103.25.16.39.16zm-.167 3.203l-.705.702c-.215.215-.215.564 0 .78.108.108.25.16.39.16s.282-.052.39-.16l.702-.702c.214-.215.214-.564 0-.78-.217-.215-.566-.215-.78 0zm7.242-6.465c-.216-.216-.565-.216-.78 0l-5.107 5.107c-.216.215-.216.565 0 .78.107.108.25.162.39.162s.282-.054.39-.162l5.107-5.107c.215-.216.215-.565 0-.78zM12.47 10.543L9.61 13.4c-.214.217-.214.566 0 .78.11.11.25.163.39.163.143 0 .284-.054.392-.162l2.858-2.854c.215-.215.215-.564 0-.78-.216-.215-.565-.215-.78 0zm-1.907-1.68c-.216-.217-.565-.217-.78 0l-4.842 4.84c-.212.216-.212.565 0 .78.11.108.25.162.39.162.145 0 .286-.054.39-.16l4.846-4.843c.215-.216.215-.565 0-.78zM.848 13.427l-.754.753c-.215.217-.215.566 0 .78.108.11.25.163.39.163.142 0 .283-.054.39-.162l.754-.75c.215-.214.215-.564 0-.78-.215-.215-.565-.215-.78 0zm7.194-6.414c-.216-.215-.565-.215-.78 0l-5.16 5.16c-.215.215-.215.564 0 .78.108.107.25.16.39.16s.283-.053.39-.16l5.16-5.16c.215-.215.215-.564 0-.78zm22.114-1.456c.026-.036.642-.892 1.14-1.89.767-1.546.84-2.597.225-3.213-.273-.277-.654-.417-1.13-.417-1.52 0-3.79 1.51-4.045 1.683l-.08.067-4.812 4.81-2.687-1.125.304-.303c.223-.23.347-.527.347-.84 0-.32-.124-.62-.348-.84l-.95-.95c-.225-.225-.523-.348-.84-.348-.317 0-.615.123-.84.348l-1.38 1.38-5.65-2.367c-.205-.086-.444-.04-.602.12L6.942 3.537c-.118.118-.176.284-.158.45.02.167.112.316.253.406l10.17 6.446-7.28 7.28-3.388-.685c-.18-.037-.37.02-.5.15l-.793.794c-.118.12-.177.284-.158.45.017.167.11.316.252.406L9.34 21.77l-1.673 1.673c-.215.215-.215.565 0 .78.108.108.25.162.39.162.142 0 .283-.054.39-.162l1.67-1.67 2.53 3.99c.09.142.24.235.406.253l.06.003c.147 0 .287-.06.39-.165l.794-.793c.13-.13.188-.318.15-.5l-.68-3.388 7.28-7.282 6.458 10.186c.09.14.24.235.406.253l.06.004c.15 0 .29-.057.39-.16l1.868-1.865c.158-.158.205-.397.12-.603l-2.368-5.65 1.38-1.38c.223-.226.346-.524.346-.84 0-.318-.123-.616-.347-.84l-.95-.948c-.225-.225-.523-.348-.84-.348-.317 0-.615.123-.84.347l-.303.303-1.134-2.707L30.1 5.623l.056-.066zM27.3 3.06c-.304 0-.55.248-.55.553 0 .305.246.552.55.552.117 0 .226.045.307.127.082.082.128.19.128.307 0 .3.247.55.55.55.306 0 .553-.25.553-.55 0-.415-.16-.8-.45-1.09-.29-.29-.677-.45-1.087-.45zm-10.08.263l.06-.025.058.025.948.947.024.06-.024.06-.624.622-1.502-.63 1.06-1.06zm-9.01.508l1.115-1.11 11.28 4.724-2.6 2.6L8.21 3.83zm19.3 9.786l.06-.024.06.024.947.948.024.06-.02.06-1.06 1.06-.63-1.502.624-.624zm1.673 8.96l-1.115 1.116-6.208-9.794 2.6-2.6 4.723 11.28zM12.777 21.39c-.13.13-.188.317-.15.5l.68 3.387-.096.097-2.29-3.617 1.49-1.49c.216-.215.216-.565 0-.78-.215-.215-.564-.215-.78 0l-1.49 1.49L6.52 18.68l.097-.098 3.387.68c.183.038.37-.02.5-.15L27.004 2.605c.65-.434 2.4-1.464 3.385-1.464.115 0 .272.018.35.096.32.32-.235 1.94-1.454 3.64l-16.51 16.51z" fill="#3A434E"/><path d="M18.108 62.45c.14 0 .282-.054.39-.162l2.858-2.858c.216-.216.216-.565 0-.78-.215-.216-.564-.216-.78 0l-2.858 2.858c-.215.215-.215.565 0 .78.108.108.25.162.39.162zm-.302 4.67c.14 0 .282-.054.39-.16l4.842-4.843c.215-.216.215-.565 0-.78-.216-.216-.565-.216-.78 0l-4.842 4.842c-.216.21-.216.56 0 .78.108.103.25.16.39.16zm-.167 3.203l-.705.702c-.215.215-.215.564 0 .78.108.108.25.16.39.16s.282-.052.39-.16l.702-.702c.214-.215.214-.564 0-.78-.217-.215-.566-.215-.78 0zm7.242-6.465c-.216-.216-.565-.216-.78 0l-5.107 5.107c-.216.215-.216.565 0 .78.107.108.25.162.39.162s.282-.054.39-.162l5.107-5.107c.215-.216.215-.565 0-.78zM12.47 50.543L9.61 53.4c-.214.217-.214.566 0 .78.11.11.25.163.39.163.143 0 .284-.054.392-.162l2.858-2.854c.215-.215.215-.564 0-.78-.216-.215-.565-.215-.78 0zm-1.907-1.68c-.216-.217-.565-.217-.78 0l-4.842 4.84c-.212.216-.212.565 0 .78.11.108.25.162.39.162.145 0 .286-.054.39-.16l4.846-4.843c.215-.216.215-.565 0-.78zM.848 53.427l-.754.753c-.215.217-.215.566 0 .78.108.11.25.163.39.163.142 0 .283-.054.39-.162l.754-.75c.215-.214.215-.564 0-.78-.215-.215-.565-.215-.78 0zm7.194-6.414c-.216-.215-.565-.215-.78 0l-5.16 5.16c-.215.215-.215.564 0 .78.108.107.25.16.39.16s.283-.053.39-.16l5.16-5.16c.215-.215.215-.564 0-.78zm22.114-1.456c.026-.036.642-.892 1.14-1.89.767-1.546.84-2.597.225-3.213-.273-.277-.654-.417-1.13-.417-1.52 0-3.79 1.51-4.045 1.683l-.08.067-4.812 4.81-2.687-1.125.304-.303c.223-.23.347-.527.347-.84 0-.32-.124-.62-.348-.84l-.95-.95c-.225-.225-.523-.348-.84-.348-.317 0-.615.123-.84.348l-1.38 1.38-5.65-2.367c-.205-.086-.444-.04-.602.12l-1.865 1.863c-.118.118-.176.284-.158.45.02.167.112.316.253.406l10.17 6.446-7.28 7.28-3.388-.683c-.18-.037-.368.02-.5.15l-.792.794c-.118.12-.177.283-.158.45.018.166.11.315.253.405L9.34 61.77l-1.673 1.673c-.215.215-.215.565 0 .78.108.108.25.162.39.162.142 0 .283-.054.39-.162l1.67-1.67 2.53 3.99c.09.142.24.235.406.253l.06.003c.147 0 .287-.06.39-.165l.794-.793c.13-.13.188-.318.15-.5l-.68-3.388 7.28-7.282 6.458 10.186c.09.14.24.235.406.253l.06.004c.15 0 .29-.057.39-.16l1.868-1.865c.158-.158.205-.397.12-.603l-2.368-5.65 1.38-1.38c.223-.226.346-.524.346-.84 0-.318-.123-.616-.347-.84l-.95-.948c-.225-.225-.523-.348-.84-.348-.317 0-.615.123-.84.347l-.303.303-1.134-2.707L30.1 45.62l.055-.066zM27.3 43.06c-.304 0-.55.248-.55.553 0 .305.246.552.55.552.117 0 .226.045.307.127.082.082.128.19.128.307 0 .3.247.55.55.55.306 0 .553-.25.553-.55 0-.415-.16-.8-.45-1.09-.29-.29-.677-.45-1.087-.45zm-10.08.263l.06-.025.058.025.948.947.024.06-.024.06-.624.622-1.502-.63 1.06-1.06zm-9.01.508l1.115-1.11 11.28 4.723-2.6 2.6-9.794-6.21zm19.3 9.786l.06-.024.06.024.947.948.024.06-.02.06-1.06 1.06-.63-1.502.624-.624zm1.673 8.96l-1.115 1.116-6.208-9.794 2.6-2.6 4.723 11.28zM12.777 61.39c-.13.13-.188.317-.15.5l.68 3.387-.096.097-2.29-3.617 1.49-1.49c.216-.215.216-.565 0-.78-.215-.215-.564-.215-.78 0l-1.49 1.49L6.52 58.68l.097-.098 3.387.68c.183.038.37-.02.5-.15l16.505-16.504c.65-.434 2.4-1.464 3.385-1.464.115 0 .272.018.35.096.32.32-.235 1.94-1.454 3.64l-16.51 16.51z" fill="#67737B"/><path d="M18.108 102.45c.14 0 .282-.054.39-.162l2.858-2.858c.216-.216.216-.565 0-.78-.215-.216-.564-.216-.78 0l-2.858 2.858c-.215.215-.215.565 0 .78.108.108.25.162.39.162zm-.302 4.67c.14 0 .282-.054.39-.16l4.842-4.843c.215-.216.215-.565 0-.78-.216-.216-.565-.216-.78 0l-4.842 4.842c-.216.21-.216.56 0 .78.108.103.25.16.39.16zm-.167 3.203l-.705.702c-.215.215-.215.564 0 .78.108.108.25.16.39.16s.282-.052.39-.16l.702-.702c.214-.215.214-.564 0-.78-.217-.215-.566-.215-.78 0zm7.242-6.465c-.216-.216-.565-.216-.78 0l-5.107 5.107c-.216.215-.216.565 0 .78.107.108.25.162.39.162s.282-.054.39-.162l5.107-5.107c.215-.216.215-.565 0-.78zM12.47 90.543L9.61 93.4c-.214.217-.214.566 0 .78.11.11.25.163.39.163.143 0 .284-.054.392-.162l2.858-2.854c.215-.215.215-.564 0-.78-.216-.215-.565-.215-.78 0zm-1.907-1.68c-.216-.217-.565-.217-.78 0l-4.842 4.84c-.212.216-.212.565 0 .78.11.108.25.162.39.162.145 0 .286-.054.39-.16l4.846-4.843c.215-.216.215-.565 0-.78zM.848 93.427l-.754.753c-.215.217-.215.566 0 .78.108.11.25.163.39.163.142 0 .283-.054.39-.162l.754-.75c.215-.214.215-.564 0-.78-.215-.215-.565-.215-.78 0zm7.194-6.414c-.216-.215-.565-.215-.78 0l-5.16 5.16c-.215.215-.215.564 0 .78.108.107.25.16.39.16s.283-.053.39-.16l5.16-5.16c.215-.215.215-.564 0-.78zm22.114-1.456c.026-.036.642-.892 1.14-1.89.767-1.546.84-2.597.225-3.213-.273-.277-.654-.417-1.13-.417-1.52 0-3.79 1.51-4.045 1.683l-.08.067-4.812 4.81-2.687-1.125.304-.303c.223-.23.347-.527.347-.84 0-.32-.124-.62-.348-.84l-.95-.95c-.225-.225-.523-.348-.84-.348-.317 0-.615.123-.84.348l-1.38 1.38-5.65-2.367c-.205-.086-.444-.04-.602.12l-1.865 1.863c-.118.118-.176.284-.158.45.02.167.112.316.253.406l10.17 6.446-7.28 7.28-3.388-.683c-.18-.037-.368.02-.5.15l-.792.794c-.118.12-.177.283-.158.45.018.166.11.315.253.405l3.996 2.533-1.674 1.672c-.215.215-.215.565 0 .78.108.108.25.162.39.162.142 0 .283-.054.39-.162l1.67-1.67 2.53 3.99c.09.142.24.235.406.253l.06.003c.147 0 .287-.06.39-.163l.794-.793c.13-.13.188-.318.15-.5l-.68-3.388 7.28-7.282 6.458 10.186c.09.142.24.236.406.254l.06.003c.148 0 .288-.057.39-.16l1.866-1.865c.158-.158.205-.397.12-.603l-2.368-5.65 1.38-1.38c.224-.226.347-.524.347-.84 0-.318-.123-.616-.347-.84l-.948-.948c-.226-.225-.524-.348-.84-.348-.318 0-.616.122-.84.346l-.304.303-1.134-2.708 4.806-4.807.056-.067zM27.3 83.06c-.304 0-.55.248-.55.553 0 .305.246.552.55.552.117 0 .226.045.307.127.082.082.128.19.128.307 0 .3.247.55.55.55.306 0 .553-.25.553-.55 0-.415-.16-.8-.45-1.09-.29-.29-.677-.45-1.087-.45zm-10.08.263l.06-.025.058.025.948.947.024.06-.024.06-.624.622-1.502-.63 1.06-1.06zm-9.01.508l1.115-1.11 11.28 4.723-2.6 2.6-9.794-6.21zm19.3 9.786l.06-.024.06.024.947.948.024.06-.02.06-1.06 1.06-.63-1.502.624-.624zm1.673 8.96l-1.115 1.116-6.208-9.794 2.6-2.6 4.723 11.28zm-16.406-1.187c-.13.13-.188.317-.15.5l.68 3.387-.096.097-2.29-3.617 1.49-1.49c.216-.215.216-.565 0-.78-.215-.215-.564-.215-.78 0l-1.49 1.49L6.52 98.68l.097-.098 3.387.68c.183.038.37-.02.5-.15l16.505-16.504c.65-.434 2.4-1.464 3.385-1.464.115 0 .272.018.35.096.32.32-.235 1.94-1.454 3.64l-16.51 16.51z" fill="#fff"/><path d="M18.108 142.45c.14 0 .282-.054.39-.162l2.858-2.858c.216-.216.216-.565 0-.78-.215-.216-.564-.216-.78 0l-2.858 2.858c-.215.215-.215.565 0 .78.108.108.25.162.39.162zm-.302 4.67c.14 0 .282-.054.39-.16l4.842-4.843c.215-.216.215-.565 0-.78-.216-.216-.565-.216-.78 0l-4.842 4.842c-.216.21-.216.56 0 .78.108.103.25.16.39.16zm-.167 3.203l-.705.702c-.215.215-.215.564 0 .78.108.108.25.16.39.16s.282-.052.39-.16l.702-.702c.214-.215.214-.564 0-.78-.217-.215-.566-.215-.78 0zm7.242-6.465c-.216-.216-.565-.216-.78 0l-5.107 5.107c-.216.215-.216.565 0 .78.107.108.25.162.39.162s.282-.054.39-.162l5.107-5.107c.215-.216.215-.565 0-.78zM12.47 130.543L9.61 133.4c-.214.217-.214.566 0 .78.11.11.25.163.39.163.143 0 .284-.054.392-.162l2.858-2.854c.215-.215.215-.564 0-.78-.216-.215-.565-.215-.78 0zm-1.907-1.68c-.216-.217-.565-.217-.78 0l-4.842 4.84c-.212.216-.212.565 0 .78.11.108.25.162.39.162.145 0 .286-.054.39-.16l4.846-4.843c.215-.216.215-.565 0-.78zm-9.715 4.565l-.754.753c-.215.22-.215.57 0 .78.108.11.25.166.39.166.142 0 .283-.054.39-.162l.754-.752c.215-.214.215-.564 0-.78-.215-.215-.565-.215-.78 0zm7.194-6.414c-.216-.215-.565-.215-.78 0l-5.16 5.16c-.215.215-.215.564 0 .78.108.107.25.16.39.16s.283-.053.39-.16l5.16-5.16c.215-.215.215-.564 0-.78zm22.114-1.456c.026-.036.642-.892 1.14-1.89.767-1.546.84-2.597.225-3.213-.273-.277-.654-.417-1.13-.417-1.52 0-3.79 1.51-4.045 1.683l-.08.07-4.812 4.81-2.687-1.125.304-.303c.223-.225.347-.523.347-.84 0-.317-.124-.615-.348-.84l-.95-.946c-.225-.225-.523-.348-.84-.348-.317 0-.615.123-.84.348l-1.38 1.38-5.65-2.368c-.205-.086-.444-.04-.602.12l-1.865 1.863c-.118.118-.176.284-.158.45.02.167.112.316.253.406l10.17 6.446-7.28 7.28-3.388-.68c-.18-.038-.368.02-.5.15l-.792.793c-.118.118-.177.284-.158.45.018.167.11.316.253.406l3.996 2.533-1.674 1.674c-.215.215-.215.565 0 .78.108.108.25.162.39.162.142 0 .283-.055.39-.163l1.67-1.67 2.53 3.99c.09.142.24.235.406.253l.06.002c.147 0 .287-.058.39-.162l.794-.793c.13-.13.188-.318.15-.5l-.68-3.388 7.28-7.284 6.458 10.186c.09.143.24.237.406.255l.06.003c.148 0 .288-.056.39-.16l1.866-1.864c.158-.158.205-.397.12-.603l-2.368-5.65 1.38-1.38c.224-.225.347-.523.347-.84 0-.317-.123-.615-.347-.84l-.948-.947c-.226-.224-.524-.347-.84-.347-.318 0-.616.12-.84.345l-.304.304-1.134-2.708 4.806-4.806.056-.066zM27.3 123.06c-.304 0-.55.248-.55.553 0 .305.246.552.55.552.117 0 .226.045.307.127.082.082.128.19.128.307 0 .3.247.55.55.55.306 0 .553-.25.553-.55 0-.415-.16-.8-.45-1.09-.29-.29-.677-.45-1.087-.45zm-10.08.263l.06-.025.058.025.948.947.024.06-.024.06-.624.622-1.502-.63 1.06-1.06zm-9.01.508l1.115-1.11 11.28 4.723-2.6 2.6-9.794-6.21zm19.3 9.786l.06-.024.06.024.947.948.024.06-.02.06-1.06 1.06-.63-1.502.624-.624zm1.673 8.96l-1.115 1.116-6.208-9.794 2.6-2.6 4.723 11.28zm-16.406-1.187c-.13.13-.188.317-.15.5l.68 3.387-.096.097-2.29-3.617 1.49-1.49c.216-.215.216-.565 0-.78-.215-.215-.564-.215-.78 0l-1.49 1.49-3.622-2.298.097-.098 3.388.683c.183.037.37-.02.5-.15l16.505-16.505c.65-.434 2.4-1.464 3.385-1.464.116 0 .273.017.35.095.32.32-.234 1.94-1.453 3.64l-16.51 16.51z" fill="#206FAC"/></g></svg>