<svg width="32" height="232" viewBox="0 0 32 232" xmlns="http://www.w3.org/2000/svg"><title>area-code</title><desc>Created with Sketch.</desc><g fill="none"><path d="M8.78 7.224c1.102 0 2-.897 2-2V3c0-1.103-.898-2-2-2-1.104 0-2 .897-2 2v2.224c0 1.103.896 2 2 2zm0-1.16c-.227 0-.432-.09-.583-.237l1.422-1.66v1.057c0 .463-.378.84-.84.84zm0-3.903c.293 0 .552.153.702.383l-1.542 1.8V3c0-.462.377-.84.84-.84zm9.35 5.064c1.102 0 2-.897 2-2V3c0-1.103-.898-2-2-2s-2 .897-2 2v2.224c0 1.103.896 2 2 2zm0-1.16c-.227 0-.432-.09-.583-.237l1.42-1.66v1.057c0 .463-.375.84-.838.84zm0-3.903c.293 0 .552.153.7.383l-1.54 1.8V3c0-.462.376-.84.84-.84zm4.674 5.064c1.102 0 2-.897 2-2V3c0-1.103-.898-2-2-2-1.103 0-2 .897-2 2v2.224c0 1.103.897 2 2 2zm0-1.16c-.226 0-.43-.09-.583-.237l1.423-1.66v1.057c0 .463-.377.84-.84.84zm0-3.903c.294 0 .552.153.702.383l-1.542 1.8V3c0-.462.377-.84.84-.84zm-9.35 5.064c1.103 0 2-.897 2-2V3c0-1.103-.897-2-2-2s-2 .897-2 2v2.224c0 1.103.897 2 2 2zm0-1.16c-.226 0-.43-.09-.582-.237l1.42-1.66v1.057c0 .463-.375.84-.838.84zm0-3.903c.294 0 .553.154.703.383l-1.542 1.8V3c0-.462.376-.84.84-.84zM5.78 8.25c.104 0 .21-.027.304-.086.273-.168.358-.526.19-.8-.618-1-.944-2.156-.944-3.34 0-1.117.293-2.217.848-3.18.16-.277.065-.632-.213-.792-.277-.16-.632-.065-.793.212-.656 1.14-1.003 2.44-1.003 3.76 0 1.4.385 2.765 1.115 3.95.11.18.3.277.495.277M26.253 4.2c0 1.118-.294 2.218-.848 3.18-.16.278-.065.633.213.793.09.053.19.078.29.078.2 0 .395-.104.502-.29.657-1.14 1.004-2.44 1.004-3.76 0-1.4-.386-2.765-1.116-3.95-.17-.273-.526-.358-.8-.19-.272.168-.357.526-.19.8.62 1 .945 2.156.945 3.34m-10.46 5.16c-6.236 0-11.308 5.072-11.308 11.307 0 6.233 5.07 11.305 11.304 11.306h.004c6.234 0 11.304-5.073 11.304-11.306 0-6.235-5.072-11.307-11.306-11.307zM25.92 20.086h-3.8c-.076-2.742-.69-5.308-1.747-7.28-.35-.65-.736-1.214-1.152-1.688 3.74 1.346 6.466 4.83 6.7 8.968zm-10.71-9.498v9.498h-4.585c.148-4.863 2.14-8.934 4.586-9.498zm0 10.66v9.497c-2.446-.564-4.437-4.635-4.585-9.498h4.586zm1.162 9.497v-9.498h4.586c-.148 4.863-2.14 8.934-4.586 9.498zm0-10.66V10.59c2.447.564 4.438 4.635 4.586 9.498h-4.586zm-4.01-8.967c-.416.474-.803 1.038-1.152 1.69-1.057 1.97-1.67 4.536-1.746 7.278h-3.8c.233-4.14 2.96-7.622 6.698-8.968zm-6.7 10.13h3.802c.076 2.74.69 5.308 1.746 7.278.35.65.736 1.215 1.152 1.69-3.738-1.347-6.465-4.83-6.7-8.97zm13.56 8.967c.415-.473.802-1.038 1.15-1.69 1.058-1.97 1.672-4.536 1.748-7.278h3.8c-.234 4.14-2.96 7.622-6.7 8.968z" fill="#3A434E"/><path d="M8.78 47.224c1.102 0 2-.897 2-2V43c0-1.103-.898-2-2-2-1.104 0-2 .897-2 2v2.224c0 1.103.896 2 2 2zm0-1.16c-.227 0-.432-.09-.583-.237l1.422-1.66v1.057c0 .463-.378.84-.84.84zm0-3.903c.293 0 .552.153.702.383l-1.542 1.8V43c0-.462.377-.84.84-.84zm9.35 5.064c1.102 0 2-.897 2-2V43c0-1.103-.898-2-2-2s-2 .897-2 2v2.224c0 1.103.896 2 2 2zm0-1.16c-.227 0-.432-.09-.583-.237l1.42-1.66v1.057c0 .463-.375.84-.838.84zm0-3.903c.293 0 .552.153.7.383l-1.54 1.8V43c0-.462.376-.84.84-.84zm4.674 5.064c1.102 0 2-.897 2-2V43c0-1.103-.898-2-2-2-1.103 0-2 .897-2 2v2.224c0 1.103.897 2 2 2zm0-1.16c-.226 0-.43-.09-.583-.237l1.423-1.66v1.057c0 .463-.377.84-.84.84zm0-3.903c.294 0 .552.153.702.383l-1.542 1.8V43c0-.462.377-.84.84-.84zm-9.35 5.064c1.103 0 2-.897 2-2V43c0-1.103-.897-2-2-2s-2 .897-2 2v2.224c0 1.103.897 2 2 2zm0-1.16c-.226 0-.43-.09-.582-.237l1.42-1.66v1.057c0 .463-.375.84-.838.84zm0-3.903c.294 0 .553.154.703.383l-1.542 1.8V43c0-.462.376-.84.84-.84zM5.78 48.25c.104 0 .21-.027.304-.086.273-.168.358-.526.19-.8-.618-1-.944-2.156-.944-3.34 0-1.117.293-2.217.848-3.18.16-.277.065-.632-.213-.792-.277-.16-.632-.065-.793.212-.656 1.14-1.003 2.44-1.003 3.76 0 1.4.385 2.765 1.115 3.95.11.18.3.277.495.277m20.473-4.05c0 1.118-.294 2.218-.848 3.18-.16.278-.065.633.213.793.09.053.19.078.29.078.2 0 .395-.104.502-.29.657-1.14 1.004-2.44 1.004-3.76 0-1.4-.386-2.765-1.116-3.95-.17-.273-.526-.358-.8-.19-.272.168-.357.526-.19.8.62 1 .945 2.156.945 3.34m-10.46 5.16c-6.236 0-11.308 5.072-11.308 11.307 0 6.233 5.07 11.305 11.304 11.306h.004c6.234 0 11.304-5.073 11.304-11.306 0-6.235-5.072-11.307-11.306-11.307zM25.92 60.086h-3.8c-.076-2.742-.69-5.308-1.747-7.28-.35-.65-.736-1.214-1.152-1.688 3.74 1.346 6.466 4.83 6.7 8.968zm-10.71-9.498v9.498h-4.585c.148-4.863 2.14-8.934 4.586-9.498zm0 10.66v9.497c-2.446-.564-4.437-4.635-4.585-9.498h4.586zm1.162 9.497v-9.498h4.586c-.148 4.863-2.14 8.934-4.586 9.498zm0-10.66V50.59c2.447.564 4.438 4.635 4.586 9.498h-4.586zm-4.01-8.967c-.416.474-.803 1.038-1.152 1.69-1.057 1.97-1.67 4.536-1.746 7.278h-3.8c.233-4.14 2.96-7.622 6.698-8.968zm-6.7 10.13h3.802c.076 2.74.69 5.308 1.746 7.278.35.65.736 1.215 1.152 1.69-3.738-1.347-6.465-4.83-6.7-8.97zm13.56 8.967c.415-.473.802-1.038 1.15-1.69 1.058-1.97 1.672-4.536 1.748-7.278h3.8c-.234 4.14-2.96 7.622-6.7 8.968z" fill="#67737B"/><path d="M8.78 87.224c1.102 0 2-.897 2-2V83c0-1.103-.898-2-2-2-1.104 0-2 .897-2 2v2.224c0 1.103.896 2 2 2zm0-1.16c-.227 0-.432-.09-.583-.237l1.422-1.66v1.057c0 .463-.378.84-.84.84zm0-3.903c.293 0 .552.153.702.383l-1.542 1.8V83c0-.462.377-.84.84-.84zm9.35 5.064c1.102 0 2-.897 2-2V83c0-1.103-.898-2-2-2s-2 .897-2 2v2.224c0 1.103.896 2 2 2zm0-1.16c-.227 0-.432-.09-.583-.237l1.42-1.66v1.057c0 .463-.375.84-.838.84zm0-3.903c.293 0 .552.153.7.383l-1.54 1.8V83c0-.462.376-.84.84-.84zm4.674 5.064c1.102 0 2-.897 2-2V83c0-1.103-.898-2-2-2-1.103 0-2 .897-2 2v2.224c0 1.103.897 2 2 2zm0-1.16c-.226 0-.43-.09-.583-.237l1.423-1.66v1.057c0 .463-.377.84-.84.84zm0-3.903c.294 0 .552.153.702.383l-1.542 1.8V83c0-.462.377-.84.84-.84zm-9.35 5.064c1.103 0 2-.897 2-2V83c0-1.103-.897-2-2-2s-2 .897-2 2v2.224c0 1.103.897 2 2 2zm0-1.16c-.226 0-.43-.09-.582-.237l1.42-1.66v1.057c0 .463-.375.84-.838.84zm0-3.903c.294 0 .553.154.703.383l-1.542 1.8V83c0-.462.376-.84.84-.84zM5.78 88.25c.104 0 .21-.027.304-.086.273-.168.358-.526.19-.8-.618-1-.944-2.156-.944-3.34 0-1.117.293-2.217.848-3.18.16-.277.065-.632-.213-.792-.277-.16-.632-.065-.793.212-.656 1.14-1.003 2.44-1.003 3.76 0 1.4.385 2.765 1.115 3.95.11.18.3.277.495.277m20.473-4.05c0 1.118-.294 2.218-.848 3.18-.16.278-.065.633.213.793.09.053.19.078.29.078.2 0 .395-.104.502-.29.657-1.14 1.004-2.44 1.004-3.76 0-1.4-.386-2.765-1.116-3.95-.17-.273-.526-.358-.8-.19-.272.168-.357.526-.19.8.62 1 .945 2.156.945 3.34m-10.46 5.16c-6.236 0-11.308 5.072-11.308 11.307 0 6.233 5.07 11.305 11.304 11.306h.004c6.234 0 11.304-5.073 11.304-11.306 0-6.235-5.072-11.307-11.306-11.307zm10.127 10.726h-3.8c-.076-2.742-.69-5.308-1.747-7.28-.35-.65-.736-1.214-1.152-1.688 3.74 1.346 6.466 4.83 6.7 8.968zm-10.71-9.498v9.498h-4.585c.148-4.863 2.14-8.934 4.586-9.498zm0 10.66v9.497c-2.446-.564-4.437-4.635-4.585-9.498h4.586zm1.162 9.497v-9.498h4.586c-.148 4.863-2.14 8.934-4.586 9.498zm0-10.66V90.59c2.447.564 4.438 4.635 4.586 9.498h-4.586zm-4.01-8.967c-.416.474-.803 1.038-1.152 1.69-1.057 1.97-1.67 4.536-1.746 7.278h-3.8c.233-4.14 2.96-7.622 6.698-8.968zm-6.7 10.13h3.802c.076 2.74.69 5.308 1.746 7.278.35.65.736 1.215 1.152 1.69-3.738-1.347-6.465-4.83-6.7-8.97zm13.56 8.967c.415-.473.802-1.038 1.15-1.69 1.058-1.97 1.672-4.536 1.748-7.278h3.8c-.234 4.14-2.96 7.622-6.7 8.968z" fill="#fff"/><path d="M8.78 127.224c1.102 0 2-.897 2-2V123c0-1.103-.898-2-2-2-1.104 0-2 .897-2 2v2.224c0 1.103.896 2 2 2zm0-1.16c-.227 0-.432-.09-.583-.237l1.422-1.66v1.057c0 .463-.378.84-.84.84zm0-3.903c.293 0 .552.153.702.383l-1.542 1.8V123c0-.462.377-.84.84-.84zm9.35 5.064c1.102 0 2-.897 2-2V123c0-1.103-.898-2-2-2s-2 .897-2 2v2.224c0 1.103.896 2 2 2zm0-1.16c-.227 0-.432-.09-.583-.237l1.42-1.66v1.057c0 .463-.375.84-.838.84zm0-3.903c.293 0 .552.153.7.383l-1.54 1.8V123c0-.462.376-.84.84-.84zm4.674 5.064c1.102 0 2-.897 2-2V123c0-1.103-.898-2-2-2-1.103 0-2 .897-2 2v2.224c0 1.103.897 2 2 2zm0-1.16c-.226 0-.43-.09-.583-.237l1.423-1.66v1.057c0 .463-.377.84-.84.84zm0-3.903c.294 0 .552.153.702.383l-1.542 1.8V123c0-.462.377-.84.84-.84zm-9.35 5.064c1.103 0 2-.897 2-2V123c0-1.103-.897-2-2-2s-2 .897-2 2v2.224c0 1.103.897 2 2 2zm0-1.16c-.226 0-.43-.09-.582-.237l1.42-1.66v1.057c0 .463-.375.84-.838.84zm0-3.903c.294 0 .553.154.703.383l-1.542 1.8V123c0-.462.376-.84.84-.84zm-7.674 6.09c.104 0 .21-.027.304-.086.273-.168.358-.526.19-.8-.618-1-.944-2.156-.944-3.34 0-1.117.293-2.217.848-3.18.16-.277.065-.632-.213-.792-.277-.16-.632-.065-.793.212-.656 1.14-1.003 2.44-1.003 3.76 0 1.4.385 2.765 1.115 3.95.11.18.3.277.495.277m20.473-4.05c0 1.118-.294 2.218-.848 3.18-.16.278-.065.633.213.793.09.053.19.078.29.078.2 0 .395-.104.502-.29.657-1.14 1.004-2.44 1.004-3.76 0-1.4-.386-2.765-1.116-3.95-.17-.273-.526-.358-.8-.19-.272.168-.357.526-.19.8.62 1 .945 2.156.945 3.34m-10.46 5.16c-6.236 0-11.308 5.072-11.308 11.307 0 6.233 5.07 11.305 11.304 11.306h.004c6.234 0 11.304-5.073 11.304-11.306 0-6.235-5.072-11.307-11.306-11.307zm10.127 10.726h-3.8c-.076-2.742-.69-5.308-1.747-7.28-.35-.65-.736-1.214-1.152-1.688 3.74 1.346 6.466 4.83 6.7 8.968zm-10.71-9.498v9.498h-4.585c.148-4.863 2.14-8.934 4.586-9.498zm0 10.66v9.497c-2.446-.564-4.437-4.635-4.585-9.498h4.586zm1.162 9.497v-9.498h4.586c-.148 4.863-2.14 8.934-4.586 9.498zm0-10.66v-9.497c2.447.564 4.438 4.635 4.586 9.498h-4.586zm-4.01-8.967c-.416.474-.803 1.038-1.152 1.69-1.057 1.97-1.67 4.536-1.746 7.278h-3.8c.233-4.14 2.96-7.622 6.698-8.968zm-6.7 10.13h3.802c.076 2.74.69 5.308 1.746 7.278.35.65.736 1.215 1.152 1.69-3.738-1.347-6.465-4.83-6.7-8.97zm13.56 8.967c.415-.473.802-1.038 1.15-1.69 1.058-1.97 1.672-4.536 1.748-7.278h3.8c-.234 4.14-2.96 7.622-6.7 8.968z" fill="#206FAC"/></g></svg>