<svg width="32" height="232" viewBox="0 0 32 232" xmlns="http://www.w3.org/2000/svg"><desc>Created with Sketch.</desc><g fill="none"><path d="M8.78 7.224c1.102 0 2-.897 2-2V3c0-1.103-.898-2-2-2-1.104 0-2 .897-2 2v2.224c0 1.103.896 2 2 2zm0-1.16c-.227 0-.432-.09-.583-.237l1.422-1.66v1.057c0 .463-.38.84-.84.84zm0-3.903c.293 0 .552.16.702.39L7.94 4.35V3c0-.462.377-.84.84-.84zm9.35 5.07c1.102 0 2-.89 2-2V3c0-1.103-.898-2-2-2s-2 .897-2 2v2.224c0 1.103.896 2 2 2zm0-1.16c-.227 0-.432-.09-.583-.23l1.42-1.66v1.05c0 .47-.375.84-.838.84zm0-3.9c.293 0 .552.16.7.39l-1.54 1.8V3c0-.462.376-.84.84-.84zm4.674 5.07c1.102 0 2-.89 2-2V3c0-1.103-.898-2-2-2-1.103 0-2 .897-2 2v2.224c0 1.103.897 2 2 2zm0-1.16c-.226 0-.43-.09-.583-.23l1.43-1.66v1.05c0 .47-.37.84-.84.84zm0-3.9c.294 0 .552.16.702.39l-1.542 1.8V3c0-.462.377-.84.84-.84zm-9.35 5.07c1.103 0 2-.89 2-2V3c0-1.103-.897-2-2-2s-2 .897-2 2v2.224c0 1.103.897 2 2 2zm0-1.16c-.226 0-.43-.09-.582-.23l1.42-1.66v1.05c0 .47-.375.84-.838.84zm0-3.9c.294 0 .553.16.703.39l-1.542 1.8V3c0-.462.376-.84.84-.84zM5.78 8.25c.104 0 .21-.027.304-.086.273-.168.358-.526.19-.8-.618-1-.944-2.156-.944-3.34 0-1.117.293-2.217.848-3.18.16-.277.065-.632-.213-.792-.277-.16-.632-.065-.793.212-.656 1.14-1.003 2.44-1.003 3.76 0 1.4.38 2.765 1.11 3.95.11.18.3.277.49.277M26.25 4.2c0 1.12-.294 2.22-.85 3.18-.16.28-.063.635.215.795.09.053.19.078.29.078.2 0 .395-.1.502-.29.65-1.14 1-2.44 1-3.76 0-1.4-.388-2.76-1.118-3.95-.17-.27-.53-.35-.8-.19-.28.17-.36.53-.19.8.62 1 .94 2.16.94 3.34M15.79 9.36c-6.235 0-11.307 5.075-11.307 11.31 0 6.233 5.07 11.305 11.304 11.306h.003c6.235 0 11.305-5.073 11.305-11.306 0-6.236-5.072-11.308-11.306-11.308zm10.13 10.73h-3.8c-.076-2.742-.69-5.308-1.747-7.28-.35-.65-.736-1.214-1.152-1.688 3.74 1.345 6.47 4.83 6.7 8.967zm-10.71-9.5v9.497h-4.585c.148-4.863 2.14-8.934 4.586-9.498zm0 10.66v9.496c-2.446-.564-4.437-4.635-4.585-9.498h4.586zm1.162 9.496v-9.498h4.586c-.148 4.863-2.14 8.934-4.586 9.498zm0-10.66V10.59c2.447.564 4.438 4.635 4.586 9.498h-4.586zm-4.01-8.967c-.416.47-.803 1.03-1.152 1.69-1.057 1.97-1.67 4.53-1.746 7.27h-3.8c.233-4.14 2.96-7.62 6.698-8.97zm-6.7 10.13h3.802c.076 2.74.69 5.3 1.746 7.27.35.65.736 1.21 1.152 1.69-3.738-1.35-6.465-4.83-6.7-8.97zm13.56 8.96c.415-.48.802-1.04 1.15-1.69 1.058-1.97 1.672-4.54 1.748-7.28h3.8c-.234 4.14-2.96 7.62-6.7 8.97z" fill="#3A434E"/><path d="M8.78 47.224c1.102 0 2-.897 2-2V43c0-1.103-.898-2-2-2-1.104 0-2 .897-2 2v2.224c0 1.103.896 2 2 2zm0-1.16c-.227 0-.432-.09-.583-.237l1.422-1.66v1.057c0 .463-.38.84-.84.84zm0-3.903c.293 0 .552.16.702.39l-1.542 1.8V43c0-.462.377-.84.84-.84zm9.35 5.07c1.102 0 2-.89 2-2V43c0-1.103-.898-2-2-2s-2 .897-2 2v2.224c0 1.103.896 2 2 2zm0-1.16c-.227 0-.432-.09-.583-.23l1.42-1.66v1.06c0 .47-.375.84-.838.84zm0-3.9c.293 0 .552.16.7.39l-1.54 1.8V43c0-.462.376-.84.84-.84zm4.674 5.07c1.102 0 2-.89 2-2V43c0-1.103-.898-2-2-2-1.103 0-2 .897-2 2v2.224c0 1.103.897 2 2 2zm0-1.16c-.226 0-.43-.09-.583-.23l1.43-1.66v1.06c0 .46-.37.84-.84.84zm0-3.9c.294 0 .552.16.702.39l-1.542 1.8V43c0-.462.377-.84.84-.84zm-9.35 5.07c1.103 0 2-.89 2-2V43c0-1.103-.897-2-2-2s-2 .897-2 2v2.224c0 1.103.897 2 2 2zm0-1.16c-.226 0-.43-.09-.582-.23l1.42-1.66v1.06c0 .47-.375.84-.838.84zm0-3.9c.294 0 .553.16.703.39l-1.542 1.8V43c0-.462.376-.84.84-.84zM5.78 48.25c.104 0 .21-.027.304-.086.273-.168.358-.526.19-.8-.618-1-.944-2.156-.944-3.34 0-1.117.293-2.217.848-3.18.16-.277.065-.632-.213-.792-.277-.16-.632-.065-.793.212-.656 1.14-1.003 2.44-1.003 3.76 0 1.4.38 2.765 1.11 3.95.11.18.3.277.49.277m20.48-4.05c0 1.12-.3 2.22-.85 3.18-.16.28-.07.64.21.8.09.06.19.08.29.08.2 0 .39-.1.5-.29.65-1.14 1-2.44 1-3.76 0-1.4-.39-2.76-1.12-3.95-.17-.27-.53-.36-.8-.19-.27.17-.36.53-.19.8.62 1 .94 2.16.94 3.34m-10.46 5.16c-6.24 0-11.31 5.07-11.31 11.31 0 6.23 5.07 11.3 11.3 11.3s11.3-5.07 11.3-11.31c0-6.23-5.07-11.3-11.31-11.3zM25.9 60.1h-3.8c-.08-2.74-.69-5.31-1.75-7.28-.35-.65-.74-1.21-1.15-1.69 3.74 1.35 6.464 4.83 6.7 8.97zm-10.71-9.5v9.5H10.6c.147-4.86 2.14-8.93 4.585-9.5zm0 10.66v9.5c-2.45-.56-4.44-4.632-4.59-9.495h4.59zm1.16 9.5v-9.5h4.58c-.145 4.865-2.14 8.936-4.583 9.5zm0-10.66v-9.5c2.444.567 4.44 4.638 4.58 9.5h-4.58zm-4.01-8.964c-.42.472-.806 1.036-1.15 1.69-1.06 1.97-1.67 4.534-1.75 7.276h-3.8c.23-4.14 2.96-7.62 6.7-8.967zm-6.7 10.13h3.8c.074 2.74.69 5.306 1.744 7.276.35.65.734 1.216 1.15 1.69-3.738-1.346-6.465-4.83-6.7-8.97zM19.2 70.23c.41-.474.8-1.04 1.15-1.69 1.06-1.97 1.67-4.537 1.75-7.28h3.8c-.24 4.14-2.96 7.623-6.7 8.97z" fill="#67737B"/><path d="M8.78 87.224c1.102 0 2-.897 2-2V83c0-1.103-.898-2-2-2-1.104 0-2 .897-2 2v2.224c0 1.103.896 2 2 2zm0-1.16c-.227 0-.432-.09-.583-.237l1.422-1.66v1.057c0 .463-.38.84-.84.84zm0-3.903c.293 0 .552.16.702.39l-1.542 1.8V83c0-.462.377-.84.84-.84zm9.35 5.07c1.102 0 2-.89 2-2V83c0-1.103-.898-2-2-2s-2 .897-2 2v2.224c0 1.103.896 2 2 2zm0-1.16c-.227 0-.432-.09-.583-.23l1.42-1.66v1.06c0 .47-.375.84-.838.84zm0-3.9c.293 0 .552.16.7.39l-1.54 1.8V83c0-.462.376-.84.84-.84zm4.674 5.07c1.102 0 2-.89 2-2V83c0-1.103-.898-2-2-2-1.103 0-2 .897-2 2v2.224c0 1.103.897 2 2 2zm0-1.16c-.226 0-.43-.09-.583-.23l1.43-1.66v1.06c0 .46-.37.84-.84.84zm0-3.9c.294 0 .552.16.702.39l-1.542 1.8V83c0-.462.377-.84.84-.84zm-9.35 5.07c1.103 0 2-.89 2-2V83c0-1.103-.897-2-2-2s-2 .897-2 2v2.224c0 1.103.897 2 2 2zm0-1.16c-.226 0-.43-.09-.582-.23l1.42-1.66v1.06c0 .47-.375.84-.838.84zm0-3.9c.294 0 .553.16.703.39l-1.542 1.8V83c0-.462.376-.84.84-.84zM5.78 88.25c.104 0 .21-.027.304-.086.273-.168.358-.526.19-.8-.618-1-.944-2.156-.944-3.34 0-1.117.293-2.217.848-3.18.16-.277.065-.632-.213-.792-.277-.16-.632-.065-.793.212-.656 1.14-1.003 2.44-1.003 3.76 0 1.4.38 2.765 1.11 3.95.11.18.3.277.49.277m20.48-4.05c0 1.12-.3 2.22-.85 3.18-.16.28-.07.64.21.8.09.06.19.08.29.08.2 0 .39-.1.5-.29.65-1.14 1-2.44 1-3.76 0-1.4-.39-2.76-1.12-3.95-.17-.27-.53-.36-.8-.19-.27.17-.36.53-.19.8.62 1 .94 2.16.94 3.34m-10.46 5.16c-6.24 0-11.31 5.07-11.31 11.31 0 6.23 5.07 11.3 11.3 11.3s11.3-5.07 11.3-11.31c0-6.23-5.07-11.3-11.31-11.3zm10.12 10.73h-3.8c-.08-2.74-.69-5.31-1.75-7.28-.35-.65-.74-1.21-1.15-1.69 3.74 1.35 6.46 4.83 6.7 8.97zm-10.7-9.5v9.5h-4.58c.14-4.86 2.14-8.93 4.58-9.5zm0 10.66v9.5c-2.45-.56-4.44-4.63-4.59-9.5h4.59zm1.16 9.5v-9.5h4.58c-.15 4.86-2.14 8.93-4.59 9.49zm0-10.66v-9.5c2.44.57 4.44 4.64 4.58 9.5h-4.58zm-4.01-8.97c-.42.48-.81 1.04-1.15 1.69-1.06 1.97-1.67 4.54-1.75 7.28h-3.8c.23-4.14 2.96-7.62 6.7-8.97zm-6.7 10.13h3.8c.07 2.74.69 5.31 1.74 7.28.35.65.73 1.22 1.15 1.69-3.74-1.34-6.47-4.83-6.7-8.97zm13.56 8.97c.41-.47.8-1.04 1.15-1.69 1.06-1.97 1.67-4.53 1.75-7.28h3.8c-.24 4.14-2.96 7.62-6.7 8.96z" fill="#fff"/><path d="M8.78 127.224c1.102 0 2-.897 2-2V123c0-1.103-.898-2-2-2-1.104 0-2 .897-2 2v2.224c0 1.103.896 2 2 2zm0-1.16c-.227 0-.432-.09-.583-.237l1.422-1.66v1.057c0 .463-.38.84-.84.84zm0-3.903c.293 0 .552.16.702.39l-1.542 1.8V123c0-.462.377-.84.84-.84zm9.35 5.07c1.102 0 2-.89 2-2V123c0-1.103-.898-2-2-2s-2 .897-2 2v2.224c0 1.103.896 2 2 2zm0-1.16c-.227 0-.432-.09-.583-.23l1.42-1.66v1.06c0 .47-.375.84-.838.84zm0-3.9c.293 0 .552.16.7.39l-1.54 1.8V123c0-.462.376-.84.84-.84zm4.674 5.07c1.102 0 2-.89 2-2V123c0-1.103-.898-2-2-2-1.103 0-2 .897-2 2v2.224c0 1.103.897 2 2 2zm0-1.16c-.226 0-.43-.09-.583-.23l1.43-1.66v1.06c0 .46-.37.84-.84.84zm0-3.9c.294 0 .552.16.702.39l-1.542 1.8V123c0-.462.377-.84.84-.84zm-9.35 5.07c1.103 0 2-.89 2-2V123c0-1.103-.897-2-2-2s-2 .897-2 2v2.224c0 1.103.897 2 2 2zm0-1.16c-.226 0-.43-.09-.582-.23l1.42-1.66v1.06c0 .47-.375.84-.838.84zm0-3.9c.294 0 .553.16.703.39l-1.542 1.8V123c0-.462.376-.84.84-.84zm-7.674 6.09c.104 0 .21-.02.304-.08.273-.17.358-.52.19-.8-.618-1-.944-2.15-.944-3.34 0-1.11.293-2.21.848-3.18.16-.27.065-.63-.213-.79-.277-.16-.632-.06-.793.21-.656 1.14-1.003 2.44-1.003 3.76 0 1.4.38 2.76 1.11 3.95.11.18.3.27.49.27m20.47-4.05c0 1.12-.3 2.22-.85 3.18-.16.28-.07.64.21.8.09.06.19.08.29.08.2 0 .39-.1.5-.29.65-1.14 1-2.44 1-3.76 0-1.4-.39-2.76-1.12-3.95-.17-.27-.53-.36-.8-.19-.28.17-.36.53-.19.8.62 1 .94 2.16.94 3.34m-10.46 5.16c-6.24 0-11.31 5.07-11.31 11.31S9.52 152 15.75 152h.004c6.236 0 11.306-5.07 11.306-11.304S22 129.38 15.766 129.38zm10.14 10.7h-3.8c-.08-2.74-.69-5.3-1.75-7.28-.35-.65-.74-1.21-1.15-1.68 3.74 1.348 6.47 4.83 6.7 8.97zm-10.71-9.5v9.5h-4.58c.14-4.86 2.14-8.93 4.58-9.49zm0 10.66v9.5c-2.45-.56-4.44-4.63-4.59-9.49h4.59zm1.16 9.5v-9.49h4.58c-.15 4.866-2.14 8.937-4.587 9.5zm0-10.66v-9.5c2.45.57 4.44 4.64 4.58 9.5h-4.58zm-4.01-8.96c-.42.476-.8 1.04-1.15 1.69-1.06 1.97-1.67 4.538-1.75 7.28h-3.8c.23-4.14 2.96-7.622 6.692-8.97zm-6.7 10.13h3.81c.07 2.74.69 5.31 1.74 7.28.35.65.73 1.215 1.15 1.69-3.74-1.35-6.47-4.83-6.7-8.97zm13.56 8.97c.41-.47.8-1.03 1.15-1.69 1.06-1.97 1.67-4.53 1.75-7.27h3.8c-.24 4.14-2.96 7.62-6.7 8.97z" fill="#206FAC"/></g></svg>