<svg width="32" height="232" viewBox="0 0 32 232" xmlns="http://www.w3.org/2000/svg" xmlns:sketch="http://www.bohemiancoding.com/sketch/ns"><title>area-code</title><desc>Created with Sketch.</desc><g sketch:type="MSPage" fill="none"><path d="M8.779 7.224c1.103 0 2.001-.897 2.001-2v-2.224c0-1.103-.898-2-2.001-2-1.103 0-2 .897-2 2v2.224c0 1.103.897 2 2 2zm0-1.161c-.226 0-.431-.09-.582-.236l1.422-1.659v1.056c0 .463-.377.839-.84.839zm0-3.902c.294 0 .553.152.703.382l-1.542 1.8v-1.343c0-.462.377-.839.839-.839zm9.35 5.063c1.103 0 2-.897 2-2v-2.224c0-1.103-.897-2-2-2s-2 .897-2 2v2.224c0 1.103.897 2 2 2zm0-1.161c-.226 0-.431-.09-.582-.236l1.421-1.659v1.056c0 .463-.376.839-.839.839zm0-3.902c.294 0 .553.152.702.382l-1.541 1.8v-1.343c0-.462.376-.839.839-.839zm4.675 5.063c1.102 0 2-.897 2-2v-2.224c0-1.103-.898-2-2-2-1.103 0-2.001.897-2.001 2v2.224c0 1.103.898 2 2.001 2zm0-1.161c-.226 0-.431-.09-.583-.236l1.422-1.659v1.056c0 .463-.377.839-.839.839zm0-3.902c.294 0 .552.152.702.382l-1.542 1.8v-1.343c0-.462.377-.839.84-.839zm-9.35 5.063c1.103 0 2-.897 2-2v-2.224c0-1.103-.897-2-2-2s-2 .897-2 2v2.224c0 1.103.897 2 2 2zm0-1.161c-.226 0-.431-.09-.582-.236l1.421-1.659v1.056c0 .463-.376.839-.839.839zm0-3.902c.294 0 .553.153.703.382l-1.542 1.8v-1.343c0-.462.376-.839.839-.839zm-7.674 6.09c.104 0 .209-.028.304-.087.273-.168.358-.526.19-.799-.618-1.002-.944-2.157-.944-3.34 0-1.118.293-2.218.848-3.181.161-.277.065-.632-.213-.792-.277-.161-.632-.065-.793.212-.656 1.139-1.003 2.439-1.003 3.761 0 1.399.386 2.764 1.116 3.95.11.178.3.276.495.276m20.473-4.052c0 1.119-.294 2.219-.848 3.181-.161.278-.065.633.213.793.091.053.19.078.289.078.201 0 .396-.105.503-.291.657-1.139 1.004-2.439 1.004-3.761 0-1.398-.386-2.764-1.116-3.949-.169-.273-.526-.358-.799-.19-.273.168-.358.526-.19.799.618 1.002.944 2.157.944 3.34m-10.461 5.161c-6.235 0-11.307 5.072-11.307 11.307 0 6.233 5.071 11.305 11.304 11.306l.003.001.002-.001c6.234-.001 11.304-5.073 11.304-11.306 0-6.235-5.072-11.307-11.306-11.307zm10.128 10.726h-3.8c-.076-2.742-.69-5.308-1.747-7.279-.349-.651-.736-1.215-1.152-1.689 3.738 1.346 6.465 4.829 6.699 8.968zm-10.709-9.498v9.498h-4.586c.148-4.863 2.139-8.934 4.586-9.498zm0 10.659v9.498c-2.447-.564-4.438-4.635-4.586-9.498h4.586zm1.161 9.498v-9.498h4.586c-.148 4.863-2.139 8.934-4.586 9.498zm0-10.659v-9.498c2.447.564 4.438 4.635 4.586 9.498h-4.586zm-4.01-8.968c-.416.474-.803 1.038-1.152 1.689-1.057 1.971-1.67 4.537-1.746 7.279h-3.801c.234-4.139 2.961-7.622 6.699-8.968zm-6.699 10.129h3.801c.076 2.742.689 5.309 1.746 7.279.349.651.736 1.215 1.152 1.689-3.738-1.346-6.465-4.829-6.699-8.968zm13.558 8.968c.416-.473.803-1.038 1.152-1.689 1.057-1.97 1.671-4.537 1.747-7.279h3.8c-.234 4.139-2.961 7.622-6.699 8.968z" fill="#3A434E" sketch:type="MSShapeGroup"/><path d="M8.779 47.224c1.103 0 2.001-.897 2.001-2v-2.224c0-1.103-.898-2-2.001-2-1.103 0-2 .897-2 2v2.224c0 1.103.897 2 2 2zm0-1.161c-.226 0-.431-.09-.582-.236l1.422-1.659v1.056c0 .463-.377.839-.84.839zm0-3.902c.294 0 .553.152.703.382l-1.542 1.8v-1.343c0-.462.377-.839.839-.839zm9.35 5.063c1.103 0 2-.897 2-2v-2.224c0-1.103-.897-2-2-2s-2 .897-2 2v2.224c0 1.103.897 2 2 2zm0-1.161c-.226 0-.431-.09-.582-.236l1.421-1.659v1.056c0 .463-.376.839-.839.839zm0-3.902c.294 0 .553.152.702.382l-1.541 1.8v-1.343c0-.462.376-.839.839-.839zm4.675 5.063c1.102 0 2-.897 2-2v-2.224c0-1.103-.898-2-2-2-1.103 0-2.001.897-2.001 2v2.224c0 1.103.898 2 2.001 2zm0-1.161c-.226 0-.431-.09-.583-.236l1.422-1.659v1.056c0 .463-.377.839-.839.839zm0-3.902c.294 0 .552.152.702.382l-1.542 1.8v-1.343c0-.462.377-.839.84-.839zm-9.35 5.063c1.103 0 2-.897 2-2v-2.224c0-1.103-.897-2-2-2s-2 .897-2 2v2.224c0 1.103.897 2 2 2zm0-1.161c-.226 0-.431-.09-.582-.236l1.421-1.659v1.056c0 .463-.376.839-.839.839zm0-3.902c.294 0 .553.153.703.382l-1.542 1.8v-1.343c0-.462.376-.839.839-.839zm-7.674 6.09c.104 0 .209-.028.304-.087.273-.168.358-.526.19-.799-.618-1.002-.944-2.157-.944-3.34 0-1.118.293-2.218.848-3.181.161-.277.065-.632-.213-.792-.277-.161-.632-.065-.793.212-.656 1.139-1.003 2.439-1.003 3.761 0 1.399.386 2.764 1.116 3.95.11.178.3.276.495.276m20.473-4.052c0 1.119-.294 2.219-.848 3.181-.161.278-.065.633.213.793.091.053.19.078.289.078.201 0 .396-.105.503-.291.657-1.139 1.004-2.439 1.004-3.761 0-1.398-.386-2.764-1.116-3.949-.169-.273-.526-.358-.799-.19-.273.168-.358.526-.19.799.618 1.002.944 2.157.944 3.34m-10.461 5.161c-6.235 0-11.307 5.072-11.307 11.307 0 6.233 5.071 11.305 11.304 11.306l.003.001.002-.001c6.234-.001 11.304-5.073 11.304-11.306 0-6.235-5.072-11.307-11.306-11.307zm10.128 10.726h-3.8c-.076-2.742-.69-5.308-1.747-7.279-.349-.651-.736-1.215-1.152-1.689 3.738 1.346 6.465 4.829 6.699 8.968zm-10.709-9.498v9.498h-4.586c.148-4.863 2.139-8.934 4.586-9.498zm0 10.659v9.498c-2.447-.564-4.438-4.635-4.586-9.498h4.586zm1.161 9.498v-9.498h4.586c-.148 4.863-2.139 8.934-4.586 9.498zm0-10.659v-9.498c2.447.564 4.438 4.635 4.586 9.498h-4.586zm-4.01-8.968c-.416.474-.803 1.038-1.152 1.689-1.057 1.971-1.67 4.537-1.746 7.279h-3.801c.234-4.139 2.961-7.622 6.699-8.968zm-6.699 10.129h3.801c.076 2.742.689 5.309 1.746 7.279.349.651.736 1.215 1.152 1.689-3.738-1.346-6.465-4.829-6.699-8.968zm13.558 8.968c.416-.473.803-1.038 1.152-1.689 1.057-1.97 1.671-4.537 1.747-7.279h3.8c-.234 4.139-2.961 7.622-6.699 8.968z" fill="#67737B" sketch:type="MSShapeGroup"/><path d="M8.779 87.224c1.103 0 2.001-.897 2.001-2v-2.224c0-1.103-.898-2-2.001-2-1.103 0-2 .897-2 2v2.224c0 1.103.897 2 2 2zm0-1.161c-.226 0-.431-.09-.582-.236l1.422-1.659v1.056c0 .463-.377.839-.84.839zm0-3.902c.294 0 .553.152.703.382l-1.542 1.8v-1.343c0-.462.377-.839.839-.839zm9.35 5.063c1.103 0 2-.897 2-2v-2.224c0-1.103-.897-2-2-2s-2 .897-2 2v2.224c0 1.103.897 2 2 2zm0-1.161c-.226 0-.431-.09-.582-.236l1.421-1.659v1.056c0 .463-.376.839-.839.839zm0-3.902c.294 0 .553.152.702.382l-1.541 1.8v-1.343c0-.462.376-.839.839-.839zm4.675 5.063c1.102 0 2-.897 2-2v-2.224c0-1.103-.898-2-2-2-1.103 0-2.001.897-2.001 2v2.224c0 1.103.898 2 2.001 2zm0-1.161c-.226 0-.431-.09-.583-.236l1.422-1.659v1.056c0 .463-.377.839-.839.839zm0-3.902c.294 0 .552.152.702.382l-1.542 1.8v-1.343c0-.462.377-.839.84-.839zm-9.35 5.063c1.103 0 2-.897 2-2v-2.224c0-1.103-.897-2-2-2s-2 .897-2 2v2.224c0 1.103.897 2 2 2zm0-1.161c-.226 0-.431-.09-.582-.236l1.421-1.659v1.056c0 .463-.376.839-.839.839zm0-3.902c.294 0 .553.153.703.382l-1.542 1.8v-1.343c0-.462.376-.839.839-.839zm-7.674 6.09c.104 0 .209-.028.304-.087.273-.168.358-.526.19-.799-.618-1.002-.944-2.157-.944-3.34 0-1.118.293-2.218.848-3.181.161-.277.065-.632-.213-.792-.277-.161-.632-.065-.793.212-.656 1.139-1.003 2.439-1.003 3.761 0 1.399.386 2.764 1.116 3.95.11.178.3.276.495.276m20.473-4.052c0 1.119-.294 2.219-.848 3.181-.161.278-.065.633.213.793.091.053.19.078.289.078.201 0 .396-.105.503-.291.657-1.139 1.004-2.439 1.004-3.761 0-1.398-.386-2.764-1.116-3.949-.169-.273-.526-.358-.799-.19-.273.168-.358.526-.19.799.618 1.002.944 2.157.944 3.34m-10.461 5.161c-6.235 0-11.307 5.072-11.307 11.307 0 6.233 5.071 11.305 11.304 11.306l.003.001.002-.001c6.234-.001 11.304-5.073 11.304-11.306 0-6.235-5.072-11.307-11.306-11.307zm10.128 10.726h-3.8c-.076-2.742-.69-5.308-1.747-7.279-.349-.651-.736-1.215-1.152-1.689 3.738 1.346 6.465 4.829 6.699 8.968zm-10.709-9.498v9.498h-4.586c.148-4.863 2.139-8.934 4.586-9.498zm0 10.659v9.498c-2.447-.564-4.438-4.635-4.586-9.498h4.586zm1.161 9.498v-9.498h4.586c-.148 4.863-2.139 8.934-4.586 9.498zm0-10.659v-9.498c2.447.564 4.438 4.635 4.586 9.498h-4.586zm-4.01-8.968c-.416.474-.803 1.038-1.152 1.689-1.057 1.971-1.67 4.537-1.746 7.279h-3.801c.234-4.139 2.961-7.622 6.699-8.968zm-6.699 10.129h3.801c.076 2.742.689 5.309 1.746 7.279.349.651.736 1.215 1.152 1.689-3.738-1.346-6.465-4.829-6.699-8.968zm13.558 8.968c.416-.473.803-1.038 1.152-1.689 1.057-1.97 1.671-4.537 1.747-7.279h3.8c-.234 4.139-2.961 7.622-6.699 8.968z" fill="#fff" sketch:type="MSShapeGroup"/><path d="M8.779 127.224c1.103 0 2.001-.897 2.001-2v-2.224c0-1.103-.898-2-2.001-2-1.103 0-2 .897-2 2v2.224c0 1.103.897 2 2 2zm0-1.161c-.226 0-.431-.09-.582-.236l1.422-1.659v1.056c0 .463-.377.839-.84.839zm0-3.902c.294 0 .553.152.703.382l-1.542 1.8v-1.343c0-.462.377-.839.839-.839zm9.35 5.063c1.103 0 2-.897 2-2v-2.224c0-1.103-.897-2-2-2s-2 .897-2 2v2.224c0 1.103.897 2 2 2zm0-1.161c-.226 0-.431-.09-.582-.236l1.421-1.659v1.056c0 .463-.376.839-.839.839zm0-3.902c.294 0 .553.152.702.382l-1.541 1.8v-1.343c0-.462.376-.839.839-.839zm4.675 5.063c1.102 0 2-.897 2-2v-2.224c0-1.103-.898-2-2-2-1.103 0-2.001.897-2.001 2v2.224c0 1.103.898 2 2.001 2zm0-1.161c-.226 0-.431-.09-.583-.236l1.422-1.659v1.056c0 .463-.377.839-.839.839zm0-3.902c.294 0 .552.152.702.382l-1.542 1.8v-1.343c0-.462.377-.839.84-.839zm-9.35 5.063c1.103 0 2-.897 2-2v-2.224c0-1.103-.897-2-2-2s-2 .897-2 2v2.224c0 1.103.897 2 2 2zm0-1.161c-.226 0-.431-.09-.582-.236l1.421-1.659v1.056c0 .463-.376.839-.839.839zm0-3.902c.294 0 .553.153.703.382l-1.542 1.8v-1.343c0-.462.376-.839.839-.839zm-7.674 6.09c.104 0 .209-.028.304-.087.273-.168.358-.526.19-.799-.618-1.002-.944-2.157-.944-3.34 0-1.118.293-2.218.848-3.181.161-.277.065-.632-.213-.792-.277-.161-.632-.065-.793.212-.656 1.139-1.003 2.439-1.003 3.761 0 1.399.386 2.764 1.116 3.95.11.178.3.276.495.276m20.473-4.052c0 1.119-.294 2.219-.848 3.181-.161.278-.065.633.213.793.091.053.19.078.289.078.201 0 .396-.105.503-.291.657-1.139 1.004-2.439 1.004-3.761 0-1.398-.386-2.764-1.116-3.949-.169-.273-.526-.358-.799-.19-.273.168-.358.526-.19.799.618 1.002.944 2.157.944 3.34m-10.461 5.161c-6.235 0-11.307 5.072-11.307 11.307 0 6.233 5.071 11.305 11.304 11.306l.003.001.002-.001c6.234-.001 11.304-5.073 11.304-11.306 0-6.235-5.072-11.307-11.306-11.307zm10.128 10.726h-3.8c-.076-2.742-.69-5.308-1.747-7.279-.349-.651-.736-1.215-1.152-1.689 3.738 1.346 6.465 4.829 6.699 8.968zm-10.709-9.498v9.498h-4.586c.148-4.863 2.139-8.934 4.586-9.498zm0 10.659v9.498c-2.447-.564-4.438-4.635-4.586-9.498h4.586zm1.161 9.498v-9.498h4.586c-.148 4.863-2.139 8.934-4.586 9.498zm0-10.659v-9.498c2.447.564 4.438 4.635 4.586 9.498h-4.586zm-4.01-8.968c-.416.474-.803 1.038-1.152 1.689-1.057 1.971-1.67 4.537-1.746 7.279h-3.801c.234-4.139 2.961-7.622 6.699-8.968zm-6.699 10.129h3.801c.076 2.742.689 5.309 1.746 7.279.349.651.736 1.215 1.152 1.689-3.738-1.346-6.465-4.829-6.699-8.968zm13.558 8.968c.416-.473.803-1.038 1.152-1.689 1.057-1.97 1.671-4.537 1.747-7.279h3.8c-.234 4.139-2.961 7.622-6.699 8.968z" fill="#206FAC" sketch:type="MSShapeGroup"/></g></svg>