<svg width="32" height="232" viewBox="0 0 32 232" xmlns="http://www.w3.org/2000/svg" xmlns:sketch="http://www.bohemiancoding.com/sketch/ns"><title>bicycle</title><desc>Created with Sketch.</desc><g sketch:type="MSPage" fill="none"><path d="M30.177 14.358c-1.175-1.175-2.738-1.822-4.4-1.822-.558 0-1.104.074-1.628.215l-1.246-3.573h2.55c.341 0 .619.277.619.618 0 .341-.278.619-.619.619-.273 0-.495.222-.495.495s.222.494.495.494c.887 0 1.608-.721 1.608-1.608 0-.886-.721-1.608-1.608-1.608h-3.176c-.274 0-.495.222-.495.495l.011.104c-.016.084-.014.173.017.26l.225.647h-10.337l-.166-.599h1.903c.26 0 .476-.201.493-.46.018-.26-.168-.489-.425-.524l-4.398-.606c-.179-.025-.358.05-.465.196-.108.146-.127.339-.05.503l.283.606c.081.174.256.285.448.285h1.184l.289 1.038-1.896 3.005c-.826-.394-1.735-.602-2.677-.602-1.663 0-3.225.647-4.401 1.822-2.426 2.427-2.426 6.375 0 8.802 1.175 1.175 2.738 1.823 4.401 1.823 1.662 0 3.225-.648 4.4-1.823.779-.779 1.324-1.729 1.605-2.764l1.377.249-.325 1.829h-.516c-.273 0-.495.221-.495.495 0 .273.222.494.495.494h1.627c.273 0 .495-.221.495-.494 0-.274-.222-.495-.495-.495h-.106l.374-2.108 7.877-9.241.684 1.959c-.677.306-1.301.734-1.842 1.274-2.426 2.427-2.426 6.375 0 8.802 1.176 1.175 2.738 1.823 4.401 1.823 1.662 0 3.225-.648 4.4-1.823 1.176-1.176 1.823-2.739 1.823-4.401s-.647-3.225-1.823-4.401zm-20.255 8.102c-.989.989-2.303 1.533-3.701 1.533-1.398 0-2.713-.544-3.701-1.533-2.041-2.041-2.041-5.361 0-7.402.988-.989 2.303-1.533 3.701-1.533.751 0 1.478.159 2.144.458l-2.848 4.512c-.087.139-.1.313-.034.463.066.151.203.259.365.288l5.4.974c-.242.838-.692 1.606-1.326 2.24zm1.51-3.212l-4.686-.845 2.479-3.93c.246.174.48.368.697.585.988.989 1.533 2.303 1.533 3.701l-.023.489zm.976.176c.023-.219.036-.441.036-.665 0-1.662-.647-3.225-1.823-4.401-.27-.269-.56-.51-.868-.722l1.399-2.216 2.279 8.188-1.023-.184zm3.533-2.898c.273 0 .494-.221.494-.494 0-.274-.221-.495-.494-.495h-1.628c-.273 0-.494.221-.494.495 0 .273.221.494.494.494h.021l-.286 1.611-2.074-7.454h9.637l-6.612 7.757.34-1.914h.602zm13.537 5.934c-.989.989-2.303 1.533-3.701 1.533-1.398 0-2.713-.544-3.701-1.533-2.041-2.041-2.041-5.361 0-7.402.433-.434.93-.782 1.468-1.036l1.735 4.976c.071.204.263.332.467.332l.163-.028c.258-.09.394-.372.304-.63l-1.738-4.984c.421-.107.857-.163 1.302-.163 1.398 0 2.712.544 3.701 1.533.988.989 1.533 2.303 1.533 3.701 0 1.398-.545 2.713-1.533 3.701z" fill="#3A434E" sketch:type="MSShapeGroup"/><path d="M30.177 54.358c-1.175-1.175-2.738-1.822-4.4-1.822-.558 0-1.104.074-1.628.215l-1.246-3.573h2.55c.341 0 .619.277.619.618 0 .341-.278.619-.619.619-.273 0-.495.222-.495.495s.222.494.495.494c.887 0 1.608-.721 1.608-1.608 0-.886-.721-1.608-1.608-1.608h-3.176c-.274 0-.495.222-.495.495l.011.104c-.016.084-.014.173.017.26l.225.647h-10.337l-.166-.599h1.903c.26 0 .476-.201.493-.46.018-.26-.168-.489-.425-.524l-4.398-.606c-.179-.025-.358.05-.465.196-.108.146-.127.339-.05.503l.283.606c.081.174.256.285.448.285h1.184l.289 1.038-1.896 3.005c-.826-.394-1.735-.602-2.677-.602-1.663 0-3.225.647-4.401 1.822-2.426 2.427-2.426 6.375 0 8.802 1.175 1.175 2.738 1.823 4.401 1.823 1.662 0 3.225-.648 4.4-1.823.779-.779 1.324-1.729 1.605-2.764l1.377.249-.325 1.829h-.516c-.273 0-.495.221-.495.495 0 .273.222.494.495.494h1.627c.273 0 .495-.221.495-.494 0-.274-.222-.495-.495-.495h-.106l.374-2.108 7.877-9.241.684 1.959c-.677.306-1.301.734-1.842 1.274-2.426 2.427-2.426 6.375 0 8.802 1.176 1.175 2.738 1.823 4.401 1.823 1.662 0 3.225-.648 4.4-1.823 1.176-1.176 1.823-2.739 1.823-4.401s-.647-3.225-1.823-4.401zm-20.255 8.102c-.989.989-2.303 1.533-3.701 1.533-1.398 0-2.713-.544-3.701-1.533-2.041-2.041-2.041-5.361 0-7.402.988-.989 2.303-1.533 3.701-1.533.751 0 1.478.159 2.144.458l-2.848 4.512c-.087.139-.1.313-.034.463.066.151.203.259.365.288l5.4.974c-.242.838-.692 1.606-1.326 2.24zm1.51-3.212l-4.686-.845 2.479-3.93c.246.174.48.368.697.585.988.989 1.533 2.303 1.533 3.701l-.023.489zm.976.176c.023-.219.036-.441.036-.665 0-1.662-.647-3.225-1.823-4.401-.27-.269-.56-.51-.868-.722l1.399-2.216 2.279 8.188-1.023-.184zm3.533-2.898c.273 0 .494-.221.494-.494 0-.274-.221-.495-.494-.495h-1.628c-.273 0-.494.221-.494.495 0 .273.221.494.494.494h.021l-.286 1.611-2.074-7.454h9.637l-6.612 7.757.34-1.914h.602zm13.537 5.934c-.989.989-2.303 1.533-3.701 1.533-1.398 0-2.713-.544-3.701-1.533-2.041-2.041-2.041-5.361 0-7.402.433-.434.93-.782 1.468-1.036l1.735 4.976c.071.204.263.332.467.332l.163-.028c.258-.09.394-.372.304-.63l-1.738-4.984c.421-.107.857-.163 1.302-.163 1.398 0 2.712.544 3.701 1.533.988.989 1.533 2.303 1.533 3.701 0 1.398-.545 2.713-1.533 3.701z" fill="#67737B" sketch:type="MSShapeGroup"/><path d="M30.177 94.358c-1.175-1.175-2.738-1.822-4.4-1.822-.558 0-1.104.074-1.628.215l-1.246-3.573h2.55c.341 0 .619.277.619.618 0 .341-.278.619-.619.619-.273 0-.495.222-.495.495s.222.494.495.494c.887 0 1.608-.721 1.608-1.608 0-.886-.721-1.608-1.608-1.608h-3.176c-.274 0-.495.222-.495.495l.011.104c-.016.084-.014.173.017.26l.225.647h-10.337l-.166-.599h1.903c.26 0 .476-.201.493-.46.018-.26-.168-.489-.425-.524l-4.398-.606c-.179-.025-.358.05-.465.196-.108.146-.127.339-.05.503l.283.606c.081.174.256.285.448.285h1.184l.289 1.038-1.896 3.005c-.826-.394-1.735-.602-2.677-.602-1.663 0-3.225.647-4.401 1.822-2.426 2.427-2.426 6.375 0 8.802 1.175 1.175 2.738 1.823 4.401 1.823 1.662 0 3.225-.648 4.4-1.823.779-.779 1.324-1.729 1.605-2.764l1.377.249-.325 1.829h-.516c-.273 0-.495.221-.495.495 0 .273.222.494.495.494h1.627c.273 0 .495-.221.495-.494 0-.274-.222-.495-.495-.495h-.106l.374-2.108 7.877-9.241.684 1.959c-.677.306-1.301.734-1.842 1.274-2.426 2.427-2.426 6.375 0 8.802 1.176 1.175 2.738 1.823 4.401 1.823 1.662 0 3.225-.648 4.4-1.823 1.176-1.176 1.823-2.739 1.823-4.401s-.647-3.225-1.823-4.401zm-20.255 8.102c-.989.989-2.303 1.533-3.701 1.533-1.398 0-2.713-.544-3.701-1.533-2.041-2.041-2.041-5.361 0-7.402.988-.989 2.303-1.533 3.701-1.533.751 0 1.478.159 2.144.458l-2.848 4.512c-.087.139-.1.313-.034.463.066.151.203.259.365.288l5.4.974c-.242.838-.692 1.606-1.326 2.24zm1.51-3.212l-4.686-.845 2.479-3.93c.246.174.48.368.697.585.988.989 1.533 2.303 1.533 3.701l-.023.489zm.976.176c.023-.219.036-.441.036-.665 0-1.662-.647-3.225-1.823-4.401-.27-.269-.56-.51-.868-.722l1.399-2.216 2.279 8.188-1.023-.184zm3.533-2.898c.273 0 .494-.221.494-.494 0-.274-.221-.495-.494-.495h-1.628c-.273 0-.494.221-.494.495 0 .273.221.494.494.494h.021l-.286 1.611-2.074-7.454h9.637l-6.612 7.757.34-1.914h.602zm13.537 5.934c-.989.989-2.303 1.533-3.701 1.533-1.398 0-2.713-.544-3.701-1.533-2.041-2.041-2.041-5.361 0-7.402.433-.434.93-.782 1.468-1.036l1.735 4.976c.071.204.263.332.467.332l.163-.028c.258-.09.394-.372.304-.63l-1.738-4.984c.421-.107.857-.163 1.302-.163 1.398 0 2.712.544 3.701 1.533.988.989 1.533 2.303 1.533 3.701 0 1.398-.545 2.713-1.533 3.701z" fill="#fff" sketch:type="MSShapeGroup"/><path d="M30.177 134.358c-1.175-1.175-2.738-1.822-4.4-1.822-.558 0-1.104.074-1.628.215l-1.246-3.573h2.55c.341 0 .619.277.619.618 0 .341-.278.619-.619.619-.273 0-.495.222-.495.495s.222.494.495.494c.887 0 1.608-.721 1.608-1.608 0-.886-.721-1.608-1.608-1.608h-3.176c-.274 0-.495.222-.495.495l.011.104c-.016.084-.014.173.017.26l.225.647h-10.337l-.166-.599h1.903c.26 0 .476-.201.493-.46.018-.26-.168-.489-.425-.524l-4.398-.606c-.179-.025-.358.05-.465.196-.108.146-.127.339-.05.503l.283.606c.081.174.256.285.448.285h1.184l.289 1.038-1.896 3.005c-.826-.394-1.735-.602-2.677-.602-1.663 0-3.225.647-4.401 1.822-2.426 2.427-2.426 6.375 0 8.802 1.175 1.175 2.738 1.823 4.401 1.823 1.662 0 3.225-.648 4.4-1.823.779-.779 1.324-1.729 1.605-2.764l1.377.249-.325 1.829h-.516c-.273 0-.495.221-.495.495 0 .273.222.494.495.494h1.627c.273 0 .495-.221.495-.494 0-.274-.222-.495-.495-.495h-.106l.374-2.108 7.877-9.241.684 1.959c-.677.306-1.301.734-1.842 1.274-2.426 2.427-2.426 6.375 0 8.802 1.176 1.175 2.738 1.823 4.401 1.823 1.662 0 3.225-.648 4.4-1.823 1.176-1.176 1.823-2.739 1.823-4.401s-.647-3.225-1.823-4.401zm-20.255 8.102c-.989.989-2.303 1.533-3.701 1.533-1.398 0-2.713-.544-3.701-1.533-2.041-2.041-2.041-5.361 0-7.402.988-.989 2.303-1.533 3.701-1.533.751 0 1.478.159 2.144.458l-2.848 4.512c-.087.139-.1.313-.034.463.066.151.203.259.365.288l5.4.974c-.242.838-.692 1.606-1.326 2.24zm1.51-3.212l-4.686-.845 2.479-3.93c.246.174.48.368.697.585.988.989 1.533 2.303 1.533 3.701l-.023.489zm.976.176c.023-.219.036-.441.036-.665 0-1.662-.647-3.225-1.823-4.401-.27-.269-.56-.51-.868-.722l1.399-2.216 2.279 8.188-1.023-.184zm3.533-2.898c.273 0 .494-.221.494-.494 0-.274-.221-.495-.494-.495h-1.628c-.273 0-.494.221-.494.495 0 .273.221.494.494.494h.021l-.286 1.611-2.074-7.454h9.637l-6.612 7.757.34-1.914h.602zm13.537 5.934c-.989.989-2.303 1.533-3.701 1.533-1.398 0-2.713-.544-3.701-1.533-2.041-2.041-2.041-5.361 0-7.402.433-.434.93-.782 1.468-1.036l1.735 4.976c.071.204.263.332.467.332l.163-.028c.258-.09.394-.372.304-.63l-1.738-4.984c.421-.107.857-.163 1.302-.163 1.398 0 2.712.544 3.701 1.533.988.989 1.533 2.303 1.533 3.701 0 1.398-.545 2.713-1.533 3.701z" fill="#206FAC" sketch:type="MSShapeGroup"/></g></svg>