<svg width="32" height="232" viewBox="0 0 32 232" xmlns="http://www.w3.org/2000/svg"><desc>Created with Sketch.</desc><g fill="none"><path d="M30.177 14.358c-1.175-1.175-2.738-1.822-4.4-1.822-.558 0-1.104.074-1.628.215L22.9 9.18h2.55c.34 0 .62.277.62.618 0 .34-.28.62-.62.62-.273 0-.495.22-.495.494s.222.494.495.494c.887 0 1.608-.72 1.608-1.608 0-.886-.72-1.608-1.607-1.608h-3.174c-.274 0-.495.222-.495.495l.01.104c-.014.08-.012.17.02.26l.224.644H11.698l-.166-.6h1.903c.26 0 .476-.2.493-.46.018-.26-.168-.488-.425-.523l-4.398-.604c-.18-.025-.358.05-.465.196-.108.147-.127.34-.05.504l.283.606c.08.174.256.285.448.285h1.188l.29 1.037L8.9 13.142c-.827-.394-1.736-.602-2.678-.602-1.662 0-3.224.647-4.4 1.822-2.426 2.427-2.426 6.375 0 8.802 1.175 1.175 2.738 1.823 4.4 1.823 1.663 0 3.226-.648 4.4-1.823.78-.78 1.325-1.73 1.606-2.764l1.377.25-.325 1.828h-.516c-.273 0-.495.22-.495.495 0 .272.22.493.492.493h1.627c.272 0 .494-.22.494-.494 0-.275-.222-.496-.495-.496h-.108l.374-2.108 7.877-9.24.684 1.958c-.677.306-1.3.734-1.842 1.274-2.426 2.427-2.426 6.375 0 8.802 1.176 1.175 2.738 1.823 4.4 1.823 1.663 0 3.226-.648 4.4-1.823C31.355 21.984 32 20.42 32 18.76s-.647-3.226-1.823-4.402zM9.922 22.46c-.99.99-2.303 1.533-3.7 1.533-1.4 0-2.714-.544-3.702-1.533-2.04-2.04-2.04-5.36 0-7.402.988-.99 2.303-1.533 3.7-1.533.752 0 1.48.16 2.145.458l-2.848 4.512c-.087.14-.1.313-.034.463.066.15.203.26.365.288l5.4.974c-.242.838-.692 1.606-1.326 2.24zm1.51-3.212l-4.686-.845 2.48-3.93c.245.174.48.368.696.585.988.99 1.533 2.303 1.533 3.7l-.023.49zm.976.176c.023-.22.036-.44.036-.665 0-1.666-.647-3.23-1.823-4.405-.27-.27-.56-.51-.864-.722l1.4-2.216 2.278 8.187-1.022-.184zm3.533-2.898c.277 0 .498-.22.498-.494s-.22-.495-.494-.495h-1.627c-.273 0-.494.22-.494.495 0 .273.22.494.494.494h.02l-.285 1.61-2.074-7.453h9.637L15 18.44l.34-1.914h.6zm13.54 5.934c-.99.99-2.3 1.533-3.7 1.533-1.4 0-2.712-.544-3.7-1.533-2.04-2.04-2.04-5.36 0-7.402.433-.434.93-.782 1.468-1.036l1.735 4.976c.07.204.263.332.467.332l.162-.028c.257-.09.393-.372.303-.63l-1.738-4.984c.42-.107.857-.163 1.302-.163 1.396 0 2.71.544 3.7 1.533.99.99 1.532 2.303 1.532 3.7 0 1.4-.543 2.714-1.53 3.702z" fill="#3A434E"/><path d="M30.177 54.358c-1.175-1.175-2.738-1.822-4.4-1.822-.558 0-1.104.074-1.628.215l-1.25-3.57h2.55c.34 0 .62.277.62.618 0 .34-.28.62-.62.62-.274 0-.496.22-.496.494s.222.496.495.496c.886 0 1.607-.72 1.607-1.608 0-.886-.72-1.608-1.607-1.608h-3.175c-.274 0-.495.22-.495.494l.01.104c-.015.084-.013.173.018.26l.225.647H11.698l-.166-.6h1.903c.26 0 .476-.2.493-.46.018-.26-.168-.488-.425-.523l-4.398-.605c-.18-.026-.358.05-.465.195-.108.147-.127.34-.05.504l.283.605c.08.174.256.285.448.285h1.188l.29 1.038L8.9 53.14c-.827-.393-1.736-.6-2.678-.6-1.662 0-3.224.646-4.4 1.82-2.426 2.428-2.426 6.376 0 8.803 1.175 1.175 2.738 1.823 4.4 1.823 1.663 0 3.226-.648 4.4-1.823.78-.78 1.325-1.73 1.606-2.764l1.377.25-.325 1.825h-.516c-.273 0-.495.22-.495.495 0 .273.22.494.492.494h1.627c.272 0 .494-.22.494-.494s-.222-.495-.495-.495h-.108l.374-2.108 7.877-9.24.684 1.958c-.677.306-1.3.734-1.842 1.274-2.426 2.424-2.426 6.372 0 8.8 1.176 1.174 2.738 1.822 4.4 1.822 1.663 0 3.226-.648 4.4-1.823 1.18-1.175 1.825-2.74 1.825-4.4s-.647-3.226-1.823-4.402zM9.922 62.46c-.99.99-2.303 1.533-3.7 1.533-1.4 0-2.714-.544-3.702-1.533-2.04-2.04-2.04-5.36 0-7.402.988-.99 2.303-1.533 3.7-1.533.752 0 1.48.16 2.145.458l-2.848 4.512c-.087.14-.1.313-.034.463.066.15.203.26.365.288l5.4.974c-.242.838-.692 1.606-1.326 2.24zm1.51-3.212l-4.686-.845 2.48-3.93c.245.174.48.368.696.585.988.99 1.533 2.303 1.533 3.7l-.023.49zm.976.176c.023-.22.036-.44.036-.665 0-1.666-.647-3.23-1.823-4.405-.27-.27-.56-.51-.864-.722l1.4-2.216 2.278 8.187-1.022-.184zm3.533-2.898c.277 0 .498-.22.498-.494s-.22-.495-.494-.495h-1.627c-.273 0-.494.22-.494.495 0 .273.22.494.494.494h.02l-.285 1.61-2.074-7.453h9.637L15 58.44l.34-1.914h.6zm13.54 5.934c-.99.99-2.3 1.533-3.7 1.533-1.4 0-2.712-.544-3.7-1.533-2.04-2.04-2.04-5.36 0-7.402.433-.434.93-.782 1.468-1.036l1.735 4.976c.07.204.263.332.467.332l.162-.028c.257-.09.393-.372.303-.63l-1.738-4.984c.42-.107.857-.163 1.302-.163 1.396 0 2.71.544 3.7 1.533.99.99 1.532 2.303 1.532 3.7 0 1.4-.543 2.714-1.53 3.702z" fill="#67737B"/><path d="M30.177 94.358c-1.175-1.175-2.738-1.822-4.4-1.822-.558 0-1.104.074-1.628.215l-1.25-3.57h2.55c.34 0 .62.277.62.618 0 .34-.28.62-.62.62-.274 0-.496.22-.496.494s.222.496.495.496c.886 0 1.607-.72 1.607-1.608 0-.886-.72-1.608-1.607-1.608h-3.175c-.274 0-.495.22-.495.494l.01.104c-.015.084-.013.173.018.26l.225.647H11.698l-.166-.6h1.903c.26 0 .476-.2.493-.46.018-.26-.168-.488-.425-.523l-4.398-.605c-.18-.026-.358.05-.465.195-.108.147-.127.34-.05.504l.283.605c.08.174.256.285.448.285h1.188l.29 1.038L8.9 93.14c-.827-.393-1.736-.6-2.678-.6-1.662 0-3.224.646-4.4 1.82-2.426 2.428-2.426 6.376 0 8.803 1.175 1.175 2.738 1.823 4.4 1.823 1.663 0 3.226-.648 4.4-1.823.78-.78 1.325-1.73 1.606-2.764l1.377.25-.325 1.825h-.516c-.273 0-.495.22-.495.495 0 .273.22.494.492.494h1.627c.272 0 .494-.22.494-.494s-.222-.495-.495-.495h-.108l.374-2.108 7.877-9.24.684 1.958c-.677.306-1.3.734-1.842 1.274-2.426 2.424-2.426 6.372 0 8.8 1.176 1.174 2.738 1.822 4.4 1.822 1.663 0 3.226-.648 4.4-1.823 1.177-1.176 1.824-2.74 1.824-4.4s-.648-3.226-1.824-4.4zM9.922 102.46c-.99.99-2.303 1.533-3.7 1.533-1.4 0-2.714-.544-3.702-1.533-2.04-2.04-2.04-5.36 0-7.402.988-.99 2.303-1.533 3.7-1.533.752 0 1.48.16 2.145.458l-2.848 4.512c-.087.14-.1.313-.034.463.066.15.203.26.365.288l5.4.974c-.242.838-.692 1.606-1.326 2.24zm1.51-3.212l-4.686-.845 2.48-3.93c.245.174.48.368.696.585.988.99 1.533 2.303 1.533 3.7l-.023.49zm.976.176c.023-.22.036-.44.036-.665 0-1.666-.647-3.23-1.823-4.405-.27-.27-.56-.51-.864-.722l1.4-2.216 2.278 8.187-1.022-.184zm3.533-2.898c.277 0 .498-.22.498-.494s-.22-.495-.494-.495h-1.627c-.273 0-.494.22-.494.495 0 .273.22.494.494.494h.02l-.285 1.61-2.074-7.453h9.637L15 98.44l.34-1.914h.6zm13.54 5.934c-.99.99-2.302 1.533-3.7 1.533-1.4 0-2.713-.544-3.7-1.533-2.04-2.04-2.04-5.36 0-7.402.432-.434.93-.782 1.467-1.036l1.735 4.976c.07.204.263.332.467.332l.162-.028c.256-.09.392-.372.302-.63l-1.738-4.984c.42-.107.857-.163 1.302-.163 1.398 0 2.712.544 3.7 1.533.99.99 1.534 2.303 1.534 3.7 0 1.4-.544 2.714-1.532 3.702z" fill="#fff"/><path d="M30.177 134.358c-1.175-1.175-2.738-1.822-4.4-1.822-.558 0-1.104.074-1.628.215l-1.25-3.57h2.55c.34 0 .62.278.62.62 0 .34-.28.62-.62.62-.273 0-.495.22-.495.493s.222.495.495.495c.888 0 1.61-.72 1.61-1.608 0-.887-.72-1.61-1.608-1.61h-3.176c-.274 0-.495.22-.495.495l.01.104c-.013.082-.01.17.02.26l.225.645H11.698l-.166-.6h1.903c.26 0 .476-.2.493-.46.018-.26-.168-.488-.425-.523l-4.398-.605c-.18-.025-.358.05-.465.196-.108.147-.127.34-.05.504l.283.606c.08.174.256.285.448.285h1.188l.29 1.037L8.9 133.14c-.827-.393-1.736-.6-2.678-.6-1.662 0-3.224.646-4.4 1.82-2.426 2.428-2.426 6.376 0 8.803 1.175 1.175 2.738 1.823 4.4 1.823 1.663 0 3.226-.648 4.4-1.823.78-.78 1.325-1.73 1.606-2.764l1.377.25-.325 1.825h-.516c-.273 0-.495.22-.495.495 0 .273.22.494.492.494h1.627c.272 0 .494-.22.494-.494s-.222-.495-.495-.495h-.108l.374-2.108 7.877-9.24.684 1.958c-.677.306-1.3.734-1.842 1.274-2.426 2.424-2.426 6.372 0 8.8 1.176 1.174 2.738 1.822 4.4 1.822 1.663 0 3.226-.648 4.4-1.823 1.177-1.176 1.824-2.74 1.824-4.4s-.648-3.226-1.824-4.4zM9.922 142.46c-.99.99-2.303 1.533-3.7 1.533-1.4 0-2.714-.544-3.702-1.533-2.04-2.04-2.04-5.36 0-7.402.988-.99 2.303-1.533 3.7-1.533.752 0 1.48.16 2.145.458l-2.848 4.512c-.087.14-.1.313-.034.463.066.15.203.26.365.288l5.4.974c-.242.838-.692 1.606-1.326 2.24zm1.51-3.212l-4.686-.845 2.48-3.93c.245.174.48.368.696.585.988.99 1.533 2.303 1.533 3.7l-.023.49zm.976.176c.023-.22.036-.44.036-.665 0-1.666-.647-3.23-1.823-4.405-.27-.27-.56-.51-.864-.722l1.4-2.216 2.278 8.187-1.022-.184zm3.533-2.898c.277 0 .498-.22.498-.494s-.22-.495-.494-.495h-1.627c-.273 0-.494.22-.494.495 0 .273.22.494.494.494h.02l-.285 1.61-2.074-7.453h9.637L15 138.44l.34-1.914h.6zm13.54 5.934c-.99.99-2.302 1.533-3.7 1.533-1.4 0-2.713-.544-3.7-1.533-2.04-2.04-2.04-5.36 0-7.402.432-.434.93-.782 1.467-1.036l1.735 4.976c.07.204.263.332.467.332l.162-.028c.256-.09.392-.372.302-.63l-1.738-4.984c.42-.107.857-.163 1.302-.163 1.398 0 2.712.544 3.7 1.533.99.99 1.534 2.303 1.534 3.7 0 1.4-.544 2.714-1.532 3.702z" fill="#206FAC"/></g></svg>