<svg width="32" height="232" viewBox="0 0 32 232" xmlns="http://www.w3.org/2000/svg"><title>boat</title><desc>Created with Sketch.</desc><g fill="none"><path d="M30.12 28.565c-.565 0-.814-.167-1.16-.397-.39-.262-.88-.587-1.79-.587-.544 0-.936.117-1.248.266.298-1.816 1.21-6.548 3.288-11.656.114-.28-.01-.6-.282-.73l-1.696-.807v-3.245c0-.212-.116-.407-.305-.505l-2.174-1.14V7.54c0-.213-.118-.408-.306-.506L19.765 4.58V1.825c0-.676-.55-1.226-1.226-1.226h-.844c-.24 0-.465.07-.655.192-.19-.12-.413-.192-.654-.192h-.843c-.676 0-1.226.55-1.226 1.226V4.59L9.654 7.033c-.188.098-.305.293-.305.505v2.223l-2.176 1.14c-.187.098-.305.293-.305.505v3.276l-1.632.777c-.272.13-.396.45-.282.73 2.07 5.084 2.975 9.733 3.287 11.646-.22.103-.4.223-.565.332l-.195.127c-.26.162-.51.27-.964.27-.523 0-.775-.143-1.083-.346l-.076-.052c-.392-.262-.88-.587-1.79-.587-.315 0-.57.255-.57.57 0 .315.255.57.57.57.565 0 .813.166 1.158.396.393.262.88.588 1.79.588s1.4-.326 1.792-.588c.345-.23.594-.396 1.16-.396.563 0 .813.166 1.158.396.392.262.88.588 1.79.588s1.4-.326 1.792-.588c.345-.23.594-.396 1.16-.396.564 0 .813.166 1.157.396.393.262.882.588 1.792.588s1.398-.326 1.79-.588c.213-.143.39-.26.628-.33.146-.042.316-.066.53-.066.282 0 .485.04.66.11.177.07.327.17.5.286.393.262.88.588 1.79.588s1.4-.326 1.793-.588l.195-.127c.26-.163.51-.27.965-.27.522 0 .775.142 1.082.345l.077.05c.392.263.88.59 1.79.59.315 0 .57-.256.57-.57 0-.315-.255-.57-.57-.57zm-7.06-.397c-.392-.262-.88-.587-1.79-.587s-1.4.326-1.792.588l-.234.15c-.246.15-.493.247-.925.247-.506 0-.758-.133-1.052-.325l-.108-.072c-.392-.262-.88-.587-1.79-.587-.83 0-1.308.27-1.684.516l-.11.072c-.212.143-.39.26-.626.33-.147.042-.316.067-.53.067-.283 0-.486-.042-.66-.11-.178-.072-.327-.17-.5-.287l-.28-.18c-.352-.21-.804-.407-1.51-.407l-.114.003c-.318-1.93-1.197-6.39-3.145-11.324l.66-.314 1.138-.543 8.468-4.036.01-.005.027-.013v11.783c0 .315.255.57.57.57.315 0 .57-.255.57-.57V11.35l9.01 4.294.57.27.722.345c-2.538 6.43-3.274 12.17-3.282 12.23v.028l-.076.016c-.11.02-.233.03-.378.03-.217 0-.387-.024-.534-.067-.236-.07-.413-.187-.626-.33zM8.008 11.752l8.44-4.425.028-.014v2.792L8.008 14.14v-2.388zm2.48-3.87l4.4-2.305 1.582-.83.002-.002.005-.002v1.283l-.005.002h-.002l-1.242.652-4.74 2.485V7.883zm4.968-6.056c0-.048.04-.086.087-.086h.843l.085.077.002.01v1.632h-.002l-1.014.532V1.826zm2.24-.086h.843c.046 0 .086.038.086.086v2.156L17.61 3.45V1.817l.086-.077zm8.397 12.37l-8.382-3.995-.084-.04V7.312l.03.015 5.958 3.124.57.298 1.91 1.002v2.358zm-2.48-4.945l-4.2-2.202-.55-.288-.923-.484-.316-.164V4.743l1.002.525.57.3 4.418 2.315v1.282zm3.725 20.783c-.91 0-1.4.326-1.79.588l-.174.112c-.268.17-.52.284-.987.284-.348 0-.576-.063-.78-.166-.128-.063-.246-.142-.378-.23-.394-.262-.883-.588-1.793-.588s-1.4.326-1.79.588c-.346.23-.595.396-1.16.396s-.814-.166-1.158-.396c-.394-.262-.883-.588-1.793-.588-.91 0-1.398.326-1.79.588-.345.23-.595.396-1.16.396-.314 0-.57.255-.57.57 0 .314.256.57.57.57.91 0 1.4-.327 1.792-.59l.17-.11c.27-.17.52-.285.987-.285.35 0 .576.063.78.166.128.063.247.142.38.23.392.262.88.588 1.79.588s1.4-.325 1.792-.587c.343-.23.593-.396 1.157-.396.565 0 .814.166 1.16.396.39.262.88.588 1.79.588s1.4-.325 1.792-.587c.343-.23.593-.396 1.158-.396.314 0 .57-.255.57-.57 0-.314-.256-.57-.57-.57zM3.605 4.734c.18 0 .354.03.52.084.244.08.468.216.655.403.178.18.444.212.657.105l.15-.104c.186-.187.41-.322.654-.402.166-.054.34-.084.52-.084s.353.03.52.084c.243.08.467.216.654.403.112.112.257.167.403.167.146 0 .292-.055.403-.166.222-.222.222-.582 0-.805-.53-.53-1.232-.82-1.98-.82-.57 0-1.116.17-1.577.486-.462-.315-1.007-.485-1.578-.485-.748 0-1.45.29-1.98.82-.222.223-.222.583 0 .806.11.112.257.167.403.167.146 0 .29-.055.403-.166.188-.186.412-.322.656-.402.166-.054.34-.084.52-.084zm3.927-3.236c.185-.185.432-.288.695-.288.263 0 .51.103.696.288l.052.043.037.03.057.03.04.024.087.025.02.005.096.01h.022l.078-.008.03-.006.06-.016.023-.007.076-.037.02-.012.074-.054.032-.026c.186-.185.433-.288.696-.288.263 0 .51.103.695.288.11.112.256.167.402.167.146 0 .292-.055.403-.167.222-.222.222-.582 0-.805-.4-.4-.934-.622-1.5-.622-.395 0-.77.11-1.1.31C8.997.18 8.62.07 8.227.07c-.567 0-1.1.222-1.5.623-.224.223-.224.583 0 .805.222.223.582.223.805 0zm13.664 14.24c-.233-.663-.687-1.095-1.233-1.095-.41 0-.765.243-1.017.642-.097.155-.18.334-.24.532-.056.173-.096.36-.12.557l-.025.416c0 1.224.604 2.147 1.403 2.147.767 0 1.352-.852 1.397-2.003l.004-.144c0-.152-.01-.3-.027-.442-.028-.218-.076-.423-.14-.61zm-.97 1.052c0 .524-.162.865-.263.98-.102-.114-.263-.456-.263-.98l.008-.19c.017-.23.067-.418.123-.555.045-.11.093-.19.133-.234.045.052.103.152.153.292.054.152.097.355.106.602l.003.086zm-4.664-1.006c-.065-.198-.15-.377-.25-.53-.25-.38-.6-.61-.997-.61-.536 0-.98.415-1.218 1.056-.07.186-.12.39-.15.612-.022.153-.034.312-.034.478l.004.11c.034 1.168.623 2.037 1.398 2.037.8 0 1.402-.923 1.402-2.147 0-.155-.01-.306-.03-.45-.025-.198-.068-.384-.125-.556zm-.985 1.006c0 .524-.16.866-.262.98-.102-.115-.263-.456-.263-.98l.005-.12c.012-.254.06-.457.12-.607.045-.12.096-.206.138-.252l.118.202c.058.133.11.32.133.554l.01.224z" fill="#3A434E"/><path d="M30.12 68.565c-.565 0-.814-.167-1.16-.397-.39-.262-.88-.587-1.79-.587-.544 0-.936.117-1.248.266.298-1.816 1.21-6.548 3.288-11.656.114-.28-.01-.6-.282-.73l-1.696-.807v-3.245c0-.212-.116-.407-.305-.505l-2.174-1.14V47.54c0-.213-.118-.408-.306-.506l-4.682-2.455v-2.754c0-.676-.55-1.226-1.226-1.226h-.844c-.24 0-.465.07-.655.192-.19-.12-.413-.192-.654-.192h-.843c-.676 0-1.226.55-1.226 1.226v2.763l-4.663 2.444c-.188.098-.305.293-.305.505v2.223l-2.176 1.14c-.187.098-.305.293-.305.505v3.276l-1.632.777c-.272.13-.396.45-.282.73 2.07 5.084 2.975 9.733 3.287 11.646-.22.103-.4.223-.565.332l-.195.127c-.26.162-.51.27-.964.27-.523 0-.775-.143-1.083-.346l-.076-.052c-.392-.262-.88-.587-1.79-.587-.315 0-.57.255-.57.57 0 .315.255.57.57.57.565 0 .813.166 1.158.396.393.262.88.588 1.79.588s1.4-.326 1.792-.588c.345-.23.594-.396 1.16-.396.563 0 .813.166 1.158.396.392.262.88.588 1.79.588s1.4-.326 1.792-.588c.345-.23.594-.396 1.16-.396.564 0 .813.166 1.157.396.393.262.882.588 1.792.588s1.398-.326 1.79-.588c.213-.143.39-.26.628-.33.146-.042.316-.066.53-.066.282 0 .485.04.66.11.177.07.327.17.5.286.393.262.88.588 1.79.588s1.4-.326 1.793-.588l.195-.127c.26-.163.51-.27.965-.27.522 0 .775.142 1.082.345l.077.05c.392.263.88.59 1.79.59.315 0 .57-.256.57-.57 0-.315-.255-.57-.57-.57zm-7.06-.397c-.392-.262-.88-.587-1.79-.587s-1.4.326-1.792.588l-.234.15c-.246.15-.493.247-.925.247-.506 0-.758-.133-1.052-.325l-.108-.072c-.392-.262-.88-.587-1.79-.587-.83 0-1.308.27-1.684.516l-.11.072c-.212.143-.39.26-.626.33-.147.042-.316.067-.53.067-.283 0-.486-.042-.66-.11-.178-.072-.327-.17-.5-.287l-.28-.18c-.352-.21-.804-.407-1.51-.407l-.114.003c-.318-1.93-1.197-6.39-3.145-11.324l.66-.314 1.138-.543 8.468-4.036.01-.005.027-.013v11.783c0 .315.255.57.57.57.315 0 .57-.255.57-.57V51.35l9.01 4.294.57.27.722.345c-2.538 6.43-3.274 12.17-3.282 12.23v.028l-.076.016c-.11.02-.233.03-.378.03-.217 0-.387-.024-.534-.067-.236-.07-.413-.187-.626-.33zM8.008 51.752l8.44-4.425.028-.014v2.792L8.008 54.14v-2.388zm2.48-3.87l4.4-2.305 1.582-.83.002-.002.005-.002v1.283l-.005.002h-.002l-1.242.652-4.74 2.485v-1.282zm4.968-6.056c0-.048.04-.086.087-.086h.843l.085.077.002.01v1.632h-.002l-1.014.532v-2.166zm2.24-.086h.843c.046 0 .086.038.086.086v2.156l-1.015-.532v-1.633l.086-.077zm8.397 12.37l-8.382-3.995-.084-.04v-2.762l.03.015 5.958 3.124.57.298 1.91 1.002v2.358zm-2.48-4.945l-4.2-2.202-.55-.288-.923-.484-.316-.164v-1.283l1.002.525.57.3 4.418 2.315v1.282zm3.725 20.783c-.91 0-1.4.326-1.79.588l-.174.112c-.268.17-.52.284-.987.284-.348 0-.576-.063-.78-.166-.128-.063-.246-.142-.378-.23-.394-.262-.883-.588-1.793-.588s-1.4.326-1.79.588c-.346.23-.595.396-1.16.396s-.814-.166-1.158-.396c-.394-.262-.883-.588-1.793-.588-.91 0-1.398.326-1.79.588-.345.23-.595.396-1.16.396-.314 0-.57.255-.57.57 0 .314.256.57.57.57.91 0 1.4-.327 1.792-.59l.17-.11c.27-.17.52-.285.987-.285.35 0 .576.063.78.166.128.063.247.142.38.23.392.262.88.588 1.79.588s1.4-.325 1.792-.587c.343-.23.593-.396 1.157-.396.565 0 .814.166 1.16.396.39.262.88.588 1.79.588s1.4-.325 1.792-.587c.343-.23.593-.396 1.158-.396.314 0 .57-.255.57-.57 0-.314-.256-.57-.57-.57zM3.605 44.734c.18 0 .354.03.52.084.244.08.468.216.655.403.178.18.444.212.657.105l.15-.104c.186-.187.41-.322.654-.402.166-.054.34-.084.52-.084s.353.03.52.084c.243.08.467.216.654.403.112.112.257.167.403.167.146 0 .292-.055.403-.166.222-.222.222-.582 0-.805-.53-.53-1.232-.82-1.98-.82-.57 0-1.116.17-1.577.486-.462-.315-1.007-.485-1.578-.485-.748 0-1.45.29-1.98.82-.222.223-.222.583 0 .806.11.112.257.167.403.167.146 0 .29-.055.403-.166.188-.186.412-.322.656-.402.166-.054.34-.084.52-.084zm3.927-3.236c.185-.185.432-.288.695-.288.263 0 .51.103.696.288l.052.043.037.03.057.03.04.024.087.025.02.005.096.01h.022l.078-.008.03-.006.06-.016.023-.007.076-.037.02-.012.074-.054.032-.026c.186-.185.433-.288.696-.288.263 0 .51.103.695.288.11.112.256.167.402.167.146 0 .292-.055.403-.167.222-.222.222-.582 0-.805-.4-.4-.934-.622-1.5-.622-.395 0-.77.11-1.1.31-.328-.2-.704-.31-1.098-.31-.567 0-1.1.222-1.5.623-.224.223-.224.583 0 .805.222.223.582.223.805 0zm13.664 14.24c-.233-.663-.687-1.095-1.233-1.095-.41 0-.765.243-1.017.642-.097.155-.18.334-.24.532-.056.173-.096.36-.12.557l-.025.416c0 1.224.604 2.147 1.403 2.147.767 0 1.352-.852 1.397-2.003l.004-.144c0-.152-.01-.3-.027-.442-.028-.218-.076-.423-.14-.61zm-.97 1.052c0 .524-.162.865-.263.98-.102-.114-.263-.456-.263-.98l.008-.19c.017-.23.067-.418.123-.555.045-.11.093-.19.133-.234.045.052.103.152.153.292.054.152.097.355.106.602l.003.086zm-4.664-1.006c-.065-.198-.15-.377-.25-.53-.25-.38-.6-.61-.997-.61-.536 0-.98.415-1.218 1.056-.07.186-.12.39-.15.612-.022.153-.034.312-.034.478l.004.11c.034 1.168.623 2.037 1.398 2.037.8 0 1.402-.923 1.402-2.147 0-.155-.01-.306-.03-.45-.025-.198-.068-.384-.125-.556zm-.985 1.006c0 .524-.16.866-.262.98-.102-.115-.263-.456-.263-.98l.005-.12c.012-.254.06-.457.12-.607.045-.12.096-.206.138-.252l.118.202c.058.133.11.32.133.554l.01.224z" fill="#67737B"/><path d="M30.12 108.565c-.565 0-.814-.167-1.16-.397-.39-.262-.88-.587-1.79-.587-.544 0-.936.117-1.248.266.298-1.816 1.21-6.548 3.288-11.656.114-.28-.01-.6-.282-.73l-1.696-.807v-3.245c0-.212-.116-.407-.305-.505l-2.174-1.14V87.54c0-.213-.118-.408-.306-.506l-4.682-2.455v-2.754c0-.676-.55-1.226-1.226-1.226h-.844c-.24 0-.465.07-.655.192-.19-.12-.413-.192-.654-.192h-.843c-.676 0-1.226.55-1.226 1.226v2.763l-4.663 2.444c-.188.098-.305.293-.305.505v2.223l-2.176 1.14c-.187.098-.305.293-.305.505v3.276l-1.632.777c-.272.13-.396.45-.282.73 2.07 5.084 2.975 9.733 3.287 11.646-.22.103-.4.223-.565.332l-.195.127c-.26.162-.51.27-.964.27-.523 0-.775-.143-1.083-.346l-.076-.052c-.392-.262-.88-.587-1.79-.587-.315 0-.57.255-.57.57 0 .315.255.57.57.57.565 0 .813.166 1.158.396.393.262.88.588 1.79.588s1.4-.326 1.792-.588c.345-.23.594-.396 1.16-.396.563 0 .813.166 1.158.396.392.262.88.588 1.79.588s1.4-.326 1.792-.588c.345-.23.594-.396 1.16-.396.564 0 .813.166 1.157.396.393.262.882.588 1.792.588s1.398-.326 1.79-.588c.213-.143.39-.26.628-.33.146-.042.316-.066.53-.066.282 0 .485.04.66.11.177.07.327.17.5.286.393.262.88.588 1.79.588s1.4-.326 1.793-.588l.195-.127c.26-.163.51-.27.965-.27.522 0 .775.142 1.082.345l.077.05c.392.263.88.59 1.79.59.315 0 .57-.256.57-.57 0-.315-.255-.57-.57-.57zm-7.06-.397c-.392-.262-.88-.587-1.79-.587s-1.4.326-1.792.588l-.234.15c-.246.15-.493.247-.925.247-.506 0-.758-.133-1.052-.325l-.108-.072c-.392-.262-.88-.587-1.79-.587-.83 0-1.308.27-1.684.516l-.11.072c-.212.143-.39.26-.626.33-.147.042-.316.067-.53.067-.283 0-.486-.042-.66-.11-.178-.072-.327-.17-.5-.287l-.28-.18c-.352-.21-.804-.407-1.51-.407l-.114.003c-.318-1.93-1.197-6.39-3.145-11.324l.66-.314 1.138-.543 8.468-4.036.01-.005.027-.013v11.783c0 .315.255.57.57.57.315 0 .57-.255.57-.57V91.35l9.01 4.294.57.27.722.345c-2.538 6.43-3.274 12.17-3.282 12.23v.028l-.076.016c-.11.02-.233.03-.378.03-.217 0-.387-.024-.534-.067-.236-.07-.413-.187-.626-.33zM8.008 91.752l8.44-4.425.028-.014v2.792L8.008 94.14v-2.388zm2.48-3.87l4.4-2.305 1.582-.83.002-.002.005-.002v1.283l-.005.002h-.002l-1.242.652-4.74 2.485v-1.282zm4.968-6.056c0-.048.04-.086.087-.086h.843l.085.077.002.01v1.632h-.002l-1.014.532v-2.166zm2.24-.086h.843c.046 0 .086.038.086.086v2.156l-1.015-.532v-1.633l.086-.077zm8.397 12.37l-8.382-3.995-.084-.04v-2.762l.03.015 5.958 3.124.57.298 1.91 1.002v2.358zm-2.48-4.945l-4.2-2.202-.55-.288-.923-.484-.316-.164v-1.283l1.002.525.57.3 4.418 2.315v1.282zm3.725 20.783c-.91 0-1.4.326-1.79.588l-.174.112c-.268.17-.52.284-.987.284-.348 0-.576-.063-.78-.166-.128-.063-.246-.142-.378-.23-.394-.262-.883-.588-1.793-.588s-1.4.326-1.79.588c-.346.23-.595.396-1.16.396s-.814-.166-1.158-.396c-.394-.262-.883-.588-1.793-.588-.91 0-1.398.326-1.79.588-.345.23-.595.396-1.16.396-.314 0-.57.255-.57.57 0 .314.256.57.57.57.91 0 1.4-.327 1.792-.59l.17-.11c.27-.17.52-.285.987-.285.35 0 .576.063.78.166.128.063.247.142.38.23.392.262.88.588 1.79.588s1.4-.325 1.792-.587c.343-.23.593-.396 1.157-.396.565 0 .814.166 1.16.396.39.262.88.588 1.79.588s1.4-.325 1.792-.587c.343-.23.593-.396 1.158-.396.314 0 .57-.255.57-.57 0-.314-.256-.57-.57-.57zM3.605 84.734c.18 0 .354.03.52.084.244.08.468.216.655.403.178.18.444.212.657.105l.15-.104c.186-.187.41-.322.654-.402.166-.054.34-.084.52-.084s.353.03.52.084c.243.08.467.216.654.403.112.112.257.167.403.167.146 0 .292-.055.403-.166.222-.222.222-.582 0-.805-.53-.53-1.232-.82-1.98-.82-.57 0-1.116.17-1.577.486-.462-.315-1.007-.485-1.578-.485-.748 0-1.45.29-1.98.82-.222.223-.222.583 0 .806.11.112.257.167.403.167.146 0 .29-.055.403-.166.188-.186.412-.322.656-.402.166-.054.34-.084.52-.084zm3.927-3.236c.185-.185.432-.288.695-.288.263 0 .51.103.696.288l.052.043.037.03.057.03.04.024.087.025.02.005.096.01h.022l.078-.008.03-.006.06-.016.023-.007.076-.037.02-.012.074-.054.032-.026c.186-.185.433-.288.696-.288.263 0 .51.103.695.288.11.112.256.167.402.167.146 0 .292-.055.403-.167.222-.222.222-.582 0-.805-.4-.4-.934-.622-1.5-.622-.395 0-.77.11-1.1.31-.328-.2-.704-.31-1.098-.31-.567 0-1.1.222-1.5.623-.224.223-.224.583 0 .805.222.223.582.223.805 0zm13.664 14.24c-.233-.663-.687-1.095-1.233-1.095-.41 0-.765.243-1.017.642-.097.155-.18.334-.24.532-.056.173-.096.36-.12.557l-.025.416c0 1.224.604 2.147 1.403 2.147.767 0 1.352-.852 1.397-2.003l.004-.144c0-.152-.01-.3-.027-.442-.028-.218-.076-.423-.14-.61zm-.97 1.052c0 .524-.162.865-.263.98-.102-.114-.263-.456-.263-.98l.008-.19c.017-.23.067-.418.123-.555.045-.11.093-.19.133-.234.045.052.103.152.153.292.054.152.097.355.106.602l.003.086zm-4.664-1.006c-.065-.198-.15-.377-.25-.53-.25-.38-.6-.61-.997-.61-.536 0-.98.415-1.218 1.056-.07.186-.12.39-.15.612-.022.153-.034.312-.034.478l.004.11c.034 1.168.623 2.037 1.398 2.037.8 0 1.402-.923 1.402-2.147 0-.155-.01-.306-.03-.45-.025-.198-.068-.384-.125-.556zm-.985 1.006c0 .524-.16.866-.262.98-.102-.115-.263-.456-.263-.98l.005-.12c.012-.254.06-.457.12-.607.045-.12.096-.206.138-.252l.118.202c.058.133.11.32.133.554l.01.224z" fill="#fff"/><path d="M30.12 148.565c-.565 0-.814-.167-1.16-.397-.39-.262-.88-.587-1.79-.587-.544 0-.936.117-1.248.266.298-1.816 1.21-6.548 3.288-11.656.114-.28-.01-.6-.282-.73l-1.696-.807v-3.245c0-.212-.116-.407-.305-.505l-2.174-1.14v-2.224c0-.213-.118-.408-.306-.506l-4.682-2.455v-2.754c0-.676-.55-1.226-1.226-1.226h-.844c-.24 0-.465.07-.655.192-.19-.12-.413-.192-.654-.192h-.843c-.676 0-1.226.55-1.226 1.226v2.763l-4.663 2.444c-.188.098-.305.293-.305.505v2.223l-2.176 1.14c-.187.098-.305.293-.305.505v3.276l-1.632.777c-.272.13-.396.45-.282.73 2.07 5.084 2.975 9.733 3.287 11.646-.22.103-.4.223-.565.332l-.195.127c-.26.162-.51.27-.964.27-.523 0-.775-.143-1.083-.346l-.076-.052c-.392-.262-.88-.587-1.79-.587-.315 0-.57.255-.57.57 0 .315.255.57.57.57.565 0 .813.166 1.158.396.393.262.88.588 1.79.588s1.4-.326 1.792-.588c.345-.23.594-.396 1.16-.396.563 0 .813.166 1.158.396.392.262.88.588 1.79.588s1.4-.326 1.792-.588c.345-.23.594-.396 1.16-.396.564 0 .813.166 1.157.396.393.262.882.588 1.792.588s1.398-.326 1.79-.588c.213-.143.39-.26.628-.33.146-.042.316-.066.53-.066.282 0 .485.04.66.11.177.07.327.17.5.286.393.262.88.588 1.79.588s1.4-.326 1.793-.588l.195-.127c.26-.163.51-.27.965-.27.522 0 .775.142 1.082.345l.077.05c.392.263.88.59 1.79.59.315 0 .57-.256.57-.57 0-.315-.255-.57-.57-.57zm-7.06-.397c-.392-.262-.88-.587-1.79-.587s-1.4.326-1.792.588l-.234.15c-.246.15-.493.247-.925.247-.506 0-.758-.133-1.052-.325l-.108-.072c-.392-.262-.88-.587-1.79-.587-.83 0-1.308.27-1.684.516l-.11.072c-.212.143-.39.26-.626.33-.147.042-.316.067-.53.067-.283 0-.486-.042-.66-.11-.178-.072-.327-.17-.5-.287l-.28-.18c-.352-.21-.804-.407-1.51-.407l-.114.003c-.318-1.93-1.197-6.39-3.145-11.324l.66-.314 1.138-.543 8.468-4.036.01-.005.027-.013v11.783c0 .315.255.57.57.57.315 0 .57-.255.57-.57V131.35l9.01 4.294.57.27.722.345c-2.538 6.43-3.274 12.17-3.282 12.23v.028l-.076.016c-.11.02-.233.03-.378.03-.217 0-.387-.024-.534-.067-.236-.07-.413-.187-.626-.33zM8.008 131.752l8.44-4.425.028-.014v2.792l-8.468 4.036v-2.388zm2.48-3.87l4.4-2.305 1.582-.83.002-.002.005-.002v1.283l-.005.002h-.002l-1.242.652-4.74 2.485v-1.282zm4.968-6.056c0-.048.04-.086.087-.086h.843l.085.077.002.01v1.632h-.002l-1.014.532v-2.166zm2.24-.086h.843c.046 0 .086.038.086.086v2.156l-1.015-.532v-1.633l.086-.077zm8.397 12.37l-8.382-3.995-.084-.04v-2.762l.03.015 5.958 3.124.57.298 1.91 1.002v2.358zm-2.48-4.945l-4.2-2.202-.55-.288-.923-.484-.316-.164v-1.283l1.002.525.57.3 4.418 2.315v1.282zm3.725 20.783c-.91 0-1.4.326-1.79.588l-.174.112c-.268.17-.52.284-.987.284-.348 0-.576-.063-.78-.166-.128-.063-.246-.142-.378-.23-.394-.262-.883-.588-1.793-.588s-1.4.326-1.79.588c-.346.23-.595.396-1.16.396s-.814-.166-1.158-.396c-.394-.262-.883-.588-1.793-.588-.91 0-1.398.326-1.79.588-.345.23-.595.396-1.16.396-.314 0-.57.255-.57.57 0 .314.256.57.57.57.91 0 1.4-.327 1.792-.59l.17-.11c.27-.17.52-.285.987-.285.35 0 .576.063.78.166.128.063.247.142.38.23.392.262.88.588 1.79.588s1.4-.325 1.792-.587c.343-.23.593-.396 1.157-.396.565 0 .814.166 1.16.396.39.262.88.588 1.79.588s1.4-.325 1.792-.587c.343-.23.593-.396 1.158-.396.314 0 .57-.255.57-.57 0-.314-.256-.57-.57-.57zM3.605 124.734c.18 0 .354.03.52.084.244.08.468.216.655.403.178.18.444.212.657.105l.15-.104c.186-.187.41-.322.654-.402.166-.054.34-.084.52-.084s.353.03.52.084c.243.08.467.216.654.403.112.112.257.167.403.167.146 0 .292-.055.403-.166.222-.222.222-.582 0-.805-.53-.53-1.232-.82-1.98-.82-.57 0-1.116.17-1.577.486-.462-.315-1.007-.485-1.578-.485-.748 0-1.45.29-1.98.82-.222.223-.222.583 0 .806.11.112.257.167.403.167.146 0 .29-.055.403-.166.188-.186.412-.322.656-.402.166-.054.34-.084.52-.084zm3.927-3.236c.185-.185.432-.288.695-.288.263 0 .51.103.696.288l.052.043.037.03.057.03.04.024.087.025.02.005.096.01h.022l.078-.008.03-.006.06-.016.023-.007.076-.037.02-.012.074-.054.032-.026c.186-.185.433-.288.696-.288.263 0 .51.103.695.288.11.112.256.167.402.167.146 0 .292-.055.403-.167.222-.222.222-.582 0-.805-.4-.4-.934-.622-1.5-.622-.395 0-.77.11-1.1.31-.328-.2-.704-.31-1.098-.31-.567 0-1.1.222-1.5.623-.224.223-.224.583 0 .805.222.223.582.223.805 0zm13.664 14.24c-.233-.663-.687-1.095-1.233-1.095-.41 0-.765.243-1.017.642-.097.155-.18.334-.24.532-.056.173-.096.36-.12.557l-.025.416c0 1.224.604 2.147 1.403 2.147.767 0 1.352-.852 1.397-2.003l.004-.144c0-.152-.01-.3-.027-.442-.028-.218-.076-.423-.14-.61zm-.97 1.052c0 .524-.162.865-.263.98-.102-.114-.263-.456-.263-.98l.008-.19c.017-.23.067-.418.123-.555.045-.11.093-.19.133-.234.045.052.103.152.153.292.054.152.097.355.106.602l.003.086zm-4.664-1.006c-.065-.198-.15-.377-.25-.53-.25-.38-.6-.61-.997-.61-.536 0-.98.415-1.218 1.056-.07.186-.12.39-.15.612-.022.153-.034.312-.034.478l.004.11c.034 1.168.623 2.037 1.398 2.037.8 0 1.402-.923 1.402-2.147 0-.155-.01-.306-.03-.45-.025-.198-.068-.384-.125-.556zm-.985 1.006c0 .524-.16.866-.262.98-.102-.115-.263-.456-.263-.98l.005-.12c.012-.254.06-.457.12-.607.045-.12.096-.206.138-.252l.118.202c.058.133.11.32.133.554l.01.224z" fill="#206FAC"/></g></svg>