<svg width="32" height="232" viewBox="0 0 32 232" xmlns="http://www.w3.org/2000/svg" xmlns:sketch="http://www.bohemiancoding.com/sketch/ns"><title>boat</title><desc>Created with Sketch.</desc><g sketch:type="MSPage" fill="none"><path d="M30.121 28.565c-.566 0-.815-.167-1.16-.397-.392-.262-.881-.587-1.791-.587-.544 0-.936.116-1.248.265.298-1.816 1.209-6.548 3.288-11.656.114-.279-.01-.599-.282-.729l-1.696-.808v-3.245c0-.212-.116-.407-.305-.505l-2.174-1.14v-2.224c0-.212-.118-.407-.306-.505l-4.682-2.455v-2.753c0-.676-.55-1.226-1.226-1.226h-.843c-.241 0-.465.071-.655.192-.19-.121-.414-.192-.655-.192h-.843c-.676 0-1.226.55-1.226 1.226v2.763l-4.663 2.445c-.188.098-.305.293-.305.505v2.224l-2.175 1.14c-.187.098-.305.293-.305.505v3.276l-1.631.777c-.272.13-.396.45-.282.729 2.069 5.084 2.975 9.733 3.287 11.646-.221.103-.401.223-.565.332l-.195.127c-.259.162-.509.27-.964.27-.522 0-.774-.143-1.082-.346l-.076-.051c-.393-.262-.881-.587-1.791-.587-.315 0-.57.254-.57.569 0 .315.255.57.57.57.565 0 .813.166 1.158.396.393.262.881.588 1.791.588.91 0 1.399-.326 1.791-.588.345-.23.594-.396 1.159-.396.564 0 .814.166 1.159.396.392.262.881.588 1.791.588.91 0 1.398-.326 1.791-.588.345-.23.594-.396 1.159-.396.565 0 .814.166 1.158.396.393.262.882.588 1.792.588s1.399-.326 1.791-.588c.213-.143.39-.26.628-.33.146-.042.316-.066.531-.066.281 0 .484.041.659.111.177.07.327.169.5.285.393.262.881.588 1.791.588.91 0 1.399-.326 1.792-.588l.194-.127c.26-.162.51-.269.965-.269.522 0 .775.142 1.082.345l.077.051c.393.262.881.588 1.792.588.314 0 .569-.255.569-.57 0-.314-.255-.569-.569-.569zm-7.061-.397c-.392-.262-.881-.587-1.791-.587-.91 0-1.398.325-1.791.587l-.234.151c-.246.148-.493.246-.925.246-.505 0-.757-.133-1.051-.325l-.108-.072c-.392-.262-.881-.587-1.791-.587-.829 0-1.307.27-1.683.515l-.109.072c-.213.143-.39.261-.627.33-.147.042-.316.067-.531.067-.282 0-.485-.042-.66-.111-.177-.071-.326-.17-.499-.286l-.281-.18c-.351-.211-.803-.407-1.51-.407l-.113.002c-.318-1.931-1.197-6.39-3.145-11.324l.658-.313 1.139-.543 8.468-4.036.01-.005.027-.013v11.784c0 .315.255.57.57.57.315 0 .569-.255.569-.57v-11.784l9.011 4.295.569.271.723.344c-2.538 6.432-3.274 12.171-3.282 12.23v.029l-.076.016c-.109.02-.233.031-.378.031-.216 0-.386-.025-.533-.068-.236-.069-.413-.187-.626-.329zm-15.052-16.416l8.439-4.425.029-.014v2.792l-8.468 4.036v-2.389zm2.48-3.869l4.399-2.306 1.583-.83.002-.002.005-.002v1.283l-.005.002-.002.001-1.242.651-4.74 2.485v-1.282zm4.968-6.057c0-.048.039-.086.087-.086h.843l.085.077.001.009v1.633l-.002.001-1.014.532v-2.166zm2.24-.086h.843c.047 0 .087.038.087.086v2.156l-1.015-.532v-1.633l.085-.077zm8.397 12.37l-8.382-3.995-.085-.041v-2.761l.03.015 5.958 3.124.569.298 1.91 1.002v2.358zm-2.479-4.945l-4.201-2.202-.55-.288-.923-.484-.316-.165v-1.283l1.002.525.569.299 4.419 2.316v1.282zm3.724 20.783c-.911 0-1.399.326-1.791.588l-.173.112c-.268.17-.519.284-.987.284-.348 0-.576-.063-.781-.166-.127-.063-.245-.142-.377-.23-.393-.262-.882-.588-1.792-.588s-1.399.326-1.791.588c-.345.23-.594.396-1.159.396-.565 0-.814-.166-1.158-.396-.393-.262-.882-.588-1.792-.588-.909 0-1.398.326-1.791.588-.344.23-.594.396-1.158.396-.315 0-.57.255-.57.57 0 .314.255.569.57.569.91 0 1.398-.326 1.791-.588l.172-.112c.268-.17.519-.284.986-.284.349 0 .576.063.781.166.127.063.246.142.378.23.393.262.881.588 1.791.588.91 0 1.399-.326 1.792-.588.344-.23.594-.396 1.158-.396.565 0 .814.166 1.159.396.392.262.881.588 1.791.588.91 0 1.399-.326 1.792-.588.344-.23.594-.396 1.159-.396.314 0 .569-.255.569-.57 0-.314-.255-.569-.569-.569zm-23.733-25.214c.179 0 .354.03.519.084.245.08.469.216.656.403.178.178.444.211.657.104l.149-.104v-.001c.187-.187.411-.322.655-.402.165-.054.34-.084.519-.084s.353.03.519.084c.244.08.468.216.655.403.112.111.257.166.403.166.146 0 .292-.055.403-.166.222-.223.222-.583 0-.806-.529-.529-1.232-.82-1.98-.82-.571 0-1.116.17-1.577.486-.462-.316-1.007-.486-1.578-.486-.748 0-1.451.291-1.98.82-.222.223-.222.583 0 .806.111.111.257.166.403.166.146 0 .291-.055.403-.166.187-.187.411-.323.655-.403.166-.054.34-.084.519-.084zm3.927-3.236c.185-.185.432-.288.695-.288.263 0 .51.103.696.288l.052.043.037.03.057.03.042.023.086.025.019.006.097.009.012.001.009-.001.079-.007.03-.006.06-.017.023-.007.076-.037.021-.012.073-.054.032-.026c.186-.185.433-.288.696-.288.263 0 .51.103.695.288.112.112.257.167.403.167.146 0 .292-.055.403-.167.222-.222.222-.582 0-.805-.401-.401-.934-.622-1.501-.622-.394 0-.77.109-1.099.308-.328-.199-.704-.308-1.098-.308-.567 0-1.1.221-1.501.622-.223.223-.223.583 0 .805.223.223.583.223.806 0zm13.664 14.241c-.233-.664-.687-1.096-1.233-1.096-.409 0-.765.243-1.017.642-.097.155-.179.334-.241.532-.055.173-.095.359-.119.557l-.025.416c0 1.224.603 2.147 1.402 2.147.767 0 1.352-.852 1.397-2.003l.004-.144c0-.152-.009-.3-.027-.442-.028-.218-.076-.423-.141-.609zm-.971 1.051c0 .524-.161.865-.262.979-.102-.113-.263-.455-.263-.979l.008-.189c.017-.232.067-.419.123-.556.044-.111.092-.19.132-.234.045.051.103.151.153.291.054.152.097.355.106.602l.003.086zm-4.663-1.006c-.065-.198-.149-.377-.25-.531-.251-.38-.6-.61-.997-.61-.536 0-.981.416-1.218 1.057-.069.186-.12.391-.151.612-.021.153-.033.312-.033.478l.004.109c.034 1.169.623 2.038 1.398 2.038.799 0 1.402-.923 1.402-2.147 0-.155-.011-.306-.029-.45-.026-.198-.069-.384-.126-.556zm-.985 1.006c0 .524-.16.866-.262.979-.102-.114-.263-.455-.263-.979l.005-.121c.012-.253.061-.456.119-.606.046-.119.097-.206.139-.252l.118.201c.058.133.111.32.133.554l.011.224z" fill="#3A434E" sketch:type="MSShapeGroup"/><path d="M30.121 68.565c-.566 0-.815-.167-1.16-.397-.392-.262-.881-.587-1.791-.587-.544 0-.936.116-1.248.265.298-1.816 1.209-6.548 3.288-11.656.114-.279-.01-.599-.282-.729l-1.696-.808v-3.245c0-.212-.116-.407-.305-.505l-2.174-1.14v-2.224c0-.212-.118-.407-.306-.505l-4.682-2.455v-2.753c0-.676-.55-1.226-1.226-1.226h-.843c-.241 0-.465.071-.655.192-.19-.121-.414-.192-.655-.192h-.843c-.676 0-1.226.55-1.226 1.226v2.763l-4.663 2.445c-.188.098-.305.293-.305.505v2.224l-2.175 1.14c-.187.098-.305.293-.305.505v3.276l-1.631.777c-.272.13-.396.45-.282.729 2.069 5.084 2.975 9.733 3.287 11.646-.221.103-.401.223-.565.332l-.195.127c-.259.162-.509.27-.964.27-.522 0-.774-.143-1.082-.346l-.076-.051c-.393-.262-.881-.587-1.791-.587-.315 0-.57.254-.57.569 0 .315.255.57.57.57.565 0 .813.166 1.158.396.393.262.881.588 1.791.588.91 0 1.399-.326 1.791-.588.345-.23.594-.396 1.159-.396.564 0 .814.166 1.159.396.392.262.881.588 1.791.588.91 0 1.398-.326 1.791-.588.345-.23.594-.396 1.159-.396.565 0 .814.166 1.158.396.393.262.882.588 1.792.588s1.399-.326 1.791-.588c.213-.143.39-.26.628-.33.146-.042.316-.066.531-.066.281 0 .484.041.659.111.177.07.327.169.5.285.393.262.881.588 1.791.588.91 0 1.399-.326 1.792-.588l.194-.127c.26-.162.51-.269.965-.269.522 0 .775.142 1.082.345l.077.051c.393.262.881.588 1.792.588.314 0 .569-.255.569-.57 0-.314-.255-.569-.569-.569zm-7.061-.397c-.392-.262-.881-.587-1.791-.587-.91 0-1.398.325-1.791.587l-.234.151c-.246.148-.493.246-.925.246-.505 0-.757-.133-1.051-.325l-.108-.072c-.392-.262-.881-.587-1.791-.587-.829 0-1.307.27-1.683.515l-.109.072c-.213.143-.39.261-.627.33-.147.042-.316.067-.531.067-.282 0-.485-.042-.66-.111-.177-.071-.326-.17-.499-.286l-.281-.18c-.351-.211-.803-.407-1.51-.407l-.113.002c-.318-1.931-1.197-6.39-3.145-11.324l.658-.313 1.139-.543 8.468-4.036.01-.005.027-.013v11.784c0 .315.255.57.57.57.315 0 .569-.255.569-.57v-11.784l9.011 4.295.569.271.723.344c-2.538 6.432-3.274 12.171-3.282 12.23v.029l-.076.016c-.109.02-.233.031-.378.031-.216 0-.386-.025-.533-.068-.236-.069-.413-.187-.626-.329zm-15.052-16.416l8.439-4.425.029-.014v2.792l-8.468 4.036v-2.389zm2.48-3.869l4.399-2.306 1.583-.83.002-.002.005-.002v1.283l-.005.002-.002.001-1.242.651-4.74 2.485v-1.282zm4.968-6.057c0-.048.039-.086.087-.086h.843l.085.077.001.009v1.633l-.002.001-1.014.532v-2.166zm2.24-.086h.843c.047 0 .087.038.087.086v2.156l-1.015-.532v-1.633l.085-.077zm8.397 12.37l-8.382-3.995-.085-.041v-2.761l.03.015 5.958 3.124.569.298 1.91 1.002v2.358zm-2.479-4.945l-4.201-2.202-.55-.288-.923-.484-.316-.165v-1.283l1.002.525.569.299 4.419 2.316v1.282zm3.724 20.783c-.911 0-1.399.326-1.791.588l-.173.112c-.268.17-.519.284-.987.284-.348 0-.576-.063-.781-.166-.127-.063-.245-.142-.377-.23-.393-.262-.882-.588-1.792-.588s-1.399.326-1.791.588c-.345.23-.594.396-1.159.396-.565 0-.814-.166-1.158-.396-.393-.262-.882-.588-1.792-.588-.909 0-1.398.326-1.791.588-.344.23-.594.396-1.158.396-.315 0-.57.255-.57.57 0 .314.255.569.57.569.91 0 1.398-.326 1.791-.588l.172-.112c.268-.17.519-.284.986-.284.349 0 .576.063.781.166.127.063.246.142.378.23.393.262.881.588 1.791.588.91 0 1.399-.326 1.792-.588.344-.23.594-.396 1.158-.396.565 0 .814.166 1.159.396.392.262.881.588 1.791.588.91 0 1.399-.326 1.792-.588.344-.23.594-.396 1.159-.396.314 0 .569-.255.569-.57 0-.314-.255-.569-.569-.569zm-23.733-25.214c.179 0 .354.03.519.084.245.08.469.216.656.403.178.178.444.211.657.104l.149-.104v-.001c.187-.187.411-.322.655-.402.165-.054.34-.084.519-.084s.353.03.519.084c.244.08.468.216.655.403.112.111.257.166.403.166.146 0 .292-.055.403-.166.222-.223.222-.583 0-.806-.529-.529-1.232-.82-1.98-.82-.571 0-1.116.17-1.577.486-.462-.316-1.007-.486-1.578-.486-.748 0-1.451.291-1.98.82-.222.223-.222.583 0 .806.111.111.257.166.403.166.146 0 .291-.055.403-.166.187-.187.411-.323.655-.403.166-.054.34-.084.519-.084zm3.927-3.236c.185-.185.432-.288.695-.288.263 0 .51.103.696.288l.052.043.037.03.057.03.042.023.086.025.019.006.097.009.012.001.009-.001.079-.007.03-.006.06-.017.023-.007.076-.037.021-.012.073-.054.032-.026c.186-.185.433-.288.696-.288.263 0 .51.103.695.288.112.112.257.167.403.167.146 0 .292-.055.403-.167.222-.222.222-.582 0-.805-.401-.401-.934-.622-1.501-.622-.394 0-.77.109-1.099.308-.328-.199-.704-.308-1.098-.308-.567 0-1.1.221-1.501.622-.223.223-.223.583 0 .805.223.223.583.223.806 0zm13.664 14.241c-.233-.664-.687-1.096-1.233-1.096-.409 0-.765.243-1.017.642-.097.155-.179.334-.241.532-.055.173-.095.359-.119.557l-.025.416c0 1.224.603 2.147 1.402 2.147.767 0 1.352-.852 1.397-2.003l.004-.144c0-.152-.009-.3-.027-.442-.028-.218-.076-.423-.141-.609zm-.971 1.051c0 .524-.161.865-.262.979-.102-.113-.263-.455-.263-.979l.008-.189c.017-.232.067-.419.123-.556.044-.111.092-.19.132-.234.045.051.103.151.153.291.054.152.097.355.106.602l.003.086zm-4.663-1.006c-.065-.198-.149-.377-.25-.531-.251-.38-.6-.61-.997-.61-.536 0-.981.416-1.218 1.057-.069.186-.12.391-.151.612-.021.153-.033.312-.033.478l.004.109c.034 1.169.623 2.038 1.398 2.038.799 0 1.402-.923 1.402-2.147 0-.155-.011-.306-.029-.45-.026-.198-.069-.384-.126-.556zm-.985 1.006c0 .524-.16.866-.262.979-.102-.114-.263-.455-.263-.979l.005-.121c.012-.253.061-.456.119-.606.046-.119.097-.206.139-.252l.118.201c.058.133.111.32.133.554l.011.224z" fill="#67737B" sketch:type="MSShapeGroup"/><path d="M30.121 108.565c-.566 0-.815-.167-1.16-.397-.392-.262-.881-.587-1.791-.587-.544 0-.936.116-1.248.265.298-1.816 1.209-6.548 3.288-11.656.114-.279-.01-.599-.282-.729l-1.696-.808v-3.245c0-.212-.116-.407-.305-.505l-2.174-1.14v-2.224c0-.212-.118-.407-.306-.505l-4.682-2.455v-2.753c0-.676-.55-1.226-1.226-1.226h-.843c-.241 0-.465.071-.655.192-.19-.121-.414-.192-.655-.192h-.843c-.676 0-1.226.55-1.226 1.226v2.763l-4.663 2.445c-.188.098-.305.293-.305.505v2.224l-2.175 1.14c-.187.098-.305.293-.305.505v3.276l-1.631.777c-.272.13-.396.45-.282.729 2.069 5.084 2.975 9.733 3.287 11.646-.221.103-.401.223-.565.332l-.195.127c-.259.162-.509.27-.964.27-.522 0-.774-.143-1.082-.346l-.076-.051c-.393-.262-.881-.587-1.791-.587-.315 0-.57.254-.57.569 0 .315.255.57.57.57.565 0 .813.166 1.158.396.393.262.881.588 1.791.588.91 0 1.399-.326 1.791-.588.345-.23.594-.396 1.159-.396.564 0 .814.166 1.159.396.392.262.881.588 1.791.588.91 0 1.398-.326 1.791-.588.345-.23.594-.396 1.159-.396.565 0 .814.166 1.158.396.393.262.882.588 1.792.588s1.399-.326 1.791-.588c.213-.143.39-.26.628-.33.146-.042.316-.066.531-.066.281 0 .484.041.659.111.177.07.327.169.5.285.393.262.881.588 1.791.588.91 0 1.399-.326 1.792-.588l.194-.127c.26-.162.51-.269.965-.269.522 0 .775.142 1.082.345l.077.051c.393.262.881.588 1.792.588.314 0 .569-.255.569-.57 0-.314-.255-.569-.569-.569zm-7.061-.397c-.392-.262-.881-.587-1.791-.587-.91 0-1.398.325-1.791.587l-.234.151c-.246.148-.493.246-.925.246-.505 0-.757-.133-1.051-.325l-.108-.072c-.392-.262-.881-.587-1.791-.587-.829 0-1.307.27-1.683.515l-.109.072c-.213.143-.39.261-.627.33-.147.042-.316.067-.531.067-.282 0-.485-.042-.66-.111-.177-.071-.326-.17-.499-.286l-.281-.18c-.351-.211-.803-.407-1.51-.407l-.113.002c-.318-1.931-1.197-6.39-3.145-11.324l.658-.313 1.139-.543 8.468-4.036.01-.005.027-.013v11.784c0 .315.255.57.57.57.315 0 .569-.255.569-.57v-11.784l9.011 4.295.569.271.723.344c-2.538 6.432-3.274 12.171-3.282 12.23v.029l-.076.016c-.109.02-.233.031-.378.031-.216 0-.386-.025-.533-.068-.236-.069-.413-.187-.626-.329zm-15.052-16.416l8.439-4.425.029-.014v2.792l-8.468 4.036v-2.389zm2.48-3.869l4.399-2.306 1.583-.83.002-.002.005-.002v1.283l-.005.002-.002.001-1.242.651-4.74 2.485v-1.282zm4.968-6.057c0-.048.039-.086.087-.086h.843l.085.077.001.009v1.633l-.002.001-1.014.532v-2.166zm2.24-.086h.843c.047 0 .087.038.087.086v2.156l-1.015-.532v-1.633l.085-.077zm8.397 12.37l-8.382-3.995-.085-.041v-2.761l.03.015 5.958 3.124.569.298 1.91 1.002v2.358zm-2.479-4.945l-4.201-2.202-.55-.288-.923-.484-.316-.165v-1.283l1.002.525.569.299 4.419 2.316v1.282zm3.724 20.783c-.911 0-1.399.326-1.791.588l-.173.112c-.268.17-.519.284-.987.284-.348 0-.576-.063-.781-.166-.127-.063-.245-.142-.377-.23-.393-.262-.882-.588-1.792-.588s-1.399.326-1.791.588c-.345.23-.594.396-1.159.396-.565 0-.814-.166-1.158-.396-.393-.262-.882-.588-1.792-.588-.909 0-1.398.326-1.791.588-.344.23-.594.396-1.158.396-.315 0-.57.255-.57.57 0 .314.255.569.57.569.91 0 1.398-.326 1.791-.588l.172-.112c.268-.17.519-.284.986-.284.349 0 .576.063.781.166.127.063.246.142.378.23.393.262.881.588 1.791.588.91 0 1.399-.326 1.792-.588.344-.23.594-.396 1.158-.396.565 0 .814.166 1.159.396.392.262.881.588 1.791.588.91 0 1.399-.326 1.792-.588.344-.23.594-.396 1.159-.396.314 0 .569-.255.569-.57 0-.314-.255-.569-.569-.569zm-23.733-25.214c.179 0 .354.03.519.084.245.08.469.216.656.403.178.178.444.211.657.104l.149-.104v-.001c.187-.187.411-.322.655-.402.165-.054.34-.084.519-.084s.353.03.519.084c.244.08.468.216.655.403.112.111.257.166.403.166.146 0 .292-.055.403-.166.222-.223.222-.583 0-.806-.529-.529-1.232-.82-1.98-.82-.571 0-1.116.17-1.577.486-.462-.316-1.007-.486-1.578-.486-.748 0-1.451.291-1.98.82-.222.223-.222.583 0 .806.111.111.257.166.403.166.146 0 .291-.055.403-.166.187-.187.411-.323.655-.403.166-.054.34-.084.519-.084zm3.927-3.236c.185-.185.432-.288.695-.288.263 0 .51.103.696.288l.052.043.037.03.057.03.042.023.086.025.019.006.097.009.012.001.009-.001.079-.007.03-.006.06-.017.023-.007.076-.037.021-.012.073-.054.032-.026c.186-.185.433-.288.696-.288.263 0 .51.103.695.288.112.112.257.167.403.167.146 0 .292-.055.403-.167.222-.222.222-.582 0-.805-.401-.401-.934-.622-1.501-.622-.394 0-.77.109-1.099.308-.328-.199-.704-.308-1.098-.308-.567 0-1.1.221-1.501.622-.223.223-.223.583 0 .805.223.223.583.223.806 0zm13.664 14.241c-.233-.664-.687-1.096-1.233-1.096-.409 0-.765.243-1.017.642-.097.155-.179.334-.241.532-.055.173-.095.359-.119.557l-.025.416c0 1.224.603 2.147 1.402 2.147.767 0 1.352-.852 1.397-2.003l.004-.144c0-.152-.009-.3-.027-.442-.028-.218-.076-.423-.141-.609zm-.971 1.051c0 .524-.161.865-.262.979-.102-.113-.263-.455-.263-.979l.008-.189c.017-.232.067-.419.123-.556.044-.111.092-.19.132-.234.045.051.103.151.153.291.054.152.097.355.106.602l.003.086zm-4.663-1.006c-.065-.198-.149-.377-.25-.531-.251-.38-.6-.61-.997-.61-.536 0-.981.416-1.218 1.057-.069.186-.12.391-.151.612-.021.153-.033.312-.033.478l.004.109c.034 1.169.623 2.038 1.398 2.038.799 0 1.402-.923 1.402-2.147 0-.155-.011-.306-.029-.45-.026-.198-.069-.384-.126-.556zm-.985 1.006c0 .524-.16.866-.262.979-.102-.114-.263-.455-.263-.979l.005-.121c.012-.253.061-.456.119-.606.046-.119.097-.206.139-.252l.118.201c.058.133.111.32.133.554l.011.224z" fill="#fff" sketch:type="MSShapeGroup"/><path d="M30.121 148.565c-.566 0-.815-.167-1.16-.397-.392-.262-.881-.587-1.791-.587-.544 0-.936.116-1.248.265.298-1.816 1.209-6.548 3.288-11.656.114-.279-.01-.599-.282-.729l-1.696-.808v-3.245c0-.212-.116-.407-.305-.505l-2.174-1.14v-2.224c0-.212-.118-.407-.306-.505l-4.682-2.455v-2.753c0-.676-.55-1.226-1.226-1.226h-.843c-.241 0-.465.071-.655.192-.19-.121-.414-.192-.655-.192h-.843c-.676 0-1.226.55-1.226 1.226v2.763l-4.663 2.445c-.188.098-.305.293-.305.505v2.224l-2.175 1.14c-.187.098-.305.293-.305.505v3.276l-1.631.777c-.272.13-.396.45-.282.729 2.069 5.084 2.975 9.733 3.287 11.646-.221.103-.401.223-.565.332l-.195.127c-.259.162-.509.27-.964.27-.522 0-.774-.143-1.082-.346l-.076-.051c-.393-.262-.881-.587-1.791-.587-.315 0-.57.254-.57.569 0 .315.255.57.57.57.565 0 .813.166 1.158.396.393.262.881.588 1.791.588.91 0 1.399-.326 1.791-.588.345-.23.594-.396 1.159-.396.564 0 .814.166 1.159.396.392.262.881.588 1.791.588.91 0 1.398-.326 1.791-.588.345-.23.594-.396 1.159-.396.565 0 .814.166 1.158.396.393.262.882.588 1.792.588s1.399-.326 1.791-.588c.213-.143.39-.26.628-.33.146-.042.316-.066.531-.066.281 0 .484.041.659.111.177.07.327.169.5.285.393.262.881.588 1.791.588.91 0 1.399-.326 1.792-.588l.194-.127c.26-.162.51-.269.965-.269.522 0 .775.142 1.082.345l.077.051c.393.262.881.588 1.792.588.314 0 .569-.255.569-.57 0-.314-.255-.569-.569-.569zm-7.061-.397c-.392-.262-.881-.587-1.791-.587-.91 0-1.398.325-1.791.587l-.234.151c-.246.148-.493.246-.925.246-.505 0-.757-.133-1.051-.325l-.108-.072c-.392-.262-.881-.587-1.791-.587-.829 0-1.307.27-1.683.515l-.109.072c-.213.143-.39.261-.627.33-.147.042-.316.067-.531.067-.282 0-.485-.042-.66-.111-.177-.071-.326-.17-.499-.286l-.281-.18c-.351-.211-.803-.407-1.51-.407l-.113.002c-.318-1.931-1.197-6.39-3.145-11.324l.658-.313 1.139-.543 8.468-4.036.01-.005.027-.013v11.784c0 .315.255.57.57.57.315 0 .569-.255.569-.57v-11.784l9.011 4.295.569.271.723.344c-2.538 6.432-3.274 12.171-3.282 12.23v.029l-.076.016c-.109.02-.233.031-.378.031-.216 0-.386-.025-.533-.068-.236-.069-.413-.187-.626-.329zm-15.052-16.416l8.439-4.425.029-.014v2.792l-8.468 4.036v-2.389zm2.48-3.869l4.399-2.306 1.583-.83.002-.002.005-.002v1.283l-.005.002-.002.001-1.242.651-4.74 2.485v-1.282zm4.968-6.057c0-.048.039-.086.087-.086h.843l.085.077.001.009v1.633l-.002.001-1.014.532v-2.166zm2.24-.086h.843c.047 0 .087.038.087.086v2.156l-1.015-.532v-1.633l.085-.077zm8.397 12.37l-8.382-3.995-.085-.041v-2.761l.03.015 5.958 3.124.569.298 1.91 1.002v2.358zm-2.479-4.945l-4.201-2.202-.55-.288-.923-.484-.316-.165v-1.283l1.002.525.569.299 4.419 2.316v1.282zm3.724 20.783c-.911 0-1.399.326-1.791.588l-.173.112c-.268.17-.519.284-.987.284-.348 0-.576-.063-.781-.166-.127-.063-.245-.142-.377-.23-.393-.262-.882-.588-1.792-.588s-1.399.326-1.791.588c-.345.23-.594.396-1.159.396-.565 0-.814-.166-1.158-.396-.393-.262-.882-.588-1.792-.588-.909 0-1.398.326-1.791.588-.344.23-.594.396-1.158.396-.315 0-.57.255-.57.57 0 .314.255.569.57.569.91 0 1.398-.326 1.791-.588l.172-.112c.268-.17.519-.284.986-.284.349 0 .576.063.781.166.127.063.246.142.378.23.393.262.881.588 1.791.588.91 0 1.399-.326 1.792-.588.344-.23.594-.396 1.158-.396.565 0 .814.166 1.159.396.392.262.881.588 1.791.588.91 0 1.399-.326 1.792-.588.344-.23.594-.396 1.159-.396.314 0 .569-.255.569-.57 0-.314-.255-.569-.569-.569zm-23.733-25.214c.179 0 .354.03.519.084.245.08.469.216.656.403.178.178.444.211.657.104l.149-.104v-.001c.187-.187.411-.322.655-.402.165-.054.34-.084.519-.084s.353.03.519.084c.244.08.468.216.655.403.112.111.257.166.403.166.146 0 .292-.055.403-.166.222-.223.222-.583 0-.806-.529-.529-1.232-.82-1.98-.82-.571 0-1.116.17-1.577.486-.462-.316-1.007-.486-1.578-.486-.748 0-1.451.291-1.98.82-.222.223-.222.583 0 .806.111.111.257.166.403.166.146 0 .291-.055.403-.166.187-.187.411-.323.655-.403.166-.054.34-.084.519-.084zm3.927-3.236c.185-.185.432-.288.695-.288.263 0 .51.103.696.288l.052.043.037.03.057.03.042.023.086.025.019.006.097.009.012.001.009-.001.079-.007.03-.006.06-.017.023-.007.076-.037.021-.012.073-.054.032-.026c.186-.185.433-.288.696-.288.263 0 .51.103.695.288.112.112.257.167.403.167.146 0 .292-.055.403-.167.222-.222.222-.582 0-.805-.401-.401-.934-.622-1.501-.622-.394 0-.77.109-1.099.308-.328-.199-.704-.308-1.098-.308-.567 0-1.1.221-1.501.622-.223.223-.223.583 0 .805.223.223.583.223.806 0zm13.664 14.241c-.233-.664-.687-1.096-1.233-1.096-.409 0-.765.243-1.017.642-.097.155-.179.334-.241.532-.055.173-.095.359-.119.557l-.025.416c0 1.224.603 2.147 1.402 2.147.767 0 1.352-.852 1.397-2.003l.004-.144c0-.152-.009-.3-.027-.442-.028-.218-.076-.423-.141-.609zm-.971 1.051c0 .524-.161.865-.262.979-.102-.113-.263-.455-.263-.979l.008-.189c.017-.232.067-.419.123-.556.044-.111.092-.19.132-.234.045.051.103.151.153.291.054.152.097.355.106.602l.003.086zm-4.663-1.006c-.065-.198-.149-.377-.25-.531-.251-.38-.6-.61-.997-.61-.536 0-.981.416-1.218 1.057-.069.186-.12.391-.151.612-.021.153-.033.312-.033.478l.004.109c.034 1.169.623 2.038 1.398 2.038.799 0 1.402-.923 1.402-2.147 0-.155-.011-.306-.029-.45-.026-.198-.069-.384-.126-.556zm-.985 1.006c0 .524-.16.866-.262.979-.102-.114-.263-.455-.263-.979l.005-.121c.012-.253.061-.456.119-.606.046-.119.097-.206.139-.252l.118.201c.058.133.111.32.133.554l.011.224z" fill="#206FAC" sketch:type="MSShapeGroup"/></g></svg>