<svg width="32" height="232" viewBox="0 0 32 232" xmlns="http://www.w3.org/2000/svg"><desc>Created with Sketch.</desc><g fill="none"><path d="M30.12 28.565c-.565 0-.814-.167-1.16-.397-.39-.262-.88-.587-1.79-.587-.544 0-.936.12-1.248.27.298-1.81 1.21-6.55 3.288-11.65.114-.28-.01-.6-.282-.73l-1.696-.8v-3.25c0-.21-.116-.4-.305-.5l-2.174-1.14V7.54c0-.213-.118-.408-.306-.506L19.765 4.58V1.825c0-.676-.55-1.226-1.226-1.226h-.85c-.24 0-.47.07-.66.19-.19-.12-.42-.19-.66-.19h-.85c-.68 0-1.23.55-1.23 1.22v2.77L9.65 7.03c-.187.098-.304.293-.304.505V9.76L7.17 10.9c-.187.1-.305.294-.305.506v3.276l-1.632.777c-.272.13-.396.45-.282.73 2.07 5.08 2.98 9.73 3.29 11.64-.22.1-.4.22-.56.33l-.19.12c-.26.16-.51.27-.96.27-.52 0-.77-.15-1.08-.35l-.07-.05c-.39-.27-.88-.59-1.79-.59-.31 0-.57.25-.57.57 0 .31.26.57.57.57.57 0 .81.16 1.16.39.4.26.88.59 1.79.59s1.4-.33 1.79-.59c.35-.23.6-.4 1.16-.4.56 0 .81.16 1.16.39.4.26.88.59 1.79.59s1.4-.33 1.8-.59c.34-.23.59-.4 1.16-.4.56 0 .81.16 1.16.39.395.263.88.59 1.79.59s1.4-.327 1.79-.59c.216-.14.39-.26.63-.33.147-.04.317-.065.53-.065.28 0 .486.04.66.11.178.07.328.17.5.283.394.27.88.59 1.79.59s1.4-.32 1.794-.59l.196-.12c.26-.166.51-.27.964-.27.52 0 .77.14 1.08.342l.076.05c.392.263.88.59 1.79.59.315 0 .57-.256.57-.57 0-.315-.255-.57-.57-.57zm-7.06-.397c-.392-.262-.88-.587-1.79-.587s-1.4.33-1.792.59l-.234.15c-.246.15-.493.25-.925.25-.51 0-.76-.13-1.06-.32l-.11-.07c-.4-.26-.88-.59-1.79-.59-.83 0-1.31.27-1.69.52l-.11.08c-.21.15-.39.26-.63.33-.15.04-.32.07-.53.07-.29 0-.49-.04-.66-.11-.18-.07-.33-.17-.5-.29l-.28-.18c-.36-.21-.81-.4-1.51-.4l-.12.01c-.31-1.94-1.19-6.4-3.14-11.33l.66-.31L8 15.41l8.468-4.036.01-.004.028-.014V23.14c0 .315.252.57.57.57.312 0 .57-.255.57-.57V11.35l9.01 4.294.57.27.72.345c-2.54 6.43-3.275 12.17-3.28 12.23v.02l-.08.01c-.11.02-.232.03-.377.03-.22 0-.39-.03-.54-.07-.24-.07-.42-.19-.63-.33zM8.008 11.752l8.44-4.425.028-.014v2.792L8.008 14.14v-2.388zm2.48-3.87l4.4-2.305 1.582-.83.002-.002.005-.002v1.283l-.005.002h-.002l-1.242.652-4.74 2.485V7.883zm4.968-6.056c0-.048.04-.086.087-.086h.843l.085.077.01.01V3.46l-1.01.53V1.827zm2.24-.086h.843c.04 0 .08.038.08.086v2.156l-1.01-.532V1.817l.08-.077zm8.397 12.37l-8.382-3.995-.08-.04V7.312l.03.015 5.96 3.124.57.3 1.91 1v2.36zm-2.48-4.945l-4.2-2.202-.55-.288-.923-.484-.316-.16V4.75l1.002.525.57.3 4.418 2.315v1.28zm3.725 20.783c-.91 0-1.4.326-1.79.588l-.174.112c-.268.17-.52.284-.987.284-.348 0-.576-.063-.78-.166-.128-.063-.246-.142-.378-.23-.4-.262-.89-.588-1.8-.588s-1.4.326-1.79.588c-.35.23-.6.396-1.16.396s-.82-.166-1.16-.396c-.4-.262-.89-.588-1.8-.588s-1.4.326-1.79.588c-.35.23-.6.396-1.16.396-.32 0-.57.255-.57.57 0 .314.25.57.57.57.91 0 1.4-.327 1.79-.59l.17-.11c.27-.17.52-.285.98-.285.35 0 .57.063.78.166.13.063.24.142.38.23.39.262.88.588 1.79.588s1.4-.32 1.79-.58c.34-.23.59-.39 1.15-.39s.81.17 1.16.4c.39.26.88.59 1.79.59s1.4-.32 1.79-.58c.34-.23.59-.39 1.16-.39.32 0 .57-.25.57-.57 0-.31-.25-.57-.57-.57zM3.605 4.734c.18 0 .354.03.52.084.244.08.468.216.655.403.178.18.444.22.657.11l.15-.1c.186-.18.41-.32.654-.4.17-.05.34-.08.52-.08s.36.03.52.09c.25.08.47.22.66.41.11.12.26.17.41.17.15 0 .29-.05.41-.16.23-.22.23-.58 0-.8-.53-.53-1.23-.82-1.98-.82-.57 0-1.11.17-1.57.49-.46-.32-1.01-.49-1.58-.49-.75 0-1.45.29-1.98.82-.22.22-.22.58 0 .808.11.11.26.168.41.168.148 0 .29-.054.4-.165.19-.182.41-.32.66-.4.167-.052.34-.082.52-.082zm3.927-3.236c.185-.185.432-.288.695-.288.263 0 .51.103.696.288l.052.043.037.03.057.03.04.03.08.03.02.01.09.01h.02l.07-.01h.03l.06-.01h.02l.07-.03.02-.01.08-.05.03-.023c.18-.19.43-.29.69-.29.26 0 .51.1.69.29.11.11.253.164.4.164.145 0 .29-.057.4-.17.22-.22.22-.58 0-.802-.4-.4-.93-.62-1.5-.62-.394 0-.77.11-1.1.31-.3-.24-.677-.35-1.07-.35-.568 0-1.1.22-1.5.62-.225.226-.225.586 0 .808.22.223.58.223.804 0zm13.664 14.24c-.233-.663-.687-1.095-1.233-1.095-.41 0-.765.243-1.017.642-.097.155-.18.334-.24.532-.056.173-.096.36-.12.557l-.025.416c0 1.224.61 2.147 1.41 2.147.77 0 1.35-.852 1.4-2.003l.01-.144c0-.152-.01-.3-.02-.442-.02-.218-.07-.423-.14-.61zm-.97 1.052c0 .524-.162.865-.263.98-.102-.114-.263-.456-.263-.98l.008-.19c.017-.23.067-.418.123-.555.05-.11.1-.19.14-.234.05.06.11.16.16.3.06.15.1.36.11.6l.01.09zm-4.664-1.006c-.065-.198-.15-.377-.25-.53-.25-.38-.6-.61-.997-.61-.536 0-.98.415-1.218 1.056-.07.186-.12.39-.15.612-.022.153-.034.312-.034.478l.004.11c.034 1.168.623 2.037 1.398 2.037.8 0 1.402-.923 1.402-2.147 0-.155-.01-.306-.03-.45-.025-.198-.068-.384-.125-.556zm-.985 1.006c0 .524-.16.866-.262.98-.102-.115-.263-.456-.263-.98l.005-.12c.012-.254.06-.457.12-.607.045-.12.096-.206.138-.252l.118.21c.058.14.11.32.133.56l.01.23z" fill="#3A434E"/><path d="M30.12 68.565c-.565 0-.814-.167-1.16-.397-.39-.262-.88-.587-1.79-.587-.544 0-.936.12-1.248.27.298-1.81 1.21-6.55 3.288-11.65.114-.28-.01-.6-.282-.73l-1.696-.8v-3.25c0-.21-.116-.4-.305-.5l-2.174-1.14v-2.23c0-.21-.118-.4-.306-.5l-4.682-2.45v-2.76c0-.68-.55-1.23-1.226-1.23h-.85c-.24 0-.47.07-.66.19-.19-.12-.42-.19-.66-.19h-.85c-.68 0-1.23.55-1.23 1.23v2.76l-4.66 2.44c-.19.1-.31.3-.31.51v2.22L7.17 50.9c-.187.1-.305.294-.305.506v3.276l-1.632.78c-.272.13-.396.45-.282.73 2.07 5.09 2.98 9.74 3.29 11.65-.22.103-.4.223-.56.33l-.19.13c-.26.16-.51.27-.96.27-.52 0-.77-.145-1.08-.348l-.07-.05c-.39-.26-.88-.586-1.79-.586-.31 0-.57.255-.57.57 0 .315.26.57.57.57.57 0 .82.166 1.16.396.4.26.88.588 1.79.588s1.4-.327 1.8-.59c.35-.23.59-.397 1.16-.397.56 0 .81.164 1.16.394.39.26.88.58 1.79.58s1.4-.33 1.79-.59c.35-.23.6-.4 1.16-.4s.818.16 1.16.39c.397.26.88.59 1.79.59s1.4-.33 1.79-.59c.21-.15.39-.26.63-.33.15-.05.32-.07.53-.07.28 0 .49.04.66.11.18.07.33.17.5.28.397.26.88.58 1.79.58s1.4-.327 1.797-.59l.196-.125c.26-.166.51-.27.97-.27.52 0 .776.14 1.08.342l.08.05c.394.26.88.59 1.79.59.317 0 .57-.26.57-.57 0-.32-.253-.57-.57-.57zm-7.06-.397c-.392-.262-.88-.587-1.79-.587s-1.4.33-1.792.59l-.234.15c-.246.15-.493.25-.925.25-.51 0-.76-.13-1.06-.32l-.11-.07c-.4-.26-.88-.59-1.79-.59-.83 0-1.31.27-1.69.52l-.11.08c-.21.15-.39.26-.63.33-.15.04-.32.07-.53.07-.29 0-.49-.04-.66-.11-.18-.07-.33-.17-.5-.29l-.28-.18c-.36-.21-.81-.4-1.51-.4l-.12.01c-.31-1.94-1.19-6.4-3.14-11.33l.66-.31L8 55.41l8.468-4.036.01-.004.028-.014V63.14c0 .315.252.57.57.57.312 0 .57-.255.57-.57V51.35l9.01 4.294.57.27.72.345c-2.54 6.43-3.275 12.17-3.28 12.23v.02l-.08.01c-.11.02-.232.03-.377.03-.22 0-.39-.03-.54-.07-.24-.07-.42-.19-.63-.33zM8.008 51.752l8.44-4.425.028-.014v2.792L8.008 54.14v-2.388zm2.48-3.87l4.4-2.305 1.582-.83.002-.002.005-.002v1.283l-.005.002h-.002l-1.242.652-4.74 2.485v-1.282zm4.968-6.056c0-.048.04-.086.087-.086h.843l.085.077.01.01v1.632l-1.01.53v-2.17zm2.24-.086h.843c.04 0 .08.038.08.086v2.156l-1.02-.532v-1.633l.08-.077zm8.397 12.37l-8.382-3.995-.08-.04v-2.762l.03.015 5.96 3.124.57.298 1.91 1.002v2.358zm-2.48-4.945l-4.2-2.202-.55-.288-.923-.484-.316-.16v-1.28l1.002.53.57.3 4.418 2.32v1.29zm3.725 20.783c-.91 0-1.4.326-1.79.588l-.174.112c-.268.17-.52.284-.987.284-.348 0-.576-.063-.78-.166-.128-.063-.246-.142-.378-.23-.4-.262-.89-.588-1.8-.588s-1.4.326-1.79.588c-.35.23-.6.396-1.16.396s-.82-.166-1.16-.396c-.4-.262-.89-.588-1.8-.588s-1.4.326-1.79.588c-.35.23-.6.396-1.16.396-.32 0-.57.255-.57.57 0 .314.25.57.57.57.91 0 1.4-.327 1.79-.59l.17-.11c.27-.17.52-.285.98-.285.35 0 .57.063.78.166.13.063.24.142.38.23.39.262.88.588 1.79.588s1.4-.32 1.79-.58c.34-.23.59-.39 1.15-.39s.81.17 1.16.4c.39.26.88.59 1.79.59s1.4-.32 1.79-.58c.34-.23.59-.39 1.16-.39.32 0 .57-.25.57-.57 0-.31-.25-.57-.57-.57zM3.605 44.734c.18 0 .354.03.52.084.244.08.468.216.655.403.178.18.444.22.657.11l.15-.1c.186-.18.41-.32.654-.4.17-.05.34-.08.52-.08s.36.03.52.09c.25.08.47.22.66.41.11.12.26.17.41.17.15 0 .29-.05.41-.16.23-.22.23-.58 0-.8-.53-.53-1.23-.82-1.98-.82-.57 0-1.11.17-1.57.49-.46-.312-1-.482-1.58-.482-.75 0-1.45.29-1.98.82-.22.22-.22.58 0 .806.11.11.26.17.41.17.15 0 .29-.056.41-.167.19-.182.42-.32.66-.4.17-.052.34-.082.52-.082zm3.927-3.236c.185-.185.432-.288.695-.288.263 0 .51.103.696.288l.052.043.037.03.057.03.04.03.08.03.02.01.09.01h.02l.07-.01h.03l.06-.01h.02l.07-.03.02-.01.08-.05.03-.023c.18-.19.43-.29.69-.29.26 0 .51.1.69.29.11.11.253.164.4.164.145 0 .29-.057.4-.17.22-.22.22-.58 0-.802-.4-.4-.93-.62-1.5-.62-.394 0-.77.11-1.1.31-.33-.2-.7-.31-1.1-.31-.564 0-1.1.22-1.5.62-.22.22-.22.58 0 .8.225.227.585.227.81 0zm13.664 14.24c-.233-.663-.687-1.095-1.233-1.095-.41 0-.765.243-1.017.642-.097.155-.18.334-.24.532-.056.173-.096.36-.12.557l-.025.416c0 1.224.61 2.147 1.41 2.147.77 0 1.35-.852 1.4-2.003l.01-.144c0-.152-.01-.3-.02-.442-.02-.218-.07-.423-.14-.61zm-.97 1.052c0 .524-.162.865-.263.98-.102-.114-.263-.456-.263-.98l.008-.19c.017-.23.067-.418.123-.555.05-.11.1-.19.14-.234.05.06.11.16.16.3.06.15.1.36.11.6l.01.09zm-4.664-1.006c-.065-.198-.15-.377-.25-.53-.25-.38-.6-.61-.997-.61-.536 0-.98.415-1.218 1.056-.07.186-.12.39-.15.612-.022.153-.034.312-.034.478l.004.11c.034 1.168.623 2.037 1.398 2.037.8 0 1.402-.923 1.402-2.147 0-.155-.01-.306-.03-.45-.025-.198-.068-.384-.125-.556zm-.985 1.006c0 .524-.16.866-.262.98-.102-.115-.263-.456-.263-.98l.005-.12c.012-.254.06-.457.12-.607.045-.12.096-.206.138-.252l.118.21c.058.14.11.32.133.56l.01.23z" fill="#67737B"/><path d="M30.12 108.565c-.565 0-.814-.167-1.16-.397-.39-.262-.88-.587-1.79-.587-.544 0-.936.12-1.248.27.298-1.81 1.21-6.55 3.288-11.65.114-.28-.01-.6-.282-.73l-1.696-.8v-3.25c0-.21-.116-.4-.305-.5l-2.174-1.14v-2.23c0-.21-.118-.4-.306-.5l-4.682-2.45v-2.76c0-.68-.55-1.23-1.226-1.23h-.85c-.24 0-.47.07-.66.19-.19-.12-.42-.19-.66-.19h-.85c-.68 0-1.23.55-1.23 1.23v2.76l-4.66 2.44c-.19.1-.31.3-.31.51v2.22L7.17 90.9c-.187.1-.305.294-.305.506v3.276l-1.632.78c-.272.13-.396.45-.282.73 2.07 5.09 2.98 9.74 3.29 11.65-.22.103-.4.223-.56.33l-.19.13c-.26.16-.51.27-.96.27-.52 0-.77-.145-1.08-.348l-.07-.05c-.39-.26-.88-.586-1.79-.586-.31 0-.57.255-.57.57 0 .315.26.57.57.57.57 0 .82.166 1.16.396.4.26.88.588 1.79.588s1.4-.327 1.8-.59c.35-.23.59-.397 1.16-.397.56 0 .81.164 1.16.394.39.26.88.58 1.79.58s1.4-.33 1.79-.59c.35-.23.6-.4 1.16-.4s.818.16 1.16.39c.397.26.88.59 1.79.59s1.4-.33 1.79-.59c.21-.15.39-.26.63-.33.15-.05.32-.07.53-.07.28 0 .49.04.66.11.18.07.33.17.5.28.397.26.88.58 1.79.58s1.4-.327 1.797-.59l.196-.125c.26-.166.51-.27.97-.27.52 0 .776.14 1.08.342l.08.05c.394.26.88.59 1.79.59.317 0 .57-.26.57-.57 0-.32-.253-.57-.57-.57zm-7.06-.397c-.392-.262-.88-.587-1.79-.587s-1.4.33-1.792.59l-.234.15c-.246.15-.493.25-.925.25-.51 0-.76-.13-1.06-.32l-.11-.07c-.4-.26-.88-.59-1.79-.59-.83 0-1.31.27-1.69.52l-.11.08c-.21.15-.39.26-.63.33-.15.04-.32.07-.53.07-.29 0-.49-.04-.66-.11-.18-.07-.33-.17-.5-.29l-.28-.18c-.36-.21-.81-.4-1.51-.4l-.12.01c-.32-1.93-1.2-6.39-3.15-11.32l.66-.31L8 95.41l8.468-4.036.01-.004.028-.014v11.784c0 .314.252.57.57.57.312 0 .57-.256.57-.57V91.35l9.01 4.294.57.27.72.345c-2.54 6.43-3.275 12.17-3.28 12.23v.02l-.08.01c-.11.02-.232.03-.377.03-.22 0-.39-.03-.54-.07-.24-.07-.42-.19-.63-.33zM8.008 91.752l8.44-4.425.028-.014v2.792L8.008 94.14v-2.388zm2.48-3.87l4.4-2.305 1.582-.83.002-.002.005-.002v1.283l-.005.002h-.002l-1.242.652-4.74 2.485v-1.282zm4.968-6.056c0-.048.04-.086.087-.086h.843l.085.077.01.01v1.632l-1.01.53v-2.17zm2.24-.086h.843c.04 0 .08.038.08.086v2.156l-1.02-.532v-1.633l.08-.077zm8.397 12.37l-8.382-3.995-.08-.04v-2.762l.03.015 5.96 3.124.57.298 1.91 1.002v2.358zm-2.48-4.945l-4.2-2.202-.55-.288-.923-.484-.316-.16v-1.28l1.002.53.57.3 4.418 2.32v1.29zm3.725 20.783c-.91 0-1.4.326-1.79.588l-.174.112c-.268.17-.52.284-.987.284-.348 0-.576-.063-.78-.166-.128-.063-.246-.142-.378-.23-.4-.262-.89-.588-1.8-.588s-1.4.326-1.79.588c-.35.23-.6.396-1.16.396s-.82-.166-1.16-.396c-.4-.262-.89-.588-1.8-.588s-1.4.326-1.79.588c-.35.23-.6.396-1.16.396-.32 0-.57.255-.57.57 0 .314.25.57.57.57.91 0 1.4-.327 1.79-.59l.17-.11c.27-.17.52-.285.98-.285.35 0 .57.063.78.166.13.063.24.142.38.23.39.262.88.588 1.79.588s1.4-.32 1.79-.58c.34-.23.59-.39 1.15-.39s.81.17 1.16.4c.39.26.88.59 1.79.59s1.4-.32 1.79-.58c.34-.23.59-.39 1.16-.39.32 0 .57-.25.57-.57 0-.31-.25-.57-.57-.57zM3.605 84.734c.18 0 .354.03.52.084.244.08.468.216.655.403.178.18.444.22.657.11l.15-.1c.186-.18.41-.32.654-.4.17-.05.34-.08.52-.08s.36.03.52.09c.25.08.47.22.66.41.11.12.26.17.41.17.15 0 .29-.05.41-.16.23-.22.23-.58 0-.8-.53-.53-1.23-.82-1.98-.82-.57 0-1.11.17-1.57.49-.46-.312-1-.482-1.58-.482-.75 0-1.45.29-1.98.82-.22.22-.22.58 0 .806.11.11.26.17.41.17.15 0 .29-.056.41-.167.19-.182.42-.32.66-.4.17-.052.34-.082.52-.082zm3.927-3.236c.185-.185.432-.288.695-.288.263 0 .51.103.696.288l.052.043.037.03.057.03.04.03.08.03.02.01.09.01h.02l.07-.01h.03l.06-.01h.02l.07-.03.02-.01.08-.05.03-.023c.18-.19.43-.29.69-.29.26 0 .51.1.69.29.11.11.253.164.4.164.145 0 .29-.057.4-.17.22-.22.22-.58 0-.802-.4-.4-.93-.62-1.5-.62-.394 0-.77.11-1.1.31-.33-.2-.7-.31-1.1-.31-.564 0-1.1.22-1.5.62-.22.22-.22.58 0 .8.225.227.585.227.81 0zm13.664 14.24c-.233-.663-.687-1.095-1.233-1.095-.41 0-.765.243-1.017.642-.097.155-.18.334-.24.532-.056.173-.096.36-.12.557l-.025.416c0 1.224.61 2.147 1.41 2.147.77 0 1.35-.852 1.4-2.003l.01-.144c0-.152-.01-.3-.02-.442-.02-.218-.07-.423-.14-.61zm-.97 1.052c0 .524-.162.865-.263.98-.102-.114-.263-.456-.263-.98l.008-.19c.017-.23.067-.418.123-.555.05-.11.1-.19.14-.234.05.06.11.16.16.3.06.15.1.36.11.6l.01.09zm-4.664-1.006c-.065-.198-.15-.377-.25-.53-.25-.38-.6-.61-.997-.61-.536 0-.98.415-1.218 1.056-.07.186-.12.39-.15.612-.022.153-.034.312-.034.478l.004.11c.034 1.168.623 2.037 1.398 2.037.8 0 1.402-.923 1.402-2.147 0-.155-.01-.306-.03-.45-.025-.198-.068-.384-.125-.556zm-.985 1.006c0 .524-.16.866-.262.98-.102-.115-.263-.456-.263-.98l.005-.12c.012-.254.06-.457.12-.607.045-.12.096-.206.138-.252l.118.21c.058.14.11.32.133.56l.01.23z" fill="#fff"/><path d="M30.12 148.565c-.565 0-.814-.167-1.16-.397-.39-.262-.88-.587-1.79-.587-.544 0-.936.12-1.248.27.298-1.81 1.21-6.55 3.288-11.65.114-.28-.01-.6-.282-.73l-1.696-.8v-3.24c0-.21-.116-.4-.305-.5l-2.174-1.14v-2.22c0-.21-.118-.4-.306-.5l-4.682-2.45v-2.753c0-.675-.55-1.225-1.226-1.225h-.85c-.24 0-.47.07-.66.19-.19-.12-.42-.19-.66-.19h-.85c-.68 0-1.23.55-1.23 1.225v2.76l-4.66 2.444c-.19.1-.31.294-.31.506v2.22l-2.17 1.14c-.19.096-.31.29-.31.503v3.275l-1.63.774c-.28.13-.4.45-.29.73 2.07 5.086 2.976 9.735 3.29 11.65-.22.103-.4.223-.57.332l-.2.127c-.26.16-.51.27-.966.27-.52 0-.77-.148-1.08-.35l-.076-.054c-.39-.26-.88-.583-1.79-.583-.317 0-.57.256-.57.57 0 .316.253.57.57.57.563 0 .81.167 1.16.397.39.262.88.59 1.79.59s1.4-.326 1.79-.588c.343-.23.592-.4 1.16-.4.56 0 .81.165 1.16.395.39.26.88.587 1.79.587s1.4-.32 1.79-.583c.343-.23.592-.395 1.16-.395s.81.166 1.155.396c.39.26.88.586 1.79.586s1.4-.323 1.79-.585c.212-.145.39-.26.63-.33.144-.04.314-.07.53-.07.28 0 .483.04.66.11.175.07.325.17.5.285.39.263.88.59 1.79.59s1.4-.326 1.79-.588l.197-.13c.26-.163.51-.27.96-.27.52 0 .775.14 1.08.345l.078.05c.39.265.88.59 1.79.59.315 0 .57-.254.57-.57 0-.313-.255-.57-.57-.57zm-7.06-.397c-.392-.262-.88-.587-1.79-.587s-1.4.33-1.792.59l-.234.15c-.246.15-.493.25-.925.25-.51 0-.76-.13-1.06-.32l-.11-.07c-.4-.26-.88-.59-1.79-.59-.83 0-1.31.27-1.69.52l-.11.08c-.21.15-.39.26-.63.33-.15.04-.32.07-.53.07-.29 0-.49-.04-.66-.11-.18-.07-.33-.17-.5-.29l-.28-.18c-.36-.21-.81-.4-1.51-.4l-.12.01c-.32-1.93-1.2-6.39-3.15-11.32l.66-.31 1.16-.57 8.46-4.032.01-.004.03-.013v11.785c0 .317.25.57.57.57.31 0 .57-.253.57-.57v-11.79l9.01 4.296.57.27.72.347c-2.54 6.43-3.28 12.17-3.28 12.23v.024l-.08.017c-.11.02-.23.03-.38.03-.22 0-.39-.025-.54-.068-.24-.07-.42-.19-.63-.33zM8.008 131.752l8.44-4.425.028-.014v2.792l-8.468 4.036v-2.38zm2.48-3.87l4.4-2.305 1.582-.83.002-.002.005-.002v1.283l-.005.002h-.002l-1.242.652-4.74 2.485v-1.282zm4.968-6.056c0-.048.04-.086.087-.086h.843l.085.077.01.01v1.632l-1.01.53v-2.17zm2.24-.086h.843c.04 0 .08.038.08.086v2.156l-1.02-.532v-1.633l.08-.077zm8.397 12.37l-8.382-3.995-.08-.04v-2.762l.03.015 5.96 3.124.57.298 1.91 1.002v2.358zm-2.48-4.945l-4.2-2.202-.55-.288-.923-.484-.316-.16v-1.28l1.002.53.57.3 4.418 2.32v1.28zm3.725 20.783c-.91 0-1.4.326-1.79.588l-.174.112c-.268.17-.52.284-.987.284-.348 0-.576-.063-.78-.166-.128-.063-.246-.142-.378-.23-.4-.262-.89-.588-1.8-.588s-1.4.326-1.79.588c-.35.23-.6.396-1.16.396s-.82-.166-1.16-.396c-.4-.262-.89-.588-1.8-.588s-1.4.326-1.79.588c-.35.23-.6.396-1.16.396-.32 0-.57.255-.57.57 0 .314.25.57.57.57.91 0 1.4-.327 1.79-.59l.17-.11c.27-.17.52-.285.98-.285.35 0 .57.063.78.166.13.063.24.142.38.23.39.262.88.588 1.79.588s1.4-.32 1.79-.58c.34-.23.59-.39 1.15-.39s.81.17 1.16.4c.39.26.88.59 1.79.59s1.4-.32 1.79-.58c.34-.23.59-.39 1.16-.39.32 0 .57-.25.57-.57 0-.31-.25-.57-.57-.57zM3.605 124.734c.18 0 .354.03.52.084.244.08.468.216.655.403.178.18.444.22.657.11l.15-.1c.186-.18.41-.32.654-.4.17-.05.34-.08.52-.08s.36.03.52.09c.25.08.47.22.66.41.11.12.26.17.41.17.15 0 .29-.05.41-.16.23-.22.23-.58 0-.8-.53-.53-1.23-.82-1.98-.82-.57 0-1.11.17-1.57.49-.46-.312-1-.482-1.58-.482-.75 0-1.45.29-1.98.82-.22.22-.22.58 0 .806.11.11.26.17.41.17.15 0 .29-.056.41-.167.19-.182.42-.32.66-.4.17-.052.34-.082.52-.082zm3.927-3.236c.185-.185.432-.288.695-.288.263 0 .51.103.696.288l.052.043.037.03.057.03.04.03.08.03.02.01.09.01h.02l.07-.01h.03l.06-.01h.02l.07-.03.02-.01.08-.05.03-.023c.18-.19.43-.29.69-.29.26 0 .51.1.69.29.11.11.253.164.4.164.145 0 .29-.057.4-.17.22-.22.22-.58 0-.802-.4-.4-.93-.62-1.5-.62-.394 0-.77.11-1.1.31-.33-.2-.7-.31-1.1-.31-.564 0-1.1.22-1.5.62-.22.22-.22.58 0 .8.225.227.585.227.81 0zm13.664 14.24c-.233-.663-.687-1.095-1.233-1.095-.41 0-.765.243-1.017.642-.097.155-.18.334-.24.532-.056.173-.096.36-.12.557l-.025.416c0 1.224.61 2.147 1.41 2.147.77 0 1.35-.852 1.4-2.003l.01-.144c0-.152-.01-.3-.02-.442-.02-.218-.07-.423-.14-.61zm-.97 1.052c0 .524-.162.865-.263.98-.102-.114-.263-.456-.263-.98l.008-.19c.017-.23.067-.418.123-.555.05-.11.1-.19.14-.234.05.06.11.16.16.3.06.15.1.36.11.6l.01.09zm-4.664-1.006c-.065-.198-.15-.377-.25-.53-.25-.38-.6-.61-.997-.61-.536 0-.98.415-1.218 1.056-.07.186-.12.39-.15.612-.022.153-.034.312-.034.478l.004.11c.034 1.168.623 2.037 1.398 2.037.8 0 1.402-.923 1.402-2.147 0-.155-.01-.306-.03-.45-.025-.198-.068-.384-.125-.556zm-.985 1.006c0 .524-.16.866-.262.98-.102-.115-.263-.456-.263-.98l.005-.12c.012-.254.06-.457.12-.607.045-.12.096-.206.138-.252l.118.21c.058.14.11.32.133.56l.01.23z" fill="#206FAC"/></g></svg>