<svg width="32" height="232" viewBox="0 0 32 232" xmlns="http://www.w3.org/2000/svg"><desc>Created with Sketch.</desc><g fill="none"><path d="M30.12 28.565c-.565 0-.814-.167-1.16-.397-.39-.262-.88-.587-1.79-.587-.544 0-.936.12-1.248.27.298-1.817 1.21-6.55 3.288-11.657.114-.28-.01-.6-.282-.73l-1.696-.806V11.41c0-.213-.116-.408-.305-.506l-2.174-1.14V7.54c0-.213-.118-.408-.306-.506L19.765 4.58V1.825c0-.676-.55-1.226-1.226-1.226h-.847c-.24 0-.465.07-.655.19-.19-.12-.414-.19-.655-.19h-.843c-.676 0-1.226.55-1.226 1.223V4.59l-4.66 2.443c-.188.098-.305.293-.305.505V9.76L7.17 10.9c-.187.1-.305.294-.305.506v3.276l-1.632.777c-.272.13-.396.45-.282.73 2.07 5.08 2.976 9.73 3.288 11.643-.22.103-.4.223-.564.332l-.195.127c-.26.162-.51.27-.963.27-.523 0-.775-.143-1.083-.346l-.076-.052c-.393-.262-.88-.587-1.79-.587-.316 0-.57.254-.57.57 0 .314.254.57.57.57.564 0 .812.165 1.157.395.393.262.88.588 1.79.588s1.4-.325 1.792-.587c.344-.23.593-.396 1.16-.396.562 0 .812.165 1.157.395.392.262.88.588 1.79.588s1.4-.326 1.792-.588c.344-.23.593-.396 1.16-.396.563 0 .812.165 1.156.395.393.264.882.59 1.792.59s1.398-.326 1.79-.59c.213-.14.39-.26.628-.33.146-.04.316-.064.53-.064.282 0 .485.04.66.11.177.07.327.17.5.285.393.263.88.59 1.79.59s1.4-.327 1.793-.59l.194-.126c.26-.163.51-.27.964-.27.52 0 .774.142 1.08.345l.078.05c.392.262.88.59 1.79.59.315 0 .57-.257.57-.57 0-.316-.255-.57-.57-.57zm-7.06-.397c-.392-.262-.88-.587-1.79-.587s-1.4.33-1.792.59l-.234.15c-.246.15-.493.248-.925.248-.51 0-.76-.133-1.055-.325l-.108-.07c-.393-.263-.88-.588-1.79-.588-.83 0-1.31.27-1.685.516l-.11.073c-.212.143-.39.26-.626.33-.148.042-.317.067-.53.067-.284 0-.487-.043-.66-.11-.18-.073-.328-.17-.5-.288l-.28-.18c-.353-.21-.805-.407-1.51-.407l-.115.003c-.317-1.93-1.196-6.39-3.144-11.324l.66-.314 1.138-.543 8.468-4.036.01-.004.027-.013v11.784c0 .315.254.57.57.57.314 0 .57-.255.57-.57V11.35l9.01 4.294.57.27.72.345c-2.537 6.43-3.273 12.17-3.28 12.23v.025l-.077.016c-.11.02-.233.03-.378.03-.218 0-.388-.023-.535-.066-.235-.07-.412-.187-.625-.33zM8.008 11.752l8.44-4.425.028-.014v2.792L8.008 14.14v-2.388zm2.48-3.87l4.4-2.305 1.582-.83.002-.002.005-.002v1.283l-.005.002h-.002l-1.242.652-4.74 2.485V7.883zm4.968-6.056c0-.048.04-.086.087-.086h.843l.085.077.005.01V3.46h-.002l-1.013.53V1.827zm2.24-.086h.843c.043 0 .083.038.083.086v2.156L17.61 3.45V1.817l.086-.077zm8.397 12.37l-8.382-3.995-.08-.04V7.312l.03.015 5.957 3.124.57.3 1.91 1v2.36zm-2.48-4.945l-4.2-2.202-.55-.288-.923-.484-.316-.16V4.742l1.002.525.57.3 4.418 2.315v1.282zm3.725 20.783c-.91 0-1.4.326-1.79.588l-.174.112c-.268.17-.52.284-.987.284-.348 0-.576-.063-.78-.166-.128-.063-.246-.142-.378-.23-.397-.262-.886-.588-1.796-.588s-1.4.326-1.79.588c-.346.23-.595.396-1.16.396s-.814-.166-1.158-.396c-.394-.262-.883-.588-1.793-.588-.91 0-1.398.326-1.79.588-.345.23-.595.396-1.16.396-.314 0-.57.255-.57.57 0 .314.256.57.57.57.91 0 1.4-.327 1.792-.59l.17-.11c.27-.17.52-.285.987-.285.35 0 .576.063.78.166.128.063.247.142.38.23.392.262.88.588 1.79.588s1.4-.322 1.792-.584c.343-.23.593-.396 1.157-.396.566 0 .815.165 1.16.395.39.262.88.588 1.79.588s1.4-.325 1.793-.587c.343-.23.593-.396 1.158-.396.315 0 .57-.256.57-.57 0-.315-.255-.57-.57-.57zM3.605 4.734c.18 0 .354.03.52.084.244.08.468.216.655.403.178.18.444.215.657.108l.15-.104c.186-.187.41-.322.654-.402.17-.053.34-.083.52-.083s.356.03.52.083c.246.08.47.217.657.404.112.112.257.167.403.167.145 0 .29-.054.402-.165.223-.223.223-.583 0-.806-.53-.53-1.23-.82-1.98-.82-.57 0-1.115.17-1.576.485-.464-.316-1.01-.486-1.58-.486-.748 0-1.45.29-1.98.82-.222.223-.222.583 0 .806.11.112.257.167.403.167.143 0 .29-.055.4-.166.19-.185.412-.32.656-.4.166-.055.34-.085.52-.085zm3.927-3.236c.185-.185.432-.288.695-.288.263 0 .51.103.696.288l.052.043.037.03.057.03.04.027.084.025.02.006.096.01h.023l.078-.008.03-.006.06-.015.025-.008.076-.037.02-.01.076-.055.032-.026c.186-.186.433-.29.696-.29.263 0 .51.104.695.29.11.11.255.166.4.166.147 0 .293-.055.404-.167.222-.222.222-.582 0-.805-.4-.4-.934-.622-1.5-.622-.395 0-.77.11-1.1.31C8.997.18 8.62.07 8.227.07c-.567 0-1.1.222-1.5.623-.224.223-.224.583 0 .805.222.223.582.223.805 0zm13.664 14.24c-.233-.663-.687-1.095-1.233-1.095-.41 0-.765.243-1.017.642-.097.155-.18.334-.24.532-.056.173-.096.36-.12.557l-.025.416c0 1.224.607 2.147 1.406 2.147.767 0 1.352-.852 1.397-2.003l.005-.144c0-.152-.01-.3-.027-.442-.027-.218-.075-.423-.14-.61zm-.97 1.052c0 .524-.162.865-.263.98-.102-.114-.263-.456-.263-.98l.008-.19c.017-.23.067-.418.123-.555.048-.11.096-.19.136-.234.045.055.103.155.153.295.053.152.096.355.105.602l.003.086zm-4.664-1.006c-.065-.198-.15-.377-.25-.53-.25-.38-.6-.61-.997-.61-.536 0-.98.415-1.218 1.056-.07.186-.12.39-.15.612-.022.153-.034.312-.034.478l.004.11c.034 1.168.623 2.037 1.398 2.037.8 0 1.402-.923 1.402-2.147 0-.155-.01-.306-.03-.45-.025-.198-.068-.384-.125-.556zm-.985 1.006c0 .524-.16.866-.262.98-.102-.115-.263-.456-.263-.98l.005-.12c.012-.254.06-.457.12-.607.045-.12.096-.206.138-.252l.118.205c.058.133.11.32.133.554l.01.223z" fill="#3A434E"/><path d="M30.12 68.565c-.565 0-.814-.167-1.16-.397-.39-.262-.88-.587-1.79-.587-.544 0-.936.12-1.248.27.298-1.817 1.21-6.55 3.288-11.657.114-.28-.01-.6-.282-.73l-1.696-.806V51.41c0-.213-.116-.408-.305-.506l-2.174-1.14V47.54c0-.213-.118-.408-.306-.506l-4.682-2.455v-2.757c0-.676-.55-1.226-1.226-1.226h-.847c-.24 0-.465.07-.655.19-.19-.12-.414-.19-.655-.19h-.843c-.676 0-1.226.55-1.226 1.225v2.763l-4.66 2.445c-.19.098-.306.293-.306.505v2.223L7.172 50.9c-.187.098-.305.293-.305.505v3.276l-1.632.78c-.272.13-.396.45-.282.73 2.07 5.084 2.975 9.733 3.287 11.646-.22.103-.4.223-.564.332l-.195.127c-.26.162-.51.27-.96.27-.524 0-.776-.143-1.084-.346l-.076-.053c-.393-.262-.88-.587-1.79-.587-.316 0-.57.254-.57.57 0 .314.254.57.57.57.564 0 .812.165 1.157.395.393.262.88.588 1.79.588s1.4-.326 1.792-.588c.343-.23.592-.396 1.16-.396.56 0 .81.164 1.156.394.392.262.88.588 1.79.588s1.4-.326 1.792-.588c.344-.23.593-.396 1.16-.396.563 0 .812.165 1.156.395.393.262.882.588 1.792.588s1.398-.325 1.79-.587c.213-.143.39-.26.628-.33.146-.042.316-.066.53-.066.282 0 .485.04.66.11.177.07.327.17.5.285.393.262.88.588 1.79.588s1.4-.326 1.793-.588l.194-.127c.26-.163.51-.27.966-.27.52 0 .774.142 1.08.345l.078.05c.392.263.88.59 1.79.59.315 0 .57-.256.57-.57 0-.315-.255-.57-.57-.57zm-7.06-.397c-.392-.262-.88-.587-1.79-.587s-1.4.33-1.792.59l-.234.15c-.246.15-.493.248-.925.248-.51 0-.76-.133-1.055-.325l-.108-.07c-.393-.263-.88-.588-1.79-.588-.83 0-1.31.27-1.685.516l-.11.073c-.212.143-.39.26-.626.33-.148.042-.317.067-.53.067-.284 0-.487-.043-.66-.11-.18-.073-.328-.17-.5-.288l-.28-.18c-.353-.21-.805-.407-1.51-.407l-.115.003c-.317-1.93-1.196-6.39-3.144-11.324l.66-.314 1.138-.543 8.468-4.036.01-.004.027-.013v11.784c0 .315.254.57.57.57.314 0 .57-.255.57-.57V51.35l9.01 4.294.57.27.72.345c-2.537 6.43-3.273 12.17-3.28 12.23v.025l-.077.016c-.11.02-.233.03-.378.03-.218 0-.388-.023-.535-.066-.235-.07-.412-.187-.625-.33zM8.008 51.752l8.44-4.425.028-.014v2.792L8.008 54.14v-2.388zm2.48-3.87l4.4-2.305 1.582-.83.002-.002.005-.002v1.283l-.005.002h-.002l-1.242.652-4.74 2.485v-1.282zm4.968-6.056c0-.048.04-.086.087-.086h.843l.085.077.005.01v1.632h-.002l-1.013.53v-2.167zm2.24-.086h.843c.043 0 .083.038.083.086v2.156l-1.015-.532v-1.633l.085-.077zm8.397 12.37l-8.382-3.995-.08-.04v-2.762l.03.015 5.957 3.124.57.298 1.91 1.002v2.358zm-2.48-4.945l-4.2-2.202-.55-.288-.923-.484-.316-.16v-1.284l1.002.525.57.3 4.418 2.315v1.282zm3.725 20.783c-.91 0-1.4.326-1.79.588l-.174.112c-.268.17-.52.284-.987.284-.348 0-.576-.063-.78-.166-.128-.063-.246-.142-.378-.23-.397-.262-.886-.588-1.796-.588s-1.4.326-1.79.588c-.346.23-.595.396-1.16.396s-.814-.166-1.158-.396c-.394-.262-.883-.588-1.793-.588-.91 0-1.398.326-1.79.588-.345.23-.595.396-1.16.396-.314 0-.57.255-.57.57 0 .314.256.57.57.57.91 0 1.4-.327 1.792-.59l.17-.11c.27-.17.52-.285.987-.285.35 0 .576.063.78.166.128.063.247.142.38.23.392.262.88.588 1.79.588s1.4-.322 1.792-.584c.343-.23.593-.396 1.157-.396.566 0 .815.165 1.16.395.39.262.88.588 1.79.588s1.4-.325 1.793-.587c.343-.23.593-.396 1.158-.396.315 0 .57-.256.57-.57 0-.315-.255-.57-.57-.57zM3.605 44.734c.18 0 .354.03.52.084.244.08.468.216.655.403.178.18.444.215.657.108l.15-.104c.186-.187.41-.322.654-.402.17-.053.34-.083.52-.083s.356.03.52.083c.246.08.47.217.657.404.112.112.257.167.403.167.145 0 .29-.054.402-.165.223-.223.223-.583 0-.806-.53-.53-1.23-.82-1.98-.82-.57 0-1.115.17-1.576.485-.462-.316-1.007-.486-1.578-.486-.748 0-1.45.29-1.98.82-.222.223-.222.583 0 .806.11.112.257.167.403.167.147 0 .29-.055.404-.166.188-.185.412-.32.656-.4.165-.055.34-.085.52-.085zm3.927-3.236c.185-.185.432-.288.695-.288.263 0 .51.103.696.288l.052.043.037.03.057.03.04.027.084.025.02.006.096.01h.023l.078-.008.03-.006.06-.015.025-.008.076-.037.02-.01.076-.055.032-.026c.186-.186.433-.29.696-.29.263 0 .51.104.695.29.11.11.255.166.4.166.147 0 .293-.055.404-.167.222-.222.222-.582 0-.805-.4-.4-.934-.622-1.5-.622-.395 0-.77.11-1.1.31-.328-.2-.704-.31-1.098-.31-.567 0-1.1.222-1.5.623-.224.222-.224.582 0 .804.222.224.582.224.805 0zm13.664 14.24c-.233-.663-.687-1.095-1.233-1.095-.41 0-.765.243-1.017.642-.097.155-.18.334-.24.532-.056.173-.096.36-.12.557l-.025.416c0 1.224.607 2.147 1.406 2.147.767 0 1.352-.852 1.397-2.003l.005-.144c0-.152-.01-.3-.027-.442-.027-.218-.075-.423-.14-.61zm-.97 1.052c0 .524-.162.865-.263.98-.102-.114-.263-.456-.263-.98l.008-.19c.017-.23.067-.418.123-.555.048-.11.096-.19.136-.234.045.055.103.155.153.295.053.152.096.355.105.602l.003.086zm-4.664-1.006c-.065-.198-.15-.377-.25-.53-.25-.38-.6-.61-.997-.61-.536 0-.98.415-1.218 1.056-.07.186-.12.39-.15.612-.022.153-.034.312-.034.478l.004.11c.034 1.168.623 2.037 1.398 2.037.8 0 1.402-.923 1.402-2.147 0-.155-.01-.306-.03-.45-.025-.198-.068-.384-.125-.556zm-.985 1.006c0 .524-.16.866-.262.98-.102-.115-.263-.456-.263-.98l.005-.12c.012-.254.06-.457.12-.607.045-.12.096-.206.138-.252l.118.205c.058.133.11.32.133.554l.01.223z" fill="#67737B"/><path d="M30.12 108.565c-.565 0-.814-.167-1.16-.397-.39-.262-.88-.587-1.79-.587-.544 0-.936.12-1.248.27.298-1.817 1.21-6.55 3.288-11.657.114-.28-.01-.6-.282-.73l-1.696-.806V91.41c0-.213-.116-.408-.305-.506l-2.174-1.14V87.54c0-.213-.118-.408-.306-.506l-4.682-2.455v-2.757c0-.676-.55-1.226-1.226-1.226h-.847c-.24 0-.465.07-.655.19-.19-.12-.414-.19-.655-.19h-.843c-.676 0-1.226.55-1.226 1.225v2.763l-4.66 2.445c-.19.098-.306.293-.306.505v2.223L7.172 90.9c-.187.098-.305.293-.305.505v3.276l-1.632.78c-.272.13-.396.45-.282.73 2.07 5.084 2.975 9.733 3.287 11.646-.22.103-.4.223-.564.332l-.195.127c-.26.162-.51.27-.96.27-.524 0-.776-.143-1.084-.346l-.076-.053c-.393-.262-.88-.587-1.79-.587-.316 0-.57.254-.57.57 0 .314.254.57.57.57.564 0 .812.165 1.157.395.393.262.88.588 1.79.588s1.4-.326 1.792-.588c.343-.23.592-.396 1.16-.396.56 0 .81.164 1.156.394.392.262.88.588 1.79.588s1.4-.326 1.792-.588c.344-.23.593-.396 1.16-.396.563 0 .812.165 1.156.395.393.262.882.588 1.792.588s1.398-.325 1.79-.587c.213-.143.39-.26.628-.33.146-.042.316-.066.53-.066.282 0 .485.04.66.11.177.07.327.17.5.285.393.262.88.588 1.79.588s1.4-.326 1.793-.588l.194-.127c.26-.163.51-.27.966-.27.52 0 .774.142 1.08.345l.078.05c.392.263.88.59 1.79.59.315 0 .57-.256.57-.57 0-.315-.255-.57-.57-.57zm-7.06-.397c-.392-.262-.88-.587-1.79-.587s-1.4.33-1.792.59l-.234.15c-.246.15-.493.248-.925.248-.51 0-.76-.133-1.055-.325l-.108-.07c-.393-.263-.88-.588-1.79-.588-.83 0-1.31.27-1.685.516l-.11.073c-.212.143-.39.26-.626.33-.148.042-.317.067-.53.067-.284 0-.487-.043-.66-.11-.18-.073-.328-.17-.5-.288l-.28-.18c-.353-.21-.805-.407-1.51-.407l-.115.003c-.317-1.93-1.196-6.39-3.144-11.324l.66-.314 1.138-.543 8.468-4.036.01-.004.027-.013v11.784c0 .315.254.57.57.57.314 0 .57-.255.57-.57V91.35l9.01 4.294.57.27.72.345c-2.537 6.43-3.273 12.17-3.28 12.23v.025l-.077.016c-.11.02-.233.03-.378.03-.218 0-.388-.023-.535-.066-.235-.07-.412-.187-.625-.33zM8.008 91.752l8.44-4.425.028-.014v2.792L8.008 94.14v-2.388zm2.48-3.87l4.4-2.305 1.582-.83.002-.002.005-.002v1.283l-.005.002h-.002l-1.242.652-4.74 2.485v-1.282zm4.968-6.056c0-.048.04-.086.087-.086h.843l.085.077.005.01v1.632h-.002l-1.013.53v-2.167zm2.24-.086h.843c.043 0 .083.038.083.086v2.156l-1.015-.532v-1.633l.085-.077zm8.397 12.37l-8.382-3.995-.08-.04v-2.762l.03.015 5.957 3.124.57.298 1.91 1.002v2.358zm-2.48-4.945l-4.2-2.202-.55-.288-.923-.484-.316-.16v-1.284l1.002.525.57.3 4.418 2.315v1.282zm3.725 20.783c-.91 0-1.4.326-1.79.588l-.174.112c-.268.17-.52.284-.987.284-.348 0-.576-.063-.78-.166-.128-.063-.246-.142-.378-.23-.397-.262-.886-.588-1.796-.588s-1.4.326-1.79.588c-.346.23-.595.396-1.16.396s-.814-.166-1.158-.396c-.394-.262-.883-.588-1.793-.588-.91 0-1.398.326-1.79.588-.345.23-.595.396-1.16.396-.314 0-.57.255-.57.57 0 .314.256.57.57.57.91 0 1.4-.327 1.792-.59l.17-.11c.27-.17.52-.285.987-.285.35 0 .576.063.78.166.128.063.247.142.38.23.392.262.88.588 1.79.588s1.4-.322 1.792-.584c.343-.23.593-.396 1.157-.396.566 0 .815.165 1.16.395.39.262.88.588 1.79.588s1.4-.325 1.793-.587c.343-.23.593-.396 1.158-.396.315 0 .57-.256.57-.57 0-.315-.255-.57-.57-.57zM3.605 84.734c.18 0 .354.03.52.084.244.08.468.216.655.403.178.18.444.215.657.108l.15-.104c.186-.187.41-.322.654-.402.17-.053.34-.083.52-.083s.356.03.52.083c.246.08.47.217.657.404.112.112.257.167.403.167.145 0 .29-.054.402-.165.223-.223.223-.583 0-.806-.53-.53-1.23-.82-1.98-.82-.57 0-1.115.17-1.576.485-.462-.316-1.007-.486-1.578-.486-.748 0-1.45.29-1.98.82-.222.223-.222.583 0 .806.11.112.257.167.403.167.147 0 .29-.055.404-.166.188-.185.412-.32.656-.4.165-.055.34-.085.52-.085zm3.927-3.236c.185-.185.432-.288.695-.288.263 0 .51.103.696.288l.052.043.037.03.057.03.04.027.084.025.02.006.096.01h.023l.078-.008.03-.006.06-.015.025-.008.076-.037.02-.01.076-.055.032-.026c.186-.186.433-.29.696-.29.263 0 .51.104.695.29.11.11.255.166.4.166.147 0 .293-.055.404-.167.222-.222.222-.582 0-.805-.4-.4-.934-.622-1.5-.622-.395 0-.77.11-1.1.31-.328-.2-.704-.31-1.098-.31-.567 0-1.1.222-1.5.623-.224.222-.224.582 0 .804.222.224.582.224.805 0zm13.664 14.24c-.233-.663-.687-1.095-1.233-1.095-.41 0-.765.243-1.017.642-.097.155-.18.334-.24.532-.056.173-.096.36-.12.557l-.025.416c0 1.224.607 2.147 1.406 2.147.767 0 1.352-.852 1.397-2.003l.005-.144c0-.152-.01-.3-.027-.442-.027-.218-.075-.423-.14-.61zm-.97 1.052c0 .524-.162.865-.263.98-.102-.114-.263-.456-.263-.98l.008-.19c.017-.23.067-.418.123-.555.048-.11.096-.19.136-.234.045.055.103.155.153.295.053.152.096.355.105.602l.003.086zm-4.664-1.006c-.065-.198-.15-.377-.25-.53-.25-.38-.6-.61-.997-.61-.536 0-.98.415-1.218 1.056-.07.186-.12.39-.15.612-.022.153-.034.312-.034.478l.004.11c.034 1.168.623 2.037 1.398 2.037.8 0 1.402-.923 1.402-2.147 0-.155-.01-.306-.03-.45-.025-.198-.068-.384-.125-.556zm-.985 1.006c0 .524-.16.866-.262.98-.102-.115-.263-.456-.263-.98l.005-.12c.012-.254.06-.457.12-.607.045-.12.096-.206.138-.252l.118.205c.058.133.11.32.133.554l.01.223z" fill="#fff"/><path d="M30.12 148.565c-.565 0-.814-.167-1.16-.397-.39-.262-.88-.587-1.79-.587-.544 0-.936.12-1.248.27.298-1.817 1.21-6.55 3.288-11.657.114-.28-.01-.6-.282-.73l-1.696-.806v-3.245c0-.212-.116-.407-.305-.505l-2.174-1.14v-2.224c0-.212-.118-.407-.306-.505l-4.682-2.455v-2.755c0-.676-.55-1.226-1.226-1.226h-.847c-.24 0-.465.07-.655.19-.19-.12-.414-.19-.655-.19h-.843c-.676 0-1.226.55-1.226 1.224v2.763l-4.663 2.443c-.187.1-.304.294-.304.506v2.222L7.17 130.9c-.186.097-.304.292-.304.504v3.276l-1.632.778c-.272.13-.396.45-.282.73 2.07 5.084 2.975 9.733 3.287 11.646-.22.103-.4.223-.566.332l-.195.127c-.26.162-.51.27-.964.27-.523 0-.775-.143-1.083-.346l-.076-.052c-.392-.262-.88-.587-1.79-.587-.315 0-.57.255-.57.57 0 .315.255.57.57.57.565 0 .813.166 1.158.396.393.262.88.588 1.79.588s1.4-.326 1.792-.588c.345-.23.594-.396 1.16-.396.563 0 .813.166 1.158.396.392.262.88.588 1.79.588s1.4-.326 1.792-.588c.345-.23.594-.396 1.16-.396.564 0 .813.166 1.157.396.393.262.882.588 1.792.588s1.398-.326 1.79-.588c.213-.143.39-.26.628-.33.146-.042.316-.066.53-.066.282 0 .485.04.66.11.177.07.327.17.5.286.393.262.88.588 1.79.588s1.4-.326 1.793-.588l.195-.127c.26-.163.51-.27.965-.27.522 0 .775.142 1.082.345l.076.05c.392.263.88.59 1.79.59.315 0 .57-.256.57-.57 0-.315-.255-.57-.57-.57zm-7.06-.397c-.392-.262-.88-.587-1.79-.587s-1.4.33-1.792.59l-.234.15c-.246.15-.493.248-.925.248-.51 0-.76-.133-1.055-.325l-.108-.07c-.393-.263-.88-.588-1.79-.588-.83 0-1.31.27-1.685.516l-.11.073c-.212.143-.39.26-.626.33-.148.042-.317.067-.53.067-.284 0-.487-.043-.66-.11-.18-.073-.328-.17-.5-.288l-.28-.18c-.353-.21-.805-.407-1.51-.407l-.115.003c-.317-1.93-1.196-6.39-3.144-11.324l.66-.314 1.138-.543 8.468-4.036.01-.004.027-.013v11.784c0 .315.254.57.57.57.314 0 .57-.255.57-.57V131.35l9.01 4.294.57.27.72.345c-2.537 6.43-3.273 12.17-3.28 12.23v.025l-.077.016c-.11.02-.233.03-.378.03-.218 0-.388-.023-.535-.066-.235-.07-.412-.187-.625-.33zM8.008 131.752l8.44-4.425.028-.014v2.792l-8.468 4.036v-2.385zm2.48-3.87l4.4-2.305 1.582-.83.002-.002.005-.002v1.283l-.005.002h-.002l-1.242.652-4.74 2.485v-1.282zm4.968-6.056c0-.048.04-.086.087-.086h.843l.085.077.005.01v1.632h-.002l-1.013.53v-2.167zm2.24-.086h.843c.043 0 .083.038.083.086v2.156l-1.015-.532v-1.633l.085-.077zm8.397 12.37l-8.382-3.995-.08-.04v-2.762l.03.015 5.957 3.124.57.298 1.91 1.002v2.358zm-2.48-4.945l-4.2-2.202-.55-.288-.923-.484-.316-.16v-1.284l1.002.525.57.3 4.418 2.315v1.282zm3.725 20.783c-.91 0-1.4.326-1.79.588l-.174.112c-.268.17-.52.284-.987.284-.348 0-.576-.063-.78-.166-.128-.063-.246-.142-.378-.23-.397-.262-.886-.588-1.796-.588s-1.4.326-1.79.588c-.346.23-.595.396-1.16.396s-.814-.166-1.158-.396c-.394-.262-.883-.588-1.793-.588-.91 0-1.398.326-1.79.588-.345.23-.595.396-1.16.396-.314 0-.57.255-.57.57 0 .314.256.57.57.57.91 0 1.4-.327 1.792-.59l.17-.11c.27-.17.52-.285.987-.285.35 0 .576.063.78.166.128.063.247.142.38.23.392.262.88.588 1.79.588s1.4-.322 1.792-.584c.343-.23.593-.396 1.157-.396.566 0 .815.165 1.16.395.39.262.88.588 1.79.588s1.4-.325 1.793-.587c.343-.23.593-.396 1.158-.396.315 0 .57-.256.57-.57 0-.315-.255-.57-.57-.57zM3.605 124.734c.18 0 .354.03.52.084.244.08.468.216.655.403.178.18.444.215.657.108l.15-.104c.186-.187.41-.322.654-.402.17-.053.34-.083.52-.083s.356.03.52.083c.246.08.47.217.657.404.112.112.257.167.403.167.145 0 .29-.054.402-.165.223-.223.223-.583 0-.806-.53-.53-1.23-.82-1.98-.82-.57 0-1.115.17-1.576.485-.462-.316-1.007-.486-1.578-.486-.748 0-1.45.29-1.98.82-.222.223-.222.583 0 .806.11.112.257.167.403.167.147 0 .29-.055.404-.166.188-.185.412-.32.656-.4.165-.055.34-.085.52-.085zm3.927-3.236c.185-.185.432-.288.695-.288.263 0 .51.103.696.288l.052.043.037.03.057.03.04.027.084.025.02.006.096.01h.023l.078-.008.03-.006.06-.015.025-.008.076-.037.02-.01.076-.055.032-.026c.186-.186.433-.29.696-.29.263 0 .51.104.695.29.11.11.255.166.4.166.147 0 .293-.055.404-.167.222-.222.222-.582 0-.805-.4-.4-.934-.622-1.5-.622-.395 0-.77.11-1.1.31-.328-.2-.704-.31-1.098-.31-.567 0-1.1.222-1.5.623-.224.222-.224.582 0 .804.222.224.582.224.805 0zm13.664 14.24c-.233-.663-.687-1.095-1.233-1.095-.41 0-.765.243-1.017.642-.097.155-.18.334-.24.532-.056.173-.096.36-.12.557l-.025.416c0 1.224.607 2.147 1.406 2.147.767 0 1.352-.852 1.397-2.003l.005-.144c0-.152-.01-.3-.027-.442-.027-.218-.075-.423-.14-.61zm-.97 1.052c0 .524-.162.865-.263.98-.102-.114-.263-.456-.263-.98l.008-.19c.017-.23.067-.418.123-.555.048-.11.096-.19.136-.234.045.055.103.155.153.295.053.152.096.355.105.602l.003.086zm-4.664-1.006c-.065-.198-.15-.377-.25-.53-.25-.38-.6-.61-.997-.61-.536 0-.98.415-1.218 1.056-.07.186-.12.39-.15.612-.022.153-.034.312-.034.478l.004.11c.034 1.168.623 2.037 1.398 2.037.8 0 1.402-.923 1.402-2.147 0-.155-.01-.306-.03-.45-.025-.198-.068-.384-.125-.556zm-.985 1.006c0 .524-.16.866-.262.98-.102-.115-.263-.456-.263-.98l.005-.12c.012-.254.06-.457.12-.607.045-.12.096-.206.138-.252l.118.205c.058.133.11.32.133.554l.01.223z" fill="#206FAC"/></g></svg>