<svg width="32" height="232" viewBox="0 0 32 232" xmlns="http://www.w3.org/2000/svg"><title>cable-car</title><desc>Created with Sketch.</desc><g fill="none"><path d="M28.477 21.26c0-3.292-.594-6.337-1.63-8.356h-.002c-1.013-1.973-2.15-2.387-2.926-2.387l-.06.002-.045-.003h-5.8v-.5h.826c1.438 0 2.672-.805 3.146-2.053.47-1.234.083-2.565-1.033-3.56L17.56 1.22h1.762c.337 0 .61-.273.61-.61 0-.337-.273-.61-.61-.61H13.24c-.337 0-.61.273-.61.61 0 .337.273.61.61.61h2.536l4.348 4.078.012.012c.74.656.997 1.465.71 2.22-.292.77-1.08 1.268-2.005 1.268h-.848c-.068-.262-.304-.457-.588-.457-.283 0-.52.196-.588.458H15.16c-.067-.262-.303-.457-.587-.457-.283 0-.52.196-.588.458h-.514c-.336 0-.61.273-.61.61 0 .337.274.61.61.61h.493v.5H8.058c-.775 0-1.912.413-2.926 2.385C4.095 14.924 3.5 17.97 3.5 21.26c0 2.34.3 4.558.864 6.412C5.214 30.462 6.527 32 8.058 32H23.92c1.53 0 2.843-1.537 3.693-4.328.566-1.854.864-4.072.864-6.413zm-1.905 5.624h-.936c.423-1.68.646-3.607.646-5.625 0-2.84-.444-5.495-1.23-7.468h.87c.84 1.836 1.336 4.588 1.336 7.467 0 2.04-.237 3.974-.686 5.624zm-18.97 0c-.45-1.65-.687-3.584-.687-5.625 0-2.88.496-5.632 1.337-7.468h7.127v4.336L8.81 22.49c-.282.187-.358.565-.172.846.117.176.31.272.51.272.114 0 .232-.033.335-.102l5.896-3.914v2.302l-.764.507c-.28.187-.357.566-.17.846.116.177.31.273.507.273.116 0 .233-.034.337-.103l.09-.06v3.527H7.6zm8.997-4.336l6.57-4.362c.28-.186.356-.564.17-.845-.187-.28-.566-.356-.846-.17L16.6 21.084v-2.3l.762-.508c.28-.187.357-.565.17-.846-.186-.28-.564-.357-.845-.17l-.088.058v-3.526h7.126c.84 1.836 1.336 4.588 1.336 7.467 0 2.04-.236 3.974-.686 5.624H16.6v-4.336zm-1.417-12.53h1.61v.5h-1.61v-.5zm-7.125 1.72h15.667l.13.004.064-.005c.424 0 .867.29 1.288.836H6.77c.42-.545.863-.836 1.288-.836zM6.056 13.79h.87c-.787 1.973-1.23 4.628-1.23 7.467 0 2.017.222 3.943.645 5.624h-.934c-.45-1.65-.686-3.584-.686-5.625 0-2.88.496-5.632 1.336-7.468zm17.868 16.99l-.07-.007-.125.006H8.057c-.79 0-1.627-1.006-2.26-2.676h20.38c-.63 1.667-1.465 2.673-2.254 2.677z" fill="#3A434E"/><path d="M28.477 61.26c0-3.292-.594-6.337-1.63-8.356h-.002c-1.013-1.973-2.15-2.387-2.926-2.387l-.06.002-.045-.003h-5.8v-.5h.826c1.438 0 2.672-.805 3.146-2.053.47-1.234.083-2.565-1.033-3.56L17.56 41.22h1.762c.337 0 .61-.273.61-.61 0-.337-.273-.61-.61-.61H13.24c-.337 0-.61.273-.61.61 0 .337.273.61.61.61h2.536l4.348 4.078.012.012c.74.656.997 1.465.71 2.22-.292.77-1.08 1.268-2.005 1.268h-.848c-.068-.262-.304-.457-.588-.457-.283 0-.52.196-.588.458H15.16c-.067-.262-.303-.457-.587-.457-.283 0-.52.196-.588.458h-.514c-.336 0-.61.273-.61.61 0 .337.274.61.61.61h.493v.5H8.058c-.775 0-1.912.413-2.926 2.385C4.095 54.924 3.5 57.97 3.5 61.26c0 2.34.3 4.558.864 6.412C5.214 70.462 6.527 72 8.058 72H23.92c1.53 0 2.843-1.537 3.693-4.328.566-1.854.864-4.072.864-6.413zm-1.905 5.624h-.936c.423-1.68.646-3.607.646-5.625 0-2.84-.444-5.495-1.23-7.468h.87c.84 1.836 1.336 4.588 1.336 7.467 0 2.04-.237 3.974-.686 5.624zm-18.97 0c-.45-1.65-.687-3.584-.687-5.625 0-2.88.496-5.632 1.337-7.468h7.127v4.336L8.81 62.49c-.282.187-.358.565-.172.846.117.176.31.272.51.272.114 0 .232-.033.335-.102l5.896-3.914v2.302l-.764.507c-.28.187-.357.566-.17.846.116.177.31.273.507.273.116 0 .233-.034.337-.103l.09-.06v3.527H7.6zm8.997-4.336l6.57-4.362c.28-.186.356-.564.17-.845-.187-.28-.566-.356-.846-.17L16.6 61.084v-2.3l.762-.508c.28-.187.357-.565.17-.846-.186-.28-.564-.357-.845-.17l-.088.058v-3.526h7.126c.84 1.836 1.336 4.588 1.336 7.467 0 2.04-.236 3.974-.686 5.624H16.6v-4.336zm-1.417-12.53h1.61v.5h-1.61v-.5zm-7.125 1.72h15.667l.13.004.064-.005c.424 0 .867.29 1.288.836H6.77c.42-.545.863-.836 1.288-.836zM6.056 53.79h.87c-.787 1.973-1.23 4.628-1.23 7.467 0 2.017.222 3.943.645 5.624h-.934c-.45-1.65-.686-3.584-.686-5.625 0-2.88.496-5.632 1.336-7.468zm17.868 16.99l-.07-.007-.125.006H8.057c-.79 0-1.627-1.006-2.26-2.676h20.38c-.63 1.667-1.465 2.673-2.254 2.677z" fill="#67737B"/><path d="M28.477 101.26c0-3.292-.594-6.337-1.63-8.356h-.002c-1.013-1.973-2.15-2.387-2.926-2.387l-.06.002-.045-.003h-5.8v-.5h.826c1.438 0 2.672-.805 3.146-2.053.47-1.234.083-2.565-1.033-3.56L17.56 81.22h1.762c.337 0 .61-.273.61-.61 0-.337-.273-.61-.61-.61H13.24c-.337 0-.61.273-.61.61 0 .337.273.61.61.61h2.536l4.348 4.078.012.012c.74.656.997 1.465.71 2.22-.292.77-1.08 1.268-2.005 1.268h-.848c-.068-.262-.304-.457-.588-.457-.283 0-.52.196-.588.458H15.16c-.067-.262-.303-.457-.587-.457-.283 0-.52.196-.588.458h-.514c-.336 0-.61.273-.61.61 0 .337.274.61.61.61h.493v.5H8.058c-.775 0-1.912.413-2.926 2.385C4.095 94.924 3.5 97.97 3.5 101.26c0 2.34.3 4.558.864 6.412.85 2.79 2.163 4.328 3.694 4.328H23.92c1.53 0 2.843-1.537 3.693-4.328.566-1.854.864-4.072.864-6.413zm-1.905 5.624h-.936c.423-1.68.646-3.607.646-5.625 0-2.84-.444-5.495-1.23-7.468h.87c.84 1.836 1.336 4.588 1.336 7.467 0 2.04-.237 3.974-.686 5.624zm-18.97 0c-.45-1.65-.687-3.584-.687-5.625 0-2.88.496-5.632 1.337-7.468h7.127v4.336l-6.57 4.362c-.282.187-.358.565-.172.846.117.176.31.272.51.272.114 0 .232-.033.335-.102l5.896-3.914v2.302l-.764.507c-.28.187-.357.566-.17.846.116.177.31.273.507.273.116 0 .233-.034.337-.103l.09-.06v3.527H7.6zm8.997-4.336l6.57-4.362c.28-.186.356-.564.17-.845-.187-.28-.566-.356-.846-.17l-5.895 3.914v-2.3l.762-.508c.28-.187.357-.565.17-.846-.186-.28-.564-.357-.845-.17l-.088.058v-3.526h7.126c.84 1.836 1.336 4.588 1.336 7.467 0 2.04-.236 3.974-.686 5.624H16.6v-4.336zm-1.417-12.53h1.61v.5h-1.61v-.5zm-7.125 1.72h15.667l.13.004.064-.005c.424 0 .867.29 1.288.836H6.77c.42-.545.863-.836 1.288-.836zM6.056 93.79h.87c-.787 1.973-1.23 4.628-1.23 7.467 0 2.017.222 3.943.645 5.624h-.934c-.45-1.65-.686-3.584-.686-5.625 0-2.88.496-5.632 1.336-7.468zm17.868 16.99l-.07-.007-.125.006H8.057c-.79 0-1.627-1.006-2.26-2.676h20.38c-.63 1.667-1.465 2.673-2.254 2.677z" fill="#fff"/><path d="M28.477 141.26c0-3.292-.594-6.337-1.63-8.356h-.002c-1.013-1.973-2.15-2.387-2.926-2.387l-.06.002-.045-.003h-5.8v-.5h.826c1.438 0 2.672-.805 3.146-2.053.47-1.234.083-2.565-1.033-3.56l-3.394-3.184h1.762c.337 0 .61-.273.61-.61 0-.337-.273-.61-.61-.61H13.24c-.337 0-.61.273-.61.61 0 .337.273.61.61.61h2.536l4.348 4.078.012.012c.74.656.997 1.465.71 2.22-.292.77-1.08 1.268-2.005 1.268h-.848c-.068-.262-.304-.457-.588-.457-.283 0-.52.196-.588.458H15.16c-.067-.262-.303-.457-.587-.457-.283 0-.52.196-.588.458h-.514c-.336 0-.61.273-.61.61 0 .337.274.61.61.61h.493v.5H8.058c-.775 0-1.912.413-2.926 2.385-1.037 2.02-1.632 5.065-1.632 8.356 0 2.34.3 4.558.864 6.412.85 2.79 2.163 4.328 3.694 4.328H23.92c1.53 0 2.843-1.537 3.693-4.328.566-1.854.864-4.072.864-6.413zm-1.905 5.624h-.936c.423-1.68.646-3.607.646-5.625 0-2.84-.444-5.495-1.23-7.468h.87c.84 1.836 1.336 4.588 1.336 7.467 0 2.04-.237 3.974-.686 5.624zm-18.97 0c-.45-1.65-.687-3.584-.687-5.625 0-2.88.496-5.632 1.337-7.468h7.127v4.336l-6.57 4.362c-.282.187-.358.565-.172.846.117.176.31.272.51.272.114 0 .232-.033.335-.102l5.896-3.914v2.302l-.764.507c-.28.187-.357.566-.17.846.116.177.31.273.507.273.116 0 .233-.034.337-.103l.09-.06v3.527H7.6zm8.997-4.336l6.57-4.362c.28-.186.356-.564.17-.845-.187-.28-.566-.356-.846-.17l-5.895 3.914v-2.3l.762-.508c.28-.187.357-.565.17-.846-.186-.28-.564-.357-.845-.17l-.088.058v-3.526h7.126c.84 1.836 1.336 4.588 1.336 7.467 0 2.04-.236 3.974-.686 5.624H16.6v-4.336zm-1.417-12.53h1.61v.5h-1.61v-.5zm-7.125 1.72h15.667l.13.004.064-.005c.424 0 .867.29 1.288.836H6.77c.42-.545.863-.836 1.288-.836zm-2.002 2.054h.87c-.787 1.973-1.23 4.628-1.23 7.467 0 2.017.222 3.943.645 5.624h-.934c-.45-1.65-.686-3.584-.686-5.625 0-2.88.496-5.632 1.336-7.468zm17.868 16.99l-.07-.007-.125.006H8.057c-.79 0-1.627-1.006-2.26-2.676h20.38c-.63 1.667-1.465 2.673-2.254 2.677z" fill="#206FAC"/></g></svg>