<svg width="32" height="232" viewBox="0 0 32 232" xmlns="http://www.w3.org/2000/svg" xmlns:sketch="http://www.bohemiancoding.com/sketch/ns"><title>cable-car</title><desc>Created with Sketch.</desc><g sketch:type="MSPage" fill="none"><path d="M28.477 21.259c0-3.291-.594-6.336-1.631-8.355h-.001c-1.013-1.973-2.15-2.387-2.926-2.387l-.058.002-.046-.002h-5.801v-.499h.827c1.437 0 2.671-.806 3.145-2.054.47-1.234.083-2.565-1.033-3.56l-3.394-3.184h1.763c.337 0 .61-.273.61-.61 0-.337-.273-.61-.61-.61h-6.082c-.337 0-.61.273-.61.61 0 .337.273.61.61.61h2.536l4.348 4.078.012.012c.739.656.997 1.465.71 2.221-.292.77-1.079 1.267-2.005 1.267h-.849c-.068-.262-.304-.457-.588-.457-.283 0-.52.195-.588.457h-1.655c-.068-.262-.304-.457-.588-.457-.283 0-.52.195-.588.457h-.514c-.337 0-.61.273-.61.61 0 .337.273.61.61.61h.492v.499h-5.905c-.775 0-1.912.414-2.926 2.386v.001c-1.037 2.019-1.632 5.064-1.632 8.355 0 2.341.299 4.559.864 6.413.851 2.791 2.163 4.328 3.694 4.328h15.757l.046-.001.058.001c1.532 0 2.844-1.537 3.694-4.328h.001c.565-1.854.863-4.072.863-6.413zm-1.905 5.625h-.936c.423-1.681.646-3.607.646-5.625 0-2.839-.444-5.494-1.231-7.467h.87c.841 1.836 1.337 4.588 1.337 7.467 0 2.041-.237 3.975-.686 5.625zm-18.971 0c-.449-1.65-.686-3.584-.686-5.625 0-2.879.496-5.631 1.337-7.467h7.127v4.336l-6.57 4.362c-.281.187-.357.565-.171.846.117.176.311.272.509.272.115 0 .233-.033.336-.102l5.896-3.914v2.302l-.763.507c-.281.186-.357.565-.171.845.117.177.311.273.508.273.116 0 .233-.033.337-.102l.089-.059v3.526h-7.778zm8.998-4.336l6.57-4.362c.28-.186.357-.564.17-.845-.186-.281-.565-.357-.845-.171l-5.895 3.914v-2.301l.763-.507c.28-.187.357-.565.171-.846-.187-.28-.565-.357-.846-.17l-.088.058v-3.526h7.127c.84 1.836 1.336 4.588 1.336 7.467 0 2.041-.236 3.975-.686 5.625h-7.777v-4.336zm-1.416-12.53h1.611v.499h-1.611v-.499zm-7.125 1.719h15.667l.13.005.064-.005c.425 0 .868.291 1.289.836h-18.438c.421-.545.863-.836 1.288-.836zm-2.002 2.055h.871c-.788 1.973-1.232 4.628-1.232 7.467 0 2.018.223 3.944.646 5.625h-.935c-.45-1.65-.686-3.584-.686-5.625 0-2.879.496-5.631 1.336-7.467zm17.868 16.989l-.069-.006-.126.006h-15.671c-.79 0-1.627-1.007-2.259-2.677h20.38c-.632 1.667-1.466 2.673-2.255 2.677z" fill="#3A434E" sketch:type="MSShapeGroup"/><path d="M28.477 61.259c0-3.291-.594-6.336-1.631-8.355h-.001c-1.013-1.973-2.15-2.387-2.926-2.387l-.058.002-.046-.002h-5.801v-.499h.827c1.437 0 2.671-.806 3.145-2.054.47-1.234.083-2.565-1.033-3.56l-3.394-3.184h1.763c.337 0 .61-.273.61-.61 0-.337-.273-.61-.61-.61h-6.082c-.337 0-.61.273-.61.61 0 .337.273.61.61.61h2.536l4.348 4.078.012.012c.739.656.997 1.465.71 2.221-.292.77-1.079 1.267-2.005 1.267h-.849c-.068-.262-.304-.457-.588-.457-.283 0-.52.195-.588.457h-1.655c-.068-.262-.304-.457-.588-.457-.283 0-.52.195-.588.457h-.514c-.337 0-.61.273-.61.61 0 .337.273.61.61.61h.492v.499h-5.905c-.775 0-1.912.414-2.926 2.386v.001c-1.037 2.019-1.632 5.064-1.632 8.355 0 2.341.299 4.559.864 6.413.851 2.791 2.163 4.328 3.694 4.328h15.757l.046-.001.058.001c1.532 0 2.844-1.537 3.694-4.328h.001c.565-1.854.863-4.072.863-6.413zm-1.905 5.625h-.936c.423-1.681.646-3.607.646-5.625 0-2.839-.444-5.494-1.231-7.467h.87c.841 1.836 1.337 4.588 1.337 7.467 0 2.041-.237 3.975-.686 5.625zm-18.971 0c-.449-1.65-.686-3.584-.686-5.625 0-2.879.496-5.631 1.337-7.467h7.127v4.336l-6.57 4.362c-.281.187-.357.565-.171.846.117.176.311.272.509.272.115 0 .233-.033.336-.102l5.896-3.914v2.302l-.763.507c-.281.186-.357.565-.171.845.117.177.311.273.508.273.116 0 .233-.033.337-.102l.089-.059v3.526h-7.778zm8.998-4.336l6.57-4.362c.28-.186.357-.564.17-.845-.186-.281-.565-.357-.845-.171l-5.895 3.914v-2.301l.763-.507c.28-.187.357-.565.171-.846-.187-.28-.565-.357-.846-.17l-.088.058v-3.526h7.127c.84 1.836 1.336 4.588 1.336 7.467 0 2.041-.236 3.975-.686 5.625h-7.777v-4.336zm-1.416-12.53h1.611v.499h-1.611v-.499zm-7.125 1.719h15.667l.13.005.064-.005c.425 0 .868.291 1.289.836h-18.438c.421-.545.863-.836 1.288-.836zm-2.002 2.055h.871c-.788 1.973-1.232 4.628-1.232 7.467 0 2.018.223 3.944.646 5.625h-.935c-.45-1.65-.686-3.584-.686-5.625 0-2.879.496-5.631 1.336-7.467zm17.868 16.989l-.069-.006-.126.006h-15.671c-.79 0-1.627-1.007-2.259-2.677h20.38c-.632 1.667-1.466 2.673-2.255 2.677z" fill="#67737B" sketch:type="MSShapeGroup"/><path d="M28.477 101.259c0-3.291-.594-6.336-1.631-8.355h-.001c-1.013-1.973-2.15-2.387-2.926-2.387l-.058.002-.046-.002h-5.801v-.499h.827c1.437 0 2.671-.806 3.145-2.054.47-1.234.083-2.565-1.033-3.56l-3.394-3.184h1.763c.337 0 .61-.273.61-.61 0-.337-.273-.61-.61-.61h-6.082c-.337 0-.61.273-.61.61 0 .337.273.61.61.61h2.536l4.348 4.078.012.012c.739.656.997 1.465.71 2.221-.292.77-1.079 1.267-2.005 1.267h-.849c-.068-.262-.304-.457-.588-.457-.283 0-.52.195-.588.457h-1.655c-.068-.262-.304-.457-.588-.457-.283 0-.52.195-.588.457h-.514c-.337 0-.61.273-.61.61 0 .337.273.61.61.61h.492v.499h-5.905c-.775 0-1.912.414-2.926 2.386v.001c-1.037 2.019-1.632 5.064-1.632 8.355 0 2.341.299 4.559.864 6.413.851 2.791 2.163 4.328 3.694 4.328h15.757l.046-.001.058.001c1.532 0 2.844-1.537 3.694-4.328h.001c.565-1.854.863-4.072.863-6.413zm-1.905 5.625h-.936c.423-1.681.646-3.607.646-5.625 0-2.839-.444-5.494-1.231-7.467h.87c.841 1.836 1.337 4.588 1.337 7.467 0 2.041-.237 3.975-.686 5.625zm-18.971 0c-.449-1.65-.686-3.584-.686-5.625 0-2.879.496-5.631 1.337-7.467h7.127v4.336l-6.57 4.362c-.281.187-.357.565-.171.846.117.176.311.272.509.272.115 0 .233-.033.336-.102l5.896-3.914v2.302l-.763.507c-.281.186-.357.565-.171.845.117.177.311.273.508.273.116 0 .233-.033.337-.102l.089-.059v3.526h-7.778zm8.998-4.336l6.57-4.362c.28-.186.357-.564.17-.845-.186-.281-.565-.357-.845-.171l-5.895 3.914v-2.301l.763-.507c.28-.187.357-.565.171-.846-.187-.28-.565-.357-.846-.17l-.088.058v-3.526h7.127c.84 1.836 1.336 4.588 1.336 7.467 0 2.041-.236 3.975-.686 5.625h-7.777v-4.336zm-1.416-12.53h1.611v.499h-1.611v-.499zm-7.125 1.719h15.667l.13.005.064-.005c.425 0 .868.291 1.289.836h-18.438c.421-.545.863-.836 1.288-.836zm-2.002 2.055h.871c-.788 1.973-1.232 4.628-1.232 7.467 0 2.018.223 3.944.646 5.625h-.935c-.45-1.65-.686-3.584-.686-5.625 0-2.879.496-5.631 1.336-7.467zm17.868 16.989l-.069-.006-.126.006h-15.671c-.79 0-1.627-1.007-2.259-2.677h20.38c-.632 1.667-1.466 2.673-2.255 2.677z" fill="#fff" sketch:type="MSShapeGroup"/><path d="M28.477 141.259c0-3.291-.594-6.336-1.631-8.355h-.001c-1.013-1.973-2.15-2.387-2.926-2.387l-.058.002-.046-.002h-5.801v-.499h.827c1.437 0 2.671-.806 3.145-2.054.47-1.234.083-2.565-1.033-3.56l-3.394-3.184h1.763c.337 0 .61-.273.61-.61 0-.337-.273-.61-.61-.61h-6.082c-.337 0-.61.273-.61.61 0 .337.273.61.61.61h2.536l4.348 4.078.012.012c.739.656.997 1.465.71 2.221-.292.77-1.079 1.267-2.005 1.267h-.849c-.068-.262-.304-.457-.588-.457-.283 0-.52.195-.588.457h-1.655c-.068-.262-.304-.457-.588-.457-.283 0-.52.195-.588.457h-.514c-.337 0-.61.273-.61.61 0 .337.273.61.61.61h.492v.499h-5.905c-.775 0-1.912.414-2.926 2.386v.001c-1.037 2.019-1.632 5.064-1.632 8.355 0 2.341.299 4.559.864 6.413.851 2.791 2.163 4.328 3.694 4.328h15.757l.046-.001.058.001c1.532 0 2.844-1.537 3.694-4.328h.001c.565-1.854.863-4.072.863-6.413zm-1.905 5.625h-.936c.423-1.681.646-3.607.646-5.625 0-2.839-.444-5.494-1.231-7.467h.87c.841 1.836 1.337 4.588 1.337 7.467 0 2.041-.237 3.975-.686 5.625zm-18.971 0c-.449-1.65-.686-3.584-.686-5.625 0-2.879.496-5.631 1.337-7.467h7.127v4.336l-6.57 4.362c-.281.187-.357.565-.171.846.117.176.311.272.509.272.115 0 .233-.033.336-.102l5.896-3.914v2.302l-.763.507c-.281.186-.357.565-.171.845.117.177.311.273.508.273.116 0 .233-.033.337-.102l.089-.059v3.526h-7.778zm8.998-4.336l6.57-4.362c.28-.186.357-.564.17-.845-.186-.281-.565-.357-.845-.171l-5.895 3.914v-2.301l.763-.507c.28-.187.357-.565.171-.846-.187-.28-.565-.357-.846-.17l-.088.058v-3.526h7.127c.84 1.836 1.336 4.588 1.336 7.467 0 2.041-.236 3.975-.686 5.625h-7.777v-4.336zm-1.416-12.53h1.611v.499h-1.611v-.499zm-7.125 1.719h15.667l.13.005.064-.005c.425 0 .868.291 1.289.836h-18.438c.421-.545.863-.836 1.288-.836zm-2.002 2.055h.871c-.788 1.973-1.232 4.628-1.232 7.467 0 2.018.223 3.944.646 5.625h-.935c-.45-1.65-.686-3.584-.686-5.625 0-2.879.496-5.631 1.336-7.467zm17.868 16.989l-.069-.006-.126.006h-15.671c-.79 0-1.627-1.007-2.259-2.677h20.38c-.632 1.667-1.466 2.673-2.255 2.677z" fill="#206FAC" sketch:type="MSShapeGroup"/></g></svg>