<svg width="32" height="232" viewBox="0 0 32 232" xmlns="http://www.w3.org/2000/svg"><desc>Created with Sketch.</desc><g fill="none"><path d="M30.015 8.988H26.8V6.082c0-.105-.028-.208-.084-.298l-.87-1.425-.04-.17-.828-2.036c-.09-.217-.3-.358-.534-.358H7.717c-.234 0-.445.14-.533.357l-.812 1.99-1 1.636c-.054.09-.084.193-.084.3v2.905H2.074c-.318 0-.576.257-.576.575v.67c0 1.217.992 2.206 2.21 2.206h1.47c-1.778 1.307-2.933 3.405-2.933 5.77v8.08c0 .286.21.52.483.566v1.79c0 .768.624 1.39 1.393 1.39h2.52c.77 0 1.397-.622 1.397-1.39v-1.78h16.02v1.78c0 .768.624 1.39 1.394 1.39h2.515c.77 0 1.395-.622 1.395-1.39v-1.79c.272-.042.48-.28.48-.563v-8.084c0-2.364-1.154-4.462-2.93-5.768h1.468c1.22 0 2.21-.99 2.21-2.204v-.67c0-.318-.258-.576-.576-.576zm-21.91-6.04h15.952l.362.885H7.74l.36-.885zM6.442 9.563v-3.32l.772-1.26H24.88l.77 1.26v5.45c-.91-.418-1.924-.652-2.993-.652H18.88l3.395-3.38c.225-.226.225-.59 0-.813-.225-.224-.59-.224-.815 0l-3.884 3.872c-.092.09-.144.205-.16.324h-6.3L14.51 7.66c.228-.226.228-.59 0-.813-.222-.224-.586-.224-.81 0L9.814 10.72c-.092.09-.145.205-.16.324h-.22c-1.068 0-2.082.236-2.994.654V9.562zM3.71 11.29c-.584 0-1.06-.474-1.06-1.056v-.097h2.64v1.152H3.71zm3.174 17.35c0 .134-.11.243-.243.243H4.128c-.134 0-.242-.11-.242-.242v-1.78h3.002v1.78zM3.4 24.49h25.29v1.222H3.4V24.49zm9.948-6.932h1.035l-.005.042v5.74H13.35V17.6l-.003-.042zm2.18 0h1.034l-.005.042v5.74H15.53V17.6l-.004-.042zm2.178 0h1.035v5.782h-1.03V17.6l-.005-.042zm10.26 11.325H25.45c-.137 0-.246-.11-.246-.242v-1.78h3.003v1.78c0 .137-.108.246-.243.246zm.724-10.677v5.136h-8.802v-5.74l-.004-.043h1.85c.26 1.1 1.255 1.922 2.44 1.922 1.383 0 2.508-1.12 2.508-2.5 0-1.378-1.125-2.5-2.508-2.5-1.185 0-2.18.824-2.44 1.927h-11.38c-.262-1.103-1.256-1.927-2.44-1.927-1.384 0-2.51 1.122-2.51 2.5 0 1.38 1.126 2.5 2.51 2.5 1.184 0 2.178-.823 2.44-1.926h1.85l-.006.04v5.742h-8.8v-5.137c0-3.317 2.706-6.016 6.034-6.016h13.222c3.328 0 6.035 2.7 6.035 6.016zm-5.872-1.222c0-.745.608-1.352 1.356-1.352.748 0 1.356.607 1.356 1.352 0 .746-.608 1.353-1.356 1.353-.748 0-1.356-.607-1.356-1.353zm-13.548 0c0 .746-.61 1.353-1.356 1.353-.748 0-1.356-.607-1.356-1.353 0-.745.608-1.352 1.356-1.352.747 0 1.356.607 1.356 1.352zm20.168-6.75c0 .582-.475 1.055-1.06 1.055H26.8v-1.156h2.64v.097z" fill="#3A434E"/><path d="M30.015 48.988H26.8v-2.906c0-.105-.028-.208-.084-.298l-.87-1.425-.04-.17-.828-2.036c-.09-.217-.3-.358-.534-.358H7.717c-.234 0-.445.14-.533.357l-.812 1.99-1 1.636c-.054.09-.084.193-.084.3v2.905H2.074c-.318 0-.576.257-.576.575v.67c0 1.217.992 2.206 2.21 2.206h1.47c-1.778 1.307-2.933 3.405-2.933 5.77v8.08c0 .286.21.52.483.566v1.79c0 .768.624 1.39 1.393 1.39h2.52c.77 0 1.397-.622 1.397-1.39v-1.78h16.02v1.78c0 .768.624 1.39 1.394 1.39h2.515c.77 0 1.395-.622 1.395-1.39v-1.79c.272-.042.48-.28.48-.563v-8.084c0-2.364-1.154-4.462-2.93-5.768h1.468c1.22 0 2.21-.99 2.21-2.204v-.67c0-.318-.258-.576-.576-.576zm-21.91-6.04h15.952l.362.885H7.74l.36-.885zM6.44 49.563v-3.32l.773-1.26H24.88l.77 1.26v5.45c-.91-.418-1.925-.652-2.994-.652H18.88l3.395-3.38c.225-.226.225-.59 0-.813-.225-.224-.59-.224-.815 0l-3.884 3.872c-.092.09-.144.205-.16.324h-6.3l3.395-3.384c.23-.226.23-.59 0-.813-.22-.224-.585-.224-.81 0L9.815 50.72c-.092.09-.145.205-.16.324h-.22c-1.068 0-2.082.236-2.994.654v-2.132zM3.71 51.29c-.584 0-1.06-.474-1.06-1.056v-.097h2.64v1.152H3.71zm3.174 17.35c0 .134-.11.243-.243.243H4.128c-.134 0-.242-.11-.242-.242v-1.78h3.002v1.78zM3.4 64.49h25.29v1.222H3.4V64.49zm9.948-6.932h1.035l-.005.042v5.74H13.35V57.6l-.003-.042zm2.18 0h1.034l-.005.042v5.74H15.53V57.6l-.004-.042zm2.178 0h1.035v5.782h-1.03V57.6l-.005-.042zm10.26 11.324H25.45c-.137 0-.246-.11-.246-.242v-1.78h3.003v1.78c0 .133-.108.242-.243.242zm.724-10.677v5.136h-8.802V57.6l-.004-.042h1.85c.26 1.103 1.255 1.926 2.44 1.926 1.383 0 2.508-1.12 2.508-2.5 0-1.378-1.125-2.5-2.508-2.5-1.185 0-2.18.824-2.44 1.927h-11.38c-.262-1.1-1.256-1.923-2.44-1.923-1.384 0-2.51 1.122-2.51 2.5 0 1.38 1.126 2.5 2.51 2.5 1.184 0 2.178-.823 2.44-1.926h1.85l-.006.04v5.74h-8.8v-5.133c0-3.317 2.706-6.016 6.034-6.016h13.222c3.328 0 6.035 2.7 6.035 6.016zm-5.872-1.222c0-.745.608-1.352 1.356-1.352.748 0 1.356.61 1.356 1.356 0 .746-.608 1.353-1.356 1.353-.748 0-1.356-.608-1.356-1.354zm-13.548 0c0 .746-.61 1.353-1.356 1.353-.748 0-1.356-.607-1.356-1.353 0-.745.608-1.352 1.356-1.352.747 0 1.356.61 1.356 1.356zm20.168-6.75c0 .582-.475 1.055-1.06 1.055H26.8v-1.152h2.64v.097z" fill="#67737B"/><path d="M30.015 88.988H26.8v-2.906c0-.105-.028-.208-.084-.298l-.87-1.425-.04-.17-.828-2.036c-.09-.217-.3-.358-.534-.358H7.717c-.234 0-.445.14-.533.357l-.812 1.99-1 1.636c-.054.09-.084.193-.084.3v2.905H2.074c-.318 0-.576.257-.576.575v.67c0 1.217.992 2.206 2.21 2.206h1.47c-1.778 1.307-2.933 3.405-2.933 5.77v8.08c0 .286.21.52.483.566v1.79c0 .768.624 1.39 1.393 1.39h2.52c.77 0 1.397-.622 1.397-1.39v-1.78h16.02v1.78c0 .768.624 1.39 1.394 1.39h2.515c.77 0 1.395-.622 1.395-1.39v-1.79c.272-.042.48-.28.48-.563v-8.084c0-2.364-1.154-4.462-2.93-5.768h1.468c1.22 0 2.21-.99 2.21-2.204v-.67c0-.318-.258-.576-.576-.576zm-21.91-6.04h15.952l.362.885H7.74l.36-.885zM6.44 89.563v-3.32l.773-1.26H24.88l.77 1.26v5.45c-.91-.418-1.925-.652-2.994-.652H18.88l3.395-3.38c.225-.226.225-.59 0-.813-.225-.224-.59-.224-.815 0l-3.884 3.87c-.092.093-.144.207-.16.326h-6.3l3.395-3.384c.23-.226.23-.59 0-.813-.22-.224-.585-.224-.81 0l-3.884 3.87c-.092.093-.145.207-.16.326h-.22c-1.068 0-2.082.234-2.994.652V89.56zm-2.73 1.725c-.583 0-1.06-.473-1.06-1.055v-.097h2.64v1.152H3.71zm3.175 17.352c0 .133-.11.242-.243.242H4.125c-.134 0-.242-.11-.242-.242v-1.78h3.002v1.78zM3.4 104.488h25.29v1.223H3.4v-1.22zm9.948-6.93h1.035l-.005.04v5.742H13.35V97.6l-.003-.043zm2.18 0h1.034l-.005.04v5.742H15.53V97.6l-.004-.043zm2.178 0h1.035v5.782h-1.03V97.6l-.005-.043zm10.26 11.324H25.45c-.137 0-.246-.11-.246-.242v-1.78h3.003v1.78c0 .133-.108.242-.243.242zm.724-10.677v5.136h-8.802V97.6l-.004-.042h1.85c.26 1.103 1.255 1.926 2.44 1.926 1.383 0 2.508-1.12 2.508-2.5 0-1.378-1.125-2.5-2.508-2.5-1.185 0-2.18.824-2.44 1.927h-11.38c-.262-1.1-1.256-1.923-2.44-1.923-1.384 0-2.51 1.122-2.51 2.5 0 1.38 1.126 2.5 2.51 2.5 1.184 0 2.178-.823 2.44-1.926h1.85l-.006.04v5.74h-8.8v-5.133c0-3.317 2.706-6.016 6.034-6.016h13.222c3.328 0 6.035 2.7 6.035 6.016zm-5.872-1.222c0-.745.608-1.352 1.356-1.352.748 0 1.356.61 1.356 1.356 0 .746-.608 1.353-1.356 1.353-.748 0-1.356-.608-1.356-1.354zm-13.548 0c0 .746-.61 1.353-1.356 1.353-.748 0-1.356-.607-1.356-1.353 0-.745.608-1.352 1.356-1.352.747 0 1.356.61 1.356 1.356zm20.168-6.75c0 .582-.475 1.055-1.06 1.055H26.8v-1.152h2.64v.097z" fill="#fff"/><path d="M30.015 128.988H26.8v-2.906c0-.105-.028-.208-.084-.298l-.87-1.425-.04-.17-.828-2.036c-.09-.217-.3-.358-.534-.358H7.717c-.234 0-.445.14-.533.357l-.812 1.99-1 1.636c-.054.09-.084.193-.084.3v2.905H2.074c-.318 0-.576.257-.576.575v.67c0 1.217.992 2.206 2.21 2.206h1.47c-1.777 1.306-2.932 3.405-2.932 5.768v8.082c0 .285.21.52.483.565v1.79c0 .77.62 1.39 1.39 1.39h2.52c.77 0 1.394-.622 1.394-1.39v-1.78h16.02v1.78c0 .77.624 1.39 1.394 1.39h2.513c.77 0 1.396-.622 1.396-1.39v-1.79c.273-.04.482-.28.482-.562v-8.082c0-2.363-1.155-4.462-2.93-5.768h1.467c1.22 0 2.21-.99 2.21-2.203v-.67c0-.318-.258-.576-.576-.576zm-21.91-6.04h15.952l.362.885H7.74l.36-.885zm-1.664 6.615v-3.32l.775-1.26H24.88l.77 1.26v5.45c-.91-.418-1.925-.652-2.994-.652H18.88l3.395-3.38c.225-.226.225-.59 0-.813-.225-.224-.59-.224-.815 0l-3.884 3.87c-.092.093-.144.207-.16.326h-6.3l3.395-3.384c.23-.226.23-.59 0-.813-.22-.224-.585-.224-.81 0l-3.884 3.87c-.092.093-.145.207-.16.326h-.22c-1.068 0-2.082.234-2.994.652v-2.13zm-2.73 1.725c-.58 0-1.06-.473-1.06-1.055v-.097h2.64v1.152H3.71zm3.177 17.352c0 .133-.11.242-.243.242h-2.52c-.133 0-.24-.11-.24-.242v-1.78h3v1.78zM3.4 144.488h25.29v1.223H3.4v-1.22zm9.948-6.93h1.035l-.005.04v5.742H13.35v-5.74l-.003-.043zm2.18 0h1.034l-.005.04v5.742H15.53v-5.74l-.004-.043zm2.178 0h1.035v5.782h-1.03v-5.74l-.005-.043zm10.26 11.324H25.45c-.137 0-.246-.11-.246-.242v-1.78h3.003v1.78c0 .133-.108.242-.243.242zm.724-10.677v5.136h-8.802v-5.74l-.004-.04h1.85c.26 1.104 1.255 1.927 2.44 1.927 1.383 0 2.508-1.12 2.508-2.5 0-1.378-1.125-2.5-2.508-2.5-1.185 0-2.18.824-2.44 1.927h-11.38c-.262-1.102-1.256-1.926-2.44-1.926-1.384 0-2.51 1.122-2.51 2.5 0 1.38 1.126 2.5 2.51 2.5 1.184 0 2.178-.823 2.44-1.926h1.85l-.006.043v5.74h-8.8v-5.135c0-3.317 2.706-6.016 6.034-6.016h13.222c3.328 0 6.035 2.7 6.035 6.016zm-5.872-1.222c0-.745.608-1.352 1.356-1.352.748 0 1.356.61 1.356 1.356 0 .746-.608 1.353-1.356 1.353-.748 0-1.356-.608-1.356-1.354zm-13.548 0c0 .746-.61 1.353-1.356 1.353-.748 0-1.356-.607-1.356-1.353 0-.745.608-1.352 1.356-1.352.747 0 1.356.61 1.356 1.356zm20.168-6.75c0 .582-.475 1.055-1.06 1.055H26.8v-1.152h2.64v.097z" fill="#206FAC"/></g></svg>