<svg width="32" height="232" viewBox="0 0 32 232" xmlns="http://www.w3.org/2000/svg" xmlns:sketch="http://www.bohemiancoding.com/sketch/ns"><title>currency</title><desc>Created with Sketch.</desc><g sketch:type="MSPage" fill="none"><path d="M30.832 24.184c0-.337-.156-.613-.412-.839.256-.225.412-.501.412-.838 0-1.18-1.899-1.605-3.339-1.759v-11.947c0-.343-.279-.622-.622-.622h-1.024l-.205-3.749c-.008-.164-.083-.318-.206-.428-.122-.111-.284-.167-.449-.159l-.999.054-.412-2.382c-.029-.166-.124-.314-.264-.409-.14-.095-.313-.129-.477-.094l-18.726 3.976-.015.004-.056.018-.057.022-.05.027-.054.033-.041.033-.047.043-.034.04-.038.051-.027.047-.026.056-.019.052-.015.063-.008.054-.003.068-.002.032.01.189-.01-.001c-.994 0-1.803.809-1.803 1.803l.001.035-.001.021v3.373l-.194-.034c-.343 0-.621.279-.621.622v9.874c0 .343.278.622.621.622h.194v2.005c0 1.376 1.121 2.497 2.497 2.497h17.106l.069.066c-.256.225-.412.502-.412.839 0 .338.156.613.412.839-.256.225-.412.502-.412.839 0 1.791 4.379 1.843 4.879 1.843.499 0 4.878-.052 4.878-1.843 0-.337-.156-.613-.412-.839.256-.225.412-.501.412-.839 0-.337-.156-.613-.412-.839.256-.225.412-.501.412-.839 0-.337-.156-.613-.412-.839.256-.225.412-.501.412-.839zm-1.357-1.677c-.42.251-1.64.599-3.521.599-1.882 0-3.102-.349-3.522-.599.42-.252 1.64-.6 3.522-.6 1.881 0 3.101.349 3.521.6zm-3.521 2.277c-1.882 0-3.102-.349-3.522-.6.101-.06.249-.126.44-.191 1.271.34 2.798.357 3.082.357.283 0 1.81-.017 3.081-.357.191.065.339.131.44.191-.42.252-1.64.6-3.521.6zm3.521 1.077c-.42.252-1.64.6-3.521.6-1.882 0-3.102-.349-3.522-.6.101-.06.249-.126.44-.191 1.271.339 2.798.356 3.082.356.283 0 1.809-.017 3.081-.356.191.065.339.131.44.191zm-7.013-23.498l.277 1.603-10.527.573 10.25-2.176zm1.973 2.755l.167 3.061h-19.6l-.109-1.996 19.541-1.064zm-20.817 1.943l.078-.008.061 1.126h-.139c-.308 0-.559-.251-.559-.559 0-.308.251-.559.559-.559zm-1.375 13.828v-7.355c.253.111.532.172.825.172h11.02c1.981 0 3.592 1.611 3.592 3.591 0 1.981-1.611 3.592-3.592 3.592h-11.845zm18.948 4.502h-16.878c-.691 0-1.253-.562-1.253-1.253v-2.005h11.028c2.667 0 4.836-2.169 4.836-4.836 0-2.666-2.169-4.835-4.836-4.835h-11.028v-3.127c.176.057.364.088.559.088h22.632v11.245l-.296-.004c-.5 0-4.879.052-4.879 1.843 0 .337.156.613.412.838-.256.225-.412.502-.412.839 0 .338.156.613.412.839-.125.111-.225.233-.297.368zm8.285 3.826c-.42.252-1.64.599-3.521.599-1.882 0-3.102-.348-3.522-.599.101-.06.249-.126.44-.192 1.271.34 2.798.357 3.082.357.283 0 1.81-.017 3.081-.357.191.066.339.132.44.192zm0-1.678c-.42.252-1.64.599-3.521.599-1.882 0-3.102-.348-3.522-.599.101-.06.249-.126.44-.192 1.271.34 2.798.357 3.082.357.283 0 1.809-.017 3.081-.357.191.066.339.132.44.192zm-14.883-7.551c.344 0 .622-.278.622-.622v-4.311c0-.343-.278-.622-.622-.622-.343 0-.622.279-.622.622v4.311c0 .344.279.622.622.622" fill="#3A434E" sketch:type="MSShapeGroup"/><path d="M31.832 64.184c0-.337-.156-.613-.412-.839.256-.225.412-.501.412-.838 0-1.18-1.899-1.605-3.339-1.759v-11.947c0-.343-.279-.622-.622-.622h-1.024l-.205-3.749c-.008-.164-.083-.318-.206-.428-.122-.111-.284-.167-.449-.159l-.999.054-.412-2.382c-.029-.166-.124-.314-.264-.409-.14-.095-.313-.129-.477-.094l-18.726 3.976-.015.004-.056.018-.057.022-.05.027-.054.033-.041.033-.047.043-.034.04-.038.051-.027.047-.026.056-.019.052-.015.063-.008.054-.003.068-.002.032.01.189-.01-.001c-.994 0-1.803.809-1.803 1.803l.001.035-.001.021v3.373l-.194-.034c-.343 0-.621.279-.621.622v9.874c0 .343.278.622.621.622h.194v2.005c0 1.376 1.121 2.497 2.497 2.497h17.106l.069.066c-.256.225-.412.502-.412.839 0 .338.156.613.412.839-.256.225-.412.502-.412.839 0 1.791 4.379 1.843 4.879 1.843.499 0 4.878-.052 4.878-1.843 0-.337-.156-.613-.412-.839.256-.225.412-.501.412-.839 0-.337-.156-.613-.412-.839.256-.225.412-.501.412-.839 0-.337-.156-.613-.412-.839.256-.225.412-.501.412-.839zm-1.357-1.677c-.42.251-1.64.599-3.521.599-1.882 0-3.102-.349-3.522-.599.42-.252 1.64-.6 3.522-.6 1.881 0 3.101.349 3.521.6zm-3.521 2.277c-1.882 0-3.102-.349-3.522-.6.101-.06.249-.126.44-.191 1.271.34 2.798.357 3.082.357.283 0 1.81-.017 3.081-.357.191.065.339.131.44.191-.42.252-1.64.6-3.521.6zm3.521 1.077c-.42.252-1.64.6-3.521.6-1.882 0-3.102-.349-3.522-.6.101-.06.249-.126.44-.191 1.271.339 2.798.356 3.082.356.283 0 1.809-.017 3.081-.356.191.065.339.131.44.191zm-7.013-23.498l.277 1.603-10.527.573 10.25-2.176zm1.973 2.755l.167 3.061h-19.6l-.109-1.996 19.541-1.064zm-20.817 1.943l.078-.008.061 1.126h-.139c-.308 0-.559-.251-.559-.559 0-.308.251-.559.559-.559zm-1.375 13.828v-7.355c.253.111.532.172.825.172h11.02c1.981 0 3.592 1.611 3.592 3.591 0 1.981-1.611 3.592-3.592 3.592h-11.845zm18.948 4.502h-16.878c-.691 0-1.253-.562-1.253-1.253v-2.005h11.028c2.667 0 4.836-2.169 4.836-4.836 0-2.666-2.169-4.835-4.836-4.835h-11.028v-3.127c.176.057.364.088.559.088h22.632v11.245l-.296-.004c-.5 0-4.879.052-4.879 1.843 0 .337.156.613.412.838-.256.225-.412.502-.412.839 0 .338.156.613.412.839-.125.111-.225.233-.297.368zm8.285 3.826c-.42.252-1.64.599-3.521.599-1.882 0-3.102-.348-3.522-.599.101-.06.249-.126.44-.192 1.271.34 2.798.357 3.082.357.283 0 1.81-.017 3.081-.357.191.066.339.132.44.192zm0-1.678c-.42.252-1.64.599-3.521.599-1.882 0-3.102-.348-3.522-.599.101-.06.249-.126.44-.192 1.271.34 2.798.357 3.082.357.283 0 1.809-.017 3.081-.357.191.066.339.132.44.192zm-14.883-7.551c.344 0 .622-.278.622-.622v-4.311c0-.343-.278-.622-.622-.622-.343 0-.622.279-.622.622v4.311c0 .344.279.622.622.622" fill="#67737B" sketch:type="MSShapeGroup"/><path d="M31.832 144.184c0-.337-.156-.613-.412-.839.256-.225.412-.501.412-.838 0-1.18-1.899-1.605-3.339-1.759v-11.947c0-.343-.279-.622-.622-.622h-1.024l-.205-3.749c-.008-.164-.083-.318-.206-.428-.122-.111-.284-.167-.449-.159l-.999.054-.412-2.382c-.029-.166-.124-.314-.264-.409-.14-.095-.313-.129-.477-.094l-18.726 3.976-.015.004-.056.018-.057.022-.05.027-.054.033-.041.033-.047.043-.034.04-.038.051-.027.047-.026.056-.019.052-.015.063-.008.054-.003.068-.002.032.01.189-.01-.001c-.994 0-1.803.809-1.803 1.803l.001.035-.001.021v3.373l-.194-.034c-.343 0-.621.279-.621.622v9.874c0 .343.278.622.621.622h.194v2.005c0 1.376 1.121 2.497 2.497 2.497h17.106l.069.066c-.256.225-.412.502-.412.839 0 .338.156.613.412.839-.256.225-.412.502-.412.839 0 1.791 4.379 1.843 4.879 1.843.499 0 4.878-.052 4.878-1.843 0-.337-.156-.613-.412-.839.256-.225.412-.501.412-.839 0-.337-.156-.613-.412-.839.256-.225.412-.501.412-.839 0-.337-.156-.613-.412-.839.256-.225.412-.501.412-.839zm-1.357-1.677c-.42.251-1.64.599-3.521.599-1.882 0-3.102-.349-3.522-.599.42-.252 1.64-.6 3.522-.6 1.881 0 3.101.349 3.521.6zm-3.521 2.277c-1.882 0-3.102-.349-3.522-.6.101-.06.249-.126.44-.191 1.271.34 2.798.357 3.082.357.283 0 1.81-.017 3.081-.357.191.065.339.131.44.191-.42.252-1.64.6-3.521.6zm3.521 1.077c-.42.252-1.64.6-3.521.6-1.882 0-3.102-.349-3.522-.6.101-.06.249-.126.44-.191 1.271.339 2.798.356 3.082.356.283 0 1.809-.017 3.081-.356.191.065.339.131.44.191zm-7.013-23.498l.277 1.603-10.527.573 10.25-2.176zm1.973 2.755l.167 3.061h-19.6l-.109-1.996 19.541-1.064zm-20.817 1.943l.078-.008.061 1.126h-.139c-.308 0-.559-.251-.559-.559 0-.308.251-.559.559-.559zm-1.375 13.828v-7.355c.253.111.532.172.825.172h11.02c1.981 0 3.592 1.611 3.592 3.591 0 1.981-1.611 3.592-3.592 3.592h-11.845zm18.948 4.502h-16.878c-.691 0-1.253-.562-1.253-1.253v-2.005h11.028c2.667 0 4.836-2.169 4.836-4.836 0-2.666-2.169-4.835-4.836-4.835h-11.028v-3.127c.176.057.364.088.559.088h22.632v11.245l-.296-.004c-.5 0-4.879.052-4.879 1.843 0 .337.156.613.412.838-.256.225-.412.502-.412.839 0 .338.156.613.412.839-.125.111-.225.233-.297.368zm8.285 3.826c-.42.252-1.64.599-3.521.599-1.882 0-3.102-.348-3.522-.599.101-.06.249-.126.44-.192 1.271.34 2.798.357 3.082.357.283 0 1.81-.017 3.081-.357.191.066.339.132.44.192zm0-1.678c-.42.252-1.64.599-3.521.599-1.882 0-3.102-.348-3.522-.599.101-.06.249-.126.44-.192 1.271.34 2.798.357 3.082.357.283 0 1.809-.017 3.081-.357.191.066.339.132.44.192zm-14.883-7.551c.344 0 .622-.278.622-.622v-4.311c0-.343-.278-.622-.622-.622-.343 0-.622.279-.622.622v4.311c0 .344.279.622.622.622" fill="#206FAC" sketch:type="MSShapeGroup"/><path d="M31.832 104.184c0-.337-.156-.613-.412-.839.256-.225.412-.501.412-.838 0-1.18-1.899-1.605-3.339-1.759v-11.947c0-.343-.279-.622-.622-.622h-1.024l-.205-3.749c-.008-.164-.083-.318-.206-.428-.122-.111-.284-.167-.449-.159l-.999.054-.412-2.382c-.029-.166-.124-.314-.264-.409-.14-.095-.313-.129-.477-.094l-18.726 3.976-.015.004-.056.018-.057.022-.05.027-.054.033-.041.033-.047.043-.034.04-.038.051-.027.047-.026.056-.019.052-.015.063-.008.054-.003.068-.002.032.01.189-.01-.001c-.994 0-1.803.809-1.803 1.803l.001.035-.001.021v3.373l-.194-.034c-.343 0-.621.279-.621.622v9.874c0 .343.278.622.621.622h.194v2.005c0 1.376 1.121 2.497 2.497 2.497h17.106l.069.066c-.256.225-.412.502-.412.839 0 .338.156.613.412.839-.256.225-.412.502-.412.839 0 1.791 4.379 1.843 4.879 1.843.499 0 4.878-.052 4.878-1.843 0-.337-.156-.613-.412-.839.256-.225.412-.501.412-.839 0-.337-.156-.613-.412-.839.256-.225.412-.501.412-.839 0-.337-.156-.613-.412-.839.256-.225.412-.501.412-.839zm-1.357-1.677c-.42.251-1.64.599-3.521.599-1.882 0-3.102-.349-3.522-.599.42-.252 1.64-.6 3.522-.6 1.881 0 3.101.349 3.521.6zm-3.521 2.277c-1.882 0-3.102-.349-3.522-.6.101-.06.249-.126.44-.191 1.271.34 2.798.357 3.082.357.283 0 1.81-.017 3.081-.357.191.065.339.131.44.191-.42.252-1.64.6-3.521.6zm3.521 1.077c-.42.252-1.64.6-3.521.6-1.882 0-3.102-.349-3.522-.6.101-.06.249-.126.44-.191 1.271.339 2.798.356 3.082.356.283 0 1.809-.017 3.081-.356.191.065.339.131.44.191zm-7.013-23.498l.277 1.603-10.527.573 10.25-2.176zm1.973 2.755l.167 3.061h-19.6l-.109-1.996 19.541-1.064zm-20.817 1.943l.078-.008.061 1.126h-.139c-.308 0-.559-.251-.559-.559 0-.308.251-.559.559-.559zm-1.375 13.828v-7.355c.253.111.532.172.825.172h11.02c1.981 0 3.592 1.611 3.592 3.591 0 1.981-1.611 3.592-3.592 3.592h-11.845zm18.948 4.502h-16.878c-.691 0-1.253-.562-1.253-1.253v-2.005h11.028c2.667 0 4.836-2.169 4.836-4.836 0-2.666-2.169-4.835-4.836-4.835h-11.028v-3.127c.176.057.364.088.559.088h22.632v11.245l-.296-.004c-.5 0-4.879.052-4.879 1.843 0 .337.156.613.412.838-.256.225-.412.502-.412.839 0 .338.156.613.412.839-.125.111-.225.233-.297.368zm8.285 3.826c-.42.252-1.64.599-3.521.599-1.882 0-3.102-.348-3.522-.599.101-.06.249-.126.44-.192 1.271.34 2.798.357 3.082.357.283 0 1.81-.017 3.081-.357.191.066.339.132.44.192zm0-1.678c-.42.252-1.64.599-3.521.599-1.882 0-3.102-.348-3.522-.599.101-.06.249-.126.44-.192 1.271.34 2.798.357 3.082.357.283 0 1.809-.017 3.081-.357.191.066.339.132.44.192zm-14.883-7.551c.344 0 .622-.278.622-.622v-4.311c0-.343-.278-.622-.622-.622-.343 0-.622.279-.622.622v4.311c0 .344.279.622.622.622" fill="#fff" sketch:type="MSShapeGroup"/></g></svg>