<svg width="32" height="232" viewBox="0 0 32 232" xmlns="http://www.w3.org/2000/svg"><title>currency</title><desc>Created with Sketch.</desc><g fill="none"><path d="M30.832 24.184c0-.337-.156-.613-.412-.84.256-.224.412-.5.412-.837 0-1.18-1.9-1.605-3.34-1.76V8.802c0-.342-.278-.62-.62-.62h-1.025l-.205-3.75c-.008-.164-.083-.318-.206-.428-.122-.11-.284-.167-.45-.16l-.998.055-.412-2.382c-.03-.166-.124-.314-.264-.41-.14-.094-.313-.128-.477-.093L4.11 4.988l-.016.004-.056.018-.057.022-.05.027-.053.032-.04.033-.048.043-.035.04-.038.05-.027.048-.026.056-.02.052-.014.063-.008.054-.003.07-.003.03.01.19h-.01c-.994 0-1.803.808-1.803 1.802V11.05l-.194-.033c-.343 0-.62.28-.62.622v9.873c0 .343.277.622.62.622h.194v2.005c0 1.376 1.12 2.497 2.497 2.497h17.107l.07.066c-.257.225-.413.502-.413.84 0 .337.156.612.412.838-.256.226-.412.503-.412.84 0 1.79 4.38 1.843 4.88 1.843.498 0 4.877-.052 4.877-1.843 0-.337-.155-.613-.41-.84.255-.224.41-.5.41-.838 0-.337-.155-.613-.41-.84.255-.224.41-.5.41-.838 0-.337-.155-.613-.41-.84.255-.224.41-.5.41-.838zm-1.357-1.677c-.42.25-1.64.6-3.52.6-1.883 0-3.103-.35-3.523-.6.42-.252 1.64-.6 3.522-.6 1.88 0 3.1.35 3.52.6zm-3.52 2.277c-1.883 0-3.103-.35-3.523-.6.1-.06.25-.126.44-.19 1.27.34 2.798.356 3.082.356.283 0 1.81-.017 3.08-.357.192.065.34.13.44.19-.42.253-1.64.6-3.52.6zm3.52 1.077c-.42.253-1.64.6-3.52.6-1.883 0-3.103-.348-3.523-.6.1-.06.25-.125.44-.19 1.27.34 2.798.356 3.082.356.283 0 1.81-.017 3.08-.356.192.065.34.13.44.19zM22.462 2.364l.277 1.603-10.528.573 10.25-2.177zm1.973 2.755l.167 3.06h-19.6l-.11-1.995L24.435 5.12zM3.618 7.06l.078-.007.06 1.126H3.62c-.308 0-.56-.252-.56-.56 0-.308.252-.56.56-.56zM2.243 20.89v-7.356c.253.11.532.172.825.172h11.02c1.98 0 3.592 1.61 3.592 3.59 0 1.982-1.61 3.593-3.592 3.593H2.243zm18.948 4.5H4.314c-.69 0-1.253-.56-1.253-1.252v-2.005h11.028c2.667 0 4.836-2.17 4.836-4.836 0-2.666-2.17-4.835-4.836-4.835H3.06V9.335c.176.057.364.088.56.088h22.63v11.245l-.295-.004c-.5 0-4.88.052-4.88 1.843 0 .337.157.613.413.838-.256.225-.412.502-.412.84 0 .337.156.612.412.838-.125.11-.225.233-.297.368zm8.286 3.827c-.42.252-1.64.6-3.52.6-1.883 0-3.103-.35-3.523-.6.1-.06.25-.126.44-.192 1.27.34 2.798.357 3.082.357.283 0 1.81-.017 3.08-.357.192.066.34.132.44.192zm0-1.678c-.42.25-1.64.598-3.52.598-1.883 0-3.103-.348-3.523-.6.1-.06.25-.125.44-.19 1.27.34 2.798.356 3.082.356.283 0 1.81-.017 3.08-.357.192.066.34.132.44.192zm-14.883-7.552c.344 0 .622-.278.622-.622v-4.31c0-.344-.278-.623-.622-.623-.343 0-.622.28-.622.622v4.31c0 .345.28.623.623.623" fill="#3A434E"/><path d="M31.832 64.184c0-.337-.156-.613-.412-.84.256-.224.412-.5.412-.837 0-1.18-1.9-1.605-3.34-1.76V48.802c0-.342-.278-.62-.62-.62h-1.025l-.205-3.75c-.008-.164-.083-.318-.206-.428-.122-.11-.284-.167-.45-.16l-.998.055-.412-2.382c-.03-.166-.124-.314-.264-.41-.14-.094-.313-.128-.477-.093L5.11 44.988l-.016.004-.056.018-.057.022-.05.027-.053.032-.04.033-.048.043-.035.04-.038.05-.027.048-.026.056-.02.052-.014.063-.008.054-.003.07-.003.03.01.19h-.01c-.994 0-1.803.808-1.803 1.802V51.05l-.194-.033c-.343 0-.62.28-.62.622v9.873c0 .343.277.622.62.622h.194v2.005c0 1.376 1.12 2.497 2.497 2.497h17.107l.07.066c-.257.225-.413.502-.413.84 0 .337.156.612.412.838-.256.226-.412.503-.412.84 0 1.79 4.38 1.843 4.88 1.843.498 0 4.877-.052 4.877-1.843 0-.337-.155-.613-.41-.84.255-.224.41-.5.41-.838 0-.337-.155-.613-.41-.84.255-.224.41-.5.41-.838 0-.337-.155-.613-.41-.84.255-.224.41-.5.41-.838zm-1.357-1.677c-.42.25-1.64.6-3.52.6-1.883 0-3.103-.35-3.523-.6.42-.252 1.64-.6 3.522-.6 1.88 0 3.1.35 3.52.6zm-3.52 2.277c-1.883 0-3.103-.35-3.523-.6.1-.06.25-.126.44-.19 1.27.34 2.798.356 3.082.356.283 0 1.81-.017 3.08-.357.192.065.34.13.44.19-.42.253-1.64.6-3.52.6zm3.52 1.077c-.42.253-1.64.6-3.52.6-1.883 0-3.103-.348-3.523-.6.1-.06.25-.125.44-.19 1.27.34 2.798.356 3.082.356.283 0 1.81-.017 3.08-.356.192.065.34.13.44.19zm-7.013-23.497l.277 1.603-10.528.573 10.25-2.177zm1.973 2.755l.167 3.06h-19.6l-.11-1.995 19.542-1.064zM4.618 47.06l.078-.007.06 1.126H4.62c-.308 0-.56-.252-.56-.56 0-.308.252-.56.56-.56zM3.243 60.89v-7.356c.253.11.532.172.825.172h11.02c1.98 0 3.592 1.61 3.592 3.59 0 1.982-1.61 3.593-3.592 3.593H3.243zm18.948 4.5H5.314c-.69 0-1.253-.56-1.253-1.252v-2.005h11.028c2.667 0 4.836-2.17 4.836-4.836 0-2.666-2.17-4.835-4.836-4.835H4.06v-3.127c.176.057.364.088.56.088h22.63v11.245l-.295-.004c-.5 0-4.88.052-4.88 1.843 0 .337.157.613.413.838-.256.225-.412.502-.412.84 0 .337.156.612.412.838-.125.11-.225.233-.297.368zm8.286 3.827c-.42.252-1.64.6-3.52.6-1.883 0-3.103-.35-3.523-.6.1-.06.25-.126.44-.192 1.27.34 2.798.357 3.082.357.283 0 1.81-.017 3.08-.357.192.066.34.132.44.192zm0-1.678c-.42.25-1.64.598-3.52.598-1.883 0-3.103-.348-3.523-.6.1-.06.25-.125.44-.19 1.27.34 2.798.356 3.082.356.283 0 1.81-.017 3.08-.357.192.066.34.132.44.192zm-14.883-7.552c.344 0 .622-.278.622-.622v-4.31c0-.344-.278-.623-.622-.623-.343 0-.622.28-.622.622v4.31c0 .345.28.623.623.623" fill="#67737B"/><path d="M31.832 144.184c0-.337-.156-.613-.412-.84.256-.224.412-.5.412-.837 0-1.18-1.9-1.605-3.34-1.76v-11.946c0-.342-.278-.62-.62-.62h-1.025l-.205-3.75c-.008-.164-.083-.318-.206-.428-.122-.11-.284-.167-.45-.16l-.998.055-.412-2.382c-.03-.166-.124-.314-.264-.41-.14-.094-.313-.128-.477-.093L5.11 124.988l-.016.004-.056.018-.057.022-.05.027-.053.032-.04.033-.048.043-.035.04-.038.05-.027.048-.026.056-.02.052-.014.063-.008.054-.003.07-.003.03.01.19h-.01c-.994 0-1.803.808-1.803 1.802V131.05l-.194-.033c-.343 0-.62.28-.62.622v9.873c0 .343.277.622.62.622h.194v2.005c0 1.376 1.12 2.497 2.497 2.497h17.107l.07.066c-.257.225-.413.502-.413.84 0 .337.156.612.412.838-.256.226-.412.503-.412.84 0 1.79 4.38 1.843 4.88 1.843.498 0 4.877-.052 4.877-1.843 0-.337-.155-.613-.41-.84.255-.224.41-.5.41-.838 0-.337-.155-.613-.41-.84.255-.224.41-.5.41-.838 0-.337-.155-.613-.41-.84.255-.224.41-.5.41-.838zm-1.357-1.677c-.42.25-1.64.6-3.52.6-1.883 0-3.103-.35-3.523-.6.42-.252 1.64-.6 3.522-.6 1.88 0 3.1.35 3.52.6zm-3.52 2.277c-1.883 0-3.103-.35-3.523-.6.1-.06.25-.126.44-.19 1.27.34 2.798.356 3.082.356.283 0 1.81-.017 3.08-.357.192.065.34.13.44.19-.42.253-1.64.6-3.52.6zm3.52 1.077c-.42.253-1.64.6-3.52.6-1.883 0-3.103-.348-3.523-.6.1-.06.25-.125.44-.19 1.27.34 2.798.356 3.082.356.283 0 1.81-.017 3.08-.356.192.065.34.13.44.19zm-7.013-23.497l.277 1.603-10.528.573 10.25-2.177zm1.973 2.755l.167 3.06h-19.6l-.11-1.995 19.542-1.064zM4.618 127.06l.078-.007.06 1.126H4.62c-.308 0-.56-.252-.56-.56 0-.308.252-.56.56-.56zm-1.375 13.83v-7.356c.253.11.532.172.825.172h11.02c1.98 0 3.592 1.61 3.592 3.59 0 1.982-1.61 3.593-3.592 3.593H3.243zm18.948 4.5H5.314c-.69 0-1.253-.56-1.253-1.252v-2.005h11.028c2.667 0 4.836-2.17 4.836-4.836 0-2.666-2.17-4.835-4.836-4.835H4.06v-3.127c.176.057.364.088.56.088h22.63v11.245l-.295-.004c-.5 0-4.88.052-4.88 1.843 0 .337.157.613.413.838-.256.225-.412.502-.412.84 0 .337.156.612.412.838-.125.11-.225.233-.297.368zm8.286 3.827c-.42.252-1.64.6-3.52.6-1.883 0-3.103-.35-3.523-.6.1-.06.25-.126.44-.192 1.27.34 2.798.357 3.082.357.283 0 1.81-.017 3.08-.357.192.066.34.132.44.192zm0-1.678c-.42.25-1.64.598-3.52.598-1.883 0-3.103-.348-3.523-.6.1-.06.25-.125.44-.19 1.27.34 2.798.356 3.082.356.283 0 1.81-.017 3.08-.357.192.066.34.132.44.192zm-14.883-7.552c.344 0 .622-.278.622-.622v-4.31c0-.344-.278-.623-.622-.623-.343 0-.622.28-.622.622v4.31c0 .345.28.623.623.623" fill="#206FAC"/><path d="M31.832 104.184c0-.337-.156-.613-.412-.84.256-.224.412-.5.412-.837 0-1.18-1.9-1.605-3.34-1.76V88.802c0-.342-.278-.62-.62-.62h-1.025l-.205-3.75c-.008-.164-.083-.318-.206-.428-.122-.11-.284-.167-.45-.16l-.998.055-.412-2.382c-.03-.166-.124-.314-.264-.41-.14-.094-.313-.128-.477-.093L5.11 84.988l-.016.004-.056.018-.057.022-.05.027-.053.032-.04.033-.048.043-.035.04-.038.05-.027.048-.026.056-.02.052-.014.063-.008.054-.003.07-.003.03.01.19h-.01c-.994 0-1.803.808-1.803 1.802V91.05l-.194-.033c-.343 0-.62.28-.62.622v9.873c0 .343.277.622.62.622h.194v2.005c0 1.376 1.12 2.497 2.497 2.497h17.107l.07.066c-.257.225-.413.502-.413.84 0 .337.156.612.412.838-.256.226-.412.503-.412.84 0 1.79 4.38 1.843 4.88 1.843.498 0 4.877-.052 4.877-1.843 0-.337-.155-.613-.41-.84.255-.224.41-.5.41-.838 0-.337-.155-.613-.41-.84.255-.224.41-.5.41-.838 0-.337-.155-.613-.41-.84.255-.224.41-.5.41-.838zm-1.357-1.677c-.42.25-1.64.6-3.52.6-1.883 0-3.103-.35-3.523-.6.42-.252 1.64-.6 3.522-.6 1.88 0 3.1.35 3.52.6zm-3.52 2.277c-1.883 0-3.103-.35-3.523-.6.1-.06.25-.126.44-.19 1.27.34 2.798.356 3.082.356.283 0 1.81-.017 3.08-.357.192.065.34.13.44.19-.42.253-1.64.6-3.52.6zm3.52 1.077c-.42.253-1.64.6-3.52.6-1.883 0-3.103-.348-3.523-.6.1-.06.25-.125.44-.19 1.27.34 2.798.356 3.082.356.283 0 1.81-.017 3.08-.356.192.065.34.13.44.19zm-7.013-23.497l.277 1.603-10.528.573 10.25-2.177zm1.973 2.755l.167 3.06h-19.6l-.11-1.995 19.542-1.064zM4.618 87.06l.078-.007.06 1.126H4.62c-.308 0-.56-.252-.56-.56 0-.308.252-.56.56-.56zm-1.375 13.83v-7.356c.253.11.532.172.825.172h11.02c1.98 0 3.592 1.61 3.592 3.59 0 1.982-1.61 3.593-3.592 3.593H3.243zm18.948 4.5H5.314c-.69 0-1.253-.56-1.253-1.252v-2.005h11.028c2.667 0 4.836-2.17 4.836-4.836 0-2.666-2.17-4.835-4.836-4.835H4.06v-3.127c.176.057.364.088.56.088h22.63v11.245l-.295-.004c-.5 0-4.88.052-4.88 1.843 0 .337.157.613.413.838-.256.225-.412.502-.412.84 0 .337.156.612.412.838-.125.11-.225.233-.297.368zm8.286 3.827c-.42.252-1.64.6-3.52.6-1.883 0-3.103-.35-3.523-.6.1-.06.25-.126.44-.192 1.27.34 2.798.357 3.082.357.283 0 1.81-.017 3.08-.357.192.066.34.132.44.192zm0-1.678c-.42.25-1.64.598-3.52.598-1.883 0-3.103-.348-3.523-.6.1-.06.25-.125.44-.19 1.27.34 2.798.356 3.082.356.283 0 1.81-.017 3.08-.357.192.066.34.132.44.192zm-14.883-7.552c.344 0 .622-.278.622-.622v-4.31c0-.344-.278-.623-.622-.623-.343 0-.622.28-.622.622v4.31c0 .345.28.623.623.623" fill="#fff"/></g></svg>