<svg width="32" height="232" viewBox="0 0 32 232" xmlns="http://www.w3.org/2000/svg" xmlns:sketch="http://www.bohemiancoding.com/sketch/ns"><title>driving</title><desc>Created with Sketch.</desc><g sketch:type="MSPage" fill="none"><path d="M28.266 17.677c-.109-.13-.269-.206-.439-.207l-4.229-.03.88-3.377 3.164-1.012c.302-.097.469-.419.375-.721-.768-2.47-2.338-4.686-4.42-6.242-2.152-1.609-4.715-2.46-7.411-2.46h-.024c-2.695 0-5.258.851-7.411 2.46-2.082 1.556-3.65 3.773-4.419 6.242-.094.303.072.624.375.721l3.138 1.004.882 3.385-4.207.03c-.169.001-.33.077-.439.207-.109.131-.155.302-.126.469.901 5.198 5.005 9.257 10.213 10.1.181.029.365-.029.496-.158.131-.128.194-.31.169-.491l-.71-5.134-.191-1.499h4.484l-.19 1.497-.71 5.136c-.024.181.038.363.169.491.109.107.254.165.403.165l.092-.007c5.207-.843 9.312-4.902 10.213-10.1.029-.167-.017-.338-.126-.469zm-16.816 2.132c-.564 0-.982-.276-1.016-.398l-1.514-5.812c.063-.053.251-.145.574-.145h13.338c.323 0 .512.092.575.145l-1.514 5.812c-.034.121-.453.398-1.016.398h-9.426zm-2.007-12.796c1.952-1.46 4.276-2.231 6.72-2.231h.024c2.445 0 4.769.771 6.721 2.231 1.734 1.296 3.076 3.098 3.823 5.118l-2.404.769c-.302-.381-.845-.6-1.494-.6h-13.338c-.645 0-1.185.217-1.489.594l-2.385-.763c.747-2.02 2.089-3.822 3.823-5.118zm3.536 15.602l.551 4.326c-4.105-.983-7.324-4.204-8.299-8.321l3.796-.026.289 1.109c.188.72 1.105 1.261 2.133 1.261h1.3l.228 1.651zm3.184-21.098c-7.995 0-14.5 6.504-14.5 14.5 0 7.995 6.505 14.5 14.5 14.5 7.996 0 14.5-6.505 14.5-14.5 0-7.996-6.504-14.5-14.5-14.5zm2.656 25.424l.552-4.327.227-1.649h1.278c1.029 0 1.946-.543 2.133-1.261l.289-1.109 3.819.026c-.974 4.117-4.192 7.338-8.299 8.321zm-2.656 2.422c-7.359 0-13.345-5.988-13.345-13.345 0-7.359 5.987-13.345 13.345-13.345 7.359 0 13.346 5.987 13.346 13.345 0 7.358-5.988 13.345-13.346 13.345zm-.063-15.007c-.441 0-.868.059-1.269.176-.305.089-.481.41-.392.716.09.305.41.482.716.392.295-.086.614-.13.945-.13 1.166 0 2.037.555 2.037 1.05 0 .497-.871 1.05-2.037 1.05-1.165 0-2.036-.554-2.036-1.05 0-.318-.258-.576-.577-.576-.319 0-.577.258-.577.576 0 1.237 1.402 2.205 3.191 2.205 1.79 0 3.192-.968 3.192-2.205 0-1.236-1.402-2.204-3.192-2.204z" fill="#3A434E" sketch:type="MSShapeGroup"/><path d="M28.266 57.677c-.109-.13-.269-.206-.439-.207l-4.229-.03.88-3.377 3.164-1.012c.302-.097.469-.419.375-.721-.768-2.47-2.338-4.686-4.42-6.242-2.152-1.609-4.715-2.46-7.411-2.46h-.024c-2.695 0-5.258.851-7.411 2.46-2.082 1.556-3.65 3.773-4.419 6.242-.094.303.072.624.375.721l3.138 1.004.882 3.385-4.207.03c-.169.001-.33.077-.439.207-.109.13-.155.302-.126.469.901 5.198 5.005 9.257 10.213 10.1.181.029.365-.029.496-.158.131-.128.194-.31.169-.491l-.71-5.134-.191-1.499h4.484l-.19 1.497-.71 5.136c-.024.181.038.363.169.491.109.107.254.165.403.165l.092-.007c5.207-.843 9.312-4.902 10.213-10.1.029-.167-.017-.338-.126-.469zm-16.816 2.132c-.564 0-.982-.276-1.016-.398l-1.514-5.812c.063-.053.251-.145.574-.145h13.338c.323 0 .512.092.575.145l-1.514 5.812c-.034.121-.453.398-1.016.398h-9.426zm-2.007-12.796c1.952-1.46 4.276-2.231 6.72-2.231h.024c2.445 0 4.769.771 6.721 2.231 1.734 1.296 3.076 3.098 3.823 5.118l-2.404.769c-.302-.381-.845-.6-1.494-.6h-13.338c-.645 0-1.185.217-1.489.594l-2.385-.763c.747-2.02 2.089-3.822 3.823-5.118zm3.536 15.602l.551 4.326c-4.105-.983-7.324-4.204-8.299-8.321l3.796-.026.289 1.109c.188.72 1.105 1.262 2.133 1.262h1.3l.228 1.651zm3.184-21.098c-7.995 0-14.5 6.504-14.5 14.5 0 7.995 6.505 14.5 14.5 14.5 7.996 0 14.5-6.505 14.5-14.5 0-7.996-6.504-14.5-14.5-14.5zm2.656 25.424l.552-4.327.227-1.649h1.278c1.029 0 1.946-.543 2.133-1.262l.289-1.109 3.819.026c-.974 4.117-4.192 7.338-8.299 8.321zm-2.656 2.421c-7.359 0-13.345-5.988-13.345-13.345 0-7.359 5.987-13.345 13.345-13.345 7.359 0 13.346 5.987 13.346 13.345 0 7.358-5.988 13.345-13.346 13.345zm-.063-15.007c-.441 0-.868.059-1.269.176-.305.089-.481.41-.392.716.09.305.41.482.716.392.295-.086.614-.13.945-.13 1.166 0 2.037.555 2.037 1.05 0 .497-.871 1.05-2.037 1.05-1.165 0-2.036-.554-2.036-1.05 0-.318-.258-.576-.577-.576-.319 0-.577.258-.577.576 0 1.237 1.402 2.205 3.191 2.205 1.79 0 3.192-.968 3.192-2.205 0-1.236-1.402-2.204-3.192-2.204z" fill="#67737B" sketch:type="MSShapeGroup"/><path d="M28.266 97.677c-.109-.13-.269-.206-.439-.207l-4.229-.03.88-3.377 3.164-1.012c.302-.097.469-.419.375-.721-.768-2.47-2.338-4.686-4.42-6.242-2.152-1.609-4.715-2.46-7.411-2.46h-.024c-2.695 0-5.258.851-7.411 2.46-2.082 1.556-3.65 3.773-4.419 6.242-.094.303.072.624.375.721l3.138 1.004.882 3.385-4.207.03c-.169.001-.33.077-.439.207-.109.13-.155.302-.126.469.901 5.198 5.005 9.257 10.213 10.1.181.029.365-.029.496-.158.131-.128.194-.31.169-.491l-.71-5.134-.191-1.499h4.484l-.19 1.497-.71 5.136c-.024.181.038.363.169.491.109.107.254.165.403.165l.092-.007c5.207-.843 9.312-4.902 10.213-10.1.029-.167-.017-.338-.126-.469zm-16.816 2.132c-.564 0-.982-.276-1.016-.398l-1.514-5.812c.063-.053.251-.145.574-.145h13.338c.323 0 .512.092.575.145l-1.514 5.812c-.034.121-.453.398-1.016.398h-9.426zm-2.007-12.796c1.952-1.46 4.276-2.231 6.72-2.231h.024c2.445 0 4.769.771 6.721 2.231 1.734 1.296 3.076 3.098 3.823 5.118l-2.404.769c-.302-.381-.845-.6-1.494-.6h-13.338c-.645 0-1.185.217-1.489.594l-2.385-.763c.747-2.02 2.089-3.822 3.823-5.118zm3.536 15.602l.551 4.326c-4.105-.983-7.324-4.204-8.299-8.321l3.796-.026.289 1.109c.188.72 1.105 1.262 2.133 1.262h1.3l.228 1.651zm3.184-21.098c-7.995 0-14.5 6.504-14.5 14.5 0 7.995 6.505 14.5 14.5 14.5 7.996 0 14.5-6.505 14.5-14.5 0-7.996-6.504-14.5-14.5-14.5zm2.656 25.424l.552-4.327.227-1.649h1.278c1.029 0 1.946-.543 2.133-1.262l.289-1.109 3.819.026c-.974 4.117-4.192 7.338-8.299 8.321zm-2.656 2.421c-7.359 0-13.345-5.988-13.345-13.345 0-7.359 5.987-13.345 13.345-13.345 7.359 0 13.346 5.987 13.346 13.345 0 7.358-5.988 13.345-13.346 13.345zm-.063-15.007c-.441 0-.868.059-1.269.176-.305.089-.481.41-.392.716.09.305.41.482.716.392.295-.086.614-.131.945-.131 1.166 0 2.037.555 2.037 1.05 0 .497-.871 1.05-2.037 1.05-1.165 0-2.036-.554-2.036-1.05 0-.318-.258-.576-.577-.576-.319 0-.577.258-.577.576 0 1.237 1.402 2.205 3.191 2.205 1.79 0 3.192-.968 3.192-2.205 0-1.236-1.402-2.204-3.192-2.204z" fill="#fff" sketch:type="MSShapeGroup"/><path d="M28.266 137.677c-.109-.13-.269-.206-.439-.207l-4.229-.03.88-3.377 3.164-1.012c.302-.097.469-.419.375-.721-.768-2.47-2.338-4.686-4.42-6.242-2.152-1.61-4.715-2.46-7.411-2.46h-.024c-2.695 0-5.258.851-7.411 2.46-2.082 1.556-3.65 3.773-4.419 6.242-.094.303.072.624.375.721l3.138 1.004.882 3.385-4.207.03c-.169.001-.33.077-.439.207-.109.131-.155.302-.126.469.901 5.198 5.005 9.257 10.213 10.1.181.029.365-.029.496-.158.131-.128.194-.31.169-.491l-.71-5.134-.191-1.499h4.484l-.19 1.497-.71 5.136c-.024.181.038.363.169.491.109.107.254.165.403.165l.092-.007c5.207-.843 9.312-4.902 10.213-10.1.029-.167-.017-.338-.126-.469zm-16.816 2.132c-.564 0-.982-.276-1.016-.398l-1.514-5.812c.063-.053.251-.145.574-.145h13.338c.323 0 .512.092.575.145l-1.514 5.812c-.034.121-.453.398-1.016.398h-9.426zm-2.007-12.796c1.952-1.46 4.276-2.231 6.72-2.231h.024c2.445 0 4.769.771 6.721 2.231 1.734 1.296 3.076 3.098 3.823 5.118l-2.404.769c-.302-.381-.845-.6-1.494-.6h-13.338c-.645 0-1.185.217-1.489.594l-2.385-.763c.747-2.02 2.089-3.822 3.823-5.118zm3.536 15.602l.551 4.326c-4.105-.983-7.324-4.204-8.299-8.321l3.796-.026.289 1.109c.188.72 1.105 1.262 2.133 1.262h1.3l.228 1.651zm3.184-21.098c-7.995 0-14.5 6.504-14.5 14.5 0 7.995 6.505 14.5 14.5 14.5 7.996 0 14.5-6.505 14.5-14.5 0-7.996-6.504-14.5-14.5-14.5zm2.656 25.424l.552-4.327.227-1.649h1.278c1.029 0 1.946-.543 2.133-1.262l.289-1.109 3.819.026c-.974 4.117-4.192 7.338-8.299 8.321zm-2.656 2.421c-7.359 0-13.345-5.988-13.345-13.345 0-7.359 5.987-13.345 13.345-13.345 7.359 0 13.346 5.987 13.346 13.345 0 7.358-5.988 13.345-13.346 13.345zm-.063-15.007c-.441 0-.868.059-1.269.176-.305.089-.481.41-.392.716.09.305.41.482.716.392.295-.086.614-.131.945-.131 1.166 0 2.037.555 2.037 1.05 0 .497-.871 1.05-2.037 1.05-1.165 0-2.036-.554-2.036-1.05 0-.318-.258-.576-.577-.576-.319 0-.577.258-.577.576 0 1.237 1.402 2.205 3.191 2.205 1.79 0 3.192-.968 3.192-2.205 0-1.236-1.402-2.204-3.192-2.204z" fill="#206FAC" sketch:type="MSShapeGroup"/></g></svg>