<svg width="32" height="232" viewBox="0 0 32 232" xmlns="http://www.w3.org/2000/svg"><desc>Created with Sketch.</desc><g fill="none"><path d="M28.266 17.677c-.11-.13-.27-.206-.44-.207l-4.228-.03.88-3.377 3.164-1.012c.302-.093.47-.415.375-.72-.768-2.47-2.338-4.683-4.42-6.24-2.152-1.61-4.715-2.46-7.41-2.46h-.025c-2.695 0-5.258.85-7.41 2.46C6.668 7.645 5.1 9.86 4.33 12.33c-.094.303.072.624.375.72l3.138 1.005.882 3.385-4.207.03c-.17 0-.33.077-.44.207-.108.13-.154.302-.125.47.9 5.197 5.005 9.256 10.213 10.1.18.028.365-.03.496-.16.13-.127.194-.31.17-.49l-.71-5.134-.192-1.5h4.484l-.19 1.498-.71 5.14c-.024.18.038.363.17.49.108.108.253.166.402.166l.092-.007c5.207-.844 9.312-4.903 10.213-10.1.03-.168-.014-.34-.123-.47zM11.45 19.81c-.564 0-.982-.277-1.016-.4L8.92 13.6c.063-.054.25-.146.574-.146h13.338c.323 0 .512.092.575.145l-1.514 5.81c-.034.12-.453.4-1.016.4H11.45zM9.443 7.012c1.952-1.46 4.276-2.23 6.72-2.23h.024c2.445 0 4.77.77 6.72 2.23 1.735 1.296 3.077 3.098 3.824 5.118l-2.4.77c-.302-.38-.845-.6-1.494-.6H9.496c-.646 0-1.186.217-1.49.594L5.62 12.13c.75-2.02 2.09-3.82 3.826-5.115zm3.536 15.602l.55 4.326c-4.108-.982-7.327-4.203-8.3-8.32l3.794-.026.29 1.11c.187.72 1.104 1.26 2.132 1.26h1.3l.227 1.65zm3.18-21.098c-7.996 0-14.5 6.504-14.5 14.5 0 7.995 6.504 14.5 14.5 14.5 7.995 0 14.5-6.505 14.5-14.5 0-7.996-6.505-14.5-14.5-14.5zm2.66 25.424l.55-4.326.227-1.65h1.278c1.03 0 1.946-.542 2.133-1.26l.286-1.11 3.82.027c-.975 4.12-4.193 7.34-8.3 8.325zm-2.658 2.423c-7.36 0-13.345-5.988-13.345-13.345 0-7.36 5.987-13.345 13.345-13.345 7.36 0 13.346 5.987 13.346 13.345 0 7.358-5.99 13.345-13.35 13.345zM16.1 14.356c-.44 0-.868.06-1.27.176-.304.09-.48.41-.39.716.09.305.41.482.715.392.295-.086.614-.13.945-.13 1.166 0 2.037.555 2.037 1.05 0 .497-.87 1.05-2.037 1.05-1.165 0-2.036-.554-2.036-1.05 0-.318-.258-.576-.577-.576-.32 0-.577.258-.577.576 0 1.237 1.402 2.205 3.19 2.205 1.79 0 3.193-.968 3.193-2.205 0-1.236-1.402-2.204-3.192-2.204z" fill="#3A434E"/><path d="M28.266 57.677c-.11-.13-.27-.206-.44-.207l-4.228-.03.88-3.377 3.164-1.012c.302-.093.47-.415.375-.72-.768-2.47-2.338-4.683-4.42-6.24-2.152-1.61-4.715-2.46-7.41-2.46h-.025c-2.695 0-5.258.85-7.41 2.46-2.083 1.557-3.65 3.774-4.42 6.24-.094.306.072.627.375.72l3.138 1.008.882 3.385-4.207.03c-.17 0-.33.078-.44.208-.108.13-.154.303-.125.47.9 5.198 5.005 9.257 10.213 10.1.18.03.365-.03.496-.16.13-.126.194-.31.17-.49l-.71-5.133-.192-1.5h4.484l-.19 1.498-.71 5.137c-.024.18.038.363.17.49.108.108.253.166.402.166l.092-.007c5.207-.843 9.312-4.902 10.213-10.1.03-.167-.017-.34-.126-.47zM11.45 59.81c-.564 0-.982-.277-1.016-.4L8.92 53.6c.063-.054.25-.146.574-.146h13.338c.323 0 .512.092.575.145l-1.514 5.81c-.034.12-.453.4-1.016.4H11.45zM9.443 47.012c1.952-1.46 4.276-2.23 6.72-2.23h.024c2.445 0 4.77.77 6.72 2.23 1.735 1.296 3.077 3.098 3.824 5.118l-2.4.77c-.302-.38-.845-.6-1.494-.6H9.496c-.646 0-1.186.217-1.49.594L5.62 52.13c.75-2.02 2.09-3.82 3.826-5.115zm3.536 15.602l.55 4.326c-4.108-.982-7.327-4.203-8.3-8.32l3.794-.026.29 1.11c.187.72 1.104 1.26 2.132 1.26h1.3l.227 1.652zm3.18-21.098c-7.995 0-14.5 6.504-14.5 14.5 0 7.995 6.505 14.5 14.5 14.5 7.996 0 14.5-6.505 14.5-14.5 0-7.996-6.504-14.5-14.5-14.5zm2.66 25.424l.55-4.326.227-1.65h1.278c1.03 0 1.946-.542 2.133-1.26l.286-1.11 3.82.026c-.975 4.117-4.193 7.338-8.3 8.32zm-2.658 2.422c-7.36 0-13.345-5.988-13.345-13.345 0-7.36 5.987-13.345 13.345-13.345 7.36 0 13.346 5.987 13.346 13.345 0 7.358-5.99 13.345-13.35 13.345zM16.1 54.355c-.44 0-.868.06-1.27.176-.304.09-.48.41-.39.72.09.305.41.48.715.39.295-.085.614-.13.945-.13 1.166 0 2.037.556 2.037 1.05s-.87 1.05-2.037 1.05c-1.165 0-2.036-.553-2.036-1.05 0-.32-.258-.575-.577-.575-.32 0-.577.258-.577.576 0 1.236 1.402 2.204 3.19 2.204 1.79 0 3.193-.968 3.193-2.205s-1.402-2.206-3.192-2.206z" fill="#67737B"/><path d="M28.266 97.677c-.11-.13-.27-.206-.44-.207l-4.228-.03.88-3.377 3.164-1.012c.302-.093.47-.415.375-.72-.768-2.47-2.338-4.683-4.42-6.24-2.152-1.61-4.715-2.46-7.41-2.46h-.025c-2.695 0-5.258.85-7.41 2.46-2.083 1.557-3.65 3.774-4.42 6.24-.094.306.072.627.375.72l3.138 1.008.882 3.385-4.207.03c-.17 0-.33.078-.44.208-.108.13-.154.303-.125.47.9 5.198 5.005 9.257 10.213 10.1.18.03.365-.03.496-.16.13-.126.194-.31.17-.49l-.71-5.133-.192-1.5h4.484l-.19 1.498-.71 5.137c-.024.18.038.363.17.49.108.108.253.166.402.166l.092-.007c5.207-.843 9.312-4.902 10.213-10.1.03-.167-.017-.34-.126-.47zM11.45 99.81c-.564 0-.982-.277-1.016-.4L8.92 93.6c.063-.054.25-.146.574-.146h13.338c.323 0 .512.092.575.145l-1.514 5.81c-.034.12-.453.4-1.016.4H11.45zM9.443 87.012c1.952-1.46 4.276-2.23 6.72-2.23h.024c2.445 0 4.77.77 6.72 2.23 1.735 1.296 3.077 3.098 3.824 5.118l-2.4.77c-.302-.38-.845-.6-1.494-.6H9.496c-.646 0-1.186.217-1.49.594L5.62 92.13c.75-2.02 2.09-3.82 3.826-5.115zm3.536 15.602l.55 4.326c-4.108-.982-7.327-4.203-8.3-8.32l3.794-.026.29 1.11c.187.72 1.104 1.26 2.132 1.26h1.3l.227 1.652zm3.18-21.098c-7.995 0-14.5 6.504-14.5 14.5 0 7.995 6.505 14.5 14.5 14.5 7.996 0 14.5-6.505 14.5-14.5 0-7.996-6.504-14.5-14.5-14.5zm2.656 25.424l.55-4.326.228-1.65h1.278c1.03 0 1.946-.542 2.133-1.26l.288-1.11 3.82.026c-.975 4.117-4.193 7.338-8.3 8.32zm-2.657 2.422c-7.36 0-13.345-5.988-13.345-13.345 0-7.36 5.987-13.345 13.345-13.345 7.36 0 13.348 5.987 13.348 13.345 0 7.358-5.99 13.345-13.347 13.345zm-.06-15.007c-.44 0-.87.06-1.27.176-.305.09-.48.41-.39.72.09.305.41.48.714.39.295-.085.614-.13.945-.13 1.165 0 2.036.555 2.036 1.05s-.87 1.05-2.037 1.05c-1.166 0-2.037-.554-2.037-1.05 0-.32-.258-.576-.577-.576-.32 0-.577.258-.577.576 0 1.236 1.4 2.204 3.19 2.204s3.192-.968 3.192-2.205-1.402-2.206-3.192-2.206z" fill="#fff"/><path d="M28.266 137.677c-.11-.13-.27-.206-.44-.207l-4.228-.03.88-3.377 3.164-1.012c.302-.093.47-.415.375-.72-.768-2.47-2.338-4.683-4.42-6.24-2.152-1.61-4.715-2.46-7.41-2.46h-.025c-2.695 0-5.258.85-7.41 2.46-2.083 1.557-3.65 3.774-4.42 6.24-.094.306.072.627.375.72l3.138 1.008.882 3.385-4.207.03c-.17 0-.33.078-.44.208-.108.13-.154.303-.125.47.9 5.198 5.005 9.257 10.213 10.1.18.03.365-.03.496-.16.13-.126.194-.31.17-.49l-.71-5.133-.192-1.5h4.484l-.19 1.498-.71 5.137c-.024.18.038.363.17.49.108.108.253.166.402.166l.092-.007c5.207-.843 9.312-4.902 10.213-10.1.03-.167-.017-.34-.126-.47zM11.45 139.81c-.564 0-.982-.277-1.016-.4L8.92 133.6c.063-.054.25-.146.574-.146h13.338c.323 0 .512.092.575.145l-1.514 5.81c-.034.12-.453.4-1.016.4H11.45zm-2.007-12.797c1.952-1.46 4.276-2.23 6.72-2.23h.024c2.445 0 4.77.77 6.72 2.23 1.735 1.296 3.077 3.098 3.824 5.118l-2.4.77c-.302-.38-.845-.6-1.494-.6H9.496c-.646 0-1.186.22-1.49.597l-2.385-.763c.75-2.02 2.09-3.82 3.827-5.117zm3.536 15.602l.55 4.326c-4.108-.98-7.327-4.2-8.3-8.32l3.794-.023.29 1.11c.187.72 1.104 1.26 2.132 1.26h1.3l.227 1.652zm3.18-21.098c-7.995 0-14.5 6.504-14.5 14.5 0 7.995 6.505 14.5 14.5 14.5 7.996 0 14.5-6.505 14.5-14.5 0-7.996-6.504-14.5-14.5-14.5zm2.656 25.424l.55-4.323.228-1.65h1.278c1.03 0 1.946-.542 2.133-1.26l.288-1.11 3.82.026c-.975 4.118-4.193 7.34-8.3 8.32zm-2.657 2.425c-7.36 0-13.345-5.988-13.345-13.345 0-7.36 5.987-13.346 13.345-13.346 7.36 0 13.348 5.987 13.348 13.345 0 7.356-5.99 13.343-13.347 13.343zm-.063-15.007c-.44 0-.868.06-1.27.176-.304.09-.48.41-.39.717.09.305.41.48.715.39.295-.085.614-.13.945-.13 1.166 0 2.037.555 2.037 1.05s-.87 1.05-2.037 1.05c-1.165 0-2.036-.554-2.036-1.05 0-.32-.257-.576-.576-.576-.32 0-.577.258-.577.576 0 1.235 1.402 2.203 3.19 2.203 1.79 0 3.193-.968 3.193-2.205s-1.4-2.205-3.19-2.205z" fill="#206FAC"/></g></svg>