<svg width="32" height="232" viewBox="0 0 32 232" xmlns="http://www.w3.org/2000/svg"><title>electricity</title><desc>Created with Sketch.</desc><g fill="none"><path d="M27.805 18.94l-4.51-4.51 1.135-1.134c.16-.16.206-.4.12-.606l-1.29-3.075v-.002l-.003-.005-.016-.03-.034-.064-.046-.057-.022-.027-.004-.003v-.002L20.32 6.613c-.104-.104-.245-.163-.392-.163-.147 0-.288.06-.392.163l-.86.86-1.967-1.967c-.217-.216-.57-.216-.785 0-.217.217-.217.568 0 .785l1.966 1.967-1.437 1.438-1.966-1.966c-.217-.218-.568-.218-.785 0-.216.215-.216.567 0 .783l1.967 1.967-.86.86c-.218.216-.218.568 0 .784l2.81 2.813h.002l.004.005.027.022.056.046.063.035.03.016.005.003h.002l3.076 1.29.214.043c.144 0 .286-.056.392-.162l1.02-1.02 4.51 4.512c.776.777 1.203 1.81 1.203 2.908s-.427 2.132-1.204 2.91c-1.603 1.602-4.213 1.602-5.817 0l-1.557-1.56-.09-.12-9.384-9.385c-.763-.764-1.777-1.184-2.857-1.184-1.08 0-2.093.42-2.856 1.183-1.576 1.574-1.576 4.137 0 5.713l1.983 1.984.04.05 4.667 4.666c.443.443.688 1.033.688 1.66 0 .628-.245 1.217-.688 1.66-.916.916-2.405.917-3.32 0l-4.244-4.242c-.216-.216-.568-.216-.785 0-.215.218-.215.57 0 .786L7.045 31c.675.673 1.56 1.01 2.446 1.01.885 0 1.77-.338 2.445-1.01.653-.655 1.013-1.523 1.013-2.447 0-.923-.36-1.792-1.013-2.445l-.65-.65-.04-.048-6.002-6.002c-1.142-1.143-1.142-3.002 0-4.144.554-.554 1.29-.858 2.072-.858.783 0 1.52.304 2.072.858l.387.387.09.12 10.555 10.557c1.017 1.02 2.355 1.528 3.692 1.528 1.338 0 2.675-.51 3.693-1.527.987-.987 1.53-2.3 1.53-3.694s-.543-2.706-1.53-3.693zM19.928 7.79l2.033 2.033-3.942 3.942-2.032-2.033 3.942-3.942zm1.043 7.396l-1.975-.83 3.558-3.557.828 1.975-2.41 2.41zM10.578 3.768l-.322.103c-.192.062-.335.22-.376.418-.04.197.028.4.18.53l1.854 1.604c.105.09.234.135.363.135.155 0 .31-.065.42-.192.2-.232.175-.582-.057-.783l-1.104-.954.322-.102c.19-.06.335-.22.376-.417.04-.198-.03-.402-.18-.533l-1.835-1.585c-.233-.2-.583-.175-.783.057-.2.23-.175.58.057.782l1.083.936zm2.078-1.847l-.322.103c-.192.06-.335.22-.376.418-.04.197.03.4.18.532l1.856 1.602c.104.09.234.135.362.135.156 0 .31-.066.42-.193.2-.232.175-.582-.057-.782l-1.104-.954.322-.102c.192-.06.335-.22.376-.417.04-.196-.03-.4-.18-.53L12.296.145c-.232-.2-.582-.175-.782.057-.2.232-.175.582.057.782l1.083.937z" fill="#3A434E"/><path d="M27.805 58.94l-4.51-4.51 1.135-1.134c.16-.16.206-.4.12-.606l-1.29-3.075v-.002l-.003-.005-.016-.03-.034-.064-.046-.057-.022-.027-.004-.003v-.002l-2.814-2.812c-.104-.104-.245-.163-.392-.163-.147 0-.288.06-.392.163l-.86.86-1.967-1.967c-.217-.216-.57-.216-.785 0-.217.217-.217.568 0 .785l1.966 1.967-1.437 1.438-1.966-1.966c-.217-.218-.568-.218-.785 0-.216.215-.216.567 0 .783l1.967 1.967-.86.86c-.218.216-.218.568 0 .784l2.81 2.813h.002l.004.005.027.022.056.046.063.035.03.016.005.003h.002l3.076 1.29.214.043c.144 0 .286-.056.392-.162l1.02-1.02 4.51 4.512c.776.777 1.203 1.81 1.203 2.908s-.427 2.132-1.204 2.91c-1.603 1.602-4.213 1.602-5.817 0l-1.557-1.56-.09-.12-9.384-9.385c-.763-.764-1.777-1.184-2.857-1.184-1.08 0-2.093.42-2.856 1.183-1.576 1.574-1.576 4.137 0 5.713l1.983 1.984.04.05 4.667 4.666c.443.443.688 1.033.688 1.66 0 .628-.245 1.217-.688 1.66-.916.916-2.405.917-3.32 0l-4.244-4.242c-.216-.216-.568-.216-.785 0-.215.218-.215.57 0 .786L7.045 71c.675.673 1.56 1.01 2.446 1.01.885 0 1.77-.338 2.445-1.01.653-.655 1.013-1.523 1.013-2.447 0-.923-.36-1.792-1.013-2.445l-.65-.65-.04-.048-6.002-6.002c-1.142-1.143-1.142-3.002 0-4.144.554-.554 1.29-.858 2.072-.858.783 0 1.52.304 2.072.858l.387.387.09.12 10.555 10.557c1.017 1.02 2.355 1.528 3.692 1.528 1.338 0 2.675-.51 3.693-1.527.987-.987 1.53-2.3 1.53-3.694s-.543-2.706-1.53-3.693zm-7.877-11.15l2.033 2.033-3.942 3.942-2.032-2.033 3.942-3.942zm1.043 7.396l-1.975-.83 3.558-3.557.828 1.975-2.41 2.41zM10.578 43.768l-.322.103c-.192.062-.335.22-.376.418-.04.197.028.4.18.53l1.854 1.604c.105.09.234.135.363.135.155 0 .31-.065.42-.192.2-.232.175-.582-.057-.783l-1.104-.954.322-.102c.19-.06.335-.22.376-.417.04-.198-.03-.402-.18-.533l-1.835-1.585c-.233-.2-.583-.175-.783.057-.2.23-.175.58.057.782l1.083.936zm2.078-1.847l-.322.103c-.192.06-.335.22-.376.418-.04.197.03.4.18.532l1.856 1.602c.104.09.234.135.362.135.156 0 .31-.066.42-.193.2-.232.175-.582-.057-.782l-1.104-.954.322-.102c.192-.06.335-.22.376-.417.04-.196-.03-.4-.18-.53l-1.835-1.585c-.232-.2-.582-.175-.782.057-.2.232-.175.582.057.782l1.083.937z" fill="#67737B"/><path d="M27.805 98.94l-4.51-4.51 1.135-1.134c.16-.16.206-.4.12-.606l-1.29-3.075v-.002l-.003-.005-.016-.03-.034-.064-.046-.057-.022-.027-.004-.003v-.002l-2.814-2.812c-.104-.104-.245-.163-.392-.163-.147 0-.288.06-.392.163l-.86.86-1.967-1.967c-.217-.216-.57-.216-.785 0-.217.217-.217.568 0 .785l1.966 1.967-1.437 1.438-1.966-1.966c-.217-.218-.568-.218-.785 0-.216.215-.216.567 0 .783l1.967 1.967-.86.86c-.218.216-.218.568 0 .784l2.81 2.813h.002l.004.005.027.022.056.046.063.035.03.016.005.003h.002l3.076 1.29.214.043c.144 0 .286-.056.392-.162l1.02-1.02 4.51 4.512c.776.777 1.203 1.81 1.203 2.908s-.427 2.132-1.204 2.91c-1.603 1.602-4.213 1.602-5.817 0l-1.557-1.56-.09-.12-9.384-9.385c-.763-.764-1.777-1.184-2.857-1.184-1.08 0-2.093.42-2.856 1.183-1.576 1.574-1.576 4.137 0 5.713l1.983 1.984.04.05 4.667 4.666c.443.443.688 1.033.688 1.66 0 .628-.245 1.217-.688 1.66-.916.916-2.405.917-3.32 0l-4.244-4.242c-.216-.216-.568-.216-.785 0-.215.218-.215.57 0 .786L7.045 111c.675.673 1.56 1.01 2.446 1.01.885 0 1.77-.338 2.445-1.01.653-.655 1.013-1.523 1.013-2.447 0-.923-.36-1.792-1.013-2.445l-.65-.65-.04-.048-6.002-6.002c-1.142-1.143-1.142-3.002 0-4.144.554-.554 1.29-.858 2.072-.858.783 0 1.52.304 2.072.858l.387.387.09.12 10.555 10.557c1.017 1.02 2.355 1.528 3.692 1.528 1.338 0 2.675-.51 3.693-1.527.987-.987 1.53-2.3 1.53-3.694s-.543-2.706-1.53-3.693zm-7.877-11.15l2.033 2.033-3.942 3.942-2.032-2.033 3.942-3.942zm1.043 7.396l-1.975-.83 3.558-3.557.828 1.975-2.41 2.41zM10.578 83.768l-.322.103c-.192.062-.335.22-.376.418-.04.197.028.4.18.53l1.854 1.604c.105.09.234.135.363.135.155 0 .31-.065.42-.192.2-.232.175-.582-.057-.783l-1.104-.954.322-.102c.19-.06.335-.22.376-.417.04-.198-.03-.402-.18-.533l-1.835-1.585c-.233-.2-.583-.175-.783.057-.2.23-.175.58.057.782l1.083.936zm2.078-1.847l-.322.103c-.192.06-.335.22-.376.418-.04.197.03.4.18.532l1.856 1.602c.104.09.234.135.362.135.156 0 .31-.066.42-.193.2-.232.175-.582-.057-.782l-1.104-.954.322-.102c.192-.06.335-.22.376-.417.04-.196-.03-.4-.18-.53l-1.835-1.585c-.232-.2-.582-.175-.782.057-.2.232-.175.582.057.782l1.083.937z" fill="#fff"/><path d="M27.805 138.94l-4.51-4.51 1.135-1.134c.16-.16.206-.4.12-.606l-1.29-3.075v-.002l-.003-.005-.016-.03-.034-.064-.046-.057-.022-.027-.004-.003v-.002l-2.814-2.812c-.104-.104-.245-.163-.392-.163-.147 0-.288.06-.392.163l-.86.86-1.967-1.967c-.217-.216-.57-.216-.785 0-.217.217-.217.568 0 .785l1.966 1.967-1.437 1.438-1.966-1.966c-.217-.218-.568-.218-.785 0-.216.215-.216.567 0 .783l1.967 1.967-.86.86c-.218.216-.218.568 0 .784l2.81 2.813h.002l.004.005.027.022.056.046.063.035.03.016.005.003h.002l3.076 1.29.214.043c.144 0 .286-.056.392-.162l1.02-1.02 4.51 4.512c.776.777 1.203 1.81 1.203 2.908s-.427 2.132-1.204 2.91c-1.603 1.602-4.213 1.602-5.817 0l-1.557-1.56-.09-.12-9.384-9.385c-.763-.764-1.777-1.184-2.857-1.184-1.08 0-2.093.42-2.856 1.183-1.576 1.574-1.576 4.137 0 5.713l1.983 1.984.04.05 4.667 4.666c.443.443.688 1.033.688 1.66 0 .628-.245 1.217-.688 1.66-.916.916-2.405.917-3.32 0l-4.244-4.242c-.216-.216-.568-.216-.785 0-.215.218-.215.57 0 .786L7.045 151c.675.673 1.56 1.01 2.446 1.01.885 0 1.77-.338 2.445-1.01.653-.655 1.013-1.523 1.013-2.447 0-.923-.36-1.792-1.013-2.445l-.65-.65-.04-.048-6.002-6.002c-1.142-1.143-1.142-3.002 0-4.144.554-.554 1.29-.858 2.072-.858.783 0 1.52.304 2.072.858l.387.387.09.12 10.555 10.557c1.017 1.02 2.355 1.528 3.692 1.528 1.338 0 2.675-.51 3.693-1.527.987-.987 1.53-2.3 1.53-3.694s-.543-2.706-1.53-3.693zm-7.877-11.15l2.033 2.033-3.942 3.942-2.032-2.033 3.942-3.942zm1.043 7.396l-1.975-.83 3.558-3.557.828 1.975-2.41 2.41zm-10.393-11.418l-.322.103c-.192.062-.335.22-.376.418-.04.197.028.4.18.53l1.854 1.604c.105.09.234.135.363.135.155 0 .31-.065.42-.192.2-.232.175-.582-.057-.783l-1.104-.954.322-.102c.19-.06.335-.22.376-.417.04-.198-.03-.402-.18-.533l-1.835-1.585c-.233-.2-.583-.175-.783.057-.2.23-.175.58.057.782l1.083.936zm2.078-1.847l-.322.103c-.192.06-.335.22-.376.418-.04.197.03.4.18.532l1.856 1.602c.104.09.234.135.362.135.156 0 .31-.066.42-.193.2-.232.175-.582-.057-.782l-1.104-.954.322-.102c.192-.06.335-.22.376-.417.04-.196-.03-.4-.18-.53l-1.835-1.585c-.232-.2-.582-.175-.782.057-.2.232-.175.582.057.782l1.083.937z" fill="#206FAC"/></g></svg>