<svg width="32" height="232" viewBox="0 0 32 232" xmlns="http://www.w3.org/2000/svg"><desc>Created with Sketch.</desc><g fill="none"><path d="M31.95 29.927l-7.29-15.865c-.09-.2-.29-.327-.51-.327-.218 0-.417.128-.51.327l-1.62 3.532-4.005-8.717c-.09-.2-.29-.327-.51-.327-.22 0-.418.128-.51.327l-5.22 11.367-.902-1.962c-.092-.2-.29-.327-.51-.327-.22 0-.42.128-.51.327L4.653 29.6h-3.53v-1.724h2.355c.31 0 .56-.25.56-.56 0-.31-.25-.562-.56-.562H1.122V25.59h2.356c.31 0 .56-.252.56-.562 0-.31-.25-.56-.56-.56H1.122V23.3h2.356c.31 0 .56-.25.56-.56 0-.31-.25-.562-.56-.562H1.122v-1.165h2.356c.31 0 .56-.25.56-.56 0-.31-.25-.562-.56-.562H1.122V18.73h2.356c.31 0 .56-.25.56-.56 0-.31-.25-.562-.56-.562H1.122V16.44h2.356c.31 0 .56-.25.56-.56 0-.31-.25-.56-.56-.56H1.122v-1.166h2.356c.31 0 .56-.25.56-.56 0-.31-.25-.562-.56-.562H1.122v-1.165h2.356c.31 0 .56-.25.56-.56 0-.31-.25-.562-.56-.562H1.122V9.58h13.346c.31 0 .56-.25.56-.56 0-.31-.25-.562-.56-.562H1.122V7.294h2.356c.31 0 .56-.252.56-.562 0-.31-.25-.56-.56-.56H1.122V5.006h2.356c.31 0 .56-.252.56-.562 0-.31-.25-.56-.56-.56H1.122V2.06c0-.31-.25-.562-.56-.562-.31 0-.562.252-.562.562v28.1c0 .31.25.56.56.56h30.88c.19 0 .368-.096.47-.257.104-.16.12-.364.04-.538zm-14.445-19.47l1.73 3.768-.444.586-.84-1.09c-.105-.14-.28-.225-.45-.22-.178.002-.344.09-.447.233l-.78 1.085-.49-.602 1.726-3.756zM15.712 29.6H5.89l4.473-9.74.793 1.73-1.545 3.363c-.13.282-.002.615.28.745.28.13.614.006.744-.276l4.628-10.074.608.743c.106.135.266.21.434.21h.018c.174-.005.336-.092.438-.234L17.52 15l.827 1.077c.107.14.27.22.446.22s.34-.082.446-.22l.524-.696L26.3 29.6H15.71zm13.633 0h-1.81l-4.898-10.662 1.514-3.297 6.416 13.96h-1.218z" fill="#3A434E"/><path d="M31.95 69.927l-7.29-15.865c-.09-.2-.29-.327-.51-.327-.218 0-.417.128-.51.327l-1.62 3.532-4.005-8.717c-.09-.2-.29-.327-.51-.327-.22 0-.418.128-.51.327l-5.22 11.367-.902-1.962c-.092-.2-.29-.327-.51-.327-.22 0-.42.128-.51.327L4.653 69.6h-3.53v-1.724h2.355c.31 0 .56-.25.56-.56 0-.31-.25-.562-.56-.562H1.122V65.59h2.356c.31 0 .56-.252.56-.562 0-.31-.25-.56-.56-.56H1.122V63.3h2.356c.31 0 .56-.25.56-.56 0-.31-.25-.562-.56-.562H1.122v-1.165h2.356c.31 0 .56-.25.56-.56 0-.31-.25-.562-.56-.562H1.122V58.73h2.356c.31 0 .56-.25.56-.56 0-.31-.25-.562-.56-.562H1.122V56.44h2.356c.31 0 .56-.25.56-.56 0-.31-.25-.56-.56-.56H1.122v-1.166h2.356c.31 0 .56-.25.56-.56 0-.31-.25-.562-.56-.562H1.122v-1.165h2.356c.31 0 .56-.25.56-.56 0-.31-.25-.562-.56-.562H1.122V49.58h13.346c.31 0 .56-.25.56-.56 0-.31-.25-.562-.56-.562H1.122v-1.164h2.356c.31 0 .56-.252.56-.562 0-.31-.25-.56-.56-.56H1.122v-1.165h2.356c.31 0 .56-.252.56-.562 0-.31-.25-.56-.56-.56H1.122V42.06c0-.31-.25-.562-.56-.562-.31 0-.562.252-.562.562v28.1c0 .31.25.56.56.56h30.88c.19 0 .368-.096.47-.257.104-.16.12-.364.04-.538zm-14.445-19.47l1.73 3.768-.444.586-.84-1.09c-.105-.14-.28-.225-.45-.22-.178.002-.344.09-.447.233l-.78 1.085-.49-.602 1.726-3.756zM15.712 69.6H5.89l4.473-9.74.793 1.73-1.545 3.363c-.13.282-.002.615.28.745.28.13.614.006.744-.276l4.628-10.074.608.743c.106.135.266.21.434.21h.018c.174-.005.336-.092.438-.234L17.52 55l.827 1.077c.107.14.27.22.446.22s.34-.082.446-.22l.524-.696L26.3 69.6H15.71zm13.633 0h-1.81l-4.898-10.662 1.514-3.297 6.416 13.96h-1.218z" fill="#67737B"/><path d="M31.95 109.927l-7.29-15.865c-.09-.2-.29-.327-.51-.327-.218 0-.417.128-.51.327l-1.62 3.532-4.005-8.717c-.09-.2-.29-.327-.51-.327-.22 0-.418.128-.51.327l-5.22 11.367-.902-1.962c-.092-.2-.29-.327-.51-.327-.22 0-.42.128-.51.327l-5.2 11.318h-3.53v-1.724h2.355c.31 0 .56-.25.56-.56 0-.31-.25-.562-.56-.562H1.122v-1.165h2.356c.31 0 .56-.255.56-.565 0-.31-.25-.56-.56-.56H1.122V103.3h2.356c.31 0 .56-.25.56-.56 0-.31-.25-.562-.56-.562H1.122v-1.165h2.356c.31 0 .56-.25.56-.56 0-.31-.25-.562-.56-.562H1.122V98.73h2.356c.31 0 .56-.25.56-.56 0-.31-.25-.562-.56-.562H1.122V96.44h2.356c.31 0 .56-.25.56-.56 0-.31-.25-.56-.56-.56H1.122v-1.166h2.356c.31 0 .56-.25.56-.56 0-.31-.25-.562-.56-.562H1.122v-1.165h2.356c.31 0 .56-.25.56-.56 0-.31-.25-.562-.56-.562H1.122V89.58h13.346c.31 0 .56-.25.56-.56 0-.31-.25-.562-.56-.562H1.122v-1.164h2.356c.31 0 .56-.252.56-.562 0-.31-.25-.56-.56-.56H1.122v-1.165h2.356c.31 0 .56-.252.56-.562 0-.31-.25-.56-.56-.56H1.122V82.06c0-.31-.25-.562-.56-.562-.31 0-.562.252-.562.562v28.1c0 .31.25.56.56.56h30.88c.19 0 .368-.096.47-.257.104-.16.12-.364.04-.538zm-14.445-19.47l1.73 3.768-.444.586-.84-1.09c-.105-.14-.28-.225-.45-.22-.178.002-.344.09-.447.233l-.78 1.085-.49-.602 1.726-3.756zM15.712 109.6H5.89l4.473-9.74.793 1.73-1.545 3.363c-.13.282-.002.615.28.745.28.13.614.006.744-.276l4.628-10.074.608.743c.106.135.266.21.434.21h.018c.174-.005.336-.092.438-.234L17.52 95l.827 1.077c.107.14.27.22.446.22s.34-.082.446-.22l.524-.696L26.3 109.6H15.71zm13.633 0h-1.81l-4.898-10.662 1.514-3.297 6.416 13.96h-1.218z" fill="#fff"/><path d="M31.95 149.927l-7.29-15.865c-.09-.2-.29-.327-.51-.327-.218 0-.417.128-.51.327l-1.62 3.532-4.005-8.717c-.09-.2-.29-.327-.51-.327-.22 0-.418.128-.51.327l-5.22 11.367-.902-1.962c-.092-.2-.29-.327-.51-.327-.22 0-.42.128-.51.327l-5.2 11.318h-3.53v-1.724h2.355c.31 0 .56-.25.56-.56 0-.31-.25-.562-.56-.562H1.122v-1.165h2.356c.31 0 .56-.255.56-.565 0-.31-.25-.56-.56-.56H1.122V143.3h2.356c.31 0 .56-.25.56-.56 0-.31-.25-.562-.56-.562H1.122v-1.165h2.356c.31 0 .56-.25.56-.56 0-.31-.25-.562-.56-.562H1.122v-1.162h2.356c.31 0 .56-.25.56-.56 0-.31-.25-.562-.56-.562H1.122v-1.165h2.356c.31 0 .56-.25.56-.56 0-.31-.25-.56-.56-.56H1.122v-1.166h2.356c.31 0 .56-.25.56-.56 0-.31-.25-.562-.56-.562H1.122v-1.163h2.356c.31 0 .56-.25.56-.56 0-.31-.25-.563-.56-.563H1.122v-1.164h13.346c.31 0 .56-.25.56-.56 0-.31-.25-.56-.56-.56H1.122v-1.165h2.356c.31 0 .56-.252.56-.562 0-.31-.25-.56-.56-.56H1.122v-1.165h2.356c.31 0 .56-.25.56-.56 0-.31-.25-.56-.56-.56H1.122v-1.824c0-.31-.25-.562-.56-.562-.31 0-.562.253-.562.563v28.1c0 .31.25.56.56.56h30.88c.19 0 .368-.096.47-.257.104-.16.12-.364.04-.538zm-14.445-19.47l1.73 3.768-.444.586-.84-1.09c-.105-.14-.28-.225-.45-.22-.178.002-.344.09-.447.233l-.78 1.085-.49-.602 1.726-3.756zM15.712 149.6H5.89l4.473-9.74.793 1.73-1.545 3.363c-.13.282-.002.615.28.745.28.13.614.006.744-.276l4.628-10.074.608.743c.106.135.266.21.434.21h.018c.174-.005.336-.092.438-.234l.76-1.066.827 1.077c.107.14.27.22.446.22s.34-.082.446-.22l.524-.696L26.3 149.6H15.71zm13.633 0h-1.81l-4.898-10.662 1.514-3.297 6.416 13.96h-1.218z" fill="#206FAC"/></g></svg>