<svg width="32" height="232" viewBox="0 0 32 232" xmlns="http://www.w3.org/2000/svg"><title>female</title><desc>Created with Sketch.</desc><g fill="none"><path d="M16.056 5.534c1.526 0 2.767-1.24 2.767-2.767C18.823 1.24 17.583 0 16.056 0 14.53 0 13.29 1.24 13.29 2.767c0 1.526 1.24 2.767 2.766 2.767zm0-4.32c.807 0 1.463.657 1.463 1.464s-.657 1.463-1.464 1.463-1.463-.655-1.463-1.462.656-1.463 1.463-1.463zM24.192 30.7h-6.245v-3.48h3.988c.203 0 .394-.096.517-.256.124-.16.165-.37.112-.564l-3.337-12.373.343-3.5 2.21 6.536c.093.27.347.443.62.443l.208-.035c.34-.114.524-.482.41-.822l-3.07-9.072-.08-.157c-.01-.288-.21-.54-.496-.61l-3.238-.79c-.105-.027-.214-.026-.318 0l-3.083.79c-.284.074-.48.325-.488.61l-.08.156-3.07 9.072c-.115.34.068.71.41.823l.208.036c.272 0 .526-.17.618-.443l2.212-6.536.343 3.5L9.548 26.4c-.053.195-.01.405.112.564.123.16.314.255.517.255h3.988v3.48H7.92c-.36 0-.652.29-.652.65 0 .36.29.65.652.65h16.272c.36 0 .652-.29.652-.65 0-.36-.29-.65-.652-.65zm-13.164-4.89l3.147-11.705.02-.232-.597-6.107 2.385-.613 2.53.62-.595 6.1.02.232 3.146 11.706H11.028zm4.44 1.305h1.175v3.492H15.47v-3.492z" fill="#3A434E"/><path d="M16.056 45.534c1.526 0 2.767-1.24 2.767-2.767 0-1.526-1.24-2.767-2.767-2.767-1.526 0-2.767 1.24-2.767 2.767 0 1.526 1.24 2.767 2.766 2.767zm0-4.32c.807 0 1.463.657 1.463 1.464s-.657 1.463-1.464 1.463-1.463-.655-1.463-1.462.656-1.463 1.463-1.463zM24.192 70.7h-6.245v-3.48h3.988c.203 0 .394-.096.517-.256.124-.16.165-.37.112-.564l-3.337-12.373.343-3.5 2.21 6.536c.093.27.347.443.62.443l.208-.035c.34-.114.524-.482.41-.822l-3.07-9.072-.08-.157c-.01-.288-.21-.54-.496-.61l-3.238-.79c-.105-.027-.214-.026-.318 0l-3.083.79c-.284.074-.48.325-.488.61l-.08.156-3.07 9.072c-.115.34.068.71.41.823l.208.036c.272 0 .526-.17.618-.443l2.212-6.536.343 3.5L9.548 66.4c-.053.195-.01.405.112.564.123.16.314.255.517.255h3.988v3.48H7.92c-.36 0-.652.29-.652.65 0 .36.29.65.652.65h16.272c.36 0 .652-.29.652-.65 0-.36-.29-.65-.652-.65zm-13.164-4.89l3.147-11.705.02-.232-.597-6.107 2.385-.613 2.53.62-.595 6.1.02.232 3.146 11.706H11.028zm4.44 1.305h1.175v3.492H15.47v-3.492z" fill="#67737B"/><path d="M16.056 85.534c1.526 0 2.767-1.24 2.767-2.767 0-1.526-1.24-2.767-2.767-2.767-1.526 0-2.767 1.24-2.767 2.767 0 1.526 1.24 2.767 2.766 2.767zm0-4.32c.807 0 1.463.657 1.463 1.464s-.657 1.463-1.464 1.463-1.463-.655-1.463-1.462.656-1.463 1.463-1.463zm8.136 29.486h-6.245v-3.48h3.988c.203 0 .394-.096.517-.256.124-.16.165-.37.112-.564l-3.337-12.373.343-3.5 2.21 6.536c.093.27.347.443.62.443l.208-.035c.34-.114.524-.482.41-.822l-3.07-9.072-.08-.157c-.01-.288-.21-.54-.496-.61l-3.238-.79c-.105-.027-.214-.026-.318 0l-3.083.79c-.284.074-.48.325-.488.61l-.08.156-3.07 9.072c-.115.34.068.71.41.823l.208.036c.272 0 .526-.17.618-.443l2.212-6.536.343 3.5L9.548 106.4c-.053.195-.01.405.112.564.123.16.314.255.517.255h3.988v3.48H7.92c-.36 0-.652.29-.652.65 0 .36.29.65.652.65h16.272c.36 0 .652-.29.652-.65 0-.36-.29-.65-.652-.65zm-13.164-4.89l3.147-11.705.02-.232-.597-6.107 2.385-.613 2.53.62-.595 6.1.02.232 3.146 11.706H11.028zm4.44 1.305h1.175v3.492H15.47v-3.492z" fill="#fff"/><path d="M16.056 125.534c1.526 0 2.767-1.24 2.767-2.767 0-1.526-1.24-2.767-2.767-2.767-1.526 0-2.767 1.24-2.767 2.767 0 1.526 1.24 2.767 2.766 2.767zm0-4.32c.807 0 1.463.657 1.463 1.464s-.657 1.463-1.464 1.463-1.463-.655-1.463-1.462.656-1.463 1.463-1.463zm8.136 29.486h-6.245v-3.48h3.988c.203 0 .394-.096.517-.256.124-.16.165-.37.112-.564l-3.337-12.373.343-3.5 2.21 6.536c.093.27.347.443.62.443l.208-.035c.34-.114.524-.482.41-.822l-3.07-9.072-.08-.157c-.01-.288-.21-.54-.496-.61l-3.238-.79c-.105-.027-.214-.026-.318 0l-3.083.79c-.284.074-.48.325-.488.61l-.08.156-3.07 9.072c-.115.34.068.71.41.823l.208.036c.272 0 .526-.17.618-.443l2.212-6.536.343 3.5L9.548 146.4c-.053.195-.01.405.112.564.123.16.314.255.517.255h3.988v3.48H7.92c-.36 0-.652.29-.652.65 0 .36.29.65.652.65h16.272c.36 0 .652-.29.652-.65 0-.36-.29-.65-.652-.65zm-13.164-4.89l3.147-11.705.02-.232-.597-6.107 2.385-.613 2.53.62-.595 6.1.02.232 3.146 11.706H11.028zm4.44 1.305h1.175v3.492H15.47v-3.492z" fill="#206FAC"/></g></svg>