<svg width="32" height="232" viewBox="0 0 32 232" xmlns="http://www.w3.org/2000/svg" xmlns:sketch="http://www.bohemiancoding.com/sketch/ns"><title>health</title><desc>Created with Sketch.</desc><g sketch:type="MSPage" fill="none"><path d="M29.197.583v-.042c0-.16-.071-.312-.194-.414-.122-.104-.284-.147-.442-.119l-1.245.222c-.259.046-.447.27-.447.533v.54c0 .263.188.488.447.533l1.245.222.095.008c.126 0 .249-.044.347-.126.076-.063.131-.145.164-.236.518.204.887.709.887 1.3v8.567c-.031.069-.05.144-.05.224 0 2.443-1.988 4.431-4.431 4.43-1.183 0-2.296-.46-3.133-1.297-.808-.808-1.264-1.873-1.294-3.009l-.001-8.915c0-.591.369-1.096.888-1.3.032.091.088.173.163.236.098.082.222.126.348.126l.095-.008 1.245-.222c.258-.045.446-.27.446-.533v-.54c0-.263-.188-.487-.446-.533l-1.245-.222c-.158-.028-.32.015-.443.119-.123.102-.194.254-.194.414v.042c-1.108.248-1.939 1.239-1.939 2.421v8.761l-.003.03.003.124v.111l.003.035c.066 1.371.631 2.651 1.609 3.628.912.913 2.089 1.467 3.357 1.589v8.434c0 2.868-2.334 5.201-5.202 5.201-1.389 0-2.696-.541-3.678-1.523-.983-.982-1.524-2.289-1.524-3.678v-10.812l-.007-.074v-3.388c0-2.992-2.434-5.426-5.426-5.426-1.45 0-2.812.565-3.837 1.589-1.025 1.025-1.59 2.388-1.59 3.837v6.849c-1.724.276-3.046 1.773-3.046 3.574 0 1.995 1.623 3.618 3.619 3.618 1.996 0 3.619-1.623 3.619-3.618 0-1.823-1.354-3.334-3.109-3.583v-6.84c0-1.16.452-2.251 1.272-3.071.821-.82 1.912-1.272 3.072-1.272 2.395 0 4.343 1.948 4.343 4.343v13.283l.008.074v.917c0 1.678.653 3.256 1.84 4.444 1.187 1.186 2.765 1.84 4.444 1.84 3.465 0 6.284-2.819 6.285-6.284v-8.435c2.621-.256 4.709-2.357 4.948-4.983.046-.08.073-.17.073-.268l.001-9.026c0-1.182-.831-2.173-1.94-2.421zm-26.376 21.338c0 .838.682 1.52 1.52 1.52s1.52-.682 1.52-1.52c0-.839-.682-1.521-1.52-1.521s-1.52.682-1.52 1.521zm1.957 0c0 .241-.196.437-.437.437s-.437-.196-.437-.437c0-.242.196-.438.437-.438s.437.196.437.438zm2.099-.056c0 1.398-1.138 2.536-2.536 2.536-1.398 0-2.536-1.138-2.536-2.536 0-1.399 1.138-2.537 2.536-2.537 1.398 0 2.536 1.138 2.536 2.537z" fill="#3A434E" sketch:type="MSShapeGroup"/><path d="M29.197 40.583v-.042c0-.16-.071-.312-.194-.414-.122-.104-.284-.147-.442-.119l-1.245.222c-.259.046-.447.27-.447.533v.54c0 .263.188.488.447.533l1.245.222.095.008c.126 0 .249-.044.347-.126.076-.063.131-.145.164-.236.518.204.887.709.887 1.3v8.567c-.031.069-.05.144-.05.224 0 2.443-1.988 4.431-4.431 4.43-1.183 0-2.296-.46-3.133-1.297-.808-.808-1.264-1.873-1.294-3.009l-.001-8.915c0-.591.369-1.096.888-1.3.032.091.088.173.163.236.098.082.222.126.348.126l.095-.008 1.245-.222c.258-.045.446-.27.446-.533v-.54c0-.263-.188-.487-.446-.533l-1.245-.222c-.158-.028-.32.015-.443.119-.123.102-.194.254-.194.414v.042c-1.108.248-1.939 1.239-1.939 2.421v8.761l-.003.03.003.124v.111l.003.035c.066 1.371.631 2.651 1.609 3.628.912.913 2.089 1.467 3.357 1.589v8.434c0 2.868-2.334 5.201-5.202 5.201-1.389 0-2.696-.541-3.678-1.523-.983-.982-1.524-2.289-1.524-3.678v-10.812l-.007-.074v-3.388c0-2.992-2.434-5.426-5.426-5.426-1.45 0-2.812.565-3.837 1.589-1.025 1.025-1.59 2.388-1.59 3.837v6.849c-1.724.276-3.046 1.773-3.046 3.574 0 1.995 1.623 3.618 3.619 3.618 1.996 0 3.619-1.623 3.619-3.618 0-1.823-1.354-3.334-3.109-3.583v-6.84c0-1.16.452-2.251 1.272-3.071.821-.82 1.912-1.272 3.072-1.272 2.395 0 4.343 1.948 4.343 4.343v13.283l.008.074v.917c0 1.678.653 3.256 1.84 4.444 1.187 1.186 2.765 1.84 4.444 1.84 3.465 0 6.284-2.819 6.285-6.284v-8.435c2.621-.256 4.709-2.357 4.948-4.983.046-.08.073-.17.073-.268l.001-9.026c0-1.182-.831-2.173-1.94-2.421zm-26.376 21.338c0 .838.682 1.52 1.52 1.52s1.52-.682 1.52-1.52c0-.839-.682-1.521-1.52-1.521s-1.52.682-1.52 1.521zm1.957 0c0 .241-.196.437-.437.437s-.437-.196-.437-.437c0-.242.196-.438.437-.438s.437.196.437.438zm2.099-.056c0 1.398-1.138 2.536-2.536 2.536-1.398 0-2.536-1.138-2.536-2.536 0-1.399 1.138-2.537 2.536-2.537 1.398 0 2.536 1.138 2.536 2.537z" fill="#67737B" sketch:type="MSShapeGroup"/><path d="M29.197 80.583v-.042c0-.16-.071-.312-.194-.414-.122-.104-.284-.147-.442-.119l-1.245.222c-.259.046-.447.27-.447.533v.54c0 .263.188.488.447.533l1.245.222.095.008c.126 0 .249-.044.347-.126.076-.063.131-.145.164-.236.518.204.887.709.887 1.3v8.567c-.031.069-.05.144-.05.224 0 2.443-1.988 4.431-4.431 4.43-1.183 0-2.296-.46-3.133-1.297-.808-.808-1.264-1.873-1.294-3.009l-.001-8.915c0-.591.369-1.096.888-1.3.032.091.088.173.163.236.098.082.222.126.348.126l.095-.008 1.245-.222c.258-.045.446-.27.446-.533v-.54c0-.263-.188-.487-.446-.533l-1.245-.222c-.158-.028-.32.015-.443.119-.123.102-.194.254-.194.414v.042c-1.108.248-1.939 1.239-1.939 2.421v8.761l-.003.03.003.124v.111l.003.035c.066 1.371.631 2.651 1.609 3.628.912.913 2.089 1.467 3.357 1.589v8.434c0 2.868-2.334 5.201-5.202 5.201-1.389 0-2.696-.541-3.678-1.523-.983-.982-1.524-2.289-1.524-3.678v-10.812l-.007-.074v-3.388c0-2.992-2.434-5.426-5.426-5.426-1.45 0-2.812.565-3.837 1.589-1.025 1.025-1.59 2.388-1.59 3.837v6.849c-1.724.276-3.046 1.773-3.046 3.574 0 1.995 1.623 3.618 3.619 3.618 1.996 0 3.619-1.623 3.619-3.618 0-1.823-1.354-3.334-3.109-3.583v-6.84c0-1.16.452-2.251 1.272-3.071.821-.82 1.912-1.272 3.072-1.272 2.395 0 4.343 1.948 4.343 4.343v13.283l.008.074v.917c0 1.678.653 3.256 1.84 4.444 1.187 1.186 2.765 1.84 4.444 1.84 3.465 0 6.284-2.819 6.285-6.284v-8.435c2.621-.256 4.709-2.357 4.948-4.983.046-.08.073-.17.073-.268l.001-9.026c0-1.182-.831-2.173-1.94-2.421zm-26.376 21.338c0 .838.682 1.52 1.52 1.52s1.52-.682 1.52-1.52c0-.839-.682-1.521-1.52-1.521s-1.52.682-1.52 1.521zm1.957 0c0 .241-.196.437-.437.437s-.437-.196-.437-.437c0-.242.196-.438.437-.438s.437.196.437.438zm2.099-.056c0 1.398-1.138 2.536-2.536 2.536-1.398 0-2.536-1.138-2.536-2.536 0-1.399 1.138-2.537 2.536-2.537 1.398 0 2.536 1.138 2.536 2.537z" fill="#fff" sketch:type="MSShapeGroup"/><path d="M29.197 120.583v-.042c0-.16-.071-.312-.194-.414-.122-.104-.284-.147-.442-.119l-1.245.222c-.259.046-.447.27-.447.533v.54c0 .263.188.488.447.533l1.245.222.095.008c.126 0 .249-.044.347-.126.076-.063.131-.145.164-.236.518.204.887.709.887 1.3v8.567c-.031.069-.05.144-.05.224 0 2.443-1.988 4.431-4.431 4.43-1.183 0-2.296-.46-3.133-1.297-.808-.808-1.264-1.873-1.294-3.009l-.001-8.915c0-.591.369-1.096.888-1.3.032.091.088.173.163.236.098.082.222.126.348.126l.095-.008 1.245-.222c.258-.045.446-.27.446-.533v-.54c0-.263-.188-.487-.446-.533l-1.245-.222c-.158-.028-.32.015-.443.119-.123.102-.194.254-.194.414v.042c-1.108.248-1.939 1.239-1.939 2.421v8.761l-.003.03.003.124v.111l.003.035c.066 1.371.631 2.651 1.609 3.628.912.913 2.089 1.467 3.357 1.589v8.434c0 2.868-2.334 5.201-5.202 5.201-1.389 0-2.696-.541-3.678-1.523-.983-.982-1.524-2.289-1.524-3.678v-10.812l-.007-.074v-3.388c0-2.992-2.434-5.426-5.426-5.426-1.45 0-2.812.565-3.837 1.589-1.025 1.025-1.59 2.388-1.59 3.837v6.849c-1.724.276-3.046 1.773-3.046 3.574 0 1.995 1.623 3.618 3.619 3.618 1.996 0 3.619-1.623 3.619-3.618 0-1.823-1.354-3.334-3.109-3.583v-6.84c0-1.16.452-2.251 1.272-3.071.821-.82 1.912-1.272 3.072-1.272 2.395 0 4.343 1.948 4.343 4.343v13.283l.008.074v.917c0 1.678.653 3.256 1.84 4.444 1.187 1.186 2.765 1.84 4.444 1.84 3.465 0 6.284-2.819 6.285-6.284v-8.435c2.621-.256 4.709-2.357 4.948-4.983.046-.08.073-.17.073-.268l.001-9.026c0-1.182-.831-2.173-1.94-2.421zm-26.376 21.338c0 .838.682 1.52 1.52 1.52s1.52-.682 1.52-1.52c0-.839-.682-1.521-1.52-1.521s-1.52.682-1.52 1.521zm1.957 0c0 .241-.196.437-.437.437s-.437-.196-.437-.437c0-.242.196-.438.437-.438s.437.196.437.438zm2.099-.056c0 1.398-1.138 2.536-2.536 2.536-1.398 0-2.536-1.138-2.536-2.536 0-1.399 1.138-2.537 2.536-2.537 1.398 0 2.536 1.138 2.536 2.537z" fill="#206FAC" sketch:type="MSShapeGroup"/></g></svg>