<svg width="32" height="232" viewBox="0 0 32 232" xmlns="http://www.w3.org/2000/svg"><desc>Created with Sketch.</desc><g fill="none"><path d="M29.197.583V.54c0-.16-.07-.31-.194-.413-.122-.104-.284-.147-.442-.12L27.32.23c-.26.046-.447.27-.447.533v.54c0 .263.188.488.447.533l1.245.222.097.008c.125 0 .25-.044.346-.126.076-.063.13-.145.164-.236.518.204.887.71.887 1.3v8.567c-.03.07-.05.148-.05.228 0 2.443-1.99 4.43-4.43 4.43-1.185 0-2.298-.46-3.135-1.297-.807-.81-1.263-1.873-1.293-3.01V3.005c0-.59.368-1.096.887-1.3.03.09.087.173.162.236.098.083.222.127.348.127l.095-.008 1.244-.225c.257-.045.445-.27.445-.533v-.54c0-.263-.188-.487-.446-.533L22.64.01c-.16-.028-.32.015-.444.12-.123.1-.194.253-.194.413v.044c-1.108.248-1.94 1.24-1.94 2.42v8.762l-.002.03.003.122v.11l.003.035c.066 1.37.63 2.65 1.61 3.628.91.913 2.088 1.467 3.356 1.59v8.433c0 2.867-2.334 5.2-5.202 5.2-1.39 0-2.696-.54-3.678-1.523-.983-.982-1.524-2.29-1.524-3.678V14.903l-.007-.074v-3.39c0-2.99-2.43-5.425-5.422-5.425-1.45 0-2.812.565-3.837 1.59C4.336 8.63 3.77 9.992 3.77 11.44v6.85c-1.724.276-3.046 1.773-3.046 3.574 0 1.995 1.623 3.618 3.62 3.618 1.995 0 3.618-1.623 3.618-3.618 0-1.823-1.352-3.334-3.11-3.583v-6.84c0-1.16.455-2.25 1.275-3.07C6.947 7.55 8.04 7.1 9.2 7.1c2.394 0 4.342 1.945 4.342 4.34V24.72l.007.075v.916c0 1.68.652 3.257 1.84 4.445C16.572 31.347 18.15 32 19.83 32c3.465 0 6.284-2.82 6.285-6.284V17.28c2.62-.255 4.71-2.356 4.948-4.982.046-.08.073-.17.073-.268V3.004c0-1.182-.83-2.173-1.94-2.42zM2.82 21.92c0 .84.683 1.52 1.52 1.52s1.52-.68 1.52-1.52c0-.838-.68-1.52-1.52-1.52s-1.52.682-1.52 1.52zm1.958 0c0 .242-.196.438-.437.438s-.433-.196-.433-.437c0-.24.196-.434.437-.434s.438.196.438.438zm2.1-.055c0 1.398-1.14 2.536-2.537 2.536S1.81 23.267 1.81 21.87c0-1.4 1.138-2.537 2.536-2.537 1.4 0 2.537 1.138 2.537 2.537z" fill="#3A434E"/><path d="M29.197 40.583v-.042c0-.16-.07-.31-.194-.41-.122-.104-.284-.147-.442-.12l-1.24.223c-.26.047-.448.27-.448.534v.54c0 .263.188.488.447.533l1.244.22.097.008c.126 0 .25-.044.347-.126.076-.062.13-.144.164-.235.52.204.888.71.888 1.3v8.567c-.03.07-.05.145-.05.225 0 2.44-1.988 4.43-4.43 4.43-1.184 0-2.297-.46-3.134-1.3-.807-.807-1.263-1.872-1.293-3.01v-8.913c0-.59.37-1.096.888-1.3.032.09.088.173.163.236.1.082.223.126.35.126l.094-.01 1.244-.22c.258-.046.446-.27.446-.534v-.54c0-.263-.188-.487-.446-.533l-1.245-.222c-.16-.027-.32.016-.445.12-.123.1-.194.254-.194.414v.043c-1.107.248-1.94 1.24-1.94 2.42V51.8l.002.124v.11l.003.035c.065 1.37.63 2.65 1.61 3.626.91.913 2.087 1.467 3.355 1.59v8.433c0 2.867-2.333 5.2-5.2 5.2-1.39 0-2.697-.54-3.68-1.523-.982-.982-1.523-2.29-1.523-3.678V54.903l-.006-.074v-3.388c0-2.992-2.433-5.426-5.425-5.426-1.45 0-2.812.565-3.837 1.59-1.025 1.024-1.59 2.387-1.59 3.836v6.85C2.05 58.567.727 60.064.727 61.865c0 1.995 1.623 3.618 3.62 3.618 1.995 0 3.618-1.623 3.618-3.618 0-1.823-1.354-3.334-3.11-3.583v-6.84c0-1.16.453-2.25 1.273-3.07.82-.82 1.912-1.273 3.072-1.273 2.394 0 4.342 1.944 4.342 4.34V64.72l.008.074v.916c0 1.678.653 3.256 1.84 4.444C16.573 71.346 18.15 72 19.83 72c3.465 0 6.284-2.82 6.285-6.284V57.28c2.62-.255 4.71-2.356 4.948-4.982.046-.08.073-.17.073-.268v-9.026c0-1.182-.83-2.173-1.94-2.42zM2.82 61.92c0 .84.683 1.52 1.52 1.52s1.52-.68 1.52-1.52c0-.838-.68-1.52-1.52-1.52s-1.52.682-1.52 1.52zm1.958 0c0 .242-.196.438-.437.438s-.433-.196-.433-.437c0-.24.196-.434.437-.434s.438.196.438.438zm2.1-.055c0 1.398-1.14 2.536-2.537 2.536S1.81 63.267 1.81 61.87c0-1.4 1.138-2.537 2.536-2.537 1.4 0 2.537 1.138 2.537 2.537z" fill="#67737B"/><path d="M29.197 80.583v-.042c0-.16-.07-.31-.194-.41-.122-.104-.284-.147-.442-.12l-1.24.223c-.26.047-.448.27-.448.534v.54c0 .263.188.488.447.533l1.244.22.097.008c.126 0 .25-.044.347-.126.076-.062.13-.144.164-.235.52.204.888.71.888 1.3v8.567c-.03.07-.05.145-.05.225 0 2.44-1.988 4.43-4.43 4.43-1.184 0-2.297-.46-3.134-1.3-.807-.807-1.263-1.872-1.293-3.01v-8.913c0-.59.37-1.096.888-1.3.032.09.088.173.163.236.1.082.223.126.35.126l.094-.01 1.244-.22c.258-.046.446-.27.446-.534v-.54c0-.263-.188-.487-.446-.533l-1.245-.222c-.16-.027-.32.016-.445.12-.123.1-.194.254-.194.414v.043c-1.107.248-1.94 1.24-1.94 2.42V91.8l.002.124v.11l.003.035c.065 1.37.63 2.65 1.61 3.626.91.913 2.087 1.467 3.355 1.59v8.433c0 2.867-2.333 5.2-5.2 5.2-1.39 0-2.697-.54-3.68-1.523-.982-.982-1.523-2.29-1.523-3.678V94.903l-.006-.074v-3.388c0-2.992-2.433-5.426-5.425-5.426-1.45 0-2.812.565-3.837 1.59-1.025 1.024-1.59 2.387-1.59 3.836v6.85c-1.724.275-3.046 1.772-3.046 3.573 0 1.995 1.623 3.618 3.62 3.618 1.995 0 3.618-1.623 3.618-3.618 0-1.823-1.354-3.334-3.11-3.583v-6.84c0-1.16.453-2.25 1.273-3.07.82-.82 1.912-1.273 3.072-1.273 2.394 0 4.342 1.944 4.342 4.34v13.282l.008.074v.916c0 1.678.653 3.256 1.84 4.444 1.187 1.186 2.765 1.84 4.444 1.84 3.465 0 6.284-2.82 6.285-6.284V97.28c2.62-.255 4.71-2.356 4.946-4.982.046-.08.073-.17.073-.268v-9.026c0-1.182-.83-2.173-1.94-2.42zM2.82 101.92c0 .84.683 1.52 1.52 1.52s1.52-.68 1.52-1.52c0-.838-.68-1.52-1.52-1.52s-1.52.682-1.52 1.52zm1.958 0c0 .242-.196.438-.437.438s-.433-.196-.433-.437c0-.24.196-.434.437-.434s.438.196.438.438zm2.1-.055c0 1.398-1.14 2.536-2.537 2.536s-2.532-1.134-2.532-2.532c0-1.4 1.138-2.537 2.536-2.537 1.4 0 2.537 1.138 2.537 2.537z" fill="#fff"/><path d="M29.197 120.583v-.042c0-.16-.07-.31-.194-.41-.122-.104-.284-.147-.442-.12l-1.24.223c-.26.047-.448.27-.448.534v.54c0 .263.188.488.447.533l1.244.22.097.008c.126 0 .25-.044.347-.126.076-.062.13-.144.164-.235.52.204.888.71.888 1.3v8.567c-.03.07-.05.145-.05.225 0 2.44-1.988 4.43-4.43 4.43-1.184 0-2.297-.46-3.134-1.3-.807-.807-1.263-1.872-1.293-3.01v-8.913c0-.59.37-1.096.888-1.3.032.09.088.173.163.236.1.082.223.126.35.126l.094-.01 1.244-.22c.258-.046.446-.27.446-.534v-.54c0-.263-.188-.487-.446-.533l-1.245-.222c-.16-.027-.32.016-.445.12-.123.1-.194.254-.194.414v.043c-1.107.248-1.94 1.24-1.94 2.42v8.792l.002.123v.11l.003.035c.065 1.37.63 2.65 1.61 3.627.91.913 2.087 1.467 3.355 1.59v8.433c0 2.868-2.333 5.2-5.2 5.2-1.39 0-2.697-.54-3.68-1.522-.982-.982-1.523-2.29-1.523-3.678v-10.812l-.006-.074v-3.388c0-2.992-2.433-5.426-5.425-5.426-1.45 0-2.812.565-3.837 1.59-1.025 1.024-1.59 2.387-1.59 3.836v6.85c-1.724.275-3.046 1.772-3.046 3.573 0 1.994 1.623 3.617 3.62 3.617 1.995 0 3.618-1.623 3.618-3.618 0-1.824-1.354-3.335-3.11-3.584v-6.84c0-1.16.453-2.25 1.273-3.07.82-.82 1.912-1.273 3.072-1.273 2.394 0 4.342 1.947 4.342 4.342v13.283l.008.073v.916c0 1.677.653 3.255 1.84 4.443 1.187 1.186 2.765 1.84 4.444 1.84 3.465 0 6.284-2.82 6.285-6.284v-8.436c2.62-.254 4.71-2.355 4.946-4.98.046-.08.073-.17.073-.27v-9.025c0-1.183-.83-2.174-1.94-2.42zM2.82 141.92c0 .84.683 1.52 1.52 1.52s1.52-.68 1.52-1.52c0-.838-.68-1.52-1.52-1.52s-1.52.682-1.52 1.52zm1.958 0c0 .242-.196.438-.437.438s-.433-.196-.433-.437c0-.24.196-.434.437-.434s.438.196.438.438zm2.1-.055c0 1.398-1.14 2.536-2.537 2.536s-2.532-1.134-2.532-2.532c0-1.4 1.138-2.537 2.536-2.537 1.4 0 2.537 1.138 2.537 2.537z" fill="#206FAC"/></g></svg>