<svg width="32" height="232" viewBox="0 0 32 232" xmlns="http://www.w3.org/2000/svg"><desc>Created with Sketch.</desc><g fill="none"><path d="M29.197.583V.54c0-.16-.07-.31-.194-.413-.122-.104-.284-.147-.442-.12L27.32.23c-.26.046-.447.27-.447.533v.54c0 .263.188.488.447.533l1.245.222.097.008c.125 0 .25-.044.346-.126.076-.063.13-.145.164-.236.518.204.887.71.887 1.3v8.567c-.03.07-.05.15-.05.23 0 2.45-1.99 4.43-4.43 4.43-1.19 0-2.3-.46-3.14-1.29-.81-.81-1.27-1.87-1.3-3.01V3.01c0-.59.37-1.096.88-1.3.03.09.08.173.16.236.09.086.22.13.34.13l.09-.01 1.24-.223c.25-.045.44-.27.44-.533V.77c0-.264-.19-.488-.448-.534L22.64.01c-.16-.028-.32.015-.444.12-.123.1-.194.253-.194.413v.044c-1.108.248-1.94 1.24-1.94 2.42v8.762l-.002.03.003.12v.11l.003.03c.066 1.37.63 2.65 1.61 3.63.91.91 2.088 1.46 3.356 1.59v8.43c0 2.86-2.334 5.2-5.202 5.2-1.39 0-2.696-.54-3.678-1.53-.983-.98-1.524-2.29-1.524-3.68V14.9l-.007-.074v-3.39c0-2.99-2.43-5.43-5.42-5.43-1.45 0-2.81.565-3.83 1.59-1.03 1.03-1.59 2.392-1.59 3.84v6.85c-1.72.28-3.05 1.776-3.05 3.577 0 1.995 1.63 3.618 3.62 3.618s3.62-1.62 3.62-3.61c0-1.82-1.35-3.33-3.11-3.58v-6.84c0-1.16.46-2.25 1.28-3.07.82-.82 1.91-1.27 3.07-1.27 2.4 0 4.35 1.95 4.35 4.34v13.28l.01.08v.92c0 1.68.65 3.26 1.84 4.45 1.18 1.19 2.76 1.84 4.44 1.84 3.46 0 6.28-2.82 6.28-6.28V17.3c2.62-.256 4.71-2.357 4.95-4.983.05-.08.08-.17.08-.267V3.01c0-1.183-.83-2.174-1.94-2.42zM2.82 21.92c0 .84.683 1.52 1.52 1.52s1.52-.68 1.52-1.52c0-.838-.68-1.52-1.52-1.52s-1.52.682-1.52 1.52zm1.958 0c0 .242-.196.438-.437.438s-.43-.196-.43-.437c0-.24.2-.43.44-.43s.44.2.44.44zm2.1-.055c0 1.398-1.14 2.536-2.537 2.536s-2.53-1.13-2.53-2.53 1.14-2.53 2.54-2.53c1.4 0 2.54 1.14 2.54 2.54z" fill="#3A434E"/><path d="M29.197 40.583v-.042c0-.16-.07-.31-.194-.41-.122-.1-.284-.14-.442-.12l-1.24.23c-.26.05-.44.27-.44.54v.54c0 .27.19.49.45.54l1.25.22.1.01c.13 0 .25-.04.35-.12.08-.06.13-.14.17-.23.52.21.89.71.89 1.3v8.57c-.03.07-.05.15-.05.23 0 2.44-1.99 4.43-4.43 4.43-1.18 0-2.3-.46-3.13-1.3-.8-.81-1.26-1.87-1.29-3.01v-8.92c0-.59.37-1.094.89-1.3.03.09.09.17.17.238.1.08.22.124.35.124l.093-.01 1.245-.22c.26-.04.45-.27.45-.53v-.54c0-.26-.185-.482-.443-.53l-1.24-.22c-.16-.027-.32.016-.442.12-.124.1-.195.254-.195.414v.044c-1.11.25-1.94 1.24-1.94 2.42v9.06c.067 1.37.63 2.65 1.61 3.62.91.917 2.09 1.47 3.357 1.59v8.437c0 2.866-2.334 5.2-5.2 5.2-1.39 0-2.7-.54-3.68-1.524-.98-.98-1.524-2.29-1.524-3.675V54.91l-.004-.075v-3.39c0-2.99-2.434-5.43-5.426-5.43-1.45 0-2.81.563-3.83 1.59-1.028 1.02-1.59 2.385-1.59 3.834v6.85C2.1 58.57.78 60.06.78 61.87c0 1.99 1.62 3.61 3.62 3.61 1.985 0 3.61-1.62 3.61-3.62 0-1.82-1.357-3.33-3.11-3.58v-6.84c0-1.16.45-2.25 1.27-3.07.82-.82 1.914-1.27 3.074-1.27 2.393 0 4.34 1.94 4.34 4.34v13.28l.006.07v.92c0 1.67.654 3.25 1.84 4.44 1.173 1.19 2.75 1.85 4.43 1.85 3.466 0 6.285-2.82 6.286-6.29v-8.44c2.62-.26 4.71-2.36 4.947-4.98.045-.08.07-.17.07-.27V43c0-1.18-.83-2.172-1.94-2.42zM2.82 61.92c0 .84.683 1.52 1.52 1.52s1.52-.68 1.52-1.52c0-.838-.68-1.52-1.52-1.52s-1.52.682-1.52 1.52zm1.958 0c0 .242-.196.438-.437.438s-.43-.196-.43-.437c0-.24.2-.43.44-.43s.44.2.44.44zm2.1-.055c0 1.398-1.14 2.536-2.537 2.536s-2.53-1.13-2.53-2.53 1.14-2.53 2.54-2.53c1.4 0 2.54 1.14 2.54 2.54z" fill="#67737B"/><path d="M29.197 80.583v-.042c0-.16-.07-.31-.194-.41-.122-.1-.284-.14-.442-.12l-1.24.23c-.26.05-.44.27-.44.54v.54c0 .27.19.49.45.54l1.25.22.1.01c.13 0 .25-.04.35-.12.08-.06.13-.14.17-.23.52.21.89.71.89 1.3v8.57c-.03.07-.05.15-.05.23 0 2.44-1.99 4.43-4.43 4.43-1.18 0-2.3-.46-3.13-1.3-.8-.81-1.26-1.87-1.29-3.01v-8.92c0-.59.37-1.094.89-1.3.03.09.09.17.17.238.1.08.22.124.35.124l.093-.01 1.245-.22c.26-.04.45-.27.45-.53v-.54c0-.26-.185-.482-.443-.53l-1.24-.22c-.16-.027-.32.016-.442.12-.124.1-.195.254-.195.414v.044c-1.11.25-1.94 1.24-1.94 2.42v9.06c.067 1.37.63 2.65 1.61 3.62.91.917 2.09 1.47 3.357 1.59v8.437c0 2.866-2.334 5.2-5.2 5.2-1.39 0-2.7-.54-3.68-1.524-.98-.98-1.524-2.29-1.524-3.675V94.91l-.004-.075v-3.39c0-2.99-2.434-5.43-5.426-5.43-1.45 0-2.81.563-3.83 1.59-1.028 1.02-1.59 2.385-1.59 3.834v6.85c-1.728.27-3.05 1.77-3.05 3.57 0 1.99 1.623 3.62 3.62 3.62s3.6-1.63 3.6-3.62c0-1.82-1.356-3.33-3.11-3.58v-6.84c0-1.16.45-2.25 1.27-3.07.82-.82 1.91-1.27 3.07-1.27 2.39 0 4.34 1.94 4.34 4.34v13.28l.005.07v.91c0 1.68.65 3.25 1.84 4.44 1.184 1.183 2.76 1.84 4.44 1.84 3.47 0 6.288-2.82 6.29-6.287v-8.43c2.62-.26 4.71-2.36 4.95-4.98.044-.08.07-.17.07-.27V83c0-1.18-.83-2.172-1.94-2.42zM2.82 101.92c0 .84.683 1.52 1.52 1.52s1.52-.68 1.52-1.52c0-.838-.68-1.52-1.52-1.52s-1.52.682-1.52 1.52zm1.958 0c0 .242-.196.438-.437.438s-.43-.196-.43-.437c0-.24.2-.43.44-.43s.44.2.44.44zm2.1-.055c0 1.398-1.14 2.536-2.537 2.536s-2.53-1.13-2.53-2.53 1.14-2.53 2.54-2.53c1.4 0 2.54 1.14 2.54 2.54z" fill="#fff"/><path d="M29.197 120.583v-.042c0-.16-.07-.31-.194-.41-.122-.1-.284-.14-.442-.12l-1.24.23c-.26.05-.44.27-.44.54v.54c0 .27.19.49.45.54l1.25.22.1.01c.13 0 .25-.04.35-.12.08-.06.13-.14.17-.23.52.21.89.71.89 1.3v8.57c-.03.07-.05.15-.05.23 0 2.44-1.99 4.43-4.43 4.43-1.18 0-2.3-.46-3.13-1.3-.8-.81-1.26-1.87-1.29-3.01v-8.91c0-.59.37-1.1.89-1.3.03.09.09.17.17.233.1.08.22.123.35.123l.093-.01 1.245-.22c.26-.047.45-.27.45-.535v-.54c0-.26-.185-.48-.443-.53l-1.24-.22c-.16-.022-.32.02-.442.12-.124.1-.195.26-.195.42v.045c-1.11.248-1.94 1.24-1.94 2.42v9.054c.067 1.37.63 2.65 1.61 3.63.91.91 2.09 1.466 3.357 1.59v8.43c0 2.87-2.334 5.2-5.2 5.2-1.39 0-2.7-.54-3.68-1.52s-1.524-2.29-1.524-3.676v-10.82l-.004-.073v-3.383c0-2.99-2.434-5.423-5.426-5.423-1.45 0-2.81.563-3.83 1.59-1.028 1.02-1.59 2.385-1.59 3.834v6.85c-1.73.27-3.05 1.766-3.05 3.568 0 1.99 1.62 3.614 3.62 3.614s3.6-1.635 3.6-3.63c0-1.82-1.36-3.333-3.11-3.58v-6.84c0-1.16.45-2.25 1.27-3.07.82-.82 1.91-1.27 3.07-1.27 2.392 0 4.34 1.945 4.34 4.34v13.283l.007.072v.914c0 1.673.655 3.25 1.84 4.44 1.19 1.19 2.767 1.84 4.446 1.84 3.465 0 6.284-2.82 6.285-6.28v-8.43c2.62-.254 4.71-2.355 4.95-4.98.04-.08.07-.17.07-.27V123c0-1.183-.83-2.174-1.94-2.42zM2.82 141.92c0 .84.683 1.52 1.52 1.52s1.52-.68 1.52-1.52c0-.838-.68-1.52-1.52-1.52s-1.52.682-1.52 1.52zm1.958 0c0 .242-.196.438-.437.438s-.43-.196-.43-.437c0-.24.2-.43.44-.43s.44.2.44.44zm2.1-.055c0 1.398-1.14 2.536-2.537 2.536s-2.53-1.13-2.53-2.53 1.14-2.53 2.54-2.53c1.4 0 2.54 1.14 2.54 2.54z" fill="#206FAC"/></g></svg>