<svg width="32" height="232" viewBox="0 0 32 232" xmlns="http://www.w3.org/2000/svg" xmlns:sketch="http://www.bohemiancoding.com/sketch/ns"><title>hitchiking</title><desc>Created with Sketch.</desc><g sketch:type="MSPage" fill="none"><path d="M28.942 18.62c-.288-.562-.761-.983-1.324-1.208.301-.29.527-.651.659-1.06.209-.651.153-1.346-.16-1.955-.329-.641-.898-1.1-1.567-1.293.154-.214.277-.453.36-.712.21-.652.153-1.346-.159-1.955-.432-.84-1.278-1.368-2.219-1.391.199-.623.161-1.321-.16-1.948-.441-.859-1.316-1.393-2.282-1.393-.404 0-.808.098-1.169.283l-3.872 1.988-1.91-6.119-.009-.027c-.259-.701-.774-1.259-1.452-1.571-.678-.313-1.438-.343-2.138-.084l-1.609.594c-.146.053-.263.164-.324.306-.062.142-.063.303-.003.446.012.03 1.272 3.061 1.773 6.418.597 3.998-.081 6.685-2.013 8l-.466-.908c-.069-.134-.188-.235-.331-.281-.144-.046-.299-.034-.434.035l-5.224 2.681c-.134.069-.235.188-.281.332-.047.143-.034.299.035.433l1.653 3.22c.143.279.485.389.764.246.279-.143.389-.486.246-.765l-1.393-2.714 4.214-2.163 6.389 12.451-4.214 2.162-3.446-6.716c-.144-.279-.486-.389-.765-.246-.279.143-.389.486-.246.765l3.706 7.221c.068.134.188.235.331.281l.174.028c.089 0 .178-.022.259-.063l5.225-2.681c.279-.143.389-.486.246-.765l-.595-1.16.417.012c.974 0 2.309-.184 3.745-.92l6.756-3.467.094-.061 1.609-.826c.609-.313 1.06-.844 1.27-1.495.21-.652.153-1.346-.16-1.955zm-1.835-3.704c.174.339.205.726.088 1.088-.116.363-.367.659-.706.833l-4.588 2.354c-.204.105-.423.158-.65.158-.539 0-1.026-.297-1.272-.776-.359-.7-.082-1.562.618-1.922l4.588-2.354c.204-.104.423-.158.65-.158.539 0 1.026.298 1.272.777zm-1.367-3.96c.174.339.206.725.089 1.088-.117.363-.368.659-.707.833l-5.115 2.625c-.204.104-.423.157-.65.157-.538 0-1.026-.297-1.271-.776-.174-.339-.206-.725-.089-1.088.117-.363.368-.659.707-.833l5.115-2.625c.204-.104.423-.158.65-.158.538 0 1.026.298 1.271.777zm-4.3-3.957c.204-.105.423-.158.65-.158.538 0 1.026.297 1.271.776.36.7.082 1.562-.618 1.922l-4.587 2.354c-.205.105-.423.157-.651.157-.538 0-1.026-.297-1.271-.775-.174-.34-.206-.726-.089-1.089.117-.363.368-.659.707-.833l4.588-2.354zm-2.586 18.414c-1.93.991-3.664.813-4.266.706l-4.702-9.162c2.384-1.54 3.287-4.706 2.611-9.205-.4-2.665-1.232-5.07-1.629-6.119l1.065-.393c.416-.153.867-.135 1.269.05.399.184.703.51.858.92l1.971 6.318c-.455.319-.794.772-.967 1.31-.21.652-.153 1.346.159 1.955.369.718 1.04 1.208 1.815 1.35l-.122.304c-.21.651-.153 1.346.159 1.955.38.741 1.083 1.239 1.889 1.362-.357.708-.384 1.57.005 2.328.378.737 1.077 1.234 1.878 1.36-.058.116-.11.236-.151.362-.209.652-.152 1.346.16 1.955.24.467.608.837 1.049 1.079l-3.051 1.565zm9.167-5.186c-.117.363-.368.658-.707.832l-3.526 1.81c-.204.105-.423.158-.65.158-.539 0-1.026-.298-1.271-.776-.174-.339-.206-.726-.089-1.089.116-.363.367-.659.706-.833l3.526-1.809c.205-.105.423-.158.65-.158.539 0 1.026.297 1.272.776.174.339.206.726.089 1.089z" fill="#3A434E" sketch:type="MSShapeGroup"/><path d="M28.942 58.62c-.288-.562-.761-.983-1.324-1.208.301-.29.527-.651.659-1.06.209-.651.153-1.346-.16-1.955-.329-.641-.898-1.1-1.567-1.293.154-.214.277-.453.36-.712.21-.652.153-1.346-.159-1.955-.432-.84-1.278-1.368-2.219-1.391.199-.623.161-1.321-.16-1.948-.441-.859-1.316-1.393-2.282-1.393-.404 0-.808.098-1.169.283l-3.872 1.988-1.91-6.119-.009-.027c-.259-.701-.774-1.259-1.452-1.571-.678-.313-1.438-.343-2.138-.084l-1.609.594c-.146.053-.263.164-.324.306-.062.142-.063.303-.003.446.012.03 1.272 3.061 1.773 6.418.597 3.998-.081 6.685-2.013 8l-.466-.908c-.069-.134-.188-.235-.331-.281-.144-.046-.299-.034-.434.035l-5.224 2.681c-.134.069-.235.188-.281.332-.047.143-.034.299.035.433l1.653 3.22c.143.279.485.389.764.246.279-.143.389-.486.246-.765l-1.393-2.714 4.214-2.163 6.389 12.451-4.214 2.162-3.446-6.716c-.144-.279-.486-.389-.765-.246-.279.143-.389.486-.246.765l3.706 7.221c.068.134.188.235.331.281l.174.028c.089 0 .178-.022.259-.063l5.225-2.681c.279-.143.389-.486.246-.765l-.595-1.16.417.012c.974 0 2.309-.184 3.745-.92l6.756-3.467.094-.061 1.609-.826c.609-.313 1.06-.844 1.27-1.495.21-.652.153-1.346-.16-1.955zm-1.835-3.704c.174.339.205.726.088 1.088-.116.363-.367.659-.706.833l-4.588 2.354c-.204.105-.423.158-.65.158-.539 0-1.026-.297-1.272-.776-.359-.7-.082-1.562.618-1.922l4.588-2.354c.204-.104.423-.158.65-.158.539 0 1.026.298 1.272.777zm-1.367-3.96c.174.339.206.725.089 1.088-.117.363-.368.659-.707.833l-5.115 2.625c-.204.104-.423.157-.65.157-.538 0-1.026-.297-1.271-.776-.174-.339-.206-.725-.089-1.088.117-.363.368-.659.707-.833l5.115-2.625c.204-.104.423-.158.65-.158.538 0 1.026.298 1.271.777zm-4.3-3.957c.204-.105.423-.158.65-.158.538 0 1.026.297 1.271.776.36.7.082 1.562-.618 1.922l-4.587 2.354c-.205.105-.423.157-.651.157-.538 0-1.026-.297-1.271-.775-.174-.34-.206-.726-.089-1.089.117-.363.368-.659.707-.833l4.588-2.354zm-2.586 18.414c-1.93.991-3.664.813-4.266.706l-4.702-9.162c2.384-1.54 3.287-4.706 2.611-9.205-.4-2.665-1.232-5.07-1.629-6.119l1.065-.393c.416-.153.867-.135 1.269.05.399.184.703.51.858.92l1.971 6.318c-.455.319-.794.772-.967 1.31-.21.652-.153 1.346.159 1.955.369.718 1.04 1.208 1.815 1.35l-.122.304c-.21.651-.153 1.346.159 1.955.38.741 1.083 1.239 1.889 1.362-.357.708-.384 1.57.005 2.328.378.737 1.077 1.234 1.878 1.36-.058.116-.11.236-.151.362-.209.652-.152 1.346.16 1.955.24.467.608.837 1.049 1.079l-3.051 1.565zm9.167-5.186c-.117.363-.368.658-.707.832l-3.526 1.81c-.204.105-.423.158-.65.158-.539 0-1.026-.298-1.271-.776-.174-.339-.206-.726-.089-1.089.116-.363.367-.659.706-.833l3.526-1.809c.205-.105.423-.158.65-.158.539 0 1.026.297 1.272.776.174.339.206.726.089 1.089z" fill="#67737B" sketch:type="MSShapeGroup"/><path d="M28.942 98.62c-.288-.562-.761-.983-1.324-1.208.301-.29.527-.651.659-1.06.209-.651.153-1.346-.16-1.955-.329-.641-.898-1.1-1.567-1.293.154-.214.277-.453.36-.712.21-.652.153-1.346-.159-1.955-.432-.84-1.278-1.368-2.219-1.391.199-.623.161-1.321-.16-1.948-.441-.859-1.316-1.393-2.282-1.393-.404 0-.808.098-1.169.283l-3.872 1.988-1.91-6.119-.009-.027c-.259-.701-.774-1.259-1.452-1.571-.678-.313-1.438-.343-2.138-.084l-1.609.594c-.146.053-.263.164-.324.306-.062.142-.063.303-.003.446.012.03 1.272 3.061 1.773 6.418.597 3.998-.081 6.685-2.013 8l-.466-.908c-.069-.134-.188-.235-.331-.281-.144-.046-.299-.034-.434.035l-5.224 2.681c-.134.069-.235.188-.281.332-.047.143-.034.299.035.433l1.653 3.22c.143.279.485.389.764.246.279-.143.389-.486.246-.765l-1.393-2.714 4.214-2.163 6.389 12.451-4.214 2.162-3.446-6.716c-.144-.279-.486-.389-.765-.246-.279.143-.389.486-.246.765l3.706 7.221c.068.134.188.235.331.281l.174.028c.089 0 .178-.022.259-.063l5.225-2.681c.279-.143.389-.486.246-.765l-.595-1.16.417.012c.974 0 2.309-.184 3.745-.92l6.756-3.467.094-.061 1.609-.826c.609-.313 1.06-.844 1.27-1.495.21-.652.153-1.346-.16-1.955zm-1.835-3.704c.174.339.205.726.088 1.088-.116.363-.367.659-.706.833l-4.588 2.354c-.204.105-.423.158-.65.158-.539 0-1.026-.297-1.272-.776-.359-.7-.082-1.562.618-1.922l4.588-2.354c.204-.104.423-.158.65-.158.539 0 1.026.298 1.272.777zm-1.367-3.96c.174.339.206.725.089 1.088-.117.363-.368.659-.707.833l-5.115 2.625c-.204.104-.423.157-.65.157-.538 0-1.026-.297-1.271-.776-.174-.339-.206-.725-.089-1.088.117-.363.368-.659.707-.833l5.115-2.625c.204-.104.423-.158.65-.158.538 0 1.026.298 1.271.777zm-4.3-3.957c.204-.105.423-.158.65-.158.538 0 1.026.297 1.271.776.36.7.082 1.562-.618 1.922l-4.587 2.354c-.205.105-.423.157-.651.157-.538 0-1.026-.297-1.271-.775-.174-.34-.206-.726-.089-1.089.117-.363.368-.659.707-.833l4.588-2.354zm-2.586 18.414c-1.93.991-3.664.813-4.266.706l-4.702-9.162c2.384-1.54 3.287-4.706 2.611-9.205-.4-2.665-1.232-5.07-1.629-6.119l1.065-.393c.416-.153.867-.135 1.269.05.399.184.703.51.858.92l1.971 6.318c-.455.319-.794.772-.967 1.31-.21.652-.153 1.346.159 1.955.369.718 1.04 1.208 1.815 1.35l-.122.304c-.21.651-.153 1.346.159 1.955.38.741 1.083 1.239 1.889 1.362-.357.708-.384 1.57.005 2.328.378.737 1.077 1.234 1.878 1.36-.058.116-.11.236-.151.362-.209.652-.152 1.346.16 1.955.24.467.608.837 1.049 1.079l-3.051 1.565zm9.167-5.186c-.117.363-.368.658-.707.832l-3.526 1.81c-.204.105-.423.158-.65.158-.539 0-1.026-.298-1.271-.776-.174-.339-.206-.726-.089-1.089.116-.363.367-.659.706-.833l3.526-1.809c.205-.105.423-.158.65-.158.539 0 1.026.297 1.272.776.174.339.206.726.089 1.089z" fill="#fff" sketch:type="MSShapeGroup"/><path d="M28.942 138.62c-.288-.562-.761-.983-1.324-1.208.301-.29.527-.651.659-1.06.209-.651.153-1.346-.16-1.955-.329-.641-.898-1.1-1.567-1.293.154-.214.277-.453.36-.712.21-.652.153-1.346-.159-1.955-.432-.84-1.278-1.368-2.219-1.391.199-.623.161-1.321-.16-1.948-.441-.859-1.316-1.393-2.282-1.393-.404 0-.808.098-1.169.283l-3.872 1.988-1.91-6.119-.009-.027c-.259-.701-.774-1.259-1.452-1.571-.678-.313-1.438-.343-2.138-.084l-1.609.594c-.146.053-.263.164-.324.306-.062.142-.063.303-.003.446.012.03 1.272 3.061 1.773 6.418.597 3.998-.081 6.685-2.013 8l-.466-.908c-.069-.134-.188-.235-.331-.281-.144-.046-.299-.034-.434.035l-5.224 2.681c-.134.069-.235.188-.281.332-.047.143-.034.299.035.433l1.653 3.22c.143.279.485.389.764.246.279-.143.389-.486.246-.765l-1.393-2.714 4.214-2.163 6.389 12.451-4.214 2.162-3.446-6.716c-.144-.279-.486-.389-.765-.246-.279.143-.389.486-.246.765l3.706 7.221c.068.134.188.235.331.281l.174.028c.089 0 .178-.022.259-.063l5.225-2.681c.279-.143.389-.486.246-.765l-.595-1.16.417.012c.974 0 2.309-.184 3.745-.92l6.756-3.467.094-.061 1.609-.826c.609-.313 1.06-.844 1.27-1.495.21-.652.153-1.346-.16-1.955zm-1.835-3.704c.174.339.205.726.088 1.088-.116.363-.367.659-.706.833l-4.588 2.354c-.204.105-.423.158-.65.158-.539 0-1.026-.297-1.272-.776-.359-.7-.082-1.562.618-1.922l4.588-2.354c.204-.104.423-.158.65-.158.539 0 1.026.298 1.272.777zm-1.367-3.96c.174.339.206.725.089 1.088-.117.363-.368.659-.707.833l-5.115 2.625c-.204.104-.423.157-.65.157-.538 0-1.026-.297-1.271-.776-.174-.339-.206-.725-.089-1.088.117-.363.368-.659.707-.833l5.115-2.625c.204-.104.423-.158.65-.158.538 0 1.026.298 1.271.777zm-4.3-3.957c.204-.105.423-.158.65-.158.538 0 1.026.297 1.271.776.36.7.082 1.562-.618 1.922l-4.587 2.354c-.205.105-.423.157-.651.157-.538 0-1.026-.297-1.271-.775-.174-.34-.206-.726-.089-1.089.117-.363.368-.659.707-.833l4.588-2.354zm-2.586 18.414c-1.93.991-3.664.813-4.266.706l-4.702-9.162c2.384-1.54 3.287-4.706 2.611-9.205-.4-2.665-1.232-5.07-1.629-6.119l1.065-.393c.416-.153.867-.135 1.269.05.399.184.703.51.858.92l1.971 6.318c-.455.319-.794.772-.967 1.31-.21.652-.153 1.346.159 1.955.369.718 1.04 1.208 1.815 1.35l-.122.304c-.21.651-.153 1.346.159 1.955.38.741 1.083 1.239 1.889 1.362-.357.708-.384 1.57.005 2.328.378.737 1.077 1.234 1.878 1.36-.058.116-.11.236-.151.362-.209.652-.152 1.346.16 1.955.24.467.608.837 1.049 1.079l-3.051 1.565zm9.167-5.186c-.117.363-.368.658-.707.832l-3.526 1.81c-.204.105-.423.158-.65.158-.539 0-1.026-.298-1.271-.776-.174-.339-.206-.726-.089-1.089.116-.363.367-.659.706-.833l3.526-1.809c.205-.105.423-.158.65-.158.539 0 1.026.297 1.272.776.174.339.206.726.089 1.089z" fill="#206FAC" sketch:type="MSShapeGroup"/></g></svg>