<svg width="32" height="232" viewBox="0 0 32 232" xmlns="http://www.w3.org/2000/svg"><title>insurance</title><desc>Created with Sketch.</desc><g fill="none"><path d="M30.447 15.924c0-7.78-6.17-14.145-13.875-14.46V.598c0-.33-.268-.598-.598-.598-.33 0-.6.268-.6.598v.866C7.672 1.78 1.5 8.144 1.5 15.924c0 .296.216.54.5.587l.087.01.01.002h.012c.186 0 .37-.085.488-.25.69-.96 1.804-1.535 2.98-1.535 1.126 0 2.194.528 2.888 1.417.084.2.275.344.5.363l.02.002.032.002h.028l.078-.005.027-.005.056-.013.027-.01.073-.03h.004l.075-.046.006-.004.008-.006.085-.074.046-.057c.69-.962 1.802-1.536 2.978-1.536 1.115 0 2.173.517 2.867 1.39v13.08c0 1.54 1.253 2.793 2.793 2.793 1.54 0 2.793-1.254 2.793-2.794 0-.33-.267-.598-.597-.598-.33 0-.6.268-.6.598 0 .88-.715 1.596-1.595 1.596s-1.596-.716-1.596-1.596v-13.08c.695-.873 1.753-1.39 2.867-1.39 1.175 0 2.288.575 2.978 1.537l.044.055.003.003.083.074.007.006.007.004.075.046h.004l.073.03.027.01.056.012.027.005.077.005h.028l.034-.003.018-.003c.226-.02.418-.162.502-.363.694-.89 1.76-1.417 2.888-1.417 1.175 0 2.29.574 2.978 1.536.117.163.302.25.49.248l.01.002h.01l.09-.01c.283-.048.5-.29.5-.588zM5.577 13.54c-1.01 0-1.986.32-2.796.892.61-5.413 4.485-9.852 9.605-11.29-.685.698-1.314 1.604-1.864 2.703-1.183 2.36-1.9 5.388-2.064 8.646-.827-.607-1.833-.95-2.88-.95zm6.93 0c-1.033 0-2.03.336-2.85.932.16-3.063.833-5.895 1.933-8.09 1.058-2.11 2.384-3.39 3.785-3.674v11.775c-.824-.603-1.826-.943-2.867-.943zm6.932 0c-1.04 0-2.044.34-2.868.943V2.708c1.402.284 2.727 1.564 3.785 3.673 1.1 2.197 1.773 5.03 1.935 8.093-.822-.597-1.82-.933-2.853-.933zm6.93 0c-1.045 0-2.053.343-2.878.95-.164-3.257-.882-6.286-2.065-8.645-.55-1.1-1.18-2.005-1.864-2.704 5.12 1.44 8.994 5.88 9.603 11.292-.81-.57-1.785-.892-2.796-.892z" fill="#3A434E"/><path d="M30.447 55.924c0-7.78-6.17-14.145-13.875-14.46v-.866c0-.33-.268-.598-.598-.598-.33 0-.6.268-.6.598v.866C7.672 41.78 1.5 48.144 1.5 55.924c0 .296.216.54.5.587l.087.01.01.002h.012c.186 0 .37-.085.488-.25.69-.96 1.804-1.535 2.98-1.535 1.126 0 2.194.528 2.888 1.417.084.2.275.344.5.363l.02.002.032.002h.028l.078-.005.027-.005.056-.013.027-.01.073-.03h.004l.075-.046.006-.004.008-.006.085-.074.046-.057c.69-.962 1.802-1.536 2.978-1.536 1.115 0 2.173.517 2.867 1.39v13.08c0 1.54 1.253 2.793 2.793 2.793 1.54 0 2.793-1.254 2.793-2.794 0-.33-.267-.598-.597-.598-.33 0-.6.268-.6.598 0 .88-.715 1.596-1.595 1.596s-1.596-.716-1.596-1.596v-13.08c.695-.873 1.753-1.39 2.867-1.39 1.175 0 2.288.575 2.978 1.537l.044.055.003.003.083.074.007.006.007.004.075.046h.004l.073.03.027.01.056.012.027.005.077.005h.028l.034-.003.018-.003c.226-.02.418-.162.502-.363.694-.89 1.76-1.417 2.888-1.417 1.175 0 2.29.574 2.978 1.536.117.163.302.25.49.248l.01.002h.01l.09-.01c.283-.048.5-.29.5-.588zM5.577 53.54c-1.01 0-1.986.32-2.796.892.61-5.413 4.485-9.852 9.605-11.29-.685.698-1.314 1.604-1.864 2.703-1.183 2.36-1.9 5.388-2.064 8.646-.827-.607-1.833-.95-2.88-.95zm6.93 0c-1.033 0-2.03.336-2.85.932.16-3.063.833-5.895 1.933-8.09 1.058-2.11 2.384-3.39 3.785-3.674v11.775c-.824-.603-1.826-.943-2.867-.943zm6.932 0c-1.04 0-2.044.34-2.868.943V42.708c1.402.284 2.727 1.564 3.785 3.673 1.1 2.197 1.773 5.03 1.935 8.093-.822-.597-1.82-.933-2.853-.933zm6.93 0c-1.045 0-2.053.343-2.878.95-.164-3.257-.882-6.286-2.065-8.645-.55-1.1-1.18-2.005-1.864-2.704 5.12 1.44 8.994 5.88 9.603 11.292-.81-.57-1.785-.892-2.796-.892z" fill="#67737B"/><path d="M30.447 95.924c0-7.78-6.17-14.145-13.875-14.46v-.866c0-.33-.268-.598-.598-.598-.33 0-.6.268-.6.598v.866C7.672 81.78 1.5 88.144 1.5 95.924c0 .296.216.54.5.587l.087.01.01.002h.012c.186 0 .37-.085.488-.25.69-.96 1.804-1.535 2.98-1.535 1.126 0 2.194.528 2.888 1.417.084.2.275.344.5.363l.02.002.032.002h.028l.078-.005.027-.005.056-.013.027-.01.073-.03h.004l.075-.046.006-.004.008-.006.085-.074.046-.057c.69-.962 1.802-1.536 2.978-1.536 1.115 0 2.173.517 2.867 1.39v13.08c0 1.54 1.253 2.793 2.793 2.793 1.54 0 2.793-1.254 2.793-2.794 0-.33-.267-.598-.597-.598-.33 0-.6.268-.6.598 0 .88-.715 1.596-1.595 1.596s-1.596-.716-1.596-1.596v-13.08c.695-.873 1.753-1.39 2.867-1.39 1.175 0 2.288.575 2.978 1.537l.044.055.003.003.083.074.007.006.007.004.075.046h.004l.073.03.027.01.056.012.027.005.077.005h.028l.034-.003.018-.003c.226-.02.418-.162.502-.363.694-.89 1.76-1.417 2.888-1.417 1.175 0 2.29.574 2.978 1.536.117.163.302.25.49.248l.01.002h.01l.09-.01c.283-.048.5-.29.5-.588zM5.577 93.54c-1.01 0-1.986.32-2.796.892.61-5.413 4.485-9.852 9.605-11.29-.685.698-1.314 1.604-1.864 2.703-1.183 2.36-1.9 5.388-2.064 8.646-.827-.607-1.833-.95-2.88-.95zm6.93 0c-1.033 0-2.03.336-2.85.932.16-3.063.833-5.895 1.933-8.09 1.058-2.11 2.384-3.39 3.785-3.674v11.775c-.824-.603-1.826-.943-2.867-.943zm6.932 0c-1.04 0-2.044.34-2.868.943V82.708c1.402.284 2.727 1.564 3.785 3.673 1.1 2.197 1.773 5.03 1.935 8.093-.822-.597-1.82-.933-2.853-.933zm6.93 0c-1.045 0-2.053.343-2.878.95-.164-3.257-.882-6.286-2.065-8.645-.55-1.1-1.18-2.005-1.864-2.704 5.12 1.44 8.994 5.88 9.603 11.292-.81-.57-1.785-.892-2.796-.892z" fill="#fff"/><path d="M30.447 135.924c0-7.78-6.17-14.145-13.875-14.46v-.866c0-.33-.268-.598-.598-.598-.33 0-.6.268-.6.598v.866c-7.703.315-13.874 6.68-13.874 14.46 0 .296.216.54.5.587l.087.01.01.002h.012c.186 0 .37-.085.488-.25.69-.96 1.804-1.535 2.98-1.535 1.126 0 2.194.528 2.888 1.417.084.2.275.344.5.363l.02.002.032.002h.028l.078-.005.027-.005.056-.013.027-.01.073-.03h.004l.075-.046.006-.004.008-.006.085-.074.046-.057c.69-.962 1.802-1.536 2.978-1.536 1.115 0 2.173.517 2.867 1.39v13.08c0 1.54 1.253 2.793 2.793 2.793 1.54 0 2.793-1.254 2.793-2.794 0-.33-.267-.598-.597-.598-.33 0-.6.268-.6.598 0 .88-.715 1.596-1.595 1.596s-1.596-.716-1.596-1.596v-13.08c.695-.873 1.753-1.39 2.867-1.39 1.175 0 2.288.575 2.978 1.537l.044.055.003.003.083.074.007.006.007.004.075.046h.004l.073.03.027.01.056.012.027.005.077.005h.028l.034-.003.018-.003c.226-.02.418-.162.502-.363.694-.89 1.76-1.417 2.888-1.417 1.175 0 2.29.574 2.978 1.536.117.163.302.25.49.248l.01.002h.01l.09-.01c.283-.048.5-.29.5-.588zm-24.87-2.384c-1.01 0-1.986.32-2.796.892.61-5.413 4.485-9.852 9.605-11.29-.685.698-1.314 1.604-1.864 2.703-1.183 2.36-1.9 5.388-2.064 8.646-.827-.607-1.833-.95-2.88-.95zm6.93 0c-1.033 0-2.03.336-2.85.932.16-3.063.833-5.895 1.933-8.09 1.058-2.11 2.384-3.39 3.785-3.674v11.775c-.824-.603-1.826-.943-2.867-.943zm6.932 0c-1.04 0-2.044.34-2.868.943v-11.775c1.402.284 2.727 1.564 3.785 3.673 1.1 2.197 1.773 5.03 1.935 8.093-.822-.597-1.82-.933-2.853-.933zm6.93 0c-1.045 0-2.053.343-2.878.95-.164-3.257-.882-6.286-2.065-8.645-.55-1.1-1.18-2.005-1.864-2.704 5.12 1.44 8.994 5.88 9.603 11.292-.81-.57-1.785-.892-2.796-.892z" fill="#206FAC"/></g></svg>