<svg width="32" height="232" viewBox="0 0 32 232" xmlns="http://www.w3.org/2000/svg"><title>kids</title><desc>Created with Sketch.</desc><g fill="none"><path d="M7.45 26.964c-.666 0-1.207.54-1.207 1.207 0 .666.54 1.207 1.206 1.207.664 0 1.205-.54 1.205-1.206 0-.665-.54-1.206-1.206-1.206zm-.033 1.207l.032-.03.03.03h-.063zm10.95 1.207c.666 0 1.207-.54 1.207-1.206 0-.665-.54-1.206-1.207-1.206-.665 0-1.206.54-1.206 1.207 0 .666.542 1.207 1.207 1.207zM31.35 1.58C30.86.973 30.163.596 29.388.515c-.774-.08-1.534.145-2.138.636l-.083.082-8.89 7.214c-.228-.322-.5-.61-.816-.858-1.362-1.07-2.48-1.2-3.844-.44-.098.022-.36.044-.537.06-.67.057-1.06.1-1.312.342-.307.29-.21.693-.16.892-.586.827-.84 1.828-.72 2.842.105.87.477 1.665 1.064 2.293l-8.6 6.978-2.774.042c-.324.005-.583.272-.578.596.005.322.267.58.587.58l.01-.002 2.976-.045c.13-.003.258-.05.36-.133l1.79-1.45c.918 1.003 2.01 1.77 3.19 2.295L8.1 24.82c-.216-.046-.44-.07-.668-.07-1.82 0-3.3 1.482-3.3 3.302s1.48 3.3 3.3 3.3 3.3-1.48 3.3-3.3c0-1.175-.616-2.207-1.542-2.792l.823-2.406c.925.283 1.887.426 2.852.426.975 0 1.953-.148 2.898-.445l.83 2.425c-.926.585-1.543 1.617-1.543 2.792 0 1.82 1.48 3.3 3.3 3.3 1.82 0 3.3-1.48 3.3-3.3s-1.48-3.3-3.3-3.3c-.228 0-.45.022-.667.067l-.822-2.404c.735-.333 1.44-.764 2.094-1.295 2.007-1.628 3.26-3.94 3.528-6.512.248-2.376-.376-4.71-1.757-6.634l7.19-5.834.08-.08c.36-.29.81-.424 1.272-.376.462.048.878.274 1.17.635.605.744.49 1.842-.254 2.447-.252.204-.29.574-.086.826.116.143.285.217.456.217.13 0 .26-.043.37-.13 1.248-1.014 1.44-2.853.427-4.1zM18.367 28.14l.032.03h-.065l.032-.03zM12.654 9.003c.152-.193.167-.406.145-.588l.38-.036c.485-.042.77-.07.98-.19.953-.538 1.58-.46 2.576.324.246.193.454.42.624.677l-4.492 3.646c-.45-.456-.736-1.044-.814-1.69-.092-.77.12-1.532.6-2.142zM9.56 28.052c0 1.172-.955 2.126-2.128 2.126-1.172 0-2.126-.954-2.126-2.126 0-1.173.954-2.127 2.126-2.127 1.173 0 2.127.954 2.127 2.127zm8.79-2.127c1.173 0 2.127.954 2.127 2.127 0 1.172-.954 2.126-2.127 2.126-1.172 0-2.126-.954-2.126-2.126 0-1.173.954-2.127 2.126-2.127zm2.964-11.438c-.235 2.26-1.336 4.29-3.1 5.722-3.49 2.83-8.56 2.433-11.576-.807L19.81 8.715c1.185 1.68 1.72 3.707 1.504 5.772z" id="kids" fill="#1A1918"/><path d="M7.45 66.964c-.666 0-1.207.54-1.207 1.207 0 .666.54 1.207 1.206 1.207.664 0 1.205-.54 1.205-1.206 0-.665-.54-1.206-1.206-1.206zm-.033 1.207l.032-.03.03.03h-.063zm10.95 1.207c.666 0 1.207-.54 1.207-1.206 0-.665-.54-1.206-1.207-1.206-.665 0-1.206.54-1.206 1.207 0 .666.542 1.207 1.207 1.207zM31.35 41.58c-.49-.606-1.187-.983-1.962-1.064-.774-.08-1.534.145-2.138.636l-.083.082-8.89 7.214c-.228-.322-.5-.61-.816-.858-1.362-1.07-2.48-1.2-3.844-.44-.098.022-.36.044-.537.06-.67.057-1.06.1-1.312.342-.307.29-.21.693-.16.892-.586.827-.84 1.828-.72 2.842.105.87.477 1.665 1.064 2.293l-8.6 6.978-2.774.042c-.324.005-.583.272-.578.596.005.322.267.58.587.58l.01-.002 2.976-.045c.13-.003.258-.05.36-.133l1.79-1.45c.918 1.003 2.01 1.77 3.19 2.295L8.1 64.82c-.216-.046-.44-.07-.668-.07-1.82 0-3.3 1.482-3.3 3.302s1.48 3.3 3.3 3.3 3.3-1.48 3.3-3.3c0-1.175-.616-2.207-1.542-2.792l.823-2.406c.925.283 1.887.426 2.852.426.975 0 1.953-.148 2.898-.445l.83 2.425c-.926.585-1.543 1.617-1.543 2.792 0 1.82 1.48 3.3 3.3 3.3 1.82 0 3.3-1.48 3.3-3.3s-1.48-3.3-3.3-3.3c-.228 0-.45.022-.667.067l-.822-2.404c.735-.333 1.44-.764 2.094-1.295 2.007-1.628 3.26-3.94 3.528-6.512.248-2.376-.376-4.71-1.757-6.634l7.19-5.834.08-.08c.36-.29.81-.424 1.272-.376.462.048.878.274 1.17.635.605.744.49 1.842-.254 2.447-.252.204-.29.574-.086.826.116.143.285.217.456.217.13 0 .26-.043.37-.13 1.248-1.014 1.44-2.853.427-4.1zM18.367 68.14l.032.03h-.065l.032-.03zm-5.713-19.136c.152-.193.167-.406.145-.588l.38-.036c.485-.042.77-.07.98-.19.953-.538 1.58-.46 2.576.324.246.193.454.42.624.677l-4.492 3.646c-.45-.456-.736-1.044-.814-1.69-.092-.77.12-1.532.6-2.142zM9.56 68.052c0 1.172-.955 2.126-2.128 2.126-1.172 0-2.126-.954-2.126-2.126 0-1.173.954-2.127 2.126-2.127 1.173 0 2.127.954 2.127 2.127zm8.79-2.127c1.173 0 2.127.954 2.127 2.127 0 1.172-.954 2.126-2.127 2.126-1.172 0-2.126-.954-2.126-2.126 0-1.173.954-2.127 2.126-2.127zm2.964-11.438c-.235 2.26-1.336 4.29-3.1 5.722-3.49 2.83-8.56 2.433-11.576-.807L19.81 48.715c1.185 1.68 1.72 3.707 1.504 5.772z" fill="#67737B"/><path d="M7.45 106.964c-.666 0-1.207.54-1.207 1.207 0 .666.54 1.207 1.206 1.207.664 0 1.205-.54 1.205-1.206 0-.665-.54-1.206-1.206-1.206zm-.033 1.207l.032-.03.03.03h-.063zm10.95 1.207c.666 0 1.207-.54 1.207-1.206 0-.665-.54-1.206-1.207-1.206-.665 0-1.206.54-1.206 1.207 0 .666.542 1.207 1.207 1.207zM31.35 81.58c-.49-.606-1.187-.983-1.962-1.064-.774-.08-1.534.145-2.138.636l-.083.082-8.89 7.214c-.228-.322-.5-.61-.816-.858-1.362-1.07-2.48-1.2-3.844-.44-.098.022-.36.044-.537.06-.67.057-1.06.1-1.312.342-.307.29-.21.693-.16.892-.586.827-.84 1.828-.72 2.842.105.87.477 1.665 1.064 2.293l-8.6 6.978-2.774.042c-.324.005-.583.272-.578.596.005.322.267.58.587.58l.01-.002 2.976-.045c.13-.003.258-.05.36-.133l1.79-1.45c.918 1.003 2.01 1.77 3.19 2.295L8.1 104.82c-.216-.046-.44-.07-.668-.07-1.82 0-3.3 1.482-3.3 3.302s1.48 3.3 3.3 3.3 3.3-1.48 3.3-3.3c0-1.175-.616-2.207-1.542-2.792l.823-2.406c.925.283 1.887.426 2.852.426.975 0 1.953-.148 2.898-.445l.83 2.425c-.926.585-1.543 1.617-1.543 2.792 0 1.82 1.48 3.3 3.3 3.3 1.82 0 3.3-1.48 3.3-3.3s-1.48-3.3-3.3-3.3c-.228 0-.45.022-.667.067l-.822-2.404c.735-.333 1.44-.764 2.094-1.295 2.007-1.628 3.26-3.94 3.528-6.512.248-2.376-.376-4.71-1.757-6.634l7.19-5.834.08-.08c.36-.29.81-.424 1.272-.376.462.048.878.274 1.17.635.605.744.49 1.842-.254 2.447-.252.204-.29.574-.086.826.116.143.285.217.456.217.13 0 .26-.043.37-.13 1.248-1.014 1.44-2.853.427-4.1zm-12.983 26.56l.032.03h-.065l.032-.03zm-5.713-19.136c.152-.193.167-.406.145-.588l.38-.036c.485-.042.77-.07.98-.19.953-.538 1.58-.46 2.576.324.246.193.454.42.624.677l-4.492 3.646c-.45-.456-.736-1.044-.814-1.69-.092-.77.12-1.532.6-2.142zM9.56 108.052c0 1.172-.955 2.126-2.128 2.126-1.172 0-2.126-.954-2.126-2.126 0-1.173.954-2.127 2.126-2.127 1.173 0 2.127.954 2.127 2.127zm8.79-2.127c1.173 0 2.127.954 2.127 2.127 0 1.172-.954 2.126-2.127 2.126-1.172 0-2.126-.954-2.126-2.126 0-1.173.954-2.127 2.126-2.127zm2.964-11.438c-.235 2.26-1.336 4.29-3.1 5.722-3.49 2.83-8.56 2.433-11.576-.807L19.81 88.715c1.185 1.68 1.72 3.707 1.504 5.772z" fill="#fff"/><path d="M7.45 146.964c-.666 0-1.207.54-1.207 1.207 0 .666.54 1.207 1.206 1.207.664 0 1.205-.54 1.205-1.206 0-.665-.54-1.206-1.206-1.206zm-.033 1.207l.032-.03.03.03h-.063zm10.95 1.207c.666 0 1.207-.54 1.207-1.206 0-.665-.54-1.206-1.207-1.206-.665 0-1.206.54-1.206 1.207 0 .666.542 1.207 1.207 1.207zM31.35 121.58c-.49-.606-1.187-.983-1.962-1.064-.774-.08-1.534.145-2.138.636l-.083.082-8.89 7.214c-.228-.322-.5-.61-.816-.858-1.362-1.07-2.48-1.2-3.844-.44-.098.022-.36.044-.537.06-.67.057-1.06.1-1.312.342-.307.29-.21.693-.16.892-.586.827-.84 1.828-.72 2.842.105.87.477 1.665 1.064 2.293l-8.6 6.978-2.774.042c-.324.005-.583.272-.578.596.005.322.267.58.587.58l.01-.002 2.976-.045c.13-.003.258-.05.36-.133l1.79-1.45c.918 1.003 2.01 1.77 3.19 2.295L8.1 144.82c-.216-.046-.44-.07-.668-.07-1.82 0-3.3 1.482-3.3 3.302s1.48 3.3 3.3 3.3 3.3-1.48 3.3-3.3c0-1.175-.616-2.207-1.542-2.792l.823-2.406c.925.283 1.887.426 2.852.426.975 0 1.953-.148 2.898-.445l.83 2.425c-.926.585-1.543 1.617-1.543 2.792 0 1.82 1.48 3.3 3.3 3.3 1.82 0 3.3-1.48 3.3-3.3s-1.48-3.3-3.3-3.3c-.228 0-.45.022-.667.067l-.822-2.404c.735-.333 1.44-.764 2.094-1.295 2.007-1.628 3.26-3.94 3.528-6.512.248-2.376-.376-4.71-1.757-6.634l7.19-5.834.08-.08c.36-.29.81-.424 1.272-.376.462.048.878.274 1.17.635.605.744.49 1.842-.254 2.447-.252.204-.29.574-.086.826.116.143.285.217.456.217.13 0 .26-.043.37-.13 1.248-1.014 1.44-2.853.427-4.1zm-12.983 26.56l.032.03h-.065l.032-.03zm-5.713-19.136c.152-.193.167-.406.145-.588l.38-.036c.485-.042.77-.07.98-.19.953-.538 1.58-.46 2.576.324.246.193.454.42.624.677l-4.492 3.646c-.45-.456-.736-1.044-.814-1.69-.092-.77.12-1.532.6-2.142zM9.56 148.052c0 1.172-.955 2.126-2.128 2.126-1.172 0-2.126-.954-2.126-2.126 0-1.173.954-2.127 2.126-2.127 1.173 0 2.127.954 2.127 2.127zm8.79-2.127c1.173 0 2.127.954 2.127 2.127 0 1.172-.954 2.126-2.127 2.126-1.172 0-2.126-.954-2.126-2.126 0-1.173.954-2.127 2.126-2.127zm2.964-11.438c-.235 2.26-1.336 4.29-3.1 5.722-3.49 2.83-8.56 2.433-11.576-.807l13.172-10.688c1.185 1.68 1.72 3.707 1.504 5.772z" fill="#206FAC"/></g></svg>