<svg width="32" height="232" viewBox="0 0 32 232" xmlns="http://www.w3.org/2000/svg" xmlns:sketch="http://www.bohemiancoding.com/sketch/ns"><title>kids</title><desc>Created with Sketch.</desc><g sketch:type="MSPage" fill="none"><path d="M7.449 26.964c-.665 0-1.206.541-1.206 1.207 0 .665.541 1.206 1.206 1.206.665 0 1.206-.541 1.206-1.206 0-.666-.541-1.207-1.206-1.207zm-.032 1.207l.032-.032.032.032h-.064zm10.95 1.206c.666 0 1.207-.541 1.207-1.206 0-.666-.541-1.207-1.207-1.207-.665 0-1.206.541-1.206 1.207 0 .665.541 1.206 1.206 1.206zm12.983-27.798c-.491-.605-1.187-.982-1.962-1.063-.774-.081-1.534.145-2.138.636l-.083.082-8.891 7.214c-.227-.322-.499-.61-.815-.858-1.363-1.071-2.48-1.2-3.845-.441-.098.023-.36.045-.537.061-.668.057-1.058.101-1.311.342-.307.291-.21.693-.161.892-.585.827-.84 1.828-.719 2.842.105.87.477 1.665 1.064 2.293l-8.601 6.979-2.773.042c-.324.005-.583.272-.578.596.005.322.267.579.587.579l.009-.001 2.977-.045c.131-.002.258-.049.36-.132l1.789-1.451c.919 1.004 2.01 1.771 3.191 2.296l-.814 2.377c-.215-.045-.438-.068-.667-.068-1.82 0-3.301 1.481-3.301 3.301s1.481 3.301 3.301 3.301 3.301-1.481 3.301-3.301c0-1.175-.617-2.207-1.543-2.792l.823-2.406c.925.283 1.887.426 2.852.426.975 0 1.953-.148 2.898-.445l.83 2.425c-.926.585-1.543 1.617-1.543 2.792 0 1.82 1.48 3.301 3.3 3.301 1.821 0 3.301-1.481 3.301-3.301s-1.48-3.301-3.301-3.301c-.228 0-.451.023-.667.068l-.822-2.403c.734-.333 1.438-.764 2.093-1.295 2.007-1.629 3.26-3.942 3.528-6.513.248-2.376-.376-4.709-1.757-6.634l7.189-5.834.081-.08c.36-.29.811-.424 1.272-.376.462.048.878.274 1.171.635.604.745.49 1.843-.255 2.448-.252.204-.29.574-.086.826.116.143.285.217.456.217.13 0 .261-.043.37-.131 1.248-1.013 1.439-2.852.427-4.1zm-12.983 26.56l.032.032h-.064l.032-.032zm-5.713-19.135c.152-.193.167-.406.145-.588l.381-.036c.485-.042.77-.071.98-.19.953-.538 1.579-.459 2.576.324.246.193.454.421.624.677l-4.492 3.645c-.45-.456-.736-1.044-.814-1.69-.092-.771.121-1.532.6-2.142zm-3.095 19.048c0 1.172-.954 2.126-2.127 2.126-1.172 0-2.126-.954-2.126-2.126 0-1.173.954-2.127 2.126-2.127 1.173 0 2.127.954 2.127 2.127zm8.791-2.127c1.173 0 2.127.954 2.127 2.127 0 1.172-.954 2.126-2.127 2.126-1.172 0-2.126-.954-2.126-2.126 0-1.173.954-2.127 2.126-2.127zm2.964-11.438c-.235 2.259-1.336 4.291-3.1 5.722-3.489 2.831-8.559 2.434-11.576-.806l13.172-10.688c1.185 1.681 1.719 3.707 1.504 5.772z" id="kids" fill="#1A1918" sketch:type="MSShapeGroup"/><path d="M7.449 66.964c-.665 0-1.206.541-1.206 1.207 0 .665.541 1.206 1.206 1.206.665 0 1.206-.541 1.206-1.206 0-.666-.541-1.207-1.206-1.207zm-.032 1.207l.032-.032.032.032h-.064zm10.95 1.206c.666 0 1.207-.541 1.207-1.206 0-.666-.541-1.207-1.207-1.207-.665 0-1.206.541-1.206 1.207 0 .665.541 1.206 1.206 1.206zm12.983-27.798c-.491-.605-1.187-.982-1.962-1.063-.774-.081-1.534.145-2.138.636l-.083.082-8.891 7.214c-.227-.322-.499-.61-.815-.858-1.363-1.071-2.48-1.2-3.845-.441-.098.023-.36.045-.537.061-.668.057-1.058.101-1.311.342-.307.291-.21.693-.161.892-.585.827-.84 1.828-.719 2.842.105.87.477 1.665 1.064 2.293l-8.601 6.979-2.773.042c-.324.005-.583.272-.578.596.005.322.267.579.587.579l.009-.001 2.977-.045c.131-.002.258-.049.36-.132l1.789-1.451c.919 1.004 2.01 1.771 3.191 2.296l-.814 2.377c-.215-.045-.438-.068-.667-.068-1.82 0-3.301 1.481-3.301 3.301s1.481 3.301 3.301 3.301 3.301-1.481 3.301-3.301c0-1.175-.617-2.207-1.543-2.792l.823-2.406c.925.283 1.887.426 2.852.426.975 0 1.953-.148 2.898-.445l.83 2.425c-.926.585-1.543 1.617-1.543 2.792 0 1.82 1.48 3.301 3.3 3.301 1.821 0 3.301-1.481 3.301-3.301s-1.48-3.301-3.301-3.301c-.228 0-.451.023-.667.068l-.822-2.403c.734-.333 1.438-.764 2.093-1.295 2.007-1.629 3.26-3.942 3.528-6.513.248-2.376-.376-4.709-1.757-6.634l7.189-5.834.081-.08c.36-.29.811-.424 1.272-.376.462.048.878.274 1.171.635.604.745.49 1.843-.255 2.448-.252.204-.29.574-.086.826.116.143.285.217.456.217.13 0 .261-.043.37-.131 1.248-1.013 1.439-2.852.427-4.1zm-12.983 26.56l.032.032h-.064l.032-.032zm-5.713-19.135c.152-.193.167-.406.145-.588l.381-.036c.485-.042.77-.071.98-.19.953-.538 1.579-.459 2.576.324.246.193.454.421.624.677l-4.492 3.645c-.45-.456-.736-1.044-.814-1.69-.092-.771.121-1.532.6-2.142zm-3.095 19.048c0 1.172-.954 2.126-2.127 2.126-1.172 0-2.126-.954-2.126-2.126 0-1.173.954-2.127 2.126-2.127 1.173 0 2.127.954 2.127 2.127zm8.791-2.127c1.173 0 2.127.954 2.127 2.127 0 1.172-.954 2.126-2.127 2.126-1.172 0-2.126-.954-2.126-2.126 0-1.173.954-2.127 2.126-2.127zm2.964-11.438c-.235 2.259-1.336 4.291-3.1 5.722-3.489 2.831-8.559 2.434-11.576-.806l13.172-10.688c1.185 1.681 1.719 3.707 1.504 5.772z" id="kids" fill="#67737B" sketch:type="MSShapeGroup"/><path d="M7.449 106.964c-.665 0-1.206.541-1.206 1.207 0 .665.541 1.206 1.206 1.206.665 0 1.206-.541 1.206-1.206 0-.666-.541-1.207-1.206-1.207zm-.032 1.207l.032-.032.032.032h-.064zm10.95 1.206c.666 0 1.207-.541 1.207-1.206 0-.666-.541-1.207-1.207-1.207-.665 0-1.206.541-1.206 1.207 0 .665.541 1.206 1.206 1.206zm12.983-27.798c-.491-.605-1.187-.982-1.962-1.063-.774-.081-1.534.145-2.138.636l-.083.082-8.891 7.214c-.227-.322-.499-.61-.815-.858-1.363-1.071-2.48-1.2-3.845-.441-.098.023-.36.045-.537.061-.668.057-1.058.101-1.311.342-.307.291-.21.693-.161.892-.585.827-.84 1.828-.719 2.842.105.87.477 1.665 1.064 2.293l-8.601 6.979-2.773.042c-.324.005-.583.272-.578.596.005.322.267.579.587.579l.009-.001 2.977-.045c.131-.002.258-.049.36-.132l1.789-1.451c.919 1.004 2.01 1.771 3.191 2.296l-.814 2.377c-.215-.045-.438-.068-.667-.068-1.82 0-3.301 1.481-3.301 3.301s1.481 3.301 3.301 3.301 3.301-1.481 3.301-3.301c0-1.175-.617-2.207-1.543-2.792l.823-2.406c.925.283 1.887.426 2.852.426.975 0 1.953-.148 2.898-.445l.83 2.425c-.926.585-1.543 1.617-1.543 2.792 0 1.82 1.48 3.301 3.3 3.301 1.821 0 3.301-1.481 3.301-3.301s-1.48-3.301-3.301-3.301c-.228 0-.451.023-.667.068l-.822-2.403c.734-.333 1.438-.764 2.093-1.295 2.007-1.629 3.26-3.942 3.528-6.513.248-2.376-.376-4.709-1.757-6.634l7.189-5.834.081-.08c.36-.29.811-.424 1.272-.376.462.048.878.274 1.171.635.604.745.49 1.843-.255 2.448-.252.204-.29.574-.086.826.116.143.285.217.456.217.13 0 .261-.043.37-.131 1.248-1.013 1.439-2.852.427-4.1zm-12.983 26.56l.032.032h-.064l.032-.032zm-5.713-19.135c.152-.193.167-.406.145-.588l.381-.036c.485-.042.77-.071.98-.19.953-.538 1.579-.459 2.576.324.246.193.454.421.624.677l-4.492 3.645c-.45-.456-.736-1.044-.814-1.69-.092-.771.121-1.532.6-2.142zm-3.095 19.048c0 1.172-.954 2.126-2.127 2.126-1.172 0-2.126-.954-2.126-2.126 0-1.173.954-2.127 2.126-2.127 1.173 0 2.127.954 2.127 2.127zm8.791-2.127c1.173 0 2.127.954 2.127 2.127 0 1.172-.954 2.126-2.127 2.126-1.172 0-2.126-.954-2.126-2.126 0-1.173.954-2.127 2.126-2.127zm2.964-11.438c-.235 2.259-1.336 4.291-3.1 5.722-3.489 2.831-8.559 2.434-11.576-.806l13.172-10.688c1.185 1.681 1.719 3.707 1.504 5.772z" fill="#fff" sketch:type="MSShapeGroup"/><path d="M7.449 146.964c-.665 0-1.206.541-1.206 1.207 0 .665.541 1.206 1.206 1.206.665 0 1.206-.541 1.206-1.206 0-.666-.541-1.207-1.206-1.207zm-.032 1.207l.032-.032.032.032h-.064zm10.95 1.206c.666 0 1.207-.541 1.207-1.206 0-.666-.541-1.207-1.207-1.207-.665 0-1.206.541-1.206 1.207 0 .665.541 1.206 1.206 1.206zm12.983-27.798c-.491-.605-1.187-.982-1.962-1.063-.774-.081-1.534.145-2.138.636l-.083.082-8.891 7.214c-.227-.322-.499-.61-.815-.858-1.363-1.071-2.48-1.2-3.845-.441-.098.023-.36.045-.537.061-.668.057-1.058.101-1.311.342-.307.291-.21.693-.161.892-.585.827-.84 1.828-.719 2.842.105.87.477 1.665 1.064 2.293l-8.601 6.979-2.773.042c-.324.005-.583.272-.578.596.005.322.267.579.587.579l.009-.001 2.977-.045c.131-.002.258-.049.36-.132l1.789-1.451c.919 1.004 2.01 1.771 3.191 2.296l-.814 2.377c-.215-.045-.438-.068-.667-.068-1.82 0-3.301 1.481-3.301 3.301s1.481 3.301 3.301 3.301 3.301-1.481 3.301-3.301c0-1.175-.617-2.207-1.543-2.792l.823-2.406c.925.283 1.887.426 2.852.426.975 0 1.953-.148 2.898-.445l.83 2.425c-.926.585-1.543 1.617-1.543 2.792 0 1.82 1.48 3.301 3.3 3.301 1.821 0 3.301-1.481 3.301-3.301s-1.48-3.301-3.301-3.301c-.228 0-.451.023-.667.068l-.822-2.403c.734-.333 1.438-.764 2.093-1.295 2.007-1.629 3.26-3.942 3.528-6.513.248-2.376-.376-4.709-1.757-6.634l7.189-5.834.081-.08c.36-.29.811-.424 1.272-.376.462.048.878.274 1.171.635.604.745.49 1.843-.255 2.448-.252.204-.29.574-.086.826.116.143.285.217.456.217.13 0 .261-.043.37-.131 1.248-1.013 1.439-2.852.427-4.1zm-12.983 26.56l.032.032h-.064l.032-.032zm-5.713-19.135c.152-.193.167-.406.145-.588l.381-.036c.485-.042.77-.071.98-.19.953-.538 1.579-.459 2.576.324.246.193.454.421.624.677l-4.492 3.645c-.45-.456-.736-1.044-.814-1.69-.092-.771.121-1.532.6-2.142zm-3.095 19.048c0 1.172-.954 2.126-2.127 2.126-1.172 0-2.126-.954-2.126-2.126 0-1.173.954-2.127 2.126-2.127 1.173 0 2.127.954 2.127 2.127zm8.791-2.127c1.173 0 2.127.954 2.127 2.127 0 1.172-.954 2.126-2.127 2.126-1.172 0-2.126-.954-2.126-2.126 0-1.173.954-2.127 2.126-2.127zm2.964-11.438c-.235 2.259-1.336 4.291-3.1 5.722-3.489 2.831-8.559 2.434-11.576-.806l13.172-10.688c1.185 1.681 1.719 3.707 1.504 5.772z" fill="#206FAC" sketch:type="MSShapeGroup"/></g></svg>