<svg width="32" height="232" viewBox="0 0 32 232" xmlns="http://www.w3.org/2000/svg"><desc>Created with Sketch.</desc><g fill="none"><path d="M7.45 26.964c-.666 0-1.207.54-1.207 1.207s.54 1.21 1.206 1.21c.66 0 1.202-.54 1.202-1.206 0-.665-.54-1.206-1.206-1.206zm-.033 1.207l.032-.03.03.03h-.066zm10.95 1.21c.666 0 1.207-.54 1.207-1.206 0-.665-.54-1.206-1.207-1.206-.665 0-1.206.54-1.206 1.207 0 .666.545 1.207 1.21 1.207zM31.35 1.58C30.86.973 30.163.596 29.388.515c-.774-.08-1.534.145-2.138.636l-.083.085-8.89 7.214c-.228-.323-.5-.61-.816-.86-1.36-1.07-2.48-1.2-3.84-.44-.1.02-.36.044-.538.06-.67.057-1.06.1-1.31.34-.308.29-.21.695-.16.894-.587.827-.84 1.828-.72 2.842.104.87.476 1.665 1.063 2.293l-8.6 6.977L.58 20.6c-.324.004-.583.27-.58.595.007.322.27.58.59.58l.01-.002 2.975-.045c.13-.003.258-.05.36-.133l1.79-1.45c.918 1.003 2.01 1.77 3.19 2.295L8.1 24.82c-.216-.046-.44-.07-.668-.07-1.82 0-3.3 1.482-3.3 3.302s1.48 3.3 3.3 3.3 3.3-1.48 3.3-3.3c0-1.175-.616-2.207-1.542-2.792l.823-2.406c.925.283 1.887.426 2.852.426.975 0 1.953-.148 2.898-.445l.83 2.425c-.926.585-1.543 1.617-1.543 2.792 0 1.82 1.48 3.3 3.3 3.3 1.82 0 3.3-1.48 3.3-3.3s-1.48-3.3-3.3-3.3c-.228 0-.45.022-.667.067l-.822-2.407c.738-.333 1.44-.764 2.097-1.295 2.007-1.63 3.26-3.94 3.528-6.513.248-2.376-.376-4.71-1.757-6.634l7.19-5.833.08-.08c.36-.29.81-.425 1.272-.377.46.048.877.274 1.17.635.604.743.49 1.84-.255 2.446-.252.205-.29.575-.086.827.114.143.283.217.454.217.13 0 .26-.044.37-.13 1.248-1.015 1.44-2.854.427-4.1zM18.367 28.14l.032.03h-.068l.032-.03zM12.654 9.003c.152-.193.167-.406.145-.588l.38-.036c.482-.045.77-.07.98-.19.95-.54 1.58-.46 2.573.32.246.194.454.42.624.678l-4.493 3.645c-.45-.456-.736-1.044-.814-1.69-.09-.77.12-1.532.6-2.142zM9.56 28.053c0 1.17-.955 2.125-2.128 2.125-1.172 0-2.126-.954-2.126-2.126 0-1.173.954-2.127 2.126-2.127 1.173 0 2.127.954 2.127 2.127zm8.79-2.128c1.173 0 2.127.954 2.127 2.127 0 1.172-.954 2.126-2.127 2.126-1.172 0-2.126-.954-2.126-2.126 0-1.173.954-2.127 2.126-2.127zm2.964-11.438c-.235 2.26-1.336 4.29-3.1 5.722-3.49 2.83-8.56 2.43-11.576-.81L19.81 8.715c1.185 1.68 1.72 3.707 1.504 5.772z" fill="#1A1918"/><path d="M7.45 66.964c-.666 0-1.207.54-1.207 1.207s.54 1.21 1.206 1.21c.66 0 1.202-.54 1.202-1.206 0-.665-.54-1.206-1.206-1.206zm-.033 1.207l.032-.03.03.03h-.066zm10.95 1.21c.666 0 1.207-.54 1.207-1.206 0-.665-.54-1.206-1.207-1.206-.665 0-1.206.54-1.206 1.207 0 .666.545 1.207 1.21 1.207zm12.983-27.8c-.49-.605-1.187-.982-1.962-1.063-.774-.08-1.534.145-2.138.636l-.083.082-8.89 7.214c-.228-.323-.5-.61-.816-.86-1.36-1.07-2.48-1.2-3.84-.44-.1.023-.36.045-.538.06-.67.058-1.06.1-1.31.343-.308.29-.21.693-.16.892-.587.827-.84 1.828-.72 2.842.104.87.476 1.665 1.063 2.293l-8.6 6.976-2.774.042c-.324.004-.583.27-.58.595.007.322.27.58.59.58l.01-.002 2.975-.043c.13-.003.258-.05.36-.133l1.79-1.45c.918 1.003 2.01 1.77 3.19 2.295L8.1 64.82c-.216-.046-.44-.07-.668-.07-1.82 0-3.3 1.482-3.3 3.302s1.48 3.3 3.3 3.3 3.3-1.48 3.3-3.3c0-1.175-.616-2.207-1.542-2.792l.823-2.406c.925.283 1.887.426 2.852.426.975 0 1.953-.148 2.898-.445l.83 2.425c-.926.585-1.543 1.617-1.543 2.792 0 1.82 1.48 3.3 3.3 3.3 1.82 0 3.3-1.48 3.3-3.3s-1.48-3.3-3.3-3.3c-.228 0-.45.022-.667.067l-.822-2.407c.738-.333 1.44-.764 2.097-1.295 2.007-1.63 3.26-3.94 3.528-6.513.248-2.376-.376-4.71-1.757-6.634l7.19-5.833.08-.08c.36-.29.81-.425 1.272-.377.46.048.877.274 1.17.635.604.743.49 1.84-.255 2.446-.252.205-.29.575-.086.827.114.143.283.217.454.217.13 0 .26-.044.37-.13 1.248-1.015 1.44-2.854.427-4.1zM18.367 68.14l.032.03h-.068l.032-.03zm-5.713-19.136c.152-.193.167-.406.145-.588l.38-.036c.482-.042.77-.07.98-.19.95-.538 1.58-.46 2.573.324.246.193.454.42.624.677l-4.493 3.65c-.45-.457-.736-1.045-.814-1.69-.09-.77.12-1.533.6-2.143zM9.56 68.052c0 1.172-.955 2.126-2.128 2.126-1.172 0-2.126-.954-2.126-2.126 0-1.173.954-2.127 2.126-2.127 1.173 0 2.127.954 2.127 2.127zm8.79-2.127c1.173 0 2.127.954 2.127 2.127 0 1.172-.954 2.126-2.127 2.126-1.172 0-2.126-.954-2.126-2.126 0-1.173.954-2.127 2.126-2.127zm2.964-11.438c-.235 2.26-1.336 4.29-3.1 5.722-3.49 2.83-8.56 2.43-11.576-.81L19.81 48.715c1.185 1.68 1.72 3.707 1.504 5.772z" fill="#67737B"/><path d="M7.45 106.964c-.666 0-1.207.54-1.207 1.207s.54 1.21 1.206 1.21c.66 0 1.202-.54 1.202-1.206 0-.665-.54-1.206-1.206-1.206zm-.033 1.207l.032-.03.03.03h-.066zm10.95 1.21c.666 0 1.207-.54 1.207-1.206 0-.665-.54-1.206-1.207-1.206-.665 0-1.206.54-1.206 1.207 0 .666.545 1.207 1.21 1.207zm12.983-27.8c-.49-.605-1.187-.982-1.962-1.063-.774-.08-1.534.145-2.138.636l-.083.082-8.89 7.214c-.228-.323-.5-.61-.816-.86-1.36-1.07-2.48-1.2-3.84-.44-.1.023-.36.045-.538.06-.67.058-1.06.1-1.31.343-.308.29-.21.693-.16.892-.587.827-.84 1.828-.72 2.842.104.87.476 1.665 1.063 2.293l-8.6 6.976-2.774.042c-.324.004-.583.27-.58.595.007.322.27.58.59.58l.01-.002 2.975-.043c.13-.003.258-.05.36-.133l1.79-1.45c.918 1.003 2.01 1.77 3.19 2.295l-.813 2.38c-.215-.047-.44-.07-.667-.07-1.82 0-3.3 1.48-3.3 3.3s1.48 3.3 3.3 3.3 3.3-1.48 3.3-3.3c0-1.174-.616-2.206-1.542-2.79l.824-2.407c.925.283 1.887.426 2.852.426.974 0 1.952-.15 2.897-.446l.83 2.425c-.926.584-1.543 1.616-1.543 2.79 0 1.82 1.48 3.3 3.3 3.3 1.82 0 3.3-1.48 3.3-3.3s-1.48-3.3-3.3-3.3c-.227 0-.45.023-.666.068l-.822-2.405c.736-.333 1.44-.764 2.095-1.295 2.008-1.628 3.26-3.94 3.53-6.512.247-2.376-.377-4.71-1.758-6.634l7.19-5.833.08-.08c.36-.29.81-.425 1.272-.377.462.05.878.275 1.17.636.605.742.49 1.84-.254 2.445-.252.204-.29.574-.086.826.116.144.285.218.456.218.13 0 .26-.044.37-.13 1.248-1.015 1.44-2.854.427-4.1zm-12.983 26.56l.032.03h-.068l.032-.03zm-5.713-19.135c.152-.193.167-.406.145-.588l.38-.036c.482-.04.77-.07.98-.19.95-.537 1.58-.46 2.573.325.246.193.454.42.624.677l-4.493 3.648c-.45-.456-.736-1.044-.814-1.69-.09-.77.12-1.532.6-2.142zM9.56 108.052c0 1.172-.955 2.126-2.128 2.126-1.172 0-2.126-.954-2.126-2.126 0-1.173.954-2.127 2.126-2.127 1.173 0 2.127.954 2.127 2.127zm8.79-2.127c1.173 0 2.127.954 2.127 2.127 0 1.172-.954 2.126-2.127 2.126-1.172 0-2.126-.954-2.126-2.126 0-1.173.954-2.127 2.126-2.127zm2.964-11.438c-.235 2.26-1.336 4.29-3.1 5.722-3.49 2.83-8.56 2.43-11.576-.81L19.81 88.715c1.185 1.68 1.72 3.707 1.504 5.772z" fill="#fff"/><path d="M7.45 146.964c-.666 0-1.207.54-1.207 1.207s.54 1.21 1.206 1.21c.66 0 1.202-.54 1.202-1.206 0-.665-.54-1.206-1.206-1.206zm-.033 1.207l.032-.03.03.03h-.066zm10.95 1.21c.666 0 1.207-.54 1.207-1.206 0-.665-.54-1.206-1.207-1.206-.665 0-1.206.54-1.206 1.207 0 .666.545 1.207 1.21 1.207zm12.983-27.8c-.49-.605-1.187-.982-1.962-1.063-.774-.08-1.534.145-2.138.636l-.083.082-8.89 7.214c-.228-.323-.5-.61-.816-.86-1.36-1.07-2.48-1.2-3.84-.44-.1.023-.36.045-.538.06-.67.058-1.06.1-1.31.343-.308.29-.21.693-.16.892-.587.827-.84 1.828-.72 2.842.104.87.476 1.665 1.063 2.293l-8.6 6.976-2.774.042c-.324.004-.583.27-.58.595.007.322.27.58.59.58l.01-.002 2.975-.043c.13-.003.258-.05.36-.133l1.79-1.45c.918 1.003 2.01 1.77 3.19 2.295l-.813 2.38c-.215-.047-.44-.07-.667-.07-1.82 0-3.3 1.48-3.3 3.3s1.48 3.3 3.3 3.3 3.3-1.48 3.3-3.3c0-1.174-.616-2.206-1.542-2.79l.824-2.407c.925.283 1.887.426 2.852.426.974 0 1.952-.15 2.897-.446l.83 2.425c-.926.584-1.543 1.616-1.543 2.79 0 1.82 1.48 3.3 3.3 3.3 1.82 0 3.3-1.48 3.3-3.3s-1.48-3.3-3.3-3.3c-.227 0-.45.023-.666.068l-.822-2.405c.736-.333 1.44-.764 2.095-1.295 2.008-1.628 3.26-3.94 3.53-6.512.247-2.376-.377-4.71-1.758-6.634l7.19-5.833.08-.08c.36-.29.81-.425 1.272-.377.462.05.878.275 1.17.636.605.742.49 1.84-.254 2.445-.252.204-.29.574-.086.826.116.144.285.218.456.218.13 0 .26-.044.37-.13 1.248-1.015 1.44-2.854.427-4.1zm-12.983 26.56l.032.03h-.068l.032-.03zm-5.713-19.135c.152-.193.167-.406.145-.588l.38-.036c.482-.04.77-.07.98-.19.95-.537 1.58-.46 2.573.325.246.193.454.42.624.677l-4.493 3.648c-.45-.456-.736-1.044-.814-1.69-.09-.77.12-1.532.6-2.142zM9.56 148.052c0 1.172-.955 2.126-2.128 2.126-1.172 0-2.126-.954-2.126-2.126 0-1.173.954-2.127 2.126-2.127 1.173 0 2.127.954 2.127 2.127zm8.79-2.127c1.173 0 2.127.954 2.127 2.127 0 1.172-.954 2.126-2.127 2.126-1.172 0-2.126-.954-2.126-2.126 0-1.173.954-2.127 2.126-2.127zm2.964-11.438c-.235 2.26-1.336 4.29-3.1 5.722-3.49 2.83-8.56 2.43-11.576-.81L19.81 128.71c1.185 1.68 1.72 3.707 1.504 5.772z" fill="#206FAC"/></g></svg>