<svg width="32" height="232" viewBox="0 0 32 232" xmlns="http://www.w3.org/2000/svg" xmlns:sketch="http://www.bohemiancoding.com/sketch/ns"><title>language</title><desc>Created with Sketch.</desc><g sketch:type="MSPage" fill="none"><path d="M32 22.116c0-2.572-2.069-4.665-4.614-4.665-.341 0-.615.279-.615.622 0 .343.275.622.615.622 1.865 0 3.383 1.534 3.383 3.421 0 1.521-1.011 2.873-2.458 3.289-.327.094-.516.437-.424.767l.271.977-1.845-1.48c-.109-.087-.243-.134-.382-.134h-7.317c-1.865 0-3.383-1.534-3.383-3.421 0-.372.059-.74.175-1.09.109-.325-.065-.678-.387-.788-.323-.109-.671.066-.78.392-.159.479-.24.979-.239 1.488 0 2.571 2.069 4.664 4.614 4.664h7.103l3.166 2.538c.112.089.247.134.382.134.118 0 .238-.034.342-.104.222-.15.324-.427.251-.687l-.63-2.269c1.659-.732 2.773-2.412 2.773-4.276zm-4.605-6.261c1.008-1.453 1.541-3.158 1.541-4.932 0-4.774-3.883-8.658-8.657-8.658h-11.621c-4.774 0-8.658 3.884-8.658 8.658 0 3.644 2.316 6.906 5.704 8.137l-1.418 5.05c-.073.258.029.533.252.682.105.069.224.103.343.103.136 0 .272-.045.384-.134l6.534-5.181h8.48c2.836 0 5.496-1.392 7.116-3.725zm-15.735 2.489c-.139 0-.275.047-.384.134l-5.208 4.129 1.063-3.785c.092-.328-.099-.668-.427-.761-3.174-.902-5.392-3.837-5.392-7.138 0-4.092 3.33-7.421 7.422-7.421h11.621c4.092 0 7.421 3.329 7.421 7.421 0 1.52-.457 2.982-1.321 4.227-1.389 2-3.669 3.194-6.1 3.194h-8.695zm-3.184-9.4c.156-.221.248-.489.248-.778 0-.747-.607-1.354-1.354-1.354-.746 0-1.353.607-1.353 1.354 0 .425.198.806.506 1.054l1.358 1.311c.118.114.273.173.429.173.107 0 .215-.027.312-.084l.245-.143c.162-.094.272-.257.3-.442.028-.185-.03-.373-.157-.51l-.534-.581zm3.908 0c.155-.221.248-.489.248-.778 0-.747-.608-1.354-1.354-1.354-.746 0-1.354.607-1.354 1.354 0 .425.199.805.507 1.054l1.357 1.311c.119.114.274.173.43.173.107 0 .215-.027.311-.084l.246-.143c.161-.094.271-.257.299-.442.028-.185-.029-.373-.156-.51l-.534-.581zm8.194 6.018l.245.143c.097.057.205.084.311.084.157 0 .312-.059.43-.173l1.357-1.311c.309-.248.507-.628.507-1.054 0-.747-.607-1.354-1.354-1.354-.746 0-1.353.607-1.353 1.354 0 .289.092.558.247.778l-.534.581c-.126.137-.184.325-.156.51.028.185.138.348.3.442zm-2.411-3.665c-.747 0-1.354.607-1.354 1.354 0 .289.092.558.248.778l-.534.581c-.127.137-.184.325-.157.51.028.185.139.348.3.442l.245.143c.097.057.205.084.312.084.156 0 .311-.059.429-.173l1.358-1.311c.308-.249.506-.629.506-1.054 0-.747-.607-1.354-1.353-1.354z" fill="#3A434E" sketch:type="MSShapeGroup"/><path d="M32 62.116c0-2.572-2.069-4.665-4.614-4.665-.341 0-.615.279-.615.622 0 .343.275.622.615.622 1.865 0 3.383 1.534 3.383 3.421 0 1.521-1.011 2.873-2.458 3.289-.327.094-.516.437-.424.767l.271.977-1.845-1.48c-.109-.087-.243-.134-.382-.134h-7.317c-1.865 0-3.383-1.534-3.383-3.421 0-.372.059-.74.175-1.09.109-.325-.065-.678-.387-.788-.323-.109-.671.066-.78.392-.159.479-.24.979-.239 1.488 0 2.571 2.069 4.664 4.614 4.664h7.103l3.166 2.538c.112.089.247.134.382.134.118 0 .238-.034.342-.104.222-.15.324-.427.251-.687l-.63-2.269c1.659-.732 2.773-2.412 2.773-4.276zm-4.605-6.261c1.008-1.453 1.541-3.158 1.541-4.932 0-4.774-3.883-8.658-8.657-8.658h-11.621c-4.774 0-8.658 3.884-8.658 8.658 0 3.644 2.316 6.906 5.704 8.137l-1.418 5.05c-.073.258.029.533.252.682.105.069.224.103.343.103.136 0 .272-.045.384-.134l6.534-5.181h8.48c2.836 0 5.496-1.392 7.116-3.725zm-15.735 2.489c-.139 0-.275.047-.384.134l-5.208 4.129 1.063-3.785c.092-.328-.099-.668-.427-.761-3.174-.902-5.392-3.837-5.392-7.138 0-4.092 3.33-7.421 7.422-7.421h11.621c4.092 0 7.421 3.329 7.421 7.421 0 1.52-.457 2.982-1.321 4.227-1.389 2-3.669 3.194-6.1 3.194h-8.695zm-3.184-9.4c.156-.221.248-.489.248-.778 0-.747-.607-1.354-1.354-1.354-.746 0-1.353.607-1.353 1.354 0 .425.198.806.506 1.054l1.358 1.311c.118.114.273.173.429.173.107 0 .215-.027.312-.084l.245-.143c.162-.094.272-.257.3-.442.028-.185-.03-.373-.157-.51l-.534-.581zm3.908 0c.155-.221.248-.489.248-.778 0-.747-.608-1.354-1.354-1.354-.746 0-1.354.607-1.354 1.354 0 .425.199.805.507 1.054l1.357 1.311c.119.114.274.173.43.173.107 0 .215-.027.311-.084l.246-.143c.161-.094.271-.257.299-.442.028-.185-.029-.373-.156-.51l-.534-.581zm8.194 6.018l.245.143c.097.057.205.084.311.084.157 0 .312-.059.43-.173l1.357-1.311c.309-.248.507-.628.507-1.054 0-.747-.607-1.354-1.354-1.354-.746 0-1.353.607-1.353 1.354 0 .289.092.558.247.778l-.534.581c-.126.137-.184.325-.156.51.028.185.138.348.3.442zm-2.411-3.665c-.747 0-1.354.607-1.354 1.354 0 .289.092.558.248.778l-.534.581c-.127.137-.184.325-.157.51.028.185.139.348.3.442l.245.143c.097.057.205.084.312.084.156 0 .311-.059.429-.173l1.358-1.311c.308-.249.506-.629.506-1.054 0-.747-.607-1.354-1.353-1.354z" fill="#67737B" sketch:type="MSShapeGroup"/><path d="M32 102.116c0-2.572-2.069-4.665-4.614-4.665-.341 0-.615.279-.615.622 0 .343.275.622.615.622 1.865 0 3.383 1.534 3.383 3.421 0 1.521-1.011 2.873-2.458 3.289-.327.094-.516.437-.424.767l.271.977-1.845-1.48c-.109-.087-.243-.134-.382-.134h-7.317c-1.865 0-3.383-1.534-3.383-3.421 0-.372.059-.74.175-1.09.109-.325-.065-.678-.387-.788-.323-.109-.671.066-.78.392-.159.479-.24.979-.239 1.488 0 2.571 2.069 4.664 4.614 4.664h7.103l3.166 2.538c.112.089.247.134.382.134.118 0 .238-.034.342-.104.222-.15.324-.427.251-.687l-.63-2.269c1.659-.732 2.773-2.412 2.773-4.276zm-4.605-6.261c1.008-1.453 1.541-3.158 1.541-4.932 0-4.774-3.883-8.658-8.657-8.658h-11.621c-4.774 0-8.658 3.884-8.658 8.658 0 3.644 2.316 6.906 5.704 8.137l-1.418 5.05c-.073.258.029.533.252.682.105.069.224.103.343.103.136 0 .272-.045.384-.134l6.534-5.181h8.48c2.836 0 5.496-1.392 7.116-3.725zm-15.735 2.489c-.139 0-.275.047-.384.134l-5.208 4.129 1.063-3.785c.092-.328-.099-.668-.427-.761-3.174-.902-5.392-3.837-5.392-7.138 0-4.092 3.33-7.421 7.422-7.421h11.621c4.092 0 7.421 3.329 7.421 7.421 0 1.52-.457 2.982-1.321 4.227-1.389 2-3.669 3.194-6.1 3.194h-8.695zm-3.184-9.4c.156-.221.248-.489.248-.778 0-.747-.607-1.354-1.354-1.354-.746 0-1.353.607-1.353 1.354 0 .425.198.806.506 1.054l1.358 1.311c.118.114.273.173.429.173.107 0 .215-.027.312-.084l.245-.143c.162-.094.272-.257.3-.442.028-.185-.03-.373-.157-.51l-.534-.581zm3.908 0c.155-.221.248-.489.248-.778 0-.747-.608-1.354-1.354-1.354-.746 0-1.354.607-1.354 1.354 0 .425.199.805.507 1.054l1.357 1.311c.119.114.274.173.43.173.107 0 .215-.027.311-.084l.246-.143c.161-.094.271-.257.299-.442.028-.185-.029-.373-.156-.51l-.534-.581zm8.194 6.018l.245.143c.097.057.205.084.311.084.157 0 .312-.059.43-.173l1.357-1.311c.309-.248.507-.628.507-1.054 0-.747-.607-1.354-1.354-1.354-.746 0-1.353.607-1.353 1.354 0 .289.092.558.247.778l-.534.581c-.126.137-.184.325-.156.51.028.185.138.348.3.442zm-2.411-3.665c-.747 0-1.354.607-1.354 1.354 0 .289.092.558.248.778l-.534.581c-.127.137-.184.325-.157.51.028.185.139.348.3.442l.245.143c.097.057.205.084.312.084.156 0 .311-.059.429-.173l1.358-1.311c.308-.249.506-.629.506-1.054 0-.747-.607-1.354-1.353-1.354z" fill="#fff" sketch:type="MSShapeGroup"/><path d="M32 142.116c0-2.572-2.069-4.665-4.614-4.665-.341 0-.615.279-.615.622 0 .343.275.622.615.622 1.865 0 3.383 1.534 3.383 3.421 0 1.521-1.011 2.873-2.458 3.289-.327.094-.516.437-.424.767l.271.977-1.845-1.48c-.109-.087-.243-.134-.382-.134h-7.317c-1.865 0-3.383-1.534-3.383-3.421 0-.372.059-.74.175-1.09.109-.325-.065-.678-.387-.788-.323-.109-.671.066-.78.392-.159.479-.24.979-.239 1.488 0 2.571 2.069 4.664 4.614 4.664h7.103l3.166 2.538c.112.089.247.134.382.134.118 0 .238-.034.342-.104.222-.15.324-.427.251-.687l-.63-2.269c1.659-.732 2.773-2.412 2.773-4.276zm-4.605-6.261c1.008-1.453 1.541-3.158 1.541-4.932 0-4.774-3.883-8.658-8.657-8.658h-11.621c-4.774 0-8.658 3.884-8.658 8.658 0 3.644 2.316 6.906 5.704 8.137l-1.418 5.05c-.073.258.029.533.252.682.105.069.224.103.343.103.136 0 .272-.045.384-.134l6.534-5.181h8.48c2.836 0 5.496-1.392 7.116-3.725zm-15.735 2.489c-.139 0-.275.047-.384.134l-5.208 4.129 1.063-3.785c.092-.328-.099-.668-.427-.761-3.174-.902-5.392-3.837-5.392-7.138 0-4.092 3.33-7.421 7.422-7.421h11.621c4.092 0 7.421 3.329 7.421 7.421 0 1.52-.457 2.982-1.321 4.227-1.389 2-3.669 3.194-6.1 3.194h-8.695zm-3.184-9.4c.156-.221.248-.489.248-.778 0-.747-.607-1.354-1.354-1.354-.746 0-1.353.607-1.353 1.354 0 .425.198.806.506 1.054l1.358 1.311c.118.114.273.173.429.173.107 0 .215-.027.312-.084l.245-.143c.162-.094.272-.257.3-.442.028-.185-.03-.373-.157-.51l-.534-.581zm3.908 0c.155-.221.248-.489.248-.778 0-.747-.608-1.354-1.354-1.354-.746 0-1.354.607-1.354 1.354 0 .425.199.805.507 1.054l1.357 1.311c.119.114.274.173.43.173.107 0 .215-.027.311-.084l.246-.143c.161-.094.271-.257.299-.442.028-.185-.029-.373-.156-.51l-.534-.581zm8.194 6.018l.245.143c.097.057.205.084.311.084.157 0 .312-.059.43-.173l1.357-1.311c.309-.248.507-.628.507-1.054 0-.747-.607-1.354-1.354-1.354-.746 0-1.353.607-1.353 1.354 0 .289.092.558.247.778l-.534.581c-.126.137-.184.325-.156.51.028.185.138.348.3.442zm-2.411-3.665c-.747 0-1.354.607-1.354 1.354 0 .289.092.558.248.778l-.534.581c-.127.137-.184.325-.157.51.028.185.139.348.3.442l.245.143c.097.057.205.084.312.084.156 0 .311-.059.429-.173l1.358-1.311c.308-.249.506-.629.506-1.054 0-.747-.607-1.354-1.353-1.354z" fill="#206FAC" sketch:type="MSShapeGroup"/></g></svg>