<svg width="32" height="232" viewBox="0 0 32 232" xmlns="http://www.w3.org/2000/svg" xmlns:sketch="http://www.bohemiancoding.com/sketch/ns"><title>legal</title><desc>Created with Sketch.</desc><g sketch:type="MSPage" fill="none"><path d="M25.095 26.498c-.116-.123-.278-.193-.448-.193h-8.023v-17.676c1.489.481 3.152.183 4.769-.108 1.891-.339 3.678-.661 5.145.17 2.452 1.39 2.499 2.923 2.499 3.007-.005.335.259.615.595.625l.021.001c.33 0 .603-.263.613-.595.002-.065.009-.66-.393-1.461-.512-1.02-1.429-1.91-2.729-2.646-1.854-1.05-3.945-.674-5.968-.311-1.689.304-3.288.59-4.552-.002v-3.261c.841-.263 1.453-1.048 1.453-1.974 0-1.14-.927-2.068-2.067-2.068-1.14 0-2.068.928-2.068 2.068 0 .926.613 1.711 1.453 1.974v3.059c-1.204-.276-2.318-1.198-3.486-2.168-1.581-1.313-3.215-2.671-5.345-2.671-3.632 0-4.698 1.951-4.741 2.034-.157.301-.045.677.256.834.301.158.669.046.827-.254.033-.057.821-1.385 3.658-1.385 1.687 0 3.082 1.16 4.56 2.387 1.312 1.09 2.662 2.212 4.271 2.477v17.944h-8.023c-.169 0-.331.07-.447.193l-4.21 4.473c-.168.178-.214.44-.117.665.098.225.319.37.564.37h25.695c.245 0 .467-.145.564-.37.097-.225.051-.487-.117-.665l-4.209-4.473zm-9.924-24.424c0-.463.377-.839.839-.839.462 0 .838.376.838.839 0 .462-.376.838-.838.838-.462 0-.839-.376-.839-.838zm-10.587 28.703l3.053-3.243h16.745l3.053 3.243h-22.851zm26.211-15.807h-.523l-4.237-5.302c-.117-.146-.294-.23-.481-.23-.186 0-.363.084-.479.23l-4.238 5.302h-.522c-.34 0-.615.276-.615.615 0 3.228 2.626 5.855 5.854 5.855 3.229 0 5.855-2.627 5.855-5.855 0-.339-.275-.615-.614-.615zm-5.241-3.934l3.145 3.934h-6.288l3.143-3.934zm0 9.175c-2.342 0-4.283-1.751-4.585-4.012h9.171c-.302 2.261-2.243 4.012-4.586 4.012zm-13.368-9.227c0-.339-.276-.615-.615-.615h-.523l-4.238-5.302c-.116-.146-.293-.23-.479-.23-.188 0-.364.084-.481.23l-4.237 5.302h-.523c-.34 0-.614.276-.614.615 0 3.228 2.626 5.855 5.855 5.855 3.228 0 5.855-2.627 5.855-5.855zm-5.855-4.549l3.144 3.934h-6.289l3.145-3.934zm-4.586 5.163h9.171c-.302 2.261-2.243 4.012-4.585 4.012-2.343 0-4.284-1.751-4.586-4.012z" fill="#3A434E" sketch:type="MSShapeGroup"/><path d="M25.095 66.498c-.116-.123-.278-.193-.448-.193h-8.023v-17.676c1.489.481 3.152.183 4.769-.108 1.891-.339 3.678-.661 5.145.17 2.452 1.39 2.499 2.923 2.499 3.007-.005.335.259.615.595.625l.021.001c.33 0 .603-.263.613-.595.002-.065.009-.66-.393-1.461-.512-1.02-1.429-1.91-2.729-2.646-1.854-1.05-3.945-.674-5.968-.311-1.689.304-3.288.59-4.552-.002v-3.261c.841-.263 1.453-1.048 1.453-1.974 0-1.14-.927-2.068-2.067-2.068-1.14 0-2.068.928-2.068 2.068 0 .926.613 1.711 1.453 1.974v3.059c-1.204-.276-2.318-1.198-3.486-2.168-1.581-1.313-3.215-2.671-5.345-2.671-3.632 0-4.698 1.951-4.741 2.034-.157.301-.045.677.256.834.301.158.669.046.827-.254.033-.057.821-1.385 3.658-1.385 1.687 0 3.082 1.16 4.56 2.387 1.312 1.09 2.662 2.212 4.271 2.477v17.944h-8.023c-.169 0-.331.07-.447.193l-4.21 4.473c-.168.178-.214.44-.117.665.098.225.319.37.564.37h25.695c.245 0 .467-.145.564-.37.097-.225.051-.487-.117-.665l-4.209-4.473zm-9.924-24.424c0-.463.377-.839.839-.839.462 0 .838.376.838.839 0 .462-.376.838-.838.838-.462 0-.839-.376-.839-.838zm-10.587 28.703l3.053-3.243h16.745l3.053 3.243h-22.851zm26.211-15.807h-.523l-4.237-5.302c-.117-.146-.294-.23-.481-.23-.186 0-.363.084-.479.23l-4.238 5.302h-.522c-.34 0-.615.276-.615.615 0 3.228 2.626 5.855 5.854 5.855 3.229 0 5.855-2.627 5.855-5.855 0-.339-.275-.615-.614-.615zm-5.241-3.934l3.145 3.934h-6.288l3.143-3.934zm0 9.175c-2.342 0-4.283-1.751-4.585-4.012h9.171c-.302 2.261-2.243 4.012-4.586 4.012zm-13.368-9.227c0-.339-.276-.615-.615-.615h-.523l-4.238-5.302c-.116-.146-.293-.23-.479-.23-.188 0-.364.084-.481.23l-4.237 5.302h-.523c-.34 0-.614.276-.614.615 0 3.228 2.626 5.855 5.855 5.855 3.228 0 5.855-2.627 5.855-5.855zm-5.855-4.549l3.144 3.934h-6.289l3.145-3.934zm-4.586 5.163h9.171c-.302 2.261-2.243 4.012-4.585 4.012-2.343 0-4.284-1.751-4.586-4.012z" fill="#67737B" sketch:type="MSShapeGroup"/><path d="M25.095 106.498c-.116-.123-.278-.193-.448-.193h-8.023v-17.676c1.489.481 3.152.183 4.769-.108 1.891-.339 3.678-.661 5.145.17 2.452 1.39 2.499 2.923 2.499 3.007-.005.335.259.615.595.625l.021.001c.33 0 .603-.263.613-.595.002-.065.009-.66-.393-1.461-.512-1.02-1.429-1.91-2.729-2.646-1.854-1.05-3.945-.674-5.968-.311-1.689.304-3.288.59-4.552-.002v-3.261c.841-.263 1.453-1.048 1.453-1.974 0-1.14-.927-2.068-2.067-2.068-1.14 0-2.068.928-2.068 2.068 0 .926.613 1.711 1.453 1.974v3.059c-1.204-.276-2.318-1.198-3.486-2.168-1.581-1.313-3.215-2.671-5.345-2.671-3.632 0-4.698 1.951-4.741 2.034-.157.301-.045.677.256.834.301.158.669.046.827-.254.033-.057.821-1.385 3.658-1.385 1.687 0 3.082 1.16 4.56 2.387 1.312 1.09 2.662 2.212 4.271 2.477v17.944h-8.023c-.169 0-.331.07-.447.193l-4.21 4.473c-.168.178-.214.44-.117.665.098.225.319.37.564.37h25.695c.245 0 .467-.145.564-.37.097-.225.051-.487-.117-.665l-4.209-4.473zm-9.924-24.424c0-.463.377-.839.839-.839.462 0 .838.376.838.839 0 .462-.376.838-.838.838-.462 0-.839-.376-.839-.838zm-10.587 28.703l3.053-3.243h16.745l3.053 3.243h-22.851zm26.211-15.807h-.523l-4.237-5.302c-.117-.146-.294-.23-.481-.23-.186 0-.363.084-.479.23l-4.238 5.302h-.522c-.34 0-.615.276-.615.615 0 3.228 2.626 5.855 5.854 5.855 3.229 0 5.855-2.627 5.855-5.855 0-.339-.275-.615-.614-.615zm-5.241-3.934l3.145 3.934h-6.288l3.143-3.934zm0 9.175c-2.342 0-4.283-1.751-4.585-4.012h9.171c-.302 2.261-2.243 4.012-4.586 4.012zm-13.368-9.227c0-.339-.276-.615-.615-.615h-.523l-4.238-5.302c-.116-.146-.293-.23-.479-.23-.188 0-.364.084-.481.23l-4.237 5.302h-.523c-.34 0-.614.276-.614.615 0 3.228 2.626 5.855 5.855 5.855 3.228 0 5.855-2.627 5.855-5.855zm-5.855-4.549l3.144 3.934h-6.289l3.145-3.934zm-4.586 5.163h9.171c-.302 2.261-2.243 4.012-4.585 4.012-2.343 0-4.284-1.751-4.586-4.012z" fill="#fff" sketch:type="MSShapeGroup"/><path d="M25.095 146.498c-.116-.123-.278-.193-.448-.193h-8.023v-17.676c1.489.481 3.152.183 4.769-.108 1.891-.339 3.678-.661 5.145.17 2.452 1.39 2.499 2.923 2.499 3.007-.005.335.259.615.595.625l.021.001c.33 0 .603-.263.613-.595.002-.065.009-.66-.393-1.461-.512-1.02-1.429-1.91-2.729-2.646-1.854-1.05-3.945-.674-5.968-.311-1.689.304-3.288.59-4.552-.002v-3.261c.841-.263 1.453-1.048 1.453-1.974 0-1.14-.927-2.068-2.067-2.068-1.14 0-2.068.928-2.068 2.068 0 .926.613 1.711 1.453 1.974v3.059c-1.204-.276-2.318-1.198-3.486-2.168-1.581-1.313-3.215-2.671-5.345-2.671-3.632 0-4.698 1.951-4.741 2.034-.157.301-.045.677.256.834.301.158.669.046.827-.254.033-.057.821-1.385 3.658-1.385 1.687 0 3.082 1.16 4.56 2.387 1.312 1.09 2.662 2.212 4.271 2.477v17.944h-8.023c-.169 0-.331.07-.447.193l-4.21 4.473c-.168.178-.214.44-.117.665.098.225.319.37.564.37h25.695c.245 0 .467-.145.564-.37.097-.225.051-.487-.117-.665l-4.209-4.473zm-9.924-24.424c0-.463.377-.839.839-.839.462 0 .838.376.838.839 0 .462-.376.838-.838.838-.462 0-.839-.376-.839-.838zm-10.587 28.703l3.053-3.243h16.745l3.053 3.243h-22.851zm26.211-15.807h-.523l-4.237-5.302c-.117-.146-.294-.23-.481-.23-.186 0-.363.084-.479.23l-4.238 5.302h-.522c-.34 0-.615.276-.615.615 0 3.228 2.626 5.855 5.854 5.855 3.229 0 5.855-2.627 5.855-5.855 0-.339-.275-.615-.614-.615zm-5.241-3.934l3.145 3.934h-6.288l3.143-3.934zm0 9.175c-2.342 0-4.283-1.751-4.585-4.012h9.171c-.302 2.261-2.243 4.012-4.586 4.012zm-13.368-9.227c0-.339-.276-.615-.615-.615h-.523l-4.238-5.302c-.116-.146-.293-.23-.479-.23-.188 0-.364.084-.481.23l-4.237 5.302h-.523c-.34 0-.614.276-.614.615 0 3.228 2.626 5.855 5.855 5.855 3.228 0 5.855-2.627 5.855-5.855zm-5.855-4.549l3.144 3.934h-6.289l3.145-3.934zm-4.586 5.163h9.171c-.302 2.261-2.243 4.012-4.585 4.012-2.343 0-4.284-1.751-4.586-4.012z" fill="#206FAC" sketch:type="MSShapeGroup"/></g></svg>