<svg width="32" height="232" viewBox="0 0 32 232" xmlns="http://www.w3.org/2000/svg"><title>legal</title><desc>Created with Sketch.</desc><g fill="none"><path d="M25.095 26.498c-.116-.123-.278-.193-.448-.193h-8.023V8.63c1.49.48 3.152.182 4.77-.11 1.89-.338 3.677-.66 5.144.17 2.452 1.39 2.5 2.924 2.5 3.008-.006.335.258.615.594.625h.02c.33 0 .604-.262.614-.594.002-.066.01-.66-.393-1.462-.512-1.02-1.43-1.91-2.73-2.646-1.853-1.05-3.944-.674-5.967-.31-1.69.303-3.288.59-4.552-.003V4.047c.84-.263 1.453-1.048 1.453-1.974 0-1.14-.927-2.068-2.067-2.068-1.14 0-2.068.928-2.068 2.068 0 .926.613 1.71 1.453 1.974v3.06c-1.204-.277-2.318-1.2-3.486-2.17-1.582-1.312-3.216-2.67-5.346-2.67-3.632 0-4.698 1.95-4.74 2.034-.158.3-.046.677.255.834.3.158.668.046.826-.254.033-.057.82-1.385 3.658-1.385 1.687 0 3.082 1.16 4.56 2.387 1.312 1.09 2.662 2.212 4.27 2.477v17.945H7.373c-.17 0-.33.07-.447.193l-4.21 4.473c-.168.18-.214.44-.117.666.098.225.32.37.564.37h25.695c.245 0 .467-.145.564-.37.098-.225.052-.487-.116-.665l-4.21-4.472zM15.17 2.074c0-.463.378-.84.84-.84.462 0 .838.377.838.84 0 .462-.376.838-.838.838-.462 0-.84-.376-.84-.838zM4.585 30.777l3.053-3.243h16.745l3.053 3.243H4.585zm26.21-15.807h-.522l-4.237-5.302c-.117-.146-.294-.23-.48-.23-.187 0-.364.084-.48.23l-4.238 5.302h-.522c-.34 0-.615.276-.615.615 0 3.228 2.626 5.855 5.854 5.855 3.23 0 5.855-2.627 5.855-5.855 0-.34-.276-.615-.615-.615zm-5.24-3.934L28.7 14.97h-6.29l3.144-3.934zm0 9.175c-2.342 0-4.283-1.75-4.585-4.01h9.17c-.302 2.26-2.243 4.01-4.586 4.01zm-13.368-9.226c0-.34-.276-.615-.615-.615h-.522L6.81 5.066c-.116-.146-.293-.23-.48-.23s-.363.084-.48.23L1.613 10.37H1.09c-.34 0-.614.275-.614.614 0 3.228 2.626 5.855 5.855 5.855 3.23 0 5.856-2.628 5.856-5.856zM6.33 6.434l3.145 3.935h-6.29l3.146-3.935zM1.746 11.6h9.17c-.3 2.26-2.242 4.012-4.584 4.012-2.342 0-4.283-1.75-4.585-4.012z" fill="#3A434E"/><path d="M25.095 66.498c-.116-.123-.278-.193-.448-.193h-8.023V48.63c1.49.48 3.152.182 4.77-.11 1.89-.338 3.677-.66 5.144.17 2.452 1.39 2.5 2.924 2.5 3.008-.006.335.258.615.594.625h.02c.33 0 .604-.262.614-.594.002-.066.01-.66-.393-1.462-.512-1.02-1.43-1.91-2.73-2.646-1.853-1.05-3.944-.674-5.967-.31-1.69.303-3.288.59-4.552-.003v-3.262c.84-.263 1.453-1.048 1.453-1.974 0-1.14-.927-2.068-2.067-2.068-1.14 0-2.068.928-2.068 2.068 0 .926.613 1.71 1.453 1.974v3.06c-1.204-.277-2.318-1.2-3.486-2.17-1.582-1.312-3.216-2.67-5.346-2.67-3.632 0-4.698 1.95-4.74 2.034-.158.3-.046.677.255.834.3.158.668.046.826-.254.033-.057.82-1.385 3.658-1.385 1.687 0 3.082 1.16 4.56 2.387 1.312 1.09 2.662 2.212 4.27 2.477v17.945H7.373c-.17 0-.33.07-.447.193l-4.21 4.473c-.168.18-.214.44-.117.666.098.225.32.37.564.37h25.695c.245 0 .467-.145.564-.37.098-.225.052-.487-.116-.665l-4.21-4.472zM15.17 42.074c0-.463.378-.84.84-.84.462 0 .838.377.838.84 0 .462-.376.838-.838.838-.462 0-.84-.376-.84-.838zM4.585 70.777l3.053-3.243h16.745l3.053 3.243H4.585zm26.21-15.807h-.522l-4.237-5.302c-.117-.146-.294-.23-.48-.23-.187 0-.364.084-.48.23l-4.238 5.302h-.522c-.34 0-.615.276-.615.615 0 3.228 2.626 5.855 5.854 5.855 3.23 0 5.855-2.627 5.855-5.855 0-.34-.276-.615-.615-.615zm-5.24-3.934L28.7 54.97h-6.29l3.144-3.934zm0 9.175c-2.342 0-4.283-1.75-4.585-4.01h9.17c-.302 2.26-2.243 4.01-4.586 4.01zm-13.368-9.226c0-.34-.276-.615-.615-.615h-.522L6.81 45.066c-.116-.146-.293-.23-.48-.23s-.363.084-.48.23L1.613 50.37H1.09c-.34 0-.614.275-.614.614 0 3.228 2.626 5.855 5.855 5.855 3.23 0 5.856-2.628 5.856-5.856zm-5.855-4.55l3.145 3.935h-6.29l3.146-3.935zM1.746 51.6h9.17c-.3 2.26-2.242 4.012-4.584 4.012-2.342 0-4.283-1.75-4.585-4.012z" fill="#67737B"/><path d="M25.095 106.498c-.116-.123-.278-.193-.448-.193h-8.023V88.63c1.49.48 3.152.182 4.77-.11 1.89-.338 3.677-.66 5.144.17 2.452 1.39 2.5 2.924 2.5 3.008-.006.335.258.615.594.625h.02c.33 0 .604-.262.614-.594.002-.066.01-.66-.393-1.462-.512-1.02-1.43-1.91-2.73-2.646-1.853-1.05-3.944-.674-5.967-.31-1.69.303-3.288.59-4.552-.003v-3.262c.84-.263 1.453-1.048 1.453-1.974 0-1.14-.927-2.068-2.067-2.068-1.14 0-2.068.928-2.068 2.068 0 .926.613 1.71 1.453 1.974v3.06c-1.204-.277-2.318-1.2-3.486-2.17-1.582-1.312-3.216-2.67-5.346-2.67-3.632 0-4.698 1.95-4.74 2.034-.158.3-.046.677.255.834.3.158.668.046.826-.254.033-.057.82-1.385 3.658-1.385 1.687 0 3.082 1.16 4.56 2.387 1.312 1.09 2.662 2.212 4.27 2.477v17.945H7.373c-.17 0-.33.07-.447.193l-4.21 4.473c-.168.18-.214.44-.117.666.098.225.32.37.564.37h25.695c.245 0 .467-.145.564-.37.098-.225.052-.487-.116-.665l-4.21-4.472zM15.17 82.074c0-.463.378-.84.84-.84.462 0 .838.377.838.84 0 .462-.376.838-.838.838-.462 0-.84-.376-.84-.838zM4.585 110.777l3.053-3.243h16.745l3.053 3.243H4.585zm26.21-15.807h-.522l-4.237-5.302c-.117-.146-.294-.23-.48-.23-.187 0-.364.084-.48.23l-4.238 5.302h-.522c-.34 0-.615.276-.615.615 0 3.228 2.626 5.855 5.854 5.855 3.23 0 5.855-2.627 5.855-5.855 0-.34-.276-.615-.615-.615zm-5.24-3.934L28.7 94.97h-6.29l3.144-3.934zm0 9.175c-2.342 0-4.283-1.75-4.585-4.01h9.17c-.302 2.26-2.243 4.01-4.586 4.01zm-13.368-9.226c0-.34-.276-.615-.615-.615h-.522L6.81 85.066c-.116-.146-.293-.23-.48-.23s-.363.084-.48.23L1.613 90.37H1.09c-.34 0-.614.275-.614.614 0 3.228 2.626 5.855 5.855 5.855 3.23 0 5.856-2.628 5.856-5.856zm-5.855-4.55l3.145 3.935h-6.29l3.146-3.935zM1.746 91.6h9.17c-.3 2.26-2.242 4.012-4.584 4.012-2.342 0-4.283-1.75-4.585-4.012z" fill="#fff"/><path d="M25.095 146.498c-.116-.123-.278-.193-.448-.193h-8.023V128.63c1.49.48 3.152.182 4.77-.11 1.89-.338 3.677-.66 5.144.17 2.452 1.39 2.5 2.924 2.5 3.008-.006.335.258.615.594.625h.02c.33 0 .604-.262.614-.594.002-.066.01-.66-.393-1.462-.512-1.02-1.43-1.91-2.73-2.646-1.853-1.05-3.944-.674-5.967-.31-1.69.303-3.288.59-4.552-.003v-3.262c.84-.263 1.453-1.048 1.453-1.974 0-1.14-.927-2.068-2.067-2.068-1.14 0-2.068.928-2.068 2.068 0 .926.613 1.71 1.453 1.974v3.06c-1.204-.277-2.318-1.2-3.486-2.17-1.582-1.312-3.216-2.67-5.346-2.67-3.632 0-4.698 1.95-4.74 2.034-.158.3-.046.677.255.834.3.158.668.046.826-.254.033-.057.82-1.385 3.658-1.385 1.687 0 3.082 1.16 4.56 2.387 1.312 1.09 2.662 2.212 4.27 2.477v17.945H7.373c-.17 0-.33.07-.447.193l-4.21 4.473c-.168.18-.214.44-.117.666.098.225.32.37.564.37h25.695c.245 0 .467-.145.564-.37.098-.225.052-.487-.116-.665l-4.21-4.472zm-9.924-24.424c0-.463.378-.84.84-.84.462 0 .838.377.838.84 0 .462-.376.838-.838.838-.462 0-.84-.376-.84-.838zM4.585 150.777l3.053-3.243h16.745l3.053 3.243H4.585zm26.21-15.807h-.522l-4.237-5.302c-.117-.146-.294-.23-.48-.23-.187 0-.364.084-.48.23l-4.238 5.302h-.522c-.34 0-.615.276-.615.615 0 3.228 2.626 5.855 5.854 5.855 3.23 0 5.855-2.627 5.855-5.855 0-.34-.276-.615-.615-.615zm-5.24-3.934l3.145 3.934h-6.29l3.144-3.934zm0 9.175c-2.342 0-4.283-1.75-4.585-4.01h9.17c-.302 2.26-2.243 4.01-4.586 4.01zm-13.368-9.226c0-.34-.276-.615-.615-.615h-.522l-4.238-5.303c-.116-.146-.293-.23-.48-.23s-.363.084-.48.23l-4.237 5.302H1.09c-.34 0-.614.275-.614.614 0 3.228 2.626 5.855 5.855 5.855 3.23 0 5.856-2.628 5.856-5.856zm-5.855-4.55l3.145 3.935h-6.29l3.146-3.935zM1.746 131.6h9.17c-.3 2.26-2.242 4.012-4.584 4.012-2.342 0-4.283-1.75-4.585-4.012z" fill="#206FAC"/></g></svg>