<svg width="32" height="232" viewBox="0 0 32 232" xmlns="http://www.w3.org/2000/svg"><desc>Created with Sketch.</desc><g fill="none"><path d="M15.907 5.415c1.493 0 2.708-1.215 2.708-2.708S17.4 0 15.907 0 13.2 1.214 13.2 2.707c0 1.493 1.214 2.708 2.707 2.708zm0-4.206c.827 0 1.5.67 1.5 1.494s-.673 1.498-1.5 1.498c-.826 0-1.498-.672-1.498-1.498s.67-1.498 1.494-1.498zm7.546 29.58h-4.57l.125-16.848.44-3.083 1.123 7.345c.05.3.308.514.6.514l.09-.007c.33-.05.56-.36.51-.69L20.11 7.18c-.016-.098-.055-.184-.11-.26 0-.128-.04-.255-.12-.36-.1-.128-.246-.212-.407-.23l-3.57-.442h-.15l-3.414.44c-.165.022-.31.106-.408.234-.08.104-.12.23-.122.36-.052.074-.09.16-.106.257L10.046 18.02c-.05.33.176.638.507.69l.092.006c.293 0 .55-.214.597-.514l1.123-7.345.44 3.084.125 16.844H8.36c-.333 0-.604.27-.604.604 0 .334.27.605.604.605h15.093c.334 0 .605-.27.605-.606 0-.333-.27-.604-.605-.604zm-5.78 0h-1.16V19.945c0-.334-.272-.605-.606-.605-.334 0-.604.27-.604.606V30.79H14.14l-.105-14.39h3.745l-.106 14.39zm.132-16.978l-.006.08-.01 1.297H14.02l-.01-1.296-.005-.08-.91-6.366 2.73-.354 2.88.355-.906 6.362z" fill="#3A434E"/><path d="M15.907 45.415c1.493 0 2.708-1.215 2.708-2.708S17.4 40 15.907 40 13.2 41.214 13.2 42.707c0 1.493 1.214 2.708 2.707 2.708zm0-4.206c.827 0 1.5.67 1.5 1.494s-.673 1.498-1.5 1.498c-.826 0-1.498-.672-1.498-1.498s.67-1.498 1.494-1.498zm7.546 29.58h-4.57l.125-16.848.44-3.083 1.123 7.345c.05.3.308.514.6.514l.09-.007c.33-.05.56-.36.51-.69L20.11 47.18c-.016-.098-.055-.184-.11-.26 0-.128-.04-.255-.12-.36-.1-.128-.246-.212-.407-.23l-3.57-.442h-.15l-3.414.44c-.165.022-.31.106-.408.234-.08.104-.12.23-.122.36-.052.074-.09.16-.106.257L10.046 58.02c-.05.33.176.638.507.69l.092.006c.293 0 .55-.214.597-.514l1.123-7.345.44 3.084.125 16.844H8.36c-.333 0-.604.27-.604.604 0 .334.27.605.604.605h15.093c.334 0 .605-.27.605-.606 0-.333-.27-.604-.605-.604zm-5.78 0h-1.16V59.945c0-.334-.272-.605-.606-.605-.334 0-.604.27-.604.606V70.79H14.14l-.105-14.39h3.745l-.106 14.39zm.132-16.978l-.006.08-.01 1.297H14.02l-.01-1.296-.005-.08-.91-6.366 2.73-.354 2.88.355-.906 6.362z" fill="#67737B"/><path d="M15.907 85.415c1.493 0 2.708-1.215 2.708-2.708S17.4 80 15.907 80 13.2 81.214 13.2 82.707c0 1.493 1.214 2.708 2.707 2.708zm0-4.206c.827 0 1.5.67 1.5 1.494s-.673 1.498-1.5 1.498c-.826 0-1.498-.672-1.498-1.498s.67-1.498 1.494-1.498zm7.546 29.58h-4.57l.125-16.848.44-3.083 1.123 7.345c.05.3.308.514.6.514l.09-.007c.33-.05.56-.36.51-.69L20.11 87.18c-.016-.098-.055-.184-.11-.26 0-.128-.04-.255-.12-.36-.1-.128-.246-.212-.407-.23l-3.57-.442h-.15l-3.414.44c-.165.022-.31.106-.408.234-.08.104-.12.23-.122.36-.052.074-.09.16-.106.257L10.046 98.02c-.05.33.176.638.507.69l.092.006c.293 0 .55-.214.597-.514l1.123-7.345.44 3.084.125 16.844H8.36c-.333 0-.604.27-.604.604 0 .334.27.605.604.605h15.093c.334 0 .605-.27.605-.606 0-.333-.27-.604-.605-.604zm-5.78 0h-1.16V99.945c0-.334-.272-.605-.606-.605-.334 0-.604.27-.604.606v10.842H14.14l-.105-14.39h3.745l-.106 14.39zm.132-16.978l-.006.08-.01 1.297H14.02l-.01-1.296-.005-.08-.91-6.366 2.73-.354 2.88.355-.906 6.362z" fill="#fff"/><path d="M15.907 125.415c1.493 0 2.708-1.215 2.708-2.708S17.4 120 15.907 120s-2.707 1.214-2.707 2.707c0 1.493 1.214 2.708 2.707 2.708zm0-4.206c.827 0 1.5.67 1.5 1.494s-.673 1.498-1.5 1.498c-.826 0-1.498-.672-1.498-1.498s.67-1.498 1.494-1.498zm7.546 29.58h-4.57l.125-16.848.44-3.083 1.123 7.345c.05.3.308.514.6.514l.09-.007c.33-.05.56-.36.51-.69l-1.66-10.844c-.015-.1-.054-.185-.11-.26 0-.13-.04-.256-.12-.36-.1-.13-.245-.213-.406-.23l-3.57-.443h-.15l-3.414.44c-.164.022-.31.106-.407.234-.08.105-.12.23-.122.36-.05.075-.09.16-.105.258l-1.658 10.843c-.05.33.176.64.507.69l.092.007c.293 0 .55-.214.597-.514l1.123-7.345.44 3.085.125 16.844H8.36c-.333 0-.604.27-.604.604 0 .335.27.606.604.606h15.093c.334 0 .605-.27.605-.606 0-.334-.27-.605-.605-.605zm-5.78 0h-1.16v-10.845c0-.334-.272-.605-.606-.605-.334 0-.604.27-.604.606v10.842H14.14l-.105-14.39h3.745l-.106 14.39zm.132-16.978l-.006.08-.01 1.297H14.02l-.01-1.296-.005-.08-.91-6.366 2.73-.354 2.88.355-.906 6.362z" fill="#206FAC"/></g></svg>