<svg width="32" height="232" viewBox="0 0 32 232" xmlns="http://www.w3.org/2000/svg"><title>motorbike</title><desc>Created with Sketch.</desc><g fill="none"><path d="M27.183 14.88c1.533 0 2.974.677 3.95 1.86.173.21.482.24.69.067.21-.172.238-.48.066-.69-1.165-1.41-2.88-2.217-4.707-2.217-.572 0-1.126.08-1.65.23l-.39-1.14c.237.073.493.114.76.114.27 0 .49-.22.49-.49v-2.95c0-.27-.22-.49-.49-.49-.734 0-1.387.306-1.8.777l-.6-1.75c-.05-.14-.157-.252-.296-.303-.138-.05-.292-.036-.42.04L20.848 9.1h-2.47c-.27 0-.49.218-.49.488s.22.49.49.49h2.604c.09 0 .177-.024.253-.07l1.54-.92.752 2.2h-4.83c-1.527 0-2.797 1.122-3.032 2.584h-1.43l-.766-1.446c-.084-.16-.25-.26-.432-.26H7.618c-.682 0-2.278 0-2.858 1.17-.37-.482-1.113-.796-2.008-.796-.27 0-.49.22-.49.49v2.065c0 .27.22.49.49.49.16 0 .318-.01.468-.03-1.078 1.007-1.79 2.4-1.914 3.956H.49c-.27 0-.49.22-.49.49s.22.49.49.49h2.547c.26 2.16 2.105 3.84 4.335 3.84 2.408 0 4.368-1.96 4.368-4.367 0-2.41-1.96-4.368-4.368-4.368-2.256 0-4.118 1.72-4.345 3.916h-.74c.247-2.587 2.433-4.618 5.085-4.618 2.817 0 5.11 2.292 5.11 5.11 0 .316-.03.634-.088.943l-.005.132-.005.037c0 .27.22.49.49.49h4.253l.276.017.277-.016h.696c.14 0 .27-.06.364-.162l1.74-1.93.102-.176 1.455-4.406.017-.08h1.864c-1.703 1.084-2.836 2.987-2.836 5.15 0 .27.22.49.49.49s.49-.22.49-.49c0-2.017 1.172-3.765 2.87-4.6l.226.66c-1.427.72-2.408 2.198-2.408 3.903 0 2.408 1.96 4.368 4.367 4.368 2.41 0 4.37-1.96 4.37-4.367 0-2.41-1.96-4.368-4.37-4.368-.358 0-.707.044-1.04.126l-.228-.664c.425-.115.872-.177 1.333-.177zm-1.77-4.652v1.823c-.466-.147-.796-.5-.796-.91 0-.41.33-.764.797-.912zm-18.04 6.346c1.868 0 3.388 1.52 3.388 3.39 0 1.868-1.52 3.388-3.388 3.388-1.87 0-3.39-1.52-3.39-3.39 0-1.868 1.52-3.388 3.39-3.388zm19.744 0c1.87 0 3.39 1.52 3.39 3.39 0 1.868-1.52 3.388-3.39 3.388-1.868 0-3.39-1.52-3.39-3.39 0-1.274.71-2.386 1.752-2.965l.7 2.05c-.23.238-.373.56-.373.916 0 .722.588 1.31 1.31 1.31.723 0 1.31-.588 1.31-1.31 0-.723-.587-1.31-1.31-1.31h-.036l-.685-2c.233-.052.475-.08.722-.08zm0 3.057c.183 0 .332.15.332.333 0 .182-.15.33-.333.33-.182 0-.33-.148-.33-.33 0-.183.148-.332.33-.332zm-8.42-7.362h5.07l.56 1.604H16.66c.22-.92 1.05-1.604 2.036-1.604zm-11.08.876h5.123l.385.728H5.593c.15-.41.62-.728 2.025-.728zm-4.376.422c.505.103.8.348.8.496 0 .148-.295.393-.8.496v-.992zm12.85 5.763c0-.725.59-1.314 1.314-1.314.725 0 1.314.59 1.314 1.313 0 .654-.483 1.197-1.11 1.295H17.2c-.628-.098-1.11-.64-1.11-1.296zm3.594-.398l-.02.02c-.18-1.085-1.124-1.915-2.26-1.915-1.263 0-2.292 1.028-2.292 2.292 0 .48.15.926.403 1.295h-2.088l.027-.37h.81c.272 0 .49-.218.49-.488s-.218-.49-.49-.49h-.85l-.073-.475h1.104c.27 0 .49-.22.49-.49s-.22-.49-.49-.49h-1.338l-.05.006c-.473-1.236-1.338-2.28-2.443-2.977h10.42l-1.35 4.082zm-12.312 2.34c.722 0 1.31-.587 1.31-1.31 0-.722-.588-1.31-1.31-1.31-.722 0-1.31.588-1.31 1.31 0 .723.588 1.31 1.31 1.31zm0-1.64c.183 0 .33.148.33.33 0 .183-.147.332-.33.332-.183 0-.33-.15-.33-.33 0-.184.147-.333.33-.333z" fill="#3A434E"/><path d="M27.183 54.88c1.533 0 2.974.677 3.95 1.86.173.21.482.24.69.067.21-.172.238-.48.066-.69-1.165-1.41-2.88-2.217-4.707-2.217-.572 0-1.126.08-1.65.23l-.39-1.14c.237.073.493.114.76.114.27 0 .49-.22.49-.49v-2.95c0-.27-.22-.49-.49-.49-.734 0-1.387.306-1.8.777l-.6-1.75c-.05-.14-.157-.252-.296-.303-.138-.05-.292-.036-.42.04l-1.94 1.162h-2.47c-.27 0-.49.218-.49.488s.22.49.49.49h2.604c.09 0 .177-.024.253-.07l1.54-.92.752 2.2h-4.83c-1.527 0-2.797 1.122-3.032 2.584h-1.43l-.766-1.446c-.084-.16-.25-.26-.432-.26H7.618c-.682 0-2.278 0-2.858 1.17-.37-.482-1.113-.796-2.008-.796-.27 0-.49.22-.49.49v2.065c0 .27.22.49.49.49.16 0 .318-.01.468-.03-1.078 1.007-1.79 2.4-1.914 3.956H.49c-.27 0-.49.22-.49.49s.22.49.49.49h2.547c.26 2.16 2.105 3.84 4.335 3.84 2.408 0 4.368-1.96 4.368-4.367 0-2.41-1.96-4.368-4.368-4.368-2.256 0-4.118 1.72-4.345 3.916h-.74c.247-2.587 2.433-4.618 5.085-4.618 2.817 0 5.11 2.292 5.11 5.11 0 .316-.03.634-.088.943l-.005.132-.005.037c0 .27.22.49.49.49h4.253l.276.017.277-.016h.696c.14 0 .27-.06.364-.162l1.74-1.93.102-.176 1.455-4.406.017-.08h1.864c-1.703 1.084-2.836 2.987-2.836 5.15 0 .27.22.49.49.49s.49-.22.49-.49c0-2.017 1.172-3.765 2.87-4.6l.226.66c-1.427.72-2.408 2.198-2.408 3.903 0 2.408 1.96 4.368 4.367 4.368 2.41 0 4.37-1.96 4.37-4.367 0-2.41-1.96-4.368-4.37-4.368-.358 0-.707.044-1.04.126l-.228-.664c.425-.115.872-.177 1.333-.177zm-1.77-4.652v1.823c-.466-.147-.796-.5-.796-.91 0-.41.33-.764.797-.912zm-18.04 6.346c1.868 0 3.388 1.52 3.388 3.39 0 1.868-1.52 3.388-3.388 3.388-1.87 0-3.39-1.52-3.39-3.39 0-1.868 1.52-3.388 3.39-3.388zm19.744 0c1.87 0 3.39 1.52 3.39 3.39 0 1.868-1.52 3.388-3.39 3.388-1.868 0-3.39-1.52-3.39-3.39 0-1.274.71-2.386 1.752-2.965l.7 2.05c-.23.238-.373.56-.373.916 0 .722.588 1.31 1.31 1.31.723 0 1.31-.588 1.31-1.31 0-.723-.587-1.31-1.31-1.31h-.036l-.685-2c.233-.052.475-.08.722-.08zm0 3.057c.183 0 .332.15.332.333 0 .182-.15.33-.333.33-.182 0-.33-.148-.33-.33 0-.183.148-.332.33-.332zm-8.42-7.362h5.07l.56 1.604H16.66c.22-.92 1.05-1.604 2.036-1.604zm-11.08.876h5.123l.385.728H5.593c.15-.41.62-.728 2.025-.728zm-4.376.422c.505.103.8.348.8.496 0 .148-.295.393-.8.496v-.992zm12.85 5.763c0-.725.59-1.314 1.314-1.314.725 0 1.314.59 1.314 1.313 0 .654-.483 1.197-1.11 1.295H17.2c-.628-.098-1.11-.64-1.11-1.296zm3.594-.398l-.02.02c-.18-1.085-1.124-1.915-2.26-1.915-1.263 0-2.292 1.028-2.292 2.292 0 .48.15.926.403 1.295h-2.088l.027-.37h.81c.272 0 .49-.218.49-.488s-.218-.49-.49-.49h-.85l-.073-.475h1.104c.27 0 .49-.22.49-.49s-.22-.49-.49-.49h-1.338l-.05.006c-.473-1.236-1.338-2.28-2.443-2.977h10.42l-1.35 4.082zm-12.312 2.34c.722 0 1.31-.587 1.31-1.31 0-.722-.588-1.31-1.31-1.31-.722 0-1.31.588-1.31 1.31 0 .723.588 1.31 1.31 1.31zm0-1.64c.183 0 .33.148.33.33 0 .183-.147.332-.33.332-.183 0-.33-.15-.33-.33 0-.184.147-.333.33-.333z" fill="#67737B"/><path d="M27.183 94.88c1.533 0 2.974.677 3.95 1.86.173.21.482.24.69.067.21-.172.238-.48.066-.69-1.165-1.41-2.88-2.217-4.707-2.217-.572 0-1.126.08-1.65.23l-.39-1.14c.237.073.493.114.76.114.27 0 .49-.22.49-.49v-2.95c0-.27-.22-.49-.49-.49-.734 0-1.387.306-1.8.777l-.6-1.75c-.05-.14-.157-.252-.296-.303-.138-.05-.292-.036-.42.04l-1.94 1.162h-2.47c-.27 0-.49.218-.49.488s.22.49.49.49h2.604c.09 0 .177-.024.253-.07l1.54-.92.752 2.2h-4.83c-1.527 0-2.797 1.122-3.032 2.584h-1.43l-.766-1.446c-.084-.16-.25-.26-.432-.26H7.618c-.682 0-2.278 0-2.858 1.17-.37-.482-1.113-.796-2.008-.796-.27 0-.49.22-.49.49v2.065c0 .27.22.49.49.49.16 0 .318-.01.468-.03-1.078 1.007-1.79 2.4-1.914 3.956H.49c-.27 0-.49.22-.49.49s.22.49.49.49h2.547c.26 2.16 2.105 3.84 4.335 3.84 2.408 0 4.368-1.96 4.368-4.367 0-2.41-1.96-4.368-4.368-4.368-2.256 0-4.118 1.72-4.345 3.916h-.74c.247-2.587 2.433-4.618 5.085-4.618 2.817 0 5.11 2.292 5.11 5.11 0 .316-.03.634-.088.943l-.005.132-.005.037c0 .27.22.49.49.49h4.253l.276.017.277-.016h.696c.14 0 .27-.06.364-.162l1.74-1.93.102-.176 1.455-4.406.017-.08h1.864c-1.703 1.084-2.836 2.987-2.836 5.15 0 .27.22.49.49.49s.49-.22.49-.49c0-2.017 1.172-3.765 2.87-4.6l.226.66c-1.427.72-2.408 2.198-2.408 3.903 0 2.408 1.96 4.368 4.367 4.368 2.41 0 4.37-1.96 4.37-4.367 0-2.41-1.96-4.368-4.37-4.368-.358 0-.707.044-1.04.126l-.228-.664c.425-.115.872-.177 1.333-.177zm-1.77-4.652v1.823c-.466-.147-.796-.5-.796-.91 0-.41.33-.764.797-.912zm-18.04 6.346c1.868 0 3.388 1.52 3.388 3.39 0 1.868-1.52 3.388-3.388 3.388-1.87 0-3.39-1.52-3.39-3.39 0-1.868 1.52-3.388 3.39-3.388zm19.744 0c1.87 0 3.39 1.52 3.39 3.39 0 1.868-1.52 3.388-3.39 3.388-1.868 0-3.39-1.52-3.39-3.39 0-1.274.71-2.386 1.752-2.965l.7 2.05c-.23.238-.373.56-.373.916 0 .722.588 1.31 1.31 1.31.723 0 1.31-.588 1.31-1.31 0-.723-.587-1.31-1.31-1.31h-.036l-.685-2c.233-.052.475-.08.722-.08zm0 3.057c.183 0 .332.15.332.333 0 .182-.15.33-.333.33-.182 0-.33-.148-.33-.33 0-.183.148-.332.33-.332zm-8.42-7.362h5.07l.56 1.604H16.66c.22-.92 1.05-1.604 2.036-1.604zm-11.08.876h5.123l.385.728H5.593c.15-.41.62-.728 2.025-.728zm-4.376.422c.505.103.8.348.8.496 0 .148-.295.393-.8.496v-.992zm12.85 5.763c0-.725.59-1.314 1.314-1.314.725 0 1.314.59 1.314 1.313 0 .654-.483 1.197-1.11 1.295H17.2c-.628-.098-1.11-.64-1.11-1.296zm3.594-.398l-.02.02c-.18-1.085-1.124-1.915-2.26-1.915-1.263 0-2.292 1.028-2.292 2.292 0 .48.15.926.403 1.295h-2.088l.027-.37h.81c.272 0 .49-.218.49-.488s-.218-.49-.49-.49h-.85l-.073-.475h1.104c.27 0 .49-.22.49-.49s-.22-.49-.49-.49h-1.338l-.05.006c-.473-1.236-1.338-2.28-2.443-2.977h10.42l-1.35 4.082zm-12.312 2.34c.722 0 1.31-.587 1.31-1.31 0-.722-.588-1.31-1.31-1.31-.722 0-1.31.588-1.31 1.31 0 .723.588 1.31 1.31 1.31zm0-1.64c.183 0 .33.148.33.33 0 .183-.147.332-.33.332-.183 0-.33-.15-.33-.33 0-.184.147-.333.33-.333z" fill="#fff"/><path d="M27.183 134.88c1.533 0 2.974.677 3.95 1.86.173.21.482.24.69.067.21-.172.238-.48.066-.69-1.165-1.41-2.88-2.217-4.707-2.217-.572 0-1.126.08-1.65.23l-.39-1.14c.237.073.493.114.76.114.27 0 .49-.22.49-.49v-2.95c0-.27-.22-.49-.49-.49-.734 0-1.387.306-1.8.777l-.6-1.75c-.05-.14-.157-.252-.296-.303-.138-.05-.292-.036-.42.04l-1.94 1.162h-2.47c-.27 0-.49.218-.49.488s.22.49.49.49h2.604c.09 0 .177-.024.253-.07l1.54-.92.752 2.2h-4.83c-1.527 0-2.797 1.122-3.032 2.584h-1.43l-.766-1.446c-.084-.16-.25-.26-.432-.26H7.618c-.682 0-2.278 0-2.858 1.17-.37-.482-1.113-.796-2.008-.796-.27 0-.49.22-.49.49v2.065c0 .27.22.49.49.49.16 0 .318-.01.468-.03-1.078 1.007-1.79 2.4-1.914 3.956H.49c-.27 0-.49.22-.49.49s.22.49.49.49h2.547c.26 2.16 2.105 3.84 4.335 3.84 2.408 0 4.368-1.96 4.368-4.367 0-2.41-1.96-4.368-4.368-4.368-2.256 0-4.118 1.72-4.345 3.916h-.74c.247-2.587 2.433-4.618 5.085-4.618 2.817 0 5.11 2.292 5.11 5.11 0 .316-.03.634-.088.943l-.005.132-.005.037c0 .27.22.49.49.49h4.253l.276.017.277-.016h.696c.14 0 .27-.06.364-.162l1.74-1.93.102-.176 1.455-4.406.017-.08h1.864c-1.703 1.084-2.836 2.987-2.836 5.15 0 .27.22.49.49.49s.49-.22.49-.49c0-2.017 1.172-3.765 2.87-4.6l.226.66c-1.427.72-2.408 2.198-2.408 3.903 0 2.408 1.96 4.368 4.367 4.368 2.41 0 4.37-1.96 4.37-4.367 0-2.41-1.96-4.368-4.37-4.368-.358 0-.707.044-1.04.126l-.228-.664c.425-.115.872-.177 1.333-.177zm-1.77-4.652v1.823c-.466-.147-.796-.5-.796-.91 0-.41.33-.764.797-.912zm-18.04 6.346c1.868 0 3.388 1.52 3.388 3.39 0 1.868-1.52 3.388-3.388 3.388-1.87 0-3.39-1.52-3.39-3.39 0-1.868 1.52-3.388 3.39-3.388zm19.744 0c1.87 0 3.39 1.52 3.39 3.39 0 1.868-1.52 3.388-3.39 3.388-1.868 0-3.39-1.52-3.39-3.39 0-1.274.71-2.386 1.752-2.965l.7 2.05c-.23.238-.373.56-.373.916 0 .722.588 1.31 1.31 1.31.723 0 1.31-.588 1.31-1.31 0-.723-.587-1.31-1.31-1.31h-.036l-.685-2c.233-.052.475-.08.722-.08zm0 3.057c.183 0 .332.15.332.333 0 .182-.15.33-.333.33-.182 0-.33-.148-.33-.33 0-.183.148-.332.33-.332zm-8.42-7.362h5.07l.56 1.604H16.66c.22-.92 1.05-1.604 2.036-1.604zm-11.08.876h5.123l.385.728H5.593c.15-.41.62-.728 2.025-.728zm-4.376.422c.505.103.8.348.8.496 0 .148-.295.393-.8.496v-.992zm12.85 5.763c0-.725.59-1.314 1.314-1.314.725 0 1.314.59 1.314 1.313 0 .654-.483 1.197-1.11 1.295H17.2c-.628-.098-1.11-.64-1.11-1.296zm3.594-.398l-.02.02c-.18-1.085-1.124-1.915-2.26-1.915-1.263 0-2.292 1.028-2.292 2.292 0 .48.15.926.403 1.295h-2.088l.027-.37h.81c.272 0 .49-.218.49-.488s-.218-.49-.49-.49h-.85l-.073-.475h1.104c.27 0 .49-.22.49-.49s-.22-.49-.49-.49h-1.338l-.05.006c-.473-1.236-1.338-2.28-2.443-2.977h10.42l-1.35 4.082zm-12.312 2.34c.722 0 1.31-.587 1.31-1.31 0-.722-.588-1.31-1.31-1.31-.722 0-1.31.588-1.31 1.31 0 .723.588 1.31 1.31 1.31zm0-1.64c.183 0 .33.148.33.33 0 .183-.147.332-.33.332-.183 0-.33-.15-.33-.33 0-.184.147-.333.33-.333z" fill="#206FAC"/></g></svg>