<svg width="32" height="232" viewBox="0 0 32 232" xmlns="http://www.w3.org/2000/svg" xmlns:sketch="http://www.bohemiancoding.com/sketch/ns"><title>motorbike</title><desc>Created with Sketch.</desc><g sketch:type="MSPage" fill="none"><path d="M27.183 14.879c1.533 0 2.974.678 3.951 1.862.172.209.481.238.689.066.209-.172.238-.481.066-.689-1.164-1.41-2.88-2.218-4.706-2.218-.572 0-1.126.081-1.651.229l-.39-1.14c.238.074.494.115.762.115.27 0 .489-.219.489-.49v-2.949c0-.271-.219-.49-.489-.49-.735 0-1.388.305-1.802.776l-.6-1.752c-.048-.14-.156-.251-.295-.302-.138-.05-.292-.036-.419.04l-1.942 1.162h-2.47c-.27 0-.489.219-.489.489 0 .271.219.49.489.49h2.605c.089 0 .176-.024.252-.07l1.539-.921.753 2.202h-4.829c-1.528 0-2.798 1.121-3.033 2.583h-1.431l-.765-1.446c-.084-.161-.251-.261-.432-.261h-5.417c-.682 0-2.278 0-2.858 1.171-.371-.482-1.113-.796-2.008-.796-.27 0-.489.219-.489.489v2.066c0 .27.219.489.489.489.161 0 .318-.01.468-.03-1.078 1.008-1.79 2.4-1.914 3.957h-.816c-.27 0-.489.219-.489.49 0 .27.219.489.489.489h2.547c.261 2.161 2.105 3.841 4.335 3.841 2.408 0 4.368-1.96 4.368-4.368 0-2.409-1.96-4.368-4.368-4.368-2.256 0-4.118 1.719-4.345 3.916h-.74c.247-2.588 2.433-4.619 5.085-4.619 2.817 0 5.109 2.292 5.109 5.109 0 .317-.029.635-.087.944l-.005.132-.004.037c0 .271.219.49.49.49h4.253l.276.017.277-.017h.695c.139 0 .271-.059.364-.162l1.741-1.931.101-.175 1.455-4.406.017-.079h1.864c-1.703 1.083-2.836 2.986-2.836 5.15 0 .27.22.489.49.489s.489-.219.489-.489c0-2.018 1.173-3.766 2.871-4.6l.226.66c-1.427.719-2.408 2.197-2.408 3.902 0 2.408 1.959 4.368 4.367 4.368 2.409 0 4.369-1.96 4.369-4.368 0-2.409-1.96-4.368-4.369-4.368-.358 0-.707.044-1.04.126l-.228-.665c.426-.115.873-.177 1.334-.177zm-1.769-4.651v1.823c-.467-.148-.797-.501-.797-.911 0-.411.33-.764.797-.912zm-18.042 6.346c1.869 0 3.389 1.52 3.389 3.389 0 1.869-1.52 3.389-3.389 3.389-1.869 0-3.389-1.52-3.389-3.389 0-1.869 1.52-3.389 3.389-3.389zm19.745 0c1.869 0 3.39 1.52 3.39 3.389 0 1.869-1.521 3.389-3.39 3.389-1.868 0-3.389-1.52-3.389-3.389 0-1.275.708-2.387 1.751-2.966l.702 2.051c-.231.237-.374.559-.374.915 0 .722.588 1.31 1.31 1.31.723 0 1.311-.588 1.311-1.31 0-.723-.588-1.311-1.311-1.311l-.036.002-.686-2.002c.233-.051.475-.078.722-.078zm0 3.057c.183 0 .332.149.332.332 0 .182-.149.331-.332.331-.182 0-.331-.149-.331-.331 0-.183.149-.332.331-.332zm-8.421-7.363h5.07l.56 1.604h-7.666c.221-.919 1.05-1.604 2.036-1.604zm-11.078.876h5.122l.385.728h-7.532c.151-.41.62-.728 2.025-.728zm-4.377.422c.504.103.798.348.798.496 0 .148-.294.393-.798.496v-.992zm12.85 5.763c0-.724.589-1.313 1.313-1.313.725 0 1.314.589 1.314 1.313 0 .655-.483 1.198-1.111 1.296h-.405c-.628-.098-1.111-.641-1.111-1.296zm3.593-.397l-.019.021c-.18-1.086-1.125-1.916-2.261-1.916-1.263 0-2.292 1.028-2.292 2.292 0 .481.149.927.403 1.296h-2.088l.027-.369h.811c.271 0 .49-.219.49-.489s-.219-.49-.49-.49h-.85l-.074-.475h1.103c.27 0 .489-.22.489-.49s-.219-.489-.489-.489h-1.338l-.049.005c-.474-1.236-1.339-2.279-2.444-2.977h10.419l-1.348 4.081zm-12.312 2.341c.722 0 1.31-.588 1.31-1.31 0-.723-.588-1.311-1.31-1.311-.722 0-1.31.588-1.31 1.311 0 .722.588 1.31 1.31 1.31zm0-1.642c.183 0 .331.149.331.332 0 .182-.148.331-.331.331-.183 0-.331-.149-.331-.331 0-.183.148-.332.331-.332z" fill="#3A434E" sketch:type="MSShapeGroup"/><path d="M27.183 54.879c1.533 0 2.974.678 3.951 1.862.172.209.481.238.689.066.209-.172.238-.481.066-.689-1.164-1.41-2.88-2.218-4.706-2.218-.572 0-1.126.081-1.651.229l-.39-1.14c.238.074.494.115.762.115.27 0 .489-.219.489-.49v-2.949c0-.271-.219-.49-.489-.49-.735 0-1.388.305-1.802.776l-.6-1.752c-.048-.14-.156-.251-.295-.302-.138-.05-.292-.036-.419.04l-1.942 1.162h-2.47c-.27 0-.489.219-.489.489 0 .271.219.49.489.49h2.605c.089 0 .176-.024.252-.07l1.539-.921.753 2.202h-4.829c-1.528 0-2.798 1.121-3.033 2.583h-1.431l-.765-1.446c-.084-.161-.251-.261-.432-.261h-5.417c-.682 0-2.278 0-2.858 1.171-.371-.482-1.113-.796-2.008-.796-.27 0-.489.219-.489.489v2.066c0 .27.219.489.489.489.161 0 .318-.01.468-.03-1.078 1.008-1.79 2.4-1.914 3.957h-.816c-.27 0-.489.219-.489.49 0 .27.219.489.489.489h2.547c.261 2.161 2.105 3.841 4.335 3.841 2.408 0 4.368-1.96 4.368-4.368 0-2.409-1.96-4.368-4.368-4.368-2.256 0-4.118 1.719-4.345 3.916h-.74c.247-2.588 2.433-4.619 5.085-4.619 2.817 0 5.109 2.292 5.109 5.109 0 .317-.029.635-.087.944l-.005.132-.004.037c0 .271.219.49.49.49h4.253l.276.017.277-.017h.695c.139 0 .271-.059.364-.162l1.741-1.931.101-.175 1.455-4.406.017-.079h1.864c-1.703 1.083-2.836 2.986-2.836 5.15 0 .27.22.489.49.489s.489-.219.489-.489c0-2.018 1.173-3.766 2.871-4.6l.226.66c-1.427.719-2.408 2.197-2.408 3.902 0 2.408 1.959 4.368 4.367 4.368 2.409 0 4.369-1.96 4.369-4.368 0-2.409-1.96-4.368-4.369-4.368-.358 0-.707.044-1.04.126l-.228-.665c.426-.115.873-.177 1.334-.177zm-1.769-4.651v1.823c-.467-.148-.797-.501-.797-.911 0-.411.33-.764.797-.912zm-18.042 6.346c1.869 0 3.389 1.52 3.389 3.389 0 1.869-1.52 3.389-3.389 3.389-1.869 0-3.389-1.52-3.389-3.389 0-1.869 1.52-3.389 3.389-3.389zm19.745 0c1.869 0 3.39 1.52 3.39 3.389 0 1.869-1.521 3.389-3.39 3.389-1.868 0-3.389-1.52-3.389-3.389 0-1.275.708-2.387 1.751-2.966l.702 2.051c-.231.237-.374.559-.374.915 0 .722.588 1.31 1.31 1.31.723 0 1.311-.588 1.311-1.31 0-.723-.588-1.311-1.311-1.311l-.036.002-.686-2.002c.233-.051.475-.078.722-.078zm0 3.057c.183 0 .332.149.332.332 0 .182-.149.331-.332.331-.182 0-.331-.149-.331-.331 0-.183.149-.332.331-.332zm-8.421-7.363h5.07l.56 1.604h-7.666c.221-.919 1.05-1.604 2.036-1.604zm-11.078.876h5.122l.385.728h-7.532c.151-.41.62-.728 2.025-.728zm-4.377.422c.504.103.798.348.798.496 0 .148-.294.393-.798.496v-.992zm12.85 5.763c0-.724.589-1.313 1.313-1.313.725 0 1.314.589 1.314 1.313 0 .655-.483 1.198-1.111 1.296h-.405c-.628-.098-1.111-.641-1.111-1.296zm3.593-.397l-.019.021c-.18-1.086-1.125-1.916-2.261-1.916-1.263 0-2.292 1.028-2.292 2.292 0 .481.149.927.403 1.296h-2.088l.027-.369h.811c.271 0 .49-.219.49-.489s-.219-.49-.49-.49h-.85l-.074-.475h1.103c.27 0 .489-.22.489-.49s-.219-.489-.489-.489h-1.338l-.049.005c-.474-1.236-1.339-2.279-2.444-2.977h10.419l-1.348 4.081zm-12.312 2.341c.722 0 1.31-.588 1.31-1.31 0-.723-.588-1.311-1.31-1.311-.722 0-1.31.588-1.31 1.311 0 .722.588 1.31 1.31 1.31zm0-1.642c.183 0 .331.149.331.332 0 .182-.148.331-.331.331-.183 0-.331-.149-.331-.331 0-.183.148-.332.331-.332z" fill="#67737B" sketch:type="MSShapeGroup"/><path d="M27.183 94.879c1.533 0 2.974.678 3.951 1.862.172.209.481.238.689.066.209-.172.238-.481.066-.689-1.164-1.41-2.88-2.218-4.706-2.218-.572 0-1.126.081-1.651.229l-.39-1.14c.238.074.494.115.762.115.27 0 .489-.219.489-.49v-2.949c0-.271-.219-.49-.489-.49-.735 0-1.388.305-1.802.776l-.6-1.752c-.048-.14-.156-.251-.295-.302-.138-.05-.292-.036-.419.04l-1.942 1.162h-2.47c-.27 0-.489.219-.489.489 0 .271.219.49.489.49h2.605c.089 0 .176-.024.252-.07l1.539-.921.753 2.202h-4.829c-1.528 0-2.798 1.121-3.033 2.583h-1.431l-.765-1.446c-.084-.161-.251-.261-.432-.261h-5.417c-.682 0-2.278 0-2.858 1.171-.371-.482-1.113-.796-2.008-.796-.27 0-.489.219-.489.489v2.066c0 .27.219.489.489.489.161 0 .318-.01.468-.03-1.078 1.008-1.79 2.4-1.914 3.957h-.816c-.27 0-.489.219-.489.49 0 .27.219.489.489.489h2.547c.261 2.161 2.105 3.841 4.335 3.841 2.408 0 4.368-1.96 4.368-4.368 0-2.409-1.96-4.368-4.368-4.368-2.256 0-4.118 1.719-4.345 3.916h-.74c.247-2.588 2.433-4.619 5.085-4.619 2.817 0 5.109 2.292 5.109 5.109 0 .317-.029.635-.087.944l-.005.132-.004.037c0 .271.219.49.49.49h4.253l.276.017.277-.017h.695c.139 0 .271-.059.364-.162l1.741-1.931.101-.175 1.455-4.406.017-.079h1.864c-1.703 1.083-2.836 2.986-2.836 5.15 0 .27.22.489.49.489s.489-.219.489-.489c0-2.018 1.173-3.766 2.871-4.6l.226.66c-1.427.719-2.408 2.197-2.408 3.902 0 2.408 1.959 4.368 4.367 4.368 2.409 0 4.369-1.96 4.369-4.368 0-2.409-1.96-4.368-4.369-4.368-.358 0-.707.044-1.04.126l-.228-.665c.426-.115.873-.177 1.334-.177zm-1.769-4.651v1.823c-.467-.148-.797-.501-.797-.911 0-.411.33-.764.797-.912zm-18.042 6.346c1.869 0 3.389 1.52 3.389 3.389 0 1.869-1.52 3.389-3.389 3.389-1.869 0-3.389-1.52-3.389-3.389 0-1.869 1.52-3.389 3.389-3.389zm19.745 0c1.869 0 3.39 1.52 3.39 3.389 0 1.869-1.521 3.389-3.39 3.389-1.868 0-3.389-1.52-3.389-3.389 0-1.275.708-2.387 1.751-2.966l.702 2.051c-.231.237-.374.559-.374.915 0 .722.588 1.31 1.31 1.31.723 0 1.311-.588 1.311-1.31 0-.723-.588-1.311-1.311-1.311l-.036.002-.686-2.002c.233-.051.475-.078.722-.078zm0 3.057c.183 0 .332.149.332.332 0 .182-.149.331-.332.331-.182 0-.331-.149-.331-.331 0-.183.149-.332.331-.332zm-8.421-7.363h5.07l.56 1.604h-7.666c.221-.919 1.05-1.604 2.036-1.604zm-11.078.876h5.122l.385.728h-7.532c.151-.41.62-.728 2.025-.728zm-4.377.422c.504.103.798.348.798.496 0 .148-.294.393-.798.496v-.992zm12.85 5.763c0-.724.589-1.313 1.313-1.313.725 0 1.314.589 1.314 1.313 0 .655-.483 1.198-1.111 1.296h-.405c-.628-.098-1.111-.641-1.111-1.296zm3.593-.397l-.019.021c-.18-1.086-1.125-1.916-2.261-1.916-1.263 0-2.292 1.028-2.292 2.292 0 .481.149.927.403 1.296h-2.088l.027-.369h.811c.271 0 .49-.219.49-.489s-.219-.49-.49-.49h-.85l-.074-.475h1.103c.27 0 .489-.22.489-.49s-.219-.489-.489-.489h-1.338l-.049.005c-.474-1.236-1.339-2.279-2.444-2.977h10.419l-1.348 4.081zm-12.312 2.341c.722 0 1.31-.588 1.31-1.31 0-.723-.588-1.311-1.31-1.311-.722 0-1.31.588-1.31 1.311 0 .722.588 1.31 1.31 1.31zm0-1.642c.183 0 .331.149.331.332 0 .182-.148.331-.331.331-.183 0-.331-.149-.331-.331 0-.183.148-.332.331-.332z" fill="#fff" sketch:type="MSShapeGroup"/><path d="M27.183 134.879c1.533 0 2.974.678 3.951 1.862.172.209.481.238.689.066.209-.172.238-.481.066-.689-1.164-1.41-2.88-2.218-4.706-2.218-.572 0-1.126.081-1.651.229l-.39-1.14c.238.074.494.115.762.115.27 0 .489-.219.489-.49v-2.949c0-.271-.219-.49-.489-.49-.735 0-1.388.305-1.802.776l-.6-1.752c-.048-.14-.156-.251-.295-.302-.138-.05-.292-.036-.419.04l-1.942 1.162h-2.47c-.27 0-.489.219-.489.489 0 .271.219.49.489.49h2.605c.089 0 .176-.024.252-.07l1.539-.921.753 2.202h-4.829c-1.528 0-2.798 1.121-3.033 2.583h-1.431l-.765-1.446c-.084-.161-.251-.261-.432-.261h-5.417c-.682 0-2.278 0-2.858 1.171-.371-.482-1.113-.796-2.008-.796-.27 0-.489.219-.489.489v2.066c0 .27.219.489.489.489.161 0 .318-.01.468-.03-1.078 1.008-1.79 2.4-1.914 3.957h-.816c-.27 0-.489.219-.489.49 0 .27.219.489.489.489h2.547c.261 2.161 2.105 3.841 4.335 3.841 2.408 0 4.368-1.96 4.368-4.368 0-2.409-1.96-4.368-4.368-4.368-2.256 0-4.118 1.719-4.345 3.916h-.74c.247-2.588 2.433-4.619 5.085-4.619 2.817 0 5.109 2.292 5.109 5.109 0 .317-.029.635-.087.944l-.005.132-.004.037c0 .271.219.49.49.49h4.253l.276.017.277-.017h.695c.139 0 .271-.059.364-.162l1.741-1.931.101-.175 1.455-4.406.017-.079h1.864c-1.703 1.083-2.836 2.986-2.836 5.15 0 .27.22.489.49.489s.489-.219.489-.489c0-2.018 1.173-3.766 2.871-4.6l.226.66c-1.427.719-2.408 2.197-2.408 3.902 0 2.408 1.959 4.368 4.367 4.368 2.409 0 4.369-1.96 4.369-4.368 0-2.409-1.96-4.368-4.369-4.368-.358 0-.707.044-1.04.126l-.228-.665c.426-.115.873-.177 1.334-.177zm-1.769-4.651v1.823c-.467-.148-.797-.501-.797-.911 0-.411.33-.764.797-.912zm-18.042 6.346c1.869 0 3.389 1.52 3.389 3.389 0 1.869-1.52 3.389-3.389 3.389-1.869 0-3.389-1.52-3.389-3.389 0-1.869 1.52-3.389 3.389-3.389zm19.745 0c1.869 0 3.39 1.52 3.39 3.389 0 1.869-1.521 3.389-3.39 3.389-1.868 0-3.389-1.52-3.389-3.389 0-1.275.708-2.387 1.751-2.966l.702 2.051c-.231.237-.374.559-.374.915 0 .722.588 1.31 1.31 1.31.723 0 1.311-.588 1.311-1.31 0-.723-.588-1.311-1.311-1.311l-.036.002-.686-2.002c.233-.051.475-.078.722-.078zm0 3.057c.183 0 .332.149.332.332 0 .182-.149.331-.332.331-.182 0-.331-.149-.331-.331 0-.183.149-.332.331-.332zm-8.421-7.363h5.07l.56 1.604h-7.666c.221-.919 1.05-1.604 2.036-1.604zm-11.078.876h5.122l.385.728h-7.532c.151-.41.62-.728 2.025-.728zm-4.377.422c.504.103.798.348.798.496 0 .148-.294.393-.798.496v-.992zm12.85 5.763c0-.724.589-1.313 1.313-1.313.725 0 1.314.589 1.314 1.313 0 .655-.483 1.198-1.111 1.296h-.405c-.628-.098-1.111-.641-1.111-1.296zm3.593-.397l-.019.021c-.18-1.086-1.125-1.916-2.261-1.916-1.263 0-2.292 1.028-2.292 2.292 0 .481.149.927.403 1.296h-2.088l.027-.369h.811c.271 0 .49-.219.49-.489s-.219-.49-.49-.49h-.85l-.074-.475h1.103c.27 0 .489-.22.489-.49s-.219-.489-.489-.489h-1.338l-.049.005c-.474-1.236-1.339-2.279-2.444-2.977h10.419l-1.348 4.081zm-12.312 2.341c.722 0 1.31-.588 1.31-1.31 0-.723-.588-1.311-1.31-1.311-.722 0-1.31.588-1.31 1.311 0 .722.588 1.31 1.31 1.31zm0-1.642c.183 0 .331.149.331.332 0 .182-.148.331-.331.331-.183 0-.331-.149-.331-.331 0-.183.148-.332.331-.332z" fill="#206FAC" sketch:type="MSShapeGroup"/></g></svg>