<svg width="32" height="232" viewBox="0 0 32 232" xmlns="http://www.w3.org/2000/svg"><title>phone-code</title><desc>Created with Sketch.</desc><g fill="none"><path d="M27.363 21.32h-.69L21.718 9.35c-.088-.212-.295-.35-.525-.35h-2.585c-.314 0-.57.254-.57.568v.962h-4.145v-.962c0-.314-.255-.568-.57-.568H10.74c-.23 0-.438.138-.526.35L5.26 21.32h-.69c-.315 0-.57.254-.57.568v4.618c0 .315.255.57.57.57h.527l.31 1.212c.063.252.29.428.55.428h3.956c.26 0 .487-.176.55-.428l.31-1.213H21.16l.308 1.213c.064.252.29.428.55.428h3.957c.26 0 .487-.176.55-.428l.31-1.213h.528c.314 0 .57-.254.57-.57V21.89c0-.314-.256-.57-.57-.57zM10.33 25.937H5.14v-3.48h.37l.125.013H26.3l.125-.013h.37v3.48H10.33zm.79-15.8h1.635v.96c0 .314.255.57.57.57h5.283c.314 0 .57-.256.57-.57v-.96h1.635l4.63 11.18H6.49l4.63-11.18zm-1.65 17.44H6.4l-.13-.503H9.6l-.13.504zm16.063 0H22.46l-.127-.503h3.328l-.127.504zm-5.495-8.584c.845-.648 1.353-1.504 1.353-2.456 0-2.065-2.382-3.682-5.424-3.682s-5.425 1.617-5.425 3.682c0 2.064 2.384 3.68 5.426 3.68 1.145 0 2.196-.228 3.062-.624l.58.576c.11.11.256.165.4.165.148 0 .294-.056.405-.168.22-.223.22-.583-.003-.804l-.372-.37zm-4.072.087c-2.324 0-4.287-1.164-4.287-2.542 0-1.38 1.962-2.544 4.286-2.544s4.287 1.165 4.287 2.544c0 .617-.395 1.192-1.04 1.638l-.687-.683c-.223-.22-.583-.22-.805.003-.22.223-.218.583.005.805l.418.416c-.643.23-1.39.365-2.177.365zM26.65 5.68c-3.378-1.484-7.272-2.334-10.684-2.334-3.412 0-7.306.85-10.685 2.333-1.246.547-5.314 2.496-5.314 4.6 0 2.628 1.98 4.336 2.063 4.407.14.12.327.163.504.118.176-.043 4.33-1.102 6.188-3.85.13-.193.13-.447-.002-.64L8.003 9.27c1.096-.58 3.93-1.832 7.963-1.832S22.834 8.69 23.93 9.27l-.718 1.046c-.132.192-.133.446-.002.64 1.857 2.747 6.012 3.806 6.188 3.85l.137.016c.133 0 .264-.047.368-.135.084-.07 2.063-1.78 2.063-4.406 0-2.104-4.068-4.053-5.315-4.6zm2.725 7.937c-.893-.27-3.57-1.2-4.996-2.99l.835-1.22c.086-.127.118-.28.09-.43-.03-.15-.116-.28-.242-.365-.036-.024-.9-.6-2.458-1.17-1.422-.52-3.727-1.142-6.64-1.142-2.91 0-5.216.62-6.638 1.142-1.557.57-2.42 1.146-2.458 1.17-.127.084-.214.216-.242.365-.03.15.003.303.09.43l.835 1.22c-1.426 1.79-4.104 2.72-4.996 2.99-.446-.467-1.453-1.702-1.453-3.336 0-.757 1.592-2.223 4.635-3.56 3.238-1.42 6.966-2.236 10.226-2.236 3.26 0 6.988.815 10.228 2.237 3.042 1.337 4.634 2.803 4.634 3.56 0 1.635-1.007 2.87-1.453 3.337z" fill="#3A434E"/><path d="M27.363 61.32h-.69l-4.955-11.97c-.088-.212-.295-.35-.525-.35h-2.585c-.314 0-.57.254-.57.568v.962h-4.145v-.962c0-.314-.255-.568-.57-.568H10.74c-.23 0-.438.138-.526.35L5.26 61.32h-.69c-.315 0-.57.254-.57.568v4.618c0 .315.255.57.57.57h.527l.31 1.212c.063.252.29.428.55.428h3.956c.26 0 .487-.176.55-.428l.31-1.213H21.16l.308 1.213c.064.252.29.428.55.428h3.957c.26 0 .487-.176.55-.428l.31-1.213h.528c.314 0 .57-.254.57-.57V61.89c0-.314-.256-.57-.57-.57zM10.33 65.937H5.14v-3.48h.37l.125.013H26.3l.125-.013h.37v3.48H10.33zm.79-15.8h1.635v.96c0 .314.255.57.57.57h5.283c.314 0 .57-.256.57-.57v-.96h1.635l4.63 11.18H6.49l4.63-11.18zm-1.65 17.44H6.4l-.13-.503H9.6l-.13.504zm16.063 0H22.46l-.127-.503h3.328l-.127.504zm-5.495-8.584c.845-.648 1.353-1.504 1.353-2.456 0-2.065-2.382-3.682-5.424-3.682s-5.425 1.617-5.425 3.682c0 2.064 2.384 3.68 5.426 3.68 1.145 0 2.196-.228 3.062-.624l.58.576c.11.11.256.165.4.165.148 0 .294-.056.405-.168.22-.223.22-.583-.003-.804l-.372-.37zm-4.072.087c-2.324 0-4.287-1.164-4.287-2.542 0-1.38 1.962-2.544 4.286-2.544s4.287 1.165 4.287 2.544c0 .617-.395 1.192-1.04 1.638l-.687-.683c-.223-.22-.583-.22-.805.003-.22.223-.218.583.005.805l.418.416c-.643.23-1.39.365-2.177.365zm10.685-13.4c-3.378-1.484-7.272-2.334-10.684-2.334-3.412 0-7.306.85-10.685 2.333-1.246.547-5.314 2.496-5.314 4.6 0 2.628 1.98 4.336 2.063 4.407.14.12.327.163.504.118.176-.043 4.33-1.102 6.188-3.85.13-.193.13-.447-.002-.64l-.717-1.045c1.096-.58 3.93-1.832 7.963-1.832s6.868 1.253 7.963 1.832l-.718 1.046c-.132.192-.133.446-.002.64 1.857 2.747 6.012 3.806 6.188 3.85l.137.016c.133 0 .264-.047.368-.135.084-.07 2.063-1.78 2.063-4.406 0-2.104-4.068-4.053-5.315-4.6zm2.725 7.937c-.893-.27-3.57-1.2-4.996-2.99l.835-1.22c.086-.127.118-.28.09-.43-.03-.15-.116-.28-.242-.365-.036-.024-.9-.6-2.458-1.17-1.422-.52-3.727-1.142-6.64-1.142-2.91 0-5.216.62-6.638 1.142-1.557.57-2.42 1.146-2.458 1.17-.127.084-.214.216-.242.365-.03.15.003.303.09.43l.835 1.22c-1.426 1.79-4.104 2.72-4.996 2.99-.446-.467-1.453-1.702-1.453-3.336 0-.757 1.592-2.223 4.635-3.56 3.238-1.42 6.966-2.236 10.226-2.236 3.26 0 6.988.815 10.228 2.237 3.042 1.337 4.634 2.803 4.634 3.56 0 1.635-1.007 2.87-1.453 3.337z" fill="#67737B"/><path d="M27.363 101.32h-.69l-4.955-11.97c-.088-.212-.295-.35-.525-.35h-2.585c-.314 0-.57.254-.57.568v.962h-4.145v-.962c0-.314-.255-.568-.57-.568H10.74c-.23 0-.438.138-.526.35L5.26 101.32h-.69c-.315 0-.57.254-.57.568v4.618c0 .315.255.57.57.57h.527l.31 1.212c.063.252.29.428.55.428h3.956c.26 0 .487-.176.55-.428l.31-1.213H21.16l.308 1.213c.064.252.29.428.55.428h3.957c.26 0 .487-.176.55-.428l.31-1.213h.528c.314 0 .57-.254.57-.57v-4.617c0-.314-.256-.57-.57-.57zm-17.032 4.618H5.14v-3.48h.37l.125.013H26.3l.125-.013h.37v3.48H10.33zm.79-15.8h1.635v.96c0 .314.255.57.57.57h5.283c.314 0 .57-.256.57-.57v-.96h1.635l4.63 11.18H6.49l4.63-11.18zm-1.65 17.44H6.4l-.13-.503H9.6l-.13.504zm16.063 0H22.46l-.127-.503h3.328l-.127.504zm-5.495-8.584c.845-.648 1.353-1.504 1.353-2.456 0-2.065-2.382-3.682-5.424-3.682s-5.425 1.617-5.425 3.682c0 2.064 2.384 3.68 5.426 3.68 1.145 0 2.196-.228 3.062-.624l.58.576c.11.11.256.165.4.165.148 0 .294-.056.405-.168.22-.223.22-.583-.003-.804l-.372-.37zm-4.072.087c-2.324 0-4.287-1.164-4.287-2.542 0-1.38 1.962-2.544 4.286-2.544s4.287 1.165 4.287 2.544c0 .617-.395 1.192-1.04 1.638l-.687-.683c-.223-.22-.583-.22-.805.003-.22.223-.218.583.005.805l.418.416c-.643.23-1.39.365-2.177.365zm10.685-13.4c-3.378-1.484-7.272-2.334-10.684-2.334-3.412 0-7.306.85-10.685 2.333-1.246.547-5.314 2.496-5.314 4.6 0 2.628 1.98 4.336 2.063 4.407.14.12.327.163.504.118.176-.043 4.33-1.102 6.188-3.85.13-.193.13-.447-.002-.64l-.717-1.045c1.096-.58 3.93-1.832 7.963-1.832s6.868 1.253 7.963 1.832l-.718 1.046c-.132.192-.133.446-.002.64 1.857 2.747 6.012 3.806 6.188 3.85l.137.016c.133 0 .264-.047.368-.135.084-.07 2.063-1.78 2.063-4.406 0-2.104-4.068-4.053-5.315-4.6zm2.725 7.937c-.893-.27-3.57-1.2-4.996-2.99l.835-1.22c.086-.127.118-.28.09-.43-.03-.15-.116-.28-.242-.365-.036-.024-.9-.6-2.458-1.17-1.422-.52-3.727-1.142-6.64-1.142-2.91 0-5.216.62-6.638 1.142-1.557.57-2.42 1.146-2.458 1.17-.127.084-.214.216-.242.365-.03.15.003.303.09.43l.835 1.22c-1.426 1.79-4.104 2.72-4.996 2.99-.446-.467-1.453-1.702-1.453-3.336 0-.757 1.592-2.223 4.635-3.56 3.238-1.42 6.966-2.236 10.226-2.236 3.26 0 6.988.815 10.228 2.237 3.042 1.337 4.634 2.803 4.634 3.56 0 1.635-1.007 2.87-1.453 3.337z" fill="#fff"/><path d="M27.363 141.32h-.69l-4.955-11.97c-.088-.212-.295-.35-.525-.35h-2.585c-.314 0-.57.254-.57.568v.962h-4.145v-.962c0-.314-.255-.568-.57-.568H10.74c-.23 0-.438.138-.526.35L5.26 141.32h-.69c-.315 0-.57.254-.57.568v4.618c0 .315.255.57.57.57h.527l.31 1.212c.063.252.29.428.55.428h3.956c.26 0 .487-.176.55-.428l.31-1.213H21.16l.308 1.213c.064.252.29.428.55.428h3.957c.26 0 .487-.176.55-.428l.31-1.213h.528c.314 0 .57-.254.57-.57v-4.617c0-.314-.256-.57-.57-.57zm-17.032 4.618H5.14v-3.48h.37l.125.013H26.3l.125-.013h.37v3.48H10.33zm.79-15.8h1.635v.96c0 .314.255.57.57.57h5.283c.314 0 .57-.256.57-.57v-.96h1.635l4.63 11.18H6.49l4.63-11.18zm-1.65 17.44H6.4l-.13-.503H9.6l-.13.504zm16.063 0H22.46l-.127-.503h3.328l-.127.504zm-5.495-8.584c.845-.648 1.353-1.504 1.353-2.456 0-2.065-2.382-3.682-5.424-3.682s-5.425 1.617-5.425 3.682c0 2.064 2.384 3.68 5.426 3.68 1.145 0 2.196-.228 3.062-.624l.58.576c.11.11.256.165.4.165.148 0 .294-.056.405-.168.22-.223.22-.583-.003-.804l-.372-.37zm-4.072.087c-2.324 0-4.287-1.164-4.287-2.542 0-1.38 1.962-2.544 4.286-2.544s4.287 1.165 4.287 2.544c0 .617-.395 1.192-1.04 1.638l-.687-.683c-.223-.22-.583-.22-.805.003-.22.223-.218.583.005.805l.418.416c-.643.23-1.39.365-2.177.365zm10.685-13.4c-3.378-1.484-7.272-2.334-10.684-2.334-3.412 0-7.306.85-10.685 2.333-1.246.547-5.314 2.496-5.314 4.6 0 2.628 1.98 4.336 2.063 4.407.14.12.327.163.504.118.176-.043 4.33-1.102 6.188-3.85.13-.193.13-.447-.002-.64l-.717-1.045c1.096-.58 3.93-1.832 7.963-1.832s6.868 1.253 7.963 1.832l-.718 1.046c-.132.192-.133.446-.002.64 1.857 2.747 6.012 3.806 6.188 3.85l.137.016c.133 0 .264-.047.368-.135.084-.07 2.063-1.78 2.063-4.406 0-2.104-4.068-4.053-5.315-4.6zm2.725 7.937c-.893-.27-3.57-1.2-4.996-2.99l.835-1.22c.086-.127.118-.28.09-.43-.03-.15-.116-.28-.242-.365-.036-.024-.9-.6-2.458-1.17-1.422-.52-3.727-1.142-6.64-1.142-2.91 0-5.216.62-6.638 1.142-1.557.57-2.42 1.146-2.458 1.17-.127.084-.214.216-.242.365-.03.15.003.303.09.43l.835 1.22c-1.426 1.79-4.104 2.72-4.996 2.99-.446-.467-1.453-1.702-1.453-3.336 0-.757 1.592-2.223 4.635-3.56 3.238-1.42 6.966-2.236 10.226-2.236 3.26 0 6.988.815 10.228 2.237 3.042 1.337 4.634 2.803 4.634 3.56 0 1.635-1.007 2.87-1.453 3.337z" fill="#206FAC"/></g></svg>