<svg width="32" height="232" viewBox="0 0 32 232" xmlns="http://www.w3.org/2000/svg" xmlns:sketch="http://www.bohemiancoding.com/sketch/ns"><title>phone-code</title><desc>Created with Sketch.</desc><g sketch:type="MSPage" fill="none"><path d="M27.363 21.319h-.69l-4.955-11.968c-.088-.213-.295-.351-.525-.351h-2.585c-.314 0-.569.254-.569.568v.962h-4.146v-.962c0-.314-.255-.568-.569-.568h-2.585c-.23 0-.437.138-.525.351l-4.955 11.968h-.69c-.314 0-.569.255-.569.569v4.618c0 .315.255.569.569.569h.528l.309 1.213c.064.252.291.428.551.428h3.956c.26 0 .487-.176.551-.428l.309-1.213h10.386l.309 1.213c.064.252.291.428.551.428h3.956c.26 0 .487-.176.551-.428l.309-1.213h.528c.314 0 .569-.254.569-.569v-4.618c0-.314-.255-.569-.569-.569zm-17.032 4.619h-5.193v-3.481h.369l.126.014h20.666l.126-.014h.369v3.481h-16.463zm.789-15.801h1.635v.961c0 .314.255.569.569.569h5.284c.314 0 .569-.255.569-.569v-.961h1.636l4.629 11.182h-18.952l4.63-11.182zm-1.649 17.442h-3.072l-.128-.504h3.328l-.128.504zm16.062 0h-3.072l-.128-.504h3.328l-.128.504zm-5.495-8.585c.845-.648 1.353-1.504 1.353-2.456 0-2.065-2.383-3.682-5.425-3.682s-5.425 1.617-5.425 3.682c0 2.064 2.383 3.681 5.425 3.681 1.145 0 2.196-.229 3.062-.625l.581.576c.11.11.255.165.4.165.147 0 .293-.056.404-.168.221-.223.22-.583-.003-.804l-.372-.369zm-4.072.087c-2.324 0-4.287-1.165-4.287-2.543 0-1.379 1.963-2.544 4.287-2.544s4.287 1.165 4.287 2.544c0 .617-.395 1.192-1.039 1.638l-.688-.683c-.223-.221-.583-.22-.805.003-.221.223-.219.583.004.805l.418.415c-.643.231-1.389.365-2.177.365zm10.685-13.402c-3.379-1.483-7.273-2.333-10.685-2.333-3.412 0-7.306.85-10.685 2.333-1.247.548-5.315 2.497-5.315 4.602 0 2.627 1.979 4.335 2.063 4.406.14.119.328.163.505.118.176-.043 4.331-1.102 6.188-3.849.131-.194.13-.448-.002-.64l-.717-1.046c1.096-.579 3.931-1.832 7.963-1.832s6.868 1.253 7.963 1.832l-.717 1.046c-.132.192-.133.446-.002.64 1.857 2.747 6.012 3.806 6.188 3.849l.137.017c.133 0 .264-.047.368-.135.084-.071 2.063-1.779 2.063-4.406 0-2.105-4.068-4.054-5.315-4.602zm2.724 7.938c-.893-.27-3.57-1.199-4.996-2.991l.836-1.22c.086-.126.118-.28.089-.429-.028-.149-.115-.281-.241-.365-.036-.024-.901-.599-2.458-1.17-1.422-.521-3.727-1.142-6.639-1.142-2.912 0-5.217.621-6.639 1.142-1.557.571-2.421 1.146-2.458 1.17-.126.084-.213.216-.241.365-.029.149.003.303.089.429l.836 1.22c-1.426 1.792-4.104 2.721-4.996 2.991-.446-.467-1.453-1.702-1.453-3.336 0-.758 1.592-2.224 4.635-3.56 3.239-1.422 6.967-2.237 10.227-2.237 3.26 0 6.988.815 10.228 2.237 3.042 1.336 4.634 2.802 4.634 3.56 0 1.634-1.007 2.869-1.453 3.336z" fill="#3A434E" sketch:type="MSShapeGroup"/><path d="M27.363 61.319h-.69l-4.955-11.968c-.088-.213-.295-.351-.525-.351h-2.585c-.314 0-.569.254-.569.568v.962h-4.146v-.962c0-.314-.255-.568-.569-.568h-2.585c-.23 0-.437.138-.525.351l-4.955 11.968h-.69c-.314 0-.569.255-.569.569v4.618c0 .315.255.569.569.569h.528l.309 1.213c.064.252.291.428.551.428h3.956c.26 0 .487-.176.551-.428l.309-1.213h10.386l.309 1.213c.064.252.291.428.551.428h3.956c.26 0 .487-.176.551-.428l.309-1.213h.528c.314 0 .569-.254.569-.569v-4.618c0-.314-.255-.569-.569-.569zm-17.032 4.619h-5.193v-3.481h.369l.126.014h20.666l.126-.014h.369v3.481h-16.463zm.789-15.801h1.635v.961c0 .314.255.569.569.569h5.284c.314 0 .569-.255.569-.569v-.961h1.636l4.629 11.182h-18.952l4.63-11.182zm-1.649 17.442h-3.072l-.128-.504h3.328l-.128.504zm16.062 0h-3.072l-.128-.504h3.328l-.128.504zm-5.495-8.585c.845-.648 1.353-1.504 1.353-2.456 0-2.065-2.383-3.682-5.425-3.682s-5.425 1.617-5.425 3.682c0 2.064 2.383 3.681 5.425 3.681 1.145 0 2.196-.229 3.062-.625l.581.576c.11.11.255.165.4.165.147 0 .293-.056.404-.168.221-.223.22-.583-.003-.804l-.372-.369zm-4.072.087c-2.324 0-4.287-1.165-4.287-2.543 0-1.379 1.963-2.544 4.287-2.544s4.287 1.165 4.287 2.544c0 .617-.395 1.192-1.039 1.638l-.688-.683c-.223-.221-.583-.22-.805.003-.221.223-.219.583.004.805l.418.415c-.643.231-1.389.365-2.177.365zm10.685-13.402c-3.379-1.483-7.273-2.333-10.685-2.333-3.412 0-7.306.85-10.685 2.333-1.247.548-5.315 2.497-5.315 4.602 0 2.627 1.979 4.335 2.063 4.406.14.119.328.163.505.118.176-.043 4.331-1.102 6.188-3.849.131-.194.13-.448-.002-.64l-.717-1.046c1.096-.579 3.931-1.832 7.963-1.832s6.868 1.253 7.963 1.832l-.717 1.046c-.132.192-.133.446-.002.64 1.857 2.747 6.012 3.806 6.188 3.849l.137.017c.133 0 .264-.047.368-.135.084-.071 2.063-1.779 2.063-4.406 0-2.105-4.068-4.054-5.315-4.602zm2.724 7.938c-.893-.27-3.57-1.199-4.996-2.991l.836-1.22c.086-.126.118-.28.089-.429-.028-.149-.115-.281-.241-.365-.036-.024-.901-.599-2.458-1.17-1.422-.521-3.727-1.142-6.639-1.142-2.912 0-5.217.621-6.639 1.142-1.557.571-2.421 1.146-2.458 1.17-.126.084-.213.216-.241.365-.029.149.003.303.089.429l.836 1.22c-1.426 1.792-4.104 2.721-4.996 2.991-.446-.467-1.453-1.702-1.453-3.336 0-.758 1.592-2.224 4.635-3.56 3.239-1.422 6.967-2.237 10.227-2.237 3.26 0 6.988.815 10.228 2.237 3.042 1.336 4.634 2.802 4.634 3.56 0 1.634-1.007 2.869-1.453 3.336z" fill="#67737B" sketch:type="MSShapeGroup"/><path d="M27.363 101.319h-.69l-4.955-11.968c-.088-.213-.295-.351-.525-.351h-2.585c-.314 0-.569.254-.569.568v.962h-4.146v-.962c0-.314-.255-.568-.569-.568h-2.585c-.23 0-.437.138-.525.351l-4.955 11.968h-.69c-.314 0-.569.255-.569.569v4.618c0 .315.255.569.569.569h.528l.309 1.213c.064.252.291.428.551.428h3.956c.26 0 .487-.176.551-.428l.309-1.213h10.386l.309 1.213c.064.252.291.428.551.428h3.956c.26 0 .487-.176.551-.428l.309-1.213h.528c.314 0 .569-.254.569-.569v-4.618c0-.314-.255-.569-.569-.569zm-17.032 4.619h-5.193v-3.481h.369l.126.014h20.666l.126-.014h.369v3.481h-16.463zm.789-15.801h1.635v.961c0 .314.255.569.569.569h5.284c.314 0 .569-.255.569-.569v-.961h1.636l4.629 11.182h-18.952l4.63-11.182zm-1.649 17.442h-3.072l-.128-.504h3.328l-.128.504zm16.062 0h-3.072l-.128-.504h3.328l-.128.504zm-5.495-8.585c.845-.648 1.353-1.504 1.353-2.456 0-2.065-2.383-3.682-5.425-3.682s-5.425 1.617-5.425 3.682c0 2.064 2.383 3.681 5.425 3.681 1.145 0 2.196-.229 3.062-.625l.581.576c.11.11.255.165.4.165.147 0 .293-.056.404-.168.221-.223.22-.583-.003-.804l-.372-.369zm-4.072.087c-2.324 0-4.287-1.165-4.287-2.543 0-1.379 1.963-2.544 4.287-2.544s4.287 1.165 4.287 2.544c0 .617-.395 1.192-1.039 1.638l-.688-.683c-.223-.221-.583-.22-.805.003-.221.223-.219.583.004.805l.418.415c-.643.231-1.389.365-2.177.365zm10.685-13.402c-3.379-1.483-7.273-2.333-10.685-2.333-3.412 0-7.306.85-10.685 2.333-1.247.548-5.315 2.497-5.315 4.602 0 2.627 1.979 4.335 2.063 4.406.14.119.328.163.505.118.176-.043 4.331-1.102 6.188-3.849.131-.194.13-.448-.002-.64l-.717-1.046c1.096-.579 3.931-1.832 7.963-1.832s6.868 1.253 7.963 1.832l-.717 1.046c-.132.192-.133.446-.002.64 1.857 2.747 6.012 3.806 6.188 3.849l.137.017c.133 0 .264-.047.368-.135.084-.071 2.063-1.779 2.063-4.406 0-2.105-4.068-4.054-5.315-4.602zm2.724 7.938c-.893-.27-3.57-1.199-4.996-2.991l.836-1.22c.086-.126.118-.28.089-.429-.028-.149-.115-.281-.241-.365-.036-.024-.901-.599-2.458-1.17-1.422-.521-3.727-1.142-6.639-1.142-2.912 0-5.217.621-6.639 1.142-1.557.571-2.421 1.146-2.458 1.17-.126.084-.213.216-.241.365-.029.149.003.303.089.429l.836 1.22c-1.426 1.792-4.104 2.721-4.996 2.991-.446-.467-1.453-1.702-1.453-3.336 0-.758 1.592-2.224 4.635-3.56 3.239-1.422 6.967-2.237 10.227-2.237 3.26 0 6.988.815 10.228 2.237 3.042 1.336 4.634 2.802 4.634 3.56 0 1.634-1.007 2.869-1.453 3.336z" fill="#fff" sketch:type="MSShapeGroup"/><path d="M27.363 141.319h-.69l-4.955-11.968c-.088-.213-.295-.351-.525-.351h-2.585c-.314 0-.569.254-.569.568v.962h-4.146v-.962c0-.314-.255-.568-.569-.568h-2.585c-.23 0-.437.138-.525.351l-4.955 11.968h-.69c-.314 0-.569.255-.569.569v4.618c0 .315.255.569.569.569h.528l.309 1.213c.064.252.291.428.551.428h3.956c.26 0 .487-.176.551-.428l.309-1.213h10.386l.309 1.213c.064.252.291.428.551.428h3.956c.26 0 .487-.176.551-.428l.309-1.213h.528c.314 0 .569-.254.569-.569v-4.618c0-.314-.255-.569-.569-.569zm-17.032 4.619h-5.193v-3.481h.369l.126.014h20.666l.126-.014h.369v3.481h-16.463zm.789-15.801h1.635v.961c0 .314.255.569.569.569h5.284c.314 0 .569-.255.569-.569v-.961h1.636l4.629 11.182h-18.952l4.63-11.182zm-1.649 17.442h-3.072l-.128-.504h3.328l-.128.504zm16.062 0h-3.072l-.128-.504h3.328l-.128.504zm-5.495-8.585c.845-.648 1.353-1.504 1.353-2.456 0-2.065-2.383-3.682-5.425-3.682s-5.425 1.617-5.425 3.682c0 2.064 2.383 3.681 5.425 3.681 1.145 0 2.196-.229 3.062-.625l.581.576c.11.11.255.165.4.165.147 0 .293-.056.404-.168.221-.223.22-.583-.003-.804l-.372-.369zm-4.072.087c-2.324 0-4.287-1.165-4.287-2.543 0-1.379 1.963-2.544 4.287-2.544s4.287 1.165 4.287 2.544c0 .617-.395 1.192-1.039 1.638l-.688-.683c-.223-.221-.583-.22-.805.003-.221.223-.219.583.004.805l.418.415c-.643.231-1.389.365-2.177.365zm10.685-13.402c-3.379-1.483-7.273-2.333-10.685-2.333-3.412 0-7.306.85-10.685 2.333-1.247.548-5.315 2.497-5.315 4.602 0 2.627 1.979 4.335 2.063 4.406.14.119.328.163.505.118.176-.043 4.331-1.102 6.188-3.849.131-.194.13-.448-.002-.64l-.717-1.046c1.096-.579 3.931-1.832 7.963-1.832s6.868 1.253 7.963 1.832l-.717 1.046c-.132.192-.133.446-.002.64 1.857 2.747 6.012 3.806 6.188 3.849l.137.017c.133 0 .264-.047.368-.135.084-.071 2.063-1.779 2.063-4.406 0-2.105-4.068-4.054-5.315-4.602zm2.724 7.938c-.893-.27-3.57-1.199-4.996-2.991l.836-1.22c.086-.126.118-.28.089-.429-.028-.149-.115-.281-.241-.365-.036-.024-.901-.599-2.458-1.17-1.422-.521-3.727-1.142-6.639-1.142-2.912 0-5.217.621-6.639 1.142-1.557.571-2.421 1.146-2.458 1.17-.126.084-.213.216-.241.365-.029.149.003.303.089.429l.836 1.22c-1.426 1.792-4.104 2.721-4.996 2.991-.446-.467-1.453-1.702-1.453-3.336 0-.758 1.592-2.224 4.635-3.56 3.239-1.422 6.967-2.237 10.227-2.237 3.26 0 6.988.815 10.228 2.237 3.042 1.336 4.634 2.802 4.634 3.56 0 1.634-1.007 2.869-1.453 3.336z" fill="#206FAC" sketch:type="MSShapeGroup"/></g></svg>