<svg width="32" height="232" viewBox="0 0 32 232" xmlns="http://www.w3.org/2000/svg" xmlns:sketch="http://www.bohemiancoding.com/sketch/ns"><title>time</title><desc>Created with Sketch.</desc><g sketch:type="MSPage" fill="none"><path d="M24.967 18.623l-1.21-.625c.152-.642.242-1.309.242-1.998 0-.69-.084-1.359-.237-2.002l1.205-.622c.123-.064.216-.174.258-.306.043-.132.03-.276-.033-.399l-1.267-2.453c-.132-.257-.448-.358-.705-.225l-1.141.589c-.365-.453-.771-.872-1.219-1.243l-.959-2.048v-6.768c0-.289-.234-.523-.523-.523h-8.053c-.289 0-.523.234-.523.523v6.768l-.958 2.048c-1.917 1.587-3.14 3.984-3.14 6.661 0 2.677 1.223 5.073 3.14 6.66l.958 2.048v6.768c0 .289.234.524.523.524h8.053c.289 0 .523-.235.523-.524v-6.768l.959-2.048c.448-.371.856-.789 1.221-1.242l1.139.588c.077.04.159.059.24.059.19 0 .373-.104.466-.284l1.266-2.453c.132-.257.032-.572-.225-.705zm-1.732-7.459l.786 1.522-.573.296c-.202-.54-.45-1.058-.751-1.541l.538-.277zm-11.386-10.117h7.005v1.639h-7.005v-1.639zm0 2.685h7.005v1.609h-7.005v-1.609zm0 3.792l.532-1.136h5.941l.532 1.136v.576c-1.072-.477-2.255-.748-3.502-.748-1.248 0-2.431.271-3.503.748v-.576zm3.503.875c4.191 0 7.6 3.41 7.6 7.601s-3.409 7.6-7.6 7.6-7.601-3.409-7.601-7.6 3.41-7.601 7.601-7.601zm-3.503 20.915h7.005v1.639h-7.005v-1.639zm0-2.656h7.005v1.609h-7.005v-1.609zm7.005-2.183l-.532 1.136h-5.941l-.532-1.136v-.576c1.072.477 2.255.748 3.503.748 1.247 0 2.43-.271 3.502-.748v.576zm4.381-3.639l-.546-.282c.301-.484.554-.998.757-1.538l.575.297-.786 1.523zm-7.883-11.766c-3.821 0-6.93 3.109-6.93 6.93 0 3.82 3.109 6.929 6.93 6.929 3.82 0 6.929-3.109 6.929-6.929 0-3.821-3.109-6.93-6.929-6.93zm0 12.812c-3.244 0-5.883-2.639-5.883-5.882 0-3.244 2.639-5.883 5.883-5.883 3.243 0 5.882 2.639 5.882 5.883 0 3.243-2.639 5.882-5.882 5.882zm.523-7.156v-3.703c0-.289-.234-.523-.523-.523-.289 0-.524.234-.524.523v3.703c-.509.208-.87.707-.87 1.291 0 .226.056.44.152.63l-1.684 1.683c-.204.205-.204.536 0 .741.103.102.237.153.371.153s.268-.051.37-.153l1.736-1.736c.141.048.291.075.449.075.768 0 1.393-.625 1.393-1.393 0-.584-.36-1.083-.87-1.291zm-.523 1.637c-.192 0-.347-.155-.347-.346 0-.191.155-.347.347-.347.191 0 .346.156.346.347 0 .191-.155.346-.346.346zm0 3.218c-.289 0-.524.234-.524.523v.906c0 .289.235.524.524.524.289 0 .523-.235.523-.524v-.906c0-.289-.234-.523-.523-.523m4.993-4.088h-.906c-.289 0-.523.235-.523.524 0 .289.234.523.523.523h.906c.289 0 .524-.234.524-.523 0-.289-.235-.524-.524-.524m-9.081 0h-.906c-.289 0-.523.235-.523.524 0 .289.234.523.523.523h.906c.289 0 .524-.234.524-.523 0-.289-.235-.524-.524-.524" fill="#3A434E" sketch:type="MSShapeGroup"/><path d="M24.967 58.623l-1.21-.625c.152-.642.242-1.309.242-1.998 0-.69-.084-1.359-.237-2.002l1.205-.622c.123-.064.216-.174.258-.306.043-.132.03-.276-.033-.399l-1.267-2.453c-.132-.257-.448-.358-.705-.225l-1.141.589c-.365-.453-.771-.872-1.219-1.243l-.959-2.048v-6.768c0-.289-.234-.523-.523-.523h-8.053c-.289 0-.523.234-.523.523v6.768l-.958 2.048c-1.917 1.587-3.14 3.984-3.14 6.661 0 2.677 1.223 5.073 3.14 6.66l.958 2.048v6.768c0 .289.234.524.523.524h8.053c.289 0 .523-.235.523-.524v-6.768l.959-2.048c.448-.371.856-.789 1.221-1.242l1.139.588c.077.04.159.059.24.059.19 0 .373-.104.466-.284l1.266-2.453c.132-.257.032-.572-.225-.705zm-1.732-7.459l.786 1.522-.573.296c-.202-.54-.45-1.058-.751-1.541l.538-.277zm-11.386-10.117h7.005v1.639h-7.005v-1.639zm0 2.685h7.005v1.609h-7.005v-1.609zm0 3.792l.532-1.136h5.941l.532 1.136v.576c-1.072-.477-2.255-.748-3.502-.748-1.248 0-2.431.271-3.503.748v-.576zm3.503.875c4.191 0 7.6 3.41 7.6 7.601s-3.409 7.6-7.6 7.6-7.601-3.409-7.601-7.6 3.41-7.601 7.601-7.601zm-3.503 20.915h7.005v1.639h-7.005v-1.639zm0-2.656h7.005v1.609h-7.005v-1.609zm7.005-2.183l-.532 1.136h-5.941l-.532-1.136v-.576c1.072.477 2.255.748 3.503.748 1.247 0 2.43-.271 3.502-.748v.576zm4.381-3.639l-.546-.282c.301-.484.554-.998.757-1.538l.575.297-.786 1.523zm-7.883-11.766c-3.821 0-6.93 3.109-6.93 6.93 0 3.82 3.109 6.929 6.93 6.929 3.82 0 6.929-3.109 6.929-6.929 0-3.821-3.109-6.93-6.929-6.93zm0 12.812c-3.244 0-5.883-2.639-5.883-5.882 0-3.244 2.639-5.883 5.883-5.883 3.243 0 5.882 2.639 5.882 5.883 0 3.243-2.639 5.882-5.882 5.882zm.523-7.156v-3.703c0-.289-.234-.523-.523-.523-.289 0-.524.234-.524.523v3.703c-.509.208-.87.707-.87 1.291 0 .226.056.44.152.63l-1.684 1.683c-.204.205-.204.536 0 .741.103.102.237.153.371.153s.268-.051.37-.153l1.736-1.736c.141.048.291.075.449.075.768 0 1.393-.625 1.393-1.393 0-.584-.36-1.083-.87-1.291zm-.523 1.637c-.192 0-.347-.155-.347-.346 0-.191.155-.347.347-.347.191 0 .346.156.346.347 0 .191-.155.346-.346.346zm0 3.218c-.289 0-.524.234-.524.523v.906c0 .289.235.524.524.524.289 0 .523-.235.523-.524v-.906c0-.289-.234-.523-.523-.523m4.993-4.088h-.906c-.289 0-.523.235-.523.524 0 .289.234.523.523.523h.906c.289 0 .524-.234.524-.523 0-.289-.235-.524-.524-.524m-9.081 0h-.906c-.289 0-.523.235-.523.524 0 .289.234.523.523.523h.906c.289 0 .524-.234.524-.523 0-.289-.235-.524-.524-.524" fill="#67737B" sketch:type="MSShapeGroup"/><path d="M24.967 98.623l-1.21-.625c.152-.642.242-1.309.242-1.998 0-.69-.084-1.359-.237-2.002l1.205-.622c.123-.064.216-.174.258-.306.043-.132.03-.276-.033-.399l-1.267-2.453c-.132-.257-.448-.358-.705-.225l-1.141.589c-.365-.453-.771-.872-1.219-1.243l-.959-2.048v-6.768c0-.289-.234-.523-.523-.523h-8.053c-.289 0-.523.234-.523.523v6.768l-.958 2.048c-1.917 1.587-3.14 3.984-3.14 6.661 0 2.677 1.223 5.073 3.14 6.66l.958 2.048v6.768c0 .289.234.524.523.524h8.053c.289 0 .523-.235.523-.524v-6.768l.959-2.048c.448-.371.856-.789 1.221-1.242l1.139.588c.077.04.159.059.24.059.19 0 .373-.104.466-.284l1.266-2.453c.132-.257.032-.572-.225-.705zm-1.732-7.459l.786 1.522-.573.296c-.202-.54-.45-1.058-.751-1.541l.538-.277zm-11.386-10.117h7.005v1.639h-7.005v-1.639zm0 2.685h7.005v1.609h-7.005v-1.609zm0 3.792l.532-1.136h5.941l.532 1.136v.576c-1.072-.477-2.255-.748-3.502-.748-1.248 0-2.431.271-3.503.748v-.576zm3.503.875c4.191 0 7.6 3.41 7.6 7.601s-3.409 7.6-7.6 7.6-7.601-3.409-7.601-7.6 3.41-7.601 7.601-7.601zm-3.503 20.915h7.005v1.639h-7.005v-1.639zm0-2.656h7.005v1.609h-7.005v-1.609zm7.005-2.183l-.532 1.136h-5.941l-.532-1.136v-.576c1.072.477 2.255.748 3.503.748 1.247 0 2.43-.271 3.502-.748v.576zm4.381-3.639l-.546-.282c.301-.484.554-.998.757-1.538l.575.297-.786 1.523zm-7.883-11.766c-3.821 0-6.93 3.109-6.93 6.93 0 3.82 3.109 6.929 6.93 6.929 3.82 0 6.929-3.109 6.929-6.929 0-3.821-3.109-6.93-6.929-6.93zm0 12.812c-3.244 0-5.883-2.639-5.883-5.882 0-3.244 2.639-5.883 5.883-5.883 3.243 0 5.882 2.639 5.882 5.883 0 3.243-2.639 5.882-5.882 5.882zm.523-7.156v-3.703c0-.289-.234-.523-.523-.523-.289 0-.524.234-.524.523v3.703c-.509.208-.87.707-.87 1.291 0 .226.056.44.152.63l-1.684 1.683c-.204.205-.204.536 0 .741.103.102.237.153.371.153s.268-.051.37-.153l1.736-1.736c.141.048.291.075.449.075.768 0 1.393-.625 1.393-1.393 0-.584-.36-1.083-.87-1.291zm-.523 1.637c-.192 0-.347-.155-.347-.346 0-.191.155-.347.347-.347.191 0 .346.156.346.347 0 .191-.155.346-.346.346zm0 3.218c-.289 0-.524.234-.524.523v.906c0 .289.235.524.524.524.289 0 .523-.235.523-.524v-.906c0-.289-.234-.523-.523-.523m4.993-4.088h-.906c-.289 0-.523.235-.523.524 0 .289.234.523.523.523h.906c.289 0 .524-.234.524-.523 0-.289-.235-.524-.524-.524m-9.081 0h-.906c-.289 0-.523.235-.523.524 0 .289.234.523.523.523h.906c.289 0 .524-.234.524-.523 0-.289-.235-.524-.524-.524" fill="#fff" sketch:type="MSShapeGroup"/><path d="M24.967 138.623l-1.21-.625c.152-.642.242-1.309.242-1.998 0-.69-.084-1.359-.237-2.002l1.205-.622c.123-.064.216-.174.258-.306.043-.132.03-.276-.033-.399l-1.267-2.453c-.132-.257-.448-.358-.705-.225l-1.141.589c-.365-.453-.771-.872-1.219-1.243l-.959-2.048v-6.768c0-.289-.234-.523-.523-.523h-8.053c-.289 0-.523.234-.523.523v6.768l-.958 2.048c-1.917 1.587-3.14 3.984-3.14 6.661 0 2.677 1.223 5.073 3.14 6.66l.958 2.048v6.768c0 .289.234.524.523.524h8.053c.289 0 .523-.235.523-.524v-6.768l.959-2.048c.448-.371.856-.789 1.221-1.242l1.139.588c.077.04.159.059.24.059.19 0 .373-.104.466-.284l1.266-2.453c.132-.257.032-.572-.225-.705zm-1.732-7.459l.786 1.522-.573.296c-.202-.54-.45-1.058-.751-1.541l.538-.277zm-11.386-10.117h7.005v1.639h-7.005v-1.639zm0 2.685h7.005v1.609h-7.005v-1.609zm0 3.792l.532-1.136h5.941l.532 1.136v.576c-1.072-.477-2.255-.748-3.502-.748-1.248 0-2.431.271-3.503.748v-.576zm3.503.875c4.191 0 7.6 3.41 7.6 7.601s-3.409 7.6-7.6 7.6-7.601-3.409-7.601-7.6 3.41-7.601 7.601-7.601zm-3.503 20.915h7.005v1.639h-7.005v-1.639zm0-2.656h7.005v1.609h-7.005v-1.609zm7.005-2.183l-.532 1.136h-5.941l-.532-1.136v-.576c1.072.477 2.255.748 3.503.748 1.247 0 2.43-.271 3.502-.748v.576zm4.381-3.639l-.546-.282c.301-.484.554-.998.757-1.538l.575.297-.786 1.523zm-7.883-11.766c-3.821 0-6.93 3.109-6.93 6.93 0 3.82 3.109 6.929 6.93 6.929 3.82 0 6.929-3.109 6.929-6.929 0-3.821-3.109-6.93-6.929-6.93zm0 12.812c-3.244 0-5.883-2.639-5.883-5.882 0-3.244 2.639-5.883 5.883-5.883 3.243 0 5.882 2.639 5.882 5.883 0 3.243-2.639 5.882-5.882 5.882zm.523-7.156v-3.703c0-.289-.234-.523-.523-.523-.289 0-.524.234-.524.523v3.703c-.509.208-.87.707-.87 1.291 0 .226.056.44.152.63l-1.684 1.683c-.204.205-.204.536 0 .741.103.102.237.153.371.153s.268-.051.37-.153l1.736-1.736c.141.048.291.075.449.075.768 0 1.393-.625 1.393-1.393 0-.584-.36-1.083-.87-1.291zm-.523 1.637c-.192 0-.347-.155-.347-.346 0-.191.155-.347.347-.347.191 0 .346.156.346.347 0 .191-.155.346-.346.346zm0 3.218c-.289 0-.524.234-.524.523v.906c0 .289.235.524.524.524.289 0 .523-.235.523-.524v-.906c0-.289-.234-.523-.523-.523m4.993-4.088h-.906c-.289 0-.523.235-.523.524 0 .289.234.523.523.523h.906c.289 0 .524-.234.524-.523 0-.289-.235-.524-.524-.524m-9.081 0h-.906c-.289 0-.523.235-.523.524 0 .289.234.523.523.523h.906c.289 0 .524-.234.524-.523 0-.289-.235-.524-.524-.524" fill="#206FAC" sketch:type="MSShapeGroup"/></g></svg>