<svg width="32" height="232" viewBox="0 0 32 232" xmlns="http://www.w3.org/2000/svg"><title>time</title><desc>Created with Sketch.</desc><g fill="none"><path d="M24.967 18.623l-1.21-.625c.152-.642.242-1.31.242-1.998 0-.69-.085-1.36-.238-2.002l1.205-.622c.123-.064.216-.174.258-.306.043-.132.03-.276-.033-.4l-1.267-2.452c-.132-.257-.448-.358-.705-.225l-1.14.59c-.366-.454-.772-.873-1.22-1.244l-.96-2.05V.524c0-.29-.233-.523-.522-.523h-8.053c-.29 0-.523.234-.523.523V7.29l-.958 2.05c-1.917 1.586-3.14 3.983-3.14 6.66s1.223 5.073 3.14 6.66l.958 2.048v6.768c0 .29.234.524.523.524h8.053c.29 0 .523-.235.523-.524v-6.768l.96-2.048c.448-.37.856-.79 1.22-1.242l1.14.588c.077.04.16.06.24.06.19 0 .373-.105.466-.285l1.266-2.452c.132-.257.032-.572-.225-.705zm-1.732-7.46l.786 1.523-.572.296c-.202-.54-.45-1.058-.75-1.54l.537-.278zM11.85 1.048h7.004v1.64H11.85v-1.64zm0 2.685h7.004v1.61H11.85V3.73zm0 3.792l.53-1.136h5.942l.532 1.136V8.1c-1.072-.477-2.255-.748-3.502-.748-1.248 0-2.43.27-3.503.748v-.576zm3.502.875c4.19 0 7.6 3.41 7.6 7.6s-3.41 7.6-7.6 7.6-7.6-3.41-7.6-7.6 3.41-7.6 7.6-7.6zM11.85 29.313h7.004v1.64H11.85v-1.64zm0-2.656h7.004v1.61H11.85v-1.61zm7.004-2.183l-.532 1.136h-5.94l-.533-1.135V23.9c1.07.476 2.254.747 3.502.747 1.247 0 2.43-.27 3.502-.748v.575zm4.38-3.64l-.545-.28c.3-.485.553-1 .756-1.54l.575.298-.785 1.523zM15.353 9.07c-3.82 0-6.93 3.11-6.93 6.93s3.11 6.93 6.93 6.93 6.93-3.11 6.93-6.93-3.11-6.93-6.93-6.93zm0 12.812c-3.244 0-5.883-2.64-5.883-5.882 0-3.244 2.638-5.883 5.882-5.883 3.243 0 5.882 2.64 5.882 5.883s-2.64 5.882-5.882 5.882zm.523-7.156v-3.703c0-.29-.234-.523-.523-.523-.29 0-.524.234-.524.523v3.703c-.51.208-.87.707-.87 1.29 0 .227.056.44.152.63l-1.684 1.684c-.204.205-.204.536 0 .74.103.103.237.154.37.154s.27-.05.37-.153l1.737-1.735c.14.048.29.075.45.075.767 0 1.392-.625 1.392-1.393 0-.584-.36-1.083-.87-1.29zm-.523 1.637c-.192 0-.347-.155-.347-.346 0-.19.155-.347.347-.347.19 0 .346.156.346.347 0 .19-.155.346-.346.346zm0 3.218c-.29 0-.524.235-.524.524v.906c0 .29.235.524.524.524.29 0 .523-.235.523-.524v-.906c0-.29-.234-.523-.523-.523m4.993-4.087h-.906c-.29 0-.524.235-.524.524 0 .29.234.523.523.523h.905c.29 0 .524-.234.524-.523 0-.29-.236-.524-.525-.524m-9.08 0h-.907c-.29 0-.523.235-.523.524 0 .29.234.523.523.523h.906c.29 0 .524-.234.524-.523 0-.29-.235-.524-.524-.524" fill="#3A434E"/><path d="M24.967 58.623l-1.21-.625c.152-.642.242-1.31.242-1.998 0-.69-.085-1.36-.238-2.002l1.205-.622c.123-.064.216-.174.258-.306.043-.132.03-.276-.033-.4l-1.267-2.452c-.132-.257-.448-.358-.705-.225l-1.14.59c-.366-.454-.772-.873-1.22-1.244l-.96-2.05v-6.767c0-.29-.233-.523-.522-.523h-8.053c-.29 0-.523.234-.523.523v6.768l-.958 2.05c-1.917 1.586-3.14 3.983-3.14 6.66s1.223 5.073 3.14 6.66l.958 2.048v6.768c0 .29.234.524.523.524h8.053c.29 0 .523-.235.523-.524v-6.768l.96-2.048c.448-.37.856-.79 1.22-1.242l1.14.588c.077.04.16.06.24.06.19 0 .373-.105.466-.285l1.266-2.452c.132-.257.032-.572-.225-.705zm-1.732-7.46l.786 1.523-.572.296c-.202-.54-.45-1.058-.75-1.54l.537-.278zM11.85 41.048h7.004v1.64H11.85v-1.64zm0 2.685h7.004v1.61H11.85v-1.61zm0 3.792l.53-1.136h5.942l.532 1.136v.576c-1.072-.477-2.255-.748-3.502-.748-1.248 0-2.43.27-3.503.748v-.576zm3.502.875c4.19 0 7.6 3.41 7.6 7.6s-3.41 7.6-7.6 7.6-7.6-3.41-7.6-7.6 3.41-7.6 7.6-7.6zM11.85 69.313h7.004v1.64H11.85v-1.64zm0-2.656h7.004v1.61H11.85v-1.61zm7.004-2.183l-.532 1.136h-5.94l-.533-1.135V63.9c1.07.476 2.254.747 3.502.747 1.247 0 2.43-.27 3.502-.748v.575zm4.38-3.64l-.545-.28c.3-.485.553-1 .756-1.54l.575.298-.785 1.523zM15.353 49.07c-3.82 0-6.93 3.11-6.93 6.93s3.11 6.93 6.93 6.93 6.93-3.11 6.93-6.93-3.11-6.93-6.93-6.93zm0 12.812c-3.244 0-5.883-2.64-5.883-5.882 0-3.244 2.638-5.883 5.882-5.883 3.243 0 5.882 2.64 5.882 5.883s-2.64 5.882-5.882 5.882zm.523-7.156v-3.703c0-.29-.234-.523-.523-.523-.29 0-.524.234-.524.523v3.703c-.51.208-.87.707-.87 1.29 0 .227.056.44.152.63l-1.684 1.684c-.204.205-.204.536 0 .74.103.103.237.154.37.154s.27-.05.37-.153l1.737-1.735c.14.048.29.075.45.075.767 0 1.392-.625 1.392-1.393 0-.584-.36-1.083-.87-1.29zm-.523 1.637c-.192 0-.347-.155-.347-.346 0-.19.155-.347.347-.347.19 0 .346.156.346.347 0 .19-.155.346-.346.346zm0 3.218c-.29 0-.524.235-.524.524v.906c0 .29.235.524.524.524.29 0 .523-.235.523-.524v-.906c0-.29-.234-.523-.523-.523m4.993-4.087h-.906c-.29 0-.524.235-.524.524 0 .29.234.523.523.523h.905c.29 0 .524-.234.524-.523 0-.29-.236-.524-.525-.524m-9.08 0h-.907c-.29 0-.523.235-.523.524 0 .29.234.523.523.523h.906c.29 0 .524-.234.524-.523 0-.29-.235-.524-.524-.524" fill="#67737B"/><path d="M24.967 98.623l-1.21-.625c.152-.642.242-1.31.242-1.998 0-.69-.085-1.36-.238-2.002l1.205-.622c.123-.064.216-.174.258-.306.043-.132.03-.276-.033-.4l-1.267-2.452c-.132-.257-.448-.358-.705-.225l-1.14.59c-.366-.454-.772-.873-1.22-1.244l-.96-2.05v-6.767c0-.29-.233-.523-.522-.523h-8.053c-.29 0-.523.234-.523.523v6.768l-.958 2.05c-1.917 1.586-3.14 3.983-3.14 6.66s1.223 5.073 3.14 6.66l.958 2.048v6.768c0 .29.234.524.523.524h8.053c.29 0 .523-.235.523-.524v-6.768l.96-2.048c.448-.37.856-.79 1.22-1.242l1.14.588c.077.04.16.06.24.06.19 0 .373-.105.466-.285l1.266-2.452c.132-.257.032-.572-.225-.705zm-1.732-7.46l.786 1.523-.572.296c-.202-.54-.45-1.058-.75-1.54l.537-.278zM11.85 81.048h7.004v1.64H11.85v-1.64zm0 2.685h7.004v1.61H11.85v-1.61zm0 3.792l.53-1.136h5.942l.532 1.136v.576c-1.072-.477-2.255-.748-3.502-.748-1.248 0-2.43.27-3.503.748v-.576zm3.502.875c4.19 0 7.6 3.41 7.6 7.6s-3.41 7.6-7.6 7.6-7.6-3.41-7.6-7.6 3.41-7.6 7.6-7.6zm-3.503 20.914h7.004v1.64H11.85v-1.64zm0-2.656h7.004v1.61H11.85v-1.61zm7.004-2.183l-.532 1.136h-5.94l-.533-1.135v-.576c1.07.476 2.254.747 3.502.747 1.247 0 2.43-.27 3.502-.748v.575zm4.38-3.64l-.545-.28c.3-.485.553-1 .756-1.54l.575.298-.785 1.523zM15.353 89.07c-3.82 0-6.93 3.11-6.93 6.93s3.11 6.93 6.93 6.93 6.93-3.11 6.93-6.93-3.11-6.93-6.93-6.93zm0 12.812c-3.244 0-5.883-2.64-5.883-5.882 0-3.244 2.638-5.883 5.882-5.883 3.243 0 5.882 2.64 5.882 5.883s-2.64 5.882-5.882 5.882zm.523-7.156v-3.703c0-.29-.234-.523-.523-.523-.29 0-.524.234-.524.523v3.703c-.51.208-.87.707-.87 1.29 0 .227.056.44.152.63l-1.684 1.684c-.204.205-.204.536 0 .74.103.103.237.154.37.154s.27-.05.37-.153l1.737-1.735c.14.048.29.075.45.075.767 0 1.392-.625 1.392-1.393 0-.584-.36-1.083-.87-1.29zm-.523 1.637c-.192 0-.347-.155-.347-.346 0-.19.155-.347.347-.347.19 0 .346.156.346.347 0 .19-.155.346-.346.346zm0 3.218c-.29 0-.524.235-.524.524v.906c0 .29.235.524.524.524.29 0 .523-.235.523-.524v-.906c0-.29-.234-.523-.523-.523m4.993-4.087h-.906c-.29 0-.524.235-.524.524 0 .29.234.523.523.523h.905c.29 0 .524-.234.524-.523 0-.29-.236-.524-.525-.524m-9.08 0h-.907c-.29 0-.523.235-.523.524 0 .29.234.523.523.523h.906c.29 0 .524-.234.524-.523 0-.29-.235-.524-.524-.524" fill="#fff"/><path d="M24.967 138.623l-1.21-.625c.152-.642.242-1.31.242-1.998 0-.69-.085-1.36-.238-2.002l1.205-.622c.123-.064.216-.174.258-.306.043-.132.03-.276-.033-.4l-1.267-2.452c-.132-.257-.448-.358-.705-.225l-1.14.59c-.366-.454-.772-.873-1.22-1.244l-.96-2.05v-6.767c0-.29-.233-.523-.522-.523h-8.053c-.29 0-.523.234-.523.523v6.768l-.958 2.05c-1.917 1.586-3.14 3.983-3.14 6.66s1.223 5.073 3.14 6.66l.958 2.048v6.768c0 .29.234.524.523.524h8.053c.29 0 .523-.235.523-.524v-6.768l.96-2.048c.448-.37.856-.79 1.22-1.242l1.14.588c.077.04.16.06.24.06.19 0 .373-.105.466-.285l1.266-2.452c.132-.257.032-.572-.225-.705zm-1.732-7.46l.786 1.523-.572.296c-.202-.54-.45-1.058-.75-1.54l.537-.278zM11.85 121.048h7.004v1.64H11.85v-1.64zm0 2.685h7.004v1.61H11.85v-1.61zm0 3.792l.53-1.136h5.942l.532 1.136v.576c-1.072-.477-2.255-.748-3.502-.748-1.248 0-2.43.27-3.503.748v-.576zm3.502.875c4.19 0 7.6 3.41 7.6 7.6s-3.41 7.6-7.6 7.6-7.6-3.41-7.6-7.6 3.41-7.6 7.6-7.6zm-3.503 20.914h7.004v1.64H11.85v-1.64zm0-2.656h7.004v1.61H11.85v-1.61zm7.004-2.183l-.532 1.136h-5.94l-.533-1.135v-.576c1.07.476 2.254.747 3.502.747 1.247 0 2.43-.27 3.502-.748v.575zm4.38-3.64l-.545-.28c.3-.485.553-1 .756-1.54l.575.298-.785 1.523zm-7.882-11.765c-3.82 0-6.93 3.11-6.93 6.93s3.11 6.93 6.93 6.93 6.93-3.11 6.93-6.93-3.11-6.93-6.93-6.93zm0 12.812c-3.244 0-5.883-2.64-5.883-5.882 0-3.244 2.638-5.883 5.882-5.883 3.243 0 5.882 2.64 5.882 5.883s-2.64 5.882-5.882 5.882zm.523-7.156v-3.703c0-.29-.234-.523-.523-.523-.29 0-.524.234-.524.523v3.703c-.51.208-.87.707-.87 1.29 0 .227.056.44.152.63l-1.684 1.684c-.204.205-.204.536 0 .74.103.103.237.154.37.154s.27-.05.37-.153l1.737-1.735c.14.048.29.075.45.075.767 0 1.392-.625 1.392-1.393 0-.584-.36-1.083-.87-1.29zm-.523 1.637c-.192 0-.347-.155-.347-.346 0-.19.155-.347.347-.347.19 0 .346.156.346.347 0 .19-.155.346-.346.346zm0 3.218c-.29 0-.524.235-.524.524v.906c0 .29.235.524.524.524.29 0 .523-.235.523-.524v-.906c0-.29-.234-.523-.523-.523m4.993-4.087h-.906c-.29 0-.524.235-.524.524 0 .29.234.523.523.523h.905c.29 0 .524-.234.524-.523 0-.29-.236-.524-.525-.524m-9.08 0h-.907c-.29 0-.523.235-.523.524 0 .29.234.523.523.523h.906c.29 0 .524-.234.524-.523 0-.29-.235-.524-.524-.524" fill="#206FAC"/></g></svg>