<svg width="32" height="232" viewBox="0 0 32 232" xmlns="http://www.w3.org/2000/svg"><desc>Created with Sketch.</desc><g fill="none"><path d="M7.07 6C3.17 6 0 9.17 0 13.07s3.17 7.07 7.07 7.07c3.898 0 7.07-3.173 7.07-7.07S10.967 6 7.07 6zm0 12.98c-3.26 0-5.91-2.652-5.91-5.91 0-3.26 2.65-5.91 5.91-5.91 3.258 0 5.91 2.65 5.91 5.91 0 3.258-2.652 5.91-5.91 5.91zm3.96 3.595H3.11c-.32 0-.58.26-.58.58v2.07c0 .32.26.58.58.58h7.92c.32 0 .58-.26.58-.58v-2.07c0-.32-.26-.58-.58-.58zm-7.34 1.16h6.758v.91H3.69v-.91zm25.2-1.16h-7.92c-.32 0-.58.26-.58.58v2.07c0 .32.26.58.58.58h7.92c.32 0 .58-.26.58-.58v-2.07c0-.32-.26-.58-.58-.58zm-7.34 1.16h6.76v.91h-6.76v-.91zM24.93 6c-3.898 0-7.07 3.17-7.07 7.07s3.172 7.07 7.07 7.07c3.9 0 7.07-3.173 7.07-7.07S28.83 6 24.93 6zm0 12.98c-3.258 0-5.91-2.652-5.91-5.91 0-3.26 2.652-5.91 5.91-5.91 3.26 0 5.91 2.65 5.91 5.91 0 3.258-2.65 5.91-5.91 5.91zM7.07 9.294c-.32 0-.58.26-.58.58V12.7l-3.302 1.56c-.29.138-.413.484-.277.773.1.21.31.332.53.332.082 0 .166-.018.247-.055l3.633-1.717c.202-.095.33-.3.33-.524V9.87c0-.32-.26-.58-.58-.58zm18.404 3.572c-.03-.078-.074-.148-.133-.207L22.55 9.85c-.224-.227-.59-.227-.82 0-.225.225-.23.592 0 .82l2.704 2.714 1.12 3.008c.086.234.308.378.543.378l.202-.036c.3-.112.452-.446.34-.746l-1.163-3.126z" fill="#3A434E"/><path d="M7.07 46C3.17 46 0 49.17 0 53.07s3.17 7.07 7.07 7.07c3.898 0 7.07-3.173 7.07-7.07S10.967 46 7.07 46zm0 12.98c-3.26 0-5.91-2.652-5.91-5.91 0-3.26 2.65-5.91 5.91-5.91 3.258 0 5.91 2.65 5.91 5.91 0 3.258-2.652 5.91-5.91 5.91zm3.96 3.595H3.11c-.32 0-.58.26-.58.58v2.07c0 .32.26.58.58.58h7.92c.32 0 .58-.26.58-.58v-2.07c0-.32-.26-.58-.58-.58zm-7.34 1.16h6.758v.91H3.69v-.91zm25.2-1.16h-7.92c-.32 0-.58.26-.58.58v2.07c0 .32.26.58.58.58h7.92c.32 0 .58-.26.58-.58v-2.07c0-.32-.26-.58-.58-.58zm-7.34 1.16h6.76v.91h-6.76v-.91zM24.93 46c-3.898 0-7.07 3.17-7.07 7.07s3.172 7.07 7.07 7.07c3.9 0 7.07-3.173 7.07-7.07S28.83 46 24.93 46zm0 12.98c-3.258 0-5.91-2.652-5.91-5.91 0-3.26 2.652-5.91 5.91-5.91 3.26 0 5.91 2.65 5.91 5.91 0 3.258-2.65 5.91-5.91 5.91zM7.07 49.294c-.32 0-.58.26-.58.58V52.7l-3.302 1.56c-.29.138-.413.484-.277.773.1.21.31.332.53.332.082 0 .166-.018.247-.055l3.633-1.717c.202-.095.33-.3.33-.524V49.87c0-.32-.26-.58-.58-.58zm18.404 3.572c-.03-.078-.074-.148-.133-.207l-2.79-2.808c-.224-.227-.59-.227-.82 0-.225.225-.23.592 0 .82l2.704 2.714 1.12 3.008c.086.234.308.378.543.378l.202-.036c.3-.112.452-.446.34-.746l-1.163-3.126z" fill="#67737B"/><path d="M7.07 86C3.17 86 0 89.17 0 93.07s3.17 7.07 7.07 7.07c3.898 0 7.07-3.173 7.07-7.07S10.967 86 7.07 86zm0 12.98c-3.26 0-5.91-2.652-5.91-5.91 0-3.26 2.65-5.91 5.91-5.91 3.258 0 5.91 2.65 5.91 5.91 0 3.258-2.652 5.91-5.91 5.91zm3.96 3.595H3.11c-.32 0-.58.26-.58.58v2.07c0 .32.26.58.58.58h7.92c.32 0 .58-.26.58-.58v-2.07c0-.32-.26-.58-.58-.58zm-7.34 1.16h6.758v.91H3.69v-.91zm25.2-1.16h-7.92c-.32 0-.58.26-.58.58v2.07c0 .32.26.58.58.58h7.92c.32 0 .58-.26.58-.58v-2.07c0-.32-.26-.58-.58-.58zm-7.34 1.16h6.76v.91h-6.76v-.91zM24.93 86c-3.898 0-7.07 3.17-7.07 7.07s3.172 7.07 7.07 7.07c3.9 0 7.07-3.173 7.07-7.07S28.83 86 24.93 86zm0 12.98c-3.258 0-5.91-2.652-5.91-5.91 0-3.26 2.652-5.91 5.91-5.91 3.26 0 5.91 2.65 5.91 5.91 0 3.258-2.65 5.91-5.91 5.91zM7.07 89.294c-.32 0-.58.26-.58.58V92.7l-3.302 1.56c-.29.138-.413.484-.277.773.1.21.31.332.53.332.082 0 .166-.018.247-.055l3.633-1.717c.202-.095.33-.3.33-.524V89.87c0-.32-.26-.58-.58-.58zm18.404 3.572c-.03-.078-.074-.148-.133-.207l-2.79-2.808c-.224-.227-.59-.227-.82 0-.225.225-.23.592 0 .82l2.704 2.714 1.12 3.008c.086.234.308.378.543.378l.202-.036c.3-.112.452-.446.34-.746l-1.163-3.126z" fill="#fff"/><path d="M7.07 126c-3.9 0-7.07 3.17-7.07 7.07s3.17 7.07 7.07 7.07c3.898 0 7.07-3.173 7.07-7.07S10.967 126 7.07 126zm0 12.98c-3.26 0-5.91-2.652-5.91-5.91 0-3.26 2.65-5.91 5.91-5.91 3.258 0 5.91 2.65 5.91 5.91 0 3.258-2.652 5.91-5.91 5.91zm3.96 3.595H3.11c-.32 0-.58.26-.58.58v2.07c0 .32.26.58.58.58h7.92c.32 0 .58-.26.58-.58v-2.07c0-.32-.26-.58-.58-.58zm-7.34 1.16h6.758v.91H3.69v-.91zm25.2-1.16h-7.92c-.32 0-.58.26-.58.58v2.07c0 .32.26.58.58.58h7.92c.32 0 .58-.26.58-.58v-2.07c0-.32-.26-.58-.58-.58zm-7.34 1.16h6.76v.91h-6.76v-.91zM24.93 126c-3.898 0-7.07 3.17-7.07 7.07s3.172 7.07 7.07 7.07c3.9 0 7.07-3.173 7.07-7.07S28.83 126 24.93 126zm0 12.98c-3.258 0-5.91-2.652-5.91-5.91 0-3.26 2.652-5.91 5.91-5.91 3.26 0 5.91 2.65 5.91 5.91 0 3.258-2.65 5.91-5.91 5.91zm-17.86-9.685c-.32 0-.58.26-.58.58v2.827l-3.302 1.56c-.29.137-.413.483-.277.772.1.21.31.332.53.332.082 0 .166-.018.247-.055l3.633-1.714c.202-.095.33-.3.33-.524v-3.194c0-.32-.26-.58-.58-.58zm18.404 3.572c-.03-.078-.074-.148-.133-.207l-2.79-2.805c-.224-.227-.59-.227-.82 0-.225.225-.23.592 0 .82l2.704 2.714 1.12 3.005c.086.234.308.378.543.378l.202-.036c.3-.113.452-.447.34-.747l-1.163-3.126z" fill="#206FAC"/></g></svg>