<svg width="32" height="232" viewBox="0 0 32 232" xmlns="http://www.w3.org/2000/svg" xmlns:sketch="http://www.bohemiancoding.com/sketch/ns"><title>toilets</title><desc>Created with Sketch.</desc><g sketch:type="MSPage" fill="none"><path d="M31.984 15.822l-.35-1.782c-.053-.267-.288-.461-.561-.461h-1.719v-10.291h.153c.315 0 .571-.256.571-.571v-2.106c0-.316-.256-.571-.571-.571h-17.861c-.315 0-.571.255-.571.571v2.106c0 .315.256.571.571.571h.153v3.248h-.58c-.316 0-.572.256-.572.572 0 .315.256.571.572.571h.58v5.9h-1.719c-.273 0-.508.194-.561.461l-.35 1.782c-.033.167.011.341.119.473.109.132.271.208.441.208h.661c.163 2.935 1.572 5.543 3.705 7.303l-.573 7.547c-.011.159.043.315.151.432.108.116.26.183.419.183h12.969c.159 0 .311-.067.419-.183.108-.117.163-.273.151-.432l-.573-7.547c2.134-1.76 3.543-4.368 3.705-7.303h.661c.17 0 .333-.076.441-.208.108-.132.152-.306.119-.473zm-10.914 7.742c2.532 0 4.84-1.391 6.024-3.631.148-.279.041-.625-.238-.772-.279-.148-.624-.041-.772.238-.986 1.865-2.907 3.023-5.014 3.023-.315 0-.571.256-.571.571 0 .316.256.571.571.571zm-8.852-22.382h16.718v.964h-16.718v-.964zm1.889 6.497c.184.275.498.457.854.457.567 0 1.028-.462 1.028-1.028 0-.567-.461-1.029-1.028-1.029-.356 0-.67.182-.854.457h-1.166v-3.248h15.271v10.205h-15.271v-5.814h1.166zm-3.557 7.043h20.054l.125.639h-20.305l.126-.639zm15.895 16.103h-11.737l.474-6.237c1.566.979 3.415 1.547 5.395 1.547 1.979 0 3.828-.568 5.394-1.547l.474 6.237zm-5.868-5.833c-4.804 0-8.747-3.758-9.043-8.489h18.085c-.295 4.731-4.238 8.489-9.042 8.489zm-14.389-20.72h-3.593c-1.434 0-2.6 1.167-2.6 2.601s1.166 2.6 2.6 2.6h1.459v2.371c0 .315.255.571.571.571h3.592c.316 0 .571-.256.571-.571v-4.971c0-1.434-1.166-2.601-2.6-2.601zm0 1.143c.804 0 1.458.654 1.458 1.458v4.4h-2.45v-4.4c0-.54-.165-1.042-.448-1.458h1.44zm-4.164.117c.176-.075.369-.117.571-.117.203 0 .396.042.572.117.52.222.887.74.887 1.341s-.367 1.118-.887 1.341c-.176.075-.369.117-.572.117-.202 0-.395-.042-.571-.117-.521-.223-.887-.74-.887-1.341s.366-1.119.887-1.341zm.571 2.006c.243 0 .455-.131.572-.326.059-.099.094-.215.094-.339 0-.124-.035-.24-.094-.34-.117-.194-.329-.326-.572-.326-.242 0-.455.132-.571.326-.059.1-.094.216-.094.34 0 .124.035.24.094.339.116.195.329.326.571.326zm0-1.142c.263 0 .477.214.477.477s-.214.477-.477.477-.477-.214-.477-.477.214-.477.477-.477z" fill="#3A434E" sketch:type="MSShapeGroup"/><path d="M31.984 55.822l-.35-1.782c-.053-.267-.288-.461-.561-.461h-1.719v-10.291h.153c.315 0 .571-.256.571-.571v-2.106c0-.316-.256-.571-.571-.571h-17.861c-.315 0-.571.255-.571.571v2.106c0 .315.256.571.571.571h.153v3.248h-.58c-.316 0-.572.256-.572.572 0 .315.256.571.572.571h.58v5.9h-1.719c-.273 0-.508.194-.561.461l-.35 1.782c-.033.167.011.341.119.473.109.132.271.208.441.208h.661c.163 2.935 1.572 5.543 3.705 7.303l-.573 7.547c-.011.159.043.315.151.432.108.116.26.183.419.183h12.969c.159 0 .311-.067.419-.183.108-.117.163-.273.151-.432l-.573-7.547c2.134-1.76 3.543-4.368 3.705-7.303h.661c.17 0 .333-.076.441-.208.108-.132.152-.306.119-.473zm-10.914 7.742c2.532 0 4.84-1.391 6.024-3.631.148-.279.041-.625-.238-.772-.279-.148-.624-.041-.772.238-.986 1.865-2.907 3.023-5.014 3.023-.315 0-.571.256-.571.571 0 .316.256.571.571.571zm-8.852-22.382h16.718v.964h-16.718v-.964zm1.889 6.497c.184.275.498.457.854.457.567 0 1.028-.462 1.028-1.028 0-.567-.461-1.029-1.028-1.029-.356 0-.67.182-.854.457h-1.166v-3.248h15.271v10.205h-15.271v-5.814h1.166zm-3.557 7.043h20.054l.125.639h-20.305l.126-.639zm15.895 16.103h-11.737l.474-6.237c1.566.979 3.415 1.547 5.395 1.547 1.979 0 3.828-.568 5.394-1.547l.474 6.237zm-5.868-5.833c-4.804 0-8.747-3.758-9.043-8.489h18.085c-.295 4.731-4.238 8.489-9.042 8.489zm-14.389-20.72h-3.593c-1.434 0-2.6 1.167-2.6 2.601s1.166 2.6 2.6 2.6h1.459v2.371c0 .315.255.571.571.571h3.592c.316 0 .571-.256.571-.571v-4.971c0-1.434-1.166-2.601-2.6-2.601zm0 1.143c.804 0 1.458.654 1.458 1.458v4.4h-2.45v-4.4c0-.54-.165-1.042-.448-1.458h1.44zm-4.164.117c.176-.075.369-.117.571-.117.203 0 .396.042.572.117.52.222.887.74.887 1.341s-.367 1.118-.887 1.341c-.176.075-.369.117-.572.117-.202 0-.395-.042-.571-.117-.521-.223-.887-.74-.887-1.341s.366-1.119.887-1.341zm.571 2.006c.243 0 .455-.131.572-.326.059-.099.094-.215.094-.339 0-.124-.035-.24-.094-.34-.117-.194-.329-.326-.572-.326-.242 0-.455.132-.571.326-.059.1-.094.216-.094.34 0 .124.035.24.094.339.116.195.329.326.571.326zm0-1.142c.263 0 .477.214.477.477s-.214.477-.477.477-.477-.214-.477-.477.214-.477.477-.477z" fill="#67737B" sketch:type="MSShapeGroup"/><path d="M31.984 95.822l-.35-1.782c-.053-.267-.288-.461-.561-.461h-1.719v-10.291h.153c.315 0 .571-.256.571-.571v-2.106c0-.316-.256-.571-.571-.571h-17.861c-.315 0-.571.255-.571.571v2.106c0 .315.256.571.571.571h.153v3.248h-.58c-.316 0-.572.256-.572.572 0 .315.256.571.572.571h.58v5.9h-1.719c-.273 0-.508.194-.561.461l-.35 1.782c-.033.167.011.341.119.473.109.132.271.208.441.208h.661c.163 2.935 1.572 5.543 3.705 7.303l-.573 7.547c-.011.159.043.315.151.432.108.116.26.183.419.183h12.969c.159 0 .311-.067.419-.183.108-.117.163-.273.151-.432l-.573-7.547c2.134-1.76 3.543-4.368 3.705-7.303h.661c.17 0 .333-.076.441-.208.108-.132.152-.306.119-.473zm-10.914 7.742c2.532 0 4.84-1.391 6.024-3.631.148-.279.041-.625-.238-.772-.279-.148-.624-.041-.772.238-.986 1.865-2.907 3.023-5.014 3.023-.315 0-.571.256-.571.571 0 .316.256.571.571.571zm-8.852-22.382h16.718v.964h-16.718v-.964zm1.889 6.497c.184.275.498.457.854.457.567 0 1.028-.462 1.028-1.028 0-.567-.461-1.029-1.028-1.029-.356 0-.67.182-.854.457h-1.166v-3.248h15.271v10.205h-15.271v-5.814h1.166zm-3.557 7.043h20.054l.125.639h-20.305l.126-.639zm15.895 16.103h-11.737l.474-6.237c1.566.979 3.415 1.547 5.395 1.547 1.979 0 3.828-.568 5.394-1.547l.474 6.237zm-5.868-5.833c-4.804 0-8.747-3.758-9.043-8.489h18.085c-.295 4.731-4.238 8.489-9.042 8.489zm-14.389-20.72h-3.593c-1.434 0-2.6 1.167-2.6 2.601s1.166 2.6 2.6 2.6h1.459v2.371c0 .315.255.571.571.571h3.592c.316 0 .571-.256.571-.571v-4.971c0-1.434-1.166-2.601-2.6-2.601zm0 1.143c.804 0 1.458.654 1.458 1.458v4.4h-2.45v-4.4c0-.54-.165-1.042-.448-1.458h1.44zm-4.164.117c.176-.075.369-.117.571-.117.203 0 .396.042.572.117.52.222.887.74.887 1.341s-.367 1.118-.887 1.341c-.176.075-.369.117-.572.117-.202 0-.395-.042-.571-.117-.521-.223-.887-.74-.887-1.341s.366-1.119.887-1.341zm.571 2.006c.243 0 .455-.131.572-.326.059-.099.094-.215.094-.339 0-.124-.035-.24-.094-.34-.117-.194-.329-.326-.572-.326-.242 0-.455.132-.571.326-.059.1-.094.216-.094.34 0 .124.035.24.094.339.116.195.329.326.571.326zm0-1.142c.263 0 .477.214.477.477s-.214.477-.477.477-.477-.214-.477-.477.214-.477.477-.477z" fill="#fff" sketch:type="MSShapeGroup"/><path d="M31.984 135.822l-.35-1.782c-.053-.267-.288-.461-.561-.461h-1.719v-10.291h.153c.315 0 .571-.256.571-.571v-2.106c0-.316-.256-.571-.571-.571h-17.861c-.315 0-.571.255-.571.571v2.106c0 .315.256.571.571.571h.153v3.248h-.58c-.316 0-.572.256-.572.572 0 .315.256.571.572.571h.58v5.9h-1.719c-.273 0-.508.194-.561.461l-.35 1.782c-.033.167.011.341.119.473.109.132.271.208.441.208h.661c.163 2.935 1.572 5.543 3.705 7.303l-.573 7.547c-.011.159.043.315.151.432.108.116.26.183.419.183h12.969c.159 0 .311-.067.419-.183.108-.117.163-.273.151-.432l-.573-7.547c2.134-1.76 3.543-4.368 3.705-7.303h.661c.17 0 .333-.076.441-.208.108-.132.152-.306.119-.473zm-10.914 7.742c2.532 0 4.84-1.391 6.024-3.631.148-.279.041-.625-.238-.772-.279-.148-.624-.041-.772.238-.986 1.865-2.907 3.023-5.014 3.023-.315 0-.571.256-.571.571 0 .316.256.571.571.571zm-8.852-22.382h16.718v.964h-16.718v-.964zm1.889 6.497c.184.275.498.457.854.457.567 0 1.028-.462 1.028-1.028 0-.567-.461-1.029-1.028-1.029-.356 0-.67.182-.854.457h-1.166v-3.248h15.271v10.205h-15.271v-5.814h1.166zm-3.557 7.043h20.054l.125.639h-20.305l.126-.639zm15.895 16.103h-11.737l.474-6.237c1.566.979 3.415 1.547 5.395 1.547 1.979 0 3.828-.568 5.394-1.547l.474 6.237zm-5.868-5.833c-4.804 0-8.747-3.758-9.043-8.489h18.085c-.295 4.731-4.238 8.489-9.042 8.489zm-14.389-20.72h-3.593c-1.434 0-2.6 1.167-2.6 2.601s1.166 2.6 2.6 2.6h1.459v2.371c0 .315.255.571.571.571h3.592c.316 0 .571-.256.571-.571v-4.971c0-1.434-1.166-2.601-2.6-2.601zm0 1.143c.804 0 1.458.654 1.458 1.458v4.4h-2.45v-4.4c0-.54-.165-1.042-.448-1.458h1.44zm-4.164.117c.176-.075.369-.117.571-.117.203 0 .396.042.572.117.52.222.887.74.887 1.341s-.367 1.118-.887 1.341c-.176.075-.369.117-.572.117-.202 0-.395-.042-.571-.117-.521-.223-.887-.74-.887-1.341s.366-1.119.887-1.341zm.571 2.006c.243 0 .455-.131.572-.326.059-.099.094-.215.094-.339 0-.124-.035-.24-.094-.34-.117-.194-.329-.326-.572-.326-.242 0-.455.132-.571.326-.059.1-.094.216-.094.34 0 .124.035.24.094.339.116.195.329.326.571.326zm0-1.142c.263 0 .477.214.477.477s-.214.477-.477.477-.477-.214-.477-.477.214-.477.477-.477z" fill="#206FAC" sketch:type="MSShapeGroup"/></g></svg>