<svg width="32" height="232" viewBox="0 0 32 232" xmlns="http://www.w3.org/2000/svg"><desc>Created with Sketch.</desc><g fill="none"><path d="M27.987 29.22l-3.725-3.665 3.047-.392.02-.005.04-.01.072-.022.028-.012.078-.042.02-.012.076-.065.005-.004c.1-.1.16-.24.16-.39v-3.254c0-.16-.065-.302-.172-.405l-.83-17.614c-.01-.224-.156-.42-.37-.503-.06-.023-1.47-.562-3.676-1.056V1.76c0-.315-.26-.57-.58-.57H9.422c-.32 0-.58.256-.58.57v.014c-2.206.493-3.614 1.027-3.677 1.05-.214.082-.358.28-.37.504l-.83 17.614c-.106.105-.174.25-.174.407v3.25c0 .15.06.286.16.39l.006.004.006.006.077.063.015.01.08.044.02.01.087.026.02.006h.01l2.96.507L3.62 29.22c-.227.222-.226.582 0 .803.11.11.26.165.41.165.147 0 .296-.056.41-.17l1.4-1.376h19.924l1.4 1.377c.113.113.262.17.41.17.15 0 .297-.056.41-.166.228-.22.23-.58.002-.804zM5.765 7.433h1.42L7.03 14.74c-.003.2.1.386.275.492.17.104 4.052 2.442 7.934 2.665l-.007 2.877h-10.1l.63-13.343zm17.493 0l.148 6.998c-.986.56-4.418 2.35-7.586 2.35-3.17 0-6.627-1.792-7.62-2.35l.15-6.994h14.908zM4.982 24.03l.1-2.118h10.153l-.003 2.12H4.982zm11.414-2.118h10.128l.1 2.12h-10.23l.002-2.12zm10.074-1.136H16.397L16.4 17.9c3.882-.223 7.732-2.563 7.903-2.667.172-.107.276-.294.27-.493l-.154-7.306h1.42l.63 13.343zm-6.517 4.392l-4.148.817-4.762-.817h8.91zm-9.95-22.842h11.6v2.05h-11.6v-2.05zm-1.16.614v2.006c0 .314.26.568.58.568h12.76c.32 0 .582-.255.582-.568V2.934c1.368.318 2.396.648 2.903.822l.12 2.542H5.818l.12-2.54c.506-.173 1.536-.5 2.903-.818zm-1.85 24.57l1.63-1.603 7.088 1.216.1.01.118-.013 6.906-1.36 1.78 1.75H6.994zm18.195-5.134h-2.67c-.32 0-.58.254-.58.568 0 .314.258.568.58.568h2.67c.32 0 .58-.255.58-.568 0-.314-.26-.568-.58-.568zm-16.104 0h-2.67c-.32 0-.58.254-.58.568 0 .314.26.568.58.568h2.67c.32 0 .58-.255.58-.568 0-.314-.26-.568-.58-.568zm12.795-4.02c0 .87.72 1.577 1.61 1.577.885 0 1.61-.707 1.61-1.576 0-.87-.725-1.576-1.61-1.576-.89 0-1.61.71-1.61 1.58zm2.06 0c0 .243-.205.44-.45.44-.25 0-.45-.197-.45-.44s.2-.44.45-.44c.245 0 .45.2.45.44zM8.11 16.782c-.888 0-1.61.708-1.61 1.577 0 .87.722 1.573 1.61 1.573.887 0 1.61-.707 1.61-1.576 0-.87-.723-1.577-1.61-1.577zm0 2.016c-.248 0-.45-.198-.45-.44s.202-.44.45-.44c.247 0 .448.198.448.44s-.2.44-.446.44z" fill="#3A434E"/><path d="M27.987 69.22l-3.725-3.665 3.047-.392.02-.005.04-.01.072-.022.028-.012.078-.042.02-.012.076-.065.005-.004c.1-.1.16-.24.16-.39v-3.254c0-.16-.065-.302-.172-.405l-.83-17.614c-.01-.224-.156-.42-.37-.503-.06-.023-1.47-.562-3.676-1.056v-.008c0-.315-.26-.57-.58-.57H9.422c-.32 0-.58.256-.58.57v.013c-2.206.492-3.614 1.026-3.677 1.05-.214.08-.358.278-.37.503l-.83 17.614c-.106.1-.174.245-.174.403V64.6c0 .15.06.284.16.387l.006.005.006.005.077.063.015.01.08.044.02.01.087.026.02.006.01.003 2.96.504-3.613 3.553c-.227.222-.226.582 0 .803.11.11.26.167.41.167.147 0 .296-.056.41-.17l1.4-1.376h19.924l1.4 1.38c.113.11.262.168.41.168.15 0 .297-.055.41-.165.228-.22.23-.58.002-.803zM5.765 47.433h1.42L7.03 54.74c-.003.2.1.386.275.492.17.104 4.052 2.442 7.934 2.665l-.007 2.877h-10.1l.63-13.343zm17.493 0l.148 6.998c-.986.56-4.418 2.35-7.586 2.35-3.17 0-6.627-1.792-7.62-2.35l.15-6.994h14.908zM4.982 64.03l.1-2.118h10.153l-.003 2.12H4.982zm11.414-2.118h10.128l.1 2.12h-10.23l.002-2.12zm10.074-1.136H16.397L16.4 57.9c3.882-.223 7.732-2.563 7.903-2.667.172-.107.276-.294.27-.493l-.154-7.306h1.42l.63 13.343zm-6.517 4.392l-4.148.817-4.762-.817h8.91zm-9.95-22.842h11.6v2.05h-11.6v-2.05zm-1.16.614v2.006c0 .314.26.568.58.568h12.76c.32 0 .582-.255.582-.568v-2.012c1.368.318 2.396.648 2.903.822l.12 2.542H5.818l.12-2.54c.506-.173 1.536-.5 2.903-.818zm-1.85 24.57l1.63-1.603 7.088 1.216.1.01.118-.013 6.906-1.36 1.78 1.75H6.994zm18.195-5.134h-2.67c-.32 0-.58.254-.58.568 0 .314.258.568.58.568h2.67c.32 0 .58-.255.58-.568 0-.314-.26-.568-.58-.568zm-16.104 0h-2.67c-.32 0-.58.254-.58.568 0 .314.26.568.58.568h2.67c.32 0 .58-.255.58-.568 0-.314-.26-.568-.58-.568zm12.795-4.02c0 .87.72 1.577 1.61 1.577.885 0 1.61-.707 1.61-1.576 0-.87-.725-1.576-1.61-1.576-.89 0-1.61.71-1.61 1.58zm2.06 0c0 .243-.205.44-.45.44-.25 0-.45-.197-.45-.44s.2-.44.45-.44c.245 0 .45.2.45.44zM8.11 56.782c-.888 0-1.61.708-1.61 1.577 0 .87.722 1.573 1.61 1.573.887 0 1.61-.707 1.61-1.576 0-.87-.723-1.577-1.61-1.577zm0 2.017c-.248 0-.45-.2-.45-.44s.202-.44.45-.44c.247 0 .448.195.448.44s-.2.44-.446.44z" fill="#67737B"/><path d="M27.987 109.22l-3.725-3.665 3.047-.392.02-.005.04-.01.072-.022.028-.012.078-.042.02-.012.076-.065.005-.004c.1-.1.16-.24.16-.39v-3.254c0-.16-.065-.302-.172-.405l-.83-17.614c-.01-.224-.156-.42-.37-.503-.06-.023-1.47-.562-3.676-1.056v-.008c0-.315-.26-.57-.58-.57H9.422c-.32 0-.58.256-.58.57v.013c-2.206.492-3.614 1.026-3.677 1.05-.214.08-.358.278-.37.503l-.83 17.614c-.106.1-.174.244-.174.403v3.255c0 .15.06.284.16.387l.006.005.006.005.077.063.015.01.08.044.02.01.087.026.02.006.01.003 2.96.506-3.613 3.553c-.227.222-.226.582 0 .803.11.11.26.164.41.164.147 0 .296-.056.41-.17l1.4-1.376h19.924l1.4 1.377c.113.112.262.168.41.168.15 0 .297-.055.41-.165.228-.22.23-.58.002-.803zM5.765 87.433h1.42L7.03 94.74c-.003.2.1.386.275.492.17.104 4.052 2.442 7.934 2.665l-.007 2.877h-10.1l.63-13.343zm17.493 0l.148 6.998c-.986.56-4.418 2.35-7.586 2.35-3.17 0-6.627-1.792-7.62-2.35l.15-6.994h14.908zM4.982 104.03l.1-2.118h10.153l-.003 2.12H4.982zm11.414-2.118h10.128l.1 2.12h-10.23l.002-2.12zm10.074-1.136H16.397L16.4 97.9c3.882-.223 7.732-2.563 7.903-2.667.172-.107.276-.294.27-.493l-.154-7.306h1.42l.63 13.343zm-6.517 4.392l-4.148.817-4.762-.817h8.91zm-9.95-22.842h11.6v2.05h-11.6v-2.05zm-1.16.614v2.006c0 .314.26.568.58.568h12.76c.32 0 .582-.255.582-.568v-2.012c1.368.318 2.396.648 2.903.822l.12 2.542H5.818l.12-2.54c.506-.173 1.536-.5 2.903-.818zm-1.848 24.57l1.63-1.603 7.087 1.216.1.01.115-.013 6.906-1.36 1.78 1.75H6.995zm18.194-5.134h-2.67c-.32 0-.58.254-.58.568 0 .314.255.568.58.568h2.67c.32 0 .58-.255.58-.568 0-.314-.26-.568-.58-.568zm-16.107 0h-2.67c-.32 0-.58.254-.58.568 0 .314.26.568.58.568h2.67c.32 0 .58-.255.58-.568 0-.314-.26-.568-.58-.568zm12.795-4.02c0 .87.722 1.577 1.61 1.577.887 0 1.61-.707 1.61-1.576 0-.87-.723-1.576-1.61-1.576-.888 0-1.61.71-1.61 1.58zm2.06 0c0 .243-.203.44-.45.44-.248 0-.45-.197-.45-.44s.2-.44.45-.44c.247 0 .45.2.45.44zM8.112 96.782c-.888 0-1.61.708-1.61 1.577 0 .87.722 1.573 1.61 1.573.887 0 1.61-.707 1.61-1.576 0-.87-.723-1.577-1.61-1.577zm0 2.016c-.248 0-.45-.198-.45-.44s.202-.44.45-.44c.247 0 .448.198.448.44s-.2.44-.445.44z" fill="#fff"/><path d="M27.987 149.22l-3.725-3.665 3.047-.392.02-.005.04-.01.072-.022.028-.012.078-.042.02-.012.076-.065.005-.004c.1-.1.16-.24.16-.39v-3.254c0-.16-.065-.302-.172-.405l-.83-17.614c-.01-.224-.156-.42-.37-.503-.06-.023-1.47-.562-3.676-1.056v-.008c0-.315-.26-.57-.58-.57H9.422c-.32 0-.58.256-.58.57v.013c-2.206.492-3.614 1.026-3.677 1.05-.214.08-.358.278-.37.503l-.83 17.614c-.106.1-.174.244-.174.403v3.255c0 .15.06.284.16.387l.006.005.006.005.077.063.015.01.08.044.02.01.087.026.02.006.01.003 2.96.506-3.613 3.553c-.227.222-.226.582 0 .803.11.11.26.164.41.164.147 0 .296-.056.41-.17l1.4-1.376h19.924l1.4 1.377c.113.112.262.168.41.168.15 0 .297-.055.41-.165.228-.22.23-.58.002-.803zM5.765 127.433h1.42l-.154 7.306c0 .2.1.384.277.49.17.104 4.052 2.442 7.934 2.665l-.004 2.877h-10.1l.63-13.343zm17.493 0l.148 6.998c-.986.56-4.418 2.35-7.586 2.35-3.17 0-6.627-1.792-7.62-2.35l.15-6.994h14.908zM4.982 144.03l.1-2.118h10.153l-.003 2.12H4.982zm11.414-2.118h10.128l.1 2.12h-10.23l.002-2.12zm10.074-1.136H16.397l.004-2.877c3.885-.226 7.735-2.566 7.906-2.67.172-.107.276-.294.27-.493l-.154-7.307h1.42l.63 13.344zm-6.517 4.392l-4.148.817-4.762-.817h8.91zm-9.95-22.842h11.6v2.05h-11.6v-2.05zm-1.16.614v2.006c0 .314.26.568.58.568h12.76c.32 0 .582-.255.582-.568v-2.012c1.368.318 2.396.648 2.903.822l.12 2.542H5.818l.12-2.54c.506-.173 1.536-.5 2.903-.818zm-1.848 24.57l1.63-1.603 7.087 1.216.1.01.115-.013 6.906-1.36 1.78 1.75H6.995zm18.194-5.134h-2.67c-.32 0-.58.254-.58.568 0 .314.255.568.58.568h2.67c.32 0 .58-.255.58-.568 0-.314-.26-.568-.58-.568zm-16.107 0h-2.67c-.32 0-.58.254-.58.568 0 .314.26.568.58.568h2.67c.32 0 .58-.255.58-.568 0-.314-.26-.568-.58-.568zm12.795-4.02c0 .87.722 1.577 1.61 1.577.887 0 1.61-.707 1.61-1.576 0-.87-.723-1.576-1.61-1.576-.888 0-1.61.71-1.61 1.58zm2.06 0c0 .243-.203.44-.45.44-.248 0-.45-.197-.45-.44s.2-.44.45-.44c.247 0 .45.2.45.44zM8.112 136.78c-.888 0-1.61.71-1.61 1.578 0 .87.722 1.576 1.61 1.576.887 0 1.61-.707 1.61-1.576 0-.87-.723-1.576-1.61-1.576zm0 2.018c-.248 0-.45-.198-.45-.44s.202-.44.45-.44c.247 0 .448.198.448.44s-.2.44-.445.44z" fill="#206FAC"/></g></svg>