<svg width="32" height="232" viewBox="0 0 32 232" xmlns="http://www.w3.org/2000/svg"><title>tram</title><desc>Created with Sketch.</desc><g fill="none"><path d="M27.987 29.22l-3.725-3.665 3.047-.392.022-.005.04-.01.073-.022.028-.012.077-.042.02-.012.077-.065.005-.004h.002c.1-.103.16-.24.16-.392v-3.255c0-.16-.066-.302-.173-.405l-.83-17.614c-.01-.224-.155-.42-.368-.503-.062-.023-1.47-.562-3.677-1.056v-.008c0-.314-.26-.568-.58-.568H9.422c-.32 0-.58.255-.58.568v.015c-2.206.493-3.614 1.027-3.677 1.05-.214.082-.358.28-.37.504l-.83 17.614c-.106.103-.174.247-.174.405v3.255c0 .15.06.285.16.388l.003.005.006.006.076.063.016.01.08.044.02.01.087.026.022.006.01.003 2.958.507-3.612 3.553c-.226.223-.225.583.002.804.113.11.26.165.41.165.148 0 .297-.056.41-.17l1.4-1.376h19.925l1.4 1.377c.113.113.262.17.41.17.15 0 .297-.056.41-.166.228-.22.23-.58.002-.804zM5.765 7.433h1.42l-.154 7.306c-.004.2.1.387.274.493.17.104 4.052 2.442 7.934 2.665l-.004 2.877h-10.1l.63-13.343zm17.493 0l.148 6.998c-.986.557-4.418 2.35-7.586 2.35-3.17 0-6.627-1.795-7.62-2.35l.15-6.997h14.908zM4.982 24.03l.1-2.118h10.153l-.003 2.12H4.982zm11.414-2.118h10.128l.1 2.12h-10.23l.002-2.12zm10.074-1.136H16.397L16.4 17.9c3.882-.223 7.732-2.563 7.903-2.667.172-.107.276-.294.27-.493l-.154-7.306h1.42l.63 13.343zm-6.517 4.392l-4.148.817-4.762-.817h8.91zm-9.95-22.842h11.6v2.05h-11.6v-2.05zm-1.16.614v2.006c0 .314.26.568.58.568h12.76c.32 0 .582-.255.582-.568V2.934c1.368.318 2.396.648 2.903.822l.12 2.542H5.817l.12-2.54c.507-.173 1.537-.5 2.904-.818zM6.994 27.51l1.63-1.603 7.087 1.216.1.01.115-.013 6.906-1.36 1.78 1.75H6.995zm18.194-5.134h-2.67c-.32 0-.58.254-.58.568 0 .314.258.568.58.568h2.67c.32 0 .58-.255.58-.568 0-.314-.26-.568-.58-.568zm-16.104 0h-2.67c-.32 0-.58.254-.58.568 0 .314.26.568.58.568h2.67c.32 0 .58-.255.58-.568 0-.314-.26-.568-.58-.568zm12.795-4.02c0 .87.723 1.577 1.61 1.577.888 0 1.61-.707 1.61-1.576 0-.87-.722-1.576-1.61-1.576-.887 0-1.61.708-1.61 1.577zm2.06 0c0 .243-.202.44-.45.44-.247 0-.448-.197-.448-.44s.2-.44.45-.44c.246 0 .448.2.448.44zM8.113 16.782c-.888 0-1.61.708-1.61 1.577 0 .87.722 1.576 1.61 1.576.887 0 1.61-.707 1.61-1.576 0-.87-.723-1.576-1.61-1.576zm0 2.016c-.248 0-.45-.198-.45-.44s.202-.44.45-.44c.247 0 .448.198.448.44s-.2.44-.447.44z" fill="#3A434E"/><path d="M27.987 69.22l-3.725-3.665 3.047-.392.022-.005.04-.01.073-.022.028-.012.077-.042.02-.012.077-.065.005-.004h.002c.1-.103.16-.24.16-.392v-3.255c0-.16-.066-.302-.173-.405l-.83-17.614c-.01-.224-.155-.42-.368-.503-.062-.023-1.47-.562-3.677-1.056v-.008c0-.314-.26-.568-.58-.568H9.422c-.32 0-.58.255-.58.568v.014c-2.206.492-3.614 1.026-3.677 1.05-.214.08-.358.278-.37.503l-.83 17.614c-.106.103-.174.247-.174.405v3.255c0 .15.06.285.16.388l.003.005.006.005.076.063.016.01.08.044.02.01.087.026.022.006.01.003 2.958.507-3.612 3.553c-.226.223-.225.583.002.804.113.11.26.166.41.166.148 0 .297-.055.41-.168l1.4-1.377h19.925l1.4 1.378c.113.112.262.168.41.168.15 0 .297-.055.41-.165.228-.22.23-.58.002-.803zM5.765 47.433h1.42l-.154 7.306c-.004.2.1.387.274.493.17.104 4.052 2.442 7.934 2.665l-.004 2.877h-10.1l.63-13.343zm17.493 0l.148 6.998c-.986.557-4.418 2.35-7.586 2.35-3.17 0-6.627-1.795-7.62-2.35l.15-6.997h14.908zM4.982 64.03l.1-2.118h10.153l-.003 2.12H4.982zm11.414-2.118h10.128l.1 2.12h-10.23l.002-2.12zm10.074-1.136H16.397L16.4 57.9c3.882-.223 7.732-2.563 7.903-2.667.172-.107.276-.294.27-.493l-.154-7.306h1.42l.63 13.343zm-6.517 4.392l-4.148.817-4.762-.817h8.91zm-9.95-22.842h11.6v2.05h-11.6v-2.05zm-1.16.614v2.006c0 .314.26.568.58.568h12.76c.32 0 .582-.255.582-.568v-2.012c1.368.318 2.396.648 2.903.822l.12 2.542H5.817l.12-2.54c.507-.173 1.537-.5 2.904-.818zM6.994 67.51l1.63-1.603 7.087 1.216.1.01.115-.013 6.906-1.36 1.78 1.75H6.995zm18.194-5.134h-2.67c-.32 0-.58.254-.58.568 0 .314.258.568.58.568h2.67c.32 0 .58-.255.58-.568 0-.314-.26-.568-.58-.568zm-16.104 0h-2.67c-.32 0-.58.254-.58.568 0 .314.26.568.58.568h2.67c.32 0 .58-.255.58-.568 0-.314-.26-.568-.58-.568zm12.795-4.02c0 .87.723 1.577 1.61 1.577.888 0 1.61-.707 1.61-1.576 0-.87-.722-1.576-1.61-1.576-.887 0-1.61.708-1.61 1.577zm2.06 0c0 .243-.202.44-.45.44-.247 0-.448-.197-.448-.44s.2-.44.45-.44c.246 0 .448.2.448.44zM8.113 56.782c-.888 0-1.61.708-1.61 1.577 0 .87.722 1.576 1.61 1.576.887 0 1.61-.707 1.61-1.576 0-.87-.723-1.576-1.61-1.576zm0 2.017c-.248 0-.45-.198-.45-.44s.202-.44.45-.44c.247 0 .448.198.448.44s-.2.44-.447.44z" fill="#67737B"/><path d="M27.987 109.22l-3.725-3.665 3.047-.392.022-.005.04-.01.073-.022.028-.012.077-.042.02-.012.077-.065.005-.004h.002c.1-.103.16-.24.16-.392v-3.255c0-.16-.066-.302-.173-.405l-.83-17.614c-.01-.224-.155-.42-.368-.503-.062-.023-1.47-.562-3.677-1.056v-.008c0-.314-.26-.568-.58-.568H9.422c-.32 0-.58.255-.58.568v.014c-2.206.492-3.614 1.026-3.677 1.05-.214.08-.358.278-.37.503l-.83 17.614c-.106.103-.174.246-.174.405v3.255c0 .15.06.285.16.388l.003.005.006.005.076.063.016.01.08.044.02.01.087.026.022.006.01.003 2.958.507-3.612 3.553c-.226.223-.225.583.002.804.113.11.26.166.41.166.148 0 .297-.055.41-.168l1.4-1.377h19.925l1.4 1.378c.113.112.262.168.41.168.15 0 .297-.055.41-.165.228-.22.23-.58.002-.803zM5.765 87.433h1.42l-.154 7.306c-.004.2.1.387.274.493.17.104 4.052 2.442 7.934 2.665l-.004 2.877h-10.1l.63-13.343zm17.493 0l.148 6.998c-.986.557-4.418 2.35-7.586 2.35-3.17 0-6.627-1.795-7.62-2.35l.15-6.997h14.908zM4.982 104.03l.1-2.118h10.153l-.003 2.12H4.982zm11.414-2.118h10.128l.1 2.12h-10.23l.002-2.12zm10.074-1.136H16.397L16.4 97.9c3.882-.223 7.732-2.563 7.903-2.667.172-.107.276-.294.27-.493l-.154-7.306h1.42l.63 13.343zm-6.517 4.392l-4.148.817-4.762-.817h8.91zm-9.95-22.842h11.6v2.05h-11.6v-2.05zm-1.16.614v2.006c0 .314.26.568.58.568h12.76c.32 0 .582-.255.582-.568v-2.012c1.368.318 2.396.648 2.903.822l.12 2.542H5.817l.12-2.54c.507-.173 1.537-.5 2.904-.818zm-1.848 24.57l1.63-1.603 7.087 1.216.1.01.115-.013 6.906-1.36 1.78 1.75H6.995zm18.194-5.134h-2.67c-.32 0-.58.254-.58.568 0 .314.258.568.58.568h2.67c.32 0 .58-.255.58-.568 0-.314-.26-.568-.58-.568zm-16.104 0h-2.67c-.32 0-.58.254-.58.568 0 .314.26.568.58.568h2.67c.32 0 .58-.255.58-.568 0-.314-.26-.568-.58-.568zm12.795-4.02c0 .87.723 1.577 1.61 1.577.888 0 1.61-.707 1.61-1.576 0-.87-.722-1.576-1.61-1.576-.887 0-1.61.708-1.61 1.577zm2.06 0c0 .243-.202.44-.45.44-.247 0-.448-.197-.448-.44s.2-.44.45-.44c.246 0 .448.2.448.44zM8.113 96.782c-.888 0-1.61.708-1.61 1.577 0 .87.722 1.576 1.61 1.576.887 0 1.61-.707 1.61-1.576 0-.87-.723-1.576-1.61-1.576zm0 2.016c-.248 0-.45-.198-.45-.44s.202-.44.45-.44c.247 0 .448.198.448.44s-.2.44-.447.44z" fill="#fff"/><path d="M27.987 149.22l-3.725-3.665 3.047-.392.022-.005.04-.01.073-.022.028-.012.077-.042.02-.012.077-.065.005-.004h.002c.1-.103.16-.24.16-.392v-3.255c0-.16-.066-.302-.173-.405l-.83-17.614c-.01-.224-.155-.42-.368-.503-.062-.023-1.47-.562-3.677-1.056v-.008c0-.314-.26-.568-.58-.568H9.422c-.32 0-.58.255-.58.568v.014c-2.206.492-3.614 1.026-3.677 1.05-.214.08-.358.278-.37.503l-.83 17.614c-.106.103-.174.246-.174.405v3.255c0 .15.06.285.16.388l.003.005.006.005.076.063.016.01.08.044.02.01.087.026.022.006.01.003 2.958.507-3.612 3.553c-.226.223-.225.583.002.804.113.11.26.166.41.166.148 0 .297-.055.41-.168l1.4-1.377h19.925l1.4 1.378c.113.112.262.168.41.168.15 0 .297-.055.41-.165.228-.22.23-.58.002-.803zM5.765 127.433h1.42l-.154 7.306c-.004.2.1.387.274.493.17.104 4.052 2.442 7.934 2.665l-.004 2.877h-10.1l.63-13.343zm17.493 0l.148 6.998c-.986.557-4.418 2.35-7.586 2.35-3.17 0-6.627-1.795-7.62-2.35l.15-6.997h14.908zM4.982 144.03l.1-2.118h10.153l-.003 2.12H4.982zm11.414-2.118h10.128l.1 2.12h-10.23l.002-2.12zm10.074-1.136H16.397l.004-2.877c3.882-.223 7.732-2.563 7.903-2.667.172-.107.276-.294.27-.493l-.154-7.306h1.42l.63 13.343zm-6.517 4.392l-4.148.817-4.762-.817h8.91zm-9.95-22.842h11.6v2.05h-11.6v-2.05zm-1.16.614v2.006c0 .314.26.568.58.568h12.76c.32 0 .582-.255.582-.568v-2.012c1.368.318 2.396.648 2.903.822l.12 2.542H5.817l.12-2.54c.507-.173 1.537-.5 2.904-.818zm-1.848 24.57l1.63-1.603 7.087 1.216.1.01.115-.013 6.906-1.36 1.78 1.75H6.995zm18.194-5.134h-2.67c-.32 0-.58.254-.58.568 0 .314.258.568.58.568h2.67c.32 0 .58-.255.58-.568 0-.314-.26-.568-.58-.568zm-16.104 0h-2.67c-.32 0-.58.254-.58.568 0 .314.26.568.58.568h2.67c.32 0 .58-.255.58-.568 0-.314-.26-.568-.58-.568zm12.795-4.02c0 .87.723 1.577 1.61 1.577.888 0 1.61-.707 1.61-1.576 0-.87-.722-1.576-1.61-1.576-.887 0-1.61.708-1.61 1.577zm2.06 0c0 .243-.202.44-.45.44-.247 0-.448-.197-.448-.44s.2-.44.45-.44c.246 0 .448.2.448.44zm-15.827-1.575c-.888 0-1.61.708-1.61 1.577 0 .87.722 1.576 1.61 1.576.887 0 1.61-.707 1.61-1.576 0-.87-.723-1.576-1.61-1.576zm0 2.017c-.248 0-.45-.198-.45-.44s.202-.44.45-.44c.247 0 .448.198.448.44s-.2.44-.447.44z" fill="#206FAC"/></g></svg>