<svg width="32" height="232" viewBox="0 0 32 232" xmlns="http://www.w3.org/2000/svg" xmlns:sketch="http://www.bohemiancoding.com/sketch/ns"><title>visa</title><desc>Created with Sketch.</desc><g sketch:type="MSPage" fill="none"><path d="M31.445 8.678h-1.522v-3.921c0-.167-.075-.325-.205-.43-.129-.106-.299-.147-.463-.113l-13.937 2.882c-2.025-1.996-4.703-3.096-7.55-3.096-2.873 0-5.574 1.119-7.605 3.151-.104.104-.163.245-.163.392v19.409l.01.1.007.03.021.067.011.029.045.083.006.008.056.067.021.02.053.044.025.018.071.039.016.007.001.001.091.028.028.005.077.008.016.001h30.89c.307 0 .555-.248.555-.555v-17.719c0-.307-.248-.555-.555-.555zm-15.908-.493l13.276-2.746v18.078l-13.276 2.745v-18.077zm-14.427-.408c1.803-1.721 4.158-2.666 6.658-2.666 2.483 0 4.821.932 6.618 2.63v17.945c-1.882-1.476-4.188-2.277-6.618-2.277-2.446 0-4.768.812-6.658 2.307v-17.939zm12.372 18.62h-11.434c1.647-1.219 3.633-1.877 5.72-1.877 2.085 0 4.067.66 5.714 1.877zm17.408 0h-10.524l9.114-1.885c.258-.053.443-.28.443-.543v-14.181h.967v16.609zm-18.062-2.627c.078.037.161.056.244.056.102 0 .204-.028.294-.084.162-.102.261-.28.261-.471v-14.889c0-.164-.073-.32-.199-.426-1.58-1.319-3.59-2.046-5.66-2.046-2.069 0-4.079.727-5.659 2.046-.126.106-.199.262-.199.426v14.889c0 .191.098.369.261.471.162.101.365.112.537.028 1.578-.77 3.281-1.16 5.06-1.16 1.78 0 3.483.39 5.06 1.16zm-9.808-15.123c1.362-1.065 2.999-1.627 4.748-1.627 1.75 0 3.386.562 4.749 1.627v13.769c-1.502-.608-3.095-.916-4.749-.916-1.653 0-3.247.308-4.748.916v-13.769zm19.769 9.222c-.13-.105-.301-.146-.465-.111l-5.28 1.116c-.257.055-.44.281-.44.543v4.314c0 .167.075.326.205.431.1.081.224.124.35.124l.115-.012 5.28-1.117c.257-.054.44-.28.44-.543v-4.314c0-.167-.075-.325-.205-.431zm-.905 4.295l-4.17.882v-3.179l4.17-.882v3.179zm2.85-14.682c-.306 0-.555.248-.555.555v14.023c0 .306.249.555.555.555.307 0 .555-.249.555-.555v-14.023c0-.307-.248-.555-.555-.555zm2.13-.496c-.307 0-.555.248-.555.555v14.023c0 .307.248.556.555.556.307 0 .555-.249.555-.556v-14.023c0-.307-.248-.555-.555-.555zm-8.432 10.039c.306 0 .555-.249.555-.555v-6.792c0-.306-.249-.555-.555-.555-.307 0-.556.249-.556.555v6.792c0 .306.249.555.556.555zm2.105-.32c.306 0 .555-.249.555-.555v-6.791c0-.307-.249-.555-.555-.555-.307 0-.555.248-.555.555v6.791c0 .306.248.555.555.555z" fill="#3A434E" sketch:type="MSShapeGroup"/><path d="M31.445 48.678h-1.522v-3.921c0-.167-.075-.325-.205-.43-.129-.106-.299-.147-.463-.113l-13.937 2.882c-2.025-1.996-4.703-3.096-7.55-3.096-2.873 0-5.574 1.119-7.605 3.151-.104.104-.163.245-.163.392v19.409l.01.1.007.03.021.067.011.029.045.083.006.008.056.067.021.02.053.044.025.018.071.039.016.007.001.001.091.028.028.005.077.008.016.001h30.89c.307 0 .555-.248.555-.555v-17.719c0-.307-.248-.555-.555-.555zm-15.908-.493l13.276-2.746v18.078l-13.276 2.745v-18.077zm-14.427-.408c1.803-1.721 4.158-2.666 6.658-2.666 2.483 0 4.821.932 6.618 2.63v17.945c-1.882-1.476-4.188-2.277-6.618-2.277-2.446 0-4.768.812-6.658 2.307v-17.939zm12.372 18.62h-11.434c1.647-1.219 3.633-1.877 5.72-1.877 2.085 0 4.067.66 5.714 1.877zm17.408 0h-10.524l9.114-1.885c.258-.053.443-.28.443-.543v-14.181h.967v16.609zm-18.062-2.627c.078.037.161.056.244.056.102 0 .204-.028.294-.084.162-.102.261-.28.261-.471v-14.889c0-.164-.073-.32-.199-.426-1.58-1.319-3.59-2.046-5.66-2.046-2.069 0-4.079.727-5.659 2.046-.126.106-.199.262-.199.426v14.889c0 .191.098.369.261.471.162.101.365.112.537.028 1.578-.77 3.281-1.16 5.06-1.16 1.78 0 3.483.39 5.06 1.16zm-9.808-15.123c1.362-1.065 2.999-1.627 4.748-1.627 1.75 0 3.386.562 4.749 1.627v13.769c-1.502-.608-3.095-.916-4.749-.916-1.653 0-3.247.308-4.748.916v-13.769zm19.769 9.222c-.13-.105-.301-.146-.465-.111l-5.28 1.116c-.257.055-.44.281-.44.543v4.314c0 .167.075.326.205.431.1.081.224.124.35.124l.115-.012 5.28-1.117c.257-.054.44-.28.44-.543v-4.314c0-.167-.075-.325-.205-.431zm-.905 4.295l-4.17.882v-3.179l4.17-.882v3.179zm2.85-14.682c-.306 0-.555.248-.555.555v14.023c0 .306.249.555.555.555.307 0 .555-.249.555-.555v-14.023c0-.307-.248-.555-.555-.555zm2.13-.496c-.307 0-.555.248-.555.555v14.023c0 .307.248.556.555.556.307 0 .555-.249.555-.556v-14.023c0-.307-.248-.555-.555-.555zm-8.432 10.039c.306 0 .555-.249.555-.555v-6.792c0-.306-.249-.555-.555-.555-.307 0-.556.249-.556.555v6.792c0 .306.249.555.556.555zm2.105-.32c.306 0 .555-.249.555-.555v-6.791c0-.307-.249-.555-.555-.555-.307 0-.555.248-.555.555v6.791c0 .306.248.555.555.555z" fill="#67737B" sketch:type="MSShapeGroup"/><path d="M31.445 88.678h-1.522v-3.921c0-.167-.075-.325-.205-.43-.129-.106-.299-.147-.463-.113l-13.937 2.882c-2.025-1.996-4.703-3.096-7.55-3.096-2.873 0-5.574 1.119-7.605 3.151-.104.104-.163.245-.163.392v19.409l.01.1.007.03.021.067.011.029.045.083.006.008.056.067.021.02.053.044.025.018.071.039.016.007.001.001.091.028.028.005.077.008.016.001h30.89c.307 0 .555-.248.555-.555v-17.719c0-.307-.248-.555-.555-.555zm-15.908-.493l13.276-2.746v18.078l-13.276 2.745v-18.077zm-14.427-.408c1.803-1.721 4.158-2.666 6.658-2.666 2.483 0 4.821.932 6.618 2.63v17.945c-1.882-1.476-4.188-2.277-6.618-2.277-2.446 0-4.768.812-6.658 2.307v-17.939zm12.372 18.62h-11.434c1.647-1.219 3.633-1.877 5.72-1.877 2.085 0 4.067.66 5.714 1.877zm17.408 0h-10.524l9.114-1.885c.258-.053.443-.28.443-.543v-14.181h.967v16.609zm-18.062-2.627c.078.037.161.056.244.056.102 0 .204-.028.294-.084.162-.102.261-.28.261-.471v-14.889c0-.164-.073-.32-.199-.426-1.58-1.319-3.59-2.046-5.66-2.046-2.069 0-4.079.727-5.659 2.046-.126.106-.199.262-.199.426v14.889c0 .191.098.369.261.471.162.101.365.112.537.028 1.578-.77 3.281-1.16 5.06-1.16 1.78 0 3.483.39 5.06 1.16zm-9.808-15.123c1.362-1.065 2.999-1.627 4.748-1.627 1.75 0 3.386.562 4.749 1.627v13.769c-1.502-.608-3.095-.916-4.749-.916-1.653 0-3.247.308-4.748.916v-13.769zm19.769 9.222c-.13-.105-.301-.146-.465-.111l-5.28 1.116c-.257.055-.44.281-.44.543v4.314c0 .167.075.326.205.431.1.081.224.124.35.124l.115-.012 5.28-1.117c.257-.054.44-.28.44-.543v-4.314c0-.167-.075-.325-.205-.431zm-.905 4.295l-4.17.882v-3.179l4.17-.882v3.179zm2.85-14.682c-.306 0-.555.248-.555.555v14.023c0 .306.249.555.555.555.307 0 .555-.249.555-.555v-14.023c0-.307-.248-.555-.555-.555zm2.13-.496c-.307 0-.555.248-.555.555v14.023c0 .307.248.556.555.556.307 0 .555-.249.555-.556v-14.023c0-.307-.248-.555-.555-.555zm-8.432 10.039c.306 0 .555-.249.555-.555v-6.792c0-.306-.249-.555-.555-.555-.307 0-.556.249-.556.555v6.792c0 .306.249.555.556.555zm2.105-.32c.306 0 .555-.249.555-.555v-6.791c0-.307-.249-.555-.555-.555-.307 0-.555.248-.555.555v6.791c0 .306.248.555.555.555z" fill="#fff" sketch:type="MSShapeGroup"/><path d="M31.445 128.678h-1.522v-3.921c0-.167-.075-.325-.205-.43-.129-.106-.299-.147-.463-.113l-13.937 2.882c-2.025-1.996-4.703-3.096-7.55-3.096-2.873 0-5.574 1.119-7.605 3.151-.104.104-.163.245-.163.392v19.409l.01.1.007.03.021.067.011.029.045.083.006.008.056.067.021.02.053.044.025.018.071.039.016.007.001.001.091.028.028.005.077.008.016.001h30.89c.307 0 .555-.248.555-.555v-17.719c0-.307-.248-.555-.555-.555zm-15.908-.493l13.276-2.746v18.078l-13.276 2.745v-18.077zm-14.427-.408c1.803-1.721 4.158-2.666 6.658-2.666 2.483 0 4.821.932 6.618 2.63v17.945c-1.882-1.476-4.188-2.277-6.618-2.277-2.446 0-4.768.812-6.658 2.307v-17.939zm12.372 18.62h-11.434c1.647-1.219 3.633-1.877 5.72-1.877 2.085 0 4.067.66 5.714 1.877zm17.408 0h-10.524l9.114-1.885c.258-.053.443-.28.443-.543v-14.181h.967v16.609zm-18.062-2.627c.078.037.161.056.244.056.102 0 .204-.028.294-.084.162-.102.261-.28.261-.471v-14.889c0-.164-.073-.32-.199-.426-1.58-1.319-3.59-2.046-5.66-2.046-2.069 0-4.079.727-5.659 2.046-.126.106-.199.262-.199.426v14.889c0 .191.098.369.261.471.162.101.365.112.537.028 1.578-.77 3.281-1.16 5.06-1.16 1.78 0 3.483.39 5.06 1.16zm-9.808-15.123c1.362-1.065 2.999-1.627 4.748-1.627 1.75 0 3.386.562 4.749 1.627v13.769c-1.502-.608-3.095-.916-4.749-.916-1.653 0-3.247.308-4.748.916v-13.769zm19.769 9.222c-.13-.105-.301-.146-.465-.111l-5.28 1.116c-.257.055-.44.281-.44.543v4.314c0 .167.075.326.205.431.1.081.224.124.35.124l.115-.012 5.28-1.117c.257-.054.44-.28.44-.543v-4.314c0-.167-.075-.325-.205-.431zm-.905 4.295l-4.17.882v-3.179l4.17-.882v3.179zm2.85-14.682c-.306 0-.555.248-.555.555v14.023c0 .306.249.555.555.555.307 0 .555-.249.555-.555v-14.023c0-.307-.248-.555-.555-.555zm2.13-.496c-.307 0-.555.248-.555.555v14.023c0 .307.248.556.555.556.307 0 .555-.249.555-.556v-14.023c0-.307-.248-.555-.555-.555zm-8.432 10.039c.306 0 .555-.249.555-.555v-6.792c0-.306-.249-.555-.555-.555-.307 0-.556.249-.556.555v6.792c0 .306.249.555.556.555zm2.105-.32c.306 0 .555-.249.555-.555v-6.791c0-.307-.249-.555-.555-.555-.307 0-.555.248-.555.555v6.791c0 .306.248.555.555.555z" fill="#206FAC" sketch:type="MSShapeGroup"/></g></svg>