<svg width="32" height="232" viewBox="0 0 32 232" xmlns="http://www.w3.org/2000/svg"><desc>Created with Sketch.</desc><g fill="none"><path d="M17.567 15.476l5.49-5.49 3.1 3.1c.116.116.27.174.42.174.154 0 .306-.058.422-.174.16-.16.204-.39.143-.593L29.82 9.82c2.06-2.06 2.3-4.264 2.14-5.75-.174-1.597-.835-2.71-.863-2.756L31 1.19l-.113-.086C30.827 1.067 29.364.2 27.37.2c-1.862 0-3.54.734-4.988 2.18l-2.674 2.675c-.203-.06-.432-.014-.593.147-.232.232-.232.61 0 .842l3.1 3.1-5.497 5.497-4.037-3.97-.05-.044-4.69-3.67.066-.064.057-.065 3.553-4.8c.176-.237.15-.567-.057-.776L10.706.4c-.21-.208-.54-.234-.777-.058l-4.8 3.553-.067.057-1.44 1.442-.067.08L2.09 7.568l-1.713.685c-.186.075-.322.238-.362.434-.04.195.02.398.162.54l2.548 2.547c.113.113.265.174.42.174l.12-.01c.197-.04.36-.177.434-.362l.683-1.713L6.48 8.4l.08-.067.222-.224 3.792 4.59.037.04 3.99 4.02-8.184 8.183-3.47-.135c-.168-.007-.327.056-.445.174L.696 26.787c-.232.232-.232.61 0 .842L4.57 31.5c.113.112.264.175.42.175.16 0 .31-.064.423-.176l1.803-1.8c.118-.118.18-.28.174-.447L7.243 25.8l8.194-8.194 12.8 12.902c.112.113.263.176.422.176.155 0 .31-.063.42-.174l1.44-1.44c.11-.113.174-.266.173-.424 0-.16-.064-.31-.178-.423l-12.95-12.747zm3.035-9.63l2.622-2.622c1.216-1.216 2.61-1.833 4.147-1.833 1.35 0 2.42.487 2.78.67.347.68 1.783 3.967-1.17 6.92L26.36 11.6 23.9 9.144 27.24 5.8c.234-.232.234-.61 0-.84-.23-.234-.608-.234-.84 0L23.056 8.3 20.6 5.846zM3.554 8.99c-.095.067-.168.16-.21.267l-.418 1.04-1.272-1.272 1.04-.417c.107-.043.2-.116.266-.21l1.538-2.2 1.374-1.375L10.225 1.6l.126.126L7.13 6.08 5.754 7.453l-2.2 1.537zm1.44 21.25L1.96 27.21l1.196-1.197 2.886.113.016.02.008.006.123 2.895-1.2 1.196zm23.668-.995L11.475 11.92 9.87 9.977l2 1.564 17.385 17.11-.593.598z" fill="#3A434E"/><path d="M17.567 55.476l5.49-5.49 3.1 3.1c.116.116.27.174.42.174.154 0 .306-.058.422-.174.16-.16.204-.39.143-.593l2.673-2.674c2.06-2.06 2.3-4.267 2.14-5.75-.174-1.6-.835-2.71-.863-2.76L31 41.19l-.113-.086c-.06-.037-1.523-.904-3.516-.904-1.86 0-3.54.734-4.985 2.18l-2.674 2.675c-.203-.06-.432-.014-.593.147-.232.232-.232.61 0 .842l3.1 3.1-5.497 5.497-4.04-3.97-.05-.044-4.692-3.668.064-.065.057-.066 3.552-4.8c.176-.237.15-.567-.057-.776l-.852-.85c-.21-.21-.538-.234-.776-.058l-4.8 3.554-.068.057-1.443 1.444-.067.08-1.46 2.096-1.713.684c-.186.075-.322.238-.362.434-.04.196.02.4.162.54l2.548 2.548c.113.113.265.174.42.174l.12-.01c.197-.04.36-.18.434-.364l.683-1.713L6.48 48.4l.08-.067.222-.224 3.792 4.59.037.04 3.99 4.02-8.184 8.183-3.47-.135c-.168-.007-.327.056-.445.174L.696 66.787c-.232.232-.232.61 0 .842L4.57 71.5c.113.112.264.175.42.175.16 0 .31-.064.423-.176l1.803-1.8c.118-.118.18-.28.174-.447L7.243 65.8l8.194-8.194 12.8 12.902c.112.113.263.176.422.176.155 0 .31-.063.42-.174l1.44-1.44c.11-.113.174-.266.173-.424 0-.16-.064-.31-.178-.423l-12.95-12.747zm3.035-9.63l2.622-2.622c1.216-1.216 2.61-1.833 4.147-1.833 1.35 0 2.42.487 2.78.67.347.68 1.783 3.967-1.17 6.92L26.36 51.6l-2.457-2.455 3.34-3.342c.235-.233.235-.61 0-.842-.23-.232-.607-.232-.84 0L23.06 48.3l-2.455-2.454zM3.554 48.99c-.095.067-.168.16-.21.267l-.418 1.04-1.272-1.272 1.04-.417c.107-.043.2-.116.266-.21l1.538-2.2 1.374-1.375 4.353-3.223.126.126-3.22 4.354-1.372 1.374-2.2 1.537zm1.44 21.25L1.96 67.21l1.196-1.197 2.886.113.016.02.008.006.123 2.895-1.2 1.196zm23.668-.995L11.475 51.92 9.87 49.977l2 1.564 17.385 17.11-.593.598z" fill="#67737B"/><path d="M17.567 95.476l5.49-5.49 3.1 3.1c.116.116.27.174.42.174.154 0 .306-.058.422-.174.16-.16.204-.39.143-.593l2.673-2.674c2.06-2.06 2.3-4.267 2.14-5.75-.174-1.6-.835-2.71-.863-2.76L31 81.19l-.113-.086c-.06-.037-1.523-.904-3.516-.904-1.86 0-3.54.734-4.985 2.18l-2.674 2.675c-.203-.06-.432-.014-.593.147-.232.232-.232.61 0 .842l3.1 3.1-5.497 5.497-4.04-3.97-.05-.044-4.692-3.668.064-.065.057-.066 3.552-4.8c.176-.237.15-.567-.057-.776l-.852-.85c-.21-.21-.538-.234-.776-.058l-4.8 3.554-.068.057-1.443 1.444-.067.08-1.46 2.096-1.713.684c-.186.075-.322.238-.362.434-.04.196.02.4.162.54l2.548 2.548c.113.113.265.174.42.174l.12-.01c.197-.04.36-.18.434-.364l.683-1.713L6.48 88.4l.08-.067.222-.224 3.792 4.59.037.04 3.99 4.02-8.184 8.183-3.47-.135c-.168-.007-.327.056-.445.174L.7 106.784c-.232.232-.232.61 0 .842l3.876 3.873c.112.112.263.175.42.175.16 0 .31-.064.422-.176l1.802-1.803c.118-.117.18-.28.174-.446l-.145-3.455L15.44 97.6l12.8 12.903c.11.113.263.176.42.176.16 0 .31-.064.42-.175l1.444-1.44c.112-.113.175-.266.174-.424 0-.16-.064-.31-.178-.422L17.57 95.472zm3.035-9.63l2.622-2.622c1.216-1.216 2.61-1.833 4.147-1.833 1.35 0 2.42.487 2.78.67.347.68 1.783 3.967-1.17 6.92L26.36 91.6l-2.457-2.455 3.34-3.342c.235-.233.235-.61 0-.842-.23-.232-.607-.232-.84 0L23.06 88.3l-2.455-2.454zM3.554 88.99c-.095.067-.168.16-.21.267l-.418 1.04-1.272-1.272 1.04-.417c.107-.043.2-.116.266-.21l1.538-2.2 1.374-1.375 4.353-3.223.126.126-3.22 4.354-1.372 1.374-2.2 1.537zm1.44 21.25l-3.034-3.03 1.196-1.197 2.886.113.016.02.008.006.123 2.895-1.2 1.196zm23.668-.995L11.475 91.92 9.87 89.977l2 1.564 17.385 17.11-.593.598z" fill="#fff"/><path d="M17.567 135.476l5.49-5.49 3.1 3.1c.116.116.27.174.42.174.154 0 .306-.058.422-.174.16-.16.204-.39.143-.593l2.673-2.674c2.06-2.06 2.3-4.267 2.14-5.75-.174-1.6-.835-2.71-.863-2.76l-.093-.12-.113-.086c-.06-.037-1.523-.904-3.516-.904-1.86 0-3.54.734-4.985 2.18l-2.674 2.675c-.203-.06-.432-.014-.593.147-.232.232-.232.61 0 .842l3.1 3.1-5.497 5.497-4.04-3.97-.05-.044-4.692-3.668.064-.065.057-.066 3.552-4.8c.176-.237.15-.567-.057-.776l-.852-.85c-.21-.21-.538-.234-.776-.058l-4.8 3.554-.068.057-1.443 1.444-.067.08-1.463 2.096-1.713.684c-.186.075-.322.238-.362.434-.04.196.02.4.162.54l2.548 2.548c.113.113.265.174.42.174l.12-.01c.197-.04.36-.18.434-.364l.685-1.713 2.1-1.463.08-.067.223-.224 3.792 4.59.037.04 3.99 4.02-8.185 8.185-3.47-.135c-.168-.007-.327.056-.445.174L.7 146.786c-.233.232-.233.61 0 .842l3.875 3.873c.112.114.263.177.42.177.16 0 .31-.064.422-.176l1.802-1.8c.117-.118.18-.28.173-.447l-.145-3.456 8.194-8.194 12.8 12.902c.11.113.262.176.42.176.16 0 .31-.062.42-.173l1.443-1.44c.112-.113.175-.266.174-.424 0-.16-.065-.31-.18-.423l-12.95-12.747zm3.035-9.63l2.622-2.622c1.216-1.216 2.61-1.833 4.147-1.833 1.35 0 2.42.487 2.78.67.347.68 1.783 3.967-1.17 6.92l-2.62 2.622-2.457-2.455 3.34-3.342c.235-.233.235-.61 0-.842-.23-.232-.607-.232-.84 0l-3.342 3.34-2.454-2.453zM3.554 128.99c-.095.067-.168.16-.21.267l-.418 1.04-1.272-1.272 1.04-.417c.107-.043.2-.116.266-.21l1.538-2.2 1.374-1.375 4.353-3.223.126.126-3.22 4.353-1.373 1.37-2.2 1.538zm1.44 21.25l-3.034-3.03 1.196-1.197 2.886.113.016.02.008.006.123 2.895-1.2 1.196zm23.668-.995L11.475 131.92l-1.606-1.944 2 1.564 17.382 17.11-.593.595z" fill="#206FAC"/></g></svg>