<?xml version="1.0" encoding="UTF-8" standalone="no"?>
<svg width="32px" height="232px" viewBox="0 0 32 232" version="1.1" xmlns="http://www.w3.org/2000/svg" xmlns:xlink="http://www.w3.org/1999/xlink" xmlns:sketch="http://www.bohemiancoding.com/sketch/ns">
    <!-- Generator: Sketch 3.0.3 (7891) - http://www.bohemiancoding.com/sketch -->
    <title>fog</title>
    <desc>Created with Sketch.</desc>
    <defs></defs>
    <g id="Weather" stroke="none" stroke-width="1" fill="none" fill-rule="evenodd" sketch:type="MSPage">
        <g id="Imported-Layers" sketch:type="MSLayerGroup" transform="translate(0.000000, 127.000000)" fill="#206FAC">
            <path d="M15.5558681,1.01966667 C16.3681758,1.01966667 17.0989011,1.16955556 17.5606154,1.43168519 C18.1749451,1.78107407 19.0948571,1.98127778 20.084044,1.98127778 L20.084044,2.1572037 L20.0868571,1.98127778 C21.0778022,1.98127778 21.9984176,1.78107407 22.6123956,1.43168519 C23.0744615,1.16955556 23.8055385,1.01896296 24.6185495,1.01896296 C25.4315604,1.01896296 26.1619341,1.16955556 26.6232967,1.43168519 C27.2376264,1.78107407 28.1582418,1.98127778 29.1491868,1.98127778 C30.1397802,1.98127778 31.0607473,1.78107407 31.6750769,1.43168519 C31.7974505,1.36201852 31.8857143,1.24907407 31.922989,1.11325926 C31.9606154,0.977092593 31.9426813,0.834944444 31.8734066,0.7125 C31.7352088,0.468314815 31.3997363,0.374722222 31.1542857,0.514055556 C30.6925714,0.776185185 29.9618462,0.926777778 29.1491868,0.926777778 C28.3361758,0.926777778 27.6054505,0.776185185 27.1440879,0.514055556 C26.5297582,0.16537037 25.6087912,-0.0351851852 24.6178462,-0.0351851852 C23.6272527,-0.0351851852 22.7062857,0.16537037 22.0916044,0.514055556 C21.6302418,0.776185185 20.8991648,0.926777778 20.0868571,0.926777778 C19.2741978,0.926777778 18.5431209,0.776185185 18.0817582,0.514055556 C17.4674286,0.165018519 16.5468132,-0.035537037 15.5562198,-0.035537037 C14.5652747,-0.035537037 13.6443077,0.165018519 13.029978,0.514055556 C12.5682637,0.776185185 11.8375385,0.926777778 11.0248791,0.926777778 C10.2122198,0.926777778 9.48114286,0.776185185 9.01978022,0.514055556 C8.4050989,0.16537037 7.48448352,-0.0351851852 6.49353846,-0.0351851852 C5.50294505,-0.0351851852 4.58197802,0.16537037 3.9672967,0.514055556 C3.84492308,0.58337037 3.75701099,0.696314815 3.71938462,0.832481481 C3.68210989,0.968296296 3.69969231,1.1107963 3.76931868,1.23394444 C3.90716484,1.47707407 4.24193407,1.57137037 4.48843956,1.43168519 C4.95015385,1.16990741 5.68087912,1.01966667 6.49389011,1.01966667 C7.3069011,1.01966667 8.03762637,1.16990741 8.49898901,1.43168519 C9.11331868,1.78107407 10.0339341,1.98127778 11.0245275,1.98127778 C12.0154725,1.98127778 12.9364396,1.78107407 13.5507692,1.43168519 C14.0124835,1.16955556 14.7432088,1.01966667 15.5558681,1.01966667" id="Fill-1" sketch:type="MSShapeGroup"></path>
            <path d="M11.8765714,9.20690741 C12.6892308,9.20690741 13.4196044,9.35714815 13.8806154,9.61927778 C14.4956484,9.96866667 15.4162637,10.1688704 16.4068571,10.1688704 C17.3974505,10.1688704 18.3180659,9.96866667 18.9327473,9.61962963 C19.3944615,9.3575 20.1251868,9.20725926 20.9378462,9.20725926 C21.7508571,9.20725926 22.4815824,9.3575 22.9429451,9.61962963 C23.5576264,9.96866667 24.4782418,10.1685185 25.4691868,10.1685185 C26.4601319,10.1685185 27.3807473,9.96866667 27.9950769,9.61962963 C28.2479121,9.47572222 28.3368791,9.15307407 28.1934066,8.89974074 C28.0555604,8.65625926 27.7197363,8.56196296 27.4742857,8.70164815 C27.0125714,8.96377778 26.2814945,9.11401852 25.4688352,9.11401852 C24.6561758,9.11401852 23.9250989,8.96377778 23.4637363,8.70164815 C22.8494066,8.35225926 21.9287912,8.15240741 20.9378462,8.15240741 C19.9472527,8.15240741 19.0266374,8.35225926 18.4123077,8.70164815 C17.9505934,8.96412963 17.2195165,9.11401852 16.4065055,9.11401852 C15.5938462,9.11401852 14.8631209,8.96412963 14.4017582,8.70164815 C13.7874286,8.35261111 12.8668132,8.15240741 11.8758681,8.15240741 C10.8849231,8.15240741 9.96430769,8.35261111 9.34997802,8.70164815 C8.88826374,8.96377778 8.15718681,9.11401852 7.34452747,9.11401852 C6.53186813,9.11401852 5.80079121,8.96377778 5.33942857,8.70164815 C4.7250989,8.35225926 3.80448352,8.15240741 2.81389011,8.15240741 C1.82294505,8.15240741 0.901978022,8.35225926 0.287648352,8.70164815 C0.165274725,8.77131481 0.077010989,8.88425926 0.0397362637,9.02007407 C0.00210989011,9.15588889 0.0196923077,9.29838889 0.0893186813,9.42083333 C0.227868132,9.66431481 0.562989011,9.75861111 0.80843956,9.61962963 C1.2698022,9.3575 2.00087912,9.20690741 2.81353846,9.20690741 C3.62654945,9.20690741 4.35727473,9.3575 4.81898901,9.61962963 C5.43296703,9.96866667 6.35393407,10.1685185 7.34487912,10.1685185 C8.33582418,10.1685185 9.25643956,9.96866667 9.87076923,9.61962963 C10.3324835,9.3575 11.0635604,9.20690741 11.8765714,9.20690741" id="Fill-2" sketch:type="MSShapeGroup"></path>
            <path d="M15.5755604,17.3945 C16.3882198,17.3945 17.1192967,17.5447407 17.5806593,17.8068704 C18.194989,18.1562593 19.1156044,18.356463 20.1065495,18.356463 C21.0978462,18.356463 22.0181099,18.1562593 22.6324396,17.8068704 C23.0941538,17.5447407 23.8252308,17.3945 24.6378901,17.3945 C25.4505495,17.3945 26.1816264,17.5447407 26.642989,17.8068704 C27.2573187,18.1559074 28.1782857,18.3561111 29.1692308,18.3561111 C30.1601758,18.3561111 31.0807912,18.1559074 31.6947692,17.8068704 C31.8174945,17.7372037 31.9054066,17.6242593 31.943033,17.4884444 C31.9803077,17.3522778 31.9627253,17.2101296 31.8930989,17.0876852 C31.7552527,16.8442037 31.4204835,16.7495556 31.1743297,16.8888889 C30.7126154,17.1510185 29.9815385,17.3016111 29.1685275,17.3016111 C28.3555165,17.3016111 27.6251429,17.1510185 27.1637802,16.8888889 C26.5494505,16.5402037 25.6288352,16.3396481 24.6378901,16.3396481 C23.6472967,16.3396481 22.7263297,16.5402037 22.1116484,16.8888889 C21.6499341,17.1510185 20.9192088,17.3016111 20.1065495,17.3016111 C19.2942418,17.3016111 18.5631648,17.1510185 18.1018022,16.8888889 C17.4871209,16.5398519 16.5668571,16.3392963 15.5759121,16.3392963 C14.5853187,16.3392963 13.6643516,16.5398519 13.050022,16.8888889 C12.589011,17.1510185 11.8582857,17.3016111 11.0452747,17.3016111 C10.2322637,17.3016111 9.50118681,17.1510185 9.03947253,16.8888889 C8.42479121,16.5402037 7.50417582,16.3396481 6.51287912,16.3396481 C5.52228571,16.3396481 4.60167033,16.5402037 3.98734066,16.8888889 C3.73450549,17.0327963 3.64553846,17.3554444 3.78901099,17.6084259 C3.92685714,17.8519074 4.26197802,17.9462037 4.50813187,17.8068704 C4.96949451,17.5447407 5.70057143,17.3945 6.51393407,17.3945 C7.32659341,17.3945 8.05731868,17.5447407 8.51868132,17.8068704 C9.13301099,18.1559074 10.053978,18.3561111 11.0449231,18.3561111 C12.0358681,18.3561111 12.9564835,18.1559074 13.5704615,17.8068704 C14.0321758,17.5447407 14.7632527,17.3945 15.5755604,17.3945" id="Fill-3" sketch:type="MSShapeGroup"></path>
        </g>
        <g id="Imported-Layers" sketch:type="MSLayerGroup" transform="translate(0.000000, 87.000000)" fill="#FFFFFF">
            <path d="M15.5558681,1.01966667 C16.3681758,1.01966667 17.0989011,1.16955556 17.5606154,1.43168519 C18.1749451,1.78107407 19.0948571,1.98127778 20.084044,1.98127778 L20.084044,2.1572037 L20.0868571,1.98127778 C21.0778022,1.98127778 21.9984176,1.78107407 22.6123956,1.43168519 C23.0744615,1.16955556 23.8055385,1.01896296 24.6185495,1.01896296 C25.4315604,1.01896296 26.1619341,1.16955556 26.6232967,1.43168519 C27.2376264,1.78107407 28.1582418,1.98127778 29.1491868,1.98127778 C30.1397802,1.98127778 31.0607473,1.78107407 31.6750769,1.43168519 C31.7974505,1.36201852 31.8857143,1.24907407 31.922989,1.11325926 C31.9606154,0.977092593 31.9426813,0.834944444 31.8734066,0.7125 C31.7352088,0.468314815 31.3997363,0.374722222 31.1542857,0.514055556 C30.6925714,0.776185185 29.9618462,0.926777778 29.1491868,0.926777778 C28.3361758,0.926777778 27.6054505,0.776185185 27.1440879,0.514055556 C26.5297582,0.16537037 25.6087912,-0.0351851852 24.6178462,-0.0351851852 C23.6272527,-0.0351851852 22.7062857,0.16537037 22.0916044,0.514055556 C21.6302418,0.776185185 20.8991648,0.926777778 20.0868571,0.926777778 C19.2741978,0.926777778 18.5431209,0.776185185 18.0817582,0.514055556 C17.4674286,0.165018519 16.5468132,-0.035537037 15.5562198,-0.035537037 C14.5652747,-0.035537037 13.6443077,0.165018519 13.029978,0.514055556 C12.5682637,0.776185185 11.8375385,0.926777778 11.0248791,0.926777778 C10.2122198,0.926777778 9.48114286,0.776185185 9.01978022,0.514055556 C8.4050989,0.16537037 7.48448352,-0.0351851852 6.49353846,-0.0351851852 C5.50294505,-0.0351851852 4.58197802,0.16537037 3.9672967,0.514055556 C3.84492308,0.58337037 3.75701099,0.696314815 3.71938462,0.832481481 C3.68210989,0.968296296 3.69969231,1.1107963 3.76931868,1.23394444 C3.90716484,1.47707407 4.24193407,1.57137037 4.48843956,1.43168519 C4.95015385,1.16990741 5.68087912,1.01966667 6.49389011,1.01966667 C7.3069011,1.01966667 8.03762637,1.16990741 8.49898901,1.43168519 C9.11331868,1.78107407 10.0339341,1.98127778 11.0245275,1.98127778 C12.0154725,1.98127778 12.9364396,1.78107407 13.5507692,1.43168519 C14.0124835,1.16955556 14.7432088,1.01966667 15.5558681,1.01966667" id="Fill-1" sketch:type="MSShapeGroup"></path>
            <path d="M11.8765714,9.20690741 C12.6892308,9.20690741 13.4196044,9.35714815 13.8806154,9.61927778 C14.4956484,9.96866667 15.4162637,10.1688704 16.4068571,10.1688704 C17.3974505,10.1688704 18.3180659,9.96866667 18.9327473,9.61962963 C19.3944615,9.3575 20.1251868,9.20725926 20.9378462,9.20725926 C21.7508571,9.20725926 22.4815824,9.3575 22.9429451,9.61962963 C23.5576264,9.96866667 24.4782418,10.1685185 25.4691868,10.1685185 C26.4601319,10.1685185 27.3807473,9.96866667 27.9950769,9.61962963 C28.2479121,9.47572222 28.3368791,9.15307407 28.1934066,8.89974074 C28.0555604,8.65625926 27.7197363,8.56196296 27.4742857,8.70164815 C27.0125714,8.96377778 26.2814945,9.11401852 25.4688352,9.11401852 C24.6561758,9.11401852 23.9250989,8.96377778 23.4637363,8.70164815 C22.8494066,8.35225926 21.9287912,8.15240741 20.9378462,8.15240741 C19.9472527,8.15240741 19.0266374,8.35225926 18.4123077,8.70164815 C17.9505934,8.96412963 17.2195165,9.11401852 16.4065055,9.11401852 C15.5938462,9.11401852 14.8631209,8.96412963 14.4017582,8.70164815 C13.7874286,8.35261111 12.8668132,8.15240741 11.8758681,8.15240741 C10.8849231,8.15240741 9.96430769,8.35261111 9.34997802,8.70164815 C8.88826374,8.96377778 8.15718681,9.11401852 7.34452747,9.11401852 C6.53186813,9.11401852 5.80079121,8.96377778 5.33942857,8.70164815 C4.7250989,8.35225926 3.80448352,8.15240741 2.81389011,8.15240741 C1.82294505,8.15240741 0.901978022,8.35225926 0.287648352,8.70164815 C0.165274725,8.77131481 0.077010989,8.88425926 0.0397362637,9.02007407 C0.00210989011,9.15588889 0.0196923077,9.29838889 0.0893186813,9.42083333 C0.227868132,9.66431481 0.562989011,9.75861111 0.80843956,9.61962963 C1.2698022,9.3575 2.00087912,9.20690741 2.81353846,9.20690741 C3.62654945,9.20690741 4.35727473,9.3575 4.81898901,9.61962963 C5.43296703,9.96866667 6.35393407,10.1685185 7.34487912,10.1685185 C8.33582418,10.1685185 9.25643956,9.96866667 9.87076923,9.61962963 C10.3324835,9.3575 11.0635604,9.20690741 11.8765714,9.20690741" id="Fill-2" sketch:type="MSShapeGroup"></path>
            <path d="M15.5755604,17.3945 C16.3882198,17.3945 17.1192967,17.5447407 17.5806593,17.8068704 C18.194989,18.1562593 19.1156044,18.356463 20.1065495,18.356463 C21.0978462,18.356463 22.0181099,18.1562593 22.6324396,17.8068704 C23.0941538,17.5447407 23.8252308,17.3945 24.6378901,17.3945 C25.4505495,17.3945 26.1816264,17.5447407 26.642989,17.8068704 C27.2573187,18.1559074 28.1782857,18.3561111 29.1692308,18.3561111 C30.1601758,18.3561111 31.0807912,18.1559074 31.6947692,17.8068704 C31.8174945,17.7372037 31.9054066,17.6242593 31.943033,17.4884444 C31.9803077,17.3522778 31.9627253,17.2101296 31.8930989,17.0876852 C31.7552527,16.8442037 31.4204835,16.7495556 31.1743297,16.8888889 C30.7126154,17.1510185 29.9815385,17.3016111 29.1685275,17.3016111 C28.3555165,17.3016111 27.6251429,17.1510185 27.1637802,16.8888889 C26.5494505,16.5402037 25.6288352,16.3396481 24.6378901,16.3396481 C23.6472967,16.3396481 22.7263297,16.5402037 22.1116484,16.8888889 C21.6499341,17.1510185 20.9192088,17.3016111 20.1065495,17.3016111 C19.2942418,17.3016111 18.5631648,17.1510185 18.1018022,16.8888889 C17.4871209,16.5398519 16.5668571,16.3392963 15.5759121,16.3392963 C14.5853187,16.3392963 13.6643516,16.5398519 13.050022,16.8888889 C12.589011,17.1510185 11.8582857,17.3016111 11.0452747,17.3016111 C10.2322637,17.3016111 9.50118681,17.1510185 9.03947253,16.8888889 C8.42479121,16.5402037 7.50417582,16.3396481 6.51287912,16.3396481 C5.52228571,16.3396481 4.60167033,16.5402037 3.98734066,16.8888889 C3.73450549,17.0327963 3.64553846,17.3554444 3.78901099,17.6084259 C3.92685714,17.8519074 4.26197802,17.9462037 4.50813187,17.8068704 C4.96949451,17.5447407 5.70057143,17.3945 6.51393407,17.3945 C7.32659341,17.3945 8.05731868,17.5447407 8.51868132,17.8068704 C9.13301099,18.1559074 10.053978,18.3561111 11.0449231,18.3561111 C12.0358681,18.3561111 12.9564835,18.1559074 13.5704615,17.8068704 C14.0321758,17.5447407 14.7632527,17.3945 15.5755604,17.3945" id="Fill-3" sketch:type="MSShapeGroup"></path>
        </g>
        <g id="Imported-Layers" sketch:type="MSLayerGroup" transform="translate(0.000000, 47.000000)" fill="#67737B">
            <path d="M15.5558681,1.01966667 C16.3681758,1.01966667 17.0989011,1.16955556 17.5606154,1.43168519 C18.1749451,1.78107407 19.0948571,1.98127778 20.084044,1.98127778 L20.084044,2.1572037 L20.0868571,1.98127778 C21.0778022,1.98127778 21.9984176,1.78107407 22.6123956,1.43168519 C23.0744615,1.16955556 23.8055385,1.01896296 24.6185495,1.01896296 C25.4315604,1.01896296 26.1619341,1.16955556 26.6232967,1.43168519 C27.2376264,1.78107407 28.1582418,1.98127778 29.1491868,1.98127778 C30.1397802,1.98127778 31.0607473,1.78107407 31.6750769,1.43168519 C31.7974505,1.36201852 31.8857143,1.24907407 31.922989,1.11325926 C31.9606154,0.977092593 31.9426813,0.834944444 31.8734066,0.7125 C31.7352088,0.468314815 31.3997363,0.374722222 31.1542857,0.514055556 C30.6925714,0.776185185 29.9618462,0.926777778 29.1491868,0.926777778 C28.3361758,0.926777778 27.6054505,0.776185185 27.1440879,0.514055556 C26.5297582,0.16537037 25.6087912,-0.0351851852 24.6178462,-0.0351851852 C23.6272527,-0.0351851852 22.7062857,0.16537037 22.0916044,0.514055556 C21.6302418,0.776185185 20.8991648,0.926777778 20.0868571,0.926777778 C19.2741978,0.926777778 18.5431209,0.776185185 18.0817582,0.514055556 C17.4674286,0.165018519 16.5468132,-0.035537037 15.5562198,-0.035537037 C14.5652747,-0.035537037 13.6443077,0.165018519 13.029978,0.514055556 C12.5682637,0.776185185 11.8375385,0.926777778 11.0248791,0.926777778 C10.2122198,0.926777778 9.48114286,0.776185185 9.01978022,0.514055556 C8.4050989,0.16537037 7.48448352,-0.0351851852 6.49353846,-0.0351851852 C5.50294505,-0.0351851852 4.58197802,0.16537037 3.9672967,0.514055556 C3.84492308,0.58337037 3.75701099,0.696314815 3.71938462,0.832481481 C3.68210989,0.968296296 3.69969231,1.1107963 3.76931868,1.23394444 C3.90716484,1.47707407 4.24193407,1.57137037 4.48843956,1.43168519 C4.95015385,1.16990741 5.68087912,1.01966667 6.49389011,1.01966667 C7.3069011,1.01966667 8.03762637,1.16990741 8.49898901,1.43168519 C9.11331868,1.78107407 10.0339341,1.98127778 11.0245275,1.98127778 C12.0154725,1.98127778 12.9364396,1.78107407 13.5507692,1.43168519 C14.0124835,1.16955556 14.7432088,1.01966667 15.5558681,1.01966667" id="Fill-1" sketch:type="MSShapeGroup"></path>
            <path d="M11.8765714,9.20690741 C12.6892308,9.20690741 13.4196044,9.35714815 13.8806154,9.61927778 C14.4956484,9.96866667 15.4162637,10.1688704 16.4068571,10.1688704 C17.3974505,10.1688704 18.3180659,9.96866667 18.9327473,9.61962963 C19.3944615,9.3575 20.1251868,9.20725926 20.9378462,9.20725926 C21.7508571,9.20725926 22.4815824,9.3575 22.9429451,9.61962963 C23.5576264,9.96866667 24.4782418,10.1685185 25.4691868,10.1685185 C26.4601319,10.1685185 27.3807473,9.96866667 27.9950769,9.61962963 C28.2479121,9.47572222 28.3368791,9.15307407 28.1934066,8.89974074 C28.0555604,8.65625926 27.7197363,8.56196296 27.4742857,8.70164815 C27.0125714,8.96377778 26.2814945,9.11401852 25.4688352,9.11401852 C24.6561758,9.11401852 23.9250989,8.96377778 23.4637363,8.70164815 C22.8494066,8.35225926 21.9287912,8.15240741 20.9378462,8.15240741 C19.9472527,8.15240741 19.0266374,8.35225926 18.4123077,8.70164815 C17.9505934,8.96412963 17.2195165,9.11401852 16.4065055,9.11401852 C15.5938462,9.11401852 14.8631209,8.96412963 14.4017582,8.70164815 C13.7874286,8.35261111 12.8668132,8.15240741 11.8758681,8.15240741 C10.8849231,8.15240741 9.96430769,8.35261111 9.34997802,8.70164815 C8.88826374,8.96377778 8.15718681,9.11401852 7.34452747,9.11401852 C6.53186813,9.11401852 5.80079121,8.96377778 5.33942857,8.70164815 C4.7250989,8.35225926 3.80448352,8.15240741 2.81389011,8.15240741 C1.82294505,8.15240741 0.901978022,8.35225926 0.287648352,8.70164815 C0.165274725,8.77131481 0.077010989,8.88425926 0.0397362637,9.02007407 C0.00210989011,9.15588889 0.0196923077,9.29838889 0.0893186813,9.42083333 C0.227868132,9.66431481 0.562989011,9.75861111 0.80843956,9.61962963 C1.2698022,9.3575 2.00087912,9.20690741 2.81353846,9.20690741 C3.62654945,9.20690741 4.35727473,9.3575 4.81898901,9.61962963 C5.43296703,9.96866667 6.35393407,10.1685185 7.34487912,10.1685185 C8.33582418,10.1685185 9.25643956,9.96866667 9.87076923,9.61962963 C10.3324835,9.3575 11.0635604,9.20690741 11.8765714,9.20690741" id="Fill-2" sketch:type="MSShapeGroup"></path>
            <path d="M15.5755604,17.3945 C16.3882198,17.3945 17.1192967,17.5447407 17.5806593,17.8068704 C18.194989,18.1562593 19.1156044,18.356463 20.1065495,18.356463 C21.0978462,18.356463 22.0181099,18.1562593 22.6324396,17.8068704 C23.0941538,17.5447407 23.8252308,17.3945 24.6378901,17.3945 C25.4505495,17.3945 26.1816264,17.5447407 26.642989,17.8068704 C27.2573187,18.1559074 28.1782857,18.3561111 29.1692308,18.3561111 C30.1601758,18.3561111 31.0807912,18.1559074 31.6947692,17.8068704 C31.8174945,17.7372037 31.9054066,17.6242593 31.943033,17.4884444 C31.9803077,17.3522778 31.9627253,17.2101296 31.8930989,17.0876852 C31.7552527,16.8442037 31.4204835,16.7495556 31.1743297,16.8888889 C30.7126154,17.1510185 29.9815385,17.3016111 29.1685275,17.3016111 C28.3555165,17.3016111 27.6251429,17.1510185 27.1637802,16.8888889 C26.5494505,16.5402037 25.6288352,16.3396481 24.6378901,16.3396481 C23.6472967,16.3396481 22.7263297,16.5402037 22.1116484,16.8888889 C21.6499341,17.1510185 20.9192088,17.3016111 20.1065495,17.3016111 C19.2942418,17.3016111 18.5631648,17.1510185 18.1018022,16.8888889 C17.4871209,16.5398519 16.5668571,16.3392963 15.5759121,16.3392963 C14.5853187,16.3392963 13.6643516,16.5398519 13.050022,16.8888889 C12.589011,17.1510185 11.8582857,17.3016111 11.0452747,17.3016111 C10.2322637,17.3016111 9.50118681,17.1510185 9.03947253,16.8888889 C8.42479121,16.5402037 7.50417582,16.3396481 6.51287912,16.3396481 C5.52228571,16.3396481 4.60167033,16.5402037 3.98734066,16.8888889 C3.73450549,17.0327963 3.64553846,17.3554444 3.78901099,17.6084259 C3.92685714,17.8519074 4.26197802,17.9462037 4.50813187,17.8068704 C4.96949451,17.5447407 5.70057143,17.3945 6.51393407,17.3945 C7.32659341,17.3945 8.05731868,17.5447407 8.51868132,17.8068704 C9.13301099,18.1559074 10.053978,18.3561111 11.0449231,18.3561111 C12.0358681,18.3561111 12.9564835,18.1559074 13.5704615,17.8068704 C14.0321758,17.5447407 14.7632527,17.3945 15.5755604,17.3945" id="Fill-3" sketch:type="MSShapeGroup"></path>
        </g>
        <g id="Imported-Layers" sketch:type="MSLayerGroup" transform="translate(0.000000, 7.000000)" fill="#3A434E">
            <path d="M15.5558681,1.01966667 C16.3681758,1.01966667 17.0989011,1.16955556 17.5606154,1.43168519 C18.1749451,1.78107407 19.0948571,1.98127778 20.084044,1.98127778 L20.084044,2.1572037 L20.0868571,1.98127778 C21.0778022,1.98127778 21.9984176,1.78107407 22.6123956,1.43168519 C23.0744615,1.16955556 23.8055385,1.01896296 24.6185495,1.01896296 C25.4315604,1.01896296 26.1619341,1.16955556 26.6232967,1.43168519 C27.2376264,1.78107407 28.1582418,1.98127778 29.1491868,1.98127778 C30.1397802,1.98127778 31.0607473,1.78107407 31.6750769,1.43168519 C31.7974505,1.36201852 31.8857143,1.24907407 31.922989,1.11325926 C31.9606154,0.977092593 31.9426813,0.834944444 31.8734066,0.7125 C31.7352088,0.468314815 31.3997363,0.374722222 31.1542857,0.514055556 C30.6925714,0.776185185 29.9618462,0.926777778 29.1491868,0.926777778 C28.3361758,0.926777778 27.6054505,0.776185185 27.1440879,0.514055556 C26.5297582,0.16537037 25.6087912,-0.0351851852 24.6178462,-0.0351851852 C23.6272527,-0.0351851852 22.7062857,0.16537037 22.0916044,0.514055556 C21.6302418,0.776185185 20.8991648,0.926777778 20.0868571,0.926777778 C19.2741978,0.926777778 18.5431209,0.776185185 18.0817582,0.514055556 C17.4674286,0.165018519 16.5468132,-0.035537037 15.5562198,-0.035537037 C14.5652747,-0.035537037 13.6443077,0.165018519 13.029978,0.514055556 C12.5682637,0.776185185 11.8375385,0.926777778 11.0248791,0.926777778 C10.2122198,0.926777778 9.48114286,0.776185185 9.01978022,0.514055556 C8.4050989,0.16537037 7.48448352,-0.0351851852 6.49353846,-0.0351851852 C5.50294505,-0.0351851852 4.58197802,0.16537037 3.9672967,0.514055556 C3.84492308,0.58337037 3.75701099,0.696314815 3.71938462,0.832481481 C3.68210989,0.968296296 3.69969231,1.1107963 3.76931868,1.23394444 C3.90716484,1.47707407 4.24193407,1.57137037 4.48843956,1.43168519 C4.95015385,1.16990741 5.68087912,1.01966667 6.49389011,1.01966667 C7.3069011,1.01966667 8.03762637,1.16990741 8.49898901,1.43168519 C9.11331868,1.78107407 10.0339341,1.98127778 11.0245275,1.98127778 C12.0154725,1.98127778 12.9364396,1.78107407 13.5507692,1.43168519 C14.0124835,1.16955556 14.7432088,1.01966667 15.5558681,1.01966667" id="Fill-1" sketch:type="MSShapeGroup"></path>
            <path d="M11.8765714,9.20690741 C12.6892308,9.20690741 13.4196044,9.35714815 13.8806154,9.61927778 C14.4956484,9.96866667 15.4162637,10.1688704 16.4068571,10.1688704 C17.3974505,10.1688704 18.3180659,9.96866667 18.9327473,9.61962963 C19.3944615,9.3575 20.1251868,9.20725926 20.9378462,9.20725926 C21.7508571,9.20725926 22.4815824,9.3575 22.9429451,9.61962963 C23.5576264,9.96866667 24.4782418,10.1685185 25.4691868,10.1685185 C26.4601319,10.1685185 27.3807473,9.96866667 27.9950769,9.61962963 C28.2479121,9.47572222 28.3368791,9.15307407 28.1934066,8.89974074 C28.0555604,8.65625926 27.7197363,8.56196296 27.4742857,8.70164815 C27.0125714,8.96377778 26.2814945,9.11401852 25.4688352,9.11401852 C24.6561758,9.11401852 23.9250989,8.96377778 23.4637363,8.70164815 C22.8494066,8.35225926 21.9287912,8.15240741 20.9378462,8.15240741 C19.9472527,8.15240741 19.0266374,8.35225926 18.4123077,8.70164815 C17.9505934,8.96412963 17.2195165,9.11401852 16.4065055,9.11401852 C15.5938462,9.11401852 14.8631209,8.96412963 14.4017582,8.70164815 C13.7874286,8.35261111 12.8668132,8.15240741 11.8758681,8.15240741 C10.8849231,8.15240741 9.96430769,8.35261111 9.34997802,8.70164815 C8.88826374,8.96377778 8.15718681,9.11401852 7.34452747,9.11401852 C6.53186813,9.11401852 5.80079121,8.96377778 5.33942857,8.70164815 C4.7250989,8.35225926 3.80448352,8.15240741 2.81389011,8.15240741 C1.82294505,8.15240741 0.901978022,8.35225926 0.287648352,8.70164815 C0.165274725,8.77131481 0.077010989,8.88425926 0.0397362637,9.02007407 C0.00210989011,9.15588889 0.0196923077,9.29838889 0.0893186813,9.42083333 C0.227868132,9.66431481 0.562989011,9.75861111 0.80843956,9.61962963 C1.2698022,9.3575 2.00087912,9.20690741 2.81353846,9.20690741 C3.62654945,9.20690741 4.35727473,9.3575 4.81898901,9.61962963 C5.43296703,9.96866667 6.35393407,10.1685185 7.34487912,10.1685185 C8.33582418,10.1685185 9.25643956,9.96866667 9.87076923,9.61962963 C10.3324835,9.3575 11.0635604,9.20690741 11.8765714,9.20690741" id="Fill-2" sketch:type="MSShapeGroup"></path>
            <path d="M15.5755604,17.3945 C16.3882198,17.3945 17.1192967,17.5447407 17.5806593,17.8068704 C18.194989,18.1562593 19.1156044,18.356463 20.1065495,18.356463 C21.0978462,18.356463 22.0181099,18.1562593 22.6324396,17.8068704 C23.0941538,17.5447407 23.8252308,17.3945 24.6378901,17.3945 C25.4505495,17.3945 26.1816264,17.5447407 26.642989,17.8068704 C27.2573187,18.1559074 28.1782857,18.3561111 29.1692308,18.3561111 C30.1601758,18.3561111 31.0807912,18.1559074 31.6947692,17.8068704 C31.8174945,17.7372037 31.9054066,17.6242593 31.943033,17.4884444 C31.9803077,17.3522778 31.9627253,17.2101296 31.8930989,17.0876852 C31.7552527,16.8442037 31.4204835,16.7495556 31.1743297,16.8888889 C30.7126154,17.1510185 29.9815385,17.3016111 29.1685275,17.3016111 C28.3555165,17.3016111 27.6251429,17.1510185 27.1637802,16.8888889 C26.5494505,16.5402037 25.6288352,16.3396481 24.6378901,16.3396481 C23.6472967,16.3396481 22.7263297,16.5402037 22.1116484,16.8888889 C21.6499341,17.1510185 20.9192088,17.3016111 20.1065495,17.3016111 C19.2942418,17.3016111 18.5631648,17.1510185 18.1018022,16.8888889 C17.4871209,16.5398519 16.5668571,16.3392963 15.5759121,16.3392963 C14.5853187,16.3392963 13.6643516,16.5398519 13.050022,16.8888889 C12.589011,17.1510185 11.8582857,17.3016111 11.0452747,17.3016111 C10.2322637,17.3016111 9.50118681,17.1510185 9.03947253,16.8888889 C8.42479121,16.5402037 7.50417582,16.3396481 6.51287912,16.3396481 C5.52228571,16.3396481 4.60167033,16.5402037 3.98734066,16.8888889 C3.73450549,17.0327963 3.64553846,17.3554444 3.78901099,17.6084259 C3.92685714,17.8519074 4.26197802,17.9462037 4.50813187,17.8068704 C4.96949451,17.5447407 5.70057143,17.3945 6.51393407,17.3945 C7.32659341,17.3945 8.05731868,17.5447407 8.51868132,17.8068704 C9.13301099,18.1559074 10.053978,18.3561111 11.0449231,18.3561111 C12.0358681,18.3561111 12.9564835,18.1559074 13.5704615,17.8068704 C14.0321758,17.5447407 14.7632527,17.3945 15.5755604,17.3945" id="Fill-3" sketch:type="MSShapeGroup"></path>
        </g>
    </g>
</svg>