<?xml version="1.0" encoding="UTF-8" standalone="no"?>
<svg width="32px" height="232px" viewBox="0 0 32 232" version="1.1" xmlns="http://www.w3.org/2000/svg" xmlns:xlink="http://www.w3.org/1999/xlink" xmlns:sketch="http://www.bohemiancoding.com/sketch/ns">
    <!-- Generator: Sketch 3.0.3 (7891) - http://www.bohemiancoding.com/sketch -->
    <title>night-clear</title>
    <desc>Created with Sketch.</desc>
    <defs></defs>
    <g id="Weather" stroke="none" stroke-width="1" fill="none" fill-rule="evenodd" sketch:type="MSPage">
        <g id="Imported-Layers" sketch:type="MSLayerGroup" transform="translate(1.500000, 0.000000)" fill="#3B444F">
            <path d="M29.2034505,22.4601143 C29.0416127,22.2982765 28.795859,22.2553196 28.5880672,22.3532215 C26.6510084,23.2663064 24.5800838,23.7298419 22.4302382,23.7298419 C14.4612243,23.7298419 7.97672262,17.2453403 7.97672262,9.27732532 C7.97672262,7.12648077 8.44125709,5.05455712 9.35434205,3.11949632 C9.45224394,2.91170455 9.40928699,2.66595083 9.24744917,2.50411302 C9.08561136,2.3422752 8.83985764,2.29931825 8.63206587,2.39722014 C3.21649303,4.95166024 -0.283,10.469131 -0.283,16.4531342 C-0.283,25.0205484 6.68701508,31.9895645 15.2534304,31.9895645 C21.2374336,31.9895645 26.7549043,28.4900715 29.3103434,23.0754977 C29.4072463,22.8677059 29.3652883,22.6219522 29.2034505,22.4601143 L29.2034505,22.4601143 Z M15.2534304,30.9046518 C7.2854154,30.9046518 0.801912768,24.4221481 0.801912768,16.4531342 C0.801912768,11.3862119 3.4992097,6.67892927 7.78391584,4.08253122 C7.19150951,5.74386634 6.89280885,7.48512136 6.89280885,9.27732532 C6.89280885,17.8447396 13.8618249,24.8137557 22.4302382,24.8137557 C24.2214432,24.8137557 25.9626982,24.515055 27.6250323,23.9236477 C25.0276353,28.2073548 20.3203526,30.9046518 15.2534304,30.9046518 L15.2534304,30.9046518 Z" id="Fill-1" sketch:type="MSShapeGroup"></path>
            <path d="M14.9037808,4.79781441 L17.2074721,6.05855098 L18.4682087,8.36224236 C18.5631136,8.53606817 18.7459304,8.64396004 18.9437322,8.64396004 C19.1415339,8.64396004 19.3243507,8.53606817 19.4192556,8.36224236 L20.6799922,6.05855098 L22.9836836,4.79781441 C23.1575094,4.70390852 23.2654013,4.52109173 23.2654013,4.32229095 C23.2654013,4.12448918 23.1575094,3.94167238 22.9836836,3.84676749 L20.6799922,2.58702992 L19.4192556,0.283338539 C19.2294458,-0.0653120651 18.6580185,-0.0653120651 18.4682087,0.283338539 L17.2074721,2.58702992 L14.9037808,3.84676749 C14.7299549,3.94167238 14.6220631,4.12448918 14.6220631,4.32229095 C14.6220631,4.52109173 14.7299549,4.70390852 14.9037808,4.79781441 L14.9037808,4.79781441 Z M17.8678104,3.46215293 C17.9587193,3.41220299 18.0336442,3.33827707 18.0835941,3.24636917 L18.9437322,1.67394496 L19.8038702,3.24636917 C19.8538201,3.33827707 19.928745,3.41220299 20.0196539,3.46215293 L21.5920782,4.32229095 L20.0196539,5.18242897 C19.928745,5.23237892 19.8538201,5.30730383 19.8038702,5.39821273 L18.9437322,6.97063694 L18.0835941,5.39821273 C18.0336442,5.30730383 17.9587193,5.23237892 17.8678104,5.18242897 L16.2953862,4.32229095 L17.8678104,3.46215293 L17.8678104,3.46215293 Z" id="Fill-2" sketch:type="MSShapeGroup"></path>
            <path d="M22.4871811,10.8017976 C22.4871811,10.9995994 22.595073,11.1824162 22.7688988,11.2773211 L23.8518136,11.8697274 L24.4432209,12.9516431 C24.5381258,13.125469 24.7209426,13.2333608 24.9197434,13.2333608 C25.1175451,13.2333608 25.3003619,13.125469 25.3952668,12.9516431 L25.9866742,11.8697274 L27.0685899,11.2783201 C27.2434147,11.1824162 27.3513066,10.9995994 27.3513066,10.8017976 C27.3513066,10.6039958 27.2434147,10.421179 27.0685899,10.3252751 L25.9866742,9.7338678 L25.3952668,8.65195203 C25.3003619,8.47912523 25.1175451,8.37023435 24.9197434,8.37023435 C24.7209426,8.37023435 24.5381258,8.47812623 24.4432209,8.65195203 L23.8518136,9.7338678 L22.7688988,10.3262741 C22.595073,10.421179 22.4871811,10.6039958 22.4871811,10.8017976 L22.4871811,10.8017976 Z M24.5111528,10.6099898 C24.6020617,10.5600399 24.6769866,10.485115 24.7269366,10.3942061 L24.9187444,10.0425585 L25.1105522,10.3942061 C25.1605021,10.485115 25.235427,10.5600399 25.3263359,10.6099898 L25.6779835,10.8017976 L25.3263359,10.9936054 C25.235427,11.0435553 25.1605021,11.1184802 25.1105522,11.2093891 L24.9187444,11.5610367 L24.7269366,11.2093891 C24.6769866,11.1184802 24.6020617,11.0435553 24.5111528,10.9946044 L24.1595052,10.8017976 L24.5111528,10.6099898 L24.5111528,10.6099898 Z" id="Fill-3" sketch:type="MSShapeGroup"></path>
        </g>
        <g id="Imported-Layers-2" sketch:type="MSLayerGroup" transform="translate(1.500000, 40.000000)" fill="#67737B">
            <path d="M29.2034505,22.4601143 C29.0416127,22.2982765 28.795859,22.2553196 28.5880672,22.3532215 C26.6510084,23.2663064 24.5800838,23.7298419 22.4302382,23.7298419 C14.4612243,23.7298419 7.97672262,17.2453403 7.97672262,9.27732532 C7.97672262,7.12648077 8.44125709,5.05455712 9.35434205,3.11949632 C9.45224394,2.91170455 9.40928699,2.66595083 9.24744917,2.50411302 C9.08561136,2.3422752 8.83985764,2.29931825 8.63206587,2.39722014 C3.21649303,4.95166024 -0.283,10.469131 -0.283,16.4531342 C-0.283,25.0205484 6.68701508,31.9895645 15.2534304,31.9895645 C21.2374336,31.9895645 26.7549043,28.4900715 29.3103434,23.0754977 C29.4072463,22.8677059 29.3652883,22.6219522 29.2034505,22.4601143 L29.2034505,22.4601143 Z M15.2534304,30.9046518 C7.2854154,30.9046518 0.801912768,24.4221481 0.801912768,16.4531342 C0.801912768,11.3862119 3.4992097,6.67892927 7.78391584,4.08253122 C7.19150951,5.74386634 6.89280885,7.48512136 6.89280885,9.27732532 C6.89280885,17.8447396 13.8618249,24.8137557 22.4302382,24.8137557 C24.2214432,24.8137557 25.9626982,24.515055 27.6250323,23.9236477 C25.0276353,28.2073548 20.3203526,30.9046518 15.2534304,30.9046518 L15.2534304,30.9046518 Z" id="Fill-1" sketch:type="MSShapeGroup"></path>
            <path d="M14.9037808,4.79781441 L17.2074721,6.05855098 L18.4682087,8.36224236 C18.5631136,8.53606817 18.7459304,8.64396004 18.9437322,8.64396004 C19.1415339,8.64396004 19.3243507,8.53606817 19.4192556,8.36224236 L20.6799922,6.05855098 L22.9836836,4.79781441 C23.1575094,4.70390852 23.2654013,4.52109173 23.2654013,4.32229095 C23.2654013,4.12448918 23.1575094,3.94167238 22.9836836,3.84676749 L20.6799922,2.58702992 L19.4192556,0.283338539 C19.2294458,-0.0653120651 18.6580185,-0.0653120651 18.4682087,0.283338539 L17.2074721,2.58702992 L14.9037808,3.84676749 C14.7299549,3.94167238 14.6220631,4.12448918 14.6220631,4.32229095 C14.6220631,4.52109173 14.7299549,4.70390852 14.9037808,4.79781441 L14.9037808,4.79781441 Z M17.8678104,3.46215293 C17.9587193,3.41220299 18.0336442,3.33827707 18.0835941,3.24636917 L18.9437322,1.67394496 L19.8038702,3.24636917 C19.8538201,3.33827707 19.928745,3.41220299 20.0196539,3.46215293 L21.5920782,4.32229095 L20.0196539,5.18242897 C19.928745,5.23237892 19.8538201,5.30730383 19.8038702,5.39821273 L18.9437322,6.97063694 L18.0835941,5.39821273 C18.0336442,5.30730383 17.9587193,5.23237892 17.8678104,5.18242897 L16.2953862,4.32229095 L17.8678104,3.46215293 L17.8678104,3.46215293 Z" id="Fill-2" sketch:type="MSShapeGroup"></path>
            <path d="M22.4871811,10.8017976 C22.4871811,10.9995994 22.595073,11.1824162 22.7688988,11.2773211 L23.8518136,11.8697274 L24.4432209,12.9516431 C24.5381258,13.125469 24.7209426,13.2333608 24.9197434,13.2333608 C25.1175451,13.2333608 25.3003619,13.125469 25.3952668,12.9516431 L25.9866742,11.8697274 L27.0685899,11.2783201 C27.2434147,11.1824162 27.3513066,10.9995994 27.3513066,10.8017976 C27.3513066,10.6039958 27.2434147,10.421179 27.0685899,10.3252751 L25.9866742,9.7338678 L25.3952668,8.65195203 C25.3003619,8.47912523 25.1175451,8.37023435 24.9197434,8.37023435 C24.7209426,8.37023435 24.5381258,8.47812623 24.4432209,8.65195203 L23.8518136,9.7338678 L22.7688988,10.3262741 C22.595073,10.421179 22.4871811,10.6039958 22.4871811,10.8017976 L22.4871811,10.8017976 Z M24.5111528,10.6099898 C24.6020617,10.5600399 24.6769866,10.485115 24.7269366,10.3942061 L24.9187444,10.0425585 L25.1105522,10.3942061 C25.1605021,10.485115 25.235427,10.5600399 25.3263359,10.6099898 L25.6779835,10.8017976 L25.3263359,10.9936054 C25.235427,11.0435553 25.1605021,11.1184802 25.1105522,11.2093891 L24.9187444,11.5610367 L24.7269366,11.2093891 C24.6769866,11.1184802 24.6020617,11.0435553 24.5111528,10.9946044 L24.1595052,10.8017976 L24.5111528,10.6099898 L24.5111528,10.6099898 Z" id="Fill-3" sketch:type="MSShapeGroup"></path>
        </g>
        <g id="Imported-Layers-3" sketch:type="MSLayerGroup" transform="translate(1.500000, 80.000000)" fill="#FFFFFF">
            <path d="M29.2034505,22.4601143 C29.0416127,22.2982765 28.795859,22.2553196 28.5880672,22.3532215 C26.6510084,23.2663064 24.5800838,23.7298419 22.4302382,23.7298419 C14.4612243,23.7298419 7.97672262,17.2453403 7.97672262,9.27732532 C7.97672262,7.12648077 8.44125709,5.05455712 9.35434205,3.11949632 C9.45224394,2.91170455 9.40928699,2.66595083 9.24744917,2.50411302 C9.08561136,2.3422752 8.83985764,2.29931825 8.63206587,2.39722014 C3.21649303,4.95166024 -0.283,10.469131 -0.283,16.4531342 C-0.283,25.0205484 6.68701508,31.9895645 15.2534304,31.9895645 C21.2374336,31.9895645 26.7549043,28.4900715 29.3103434,23.0754977 C29.4072463,22.8677059 29.3652883,22.6219522 29.2034505,22.4601143 L29.2034505,22.4601143 Z M15.2534304,30.9046518 C7.2854154,30.9046518 0.801912768,24.4221481 0.801912768,16.4531342 C0.801912768,11.3862119 3.4992097,6.67892927 7.78391584,4.08253122 C7.19150951,5.74386634 6.89280885,7.48512136 6.89280885,9.27732532 C6.89280885,17.8447396 13.8618249,24.8137557 22.4302382,24.8137557 C24.2214432,24.8137557 25.9626982,24.515055 27.6250323,23.9236477 C25.0276353,28.2073548 20.3203526,30.9046518 15.2534304,30.9046518 L15.2534304,30.9046518 Z" id="Fill-1" sketch:type="MSShapeGroup"></path>
            <path d="M14.9037808,4.79781441 L17.2074721,6.05855098 L18.4682087,8.36224236 C18.5631136,8.53606817 18.7459304,8.64396004 18.9437322,8.64396004 C19.1415339,8.64396004 19.3243507,8.53606817 19.4192556,8.36224236 L20.6799922,6.05855098 L22.9836836,4.79781441 C23.1575094,4.70390852 23.2654013,4.52109173 23.2654013,4.32229095 C23.2654013,4.12448918 23.1575094,3.94167238 22.9836836,3.84676749 L20.6799922,2.58702992 L19.4192556,0.283338539 C19.2294458,-0.0653120651 18.6580185,-0.0653120651 18.4682087,0.283338539 L17.2074721,2.58702992 L14.9037808,3.84676749 C14.7299549,3.94167238 14.6220631,4.12448918 14.6220631,4.32229095 C14.6220631,4.52109173 14.7299549,4.70390852 14.9037808,4.79781441 L14.9037808,4.79781441 Z M17.8678104,3.46215293 C17.9587193,3.41220299 18.0336442,3.33827707 18.0835941,3.24636917 L18.9437322,1.67394496 L19.8038702,3.24636917 C19.8538201,3.33827707 19.928745,3.41220299 20.0196539,3.46215293 L21.5920782,4.32229095 L20.0196539,5.18242897 C19.928745,5.23237892 19.8538201,5.30730383 19.8038702,5.39821273 L18.9437322,6.97063694 L18.0835941,5.39821273 C18.0336442,5.30730383 17.9587193,5.23237892 17.8678104,5.18242897 L16.2953862,4.32229095 L17.8678104,3.46215293 L17.8678104,3.46215293 Z" id="Fill-2" sketch:type="MSShapeGroup"></path>
            <path d="M22.4871811,10.8017976 C22.4871811,10.9995994 22.595073,11.1824162 22.7688988,11.2773211 L23.8518136,11.8697274 L24.4432209,12.9516431 C24.5381258,13.125469 24.7209426,13.2333608 24.9197434,13.2333608 C25.1175451,13.2333608 25.3003619,13.125469 25.3952668,12.9516431 L25.9866742,11.8697274 L27.0685899,11.2783201 C27.2434147,11.1824162 27.3513066,10.9995994 27.3513066,10.8017976 C27.3513066,10.6039958 27.2434147,10.421179 27.0685899,10.3252751 L25.9866742,9.7338678 L25.3952668,8.65195203 C25.3003619,8.47912523 25.1175451,8.37023435 24.9197434,8.37023435 C24.7209426,8.37023435 24.5381258,8.47812623 24.4432209,8.65195203 L23.8518136,9.7338678 L22.7688988,10.3262741 C22.595073,10.421179 22.4871811,10.6039958 22.4871811,10.8017976 L22.4871811,10.8017976 Z M24.5111528,10.6099898 C24.6020617,10.5600399 24.6769866,10.485115 24.7269366,10.3942061 L24.9187444,10.0425585 L25.1105522,10.3942061 C25.1605021,10.485115 25.235427,10.5600399 25.3263359,10.6099898 L25.6779835,10.8017976 L25.3263359,10.9936054 C25.235427,11.0435553 25.1605021,11.1184802 25.1105522,11.2093891 L24.9187444,11.5610367 L24.7269366,11.2093891 C24.6769866,11.1184802 24.6020617,11.0435553 24.5111528,10.9946044 L24.1595052,10.8017976 L24.5111528,10.6099898 L24.5111528,10.6099898 Z" id="Fill-3" sketch:type="MSShapeGroup"></path>
        </g>
        <g id="Imported-Layers-4" sketch:type="MSLayerGroup" transform="translate(1.500000, 120.000000)" fill="#206FAC">
            <path d="M29.2034505,22.4601143 C29.0416127,22.2982765 28.795859,22.2553196 28.5880672,22.3532215 C26.6510084,23.2663064 24.5800838,23.7298419 22.4302382,23.7298419 C14.4612243,23.7298419 7.97672262,17.2453403 7.97672262,9.27732532 C7.97672262,7.12648077 8.44125709,5.05455712 9.35434205,3.11949632 C9.45224394,2.91170455 9.40928699,2.66595083 9.24744917,2.50411302 C9.08561136,2.3422752 8.83985764,2.29931825 8.63206587,2.39722014 C3.21649303,4.95166024 -0.283,10.469131 -0.283,16.4531342 C-0.283,25.0205484 6.68701508,31.9895645 15.2534304,31.9895645 C21.2374336,31.9895645 26.7549043,28.4900715 29.3103434,23.0754977 C29.4072463,22.8677059 29.3652883,22.6219522 29.2034505,22.4601143 L29.2034505,22.4601143 Z M15.2534304,30.9046518 C7.2854154,30.9046518 0.801912768,24.4221481 0.801912768,16.4531342 C0.801912768,11.3862119 3.4992097,6.67892927 7.78391584,4.08253122 C7.19150951,5.74386634 6.89280885,7.48512136 6.89280885,9.27732532 C6.89280885,17.8447396 13.8618249,24.8137557 22.4302382,24.8137557 C24.2214432,24.8137557 25.9626982,24.515055 27.6250323,23.9236477 C25.0276353,28.2073548 20.3203526,30.9046518 15.2534304,30.9046518 L15.2534304,30.9046518 Z" id="Fill-1" sketch:type="MSShapeGroup"></path>
            <path d="M14.9037808,4.79781441 L17.2074721,6.05855098 L18.4682087,8.36224236 C18.5631136,8.53606817 18.7459304,8.64396004 18.9437322,8.64396004 C19.1415339,8.64396004 19.3243507,8.53606817 19.4192556,8.36224236 L20.6799922,6.05855098 L22.9836836,4.79781441 C23.1575094,4.70390852 23.2654013,4.52109173 23.2654013,4.32229095 C23.2654013,4.12448918 23.1575094,3.94167238 22.9836836,3.84676749 L20.6799922,2.58702992 L19.4192556,0.283338539 C19.2294458,-0.0653120651 18.6580185,-0.0653120651 18.4682087,0.283338539 L17.2074721,2.58702992 L14.9037808,3.84676749 C14.7299549,3.94167238 14.6220631,4.12448918 14.6220631,4.32229095 C14.6220631,4.52109173 14.7299549,4.70390852 14.9037808,4.79781441 L14.9037808,4.79781441 Z M17.8678104,3.46215293 C17.9587193,3.41220299 18.0336442,3.33827707 18.0835941,3.24636917 L18.9437322,1.67394496 L19.8038702,3.24636917 C19.8538201,3.33827707 19.928745,3.41220299 20.0196539,3.46215293 L21.5920782,4.32229095 L20.0196539,5.18242897 C19.928745,5.23237892 19.8538201,5.30730383 19.8038702,5.39821273 L18.9437322,6.97063694 L18.0835941,5.39821273 C18.0336442,5.30730383 17.9587193,5.23237892 17.8678104,5.18242897 L16.2953862,4.32229095 L17.8678104,3.46215293 L17.8678104,3.46215293 Z" id="Fill-2" sketch:type="MSShapeGroup"></path>
            <path d="M22.4871811,10.8017976 C22.4871811,10.9995994 22.595073,11.1824162 22.7688988,11.2773211 L23.8518136,11.8697274 L24.4432209,12.9516431 C24.5381258,13.125469 24.7209426,13.2333608 24.9197434,13.2333608 C25.1175451,13.2333608 25.3003619,13.125469 25.3952668,12.9516431 L25.9866742,11.8697274 L27.0685899,11.2783201 C27.2434147,11.1824162 27.3513066,10.9995994 27.3513066,10.8017976 C27.3513066,10.6039958 27.2434147,10.421179 27.0685899,10.3252751 L25.9866742,9.7338678 L25.3952668,8.65195203 C25.3003619,8.47912523 25.1175451,8.37023435 24.9197434,8.37023435 C24.7209426,8.37023435 24.5381258,8.47812623 24.4432209,8.65195203 L23.8518136,9.7338678 L22.7688988,10.3262741 C22.595073,10.421179 22.4871811,10.6039958 22.4871811,10.8017976 L22.4871811,10.8017976 Z M24.5111528,10.6099898 C24.6020617,10.5600399 24.6769866,10.485115 24.7269366,10.3942061 L24.9187444,10.0425585 L25.1105522,10.3942061 C25.1605021,10.485115 25.235427,10.5600399 25.3263359,10.6099898 L25.6779835,10.8017976 L25.3263359,10.9936054 C25.235427,11.0435553 25.1605021,11.1184802 25.1105522,11.2093891 L24.9187444,11.5610367 L24.7269366,11.2093891 C24.6769866,11.1184802 24.6020617,11.0435553 24.5111528,10.9946044 L24.1595052,10.8017976 L24.5111528,10.6099898 L24.5111528,10.6099898 Z" id="Fill-3" sketch:type="MSShapeGroup"></path>
        </g>
    </g>
</svg>