<?xml version="1.0" encoding="UTF-8" standalone="no"?>
<svg width="32px" height="232px" viewBox="0 0 32 232" version="1.1" xmlns="http://www.w3.org/2000/svg" xmlns:xlink="http://www.w3.org/1999/xlink" xmlns:sketch="http://www.bohemiancoding.com/sketch/ns">
    <!-- Generator: Sketch 3.0.3 (7891) - http://www.bohemiancoding.com/sketch -->
    <title>snow</title>
    <desc>Created with Sketch.</desc>
    <defs></defs>
    <g id="Weather" stroke="none" stroke-width="1" fill="none" fill-rule="evenodd" sketch:type="MSPage">
        <path d="M29.5990106,23.33 L25.4690106,20.945 L29.2950106,19.92 C29.5570106,19.85 29.7120106,19.581 29.6420106,19.319 C29.5730106,19.057 29.3040106,18.902 29.0410106,18.972 L24.2670106,20.251 L19.1080106,17.273 C19.2650106,16.879 19.3550106,16.45 19.3550106,16 C19.3550106,15.55 19.2660106,15.121 19.1080106,14.728 L24.2680106,11.749 L29.0410106,13.027 C29.0840106,13.038 29.1260106,13.044 29.1680106,13.044 C29.3850106,13.044 29.5830106,12.899 29.6420106,12.68 C29.7120106,12.418 29.5560106,12.149 29.2950106,12.079 L25.4690106,11.055 L29.5990106,8.67 C29.8340106,8.535 29.9140106,8.235 29.7790106,8 C29.6430106,7.765 29.3420106,7.685 29.1080106,7.821 L24.9790106,10.205 L26.0040106,6.379 C26.0740106,6.117 25.9190106,5.848 25.6570106,5.778 C25.3960106,5.708 25.1260106,5.863 25.0560106,6.125 L23.7770106,10.899 L18.6160106,13.879 C18.0830106,13.203 17.3030106,12.734 16.4120106,12.606 L16.4120106,6.646 L19.9070106,3.153 C20.0980106,2.961 20.0980106,2.651 19.9070106,2.459 C19.7150106,2.267 19.4050106,2.267 19.2130106,2.459 L16.4120106,5.259 L16.4120106,0.49 C16.4120106,0.219 16.1930106,0 15.9220106,0 C15.6510106,0 15.4310106,0.219 15.4310106,0.49 L15.4310106,5.259 L12.6300106,2.459 C12.4390106,2.267 12.1280106,2.267 11.9370106,2.459 C11.7450106,2.651 11.7450106,2.961 11.9370106,3.153 L15.4310106,6.646 L15.4310106,12.606 C14.5410106,12.734 13.7610106,13.203 13.2280106,13.878 L8.06701062,10.899 L6.78801062,6.125 C6.71801062,5.863 6.44901062,5.707 6.18701062,5.778 C5.92601062,5.848 5.77101062,6.117 5.84101062,6.379 L6.86601062,10.205 L2.73601062,7.821 C2.50201062,7.685 2.20101062,7.765 2.06601062,8 C1.93001062,8.235 2.01101062,8.535 2.24601062,8.67 L6.37501062,11.055 L2.55001062,12.079 C2.28801062,12.149 2.13301062,12.418 2.20301062,12.68 C2.26101062,12.899 2.46001062,13.044 2.67601062,13.044 C2.71801062,13.044 2.76101062,13.038 2.80401062,13.027 L7.57701062,11.749 L12.7350106,14.727 C12.5770106,15.121 12.4880106,15.55 12.4880106,16 C12.4880106,16.45 12.5780106,16.879 12.7360106,17.273 L7.57701062,20.251 L2.80301062,18.972 C2.54301062,18.903 2.27201062,19.057 2.20201062,19.319 C2.13201062,19.581 2.28801062,19.85 2.54901062,19.92 L6.37601062,20.945 L2.24601062,23.33 C2.01101062,23.465 1.93001062,23.765 2.06601062,24 C2.15701062,24.157 2.32201062,24.245 2.49101062,24.245 C2.57501062,24.245 2.65901062,24.224 2.73601062,24.179 L6.86601062,21.795 L5.84101062,25.621 C5.77101062,25.883 5.92601062,26.152 6.18701062,26.222 C6.23001062,26.234 6.27301062,26.239 6.31501062,26.239 C6.53101062,26.239 6.73001062,26.094 6.78801062,25.875 L8.06701062,21.102 L13.2280106,18.122 C13.7610106,18.798 14.5410106,19.266 15.4310106,19.394 L15.4310106,25.353 L11.9370106,28.848 C11.7450106,29.039 11.7450106,29.35 11.9370106,29.541 C12.0320106,29.637 12.1580106,29.685 12.2840106,29.685 C12.4090106,29.685 12.5350106,29.637 12.6300106,29.541 L15.4310106,26.741 L15.4310106,31.509 C15.4310106,31.78 15.6510106,32 15.9220106,32 C16.1930106,32 16.4120106,31.78 16.4120106,31.509 L16.4120106,26.741 L19.2130106,29.541 C19.3090106,29.637 19.4350106,29.685 19.5600106,29.685 C19.6860106,29.685 19.8110106,29.637 19.9070106,29.541 C20.0980106,29.35 20.0980106,29.039 19.9070106,28.848 L16.4120106,25.353 L16.4120106,19.394 C17.3020106,19.266 18.0830106,18.797 18.6160106,18.122 L23.7770106,21.102 L25.0560106,25.875 C25.1150106,26.095 25.3130106,26.239 25.5300106,26.239 C25.5720106,26.239 25.6140106,26.234 25.6570106,26.222 C25.9190106,26.152 26.0740106,25.883 26.0040106,25.621 L24.9790106,21.795 L29.1080106,24.179 C29.1860106,24.224 29.2700106,24.245 29.3530106,24.245 C29.5230106,24.245 29.6880106,24.157 29.7790106,24 C29.9140106,23.765 29.8340106,23.465 29.5990106,23.33 L29.5990106,23.33 Z M15.9220106,18.453 C14.5690106,18.453 13.4690106,17.352 13.4690106,16 C13.4690106,14.648 14.5690106,13.547 15.9220106,13.547 C17.2740106,13.547 18.3740106,14.648 18.3740106,16 C18.3740106,17.352 17.2740106,18.453 15.9220106,18.453 L15.9220106,18.453 Z" id="Imported-Layers" fill="#3B444F" sketch:type="MSShapeGroup"></path>
        <path d="M29.5990106,63.33 L25.4690106,60.945 L29.2950106,59.92 C29.5570106,59.85 29.7120106,59.581 29.6420106,59.319 C29.5730106,59.057 29.3040106,58.902 29.0410106,58.972 L24.2670106,60.251 L19.1080106,57.273 C19.2650106,56.879 19.3550106,56.45 19.3550106,56 C19.3550106,55.55 19.2660106,55.121 19.1080106,54.728 L24.2680106,51.749 L29.0410106,53.027 C29.0840106,53.038 29.1260106,53.044 29.1680106,53.044 C29.3850106,53.044 29.5830106,52.899 29.6420106,52.68 C29.7120106,52.418 29.5560106,52.149 29.2950106,52.079 L25.4690106,51.055 L29.5990106,48.67 C29.8340106,48.535 29.9140106,48.235 29.7790106,48 C29.6430106,47.765 29.3420106,47.685 29.1080106,47.821 L24.9790106,50.205 L26.0040106,46.379 C26.0740106,46.117 25.9190106,45.848 25.6570106,45.778 C25.3960106,45.708 25.1260106,45.863 25.0560106,46.125 L23.7770106,50.899 L18.6160106,53.879 C18.0830106,53.203 17.3030106,52.734 16.4120106,52.606 L16.4120106,46.646 L19.9070106,43.153 C20.0980106,42.961 20.0980106,42.651 19.9070106,42.459 C19.7150106,42.267 19.4050106,42.267 19.2130106,42.459 L16.4120106,45.259 L16.4120106,40.49 C16.4120106,40.219 16.1930106,40 15.9220106,40 C15.6510106,40 15.4310106,40.219 15.4310106,40.49 L15.4310106,45.259 L12.6300106,42.459 C12.4390106,42.267 12.1280106,42.267 11.9370106,42.459 C11.7450106,42.651 11.7450106,42.961 11.9370106,43.153 L15.4310106,46.646 L15.4310106,52.606 C14.5410106,52.734 13.7610106,53.203 13.2280106,53.878 L8.06701062,50.899 L6.78801062,46.125 C6.71801062,45.863 6.44901062,45.707 6.18701062,45.778 C5.92601062,45.848 5.77101062,46.117 5.84101062,46.379 L6.86601062,50.205 L2.73601062,47.821 C2.50201062,47.685 2.20101062,47.765 2.06601062,48 C1.93001062,48.235 2.01101062,48.535 2.24601062,48.67 L6.37501062,51.055 L2.55001062,52.079 C2.28801062,52.149 2.13301062,52.418 2.20301062,52.68 C2.26101062,52.899 2.46001062,53.044 2.67601062,53.044 C2.71801062,53.044 2.76101062,53.038 2.80401062,53.027 L7.57701062,51.749 L12.7350106,54.727 C12.5770106,55.121 12.4880106,55.55 12.4880106,56 C12.4880106,56.45 12.5780106,56.879 12.7360106,57.273 L7.57701062,60.251 L2.80301062,58.972 C2.54301062,58.903 2.27201062,59.057 2.20201062,59.319 C2.13201062,59.581 2.28801062,59.85 2.54901062,59.92 L6.37601062,60.945 L2.24601062,63.33 C2.01101062,63.465 1.93001062,63.765 2.06601062,64 C2.15701062,64.157 2.32201062,64.245 2.49101062,64.245 C2.57501062,64.245 2.65901062,64.224 2.73601062,64.179 L6.86601062,61.795 L5.84101062,65.621 C5.77101062,65.883 5.92601062,66.152 6.18701062,66.222 C6.23001062,66.234 6.27301062,66.239 6.31501062,66.239 C6.53101062,66.239 6.73001062,66.094 6.78801062,65.875 L8.06701062,61.102 L13.2280106,58.122 C13.7610106,58.798 14.5410106,59.266 15.4310106,59.394 L15.4310106,65.353 L11.9370106,68.848 C11.7450106,69.039 11.7450106,69.35 11.9370106,69.541 C12.0320106,69.637 12.1580106,69.685 12.2840106,69.685 C12.4090106,69.685 12.5350106,69.637 12.6300106,69.541 L15.4310106,66.741 L15.4310106,71.509 C15.4310106,71.78 15.6510106,72 15.9220106,72 C16.1930106,72 16.4120106,71.78 16.4120106,71.509 L16.4120106,66.741 L19.2130106,69.541 C19.3090106,69.637 19.4350106,69.685 19.5600106,69.685 C19.6860106,69.685 19.8110106,69.637 19.9070106,69.541 C20.0980106,69.35 20.0980106,69.039 19.9070106,68.848 L16.4120106,65.353 L16.4120106,59.394 C17.3020106,59.266 18.0830106,58.797 18.6160106,58.122 L23.7770106,61.102 L25.0560106,65.875 C25.1150106,66.095 25.3130106,66.239 25.5300106,66.239 C25.5720106,66.239 25.6140106,66.234 25.6570106,66.222 C25.9190106,66.152 26.0740106,65.883 26.0040106,65.621 L24.9790106,61.795 L29.1080106,64.179 C29.1860106,64.224 29.2700106,64.245 29.3530106,64.245 C29.5230106,64.245 29.6880106,64.157 29.7790106,64 C29.9140106,63.765 29.8340106,63.465 29.5990106,63.33 L29.5990106,63.33 Z M15.9220106,58.453 C14.5690106,58.453 13.4690106,57.352 13.4690106,56 C13.4690106,54.648 14.5690106,53.547 15.9220106,53.547 C17.2740106,53.547 18.3740106,54.648 18.3740106,56 C18.3740106,57.352 17.2740106,58.453 15.9220106,58.453 L15.9220106,58.453 Z" id="Imported-Layers-5" fill="#67737B" sketch:type="MSShapeGroup"></path>
        <path d="M29.5990106,103.33 L25.4690106,100.945 L29.2950106,99.92 C29.5570106,99.85 29.7120106,99.581 29.6420106,99.319 C29.5730106,99.057 29.3040106,98.902 29.0410106,98.972 L24.2670106,100.251 L19.1080106,97.273 C19.2650106,96.879 19.3550106,96.45 19.3550106,96 C19.3550106,95.55 19.2660106,95.121 19.1080106,94.728 L24.2680106,91.749 L29.0410106,93.027 C29.0840106,93.038 29.1260106,93.044 29.1680106,93.044 C29.3850106,93.044 29.5830106,92.899 29.6420106,92.68 C29.7120106,92.418 29.5560106,92.149 29.2950106,92.079 L25.4690106,91.055 L29.5990106,88.67 C29.8340106,88.535 29.9140106,88.235 29.7790106,88 C29.6430106,87.765 29.3420106,87.685 29.1080106,87.821 L24.9790106,90.205 L26.0040106,86.379 C26.0740106,86.117 25.9190106,85.848 25.6570106,85.778 C25.3960106,85.708 25.1260106,85.863 25.0560106,86.125 L23.7770106,90.899 L18.6160106,93.879 C18.0830106,93.203 17.3030106,92.734 16.4120106,92.606 L16.4120106,86.646 L19.9070106,83.153 C20.0980106,82.961 20.0980106,82.651 19.9070106,82.459 C19.7150106,82.267 19.4050106,82.267 19.2130106,82.459 L16.4120106,85.259 L16.4120106,80.49 C16.4120106,80.219 16.1930106,80 15.9220106,80 C15.6510106,80 15.4310106,80.219 15.4310106,80.49 L15.4310106,85.259 L12.6300106,82.459 C12.4390106,82.267 12.1280106,82.267 11.9370106,82.459 C11.7450106,82.651 11.7450106,82.961 11.9370106,83.153 L15.4310106,86.646 L15.4310106,92.606 C14.5410106,92.734 13.7610106,93.203 13.2280106,93.878 L8.06701062,90.899 L6.78801062,86.125 C6.71801062,85.863 6.44901062,85.707 6.18701062,85.778 C5.92601062,85.848 5.77101062,86.117 5.84101062,86.379 L6.86601062,90.205 L2.73601062,87.821 C2.50201062,87.685 2.20101062,87.765 2.06601062,88 C1.93001062,88.235 2.01101062,88.535 2.24601062,88.67 L6.37501062,91.055 L2.55001062,92.079 C2.28801062,92.149 2.13301062,92.418 2.20301062,92.68 C2.26101062,92.899 2.46001062,93.044 2.67601062,93.044 C2.71801062,93.044 2.76101062,93.038 2.80401062,93.027 L7.57701062,91.749 L12.7350106,94.727 C12.5770106,95.121 12.4880106,95.55 12.4880106,96 C12.4880106,96.45 12.5780106,96.879 12.7360106,97.273 L7.57701062,100.251 L2.80301062,98.972 C2.54301062,98.903 2.27201062,99.057 2.20201062,99.319 C2.13201062,99.581 2.28801062,99.85 2.54901062,99.92 L6.37601062,100.945 L2.24601062,103.33 C2.01101062,103.465 1.93001062,103.765 2.06601062,104 C2.15701062,104.157 2.32201062,104.245 2.49101062,104.245 C2.57501062,104.245 2.65901062,104.224 2.73601062,104.179 L6.86601062,101.795 L5.84101062,105.621 C5.77101062,105.883 5.92601062,106.152 6.18701062,106.222 C6.23001062,106.234 6.27301062,106.239 6.31501062,106.239 C6.53101062,106.239 6.73001062,106.094 6.78801062,105.875 L8.06701062,101.102 L13.2280106,98.122 C13.7610106,98.798 14.5410106,99.266 15.4310106,99.394 L15.4310106,105.353 L11.9370106,108.848 C11.7450106,109.039 11.7450106,109.35 11.9370106,109.541 C12.0320106,109.637 12.1580106,109.685 12.2840106,109.685 C12.4090106,109.685 12.5350106,109.637 12.6300106,109.541 L15.4310106,106.741 L15.4310106,111.509 C15.4310106,111.78 15.6510106,112 15.9220106,112 C16.1930106,112 16.4120106,111.78 16.4120106,111.509 L16.4120106,106.741 L19.2130106,109.541 C19.3090106,109.637 19.4350106,109.685 19.5600106,109.685 C19.6860106,109.685 19.8110106,109.637 19.9070106,109.541 C20.0980106,109.35 20.0980106,109.039 19.9070106,108.848 L16.4120106,105.353 L16.4120106,99.394 C17.3020106,99.266 18.0830106,98.797 18.6160106,98.122 L23.7770106,101.102 L25.0560106,105.875 C25.1150106,106.095 25.3130106,106.239 25.5300106,106.239 C25.5720106,106.239 25.6140106,106.234 25.6570106,106.222 C25.9190106,106.152 26.0740106,105.883 26.0040106,105.621 L24.9790106,101.795 L29.1080106,104.179 C29.1860106,104.224 29.2700106,104.245 29.3530106,104.245 C29.5230106,104.245 29.6880106,104.157 29.7790106,104 C29.9140106,103.765 29.8340106,103.465 29.5990106,103.33 L29.5990106,103.33 Z M15.9220106,98.453 C14.5690106,98.453 13.4690106,97.352 13.4690106,96 C13.4690106,94.648 14.5690106,93.547 15.9220106,93.547 C17.2740106,93.547 18.3740106,94.648 18.3740106,96 C18.3740106,97.352 17.2740106,98.453 15.9220106,98.453 L15.9220106,98.453 Z" id="Imported-Layers-6" fill="#FFFFFF" sketch:type="MSShapeGroup"></path>
        <path d="M29.5990106,143.33 L25.4690106,140.945 L29.2950106,139.92 C29.5570106,139.85 29.7120106,139.581 29.6420106,139.319 C29.5730106,139.057 29.3040106,138.902 29.0410106,138.972 L24.2670106,140.251 L19.1080106,137.273 C19.2650106,136.879 19.3550106,136.45 19.3550106,136 C19.3550106,135.55 19.2660106,135.121 19.1080106,134.728 L24.2680106,131.749 L29.0410106,133.027 C29.0840106,133.038 29.1260106,133.044 29.1680106,133.044 C29.3850106,133.044 29.5830106,132.899 29.6420106,132.68 C29.7120106,132.418 29.5560106,132.149 29.2950106,132.079 L25.4690106,131.055 L29.5990106,128.67 C29.8340106,128.535 29.9140106,128.235 29.7790106,128 C29.6430106,127.765 29.3420106,127.685 29.1080106,127.821 L24.9790106,130.205 L26.0040106,126.379 C26.0740106,126.117 25.9190106,125.848 25.6570106,125.778 C25.3960106,125.708 25.1260106,125.863 25.0560106,126.125 L23.7770106,130.899 L18.6160106,133.879 C18.0830106,133.203 17.3030106,132.734 16.4120106,132.606 L16.4120106,126.646 L19.9070106,123.153 C20.0980106,122.961 20.0980106,122.651 19.9070106,122.459 C19.7150106,122.267 19.4050106,122.267 19.2130106,122.459 L16.4120106,125.259 L16.4120106,120.49 C16.4120106,120.219 16.1930106,120 15.9220106,120 C15.6510106,120 15.4310106,120.219 15.4310106,120.49 L15.4310106,125.259 L12.6300106,122.459 C12.4390106,122.267 12.1280106,122.267 11.9370106,122.459 C11.7450106,122.651 11.7450106,122.961 11.9370106,123.153 L15.4310106,126.646 L15.4310106,132.606 C14.5410106,132.734 13.7610106,133.203 13.2280106,133.878 L8.06701062,130.899 L6.78801062,126.125 C6.71801062,125.863 6.44901062,125.707 6.18701062,125.778 C5.92601062,125.848 5.77101062,126.117 5.84101062,126.379 L6.86601062,130.205 L2.73601062,127.821 C2.50201062,127.685 2.20101062,127.765 2.06601062,128 C1.93001062,128.235 2.01101062,128.535 2.24601062,128.67 L6.37501062,131.055 L2.55001062,132.079 C2.28801062,132.149 2.13301062,132.418 2.20301062,132.68 C2.26101062,132.899 2.46001062,133.044 2.67601062,133.044 C2.71801062,133.044 2.76101062,133.038 2.80401062,133.027 L7.57701062,131.749 L12.7350106,134.727 C12.5770106,135.121 12.4880106,135.55 12.4880106,136 C12.4880106,136.45 12.5780106,136.879 12.7360106,137.273 L7.57701062,140.251 L2.80301062,138.972 C2.54301062,138.903 2.27201062,139.057 2.20201062,139.319 C2.13201062,139.581 2.28801062,139.85 2.54901062,139.92 L6.37601062,140.945 L2.24601062,143.33 C2.01101062,143.465 1.93001062,143.765 2.06601062,144 C2.15701062,144.157 2.32201062,144.245 2.49101062,144.245 C2.57501062,144.245 2.65901062,144.224 2.73601062,144.179 L6.86601062,141.795 L5.84101062,145.621 C5.77101062,145.883 5.92601062,146.152 6.18701062,146.222 C6.23001062,146.234 6.27301062,146.239 6.31501062,146.239 C6.53101062,146.239 6.73001062,146.094 6.78801062,145.875 L8.06701062,141.102 L13.2280106,138.122 C13.7610106,138.798 14.5410106,139.266 15.4310106,139.394 L15.4310106,145.353 L11.9370106,148.848 C11.7450106,149.039 11.7450106,149.35 11.9370106,149.541 C12.0320106,149.637 12.1580106,149.685 12.2840106,149.685 C12.4090106,149.685 12.5350106,149.637 12.6300106,149.541 L15.4310106,146.741 L15.4310106,151.509 C15.4310106,151.78 15.6510106,152 15.9220106,152 C16.1930106,152 16.4120106,151.78 16.4120106,151.509 L16.4120106,146.741 L19.2130106,149.541 C19.3090106,149.637 19.4350106,149.685 19.5600106,149.685 C19.6860106,149.685 19.8110106,149.637 19.9070106,149.541 C20.0980106,149.35 20.0980106,149.039 19.9070106,148.848 L16.4120106,145.353 L16.4120106,139.394 C17.3020106,139.266 18.0830106,138.797 18.6160106,138.122 L23.7770106,141.102 L25.0560106,145.875 C25.1150106,146.095 25.3130106,146.239 25.5300106,146.239 C25.5720106,146.239 25.6140106,146.234 25.6570106,146.222 C25.9190106,146.152 26.0740106,145.883 26.0040106,145.621 L24.9790106,141.795 L29.1080106,144.179 C29.1860106,144.224 29.2700106,144.245 29.3530106,144.245 C29.5230106,144.245 29.6880106,144.157 29.7790106,144 C29.9140106,143.765 29.8340106,143.465 29.5990106,143.33 L29.5990106,143.33 Z M15.9220106,138.453 C14.5690106,138.453 13.4690106,137.352 13.4690106,136 C13.4690106,134.648 14.5690106,133.547 15.9220106,133.547 C17.2740106,133.547 18.3740106,134.648 18.3740106,136 C18.3740106,137.352 17.2740106,138.453 15.9220106,138.453 L15.9220106,138.453 Z" id="Imported-Layers-7" fill="#206FAC" sketch:type="MSShapeGroup"></path>
    </g>
</svg>