<?xml version="1.0" encoding="UTF-8" standalone="no"?>
<svg width="32px" height="232px" viewBox="0 0 32 232" version="1.1" xmlns="http://www.w3.org/2000/svg" xmlns:xlink="http://www.w3.org/1999/xlink" xmlns:sketch="http://www.bohemiancoding.com/sketch/ns">
    <!-- Generator: Sketch 3.0.3 (7891) - http://www.bohemiancoding.com/sketch -->
    <title>sunny-clear</title>
    <desc>Created with Sketch.</desc>
    <defs></defs>
    <g id="Weather" stroke="none" stroke-width="1" fill="none" fill-rule="evenodd" sketch:type="MSPage">
        <g id="sunshine--dark-grey" sketch:type="MSLayerGroup" fill="#3B444F">
            <path d="M15.989619,24.2117322 C11.4623804,24.2117322 7.77899993,20.5288121 7.77899993,16.0021395 C7.77899993,11.4754669 11.4623804,7.79254692 15.989619,7.79254692 C20.5168576,7.79254692 24.2002381,11.4754669 24.2002381,16.0021395 C24.2002381,20.5288121 20.5168576,24.2117322 15.989619,24.2117322 L15.989619,24.2117322 Z M15.989619,8.77325934 C12.0032895,8.77325934 8.75983497,12.0153086 8.75983497,16.0021395 C8.75983497,19.9879707 12.0032895,23.23002 15.989619,23.23002 C19.9759485,23.23002 23.219403,19.9879707 23.219403,16.0021395 C23.219403,12.0153086 19.9759485,8.77325934 15.989619,8.77325934 L15.989619,8.77325934 Z" id="Fill-1" sketch:type="MSShapeGroup"></path>
            <path d="M15.989619,6.86481897 C15.7186646,6.86481897 15.4997014,6.64588317 15.4997014,6.37496262 L15.4997014,0.496686367 C15.4997014,0.225765812 15.7186646,0.00683001279 15.989619,0.00683001279 C16.2605734,0.00683001279 16.4805364,0.225765812 16.4805364,0.496686367 L16.4805364,6.37496262 C16.4805364,6.64588317 16.2605734,6.86481897 15.989619,6.86481897" id="Fill-2" sketch:type="MSShapeGroup"></path>
            <path d="M15.989619,31.9964494 C15.7186646,31.9964494 15.4997014,31.7775136 15.4997014,31.506593 L15.4997014,25.6293165 C15.4997014,25.3583959 15.7186646,25.1384604 15.989619,25.1384604 C16.2605734,25.1384604 16.4805364,25.3583959 16.4805364,25.6293165 L16.4805364,31.506593 C16.4805364,31.7775136 16.2605734,31.9964494 15.989619,31.9964494" id="Fill-3" sketch:type="MSShapeGroup"></path>
            <path d="M31.496011,16.4919959 L25.6179996,16.4919959 C25.3470452,16.4919959 25.1270822,16.2730601 25.1270822,16.0021395 C25.1270822,15.731219 25.3470452,15.5112835 25.6179996,15.5112835 L31.496011,15.5112835 C31.7679652,15.5112835 31.9869284,15.731219 31.9869284,16.0021395 C31.9869284,16.2730601 31.7679652,16.4919959 31.496011,16.4919959" id="Fill-4" sketch:type="MSShapeGroup"></path>
            <path d="M6.36123839,16.4919959 L0.483227003,16.4919959 C0.211272743,16.4919959 -0.00769042969,16.2730601 -0.00769042969,16.0021395 C-0.00769042969,15.731219 0.211272743,15.5112835 0.483227003,15.5112835 L6.36123839,15.5112835 C6.63219281,15.5112835 6.85215582,15.731219 6.85215582,16.0021395 C6.85215582,16.2730601 6.63219281,16.4919959 6.36123839,16.4919959" id="Fill-5" sketch:type="MSShapeGroup"></path>
            <path d="M22.797474,9.68499198 C22.672495,9.68499198 22.5465162,9.63700605 22.4515322,9.5410342 C22.2595645,9.35009019 22.2595645,9.03918136 22.4515322,8.84723765 L26.6078331,4.69145629 C26.7998008,4.49951258 27.1097487,4.49951258 27.3017164,4.69145629 C27.4926843,4.8834 27.4926843,5.19330913 27.3017164,5.38525284 L23.1444156,9.5410342 C23.0484318,9.63700605 22.9234528,9.68499198 22.797474,9.68499198" id="Fill-6" sketch:type="MSShapeGroup"></path>
            <path d="M5.02446322,27.4557809 C4.89948424,27.4557809 4.77350543,27.4077949 4.67752157,27.3118231 C4.48655369,27.1208791 4.48655369,26.8099702 4.67752157,26.6190262 L8.83482236,22.4622452 C9.02579024,22.2713012 9.33673794,22.2713012 9.52770582,22.4622452 C9.71967353,22.6541889 9.71967353,22.964098 9.52770582,23.1560417 L5.37140486,27.3118231 C5.27542101,27.4077949 5.15044203,27.4557809 5.02446322,27.4557809" id="Fill-7" sketch:type="MSShapeGroup"></path>
            <path d="M26.9547748,27.4557809 C26.828796,27.4557809 26.703817,27.4077949 26.6078331,27.3118231 L22.4515322,23.1560417 C22.2595645,22.964098 22.2595645,22.6541889 22.4515322,22.4622452 C22.6425001,22.2713012 22.9534478,22.2713012 23.1444156,22.4622452 L27.3017164,26.6190262 C27.4926843,26.8099702 27.4926843,27.1208791 27.3017164,27.3118231 C27.2057326,27.4077949 27.0797538,27.4557809 26.9547748,27.4557809" id="Fill-8" sketch:type="MSShapeGroup"></path>
            <path d="M9.181764,9.68499198 C9.05578519,9.68499198 8.93080621,9.63700605 8.83482236,9.5410342 L4.67752157,5.38525284 C4.48655369,5.19330913 4.48655369,4.8834 4.67752157,4.69145629 C4.86948928,4.49951258 5.17943715,4.49951258 5.37140486,4.69145629 L9.52770582,8.84723765 C9.71967353,9.03918136 9.71967353,9.35009019 9.52770582,9.5410342 C9.4327218,9.63700605 9.30674298,9.68499198 9.181764,9.68499198" id="Fill-9" sketch:type="MSShapeGroup"></path>
        </g>
        <g id="sunshine--light-grey" sketch:type="MSLayerGroup" transform="translate(0.000000, 40.000000)" fill="#67737B">
            <path d="M15.989619,24.2117322 C11.4623804,24.2117322 7.77899993,20.5288121 7.77899993,16.0021395 C7.77899993,11.4754669 11.4623804,7.79254692 15.989619,7.79254692 C20.5168576,7.79254692 24.2002381,11.4754669 24.2002381,16.0021395 C24.2002381,20.5288121 20.5168576,24.2117322 15.989619,24.2117322 L15.989619,24.2117322 Z M15.989619,8.77325934 C12.0032895,8.77325934 8.75983497,12.0153086 8.75983497,16.0021395 C8.75983497,19.9879707 12.0032895,23.23002 15.989619,23.23002 C19.9759485,23.23002 23.219403,19.9879707 23.219403,16.0021395 C23.219403,12.0153086 19.9759485,8.77325934 15.989619,8.77325934 L15.989619,8.77325934 Z" id="Fill-1" sketch:type="MSShapeGroup"></path>
            <path d="M15.989619,6.86481897 C15.7186646,6.86481897 15.4997014,6.64588317 15.4997014,6.37496262 L15.4997014,0.496686367 C15.4997014,0.225765812 15.7186646,0.00683001279 15.989619,0.00683001279 C16.2605734,0.00683001279 16.4805364,0.225765812 16.4805364,0.496686367 L16.4805364,6.37496262 C16.4805364,6.64588317 16.2605734,6.86481897 15.989619,6.86481897" id="Fill-2" sketch:type="MSShapeGroup"></path>
            <path d="M15.989619,31.9964494 C15.7186646,31.9964494 15.4997014,31.7775136 15.4997014,31.506593 L15.4997014,25.6293165 C15.4997014,25.3583959 15.7186646,25.1384604 15.989619,25.1384604 C16.2605734,25.1384604 16.4805364,25.3583959 16.4805364,25.6293165 L16.4805364,31.506593 C16.4805364,31.7775136 16.2605734,31.9964494 15.989619,31.9964494" id="Fill-3" sketch:type="MSShapeGroup"></path>
            <path d="M31.496011,16.4919959 L25.6179996,16.4919959 C25.3470452,16.4919959 25.1270822,16.2730601 25.1270822,16.0021395 C25.1270822,15.731219 25.3470452,15.5112835 25.6179996,15.5112835 L31.496011,15.5112835 C31.7679652,15.5112835 31.9869284,15.731219 31.9869284,16.0021395 C31.9869284,16.2730601 31.7679652,16.4919959 31.496011,16.4919959" id="Fill-4" sketch:type="MSShapeGroup"></path>
            <path d="M6.36123839,16.4919959 L0.483227003,16.4919959 C0.211272743,16.4919959 -0.00769042969,16.2730601 -0.00769042969,16.0021395 C-0.00769042969,15.731219 0.211272743,15.5112835 0.483227003,15.5112835 L6.36123839,15.5112835 C6.63219281,15.5112835 6.85215582,15.731219 6.85215582,16.0021395 C6.85215582,16.2730601 6.63219281,16.4919959 6.36123839,16.4919959" id="Fill-5" sketch:type="MSShapeGroup"></path>
            <path d="M22.797474,9.68499198 C22.672495,9.68499198 22.5465162,9.63700605 22.4515322,9.5410342 C22.2595645,9.35009019 22.2595645,9.03918136 22.4515322,8.84723765 L26.6078331,4.69145629 C26.7998008,4.49951258 27.1097487,4.49951258 27.3017164,4.69145629 C27.4926843,4.8834 27.4926843,5.19330913 27.3017164,5.38525284 L23.1444156,9.5410342 C23.0484318,9.63700605 22.9234528,9.68499198 22.797474,9.68499198" id="Fill-6" sketch:type="MSShapeGroup"></path>
            <path d="M5.02446322,27.4557809 C4.89948424,27.4557809 4.77350543,27.4077949 4.67752157,27.3118231 C4.48655369,27.1208791 4.48655369,26.8099702 4.67752157,26.6190262 L8.83482236,22.4622452 C9.02579024,22.2713012 9.33673794,22.2713012 9.52770582,22.4622452 C9.71967353,22.6541889 9.71967353,22.964098 9.52770582,23.1560417 L5.37140486,27.3118231 C5.27542101,27.4077949 5.15044203,27.4557809 5.02446322,27.4557809" id="Fill-7" sketch:type="MSShapeGroup"></path>
            <path d="M26.9547748,27.4557809 C26.828796,27.4557809 26.703817,27.4077949 26.6078331,27.3118231 L22.4515322,23.1560417 C22.2595645,22.964098 22.2595645,22.6541889 22.4515322,22.4622452 C22.6425001,22.2713012 22.9534478,22.2713012 23.1444156,22.4622452 L27.3017164,26.6190262 C27.4926843,26.8099702 27.4926843,27.1208791 27.3017164,27.3118231 C27.2057326,27.4077949 27.0797538,27.4557809 26.9547748,27.4557809" id="Fill-8" sketch:type="MSShapeGroup"></path>
            <path d="M9.181764,9.68499198 C9.05578519,9.68499198 8.93080621,9.63700605 8.83482236,9.5410342 L4.67752157,5.38525284 C4.48655369,5.19330913 4.48655369,4.8834 4.67752157,4.69145629 C4.86948928,4.49951258 5.17943715,4.49951258 5.37140486,4.69145629 L9.52770582,8.84723765 C9.71967353,9.03918136 9.71967353,9.35009019 9.52770582,9.5410342 C9.4327218,9.63700605 9.30674298,9.68499198 9.181764,9.68499198" id="Fill-9" sketch:type="MSShapeGroup"></path>
        </g>
        <g id="sunshine--white" sketch:type="MSLayerGroup" transform="translate(0.000000, 80.000000)" fill="#FFFFFF">
            <path d="M15.989619,24.2117322 C11.4623804,24.2117322 7.77899993,20.5288121 7.77899993,16.0021395 C7.77899993,11.4754669 11.4623804,7.79254692 15.989619,7.79254692 C20.5168576,7.79254692 24.2002381,11.4754669 24.2002381,16.0021395 C24.2002381,20.5288121 20.5168576,24.2117322 15.989619,24.2117322 L15.989619,24.2117322 Z M15.989619,8.77325934 C12.0032895,8.77325934 8.75983497,12.0153086 8.75983497,16.0021395 C8.75983497,19.9879707 12.0032895,23.23002 15.989619,23.23002 C19.9759485,23.23002 23.219403,19.9879707 23.219403,16.0021395 C23.219403,12.0153086 19.9759485,8.77325934 15.989619,8.77325934 L15.989619,8.77325934 Z" id="Fill-1" sketch:type="MSShapeGroup"></path>
            <path d="M15.989619,6.86481897 C15.7186646,6.86481897 15.4997014,6.64588317 15.4997014,6.37496262 L15.4997014,0.496686367 C15.4997014,0.225765812 15.7186646,0.00683001279 15.989619,0.00683001279 C16.2605734,0.00683001279 16.4805364,0.225765812 16.4805364,0.496686367 L16.4805364,6.37496262 C16.4805364,6.64588317 16.2605734,6.86481897 15.989619,6.86481897" id="Fill-2" sketch:type="MSShapeGroup"></path>
            <path d="M15.989619,31.9964494 C15.7186646,31.9964494 15.4997014,31.7775136 15.4997014,31.506593 L15.4997014,25.6293165 C15.4997014,25.3583959 15.7186646,25.1384604 15.989619,25.1384604 C16.2605734,25.1384604 16.4805364,25.3583959 16.4805364,25.6293165 L16.4805364,31.506593 C16.4805364,31.7775136 16.2605734,31.9964494 15.989619,31.9964494" id="Fill-3" sketch:type="MSShapeGroup"></path>
            <path d="M31.496011,16.4919959 L25.6179996,16.4919959 C25.3470452,16.4919959 25.1270822,16.2730601 25.1270822,16.0021395 C25.1270822,15.731219 25.3470452,15.5112835 25.6179996,15.5112835 L31.496011,15.5112835 C31.7679652,15.5112835 31.9869284,15.731219 31.9869284,16.0021395 C31.9869284,16.2730601 31.7679652,16.4919959 31.496011,16.4919959" id="Fill-4" sketch:type="MSShapeGroup"></path>
            <path d="M6.36123839,16.4919959 L0.483227003,16.4919959 C0.211272743,16.4919959 -0.00769042969,16.2730601 -0.00769042969,16.0021395 C-0.00769042969,15.731219 0.211272743,15.5112835 0.483227003,15.5112835 L6.36123839,15.5112835 C6.63219281,15.5112835 6.85215582,15.731219 6.85215582,16.0021395 C6.85215582,16.2730601 6.63219281,16.4919959 6.36123839,16.4919959" id="Fill-5" sketch:type="MSShapeGroup"></path>
            <path d="M22.797474,9.68499198 C22.672495,9.68499198 22.5465162,9.63700605 22.4515322,9.5410342 C22.2595645,9.35009019 22.2595645,9.03918136 22.4515322,8.84723765 L26.6078331,4.69145629 C26.7998008,4.49951258 27.1097487,4.49951258 27.3017164,4.69145629 C27.4926843,4.8834 27.4926843,5.19330913 27.3017164,5.38525284 L23.1444156,9.5410342 C23.0484318,9.63700605 22.9234528,9.68499198 22.797474,9.68499198" id="Fill-6" sketch:type="MSShapeGroup"></path>
            <path d="M5.02446322,27.4557809 C4.89948424,27.4557809 4.77350543,27.4077949 4.67752157,27.3118231 C4.48655369,27.1208791 4.48655369,26.8099702 4.67752157,26.6190262 L8.83482236,22.4622452 C9.02579024,22.2713012 9.33673794,22.2713012 9.52770582,22.4622452 C9.71967353,22.6541889 9.71967353,22.964098 9.52770582,23.1560417 L5.37140486,27.3118231 C5.27542101,27.4077949 5.15044203,27.4557809 5.02446322,27.4557809" id="Fill-7" sketch:type="MSShapeGroup"></path>
            <path d="M26.9547748,27.4557809 C26.828796,27.4557809 26.703817,27.4077949 26.6078331,27.3118231 L22.4515322,23.1560417 C22.2595645,22.964098 22.2595645,22.6541889 22.4515322,22.4622452 C22.6425001,22.2713012 22.9534478,22.2713012 23.1444156,22.4622452 L27.3017164,26.6190262 C27.4926843,26.8099702 27.4926843,27.1208791 27.3017164,27.3118231 C27.2057326,27.4077949 27.0797538,27.4557809 26.9547748,27.4557809" id="Fill-8" sketch:type="MSShapeGroup"></path>
            <path d="M9.181764,9.68499198 C9.05578519,9.68499198 8.93080621,9.63700605 8.83482236,9.5410342 L4.67752157,5.38525284 C4.48655369,5.19330913 4.48655369,4.8834 4.67752157,4.69145629 C4.86948928,4.49951258 5.17943715,4.49951258 5.37140486,4.69145629 L9.52770582,8.84723765 C9.71967353,9.03918136 9.71967353,9.35009019 9.52770582,9.5410342 C9.4327218,9.63700605 9.30674298,9.68499198 9.181764,9.68499198" id="Fill-9" sketch:type="MSShapeGroup"></path>
        </g>
        <g id="sunshine--blue" sketch:type="MSLayerGroup" transform="translate(0.000000, 120.000000)" fill="#206FAC">
            <path d="M15.989619,24.2117322 C11.4623804,24.2117322 7.77899993,20.5288121 7.77899993,16.0021395 C7.77899993,11.4754669 11.4623804,7.79254692 15.989619,7.79254692 C20.5168576,7.79254692 24.2002381,11.4754669 24.2002381,16.0021395 C24.2002381,20.5288121 20.5168576,24.2117322 15.989619,24.2117322 L15.989619,24.2117322 Z M15.989619,8.77325934 C12.0032895,8.77325934 8.75983497,12.0153086 8.75983497,16.0021395 C8.75983497,19.9879707 12.0032895,23.23002 15.989619,23.23002 C19.9759485,23.23002 23.219403,19.9879707 23.219403,16.0021395 C23.219403,12.0153086 19.9759485,8.77325934 15.989619,8.77325934 L15.989619,8.77325934 Z" id="Fill-1" sketch:type="MSShapeGroup"></path>
            <path d="M15.989619,6.86481897 C15.7186646,6.86481897 15.4997014,6.64588317 15.4997014,6.37496262 L15.4997014,0.496686367 C15.4997014,0.225765812 15.7186646,0.00683001279 15.989619,0.00683001279 C16.2605734,0.00683001279 16.4805364,0.225765812 16.4805364,0.496686367 L16.4805364,6.37496262 C16.4805364,6.64588317 16.2605734,6.86481897 15.989619,6.86481897" id="Fill-2" sketch:type="MSShapeGroup"></path>
            <path d="M15.989619,31.9964494 C15.7186646,31.9964494 15.4997014,31.7775136 15.4997014,31.506593 L15.4997014,25.6293165 C15.4997014,25.3583959 15.7186646,25.1384604 15.989619,25.1384604 C16.2605734,25.1384604 16.4805364,25.3583959 16.4805364,25.6293165 L16.4805364,31.506593 C16.4805364,31.7775136 16.2605734,31.9964494 15.989619,31.9964494" id="Fill-3" sketch:type="MSShapeGroup"></path>
            <path d="M31.496011,16.4919959 L25.6179996,16.4919959 C25.3470452,16.4919959 25.1270822,16.2730601 25.1270822,16.0021395 C25.1270822,15.731219 25.3470452,15.5112835 25.6179996,15.5112835 L31.496011,15.5112835 C31.7679652,15.5112835 31.9869284,15.731219 31.9869284,16.0021395 C31.9869284,16.2730601 31.7679652,16.4919959 31.496011,16.4919959" id="Fill-4" sketch:type="MSShapeGroup"></path>
            <path d="M6.36123839,16.4919959 L0.483227003,16.4919959 C0.211272743,16.4919959 -0.00769042969,16.2730601 -0.00769042969,16.0021395 C-0.00769042969,15.731219 0.211272743,15.5112835 0.483227003,15.5112835 L6.36123839,15.5112835 C6.63219281,15.5112835 6.85215582,15.731219 6.85215582,16.0021395 C6.85215582,16.2730601 6.63219281,16.4919959 6.36123839,16.4919959" id="Fill-5" sketch:type="MSShapeGroup"></path>
            <path d="M22.797474,9.68499198 C22.672495,9.68499198 22.5465162,9.63700605 22.4515322,9.5410342 C22.2595645,9.35009019 22.2595645,9.03918136 22.4515322,8.84723765 L26.6078331,4.69145629 C26.7998008,4.49951258 27.1097487,4.49951258 27.3017164,4.69145629 C27.4926843,4.8834 27.4926843,5.19330913 27.3017164,5.38525284 L23.1444156,9.5410342 C23.0484318,9.63700605 22.9234528,9.68499198 22.797474,9.68499198" id="Fill-6" sketch:type="MSShapeGroup"></path>
            <path d="M5.02446322,27.4557809 C4.89948424,27.4557809 4.77350543,27.4077949 4.67752157,27.3118231 C4.48655369,27.1208791 4.48655369,26.8099702 4.67752157,26.6190262 L8.83482236,22.4622452 C9.02579024,22.2713012 9.33673794,22.2713012 9.52770582,22.4622452 C9.71967353,22.6541889 9.71967353,22.964098 9.52770582,23.1560417 L5.37140486,27.3118231 C5.27542101,27.4077949 5.15044203,27.4557809 5.02446322,27.4557809" id="Fill-7" sketch:type="MSShapeGroup"></path>
            <path d="M26.9547748,27.4557809 C26.828796,27.4557809 26.703817,27.4077949 26.6078331,27.3118231 L22.4515322,23.1560417 C22.2595645,22.964098 22.2595645,22.6541889 22.4515322,22.4622452 C22.6425001,22.2713012 22.9534478,22.2713012 23.1444156,22.4622452 L27.3017164,26.6190262 C27.4926843,26.8099702 27.4926843,27.1208791 27.3017164,27.3118231 C27.2057326,27.4077949 27.0797538,27.4557809 26.9547748,27.4557809" id="Fill-8" sketch:type="MSShapeGroup"></path>
            <path d="M9.181764,9.68499198 C9.05578519,9.68499198 8.93080621,9.63700605 8.83482236,9.5410342 L4.67752157,5.38525284 C4.48655369,5.19330913 4.48655369,4.8834 4.67752157,4.69145629 C4.86948928,4.49951258 5.17943715,4.49951258 5.37140486,4.69145629 L9.52770582,8.84723765 C9.71967353,9.03918136 9.71967353,9.35009019 9.52770582,9.5410342 C9.4327218,9.63700605 9.30674298,9.68499198 9.181764,9.68499198" id="Fill-9" sketch:type="MSShapeGroup"></path>
        </g>
    </g>
</svg>